<svg width="169" height="36" viewBox="0 0 169 36" fill="none" xmlns="http://www.w3.org/2000/svg">
<path d="M21.0723 13.9666L16.7313 6.74584C16.4003 6.19515 16.1715 5.60511 16.0445 5L15.8632 5.30176C14.7888 7.08908 14.7888 9.29075 15.863 11.0781L19.336 16.8549C20.4103 18.6421 20.4103 20.8441 19.336 22.6314L19.1545 22.9332C19.0275 22.3281 18.7988 21.738 18.4678 21.1873L13.2585 12.5223C12.9275 11.9716 12.6989 11.3816 12.5717 10.7765L12.3905 11.0782C11.3197 12.8595 11.3164 15.0525 12.3799 16.8367L15.8632 22.6314C16.9377 24.4186 16.9377 26.6206 15.8632 28.4079L15.6818 28.7097C15.5547 28.1045 15.326 27.5145 14.995 26.964L10.6542 19.7431C10.0719 18.7747 9.80585 17.6845 9.85459 16.6044C5.20749 17.7705 2 20.2462 2 23.1128C2 27.1005 8.20673 30.3333 15.8632 30.3333C23.5195 30.3333 29.7263 27.1005 29.7263 23.1128C29.7263 20.2461 26.5192 17.7696 21.8717 16.6037C21.8305 15.6908 21.5645 14.7852 21.0723 13.9666Z" fill="white"/>
<path d="M43.276 4.264C44.044 4.264 44.668 4.388 45.148 4.636C45.636 4.884 45.984 5.216 46.192 5.632C46.408 6.048 46.516 6.52 46.516 7.048C46.516 7.632 46.388 8.14 46.132 8.572C45.884 8.996 45.516 9.328 45.028 9.568C44.548 9.8 43.968 9.916 43.288 9.916H42.184V13H41.164V4.444C41.476 4.396 41.82 4.356 42.196 4.324C42.58 4.284 42.94 4.264 43.276 4.264ZM43.288 9.028C44 9.028 44.536 8.86 44.896 8.524C45.264 8.18 45.448 7.708 45.448 7.108C45.448 6.484 45.276 6.004 44.932 5.668C44.588 5.324 44.04 5.152 43.288 5.152C42.912 5.152 42.544 5.18 42.184 5.236V9.028H43.288ZM50.2311 13.156C49.6151 13.156 49.0871 13.02 48.6471 12.748C48.2071 12.468 47.8711 12.076 47.6391 11.572C47.4151 11.06 47.3031 10.46 47.3031 9.772C47.3031 9.076 47.4151 8.472 47.6391 7.96C47.8711 7.44 48.2071 7.044 48.6471 6.772C49.0871 6.492 49.6151 6.352 50.2311 6.352C50.8471 6.352 51.3751 6.492 51.8151 6.772C52.2551 7.044 52.5871 7.44 52.8111 7.96C53.0351 8.472 53.1471 9.076 53.1471 9.772C53.1471 10.46 53.0311 11.06 52.7991 11.572C52.5751 12.076 52.2431 12.468 51.8031 12.748C51.3711 13.02 50.8471 13.156 50.2311 13.156ZM50.2311 12.328C50.8471 12.328 51.3151 12.108 51.6351 11.668C51.9551 11.22 52.1151 10.588 52.1151 9.772C52.1151 8.948 51.9551 8.312 51.6351 7.864C51.3231 7.408 50.8551 7.18 50.2311 7.18C49.5991 7.18 49.1271 7.408 48.8151 7.864C48.5031 8.312 48.3471 8.948 48.3471 9.772C48.3471 10.588 48.5071 11.22 48.8271 11.668C49.1471 12.108 49.6151 12.328 50.2311 12.328ZM62.6532 6.508H63.6732L61.4532 13H60.4932L58.7772 7.9L57.0252 13H56.1132L53.8572 6.508H54.9132L56.6172 11.884L58.3212 6.508H59.2452L61.0332 11.932L62.6532 6.508ZM69.8493 9.244C69.8493 9.388 69.8413 9.548 69.8253 9.724C69.8173 9.892 69.8053 10.016 69.7893 10.096H65.4333C65.4893 10.864 65.7053 11.428 66.0813 11.788C66.4573 12.148 66.9773 12.328 67.6413 12.328C67.9773 12.328 68.3133 12.28 68.6493 12.184C68.9933 12.088 69.3133 11.948 69.6093 11.764C69.6013 11.908 69.5813 12.072 69.5493 12.256C69.5253 12.432 69.4933 12.58 69.4533 12.7C69.1893 12.844 68.8933 12.956 68.5653 13.036C68.2453 13.116 67.9173 13.156 67.5813 13.156C66.5173 13.156 65.7173 12.856 65.1813 12.256C64.6453 11.648 64.3773 10.8 64.3773 9.712C64.3773 9.064 64.4813 8.488 64.6893 7.984C64.8973 7.48 65.2133 7.084 65.6373 6.796C66.0693 6.5 66.6053 6.352 67.2453 6.352C67.8133 6.352 68.2933 6.476 68.6853 6.724C69.0773 6.964 69.3693 7.3 69.5613 7.732C69.7533 8.164 69.8493 8.668 69.8493 9.244ZM67.2093 7.18C66.6813 7.18 66.2653 7.364 65.9613 7.732C65.6653 8.092 65.4893 8.604 65.4333 9.268H68.8173V9.232C68.8173 8.608 68.6813 8.112 68.4093 7.744C68.1453 7.368 67.7453 7.18 67.2093 7.18ZM74.2836 6.364C74.4116 6.364 74.5436 6.376 74.6796 6.4C74.8236 6.416 74.9476 6.44 75.0516 6.472C75.0516 6.84 75.0156 7.136 74.9436 7.36C74.7196 7.304 74.4556 7.276 74.1516 7.276C73.8636 7.276 73.5796 7.34 73.2996 7.468C73.0276 7.588 72.7956 7.768 72.6036 8.008V13H71.5956V6.508H72.5436L72.5916 7.48C72.7756 7.128 73.0116 6.856 73.2996 6.664C73.5876 6.464 73.9156 6.364 74.2836 6.364ZM81.1228 9.244C81.1228 9.388 81.1148 9.548 81.0988 9.724C81.0908 9.892 81.0788 10.016 81.0628 10.096H76.7068C76.7628 10.864 76.9788 11.428 77.3548 11.788C77.7308 12.148 78.2508 12.328 78.9148 12.328C79.2508 12.328 79.5868 12.28 79.9228 12.184C80.2668 12.088 80.5868 11.948 80.8828 11.764C80.8748 11.908 80.8548 12.072 80.8228 12.256C80.7988 12.432 80.7668 12.58 80.7268 12.7C80.4628 12.844 80.1668 12.956 79.8388 13.036C79.5188 13.116 79.1908 13.156 78.8548 13.156C77.7908 13.156 76.9908 12.856 76.4548 12.256C75.9188 11.648 75.6508 10.8 75.6508 9.712C75.6508 9.064 75.7548 8.488 75.9628 7.984C76.1708 7.48 76.4868 7.084 76.9108 6.796C77.3428 6.5 77.8788 6.352 78.5188 6.352C79.0868 6.352 79.5668 6.476 79.9588 6.724C80.3508 6.964 80.6428 7.3 80.8348 7.732C81.0268 8.164 81.1228 8.668 81.1228 9.244ZM78.4828 7.18C77.9548 7.18 77.5388 7.364 77.2348 7.732C76.9388 8.092 76.7628 8.604 76.7068 9.268H80.0908V9.232C80.0908 8.608 79.9548 8.112 79.6828 7.744C79.4188 7.368 79.0188 7.18 78.4828 7.18ZM86.8291 3.904C87.1171 3.8 87.4531 3.748 87.8371 3.748V13H86.9011L86.8411 12.112C86.6491 12.456 86.4091 12.716 86.1211 12.892C85.8411 13.068 85.4851 13.156 85.0531 13.156C84.5331 13.156 84.0771 13.032 83.6851 12.784C83.3011 12.528 83.0011 12.152 82.7851 11.656C82.5691 11.16 82.4611 10.548 82.4611 9.82C82.4611 8.716 82.7171 7.864 83.2291 7.264C83.7491 6.656 84.5411 6.352 85.6051 6.352C86.0131 6.352 86.4211 6.384 86.8291 6.448V3.904ZM85.3411 12.328C85.6451 12.328 85.9171 12.268 86.1571 12.148C86.3971 12.028 86.6211 11.856 86.8291 11.632V7.36C86.4291 7.24 86.0251 7.18 85.6171 7.18C84.8811 7.18 84.3411 7.412 83.9971 7.876C83.6531 8.332 83.4811 8.968 83.4811 9.784C83.4811 10.616 83.6411 11.248 83.9611 11.68C84.2811 12.112 84.7411 12.328 85.3411 12.328ZM95.8367 6.352C96.3567 6.352 96.8127 6.476 97.2047 6.724C97.5967 6.972 97.8967 7.348 98.1047 7.852C98.3207 8.348 98.4287 8.96 98.4287 9.688C98.4287 10.792 98.1687 11.648 97.6487 12.256C97.1367 12.856 96.3527 13.156 95.2967 13.156C94.4727 13.156 93.7247 13.032 93.0527 12.784V3.904C93.3327 3.8 93.6687 3.748 94.0607 3.748V7.372C94.2607 7.044 94.5007 6.792 94.7807 6.616C95.0687 6.44 95.4207 6.352 95.8367 6.352ZM95.2847 12.328C96.0207 12.328 96.5567 12.1 96.8927 11.644C97.2367 11.18 97.4087 10.54 97.4087 9.724C97.4087 8.892 97.2487 8.26 96.9287 7.828C96.6167 7.396 96.1567 7.18 95.5487 7.18C95.2527 7.18 94.9807 7.24 94.7327 7.36C94.4927 7.48 94.2687 7.656 94.0607 7.888V12.148C94.3967 12.268 94.8047 12.328 95.2847 12.328ZM105.196 6.508L102.58 13.84C102.332 14.544 102.028 15.068 101.668 15.412C101.308 15.764 100.848 15.94 100.288 15.94C100.088 15.94 99.9002 15.916 99.7242 15.868C99.7242 15.636 99.7522 15.352 99.8082 15.016C99.9522 15.048 100.076 15.064 100.18 15.064C100.436 15.064 100.66 15.016 100.852 14.92C101.052 14.824 101.232 14.652 101.392 14.404C101.552 14.164 101.7 13.828 101.836 13.396L99.1722 6.508H100.252L102.292 12.136L104.164 6.508H105.196Z" fill="white"/>
<path d="M43.416 31.252C42.38 31.252 41.302 31.028 40.644 30.65C40.644 30.034 40.714 29.586 40.854 29.054C41.582 29.446 42.562 29.67 43.416 29.67C44.564 29.67 45.264 29.236 45.264 28.41C45.264 27.626 44.774 27.318 43.598 26.828L42.772 26.478C41.512 25.96 40.616 25.204 40.616 23.594C40.616 22.012 41.624 20.766 44.2 20.766C45.124 20.766 46.034 20.906 46.832 21.228C46.776 21.83 46.706 22.222 46.594 22.768C45.796 22.474 44.956 22.334 44.298 22.334C43.024 22.334 42.576 22.88 42.576 23.524C42.576 24.308 43.024 24.616 44.004 25.008L44.872 25.33C46.202 25.848 47.21 26.646 47.21 28.27C47.21 29.978 45.95 31.252 43.416 31.252ZM51.7 23.202C54.01 23.202 54.78 24.21 54.78 25.82V31H53.058L52.96 29.908C52.582 30.692 51.896 31.182 50.804 31.182C49.418 31.182 48.34 30.37 48.34 28.844C48.34 26.968 49.642 26.268 52.554 26.058L52.918 26.03V25.932C52.918 25.148 52.652 24.672 51.518 24.672C50.342 24.672 49.586 24.896 48.83 25.19C48.83 24.798 48.858 24.196 48.942 23.748C49.642 23.426 50.608 23.202 51.7 23.202ZM51.322 29.768C51.952 29.768 52.582 29.474 52.918 28.984V27.262L52.652 27.276C50.622 27.416 50.16 27.836 50.16 28.704C50.16 29.348 50.58 29.768 51.322 29.768ZM60.7767 23.202C62.4847 23.202 63.2407 24.294 63.2407 25.876V31H61.3647V26.282C61.3647 25.414 61.1407 24.714 60.0767 24.714C59.4747 24.714 58.9567 25.036 58.6627 25.344V31H56.7867V23.384H58.5087L58.6347 24.574C59.0687 23.692 59.7267 23.202 60.7767 23.202ZM67.1102 28.396C67.1102 29.068 67.3342 29.642 68.2722 29.642C68.6642 29.642 69.0842 29.53 69.4342 29.376C69.3922 29.852 69.3222 30.44 69.2242 30.916C68.7482 31.112 68.2582 31.182 67.7962 31.182C66.1862 31.182 65.2342 30.37 65.2342 28.606V21.27C65.8502 21.088 66.4662 21.018 67.1102 21.018V23.384H69.5042C69.4762 23.846 69.4202 24.336 69.3362 24.868H67.1102V28.396ZM73.821 23.202C76.131 23.202 76.901 24.21 76.901 25.82V31H75.179L75.081 29.908C74.703 30.692 74.017 31.182 72.925 31.182C71.539 31.182 70.461 30.37 70.461 28.844C70.461 26.968 71.763 26.268 74.675 26.058L75.039 26.03V25.932C75.039 25.148 74.773 24.672 73.639 24.672C72.463 24.672 71.707 24.896 70.951 25.19C70.951 24.798 70.979 24.196 71.063 23.748C71.763 23.426 72.729 23.202 73.821 23.202ZM73.443 29.768C74.073 29.768 74.703 29.474 75.039 28.984V27.262L74.773 27.276C72.743 27.416 72.281 27.836 72.281 28.704C72.281 29.348 72.701 29.768 73.443 29.768ZM82.8978 23.202C84.6058 23.202 85.3618 24.294 85.3618 25.876V31H83.4858V26.282C83.4858 25.414 83.2618 24.714 82.1978 24.714C81.5958 24.714 81.0778 25.036 80.7838 25.344V31H78.9078V23.384H80.6298L80.7558 24.574C81.1898 23.692 81.8478 23.202 82.8978 23.202ZM91.9613 20.416C92.5913 20.234 93.2773 20.164 93.8373 20.164V31H92.1013L92.0033 29.922C91.6253 30.706 91.0233 31.182 90.0153 31.182C88.2793 31.182 87.0193 29.964 87.0193 27.29C87.0193 24.798 88.0833 23.202 90.9113 23.202C91.2753 23.202 91.6253 23.216 91.9613 23.244V20.416ZM90.6313 29.67C91.1913 29.67 91.6253 29.432 91.9613 29.11V24.812C91.6533 24.742 91.3173 24.7 90.8973 24.7C89.4273 24.7 88.9373 25.666 88.9373 27.206C88.9373 28.9 89.5113 29.67 90.6313 29.67ZM102.298 26.576C102.298 26.982 102.27 27.584 102.214 27.892H97.3983C97.5943 29.222 98.3223 29.698 99.6663 29.698C100.52 29.698 101.36 29.474 102.088 29.124C102.046 29.6 101.92 30.314 101.836 30.678C101.164 30.986 100.38 31.182 99.4843 31.182C96.6703 31.182 95.4943 29.6 95.4943 27.122C95.4943 24.868 96.6143 23.202 99.0222 23.202C101.29 23.202 102.298 24.672 102.298 26.576ZM99.0083 24.672C98.0283 24.672 97.4823 25.316 97.3703 26.534H100.45C100.45 25.414 100.058 24.672 99.0083 24.672ZM107.676 23.216C107.956 23.216 108.278 23.244 108.502 23.328C108.502 23.846 108.446 24.49 108.348 24.924C108.11 24.882 107.802 24.868 107.48 24.868C106.99 24.868 106.374 25.008 105.926 25.386V31H104.05V23.384H105.8L105.898 24.504C106.262 23.706 106.892 23.216 107.676 23.216ZM116.111 20.78C119.205 20.78 120.227 22.306 120.227 24.154C120.227 26.282 118.841 27.696 116.265 27.696H115.201V31H113.283V21.018C114.039 20.892 115.215 20.78 116.111 20.78ZM116.251 26.142C117.595 26.142 118.253 25.386 118.253 24.224C118.253 23.076 117.665 22.334 116.153 22.334C115.901 22.334 115.551 22.348 115.201 22.39V26.142H116.251ZM124.407 23.202C126.717 23.202 127.487 24.21 127.487 25.82V31H125.765L125.667 29.908C125.289 30.692 124.603 31.182 123.511 31.182C122.125 31.182 121.047 30.37 121.047 28.844C121.047 26.968 122.349 26.268 125.261 26.058L125.625 26.03V25.932C125.625 25.148 125.359 24.672 124.225 24.672C123.049 24.672 122.293 24.896 121.537 25.19C121.537 24.798 121.565 24.196 121.649 23.748C122.349 23.426 123.315 23.202 124.407 23.202ZM124.029 29.768C124.659 29.768 125.289 29.474 125.625 28.984V27.262L125.359 27.276C123.329 27.416 122.867 27.836 122.867 28.704C122.867 29.348 123.287 29.768 124.029 29.768ZM132.98 23.202C134.072 23.202 135.038 23.328 135.906 23.608V30.79C135.906 33.128 134.548 34.43 132.07 34.43C131.188 34.43 130.334 34.234 129.69 33.912C129.69 33.45 129.746 32.834 129.858 32.372C130.502 32.708 131.3 32.876 131.944 32.876C133.47 32.876 134.03 32.092 134.03 30.832V29.992C133.666 30.734 133.05 31.182 132.084 31.182C130.348 31.182 129.088 29.964 129.088 27.29C129.088 24.798 130.152 23.202 132.98 23.202ZM132.7 29.67C133.246 29.67 133.68 29.46 134.03 29.124V24.812C133.722 24.742 133.386 24.7 132.966 24.7C131.496 24.7 131.006 25.666 131.006 27.206C131.006 28.9 131.58 29.67 132.7 29.67ZM141.203 31.182C138.893 31.182 137.563 29.656 137.563 27.192C137.563 24.7 138.879 23.202 141.203 23.202C143.541 23.202 144.857 24.7 144.857 27.192C144.857 29.656 143.513 31.182 141.203 31.182ZM141.203 29.67C142.365 29.67 142.925 28.83 142.925 27.192C142.925 25.568 142.379 24.714 141.203 24.714C140.027 24.714 139.495 25.54 139.495 27.192C139.495 28.83 140.055 29.67 141.203 29.67ZM152.437 21.13C152.941 20.99 153.557 20.892 154.271 20.892V31H152.577L149.301 25.554C148.993 25.05 148.699 24.504 148.461 23.944C148.489 25.008 148.503 26.254 148.503 27.374V31H146.683V21.13C147.215 20.99 147.873 20.892 148.475 20.892L151.569 25.918C151.877 26.408 152.213 27.08 152.521 27.724C152.465 26.576 152.437 25.316 152.437 24.084V21.13ZM162.92 31H160.778L159.238 28.69L157.684 31H155.64L158.272 27.262L155.668 23.384H157.796L159.294 25.75L160.834 23.384H162.85L160.246 27.206L162.92 31ZM165.944 28.396C165.944 29.068 166.168 29.642 167.106 29.642C167.498 29.642 167.918 29.53 168.268 29.376C168.226 29.852 168.156 30.44 168.058 30.916C167.582 31.112 167.092 31.182 166.63 31.182C165.02 31.182 164.068 30.37 164.068 28.606V21.27C164.684 21.088 165.3 21.018 165.944 21.018V23.384H168.338C168.31 23.846 168.254 24.336 168.17 24.868H165.944V28.396Z" fill="white"/>
</svg>
