<svg width="155" height="58" viewBox="0 0 155 58" fill="none" xmlns="http://www.w3.org/2000/svg">
<g clip-path="url(#clip0_1263_439)">
<path d="M17.3017 1.93574C15.8699 0.714572 14.0168 0 11.1558 0H0V29.4707H4.2101V16.4191H11.1558C14.0195 16.4191 15.8699 15.7046 17.3017 14.4834C19.0695 12.9689 20.2053 10.7372 20.2053 8.20957C20.208 5.68458 19.0721 3.45287 17.3017 1.93574ZM14.8194 11.1132C14.0621 11.9131 12.9663 12.417 10.9452 12.417H4.2101V3.99947H10.9452C12.9663 3.99947 14.0595 4.5034 14.8194 5.30329C15.5339 6.06052 15.9979 7.07106 15.9979 8.20957C15.9979 9.34542 15.5339 10.356 14.8194 11.1132ZM36.1232 11.4945C34.3128 9.93734 32.1664 9.26276 29.9347 9.26276C28.0816 9.26276 26.4391 9.7267 25.0927 10.5266C22.1037 12.2944 19.9973 15.6192 19.9973 19.5787C19.9973 23.5355 22.0611 26.8204 25.05 28.5882C26.3965 29.3881 28.2496 29.892 30.0173 29.892C32.3743 29.892 34.5207 29.0921 36.1205 27.6603V29.4707H39.9947V9.68404H36.1205V11.4945H36.1232ZM35.9952 23.2822C34.6487 25.0927 32.585 26.1032 30.5639 26.1032C26.7324 26.1032 23.9968 23.1142 23.9968 19.5787C23.9968 16.1258 26.5218 13.0543 30.3533 13.0543C32.753 13.0543 34.774 14.2754 35.9952 15.8752V23.2822ZM60.3306 11.4945C58.5202 9.93734 56.3738 9.26276 54.1421 9.26276C52.289 9.26276 50.6466 9.7267 49.3001 10.5266C46.3112 12.2944 44.2048 15.6192 44.2048 19.5787C44.2048 23.5355 46.2685 26.8204 49.2574 28.5882C50.6039 29.3881 52.457 29.892 54.2248 29.892C56.5818 29.892 58.6029 29.1348 60.2026 27.7456V28.8415C60.2026 31.3265 59.824 32.841 59.1094 33.9368C58.1416 35.4113 56.4565 36.2112 54.3101 36.2112C51.0679 36.2112 49.2148 34.5687 47.7856 32.6756L44.8394 35.4113C46.1032 37.3897 49.3427 40 54.4807 40C58.3949 40 61.4265 38.1896 63.0263 35.1153C63.8262 33.5582 64.2048 31.5798 64.2048 28.6308V9.68671H60.3306V11.4945ZM60.2026 23.2822C58.8562 25.0927 56.7924 26.1032 54.7714 26.1032C50.9399 26.1032 48.2042 23.1142 48.2042 19.5787C48.2042 16.1258 50.7292 13.0543 54.5607 13.0543C56.9604 13.0543 58.9815 14.2754 60.2026 15.8752V23.2822ZM78.6428 9.26276C72.7903 9.26276 68.4122 13.6835 68.4122 19.5761C68.4122 25.4686 72.7903 29.8893 78.6428 29.8893C84.4954 29.8893 88.8735 25.4686 88.8735 19.5761C88.8735 13.6835 84.4954 9.26276 78.6428 9.26276ZM78.6428 26.1032C74.9793 26.1032 72.4117 23.1969 72.4117 19.5787C72.4117 15.9579 74.9793 13.0543 78.6428 13.0543C82.3064 13.0543 84.874 15.9579 84.874 19.5787C84.874 23.1969 82.3064 26.1032 78.6428 26.1032Z" fill="#47D7AC"/>
<path d="M113.924 31.3212L96.2405 9.68137H93.2943V29.4681H97.5044V17.5123L115.187 39.1521H118.134V0H113.924V31.3212ZM140.781 9.68404H136.067L131.393 16.0832L126.719 9.68404H122.005L128.783 19.0721L121.288 29.4707H126.045L131.391 22.0611L136.736 29.4707H141.493L133.998 19.0721L140.781 9.68404ZM154.761 13.2622V9.68404H148.447V4.21011H144.447V22.3117C144.447 24.4581 144.869 26.2685 146.047 27.575C147.311 29.0068 149.161 29.8893 151.646 29.8893C152.782 29.8893 154.003 29.7214 154.761 29.4681L153.961 25.8472C153.372 26.0152 152.361 26.1005 151.772 26.1005C150.719 26.1005 149.583 25.7219 149.036 25.0473C148.532 24.4581 148.447 23.5729 148.447 22.5223V13.2596H154.761V13.2622Z" fill="#47D7AC"/>
<path d="M4.8 55.71L4.25 53.93H1.4L0.84 55.71H0L2.3 48.66C2.55 48.57 3.02 48.54 3.36 48.54L5.68 55.71H4.8ZM1.64 53.17H4.01L2.83 49.39L1.64 53.17Z" fill="#47D7AC"/>
<path d="M12.1447 55.86C10.0547 55.86 8.93469 54.34 8.93469 52.15C8.93469 49.91 10.1047 48.43 12.1347 48.43C12.8147 48.43 13.3747 48.55 13.7747 48.78C13.7547 49.11 13.7147 49.33 13.6347 49.54C13.2547 49.32 12.7347 49.2 12.1847 49.2C10.7147 49.2 9.83469 50.22 9.83469 52.16C9.83469 54.04 10.7547 55.09 12.2047 55.09C12.7947 55.09 13.3447 54.97 13.7547 54.76C13.7347 55.02 13.6947 55.29 13.6147 55.62C13.1547 55.77 12.6747 55.86 12.1447 55.86Z" fill="#47D7AC"/>
<path d="M16.9109 55.84C15.3509 55.84 14.4709 54.74 14.4709 53.02C14.4709 51.28 15.3409 50.17 16.9109 50.17C18.4809 50.17 19.3409 51.28 19.3409 53.02C19.3409 54.75 18.4609 55.84 16.9109 55.84ZM16.9109 55.15C17.9609 55.15 18.4809 54.35 18.4809 53.02C18.4809 51.68 17.9709 50.86 16.9109 50.86C15.8409 50.86 15.3409 51.68 15.3409 53.02C15.3409 54.35 15.8609 55.15 16.9109 55.15Z" fill="#47D7AC"/>
<path d="M26.5998 50.17C27.7698 50.17 28.3598 50.88 28.3598 52.04V55.71H27.5198V52.29C27.5198 51.42 27.2198 50.86 26.2798 50.86C25.7698 50.86 25.3098 51.13 24.9398 51.5C24.9698 51.67 24.9898 51.85 24.9898 52.05V55.71H24.1498V52.31C24.1498 51.42 23.8498 50.86 22.9298 50.86C22.3598 50.86 21.8798 51.19 21.5898 51.52V55.71H20.7498V50.3H21.5298L21.5798 51.14C21.9698 50.5 22.4798 50.17 23.2398 50.17C24.0598 50.17 24.5998 50.53 24.8398 51.16C25.2598 50.52 25.7498 50.17 26.5998 50.17Z" fill="#47D7AC"/>
<path d="M32.4252 50.17C33.7152 50.17 34.5852 51.09 34.5852 52.95C34.5852 54.73 33.7952 55.84 31.9752 55.84C31.5852 55.84 31.2452 55.81 30.9452 55.75V58.02H30.1052V50.3H30.8852L30.9352 51.04C31.2452 50.5 31.6952 50.17 32.4252 50.17ZM31.9652 55.15C33.2452 55.15 33.7352 54.26 33.7352 52.98C33.7352 51.59 33.2052 50.86 32.1852 50.86C31.6652 50.86 31.2752 51.09 30.9452 51.45V55C31.2252 55.1 31.5452 55.15 31.9652 55.15Z" fill="#47D7AC"/>
<path d="M37.9127 50.17C39.2327 50.17 39.8627 50.78 39.8627 51.96V55.71H39.0727L39.0327 54.94C38.7427 55.46 38.2027 55.84 37.3827 55.84C36.3727 55.84 35.6627 55.25 35.6627 54.23C35.6627 52.9 36.6127 52.36 38.7727 52.22L39.0227 52.21V51.99C39.0227 51.27 38.7227 50.86 37.8027 50.86C37.0127 50.86 36.4727 51.04 35.9827 51.29C35.9827 51.11 36.0027 50.81 36.0427 50.57C36.5027 50.33 37.1127 50.17 37.9127 50.17ZM37.5527 55.16C38.1727 55.16 38.7227 54.85 39.0227 54.44V52.84L38.8227 52.85C36.8927 52.98 36.4927 53.46 36.4927 54.18C36.4927 54.75 36.8627 55.16 37.5527 55.16Z" fill="#47D7AC"/>
<path d="M44.0503 50.17C45.2103 50.17 45.8003 50.88 45.8003 52.05V55.71H44.9603V52.31C44.9603 51.42 44.6603 50.86 43.7403 50.86C43.1703 50.86 42.6903 51.19 42.4003 51.52V55.71H41.5603V50.3H42.3403L42.3903 51.14C42.7803 50.5 43.2903 50.17 44.0503 50.17Z" fill="#47D7AC"/>
<path d="M50.8492 50.3H51.7092L49.5292 56.41C49.1292 57.53 48.5892 58.16 47.6192 58.16C47.4892 58.16 47.2992 58.14 47.1492 58.1C47.1492 57.85 47.1792 57.63 47.2192 57.39C47.3092 57.41 47.4392 57.43 47.5292 57.43C48.1392 57.43 48.5592 57.14 48.9092 56.04L46.6892 50.3H47.5892L49.2892 54.99L50.8492 50.3Z" fill="#47D7AC"/>
<path d="M57.6205 50.17C58.9105 50.17 59.7805 51.09 59.7805 52.95C59.7805 54.73 58.9805 55.84 57.1705 55.84C56.3805 55.84 55.7906 55.71 55.3005 55.53V48.13C55.5705 48.03 55.8806 48 56.1405 48V51.02C56.4506 50.5 56.9005 50.17 57.6205 50.17ZM57.1605 55.15C58.4405 55.15 58.9305 54.26 58.9305 52.98C58.9305 51.59 58.4005 50.86 57.3805 50.86C56.8605 50.86 56.4706 51.09 56.1405 51.45V55C56.4205 55.1 56.7405 55.15 57.1605 55.15Z" fill="#47D7AC"/>
<path d="M64.5602 50.3H65.4202L63.2402 56.41C62.8402 57.53 62.3002 58.16 61.3302 58.16C61.2002 58.16 61.0102 58.14 60.8602 58.1C60.8602 57.85 60.8902 57.63 60.9302 57.39C61.0202 57.41 61.1502 57.43 61.2402 57.43C61.8502 57.43 62.2702 57.14 62.6202 56.04L60.4002 50.3H61.3002L63.0002 54.99L64.5602 50.3Z" fill="#47D7AC"/>
<path d="M70.5215 55.86C69.8215 55.86 69.1015 55.71 68.6115 55.42C68.6115 55.12 68.6415 54.91 68.7215 54.67C69.2815 54.98 69.9815 55.12 70.5415 55.12C71.5315 55.12 72.1415 54.67 72.1415 53.92C72.1415 53.17 71.7015 52.86 70.8015 52.51L70.2615 52.29C69.3115 51.92 68.6415 51.37 68.6415 50.29C68.6415 49.12 69.4415 48.43 70.9815 48.43C71.6215 48.43 72.2215 48.54 72.7715 48.77C72.7415 49.07 72.7015 49.25 72.6315 49.49C72.0815 49.28 71.5015 49.17 71.0115 49.17C70.0115 49.17 69.5315 49.62 69.5315 50.28C69.5315 51.05 69.9515 51.3 70.7615 51.61L71.3215 51.83C72.2015 52.17 73.0315 52.68 73.0315 53.87C73.0315 55.02 72.1915 55.86 70.5215 55.86Z" fill="#47D7AC"/>
<path d="M76.2623 50.17C77.5823 50.17 78.2123 50.78 78.2123 51.96V55.71H77.4223L77.3823 54.94C77.0923 55.46 76.5523 55.84 75.7323 55.84C74.7223 55.84 74.0123 55.25 74.0123 54.23C74.0123 52.9 74.9623 52.36 77.1223 52.22L77.3723 52.21V51.99C77.3723 51.27 77.0723 50.86 76.1523 50.86C75.3623 50.86 74.8223 51.04 74.3323 51.29C74.3323 51.11 74.3523 50.81 74.3923 50.57C74.8523 50.33 75.4623 50.17 76.2623 50.17ZM75.9023 55.16C76.5223 55.16 77.0723 54.85 77.3723 54.44V52.84L77.1723 52.85C75.2423 52.98 74.8423 53.46 74.8423 54.18C74.8423 54.75 75.2123 55.16 75.9023 55.16Z" fill="#47D7AC"/>
<path d="M82.3999 50.17C83.5599 50.17 84.1499 50.88 84.1499 52.05V55.71H83.3099V52.31C83.3099 51.42 83.0099 50.86 82.0899 50.86C81.5199 50.86 81.0399 51.19 80.7499 51.52V55.71H79.9099V50.3H80.6899L80.7399 51.14C81.1299 50.5 81.6399 50.17 82.3999 50.17Z" fill="#47D7AC"/>
<path d="M86.6862 54.1C86.6862 54.73 86.9463 55.12 87.6562 55.12C87.9662 55.12 88.2862 55.03 88.5462 54.9C88.5263 55.12 88.4962 55.41 88.4562 55.65C88.1262 55.78 87.7862 55.84 87.4762 55.84C86.5062 55.84 85.8462 55.35 85.8462 54.18V48.81C86.1162 48.72 86.3962 48.68 86.6862 48.68V50.3H88.5662C88.5562 50.57 88.5262 50.77 88.4862 51.01H86.6862V54.1Z" fill="#47D7AC"/>
<path d="M91.6041 50.17C92.9241 50.17 93.5541 50.78 93.5541 51.96V55.71H92.7641L92.7241 54.94C92.4341 55.46 91.8941 55.84 91.0741 55.84C90.0641 55.84 89.3541 55.25 89.3541 54.23C89.3541 52.9 90.3041 52.36 92.4641 52.22L92.7141 52.21V51.99C92.7141 51.27 92.4141 50.86 91.4941 50.86C90.7041 50.86 90.1641 51.04 89.6741 51.29C89.6741 51.11 89.6941 50.81 89.7341 50.57C90.1941 50.33 90.8041 50.17 91.6041 50.17ZM91.2441 55.16C91.8641 55.16 92.4141 54.85 92.7141 54.44V52.84L92.5141 52.85C90.5841 52.98 90.1841 53.46 90.1841 54.18C90.1841 54.75 90.5541 55.16 91.2441 55.16Z" fill="#47D7AC"/>
<path d="M97.7417 50.17C98.9017 50.17 99.4917 50.88 99.4917 52.05V55.71H98.6517V52.31C98.6517 51.42 98.3517 50.86 97.4317 50.86C96.8617 50.86 96.3817 51.19 96.0917 51.52V55.71H95.2517V50.3H96.0317L96.0817 51.14C96.4717 50.5 96.9817 50.17 97.7417 50.17Z" fill="#47D7AC"/>
<path d="M104.538 48.13C104.818 48.03 105.128 48 105.378 48V55.71H104.598L104.548 54.97C104.248 55.51 103.808 55.84 103.058 55.84C101.768 55.84 100.898 54.91 100.898 53.06C100.898 51.27 101.698 50.17 103.518 50.17C103.878 50.17 104.218 50.2 104.538 50.25V48.13ZM103.298 55.15C103.818 55.15 104.208 54.93 104.538 54.57V51.01C104.238 50.92 103.928 50.86 103.528 50.86C102.238 50.86 101.748 51.75 101.748 53.03C101.748 54.42 102.298 55.15 103.298 55.15Z" fill="#47D7AC"/>
<path d="M111.336 52.58C111.336 52.8 111.316 53.15 111.286 53.29H107.656C107.756 54.61 108.416 55.15 109.496 55.15C110.056 55.15 110.636 54.99 111.136 54.68C111.126 54.92 111.066 55.26 111.006 55.46C110.566 55.7 110.016 55.84 109.446 55.84C107.636 55.84 106.776 54.74 106.776 52.97C106.776 51.4 107.506 50.17 109.166 50.17C110.626 50.17 111.336 51.17 111.336 52.58ZM109.136 50.86C108.246 50.86 107.746 51.52 107.656 52.6H110.476V52.57C110.476 51.58 110.066 50.86 109.136 50.86Z" fill="#47D7AC"/>
<path d="M115.031 50.18C115.241 50.18 115.491 50.21 115.671 50.27C115.671 50.48 115.651 50.79 115.581 51.01C115.381 50.96 115.131 50.94 114.921 50.94C114.461 50.94 113.961 51.13 113.631 51.55V55.71H112.791V50.3H113.581L113.621 51.11C113.921 50.53 114.411 50.18 115.031 50.18Z" fill="#47D7AC"/>
</g>
<defs>
<clipPath id="clip0_1263_439">
<rect width="155" height="58" fill="white"/>
</clipPath>
</defs>
</svg>
