<svg width="160" height="160" viewBox="0 0 160 160" fill="none" xmlns="http://www.w3.org/2000/svg">
<path fill-rule="evenodd" clip-rule="evenodd" d="M101.817 103.788C83.6793 102.817 64.5848 107.205 54.9044 110.535C49.1049 112.53 47.5118 116.193 41.4452 117.185C29.2612 119.175 0.651852 119.765 0.0861518 122.698C-1.02753 128.473 8.62455 131.56 30.8863 134.23C30.4056 134.626 33.5977 141.852 51.5454 143.484C58.6472 144.129 70.5591 143.486 75.1275 142.075C82.1493 139.906 89.4429 138.74 96.7903 138.574C122.923 137.982 143.415 135.015 143.655 130.528C143.736 129.029 142.227 126.95 139.863 125.741C138.391 124.988 140.553 124.353 141.055 124.173C147.222 121.953 150.681 119.475 150.807 117.508C151.202 111.333 128.44 105.214 101.817 103.788Z" fill="#DEEDF2"/>
<path fill-rule="evenodd" clip-rule="evenodd" d="M37.2152 6.07864C33.8659 6.46215 30.0663 9.04205 29.6334 12.0524C28.0869 9.4337 22.6871 8.70218 19.444 9.62274C10.8857 12.0522 9.86025 22.3352 14.8388 28.1288C17.5183 31.2472 20.978 33.7526 24.6355 35.8934C27.6981 37.6861 35.3887 41.2519 35.4059 41.2313C35.4298 41.2439 41.1832 35.0183 43.3325 32.1945C45.8994 28.8224 48.1445 25.1883 49.435 21.2846C51.8325 14.0316 46.0538 5.06627 37.2152 6.07864Z" fill="#EC0000"/>
<path fill-rule="evenodd" clip-rule="evenodd" d="M47.2178 20.4394C44.9513 20.9479 42.6852 21.4563 40.4187 21.9646C39.003 19.1375 37.587 16.3103 36.171 13.4831C35.9664 13.0744 35.3306 13.2339 35.2742 13.6605C34.5405 19.2145 33.8068 24.7687 33.0731 30.3227C33.0303 30.6444 32.9879 30.966 32.9456 31.2878C31.0684 28.0984 29.1914 24.9092 27.3143 21.7198C27.0133 21.2083 26.7124 20.6967 26.4113 20.1854C26.2298 19.877 25.6571 19.8537 25.5405 20.249C24.9982 22.0861 24.4559 23.9234 23.9136 25.7606C21.3644 26.2649 18.8155 26.7691 16.2662 27.2734C15.6679 27.3918 15.8401 28.2675 16.4395 28.1489C19.0848 27.6258 21.7297 27.1023 24.3749 26.579C24.5296 26.5484 24.6893 26.4324 24.7335 26.2828C25.1983 24.7084 25.6629 23.134 26.1277 21.5597C28.0534 24.8315 29.9791 28.1036 31.905 31.3756C32.2059 31.8871 32.507 32.3986 32.808 32.9102C33.0338 33.2939 33.646 33.1796 33.705 32.7327C34.4387 27.1785 35.1724 21.6244 35.9061 16.0704C35.9412 15.8047 35.9763 15.5391 36.0113 15.2733C37.2489 17.7447 38.4865 20.216 39.7243 22.6874C39.8103 22.8589 40.0363 22.9648 40.2362 22.9201C42.6213 22.3851 45.006 21.85 47.3909 21.3149C47.9853 21.1817 47.8146 20.3056 47.2178 20.4394Z" fill="white"/>
<path fill-rule="evenodd" clip-rule="evenodd" d="M55.0304 85.1619L54.0893 98.0386L50.9736 119.357H48.5777L47.0647 99.6864L46.3945 83.7715L55.0304 85.1619Z" fill="#DEEDF2"/>
<path fill-rule="evenodd" clip-rule="evenodd" d="M38.0586 82.127L38.9692 100.177L41.0541 120.898H43.5079L45.5022 101.266L48.4157 80.6021L38.0586 82.127Z" fill="#DEEDF2"/>
<path fill-rule="evenodd" clip-rule="evenodd" d="M48.5898 119.072V120.367L51.1806 121.663L52.476 120.367L51.1806 119.072H48.5898Z" fill="#34466B"/>
<path fill-rule="evenodd" clip-rule="evenodd" d="M43.492 120.605V121.932L40.8386 123.259L39.5117 121.932L40.8386 120.605H43.492Z" fill="#34466B"/>
<path fill-rule="evenodd" clip-rule="evenodd" d="M29.8146 42.3966L29.5097 40.8374L30.3102 39.6877L30.1527 39.3944L29.7838 39.5737L30.175 38.4291L29.8269 37.5113L28.5642 37.1777L27.3231 37.7083L27.125 38.9973L27.6881 40.4426L28.0128 42.5948L29.8146 42.3966Z" fill="#FFC4B8"/>
<path fill-rule="evenodd" clip-rule="evenodd" d="M57.4328 36.721L57.5141 35.1344L56.5593 34.1094L56.6739 33.7967L57.0645 33.922L56.5156 32.8442L56.7302 31.8864L57.9336 31.3779L59.2369 31.7278L59.6152 32.9759L59.2619 34.4862L59.2445 36.6629L57.4328 36.721Z" fill="#FFC4B8"/>
<path fill-rule="evenodd" clip-rule="evenodd" d="M47.426 49.2409C49.5926 48.3422 51.1367 46.0259 51.1367 43.3131C51.1367 39.8211 48.5781 36.9858 45.4266 36.9858C42.9329 36.9858 40.8103 38.7612 40.033 41.2323L40.0234 41.2348L38.5317 46.1655L38.6689 46.2245L38.7405 46.2553L39.6222 46.4458L39.6261 49.0355L39.6691 49.1925C39.7388 49.4101 39.8353 49.6211 39.9584 49.8194C40.102 50.0513 40.2799 50.2632 40.4815 50.4459C40.5867 50.5418 40.6994 50.6286 40.8184 50.7069C40.8814 50.7491 40.9444 50.7877 41.0091 50.8241C41.0597 50.8532 41.1106 50.8802 41.1628 50.9052L41.3219 50.9832L40.815 56.6935C40.815 56.6935 43.4181 57.3131 44.6232 57.064L44.7841 57.0282L44.7874 57.0275C45.9376 56.7795 47.08 56.3893 48.0455 55.1992C48.0455 55.1992 48.0428 55.1859 48.0378 55.1603L48.0455 55.1512C48.0455 55.1512 47.9551 54.7187 47.8422 54.0125C47.67 52.8858 47.4475 51.0934 47.426 49.2409Z" fill="#F4A48D"/>
<path fill-rule="evenodd" clip-rule="evenodd" d="M41.2326 52.275C41.9661 52.0535 43.5136 51.1824 44.6758 49.7653L41.3587 50.9511C41.3587 50.9511 41.2952 51.6278 41.2326 52.275ZM39.4694 46.3911C39.7687 46.4911 40.0754 46.2644 40.0673 45.9493L40.0152 43.918L39.4694 46.3911Z" fill="#A66555"/>
<path fill-rule="evenodd" clip-rule="evenodd" d="M47.4158 49.4457L48.3014 48.9546C49.3619 48.3392 50.2601 47.4216 50.8484 46.2512C52.4598 43.0448 51.1388 39.153 47.8982 37.5583C44.9808 36.1227 41.4992 37.0395 39.6609 39.5802L40.3893 40.165C40.5547 40.1173 40.8285 40.0409 41.1638 39.9551C42.3685 39.6406 44.3664 39.1958 44.9919 39.4981C45.9077 39.9409 45.865 41.6085 45.726 42.9315C45.59 44.2255 45.4672 44.7874 46.0593 45.0415C46.2765 45.1347 46.4106 44.0417 46.9086 43.7133C47.4346 43.3664 48.1064 43.7196 48.008 44.9078C47.8452 45.4477 47.72 45.9799 47.626 46.4996C47.4686 47.4291 47.411 48.4429 47.4158 49.4457Z" fill="#767676"/>
<path fill-rule="evenodd" clip-rule="evenodd" d="M30.0189 41.1156L27.625 40.9658L28.6939 54.027L38.8563 59.4014L41.1974 53.0581L33.1636 49.3626L30.0189 41.1156Z" fill="#F6C854"/>
<path fill-rule="evenodd" clip-rule="evenodd" d="M57.0886 35.479L59.4374 34.9927L59.6234 44.029L58.7005 51.0129L52.6945 59.8275L47.7773 52.7134L53.4865 48.5176L57.0886 35.479Z" fill="#F6C854"/>
<path fill-rule="evenodd" clip-rule="evenodd" d="M48.4106 52.3604L40.4764 52.6962L36.4713 67.9406L33.1641 89.0738L58.6991 89.6947L52.6931 59.8274L48.4106 52.3604Z" fill="#F6C854"/>
<path fill-rule="evenodd" clip-rule="evenodd" d="M89.645 46.8712L89.3533 45.3479L90.1392 44.2281L89.9863 43.9411L89.6255 44.1148L90.0115 42.9988L89.6751 42.1013L88.4432 41.771L87.2295 42.2843L87.0312 43.5424L87.5759 44.9555L87.885 47.0583L89.645 46.8712Z" fill="#FFC4B8"/>
<path fill-rule="evenodd" clip-rule="evenodd" d="M89.725 45.2725L87.3281 47.3093L87.6684 57.77L91.6999 60.578L99.4048 59.5908L98.3769 52.9707L91.9413 54.2101L89.725 45.2725Z" fill="#DEEDF2"/>
<path fill-rule="evenodd" clip-rule="evenodd" d="M114.283 118.181L114.585 119.563L112.197 121.532L110.551 120.442L111.594 118.767L113.982 116.798L114.283 118.181Z" fill="#34466B"/>
<path fill-rule="evenodd" clip-rule="evenodd" d="M105.932 75.6763L108.596 81.8209L108.848 99.1087L114.327 117.704L111.779 118.834L100.598 97.242L99.326 90.4031L98.8203 75.9998L105.932 75.6763Z" fill="#9BC3D3"/>
<path fill-rule="evenodd" clip-rule="evenodd" d="M93.0298 77.0538L92.8203 95.1716L96.2344 118.531H98.8596L100.518 96.9769L104.11 75.4224L93.0298 77.0538Z" fill="#9BC3D3"/>
<path d="M98.8444 118.219V119.638L96.0055 121.058L94.5859 119.638L96.0055 118.219H98.8444Z" fill="black"/>
<path fill-rule="evenodd" clip-rule="evenodd" d="M104.647 46.7029C105.853 45.8168 106.637 44.3883 106.637 42.7783C106.637 40.0921 104.456 37.9111 101.77 37.9111C99.2892 37.9111 97.2397 39.7705 96.9401 42.1702C96.8877 42.4202 96.8496 42.673 96.8234 42.9257L96.8233 42.9262L96.8225 42.9317L96.8223 42.9337C96.8145 43.0093 96.8078 43.0849 96.8021 43.1603L96.4669 46.9161L97.2299 47.1715L97.2378 47.1733L97.2379 47.1733C97.2568 47.2387 97.2673 47.2741 97.2673 47.2741L97.288 47.7822L97.3255 48.7318C97.3385 49.046 97.4042 49.3539 97.5186 49.6434C97.5986 49.8478 97.7042 50.0435 97.8333 50.2251C97.9849 50.4383 98.166 50.6296 98.3682 50.7911C98.4735 50.8758 98.5855 50.9515 98.7024 51.0188C98.7643 51.0546 98.8261 51.0874 98.8902 51.1182L98.8907 51.1184L98.5629 57.0509C98.5629 57.0509 100.295 57.5727 102.191 57.1586C103.337 56.9105 104.545 56.3179 105.466 55.0636C105.466 55.0636 104.376 50.3377 104.647 46.7029Z" fill="#FFC4B8"/>
<path fill-rule="evenodd" clip-rule="evenodd" d="M102.17 57.0883C103.317 56.8401 104.524 56.2476 105.445 54.9933C105.445 54.9933 104.266 49.9294 104.666 46.2493C104.666 46.2493 101.983 52.7898 102.17 57.0883ZM97.2278 47.1926C97.4949 47.2709 97.7578 47.0611 97.7404 46.7836L97.6281 44.9946L97.2278 47.1926Z" fill="#F4A48D"/>
<path fill-rule="evenodd" clip-rule="evenodd" d="M103.406 43.9112C103.743 43.4743 104.197 43.2514 104.586 43.3843C105.138 43.5734 105.35 44.4116 105.057 45.255C104.956 45.5487 104.806 45.8046 104.631 46.0053C104.62 46.2573 104.615 46.5051 104.617 46.7482C105.311 46.1725 105.979 45.4109 106.293 44.505C107.271 41.6805 106.173 39.0501 102.856 37.9151C100.366 37.0631 97.6852 38.127 96.4967 40.3155L96.7647 40.7408L96.7658 40.7368L96.8086 40.7253L101.273 39.4875L102.41 42.6187L101.995 43.3783L100.151 46.742C100.023 46.9775 99.8343 47.169 99.6093 47.3015C99.4382 47.4029 99.2472 47.4714 99.0447 47.4996L99.0434 47.4992C98.9792 47.5078 98.9145 47.5132 98.8486 47.514C98.7434 47.5158 98.6392 47.5063 98.5368 47.4873L97.6924 47.3249C97.6127 47.3093 97.5312 47.2989 97.4502 47.2915C97.3023 47.2787 97.1538 47.2803 97.0067 47.2954C97.0036 47.2959 97.0009 47.2949 96.9987 47.2971L97.0071 47.2985C97.031 47.3633 97.0441 47.3984 97.0441 47.3984L97.0988 47.9089L98.2403 48.0841C98.2702 48.0885 98.2978 48.095 98.3258 48.1046C98.4713 48.1544 98.5863 48.2709 98.6316 48.4202C98.6854 48.5971 98.6285 48.7871 98.4872 48.9061L97.5581 49.6865L97.459 49.7704C97.5548 49.9719 97.6767 50.1634 97.8217 50.3396C97.992 50.5462 98.1915 50.7294 98.4105 50.8815C98.5248 50.9613 98.6452 51.0316 98.7703 51.0933L98.8226 51.0675C98.873 51.0426 98.9252 51.0168 98.9748 50.9901C100.392 50.2606 101.56 49.1675 102.365 47.8399C102.656 47.3607 102.9 46.8507 103.09 46.3162C103.111 46.2608 103.13 46.2048 103.149 46.1472L103.149 46.1467C102.895 45.7857 102.844 45.179 103.055 44.5697L103.062 44.548L103.065 44.5407L103.07 44.5264L103.073 44.5179L103.078 44.5047L103.081 44.496L103.087 44.4827L103.09 44.4746L103.096 44.4588L103.098 44.4535L103.107 44.433L103.11 44.4254L103.115 44.4122L103.119 44.4034L103.124 44.3915L103.128 44.3825L103.133 44.3707L103.137 44.3619L103.143 44.3491L103.147 44.3416L103.156 44.3223L103.159 44.3147L103.165 44.3024L103.169 44.2935L103.175 44.2825L103.179 44.2735L103.185 44.2627L103.189 44.2538L103.195 44.2426L103.199 44.2344L103.209 44.2161L103.213 44.209L103.219 44.1971L103.224 44.1885L103.23 44.1782L103.235 44.1694L103.241 44.1593L103.246 44.1506L103.252 44.1403L103.256 44.1321L103.264 44.1192L103.267 44.1143L103.27 44.1092L103.278 44.0966L103.283 44.0887L103.289 44.0786L103.294 44.0704L103.3 44.0607L103.306 44.0526L103.312 44.0427L103.317 44.035L103.325 44.0236L103.329 44.0177L103.34 44.0012L103.345 43.9944L103.352 43.9842L103.357 43.9768L103.364 43.9673L103.369 43.9599L103.376 43.9503L103.381 43.9433L103.39 43.9324L103.394 43.927L103.406 43.9112Z" fill="#9BC3D3"/>
<path fill-rule="evenodd" clip-rule="evenodd" d="M98.1972 52.5204L105.171 52.2622C105.171 52.2622 109.342 55.9226 111.498 65.4342C113.694 75.1195 111.093 89.0626 111.093 89.0626C111.093 89.0626 92.3841 86.5688 89.3164 86.1837L93.9966 67.061L98.1972 52.5204Z" fill="#DEEDF2"/>
<path fill-rule="evenodd" clip-rule="evenodd" d="M100.12 53.3825L92.7885 82.7066L92.1875 86.5524L101.321 87.7541C101.321 87.7541 100.961 73.7119 101.081 71.8398C101.201 69.9675 102.556 65.9179 102.764 61.5548C102.884 59.031 103.685 54.4979 103.124 53.022L100.12 53.3825Z" fill="white"/>
<path fill-rule="evenodd" clip-rule="evenodd" d="M40.1611 63.3362C40.9601 67.0205 44.5837 69.3612 48.2542 68.5647C51.9249 67.768 54.2524 64.1357 53.4533 60.4514C52.6541 56.7673 49.0307 54.4263 45.36 55.223C41.6895 56.0197 39.3618 59.652 40.1611 63.3362Z" fill="#34466B"/>
<path fill-rule="evenodd" clip-rule="evenodd" d="M42.2369 62.8852C42.7862 65.4175 45.2769 67.0267 47.7999 66.4791C50.3228 65.9316 51.9229 63.4348 51.3735 60.9023C50.8242 58.37 48.3335 56.761 45.8105 57.3086C43.2876 57.8562 41.6877 60.353 42.2369 62.8852Z" fill="#DEEDF2"/>
<path fill-rule="evenodd" clip-rule="evenodd" d="M51.1318 86.1299L52.9128 85.7431L48.3004 64.4805L46.5195 64.8671L51.1318 86.1299Z" fill="#DEEDF2"/>
<path d="M45.3143 62.389C45.5024 63.2558 46.3551 63.8066 47.2188 63.6192C48.0823 63.4318 48.6301 62.5769 48.4419 61.7102C48.254 60.8432 47.4013 60.2926 46.538 60.48C45.6741 60.6674 45.1263 61.522 45.3143 62.389Z" fill="#34466B"/>
<path fill-rule="evenodd" clip-rule="evenodd" d="M46.2275 63.515L47.3517 68.698C47.3517 68.698 46.3068 68.7557 45.7148 68.6301L45.9441 63.3506L46.2275 63.515Z" fill="#444444"/>
<path fill-rule="evenodd" clip-rule="evenodd" d="M71.3982 99.2177C71.4715 99.2007 71.595 99.1669 71.3982 99.2177V99.2177ZM82.328 79.9462C81.9322 80.0164 81.5933 80.3576 81.1547 80.3158C81.2527 80.9408 81.0308 79.4886 81.0919 80.1204C81.1735 80.9649 81.2251 81.813 81.2452 82.6632C81.2566 83.1452 81.2577 83.6276 81.2476 84.1106C81.246 84.1938 81.2286 84.6464 81.2434 84.3044C81.2378 84.4317 81.2333 84.5588 81.2271 84.6861C81.215 84.9316 81.2 85.177 81.1817 85.4227C81.1022 86.491 80.9629 87.5608 80.7453 88.6257C80.6343 89.1665 80.5034 89.7063 80.3482 90.2432C80.2669 90.5244 80.1793 90.8048 80.084 91.0842C80.0436 91.2036 80.0004 91.3225 79.9584 91.4417C79.9504 91.4638 79.9368 91.5003 79.9259 91.5288C79.9173 91.5512 79.9087 91.5737 79.8999 91.5961C79.484 92.6257 78.9808 93.6364 78.3182 94.5994C78.2375 94.7171 78.1531 94.8331 78.0685 94.9494C78.1563 94.8273 77.9338 95.1223 77.8887 95.1781C77.7254 95.3796 77.5546 95.5779 77.3761 95.772C77.0038 96.1772 76.5955 96.5582 76.1613 96.9249C76.2437 96.8528 75.9002 97.1273 75.8363 97.1742C75.7121 97.2651 75.5857 97.354 75.4569 97.4413C75.2235 97.599 74.9831 97.7502 74.7357 97.8941C74.5691 97.9912 74.3998 98.0848 74.2276 98.1753C74.1697 98.2056 74.1103 98.2344 74.0531 98.2652C74.0469 98.2686 74.0415 98.2715 74.0362 98.2744C74.0306 98.2769 74.025 98.2795 74.0185 98.282C73.7389 98.4044 73.4646 98.5312 73.1783 98.6434C72.8187 98.7848 72.4513 98.9123 72.0783 99.0264C71.9212 99.0744 71.7633 99.12 71.6043 99.1633C71.5333 99.1826 71.4618 99.2011 71.3906 99.2198C71.3854 99.2209 71.3807 99.2221 71.3765 99.2228C70.6109 99.3824 69.8524 99.529 69.072 99.6074C68.8493 99.6299 68.6267 99.6451 68.4038 99.6609C68.3894 99.6619 68.3751 99.6625 68.3608 99.6634C68.3635 99.6632 68.3524 99.6639 68.3341 99.6648C68.2842 99.6676 68.2344 99.6697 68.1848 99.6723C68.2208 99.6705 68.2501 99.6688 68.274 99.6677C68.2423 99.6688 68.209 99.6699 68.1867 99.6703C67.8514 99.6726 67.5175 99.6728 67.1842 99.6563C66.8271 99.6389 66.4722 99.608 66.1213 99.5634C65.9733 99.5448 65.8274 99.5203 65.6802 99.5001C65.6764 99.4997 65.6735 99.4992 65.6702 99.4988C65.6632 99.4972 65.6561 99.4954 65.6479 99.4937C65.5855 99.4794 65.5208 99.4687 65.4578 99.4557C64.8319 99.3253 64.2255 99.1502 63.6464 98.936C63.5593 98.9036 63.023 98.6753 63.3599 98.8268C63.2357 98.7709 63.1097 98.7171 62.9869 98.6594C62.726 98.5373 62.4718 98.4077 62.2244 98.271C61.7229 97.9937 61.2535 97.6874 60.8036 97.3634C60.7684 97.3374 60.7219 97.3026 60.7004 97.2854C60.6314 97.2307 60.5615 97.1767 60.4929 97.1213C60.3898 97.0382 60.2881 96.9538 60.1881 96.8686C59.9748 96.6869 59.768 96.5008 59.5676 96.3105C59.1388 95.9036 58.7379 95.4788 58.3616 95.0405C58.1614 94.8074 57.9682 94.5704 57.7813 94.3303C57.7286 94.2628 57.5363 94.0038 57.6441 94.1518C57.5673 94.0466 57.4901 93.9414 57.415 93.8354C56.0986 91.9798 55.1062 89.9775 54.3098 87.9316C54.1269 87.4617 53.9547 86.989 53.7927 86.5135C53.7499 86.3883 53.7085 86.2627 53.6666 86.1374C53.6625 86.1254 53.6592 86.1158 53.6563 86.107C53.6518 86.0925 53.646 86.0736 53.6384 86.0496C53.5705 85.8328 53.503 85.6161 53.4378 85.3988C53.214 84.6479 53.0132 83.8919 52.8363 83.1309C52.6735 82.4314 52.5199 81.727 52.4189 81.017C52.2203 79.6185 49.3936 80.0203 49.592 81.4165C49.5991 81.4657 49.6081 81.515 49.6146 81.5642C49.7577 82.6318 50.0315 83.6907 50.31 84.7332C50.8418 86.7228 51.5137 88.6892 52.3805 90.5897C54.2714 94.7364 57.2564 99.1211 62.5714 101.043C68.1379 103.056 75.4602 101.281 79.3507 97.2794C83.0264 93.499 83.9244 88.5594 84.0632 84.1246C84.1302 81.9872 84.3526 81.8974 83.9901 79.791C83.494 80.003 82.843 79.8548 82.328 79.9462Z" fill="#1BB3BC"/>
<path fill-rule="evenodd" clip-rule="evenodd" d="M82.8261 36.7901C84.8612 36.449 86.8964 36.108 88.9315 35.7671C89.3657 35.6941 89.7967 36.0017 89.8698 36.4387C90.6488 41.0891 91.4278 45.7396 92.2065 50.3902C92.3165 51.0462 92.4264 51.7022 92.5363 52.3583C92.7101 53.396 91.1036 53.6669 90.9296 52.6275C90.1507 47.9769 89.3717 43.3264 88.5931 38.676C88.5279 38.2887 88.4633 37.9015 88.3983 37.5142C86.631 37.8103 84.8636 38.1065 83.0961 38.4027C82.0622 38.5758 81.7904 36.9636 82.8261 36.7901Z" fill="#DEEDF2"/>
<path fill-rule="evenodd" clip-rule="evenodd" d="M80.9142 39.5447L82.7678 39.234L82.2278 36.0088L80.3738 36.3195C79.6229 36.4452 79.1161 37.1557 79.2418 37.9062L79.3267 38.4134C79.4525 39.164 80.1633 39.6706 80.9142 39.5447Z" fill="#34466B"/>
<path fill-rule="evenodd" clip-rule="evenodd" d="M82.5576 39.5271L84.1287 39.2638C84.9964 39.1184 85.5818 38.2974 85.4366 37.4303L85.3385 36.8441C85.1932 35.9766 84.3721 35.3914 83.5044 35.5368L81.9336 35.8001L82.5576 39.5271Z" fill="#DEEDF2"/>
<path fill-rule="evenodd" clip-rule="evenodd" d="M66.8821 39.3509C64.8471 39.6919 62.8118 40.033 60.7766 40.374C60.3424 40.4468 60.0353 40.8781 60.1084 41.315C60.8874 45.9654 61.6662 50.6159 62.445 55.2663C62.5549 55.9226 62.6648 56.5786 62.7745 57.2344C62.9484 58.2723 64.5554 58.0047 64.3812 56.9653C63.6024 52.3147 62.8236 47.6643 62.0448 43.0138C61.98 42.6265 61.9148 42.2394 61.8504 41.8521C63.6176 41.5558 65.3849 41.2598 67.1523 40.9635C68.186 40.7903 67.9177 39.1775 66.8821 39.3509Z" fill="#DEEDF2"/>
<path fill-rule="evenodd" clip-rule="evenodd" d="M69.5857 41.3323L67.7317 41.643L67.1914 38.4176L69.0454 38.1071C69.7961 37.9812 70.5068 38.4877 70.6327 39.2384L70.7176 39.7456C70.8432 40.4961 70.3364 41.2065 69.5857 41.3323Z" fill="#34466B"/>
<path fill-rule="evenodd" clip-rule="evenodd" d="M68.0252 41.852L66.4545 42.1153C65.5868 42.2607 64.7654 41.6753 64.6204 40.8079L64.5221 40.2218C64.377 39.3547 64.9624 38.5337 65.8301 38.3883L67.4013 38.125L68.0252 41.852Z" fill="#DEEDF2"/>
<path fill-rule="evenodd" clip-rule="evenodd" d="M81.1602 81.5755C81.1602 81.5755 81.2757 82.5752 81.3535 83.7349L84.0736 81.9823L83.8849 80.7793L81.1602 81.5755Z" fill="#444444"/>
<path fill-rule="evenodd" clip-rule="evenodd" d="M93.1129 52.3908C93.7752 55.2905 94.0731 58.3105 94.174 61.2769C94.3532 66.5382 93.8692 72.3874 90.7519 76.8178C87.4528 81.5068 80.845 83.5013 75.5895 81.0268C70.5712 78.6644 67.5246 73.4144 65.4997 68.4637C64.5715 66.1946 63.8181 63.8506 63.1916 61.4809C62.8633 60.2395 62.5385 58.9782 62.3335 57.709C62.3239 57.6502 62.312 57.5919 62.3024 57.5332C62.0235 55.873 64.5938 55.4395 64.873 57.1024C65.015 57.947 65.2049 58.7853 65.4027 59.6181C65.618 60.5238 65.8548 61.4242 66.1126 62.3189C66.1874 62.5778 66.2646 62.8361 66.3419 63.0943C66.4444 63.4361 66.281 62.9067 66.3739 63.1989C66.4212 63.3485 66.4679 63.4982 66.5155 63.6474C66.6977 64.2142 66.8885 64.778 67.0892 65.3383C67.9628 67.7789 69.0132 70.1707 70.3517 72.3932C70.437 72.5346 70.5237 72.6747 70.6108 72.8152C70.4475 72.5516 70.6657 72.8996 70.7224 72.9864C70.9108 73.2741 71.1048 73.5582 71.3049 73.8379C71.6811 74.3639 72.0789 74.8746 72.5012 75.3638C72.6986 75.5929 72.9015 75.817 73.1101 76.0358C73.2081 76.1384 73.3073 76.2402 73.4078 76.3405C73.4746 76.4072 73.5425 76.4723 73.6097 76.5384C73.6642 76.5922 73.8842 76.7912 73.6383 76.5683C74.0966 76.9837 74.5723 77.3766 75.0786 77.7313C75.3158 77.8974 75.5584 78.0554 75.8065 78.2043C75.9234 78.2745 76.0431 78.3405 76.161 78.4087C75.8407 78.2237 76.3497 78.5029 76.4319 78.5427C76.9789 78.806 77.5484 79.0229 78.1329 79.1871C78.1915 79.2038 78.2518 79.2174 78.3101 79.2353C78.6133 79.3273 78.028 79.1835 78.34 79.2435C78.4771 79.2697 78.6129 79.3009 78.7501 79.3257C79.0757 79.3838 79.4038 79.426 79.7335 79.452C80.041 79.4765 80.3477 79.4814 80.6559 79.4839C80.7367 79.4845 80.9726 79.4696 80.6541 79.4865C80.7207 79.4828 80.7881 79.4812 80.8549 79.4761C81.0588 79.4606 81.2621 79.4461 81.4651 79.4231C82.1771 79.342 82.8644 79.1794 83.5569 79.0019C83.6191 78.986 83.8031 78.9224 83.5197 79.0149C83.6007 78.9887 83.6816 78.9623 83.7622 78.9347C83.9052 78.8857 84.0474 78.8341 84.1883 78.7794C84.5232 78.6499 84.8522 78.504 85.1729 78.3419C85.4284 78.213 85.6718 78.0669 85.9202 77.9258C86.1996 77.7674 85.6901 78.0915 85.9508 77.9064C86.0015 77.8706 86.054 77.8374 86.1049 77.8025C86.2572 77.6978 86.4066 77.589 86.5529 77.4766C86.7701 77.3093 86.9806 77.1334 87.1841 76.95C87.2965 76.8484 87.4066 76.7449 87.5145 76.6387C87.5792 76.575 87.9737 76.1479 87.7267 76.4274C88.1267 75.9746 88.4994 75.5029 88.8327 74.9982C88.9836 74.7706 89.1268 74.538 89.263 74.3011C89.3057 74.2274 89.5353 73.7934 89.3705 74.1148C89.4543 73.9507 89.5384 73.7872 89.6179 73.621C90.1602 72.4884 90.5527 71.2964 90.8638 70.0809C90.8796 70.019 90.894 69.9569 90.9089 69.8949C90.835 70.1991 90.8904 69.975 90.9069 69.8982C90.9371 69.7577 90.9686 69.6172 90.9978 69.4759C91.0657 69.146 91.1271 68.8145 91.1825 68.4819C91.2879 67.847 91.3712 67.2086 91.4354 66.5681C91.5622 65.3077 91.616 64.0402 91.6152 62.7732C91.6151 62.4821 91.612 62.1909 91.606 61.8999C91.6029 61.7489 91.5984 61.5979 91.5946 61.4469C91.6047 61.8527 91.5894 61.316 91.585 61.2171C91.5609 60.644 91.5265 60.0713 91.4829 59.4991C91.4056 58.4898 91.2995 57.4825 91.166 56.4788C91.0103 55.3073 90.7935 54.1515 90.5792 52.9903C90.5687 52.9338 90.5549 52.8775 90.542 52.8216C90.3847 52.132 90.946 51.4277 91.6113 51.3161C92.3413 51.1939 92.9548 51.6995 93.1129 52.3908Z" fill="#1BB3BC"/>
<path d="M69.4591 102.315L69.4567 102.305C69.5358 102.284 69.5748 102.275 69.5782 102.274H69.5784L69.5833 102.273L69.5842 102.278C69.5846 102.28 69.5849 102.281 69.58 102.283V102.284L69.5764 102.285C69.5643 102.289 69.5339 102.297 69.4591 102.315Z" fill="#767676"/>
<path d="M79.2031 93.5575L79.1935 93.5537L79.1977 93.5441L79.2069 93.5477L79.2031 93.5575Z" fill="#767676"/>
<path d="M80.3345 76.8736L80.3336 76.8635C80.3578 76.8611 80.3732 76.86 80.3788 76.8599L80.3794 76.8698L80.3345 76.8736Z" fill="#767676"/>
<path d="M82.8876 77.4569L82.8846 77.4473C82.9039 77.4409 82.9669 77.4206 82.9707 77.4199L82.9755 77.4192L82.9765 77.4237C82.9771 77.4255 82.9774 77.427 82.9726 77.4295V77.4299C82.9726 77.4299 82.9718 77.4301 82.9709 77.4304C82.9621 77.4346 82.9401 77.4416 82.8876 77.4569Z" fill="#767676"/>
<path d="M89.3555 69.5118L89.3456 69.5092C89.3457 69.5089 89.3457 69.5085 89.3459 69.508C89.3461 69.5071 89.3465 69.506 89.3466 69.5049C89.3503 69.4911 89.3548 69.4714 89.3613 69.4448C89.362 69.4415 89.3629 69.4383 89.3637 69.435L89.3727 69.3977L89.3733 69.3955L89.383 69.3979C89.3785 69.4165 89.3745 69.4328 89.3713 69.4471C89.366 69.4687 89.3608 69.4902 89.3555 69.5118Z" fill="#767676"/>
<path d="M89.3487 69.5347L89.3388 69.5327C89.3388 69.5327 89.3393 69.5296 89.3408 69.524L89.3507 69.5265C89.3493 69.532 89.3487 69.5347 89.3487 69.5347Z" fill="#767676"/>
<path d="M80.376 77.887L80.3757 77.8769L80.3822 77.8765C80.4255 77.8747 80.4434 77.8738 80.4463 77.8738L80.4467 77.8838C80.4396 77.8841 80.4322 77.8847 80.4249 77.885C80.4117 77.8856 80.3945 77.8865 80.3762 77.887H80.376Z" fill="#767676"/>
<path fill-rule="evenodd" clip-rule="evenodd" d="M93.3167 68.8525L91.6827 69.3691L90.3528 68.6514L90.0575 68.856L90.2947 69.2295L89.0201 68.9498L88.0785 69.4345L87.875 70.8291L88.5949 72.0946L90.001 72.1498L91.4814 71.3702L93.7489 70.7599L93.3167 68.8525Z" fill="#FFC4B8"/>
<path fill-rule="evenodd" clip-rule="evenodd" d="M91.9258 68.9659L99.5393 67.1805C100.222 67.0205 100.931 66.9859 101.614 66.8207C102.613 66.579 102.886 66.4946 103.027 65.542C103.434 62.7812 102.917 59.9169 103.334 57.1972C104.336 57.0978 105.304 56.86 106.327 56.8736C107.998 56.8957 107.853 58.045 107.947 59.3255C108.058 60.8441 108.125 62.3678 108.135 63.8907C108.144 65.1525 108.56 70.6258 106.706 71.0261C105.378 71.3173 91.9901 72.0302 91.9959 72.3047C91.9935 72.1942 91.9258 68.9659 91.9258 68.9659Z" fill="#DEEDF2"/>
<path fill-rule="evenodd" clip-rule="evenodd" d="M123.916 21.3688C123.87 21.4669 123.753 21.5095 123.655 21.4635L116.012 17.896C115.914 17.8502 115.871 17.7334 115.917 17.6353C115.963 17.5371 116.08 17.4946 116.178 17.5404L123.821 21.1082C123.919 21.1539 123.961 21.2706 123.916 21.3688Z" fill="#34466B"/>
<path fill-rule="evenodd" clip-rule="evenodd" d="M125.274 21.4336L124.847 22.3478L120.768 20.4435C120.515 20.3258 120.406 20.0255 120.524 19.7731C120.642 19.5207 120.942 19.4115 121.194 19.5294L125.274 21.4336Z" fill="#DEEDF2"/>
<path fill-rule="evenodd" clip-rule="evenodd" d="M158.273 35.9791L157.692 37.0858L152.779 34.5088L151.023 37.8561L155.936 40.4331L155.356 41.5398C155.121 41.987 155.293 42.5397 155.741 42.7743C156.188 43.009 156.741 42.8366 156.975 42.3894L159.892 36.8287C160.127 36.3814 159.954 35.8286 159.507 35.5941C159.06 35.3595 158.507 35.5318 158.273 35.9791Z" fill="#9BC3D3"/>
<path fill-rule="evenodd" clip-rule="evenodd" d="M153.832 39.3285L155.588 35.9814L156.902 36.6704L154.192 39.5174L153.832 39.3285Z" fill="#767676"/>
<path fill-rule="evenodd" clip-rule="evenodd" d="M156.802 33.6659L152.624 41.6314C152.495 41.8767 152.192 41.9713 151.947 41.8427L150.016 40.8296L154.66 31.9756L156.591 32.9887C156.836 33.1174 156.931 33.4205 156.802 33.6659Z" fill="#34466B"/>
<path fill-rule="evenodd" clip-rule="evenodd" d="M156.413 29.5895C156.003 29.4073 155.522 29.5967 155.314 29.9937L154.973 30.6439C154.761 31.0486 154.26 31.2045 153.856 30.9923L131.521 19.2766C131.252 19.1355 130.942 19.0932 130.645 19.1567L124.252 20.5267C124.131 20.5526 124.028 20.6312 123.971 20.7409L123.309 22.0117C123.252 22.121 123.246 22.2501 123.294 22.3639L125.811 28.3743C125.928 28.6534 126.138 28.8828 126.406 29.0235L148.743 40.7399C149.147 40.9523 149.303 41.4524 149.091 41.8571L148.75 42.5073C148.542 42.9042 148.66 43.4076 149.042 43.6412C149.461 43.8968 150.002 43.7424 150.227 43.3145L156.817 30.7498C157.042 30.3218 156.861 29.789 156.413 29.5895Z" fill="#DEEDF2"/>
<path fill-rule="evenodd" clip-rule="evenodd" d="M131.553 20.561C131.297 20.4263 131.009 20.3711 130.74 20.4046L124.947 21.1267C124.838 21.1403 124.748 21.1987 124.702 21.2862L124.176 22.2982C124.131 22.3853 124.134 22.4921 124.186 22.5897L126.891 27.7427C127.017 27.9819 127.225 28.1861 127.481 28.3201L148.789 39.4974L131.553 20.561Z" fill="#DEEDF2"/>
<path fill-rule="evenodd" clip-rule="evenodd" d="M138.362 31.5069L136.873 34.347L136.328 34.0611L137.818 31.2212C137.832 31.1931 137.867 31.1822 137.895 31.1971L138.338 31.4292C138.366 31.4441 138.377 31.4788 138.362 31.5069Z" fill="#34466B"/>
<path fill-rule="evenodd" clip-rule="evenodd" d="M130.757 27.5181L129.267 30.3582L128.723 30.0725L130.212 27.2324C130.227 27.2043 130.262 27.1935 130.29 27.2083L130.733 27.4404C130.761 27.4553 130.772 27.4901 130.757 27.5181Z" fill="#34466B"/>
<path fill-rule="evenodd" clip-rule="evenodd" d="M145.964 35.4957L144.474 38.3358L143.93 38.0499L145.419 35.21C145.434 35.1819 145.469 35.1711 145.497 35.1857L145.94 35.418C145.968 35.4327 145.979 35.4675 145.964 35.4957Z" fill="#34466B"/>
<path fill-rule="evenodd" clip-rule="evenodd" d="M141.381 34.8773L140.627 36.3159L140.18 36.0815L140.934 34.6428C140.947 34.6199 140.975 34.611 140.998 34.6231L141.362 34.8136C141.385 34.8257 141.393 34.8543 141.381 34.8773Z" fill="#34466B"/>
<path fill-rule="evenodd" clip-rule="evenodd" d="M133.776 30.8881L133.021 32.3267L132.574 32.0922L133.329 30.6538C133.341 30.6306 133.37 30.6217 133.393 30.6338L133.756 30.8243C133.779 30.8365 133.788 30.8651 133.776 30.8881Z" fill="#34466B"/>
<path fill-rule="evenodd" clip-rule="evenodd" d="M140.215 55.7013C140.23 55.6901 136.838 52.0821 136.683 50.2078C137.066 49.9914 137.426 49.7202 137.752 49.3943C139.699 47.4475 139.693 44.2803 137.738 42.326C135.784 40.3718 132.617 40.3658 130.67 42.3127C129.879 43.1032 129.411 44.095 129.264 45.1252L129.263 45.1256L128.293 48.4374L129.177 48.6284L129.181 51.1598C129.182 51.8195 129.596 52.4094 130.216 52.6356L131.615 53.1453L131.616 53.1455L131.616 53.1455C131.616 53.1455 131.689 53.3609 131.819 53.7059L133.586 58.0135L133.59 58.0133C134.136 58.7333 135.209 59.3389 136.221 59.3389C138.574 59.3389 139.924 57.5841 140.215 55.7013Z" fill="#FFC4B8"/>
<path fill-rule="evenodd" clip-rule="evenodd" d="M131.946 54.0375C132.589 53.8289 133.52 53.3106 134.52 52.0399L131.616 53.1456C131.616 53.1456 131.738 53.504 131.946 54.0375ZM129.176 48.6285C129.442 48.7112 129.709 48.5058 129.696 48.2281L129.613 46.4375L129.176 48.6285Z" fill="#F4A48D"/>
<path d="M132.727 86.0825L143.024 82.2954L140.902 100.336L142.132 115.9L142.241 116.89L140.217 116.943L135.5 102.373L133.099 87.6026L132.727 86.0825Z" fill="#FFC4B8"/>
<path fill-rule="evenodd" clip-rule="evenodd" d="M140.217 116.943L142.324 116.89L142.862 118.667L142.809 118.683L142.822 118.685L139.339 120.749L137.683 120.933L137.473 119.04L137.92 118.712L140.217 116.943Z" fill="#34466B"/>
<path d="M125.715 86.3924L128.878 118.005L130.914 118.305L132.892 100.695L136.441 84.0845L125.715 86.3924Z" fill="#FFC4B8"/>
<path fill-rule="evenodd" clip-rule="evenodd" d="M128.809 117.998L126.109 119.528L126.362 120.802L131.187 120.075L130.903 118.24L128.809 117.998Z" fill="#34466B"/>
<path fill-rule="evenodd" clip-rule="evenodd" d="M120.887 94.1489C120.235 93.6966 120.221 92.9086 120.223 92.1197C120.225 90.638 120.491 89.1235 120.831 87.6838C121.478 84.9826 122.211 81.7293 122.533 78.2293C123.366 69.1834 126.223 63.1132 126.223 63.1132L127.145 60.6549C127.328 60.3354 127.518 60.0194 127.716 59.7079C128.868 57.9012 130.866 54.8313 133.004 54.3287C133.049 54.3182 133.094 54.308 133.139 54.2981C135.387 53.8048 138.267 54.0337 140.298 55.1265C140.684 55.3338 141.027 55.6101 141.367 55.8844C142.36 56.6857 143.17 57.1195 143.598 58.3405C143.97 59.4007 144.057 60.5573 144.262 61.6559C144.678 63.888 144.926 66.1467 145.259 68.3916C145.883 72.6015 146.412 76.825 147.079 81.0285C147.423 83.1918 147.768 85.359 147.931 87.5451C148.074 89.4778 149.818 91.4403 150.798 93.1724C151.138 93.7752 146.242 95.3371 145.803 95.4393C143.772 95.912 141.611 95.7913 139.517 95.8008C134.928 95.8215 130.339 95.6801 125.76 95.3766C124.238 95.2759 122.363 94.9853 121.013 94.2279C120.969 94.2029 120.927 94.1765 120.887 94.1489Z" fill="#EC0000"/>
<path fill-rule="evenodd" clip-rule="evenodd" d="M135.659 54.0509C135.659 54.0509 138.244 53.3531 138.601 59.1854C138.958 65.0177 139.553 79.7768 140.386 83.8235C141.219 87.8705 142.469 95.8081 142.469 95.8081L134.554 96.0831L125.508 95.369C125.508 95.369 128.603 89.6558 129.079 85.6091C129.555 81.5621 128.722 66.3268 130.745 60.6137C132.769 54.9005 133.193 54.1536 135.659 54.0509Z" fill="white"/>
<path fill-rule="evenodd" clip-rule="evenodd" d="M123.96 67.0413L119.832 66.4045V62.8486L129.792 55.2577L133.006 54.3057L131.459 58.4714L123.96 67.0413Z" fill="#EC0000"/>
<path fill-rule="evenodd" clip-rule="evenodd" d="M139.184 56.753L146.996 50.4432L144.096 40.8035L146.977 39.6304L152.349 52.3416L144.526 62.2103L139.184 56.753Z" fill="#EC0000"/>
<path fill-rule="evenodd" clip-rule="evenodd" d="M122.174 63.8599L122.162 64.063L127.872 65.8095L127.735 67.9133L119.832 65.8866L122.174 63.8599Z" fill="#EC0000"/>
<path fill-rule="evenodd" clip-rule="evenodd" d="M131.699 53.3563C131.621 53.3525 131.542 53.3506 131.463 53.3506C128.784 53.3506 126.613 55.5217 126.613 58.2C126.613 58.8769 127.613 59.9511 128.792 59.2868C129.91 58.6569 130 56.984 131.583 56.1938C131.941 56.0148 132.313 55.8774 132.674 55.766L131.828 53.706C131.776 53.5663 131.732 53.4478 131.699 53.3563ZM139.577 54.959C141.454 54.2885 142.783 52.5002 142.781 50.3889C142.78 49.0009 142.196 47.7495 141.261 46.8664C141.116 46.7296 141.047 46.5326 141.074 46.3352L141.072 46.337L141.074 46.3318L141.081 46.2832C141.095 46.1699 141.106 46.0566 141.115 45.9439C141.117 45.9132 141.119 45.8829 141.121 45.8526C141.251 43.437 139.892 41.0895 137.547 40.0789C137.159 39.9119 136.763 39.7897 136.365 39.7097C136.326 39.6916 136.286 39.6739 136.246 39.6567C134.891 39.0729 133.439 39.035 132.132 39.4456C131.611 39.6086 131.114 39.8431 130.655 40.1424C130.731 40.559 130.844 40.9629 130.99 41.3503C130.477 41.8665 130.05 42.4862 129.744 43.1955C129.541 43.6678 129.403 44.1517 129.327 44.637L130.99 42.5331L131.356 42.1605C132.397 44.1222 134.341 45.5311 136.634 45.8325C136.611 46.1769 136.609 46.5396 136.64 46.9028C136.909 46.5935 137.248 46.4522 137.495 46.5784C137.794 46.732 137.853 47.2275 137.646 47.7243L137.64 47.7395L137.633 47.7546L137.632 47.758L137.626 47.7697L137.624 47.7744L137.619 47.7856L137.617 47.7896L137.61 47.8045L137.609 47.807L137.603 47.8194L137.601 47.8242L137.595 47.8349L137.593 47.8394L137.586 47.8543L137.579 47.8666L137.577 47.8707L137.573 47.8789L137.57 47.8837L137.566 47.8911L137.564 47.8962L137.56 47.9033L137.557 47.9084L137.553 47.9153L137.55 47.9204L137.546 47.9274L137.543 47.9324L137.539 47.9395L137.536 47.9442L137.532 47.9518L137.53 47.9559L137.523 47.9675L137.515 47.9791L137.508 47.9905L137.506 47.9948L137.501 48.0019L137.498 48.0065L137.494 48.0131L137.491 48.0179L137.487 48.0244L137.483 48.0291L137.476 48.0402L137.472 48.0467L137.469 48.0511L137.464 48.058L137.461 48.062L137.453 48.0727L137.446 48.0834L137.438 48.0939L137.435 48.0978L137.43 48.1044L137.423 48.1148L137.415 48.1251L137.411 48.1294L137.404 48.1396L137.399 48.1455L137.396 48.1496L137.391 48.1558L137.388 48.1596L137.379 48.1694L137.371 48.1791L137.363 48.1887L137.36 48.1921L137.355 48.1982L137.352 48.202L137.347 48.2076L137.343 48.2115L137.339 48.217L137.335 48.2209L137.33 48.2262L137.327 48.2301L137.322 48.2354L137.318 48.2392L137.313 48.2446L137.31 48.2481L137.301 48.257L137.293 48.2657L137.284 48.2743L137.276 48.2828L137.272 48.2861L137.267 48.2912L137.264 48.2947L137.259 48.2995L137.255 48.303L137.25 48.3077L137.246 48.3112L137.241 48.3159L137.237 48.3192L137.232 48.324L137.229 48.3271L137.223 48.3322L137.22 48.3349L137.211 48.3426L137.202 48.3501L137.194 48.3576L137.185 48.3649L137.181 48.3679L137.176 48.3722L137.172 48.3752L137.167 48.3793L137.158 48.3863L137.154 48.3892L137.149 48.3933L137.145 48.3961L137.136 48.4027L137.127 48.4093L137.118 48.4158L137.109 48.4221L137.1 48.4283L137.096 48.4307L137.091 48.4344L137.087 48.4369L137.082 48.4404L137.078 48.4428L137.073 48.4463L137.069 48.4487L137.063 48.4521L137.06 48.4543L137.051 48.4599L137.044 48.4638C136.88 48.5611 136.712 48.5966 136.567 48.5537C135.69 49.6634 134.425 51.5836 135.079 52.7528C135.08 52.7545 135.081 52.7562 135.082 52.7578C135.216 52.9966 135.496 53.107 135.756 53.0398L135.757 53.0452L137.107 52.496C137.329 52.4054 137.422 52.386 137.593 52.3298C137.707 52.5299 137.796 52.6438 137.929 52.8366C138.485 53.646 139.117 54.42 139.577 54.959Z" fill="#9E3667"/>
<path fill-rule="evenodd" clip-rule="evenodd" d="M145.504 38.9231L144.011 36.8335L143.09 37.433L143.795 39.0902L143.229 39.1717L144.724 40.8038L145.766 40.3101L145.504 38.9231Z" fill="#FFC4B8"/>
<path fill-rule="evenodd" clip-rule="evenodd" d="M128.51 67.6336L130.843 67.2479L130.722 66.2435L129.066 66.1539L129.229 65.6523L127.272 66.2256L127.258 67.2867L128.51 67.6336Z" fill="#FFC4B8"/>
<path fill-rule="evenodd" clip-rule="evenodd" d="M134.042 83.2837L121.26 86.3854C116.532 87.5325 111.781 84.6754 110.647 80.0037C109.513 75.3323 112.426 70.6154 117.154 69.4683L129.904 66.3745L134.042 83.2837Z" fill="#CCCCCC"/>
<path fill-rule="evenodd" clip-rule="evenodd" d="M134.493 83.1746L148.865 79.6577C153.209 78.6037 155.876 74.2275 154.821 69.8838L154.533 68.6963C153.479 64.353 149.103 61.6864 144.76 62.7404L130.387 66.2575L134.493 83.1746Z" fill="#34466B"/>
<path fill-rule="evenodd" clip-rule="evenodd" d="M126.955 74.5846C125.872 74.8473 124.789 75.1098 123.707 75.3728C123.605 75.3972 123.504 75.4218 123.403 75.4465C123.214 74.6673 123.024 73.8882 122.835 73.1092C122.74 72.7181 122.646 72.3271 122.551 71.9362C122.519 71.806 122.38 71.7224 122.248 71.7544C121.575 71.9177 120.903 72.0811 120.23 72.2442C120.098 72.2763 120.013 72.4139 120.044 72.5442C120.304 73.6144 120.564 74.6841 120.824 75.7539C120.848 75.8542 120.872 75.9544 120.896 76.0545C120.108 76.2459 119.32 76.4371 118.531 76.6285L117.345 76.9166C117.213 76.9486 117.127 77.0861 117.159 77.2166C117.32 77.8815 117.482 78.5464 117.643 79.2115C117.661 79.2852 117.702 79.3344 117.754 79.363C117.804 79.3969 117.869 79.4117 117.945 79.3933C119.028 79.1303 120.111 78.8678 121.193 78.6051C121.295 78.5804 121.396 78.556 121.498 78.5312C121.687 79.3105 121.876 80.0895 122.065 80.8686C122.16 81.2596 122.255 81.6505 122.349 82.0414C122.381 82.1716 122.52 82.2553 122.652 82.2234C123.325 82.0599 123.998 81.8968 124.67 81.7334C124.745 81.7153 124.795 81.674 124.824 81.6228C124.859 81.5735 124.874 81.5091 124.856 81.4332C124.596 80.3634 124.336 79.2937 124.077 78.2239C124.052 78.1236 124.028 78.0233 124.004 77.923C124.792 77.7319 125.581 77.5405 126.369 77.3493C126.765 77.2532 127.16 77.1572 127.556 77.0612C127.688 77.0292 127.773 76.8916 127.741 76.7612C127.58 76.0963 127.418 75.4312 127.257 74.7664C127.225 74.636 127.087 74.5525 126.955 74.5846Z" fill="#34466B"/>
<path d="M67.5645 102.531L67.5622 102.521C67.6413 102.501 67.6802 102.491 67.6837 102.49H67.6839L67.6888 102.49L67.6897 102.494C67.69 102.496 67.6904 102.497 67.6855 102.5V102.5L67.6819 102.501C67.6697 102.505 67.6393 102.513 67.5645 102.531Z" fill="#767676"/>
<path d="M77.3125 93.7743L77.3029 93.7705L77.3071 93.7609L77.3163 93.7645L77.3125 93.7743Z" fill="#767676"/>
<path d="M78.4439 77.0904L78.443 77.0803C78.4672 77.0779 78.4826 77.0768 78.4882 77.0767L78.4888 77.0866L78.4439 77.0904Z" fill="#767676"/>
<path d="M80.997 77.6737L80.9939 77.6641C81.0133 77.6577 81.0763 77.6374 81.0801 77.6367L81.0848 77.636L81.0859 77.6405C81.0865 77.6423 81.0868 77.6438 81.0819 77.6463V77.6467C81.0819 77.6467 81.0812 77.6469 81.0803 77.6472C81.0714 77.6514 81.0495 77.6584 80.997 77.6737Z" fill="#767676"/>
<path d="M78.4815 78.1033L78.4812 78.0932L78.4877 78.0928C78.5309 78.091 78.5489 78.0901 78.5518 78.0901L78.5521 78.1001C78.5451 78.1004 78.5376 78.101 78.5304 78.1013C78.5172 78.1019 78.5 78.1028 78.4817 78.1033H78.4815Z" fill="#767676"/>
</svg>
