<svg width="161" height="160" viewBox="0 0 161 160" fill="none" xmlns="http://www.w3.org/2000/svg">
<path fill-rule="evenodd" clip-rule="evenodd" d="M101.83 119.92C83.693 118.949 64.5985 123.337 54.9181 126.667C49.1186 128.663 47.5255 132.326 41.4589 133.317C29.2749 135.308 0.665524 135.897 0.0998236 138.831C-1.01386 144.606 8.63822 147.692 30.9 150.363C30.4193 150.758 33.6114 157.985 51.5591 159.616C58.6609 160.262 70.5728 159.618 75.1412 158.207C82.163 156.039 89.4566 154.873 96.804 154.706C122.936 154.115 143.429 151.147 143.669 146.661C143.749 145.161 142.24 143.083 139.877 141.874C138.404 141.121 140.567 140.486 141.069 140.305C147.235 138.086 150.695 135.607 150.821 133.64C151.216 127.466 128.454 121.346 101.83 119.92Z" fill="#DEEDF2"/>
<path fill-rule="evenodd" clip-rule="evenodd" d="M37.225 22.211C33.8757 22.5945 30.0761 25.1744 29.6432 28.1847C28.0966 25.566 22.6969 24.8345 19.4537 25.7551C10.8954 28.1845 9.87002 38.4675 14.8486 44.2611C17.5281 47.3795 20.9878 49.885 24.6452 52.0258C27.7079 53.8184 35.3985 57.3842 35.4157 57.3637C35.4396 57.3762 41.193 51.1507 43.3423 48.3269C45.9091 44.9548 48.1542 41.3207 49.4447 37.417C51.8423 30.164 46.0636 21.1986 37.225 22.211Z" fill="#2A8FEC"/>
<path fill-rule="evenodd" clip-rule="evenodd" d="M47.2276 36.5718C44.9611 37.0802 42.695 37.5887 40.4285 38.0969C39.0127 35.2699 37.5967 32.4426 36.1808 29.6154C35.9762 29.2067 35.3404 29.3662 35.2839 29.7928C34.5502 35.3468 33.8165 40.901 33.0828 46.455C33.0401 46.7768 32.9977 47.0983 32.9553 47.4201C31.0782 44.2307 29.2012 41.0415 27.324 37.8521C27.0231 37.3406 26.7222 36.8291 26.421 36.3177C26.2396 36.0094 25.6669 35.986 25.5503 36.3813C25.0079 38.2184 24.4656 40.0558 23.9233 41.8929C21.3742 42.3972 18.8253 42.9015 16.276 43.4058C15.6777 43.5242 15.8499 44.3998 16.4493 44.2812C19.0945 43.7581 21.7394 43.2346 24.3847 42.7113C24.5393 42.6807 24.699 42.5647 24.7432 42.4151C25.208 40.8407 25.6727 39.2663 26.1375 37.6921C28.0632 40.9638 29.9889 44.236 31.9147 47.5079C32.2157 48.0194 32.5168 48.531 32.8177 49.0425C33.0435 49.4262 33.6557 49.3119 33.7148 48.865C34.4485 43.3109 35.1822 37.7567 35.9159 32.2027C35.951 31.9371 35.9861 31.6714 36.0211 31.4056C37.2587 33.8771 38.4963 36.3483 39.7341 38.8198C39.8201 38.9912 40.0461 39.0972 40.246 39.0524C42.6311 38.5174 45.0158 37.9823 47.4007 37.4472C47.9951 37.314 47.8244 36.438 47.2276 36.5718Z" fill="white"/>
<path fill-rule="evenodd" clip-rule="evenodd" d="M55.0401 101.295L54.0991 114.171L50.9834 135.49H48.5875L47.0744 115.819L46.4043 99.9043L55.0401 101.295Z" fill="#DEEDF2"/>
<path fill-rule="evenodd" clip-rule="evenodd" d="M38.0684 98.2598L38.979 116.31L41.0638 137.03H43.5177L45.512 117.398L48.4254 96.7349L38.0684 98.2598Z" fill="#DEEDF2"/>
<path fill-rule="evenodd" clip-rule="evenodd" d="M48.5996 135.204V136.499L51.1904 137.795L52.4858 136.499L51.1904 135.204H48.5996Z" fill="#34466B"/>
<path fill-rule="evenodd" clip-rule="evenodd" d="M43.5018 136.738V138.065L40.8484 139.391L39.5215 138.065L40.8484 136.738H43.5018Z" fill="#34466B"/>
<path fill-rule="evenodd" clip-rule="evenodd" d="M29.8283 58.5289L29.5234 56.9697L30.3239 55.8201L30.1664 55.5267L29.7975 55.706L30.1886 54.5614L29.8406 53.6436L28.5778 53.3101L27.3368 53.8406L27.1387 55.1296L27.7018 56.575L28.0265 58.7272L29.8283 58.5289Z" fill="#FFC4B8"/>
<path fill-rule="evenodd" clip-rule="evenodd" d="M57.4464 52.8533L57.5277 51.2668L56.5729 50.2417L56.6876 49.929L57.0781 50.0543L56.5293 48.9766L56.7439 48.0187L57.9473 47.5103L59.2506 47.8601L59.6289 49.1082L59.2756 50.6185L59.2582 52.7952L57.4464 52.8533Z" fill="#FFC4B8"/>
<path fill-rule="evenodd" clip-rule="evenodd" d="M47.4436 65.3732C49.6102 64.4745 51.1543 62.1582 51.1543 59.4454C51.1543 55.9534 48.5957 53.1182 45.4442 53.1182C42.9504 53.1182 40.8279 54.8935 40.0506 57.3646L40.0409 57.3672L38.5493 62.2978L38.6864 62.3568L38.7581 62.3876L39.6398 62.5781L39.6437 65.1678L39.6867 65.3248C39.7564 65.5424 39.8528 65.7534 39.976 65.9517C40.1196 66.1837 40.2974 66.3955 40.4991 66.5783C40.6042 66.6741 40.717 66.761 40.8359 66.8392C40.899 66.8814 40.962 66.92 41.0267 66.9564C41.0772 66.9855 41.1282 67.0126 41.1803 67.0375L41.3395 67.1155L40.8326 72.8258C40.8326 72.8258 43.4357 73.4454 44.6408 73.1963L44.8017 73.1605L44.805 73.1598C45.9552 72.9119 47.0976 72.5216 48.063 71.3315C48.063 71.3315 48.0604 71.3183 48.0554 71.2926L48.063 71.2835C48.063 71.2835 47.9726 70.8511 47.8598 70.1448C47.6876 69.0181 47.4651 67.2257 47.4436 65.3732Z" fill="#F4A48D"/>
<path fill-rule="evenodd" clip-rule="evenodd" d="M41.2502 68.4074C41.9836 68.1859 43.5311 67.3147 44.6934 65.8977L41.3763 67.0835C41.3763 67.0835 41.3128 67.7601 41.2502 68.4074ZM39.4859 62.5234C39.7852 62.6234 40.0919 62.3968 40.0838 62.0817L40.0317 60.0503L39.4859 62.5234Z" fill="#A66555"/>
<path fill-rule="evenodd" clip-rule="evenodd" d="M47.4294 65.578L48.3151 65.087C49.3756 64.4715 50.2738 63.554 50.862 62.3835C52.4734 59.1772 51.1525 55.2853 47.9119 53.6906C44.9945 52.255 41.5128 53.1718 39.6745 55.7125L40.403 56.2974C40.5684 56.2497 40.8422 56.1732 41.1774 56.0874C42.3822 55.7729 44.3801 55.3282 45.0055 55.6304C45.9214 56.0733 45.8787 57.7408 45.7397 59.0638C45.6037 60.3578 45.4809 60.9197 46.073 61.1738C46.2901 61.267 46.4243 60.1741 46.9223 59.8456C47.4483 59.4987 48.1201 59.8519 48.0217 61.0401C47.8589 61.58 47.7337 62.1123 47.6397 62.632C47.4823 63.5614 47.4247 64.5752 47.4294 65.578Z" fill="#767676"/>
<path fill-rule="evenodd" clip-rule="evenodd" d="M30.0287 57.2479L27.6348 57.0981L28.7036 70.1593L38.8661 75.5337L41.2071 69.1904L33.1734 65.495L30.0287 57.2479Z" fill="#F6C854"/>
<path fill-rule="evenodd" clip-rule="evenodd" d="M57.0983 51.6114L59.4472 51.125L59.6331 60.1614L58.7102 67.1453L52.7043 75.9598L47.7871 68.8457L53.4963 64.6499L57.0983 51.6114Z" fill="#F6C854"/>
<path fill-rule="evenodd" clip-rule="evenodd" d="M48.4204 68.4927L40.4862 68.8286L36.4811 84.0729L33.1738 105.206L58.7088 105.827L52.7029 75.9597L48.4204 68.4927Z" fill="#F6C854"/>
<path fill-rule="evenodd" clip-rule="evenodd" d="M89.6626 63.0036L89.3709 61.4802L90.1567 60.3605L90.0039 60.0735L89.643 60.2471L90.0291 59.1312L89.6926 58.2336L88.4608 57.9033L87.2471 58.4167L87.0488 59.6747L87.5935 61.0878L87.9026 63.1906L89.6626 63.0036Z" fill="#FFC4B8"/>
<path fill-rule="evenodd" clip-rule="evenodd" d="M89.7425 61.4048L87.3457 63.4417L87.6859 73.9023L91.7175 76.7104L99.4224 75.7232L98.3945 69.103L91.9589 70.3425L89.7425 61.4048Z" fill="#DEEDF2"/>
<path fill-rule="evenodd" clip-rule="evenodd" d="M114.301 134.313L114.602 135.695L112.214 137.664L110.568 136.575L111.612 134.899L114 132.931L114.301 134.313Z" fill="#34466B"/>
<path fill-rule="evenodd" clip-rule="evenodd" d="M105.949 91.8086L108.614 97.9532L108.865 115.241L114.344 133.836L111.797 134.966L100.616 113.374L99.3436 106.535L98.8379 92.1322L105.949 91.8086Z" fill="#9BC3D3"/>
<path fill-rule="evenodd" clip-rule="evenodd" d="M93.0474 93.1861L92.8379 111.304L96.252 134.664H98.8772L100.535 113.109L104.128 91.5547L93.0474 93.1861Z" fill="#9BC3D3"/>
<path d="M98.8619 134.351V135.771L96.0231 137.19L94.6035 135.771L96.0231 134.351H98.8619Z" fill="black"/>
<path fill-rule="evenodd" clip-rule="evenodd" d="M104.665 62.8353C105.871 61.9491 106.654 60.5206 106.654 58.9106C106.654 56.2244 104.473 54.0435 101.787 54.0435C99.3068 54.0435 97.2573 55.9028 96.9576 58.3025C96.9053 58.5526 96.8672 58.8053 96.841 59.0581L96.8409 59.0585L96.8401 59.0641L96.8399 59.066C96.8321 59.1416 96.8254 59.2172 96.8197 59.2926L96.4844 63.0484L97.2474 63.3038L97.2554 63.3056L97.2554 63.3056C97.2744 63.3711 97.2849 63.4064 97.2849 63.4064L97.3056 63.9145L97.3431 64.8641C97.3561 65.1783 97.4218 65.4862 97.5362 65.7758C97.6161 65.9801 97.7218 66.1758 97.8509 66.3575C98.0025 66.5706 98.1836 66.7619 98.3858 66.9234C98.4911 67.0082 98.603 67.0838 98.72 67.1511C98.7819 67.1869 98.8437 67.2197 98.9078 67.2506L98.9082 67.2508L98.5805 73.1832C98.5805 73.1832 100.312 73.705 102.209 73.291C103.355 73.0428 104.563 72.4503 105.484 71.196C105.484 71.196 104.393 66.4701 104.665 62.8353Z" fill="#FFC4B8"/>
<path fill-rule="evenodd" clip-rule="evenodd" d="M102.192 73.2206C103.338 72.9724 104.546 72.3799 105.467 71.1256C105.467 71.1256 104.287 66.0617 104.687 62.3816C104.687 62.3816 102.004 68.9221 102.192 73.2206ZM97.2502 63.3249C97.5173 63.4032 97.7803 63.1934 97.7628 62.9159L97.6505 61.127L97.2502 63.3249Z" fill="#F4A48D"/>
<path fill-rule="evenodd" clip-rule="evenodd" d="M103.423 60.0436C103.76 59.6066 104.215 59.3838 104.603 59.5167C105.156 59.7058 105.367 60.544 105.075 61.3873C104.973 61.681 104.824 61.9369 104.649 62.1376C104.637 62.3896 104.633 62.6374 104.635 62.8805C105.329 62.3048 105.996 61.5432 106.31 60.6373C107.289 57.8128 106.191 55.1824 102.874 54.0474C100.383 53.1954 97.7028 54.2593 96.5143 56.4479L96.7823 56.8731L96.7834 56.8691L96.8262 56.8576L101.291 55.6198L102.428 58.751L102.012 59.5107L100.169 62.8743C100.041 63.1099 99.8519 63.3014 99.6268 63.4339C99.4558 63.5353 99.2648 63.6038 99.0623 63.632L99.061 63.6315C98.9968 63.6401 98.9321 63.6456 98.8662 63.6464C98.7609 63.6481 98.6568 63.6386 98.5543 63.6196L97.71 63.4573C97.6303 63.4417 97.5488 63.4312 97.4677 63.4238C97.3198 63.411 97.1714 63.4126 97.0243 63.4277C97.0212 63.4282 97.0185 63.4273 97.0163 63.4294L97.0247 63.4308C97.0486 63.4957 97.0617 63.5308 97.0617 63.5308L97.1164 64.0412L98.2579 64.2164C98.2878 64.2208 98.3153 64.2273 98.3434 64.2369C98.4889 64.2867 98.6039 64.4032 98.6492 64.5525C98.7029 64.7294 98.6461 64.9194 98.5048 65.0384L97.5757 65.8188L97.4765 65.9027C97.5724 66.1042 97.6943 66.2957 97.8393 66.472C98.0096 66.6785 98.209 66.8618 98.4281 67.0138C98.5424 67.0936 98.6628 67.1639 98.7878 67.2256L98.8401 67.1999C98.8905 67.1749 98.9427 67.1491 98.9923 67.1225C100.41 66.3929 101.577 65.2998 102.382 63.9722C102.674 63.493 102.918 62.983 103.108 62.4485C103.128 62.3931 103.148 62.3372 103.166 62.2795L103.166 62.2791C102.913 61.918 102.861 61.3113 103.072 60.702L103.08 60.6803L103.082 60.673L103.088 60.6587L103.091 60.6502L103.096 60.637L103.099 60.6284L103.104 60.615L103.107 60.607L103.114 60.5912L103.116 60.5858L103.124 60.5653L103.127 60.5577L103.133 60.5445L103.137 60.5357L103.142 60.5238L103.146 60.5148L103.151 60.503L103.155 60.4942L103.161 60.4814L103.164 60.4739L103.173 60.4546L103.177 60.447L103.183 60.4347L103.187 60.4259L103.192 60.4149L103.197 60.4058L103.202 60.3951L103.207 60.3862L103.213 60.3749L103.217 60.3667L103.227 60.3484L103.231 60.3414L103.237 60.3294L103.242 60.3208L103.248 60.3105L103.252 60.3017L103.258 60.2916L103.263 60.283L103.269 60.2726L103.274 60.2645L103.282 60.2515L103.285 60.2466L103.288 60.2415L103.295 60.2289L103.3 60.221L103.307 60.211L103.312 60.2027L103.318 60.193L103.323 60.1849L103.33 60.1751L103.335 60.1673L103.342 60.1559L103.346 60.15L103.358 60.1336L103.362 60.1267L103.37 60.1165L103.375 60.1091L103.382 60.0996L103.387 60.0922L103.394 60.0826L103.399 60.0756L103.407 60.0647L103.411 60.0593L103.423 60.0436Z" fill="#9BC3D3"/>
<path fill-rule="evenodd" clip-rule="evenodd" d="M98.2187 68.6532L105.192 68.395C105.192 68.395 109.364 72.0554 111.52 81.567C113.715 91.2524 111.114 105.195 111.114 105.195C111.114 105.195 92.4056 102.702 89.3379 102.317L94.018 83.1938L98.2187 68.6532Z" fill="#DEEDF2"/>
<path fill-rule="evenodd" clip-rule="evenodd" d="M100.141 69.5153L92.81 98.8394L92.209 102.685L101.343 103.887C101.343 103.887 100.982 89.8447 101.102 87.9726C101.223 86.1003 102.577 82.0507 102.785 77.6876C102.905 75.1638 103.707 70.6307 103.146 69.1548L100.141 69.5153Z" fill="white"/>
<path fill-rule="evenodd" clip-rule="evenodd" d="M40.1786 79.4686C40.9777 83.1528 44.6013 85.4935 48.2718 84.697C51.9425 83.9003 54.27 80.268 53.4709 76.5837C52.6716 72.8997 49.0482 70.5586 45.3776 71.3553C41.7071 72.152 39.3794 75.7843 40.1786 79.4686Z" fill="#34466B"/>
<path fill-rule="evenodd" clip-rule="evenodd" d="M42.2544 79.0176C42.8038 81.5498 45.2945 83.159 47.8175 82.6115C50.3404 82.0639 51.9405 79.5671 51.3911 77.0346C50.8417 74.5024 48.3511 72.8934 45.8281 73.4409C43.3052 73.9885 41.7053 76.4853 42.2544 79.0176Z" fill="#DEEDF2"/>
<path fill-rule="evenodd" clip-rule="evenodd" d="M51.1494 102.262L52.9304 101.875L48.3179 80.6128L46.5371 80.9994L51.1494 102.262Z" fill="#DEEDF2"/>
<path d="M45.3319 78.5213C45.52 79.3881 46.3727 79.9389 47.2364 79.7515C48.0999 79.5641 48.6476 78.7093 48.4595 77.8425C48.2716 76.9755 47.4189 76.4249 46.5555 76.6123C45.6916 76.7997 45.1439 77.6544 45.3319 78.5213Z" fill="#34466B"/>
<path fill-rule="evenodd" clip-rule="evenodd" d="M46.245 79.6473L47.3693 84.8303C47.3693 84.8303 46.3243 84.8881 45.7324 84.7624L45.9617 79.4829L46.245 79.6473Z" fill="#444444"/>
<path fill-rule="evenodd" clip-rule="evenodd" d="M71.4108 115.35C71.4842 115.333 71.6077 115.3 71.4108 115.35V115.35ZM82.3417 96.0785C81.9459 96.1488 81.6069 96.4899 81.1684 96.4481C81.2663 97.0731 81.0445 95.621 81.1055 96.2527C81.1872 97.0972 81.2388 97.9454 81.2589 98.7955C81.2703 99.2775 81.2714 99.7599 81.2613 100.243C81.2596 100.326 81.2422 100.779 81.2571 100.437C81.2515 100.564 81.247 100.691 81.2408 100.818C81.2287 101.064 81.2136 101.309 81.1953 101.555C81.1159 102.623 80.9766 103.693 80.759 104.758C80.648 105.299 80.5171 105.839 80.3619 106.375C80.2806 106.657 80.1929 106.937 80.0977 107.217C80.0573 107.336 80.014 107.455 79.972 107.574C79.9641 107.596 79.9505 107.633 79.9396 107.661C79.9309 107.684 79.9224 107.706 79.9135 107.728C79.4976 108.758 78.9944 109.769 78.3319 110.732C78.2511 110.849 78.1668 110.965 78.0822 111.082C78.17 110.96 77.9475 111.255 77.9024 111.31C77.7391 111.512 77.5683 111.71 77.3898 111.904C77.0175 112.31 76.6092 112.691 76.175 113.057C76.2574 112.985 75.9139 113.26 75.8499 113.307C75.7257 113.397 75.5993 113.486 75.4706 113.574C75.2372 113.731 74.9967 113.883 74.7494 114.026C74.5828 114.124 74.4135 114.217 74.2413 114.308C74.1834 114.338 74.124 114.367 74.0668 114.397C74.0606 114.401 74.0552 114.404 74.0499 114.407C74.0443 114.409 74.0387 114.412 74.0322 114.414C73.7526 114.537 73.4783 114.663 73.192 114.776C72.8324 114.917 72.465 115.045 72.092 115.159C71.9348 115.207 71.7769 115.252 71.618 115.296C71.547 115.315 71.4755 115.333 71.4043 115.352C71.399 115.353 71.3943 115.354 71.3902 115.355C70.6246 115.515 69.8661 115.661 69.0857 115.74C68.863 115.762 68.6404 115.777 68.4175 115.793C68.403 115.794 68.3887 115.795 68.3744 115.796C68.3771 115.796 68.3661 115.796 68.3478 115.797C68.2978 115.8 68.248 115.802 68.1984 115.805C68.2345 115.803 68.2638 115.801 68.2877 115.8C68.256 115.801 68.2227 115.802 68.2004 115.803C67.8651 115.805 67.5312 115.805 67.1978 115.789C66.8408 115.771 66.4859 115.74 66.1349 115.696C65.987 115.677 65.8411 115.653 65.6938 115.632C65.69 115.632 65.6871 115.631 65.6839 115.631C65.6768 115.629 65.6698 115.628 65.6616 115.626C65.5991 115.612 65.5345 115.601 65.4715 115.588C64.8455 115.458 64.2391 115.283 63.6601 115.068C63.573 115.036 63.0366 114.808 63.3736 114.959C63.2494 114.903 63.1234 114.849 63.0006 114.792C62.7397 114.67 62.4854 114.54 62.2381 114.403C61.7365 114.126 61.2672 113.82 60.8172 113.496C60.7821 113.47 60.7356 113.435 60.714 113.418C60.645 113.363 60.5751 113.309 60.5065 113.254C60.4035 113.171 60.3017 113.086 60.2018 113.001C59.9885 112.819 59.7817 112.633 59.5812 112.443C59.1525 112.036 58.7516 111.611 58.3753 111.173C58.175 110.94 57.9818 110.703 57.795 110.463C57.7423 110.395 57.55 110.136 57.6577 110.284C57.581 110.179 57.5038 110.074 57.4287 109.968C56.1123 108.112 55.1198 106.11 54.3235 104.064C54.1406 103.594 53.9684 103.121 53.8063 102.646C53.7636 102.521 53.7221 102.395 53.6803 102.27C53.6762 102.258 53.6729 102.248 53.67 102.239C53.6655 102.225 53.6597 102.206 53.6521 102.182C53.5842 101.965 53.5166 101.748 53.4514 101.531C53.2276 100.78 53.0268 100.024 52.8499 99.2632C52.6871 98.5637 52.5336 97.8594 52.4326 97.1494C52.2339 95.7508 49.4072 96.1526 49.6057 97.5488C49.6127 97.5981 49.6218 97.6473 49.6283 97.6966C49.7714 98.7642 50.0451 99.8231 50.3236 100.865C50.8554 102.855 51.5274 104.822 52.3942 106.722C54.2851 110.869 57.2701 115.253 62.585 117.175C68.1515 119.188 75.4739 117.413 79.3644 113.412C83.0401 109.631 83.938 104.692 84.0769 100.257C84.1439 98.1196 84.3663 98.0297 84.0038 95.9233C83.5076 96.1354 82.8567 95.9871 82.3417 96.0785Z" fill="#1BB3BC"/>
<path fill-rule="evenodd" clip-rule="evenodd" d="M82.8437 52.9224C84.8788 52.5813 86.914 52.2404 88.9491 51.8994C89.3833 51.8264 89.8142 52.1341 89.8874 52.571C90.6664 57.2214 91.4453 61.8719 92.2241 66.5225C92.334 67.1785 92.4439 67.8346 92.5538 68.4906C92.7277 69.5283 91.1212 69.7992 90.9472 68.7598C90.1682 64.1092 89.3893 59.4588 88.6107 54.8083C88.5455 54.421 88.4808 54.0339 88.4158 53.6466C86.6486 53.9426 84.8811 54.2388 83.1137 54.5351C82.0798 54.7082 81.808 53.0959 82.8437 52.9224Z" fill="#DEEDF2"/>
<path fill-rule="evenodd" clip-rule="evenodd" d="M80.9317 55.6771L82.7854 55.3664L82.2454 52.1411L80.3914 52.4518C79.6405 52.5775 79.1337 53.288 79.2594 54.0386L79.3443 54.5457C79.4701 55.2963 80.1808 55.8029 80.9317 55.6771Z" fill="#34466B"/>
<path fill-rule="evenodd" clip-rule="evenodd" d="M82.5751 55.6594L84.1463 55.3961C85.014 55.2507 85.5994 54.4297 85.4542 53.5626L85.356 52.9765C85.2108 52.109 84.3897 51.5237 83.522 51.6691L81.9512 51.9324L82.5751 55.6594Z" fill="#DEEDF2"/>
<path fill-rule="evenodd" clip-rule="evenodd" d="M66.8997 55.4837C64.8647 55.8247 62.8294 56.1658 60.7942 56.5068C60.36 56.5796 60.0529 57.0109 60.126 57.4478C60.905 62.0983 61.6838 66.7487 62.4626 71.3992C62.5725 72.0554 62.6824 72.7114 62.7921 73.3672C62.9659 74.4051 64.573 74.1375 64.3988 73.0982C63.62 68.4475 62.8412 63.7971 62.0624 59.1466C61.9976 58.7593 61.9324 58.3722 61.8679 57.9849C63.6352 57.6886 65.4024 57.3926 67.1699 57.0964C68.2036 56.9231 67.9353 55.3103 66.8997 55.4837Z" fill="#DEEDF2"/>
<path fill-rule="evenodd" clip-rule="evenodd" d="M69.6033 57.4646L67.7493 57.7754L67.209 54.5499L69.063 54.2394C69.8137 54.1136 70.5244 54.62 70.6502 55.3707L70.7352 55.8779C70.8608 56.6285 70.354 57.3388 69.6033 57.4646Z" fill="#34466B"/>
<path fill-rule="evenodd" clip-rule="evenodd" d="M68.0428 57.9843L66.472 58.2476C65.6043 58.393 64.783 57.8076 64.638 56.9403L64.5396 56.3541C64.3946 55.487 64.98 54.666 65.8477 54.5206L67.4188 54.2573L68.0428 57.9843Z" fill="#DEEDF2"/>
<path fill-rule="evenodd" clip-rule="evenodd" d="M81.1777 97.7078C81.1777 97.7078 81.2933 98.7075 81.3711 99.8672L84.0912 98.1147L83.9025 96.9116L81.1777 97.7078Z" fill="#444444"/>
<path fill-rule="evenodd" clip-rule="evenodd" d="M93.1305 68.5231C93.7928 71.4228 94.0907 74.4429 94.1915 77.4092C94.3708 82.6706 93.8868 88.5197 90.7695 92.9501C87.4704 97.6392 80.8625 99.6337 75.6071 97.1591C70.5887 94.7967 67.5422 89.5467 65.5173 84.5961C64.5891 82.3269 63.8357 79.9829 63.2092 77.6132C62.8809 76.3718 62.5561 75.1105 62.3511 73.8414C62.3415 73.7825 62.3295 73.7242 62.3199 73.6655C62.0411 72.0053 64.6114 71.5718 64.8906 73.2348C65.0326 74.0793 65.2225 74.9176 65.4202 75.7504C65.6355 76.6561 65.8724 77.5566 66.1302 78.4512C66.205 78.7102 66.2821 78.9684 66.3595 79.2266C66.4619 79.5684 66.2986 79.039 66.3915 79.3312C66.4388 79.4808 66.4855 79.6306 66.5331 79.7798C66.7153 80.3465 66.9061 80.9104 67.1067 81.4706C67.9804 83.9113 69.0308 86.303 70.3693 88.5255C70.4546 88.6669 70.5413 88.8071 70.6284 88.9476C70.4651 88.6839 70.6833 89.032 70.7399 89.1187C70.9284 89.4064 71.1224 89.6905 71.3224 89.9703C71.6987 90.4963 72.0965 91.0069 72.5188 91.4961C72.7161 91.7252 72.9191 91.9494 73.1277 92.1681C73.2257 92.2708 73.3249 92.3725 73.4254 92.4728C73.4922 92.5395 73.5601 92.6047 73.6273 92.6708C73.6818 92.7245 73.9018 92.9235 73.6559 92.7006C74.1142 93.116 74.5899 93.5089 75.0961 93.8637C75.3333 94.0297 75.576 94.1878 75.824 94.3366C75.941 94.4069 76.0607 94.4728 76.1786 94.541C75.8583 94.356 76.3673 94.6352 76.4495 94.675C76.9965 94.9383 77.566 95.1552 78.1504 95.3195C78.2091 95.3361 78.2694 95.3497 78.3277 95.3676C78.6308 95.4596 78.0456 95.3158 78.3576 95.3758C78.4947 95.402 78.6305 95.4332 78.7677 95.458C79.0933 95.5161 79.4214 95.5583 79.7511 95.5844C80.0586 95.6088 80.3653 95.6137 80.6735 95.6162C80.7543 95.6168 80.9902 95.6019 80.6717 95.6188C80.7383 95.6152 80.8057 95.6135 80.8725 95.6085C81.0764 95.5929 81.2797 95.5784 81.4827 95.5554C82.1947 95.4743 82.882 95.3117 83.5744 95.1342C83.6367 95.1183 83.8207 95.0547 83.5373 95.1473C83.6183 95.121 83.6992 95.0946 83.7798 95.0671C83.9228 95.018 84.065 94.9664 84.2058 94.9117C84.5408 94.7822 84.8698 94.6363 85.1905 94.4742C85.446 94.3453 85.6893 94.1992 85.9378 94.0581C86.2172 93.8997 85.7076 94.2238 85.9684 94.0387C86.0191 94.0029 86.0716 93.9698 86.1225 93.9348C86.2747 93.8302 86.4241 93.7213 86.5704 93.6089C86.7877 93.4416 86.9981 93.2658 87.2017 93.0823C87.3141 92.9808 87.4242 92.8772 87.5321 92.7711C87.5967 92.7073 87.9913 92.2802 87.7443 92.5598C88.1443 92.1069 88.517 91.6352 88.8503 91.1306C89.0011 90.903 89.1444 90.6703 89.2805 90.4334C89.3233 90.3597 89.5529 89.9257 89.3881 90.2471C89.4719 90.0831 89.5559 89.9196 89.6354 89.7533C90.1777 88.6207 90.5703 87.4287 90.8814 86.2132C90.8971 86.1513 90.9116 86.0892 90.9265 86.0273C90.8526 86.3315 90.908 86.1073 90.9245 86.0305C90.9547 85.89 90.9862 85.7495 91.0154 85.6083C91.0833 85.2783 91.1447 84.9468 91.2001 84.6142C91.3054 83.9793 91.3887 83.3409 91.453 82.7004C91.5798 81.44 91.6336 80.1725 91.6328 78.9055C91.6326 78.6144 91.6296 78.3232 91.6236 78.0322C91.6205 77.8812 91.616 77.7302 91.6122 77.5792C91.6223 77.985 91.6069 77.4483 91.6026 77.3494C91.5785 76.7763 91.5441 76.2036 91.5005 75.6314C91.4231 74.6221 91.317 73.6148 91.1836 72.6112C91.0279 71.4396 90.8111 70.2838 90.5967 69.1226C90.5862 69.0661 90.5725 69.0098 90.5596 68.9539C90.4023 68.2644 90.9636 67.56 91.6288 67.4485C92.3589 67.3262 92.9724 67.8318 93.1305 68.5231Z" fill="#1BB3BC"/>
<path d="M69.4766 118.447L69.4743 118.437C69.5534 118.417 69.5924 118.407 69.5958 118.406H69.596L69.6009 118.406L69.6018 118.41C69.6021 118.412 69.6025 118.413 69.5976 118.416V118.416L69.594 118.417C69.5818 118.422 69.5514 118.429 69.4766 118.447Z" fill="#767676"/>
<path d="M79.2207 109.69L79.2111 109.686L79.2153 109.676L79.2245 109.68L79.2207 109.69Z" fill="#767676"/>
<path d="M80.3521 93.0059L80.3512 92.9958C80.3754 92.9934 80.3908 92.9924 80.3964 92.9922L80.397 93.0021L80.3521 93.0059Z" fill="#767676"/>
<path d="M82.9052 93.5892L82.9021 93.5796C82.9215 93.5732 82.9845 93.553 82.9883 93.5522L82.993 93.5515L82.9941 93.556C82.9947 93.5579 82.995 93.5593 82.9901 93.5618V93.5622C82.9901 93.5622 82.9894 93.5624 82.9885 93.5627C82.9796 93.5669 82.9577 93.574 82.9052 93.5892Z" fill="#767676"/>
<path d="M89.3731 85.6441L89.3631 85.6416C89.3633 85.6412 89.3633 85.6408 89.3635 85.6403C89.3637 85.6394 89.364 85.6383 89.3642 85.6372C89.3678 85.6235 89.3724 85.6037 89.3789 85.5771C89.3796 85.5738 89.3805 85.5706 89.3812 85.5673L89.3903 85.53L89.3908 85.5279L89.4006 85.5302C89.3961 85.5489 89.3921 85.5652 89.3888 85.5795C89.3836 85.601 89.3783 85.6226 89.3731 85.6441Z" fill="#767676"/>
<path d="M89.3663 85.667L89.3564 85.665C89.3564 85.665 89.3569 85.6619 89.3584 85.6563L89.3683 85.6589C89.3669 85.6643 89.3663 85.667 89.3663 85.667Z" fill="#767676"/>
<path d="M80.3936 94.0193L80.3933 94.0092L80.3998 94.0088C80.4431 94.007 80.461 94.0061 80.4639 94.0061L80.4642 94.0161C80.4572 94.0164 80.4498 94.017 80.4425 94.0174C80.4293 94.0179 80.4121 94.0188 80.3938 94.0193H80.3936Z" fill="#767676"/>
<path fill-rule="evenodd" clip-rule="evenodd" d="M93.3343 84.9849L91.7003 85.5015L90.3704 84.7837L90.075 84.9883L90.3122 85.3619L89.0377 85.0821L88.0961 85.5668L87.8926 86.9614L88.6125 88.2269L90.0185 88.2822L91.499 87.5025L93.7665 86.8923L93.3343 84.9849Z" fill="#FFC4B8"/>
<path fill-rule="evenodd" clip-rule="evenodd" d="M91.9434 85.0982L99.5569 83.3129C100.24 83.1528 100.948 83.1182 101.632 82.9531C102.63 82.7113 102.904 82.627 103.044 81.6743C103.451 78.9136 102.934 76.0492 103.351 73.3295C104.353 73.2301 105.321 72.9923 106.344 73.0059C108.015 73.028 107.87 74.1773 107.964 75.4578C108.076 76.9765 108.142 78.5002 108.153 80.023C108.161 81.2849 108.578 86.7581 106.724 87.1584C105.395 87.4496 92.0076 88.1625 92.0134 88.437C92.0111 88.3265 91.9434 85.0982 91.9434 85.0982Z" fill="#DEEDF2"/>
<path fill-rule="evenodd" clip-rule="evenodd" d="M123.933 37.5011C123.887 37.5993 123.771 37.6418 123.673 37.5958L116.029 34.0283C115.931 33.9825 115.889 33.8657 115.934 33.7676C115.98 33.6695 116.097 33.6269 116.195 33.6727L123.839 37.2406C123.937 37.2862 123.979 37.403 123.933 37.5011Z" fill="#34466B"/>
<path fill-rule="evenodd" clip-rule="evenodd" d="M125.292 37.5659L124.865 38.4801L120.785 36.5758C120.533 36.4581 120.424 36.1579 120.542 35.9055C120.659 35.653 120.96 35.5439 121.212 35.6617L125.292 37.5659Z" fill="#DEEDF2"/>
<path fill-rule="evenodd" clip-rule="evenodd" d="M158.29 52.1114L157.71 53.2181L152.797 50.6411L151.041 53.9884L155.954 56.5654L155.373 57.6721C155.139 58.1194 155.311 58.672 155.758 58.9066C156.206 59.1413 156.758 58.9689 156.993 58.5217L159.91 52.961C160.144 52.5138 159.972 51.9609 159.525 51.7265C159.078 51.4918 158.525 51.6642 158.29 52.1114Z" fill="#9BC3D3"/>
<path fill-rule="evenodd" clip-rule="evenodd" d="M153.85 55.4609L155.605 52.1138L156.919 52.8027L154.21 55.6497L153.85 55.4609Z" fill="#767676"/>
<path fill-rule="evenodd" clip-rule="evenodd" d="M156.82 49.7982L152.642 57.7637C152.513 58.0091 152.21 58.1036 151.965 57.975L150.033 56.9619L154.677 48.1079L156.609 49.121C156.854 49.2497 156.949 49.5529 156.82 49.7982Z" fill="#34466B"/>
<path fill-rule="evenodd" clip-rule="evenodd" d="M156.43 45.7218C156.021 45.5397 155.54 45.7291 155.332 46.126L154.991 46.7762C154.778 47.1809 154.278 47.3368 153.873 47.1246L131.539 35.4089C131.27 35.2679 130.96 35.2255 130.663 35.2891L124.269 36.659C124.148 36.6849 124.045 36.7635 123.988 36.8732L123.326 38.144C123.269 38.2534 123.264 38.3825 123.312 38.4962L125.828 44.5067C125.945 44.7857 126.156 45.0151 126.424 45.1558L148.76 56.8722C149.165 57.0846 149.321 57.5847 149.108 57.9894L148.768 58.6396C148.559 59.0365 148.677 59.5399 149.06 59.7735C149.479 60.0292 150.02 59.8747 150.244 59.4468L156.835 46.8821C157.06 46.4541 156.879 45.9214 156.43 45.7218Z" fill="#DEEDF2"/>
<path fill-rule="evenodd" clip-rule="evenodd" d="M131.571 36.6933C131.314 36.5586 131.026 36.5034 130.757 36.5369L124.965 37.259C124.855 37.2726 124.765 37.3311 124.72 37.4185L124.194 38.4305C124.149 38.5176 124.152 38.6245 124.203 38.7221L126.909 43.875C127.034 44.1142 127.243 44.3184 127.499 44.4524L148.807 55.6298L131.571 36.6933Z" fill="#DEEDF2"/>
<path fill-rule="evenodd" clip-rule="evenodd" d="M138.38 47.6392L136.89 50.4793L136.346 50.1934L137.835 47.3535C137.85 47.3254 137.885 47.3146 137.913 47.3294L138.356 47.5615C138.384 47.5764 138.395 47.6112 138.38 47.6392Z" fill="#34466B"/>
<path fill-rule="evenodd" clip-rule="evenodd" d="M130.775 43.6504L129.285 46.4905L128.74 46.2048L130.23 43.3647C130.245 43.3367 130.279 43.3258 130.307 43.3406L130.75 43.5728C130.778 43.5876 130.789 43.6224 130.775 43.6504Z" fill="#34466B"/>
<path fill-rule="evenodd" clip-rule="evenodd" d="M145.982 51.628L144.492 54.4682L143.947 54.1822L145.437 51.3423C145.452 51.3143 145.487 51.3034 145.515 51.3181L145.958 51.5504C145.986 51.565 145.996 51.5998 145.982 51.628Z" fill="#34466B"/>
<path fill-rule="evenodd" clip-rule="evenodd" d="M141.399 51.0097L140.644 52.4483L140.197 52.2138L140.952 50.7752C140.964 50.7522 140.993 50.7433 141.016 50.7554L141.379 50.9459C141.402 50.9581 141.411 50.9867 141.399 51.0097Z" fill="#34466B"/>
<path fill-rule="evenodd" clip-rule="evenodd" d="M133.793 47.0204L133.039 48.459L132.592 48.2245L133.347 46.7861C133.359 46.7629 133.387 46.754 133.41 46.7662L133.774 46.9567C133.797 46.9688 133.806 46.9974 133.793 47.0204Z" fill="#34466B"/>
<path fill-rule="evenodd" clip-rule="evenodd" d="M140.236 71.8336C140.251 71.8225 136.859 68.2144 136.704 66.3401C137.087 66.1237 137.447 65.8525 137.773 65.5267C139.72 63.5798 139.714 60.4126 137.76 58.4584C135.806 56.5041 132.638 56.4982 130.691 58.445C129.901 59.2355 129.432 60.2274 129.285 61.2576L129.285 61.2579L128.315 64.5697L129.199 64.7607L129.202 67.2921C129.203 67.9518 129.617 68.5417 130.238 68.7679L131.637 69.2776L131.637 69.2778L131.637 69.2779C131.637 69.2779 131.711 69.4932 131.841 69.8382L133.608 74.1458L133.611 74.1456C134.157 74.8656 135.23 75.4712 136.242 75.4712C138.596 75.4712 139.945 73.7165 140.236 71.8336Z" fill="#FFC4B8"/>
<path fill-rule="evenodd" clip-rule="evenodd" d="M131.968 70.1698C132.611 69.9612 133.542 69.4429 134.541 68.1722L131.637 69.2778C131.637 69.2778 131.76 69.6363 131.968 70.1698ZM129.197 64.7608C129.463 64.8436 129.729 64.6381 129.716 64.3604L129.634 62.5698L129.197 64.7608Z" fill="#F4A48D"/>
<path d="M132.744 102.215L143.042 98.4277L140.919 116.468L142.149 132.032L142.258 133.022L140.235 133.075L135.517 118.506L133.116 103.735L132.744 102.215Z" fill="#FFC4B8"/>
<path fill-rule="evenodd" clip-rule="evenodd" d="M140.235 133.075L142.341 133.022L142.879 134.8L142.826 134.815L142.84 134.817L139.357 136.881L137.701 137.065L137.49 135.172L137.937 134.844L140.235 133.075Z" fill="#34466B"/>
<path d="M125.732 102.525L128.895 134.138L130.932 134.437L132.909 116.827L136.459 100.217L125.732 102.525Z" fill="#FFC4B8"/>
<path fill-rule="evenodd" clip-rule="evenodd" d="M128.827 134.13L126.127 135.661L126.38 136.935L131.204 136.208L130.92 134.372L128.827 134.13Z" fill="#34466B"/>
<path fill-rule="evenodd" clip-rule="evenodd" d="M120.905 110.282C120.253 109.83 120.239 109.042 120.24 108.253C120.243 106.771 120.509 105.257 120.849 103.817C121.495 101.116 122.228 97.8626 122.551 94.3626C123.384 85.3167 126.24 79.2465 126.24 79.2465L127.162 76.7882C127.345 76.4687 127.536 76.1527 127.734 75.8412C128.885 74.0345 130.884 70.9646 133.022 70.462C133.067 70.4515 133.112 70.4413 133.157 70.4314C135.405 69.9381 138.285 70.167 140.316 71.2598C140.701 71.4671 141.044 71.7434 141.385 72.0177C142.378 72.819 143.188 73.2528 143.616 74.4738C143.988 75.534 144.074 76.6906 144.279 77.7892C144.696 80.0213 144.944 82.28 145.277 84.5249C145.9 88.7348 146.43 92.9583 147.097 97.1618C147.44 99.3251 147.786 101.492 147.948 103.678C148.092 105.611 149.835 107.574 150.815 109.306C151.156 109.909 146.259 111.47 145.821 111.573C143.789 112.045 141.628 111.925 139.535 111.934C134.946 111.955 130.356 111.813 125.778 111.51C124.256 111.409 122.381 111.119 121.031 110.361C120.986 110.336 120.945 110.31 120.905 110.282Z" fill="#2A8FEC"/>
<path fill-rule="evenodd" clip-rule="evenodd" d="M135.676 70.1837C135.676 70.1837 138.261 69.4859 138.618 75.3182C138.976 81.1505 139.571 95.9096 140.404 99.9564C141.237 104.003 142.487 111.941 142.487 111.941L134.571 112.216L125.525 111.502C125.525 111.502 128.62 105.789 129.096 101.742C129.572 97.695 128.739 82.4596 130.763 76.7465C132.786 71.0333 133.211 70.2864 135.676 70.1837Z" fill="white"/>
<path fill-rule="evenodd" clip-rule="evenodd" d="M123.978 83.1741L119.85 82.5373V78.9814L129.81 71.3905L133.024 70.4385L131.476 74.6042L123.978 83.1741Z" fill="#2A8FEC"/>
<path fill-rule="evenodd" clip-rule="evenodd" d="M139.201 72.8858L147.013 66.576L144.114 56.9363L146.995 55.7632L152.366 68.4744L144.544 78.3431L139.201 72.8858Z" fill="#2A8FEC"/>
<path fill-rule="evenodd" clip-rule="evenodd" d="M122.192 79.9922L122.18 80.1953L127.89 81.9418L127.753 84.0456L119.85 82.0189L122.192 79.9922Z" fill="#2A8FEC"/>
<path fill-rule="evenodd" clip-rule="evenodd" d="M131.715 69.4886C131.637 69.4848 131.558 69.4829 131.479 69.4829C128.8 69.4829 126.629 71.6541 126.629 74.3323C126.629 75.0093 127.629 76.0834 128.808 75.4191C129.926 74.7893 130.016 73.1163 131.599 72.3261C131.957 72.1471 132.329 72.0097 132.689 71.8984L131.844 69.8383C131.792 69.6986 131.748 69.5801 131.715 69.4886ZM139.595 71.0913C141.472 70.4208 142.801 68.6325 142.799 66.5212C142.798 65.1333 142.214 63.8819 141.278 62.9988C141.134 62.8619 141.065 62.6649 141.092 62.4676L141.089 62.4693L141.092 62.4641L141.098 62.4155C141.113 62.3022 141.124 62.1889 141.132 62.0762C141.135 62.0456 141.137 62.0152 141.138 61.9849C141.269 59.5693 139.909 57.2218 137.564 56.2113C137.177 56.0442 136.781 55.922 136.383 55.842C136.343 55.8239 136.304 55.8062 136.264 55.789C134.909 55.2052 133.457 55.1673 132.15 55.5779C131.629 55.7409 131.132 55.9754 130.673 56.2747C130.749 56.6913 130.862 57.0952 131.008 57.4827C130.494 57.9988 130.068 58.6185 129.762 59.3279C129.559 59.8001 129.421 60.2841 129.345 60.7693L131.007 58.6654L131.373 58.2929C132.414 60.2545 134.359 61.6635 136.652 61.9648C136.629 62.3092 136.626 62.6719 136.657 63.0351C136.927 62.7259 137.266 62.5845 137.513 62.7108C137.812 62.8643 137.87 63.3598 137.664 63.8567L137.657 63.8718L137.651 63.8869L137.649 63.8903L137.644 63.902L137.642 63.9067L137.637 63.918L137.635 63.9219L137.628 63.9368L137.627 63.9393L137.621 63.9517L137.618 63.9565L137.613 63.9672L137.611 63.9718L137.603 63.9866L137.597 63.999L137.595 64.003L137.59 64.0113L137.588 64.016L137.584 64.0234L137.581 64.0285L137.577 64.0356L137.574 64.0407L137.571 64.0477L137.568 64.0528L137.564 64.0597L137.561 64.0647L137.557 64.0718L137.554 64.0765L137.55 64.0841L137.547 64.0882L137.54 64.0998L137.533 64.1114L137.526 64.1228L137.523 64.1272L137.519 64.1342L137.516 64.1388L137.512 64.1455L137.508 64.1502L137.504 64.1567L137.501 64.1614L137.494 64.1725L137.489 64.179L137.486 64.1835L137.481 64.1903L137.479 64.1943L137.471 64.2051L137.463 64.2157L137.456 64.2262L137.453 64.2301L137.448 64.2367L137.44 64.2471L137.432 64.2574L137.429 64.2618L137.421 64.2719L137.416 64.2778L137.413 64.282L137.408 64.2881L137.405 64.2919L137.397 64.3017L137.389 64.3114L137.381 64.321L137.378 64.3244L137.373 64.3305L137.369 64.3343L137.364 64.3399L137.361 64.3439L137.356 64.3493L137.353 64.3532L137.348 64.3585L137.344 64.3624L137.339 64.3677L137.336 64.3715L137.331 64.3769L137.327 64.3805L137.319 64.3893L137.31 64.398L137.302 64.4066L137.293 64.4151L137.29 64.4184L137.285 64.4235L137.281 64.427L137.276 64.4318L137.272 64.4353L137.267 64.44L137.264 64.4435L137.259 64.4482L137.255 64.4515L137.25 64.4563L137.246 64.4595L137.241 64.4645L137.237 64.4672L137.229 64.4749L137.22 64.4825L137.211 64.4899L137.202 64.4972L137.199 64.5002L137.193 64.5045L137.19 64.5075L137.184 64.5116L137.175 64.5187L137.172 64.5215L137.166 64.5256L137.163 64.5284L137.154 64.5351L137.145 64.5416L137.136 64.5481L137.127 64.5544L137.118 64.5606L137.114 64.5631L137.109 64.5667L137.105 64.5692L137.099 64.5727L137.096 64.5752L137.09 64.5786L137.087 64.581L137.081 64.5844L137.077 64.5867L137.068 64.5922L137.062 64.5962C136.897 64.6934 136.729 64.7289 136.585 64.686C135.708 65.7957 134.443 67.7159 135.096 68.8852C135.097 68.8868 135.098 68.8885 135.099 68.8902C135.234 69.1289 135.514 69.2393 135.773 69.1722L135.775 69.1775L137.124 68.6283C137.346 68.5378 137.44 68.5184 137.611 68.4622C137.725 68.6622 137.814 68.7761 137.946 68.9689C138.502 69.7783 139.135 70.5523 139.595 71.0913Z" fill="#9E3667"/>
<path fill-rule="evenodd" clip-rule="evenodd" d="M145.522 55.0554L144.028 52.9658L143.107 53.5653L143.813 55.2225L143.246 55.304L144.742 56.9362L145.783 56.4424L145.522 55.0554Z" fill="#FFC4B8"/>
<path fill-rule="evenodd" clip-rule="evenodd" d="M128.528 83.7659L130.861 83.3803L130.739 82.3759L129.083 82.2862L129.246 81.7847L127.29 82.3579L127.275 83.419L128.528 83.7659Z" fill="#FFC4B8"/>
<path fill-rule="evenodd" clip-rule="evenodd" d="M134.06 99.416L121.277 102.518C116.55 103.665 111.799 100.808 110.665 96.1361C109.531 91.4646 112.444 86.7477 117.171 85.6006L129.922 82.5068L134.06 99.416Z" fill="#CCCCCC"/>
<path fill-rule="evenodd" clip-rule="evenodd" d="M134.51 99.3069L148.882 95.79C153.226 94.736 155.893 90.3598 154.839 86.0161L154.551 84.8287C153.496 80.4853 149.121 77.8187 144.777 78.8727L130.404 82.3898L134.51 99.3069Z" fill="#34466B"/>
<path fill-rule="evenodd" clip-rule="evenodd" d="M126.972 90.7169C125.89 90.9796 124.807 91.2422 123.724 91.5051C123.623 91.5295 123.522 91.5542 123.42 91.5788C123.231 90.7996 123.042 90.0205 122.853 89.2415C122.758 88.8504 122.663 88.4595 122.568 88.0685C122.537 87.9383 122.398 87.8547 122.266 87.8867C121.593 88.0501 120.92 88.2134 120.247 88.3765C120.116 88.4086 120.03 88.5462 120.062 88.6766C120.322 89.7467 120.581 90.8165 120.841 91.8862C120.865 91.9865 120.89 92.0867 120.914 92.1868C120.125 92.3782 119.337 92.5694 118.549 92.7608L117.362 93.0489C117.23 93.0809 117.145 93.2184 117.176 93.3489C117.338 94.0138 117.5 94.6787 117.661 95.3438C117.679 95.4175 117.72 95.4667 117.772 95.4953C117.821 95.5292 117.886 95.5441 117.963 95.5256C119.046 95.2627 120.128 95.0001 121.211 94.7374C121.312 94.7128 121.414 94.6883 121.515 94.6635C121.704 95.4428 121.893 96.2218 122.082 97.001C122.177 97.3919 122.272 97.7828 122.367 98.1737C122.399 98.3039 122.537 98.3876 122.669 98.3557C123.342 98.1922 124.015 98.0291 124.688 97.8657C124.763 97.8476 124.813 97.8064 124.842 97.7551C124.877 97.7059 124.892 97.6414 124.873 97.5655C124.614 96.4958 124.354 95.426 124.094 94.3562C124.07 94.2559 124.046 94.1556 124.021 94.0553C124.81 93.8643 125.598 93.6729 126.387 93.4817C126.782 93.3855 127.178 93.2895 127.573 93.1936C127.705 93.1615 127.791 93.0239 127.759 92.8935C127.597 92.2286 127.436 91.5636 127.275 90.8987C127.243 90.7683 127.104 90.6848 126.972 90.7169Z" fill="#34466B"/>
<path d="M67.5782 118.663L67.5759 118.653C67.655 118.633 67.6939 118.623 67.6974 118.622H67.6975L67.7024 118.622L67.7033 118.627C67.7037 118.628 67.7041 118.629 67.6992 118.632V118.632L67.6955 118.633C67.6834 118.638 67.653 118.646 67.5782 118.663Z" fill="#767676"/>
<path d="M77.3262 109.907L77.3166 109.903L77.3207 109.893L77.33 109.897L77.3262 109.907Z" fill="#767676"/>
<path d="M78.4575 93.2227L78.4566 93.2126C78.4809 93.2102 78.4963 93.2092 78.5019 93.209L78.5024 93.2189L78.4575 93.2227Z" fill="#767676"/>
<path d="M81.0107 93.806L81.0076 93.7964C81.027 93.79 81.09 93.7698 81.0938 93.769L81.0985 93.7683L81.0996 93.7728C81.1001 93.7747 81.1005 93.7761 81.0956 93.7786V93.779C81.0956 93.779 81.0949 93.7792 81.094 93.7795C81.0851 93.7837 81.0632 93.7908 81.0107 93.806Z" fill="#767676"/>
<path d="M78.4952 94.2357L78.4948 94.2255L78.5013 94.2251C78.5446 94.2233 78.5625 94.2224 78.5654 94.2224L78.5658 94.2324C78.5587 94.2328 78.5513 94.2333 78.5441 94.2337C78.5309 94.2342 78.5137 94.2351 78.4954 94.2357H78.4952Z" fill="#767676"/>
</svg>
