<svg width="160" height="160" viewBox="0 0 160 160" fill="none" xmlns="http://www.w3.org/2000/svg">
<path fill-rule="evenodd" clip-rule="evenodd" d="M57.0007 125.863C57.6479 125.891 58.2931 125.908 58.9369 125.915C71.8975 126.064 84.1856 130.569 94.1469 138.412C100.193 143.173 107.786 146.133 116.228 146.49C138.34 147.424 157.796 130.278 159.829 108.065C160.726 98.2666 158.054 89.1391 152.89 81.9193C148.468 75.7377 146.405 68.0857 147.282 60.3166C147.293 60.2165 147.304 60.1163 147.314 60.0167C148.627 46.9252 139.205 35.9354 126.17 35.3601C126.096 35.3566 126.021 35.3538 125.947 35.3514C122.429 35.2296 119.295 33.3378 117.594 30.3276C107.889 13.1647 89.8811 1.3893 68.329 0.482588C33.8915 -0.966045 3.38576 25.9535 0.260416 60.549C-2.86704 95.1718 22.5362 124.414 57.0007 125.863Z" fill="#EAF7FE"/>
<path d="M99.185 159.66L52.0861 152.46C46.8558 151.659 43.2642 146.775 44.0647 141.549L63.2679 16.2187C64.0685 10.9935 68.9578 7.40549 74.1895 8.20526L121.287 15.4067C126.519 16.2072 130.11 21.0913 129.309 26.3164L110.106 151.647C109.305 156.873 104.416 160.46 99.185 159.66Z" fill="#9E3667"/>
<path d="M96.2944 159.219L49.1955 152.017C43.9652 151.218 40.3738 146.333 41.1741 141.108L60.3768 15.7772C61.1779 10.5521 66.0672 6.96415 71.2984 7.76383L118.396 14.9659C123.628 15.765 127.219 20.6498 126.418 25.8751L107.215 151.205C106.415 156.431 101.525 160.019 96.2944 159.219Z" fill="white"/>
<path d="M125.604 31.1993L107.853 147.055C107.301 150.657 102.82 152.958 99.217 152.408L47.3366 144.475C43.7315 143.923 41.2596 140.559 41.8114 136.957L59.5627 21.1017C60.1149 17.4994 63.4813 15.0246 67.0872 15.5758L118.966 23.5088C122.569 24.0595 126.156 27.5974 125.604 31.1993Z" fill="white"/>
<path fill-rule="evenodd" clip-rule="evenodd" d="M106.963 19.1325C107.834 19.2658 108.649 18.6676 108.782 17.7971C108.916 16.9258 108.318 16.1125 107.447 15.9793C106.576 15.8467 105.761 16.4442 105.627 17.3155C105.494 18.186 106.092 19 106.963 19.1325ZM83.7734 14.8135C84.2268 14.8829 84.6515 14.5715 84.7214 14.1175C84.7908 13.6635 84.4791 13.2396 84.0251 13.1701C83.5707 13.1008 83.1461 13.4123 83.0771 13.8663C83.0068 14.3202 83.319 14.7442 83.7734 14.8135ZM81.5325 13.6303C81.463 14.0836 81.0384 14.3959 80.5849 14.3264C80.1305 14.2562 79.8188 13.833 79.8887 13.3791C79.9586 12.925 80.3828 12.6136 80.8367 12.683C81.2911 12.7524 81.6024 13.1764 81.5325 13.6303ZM90.3258 15.4235L97.9518 16.5886C98.1942 16.6261 98.4204 16.4598 98.4572 16.2174C98.4946 15.9752 98.3283 15.7491 98.086 15.7123L90.46 14.547C90.2186 14.5104 89.9924 14.6759 89.9546 14.9183C89.9177 15.1604 90.0831 15.3867 90.3258 15.4235Z" fill="#DEEDF2"/>
<path fill-rule="evenodd" clip-rule="evenodd" d="M99.1774 159.634L52.0785 152.434C46.8477 151.633 43.2564 146.749 44.0569 141.523L63.2603 16.1928C64.0609 10.9676 68.9497 7.37961 74.1818 8.17938L121.279 15.3808C126.511 16.1813 130.102 21.0654 129.301 26.2905L110.098 151.621C109.298 156.847 104.409 160.434 99.1774 159.634Z" fill="#9E3667"/>
<path fill-rule="evenodd" clip-rule="evenodd" d="M96.2868 159.192L49.1879 151.99C43.9574 151.191 40.3659 146.305 41.1662 141.081L60.3687 15.7499C61.1703 10.5248 66.0591 6.93681 71.2908 7.73649L118.389 14.9386C123.62 15.7377 127.212 20.6224 126.41 25.8477L107.207 151.178C106.407 156.404 101.517 159.992 96.2868 159.192Z" fill="white"/>
<path d="M125.596 31.1734L107.845 147.03C107.293 150.631 102.812 152.933 99.2094 152.382L47.3289 144.449C43.7237 143.897 41.2518 140.533 41.8036 136.931L59.5551 21.0758C60.1068 17.4736 63.4737 14.9988 67.0791 15.5499L118.959 23.4829C122.562 24.0337 126.148 27.5715 125.596 31.1734Z" fill="white"/>
<path fill-rule="evenodd" clip-rule="evenodd" d="M108.435 143.193L107.847 147.028C107.816 147.221 107.777 147.41 107.725 147.593C106.819 150.867 102.621 152.903 99.2123 152.382L47.3318 144.448C44.1539 143.962 41.8536 141.29 41.7356 138.195C41.7196 137.778 41.7404 137.356 41.8065 136.929L42.3939 133.094L108.435 143.193Z" fill="#CEDEE7"/>
<path d="M108.436 143.193L107.847 147.028C107.817 147.221 107.777 147.41 107.725 147.593L107.69 147.588L107.845 146.577L41.875 136.491L42.3943 133.094L108.436 143.193Z" fill="#EC0000"/>
<path fill-rule="evenodd" clip-rule="evenodd" d="M89.8407 118.67L107.09 121.303L104.444 138.544L87.1946 135.912L89.8407 118.67ZM70.0368 115.64L87.2854 118.273L84.6393 135.514L67.3912 132.882L70.0368 115.64ZM50.2325 112.612L67.4811 115.245L64.8355 132.487L47.5859 129.854L50.2325 112.612Z" fill="#CEDEE7"/>
<path fill-rule="evenodd" clip-rule="evenodd" d="M106.951 19.1057C107.822 19.239 108.637 18.6407 108.77 17.7702C108.905 16.899 108.306 16.0856 107.436 15.9524C106.565 15.8198 105.75 16.4174 105.616 17.2886C105.482 18.1591 106.08 18.9732 106.951 19.1057ZM83.7617 14.7866C84.2151 14.8561 84.6397 14.5446 84.7096 14.0907C84.7791 13.6367 84.4678 13.2127 84.0134 13.1432C83.559 13.0739 83.1344 13.3855 83.0654 13.8394C82.995 14.2933 83.3073 14.7173 83.7617 14.7866ZM81.5208 13.6034C81.4508 14.0567 81.0267 14.369 80.5728 14.2996C80.1184 14.2293 79.8071 13.8062 79.877 13.3522C79.9464 12.8981 80.3711 12.5868 80.8245 12.6562C81.2789 12.7255 81.5907 13.1496 81.5208 13.6034ZM90.3142 15.3966L97.9402 16.5617C98.1825 16.5992 98.4088 16.4329 98.4456 16.1906C98.4825 15.9483 98.3162 15.7222 98.0739 15.6854L90.4484 14.5202C90.207 14.4835 89.9803 14.6491 89.943 14.8915C89.9057 15.1336 90.0714 15.3599 90.3142 15.3966Z" fill="#DEEDF2"/>
<path d="M125.596 31.173L122.772 49.6105L56.7305 39.5128L59.5551 21.0754C60.1073 17.4732 63.4737 14.998 67.0795 15.5495L118.959 23.4825C122.562 24.0332 126.148 27.5709 125.596 31.173Z" fill="#EC0000"/>
<path fill-rule="evenodd" clip-rule="evenodd" d="M118.708 76.1682L52.668 66.0705L56.7297 39.562L122.769 49.6598L118.708 76.1682Z" fill="#DEEDF2"/>
<path fill-rule="evenodd" clip-rule="evenodd" d="M115.237 62.0215C114.585 66.2769 110.603 69.1993 106.343 68.5474C102.083 67.8961 99.1578 63.9185 99.8096 59.6626C100.462 55.4073 104.444 52.4854 108.705 53.1367C112.965 53.7876 115.889 57.7662 115.237 62.0215Z" fill="#CEDEE7"/>
<path fill-rule="evenodd" clip-rule="evenodd" d="M96.3488 58.378L60.9668 52.9688L60.7656 54.2814L96.1475 59.6916L96.3488 58.378Z" fill="white"/>
<path fill-rule="evenodd" clip-rule="evenodd" d="M118.725 76.0411L114.663 102.55L48.625 92.4509L50.4662 80.4306L51.0628 76.53L52.6867 65.9434L63.4561 67.5909L64.7773 67.794L67.506 68.2092L67.6312 68.2281L118.725 76.0411Z" fill="#9BC3D3"/>
<path fill-rule="evenodd" clip-rule="evenodd" d="M111.093 89.0697C110.441 93.3251 106.459 96.247 102.198 95.5956C97.9388 94.9438 95.0136 90.9662 95.665 86.7108C96.3173 82.4555 100.3 79.5331 104.56 80.184C108.82 80.8358 111.745 84.8139 111.093 89.0697Z" fill="#DEEDF2"/>
<path fill-rule="evenodd" clip-rule="evenodd" d="M85.5103 83.9051L61.2403 80.1943L61.0391 81.5084L85.3091 85.2187L85.5103 83.9051Z" fill="#DEEDF2"/>
<path fill-rule="evenodd" clip-rule="evenodd" d="M65.1323 76.7837C61.0441 79.7481 55.2503 81.1959 50.3398 81.1789L50.9015 77.6339L52.4281 68.0142L62.2136 69.5649L67.2559 70.8298L70.5156 71.3442L70.619 71.2015L70.6648 71.3683L72.7261 78.7463L65.1327 76.7837H65.1323Z" fill="#34466B"/>
<path fill-rule="evenodd" clip-rule="evenodd" d="M61.8745 72.7326C44.9878 78.9089 25.612 72.2035 16.4042 56.0777C6.13582 38.0888 12.4078 15.1892 30.4149 4.93117C48.4222 -5.3277 71.3446 0.937593 81.6138 18.9253C90.8194 35.0532 86.7322 55.1259 72.8126 66.5004L72.7541 79.0946L61.8745 72.7326Z" fill="white"/>
<path fill-rule="evenodd" clip-rule="evenodd" d="M71.0771 29.3471L42.2248 54.5355L27.4023 37.4912L33.2818 32.3783L42.9814 43.5322L65.9531 23.4775L71.0771 29.3471Z" fill="#008437"/>
</svg>
