<svg width="160" height="160" viewBox="0 0 160 160" fill="none" xmlns="http://www.w3.org/2000/svg">
<path fill-rule="evenodd" clip-rule="evenodd" d="M79.2716 14.1363C60.25 27.8507 44.7353 23.8765 34.3591 22.1719C13.6551 18.7694 5.93794 38.1683 13.4904 52.8947C21.0432 67.6209 27.3701 85.5387 9.19336 99.7457C-8.98295 113.952 11.4761 149.894 40.7714 139.98C70.0662 130.065 103.138 131.466 118.21 142.187C133.282 152.907 166.529 127.846 140.224 102.608C113.918 77.3692 131.089 66.6203 140.07 55.1385C149.051 43.6564 145.375 22.4976 120.245 12.1891C120.245 12.1891 98.2936 0.422337 79.2716 14.1363Z" fill="#EAF7FE"/>
<path fill-rule="evenodd" clip-rule="evenodd" d="M117.492 48.763C117.492 48.763 79.7649 54.6927 78.3826 54.8884C77.0005 55.0848 36.9028 38.2575 36.9383 37.9205C36.9737 37.583 74.4887 27.1977 77.8554 27.5511L117.492 48.763Z" fill="#34466B"/>
<path d="M105.111 43.0371L102.281 59.3538" stroke="#34466B" stroke-width="4.773" stroke-linecap="round"/>
<path d="M102.291 58.3464C102.294 58.3464 102.298 58.3473 102.303 58.3491L102.311 58.3467L102.311 58.3492C103.733 58.4305 105.203 64.5486 105.203 64.5486L100.925 64.4817C100.925 64.4817 100.87 58.3812 102.291 58.3488C103.711 58.3165 102.285 58.3463 102.291 58.3464Z" fill="#34466B"/>
<path fill-rule="evenodd" clip-rule="evenodd" d="M78.088 38.0711C63.3686 36.5261 58.7519 41.8258 58.7519 41.8258L57.9095 56.2099C57.9095 56.2099 65.4175 52.2718 76.9925 54.1144C81.9898 54.9099 86.6279 56.1452 92.8645 59.8777L95.9914 44.7136C95.9914 44.7136 90.1496 39.3372 78.088 38.0711Z" fill="#9BC3D3"/>
<path fill-rule="evenodd" clip-rule="evenodd" d="M107.107 71.6461C107.121 71.7962 107.129 71.9301 107.128 72.0468C107.13 72.1632 107.13 72.2621 107.124 72.342C107.115 72.5016 107.111 72.5865 107.111 72.5865L106.978 72.5825C106.978 72.5825 106.973 72.4996 106.964 72.3441C106.962 72.2664 106.951 72.1712 106.936 72.0599C106.926 71.9481 106.903 71.8214 106.874 71.6806C106.813 71.4008 106.726 71.062 106.556 70.7076C106.389 70.3548 106.147 69.9799 105.796 69.6675C105.452 69.3564 104.995 69.0933 104.499 68.9642L104.308 68.9178C104.308 68.9253 104.309 68.9327 104.311 68.94C104.312 68.9487 104.313 68.9574 104.314 68.9663C104.329 69.0759 104.325 69.195 104.32 69.312C104.315 69.4288 104.29 69.5524 104.265 69.6708C104.255 69.6988 104.246 69.727 104.237 69.7551C104.208 69.8469 104.179 69.9383 104.128 70.023L104.035 70.1894L103.918 70.3376L103.858 70.4099L103.843 70.4278C103.848 70.424 103.774 70.4973 103.802 70.4685L103.796 70.4737L103.772 70.494L103.724 70.5348C103.721 70.5374 103.718 70.5399 103.715 70.5425C103.702 70.5531 103.688 70.565 103.657 70.5869C103.592 70.6332 103.522 70.6778 103.454 70.7154L103.279 70.7902C103.162 70.8295 103.044 70.8639 102.929 70.8767C102.697 70.9119 102.471 70.9049 102.252 70.8606C102.033 70.8166 101.819 70.7462 101.618 70.6231C101.419 70.5026 101.231 70.3367 101.092 70.1185C100.955 69.8966 100.895 69.6222 100.891 69.4197C100.883 69.2766 100.899 69.1618 100.933 69.0272C100.968 68.8974 101.03 68.7693 101.11 68.6605C101.272 68.4406 101.486 68.3088 101.68 68.2279C101.933 68.1278 102.171 68.0851 102.4 68.0643C102.328 68.0069 102.255 67.9584 102.188 67.9265C101.794 67.7298 101.28 67.6594 100.788 67.6761C100.293 67.697 99.8111 67.795 99.3882 67.9424C98.9664 68.094 98.5939 68.2841 98.3041 68.5053C98.0074 68.7202 97.7943 68.9631 97.6435 69.1854C97.4941 69.4094 97.4124 69.6157 97.3632 69.7541C97.3204 69.9081 97.2973 69.9902 97.2973 69.9902L97.1645 69.9831C97.1645 69.9831 97.1468 69.9 97.1298 69.7374C97.1187 69.5642 97.1203 69.3105 97.2064 68.9945C97.2911 68.6795 97.4658 68.3067 97.759 67.9513C97.9003 67.7687 98.0781 67.5992 98.2749 67.4345C98.4719 67.2699 98.6925 67.1104 98.9405 66.9776C99.4316 66.7042 100.01 66.481 100.666 66.3912C101.317 66.3015 102.067 66.3275 102.811 66.6894L102.846 66.7063L102.894 66.7336L102.906 66.7412L102.957 66.7726L103.007 66.804C103.023 66.8136 103.04 66.8242 103.068 66.8452C103.166 66.9165 103.277 66.9992 103.344 67.0665C103.502 67.205 103.629 67.3617 103.749 67.5245C103.898 67.7301 104.021 67.9554 104.118 68.198C104.134 68.2015 104.151 68.2045 104.167 68.2075C104.188 68.2114 104.21 68.2154 104.231 68.2207L104.348 68.2515L104.391 68.2636L104.417 68.2725L104.469 68.2905C104.514 68.3062 104.56 68.3217 104.605 68.3371C104.628 68.3453 104.652 68.3534 104.676 68.3614C105.282 68.583 105.764 68.935 106.132 69.3339C106.5 69.7323 106.728 70.1763 106.874 70.5767C107.022 70.979 107.078 71.3468 107.107 71.6461ZM103.071 69.591C103.077 69.5709 103.083 69.5516 103.091 69.5332C103.152 69.3893 103.132 69.1838 103.057 68.966C103.04 68.9168 103.019 68.8671 102.996 68.8179C102.973 68.8188 102.95 68.8193 102.927 68.8198C102.887 68.8207 102.847 68.8215 102.808 68.8247C102.524 68.8484 102.236 68.9062 102.034 69.0109C101.934 69.063 101.872 69.1254 101.843 69.1737C101.829 69.1991 101.821 69.2224 101.817 69.2527C101.813 69.2772 101.81 69.3294 101.816 69.3511L101.817 69.3723L101.829 69.4334L101.841 69.4943C101.842 69.4996 101.842 69.5014 101.842 69.5011C101.842 69.5001 101.837 69.4716 101.838 69.4761L101.839 69.4792L101.843 69.4853L101.848 69.4979C101.854 69.5217 101.867 69.5424 101.88 69.5631C101.886 69.5736 101.893 69.584 101.898 69.5948C101.947 69.6537 102.017 69.7104 102.107 69.7561C102.288 69.8465 102.546 69.8794 102.745 69.8291C102.785 69.8225 102.82 69.808 102.853 69.7943C102.862 69.7906 102.87 69.7869 102.879 69.7835C102.897 69.7725 102.915 69.763 102.934 69.7544C102.934 69.7538 102.934 69.7532 102.935 69.7526C102.937 69.7476 102.938 69.746 102.943 69.7468C102.941 69.7535 102.957 69.7368 102.972 69.7218L102.973 69.7205L103.016 69.6781L103.02 69.671L103.037 69.6433C103.047 69.6251 103.059 69.6079 103.071 69.591Z" fill="#FFC4B8"/>
<path d="M103.068 68.6292C103.052 68.5798 103.031 68.5303 103.008 68.481C102.945 68.4836 102.882 68.483 102.82 68.4881C102.537 68.5115 102.25 68.5692 102.049 68.674C101.949 68.7261 101.887 68.7886 101.859 68.8368C101.845 68.8621 101.837 68.8857 101.832 68.9158C101.829 68.9404 101.825 68.9926 101.832 69.0141L101.832 69.0355L101.844 69.0966L101.856 69.1574C101.861 69.1816 101.852 69.1336 101.853 69.1393L101.855 69.1424L101.858 69.1486L101.864 69.1612C101.865 69.1636 101.866 69.1658 101.867 69.168C101.898 69.1216 101.956 69.065 102.049 69.0168C102.25 68.912 102.537 68.8544 102.82 68.8307C102.882 68.8256 102.945 68.8264 103.008 68.8239C103.031 68.8731 103.052 68.9227 103.068 68.9721C103.088 69.0316 103.104 69.0896 103.116 69.1462C103.155 69.0063 103.135 68.824 103.068 68.6292Z" fill="#F4A48D"/>
<path d="M104.131 69.6863L104.038 69.8528L103.921 70.0008L103.862 70.0731L103.847 70.0909C103.851 70.0872 103.777 70.1605 103.806 70.1316L103.8 70.1368L103.776 70.1571L103.728 70.198C103.713 70.2111 103.7 70.2231 103.661 70.2502C103.596 70.2964 103.527 70.3411 103.459 70.3787L103.284 70.4534C103.169 70.4927 103.05 70.5271 102.936 70.5401C102.705 70.575 102.479 70.568 102.261 70.524C102.043 70.4798 101.829 70.4095 101.629 70.2863C101.43 70.1659 101.243 70 101.105 69.7817C100.993 69.6006 100.935 69.3867 100.914 69.2032C100.904 69.2739 100.9 69.3458 100.904 69.4257C100.908 69.6282 100.968 69.9028 101.105 70.1246C101.243 70.3428 101.43 70.5088 101.629 70.6292C101.829 70.7523 102.043 70.8226 102.261 70.8668C102.479 70.9109 102.705 70.9179 102.936 70.8828C103.05 70.8698 103.169 70.8356 103.284 70.7962L103.459 70.7215C103.527 70.6838 103.596 70.6393 103.661 70.5929C103.7 70.5658 103.713 70.5538 103.728 70.5409L103.776 70.5L103.8 70.4797L103.806 70.4745C103.777 70.5034 103.851 70.4298 103.847 70.4338L103.862 70.416L103.921 70.3436L104.038 70.1954L104.131 70.0291C104.197 69.9184 104.226 69.7964 104.267 69.677C104.292 69.5585 104.317 69.4348 104.322 69.318C104.326 69.2146 104.328 69.1105 104.318 69.0117C104.31 69.1176 104.29 69.2277 104.267 69.334C104.226 69.4536 104.197 69.5756 104.131 69.6863Z" fill="#F4A48D"/>
<path d="M102.199 67.5896C101.806 67.3929 101.294 67.3225 100.803 67.3393C100.31 67.3601 99.8297 67.458 99.4081 67.6057C98.9876 67.7572 98.6163 67.9473 98.3276 68.1685C98.0319 68.3834 97.8194 68.6261 97.6692 68.8485C97.5204 69.0725 97.4389 69.2788 97.3899 69.4172C97.347 69.5712 97.3243 69.6533 97.3243 69.6533L97.1919 69.6462C97.1919 69.6462 97.1758 69.5688 97.1595 69.4215C97.1494 69.5477 97.1514 69.6558 97.1571 69.7433C97.1739 69.906 97.1919 69.989 97.1919 69.989L97.3243 69.9961C97.3243 69.9961 97.347 69.9141 97.3899 69.7601C97.4389 69.6217 97.5204 69.4153 97.6692 69.1914C97.8194 68.969 98.0319 68.726 98.3276 68.5113C98.6163 68.2901 98.9876 68.0999 99.4081 67.9483C99.8297 67.8008 100.31 67.7029 100.803 67.6821C101.182 67.6694 101.571 67.7097 101.91 67.8181C102.083 67.7689 102.249 67.7422 102.41 67.7272C102.338 67.6701 102.266 67.6216 102.199 67.5896Z" fill="#F4A48D"/>
<path d="M103.057 69.3112L103.056 69.3123C103.065 69.3034 103.07 69.2979 103.057 69.3112Z" fill="#F4A48D"/>
<path d="M104.317 68.9721C104.319 68.9848 104.319 68.9985 104.32 69.0114C104.321 68.9994 104.324 68.9868 104.324 68.9748C104.324 68.9591 104.324 68.9431 104.325 68.9269C104.321 68.9259 104.316 68.9247 104.312 68.9236C104.313 68.9399 104.316 68.9556 104.317 68.9721Z" fill="#F4A48D"/>
<path d="M103.057 69.6542C103.07 69.6407 103.065 69.6463 103.056 69.655L103.057 69.6542Z" fill="#F4A48D"/>
<path fill-rule="evenodd" clip-rule="evenodd" d="M68.4401 100.551C68.4401 100.551 61.6795 103.389 56.4453 100.551V84.251H68.4401V100.551Z" fill="#FFC4B8"/>
<path d="M66.3753 84.251L61.0653 95.2491L66.4772 97.7728V98.8061C66.4772 98.8061 61.2431 100.985 56.4453 99.6135L56.4861 102.548C61.7201 105.386 68.4861 101.639 68.4861 101.639L68.44 84.251H66.3753Z" fill="#FFC4B8"/>
<path fill-rule="evenodd" clip-rule="evenodd" d="M56.4453 100.761C56.4453 100.761 56.7507 97.9087 57.5813 101.528C57.5813 101.528 58.4264 99.2752 58.8327 101.278C58.8327 101.278 59.0056 101.971 58.8948 102.57C58.8948 102.57 57.3177 102.304 56.4453 101.642V100.761Z" fill="#444444"/>
<path fill-rule="evenodd" clip-rule="evenodd" d="M92.8652 100.551C92.8652 100.551 86.1045 103.389 80.6523 100.551V84.251H92.8652V100.551Z" fill="#FFC4B8"/>
<path d="M83.0512 96.5683L86.1958 94.6581L83.0811 84.2515H80.6523C80.6593 92.1877 80.6643 97.9231 80.6674 101.458C80.6677 101.787 80.6677 101.848 80.6674 101.64C86.1194 104.478 92.8643 102.728 92.8643 102.728L92.8651 98.8236C90.2481 99.3972 86.5406 99.815 83.0512 98.0586V96.5683Z" fill="#FFC4B8"/>
<path fill-rule="evenodd" clip-rule="evenodd" d="M80.6523 100.761C80.6523 100.761 81.0432 97.9087 81.874 101.528C81.874 101.528 82.7619 99.2752 83.1682 101.278C83.1682 101.278 83.277 101.971 83.1661 102.57C83.1661 102.57 81.7428 102.304 80.6523 101.642V100.761Z" fill="#444444"/>
<path fill-rule="evenodd" clip-rule="evenodd" d="M46.1398 69.6764L40.2838 69.4432C37.5388 77.96 41.7554 84.7774 41.7554 84.7774L43.4103 84.4832C43.41 84.4834 45.8737 86.8701 49.4115 86.5317C54.2179 93.0049 62.8898 97.3263 72.7899 97.3263C87.9062 97.3263 100.161 87.2518 100.161 74.8245C100.161 62.3975 87.9062 52.3232 72.7899 52.3232C59.8284 52.3232 48.9718 59.7303 46.1398 69.6764Z" fill="#FFC4B8"/>
<path fill-rule="evenodd" clip-rule="evenodd" d="M89.227 56.832C93.2474 60.7487 95.6716 65.8082 95.6716 71.3341C95.6716 83.7612 83.4173 93.8357 68.3009 93.8357C62.1321 93.8357 56.4404 92.1572 51.8633 89.3266C56.8839 94.2182 64.3945 97.3261 72.7892 97.3261C87.9057 97.3261 100.16 87.2516 100.16 74.8243C100.16 67.4689 95.866 60.938 89.227 56.832Z" fill="#F4A48D"/>
<path fill-rule="evenodd" clip-rule="evenodd" d="M59.7266 55.0465C59.7266 55.0465 71.6029 49.16 84.3415 54.4218C84.3415 54.4218 63.866 50.4399 63.8987 58.1508L59.7266 55.0465Z" fill="#F4A48D"/>
<path fill-rule="evenodd" clip-rule="evenodd" d="M42.2551 82.5338C42.2551 82.5338 38.9577 77.1954 40.0985 70.0664C37.7476 78.2901 41.7564 84.7777 41.7564 84.7777L47.0514 83.604L49.617 82.4986L42.2551 82.5338Z" fill="#F4A48D"/>
<path fill-rule="evenodd" clip-rule="evenodd" d="M45.8974 84.7773C45.8974 84.7773 48.4362 83.8468 50.1548 82.617C51.8244 81.4223 49.9181 82.544 49.9181 82.544L43.4102 84.4832C43.4102 84.4832 47.7534 88.6898 53.1875 85.1387C48.723 86.7005 45.8974 84.7773 45.8974 84.7773Z" fill="#F4A48D"/>
<path fill-rule="evenodd" clip-rule="evenodd" d="M55.5547 45.9604C55.5547 45.9604 63.7034 46.8253 63.899 58.1508L55.6058 61.1901L55.5547 45.9604Z" fill="#FFC4B8"/>
<path fill-rule="evenodd" clip-rule="evenodd" d="M41.7578 84.7776C41.7578 84.7776 41.8028 84.7654 41.8874 84.7427C41.9723 84.7226 42.0944 84.6805 42.2504 84.6396C42.4064 84.599 42.5937 84.5408 42.8094 84.476C43.0244 84.4085 43.2682 84.3439 43.5314 84.2606C43.7942 84.1756 44.0785 84.0836 44.3808 83.9957C44.6842 83.9122 44.9953 83.7879 45.324 83.6888C45.6509 83.5832 45.9887 83.4741 46.332 83.3631C46.673 83.2448 47.0197 83.1249 47.3662 83.005C47.7133 82.8873 48.0655 82.7838 48.4029 82.6543C48.7415 82.5283 49.0799 82.4177 49.4047 82.3028C49.7291 82.1876 50.0473 82.087 50.3486 81.9897C50.6441 81.8773 50.9268 81.7781 51.1883 81.6884C51.7102 81.5053 52.1527 81.3664 52.464 81.2719C52.7754 81.1775 52.9569 81.1309 52.9569 81.1309C52.9569 81.1309 52.7998 81.2306 52.5181 81.3927C52.2366 81.5548 51.8317 81.7832 51.3372 82.0397C51.0904 82.1697 50.8227 82.3093 50.5357 82.449C50.2445 82.5789 49.9376 82.7173 49.6155 82.8491C49.2939 82.982 48.9641 83.1271 48.6237 83.2603C48.2875 83.4049 47.9305 83.5116 47.5796 83.634C47.2258 83.7486 46.872 83.8625 46.5238 83.975C46.1749 84.0859 45.8202 84.16 45.4837 84.2504C45.1454 84.3357 44.8199 84.4209 44.5032 84.4745C44.189 84.5362 43.8901 84.5857 43.6147 84.6315C43.3402 84.6802 43.0823 84.6985 42.8572 84.7242C42.6324 84.752 42.434 84.7644 42.2699 84.7697C41.9435 84.7871 41.7578 84.7776 41.7578 84.7776Z" fill="#444444"/>
<path fill-rule="evenodd" clip-rule="evenodd" d="M55.5547 45.9604L55.593 57.3196L58.1148 60.2706C58.4622 55.3501 57.6897 50.4247 55.5885 45.9648C55.5672 45.9621 55.5547 45.9604 55.5547 45.9604Z" fill="#F4A48D"/>
<path d="M56.5889 58.4856L58.1144 60.2707C58.402 56.1984 57.9196 52.1237 56.5547 48.3115L56.5889 58.4856Z" fill="#A66555"/>
<path fill-rule="evenodd" clip-rule="evenodd" d="M54.0629 67.0591C54.0629 67.7322 53.5172 68.2779 52.8439 68.2779C52.171 68.2779 51.625 67.7322 51.625 67.0591C51.625 66.3862 52.171 65.8403 52.8439 65.8403C53.5172 65.8403 54.0629 66.3862 54.0629 67.0591Z" fill="#444444"/>
<path fill-rule="evenodd" clip-rule="evenodd" d="M77.9377 148.004C37.0684 148.004 3.9375 143.934 3.9375 138.913C3.9375 133.892 37.0684 129.822 77.9377 129.822C118.807 129.822 151.938 133.892 151.938 138.913C151.938 143.934 118.807 148.004 77.9377 148.004Z" fill="#CEDEE7"/>
<path fill-rule="evenodd" clip-rule="evenodd" d="M120.007 118.458H53.6523V121.596V135.624V138.762H120.007C124.424 138.762 128.005 135.186 128.005 130.774V126.446C128.005 122.034 124.424 118.458 120.007 118.458Z" fill="#34466B"/>
<path fill-rule="evenodd" clip-rule="evenodd" d="M94.544 137.332H29.9141V120.174H94.544C96.7552 120.174 98.5477 121.962 98.5477 124.168V133.338C98.5477 135.544 96.7552 137.332 94.544 137.332Z" fill="white"/>
<path d="M93.409 118.458H27.0547V121.596H93.4087C96.0866 121.596 98.2651 123.772 98.2651 126.446V130.774C98.2651 133.448 96.0866 135.624 93.4087 135.624H27.0547V138.762H93.409C97.8266 138.762 101.408 135.186 101.408 130.774V126.446C101.408 122.034 97.8266 118.458 93.409 118.458Z" fill="#34466B"/>
<path fill-rule="evenodd" clip-rule="evenodd" d="M93.409 118.458H27.0547V121.596H93.4087C96.0866 121.596 98.2651 123.772 98.2651 126.446V130.774C98.2651 133.448 96.0866 135.624 93.4087 135.624H27.0547V138.762H93.409C97.8266 138.762 101.408 135.186 101.408 130.774V126.446C101.408 122.034 97.8266 118.458 93.409 118.458Z" fill="#34466B"/>
<path fill-rule="evenodd" clip-rule="evenodd" d="M39.1028 101.585H93.9725V104.193V115.85V118.458H39.1028C35.4498 118.458 32.4883 115.486 32.4883 111.82V108.223C32.4883 104.557 35.4498 101.585 39.1028 101.585Z" fill="#2A8FEC"/>
<path fill-rule="evenodd" clip-rule="evenodd" d="M60.0999 117.314H113.42V103.016H60.0999C58.2758 103.016 56.7969 104.506 56.7969 106.345V113.986C56.7969 115.824 58.2758 117.314 60.0999 117.314Z" fill="white"/>
<path d="M60.8371 101.585H115.707V104.193H60.8371C58.6228 104.193 56.8213 106.001 56.8213 108.223V111.82C56.8213 114.042 58.6228 115.85 60.8371 115.85H115.707V118.458H60.8371C57.1842 118.458 54.2227 115.486 54.2227 111.82V108.223C54.2227 104.557 57.1842 101.585 60.8371 101.585Z" fill="#2A8FEC"/>
<path fill-rule="evenodd" clip-rule="evenodd" d="M60.8371 101.585H115.707V104.193H60.8371C58.6228 104.193 56.8213 106.001 56.8213 108.223V111.82C56.8213 114.042 58.6228 115.85 60.8371 115.85H115.707V118.458H60.8371C57.1842 118.458 54.2227 115.486 54.2227 111.82V108.223C54.2227 104.557 57.1842 101.585 60.8371 101.585Z" fill="#2A8FEC"/>
</svg>
