<svg width="160" height="160" viewBox="0 0 160 160" fill="none" xmlns="http://www.w3.org/2000/svg">
<path fill-rule="evenodd" clip-rule="evenodd" d="M3.17026 54.3576C3.10828 50.2454 5.36076 46.0574 10.7812 44.1361C13.4451 43.1924 16.1002 42.5434 18.4704 41.0422C23.8719 37.6212 23.7743 31.1117 25.248 25.5626C28.4838 13.375 40.938 3.6925 53.5444 4.00747C62.6322 4.23412 70.8483 4.51267 79.1334 12.2263C84.8026 17.5046 88.487 23.999 93.7501 29.4403C99.324 35.2025 106.116 37.9672 113.742 39.8187C120.955 41.5694 128.801 43.6526 134.322 48.903C139.51 53.8369 138.753 58.9974 136.529 65.0555C134.076 71.7359 139.395 76.2807 144.941 78.8823C149.611 81.0724 157.427 85.5274 157.683 93.742C158.474 119.186 142.312 119.288 136.287 121.706C80.8562 143.953 59.5839 126.794 36.0804 127.141C12.6505 127.486 -0.780304 99.1516 0.0336761 90.8072C1.06654 80.2123 6.54279 77.9649 8.06187 72.5161C10.2369 64.713 3.32253 64.412 3.17026 54.3576Z" fill="#EAF7FE"/>
<path d="M100.262 114.63C106.35 116.259 108.246 119.9 114.535 120.481C127.167 121.649 153.035 117.515 157.326 123.168C161.557 128.742 157.297 139.599 134.826 138.049C135.347 138.42 124.348 145.205 106.067 148.164C98.8336 149.334 86.577 149.529 81.7929 148.41C74.4396 146.69 66.8796 146.018 59.3362 146.374C32.5063 147.64 11.2877 146.068 10.72 141.486C10.53 139.955 11.9276 137.716 14.2637 136.307C15.7193 135.43 13.4574 134.934 12.9297 134.784C6.44922 132.951 2.72569 130.659 2.45545 128.651C1.60779 122.351 24.5017 114.446 51.6903 111.076C70.2128 108.781 90.1004 111.91 100.262 114.63Z" fill="#CEDEE7"/>
<path fill-rule="evenodd" clip-rule="evenodd" d="M136.213 68.6995L79.7479 53.7229L71.7478 83.9145L128.21 98.8911L136.213 68.6995Z" fill="#008437"/>
<path fill-rule="evenodd" clip-rule="evenodd" d="M131.106 76.1298L127.318 90.4261C124.362 89.6417 121.355 91.3162 120.6 94.1667L80.0365 83.4073C80.7913 80.5582 79.0082 77.6139 76.0533 76.8289L79.8427 62.5313C82.7977 63.3163 85.8029 61.6414 86.5586 58.7917L127.124 69.5522C126.37 72.4002 128.152 75.3466 131.106 76.1298Z" fill="#63BA68"/>
<path fill-rule="evenodd" clip-rule="evenodd" d="M71.6418 95.0799L130.258 99.9634C130.735 100.003 131.208 99.5467 131.298 98.9562L137.517 58.3273C137.607 57.7396 137.284 57.214 136.807 57.1742L78.1041 52.2835C77.6276 52.2438 77.1526 52.7001 77.0637 53.2907C75.0202 66.8368 72.9761 80.3818 70.9313 93.9268C70.8869 94.2221 70.9428 94.4473 71.0407 94.6286C71.0444 94.6373 71.0478 94.6459 71.0513 94.6545C71.0587 94.6732 71.0661 94.6918 71.0764 94.7101C71.0871 94.7258 71.099 94.7388 71.111 94.7519C71.1159 94.7572 71.1209 94.7626 71.1258 94.7682C71.2404 94.9348 71.4013 95.0599 71.6418 95.0799ZM129.689 97.9565L72.8914 93.3468C73.5347 89.0026 74.1779 84.6585 74.8211 80.3145C76.1055 71.6401 77.3898 62.9659 78.675 54.2905L135.557 58.907L129.689 97.9565Z" fill="#008437"/>
<path fill-rule="evenodd" clip-rule="evenodd" d="M106.321 125.652L103.57 101.393L106.544 93.7321C106.127 92.2141 105.799 90.6714 105.321 89.1705C105.153 88.6418 105.108 88.4913 104.617 88.3341C104.308 88.2356 104.001 88.1348 103.693 88.0351C102.076 87.512 100.46 86.9889 98.8432 86.4657C98.7838 86.4464 97.8414 86.1065 97.8247 86.1361C97.4085 86.8729 96.9003 87.6019 96.5551 88.3655C96.1979 89.1562 95.8852 89.9688 95.556 90.7714C95.3777 91.2132 95.2637 91.4615 95.3256 91.9038C95.3904 92.3667 96.3326 97.0761 96.4979 98.0464L98.4669 100.749L97.4133 124.987L106.321 125.652Z" fill="#FFC4B8"/>
<path fill-rule="evenodd" clip-rule="evenodd" d="M98.246 100.856C98.246 100.856 101.549 102.412 104.101 101.363L104.218 102.345C104.218 102.345 101.569 104.148 98.0195 102.459L98.246 100.856Z" fill="#34466B"/>
<path fill-rule="evenodd" clip-rule="evenodd" d="M96.082 115.338L96.3023 110.929L106.987 114.775L107.317 119.84L96.082 115.338Z" fill="#767676"/>
<path fill-rule="evenodd" clip-rule="evenodd" d="M91.0469 155.871H112.743L108.046 117.687C108.046 117.687 101.895 114.926 95.3744 112.479L91.0469 155.871Z" fill="#34466B"/>
<path fill-rule="evenodd" clip-rule="evenodd" d="M106.67 69.91C106.932 70.2622 106.996 70.7298 106.864 71.3132L106.771 71.722C106.968 71.7672 107.164 71.7965 107.358 71.8117C107.563 71.8274 107.767 71.819 107.972 71.7848C108.179 71.752 108.371 71.6897 108.549 71.5998C108.728 71.5093 108.884 71.3908 109.017 71.2418C109.149 71.0946 109.24 70.9084 109.291 70.6846C109.4 70.2081 109.344 69.8128 109.123 69.4984C108.903 69.1846 108.601 68.9315 108.22 68.7381C107.839 68.5453 107.42 68.4039 106.966 68.3147C106.511 68.2253 106.11 68.162 105.762 68.125L106.202 66.2585L105.019 66.3004L104.615 68.0806C104.019 68.0937 103.438 68.1699 102.871 68.3093C102.306 68.4495 101.789 68.6631 101.323 68.9541C100.856 69.2444 100.452 69.6193 100.11 70.0774C99.7687 70.5363 99.5244 71.0868 99.3791 71.7288C99.2331 72.3706 99.2286 72.9347 99.3654 73.4198C99.5026 73.9055 99.7328 74.3395 100.057 74.7205C100.38 75.1021 100.777 75.4397 101.244 75.733C101.711 76.027 102.203 76.303 102.718 76.5601L101.485 81.9873C100.767 81.8823 100.262 81.6333 99.9708 81.239C99.6795 80.8454 99.6165 80.2842 99.782 79.5547L99.8785 79.1318C99.6806 79.0858 99.4798 79.056 99.2757 79.0403C99.0614 79.0234 98.8495 79.0347 98.6375 79.0726C98.4262 79.1105 98.2305 79.1768 98.0503 79.2722C97.8703 79.367 97.7159 79.4932 97.5857 79.6514C97.4559 79.8103 97.366 80.001 97.3151 80.2248C97.1934 80.7594 97.2564 81.2023 97.5031 81.5533C97.75 81.9038 98.0815 82.1844 98.4984 82.3946C98.9158 82.6056 99.3686 82.7592 99.8554 82.8561C100.343 82.953 100.766 83.0159 101.126 83.0435L101.243 83.0527L100.843 84.8776L101.943 84.74L102.324 83.0616C102.954 83.0316 103.57 82.9359 104.17 82.7739C104.771 82.6132 105.318 82.3734 105.81 82.0551C106.303 81.7367 106.728 81.3345 107.086 80.8474C107.444 80.3607 107.702 79.7718 107.859 79.0812C108.002 78.4486 108.003 77.8948 107.857 77.4176C107.714 76.9419 107.47 76.5197 107.129 76.1518C106.787 75.7839 106.372 75.4549 105.884 75.1648C105.396 74.8741 104.88 74.5996 104.336 74.3398L105.52 69.1905C106.025 69.318 106.409 69.5578 106.67 69.91ZM102.09 71.1783C102.005 71.5441 101.993 71.866 102.054 72.1443C102.113 72.4224 102.223 72.6699 102.383 72.8874C102.542 73.1041 102.739 73.2976 102.974 73.4661C103.21 73.6351 103.46 73.7927 103.725 73.9394L104.809 69.1922C104.486 69.2078 104.177 69.2613 103.882 69.352C103.586 69.4426 103.32 69.5721 103.081 69.7399C102.842 69.9088 102.636 70.1114 102.461 70.3476C102.287 70.5844 102.163 70.8613 102.09 71.1783ZM105.126 79.6053C105.206 79.2587 105.211 78.9506 105.138 78.6808C105.065 78.4116 104.943 78.1699 104.767 77.9567C104.592 77.7429 104.377 77.5528 104.121 77.3875C103.865 77.2215 103.599 77.0701 103.321 76.9318L102.152 81.926C102.498 81.8925 102.835 81.8171 103.162 81.6999C103.488 81.5821 103.783 81.4244 104.048 81.229C104.312 81.0333 104.538 80.8003 104.725 80.5303C104.913 80.2598 105.045 79.9517 105.126 79.6053Z" fill="#008437"/>
<path d="M26.3438 86.4851C26.3438 86.4851 26.4944 85.0736 30.7359 85.2097C34.9777 85.3459 41.1198 84.2886 45.0909 84.2053C49.6831 84.1092 54.2383 84.9033 54.2383 84.9033L47.3719 94.2703H32.9141L26.3438 86.4851Z" fill="#767676"/>
<path fill-rule="evenodd" clip-rule="evenodd" d="M53.8513 75.2333C49.7437 81.7888 45.7439 88.4221 43.5049 95.4324C39.8592 94.4307 36.2192 93.4288 32.543 92.4235C34.4317 85.3413 35.0079 78.1684 36.636 70.6372C42.6501 71.5218 48.2894 73.093 53.8513 75.2333Z" fill="#63BA68"/>
<path fill-rule="evenodd" clip-rule="evenodd" d="M53.7165 74.8749C49.5303 81.428 45.4239 88.0931 43.1103 95.191L43.8123 95.3799L44.0202 94.7418C40.3075 93.7415 36.6001 92.741 32.8555 91.7369L32.6484 92.3752L33.359 92.535C34.3304 88.9632 34.9608 85.3833 35.556 81.7641C36.1511 78.1446 36.711 74.4856 37.5345 70.7506L36.8168 70.6197L36.7021 71.277C42.7643 72.1515 48.4487 73.7036 54.0688 75.8241L54.3493 75.2093L53.7165 74.8749L54.3493 75.2093L54.6299 74.5945C48.9211 72.4404 43.1192 70.8546 36.9316 69.9623L36.2372 69.8623L36.0991 70.4889C35.2646 74.2743 34.7019 77.9571 34.1082 81.5671C33.5147 85.1775 32.8899 88.7149 31.9378 92.2155L31.7695 92.8335L32.4413 93.0136C36.1844 94.0173 39.8912 95.0177 43.6043 96.018L44.3061 96.2072L44.514 95.5689C46.0606 90.8177 48.457 86.2182 51.1638 81.68C52.3897 79.6248 53.6792 77.5822 54.9824 75.5437L55.4024 74.8861L54.6299 74.5945L54.3493 75.2093L53.7165 74.8749Z" fill="#008437"/>
<path d="M43.0296 79.0333C46.3602 79.9203 48.0528 82.5631 46.9113 84.7613C45.7614 86.9709 42.8348 88.1924 40.1889 87.4819C37.5564 86.7635 35.6863 84.2941 36.0848 81.9201C36.4926 79.5574 39.6966 78.1656 43.0296 79.0333Z" fill="#008437"/>
<path d="M32.543 92.3131C33.5417 92.5786 34.5355 92.8428 35.5283 93.1079C35.9978 91.6302 34.976 90.0681 33.2357 89.6211C33.0284 90.5219 32.8002 91.4195 32.543 92.3131Z" fill="#008437"/>
<path d="M40.3717 81.9009C39.9414 81.8194 39.6438 82.0751 39.4823 82.6611C39.3178 83.2508 39.4303 83.5946 39.8114 83.6953C40.0454 83.7559 40.2426 83.7075 40.4025 83.5462C40.5669 83.3853 40.8014 83.0381 41.1191 82.5034C41.4354 81.9691 41.8038 81.6105 42.2258 81.432C42.6459 81.2543 43.1285 81.2374 43.6628 81.3859C44.2838 81.5593 44.6817 81.9088 44.8419 82.4236C45.0051 82.9379 44.9654 83.4629 44.7429 84.0021C44.2028 85.3014 43.3099 85.8702 42.0524 85.7248C42.143 85.3505 42.2349 84.9769 42.3264 84.6029C42.9982 84.7003 43.4638 84.4033 43.7337 83.7082C43.9868 83.0571 43.8312 82.649 43.2607 82.4908C43.009 82.4214 42.793 82.4491 42.6139 82.5762C42.4356 82.7025 42.1689 83.042 41.8296 83.5946C41.4894 84.1461 41.1367 84.5145 40.7704 84.7008C40.4031 84.8863 40.0131 84.9229 39.5886 84.811C39.1373 84.6899 38.7955 84.4187 38.5639 83.9946C38.3318 83.5713 38.2908 83.0332 38.4546 82.3803C38.7737 81.0843 39.518 80.5353 40.6533 80.7592C40.5588 81.1399 40.4655 81.5204 40.3717 81.9009Z" fill="#63BA68"/>
<path d="M38.7411 82.1323C38.6462 82.4336 38.5509 82.7348 38.4578 83.0348C38.0377 82.9488 37.616 82.8634 37.1914 82.7789C37.2756 82.4771 37.3598 82.1755 37.4422 81.8726C37.8795 81.9589 38.3125 82.0453 38.7411 82.1323Z" fill="#63BA68"/>
<path d="M45.7138 83.7174C45.5696 84.0066 45.4267 84.2955 45.2854 84.5846C44.9104 84.4881 44.5371 84.3934 44.1641 84.2997C44.2954 84.0072 44.4288 83.7149 44.5641 83.4224C44.946 83.5199 45.3291 83.6178 45.7138 83.7174Z" fill="#63BA68"/>
<path d="M43.5982 95.4324C43.8958 94.4388 44.2148 93.4515 44.5539 92.4701C42.8987 91.9662 41.1573 92.8948 40.6797 94.5451C41.6517 94.8409 42.6248 95.1369 43.5982 95.4324Z" fill="#008437"/>
<path fill-rule="evenodd" clip-rule="evenodd" d="M54.6271 74.9812C52.9015 74.3938 51.1748 73.8498 49.4354 73.3491C48.5951 74.9289 50.1042 76.7711 52.837 77.6108C53.4342 76.7333 54.0352 75.8568 54.6271 74.9812Z" fill="#008437"/>
<path d="M36.6096 70.6372C36.4069 71.6407 36.2141 72.6364 36.0312 73.626C38.5784 74.0602 40.9291 73.1867 41.4552 71.5188C39.8614 71.1753 38.2456 70.8803 36.6096 70.6372Z" fill="#008437"/>
<path d="M39.5848 89.2765C40.1081 89.4346 40.4047 89.9753 40.2529 90.4852C40.0999 90.9945 39.5684 91.2838 39.0604 91.1295C38.5521 90.9757 38.2526 90.4359 38.388 89.922C38.5259 89.4088 39.0614 89.1198 39.5848 89.2765Z" fill="#008437"/>
<path d="M44.5468 75.742C45.3992 75.9431 45.8905 76.5158 45.6597 77.0078C45.4259 77.4989 44.5912 77.7339 43.7846 77.5468C42.9811 77.3587 42.4703 76.8081 42.655 76.3032C42.8449 75.8006 43.6945 75.5412 44.5468 75.742Z" fill="#008437"/>
<path fill-rule="evenodd" clip-rule="evenodd" d="M51.5261 71.7371C48.4479 78.7725 45.4872 85.8704 44.3437 93.108C40.5476 92.6 36.7563 92.0912 32.9297 91.5851C33.7117 84.3238 33.1691 77.1463 33.6218 69.4751C39.7637 69.551 45.6394 70.3582 51.5261 71.7371Z" fill="#63BA68"/>
<path fill-rule="evenodd" clip-rule="evenodd" d="M51.0216 71.3597C47.9167 78.3267 44.9061 85.393 43.7357 92.6528L44.4592 92.7477L44.5645 92.0949C40.7379 91.5926 36.9155 91.0892 33.0568 90.5884L32.9528 91.2411L33.6803 91.3062C34.0783 87.6782 34.1381 84.0859 34.1571 80.4597C34.1759 76.8334 34.1537 73.1729 34.3804 69.4038L33.6505 69.3681L33.6406 70.0276C37.726 70.0772 43.5197 70.5212 51.0216 71.3597L51.6998 71.6058L51.8802 70.9667C45.8994 69.5918 39.9156 68.7844 33.6603 68.7087L32.9583 68.7002L32.9204 69.3324C32.6909 73.1524 32.714 76.8366 32.6951 80.4535C32.6764 84.0709 32.6156 87.6206 32.2253 91.1762L32.1562 91.8041L32.8488 91.894C36.7053 92.3946 40.5269 92.8978 44.3538 93.4003L45.0775 93.4954L45.1826 92.8424C46.3178 85.7823 49.2765 78.8051 52.3779 71.8518L52.6898 71.1527L51.8802 70.9667L51.6998 71.6058L51.0216 71.3597Z" fill="#008437"/>
<path d="M32.9297 91.5517C33.9564 91.683 34.9798 91.8142 36.0022 91.9456C36.231 90.4503 34.9743 89.0609 33.186 88.8462C33.1242 89.7477 33.0418 90.6495 32.9297 91.5517Z" fill="#008437"/>
<path d="M44.0291 93.1082C44.1836 92.0837 44.3576 91.062 44.5532 90.0438C42.8724 89.7883 41.3041 90.9598 41.0664 92.6594C42.0537 92.8088 43.0426 92.9579 44.0291 93.1082Z" fill="#008437"/>
<path fill-rule="evenodd" clip-rule="evenodd" d="M51.5248 71.2653C49.8744 70.8829 48.2295 70.5436 46.5806 70.25C46.0705 71.9408 47.7241 73.6099 50.3238 74.1242C50.7248 73.1697 51.1283 72.2164 51.5248 71.2653Z" fill="#008437"/>
<path fill-rule="evenodd" clip-rule="evenodd" d="M33.4343 69.0874C33.3846 70.1279 33.3459 71.1589 33.3164 72.1822C35.8983 72.2706 38.086 71.0672 38.3529 69.3123C36.7268 69.1843 35.0862 69.1076 33.4343 69.0874Z" fill="#008437"/>
<path d="M39.0641 87.3067C39.6029 87.386 39.971 87.8788 39.8911 88.4073C39.8107 88.9348 39.327 89.301 38.8027 89.2231C38.2804 89.1461 37.9095 88.6547 37.9716 88.1246C38.0368 87.5953 38.5254 87.2293 39.0641 87.3067Z" fill="#008437"/>
<path fill-rule="evenodd" clip-rule="evenodd" d="M26.3438 86.4783C26.3438 86.4783 26.4944 84.0666 30.7359 84.2028C34.9777 84.3393 39.4993 86.0231 43.4671 86.1943C49.1521 86.4393 54.2383 84.8951 54.2383 84.8951L47.3719 94.2703H32.9141L26.3438 86.4783Z" fill="#9BC3D3"/>
<path fill-rule="evenodd" clip-rule="evenodd" d="M55.7607 108.569C53.6483 103.789 50.4002 98.7939 47.4058 94.27H32.9395C29.978 98.7939 26.9904 103.852 24.6509 108.569C19.6601 118.634 22.5043 121.951 28.3611 124.329C32.7055 126.092 47.7054 126.092 52.0499 124.329C57.9076 121.951 59.3844 116.77 55.7607 108.569Z" fill="#9BC3D3"/>
<path fill-rule="evenodd" clip-rule="evenodd" d="M48.813 94.6332C48.813 94.8605 48.5222 95.0451 48.1642 95.0451H32.0285C31.6693 95.0451 31.3789 94.8605 31.3789 94.6332V94.2947C31.3789 94.0674 31.6693 93.8828 32.0285 93.8828H48.1642C48.5222 93.8828 48.813 94.0674 48.813 94.2947V94.6332Z" fill="#DEEDF2"/>
<mask id="mask0_1557_8761" style="mask-type:luminance" maskUnits="userSpaceOnUse" x="34" y="102" width="11" height="17">
<path fill-rule="evenodd" clip-rule="evenodd" d="M34.6055 102.038L44.702 102.214L44.4101 118.933L34.3136 118.757L34.6055 102.038Z" fill="white"/>
</mask>
<g mask="url(#mask0_1557_8761)">
<path fill-rule="evenodd" clip-rule="evenodd" d="M41.1274 105.277C41.467 105.563 41.6432 105.966 41.6578 106.486L41.6671 106.851C41.8696 106.874 42.0668 106.883 42.2588 106.879C42.4611 106.876 42.657 106.851 42.8479 106.804C43.0399 106.758 43.211 106.687 43.3624 106.593C43.5132 106.499 43.6357 106.382 43.7282 106.241C43.8206 106.101 43.8636 105.931 43.8583 105.731C43.8475 105.306 43.6965 104.966 43.4058 104.71C43.1158 104.454 42.7613 104.259 42.3444 104.123C41.9275 103.987 41.4873 103.899 41.025 103.859C40.562 103.82 40.1579 103.799 39.8113 103.796L39.7818 102.129L38.6453 102.266L38.6876 103.854C38.1128 103.916 37.5675 104.032 37.0518 104.202C36.538 104.372 36.0889 104.603 35.7077 104.896C35.3258 105.19 35.0251 105.551 34.8055 105.98C34.5865 106.41 34.4839 106.911 34.4996 107.484C34.5146 108.057 34.648 108.55 34.8989 108.962C35.1505 109.374 35.4797 109.734 35.8872 110.039C36.294 110.345 36.7606 110.606 37.2853 110.822C37.8105 111.039 38.3549 111.238 38.9173 111.419L39.0456 116.263C38.323 116.232 37.7728 116.057 37.3942 115.738C37.0156 115.419 36.8176 114.934 36.8001 114.283L36.7904 113.906C36.5873 113.882 36.3852 113.873 36.1835 113.877C35.9715 113.88 35.7688 113.908 35.5724 113.959C35.3766 114.01 35.203 114.085 35.0516 114.183C34.9001 114.281 34.7812 114.405 34.6934 114.554C34.6063 114.704 34.5657 114.878 34.571 115.078C34.5834 115.555 34.7526 115.936 35.0775 116.222C35.4024 116.507 35.7924 116.724 36.2481 116.872C36.7044 117.021 37.1811 117.116 37.6769 117.16C38.1732 117.203 38.5994 117.222 38.9552 117.215L39.0704 117.214L39.128 118.841L40.1616 118.627L40.1214 117.129C40.7251 117.05 41.2988 116.914 41.8416 116.722C42.3851 116.53 42.8571 116.275 43.257 115.955C43.657 115.635 43.9709 115.248 44.2001 114.792C44.428 114.337 44.5342 113.801 44.518 113.184C44.5028 112.62 44.3682 112.136 44.111 111.732C43.8556 111.329 43.5164 110.981 43.0954 110.688C42.6743 110.396 42.1917 110.144 41.6475 109.932C41.1033 109.72 40.535 109.524 39.9446 109.343L39.8367 104.747C40.3576 104.815 40.7879 104.992 41.1274 105.277ZM36.5938 106.744C36.6031 107.074 36.6703 107.359 36.7974 107.6C36.9233 107.841 37.0899 108.051 37.2972 108.23C37.5039 108.409 37.7408 108.563 38.0093 108.693C38.2777 108.823 38.5573 108.942 38.848 109.05L38.7203 104.765C38.4131 104.806 38.1292 104.878 37.8679 104.983C37.6054 105.087 37.3808 105.223 37.1928 105.391C37.0049 105.56 36.856 105.756 36.7464 105.979C36.6373 106.203 36.5863 106.458 36.5938 106.744ZM42.3806 113.912C42.3722 113.599 42.3005 113.327 42.1641 113.095C42.0278 112.863 41.8501 112.66 41.6287 112.486C41.4073 112.311 41.1532 112.161 40.8664 112.036C40.5791 111.911 40.2853 111.799 39.9841 111.7L40.0894 116.206C40.4151 116.148 40.7207 116.053 41.0061 115.923C41.291 115.792 41.5361 115.629 41.7434 115.434C41.9489 115.24 42.1091 115.015 42.2229 114.762C42.3367 114.507 42.3883 114.224 42.3806 113.912Z" fill="#DEEDF2"/>
</g>
<path fill-rule="evenodd" clip-rule="evenodd" d="M104.452 17.8171C103.816 12.6496 99.4118 8.64893 94.0739 8.64893C88.299 8.64893 83.6173 13.3318 83.6173 19.1087C83.6173 20.0565 83.7432 20.9748 83.9795 21.8478C83.8908 21.8489 83.8027 21.8521 83.7152 21.8572L83.6168 21.8491V21.8637C80.6217 22.0888 78.2608 24.5914 78.2608 27.6453C78.2608 30.6992 80.6217 33.2017 83.6168 33.4268V33.4441H121.688V33.4435H121.688C124.022 33.4435 125.914 31.5507 125.914 29.2161C125.914 26.8816 124.022 24.989 121.688 24.989H121.688V24.9888L112.043 24.1934C112.087 23.9052 112.11 23.61 112.11 23.3096C112.11 20.1075 109.515 17.5116 106.314 17.5116C105.662 17.5116 105.036 17.619 104.452 17.8171Z" fill="#CEDEE7"/>
<path fill-rule="evenodd" clip-rule="evenodd" d="M80.7649 31.2665C80.2994 27.4717 77.0768 24.5337 73.1711 24.5337C68.9455 24.5337 65.5199 27.9727 65.5199 32.2151C65.5199 32.9111 65.612 33.5855 65.7849 34.2266C65.72 34.2274 65.6556 34.2298 65.5915 34.2335L65.5195 34.2276V34.2383C63.328 34.4036 61.6005 36.2414 61.6005 38.4841C61.6005 40.7268 63.328 42.5646 65.5195 42.7299V42.7426H93.3767V42.7422H93.3768C95.0844 42.7422 96.4688 41.3522 96.4688 39.6377C96.4688 37.9233 95.0844 36.5334 93.3768 36.5334H93.3767V36.5333L86.319 35.9491C86.3512 35.7375 86.3679 35.5208 86.3679 35.3001C86.3679 32.9486 84.4692 31.0422 82.1269 31.0422C81.6505 31.0422 81.1924 31.1211 80.7649 31.2665Z" fill="#DEEDF2"/>
<path fill-rule="evenodd" clip-rule="evenodd" d="M17.0424 29.4723C17.5131 25.5967 20.7714 22.5962 24.7206 22.5962C28.9931 22.5962 32.4568 26.1084 32.4568 30.441C32.4568 31.1518 32.3636 31.8406 32.1888 32.4953C32.2545 32.4962 32.3196 32.4986 32.3844 32.5024L32.4572 32.4963V32.5073C34.6731 32.6761 36.4197 34.553 36.4197 36.8434C36.4197 39.1339 34.6731 41.0108 32.4572 41.1796V41.1926H4.29042V41.1921H4.29033C2.56382 41.1921 1.16406 39.7725 1.16406 38.0216C1.16406 36.2707 2.56382 34.8513 4.29033 34.8513H4.29042V34.8511L11.4266 34.2545C11.394 34.0384 11.3771 33.817 11.3771 33.5917C11.3771 31.1901 13.2969 29.2432 15.6652 29.2432C16.147 29.2432 16.6102 29.3237 17.0424 29.4723Z" fill="#DEEDF2"/>
<path fill-rule="evenodd" clip-rule="evenodd" d="M26.7336 128.751C26.7336 129.179 24.9118 129.526 22.6655 129.526C20.4185 129.526 18.5977 129.179 18.5977 128.751C18.5977 128.323 20.4185 127.976 22.6655 127.976C24.9118 127.976 26.7336 128.323 26.7336 128.751Z" fill="#D39E00"/>
<path fill-rule="evenodd" clip-rule="evenodd" d="M36.4211 128.751C36.4211 129.179 34.5993 129.526 32.353 129.526C30.106 129.526 28.2852 129.179 28.2852 128.751C28.2852 128.323 30.106 127.976 32.353 127.976C34.5993 127.976 36.4211 128.323 36.4211 128.751Z" fill="#D39E00"/>
<path fill-rule="evenodd" clip-rule="evenodd" d="M18.5977 128.751H26.7336V127.588H18.5977V128.751Z" fill="#D39E00"/>
<path fill-rule="evenodd" clip-rule="evenodd" d="M28.2852 128.751H36.4211V127.588H28.2852V128.751Z" fill="#D39E00"/>
<path fill-rule="evenodd" clip-rule="evenodd" d="M26.7336 127.588C26.7336 128.016 24.9118 128.363 22.6655 128.363C20.4185 128.363 18.5977 128.016 18.5977 127.588C18.5977 127.16 20.4185 126.813 22.6655 126.813C24.9118 126.813 26.7336 127.16 26.7336 127.588Z" fill="#F6C854"/>
<path fill-rule="evenodd" clip-rule="evenodd" d="M36.4211 127.588C36.4211 128.016 34.5993 128.363 32.353 128.363C30.106 128.363 28.2852 128.016 28.2852 127.588C28.2852 127.16 30.106 126.813 32.353 126.813C34.5993 126.813 36.4211 127.16 36.4211 127.588Z" fill="#F6C854"/>
<path fill-rule="evenodd" clip-rule="evenodd" d="M26.7336 126.813C26.7336 127.241 24.9118 127.588 22.6655 127.588C20.4185 127.588 18.5977 127.241 18.5977 126.813C18.5977 126.386 20.4185 126.039 22.6655 126.039C24.9118 126.039 26.7336 126.386 26.7336 126.813Z" fill="#D39E00"/>
<path fill-rule="evenodd" clip-rule="evenodd" d="M36.4211 126.813C36.4211 127.241 34.5993 127.588 32.353 127.588C30.106 127.588 28.2852 127.241 28.2852 126.813C28.2852 126.386 30.106 126.039 32.353 126.039C34.5993 126.039 36.4211 126.386 36.4211 126.813Z" fill="#D39E00"/>
<path fill-rule="evenodd" clip-rule="evenodd" d="M18.5977 126.814H26.7336V125.651H18.5977V126.814Z" fill="#D39E00"/>
<path fill-rule="evenodd" clip-rule="evenodd" d="M28.2852 126.814H36.4211V125.651H28.2852V126.814Z" fill="#D39E00"/>
<path fill-rule="evenodd" clip-rule="evenodd" d="M26.7336 125.651C26.7336 126.079 24.9118 126.426 22.6655 126.426C20.4185 126.426 18.5977 126.079 18.5977 125.651C18.5977 125.223 20.4185 124.876 22.6655 124.876C24.9118 124.876 26.7336 125.223 26.7336 125.651Z" fill="#F6C854"/>
<path fill-rule="evenodd" clip-rule="evenodd" d="M36.4211 125.651C36.4211 126.079 34.5993 126.426 32.353 126.426C30.106 126.426 28.2852 126.079 28.2852 125.651C28.2852 125.223 30.106 124.876 32.353 124.876C34.5993 124.876 36.4211 125.223 36.4211 125.651Z" fill="#F6C854"/>
<path fill-rule="evenodd" clip-rule="evenodd" d="M26.7336 125.264C26.7336 125.692 24.9118 126.039 22.6655 126.039C20.4185 126.039 18.5977 125.692 18.5977 125.264C18.5977 124.837 20.4185 124.489 22.6655 124.489C24.9118 124.489 26.7336 124.837 26.7336 125.264Z" fill="#D39E00"/>
<path fill-rule="evenodd" clip-rule="evenodd" d="M36.4211 125.264C36.4211 125.692 34.5993 126.039 32.353 126.039C30.106 126.039 28.2852 125.692 28.2852 125.264C28.2852 124.837 30.106 124.489 32.353 124.489C34.5993 124.489 36.4211 124.837 36.4211 125.264Z" fill="#D39E00"/>
<path fill-rule="evenodd" clip-rule="evenodd" d="M18.5977 125.264H26.7336V124.102H18.5977V125.264Z" fill="#D39E00"/>
<path fill-rule="evenodd" clip-rule="evenodd" d="M28.2852 125.264H36.4211V124.102H28.2852V125.264Z" fill="#D39E00"/>
<path fill-rule="evenodd" clip-rule="evenodd" d="M26.7336 124.101C26.7336 124.529 24.9118 124.876 22.6655 124.876C20.4185 124.876 18.5977 124.529 18.5977 124.101C18.5977 123.674 20.4185 123.327 22.6655 123.327C24.9118 123.327 26.7336 123.674 26.7336 124.101Z" fill="#F6C854"/>
<path fill-rule="evenodd" clip-rule="evenodd" d="M36.4211 124.101C36.4211 124.529 34.5993 124.876 32.353 124.876C30.106 124.876 28.2852 124.529 28.2852 124.101C28.2852 123.674 30.106 123.327 32.353 123.327C34.5993 123.327 36.4211 123.674 36.4211 124.101Z" fill="#F6C854"/>
<path fill-rule="evenodd" clip-rule="evenodd" d="M26.7336 123.326C26.7336 123.754 24.9118 124.101 22.6655 124.101C20.4185 124.101 18.5977 123.754 18.5977 123.326C18.5977 122.899 20.4185 122.552 22.6655 122.552C24.9118 122.552 26.7336 122.899 26.7336 123.326Z" fill="#D39E00"/>
<path fill-rule="evenodd" clip-rule="evenodd" d="M36.4211 123.326C36.4211 123.754 34.5993 124.101 32.353 124.101C30.106 124.101 28.2852 123.754 28.2852 123.326C28.2852 122.899 30.106 122.552 32.353 122.552C34.5993 122.552 36.4211 122.899 36.4211 123.326Z" fill="#D39E00"/>
<path fill-rule="evenodd" clip-rule="evenodd" d="M18.5977 123.714H26.7336V122.552H18.5977V123.714Z" fill="#D39E00"/>
<path fill-rule="evenodd" clip-rule="evenodd" d="M28.2852 123.714H36.4211V122.552H28.2852V123.714Z" fill="#D39E00"/>
<path fill-rule="evenodd" clip-rule="evenodd" d="M26.7336 122.164C26.7336 122.592 24.9118 122.939 22.6655 122.939C20.4185 122.939 18.5977 122.592 18.5977 122.164C18.5977 121.737 20.4185 121.39 22.6655 121.39C24.9118 121.39 26.7336 121.737 26.7336 122.164Z" fill="#F6C854"/>
<path fill-rule="evenodd" clip-rule="evenodd" d="M36.4211 122.164C36.4211 122.592 34.5993 122.939 32.353 122.939C30.106 122.939 28.2852 122.592 28.2852 122.164C28.2852 121.737 30.106 121.39 32.353 121.39C34.5993 121.39 36.4211 121.737 36.4211 122.164Z" fill="#F6C854"/>
<path fill-rule="evenodd" clip-rule="evenodd" d="M26.7336 121.777C26.7336 122.205 24.9118 122.552 22.6655 122.552C20.4185 122.552 18.5977 122.205 18.5977 121.777C18.5977 121.35 20.4185 121.002 22.6655 121.002C24.9118 121.002 26.7336 121.35 26.7336 121.777Z" fill="#D39E00"/>
<path fill-rule="evenodd" clip-rule="evenodd" d="M36.4211 121.777C36.4211 122.205 34.5993 122.552 32.353 122.552C30.106 122.552 28.2852 122.205 28.2852 121.777C28.2852 121.35 30.106 121.002 32.353 121.002C34.5993 121.002 36.4211 121.35 36.4211 121.777Z" fill="#D39E00"/>
<path fill-rule="evenodd" clip-rule="evenodd" d="M18.5977 121.777H26.7336V120.615H18.5977V121.777Z" fill="#D39E00"/>
<path fill-rule="evenodd" clip-rule="evenodd" d="M28.2852 121.777H36.4211V120.615H28.2852V121.777Z" fill="#D39E00"/>
<path fill-rule="evenodd" clip-rule="evenodd" d="M26.7336 120.614C26.7336 121.042 24.9118 121.39 22.6655 121.39C20.4185 121.39 18.5977 121.042 18.5977 120.614C18.5977 120.187 20.4185 119.84 22.6655 119.84C24.9118 119.84 26.7336 120.187 26.7336 120.614Z" fill="#F6C854"/>
<path fill-rule="evenodd" clip-rule="evenodd" d="M36.4211 120.614C36.4211 121.042 34.5993 121.39 32.353 121.39C30.106 121.39 28.2852 121.042 28.2852 120.614C28.2852 120.187 30.106 119.84 32.353 119.84C34.5993 119.84 36.4211 120.187 36.4211 120.614Z" fill="#F6C854"/>
<path fill-rule="evenodd" clip-rule="evenodd" d="M26.7336 119.84C26.7336 120.268 24.9118 120.615 22.6655 120.615C20.4185 120.615 18.5977 120.268 18.5977 119.84C18.5977 119.412 20.4185 119.065 22.6655 119.065C24.9118 119.065 26.7336 119.412 26.7336 119.84Z" fill="#D39E00"/>
<path fill-rule="evenodd" clip-rule="evenodd" d="M36.4211 119.84C36.4211 120.268 34.5993 120.615 32.353 120.615C30.106 120.615 28.2852 120.268 28.2852 119.84C28.2852 119.412 30.106 119.065 32.353 119.065C34.5993 119.065 36.4211 119.412 36.4211 119.84Z" fill="#D39E00"/>
<path fill-rule="evenodd" clip-rule="evenodd" d="M18.5977 120.227H26.7336V119.065H18.5977V120.227Z" fill="#D39E00"/>
<path fill-rule="evenodd" clip-rule="evenodd" d="M28.2852 120.227H36.4211V119.065H28.2852V120.227Z" fill="#D39E00"/>
<path fill-rule="evenodd" clip-rule="evenodd" d="M26.7336 118.677C26.7336 119.105 24.9118 119.453 22.6655 119.453C20.4185 119.453 18.5977 119.105 18.5977 118.677C18.5977 118.25 20.4185 117.903 22.6655 117.903C24.9118 117.903 26.7336 118.25 26.7336 118.677Z" fill="#F6C854"/>
<path fill-rule="evenodd" clip-rule="evenodd" d="M36.4211 118.677C36.4211 119.105 34.5993 119.453 32.353 119.453C30.106 119.453 28.2852 119.105 28.2852 118.677C28.2852 118.25 30.106 117.903 32.353 117.903C34.5993 117.903 36.4211 118.25 36.4211 118.677Z" fill="#F6C854"/>
<path fill-rule="evenodd" clip-rule="evenodd" d="M26.7336 118.29C26.7336 118.718 24.9118 119.065 22.6655 119.065C20.4185 119.065 18.5977 118.718 18.5977 118.29C18.5977 117.863 20.4185 117.516 22.6655 117.516C24.9118 117.516 26.7336 117.863 26.7336 118.29Z" fill="#D39E00"/>
<path fill-rule="evenodd" clip-rule="evenodd" d="M36.4211 118.29C36.4211 118.718 34.5993 119.065 32.353 119.065C30.106 119.065 28.2852 118.718 28.2852 118.29C28.2852 117.863 30.106 117.516 32.353 117.516C34.5993 117.516 36.4211 117.863 36.4211 118.29Z" fill="#D39E00"/>
<path fill-rule="evenodd" clip-rule="evenodd" d="M18.5977 118.29H26.7336V117.128H18.5977V118.29Z" fill="#D39E00"/>
<path fill-rule="evenodd" clip-rule="evenodd" d="M28.2852 118.29H36.4211V117.128H28.2852V118.29Z" fill="#D39E00"/>
<path fill-rule="evenodd" clip-rule="evenodd" d="M26.7336 117.127C26.7336 117.556 24.9118 117.903 22.6655 117.903C20.4185 117.903 18.5977 117.556 18.5977 117.127C18.5977 116.7 20.4185 116.353 22.6655 116.353C24.9118 116.353 26.7336 116.7 26.7336 117.127Z" fill="#F6C854"/>
<path fill-rule="evenodd" clip-rule="evenodd" d="M36.4211 117.127C36.4211 117.556 34.5993 117.903 32.353 117.903C30.106 117.903 28.2852 117.556 28.2852 117.127C28.2852 116.7 30.106 116.353 32.353 116.353C34.5993 116.353 36.4211 116.7 36.4211 117.127Z" fill="#F6C854"/>
<path fill-rule="evenodd" clip-rule="evenodd" d="M26.7336 116.353C26.7336 116.781 24.9118 117.128 22.6655 117.128C20.4185 117.128 18.5977 116.781 18.5977 116.353C18.5977 115.925 20.4185 115.578 22.6655 115.578C24.9118 115.578 26.7336 115.925 26.7336 116.353Z" fill="#D39E00"/>
<path fill-rule="evenodd" clip-rule="evenodd" d="M18.5977 116.353H26.7336V115.191H18.5977V116.353Z" fill="#D39E00"/>
<path fill-rule="evenodd" clip-rule="evenodd" d="M26.7336 115.19C26.7336 115.619 24.9118 115.966 22.6655 115.966C20.4185 115.966 18.5977 115.619 18.5977 115.19C18.5977 114.763 20.4185 114.416 22.6655 114.416C24.9118 114.416 26.7336 114.763 26.7336 115.19Z" fill="#F6C854"/>
<path fill-rule="evenodd" clip-rule="evenodd" d="M26.7336 114.804C26.7336 115.231 24.9118 115.579 22.6655 115.579C20.4185 115.579 18.5977 115.231 18.5977 114.804C18.5977 114.376 20.4185 114.029 22.6655 114.029C24.9118 114.029 26.7336 114.376 26.7336 114.804Z" fill="#D39E00"/>
<path d="M18.5977 114.416H26.7336V113.254H18.5977V114.416Z" fill="#D39E00"/>
<path fill-rule="evenodd" clip-rule="evenodd" d="M26.7336 113.641C26.7336 114.069 24.9118 114.416 22.6655 114.416C20.4185 114.416 18.5977 114.069 18.5977 113.641C18.5977 113.213 20.4185 112.866 22.6655 112.866C24.9118 112.866 26.7336 113.213 26.7336 113.641Z" fill="#F6C854"/>
<path fill-rule="evenodd" clip-rule="evenodd" d="M26.7336 112.866C26.7336 113.294 24.9118 113.641 22.6655 113.641C20.4185 113.641 18.5977 113.294 18.5977 112.866C18.5977 112.439 20.4185 112.091 22.6655 112.091C24.9118 112.091 26.7336 112.439 26.7336 112.866Z" fill="#D39E00"/>
<path fill-rule="evenodd" clip-rule="evenodd" d="M18.5977 113.254H26.7336V112.091H18.5977V113.254Z" fill="#D39E00"/>
<path fill-rule="evenodd" clip-rule="evenodd" d="M26.7336 111.704C26.7336 112.132 24.9118 112.479 22.6655 112.479C20.4185 112.479 18.5977 112.132 18.5977 111.704C18.5977 111.276 20.4185 110.929 22.6655 110.929C24.9118 110.929 26.7336 111.276 26.7336 111.704Z" fill="#F6C854"/>
<path fill-rule="evenodd" clip-rule="evenodd" d="M26.7336 111.317C26.7336 111.745 24.9118 112.092 22.6655 112.092C20.4185 112.092 18.5977 111.745 18.5977 111.317C18.5977 110.889 20.4185 110.542 22.6655 110.542C24.9118 110.542 26.7336 110.889 26.7336 111.317Z" fill="#D39E00"/>
<path fill-rule="evenodd" clip-rule="evenodd" d="M18.5977 111.317H26.7336V110.154H18.5977V111.317Z" fill="#D39E00"/>
<path fill-rule="evenodd" clip-rule="evenodd" d="M26.7336 110.154C26.7336 110.582 24.9118 110.929 22.6655 110.929C20.4185 110.929 18.5977 110.582 18.5977 110.154C18.5977 109.726 20.4185 109.379 22.6655 109.379C24.9118 109.379 26.7336 109.726 26.7336 110.154Z" fill="#F6C854"/>
<path fill-rule="evenodd" clip-rule="evenodd" d="M26.7336 109.379C26.7336 109.807 24.9118 110.154 22.6655 110.154C20.4185 110.154 18.5977 109.807 18.5977 109.379C18.5977 108.952 20.4185 108.604 22.6655 108.604C24.9118 108.604 26.7336 108.952 26.7336 109.379Z" fill="#D39E00"/>
<path fill-rule="evenodd" clip-rule="evenodd" d="M18.5977 109.38H26.7336V108.217H18.5977V109.38Z" fill="#D39E00"/>
<path fill-rule="evenodd" clip-rule="evenodd" d="M26.7336 108.217C26.7336 108.645 24.9118 108.992 22.6655 108.992C20.4185 108.992 18.5977 108.645 18.5977 108.217C18.5977 107.789 20.4185 107.442 22.6655 107.442C24.9118 107.442 26.7336 107.789 26.7336 108.217Z" fill="#F6C854"/>
</svg>
