<svg width="160" height="160" viewBox="0 0 160 160" fill="none" xmlns="http://www.w3.org/2000/svg">
<path fill-rule="evenodd" clip-rule="evenodd" d="M60.8205 36.098C52.6728 44.7645 41.8782 50.4208 30.1798 52.5468C23.0793 53.8371 16.2852 57.2286 10.7952 62.7215C-3.58427 77.108 -3.6006 100.308 10.7595 114.715C17.0942 121.07 25.1717 124.621 33.4544 125.369C40.5453 126.01 47.2075 129.106 52.1272 134.257C52.1906 134.323 52.2544 134.389 52.3183 134.454C60.7108 143.023 74.2867 143.107 82.7809 134.641C82.8296 134.593 82.8779 134.544 82.9257 134.495C85.1947 132.191 88.4698 131.184 91.6432 131.801C109.736 135.317 129.194 130.063 143.207 116.038C165.598 93.629 165.598 57.2302 143.207 34.8206C120.798 12.3934 84.4669 12.3935 62.0585 34.8209C61.6378 35.2418 61.2251 35.6675 60.8205 36.098Z" fill="#EAF7FE"/>
<path d="M60.9844 71.773C60.9844 71.773 61.2527 69.1332 68.8074 69.3876C76.3627 69.6424 87.3026 67.665 94.3758 67.5092C102.555 67.3295 110.669 68.8146 110.669 68.8146L98.4384 86.3333H72.6871L60.9844 71.773Z" fill="#767676"/>
<path fill-rule="evenodd" clip-rule="evenodd" d="M111.031 51.9157C103.536 63.9846 94.4367 74.8764 90.3509 87.7826C83.6983 85.9386 77.056 84.094 70.3477 82.2431C73.7942 69.2045 74.8456 55.9991 77.8166 42.1338C88.791 43.7624 99.0816 46.655 109.231 50.5954L111.031 51.9157Z" fill="#63BA68"/>
<path fill-rule="evenodd" clip-rule="evenodd" d="M110.419 50.3705C102.639 62.0857 95.0067 74.0012 90.7067 86.6904L92.0114 87.0281L92.3978 85.8875C85.4974 84.0991 78.6069 82.3105 71.6473 80.5154L71.2623 81.6565L72.583 81.9422C74.3884 75.5568 75.5601 69.1567 76.6664 62.6865C77.7724 56.2158 78.813 49.6745 80.3435 42.9971L79.0098 42.7631L78.7965 43.9383C90.0635 45.5017 100.629 48.2765 111.074 52.0674L111.595 50.9683L110.419 50.3705L111.595 50.9683L112.117 49.8692C101.507 46.0181 90.7232 43.1831 79.223 41.588L77.9325 41.4092L77.6757 42.5294C76.1248 49.2968 75.079 55.8806 73.9756 62.3344C72.8724 68.7889 71.7113 75.1129 69.9417 81.371L69.6289 82.4758L70.8774 82.7979C77.8344 84.5922 84.7237 86.3806 91.6247 88.169L92.9292 88.5072L93.3156 87.3661C96.1901 78.8721 100.644 70.6494 105.675 62.5363C107.953 58.8621 110.35 55.2103 112.772 51.5661L113.553 50.3904L112.117 49.8692L111.595 50.9683L110.419 50.3705Z" fill="#008437"/>
<path d="M90.8242 58.5607C96.8009 60.2196 99.8382 65.1624 97.7898 69.2736C95.7264 73.4061 90.4746 75.6907 85.7265 74.3618C81.0024 73.0183 77.6466 68.3998 78.3618 63.9597C79.0935 59.541 84.8431 56.9379 90.8242 58.5607Z" fill="#008437"/>
<path d="M71.7852 83.0034C73.1773 83.3895 74.5627 83.7738 75.9465 84.1595C76.6009 82.01 75.1767 79.7377 72.7507 79.0874C72.4618 80.3978 72.1438 81.7034 71.7852 83.0034Z" fill="#008437"/>
<path d="M85.835 62.4749C84.9882 62.3225 84.4025 62.8008 84.0847 63.8967C83.7609 64.9997 83.9823 65.6427 84.7324 65.831C85.1928 65.9444 85.5808 65.8538 85.8955 65.5521C86.2191 65.2512 86.6806 64.6019 87.3058 63.6018C87.9283 62.6026 88.6532 61.9319 89.4836 61.5981C90.3104 61.2656 91.26 61.234 92.3115 61.5119C93.5336 61.8361 94.3166 62.4897 94.6319 63.4525C94.953 64.4144 94.8749 65.3964 94.437 66.4048C93.3743 68.8349 91.617 69.8987 89.1424 69.6266C89.3206 68.9266 89.5016 68.2279 89.6816 67.5284C91.0037 67.7107 91.9199 67.155 92.4511 65.8552C92.9492 64.6374 92.643 63.8742 91.5203 63.5782C91.025 63.4484 90.5999 63.5003 90.2475 63.738C89.8966 63.9741 89.3717 64.6091 88.704 65.6427C88.0344 66.6741 87.3405 67.3631 86.6195 67.7115C85.8967 68.0585 85.1292 68.1269 84.2939 67.9177C83.4057 67.6912 82.7331 67.1839 82.2773 66.3908C81.8206 65.599 81.74 64.5926 82.0623 63.3715C82.6902 60.9477 84.155 59.921 86.389 60.3396C86.2032 61.0518 86.0196 61.7633 85.835 62.4749Z" fill="#63BA68"/>
<path d="M83.3099 64.195C83.1336 64.5706 82.9563 64.9462 82.7833 65.3203C82.0027 65.213 81.2187 65.1065 80.4297 65.0012C80.5862 64.6249 80.7427 64.2488 80.8958 63.8711C81.7087 63.9787 82.5134 64.0864 83.3099 64.195Z" fill="#63BA68"/>
<path d="M96.267 67.1374C95.999 67.4979 95.7335 67.8582 95.4708 68.2187C94.7738 68.0983 94.0801 67.9803 93.3867 67.8635C93.6308 67.4987 93.8787 67.1343 94.1301 66.7695C94.84 66.8912 95.5521 67.0133 96.267 67.1374Z" fill="#63BA68"/>
<path d="M91.0694 87.7826C91.5672 86.3889 92.1008 85.0039 92.668 83.6274C89.8994 82.9205 86.9863 84.223 86.1875 86.5379C87.8134 86.9529 89.4411 87.368 91.0694 87.7826Z" fill="#008437"/>
<path fill-rule="evenodd" clip-rule="evenodd" d="M112.832 50.4276C109.396 49.5288 105.958 48.6963 102.494 47.9302C100.82 50.3476 103.826 53.1665 109.267 54.4514C110.457 53.1087 111.654 51.7675 112.832 50.4276Z" fill="#008437"/>
<path d="M77.2572 42.8584C76.8535 44.266 76.4696 45.6627 76.1055 47.0508C81.1777 47.6598 85.8587 46.4345 86.9064 44.095C83.7327 43.6131 80.5151 43.1994 77.2572 42.8584Z" fill="#008437"/>
<path d="M83.695 77.702C84.4731 77.9384 84.9141 78.7475 84.6884 79.5104C84.461 80.2724 83.6707 80.7052 82.9153 80.4744C82.1596 80.2443 81.7142 79.4367 81.9156 78.6677C82.1206 77.8998 82.9169 77.4674 83.695 77.702Z" fill="#008437"/>
<path d="M94.6389 52.3798C95.8272 52.6808 96.512 53.5375 96.1902 54.2737C95.8644 55.0085 94.7009 55.3601 93.5766 55.0803C92.4565 54.7988 91.7445 53.9749 92.0019 53.2195C92.2666 52.4675 93.4509 52.0794 94.6389 52.3798Z" fill="#008437"/>
<path fill-rule="evenodd" clip-rule="evenodd" d="M92.557 84.1596C85.6488 83.2408 78.7491 82.3204 71.7852 81.4048C73.2082 68.2696 72.2209 55.2858 73.0447 41.4092C80.7614 41.504 90.2865 40.873 97.7074 42.1338C101.035 42.6992 102.311 44.7287 105.628 45.5009C98.3014 62.5452 93.9444 75.4314 92.557 84.1596Z" fill="#63BA68"/>
<path fill-rule="evenodd" clip-rule="evenodd" d="M104.806 44.1315C99.2532 56.9582 93.8688 69.9675 91.7756 83.333L93.0696 83.5076L93.2579 82.3059C86.4142 81.381 79.5781 80.4543 72.6771 79.5323L72.491 80.734L73.7921 80.8537C74.5038 74.1745 74.6109 67.561 74.6448 60.8851C74.6784 54.2089 74.6388 47.4698 75.0443 40.5307L73.7388 40.465L73.721 41.6791C81.0276 41.7705 91.3893 42.5879 104.806 44.1315L106.019 44.5847L106.342 43.4081C95.6453 40.8768 84.9437 39.3904 73.7563 39.2511L72.5008 39.2354L72.4331 40.3993C72.0227 47.432 72.0639 54.2147 72.0301 60.8736C71.9967 67.5333 71.888 74.0684 71.1899 80.6145L71.0664 81.7705L72.3049 81.9359C79.2022 82.8575 86.0369 83.7839 92.8811 84.7091L94.1754 84.8842L94.3633 83.6819C96.3937 70.684 101.685 57.8389 107.232 45.0377L107.79 43.7504L106.342 43.4081L106.019 44.5847L104.806 44.1315Z" fill="#008437"/>
<path d="M71.7852 81.4332C73.2163 81.6174 74.6429 81.8015 76.0681 81.9857C76.387 79.8883 74.6352 77.9393 72.1425 77.6382C72.0563 78.9027 71.9414 80.1677 71.7852 81.4332Z" fill="#008437"/>
<path d="M91.9117 84.1595C92.135 82.7225 92.3866 81.2894 92.6693 79.8611C90.2395 79.5027 87.9726 81.146 87.6289 83.5301C89.0561 83.7395 90.4856 83.9488 91.9117 84.1595Z" fill="#008437"/>
<path fill-rule="evenodd" clip-rule="evenodd" d="M96.6286 41.4092C95.6806 44.2551 99.2855 47.0647 104.117 47.9304C104.863 46.3238 105.612 45.1839 106.349 43.5829C103.282 42.9393 99.6934 41.9033 96.6286 41.4092Z" fill="#008437"/>
<path fill-rule="evenodd" clip-rule="evenodd" d="M72.7269 39.96C72.6345 41.4195 72.5627 42.8656 72.5078 44.3011C77.3065 44.425 81.3725 42.737 81.8686 40.2755C78.8463 40.0959 75.7972 39.9884 72.7269 39.96Z" fill="#008437"/>
<path fill-rule="evenodd" clip-rule="evenodd" d="M60.9844 71.7602C60.9844 71.7602 61.2527 67.2498 68.8074 67.5045C76.3627 67.7598 84.4162 70.909 91.4835 71.2291C101.609 71.6873 110.669 68.7993 110.669 68.7993L98.4384 86.3333H72.6871L60.9844 71.7602Z" fill="#9BC3D3"/>
<path fill-rule="evenodd" clip-rule="evenodd" d="M112.859 111.692C109.018 102.973 103.113 93.8608 97.6681 85.6089H71.3659C65.9813 93.8608 60.5493 103.088 56.2957 111.692C47.2216 130.051 52.3928 136.101 63.0414 140.438C70.9405 143.655 98.2129 143.655 106.112 140.438C116.762 136.101 119.447 126.65 112.859 111.692Z" fill="#9BC3D3"/>
<path fill-rule="evenodd" clip-rule="evenodd" d="M99.8702 85.8199C99.8702 86.1033 99.3417 86.3334 98.691 86.3334H69.368C68.7152 86.3334 68.1875 86.1033 68.1875 85.8199V85.3978C68.1875 85.1144 68.7152 84.8843 69.368 84.8843H98.691C99.3417 84.8843 99.8702 85.1144 99.8702 85.3978V85.8199Z" fill="#DEEDF2"/>
<path fill-rule="evenodd" clip-rule="evenodd" d="M92.6312 125.643C91.5571 126.375 89.7553 127.107 87.4678 127.107C84.6607 127.107 82.1654 126.027 80.4329 124.004C79.1157 122.539 78.2495 120.517 77.9371 118.006H75.7891V116.297H77.7638V115.775C77.7638 115.217 77.7991 114.693 77.8335 114.206H75.7891V112.462H78.0761C78.4921 110.021 79.5312 107.998 80.9181 106.569C82.6855 104.72 84.9377 103.675 87.7796 103.675C89.8245 103.675 91.4182 104.267 92.3886 104.791L91.6956 107.092C90.8289 106.569 89.3737 106.116 87.814 106.116C85.9425 106.116 84.4176 106.778 83.2395 108.034C82.1998 109.044 81.5069 110.614 81.1602 112.462H90.8289V114.206H80.8483C80.8139 114.659 80.7791 115.182 80.7791 115.67V116.297H90.8289V118.006H81.0217C81.2987 120.028 81.9926 121.528 82.9276 122.574C84.2104 123.934 85.9425 124.596 87.814 124.596C89.6507 124.596 91.2448 123.899 92.0423 123.446L92.6312 125.643Z" fill="#DEEDF2"/>
<path fill-rule="evenodd" clip-rule="evenodd" d="M56.7484 141.203C56.7484 142.113 52.9771 142.851 48.3272 142.851C43.6756 142.851 39.9062 142.113 39.9062 141.203C39.9062 140.295 43.6756 139.556 48.3272 139.556C52.9771 139.556 56.7484 140.295 56.7484 141.203Z" fill="#D39E00"/>
<path fill-rule="evenodd" clip-rule="evenodd" d="M76.1546 141.203C76.1546 142.113 72.3834 142.851 67.7334 142.851C63.0819 142.851 59.3125 142.113 59.3125 141.203C59.3125 140.295 63.0819 139.556 67.7334 139.556C72.3834 139.556 76.1546 140.295 76.1546 141.203Z" fill="#D39E00"/>
<path fill-rule="evenodd" clip-rule="evenodd" d="M39.9062 141.387H56.7484V139.19H39.9062V141.387Z" fill="#D39E00"/>
<path fill-rule="evenodd" clip-rule="evenodd" d="M59.3125 141.387H76.1546V139.19H59.3125V141.387Z" fill="#D39E00"/>
<path fill-rule="evenodd" clip-rule="evenodd" d="M56.7484 139.006C56.7484 139.917 52.9771 140.655 48.3272 140.655C43.6756 140.655 39.9062 139.917 39.9062 139.006C39.9062 138.097 43.6756 137.359 48.3272 137.359C52.9771 137.359 56.7484 138.097 56.7484 139.006Z" fill="#F6C854"/>
<path fill-rule="evenodd" clip-rule="evenodd" d="M76.1546 139.006C76.1546 139.917 72.3834 140.655 67.7334 140.655C63.0819 140.655 59.3125 139.917 59.3125 139.006C59.3125 138.097 63.0819 137.359 67.7334 137.359C72.3834 137.359 76.1546 138.097 76.1546 139.006Z" fill="#F6C854"/>
<path fill-rule="evenodd" clip-rule="evenodd" d="M56.7484 137.542C56.7484 138.452 52.9771 139.19 48.3272 139.19C43.6756 139.19 39.9062 138.452 39.9062 137.542C39.9062 136.633 43.6756 135.895 48.3272 135.895C52.9771 135.895 56.7484 136.633 56.7484 137.542Z" fill="#D39E00"/>
<path fill-rule="evenodd" clip-rule="evenodd" d="M76.1546 137.542C76.1546 138.452 72.3834 139.19 67.7334 139.19C63.0819 139.19 59.3125 138.452 59.3125 137.542C59.3125 136.633 63.0819 135.895 67.7334 135.895C72.3834 135.895 76.1546 136.633 76.1546 137.542Z" fill="#D39E00"/>
<path fill-rule="evenodd" clip-rule="evenodd" d="M39.9062 137.359H56.7484V135.163H39.9062V137.359Z" fill="#D39E00"/>
<path fill-rule="evenodd" clip-rule="evenodd" d="M59.3125 137.359H76.1546V135.163H59.3125V137.359Z" fill="#D39E00"/>
<path fill-rule="evenodd" clip-rule="evenodd" d="M56.7484 134.978C56.7484 135.889 52.9771 136.627 48.3272 136.627C43.6756 136.627 39.9062 135.889 39.9062 134.978C39.9062 134.069 43.6756 133.332 48.3272 133.332C52.9771 133.332 56.7484 134.069 56.7484 134.978Z" fill="#F6C854"/>
<path fill-rule="evenodd" clip-rule="evenodd" d="M76.1546 134.978C76.1546 135.889 72.3834 136.627 67.7334 136.627C63.0819 136.627 59.3125 135.889 59.3125 134.978C59.3125 134.069 63.0819 133.332 67.7334 133.332C72.3834 133.332 76.1546 134.069 76.1546 134.978Z" fill="#F6C854"/>
<path fill-rule="evenodd" clip-rule="evenodd" d="M56.7484 134.247C56.7484 135.157 52.9771 135.895 48.3272 135.895C43.6756 135.895 39.9062 135.157 39.9062 134.247C39.9062 133.338 43.6756 132.6 48.3272 132.6C52.9771 132.6 56.7484 133.338 56.7484 134.247Z" fill="#D39E00"/>
<path fill-rule="evenodd" clip-rule="evenodd" d="M76.1546 134.247C76.1546 135.157 72.3834 135.895 67.7334 135.895C63.0819 135.895 59.3125 135.157 59.3125 134.247C59.3125 133.338 63.0819 132.6 67.7334 132.6C72.3834 132.6 76.1546 133.338 76.1546 134.247Z" fill="#D39E00"/>
<path fill-rule="evenodd" clip-rule="evenodd" d="M39.9062 134.064H56.7484V131.867H39.9062V134.064Z" fill="#D39E00"/>
<path fill-rule="evenodd" clip-rule="evenodd" d="M59.3125 134.064H76.1546V131.867H59.3125V134.064Z" fill="#D39E00"/>
<path fill-rule="evenodd" clip-rule="evenodd" d="M56.7484 132.049C56.7484 132.96 52.9771 133.698 48.3272 133.698C43.6756 133.698 39.9062 132.96 39.9062 132.049C39.9062 131.141 43.6756 130.403 48.3272 130.403C52.9771 130.403 56.7484 131.141 56.7484 132.049Z" fill="#F6C854"/>
<path fill-rule="evenodd" clip-rule="evenodd" d="M76.1546 132.049C76.1546 132.96 72.3834 133.698 67.7334 133.698C63.0819 133.698 59.3125 132.96 59.3125 132.049C59.3125 131.141 63.0819 130.403 67.7334 130.403C72.3834 130.403 76.1546 131.141 76.1546 132.049Z" fill="#F6C854"/>
<path fill-rule="evenodd" clip-rule="evenodd" d="M56.7484 130.22C56.7484 131.13 52.9771 131.867 48.3272 131.867C43.6756 131.867 39.9062 131.13 39.9062 130.22C39.9062 129.311 43.6756 128.572 48.3272 128.572C52.9771 128.572 56.7484 129.311 56.7484 130.22Z" fill="#D39E00"/>
<path fill-rule="evenodd" clip-rule="evenodd" d="M76.1546 130.22C76.1546 131.13 72.3834 131.867 67.7334 131.867C63.0819 131.867 59.3125 131.13 59.3125 130.22C59.3125 129.311 63.0819 128.572 67.7334 128.572C72.3834 128.572 76.1546 129.311 76.1546 130.22Z" fill="#D39E00"/>
<path fill-rule="evenodd" clip-rule="evenodd" d="M39.9062 130.769H56.7484V128.572H39.9062V130.769Z" fill="#D39E00"/>
<path fill-rule="evenodd" clip-rule="evenodd" d="M59.3125 130.769H76.1546V128.572H59.3125V130.769Z" fill="#D39E00"/>
<path fill-rule="evenodd" clip-rule="evenodd" d="M56.7484 127.656C56.7484 128.566 52.9771 129.304 48.3272 129.304C43.6756 129.304 39.9062 128.566 39.9062 127.656C39.9062 126.747 43.6756 126.009 48.3272 126.009C52.9771 126.009 56.7484 126.747 56.7484 127.656Z" fill="#F6C854"/>
<path fill-rule="evenodd" clip-rule="evenodd" d="M76.1546 127.656C76.1546 128.566 72.3834 129.304 67.7334 129.304C63.0819 129.304 59.3125 128.566 59.3125 127.656C59.3125 126.747 63.0819 126.009 67.7334 126.009C72.3834 126.009 76.1546 126.747 76.1546 127.656Z" fill="#F6C854"/>
<path fill-rule="evenodd" clip-rule="evenodd" d="M56.7484 126.924C56.7484 127.834 52.9771 128.572 48.3272 128.572C43.6756 128.572 39.9062 127.834 39.9062 126.924C39.9062 126.015 43.6756 125.277 48.3272 125.277C52.9771 125.277 56.7484 126.015 56.7484 126.924Z" fill="#D39E00"/>
<path fill-rule="evenodd" clip-rule="evenodd" d="M76.1546 126.924C76.1546 127.834 72.3834 128.572 67.7334 128.572C63.0819 128.572 59.3125 127.834 59.3125 126.924C59.3125 126.015 63.0819 125.277 67.7334 125.277C72.3834 125.277 76.1546 126.015 76.1546 126.924Z" fill="#D39E00"/>
<path fill-rule="evenodd" clip-rule="evenodd" d="M39.9062 127.107H56.7484V124.911H39.9062V127.107Z" fill="#D39E00"/>
<path fill-rule="evenodd" clip-rule="evenodd" d="M59.3125 127.107H76.1546V124.911H59.3125V127.107Z" fill="#D39E00"/>
<path fill-rule="evenodd" clip-rule="evenodd" d="M56.7484 124.727C56.7484 125.637 52.9771 126.375 48.3272 126.375C43.6756 126.375 39.9062 125.637 39.9062 124.727C39.9062 123.818 43.6756 123.08 48.3272 123.08C52.9771 123.08 56.7484 123.818 56.7484 124.727Z" fill="#F6C854"/>
<path fill-rule="evenodd" clip-rule="evenodd" d="M76.1546 124.727C76.1546 125.637 72.3834 126.375 67.7334 126.375C63.0819 126.375 59.3125 125.637 59.3125 124.727C59.3125 123.818 63.0819 123.08 67.7334 123.08C72.3834 123.08 76.1546 123.818 76.1546 124.727Z" fill="#F6C854"/>
<path fill-rule="evenodd" clip-rule="evenodd" d="M56.7484 123.263C56.7484 124.173 52.9771 124.911 48.3272 124.911C43.6756 124.911 39.9062 124.173 39.9062 123.263C39.9062 122.354 43.6756 121.616 48.3272 121.616C52.9771 121.616 56.7484 122.354 56.7484 123.263Z" fill="#D39E00"/>
<path fill-rule="evenodd" clip-rule="evenodd" d="M76.1546 123.263C76.1546 124.173 72.3834 124.911 67.7334 124.911C63.0819 124.911 59.3125 124.173 59.3125 123.263C59.3125 122.354 63.0819 121.616 67.7334 121.616C72.3834 121.616 76.1546 122.354 76.1546 123.263Z" fill="#D39E00"/>
<path fill-rule="evenodd" clip-rule="evenodd" d="M39.9062 123.813H56.7484V121.616H39.9062V123.813Z" fill="#D39E00"/>
<path fill-rule="evenodd" clip-rule="evenodd" d="M59.3125 123.813H76.1546V121.616H59.3125V123.813Z" fill="#D39E00"/>
<path fill-rule="evenodd" clip-rule="evenodd" d="M56.7484 120.699C56.7484 121.61 52.9771 122.348 48.3272 122.348C43.6756 122.348 39.9062 121.61 39.9062 120.699C39.9062 119.79 43.6756 119.053 48.3272 119.053C52.9771 119.053 56.7484 119.79 56.7484 120.699Z" fill="#F6C854"/>
<path fill-rule="evenodd" clip-rule="evenodd" d="M76.1546 120.699C76.1546 121.61 72.3834 122.348 67.7334 122.348C63.0819 122.348 59.3125 121.61 59.3125 120.699C59.3125 119.79 63.0819 119.053 67.7334 119.053C72.3834 119.053 76.1546 119.79 76.1546 120.699Z" fill="#F6C854"/>
<path fill-rule="evenodd" clip-rule="evenodd" d="M56.7484 119.968C56.7484 120.878 52.9771 121.616 48.3272 121.616C43.6756 121.616 39.9062 120.878 39.9062 119.968C39.9062 119.059 43.6756 118.32 48.3272 118.32C52.9771 118.32 56.7484 119.059 56.7484 119.968Z" fill="#D39E00"/>
<path fill-rule="evenodd" clip-rule="evenodd" d="M76.1546 119.968C76.1546 120.878 72.3834 121.616 67.7334 121.616C63.0819 121.616 59.3125 120.878 59.3125 119.968C59.3125 119.059 63.0819 118.32 67.7334 118.32C72.3834 118.32 76.1546 119.059 76.1546 119.968Z" fill="#D39E00"/>
<path fill-rule="evenodd" clip-rule="evenodd" d="M39.9062 120.151H56.7484V117.954H39.9062V120.151Z" fill="#D39E00"/>
<path fill-rule="evenodd" clip-rule="evenodd" d="M59.3125 120.151H76.1546V117.954H59.3125V120.151Z" fill="#D39E00"/>
<path fill-rule="evenodd" clip-rule="evenodd" d="M56.7484 117.404C56.7484 118.315 52.9771 119.053 48.3272 119.053C43.6756 119.053 39.9062 118.315 39.9062 117.404C39.9062 116.495 43.6756 115.757 48.3272 115.757C52.9771 115.757 56.7484 116.495 56.7484 117.404Z" fill="#F6C854"/>
<path fill-rule="evenodd" clip-rule="evenodd" d="M76.1546 117.404C76.1546 118.315 72.3834 119.053 67.7334 119.053C63.0819 119.053 59.3125 118.315 59.3125 117.404C59.3125 116.495 63.0819 115.757 67.7334 115.757C72.3834 115.757 76.1546 116.495 76.1546 117.404Z" fill="#F6C854"/>
<path fill-rule="evenodd" clip-rule="evenodd" d="M56.7484 115.94C56.7484 116.85 52.9771 117.588 48.3272 117.588C43.6756 117.588 39.9062 116.85 39.9062 115.94C39.9062 115.031 43.6756 114.293 48.3272 114.293C52.9771 114.293 56.7484 115.031 56.7484 115.94Z" fill="#D39E00"/>
<path fill-rule="evenodd" clip-rule="evenodd" d="M39.9062 115.757H56.7484V113.561H39.9062V115.757Z" fill="#D39E00"/>
<path fill-rule="evenodd" clip-rule="evenodd" d="M56.7484 113.743C56.7484 114.653 52.9771 115.391 48.3272 115.391C43.6756 115.391 39.9062 114.653 39.9062 113.743C39.9062 112.834 43.6756 112.096 48.3272 112.096C52.9771 112.096 56.7484 112.834 56.7484 113.743Z" fill="#F6C854"/>
<path fill-rule="evenodd" clip-rule="evenodd" d="M56.7484 113.011C56.7484 113.921 52.9771 114.659 48.3272 114.659C43.6756 114.659 39.9062 113.921 39.9062 113.011C39.9062 112.102 43.6756 111.364 48.3272 111.364C52.9771 111.364 56.7484 112.102 56.7484 113.011Z" fill="#D39E00"/>
<path fill-rule="evenodd" clip-rule="evenodd" d="M39.9062 112.096H56.7484V109.899H39.9062V112.096Z" fill="#D39E00"/>
<path fill-rule="evenodd" clip-rule="evenodd" d="M56.7484 110.447C56.7484 111.358 52.9771 112.096 48.3272 112.096C43.6756 112.096 39.9062 111.358 39.9062 110.447C39.9062 109.538 43.6756 108.801 48.3272 108.801C52.9771 108.801 56.7484 109.538 56.7484 110.447Z" fill="#F6C854"/>
<path fill-rule="evenodd" clip-rule="evenodd" d="M56.7484 108.618C56.7484 109.528 52.9771 110.265 48.3272 110.265C43.6756 110.265 39.9062 109.528 39.9062 108.618C39.9062 107.709 43.6756 106.97 48.3272 106.97C52.9771 106.97 56.7484 107.709 56.7484 108.618Z" fill="#D39E00"/>
<path fill-rule="evenodd" clip-rule="evenodd" d="M39.9062 109.533H56.7484V107.336H39.9062V109.533Z" fill="#D39E00"/>
<path fill-rule="evenodd" clip-rule="evenodd" d="M56.7484 106.42C56.7484 107.331 52.9771 108.069 48.3272 108.069C43.6756 108.069 39.9062 107.331 39.9062 106.42C39.9062 105.511 43.6756 104.773 48.3272 104.773C52.9771 104.773 56.7484 105.511 56.7484 106.42Z" fill="#F6C854"/>
<path fill-rule="evenodd" clip-rule="evenodd" d="M56.7484 105.688C56.7484 106.598 52.9771 107.336 48.3272 107.336C43.6756 107.336 39.9062 106.598 39.9062 105.688C39.9062 104.779 43.6756 104.041 48.3272 104.041C52.9771 104.041 56.7484 104.779 56.7484 105.688Z" fill="#D39E00"/>
<path fill-rule="evenodd" clip-rule="evenodd" d="M39.9062 105.506H56.7484V103.309H39.9062V105.506Z" fill="#D39E00"/>
<path fill-rule="evenodd" clip-rule="evenodd" d="M56.7484 103.125C56.7484 104.035 52.9771 104.773 48.3272 104.773C43.6756 104.773 39.9062 104.035 39.9062 103.125C39.9062 102.216 43.6756 101.478 48.3272 101.478C52.9771 101.478 56.7484 102.216 56.7484 103.125Z" fill="#F6C854"/>
<path fill-rule="evenodd" clip-rule="evenodd" d="M56.7484 101.661C56.7484 102.571 52.9771 103.309 48.3272 103.309C43.6756 103.309 39.9062 102.571 39.9062 101.661C39.9062 100.752 43.6756 100.014 48.3272 100.014C52.9771 100.014 56.7484 100.752 56.7484 101.661Z" fill="#D39E00"/>
<path fill-rule="evenodd" clip-rule="evenodd" d="M39.9062 101.478H56.7484V99.2812H39.9062V101.478Z" fill="#D39E00"/>
<path fill-rule="evenodd" clip-rule="evenodd" d="M56.7484 99.4635C56.7484 100.374 52.9771 101.112 48.3272 101.112C43.6756 101.112 39.9062 100.374 39.9062 99.4635C39.9062 98.5546 43.6756 97.8169 48.3272 97.8169C52.9771 97.8169 56.7484 98.5546 56.7484 99.4635Z" fill="#F6C854"/>
</svg>
