<svg width="160" height="160" viewBox="0 0 160 160" fill="none" xmlns="http://www.w3.org/2000/svg">
<path fill-rule="evenodd" clip-rule="evenodd" d="M79.3881 18.5314C60.3234 32.2769 44.7737 28.2937 34.374 26.5852C13.6231 23.1751 5.88846 42.6178 13.458 57.3776C21.0279 72.137 27.3691 90.0955 9.15124 104.335C-9.0662 118.574 11.4392 154.596 40.8007 144.66C70.1619 134.722 103.309 136.127 118.415 146.872C133.521 157.616 166.843 132.498 140.478 107.203C114.113 81.9075 131.323 71.1342 140.324 59.6265C149.326 48.1184 145.641 26.9117 120.454 16.5798C120.454 16.5798 98.4532 4.78642 79.3881 18.5314Z" fill="#EAF7FE"/>
<path fill-rule="evenodd" clip-rule="evenodd" d="M159.964 143.081C159.964 147.811 125.053 151.645 81.9878 151.645C38.9227 151.645 4.01172 147.811 4.01172 143.081C4.01172 138.35 38.9227 134.516 81.9878 134.516C125.053 134.516 159.964 138.35 159.964 143.081Z" fill="#CEDEE7"/>
<path fill-rule="evenodd" clip-rule="evenodd" d="M80.6204 122.449L38.6328 118.991L46.9434 62.6777L87.1059 65.9857L80.6204 122.449Z" fill="#EC0000"/>
<path fill-rule="evenodd" clip-rule="evenodd" d="M87.1071 65.958L87.0628 119.481L80.5469 122.449L87.1071 65.958Z" fill="#990000"/>
<path fill-rule="evenodd" clip-rule="evenodd" d="M74.3984 71.1531C73.5128 74.5455 71.5536 77.2547 69.0212 78.5756C67.7026 79.2692 66.234 79.5323 64.8328 79.4163C62.9703 79.2621 61.2317 78.4307 60.145 77.014C58.8155 75.2893 58.3939 72.8422 58.8574 69.54C58.9264 69.0357 59.009 68.5319 59.0921 68.0238C59.3317 66.5546 59.5621 65.1494 59.5045 63.771L60.8867 63.8859C60.9274 65.36 60.6878 66.8248 60.4509 68.2524C60.3738 68.7469 60.2917 69.2414 60.2195 69.7315C59.8104 72.6485 60.1412 74.75 61.2328 76.1673C62.7198 78.0997 65.9297 78.6303 68.385 77.3493C70.5751 76.2039 72.2816 73.8169 73.0678 70.8014C73.5595 68.9028 73.6888 66.9233 73.703 64.9481L75.0765 65.0619C75.0623 67.0928 74.9227 69.1413 74.3984 71.1531Z" fill="white"/>
<path fill-rule="evenodd" clip-rule="evenodd" d="M58.3115 85.4898L54.3127 120.263L28.4258 118.132L33.5503 83.4521L58.3115 85.4898Z" fill="#9E3667"/>
<path fill-rule="evenodd" clip-rule="evenodd" d="M58.4235 85.2744L59.0427 120.263L54.3047 120.173L58.4235 85.2744Z" fill="#723846"/>
<path fill-rule="evenodd" clip-rule="evenodd" d="M50.6032 88.6444C50.0518 90.6959 48.8334 92.3339 47.2577 93.1328C46.4372 93.5516 45.523 93.7108 44.6516 93.6406C43.4924 93.5473 42.4105 93.0454 41.7348 92.1881C40.9077 91.1457 40.6446 89.6658 40.9335 87.6691C40.9762 87.364 41.0277 87.06 41.0793 86.7522C41.2289 85.8638 41.3719 85.0139 41.3358 84.1807L42.1957 84.2498C42.2214 85.1415 42.0724 86.0273 41.9249 86.8905C41.8767 87.1897 41.8263 87.4884 41.7813 87.7849C41.5265 89.5484 41.732 90.8192 42.4111 91.676C43.3368 92.8449 45.334 93.1655 46.8614 92.3907C48.2245 91.6985 49.2867 90.2551 49.7756 88.4315C50.0814 87.2841 50.162 86.0868 50.1707 84.8927L51.0252 84.9619C51.0164 86.1898 50.9293 87.4278 50.6032 88.6444Z" fill="white"/>
<path fill-rule="evenodd" clip-rule="evenodd" d="M121.365 71.0714L102.679 69.605C102.307 69.5758 101.962 69.8056 101.844 70.1602L84.7327 121.869L29.3441 117.523L20.0806 78.445L97.2042 84.0308L97.6845 82.4089L19.0924 76.7439C18.8352 76.7255 18.5829 76.8318 18.4161 77.0285C18.2488 77.2248 18.1849 77.4915 18.2445 77.7425L27.9 118.475C27.9817 118.819 28.2747 119.07 28.6266 119.098L85.24 123.54C85.6115 123.569 85.9575 123.339 86.0744 122.985L103.186 71.2763L120.873 72.6928" fill="#34466B"/>
<path fill-rule="evenodd" clip-rule="evenodd" d="M85.7463 123.593C86.4319 123.647 87.0592 123.913 87.5828 124.094C87.977 124.23 88.3166 124.41 88.6171 124.658C89.0649 125.03 89.4499 125.565 89.7445 126.45C90.0364 127.332 90.2178 128.559 90.2172 130.22C90.2172 130.919 90.1853 131.694 90.1187 132.551C89.9129 135.203 87.7052 137.217 85.1065 137.217C84.9744 137.217 84.8412 137.211 84.7064 137.201L28.553 132.776L28.4258 134.405L84.5796 138.829C84.7562 138.843 84.9322 138.85 85.1065 138.85C88.5505 138.849 91.4632 136.187 91.7378 132.679C91.8076 131.785 91.8417 130.968 91.8417 130.22C91.8417 128.64 91.6923 127.366 91.402 126.318C91.1844 125.533 90.8844 124.874 90.5042 124.329C89.9362 123.509 89.1813 122.969 88.3788 122.649C87.5752 122.328 86.7289 122.203 85.8814 122.135L85.2343 122.084L85.0992 123.542L85.7463 123.593Z" fill="#34466B"/>
<path fill-rule="evenodd" clip-rule="evenodd" d="M74.3646 142.067C74.1292 145.077 76.3776 147.709 79.3872 147.944C82.3974 148.181 85.0286 145.932 85.2645 142.922C85.4999 139.912 83.2515 137.28 80.2419 137.044C77.2317 136.808 74.6005 139.057 74.3646 142.067Z" fill="#34466B"/>
<path fill-rule="evenodd" clip-rule="evenodd" d="M30.6302 138.787C30.3948 141.798 32.6432 144.429 35.6528 144.664C38.663 144.9 41.2942 142.651 41.5301 139.642C41.7655 136.632 39.5171 134.001 36.5075 133.765C33.4974 133.529 30.8662 135.777 30.6302 138.787Z" fill="#34466B"/>
<path d="M81.0724 82.3584L76.1719 121.889L77.8316 122.084L82.7321 82.5541" fill="#34466B"/>
<path d="M69.4748 81.2651L65.6016 120.83L67.1952 120.991L71.0685 81.4265" fill="#34466B"/>
<path d="M57.7789 80.5361L54.668 120.135L56.2955 120.262L59.4059 80.6632" fill="#34466B"/>
<path d="M46.4332 79.8071L44.0977 119.44L45.7711 119.533L48.1067 79.9004" fill="#34466B"/>
<path d="M33.7527 78.7139L33.1641 118.416L34.7616 118.44L35.3508 78.7388" fill="#34466B"/>
<path d="M94.3946 94.2223L21.9947 88.5542L21.8672 90.1753L94.2677 95.8434" fill="#34466B"/>
<path d="M89.1087 108.964L26.0017 103.862L25.875 105.483L88.7998 110.422L89.1087 108.964Z" fill="#34466B"/>
<path fill-rule="evenodd" clip-rule="evenodd" d="M138.858 111.109L137.238 147.233L110.43 146.896L113.214 110.787L138.858 111.109Z" fill="#1BB3BC"/>
<path fill-rule="evenodd" clip-rule="evenodd" d="M138.653 111.151L141.773 146.995L137.035 147.232L138.653 111.151Z" fill="#137E84"/>
<path fill-rule="evenodd" clip-rule="evenodd" d="M130.63 115.082C130.216 117.226 129.088 118.993 127.535 119.922C126.726 120.41 125.803 120.637 124.907 120.626C123.714 120.611 122.572 120.172 121.817 119.34C120.896 118.328 120.519 116.827 120.668 114.758C120.69 114.442 120.721 114.126 120.752 113.807C120.839 112.885 120.923 112.003 120.826 111.151L121.711 111.161C121.802 112.075 121.714 112.994 121.626 113.89C121.599 114.2 121.568 114.511 121.544 114.818C121.412 116.646 121.715 117.935 122.472 118.767C123.503 119.901 125.57 120.091 127.076 119.189C128.419 118.383 129.4 116.828 129.767 114.923C129.997 113.723 129.992 112.489 129.914 111.263L130.793 111.273C130.874 112.534 130.875 113.811 130.63 115.082Z" fill="white"/>
<path fill-rule="evenodd" clip-rule="evenodd" d="M82.5876 21.3718C81.9891 16.5106 77.846 12.7471 72.8246 12.7471C67.392 12.7471 62.9877 17.1524 62.9877 22.5868C62.9877 23.4784 63.1062 24.3423 63.3285 25.1635C63.245 25.1646 63.1622 25.1676 63.0799 25.1724L62.9873 25.1648V25.1786C60.1697 25.3903 57.9488 27.7445 57.9488 30.6174C57.9488 33.4902 60.1697 35.8445 62.9873 36.0562V36.0725H98.8021V36.0719H98.8022C100.998 36.0719 102.777 34.2913 102.777 32.0951C102.777 29.8989 100.998 28.1186 98.8022 28.1186H98.8021V28.1184L89.7282 27.3701C89.7697 27.099 89.7912 26.8214 89.7912 26.5387C89.7912 23.5264 87.3501 21.0844 84.3387 21.0844C83.7262 21.0844 83.1372 21.1854 82.5876 21.3718Z" fill="#CEDEE7"/>
<path fill-rule="evenodd" clip-rule="evenodd" d="M32.9957 42.406C33.4336 38.8361 36.4651 36.0723 40.1393 36.0723C44.1144 36.0723 47.337 39.3074 47.337 43.2983C47.337 43.9531 47.2503 44.5875 47.0876 45.1906C47.1488 45.1914 47.2093 45.1936 47.2696 45.1971L47.3374 45.1915V45.2016C49.399 45.3571 51.024 47.086 51.024 49.1958C51.024 51.3055 49.399 53.0344 47.3374 53.1899V53.2019H21.1314V53.2015H21.1313C19.525 53.2015 18.2227 51.8938 18.2227 50.281C18.2227 48.6682 19.525 47.3607 21.1313 47.3607H21.1314V47.3606L27.7708 46.811C27.7405 46.612 27.7247 46.4081 27.7247 46.2005C27.7247 43.9883 29.5109 42.195 31.7143 42.195C32.1626 42.195 32.5935 42.2692 32.9957 42.406Z" fill="#DEEDF2"/>
</svg>
