<svg width="160" height="161" viewBox="0 0 160 161" fill="none" xmlns="http://www.w3.org/2000/svg">
<path fill-rule="evenodd" clip-rule="evenodd" d="M36.0019 0.563232L80.4145 26.2043C107.509 41.8478 124.2 70.7575 124.2 102.044L124.2 160.563L79.7875 134.921C52.6929 119.278 36.002 90.3685 36.0019 59.0822L36.0019 0.563232Z" fill="#DEEDF2"/>
<path fill-rule="evenodd" clip-rule="evenodd" d="M86.3752 54.3892L78.9796 56.9323L62.1697 45.816L59.1947 43.8477L57.5522 47.0739L51.919 58.1479C51.35 59.2669 50.3647 59.9009 49.3449 59.9009C48.9426 59.9009 48.5333 59.8025 48.1433 59.5939C46.5794 58.7633 45.878 56.5153 46.5877 54.6115L49.4001 47.0621L53.1909 36.885C54.0191 34.6624 55.8586 33.2807 57.8444 33.3909L63.8303 33.7232L78.9796 34.5657L83.8811 43.8477L86.3752 54.3892ZM67.5465 75.357C68.5441 74.4354 68.8837 72.7824 68.362 71.3883L63.1158 57.3714L62.9113 57.5781L63.0585 53.4754L55.3366 51.4296V60.3918C55.3366 61.3238 55.5077 62.2433 55.8368 63.0823L58.5791 70.0705C59.2718 71.8357 61.0054 72.5245 62.3949 71.642L63.6544 74.3636C64.4438 76.0693 66.2707 76.5356 67.5465 75.357Z" fill="#3B101C"/>
<path fill-rule="evenodd" clip-rule="evenodd" d="M90.212 40.6295L101.795 75.3534L134.968 107.433L132.329 142.695L109.672 143.678L85.7322 92.6767C83.0305 91.1538 80.5831 89.0945 78.4763 86.6112C78.1056 86.1755 77.7453 85.7271 77.3964 85.2646C76.5585 84.1558 75.7839 82.9754 75.0799 81.7311C73.8183 79.5071 72.7779 77.0785 71.995 74.4942L69.8674 67.4744H69.8652L65.2788 61.397L54.1627 51.6934C52.3655 50.1246 51.829 47.1344 52.9222 44.7806H52.9223C54.0437 42.366 56.4972 41.439 58.5269 42.6631L69.457 49.2549L74.1553 49.4261L77.0953 42.1243L69.7117 26.4513L62.277 20.5303L55.7942 16.6321C54.528 15.871 53.8471 14.1457 54.1439 12.4508C54.5466 10.1496 56.5452 8.86019 58.3127 9.75998L75.029 18.2758C76.8018 19.179 78.357 20.6256 79.5466 22.4778L87.3896 34.6902C88.5508 36.4983 89.5008 38.4975 90.212 40.6295Z" fill="#732645"/>
<path fill-rule="evenodd" clip-rule="evenodd" d="M49.9743 42.766H2.90594C1.56524 42.766 0.478516 41.6793 0.478516 40.339V12.8298C0.478516 11.4895 1.56524 10.4033 2.90594 10.4033H49.9743C51.315 10.4033 52.4017 11.4895 52.4017 12.8298V40.339C52.4017 41.6793 51.315 42.766 49.9743 42.766Z" fill="#2A8FEC"/>
<path fill-rule="evenodd" clip-rule="evenodd" d="M8.5094 24.1736H5.5559C5.0256 24.1736 4.5957 24.6035 4.5957 25.1338V28.0873C4.5957 28.6176 5.0256 29.0475 5.5559 29.0475H8.5094C9.0397 29.0475 9.4696 28.6176 9.4696 28.0873V25.1338C9.4696 24.6035 9.0397 24.1736 8.5094 24.1736Z" fill="#CEDEE7"/>
<path fill-rule="evenodd" clip-rule="evenodd" d="M4.5957 34.6208H14.5384V33.1261H4.5957V34.6208ZM8.46238 39.3972H4.62825V37.4477H8.46238V39.3972ZM13.4011 39.3972H9.56697V37.4477H13.4011V39.3972ZM25.8459 34.6208H15.9032V33.1262H25.8459V34.6208ZM27.1455 34.6208H37.0883V33.1262H27.1455V34.6208ZM48.3307 34.6208H38.3879V33.1262H48.3307V34.6208Z" fill="#2274C0"/>
<path fill-rule="evenodd" clip-rule="evenodd" d="M45.3656 17.0237C45.4086 16.6001 45.3192 16.1661 45.0972 15.7863L44.8 15.2777L43.611 13.2431C43.4977 13.0491 43.419 12.841 43.3747 12.6274L43.3137 12.7345C42.9532 13.368 42.9575 14.1459 43.3252 14.7753L43.3253 14.7758L44.5591 16.8868C44.5583 16.8866 44.5574 16.8865 44.5565 16.8865C44.8819 17.5018 44.8723 18.2432 44.5261 18.8515L44.4651 18.9586C44.4208 18.745 44.3421 18.5369 44.2289 18.3429L44.3403 18.5337L43.337 16.8169L42.4184 15.2452L42.4453 15.291C42.3319 15.097 42.2532 14.889 42.2089 14.6754L42.1479 14.7824C41.7874 15.4159 41.7918 16.1939 42.1594 16.8233L42.1596 16.8237L42.1984 16.8899L43.0514 18.3496L43.0515 18.3497L43.3487 18.8582C43.7166 19.4878 43.721 20.2659 43.3603 20.8995L43.2994 21.0066C43.2552 20.7929 43.1763 20.5849 43.0631 20.3909L43.1746 20.5816L41.5768 17.8477L41.5765 17.8473C41.4307 17.5976 41.3423 17.3248 41.3109 17.0467C39.5597 17.4534 38.3418 18.3559 38.3477 19.3971C38.3557 20.8062 40.6026 21.9359 43.3662 21.9202C46.1297 21.9043 48.3634 20.7492 48.3554 19.34C48.3495 18.2988 47.1213 17.4104 45.3656 17.0237Z" fill="white"/>
</svg>
