<svg width="160" height="160" viewBox="0 0 160 160" fill="none" xmlns="http://www.w3.org/2000/svg">
<path fill-rule="evenodd" clip-rule="evenodd" d="M99.1795 36.5033C107.327 45.1698 118.122 50.8261 129.82 52.9521C136.921 54.2424 143.715 57.6339 149.205 63.1268C163.584 77.5133 163.601 100.714 149.241 115.12C142.906 121.475 134.828 125.026 126.546 125.774C119.455 126.415 112.792 129.511 107.873 134.662C107.809 134.729 107.746 134.794 107.682 134.86C99.2892 143.428 85.7133 143.513 77.2191 135.046C77.1704 134.998 77.1221 134.949 77.0743 134.9C74.8053 132.596 71.5302 131.589 68.3568 132.206C50.264 135.722 30.8065 130.468 16.7932 116.444C-5.59775 94.0343 -5.59775 57.6355 16.7932 35.2258C39.2022 12.7986 75.5331 12.7988 97.9415 35.2262C98.3622 35.6471 98.7749 36.0728 99.1795 36.5033Z" fill="#EAF7FE"/>
<path fill-rule="evenodd" clip-rule="evenodd" d="M82.8149 38.6601C83.2401 35.1501 86.1841 32.4326 89.7521 32.4326C93.6123 32.4326 96.7418 35.6135 96.7418 39.5374C96.7418 40.1812 96.6576 40.8049 96.4997 41.3979C96.559 41.3987 96.6179 41.4009 96.6764 41.4043L96.7422 41.3988V41.4088C98.7442 41.5617 100.322 43.2615 100.322 45.3359C100.322 47.4102 98.7442 49.1101 96.7422 49.263V49.2747H71.2934V49.2743H71.2933C69.7334 49.2743 68.4688 47.9886 68.4688 46.4029C68.4688 44.8171 69.7334 43.5316 71.2933 43.5316H71.2934V43.5315L77.741 42.9912C77.7115 42.7954 77.6963 42.5949 77.6963 42.3909C77.6963 40.2158 79.4308 38.4526 81.5706 38.4526C82.0058 38.4526 82.4243 38.5255 82.8149 38.6601Z" fill="#EAF7FE"/>
<path fill-rule="evenodd" clip-rule="evenodd" d="M116.721 28.5775C116.002 22.7021 111.028 18.1533 104.999 18.1533C98.477 18.1533 93.1892 23.4778 93.1892 30.0461C93.1892 31.1237 93.3314 32.1679 93.5984 33.1605C93.4981 33.1618 93.3987 33.1654 93.2998 33.1712L93.1886 33.162V33.1786C89.8059 33.4345 87.1394 36.28 87.1394 39.7522C87.1394 43.2245 89.8059 46.0699 93.1886 46.3259V46.3455H136.188V46.3449H136.188C138.824 46.3449 140.961 44.1927 140.961 41.5383C140.961 38.8839 138.824 36.7321 136.188 36.7321H136.188V36.7319L125.294 35.8274C125.344 35.4998 125.37 35.1642 125.37 34.8225C125.37 31.1818 122.439 28.2302 118.823 28.2302C118.088 28.2302 117.381 28.3523 116.721 28.5775Z" fill="#CEDEE7"/>
<path fill-rule="evenodd" clip-rule="evenodd" d="M105.096 68.5239L93.2056 72.6181C92.8669 72.7347 92.4978 72.5547 92.3812 72.2161L89.9884 65.2668C89.8718 64.9282 90.0519 64.5593 90.3906 64.4427L102.281 60.3485C102.62 60.2319 102.989 60.4117 103.105 60.7503L105.498 67.6996C105.615 68.0382 105.435 68.4073 105.096 68.5239Z" fill="white"/>
<path fill-rule="evenodd" clip-rule="evenodd" d="M93.0043 67.434L92.2582 67.6909C92.1242 67.737 92.053 67.883 92.0991 68.017L92.3561 68.7631C92.4022 68.897 92.5482 68.9683 92.6821 68.9221L93.4282 68.6652C93.5622 68.6191 93.6334 68.4731 93.5873 68.3391L93.3304 67.593C93.2843 67.4591 93.1383 67.3879 93.0043 67.434Z" fill="#CEDEE7"/>
<path fill-rule="evenodd" clip-rule="evenodd" d="M101.338 67.0952L103.849 66.2304L103.979 66.608L101.468 67.4728L101.338 67.0952ZM98.4977 68.0733L101.009 67.2084L101.139 67.586L98.6277 68.4508L98.4977 68.0733ZM95.6579 69.0513L98.1696 68.1864L98.2996 68.564L95.7879 69.4289L95.6579 69.0513ZM92.8024 70.0347L95.3141 69.1698L95.4441 69.5474L92.9324 70.4123L92.8024 70.0347ZM94.4308 70.6942L95.3994 70.3607L95.569 70.8532L94.6004 71.1867L94.4308 70.6942ZM93.1847 71.1234L94.1533 70.7899L94.3229 71.2824L93.3543 71.6159L93.1847 71.1234Z" fill="#DEEDF2"/>
<path fill-rule="evenodd" clip-rule="evenodd" d="M101.694 62.422C101.668 62.3112 101.608 62.2094 101.519 62.1328L101.4 62.0301L100.922 61.6196C100.877 61.5804 100.839 61.5347 100.809 61.4846L100.803 61.5169C100.767 61.7083 100.836 61.9045 100.983 62.0315L100.983 62.0316L101.479 62.4576C101.478 62.4576 101.478 62.4577 101.478 62.4577C101.614 62.5849 101.676 62.773 101.641 62.9568L101.635 62.9891C101.605 62.939 101.567 62.8933 101.522 62.8541L101.567 62.8926L101.164 62.5462L100.795 62.2291L100.806 62.2383C100.76 62.1992 100.722 62.1535 100.693 62.1034L100.687 62.1357C100.651 62.3271 100.719 62.5232 100.867 62.6503L100.867 62.6503L100.883 62.6637L101.225 62.9582L101.225 62.9583L101.344 63.0609C101.492 63.1879 101.561 63.3841 101.525 63.5755L101.519 63.6079C101.489 63.5577 101.451 63.512 101.406 63.4729L101.45 63.5114L100.809 62.9597L100.809 62.9596C100.75 62.9093 100.704 62.848 100.672 62.7805C100.265 63.0356 100.036 63.3695 100.128 63.632C100.253 63.9873 100.918 64.0772 101.615 63.8329C102.312 63.5885 102.776 63.1024 102.651 62.7471C102.559 62.4846 102.171 62.367 101.694 62.422Z" fill="#2A8FEC"/>
<path fill-rule="evenodd" clip-rule="evenodd" d="M64.7001 54.5483L17.5542 65.4328C16.2113 65.7429 14.8742 64.9173 14.5675 63.5891L8.27389 36.3284C7.96724 35.0002 8.80727 33.6725 10.1502 33.3625L57.2961 22.478C58.639 22.168 59.976 22.993 60.2827 24.3212L66.5763 51.5819C66.883 52.9102 66.0431 54.2383 64.7001 54.5483Z" fill="#2A8FEC"/>
<path fill-rule="evenodd" clip-rule="evenodd" d="M18.9123 45.7126L15.954 46.3956C15.4228 46.5183 15.0905 47.0437 15.2119 47.5692L15.8876 50.496C16.0089 51.0215 16.5379 51.3481 17.069 51.2255L20.0274 50.5425C20.5585 50.4199 20.8908 49.8945 20.7695 49.3689L20.0938 46.4421C19.9724 45.9166 19.4435 45.59 18.9123 45.7126Z" fill="#CEDEE7"/>
<path fill-rule="evenodd" clip-rule="evenodd" d="M50.8816 47.6745L60.8407 45.3752L61.1826 46.8564L51.2236 49.1556L50.8816 47.6745ZM39.6238 50.2746L49.5829 47.9753L49.9248 49.4565L39.9658 51.7557L39.6238 50.2746ZM28.3621 52.8742L38.3212 50.5749L38.6631 52.0561L28.7041 54.3553L28.3621 52.8742ZM17.034 55.4889L26.993 53.1897L27.335 54.6708L17.3759 56.9701L17.034 55.4889ZM23.0041 58.6216L26.8445 57.735L27.2906 59.6669L23.4501 60.5536L23.0041 58.6216ZM18.0549 59.7637L21.8954 58.8771L22.3414 60.809L18.5009 61.6957L18.0549 59.7637Z" fill="#2274C0"/>
<path fill-rule="evenodd" clip-rule="evenodd" d="M54.1916 30.1043C54.1377 29.6745 53.9489 29.2651 53.6396 28.9401L53.2255 28.5048L51.569 26.7636C51.4112 26.5975 51.2848 26.4095 51.1916 26.2081L51.155 26.3283C50.9388 27.0394 51.121 27.8094 51.6334 28.348L51.6336 28.3485L53.3524 30.1551C53.3515 30.1552 53.3506 30.1552 53.3497 30.1554C53.8164 30.6899 53.9764 31.4268 53.7688 32.1097L53.7322 32.2299C53.639 32.0285 53.5126 31.8405 53.3547 31.6745L53.5099 31.8377L52.1123 30.3685L50.8326 29.0233L50.87 29.0626C50.712 28.8965 50.5856 28.7086 50.4924 28.5071L50.4558 28.6273C50.2396 29.3385 50.422 30.1084 50.9342 30.6471L50.9345 30.6475L50.9885 30.7041L52.1768 31.9534L52.177 31.9535L52.591 32.3886C53.1035 32.9274 53.2859 33.6975 53.0696 34.4088L53.0332 34.529C52.94 34.3275 52.8134 34.1395 52.6556 33.9735L52.8109 34.1367L50.585 31.797L50.5847 31.7966C50.3815 31.583 50.2305 31.333 50.1354 31.0647C48.4744 31.8727 47.4609 33.0487 47.705 34.0791C48.0355 35.4737 50.5445 36.0735 53.309 35.4189C56.0735 34.7641 58.0466 33.1029 57.7161 31.7083C57.472 30.6779 56.0386 30.0815 54.1916 30.1043Z" fill="white"/>
<path fill-rule="evenodd" clip-rule="evenodd" d="M95.4051 72.069L95.3778 68.8626L97.5806 67.5227L98.856 70.6932L100.129 71.3081L100.454 72.9789L98.1019 73.8901L95.4051 72.069Z" fill="#FFC4B8"/>
<path fill-rule="evenodd" clip-rule="evenodd" d="M150.48 152.89C150.48 156.732 119.499 159.847 81.2811 159.847C43.0635 159.847 12.082 156.732 12.082 152.89C12.082 149.048 43.0635 145.934 81.2811 145.934C119.499 145.934 150.48 149.048 150.48 152.89Z" fill="#CEDEE7"/>
<path fill-rule="evenodd" clip-rule="evenodd" d="M45.9017 63.6883C44.0038 62.729 42.6113 60.8371 42.3703 58.5434C41.9956 54.9787 44.543 51.7848 48.0553 51.4156C51.4737 51.0563 54.5543 53.5041 55.0621 56.9216C55.1105 57.1282 55.1464 57.3402 55.1692 57.5568L55.1693 57.5575C55.1875 57.7309 55.1968 57.9032 55.1976 58.0739L55.4964 63.5351L53.2183 64.7899L53.6586 68.9789C51.5494 70.8628 49.2769 71.0459 46.8555 69.6806L45.9017 63.6883Z" fill="#FFC4B8"/>
<path fill-rule="evenodd" clip-rule="evenodd" d="M53.0703 64.7748C53.0703 64.7748 46.28 65.6733 45.8642 63.5959L46.1537 65.2882C46.1537 65.2882 46.4109 66.4449 53.0703 64.7748ZM54.8087 62.1022L53.7199 59.455L53.517 61.267C53.4481 61.881 54.1397 62.3281 54.8087 62.1022Z" fill="#F4A48D"/>
<path fill-rule="evenodd" clip-rule="evenodd" d="M48.3915 70.2033C48.0376 72.3685 46.7955 74.0009 45.1615 74.1726C44.3935 74.2534 43.6429 74.0001 42.9805 73.4965C42.5412 74.4528 41.6322 75.1569 40.5205 75.2738C38.8358 75.4508 37.3241 74.208 37.1442 72.4969C36.9826 70.9595 37.9529 69.5675 39.375 69.1737C38.2648 68.4877 37.4704 67.3029 37.322 65.8913C37.0808 63.596 38.6351 61.5321 40.8395 61.1384C40.8304 61.087 40.823 61.0349 40.8175 60.9821C40.7115 59.9733 41.3041 59.0542 42.2001 58.7188C42.1946 58.675 42.1895 58.631 42.1849 58.5869C41.7993 54.9185 44.4208 51.6318 48.0353 51.2519C48.175 51.2372 48.3141 51.2271 48.4526 51.2213C50.0924 51.0998 51.6457 51.6675 52.8538 52.6997C54.1743 53.7785 55.0892 55.3685 55.2828 57.2102C55.332 57.6785 55.3322 58.1404 55.2877 58.591L55.2527 57.9502C55.2519 57.7795 55.2426 57.6072 55.2243 57.4338L55.2243 57.4331C54.9339 54.6705 52.4905 52.6606 49.7672 52.9469C47.0438 53.2331 45.0717 55.707 45.3621 58.4697C45.3747 58.5893 45.3913 58.7075 45.4117 58.8241C45.1405 58.5881 44.7784 58.4614 44.3963 58.5015C43.6569 58.5792 43.1226 59.2489 43.2013 59.9993C43.2012 59.9994 43.3683 62.7258 45.7828 62.4721L46.9105 69.5569C47.4105 69.8389 47.9042 70.0548 48.3915 70.2033Z" fill="#D39E00"/>
<path fill-rule="evenodd" clip-rule="evenodd" d="M48.25 68.6215L42.6598 70.8233L33.5204 78.396L29.342 64.8174L24.25 65.7313L27.5144 82.313L32.8673 87.1441L48.2741 78.6572L48.25 68.6215Z" fill="#F6C854"/>
<path fill-rule="evenodd" clip-rule="evenodd" d="M78.5859 77.222L80.7424 75.0991L84.1429 75.1796L84.5309 76.9042L79.3925 79.1239L78.5859 77.222Z" fill="#FFC4B8"/>
<path fill-rule="evenodd" clip-rule="evenodd" d="M43.0506 107.936L42.6016 112.374L46.5764 127.621L42.8855 152.122L45.6022 153.06L52.7661 129.139L53.9031 122.181L53.8615 107.449L43.0506 107.936Z" fill="#FFC4B8"/>
<path fill-rule="evenodd" clip-rule="evenodd" d="M63.9441 112.883L58.2298 153.937H55.6323L55.1648 127.621L50.4375 109.15L63.9441 112.883Z" fill="#FFC4B8"/>
<path fill-rule="evenodd" clip-rule="evenodd" d="M43.1915 102.492C45.41 87.5573 44.6176 76.681 44.7326 73.6944C44.8477 70.7081 46.8937 69.1583 46.8937 69.1583C47.7925 68.9527 48.574 68.3604 49.4807 68.1267C55.6143 66.5459 58.96 71.3437 61.2558 76.5188C64.0848 82.8948 66.4617 89.4833 68.3831 96.2046C70.0695 102.103 71.7595 108.055 72.4669 114.177C72.7585 116.703 73.002 119.098 70.3025 120.213C66.0008 121.988 61.1669 121.95 56.6233 122.519C51.4042 123.173 46.1779 123.651 40.9244 123.875C38.1818 123.992 40.9731 117.427 43.1915 102.492Z" fill="#F6C854"/>
<path fill-rule="evenodd" clip-rule="evenodd" d="M25.245 65.553L22.9453 63.2508L23.7288 59.2031H25.9483L26.6011 62.7284L27.7277 63.4053V65.1073L25.245 65.553Z" fill="#FFC4B8"/>
<path fill-rule="evenodd" clip-rule="evenodd" d="M52.4531 67.8203L58.3286 68.8647L68.9335 79.1239L78.4399 75.7869L81.4965 79.6841L68.7739 87.144L55.3257 78.5267L52.4531 67.8203Z" fill="#F6C854"/>
<path fill-rule="evenodd" clip-rule="evenodd" d="M54.6161 84.0141L46.8398 68.9166L49.2149 68.0686L50.9111 67.5596L53.9012 67.766L54.6161 84.0141Z" fill="white"/>
<path fill-rule="evenodd" clip-rule="evenodd" d="M31.2627 81.3088C31.9749 80.218 32.5972 79.0398 33.4009 78.0085L29.342 64.8174L24.25 65.7313L27.5144 82.3132L29.5104 84.1144C30.063 83.1623 30.6583 82.2345 31.2627 81.3088Z" fill="#F6C854"/>
<path fill-rule="evenodd" clip-rule="evenodd" d="M58.4346 152.865L55.6526 153.256L55.312 155.974L55.3752 155.985L55.3599 155.989L59.6488 157.91L61.5736 157.892L61.5433 155.651L60.9836 155.331L58.4346 152.865Z" fill="black"/>
<path fill-rule="evenodd" clip-rule="evenodd" d="M46.1345 151.243L49.4297 153.824L49.0437 155.819L42.107 154.681L43.0224 151.243H46.1345Z" fill="black"/>
<path fill-rule="evenodd" clip-rule="evenodd" d="M124.252 60.531C125.594 59.5454 126.465 57.9568 126.465 56.1663C126.465 53.1789 124.039 50.7534 121.052 50.7534C118.293 50.7534 116.014 52.8213 115.681 55.49C115.623 55.7681 115.58 56.0492 115.551 56.3303L115.551 56.3307L115.55 56.3369L115.55 56.3391C115.541 56.4232 115.534 56.5072 115.528 56.5911L115.155 60.768L116.003 61.052L116.012 61.054L116.012 61.0541C116.033 61.1268 116.045 61.1662 116.045 61.1662L116.068 61.7312L116.11 62.7873C116.124 63.1367 116.197 63.4792 116.324 63.8011C116.413 64.0284 116.531 64.2461 116.674 64.4481C116.843 64.6851 117.044 64.8978 117.269 65.0775C117.386 65.1717 117.511 65.2558 117.641 65.3307C117.71 65.3705 117.778 65.407 117.85 65.4413L117.85 65.4415L117.486 72.0391C117.486 72.0391 119.412 72.6194 121.521 72.159C122.796 71.883 124.139 71.224 125.163 69.8291C125.163 69.8291 123.95 64.5733 124.252 60.531Z" fill="#FFC4B8"/>
<path fill-rule="evenodd" clip-rule="evenodd" d="M121.502 72.0809C122.777 71.8049 124.12 71.1459 125.145 69.751C125.145 69.751 123.833 64.1194 124.278 60.0267C124.278 60.0267 121.294 67.3005 121.502 72.0809ZM116.003 61.0757C116.3 61.1628 116.593 60.9295 116.573 60.6209L116.448 58.6313L116.003 61.0757Z" fill="#F4A48D"/>
<path fill-rule="evenodd" clip-rule="evenodd" d="M121.355 79.3578C127.618 79.4981 134.009 78.0417 134.035 72.576C134.065 66.1821 129.949 56.5594 128.468 53.4258C127.439 51.2481 124.368 48.1615 119.538 49.1828C118.766 49.346 117.646 49.9311 117.121 50.4689C117.089 50.5011 117.058 50.5325 117.026 50.5631C114.747 50.8995 112.918 52.762 112.729 55.1417C112.709 55.3959 112.708 55.6474 112.726 55.8945C112.683 59.237 112.565 72.7093 113.389 75.7729C113.822 77.3868 118.62 79.2966 121.355 79.3578ZM119.281 72.2614C118.608 72.1913 118.005 72.0938 117.492 71.9607L117.856 65.3631L117.856 65.3629C117.785 65.3286 117.716 65.292 117.647 65.2523C117.517 65.1774 117.393 65.0933 117.275 64.999C117.051 64.8194 116.849 64.6067 116.68 64.3696C116.537 64.1676 116.419 63.95 116.331 63.7227C116.203 63.4007 116.13 63.0582 116.116 62.7088L116.074 61.6528L116.051 61.0877C116.051 61.0877 116.039 61.0483 116.018 60.9757L116.009 60.9736L115.161 60.6896L115.534 56.5126C115.54 56.4288 115.547 56.3448 115.556 56.2607L115.556 56.2584L115.557 56.2523V56.2518C115.586 55.9707 115.629 55.6896 115.687 55.4115C115.753 54.8815 115.896 54.3752 116.104 53.9041C116.581 53.1753 117.168 52.5427 119.255 52.5549C121.823 52.5704 122.777 53.9421 123.196 54.856C123.58 55.6939 123.718 56.6827 123.718 56.6827L123.719 56.6848L123.745 56.8355L123.749 56.8591L123.753 56.8819C124.204 56.2781 124.819 55.9821 125.226 56.2112C125.615 56.4298 125.693 57.0575 125.455 57.7205C125.421 57.8457 125.375 57.9723 125.315 58.098L125.305 58.1197L125.302 58.1259L125.294 58.1425L125.291 58.1481L125.28 58.1692L125.278 58.1731L125.269 58.1906L125.266 58.1971L125.257 58.2137L125.255 58.2182C125.025 58.6428 124.691 58.9483 124.361 59.0676C124.339 59.0788 124.318 59.0891 124.296 59.0987C124.296 59.0987 124.254 60.3936 124.242 60.4855C123.788 64.0318 125.057 69.2567 125.151 69.7698C124.229 70.977 123.026 71.8439 120.971 72.193C120.352 72.2749 119.755 72.2805 119.281 72.2614Z" fill="#34466B"/>
<path fill-rule="evenodd" clip-rule="evenodd" d="M99.6458 70.9719L108.633 77.2539L117.828 67.3843L118.924 78.5802L109.963 84.4747L98.0078 73.9336L99.6458 70.9719Z" fill="#EAF7FE"/>
<path fill-rule="evenodd" clip-rule="evenodd" d="M131.973 106.726L132.438 111.316L128.321 127.087L132.144 152.429L129.33 153.399L121.908 128.657L120.73 121.46L120.773 106.222L131.973 106.726Z" fill="#FFC4B8"/>
<path fill-rule="evenodd" clip-rule="evenodd" d="M110.328 111.842L116.248 154.306H118.939L119.423 127.087L124.321 107.981L110.328 111.842Z" fill="#FFC4B8"/>
<path fill-rule="evenodd" clip-rule="evenodd" d="M117.829 67.3843C120.502 65.8755 124.147 67.5812 127.048 67.5812C127.905 76.6073 131.062 84.8333 132.593 93.6953C134.218 103.108 136.049 112.484 138.083 121.817C138.198 122.346 130.009 122.079 129.237 122.092C121.359 122.225 111.047 122.198 103.445 119.816C108.297 106.792 110.068 92.7794 113.888 79.417C114.559 77.0712 115.355 74.7604 115.959 72.3954C116.309 71.0244 116.255 69.3701 116.94 68.2498C117.154 67.9015 117.438 67.6047 117.829 67.3843Z" fill="#2A8FEC"/>
<path fill-rule="evenodd" clip-rule="evenodd" d="M124.756 83.0754C125.518 82.5603 126.042 81.8286 126.109 80.7501C126.172 79.7562 125.939 78.7715 125.768 77.7907C125.223 74.6772 125.295 71.4574 125.978 68.3714C126.657 65.3005 130.24 69.1618 130.685 70.5471C131.179 72.0825 131.04 73.7546 131.16 75.3421C131.322 77.4734 131.398 79.6114 131.39 81.7491C131.384 83.1016 131.717 86.2963 130.293 87.07C129.908 87.2794 129.466 87.3527 129.033 87.4229C128.354 87.5332 120.24 88.5565 120.113 88.1557L118.992 84.6196C120.68 84.2736 123.209 84.1214 124.756 83.0754Z" fill="#EAF7FE"/>
<path fill-rule="evenodd" clip-rule="evenodd" d="M132.184 95.4957C131.973 95.5396 131.766 95.4037 131.723 95.1925L129.722 85.5618C129.054 82.3438 125.897 80.2684 122.684 80.9357C119.471 81.6029 117.401 84.764 118.069 87.982L120.069 97.6127C120.113 97.8239 119.978 98.0305 119.767 98.0743C119.556 98.1181 119.35 97.9826 119.306 97.7714L117.306 88.1406C116.55 84.5008 118.891 80.9255 122.525 80.171C126.159 79.4162 129.73 81.7636 130.486 85.4034L132.486 95.0339C132.53 95.2451 132.395 95.4519 132.184 95.4957Z" fill="black"/>
<path d="M140.187 109.667L138.802 108.715L135.891 89.9175L136.857 90.2313L138.322 90.2395L140.187 109.667Z" fill="#34466B"/>
<path d="M136.859 90.2314L139.644 105.029L138.325 90.2396L136.859 90.2314Z" fill="#34466B"/>
<path d="M135.908 89.915L139.314 108.67L117.393 112.215L114.602 93.6165L135.908 89.915Z" fill="#34466B"/>
<path fill-rule="evenodd" clip-rule="evenodd" d="M144.755 108.782L122.361 113.242L117.781 93.8357L138.336 90.2441L144.755 108.782Z" fill="#34466B"/>
<path fill-rule="evenodd" clip-rule="evenodd" d="M122.368 113.245L117.4 112.218L114.609 93.6192L116.386 93.6172L117.789 93.8386L122.368 113.245Z" fill="#34466B"/>
<path d="M116.387 93.6172L119.854 110.529L122.386 113.242L117.8 93.8329L116.387 93.6172Z" fill="#34466B"/>
<path d="M117.531 112.385L119.874 110.785L122.291 113.348L117.531 112.385Z" fill="#34466B"/>
<path fill-rule="evenodd" clip-rule="evenodd" d="M133.895 95.9012L131.894 86.2705C131.226 83.0522 128.069 80.977 124.856 81.6442C121.643 82.3113 119.573 85.4724 120.241 88.6904L122.241 98.3211C122.285 98.5323 122.15 98.7392 121.939 98.7827C121.728 98.8266 121.522 98.691 121.478 98.4798L119.478 88.8491C118.722 85.2092 121.063 81.6342 124.697 80.8794C128.331 80.1249 131.902 82.472 132.658 86.1119L134.658 95.7426C134.702 95.9538 134.567 96.1603 134.356 96.2042C134.145 96.248 133.938 96.1122 133.895 95.9012Z" fill="black"/>
<path fill-rule="evenodd" clip-rule="evenodd" d="M118.078 85.7092L116.594 84.9272L116.269 85.1577L116.536 85.5698L115.119 85.2732L113.137 86.8032L113.869 87.9016L114.682 88.7681L116.243 88.8137L117.877 87.9318L120.386 87.2293L119.886 85.1177L118.078 85.7092Z" fill="#FFC4B8"/>
<path d="M124.667 83.1416C123.108 84.0412 120.588 84.2791 118.992 84.6061L120.113 88.2455C120.219 88.5782 126.035 87.8286 128.329 87.5352C127.587 86.3627 126.803 85.1003 125.813 84.162C125.452 83.9508 124.77 83.1803 124.667 83.1416Z" fill="#EAF7FE"/>
<path fill-rule="evenodd" clip-rule="evenodd" d="M128.513 150.693L131.991 151.426L132.541 153.701L132.479 153.72L132.495 153.722L128.472 156.152L126.559 156.368L126.316 154.14L126.833 153.754L128.513 150.693Z" fill="black"/>
<path fill-rule="evenodd" clip-rule="evenodd" d="M116 152.524L112.77 154.922L113.156 156.917L120.092 155.779L118.994 151.975L116 152.524Z" fill="black"/>
</svg>
