<svg width="161" height="161" viewBox="0 0 161 161" fill="none" xmlns="http://www.w3.org/2000/svg">
<path fill-rule="evenodd" clip-rule="evenodd" d="M80.1538 18.0051C61.0891 31.7505 45.5393 27.7673 35.1396 26.0588C14.3887 22.6487 6.65408 42.0915 14.2236 56.8512C21.7935 71.6107 28.1347 89.5691 9.91687 103.808C-8.30058 118.047 12.2048 154.07 41.5663 144.133C70.9276 134.196 104.074 135.601 119.18 146.345C134.287 157.09 167.609 131.972 141.244 106.677C114.879 81.3811 132.088 70.6078 141.09 59.1001C150.091 47.592 146.407 26.3853 121.219 16.0535C121.219 16.0535 99.2188 4.26005 80.1538 18.0051Z" fill="#EAF7FE"/>
<path fill-rule="evenodd" clip-rule="evenodd" d="M78.8201 152.176C37.8583 152.176 4.65234 148.097 4.65234 143.065C4.65234 138.032 37.8583 133.953 78.8201 133.953C119.782 133.953 152.987 138.032 152.987 143.065C152.987 148.097 119.782 152.176 78.8201 152.176Z" fill="#DEEDF2"/>
<path fill-rule="evenodd" clip-rule="evenodd" d="M135.559 126.572H69.0547V129.717V143.777V146.922H135.559C139.987 146.922 143.576 143.338 143.576 138.916V134.578C143.576 130.156 139.987 126.572 135.559 126.572Z" fill="#34466B"/>
<path fill-rule="evenodd" clip-rule="evenodd" d="M110.042 145.489H45.2656V128.292H110.042C112.258 128.292 114.055 130.084 114.055 132.295V141.486C114.055 143.697 112.258 145.489 110.042 145.489Z" fill="white"/>
<path d="M108.903 126.572H42.3984V129.717H108.903C111.587 129.717 113.77 131.898 113.77 134.578V138.916C113.77 141.597 111.587 143.777 108.903 143.777H42.3984V146.922H108.903C113.331 146.922 116.92 143.338 116.92 138.916V134.578C116.92 130.156 113.331 126.572 108.903 126.572Z" fill="#34466B"/>
<path fill-rule="evenodd" clip-rule="evenodd" d="M108.903 126.572H42.3984V129.717H108.903C111.587 129.717 113.77 131.898 113.77 134.578V138.916C113.77 141.597 111.587 143.777 108.903 143.777H42.3984V146.922H108.903C113.331 146.922 116.92 143.338 116.92 138.916V134.578C116.92 130.156 113.331 126.572 108.903 126.572Z" fill="#34466B"/>
<path fill-rule="evenodd" clip-rule="evenodd" d="M54.4732 109.662H109.467V112.275V123.959V126.572H54.4732C50.812 126.572 47.8438 123.593 47.8438 119.919V116.314C47.8438 112.64 50.812 109.662 54.4732 109.662Z" fill="#EC0000"/>
<path fill-rule="evenodd" clip-rule="evenodd" d="M75.5176 125.426H128.958V111.095H75.5176C73.6893 111.095 72.207 112.589 72.207 114.432V122.09C72.207 123.932 73.6893 125.426 75.5176 125.426Z" fill="white"/>
<path d="M76.2544 109.662H131.248V112.275H76.2544C74.0351 112.275 72.2295 114.087 72.2295 116.314V119.919C72.2295 122.147 74.0351 123.959 76.2544 123.959H131.248V126.572H76.2544C72.5933 126.572 69.625 123.593 69.625 119.919V116.314C69.625 112.64 72.5933 109.662 76.2544 109.662Z" fill="#EC0000"/>
<path fill-rule="evenodd" clip-rule="evenodd" d="M76.2544 109.662H131.248V112.275H76.2544C74.0351 112.275 72.2295 114.087 72.2295 116.314V119.919C72.2295 122.147 74.0351 123.959 76.2544 123.959H131.248V126.572H76.2544C72.5933 126.572 69.625 123.593 69.625 119.919V116.314C69.625 112.64 72.5933 109.662 76.2544 109.662Z" fill="#EC0000"/>
<path fill-rule="evenodd" clip-rule="evenodd" d="M134.826 67.6174C134.826 44.4696 116.061 25.7046 92.9126 25.7046C69.7651 25.7046 51 44.4696 51 67.6174C51 90.7653 69.7651 109.53 92.9126 109.53C116.061 109.53 134.826 90.7653 134.826 67.6174Z" fill="#34466B"/>
<path fill-rule="evenodd" clip-rule="evenodd" d="M127.063 42.7827C125.528 43.4304 123.433 44.9961 123.597 46.8943C123.872 50.0571 125.881 49.4061 125.516 51.1734C125.15 52.941 122.958 52.941 122.41 54.8016C121.862 56.6622 120.674 60.7557 122.319 62.7092C123.963 64.6631 126.155 62.9884 127.16 64.4769C128.165 65.9653 128.53 67.8259 130.357 67.5467C131.207 67.4171 133.04 66.4272 134.826 65.4305C134.826 61.8383 133.939 58.2476 132.821 54.8612C131.324 50.3252 129.108 46.1508 127.063 42.7827ZM84.1466 55.0221C83.1055 55.3675 82.8953 56.4592 84.1466 56.8425C85.398 57.2254 87.0343 56.8425 86.9381 56.1717C86.8419 55.501 85.0129 54.7346 84.1466 55.0221ZM74.7528 53.3256C74.662 54.3087 81.6597 56.5695 81.6597 55.4882C81.6597 54.4069 77.661 52.736 76.8431 52.6378C75.3867 52.4627 74.8436 52.3429 74.7528 53.3256ZM97.4895 36.6936C97.6752 36.0638 96.2833 35.3438 95.9122 35.1637C94.574 34.5147 94.3346 36.2439 95.0772 37.0538C95.8195 37.8638 97.3041 37.3239 97.4895 36.6936ZM101.221 67.8948C97.6251 67.341 96.611 68.2642 96.611 68.2642L89.881 62.3546C89.881 62.3546 79.5558 64.663 78.265 64.3859C76.9742 64.1091 73.6554 63.9243 73.5633 62.0776C73.4709 60.2308 75.2228 58.2918 72.9179 56.8142C70.6132 55.3368 65.5428 56.4448 64.8974 55.5216C64.252 54.5981 64.4365 49.8888 66.5569 48.2269C68.677 46.5647 73.01 45.9183 74.3008 47.1189C75.5913 48.3192 74.485 50.8124 75.8679 50.9969C77.2508 51.1817 75.9603 46.1031 77.6196 44.9028C79.2792 43.7022 80.2933 43.9793 81.3072 42.9635C82.3213 41.9481 81.5838 40.5629 83.1509 39.9162C84.7184 39.2701 91.2639 39.0853 91.725 37.3311C92.1859 35.5766 87.6684 35.3918 87.9451 34.6531C88.2217 33.9144 94.0297 35.8534 94.306 33.7299C94.583 31.6061 88.1296 28.0049 85.9168 28.7436C83.7042 29.4823 82.2292 34.4683 80.4775 33.9144C78.7259 33.3603 75.5913 30.498 77.2508 29.2974C78.9104 28.0971 82.2292 29.7594 82.8746 28.2817C83.1762 27.5912 83.0638 27.6702 82.5266 26.98C76.3901 28.2823 69.639 32.1087 64.6681 36.6382C61.2462 39.7561 58.6545 43.0162 56.65 46.4786C56.4986 50.0427 56.2021 54.4297 57.1532 54.1365C58.3516 53.7671 58.0752 45.1796 58.997 46.5647C59.919 47.9499 58.8127 53.0284 59.919 54.9674C61.0253 56.9067 61.9473 56.3526 61.9473 56.3526C61.9473 56.3526 63.9753 58.5686 65.2661 57.7377C64.8974 58.4764 67.2941 61.9853 69.5991 63.0933C71.9037 64.2014 75.4071 63.5549 76.9742 65.6788C78.5416 67.8026 77.8962 69.8341 77.8962 69.8341C77.8962 69.8341 75.3149 72.4195 75.7758 75.6514C75.6834 75.7436 73.932 74.8204 74.3929 77.7749C74.8538 80.73 83.3355 85.0699 83.7963 87.6553C84.2572 90.2407 83.3355 103.261 83.7963 105.569C84.0627 106.903 84.5311 108.619 85.0778 108.801C85.6245 108.983 86.5724 109.089 87.2646 109.166C87.6311 109.206 88.1756 109.327 88.358 109.166C88.9914 108.606 88.4059 106.954 88.4059 106.954L95.2281 99.6595C95.2281 99.6595 98.9156 98.8282 101.866 95.7809C104.816 92.7339 114.68 80.4529 113.205 76.6672C111.73 72.8811 106.383 73.1582 106.383 73.1582C106.383 73.1582 104.816 68.449 101.221 67.8948Z" fill="#DEEDF2"/>
<path fill-rule="evenodd" clip-rule="evenodd" d="M101.195 67.6178C97.6011 67.0622 96.5875 67.9882 96.5875 67.9882L89.8611 62.0607C89.8611 62.0607 79.5416 64.3761 78.2515 64.0981C76.9614 63.8205 73.6444 63.6351 73.5523 61.7827C73.46 59.9304 75.211 57.9855 72.9073 56.5033C70.6039 55.0214 65.5362 56.1328 64.8911 55.2068C64.2461 54.2804 64.4305 49.5568 66.5498 47.8898C68.6687 46.2226 72.9993 45.5742 74.2894 46.7784C75.5792 47.9824 74.4736 50.4831 75.8557 50.6682C77.2379 50.8536 75.9481 45.7595 77.6064 44.5556C79.2651 43.3513 80.2787 43.6292 81.292 42.6104C82.3056 41.5918 81.5685 40.2024 83.1348 39.5537C84.7014 38.9056 91.2433 38.7202 91.7042 36.9607C92.1648 35.2009 87.6498 35.0155 87.9263 34.2746C88.2028 33.5336 94.0076 35.4785 94.2838 33.3485C94.5298 31.4528 89.4524 28.3868 86.7719 28.2556C86.46 28.2904 86.1492 28.3287 85.8393 28.3709C83.6614 29.1811 82.1977 34.0842 80.4628 33.5336C79.3284 33.1735 58.0727 44.8332 58.9939 46.2226C59.9155 47.6119 58.8098 52.706 59.9155 54.6509C61.0211 56.5961 61.9427 56.0403 61.9427 56.0403C61.9427 56.0403 63.9696 58.2631 65.2597 57.4296C64.8911 58.1705 67.2866 61.6902 69.5903 62.8016C71.8937 63.913 75.3951 63.2646 76.9614 65.3949C78.528 67.5252 77.8829 69.563 77.8829 69.563C77.8829 69.563 75.303 72.1563 75.7637 75.398C75.6713 75.4906 73.9209 74.5645 74.3815 77.528C74.8421 80.4921 83.3192 84.8452 83.7798 87.4385C84.2404 90.0319 83.3192 103.092 83.7798 105.407C84.0317 106.672 84.5723 107.59 85.2587 108.437C86.1949 108.579 87.2185 109.089 88.1744 109.166C88.9191 108.29 88.3869 106.796 88.3869 106.796L95.2053 99.4794C95.2053 99.4794 98.8909 98.6456 101.839 95.589C104.788 92.5326 114.647 80.2142 113.173 76.4169C111.699 72.6193 106.354 72.8972 106.354 72.8972C106.354 72.8972 104.788 68.1736 101.195 67.6178Z" fill="#DEEDF2"/>
<path fill-rule="evenodd" clip-rule="evenodd" d="M61.1123 42.7156C60.7797 43.21 60.4478 43.6787 60.1174 44.1228L59.7617 43.5805C60.0868 43.144 60.4137 42.6824 60.7417 42.1948L61.1123 42.7156ZM58.6126 45.3118C58.2463 45.7028 57.8825 46.0669 57.5213 46.4053L57.2227 45.8967C57.5765 45.5656 57.9332 45.2085 58.2926 44.8247L58.6126 45.3118ZM55.3653 48.0044C54.9709 48.3685 54.5797 48.696 54.1916 48.9878L53.9414 48.3481C54.3186 48.0642 54.6998 47.7457 55.0845 47.3901L55.3653 48.0044ZM52.1102 49.7966C51.6663 50.0441 51.2278 50.2483 50.7956 50.4111L50.6309 49.7452C51.0469 49.5885 51.4701 49.3917 51.8995 49.1519L52.1102 49.7966ZM48.5756 50.9519C48.4652 50.972 48.3556 50.9897 48.2463 51.0051C47.8649 51.0587 47.4897 51.0838 47.1217 51.0818L47.082 50.4326C47.4329 50.4347 47.7908 50.4107 48.1555 50.3595C48.2601 50.3448 48.365 50.328 48.4706 50.3086L48.5756 50.9519ZM44.4879 51.0702C44.0023 50.9855 43.533 50.8564 43.082 50.6877L43.1971 50.1475C43.6239 50.3069 44.0681 50.4295 44.5292 50.5096L44.4879 51.0702ZM41.0406 50.1002C40.5639 49.7674 40.1108 49.3869 39.6836 48.9666L39.9447 48.4141C40.3491 48.8119 40.7779 49.1723 41.2289 49.487L41.0406 50.1002ZM38.2282 47.6774C37.791 47.2471 37.3914 46.7859 37.0312 46.3007L37.5007 45.9395C37.8424 46.3999 38.2218 46.8375 38.6362 47.2455L38.2282 47.6774ZM35.8114 44.2554C35.4991 43.6168 35.2348 42.9592 35.0215 42.2911L35.6085 42.0757C35.8104 42.7072 36.0608 43.3309 36.3568 43.9361L35.8114 44.2554ZM35.2005 40.6272L34.6141 40.7195L34.5903 40.5589C34.512 40.0016 34.4817 39.4449 34.5024 38.895L35.0958 38.9181C35.0764 39.4308 35.1045 39.9527 35.1781 40.4763C35.1852 40.5265 35.1926 40.5769 35.2005 40.6272ZM34.6172 36.8098C34.7867 36.2158 35.0288 35.6418 35.3482 35.1006L35.8895 35.3876C35.5971 35.8837 35.3741 36.4105 35.2177 36.9591L34.6172 36.8098ZM36.5996 33.729C36.9183 33.3046 37.29 32.9219 37.7158 32.5903L37.9862 33.1198C37.5911 33.4272 37.2493 33.7796 36.957 34.1691L36.5996 33.729ZM39.8984 31.9119C40.3258 31.7416 40.7885 31.6041 41.2878 31.5034L41.3863 32.0239C40.9105 32.1199 40.4723 32.2503 40.0706 32.4106L39.8984 31.9119ZM43.543 30.945C43.9976 30.9194 44.4765 30.9198 44.9801 30.9479L44.9718 31.4803C44.4832 31.4527 44.0201 31.4525 43.5824 31.4774L43.543 30.945ZM47.2062 31.4331C47.7306 31.6358 48.1925 31.9368 48.5892 32.3212L48.2825 32.754C47.9359 32.4185 47.5343 32.156 47.0684 31.9754L47.2062 31.4331ZM50.1485 33.5239C50.461 34.0255 50.697 34.5872 50.8641 35.1976L50.2209 35.354C50.0653 34.7853 49.8474 34.271 49.5664 33.8201L50.1485 33.5239ZM51.1708 37.5659C51.2189 38.1404 51.2336 38.7412 51.2165 39.3626L50.6823 39.3275C50.6986 38.7275 50.6846 38.1509 50.6387 37.6036L51.1708 37.5659ZM51.0476 41.0059C50.9836 41.6771 50.8952 42.3626 50.7834 43.0578L50.209 42.8948C50.3186 42.2154 50.4048 41.5471 50.4669 40.894L51.0476 41.0059ZM50.6274 44.8412C50.4366 45.4004 50.224 45.9648 49.9908 46.5312L49.3672 46.3491C49.5958 45.7931 49.8045 45.2393 49.9915 44.6909L50.6274 44.8412ZM48.947 48.3909C48.7191 48.9396 48.4751 49.4869 48.2158 50.031L47.6699 49.779C47.9248 49.244 48.1648 48.7056 48.3889 48.1665L48.947 48.3909ZM47.4109 52.2736C47.154 52.8109 46.8841 53.3419 46.6022 53.8638L46.1172 53.5435C46.3944 53.0303 46.6596 52.5083 46.9123 51.98L47.4109 52.2736ZM45.4494 55.157C45.1661 55.6812 44.8715 56.1928 44.5664 56.6897L44.1367 56.2915C44.4359 55.8045 44.7249 55.3025 45.003 54.7881L45.4494 55.157ZM42.8183 58.3455C42.507 58.8524 42.1853 59.3385 41.8539 59.8007L41.4805 59.3019C41.8037 58.8512 42.118 58.3765 42.4226 57.8806L42.8183 58.3455ZM40.5172 60.5106C40.1599 60.9059 39.7935 61.2736 39.4178 61.6097L39.127 61.0933C39.4896 60.7687 39.8448 60.4126 40.1917 60.0288L40.5172 60.5106ZM36.8773 63.2794C36.4636 63.558 36.0408 63.7973 35.61 63.993L35.4258 63.4266C35.8356 63.2405 36.2394 63.0118 36.6363 62.7446L36.8773 63.2794ZM33.6893 64.3792C33.5176 64.4189 33.3447 64.4512 33.1709 64.4756C32.8631 64.5189 32.5521 64.5377 32.2384 64.5306L32.2031 63.8755C32.4975 63.8824 32.7896 63.8646 33.0793 63.8239C33.2429 63.8008 33.4058 63.7706 33.5679 63.7329L33.6893 64.3792ZM29.8729 64.387C29.4041 64.2381 28.9302 64.023 28.4531 63.7383L28.5858 63.0957C29.0357 63.3648 29.4808 63.5662 29.9208 63.7061L29.8729 64.387ZM26.46 63.4068C26.0183 63.0675 25.5756 62.6761 25.1328 62.2297L25.4225 61.7124C25.8472 62.1408 26.2701 62.5146 26.6904 62.8373L26.46 63.4068ZM23.4811 60.6515C23.014 60.1946 22.6351 59.7048 22.33 59.1861L22.893 58.8939C23.1737 59.371 23.5199 59.8188 23.9502 60.2394L23.4811 60.6515ZM21.6061 57.3601C21.4481 56.8239 21.3354 56.2662 21.2542 55.6889L21.2381 55.5717L21.852 55.4899L21.8675 55.6027C21.9455 56.1577 22.0531 56.6874 22.2014 57.1909L21.6061 57.3601ZM21.2093 53.8768C21.1768 53.3008 21.1576 52.7084 21.1426 52.0997L21.6951 52.0962C21.71 52.7019 21.7289 53.2878 21.7607 53.853L21.2093 53.8768ZM21.4596 49.7901C21.4452 49.2172 21.4268 48.6314 21.3982 48.0326L21.9463 48.0153C21.9752 48.6209 21.9938 49.2115 22.0083 49.7871L21.4596 49.7901ZM20.3757 46.3311C20.3306 45.7485 20.2693 45.1555 20.1855 44.5526L20.8488 44.46C20.9343 45.0755 20.9969 45.6799 21.0423 46.2724L20.3757 46.3311ZM20.3197 42.0824C20.206 41.5234 20.072 40.956 19.9141 40.3804L20.4573 40.2228C20.6196 40.8126 20.7566 41.3939 20.873 41.9658L20.3197 42.0824Z" fill="#34466B"/>
<path fill-rule="evenodd" clip-rule="evenodd" d="M9.94824 31.1171L34.7437 28.5327L2.93455 27.0717L9.94824 31.1171Z" fill="#EC0000"/>
<path fill-rule="evenodd" clip-rule="evenodd" d="M8.53949 43.602L34.6563 28.5229L8.71777 40.1872L8.53949 43.602Z" fill="#990000"/>
<path fill-rule="evenodd" clip-rule="evenodd" d="M3.02064 27.0709L8.73615 32.109L8.61991 34.3355L9.9791 32.1744L34.8296 28.5349L10.037 31.0657L3.02064 27.0709Z" fill="#990000"/>
<path fill-rule="evenodd" clip-rule="evenodd" d="M34.7669 28.5175L3.01934 43.0012L9.79052 32.1949L34.7669 28.5175Z" fill="#EC0000"/>
</svg>
