<svg width="160" height="160" viewBox="0 0 160 160" fill="none" xmlns="http://www.w3.org/2000/svg">
<path fill-rule="evenodd" clip-rule="evenodd" d="M58.5035 127.574C59.1219 127.6 59.7388 127.617 60.3544 127.624C72.7472 127.766 84.4968 132.074 94.0221 139.573C99.8032 144.125 107.063 146.956 115.136 147.297C136.279 148.19 154.882 131.795 156.826 110.556C157.683 101.187 155.129 92.459 150.19 85.5556C145.963 79.6449 143.99 72.3282 144.829 64.8995C144.84 64.8037 144.85 64.708 144.859 64.6127C146.115 52.0948 137.106 41.5866 124.642 41.0365C124.571 41.0331 124.499 41.0305 124.428 41.0282C121.064 40.9117 118.068 39.1028 116.441 36.2245C107.162 19.8136 89.9428 8.55416 69.335 7.68717C36.4065 6.30201 7.23742 32.042 4.24901 65.1217C1.25858 98.2275 25.5488 126.188 58.5035 127.574Z" fill="#EAF7FE"/>
<path d="M98.8392 159.893L53.804 153.008C48.8029 152.242 45.3686 147.572 46.1341 142.575L64.4959 22.7362C65.2614 17.7399 69.9364 14.3091 74.9389 15.0739L119.973 21.9598C124.976 22.7252 128.409 27.3953 127.643 32.3915L109.282 152.231C108.516 157.228 103.841 160.657 98.8392 159.893Z" fill="#9E3667"/>
<path d="M96.0736 159.472L51.0384 152.585C46.0372 151.821 42.6032 147.15 43.3684 142.154L61.7298 22.3148C62.4958 17.3186 67.1708 13.8878 72.1728 14.6525L117.207 21.539C122.209 22.3031 125.643 26.9738 124.877 31.9701L106.516 151.809C105.751 156.806 101.075 160.236 96.0736 159.472Z" fill="white"/>
<path d="M124.101 37.0607L107.128 147.84C106.6 151.284 102.315 153.485 98.8702 152.958L49.263 145.373C45.8158 144.846 43.4523 141.629 43.9799 138.184L60.9535 27.4055C61.4814 23.9611 64.7003 21.5947 68.1482 22.1218L117.754 29.7071C121.199 30.2337 124.629 33.6166 124.101 37.0607Z" fill="white"/>
<path fill-rule="evenodd" clip-rule="evenodd" d="M106.273 25.5221C107.106 25.6497 107.885 25.0779 108.012 24.2456C108.14 23.4127 107.568 22.635 106.735 22.5075C105.902 22.3806 105.123 22.9517 104.995 23.7846C104.868 24.6168 105.44 25.3953 106.273 25.5221ZM84.0988 21.3926C84.5329 21.4591 84.9384 21.1613 85.0053 20.7272C85.0717 20.2931 84.7736 19.8877 84.3396 19.8212C83.9051 19.7548 83.499 20.0527 83.4331 20.4868C83.3658 20.9207 83.6643 21.3262 84.0988 21.3926ZM81.9564 20.2613C81.8896 20.6948 81.484 20.9933 81.05 20.9269C80.6155 20.8597 80.3179 20.455 80.3843 20.0209C80.4511 19.5867 80.8567 19.289 81.2903 19.3555C81.7248 19.4218 82.0228 19.8273 81.9564 20.2613ZM90.3637 21.9752L97.6556 23.0898C97.8873 23.1256 98.1036 22.9668 98.1389 22.7353C98.1741 22.5038 98.0151 22.2878 97.7834 22.2526L90.4916 21.1378C90.2608 21.1027 90.0444 21.2609 90.0083 21.4924C89.9731 21.7238 90.1316 21.94 90.3637 21.9752Z" fill="#DEEDF2"/>
<path fill-rule="evenodd" clip-rule="evenodd" d="M98.8313 159.865L53.7961 152.981C48.795 152.215 45.3608 147.545 46.1262 142.548L64.488 22.7089C65.2535 17.7126 69.9285 14.2818 74.931 15.0466L119.965 21.9324C124.968 22.6979 128.401 27.368 127.635 32.3642L109.274 152.203C108.508 157.2 103.833 160.63 98.8313 159.865Z" fill="#9E3667"/>
<path fill-rule="evenodd" clip-rule="evenodd" d="M96.0657 159.445L51.0306 152.558C46.0294 151.794 42.5953 147.122 43.3606 142.127L61.722 22.2875C62.488 17.2913 67.163 13.8605 72.165 14.6252L117.199 21.5117C122.201 22.2758 125.636 26.9465 124.87 31.9428L106.508 151.781C105.743 156.779 101.067 160.209 96.0657 159.445Z" fill="white"/>
<path d="M124.093 37.0334L107.12 147.813C106.592 151.256 102.307 153.458 98.8625 152.931L49.2553 145.346C45.8081 144.818 43.4445 141.601 43.9721 138.157L60.9458 27.3782C61.4733 23.9338 64.6927 21.5674 68.1401 22.0944L117.746 29.6798C121.192 30.2064 124.621 33.5893 124.093 37.0334Z" fill="white"/>
<path fill-rule="evenodd" clip-rule="evenodd" d="M107.68 144.145L107.118 147.812C107.089 147.997 107.051 148.177 107.001 148.353C106.135 151.483 102.121 153.43 98.8615 152.932L49.2543 145.345C46.2157 144.881 44.0162 142.326 43.9034 139.366C43.888 138.968 43.9079 138.564 43.9711 138.156L44.5329 134.489L107.68 144.145Z" fill="#CEDEE7"/>
<path d="M107.683 144.145L107.121 147.812C107.092 147.997 107.054 148.177 107.004 148.353L106.971 148.348L107.119 147.382L44.0391 137.737L44.5357 134.489L107.683 144.145Z" fill="#EC0000"/>
<path fill-rule="evenodd" clip-rule="evenodd" d="M106.266 25.4948C107.099 25.6223 107.878 25.0505 108.005 24.2183C108.133 23.3854 107.561 22.6077 106.728 22.4802C105.895 22.3533 105.116 22.9244 104.988 23.7573C104.861 24.5895 105.432 25.368 106.266 25.4948ZM84.091 21.3653C84.525 21.4317 84.9306 21.134 84.9975 20.6999C85.0639 20.2657 84.7658 19.8604 84.3317 19.7939C83.8973 19.7275 83.4912 20.0253 83.4253 20.4594C83.358 20.8934 83.6565 21.2989 84.091 21.3653ZM81.9486 20.234C81.8818 20.6674 81.4762 20.966 81.0422 20.8996C80.6077 20.8324 80.3101 20.4276 80.3764 19.9935C80.4433 19.5594 80.8493 19.2617 81.2829 19.3281C81.7174 19.3945 82.015 19.8 81.9486 20.234ZM90.3559 21.9479L97.6482 23.0624C97.8795 23.0983 98.0958 22.9395 98.1311 22.708C98.1663 22.4765 98.0073 22.2605 97.7756 22.2253L90.4837 21.1105C90.253 21.0754 90.0366 21.2335 90.0005 21.4651C89.9653 21.6964 90.1238 21.9127 90.3559 21.9479Z" fill="#DEEDF2"/>
<path d="M124.091 37.0354L121.39 54.6647L58.2422 45.0098L60.9435 27.3802C61.471 23.9358 64.6904 21.5691 68.1378 22.0965L117.744 29.6818C121.189 30.2085 124.619 33.5912 124.091 37.0354Z" fill="#EC0000"/>
<path fill-rule="evenodd" clip-rule="evenodd" d="M108.372 139.676L45.2266 130.014L58.2418 45.0562L121.386 54.7174L108.372 139.676Z" fill="#CEDEE7"/>
<path fill-rule="evenodd" clip-rule="evenodd" d="M112.48 66.4784L62.4883 58.8288L63.3121 53.5273L113.303 61.1769L112.48 66.4784Z" fill="white"/>
<ellipse cx="78.1877" cy="123.208" rx="9.03296" ry="9.03296" transform="rotate(8.7 78.1877 123.208)" fill="#EC0000"/>
<path fill-rule="evenodd" clip-rule="evenodd" d="M75.6469 124.809C76.1279 124.673 76.4156 124.181 76.2987 123.695L76.0688 122.738C77.3447 122.566 79.1838 122.848 80.3572 123.394L79.8518 124.239C79.5952 124.668 79.7222 125.223 80.1399 125.497L80.9068 126.001C81.2329 126.215 81.6575 126.204 81.9714 125.973L83.0513 125.18C83.5341 124.825 83.6379 124.146 83.283 123.663C80.924 120.451 76.4084 119.76 73.1967 122.119C72.7139 122.474 72.6096 123.153 72.9646 123.636L73.7577 124.716C73.9885 125.03 74.3905 125.168 74.7653 125.061L75.6469 124.809Z" fill="white"/>
<path fill-rule="evenodd" clip-rule="evenodd" d="M80.7832 106.461C84.2352 106.989 87.4618 104.619 87.9902 101.167C88.5182 97.7145 86.1484 94.488 82.6964 93.96C79.2445 93.4316 76.0179 95.8018 75.4895 99.2538C74.9611 102.706 77.3313 105.932 80.7832 106.461ZM80.5104 108.247C84.9488 108.925 89.0972 105.878 89.7764 101.44C90.4553 97.002 87.408 92.8536 82.9701 92.1743C78.5318 91.495 74.3834 94.5423 73.7041 98.9806C73.0248 103.419 76.0721 107.567 80.5104 108.247Z" fill="white"/>
<path fill-rule="evenodd" clip-rule="evenodd" d="M84.2017 84.1372C87.6537 84.6656 90.8802 82.2954 91.4082 78.8434C91.9367 75.3915 89.5664 72.1649 86.1145 71.6365C82.6625 71.1085 79.4359 73.4783 78.9075 76.9302C78.3795 80.3822 80.7498 83.6088 84.2017 84.1372ZM83.9284 85.9229C88.3663 86.6022 92.5151 83.5549 93.194 79.1166C93.8732 74.6782 90.826 70.5298 86.3876 69.8506C81.9493 69.1713 77.8009 72.219 77.1221 76.6569C76.4428 81.0952 79.49 85.2436 83.9284 85.9229Z" fill="white"/>
<path fill-rule="evenodd" clip-rule="evenodd" d="M100.428 109.467C103.88 109.995 107.106 107.625 107.635 104.173C108.163 100.721 105.793 97.4943 102.341 96.9658C98.8891 96.4379 95.6625 98.8077 95.1341 102.26C94.6061 105.712 96.9759 108.938 100.428 109.467ZM100.155 111.252C104.593 111.932 108.742 108.884 109.421 104.446C110.1 100.008 107.053 95.8593 102.615 95.18C98.1763 94.5012 94.0279 97.5485 93.3486 101.986C92.6693 106.425 95.7171 110.573 100.155 111.252Z" fill="white"/>
<path fill-rule="evenodd" clip-rule="evenodd" d="M103.846 87.1433C107.298 87.6717 110.524 85.3015 111.052 81.8495C111.581 78.3976 109.211 75.171 105.759 74.6426C102.307 74.1146 99.0801 76.4849 98.5522 79.9368C98.0237 83.3888 100.394 86.6153 103.846 87.1433ZM103.573 88.9292C108.011 89.6084 112.16 86.5612 112.838 82.1228C113.518 77.6845 110.47 73.5361 106.032 72.8568C101.594 72.178 97.4454 75.2252 96.7666 79.6636C96.0873 84.1015 99.1346 88.2503 103.573 88.9292Z" fill="white"/>
<path fill-rule="evenodd" clip-rule="evenodd" d="M61.1428 103.454C64.5947 103.982 67.8213 101.612 68.3497 98.1602C68.8777 94.7083 66.5075 91.4817 63.0555 90.9537C59.6036 90.4253 56.377 92.7956 55.849 96.2475C55.3206 99.6995 57.6909 102.926 61.1428 103.454ZM60.8698 105.24C65.3081 105.919 69.4565 102.872 70.1358 98.4335C70.8146 93.9956 67.7674 89.8468 63.329 89.168C58.8911 88.4887 54.7427 91.5359 54.0635 95.9743C53.3842 100.413 56.4315 104.561 60.8698 105.24Z" fill="white"/>
<path fill-rule="evenodd" clip-rule="evenodd" d="M64.5571 81.1331C68.009 81.6611 71.2356 79.2909 71.7636 75.8389C72.292 72.387 69.9217 69.1604 66.4698 68.6324C63.0179 68.104 59.7913 70.4742 59.2629 73.9262C58.7349 77.3781 61.1051 80.6047 64.5571 81.1331ZM64.2842 82.919C68.7221 83.5978 72.8705 80.5506 73.5498 76.1122C74.229 71.6743 71.1818 67.5259 66.7434 66.8467C62.3051 66.1674 58.1567 69.2147 57.4774 73.653C56.7986 78.0913 59.8459 82.2397 64.2842 82.919Z" fill="white"/>
<path d="M52.2344 76.9396C54.7184 76.2418 57.1059 75.1808 59.0782 73.7509L66.3393 75.6275L64.3684 68.5728L64.3245 68.4129L64.2256 68.5497L61.1084 68.0574L56.287 66.8479L53.8395 66.46L52.2344 76.9396Z" fill="#34466B"/>
<path fill-rule="evenodd" clip-rule="evenodd" d="M55.9354 69.5452C39.7886 75.4509 21.2619 69.0393 12.4574 53.6201C2.63902 36.4194 8.63613 14.5232 25.8543 4.71462C43.0725 -5.09475 64.9905 0.896037 74.8098 18.0956C83.6119 33.5168 79.7038 52.71 66.3942 63.5861L66.3386 75.6284L55.9354 69.5452Z" fill="white"/>
<path d="M27.2286 36.7733C27.1996 36.3109 27.084 35.8195 26.9106 35.386C26.7661 34.8946 26.5927 34.4611 26.3326 34.0565L22.8353 35.9351L23.5001 32.0043C23.0376 31.8887 22.5463 31.8599 22.0549 31.8599C21.5635 31.8599 21.0722 31.8887 20.6386 32.0043L21.3323 35.9351L17.7773 34.0854C17.546 34.49 17.3437 34.9235 17.1992 35.386C17.0547 35.8484 16.9391 36.3398 16.9102 36.8022L20.8699 37.3514L18.0085 40.155C18.3264 40.5018 18.7022 40.8486 19.0779 41.1088C19.4825 41.3978 19.8872 41.6579 20.3207 41.8313L22.0838 38.2473L23.8469 41.8024C24.2804 41.629 24.714 41.3689 25.0897 41.1088C25.4944 40.8197 25.8701 40.4729 26.1591 40.1261L23.2977 37.3803L27.2286 36.7733Z" fill="#EC0000"/>
<path d="M41.1621 36.7733C41.1332 36.3109 41.0176 35.8195 40.8442 35.386C40.6997 34.8946 40.5263 34.4611 40.2661 34.0565L36.7689 35.9351L37.4337 32.0043C36.9712 31.8887 36.4798 31.8599 35.9885 31.8599C35.4971 31.8599 35.0058 31.8887 34.5722 32.0043L35.2659 35.9351L31.7108 34.0854C31.4796 34.49 31.2773 34.9235 31.1328 35.386C30.9883 35.8484 30.8727 36.3398 30.8438 36.8022L34.8034 37.3514L31.9421 40.155C32.26 40.5018 32.6358 40.8486 33.0115 41.1088C33.4161 41.3978 33.8207 41.6579 34.2543 41.8313L36.0174 38.2473L37.7805 41.8024C38.214 41.629 38.6476 41.3689 39.0233 41.1088C39.428 40.8197 39.8037 40.4729 40.0927 40.1261L37.2313 37.3803L41.1621 36.7733Z" fill="#EC0000"/>
<path d="M55.0918 36.7733C55.0629 36.3109 54.9473 35.8195 54.7738 35.386C54.6293 34.8946 54.4559 34.4611 54.1957 34.0565L50.6986 35.9351L51.3634 32.0043C50.9009 31.8887 50.4096 31.8599 49.9182 31.8599C49.4268 31.8599 48.9354 31.8887 48.5018 32.0043L49.1955 35.9351L45.6405 34.0854C45.4093 34.49 45.207 34.9235 45.0624 35.386C44.9179 35.8484 44.8023 36.3398 44.7734 36.8022L48.733 37.3514L45.8718 40.155C46.1897 40.5018 46.5654 40.8486 46.9413 41.1088C47.3456 41.3978 47.7503 41.6579 48.1838 41.8313L49.9471 38.2473L51.7103 41.8024C52.1439 41.629 52.577 41.3689 52.9528 41.1088C53.3575 40.8197 53.7332 40.4729 54.0223 40.1261L51.1611 37.3803L55.0918 36.7733Z" fill="#EC0000"/>
<path d="M69.0215 36.7733C68.9926 36.3109 68.877 35.8195 68.7035 35.386C68.559 34.8946 68.3856 34.4611 68.1254 34.0565L64.6283 35.9351L65.2931 32.0043C64.8306 31.8887 64.3392 31.8599 63.8478 31.8599C63.3565 31.8599 62.8651 31.8887 62.4315 32.0043L63.1252 35.9351L59.5703 34.0854C59.339 34.49 59.1367 34.9235 58.9922 35.386C58.8477 35.8484 58.732 36.3398 58.7031 36.8022L62.6627 37.3514L59.8015 40.155C60.1195 40.5018 60.4953 40.8486 60.871 41.1088C61.2757 41.3978 61.6799 41.6579 62.1135 41.8313L63.8768 38.2473L65.64 41.8024C66.0736 41.629 66.5072 41.3689 66.8825 41.1088C67.2871 40.8197 67.6629 40.4729 67.952 40.1261L65.0908 37.3803L69.0215 36.7733Z" fill="#EC0000"/>
</svg>
