<svg width="160" height="160" viewBox="0 0 160 160" fill="none" xmlns="http://www.w3.org/2000/svg">
<path fill-rule="evenodd" clip-rule="evenodd" d="M62.6144 117.319C34.4517 110.976 9.45593 102.298 7.90679 91.5552C5.47573 74.6764 30.6501 79.7102 40.5335 62.019C50.4168 44.3277 39.3385 31.96 46.8462 21.4118C54.3539 10.8635 67.9051 14.7478 78.7447 22.6592C89.5843 30.5706 85.589 36.1416 101.367 43.7489C117.146 51.3562 124.34 41.2085 137.151 51.0327C149.962 60.8569 144.863 72.6985 142.003 84.1606C139.143 95.6228 138.673 97.8214 134.322 104.194C126.6 115.503 90.7771 123.661 62.6144 117.319Z" fill="#EAF7FE"/>
<path d="M78.8542 134.197C42.0351 134.197 12.1875 131.628 12.1875 128.459C12.1875 125.289 42.0351 122.72 78.8542 122.72C115.673 122.72 145.521 125.289 145.521 128.459C145.521 131.628 115.673 134.197 78.8542 134.197Z" fill="#CEDEE7"/>
<path fill-rule="evenodd" clip-rule="evenodd" d="M78.8515 14.2516C78.2972 9.74937 74.46 6.26367 69.8093 6.26367C64.7778 6.26367 60.6987 10.3438 60.6987 15.377C60.6987 16.2028 60.8084 17.0029 61.0143 17.7635C60.937 17.7645 60.8603 17.7672 60.784 17.7717L60.6983 17.7646V17.7774C58.0887 17.9735 56.0318 20.1539 56.0318 22.8147C56.0318 25.4754 58.0887 27.6559 60.6983 27.852V27.867H93.869V27.8665H93.8691C95.9023 27.8665 97.5508 26.2174 97.5508 24.1833C97.5508 22.1493 95.9023 20.5003 93.8691 20.5003H93.869V20.5002L85.465 19.8071C85.5034 19.556 85.5233 19.2989 85.5233 19.0371C85.5233 16.2472 83.2625 13.9855 80.4734 13.9855C79.9061 13.9855 79.3606 14.079 78.8515 14.2516Z" fill="#CEDEE7"/>
<path fill-rule="evenodd" clip-rule="evenodd" d="M39.3347 25.9697C39.7403 22.6633 42.548 20.1035 45.951 20.1035C49.6326 20.1035 52.6173 23.0998 52.6173 26.7961C52.6173 27.4025 52.537 27.9901 52.3863 28.5487C52.4429 28.5494 52.499 28.5514 52.5548 28.5547L52.6176 28.5495V28.5589C54.527 28.7029 56.0321 30.3042 56.0321 32.2582C56.0321 34.2122 54.527 35.8134 52.6176 35.9574V35.9685H28.3463V35.9681H28.3462C26.8585 35.9681 25.6523 34.757 25.6523 33.2633C25.6523 31.7695 26.8585 30.5586 28.3462 30.5586H28.3463V30.5585L34.4956 30.0495C34.4675 29.8651 34.4529 29.6763 34.4529 29.484C34.4529 27.4352 36.1072 25.7742 38.148 25.7742C38.5631 25.7742 38.9622 25.8429 39.3347 25.9697Z" fill="#CEDEE7"/>
<path fill-rule="evenodd" clip-rule="evenodd" d="M101.387 60.1639C102.715 59.2581 103.609 57.7545 103.669 56.0268C103.77 53.1442 101.511 50.722 98.6285 50.6213C95.9667 50.5284 93.6977 52.4469 93.2862 55.0109C93.2206 55.2772 93.1703 55.547 93.1327 55.8173L93.1326 55.8177L93.1315 55.8237L93.1313 55.8257C93.1201 55.9066 93.11 55.9874 93.1011 56.0682L92.6006 60.086L93.4098 60.3887L93.4183 60.3909L93.4183 60.391C93.4362 60.4619 93.4461 60.5002 93.4461 60.5002L93.4494 61.0462L93.454 62.0667C93.4561 62.4044 93.5151 62.7373 93.627 63.0522C93.7052 63.2745 93.8112 63.4885 93.943 63.6883C94.0976 63.9227 94.2848 64.1347 94.4957 64.3156C94.6056 64.4105 94.7229 64.4959 94.8459 64.5725C94.911 64.6132 94.976 64.6508 95.0437 64.6863L95.0441 64.6865L94.4701 71.0405C94.4701 71.0405 96.309 71.6653 98.3596 71.2921C99.599 71.0687 100.917 70.4781 101.953 69.1666C101.953 69.1666 100.96 64.0543 101.387 60.1639Z" fill="#FFC4B8"/>
<path fill-rule="evenodd" clip-rule="evenodd" d="M98.3408 71.216C99.5803 70.9926 100.898 70.402 101.934 69.0905C101.934 69.0905 100.858 63.6122 101.425 59.678C101.425 59.678 98.301 66.5962 98.3408 71.216ZM93.4096 60.4116C93.6933 60.5057 93.9833 60.2904 93.975 59.9919L93.9215 58.068L93.4096 60.4116Z" fill="#F4A48D"/>
<path fill-rule="evenodd" clip-rule="evenodd" d="M100.309 51.0228C98.0157 50.8621 98.3665 48.9001 98.3665 48.9001C95.9066 48.8949 94.8269 49.7838 94.8269 49.7838C92.7983 51.284 93.471 54.4594 93.471 54.4594C93.8552 52.0944 97.4586 53.2342 98.8748 53.5225C99.4369 54.1136 99.1636 55.4991 99.4176 56.6838C99.4222 56.7052 99.9998 58.3168 99.9998 58.3168L100 58.3187L100.03 58.4851C100.042 58.4584 100.054 58.4318 100.066 58.4052C100.481 57.5121 101.279 57.0032 101.85 57.2672C102.42 57.5316 102.546 58.4696 102.132 59.3626C101.987 59.6737 101.641 59.9328 101.429 60.1343C101.224 61.4597 101.211 62.6969 101.286 63.762L101.878 63.8085L104.368 53.743C104.574 52.3912 103.99 51.7505 103.032 51.4198C102.286 51.1622 101.313 51.0932 100.309 51.0228Z" fill="black"/>
<path fill-rule="evenodd" clip-rule="evenodd" d="M89.7163 75.9834L89.8481 73.8083L88.1441 72.4648L87.4558 72.705L88.3969 73.7627L84.0879 73.6122L84.2153 74.6622L88.4175 77.2618L89.7163 75.9834Z" fill="#F4A48D"/>
<path fill-rule="evenodd" clip-rule="evenodd" d="M90.9151 79.9497L88.0507 75.0638L85.8086 74.4019L88.5371 84.5359L91.27 86.499L94.8287 84.8723L96.3203 75.586L92.7346 74.6437L90.9151 79.9497Z" fill="#2274C0"/>
<path fill-rule="evenodd" clip-rule="evenodd" d="M91.9976 89.3534L91.1282 107.127L93.5389 129.717L96.0495 129.925L98.0325 109.15L103.18 88.8233L91.9976 89.3534Z" fill="#34466B"/>
<path fill-rule="evenodd" clip-rule="evenodd" d="M97.6026 90.4491L99.4218 108.15L104.51 130.1L107.023 129.928L106.544 109.043L108.569 88.1727L97.6026 90.4491Z" fill="#34466B"/>
<path fill-rule="evenodd" clip-rule="evenodd" d="M108.138 78.051C107.61 76.6497 106.047 73.1992 105.161 71.9755C102.957 68.9324 103.381 68.5309 96.3268 68.8548C95.7334 68.882 95.2415 68.9788 94.8185 69.135C94.2679 69.4957 93.3365 70.7329 92.6379 74.8843C92.6688 75.7771 92.7464 78.4286 92.719 81.9146C92.6963 84.7932 91.6622 89.8869 89.6168 97.1959C93.2068 97.1001 95.1046 97.0488 95.3105 97.0419C105.31 96.2771 110.331 95.8442 110.374 95.7434C110.738 95.0441 110.773 94.3493 110.773 94.3492C111.631 89.6428 109.325 81.3954 109.325 81.3942C108.86 80.0502 108.413 78.7823 108.138 78.051Z" fill="#2A8FEC"/>
<path d="M103.778 69.9712L96.7748 82.7567L91.2819 76.2615L89.106 78.4034C91.9244 83.4869 93.7658 86.4695 94.63 87.351C95.9264 88.6733 96.0033 88.9662 99.8763 85.1395C102.458 82.5883 104.579 78.8146 106.238 73.8184C105.837 72.9228 105.472 72.2183 105.144 71.705C104.816 71.1916 104.361 70.6137 103.778 69.9712Z" fill="#2A8FEC"/>
<path fill-rule="evenodd" clip-rule="evenodd" d="M90.8608 76.6753L90.9927 74.5002L89.2886 73.1567L88.6003 73.3969L89.5414 74.4545L85.2324 74.3041L85.3598 75.3541L89.562 77.9536L90.8608 76.6753Z" fill="#FFC4B8"/>
<path fill-rule="evenodd" clip-rule="evenodd" d="M93.4983 129.302L96.1987 128.627L95.9599 132.196L92.3289 132.413L90.8407 132.198L91.3893 130.757L91.9384 130.409L93.4983 129.302Z" fill="black"/>
<path fill-rule="evenodd" clip-rule="evenodd" d="M104.47 129.133L102.419 130.798L102.518 132.234L107.491 132.032L107.002 129.302L104.47 129.133Z" fill="black"/>
<path fill-rule="evenodd" clip-rule="evenodd" d="M76.4917 54.5864C76.4917 54.5864 77.827 52.7668 79.3477 52.0744C80.8682 51.3824 81.4372 53.0011 80.3179 53.3994C79.1984 53.798 76.4917 54.5864 76.4917 54.5864Z" fill="#CEDEE7"/>
<path fill-rule="evenodd" clip-rule="evenodd" d="M76.4939 54.5931C76.4939 54.5931 78.3595 53.3228 80.0239 53.1773C81.6883 53.0318 81.6848 54.7476 80.4965 54.7498C79.3083 54.7523 76.4939 54.5931 76.4939 54.5931Z" fill="#9BC3D3"/>
<path fill-rule="evenodd" clip-rule="evenodd" d="M76.2392 54.8349C76.2392 54.8349 78.3751 54.1053 80.0185 54.4064C81.6619 54.7075 81.2033 56.3609 80.0572 56.048C78.9107 55.735 76.2392 54.8349 76.2392 54.8349Z" fill="#34466B"/>
<path fill-rule="evenodd" clip-rule="evenodd" d="M71.8145 59.5117C71.8145 59.5117 72.8205 61.0231 75.0938 61.508L71.8145 59.5117ZM75.5047 60.8332C75.5047 60.8332 74.6602 61.6931 74.8413 62.7667L75.5047 60.8332ZM75.3383 62.5174C75.0365 61.887 75.092 61.5078 75.092 61.5078C75.092 61.5078 74.5334 61.881 74.4262 62.5014" fill="black"/>
<path fill-rule="evenodd" clip-rule="evenodd" d="M68.3198 56.8987C68.3198 56.8987 66.4836 55.981 67.6551 54.3787C68.8267 52.7765 71.498 46.4984 70.6684 44.509C70.6684 44.509 75.5198 49.9846 73.3645 54.7644C71.6621 58.5399 68.3198 56.8987 68.3198 56.8987Z" fill="#CEDEE7"/>
<path fill-rule="evenodd" clip-rule="evenodd" d="M70.1395 47.1527C68.3536 46.4886 66.3093 47.5416 65.28 49.1449C64.5774 50.239 63.7755 52.6128 63.9803 54.6642C64.4952 59.8232 68.3438 61.9766 72.9832 61.1102C75.6494 60.6124 77.5199 58.8241 77.6351 56.4665C77.7849 53.3999 77.6433 53.7726 75.5137 54.0769C72.9942 54.4369 72.9353 52.6949 72.3277 49.8938C71.9384 48.0994 71.0017 47.4736 70.1395 47.1527Z" fill="#34466B"/>
<path fill-rule="evenodd" clip-rule="evenodd" d="M72.0733 61.2415C71.232 60.7164 70.8751 59.381 70.2251 57.6346C69.5848 55.9135 68.5685 55.4272 67.6695 55.2322C66.4424 54.9663 65.2106 55.4542 64.2864 56.314C65.306 59.9778 68.3669 61.6238 72.0733 61.2415Z" fill="#CEDEE7"/>
<path fill-rule="evenodd" clip-rule="evenodd" d="M67.4738 52.299C67.4738 52.299 67.2925 53.5595 66.4133 53.7048C65.5343 53.8503 64.3221 53.0145 64.3221 53.0145L67.4738 52.299Z" fill="#9BC3D3"/>
<path fill-rule="evenodd" clip-rule="evenodd" d="M67.7168 51.038C67.7168 51.038 68.0169 50.3084 68.9076 50.3863C69.478 50.4362 69.8817 50.8487 69.85 51.2247M65.6455 50.8022C65.6726 50.4805 65.3268 50.127 64.8383 50.0842C64.823 50.0829 64.8091 50.0835 64.7939 50.0828" fill="black"/>
<path fill-rule="evenodd" clip-rule="evenodd" d="M71.4861 55.3635C71.4861 55.3635 70.0808 53.8673 71.7342 52.7693C73.3878 51.6712 78.0659 46.7049 77.9757 44.5513C77.9757 44.5513 80.6333 51.3672 76.9576 55.1063C74.0544 58.0596 71.4861 55.3635 71.4861 55.3635Z" fill="#CEDEE7"/>
<path fill-rule="evenodd" clip-rule="evenodd" d="M74.1816 58.6099C74.1816 58.6099 75.1879 60.1212 77.4607 60.6063L74.1816 58.6099ZM77.872 59.9318C77.872 59.9318 77.0275 60.7917 77.2085 61.8649L77.872 59.9318ZM77.7057 61.6162C77.4038 60.9858 77.459 60.6064 77.459 60.6064C77.459 60.6064 76.9006 60.9798 76.7934 61.6001" fill="black"/>
<path fill-rule="evenodd" clip-rule="evenodd" d="M66.309 51.1213C66.309 51.1213 65.2214 51.0674 64.1756 52.0109C64.1756 52.0109 63.6512 53.083 62.4112 53.3551C62.4112 53.3551 65.4174 53.979 67.472 52.2993C67.472 52.2993 66.0976 51.8416 66.309 51.1213Z" fill="#CEDEE7"/>
<path d="M48.5582 37.2339C48.5582 37.2339 49.621 36.0648 50.7303 35.6941C51.8394 35.3236 52.1171 36.4921 51.3087 36.6875C50.5002 36.8831 48.5582 37.2339 48.5582 37.2339Z" fill="#CEDEE7"/>
<path fill-rule="evenodd" clip-rule="evenodd" d="M48.5591 37.2384C48.5591 37.2384 49.9508 36.4906 51.1202 36.5111C52.2895 36.5316 52.1615 37.7258 51.3341 37.6404C50.5067 37.5552 48.5591 37.2384 48.5591 37.2384Z" fill="#9BC3D3"/>
<path fill-rule="evenodd" clip-rule="evenodd" d="M48.3653 37.388C48.3653 37.388 49.9057 37.0364 51.0277 37.3663C52.1498 37.6962 51.7095 38.8137 50.9346 38.512C50.1593 38.2102 48.3653 37.388 48.3653 37.388Z" fill="#34466B"/>
<path fill-rule="evenodd" clip-rule="evenodd" d="M44.9414 40.3203C44.9414 40.3203 45.5312 41.4461 47.0783 41.95L44.9414 40.3203ZM47.4141 41.5102C47.4141 41.5102 46.7633 42.047 46.8108 42.8077L47.4141 41.5102ZM47.1774 42.6709C47.0134 42.21 47.0798 41.9501 47.0798 41.9501C47.0798 41.9501 46.6636 42.169 46.5436 42.5931" fill="black"/>
<path fill-rule="evenodd" clip-rule="evenodd" d="M42.7012 38.2459C42.7012 38.2459 41.49 37.4726 42.4228 36.4429C43.3557 35.4132 45.6747 31.238 45.2427 29.7924C45.2427 29.7924 48.2195 33.9593 46.3693 37.1291C44.9079 39.6329 42.7012 38.2459 42.7012 38.2459Z" fill="#CEDEE7"/>
<path fill-rule="evenodd" clip-rule="evenodd" d="M41.1493 32.6248C40.5801 33.3351 39.8481 34.9289 39.8406 36.372C39.8216 40.0012 42.3433 41.782 45.6365 41.5183C47.529 41.3668 48.9621 40.2587 49.2148 38.6259C49.5434 36.502 49.4176 36.7511 47.9128 36.8071C46.1324 36.8733 46.2189 35.6563 46.0009 33.6619C45.8612 32.3841 45.2548 31.8799 44.678 31.5935C43.4834 31.0005 41.9832 31.584 41.1493 32.6248Z" fill="#34466B"/>
<path fill-rule="evenodd" clip-rule="evenodd" d="M44.9948 41.5437C44.4476 41.1166 44.2968 40.1608 43.9721 38.8975C43.6522 37.6525 42.9803 37.2395 42.3687 37.038C41.534 36.7631 40.6407 37.0126 39.9344 37.5436C40.3761 40.1688 42.3866 41.5386 44.9948 41.5437Z" fill="#CEDEE7"/>
<path fill-rule="evenodd" clip-rule="evenodd" d="M42.4465 34.9813C42.4465 34.9813 42.2281 35.8456 41.6054 35.8824C40.9829 35.9194 40.2001 35.2489 40.2001 35.2489L42.4465 34.9813Z" fill="#9BC3D3"/>
<path fill-rule="evenodd" clip-rule="evenodd" d="M42.7125 34.1232C42.7125 34.1232 42.9747 33.6373 43.5892 33.7567C43.9826 33.8332 44.2334 34.1498 44.1839 34.4093M41.2865 33.8078C41.3289 33.5858 41.114 33.3144 40.7771 33.249C40.7665 33.2469 40.7568 33.2463 40.7463 33.2447" fill="black"/>
<path fill-rule="evenodd" clip-rule="evenodd" d="M45.0153 37.4082C45.0153 37.4082 44.1465 36.2638 45.3778 35.6204C46.6094 34.9769 50.2295 31.8618 50.3243 30.356C50.3243 30.356 51.6757 35.2955 48.8432 37.6295C46.606 39.4731 45.0153 37.4082 45.0153 37.4082Z" fill="#CEDEE7"/>
<path fill-rule="evenodd" clip-rule="evenodd" d="M46.6562 39.8657C46.6562 39.8657 47.2462 40.9915 48.793 41.4955L46.6562 39.8657ZM49.1291 41.0561C49.1291 41.0561 48.4782 41.5929 48.5257 42.3533L49.1291 41.0561ZM48.8924 42.2165C48.7284 41.7556 48.7945 41.4954 48.7945 41.4954C48.7945 41.4954 48.3784 41.7145 48.2585 42.1385" fill="black"/>
<path fill-rule="evenodd" clip-rule="evenodd" d="M41.7219 34.0761C41.7219 34.0761 40.9686 33.959 40.1715 34.5394C40.1715 34.5394 39.728 35.2474 38.8449 35.3461C38.8449 35.3461 40.892 36.0003 42.4453 34.9813C42.4453 34.9813 41.522 34.5621 41.7219 34.0761Z" fill="#CEDEE7"/>
</svg>
