<svg width="160" height="160" viewBox="0 0 160 160" fill="none" xmlns="http://www.w3.org/2000/svg">
<path d="M82.2156 150.706C42.6599 150.706 10.5938 147.946 10.5938 144.541C10.5938 141.136 42.6599 138.376 82.2156 138.376C121.771 138.376 153.838 141.136 153.838 144.541C153.838 147.946 121.771 150.706 82.2156 150.706Z" fill="#CEDEE7"/>
<path fill-rule="evenodd" clip-rule="evenodd" d="M60.8205 29.0731C52.6728 37.7396 41.8782 43.3959 30.1798 45.5219C23.0793 46.8122 16.2852 50.2037 10.7952 55.6966C-3.58427 70.0831 -3.60059 93.2835 10.7595 107.69C17.0942 114.045 25.1717 117.596 33.4544 118.344C40.5453 118.985 47.2075 122.081 52.1272 127.232C52.1906 127.298 52.2544 127.364 52.3183 127.43C60.7108 135.998 74.2867 136.082 82.7809 127.616C82.8296 127.568 82.8779 127.519 82.9257 127.47C85.1947 125.166 88.4698 124.159 91.6432 124.776C109.736 128.292 129.194 123.038 143.207 109.014C165.598 86.6041 165.598 50.2053 143.207 27.7957C120.798 5.36845 84.4669 5.36859 62.0585 27.796C61.6378 28.2169 61.2251 28.6426 60.8205 29.0731Z" fill="#EAF7FE"/>
<path fill-rule="evenodd" clip-rule="evenodd" d="M43.555 93.859C22.5195 100.54 14.9062 89.0458 14.9062 89.0458C22.8019 84.0933 39.0229 89.1857 39.0229 89.1857L43.555 93.859Z" fill="#1BB3BC"/>
<path fill-rule="evenodd" clip-rule="evenodd" d="M50.4453 139.404V148.892C87.4208 125.816 73.1029 114.441 73.1029 114.441C57.0364 120.996 50.4453 139.404 50.4453 139.404Z" fill="#1BB3BC"/>
<path fill-rule="evenodd" clip-rule="evenodd" d="M50.4453 147.063V148.892C87.4208 125.816 73.1029 114.441 73.1029 114.441L50.4453 147.063Z" fill="#137E84"/>
<path fill-rule="evenodd" clip-rule="evenodd" d="M50.4436 139.404V148.892C13.4681 125.816 27.7859 114.441 27.7859 114.441C43.8524 120.996 50.4436 139.404 50.4436 139.404Z" fill="#1BB3BC"/>
<path fill-rule="evenodd" clip-rule="evenodd" d="M50.4436 147.063V148.892C13.4681 125.816 27.7859 114.441 27.7859 114.441L50.4436 147.063Z" fill="#137E84"/>
<path fill-rule="evenodd" clip-rule="evenodd" d="M50.6266 122.419L50.4453 121.244L70.8343 92.6826L71.4786 93.1334L51.0896 121.694L50.6266 122.419Z" fill="#137E84"/>
<path fill-rule="evenodd" clip-rule="evenodd" d="M50.4456 101.023L23.9727 75.8552L24.5016 75.2754L50.4456 100.116V100.66V101.748V101.023Z" fill="#137E84"/>
<path fill-rule="evenodd" clip-rule="evenodd" d="M50.4445 77.8442V87.243L50.4139 87.216C31.5686 70.2101 37.574 57.5063 37.574 57.5063C46.4642 63.5775 50.4445 77.8442 50.4445 77.8442Z" fill="#1BB3BC"/>
<path fill-rule="evenodd" clip-rule="evenodd" d="M50.8088 86.3364L50.4462 87.0617C30.7032 70.0403 37.619 57.5063 37.619 57.5063L51.1026 85.3238L51.1715 85.4677L50.8088 86.3364Z" fill="#137E84"/>
<path fill-rule="evenodd" clip-rule="evenodd" d="M50.4453 77.8442V87.243L50.4759 87.216C69.3212 70.2101 63.3158 57.5063 63.3158 57.5063C54.4256 63.5775 50.4453 77.8442 50.4453 77.8442Z" fill="#1BB3BC"/>
<path fill-rule="evenodd" clip-rule="evenodd" d="M50.0814 86.3364L50.444 87.243C70.187 70.2216 63.2712 57.5063 63.2712 57.5063L49.7877 85.3238L49.7188 85.4677L50.0814 86.3364Z" fill="#137E84"/>
<path fill-rule="evenodd" clip-rule="evenodd" d="M50.082 148.529H50.4447H50.8073V50.9785H50.082V148.529Z" fill="#137E84"/>
<path fill-rule="evenodd" clip-rule="evenodd" d="M54.0705 51.3414C54.0705 53.1437 52.6095 54.6052 50.8068 54.6052C49.0044 54.6052 47.543 53.1437 47.543 51.3414C47.543 49.5387 49.0044 48.0776 50.8068 48.0776C52.6095 48.0776 54.0705 49.5387 54.0705 51.3414Z" fill="black"/>
<path fill-rule="evenodd" clip-rule="evenodd" d="M84.3874 18.5817C83.7919 13.7448 79.6695 10 74.6731 10C69.2676 10 64.8853 14.3833 64.8853 19.7907C64.8853 20.6778 65.0032 21.5374 65.2244 22.3546C65.1413 22.3556 65.0589 22.3586 64.977 22.3634L64.8849 22.3558V22.3695C62.0814 22.5802 59.8715 24.9227 59.8715 27.7812C59.8715 30.6398 62.0814 32.9822 64.8849 33.1929V33.2091H100.521V33.2086H100.521C102.706 33.2086 104.477 31.4368 104.477 29.2516C104.477 27.0664 102.706 25.2949 100.521 25.2949H100.521V25.2947L91.4925 24.5501C91.5338 24.2804 91.5551 24.0041 91.5551 23.7229C91.5551 20.7256 89.1262 18.2957 86.1299 18.2957C85.5204 18.2957 84.9343 18.3963 84.3874 18.5817Z" fill="#CEDEE7"/>
<path fill-rule="evenodd" clip-rule="evenodd" d="M66.097 27.5044C65.6903 24.179 62.875 21.6045 59.4628 21.6045C55.7713 21.6045 52.7785 24.618 52.7785 28.3356C52.7785 28.9455 52.859 29.5365 53.0101 30.0982C52.9533 30.099 52.897 30.101 52.8411 30.1043L52.7782 30.0991V30.1085C50.8636 30.2534 49.3544 31.8638 49.3544 33.8291C49.3544 35.7943 50.8636 37.4048 52.7782 37.5496V37.5608H77.1151V37.5604H77.1152C78.607 37.5604 79.8164 36.3423 79.8164 34.84C79.8164 33.3376 78.607 32.1197 77.1152 32.1197H77.1151V32.1196L70.9493 31.6077C70.9774 31.4222 70.992 31.2323 70.992 31.039C70.992 28.9783 69.3333 27.3078 67.287 27.3078C66.8707 27.3078 66.4705 27.3769 66.097 27.5044Z" fill="#EAF7FE"/>
<path fill-rule="evenodd" clip-rule="evenodd" d="M21.0085 28.23C21.4151 24.9046 24.2304 22.3301 27.6426 22.3301C31.3342 22.3301 34.327 25.3436 34.327 29.0612C34.327 29.6711 34.2465 30.262 34.0954 30.8238C34.1522 30.8246 34.2084 30.8266 34.2644 30.8299L34.3273 30.8247V30.8341C36.2419 30.979 37.751 32.5894 37.751 34.5547C37.751 36.5199 36.2419 38.1304 34.3273 38.2752V38.2863H9.99033V38.286H9.99025C8.4985 38.286 7.28906 37.0679 7.28906 35.5656C7.28906 34.0632 8.4985 32.8453 9.99025 32.8453H9.99033V32.8452L16.1562 32.3333C16.128 32.1478 16.1134 31.9579 16.1134 31.7645C16.1134 29.7039 17.7722 28.0334 19.8185 28.0334C20.2348 28.0334 20.635 28.1025 21.0085 28.23Z" fill="#CEDEE7"/>
<path fill-rule="evenodd" clip-rule="evenodd" d="M29.7737 76.3634C29.7737 78.1657 28.3125 79.6272 26.5101 79.6272C24.7073 79.6272 23.2461 78.1657 23.2461 76.3634C23.2461 74.5611 24.7073 73.0996 26.5101 73.0996C28.3125 73.0996 29.7737 74.5611 29.7737 76.3634Z" fill="black"/>
<path d="M73.6526 93.7706C73.6526 95.5729 72.1915 97.0344 70.3888 97.0344C68.5865 97.0344 67.125 95.5729 67.125 93.7706C67.125 91.9679 68.5865 90.5068 70.3888 90.5068C72.1915 90.5068 73.6526 91.9679 73.6526 93.7706Z" fill="#444444"/>
<path fill-rule="evenodd" clip-rule="evenodd" d="M91.7848 80.7154C91.7848 88.7266 85.2903 95.2209 77.2791 95.2209C69.268 95.2209 62.7734 88.7266 62.7734 80.7154C62.7734 72.7041 69.268 66.2095 77.2791 66.2095C85.2903 66.2095 91.7848 72.7041 91.7848 80.7154Z" fill="#D39E00"/>
<path fill-rule="evenodd" clip-rule="evenodd" d="M33.0387 64.7591C33.0387 72.7704 26.5443 79.2648 18.5328 79.2648C10.5218 79.2648 4.02734 72.7704 4.02734 64.7591C4.02734 56.7478 10.5218 50.2534 18.5328 50.2534C26.5443 50.2534 33.0387 56.7478 33.0387 64.7591Z" fill="#D39E00"/>
<path fill-rule="evenodd" clip-rule="evenodd" d="M92.1488 81.6219C92.1488 89.5329 85.7355 95.9461 77.8242 95.9461C69.9132 95.9461 63.5 89.5329 63.5 81.6219C63.5 73.7106 69.9132 67.2974 77.8242 67.2974C85.7355 67.2974 92.1488 73.7106 92.1488 81.6219Z" fill="#F6C854"/>
<path fill-rule="evenodd" clip-rule="evenodd" d="M78.3695 70.9568C72.189 70.9568 67.1608 75.9851 67.1608 82.1656C67.1608 88.3462 72.189 93.3745 78.3695 93.3745C84.5504 93.3745 89.5786 88.3462 89.5786 82.1656C89.5786 75.9851 84.5504 70.9568 78.3695 70.9568ZM78.37 93.7702C71.9711 93.7702 66.7656 88.5642 66.7656 82.1656C66.7656 75.7666 71.9711 70.561 78.37 70.561C84.7689 70.561 89.9747 75.7666 89.9747 82.1656C89.9747 88.5642 84.7689 93.7702 78.37 93.7702Z" fill="#FFE99F"/>
<path fill-rule="evenodd" clip-rule="evenodd" d="M43.555 93.862C22.5195 100.533 14.9062 89.0562 14.9062 89.0562L40.9485 91.4209L43.555 93.862Z" fill="#137E84"/>
<path fill-rule="evenodd" clip-rule="evenodd" d="M71.1153 31.5774C71.1153 42.8933 61.9418 52.0665 50.626 52.0665C39.3102 52.0665 30.1367 42.8933 30.1367 31.5774C30.1367 20.2615 39.3102 11.0879 50.626 11.0879C61.9418 11.0879 71.1153 20.2615 71.1153 31.5774Z" fill="#F6C854"/>
<path fill-rule="evenodd" clip-rule="evenodd" d="M50.6258 15.4675C41.9431 15.4675 34.8793 22.5313 34.8793 31.2144C34.8793 39.8971 41.9431 46.9609 50.6258 46.9609C59.3089 46.9609 66.3727 39.8971 66.3727 31.2144C66.3727 22.5313 59.3089 15.4675 50.6258 15.4675ZM50.6257 47.3518C41.7276 47.3518 34.4883 40.1125 34.4883 31.2144C34.4883 22.316 41.7276 15.0767 50.6257 15.0767C59.5238 15.0767 66.7635 22.316 66.7635 31.2144C66.7635 40.1125 59.5238 47.3518 50.6257 47.3518Z" fill="#FFE99F"/>
<path fill-rule="evenodd" clip-rule="evenodd" d="M105.697 83.8375L106.985 86.6177C106.985 86.6177 129.141 89.2939 137.244 64.6116C137.244 64.6116 139.464 59.2535 134.724 56.026C129.984 52.7981 128.314 59.3465 128.314 59.3465C128.314 59.3465 126.875 77.3097 105.697 83.8375Z" fill="#EC0000"/>
<path fill-rule="evenodd" clip-rule="evenodd" d="M81.9951 87.8545C81.3938 88.2736 80.3851 88.6932 79.1045 88.6932C77.533 88.6932 76.1361 88.0744 75.1661 86.916C74.4288 86.0773 73.9438 84.9195 73.769 83.4819H72.5664V82.5032H73.6719V82.2041C73.6719 81.8844 73.6917 81.5848 73.7109 81.3055H72.5664V80.307H73.8468C74.0796 78.9092 74.6614 77.7512 75.4378 76.9329C76.4272 75.8741 77.6881 75.2754 79.2791 75.2754C80.4239 75.2754 81.316 75.6146 81.8593 75.9146L81.4714 77.232C80.9861 76.9329 80.1715 76.6731 79.2983 76.6731C78.2506 76.6731 77.3969 77.0526 76.7374 77.7712C76.1553 78.3501 75.7674 79.2488 75.5733 80.307H80.9861V81.3055H75.3987C75.3795 81.565 75.36 81.8646 75.36 82.1439V82.5032H80.9861V83.4819H75.4958C75.6509 84.6397 76.0393 85.4984 76.5628 86.0972C77.2809 86.8761 78.2506 87.2553 79.2983 87.2553C80.3266 87.2553 81.219 86.856 81.6655 86.5965L81.9951 87.8545Z" fill="#FFE99F"/>
<path fill-rule="evenodd" clip-rule="evenodd" d="M32.3122 66.2098C32.3122 74.2201 25.8168 80.7155 17.8065 80.7155C11.4799 80.7155 6.09909 76.6652 4.11712 71.0176C3.93658 70.5073 3.78744 69.9814 3.66185 69.4438C3.64615 69.3653 3.63046 69.2868 3.61083 69.2083V69.2043C3.49702 68.651 3.41067 68.0819 3.35965 67.505C3.3204 67.0772 3.30078 66.6454 3.30078 66.2098C3.30078 65.625 3.3361 65.0442 3.40675 64.479C3.41067 64.4319 3.4146 64.3887 3.42245 64.3456C3.48132 63.8746 3.56374 63.4154 3.6697 62.9641C3.84631 62.1791 4.08965 61.4177 4.39185 60.6917C6.56221 55.4169 11.7507 51.7041 17.8065 51.7041C25.8168 51.7041 32.3122 58.1995 32.3122 66.2098Z" fill="#F6C854"/>
<path fill-rule="evenodd" clip-rule="evenodd" d="M18.1701 53.9077C11.5867 53.9077 6.23082 59.264 6.23082 65.8474C6.23082 72.4304 11.5867 77.7863 18.1701 77.7863C24.7535 77.7863 30.1094 72.4304 30.1094 65.8474C30.1094 59.264 24.7535 53.9077 18.1701 53.9077ZM18.1697 78.1768C11.3711 78.1768 5.83984 72.6459 5.83984 65.8473C5.83984 59.0483 11.3711 53.5171 18.1697 53.5171C24.9683 53.5171 30.4995 59.0483 30.4995 65.8473C30.4995 72.6459 24.9683 78.1768 18.1697 78.1768Z" fill="#FFE99F"/>
<path d="M101.394 84.9025C101.216 85.5545 103.333 85.8007 103.333 85.8007C103.333 85.8007 97.5409 86.4207 101.106 88.1829C102.923 89.0813 107.343 86.3562 107.343 86.3562L106.267 84.2512C106.267 84.2512 101.571 84.25 101.394 84.9025Z" fill="#FFC4B8"/>
<path fill-rule="evenodd" clip-rule="evenodd" d="M72.8353 87.4465L72.6379 86.6356C74.2313 86.2067 75.8313 85.9974 77.394 86.0143L77.3912 86.8511C75.8961 86.8348 74.3633 87.0354 72.8353 87.4465ZM64.6335 91.615L64.1661 90.9801C65.5011 89.9906 66.8701 89.1359 68.2348 88.4395L68.5903 89.1436C67.2642 89.8204 65.9329 90.652 64.6335 91.615ZM57.9713 98.0828L57.3671 97.5796C58.4274 96.3226 59.5241 95.1473 60.6272 94.0858L61.1747 94.6496C60.0913 95.6917 59.0136 96.8468 57.9713 98.0828ZM52.6427 105.737L51.9653 105.335C52.8083 103.947 53.6871 102.608 54.5771 101.353L55.2236 101.802C54.3444 103.041 53.4761 104.365 52.6427 105.737ZM48.3588 114.046L47.6385 113.722C48.3204 112.255 49.0305 110.825 49.7494 109.468L50.4514 109.829C49.7392 111.173 49.0349 112.592 48.3588 114.046ZM44.8985 122.743L44.1508 122.481C44.7019 120.976 45.2792 119.49 45.8668 118.064L46.603 118.355C46.0194 119.772 45.4456 121.248 44.8985 122.743Z" fill="white"/>
<path fill-rule="evenodd" clip-rule="evenodd" d="M69.567 91.3028L69.1851 90.6068C70.628 89.7952 72.1291 89.1848 73.6467 88.7919L73.8403 89.5638C72.3882 89.9392 70.9506 90.5245 69.567 91.3028ZM62.6546 97.3671L62.043 96.8723C63.0949 95.5873 64.214 94.4235 65.3678 93.413L65.8879 94.0022C64.7668 94.984 63.6787 96.1161 62.6546 97.3671ZM57.8038 105.281L57.0902 104.944C57.8086 103.469 58.5823 102.064 59.3914 100.767L60.0652 101.176C59.271 102.449 58.5101 103.831 57.8038 105.281ZM54.5374 114.015L53.7759 113.793C54.2504 112.245 54.7711 110.735 55.3248 109.304L56.0684 109.58C55.5214 110.993 55.0063 112.485 54.5374 114.015ZM52.4446 123.127L51.6586 122.989C51.9561 121.405 52.2901 119.848 52.6512 118.361L53.4289 118.538C53.0709 120.012 52.7396 121.556 52.4446 123.127ZM51.2471 132.411L50.4467 132.339C50.6069 130.749 50.7973 129.171 51.0132 127.648L51.8096 127.752C51.595 129.264 51.4056 130.832 51.2471 132.411Z" fill="white"/>
<path fill-rule="evenodd" clip-rule="evenodd" d="M69.9022 96.6181L69.2839 96.1318C70.401 94.7279 71.5387 93.4532 72.6657 92.3427L73.2198 92.8997C72.116 93.9875 70.9998 95.2387 69.9022 96.6181ZM64.5131 104.93L63.8206 104.554C64.6554 103.06 65.5393 101.607 66.4472 100.234L67.1087 100.661C66.2115 102.017 65.3381 103.454 64.5131 104.93ZM60.3737 113.947L59.6344 113.665C60.2548 112.101 60.9321 110.545 61.6465 109.039L62.3655 109.368C61.658 110.859 60.988 112.4 60.3737 113.947ZM57.433 123.425L56.6593 123.239C57.0707 121.623 57.5423 119.996 58.0613 118.402L58.8204 118.638C58.3067 120.215 57.8396 121.826 57.433 123.425ZM55.7739 133.203L54.9754 133.123C55.1586 131.479 55.4065 129.805 55.7125 128.148L56.5025 128.284C56.1997 129.922 55.9543 131.578 55.7739 133.203Z" fill="white"/>
<path fill-rule="evenodd" clip-rule="evenodd" d="M109.376 77.1834C109.031 77.4733 108.587 77.4345 108.39 77.0953L108.358 77.05C108.271 76.8953 108.176 76.7423 108.086 76.5914C108.039 76.5154 107.99 76.4323 107.941 76.3597C104.899 71.4667 101.542 69.8292 98.2302 71.6434C95.2063 73.2918 93.0239 77.3095 92.3974 80.2874C92.2423 81.0016 92.1748 81.6584 92.2131 82.2058C92.2407 82.6407 91.9412 83.0792 91.5401 83.1874L91.4784 83.1978L90.8934 80.6682C91.5288 76.9569 94.2693 72.1341 97.7982 70.2115C100.642 68.6648 104.95 68.3265 109.328 75.5337C109.41 75.6684 109.494 75.81 109.578 75.9516L109.606 76.0012L109.601 76.075C109.798 76.4141 109.721 76.8932 109.376 77.1834Z" fill="#137E84"/>
<path fill-rule="evenodd" clip-rule="evenodd" d="M96.0693 94.5814L95.994 94.5564L78.4435 89.2611C78.4879 89.2412 78.5518 89.1869 78.6231 89.1087L78.6874 89.0325C78.9278 88.7402 79.2379 88.2012 79.4792 87.574C79.5234 87.4642 79.5615 87.3451 79.5993 87.2263C79.6724 87.0035 79.7349 86.7695 79.7754 86.5345L79.7777 86.5304C79.8353 86.2152 79.8576 85.8918 79.8311 85.5858C79.8199 85.4345 79.7983 85.2823 79.7605 85.1383L94.317 87.8673L94.9105 87.9782L95.4694 91.4836L95.4746 91.515L95.5559 92.0749L95.5987 92.3613L95.9161 93.7576L96.0597 94.3972L96.0693 94.5814Z" fill="#137E84"/>
<path d="M112.052 93.8371L96.9694 97.6507C96.09 97.8741 95.2014 97.488 94.7439 96.7583C94.7022 96.7018 94.6697 96.6392 94.6374 96.5762C94.5623 96.4394 94.5117 96.2883 94.4723 96.1268L94.0871 94.4688L94.0506 94.303L93.9693 93.9446L93.8895 93.6038L93.0668 90.0692L91.4747 83.1979L90.8897 80.6683L92.3937 80.2875L106.856 76.6338L107.937 76.3598L108.438 76.2342L109.574 75.9516L110.965 79.1468L113.89 90.7532C114.244 92.114 113.412 93.4938 112.052 93.8371Z" fill="#34466B"/>
<path fill-rule="evenodd" clip-rule="evenodd" d="M79.7638 87.6629C79.1734 88.728 78.4542 89.4583 78.1575 89.2938C77.8607 89.1293 78.042 88.5947 78.6289 87.0338C79.0573 85.8935 79.4618 84.9737 79.7586 85.1382C80.0554 85.3027 80.3544 86.5975 79.7638 87.6629Z" fill="black"/>
<path d="M83.8097 85.4295L83.8086 85.4283L84.1712 85.0669L83.8097 85.4295Z" fill="#137E84"/>
<path fill-rule="evenodd" clip-rule="evenodd" d="M120.342 92.1642L120.008 114.048L124.302 141.713L127.682 141.861L129.37 116.239L135.326 91.0327L120.342 92.1642Z" fill="#34466B"/>
<path fill-rule="evenodd" clip-rule="evenodd" d="M127.668 93.5934L130.941 115.195L138.805 141.861L142.172 141.542L140.549 115.984L142.29 90.3364L127.668 93.5934Z" fill="#34466B"/>
<path fill-rule="evenodd" clip-rule="evenodd" d="M134.123 47.0094C135.648 45.9694 136.674 44.2431 136.744 42.2593C136.859 38.9495 134.266 36.1684 130.956 36.0528C127.9 35.9461 125.295 38.1489 124.822 41.0928C124.747 41.3986 124.689 41.7084 124.646 42.0187L124.646 42.0192L124.644 42.026L124.644 42.0284C124.631 42.1213 124.62 42.2141 124.61 42.3068L124.035 46.9201L124.964 47.2676L124.974 47.2701L124.974 47.2702C124.994 47.3516 125.006 47.3956 125.006 47.3956L125.009 48.0225L125.015 49.1942C125.017 49.5819 125.085 49.9642 125.213 50.3258C125.303 50.581 125.425 50.8267 125.576 51.0561C125.754 51.3253 125.969 51.5687 126.211 51.7764C126.337 51.8854 126.472 51.9834 126.613 52.0714C126.688 52.1182 126.762 52.1613 126.84 52.202L126.841 52.2023L126.181 59.4978C126.181 59.4978 128.293 60.2153 130.647 59.7867C132.07 59.5303 133.584 58.8521 134.773 57.3463C134.773 57.3463 133.633 51.4764 134.123 47.0094Z" fill="#FFC4B8"/>
<path fill-rule="evenodd" clip-rule="evenodd" d="M130.629 59.702C132.075 59.4448 133.61 58.7657 134.811 57.259C134.811 57.259 133.517 50.9686 134.153 46.4504C134.153 46.4504 130.551 54.3969 130.629 59.702ZM124.964 47.2951C125.298 47.4027 125.637 47.1549 125.625 46.8122L125.549 44.6025L124.964 47.2951Z" fill="#F4A48D"/>
<path d="M132.717 43.5161C133.151 42.9922 133.721 42.7371 134.193 42.9176C134.866 43.1744 135.091 44.2163 134.694 45.2428C134.556 45.6003 134.361 45.9092 134.137 46.149C134.112 46.4589 134.096 46.7641 134.088 47.0637C134.968 46.3843 135.823 45.4745 136.249 44.3719C137.576 40.9337 136.336 37.6454 132.298 36.1043C129.266 34.9473 125.917 36.1428 124.359 38.7883L124.671 39.3238L124.672 39.319L124.725 39.3066L130.28 37.9735L131.546 41.8806L131.001 42.7987L128.585 46.864C128.417 47.1487 128.176 47.3765 127.893 47.5301C127.678 47.6476 127.44 47.7238 127.189 47.7499L127.188 47.7492C127.108 47.7571 127.028 47.761 126.947 47.7591C126.817 47.7568 126.689 47.7406 126.564 47.7128L125.531 47.4764C125.433 47.4538 125.333 47.4374 125.233 47.4247C125.052 47.4026 124.869 47.3983 124.687 47.4105C124.683 47.4109 124.68 47.4097 124.677 47.4123L124.687 47.4143C124.714 47.4952 124.729 47.5391 124.729 47.5391L124.774 48.1704L126.173 48.4353C126.21 48.4421 126.243 48.4513 126.277 48.4643C126.455 48.5319 126.591 48.6804 126.641 48.8663C126.699 49.0866 126.621 49.3183 126.442 49.4588L125.263 50.3804L125.138 50.4795C125.247 50.7319 125.389 50.9731 125.56 51.1965C125.761 51.4584 125.999 51.6927 126.262 51.8895C126.4 51.9928 126.545 52.0846 126.696 52.1659L126.762 52.1365C126.825 52.1079 126.891 52.0783 126.953 52.0476C128.731 51.2098 130.216 49.9131 131.265 48.3119C131.645 47.734 131.968 47.1161 132.225 46.4657C132.252 46.3983 132.279 46.3302 132.304 46.26L132.304 46.2595C132.008 45.8037 131.97 45.054 132.256 44.3123L132.267 44.2858L132.27 44.277L132.277 44.2595L132.281 44.2492L132.288 44.2332L132.292 44.2227L132.299 44.2065L132.304 44.1966L132.312 44.1774L132.315 44.1709L132.326 44.1461L132.33 44.1368L132.338 44.1208L132.343 44.1102L132.35 44.0957L132.355 44.0847L132.362 44.0704L132.367 44.0598L132.375 44.0442L132.379 44.0352L132.391 44.0118L132.396 44.0026L132.404 43.9876L132.409 43.9769L132.417 43.9636L132.423 43.9526L132.43 43.9396L132.436 43.9289L132.443 43.9153L132.449 43.9054L132.462 43.8832L132.467 43.8747L132.475 43.8602L132.481 43.8499L132.489 43.8374L132.495 43.8268L132.503 43.8146L132.509 43.8041L132.517 43.7917L132.524 43.7818L132.534 43.7661L132.537 43.7603L132.541 43.7541L132.552 43.739L132.558 43.7294L132.566 43.7173L132.573 43.7073L132.581 43.6957L132.588 43.6859L132.596 43.674L132.603 43.6648L132.613 43.651L132.618 43.6439L132.632 43.6241L132.638 43.6159L132.648 43.6036L132.654 43.5947L132.663 43.5833L132.67 43.5744L132.679 43.5629L132.686 43.5545L132.696 43.5414L132.702 43.5349L132.717 43.5161Z" fill="#9BC3D3"/>
<path fill-rule="evenodd" clip-rule="evenodd" d="M116.908 95.9819C122.848 96.7632 127.335 97.1925 130.369 97.2696C133.404 97.3468 137.849 97.1446 143.707 96.6631C143.016 73.1196 139.942 58.6674 134.484 53.3066C134.484 53.3066 128.118 54.8842 125.875 54.6419C125.875 54.6419 122.886 68.4219 116.908 95.9819Z" fill="#EC0000"/>
<path fill-rule="evenodd" clip-rule="evenodd" d="M97.1338 72.6837C96.8519 71.9548 99.2625 71.3839 99.2625 71.3839C99.2625 71.3839 95.2296 69.1107 97.5868 68.5667C99.9439 68.0228 103.762 70.3283 103.762 70.3283L102.831 72.7762C102.831 72.7762 97.416 73.4128 97.1338 72.6837Z" fill="#FFC4B8"/>
<path fill-rule="evenodd" clip-rule="evenodd" d="M124.277 76.6403C118.866 81.1215 101.952 72.8407 101.952 72.8407L102.667 69.9973L118.897 70.8882L130.775 58.9227C130.775 58.9227 134.039 54.2083 136.214 56.9281C138.39 59.648 138.028 61.6425 138.028 61.6425C138.028 61.6425 129.687 72.1591 124.277 76.6403Z" fill="#CC0000"/>
<path fill-rule="evenodd" clip-rule="evenodd" d="M135.701 54.7489L129.398 58.221L127.28 55.4532L126.131 56.8201L124.988 54.9312L126.602 53.5942C126.602 53.5942 126.838 54.6543 129.559 53.9837C132.299 53.3092 133.961 52.6486 133.961 52.6486L135.701 54.7489Z" fill="#990000"/>
<path fill-rule="evenodd" clip-rule="evenodd" d="M124.36 140.294L127.667 140.294L127.92 144.681L122.98 144.972L119.834 144.994L120.357 142.557L124.36 140.294Z" fill="black"/>
<path fill-rule="evenodd" clip-rule="evenodd" d="M138.94 140.491L134.609 142.752L134.783 144.982L142.848 144.444L142.105 140.032L138.94 140.491Z" fill="black"/>
<path fill-rule="evenodd" clip-rule="evenodd" d="M21.7959 71.8985C21.1946 72.3175 20.1859 72.7371 18.9053 72.7371C17.3338 72.7371 15.9369 72.1183 14.9669 70.9599C14.2296 70.1213 13.7446 68.9635 13.5697 67.5258H12.3672V66.5471H13.4727V66.2481C13.4727 65.9283 13.4925 65.6287 13.5117 65.3494H12.3672V64.3509H13.6475C13.8804 62.9532 14.4622 61.7951 15.2385 60.9768C16.228 59.9181 17.4889 59.3193 19.0799 59.3193C20.2247 59.3193 21.1168 59.6586 21.6601 59.9585L21.2721 61.2759C20.7869 60.9768 19.9723 60.7171 19.0991 60.7171C18.0514 60.7171 17.1977 61.0965 16.5381 61.8152C15.9561 62.3941 15.5682 63.2927 15.3741 64.3509H20.7869V65.3494H15.1995C15.1803 65.6089 15.1608 65.9085 15.1608 66.1878V66.5471H20.7869V67.5258H15.2966C15.4516 68.6837 15.8401 69.5424 16.3636 70.1411C17.0817 70.92 18.0514 71.2992 19.0991 71.2992C20.1273 71.2992 21.0198 70.9 21.4662 70.6405L21.7959 71.8985Z" fill="#FFE99F"/>
<path fill-rule="evenodd" clip-rule="evenodd" d="M55.5219 38.309C54.7587 38.8413 53.4784 39.3743 51.853 39.3743C49.8584 39.3743 48.0854 38.5882 46.8543 37.1168C45.9185 36.0515 45.3029 34.5807 45.081 32.7546H43.5547V31.5114H44.9578V31.1314C44.9578 30.7253 44.9829 30.3447 45.0074 29.9899H43.5547V28.7216H45.1797C45.4753 26.9461 46.2137 25.475 47.1991 24.4355C48.455 23.0906 50.0553 22.3301 52.0746 22.3301C53.5276 22.3301 54.66 22.761 55.3495 23.142L54.8571 24.8154C54.2413 24.4355 53.2073 24.1056 52.0991 24.1056C50.7692 24.1056 49.6857 24.5876 48.8486 25.5005C48.1099 26.2359 47.6175 27.3773 47.3712 28.7216H54.2413V29.9899H47.1496C47.1251 30.3195 47.1004 30.7001 47.1004 31.0549V31.5114H54.2413V32.7546H47.2727C47.4696 34.2253 47.9626 35.3161 48.627 36.0767C49.5385 37.0661 50.7692 37.5477 52.0991 37.5477C53.4041 37.5477 54.5368 37.0406 55.1035 36.711L55.5219 38.309Z" fill="#FFE99F"/>
</svg>
