<svg width="160" height="160" viewBox="0 0 160 160" fill="none" xmlns="http://www.w3.org/2000/svg">
<path fill-rule="evenodd" clip-rule="evenodd" d="M79.0146 20.0973C60.5195 33.4321 45.4343 29.5679 35.3453 27.9105C15.2143 24.6022 7.71073 43.4641 15.0541 57.783C22.3979 72.1015 28.5497 89.5234 10.876 103.337C-6.79716 117.151 13.0956 152.097 41.58 142.458C70.0641 132.817 102.221 134.18 116.875 144.603C131.531 155.027 163.857 130.66 138.28 106.12C112.702 81.58 129.398 71.1286 138.13 59.9647C146.863 48.8004 143.289 28.2272 118.853 18.204C118.853 18.204 97.5101 6.76292 79.0146 20.0973Z" fill="#EAF7FE"/>
<path fill-rule="evenodd" clip-rule="evenodd" d="M77.7215 150.26C37.9834 150.26 5.76953 146.302 5.76953 141.42C5.76953 136.538 37.9834 132.581 77.7215 132.581C117.46 132.581 149.673 136.538 149.673 141.42C149.673 146.302 117.46 150.26 77.7215 150.26Z" fill="#CEDEE7"/>
<path fill-rule="evenodd" clip-rule="evenodd" d="M97.1172 57.3508C97.1172 66.3324 104.121 73.6133 112.76 73.6133C121.399 73.6133 128.402 66.3324 128.402 57.3508C128.402 48.3693 121.399 41.0884 112.76 41.0884C104.121 41.0884 97.1172 48.3693 97.1172 57.3508Z" fill="#D39E00"/>
<path fill-rule="evenodd" clip-rule="evenodd" d="M99.0469 57.3516C99.0469 66.3319 106.051 73.6139 114.689 73.6139C116.114 73.6139 117.494 73.4161 118.805 73.0434C125.448 71.1657 130.332 64.8511 130.332 57.3516C130.332 48.3698 123.329 41.0879 114.689 41.0879C110.394 41.0879 106.503 42.8888 103.676 45.805C100.817 48.751 99.0469 52.8365 99.0469 57.3516Z" fill="#FFE99F"/>
<path fill-rule="evenodd" clip-rule="evenodd" d="M99.0469 57.3513C99.0469 66.3316 106.051 73.6136 114.689 73.6136C116.114 73.6136 117.494 73.4158 118.805 73.0431L103.676 45.8047C100.817 48.7507 99.0469 52.8362 99.0469 57.3513Z" fill="#F6C854"/>
<path fill-rule="evenodd" clip-rule="evenodd" d="M105.817 74.3476L105.242 71.3737L107.018 69.3447L107.947 70.1901L107.52 72.2932L107.98 72.8023L107.479 74.9521C107.479 74.9521 105.811 74.3068 105.817 74.3476Z" fill="#F4A48D"/>
<path fill-rule="evenodd" clip-rule="evenodd" d="M129 68.3241L129.218 65.2212L126.709 63.2783L125.656 64.6545L126.79 66.6784L126.385 67.7308L127.498 69.402L129 68.3241Z" fill="#F4A48D"/>
<path fill-rule="evenodd" clip-rule="evenodd" d="M109.219 103.44L109.016 120.995L110.887 143.594H113.43L116.474 122.744L119.955 101.859L109.219 103.44Z" fill="#34466B"/>
<path fill-rule="evenodd" clip-rule="evenodd" d="M113.415 144.667L110.665 146.043L109.289 144.667L110.665 143.292H113.415V144.667Z" fill="black"/>
<path fill-rule="evenodd" clip-rule="evenodd" d="M126.658 103.44L126.708 113.596L124.993 143.594H122.449L118.194 123.688L115.922 101.859L126.658 103.44Z" fill="#34466B"/>
<path fill-rule="evenodd" clip-rule="evenodd" d="M122.465 144.667L125.216 146.043L126.591 144.667L125.216 143.292H122.465V144.667Z" fill="black"/>
<path fill-rule="evenodd" clip-rule="evenodd" d="M128.645 113.403C128.518 113.418 128.396 113.361 128.284 113.307C127.104 112.734 126.263 111.924 125.1 111.37C123.882 110.79 122.496 110.486 121.142 110.276C119.123 109.954 117.071 109.76 115.038 109.742C113.292 109.727 111.475 110.523 109.824 110.962C109.189 111.13 108.672 111.593 108.144 111.957C107.364 112.493 107.022 112.706 107.128 111.609C107.302 109.821 107.482 108.032 107.702 106.248C108.141 102.691 108.738 99.1411 109.749 95.6968C110.136 94.3811 110.581 93.0837 111.027 91.7867C111.569 90.2072 112.111 88.628 112.654 87.0486C113.328 85.0857 114.085 84.1939 116.207 83.1332C117.319 82.5772 119.028 82.4593 121.334 82.7796C123.603 85.7 125.039 87.7205 125.642 88.8413C126.435 90.3143 127.434 94.3321 127.73 95.9204C128.087 97.8318 128.417 99.7343 128.677 101.632C128.964 103.733 129.167 105.828 129.225 107.912C129.232 108.142 129.278 108.786 129.304 109.555C129.359 111.167 129.324 113.322 128.645 113.403Z" fill="#34466B"/>
<path fill-rule="evenodd" clip-rule="evenodd" d="M118.684 83.65L116.209 83.2962C116.209 83.2962 112.986 96.2854 112.85 98.5083C112.717 100.69 111.785 109.539 111.785 109.539C111.785 109.539 115.592 109.628 119.979 110.163C124.267 111.081 124.627 110.538 124.627 110.538C124.627 110.538 122.943 105.818 122.574 98.5075C122.327 93.6336 121.915 88.3863 121.336 82.7656L118.684 83.65Z" fill="white"/>
<path fill-rule="evenodd" clip-rule="evenodd" d="M119.433 83.6636H117.74C117.345 83.6636 117.121 84.1162 117.361 84.4302L118.056 85.3407L116.207 102.392L118.482 104.628L120.046 101.973L119.62 85.3407L119.895 84.2584C119.972 83.9567 119.744 83.6636 119.433 83.6636Z" fill="#2A8FEC"/>
<path fill-rule="evenodd" clip-rule="evenodd" d="M129.938 80.3407L126.708 69.4306L129.37 67.5215L135.795 80.1513L134.018 84.5252L125.681 88.8288L121.156 82.7795L129.938 80.3407Z" fill="#34466B"/>
<path fill-rule="evenodd" clip-rule="evenodd" d="M120.954 78.6165C122.516 77.9685 123.629 76.2985 123.629 74.3426C123.629 71.8249 121.784 69.7808 119.512 69.7808C117.714 69.7808 116.184 71.0607 115.623 72.8424L115.616 72.8442L114.541 76.3991L114.64 76.4417L114.691 76.4639L115.327 76.6013L115.33 78.4684L115.361 78.5816C115.411 78.7384 115.481 78.8906 115.57 79.0336C115.673 79.2008 115.801 79.3535 115.947 79.4853C116.022 79.5544 116.104 79.617 116.19 79.6734C116.235 79.7039 116.28 79.7317 116.327 79.7579C116.364 79.7789 116.4 79.7984 116.438 79.8164L116.553 79.8726L116.187 83.9897C116.187 83.9897 118.064 84.4364 118.933 84.2568L119.049 84.231C119.88 84.0517 120.704 83.7704 121.4 82.9123C121.4 82.9123 121.398 82.9027 121.395 82.8842L121.4 82.8777C121.4 82.8777 121.335 82.5659 121.254 82.0567C121.129 81.2444 120.969 79.9521 120.954 78.6165Z" fill="#F4A48D"/>
<path fill-rule="evenodd" clip-rule="evenodd" d="M116.49 80.8041C117.019 80.6444 118.135 80.0164 118.973 78.9947L116.581 79.8496C116.581 79.8496 116.535 80.3375 116.49 80.8041ZM115.217 76.5619C115.433 76.634 115.654 76.4706 115.648 76.2434L115.611 74.7788L115.217 76.5619Z" fill="#A66555"/>
<path fill-rule="evenodd" clip-rule="evenodd" d="M120.948 78.7641L121.587 78.41C122.351 77.9663 122.999 77.3048 123.423 76.4609C124.585 74.1492 123.632 71.3432 121.296 70.1934C119.192 69.1584 116.682 69.8194 115.357 71.6512L115.882 72.0729C116.001 72.0385 116.199 71.9834 116.44 71.9215C117.309 71.6947 118.749 71.3741 119.2 71.592C119.861 71.9113 119.83 73.1135 119.73 74.0674C119.632 75.0004 119.543 75.4055 119.97 75.5887C120.127 75.6559 120.223 74.8679 120.582 74.6311C120.962 74.381 121.446 74.6356 121.375 75.4923C121.258 75.8816 121.167 76.2653 121.1 76.64C120.986 77.3102 120.945 78.0411 120.948 78.7641Z" fill="#767676"/>
<path fill-rule="evenodd" clip-rule="evenodd" d="M116.207 83.1335L107.437 83.1912L108.23 74.427L105.595 73.4688L102.418 84.0335L103.909 87.2202L113.035 89.8884L116.207 83.1335Z" fill="#34466B"/>
<path d="M32 85.6008C32 85.6008 32.2313 83.3308 38.7437 83.5496C45.2566 83.7687 54.6871 82.0683 60.7844 81.9344C67.8352 81.7798 74.8293 83.0569 74.8293 83.0569L64.2865 98.1214H42.0881L32 85.6008Z" fill="#767676"/>
<path fill-rule="evenodd" clip-rule="evenodd" d="M75.1407 68.5248C68.6793 78.903 60.8358 88.269 57.3137 99.3671C51.5789 97.7814 45.8531 96.1953 40.0703 94.6036C43.0413 83.3917 43.9477 72.0362 46.5088 60.1133C55.9691 61.5138 64.8398 64.0011 73.5889 67.3895L75.1407 68.5248Z" fill="#8AD7C4"/>
<path fill-rule="evenodd" clip-rule="evenodd" d="M74.6116 67.1962C67.9047 77.2702 61.3257 87.5164 57.6189 98.428L58.7436 98.7184L59.0767 97.7376C53.1283 96.1997 47.1885 94.6617 41.1891 93.118L40.8573 94.0993L41.9957 94.345C43.5521 88.8541 44.5621 83.3506 45.5157 77.7868C46.4692 72.2226 47.3662 66.5976 48.6855 60.8557L47.5358 60.6545L47.352 61.6651C57.0645 63.0094 66.1719 65.3955 75.1761 68.6553L75.6256 67.7102L74.6116 67.1962L75.6256 67.7102L76.0751 66.7651C66.9287 63.4535 57.6331 61.0157 47.7196 59.644L46.6071 59.4902L46.3858 60.4535C45.0488 66.2728 44.1474 71.9344 43.1962 77.484C42.2452 83.0344 41.2443 88.4724 39.7188 93.8538L39.4492 94.8038L40.5254 95.0808C46.5226 96.6237 52.4614 98.1616 58.4103 99.6994L59.5348 99.9902L59.8679 99.009C62.3458 91.705 66.1851 84.6342 70.5219 77.6577C72.4859 74.4981 74.552 71.358 76.6398 68.2242L77.3128 67.2133L76.0751 66.7651L75.6256 67.7102L74.6116 67.1962Z" fill="#2C9891"/>
<path d="M57.7204 74.2392C62.8725 75.6657 65.4908 79.9161 63.7249 83.4513C61.9463 87.0049 57.419 88.9694 53.3261 87.8267C49.2537 86.6714 46.3609 82.6999 46.9774 78.8819C47.6082 75.0822 52.5645 72.8438 57.7204 74.2392Z" fill="#2C9891"/>
<path d="M41.3086 95.2575C42.5087 95.5895 43.7029 95.92 44.8958 96.2517C45.4599 94.4033 44.2322 92.4493 42.141 91.8901C41.8919 93.017 41.6177 94.1397 41.3086 95.2575Z" fill="#2C9891"/>
<path d="M53.4204 77.6049C52.6904 77.4739 52.1855 77.8851 51.9116 78.8275C51.6324 79.776 51.8233 80.3289 52.4699 80.4908C52.8668 80.5883 53.2012 80.5104 53.4725 80.251C53.7514 79.9923 54.1493 79.434 54.6883 78.574C55.2248 77.7147 55.8497 77.138 56.5656 76.8509C57.2783 76.565 58.0969 76.5379 59.0033 76.7768C60.0568 77.0556 60.7318 77.6177 61.0036 78.4455C61.2804 79.2727 61.213 80.1171 60.8356 80.9842C59.9195 83.0739 58.4047 83.9887 56.2715 83.7547C56.4251 83.1527 56.5811 82.552 56.7362 81.9505C57.876 82.1072 58.6657 81.6294 59.1237 80.5116C59.553 79.4644 59.2891 78.8081 58.3213 78.5537C57.8943 78.442 57.5279 78.4866 57.2241 78.6911C56.9216 78.8941 56.4691 79.4401 55.8935 80.3289C55.3163 81.2158 54.7182 81.8083 54.0967 82.1079C53.4736 82.4063 52.812 82.4651 52.0919 82.2852C51.3263 82.0904 50.7465 81.6542 50.3535 80.9722C49.9598 80.2914 49.8904 79.4259 50.1682 78.3759C50.7095 76.2917 51.9721 75.4088 53.898 75.7688C53.7378 76.3811 53.5795 76.993 53.4204 77.6049Z" fill="#8AD7C4"/>
<path d="M51.2407 79.0842C51.0887 79.4072 50.9359 79.7301 50.7867 80.0518C50.1138 79.9596 49.438 79.868 48.7578 79.7775C48.8927 79.4539 49.0276 79.1304 49.1596 78.8057C49.8603 78.8982 50.554 78.9908 51.2407 79.0842Z" fill="#8AD7C4"/>
<path d="M62.4125 81.6142C62.1816 81.9242 61.9527 82.234 61.7262 82.544C61.1254 82.4405 60.5274 82.339 59.9297 82.2385C60.1401 81.9249 60.3538 81.6115 60.5705 81.2979C61.1825 81.4024 61.7963 81.5074 62.4125 81.6142Z" fill="#8AD7C4"/>
<path d="M57.931 99.3674C58.3601 98.1689 58.8201 96.978 59.3091 95.7943C56.9224 95.1864 54.4113 96.3065 53.7227 98.2971C55.1243 98.6539 56.5274 99.0109 57.931 99.3674Z" fill="#2C9891"/>
<path fill-rule="evenodd" clip-rule="evenodd" d="M76.6896 67.2457C73.7275 66.4728 70.7635 65.7569 67.7777 65.0981C66.3352 67.1769 68.9257 69.6009 73.6167 70.7058C74.642 69.5512 75.6736 68.3979 76.6896 67.2457Z" fill="#2C9891"/>
<path d="M46.0241 60.7363C45.676 61.9468 45.3452 63.1478 45.0312 64.3414C49.4037 64.8651 53.4388 63.8115 54.342 61.7997C51.6061 61.3853 48.8325 61.0295 46.0241 60.7363Z" fill="#2C9891"/>
<path d="M51.5756 90.6989C52.2464 90.9022 52.6265 91.5979 52.432 92.2539C52.2359 92.9092 51.5547 93.2814 50.9035 93.083C50.2521 92.885 49.8681 92.1906 50.0417 91.5294C50.2184 90.869 50.9049 90.4972 51.5756 90.6989Z" fill="#2C9891"/>
<path d="M61.01 68.9241C62.0343 69.1829 62.6247 69.9196 62.3473 70.5527C62.0664 71.1846 61.0634 71.4869 60.0942 71.2463C59.1287 71.0043 58.5149 70.2957 58.7368 69.6462C58.965 68.9996 59.9859 68.6658 61.01 68.9241Z" fill="#2C9891"/>
<path fill-rule="evenodd" clip-rule="evenodd" d="M59.2146 96.2519C53.2595 95.4618 47.3117 94.6703 41.3086 93.883C42.5353 82.5879 41.6842 71.423 42.3943 59.4904C49.0464 59.5719 57.2573 59.0293 63.6543 60.1134C66.5232 60.5997 67.6228 62.3448 70.4822 63.0089C64.1664 77.6654 60.4105 88.7464 59.2146 96.2519Z" fill="#8AD7C4"/>
<path fill-rule="evenodd" clip-rule="evenodd" d="M69.7722 61.8314C64.9854 72.8611 60.3438 84.0479 58.5395 95.5411L59.6549 95.6912L59.8172 94.6579C53.9177 93.8625 48.0249 93.0657 42.0759 92.2728L41.9155 93.3061L43.0371 93.4091C43.6507 87.6656 43.743 81.9786 43.7722 76.2379C43.8012 70.497 43.767 64.7019 44.1165 58.735L42.9912 58.6785L42.9759 59.7225C49.2743 59.8011 58.2064 60.504 69.7722 61.8314L70.8177 62.2211L71.0959 61.2093C61.8752 59.0326 52.6501 57.7544 43.0063 57.6346L41.924 57.6211L41.8656 58.622C41.5118 64.6694 41.5474 70.502 41.5182 76.2281C41.4895 81.9548 41.3957 87.5744 40.794 93.2034L40.6875 94.1975L41.7551 94.3397C47.7008 95.1322 53.5925 95.9288 59.4924 96.7244L60.6081 96.8749L60.7701 95.8411C62.5203 84.6641 67.0818 73.6185 71.8632 62.6105L72.3439 61.5036L71.0959 61.2093L70.8177 62.2211L69.7722 61.8314Z" fill="#2C9891"/>
<path d="M41.3086 93.9074C42.5423 94.0658 43.7721 94.2241 45.0006 94.3825C45.2755 92.5789 43.7654 90.903 41.6166 90.644C41.5424 91.7314 41.4433 92.8192 41.3086 93.9074Z" fill="#2C9891"/>
<path d="M58.6567 96.2521C58.8492 95.0164 59.0661 93.7841 59.3098 92.5559C57.2153 92.2477 55.2611 93.6607 54.9648 95.7109C56.1951 95.891 57.4274 96.0709 58.6567 96.2521Z" fill="#2C9891"/>
<path fill-rule="evenodd" clip-rule="evenodd" d="M62.7248 59.4902C61.9076 61.9375 65.0152 64.3535 69.1803 65.0979C69.8227 63.7163 70.4692 62.7362 71.1044 61.3595C68.4602 60.806 65.3667 59.9151 62.7248 59.4902Z" fill="#2C9891"/>
<path d="M42.1185 58.2441C42.0389 59.4992 41.977 60.7427 41.9297 61.9771C46.0663 62.0837 49.5713 60.6322 49.999 58.5154C47.3937 58.3611 44.7652 58.2686 42.1185 58.2441Z" fill="#2C9891"/>
<path fill-rule="evenodd" clip-rule="evenodd" d="M32 85.5898C32 85.5898 32.2313 81.7113 38.7437 81.9303C45.2566 82.1498 52.199 84.8578 58.2912 85.1331C67.0199 85.5271 74.8293 83.0437 74.8293 83.0437L64.2865 98.1214H42.0881L32 85.5898Z" fill="#9BC3D3"/>
<path fill-rule="evenodd" clip-rule="evenodd" d="M76.7151 119.927C73.4044 112.429 68.3135 104.594 63.6203 97.498H40.9469C36.3053 104.594 31.6227 112.528 27.956 119.927C20.1338 135.714 24.5915 140.917 33.771 144.646C40.5802 147.413 64.0899 147.413 70.8991 144.646C80.08 140.917 82.3947 132.79 76.7151 119.927Z" fill="#9BC3D3"/>
<path d="M65.5146 97.6796C65.5146 97.9233 65.0589 98.1212 64.4981 98.1212H39.2208C38.658 98.1212 38.2031 97.9233 38.2031 97.6796V97.3166C38.2031 97.0729 38.658 96.875 39.2208 96.875H64.4981C65.0589 96.875 65.5146 97.0729 65.5146 97.3166V97.6796Z" fill="#DEEDF2"/>
<path fill-rule="evenodd" clip-rule="evenodd" d="M59.2855 132.026C58.361 132.656 56.8102 133.286 54.8412 133.286C52.4251 133.286 50.2774 132.356 48.7861 130.617C47.6524 129.357 46.9068 127.618 46.638 125.459H44.7891V123.989H46.4888V123.539C46.4888 123.059 46.5192 122.609 46.5488 122.19H44.7891V120.69H46.7576C47.1156 118.59 48.01 116.851 49.2037 115.622C50.725 114.032 52.6635 113.132 55.1097 113.132C56.8698 113.132 58.2414 113.642 59.0767 114.092L58.4802 116.071C57.7342 115.622 56.4817 115.232 55.1393 115.232C53.5284 115.232 52.2159 115.802 51.2018 116.881C50.307 117.751 49.7105 119.1 49.4121 120.69H57.7342V122.19H49.1437C49.1141 122.579 49.0841 123.029 49.0841 123.449V123.989H57.7342V125.459H49.2929C49.5313 127.198 50.1286 128.487 50.9334 129.387C52.0375 130.557 53.5284 131.126 55.1393 131.126C56.7201 131.126 58.0922 130.526 58.7787 130.137L59.2855 132.026Z" fill="#DEEDF2"/>
<path fill-rule="evenodd" clip-rule="evenodd" d="M70.1009 22.8524C69.5203 18.1365 65.501 14.4854 60.6296 14.4854C55.3593 14.4854 51.0866 18.7591 51.0866 24.0312C51.0866 24.8961 51.2015 25.7342 51.4172 26.5309C51.3362 26.5319 51.2558 26.5348 51.176 26.5395L51.0861 26.5321V26.5455C48.3528 26.7509 46.1982 29.0348 46.1982 31.8218C46.1982 34.6088 48.3528 36.8927 51.0861 37.0981V37.1139H85.831V37.1134H85.8311C87.9608 37.1134 89.6875 35.386 89.6875 33.2554C89.6875 31.1248 87.9608 29.3976 85.8311 29.3976H85.831V29.3975L77.0282 28.6715C77.0684 28.4085 77.0893 28.1392 77.0893 27.865C77.0893 24.9427 74.7211 22.5736 71.7997 22.5736C71.2055 22.5736 70.6341 22.6716 70.1009 22.8524Z" fill="#CEDEE7"/>
<path fill-rule="evenodd" clip-rule="evenodd" d="M20.2184 43.2588C20.6432 39.7955 23.5842 37.1143 27.1486 37.1143C31.0049 37.1143 34.1313 40.2528 34.1313 44.1245C34.1313 44.7597 34.0472 45.3751 33.8894 45.9602C33.9487 45.961 34.0074 45.9631 34.0659 45.9665L34.1316 45.9611V45.9709C36.1316 46.1218 37.7081 47.799 37.7081 49.8457C37.7081 51.8924 36.1316 53.5697 34.1316 53.7205V53.7321H8.70854V53.7317H8.70846C7.15013 53.7317 5.88672 52.4632 5.88672 50.8985C5.88672 49.3339 7.15013 48.0655 8.70846 48.0655H8.70854V48.0653L15.1496 47.5322C15.1202 47.3391 15.1049 47.1413 15.1049 46.9399C15.1049 44.7938 16.8377 43.054 18.9753 43.054C19.4102 43.054 19.8282 43.126 20.2184 43.2588Z" fill="#CEDEE7"/>
</svg>
