<svg width="160" height="160" viewBox="0 0 160 160" fill="none" xmlns="http://www.w3.org/2000/svg">
<path fill-rule="evenodd" clip-rule="evenodd" d="M59.24 130.293C59.8626 130.296 60.4834 130.288 61.1025 130.271C73.5633 129.929 85.5412 133.799 95.4077 140.965C101.396 145.314 108.804 147.875 116.931 147.902C138.216 147.972 156.272 130.768 157.395 109.345C157.891 99.8947 154.982 91.2225 149.749 84.4772C145.269 78.7022 143 71.4252 143.552 63.926C143.56 63.8294 143.566 63.7327 143.572 63.6364C144.344 51.0062 134.879 40.7969 122.331 40.7313C122.259 40.7307 122.187 40.7308 122.115 40.7313C118.73 40.7457 115.648 39.0448 113.9 36.2155C103.932 20.0843 86.1857 9.44097 65.439 9.3753C32.2896 9.27061 3.97897 36.2816 2.2688 69.6459C0.55762 103.037 26.0642 130.189 59.24 130.293Z" fill="#EAF7FE"/>
<mask id="mask0_1483_87223" style="mask-type:luminance" maskUnits="userSpaceOnUse" x="2" y="9" width="156" height="139">
<path fill-rule="evenodd" clip-rule="evenodd" d="M59.24 130.293C59.8626 130.296 60.4834 130.288 61.1025 130.271C73.5633 129.929 85.5412 133.799 95.4077 140.965C101.396 145.314 108.804 147.875 116.931 147.902C138.216 147.972 156.272 130.768 157.395 109.345C157.891 99.8947 154.982 91.2225 149.749 84.4772C145.269 78.7022 143 71.4252 143.552 63.926C143.56 63.8294 143.566 63.7327 143.572 63.6364C149.749 21.4728 119.24 9.54558 65.439 9.3753C32.2896 9.27061 3.97897 36.2816 2.2688 69.6459C0.55762 103.037 26.0642 130.189 59.24 130.293Z" fill="white"/>
</mask>
<g mask="url(#mask0_1483_87223)">
<path d="M98.8376 191.969L45.0933 183.754C39.1246 182.839 35.0264 177.265 35.9398 171.302L57.8526 28.2884C58.7661 22.3259 64.3451 18.2317 70.3152 19.1443L124.058 27.3619C130.028 28.2753 134.126 33.8485 133.211 39.8109L111.299 182.826C110.386 188.789 104.807 192.882 98.8376 191.969Z" fill="#9E3667"/>
<path d="M128.985 45.3823L108.729 177.585C108.099 181.695 102.986 184.321 98.8746 183.693L39.6739 174.641C35.5602 174.011 32.7395 170.172 33.3691 166.062L53.6253 33.86C54.2549 29.7495 58.0966 26.9254 62.2113 27.5544L121.41 36.6067C125.522 37.2352 129.614 41.2722 128.985 45.3823Z" fill="white"/>
<path fill-rule="evenodd" clip-rule="evenodd" d="M107.706 31.6113C108.7 31.7636 109.63 31.0812 109.782 30.0881C109.935 29.094 109.252 28.1659 108.258 28.0137C107.264 27.8623 106.334 28.5439 106.181 29.5379C106.029 30.531 106.712 31.46 107.706 31.6113ZM81.2473 26.6847C81.7648 26.764 82.2491 26.4087 82.3288 25.8906C82.4084 25.3725 82.0527 24.8887 81.5343 24.8094C81.0158 24.7302 80.5315 25.0856 80.4528 25.6036C80.3723 26.1216 80.7288 26.6055 81.2473 26.6847ZM78.6875 25.3333C78.6083 25.8506 78.124 26.2069 77.6064 26.1276C77.0876 26.0474 76.7323 25.5644 76.8119 25.0464C76.8911 24.5282 77.3754 24.173 77.893 24.2523C78.4114 24.3315 78.7671 24.8154 78.6875 25.3333ZM88.7227 27.3791L97.4251 28.7093C97.7016 28.7521 97.9597 28.5626 98.0017 28.2863C98.0437 28.01 97.8538 27.7522 97.5777 27.7102L88.8754 26.3798C88.6002 26.338 88.3417 26.5267 88.2988 26.803C88.2568 27.0791 88.4458 27.3372 88.7227 27.3791Z" fill="#DEEDF2"/>
<path fill-rule="evenodd" clip-rule="evenodd" d="M98.8294 191.939L45.0852 183.723C39.1168 182.809 35.0186 177.236 35.932 171.273L57.8449 28.2586C58.7584 22.2961 64.3374 18.2019 70.3075 19.1146L124.05 27.3321C130.02 28.2455 134.118 33.8187 133.204 39.7811L111.292 182.796C110.378 188.759 104.799 192.852 98.8294 191.939Z" fill="#9E3667"/>
<path fill-rule="evenodd" clip-rule="evenodd" d="M95.5208 191.466L41.7766 183.247C35.808 182.336 31.71 176.76 32.6234 170.796L54.5402 27.753C55.4546 21.7894 61.0336 17.6942 67.0028 18.6067L120.747 26.8249C126.716 27.7368 130.814 33.3118 129.9 39.2755L107.983 182.318C107.069 188.283 101.489 192.378 95.5208 191.466Z" fill="white"/>
<path fill-rule="evenodd" clip-rule="evenodd" d="M88.1685 145.192L107.855 148.201L104.839 167.871L85.1523 164.864L88.1685 145.192ZM65.5699 141.737L85.2557 144.746L82.2396 164.416L62.5547 161.409L65.5699 141.737ZM42.9732 138.281L62.6589 141.289L59.6437 160.96L39.957 157.953L42.9732 138.281Z" fill="#CEDEE7"/>
<path fill-rule="evenodd" clip-rule="evenodd" d="M107.698 31.5801C108.692 31.7323 109.622 31.05 109.774 30.0568C109.926 29.0628 109.244 28.1347 108.25 27.9825C107.256 27.8311 106.326 28.5126 106.173 29.5066C106.022 30.4998 106.703 31.4287 107.698 31.5801ZM81.2394 26.6535C81.757 26.7327 82.2413 26.3774 82.3209 25.8594C82.4006 25.3413 82.0449 24.8575 81.5264 24.7781C81.008 24.6989 80.5237 25.0544 80.4449 25.5724C80.3644 26.0904 80.721 26.5742 81.2394 26.6535ZM78.6801 25.3021C78.6005 25.8194 78.1162 26.1756 77.5986 26.0964C77.0802 26.0162 76.7245 25.5332 76.8041 25.0151C76.8837 24.497 77.368 24.1418 77.8856 24.221C78.404 24.3002 78.7597 24.7842 78.6801 25.3021ZM88.7149 27.3479L97.4172 28.6781C97.6937 28.7208 97.9519 28.5313 97.9939 28.255C98.0359 27.9788 97.846 27.721 97.5699 27.6789L88.8676 26.3486C88.5924 26.3067 88.3339 26.4955 88.291 26.7718C88.249 27.0478 88.438 27.3059 88.7149 27.3479Z" fill="#DEEDF2"/>
<path d="M128.973 45.3506L125.75 66.3896L50.3906 54.8671L53.6141 33.8283C54.2441 29.7179 58.0854 26.8934 62.2001 27.5228L121.399 36.5751C125.511 37.2035 129.603 41.2404 128.973 45.3506Z" fill="#2A8FEC"/>
<path fill-rule="evenodd" clip-rule="evenodd" d="M119.412 107.477L44.0402 95.9185L37.3945 139.376L112.765 150.934L119.412 107.477Z" fill="#9BC3D3"/>
<path fill-rule="evenodd" clip-rule="evenodd" d="M119.457 107.539L44.0859 95.9723L50.3693 54.9033L125.739 66.4695L119.457 107.539Z" fill="#DEEDF2"/>
</g>
<path fill-rule="evenodd" clip-rule="evenodd" d="M82.8556 116.177C82.7974 117.292 81.8463 118.148 80.7316 118.09L25.7356 115.208C24.6209 115.149 23.7647 114.198 23.8231 113.084L27.5533 41.908C27.6117 40.7934 28.5625 39.9371 29.6773 39.9955L84.6734 42.8777C85.7877 42.9362 86.6444 43.8872 86.5857 45.0019L82.8556 116.177Z" fill="#CEDEE7"/>
<path fill-rule="evenodd" clip-rule="evenodd" d="M82.9922 113.641C82.9357 114.718 81.9863 115.543 80.8716 115.485L25.8757 112.603C24.7609 112.544 23.9032 111.624 23.9597 110.547L27.563 41.7916C27.6194 40.7148 28.5686 39.8893 29.6834 39.9477L84.6796 42.83C85.7939 42.8884 86.6518 43.8085 86.5954 44.8852L82.9922 113.641Z" fill="#34466B"/>
<path fill-rule="evenodd" clip-rule="evenodd" d="M27.4609 108.37L79.6378 111.104L82.9891 47.1577L30.8122 44.4233L27.4609 108.37Z" fill="white"/>
<path fill-rule="evenodd" clip-rule="evenodd" d="M52.9585 38.8515C53.7057 37.1229 55.4693 35.9558 57.4603 36.0602C59.4514 36.1645 61.0828 37.5095 61.6455 39.3067L70.9301 39.7933C72.5803 39.8798 73.8482 41.2878 73.7616 42.9382L73.486 48.1981L40.2539 46.4564L40.5295 41.1966C40.616 39.5462 42.0241 38.2784 43.6743 38.3649L52.9585 38.8515Z" fill="#CEDEE7"/>
<path fill-rule="evenodd" clip-rule="evenodd" d="M40.2539 46.4572L73.4861 48.1989L73.6782 44.5379L40.4458 42.7964L40.2539 46.4572Z" fill="#9BC3D3"/>
<path fill-rule="evenodd" clip-rule="evenodd" d="M58.7072 39.3485C58.6661 40.1322 57.9976 40.7343 57.2136 40.6932C56.4301 40.6522 55.8281 39.9834 55.8692 39.1998C55.9103 38.4161 56.5788 37.8139 57.3624 37.855C58.1464 37.8961 58.7479 38.5648 58.7072 39.3485Z" fill="#2A8FEC"/>
<path fill-rule="evenodd" clip-rule="evenodd" d="M36.8145 87.6886C36.6121 91.5491 39.5778 94.843 43.4384 95.0451L64.4095 96.1446C68.2705 96.3467 71.564 93.3809 71.7665 89.5204L72.8655 68.5492C73.0677 64.6883 70.1023 61.3948 66.2414 61.1922L45.2702 60.0932C41.4096 59.8911 38.1158 62.8565 37.9135 66.7174L36.8145 87.6886Z" fill="#DEEDF2"/>
<path fill-rule="evenodd" clip-rule="evenodd" d="M76.2651 66.8952L49.9276 90.6615L35.9414 75.1018L41.3086 70.2771L50.4613 80.4595L71.4303 61.5376L76.2651 66.8952Z" fill="#2C9891"/>
<path d="M40.3477 120.363L41.0232 116.008L80.7027 118.077L40.3477 120.363Z" fill="#34466B"/>
<path fill-rule="evenodd" clip-rule="evenodd" d="M113.321 85.1915C112.421 91.0684 106.922 95.1039 101.038 94.204C95.1559 93.3041 91.1164 87.8112 92.0159 81.9343C92.9181 76.0574 98.4166 72.0223 104.3 72.9218C110.184 73.8209 114.222 79.315 113.321 85.1915Z" fill="#CEDEE7"/>
<path fill-rule="evenodd" clip-rule="evenodd" d="M107.669 124.999C106.769 130.876 101.269 134.912 95.3862 134.012C89.5035 133.112 85.4641 127.619 86.3636 121.742C87.2657 115.865 92.7642 111.83 98.6482 112.729C104.531 113.628 108.569 119.123 107.669 124.999Z" fill="#DEEDF2"/>
</svg>
