<svg width="160" height="161" viewBox="0 0 160 161" fill="none" xmlns="http://www.w3.org/2000/svg">
<path fill-rule="evenodd" clip-rule="evenodd" d="M62.0585 128.425C61.6378 128.005 61.2251 127.579 60.8205 127.149C52.6728 118.49 41.8782 112.839 30.1798 110.714C23.0793 109.425 16.2852 106.037 10.7952 100.548C-3.58427 86.174 -3.6006 62.9932 10.7595 48.599C17.0942 42.2495 25.1717 38.7013 33.4544 37.9537C40.5453 37.3134 47.2075 34.22 52.1272 29.0734C52.1906 29.0071 52.2544 28.9413 52.3183 28.876C60.7107 20.3152 74.2867 20.2305 82.7809 28.6896C82.8296 28.7379 82.8779 28.7866 82.9257 28.8353C85.1947 31.138 88.4698 32.1436 91.6432 31.5274C109.736 28.0143 129.194 33.2637 143.207 47.2764C165.598 69.6669 165.598 106.035 143.207 128.426C120.798 150.834 84.4669 150.834 62.0585 128.425Z" fill="#EAF7FE"/>
<path fill-rule="evenodd" clip-rule="evenodd" d="M28.7412 124.853L45.7237 154.365H140.941C154.161 154.365 162.424 140.005 155.814 128.518L132.528 88.0481C121.753 69.3156 99.8171 60.1325 78.9654 65.6258L50.2198 73.1978C27.8354 79.0903 17.1694 104.739 28.7412 124.853Z" fill="#34466B"/>
<path fill-rule="evenodd" clip-rule="evenodd" d="M50.935 81.3404C50.965 81.4868 51.0583 81.9177 51.1787 82.468C51.737 85.02 53.7686 86.9829 56.3312 87.4598C62.4115 88.5914 73.8119 88.8156 83.1758 78.1073C83.1776 77.9711 73.249 52.7082 72.6706 50.9264C72.1765 49.4063 71.8387 48.0499 71.6265 47.0625C71.4033 46.0248 70.9552 37.8564 70.9552 37.8564L70.0449 46.8854L66.3358 51.2751L66.0092 51.6588L65.7193 52.0002L63.2389 54.9402L49.307 71.4092C49.307 71.4092 49.7905 75.6957 50.935 81.3404Z" fill="#FFC4B8"/>
<path d="M50.7578 81.2083C50.7585 81.2078 50.7585 81.2075 50.7583 81.2072C50.6901 80.902 50.6241 80.601 50.5603 80.3052C50.6239 80.6014 50.6897 80.9027 50.7578 81.2083Z" fill="#2A8FEC"/>
<path fill-rule="evenodd" clip-rule="evenodd" d="M51.1217 81.2082C60.5988 77.5513 62.7361 73.5591 65.1133 59.0806L58.5306 71.1387C56.7454 74.3181 53.5386 76.1015 50.211 76.2556C50.4056 77.4316 50.6424 78.7718 50.9252 80.2209C50.9886 80.5444 51.0543 80.8733 51.1222 81.2069C51.1223 81.2073 51.1223 81.2076 51.1224 81.2079" fill="#F4A48D"/>
<path fill-rule="evenodd" clip-rule="evenodd" d="M75.7186 35.5493C73.8742 49.014 61.4603 58.4368 47.9966 56.5921C42.8165 55.8825 38.2311 53.6031 34.6576 50.3052L42.2039 50.2717L41.1077 37.3369L40.7681 33.3352L31.0813 34.2124L26.8379 34.5987C26.7809 34.0021 26.7442 33.3985 26.7327 32.7891C26.7239 32.4825 26.7266 32.1797 26.729 31.8705C26.7442 30.8798 26.8164 29.8763 26.9545 28.8691C28.7991 15.4038 41.2078 5.98514 54.6765 7.83111C59.0484 8.42912 62.9942 10.1421 66.2673 12.6456C70.9359 16.2134 74.2371 21.3902 75.4425 27.2258C75.9951 29.8903 76.109 32.7004 75.7186 35.5493Z" fill="#767676"/>
<path fill-rule="evenodd" clip-rule="evenodd" d="M27.8479 36.9533L22.9879 24.4173C22.2304 22.4212 22.826 20.1665 24.4713 18.8039L25.2301 18.1743C24.159 17.1397 24.871 15.3291 26.3607 15.2976L48.7541 14.8257L64.6602 25.9376L27.8479 36.9533Z" fill="#767676"/>
<path fill-rule="evenodd" clip-rule="evenodd" d="M30.1636 59.536C30.3721 60.0176 30.5996 60.4924 30.8486 60.9591C31.6557 62.494 32.677 63.9171 33.8895 65.1844L36.1664 67.5827L37.5998 69.0901L37.739 69.2324L37.809 69.3083C39.361 70.942 41.2174 72.7347 43.234 74.3897C48.0993 78.385 55.3619 77.0275 58.4295 71.5103L67.9717 53.8579L72.7891 44.9506C72.7891 44.9506 70.6919 42.685 69.9698 42.5833L69.049 44.0772L61.7648 27.7845L51.2469 25.7053C48.4858 25.1603 45.6835 25.0712 42.9444 25.4162C38.8357 25.9345 34.8713 27.4267 31.3932 29.8255C28.8783 31.5584 27.459 34.4926 27.6473 37.5537L28.6255 53.0945C28.7633 55.3299 29.2903 57.5066 30.1636 59.536Z" fill="#FFC4B8"/>
<path fill-rule="evenodd" clip-rule="evenodd" d="M65.6128 36.053C65.6128 36.053 59.4855 37.4851 52.3014 36.7365C45.8487 36.0641 41.0192 30.4725 41.184 23.9557L41.3008 19.3413L62.7596 21.8381C62.7596 21.8381 74.0116 37.5854 65.6128 36.053Z" fill="#767676"/>
<path fill-rule="evenodd" clip-rule="evenodd" d="M27.1801 60.4355L30.7379 59.7633L33.39 59.2585L35.3086 58.8958L31.9077 39.7132L27.5822 39.6626L27.1801 60.4355Z" fill="#FFC4B8"/>
<path fill-rule="evenodd" clip-rule="evenodd" d="M70.8849 41.2697C71.3479 37.9133 70.1503 34.9785 68.21 34.7144C66.2698 34.4504 64.3214 36.9574 63.8585 40.3137C63.3955 43.6701 64.593 46.6049 66.5334 46.869C68.4736 47.133 70.422 44.6261 70.8849 41.2697Z" fill="#FFC4B8"/>
<path d="M30.7905 59.9838L33.4818 59.5492C33.4879 59.5436 33.4939 59.5379 33.5 59.5322L33.2274 59.5759L30.7918 59.9692L30.7905 59.9838Z" fill="#FFC4B8"/>
<path fill-rule="evenodd" clip-rule="evenodd" d="M30.7936 59.9836L33.2021 59.5231L33.4717 59.472C34.2297 58.6236 34.5896 57.4349 34.3141 56.2145L32.224 46.8877L30.7936 59.9836Z" fill="#F4A48D"/>
<path fill-rule="evenodd" clip-rule="evenodd" d="M65.1098 94.7557C65.1098 94.7557 72.0022 65.7119 80.2116 61.79L88.1406 66.1319L84.9128 87.5153L65.1098 94.7557Z" fill="#34466B"/>
<path d="M21.7087 158.034C21.8601 158.034 22.0104 158.032 22.1606 158.027L30.832 157.745L25.6934 151.799L13.6842 153.671L14.8977 156.298L16.0792 156.832C17.8249 157.623 19.7542 158.034 21.7087 158.034Z" fill="#F4A48D"/>
<path fill-rule="evenodd" clip-rule="evenodd" d="M18.0117 158.85L6.08798 124.863C5.52509 123.259 6.22854 121.253 7.35433 121.253H33.7015C34.224 121.253 34.7068 121.712 34.968 122.457L46.8918 156.444C47.4546 158.048 46.751 160.053 45.6253 160.053H19.278C18.7555 160.053 18.2726 159.595 18.0117 158.85Z" fill="#CCCCCC"/>
<path fill-rule="evenodd" clip-rule="evenodd" d="M27.9224 151.44V151.194L29.3263 151.214C30.7108 151.233 31.8716 150.29 31.9736 149.063L31.9966 148.787C32.0929 147.64 31.2281 146.602 29.9664 146.349L29.9824 145.274C30.0077 143.596 28.6163 142.166 26.7444 141.948L20.5873 141.23L20.6882 140.909C21.2686 139.066 20.0895 137.149 18.0329 136.59L11.8275 134.904C10.8778 134.646 9.85696 135.031 9.40618 135.817L8.94509 136.618C8.43352 137.51 8.8258 138.601 9.82484 139.062L12.0133 140.073L11.5144 140.93C10.6771 142.369 10.6346 144.072 11.3985 145.544L11.7036 146.129C10.7688 147.35 10.6645 148.928 11.4307 150.238L11.7656 150.809L11.9239 152.762C12.0535 154.357 13.2154 155.738 14.8981 156.298L26.7742 152.849C27.459 152.65 27.9224 152.082 27.9224 151.44Z" fill="#FFC4B8"/>
<path d="M59.9167 106.875L58.7567 104.856C58.6683 104.702 58.6072 104.537 58.5732 104.368L58.5248 104.453C58.2377 104.952 58.2377 105.568 58.5247 106.068L59.4528 107.683C59.7398 108.183 59.7398 108.798 59.4528 109.298L59.4043 109.382C59.3703 109.213 59.3092 109.048 59.2208 108.894L57.8288 106.471C57.7403 106.317 57.6792 106.152 57.6453 105.983L57.5968 106.068C57.3107 106.566 57.3098 107.179 57.594 107.678L58.5248 109.298C58.8119 109.798 58.8119 110.413 58.5248 110.913L58.4763 110.997C58.4424 110.828 58.3812 110.663 58.2928 110.509L57.1328 108.49C56.9772 108.22 56.9062 107.915 56.9192 107.613C55.6774 107.939 54.8203 108.631 54.8203 109.433C54.8203 110.548 56.4788 111.451 58.5248 111.451C60.5707 111.451 62.2292 110.548 62.2292 109.433C62.2292 108.631 61.3722 107.939 60.1303 107.613C60.1193 107.357 60.0483 107.104 59.9167 106.875Z" fill="#2A8FEC"/>
<path fill-rule="evenodd" clip-rule="evenodd" d="M84.6311 114.375H52.0922C51.1653 114.375 50.4141 113.624 50.4141 112.697V93.6799C50.4141 92.7533 51.1653 92.0024 52.0922 92.0024H84.6311C85.558 92.0024 86.3092 92.7533 86.3092 93.6799V112.697C86.3092 113.624 85.558 114.375 84.6311 114.375Z" fill="#2A8FEC"/>
<path fill-rule="evenodd" clip-rule="evenodd" d="M55.9673 101.522H53.9255C53.5589 101.522 53.2617 101.819 53.2617 102.186V104.228C53.2617 104.594 53.5589 104.891 53.9255 104.891H55.9673C56.3339 104.891 56.6311 104.594 56.6311 104.228V102.186C56.6311 101.819 56.3339 101.522 55.9673 101.522Z" fill="#CEDEE7"/>
<path fill-rule="evenodd" clip-rule="evenodd" d="M76.6211 107.711H83.4946V108.745H76.6211V107.711ZM68.8516 107.711H75.7251V108.745H68.8516V107.711ZM61.0781 107.711H67.9517V108.745H61.0781V107.711ZM53.2617 107.711H60.1353V108.744H53.2617V107.711ZM56.6992 110.699H59.3498V112.046H56.6992V110.699ZM53.2852 110.699H55.9357V112.046H53.2852V110.699Z" fill="#2274C0"/>
<path fill-rule="evenodd" clip-rule="evenodd" d="M81.4454 96.5792C81.4751 96.2864 81.4133 95.9864 81.2598 95.7238L81.0544 95.3722L80.2323 93.9656C80.154 93.8315 80.0996 93.6877 80.069 93.54L80.0269 93.614C79.7776 94.052 79.7806 94.5898 80.0348 95.0249L80.0349 95.0252L80.8878 96.4846C80.8872 96.4845 80.8866 96.4844 80.886 96.4844C81.1109 96.9097 81.1043 97.4223 80.865 97.8428L80.8228 97.9168C80.7922 97.7692 80.7378 97.6253 80.6595 97.4912L80.7365 97.6231L80.043 96.4363L79.4079 95.3497L79.4265 95.3814C79.3481 95.2473 79.2937 95.1035 79.2631 94.9558L79.221 95.0298C78.9717 95.4677 78.9747 96.0056 79.2289 96.4407L79.229 96.441L79.2558 96.4867L79.8455 97.4958L79.8456 97.4959L80.051 97.8474C80.3054 98.2827 80.3084 98.8206 80.059 99.2586L80.017 99.3327C79.9864 99.1849 79.9319 99.0411 79.8536 98.907L79.9307 99.0388L78.8261 97.1488L78.8259 97.1486C78.7251 96.976 78.664 96.7873 78.6423 96.5951C77.4317 96.8763 76.5897 97.5002 76.5938 98.22C76.5993 99.1941 78.1526 99.9751 80.0631 99.9642C81.9736 99.9533 83.5178 99.1547 83.5122 98.1805C83.5081 97.4608 82.6591 96.8466 81.4454 96.5792Z" fill="white"/>
<path fill-rule="evenodd" clip-rule="evenodd" d="M86.926 97.6194C85.5755 96.8628 83.9496 96.7859 82.5262 97.4112L73.2166 101.502C71.9947 102.039 71.4719 103.506 72.0784 104.698C72.6294 105.78 73.9192 106.24 75.0283 105.75L81.6321 102.83L69.8577 110.431C68.8317 111.094 68.514 112.46 69.1427 113.505C69.7553 114.523 71.0516 114.875 72.0956 114.307L77.0871 111.589L77.3924 112.202L72.7265 117.196C72.1277 117.837 72.0166 118.793 72.4433 119.547L72.4911 119.627C73.0978 120.591 74.3873 120.832 75.305 120.153C76.5133 119.259 78.1907 118.021 79.7319 116.895L80.4389 118.313L78.8427 121.439C78.52 122.071 78.627 122.834 79.102 123.345L79.1607 123.405C79.6752 123.906 80.4521 124.012 81.0851 123.669L82.6788 122.806L82.7972 123.044L84.7363 125.682C85.3813 126.561 86.0672 127.407 86.79 128.218C87.6783 129.215 88.6239 130.161 89.6217 131.049L95.8551 136.599C105.188 148.654 113.979 152.766 127.588 154.654L142.378 154.624C145.5 140.759 135.427 137.405 135.427 137.405L132.828 136.966C123.002 135.307 113.604 131.728 105.157 126.428L100.582 123.556L100.582 123.555L98.7221 111.192C98.3061 108.426 96.9141 105.913 94.806 104.115L94.6577 103.991L86.926 97.6194Z" fill="#FFC4B8"/>
</svg>
