<svg width="160" height="160" viewBox="0 0 160 160" fill="none" xmlns="http://www.w3.org/2000/svg">
<path fill-rule="evenodd" clip-rule="evenodd" d="M148.648 144.836C148.648 148.678 117.667 151.792 79.4491 151.792C41.2314 151.792 10.25 148.678 10.25 144.836C10.25 140.993 41.2314 137.879 79.4491 137.879C117.667 137.879 148.648 140.993 148.648 144.836Z" fill="#9BC3D3"/>
<path fill-rule="evenodd" clip-rule="evenodd" d="M97.9415 29.8482C98.3622 30.2691 98.7749 30.6949 99.1795 31.1254C107.327 39.7919 118.122 45.4482 129.82 47.5741C136.921 48.8645 143.715 52.256 149.205 57.7488C163.584 72.1354 163.601 95.3357 149.241 109.742C142.906 116.097 134.828 119.648 126.546 120.396C119.455 121.037 112.792 124.133 107.873 129.284C107.809 129.351 107.746 129.416 107.682 129.482C99.2892 138.05 85.7133 138.135 77.2191 129.668C77.1704 129.62 77.1221 129.571 77.0743 129.522C74.8053 127.218 71.5302 126.211 68.3568 126.828C50.264 130.344 30.8065 125.09 16.7932 111.066C-5.59775 88.6564 -5.59775 52.2576 16.7932 29.8479C39.2022 7.42072 75.5331 7.42085 97.9415 29.8482Z" fill="#DEEDF2"/>
<path fill-rule="evenodd" clip-rule="evenodd" d="M66.8389 18.3412C66.1937 13.0762 61.7271 9 56.3135 9C50.4566 9 45.7084 13.7713 45.7084 19.6572C45.7084 20.6228 45.8361 21.5585 46.0758 22.448C45.9858 22.4491 45.8965 22.4524 45.8077 22.4576L45.7079 22.4493V22.4642C42.6703 22.6936 40.2759 25.2434 40.2759 28.3549C40.2759 31.4664 42.6703 34.0162 45.7079 34.2455V34.2632H84.3198V34.2626H84.3199C86.6866 34.2626 88.6055 32.334 88.6055 29.9554C88.6055 27.5768 86.6866 25.6485 84.3199 25.6485H84.3198V25.6483L74.5373 24.8378C74.5819 24.5442 74.6051 24.2435 74.6051 23.9374C74.6051 20.6748 71.9734 18.0299 68.7268 18.0299C68.0664 18.0299 67.4315 18.1394 66.8389 18.3412Z" fill="#9BC3D3"/>
<path fill-rule="evenodd" clip-rule="evenodd" d="M80.5012 32.491C80.12 29.3625 77.4806 26.9404 74.2816 26.9404C70.8208 26.9404 68.015 29.7755 68.015 33.273C68.015 33.8468 68.0905 34.4027 68.2321 34.9312C68.1789 34.9319 68.1262 34.9339 68.0737 34.937L68.0147 34.932V34.9409C66.2198 35.0772 64.8049 36.5923 64.8049 38.4412C64.8049 40.29 66.2198 41.8051 68.0147 41.9414V41.9519H90.8308V41.9515H90.8309C92.2294 41.9515 93.3633 40.8056 93.3633 39.3922C93.3633 37.9788 92.2294 36.833 90.8309 36.833H90.8308V36.8329L85.0502 36.3513C85.0767 36.1768 85.0903 35.9982 85.0903 35.8163C85.0903 33.8776 83.5352 32.306 81.6168 32.306C81.2266 32.306 80.8514 32.3711 80.5012 32.491Z" fill="white"/>
<path fill-rule="evenodd" clip-rule="evenodd" d="M122.187 44.3005C123.833 43.091 124.902 41.1413 124.902 38.9439C124.902 35.2775 121.926 32.3008 118.259 32.3008C114.874 32.3008 112.077 34.8386 111.668 38.1139C111.596 38.4552 111.544 38.8002 111.508 39.1451L111.508 39.1457L111.507 39.1533L111.507 39.1559C111.496 39.2591 111.487 39.3623 111.479 39.4653L111.022 44.5914L112.063 44.94L112.074 44.9425L112.074 44.9425C112.1 45.0318 112.114 45.0801 112.114 45.0801L112.143 45.7735L112.194 47.0696C112.211 47.4985 112.301 47.9188 112.457 48.3139C112.566 48.5928 112.711 48.8599 112.887 49.1079C113.094 49.3988 113.341 49.6598 113.617 49.8803C113.761 49.996 113.913 50.0992 114.073 50.1911C114.158 50.2399 114.242 50.2848 114.329 50.3268L114.33 50.3271L113.883 58.4241C113.883 58.4241 116.246 59.1363 118.835 58.5712C120.399 58.2325 122.047 57.4238 123.305 55.7118C123.305 55.7118 121.816 49.2616 122.187 44.3005Z" fill="#FFC4B8"/>
<path fill-rule="evenodd" clip-rule="evenodd" d="M118.811 58.4755C120.376 58.1368 122.024 57.3281 123.281 55.6161C123.281 55.6161 121.672 48.7046 122.217 43.6817C122.217 43.6817 118.556 52.6087 118.811 58.4755ZM112.066 44.9691C112.43 45.0761 112.789 44.7897 112.765 44.4109L112.612 41.9692L112.066 44.9691Z" fill="#F4A48D"/>
<path fill-rule="evenodd" clip-rule="evenodd" d="M120.41 32.7363C117.49 32.6339 117.848 30.126 117.848 30.126C114.723 30.2285 113.391 31.4056 113.391 31.4056C110.881 33.4013 111.876 37.4052 111.876 37.4052C112.259 34.3838 116.887 35.672 118.699 35.9753C119.439 36.7013 119.153 38.4734 119.529 39.9671C119.536 39.9941 120.341 42.0157 120.341 42.0157L120.342 42.0181L120.387 42.2282C120.4 42.1938 120.414 42.1594 120.429 42.125C120.916 40.9722 121.908 40.2903 122.644 40.6004C123.381 40.9109 123.582 42.0969 123.095 43.2497C122.926 43.6513 122.497 43.9958 122.237 44.2611C122.035 45.9539 122.073 47.5261 122.216 48.8759L122.971 48.9086L125.687 36.0118C125.889 34.2854 125.119 33.4974 123.887 33.1198C122.928 32.8257 121.689 32.7811 120.41 32.7363Z" fill="#CEDEE7"/>
<path fill-rule="evenodd" clip-rule="evenodd" d="M120.157 92.1465L128.217 93.5998L123.4 115.032L126.573 143.87L122.358 144.833L111.304 110.027L111.273 99.6251L112.097 93.4678L120.157 92.1465Z" fill="#34466B"/>
<path fill-rule="evenodd" clip-rule="evenodd" d="M99.9147 82.0157L99.6406 109.006L104.847 143.797L108.808 143.79L111.257 111.677L116.626 79.5586L99.9147 82.0157Z" fill="#34466B"/>
<path fill-rule="evenodd" clip-rule="evenodd" d="M129.355 103.691C127.557 103.061 125.733 102.505 123.89 102.026C119.039 100.763 114.051 100.025 109.042 99.8239C106.773 99.7329 104.385 99.5835 102.142 99.9914C101.041 100.191 99.9641 100.497 98.8825 100.774C98.6056 100.846 95.7363 101.366 95.7305 101.41C96.2437 97.9544 96.0973 94.4939 96.3307 91.007C96.5656 87.4816 97.0006 83.9694 97.6342 80.4932C98.6259 75.0471 101.373 70.5284 103.57 65.4779C104.66 62.9706 105.674 60.412 107.082 58.0601C108.185 56.2186 110.109 53.5497 112.259 52.8508C112.986 52.6143 113.768 52.6415 114.534 52.6707C115.816 52.7202 116.977 53.4358 118.26 53.4852C119.296 53.5251 120.453 52.8989 121.489 52.9388C122.334 52.9715 123.213 53.0128 123.958 53.4122C125.076 54.0106 125.646 55.2647 126.139 56.4323C128.351 61.6674 129.611 67.2359 130.145 72.9268C130.423 75.8982 130.665 78.8729 130.809 81.8523C130.968 85.177 131.009 88.5086 130.841 91.8314C130.822 92.2006 130.81 93.2375 130.754 94.4768C130.7 95.6755 128.989 103.476 129.355 103.691Z" fill="#34466B"/>
<path fill-rule="evenodd" clip-rule="evenodd" d="M116.848 71.5121C117.374 80.6326 119.677 91.8179 120.205 100.938C114.357 99.8569 107.125 99.7286 99.2422 100.679C99.696 97.3057 100.708 90.6862 101.16 87.3128C101.452 85.1501 101.743 82.9799 102.288 80.8753C103.168 77.4802 104.687 74.3312 106.194 71.2122C108.98 65.4492 111.765 59.6862 114.549 53.9232C114.698 53.615 114.855 53.2967 115.105 53.0846C115.406 52.8304 115.796 52.7648 116.168 52.7166C116.924 52.6191 117.339 53.1674 118.444 53.1188C119.549 53.0702 120.735 52.4974 121.759 52.7405C122.079 54.6247 120.216 57.7374 119.49 59.4212C118.434 61.8712 117.206 64.2912 116.863 67.0141C116.676 68.5046 116.761 70.0145 116.848 71.5121Z" fill="#DEEDF2"/>
<path fill-rule="evenodd" clip-rule="evenodd" d="M112.278 52.8496L107.761 54.3553L95.4141 72.2731L96.3173 75.7363H100.835L112.278 52.8496Z" fill="#34466B"/>
<path d="M104.29 58.8659C104.29 58.8659 104.251 58.8014 104.234 58.8388C104.197 58.8203 104.207 58.895 104.207 58.895C103.759 59.8379 100.274 66.3832 89.3359 67.7812C89.3359 67.7812 94.2481 86.6091 102.81 91.9682C111.953 97.6922 118.144 98.2098 118.163 98.1797C118.197 98.1908 122.746 93.9228 126.188 83.6905C129.409 74.1175 121.439 56.4146 121.439 56.4146C112.059 62.2103 105.231 59.3165 104.29 58.8659Z" fill="#137E84"/>
<path d="M105.077 61.1005C105.077 61.1005 105.042 61.043 105.026 61.0764C104.993 61.0603 105.001 61.1268 105.001 61.1268C104.591 61.9704 101.4 67.8291 91.4883 69.1353C91.4883 69.1353 95.8336 85.907 103.557 90.642C111.807 95.6994 117.559 96.5648 117.576 96.5378C117.607 96.5476 121.6 92.2781 124.772 83.1305C127.74 74.5722 120.619 58.8208 120.619 58.8208C112.094 64.0423 105.928 61.4974 105.077 61.1005Z" fill="#1BB3BC"/>
<path fill-rule="evenodd" clip-rule="evenodd" d="M105.592 62.6788C105.61 62.6437 105.646 62.7039 105.646 62.7039C106.519 63.1116 112.746 65.6812 121.406 60.6253C120.774 58.983 120.319 57.9761 120.319 57.9761C111.793 63.1975 105.627 60.6527 104.776 60.2557C104.776 60.2557 104.741 60.1983 104.725 60.2318C104.692 60.2157 104.702 60.2823 104.702 60.2823C104.29 61.1258 101.099 66.9844 91.1875 68.2906C91.1875 68.2906 91.4644 69.3601 92.0038 71.0346C101.92 69.5166 105.144 63.5982 105.567 62.7316C105.567 62.7316 105.557 62.662 105.592 62.6788Z" fill="#1BB3BC"/>
<path fill-rule="evenodd" clip-rule="evenodd" d="M119.487 64.3091C113.056 68.2826 107.486 66.4256 106.841 66.1168C106.841 66.1168 106.815 66.0724 106.803 66.0981C106.777 66.0855 106.784 66.1367 106.784 66.1367C106.477 66.7832 103.358 71.7063 95.8594 72.6648C95.8594 72.6648 99.9568 85.1374 105.826 88.8116C112.095 92.7357 116.339 93.0908 116.352 93.0699C116.375 93.0777 119.494 90.1514 121.854 83.1363C124.063 76.5731 119.487 64.3091 119.487 64.3091Z" fill="#DEEDF2"/>
<path fill-rule="evenodd" clip-rule="evenodd" d="M124.023 53.4517L126.884 55.409L135.768 75.7361L132.756 80.2532L128.24 77.6935L124.023 53.4517Z" fill="#34466B"/>
<path fill-rule="evenodd" clip-rule="evenodd" d="M112.108 79.0488L107.592 79.35L104.43 81.7591C104.432 82.5959 104.934 83.0978 105.936 83.2648C106.938 83.4318 108.243 83.2311 109.851 82.6625L112.585 81.6256L112.108 79.0488Z" fill="#FFC4B8"/>
<path fill-rule="evenodd" clip-rule="evenodd" d="M130.662 72.7245L129.897 72.2729L111.227 78.1453L112.13 82.5118L132.757 80.2533L135.769 75.7361L130.662 72.7245Z" fill="#34466B"/>
<mask id="mask0_1487_19819" style="mask-type:luminance" maskUnits="userSpaceOnUse" x="49" y="47" width="21" height="19">
<path fill-rule="evenodd" clip-rule="evenodd" d="M54.5586 47.3276L69.3336 52.7053L64.4972 65.9932L49.7222 60.6155L54.5586 47.3276Z" fill="white"/>
</mask>
<g mask="url(#mask0_1487_19819)">
<path fill-rule="evenodd" clip-rule="evenodd" d="M65.3011 51.2548C64.0441 50.6734 62.1578 50.7729 61.3599 51.7456C61.3795 50.4875 59.6427 49.0724 58.3077 48.7038C54.7846 47.731 52.2181 51.1509 52.7208 54.2675C52.9912 55.9449 53.6669 57.5725 54.4903 59.1134C55.1797 60.4037 57.1116 63.3125 57.1221 63.3089C57.1276 63.3184 60.4816 62.3471 61.8415 61.8079C63.4655 61.164 65.0329 60.3586 66.3233 59.2532C68.7208 57.1996 68.6183 52.7892 65.3011 51.2548Z" fill="#EC0000"/>
</g>
<path fill-rule="evenodd" clip-rule="evenodd" d="M64.5258 57.6375C64.6771 55.8813 64.8283 54.125 64.9796 52.3687C65.0014 52.1147 64.6568 52.0081 64.5072 52.1955C62.5597 54.6353 60.6121 57.0751 58.6645 59.5148C58.5517 59.6561 58.439 59.7975 58.3262 59.9388C58.3654 57.8771 58.4046 55.8155 58.4438 53.7538C58.4501 53.4232 58.4563 53.0926 58.4627 52.7619C58.4665 52.5626 58.2043 52.3869 58.0355 52.542C57.2506 53.2629 56.4657 53.9838 55.6807 54.7048C54.3384 54.2126 52.9961 53.7206 51.6536 53.2286C51.3385 53.113 51.1666 53.5805 51.4823 53.6962C52.8752 54.2068 54.2681 54.7174 55.6611 55.2279C55.7427 55.2579 55.8512 55.2483 55.9151 55.1896C56.5876 54.5719 57.2602 53.9541 57.9329 53.3364C57.8927 55.4513 57.8525 57.5664 57.8122 59.6816C57.8059 60.0122 57.7996 60.3429 57.7934 60.6735C57.7887 60.9216 58.109 61.043 58.2658 60.8466C60.2133 58.4069 62.1608 55.967 64.1083 53.5273C64.2015 53.4106 64.2946 53.294 64.3878 53.1772C64.2556 54.7124 64.1234 56.2476 63.9912 57.7828C63.9821 57.8894 64.0576 58.005 64.1645 58.041C65.4387 58.4712 66.7128 58.9014 67.987 59.3316C68.3045 59.4388 68.4771 58.9716 68.1583 58.864C66.9475 58.4551 65.7367 58.0463 64.5258 57.6375Z" fill="white"/>
<path fill-rule="evenodd" clip-rule="evenodd" d="M61.6691 64.38L61.6965 61.1736L59.4936 59.8337L58.2182 63.0043L56.945 63.6192L56.6203 65.29L58.9723 66.2012L61.6691 64.38Z" fill="#FFC4B8"/>
<path fill-rule="evenodd" clip-rule="evenodd" d="M32.8219 52.8425C31.4806 51.857 30.6094 50.2683 30.6094 48.4778C30.6094 45.4904 33.0348 43.0649 36.0223 43.0649C38.7807 43.0649 41.06 45.1328 41.3932 47.8016C41.4515 48.0796 41.4939 48.3607 41.523 48.6418L41.5231 48.6423L41.524 48.6485L41.5242 48.6506C41.5328 48.7347 41.5403 48.8188 41.5467 48.9027L41.9195 53.0795L41.0709 53.3636L41.0621 53.3656L41.062 53.3656C41.041 53.4384 41.0293 53.4777 41.0293 53.4777L41.0062 54.0427L40.9646 55.0988C40.9501 55.4483 40.8771 55.7907 40.7498 56.1127C40.6609 56.3399 40.5434 56.5576 40.3998 56.7596C40.2312 56.9967 40.0298 57.2094 39.805 57.389C39.6878 57.4833 39.5633 57.5674 39.4333 57.6423C39.3644 57.682 39.2958 57.7186 39.2244 57.7528L39.2239 57.7531L39.5885 64.3506C39.5885 64.3506 37.6625 64.931 35.5534 64.4705C34.2786 64.1945 32.9356 63.5355 31.9111 62.1406C31.9111 62.1406 33.1238 56.8848 32.8219 52.8425Z" fill="#FFC4B8"/>
<path fill-rule="evenodd" clip-rule="evenodd" d="M35.5759 64.3924C34.301 64.1164 32.9581 63.4575 31.9336 62.0625C31.9336 62.0625 33.2452 56.4309 32.8006 52.3382C32.8006 52.3382 35.7841 59.612 35.5759 64.3924ZM41.073 53.3872C40.7759 53.4744 40.4835 53.241 40.5029 52.9324L40.6278 50.9429L41.073 53.3872Z" fill="#F4A48D"/>
<path fill-rule="evenodd" clip-rule="evenodd" d="M35.7154 71.6689C29.4524 71.8091 23.0617 70.3527 23.0353 64.8871C23.0049 58.4932 27.121 48.8704 28.602 45.7369C29.6312 43.5592 32.7022 40.4725 37.5324 41.4939C38.3039 41.6571 39.4243 42.2422 39.9494 42.7799C39.9809 42.8121 40.0125 42.8436 40.0444 42.8742C42.3233 43.2105 44.1524 45.073 44.3414 47.4527C44.3615 47.707 44.3622 47.9584 44.3448 48.2056C44.3873 51.548 44.5049 65.0204 43.6817 68.0839C43.248 69.6978 38.4502 71.6076 35.7154 71.6689ZM37.7891 64.5724C38.4619 64.5023 39.0655 64.4049 39.5784 64.2717L39.214 57.6741L39.2145 57.6739C39.2857 57.6396 39.3545 57.6031 39.4233 57.5633C39.5533 57.4884 39.6778 57.4043 39.7949 57.31C40.0198 57.1304 40.2212 56.9177 40.3899 56.6807C40.5334 56.4786 40.6508 56.261 40.7398 56.0337C40.867 55.7118 40.9402 55.3692 40.9545 55.0198L40.9962 53.9638L41.0193 53.3987C41.0193 53.3987 41.031 53.3594 41.052 53.2867L41.061 53.2846L41.9095 53.0006L41.5367 48.8237C41.5303 48.7399 41.5229 48.6558 41.5142 48.5717L41.514 48.5694L41.513 48.5633V48.5628C41.4839 48.2817 41.4415 48.0006 41.3832 47.7226C41.317 47.1925 41.1741 46.6862 40.9659 46.2152C40.4889 45.4863 39.9024 44.8537 37.8155 44.8659C35.2477 44.8814 34.2933 46.2532 33.8742 47.1671C33.4899 48.005 33.3519 48.9938 33.3519 48.9938L33.3512 48.9959L33.325 49.1465L33.321 49.1702L33.3169 49.1929C32.8666 48.5891 32.2513 48.2932 31.8439 48.5222C31.4557 48.7409 31.3771 49.3685 31.6151 50.0316C31.6493 50.1567 31.6958 50.2834 31.7549 50.409L31.7653 50.4308L31.7683 50.4369L31.7765 50.4535L31.7792 50.4591L31.7899 50.4802L31.7919 50.4841L31.801 50.5017L31.8044 50.5081L31.8133 50.5247L31.8157 50.5292C32.0456 50.9539 32.3789 51.2593 32.7093 51.3787C32.731 51.3898 32.7526 51.4001 32.7743 51.4098C32.7743 51.4098 32.8166 52.7047 32.8284 52.7965C33.2826 56.3428 32.0129 61.5678 31.9191 62.0809C32.841 63.2881 34.0439 64.1549 36.0997 64.504C36.7181 64.5859 37.3154 64.5916 37.7891 64.5724Z" fill="#34466B"/>
<path d="M57.4284 63.2829L48.441 69.5649L39.246 59.6953L38.1503 70.8912L47.1111 76.7857L59.0664 66.2446L57.4284 63.2829Z" fill="#EAF7FE"/>
<path fill-rule="evenodd" clip-rule="evenodd" d="M25.1009 99.0371L24.6358 103.627L28.7536 119.398L24.93 144.74L27.7444 145.71L35.1661 120.968L36.3438 113.771L36.3009 98.5332L25.1009 99.0371Z" fill="#FFC4B8"/>
<path fill-rule="evenodd" clip-rule="evenodd" d="M46.7461 104.153L40.8262 146.617H38.1352L37.6508 119.398L32.7533 100.292L46.7461 104.153Z" fill="#FFC4B8"/>
<path fill-rule="evenodd" clip-rule="evenodd" d="M39.2452 59.6954C36.5718 58.1866 32.9268 59.8922 30.0258 59.8922C29.1687 68.9183 26.0123 77.1443 24.4815 86.0064C22.8558 95.4187 21.0251 104.795 18.9917 114.128C18.8764 114.657 27.0652 114.39 27.8374 114.403C35.7153 114.536 46.0273 114.509 53.6289 112.127C48.7775 99.1035 47.0063 85.0904 43.1863 71.728C42.5155 69.3822 41.7192 67.0715 41.1151 64.7064C40.7651 63.3355 40.8189 61.6811 40.1338 60.5609C39.9206 60.2126 39.6358 59.9158 39.2452 59.6954Z" fill="#EC0000"/>
<path d="M32.3185 75.3865C31.5566 74.8713 31.0327 74.1396 30.9648 73.0611C30.9022 72.0672 31.1352 71.0826 31.3067 70.1017C31.851 66.9883 31.7793 63.7685 31.0965 60.6824C30.4171 57.6115 26.8346 61.4729 26.3892 62.8581C25.8953 64.3936 26.0345 66.0656 25.914 67.6531C25.7525 69.7844 25.6759 71.9224 25.6846 74.0602C25.6903 75.4126 25.3573 78.6073 26.7811 79.3811C27.1663 79.5905 27.6081 79.6638 28.0407 79.734C28.7204 79.8442 36.8341 80.8676 36.9613 80.4667L38.082 76.9306C36.3941 76.5847 33.8655 76.4324 32.3185 75.3865Z" fill="#EAF7FE"/>
<path d="M24.8903 87.8068C25.1012 87.8506 25.3078 87.7148 25.3516 87.5036L27.3517 77.8729C28.0199 74.6549 31.1774 72.5794 34.3903 73.2468C37.6032 73.9139 39.6733 77.075 39.0049 80.293L37.005 89.9238C36.9612 90.1349 37.0962 90.3415 37.3072 90.3853C37.5181 90.4292 37.7244 90.2936 37.7685 90.0824L39.7684 80.4517C40.5242 76.8118 38.1829 73.2365 34.5492 72.482C30.9152 71.7272 27.344 74.0746 26.5882 77.7145L24.5881 87.3449C24.5443 87.5561 24.6796 87.763 24.8903 87.8068Z" fill="black"/>
<path fill-rule="evenodd" clip-rule="evenodd" d="M16.8873 101.979L18.2722 101.026L21.1836 82.2285L20.2173 82.5423L18.7521 82.5505L16.8873 101.979Z" fill="#34466B"/>
<path fill-rule="evenodd" clip-rule="evenodd" d="M20.2148 82.5425L17.4298 97.3399L18.7496 82.5507L20.2148 82.5425Z" fill="#34466B"/>
<path fill-rule="evenodd" clip-rule="evenodd" d="M21.1667 82.2261L17.76 100.981L39.6815 104.526L42.4727 85.9275L21.1667 82.2261Z" fill="#34466B"/>
<path fill-rule="evenodd" clip-rule="evenodd" d="M12.3188 101.093L34.7137 105.553L39.293 86.1468L18.7386 82.5552L12.3188 101.093Z" fill="#34466B"/>
<path fill-rule="evenodd" clip-rule="evenodd" d="M34.7066 105.556L39.6737 104.529L42.4648 85.9302L40.6887 85.9282L39.2857 86.1497L34.7066 105.556Z" fill="#34466B"/>
<path fill-rule="evenodd" clip-rule="evenodd" d="M40.6914 85.9282L37.2246 102.84L34.6926 105.553L39.2776 86.1439L40.6914 85.9282Z" fill="#34466B"/>
<path fill-rule="evenodd" clip-rule="evenodd" d="M39.5469 104.697L37.2045 103.096L34.7871 105.659L39.5469 104.697Z" fill="#34466B"/>
<path d="M23.1797 88.2123L25.1798 78.5815C25.8479 75.3633 29.0055 73.2881 32.2184 73.9552C35.4312 74.6223 37.5013 77.7834 36.8329 81.0015L34.8331 90.6322C34.789 90.8434 34.9246 91.0502 35.1352 91.0938C35.3462 91.1376 35.5525 91.002 35.5966 90.7908L37.5964 81.1601C38.3525 77.5202 36.011 73.9452 32.3773 73.1904C28.7433 72.4359 25.1721 74.783 24.4163 78.4229L22.4162 88.0536C22.3723 88.2648 22.5077 88.4714 22.7186 88.5152C22.9293 88.559 23.1358 88.4232 23.1797 88.2123Z" fill="black"/>
<path fill-rule="evenodd" clip-rule="evenodd" d="M38.9961 78.0202L40.4801 77.2383L40.8056 77.4687L40.5383 77.8808L41.9556 77.5843L43.9375 79.1142L43.2052 80.2126L42.3925 81.0791L40.8317 81.1247L39.1973 80.2428L36.688 79.5403L37.1885 77.4287L38.9961 78.0202Z" fill="#FFC4B8"/>
<path d="M32.407 75.4526C33.9657 76.3522 36.4861 76.5901 38.082 76.9172L36.9613 80.5565C36.8557 80.8892 31.0395 80.1397 28.7456 79.8462C29.4871 78.6737 30.271 77.4113 31.2616 76.473C31.6224 76.2618 32.3047 75.4913 32.407 75.4526Z" fill="#EAF7FE"/>
<path fill-rule="evenodd" clip-rule="evenodd" d="M28.561 143.004L25.0828 143.737L24.5336 146.012L24.595 146.031L24.5794 146.033L28.6021 148.463L30.5148 148.679L30.7578 146.451L30.2413 146.065L28.561 143.004Z" fill="#CEDEE7"/>
<path fill-rule="evenodd" clip-rule="evenodd" d="M41.0741 144.835L44.3047 147.233L43.9187 149.228L36.982 148.09L38.0804 144.286L41.0741 144.835Z" fill="#CEDEE7"/>
<path fill-rule="evenodd" clip-rule="evenodd" d="M121.556 141.54L126.37 141.794L127.048 144.29L126.972 144.31L126.992 144.312L122.022 146.978L119.66 147.215L119.359 144.771L119.997 144.348L121.556 141.54Z" fill="#CEDEE7"/>
<path fill-rule="evenodd" clip-rule="evenodd" d="M104.532 143.371L102.152 145.036L102.538 147.032L109.475 145.893L108.56 142.089L104.532 143.371Z" fill="#CEDEE7"/>
</svg>
