<svg width="160" height="161" viewBox="0 0 160 161" fill="none" xmlns="http://www.w3.org/2000/svg">
<g clip-path="url(#clip0_1487_29240)">
<path fill-rule="evenodd" clip-rule="evenodd" d="M100.255 38.7917C100.628 39.2179 100.992 39.6482 101.348 40.0824C108.526 48.8246 118.422 54.8932 129.413 57.6804C136.084 59.3721 142.324 63.0321 147.184 68.5945C159.911 83.1632 158.385 105.122 143.762 117.805C137.311 123.4 129.388 126.226 121.457 126.385C114.666 126.522 108.121 129.011 103.097 133.56C103.032 133.618 102.967 133.676 102.902 133.734C94.346 141.287 81.4212 140.468 73.9008 131.892C73.8576 131.843 73.8149 131.794 73.7727 131.745C71.7666 129.413 68.7169 128.244 65.6561 128.617C48.205 130.746 30.0382 124.484 17.6352 110.282C-2.18294 87.5897 0.236364 53.1404 23.0334 33.4146C45.8487 13.6735 80.4217 16.0808 100.255 38.7917Z" fill="#DEEDF2"/>
<ellipse cx="82.6341" cy="129.712" rx="51.8724" ry="8.19655" fill="#CEDEE7"/>
<rect x="24.3555" y="77.2861" width="93.6748" height="53.7612" transform="rotate(-7 24.3555 77.2861)" fill="#FFE99F"/>
<path fill-rule="evenodd" clip-rule="evenodd" d="M66.0781 32.7605L117.331 65.86L24.3548 77.2761L66.0781 32.7605Z" fill="#FFE99F"/>
<path fill-rule="evenodd" clip-rule="evenodd" d="M75.6094 110.386L117.333 65.87L24.3561 77.2861L75.6094 110.386Z" fill="#F6C854"/>
<path fill-rule="evenodd" clip-rule="evenodd" d="M73.8242 95.833L123.886 119.231L30.9097 130.647L73.8242 95.833Z" fill="#FFE99F"/>
<path fill-rule="evenodd" clip-rule="evenodd" d="M30.9046 130.606L64.5071 103.501L34.7688 130.132L30.9046 130.606Z" fill="#F6C854"/>
<path fill-rule="evenodd" clip-rule="evenodd" d="M123.885 119.19L84.7233 101.019L120.021 119.664L123.885 119.19Z" fill="#F6C854"/>
<path fill-rule="evenodd" clip-rule="evenodd" d="M117.338 65.8695L84.7233 101.019L113.474 66.344L117.338 65.8695Z" fill="#D39E00"/>
<path fill-rule="evenodd" clip-rule="evenodd" d="M24.3577 77.2862L64.5071 103.501L28.2219 76.8118L24.3577 77.2862Z" fill="#D39E00"/>
<path fill-rule="evenodd" clip-rule="evenodd" d="M28.5436 77.0656L28.125 74.2849L110.978 63.4045L111.607 68.5018L84.7245 101.019L73.8241 95.833L64.5071 103.501L28.5436 77.0656Z" fill="white"/>
<path fill-rule="evenodd" clip-rule="evenodd" d="M64.5065 103.501L28.543 77.0654L28.9758 80.27L64.5065 103.501Z" fill="#CCCCCC"/>
<path fill-rule="evenodd" clip-rule="evenodd" d="M111.605 68.5017L112.138 71.478L84.7227 101.019L111.605 68.5017Z" fill="#CCCCCC"/>
<path fill-rule="evenodd" clip-rule="evenodd" d="M84.3555 38.4786L85.8627 37.5538C85.8627 37.5538 87.6712 38.9382 87.9429 40.8049C88.2145 42.6715 87.3996 45.1694 87.3996 45.1694C87.3996 45.1694 87.0189 45.7244 87.0189 46.6932C87.0189 47.6619 88.4537 48.9119 88.4537 48.9119H85.8627C85.8627 48.9119 85.2471 48.29 85.2471 46.6932C85.2471 45.0963 86.7037 43.4975 86.1347 41.3531C85.5657 39.2087 84.3555 38.4786 84.3555 38.4786Z" fill="#1BB3BC"/>
<path fill-rule="evenodd" clip-rule="evenodd" d="M62.9297 38.9709L64.437 39.8957C64.437 39.8957 66.2454 38.5112 66.5171 36.6446C66.7887 34.7779 65.9738 32.2801 65.9738 32.2801C65.9738 32.2801 65.5932 31.725 65.5932 30.7563C65.5932 29.7876 67.028 28.5376 67.028 28.5376H64.437C64.437 28.5376 63.8213 29.1594 63.8213 30.7563C63.8213 32.3531 65.2779 33.9519 64.7089 36.0964C64.14 38.2408 62.9297 38.9709 62.9297 38.9709Z" fill="#63BA68"/>
<path fill-rule="evenodd" clip-rule="evenodd" d="M63.7058 54.7743L65.3483 54.2981C65.3483 54.2981 66.6507 56.1173 66.4019 57.9805C66.1531 59.8437 64.7297 62.0161 64.7297 62.0161C64.7297 62.0161 64.2288 62.4446 63.9692 63.3732C63.7096 64.3017 64.7023 65.8904 64.7023 65.8904L62.3049 65.1852C62.3049 65.1852 61.9018 64.4216 62.3297 62.8909C62.7576 61.3603 64.5338 60.2242 64.5819 58.0139C64.6301 55.8035 63.7058 54.7743 63.7058 54.7743Z" fill="#63BA68"/>
<path fill-rule="evenodd" clip-rule="evenodd" d="M80.3308 49.8515L81.9733 49.3801C81.9733 49.3801 83.2757 51.181 83.0269 53.0253C82.7781 54.8697 81.3547 57.0202 81.3547 57.0202C81.3547 57.0202 80.8538 57.4444 80.5942 58.3635C80.3346 59.2827 81.3273 60.8553 81.3273 60.8553L78.9299 60.1572C78.9299 60.1572 78.5268 59.4014 78.9547 57.8862C79.3826 56.371 81.1588 55.2464 81.2069 53.0584C81.2551 50.8703 80.3308 49.8515 80.3308 49.8515Z" fill="#EC0000"/>
<path fill-rule="evenodd" clip-rule="evenodd" d="M98.1748 73.153L99.8616 72.6816C99.8616 72.6816 101.199 74.4825 100.944 76.3269C100.688 78.1712 99.2263 80.3217 99.2263 80.3217C99.2263 80.3217 98.7119 80.7459 98.4453 81.665C98.1787 82.5842 99.1982 84.1568 99.1982 84.1568L96.7359 83.4588C96.7359 83.4588 96.322 82.7029 96.7614 81.1877C97.2009 79.6725 99.0251 78.5479 99.0746 76.3599C99.124 74.1719 98.1748 73.153 98.1748 73.153Z" fill="#EC0000"/>
<path fill-rule="evenodd" clip-rule="evenodd" d="M56.4883 90.1211L58.584 88.7236L60.5866 91.6587L58.4908 93.0561L56.4883 90.1211Z" fill="#1BB3BC"/>
<path fill-rule="evenodd" clip-rule="evenodd" d="M45.3633 85.5922L47.3991 84.157L49.3445 87.1713L47.3086 88.6065L45.3633 85.5922Z" fill="#EC0000"/>
<path fill-rule="evenodd" clip-rule="evenodd" d="M82.7188 62.2904L84.8145 60.8552L86.817 63.8696L84.7213 65.3048L82.7188 62.2904Z" fill="#EC0000"/>
<path fill-rule="evenodd" clip-rule="evenodd" d="M77.918 51.363L75.8223 49.9656L73.8197 52.9006L75.9154 54.298L77.918 51.363Z" fill="#F6C854"/>
<path fill-rule="evenodd" clip-rule="evenodd" d="M85.8789 90.9784L87.9746 89.5432L89.9772 92.5576L87.8815 93.9928L85.8789 90.9784Z" fill="#F6C854"/>
<path fill-rule="evenodd" clip-rule="evenodd" d="M33.0703 51.5146L35.3418 50.3169L36.5831 52.632L34.3116 53.8297L33.0703 51.5146Z" fill="#63BA68"/>
<ellipse cx="48.4088" cy="49.7315" rx="1.63931" ry="1.40512" fill="#EC0000"/>
<ellipse cx="77.9167" cy="94.6954" rx="1.63931" ry="1.40512" fill="#EC0000"/>
<ellipse cx="63.3386" cy="81.815" rx="1.58076" ry="1.40512" fill="#63BA68"/>
<ellipse cx="94.9519" cy="79.0047" rx="1.58076" ry="1.40512" fill="#F6C854"/>
<ellipse cx="54.3817" cy="71.5109" rx="1.40512" ry="1.63931" fill="#EC0000"/>
<ellipse cx="77.8583" cy="65.2463" rx="1.34658" ry="1.58076" fill="#1BB3BC"/>
<ellipse cx="89.3344" cy="72.1549" rx="1.93204" ry="2.28332" fill="#1BB3BC"/>
<ellipse cx="52.4477" cy="37.9635" rx="1.93204" ry="2.28332" fill="#1BB3BC"/>
<ellipse cx="65.2133" cy="48.0336" rx="1.93204" ry="2.28332" fill="#F6C854"/>
<ellipse cx="98.9945" cy="49.3801" rx="1.99059" ry="2.22478" fill="#F6C854"/>
<ellipse cx="1.34658" cy="1.63931" rx="1.34658" ry="1.63931" transform="matrix(-1 0 0 1 79.7891 84.157)" fill="#63BA68"/>
<ellipse cx="39.2762" cy="76.019" rx="1.40512" ry="1.58076" fill="#63BA68"/>
<path fill-rule="evenodd" clip-rule="evenodd" d="M39.0526 65.5137L40.5431 62.3897L37.8319 63.682L34.3612 60.8552V65.5137L31.4297 66.9292L35.0951 67.7231V71.5107L37.8319 68.1163H41.1484L39.0526 65.5137Z" fill="#F6C854"/>
<path fill-rule="evenodd" clip-rule="evenodd" d="M70.3144 72.199L72.4807 68.9348L73.4056 73.1333L76.511 73.8856L73.4056 75.4025V79.0049L70.6103 76.3603L67.0222 77.6366L69.3586 74.6106L65.8555 71.2142L70.3144 72.199Z" fill="#F6C854"/>
<path fill-rule="evenodd" clip-rule="evenodd" d="M72.1894 41.2482L74.3557 38.022L75.2806 42.1716L78.386 42.9152L75.2806 44.4144V47.9749L72.4853 45.3611L68.8972 46.6225L71.2336 43.6318L67.7305 40.2748L72.1894 41.2482Z" fill="#63BA68"/>
<path fill-rule="evenodd" clip-rule="evenodd" d="M45.7148 63.4451L47.6959 64.2511C47.6959 64.2511 47.9626 62.8248 49.1911 61.5538C50.4196 60.2827 52.8382 60.2122 54.7959 58.5885C56.7536 56.9648 56.8387 56.1206 56.8387 56.1206L54.7959 55.2349C54.7959 55.2349 53.7369 57.0232 52.3823 58.0338C51.0277 59.0444 49.1075 59.1574 47.6959 60.3556C46.2843 61.5538 45.7148 63.4451 45.7148 63.4451Z" fill="#EC0000"/>
<path fill-rule="evenodd" clip-rule="evenodd" d="M111.406 54.5185L109.446 53.7126C109.446 53.7126 109.182 55.1388 107.967 56.4098C106.751 57.6809 104.358 57.7514 102.421 59.3751C100.484 60.9989 100.399 61.8431 100.399 61.8431L102.421 62.7288C102.421 62.7288 103.469 60.9404 104.809 59.9298C106.149 58.9193 108.049 58.8062 109.446 57.608C110.843 56.4098 111.406 54.5185 111.406 54.5185Z" fill="#EC0000"/>
<path fill-rule="evenodd" clip-rule="evenodd" d="M88.4531 56.2711L90.309 55.2349C90.309 55.2349 90.5589 57.0686 91.7098 58.7028C92.8608 60.337 95.1266 60.4277 96.9607 62.5153C98.7947 64.603 98.8744 65.6884 98.8744 65.6884L96.9607 66.8271C96.9607 66.8271 95.9686 64.5278 94.6995 63.2285C93.4304 61.9292 91.6315 61.7839 90.309 60.2433C88.9866 58.7028 88.4531 56.2711 88.4531 56.2711Z" fill="#63BA68"/>
<path fill-rule="evenodd" clip-rule="evenodd" d="M64.8008 94.7908L66.2813 95.3979C66.2813 95.3979 66.4807 94.3236 67.3988 93.3662C68.317 92.4087 70.1246 92.3556 71.5877 91.1326C73.0508 89.9095 73.1144 89.2736 73.1144 89.2736L71.5877 88.6064C71.5877 88.6064 70.7962 89.9535 69.7838 90.7147C68.7715 91.4759 67.3364 91.5611 66.2813 92.4636C65.2263 93.3662 64.8008 94.7908 64.8008 94.7908Z" fill="#1BB3BC"/>
<path fill-rule="evenodd" clip-rule="evenodd" d="M46.0664 76.7663L48.0266 75.9604C48.0266 75.9604 48.2905 77.3866 49.5061 78.6576C50.7217 79.9287 53.1148 79.9992 55.0519 81.6229C56.989 83.2467 57.0732 84.0909 57.0732 84.0909L55.0519 84.9766C55.0519 84.9766 54.004 83.1882 52.6637 82.1776C51.3233 81.1671 49.4234 81.054 48.0266 79.8558C46.6298 78.6576 46.0664 76.7663 46.0664 76.7663Z" fill="#F6C854"/>
<path fill-rule="evenodd" clip-rule="evenodd" d="M27.6836 62.8491L25.7234 63.6655C25.7234 63.6655 25.4595 62.2208 24.2439 60.9332C23.0283 59.6457 20.6352 59.5743 18.6981 57.9294C16.761 56.2846 16.6768 55.4294 16.6768 55.4294L18.6981 54.5322C18.6981 54.5322 19.746 56.3438 21.0863 57.3675C22.4267 58.3912 24.3266 58.5057 25.7234 59.7195C27.1202 60.9332 27.6836 62.8491 27.6836 62.8491Z" fill="#1BB3BC"/>
<path fill-rule="evenodd" clip-rule="evenodd" d="M87.4023 84.2296L86.1303 84.7425C86.1303 84.7425 85.9591 83.8349 85.1702 83.026C84.3814 82.2172 82.8284 82.1723 81.5713 81.139C80.3143 80.1057 80.2596 79.5685 80.2596 79.5685L81.5713 79.0049C81.5713 79.0049 82.2513 80.1429 83.1211 80.786C83.9909 81.4291 85.2239 81.501 86.1303 82.2635C87.0367 83.026 87.4023 84.2296 87.4023 84.2296Z" fill="#EC0000"/>
</g>
<defs>
<clipPath id="clip0_1487_29240">
<rect width="160" height="127.158" fill="white" transform="translate(0 16.3828)"/>
</clipPath>
</defs>
</svg>
