<svg width="160" height="162" viewBox="0 0 160 162" fill="none" xmlns="http://www.w3.org/2000/svg">
<path fill-rule="evenodd" clip-rule="evenodd" d="M57.0009 127.918C57.648 127.945 58.2932 127.962 58.937 127.969C71.8972 128.118 84.1857 132.623 94.147 140.466C100.193 145.227 107.786 148.187 116.229 148.544C138.34 149.478 157.796 132.332 159.829 110.12C160.725 100.321 158.054 91.1932 152.89 83.9734C148.469 77.7919 146.405 70.1399 147.282 62.3708C147.293 62.2706 147.304 62.1705 147.314 62.0708C148.627 48.9793 139.205 37.9896 126.171 37.4143C126.096 37.4108 126.021 37.408 125.947 37.4056C122.429 37.2838 119.296 35.392 117.593 32.3818C107.889 15.2189 89.8813 3.4435 68.3291 2.53679C33.8915 1.08815 3.38576 28.0077 0.260416 62.6032C-2.86704 97.226 22.5362 126.468 57.0009 127.918Z" fill="#EAF7FE"/>
<path d="M99.1848 161.714L52.0864 154.514C46.8556 153.713 43.2642 148.829 44.0647 143.603L63.2682 18.2729C64.0688 13.0477 68.9576 9.45969 74.1897 10.2595L121.287 17.4609C126.519 18.2614 130.11 23.1455 129.309 28.3706L110.106 153.702C109.305 158.928 104.416 162.514 99.1848 161.714Z" fill="#9E3667"/>
<path d="M96.2942 161.274L49.1958 154.072C43.9652 153.273 40.3738 148.387 41.1741 143.163L60.3766 17.8319C61.1782 12.6068 66.067 9.01884 71.2982 9.81852L118.397 17.0206C123.628 17.8197 127.22 22.7045 126.418 27.9298L107.215 153.26C106.415 158.486 101.525 162.073 96.2942 161.274Z" fill="white"/>
<path d="M125.604 33.254L107.853 149.11C107.301 152.711 102.82 155.013 99.2172 154.462L47.3364 146.529C43.7315 145.978 41.2596 142.614 41.8114 139.011L59.563 23.1564C60.1147 19.5541 63.4811 17.0793 67.087 17.6305L118.966 25.5634C122.569 26.1142 126.156 29.6521 125.604 33.254Z" fill="white"/>
<path fill-rule="evenodd" clip-rule="evenodd" d="M106.964 21.1869C107.835 21.3204 108.649 20.7224 108.783 19.852C108.916 18.9809 108.318 18.1676 107.447 18.0342C106.576 17.9015 105.761 18.4988 105.627 19.3699C105.494 20.2403 106.092 21.0543 106.964 21.1869ZM83.7734 16.8682C84.2268 16.9377 84.6515 16.6263 84.7214 16.1724C84.7908 15.7183 84.4791 15.2944 84.0251 15.2248C83.5707 15.1554 83.1461 15.4669 83.0771 15.9208C83.0068 16.3748 83.319 16.7988 83.7734 16.8682ZM81.5325 15.6851C81.463 16.1384 81.0384 16.4507 80.5849 16.3812C80.1305 16.3109 79.8188 15.8876 79.8887 15.4336C79.9581 14.9796 80.3828 14.6683 80.8362 14.7377C81.2906 14.8071 81.6024 15.2313 81.5325 15.6851ZM90.3263 17.4775L97.9523 18.6432C98.1946 18.6807 98.4209 18.5146 98.4577 18.2725C98.4946 18.0304 98.3283 17.8044 98.086 17.7676L90.46 16.6017C90.2186 16.565 89.9924 16.7305 89.9546 16.9726C89.9177 17.2146 90.083 17.4407 90.3263 17.4775Z" fill="#DEEDF2"/>
<path fill-rule="evenodd" clip-rule="evenodd" d="M99.177 161.688L52.0786 154.488C46.8479 153.687 43.2564 148.803 44.0569 143.577L63.2605 18.247C64.0606 13.0218 68.9498 9.43381 74.182 10.2336L121.279 17.435C126.511 18.2355 130.102 23.1196 129.301 28.3447L110.098 153.676C109.297 158.902 104.409 162.488 99.177 161.688Z" fill="#9E3667"/>
<path fill-rule="evenodd" clip-rule="evenodd" d="M96.2865 161.246L49.1881 154.044C43.9574 153.245 40.3659 148.36 41.1662 143.135L60.3689 17.8041C61.17 12.579 66.0593 8.99101 71.2905 9.79069L118.388 16.9928C123.62 17.7919 127.211 22.6766 126.41 27.9019L107.208 153.232C106.407 158.458 101.517 162.046 96.2865 161.246Z" fill="white"/>
<path d="M125.596 33.2281L107.845 149.084C107.293 152.685 102.812 154.988 99.209 154.437L47.3286 146.504C43.7237 145.952 41.2518 142.588 41.8036 138.985L59.5548 23.1305C60.107 19.5283 63.4734 17.0535 67.0792 17.6046L118.958 25.5376C122.561 26.0884 126.148 29.6262 125.596 33.2281Z" fill="white"/>
<path fill-rule="evenodd" clip-rule="evenodd" d="M108.435 145.249L107.847 149.084C107.816 149.277 107.777 149.465 107.725 149.649C106.819 152.923 102.621 154.959 99.2121 154.438L47.3317 146.503C44.1539 146.018 41.8536 143.346 41.7356 140.25C41.7196 139.834 41.7404 139.411 41.8065 138.985L42.3939 135.15L108.435 145.249Z" fill="#CEDEE7"/>
<path d="M108.436 145.249L107.847 149.084C107.817 149.277 107.777 149.465 107.725 149.649L107.69 149.644L107.845 148.633L41.875 138.547L42.3943 135.15L108.436 145.249Z" fill="#EC0000"/>
<path fill-rule="evenodd" clip-rule="evenodd" d="M89.8378 120.725L107.09 123.361L104.447 140.599L87.1946 137.964L89.8378 120.725ZM70.034 117.695L87.2854 120.331L84.6422 137.57L67.3912 134.934L70.034 117.695ZM50.2292 114.667L67.4806 117.304L64.8383 134.542L47.5859 131.907L50.2292 114.667Z" fill="#CEDEE7"/>
<path fill-rule="evenodd" clip-rule="evenodd" d="M106.952 21.1596C107.823 21.293 108.638 20.695 108.771 19.8247C108.905 18.9536 108.306 18.1402 107.436 18.0069C106.564 17.8741 105.749 18.4714 105.616 19.3425C105.482 20.2129 106.08 21.027 106.952 21.1596ZM83.7618 16.8409C84.2152 16.9104 84.6399 16.599 84.7093 16.145C84.7792 15.691 84.4674 15.267 84.0131 15.1975C83.5587 15.1281 83.134 15.4396 83.0655 15.8936C82.9947 16.3474 83.3074 16.7715 83.7618 16.8409ZM81.5207 15.6577C81.4513 16.1111 81.0267 16.4233 80.5732 16.3538C80.1188 16.2835 79.8071 15.8603 79.877 15.4063C79.9464 14.9522 80.3711 14.6409 80.8245 14.7104C81.2789 14.7798 81.5906 15.2039 81.5207 15.6577ZM90.3146 17.4501L97.9406 18.6158C98.1824 18.6533 98.4087 18.4872 98.446 18.2451C98.4828 18.003 98.3166 17.7771 98.0743 17.7402L90.4483 16.5744C90.2069 16.5377 89.9806 16.7031 89.9429 16.9453C89.906 17.1872 90.0713 17.4134 90.3146 17.4501Z" fill="#DEEDF2"/>
<path d="M125.596 33.2272L122.772 51.6647L56.7305 41.567L59.5551 23.1296C60.1073 19.5274 63.4737 17.0522 67.0795 17.6037L118.959 25.5367C122.562 26.0874 126.149 29.6251 125.596 33.2272Z" fill="#EC0000"/>
<path fill-rule="evenodd" clip-rule="evenodd" d="M112.411 119.311L46.3711 109.209L56.7263 41.6167L122.765 51.7183L112.411 119.311Z" fill="#CEDEE7"/>
<path fill-rule="evenodd" clip-rule="evenodd" d="M76.6921 67.0356L78.266 56.7527C78.326 56.3587 78.6849 56.0848 79.076 56.1278L79.1082 56.132L79.4001 56.1769C83.2067 56.7593 85.9553 56.286 88.5508 54.9795L88.6212 55.047C90.6693 57.0087 93.1047 58.2538 96.797 58.8385L97.2169 58.9033L97.2485 58.9085C97.6236 58.9826 97.8805 59.3331 97.8394 59.7143L97.8347 59.7473L96.2613 70.0298C95.4097 75.595 90.4378 79.54 84.9733 79.445L84.8079 79.4408C79.478 77.9581 75.832 72.6565 76.6921 67.0356Z" fill="#34466B"/>
<path fill-rule="evenodd" clip-rule="evenodd" d="M80.9146 70.3585L80.994 69.8393C81.1664 68.7137 82.7223 68.172 84.042 68.3741C84.6953 68.4738 85.3665 68.7737 85.8402 68.9853C86.0972 69.1001 86.296 69.1889 86.4028 69.2064C86.5095 69.222 86.7263 69.1965 87.006 69.1639C87.5213 69.1034 88.2511 69.0179 88.9043 69.1181C90.2245 69.3198 91.5471 70.3022 91.3747 71.4278L91.2953 71.9469C91.2075 72.5204 90.6718 72.9138 90.0984 72.826L81.7936 71.5554C81.2202 71.4675 80.8268 70.9319 80.9146 70.3585Z" fill="white"/>
<path d="M88.9645 66.7895L89.5668 64.6286C89.9635 63.2606 88.8564 62.0122 87.5286 61.8091C86.1215 61.5937 84.7314 62.5304 84.7437 63.9035L84.6719 66.1231C84.7002 67.226 85.4205 68.1315 86.5353 68.302C87.6533 68.473 88.6296 67.8622 88.9645 66.7895Z" fill="white"/>
<rect x="55.2969" y="85.4424" width="57.438" height="13.2256" transform="rotate(8.7 55.2969 85.4424)" fill="white"/>
<path fill-rule="evenodd" clip-rule="evenodd" d="M65.4096 76.7813C61.3215 79.7457 55.5282 81.1934 50.6172 81.1764L51.1788 77.632L52.7054 68.0117L62.491 69.5624L67.5333 70.8274L70.7934 71.3422L70.8963 71.1991L70.9426 71.3663L73.0035 78.7443L65.4105 76.7817L65.4096 76.7813Z" fill="#34466B"/>
<path fill-rule="evenodd" clip-rule="evenodd" d="M62.1518 72.7323C45.265 78.9092 25.8894 72.2033 16.6815 56.0775C6.41317 38.0888 12.6851 15.1892 30.6923 4.93117C48.6994 -5.3277 71.6218 0.937597 81.8911 18.9253C91.0966 35.0532 87.0094 55.1257 73.0899 66.5007L73.0318 79.0943L62.1518 72.7323Z" fill="white"/>
<path fill-rule="evenodd" clip-rule="evenodd" d="M71.3583 29.3451L42.506 54.5337L27.6836 37.4892L33.563 32.3763L43.2626 43.53L66.2343 23.4756L71.3583 29.3451Z" fill="#008437"/>
</svg>
