<svg width="161" height="160" viewBox="0 0 161 160" fill="none" xmlns="http://www.w3.org/2000/svg">
<path d="M89.5059 60.4023L83.3361 71.0891L83.2694 71.2056L76.0102 83.7783H61.8171L55.6299 94.4939L47.4859 108.598H0L13.2622 85.6275C15.2953 82.1063 18.2194 79.182 21.7407 77.149C25.262 75.1159 29.2564 74.0457 33.3225 74.0454H48.5913C49.315 74.0457 50.0261 73.8554 50.6527 73.4937C51.2796 73.132 51.8001 72.6115 52.1617 71.9847C54.1948 68.4632 57.1188 65.5391 60.6403 63.506C64.1615 61.4729 68.1559 60.4026 72.2221 60.4026L89.5059 60.4023Z" fill="#DEEDF2"/>
<path d="M33.2061 89.8024C45.1015 89.8024 54.7443 80.1595 54.7443 68.2642C54.7443 56.3691 45.1015 46.7261 33.2061 46.7261C21.311 46.7261 11.668 56.3691 11.668 68.2642C11.668 80.1595 21.311 89.8024 33.2061 89.8024Z" fill="#DEEDF2"/>
<path fill-rule="evenodd" clip-rule="evenodd" d="M45.0531 59.1652C45.0633 58.8504 45.3565 57.9994 45.1283 57.666C45.0651 57.6739 45.0024 57.6879 44.9415 57.7077C44.3569 57.8875 44.182 58.4689 44.1089 59.0192C44.0337 59.5433 44.0687 60.0774 44.212 60.5871C44.3554 61.0967 44.604 61.5708 44.9415 61.9787C45.0671 62.1221 45.2149 62.2447 45.3787 62.3419C45.5337 62.1477 45.7127 61.9742 45.9117 61.8257C45.7768 61.4241 45.4119 60.8931 45.3119 60.6308C45.1333 60.1626 45.0458 59.6646 45.0537 59.1634L45.0531 59.1652Z" fill="#DEEDF2"/>
<path fill-rule="evenodd" clip-rule="evenodd" d="M43.6365 81.9758L43.6118 81.9466C43.557 81.8504 43.4958 81.758 43.4284 81.6703C43.3675 81.5797 43.2813 81.5092 43.1807 81.4675C43.0799 81.4255 42.9691 81.4144 42.8622 81.4354C42.186 81.2687 41.4697 81.7685 41.1465 82.533C40.8783 83.1741 40.8635 83.8736 40.6201 84.52C40.4187 85.0531 40.317 85.5983 40.8052 86.0192C41.7579 86.832 43.0254 85.721 43.4701 84.8764C43.9148 84.0319 44.0915 83.1042 43.7616 82.2681C43.7441 82.1623 43.7009 82.0623 43.6365 81.9766V81.9758Z" fill="#9BC3D3"/>
<path fill-rule="evenodd" clip-rule="evenodd" d="M19.9552 79.7271C18.716 78.1413 17.9215 76.3373 16.344 75.0148C15.1752 74.0055 13.7428 73.3504 12.2148 73.126C13.0172 76.5728 14.6549 79.7696 16.9835 82.4345C19.3121 85.0995 22.2602 87.1509 25.5683 88.4082C25.8897 84.6323 22.057 82.422 19.9552 79.7271Z" fill="#9BC3D3"/>
<path fill-rule="evenodd" clip-rule="evenodd" d="M41.3205 48.3083C41.219 49.0445 40.6761 49.7655 39.9615 49.8958C39.3005 49.9705 38.6337 49.8161 38.0727 49.4586C37.9852 49.3534 37.906 49.2453 37.8145 49.1421C37.2447 48.4759 36.5502 47.8196 35.6287 47.7578C34.6669 47.6928 33.9179 48.2926 33.2485 48.9037C32.5056 49.5816 31.6543 50.2545 31.0697 51.079C30.6468 51.6753 30.2219 52.6697 30.8333 53.296C31.1131 53.5825 31.466 53.5842 31.8327 53.6026C31.888 53.6093 31.944 53.6093 31.9991 53.6026C32.025 53.6387 32.058 53.6692 32.0958 53.6923C32.2389 53.7941 32.3389 53.9546 32.5056 54.0389C33.2135 54.3988 34.0896 54.0123 34.4842 53.3726C34.7016 52.9732 34.8552 52.5422 34.9391 52.0953C34.9589 52.1684 34.979 52.241 35.0006 52.3118C35.2489 53.1063 35.4704 53.7025 34.6491 54.2271C33.3767 55.0382 31.6995 54.5037 30.455 55.4748C30.237 55.6412 30.0438 55.8496 29.8223 56.0177C29.4726 56.2827 29.2686 56.2459 28.833 56.1958C28.26 56.1311 27.722 56.1958 27.3338 56.6621C26.7576 57.3417 26.8742 58.0945 27.2505 58.7558C26.8881 58.7747 26.5331 58.8656 26.2063 59.0231C25.8794 59.1807 25.5872 59.4018 25.3468 59.6735C24.9895 60.0602 24.7795 60.56 24.7533 61.0858C24.7271 61.6115 24.8864 62.1298 25.2034 62.5501C25.5334 62.9679 26.0157 63.2376 26.5444 63.3001C27.0732 63.3626 27.6051 63.2126 28.0233 62.8832C29.1043 62.117 29.4324 60.8329 30.8249 60.4663C31.7111 60.2317 33.7465 59.84 34.3927 60.6878C34.7558 61.166 34.8298 61.8005 35.2256 62.2685C35.3868 62.4731 35.5914 62.6391 35.8248 62.7544C36.0582 62.8697 36.3144 62.9313 36.5747 62.9348C37.8923 62.9216 38.0855 61.6341 37.7404 60.6324C37.6408 60.3459 37.5341 60.0612 37.4324 59.7764C37.3621 59.6054 37.3012 59.4308 37.2494 59.2533C37.1727 58.9301 37.1243 58.9852 37.4158 58.991C38.0278 59.0009 38.455 59.1026 39.0382 58.7978C39.4894 58.5629 40.4954 57.4385 40.9804 57.8984C41.3592 58.2548 41.24 59.2626 40.8929 59.5491C40.095 60.2069 38.989 60.1611 38.6958 61.3528C38.6512 61.5348 38.6783 61.727 38.7712 61.8897C38.8642 62.0524 39.0163 62.1731 39.1956 62.2271C39.7184 62.4253 40.7245 62.1887 40.911 62.7715C40.9958 63.1554 41.0518 63.5451 41.0777 63.9373C41.1068 64.1489 41.201 64.4753 41.2342 64.7702C41.1077 64.7551 40.976 64.7335 40.9011 64.7335C40.6257 64.7286 40.3508 64.76 40.0833 64.8268C39.8324 64.8956 39.5984 65.0165 39.397 65.1815C38.7663 64.784 38.0418 64.5605 37.2969 64.5336C36.1626 64.4654 34.78 64.8667 33.7224 64.3337C32.7446 63.844 32.4109 62.6564 31.2239 62.455C30.6118 62.3501 30.0397 62.5798 29.4848 62.8115C28.759 63.1157 28.0339 63.4221 27.3096 63.7307C26.157 64.2188 25.0655 64.7201 24.3116 65.753C23.5136 66.8339 23.0307 68.251 22.7159 69.5369C22.3645 70.9745 22.3411 72.5352 23.049 73.8676C23.6835 75.0687 24.8679 75.7713 26.1538 76.0945C27.5527 76.4443 29.0221 76.346 30.416 76.7159C30.9429 76.8447 31.434 77.0904 31.8528 77.4352C32.2716 77.7796 32.6073 78.2142 32.8349 78.7064C33.5163 80.4259 33.2948 82.6854 33.6428 84.3577C33.8826 85.5036 34.3408 86.7766 35.6829 86.8827C36.9856 86.9844 37.8978 85.9289 38.5681 84.9511C39.3827 83.76 39.749 82.3806 40.4185 81.1198C41.0879 79.8591 42.0126 78.8174 42.9336 77.7601C43.7181 76.8625 44.7259 75.9031 45.0028 74.7C45.2942 73.4488 44.6598 72.5095 43.6021 71.9165C42.0482 71.0454 41.7416 69.355 41.1832 67.7859C41.5335 67.7492 41.887 67.8066 42.2076 67.9523C43.0554 68.3938 43.3253 69.5844 43.9562 70.2643C45.1511 71.5586 47.5188 72.1097 48.8547 70.709C49.1421 70.4115 49.3181 70.0239 49.3534 69.6118C49.3887 69.1994 49.2808 68.7876 49.048 68.4454C48.5933 67.7591 47.8335 67.5111 47.0609 67.4461C47.026 66.9865 46.9924 66.525 46.9575 66.0654C48.2034 66.2204 49.5192 66.3519 50.6453 66.8132C51.3314 67.0946 51.7164 67.5259 51.7146 68.2907C51.7129 69.0554 51.478 69.7348 51.6613 70.4741C51.9277 71.5586 52.892 72.3997 54.038 71.985C54.189 71.929 54.3341 71.8582 54.4711 71.7734C55.2716 66.9498 54.4078 61.9973 52.0218 57.7293C49.6355 53.4613 45.869 50.1316 41.3406 48.287L41.3205 48.3083ZM45.367 62.3412C45.2032 62.2438 45.0557 62.1213 44.9298 61.978C44.5923 61.5701 44.3437 61.0959 44.2003 60.5862C44.0569 60.0764 44.022 59.5423 44.0972 59.0182C44.177 58.4668 44.3519 57.8857 44.9298 57.7067C44.9907 57.6872 45.0534 57.6732 45.1166 57.665C45.3448 57.9982 45.0516 58.8512 45.0414 59.1642C45.0298 59.664 45.1134 60.1614 45.288 60.6298C45.383 60.8921 45.7543 61.4229 45.8878 61.8247C45.6928 61.9745 45.5173 62.1487 45.3664 62.3429L45.367 62.3412Z" fill="#9BC3D3"/>
<path fill-rule="evenodd" clip-rule="evenodd" d="M18.5198 54.6082C19.221 53.3707 20.2719 52.3545 20.9388 51.1401C21.5402 51.4666 22.2078 51.6528 22.8914 51.6848C24.3422 51.7614 25.5397 51.0686 26.5344 50.0676C27.059 49.5395 27.5337 48.9283 28.1664 48.5136C28.9274 48.0138 29.8402 47.9438 30.723 47.834C31.7792 47.7022 32.9 47.4341 33.6828 46.7329H33.2081C29.4089 46.7316 25.6769 47.7356 22.3912 49.6429C19.1055 51.5503 16.383 54.293 14.5 57.5928C15.1278 57.0714 15.8325 56.8549 16.6351 56.5186C17.5336 56.1324 18.0468 55.4376 18.5198 54.6082Z" fill="#9BC3D3"/>
<path d="M141.58 95.442C141.616 95.4784 141.653 95.5149 141.688 95.5516" stroke="#DEEDF2" stroke-width="0.706"/>
<path d="M148.466 111.919C148.466 111.971 148.466 112.022 148.466 112.073" stroke="#DEEDF2" stroke-width="0.706"/>
<path d="M35.7101 98.0197C28.1084 97.8991 20.86 94.7894 15.5343 89.364C10.2084 83.9386 7.2337 76.6337 7.25401 69.0312C7.27432 61.4285 10.288 54.1398 15.6428 48.7428C20.9975 43.3458 28.2623 40.2749 35.8645 40.1948" stroke="#DEEDF2" stroke-width="0.706" stroke-dasharray="1.06"/>
<path d="M31.7132 66.5993H31.8673" stroke="#DEEDF2" stroke-width="0.706"/>
<path d="M110.453 107.53L110.58 107.443" stroke="#DEEDF2" stroke-width="0.706"/>
<path d="M150.511 114.574C150.54 114.616 150.57 114.658 150.6 114.7" stroke="#DEEDF2" stroke-width="0.706"/>
<path d="M83.4688 93.1431H97.2518C104.462 93.1431 111.546 95.0412 117.79 98.6463C124.034 102.251 129.22 107.437 132.825 113.681H146.367L157.535 133.025H143.231C139.866 133.025 136.561 132.139 133.647 130.457C130.733 128.774 128.313 126.355 126.631 123.441C126.332 122.922 125.901 122.491 125.382 122.192C124.864 121.892 124.275 121.735 123.677 121.735H111.042C107.677 121.735 104.372 120.849 101.458 119.167C98.544 117.485 96.1245 115.065 94.442 112.151L83.4688 93.1431Z" fill="#DEEDF2"/>
<path d="M106.245 112.779L106.207 113.497L105.612 124.463H104.879L104.354 114.768L104.246 112.779H106.245Z" fill="white"/>
<path d="M109.786 112.605H76.0938L78.6645 109.901H107.215L109.786 112.605Z" fill="white"/>
<path d="M109.786 112.605H76.0938V113.233H109.786V112.605Z" fill="#34466B"/>
<path d="M106.245 112.779L106.207 113.497L104.354 114.768L104.246 112.779H106.245Z" fill="#34466B"/>
<path d="M104.594 105.488L105.381 104.124C105.997 103.057 106.883 102.171 107.951 101.555C109.018 100.938 110.229 100.614 111.461 100.614H114.29V121.976" stroke="#CEDEE7" stroke-width="0.921"/>
<path d="M110.358 107.429H99.6641C100.19 106.471 100.964 105.672 101.905 105.115C102.845 104.559 103.918 104.266 105.011 104.266C106.104 104.266 107.177 104.559 108.118 105.115C109.058 105.672 109.832 106.471 110.358 107.429Z" fill="#9BC3D3"/>
<path opacity="0.3" d="M121.113 132.645H88.8867L99.6443 107.429H110.356L121.113 132.645Z" fill="white"/>
<path d="M96.1449 108.761C96.1493 114.858 93.8504 120.732 89.7085 125.206C85.5665 129.681 79.8873 132.426 73.8078 132.892C73.1929 132.939 72.571 132.963 71.9426 132.963C71.5384 132.963 71.1368 132.953 70.7381 132.933C66.0183 132.698 61.4704 131.087 57.6557 128.298C53.8411 125.508 50.9264 121.663 49.2713 117.237C47.6162 112.811 47.293 107.997 48.3419 103.389C49.3905 98.7814 51.7652 94.5812 55.1729 91.3071C58.5805 88.0331 62.8722 85.8284 67.5183 84.9648C72.1644 84.101 76.9615 84.6166 81.3182 86.4474C85.6747 88.2782 89.4001 91.3441 92.0344 95.2675C94.6691 99.1906 96.0974 103.799 96.1434 108.524C96.1452 108.603 96.1452 108.682 96.1452 108.76" fill="#DEEDF2"/>
<path d="M95.4376 106.81C95.4419 112.907 93.1431 118.781 89.0011 123.256C84.8592 127.73 79.1799 130.475 73.1005 130.941C72.4856 130.988 71.8639 131.012 71.2353 131.012C70.8314 131.012 70.4301 131.002 70.0311 130.983C65.3112 130.748 60.7636 129.136 56.949 126.347C53.1343 123.558 50.2194 119.713 48.5643 115.287C46.9092 110.86 46.586 106.046 47.6349 101.439C48.6835 96.8306 51.0581 92.6306 54.4659 89.3566C57.8737 86.0826 62.1652 83.8779 66.8113 83.014C71.4574 82.1505 76.2548 82.6658 80.6112 84.4966C84.9679 86.3274 88.6931 89.3936 91.3277 93.3167C93.962 97.24 95.3904 101.849 95.4364 106.574C95.4382 106.652 95.4382 106.731 95.4382 106.809" fill="white"/>
<path d="M62.9312 118.937L60.7224 122.762C60.616 122.947 60.4408 123.081 60.2354 123.136C60.0299 123.191 59.8108 123.162 59.6266 123.056L52.9051 119.175C52.8139 119.123 52.7337 119.053 52.6696 118.969C52.6055 118.886 52.5586 118.79 52.5312 118.688C52.5038 118.587 52.4971 118.48 52.5108 118.376C52.5245 118.271 52.5586 118.171 52.6113 118.079L54.8202 114.254C54.8729 114.162 54.9429 114.083 55.0265 114.018C55.1101 113.954 55.2054 113.907 55.3071 113.88C55.4089 113.853 55.5152 113.846 55.6196 113.859C55.7239 113.873 55.8247 113.907 55.916 113.96L62.6374 117.841C62.7286 117.893 62.8088 117.964 62.8729 118.047C62.937 118.131 62.9839 118.226 63.0113 118.328C63.0387 118.43 63.0457 118.536 63.0317 118.64C63.018 118.745 62.9839 118.845 62.9312 118.937Z" fill="#CEDEE7"/>
<path d="M63.0874 118.053L60.8786 121.88C60.7722 122.064 60.597 122.199 60.3916 122.254C60.1861 122.309 59.9672 122.28 59.7828 122.174L53.0613 118.293C52.9701 118.24 52.8902 118.17 52.8261 118.087C52.7617 118.003 52.7148 117.908 52.6874 117.806C52.6603 117.704 52.6533 117.598 52.667 117.494C52.6807 117.389 52.7148 117.288 52.7675 117.197L54.9763 113.371C55.0291 113.28 55.099 113.2 55.1827 113.136C55.2663 113.072 55.3616 113.025 55.4633 112.998C55.5653 112.97 55.6714 112.963 55.7758 112.977C55.8804 112.991 55.9809 113.025 56.0722 113.078L62.7936 116.958C62.8848 117.011 62.965 117.081 63.0291 117.165C63.0932 117.248 63.1404 117.344 63.1675 117.445C63.1949 117.547 63.2019 117.654 63.1882 117.758C63.1742 117.862 63.1401 117.963 63.0874 118.054" fill="#DEEDF2"/>
<path d="M55.6115 113.277L53.2305 117.401L60.4701 121.581L62.8512 117.457L55.6115 113.277Z" fill="white"/>
<path d="M57.8647 116.721L56.7969 118.57L60.0438 120.445L61.1119 118.595L57.8647 116.721Z" fill="#DEEDF2"/>
<path d="M57.4997 115.478C57.4997 115.652 57.4481 115.822 57.3516 115.967C57.2551 116.111 57.1179 116.224 56.9573 116.29C56.7967 116.357 56.6201 116.374 56.4496 116.341C56.2791 116.307 56.1226 116.223 55.9996 116.1C55.8766 115.977 55.793 115.821 55.7592 115.65C55.7251 115.48 55.7426 115.303 55.809 115.142C55.8755 114.982 55.9883 114.845 56.1328 114.748C56.2771 114.652 56.447 114.6 56.621 114.6C56.8538 114.6 57.0774 114.693 57.242 114.857C57.407 115.022 57.4994 115.246 57.4997 115.478Z" fill="#DEEDF2"/>
<path d="M70.589 117.84L64.3047 119.451L65.6739 124.794L71.9582 123.184L70.589 117.84Z" fill="#DEEDF2"/>
<path d="M70.128 119.033L63.8438 120.643L65.2132 125.986L71.4975 124.376L70.128 119.033Z" fill="#CEDEE7"/>
<path d="M120.738 87.7234L112.553 73.5466C110.962 70.7643 108.735 68.3978 106.054 66.6412C103.373 64.8846 100.314 63.7875 97.1277 63.4395C96.9663 63.4226 96.8034 63.4071 96.6419 63.3928L93.9528 63.1641L88.1132 64.6996L85.7584 66.5681C84.8841 67.2618 84.2167 68.1815 83.8282 69.2275C83.4394 70.2738 83.3444 71.4063 83.5537 72.5024C83.932 74.4854 84.6405 76.3905 85.6497 78.1388L91.4595 88.2014L92.9147 88.6362L93.1834 85.2738L93.9528 87.7237L120.738 87.7234Z" fill="#2A8FEC"/>
<path d="M118.627 69.3734C117.906 69.4267 117.228 69.7382 116.718 70.2509C116.208 70.7632 115.9 71.4426 115.851 72.1639C115.801 72.8852 116.013 73.6001 116.448 74.1777C116.883 74.7551 117.512 75.1564 118.219 75.3079C118.487 75.3645 118.729 75.5079 118.907 75.7159C119.352 76.2405 119.963 76.5964 120.639 76.7246C121.314 76.8526 122.013 76.7453 122.619 76.4201C123.225 76.0948 123.701 75.5717 123.967 74.9378C124.234 74.3039 124.275 73.5978 124.084 72.9374C124.08 72.9216 124.075 72.9062 124.07 72.8907C123.997 72.6442 124 72.3807 124.08 72.1359C124.16 71.8911 124.313 71.6766 124.518 71.521C124.898 71.2284 125.202 70.8486 125.406 70.4141C125.609 69.9796 125.705 69.5028 125.686 69.0233C125.667 68.5442 125.534 68.0762 125.297 67.6591C125.061 67.2418 124.727 66.8872 124.326 66.6251C123.924 66.3631 123.465 66.201 122.988 66.1526C122.51 66.1041 122.028 66.1706 121.582 66.3466C121.136 66.5226 120.739 66.8029 120.423 67.164C120.107 67.5251 119.882 67.9567 119.767 68.4224C119.702 68.6812 119.556 68.9126 119.352 69.0834C119.147 69.2545 118.893 69.3562 118.627 69.3742" fill="#CEDEE7"/>
<path d="M123.242 73.0056C122.59 72.6935 121.847 72.6274 121.15 72.8188C120.452 73.0106 119.848 73.4472 119.446 74.049C119.045 74.6505 118.874 75.3765 118.965 76.094C119.056 76.8113 119.403 77.4717 119.942 77.9543C120.146 78.1361 120.285 78.3809 120.337 78.6502C120.462 79.3261 120.816 79.9387 121.339 80.3855C121.862 80.8319 122.522 81.0858 123.209 81.1041C123.897 81.1228 124.57 80.9048 125.116 80.4869C125.662 80.069 126.048 79.4765 126.21 78.8082L126.222 78.7607C126.28 78.5098 126.414 78.2827 126.605 78.1099C126.796 77.9371 127.035 77.8266 127.291 77.7937C127.766 77.7281 128.218 77.5495 128.61 77.2732C129.002 76.9969 129.323 76.6309 129.544 76.2054C129.766 75.7798 129.882 75.3074 129.884 74.828C129.885 74.3483 129.772 73.875 129.554 73.448C129.335 73.0211 129.017 72.653 128.627 72.3738C128.237 72.0949 127.785 71.9133 127.311 71.8445C126.836 71.7758 126.352 71.8215 125.898 71.9783C125.445 72.1351 125.036 72.398 124.705 72.7454C124.52 72.9374 124.278 73.066 124.016 73.1126C123.753 73.1595 123.482 73.1219 123.242 73.0056Z" fill="#9BC3D3"/>
<path d="M129.797 75.5282C129.654 76.1137 129.339 76.6426 128.892 77.0466C128.444 77.4505 127.886 77.7105 127.289 77.793C127.033 77.8259 126.794 77.9363 126.603 78.1092C126.411 78.282 126.278 78.5093 126.219 78.7605C126.216 78.7757 126.212 78.7917 126.208 78.808C126.094 79.2828 125.863 79.722 125.538 80.0866C125.408 80.2349 125.263 80.3696 125.106 80.4885C124.763 80.7496 124.368 80.9344 123.948 81.0294C123.528 81.1247 123.092 81.1285 122.67 81.0405C122.656 81.0373 122.641 81.0332 122.626 81.0303C122.069 80.9044 121.559 80.6222 121.156 80.2171C120.754 79.8118 120.475 79.3003 120.353 78.7425C120.346 78.7113 120.34 78.681 120.334 78.6498C120.282 78.3805 120.144 78.136 119.939 77.9541C119.403 77.4709 119.058 76.8105 118.969 76.0942C118.879 75.3778 119.05 74.653 119.451 74.0526C119.851 73.452 120.455 73.0157 121.151 72.8236C121.847 72.6313 122.589 72.696 123.241 73.0058C123.481 73.1224 123.751 73.1602 124.014 73.1136C124.277 73.067 124.518 72.9382 124.703 72.7461C125.159 72.267 125.761 71.9522 126.415 71.8502C127.069 71.7485 127.738 71.8651 128.318 72.1825C128.899 72.4995 129.358 72.9997 129.626 73.6047C129.893 74.21 129.953 74.8864 129.797 75.5293" fill="#CEDEE7"/>
<path d="M126.165 80.2486L125.109 80.4882L122.673 81.0399L122.629 81.03C122.071 80.9044 121.561 80.6223 121.159 80.2172C120.756 79.8118 120.478 79.3003 120.355 78.7422L125.54 80.0866L126.165 80.2486Z" fill="#9BC3D3"/>
<path d="M119.52 80.0977L121.682 87.7234H123.267H124.852L127.014 80.0977H119.52Z" fill="#DEEDF2"/>
<path d="M77.5996 76.8654L77.1124 76.7276H77.1097L77.0943 76.7191C77.0818 76.7136 77.0698 76.7072 77.0584 76.7002L75.4375 75.8177C75.336 75.7626 75.2576 75.6732 75.216 75.5653C75.1746 75.4578 75.1728 75.3389 75.211 75.2299C75.2454 75.1317 75.3095 75.0466 75.3946 74.9862C75.4794 74.9262 75.5808 74.8936 75.6852 74.8936C75.7338 74.8936 75.7822 74.9008 75.8289 74.9151L76.3677 75.0742L76.8632 75.22L77.4965 75.4068L77.5996 76.8654Z" fill="#FFC4B8"/>
<g style="mix-blend-mode:multiply" opacity="0.6">
<path d="M77.8505 77.2483H77.1968L77.1094 76.7275H77.107L77.0913 76.7191C77.0791 76.7135 77.0671 76.7071 77.0555 76.7001C76.8806 76.5946 76.3347 76.1755 76.3644 75.0742L76.8599 75.2199L76.8016 74.8559C76.7888 74.7784 76.7955 74.6991 76.8206 74.6248L76.9835 74.1401C77.1945 74.3133 77.3734 74.5219 77.5127 74.7565L77.8505 77.2483Z" fill="#FFC4B8"/>
</g>
<path d="M126.574 87.3701H72.5625V94.9047H126.574V87.3701Z" fill="#DEEDF2"/>
<path d="M70.9844 90.0072C70.9844 89.6452 75.701 89.3521 81.519 89.3521C87.337 89.3521 92.0537 89.6452 92.0537 90.0072C92.0537 90.3692 87.337 90.6621 81.519 90.6621C75.701 90.6621 70.9844 90.3689 70.9844 90.0072Z" fill="#9BC3D3"/>
<path d="M132.765 89.9712H113.012L110.617 92.6845V93.1286H130.371L132.765 90.4153V89.9712Z" fill="#CEDEE7"/>
<path d="M90.932 70.1811C90.8684 69.9888 90.7883 69.8063 90.7224 69.6256C90.6796 69.5073 90.6376 69.391 90.598 69.2774C90.1815 68.0883 89.9492 67.1749 89.9492 67.1749L92.4847 63.1942L92.9359 62.4843L92.9886 62.4015L93.0484 62.3083L93.7236 61.2474L93.9536 60.8872C93.9536 60.8872 93.9932 61.0213 94.0722 61.239C94.1477 61.4462 94.2613 61.73 94.4135 62.0448C94.6067 62.4518 94.8384 62.8394 95.1054 63.2024C96.1199 64.6105 96.7607 66.2528 96.9682 67.9758C97.7843 73.7754 92.0986 73.7171 90.9317 70.1811" fill="#FFC4B8"/>
<path d="M130.801 92.1334H111.047L113.441 89.4204H133.195L130.801 92.1334Z" fill="white"/>
<path d="M94.8737 57.4293C94.8737 58.5189 94.5753 59.5876 94.0105 60.5195C93.446 61.4514 92.6367 62.2107 91.6708 62.7149C90.705 63.2192 89.6191 63.4491 88.5317 63.3797C87.4444 63.3103 86.3969 62.9443 85.5028 62.3213L87.3132 62.0652L86.6248 58.9966L86.4115 58.0471L84.1153 58.5764L83.1095 58.8095C83.076 58.6682 83.0474 58.5245 83.0247 58.3785C83.0128 58.3053 83.0031 58.2327 82.9935 58.1581C82.9641 57.9164 82.9495 57.6731 82.9492 57.4295C82.9492 55.8483 83.5776 54.3317 84.6955 53.2136C85.8138 52.0955 87.3301 51.4673 88.9115 51.4673C90.4928 51.4673 92.0095 52.0955 93.1274 53.2136C94.2457 54.3317 94.8737 55.8483 94.8737 57.4295" fill="#9E3667"/>
<path d="M94.0722 61.2388L91.8281 66.2854C91.7071 66.5922 91.5203 66.8687 91.281 67.0956C91.0418 67.3224 90.7556 67.494 90.4429 67.5986C90.1302 67.703 89.7982 67.7377 89.4706 67.7001C89.143 67.6625 88.8277 67.5535 88.5468 67.3809C88.0758 67.0913 87.6235 66.7729 87.1916 66.4279L86.1989 65.641C85.8944 65.4006 85.6248 65.1189 85.3981 64.804C85.0378 64.3087 84.7887 63.7414 84.6677 63.141L83.9837 59.751C83.9173 59.4229 83.9374 59.0831 84.0417 58.7651C84.1463 58.447 84.3317 58.1616 84.58 57.9368C85.1567 57.414 85.8317 57.0113 86.5659 56.7522C87.3 56.4931 88.0781 56.3828 88.8554 56.4277L91.249 56.5662L93.3538 59.9291L93.5129 59.5724C93.6758 59.5724 94.0722 61.2388 94.0722 61.2388Z" fill="#FFC4B8"/>
<path d="M84.0859 60.2553L85.0398 60.1353L87.3125 64.5252L84.9031 64.8551L84.0859 60.2553Z" fill="#FFC4B8"/>
<path d="M88.0703 83.031C89.1825 82.3898 90.9885 83.4352 92.1042 85.3678C93.2198 87.3003 93.223 89.3876 92.1109 90.0308C90.9987 90.674 89.1927 89.6268 88.077 87.6943C86.9614 85.7618 86.9582 83.6745 88.0703 83.0313" fill="#FFC4B8"/>
<path d="M88.275 88.0189L82.7578 79.8825L84.1273 77.4473L91.1964 84.1381L88.275 88.0189Z" fill="#FFC4B8"/>
<path d="M109.908 74.4082L117.841 88.304L121.446 88.3914L125.595 89.0988C125.703 89.1171 125.799 89.1766 125.863 89.264C125.928 89.3514 125.957 89.4607 125.943 89.5686C125.929 89.6767 125.874 89.7752 125.79 89.8437C125.705 89.9125 125.598 89.9457 125.489 89.9369L122.877 89.7184L120.269 90.1666C120.255 90.1678 120.242 90.1739 120.233 90.1838C120.223 90.1937 120.218 90.2065 120.216 90.2202C120.216 90.2339 120.219 90.2476 120.227 90.2587C120.235 90.2698 120.247 90.2776 120.26 90.2811L122.118 90.5504C122.248 90.5632 122.369 90.625 122.455 90.7232C122.541 90.8215 122.587 90.9488 122.583 91.0794C122.579 91.21 122.525 91.3341 122.433 91.4271C122.342 91.5198 122.218 91.5742 122.087 91.5792C121.018 91.62 119.314 91.6156 118.133 91.553C117.653 91.5096 117.187 91.3682 116.764 91.1377C116.341 90.9071 115.97 90.5921 115.673 90.2124L115.677 90.2106L104.324 75.5702L109.908 74.4082Z" fill="#FFC4B8"/>
<path d="M84.313 76.8844C84.1541 76.6434 83.9431 76.4417 83.6954 76.2939C83.4477 76.1462 83.1697 76.0561 82.8823 76.0308L81.8646 75.9433L81.5819 75.3896L81.7783 75.4808C81.848 75.5129 81.9267 75.5193 82.0004 75.4995C82.0744 75.4797 82.1391 75.4345 82.1831 75.3718L82.1998 75.3491C82.2257 75.3124 82.2435 75.2707 82.2528 75.227C82.2618 75.183 82.2618 75.1378 82.2531 75.0938C82.2441 75.0498 82.2263 75.0084 82.2006 74.9714C82.175 74.9347 82.1423 74.9035 82.1042 74.8799L81.6178 74.5815L81.9139 74.3098C81.9535 74.2728 81.9809 74.225 81.9928 74.1723C82.0048 74.1195 82.0007 74.0644 81.9809 74.0143C81.9611 73.9639 81.9267 73.9208 81.8821 73.8902C81.8375 73.8598 81.7847 73.8435 81.7305 73.8435C81.7017 73.8429 81.6728 73.8473 81.6454 73.8566L80.8757 74.1151L79.8557 74.3917C79.7721 74.4142 79.6969 74.4605 79.6392 74.5252C79.5815 74.5899 79.5439 74.67 79.531 74.7557L79.3168 76.2033L79.3192 74.7018C79.3238 74.6459 79.3375 74.5914 79.36 74.5401L80.1597 72.6953C80.1824 72.6434 80.1932 72.5871 80.1914 72.5309C80.1897 72.4743 80.1757 72.419 80.1504 72.3686C80.1247 72.3181 80.0886 72.2738 80.044 72.2392C79.9994 72.2042 79.9478 72.1797 79.8927 72.1672C79.8076 72.1506 79.7196 72.1616 79.6415 72.1992C79.5634 72.2368 79.4996 72.2986 79.4594 72.3755L78.2478 74.5951C78.2117 74.661 78.1904 74.7345 78.1855 74.8096L78.105 76.129L77.8337 74.8059C77.8194 74.7391 77.8194 74.67 77.8337 74.6036L78.3236 72.456C78.3452 72.3636 78.33 72.2666 78.2819 72.1849C78.2339 72.1033 78.156 72.0436 78.0648 72.0177C77.9736 71.992 77.876 72.0025 77.7923 72.0468C77.7084 72.0911 77.6449 72.1657 77.6148 72.2558L76.9812 74.1405L76.8183 74.6252C76.793 74.6995 76.7866 74.7788 76.7994 74.8563L76.8594 75.2203L77.1095 76.7299L77.1955 77.2507L77.3345 78.0924C77.3525 78.2008 77.4018 78.3017 77.4761 78.3827C77.5507 78.4637 77.6469 78.5214 77.7536 78.5485L82.7582 79.8848L85.623 78.8694L84.313 76.8844Z" fill="#FFC4B8"/>
<path d="M93.7988 59.0039C93.7988 58.1858 93.4179 57.5225 92.9481 57.5225C92.4783 57.5225 92.0977 58.1858 92.0977 59.0039C92.0977 59.8219 92.4783 60.4855 92.9481 60.4855C93.4179 60.4855 93.7988 59.8222 93.7988 59.0039Z" fill="#FFC4B8"/>
<path d="M85.375 60.1355L85.7005 57.5225L86.3723 60.1355H85.375Z" fill="#FFC4B8"/>
<path d="M96.3465 54.3225C96.3465 54.7724 96.213 55.2122 95.9629 55.5863C95.7129 55.9603 95.3579 56.2519 94.942 56.4241C94.5264 56.5962 94.0691 56.6413 93.6279 56.5535C93.1867 56.4657 92.7813 56.2491 92.4633 55.931C92.1451 55.6128 91.9285 55.2075 91.8405 54.7663C91.7528 54.325 91.798 53.8677 91.9702 53.452C92.1422 53.0364 92.4339 52.6811 92.8078 52.4312C93.182 52.1812 93.6218 52.0479 94.0715 52.0479C94.6748 52.0479 95.2536 52.2875 95.6799 52.7141C96.1066 53.1407 96.3465 53.7193 96.3465 54.3225Z" fill="#9E3667"/>
<g style="mix-blend-mode:multiply" opacity="0.6">
<path d="M85.3999 64.8019L85.3125 61.6963L86.0533 63.6941C86.0962 63.8096 86.1125 63.9331 86.1017 64.0558C86.0906 64.1784 86.0528 64.2971 85.9901 64.4032C85.9274 64.5093 85.842 64.6001 85.74 64.669C85.638 64.7379 85.5218 64.7832 85.4002 64.8016" fill="#FFC4B8"/>
</g>
<path d="M94.6514 56.0914C93.7334 57.2064 92.5798 58.1042 91.2739 58.7201C89.9677 59.3361 88.5411 59.6549 87.097 59.6537C86.9787 59.6537 86.8592 59.6516 86.742 59.6464C86.573 59.6412 86.4054 59.6314 86.2387 59.6173L85.6996 57.5233L85.4515 59.5164C85.0394 59.4467 84.6326 59.3502 84.2333 59.2273C83.8504 59.1117 83.4756 58.9718 83.1107 58.8085C83.0813 58.5668 83.0664 58.3235 83.0664 58.0799C83.0667 56.6736 83.5645 55.3126 84.4709 54.2376C85.3775 53.1625 86.6351 52.4424 88.0212 52.2046C89.4072 51.9667 90.833 52.2264 92.0459 52.9377C93.2592 53.6491 94.1819 54.7663 94.6514 56.092" fill="#9E3667"/>
<path d="M107.988 69.4958L110.619 74.392L103.566 77.5214L99.3086 71.2217L103.416 68.3909C103.782 68.1391 104.196 67.9672 104.633 67.8862C105.069 67.8054 105.518 67.8177 105.949 67.9217C106.38 68.0261 106.785 68.2202 107.136 68.4912C107.488 68.7625 107.778 69.1047 107.988 69.4958" fill="#2A8FEC"/>
<g style="mix-blend-mode:multiply" opacity="0.6">
<path d="M92.9937 63.6665C92.4823 66.9108 91.5532 68.5241 90.5984 69.2772C90.372 68.629 90.2 68.0633 90.0898 67.6824C90.4763 67.6215 90.84 67.4606 91.1449 67.2155C91.4497 66.9704 91.6852 66.6497 91.8277 66.2854L92.9937 63.6665Z" fill="#FFC4B8"/>
</g>
<path d="M81.7868 134.146C83.529 133.488 85.1564 132.558 86.6083 131.392L87.612 133.465C86.1178 134.698 84.431 135.675 82.6191 136.36C80.1722 137.267 77.5583 137.635 74.956 137.438L74.3516 135.238C76.8792 135.399 79.4124 135.027 81.7868 134.145" fill="#34466B"/>
<path d="M79.9024 105.731L71.4883 107.888L73.3217 115.041L81.7359 112.885L79.9024 105.731Z" fill="#DEEDF2"/>
<path d="M78.6345 114.527L77.2813 112.21C77.2149 112.097 77.1129 112.009 76.9917 111.96L75.8478 111.5C75.7082 111.444 75.5525 111.443 75.4126 111.498C75.2728 111.553 75.1591 111.659 75.0947 111.795L74.0971 113.904C74.0484 114.007 74.0414 114.126 74.0773 114.235C74.1128 114.344 74.1889 114.435 74.2894 114.49C74.39 114.545 74.5077 114.559 74.6188 114.53C74.7298 114.501 74.8254 114.431 74.8863 114.334L75.1093 113.977L76.0322 115.02C76.4035 115.44 76.8614 115.773 77.3746 115.997L78.7216 116.584L79.7047 115.784L78.6345 114.527Z" fill="#CEDEE7"/>
<path d="M79.7545 115.54L77.9609 116.785L82.7099 126.962C82.7099 126.962 88.2924 122.313 88.3094 122.209C88.3263 122.106 79.7545 115.54 79.7545 115.54Z" fill="#CEDEE7"/>
<path d="M67.9116 121.747L67.7146 119.962L66.972 118.747C66.8053 118.475 66.6841 118.177 66.6136 117.865L66.3099 116.529C66.3076 116.52 66.3084 116.51 66.3119 116.501C66.3157 116.493 66.3218 116.485 66.33 116.481C66.3577 116.464 66.3889 116.452 66.4209 116.447C66.4533 116.442 66.4862 116.443 66.518 116.451C66.5497 116.459 66.5798 116.473 66.6063 116.492C66.6325 116.511 66.655 116.536 66.6722 116.564L67.4214 117.789L67.6187 115.506C67.6301 115.372 67.6802 115.245 67.763 115.139C67.8458 115.034 67.9577 114.954 68.085 114.911C68.1617 114.886 68.271 114.851 68.3829 114.816C68.5091 114.777 68.6455 114.786 68.7656 114.842C68.8856 114.897 68.9809 114.995 69.0337 115.116C69.0337 115.116 70.3093 118.41 69.8579 119.887L69.7675 120.166L69.7031 122.37L67.9116 121.747Z" fill="#F4A48D"/>
<path d="M89.6081 128.688C89.0308 129.498 88.4124 130.278 87.7552 131.025C86.1292 132.858 84.0469 134.227 81.7201 134.994C79.3932 135.761 76.9046 135.898 74.5075 135.391C74.474 135.384 74.4405 135.377 74.407 135.368C74.0188 135.286 73.6326 135.185 73.2497 135.067C72.7402 134.909 72.2809 134.621 71.9178 134.231C71.5535 133.841 71.297 133.363 71.1732 132.844C71.1691 132.844 71.1662 132.844 71.1621 132.844C70.9289 132.815 67.2344 132.288 67.2344 128.754L67.4905 120.102L70.0211 119.957L70.7456 126.603C70.7608 126.739 70.806 126.871 70.8785 126.988C70.9511 127.105 71.049 127.204 71.1647 127.279C71.2807 127.353 71.4119 127.4 71.5483 127.417C71.6849 127.434 71.8237 127.42 71.9539 127.376L78.9074 125.042L83.7301 123.257L88.06 121.654C88.06 121.654 92.2454 125.002 89.6081 128.69" fill="#9BC3D3"/>
<path d="M74.4057 135.369C74.0175 135.286 73.6316 135.185 73.2484 135.067C72.7387 134.91 72.2793 134.621 71.9165 134.231C71.5522 133.841 71.2954 133.363 71.1719 132.844C72.02 132.899 72.8713 132.8 73.6844 132.553L74.4057 135.369Z" fill="#34466B"/>
<path fill-rule="evenodd" clip-rule="evenodd" d="M77.8608 110.809L79.0265 113.227L79.9929 114.564L78.9493 115.284L77.653 114.591C77.1596 114.327 76.7294 113.959 76.3928 113.511L75.5555 112.397L75.3048 112.736C75.2503 112.809 75.1752 112.865 75.0886 112.894C75.002 112.924 74.9088 112.927 74.8208 112.902C74.7593 112.885 74.7022 112.855 74.6532 112.815C74.5722 112.747 74.5174 112.652 74.499 112.548C74.4807 112.444 74.4996 112.337 74.5524 112.245L75.7137 110.22C75.7889 110.09 75.911 109.994 76.0547 109.951C76.1987 109.908 76.3534 109.921 76.4881 109.987L77.5918 110.537C77.7089 110.595 77.8036 110.691 77.8608 110.809ZM76.3009 110.84L75.8984 111.479L76.6536 111.46L76.6008 110.93L76.3009 110.84Z" fill="#F4A48D"/>
<path d="M85.1505 125.794C84.6769 126.992 82.9195 127.691 81.2257 127.357C79.7492 127.065 78.8067 126.083 78.9055 125.041L82.0837 123.865L83.7288 123.256C84.9237 123.765 85.5439 124.795 85.1505 125.794Z" fill="#F4A48D"/>
<path d="M80.0626 114.325L78.1758 115.424L82.1012 125.945C82.1012 125.945 88.0355 121.755 88.0605 121.652C88.0856 121.55 80.0626 114.325 80.0626 114.325Z" fill="#9BC3D3"/>
<path d="M79.7025 121.834L79.5326 120.525L79.1004 120.179C78.9932 120.094 78.9057 119.987 78.8439 119.865C78.7822 119.743 78.7475 119.609 78.7428 119.472C78.7379 119.335 78.7626 119.199 78.8157 119.073C78.8684 118.947 78.9483 118.834 79.0491 118.741C79.6384 118.247 80.3294 117.889 81.0732 117.693C81.8166 117.496 82.5945 117.466 83.351 117.605C83.7022 117.677 84.0359 117.817 84.3338 118.016C84.4874 118.117 84.6086 118.26 84.6835 118.428L79.7025 121.834Z" fill="#2A8FEC"/>
<path d="M75.2819 111.495L74.2969 111.622L74.3158 111.811L74.9418 111.91L78.4901 111.805C78.4901 111.805 78.4499 111.416 78.4027 111.415C78.3555 111.414 75.2843 111.495 75.2843 111.495" fill="#F6C854"/>
<path d="M76.6774 112.868L75.2729 112.226C75.1791 112.184 75.1053 112.107 75.0674 112.012C75.0293 111.916 75.0296 111.809 75.0686 111.714C75.1074 111.619 75.1817 111.543 75.2758 111.501C75.37 111.46 75.4766 111.456 75.5731 111.491L77.139 112.057L76.6774 112.868Z" fill="#F4A48D"/>
<path d="M86.9242 123.186C86.7721 123.731 86.5144 124.239 86.1659 124.684C85.8173 125.128 85.3845 125.5 84.8923 125.776C84.4 126.054 83.858 126.231 83.2972 126.299C82.7365 126.366 82.1679 126.323 81.6241 126.17C81.5037 126.136 81.3854 126.098 81.2711 126.055C81.0377 125.968 80.8127 125.861 80.5982 125.735H80.5962C80.5015 125.679 80.4099 125.619 80.3196 125.558L80.3173 125.554C80.2103 125.481 80.1095 125.402 80.0107 125.321C79.9789 125.294 79.948 125.267 79.9171 125.239C79.4695 124.839 79.1107 124.35 78.8636 123.803C78.8327 123.737 78.8035 123.669 78.7761 123.599C78.7514 123.537 78.7278 123.473 78.7062 123.408C78.677 123.319 78.6479 123.229 78.6237 123.137C78.5812 122.974 78.5479 122.81 78.524 122.644C78.52 122.619 78.5159 122.594 78.5127 122.57C78.4972 122.444 78.487 122.319 78.4835 122.192C78.4794 122.095 78.4794 121.999 78.4835 121.901C78.4859 121.823 78.4899 121.744 78.4969 121.667C78.5194 121.399 78.5678 121.133 78.6409 120.873C78.7898 120.326 79.0457 119.813 79.3934 119.365C79.7414 118.917 80.1745 118.542 80.6679 118.262C81.1613 117.982 81.7054 117.802 82.2684 117.733C82.8315 117.664 83.4027 117.707 83.9492 117.86C84.4956 118.013 85.0065 118.272 85.4521 118.623C85.898 118.974 86.2699 119.41 86.5465 119.905C86.8231 120.401 86.9988 120.946 87.0638 121.51C87.1288 122.073 87.0816 122.644 86.9251 123.189" fill="#F4A48D"/>
<path d="M87.0795 122.193C87.0655 122.53 87.0128 122.863 86.9221 123.186C86.7849 123.68 86.5604 124.146 86.2591 124.56C85.8388 125.127 85.2778 125.574 84.6314 125.858C83.985 126.141 83.2759 126.25 82.5741 126.175C81.8724 126.099 81.2026 125.842 80.6314 125.428C80.0599 125.013 79.6067 124.457 79.317 123.814C79.2474 123.658 79.2162 123.563 79.2162 123.563L79.0568 122.809L78.7749 123.598C78.7502 123.535 78.7266 123.471 78.705 123.407C78.6759 123.317 78.6467 123.227 78.6225 123.135C78.5908 123.012 78.5642 122.889 78.5424 122.764C78.5351 122.724 78.529 122.682 78.5229 122.642C78.5188 122.618 78.5147 122.593 78.5115 122.568C78.496 122.442 78.4858 122.317 78.4823 122.191C78.4823 122.167 78.4803 122.142 78.4823 122.118C78.4794 122.045 78.4803 121.973 78.4823 121.899C78.4844 121.821 78.4885 121.743 78.4957 121.666C78.5118 121.469 78.5424 121.273 78.5873 121.08C78.6027 121.011 78.6202 120.941 78.6397 120.872C78.9236 119.857 79.57 118.982 80.4565 118.412C81.3428 117.842 82.4077 117.618 83.4485 117.781C84.4895 117.944 85.4343 118.484 86.1041 119.297C86.7735 120.111 87.1212 121.142 87.0812 122.195" fill="#2A8FEC"/>
<path d="M79.3274 123.359C79.2977 123.431 79.2601 123.499 79.2152 123.562C79.2068 123.574 79.1977 123.585 79.1884 123.597C79.1846 123.603 79.18 123.609 79.175 123.615C79.1587 123.636 79.14 123.654 79.1237 123.673C79.1176 123.68 79.1123 123.685 79.1051 123.691C79.0406 123.755 78.9655 123.807 78.883 123.845C78.8757 123.831 78.8684 123.816 78.8614 123.8C78.8305 123.733 78.8014 123.665 78.774 123.596C78.7492 123.533 78.7256 123.469 78.704 123.405C78.6749 123.315 78.6457 123.226 78.6216 123.133C78.579 122.97 78.5458 122.806 78.5219 122.64C78.5178 122.615 78.5137 122.591 78.5105 122.566C78.4954 122.441 78.4849 122.315 78.4814 122.187C78.4814 122.163 78.4793 122.139 78.4814 122.115C78.5668 122.08 78.6592 122.064 78.7515 122.07C78.8436 122.075 78.9337 122.102 79.0141 122.147C79.2024 122.278 79.3373 122.472 79.395 122.694C79.453 122.916 79.4294 123.151 79.3292 123.357" fill="#F4A48D"/>
<path d="M69.8857 119.075L68.4535 119.658C68.4156 119.673 68.3751 119.681 68.3343 119.681C68.2935 119.681 68.253 119.672 68.2154 119.656C68.1778 119.64 68.1437 119.617 68.1149 119.588C68.0863 119.559 68.0636 119.525 68.0484 119.487L66.4956 115.672C66.4645 115.596 66.465 115.51 66.4971 115.434C66.5292 115.358 66.5901 115.298 66.6664 115.267L68.0986 114.684C68.1749 114.653 68.2603 114.654 68.3364 114.686C68.4124 114.718 68.4725 114.779 68.5037 114.855L70.0565 118.67C70.0716 118.707 70.0795 118.748 70.0792 118.789C70.0792 118.83 70.0707 118.87 70.055 118.908C70.039 118.945 70.0159 118.979 69.9868 119.008C69.9577 119.037 69.9233 119.059 69.8857 119.075Z" fill="#DEEDF2"/>
<path d="M73.6055 112.867L76.4744 107.898" stroke="#1BB3BC" stroke-width="0.353"/>
<path d="M22.4113 103.189L22.3984 107.082L31.1866 107.112L31.1997 103.219L22.4113 103.189Z" fill="#DEEDF2"/>
<path d="M25.5841 106.463C25.5656 106.444 25.5423 106.431 25.5168 106.425C25.4913 106.419 25.4647 106.42 25.4398 106.429C25.415 106.437 25.393 106.452 25.3763 106.472C25.3595 106.492 25.3488 106.517 25.3452 106.543C25.3201 106.721 25.2869 106.956 25.2577 107.168L25.1327 105.713C25.1245 105.617 25.0795 105.528 25.0071 105.465L24.7503 105.242C24.7043 105.203 24.6492 105.175 24.5898 105.161C24.5304 105.147 24.4686 105.149 24.4098 105.165C24.3511 105.181 24.2973 105.212 24.2532 105.254C24.2091 105.296 24.176 105.348 24.157 105.406L23.6968 106.805C23.6191 107.041 23.6078 107.294 23.6644 107.536L23.8915 108.51L23.964 108.685L24.1162 110.107L25.2437 109.615L25.2673 108.884L25.613 107.827C25.6216 107.8 25.626 107.773 25.6261 107.746V106.563C25.6261 106.525 25.6112 106.49 25.5847 106.463" fill="#F4A48D"/>
<path d="M36.4941 103.325V104.331C36.4941 104.658 36.3641 104.972 36.1327 105.203C35.9016 105.434 35.5877 105.564 35.2607 105.564C34.9334 105.564 34.6198 105.434 34.3884 105.203C34.1573 104.972 34.0273 104.658 34.0273 104.331V103.325C34.0273 102.998 34.1573 102.684 34.3884 102.453C34.6198 102.221 34.9334 102.091 35.2607 102.091C35.5877 102.091 35.9016 102.221 36.1327 102.453C36.3641 102.684 36.4941 102.998 36.4941 103.325Z" fill="#34466B"/>
<path d="M36.24 106.519L35.4691 107.86L34.554 107.546L34.4275 104.858C34.4147 104.584 34.4727 104.311 34.596 104.066L34.8708 103.521C34.9052 103.452 34.9565 103.394 35.0197 103.35C35.0827 103.307 35.1558 103.28 35.2322 103.272C35.3083 103.264 35.3852 103.276 35.456 103.305C35.5265 103.335 35.5886 103.382 35.6364 103.442L36.2776 104.247C36.3484 104.337 36.3834 104.449 36.3755 104.563L36.24 106.519Z" fill="#F4A48D"/>
<path d="M31.0256 98.3604L30.404 99.8242H28.7935L28.1719 98.3604H31.0256Z" fill="#9BC3D3"/>
<path d="M38.7968 100.272V100.277H20.4023V100.272C20.4023 100.035 20.4962 99.8068 20.6634 99.6381C20.8306 99.469 21.0577 99.3731 21.2953 99.3711H37.8957C38.1347 99.3711 38.3637 99.4661 38.5328 99.6351C38.7018 99.8042 38.7968 100.033 38.7968 100.272Z" fill="white"/>
<path d="M34.5376 112.471L34.3222 113.267C34.1048 114.068 33.7044 114.808 33.1524 115.429C32.6004 116.049 31.912 116.533 31.1415 116.842C30.9759 116.908 30.8072 116.967 30.6355 117.017C30.1188 117.167 29.5826 117.238 29.0446 117.227C27.7687 117.204 26.6732 116.623 25.6718 115.953C25.1122 115.58 24.5935 114.682 24.5407 114.621C23.9476 113.924 24.0412 113.783 23.8655 112.832L23.7617 112.262L24.0045 112.194C24.8846 111.94 25.784 111.759 26.6936 111.651C26.7394 111.644 26.786 111.638 26.8317 111.633C28.2436 111.476 29.6697 111.497 31.0762 111.698C31.1383 111.706 31.1992 111.716 31.2613 111.725C31.3353 111.736 31.4096 111.748 31.4828 111.76C31.4848 111.76 31.4857 111.76 31.4868 111.76C31.9403 111.835 32.3915 111.93 32.8409 112.043L34.5376 112.471Z" fill="#9E3667"/>
<path d="M31.2412 111.656L31.249 109.091L30.3377 109.113L27.4817 109.055L26.9312 111.621C26.9312 111.621 26.8062 111.634 26.7423 111.642V111.644L26.418 111.684C26.418 111.684 26.8344 113.044 29.5097 112.967C32.1851 112.889 32.1799 111.757 32.1799 111.757L31.2412 111.656Z" fill="#F4A48D"/>
<g style="mix-blend-mode:multiply" opacity="0.5">
<path d="M31.2412 111.656L31.249 109.091L30.3377 109.113L27.4817 109.055L26.9312 111.621C26.9312 111.621 26.8062 111.634 26.7423 111.642V111.644L26.418 111.684C26.418 111.684 26.8344 113.044 29.5097 112.967C32.1851 112.889 32.1799 111.757 32.1799 111.757L31.2412 111.656Z" fill="#F4A48D"/>
</g>
<path d="M24.8739 112.167L25.4224 109.017L23.8608 108.863L22.4526 111.981C21.9516 113.883 24.8564 115.084 24.8564 115.084L27.4922 113.323L24.8739 112.167Z" fill="#9E3667"/>
<path d="M20.4023 100.277L24.4662 101.256H34.733L38.7968 100.277H20.4023Z" fill="#CEDEE7"/>
<path d="M32.0042 106.476C32.2065 107.045 32.2353 107.661 32.0873 108.247C31.9392 108.832 31.621 109.361 31.1725 109.765C30.7242 110.17 30.1658 110.432 29.5684 110.519C28.9709 110.606 28.3609 110.515 27.8156 110.255C27.2703 109.996 26.8142 109.58 26.505 109.062C26.1957 108.543 26.0472 107.944 26.0783 107.341C26.1093 106.738 26.3184 106.158 26.6793 105.674C27.0401 105.189 27.5364 104.823 28.1054 104.621C28.4832 104.487 28.8838 104.428 29.2842 104.449C29.6847 104.47 30.0769 104.569 30.4392 104.741C30.8012 104.913 31.1258 105.155 31.3942 105.453C31.663 105.75 31.8702 106.098 32.0042 106.476Z" fill="#1BB3BC"/>
<path d="M30.278 104.471C30.278 104.471 28.1693 105.997 26.2734 105.371C26.7803 104.847 27.4295 104.482 28.1412 104.322C28.8528 104.162 29.5955 104.214 30.278 104.471Z" fill="#1BB3BC"/>
<path d="M33.4485 115.083V116.576C32.1997 117.483 30.6956 117.972 29.1521 117.972C27.6084 117.972 26.1044 117.483 24.8555 116.576V115.083C26.1044 115.99 27.6084 116.479 29.1521 116.479C30.6956 116.479 32.1997 115.99 33.4485 115.083Z" fill="#34466B"/>
<path d="M32.9102 113.322L34.4277 106.996L36.3774 107.147L35.9338 111.203C35.5841 113.421 33.4493 115.083 33.4493 115.083L32.9102 113.322Z" fill="#9E3667"/>
<path d="M68.7899 116.394C68.7899 116.547 68.7445 116.698 68.6591 116.826C68.5734 116.954 68.4519 117.053 68.3099 117.112C68.1677 117.171 68.0112 117.187 67.8605 117.157C67.7096 117.127 67.5708 117.053 67.4621 116.944C67.3534 116.835 67.2794 116.696 67.2494 116.545C67.2194 116.394 67.2345 116.238 67.2934 116.096C67.3523 115.954 67.4522 115.832 67.5799 115.747C67.7078 115.661 67.8582 115.616 68.0121 115.616C68.1144 115.616 68.2155 115.636 68.3099 115.675C68.4044 115.714 68.49 115.771 68.5623 115.844C68.6346 115.916 68.6917 116.002 68.7308 116.096C68.7698 116.19 68.7899 116.292 68.7899 116.394Z" fill="white"/>
<path d="M69.4605 113.341C69.4605 113.423 69.4363 113.503 69.3906 113.572C69.3448 113.64 69.2798 113.693 69.2038 113.725C69.1277 113.756 69.044 113.765 68.9636 113.748C68.8829 113.732 68.8086 113.693 68.7506 113.635C68.6923 113.576 68.6529 113.502 68.6369 113.422C68.6209 113.341 68.629 113.257 68.6605 113.181C68.692 113.105 68.7453 113.041 68.8138 112.995C68.8823 112.949 68.9627 112.925 69.0449 112.925C69.1554 112.925 69.2609 112.969 69.339 113.047C69.4168 113.125 69.4605 113.231 69.4605 113.341Z" fill="#1BB3BC"/>
<path d="M66.3655 107.898H65.3047V108.959H66.3655V107.898Z" fill="#DEEDF2"/>
<path d="M89.0101 102.073H87.9492V103.134H89.0101V102.073Z" fill="#DEEDF2"/>
<path d="M57.0431 105.905C56.5963 105.839 56.1402 105.878 55.7112 106.019C55.2822 106.161 54.8922 106.401 54.5728 106.721C54.2537 107.04 54.0136 107.43 53.8719 107.859C53.7306 108.288 53.6915 108.745 53.7583 109.191C53.7667 109.272 53.7784 109.352 53.7923 109.43C53.7967 109.456 53.8025 109.481 53.8078 109.507C53.8183 109.559 53.8294 109.611 53.8422 109.662C53.8495 109.691 53.8576 109.721 53.8655 109.75C53.8786 109.797 53.8923 109.844 53.9072 109.89C53.9165 109.919 53.9261 109.948 53.9363 109.977C53.9523 110.023 53.9693 110.068 53.9867 110.113C53.9975 110.142 54.008 110.17 54.0194 110.197C54.0401 110.248 54.0622 110.298 54.085 110.347C54.1036 110.389 54.1231 110.43 54.1432 110.47C54.1654 110.516 54.1878 110.561 54.2114 110.606C54.2313 110.645 54.2528 110.683 54.2738 110.723C54.2895 110.752 54.3047 110.779 54.3207 110.807C54.3452 110.85 54.3706 110.892 54.3962 110.935L54.4329 110.996C54.4621 111.045 54.4941 111.095 54.5253 111.144L54.5358 111.16C54.8879 111.707 55.3046 112.234 55.6724 112.798C56.0597 113.391 56.2661 114.085 56.2658 114.794V115.256C56.2658 115.345 56.3013 115.431 56.3646 115.494C56.4275 115.557 56.5132 115.593 56.6027 115.593C56.6922 115.593 56.7778 115.557 56.8408 115.494C56.904 115.431 56.9396 115.345 56.9396 115.256V114.838C56.9393 114.136 57.1419 113.447 57.5225 112.857C58.3041 111.644 59.3294 110.607 59.4769 109.19C59.5899 108.432 59.397 107.659 58.9406 107.043C58.4842 106.427 57.8017 106.017 57.0431 105.904" fill="#1BB3BC"/>
<path d="M56.6179 107.859C56.8222 107.859 57.0216 107.92 57.1915 108.033C57.3611 108.147 57.4934 108.308 57.5715 108.496C57.6496 108.685 57.67 108.893 57.6301 109.093C57.5905 109.293 57.4919 109.477 57.3477 109.621C57.2034 109.765 57.0195 109.864 56.8193 109.904C56.6191 109.943 56.4116 109.923 56.223 109.845C56.0345 109.767 55.8733 109.635 55.7599 109.465C55.6466 109.295 55.5859 109.095 55.5859 108.891C55.5859 108.756 55.6127 108.622 55.6646 108.496C55.7165 108.371 55.7926 108.257 55.8882 108.162C55.984 108.066 56.098 107.99 56.223 107.938C56.3483 107.886 56.4824 107.859 56.6179 107.859Z" fill="white"/>
<path fill-rule="evenodd" clip-rule="evenodd" d="M150.626 114.229V111.982H149.691L149.763 114.229H150.626Z" fill="#CEDEE7"/>
<path fill-rule="evenodd" clip-rule="evenodd" d="M148.689 111.982H141.934V114.229H148.618L148.689 111.982Z" fill="#CEDEE7"/>
<path fill-rule="evenodd" clip-rule="evenodd" d="M127.578 108.996V111.018H128.478V108.996H127.578Z" fill="#EAF7FE"/>
<path fill-rule="evenodd" clip-rule="evenodd" d="M132.594 108.996V111.018H133.493V108.996H132.594Z" fill="#EAF7FE"/>
<path fill-rule="evenodd" clip-rule="evenodd" d="M122.59 108.996V111.018H123.489V108.996H122.59Z" fill="#EAF7FE"/>
<path fill-rule="evenodd" clip-rule="evenodd" d="M123.748 111.018H122.349L122.268 112.664L121.633 125.429C122.607 125.685 123.565 125.985 124.508 126.328L123.748 111.018Z" fill="#1BB3BC"/>
<path fill-rule="evenodd" clip-rule="evenodd" d="M128.743 111.018H127.344L126.543 127.151C127.596 127.616 128.624 128.138 129.621 128.713L128.743 111.018Z" fill="#1BB3BC"/>
<path fill-rule="evenodd" clip-rule="evenodd" d="M133.744 111.018H132.345L131.727 123.467H134.362L133.744 111.018Z" fill="#1BB3BC"/>
<path fill-rule="evenodd" clip-rule="evenodd" d="M149.572 108.27H148.806L148.688 111.982H149.69L149.572 108.27Z" fill="#EAF7FE"/>
<path fill-rule="evenodd" clip-rule="evenodd" d="M149.113 120.546H149.964L149.764 114.229H148.618L148.418 120.546H149.113Z" fill="#EAF7FE"/>
<path fill-rule="evenodd" clip-rule="evenodd" d="M149.763 114.229L149.691 111.982H148.689L148.617 114.229H149.763Z" fill="#EAF7FE"/>
<path fill-rule="evenodd" clip-rule="evenodd" d="M153.915 122.396L153.581 111.826H152.814L152.481 122.211V122.396H151.191L152.267 128.713L152.969 129.14L153.318 130.777H157.162C157.982 129.245 159.709 124.136 160.101 122.396H153.915Z" fill="#EAF7FE"/>
<path fill-rule="evenodd" clip-rule="evenodd" d="M149.526 130.777H146.042L145.82 131.159H150.624V130.877H149.526V130.777Z" fill="#CEDEE7"/>
<path fill-rule="evenodd" clip-rule="evenodd" d="M139.484 132.589C139.19 132.759 138.946 133.003 138.777 133.297C138.686 133.454 138.593 133.607 138.494 133.759H136.25C137.02 134.518 137.751 135.314 138.442 136.148H144.558V132.331H140.449C140.11 132.331 139.776 132.42 139.483 132.59L139.484 132.589Z" fill="#CEDEE7"/>
<path fill-rule="evenodd" clip-rule="evenodd" d="M153.311 130.777H150.625V130.877H157.103L157.156 130.777H153.311Z" fill="#CEDEE7"/>
<path d="M150.625 130.777H149.527V130.944H150.625V130.777Z" fill="#CEDEE7"/>
<path fill-rule="evenodd" clip-rule="evenodd" d="M134.727 130.777L134.745 131.144H133.254C134.163 131.845 135.035 132.593 135.866 133.386V130.777H134.727Z" fill="white"/>
<path fill-rule="evenodd" clip-rule="evenodd" d="M144.559 132.331H145.147L145.823 131.159H144.559V132.331Z" fill="white"/>
<path fill-rule="evenodd" clip-rule="evenodd" d="M144.559 130.777V131.159H145.823L146.044 130.777H144.559Z" fill="white"/>
<path fill-rule="evenodd" clip-rule="evenodd" d="M141.931 131.159V130.777H135.863V133.386C135.992 133.509 136.121 133.634 136.248 133.759H138.492C138.591 133.607 138.684 133.454 138.775 133.297C138.944 133.004 139.186 132.761 139.479 132.591C139.771 132.422 140.103 132.332 140.441 132.331H144.55V131.166L141.931 131.159Z" fill="white"/>
<path fill-rule="evenodd" clip-rule="evenodd" d="M142.906 130.777H141.934V131.159H144.559V130.777H142.906Z" fill="white"/>
<path fill-rule="evenodd" clip-rule="evenodd" d="M134.727 130.777H132.77C132.936 130.897 133.094 131.02 133.254 131.144H134.743L134.727 130.777Z" fill="white"/>
<path fill-rule="evenodd" clip-rule="evenodd" d="M151.587 121.992V120.546H150.625V121.817C150.949 121.865 151.27 121.924 151.587 121.992Z" fill="#CEDEE7"/>
<path fill-rule="evenodd" clip-rule="evenodd" d="M147.77 128.98H148.937V130.777H149.528V125.583H148.494L147.77 128.98Z" fill="#CEDEE7"/>
<path fill-rule="evenodd" clip-rule="evenodd" d="M150.001 121.736C150.211 121.76 150.419 121.786 150.627 121.818V120.545H149.961L150.001 121.736Z" fill="#CEDEE7"/>
<path fill-rule="evenodd" clip-rule="evenodd" d="M150.626 130.777H153.312L152.964 129.14H152.263L152.355 126.278L151.587 122.692V121.992C151.269 121.926 150.949 121.87 150.625 121.826L150.626 130.777Z" fill="#CEDEE7"/>
<path fill-rule="evenodd" clip-rule="evenodd" d="M149.999 121.736L150.12 125.583H149.527V130.777H150.625V121.817C150.417 121.786 150.208 121.759 149.999 121.736Z" fill="#CEDEE7"/>
<path fill-rule="evenodd" clip-rule="evenodd" d="M149.11 122.692L148.492 125.593H149.527V121.692C149.693 121.703 149.842 121.718 149.998 121.735L149.961 120.544H149.11V122.692Z" fill="#CEDEE7"/>
<path fill-rule="evenodd" clip-rule="evenodd" d="M149.528 125.584H150.12L149.999 121.737C149.842 121.72 149.686 121.705 149.527 121.693L149.528 125.584Z" fill="#CEDEE7"/>
<path fill-rule="evenodd" clip-rule="evenodd" d="M152.262 129.14H152.963L152.353 126.278L152.262 129.14Z" fill="#CEDEE7"/>
<path d="M148.418 120.545H147.785V120.712H148.418V120.545Z" fill="#9BC3D3"/>
<path d="M149.112 120.545H148.418V120.712H149.112V120.545Z" fill="#9BC3D3"/>
<path fill-rule="evenodd" clip-rule="evenodd" d="M148.493 125.584H148.257L148.417 120.545H147.784V122.682L146.441 128.98H147.769L148.493 125.584Z" fill="#9BC3D3"/>
<path fill-rule="evenodd" clip-rule="evenodd" d="M149.112 120.545H148.418L148.258 125.584H148.494L149.112 122.682V120.545Z" fill="#9BC3D3"/>
<path fill-rule="evenodd" clip-rule="evenodd" d="M135.865 127.731V124.096H134.395L134.575 127.731H135.865Z" fill="#CEDEE7"/>
<path fill-rule="evenodd" clip-rule="evenodd" d="M141.25 127.731V129.991H141.931V124.096H135.863V127.731H141.25Z" fill="#CEDEE7"/>
<path fill-rule="evenodd" clip-rule="evenodd" d="M141.934 129.991H142.906V128.98H143.838V124.096H141.934V129.991Z" fill="#CEDEE7"/>
<path fill-rule="evenodd" clip-rule="evenodd" d="M134.576 127.731L134.396 124.096H134.199V127.731H134.576Z" fill="#CEDEE7"/>
<path d="M141.93 129.991H141.25V130.778H141.93V129.991Z" fill="#CEDEE7"/>
<path d="M142.906 129.991H141.934V130.778H142.906V129.991Z" fill="#CEDEE7"/>
<path fill-rule="evenodd" clip-rule="evenodd" d="M131.695 124.096H130.219V129.068C130.622 129.311 131.019 129.563 131.41 129.823L131.695 124.096Z" fill="#9BC3D3"/>
<path fill-rule="evenodd" clip-rule="evenodd" d="M132.804 128.98V127.731H134.197V124.096H131.698L131.41 129.823L131.66 129.989H132.804V128.98Z" fill="#9BC3D3"/>
<path fill-rule="evenodd" clip-rule="evenodd" d="M131.66 129.991C132.033 130.244 132.403 130.508 132.768 130.778H132.804V129.991H131.66Z" fill="#9BC3D3"/>
<path fill-rule="evenodd" clip-rule="evenodd" d="M135.866 124.076V123.467H134.363L134.393 124.076H135.866Z" fill="#9BC3D3"/>
<path fill-rule="evenodd" clip-rule="evenodd" d="M131.726 123.467H130.219V124.076H131.696L131.726 123.467Z" fill="#9BC3D3"/>
<path d="M141.931 123.467H135.863V124.076H141.931V123.467Z" fill="#9BC3D3"/>
<path d="M143.839 123.467H141.934V124.076H143.839V123.467Z" fill="#9BC3D3"/>
<path fill-rule="evenodd" clip-rule="evenodd" d="M131.699 124.076H134.394L134.364 123.467H131.729L131.699 124.076Z" fill="#9BC3D3"/>
<path d="M135.861 124.077H134.391V124.243H135.861V124.077Z" fill="#9BC3D3"/>
<path d="M141.931 124.077H135.863V124.243H141.931V124.077Z" fill="#9BC3D3"/>
<path d="M143.839 124.077H141.934V124.243H143.839V124.077Z" fill="#9BC3D3"/>
<path d="M134.395 124.07L134.201 124.079L134.209 124.246L134.403 124.236L134.395 124.07Z" fill="#9BC3D3"/>
<path d="M131.695 124.077H130.219V124.243H131.695V124.077Z" fill="#9BC3D3"/>
<path d="M134.197 124.077H131.695V124.243H134.197V124.077Z" fill="#9BC3D3"/>
<path fill-rule="evenodd" clip-rule="evenodd" d="M134.637 128.98L134.687 129.991H135.866V128.98H134.637Z" fill="#9BC3D3"/>
<path fill-rule="evenodd" clip-rule="evenodd" d="M135.865 127.769V127.731H134.574L134.576 127.769H135.865Z" fill="#9BC3D3"/>
<path d="M141.252 127.731H135.863V127.898H141.252V127.731Z" fill="#9BC3D3"/>
<path d="M141.252 128.98H135.863V129.991H141.252V128.98Z" fill="#9BC3D3"/>
<path fill-rule="evenodd" clip-rule="evenodd" d="M134.199 128.98V129.991H134.687L134.637 128.98H134.199Z" fill="#9BC3D3"/>
<path fill-rule="evenodd" clip-rule="evenodd" d="M134.577 127.769L134.576 127.731H134.199V127.769H134.577Z" fill="#9BC3D3"/>
<path fill-rule="evenodd" clip-rule="evenodd" d="M134.688 129.991L134.728 130.778H135.867V129.991H134.688Z" fill="#9BC3D3"/>
<path d="M141.252 129.991H135.863V130.778H141.252V129.991Z" fill="#9BC3D3"/>
<path fill-rule="evenodd" clip-rule="evenodd" d="M134.199 129.991V130.778H134.727L134.687 129.991H134.199Z" fill="#9BC3D3"/>
<path d="M134.197 128.98H132.805V129.991H134.197V128.98Z" fill="#9BC3D3"/>
<path d="M134.197 127.731H132.805V127.898H134.197V127.731Z" fill="#9BC3D3"/>
<path d="M134.197 129.991H132.805V130.778H134.197V129.991Z" fill="#9BC3D3"/>
<path fill-rule="evenodd" clip-rule="evenodd" d="M134.574 127.769L134.634 128.98H135.864V127.769H134.574Z" fill="white"/>
<path d="M141.252 127.769H135.863V128.98H141.252V127.769Z" fill="white"/>
<path fill-rule="evenodd" clip-rule="evenodd" d="M134.199 127.769V128.98H134.637L134.577 127.769H134.199Z" fill="white"/>
<path d="M134.197 127.769H132.805V128.98H134.197V127.769Z" fill="white"/>
<path fill-rule="evenodd" clip-rule="evenodd" d="M150.626 130.877V131.159H145.822L145.146 132.325H144.558V136.141H138.441C139.616 137.557 140.669 139.068 141.589 140.661H144.297C146.172 140.223 147.973 139.51 149.639 138.546C149.74 138.488 149.843 138.428 149.942 138.366C152.955 136.55 155.427 133.962 157.104 130.871L150.626 130.877Z" fill="#CEDEE7"/>
<path fill-rule="evenodd" clip-rule="evenodd" d="M146.226 129.991L146.442 128.98H144.559V129.991H146.226Z" fill="#CEDEE7"/>
<path fill-rule="evenodd" clip-rule="evenodd" d="M146.044 130.777H146.059L146.068 130.738L146.044 130.777Z" fill="#CEDEE7"/>
<path d="M144.556 128.98H143.836V129.991H144.556V128.98Z" fill="#CEDEE7"/>
<path fill-rule="evenodd" clip-rule="evenodd" d="M146.226 129.991H144.559V130.778H146.044L146.068 130.738L146.226 129.991Z" fill="#CEDEE7"/>
<path d="M144.556 129.991H143.836V130.778H144.556V129.991Z" fill="#CEDEE7"/>
<path fill-rule="evenodd" clip-rule="evenodd" d="M147.77 128.98L147.387 130.777H148.937V128.98H147.77Z" fill="#CEDEE7"/>
<path fill-rule="evenodd" clip-rule="evenodd" d="M146.497 129.991L146.067 130.737L146.059 130.777H147.386L147.769 128.98H146.442L146.225 129.991H146.497Z" fill="#CEDEE7"/>
<path fill-rule="evenodd" clip-rule="evenodd" d="M146.496 129.991H146.225L146.066 130.738L146.496 129.991Z" fill="#CEDEE7"/>
<path d="M143.839 128.98H142.906V129.991H143.839V128.98Z" fill="#CEDEE7"/>
<path d="M143.839 129.991H142.906V130.778H143.839V129.991Z" fill="#CEDEE7"/>
<path fill-rule="evenodd" clip-rule="evenodd" d="M141.588 140.668C140.668 139.075 139.615 137.563 138.441 136.147C137.751 135.315 137.02 134.518 136.249 133.757C136.123 133.633 135.993 133.508 135.864 133.384C135.034 132.592 134.162 131.843 133.252 131.142C133.086 131.019 132.93 130.896 132.768 130.776C132.403 130.506 132.033 130.243 131.66 129.989L131.41 129.823C131.019 129.563 130.622 129.311 130.219 129.068C130.021 128.947 129.821 128.83 129.62 128.713C128.622 128.138 127.595 127.616 126.542 127.151C125.876 126.854 125.195 126.58 124.5 126.328C123.558 125.985 122.6 125.685 121.625 125.429C121.248 125.33 120.867 125.237 120.488 125.152C120.852 127.118 121.521 129.014 122.47 130.774C122.537 130.897 122.603 131.018 122.671 131.14C123.145 131.982 123.68 132.788 124.271 133.552L124.437 133.756C126.275 136.071 128.612 137.942 131.274 139.227C133.936 140.512 136.855 141.179 139.811 141.178C140.471 141.178 141.122 141.146 141.763 141.082C142.616 140.998 143.462 140.858 144.297 140.663H141.588" fill="#DEEDF2"/>
<path fill-rule="evenodd" clip-rule="evenodd" d="M149.762 114.229L149.962 120.546H150.625V114.229H149.762Z" fill="#EAF7FE"/>
<path fill-rule="evenodd" clip-rule="evenodd" d="M141.932 115.813H138.276V114.857H135.859V117.968H135.864V123.467H143.836V128.98H146.441L147.784 122.682V120.546H148.416L148.616 114.229H141.932V115.813Z" fill="#EAF7FE"/>
<path fill-rule="evenodd" clip-rule="evenodd" d="M138.971 103.053H133.308C128.869 103.168 124.892 104.219 122.959 108.217L122.59 108.983H138.971C141.057 108.983 142.745 108.097 142.745 106.01C142.745 103.939 141.057 103.053 138.971 103.053Z" fill="#EAF7FE"/>
<path d="M25.6947 40.9921L23.875 37.8192C23.875 37.8192 24.9207 37.6181 25.4097 38.0252C25.714 38.2785 26.8634 39.8645 28.5934 40.3343C29.371 40.5456 30.0649 40.6797 30.0649 40.6797L27.0103 41.0002L25.6947 40.9921Z" fill="#9BC3D3"/>
<path d="M42.9224 41.8912C42.9113 41.9349 42.8891 41.9751 42.858 42.0077C42.5441 42.3546 41.2842 42.3977 41.2842 42.3977H31.226C30.3724 42.3978 29.5208 42.3087 28.6856 42.1319L28.0986 42.0077L25.1484 41.3832V40.981L30.1343 40.561C30.1343 40.561 39.8786 40.6103 40.5605 40.6485C41.0831 40.6705 41.5908 40.8297 42.0323 41.1101L42.0548 41.1209C42.19 41.1858 42.3217 41.2578 42.4494 41.3366C42.7571 41.5283 42.9597 41.7285 42.9224 41.8903" fill="#DEEDF2"/>
<path d="M42.8569 42.0083C42.5431 42.3554 41.2832 42.3985 41.2832 42.3985H31.225C30.3711 42.3986 29.5195 42.3094 28.6843 42.1325L28.0977 42.0083H42.8569Z" fill="#DEEDF2"/>
<path d="M27.5783 41.2294L24.4471 40.8418H23.9922L25.6175 41.2959C25.8679 41.366 26.1257 41.4062 26.3855 41.4156C26.7865 41.4299 27.3443 41.4121 27.5783 41.2294Z" fill="#9BC3D3"/>
<path d="M28.172 40.998L27.1934 41.0049L26.3555 39.8296H26.7131L28.172 40.998Z" fill="#DEEDF2"/>
<path d="M34.9449 41.8365C34.9449 41.8365 33.9726 42.1014 33.1726 42.2786C32.6221 42.4002 32.0462 42.3245 31.5458 42.0647L31.0862 41.8254C31.0862 41.8254 27.8804 41.3422 27.1914 40.9992L28.1674 40.9922L34.9449 41.8365Z" fill="#9BC3D3"/>
<path d="M32.7344 42.3985L33.21 42.5413V42.256L32.7344 42.3985Z" fill="#CEDEE7"/>
<path d="M33.1484 42.1888V42.6088C33.4037 42.7287 33.6826 42.7885 33.9645 42.7837V42.014C33.6826 42.009 33.4034 42.0688 33.1484 42.1888Z" fill="#CEDEE7"/>
<path d="M35.2355 41.8838V42.9199C35.2355 42.9199 35.1834 42.9321 35.0954 42.949C34.6075 43.0588 34.1001 43.0488 33.6172 42.9199V41.8838C34.1004 41.7551 34.6075 41.7451 35.0954 41.8547C35.1828 41.871 35.2355 41.8838 35.2355 41.8838Z" fill="#CEDEE7"/>
<path d="M81.4312 64.627H75.5898V70.6209H81.4312V64.627Z" fill="#2274C0"/>
<path d="M59.8945 61.8543L68.5168 40.0112" stroke="#CEDEE7" stroke-width="0.765" stroke-dasharray="1.15"/>
<path d="M68.5165 40.8362C68.972 40.8362 69.3415 40.4668 69.3415 40.0111C69.3415 39.5554 68.972 39.186 68.5165 39.186C68.0607 39.186 67.6914 39.5554 67.6914 40.0111C67.6914 40.4668 68.0607 40.8362 68.5165 40.8362Z" fill="#DEEDF2"/>
<path d="M59.8954 62.6794C60.3509 62.6794 60.7204 62.31 60.7204 61.8544C60.7204 61.3987 60.3509 61.0293 59.8954 61.0293C59.4396 61.0293 59.0703 61.3987 59.0703 61.8544C59.0703 62.31 59.4396 62.6794 59.8954 62.6794Z" fill="#DEEDF2"/>
<path d="M59.8943 61.8542H52.9609" stroke="#CEDEE7" stroke-width="0.765" stroke-dasharray="1.15"/>
<path d="M52.9626 63.059C53.628 63.059 54.1674 62.5196 54.1674 61.8542C54.1674 61.1888 53.628 60.6494 52.9626 60.6494C52.2973 60.6494 51.7578 61.1888 51.7578 61.8542C51.7578 62.5196 52.2973 63.059 52.9626 63.059Z" fill="#DEEDF2"/>
<path d="M68.5195 40.011H76.8468" stroke="#CEDEE7" stroke-width="0.765" stroke-dasharray="1.15"/>
<path d="M82.989 45.2458L76.8438 40.0112" stroke="#CEDEE7" stroke-width="0.765" stroke-dasharray="1.15"/>
<path d="M77.8438 58.6136L82.9903 45.2456" stroke="#CEDEE7" stroke-width="0.765" stroke-dasharray="1.15"/>
<path d="M77.8417 60.2599C78.7509 60.2599 79.488 59.5229 79.488 58.6136C79.488 57.7044 78.7509 56.9673 77.8417 56.9673C76.9324 56.9673 76.1953 57.7044 76.1953 58.6136C76.1953 59.5229 76.9324 60.2599 77.8417 60.2599Z" fill="#DEEDF2"/>
<path d="M77.1568 58.6135H68.6914" stroke="#CEDEE7" stroke-width="0.765" stroke-dasharray="1.15"/>
<path d="M68.6923 59.4387C69.1481 59.4387 69.5173 59.0693 69.5173 58.6136C69.5173 58.158 69.1481 57.7886 68.6923 57.7886C68.2367 57.7886 67.8672 58.158 67.8672 58.6136C67.8672 59.0693 68.2367 59.4387 68.6923 59.4387Z" fill="#DEEDF2"/>
<path d="M60.1992 79.4585L68.692 58.6138" stroke="#CEDEE7" stroke-width="0.765" stroke-dasharray="1.15"/>
<path d="M50.6697 45.2456C51.3353 45.2456 51.8745 44.7061 51.8745 44.0407C51.8745 43.3753 51.3353 42.8359 50.6697 42.8359C50.0043 42.8359 49.4648 43.3753 49.4648 44.0407C49.4648 44.7061 50.0043 45.2456 50.6697 45.2456Z" fill="#DEEDF2"/>
<path fill-rule="evenodd" clip-rule="evenodd" d="M69.3628 59.0259L68.8906 59.301L69.3039 60.0162L69.7757 59.7411L69.3628 59.0259ZM69.7188 60.7317L70.1909 60.4565L70.6039 61.1717L70.1317 61.4469L69.7188 60.7317ZM70.543 62.1618L71.0148 61.8867L71.4281 62.6019L70.9559 62.877L70.543 62.1618Z" fill="#1BB3BC"/>
<path d="M50.6719 44.0405L53.9669 49.8483H58.1907" stroke="#CEDEE7" stroke-width="0.765" stroke-dasharray="1.15"/>
<path fill-rule="evenodd" clip-rule="evenodd" d="M70.8786 51.4523C70.8788 52.7529 70.4936 54.0244 69.7711 55.1059C69.0486 56.1875 68.0219 57.0305 66.8203 57.5285C65.6187 58.0264 64.2967 58.1569 63.0211 57.9034C61.7452 57.6499 60.5736 57.0238 59.6535 56.1043C58.7337 55.1849 58.1071 54.0133 57.8533 52.7377C57.5991 51.4622 57.7291 50.1399 58.2266 48.9382C58.7241 47.7365 59.5666 46.7093 60.6479 45.9865C61.7291 45.2637 63.0007 44.8777 64.3011 44.8774C65.1649 44.8772 66.02 45.0471 66.8179 45.3774C67.6159 45.7077 68.341 46.1919 68.9519 46.8025C69.5624 47.413 70.0471 48.1379 70.3776 48.9357C70.7084 49.7335 70.8786 50.5887 70.8786 51.4523Z" fill="#9BC3D3"/>
<path fill-rule="evenodd" clip-rule="evenodd" d="M70.1772 50.2906C70.1775 51.5914 69.7919 52.8631 69.0694 53.9448C68.3467 55.0266 67.3196 55.8697 66.118 56.3677C64.9161 56.8656 63.5936 56.9961 62.3179 56.7424C61.042 56.4887 59.8699 55.8624 58.9501 54.9426C58.03 54.0228 57.4037 52.8509 57.1499 51.5751C56.896 50.2992 57.0263 48.9768 57.5241 47.7749C58.0218 46.5731 58.8647 45.5459 59.9465 44.8232C61.028 44.1005 62.2996 43.7148 63.6006 43.7148C65.3445 43.715 67.0171 44.4078 68.2505 45.6409C69.4838 46.8741 70.1769 48.5466 70.1772 50.2906Z" fill="white"/>
<path d="M48.5043 60.6157L47.3828 61.7372L48.5043 62.8587L49.6257 61.7372L48.5043 60.6157Z" fill="#FFE99F"/>
<path d="M57.313 39.5903H56.1094V40.794H57.313V39.5903Z" fill="#1BB3BC"/>
<path d="M66.7307 46.9307H62.1484V53.3082H66.7307V46.9307Z" fill="#2274C0"/>
<path fill-rule="evenodd" clip-rule="evenodd" d="M66.3012 77.2466C66.3858 77.2195 66.4712 77.1945 66.5577 77.1711C69.4771 76.3889 73.6601 78.8026 74.0722 82.3051C74.4032 85.1181 72.914 88.5932 71.8237 86.2769C70.4216 85.9166 67.7547 84.1937 65.7985 83.7947C65.0396 83.7947 65.0655 80.6667 64.6406 80.6503L65.3022 78.1684C65.3188 78.0006 66.2919 77.3559 66.3012 77.2466Z" fill="black"/>
<path fill-rule="evenodd" clip-rule="evenodd" d="M73.3993 98.4116L75.4607 97.8599L75.4604 93.6113L74.8175 89.6964C73.7438 86.9388 72.2205 85.6157 69.7724 84.1258C69.3253 83.8554 65.6185 82.3245 65.1248 82.1234L55.7932 78.325C55.5379 78.2207 55.2826 78.1356 55.0247 78.0648C52.1776 77.296 49.1158 78.5209 47.6078 81.1334L42.2719 90.3758C40.5107 93.4262 41.8193 97.0815 44.773 98.4151L44.8911 98.4509L70.292 98.4157L69.1102 96.0731L73.4136 98.4113L73.3993 98.4116Z" fill="#9BC3D3"/>
<path fill-rule="evenodd" clip-rule="evenodd" d="M56.1213 78.325L57.5835 78.9198C57.5989 78.851 57.5864 78.8015 57.5864 78.8015L63.9316 79.2859C63.8427 80.2756 64.0389 81.0616 64.3516 81.6745L65.4541 82.1233C65.9484 82.325 66.4205 82.5643 66.8676 82.8347C65.8341 85.9199 62.7029 87.8029 59.5659 87.1043C56.2053 86.3556 54.1084 82.9259 54.8839 79.443C54.992 78.9577 55.1511 78.4964 55.3531 78.0645C55.6105 78.1344 55.8678 78.2207 56.1213 78.325ZM49.9667 90.6648L51.6157 91.6175L51.6189 91.6193C51.6264 91.6234 51.6334 91.6269 51.6393 91.6304C51.6413 91.6315 51.6434 91.6327 51.6451 91.6339C51.648 91.6356 51.6503 91.6373 51.6527 91.6391L51.6707 91.6493L52.1755 91.445L52.9918 91.1142C53.2063 91.0277 53.4529 91.076 53.6181 91.2375L57.489 94.9251L69.8315 94.5882C70.503 94.4183 71.2866 94.362 72.1117 94.4503C74.4012 94.6948 76.144 95.9632 76.0024 97.2805C75.8616 98.5987 73.8895 99.4671 71.6002 99.2218C71.3968 99.1999 71.1975 99.1702 71.0034 99.1329L57.5377 97.9735L55.6853 97.9074C55.0815 97.887 54.5219 97.592 54.1634 97.1071L53.5386 96.259L52.8971 96.3082L53.0836 96.4318C53.2192 96.523 53.2699 96.6973 53.2055 96.8468L53.1941 96.8736C53.1177 97.0537 52.903 97.1304 52.7293 97.0424L52.205 96.7748L52.1248 97.1814C52.0997 97.3102 51.9858 97.4038 51.8546 97.4043C51.7541 97.4064 51.6649 97.3522 51.6154 97.2717C51.6002 97.2464 51.588 97.219 51.5813 97.1896L51.3948 96.3729L51.089 95.3258C51.0375 95.1501 51.0954 94.9609 51.2353 94.8441L52.3938 93.8762L51.073 94.6861C51.0261 94.7205 50.9864 94.7619 50.9526 94.8091L49.7592 96.5061C49.6179 96.7087 49.3252 96.734 49.1504 96.5557C49.0227 96.4248 49.0099 96.2185 49.1005 96.0617L50.4027 93.8001C50.4415 93.7331 50.4942 93.6748 50.558 93.6296L51.6766 92.8489L50.3654 93.3224C50.2984 93.3452 50.2383 93.3836 50.1885 93.432L48.5602 95.0186C48.4017 95.1743 48.1443 95.1603 48.003 94.9906C47.8844 94.8484 47.8847 94.6438 48.0024 94.5025L49.3209 92.9305L49.6604 92.5265C49.7123 92.4642 49.7781 92.4152 49.8539 92.3849L50.2063 92.2421V92.2418L49.8125 91.8845H49.8128L49.3824 91.4954C49.3442 91.461 49.3118 91.4228 49.2868 91.3812C49.1746 91.1976 49.1854 90.9577 49.327 90.7826C49.4812 90.592 49.7537 90.5418 49.9667 90.6648Z" fill="#732645"/>
<path fill-rule="evenodd" clip-rule="evenodd" d="M57.701 82.2919C57.6815 82.284 60.3251 77.3607 59.9462 75.2726C59.4659 75.1484 58.9941 74.9578 58.5438 74.6978C55.8533 73.1445 54.9346 69.6903 56.4938 66.9896C58.0533 64.2885 61.504 63.357 64.1945 64.9105C65.2871 65.5413 66.0877 66.4855 66.5485 67.5655L66.5497 67.5657L68.5743 70.8922L67.6665 71.3585L68.4018 74.119C68.5932 74.8383 68.3143 75.6022 67.704 76.03L66.3279 76.9944L66.3276 76.9947C66.3276 76.9947 66.3104 77.2508 66.2696 77.665L65.6013 82.8762L65.5978 82.8771C65.2131 83.8213 64.2199 84.795 63.1171 85.0906C60.5516 85.7778 58.5683 84.2594 57.701 82.2919Z" fill="#732645"/>
<path fill-rule="evenodd" clip-rule="evenodd" d="M66.2281 78.0637C65.4666 78.0241 64.3005 77.7309 62.8398 76.6377L66.3281 76.9947C66.3281 76.9947 66.2992 77.4214 66.2281 78.0637Z" fill="black"/>
<path fill-rule="evenodd" clip-rule="evenodd" d="M67.6667 71.3588C67.4012 71.5267 67.0509 71.3804 66.9836 71.0741L66.5508 69.0981L67.6667 71.3588Z" fill="black"/>
<path fill-rule="evenodd" clip-rule="evenodd" d="M58.182 81.2948C55.9402 81.1121 53.9695 79.5512 53.3549 77.2491C52.9503 75.7359 53.2217 74.2015 53.9835 72.9655C54.1012 72.774 54.1187 72.5394 54.0316 72.3322L54.0348 72.3334L54.0304 72.3284L54.0091 72.2774C53.9602 72.1579 53.915 72.0379 53.873 71.9175C53.8617 71.8846 53.8506 71.8522 53.8398 71.8196C52.9923 69.2246 53.7885 66.2688 56.0492 64.4825C56.4231 64.1871 56.8186 63.9383 57.229 63.7349C57.2668 63.7037 57.305 63.6728 57.3438 63.6423C58.6503 62.6102 60.2217 62.1448 61.7661 62.2107C62.3813 62.2363 62.9919 62.3467 63.5794 62.5389C63.6182 63.0152 63.6135 63.4883 63.5675 63.9533C64.2777 64.366 64.9238 64.9168 65.4641 65.6008C65.8238 66.0561 66.1152 66.5434 66.3396 67.0502L63.9134 65.2424L63.4054 64.9433C62.8438 67.3853 61.136 69.4892 58.7243 70.4874C58.8499 70.8561 58.9586 71.2507 59.0312 71.6555C58.6468 71.3973 58.2359 71.3422 58.0039 71.5517C57.7224 71.8068 57.8034 72.364 58.1741 72.8452L58.1855 72.8597L58.1968 72.8743L58.1994 72.8775L58.2085 72.8886L58.2123 72.8932L58.2213 72.904L58.2242 72.9078L58.2362 72.9218L58.2382 72.9244L58.2484 72.9361L58.2525 72.9407L58.2612 72.9507L58.265 72.955L58.2776 72.969L58.288 72.9807L58.2918 72.9845L58.2988 72.992L58.3029 72.9967L58.3096 73.0034L58.314 73.0084L58.3204 73.0148L58.3248 73.0197L58.3312 73.0261L58.3358 73.0308L58.3423 73.0372L58.3466 73.0419L58.3533 73.0483L58.3577 73.0527L58.3647 73.0597L58.3685 73.0634L58.3796 73.0739L58.3906 73.0844L58.4017 73.0949L58.4061 73.0987L58.4128 73.1051L58.4174 73.1095L58.4241 73.1153L58.4288 73.1197L58.4352 73.1255L58.4402 73.1296L58.4515 73.1395L58.4582 73.1453L58.4629 73.1494L58.4699 73.1555L58.4743 73.159L58.4856 73.1687L58.497 73.178L58.5084 73.1873L58.5127 73.1905L58.52 73.1963L58.5314 73.2054L58.5431 73.2144L58.548 73.2182L58.5597 73.2269L58.5664 73.2319L58.5713 73.2354L58.5783 73.2406L58.5827 73.2438L58.5943 73.2523L58.606 73.2605L58.6177 73.2686L58.622 73.2715L58.6296 73.2765L58.6343 73.2797L58.6413 73.2844L58.6462 73.2876L58.6529 73.2922L58.6582 73.2954L58.6649 73.2998L58.6698 73.303L58.6768 73.3074L58.6818 73.3106L58.6888 73.315L58.6934 73.3179L58.7051 73.3249L58.717 73.3319L58.7287 73.3389L58.7407 73.3456L58.7453 73.3482L58.7523 73.3523L58.7573 73.3549L58.7643 73.3587L58.7692 73.3616L58.7762 73.3651L58.7812 73.368L58.7882 73.3715L58.7931 73.3741L58.8001 73.3776L58.8051 73.3802L58.8126 73.384L58.8167 73.3861L58.8287 73.3919L58.8403 73.3974L58.8523 73.403L58.8639 73.4085L58.8689 73.4105L58.8759 73.4138L58.8808 73.4161L58.8875 73.419L58.8995 73.424L58.9044 73.426L58.9114 73.4289L58.9161 73.4309L58.928 73.4356L58.9397 73.44L58.9514 73.4446L58.963 73.4487L58.9747 73.4528L58.9793 73.4546L58.9863 73.4569L58.991 73.4583L58.998 73.4607L59.0029 73.4624L59.0096 73.4645L59.0146 73.4659L59.0216 73.4682L59.026 73.4694L59.0376 73.4729L59.0461 73.4752C59.2536 73.5332 59.4471 73.5227 59.5919 73.4339C60.8722 74.3874 62.8121 76.111 62.4411 77.5764C62.4405 77.5784 62.4399 77.5805 62.4393 77.5825C62.3624 77.8821 62.0896 78.0844 61.7868 78.087L61.7865 78.0931L60.1553 77.8888C59.8869 77.8547 59.779 77.8611 59.5765 77.8497C59.5109 78.101 59.4468 78.2511 59.3588 78.4999C58.9892 79.5448 58.5259 80.5729 58.182 81.2948Z" fill="black"/>
<path fill-rule="evenodd" clip-rule="evenodd" d="M69.655 98.7373L69.5859 99.8681L59.9688 99.2785L60.0381 98.1475C63.2436 98.3439 66.4495 98.5406 69.655 98.7373Z" fill="#F6C854"/>
<path fill-rule="evenodd" clip-rule="evenodd" d="M62.1136 99.549L43.2426 99.5854C42.8839 99.586 42.5738 99.3351 42.4986 98.9833L39.685 85.8018C39.5842 85.3285 39.9432 84.882 40.4259 84.8814L59.296 84.8447C59.6544 84.8441 59.9645 85.0951 60.0397 85.4468L62.8541 98.628C62.9553 99.1013 62.5962 99.5481 62.1136 99.549Z" fill="white"/>
<path fill-rule="evenodd" clip-rule="evenodd" d="M59.4263 85.4487L62.2407 98.6305C62.3415 99.1026 61.9825 99.5488 61.5001 99.5505L53.5984 99.5651L43.5787 99.5855L42.6295 99.587C42.271 99.5879 41.96 99.3363 41.8854 98.984L39.0713 85.804C39.0232 85.5728 39.0824 85.3481 39.2129 85.18C39.3496 85.001 39.5647 84.8827 39.813 84.883L47.5224 84.867L58.6816 84.8457C59.0404 84.8451 59.3514 85.0963 59.4263 85.4487Z" fill="#F6C854"/>
<path fill-rule="evenodd" clip-rule="evenodd" d="M47.5226 84.8672L43.5788 99.5854L42.6299 99.5869C42.2714 99.5875 41.9601 99.3363 41.8855 98.9839L39.0714 85.8036C39.023 85.5731 39.0825 85.3481 39.2133 85.1799C39.35 85.0012 39.5651 84.8829 39.8134 84.8829L47.5226 84.8672Z" fill="#D39E00"/>
</svg>
