<svg width="161" height="160" viewBox="0 0 161 160" fill="none" xmlns="http://www.w3.org/2000/svg">
<mask id="mask0_1483_70201" style="mask-type:luminance" maskUnits="userSpaceOnUse" x="0" y="34" width="161" height="91">
<rect x="0.574219" y="34.5" width="160" height="90.0433" fill="white"/>
</mask>
<g mask="url(#mask0_1483_70201)">
<rect x="0.574219" y="34.5" width="160" height="90.0433" fill="white"/>
<rect x="0.574219" y="34.5" width="160" height="90.0433" fill="white"/>
<path fill-rule="evenodd" clip-rule="evenodd" d="M148.717 56.6158C148.717 56.6158 166.32 68.7807 158.629 82.7436C150.939 96.7065 125.261 109.205 117.956 112.468C109.717 116.142 100.901 118.354 91.9038 119.006C89.9436 119.15 88.0198 119.222 86.0236 119.222C84.7769 119.222 94.718 115.205 80.0558 116.216C65.3936 117.228 45.0411 128.208 27.3746 123.274C9.70811 118.34 28.9081 109.715 22.4302 92.3446C15.9523 74.9746 -3.83544 67.9291 1.46638 53.7936C6.92092 39.2516 18.2906 43.5536 31.208 38.3131C48.9272 31.1242 53.6371 34.4994 106.366 45.0968L148.717 56.6158Z" fill="#EAF7FE"/>
<path fill-rule="evenodd" clip-rule="evenodd" d="M28.7878 52.2663C46.8976 38.2057 92.028 33.8722 125.748 40.259C159.469 46.6459 146.341 63.8559 146.341 63.8559L110.667 96.4994C110.667 96.4994 78.1111 111.047 53.3087 96.4994C28.5062 81.9519 10.678 66.3269 28.7878 52.2663Z" fill="#CEDEE7"/>
<path fill-rule="evenodd" clip-rule="evenodd" d="M27.7487 49.4958C45.8585 35.4352 90.9889 31.1017 124.709 37.4885C158.43 43.8754 145.302 61.0854 145.302 61.0854L109.628 93.7289C109.628 93.7289 77.072 108.276 52.2696 93.7289C27.4672 79.1813 9.63895 63.5564 27.7487 49.4958Z" fill="#DEEDF2"/>
<path fill-rule="evenodd" clip-rule="evenodd" d="M65.1594 90.8573L61.3398 76.0002L78.829 71.5205L82.6174 86.3797L65.1594 90.8573Z" fill="#1BB3BC"/>
<path fill-rule="evenodd" clip-rule="evenodd" d="M63.8703 94.2514L60.0508 79.3922L77.5081 74.916L81.3277 89.7732L63.8703 94.2514Z" fill="#EAF7FE"/>
<path fill-rule="evenodd" clip-rule="evenodd" d="M110.806 117.682C115.654 115.854 120.183 113.269 124.222 110.024L126.392 114.358C122.193 117.8 118.545 120.121 113.495 122.022C106.707 124.563 97.5166 124.337 90.1289 123.838V120.721C97.1582 121.171 104.203 120.135 110.806 117.681" fill="#1BB3BC"/>
<path fill-rule="evenodd" clip-rule="evenodd" d="M71.3973 82.2094L70.8602 77.247L68.7767 73.8693C68.3256 73.1073 67.9957 72.2797 67.7987 71.4164L66.9464 67.6976C66.9139 67.647 66.9464 67.5937 67.0094 67.5649C67.335 67.3704 67.7564 67.4729 67.9563 67.7952L70.0397 71.2044L70.5769 64.856C70.6377 64.0951 71.1469 63.444 71.8707 63.2016C72.092 63.1293 72.4072 63.0344 72.6919 62.9364C73.4252 62.7088 74.2127 63.0671 74.5229 63.7696C74.5229 63.7696 78.0577 72.9308 76.7958 77.0378L76.5429 77.8115L76.3854 83.939L71.3973 82.2094Z" fill="#FFC4B8"/>
<path fill-rule="evenodd" clip-rule="evenodd" d="M133.145 102.507C131.544 104.762 129.826 106.932 127.999 109.007C118.794 119.382 104.729 124.016 91.1596 121.145C91.0643 121.126 90.9701 121.104 90.8749 121.082C89.8013 120.855 88.7277 120.571 87.6541 120.242C86.2407 119.805 84.9669 119.003 83.9602 117.919C82.9369 116.84 82.2179 115.509 81.8768 114.061H81.8456C81.2139 113.979 70.923 112.515 70.923 102.687L70.6113 78.629L77.6513 78.2217L80.7107 96.7048C80.79 97.4746 81.2154 98.1665 81.8665 98.5849C82.5176 99.0032 83.3237 99.1025 84.0569 98.8548L103.408 92.3644L116.793 87.4019L128.852 82.9445C128.852 82.9445 140.469 92.2508 133.146 102.507" fill="#2A8FEC"/>
<path fill-rule="evenodd" clip-rule="evenodd" d="M90.3242 121.031C89.2506 120.804 87.5599 120.57 86.4863 120.245C85.0732 119.805 83.7998 119.003 82.7924 117.919C81.7698 116.84 81.0509 115.51 80.709 114.064C83.0748 114.218 85.4491 113.944 87.7178 113.256L90.3242 121.031Z" fill="#1BB3BC"/>
<path fill-rule="evenodd" clip-rule="evenodd" d="M96.1922 57.2228L92.2788 55.4361C91.9925 55.3007 91.7773 55.0499 91.6869 54.7463C91.5966 54.4427 91.6397 54.115 91.8054 53.8451C92.0885 53.4038 92.6392 53.217 93.1325 53.3949L97.4885 54.9703L96.1922 57.2228Z" fill="#FFC4B8"/>
<path fill-rule="evenodd" clip-rule="evenodd" d="M125.145 86.441C123.357 92.7968 116.763 96.5075 110.403 94.7371C110.071 94.6473 109.744 94.5398 109.424 94.415C108.768 94.1735 108.134 93.8756 107.53 93.5246V93.5215C107.278 93.3667 107.025 93.1994 106.773 93.029V93.0197C106.471 92.8264 106.186 92.6089 105.92 92.3693C105.825 92.2934 105.731 92.2179 105.636 92.1386C104.399 91.027 103.41 89.6676 102.732 88.1487C102.633 87.9659 102.549 87.7759 102.479 87.5804C102.416 87.4072 102.353 87.2299 102.29 87.0502C102.195 86.8008 102.132 86.5514 102.037 86.2927C101.943 85.8446 101.848 85.3868 101.785 84.9224C101.759 84.8572 101.748 84.7872 101.753 84.7173C101.69 84.3704 101.658 84.0185 101.658 83.6659V82.8579C101.658 82.6401 101.69 82.4223 101.69 82.2076C101.75 81.4597 101.888 80.7202 102.101 80.0008C102.952 76.9434 104.985 74.3501 107.75 72.7927C110.516 71.2352 113.787 70.8414 116.843 71.6981C123.197 73.4882 126.909 80.0788 125.145 86.4406" fill="#FFC4B8"/>
<path fill-rule="evenodd" clip-rule="evenodd" d="M76.8998 74.7128L72.922 76.3353C72.4766 76.5124 71.9715 76.3005 71.7857 75.8588L67.4608 65.252C67.292 64.8102 67.5005 64.3138 67.9343 64.1251L71.9121 62.5057C72.3566 62.3275 72.8619 62.538 73.0484 62.9791L77.3732 73.5859C77.4619 73.7979 77.4617 74.0367 77.3727 74.2486C77.2837 74.4605 77.1133 74.6277 76.8998 74.7128Z" fill="#DEEDF2"/>
<path fill-rule="evenodd" clip-rule="evenodd" d="M86.2656 37.4312L84.1728 42.3378H78.767L76.7109 37.4312H86.2656Z" fill="#9BC3D3"/>
<path fill-rule="evenodd" clip-rule="evenodd" d="M112.297 43.8415V43.8606H50.6289V43.8415C50.6285 42.1779 51.9728 40.8269 53.6364 40.8188H109.29C110.09 40.8187 110.858 41.1377 111.422 41.705C111.987 42.2723 112.302 43.0412 112.297 43.8415" fill="white"/>
<path fill-rule="evenodd" clip-rule="evenodd" d="M50.6289 43.8604L64.2559 47.1379H98.6687L112.296 43.8604H50.6289Z" fill="#9BC3D3"/>
<path fill-rule="evenodd" clip-rule="evenodd" d="M73.0624 75.9565C72.67 76.1125 72.2248 75.9257 72.0612 75.5364L67.86 65.3546C67.7114 64.9649 67.8955 64.5273 68.278 64.361L71.7831 62.9338C72.1752 62.7766 72.621 62.9622 72.7857 63.3511L76.9869 73.533C77.0649 73.7199 77.0645 73.9304 76.9859 74.1171C76.9073 74.3039 76.7571 74.4512 76.5689 74.5262" fill="white"/>
<path fill-rule="evenodd" clip-rule="evenodd" d="M97.0133 51.3027L99.2414 53.9571C100.216 55.1185 100.498 56.7117 99.9794 58.1367C99.4611 59.5617 98.222 60.602 96.7288 60.8656C95.2355 61.1293 93.7151 60.5763 92.7401 59.4149L90.512 56.7605C89.0049 54.9652 89.2386 52.2881 91.034 50.781C92.8293 49.2739 95.5064 49.5076 97.0135 51.303" fill="#34466B"/>
<path fill-rule="evenodd" clip-rule="evenodd" d="M103.399 60.3126L104.329 65.5587L101.238 66.7433L94.9533 59.9242C94.3133 59.229 93.8643 58.3798 93.6499 57.4595L93.1599 55.4153C93.0347 54.896 93.1842 54.3488 93.556 53.9653C93.9278 53.5817 94.4701 53.4153 94.993 53.5243L98.4842 54.2145C98.8656 54.2992 99.2007 54.5252 99.4222 54.8471L103.399 60.3126Z" fill="#FFC4B8"/>
<path fill-rule="evenodd" clip-rule="evenodd" d="M120.144 93.8764C118.818 97.2101 113.925 99.1547 109.221 98.2234C105.117 97.4089 102.768 95.5983 102.835 92.5559L111.589 88.5129L116.167 86.8208C119.513 88.2383 121.217 91.0982 120.144 93.8764Z" fill="#FFC4B8"/>
<path fill-rule="evenodd" clip-rule="evenodd" d="M104.753 62.3154L98.9473 65.7253L111.77 93.9667C111.77 93.9667 128.938 83.3946 129.033 83.1102" fill="#2A8FEC"/>
<path fill-rule="evenodd" clip-rule="evenodd" d="M104.965 82.5397L104.491 78.8999L103.291 77.934C102.686 77.4585 102.319 76.7414 102.289 75.9722C102.259 75.2029 102.568 74.4592 103.134 73.9375C106.228 71.1468 111.31 69.941 115.098 70.7808C116.078 70.9814 117.011 71.3695 117.844 71.9236C118.269 72.2009 118.599 72.6005 118.791 73.0696L104.965 82.5397Z" fill="#732645"/>
<path fill-rule="evenodd" clip-rule="evenodd" d="M125.554 83.6745C125.525 84.6081 125.387 85.5351 125.143 86.4367C124.75 87.8092 124.12 89.1021 123.281 90.2566C118.229 97.183 107.496 95.999 103.991 88.1787C103.801 87.7462 103.707 87.4812 103.707 87.4812V87.4781L103.264 85.3822L102.476 87.5761C102.413 87.403 102.349 87.2256 102.286 87.0459C102.196 86.7983 102.122 86.5452 102.065 86.2882C101.97 85.9501 101.876 85.6063 101.813 85.2558C101.813 85.1453 101.781 85.0317 101.781 84.9178C101.755 84.8526 101.744 84.7826 101.75 84.7127C101.686 84.3659 101.654 84.0139 101.654 83.6613V82.8534C101.654 82.6355 101.686 82.4177 101.686 82.203C101.74 81.6561 101.825 81.1127 101.939 80.5753C102.001 80.3827 102.033 80.1901 102.097 79.9976C102.31 79.2326 102.595 78.4895 102.949 77.7784C105.541 72.7034 111.351 70.1588 116.839 71.6953C122.166 73.191 125.77 78.1469 125.551 83.6755" fill="#732645"/>
<path fill-rule="evenodd" clip-rule="evenodd" d="M103.722 86.9633C103.637 87.1613 103.531 87.3497 103.406 87.5253V87.5285C103.374 87.5631 103.343 87.5946 103.311 87.6265C103.315 87.6488 103.301 87.6707 103.279 87.677C103.24 87.7328 103.198 87.7866 103.153 87.8381C103.122 87.8571 103.122 87.8696 103.09 87.8886C102.905 88.0661 102.692 88.2112 102.459 88.3181C102.459 88.2772 102.427 88.2329 102.427 88.1917C102.329 88.0089 102.244 87.8189 102.175 87.6234C102.112 87.4502 102.048 87.2729 101.985 87.0931C101.89 86.8438 101.827 86.5944 101.732 86.3354C101.639 85.8873 101.543 85.4294 101.48 84.9653C101.454 84.9002 101.444 84.8301 101.449 84.7603C101.385 84.4134 101.354 84.0615 101.354 83.7089V83.5101C101.835 83.3115 102.382 83.344 102.837 83.5984C103.847 84.1636 104.257 85.6725 103.722 86.9636" fill="#FFC4B8"/>
<path d="M69.3403 67.3402L73.1935 65.7834" stroke="#DEEDF2"/>
<path d="M69.6 67.9828L71.5266 67.2044" stroke="#DEEDF2"/>
</g>
</svg>
