<svg width="160" height="160" viewBox="0 0 160 160" fill="none" xmlns="http://www.w3.org/2000/svg">
<path fill-rule="evenodd" clip-rule="evenodd" d="M8.0909 72.5163C10.2659 64.7131 3.35153 64.4121 3.19926 54.3576C3.13728 50.2455 5.38977 46.0574 10.8102 44.1362C13.4742 43.1924 16.1292 42.5435 18.4995 41.0422C23.9009 37.6213 23.8033 31.1117 25.2771 25.5627C28.5128 13.375 40.967 3.6925 53.5735 4.00747C62.6613 4.23412 70.8774 4.51267 79.1625 12.2263C84.8317 17.5046 88.5161 23.999 93.7793 29.4404C99.3532 35.2026 106.145 37.9672 113.772 39.8187C120.984 41.5695 128.83 43.6527 134.351 48.9031C139.539 53.8369 138.783 58.9975 136.558 65.0556C134.105 71.736 139.424 76.2809 144.97 78.8824C149.64 81.0726 157.457 85.5275 157.712 93.7421C158.503 119.186 142.342 119.288 136.316 121.706C80.8854 143.953 59.613 126.794 36.1095 127.141C12.6796 127.486 -0.751312 99.1517 0.0626678 90.8074C1.09555 80.2125 6.57179 77.965 8.0909 72.5163Z" fill="#DEEDF2"/>
<path fill-rule="evenodd" clip-rule="evenodd" d="M100.287 114.63C106.375 116.259 108.271 119.9 114.561 120.481C127.193 121.649 153.06 117.515 157.352 123.169C161.582 128.742 157.322 139.599 134.851 138.049C135.372 138.42 124.373 145.205 106.092 148.164C98.8589 149.335 86.6022 149.529 81.8182 148.41C74.4649 146.69 66.9049 146.018 59.3614 146.374C32.5314 147.641 11.3128 146.068 10.7452 141.486C10.5551 139.955 11.9527 137.716 14.2889 136.307C15.7444 135.43 13.4825 134.934 12.9548 134.784C6.47433 132.951 2.75077 130.659 2.48054 128.651C1.63288 122.351 24.5268 114.446 51.7155 111.076C70.238 108.781 90.1257 111.91 100.287 114.63Z" fill="#DEEDF2"/>
<path fill-rule="evenodd" clip-rule="evenodd" d="M66.125 59.8349C66.125 59.8349 70.475 57.1415 71.0135 57.644C71.5521 58.1461 69.7323 59.5877 69.7323 59.5877C69.7323 59.5877 75.0451 64.3686 74.8552 65.0799C74.6654 65.7912 66.3361 62.4016 66.3361 62.4016L66.125 59.8349Z" fill="#F4A48D"/>
<path fill-rule="evenodd" clip-rule="evenodd" d="M48.0835 83.9067L48.4551 108.26L43.676 139.047L39.9152 139.212L38.0368 110.698L31.4084 82.6475L48.0835 83.9067Z" fill="#444444"/>
<path fill-rule="evenodd" clip-rule="evenodd" d="M38.7695 85.1094L35.1266 109.149L26.376 138.824L22.6289 138.469L24.4349 110.027L22.4977 81.4849L38.7695 85.1094Z" fill="#444444"/>
<path fill-rule="evenodd" clip-rule="evenodd" d="M31.4746 37.359C28.6669 36.2151 26.666 33.2667 26.666 29.8136C26.666 25.3687 29.9816 21.7598 34.0656 21.7598C37.2972 21.7598 40.0477 24.0195 41.055 27.165L41.0675 27.1682L43.0005 33.4444L42.8228 33.5194L42.73 33.5587L41.5874 33.8012L41.5824 37.0975L41.5266 37.2974C41.4362 37.5743 41.3113 37.8429 41.1517 38.0954C40.9656 38.3906 40.7351 38.6602 40.4738 38.8928C40.3376 39.0149 40.1915 39.1254 40.0373 39.225C39.9556 39.2788 39.8739 39.3278 39.7901 39.3742C39.7246 39.4112 39.6586 39.4457 39.591 39.4775L39.3848 39.5767L40.0416 46.8453C40.0416 46.8453 36.6683 47.6339 35.1067 47.3169L34.8982 47.2713L34.8939 47.2704C33.4034 46.9548 31.923 46.4581 30.6719 44.9432C30.6719 44.9432 30.6753 44.9263 30.6818 44.8937L30.6719 44.8821C30.6719 44.8821 30.789 44.3316 30.9353 43.4326C31.1584 41.9985 31.4468 39.717 31.4746 37.359Z" fill="#F4A48D"/>
<path fill-rule="evenodd" clip-rule="evenodd" d="M39.4033 41.4079C38.3888 41.1139 36.2483 39.9578 34.6406 38.0772L39.2289 39.6509C39.2289 39.6509 39.3167 40.5489 39.4033 41.4079ZM41.8425 33.5991C41.4285 33.7318 41.0042 33.4309 41.0154 33.0128L41.0874 30.3169L41.8425 33.5991Z" fill="#A66555"/>
<path fill-rule="evenodd" clip-rule="evenodd" d="M31.5335 37.9152L30.3824 37.2788C29.0042 36.4812 27.8368 35.292 27.0723 33.775C24.978 29.6194 26.6948 24.5753 30.9065 22.5085C34.6981 20.6479 39.223 21.8361 41.6122 25.1289L40.6654 25.887C40.4505 25.8251 40.0947 25.7261 39.6589 25.6148C38.0931 25.2072 35.4966 24.6308 34.6837 25.0225C33.4934 25.5965 33.5489 27.7577 33.7296 29.4724C33.9064 31.1495 34.0659 31.8778 33.2964 32.2071C33.0142 32.3279 32.8398 30.9114 32.1926 30.4857C31.509 30.0361 30.6359 30.4939 30.7637 32.0339C30.9753 32.7336 31.1381 33.4234 31.2602 34.097C31.4648 35.3016 31.5397 36.6156 31.5335 37.9152Z" fill="#767676"/>
<path fill-rule="evenodd" clip-rule="evenodd" d="M26.568 138.049H22.6622L22.5 141.906L27.2 142.311H30.6359L29.9966 140.522L29.3017 140.075L26.568 138.049Z" fill="#1BB3BC"/>
<path fill-rule="evenodd" clip-rule="evenodd" d="M43.9993 136.887L48.6484 140.18L48.2808 142.129L39.1565 141.198L39.9314 136.887H43.9993Z" fill="#1BB3BC"/>
<path fill-rule="evenodd" clip-rule="evenodd" d="M45.2559 49.1577C45.2559 49.1577 46.0025 62.7823 67.1873 59.025L66.4965 62.8369C66.4965 62.8369 45.8061 72.1867 36.1247 50.3382C36.029 50.122 35.2852 50.7713 35.2852 50.7713C36.392 50.2487 42.272 50.7876 45.2559 49.1577Z" fill="#767676"/>
<path fill-rule="evenodd" clip-rule="evenodd" d="M22.7249 55.5224C21.1395 64.6965 20.1009 83.9272 20.7637 89.4368C20.7637 89.4368 39.2401 92.9453 49.8195 88.2144C49.8195 88.2144 49.0566 61.854 45.2556 49.2595C44.404 46.4374 41.9567 44.371 39.0274 43.988C38.5144 43.9211 37.9523 43.8678 37.337 43.8326C30.2119 43.4283 23.9375 48.5066 22.7249 55.5224Z" fill="#767676"/>
<path fill-rule="evenodd" clip-rule="evenodd" d="M60.3652 64.0848C60.3652 64.0848 60.4818 62.014 60.767 61.3798C61.1029 60.6329 62.5522 58.316 62.6828 59.0576C62.813 59.7995 62.2291 60.9587 62.2291 60.9587C62.2291 60.9587 65.8442 58.75 66.7163 59.3617C67.588 59.9731 64.7253 64.5458 63.947 65.4919C63.1686 66.438 61.5787 66.796 61.5787 66.796L60.3652 64.0848Z" fill="#F4A48D"/>
<path fill-rule="evenodd" clip-rule="evenodd" d="M38.3581 76.2578C44.1951 81.0006 61.7063 66.7728 61.7063 66.7728L60.2469 63.8544L44.56 68.2323L35.9987 54.5271C35.9987 54.5271 31.9854 50.1496 27.9728 52.3385C23.9598 54.5271 26.1484 58.905 26.1484 58.905C26.1484 58.905 32.5212 71.5153 38.3581 76.2578Z" fill="#767676"/>
<path fill-rule="evenodd" clip-rule="evenodd" d="M30.7773 43.626L45.9865 63.7721L39.5324 43.9124L30.7773 43.626Z" fill="#EAF7FE"/>
<path fill-rule="evenodd" clip-rule="evenodd" d="M29.4707 45.7034L36.9057 48.4002L38.6217 44.9944L40.1418 46.2896L40.706 44.0433L39.2272 42.7427C39.2272 42.7427 38.2357 44.2963 35.0884 43.7112C32.042 43.1448 30.7741 42.8763 30.7741 42.8763L29.4707 45.7034Z" fill="#EAF7FE"/>
<path fill-rule="evenodd" clip-rule="evenodd" d="M96.4809 83.9067L96.1094 108.26L100.888 139.047L104.649 139.212L106.528 110.698L113.156 82.6475L96.4809 83.9067Z" fill="#34466B"/>
<path fill-rule="evenodd" clip-rule="evenodd" d="M104.633 85.4971L108.276 109.537L117.026 139.211L120.773 138.857L118.967 110.414L120.905 81.8726L104.633 85.4971Z" fill="#34466B"/>
<path fill-rule="evenodd" clip-rule="evenodd" d="M37.4141 47.0042L39.1261 48.5408L39.5403 55.528L45.9944 63.703L42.8152 54.0705L39.9009 48.4118L39.9699 45.9749L38.5295 44.6797L37.4141 47.0042Z" fill="#2A8FEC"/>
<path fill-rule="evenodd" clip-rule="evenodd" d="M111.818 33.6564C113.514 32.499 114.657 30.5778 114.734 28.3702C114.862 24.6868 111.976 21.5919 108.293 21.4632C104.892 21.3445 101.993 23.7959 101.467 27.072C101.383 27.4124 101.319 27.7571 101.271 28.1024L101.27 28.103L101.269 28.1106L101.269 28.1133C101.254 28.2166 101.242 28.3199 101.23 28.4231L100.591 33.5569L101.625 33.9437L101.636 33.9465L101.636 33.9465C101.658 34.0372 101.671 34.0862 101.671 34.0862L101.675 34.7838L101.681 36.0877C101.684 36.5192 101.759 36.9446 101.902 37.347C102.002 37.6311 102.138 37.9045 102.306 38.1597C102.504 38.4593 102.743 38.7302 103.012 38.9614C103.153 39.0826 103.302 39.1917 103.46 39.2896C103.543 39.3416 103.626 39.3896 103.712 39.435L103.713 39.4353L102.979 47.5541C102.979 47.5541 105.329 48.3526 107.949 47.8756C109.533 47.5902 111.217 46.8356 112.54 45.1598C112.54 45.1598 111.272 38.6274 111.818 33.6564Z" fill="#FFC4B8"/>
<path fill-rule="evenodd" clip-rule="evenodd" d="M107.928 47.7698C109.52 47.4876 111.212 46.7366 112.539 45.0642C112.539 45.0642 111.144 38.0651 111.863 33.0421C111.863 33.0421 107.866 41.8697 107.928 47.7698ZM101.628 33.9713C101.993 34.0922 102.366 33.8179 102.355 33.4367L102.281 30.9791L101.628 33.9713Z" fill="#F4A48D"/>
<path fill-rule="evenodd" clip-rule="evenodd" d="M110.249 29.769C110.732 29.186 111.366 28.9022 111.892 29.103C112.641 29.3888 112.891 30.5482 112.449 31.6906C112.296 32.0885 112.079 32.4322 111.829 32.699C111.801 33.044 111.783 33.3836 111.774 33.7171C112.753 32.9609 113.705 31.9485 114.179 30.7214C115.656 26.8952 114.276 23.2358 109.782 21.5208C106.409 20.2333 102.682 21.5637 100.948 24.5077L101.295 25.1036L101.296 25.0983L101.355 25.0845L107.536 23.601L108.946 27.949L108.34 28.9707L105.651 33.4947C105.464 33.8116 105.196 34.0651 104.881 34.236C104.641 34.3668 104.376 34.4516 104.097 34.4806L104.096 34.4799C104.007 34.4886 103.918 34.493 103.828 34.4909C103.683 34.4883 103.541 34.4703 103.401 34.4393L102.251 34.1763C102.143 34.1511 102.032 34.1329 101.921 34.1188C101.719 34.0942 101.515 34.0893 101.313 34.103C101.308 34.1034 101.305 34.102 101.302 34.1049L101.313 34.1072C101.343 34.1973 101.359 34.246 101.359 34.246L101.409 34.9486L102.966 35.2435C103.007 35.251 103.045 35.2612 103.083 35.2757C103.28 35.3509 103.432 35.5162 103.487 35.723C103.552 35.9682 103.465 36.226 103.265 36.3824L101.954 37.408L101.814 37.5183C101.936 37.7992 102.094 38.0676 102.284 38.3162C102.508 38.6076 102.773 38.8684 103.066 39.0874C103.219 39.2023 103.38 39.3045 103.549 39.3951L103.622 39.3623C103.692 39.3305 103.765 39.2976 103.834 39.2634C105.813 38.331 107.466 36.888 108.633 35.1061C109.056 34.463 109.415 33.7754 109.701 33.0516C109.732 32.9765 109.761 32.9008 109.789 32.8226L109.79 32.822C109.459 32.3148 109.417 31.4805 109.736 30.6551L109.748 30.6257L109.751 30.6158L109.759 30.5964L109.764 30.5849L109.771 30.567L109.776 30.5554L109.784 30.5373L109.789 30.5264L109.798 30.505L109.801 30.4978L109.814 30.4701L109.818 30.4598L109.827 30.442L109.832 30.4302L109.84 30.414L109.846 30.4019L109.854 30.3859L109.859 30.3741L109.868 30.3568L109.873 30.3467L109.886 30.3207L109.892 30.3104L109.9 30.2938L109.907 30.2819L109.915 30.2671L109.921 30.2549L109.929 30.2404L109.936 30.2284L109.944 30.2133L109.951 30.2023L109.965 30.1776L109.97 30.1681L109.98 30.152L109.987 30.1405L109.995 30.1266L110.002 30.1148L110.011 30.1012L110.018 30.0896L110.027 30.0757L110.034 30.0647L110.045 30.0473L110.049 30.0408L110.054 30.034L110.065 30.0171L110.072 30.0064L110.081 29.9929L110.089 29.9819L110.097 29.9689L110.105 29.958L110.114 29.9448L110.122 29.9345L110.133 29.9192L110.138 29.9113L110.155 29.8893L110.161 29.8801L110.172 29.8665L110.179 29.8566L110.189 29.8438L110.197 29.834L110.207 29.8211L110.214 29.8118L110.226 29.7973L110.232 29.79L110.249 29.769Z" fill="#9BC3D3"/>
<path fill-rule="evenodd" clip-rule="evenodd" d="M101.709 48.1145C101.709 48.1145 105.679 67.7719 85.0269 81.2511L87.2573 83.8302C87.2573 83.8302 111.78 79.8966 112.876 51.0076C112.876 51.0076 113.608 44.5949 107.547 42.5961C101.487 40.597 101.709 48.1145 101.709 48.1145Z" fill="#2A8FEC"/>
<path fill-rule="evenodd" clip-rule="evenodd" d="M92.6557 88.1552C99.266 89.0247 104.259 89.5024 107.636 89.5883C111.013 89.6741 115.96 89.4491 122.479 88.9133C121.71 62.7128 118.289 46.6297 112.215 40.6639C112.215 40.6639 105.13 42.4195 102.635 42.1498C102.635 42.1498 99.3083 57.4849 92.6557 88.1552Z" fill="#2A8FEC"/>
<path fill-rule="evenodd" clip-rule="evenodd" d="M75.3161 63.0294C75.3161 63.0294 72.7195 58.679 72.0424 58.9138C71.3657 59.1486 72.3172 61.2592 72.3172 61.2592C72.3172 61.2592 65.7114 63.4103 65.5721 64.1491C65.4329 64.8882 74.0422 65.3125 74.0422 65.3125L75.3161 63.0294Z" fill="#FFC4B8"/>
<path fill-rule="evenodd" clip-rule="evenodd" d="M85.3636 81.9224C85.3636 81.9224 80.3395 83.3616 80.35 84.114C80.36 84.866 82.6997 84.4801 82.6997 84.4801C82.6997 84.4801 77.3738 89.7243 81.6885 88.7066C83.8961 88.1859 87.1597 83.8444 87.1597 83.8444L85.3636 81.9224Z" fill="#FFC4B8"/>
<path fill-rule="evenodd" clip-rule="evenodd" d="M114.557 60.0462C114.557 60.0462 103.316 69.4798 97.6013 74.3688C91.8865 79.2574 74.0211 65.4778 74.0211 65.4778L75.4057 62.5233L92.9457 66.9428L106.138 53.9735C106.138 53.9735 108.5 51.4412 112.567 53.5277C116.634 55.6147 114.557 60.0462 114.557 60.0462Z" fill="#2A8FEC"/>
<path fill-rule="evenodd" clip-rule="evenodd" d="M113.573 42.269L106.559 46.1329L104.202 43.0528L102.923 44.5739L101.651 42.4719L103.448 40.984C103.448 40.984 103.71 42.1637 106.739 41.4174C109.787 40.6668 111.637 39.9316 111.637 39.9316L113.573 42.269Z" fill="#1B4872"/>
<path fill-rule="evenodd" clip-rule="evenodd" d="M100.953 137.468L104.633 137.468L104.915 142.35L99.4168 142.674L95.9163 142.698L96.4975 139.986L100.953 137.468Z" fill="#1BB3BC"/>
<path fill-rule="evenodd" clip-rule="evenodd" d="M117.175 137.688L112.355 140.204L112.548 142.685L121.524 142.087L120.697 137.176L117.175 137.688Z" fill="#1BB3BC"/>
<path d="M51.5687 35.7686L53.8381 32.2752C51.286 27.5045 53.054 21.4351 57.787 18.7189C62.5198 16.0029 68.4255 17.6686 70.9775 22.4393C73.5296 27.21 71.7617 33.2794 67.0288 35.9956C63.5696 37.9808 59.3282 37.6748 56.2756 35.2202L51.5687 35.7686Z" fill="#9BC3D3"/>
<mask id="mask0_1483_70203" style="mask-type:luminance" maskUnits="userSpaceOnUse" x="47" y="13" width="27" height="29">
<path fill-rule="evenodd" clip-rule="evenodd" d="M56.2988 13.0942L73.4957 20.7508L64.2377 41.5447L47.0408 33.8881L56.2988 13.0942Z" fill="white"/>
</mask>
<g mask="url(#mask0_1483_70203)">
<path fill-rule="evenodd" clip-rule="evenodd" d="M51.1652 35.7245L53.0986 31.4817C50.1619 27.1326 51.2882 21.0765 55.6143 17.9547C59.9404 14.833 65.828 15.8279 68.7648 20.177C71.7016 24.5259 70.5752 30.5822 66.2491 33.704C63.0864 35.9861 58.9428 36.1325 55.745 34.0747L51.1652 35.7245Z" fill="white"/>
</g>
<path fill-rule="evenodd" clip-rule="evenodd" d="M63.1682 23.8203L61.6371 21.1555C61.5204 20.9523 61.4397 20.7345 61.3949 20.5112L61.3309 20.6226C60.952 21.2822 60.952 22.0947 61.3309 22.7543L62.5558 24.8862C62.9347 25.5458 62.9347 26.3584 62.5558 27.018L62.4918 27.1294C62.447 26.9061 62.3663 26.6883 62.2496 26.4851L60.4123 23.2873C60.2955 23.0841 60.2149 22.8663 60.17 22.643L60.1061 22.7544C59.7284 23.4118 59.7273 24.2211 60.1024 24.8795L61.3309 27.018C61.7099 27.6776 61.7099 28.4902 61.3309 29.1498L61.2669 29.2612C61.2221 29.0379 61.1415 28.8201 61.0247 28.617L59.4937 25.9521C59.2883 25.5947 59.1945 25.1924 59.2117 24.7938C57.5727 25.2241 56.4414 26.1378 56.4414 27.1957C56.4414 28.6673 58.6305 29.8604 61.3309 29.8604C64.0313 29.8604 66.2204 28.6673 66.2204 27.1957C66.2204 26.1377 65.0893 25.2238 63.4501 24.7935C63.4356 24.4566 63.3418 24.1224 63.1682 23.8203Z" fill="#2A8FEC"/>
</svg>
