<svg width="161" height="160" viewBox="0 0 161 160" fill="none" xmlns="http://www.w3.org/2000/svg">
<mask id="mask0_1483_70198" style="mask-type:luminance" maskUnits="userSpaceOnUse" x="0" y="36" width="161" height="88">
<rect x="0.484375" y="36" width="160" height="87.7419" fill="white"/>
</mask>
<g mask="url(#mask0_1483_70198)">
<rect x="0.484375" y="36" width="164.858" height="87.7419" fill="white"/>
<path fill-rule="evenodd" clip-rule="evenodd" d="M0.483429 123.788C0.483429 123.788 26.0063 95.9345 40.4258 95.2329C62.0546 94.1806 91.5474 121.559 108.205 117.714C124.863 113.87 143.829 106.481 149.674 101.041C160.184 91.256 178.991 112.578 187.422 112.061C212.177 110.537 232.769 92.7169 251.061 99.1789C256.153 100.977 273.729 123.855 273.729 123.855L0.483429 123.788Z" fill="#EAF7FE"/>
<path d="M86.8477 36.0967C96.5891 46.2341 111.015 71.2624 111.208 86.3919" stroke="#DEEDF2" stroke-width="1.8" stroke-dasharray="2.71"/>
<path d="M9.33008 61.6591C20.9262 53.8778 34.58 49.7325 48.545 49.7535C72.1515 49.7535 95.8488 69.3518 108.633 87.1577" stroke="#DEEDF2" stroke-width="1.8" stroke-dasharray="2.73"/>
<path fill-rule="evenodd" clip-rule="evenodd" d="M94.5677 43.2886C94.5624 44.3389 93.7081 45.1868 92.6577 45.1843C91.6168 45.175 90.7773 44.3295 90.7754 43.2886C90.7762 42.2467 91.6159 41.3998 92.6577 41.3901C93.7091 41.3878 94.5637 42.2373 94.5677 43.2886Z" fill="#DEEDF2"/>
<path fill-rule="evenodd" clip-rule="evenodd" d="M39.3027 123.742H45.217V57.6914L39.3027 59.9797V123.742Z" fill="white"/>
<path fill-rule="evenodd" clip-rule="evenodd" d="M52.2617 123.742H69.3268V48.2905H52.2617V123.742Z" fill="#9BC3D3"/>
<path fill-rule="evenodd" clip-rule="evenodd" d="M55.543 123.742H69.3285V48.2905H55.543V123.742Z" fill="#DEEDF2"/>
<path fill-rule="evenodd" clip-rule="evenodd" d="M32.9707 123.742H49.3654V81.2373H32.9707V123.742Z" fill="#CEDEE7"/>
<path fill-rule="evenodd" clip-rule="evenodd" d="M33.0742 81.2373L46.3475 123.742H33.0742V81.2373Z" fill="#9BC3D3"/>
<path fill-rule="evenodd" clip-rule="evenodd" d="M55.5437 61.6159L69.3274 48.291H52.2617L55.5437 61.6159Z" fill="#CEDEE7"/>
<rect x="35.3984" y="85.7915" width="8.19734" height="3.64326" fill="white"/>
<rect x="38.7383" y="90.6489" width="8.19734" height="3.64326" fill="white"/>
<rect x="44.2031" y="85.7915" width="2.73245" height="3.64326" fill="white"/>
<rect x="44.5078" y="90.6489" width="2.73245" height="3.64326" fill="white"/>
<path fill-rule="evenodd" clip-rule="evenodd" d="M90.8392 65.6031C90.7896 61.8966 87.7708 58.918 84.0639 58.918C80.3571 58.918 77.3383 61.8966 77.2887 65.6031H74.9473V123.744H93.1797V65.6031H90.8392Z" fill="#DEEDF2"/>
<path d="M113.214 69.6553V70.0317" stroke="#DEEDF2" stroke-width="1.813"/>
<path fill-rule="evenodd" clip-rule="evenodd" d="M21.9688 123.742H23.4173V80.5312H21.9688V123.742Z" fill="#732645"/>
<path fill-rule="evenodd" clip-rule="evenodd" d="M74.8887 66.7783L86.5043 123.742H74.8887V66.7783Z" fill="#9BC3D3"/>
<path fill-rule="evenodd" clip-rule="evenodd" d="M86.1763 68.7525C86.2295 68.2825 86.1319 67.8077 85.8976 67.3969L85.5748 66.8395L84.2839 64.6077C84.1661 64.3969 84.0796 64.1702 84.027 63.9346L83.9603 64.0502C83.5718 64.743 83.5718 65.588 83.9603 66.2808L85.2961 68.5952C85.6498 69.2717 85.6331 70.082 85.2518 70.7432L85.185 70.8601C85.1373 70.6229 85.0507 70.3951 84.9288 70.1861L85.0502 70.395L83.9587 68.5126L82.9687 66.7903L83.0024 66.8404C82.8797 66.6316 82.793 66.4036 82.7461 66.1661L82.6796 66.283C82.2785 66.9722 82.2785 67.8237 82.6796 68.5129L82.7231 68.5864L83.6369 70.1867L83.9587 70.7441C84.36 71.4334 84.36 72.2851 83.9587 72.9744L83.8932 73.0913C83.8451 72.8536 83.7579 72.6255 83.6351 72.4164L83.7584 72.6256L82.0336 69.6275C81.877 69.3588 81.7779 69.0605 81.7427 68.7516C79.8282 69.1842 78.4941 70.1627 78.4941 71.3019C78.4941 72.8405 80.9418 74.0911 83.959 74.0911C86.9863 74.0911 89.4239 72.8417 89.4239 71.3019C89.4239 70.1661 88.0881 69.1848 86.1738 68.7516" fill="white"/>
<rect x="82.6094" y="77.7461" width="7.03545" height="3.64326" transform="rotate(90 82.6094 77.7461)" fill="white"/>
<rect x="88.9863" y="77.7461" width="7.03545" height="3.64326" transform="rotate(90 88.9863 77.7461)" fill="white"/>
<path d="M64.017 106.793C75.2589 106.793 86.7096 123.742 86.7096 123.742H50.3984C50.3984 123.742 52.7751 106.793 64.017 106.793Z" fill="#8AD7C4"/>
<path fill-rule="evenodd" clip-rule="evenodd" d="M65.4588 106.793C76.1369 106.793 87.013 123.742 87.013 123.742H52.5234C52.5234 123.742 54.7807 106.793 65.4588 106.793Z" fill="#8AD7C4"/>
<path d="M89.722 112.895C96.8185 112.895 102.768 123.742 102.768 123.742H79.8457C79.8457 123.742 82.6252 112.895 89.722 112.895Z" fill="#8AD7C4"/>
<path fill-rule="evenodd" clip-rule="evenodd" d="M90.7463 113.169C97.2953 113.169 102.423 123.742 102.423 123.742H81.2695C81.2695 123.742 84.1969 113.169 90.7463 113.169Z" fill="#8AD7C4"/>
<path d="M101.58 118.544C105.234 118.544 108.957 123.742 108.957 123.742H97.1523C97.1523 123.742 97.925 118.544 101.58 118.544Z" fill="#8AD7C4"/>
<path fill-rule="evenodd" clip-rule="evenodd" d="M102.119 118.544C105.507 118.544 108.957 123.742 108.957 123.742H98.0156C98.0156 123.742 98.7318 118.544 102.119 118.544Z" fill="#8AD7C4"/>
<path fill-rule="evenodd" clip-rule="evenodd" d="M111.342 56.8819C111.338 61.8693 107.292 65.909 102.304 65.9059C97.3169 65.9029 93.2759 61.8582 93.2773 56.8708C93.2788 51.8834 97.3222 47.841 102.31 47.8408C104.706 47.8419 107.005 48.795 108.699 50.4905C110.393 52.1861 111.344 54.4851 111.342 56.8819Z" fill="#F6C854"/>
<path fill-rule="evenodd" clip-rule="evenodd" d="M111.467 87.9846L113.445 88.4264C114.827 88.7351 115.697 90.1054 115.388 91.4871C115.079 92.8688 113.709 93.7387 112.327 93.4301L110.349 92.9882C108.967 92.6796 108.097 91.3093 108.406 89.9276C108.715 88.5459 110.085 87.676 111.467 87.9846Z" fill="#2A8FEC"/>
<path fill-rule="evenodd" clip-rule="evenodd" d="M110.111 89.4973C110.136 89.4067 110.182 89.3234 110.246 89.2544L110.818 88.6311C110.861 88.5843 110.896 88.5308 110.921 88.4727L110.932 88.5064C110.995 88.7062 110.946 88.9243 110.805 89.0787L110.347 89.5775C110.205 89.7318 110.157 89.9499 110.219 90.1498L110.23 90.1835C110.256 90.1253 110.291 90.0718 110.334 90.025L110.753 89.5696L111.02 89.2781C111.063 89.2312 111.098 89.1777 111.124 89.1196L111.135 89.1533C111.197 89.3525 111.149 89.5698 111.009 89.7241L110.549 90.2242C110.408 90.3786 110.359 90.5968 110.422 90.7968L110.432 90.8305C110.458 90.7723 110.493 90.7188 110.536 90.672L111.108 90.0487C111.184 89.9664 111.234 89.8644 111.254 89.7545C111.67 89.9688 111.92 90.2821 111.857 90.5663C111.769 90.961 111.108 91.1502 110.38 90.9874C109.651 90.8247 109.133 90.3729 109.221 89.9776C109.284 89.6935 109.644 89.5161 110.111 89.4994" fill="white"/>
<path fill-rule="evenodd" clip-rule="evenodd" d="M116.596 92.1724L116.781 91.5072L120.859 86.7883L121.527 84.5884L123.502 86.4707L122.834 87.949C122.293 89.1464 121.407 90.1551 120.29 90.8457L117.927 92.3054" fill="#F4A48D"/>
<path fill-rule="evenodd" clip-rule="evenodd" d="M129.205 108.373L135.857 97.1494L128.686 97.3131L125.128 107.034L125.447 120.17L119.84 123.295L120.541 123.741L128.037 123.295L127.421 120.935L129.205 108.373Z" fill="#9BC3D3"/>
<path fill-rule="evenodd" clip-rule="evenodd" d="M126.273 97.1503L126.847 108.692L140.353 112.327L141.819 117.684H142.992L143.666 110.446H141.055L132.242 105.479V96.5127L126.273 97.1503Z" fill="#9BC3D3"/>
<path d="M125.467 71.6004L125.792 72.0012L127.901 71.2895L128.619 72.9132L129.24 73.4294L130.133 74.5903C130.944 73.7688 131.175 72.5376 130.717 71.478C130.26 70.4184 129.205 69.7422 128.051 69.7688C126.898 69.7954 125.875 70.5194 125.467 71.5989L125.467 71.6004Z" fill="#34466B"/>
<path fill-rule="evenodd" clip-rule="evenodd" d="M125.34 72.0404C125.038 73.5305 125.966 74.9933 127.443 75.3553C128.919 75.7173 130.418 74.8494 130.84 73.3886C131.261 71.9278 130.455 70.3948 129.012 69.9147C127.569 69.4346 126.005 70.1785 125.467 71.6005C125.413 71.7435 125.371 71.8906 125.34 72.0404Z" fill="#732645"/>
<path fill-rule="evenodd" clip-rule="evenodd" d="M127.51 77.1599L127.732 79.3641C128.409 79.4096 129.088 79.3001 129.716 79.0437C130.404 78.7635 130.962 78.2358 131.28 77.5646C130.653 76.5067 130.275 75.32 130.175 74.0944C130.152 73.8048 130.145 73.514 130.155 73.2236L127.51 77.1599Z" fill="#F4A48D"/>
<path fill-rule="evenodd" clip-rule="evenodd" d="M125.64 71.8096L125.603 72.0698C125.536 72.4087 125.518 72.7556 125.552 73.0996V73.1026C125.585 73.4638 125.654 73.8209 125.757 74.1689C125.875 74.5784 126.029 74.9766 126.218 75.3587C126.218 75.3592 126.218 75.3597 126.218 75.3602L126.244 75.4118L126.308 75.6851L126.427 76.1967C126.467 76.3649 126.534 76.5253 126.627 76.6712C126.692 76.7746 126.77 76.8697 126.859 76.9542C126.963 77.0537 127.081 77.1383 127.208 77.2055C127.275 77.2403 127.343 77.27 127.414 77.2942C127.451 77.3073 127.488 77.3185 127.526 77.3285C127.557 77.3367 127.585 77.3434 127.615 77.3495L127.755 77.3777L129.667 75.2075L129.84 74.849L129.649 74.416L129.532 74.1495L129.456 73.9767L129.233 73.4727L129.199 73.3941L128.78 72.4447L128.765 72.4144L127.946 70.7949L125.661 71.7968L125.64 71.8096Z" fill="#F4A48D"/>
<path fill-rule="evenodd" clip-rule="evenodd" d="M128.725 72.3963L127.99 74.4541L128.586 75.031L129.399 74.2814L130.114 73.4522L129.624 71.7217L129.081 71.8756L128.725 72.3963Z" fill="#732645"/>
<path fill-rule="evenodd" clip-rule="evenodd" d="M125.551 73.0811V73.1026L125.553 73.8061L125.556 75.2734L126.214 75.3611H126.218L126.456 75.393L126.453 75.3244L126.433 74.8833L126.413 74.3932L125.551 73.0811Z" fill="#F4A48D"/>
<ellipse cx="129.795" cy="73.5431" rx="0.88787" ry="0.566224" transform="rotate(-78.5755 129.795 73.5431)" fill="#F4A48D"/>
<path fill-rule="evenodd" clip-rule="evenodd" d="M135.709 78.6191L142.46 81.6856C143.785 82.5472 144.897 83.6986 145.712 85.0528L148.466 89.6264L149.751 91.1249C149.751 91.1249 148.891 93.0698 147.617 92.8467L147.139 92.496L147.195 92.7016C147.227 92.8196 147.202 92.9458 147.128 93.043C147.054 93.1403 146.938 93.1973 146.816 93.1974C146.647 93.1973 146.497 93.0892 146.444 92.929L146.116 91.9435C145.994 91.5792 146.004 91.1841 146.142 90.8259L146.628 89.5626L142.264 84.4924L136.232 82.1649L135.709 78.6191Z" fill="#F4A48D"/>
<path fill-rule="evenodd" clip-rule="evenodd" d="M134.444 77.3893L131.863 76.936L131.248 76.1709L129.527 77.6376L129.209 80.6986L127.298 77.6364L125.547 78.6638C124.27 79.413 123.198 80.465 122.424 81.7269L120.162 85.416L123.22 87.3928L124.941 85.416L126.151 93.1959L125.22 96.2705C125.14 96.5337 125.191 96.8193 125.358 97.0384C125.524 97.2575 125.786 97.3834 126.061 97.3771L135.856 97.1497L136.217 84.2046L137.3 83.3758L138.638 84.1408L141.116 81.0559L137.059 78.4197C136.266 77.9037 135.376 77.5532 134.444 77.3893Z" fill="#1BB3BC"/>
<path fill-rule="evenodd" clip-rule="evenodd" d="M117.509 90.8569L116.409 90.9039L115.499 90.5311C115.408 90.4941 115.308 90.4889 115.214 90.5165L113.587 90.9953C113.523 91.0138 113.477 91.068 113.469 91.1332C113.461 91.1985 113.492 91.2625 113.548 91.2962C113.703 91.4018 113.895 91.4401 114.079 91.4025C114.485 91.2947 115.119 91.166 115.119 91.166L115.02 91.6056L113.451 91.9241C113.318 91.9515 113.208 92.0444 113.158 92.1708C113.109 92.2973 113.127 92.4402 113.206 92.5507C113.426 92.8019 113.678 93.0224 113.957 93.2062C114.056 93.2761 114.171 93.3201 114.291 93.3343L115.243 93.4482C115.373 93.4641 115.506 93.4431 115.625 93.3874L117.965 92.2905L117.509 90.8569Z" fill="#F4A48D"/>
<path fill-rule="evenodd" clip-rule="evenodd" d="M114.949 93.4671L115.362 91.6576L115.119 91.1719L113.353 91.6989L112.713 92.3972L112.998 93.0955L114.949 93.4671Z" fill="#2A8FEC"/>
<path fill-rule="evenodd" clip-rule="evenodd" d="M12.0913 79.5732C12.4083 73.8047 13.8686 72.0083 10.4327 66.7829C7.88242 62.9114 5.72956 57.7018 8.83726 53.4067C11.4143 49.8439 17.6925 48.8502 21.2004 51.6251C25.4812 55.0097 22.3881 62.3333 34.8377 67.7803C39.8168 69.9574 40.3958 76.2676 33.1794 78.5795C30.1907 79.5377 25.6855 80.2976 22.8195 92.8229C20.9906 100.838 11.4899 90.5155 12.0916 79.5732" fill="#2C9891"/>
<path fill-rule="evenodd" clip-rule="evenodd" d="M14.2163 76.8408C14.5333 71.0723 15.9936 69.2759 12.5577 64.0505C10.0074 60.1789 7.85456 54.9694 10.9623 50.6743C13.5393 47.1115 19.8175 46.1178 23.3254 48.8927C27.6062 52.2773 24.5131 59.6009 36.9627 65.0479C41.9418 67.225 42.5208 73.5352 35.3044 75.8471C32.3157 76.8053 27.8105 77.5652 24.9445 90.0904C23.1156 98.1056 13.6149 87.783 14.2166 76.8408" fill="#8AD7C4"/>
</g>
</svg>
