<svg width="160" height="161" viewBox="0 0 160 161" fill="none" xmlns="http://www.w3.org/2000/svg">
<mask id="mask0_1487_22457" style="mask-type:luminance" maskUnits="userSpaceOnUse" x="0" y="36" width="160" height="88">
<rect y="36.0371" width="160" height="87.7419" fill="white"/>
</mask>
<g mask="url(#mask0_1487_22457)">
<rect x="-0.00390625" y="36.0371" width="164.858" height="87.7419" fill="white"/>
<path fill-rule="evenodd" clip-rule="evenodd" d="M-0.00289917 123.825C-0.00289917 123.825 25.52 95.9711 39.9394 95.2695C61.5683 94.2172 91.0611 121.595 107.719 117.751C124.377 113.907 143.343 106.517 149.187 101.078C159.698 91.2926 178.505 112.615 186.936 112.097C211.691 110.574 232.283 92.7535 250.575 99.2155C255.666 101.014 273.242 123.892 273.242 123.892L-0.00289917 123.825Z" fill="#EAF7FE"/>
<path d="M86.3633 36.1333C96.1048 46.2707 110.53 71.299 110.724 86.4286" stroke="#DEEDF2" stroke-width="1.8" stroke-dasharray="2.71"/>
<path d="M8.84375 61.6957C20.4399 53.9144 34.0937 49.7691 48.0586 49.7901C71.6652 49.7901 95.3625 69.3885 108.147 87.1943" stroke="#DEEDF2" stroke-width="1.8" stroke-dasharray="2.73"/>
<path fill-rule="evenodd" clip-rule="evenodd" d="M94.0814 43.3252C94.076 44.3755 93.2217 45.2234 92.1714 45.2209C91.1305 45.2116 90.291 44.3662 90.2891 43.3252C90.2899 42.2833 91.1296 41.4364 92.1714 41.4268C93.2227 41.4244 94.0774 42.2739 94.0814 43.3252Z" fill="#DEEDF2"/>
<path fill-rule="evenodd" clip-rule="evenodd" d="M38.8164 123.779H44.7306V57.7285L38.8164 60.0168V123.779Z" fill="white"/>
<path fill-rule="evenodd" clip-rule="evenodd" d="M51.7734 123.779H68.8385V48.3276H51.7734V123.779Z" fill="#9BC3D3"/>
<path fill-rule="evenodd" clip-rule="evenodd" d="M55.0547 123.779H68.8402V48.3276H55.0547V123.779Z" fill="#DEEDF2"/>
<path fill-rule="evenodd" clip-rule="evenodd" d="M32.4844 123.779H48.8791V81.2739H32.4844V123.779Z" fill="#DEEDF2"/>
<path fill-rule="evenodd" clip-rule="evenodd" d="M32.5859 81.2739L45.8593 123.779H32.5859V81.2739Z" fill="#9BC3D3"/>
<path fill-rule="evenodd" clip-rule="evenodd" d="M55.0554 61.6526L68.8391 48.3276H51.7734L55.0554 61.6526Z" fill="#DEEDF2"/>
<rect x="34.9102" y="85.8281" width="8.19734" height="3.64326" fill="white"/>
<rect x="38.25" y="90.686" width="8.19734" height="3.64326" fill="white"/>
<rect x="43.7148" y="85.8281" width="2.73245" height="3.64326" fill="white"/>
<rect x="44.0195" y="90.686" width="2.73245" height="3.64326" fill="white"/>
<path fill-rule="evenodd" clip-rule="evenodd" d="M90.3529 65.6397C90.3032 61.9332 87.2844 58.9546 83.5776 58.9546C79.8708 58.9546 76.852 61.9332 76.8023 65.6397H74.4609V123.78H92.6933V65.6397H90.3529Z" fill="#DEEDF2"/>
<path d="M112.726 69.6919V70.0684" stroke="#DEEDF2" stroke-width="1.813"/>
<path fill-rule="evenodd" clip-rule="evenodd" d="M21.4805 123.779H22.929V80.5679H21.4805V123.779Z" fill="#723846"/>
<path fill-rule="evenodd" clip-rule="evenodd" d="M74.4023 66.8149L86.018 123.779H74.4023V66.8149Z" fill="#9BC3D3"/>
<path fill-rule="evenodd" clip-rule="evenodd" d="M85.6899 68.7891C85.7432 68.3191 85.6456 67.8444 85.4112 67.4335L85.0885 66.8761L83.7976 64.6443C83.6798 64.4336 83.5932 64.2068 83.5407 63.9712L83.4739 64.0869C83.0855 64.7797 83.0855 65.6247 83.4739 66.3175L84.8098 68.6318C85.1635 69.3083 85.1467 70.1186 84.7655 70.7798L84.6987 70.8967C84.6509 70.6595 84.5644 70.4318 84.4424 70.2227L84.5639 70.4316L83.4724 68.5493L82.4823 66.8269L82.516 66.877C82.3933 66.6682 82.3067 66.4403 82.2598 66.2027L82.1933 66.3196C81.7921 67.0088 81.7921 67.8604 82.1933 68.5496L82.2367 68.623L83.1506 70.2233L83.4724 70.7808C83.8737 71.47 83.8737 72.3218 83.4724 73.011L83.4068 73.1279C83.3588 72.8902 83.2715 72.6622 83.1488 72.453L83.272 72.6622L81.5472 69.6641C81.3906 69.3954 81.2916 69.0972 81.2564 68.7882C79.3419 69.2208 78.0078 70.1994 78.0078 71.3385C78.0078 72.8771 80.4555 74.1277 83.4727 74.1277C86.5 74.1277 88.9376 72.8784 88.9376 71.3385C88.9376 70.2027 87.6017 69.2214 85.6875 68.7882" fill="white"/>
<rect x="82.1211" y="77.7827" width="7.03545" height="3.64326" transform="rotate(90 82.1211 77.7827)" fill="white"/>
<rect x="88.5" y="77.7827" width="7.03545" height="3.64326" transform="rotate(90 88.5 77.7827)" fill="white"/>
<path d="M63.5287 106.831C74.7706 106.831 86.2214 123.779 86.2214 123.779H49.9102C49.9102 123.779 52.2868 106.831 63.5287 106.831Z" fill="#63BA68"/>
<path fill-rule="evenodd" clip-rule="evenodd" d="M64.9706 106.831C75.6487 106.831 86.5247 123.779 86.5247 123.779H52.0352C52.0352 123.779 54.2925 106.831 64.9706 106.831Z" fill="#63BA68"/>
<path d="M89.2357 112.932C96.3321 112.932 102.282 123.779 102.282 123.779H79.3594C79.3594 123.779 82.1389 112.932 89.2357 112.932Z" fill="#63BA68"/>
<path fill-rule="evenodd" clip-rule="evenodd" d="M90.258 113.206C96.8071 113.206 101.935 123.779 101.935 123.779H80.7812C80.7812 123.779 83.7086 113.206 90.258 113.206Z" fill="#63BA68"/>
<path d="M101.091 118.581C104.746 118.581 108.469 123.778 108.469 123.778H96.6641C96.6641 123.778 97.4367 118.581 101.091 118.581Z" fill="#63BA68"/>
<path fill-rule="evenodd" clip-rule="evenodd" d="M101.631 118.581C105.019 118.581 108.469 123.779 108.469 123.779H97.5273C97.5273 123.779 98.2435 118.581 101.631 118.581Z" fill="#63BA68"/>
<path fill-rule="evenodd" clip-rule="evenodd" d="M110.854 56.9185C110.849 61.9059 106.803 65.9456 101.816 65.9426C96.8287 65.9395 92.7876 61.8948 92.7891 56.9074C92.7905 51.92 96.8339 47.8776 101.821 47.8774C104.218 47.8785 106.516 48.8316 108.21 50.5272C109.904 52.2227 110.855 54.5217 110.854 56.9185Z" fill="#F6C854"/>
<path fill-rule="evenodd" clip-rule="evenodd" d="M110.982 88.0217L112.961 88.4636C114.342 88.7722 115.212 90.1425 114.904 91.5242C114.595 92.9059 113.225 93.7758 111.843 93.4672L109.865 93.0253C108.483 92.7167 107.613 91.3464 107.922 89.9647C108.23 88.583 109.601 87.7131 110.982 88.0217Z" fill="#EC0000"/>
<path fill-rule="evenodd" clip-rule="evenodd" d="M109.627 89.5344C109.652 89.4439 109.698 89.3605 109.761 89.2915L110.333 88.6682C110.376 88.6214 110.411 88.5679 110.437 88.5098L110.448 88.5435C110.51 88.7433 110.462 88.9614 110.32 89.1158L109.862 89.6146C109.721 89.7689 109.672 89.987 109.735 90.1869L109.745 90.2206C109.771 90.1624 109.806 90.1089 109.849 90.0621L110.268 89.6067L110.536 89.3152C110.579 89.2684 110.614 89.2148 110.64 89.1567L110.65 89.1904C110.713 89.3896 110.665 89.6069 110.524 89.7612L110.065 90.2613C109.923 90.4157 109.875 90.6339 109.937 90.8339L109.948 90.8676C109.974 90.8094 110.009 90.7559 110.052 90.7091L110.624 90.0858C110.7 90.0036 110.75 89.9015 110.77 89.7916C111.185 90.0059 111.436 90.3193 111.373 90.6034C111.285 90.9981 110.623 91.1873 109.895 91.0245C109.167 90.8618 108.648 90.41 108.736 90.0147C108.799 89.7306 109.159 89.5533 109.627 89.5366" fill="white"/>
<path fill-rule="evenodd" clip-rule="evenodd" d="M116.113 92.2095L116.299 91.5443L120.376 86.8254L121.044 84.6255L123.019 86.5078L122.351 87.9861C121.811 89.1835 120.925 90.1922 119.807 90.8828L117.444 92.3425" fill="#F4A48D"/>
<path fill-rule="evenodd" clip-rule="evenodd" d="M128.721 108.41L135.372 97.1865L128.202 97.3502L124.644 107.071L124.962 120.207L119.355 123.332L120.056 123.778L127.553 123.332L126.937 120.972L128.721 108.41Z" fill="#9BC3D3"/>
<path fill-rule="evenodd" clip-rule="evenodd" d="M125.789 97.1879L126.362 108.73L139.869 112.365L141.334 117.721H142.508L143.182 110.484H140.571L131.757 105.516V96.5503L125.789 97.1879Z" fill="#9BC3D3"/>
<path d="M124.984 71.6376L125.309 72.0383L127.419 71.3267L128.136 72.9503L128.758 73.4665L129.65 74.6275C130.461 73.8059 130.692 72.5747 130.235 71.5151C129.777 70.4555 128.723 69.7794 127.569 69.8059C126.415 69.8325 125.393 70.5565 124.985 71.636L124.984 71.6376Z" fill="#34466B"/>
<path fill-rule="evenodd" clip-rule="evenodd" d="M124.858 72.0775C124.556 73.5676 125.484 75.0304 126.96 75.3924C128.437 75.7544 129.936 74.8865 130.357 73.4257C130.779 71.9649 129.972 70.4319 128.53 69.9518C127.087 69.4717 125.523 70.2156 124.985 71.6376C124.931 71.7806 124.888 71.9277 124.858 72.0775Z" fill="#723846"/>
<path fill-rule="evenodd" clip-rule="evenodd" d="M127.027 77.197L127.249 79.4012C127.927 79.4467 128.605 79.3372 129.234 79.0809C129.922 78.8007 130.48 78.2729 130.798 77.6017C130.171 76.5438 129.793 75.3571 129.693 74.1315C129.669 73.8419 129.663 73.5511 129.673 73.2607L127.027 77.197Z" fill="#F4A48D"/>
<path fill-rule="evenodd" clip-rule="evenodd" d="M125.156 71.8467L125.119 72.1069C125.051 72.4458 125.034 72.7928 125.067 73.1367V73.1397C125.101 73.5009 125.17 73.858 125.272 74.206C125.39 74.6155 125.545 75.0137 125.733 75.3958C125.733 75.3963 125.733 75.3968 125.733 75.3973L125.76 75.449L125.824 75.7222L125.943 76.2338C125.982 76.402 126.05 76.5624 126.143 76.7083C126.208 76.8117 126.286 76.9068 126.374 76.9913C126.479 77.0908 126.596 77.1754 126.724 77.2427C126.79 77.2775 126.859 77.3071 126.93 77.3313C126.967 77.3444 127.004 77.3556 127.042 77.3656C127.072 77.3738 127.1 77.3805 127.13 77.3866L127.27 77.4148L129.183 75.2446L129.356 74.8861L129.165 74.4531L129.047 74.1866L128.972 74.0138L128.749 73.5098L128.715 73.4312L128.296 72.4818L128.281 72.4515L127.461 70.832L125.177 71.8339L125.156 71.8467Z" fill="#F4A48D"/>
<path fill-rule="evenodd" clip-rule="evenodd" d="M128.243 72.4334L127.508 74.4912L128.103 75.0681L128.916 74.3185L129.632 73.4893L129.141 71.7588L128.599 71.9127L128.243 72.4334Z" fill="#723846"/>
<path fill-rule="evenodd" clip-rule="evenodd" d="M125.066 73.1182V73.1397L125.068 73.8432L125.071 75.3105L125.729 75.3982H125.734L125.971 75.4301L125.968 75.3615L125.949 74.9204L125.929 74.4303L125.066 73.1182Z" fill="#F4A48D"/>
<ellipse cx="129.313" cy="73.5807" rx="0.88787" ry="0.566224" transform="rotate(-78.5755 129.313 73.5807)" fill="#F4A48D"/>
<path fill-rule="evenodd" clip-rule="evenodd" d="M135.227 78.6567L141.977 81.7232C143.303 82.5848 144.415 83.7362 145.23 85.0904L147.983 89.6639L149.268 91.1625C149.268 91.1625 148.408 93.1074 147.134 92.8843L146.656 92.5336L146.712 92.7392C146.744 92.8572 146.72 92.9834 146.646 93.0806C146.571 93.1779 146.456 93.2349 146.334 93.235C146.165 93.2349 146.015 93.1268 145.961 92.9666L145.633 91.9811C145.512 91.6168 145.521 91.2217 145.659 90.8635L146.145 89.6002L141.781 84.53L135.75 82.2025L135.227 78.6567Z" fill="#F4A48D"/>
<path fill-rule="evenodd" clip-rule="evenodd" d="M133.961 77.4264L131.381 76.9731L130.765 76.208L129.045 77.6747L128.726 80.7357L126.816 77.6735L125.064 78.7009C123.788 79.4501 122.715 80.5021 121.942 81.764L119.68 85.4531L122.738 87.4299L124.458 85.4531L125.669 93.233L124.738 96.3076C124.658 96.5708 124.709 96.8564 124.875 97.0755C125.042 97.2946 125.303 97.4205 125.578 97.4142L135.374 97.1868L135.735 84.2417L136.818 83.4129L138.156 84.178L140.634 81.093L136.577 78.4568C135.783 77.9408 134.894 77.5903 133.961 77.4264Z" fill="#1BB3BC"/>
<path fill-rule="evenodd" clip-rule="evenodd" d="M117.026 90.8945L115.927 90.9415L115.016 90.5687C114.926 90.5317 114.825 90.5265 114.732 90.5541L113.104 91.0329C113.041 91.0514 112.995 91.1056 112.987 91.1708C112.978 91.2361 113.009 91.3001 113.066 91.3338C113.221 91.4394 113.412 91.4777 113.596 91.4401C114.003 91.3323 114.637 91.2036 114.637 91.2036L114.538 91.6432L112.969 91.9617C112.836 91.9891 112.726 92.082 112.676 92.2084C112.627 92.3349 112.644 92.4778 112.723 92.5883C112.943 92.8395 113.196 93.06 113.475 93.2438C113.574 93.3137 113.689 93.3577 113.809 93.3719L114.761 93.4858C114.891 93.5017 115.023 93.4807 115.143 93.425L117.483 92.3281L117.026 90.8945Z" fill="#F4A48D"/>
<path fill-rule="evenodd" clip-rule="evenodd" d="M114.467 93.5042L114.879 91.6948L114.636 91.209L112.871 91.736L112.23 92.4343L112.515 93.1326L114.467 93.5042Z" fill="#EC0000"/>
<path fill-rule="evenodd" clip-rule="evenodd" d="M11.605 79.6098C11.9219 73.8413 13.3823 72.0449 9.94638 66.8196C7.39609 62.948 5.24323 57.7384 8.35093 53.4433C10.9279 49.8805 17.2062 48.8868 20.714 51.6618C24.9949 55.0464 21.9017 62.3699 34.3514 67.8169C39.3305 69.9941 39.9095 76.3042 32.6931 78.6161C29.7044 79.5743 25.1992 80.3342 22.3332 92.8595C20.5043 100.875 11.0035 90.5521 11.6053 79.6098" fill="#008437"/>
<path fill-rule="evenodd" clip-rule="evenodd" d="M13.73 76.8774C14.0469 71.1089 15.5073 69.3125 12.0714 64.0871C9.52109 60.2156 7.36823 55.006 10.4759 50.7109C13.0529 47.1481 19.3312 46.1544 22.839 48.9293C27.1199 52.3139 24.0267 59.6375 36.4764 65.0845C41.4555 67.2616 42.0345 73.5718 34.8181 75.8837C31.8294 76.8419 27.3242 77.6018 24.4582 90.1271C22.6293 98.1422 13.1285 87.8197 13.7303 76.8774" fill="#63BA68"/>
</g>
</svg>
