<svg width="160" height="160" viewBox="0 0 160 160" fill="none" xmlns="http://www.w3.org/2000/svg">
<path fill-rule="evenodd" clip-rule="evenodd" d="M7.0493 99.9257L22.2359 126.229H151.3L91.0489 21.8711H52.114C12.0563 21.8711 -12.9797 65.2348 7.0493 99.9257Z" fill="#EAF7FE"/>
<path d="M40.8516 126.647H76.4071V41.1621H40.8516V126.647Z" fill="#CEDEE7"/>
<path d="M55.6016 127.025H61.2753V121.351H55.6016V127.025Z" fill="#767676"/>
<path fill-rule="evenodd" clip-rule="evenodd" d="M43.5 108.869H45.7695V66.8828H43.5V108.869Z" fill="#9BC3D3"/>
<path fill-rule="evenodd" clip-rule="evenodd" d="M48.0391 108.869H50.3086V66.8828H48.0391V108.869Z" fill="#9BC3D3"/>
<path fill-rule="evenodd" clip-rule="evenodd" d="M52.957 108.869H55.2265V66.8828H52.957V108.869Z" fill="#9BC3D3"/>
<path fill-rule="evenodd" clip-rule="evenodd" d="M57.4961 108.869H59.7656V66.8828H57.4961V108.869Z" fill="#9BC3D3"/>
<path fill-rule="evenodd" clip-rule="evenodd" d="M62.0352 108.869H64.3047V66.8828H62.0352V108.869Z" fill="#9BC3D3"/>
<path fill-rule="evenodd" clip-rule="evenodd" d="M66.5742 108.869H68.8437V66.8828H66.5742V108.869Z" fill="#9BC3D3"/>
<path fill-rule="evenodd" clip-rule="evenodd" d="M71.4883 108.869H73.7578V66.8828H71.4883V108.869Z" fill="#9BC3D3"/>
<path fill-rule="evenodd" clip-rule="evenodd" d="M43.5 55.1574H45.7695V45.7012H43.5V55.1574Z" fill="#9BC3D3"/>
<path fill-rule="evenodd" clip-rule="evenodd" d="M48.0391 55.1574H50.3086V45.7012H48.0391V55.1574Z" fill="#9BC3D3"/>
<path fill-rule="evenodd" clip-rule="evenodd" d="M52.957 55.1574H55.2265V45.7012H52.957V55.1574Z" fill="#9BC3D3"/>
<path fill-rule="evenodd" clip-rule="evenodd" d="M57.4961 55.1574H59.7656V45.7012H57.4961V55.1574Z" fill="#9BC3D3"/>
<path fill-rule="evenodd" clip-rule="evenodd" d="M62.0352 55.1574H64.3047V45.7012H62.0352V55.1574Z" fill="#9BC3D3"/>
<path fill-rule="evenodd" clip-rule="evenodd" d="M66.5742 55.1574H68.8437V45.7012H66.5742V55.1574Z" fill="#9BC3D3"/>
<path fill-rule="evenodd" clip-rule="evenodd" d="M71.4883 55.1574H73.7578V45.7012H71.4883V55.1574Z" fill="#9BC3D3"/>
<path fill-rule="evenodd" clip-rule="evenodd" d="M38.582 64.9918H78.6766V57.4268H38.582V64.9918Z" fill="#9BC3D3"/>
<path fill-rule="evenodd" clip-rule="evenodd" d="M49.5508 41.1622H67.3286V32.4624H49.5508V41.1622Z" fill="#9BC3D3"/>
<path fill-rule="evenodd" clip-rule="evenodd" d="M56.7383 32.4622H60.5208V30.9492H56.7383V32.4622Z" fill="#9BC3D3"/>
<path d="M76.4071 64.9917H40.8516L42.8408 66.883H76.4071V64.9917Z" fill="#9BC3D3"/>
<path d="M43.5 111.517V118.703H54.9032L62.0343 111.517H43.5Z" fill="#9BC3D3"/>
<path d="M73.3819 111.517H61.9787L54.8477 118.703H73.3819V111.517Z" fill="#9BC3D3"/>
<path fill-rule="evenodd" clip-rule="evenodd" d="M38.582 59.6963H78.6766V57.4268H38.582V59.6963Z" fill="#9BC3D3"/>
<path fill-rule="evenodd" clip-rule="evenodd" d="M103.183 23.588C102.34 16.651 96.5021 11.2803 89.4264 11.2803C81.7713 11.2803 75.5653 17.5668 75.5653 25.3219C75.5653 26.5942 75.7322 27.827 76.0455 28.9989C75.9278 29.0005 75.8111 29.0047 75.6951 29.0116L75.5646 29.0007V29.0204C71.5944 29.3225 68.465 32.6821 68.465 36.7817C68.465 40.8814 71.5944 44.2409 75.5646 44.5431V44.5663H126.031V44.5655H126.031C129.125 44.5655 131.633 42.0246 131.633 38.8905C131.633 35.7565 129.125 33.2159 126.031 33.2159H126.031V33.2156L113.245 32.1478C113.304 31.7609 113.334 31.3647 113.334 30.9613C113.334 26.6627 109.894 23.1778 105.651 23.1778C104.788 23.1778 103.958 23.322 103.183 23.588Z" fill="#CEDEE7"/>
<path fill-rule="evenodd" clip-rule="evenodd" d="M138.383 47.9272L122.772 74.9663L104.374 74.9661L104.374 138.002H100.76L100.759 74.9661L82.4219 74.9663L98.0333 47.9272H138.383Z" fill="#9BC3D3"/>
<path fill-rule="evenodd" clip-rule="evenodd" d="M138.383 47.9277L122.769 74.9686L104.373 74.9685L104.373 86.3995H100.759L100.758 74.9685L82.4219 74.9686L84.9336 70.62H115.695L128.801 47.9277H138.383Z" fill="#CEDEE7"/>
<path fill-rule="evenodd" clip-rule="evenodd" d="M10.5052 95.4526L19.8718 111.676L30.911 111.676L30.9109 130.37H33.0794L33.0795 111.676L44.082 111.676L34.7152 95.4526H10.5052Z" fill="#9BC3D3"/>
<path fill-rule="evenodd" clip-rule="evenodd" d="M10.5053 95.4531L19.8737 111.678L30.9117 111.677L30.9116 118.536H33.08L33.0802 111.677L44.082 111.678L42.575 109.068H24.1181L16.2548 95.4531H10.5053Z" fill="#CEDEE7"/>
<path fill-rule="evenodd" clip-rule="evenodd" d="M110.846 109.385C92.6493 108.41 73.493 112.812 63.7814 116.154C57.9631 118.155 56.3648 121.83 50.2786 122.825C38.0551 124.822 9.35318 125.413 8.78565 128.356C7.66836 134.15 17.3517 137.246 39.6855 139.925C39.2033 140.322 42.4057 147.572 60.4115 149.209C67.5362 149.857 79.4867 149.211 84.0699 147.796C91.1144 145.62 98.4316 144.45 105.803 144.283C132.02 143.69 152.578 140.713 152.819 136.212C152.9 134.707 151.386 132.622 149.015 131.409C147.538 130.654 149.707 130.017 150.211 129.835C156.398 127.609 159.868 125.123 159.994 123.149C160.391 116.955 137.555 110.815 110.846 109.385Z" fill="#CEDEE7"/>
<path fill-rule="evenodd" clip-rule="evenodd" d="M68.5513 89.7817L68.8398 108.347L65.1283 131.817L62.2076 131.942L60.7489 110.206L55.6011 88.8218L68.5513 89.7817Z" fill="#444444"/>
<path fill-rule="evenodd" clip-rule="evenodd" d="M62.0312 91.1935L59.3214 109.43L52.8121 131.943L50.0248 131.674L51.3683 110.096L49.9272 88.4438L62.0312 91.1935Z" fill="#444444"/>
<path fill-rule="evenodd" clip-rule="evenodd" d="M56.6179 52.2048C55.3172 51.3173 54.441 49.844 54.3818 48.1511C54.2832 45.3265 56.4964 42.9531 59.321 42.8545C61.9291 42.7634 64.1525 44.6433 64.5557 47.1556C64.6199 47.4166 64.6693 47.681 64.7061 47.9458L64.7073 47.952C64.7185 48.0333 64.7283 48.1125 64.7371 48.1917L65.2275 52.1286L64.4346 52.4251L64.4263 52.4273C64.4087 52.4969 64.399 52.5344 64.399 52.5344L64.3958 53.0694L64.3913 54.0693C64.3892 54.4002 64.3314 54.7264 64.2217 55.035C64.1452 55.2528 64.0413 55.4625 63.9122 55.6583C63.7606 55.888 63.5772 56.0957 63.3705 56.273C63.2629 56.366 63.1479 56.4496 63.0274 56.5247C62.9636 56.5646 62.8999 56.6014 62.8336 56.6362L63.3957 62.8624C63.3957 62.8624 61.5938 63.4747 59.5845 63.1089C58.37 62.8901 57.0785 62.3114 56.0638 61.0263C56.0638 61.0263 57.0368 56.0169 56.6179 52.2048Z" fill="#FFC4B8"/>
<path fill-rule="evenodd" clip-rule="evenodd" d="M59.6027 63.0342C58.3882 62.8153 57.0967 62.2366 56.082 60.9515C56.082 60.9515 57.1361 55.5835 56.5806 51.7285C56.5806 51.7285 59.6418 58.5074 59.6027 63.0342ZM64.4362 52.4474C64.1582 52.5396 63.874 52.3286 63.8822 52.0362L63.9346 50.1509L64.4362 52.4474Z" fill="#F4A48D"/>
<path fill-rule="evenodd" clip-rule="evenodd" d="M55.2313 51.6023C54.8691 50.9142 53.9022 49.6593 53.7254 48.531C53.3315 46.0168 54.9871 44.2267 55.7299 43.6748C55.9721 43.4859 56.2713 43.3084 56.6823 43.1144C57.5246 41.8749 59.4911 41.6597 59.0903 41.8632C64.1498 41.0628 65.9118 45.6028 67.3504 45.2669C66.2319 47.0972 64.8911 46.9004 63.1425 46.4985C62.4387 47.2396 62.1235 48.1744 62.1091 49.0616C62.1263 49.3466 62.1784 49.9773 62.3185 50.5354C62.5068 51.2831 61.9524 51.5978 61.7002 51.5253C61.4473 51.4536 61.5226 51.5371 61.0059 50.9524C60.6082 50.5021 60.4818 50.1514 60.2309 49.821C59.7624 49.3356 59.204 48.9238 58.7248 49.0608C58.0906 49.2438 58.2892 50.398 58.702 51.2219C58.9232 51.6624 58.904 52.1101 58.7741 52.3905C58.4881 53.0095 57.9155 52.6644 57.2666 53.2423C56.7374 53.7139 56.408 54.5011 56.1522 54.8335C55.87 53.1996 55.7738 52.6319 55.2313 51.6023Z" fill="#767676"/>
<path fill-rule="evenodd" clip-rule="evenodd" d="M71.3529 93.3919C66.324 94.0554 62.5251 94.4198 59.9563 94.4852C57.3876 94.5505 53.6235 94.3786 48.6642 93.9692C49.2479 73.9694 51.8501 61.6926 56.4706 57.139C56.4706 57.139 61.8605 58.4794 63.7593 58.2736C63.7593 58.2736 66.2905 69.9797 71.3529 93.3919Z" fill="#2A8FEC"/>
<path fill-rule="evenodd" clip-rule="evenodd" d="M55.5784 58.2009L60.927 61.1834L62.7232 58.8081L63.6983 59.9818L64.6676 58.3607L63.2976 57.2124C63.2976 57.2124 63.0979 58.1224 60.7885 57.5459C58.4643 56.966 57.0536 56.3984 57.0536 56.3984L55.5784 58.2009Z" fill="#1B4872"/>
<path fill-rule="evenodd" clip-rule="evenodd" d="M65.0939 130.915L62.3036 130.916L62.0891 134.589L66.2571 134.831L68.9108 134.848L68.4709 132.808L65.0939 130.915Z" fill="black"/>
<path fill-rule="evenodd" clip-rule="evenodd" d="M52.6691 131.029L56.3834 132.855L56.2253 134.674L49.2928 134.268L49.9496 130.667L52.6691 131.029Z" fill="black"/>
<path fill-rule="evenodd" clip-rule="evenodd" d="M75.2695 84.3761L64.7968 99.2764L55.2325 92.5545L65.3325 77.3911L75.2695 84.3761Z" fill="#767676"/>
<path fill-rule="evenodd" clip-rule="evenodd" d="M74.1289 84.8181L64.8267 98.0522L56.3328 92.0824L65.3024 78.6147L74.1289 84.8181Z" fill="#DEEDF2"/>
<path fill-rule="evenodd" clip-rule="evenodd" d="M71.2689 83.2999L71.9219 82.3705L68.4875 79.957L67.7011 80.792L71.2689 83.2999Z" fill="#767676"/>
<path fill-rule="evenodd" clip-rule="evenodd" d="M70.2795 94.4084C70.2795 94.4084 69.8668 94.3731 69.6933 94.2702C69.6933 94.2702 69.3931 94.0576 69.17 93.9203C69.0995 93.8765 69.0366 93.8403 68.9937 93.8212C68.8145 93.7402 68.397 93.6172 68.0205 93.3027C67.6449 92.9891 66.3715 91.218 66.3715 91.218L67.1331 90.2582L67.7183 89.2573C67.7183 89.2573 70.6837 89.7158 71.0678 89.9675C71.105 89.9932 71.1412 90.0189 71.1736 90.0456C71.4777 90.2906 71.6016 90.6004 71.7465 90.7472C71.7999 90.8015 72.2908 91.3763 72.2517 91.5984C72.1983 91.9072 72.0363 92.0997 71.839 92.1846C71.839 92.1846 71.7084 92.7851 71.3833 93.0415C71.3833 93.0415 71.2804 93.5982 70.7857 93.8021C70.7857 93.8021 70.6179 94.3559 70.2795 94.4084Z" fill="#FFC4B8"/>
<path fill-rule="evenodd" clip-rule="evenodd" d="M60.9214 66.3881C61.5067 66.6149 63.4836 67.0486 63.2424 70.0626C63.0022 73.0756 61.9413 74.4616 61.5458 75.1584C61.1492 75.8561 58.9731 80.1521 59.3639 80.7174C59.7557 81.2826 63.4512 84.9286 63.6647 85.225C63.8782 85.5224 68.1914 89.4763 68.1914 89.4763L66.5338 91.4436C66.5338 91.4436 56.9943 85.2336 56.2994 84.5387C55.6045 83.8438 53.4122 82.7696 54.3263 80.3933C55.2404 78.017 56.4805 71.7154 56.7293 71.2636C56.979 70.8128 57.0486 64.8887 60.9214 66.3881Z" fill="#FFC4B8"/>
<path fill-rule="evenodd" clip-rule="evenodd" d="M62.3437 65.4389C62.3437 65.4389 64.618 67.27 63.6019 71.3449C62.5858 75.4198 62.2331 76.2319 62.2331 76.2319L55.3511 74.357C55.3511 74.357 55.8515 67.0412 59.5728 65.7878C59.5728 65.7878 61.7432 65.1673 62.3437 65.4389Z" fill="#1B4872"/>
<path fill-rule="evenodd" clip-rule="evenodd" d="M33.9603 53.4252C34.339 50.3509 36.9609 47.9707 40.1386 47.9707C43.5765 47.9707 46.3636 50.7568 46.3636 54.1937C46.3636 54.7576 46.2886 55.3039 46.1479 55.8233C46.2008 55.824 46.2532 55.8259 46.3053 55.8289L46.3639 55.8241V55.8328C48.1469 55.9667 49.5524 57.4556 49.5524 59.2725C49.5524 61.0894 48.1469 62.5783 46.3639 62.7122V62.7225H23.6992C22.3099 62.7221 21.1836 61.596 21.1836 60.2071C21.1836 58.8181 22.3099 57.6922 23.6992 57.6922L29.4414 57.2188C29.4152 57.0473 29.4016 56.8718 29.4016 56.693C29.4016 54.7879 30.9464 53.2435 32.8521 53.2435C33.2397 53.2435 33.6125 53.3074 33.9603 53.4252Z" fill="#CEDEE7"/>
<path fill-rule="evenodd" clip-rule="evenodd" d="M93.3415 139.49C95.5363 139.505 101.17 139.438 104.044 137.915C104.044 137.915 104.578 136.508 104.237 135.158C104.237 135.158 83.042 133.12 82.5473 135.158C82.1329 136.864 82.5961 138.002 82.5961 138.002C84.0826 139.232 90.9795 139.444 93.3415 139.49Z" fill="#F6C854"/>
<path d="M104.237 135.158C104.237 135.158 104.061 135.141 103.744 135.112C103.859 136.273 103.459 137.33 103.459 137.33C100.585 138.853 94.9515 138.921 92.7568 138.906C90.5966 138.864 84.6468 138.682 82.5078 137.711C82.5545 137.899 82.5963 138.003 82.5963 138.003C84.0828 139.232 90.9797 139.444 93.3416 139.49C95.5364 139.506 101.17 139.438 104.044 137.915C104.044 137.915 104.578 136.508 104.237 135.158Z" fill="#F6C854"/>
<path d="M103.881 135.836C103.918 136.145 103.931 136.454 103.938 136.764C103.942 137.073 103.939 137.383 103.912 137.693C103.874 137.384 103.861 137.075 103.854 136.765C103.851 136.456 103.853 136.146 103.881 135.836Z" fill="#D39E00"/>
<path d="M103.072 136.104C103.11 136.412 103.122 136.722 103.129 137.031C103.133 137.341 103.131 137.65 103.103 137.96C103.065 137.651 103.052 137.342 103.046 137.033C103.042 136.723 103.045 136.414 103.072 136.104Z" fill="#D39E00"/>
<path d="M102.266 136.301C102.303 136.63 102.315 136.959 102.321 137.289C102.323 137.618 102.32 137.948 102.291 138.278C102.255 137.949 102.243 137.619 102.237 137.29C102.235 136.96 102.238 136.631 102.266 136.301Z" fill="#D39E00"/>
<path d="M101.522 136.536C101.559 136.85 101.572 137.163 101.578 137.477C101.582 137.791 101.579 138.105 101.552 138.42C101.514 138.106 101.501 137.793 101.495 137.479C101.492 137.165 101.494 136.851 101.522 136.536Z" fill="#D39E00"/>
<path d="M100.643 136.829C100.68 137.142 100.693 137.456 100.7 137.77C100.703 138.084 100.701 138.398 100.673 138.712C100.635 138.399 100.622 138.085 100.616 137.771C100.613 137.457 100.615 137.143 100.643 136.829Z" fill="#D39E00"/>
<path fill-rule="evenodd" clip-rule="evenodd" d="M104.238 135.158C104.238 136.119 99.3937 136.898 93.4179 136.898C87.442 136.898 82.5977 136.119 82.5977 135.158C82.5977 134.197 87.442 133.418 93.4179 133.418C99.3937 133.418 104.238 134.197 104.238 135.158Z" fill="#D39E00"/>
<path d="M102.921 135.069C102.921 135.648 98.7203 136.118 93.5388 136.118C88.3568 136.118 84.1562 135.648 84.1562 135.069C84.1562 134.491 88.3568 134.021 93.5388 134.021C98.7203 134.021 102.921 134.491 102.921 135.069Z" fill="#F6C854"/>
<path d="M93.5391 134.022C98.4888 134.025 102.519 134.217 102.921 135.07C102.921 135.07 102.367 134.564 93.5391 134.022Z" fill="white"/>
<path d="M84.1563 135.069C84.1563 135.648 88.357 136.118 93.5388 136.118C96.4645 136.118 99.0458 135.971 100.798 135.734C84.1256 135.807 84.1563 135.069 84.1563 135.069Z" fill="#F6C854"/>
<path fill-rule="evenodd" clip-rule="evenodd" d="M83.475 135.37C84.9615 136.6 91.8585 136.812 94.2205 136.858C96.4152 136.874 102.049 136.806 104.923 135.283C104.923 135.283 105.457 133.876 105.116 132.526C105.116 132.526 83.9209 130.488 83.4262 132.526C83.0118 134.232 83.475 135.37 83.475 135.37Z" fill="#F6C854"/>
<path fill-rule="evenodd" clip-rule="evenodd" d="M105.112 132.526C105.112 132.526 104.936 132.509 104.619 132.48C104.734 133.641 104.334 134.698 104.334 134.698C101.46 136.221 95.8265 136.289 93.6318 136.274C91.4717 136.232 85.5218 136.05 83.3828 135.079C83.4296 135.267 83.4713 135.371 83.4713 135.371C84.9578 136.6 91.8547 136.813 94.2168 136.859C96.4114 136.874 102.045 136.806 104.919 135.283C104.919 135.283 105.453 133.876 105.112 132.526Z" fill="#F6C854"/>
<path d="M104.756 133.204C104.793 133.513 104.806 133.822 104.813 134.132C104.817 134.441 104.814 134.751 104.787 135.061C104.749 134.752 104.736 134.443 104.729 134.133C104.726 133.824 104.728 133.514 104.756 133.204Z" fill="#D39E00"/>
<path d="M103.947 133.471C103.985 133.78 103.997 134.089 104.004 134.399C104.008 134.708 104.006 135.018 103.978 135.328C103.94 135.019 103.927 134.71 103.921 134.4C103.917 134.091 103.92 133.781 103.947 133.471Z" fill="#D39E00"/>
<path d="M103.141 133.668C103.178 133.998 103.19 134.327 103.196 134.657C103.198 134.986 103.195 135.316 103.166 135.646C103.13 135.316 103.118 134.987 103.112 134.658C103.11 134.328 103.113 133.999 103.141 133.668Z" fill="#D39E00"/>
<path d="M102.397 133.904C102.434 134.218 102.447 134.532 102.453 134.845C102.457 135.159 102.454 135.474 102.427 135.788C102.389 135.475 102.376 135.161 102.37 134.847C102.367 134.533 102.369 134.219 102.397 133.904Z" fill="#D39E00"/>
<path d="M101.522 134.197C101.559 134.51 101.572 134.824 101.578 135.138C101.582 135.452 101.579 135.766 101.552 136.081C101.514 135.767 101.501 135.453 101.495 135.139C101.492 134.825 101.494 134.511 101.522 134.197Z" fill="#D39E00"/>
<path d="M105.113 132.526C105.113 133.487 100.269 134.266 94.2929 134.266C88.317 134.266 83.4727 133.487 83.4727 132.526C83.4727 131.565 88.317 130.786 94.2929 130.786C100.269 130.786 105.113 131.565 105.113 132.526Z" fill="#D39E00"/>
<path d="M103.796 132.438C103.796 133.016 99.5955 133.486 94.414 133.486C89.232 133.486 85.0312 133.016 85.0312 132.438C85.0312 131.859 89.232 131.39 94.414 131.39C99.5955 131.39 103.796 131.859 103.796 132.438Z" fill="#F6C854"/>
<path d="M94.4141 131.39C99.3638 131.393 103.394 131.584 103.796 132.438C103.796 132.438 103.242 131.932 94.4141 131.39Z" fill="white"/>
<path d="M85.0313 132.438C85.0313 133.016 89.232 133.486 94.4138 133.486C97.3395 133.486 99.9208 133.339 101.673 133.102C85.0006 133.175 85.0313 132.438 85.0313 132.438Z" fill="#F6C854"/>
<path fill-rule="evenodd" clip-rule="evenodd" d="M82.5961 133.031C84.0826 134.261 90.9795 134.473 93.3415 134.519C95.5363 134.534 101.17 134.466 104.044 132.944C104.044 132.944 104.578 131.536 104.237 130.186C104.237 130.186 83.042 128.149 82.5473 130.186C82.1329 131.893 82.5961 133.031 82.5961 133.031Z" fill="#F6C854"/>
<path fill-rule="evenodd" clip-rule="evenodd" d="M104.237 130.186C104.237 130.186 104.061 130.169 103.744 130.141C103.859 131.301 103.459 132.358 103.459 132.358C100.585 133.881 94.9515 133.949 92.7568 133.934C90.5966 133.892 84.6468 133.71 82.5078 132.739C82.5545 132.927 82.5963 133.031 82.5963 133.031C84.0828 134.26 90.9797 134.473 93.3416 134.519C95.5364 134.534 101.17 134.466 104.044 132.943C104.044 132.943 104.578 131.536 104.237 130.186Z" fill="#F6C854"/>
<path d="M103.881 130.864C103.918 131.173 103.931 131.482 103.938 131.792C103.942 132.102 103.939 132.411 103.912 132.721C103.874 132.412 103.861 132.103 103.854 131.794C103.851 131.484 103.853 131.174 103.881 130.864Z" fill="#D39E00"/>
<path d="M103.072 131.132C103.11 131.441 103.122 131.75 103.129 132.06C103.133 132.369 103.131 132.679 103.103 132.989C103.065 132.68 103.052 132.37 103.046 132.061C103.042 131.752 103.045 131.442 103.072 131.132Z" fill="#D39E00"/>
<path d="M102.266 131.329C102.303 131.658 102.315 131.988 102.321 132.317C102.323 132.647 102.32 132.976 102.291 133.306C102.255 132.977 102.243 132.648 102.237 132.318C102.235 131.988 102.238 131.659 102.266 131.329Z" fill="#D39E00"/>
<path d="M101.522 131.565C101.559 131.878 101.572 132.192 101.578 132.506C101.582 132.82 101.579 133.134 101.552 133.449C101.514 133.135 101.501 132.821 101.495 132.508C101.492 132.194 101.494 131.879 101.522 131.565Z" fill="#D39E00"/>
<path d="M100.643 131.857C100.68 132.171 100.693 132.485 100.7 132.799C100.703 133.113 100.701 133.427 100.673 133.741C100.635 133.428 100.622 133.114 100.616 132.8C100.613 132.486 100.615 132.172 100.643 131.857Z" fill="#D39E00"/>
<path fill-rule="evenodd" clip-rule="evenodd" d="M104.238 130.186C104.238 131.147 99.3937 131.926 93.4179 131.926C87.442 131.926 82.5977 131.147 82.5977 130.186C82.5977 129.225 87.442 128.447 93.4179 128.447C99.3937 128.447 104.238 129.225 104.238 130.186Z" fill="#D39E00"/>
<path d="M102.921 130.098C102.921 130.677 98.7203 131.146 93.5388 131.146C88.3568 131.146 84.1562 130.677 84.1562 130.098C84.1562 129.52 88.3568 129.05 93.5388 129.05C98.7203 129.05 102.921 129.52 102.921 130.098Z" fill="#F6C854"/>
<path d="M93.5391 129.05C98.4888 129.053 102.519 129.245 102.921 130.098C102.921 130.098 102.367 129.592 93.5391 129.05Z" fill="white"/>
<path d="M84.1563 130.098C84.1563 130.677 88.357 131.146 93.5388 131.146C96.4645 131.146 99.0458 131 100.798 130.762C84.1256 130.835 84.1563 130.098 84.1563 130.098Z" fill="#F6C854"/>
<path fill-rule="evenodd" clip-rule="evenodd" d="M83.7641 130.399C85.2506 131.629 92.1475 131.841 94.5094 131.887C96.7043 131.902 102.338 131.835 105.212 130.312C105.212 130.312 105.746 128.905 105.405 127.555C105.405 127.555 84.2099 125.517 83.7153 127.555C83.3009 129.261 83.7641 130.399 83.7641 130.399Z" fill="#F6C854"/>
<path fill-rule="evenodd" clip-rule="evenodd" d="M105.405 127.554C105.405 127.554 105.229 127.537 104.912 127.509C105.027 128.669 104.627 129.727 104.627 129.727C101.753 131.25 96.1196 131.318 93.9248 131.302C91.7647 131.26 85.8148 131.078 83.6758 130.107C83.7226 130.295 83.7642 130.399 83.7642 130.399C85.2507 131.628 92.1476 131.841 94.5097 131.887C96.7044 131.902 102.338 131.834 105.212 130.311C105.212 130.311 105.746 128.904 105.405 127.554Z" fill="#F6C854"/>
<path d="M105.049 128.232C105.086 128.541 105.099 128.851 105.106 129.16C105.11 129.47 105.107 129.779 105.08 130.089C105.042 129.781 105.029 129.471 105.022 129.162C105.019 128.852 105.021 128.542 105.049 128.232Z" fill="#D39E00"/>
<path d="M104.24 128.5C104.278 128.809 104.29 129.118 104.297 129.428C104.301 129.737 104.299 130.047 104.271 130.357C104.233 130.048 104.22 129.738 104.214 129.429C104.21 129.12 104.213 128.81 104.24 128.5Z" fill="#D39E00"/>
<path d="M103.434 128.697C103.471 129.026 103.483 129.356 103.489 129.685C103.491 130.015 103.488 130.344 103.459 130.674C103.423 130.345 103.411 130.016 103.405 129.686C103.403 129.357 103.406 129.027 103.434 128.697Z" fill="#D39E00"/>
<path d="M102.69 128.933C102.727 129.246 102.74 129.56 102.747 129.874C102.75 130.188 102.747 130.502 102.72 130.817C102.682 130.503 102.669 130.189 102.663 129.876C102.66 129.562 102.662 129.247 102.69 128.933Z" fill="#D39E00"/>
<path d="M101.815 129.226C101.852 129.539 101.865 129.853 101.871 130.167C101.875 130.481 101.872 130.795 101.844 131.109C101.807 130.796 101.794 130.482 101.788 130.168C101.785 129.854 101.787 129.54 101.815 129.226Z" fill="#D39E00"/>
<path d="M105.406 127.554C105.406 128.515 100.562 129.294 94.5859 129.294C88.61 129.294 83.7656 128.515 83.7656 127.554C83.7656 126.593 88.61 125.814 94.5859 125.814C100.562 125.814 105.406 126.593 105.406 127.554Z" fill="#D39E00"/>
<path d="M104.089 127.466C104.089 128.045 99.8883 128.514 94.7068 128.514C89.5248 128.514 85.3242 128.045 85.3242 127.466C85.3242 126.888 89.5248 126.418 94.7068 126.418C99.8883 126.418 104.089 126.888 104.089 127.466Z" fill="#F6C854"/>
<path d="M94.707 126.418C99.6568 126.422 103.687 126.613 104.089 127.466C104.089 127.466 103.535 126.961 94.707 126.418Z" fill="white"/>
<path d="M85.3242 127.466C85.3242 128.045 89.525 128.514 94.7068 128.514C97.6324 128.514 100.214 128.368 101.966 128.131C85.2936 128.204 85.3242 127.466 85.3242 127.466Z" fill="#F6C854"/>
<path fill-rule="evenodd" clip-rule="evenodd" d="M82.3032 127.767C83.7897 128.996 90.6864 129.209 93.0485 129.255C95.2433 129.27 100.877 129.202 103.751 127.679C103.751 127.679 104.285 126.272 103.944 124.922C103.944 124.922 82.749 122.885 82.2543 124.922C81.84 126.629 82.3032 127.767 82.3032 127.767Z" fill="#F6C854"/>
<path fill-rule="evenodd" clip-rule="evenodd" d="M103.944 124.923C103.944 124.923 103.768 124.906 103.451 124.877C103.566 126.038 103.166 127.095 103.166 127.095C100.292 128.618 94.6587 128.686 92.4638 128.67C90.3038 128.628 84.3538 128.446 82.2148 127.475C82.2617 127.664 82.3033 127.767 82.3033 127.767C83.7898 128.997 90.6867 129.209 93.0488 129.255C95.2435 129.271 100.877 129.203 103.751 127.68C103.751 127.68 104.285 126.272 103.944 124.923Z" fill="#F6C854"/>
<path d="M103.588 125.601C103.625 125.91 103.638 126.219 103.645 126.529C103.649 126.838 103.646 127.148 103.619 127.458C103.581 127.149 103.568 126.839 103.561 126.53C103.558 126.22 103.56 125.911 103.588 125.601Z" fill="#D39E00"/>
<path d="M102.779 125.868C102.817 126.177 102.83 126.486 102.836 126.796C102.84 127.105 102.838 127.415 102.81 127.725C102.772 127.416 102.759 127.107 102.753 126.797C102.749 126.488 102.752 126.178 102.779 125.868Z" fill="#D39E00"/>
<path d="M101.973 126.065C102.01 126.395 102.022 126.724 102.028 127.053C102.03 127.383 102.027 127.713 101.998 128.042C101.962 127.713 101.95 127.384 101.944 127.054C101.942 126.725 101.945 126.395 101.973 126.065Z" fill="#D39E00"/>
<path d="M101.229 126.301C101.266 126.614 101.279 126.928 101.285 127.242C101.289 127.556 101.286 127.87 101.259 128.185C101.221 127.871 101.208 127.557 101.202 127.243C101.199 126.929 101.201 126.615 101.229 126.301Z" fill="#D39E00"/>
<path d="M100.35 126.593C100.388 126.907 100.4 127.221 100.407 127.534C100.41 127.848 100.408 128.163 100.38 128.477C100.342 128.164 100.329 127.85 100.323 127.536C100.32 127.222 100.322 126.908 100.35 126.593Z" fill="#D39E00"/>
<path fill-rule="evenodd" clip-rule="evenodd" d="M103.945 124.922C103.945 125.883 99.1008 126.662 93.1249 126.662C87.1491 126.662 82.3047 125.883 82.3047 124.922C82.3047 123.961 87.1491 123.183 93.1249 123.183C99.1008 123.183 103.945 123.961 103.945 124.922Z" fill="#D39E00"/>
<path d="M102.628 124.834C102.628 125.413 98.4275 125.882 93.246 125.882C88.064 125.882 83.8633 125.413 83.8633 124.834C83.8633 124.256 88.064 123.786 93.246 123.786C98.4275 123.786 102.628 124.256 102.628 124.834Z" fill="#F6C854"/>
<path d="M93.2461 123.786C98.1958 123.789 102.226 123.981 102.628 124.834C102.628 124.834 102.074 124.328 93.2461 123.786Z" fill="white"/>
<path d="M83.8633 124.834C83.8633 125.413 88.064 125.882 93.2459 125.882C96.1715 125.882 98.7528 125.736 100.505 125.498C83.8327 125.571 83.8633 124.834 83.8633 124.834Z" fill="#F6C854"/>
<path fill-rule="evenodd" clip-rule="evenodd" d="M83.475 125.428C84.9615 126.657 91.8585 126.869 94.2205 126.915C96.4152 126.931 102.049 126.863 104.923 125.34C104.923 125.34 105.457 123.933 105.116 122.583C105.116 122.583 83.9209 120.545 83.4262 122.583C83.0118 124.289 83.475 125.428 83.475 125.428Z" fill="#F6C854"/>
<path fill-rule="evenodd" clip-rule="evenodd" d="M105.112 122.583C105.112 122.583 104.936 122.566 104.619 122.537C104.734 123.698 104.334 124.755 104.334 124.755C101.46 126.278 95.8265 126.346 93.6318 126.33C91.4717 126.289 85.5218 126.107 83.3828 125.136C83.4296 125.324 83.4713 125.428 83.4713 125.428C84.9578 126.657 91.8547 126.869 94.2168 126.915C96.4114 126.931 102.045 126.863 104.919 125.34C104.919 125.34 105.453 123.933 105.112 122.583Z" fill="#F6C854"/>
<path fill-rule="evenodd" clip-rule="evenodd" d="M105.113 122.583C105.113 123.544 100.269 124.323 94.2929 124.323C88.317 124.323 83.4727 123.544 83.4727 122.583C83.4727 121.622 88.317 120.843 94.2929 120.843C100.269 120.843 105.113 121.622 105.113 122.583Z" fill="#D39E00"/>
<path d="M103.796 122.495C103.796 123.074 99.5955 123.543 94.414 123.543C89.232 123.543 85.0312 123.074 85.0312 122.495C85.0312 121.916 89.232 121.447 94.414 121.447C99.5955 121.447 103.796 121.916 103.796 122.495Z" fill="#F6C854"/>
<path d="M94.4141 121.447C99.3638 121.45 103.394 121.641 103.796 122.495C103.796 122.495 103.242 121.989 94.4141 121.447Z" fill="white"/>
<path d="M85.0313 122.495C85.0313 123.074 89.232 123.543 94.4138 123.543C97.3395 123.543 99.9208 123.396 101.673 123.159C85.0006 123.232 85.0313 122.495 85.0313 122.495Z" fill="#F6C854"/>
<path fill-rule="evenodd" clip-rule="evenodd" d="M83.475 122.796C84.9615 124.025 91.8585 124.238 94.2205 124.284C96.4152 124.299 102.049 124.231 104.923 122.708C104.923 122.708 105.457 121.301 105.116 119.951C105.116 119.951 83.9209 117.913 83.4262 119.951C83.0118 121.657 83.475 122.796 83.475 122.796Z" fill="#F6C854"/>
<path fill-rule="evenodd" clip-rule="evenodd" d="M105.112 119.951C105.112 119.951 104.936 119.934 104.619 119.905C104.734 121.066 104.334 122.123 104.334 122.123C101.46 123.646 95.8265 123.714 93.6318 123.699C91.4717 123.657 85.5218 123.475 83.3828 122.504C83.4296 122.692 83.4713 122.796 83.4713 122.796C84.9578 124.025 91.8547 124.238 94.2168 124.283C96.4114 124.299 102.045 124.231 104.919 122.708C104.919 122.708 105.453 121.301 105.112 119.951Z" fill="#F6C854"/>
<path fill-rule="evenodd" clip-rule="evenodd" d="M105.113 119.951C105.113 120.912 100.269 121.691 94.2929 121.691C88.317 121.691 83.4727 120.912 83.4727 119.951C83.4727 118.99 88.317 118.211 94.2929 118.211C100.269 118.211 105.113 118.99 105.113 119.951Z" fill="#D39E00"/>
<path d="M103.796 119.863C103.796 120.442 99.5955 120.911 94.414 120.911C89.232 120.911 85.0312 120.442 85.0312 119.863C85.0312 119.284 89.232 118.815 94.414 118.815C99.5955 118.815 103.796 119.284 103.796 119.863Z" fill="#F6C854"/>
<path d="M94.4141 118.815C99.3638 118.818 103.394 119.01 103.796 119.863C103.796 119.863 103.242 119.357 94.4141 118.815Z" fill="white"/>
<path d="M85.0313 119.863C85.0313 120.442 89.232 120.911 94.4138 120.911C97.3395 120.911 99.9208 120.764 101.673 120.527C85.0006 120.6 85.0313 119.863 85.0313 119.863Z" fill="#F6C854"/>
<path fill-rule="evenodd" clip-rule="evenodd" d="M82.5961 120.456C84.0826 121.686 90.9795 121.898 93.3415 121.944C95.5363 121.96 101.17 121.892 104.044 120.369C104.044 120.369 104.578 118.962 104.237 117.612C104.237 117.612 83.042 115.574 82.5473 117.612C82.1329 119.318 82.5961 120.456 82.5961 120.456Z" fill="#F6C854"/>
<path fill-rule="evenodd" clip-rule="evenodd" d="M104.237 117.612C104.237 117.612 104.061 117.595 103.744 117.566C103.859 118.726 103.459 119.784 103.459 119.784C100.585 121.307 94.9515 121.375 92.7568 121.359C90.5966 121.317 84.6468 121.135 82.5078 120.164C82.5545 120.353 82.5963 120.456 82.5963 120.456C84.0828 121.686 90.9797 121.898 93.3416 121.944C95.5364 121.96 101.17 121.892 104.044 120.368C104.044 120.368 104.578 118.961 104.237 117.612Z" fill="#F6C854"/>
<path fill-rule="evenodd" clip-rule="evenodd" d="M104.238 117.611C104.238 118.572 99.3937 119.351 93.4179 119.351C87.442 119.351 82.5977 118.572 82.5977 117.611C82.5977 116.65 87.442 115.872 93.4179 115.872C99.3937 115.872 104.238 116.65 104.238 117.611Z" fill="#D39E00"/>
<path d="M102.921 117.523C102.921 118.102 98.7203 118.571 93.5388 118.571C88.3568 118.571 84.1562 118.102 84.1562 117.523C84.1562 116.944 88.3568 116.475 93.5388 116.475C98.7203 116.475 102.921 116.944 102.921 117.523Z" fill="#F6C854"/>
<path d="M93.5391 116.475C98.4888 116.478 102.519 116.67 102.921 117.523C102.921 117.523 102.367 117.017 93.5391 116.475Z" fill="white"/>
<path d="M84.1563 117.523C84.1563 118.102 88.357 118.571 93.5388 118.571C96.4645 118.571 99.0458 118.425 100.798 118.187C84.1256 118.26 84.1563 117.523 84.1563 117.523Z" fill="#F6C854"/>
<path fill-rule="evenodd" clip-rule="evenodd" d="M84.0571 118.116C85.5436 119.346 92.4405 119.558 94.8026 119.604C96.9972 119.62 102.631 119.552 105.505 118.029C105.505 118.029 106.039 116.622 105.698 115.272C105.698 115.272 84.5029 113.234 84.0082 115.272C83.5939 116.978 84.0571 118.116 84.0571 118.116Z" fill="#F6C854"/>
<path fill-rule="evenodd" clip-rule="evenodd" d="M105.698 115.272C105.698 115.272 105.522 115.255 105.205 115.226C105.32 116.387 104.92 117.444 104.92 117.444C102.046 118.967 96.4124 119.035 94.2177 119.019C92.0577 118.977 86.1077 118.796 83.9688 117.825C84.0156 118.013 84.0572 118.116 84.0572 118.116C85.5437 119.346 92.4406 119.558 94.8027 119.604C96.9974 119.62 102.631 119.552 105.505 118.029C105.505 118.029 106.039 116.622 105.698 115.272Z" fill="#F6C854"/>
<path fill-rule="evenodd" clip-rule="evenodd" d="M105.699 115.272C105.699 116.233 100.855 117.012 94.8788 117.012C88.903 117.012 84.0586 116.233 84.0586 115.272C84.0586 114.311 88.903 113.532 94.8788 113.532C100.855 113.532 105.699 114.311 105.699 115.272Z" fill="#D39E00"/>
<path d="M104.382 115.184C104.382 115.763 100.181 116.232 94.9999 116.232C89.8179 116.232 85.6172 115.763 85.6172 115.184C85.6172 114.605 89.8179 114.136 94.9999 114.136C100.181 114.136 104.382 114.605 104.382 115.184Z" fill="#F6C854"/>
<path d="M95 114.136C99.9497 114.139 103.98 114.331 104.382 115.184C104.382 115.184 103.828 114.678 95 114.136Z" fill="white"/>
<path d="M85.6172 115.184C85.6172 115.762 89.8179 116.232 94.9998 116.232C97.9254 116.232 100.507 116.085 102.259 115.848C85.5866 115.921 85.6172 115.184 85.6172 115.184Z" fill="#F6C854"/>
<path fill-rule="evenodd" clip-rule="evenodd" d="M83.475 115.485C84.9615 116.714 91.8585 116.927 94.2205 116.973C96.4152 116.988 102.049 116.92 104.923 115.397C104.923 115.397 105.457 113.99 105.116 112.64C105.116 112.64 83.9209 110.602 83.4262 112.64C83.0118 114.346 83.475 115.485 83.475 115.485Z" fill="#F6C854"/>
<path fill-rule="evenodd" clip-rule="evenodd" d="M105.112 112.64C105.112 112.64 104.936 112.623 104.619 112.594C104.734 113.755 104.334 114.812 104.334 114.812C101.46 116.335 95.8265 116.403 93.6318 116.387C91.4717 116.345 85.5218 116.164 83.3828 115.193C83.4296 115.381 83.4713 115.485 83.4713 115.485C84.9578 116.714 91.8547 116.926 94.2168 116.972C96.4114 116.988 102.045 116.92 104.919 115.397C104.919 115.397 105.453 113.99 105.112 112.64Z" fill="#F6C854"/>
<path fill-rule="evenodd" clip-rule="evenodd" d="M105.113 112.64C105.113 113.601 100.269 114.38 94.2929 114.38C88.317 114.38 83.4727 113.601 83.4727 112.64C83.4727 111.679 88.317 110.9 94.2929 110.9C100.269 110.9 105.113 111.679 105.113 112.64Z" fill="#D39E00"/>
<path d="M103.796 112.552C103.796 113.131 99.5955 113.6 94.414 113.6C89.232 113.6 85.0312 113.131 85.0312 112.552C85.0312 111.973 89.232 111.504 94.414 111.504C99.5955 111.504 103.796 111.973 103.796 112.552Z" fill="#F6C854"/>
<path d="M94.4141 111.504C99.3638 111.507 103.394 111.699 103.796 112.552C103.796 112.552 103.242 112.046 94.4141 111.504Z" fill="white"/>
<path d="M85.0313 112.552C85.0313 113.131 89.232 113.6 94.4138 113.6C97.3395 113.6 99.9208 113.453 101.673 113.216C85.0006 113.289 85.0313 112.552 85.0313 112.552Z" fill="#F6C854"/>
<path fill-rule="evenodd" clip-rule="evenodd" d="M84.35 113.145C85.8365 114.375 92.7333 114.587 95.0954 114.633C97.2902 114.649 102.924 114.581 105.798 113.058C105.798 113.058 106.331 111.651 105.991 110.301C105.991 110.301 84.7959 108.263 84.3012 110.301C83.8868 112.007 84.35 113.145 84.35 113.145Z" fill="#F6C854"/>
<path fill-rule="evenodd" clip-rule="evenodd" d="M105.991 110.301C105.991 110.301 105.815 110.283 105.498 110.255C105.613 111.415 105.213 112.473 105.213 112.473C102.339 113.996 96.7054 114.064 94.5107 114.048C92.3505 114.006 86.4007 113.824 84.2617 112.853C84.3084 113.042 84.3502 113.145 84.3502 113.145C85.8365 114.375 92.7334 114.587 95.0955 114.633C97.2903 114.648 102.924 114.581 105.798 113.057C105.798 113.057 106.332 111.65 105.991 110.301Z" fill="#F6C854"/>
<path fill-rule="evenodd" clip-rule="evenodd" d="M105.992 110.3C105.992 111.261 101.148 112.04 95.1718 112.04C89.1959 112.04 84.3516 111.261 84.3516 110.3C84.3516 109.339 89.1959 108.561 95.1718 108.561C101.148 108.561 105.992 109.339 105.992 110.3Z" fill="#D39E00"/>
<path d="M104.675 110.212C104.675 110.791 100.474 111.261 95.2927 111.261C90.1107 111.261 85.9102 110.791 85.9102 110.212C85.9102 109.634 90.1107 109.165 95.2927 109.165C100.474 109.165 104.675 109.634 104.675 110.212Z" fill="#F6C854"/>
<path d="M95.293 109.165C100.243 109.168 104.273 109.359 104.675 110.212C104.675 110.212 104.121 109.707 95.293 109.165Z" fill="white"/>
<path d="M85.9102 110.212C85.9102 110.791 90.1109 111.261 95.2927 111.261C98.2184 111.261 100.8 111.114 102.552 110.877C85.8796 110.95 85.9102 110.212 85.9102 110.212Z" fill="#F6C854"/>
<path fill-rule="evenodd" clip-rule="evenodd" d="M83.1821 110.805C84.6686 112.035 91.5655 112.247 93.9274 112.293C96.1222 112.309 101.756 112.241 104.63 110.718C104.63 110.718 105.164 109.311 104.823 107.961C104.823 107.961 83.6279 105.923 83.1332 107.961C82.7189 109.667 83.1821 110.805 83.1821 110.805Z" fill="#F6C854"/>
<path fill-rule="evenodd" clip-rule="evenodd" d="M104.823 107.961C104.823 107.961 104.647 107.944 104.33 107.916C104.445 109.076 104.045 110.133 104.045 110.133C101.171 111.656 95.5374 111.724 93.3427 111.709C91.1825 111.667 85.2327 111.485 83.0938 110.514C83.1404 110.702 83.1822 110.806 83.1822 110.806C84.6687 112.035 91.5656 112.248 93.9275 112.294C96.1224 112.309 101.756 112.241 104.63 110.718C104.63 110.718 105.164 109.311 104.823 107.961Z" fill="#F6C854"/>
<path fill-rule="evenodd" clip-rule="evenodd" d="M104.82 107.961C104.82 108.922 99.9758 109.701 93.9999 109.701C88.0241 109.701 83.1797 108.922 83.1797 107.961C83.1797 107 88.0241 106.221 93.9999 106.221C99.9758 106.221 104.82 107 104.82 107.961Z" fill="#D39E00"/>
<path fill-rule="evenodd" clip-rule="evenodd" d="M99.2641 140.342C100.751 141.572 107.648 141.784 110.01 141.83C112.204 141.845 117.838 141.778 120.712 140.255C120.712 140.255 121.246 138.848 120.905 137.497C120.905 137.497 99.7099 135.46 99.2153 137.497C98.8009 139.204 99.2641 140.342 99.2641 140.342Z" fill="#F6C854"/>
<path d="M120.905 137.497C120.905 137.497 120.729 137.48 120.412 137.452C120.527 138.612 120.127 139.669 120.127 139.669C117.253 141.193 111.62 141.26 109.425 141.245C107.265 141.203 101.315 141.021 99.1758 140.05C99.2224 140.238 99.2642 140.342 99.2642 140.342C100.751 141.571 107.648 141.784 110.01 141.83C112.204 141.845 117.838 141.777 120.712 140.254C120.712 140.254 121.246 138.847 120.905 137.497Z" fill="#F6C854"/>
<path fill-rule="evenodd" clip-rule="evenodd" d="M120.906 137.497C120.906 138.459 116.062 139.238 110.086 139.238C104.11 139.238 99.2656 138.459 99.2656 137.497C99.2656 136.537 104.11 135.758 110.086 135.758C116.062 135.758 120.906 136.537 120.906 137.497Z" fill="#D39E00"/>
<path d="M119.589 137.409C119.589 137.988 115.388 138.457 110.207 138.457C105.025 138.457 100.824 137.988 100.824 137.409C100.824 136.831 105.025 136.361 110.207 136.361C115.388 136.361 119.589 136.831 119.589 137.409Z" fill="#F6C854"/>
<path d="M110.207 136.361C115.157 136.365 119.187 136.556 119.589 137.409C119.589 137.409 119.035 136.904 110.207 136.361Z" fill="white"/>
<path d="M100.824 137.409C100.824 137.988 105.025 138.457 110.207 138.457C113.132 138.457 115.714 138.311 117.466 138.074C100.794 138.146 100.824 137.409 100.824 137.409Z" fill="#F6C854"/>
<path fill-rule="evenodd" clip-rule="evenodd" d="M100.725 138.002C102.212 139.232 109.108 139.444 111.47 139.49C113.665 139.505 119.299 139.438 122.173 137.915C122.173 137.915 122.707 136.508 122.366 135.158C122.366 135.158 101.171 133.12 100.676 135.158C100.262 136.864 100.725 138.002 100.725 138.002Z" fill="#F6C854"/>
<path fill-rule="evenodd" clip-rule="evenodd" d="M122.366 135.158C122.366 135.158 122.19 135.141 121.873 135.112C121.988 136.273 121.589 137.33 121.589 137.33C118.714 138.853 113.081 138.921 110.886 138.906C108.726 138.864 102.776 138.682 100.637 137.711C100.684 137.899 100.725 138.003 100.725 138.003C102.212 139.232 109.109 139.444 111.471 139.49C113.666 139.506 119.299 139.438 122.173 137.915C122.173 137.915 122.707 136.508 122.366 135.158Z" fill="#F6C854"/>
<path fill-rule="evenodd" clip-rule="evenodd" d="M122.367 135.158C122.367 136.119 117.523 136.898 111.547 136.898C105.571 136.898 100.727 136.119 100.727 135.158C100.727 134.197 105.571 133.418 111.547 133.418C117.523 133.418 122.367 134.197 122.367 135.158Z" fill="#D39E00"/>
<path d="M121.05 135.069C121.05 135.648 116.849 136.118 111.668 136.118C106.486 136.118 102.285 135.648 102.285 135.069C102.285 134.491 106.486 134.021 111.668 134.021C116.849 134.021 121.05 134.491 121.05 135.069Z" fill="#F6C854"/>
<path d="M111.668 134.022C116.618 134.025 120.648 134.217 121.05 135.07C121.05 135.07 120.496 134.564 111.668 134.022Z" fill="white"/>
<path d="M102.285 135.069C102.285 135.648 106.486 136.118 111.668 136.118C114.593 136.118 117.175 135.971 118.927 135.734C102.255 135.807 102.285 135.069 102.285 135.069Z" fill="#F6C854"/>
<path fill-rule="evenodd" clip-rule="evenodd" d="M99.5571 135.37C101.044 136.6 107.94 136.812 110.303 136.858C112.497 136.874 118.131 136.806 121.005 135.283C121.005 135.283 121.539 133.876 121.198 132.526C121.198 132.526 100.003 130.488 99.5082 132.526C99.0939 134.232 99.5571 135.37 99.5571 135.37Z" fill="#F6C854"/>
<path d="M121.198 132.526C121.198 132.526 121.022 132.509 120.705 132.48C120.82 133.641 120.421 134.698 120.421 134.698C117.546 136.221 111.913 136.289 109.718 136.274C107.558 136.232 101.608 136.05 99.4688 135.079C99.5156 135.267 99.5574 135.371 99.5574 135.371C101.044 136.6 107.941 136.813 110.303 136.859C112.498 136.874 118.131 136.806 121.005 135.283C121.005 135.283 121.539 133.876 121.198 132.526Z" fill="#F6C854"/>
<path d="M121.199 132.526C121.199 133.487 116.355 134.266 110.379 134.266C104.403 134.266 99.5586 133.487 99.5586 132.526C99.5586 131.565 104.403 130.786 110.379 130.786C116.355 130.786 121.199 131.565 121.199 132.526Z" fill="#D39E00"/>
<path d="M119.882 132.438C119.882 133.016 115.681 133.486 110.5 133.486C105.318 133.486 101.117 133.016 101.117 132.438C101.117 131.859 105.318 131.39 110.5 131.39C115.681 131.39 119.882 131.859 119.882 132.438Z" fill="#F6C854"/>
<path d="M110.5 131.39C115.45 131.393 119.48 131.584 119.882 132.438C119.882 132.438 119.328 131.932 110.5 131.39Z" fill="white"/>
<path d="M101.117 132.438C101.117 133.016 105.318 133.486 110.5 133.486C113.425 133.486 116.007 133.339 117.759 133.102C101.087 133.175 101.117 132.438 101.117 132.438Z" fill="#F6C854"/>
<path fill-rule="evenodd" clip-rule="evenodd" d="M99.85 132.739C101.337 133.968 108.233 134.181 110.595 134.227C112.79 134.242 118.424 134.174 121.298 132.651C121.298 132.651 121.831 131.244 121.491 129.894C121.491 129.894 100.296 127.856 99.8012 129.894C99.3868 131.6 99.85 132.739 99.85 132.739Z" fill="#F6C854"/>
<path d="M121.491 129.894C121.491 129.894 121.315 129.877 120.998 129.848C121.113 131.009 120.713 132.066 120.713 132.066C117.839 133.589 112.206 133.657 110.011 133.641C107.851 133.599 101.901 133.417 99.7617 132.447C99.8085 132.635 99.8502 132.738 99.8502 132.738C101.337 133.968 108.234 134.18 110.596 134.226C112.79 134.242 118.424 134.174 121.298 132.651C121.298 132.651 121.832 131.244 121.491 129.894Z" fill="#F6C854"/>
<path fill-rule="evenodd" clip-rule="evenodd" d="M121.488 129.894C121.488 130.855 116.644 131.634 110.668 131.634C104.692 131.634 99.8477 130.855 99.8477 129.894C99.8477 128.933 104.692 128.154 110.668 128.154C116.644 128.154 121.488 128.933 121.488 129.894Z" fill="#D39E00"/>
<path d="M120.175 129.806C120.175 130.385 115.974 130.854 110.793 130.854C105.611 130.854 101.41 130.385 101.41 129.806C101.41 129.227 105.611 128.758 110.793 128.758C115.974 128.758 120.175 129.227 120.175 129.806Z" fill="#F6C854"/>
<path d="M110.793 128.758C115.743 128.761 119.773 128.952 120.175 129.806C120.175 129.806 119.621 129.3 110.793 128.758Z" fill="white"/>
<path d="M101.41 129.806C101.41 130.385 105.611 130.854 110.793 130.854C113.718 130.854 116.3 130.707 118.051 130.47C101.38 130.543 101.41 129.806 101.41 129.806Z" fill="#F6C854"/>
<path fill-rule="evenodd" clip-rule="evenodd" d="M98.9711 130.107C100.458 131.336 107.354 131.549 109.716 131.595C111.911 131.61 117.545 131.542 120.419 130.019C120.419 130.019 120.953 128.612 120.612 127.262C120.612 127.262 99.417 125.224 98.9223 127.262C98.5079 128.968 98.9711 130.107 98.9711 130.107Z" fill="#F6C854"/>
<path fill-rule="evenodd" clip-rule="evenodd" d="M120.612 127.262C120.612 127.262 120.436 127.245 120.119 127.216C120.234 128.377 119.834 129.434 119.834 129.434C116.96 130.957 111.327 131.025 109.132 131.01C106.972 130.968 101.022 130.786 98.8828 129.815C98.9296 130.003 98.9713 130.107 98.9713 130.107C100.458 131.336 107.355 131.549 109.717 131.594C111.911 131.61 117.545 131.542 120.419 130.019C120.419 130.019 120.953 128.612 120.612 127.262Z" fill="#F6C854"/>
<path fill-rule="evenodd" clip-rule="evenodd" d="M120.613 127.262C120.613 128.223 115.769 129.002 109.793 129.002C103.817 129.002 98.9727 128.223 98.9727 127.262C98.9727 126.301 103.817 125.522 109.793 125.522C115.769 125.522 120.613 126.301 120.613 127.262Z" fill="#D39E00"/>
<path fill-rule="evenodd" clip-rule="evenodd" d="M119.296 127.127C119.296 127.68 115.095 128.128 109.914 128.128C104.732 128.128 100.531 127.68 100.531 127.127C100.531 126.574 104.732 126.126 109.914 126.126C115.095 126.126 119.296 126.574 119.296 127.127Z" fill="#F6C854"/>
<path fill-rule="evenodd" clip-rule="evenodd" d="M103.706 108.08C103.706 108.633 99.5055 109.081 94.324 109.081C89.142 109.081 84.9414 108.633 84.9414 108.08C84.9414 107.527 89.142 107.079 94.324 107.079C99.5055 107.079 103.706 107.527 103.706 108.08Z" fill="#F6C854"/>
<path fill-rule="evenodd" clip-rule="evenodd" d="M119.296 127.174C119.296 127.174 118.742 126.668 109.914 126.126C114.864 126.129 118.894 126.321 119.296 127.174Z" fill="#FFE99F"/>
<path fill-rule="evenodd" clip-rule="evenodd" d="M100.531 127.174C100.531 127.753 104.732 128.222 109.914 128.222C112.839 128.222 115.421 128.076 117.172 127.838C100.501 127.911 100.531 127.174 100.531 127.174Z" fill="#FFE99F"/>
<path fill-rule="evenodd" clip-rule="evenodd" d="M103.706 108.127C103.706 108.127 103.152 107.621 94.3242 107.079C99.2741 107.082 103.304 107.274 103.706 108.127Z" fill="#FFE99F"/>
<path fill-rule="evenodd" clip-rule="evenodd" d="M84.9414 108.127C84.9414 108.706 89.1421 109.175 94.324 109.175C97.2494 109.175 99.8309 109.029 101.583 108.791C84.9108 108.864 84.9414 108.127 84.9414 108.127Z" fill="#FFE99F"/>
</svg>
