<svg width="160" height="160" viewBox="0 0 160 160" fill="none" xmlns="http://www.w3.org/2000/svg">
<path fill-rule="evenodd" clip-rule="evenodd" d="M108.991 32.0443C109.312 32.5708 109.623 33.1007 109.926 33.6339C116.013 44.3672 125.421 52.5359 136.541 57.2291C143.291 60.0774 149.252 65.0436 153.434 71.9157C164.386 89.9148 159.048 114.019 141.471 125.933C133.717 131.189 124.881 133.162 116.487 132.18C109.301 131.34 101.974 133.141 95.9026 137.447C95.8244 137.502 95.7462 137.557 95.6675 137.611C85.3607 144.729 71.8666 141.933 65.3892 131.335C65.3523 131.274 65.3154 131.213 65.2794 131.152C63.5589 128.276 60.5405 126.535 57.2486 126.502C38.4796 126.311 20.3797 116.721 9.70744 99.1755C-7.34522 71.1407 1.05409 33.3301 28.4491 14.8073C55.8657 -3.7299 91.9255 3.98724 108.991 32.0443Z" fill="#EAF7FE"/>
<path fill-rule="evenodd" clip-rule="evenodd" d="M128.734 100.954L46.1758 87.6896C43.8242 87.3116 42.2244 85.0992 42.6021 82.7485L50.3547 34.4969C50.7327 32.146 52.9446 30.5471 55.2963 30.9249L137.855 44.1898C140.207 44.5676 141.807 46.7788 141.429 49.13L133.676 97.3814C133.298 99.7322 131.086 101.332 128.734 100.954Z" fill="#34466B"/>
<path fill-rule="evenodd" clip-rule="evenodd" d="M61.2437 56.6615L56.063 55.829C55.1329 55.6795 54.2577 56.3125 54.1083 57.2426L53.2758 62.4233C53.1263 63.3534 53.7593 64.2285 54.6894 64.378L59.87 65.2105C60.8002 65.36 61.6753 64.727 61.8248 63.7969L62.6573 58.6162C62.8067 57.6861 62.1738 56.811 61.2437 56.6615Z" fill="#CEDEE7"/>
<path fill-rule="evenodd" clip-rule="evenodd" d="M51.4336 73.8794L68.8731 76.6815L69.2947 74.0596L51.8546 71.2578L51.4336 73.8794ZM56.8659 83.3453L50.1406 82.2648L50.6901 78.8451L57.4149 79.9259L56.8659 83.3453ZM65.5334 84.7414L58.8086 83.661L59.358 80.2412L66.0829 81.3217L65.5334 84.7414ZM88.7052 79.87L71.2656 77.0678L71.6867 74.4463L89.1267 77.248L88.7052 79.87ZM90.9883 80.2378L108.428 83.0399L108.849 80.418L91.4098 77.6162L90.9883 80.2378ZM128.147 86.2074L110.707 83.4052L111.128 80.7837L128.568 83.5855L128.147 86.2074Z" fill="#CEDEE7"/>
<path fill-rule="evenodd" clip-rule="evenodd" d="M127.901 54.5028C128.096 53.7718 128.061 52.9854 127.779 52.2566L127.401 51.2808L125.888 47.3771C125.745 47.0048 125.665 46.6175 125.648 46.2305L125.511 46.4011C124.7 47.4105 124.488 48.7762 124.956 49.9837V49.9845L126.525 54.0351C126.524 54.0346 126.522 54.0342 126.521 54.0342C126.917 55.2048 126.692 56.5028 125.913 57.472L125.776 57.6426C125.759 57.2557 125.679 56.8685 125.535 56.4962L125.677 56.8623L124.401 53.5683L123.233 50.5524L123.267 50.6404C123.123 50.2681 123.043 49.8812 123.026 49.494L122.889 49.6645C122.078 50.6742 121.866 52.0399 122.334 53.2474V53.2483L122.383 53.3753L123.468 56.1762L123.846 57.152C124.314 58.3599 124.103 59.7261 123.291 60.7357L123.154 60.9063C123.137 60.519 123.057 60.1318 122.913 59.7599L123.055 60.1256L121.023 54.8799L121.023 54.8795C120.837 54.4004 120.759 53.8971 120.783 53.4004C117.596 53.6201 115.205 54.8597 114.922 56.6878C114.539 59.1617 118.162 61.7762 123.014 62.5278C127.866 63.2786 132.109 61.8821 132.492 59.4083C132.775 57.5801 130.871 55.676 127.901 54.5028Z" fill="#2A8FEC"/>
<path fill-rule="evenodd" clip-rule="evenodd" d="M135.696 91.7466L52.2763 97.4873C49.9 97.6508 47.8415 95.8578 47.678 93.482L44.3228 44.7271C44.1593 42.3516 45.9527 40.2941 48.329 40.1305L131.749 34.3897C134.125 34.2262 136.184 36.0187 136.347 38.3942L139.702 87.1493C139.866 89.5247 138.072 91.5831 135.696 91.7466Z" fill="#CEDEE7"/>
<path fill-rule="evenodd" clip-rule="evenodd" d="M59.9402 63.8552L54.7059 64.2152C53.7661 64.2798 53.0567 65.0943 53.1213 66.0341L53.4813 71.2688C53.5459 72.2086 54.3604 72.918 55.3002 72.8534L60.5349 72.493C61.4747 72.4283 62.1841 71.6143 62.1195 70.6741L61.7591 65.4398C61.6945 64.5 60.8804 63.7905 59.9402 63.8552Z" fill="#CEDEE7"/>
<path fill-rule="evenodd" clip-rule="evenodd" d="M54.2796 82.8454L71.9016 81.6327L71.7192 78.9839L54.0977 80.1962L54.2796 82.8454ZM61.7127 90.8382L54.9175 91.3059L54.6797 87.851L61.4749 87.3833L61.7127 90.8382ZM70.4705 90.2376L63.6753 90.7053L63.4375 87.2499L70.2327 86.7822L70.4705 90.2376ZM91.945 80.2552L74.323 81.468L74.1406 78.8192L91.7626 77.6064L91.945 80.2552ZM94.2484 80.0984L111.87 78.8856L111.688 76.2368L94.0664 77.4491L94.2484 80.0984ZM131.792 77.5135L114.171 78.7263L113.988 76.0775L131.61 74.8647L131.792 77.5135Z" fill="#CEDEE7"/>
<path fill-rule="evenodd" clip-rule="evenodd" d="M124.386 46.6842C124.41 45.928 124.199 45.1697 123.759 44.5236L123.17 43.6585L120.815 40.1975C120.59 39.8676 120.425 39.5084 120.321 39.1353L120.226 39.3324C119.664 40.4991 119.767 41.8774 120.495 42.9479V42.9488L122.939 46.5397C122.938 46.5396 122.936 46.5395 122.935 46.5396C123.586 47.5902 123.66 48.9053 123.121 50.0258L123.026 50.2231C122.921 49.8499 122.756 49.4908 122.532 49.1607L122.752 49.4851L120.765 46.5649L118.945 43.8913L118.998 43.9693C118.774 43.6393 118.609 43.2802 118.504 42.907L118.409 43.1042C117.848 44.2709 117.95 45.6491 118.679 46.7198L118.679 46.7207L118.756 46.8332L120.446 49.3163L121.035 50.1814C121.763 51.2521 121.866 52.6306 121.304 53.7976L121.209 53.995C121.105 53.6218 120.94 53.2627 120.715 52.9326L120.936 53.257L117.771 48.6064L117.771 48.606C117.481 48.1814 117.292 47.7084 117.202 47.2192C114.148 48.1537 112.099 49.9018 112.237 51.7462C112.423 54.2429 116.543 55.9708 121.439 55.606C126.335 55.2407 130.153 52.9211 129.967 50.4244C129.83 48.58 127.544 47.1554 124.386 46.6842Z" fill="#2A8FEC"/>
<path fill-rule="evenodd" clip-rule="evenodd" d="M139.614 81.7145L59.0136 103.974C56.7178 104.608 54.3429 103.261 53.709 100.966L40.6996 53.8587C40.0657 51.5637 41.413 49.1897 43.709 48.5558L124.309 26.2964C126.605 25.6624 128.979 27.0084 129.613 29.3036L142.623 76.4103C143.257 78.7057 141.909 81.0807 139.614 81.7145Z" fill="white"/>
<path fill-rule="evenodd" clip-rule="evenodd" d="M59.8176 69.4874L54.76 70.8839C53.8519 71.1348 53.3192 72.0742 53.5697 72.9823L54.9666 78.0399C55.2176 78.948 56.157 79.4808 57.0651 79.2298L62.1227 77.8333C63.0308 77.5823 63.5635 76.643 63.3126 75.7348L61.9161 70.6773C61.6651 69.7691 60.7257 69.2364 59.8176 69.4874Z" fill="#CEDEE7"/>
<path fill-rule="evenodd" clip-rule="evenodd" d="M58.0549 89.2253L75.0808 84.5233L74.374 81.9638L57.3477 86.6657L58.0549 89.2253ZM66.9328 95.5763L60.3675 97.3894L59.4453 94.051L66.011 92.2378L66.9328 95.5763ZM75.3937 93.2408L68.828 95.054L67.9063 91.7155L74.472 89.9023L75.3937 93.2408ZM94.4437 79.1782L77.4178 83.8802L76.7109 81.3206L93.7369 76.6187L94.4437 79.1782ZM96.6717 78.5623L113.698 73.8603L112.991 71.3008L95.9648 76.0028L96.6717 78.5623ZM132.948 68.5444L115.922 73.2464L115.215 70.6873L132.241 65.9849L132.948 68.5444Z" fill="#CEDEE7"/>
<path fill-rule="evenodd" clip-rule="evenodd" d="M119.543 39.8108C119.416 39.065 119.058 38.3642 118.498 37.8188L117.749 37.0884L114.75 34.1666C114.465 33.888 114.232 33.569 114.055 33.2241L114.001 33.4363C113.683 34.6915 114.058 36.0217 114.986 36.9255L114.986 36.9263L118.097 39.9577C118.096 39.9579 118.094 39.9581 118.093 39.9585C118.941 40.8582 119.275 42.1323 118.97 43.3378L118.916 43.55C118.739 43.2051 118.506 42.8861 118.22 42.6075L118.501 42.8814L115.971 40.416L113.655 38.159L113.723 38.2248C113.437 37.9462 113.204 37.6272 113.027 37.2823L112.973 37.4945C112.655 38.7498 113.031 40.0799 113.958 40.9839L113.959 40.9845L114.056 41.0795L116.207 43.1757L116.207 43.1759L116.957 43.906C117.884 44.8101 118.26 46.1405 117.942 47.396L117.888 47.6083C117.712 47.2633 117.478 46.9442 117.192 46.6655L117.474 46.9393L113.445 43.0135L113.444 43.013C113.076 42.6545 112.796 42.229 112.61 41.7677C109.804 43.2923 108.145 45.4137 108.648 47.1938C109.328 49.6031 113.71 50.4747 118.435 49.1411C123.159 47.807 126.438 44.7726 125.758 42.3634C125.256 40.5832 122.732 39.6428 119.543 39.8108Z" fill="#2A8FEC"/>
<path d="M52.0082 153.578L95.839 146.878C100.707 146.133 104.049 141.587 103.304 136.724L85.4337 20.0927C84.6887 15.2302 80.1388 11.8912 75.2698 12.6355L31.4404 19.3373C26.5713 20.0822 23.2295 24.6273 23.9751 29.4898L41.8451 146.122C42.59 150.985 47.1397 154.323 52.0082 153.578Z" fill="#9E3667"/>
<path d="M54.6996 153.169L98.5304 146.466C103.398 145.723 106.741 141.176 105.995 136.314L88.1256 19.6825C87.3801 14.8201 82.8302 11.4811 77.9621 12.2253L34.1317 18.9277C29.2634 19.6714 25.9209 24.2171 26.6665 29.0797L44.5366 145.711C45.2816 150.574 49.8319 153.913 54.6996 153.169Z" fill="white"/>
<path d="M27.4236 34.0341L43.9431 141.849C44.4565 145.2 48.6266 147.342 51.9795 146.83L100.26 139.447C103.615 138.934 105.916 135.803 105.402 132.451L88.8828 24.6371C88.369 21.2849 85.2362 18.9819 81.8806 19.4948L33.601 26.8774C30.2479 27.3899 26.9102 30.6822 27.4236 34.0341Z" fill="white"/>
<path fill-rule="evenodd" clip-rule="evenodd" d="M44.769 22.8046C43.958 22.9287 43.1999 22.3723 43.076 21.5623C42.9514 20.7517 43.5082 19.9948 44.3189 19.8707C45.1294 19.7471 45.8877 20.303 46.0121 21.1136C46.136 21.9236 45.58 22.6812 44.769 22.8046ZM66.3521 18.7854C65.9297 18.8501 65.535 18.5604 65.47 18.1379C65.4053 17.7153 65.695 17.3208 66.1179 17.2561C66.5407 17.1915 66.9359 17.4813 67.0001 17.9038C67.0656 18.3262 66.775 18.7209 66.3521 18.7854ZM68.4387 17.6845C68.5038 18.1064 68.8985 18.397 69.3205 18.3324C69.7438 18.267 70.0334 17.8731 69.9688 17.4506C69.9038 17.0281 69.5086 16.7383 69.0866 16.803C68.6638 16.8675 68.3741 17.2622 68.4387 17.6845ZM60.2519 19.3524L53.1548 20.4372C52.9293 20.4721 52.7187 20.3175 52.6844 20.0923C52.6502 19.867 52.8049 19.6567 53.0304 19.6224L60.1275 18.5375C60.3521 18.5033 60.5627 18.6572 60.5979 18.8826C60.6321 19.1077 60.4779 19.3182 60.2519 19.3524Z" fill="#DEEDF2"/>
<path fill-rule="evenodd" clip-rule="evenodd" d="M52.0122 153.555L95.8429 146.854C100.711 146.108 104.053 141.563 103.308 136.7L85.4376 20.0688C84.6926 15.2062 80.1427 11.8673 75.2737 12.6116L31.4442 19.3134C26.5752 20.0583 23.2334 24.6034 23.9791 29.4659L41.849 146.098C42.5939 150.961 47.1436 154.299 52.0122 153.555Z" fill="#9E3667"/>
<path fill-rule="evenodd" clip-rule="evenodd" d="M54.7074 153.143L98.5382 146.441C103.406 145.697 106.748 141.151 106.003 136.289L88.1334 19.6567C87.3879 14.7942 82.838 11.4552 77.9699 12.1995L34.1395 18.9018C29.2712 19.6455 25.9287 24.1912 26.6743 29.0538L44.5444 145.685C45.2894 150.549 49.8398 153.887 54.7074 153.143Z" fill="white"/>
<path d="M27.4314 34.0102L43.9509 141.825C44.4643 145.176 48.6344 147.318 51.9874 146.806L100.268 139.423C103.623 138.91 105.923 135.779 105.41 132.427L88.8907 24.6132C88.3768 21.261 85.2441 18.9579 81.8885 19.4709L33.6088 26.8534C30.2558 27.366 26.918 30.6583 27.4314 34.0102Z" fill="white"/>
<path fill-rule="evenodd" clip-rule="evenodd" d="M43.4023 138.255L43.9495 141.824C43.9781 142.003 44.015 142.179 44.0638 142.35C44.9064 145.396 48.8132 147.292 51.9856 146.806L100.266 139.422C103.224 138.971 105.364 136.484 105.474 133.603C105.489 133.216 105.47 132.823 105.408 132.426L104.862 128.857L43.4023 138.255Z" fill="#CEDEE7"/>
<path d="M43.4023 138.253L43.9496 141.822C43.9782 142.001 44.0151 142.177 44.0635 142.348L44.096 142.343L43.9514 141.402L105.345 132.018L104.862 128.857L43.4023 138.253Z" fill="#2A8FEC"/>
<path fill-rule="evenodd" clip-rule="evenodd" d="M60.7077 115.434L44.6523 117.887L47.1121 133.929L63.1675 131.476L60.7077 115.434ZM79.1404 112.614L63.0859 115.067L65.5457 131.109L81.5998 128.657L79.1404 112.614ZM97.5662 109.796L81.5117 112.25L83.9706 128.292L100.026 125.839L97.5662 109.796Z" fill="#CEDEE7"/>
<path fill-rule="evenodd" clip-rule="evenodd" d="M44.7803 22.7797C43.9698 22.9039 43.2116 22.3474 43.0877 21.5374C42.9632 20.7268 43.5201 19.9699 44.3306 19.8458C45.1412 19.7222 45.8994 20.2781 46.0238 21.0887C46.1478 21.8987 45.5917 22.6563 44.7803 22.7797ZM66.3639 18.7605C65.9414 18.8252 65.5467 18.5354 65.4817 18.1129C65.4171 17.6904 65.7067 17.2959 66.1296 17.2312C66.5524 17.1666 66.9476 17.4565 67.0118 17.8789C67.0773 18.3013 66.7867 18.696 66.3639 18.7605ZM68.4467 17.6597C68.5117 18.0815 68.9065 18.3721 69.3284 18.3074C69.7517 18.242 70.0414 17.8482 69.9768 17.4257C69.9117 17.0032 69.5166 16.7134 69.0946 16.7781C68.6717 16.8426 68.3821 17.2373 68.4467 17.6597ZM60.2636 19.3275L53.1665 20.4123C52.941 20.4472 52.7304 20.2926 52.6962 20.0673C52.6619 19.842 52.8166 19.6318 53.0421 19.5975L60.1392 18.5126C60.3639 18.4784 60.5744 18.6323 60.6091 18.8577C60.6439 19.0828 60.4896 19.2933 60.2636 19.3275Z" fill="#DEEDF2"/>
<path d="M27.4314 34.0098L30.0603 51.1673L91.5193 41.7704L88.8907 24.6128C88.3768 21.2606 85.2441 18.9572 81.8885 19.4705L33.6088 26.853C30.2558 27.3656 26.918 30.6577 27.4314 34.0098Z" fill="#2A8FEC"/>
<path fill-rule="evenodd" clip-rule="evenodd" d="M30.0547 51.1626L39.0448 109.871L100.502 100.475L96.4258 73.8532L95.104 65.2154L91.5119 41.7686L81.4899 43.3021L80.2601 43.4923L77.7207 43.8759L77.6042 43.893L30.0547 51.1626Z" fill="#CEDEE7"/>
<path fill-rule="evenodd" clip-rule="evenodd" d="M48.6611 80.7029L45.7542 61.7068C45.643 60.9794 46.1244 60.2985 46.8378 60.1578L46.8962 60.1477L47.4356 60.0651C54.4677 58.989 59.0514 56.6365 62.9055 52.8989L63.0668 52.9798C67.7608 55.3055 72.7419 56.1561 79.5731 55.1468L80.349 55.0286L80.4079 55.0207C81.1103 54.9438 81.7569 55.4198 81.8945 56.1147L81.905 56.175L84.8118 75.171C86.3846 85.451 79.7991 95.1526 70.1142 98.0031L69.8197 98.0875C59.6061 98.418 50.2501 91.0866 48.6611 80.7029Z" fill="#34466B"/>
<path fill-rule="evenodd" clip-rule="evenodd" d="M78.0953 68.2519L65.2922 85.3639L55.2148 77.7938L57.8258 74.3178L64.4206 79.2716L74.614 65.6475L78.0953 68.2519Z" fill="white"/>
</svg>
