<svg width="160" height="161" viewBox="0 0 160 161" fill="none" xmlns="http://www.w3.org/2000/svg">
<path fill-rule="evenodd" clip-rule="evenodd" d="M82.0779 157.062C81.4569 157.069 80.836 157.07 80.215 157.063L80.0917 157.062L80.0996 156.42C80.6732 156.427 81.2483 156.428 81.8234 156.423L82.07 156.42C82.0722 156.634 82.075 156.848 82.0779 157.062ZM86.0439 156.914C85.4236 156.952 84.8027 156.983 84.1817 157.008L84.0612 157.013L84.0369 156.371C84.6736 156.347 85.3111 156.316 85.9485 156.277L86.0037 156.273C86.0166 156.487 86.0302 156.7 86.0439 156.914ZM76.2455 156.278C76.8421 156.314 77.4394 156.344 78.0367 156.368L78.1256 156.371L78.1012 157.012C77.4688 156.989 76.837 156.957 76.206 156.919L76.1193 156.913L76.1594 156.273C76.1881 156.275 76.2168 156.276 76.2455 156.278ZM89.9977 156.567C89.3796 156.637 88.76 156.699 88.1405 156.755L88.0229 156.765L87.9663 156.126C88.5944 156.07 89.2225 156.008 89.8499 155.938L89.9259 155.929C89.9496 156.142 89.974 156.354 89.9977 156.567ZM72.3433 155.94C72.9313 156.006 73.5207 156.065 74.1101 156.118L74.1962 156.125L74.1395 156.764C73.5157 156.709 72.8933 156.647 72.2719 156.578L72.1651 156.566L72.2369 155.928C72.2724 155.932 72.3082 155.936 72.3433 155.94ZM93.9299 156.02C93.3018 156.124 92.6729 156.219 92.0427 156.308L91.9674 156.318L91.8792 155.683C92.5245 155.593 93.167 155.495 93.8095 155.39C93.8095 155.39 93.8883 155.769 93.9299 156.02ZM68.3834 155.393C69.0009 155.494 69.6193 155.588 70.2389 155.676L70.2838 155.682L70.1956 156.317C69.5934 156.234 68.9944 156.143 68.3958 156.046L68.233 156.019L68.3376 155.386C68.3529 155.388 68.3682 155.391 68.3834 155.393ZM97.8285 155.275C97.1824 155.415 96.5342 155.547 95.8853 155.672L95.7634 155.042C96.3729 154.926 96.9817 154.801 97.589 154.67L97.6922 154.648C97.7381 154.857 97.7833 155.066 97.8285 155.275ZM64.4897 154.65C65.0962 154.782 65.7041 154.906 66.3134 155.024L66.3995 155.041L66.2787 155.671C65.6347 155.548 64.9933 155.416 64.3532 155.277L64.4708 154.646C64.4771 154.648 64.4834 154.649 64.4897 154.65ZM60.6673 153.716C61.2621 153.877 61.8586 154.032 62.4569 154.179L62.5528 154.203L62.3999 154.826C61.765 154.67 61.131 154.507 60.4991 154.335L60.6467 153.71C60.6536 153.712 60.6605 153.714 60.6673 153.716ZM101.685 154.331C101.05 154.504 100.413 154.668 99.7753 154.825L99.6103 154.204C100.214 154.057 100.814 153.902 101.413 153.74L101.517 153.712C101.573 153.919 101.629 154.125 101.685 154.331ZM105.488 153.193C104.895 153.387 104.3 153.573 103.702 153.754L103.594 153.786L103.409 153.172C104.031 152.985 104.652 152.791 105.27 152.589C105.27 152.589 105.408 152.951 105.488 153.193ZM56.9217 152.596C57.5038 152.786 58.0881 152.969 58.6745 153.146L58.7537 153.17L58.5693 153.784C57.9888 153.61 57.4094 153.429 56.8322 153.242L56.6754 153.191L56.8751 152.581C56.8906 152.586 56.9062 152.591 56.9217 152.596ZM109.227 151.861C108.669 152.076 108.107 152.285 107.544 152.487L107.366 152.551L107.151 151.946C107.711 151.747 108.27 151.54 108.826 151.328L108.997 151.262C109.074 151.462 109.151 151.662 109.227 151.861ZM53.2576 151.295C53.8265 151.513 54.3977 151.724 54.9714 151.929L55.0122 151.944L54.7971 152.549C54.6747 152.505 54.5524 152.461 54.4302 152.417C53.9972 152.26 53.5655 152.099 53.1352 151.935L52.9358 151.859L53.1661 151.26C53.1967 151.272 53.2272 151.283 53.2576 151.295ZM49.5768 149.773C50.131 150.018 50.688 150.258 51.2476 150.491L51.3385 150.529L51.0924 151.122C50.4967 150.874 49.9052 150.62 49.3163 150.359L49.2688 150.338L49.5297 149.752C49.5454 149.759 49.5611 149.766 49.5768 149.773ZM112.895 150.341C112.295 150.608 111.69 150.867 111.084 151.119L110.825 150.532C110.97 150.472 111.114 150.411 111.258 150.351C111.711 150.159 112.164 149.963 112.614 149.763C112.614 149.763 112.792 150.109 112.895 150.341ZM116.479 148.636C115.938 148.91 115.395 149.177 114.848 149.439L114.698 149.511L114.422 148.931C114.948 148.681 115.472 148.424 115.994 148.162L116.189 148.063C116.286 148.254 116.383 148.445 116.479 148.636ZM45.9937 148.07C46.5663 148.36 47.1422 148.643 47.7214 148.919L47.4658 149.508C47.3214 149.439 47.1774 149.37 47.0335 149.301C46.5882 149.085 46.1448 148.866 45.7034 148.642L45.9747 148.06C45.981 148.063 45.9873 148.067 45.9937 148.07ZM119.973 146.75C119.453 147.048 118.93 147.339 118.404 147.625L118.238 147.715L117.933 147.15C118.054 147.085 118.175 147.019 118.296 146.953C118.693 146.736 119.087 146.516 119.479 146.293L119.654 146.193C119.76 146.379 119.866 146.565 119.973 146.75ZM42.5141 146.192C43.0694 146.51 43.6283 146.821 44.1909 147.126L44.2304 147.147L43.9257 147.712C43.7787 147.633 43.6321 147.553 43.4856 147.473C43.0533 147.235 42.6232 146.994 42.1951 146.749C42.1951 146.749 42.4747 146.17 42.5141 146.192ZM123.366 144.69C122.865 145.012 122.361 145.328 121.853 145.638L121.682 145.742L121.35 145.193C121.856 144.886 122.357 144.573 122.855 144.255L123.019 144.15C123.135 144.33 123.251 144.51 123.366 144.69ZM39.2384 144.207C39.7444 144.53 40.2538 144.848 40.7667 145.161L40.8144 145.19L40.4813 145.738C39.9809 145.434 39.4827 145.124 38.9879 144.808L38.798 144.687L39.1445 144.147C39.1758 144.167 39.2071 144.187 39.2384 144.207ZM126.651 142.461C126.167 142.808 125.679 143.148 125.188 143.484L125.022 143.597L124.662 143.066C124.779 142.986 124.895 142.907 125.012 142.827C125.383 142.572 125.751 142.314 126.117 142.054L126.277 141.94C126.402 142.114 126.526 142.288 126.651 142.461ZM35.8881 141.936C36.4061 142.307 36.9283 142.671 37.4547 143.03L37.502 143.062L37.1415 143.593C36.5933 143.221 36.052 142.843 35.5144 142.458C35.5144 142.458 35.8706 141.924 35.8881 141.936ZM129.819 140.069C129.351 140.441 128.88 140.807 128.405 141.168L128.25 141.285L127.863 140.773C127.974 140.689 128.085 140.605 128.195 140.521C128.552 140.248 128.907 139.973 129.259 139.695L129.419 139.567C129.553 139.735 129.685 139.902 129.819 140.069ZM32.7531 139.569C33.251 139.965 33.7535 140.354 34.2603 140.738L34.3011 140.769L33.9144 141.281C33.3884 140.884 32.8689 140.481 32.3536 140.071C32.3536 140.071 32.6987 139.526 32.7531 139.569ZM132.862 137.521C132.411 137.918 131.955 138.31 131.497 138.697L131.356 138.814L130.944 138.322C131.048 138.235 131.151 138.148 131.254 138.061C131.597 137.771 131.937 137.478 132.274 137.183L132.438 137.039C132.579 137.2 132.721 137.36 132.862 137.521ZM29.7443 137.05C30.2213 137.469 30.703 137.884 31.1896 138.292L31.2202 138.318L30.8081 138.81C30.6823 138.704 30.5568 138.598 30.4316 138.492C30.0583 138.175 29.6878 137.855 29.3201 137.531L29.7271 137.035C29.7329 137.04 29.7386 137.045 29.7443 137.05ZM135.773 134.822C135.313 135.271 134.846 135.714 134.375 136.152L134.335 136.19L133.898 135.719C134.376 135.275 134.85 134.825 135.318 134.369C135.318 134.369 135.594 134.639 135.773 134.822ZM26.8674 134.384C27.3226 134.827 27.7827 135.265 28.2479 135.697L27.8304 136.185C27.3536 135.743 26.8843 135.296 26.4195 134.844L26.3919 134.817L26.84 134.358C26.8491 134.367 26.8583 134.375 26.8674 134.384ZM138.544 131.98C138.103 132.456 137.656 132.926 137.204 133.39L137.176 133.419L136.717 132.97C137.169 132.507 137.616 132.037 138.057 131.562L138.074 131.544C138.23 131.689 138.387 131.835 138.544 131.98ZM24.1282 131.578C24.5605 132.043 24.9982 132.503 25.4411 132.958L24.9885 133.414C24.5385 132.953 24.0959 132.486 23.6579 132.015L23.6207 131.975L24.0913 131.539C24.1036 131.552 24.1159 131.565 24.1282 131.578ZM21.5322 128.637C21.9169 129.095 22.3064 129.549 22.7007 129.998L22.7712 130.078L22.2895 130.502C21.8933 130.052 21.5007 129.596 21.1133 129.136L20.9961 128.997L21.4881 128.585C21.5028 128.602 21.5175 128.62 21.5322 128.637ZM141.169 129.002C140.749 129.504 140.323 129.999 139.891 130.49L139.394 130.083C139.819 129.602 140.238 129.113 140.652 128.62L140.677 128.59C140.841 128.728 141.005 128.865 141.169 129.002ZM19.0852 125.567C19.4467 126.044 19.8132 126.517 20.1849 126.986L20.2432 127.06L19.7409 127.459C19.3693 126.992 19.0031 126.52 18.6418 126.045L18.525 125.89L19.037 125.504C19.0531 125.525 19.0691 125.546 19.0852 125.567ZM143.64 125.896C143.244 126.421 142.84 126.941 142.431 127.456L141.922 127.065C142.322 126.564 142.713 126.059 143.098 125.55L143.128 125.509C143.299 125.638 143.47 125.767 143.64 125.896ZM145.952 122.669C145.581 123.216 145.203 123.758 144.818 124.296L144.295 123.923C144.666 123.406 145.031 122.882 145.389 122.355L145.422 122.309C145.599 122.429 145.775 122.549 145.952 122.669ZM16.7928 122.374C17.1303 122.869 17.4731 123.361 17.8212 123.849L17.8707 123.918L17.3488 124.291C17.0021 123.807 16.6617 123.32 16.326 122.828L16.2137 122.663L16.7446 122.303C16.7607 122.326 16.7767 122.35 16.7928 122.374ZM148.098 119.329C147.774 119.863 147.444 120.392 147.107 120.918L147.046 121.013L146.506 120.666C146.851 120.129 147.189 119.588 147.521 119.043L147.549 118.996C147.732 119.107 147.915 119.218 148.098 119.329ZM14.6608 119.062C14.9735 119.575 15.2915 120.085 15.6152 120.59L15.6599 120.66L15.1198 121.007C14.798 120.505 14.4823 120.001 14.1717 119.493L14.0684 119.323L14.6169 118.99C14.6315 119.014 14.6462 119.038 14.6608 119.062ZM150.072 115.885C149.758 116.466 149.437 117.042 149.109 117.615L148.55 117.3C148.625 117.168 148.701 117.036 148.776 116.904C149.016 116.478 149.253 116.05 149.486 115.619L149.507 115.58C149.695 115.682 149.883 115.783 150.072 115.885ZM12.6949 115.639C12.9817 116.168 13.2743 116.694 13.5726 117.217L13.6167 117.295L13.0598 117.613C12.7627 117.094 12.4709 116.571 12.1847 116.044L12.0951 115.879L12.6598 115.574C12.6715 115.596 12.6832 115.617 12.6949 115.639ZM10.9006 112.109C11.1609 112.654 11.427 113.196 11.6992 113.735L11.747 113.83L11.1745 114.12C10.8832 113.545 10.5989 112.967 10.3213 112.385L10.2991 112.338L10.8787 112.063C10.886 112.078 10.8933 112.094 10.9006 112.109ZM151.868 112.345C151.587 112.936 151.298 113.523 151.002 114.107L150.42 113.836C150.713 113.258 150.999 112.675 151.279 112.089C151.279 112.089 151.638 112.236 151.868 112.345ZM153.482 108.718C153.234 109.313 152.98 109.905 152.719 110.494L152.697 110.542L152.112 110.281C152.349 109.747 152.581 109.208 152.807 108.668L152.889 108.472C153.086 108.554 153.284 108.636 153.482 108.718ZM9.28378 108.478C9.53109 109.073 9.78528 109.665 10.0466 110.254L9.46943 110.535C9.40418 110.389 9.33964 110.242 9.27525 110.095C9.07649 109.64 8.88174 109.183 8.691 108.724L9.27862 108.466C9.28034 108.47 9.28206 108.474 9.28378 108.478ZM154.908 105.014C154.71 105.57 154.506 106.123 154.295 106.675L154.219 106.875L153.619 106.645C153.673 106.507 153.725 106.37 153.777 106.233C153.952 105.769 154.123 105.305 154.289 104.839L154.304 104.798C154.505 104.87 154.707 104.942 154.908 105.014ZM7.88827 104.86C8.09356 105.434 8.30516 106.005 8.52315 106.574L8.54781 106.638L7.94886 106.868C7.73411 106.31 7.52552 105.748 7.32274 105.185L7.25928 105.007L7.86382 104.792C7.872 104.814 7.88017 104.837 7.88827 104.86ZM156.144 101.241C155.97 101.822 155.789 102.401 155.601 102.978L155.55 103.135L154.94 102.936C155.125 102.375 155.302 101.811 155.472 101.246L155.53 101.057C155.734 101.118 155.939 101.18 156.144 101.241ZM6.67081 101.158C6.84777 101.744 7.03119 102.328 7.22121 102.91L6.61746 103.129C6.42321 102.536 6.23671 101.94 6.05623 101.343L6.02382 101.234L6.63847 101.05C6.64922 101.086 6.65998 101.122 6.67081 101.158ZM5.60879 97.2633C5.75579 97.8618 5.90945 98.4585 6.06985 99.0536L6.09796 99.1574L5.47858 99.3254C5.3067 98.6914 5.14228 98.0545 4.98547 97.4159C4.98547 97.4159 5.59008 97.1865 5.60879 97.2633ZM157.186 97.4108C157.03 98.0462 156.866 98.6795 156.696 99.3111L156.07 99.164C156.234 98.5636 156.389 97.9591 156.539 97.3533L156.562 97.2579C156.77 97.3088 156.978 97.3598 157.186 97.4108ZM4.76842 93.4051C4.88558 94.0154 5.00949 94.6233 5.14006 95.2296L5.16258 95.3332L4.53545 95.4694C4.3952 94.8235 4.26276 94.1753 4.13806 93.5256C4.13806 93.5256 4.72267 93.1649 4.76842 93.4051ZM158.031 93.532C157.907 94.1753 157.776 94.8169 157.637 95.457L157.006 95.3398C157.139 94.7282 157.265 94.113 157.384 93.4968L157.4 93.4111C157.611 93.4514 157.821 93.4917 158.031 93.532ZM158.678 89.6152C158.594 90.216 158.503 90.8157 158.406 91.4145L158.379 91.5777L157.746 91.4731C157.768 91.3421 157.788 91.2111 157.81 91.0801C157.883 90.6165 157.953 90.1524 158.019 89.6877L158.042 89.5268C158.254 89.5563 158.465 89.5857 158.678 89.6152ZM4.13792 89.5945C4.22511 90.214 4.31933 90.8325 4.42051 91.4499L3.79001 91.5707C3.76341 91.4098 3.7376 91.2489 3.71193 91.0879C3.63821 90.6203 3.5683 90.1522 3.50233 89.6835L3.49187 89.6081L4.12752 89.5196C4.13097 89.5446 4.13448 89.5695 4.13792 89.5945ZM159.124 85.671C159.07 86.2941 159.007 86.9165 158.938 87.5382L158.926 87.6457L158.288 87.574C158.358 86.9495 158.422 86.3249 158.477 85.7004L158.485 85.6143C158.698 85.6337 158.911 85.6523 159.124 85.671ZM3.69465 85.724C3.74771 86.3134 3.80708 86.9021 3.87262 87.4901L3.88122 87.5668L3.24355 87.6385C3.17371 87.0212 3.11126 86.4009 3.05547 85.7807L3.04508 85.6638L3.68439 85.6072C3.68783 85.6459 3.69128 85.6853 3.69465 85.724ZM159.372 81.7093C159.349 82.341 159.317 82.9727 159.278 83.6045L159.273 83.6912L158.633 83.6518C158.672 83.0272 158.703 82.4005 158.728 81.7738L158.731 81.6849C158.945 81.6928 159.159 81.7014 159.372 81.7093ZM3.44346 81.7975C3.46713 82.3948 3.4971 82.9921 3.53353 83.5887L3.53697 83.6446L2.8965 83.6841C2.85778 83.0652 2.82681 82.4436 2.80214 81.8226L2.79755 81.7021L3.43888 81.6778C3.44038 81.7179 3.44189 81.7581 3.44346 81.7975ZM3.39005 77.7412C3.38302 78.3141 3.38201 78.8892 3.38718 79.4635L3.39005 79.7102L2.74829 79.7181C2.74069 79.0971 2.74019 78.4769 2.74679 77.8566L2.74829 77.7333C2.96219 77.7355 3.17615 77.7383 3.39005 77.7412ZM159.423 77.8566C159.43 78.4769 159.429 79.0971 159.422 79.7181L158.78 79.7102C158.786 79.1351 158.788 78.5615 158.783 77.9871L158.78 77.7412L159.422 77.7333C159.422 77.7742 159.423 77.8158 159.423 77.8566ZM159.277 73.8218C159.314 74.4234 159.344 75.025 159.368 75.6273L159.372 75.7478L158.731 75.7722C158.707 75.1362 158.675 74.4987 158.637 73.8613L158.633 73.8061L159.273 73.7659C159.275 73.7846 159.276 73.8032 159.277 73.8218ZM3.53675 73.7996C3.49789 74.4241 3.46648 75.0501 3.44182 75.6768L3.43837 75.7665L2.79712 75.7421C2.82107 75.1089 2.85255 74.4772 2.89084 73.8462L2.89622 73.7595C3.10975 73.7731 3.32322 73.7867 3.53675 73.7996ZM158.935 69.8881C159.001 70.4811 159.061 71.0748 159.114 71.6693L159.125 71.7861L158.485 71.8428C158.43 71.2154 158.367 70.5872 158.297 69.9598L158.289 69.8838L158.926 69.8114C158.929 69.8372 158.932 69.863 158.935 69.8881ZM3.88144 69.8774C3.81124 70.4998 3.74814 71.1243 3.69199 71.7503L3.68439 71.8363L3.04508 71.7804C3.10014 71.1559 3.1626 70.5342 3.23172 69.9125L3.2437 69.8057C3.4563 69.8293 3.66883 69.8537 3.88144 69.8774ZM158.382 65.8964C158.485 66.5187 158.579 67.1419 158.667 67.7664L158.678 67.8424L158.042 67.9306C157.953 67.2853 157.854 66.6421 157.749 66.0003L158.38 65.8799C158.381 65.8849 158.381 65.8906 158.382 65.8964ZM4.42381 65.9781C4.40222 66.1086 4.38107 66.2398 4.36006 66.3703C4.28635 66.8342 4.21651 67.2982 4.15054 67.7628L4.12788 67.9241L3.4923 67.836C3.57576 67.2351 3.6669 66.6349 3.76398 66.0362L3.79066 65.8734C4.00168 65.9085 4.21278 65.943 4.42381 65.9781ZM157.657 62.0853C157.788 62.6969 157.914 63.31 158.031 63.9245L157.401 64.0457C157.286 63.4369 157.16 62.8281 157.03 62.2208L157.007 62.1168L157.634 61.9806C157.642 62.0157 157.649 62.0501 157.657 62.0853ZM5.16351 62.1111C5.12909 62.2688 5.09546 62.4266 5.06198 62.5843C4.96611 63.0404 4.87397 63.4964 4.78563 63.9539L4.76906 64.0399L4.13878 63.9195C4.26226 63.2748 4.39355 62.6338 4.53237 61.9935C4.53237 61.9935 4.91498 62.0573 5.16351 62.1111ZM156.719 58.229C156.881 58.8292 157.036 59.4308 157.184 60.0345L156.564 60.1987C156.417 59.5957 156.261 58.9955 156.1 58.3968L156.072 58.2928L156.691 58.125C156.701 58.1594 156.71 58.1946 156.719 58.229ZM6.09932 58.2871C6.05702 58.4427 6.01543 58.5983 5.97406 58.7532C5.85589 59.2006 5.74137 59.6488 5.63059 60.0969L5.607 60.1937L4.98375 60.0403C5.13956 59.405 5.30326 58.7711 5.47442 58.1394C5.47442 58.1394 5.85445 58.2204 6.09932 58.2871ZM155.558 54.3405C155.75 54.9277 155.935 55.5164 156.113 56.108L156.146 56.2155L155.531 56.4005C155.345 55.7789 155.15 55.1579 154.948 54.5398L155.552 54.3218C155.554 54.3276 155.556 54.334 155.558 54.3405ZM7.22902 54.5154C7.1883 54.6402 7.14793 54.765 7.1077 54.889C6.96723 55.3264 6.83035 55.7652 6.69712 56.2048L6.64012 56.3941L6.0254 56.2098C6.19971 55.629 6.38083 55.0496 6.56805 54.4724L6.61918 54.3161C6.82246 54.3828 7.02574 54.4487 7.22902 54.5154ZM154.245 50.6463C154.466 51.2199 154.679 51.7957 154.886 52.3743L154.91 52.4432L154.306 52.659C154.106 52.0983 153.9 51.5397 153.688 50.9833L153.622 50.8126L154.221 50.5817C154.229 50.6032 154.238 50.6248 154.245 50.6463ZM8.54989 50.8069C8.31979 51.4049 8.09658 52.0072 7.88046 52.6117L7.86583 52.6526L7.26122 52.4374C7.30482 52.3148 7.34877 52.1929 7.39294 52.0703C7.54997 51.6372 7.71045 51.2056 7.87451 50.7753L7.95094 50.5767C8.15057 50.6534 8.35027 50.7302 8.54989 50.8069ZM152.71 46.9356C152.973 47.5293 153.229 48.1266 153.479 48.726L152.891 48.9842C152.831 48.84 152.771 48.6959 152.71 48.5518C152.518 48.0986 152.322 47.6462 152.123 47.1966L152.7 46.9148C152.703 46.9219 152.707 46.9284 152.71 46.9356ZM10.0581 47.17C9.80515 47.7387 9.55884 48.3123 9.31856 48.8881L9.2807 48.9791L8.68806 48.7332C8.92039 48.1739 9.15938 47.616 9.40439 47.061L9.47179 46.909C9.66719 46.9965 9.86265 47.0833 10.0581 47.17ZM151.043 43.4249C151.318 43.9692 151.586 44.5155 151.848 45.0655L151.871 45.1121L151.291 45.3875C151.04 44.8597 150.784 44.3363 150.521 43.8157L150.423 43.6207L150.995 43.3303C151.011 43.3618 151.027 43.3934 151.043 43.4249ZM11.7496 43.6149C11.6781 43.7562 11.6072 43.8975 11.5365 44.038C11.3177 44.4768 11.1024 44.9185 10.8908 45.3617L10.3017 45.1064C10.583 44.5141 10.8721 43.9276 11.1677 43.3439C11.1677 43.3439 11.5233 43.5002 11.7496 43.6149ZM149.154 39.9143C149.455 40.442 149.75 40.9719 150.039 41.5061L150.074 41.5714L149.51 41.8761C149.23 41.3591 148.944 40.8428 148.653 40.3309L148.553 40.1559L149.11 39.8368C149.124 39.8627 149.139 39.8885 149.154 39.9143ZM13.6195 40.1509C13.544 40.2821 13.469 40.4148 13.3942 40.5467C13.1541 40.9719 12.9173 41.4007 12.6841 41.8309L12.6627 41.8711L12.0979 41.5663C12.1772 41.4194 12.2571 41.2724 12.3373 41.1261C12.5747 40.6937 12.8158 40.2635 13.0606 39.8354C13.0606 39.8354 13.3971 40.0233 13.6195 40.1509ZM147.094 36.5133C147.421 37.0239 147.742 37.5373 148.057 38.0543L148.101 38.1274L147.553 38.4601C147.245 37.9546 146.933 37.4527 146.615 36.9543L146.51 36.7901L147.05 36.4438C147.065 36.4667 147.08 36.4904 147.094 36.5133ZM15.6632 36.7851C15.3186 37.3222 14.9808 37.8628 14.6491 38.4071L14.62 38.4551L14.0715 38.1217C14.1402 38.0084 14.2093 37.8958 14.2785 37.7825C14.5165 37.396 14.7575 37.011 15.0015 36.6281L15.123 36.4388C15.303 36.5542 15.4831 36.6697 15.6632 36.7851ZM144.87 33.2286C145.221 33.7205 145.567 34.2159 145.907 34.7157L145.956 34.7874L145.425 35.1474C145.346 35.0312 145.266 34.9143 145.186 34.7982C144.932 34.4275 144.674 34.0596 144.413 33.6932L144.299 33.5326L144.821 33.159C144.837 33.182 144.854 33.2056 144.87 33.2286ZM17.874 33.5276C17.5018 34.0467 17.1383 34.5687 16.7802 35.095L16.748 35.1424L16.217 34.7824C16.5879 34.2353 16.9669 33.6932 17.3518 33.1547C17.3518 33.1547 17.6653 33.3784 17.874 33.5276ZM142.487 30.065C142.862 30.5375 143.232 31.015 143.596 31.4955L143.645 31.56L143.133 31.9465C142.778 31.4768 142.419 31.0129 142.054 30.5518L141.927 30.3905L142.429 29.9911C142.448 30.0155 142.468 30.0406 142.487 30.065ZM20.2467 30.3862C20.1516 30.5052 20.0569 30.6257 19.9624 30.7454C19.6626 31.1276 19.3654 31.5127 19.0716 31.9006L19.0407 31.9415L18.5286 31.555C18.9259 31.0287 19.3293 30.5095 19.7386 29.994C19.7386 29.994 20.0464 30.2263 20.2467 30.3862ZM139.95 27.0283C140.348 27.4815 140.741 27.9389 141.129 28.4L141.174 28.4531L140.681 28.8654C140.306 28.4172 139.927 27.9748 139.542 27.536L139.398 27.3718L139.88 26.948C139.904 26.9745 139.928 27.0018 139.95 27.0283ZM22.775 27.3674C22.6711 27.485 22.5678 27.6034 22.4646 27.7217C22.1462 28.0881 21.8303 28.4574 21.5178 28.8302L21.492 28.8603L21 28.4488C21.1054 28.3226 21.2114 28.1971 21.3176 28.0716C21.6346 27.6987 21.9549 27.328 22.2785 26.9602C22.2785 26.9602 22.5849 27.1997 22.775 27.3674ZM137.188 24.044C137.634 24.5029 138.075 24.9661 138.511 25.435L138.549 25.4752L138.078 25.9119C137.634 25.4321 137.183 24.9596 136.728 24.4921C136.728 24.4921 137.14 23.9945 137.188 24.044ZM25.452 24.4806C24.9995 24.9446 24.5538 25.4135 24.1129 25.8882L23.6247 25.4709C24.065 24.9955 24.513 24.5251 24.9658 24.0597L24.9926 24.0325C25.1458 24.1816 25.2989 24.3308 25.452 24.4806ZM134.358 21.2826C134.827 21.7186 135.291 22.1596 135.75 22.6063L135.778 22.6335L135.33 23.0924C134.865 22.6393 134.396 22.194 133.922 21.753L134.339 21.2654C134.345 21.2711 134.352 21.2769 134.358 21.2826ZM28.271 21.7315C28.0386 21.9473 27.8077 22.1646 27.578 22.3818C27.3344 22.6142 27.0922 22.8472 26.8514 23.0817L26.3961 22.6292C26.8573 22.1789 27.3237 21.7365 27.7948 21.2984L27.8347 21.2611C27.9801 21.4181 28.1256 21.5752 28.271 21.7315ZM131.393 18.6661C131.883 19.0784 132.368 19.4957 132.85 19.9188L132.442 20.4157C131.96 19.9898 131.472 19.5718 130.98 19.158L130.949 19.1329L131.362 18.6403C131.372 18.6489 131.382 18.6575 131.393 18.6661ZM31.2248 19.1286C30.7767 19.5036 30.3344 19.8837 29.8958 20.2673L29.7314 20.4114L29.3073 19.9303C29.7584 19.533 30.2138 19.1408 30.6733 18.7536L30.8127 18.6367C30.95 18.8009 31.0874 18.9644 31.2248 19.1286ZM128.296 16.2002C128.808 16.5874 129.314 16.9804 129.816 17.379L129.424 17.8874C128.924 17.4887 128.418 17.098 127.909 16.7122L127.868 16.6813L128.255 16.1694C128.269 16.1794 128.283 16.1895 128.296 16.2002ZM34.306 16.6778C34.1952 16.7609 34.0847 16.8448 33.9743 16.9294C33.6174 17.2019 33.2632 17.4773 32.9112 17.7555L32.7498 17.8838L32.3505 17.3812C32.818 17.0098 33.2895 16.6433 33.7649 16.282L33.9191 16.1651C34.0481 16.3357 34.177 16.5071 34.306 16.6778ZM125.075 13.8899C125.607 14.2513 126.133 14.6184 126.655 14.992L126.282 15.5147C125.765 15.1433 125.242 14.779 124.715 14.4205L124.667 14.3882L125.028 13.8576C125.044 13.8684 125.06 13.8791 125.075 13.8899ZM37.5069 14.3847C37.3903 14.4643 37.2739 14.5438 37.1576 14.6234C36.7867 14.8787 36.4186 15.1361 36.0525 15.3964L35.8918 15.5111L35.5183 14.9891C36.0023 14.6428 36.4901 14.3022 36.9813 13.9666L37.1464 13.854C37.2666 14.0312 37.3867 14.2083 37.5069 14.3847ZM121.736 11.7409C122.253 12.0564 122.767 12.3769 123.277 12.7032L123.372 12.7634L123.025 13.3034C122.488 12.9599 121.948 12.6214 121.403 12.2895L121.355 12.2608L121.688 11.7122C121.705 11.7216 121.72 11.7316 121.736 11.7409ZM40.8196 12.2572C40.6993 12.3303 40.5791 12.4042 40.459 12.4773C40.075 12.7139 39.6936 12.9527 39.3141 13.1951L39.1497 13.3005L38.803 12.7598C39.304 12.4386 39.8088 12.1224 40.3167 11.8119L40.4864 11.7087C40.5974 11.8915 40.7085 12.0743 40.8196 12.2572ZM118.284 9.75973C118.851 10.0673 119.414 10.3807 119.974 10.7012L119.66 11.2598C119.103 10.9407 118.542 10.6295 117.979 10.3248L117.939 10.3032L118.244 9.73822C118.257 9.74539 118.271 9.75256 118.284 9.75973ZM44.2357 10.3004C43.7169 10.58 43.2022 10.8661 42.6902 11.1572L42.515 11.2569L42.1962 10.7005C42.716 10.4029 43.2392 10.1111 43.7653 9.82498L43.9308 9.73535C44.0324 9.92393 44.1341 10.1118 44.2357 10.3004ZM114.724 7.95206C115.308 8.23027 115.889 8.51566 116.466 8.80821L116.195 9.38973C115.618 9.09646 115.034 8.81108 114.448 8.53143L114.704 7.94202C114.711 7.94561 114.717 7.94848 114.724 7.95206ZM47.7467 8.51924C47.6291 8.57517 47.5115 8.6311 47.3941 8.68775C46.9856 8.88493 46.5797 9.08499 46.1752 9.28863L45.9797 9.38758L45.6897 8.81466C46.2647 8.52354 46.843 8.23959 47.4246 7.96138L47.4711 7.93987C47.5629 8.13276 47.6549 8.32564 47.7467 8.51924ZM111.168 6.36668C111.733 6.60187 112.294 6.84351 112.853 7.09089L112.901 7.1124L112.64 7.69894C112.104 7.46017 111.567 7.22856 111.027 7.00269L110.831 6.92095L111.077 6.32867C111.107 6.34086 111.138 6.35377 111.168 6.36668ZM51.3438 6.9188C51.1995 6.97903 51.0554 7.03926 50.9115 7.0995C50.4581 7.29166 50.006 7.48742 49.5557 7.68675L49.2742 7.10953C49.4207 7.04428 49.5674 6.97975 49.7142 6.91593C50.1696 6.71659 50.6267 6.52228 51.0855 6.33154C51.0855 6.33154 51.246 6.68289 51.3438 6.9188ZM107.414 4.9161C107.992 5.12332 108.568 5.33629 109.142 5.5557L109.234 5.59155L109.004 6.19028C108.405 5.96011 107.803 5.73711 107.198 5.52057L107.157 5.50622L107.372 4.90176C107.386 4.90678 107.4 4.9118 107.414 4.9161ZM55.018 5.50407C54.456 5.70413 53.898 5.91064 53.3425 6.12288L53.1719 6.18813L52.9413 5.5894C53.5002 5.37429 54.0616 5.16563 54.6251 4.96342L54.8026 4.89961C54.8744 5.1011 54.9462 5.30258 55.018 5.50407ZM103.68 3.68995C104.271 3.86778 104.86 4.05278 105.447 4.24423L105.494 4.26L105.294 4.86949C105.17 4.82862 105.046 4.78846 104.921 4.74831C104.483 4.60777 104.045 4.47081 103.605 4.33744L103.416 4.2808L103.6 3.66557C103.626 3.67418 103.653 3.68207 103.68 3.68995ZM58.7596 4.27865C58.1373 4.46579 57.5169 4.66011 56.8994 4.8616L56.6809 4.25785C57.2733 4.06353 57.8693 3.8771 58.467 3.69641L58.575 3.66414C58.6365 3.86921 58.6981 4.07357 58.7596 4.27865ZM99.8656 2.64809C100.469 2.79652 101.07 2.95212 101.67 3.11488L101.523 3.74015C100.92 3.57594 100.317 3.42035 99.7122 3.2712L99.6168 3.24754L99.7695 2.62443C99.8018 2.63231 99.8341 2.6402 99.8656 2.64809ZM62.5583 3.2461C62.4045 3.28339 62.2508 3.32211 62.0972 3.36083C61.6497 3.47341 61.2023 3.58957 60.756 3.71003L60.6521 3.738L60.4842 3.11919C61.1181 2.9471 61.7551 2.78289 62.3938 2.62586C62.3938 2.62586 62.4977 2.99801 62.5583 3.2461ZM95.9771 1.79624C96.5916 1.91455 97.2047 2.04004 97.8163 2.17269L97.6987 2.8044C97.0849 2.67032 96.4711 2.54483 95.8559 2.42581L95.7699 2.40931L95.891 1.77903C95.9197 1.78477 95.9484 1.7905 95.9771 1.79624ZM66.4051 2.4086C66.1 2.46668 65.7952 2.52763 65.4903 2.58929C65.0618 2.67677 64.4764 2.80297 64.4764 2.80297L64.3402 2.17556C64.9862 2.03573 65.6344 1.90308 66.284 1.77832C66.284 1.77832 66.357 2.1562 66.4051 2.4086ZM92.019 1.13943C92.6435 1.22691 93.2674 1.32156 93.8898 1.42338L93.9364 1.43127L93.8317 2.06442C93.2373 1.96618 92.6428 1.87583 92.047 1.79122L91.8856 1.76828L91.9738 1.13298C91.9889 1.13513 92.0039 1.13728 92.019 1.13943ZM70.2899 1.76756C70.1486 1.78764 70.0073 1.80771 69.8661 1.82779C69.3632 1.90093 68.8611 1.97837 68.3597 2.06083L68.2389 1.43055C68.3997 1.40402 68.5607 1.3782 68.7217 1.35239C69.1893 1.27854 69.6574 1.20898 70.1261 1.14301L70.2014 1.13226C70.231 1.34379 70.2605 1.55603 70.2899 1.76756ZM88.1161 0.693428C88.7106 0.746489 89.3043 0.806004 89.8973 0.871972L90.0048 0.884162L89.9324 1.52233C89.3079 1.45134 88.684 1.38896 88.0595 1.33231L87.9734 1.32514L88.0301 0.685541C88.0588 0.688409 88.0874 0.69056 88.1161 0.693428ZM74.2019 1.32443C73.5731 1.38036 72.9456 1.44274 72.3189 1.51301L72.243 1.52161L72.1709 0.884162C72.7886 0.813892 73.4088 0.751509 74.0284 0.695579L74.146 0.685541C74.1646 0.898503 74.1833 1.11146 74.2019 1.32443ZM84.1573 0.441029C84.7596 0.464691 85.362 0.494807 85.9636 0.531376L86.0503 0.537113L86.0102 1.17743C85.3835 1.13871 84.7589 1.10716 84.1329 1.08278L84.044 1.0792L84.0684 0.437444C84.0978 0.438878 84.1279 0.440312 84.1573 0.441029ZM78.132 1.0792C77.4931 1.10358 76.8564 1.13513 76.2204 1.17385L76.1652 1.17743L76.125 0.537113C76.7445 0.498392 77.3655 0.466842 77.9872 0.442463L78.1076 0.438161C78.1155 0.65184 78.1234 0.865519 78.132 1.0792ZM81.2089 0.382948C81.4985 0.383665 81.7875 0.3851 82.0772 0.388685L82.0707 1.03044C81.9065 1.02829 81.7416 1.02685 81.5774 1.02614C81.0848 1.02327 80.5915 1.0247 80.0989 1.03044L80.0924 0.388685C80.4638 0.384382 80.8367 0.382231 81.2089 0.382948Z" fill="#9BC3D3"/>
<path fill-rule="evenodd" clip-rule="evenodd" d="M50.2499 10.1131C51.7751 10.1339 53.0184 8.9042 53.0184 7.38335C53.0184 5.87541 51.7966 4.65356 50.2886 4.65356C48.7678 4.65356 47.5381 5.89692 47.5589 7.42207C47.5796 8.87193 48.8001 10.0931 50.2499 10.1131ZM78.9755 157.389L82.5851 160.355L85.5501 156.747L81.9405 153.781L78.9755 157.389Z" fill="#F6C854"/>
<path fill-rule="evenodd" clip-rule="evenodd" d="M118.895 13.1814C120.382 13.1814 121.588 11.984 121.588 10.5068C121.588 9.02974 120.382 7.83228 118.895 7.83228C117.408 7.83228 116.202 9.02974 116.202 10.5068C116.202 11.984 117.408 13.1814 118.895 13.1814ZM16.9183 117.708L13.3091 114.743L10.3438 118.352L13.953 121.317L16.9183 117.708Z" fill="#1BB3BC"/>
<path fill-rule="evenodd" clip-rule="evenodd" d="M4.53906 57.0259H9.03564V52.5293H4.53906V57.0259Z" fill="#EC0000"/>
<path fill-rule="evenodd" clip-rule="evenodd" d="M150.332 111.84H154.829V107.343H150.332V111.84Z" fill="#9E3667"/>
<path fill-rule="evenodd" clip-rule="evenodd" d="M151.219 42.3435L154.828 45.3099L151.863 48.9181L148.254 45.9524L151.219 42.3435Z" fill="#767676"/>
<path fill-rule="evenodd" clip-rule="evenodd" d="M5.98656 83.9351C5.98656 85.4122 4.78121 86.6096 3.29406 86.6096C1.80691 86.6096 0.601562 85.4122 0.601562 83.9351C0.601562 82.458 1.80691 81.2605 3.29406 81.2605C4.78121 81.2605 5.98656 82.458 5.98656 83.9351Z" fill="#D39E00"/>
<path fill-rule="evenodd" clip-rule="evenodd" d="M95.6141 144.061H105.289L109.07 140.308L108.395 144.061H109.655L111.185 139.673L109.858 135.328L102.847 140.758C102.4 141.105 101.817 141.259 101.269 141.12C100.796 141.001 100.428 140.688 100.849 139.913L100.048 140.345C99.3137 140.74 98.5478 141.077 97.7599 141.351L95.7722 142.04C94.8837 142.347 94.756 143.572 95.574 144.038L95.6141 144.061Z" fill="#EC0000"/>
<path fill-rule="evenodd" clip-rule="evenodd" d="M103.947 131.408V131.407L109.191 130.506L109.496 132.945L112.403 132.446L113.16 138.48L105.688 144.043L102.966 142.685L105.236 140.556C105.664 140.154 106.034 139.706 106.343 139.224L102.476 142.103L99.7536 140.746L102.023 138.616C103.979 136.778 104.726 133.981 103.947 131.408Z" fill="#FFC4B8"/>
<path fill-rule="evenodd" clip-rule="evenodd" d="M98.829 146H108.504L112.285 142.247L111.61 146H112.87L114.4 141.612L113.072 137.267L106.062 142.697C105.615 143.044 105.032 143.199 104.484 143.059C104.011 142.941 103.643 142.627 104.063 141.853L103.263 142.285C102.529 142.68 101.763 143.017 100.975 143.29L98.987 143.979C98.0986 144.286 97.9708 145.511 98.7889 145.977L98.829 146Z" fill="#EC0000"/>
<path fill-rule="evenodd" clip-rule="evenodd" d="M96.2422 75.6553L98.1582 106.573L104.004 134.566C104.581 134.583 110.058 133.56 110.058 133.56C110.058 133.56 108.702 117.424 108.115 109.61C107.939 107.266 108.078 104.911 108.531 102.606L113.748 75.9945L96.2422 75.6553Z" fill="#137E84"/>
<path fill-rule="evenodd" clip-rule="evenodd" d="M99.457 75.6553L101.373 106.573L107.219 136.505C107.796 136.522 113.273 135.5 113.273 135.5C113.273 135.5 111.917 117.424 111.329 109.61C111.154 107.266 111.293 104.911 111.746 102.606L116.962 75.9945L99.457 75.6553Z" fill="#1BB3BC"/>
<path fill-rule="evenodd" clip-rule="evenodd" d="M114.935 26.445L114.995 26.4751C117.623 23.8489 117.615 19.5766 114.977 16.9405C112.583 14.5492 108.843 14.3203 106.206 16.2587C105.81 16.512 105.453 16.834 105.154 17.2189C104.255 18.2317 103.716 19.4527 103.536 20.7164L103.534 20.7169L103.539 20.7192L101.73 26.3888L102.742 26.6144C102.657 27.2628 102.862 28.2204 103.071 28.9719C103.434 30.2704 104.703 31.105 106.045 30.9139C106.154 30.8989 106.266 30.8789 106.381 30.8523C106.535 30.8208 106.694 30.7775 106.861 30.7243C106.871 30.721 106.883 30.7176 106.895 30.7143L106.321 31.7003L104.488 34.856C103.594 36.3958 104.632 38.3343 106.416 38.4587C106.473 38.4654 106.532 38.4703 106.589 38.4753C106.709 38.4869 106.831 38.4921 106.953 38.4921C107.388 38.4953 107.839 38.4371 108.292 38.314C108.608 38.2293 108.915 38.1145 109.209 37.9749C109.217 37.9699 109.224 37.9665 109.233 37.9632C110.342 37.4312 111.184 36.4719 111.61 35.3231L114.406 27.7882L114.853 26.5878L114.845 26.5911C114.876 26.5429 114.906 26.4942 114.935 26.445Z" fill="#FFC4B8"/>
<path fill-rule="evenodd" clip-rule="evenodd" d="M111.109 28.9191C109.222 30.3174 107.634 31.1786 106.32 31.6891L106.894 30.7031C108.139 30.349 109.341 29.8602 110.48 29.245L111.089 28.9158L111.109 28.9191ZM102.741 26.6029L103.491 23.5386C103.491 23.5386 104.343 25.8156 102.741 26.6029Z" fill="#F4A48D"/>
<path fill-rule="evenodd" clip-rule="evenodd" d="M103.667 20.1959L103.666 20.2035L103.56 20.5351C103.556 20.2187 103.574 19.9026 103.611 19.5892C103.619 19.5229 103.628 19.4566 103.638 19.3908C103.792 18.3383 104.177 17.321 104.776 16.4184C105.27 15.6726 105.911 15.0049 106.691 14.4601C110.021 12.1335 114.619 12.9293 116.96 16.2375C117.125 16.47 117.274 16.709 117.408 16.9529C117.899 16.4597 118.58 16.1542 119.334 16.1542C120.83 16.1542 122.043 17.3597 122.043 18.8464C122.043 20.3333 120.83 21.5386 119.334 21.5386C118.948 21.5386 118.581 21.4586 118.249 21.3145C118.056 22.9273 117.327 24.4713 116.111 25.6618C115.825 25.9426 115.511 26.204 115.17 26.4414C115.033 26.5378 114.892 26.629 114.75 26.7147L114.92 26.2587L114.912 26.262C115.151 25.8915 115.327 25.4923 115.437 25.0797C115.735 24.9477 116.022 24.6951 116.231 24.3513C116.656 23.6524 116.597 22.8396 116.098 22.5375C115.866 22.3963 115.578 22.3914 115.295 22.4974C115.203 22.2637 115.09 22.0362 114.954 21.8179L114.529 21.1329L113.92 20.1551C113.976 20.636 113.916 21.1047 113.696 21.5386C112.936 23.0336 107.166 17.3462 107.166 17.3462L106.968 17.9226C106.373 19.7061 103.991 20.1442 103.667 20.1959Z" fill="#EC0000"/>
<path fill-rule="evenodd" clip-rule="evenodd" d="M81.7544 65.4569L83.8003 70.2898C83.8689 70.452 84.0558 70.5255 84.2148 70.4503C86.2498 69.4895 99.5327 64.7277 104.277 57.5787L99.7001 49.3345C99.7001 49.3345 96.2586 58.9467 81.7544 65.4569Z" fill="#D39E00"/>
<path fill-rule="evenodd" clip-rule="evenodd" d="M104.766 36.7959L98.7198 46.6846C97.4987 48.6814 96.965 51.0526 97.3438 53.3663C97.4073 53.7484 97.6754 54.939 97.7523 55.3505C98.1305 57.3853 98.7259 61.7069 97.8124 66.7745C97.0657 70.9119 95.4451 79.577 95.8479 82.8253C95.8479 82.8253 107.932 85.1652 117.877 81.2671C117.986 79.3978 117.858 72.1279 116.963 66.3784C116.518 63.5305 116.583 60.6245 117.18 57.8044C117.892 54.4454 119.11 47.9793 118.635 41.1336C118.183 34.577 113.769 32.5344 113.769 32.5344L104.766 36.7959Z" fill="#F6C854"/>
<path fill-rule="evenodd" clip-rule="evenodd" d="M98.2644 90.4888C97.6374 90.4888 97.1229 90.9879 97.1013 91.6201L97.0856 92.0704C91.3041 91.9113 86.6116 91.7836 86.6116 91.7836V95.0489L102.624 105.025C102.624 105.025 116.624 98.2047 118.291 97.3348L118.441 92.6816C118.348 92.6681 114.531 92.557 109.571 92.4173L109.582 92.0845L109.583 92.0433C109.582 91.4149 109.087 90.8961 108.457 90.8746L106.914 90.8231L106.873 90.8221C106.248 90.8221 105.731 91.3194 105.71 91.9524L105.698 92.3088C104.14 92.2654 102.539 92.221 100.959 92.1773L100.974 91.7493L100.973 91.7521L100.974 91.71C100.974 91.0796 100.478 90.5628 99.8484 90.5412L98.3028 90.4897H98.3056L98.2644 90.4888ZM107.048 92.1784L108.233 92.218L108.229 92.3796C107.838 92.3686 107.442 92.3576 107.042 92.3464L107.048 92.1784ZM98.4389 91.8459L99.6246 91.8848L99.6162 92.1401C99.2179 92.1291 98.8221 92.1182 98.4299 92.1074L98.4389 91.8459Z" fill="#CEDEE7"/>
<path fill-rule="evenodd" clip-rule="evenodd" d="M86.6135 95.049V112.482L117.783 113.107L118.293 97.335C116.623 98.2061 102.625 105.025 102.625 105.025L86.6135 95.049ZM108.436 92.1798L108.521 88.0409L98.3837 87.6504L98.3087 91.8155L99.6865 91.8783L99.9217 89.2236L106.932 89.4764L107.019 92.1405L108.436 92.1798Z" fill="#9BC3D3"/>
<path fill-rule="evenodd" clip-rule="evenodd" d="M103.629 101.784L103.369 108.77L102.475 109.899L101.814 108.857L102.031 101.784H103.629Z" fill="#CEDEE7"/>
<path fill-rule="evenodd" clip-rule="evenodd" d="M103.786 107.584H101.512V107.034H103.786V107.584ZM103.591 102.788L104.442 102.814L104.504 100.794L101.079 100.689L101.017 102.71L102.001 102.74L102.031 101.785H103.629L103.591 102.788Z" fill="#DEEDF2"/>
<path fill-rule="evenodd" clip-rule="evenodd" d="M81.0188 66.5061L79.2773 67.2433L75.9161 66.8259L73.0727 69.9111C73.0727 69.9111 73.4753 70.5694 74.5816 70.3667L76.1936 69.3043L80.4722 72.2383L82.7656 70.3107L81.0188 66.5061Z" fill="#FFC4B8"/>
<path fill-rule="evenodd" clip-rule="evenodd" d="M76.5321 75.0706C76.7338 74.4981 75.7628 73.6343 74.3653 73.1429C72.9676 72.6515 71.6691 72.7174 71.4676 73.29C71.2659 73.8625 72.2369 74.7263 73.6344 75.2176C75.0321 75.709 76.3306 75.6431 76.5321 75.0706Z" fill="#FFC4B8"/>
<path fill-rule="evenodd" clip-rule="evenodd" d="M107.301 82.2219L105.413 84.3141C105.366 84.3682 105.325 84.4308 105.296 84.4967L104.022 87.363C103.982 87.4535 103.979 87.5557 104.014 87.6487C104.124 87.9368 104.514 87.9757 104.677 87.7137C104.928 87.3098 105.262 86.7741 105.561 86.2949L104.295 89.9548C104.212 90.1965 104.226 90.4601 104.332 90.6908L104.711 91.5088C105.006 92.1443 105.849 92.2736 106.318 91.7547L108.933 88.8664C109.375 88.3788 109.674 87.7788 109.799 87.1315L110.301 84.5229L110.315 84.0201L110.512 83.412L107.301 82.2219Z" fill="#FFC4B8"/>
<path fill-rule="evenodd" clip-rule="evenodd" d="M114.271 37.0441C113.578 35.8153 112.181 35.3256 110.445 35.5667C108.689 35.8097 107.786 37.0356 107.574 38.2488C107.183 40.4803 105.101 46.48 107.414 54.12C108.052 60.7292 105.629 67.0537 105.263 79.3579C105.259 79.4812 105.264 79.6031 105.409 79.6492L110.881 81.3501C112.237 68.3393 114.772 53.7395 114.968 42.6565C114.991 41.3542 115.085 41.1001 115.038 39.9032C115.009 39.1853 114.85 38.0694 114.271 37.0441Z" fill="#D39E00"/>
<path fill-rule="evenodd" clip-rule="evenodd" d="M108.362 55.4336C109.033 62.019 107.282 68.4181 107.305 80.7276C107.305 80.851 107.312 80.9727 107.428 81.0141L111.788 82.5385C116.075 67.1904 115.269 57.2733 115.311 56.6227C116.192 43.0919 114.009 38.4282 113.755 37.8984C113.177 36.6926 111.691 36.1526 110.327 36.4492C108.948 36.7484 108.222 38.3462 108.086 39.5657C107.834 41.8085 106.343 47.8717 108.362 55.4336Z" fill="#F6C854"/>
<path fill-rule="evenodd" clip-rule="evenodd" d="M81.9076 65.8267L80.9342 66.3326L82.8448 70.4935L83.6953 70.0495L81.9076 65.8267Z" fill="white"/>
<path fill-rule="evenodd" clip-rule="evenodd" d="M103.473 38.9524V35.1583L113.289 30.5173L113.766 32.5343L103.473 38.9524Z" fill="white"/>
<path fill-rule="evenodd" clip-rule="evenodd" d="M107.493 81.0371L107.046 82.1282L111.074 83.6214L111.574 82.4642L107.493 81.0371Z" fill="white"/>
<g clip-path="url(#clip0_1487_16166)">
<path fill-rule="evenodd" clip-rule="evenodd" d="M49.8375 137.938V137.388H55.7651C55.871 138.079 58.0692 138.883 58.0692 138.883L61.984 139.762L61.6213 140.317H56.3139L57.7947 140.617L57.2759 141.244H43.6055V139.35V137.938H49.8375Z" fill="#34466B"/>
<path fill-rule="evenodd" clip-rule="evenodd" d="M57.8033 82.7402L58.8048 110.993L56.3191 137.981L51.0222 138.239H49.6004L49.5362 136.812L49.255 134.905L46.8542 108.698L43.5703 82.7402H57.8033Z" fill="#9BC3D3"/>
<path fill-rule="evenodd" clip-rule="evenodd" d="M39.8008 82.7402L43.356 110.606L43.1107 138.471H50.7828L55.0814 110.606L55.7556 82.7402H39.8008Z" fill="#CEDEE7"/>
<path fill-rule="evenodd" clip-rule="evenodd" d="M45.578 26.3866C44.0412 25.2252 43.043 23.3531 43.043 21.2431C43.043 17.7226 45.8219 14.8643 49.2447 14.8643C52.4052 14.8643 55.0167 17.3011 55.3985 20.4461C55.4652 20.7738 55.5138 21.1051 55.5472 21.4363L55.5473 21.4369L55.5483 21.4441L55.5485 21.4467C55.5585 21.5458 55.567 21.6449 55.5743 21.7437L56.0015 26.666L55.0292 27.0007L55.0191 27.003L55.019 27.0031C54.9949 27.0888 54.9815 27.1352 54.9815 27.1352L54.9551 27.801L54.9073 29.0456C54.8908 29.4574 54.8071 29.8609 54.6613 30.2404C54.5594 30.5082 54.4248 30.7647 54.2603 31.0027C54.0671 31.2821 53.8364 31.5328 53.5788 31.7444C53.4445 31.8555 53.3019 31.9546 53.1529 32.0429C53.074 32.0898 52.9953 32.1328 52.9136 32.1732L52.913 32.1735L53.3307 39.9484C53.3307 39.9484 51.124 40.6323 48.7076 40.0896C47.247 39.7644 45.7083 38.9878 44.5345 37.344C44.5345 37.344 45.9238 31.1503 45.578 26.3866Z" fill="#FFC4B8"/>
<path fill-rule="evenodd" clip-rule="evenodd" d="M48.7317 39.9976C47.271 39.6723 45.7324 38.8958 44.5586 37.2519C44.5586 37.2519 46.0613 30.6153 45.5519 25.7923C45.5519 25.7923 48.9703 34.3641 48.7317 39.9976ZM55.0293 27.0285C54.689 27.1312 54.3539 26.8562 54.3761 26.4925L54.5192 24.1479L55.0293 27.0285Z" fill="#F4A48D"/>
<g clip-path="url(#clip1_1487_16166)">
<path fill-rule="evenodd" clip-rule="evenodd" d="M51.5117 18.1072L51.3498 18.071C50.465 17.7984 50.2253 17.266 49.4467 16.603C49.3707 17.4258 49.0598 18.161 48.5864 18.8356L48.596 18.8536C48.9954 19.6931 49.483 21.1822 49.398 21.7502C49.3826 21.8532 49.0824 22.3367 48.7481 22.5629C48.1764 22.9496 47.8619 21.5118 47.861 21.5077C48.0279 21.2678 48.1042 20.8354 48.0425 20.3693L48.0405 20.3549L48.0386 20.3413L48.038 20.3374L48.0365 20.3272L48.0359 20.3232L48.0338 20.3096L48.0314 20.2944L48.0306 20.2894L48.0289 20.2793L48.0279 20.2734L48.0263 20.2643L48.0252 20.258L48.0236 20.2493L48.0224 20.2429L48.0208 20.2344L48.0196 20.2279L48.018 20.2195L48.0167 20.2131L48.015 20.2046L48.0138 20.1983L48.012 20.1896L48.0107 20.1837L48.0087 20.1744L48.0076 20.1691L48.0051 20.1578L48.0044 20.1546L48.0012 20.1402L48.0002 20.1363L47.9978 20.1259L47.9965 20.1205L47.9944 20.1117L47.9929 20.1058L47.9909 20.0975L47.9894 20.0915L47.9873 20.0833L47.9857 20.0773L47.9836 20.0693L47.982 20.0632L47.9799 20.0552L47.9783 20.0493L47.976 20.0412L47.9744 20.0354L47.972 20.027L47.9705 20.0217L47.9678 20.0122L47.9666 20.0081L47.9625 19.9945L47.9619 19.9925L47.9584 19.9811L47.957 19.9764L47.9542 19.9677L47.9526 19.9623L47.95 19.9544L47.9482 19.9488L47.9457 19.9411L47.9438 19.9355L47.9413 19.928L47.9394 19.9223L47.9368 19.9149L47.9349 19.9093L47.9322 19.9018L47.9303 19.8964L47.9276 19.8887L47.9257 19.8836L47.9227 19.8753L47.921 19.8709L47.9169 19.8599L47.9163 19.8583L47.9115 19.8458L47.91 19.8419L47.9067 19.8334L47.9048 19.8286L47.9018 19.8211L47.8997 19.816L47.8968 19.8089L47.8946 19.8036L47.8917 19.7967L47.8895 19.7915L47.8866 19.7846L47.8844 19.7795L47.8814 19.7726L47.8792 19.7676L47.8761 19.7606L47.8739 19.7558L47.8707 19.7485L47.8687 19.7441L47.8647 19.7357L47.8633 19.7326L47.8579 19.7212L47.8566 19.7185L47.8525 19.7099L47.8504 19.7057L47.847 19.6986L47.8447 19.6941L47.8414 19.6875L47.839 19.6828L47.8358 19.6765L47.8333 19.6717L47.8301 19.6656L47.8276 19.6608L47.8243 19.6547L47.8218 19.6501L47.8185 19.6439L47.816 19.6394L47.8125 19.6331L47.8102 19.6289L47.8063 19.622L47.8043 19.6185L47.7984 19.6083L47.798 19.6075L47.7924 19.5981L47.7903 19.5946L47.7864 19.5881L47.7839 19.5841L47.7803 19.5782L47.7777 19.574L47.7742 19.5684L47.7715 19.5641L47.768 19.5587L47.7653 19.5544L47.7618 19.5491L47.759 19.5449L47.7555 19.5396L47.7527 19.5355L47.7491 19.5301L47.7464 19.5262L47.7425 19.5206L47.7401 19.5171L47.7352 19.5103L47.7337 19.5081L47.7273 19.4993L47.7253 19.4965L47.7208 19.4905L47.7182 19.4871L47.7143 19.4819L47.7115 19.4783L47.7078 19.4734L47.7049 19.4697L47.7012 19.4651L47.6982 19.4613L47.6945 19.4568L47.6915 19.4531L47.6878 19.4486L47.6849 19.4451L47.6811 19.4406L47.6781 19.4372L47.6742 19.4326L47.6714 19.4294L47.667 19.4244L47.6646 19.4217L47.6579 19.4143L47.6561 19.4124L47.6511 19.407L47.6483 19.4041L47.6442 19.3998L47.6412 19.3967L47.6373 19.3927L47.6342 19.3895L47.6304 19.3857L47.6272 19.3826L47.6234 19.3789L47.6202 19.3758L47.6164 19.3723L47.6132 19.3692L47.6094 19.3657L47.6061 19.3627L47.6022 19.3592L47.5991 19.3564L47.595 19.3528L47.592 19.3503L47.5869 19.3459L47.5849 19.3443L47.5841 19.3436L47.5779 19.3385L47.575 19.3362L47.5708 19.3328L47.5675 19.3303L47.5636 19.3272L47.5603 19.3247L47.5564 19.3218L47.553 19.3193L47.5492 19.3165L47.5457 19.314L47.542 19.3114L47.5385 19.309L47.5347 19.3064L47.5304 19.3035L47.5298 19.3032L47.5234 19.299L47.5228 19.2986L47.5163 19.2946L47.516 19.2943C47.5091 19.2901 47.5023 19.2861 47.4954 19.2824L47.4951 19.2822L47.4885 19.2786L47.488 19.2783L47.4814 19.2749L47.4809 19.2747L47.4742 19.2713L47.474 19.2713C47.4671 19.2679 47.4601 19.2647 47.4531 19.2618L47.4528 19.2616L47.446 19.2588L47.4456 19.2587L47.4388 19.256L47.4385 19.2559C47.4292 19.2524 47.4198 19.2492 47.4103 19.2465L47.4101 19.2464L47.4032 19.2445L47.4029 19.2444L47.3959 19.2426L47.3959 19.2426C47.3864 19.2402 47.3768 19.2383 47.3673 19.2367L47.3672 19.2367L47.3601 19.2356L47.36 19.2356C47.348 19.234 47.3361 19.233 47.3241 19.2326C47.2946 19.2319 47.265 19.2352 47.2357 19.2428C46.9013 19.3303 46.716 19.9502 46.8222 20.6263C46.8592 20.8617 46.9266 21.0731 47.0129 21.245C47.0007 21.4391 46.9847 21.6294 46.9653 21.8153C46.6065 21.3024 46.1451 20.7678 45.97 19.9361C45.3917 17.1891 46.5615 15.1378 48.2341 14.7006C49.7402 14.3068 51.2545 15.5848 51.7 17.3285C51.8412 17.8814 51.8722 19.4465 51.7167 20.3806L51.5117 18.1072Z" fill="#9BC3D3"/>
</g>
<g clip-path="url(#clip2_1487_16166)">
<path fill-rule="evenodd" clip-rule="evenodd" d="M41.5394 19.0564C41.4638 18.5054 41.4606 17.9606 41.5223 17.4324C41.8492 14.6552 43.9834 12.3384 46.8457 11.9334C49.7384 11.5245 53.4884 11.4665 55.2145 15.8283L55.2159 15.8318L55.9493 17.5705L56.4628 18.7854L56.6824 19.3061V19.3061L58.5925 20.3227C58.9763 20.5539 58.912 21.1358 58.4872 21.2751L50.1984 23.4258C49.9804 23.4972 49.7564 23.5456 49.5286 23.5705C49.1734 23.6092 48.5759 23.6693 47.8609 23.7211C48.1692 25.0177 48.3773 26.3373 48.4837 27.6678L48.8255 31.9597C48.827 31.9771 48.8278 31.9937 48.8278 32.0111C48.8278 32.2445 48.699 32.4612 48.4906 32.5696C48.3214 32.6574 48.1286 32.6598 47.9639 32.5886C47.8602 32.5435 47.7682 32.4699 47.6994 32.371L45.4013 29.0521C45.3537 28.6305 45.292 28.201 45.2149 27.766L45.2983 27.7375L45.6589 28.1978L48.01 31.1996L47.7229 27.8617C47.6046 26.4817 47.3761 25.1143 47.0403 23.773C45.8146 23.8385 44.4124 23.8575 43.3097 23.7168C40.8004 23.3964 41.2882 22.5844 41.2882 22.5844C41.2882 22.5844 41.5619 22.6154 42.0337 22.654L41.5391 19.0568L41.5394 19.0564Z" fill="#F6C854"/>
<path fill-rule="evenodd" clip-rule="evenodd" d="M47.2424 23.0201C47.2424 23.0201 44.2647 23.3093 42.0444 23.2903L41.5012 19.3364C41.4262 18.7886 41.4232 18.2473 41.4843 17.7224C41.9716 17.8167 42.5279 17.9519 43.0989 18.1466C44.578 18.6488 46.1524 19.547 46.8595 21.1609C47.0946 21.6976 47.2347 22.3136 47.2424 23.0201Z" fill="#34466B"/>
</g>
<path fill-rule="evenodd" clip-rule="evenodd" d="M60.4115 84.6016H38.2294C38.2294 84.6016 37.8802 62.2041 38.2294 53.8825C38.5786 45.5611 39.4179 41.9234 40.9365 39.0134C42.7603 35.5191 44.5812 34.6677 44.5812 34.6677L52.8477 38.3624L58.512 52.9277L58.667 55.5114C61.4837 59.5089 65.4027 63.352 71.0575 65.8859L71.0568 65.8882L68.1378 72.0038C64.8883 70.5102 61.9539 68.6151 59.3266 66.5111L60.4115 84.6016Z" fill="#9BC3D3"/>
<path fill-rule="evenodd" clip-rule="evenodd" d="M58.5111 52.9279L53.9391 46.6071L54.3412 44.4249L52.3516 41.8779L52.8468 38.3618L58.5111 52.9279Z" fill="#1BB3BC"/>
<path fill-rule="evenodd" clip-rule="evenodd" d="M71.4296 67.6627L74.4866 67.1621L75.7777 67.5054L76.3639 69.3452L80.0754 71.9825C80.0754 71.9825 80.5992 73.0741 79.2889 74.256C77.9793 75.438 76.32 74.5743 76.32 74.5743L69.707 71.5731L71.4296 67.6627Z" fill="#A66555"/>
<path fill-rule="evenodd" clip-rule="evenodd" d="M44.3438 35.4217L45.5374 31.6472L53.382 36.1038L53.0079 38.7716L44.3438 35.4217ZM70.7537 66.1644L68.2105 71.7866L69.6649 72.4919L72.2081 66.8697L70.7537 66.1644Z" fill="#CEDEE7"/>
<path fill-rule="evenodd" clip-rule="evenodd" d="M53.3041 36.644L54.1882 37.7515L54.3518 38.7716C54.3518 38.7716 56.4778 42.379 58.0514 51.7464L54.3906 42.3326L53.9387 39.0132L53.043 38.5074L53.3041 36.644Z" fill="#EC0000"/>
</g>
<defs>
<clipPath id="clip0_1487_16166">
<rect width="67.9922" height="129.488" fill="white" transform="translate(37.1797 11.7559)"/>
</clipPath>
<clipPath id="clip1_1487_16166">
<rect width="6.2018" height="8.41653" fill="white" transform="translate(45.8203 14.6289)"/>
</clipPath>
<clipPath id="clip2_1487_16166">
<rect width="17.6133" height="20.8831" fill="white" transform="translate(41.25 11.7559)"/>
</clipPath>
</defs>
</svg>
