<svg width="160" height="161" viewBox="0 0 160 161" fill="none" xmlns="http://www.w3.org/2000/svg">
<path d="M38.8988 31.2758C38.8608 28.7623 40.2378 26.2026 43.5506 25.0282C45.1788 24.4513 46.8015 24.0548 48.2499 23.1376C51.5515 21.0464 51.4913 17.0682 52.3922 13.6765C54.3699 6.22758 61.9819 0.30967 69.6866 0.502123C75.2409 0.640891 80.263 0.811064 85.3265 5.52565C88.7917 8.75175 91.0434 12.7208 94.2598 16.0467C97.6668 19.5681 101.818 21.2581 106.479 22.3896C110.885 23.4597 115.683 24.7329 119.057 27.9418C122.228 30.9572 121.765 34.1114 120.406 37.8141C118.906 41.8972 122.157 44.6746 125.547 46.2648C128.401 47.6034 133.179 50.3261 133.335 55.3466C133.818 70.8977 123.941 70.96 120.258 72.4379C86.3794 86.0346 73.3782 75.5475 59.0131 75.7597C44.6931 75.9709 36.4845 58.6532 36.9823 53.5532C37.6134 47.0777 40.9605 45.7032 41.8889 42.3737C43.2163 37.6045 38.9904 37.4206 38.8988 31.2758Z" fill="#EAF7FE"/>
<path d="M98.2337 68.1131C101.955 69.1088 103.113 71.3342 106.957 71.6892C114.678 72.4028 130.488 69.8766 133.111 73.3316C135.696 76.738 133.092 83.3736 119.358 82.4265C119.677 82.6529 112.954 86.7998 101.781 88.6083C97.3606 89.3239 89.8696 89.4429 86.9454 88.7602C82.4501 87.7129 77.8307 87.2941 73.2204 87.5154C56.8219 88.2898 43.8536 87.3285 43.5067 84.5273C43.3907 83.5914 44.2446 82.2229 45.6723 81.362C46.5622 80.8256 45.1795 80.5223 44.8574 80.4311C40.8965 79.3108 38.6205 77.91 38.4553 76.6833C37.9372 72.8343 51.9301 68.0012 68.5473 65.9414C79.8682 64.5381 92.0231 66.4504 98.2337 68.1131Z" fill="#CEDEE7"/>
<path d="M55.6948 81.9585L55.2654 85.9504C54.9058 89.2889 55.3261 92.6654 56.4933 95.8141C57.6605 98.9632 59.5426 101.798 61.9915 104.096L68.499 110.197L59.6674 139.458L65.873 145.89L80.9566 113.168C81.8429 109.556 81.4879 105.75 79.9482 102.364L72.0127 84.9096L55.6948 81.9585Z" fill="#9BC3D3"/>
<path d="M63.3082 151.067L59.5898 147.26L80.5777 110.177L68.5809 84.2573L83.5314 87.0641L89.232 95.5042C94.8076 103.51 95.6194 107.995 92.1056 113.182L70.6427 144.269L68.1611 149.253L63.3082 151.067Z" fill="#CEDEE7"/>
<path d="M59.2048 136.853L65.7583 136.963L65.182 141.345L65.7771 141.116L72.0252 143.098L67.6271 152.916L68.948 160.417L65.6717 160.307L60.7753 151.563L51.6328 142.701L59.2048 136.853Z" fill="#34466B"/>
<path d="M111.582 82.9897H26V92.7851H111.582V82.9897Z" fill="white"/>
<path fill-rule="evenodd" clip-rule="evenodd" d="M84.4398 33.0881C83.8903 31.9101 83.0936 30.8638 82.1045 30.02C80.6008 28.7456 78.7295 27.9846 76.7634 27.848C74.797 27.7113 72.8384 28.2062 71.1729 29.2604C69.9858 30.0175 68.9905 31.0397 68.265 32.2465C67.5396 33.4532 67.1038 34.8117 66.9919 36.2153C66.88 37.6189 67.095 39.0293 67.6201 40.3358C68.1452 41.6422 68.9661 42.8092 70.0182 43.7449L64.9258 55.2193L76.3889 56.884L80.146 49.8644L81.4942 49.2785C82.6211 48.7901 83.6046 48.0221 84.3516 47.0471C85.0987 46.0722 85.5838 44.9226 85.7616 43.7075L85.7854 43.5428L86.8829 43.3403L85.8047 37.9658L84.4398 33.0881Z" fill="#F4A48D"/>
<path fill-rule="evenodd" clip-rule="evenodd" d="M80.4173 49.7912C80.4173 49.8588 80.4173 49.9281 80.4173 49.9994C80.4173 49.9108 80.4173 49.8231 80.4173 49.7912ZM72.8046 45.4249C72.7802 45.5061 72.7633 45.5893 72.7539 45.6736C73.4761 47.9881 76.5716 50.1238 80.3891 49.791C77.0201 49.7105 74.0641 47.36 72.8046 45.4249ZM85.7891 43.4926L84.2773 39.5059L84.3812 42.428C84.3872 42.5972 84.4308 42.7628 84.5088 42.9129C84.5868 43.0629 84.6972 43.1938 84.8324 43.2958C84.9671 43.3977 85.1236 43.4683 85.2892 43.5024C85.4549 43.5365 85.626 43.5331 85.7901 43.4926H85.7891Z" fill="#A66555"/>
<path d="M67.076 34.1152C67.6636 32.445 68.7104 30.9744 70.0961 29.8723C71.4818 28.7702 73.1502 28.0813 74.9099 27.8848C76.6695 27.6883 78.4487 27.9921 80.0435 28.7613C81.6384 29.5304 82.9835 30.7338 83.9255 32.2333C83.7103 33.8363 83.0843 35.3566 82.1084 36.6462C81.1319 37.9359 79.8389 38.951 78.3545 39.5931C78.0203 38.6688 77.3923 38.0646 76.8058 38.179C76.1811 38.3011 75.8185 39.2026 75.9182 40.2752C75.5837 40.3214 75.2469 40.3498 74.9094 40.3603L74.0226 49.4765C74.0226 49.4765 62.1528 54.173 58.7383 48.181L67.0107 34.0975L67.076 34.1152Z" fill="black"/>
<path d="M93.8814 83.4524L101.281 83.4422L97.226 75.6631L96.1828 69.3101C95.8065 67.023 94.9409 64.8437 93.6444 62.9217C92.3479 60.9997 90.6513 59.3811 88.671 58.1757C87.9453 57.7366 81.255 57.3477 80.4543 57.0215L65.3112 50.8576C64.9043 50.6919 64.4877 50.5509 64.0638 50.4352C61.7894 49.8235 59.3766 49.9801 57.2003 50.8805C55.024 51.7807 53.2059 53.375 52.0285 55.4145L43.3681 70.4127C42.7071 71.5193 42.2867 72.753 42.1345 74.0333C41.9823 75.3131 42.1015 76.6112 42.4845 77.8419C42.8676 79.0725 43.5057 80.209 44.3573 81.1768C45.209 82.1447 46.2551 82.9216 47.4273 83.4579L47.6188 83.5162L88.8376 83.4594L86.8508 75.4225L93.9032 83.4524H93.8814Z" fill="#F6C854"/>
<path fill-rule="evenodd" clip-rule="evenodd" d="M51.37 80.4521L51.5336 80.4602L55.8 80.7245C56.3426 80.758 56.8611 80.961 57.2826 81.3044C57.704 81.6478 58.0072 82.1147 58.1494 82.6394L58.1666 82.7068L58.3758 83.5622L56.4619 83.5526L55.2044 87.3601C55.1675 87.4746 55.0971 87.5748 55.0024 87.6488C54.9077 87.7227 54.7929 87.7663 54.6731 87.7739H54.6296H54.2538C54.116 87.7744 53.9822 87.7278 53.8745 87.6422C53.7668 87.5561 53.6917 87.4361 53.6617 87.3013L53.6546 87.2613L53.5615 86.6536L53.4754 87.2568C53.4559 87.3945 53.3894 87.5211 53.2873 87.6159C53.1851 87.7101 53.0535 87.7663 52.9147 87.7744H52.8757H52.2589C52.1255 87.7739 51.9959 87.7298 51.8902 87.6483C51.7845 87.5672 51.7084 87.4533 51.6739 87.3241L51.6643 87.2841L51.5756 86.8116L51.4769 87.2938C51.4493 87.4229 51.3806 87.5399 51.2808 87.626C51.1812 87.7126 51.056 87.7642 50.9243 87.7734H50.8833H50.6544C50.5399 87.7734 50.4278 87.741 50.3311 87.6797C50.2345 87.6184 50.1572 87.5308 50.1084 87.4269L50.0912 87.3869L48.5212 83.3145C48.407 83.0173 48.3625 82.6972 48.3913 82.3796C48.42 82.0621 48.5212 81.7552 48.687 81.4827C48.8528 81.2107 49.0788 80.9798 49.3477 80.8086C49.6166 80.6369 49.9212 80.5295 50.2381 80.4941C50.6138 80.4521 50.9922 80.4379 51.37 80.4521ZM88.7025 43.0429C88.7861 42.89 88.9147 42.7668 89.0712 42.69C89.2277 42.6132 89.4045 42.5866 89.5767 42.614C89.7676 42.6448 89.9408 42.7426 90.0664 42.8897C90.192 43.0369 90.2609 43.2239 90.2609 43.4173V46.5066C90.2609 46.5228 90.2609 46.537 90.2609 46.5497C90.2609 46.5534 90.2609 46.5571 90.2609 46.5608V46.5755V46.6094L90.9578 47.1534L92.0852 48.0321C92.2295 48.1454 92.3384 48.2984 92.3976 48.4723C92.4574 48.6463 92.465 48.8338 92.4199 49.0121L90.3784 57.4433L100.867 74.5144C101.723 75.4179 102.415 76.4647 102.91 77.6073C104.424 81.0233 104.056 84.5011 102.09 85.3712C100.124 86.2413 97.3026 84.176 95.7899 80.76C95.6546 80.4561 95.5351 80.1522 95.4308 79.8483L86.1343 59.9842L84.7243 57.3273C84.4969 56.9014 84.3693 56.4299 84.3506 55.9472C84.3313 55.4651 84.4215 54.9845 84.6144 54.5418L85.2992 52.9759L84.7097 52.1149L84.6874 52.477C84.6777 52.6046 84.6246 52.7252 84.5359 52.8173C84.4473 52.91 84.3298 52.9688 84.2027 52.9835L84.1556 52.9895C84.0806 52.9987 84.0052 52.9921 83.9333 52.9703C83.8608 52.9485 83.794 52.9126 83.7368 52.8639C83.679 52.8158 83.6319 52.7561 83.5985 52.6887C83.5646 52.6219 83.5453 52.5484 83.5413 52.473L83.4906 51.5188L82.854 51.7366C82.7679 51.7659 82.6752 51.768 82.5881 51.7437C82.501 51.7194 82.423 51.6692 82.3648 51.5993C82.3065 51.5299 82.2706 51.4449 82.2615 51.3547C82.2523 51.2646 82.2706 51.1739 82.3141 51.0941C82.3374 51.0516 82.3673 51.0132 82.4028 50.9801L83.399 50.0553L84.6225 48.7765C84.7223 48.6715 84.851 48.598 84.9928 48.5651C85.1341 48.5321 85.282 48.5412 85.4182 48.5912L87.7185 49.4339L85.5083 48.2352C85.4222 48.1972 85.3311 48.1737 85.2379 48.1657L81.8847 47.8654C81.7905 47.857 81.6988 47.828 81.6172 47.7803C81.5352 47.7327 81.4648 47.6676 81.4111 47.5897C81.3574 47.5118 81.3215 47.4231 81.3058 47.3297C81.2901 47.2363 81.2951 47.1407 81.321 47.0495C81.3645 46.9111 81.4516 46.7905 81.5696 46.7058C81.6876 46.621 81.8295 46.5765 81.9748 46.579L86.2093 46.5739C86.3354 46.5738 86.4605 46.6011 86.5754 46.654L88.58 47.5925L86.8509 46.1339C86.7643 46.0595 86.6625 46.005 86.5532 45.9743L83.0019 44.9736C82.8484 44.9315 82.7173 44.8319 82.6352 44.6955C82.5537 44.5591 82.5279 44.3964 82.5633 44.2413C82.5983 44.0863 82.6919 43.9508 82.8246 43.8631C82.9573 43.7755 83.1189 43.7423 83.2754 43.7708L86.5542 44.3481L87.3969 44.5001C87.5261 44.5221 87.6481 44.5761 87.7514 44.6571L88.2386 45.0364L88.4215 44.1936L88.6195 43.2734C88.6352 43.1929 88.6635 43.1152 88.7025 43.0429ZM56.4858 83.4877L56.3957 83.552H56.464L56.4858 83.4877ZM64.0697 50.4358C64.4323 50.5343 64.7895 50.6518 65.1398 50.7878L65.316 50.8587L67.6888 51.8238C67.703 51.7641 67.7053 51.7018 67.6954 51.641V51.6319L77.9922 52.4179C77.8479 53.7149 78.0687 55.0267 78.6294 56.2052L78.6734 56.2938L80.4627 57.0221C81.2563 57.3467 82.0231 57.7326 82.7565 58.1763C81.0796 63.1831 75.9982 66.2385 70.9053 65.1051C65.4523 63.8896 62.0499 58.3247 63.3085 52.6727C63.4802 51.9018 63.7354 51.1518 64.0697 50.4358Z" fill="#F4A48D"/>
<path d="M63.0078 84.1669L63.1208 86.0093L78.7889 85.0471L78.6759 83.2046L63.0078 84.1669Z" fill="#2A8FEC"/>
<path d="M75.2946 85.4889L106.036 85.5482C106.32 85.5482 106.595 85.4509 106.816 85.2722C107.037 85.0939 107.189 84.8452 107.248 84.5677L111.832 63.094C111.871 62.9132 111.869 62.7268 111.826 62.5471C111.784 62.3678 111.702 62.2001 111.586 62.0563C111.471 61.913 111.324 61.7965 111.158 61.717C110.991 61.637 110.81 61.5949 110.625 61.5944L79.8835 61.5352C79.5994 61.5347 79.3244 61.6319 79.1036 61.8107C78.8833 61.9894 78.7303 62.2381 78.6716 62.5162L74.0862 83.9898C74.0475 84.1701 74.0495 84.357 74.0922 84.5363C74.135 84.7156 74.2172 84.8837 74.333 85.027C74.4488 85.1709 74.5952 85.2869 74.7616 85.3669C74.9279 85.4464 75.11 85.4884 75.2946 85.4889Z" fill="white"/>
<path d="M79.6748 62.5174L75.09 83.991C75.0514 84.1713 75.0535 84.3577 75.0961 84.537C75.1386 84.7168 75.2207 84.8844 75.3363 85.0277C75.4518 85.1716 75.598 85.2875 75.7641 85.3676C75.9302 85.4476 76.1121 85.4896 76.2964 85.4906L89.1693 85.5139L105.493 85.5473H107.039C107.323 85.5473 107.599 85.4496 107.819 85.2708C108.04 85.092 108.193 84.8429 108.251 84.5648L112.836 63.0912C112.874 62.9149 112.873 62.7331 112.833 62.5574C112.793 62.3816 112.715 62.217 112.605 62.0747C112.491 61.9238 112.343 61.8017 112.173 61.7177C112.004 61.6336 111.817 61.5905 111.628 61.591L99.0674 61.5652L80.8857 61.5303C80.6016 61.5303 80.3256 61.629 80.1053 61.8088C79.8845 61.9886 79.7325 62.2388 79.6748 62.5174Z" fill="#2A8FEC"/>
<path d="M99.0664 61.5693L105.493 85.5479H107.039C107.324 85.5479 107.599 85.4507 107.82 85.2719C108.041 85.0926 108.193 84.8434 108.252 84.5654L112.836 63.0917C112.874 62.9155 112.873 62.7337 112.833 62.5579C112.793 62.3822 112.716 62.2176 112.605 62.0753C112.491 61.9244 112.343 61.8023 112.174 61.7187C112.004 61.6347 111.817 61.5911 111.628 61.5916L99.0664 61.5693Z" fill="#2A8FEC"/>
<path d="M100.796 8.9443C100.687 8.07441 100.4 7.23628 99.9524 6.48207C99.5057 5.72781 98.9081 5.07361 98.1975 4.56012C97.487 4.04663 96.6781 3.68483 95.8217 3.4972C94.9653 3.30957 94.0795 3.30015 93.2191 3.4695C92.3591 3.63885 91.5427 3.98337 90.8215 4.48162C90.0998 4.97987 89.4885 5.6212 89.0256 6.36574C88.5627 7.11027 88.2578 7.94213 88.1302 8.80948C88.0026 9.67688 88.0542 10.5613 88.2832 11.4077C88.229 11.4077 88.1753 11.4077 88.1216 11.4133L88.0618 11.4087V11.4173C87.1735 11.4887 86.345 11.892 85.7403 12.5468C85.1361 13.2017 84.8008 14.06 84.8008 14.9511C84.8008 15.8422 85.1361 16.7006 85.7403 17.3554C86.345 18.0102 87.1735 18.4135 88.0618 18.4849V18.495H111.33C112.015 18.495 112.672 18.2229 113.157 17.7385C113.641 17.2541 113.913 16.5971 113.913 15.9121C113.913 15.2271 113.641 14.5701 113.157 14.0857C112.672 13.6013 112.015 13.3292 111.33 13.3292L105.435 12.843C105.463 12.6642 105.476 12.4835 105.476 12.3026C105.476 11.7398 105.342 11.1851 105.084 10.6845C104.827 10.1838 104.455 9.75164 103.997 9.42361C103.54 9.09558 103.011 8.88114 102.454 8.79808C101.898 8.71497 101.329 8.76567 100.796 8.94582V8.9443Z" fill="#CEDEE7"/>
<path d="M86.3214 17.1624C86.2403 16.5263 86.0297 15.9136 85.702 15.3624C85.3743 14.8112 84.9367 14.3333 84.4166 13.9583C83.8965 13.5833 83.3044 13.3193 82.6779 13.1826C82.0515 13.046 81.4037 13.0396 80.7747 13.1639C80.1457 13.2882 79.5491 13.5405 79.0213 13.9052C78.4941 14.2699 78.0474 14.7391 77.7086 15.2838C77.3703 15.8284 77.1475 16.4368 77.0543 17.0712C76.9606 17.7056 76.9986 18.3524 77.1662 18.9714C77.1262 18.9714 77.0867 18.973 77.0477 18.976L77.0036 18.9725V18.9786C76.3506 19.0302 75.7411 19.3259 75.2967 19.8069C74.8523 20.2879 74.6055 20.9187 74.6055 21.5736C74.6055 22.2285 74.8523 22.8593 75.2967 23.3403C75.7411 23.8213 76.3506 24.117 77.0036 24.1686V24.1763H94.0296C94.5275 24.1681 95.002 23.9646 95.351 23.6097C95.7004 23.2547 95.8959 22.7768 95.8959 22.2789C95.8959 21.7809 95.7004 21.3029 95.351 20.948C95.002 20.593 94.5275 20.3895 94.0296 20.3814L89.7161 20.0269C89.7359 19.8956 89.746 19.7631 89.746 19.6303C89.7475 19.2176 89.6503 18.8105 89.4629 18.4427C89.2755 18.075 89.0031 17.7574 88.6678 17.5163C88.333 17.2751 87.9451 17.1174 87.5369 17.0563C87.1287 16.9952 86.7119 17.0325 86.3214 17.1649V17.1624Z" fill="#9BC3D3"/>
<path d="M49.7398 17.4865C49.8762 16.2819 50.4704 15.1758 51.3995 14.397C52.3286 13.6182 53.5215 13.2263 54.7314 13.3023C55.9414 13.3783 57.0758 13.9165 57.9001 14.8055C58.7243 15.6946 59.1754 16.8664 59.1599 18.0786C59.1601 18.5025 59.1049 18.9246 58.9957 19.3341C59.0358 19.3341 59.0758 19.3341 59.1153 19.3382L59.1599 19.3347V19.3412C59.8218 19.4006 60.4375 19.7055 60.886 20.1959C61.3344 20.6864 61.5831 21.3269 61.5831 21.9915C61.5831 22.6561 61.3344 23.2966 60.886 23.787C60.4375 24.2775 59.8218 24.5824 59.1599 24.6418V24.6499H41.9455C41.4316 24.6499 40.9387 24.4457 40.5753 24.0824C40.2119 23.7189 40.0078 23.2261 40.0078 22.7121C40.0078 22.1982 40.2119 21.7054 40.5753 21.342C40.9387 20.9786 41.4316 20.7745 41.9455 20.7745L46.3066 20.4098C46.2866 20.2757 46.2766 20.1403 46.2767 20.0047C46.2718 19.3047 46.5452 18.6314 47.0367 18.133C47.5282 17.6345 48.1976 17.3517 48.8976 17.3468C49.1842 17.3462 49.4688 17.3935 49.7398 17.4865Z" fill="#CEDEE7"/>
<path d="M92.1878 32.6155C92.086 32.5833 91.9791 32.5715 91.8723 32.5807C91.7659 32.5898 91.6626 32.6199 91.5674 32.6692C91.4727 32.7184 91.3886 32.7858 91.3197 32.8676C91.2514 32.9494 91.1992 33.0439 91.1668 33.1458C91.1349 33.2476 91.1227 33.3548 91.1319 33.4613C91.1415 33.5677 91.1714 33.6713 91.2205 33.7661C91.2701 33.8609 91.3375 33.9451 91.419 34.0138C91.5011 34.0826 91.5953 34.1346 91.6971 34.1668C91.7791 34.1931 91.8647 34.2068 91.9503 34.2073C92.1448 34.2061 92.3321 34.1355 92.479 34.0082C92.6259 33.8809 92.7221 33.7053 92.751 33.5131C92.7793 33.321 92.7388 33.1249 92.6355 32.9603C92.5322 32.7957 92.3737 32.6734 92.1878 32.6155Z" fill="#2A8FEC"/>
<path d="M97.1533 26.7212C96.7219 26.0768 96.0847 25.5979 95.3458 25.3632C94.6069 25.1284 93.8102 25.1517 93.0865 25.4292C92.5056 25.6993 92.0528 26.1848 91.8239 26.783C91.8022 26.8358 91.792 26.8924 91.793 26.9494C91.7946 27.0064 91.8072 27.0625 91.8315 27.1142C91.8553 27.1656 91.8893 27.2116 91.9318 27.249C91.9743 27.2865 92.0245 27.3148 92.0787 27.332L92.5765 27.4905C92.6727 27.5208 92.7766 27.5144 92.8682 27.4726C92.9604 27.4308 93.0333 27.3566 93.0739 27.2641C93.1944 26.9556 93.4269 26.7038 93.7252 26.5586C94.1232 26.3944 94.5694 26.3888 94.9721 26.5429C95.1792 26.5956 95.3742 26.6887 95.5454 26.8168C95.7165 26.9449 95.8609 27.1055 95.9703 27.2894C96.0614 27.4797 96.1131 27.6866 96.1222 27.8975C96.1308 28.1084 96.0964 28.3189 96.0209 28.516C95.8183 29.1658 95.4937 29.5447 95.0587 29.6419C94.415 29.7244 93.7606 29.6403 93.1589 29.3978L92.9432 29.3294C92.8915 29.3133 92.8379 29.3075 92.7842 29.3123C92.7305 29.3171 92.6783 29.3323 92.6307 29.3573C92.5831 29.3822 92.5406 29.4163 92.5061 29.4575C92.4717 29.4988 92.4454 29.5465 92.4297 29.5978L91.8361 31.4844C91.8032 31.5881 91.8123 31.7007 91.8624 31.7975C91.9126 31.8942 91.9987 31.9672 92.1025 32.0004L92.6089 32.161C92.6601 32.1771 92.7143 32.1829 92.7675 32.1782C92.8211 32.1734 92.8733 32.1581 92.9209 32.1332C92.969 32.1083 93.0111 32.0742 93.0455 32.0329C93.0799 31.9916 93.1063 31.9439 93.1225 31.8926L93.5069 30.6705C93.5089 30.6633 93.514 30.6572 93.5206 30.6536C93.5276 30.65 93.5352 30.6492 93.5428 30.6513C94.298 30.9231 95.1204 30.9433 95.8882 30.709C96.2357 30.5518 96.5426 30.3161 96.7841 30.0204C97.0252 29.7247 97.1949 29.3771 97.2795 29.0048C97.4203 28.6366 97.4815 28.2428 97.4592 27.8492C97.437 27.4556 97.3321 27.0712 97.1508 26.7212" fill="#2A8FEC"/>
<path d="M114.84 51.2604H121.421C122.074 51.2604 122.603 51.7897 122.603 52.442V55.9993C122.603 56.6521 122.074 57.1812 121.421 57.1812H114.84C114.187 57.1812 113.658 56.6521 113.658 55.9993V52.442C113.658 51.7897 114.187 51.2604 114.84 51.2604Z" stroke="#2A8FEC" stroke-width="0.675011"/>
<mask id="path-22-inside-1_1483_87252" fill="white">
<path d="M122.259 51.6172L118.805 54.8447C118.42 55.1926 117.833 55.1926 117.448 54.8452L113.914 51.6172"/>
</mask>
<path d="M118.805 54.8447L119.258 55.3458L119.266 55.3379L118.805 54.8447ZM117.448 54.8452L116.993 55.3436L116.996 55.3466L117.448 54.8452ZM121.798 51.124L118.344 54.3515L119.266 55.3379L122.72 52.1104L121.798 51.124ZM118.353 54.3436C118.224 54.4597 118.028 54.4597 117.9 54.3438L116.996 55.3466C117.638 55.9256 118.615 55.9256 119.258 55.3457L118.353 54.3436ZM117.903 54.3468L114.369 51.1188L113.459 52.1156L116.993 55.3436L117.903 54.3468Z" fill="#2A8FEC" mask="url(#path-22-inside-1_1483_87252)"/>
<mask id="path-24-inside-2_1483_87252" fill="white">
<path d="M116.785 54.2256L113.797 56.7519L116.785 54.2256Z"/>
</mask>
<path d="M116.349 53.7101L113.361 56.2365L114.233 57.2674L117.221 54.7411L116.349 53.7101Z" fill="#2A8FEC" mask="url(#path-24-inside-2_1483_87252)"/>
<mask id="path-26-inside-3_1483_87252" fill="white">
<path d="M122.444 56.7519L119.465 54.2256L122.444 56.7519Z"/>
</mask>
<path d="M122.881 56.2371L119.901 53.7107L119.028 54.7404L122.008 57.2668L122.881 56.2371Z" fill="#2A8FEC" mask="url(#path-26-inside-3_1483_87252)"/>
</svg>
