<svg width="160" height="160" viewBox="0 0 160 160" fill="none" xmlns="http://www.w3.org/2000/svg">
<path fill-rule="evenodd" clip-rule="evenodd" d="M57.3576 126.474C57.9974 126.501 58.6353 126.518 59.2719 126.526C72.0858 126.672 84.2357 131.127 94.0846 138.882C100.063 143.589 107.57 146.515 115.917 146.868C137.779 147.791 157.015 130.839 159.025 108.877C159.912 99.189 157.27 90.1644 152.164 83.0261C147.793 76.9143 145.753 69.3486 146.62 61.6672C146.631 61.5682 146.642 61.4692 146.652 61.3706C147.95 48.4268 138.634 37.5611 125.747 36.9923C125.673 36.9888 125.599 36.9861 125.526 36.9837C122.048 36.8632 118.949 34.9928 117.267 32.0166C107.672 15.0473 89.867 3.40481 68.558 2.50833C34.5091 1.07604 4.34756 27.6918 1.25748 61.8969C-1.83469 96.1291 23.2819 125.041 57.3576 126.474Z" fill="#EAF7FE"/>
<path d="M99.0655 159.89L52.4985 152.771C47.3268 151.979 43.7759 147.15 44.5674 141.983L63.5542 18.0669C64.3458 12.9007 69.1794 9.35319 74.3525 10.1439L120.918 17.2641C126.091 18.0556 129.641 22.8846 128.849 28.0507L109.863 151.967C109.072 157.135 104.238 160.681 99.0655 159.89Z" fill="#9E3667"/>
<path d="M96.2062 159.454L49.6392 152.334C44.4676 151.543 40.9167 146.713 41.708 141.547L60.6939 17.6309C61.4864 12.4647 66.32 8.91723 71.4922 9.70788L118.059 16.8287C123.231 17.6188 126.783 22.4484 125.99 27.6148L107.004 151.531C106.212 156.697 101.378 160.245 96.2062 159.454Z" fill="white"/>
<path d="M125.185 32.8786L107.634 147.427C107.088 150.988 102.658 153.264 99.096 152.719L47.8005 144.876C44.2363 144.331 41.7923 141.004 42.3379 137.443L59.8892 22.8949C60.4347 19.3333 63.7631 16.8864 67.3283 17.4314L118.622 25.2748C122.184 25.8194 125.731 29.3173 125.185 32.8786Z" fill="white"/>
<path fill-rule="evenodd" clip-rule="evenodd" d="M106.756 20.9476C107.617 21.0795 108.423 20.4883 108.554 19.6278C108.686 18.7665 108.095 17.9624 107.234 17.8305C106.372 17.6992 105.567 18.2898 105.435 19.1511C105.303 20.0116 105.894 20.8165 106.756 20.9476ZM83.8272 16.6777C84.2755 16.7463 84.6954 16.4385 84.764 15.9896C84.8332 15.5407 84.5249 15.1216 84.0757 15.0528C83.6264 14.9842 83.207 15.2921 83.1388 15.741C83.0692 16.1898 83.3779 16.609 83.8272 16.6777ZM81.6115 15.5078C81.5428 15.956 81.123 16.2647 80.6746 16.196C80.2254 16.1265 79.9171 15.708 79.9862 15.2592C80.0549 14.8103 80.4747 14.5024 80.9231 14.5711C81.3723 14.6398 81.6806 15.0591 81.6115 15.5078ZM90.3053 17.2801L97.8452 18.4326C98.0843 18.4696 98.308 18.3054 98.3449 18.0661C98.3814 17.8267 98.217 17.6033 97.9774 17.5669L90.4374 16.4142C90.1988 16.3779 89.9751 16.5414 89.9377 16.7809C89.9013 17.0201 90.0648 17.2437 90.3053 17.2801Z" fill="#DEEDF2"/>
<path fill-rule="evenodd" clip-rule="evenodd" d="M99.0577 159.864L52.4907 152.745C47.319 151.953 43.7681 147.124 44.5596 141.957L63.5463 18.0411C64.3379 12.8748 69.1715 9.32732 74.3446 10.1181L120.91 17.2382C126.083 18.0297 129.634 22.8587 128.842 28.0249L109.856 151.941C109.064 157.108 104.23 160.655 99.0577 159.864Z" fill="#9E3667"/>
<path fill-rule="evenodd" clip-rule="evenodd" d="M96.1984 159.427L49.6314 152.306C44.4598 151.516 40.9089 146.686 41.7001 141.52L60.6861 17.6035C61.4786 12.4374 66.3122 8.88989 71.4844 9.68054L118.051 16.8013C123.224 17.5914 126.775 22.4211 125.982 27.5874L106.996 151.503C106.205 156.67 101.37 160.218 96.1984 159.427Z" fill="white"/>
<path d="M125.181 32.8532L107.63 147.402C107.084 150.962 102.654 153.239 99.0921 152.694L47.7966 144.851C44.2324 144.305 41.7884 140.979 42.334 137.417L59.8853 22.8695C60.4307 19.3079 63.7592 16.861 67.3243 17.406L118.618 25.2494C122.18 25.794 125.727 29.292 125.181 32.8532Z" fill="white"/>
<path fill-rule="evenodd" clip-rule="evenodd" d="M108.21 143.61L107.628 147.401C107.598 147.592 107.559 147.779 107.507 147.96C106.612 151.197 102.461 153.211 99.0908 152.695L47.7962 144.85C44.6539 144.37 42.3796 141.728 42.2629 138.668C42.247 138.256 42.2676 137.838 42.333 137.417L42.9138 133.625L108.21 143.61Z" fill="#CEDEE7"/>
<path d="M108.212 143.61L107.63 147.401C107.6 147.592 107.561 147.779 107.509 147.96L107.475 147.955L107.628 146.956L42.4023 136.983L42.9159 133.625L108.212 143.61Z" fill="#EC0000"/>
<path fill-rule="evenodd" clip-rule="evenodd" d="M89.8261 119.362L106.884 121.969L104.27 139.012L87.2127 136.407L89.8261 119.362ZM70.2452 116.367L87.302 118.973L84.689 136.017L67.6327 133.412L70.2452 116.367ZM50.6642 113.373L67.721 115.979L65.1085 133.023L48.0508 130.418L50.6642 113.373Z" fill="#CEDEE7"/>
<path fill-rule="evenodd" clip-rule="evenodd" d="M106.744 20.9212C107.605 21.0531 108.411 20.4619 108.542 19.6013C108.675 18.74 108.083 17.9359 107.222 17.804C106.36 17.6728 105.555 18.2633 105.423 19.1246C105.291 19.9851 105.882 20.79 106.744 20.9212ZM83.8154 16.6513C84.2637 16.7199 84.6835 16.4121 84.7522 15.9632C84.8213 15.5143 84.5131 15.0951 84.0638 15.0263C83.6145 14.9577 83.1952 15.2657 83.127 15.7146C83.0574 16.1633 83.3661 16.5826 83.8154 16.6513ZM81.5997 15.4814C81.5311 15.9296 81.1112 16.2383 80.6629 16.1696C80.2136 16.1001 79.9054 15.6817 79.9745 15.2328C80.0432 14.7839 80.463 14.476 80.9114 14.5447C81.3606 14.6133 81.6689 15.0327 81.5997 15.4814ZM90.2934 17.2536L97.8334 18.4061C98.073 18.4432 98.2967 18.279 98.3331 18.0396C98.3695 17.8002 98.2051 17.5768 97.9656 17.5404L90.4256 16.3877C90.187 16.3514 89.9633 16.515 89.9259 16.7544C89.8895 16.9936 90.0529 17.2172 90.2934 17.2536Z" fill="#DEEDF2"/>
<path d="M125.179 32.8523L122.386 51.0818L57.0898 41.0979L59.8831 22.8686C60.4285 19.307 63.7574 16.8598 67.3221 17.4051L118.616 25.2485C122.179 25.7931 125.725 29.2909 125.179 32.8523Z" fill="#EC0000"/>
<path fill-rule="evenodd" clip-rule="evenodd" d="M112.142 117.964L46.8477 107.977L57.086 41.147L122.379 51.1345L112.142 117.964Z" fill="#CEDEE7"/>
<path fill-rule="evenodd" clip-rule="evenodd" d="M76.8274 66.2795L78.383 56.1125C78.4424 55.7231 78.7973 55.4522 79.184 55.4947L79.2157 55.4989L79.5043 55.5433C83.268 56.1191 85.9856 55.6511 88.5523 54.3594L88.6214 54.4262C90.6468 56.3657 93.0548 57.5967 96.705 58.1749L97.1201 58.2389L97.1514 58.244C97.5227 58.3173 97.7763 58.6638 97.7357 59.0407L97.7315 59.0734L96.1754 69.2399C95.3338 74.7422 90.4175 78.6427 85.0151 78.5489L84.8512 78.5447C79.5819 77.0787 75.977 71.8369 76.8274 66.2795Z" fill="#34466B"/>
<path fill-rule="evenodd" clip-rule="evenodd" d="M81.0004 69.5646L81.0789 69.0513C81.2493 67.9385 82.7877 67.4028 84.093 67.6027C84.7384 67.7012 85.402 67.9978 85.8704 68.207C86.1245 68.3205 86.3211 68.4083 86.4266 68.4255C86.5327 68.441 86.7465 68.4157 87.023 68.3835C87.5325 68.3237 88.2541 68.2392 88.9 68.3382C90.2053 68.5376 91.5129 69.509 91.3424 70.6219L91.264 71.1352C91.1776 71.7021 90.6475 72.0911 90.0806 72.0043L81.8695 70.748C81.303 70.6611 80.9135 70.1316 81.0004 69.5646Z" fill="white"/>
<path d="M88.963 66.0357L89.5584 63.8991C89.9507 62.5467 88.856 61.3123 87.5433 61.1115C86.152 60.8986 84.7776 61.8247 84.7897 63.1823L84.7188 65.3768C84.7468 66.4672 85.459 67.3625 86.5611 67.5311C87.6665 67.7002 88.6319 67.0963 88.963 66.0357Z" fill="white"/>
<rect x="55.6719" y="84.478" width="56.7899" height="13.0764" transform="rotate(8.7 55.6719 84.478)" fill="white"/>
<path fill-rule="evenodd" clip-rule="evenodd" d="M65.6724 75.9152C61.6299 78.8462 55.902 80.2776 51.0469 80.2608L51.6022 76.7563L53.1115 67.2446L62.7862 68.7778L67.7716 70.0285L70.9949 70.5375L71.0972 70.396L71.1425 70.5614L73.1806 77.8561L65.6728 75.9157L65.6724 75.9152Z" fill="#34466B"/>
<path fill-rule="evenodd" clip-rule="evenodd" d="M62.4501 71.9117C45.7543 78.0188 26.597 71.3886 17.493 55.4447C7.34054 37.659 13.5417 15.0178 31.3457 4.87553C49.1495 -5.26758 71.8133 0.927017 81.9666 18.7117C91.0687 34.6577 87.0277 54.5037 73.2647 65.7503L73.2073 78.2019L62.4501 71.9117Z" fill="white"/>
<path d="M39.2658 15.2773L31.7382 20.8069L42.7977 35.8626L27.7422 46.9219L33.2717 54.4497L48.3274 43.3904L59.3859 58.445L66.9137 52.9156L55.8548 37.8607L70.9099 26.8017L65.38 19.2741L50.3253 30.3331L39.2658 15.2773Z" fill="#CC0000"/>
</svg>
