<svg width="160" height="160" viewBox="0 0 160 160" fill="none" xmlns="http://www.w3.org/2000/svg">
<g clip-path="url(#clip0_1554_17537)">
<path fill-rule="evenodd" clip-rule="evenodd" d="M160.832 119.069C160.832 125.633 125.015 130.955 80.832 130.955C36.6492 130.955 0.832031 125.633 0.832031 119.069C0.832031 112.505 36.6492 107.184 80.832 107.184C125.015 107.184 160.832 112.505 160.832 119.069Z" fill="#DEEDF2"/>
<path fill-rule="evenodd" clip-rule="evenodd" d="M27.6133 115.995H37.1442V32.9609H27.6133V115.995Z" fill="#A66555"/>
<path fill-rule="evenodd" clip-rule="evenodd" d="M124.902 115.995H134.433V32.9609H124.902V115.995Z" fill="#A66555"/>
<path d="M14.1797 77.6755H147.612V68.1313H14.1797V77.6755Z" fill="#F6C854"/>
<mask id="mask0_1554_17537" style="mask-type:alpha" maskUnits="userSpaceOnUse" x="14" y="68" width="134" height="10">
<path d="M14.1797 77.6755H147.612V68.1313H14.1797V77.6755Z" fill="#444444"/>
</mask>
<g mask="url(#mask0_1554_17537)">
<path fill-rule="evenodd" clip-rule="evenodd" d="M7.3125 50.7463L15.5665 55.5184L-11.3583 102.219L-19.6123 97.4465L7.3125 50.7463Z" fill="#3B101C"/>
</g>
<mask id="mask1_1554_17537" style="mask-type:alpha" maskUnits="userSpaceOnUse" x="14" y="68" width="134" height="10">
<path d="M14.1797 77.6755H147.612V68.1313H14.1797V77.6755Z" fill="#444444"/>
</mask>
<g mask="url(#mask1_1554_17537)">
<path fill-rule="evenodd" clip-rule="evenodd" d="M74.9834 50.7463L83.2374 55.5184L56.3126 102.219L48.0586 97.4465L74.9834 50.7463Z" fill="#3B101C"/>
</g>
<mask id="mask2_1554_17537" style="mask-type:alpha" maskUnits="userSpaceOnUse" x="14" y="68" width="134" height="10">
<path d="M14.1797 77.6755H147.612V68.1313H14.1797V77.6755Z" fill="#444444"/>
</mask>
<g mask="url(#mask2_1554_17537)">
<path fill-rule="evenodd" clip-rule="evenodd" d="M143.604 50.7463L151.858 55.5184L124.934 102.219L116.68 97.4465L143.604 50.7463Z" fill="#3B101C"/>
</g>
<mask id="mask3_1554_17537" style="mask-type:alpha" maskUnits="userSpaceOnUse" x="14" y="68" width="134" height="10">
<path d="M14.1797 77.6755H147.612V68.1313H14.1797V77.6755Z" fill="#444444"/>
</mask>
<g mask="url(#mask3_1554_17537)">
<path fill-rule="evenodd" clip-rule="evenodd" d="M29.2334 50.7463L37.4874 55.5184L10.5626 102.219L2.30859 97.4465L29.2334 50.7463Z" fill="#3B101C"/>
</g>
<mask id="mask4_1554_17537" style="mask-type:alpha" maskUnits="userSpaceOnUse" x="14" y="68" width="134" height="10">
<path d="M14.1797 77.6755H147.612V68.1313H14.1797V77.6755Z" fill="#444444"/>
</mask>
<g mask="url(#mask4_1554_17537)">
<path fill-rule="evenodd" clip-rule="evenodd" d="M97.8545 50.7463L106.108 55.5184L79.1837 102.219L70.9297 97.4465L97.8545 50.7463Z" fill="#3B101C"/>
</g>
<mask id="mask5_1554_17537" style="mask-type:alpha" maskUnits="userSpaceOnUse" x="14" y="68" width="134" height="10">
<path d="M14.1797 77.6755H147.612V68.1313H14.1797V77.6755Z" fill="#444444"/>
</mask>
<g mask="url(#mask5_1554_17537)">
<path fill-rule="evenodd" clip-rule="evenodd" d="M167.434 50.7463L175.688 55.5184L148.763 102.219L140.509 97.4465L167.434 50.7463Z" fill="#3B101C"/>
</g>
<mask id="mask6_1554_17537" style="mask-type:alpha" maskUnits="userSpaceOnUse" x="14" y="68" width="134" height="10">
<path d="M14.1797 77.6755H147.612V68.1313H14.1797V77.6755Z" fill="#444444"/>
</mask>
<g mask="url(#mask6_1554_17537)">
<path fill-rule="evenodd" clip-rule="evenodd" d="M52.1045 50.7463L60.3585 55.5184L33.4337 102.219L25.1797 97.4465L52.1045 50.7463Z" fill="#3B101C"/>
</g>
<mask id="mask7_1554_17537" style="mask-type:alpha" maskUnits="userSpaceOnUse" x="14" y="68" width="134" height="10">
<path d="M14.1797 77.6755H147.612V68.1313H14.1797V77.6755Z" fill="#444444"/>
</mask>
<g mask="url(#mask7_1554_17537)">
<path fill-rule="evenodd" clip-rule="evenodd" d="M120.729 50.7463L128.983 55.5184L102.059 102.219L93.8047 97.4465L120.729 50.7463Z" fill="#3B101C"/>
</g>
<path d="M14.1797 57.6323H147.612V48.0881H14.1797V57.6323Z" fill="#F6C854"/>
<mask id="mask8_1554_17537" style="mask-type:alpha" maskUnits="userSpaceOnUse" x="14" y="48" width="134" height="10">
<path d="M14.1797 57.6326H147.612V48.0884H14.1797V57.6326Z" fill="#444444"/>
</mask>
<g mask="url(#mask8_1554_17537)">
<path fill-rule="evenodd" clip-rule="evenodd" d="M12.0781 30.7031L20.3321 35.4752L-6.59267 82.1754L-14.8467 77.4033L12.0781 30.7031Z" fill="#3B101C"/>
</g>
<mask id="mask9_1554_17537" style="mask-type:alpha" maskUnits="userSpaceOnUse" x="14" y="48" width="134" height="10">
<path d="M14.1797 57.6326H147.612V48.0884H14.1797V57.6326Z" fill="#444444"/>
</mask>
<g mask="url(#mask9_1554_17537)">
<path fill-rule="evenodd" clip-rule="evenodd" d="M80.7021 30.7031L88.9561 35.4752L62.0313 82.1754L53.7773 77.4033L80.7021 30.7031Z" fill="#3B101C"/>
</g>
<mask id="mask10_1554_17537" style="mask-type:alpha" maskUnits="userSpaceOnUse" x="14" y="48" width="134" height="10">
<path d="M14.1797 57.6326H147.612V48.0884H14.1797V57.6326Z" fill="#444444"/>
</mask>
<g mask="url(#mask10_1554_17537)">
<path fill-rule="evenodd" clip-rule="evenodd" d="M149.323 30.7031L157.577 35.4752L130.652 82.1754L122.398 77.4033L149.323 30.7031Z" fill="#3B101C"/>
</g>
<mask id="mask11_1554_17537" style="mask-type:alpha" maskUnits="userSpaceOnUse" x="14" y="48" width="134" height="10">
<path d="M14.1797 57.6326H147.612V48.0884H14.1797V57.6326Z" fill="#444444"/>
</mask>
<g mask="url(#mask11_1554_17537)">
<path fill-rule="evenodd" clip-rule="evenodd" d="M34.9521 30.7031L43.2061 35.4752L16.2813 82.1754L8.02734 77.4033L34.9521 30.7031Z" fill="#3B101C"/>
</g>
<mask id="mask12_1554_17537" style="mask-type:alpha" maskUnits="userSpaceOnUse" x="14" y="48" width="134" height="10">
<path d="M14.1797 57.6326H147.612V48.0884H14.1797V57.6326Z" fill="#444444"/>
</mask>
<g mask="url(#mask12_1554_17537)">
<path fill-rule="evenodd" clip-rule="evenodd" d="M103.573 30.7031L111.827 35.4752L84.9024 82.1754L76.6484 77.4033L103.573 30.7031Z" fill="#3B101C"/>
</g>
<mask id="mask13_1554_17537" style="mask-type:alpha" maskUnits="userSpaceOnUse" x="14" y="48" width="134" height="10">
<path d="M14.1797 57.6326H147.612V48.0884H14.1797V57.6326Z" fill="#444444"/>
</mask>
<g mask="url(#mask13_1554_17537)">
<path fill-rule="evenodd" clip-rule="evenodd" d="M172.195 30.7031L180.449 35.4752L153.525 82.1754L145.271 77.4033L172.195 30.7031Z" fill="#3B101C"/>
</g>
<mask id="mask14_1554_17537" style="mask-type:alpha" maskUnits="userSpaceOnUse" x="14" y="48" width="134" height="10">
<path d="M14.1797 57.6326H147.612V48.0884H14.1797V57.6326Z" fill="#444444"/>
</mask>
<g mask="url(#mask14_1554_17537)">
<path fill-rule="evenodd" clip-rule="evenodd" d="M57.8232 30.7031L66.0772 35.4752L39.1524 82.1754L30.8984 77.4033L57.8232 30.7031Z" fill="#3B101C"/>
</g>
<mask id="mask15_1554_17537" style="mask-type:alpha" maskUnits="userSpaceOnUse" x="14" y="48" width="134" height="10">
<path d="M14.1797 57.6326H147.612V48.0884H14.1797V57.6326Z" fill="#444444"/>
</mask>
<g mask="url(#mask15_1554_17537)">
<path fill-rule="evenodd" clip-rule="evenodd" d="M126.448 30.7031L134.702 35.4752L107.777 82.1754L99.5234 77.4033L126.448 30.7031Z" fill="#3B101C"/>
</g>
<path d="M14.1797 38.5442H147.612V29H14.1797V38.5442Z" fill="#F6C854"/>
<mask id="mask16_1554_17537" style="mask-type:alpha" maskUnits="userSpaceOnUse" x="14" y="29" width="134" height="10">
<path d="M14.1797 38.5442H147.612V29H14.1797V38.5442Z" fill="#444444"/>
</mask>
<g mask="url(#mask16_1554_17537)">
<path fill-rule="evenodd" clip-rule="evenodd" d="M7.3125 11.615L15.5665 16.3871L-11.3583 63.0873L-19.6123 58.3152L7.3125 11.615Z" fill="#3B101C"/>
</g>
<mask id="mask17_1554_17537" style="mask-type:alpha" maskUnits="userSpaceOnUse" x="14" y="29" width="134" height="10">
<path d="M14.1797 38.5442H147.612V29H14.1797V38.5442Z" fill="#444444"/>
</mask>
<g mask="url(#mask17_1554_17537)">
<path fill-rule="evenodd" clip-rule="evenodd" d="M74.9834 11.615L83.2374 16.3871L56.3126 63.0873L48.0586 58.3152L74.9834 11.615Z" fill="#3B101C"/>
</g>
<mask id="mask18_1554_17537" style="mask-type:alpha" maskUnits="userSpaceOnUse" x="14" y="29" width="134" height="10">
<path d="M14.1797 38.5442H147.612V29H14.1797V38.5442Z" fill="#444444"/>
</mask>
<g mask="url(#mask18_1554_17537)">
<path fill-rule="evenodd" clip-rule="evenodd" d="M143.604 11.615L151.858 16.3871L124.934 63.0873L116.68 58.3152L143.604 11.615Z" fill="#3B101C"/>
</g>
<mask id="mask19_1554_17537" style="mask-type:alpha" maskUnits="userSpaceOnUse" x="14" y="29" width="134" height="10">
<path d="M14.1797 38.5442H147.612V29H14.1797V38.5442Z" fill="#444444"/>
</mask>
<g mask="url(#mask19_1554_17537)">
<path fill-rule="evenodd" clip-rule="evenodd" d="M29.2334 11.615L37.4874 16.3871L10.5626 63.0873L2.30859 58.3152L29.2334 11.615Z" fill="#3B101C"/>
</g>
<mask id="mask20_1554_17537" style="mask-type:alpha" maskUnits="userSpaceOnUse" x="14" y="29" width="134" height="10">
<path d="M14.1797 38.5442H147.612V29H14.1797V38.5442Z" fill="#444444"/>
</mask>
<g mask="url(#mask20_1554_17537)">
<path fill-rule="evenodd" clip-rule="evenodd" d="M97.8545 11.615L106.108 16.3871L79.1837 63.0873L70.9297 58.3152L97.8545 11.615Z" fill="#3B101C"/>
</g>
<mask id="mask21_1554_17537" style="mask-type:alpha" maskUnits="userSpaceOnUse" x="14" y="29" width="134" height="10">
<path d="M14.1797 38.5442H147.612V29H14.1797V38.5442Z" fill="#444444"/>
</mask>
<g mask="url(#mask21_1554_17537)">
<path fill-rule="evenodd" clip-rule="evenodd" d="M167.434 11.615L175.688 16.3871L148.763 63.0873L140.509 58.3152L167.434 11.615Z" fill="#3B101C"/>
</g>
<mask id="mask22_1554_17537" style="mask-type:alpha" maskUnits="userSpaceOnUse" x="14" y="29" width="134" height="10">
<path d="M14.1797 38.5442H147.612V29H14.1797V38.5442Z" fill="#444444"/>
</mask>
<g mask="url(#mask22_1554_17537)">
<path fill-rule="evenodd" clip-rule="evenodd" d="M52.1045 11.615L60.3585 16.3871L33.4337 63.0873L25.1797 58.3152L52.1045 11.615Z" fill="#3B101C"/>
</g>
<mask id="mask23_1554_17537" style="mask-type:alpha" maskUnits="userSpaceOnUse" x="14" y="29" width="134" height="10">
<path d="M14.1797 38.5442H147.612V29H14.1797V38.5442Z" fill="#444444"/>
</mask>
<g mask="url(#mask23_1554_17537)">
<path fill-rule="evenodd" clip-rule="evenodd" d="M120.729 11.615L128.983 16.3871L102.059 63.0873L93.8047 58.3152L120.729 11.615Z" fill="#3B101C"/>
</g>
<path fill-rule="evenodd" clip-rule="evenodd" d="M87.9715 123.389C88.3218 123.228 88.7365 123.382 88.8975 123.734C89.0582 124.086 88.9047 124.502 88.5544 124.664C88.2037 124.825 87.7891 124.671 87.6282 124.319C87.4672 123.967 87.6208 123.551 87.9715 123.389ZM71.8133 83.9524L61.2899 88.8049L60.9102 91.0597C60.9372 91.099 60.9811 91.1229 61.0285 91.1244L62.2721 91.6901C62.3553 91.7279 62.3697 91.8406 62.2987 91.8985L61.7798 92.3215L63.0937 92.8914C63.1784 92.9282 63.1941 93.0422 63.1225 93.1006L62.6064 93.5211L63.9205 94.091C64.0053 94.1277 64.021 94.2417 63.9491 94.3002L63.4333 94.7208L64.7471 95.2905C64.8319 95.3274 64.8476 95.4414 64.776 95.4997L64.2601 95.9205L65.5738 96.4902C65.6587 96.527 65.6742 96.6411 65.6026 96.6994L65.0867 97.12L66.4006 97.6899C66.4853 97.7265 66.5011 97.8405 66.4294 97.8991L65.9136 98.3197L67.2275 98.8896C67.3122 98.9262 67.3279 99.0402 67.2561 99.0985L66.7402 99.5193L68.0541 100.089C68.1388 100.126 68.1545 100.24 68.0829 100.298L67.5668 100.719L68.8807 101.289C68.9657 101.325 68.9812 101.439 68.9095 101.498L68.3937 101.918L69.7076 102.488C69.7923 102.525 69.808 102.639 69.7362 102.698L69.2205 103.118L70.5342 103.688C70.6189 103.725 70.6346 103.839 70.563 103.897L70.0472 104.318L71.361 104.888C71.4458 104.924 71.4615 105.038 71.3898 105.097L70.8738 105.518L72.1879 106.087C72.2726 106.124 72.2883 106.238 72.2165 106.296L71.7006 106.717L73.0145 107.287C73.0992 107.324 73.115 107.437 73.0433 107.496L72.5275 107.916L73.8411 108.486C73.9261 108.523 73.9416 108.637 73.8699 108.696L73.3541 109.116L74.668 109.686C74.7527 109.723 74.7684 109.837 74.6966 109.895L74.1809 110.316L75.4948 110.886C75.5795 110.922 75.5953 111.036 75.5234 111.095L75.0076 111.515L76.3214 112.085C76.4062 112.122 76.4219 112.236 76.3503 112.294L75.8342 112.715L77.1481 113.285C77.233 113.322 77.2485 113.436 77.1769 113.494L76.661 113.915L77.9749 114.484C78.0596 114.521 78.0754 114.635 78.0035 114.694L77.4879 115.114L78.8015 115.684C78.8863 115.721 78.902 115.835 78.8304 115.893L78.3145 116.314L79.6284 116.884C79.7131 116.921 79.7288 117.034 79.6572 117.093L79.1411 117.514L80.4552 118.083C80.5399 118.12 80.5557 118.234 80.4838 118.292L79.968 118.713L81.2818 119.283C81.3666 119.32 81.3823 119.434 81.3107 119.492L80.7946 119.913L82.1085 120.483C82.1934 120.519 82.2089 120.633 82.1373 120.692L81.6214 121.112L82.9353 121.682C83.02 121.719 83.0358 121.833 82.9641 121.891L82.4483 122.312L83.7619 122.882C83.8469 122.919 83.8624 123.033 83.7908 123.091L83.2749 123.511L84.5886 124.081C84.6735 124.118 84.689 124.232 84.6174 124.291L84.1015 124.711L85.4154 125.281C85.5001 125.318 85.5159 125.432 85.4442 125.49L84.9284 125.911L86.2422 126.481C86.327 126.517 86.3427 126.631 86.2709 126.69L85.755 127.11L85.9699 127.422L89.4356 125.824C90.1334 125.502 90.4391 124.673 90.119 123.973L71.8133 83.9524Z" fill="#CEDEE7"/>
<path d="M89.4368 125.659L88.6235 126.033C89.3208 125.712 89.6264 124.886 89.3062 124.189L71.0195 84.3261L71.8327 83.9524L90.1195 123.815C90.4393 124.513 90.1339 125.338 89.4368 125.659Z" fill="#DEEDF2"/>
<path fill-rule="evenodd" clip-rule="evenodd" d="M58.4319 78.4577L65.4455 76.449C65.8873 76.3224 66.3553 76.5374 66.5472 76.9551L68.0556 80.2398C68.2919 80.7548 68.0172 81.3598 67.4739 81.5204L60.4871 83.5875C60.0436 83.7188 59.5708 83.504 59.3778 83.0835L57.8427 79.7404C57.6048 79.2228 57.8841 78.6147 58.4319 78.4577ZM54.7144 76.7518C54.1125 76.9233 53.8051 77.5912 54.0663 78.1603L58.9615 88.8198C59.2103 89.3617 59.8231 89.634 60.3919 89.4551L72.172 85.7541C72.8521 85.5404 73.1902 84.7785 72.8929 84.1306L66.9835 71.2626C66.6452 70.5262 65.7427 70.2275 65.0244 70.644C64.3981 71.0074 64.187 71.8159 64.4892 72.4737L64.824 73.2033C64.9667 73.5139 64.7992 73.8786 64.4707 73.9728L54.7144 76.7518Z" fill="#990000"/>
<path d="M68.0787 80.3792L68.5543 81.395C68.7928 81.9047 68.5156 82.5034 67.9675 82.6623L60.9191 84.7081C60.4714 84.8379 59.9945 84.6253 59.7998 84.2094L59.3242 83.1933C59.5189 83.6094 59.9959 83.822 60.4433 83.692L67.4919 81.6464C68.04 81.4875 68.3172 80.8888 68.0787 80.3792Z" fill="#D39E00"/>
<path fill-rule="evenodd" clip-rule="evenodd" d="M64.8595 73.2033L64.5235 72.4737C64.2204 71.8159 64.4322 71.0074 65.0605 70.644C65.7811 70.2275 66.6866 70.5262 67.026 71.2626L67.0549 71.3251C66.9675 71.3545 66.8811 71.3911 66.7974 71.4392C66.1693 71.8026 65.9575 72.6111 66.2604 73.2691L66.5966 73.9985C66.7397 74.3091 66.5716 74.6738 66.2418 74.768L56.4539 77.547C55.85 77.7185 55.5414 78.3864 55.8037 78.9553L60.6124 89.3928L60.4129 89.4551C59.8422 89.634 59.2274 89.3617 58.9778 88.8198L54.0666 78.1603C53.8045 77.5912 54.1129 76.9233 54.7168 76.7518L64.505 73.9728C64.8345 73.8786 65.0026 73.5139 64.8595 73.2033Z" fill="#990000"/>
<path fill-rule="evenodd" clip-rule="evenodd" d="M66.93 71.27L72.8894 84.2566C73.1893 84.9105 72.8484 85.6794 72.1625 85.8951L70.7663 86.3339L64.4145 72.4923C64.1098 71.8285 64.3227 71.0125 64.9543 70.6458C65.6786 70.2254 66.5888 70.5268 66.93 71.27Z" fill="#990000"/>
<path d="M63.8925 86.199C63.5446 86.3593 63.3919 86.7714 63.5517 87.1202C63.7117 87.4688 64.1233 87.6214 64.4716 87.4614C64.8195 87.3014 64.9722 86.8888 64.8124 86.5405C64.6524 86.1917 64.2408 86.039 63.8925 86.199Z" fill="#D39E00"/>
<path d="M67.2598 85.0081C66.9117 85.1683 66.759 85.5807 66.919 85.9293C67.0788 86.2778 67.4906 86.4305 67.8387 86.2705C68.1868 86.1105 68.3395 85.6981 68.1794 85.3495C68.0196 85.0009 67.6079 84.8481 67.2598 85.0081Z" fill="#D39E00"/>
<path fill-rule="evenodd" clip-rule="evenodd" d="M89.4537 91.3807L83.5036 125.834L79.543 125.154L85.4933 90.7007L89.4537 91.3807Z" fill="#CEDEE7"/>
<path d="M86.04 91.4788L96.0935 93.2155C96.4314 93.2737 96.6582 93.5961 96.6002 93.9352L96.1361 96.6377L96.1858 96.6463C96.5239 96.7047 96.8451 96.4772 96.9036 96.138L97.376 93.3857C97.4342 93.0464 97.2074 92.7242 96.8693 92.6658L85.4922 90.7007L86.04 91.4788Z" fill="#D39E00"/>
<path d="M88.7254 93.2868C88.9412 93.3241 89.0858 93.5292 89.0488 93.7453C89.0114 93.9614 88.8066 94.1064 88.5908 94.0691C88.375 94.0319 88.2302 93.8266 88.2676 93.6107C88.3046 93.3946 88.5096 93.2496 88.7254 93.2868Z" fill="#D39E00"/>
<path d="M87.9364 91.6989C88.1521 91.7362 88.2969 91.9415 88.2597 92.1574C88.2225 92.3735 88.0175 92.5185 87.802 92.4813C87.586 92.444 87.4415 92.2387 87.4784 92.0226C87.5158 91.8067 87.7208 91.6617 87.9364 91.6989Z" fill="#D39E00"/>
<path fill-rule="evenodd" clip-rule="evenodd" d="M83.6553 106.779L83.7059 106.523L82.7655 106.382L82.7148 106.638L83.6553 106.779Z" fill="#990000"/>
<path fill-rule="evenodd" clip-rule="evenodd" d="M84.2489 106.382L84.2977 106.053L82.959 105.786L82.9102 106.115L84.2489 106.382Z" fill="#990000"/>
<path fill-rule="evenodd" clip-rule="evenodd" d="M83.8504 105.588L83.9012 105.332L82.9612 105.191L82.9102 105.447L83.8504 105.588Z" fill="#990000"/>
<path fill-rule="evenodd" clip-rule="evenodd" d="M84.0535 104.992L84.1044 104.736L83.1642 104.595L83.1133 104.852L84.0535 104.992Z" fill="#990000"/>
<path fill-rule="evenodd" clip-rule="evenodd" d="M84.0537 104.595L84.1044 104.339L83.1639 104.198L83.1133 104.454L84.0537 104.595Z" fill="#990000"/>
<path fill-rule="evenodd" clip-rule="evenodd" d="M84.6473 104L84.6961 103.671L83.3574 103.404L83.3086 103.733L84.6473 104Z" fill="#990000"/>
<path fill-rule="evenodd" clip-rule="evenodd" d="M84.2488 103.404L84.2997 103.148L83.3595 103.007L83.3086 103.263L84.2488 103.404Z" fill="#990000"/>
<path fill-rule="evenodd" clip-rule="evenodd" d="M84.4482 102.809L84.4989 102.553L83.5585 102.412L83.5078 102.668L84.4482 102.809Z" fill="#990000"/>
<path fill-rule="evenodd" clip-rule="evenodd" d="M84.4482 102.213L84.4989 101.957L83.5585 101.816L83.5078 102.072L84.4482 102.213Z" fill="#990000"/>
<path fill-rule="evenodd" clip-rule="evenodd" d="M85.0457 101.816L85.0945 101.487L83.756 101.22L83.707 101.549L85.0457 101.816Z" fill="#990000"/>
<path fill-rule="evenodd" clip-rule="evenodd" d="M84.6472 101.022L84.6981 100.766L83.7579 100.625L83.707 100.882L84.6472 101.022Z" fill="#990000"/>
<path fill-rule="evenodd" clip-rule="evenodd" d="M84.8467 100.625L84.8973 100.369L83.9569 100.228L83.9062 100.485L84.8467 100.625Z" fill="#990000"/>
<path fill-rule="evenodd" clip-rule="evenodd" d="M84.8467 100.03L84.8973 99.7734L83.9569 99.6326L83.9062 99.8887L84.8467 100.03Z" fill="#990000"/>
<path fill-rule="evenodd" clip-rule="evenodd" d="M85.4401 99.4343L85.4891 99.1057L84.1508 98.8389L84.1016 99.1675L85.4401 99.4343Z" fill="#990000"/>
<path fill-rule="evenodd" clip-rule="evenodd" d="M85.042 98.8389L85.0926 98.5827L84.1522 98.4419L84.1016 98.6982L85.042 98.8389Z" fill="#990000"/>
<path fill-rule="evenodd" clip-rule="evenodd" d="M85.2412 98.2434L85.2919 97.9871L84.3514 97.8464L84.3008 98.1026L85.2412 98.2434Z" fill="#990000"/>
<path fill-rule="evenodd" clip-rule="evenodd" d="M85.241 97.6477L85.2919 97.3916L84.3516 97.2507L84.3008 97.5071L85.241 97.6477Z" fill="#990000"/>
<path fill-rule="evenodd" clip-rule="evenodd" d="M85.8383 97.2512L85.8875 96.9226L84.549 96.6558L84.5 96.9844L85.8383 97.2512Z" fill="#990000"/>
<path fill-rule="evenodd" clip-rule="evenodd" d="M85.4404 96.457L85.4911 96.2009L84.5507 96.0601L84.5 96.3164L85.4404 96.457Z" fill="#990000"/>
<path fill-rule="evenodd" clip-rule="evenodd" d="M85.6357 96.0598L85.6864 95.8035L84.746 95.6628L84.6953 95.919L85.6357 96.0598Z" fill="#990000"/>
<path fill-rule="evenodd" clip-rule="evenodd" d="M85.6355 95.4649L85.6864 95.2087L84.7462 95.0679L84.6953 95.3242L85.6355 95.4649Z" fill="#990000"/>
<path fill-rule="evenodd" clip-rule="evenodd" d="M86.233 95.0676L86.282 94.7389L84.9433 94.4722L84.8945 94.8007L86.233 95.0676Z" fill="#990000"/>
<path fill-rule="evenodd" clip-rule="evenodd" d="M104.022 91.2961H57.3426C56.7123 91.2961 56.3516 92.2917 56.3516 92.5127C56.3516 93.3754 57.0387 94.075 57.8861 94.075H103.974C104.822 94.075 105.509 93.3754 105.509 92.5127C105.509 92.2917 105.463 92.0822 105.382 91.8916C105.146 92.4453 104.605 92.8331 103.974 92.8331" fill="#34466B"/>
<path d="M94.2113 108.303L93.5745 108.168C93.5052 108.829 92.1752 116.044 92.1752 116.044C92.1191 116.336 91.9576 116.579 91.7417 116.749C91.6508 117.012 91.3795 117.173 91.1013 117.114C91.0088 117.094 90.9287 117.051 90.8609 116.995C90.8282 116.99 90.7958 116.991 90.7631 116.984L90.0074 116.824C89.8775 116.796 89.7606 116.743 89.6523 116.679C89.7095 117.172 90.0681 117.598 90.581 117.707L91.3364 117.868C91.9866 118.006 92.6234 117.582 92.7485 116.928L94.2113 108.303Z" fill="#D39E00"/>
<path fill-rule="evenodd" clip-rule="evenodd" d="M66.5269 107.568L65.362 107.97L63.3727 102.169C63.1798 101.607 63.327 100.973 63.7475 100.554L76.8284 87.5194C76.9161 87.4319 76.9469 87.2995 76.9067 87.1822L74.8006 81.0411C74.7422 80.8712 74.557 80.7802 74.3873 80.8387L66.9275 83.4105L66.5269 82.2423L73.9867 79.6706C74.7988 79.3908 75.6865 79.8254 75.9655 80.6394L78.0716 86.7805C78.2644 87.3424 78.1173 87.9763 77.697 88.3955L64.6161 101.431C64.5282 101.518 64.4976 101.65 64.5378 101.768L66.5269 107.568Z" fill="#990000"/>
<path fill-rule="evenodd" clip-rule="evenodd" d="M72.4329 84.5617L46.5542 93.4657C46.4208 93.5117 46.2753 93.4407 46.2293 93.3069L44.0764 87.0418C44.0306 86.9081 44.1016 86.7627 44.2353 86.7167L70.1139 77.8128C70.2473 77.7669 70.3928 77.8378 70.4388 77.9715L72.5915 84.2366C72.6375 84.3703 72.5665 84.5157 72.4329 84.5617Z" fill="#3B101C"/>
<path fill-rule="evenodd" clip-rule="evenodd" d="M71.7587 85.6445L47.8676 93.8564C47.6726 93.9233 47.4598 93.8196 47.3928 93.6246L44.8759 86.3072C44.8088 86.1119 44.9124 85.8997 45.1077 85.8326L68.9988 77.6208C69.1939 77.5536 69.4065 77.6575 69.4736 77.8525L71.9906 85.1699C72.0577 85.3649 71.9538 85.5774 71.7587 85.6445Z" fill="#F6C854"/>
<path fill-rule="evenodd" clip-rule="evenodd" d="M70.4944 82.6691L47.1409 90.7509C46.7733 90.8781 46.3727 90.6813 46.2461 90.3113L46.894 92.2072C47.0204 92.5771 47.4209 92.7742 47.7887 92.6469L71.1423 84.5652C71.5099 84.438 71.7057 84.0348 71.5792 83.6646L70.9314 81.7686C71.0578 82.1388 70.8622 82.5419 70.4944 82.6691Z" fill="#FFE99F"/>
<path fill-rule="evenodd" clip-rule="evenodd" d="M45.7502 86.7811C45.3826 86.9084 44.9821 86.7116 44.8555 86.3416L45.5033 88.2374C45.6298 88.6074 46.0303 88.8044 46.3981 88.6772L69.7517 80.5955C70.1193 80.4682 70.315 80.0651 70.1886 79.6949L69.5407 77.7988C69.6672 78.169 69.4716 78.5721 69.1038 78.6994L45.7502 86.7811Z" fill="#FFE99F"/>
<path d="M64.3154 109.557L68.4428 108.081L68.2094 107.374L64.082 108.851L64.3154 109.557Z" fill="#D39E00"/>
<path d="M68.1617 107.374L67.0547 107.753C67.5574 108.829 72.1617 121.108 72.1617 121.108C72.3452 121.607 72.3193 122.127 72.1437 122.587C72.2459 123.073 71.9759 123.57 71.4919 123.735C71.3316 123.79 71.1679 123.798 71.0111 123.773C70.9568 123.797 70.9076 123.828 70.8504 123.847L69.5367 124.297C69.311 124.374 69.0819 124.402 68.8557 124.403C69.3987 125.106 70.3453 125.428 71.2369 125.123L72.5506 124.673C73.6809 124.287 74.2722 123.051 73.8618 121.934L68.1617 107.374Z" fill="#D39E00"/>
<path fill-rule="evenodd" clip-rule="evenodd" d="M67.8559 104.205L67.4275 104.354C67.372 104.373 67.3354 104.427 67.3378 104.486L67.3718 105.384C67.3874 105.794 67.1346 106.166 66.7498 106.299L65.5451 106.717L64.3403 107.135C63.9555 107.268 63.5295 107.132 63.2916 106.799L62.7715 106.07C62.7371 106.022 62.6755 106.002 62.62 106.022L62.1916 106.17C62.1053 106.2 62.0737 106.307 62.1294 106.379L63.9531 108.763L66.0006 108.053L68.048 107.343L68.0328 104.332C68.0322 104.24 67.9424 104.175 67.8559 104.205Z" fill="#F6C854"/>
<path fill-rule="evenodd" clip-rule="evenodd" d="M58.5312 127.818H103.328V106.778H58.5312V127.818Z" fill="#34466B"/>
<path fill-rule="evenodd" clip-rule="evenodd" d="M62.0991 106.779H58.5312V91.0861C58.5312 90.7638 58.8116 90.5024 59.1576 90.5024H61.4728C61.8188 90.5024 62.0991 90.7638 62.0991 91.0861V106.779Z" fill="#34466B"/>
<path fill-rule="evenodd" clip-rule="evenodd" d="M99.7617 106.779H103.33V90.1293C103.33 89.7873 103.049 89.51 102.703 89.51H100.388C100.042 89.51 99.7617 89.7873 99.7617 90.1293V106.779Z" fill="#34466B"/>
<path d="M101.941 80.5173L104.436 79.2914C105.305 78.8647 106.334 78.8874 107.168 79.3805C115.701 84.4285 121.632 93.551 114.863 102.809L101.941 80.5173Z" fill="#FFE99F"/>
<path fill-rule="evenodd" clip-rule="evenodd" d="M113.986 104.16C114.148 103.874 114.34 103.607 114.548 103.353L114.575 103.319C119.032 97.8584 117.192 88.9881 110.466 83.5071C104.559 78.6934 96.8497 78.0968 92.0405 81.7208C91.7936 81.9069 91.5462 82.0915 91.2884 82.2619C88.4211 84.1574 85.5962 86.3431 81.0249 85.3324C80.215 85.1532 79.617 86.0773 80.1351 86.7247C81.1978 88.0526 83.1741 90.1029 86.8464 93.0957C94.5754 99.3939 96.7015 99.178 102.791 104.14L110.393 110.335C110.947 110.787 111.786 110.49 111.924 109.789C112.197 108.402 112.778 106.288 113.986 104.16Z" fill="#F6C854"/>
<path d="M87.9628 91.7208C95.6912 98.0158 97.8171 97.8 103.906 102.759L111.508 108.951C111.666 109.079 111.847 109.145 112.028 109.16C112.206 108.4 112.464 107.499 112.84 106.531C110.613 104.717 106.834 101.639 100.473 96.4578C91.0455 88.7791 88.8223 85.4751 88.3609 84.1504C86.4037 85.2511 84.2178 85.993 81.3242 85.4421C82.4028 86.7712 84.3697 88.7942 87.9628 91.7208Z" fill="#FFE99F"/>
<path fill-rule="evenodd" clip-rule="evenodd" d="M111.909 109.79C111.992 109.373 112.104 108.887 112.251 108.357C110.114 106.617 106.251 103.472 99.3477 97.8503C85.5351 86.6031 87.192 84.7461 87.192 84.7461C85.4559 85.5192 83.4924 85.9096 81.0147 85.3604C80.2104 85.1822 79.6196 86.1117 80.1344 86.7542C81.1969 88.0805 83.1725 90.128 86.842 93.1164C94.5678 99.4071 96.693 99.1915 102.78 104.148L110.379 110.335C110.932 110.786 111.772 110.49 111.909 109.79Z" fill="#F6C854"/>
<path d="M111.854 109.615C111.581 109.683 111.277 109.632 111.03 109.43L103.452 103.24C97.3827 98.2816 95.2637 98.4973 87.5599 92.2041C83.9005 89.2148 81.931 87.1666 80.8713 85.8399C80.747 85.684 80.6885 85.5114 80.6808 85.3418C80.0632 85.4382 79.6945 86.1961 80.1337 86.7459C81.1931 88.0727 83.163 90.1209 86.8221 93.1104C94.5259 99.4033 96.645 99.1876 102.715 104.146L110.292 110.336C110.844 110.787 111.681 110.49 111.818 109.79C111.829 109.734 111.842 109.674 111.854 109.615Z" fill="#FFE99F"/>
<path d="M95.0478 95.5426L92.4282 93.4579C92.1757 93.2569 92.1576 92.8868 92.3893 92.6633L94.2623 90.8553C94.4613 90.663 94.7768 90.6483 94.9937 90.821L97.1786 92.5598C97.3955 92.7325 97.4441 93.0371 97.2914 93.266L95.8534 95.42C95.6754 95.6864 95.3003 95.7435 95.0478 95.5426Z" fill="#FFE99F"/>
</g>
<defs>
<clipPath id="clip0_1554_17537">
<rect width="160" height="160" fill="white"/>
</clipPath>
</defs>
</svg>
