<svg width="160" height="160" viewBox="0 0 160 160" fill="none" xmlns="http://www.w3.org/2000/svg">
<g clip-path="url(#clip0_1554_17536)">
<path fill-rule="evenodd" clip-rule="evenodd" d="M159.715 118.781C159.715 125.345 123.898 130.667 79.7148 130.667C35.532 130.667 -0.285156 125.345 -0.285156 118.781C-0.285156 112.216 35.532 106.895 79.7148 106.895C123.898 106.895 159.715 112.216 159.715 118.781Z" fill="#DEEDF2"/>
<path fill-rule="evenodd" clip-rule="evenodd" d="M26.4961 115.674H36.027V32.9463H26.4961V115.674Z" fill="#A66555"/>
<path fill-rule="evenodd" clip-rule="evenodd" d="M123.785 115.674H133.316V32.9463H123.785V115.674Z" fill="#A66555"/>
<path d="M13.0625 77.4957H146.495V67.9868H13.0625V77.4957Z" fill="#F6C854"/>
<mask id="mask0_1554_17536" style="mask-type:luminance" maskUnits="userSpaceOnUse" x="13" y="67" width="134" height="11">
<path d="M13.0625 77.496H146.495V67.9871H13.0625V77.496Z" fill="#444444"/>
</mask>
<g mask="url(#mask0_1554_17536)">
<path fill-rule="evenodd" clip-rule="evenodd" d="M6.1942 50.6665L14.4482 55.421L-12.4766 101.948L-20.7306 97.194L6.1942 50.6665Z" fill="#3B101C"/>
</g>
<mask id="mask1_1554_17536" style="mask-type:alpha" maskUnits="userSpaceOnUse" x="13" y="67" width="134" height="11">
<path d="M13.0625 77.496H146.495V67.9871H13.0625V77.496Z" fill="#444444"/>
</mask>
<g mask="url(#mask1_1554_17536)">
<path fill-rule="evenodd" clip-rule="evenodd" d="M73.8662 50.6665L82.1202 55.421L55.1954 101.948L46.9414 97.194L73.8662 50.6665Z" fill="#3B101C"/>
</g>
<mask id="mask2_1554_17536" style="mask-type:alpha" maskUnits="userSpaceOnUse" x="13" y="67" width="134" height="11">
<path d="M13.0625 77.496H146.495V67.9871H13.0625V77.496Z" fill="#444444"/>
</mask>
<g mask="url(#mask2_1554_17536)">
<path fill-rule="evenodd" clip-rule="evenodd" d="M142.487 50.6665L150.741 55.421L123.817 101.948L115.562 97.194L142.487 50.6665Z" fill="#3B101C"/>
</g>
<mask id="mask3_1554_17536" style="mask-type:alpha" maskUnits="userSpaceOnUse" x="13" y="67" width="134" height="11">
<path d="M13.0625 77.496H146.495V67.9871H13.0625V77.496Z" fill="#444444"/>
</mask>
<g mask="url(#mask3_1554_17536)">
<path fill-rule="evenodd" clip-rule="evenodd" d="M28.1162 50.6665L36.3702 55.421L9.44541 101.948L1.19141 97.194L28.1162 50.6665Z" fill="#3B101C"/>
</g>
<mask id="mask4_1554_17536" style="mask-type:alpha" maskUnits="userSpaceOnUse" x="13" y="67" width="134" height="11">
<path d="M13.0625 77.496H146.495V67.9871H13.0625V77.496Z" fill="#444444"/>
</mask>
<g mask="url(#mask4_1554_17536)">
<path fill-rule="evenodd" clip-rule="evenodd" d="M96.7412 50.6665L104.995 55.421L78.0704 101.948L69.8164 97.194L96.7412 50.6665Z" fill="#3B101C"/>
</g>
<mask id="mask5_1554_17536" style="mask-type:alpha" maskUnits="userSpaceOnUse" x="13" y="67" width="134" height="11">
<path d="M13.0625 77.496H146.495V67.9871H13.0625V77.496Z" fill="#444444"/>
</mask>
<g mask="url(#mask5_1554_17536)">
<path fill-rule="evenodd" clip-rule="evenodd" d="M166.315 50.6665L174.569 55.421L147.645 101.948L139.391 97.194L166.315 50.6665Z" fill="#3B101C"/>
</g>
<mask id="mask6_1554_17536" style="mask-type:alpha" maskUnits="userSpaceOnUse" x="13" y="67" width="134" height="11">
<path d="M13.0625 77.496H146.495V67.9871H13.0625V77.496Z" fill="#444444"/>
</mask>
<g mask="url(#mask6_1554_17536)">
<path fill-rule="evenodd" clip-rule="evenodd" d="M50.9912 50.6665L59.2452 55.421L32.3204 101.948L24.0664 97.194L50.9912 50.6665Z" fill="#3B101C"/>
</g>
<mask id="mask7_1554_17536" style="mask-type:alpha" maskUnits="userSpaceOnUse" x="13" y="67" width="134" height="11">
<path d="M13.0625 77.496H146.495V67.9871H13.0625V77.496Z" fill="#444444"/>
</mask>
<g mask="url(#mask7_1554_17536)">
<path fill-rule="evenodd" clip-rule="evenodd" d="M119.616 50.6665L127.87 55.421L100.945 101.948L92.6914 97.194L119.616 50.6665Z" fill="#3B101C"/>
</g>
<path d="M13.0625 57.527H146.495V48.0181H13.0625V57.527Z" fill="#F6C854"/>
<mask id="mask8_1554_17536" style="mask-type:luminance" maskUnits="userSpaceOnUse" x="13" y="48" width="134" height="10">
<path d="M13.0625 57.527H146.495V48.0181H13.0625V57.527Z" fill="#444444"/>
</mask>
<g mask="url(#mask8_1554_17536)">
<path fill-rule="evenodd" clip-rule="evenodd" d="M10.9598 30.6973L19.2138 35.4517L-7.71096 81.9792L-15.965 77.2247L10.9598 30.6973Z" fill="#3B101C"/>
</g>
<mask id="mask9_1554_17536" style="mask-type:alpha" maskUnits="userSpaceOnUse" x="13" y="48" width="134" height="10">
<path d="M13.0625 57.527H146.495V48.0181H13.0625V57.527Z" fill="#444444"/>
</mask>
<g mask="url(#mask9_1554_17536)">
<path fill-rule="evenodd" clip-rule="evenodd" d="M79.5849 30.6973L87.839 35.4517L60.9142 81.9792L52.6602 77.2247L79.5849 30.6973Z" fill="#3B101C"/>
</g>
<mask id="mask10_1554_17536" style="mask-type:alpha" maskUnits="userSpaceOnUse" x="13" y="48" width="134" height="10">
<path d="M13.0625 57.527H146.495V48.0181H13.0625V57.527Z" fill="#444444"/>
</mask>
<g mask="url(#mask10_1554_17536)">
<path fill-rule="evenodd" clip-rule="evenodd" d="M148.206 30.6973L156.46 35.4517L129.535 81.9792L121.281 77.2247L148.206 30.6973Z" fill="#3B101C"/>
</g>
<mask id="mask11_1554_17536" style="mask-type:alpha" maskUnits="userSpaceOnUse" x="13" y="48" width="134" height="10">
<path d="M13.0625 57.527H146.495V48.0181H13.0625V57.527Z" fill="#444444"/>
</mask>
<g mask="url(#mask11_1554_17536)">
<path fill-rule="evenodd" clip-rule="evenodd" d="M33.835 30.6973L42.089 35.4517L15.1642 81.9792L6.91016 77.2247L33.835 30.6973Z" fill="#3B101C"/>
</g>
<mask id="mask12_1554_17536" style="mask-type:alpha" maskUnits="userSpaceOnUse" x="13" y="48" width="134" height="10">
<path d="M13.0625 57.527H146.495V48.0181H13.0625V57.527Z" fill="#444444"/>
</mask>
<g mask="url(#mask12_1554_17536)">
<path fill-rule="evenodd" clip-rule="evenodd" d="M102.456 30.6973L110.71 35.4517L83.7853 81.9792L75.5312 77.2247L102.456 30.6973Z" fill="#3B101C"/>
</g>
<mask id="mask13_1554_17536" style="mask-type:alpha" maskUnits="userSpaceOnUse" x="13" y="48" width="134" height="10">
<path d="M13.0625 57.527H146.495V48.0181H13.0625V57.527Z" fill="#444444"/>
</mask>
<g mask="url(#mask13_1554_17536)">
<path fill-rule="evenodd" clip-rule="evenodd" d="M171.081 30.6973L179.335 35.4517L152.41 81.9792L144.156 77.2247L171.081 30.6973Z" fill="#3B101C"/>
</g>
<mask id="mask14_1554_17536" style="mask-type:alpha" maskUnits="userSpaceOnUse" x="13" y="48" width="134" height="10">
<path d="M13.0625 57.527H146.495V48.0181H13.0625V57.527Z" fill="#444444"/>
</mask>
<g mask="url(#mask14_1554_17536)">
<path fill-rule="evenodd" clip-rule="evenodd" d="M56.7099 30.6973L64.964 35.4517L38.0392 81.9792L29.7852 77.2247L56.7099 30.6973Z" fill="#3B101C"/>
</g>
<mask id="mask15_1554_17536" style="mask-type:alpha" maskUnits="userSpaceOnUse" x="13" y="48" width="134" height="10">
<path d="M13.0625 57.527H146.495V48.0181H13.0625V57.527Z" fill="#444444"/>
</mask>
<g mask="url(#mask15_1554_17536)">
<path fill-rule="evenodd" clip-rule="evenodd" d="M125.335 30.6973L133.589 35.4517L106.664 81.9792L98.4102 77.2247L125.335 30.6973Z" fill="#3B101C"/>
</g>
<path d="M13.0625 38.5089H146.495V29H13.0625V38.5089Z" fill="#F6C854"/>
<mask id="mask16_1554_17536" style="mask-type:luminance" maskUnits="userSpaceOnUse" x="13" y="29" width="134" height="10">
<path d="M13.0625 38.5089H146.495V29H13.0625V38.5089Z" fill="#444444"/>
</mask>
<g mask="url(#mask16_1554_17536)">
<path fill-rule="evenodd" clip-rule="evenodd" d="M6.19466 15.1436L14.4487 18.9471L-12.4761 56.1691L-20.7301 52.3655L6.19466 15.1436Z" fill="#3B101C"/>
</g>
<mask id="mask17_1554_17536" style="mask-type:alpha" maskUnits="userSpaceOnUse" x="13" y="29" width="134" height="10">
<path d="M13.0625 38.5089H146.495V29H13.0625V38.5089Z" fill="#444444"/>
</mask>
<g mask="url(#mask17_1554_17536)">
<path fill-rule="evenodd" clip-rule="evenodd" d="M73.8662 15.1436L82.1202 18.9471L55.1954 56.1691L46.9414 52.3655L73.8662 15.1436Z" fill="#3B101C"/>
</g>
<mask id="mask18_1554_17536" style="mask-type:alpha" maskUnits="userSpaceOnUse" x="13" y="29" width="134" height="10">
<path d="M13.0625 38.5089H146.495V29H13.0625V38.5089Z" fill="#444444"/>
</mask>
<g mask="url(#mask18_1554_17536)">
<path fill-rule="evenodd" clip-rule="evenodd" d="M142.487 15.1436L150.741 18.9471L123.817 56.1691L115.562 52.3655L142.487 15.1436Z" fill="#3B101C"/>
</g>
<mask id="mask19_1554_17536" style="mask-type:alpha" maskUnits="userSpaceOnUse" x="13" y="29" width="134" height="10">
<path d="M13.0625 38.5089H146.495V29H13.0625V38.5089Z" fill="#444444"/>
</mask>
<g mask="url(#mask19_1554_17536)">
<path fill-rule="evenodd" clip-rule="evenodd" d="M28.1162 15.1436L36.3702 18.9471L9.44541 56.1691L1.19141 52.3655L28.1162 15.1436Z" fill="#3B101C"/>
</g>
<mask id="mask20_1554_17536" style="mask-type:alpha" maskUnits="userSpaceOnUse" x="13" y="29" width="134" height="10">
<path d="M13.0625 38.5089H146.495V29H13.0625V38.5089Z" fill="#444444"/>
</mask>
<g mask="url(#mask20_1554_17536)">
<path fill-rule="evenodd" clip-rule="evenodd" d="M96.7412 15.1436L104.995 18.9471L78.0704 56.1691L69.8164 52.3655L96.7412 15.1436Z" fill="#3B101C"/>
</g>
<mask id="mask21_1554_17536" style="mask-type:alpha" maskUnits="userSpaceOnUse" x="13" y="29" width="134" height="10">
<path d="M13.0625 38.5089H146.495V29H13.0625V38.5089Z" fill="#444444"/>
</mask>
<g mask="url(#mask21_1554_17536)">
<path fill-rule="evenodd" clip-rule="evenodd" d="M166.316 15.1436L174.57 18.9471L147.645 56.1691L139.391 52.3655L166.316 15.1436Z" fill="#3B101C"/>
</g>
<mask id="mask22_1554_17536" style="mask-type:alpha" maskUnits="userSpaceOnUse" x="13" y="29" width="134" height="10">
<path d="M13.0625 38.5089H146.495V29H13.0625V38.5089Z" fill="#444444"/>
</mask>
<g mask="url(#mask22_1554_17536)">
<path fill-rule="evenodd" clip-rule="evenodd" d="M50.9912 15.1436L59.2452 18.9471L32.3204 56.1691L24.0664 52.3655L50.9912 15.1436Z" fill="#3B101C"/>
</g>
<mask id="mask23_1554_17536" style="mask-type:alpha" maskUnits="userSpaceOnUse" x="13" y="29" width="134" height="10">
<path d="M13.0625 38.5089H146.495V29H13.0625V38.5089Z" fill="#444444"/>
</mask>
<g mask="url(#mask23_1554_17536)">
<path fill-rule="evenodd" clip-rule="evenodd" d="M119.616 15.1436L127.87 18.9471L100.945 56.1691L92.6914 52.3655L119.616 15.1436Z" fill="#3B101C"/>
</g>
<path fill-rule="evenodd" clip-rule="evenodd" d="M82.2717 114.212L100.931 76.708L104.855 75.5159L107.928 77.5004L126.39 114.212V118.277L123.961 120.859H85.6107L81.9258 118.865L82.2717 114.212Z" fill="white"/>
<path d="M109.525 74.7716L109.776 75.1732L129.686 114.904C132.06 119 129.25 124.092 124.611 124.388L124.185 124.401H84.2908C79.5444 124.401 76.5229 119.43 78.5512 115.343L78.7496 114.974L98.7343 75.1032C101.101 71.0204 106.903 70.8887 109.525 74.7716ZM101.493 78.0955L101.311 78.3721L83.1533 114.578C81.9032 116.733 83.3551 119.409 85.7789 119.62L86.0868 119.633H122.368C124.869 119.633 126.469 117.044 125.411 114.794L125.264 114.514L107.158 78.4011C105.918 76.2616 102.902 76.1598 101.493 78.0955ZM104.468 109.235C105.525 109.235 106.621 109.906 106.621 111.145C106.621 111.971 106.621 112.289 106.621 112.099C106.621 113.322 105.657 113.882 104.468 113.882C103.411 113.882 102.314 113.46 102.314 112.099C102.314 111.191 102.314 110.873 102.314 111.145C102.314 109.906 103.278 109.235 104.468 109.235ZM104.468 91.5268C105.525 91.5268 106.621 92.3774 106.621 93.6048C106.621 94.423 106.621 98.3968 106.621 105.526C106.621 106.582 105.657 107.416 104.468 107.416C103.411 107.416 102.314 106.806 102.314 105.526C102.314 104.673 102.314 100.699 102.314 93.6048C102.314 92.3488 103.278 91.5268 104.468 91.5268Z" fill="#CC0000"/>
</g>
<defs>
<clipPath id="clip0_1554_17536">
<rect width="160" height="160" fill="white"/>
</clipPath>
</defs>
</svg>
