<svg width="160" height="160" viewBox="0 0 160 160" fill="none" xmlns="http://www.w3.org/2000/svg">
<path fill-rule="evenodd" clip-rule="evenodd" d="M65.6468 115.507C65.3104 115.17 64.98 114.83 64.6564 114.486C58.1384 107.558 49.5024 103.037 40.144 101.338C34.4634 100.306 29.0281 97.5953 24.6362 93.2049C13.1326 81.7053 13.1195 63.1605 24.6076 51.6454C29.6754 46.5657 36.1374 43.7272 42.7636 43.1291C48.4364 42.6168 53.766 40.1422 57.7016 36.0248C57.7524 35.9718 57.8036 35.9192 57.8548 35.867C64.5684 29.0182 75.4292 28.9505 82.2248 35.7178C82.2636 35.7564 82.3024 35.7954 82.3404 35.8344C84.1556 37.6765 86.776 38.481 89.3144 37.9881C103.789 35.1776 119.355 39.377 130.566 50.5873C148.478 68.4997 148.478 97.5941 130.566 115.507C112.638 133.433 83.5736 133.433 65.6468 115.507Z" fill="#EAF7FE"/>
<path fill-rule="evenodd" clip-rule="evenodd" d="M79.3657 28.1569L70.5 28.7492C70.1925 27.6744 69.1693 26.9218 68.0089 26.9993L60.4873 27.5018C59.8613 26.1111 58.4233 25.185 56.8125 25.2927C55.2017 25.4003 53.8997 26.5094 53.4637 27.971L45.9425 28.4734C44.7821 28.5509 43.8681 29.433 43.7061 30.5391L34.8406 31.1314C33.9381 31.1917 33.2538 31.9472 33.3121 32.819L33.3158 32.8745L37.0307 88.484L37.1653 90.4984C37.2255 91.4008 38.0059 92.0836 38.9084 92.0232L83.4336 89.0488C84.3356 88.9884 85.0185 88.208 84.9585 87.3056L81.1052 29.6262C81.0468 28.7544 80.2681 28.0967 79.3657 28.1569Z" fill="#CEDEE7"/>
<path fill-rule="evenodd" clip-rule="evenodd" d="M83.9511 86.4217C84.0111 87.3241 83.3283 88.1045 82.4263 88.1649L37.901 91.1393C36.9986 91.1993 36.2182 90.5165 36.1579 89.6145L32.3084 31.9903C32.2481 31.0879 32.9307 30.3075 33.8332 30.2472L78.3583 27.2727C79.2607 27.2125 80.0411 27.8952 80.1015 28.7975L83.9511 86.4217Z" fill="#D39E00"/>
<path fill-rule="evenodd" clip-rule="evenodd" d="M83.8121 84.3683C83.8701 85.2399 83.1857 85.9954 82.2833 86.0559L37.7584 89.0303C36.8559 89.0903 36.0772 88.4327 36.019 87.5611L32.3003 31.8959C32.2421 31.0241 32.9263 30.2686 33.8289 30.2083L78.3541 27.2338C79.2561 27.1735 80.0349 27.8313 80.0933 28.7031L83.8121 84.3683Z" fill="#F6C854"/>
<path fill-rule="evenodd" clip-rule="evenodd" d="M38.6265 85.4721L80.869 82.6501L77.4106 30.8789L35.168 33.7009L38.6265 85.4721Z" fill="white"/>
<path fill-rule="evenodd" clip-rule="evenodd" d="M52.4518 27.087C52.8866 25.6245 54.193 24.516 55.805 24.4084C57.4166 24.3007 58.859 25.2256 59.4846 26.6172L67.0014 26.1151C68.3374 26.0258 69.493 27.0366 69.5822 28.3728L69.8666 32.6311L42.9618 34.4284L42.6774 30.1701C42.5882 28.834 43.599 27.6784 44.935 27.5892L52.4518 27.087Z" fill="#CEDEE7"/>
<path fill-rule="evenodd" clip-rule="evenodd" d="M42.9597 34.4288L69.8645 32.6314L69.6665 29.6675L42.7617 31.4648L42.9597 34.4288Z" fill="#DEEDF2"/>
<path fill-rule="evenodd" clip-rule="evenodd" d="M57.1244 26.9332C57.1668 27.5676 56.6872 28.1164 56.0524 28.1588C55.418 28.2012 54.8692 27.7211 54.8268 27.0866C54.7844 26.4522 55.2644 25.9034 55.8988 25.861C56.5336 25.8186 57.082 26.2987 57.1244 26.9332Z" fill="white"/>
<path d="M40.929 41.4679C40.8766 40.6829 41.4702 40.0041 42.255 39.9517L47.2214 39.6199C48.0062 39.5675 48.685 40.1613 48.7374 40.9462L49.0694 45.9123C49.1218 46.6972 48.5278 47.376 47.743 47.4285L42.777 47.7602C41.9918 47.8127 41.313 47.2189 41.2606 46.434L40.929 41.4679Z" fill="#CEDEE7"/>
<path d="M41.8626 55.4415C41.8102 54.6566 42.4038 53.9778 43.1886 53.9253L48.155 53.5936C48.9398 53.5411 49.6186 54.1349 49.671 54.9198L50.0026 59.886C50.055 60.6708 49.4614 61.3496 48.6766 61.402L43.7102 61.734C42.9254 61.7864 42.2466 61.1924 42.1942 60.4076L41.8626 55.4415Z" fill="#CEDEE7"/>
<path d="M42.7415 68.5939C42.6891 67.8087 43.2831 67.1299 44.0679 67.0775L49.0339 66.7459C49.8187 66.6935 50.4975 67.2871 50.5499 68.0723L50.8819 73.0383C50.9343 73.8231 50.3403 74.5019 49.5555 74.5543L44.5895 74.8863C43.8047 74.9387 43.1259 74.3447 43.0731 73.5599L42.7415 68.5939Z" fill="#CEDEE7"/>
<path fill-rule="evenodd" clip-rule="evenodd" d="M52.7446 43.1731C52.705 42.5844 53.1506 42.0753 53.7394 42.0359L71.1982 40.8696C71.7866 40.8303 72.2958 41.2756 72.335 41.8643C72.3746 42.453 71.929 42.9622 71.3406 43.0015L53.8818 44.1678C53.293 44.2071 52.7838 43.7618 52.7446 43.1731Z" fill="#CEDEE7"/>
<path fill-rule="evenodd" clip-rule="evenodd" d="M53.6782 57.1462C53.6386 56.5575 54.0842 56.0484 54.6726 56.0091L72.1314 54.8427C72.7202 54.8034 73.2294 55.2488 73.2686 55.8375C73.3082 56.4262 72.8626 56.9353 72.2738 56.9746L54.815 58.1409C54.2266 58.1803 53.7174 57.7349 53.6782 57.1462Z" fill="#CEDEE7"/>
<path fill-rule="evenodd" clip-rule="evenodd" d="M54.5571 70.2987C54.5179 69.7099 54.9631 69.2007 55.5519 69.1615L73.0107 67.9951C73.5995 67.9559 74.1083 68.4011 74.1479 68.9899C74.1871 69.5787 73.7419 70.0879 73.1531 70.1271L55.6943 71.2935C55.1055 71.3327 54.5963 70.8875 54.5571 70.2987Z" fill="#CEDEE7"/>
<path d="M42.5582 56.1307C42.3802 56.3258 42.395 56.6284 42.5894 56.8058L42.5902 56.8064L45.8238 59.7221C45.8238 59.7225 45.8242 59.7225 45.8242 59.7225C45.9214 59.8109 46.049 59.8541 46.177 59.8453C46.1938 59.8445 46.2094 59.8425 46.2254 59.8393C46.3678 59.8161 46.491 59.7289 46.5618 59.6041L51.2622 52.2396L51.265 52.2351L51.2674 52.2305C51.395 51.9985 51.309 51.7085 51.0786 51.5815L51.0774 51.5806C50.8502 51.4586 50.5618 51.535 50.4322 51.7651L46.0278 58.6169L43.2326 56.098V56.098C43.037 55.9215 42.735 55.9369 42.5582 56.1307Z" fill="#2A8FEC" stroke="#2A8FEC" stroke-width="0.8"/>
<path d="M41.6363 42.3026C41.4583 42.4977 41.4731 42.8002 41.6679 42.9777L41.6683 42.9783L44.9019 45.8941C44.9023 45.8942 44.9023 45.8943 44.9023 45.8944C44.9995 45.9829 45.1271 46.0259 45.2555 46.0173C45.2723 46.0162 45.2879 46.0141 45.3035 46.0113C45.4459 45.9879 45.5691 45.9007 45.6399 45.7761L50.3403 38.4114L50.3431 38.407L50.3459 38.4024C50.4731 38.1703 50.3871 37.8804 50.1571 37.7533L50.1555 37.7525C49.9283 37.6304 49.6403 37.7069 49.5107 37.9369L45.1059 44.7889L42.3107 42.2699V42.2698C42.1151 42.0933 41.8131 42.1087 41.6363 42.3026Z" fill="#2A8FEC" stroke="#2A8FEC" stroke-width="0.8"/>
<path fill-rule="evenodd" clip-rule="evenodd" d="M126.827 35.0076C129.947 34.6314 133.018 35.3342 135.451 37.2517C137.087 34.7977 140.931 33.5634 143.606 33.9177C144.117 33.985 144.143 34.6918 143.606 34.7324C141.983 34.8562 140.388 35.3511 139.141 36.436C138.091 37.3506 137.586 38.6078 136.723 39.661C136.476 39.963 135.975 40.058 135.617 39.954C135.523 39.9263 135.427 39.8917 135.345 39.8392C135.251 39.7788 135.169 39.7036 135.096 39.6214C135.047 39.5858 134.994 39.569 134.949 39.5215C132.766 37.2556 130.024 35.7728 126.827 35.7352C126.347 35.7292 126.373 35.062 126.827 35.0076Z" fill="#9BC3D3"/>
<path fill-rule="evenodd" clip-rule="evenodd" d="M127.66 60.4794C125.081 60.527 122.871 63.5906 121.111 66.4522C121.073 66.5126 121.032 66.5334 120.992 66.579C120.933 66.6822 120.867 66.7782 120.791 66.8534C120.725 66.9206 120.648 66.9642 120.571 66.999C120.282 67.1294 119.879 67.0106 119.679 66.6286C118.984 65.299 118.577 64.3054 117.731 63.1502C116.725 61.7782 115.438 61.1546 114.129 60.9982C113.697 60.9466 113.717 60.0538 114.129 59.9686C116.286 59.5202 119.387 61.0802 120.706 64.1806C122.667 61.7574 125.144 59.0846 127.66 59.5598C128.025 59.629 128.047 60.4726 127.66 60.4794Z" fill="#9BC3D3"/>
<path fill-rule="evenodd" clip-rule="evenodd" d="M118.578 49.5662C116.313 49.5929 114.371 50.6422 112.825 52.2468C112.793 52.2814 112.755 52.2933 112.721 52.3181C112.668 52.3755 112.611 52.4299 112.544 52.4725C112.486 52.5101 112.418 52.5348 112.352 52.5536C112.098 52.6269 111.744 52.5596 111.569 52.3467C110.957 51.6014 110.599 50.7105 109.855 50.0621C108.972 49.2939 107.843 48.9425 106.693 48.8554C106.312 48.8267 106.33 48.3259 106.693 48.2783C108.587 48.0269 111.31 48.901 112.469 50.6392C114.192 49.2811 116.367 48.7832 118.578 49.0504C118.898 49.09 118.917 49.5622 118.578 49.5662Z" fill="#9BC3D3"/>
<path d="M40.4749 114.913C45.4401 114.913 49.5369 118.63 50.1285 123.432C50.6721 123.248 51.2545 123.148 51.8601 123.148C54.8377 123.148 57.2517 125.56 57.2517 128.535C57.2517 128.815 57.2301 129.089 57.1893 129.357L66.1617 130.096V130.096C68.2545 130.096 69.9657 131.731 70.0857 133.793H25.9064C25.8143 133.398 25.7656 132.987 25.7656 132.564C25.7656 129.727 27.9617 127.401 30.7477 127.192V127.179L30.8392 127.186C30.9206 127.181 31.0025 127.178 31.0851 127.177C30.8653 126.366 30.7481 125.513 30.7481 124.632C30.7481 119.264 35.1031 114.913 40.4749 114.913Z" fill="#9BC3D3"/>
<path d="M42.0195 97.2913L53.2583 78.0309C57.0751 71.4897 66.5295 71.4897 70.3463 78.0309L81.5851 97.2913V133.793C68.3967 133.793 55.2079 133.793 42.0195 133.793V97.2913Z" fill="#FFE99F"/>
<path d="M81.5859 100.353H110.214L113.586 106.097V133.793H81.5859V100.353Z" fill="#FFE99F"/>
<path fill-rule="evenodd" clip-rule="evenodd" d="M53.2583 78.0303L42.0195 97.2907V105.901L56.1055 81.7615C58.8103 77.1259 63.7563 75.0903 68.4291 75.6551C63.9775 71.6191 56.5375 72.4107 53.2583 78.0303Z" fill="#FFE99F"/>
<path fill-rule="evenodd" clip-rule="evenodd" d="M69.1482 78.9434C65.887 73.2754 57.7142 73.2754 54.453 78.9434L36.1769 110.709C35.7875 111.385 34.9236 111.618 34.2473 111.228C33.571 110.839 33.3384 109.974 33.7278 109.297L52.0038 77.5322C56.3518 69.975 67.2494 69.975 71.5974 77.5322L89.8734 109.297C90.2626 109.974 90.0302 110.839 89.3538 111.228C88.6774 111.618 87.8138 111.385 87.4242 110.709L69.1482 78.9434Z" fill="#F4A48D"/>
<path d="M61.6884 71.865C61.7252 71.8646 61.762 71.8642 61.7984 71.8642H61.6876L61.6884 71.865Z" fill="#2A8FEC"/>
<path d="M88.6847 111.417H116.879C116.901 111.417 116.923 111.417 116.945 111.417H116.957L116.957 111.416C117.181 111.409 117.407 111.348 117.616 111.228C118.292 110.838 118.525 109.974 118.135 109.297L99.8591 77.5318C97.6851 73.753 93.8735 71.8638 90.0623 71.8638V71.8774L90.0387 71.8638H61.8047C65.6151 71.8646 69.4255 73.7538 71.5991 77.5318L89.8751 109.297C90.2643 109.974 90.0319 110.838 89.3555 111.228C89.1435 111.35 88.9131 111.411 88.6847 111.417Z" fill="#2A8FEC"/>
<path d="M68.8877 133.793V112.593C68.8877 111.819 68.2549 111.191 67.4745 111.191H54.6241C53.8437 111.191 53.2109 111.819 53.2109 112.593V133.793H68.8877Z" fill="#A66555"/>
<path d="M128.112 133.793H22.6719V135.713H128.112V133.793Z" fill="#DEEDF2"/>
<path d="M38.0486 126.989C37.2079 126.299 36.6738 125.267 36.6738 124.113C36.6738 122.036 38.4034 120.353 40.5368 120.353C42.6704 120.353 44.4 122.036 44.4 124.113C44.4 124.867 44.1716 125.569 43.7792 126.158C46.0616 126.984 47.6876 129.124 47.6876 131.633C47.6876 132.396 47.5372 133.125 47.2636 133.793H36.1113C35.8379 133.125 35.6875 132.396 35.6875 131.633C35.6875 129.739 36.6135 128.056 38.0486 126.989Z" fill="#9BC3D3"/>
<path d="M110.372 114.913C105.386 114.913 101.271 118.631 100.677 123.432C100.131 123.248 99.5464 123.148 98.938 123.148C95.9476 123.148 93.5232 125.561 93.5232 128.536C93.5232 128.815 93.5448 129.089 93.586 129.357L92.932 129.616V129.617C90.752 129.617 88.9844 131.375 88.9844 133.544C88.9844 133.628 88.9872 133.711 88.9924 133.793H125.003C125.096 133.399 125.144 132.987 125.144 132.565C125.144 129.727 122.939 127.402 120.141 127.193V127.179L120.049 127.186C119.967 127.182 119.885 127.179 119.802 127.178C120.023 126.367 120.14 125.513 120.14 124.633C120.14 119.265 115.767 114.913 110.372 114.913Z" fill="#9BC3D3"/>
</svg>
