<svg width="160" height="160" viewBox="0 0 160 160" fill="none" xmlns="http://www.w3.org/2000/svg">
<path fill-rule="evenodd" clip-rule="evenodd" d="M55.244 121.444C55.8458 121.47 56.4462 121.486 57.0453 121.493C69.1064 121.631 80.5416 125.823 89.8119 133.122C95.4383 137.552 102.504 140.307 110.361 140.639C130.938 141.508 149.043 125.552 150.935 104.882C151.769 95.763 149.283 87.2689 144.477 80.5502C140.363 74.7977 138.443 67.6768 139.259 60.4469C139.27 60.3537 139.279 60.2605 139.288 60.1678C140.51 47.9849 131.742 37.758 119.612 37.2226C119.543 37.2193 119.474 37.2168 119.404 37.2145C116.131 37.1011 113.215 35.3407 111.631 32.5394C102.601 16.5677 85.8418 5.6096 65.7856 4.76582C33.7384 3.41773 5.35 28.4689 2.44156 60.6632C-0.468829 92.883 23.1713 120.095 55.244 121.444Z" fill="#EAF7FE"/>
<path d="M94.5001 152.895L50.6702 146.195C45.8025 145.449 42.4605 140.904 43.2054 136.041L61.0759 19.4096C61.821 14.5471 66.3704 11.2081 71.2394 11.9524L115.068 18.654C119.937 19.399 123.279 23.9441 122.533 28.8065L104.663 145.439C103.918 150.302 99.3682 153.639 94.5001 152.895Z" fill="#9E3667"/>
<path d="M91.8087 152.485L47.9788 145.783C43.1114 145.039 39.7692 140.493 40.514 135.631L58.3837 18.999C59.1296 14.1365 63.6791 10.7976 68.5476 11.5417L112.377 18.2439C117.245 18.9876 120.587 23.5333 119.841 28.3959L101.971 145.027C101.226 149.89 96.676 153.229 91.8087 152.485Z" fill="white"/>
<path d="M119.084 33.3508L102.564 141.165C102.051 144.517 97.8808 146.659 94.5282 146.146L46.2487 138.764C42.8937 138.251 40.5934 135.12 41.1068 131.768L57.6263 23.954C58.1397 20.6018 61.2728 18.2988 64.628 18.8117L112.907 26.194C116.26 26.7066 119.597 29.9989 119.084 33.3508Z" fill="white"/>
<path fill-rule="evenodd" clip-rule="evenodd" d="M101.737 22.121C102.548 22.2452 103.306 21.6887 103.43 20.8787C103.555 20.0681 102.998 19.3112 102.187 19.1871C101.376 19.0636 100.618 19.6194 100.494 20.43C100.37 21.24 100.926 21.9976 101.737 22.121ZM80.1571 18.1018C80.5791 18.1665 80.9743 17.8767 81.0389 17.4543C81.1039 17.0317 80.8138 16.6372 80.391 16.5725C79.9681 16.5079 79.5734 16.7977 79.5092 17.2202C79.4437 17.6426 79.7343 18.0373 80.1571 18.1018ZM78.07 17.001C78.0054 17.4228 77.6103 17.7134 77.1883 17.6488C76.7654 17.5834 76.4753 17.1895 76.5404 16.767C76.605 16.3445 77.0001 16.0547 77.4221 16.1194C77.845 16.1839 78.1351 16.5787 78.07 17.001ZM86.2531 18.6689L93.3498 19.7536C93.5753 19.7885 93.7854 19.634 93.8201 19.4086C93.8544 19.1833 93.6996 18.9731 93.4742 18.9388L86.3775 17.8539C86.1528 17.8197 85.9423 17.9736 85.9071 18.199C85.8728 18.4241 86.0267 18.6346 86.2531 18.6689Z" fill="#DEEDF2"/>
<path fill-rule="evenodd" clip-rule="evenodd" d="M94.4922 152.871L50.6623 146.171C45.795 145.426 42.4527 140.88 43.1976 136.017L61.068 19.3857C61.813 14.5232 66.3629 11.1842 71.2315 11.9285L115.06 18.6301C119.929 19.375 123.271 23.9201 122.525 28.7826L104.655 145.415C103.91 150.278 99.3603 153.615 94.4922 152.871Z" fill="#9E3667"/>
<path fill-rule="evenodd" clip-rule="evenodd" d="M91.8008 152.46L47.9709 145.757C43.1036 145.014 39.7614 140.468 40.5062 135.605L58.3762 18.9736C59.1217 14.1111 63.6716 10.7722 68.5397 11.5163L112.369 18.2185C117.237 18.9622 120.579 23.5079 119.834 28.3705L101.964 145.002C101.219 149.865 96.668 153.204 91.8008 152.46Z" fill="white"/>
<path d="M119.08 33.3264L102.561 141.141C102.047 144.492 97.8772 146.635 94.5242 146.122L46.2446 138.74C42.8898 138.226 40.5895 135.096 41.1029 131.743L57.6222 23.9296C58.1361 20.5774 61.2688 18.2744 64.6244 18.7873L112.903 26.1696C116.256 26.6822 119.593 29.9745 119.08 33.3264Z" fill="#CEDEE7"/>
<path fill-rule="evenodd" clip-rule="evenodd" d="M103.106 137.572L102.559 141.141C102.53 141.321 102.494 141.496 102.445 141.667C101.603 144.714 97.6957 146.609 94.5234 146.123L46.2439 138.74C43.2865 138.288 41.1459 135.801 41.036 132.921C41.0211 132.533 41.0405 132.14 41.102 131.743L41.6487 128.174L103.106 137.572Z" fill="#CEDEE7"/>
<path d="M103.109 137.572L102.561 141.141C102.533 141.321 102.496 141.496 102.447 141.667L102.415 141.662L102.559 140.722L41.168 131.335L41.6513 128.174L103.109 137.572Z" fill="#2A8FEC"/>
<path fill-rule="evenodd" clip-rule="evenodd" d="M85.7998 114.75L101.855 117.203L99.395 133.245L83.34 130.793L85.7998 114.75ZM67.3695 111.931L83.4236 114.384L80.9638 130.426L64.9102 127.974L67.3695 111.931ZM48.9402 109.113L64.9948 111.566L62.5354 127.608L46.4805 125.156L48.9402 109.113Z" fill="white"/>
<path fill-rule="evenodd" clip-rule="evenodd" d="M101.729 22.0961C102.54 22.2203 103.298 21.6638 103.422 20.8538C103.547 20.0432 102.99 19.2863 102.179 19.1622C101.369 19.0386 100.61 19.5945 100.486 20.4052C100.362 21.2151 100.918 21.9727 101.729 22.0961ZM80.1493 18.077C80.5717 18.1416 80.9665 17.8519 81.0315 17.4294C81.0961 17.0069 80.806 16.6123 80.3836 16.5476C79.9607 16.483 79.5656 16.7729 79.5014 17.1954C79.4359 17.6177 79.7265 18.0124 80.1493 18.077ZM78.0626 16.9761C77.9975 17.3979 77.6028 17.6885 77.1804 17.6238C76.7575 17.5584 76.4678 17.1646 76.5325 16.7421C76.5975 16.3195 76.9922 16.0298 77.4146 16.0945C77.8375 16.159 78.1272 16.5537 78.0626 16.9761ZM86.2452 18.6439L93.3424 19.7287C93.5674 19.7636 93.778 19.609 93.8123 19.3837C93.8466 19.1584 93.6918 18.9482 93.4663 18.9139L86.3696 17.829C86.145 17.7948 85.9345 17.9487 85.8993 18.1741C85.865 18.3992 86.0193 18.6097 86.2452 18.6439Z" fill="#DEEDF2"/>
<path d="M119.078 33.326L116.45 50.4838L54.9922 41.0869L57.6208 23.9292C58.1346 20.577 61.2674 18.2736 64.623 18.7869L112.901 26.1692C116.254 26.6817 119.592 29.9739 119.078 33.326Z" fill="#2A8FEC"/>
<path fill-rule="evenodd" clip-rule="evenodd" d="M106.807 113.434L45.3516 104.034L54.988 41.1328L116.443 50.5333L106.807 113.434Z" fill="white"/>
<path fill-rule="evenodd" clip-rule="evenodd" d="M64.1575 53.4819L71.5443 54.612L71.2783 56.3501L65.6295 55.4859L64.7654 61.1342L63.0273 60.8683L64.1575 53.4819Z" fill="#34466B"/>
<path fill-rule="evenodd" clip-rule="evenodd" d="M98.0157 99.5741L90.6289 98.4436L90.8948 96.706L96.5436 97.5702L97.4078 91.9214L99.1458 92.1878L98.0157 99.5741Z" fill="#34466B"/>
<path fill-rule="evenodd" clip-rule="evenodd" d="M104.133 59.5998L103.003 66.9862L101.265 66.7202L102.129 61.0714L96.4805 60.2073L96.7464 58.4692L104.133 59.5998Z" fill="#34466B"/>
<path fill-rule="evenodd" clip-rule="evenodd" d="M58.0391 93.4562L59.1692 86.0698L60.9072 86.3358L60.043 91.9841L65.6914 92.8483L65.4254 94.5863L58.0391 93.4562Z" fill="#34466B"/>
<path fill-rule="evenodd" clip-rule="evenodd" d="M84.0894 68.8406C84.1795 68.2521 83.7751 67.7017 83.1861 67.6112C82.5971 67.5211 82.0468 67.9255 81.9567 68.5145L80.6516 77.0446C80.5171 77.7501 79.9268 78.0248 78.3514 77.7839C77.7624 77.6938 77.212 78.0982 77.1219 78.6868C77.0318 79.2758 77.4362 79.8261 78.0248 79.9162C80.6204 80.3136 82.383 79.4934 82.7778 77.4081L84.0894 68.8406ZM86.57 83.7262C82.2491 86.9002 76.1731 85.9706 72.9985 81.6493C72.646 81.1693 71.9709 81.066 71.4909 81.4185C71.0109 81.7715 70.9076 82.4462 71.2601 82.9266C75.1396 88.2079 82.566 89.3442 87.8473 85.4646C88.3273 85.1121 88.4306 84.4369 88.0781 83.9569C87.7251 83.4765 87.05 83.3732 86.57 83.7262ZM73.5856 66.1424C74.1746 66.2326 74.579 66.7833 74.4889 67.3719L73.8361 71.6369C73.746 72.226 73.1957 72.6304 72.6067 72.5402C72.0177 72.4501 71.6137 71.8998 71.7038 71.3108L72.3561 67.0457C72.4462 66.4567 72.997 66.0523 73.5856 66.1424ZM91.5476 69.9837C91.6377 69.3947 91.2333 68.8444 90.6448 68.7543C90.0557 68.6642 89.5054 69.0685 89.4153 69.6571L88.7626 73.9222C88.6725 74.5112 89.0768 75.0615 89.6659 75.1516C90.2544 75.2417 90.8052 74.8373 90.8953 74.2488L91.5476 69.9837Z" fill="#2A8FEC"/>
</svg>
