<svg width="160" height="160" viewBox="0 0 160 160" fill="none" xmlns="http://www.w3.org/2000/svg">
<path fill-rule="evenodd" clip-rule="evenodd" d="M82.2156 148.555C42.6599 148.555 10.5938 145.795 10.5938 142.39C10.5938 138.985 42.6599 136.225 82.2156 136.225C121.771 136.225 153.838 138.985 153.838 142.39C153.838 145.795 121.771 148.555 82.2156 148.555Z" fill="#CEDEE7"/>
<path fill-rule="evenodd" clip-rule="evenodd" d="M60.8205 29.0975C52.6728 37.764 41.8782 43.4203 30.1798 45.5463C23.0793 46.8366 16.2852 50.2281 10.7952 55.721C-3.58427 70.1075 -3.60059 93.3079 10.7595 107.714C17.0942 114.069 25.1717 117.62 33.4544 118.369C40.5453 119.009 47.2075 122.105 52.1272 127.256C52.1906 127.323 52.2544 127.389 52.3183 127.454C60.7108 136.022 74.2867 136.107 82.7809 127.641C82.8296 127.592 82.8779 127.543 82.9257 127.495C85.1947 125.19 88.4698 124.184 91.6432 124.8C109.736 128.316 129.194 123.063 143.207 109.038C165.598 86.6286 165.598 50.2298 143.207 27.8201C120.798 5.39288 84.4669 5.39302 62.0585 27.8204C61.6378 28.2413 61.2251 28.667 60.8205 29.0975Z" fill="#EAF7FE"/>
<path fill-rule="evenodd" clip-rule="evenodd" d="M108.836 133.308C107.196 130.844 107.046 127.521 107.046 127.521H96.1133C96.1133 127.521 95.9641 130.844 94.323 133.308C92.6814 135.772 89.25 137.312 89.25 137.312H113.91C113.91 137.312 110.478 135.772 108.836 133.308Z" fill="#34466B"/>
<path fill-rule="evenodd" clip-rule="evenodd" d="M152.363 129.697H50.4329C48.4378 129.697 46.8203 128.08 46.8203 126.085V58.966C46.8203 56.9715 48.4378 55.355 50.4329 55.355H152.363C154.358 55.355 155.976 56.9715 155.976 58.966V126.085C155.976 128.08 154.358 129.697 152.363 129.697Z" fill="#34466B"/>
<path fill-rule="evenodd" clip-rule="evenodd" d="M46.8203 119.18V126.014C46.8203 128.048 48.4378 129.697 50.4329 129.697H152.363C154.358 129.697 155.976 128.048 155.976 126.014V119.18H46.8203Z" fill="#CEDEE7"/>
<path fill-rule="evenodd" clip-rule="evenodd" d="M114.59 138.4H88.5655C88.3417 138.4 88.1602 138.211 88.1602 137.978V135.921C88.1602 135.688 88.3417 135.499 88.5655 135.499H114.59C114.814 135.499 114.996 135.688 114.996 135.921V137.978C114.996 138.211 114.814 138.4 114.59 138.4Z" fill="#CEDEE7"/>
<path fill-rule="evenodd" clip-rule="evenodd" d="M52.3899 115.554C51.5164 115.554 50.8086 114.846 50.8086 113.973V60.5622C50.8086 59.6892 51.5164 58.9814 52.3899 58.9814H150.041C150.915 58.9814 151.623 59.6892 151.623 60.5622V113.973C151.623 114.846 150.915 115.554 150.041 115.554H52.3899Z" fill="#CEDEE7"/>
<path fill-rule="evenodd" clip-rule="evenodd" d="M148.722 66.1526C87.7775 67.1185 56.8762 67.1185 56.0178 66.1526C54.7303 64.7038 54.7975 68.9762 54.7975 76.2122C54.7975 81.0362 54.7975 93.3038 54.7975 113.015H148.688V76.2122C148.722 66.1526 148.722 66.1526 148.722 66.1526Z" fill="#EAF7FE"/>
<path fill-rule="evenodd" clip-rule="evenodd" d="M148.721 64.8561C148.721 64.0148 148.014 63.333 147.141 63.333H56.3767C55.504 63.333 54.7969 64.0148 54.7969 64.8561V69.1353H148.721V64.8561Z" fill="#DEEDF2"/>
<path fill-rule="evenodd" clip-rule="evenodd" d="M101.865 127.158H101.296C99.8513 127.158 98.6797 125.986 98.6797 124.541V123.973C98.6797 122.527 99.8513 121.356 101.296 121.356H101.865C103.31 121.356 104.482 122.527 104.482 123.973V124.541C104.482 125.986 103.31 127.158 101.865 127.158Z" fill="#34466B"/>
<path fill-rule="evenodd" clip-rule="evenodd" d="M137.117 65.8712C137.117 66.4721 136.63 66.9595 136.029 66.9595C135.428 66.9595 134.941 66.4721 134.941 65.8712C134.941 65.2707 135.428 64.7837 136.029 64.7837C136.63 64.7837 137.117 65.2707 137.117 65.8712Z" fill="#34466B"/>
<path fill-rule="evenodd" clip-rule="evenodd" d="M141.469 65.8712C141.469 66.4721 140.982 66.9595 140.381 66.9595C139.78 66.9595 139.293 66.4721 139.293 65.8712C139.293 65.2707 139.78 64.7837 140.381 64.7837C140.982 64.7837 141.469 65.2707 141.469 65.8712Z" fill="#34466B"/>
<path fill-rule="evenodd" clip-rule="evenodd" d="M146.184 65.8712C146.184 66.4721 145.696 66.9595 145.095 66.9595C144.495 66.9595 144.008 66.4721 144.008 65.8712C144.008 65.2707 144.495 64.7837 145.095 64.7837C145.696 64.7837 146.184 65.2707 146.184 65.8712Z" fill="#34466B"/>
<path fill-rule="evenodd" clip-rule="evenodd" d="M67.3445 26.9469C66.749 22.11 62.6266 18.3652 57.6302 18.3652C52.2246 18.3652 47.8424 22.7486 47.8424 28.1559C47.8424 29.0431 47.9602 29.9026 48.1815 30.7198C48.0984 30.7209 48.016 30.7238 47.934 30.7286L47.8419 30.721V30.7347C45.0384 30.9454 42.8286 33.2879 42.8286 36.1464C42.8286 39.005 45.0384 41.3475 47.8419 41.5582V41.5743H83.4782V41.5738H83.4783C85.6626 41.5738 87.4336 39.8021 87.4336 37.6168C87.4336 35.4316 85.6626 33.6601 83.4783 33.6601H83.4782V33.6599L74.4495 32.9153C74.4908 32.6456 74.5122 32.3693 74.5122 32.0881C74.5122 29.0908 72.0833 26.661 69.0869 26.661C68.4774 26.661 67.8913 26.7615 67.3445 26.9469Z" fill="#CEDEE7"/>
<path fill-rule="evenodd" clip-rule="evenodd" d="M45.0658 36.958C44.6591 33.6326 41.8438 31.0581 38.4316 31.0581C34.74 31.0581 31.7472 34.0717 31.7472 37.7892C31.7472 38.3991 31.8277 38.9901 31.9788 39.5519C31.9221 39.5526 31.8658 39.5546 31.8099 39.5579L31.7469 39.5527V39.5621C29.8323 39.707 28.3232 41.3174 28.3232 43.2827C28.3232 45.2479 29.8323 46.8584 31.7469 47.0032V47.0144H56.0839V47.014H56.084C57.5757 47.014 58.7852 45.7959 58.7852 44.2936C58.7852 42.7912 57.5757 41.5733 56.084 41.5733H56.0839V41.5732L49.918 41.0613C49.9462 40.8759 49.9608 40.6859 49.9608 40.4926C49.9608 38.432 48.302 36.7614 46.2557 36.7614C45.8395 36.7614 45.4392 36.8305 45.0658 36.958Z" fill="#9BC3D3"/>
<path fill-rule="evenodd" clip-rule="evenodd" d="M35.712 143.601C38.4954 143.621 45.6395 143.535 49.2848 141.603C49.2848 141.603 49.9613 139.819 49.5289 138.107C49.5289 138.107 22.6505 135.523 22.0232 138.107C21.4977 140.271 22.0851 141.715 22.0851 141.715C23.9702 143.274 32.7167 143.543 35.712 143.601Z" fill="#F6C854"/>
<path d="M49.5286 138.107C49.5286 138.107 49.3055 138.086 48.9038 138.049C49.0497 139.521 48.5429 140.862 48.5429 140.862C44.8976 142.793 37.7533 142.879 34.9701 142.86C32.2306 142.807 24.6853 142.576 21.9727 141.345C22.0318 141.583 22.0848 141.715 22.0848 141.715C23.9699 143.274 32.7164 143.543 35.7117 143.602C38.4952 143.621 45.6392 143.535 49.2845 141.603C49.2845 141.603 49.961 139.819 49.5286 138.107Z" fill="#F6C854"/>
<path d="M49.0795 138.967C49.1274 139.359 49.1436 139.751 49.1523 140.144C49.1569 140.536 49.1539 140.929 49.119 141.322C49.0708 140.93 49.0547 140.538 49.0462 140.145C49.0418 139.753 49.0447 139.36 49.0795 138.967Z" fill="#D39E00"/>
<path d="M48.0522 139.307C48.1001 139.698 48.1162 140.091 48.1249 140.483C48.1296 140.876 48.1266 141.268 48.0918 141.661C48.0435 141.27 48.0274 140.877 48.0189 140.485C48.0144 140.092 48.0174 139.7 48.0522 139.307Z" fill="#D39E00"/>
<path d="M47.0285 139.557C47.0752 139.974 47.09 140.392 47.0975 140.81C47.1009 141.228 47.0966 141.646 47.0604 142.064C47.0137 141.646 46.9986 141.229 46.9916 140.811C46.9885 140.393 46.9927 139.975 47.0285 139.557Z" fill="#D39E00"/>
<path d="M46.0844 139.855C46.1319 140.253 46.1478 140.651 46.156 141.049C46.1605 141.447 46.1573 141.846 46.1219 142.244C46.0742 141.847 46.0583 141.449 46.0502 141.051C46.046 140.652 46.0494 140.254 46.0844 139.855Z" fill="#D39E00"/>
<path d="M44.971 140.226C45.0185 140.624 45.0344 141.022 45.0429 141.42C45.0472 141.818 45.044 142.216 45.0088 142.615C44.9609 142.218 44.9449 141.82 44.9369 141.422C44.9326 141.023 44.936 140.625 44.971 140.226Z" fill="#D39E00"/>
<path fill-rule="evenodd" clip-rule="evenodd" d="M49.5297 138.107C49.5297 139.326 43.3862 140.314 35.8078 140.314C28.2294 140.314 22.0859 139.326 22.0859 138.107C22.0859 136.888 28.2294 135.901 35.8078 135.901C43.3862 135.901 49.5297 136.888 49.5297 138.107Z" fill="#D39E00"/>
<path d="M47.8595 137.995C47.8595 138.73 42.5322 139.325 35.9612 139.325C29.3895 139.325 24.0625 138.73 24.0625 137.995C24.0625 137.262 29.3895 136.667 35.9612 136.667C42.5322 136.667 47.8595 137.262 47.8595 137.995Z" fill="#F6C854"/>
<path d="M35.9609 136.667C42.238 136.671 47.3488 136.914 47.8592 137.995C47.8592 137.995 47.156 137.354 35.9609 136.667Z" fill="white"/>
<path d="M24.0625 137.995C24.0625 138.729 29.3897 139.324 35.9612 139.324C39.6714 139.324 42.9449 139.139 45.1666 138.838C24.0237 138.93 24.0625 137.995 24.0625 137.995Z" fill="#F6C854"/>
<path fill-rule="evenodd" clip-rule="evenodd" d="M23.1984 138.377C25.0835 139.936 33.83 140.206 36.8255 140.264C39.6087 140.284 46.7528 140.197 50.3981 138.266C50.3981 138.266 51.0748 136.482 50.6422 134.769C50.6422 134.769 23.7638 132.186 23.1365 134.769C22.611 136.933 23.1984 138.377 23.1984 138.377Z" fill="#F6C854"/>
<path fill-rule="evenodd" clip-rule="evenodd" d="M50.6419 134.769C50.6419 134.769 50.4188 134.748 50.0171 134.711C50.1632 136.183 49.6562 137.524 49.6562 137.524C46.0109 139.455 38.8666 139.542 36.0834 139.522C33.3441 139.469 25.7985 139.238 23.0859 138.007C23.1453 138.246 23.1981 138.377 23.1981 138.377C25.0832 139.936 33.8297 140.206 36.8252 140.264C39.6084 140.283 46.7525 140.197 50.3978 138.266C50.3978 138.266 51.0745 136.481 50.6419 134.769Z" fill="#F6C854"/>
<path d="M50.1889 135.629C50.2368 136.021 50.2529 136.413 50.2616 136.806C50.2663 137.199 50.2633 137.591 50.2283 137.984C50.1802 137.593 50.1641 137.2 50.1556 136.808C50.1511 136.415 50.1541 136.023 50.1889 135.629Z" fill="#D39E00"/>
<path d="M49.1615 135.968C49.2095 136.36 49.2256 136.752 49.2343 137.145C49.2389 137.537 49.236 137.93 49.201 138.323C49.1528 137.931 49.1367 137.539 49.1282 137.147C49.1238 136.754 49.1268 136.361 49.1615 135.968Z" fill="#D39E00"/>
<path d="M48.138 136.219C48.1847 136.636 48.1995 137.054 48.2069 137.472C48.2103 137.89 48.2061 138.308 48.1698 138.726C48.123 138.309 48.1081 137.891 48.1009 137.473C48.0977 137.055 48.1022 136.637 48.138 136.219Z" fill="#D39E00"/>
<path d="M47.1976 136.518C47.2451 136.915 47.2611 137.313 47.2693 137.711C47.2738 138.109 47.2706 138.508 47.2352 138.907C47.1875 138.509 47.1716 138.111 47.1635 137.713C47.1593 137.315 47.1627 136.916 47.1976 136.518Z" fill="#D39E00"/>
<path d="M46.0844 136.889C46.1319 137.286 46.1478 137.684 46.156 138.082C46.1605 138.48 46.1573 138.879 46.1219 139.278C46.0742 138.88 46.0583 138.482 46.0502 138.084C46.046 137.686 46.0494 137.288 46.0844 136.889Z" fill="#D39E00"/>
<path d="M50.6391 134.769C50.6391 135.988 44.4956 136.976 36.9172 136.976C29.3388 136.976 23.1953 135.988 23.1953 134.769C23.1953 133.55 29.3388 132.563 36.9172 132.563C44.4956 132.563 50.6391 133.55 50.6391 134.769Z" fill="#D39E00"/>
<path d="M48.973 134.658C48.973 135.392 43.6457 135.987 37.0747 135.987C30.503 135.987 25.1758 135.392 25.1758 134.658C25.1758 133.924 30.503 133.329 37.0747 133.329C43.6457 133.329 48.973 133.924 48.973 134.658Z" fill="#F6C854"/>
<path d="M37.0742 133.329C43.3513 133.333 48.4618 133.576 48.9725 134.658C48.9725 134.658 48.2693 134.016 37.0742 133.329Z" fill="white"/>
<path d="M25.1758 134.658C25.1758 135.392 30.503 135.987 37.0745 135.987C40.7847 135.987 44.0582 135.801 46.2799 135.5C25.137 135.593 25.1758 134.658 25.1758 134.658Z" fill="#F6C854"/>
<path fill-rule="evenodd" clip-rule="evenodd" d="M22.0851 135.41C23.9702 136.969 32.7167 137.238 35.712 137.297C38.4954 137.316 45.6395 137.23 49.2848 135.299C49.2848 135.299 49.9613 133.514 49.5289 131.802C49.5289 131.802 22.6505 129.218 22.0232 131.802C21.4977 133.966 22.0851 135.41 22.0851 135.41Z" fill="#F6C854"/>
<path d="M49.5286 131.803C49.5286 131.803 49.3055 131.781 48.9038 131.745C49.0497 133.216 48.5429 134.557 48.5429 134.557C44.8976 136.489 37.7533 136.575 34.9701 136.555C32.2306 136.502 24.6853 136.271 21.9727 135.04C22.0318 135.279 22.0848 135.41 22.0848 135.41C23.9699 136.969 32.7164 137.239 35.7117 137.297C38.4952 137.317 45.6392 137.23 49.2845 135.299C49.2845 135.299 49.961 133.515 49.5286 131.803Z" fill="#F6C854"/>
<path d="M49.0795 132.662C49.1274 133.054 49.1436 133.446 49.1523 133.839C49.1569 134.231 49.1539 134.624 49.119 135.017C49.0708 134.625 49.0547 134.233 49.0462 133.841C49.0418 133.448 49.0447 133.055 49.0795 132.662Z" fill="#D39E00"/>
<path d="M48.0522 133.001C48.1001 133.393 48.1162 133.785 48.1249 134.178C48.1296 134.57 48.1266 134.963 48.0918 135.356C48.0435 134.965 48.0274 134.572 48.0189 134.18C48.0144 133.787 48.0174 133.395 48.0522 133.001Z" fill="#D39E00"/>
<path d="M47.0285 133.252C47.0752 133.669 47.09 134.087 47.0975 134.505C47.1009 134.923 47.0966 135.341 47.0604 135.759C47.0137 135.342 46.9986 134.924 46.9916 134.506C46.9885 134.088 46.9927 133.67 47.0285 133.252Z" fill="#D39E00"/>
<path d="M46.0844 133.551C46.1319 133.948 46.1478 134.346 46.156 134.745C46.1605 135.143 46.1573 135.541 46.1219 135.94C46.0742 135.542 46.0583 135.144 46.0502 134.746C46.046 134.348 46.0494 133.95 46.0844 133.551Z" fill="#D39E00"/>
<path d="M44.971 133.921C45.0185 134.319 45.0344 134.717 45.0429 135.115C45.0472 135.513 45.044 135.911 45.0088 136.31C44.9609 135.913 44.9449 135.515 44.9369 135.117C44.9326 134.719 44.936 134.32 44.971 133.921Z" fill="#D39E00"/>
<path fill-rule="evenodd" clip-rule="evenodd" d="M49.5297 131.802C49.5297 133.021 43.3862 134.009 35.8078 134.009C28.2294 134.009 22.0859 133.021 22.0859 131.802C22.0859 130.584 28.2294 129.596 35.8078 129.596C43.3862 129.596 49.5297 130.584 49.5297 131.802Z" fill="#D39E00"/>
<path d="M47.8595 131.691C47.8595 132.425 42.5322 133.02 35.9612 133.02C29.3895 133.02 24.0625 132.425 24.0625 131.691C24.0625 130.957 29.3895 130.362 35.9612 130.362C42.5322 130.362 47.8595 130.957 47.8595 131.691Z" fill="#F6C854"/>
<path d="M35.9609 130.362C42.238 130.366 47.3488 130.609 47.8592 131.691C47.8592 131.691 47.156 131.049 35.9609 130.362Z" fill="white"/>
<path d="M24.0625 131.69C24.0625 132.424 29.3897 133.02 35.9612 133.02C39.6714 133.02 42.9449 132.834 45.1666 132.533C24.0237 132.625 24.0625 131.69 24.0625 131.69Z" fill="#F6C854"/>
<path fill-rule="evenodd" clip-rule="evenodd" d="M23.5695 132.072C25.4546 133.632 34.2011 133.901 37.1964 133.959C39.9798 133.979 47.1239 133.893 50.7692 131.961C50.7692 131.961 51.4457 130.177 51.0133 128.465C51.0133 128.465 24.1349 125.881 23.5076 128.465C22.9821 130.629 23.5695 132.072 23.5695 132.072Z" fill="#F6C854"/>
<path d="M51.013 128.465C51.013 128.465 50.7899 128.443 50.3882 128.407C50.5343 129.879 50.0273 131.219 50.0273 131.219C46.382 133.151 39.2379 133.237 36.4545 133.217C33.7151 133.164 26.1696 132.933 23.457 131.702C23.5164 131.941 23.5692 132.072 23.5692 132.072C25.4543 133.631 34.2008 133.901 37.1963 133.959C39.9795 133.978 47.1238 133.892 50.7689 131.961C50.7689 131.961 51.4454 130.176 51.013 128.465Z" fill="#F6C854"/>
<path d="M50.56 129.325C50.6079 129.717 50.624 130.109 50.6327 130.501C50.6374 130.894 50.6344 131.287 50.5994 131.68C50.5513 131.288 50.5352 130.896 50.5267 130.503C50.5222 130.111 50.5252 129.718 50.56 129.325Z" fill="#D39E00"/>
<path d="M49.5326 129.664C49.5806 130.056 49.5967 130.448 49.6054 130.841C49.61 131.233 49.6071 131.626 49.5723 132.019C49.5239 131.627 49.5078 131.235 49.4993 130.842C49.4949 130.45 49.4979 130.057 49.5326 129.664Z" fill="#D39E00"/>
<path d="M48.509 129.914C48.5557 130.331 48.5705 130.749 48.5779 131.167C48.5813 131.585 48.5771 132.003 48.5408 132.421C48.4942 132.004 48.4791 131.586 48.4721 131.168C48.4689 130.75 48.4732 130.332 48.509 129.914Z" fill="#D39E00"/>
<path d="M47.5686 130.213C47.6161 130.61 47.6321 131.008 47.6405 131.406C47.6448 131.805 47.6416 132.203 47.6064 132.602C47.5585 132.204 47.5426 131.806 47.5345 131.408C47.5305 131.01 47.5337 130.612 47.5686 130.213Z" fill="#D39E00"/>
<path d="M46.4555 130.584C46.503 130.981 46.5189 131.379 46.5271 131.778C46.5316 132.176 46.5284 132.574 46.493 132.973C46.4453 132.575 46.4294 132.177 46.4213 131.779C46.4171 131.381 46.4205 130.983 46.4555 130.584Z" fill="#D39E00"/>
<path d="M51.0141 128.465C51.0141 129.683 44.8706 130.671 37.2922 130.671C29.7138 130.671 23.5703 129.683 23.5703 128.465C23.5703 127.246 29.7138 126.258 37.2922 126.258C44.8706 126.258 51.0141 127.246 51.0141 128.465Z" fill="#D39E00"/>
<path d="M49.3439 128.353C49.3439 129.087 44.0166 129.682 37.4456 129.682C30.8739 129.682 25.5469 129.087 25.5469 128.353C25.5469 127.619 30.8739 127.024 37.4456 127.024C44.0166 127.024 49.3439 127.619 49.3439 128.353Z" fill="#F6C854"/>
<path d="M37.4453 127.024C43.7224 127.028 48.8331 127.271 49.3436 128.353C49.3436 128.353 48.6404 127.712 37.4453 127.024Z" fill="white"/>
<path d="M25.5469 128.353C25.5469 129.087 30.8741 129.682 37.4456 129.682C41.1558 129.682 44.4293 129.496 46.651 129.195C25.5081 129.288 25.5469 128.353 25.5469 128.353Z" fill="#F6C854"/>
<path fill-rule="evenodd" clip-rule="evenodd" d="M21.714 128.734C23.5991 130.294 32.3454 130.563 35.3409 130.621C38.1244 130.641 45.2684 130.555 48.9137 128.624C48.9137 128.624 49.5902 126.839 49.1578 125.127C49.1578 125.127 22.2794 122.543 21.6521 125.127C21.1266 127.291 21.714 128.734 21.714 128.734Z" fill="#F6C854"/>
<path fill-rule="evenodd" clip-rule="evenodd" d="M49.1575 125.127C49.1575 125.127 48.9344 125.105 48.5327 125.069C48.6789 126.541 48.1718 127.881 48.1718 127.881C44.5265 129.813 37.3824 129.899 34.599 129.879C31.8597 129.826 24.3142 129.596 21.6016 128.364C21.6609 128.603 21.7137 128.734 21.7137 128.734C23.5989 130.293 32.3453 130.563 35.3408 130.621C38.1241 130.641 45.2683 130.555 48.9134 128.623C48.9134 128.623 49.5899 126.839 49.1575 125.127Z" fill="#F6C854"/>
<path d="M48.7084 125.987C48.7563 126.379 48.7725 126.771 48.7812 127.164C48.7858 127.556 48.7829 127.949 48.7479 128.342C48.6997 127.95 48.6836 127.558 48.6751 127.166C48.6707 126.773 48.6736 126.38 48.7084 125.987Z" fill="#D39E00"/>
<path d="M47.6811 126.326C47.729 126.718 47.7451 127.11 47.7538 127.503C47.7585 127.895 47.7555 128.288 47.7205 128.681C47.6724 128.289 47.6563 127.897 47.6478 127.505C47.6433 127.112 47.6463 126.719 47.6811 126.326Z" fill="#D39E00"/>
<path d="M46.6575 126.576C46.7042 126.994 46.719 127.411 46.7264 127.829C46.7298 128.247 46.7256 128.665 46.6893 129.083C46.6425 128.666 46.6276 128.248 46.6204 127.83C46.6174 127.412 46.6217 126.995 46.6575 126.576Z" fill="#D39E00"/>
<path d="M45.7133 126.875C45.7608 127.273 45.7767 127.67 45.7849 128.069C45.7894 128.467 45.7862 128.865 45.751 129.264C45.7031 128.867 45.6872 128.469 45.6791 128.07C45.6749 127.672 45.6783 127.274 45.7133 126.875Z" fill="#D39E00"/>
<path d="M44.6 127.246C44.6475 127.644 44.6634 128.042 44.6717 128.44C44.6761 128.838 44.6729 129.236 44.6375 129.635C44.5898 129.237 44.5739 128.84 44.5658 128.441C44.5616 128.043 44.565 127.645 44.6 127.246Z" fill="#D39E00"/>
<path fill-rule="evenodd" clip-rule="evenodd" d="M49.1586 125.127C49.1586 126.346 43.0151 127.334 35.4367 127.334C27.8583 127.334 21.7148 126.346 21.7148 125.127C21.7148 123.908 27.8583 122.921 35.4367 122.921C43.0151 122.921 49.1586 123.908 49.1586 125.127Z" fill="#D39E00"/>
<path d="M47.4886 125.015C47.4886 125.749 42.1614 126.344 35.5903 126.344C29.0186 126.344 23.6914 125.749 23.6914 125.015C23.6914 124.281 29.0186 123.686 35.5903 123.686C42.1614 123.686 47.4886 124.281 47.4886 125.015Z" fill="#F6C854"/>
<path d="M35.5898 123.686C41.867 123.69 46.9775 123.933 47.4881 125.015C47.4881 125.015 46.7849 124.374 35.5898 123.686Z" fill="white"/>
<path d="M23.6914 125.015C23.6914 125.749 29.0186 126.344 35.5901 126.344C39.3003 126.344 42.5738 126.158 44.7955 125.857C23.6526 125.95 23.6914 125.015 23.6914 125.015Z" fill="#F6C854"/>
<path fill-rule="evenodd" clip-rule="evenodd" d="M23.1984 125.768C25.0835 127.327 33.83 127.596 36.8255 127.655C39.6087 127.674 46.7528 127.588 50.3981 125.657C50.3981 125.657 51.0748 123.872 50.6422 122.16C50.6422 122.16 23.7638 119.576 23.1365 122.16C22.611 124.324 23.1984 125.768 23.1984 125.768Z" fill="#F6C854"/>
<path d="M50.6419 122.16C50.6419 122.16 50.4188 122.139 50.0171 122.102C50.1632 123.574 49.6562 124.915 49.6562 124.915C46.0109 126.846 38.8666 126.932 36.0834 126.913C33.3441 126.859 25.7985 126.629 23.0859 125.397C23.1453 125.636 23.1981 125.768 23.1981 125.768C25.0832 127.327 33.8297 127.596 36.8252 127.655C39.6084 127.674 46.7525 127.588 50.3978 125.656C50.3978 125.656 51.0745 123.872 50.6419 122.16Z" fill="#F6C854"/>
<path d="M50.6391 122.16C50.6391 123.379 44.4956 124.367 36.9172 124.367C29.3388 124.367 23.1953 123.379 23.1953 122.16C23.1953 120.942 29.3388 119.954 36.9172 119.954C44.4956 119.954 50.6391 120.942 50.6391 122.16Z" fill="#D39E00"/>
<path d="M48.973 122.048C48.973 122.782 43.6457 123.377 37.0747 123.377C30.503 123.377 25.1758 122.782 25.1758 122.048C25.1758 121.314 30.503 120.719 37.0747 120.719C43.6457 120.719 48.973 121.314 48.973 122.048Z" fill="#F6C854"/>
<path d="M37.0742 120.719C43.3513 120.723 48.4618 120.966 48.9725 122.048C48.9725 122.048 48.2693 121.407 37.0742 120.719Z" fill="white"/>
<path d="M25.1758 122.048C25.1758 122.783 30.503 123.378 37.0745 123.378C40.7847 123.378 44.0582 123.192 46.2799 122.891C25.137 122.983 25.1758 122.048 25.1758 122.048Z" fill="#F6C854"/>
<path fill-rule="evenodd" clip-rule="evenodd" d="M23.1984 122.43C25.0835 123.989 33.83 124.259 36.8255 124.317C39.6087 124.336 46.7528 124.25 50.3981 122.319C50.3981 122.319 51.0748 120.534 50.6422 118.822C50.6422 118.822 23.7638 116.238 23.1365 118.822C22.611 120.986 23.1984 122.43 23.1984 122.43Z" fill="#F6C854"/>
<path fill-rule="evenodd" clip-rule="evenodd" d="M50.6419 118.823C50.6419 118.823 50.4188 118.801 50.0171 118.765C50.1632 120.236 49.6562 121.577 49.6562 121.577C46.0109 123.509 38.8666 123.595 36.0834 123.575C33.3441 123.522 25.7985 123.291 23.0859 122.06C23.1453 122.299 23.1981 122.43 23.1981 122.43C25.0832 123.989 33.8297 124.259 36.8252 124.317C39.6084 124.336 46.7525 124.25 50.3978 122.319C50.3978 122.319 51.0745 120.534 50.6419 118.823Z" fill="#F6C854"/>
<path fill-rule="evenodd" clip-rule="evenodd" d="M50.6391 118.822C50.6391 120.041 44.4956 121.029 36.9172 121.029C29.3388 121.029 23.1953 120.041 23.1953 118.822C23.1953 117.603 29.3388 116.616 36.9172 116.616C44.4956 116.616 50.6391 117.603 50.6391 118.822Z" fill="#D39E00"/>
<path d="M48.973 118.711C48.973 119.445 43.6457 120.04 37.0747 120.04C30.503 120.04 25.1758 119.445 25.1758 118.711C25.1758 117.977 30.503 117.382 37.0747 117.382C43.6457 117.382 48.973 117.977 48.973 118.711Z" fill="#F6C854"/>
<path d="M37.0742 117.382C43.3513 117.386 48.4618 117.629 48.9725 118.711C48.9725 118.711 48.2693 118.07 37.0742 117.382Z" fill="white"/>
<path d="M25.1758 118.71C25.1758 119.445 30.503 120.04 37.0745 120.04C40.7847 120.04 44.0582 119.854 46.2799 119.553C25.137 119.646 25.1758 118.71 25.1758 118.71Z" fill="#F6C854"/>
<path fill-rule="evenodd" clip-rule="evenodd" d="M22.0851 119.463C23.9702 121.022 32.7167 121.292 35.712 121.35C38.4954 121.37 45.6395 121.283 49.2848 119.352C49.2848 119.352 49.9613 117.568 49.5289 115.856C49.5289 115.856 22.6505 113.271 22.0232 115.856C21.4977 118.019 22.0851 119.463 22.0851 119.463Z" fill="#F6C854"/>
<path fill-rule="evenodd" clip-rule="evenodd" d="M49.5286 115.855C49.5286 115.855 49.3055 115.834 48.9038 115.797C49.0497 117.269 48.5429 118.61 48.5429 118.61C44.8976 120.541 37.7533 120.628 34.9701 120.608C32.2306 120.555 24.6853 120.324 21.9727 119.093C22.0318 119.331 22.0848 119.463 22.0848 119.463C23.9699 121.022 32.7164 121.292 35.7117 121.35C38.4952 121.369 45.6392 121.283 49.2845 119.351C49.2845 119.351 49.961 117.567 49.5286 115.855Z" fill="#F6C854"/>
<path d="M49.5297 115.855C49.5297 117.074 43.3862 118.062 35.8078 118.062C28.2294 118.062 22.0859 117.074 22.0859 115.855C22.0859 114.637 28.2294 113.649 35.8078 113.649C43.3862 113.649 49.5297 114.637 49.5297 115.855Z" fill="#D39E00"/>
<path d="M47.8595 115.743C47.8595 116.478 42.5322 117.073 35.9612 117.073C29.3895 117.073 24.0625 116.478 24.0625 115.743C24.0625 115.01 29.3895 114.415 35.9612 114.415C42.5322 114.415 47.8595 115.01 47.8595 115.743Z" fill="#F6C854"/>
<path d="M35.9609 114.415C42.238 114.419 47.3488 114.662 47.8592 115.743C47.8592 115.743 47.156 115.102 35.9609 114.415Z" fill="white"/>
<path d="M24.0625 115.744C24.0625 116.478 29.3897 117.073 35.9612 117.073C39.6714 117.073 42.9449 116.887 45.1666 116.586C24.0237 116.679 24.0625 115.744 24.0625 115.744Z" fill="#F6C854"/>
<path fill-rule="evenodd" clip-rule="evenodd" d="M23.9406 116.496C25.8257 118.056 34.5722 118.325 37.5677 118.383C40.3509 118.403 47.495 118.317 51.1403 116.385C51.1403 116.385 51.8168 114.601 51.3844 112.889C51.3844 112.889 24.506 110.305 23.8787 112.889C23.3532 115.053 23.9406 116.496 23.9406 116.496Z" fill="#F6C854"/>
<path fill-rule="evenodd" clip-rule="evenodd" d="M51.3841 112.888C51.3841 112.888 51.161 112.867 50.7593 112.831C50.9052 114.302 50.3984 115.643 50.3984 115.643C46.7531 117.575 39.6088 117.661 36.8256 117.641C34.0862 117.588 26.5407 117.357 23.8281 116.126C23.8875 116.365 23.9403 116.496 23.9403 116.496C25.8254 118.055 34.5719 118.325 37.5674 118.383C40.3506 118.403 47.4947 118.316 51.14 116.385C51.14 116.385 51.8165 114.6 51.3841 112.888Z" fill="#F6C854"/>
<path fill-rule="evenodd" clip-rule="evenodd" d="M51.3852 112.888C51.3852 114.107 45.2417 115.095 37.6633 115.095C30.0849 115.095 23.9414 114.107 23.9414 112.888C23.9414 111.67 30.0849 110.682 37.6633 110.682C45.2417 110.682 51.3852 111.67 51.3852 112.888Z" fill="#D39E00"/>
<path d="M49.7152 112.777C49.7152 113.511 44.3879 114.106 37.8169 114.106C31.2452 114.106 25.918 113.511 25.918 112.777C25.918 112.043 31.2452 111.448 37.8169 111.448C44.3879 111.448 49.7152 112.043 49.7152 112.777Z" fill="#F6C854"/>
<path d="M37.8164 111.448C44.0935 111.452 49.204 111.695 49.7147 112.777C49.7147 112.777 49.0115 112.136 37.8164 111.448Z" fill="white"/>
<path d="M25.918 112.777C25.918 113.511 31.2452 114.106 37.8167 114.106C41.5269 114.106 44.8004 113.92 47.0221 113.619C25.8792 113.712 25.918 112.777 25.918 112.777Z" fill="#F6C854"/>
<path fill-rule="evenodd" clip-rule="evenodd" d="M23.1984 113.158C25.0835 114.718 33.83 114.987 36.8255 115.045C39.6087 115.065 46.7528 114.979 50.3981 113.047C50.3981 113.047 51.0748 111.263 50.6422 109.551C50.6422 109.551 23.7638 106.967 23.1365 109.551C22.611 111.715 23.1984 113.158 23.1984 113.158Z" fill="#F6C854"/>
<path d="M50.6419 109.551C50.6419 109.551 50.4188 109.529 50.0171 109.493C50.1632 110.965 49.6562 112.305 49.6562 112.305C46.0109 114.237 38.8666 114.323 36.0834 114.304C33.3441 114.25 25.7985 114.02 23.0859 112.789C23.1453 113.027 23.1981 113.159 23.1981 113.159C25.0832 114.718 33.8297 114.987 36.8252 115.045C39.6084 115.065 46.7525 114.979 50.3978 113.047C50.3978 113.047 51.0745 111.263 50.6419 109.551Z" fill="#F6C854"/>
<path d="M50.6391 109.551C50.6391 110.77 44.4956 111.758 36.9172 111.758C29.3388 111.758 23.1953 110.77 23.1953 109.551C23.1953 108.332 29.3388 107.345 36.9172 107.345C44.4956 107.345 50.6391 108.332 50.6391 109.551Z" fill="#D39E00"/>
<path d="M48.973 109.439C48.973 110.173 43.6457 110.768 37.0747 110.768C30.503 110.768 25.1758 110.173 25.1758 109.439C25.1758 108.705 30.503 108.11 37.0747 108.11C43.6457 108.11 48.973 108.705 48.973 109.439Z" fill="#F6C854"/>
<path d="M37.0742 108.11C43.3513 108.114 48.4618 108.357 48.9725 109.439C48.9725 109.439 48.2693 108.798 37.0742 108.11Z" fill="white"/>
<path d="M25.1758 109.439C25.1758 110.173 30.503 110.768 37.0745 110.768C40.7847 110.768 44.0582 110.582 46.2799 110.282C25.137 110.374 25.1758 109.439 25.1758 109.439Z" fill="#F6C854"/>
<path fill-rule="evenodd" clip-rule="evenodd" d="M24.3117 110.192C26.1968 111.751 34.9431 112.02 37.9386 112.078C40.722 112.098 47.8661 112.012 51.5114 110.08C51.5114 110.08 52.1879 108.296 51.7555 106.584C51.7555 106.584 24.8771 104 24.2498 106.584C23.7243 108.748 24.3117 110.192 24.3117 110.192Z" fill="#F6C854"/>
<path d="M51.7552 106.584C51.7552 106.584 51.5321 106.562 51.1304 106.526C51.2763 107.998 50.7692 109.338 50.7692 109.338C47.1242 111.27 39.9799 111.356 37.1967 111.337C34.4571 111.283 26.9118 111.053 24.1992 109.821C24.2584 110.06 24.3114 110.191 24.3114 110.191C26.1963 111.75 34.9428 112.02 37.9383 112.078C40.7217 112.098 47.8658 112.012 51.5111 110.08C51.5111 110.08 52.1876 108.296 51.7552 106.584Z" fill="#F6C854"/>
<path fill-rule="evenodd" clip-rule="evenodd" d="M51.7563 106.584C51.7563 107.802 45.6128 108.79 38.0344 108.79C30.456 108.79 24.3125 107.802 24.3125 106.584C24.3125 105.365 30.456 104.377 38.0344 104.377C45.6128 104.377 51.7563 105.365 51.7563 106.584Z" fill="#D39E00"/>
<path d="M50.086 106.472C50.086 107.206 44.7588 107.801 38.1878 107.801C31.6161 107.801 26.2891 107.206 26.2891 106.472C26.2891 105.738 31.6161 105.143 38.1878 105.143C44.7588 105.143 50.086 105.738 50.086 106.472Z" fill="#F6C854"/>
<path d="M38.1875 105.143C44.4646 105.147 49.5751 105.39 50.0858 106.472C50.0858 106.472 49.3825 105.831 38.1875 105.143Z" fill="white"/>
<path d="M26.2891 106.472C26.2891 107.206 31.6163 107.801 38.1878 107.801C41.898 107.801 45.1715 107.615 47.3932 107.314C26.2503 107.407 26.2891 106.472 26.2891 106.472Z" fill="#F6C854"/>
<path fill-rule="evenodd" clip-rule="evenodd" d="M22.8273 107.224C24.7124 108.784 33.4589 109.053 36.4542 109.111C39.2376 109.131 46.3817 109.045 50.027 107.113C50.027 107.113 50.7035 105.329 50.2711 103.617C50.2711 103.617 23.3927 101.033 22.7654 103.617C22.2399 105.781 22.8273 107.224 22.8273 107.224Z" fill="#F6C854"/>
<path d="M50.2708 103.617C50.2708 103.617 50.0477 103.596 49.646 103.559C49.7919 105.031 49.2851 106.372 49.2851 106.372C45.6398 108.303 38.4955 108.389 35.7123 108.37C32.9727 108.316 25.4275 108.086 22.7148 106.854C22.774 107.093 22.827 107.225 22.827 107.225C24.7121 108.784 33.4586 109.053 36.4539 109.111C39.2373 109.131 46.3814 109.045 50.0267 107.113C50.0267 107.113 50.7032 105.329 50.2708 103.617Z" fill="#F6C854"/>
<path fill-rule="evenodd" clip-rule="evenodd" d="M50.268 103.617C50.268 104.836 44.1245 105.824 36.5461 105.824C28.9677 105.824 22.8242 104.836 22.8242 103.617C22.8242 102.398 28.9677 101.411 36.5461 101.411C44.1245 101.411 50.268 102.398 50.268 103.617Z" fill="#D39E00"/>
<path fill-rule="evenodd" clip-rule="evenodd" d="M43.2219 144.681C45.107 146.241 53.8534 146.51 56.8489 146.568C59.6322 146.588 66.7762 146.502 70.4215 144.57C70.4215 144.57 71.098 142.786 70.6656 141.074C70.6656 141.074 43.7872 138.49 43.1599 141.074C42.6344 143.238 43.2219 144.681 43.2219 144.681Z" fill="#F6C854"/>
<path d="M70.6692 141.074C70.6692 141.074 70.4461 141.052 70.0445 141.016C70.1904 142.488 69.6835 143.828 69.6835 143.828C66.0382 145.76 58.8942 145.846 56.1107 145.827C53.3714 145.773 45.8259 145.543 43.1133 144.311C43.1724 144.55 43.2255 144.682 43.2255 144.682C45.1106 146.24 53.857 146.51 56.8526 146.568C59.6358 146.588 66.7798 146.502 70.4251 144.57C70.4251 144.57 71.1016 142.786 70.6692 141.074Z" fill="#F6C854"/>
<path fill-rule="evenodd" clip-rule="evenodd" d="M70.6703 141.074C70.6703 142.293 64.5268 143.281 56.9484 143.281C49.3701 143.281 43.2266 142.293 43.2266 141.074C43.2266 139.855 49.3701 138.868 56.9484 138.868C64.5268 138.868 70.6703 139.855 70.6703 141.074Z" fill="#D39E00"/>
<path d="M69.0003 140.962C69.0003 141.696 63.6731 142.291 57.102 142.291C50.5304 142.291 45.2031 141.696 45.2031 140.962C45.2031 140.228 50.5304 139.633 57.102 139.633C63.6731 139.633 69.0003 140.228 69.0003 140.962Z" fill="#F6C854"/>
<path d="M57.1016 139.633C63.3787 139.637 68.4892 139.88 68.9998 140.962C68.9998 140.962 68.2966 140.321 57.1016 139.633Z" fill="white"/>
<path d="M45.2031 140.962C45.2031 141.697 50.5304 142.292 57.1018 142.292C60.812 142.292 64.0856 142.106 66.3072 141.805C45.1643 141.897 45.2031 140.962 45.2031 140.962Z" fill="#F6C854"/>
<path fill-rule="evenodd" clip-rule="evenodd" d="M45.0773 141.715C46.9624 143.274 55.7089 143.543 58.7042 143.601C61.4876 143.621 68.6319 143.535 72.277 141.603C72.277 141.603 72.9537 139.819 72.5213 138.107C72.5213 138.107 45.6427 135.523 45.0154 138.107C44.4899 140.271 45.0773 141.715 45.0773 141.715Z" fill="#F6C854"/>
<path fill-rule="evenodd" clip-rule="evenodd" d="M72.521 138.107C72.521 138.107 72.2977 138.086 71.8962 138.049C72.0421 139.521 71.5353 140.862 71.5353 140.862C67.8898 142.793 60.7457 142.879 57.9625 142.86C55.223 142.807 47.6777 142.576 44.9648 141.345C45.0242 141.583 45.077 141.715 45.077 141.715C46.9621 143.274 55.7088 143.543 58.7041 143.602C61.4876 143.621 68.6316 143.535 72.2769 141.603C72.2769 141.603 72.9534 139.819 72.521 138.107Z" fill="#F6C854"/>
<path fill-rule="evenodd" clip-rule="evenodd" d="M72.5221 138.107C72.5221 139.326 66.3786 140.314 58.8002 140.314C51.2218 140.314 45.0781 139.326 45.0781 138.107C45.0781 136.888 51.2218 135.901 58.8002 135.901C66.3786 135.901 72.5221 136.888 72.5221 138.107Z" fill="#D39E00"/>
<path d="M70.8517 137.995C70.8517 138.73 65.5246 139.325 58.9534 139.325C52.3817 139.325 47.0547 138.73 47.0547 137.995C47.0547 137.262 52.3817 136.667 58.9534 136.667C65.5246 136.667 70.8517 137.262 70.8517 137.995Z" fill="#F6C854"/>
<path d="M58.9531 136.667C65.2304 136.671 70.3409 136.914 70.8514 137.995C70.8514 137.995 70.1482 137.354 58.9531 136.667Z" fill="white"/>
<path d="M47.0547 137.995C47.0547 138.729 52.3819 139.324 58.9534 139.324C62.6636 139.324 65.9373 139.139 68.1588 138.838C47.0159 138.93 47.0547 137.995 47.0547 137.995Z" fill="#F6C854"/>
<path fill-rule="evenodd" clip-rule="evenodd" d="M43.5929 138.377C45.4781 139.936 54.2245 140.206 57.22 140.264C60.0033 140.284 67.1473 140.197 70.7926 138.266C70.7926 138.266 71.4691 136.482 71.0367 134.769C71.0367 134.769 44.1583 132.186 43.531 134.769C43.0055 136.933 43.5929 138.377 43.5929 138.377Z" fill="#F6C854"/>
<path fill-rule="evenodd" clip-rule="evenodd" d="M71.0405 134.769C71.0405 134.769 70.8172 134.748 70.4158 134.711C70.5617 136.183 70.0548 137.524 70.0548 137.524C66.4093 139.455 59.2653 139.542 56.482 139.522C53.7425 139.469 46.1972 139.238 43.4844 138.007C43.5438 138.246 43.5968 138.377 43.5968 138.377C45.4817 139.936 54.2283 140.206 57.2239 140.264C60.0071 140.283 67.1511 140.197 70.7964 138.266C70.7964 138.266 71.4729 136.481 71.0405 134.769Z" fill="#F6C854"/>
<path d="M71.0375 134.769C71.0375 135.988 64.894 136.976 57.3156 136.976C49.7373 136.976 43.5938 135.988 43.5938 134.769C43.5938 133.55 49.7373 132.563 57.3156 132.563C64.894 132.563 71.0375 133.55 71.0375 134.769Z" fill="#D39E00"/>
<path d="M69.3673 134.658C69.3673 135.392 64.0403 135.987 57.4692 135.987C50.8973 135.987 45.5703 135.392 45.5703 134.658C45.5703 133.924 50.8973 133.329 57.4692 133.329C64.0403 133.329 69.3673 133.924 69.3673 134.658Z" fill="#F6C854"/>
<path d="M57.4727 133.329C63.7498 133.333 68.8603 133.576 69.3707 134.658C69.3707 134.658 68.6675 134.016 57.4727 133.329Z" fill="white"/>
<path d="M45.5742 134.658C45.5742 135.392 50.9012 135.987 57.4729 135.987C61.1831 135.987 64.4567 135.801 66.6783 135.5C45.5354 135.593 45.5742 134.658 45.5742 134.658Z" fill="#F6C854"/>
<path fill-rule="evenodd" clip-rule="evenodd" d="M43.964 135.039C45.8491 136.599 54.5954 136.868 57.5909 136.926C60.3741 136.946 67.5186 136.86 71.1637 134.928C71.1637 134.928 71.8402 133.144 71.4078 131.432C71.4078 131.432 44.5294 128.848 43.9021 131.432C43.3766 133.596 43.964 135.039 43.964 135.039Z" fill="#F6C854"/>
<path d="M71.4114 131.432C71.4114 131.432 71.1883 131.41 70.7869 131.374C70.9328 132.846 70.4257 134.186 70.4257 134.186C66.7804 136.118 59.6364 136.204 56.8531 136.184C54.1136 136.131 46.5681 135.9 43.8555 134.669C43.9148 134.908 43.9677 135.039 43.9677 135.039C45.8528 136.598 54.5992 136.868 57.5947 136.926C60.378 136.946 67.5222 136.86 71.1675 134.928C71.1675 134.928 71.8438 133.144 71.4114 131.432Z" fill="#F6C854"/>
<path fill-rule="evenodd" clip-rule="evenodd" d="M71.4086 131.432C71.4086 132.651 65.2651 133.639 57.6869 133.639C50.1083 133.639 43.9648 132.651 43.9648 131.432C43.9648 130.213 50.1083 129.226 57.6869 129.226C65.2651 129.226 71.4086 130.213 71.4086 131.432Z" fill="#D39E00"/>
<path d="M69.7384 131.32C69.7384 132.054 64.4114 132.649 57.8401 132.649C51.2684 132.649 45.9414 132.054 45.9414 131.32C45.9414 130.586 51.2684 129.991 57.8401 129.991C64.4114 129.991 69.7384 130.586 69.7384 131.32Z" fill="#F6C854"/>
<path d="M57.8438 129.991C64.1211 129.995 69.2314 130.238 69.742 131.32C69.742 131.32 69.0388 130.679 57.8438 129.991Z" fill="white"/>
<path d="M45.9414 131.32C45.9414 132.054 51.2686 132.649 57.8401 132.649C61.5501 132.649 64.8238 132.463 67.0453 132.162C45.9026 132.255 45.9414 131.32 45.9414 131.32Z" fill="#F6C854"/>
<path fill-rule="evenodd" clip-rule="evenodd" d="M42.8547 131.701C44.7398 133.261 53.486 133.53 56.4815 133.588C59.2648 133.608 66.409 133.522 70.0543 131.59C70.0543 131.59 70.7308 129.806 70.2984 128.094C70.2984 128.094 43.42 125.51 42.7927 128.094C42.2672 130.258 42.8547 131.701 42.8547 131.701Z" fill="#F6C854"/>
<path fill-rule="evenodd" clip-rule="evenodd" d="M70.2981 128.094C70.2981 128.094 70.075 128.073 69.6736 128.036C69.8193 129.508 69.3124 130.849 69.3124 130.849C65.6671 132.78 58.5231 132.866 55.7398 132.847C53.0003 132.794 45.4548 132.563 42.7422 131.332C42.8016 131.57 42.8544 131.702 42.8544 131.702C44.7395 133.261 53.4859 133.53 56.4815 133.588C59.2647 133.608 66.4087 133.522 70.0543 131.59C70.0543 131.59 70.7305 129.806 70.2981 128.094Z" fill="#F6C854"/>
<path fill-rule="evenodd" clip-rule="evenodd" d="M70.2992 128.094C70.2992 129.313 64.1557 130.301 56.5773 130.301C48.999 130.301 42.8555 129.313 42.8555 128.094C42.8555 126.875 48.999 125.888 56.5773 125.888C64.1557 125.888 70.2992 126.875 70.2992 128.094Z" fill="#D39E00"/>
<path fill-rule="evenodd" clip-rule="evenodd" d="M68.629 127.922C68.629 128.623 63.3018 129.191 56.7307 129.191C50.1591 129.191 44.832 128.623 44.832 127.922C44.832 127.221 50.1591 126.653 56.7307 126.653C63.3018 126.653 68.629 127.221 68.629 127.922Z" fill="#F6C854"/>
<path fill-rule="evenodd" clip-rule="evenodd" d="M48.8556 103.768C48.8556 104.469 43.5283 105.037 36.9573 105.037C30.3856 105.037 25.0586 104.469 25.0586 103.768C25.0586 103.067 30.3856 102.499 36.9573 102.499C43.5283 102.499 48.8556 103.067 48.8556 103.768Z" fill="#F6C854"/>
<path fill-rule="evenodd" clip-rule="evenodd" d="M68.6287 127.982C68.6287 127.982 67.9255 127.341 56.7305 126.653C63.0078 126.657 68.1181 126.9 68.6287 127.982Z" fill="#FFE99F"/>
<path fill-rule="evenodd" clip-rule="evenodd" d="M44.832 127.982C44.832 128.716 50.1593 129.311 56.7307 129.311C60.4407 129.311 63.7145 129.125 65.9359 128.824C44.7932 128.917 44.832 127.982 44.832 127.982Z" fill="#FFE99F"/>
<path fill-rule="evenodd" clip-rule="evenodd" d="M48.8592 103.827C48.8592 103.827 48.156 103.186 36.9609 102.499C43.2383 102.503 48.3485 102.746 48.8592 103.827Z" fill="#FFE99F"/>
<path fill-rule="evenodd" clip-rule="evenodd" d="M25.0586 103.827C25.0586 104.561 30.3858 105.156 36.9573 105.156C40.6673 105.156 43.941 104.971 46.1625 104.67C25.0198 104.762 25.0586 103.827 25.0586 103.827Z" fill="#FFE99F"/>
<path fill-rule="evenodd" clip-rule="evenodd" d="M23.0828 95.0693C22.3776 95.1143 21.7517 95.5574 21.0685 95.7492C20.649 95.8673 20.1998 95.8931 19.8153 96.1082C19.6918 96.1771 19.5612 96.3195 19.6206 96.4554C19.6412 96.503 19.6826 96.5365 19.7236 96.5658C20.0033 96.7623 20.3481 96.8285 20.6823 96.8163C21.0161 96.8045 21.3439 96.7189 21.6685 96.634C22.0565 96.5327 22.4474 96.4295 22.8099 96.2491C22.9221 96.1927 23.0346 96.1261 23.1083 96.0192C23.2074 95.8749 23.218 95.6773 23.1759 95.5037C23.1341 95.3297 23.0453 95.174 22.9575 95.021" fill="#FFC4B8"/>
<path fill-rule="evenodd" clip-rule="evenodd" d="M19.2406 115.18C19.2489 115.574 19.2255 115.968 19.17 116.359C19.1443 116.539 19.1103 116.722 19.0193 116.882C18.9276 117.041 18.7841 117.167 18.6407 117.287C18.0114 117.813 17.3356 118.288 16.6232 118.705C16.3767 118.849 16.1242 118.987 15.8516 119.078C15.8093 119.092 15.7621 119.106 15.7202 119.09C15.6228 119.054 15.6413 118.917 15.6802 118.824C16.197 117.602 17.2529 116.548 17.3182 115.229C17.3235 115.121 17.3247 115.004 17.3919 114.916C17.4927 114.785 17.6912 114.78 17.8615 114.787C18.327 114.808 18.8177 114.836 19.2096 115.079" fill="#FFC4B8"/>
<path fill-rule="evenodd" clip-rule="evenodd" d="M11.2696 114.486C10.9184 115.392 10.478 116.262 9.95708 117.078C9.90952 117.152 9.85794 117.23 9.77966 117.269C9.70686 117.305 9.62163 117.302 9.54042 117.298C8.74588 117.251 7.95865 117.067 7.22264 116.756C6.75221 116.557 6.28031 116.285 6.02132 115.837C5.94815 115.71 5.90572 115.523 6.02168 115.437C6.06448 115.405 6.11899 115.397 6.17093 115.39C6.63515 115.336 7.10448 115.403 7.57126 115.387C8.03803 115.371 8.53224 115.252 8.85196 114.904C9.15705 114.572 9.24923 114.093 9.48664 113.707C10.1041 113.966 10.7224 114.226 11.3398 114.485" fill="#FFC4B8"/>
<path fill-rule="evenodd" clip-rule="evenodd" d="M31.5958 96.4585C31.5958 96.4585 16.5581 96.5332 14.7624 97.8032C12.967 99.0727 8.10378 114.159 8.10378 114.159L11.2465 115.504C11.2465 115.504 15.6602 106.243 17.1565 103.703C18.6529 101.164 23.2912 101.612 24.8627 101.537C26.4339 101.462 31.8203 101.388 31.8203 101.388L31.5958 96.4585Z" fill="#9BC3D3"/>
<path fill-rule="evenodd" clip-rule="evenodd" d="M33.3105 96.8369C33.3105 96.8369 20.662 96.8369 18.818 97.7959C16.9743 98.7551 16.4581 101.706 16.3843 104.658C16.3105 107.609 16.5315 115.504 16.5315 115.504H19.1866C19.1866 115.504 20.662 107.609 21.1044 105.617C21.5468 103.625 21.5468 103.034 21.5468 103.034C21.5468 103.034 30.987 105.026 33.9376 104.289C36.8874 103.551 38.2891 101.559 38.2891 99.1977C38.2891 96.8369 36.6664 96.0991 36.6664 96.0991L33.3105 96.8369Z" fill="#CEDEE7"/>
<path fill-rule="evenodd" clip-rule="evenodd" d="M30.2365 70.9478C30.9912 70.4115 32.0812 70.5 32.8438 71.0244C33.6069 71.5494 34.0643 72.4369 34.2321 73.3472C34.3413 73.9391 34.3421 74.556 34.5442 75.1233C34.9272 76.1962 35.9415 76.8889 36.6901 77.7483C37.5559 78.7427 38.0943 80.0852 37.8842 81.3868C37.6636 82.7564 36.6699 83.8792 35.5716 84.728C34.1273 85.8446 32.39 86.64 30.567 86.7455C29.5201 86.8062 28.4164 86.619 27.5832 85.9823C26.7504 85.3459 26.2669 84.1896 26.6278 83.2056C26.8603 82.5714 27.3915 82.0915 27.6884 81.4844C28.0877 80.6681 28.0248 79.6964 27.7832 78.8204C27.5416 77.9445 27.1352 77.1227 26.8578 76.2576C26.6361 75.566 26.4976 74.8476 26.447 74.1231C26.396 73.4036 26.447 72.6314 26.8683 72.0456C27.236 71.5343 27.8439 71.2365 28.4623 71.1147C29.0811 70.9929 29.7179 71.0276 30.3479 71.063" fill="black"/>
<path fill-rule="evenodd" clip-rule="evenodd" d="M29.2244 81.7256C29.2244 81.7256 28.0105 83.0977 27.8646 85.1933C27.7192 87.2889 27.6947 89.6591 26.2377 91.9543C24.7812 94.2496 22.693 95.1479 22.4989 95.2976C22.3044 95.4474 23.4829 96.0992 23.4829 96.0992C23.4829 96.0992 25.461 95.8963 26.6749 95.2976C27.8891 94.6986 29.0058 94.7988 29.3943 93.0023C29.7829 91.2059 29.6374 83.5719 29.6374 83.5719L29.2244 81.7256Z" fill="#EC0000"/>
<path fill-rule="evenodd" clip-rule="evenodd" d="M27.8978 94.3027C26.1 94.663 24.3847 95.4086 22.9102 96.4713C22.8761 96.4957 22.8399 96.5253 22.8367 96.5661C22.8317 96.6246 22.8969 96.6633 22.9536 96.6842C23.2515 96.7939 23.5759 96.81 23.8946 96.8159C24.4101 96.825 24.9303 96.81 25.4343 96.7044C26.0312 96.5786 26.5912 96.3291 27.1457 96.0811C27.5035 95.9215 27.8806 95.7462 28.095 95.4253C28.309 95.1041 28.2703 94.593 27.9168 94.425" fill="#FFC4B8"/>
<path fill-rule="evenodd" clip-rule="evenodd" d="M33.6766 80.2881L32.8209 80.3255C32.8209 80.3255 30.6638 80.7348 30.2176 81.2189C29.7714 81.703 28.9902 83.6766 28.6928 85.5382C28.3955 87.4001 28.8043 94.6238 28.9157 95.182C29.0272 95.7407 29.2879 96.597 29.2879 96.597C29.2879 96.597 33.9369 97.6397 34.2716 97.5281C34.6063 97.4162 33.5277 89.5598 33.4904 87.0276C33.4533 84.4954 33.6766 80.4742 33.6766 80.2881Z" fill="#EC0000"/>
<path fill-rule="evenodd" clip-rule="evenodd" d="M30.3828 80.6475C30.3828 80.6475 28.9715 82.3238 28.7531 86.3641C28.6154 88.9146 29.3306 93.6442 29.3306 94.3944C29.3306 95.1453 29.5229 96.4208 29.5229 96.4208L27.9066 96.4585C27.9066 96.4585 26.9827 89.3663 27.1751 87.0396C27.3675 84.7129 27.8296 82.7239 28.5994 81.8609C29.3689 80.9975 30.3828 80.6475 30.3828 80.6475Z" fill="#9E3667"/>
<path fill-rule="evenodd" clip-rule="evenodd" d="M30.9502 71.7737C31.3305 72.6172 31.7126 73.4658 31.9491 74.3639C32.186 75.2621 32.272 76.2208 32.055 77.1244C31.8376 78.0277 31.2894 78.8693 30.4903 79.2943C29.6911 79.7194 28.6402 79.6629 27.9639 79.0499C27.6187 78.7368 27.3896 78.3103 27.1913 77.8816C26.5954 76.5918 26.2144 75.1152 26.5636 73.7319C26.6705 73.308 26.8507 72.8928 27.151 72.5842C27.3616 72.3661 27.6244 72.2094 27.896 72.082C28.8764 71.6229 30.0151 71.5381 31.049 71.8471" fill="#FFC4B8"/>
<path fill-rule="evenodd" clip-rule="evenodd" d="M29.3233 79.0428C29.5064 79.3418 30.2951 80.372 30.3068 80.6123C30.1396 80.9049 30.0481 81.228 29.9731 81.4411C29.8602 81.7627 29.7265 82.1157 29.8301 82.4405C29.9341 82.7653 30.3321 82.8519 30.6585 82.7801C30.7794 82.7536 30.8865 82.6858 30.9895 82.6162C31.7039 82.132 32.3226 81.5008 32.7979 80.771C32.8446 80.6993 32.8912 80.6226 32.8978 80.5363C32.9043 80.4427 32.8625 80.3533 32.8197 80.2706C32.3246 79.3139 31.6928 78.1363 31.7125 77.0542C30.9214 77.515 30.0039 78.3399 29.305 78.9368" fill="#FFC4B8"/>
<path d="M30.4933 70.9453C30.3347 71.6084 30.3474 72.3074 30.5298 72.9651C30.6588 73.431 30.8763 73.882 31.2173 74.2401C31.5583 74.5981 32.0306 74.8567 32.5391 74.8981C32.4802 74.4107 32.4217 73.9234 32.3624 73.4364C32.3389 73.2385 32.3147 73.0403 32.2673 72.8463" fill="black"/>
<mask id="mask0_1487_18862" style="mask-type:luminance" maskUnits="userSpaceOnUse" x="26" y="70" width="5" height="7">
<path fill-rule="evenodd" clip-rule="evenodd" d="M30.6094 70.668H26.0199V76.1147H30.6094V70.668Z" fill="white"/>
</mask>
<g mask="url(#mask0_1487_18862)">
<path d="M30.5947 71.0546C30.6936 71.5494 30.271 72.0759 29.9576 72.4719C29.4811 73.0738 28.9572 73.3932 28.2957 73.7824C27.8246 74.0594 27.3111 74.279 26.9093 74.6491C26.5076 75.0192 26.2338 75.5996 26.4152 76.1149C26.0875 74.8748 25.7688 73.5114 26.3153 72.3511C26.67 71.5979 27.3736 71.0284 28.1717 70.7912C28.9698 70.5537 29.8107 70.6759 30.5707 71.0173" fill="black"/>
</g>
<path fill-rule="evenodd" clip-rule="evenodd" d="M31.1728 74.8557C31.2394 74.8035 31.3061 74.751 31.3728 74.6988C31.4383 74.647 31.5038 74.5957 31.5692 74.5439C31.9086 74.2771 32.5007 73.927 32.8083 74.4487C33.0258 74.8166 32.8249 75.2814 32.4713 75.473C32.0443 75.705 31.4776 75.6517 31.1017 75.343" fill="#FFC4B8"/>
<path fill-rule="evenodd" clip-rule="evenodd" d="M36.5395 81.2947C36.5395 81.2947 35.8393 80.6303 34.9184 80.298C33.9974 79.9658 33.1869 79.9287 33.1869 79.9287C33.1869 79.9287 31.8977 82.4391 31.8239 85.3551C31.7502 88.2716 33.0761 99.6779 33.0761 99.6779C33.0761 99.6779 35.5818 99.7518 37.0551 99.5673C38.5288 99.3828 39.0078 99.3089 39.0078 99.3089C39.0078 99.3089 37.9394 96.0603 37.6449 93.9564C37.3497 91.8521 36.5024 85.2445 36.5024 83.9524C36.5024 82.6607 36.5395 81.2947 36.5395 81.2947Z" fill="#9E3667"/>
<path fill-rule="evenodd" clip-rule="evenodd" d="M27.1495 93.6295C27.1495 93.6295 27.5459 94.3244 27.5459 95.0192C27.5459 95.714 27.4963 96.4586 27.4963 96.4586C27.4963 96.4586 31.2213 96.4334 35.1219 95.6644C38.1422 95.0689 38.1921 95.1682 38.5386 93.6295C38.885 92.0908 38.3408 85.5889 37.8949 83.6534C37.449 81.7174 36.6075 81.3205 36.162 81.3702C35.7161 81.4198 34.5278 82.214 34.4782 84.8941C34.4283 87.5741 35.2702 92.6367 35.2702 92.6367C35.2702 92.6367 31.8044 92.9347 30.0215 93.1333C28.2387 93.3316 27.1495 93.6295 27.1495 93.6295Z" fill="#EC0000"/>
<path fill-rule="evenodd" clip-rule="evenodd" d="M18.9778 116.222C18.9778 116.222 19.1186 116.46 19.2187 117.092C19.3184 117.725 19.0685 117.927 19.0685 117.927C19.0685 117.927 15.0663 121.264 14.4159 120.86C13.7656 120.455 14.841 119.191 15.2164 118.837C15.5915 118.483 15.8418 118.205 15.8418 118.205C15.8418 118.205 16.7671 117.952 17.7925 117.295C18.6177 116.766 18.9778 116.222 18.9778 116.222Z" fill="black"/>
<path fill-rule="evenodd" clip-rule="evenodd" d="M10.2617 116.513C10.2617 116.513 9.94158 118.133 8.88181 118.012C7.82205 117.892 5.20981 116.586 4.69279 116.174C4.17506 115.763 3.95353 115.473 4.37229 115.255C4.79105 115.038 6.34353 115.207 6.34353 115.207C6.34353 115.207 6.93487 115.812 8.1422 116.199C9.24519 116.552 10.2617 116.513 10.2617 116.513Z" fill="black"/>
<path fill-rule="evenodd" clip-rule="evenodd" d="M27.5078 97.1772H20.6803V96.4585H27.5078V97.1772Z" fill="#D39E00"/>
<path fill-rule="evenodd" clip-rule="evenodd" d="M20.8115 96.7556L17.5094 90.709H16.727L20.1756 97.1771H21.3984L20.8115 96.7556Z" fill="#D39E00"/>
<path fill-rule="evenodd" clip-rule="evenodd" d="M16.7279 90.709L10.6181 91.0249L13.9419 97.1771L20.3203 97.0555L16.7279 90.709Z" fill="#F6C854"/>
<path fill-rule="evenodd" clip-rule="evenodd" d="M64.5898 75.9274H94.621V75.3003H64.5898V75.9274Z" fill="#34466B"/>
<path fill-rule="evenodd" clip-rule="evenodd" d="M64.5898 80.9042H94.621V80.2769H64.5898V80.9042Z" fill="#34466B"/>
<path fill-rule="evenodd" clip-rule="evenodd" d="M64.5898 85.8817H94.621V85.2544H64.5898V85.8817Z" fill="#34466B"/>
<path fill-rule="evenodd" clip-rule="evenodd" d="M64.5898 90.859H94.621V90.2319H64.5898V90.859Z" fill="#34466B"/>
<path fill-rule="evenodd" clip-rule="evenodd" d="M64.5898 95.8346H94.621V95.2075H64.5898V95.8346Z" fill="#34466B"/>
<path fill-rule="evenodd" clip-rule="evenodd" d="M64.5898 100.812H94.621V100.185H64.5898V100.812Z" fill="#34466B"/>
<path fill-rule="evenodd" clip-rule="evenodd" d="M64.5898 105.789H94.621V105.162H64.5898V105.789Z" fill="#34466B"/>
<rect x="107.016" y="75.3003" width="31.1872" height="7.61549" fill="#DEEDF2"/>
<rect x="107.016" y="86.9048" width="31.1872" height="19.22" fill="#DEEDF2"/>
</svg>
