<svg width="161" height="161" viewBox="0 0 161 161" fill="none" xmlns="http://www.w3.org/2000/svg">
<path fill-rule="evenodd" clip-rule="evenodd" d="M64.0062 45.8699C57.484 52.8073 48.8431 57.3351 39.4788 59.0369C33.7949 60.0698 28.3563 62.7846 23.9617 67.1815C12.4512 78.6977 12.4381 97.2693 23.9331 108.801C29.004 113.888 35.4699 116.731 42.1 117.33C47.7762 117.843 53.1092 120.321 57.0472 124.444C57.098 124.498 57.1491 124.55 57.2003 124.603C63.9183 131.461 74.7856 131.529 81.5851 124.752C81.6241 124.713 81.6627 124.674 81.701 124.635C83.5173 122.79 86.139 121.985 88.6792 122.478C103.162 125.293 118.738 121.087 129.955 109.861C147.879 91.9225 147.879 62.7859 129.955 44.8473C112.017 26.8947 82.9347 26.8948 64.9971 44.8476C64.6603 45.1845 64.33 45.5253 64.0062 45.8699Z" fill="#DEEDF2"/>
<path fill-rule="evenodd" clip-rule="evenodd" d="M112.682 61.9048L123.712 87.0862L112.882 91.8298L101.852 66.6489L112.682 61.9048Z" fill="#F4A48D"/>
<path fill-rule="evenodd" clip-rule="evenodd" d="M114.016 92.5471L104.008 69.6966C103.384 68.2734 101.629 67.4057 100.208 68.0283L96.3457 69.7202L96.4415 69.9379L53.6659 88.4184C51.9489 89.1673 51.1677 91.1671 51.9179 92.8832C52.4918 94.1963 53.94 95.2888 55.3586 95.393L74.785 86.8838L75.193 87.8146L58.685 95.5708C57.0451 96.3738 56.5379 98.8603 57.2719 100.543C57.796 101.743 59.0474 102.756 60.34 103.004L78.3073 94.6083L78.715 95.5393L66.0616 101.103C64.344 101.853 63.8038 104.406 64.5515 106.124C65.0968 107.371 66.4271 108.416 67.7723 108.61L81.7695 102.512L82.1773 103.443L75.0757 106.533C73.7245 107.498 73.3443 109.74 74.0239 111.294C74.7723 113.01 76.7728 113.794 78.4905 113.045L111.459 98.648C113.876 97.5649 115.18 95.2043 114.016 92.5471Z" fill="#F4A48D"/>
<path fill-rule="evenodd" clip-rule="evenodd" d="M49.5614 59.4182L38.5312 84.5996L49.3612 89.3429L60.3914 64.1621L49.5614 59.4182Z" fill="#FFC4B8"/>
<path fill-rule="evenodd" clip-rule="evenodd" d="M83.7908 75.1333C81.7319 74.6576 74.2473 71.444 74.2473 71.444C69.8286 79.5398 61.1259 82.915 52.8906 79.5541L59.5644 64.4442C63.2581 56.0128 71.6127 61.3241 71.6127 61.3241L92.238 70.3582C90.4205 73.4927 86.7474 75.8121 83.7908 75.1333Z" fill="#FFC4B8"/>
<path fill-rule="evenodd" clip-rule="evenodd" d="M111.751 59.4199L106.852 61.5656L113.546 76.8495L118.446 74.7032L111.751 59.4199Z" fill="#EAF7FE"/>
<path d="M113.547 76.8499L120.242 92.1343L125.142 89.9876L118.447 74.7036L113.547 76.8499Z" fill="#CCCCCC"/>
<path fill-rule="evenodd" clip-rule="evenodd" d="M50.4916 56.9331L55.3914 59.0794L48.6965 74.3633L43.7969 72.2166L50.4916 56.9331Z" fill="#EAF7FE"/>
<path d="M48.6962 74.3631L42.0012 89.6469L37.1016 87.5006L43.7966 72.2163L48.6962 74.3631Z" fill="#CCCCCC"/>
<path fill-rule="evenodd" clip-rule="evenodd" d="M48.2204 90.0602L58.2291 67.2094C58.8525 65.787 60.6075 64.9189 62.0283 65.5414L65.8909 67.2332L65.795 67.4511L108.571 85.9313C110.288 86.6807 111.069 88.68 110.32 90.3966C109.745 91.7092 108.297 92.802 106.879 92.9064L87.4519 84.3966L87.0436 85.3278L110.353 95.5373C111.993 96.3401 112.5 98.827 111.766 100.509C111.242 101.709 109.991 102.722 108.698 102.97L83.9296 92.1212L83.522 93.0523L104.878 102.46C106.595 103.21 107.136 105.764 106.388 107.482C105.842 108.729 104.512 109.774 103.167 109.968L80.4677 100.025L80.0606 100.956L91.2749 105.868C92.6255 106.833 93.0059 109.076 92.3271 110.63C91.5784 112.346 89.578 113.13 87.8608 112.381L50.7774 96.1609C48.3612 95.0778 47.0565 92.7172 48.2204 90.0602Z" fill="#FFC4B8"/>
<path fill-rule="evenodd" clip-rule="evenodd" d="M78.2439 77.1746C80.3031 76.6994 87.7875 73.4852 87.7875 73.4852C92.2058 81.5811 100.909 84.9563 109.144 81.5958L102.471 66.4859C98.777 58.0541 90.422 63.3658 90.422 63.3658L69.7969 72.4003C71.6149 75.534 75.2871 77.8537 78.2439 77.1746Z" fill="#F4A48D"/>
<path fill-rule="evenodd" clip-rule="evenodd" d="M72.764 73.2446C71.887 73.2446 71.074 72.9572 70.5859 72.1079L75.4367 69.9902L76.7165 71.9849C76.7165 71.9849 74.6001 73.2446 72.764 73.2446Z" fill="#FFC4B8"/>
<path fill-rule="evenodd" clip-rule="evenodd" d="M50.7436 97.4601C52.1946 98.8242 54.4753 98.7533 55.8381 97.3043L59.9308 92.9525C61.2942 91.5035 61.2244 89.2223 59.774 87.8579C58.3248 86.4949 56.0438 86.5652 54.6805 88.0145L50.5879 92.3665C49.2247 93.816 49.2943 96.0972 50.7436 97.4601Z" fill="#F4A48D"/>
<path fill-rule="evenodd" clip-rule="evenodd" d="M57.5639 102.046C59.0134 103.41 61.2953 103.34 62.6585 101.89L67.3555 96.8961C68.7185 95.4471 68.6482 93.1649 67.1987 91.8018C65.7492 90.4389 63.4683 90.5089 62.1054 91.9583L57.4078 96.9529C56.0453 98.4026 56.1145 100.683 57.5639 102.046Z" fill="#F4A48D"/>
<path fill-rule="evenodd" clip-rule="evenodd" d="M65.3346 107.791C66.784 109.153 69.0648 109.083 70.428 107.634L74.5203 103.282C75.8834 101.832 75.8142 99.5512 74.3647 98.1884C72.9143 96.8243 70.6331 96.8946 69.2703 98.3441L65.1776 102.695C63.8143 104.145 63.8841 106.426 65.3346 107.791Z" fill="#F4A48D"/>
<path fill-rule="evenodd" clip-rule="evenodd" d="M74.5251 112.522C75.9753 113.886 78.2566 113.816 79.6197 112.367L82.9312 108.846C84.2951 107.395 84.2252 105.115 82.7749 103.75C81.3254 102.388 79.0457 102.457 77.6811 103.908L74.369 107.43C73.0058 108.879 73.0757 111.159 74.5251 112.522Z" fill="#F4A48D"/>
<path fill-rule="evenodd" clip-rule="evenodd" d="M109.019 101.48C108.299 101.48 107.544 101.07 106.986 100.644C105.958 99.8631 105.133 98.9934 105.66 97.7509C105.824 97.3665 106.411 96.4946 107.562 96.4946C107.862 96.4946 108.2 96.5539 108.579 96.6959C110.413 97.3884 111.61 98.404 110.624 100.366C110.209 101.187 109.627 101.48 109.019 101.48Z" fill="#F4A48D"/>
<path fill-rule="evenodd" clip-rule="evenodd" d="M89.4131 111.582C88.6938 111.582 87.9382 111.173 87.3802 110.746C86.3527 109.965 85.5271 109.096 86.0547 107.853C86.219 107.469 86.8063 106.597 87.9572 106.597C88.2569 106.597 88.5949 106.656 88.9737 106.798C90.8081 107.49 92.0048 108.506 91.019 110.467C90.6035 111.289 90.0213 111.582 89.4131 111.582Z" fill="#F4A48D"/>
<path fill-rule="evenodd" clip-rule="evenodd" d="M107.195 91.6193C106.475 91.6193 105.72 91.21 105.161 90.7835C104.134 90.0023 103.308 89.133 103.836 87.8907C104 87.5064 104.587 86.6348 105.738 86.6348C106.038 86.6348 106.376 86.6939 106.755 86.8362C108.589 87.5287 109.786 88.5437 108.801 90.5051C108.385 91.3271 107.803 91.6194 107.195 91.6193Z" fill="#F4A48D"/>
<path fill-rule="evenodd" clip-rule="evenodd" d="M103.542 108.418C102.823 108.418 102.067 108.009 101.509 107.583C100.482 106.801 99.6559 105.932 100.184 104.69C100.348 104.305 100.935 103.434 102.086 103.434C102.386 103.434 102.724 103.493 103.102 103.635C104.937 104.327 106.133 105.343 105.148 107.304C104.732 108.126 104.15 108.418 103.542 108.418Z" fill="#F4A48D"/>
<path fill-rule="evenodd" clip-rule="evenodd" d="M71.0586 103.808C70.6917 103.808 70.323 103.688 69.9536 103.398C69.5398 103.071 68.5548 101.893 69.6987 100.304C70.4389 99.2796 71.2391 98.5457 72.1525 98.5457C72.6561 98.5457 73.1942 98.7687 73.7752 99.2892C75.2697 100.634 74.1212 102.086 73.0922 102.875C72.4256 103.387 71.7453 103.808 71.0586 103.808Z" fill="#FFC4B8"/>
<path fill-rule="evenodd" clip-rule="evenodd" d="M63.7541 97.2348C63.3871 97.2346 63.0182 97.1147 62.6487 96.8244C62.2353 96.4969 61.2502 95.3197 62.3938 93.7306C63.1339 92.7058 63.9342 91.9722 64.8474 91.9722C65.3512 91.9722 65.8894 92.1956 66.4708 92.7164C67.965 94.0602 66.8167 95.5122 65.7877 96.3016C65.1215 96.8141 64.441 97.2348 63.7541 97.2348Z" fill="#FFC4B8"/>
<path fill-rule="evenodd" clip-rule="evenodd" d="M56.4494 93.3396C56.0825 93.3396 55.7138 93.2196 55.3443 92.9294C54.9305 92.6024 53.9453 91.4244 55.0894 89.8356C55.8296 88.811 56.6297 88.0771 57.5432 88.0771C58.0467 88.0771 58.5849 88.3004 59.1661 88.8207C60.6604 90.1653 59.5119 91.6177 58.4831 92.4061C57.8164 92.9191 57.1362 93.3398 56.4494 93.3396Z" fill="#FFC4B8"/>
<path fill-rule="evenodd" clip-rule="evenodd" d="M79.5782 109.165C79.2113 109.165 78.8424 109.045 78.4733 108.754C78.0596 108.427 77.0744 107.25 78.2179 105.66C78.9579 104.636 79.7581 103.902 80.6715 103.902C81.1753 103.902 81.7136 104.126 82.2952 104.646C83.7888 105.99 82.6408 107.442 81.6122 108.231C80.9455 108.744 80.265 109.165 79.5782 109.165Z" fill="#FFC4B8"/>
<path fill-rule="evenodd" clip-rule="evenodd" d="M141.59 64.3497C145.409 62.6754 151.137 60.164 158.773 56.8155C159.765 51.7847 160.29 46.5863 160.29 41.2648C160.29 39.1493 160.205 37.0534 160.045 34.979L110.574 56.6676L118.394 74.5206C128.704 70.0002 136.436 66.6099 141.59 64.3497Z" fill="#34466B"/>
<path fill-rule="evenodd" clip-rule="evenodd" d="M118.391 74.5205L126.211 92.3751L148.892 82.4275C153.568 74.6522 156.956 66.017 158.77 56.8154" fill="#34466B"/>
<path fill-rule="evenodd" clip-rule="evenodd" d="M1.16917 53.1502L43.8482 72.0334L51.6683 54.1805L0.856806 31.731C0.485508 34.8577 0.289062 38.038 0.289062 41.2646C0.289062 45.3037 0.591524 49.2718 1.16917 53.1502Z" fill="#767676"/>
<path fill-rule="evenodd" clip-rule="evenodd" d="M43.8509 72.0337L1.17188 53.1504C2.48806 61.9877 5.24982 70.3525 9.2086 77.9978L36.0304 89.8886L43.8509 72.0337Z" fill="#444444"/>
</svg>
