<svg width="160" height="160" viewBox="0 0 160 160" fill="none" xmlns="http://www.w3.org/2000/svg">
<path d="M55.2838 27.9517C55.2838 42.6487 43.3694 54.5628 28.6724 54.5628C24.5234 54.5628 20.5961 53.6134 17.0961 51.9197C13.4508 60.3079 11.4297 69.565 11.4297 79.2942C11.4297 117.261 42.2078 148.04 80.1747 148.04C89.871 148.04 99.0987 146.032 107.464 142.41C105.698 138.85 104.704 134.838 104.704 130.595C104.704 115.898 116.619 103.984 131.316 103.984C135.589 103.984 139.627 104.991 143.205 106.781C146.881 98.3628 148.92 89.067 148.92 79.2942C148.92 68.4973 146.431 58.2837 141.995 49.1923C141.641 48.4657 141.274 47.7474 140.895 47.0349C140.614 46.5101 140.328 45.9879 140.033 45.4687C133.106 33.2323 122.533 23.3303 109.791 17.2385H109.788C100.821 12.9484 90.7783 10.5493 80.1747 10.5493C70.3699 10.5493 61.0442 12.602 52.6046 16.3011C54.3207 19.8198 55.2838 23.7733 55.2838 27.9517Z" fill="#DEEDF2"/>
<path d="M140.895 47.0348L80.1758 79.2941L109.789 17.2388H109.792C123.072 23.5886 133.998 34.077 140.895 47.0348Z" fill="#EAF7FE"/>
<path fill-rule="evenodd" clip-rule="evenodd" d="M42.9961 79.6555C42.9961 100.156 59.6741 116.834 80.1743 116.834C100.674 116.834 117.352 100.156 117.352 79.6555C117.352 59.1553 100.674 42.4775 80.1743 42.4775C59.6741 42.4775 42.9961 59.1553 42.9961 79.6555ZM47.2031 79.6538C47.2031 61.4745 61.9935 46.6846 80.1728 46.6846C98.3521 46.6846 113.142 61.4749 113.142 79.6538C113.142 97.8327 98.3521 112.623 80.1728 112.623C61.9935 112.623 47.2031 97.8331 47.2031 79.6538Z" fill="#9BC3D3"/>
<path fill-rule="evenodd" clip-rule="evenodd" d="M59.8281 79.6558C59.8281 90.873 68.9543 99.9987 80.171 99.9987C91.3881 99.9987 100.514 90.873 100.514 79.6558C100.514 68.4387 91.3886 59.313 80.171 59.313C68.9538 59.313 59.8281 68.4387 59.8281 79.6558ZM64.0352 79.6536C64.0352 70.7573 71.2725 63.5195 80.1688 63.5195C89.0646 63.5195 96.3028 70.7573 96.3028 79.6536C96.3028 88.5494 89.0646 95.7872 80.1688 95.7872C71.273 95.7872 64.0352 88.5494 64.0352 79.6536Z" fill="#9BC3D3"/>
<path d="M128.307 104.153C132.066 96.7958 134.188 88.4688 134.188 79.6556C134.188 49.8727 109.958 25.6421 80.1742 25.6421C71.0881 25.6421 62.5184 27.8973 54.9962 31.8775C54.7008 33.8764 54.183 35.8028 53.4688 37.6309C61.1914 32.7058 70.3558 29.8496 80.1747 29.8496C107.637 29.8496 129.98 52.1918 129.98 79.6543C129.98 89.0573 127.36 97.8604 122.812 105.372C124.569 104.78 126.408 104.366 128.307 104.153Z" fill="#9BC3D3"/>
<path d="M106.058 122.191C98.5106 126.801 89.6469 129.459 80.1739 129.459C52.7119 129.459 30.3694 107.117 30.3694 79.6542C30.3694 69.7663 33.2659 60.5421 38.2549 52.7856C36.424 53.4925 34.4953 54.0028 32.4948 54.2907C28.4529 61.8577 26.1602 70.4942 26.1602 79.6555C26.1602 109.438 50.3902 133.669 80.1735 133.669C89.0627 133.669 97.457 131.51 104.861 127.69C105.067 125.79 105.473 123.95 106.058 122.191Z" fill="#9BC3D3"/>
<path d="M141.996 49.1918L81.1617 81.5131C80.8474 81.6789 80.5107 81.7606 80.1766 81.7606C79.4246 81.7606 78.6949 81.3536 78.316 80.6411C77.7718 79.6169 78.1617 78.3426 79.1889 77.7958L140.035 45.4688C140.33 45.9879 140.616 46.5096 140.897 47.0345C141.276 47.747 141.643 48.4652 141.996 49.1918Z" fill="#1BB3BC"/>
<path d="M16 32.7042L41.344 32.7041V43.0002C41.344 43.4376 40.9895 43.7922 40.552 43.7922H16.792C16.3546 43.7922 16 43.4376 16 43.0002V32.7042Z" fill="#FFE99F"/>
<path d="M29.097 32.7041L22.6953 43.7921H40.5527C40.9901 43.7921 41.3447 43.4375 41.3447 43.0001V32.7041H29.097Z" fill="#F6C854"/>
<path d="M15.6721 22.765C15.8664 22.085 16.4879 21.6162 17.1952 21.6162H40.1496C40.8568 21.6162 41.4783 22.085 41.6726 22.765L44.2239 31.6946C44.3685 32.2006 43.9886 32.7042 43.4624 32.7042H13.8823C13.3561 32.7042 12.9762 32.2006 13.1208 31.6946L15.6721 22.765Z" fill="#F4A48D"/>
<path d="M22.7617 32.7042H43.4634C43.9896 32.7042 44.3695 32.2006 44.2249 31.6946L41.6736 22.765C41.4793 22.085 40.8578 21.6162 40.1506 21.6162H29.1634L22.7617 32.7042Z" fill="#2A8FEC"/>
<rect x="31.8398" y="32.7041" width="1.584" height="11.088" fill="#D39E00"/>
<path fill-rule="evenodd" clip-rule="evenodd" d="M32.0265 24.8314C33.3773 23.2008 35.008 21.2324 35.008 18.4488C35.008 14.9495 32.1712 12.1128 28.6719 12.1128C25.1727 12.1128 22.3359 14.9495 22.3359 18.4488C22.3359 21.2324 23.9666 23.2008 25.3174 24.8314C26.2726 25.9844 27.0879 26.9686 27.0879 27.9528C27.0879 28.8276 27.7971 29.5368 28.6719 29.5368C29.5468 29.5368 30.2559 28.8276 30.2559 27.9528C30.2559 26.9686 31.0713 25.9844 32.0265 24.8314ZM28.6719 21.6168C30.4216 21.6168 31.8399 20.1984 31.8399 18.4488C31.8399 16.6992 30.4216 15.2808 28.6719 15.2808C26.9223 15.2808 25.5039 16.6992 25.5039 18.4488C25.5039 20.1984 26.9223 21.6168 28.6719 21.6168Z" fill="#34466B"/>
<path d="M115.477 122.675C115.477 120.925 116.895 119.507 118.644 119.507H143.988C145.738 119.507 147.157 120.925 147.157 122.675V125.051C147.157 125.488 146.802 125.843 146.364 125.843H116.268C115.831 125.843 115.477 125.488 115.477 125.051V122.675Z" fill="#732645"/>
<path d="M121.812 121.09H140.82V142.474C140.82 142.912 140.466 143.266 140.028 143.266H122.604C122.167 143.266 121.812 142.912 121.812 142.474V121.09Z" fill="#8AD7C4"/>
<path d="M121.812 121.09H140.82V142.474C140.82 142.912 140.466 143.266 140.028 143.266H123.99L135.879 122.674H121.812V121.09Z" fill="#8AD7C4"/>
<path fill-rule="evenodd" clip-rule="evenodd" d="M128.148 143.266C128.148 139.767 125.312 136.93 121.812 136.93V138.514C124.437 138.514 126.564 140.641 126.564 143.266H128.148ZM140.82 136.93C137.321 136.93 134.484 139.767 134.484 143.266H136.068C136.068 140.641 138.195 138.514 140.82 138.514V136.93Z" fill="#2C9891"/>
</svg>
