<svg width="160" height="161" viewBox="0 0 160 161" fill="none" xmlns="http://www.w3.org/2000/svg">
<path fill-rule="evenodd" clip-rule="evenodd" d="M36.0275 102.202C43.7914 121.254 62.0479 134.912 83.6267 135.976C112.327 134.558 135.241 110.764 135.241 81.7187C135.241 68.2619 130.311 55.942 122.179 46.4418L121.486 49.8197C121.174 51.6948 121.012 53.7409 121.271 55.5541C121.987 60.5713 122.346 63.0801 124.855 64.8726C127.364 66.6644 130.948 72.7575 128.439 75.9831C125.93 79.2087 118.762 75.9831 115.178 72.3994C111.593 68.8151 110.877 64.5139 110.16 62.3639C109.443 60.2134 108.368 57.7046 105.143 58.0627C101.917 58.4208 98.6909 59.4964 99.049 64.1558C99.4077 68.8151 98.6909 70.6069 102.991 73.8325C107.293 77.0588 108.726 77.3108 108.726 77.3108C108.726 77.3108 113.744 81.7181 110.519 87.8104C107.293 93.9043 99.0219 112.541 99.0219 112.541C99.0219 112.541 91.8809 127.236 86.5048 126.878C81.1286 126.519 74.6775 114.691 75.7523 108.957C76.828 103.223 79.6949 92.8286 68.2256 89.9617C62.4913 88.5273 60.3407 87.9898 59.6238 87.8104C59.6238 87.8104 44.5709 84.5856 47.4384 71.3238C50.3059 58.0627 62.4913 54.8371 67.8676 55.5541C73.2437 56.2702 82.7054 60.5713 82.7054 60.5713C82.7054 60.5713 92.2398 62.3639 94.3897 58.7796C96.5402 55.1952 90.0172 50.1778 82.7054 50.5359C75.3943 50.8947 75.3943 50.5359 71.093 50.1778C66.7925 49.819 61.7745 44.4428 64.2831 40.5004C66.7925 36.558 71.4519 35.483 74.6775 37.6337C77.903 39.7836 79.9817 40.5004 82.7054 39.0666C84.639 38.0494 82.8528 33.7815 80.7563 30.1081L79.7148 27.8088C52.8409 31.0819 32.0195 53.9609 32.0195 81.7187C32.0195 82.3737 32.0459 83.0229 32.0687 83.6729C35.8012 84.9522 38.9847 88.491 37.0441 97.4878C36.6703 99.2213 36.3336 100.782 36.0275 102.202Z" fill="#CEDEE7"/>
<path fill-rule="evenodd" clip-rule="evenodd" d="M32.0183 81.7182C32.0183 53.961 52.8404 31.0816 79.7136 27.8086L79.5398 27.4258C50.2186 28.159 26.5859 52.2232 26.5859 81.7182C26.5859 82.0214 26.5962 82.3218 26.6064 82.6222L26.6064 82.6223C26.6117 82.7776 26.617 82.9329 26.6209 83.0886H29.3032C29.5308 83.1108 29.7604 83.139 29.9911 83.1735C29.7603 83.1389 29.5305 83.1109 29.3027 83.0887H26.6211C26.8652 92.8707 29.6907 102.023 34.466 109.873C34.8669 107.873 35.2527 105.789 35.2528 105.79C35.2528 105.79 34.867 107.873 34.4661 109.872C44.0056 125.552 61.2575 136.045 80.9135 136.045C81.8225 136.045 82.7273 136.021 83.6258 135.976C62.047 134.912 43.7905 121.254 36.0266 102.202C35.8818 102.874 35.7436 103.514 35.6123 104.123L35.608 104.143L35.5539 104.393C35.7025 103.704 35.8601 102.974 36.0265 102.202C33.683 96.4509 32.2998 90.2097 32.0677 83.6724C32.0676 83.6724 32.0675 83.6724 32.0675 83.6723L32.0591 83.4362C32.0387 82.8652 32.0183 82.2944 32.0183 81.7182ZM35.2528 105.79C35.3485 105.345 35.4489 104.879 35.5539 104.393L35.2528 105.79Z" fill="#DEEDF2"/>
<path fill-rule="evenodd" clip-rule="evenodd" d="M110.162 62.364C109.445 60.2135 108.37 57.7048 105.144 58.0629C101.919 58.421 98.6925 59.4967 99.0506 64.1559C99.1083 64.9047 99.1381 65.5795 99.1655 66.198C99.3086 69.4282 99.3838 71.1254 102.994 73.8326C107.295 77.059 108.728 77.3109 108.728 77.3109C108.728 77.3109 113.746 81.7182 110.521 87.8106C107.295 93.9044 99.0236 112.541 99.0236 112.541C99.0236 112.541 91.8826 127.236 86.5063 126.878C81.131 126.52 74.679 114.692 75.754 108.957C75.8224 108.593 75.898 108.21 75.9766 107.811C77.1361 101.933 78.9678 92.6465 68.2279 89.962C65.0165 89.1587 62.929 88.6367 61.588 88.3013C60.5342 88.0378 59.9413 87.8896 59.6261 87.8106C59.6261 87.8106 44.5726 84.5857 47.4401 71.324C50.3075 58.0629 62.493 54.8373 67.8691 55.5542C73.2453 56.2703 82.7071 60.5716 82.7071 60.5716C82.7071 60.5716 92.2413 62.364 94.392 58.7797C96.5419 55.1954 90.0189 50.178 82.7071 50.5361C77.1269 50.8099 75.8058 50.6657 73.5805 50.4229C72.8903 50.3476 72.113 50.2628 71.0947 50.178C66.7942 49.8192 61.7768 44.443 64.2848 40.5006C66.7942 36.5581 71.4534 35.4832 74.679 37.6338C77.9046 39.7837 79.9834 40.5006 82.7071 39.0669C84.6405 38.0495 82.8544 33.7818 80.7579 30.1082L79.6046 27.5632C97.0723 28.8758 112.228 38.4389 121.194 52.3763C121.123 53.4613 121.128 54.544 121.272 55.5542C121.989 60.5716 122.348 63.0802 124.857 64.8728C126.087 65.752 127.573 67.667 128.475 69.7698C128.475 69.77 128.475 69.7701 128.475 69.7703C129.074 71.1648 129.414 72.6404 129.249 73.9546C129.064 72.6567 128.827 71.375 128.55 70.109C128.827 71.375 129.062 72.6566 129.249 73.9544C129.156 74.6976 128.902 75.3895 128.44 75.9833C125.932 79.2089 118.764 75.9833 115.18 72.3996C112.193 69.413 111.198 65.9286 110.534 63.6058C110.401 63.1409 110.281 62.7226 110.162 62.364ZM32.0703 83.6729C32.3024 90.2101 33.6856 96.4513 36.0291 102.202C36.1851 101.479 36.5288 100.696 36.889 99.8749C37.2358 99.0848 37.5979 98.2599 37.8224 97.4202C40.4742 87.5021 35.4775 84.0529 32.0703 83.6729Z" fill="#9BC3D3"/>
<path fill-rule="evenodd" clip-rule="evenodd" d="M121.19 52.3763C112.225 38.4389 97.0687 28.8744 79.601 27.5631L79.5391 27.4273C79.6969 27.4233 79.8543 27.4178 80.0117 27.4122C80.3111 27.4017 80.6104 27.3911 80.9123 27.3911C97.411 27.3911 112.205 34.7939 122.177 46.4418C130.311 55.9419 135.239 68.2619 135.239 81.7187C135.239 110.764 112.325 134.558 83.6251 135.977C82.953 135.943 82.2902 135.877 81.6275 135.811C81.448 135.793 81.2684 135.775 81.0887 135.758C109.605 133.167 136.482 111.088 129.806 81.7187C129.477 80.2681 129.456 78.791 129.435 77.3235C129.419 76.189 129.404 75.0603 129.245 73.9541C129.411 72.6399 129.071 71.1649 128.472 69.7696C127.061 63.4901 124.566 57.625 121.19 52.3763Z" fill="#DEEDF2"/>
<path fill-rule="evenodd" clip-rule="evenodd" d="M46.8077 111.877C46.2672 111.883 45.7266 111.886 45.1859 111.886L45.1853 110.808C45.7227 110.808 46.2593 110.805 46.7965 110.799C46.8002 111.159 46.804 111.518 46.8077 111.877ZM42.087 110.776C42.5599 110.786 43.0329 110.793 43.5058 110.799L43.575 110.8L43.5633 111.877C43.4034 111.876 43.2433 111.874 43.0833 111.871C42.7434 111.866 42.4036 111.86 42.0639 111.853L41.941 111.85L41.9648 110.773C42.0056 110.774 42.0463 110.775 42.087 110.776ZM50.0513 111.808C49.5399 111.824 49.0283 111.837 48.5167 111.849L48.4297 111.851L48.4067 110.773C48.5767 110.77 48.7468 110.766 48.9168 110.762C49.2719 110.753 49.6269 110.743 49.9819 110.732L50.0168 110.731C50.0283 111.09 50.0398 111.449 50.0513 111.808ZM38.9086 110.67C39.3683 110.69 39.828 110.709 40.2879 110.725L40.3554 110.727L40.3187 111.804C40.1628 111.799 40.007 111.793 39.8513 111.788C39.4665 111.773 39.0817 111.757 38.697 111.739L38.7467 110.662C38.8007 110.665 38.8547 110.667 38.9086 110.67ZM53.2921 111.673C52.7771 111.7 52.2618 111.723 51.7466 111.745L51.6718 111.749L51.6274 110.672C51.7964 110.665 51.9653 110.657 52.1343 110.65C52.4965 110.634 52.8589 110.616 53.2211 110.598L53.2366 110.597C53.2551 110.956 53.2736 111.315 53.2921 111.673ZM35.6349 110.478C36.1365 110.514 36.6383 110.547 37.1403 110.577L37.0754 111.653C36.5691 111.622 36.0631 111.589 35.5572 111.553L35.4557 111.545L35.5341 110.47C35.5678 110.473 35.6013 110.475 35.6349 110.478ZM56.5286 111.477C56.0327 111.512 55.5366 111.544 55.0405 111.575L54.9108 111.583L54.8454 110.507C55.3825 110.475 55.9182 110.44 56.4537 110.402C56.4787 110.761 56.5036 111.119 56.5286 111.477ZM32.473 110.205C32.9588 110.253 33.4446 110.299 33.9307 110.342L33.8362 111.415C33.2971 111.368 32.7582 111.317 32.2196 111.262L32.3287 110.19C32.3768 110.195 32.4249 110.2 32.473 110.205ZM59.7616 111.222C59.2311 111.269 58.7004 111.313 58.1695 111.355L58.061 110.283C58.5942 110.241 59.1262 110.196 59.6582 110.149L59.6665 110.149C59.6982 110.506 59.7299 110.864 59.7616 111.222ZM29.2551 109.828C29.7258 109.891 30.1969 109.95 30.6684 110.007L30.7305 110.014L30.6044 111.084C30.0676 111.021 29.5291 110.953 28.9919 110.88L29.1356 109.812C29.1754 109.818 29.2153 109.823 29.2551 109.828ZM62.9886 110.91C62.4512 110.967 61.9135 111.021 61.3757 111.073L61.2716 110C61.7946 109.95 62.3179 109.897 62.841 109.842L62.8753 109.838C62.913 110.196 62.9508 110.553 62.9886 110.91ZM66.21 110.543C65.6737 110.609 65.137 110.672 64.6001 110.733L64.4776 109.663C65.0076 109.602 65.5381 109.539 66.0682 109.475L66.0784 109.474C66.1223 109.83 66.1661 110.187 66.21 110.543ZM26.0107 109.335C26.5153 109.421 27.0211 109.503 27.5275 109.581L27.3829 110.649C26.8637 110.57 26.346 110.486 25.8288 110.398L25.7768 110.389L25.9598 109.327C25.9767 109.33 25.9936 109.332 26.0107 109.335ZM69.4239 110.123C68.8952 110.196 68.3663 110.268 67.8373 110.337L67.6783 109.271C68.2118 109.202 68.7439 109.129 69.2759 109.056C69.3252 109.411 69.3746 109.767 69.4239 110.123ZM22.9316 108.745C23.4095 108.847 23.8886 108.944 24.3689 109.037L24.1766 110.097C23.6435 109.995 23.1118 109.886 22.5811 109.773L22.8069 108.719C22.8484 108.728 22.8901 108.737 22.9316 108.745ZM72.6312 109.651C72.135 109.728 71.6387 109.803 71.1421 109.877L71.0286 109.893L70.8716 108.827C71.3826 108.752 71.8937 108.675 72.4045 108.596L72.4656 108.586C72.5208 108.941 72.576 109.296 72.6312 109.651ZM19.731 107.983C20.2283 108.114 20.7271 108.24 21.2278 108.36L20.9926 109.412C20.4784 109.29 19.9661 109.159 19.4545 109.024L19.4114 109.013L19.6892 107.972C19.7032 107.975 19.7171 107.979 19.731 107.983ZM75.8299 109.129C75.3012 109.219 74.7721 109.308 74.2428 109.394L74.0581 108.333C74.5394 108.254 75.0209 108.173 75.5022 108.091L75.6481 108.066C75.7087 108.421 75.7694 108.775 75.8299 109.129ZM79.0201 108.556C78.4891 108.656 77.958 108.753 77.4263 108.849L77.2357 107.788C77.7639 107.693 78.293 107.596 78.8221 107.497C78.888 107.85 78.954 108.203 79.0201 108.556ZM16.6872 107.083C17.1706 107.241 17.656 107.393 18.1436 107.537L17.8414 108.572C17.3667 108.431 16.8927 108.284 16.4211 108.13L16.2829 108.085L16.6197 107.061C16.6422 107.069 16.6647 107.076 16.6872 107.083ZM82.201 107.935C81.7238 108.032 81.2464 108.128 80.7685 108.221L80.6121 108.252L80.4054 107.194C80.9324 107.091 81.46 106.986 81.9871 106.879C82.0584 107.231 82.1297 107.583 82.201 107.935ZM85.3724 107.266C84.8959 107.37 84.4191 107.473 83.942 107.574L83.7883 107.607L83.5657 106.552C84.0926 106.441 84.6175 106.328 85.1424 106.213C85.2191 106.564 85.2957 106.915 85.3724 107.266ZM13.6451 105.967C14.1252 106.164 14.6088 106.351 15.0956 106.531L14.739 107.548C14.2349 107.363 13.7336 107.168 13.2361 106.964L13.6228 105.958C13.6303 105.961 13.6376 105.964 13.6451 105.967ZM88.5336 106.549C88.0515 106.662 87.5687 106.773 87.0857 106.884L86.9544 106.913L86.7157 105.863C87.2357 105.744 87.7557 105.624 88.2755 105.502L88.2864 105.5C88.3689 105.849 88.4513 106.199 88.5336 106.549ZM10.7534 104.631C11.2146 104.871 11.6816 105.099 12.1535 105.318L11.7107 106.3C11.2202 106.074 10.7347 105.836 10.2552 105.586L10.7346 104.621C10.7408 104.624 10.7471 104.627 10.7534 104.631ZM91.6829 105.782C91.1842 105.908 90.6851 106.031 90.1856 106.153L90.1095 106.172L89.8548 105.124C90.3496 105.004 90.8442 104.881 91.3385 104.758L91.4197 104.737C91.5074 105.086 91.5951 105.434 91.6829 105.782ZM94.8196 104.966C94.2979 105.106 93.7757 105.244 93.2532 105.38L92.9815 104.338C93.5018 104.202 94.0212 104.065 94.5405 103.926C94.6336 104.272 94.7266 104.619 94.8196 104.966ZM8.05199 103.022C8.47471 103.311 8.90681 103.585 9.34636 103.847L8.79805 104.775C8.33891 104.502 7.88611 104.214 7.44355 103.912L7.40664 103.886L8.01588 102.997C8.02792 103.006 8.03996 103.014 8.05199 103.022ZM97.9437 104.1C97.4545 104.24 96.9647 104.378 96.4745 104.514L96.3835 104.54L96.0956 103.501C96.5807 103.367 97.0642 103.23 97.5473 103.093L97.6473 103.064C97.7461 103.41 97.8449 103.755 97.9437 104.1ZM101.053 103.183C100.536 103.34 100.019 103.495 99.5005 103.648L99.1955 102.615C99.3197 102.578 99.4439 102.541 99.5681 102.504C99.9386 102.394 100.309 102.283 100.68 102.17L100.74 102.152C100.844 102.496 100.949 102.839 101.053 103.183ZM5.59177 101.044C5.96262 101.398 6.34946 101.735 6.74865 102.057L6.07671 102.9C5.65135 102.559 5.24076 102.199 4.84654 101.822L4.82577 101.802L5.57169 101.024C5.57837 101.031 5.58507 101.037 5.59177 101.044ZM104.147 102.213C103.633 102.379 103.118 102.543 102.602 102.705L102.28 101.676C102.771 101.522 103.26 101.367 103.749 101.209L103.816 101.188C103.926 101.53 104.036 101.871 104.147 102.213ZM107.224 101.19C106.754 101.351 106.284 101.509 105.814 101.666L105.688 101.708L105.347 100.686C105.816 100.53 106.284 100.372 106.752 100.212L106.875 100.17C106.991 100.51 107.107 100.85 107.224 101.19ZM110.282 100.111C109.787 100.291 109.292 100.468 108.795 100.643L108.755 100.658L108.397 99.6411C108.895 99.4654 109.394 99.2865 109.892 99.106L109.913 99.0981C110.036 99.4358 110.159 99.7733 110.282 100.111ZM3.57605 98.65C3.85732 99.0749 4.16361 99.4838 4.49194 99.8746L3.6801 100.584C3.64309 100.54 3.60635 100.496 3.56972 100.451C3.25089 100.064 2.95213 99.6598 2.67544 99.2418C2.67544 99.2418 3.55633 98.6197 3.57605 98.65ZM113.319 98.9747C112.851 99.1549 112.381 99.3331 111.912 99.5096L111.803 99.5501L111.426 98.5407C111.868 98.3755 112.308 98.2084 112.748 98.0396C112.81 98.0161 112.898 97.9128 112.932 97.9689C113.119 98.2755 113.19 98.6394 113.319 98.9747ZM116.335 97.7782C115.872 97.9678 115.408 98.1541 114.943 98.3392L114.83 98.384L114.433 97.3825C114.536 97.3413 114.639 97.3002 114.743 97.2591C115.136 97.1018 115.528 96.9433 115.92 96.7835L115.927 96.7809C116.063 97.1133 116.199 97.4457 116.335 97.7782ZM2.26961 95.9133C2.41742 96.3844 2.59858 96.8449 2.80964 97.2921L1.84304 97.7687C1.61327 97.2877 1.41638 96.7887 1.25491 96.2791L1.22746 96.1909L2.25718 95.873C2.26132 95.8865 2.26546 95.8999 2.26961 95.9133ZM119.325 96.5192C118.846 96.7268 118.367 96.9314 117.886 97.1343L117.833 97.1568L117.415 96.1635C117.56 96.1023 117.705 96.0408 117.851 95.9793C118.168 95.8443 118.484 95.7087 118.8 95.572L118.896 95.5306C119.039 95.8601 119.182 96.1896 119.325 96.5192ZM122.287 95.194C121.834 95.4031 121.38 95.6091 120.925 95.8136L120.809 95.865L120.369 94.8814C120.837 94.6721 121.303 94.4601 121.769 94.2461L121.835 94.2156C121.986 94.5417 122.136 94.8679 122.287 95.194ZM1.81215 92.8477C1.81205 92.8761 1.81207 92.9047 1.81213 92.9331C1.81572 93.4143 1.85056 93.8936 1.91899 94.3688L0.854253 94.5354C0.773494 93.9893 0.73541 93.4337 0.734375 92.8788L0.734504 92.8437C1.09372 92.845 1.45293 92.8462 1.81215 92.8477ZM125.218 93.7986C124.764 94.0212 124.31 94.241 123.854 94.4588L123.757 94.5054L123.293 93.5324C123.777 93.3019 124.261 93.0681 124.743 92.8313C124.901 93.1537 125.06 93.4761 125.218 93.7986ZM128.113 92.3279C127.635 92.5794 127.154 92.8271 126.671 93.0726L126.182 92.1119C126.635 91.883 127.085 91.6494 127.535 91.4141L127.613 91.3738C127.779 91.6918 127.946 92.0098 128.113 92.3279ZM130.967 90.7761C130.495 91.0416 130.022 91.3035 129.546 91.5624L129.03 90.6159C129.136 90.5587 129.241 90.5016 129.346 90.4443C129.71 90.244 130.075 90.0415 130.438 89.8369C130.614 90.1499 130.791 90.463 130.967 90.7761ZM2.24398 89.7967C2.23155 89.8419 2.21956 89.8872 2.20751 89.9326C2.09054 90.3843 1.99526 90.8445 1.92684 91.3093L0.85969 91.1593C0.937049 90.6137 1.05468 90.071 1.19715 89.5391L1.20488 89.511C1.55125 89.6062 1.89761 89.7015 2.24398 89.7967ZM133.773 89.1357C133.323 89.4081 132.872 89.6772 132.417 89.9436L132.377 89.9674L131.834 89.0368C132.297 88.7661 132.756 88.4917 133.215 88.2141C133.401 88.5213 133.587 88.8285 133.773 89.1357ZM3.37994 86.891C3.35057 86.949 3.32176 87.0072 3.29296 87.0656C3.10188 87.4565 2.92468 87.8526 2.7634 88.2549L2.73834 88.318L1.73497 87.9249C1.93711 87.409 2.16707 86.9043 2.41585 86.4094L2.41849 86.4042C2.73897 86.5665 3.05945 86.7287 3.37994 86.891ZM136.523 87.3972C136.07 87.6954 135.614 87.9889 135.156 88.279L134.579 87.3685C135.032 87.0819 135.482 86.792 135.929 86.4972C136.127 86.7973 136.325 87.0973 136.523 87.3972ZM139.203 85.5493C138.764 85.8674 138.319 86.1795 137.873 86.4876L137.261 85.6005C137.69 85.3043 138.117 85.0033 138.541 84.6981L138.572 84.676C138.782 84.9671 138.993 85.2582 139.203 85.5493ZM5.01133 84.1939C4.97032 84.2521 4.92964 84.3106 4.8891 84.3691C4.63043 84.7449 4.38193 85.1266 4.14478 85.5157L3.22457 84.9548C3.51083 84.4851 3.8126 84.0257 4.12832 83.5762L4.13018 83.5734C4.4239 83.7802 4.71762 83.9871 5.01133 84.1939ZM141.799 83.5784C141.397 83.8996 140.992 84.2155 140.583 84.5273L140.513 84.5804L139.862 83.722C140.269 83.4124 140.674 83.0973 141.075 82.7775L141.125 82.7369C141.35 83.0174 141.574 83.2979 141.799 83.5784ZM6.98169 81.7051C6.63318 82.1027 6.29367 82.5076 5.96428 82.9213L5.11681 82.2557C5.45728 81.8249 5.81047 81.4065 6.17116 80.9948C6.44135 81.2315 6.71152 81.4683 6.98169 81.7051ZM144.287 81.4648C143.892 81.8206 143.493 82.1706 143.089 82.5145L143.058 82.5405L142.361 81.7189C142.444 81.6477 142.528 81.5762 142.612 81.5044C142.925 81.2345 143.237 80.961 143.543 80.6837L143.564 80.6647C143.804 80.9314 144.046 81.1982 144.287 81.4648ZM9.1867 79.4045C9.11752 79.4712 9.04859 79.5381 8.97979 79.6052C8.68585 79.8929 8.39683 80.1835 8.11169 80.4785L8.05891 80.5334L7.28181 79.7868C7.65054 79.4031 8.02793 79.0257 8.41123 78.6552L8.43879 78.6286C8.68805 78.8872 8.93738 79.1459 9.1867 79.4045ZM146.633 79.1842C146.26 79.5757 145.879 79.9597 145.491 80.3365L144.73 79.5733C144.799 79.5071 144.866 79.4405 144.935 79.3739C145.235 79.078 145.531 78.7777 145.822 78.4728L145.853 78.4402C146.113 78.6882 146.373 78.9361 146.633 79.1842ZM11.5628 77.2666C11.4887 77.3291 11.4149 77.3918 11.3411 77.4546C11.0278 77.7226 10.718 77.993 10.4113 78.2673L10.3563 78.3168L9.63634 77.5148C10.0367 77.1554 10.4411 76.8037 10.8508 76.4573L10.8684 76.4426C11.0998 76.7173 11.3313 76.9919 11.5628 77.2666ZM148.787 76.7055C148.455 77.1282 148.112 77.5415 147.759 77.9475L147.738 77.9714L146.926 77.2639C147.268 76.8709 147.603 76.4681 147.926 76.0576L147.939 76.04C148.222 76.2619 148.504 76.4837 148.787 76.7055ZM14.0685 75.2694C13.6481 75.5873 13.2306 75.9107 12.8171 76.2392L12.1301 75.4086C12.5543 75.0707 12.9848 74.7377 13.4184 74.4098C13.6351 74.6963 13.8518 74.9828 14.0685 75.2694ZM150.664 73.9933C150.387 74.4555 150.095 74.908 149.788 75.3508L149.767 75.3808L148.882 74.7662C149.175 74.343 149.456 73.9116 149.721 73.4704L149.74 73.4391C150.048 73.6239 150.356 73.8085 150.664 73.9933ZM16.673 73.3969C16.2489 73.6876 15.8268 73.9836 15.4078 74.284L15.3594 74.3188L14.7307 73.4435C14.8281 73.3735 14.9258 73.3038 15.0235 73.2342C15.353 73.0002 15.6843 72.7688 16.0173 72.5398L16.0635 72.5081C16.2667 72.8044 16.4698 73.1006 16.673 73.3969ZM152.129 71.0115C151.935 71.5186 151.715 72.0159 151.476 72.5031L151.46 72.5366L150.493 72.0594C150.72 71.5989 150.93 71.1264 151.115 70.6445L151.123 70.6251C151.459 70.7539 151.794 70.8827 152.129 71.0115ZM19.3571 71.6342C18.9247 71.9063 18.4938 72.1833 18.0649 72.464L18.0056 72.5028L17.415 71.6013C17.8463 71.3188 18.2808 71.0393 18.7174 70.7635L18.7832 70.7221C18.9745 71.0261 19.1659 71.3302 19.3571 71.6342ZM22.1073 69.9699C21.6505 70.2363 21.195 70.5061 20.742 70.7799L20.1669 69.8683C20.612 69.599 21.059 69.334 21.5077 69.072L21.5646 69.0389C21.7455 69.3491 21.9264 69.6595 22.1073 69.9699ZM152.968 67.767C152.894 68.3227 152.784 68.8735 152.643 69.4164L151.601 69.1432C151.613 69.0981 151.624 69.0529 151.636 69.0077C151.648 68.9627 151.658 68.9178 151.668 68.8728C151.764 68.4738 151.84 68.0703 151.895 67.6645L151.9 67.6244C152.257 67.672 152.612 67.7195 152.968 67.767ZM24.9115 68.3954C24.7673 68.4735 24.6232 68.552 24.4793 68.6307C24.103 68.8373 23.5916 69.1223 23.5916 69.1223L23.5029 69.1721L22.9758 68.2321C23.4371 67.9734 23.9002 67.7181 24.3648 67.4658L24.3983 67.4477C24.5694 67.7637 24.7405 68.0795 24.9115 68.3954ZM27.7622 66.9028C27.4804 67.0453 27.199 67.1894 26.9177 67.3345C26.6684 67.4634 26.3317 67.6391 26.3317 67.6391L25.8319 66.6844C26.309 66.4347 26.7869 66.1888 27.2664 65.9458L27.2757 65.9412C27.4379 66.2616 27.6 66.5822 27.7622 66.9028ZM29.2423 66.1661L29.203 66.1852L28.729 65.2174L28.7682 65.1982C28.9262 65.5208 29.0843 65.8434 29.2423 66.1661ZM152.928 64.3945C153.016 64.9483 153.064 65.5068 153.071 66.0669L151.994 66.0885C151.989 65.5798 151.944 65.0699 151.864 64.5656L152.927 64.3877C152.928 64.39 152.928 64.3922 152.928 64.3945ZM151.908 61.2002C152.145 61.6911 152.352 62.1961 152.522 62.7142L151.504 63.0707C151.346 62.5828 151.152 62.1066 150.926 61.6463L151.892 61.1702C151.897 61.1802 151.902 61.1903 151.908 61.2002ZM150.039 58.3992C150.398 58.8178 150.735 59.2548 151.042 59.7109L150.15 60.3139C150.126 60.2786 150.102 60.2434 150.078 60.2084C150.052 60.1708 150.026 60.1331 149.999 60.0958C149.756 59.7525 149.496 59.4212 149.222 59.1018L149.205 59.082L150.022 58.3785C150.027 58.3854 150.034 58.3924 150.039 58.3992ZM147.647 56.1183C148.059 56.4474 148.46 56.7916 148.844 57.1526L148.865 57.1719L148.125 57.9565C148.082 57.9157 148.038 57.875 147.994 57.8345C147.654 57.52 147.3 57.2195 146.937 56.9307L147.606 56.0868C147.619 56.0973 147.632 56.1077 147.647 56.1183ZM144.906 54.2497C145.368 54.5223 145.822 54.8077 146.267 55.1076L145.664 56.001C145.239 55.7123 144.802 55.4395 144.359 55.1779L144.326 55.1581L144.873 54.2291C144.884 54.236 144.896 54.2428 144.906 54.2497ZM141.985 52.734C142.456 52.9494 142.921 53.1749 143.382 53.4111L143.429 53.4354L142.937 54.3936C142.474 54.1559 142.008 53.9298 141.536 53.7138L141.505 53.6991L141.953 52.7191C141.963 52.724 141.975 52.7289 141.985 52.734ZM138.95 51.4943C139.452 51.6772 139.949 51.8687 140.443 52.0691L140.041 53.0686C139.558 52.8721 139.071 52.6856 138.581 52.5069L138.552 52.496L138.92 51.4832C138.929 51.4869 138.939 51.4906 138.95 51.4943ZM135.824 50.4715C136.343 50.6239 136.859 50.7835 137.373 50.9507L137.041 51.9756C136.535 51.8113 136.029 51.655 135.522 51.5056L135.814 50.4685C135.818 50.4694 135.82 50.4704 135.824 50.4715ZM132.675 49.6394C133.185 49.7611 133.694 49.8881 134.201 50.0209L134.243 50.0318L133.969 51.0737C133.905 51.0572 133.843 51.0409 133.78 51.0244C133.33 50.9078 132.878 50.7958 132.426 50.6881L132.661 49.6363C132.666 49.6374 132.67 49.6384 132.675 49.6394ZM129.477 48.9581C130.01 49.0601 130.542 49.1669 131.072 49.2793L130.848 50.3336C130.326 50.2228 129.801 50.1174 129.276 50.0168C129.276 50.0168 129.444 48.9519 129.477 48.9581ZM126.442 48.4384C126.899 48.5086 127.354 48.5819 127.809 48.6583L127.875 48.6696L127.694 49.7321C127.168 49.6424 126.638 49.558 126.107 49.4776L126.269 48.4121C126.327 48.4209 126.384 48.4296 126.442 48.4384Z" fill="#1BB3BC"/>
<path fill-rule="evenodd" clip-rule="evenodd" d="M129.508 120.886H133.033V117.362H129.508V120.886Z" fill="#9E3667"/>
<path fill-rule="evenodd" clip-rule="evenodd" d="M120.235 27.5631C120.235 28.8498 119.121 29.8753 117.806 29.7292C116.807 29.6193 115.998 28.8097 115.889 27.8101C115.744 26.4949 116.77 25.3828 118.054 25.3828C119.259 25.3828 120.235 26.3592 120.235 27.5631Z" fill="#F6C854"/>
<path fill-rule="evenodd" clip-rule="evenodd" d="M20.5938 111.408H24.9996V107.003H20.5938V111.408Z" fill="#137E84"/>
<path fill-rule="evenodd" clip-rule="evenodd" d="M25.88 128.878C26.3982 128.906 26.9166 128.924 27.4353 128.933L27.4344 130.01C27.335 130.009 27.2354 130.007 27.136 130.005C26.6978 129.994 26.26 129.978 25.8223 129.955L25.857 128.877C25.8648 128.878 25.8724 128.878 25.88 128.878ZM30.7013 129.955C30.2057 129.979 29.7099 129.996 29.2138 130.006L29.0693 130.009L29.05 128.932C29.5824 128.922 30.1138 128.904 30.645 128.879L30.6491 128.879C30.6665 129.238 30.6839 129.597 30.7013 129.955ZM33.9535 129.711C33.4272 129.764 32.9001 129.81 32.3726 129.851L32.3289 129.854L32.2483 128.78C32.7766 128.74 33.3026 128.693 33.8281 128.64L33.844 128.638C33.8804 128.996 33.9169 129.353 33.9535 129.711ZM22.7096 128.569C23.2239 128.644 23.7403 128.706 24.258 128.757L24.1644 129.83C23.6261 129.779 23.0897 129.713 22.5543 129.636L22.6897 128.566C22.6963 128.567 22.703 128.568 22.7096 128.569ZM37.1853 129.309C36.6484 129.388 36.1104 129.46 35.5719 129.528L35.438 128.458C35.9645 128.392 36.4913 128.321 37.0168 128.244L37.028 128.242C37.0804 128.598 37.1329 128.953 37.1853 129.309ZM19.6293 127.94C20.123 128.073 20.6215 128.19 21.1234 128.293L20.9123 129.35C20.3881 129.244 19.8656 129.12 19.3481 128.981L19.3057 128.969L19.5877 127.929C19.6016 127.933 19.6154 127.937 19.6293 127.94ZM40.3945 128.773C39.8784 128.87 39.3613 128.961 38.8435 129.048L38.7921 129.057L38.6151 127.994C39.1357 127.907 39.6578 127.814 40.1783 127.717L40.1963 127.714C40.2624 128.067 40.3284 128.42 40.3945 128.773ZM16.6545 126.883C17.1215 127.095 17.5978 127.286 18.0809 127.459L17.7242 128.476C17.2092 128.294 16.7034 128.089 16.2072 127.863L16.1815 127.852L16.6302 126.872C16.6384 126.875 16.6465 126.879 16.6545 126.883ZM43.5794 128.123C43.0505 128.24 42.5205 128.353 41.9898 128.462L41.7735 127.406C42.2789 127.302 42.7818 127.195 43.284 127.084L43.3459 127.071C43.4237 127.421 43.5016 127.772 43.5794 128.123ZM46.74 127.371C46.2152 127.503 45.6897 127.633 45.1631 127.759L44.9131 126.71C45.0194 126.685 45.1257 126.659 45.232 126.634C45.6465 126.534 46.0613 126.431 46.4755 126.326C46.5637 126.674 46.6519 127.022 46.74 127.371ZM13.9632 125.287C14.3683 125.597 14.7926 125.881 15.2311 126.141L14.699 127.079C14.219 126.795 13.7528 126.482 13.3074 126.142C13.3074 126.142 13.9339 125.264 13.9632 125.287ZM49.8761 126.528C49.3878 126.666 48.8988 126.801 48.4089 126.934L48.3115 126.96L48.0316 125.919C48.5505 125.78 49.0669 125.636 49.5831 125.491C49.6807 125.836 49.7785 126.182 49.8761 126.528ZM52.9887 125.602C52.4721 125.763 51.9544 125.92 51.4359 126.075L51.1284 125.042C51.6208 124.895 52.1125 124.746 52.6032 124.594L52.6685 124.573C52.7754 124.916 52.882 125.26 52.9887 125.602ZM56.0762 124.602C55.6023 124.762 55.1271 124.919 54.6516 125.074L54.5354 125.111L54.203 124.086C54.691 123.928 55.1789 123.767 55.6659 123.603L55.732 123.581C55.8467 123.922 55.9615 124.262 56.0762 124.602ZM11.8278 123.133C12.1233 123.53 12.4457 123.905 12.7917 124.257L12.037 125.026C11.6608 124.648 11.3113 124.241 10.9903 123.813L10.936 123.74L11.8031 123.1C11.8112 123.111 11.8195 123.122 11.8278 123.133ZM59.1391 123.533C58.6306 123.717 58.1213 123.898 57.611 124.076L57.2553 123.059C57.7615 122.882 58.2679 122.702 58.7737 122.52C58.8955 122.857 59.0173 123.195 59.1391 123.533ZM62.179 122.399C61.7013 122.583 61.2224 122.764 60.7429 122.944L60.662 122.974L60.2855 121.964C60.7768 121.781 61.268 121.595 61.7583 121.406L61.7917 121.394C61.9208 121.729 62.0499 122.064 62.179 122.399ZM10.3964 120.419C10.5618 120.889 10.7581 121.346 10.988 121.79L10.0383 122.3C9.77941 121.807 9.56319 121.298 9.37891 120.774L9.36753 120.742L10.3862 120.39C10.3895 120.4 10.393 120.409 10.3964 120.419ZM65.1946 121.205C64.7168 121.4 64.2379 121.592 63.7584 121.782L63.6895 121.809L63.2929 120.807C63.7866 120.612 64.2799 120.413 64.7726 120.213L64.7877 120.207C64.9233 120.539 65.059 120.872 65.1946 121.205ZM68.1861 119.953C67.7289 120.149 67.2711 120.343 66.8126 120.536L66.6932 120.586L66.2773 119.592C66.4528 119.518 66.6281 119.445 66.8033 119.371C67.123 119.236 67.4422 119.1 67.7611 118.963C67.9029 119.293 68.0445 119.623 68.1861 119.953ZM71.1544 118.647C70.6688 118.866 70.1819 119.083 69.6945 119.298L69.2395 118.32C69.3836 118.257 69.5277 118.193 69.6718 118.13C70.0159 117.977 70.3596 117.823 70.7029 117.669L70.7112 117.665C70.8589 117.992 71.0067 118.32 71.1544 118.647ZM9.7905 117.392C9.82696 117.898 9.89149 118.401 9.98758 118.899L8.93066 119.11C8.82397 118.568 8.75531 118.019 8.71548 117.468L8.71354 117.44L9.78869 117.367C9.78933 117.375 9.78985 117.384 9.7905 117.392ZM74.0985 117.29C73.6098 117.52 73.12 117.748 72.6293 117.975L72.1775 116.996C72.6548 116.776 73.1307 116.554 73.6065 116.33L73.6383 116.315C73.7918 116.64 73.9452 116.965 74.0985 117.29ZM77.019 115.882C76.5343 116.121 76.0483 116.357 75.5617 116.592L75.0934 115.621C75.574 115.389 76.0534 115.156 76.5328 114.92L76.5426 114.915C76.7014 115.237 76.8602 115.56 77.019 115.882ZM9.90376 114.25C9.89523 114.314 9.88734 114.378 9.87945 114.443C9.87182 114.505 9.86458 114.568 9.8576 114.631C9.81505 115.02 9.78505 115.41 9.76863 115.801L8.69141 115.767C8.69322 115.721 8.69542 115.674 8.69748 115.628C8.72296 115.12 8.7699 114.615 8.83495 114.112L8.83573 114.106C9.19174 114.154 9.54775 114.202 9.90376 114.25ZM79.9151 114.426C79.4399 114.67 78.9638 114.911 78.487 115.151L77.9863 114.197C78.1323 114.124 78.278 114.05 78.4238 113.976C78.7575 113.807 79.0909 113.638 79.4238 113.467C79.5875 113.787 79.7513 114.107 79.9151 114.426ZM82.788 112.924C82.3448 113.161 81.9005 113.395 81.4556 113.628L81.3545 113.681L80.8551 112.726C81.3123 112.487 81.7692 112.245 82.2256 112.003L82.2807 111.973C82.4497 112.29 82.6188 112.607 82.788 112.924ZM10.5555 111.166C10.536 111.234 10.5171 111.303 10.4981 111.371C10.3893 111.77 10.2894 112.17 10.2001 112.574L10.1731 112.699L9.11931 112.473C9.2344 111.935 9.36941 111.402 9.51851 110.873L9.51955 110.869C9.86483 110.968 10.2101 111.067 10.5555 111.166ZM85.636 111.377C85.1665 111.637 84.6957 111.895 84.2244 112.151L83.7008 111.209C84.1289 110.977 84.5568 110.742 84.9842 110.506L85.1143 110.434C85.2881 110.748 85.4621 111.063 85.636 111.377ZM88.4598 109.786C87.9912 110.054 87.5217 110.321 87.0512 110.587L86.5219 109.648C86.9904 109.384 87.4575 109.118 87.9236 108.851C88.1023 109.162 88.281 109.474 88.4598 109.786ZM11.5958 108.167C11.398 108.656 11.2107 109.151 11.036 109.65L10.0167 109.3C10.0937 109.079 10.1732 108.859 10.2551 108.64C10.3648 108.346 10.4792 108.054 10.5967 107.763C10.9297 107.897 11.2628 108.032 11.5958 108.167ZM91.2584 108.152C90.8394 108.4 90.4198 108.647 89.9995 108.894L89.8623 108.974L89.3188 108.043C89.7837 107.772 90.2463 107.499 90.7083 107.225C90.8917 107.534 91.0751 107.843 91.2584 108.152ZM94.0321 106.475C93.6163 106.73 93.1999 106.984 92.7827 107.237L92.6487 107.318L92.0911 106.396C92.2062 106.327 92.3212 106.257 92.4361 106.187C92.7806 105.978 93.1246 105.768 93.4682 105.557C93.6561 105.863 93.8442 106.169 94.0321 106.475ZM12.92 105.268C12.839 105.428 12.7595 105.589 12.6806 105.749C12.5255 106.066 12.3744 106.385 12.2271 106.706L11.2477 106.256C11.4702 105.772 11.7017 105.292 11.9413 104.816L11.9586 104.781C12.2791 104.944 12.5995 105.106 12.92 105.268ZM96.7806 104.756C96.3626 105.022 95.9432 105.286 95.5233 105.549L95.4097 105.621L94.8382 104.707C95.2909 104.424 95.7417 104.139 96.1916 103.853L96.2017 103.847C96.3947 104.15 96.5876 104.453 96.7806 104.756ZM99.5016 102.995C99.072 103.278 98.6411 103.559 98.2095 103.838L98.1441 103.881L97.5588 102.976C97.986 102.7 98.4123 102.421 98.8383 102.141L98.9086 102.095C99.1062 102.395 99.304 102.695 99.5016 102.995ZM14.4592 102.467C14.4098 102.55 14.3609 102.634 14.3119 102.717C14.2521 102.82 14.1927 102.922 14.1334 103.025C13.9753 103.301 13.8193 103.577 13.6662 103.855L12.7222 103.336C12.9811 102.865 13.2476 102.399 13.5205 101.937L13.5321 101.917C13.8412 102.1 14.1502 102.283 14.4592 102.467ZM102.194 101.191C101.748 101.495 101.3 101.797 100.852 102.098L100.252 101.203C100.699 100.903 101.144 100.602 101.588 100.3C101.79 100.597 101.992 100.894 102.194 101.191ZM16.1669 99.7557C15.8744 100.194 15.5873 100.637 15.305 101.083L14.3826 100.526C14.6402 100.116 14.9047 99.709 15.1727 99.3045L15.2702 99.1578C15.5692 99.3571 15.868 99.5564 16.1669 99.7557ZM104.859 99.3441C104.443 99.6376 104.025 99.929 103.608 100.219L103.53 100.273L102.917 99.3872C103.33 99.1009 103.741 98.8129 104.152 98.5239L104.238 98.4635C104.445 98.757 104.652 99.0506 104.859 99.3441ZM18.0087 97.1297C17.7042 97.5434 17.4038 97.9624 17.1066 98.3839L17.0727 98.4324L16.1904 97.8136C16.2593 97.7153 16.3286 97.6171 16.3981 97.5193C16.6123 97.2176 16.8289 96.9174 17.0472 96.6185L17.141 96.4908C17.4303 96.7038 17.7196 96.9168 18.0087 97.1297ZM107.492 97.4537C107.098 97.7419 106.702 98.0282 106.306 98.3135L106.179 98.4044L105.551 97.5291C105.969 97.2285 106.388 96.9254 106.805 96.621L106.856 96.5836C107.068 96.8737 107.28 97.1636 107.492 97.4537ZM110.094 95.5189C109.663 95.8452 109.231 96.1693 108.797 96.4918L108.154 95.6273C108.261 95.548 108.367 95.4688 108.473 95.3895C108.778 95.1615 109.083 94.9325 109.387 94.7028L109.443 94.6599C109.66 94.9463 109.877 95.2326 110.094 95.5189ZM19.9631 94.5806C19.8816 94.6829 19.8004 94.7852 19.7193 94.8877C19.4826 95.1873 19.2486 95.488 19.0162 95.7898L18.9734 95.8457L18.1182 95.1899C18.1964 95.0879 18.2749 94.9862 18.3536 94.8846C18.591 94.578 18.8306 94.2731 19.0721 93.9695L19.1206 93.9088C19.4013 94.1327 19.6822 94.3566 19.9631 94.5806ZM112.662 93.5391C112.271 93.8457 111.88 94.1503 111.487 94.4539L111.382 94.5347L110.724 93.6813C111.115 93.3796 111.505 93.0765 111.893 92.7722L111.996 92.6916C112.218 92.9741 112.44 93.2566 112.662 93.5391ZM22.0112 92.1035C21.6668 92.506 21.3263 92.9109 20.9889 93.3181L20.1456 92.6469C20.2195 92.5574 20.2936 92.4683 20.3678 92.3792C20.6264 92.069 20.8871 91.7606 21.1493 91.4533L21.1922 91.403C21.4652 91.6364 21.7382 91.87 22.0112 92.1035ZM115.194 91.5129C114.786 91.8458 114.376 92.1763 113.965 92.5057L113.932 92.532L113.259 91.6903C113.673 91.3596 114.084 91.0269 114.494 90.6929L114.512 90.6779C114.74 90.9562 114.967 91.2346 115.194 91.5129ZM24.1402 89.6929C24.0298 89.8143 23.9196 89.9359 23.8096 90.0577C23.5222 90.3767 23.1334 90.8142 23.1334 90.8142L23.0664 90.8901L22.2587 90.1767C22.6087 89.7804 22.962 89.387 23.3177 88.9957L23.3435 88.9674C23.6091 89.2092 23.8746 89.4511 24.1402 89.6929ZM117.687 89.4395C117.304 89.7641 116.92 90.087 116.534 90.4086L116.446 90.4821L115.757 89.6535C116.17 89.3097 116.581 88.9641 116.991 88.6172C117.223 88.8913 117.455 89.1654 117.687 89.4395ZM26.3399 87.3446C26.0131 87.6838 25.6883 88.0256 25.365 88.3693L25.2319 88.5112L24.4456 87.7743C24.8132 87.382 25.1837 86.9922 25.5564 86.6046L25.5639 86.5969C25.8227 86.8461 26.0813 87.0953 26.3399 87.3446ZM120.14 87.3163C119.766 87.6479 119.389 87.977 119.011 88.3049L118.919 88.3841L118.214 87.5692C118.618 87.2194 119.02 86.8675 119.421 86.5141L119.426 86.5091C119.664 86.7782 119.902 87.0472 120.14 87.3163ZM122.549 85.1426C122.165 85.4964 121.779 85.8478 121.393 86.1978L121.35 86.2362L120.628 85.4359C121.001 85.1002 121.371 84.7614 121.741 84.4214L121.818 84.3505C122.062 84.6146 122.305 84.8785 122.549 85.1426ZM27.4946 86.1615L27.4642 86.1923L26.6974 85.4351L26.7278 85.4043C26.9833 85.6568 27.239 85.9091 27.4946 86.1615ZM124.91 82.9154C124.52 83.2912 124.129 83.6644 123.735 84.0357L122.995 83.2521C123.368 82.9 123.738 82.5468 124.107 82.1916L124.16 82.1403C124.41 82.3987 124.659 82.6571 124.91 82.9154ZM127.217 80.6325C126.861 80.9921 126.504 81.3498 126.146 81.7056L126.07 81.7811L125.312 81.015C125.693 80.638 126.072 80.2579 126.45 79.8757C126.704 80.128 126.961 80.3802 127.217 80.6325ZM129.466 78.29C129.096 78.6855 128.723 79.0781 128.348 79.4689L127.571 78.7225C127.923 78.3562 128.272 77.9882 128.619 77.6182L128.678 77.5543C128.941 77.7995 129.203 78.0448 129.466 78.29ZM131.648 75.8845C131.291 76.2907 130.929 76.6941 130.566 77.0952L129.768 76.3713C130.129 75.9735 130.486 75.5742 130.84 75.172C131.11 75.4096 131.379 75.6471 131.648 75.8845ZM133.758 73.4114C133.423 73.8173 133.084 74.2204 132.744 74.6214L132.713 74.657L131.894 73.957C132.242 73.5499 132.586 73.1388 132.926 72.7255C133.204 72.9541 133.481 73.1827 133.758 73.4114ZM135.781 70.8642C135.452 71.2949 135.118 71.7222 134.782 72.1469L133.937 71.4772C134.271 71.0567 134.599 70.635 134.925 70.2098C135.21 70.4279 135.496 70.646 135.781 70.8642ZM137.703 68.2362C137.393 68.6815 137.076 69.1225 136.756 69.5608L135.886 68.9245C136.194 68.5044 136.498 68.079 136.798 67.6513L136.82 67.6198C137.115 67.8252 137.409 68.0307 137.703 68.2362ZM139.505 65.5205C139.232 65.9562 138.952 66.3884 138.669 66.8174L138.621 66.89L137.723 66.2942C138.007 65.866 138.284 65.4367 138.557 65.0031L138.592 64.9475C138.897 65.1385 139.201 65.3295 139.505 65.5205ZM141.157 62.7044C140.902 63.1708 140.641 63.6328 140.372 64.0911L140.353 64.1249L139.423 63.5798C139.479 63.485 139.534 63.39 139.589 63.2948C139.792 62.9438 139.991 62.5904 140.186 62.2348L140.212 62.1881C140.527 62.3602 140.843 62.5323 141.157 62.7044ZM142.622 59.7777C142.399 60.2711 142.165 60.7595 141.923 61.2436L140.953 60.7735C141.191 60.2986 141.421 59.8186 141.64 59.3338C141.968 59.4819 142.295 59.6298 142.622 59.7777ZM143.839 56.7285C143.665 57.2372 143.476 57.7408 143.278 58.2402L143.266 58.2692L142.265 57.8692C142.458 57.3854 142.642 56.8952 142.812 56.4012L142.819 56.38C143.159 56.4961 143.499 56.6124 143.839 56.7285ZM144.717 53.5488C144.613 54.0573 144.49 54.5618 144.353 55.0625L144.328 55.1552L143.29 54.8663C143.308 54.8002 143.326 54.734 143.344 54.6678C143.454 54.2557 143.555 53.8395 143.643 53.4207L143.662 53.3316C144.014 53.404 144.366 53.4764 144.717 53.5488ZM145.118 50.2506C145.101 50.806 145.058 51.3605 144.989 51.912L143.92 51.7798C143.927 51.7171 143.934 51.6544 143.942 51.5916C143.989 51.1587 144.023 50.7244 144.038 50.2891L144.041 50.2193C144.401 50.2297 144.759 50.2401 145.118 50.2506ZM144.851 46.9528C144.958 47.4889 145.034 48.032 145.078 48.576L144.005 48.6624C143.962 48.1462 143.891 47.6346 143.786 47.1304L144.842 46.9104C144.844 46.9245 144.848 46.9386 144.851 46.9528ZM143.693 43.741C143.958 44.2338 144.187 44.746 144.379 45.2729L143.369 45.6487C143.197 45.1704 142.987 44.7032 142.745 44.2532L143.689 43.735C143.691 43.7371 143.692 43.739 143.693 43.741ZM141.676 41.0613C142.052 41.4347 142.404 41.8314 142.727 42.2506L142.771 42.3089L141.912 42.9591C141.89 42.9299 141.867 42.9009 141.845 42.872C141.819 42.8377 141.792 42.8037 141.765 42.7698C141.496 42.432 141.206 42.1094 140.897 41.8065L141.651 41.0371C141.66 41.0452 141.668 41.0532 141.676 41.0613ZM138.99 39.0322C139.466 39.3091 139.929 39.6103 140.37 39.9398L139.724 40.8034C139.691 40.778 139.657 40.7528 139.622 40.7276C139.586 40.7007 139.549 40.6739 139.511 40.6473C139.168 40.4035 138.814 40.1764 138.451 39.9649L138.965 39.0181C138.974 39.0228 138.982 39.0275 138.99 39.0322ZM135.979 37.667C136.477 37.8418 136.969 38.0353 137.451 38.2492L137.477 38.2608L137.036 39.2442C136.573 39.0366 136.101 38.8519 135.624 38.6843L135.576 38.6681L135.93 37.6502C135.947 37.6559 135.962 37.6614 135.979 37.667ZM115.037 38.2104C114.959 38.2235 114.882 38.2366 114.804 38.2498C114.354 38.3277 113.904 38.4086 113.455 38.4927L113.257 37.4335C113.789 37.3337 114.323 37.2378 114.858 37.1477C114.917 37.5019 114.977 37.8561 115.037 38.2104ZM132.777 36.8051C133.302 36.9105 133.825 37.0306 134.343 37.1673L134.068 38.2094C133.571 38.0768 133.07 37.963 132.567 37.862L132.528 37.8544L132.737 36.7972C132.75 36.7999 132.763 36.8025 132.777 36.8051ZM118.213 37.7393C117.683 37.8069 117.153 37.8801 116.623 37.9582L116.464 36.8925C117.001 36.8121 117.538 36.739 118.077 36.6702C118.122 37.0266 118.167 37.3829 118.213 37.7393ZM129.52 36.3366C130.034 36.3856 130.549 36.4447 131.061 36.5157L131.114 36.5232L130.963 37.5902C130.448 37.5177 129.934 37.4586 129.419 37.4096L129.383 37.4063L129.482 36.3332C129.495 36.3343 129.507 36.3354 129.52 36.3366ZM121.402 37.4104C121.338 37.4154 121.273 37.4207 121.209 37.4258C120.746 37.464 120.282 37.507 119.82 37.5542L119.695 36.4837C120.22 36.4289 120.747 36.3816 121.276 36.3393L121.319 36.3359C121.347 36.6941 121.374 37.0522 121.402 37.4104ZM124.6 37.2497C124.484 37.2522 124.368 37.2549 124.252 37.258C123.839 37.2695 123.425 37.2859 123.011 37.3065L122.946 36.2308C123.075 36.2242 123.203 36.2183 123.332 36.2126C123.702 36.1966 124.073 36.1841 124.443 36.1752L124.578 36.1724C124.585 36.5315 124.593 36.8906 124.6 37.2497ZM126.246 36.1662C126.778 36.1739 127.312 36.1905 127.845 36.2167L127.794 37.2932C127.274 37.2667 126.751 37.2514 126.23 37.2436L126.199 37.2433L126.212 36.1658C126.224 36.1659 126.234 36.166 126.246 36.1662Z" fill="#137E84"/>
<path fill-rule="evenodd" clip-rule="evenodd" d="M117.377 112.588C117.858 112.592 118.339 112.594 118.82 112.594L118.91 112.594L118.912 113.672C118.395 113.673 117.881 113.67 117.366 113.666L117.289 113.665L117.3 112.587C117.326 112.588 117.351 112.588 117.377 112.588ZM122.158 113.627C121.66 113.64 121.163 113.65 120.665 113.658L120.535 113.66L120.52 112.582C120.63 112.581 120.74 112.579 120.851 112.577C121.251 112.57 121.651 112.562 122.051 112.552L122.129 112.55C122.139 112.909 122.148 113.268 122.158 113.627ZM114.226 112.523C114.714 112.538 115.202 112.551 115.69 112.562L115.666 113.639C115.126 113.627 114.585 113.613 114.045 113.596L114.079 112.519C114.128 112.52 114.177 112.522 114.226 112.523ZM125.403 113.499C124.892 113.525 124.38 113.549 123.869 113.57L123.78 113.574L123.738 112.497C123.832 112.493 123.927 112.489 124.021 112.486C124.462 112.467 124.903 112.446 125.346 112.422C125.364 112.781 125.383 113.14 125.403 113.499ZM111 112.388C111.49 112.413 111.98 112.437 112.47 112.458L112.424 113.535C111.883 113.511 111.344 113.485 110.804 113.457L110.861 112.381C110.907 112.383 110.954 112.386 111 112.388ZM128.643 113.278C128.104 113.323 127.563 113.363 127.024 113.4L126.951 112.325C127.485 112.289 128.02 112.248 128.555 112.204C128.584 112.562 128.614 112.92 128.643 113.278ZM107.703 112.182C108.219 112.219 108.734 112.254 109.25 112.287L109.185 113.363C109.036 113.353 108.888 113.344 108.739 113.334C108.368 113.309 107.996 113.283 107.625 113.257L107.567 113.253L107.645 112.178C107.665 112.179 107.684 112.181 107.703 112.182ZM131.879 112.956C131.34 113.019 130.802 113.077 130.262 113.13L130.155 112.058C130.242 112.049 130.327 112.041 130.412 112.032C130.859 111.986 131.306 111.937 131.753 111.885C131.795 112.242 131.836 112.599 131.879 112.956ZM104.566 111.925C105.016 111.966 105.466 112.005 105.917 112.043L106.038 112.053L105.95 113.127C105.41 113.082 104.873 113.035 104.335 112.986L104.433 111.913C104.477 111.917 104.521 111.921 104.566 111.925ZM101.374 111.606C101.832 111.655 102.29 111.704 102.748 111.75L102.829 111.758L102.721 112.831C102.232 112.781 101.744 112.73 101.257 112.677L101.108 112.661L101.226 111.59C101.275 111.595 101.325 111.6 101.374 111.606ZM135.101 112.519C134.566 112.602 134.029 112.68 133.491 112.752L133.348 111.684C133.429 111.674 133.509 111.662 133.591 111.651C134.041 111.589 134.49 111.523 134.937 111.454C134.991 111.809 135.047 112.164 135.101 112.519ZM98.1316 111.223C98.5966 111.282 99.0619 111.339 99.5272 111.395L99.6246 111.407L99.4977 112.477C99.3093 112.454 99.121 112.432 98.9327 112.409C98.6206 112.371 98.3083 112.332 97.9961 112.293L97.8886 112.279L98.0248 111.21C98.0605 111.214 98.0961 111.219 98.1316 111.223ZM138.308 111.952C137.809 112.053 137.309 112.146 136.807 112.236L136.707 112.253L136.52 111.192C136.608 111.176 136.695 111.161 136.781 111.145C137.213 111.067 137.642 110.986 138.073 110.901L138.096 110.896C138.167 111.248 138.239 111.6 138.308 111.952ZM94.8423 110.778C95.3702 110.853 95.8984 110.927 96.4269 111L96.2816 112.067C95.7502 111.995 95.2192 111.92 94.6884 111.844L94.8306 110.776C94.8345 110.776 94.8384 110.777 94.8423 110.778ZM141.488 111.235C140.979 111.364 140.468 111.486 139.956 111.602L139.903 111.614L139.665 110.563C140.164 110.451 140.662 110.332 141.157 110.208L141.225 110.19C141.313 110.539 141.401 110.887 141.488 111.235ZM91.7485 110.306C92.2257 110.382 92.703 110.457 93.1807 110.531L93.2356 110.539L93.0733 111.604C92.574 111.528 92.0758 111.45 91.578 111.37L91.4718 111.353L91.643 110.289C91.6782 110.295 91.7134 110.301 91.7485 110.306ZM88.6199 109.78C89.0971 109.864 89.5747 109.946 90.0524 110.027L89.8722 111.09C89.3922 111.008 88.9124 110.925 88.4329 110.841L88.2757 110.813L88.4633 109.752C88.5155 109.761 88.5677 109.771 88.6199 109.78ZM144.628 110.34C144.132 110.498 143.632 110.649 143.131 110.793L143.065 110.812L142.77 109.775C143.26 109.636 143.749 109.489 144.235 109.334L144.301 109.314C144.41 109.656 144.52 109.998 144.628 110.34ZM85.4598 109.198C85.9319 109.288 86.4045 109.377 86.8771 109.465L86.6807 110.525C86.1497 110.426 85.619 110.326 85.0887 110.224L85.2926 109.165C85.3483 109.176 85.4041 109.187 85.4598 109.198ZM82.2708 108.559C82.7506 108.659 83.2306 108.757 83.711 108.854L83.4984 109.91C83.0157 109.813 82.5333 109.714 82.0513 109.614L81.911 109.585L82.1311 108.53C82.1777 108.54 82.2242 108.55 82.2708 108.559ZM147.707 109.23C147.211 109.431 146.71 109.622 146.207 109.804L146.177 109.815L145.813 108.801C145.91 108.766 146.005 108.731 146.101 108.696C146.505 108.547 146.906 108.393 147.304 108.232C147.438 108.565 147.573 108.898 147.707 109.23ZM79.0554 107.865C79.5507 107.976 80.0464 108.085 80.5425 108.193L80.3261 109.248C80.1563 109.212 79.9865 109.174 79.8167 109.137C79.4843 109.064 79.152 108.991 78.8198 108.916L78.7433 108.899L78.9794 107.848C79.0047 107.853 79.0301 107.859 79.0554 107.865ZM150.691 107.856C150.237 108.093 149.778 108.318 149.313 108.534L149.215 108.58L148.764 107.601C148.835 107.568 148.906 107.535 148.976 107.502C149.354 107.325 149.729 107.141 150.098 106.949L150.19 106.901C150.357 107.219 150.524 107.537 150.691 107.856ZM76.067 107.173C76.4825 107.273 76.8984 107.37 77.3144 107.467L77.4072 107.489L77.1637 108.539C76.6379 108.417 76.1122 108.292 75.5868 108.167L75.8374 107.119C75.914 107.137 75.9904 107.155 76.067 107.173ZM72.8188 106.372C73.3026 106.495 73.7869 106.617 74.2714 106.737L74.0119 107.783C73.5252 107.662 73.0388 107.54 72.5527 107.416L72.4407 107.388L72.7075 106.344C72.7446 106.353 72.7817 106.362 72.8188 106.372ZM153.514 106.148C153.093 106.442 152.663 106.723 152.224 106.99L152.129 107.048L151.571 106.126C152.008 105.861 152.439 105.583 152.858 105.291L152.897 105.265C153.102 105.559 153.308 105.854 153.514 106.148ZM69.6086 105.528C70.1001 105.661 70.5922 105.793 71.0845 105.923L71.1463 105.939L70.8723 106.981C70.357 106.846 69.8418 106.708 69.3268 106.568L69.5888 105.523C69.5954 105.525 69.602 105.526 69.6086 105.528ZM66.6872 104.714C67.091 104.83 67.4951 104.944 67.8995 105.057L68.0339 105.095L67.744 106.133C67.2232 105.987 66.7037 105.84 66.185 105.691L66.4821 104.656C66.5505 104.675 66.6188 104.695 66.6872 104.714ZM63.57 103.797C64.0244 103.934 64.4793 104.07 64.9345 104.205L64.6289 105.238C64.111 105.085 63.5936 104.93 63.0767 104.773L63.3896 103.742C63.4497 103.76 63.5099 103.778 63.57 103.797ZM156.069 104.021C155.68 104.411 155.269 104.782 154.843 105.135L154.147 104.313C154.548 103.98 154.934 103.631 155.301 103.265L155.305 103.261C155.559 103.514 155.814 103.767 156.069 104.021ZM60.5049 102.843C60.9526 102.986 61.4006 103.127 61.8492 103.268L61.5277 104.296C61.0122 104.135 60.4973 103.972 59.983 103.807L60.3116 102.781C60.376 102.802 60.4404 102.822 60.5049 102.843ZM57.2643 101.777C57.7241 101.933 58.1844 102.086 58.6451 102.239L58.7785 102.283L58.4412 103.306C57.9326 103.139 57.4257 102.969 56.9191 102.798L57.2495 101.772C57.2545 101.774 57.2594 101.776 57.2643 101.777ZM158.156 101.402C157.864 101.877 157.541 102.332 157.193 102.768L156.346 102.101C156.67 101.698 156.969 101.276 157.239 100.836C157.546 101.025 157.851 101.214 158.156 101.402ZM54.3141 100.754C54.7652 100.914 55.2166 101.073 55.6686 101.23L55.7241 101.25L55.3708 102.268C54.8969 102.103 54.4248 101.937 53.9529 101.769L53.8416 101.73L54.2035 100.715C54.2404 100.728 54.2772 100.741 54.3141 100.754ZM51.2035 99.6172C51.6975 99.8022 52.1922 99.9856 52.6876 100.167L52.317 101.179C51.8188 100.996 51.3216 100.812 50.8249 100.626L50.797 100.616L51.1761 99.6068C51.1853 99.6103 51.1944 99.6137 51.2035 99.6172ZM48.379 98.5309C48.8087 98.7 49.2389 98.8675 49.6697 99.0338L49.2816 100.039C48.7776 99.8446 48.2745 99.6483 47.7721 99.4499L48.1677 98.4476C48.2381 98.4754 48.3086 98.5032 48.379 98.5309ZM159.511 98.3116C159.361 98.8561 159.17 99.3896 158.942 99.9067L157.957 99.4725C157.973 99.4365 157.988 99.4003 158.004 99.3641C158.186 98.9333 158.341 98.4931 158.468 98.0443L158.473 98.025C158.82 98.1206 159.165 98.216 159.511 98.3116ZM45.1997 97.2434C45.6897 97.4469 46.1806 97.6487 46.6722 97.8485L46.2664 98.8468C45.772 98.6458 45.2784 98.4431 44.7857 98.2382L45.1815 97.2358C45.1876 97.2382 45.1937 97.2408 45.1997 97.2434ZM42.3131 96.0105C42.7736 96.212 43.2347 96.4116 43.6968 96.6092L43.273 97.6001C42.8081 97.4013 42.344 97.2003 41.8806 96.9976L41.7851 96.9557L42.218 95.9688C42.2497 95.9827 42.2814 95.9966 42.3131 96.0105ZM160 94.9916C159.986 95.5406 159.939 96.0884 159.861 96.632L159.855 96.6653L158.79 96.5085C158.796 96.4589 158.804 96.4093 158.81 96.3596C158.871 95.9084 158.907 95.4544 158.922 94.9997L158.923 94.9634C159.282 94.9727 159.642 94.9821 160 94.9916ZM39.3095 94.6587C39.7719 94.8722 40.2352 95.0838 40.6994 95.2934L40.7457 95.3142L40.3033 96.2969C40.1536 96.2295 40.0041 96.1616 39.8544 96.0939C39.5216 95.9425 39.1891 95.7901 38.8571 95.6369L38.8275 95.6232L39.2805 94.6453C39.2902 94.6498 39.2998 94.6542 39.3095 94.6587ZM36.4021 93.2773C36.8493 93.4953 37.2974 93.7113 37.7465 93.9254L37.8215 93.9611L37.3592 94.9345C36.882 94.7078 36.4052 94.4776 35.9292 94.2458L35.8974 94.2301L36.3708 93.262C36.3813 93.2672 36.3917 93.2723 36.4021 93.2773ZM33.5949 91.869C34.0264 92.0911 34.4589 92.3112 34.8923 92.5295L34.9274 92.5471L34.4441 93.5102C34.3068 93.4413 34.1697 93.372 34.0325 93.3028C33.7216 93.145 33.411 92.9864 33.101 92.8268L32.9981 92.7736L33.4927 91.8163C33.5267 91.8339 33.5607 91.8515 33.5949 91.869ZM159.691 91.6587C159.803 92.1969 159.887 92.7408 159.941 93.2882L158.87 93.4129C158.853 93.2283 158.831 93.0438 158.807 92.8599C158.762 92.5314 158.705 92.2045 158.636 91.8795L159.69 91.6545C159.69 91.6559 159.691 91.6572 159.691 91.6587ZM30.7149 90.3399C31.1643 90.5851 31.6148 90.8283 32.0668 91.0689L31.5606 92.0202C31.1049 91.7778 30.6507 91.5326 30.1977 91.2853L30.1322 91.2494L30.6501 90.3043C30.6717 90.3162 30.6933 90.328 30.7149 90.3399ZM27.957 88.7859C28.3844 89.0336 28.8129 89.2793 29.2431 89.5222L28.7133 90.4607C28.2793 90.2156 27.8469 89.9677 27.4157 89.7177L27.3048 89.6531L27.8469 88.7217C27.8836 88.7432 27.9203 88.7645 27.957 88.7859ZM158.684 88.4944C158.895 88.995 159.087 89.5036 159.254 90.0202L158.235 90.3691C158.217 90.3136 158.199 90.2584 158.181 90.203C158.036 89.7679 157.87 89.3392 157.692 88.9159L158.677 88.4787C158.679 88.4839 158.681 88.4892 158.684 88.4944ZM25.1664 87.111C25.5965 87.3773 26.0282 87.641 26.4614 87.9019L25.9077 88.8264C25.4684 88.5629 25.0328 88.2958 24.5983 88.0267L24.5211 87.9788L25.0901 87.0636C25.1156 87.0795 25.1409 87.0952 25.1664 87.111ZM157.184 85.6112C157.454 86.0533 157.711 86.5035 157.954 86.9618L157.009 87.4815C156.765 87.0142 156.502 86.5587 156.227 86.1114L157.144 85.5455C157.156 85.5674 157.171 85.5894 157.184 85.6112ZM22.5242 85.4155C22.9248 85.681 23.3271 85.9441 23.7312 86.2045L23.1475 87.1104C22.692 86.8168 22.2389 86.5202 21.7885 86.2203L22.3857 85.3232C22.4318 85.354 22.478 85.3848 22.5242 85.4155ZM19.7539 83.5008C20.1805 83.8074 20.6099 84.1104 21.0417 84.41L20.4436 85.3067C20.0005 85.0005 19.5614 84.6893 19.1241 84.3752L19.7449 83.4942C19.7478 83.4964 19.7509 83.4986 19.7539 83.5008ZM155.307 82.9203C155.619 83.3209 155.922 83.7284 156.215 84.1426L156.235 84.17L155.354 84.7902C155.314 84.7347 155.275 84.6794 155.235 84.624C154.966 84.2482 154.689 83.879 154.405 83.5152L155.253 82.8517C155.271 82.8746 155.289 82.8974 155.307 82.9203ZM17.1835 81.57C17.6023 81.898 18.0247 82.2225 18.4508 82.5426L17.8034 83.4043C17.3715 83.0797 16.9432 82.7506 16.5183 82.4178L17.178 81.5656C17.1798 81.5672 17.1817 81.5686 17.1835 81.57ZM153.164 80.4108C153.52 80.7951 153.868 81.1857 154.211 81.5826L153.393 82.2851C153.048 81.8822 152.692 81.4861 152.33 81.0961L153.12 80.3632C153.135 80.379 153.15 80.3949 153.164 80.4108ZM14.7615 79.5779C15.1421 79.9058 15.5259 80.2299 15.9136 80.5493L15.2427 81.3929C15.1542 81.32 15.0658 81.2469 14.9776 81.1735C14.689 80.9331 14.4023 80.6905 14.1177 80.4455L13.9973 80.3415L14.7023 79.5265C14.722 79.5436 14.7418 79.5607 14.7615 79.5779ZM150.854 78.074C151.236 78.4391 151.615 78.8088 151.988 79.1841L151.223 79.9437C151.141 79.8604 151.058 79.7773 150.974 79.6944C150.689 79.4116 150.401 79.1317 150.11 78.8545L150.079 78.8243L150.821 78.0431C150.832 78.0534 150.843 78.0637 150.854 78.074ZM12.3546 77.3761C12.7296 77.7399 13.1097 78.0985 13.4951 78.4517L12.7785 79.2568C12.381 78.8928 11.9898 78.5236 11.6035 78.1489L12.3423 77.3642C12.3465 77.3681 12.3505 77.3721 12.3546 77.3761ZM148.457 75.9019C148.841 76.235 149.223 76.5715 149.599 76.912L149.625 76.9354L148.904 77.7348C148.522 77.3907 148.139 77.0518 147.751 76.7162L147.701 76.6717L148.406 75.8571C148.424 75.8721 148.441 75.887 148.457 75.9019ZM10.1427 75.0746C10.4835 75.4553 10.8309 75.83 11.1841 76.1989L11.2147 76.2307L10.438 76.9778C10.3772 76.9147 10.3169 76.8513 10.2565 76.7878C9.94558 76.4604 9.63962 76.1284 9.33895 75.7925L10.1299 75.0603C10.1341 75.0651 10.1384 75.0698 10.1427 75.0746ZM145.974 73.8279C146.369 74.1463 146.761 74.4675 147.15 74.7916L146.476 75.6323C146.086 75.307 145.693 74.9858 145.298 74.6661L145.232 74.6135L145.908 73.7746C145.93 73.7923 145.952 73.8102 145.974 73.8279ZM8.14332 72.634C8.43877 73.0299 8.74265 73.4188 9.05417 73.801L9.094 73.8496L8.25967 74.5316C7.92406 74.1212 7.59645 73.703 7.27922 73.278L7.24972 73.2383L8.11433 72.5951C8.12399 72.608 8.13366 72.6211 8.14332 72.634ZM143.467 71.8541C143.859 72.1557 144.249 72.4588 144.637 72.7639L143.973 73.6118C143.587 73.309 143.199 73.0082 142.81 72.7084L142.7 72.6243L143.357 71.7695C143.393 71.7977 143.429 71.8259 143.467 71.8541ZM6.38375 69.9715C6.63923 70.4133 6.90739 70.8468 7.18717 71.2724L7.20307 71.2964L6.30414 71.8908C6.0053 71.4388 5.72097 70.9782 5.44957 70.5088L5.43661 70.4861L6.37205 69.951C6.37594 69.9579 6.37985 69.9647 6.38375 69.9715ZM140.851 69.8761C141.236 70.1636 141.62 70.4516 142.004 70.7408L142.066 70.7881L141.417 71.6482C141.205 71.4877 140.992 71.3276 140.778 71.1676C140.502 70.96 140.127 70.6801 140.127 70.6801L140.771 69.8163C140.798 69.8362 140.824 69.8562 140.851 69.8761ZM138.35 68.017C138.724 68.295 139.099 68.573 139.472 68.8509L138.831 69.7163C138.456 69.4382 138.081 69.1601 137.706 68.882L137.533 68.7524L138.175 67.8875C138.233 67.9307 138.292 67.9738 138.35 68.017ZM5.01667 67.1161C5.20038 67.5968 5.40443 68.0698 5.62616 68.535L4.66475 69.0225C4.42513 68.5238 4.20664 68.0154 4.00932 67.499C4.00932 67.499 5.00269 67.0791 5.01667 67.1161ZM135.673 66.0037C136.042 66.286 136.41 66.5664 136.781 66.8454L136.882 66.9219L136.234 67.7831C135.828 67.477 135.421 67.1689 135.016 66.8584L134.942 66.8019L135.601 65.9477C135.624 65.9665 135.648 65.9851 135.673 66.0037ZM4.21423 64.1092C4.29227 64.6192 4.39847 65.1248 4.53194 65.6231L3.49266 65.9082C3.3471 65.3686 3.23295 64.821 3.14846 64.2688C3.14846 64.2688 4.21092 64.0866 4.21423 64.1092ZM133.878 64.5878C134.068 64.742 134.336 64.9572 134.336 64.9572L133.662 65.7988C133.615 65.7608 133.568 65.7227 133.52 65.6846C133.376 65.5689 133.234 65.4527 133.092 65.3358L133.774 64.5026C133.809 64.5309 133.844 64.5594 133.878 64.5878ZM4.16198 61.0299C4.15608 61.0779 4.15056 61.1259 4.1452 61.1738C4.0968 61.6258 4.07678 62.08 4.08277 62.5345L4.08335 62.5676L3.00586 62.5865C3.00507 62.5414 3.00453 62.4961 3.00404 62.451C3.00184 61.9512 3.02767 61.453 3.08521 60.9576L3.0924 60.8983C3.44893 60.9421 3.80545 60.9861 4.16198 61.0299ZM4.97413 58.0739C4.77257 58.5339 4.60486 59.0084 4.46819 59.4926L4.4601 59.522L3.42074 59.2373C3.48977 58.9854 3.56767 58.7363 3.65355 58.4897C3.75352 58.2027 3.86511 57.9198 3.98708 57.6414C4.31609 57.7856 4.64511 57.9298 4.97413 58.0739ZM6.58175 55.4435C6.55448 55.4776 6.52744 55.5119 6.50042 55.5462C6.20937 55.9193 5.93829 56.3061 5.69057 56.7076L4.77083 56.146C5.06085 55.6717 5.38226 55.2208 5.72697 54.787L5.74064 54.7699C6.021 54.9944 6.30138 55.219 6.58175 55.4435ZM8.77863 53.2299C8.3812 53.5605 7.99853 53.9078 7.63214 54.2726L6.85742 53.5234C7.23689 53.1421 7.63378 52.7833 8.04359 52.4397L8.08975 52.4013C8.3194 52.6775 8.54909 52.9537 8.77863 53.2299ZM11.3532 51.4157C10.9041 51.6874 10.4621 51.9739 10.0306 52.2757L9.40919 51.3953C9.85986 51.078 10.3239 50.779 10.7953 50.4937C10.9813 50.8011 11.1673 51.1083 11.3532 51.4157ZM14.1592 49.9392C13.6844 50.158 13.2136 50.3884 12.7497 50.631L12.2325 49.6855C12.7028 49.4385 13.1811 49.2045 13.6635 48.9811L13.7082 48.9605C13.8586 49.2868 14.0088 49.6129 14.1592 49.9392ZM17.1099 48.7381C16.6178 48.9155 16.1284 49.1024 15.6429 49.2984L15.2143 48.3094C15.7193 48.1041 16.2304 47.9097 16.7443 47.7244C16.8661 48.0623 16.9881 48.4002 17.1099 48.7381ZM20.1528 47.7625C20.0605 47.7889 19.9683 47.8154 19.8761 47.8422C19.4704 47.9605 19.0668 48.0834 18.6645 48.2113L18.6219 48.2248L18.2936 47.1985C18.8035 47.0353 19.3143 46.8815 19.8277 46.7347L19.8576 46.7262C19.956 47.0716 20.0544 47.4171 20.1528 47.7625ZM23.2565 46.9745C23.1546 46.9974 23.0526 47.0206 22.9509 47.044C22.5421 47.1386 22.1344 47.2371 21.7275 47.3397L21.6987 47.347L21.4335 46.3025C21.9459 46.1723 22.4626 46.0495 22.9798 45.932L23.0198 45.9231C23.0987 46.2736 23.1776 46.624 23.2565 46.9745ZM26.4018 46.3447C25.8836 46.4362 25.366 46.5336 24.85 46.6363L24.6137 45.5845C24.7474 45.5578 24.8813 45.5315 25.0151 45.5055C25.3958 45.432 25.7771 45.3613 26.1588 45.2933L26.2144 45.2835C26.2769 45.6372 26.3393 45.991 26.4018 46.3447ZM29.5744 45.8515C29.4385 45.8698 29.3027 45.8887 29.1669 45.9077C28.8043 45.9588 28.4426 46.0119 28.0814 46.0673L27.9851 46.0822L27.8202 45.0172C28.3534 44.9347 28.8872 44.8574 29.4217 44.7847L29.4304 44.7836C29.4783 45.1396 29.5264 45.4956 29.5744 45.8515ZM32.7663 45.4777C32.24 45.5299 31.7147 45.5871 31.1892 45.6481L31.0433 44.5802C31.5738 44.5179 32.1063 44.461 32.639 44.4073L32.66 44.4053C32.6955 44.7628 32.7309 45.1203 32.7663 45.4777ZM35.9711 45.2101C35.4361 45.2461 34.902 45.2869 34.3677 45.3314L34.2782 44.2574C34.8135 44.2128 35.3493 44.1725 35.8853 44.1357L35.8985 44.1349C35.9227 44.4932 35.9469 44.8517 35.9711 45.2101ZM39.1848 45.0378C38.9966 45.0453 38.8084 45.0532 38.6203 45.0614C38.2846 45.0766 37.9489 45.0929 37.613 45.1106L37.5773 45.1125L37.5195 44.0365C37.6817 44.0278 37.844 44.0195 38.0062 44.0114C38.4382 43.9903 39.0275 43.9656 39.0275 43.9656L39.1414 43.9609C39.1559 44.3199 39.1703 44.6788 39.1848 45.0378Z" fill="#DEEDF2"/>
<path fill-rule="evenodd" clip-rule="evenodd" d="M138.599 60.448L141.251 59.561L139.16 63.7534C138.979 64.115 139.125 64.5528 139.487 64.7336C139.848 64.9131 140.286 64.7671 140.467 64.4054L142.558 60.2132L143.444 62.8656C143.507 63.0571 143.643 63.2038 143.811 63.2871C143.978 63.3703 144.177 63.3903 144.369 63.3263C144.752 63.1989 144.958 62.7852 144.83 62.4023L143.385 58.0783C143.255 57.6952 142.843 57.4887 142.46 57.6169L138.136 59.0628C137.753 59.1909 137.546 59.6045 137.675 59.9875C137.803 60.3698 138.216 60.5762 138.599 60.448Z" fill="#EC0000"/>
<path fill-rule="evenodd" clip-rule="evenodd" d="M16.9341 85.5872L16.4877 82.8265L20.2864 85.568C20.6138 85.8036 21.0701 85.7295 21.3065 85.4021C21.5429 85.0747 21.4688 84.6191 21.1413 84.3827L17.342 81.6419L20.102 81.1955C20.3013 81.1628 20.4686 81.0531 20.5775 80.9016C20.6872 80.7499 20.7384 80.5569 20.7063 80.3577C20.6416 79.959 20.2671 79.6884 19.8692 79.7532L15.3679 80.4822C14.9692 80.5463 14.6987 80.9215 14.7635 81.3194L15.4925 85.8201C15.5566 86.2186 15.9318 86.4892 16.3297 86.4251C16.7284 86.3604 16.9981 85.9859 16.9341 85.5872Z" fill="#EC0000"/>
<path fill-rule="evenodd" clip-rule="evenodd" d="M62.8998 112.557L60.8425 110.663L65.5238 110.469C65.9268 110.453 66.2393 110.113 66.2229 109.71C66.2066 109.307 65.8662 108.993 65.4633 109.01L60.782 109.203L62.6763 107.146C62.8123 106.997 62.8763 106.809 62.8685 106.621C62.8606 106.434 62.7816 106.251 62.6329 106.115C62.336 105.84 61.8747 105.86 61.6013 106.157L58.5132 109.512C58.2405 109.809 58.259 110.271 58.5559 110.544L61.9103 113.632C62.2072 113.905 62.6691 113.886 62.9425 113.589C63.2159 113.292 63.1967 112.831 62.8998 112.557Z" fill="#EC0000"/>
<path fill-rule="evenodd" clip-rule="evenodd" d="M148.189 111.506L145.682 110.267L150.12 108.764C150.501 108.635 150.706 108.221 150.576 107.838C150.447 107.456 150.033 107.251 149.65 107.381L145.213 108.883L146.452 106.377C146.542 106.196 146.548 105.996 146.489 105.819C146.428 105.642 146.301 105.488 146.121 105.399C145.758 105.22 145.321 105.368 145.142 105.73L143.122 109.817C142.944 110.18 143.093 110.617 143.453 110.796L147.541 112.815C147.905 112.994 148.342 112.846 148.52 112.484C148.699 112.122 148.55 111.685 148.189 111.506Z" fill="#EC0000"/>
<path fill-rule="evenodd" clip-rule="evenodd" d="M24.8018 132.233L23.1532 129.975L27.7818 130.697C28.1812 130.759 28.5543 130.487 28.6162 130.087C28.6781 129.688 28.4054 129.315 28.0069 129.253L23.378 128.531L25.6362 126.882C25.7993 126.763 25.8988 126.59 25.9274 126.404C25.9565 126.22 25.9146 126.024 25.7956 125.862C25.558 125.536 25.1008 125.464 24.7748 125.703L21.093 128.391C20.7668 128.629 20.6957 129.086 20.9334 129.412L23.6223 133.094C23.86 133.42 24.317 133.491 24.6424 133.254C24.9684 133.016 25.0396 132.559 24.8018 132.233Z" fill="#EC0000"/>
<path fill-rule="evenodd" clip-rule="evenodd" d="M44.9768 128.112C44.9768 129.398 43.8635 130.424 42.548 130.278C41.5491 130.167 40.7405 129.357 40.6308 128.359C40.4862 127.043 41.5113 125.931 42.797 125.931C44.0008 125.931 44.9768 126.907 44.9768 128.112Z" fill="#9E3667"/>
<path fill-rule="evenodd" clip-rule="evenodd" d="M2.20125 83.9941L4.88089 86.1962L2.67964 88.8749L0 86.6727L2.20125 83.9941Z" fill="#34466B"/>
<path fill-rule="evenodd" clip-rule="evenodd" d="M24.0108 48.9167L21.581 47.5321L26.1002 46.2948C26.4888 46.188 26.7181 45.7864 26.6113 45.397C26.5044 45.0077 26.103 44.7792 25.7143 44.8852L21.1953 46.1232L22.5799 43.6942C22.6803 43.5184 22.6995 43.3198 22.6504 43.1397C22.6012 42.9589 22.483 42.798 22.3072 42.6977C21.957 42.4982 21.5106 42.6199 21.3113 42.9703L19.0531 46.9319C18.8531 47.2821 18.9755 47.7285 19.3259 47.9278L23.2875 50.186C23.6377 50.3852 24.0841 50.2635 24.2834 49.9126C24.4835 49.5624 24.361 49.1168 24.0108 48.9167Z" fill="#EC0000"/>
</svg>
