<svg width="161" height="161" viewBox="0 0 161 161" fill="none" xmlns="http://www.w3.org/2000/svg">
<path fill-rule="evenodd" clip-rule="evenodd" d="M9.77992 74.9284C11.9591 67.1103 5.03145 66.8087 4.87891 56.7349C4.81679 52.6149 7.07361 48.4188 12.5045 46.4938C15.1735 45.5483 17.8337 44.8981 20.2085 43.3939C25.6203 39.9664 25.5225 33.4444 26.9991 27.8846C30.2411 15.6736 42.7192 5.97242 55.3499 6.288C64.4552 6.51508 72.6871 6.79418 80.9881 14.5226C86.6682 19.8111 90.3597 26.3179 95.633 31.7698C101.218 37.543 108.023 40.313 115.664 42.1681C122.89 43.9222 130.751 46.0094 136.282 51.2699C141.48 56.2132 140.723 61.3836 138.494 67.4535C136.036 74.1467 141.366 78.7003 146.922 81.3068C151.601 83.5012 159.433 87.9647 159.689 96.1951C160.481 121.688 144.288 121.79 138.251 124.213C82.7143 146.502 61.4011 129.31 37.8524 129.658C14.3774 130.004 0.920731 101.615 1.73628 93.2547C2.77113 82.6394 8.2579 80.3876 9.77992 74.9284Z" fill="#DEEDF2"/>
<path fill-rule="evenodd" clip-rule="evenodd" d="M53.4851 113.563C72.0433 111.264 91.9692 114.399 102.15 117.124C108.25 118.756 110.149 122.404 116.451 122.986C129.108 124.156 158.533 122.707 159.324 125.679C160.883 131.53 151.192 135.393 128.52 139.735C129.042 140.106 126.282 147.757 107.967 150.722C100.719 151.895 88.4389 152.09 83.6457 150.969C76.2783 149.246 68.7037 148.572 61.1457 148.929C34.2642 150.198 13.0048 148.622 12.4361 144.032C12.2457 142.497 13.646 140.254 15.9866 138.843C17.445 137.964 15.1787 137.467 14.65 137.317C8.15706 135.481 4.42638 133.184 4.15561 131.172C3.30633 124.86 26.2443 116.94 53.4851 113.563Z" fill="#DEEDF2"/>
<path fill-rule="evenodd" clip-rule="evenodd" d="M124.212 12.7492C123.574 7.57186 119.162 3.56348 113.813 3.56348C108.027 3.56348 103.337 8.25538 103.337 14.0434C103.337 14.993 103.463 15.913 103.7 16.7877C103.611 16.7889 103.523 16.792 103.435 16.7972L103.336 16.789V16.8037C100.335 17.0292 97.97 19.5366 97.97 22.5964C97.97 25.6561 100.335 28.1635 103.336 28.389V28.4063H141.481V28.4058H141.481C143.819 28.4058 145.715 26.5093 145.715 24.1702C145.715 21.8312 143.819 19.935 141.481 19.935H141.481V19.9348L131.817 19.1378C131.861 18.8491 131.884 18.5534 131.884 18.2523C131.884 15.0441 129.284 12.4432 126.077 12.4432C125.424 12.4432 124.797 12.5508 124.212 12.7492Z" fill="#DEEDF2"/>
<path fill-rule="evenodd" clip-rule="evenodd" d="M104.633 25.4056C104.198 21.8461 101.184 19.0903 97.5321 19.0903C93.5806 19.0903 90.3772 22.316 90.3772 26.2953C90.3772 26.9481 90.4634 27.5807 90.6251 28.182C90.5643 28.1828 90.5041 28.185 90.4442 28.1885L90.3768 28.1829V28.193C88.3275 28.348 86.7121 30.0719 86.7121 32.1754C86.7121 34.279 88.3275 36.0028 90.3768 36.1579V36.1698H116.427V36.1694H116.427C118.024 36.1694 119.318 34.8656 119.318 33.2575C119.318 31.6494 118.024 30.3457 116.427 30.3457H116.427V30.3456L109.827 29.7977C109.857 29.5992 109.873 29.3959 109.873 29.1889C109.873 26.9832 108.097 25.1951 105.907 25.1951C105.461 25.1951 105.033 25.2691 104.633 25.4056Z" fill="#EAF7FE"/>
<path fill-rule="evenodd" clip-rule="evenodd" d="M16.8347 22.8739C17.3063 18.9909 20.5709 15.9846 24.5276 15.9846C28.8083 15.9846 32.2787 19.5035 32.2787 23.8446C32.2787 24.5567 32.1854 25.2468 32.0102 25.9028C32.076 25.9037 32.1412 25.906 32.2061 25.9099L32.2791 25.9038V25.9148C34.4992 26.0839 36.2492 27.9645 36.2492 30.2593C36.2492 32.5541 34.4992 34.4346 32.2791 34.6038V34.6168H4.05815V34.6163H4.05806C2.32823 34.6163 0.925781 33.194 0.925781 31.4397C0.925781 29.6854 2.32823 28.2633 4.05806 28.2633H4.05815V28.2631L11.2081 27.6654C11.1754 27.4488 11.1585 27.227 11.1585 27.0013C11.1585 24.5951 13.082 22.6444 15.4548 22.6444C15.9375 22.6444 16.4016 22.7251 16.8347 22.8739Z" fill="#EAF7FE"/>
<path fill-rule="evenodd" clip-rule="evenodd" d="M20.4171 135.792C20.4603 135.793 20.5038 135.794 20.5478 135.792L77.3818 135.046L77.8997 135.039L89.8877 134.882C91.4522 134.861 92.8068 133.987 93.5119 132.706C93.5957 132.554 93.6703 132.395 93.7349 132.232C93.916 131.776 94.0195 131.28 94.0286 130.762C94.0292 130.728 94.0298 130.694 94.0292 130.661C93.9359 113.763 93.5779 50.4397 93.3753 33.5788C93.3482 31.3151 91.5269 29.4939 89.2774 29.4546C89.2469 29.4541 89.2164 29.4535 89.1858 29.4541L20.0226 29.7371C17.7513 29.7463 15.9077 31.5714 15.867 33.8391C15.8668 33.8547 15.8665 33.8704 15.8666 33.886L15.8402 37.6997L10.5377 37.6913C9.08157 37.6887 7.89494 38.8563 7.86771 40.31C7.8675 40.3215 7.86731 40.3327 7.86711 40.3442L7.62989 79.7816C7.62655 80.336 7.79285 80.8532 8.08054 81.2827C8.0994 81.3109 8.11864 81.3389 8.13901 81.3664C8.60612 82.0092 9.35358 82.4363 10.2063 82.4649L10.2688 82.4672L10.3718 82.4704L16.0716 82.6631L16.2964 131.611C16.3067 133.901 18.1452 135.752 20.4171 135.792Z" fill="#767676"/>
<path fill-rule="evenodd" clip-rule="evenodd" d="M20.4922 130.129H89.5864V34.251H20.4922V130.129Z" fill="white"/>
<path fill-rule="evenodd" clip-rule="evenodd" d="M57.9872 46.8335C57.9872 47.1661 57.7179 47.4354 57.3857 47.4354H29.0238C28.6916 47.4354 28.4219 47.1661 28.4219 46.8335C28.4219 46.5013 28.6916 46.2312 29.0238 46.2312H57.3857C57.7179 46.2312 57.9872 46.5013 57.9872 46.8335Z" fill="#CEDEE7"/>
<path fill-rule="evenodd" clip-rule="evenodd" d="M52.7969 50.0614C52.7969 50.394 52.5272 50.6633 52.195 50.6633H29.0238C28.6916 50.6633 28.4219 50.394 28.4219 50.0614C28.4219 49.7292 28.6916 49.4595 29.0238 49.4595H52.195C52.5272 49.4595 52.7969 49.7292 52.7969 50.0614Z" fill="#CEDEE7"/>
<path fill-rule="evenodd" clip-rule="evenodd" d="M60.1393 53.2888C60.1393 53.621 59.8696 53.8907 59.5373 53.8907H29.0238C28.6916 53.8907 28.4219 53.621 28.4219 53.2888C28.4219 52.9562 28.6916 52.6865 29.0238 52.6865H59.5373C59.8696 52.6865 60.1393 52.9562 60.1393 53.2888Z" fill="#CEDEE7"/>
<path fill-rule="evenodd" clip-rule="evenodd" d="M49.4365 63.104C49.4365 63.4362 49.1668 63.7059 48.8346 63.7059H29.0238C28.6916 63.7059 28.4219 63.4362 28.4219 63.104C28.4219 62.7714 28.6916 62.5017 29.0238 62.5017H48.8346C49.1668 62.5017 49.4365 62.7714 49.4365 63.104Z" fill="#CEDEE7"/>
<path fill-rule="evenodd" clip-rule="evenodd" d="M57.8821 66.3314C57.8821 66.664 57.6127 66.9337 57.2802 66.9337H29.0238C28.6916 66.9337 28.4219 66.664 28.4219 66.3314C28.4219 65.9988 28.6916 65.7295 29.0238 65.7295H57.2802C57.6127 65.7295 57.8821 65.9988 57.8821 66.3314Z" fill="#CEDEE7"/>
<path fill-rule="evenodd" clip-rule="evenodd" d="M47.0693 69.559C47.0693 69.8915 46.7996 70.1609 46.4673 70.1609H29.0238C28.6916 70.1609 28.4219 69.8915 28.4219 69.559C28.4219 69.2267 28.6916 68.957 29.0238 68.957H46.4673C46.7996 68.957 47.0693 69.2267 47.0693 69.559Z" fill="#CEDEE7"/>
<path fill-rule="evenodd" clip-rule="evenodd" d="M42.8763 79.0533C42.8763 79.3856 42.6066 79.6553 42.2741 79.6553H29.0238C28.6916 79.6553 28.4219 79.3856 28.4219 79.0533C28.4219 78.7207 28.6916 78.4507 29.0238 78.4507H42.2741C42.6066 78.4507 42.8763 78.7207 42.8763 79.0533Z" fill="#CEDEE7"/>
<path fill-rule="evenodd" clip-rule="evenodd" d="M52.7969 82.2799C52.7969 82.6125 52.5272 82.8822 52.195 82.8822H29.0238C28.6916 82.8822 28.4219 82.6125 28.4219 82.2799C28.4219 81.9477 28.6916 81.678 29.0238 81.678H52.195C52.5272 81.678 52.7969 81.9477 52.7969 82.2799Z" fill="#CEDEE7"/>
<path fill-rule="evenodd" clip-rule="evenodd" d="M48.8346 85.5079C48.8346 85.8402 48.5649 86.1099 48.2326 86.1099H29.0238C28.6916 86.1099 28.4219 85.8402 28.4219 85.5079C28.4219 85.1754 28.6916 84.906 29.0238 84.906H48.2326C48.5649 84.906 48.8346 85.1754 48.8346 85.5079Z" fill="#CEDEE7"/>
<path fill-rule="evenodd" clip-rule="evenodd" d="M57.9872 93.8983C57.9872 94.2306 57.7179 94.5003 57.3857 94.5003H29.0238C28.6916 94.5003 28.4219 94.2306 28.4219 93.8983C28.4219 93.5657 28.6916 93.2964 29.0238 93.2964H57.3857C57.7179 93.2964 57.9872 93.5657 57.9872 93.8983Z" fill="#CEDEE7"/>
<path fill-rule="evenodd" clip-rule="evenodd" d="M52.7969 97.1261C52.7969 97.4583 52.5272 97.7284 52.195 97.7284H29.0238C28.6916 97.7284 28.4219 97.4583 28.4219 97.1261C28.4219 96.7935 28.6916 96.5242 29.0238 96.5242H52.195C52.5272 96.5242 52.7969 96.7935 52.7969 97.1261Z" fill="#CEDEE7"/>
<path fill-rule="evenodd" clip-rule="evenodd" d="M47.2897 100.353C47.2897 100.686 47.02 100.955 46.6878 100.955H29.0238C28.6916 100.955 28.4219 100.686 28.4219 100.353C28.4219 100.021 28.6916 99.7512 29.0238 99.7512H46.6878C47.02 99.7512 47.2897 100.021 47.2897 100.353Z" fill="#CEDEE7"/>
<path fill-rule="evenodd" clip-rule="evenodd" d="M70.3969 44.4461C76.2274 48.1812 78.1294 55.7088 74.9247 61.655L99.6079 76.7201C100.501 77.2651 100.785 78.4391 100.241 79.3424C99.6977 80.2454 98.5331 80.5357 97.6397 79.9905C97.611 79.9727 97.5777 79.951 97.55 79.9321L73.7425 63.472C69.6023 68.8139 61.9125 70.1914 56.0845 66.4578C49.946 62.5253 48.1621 54.3887 52.1079 48.3199C56.0539 42.2512 64.2584 40.5135 70.3969 44.4461ZM53.8886 49.4595C50.573 54.5587 52.0718 61.3956 57.2298 64.7C62.3879 68.0046 69.282 66.5441 72.5975 61.4448C75.9133 56.3456 74.4143 49.5086 69.2562 46.2042C64.0982 42.8998 57.2043 44.36 53.8886 49.4595Z" fill="#732645"/>
<path fill-rule="evenodd" clip-rule="evenodd" d="M112.4 60.2796C113.927 59.238 114.955 57.509 115.025 55.5222C115.14 52.2073 112.543 49.4219 109.228 49.3061C106.167 49.1992 103.558 51.4055 103.085 54.3539C103.009 54.6602 102.951 54.9705 102.908 55.2812L102.908 55.2817L102.907 55.2886L102.907 55.291C102.894 55.384 102.882 55.4769 102.872 55.5698L102.296 60.1901L103.227 60.5382L103.237 60.5407L103.237 60.5407C103.257 60.6223 103.269 60.6664 103.269 60.6664L103.272 61.2943L103.278 62.4677C103.28 62.8561 103.348 63.2389 103.477 63.6011C103.567 63.8567 103.688 64.1028 103.84 64.3325C104.018 64.6021 104.233 64.8459 104.476 65.0539C104.602 65.1631 104.737 65.2612 104.878 65.3494C104.953 65.3962 105.028 65.4394 105.106 65.4802L105.106 65.4805L104.446 72.7872C104.446 72.7872 106.561 73.5058 108.919 73.0765C110.344 72.8197 111.86 72.1405 113.051 70.6324C113.051 70.6324 111.909 64.7534 112.4 60.2796Z" fill="#FFC4B8"/>
<path fill-rule="evenodd" clip-rule="evenodd" d="M108.896 72.9896C110.322 72.7327 111.837 72.0535 113.028 70.5454C113.028 70.5454 111.791 64.2455 112.443 59.7214C112.443 59.7214 108.85 67.677 108.896 72.9896ZM103.223 60.5645C103.549 60.6727 103.883 60.4251 103.873 60.0819L103.812 57.8694L103.223 60.5645Z" fill="#F4A48D"/>
<path fill-rule="evenodd" clip-rule="evenodd" d="M111.155 49.7682C108.518 49.5834 108.921 47.3272 108.921 47.3272C106.092 47.3212 104.851 48.3434 104.851 48.3434C102.518 50.0685 103.291 53.7201 103.291 53.7201C103.733 51.0004 107.877 52.3112 109.505 52.6427C110.152 53.3224 109.838 54.9157 110.13 56.278C110.135 56.3027 110.799 58.1559 110.799 58.1559L110.8 58.1581L110.834 58.3495C110.847 58.3188 110.861 58.2881 110.875 58.2575C111.352 57.2306 112.271 56.6454 112.926 56.949C113.583 57.253 113.728 58.3316 113.251 59.3586C113.085 59.7163 112.686 60.0143 112.443 60.246C112.207 61.7701 112.191 63.1928 112.278 64.4177L112.96 64.4711L115.822 52.8963C116.059 51.3417 115.388 50.605 114.286 50.2247C113.429 49.9285 112.31 49.8491 111.155 49.7682Z" fill="#444444"/>
<path fill-rule="evenodd" clip-rule="evenodd" d="M102.445 76.931L100.353 83.0326L97.0588 77.414L94.4805 76.6528L97.6181 88.3065L100.761 90.5639L104.853 88.6933L106.568 78.0146L102.445 76.931Z" fill="#9BC3D3"/>
<path fill-rule="evenodd" clip-rule="evenodd" d="M101.594 93.8468L100.595 114.285L103.367 140.263L106.254 140.502L108.534 116.612L114.454 93.2373L101.594 93.8468Z" fill="#34466B"/>
<path fill-rule="evenodd" clip-rule="evenodd" d="M108.038 95.1066L110.13 115.462L115.981 140.704L118.871 140.505L118.32 116.489L120.649 92.4889L108.038 95.1066Z" fill="#34466B"/>
<path fill-rule="evenodd" clip-rule="evenodd" d="M120.157 80.8498C119.551 79.2383 117.753 75.2705 116.734 73.8633C114.2 70.3639 114.687 69.9021 106.575 70.2746C105.893 70.3059 105.327 70.4172 104.84 70.5968C104.207 71.0117 103.136 72.4343 102.333 77.2083C102.368 78.235 102.458 81.2841 102.426 85.2928C102.4 88.603 101.211 94.4606 98.8588 102.866C102.987 102.755 105.17 102.696 105.406 102.689C116.905 101.809 122.68 101.311 122.729 101.195C123.148 100.391 123.187 99.5921 123.187 99.592C124.174 94.1798 121.523 84.6957 121.522 84.6944C120.988 83.1488 120.474 81.6908 120.157 80.8498Z" fill="#9BC3D3"/>
<path fill-rule="evenodd" clip-rule="evenodd" d="M115.146 71.5581L107.093 86.2609L100.776 78.7917L98.2741 81.2548C101.515 87.1006 103.633 90.5303 104.626 91.5441C106.117 93.0647 106.206 93.4014 110.659 89.0009C113.629 86.0672 116.067 81.7276 117.975 75.9822C117.514 74.9523 117.095 74.1422 116.717 73.5519C116.34 72.9616 115.816 72.297 115.146 71.5581Z" fill="#CEDEE7"/>
<path fill-rule="evenodd" clip-rule="evenodd" d="M100.29 79.2676L100.441 76.7664L98.4819 75.2214L97.6904 75.4976L98.7727 76.7139L93.8174 76.5408L93.964 77.7483L98.7963 80.7377L100.29 79.2676Z" fill="#FFC4B8"/>
<path fill-rule="evenodd" clip-rule="evenodd" d="M103.326 139.78L106.372 139.412L106.391 143.141L102.061 143.382L100.285 143.119L100.933 141.413L101.586 141.003L103.326 139.78Z" fill="#1BB3BC"/>
<path fill-rule="evenodd" clip-rule="evenodd" d="M115.759 139.591L113.595 141.767L113.853 143.402L119.53 142.672L118.882 139.849L115.759 139.591Z" fill="#1BB3BC"/>
<path fill-rule="evenodd" clip-rule="evenodd" d="M29.1827 42.7686L29.4037 42.0431H30.5149L30.7359 42.7686H31.4323L30.3523 39.708H29.5621L28.4863 42.7686H29.1827ZM30.3562 41.501H29.5619C29.7787 40.7991 29.91 40.3592 29.9559 40.1813C29.967 40.2313 29.9854 40.2994 30.0112 40.3856C30.0369 40.4718 30.1519 40.8436 30.3562 41.501Z" fill="#CEDEE7"/>
</svg>
