<svg width="172" height="164" viewBox="0 0 172 164" fill="none" xmlns="http://www.w3.org/2000/svg">
<path fill-rule="evenodd" clip-rule="evenodd" d="M9.42131 74.251C11.7564 65.8735 4.3331 65.5503 4.16963 54.7557C4.10309 50.3409 6.52136 45.8446 12.3408 43.7819C15.2008 42.7687 18.0513 42.072 20.596 40.4602C26.3951 36.7874 26.2903 29.7988 27.8725 23.8412C31.3465 10.7565 44.7174 0.361267 58.2517 0.699428C68.0085 0.942755 76.8294 1.24182 85.7243 9.52324C91.8108 15.19 95.7664 22.1625 101.417 28.0044C107.401 34.1907 114.693 37.1589 122.881 39.1467C130.624 41.0263 139.048 43.2628 144.975 48.8997C150.545 54.1967 149.733 59.7371 147.345 66.2412C144.711 73.4133 150.422 78.2927 156.376 81.0857C161.389 83.4371 169.781 88.22 170.056 97.0392C170.905 124.356 153.554 124.465 147.085 127.062C87.574 150.946 64.7359 132.524 39.5023 132.896C14.3477 133.267 -0.0717468 102.847 0.802155 93.8885C1.54143 86.3053 4.41447 79.7594 9.42131 74.251Z" fill="#EAF7FE"/>
<path fill-rule="evenodd" clip-rule="evenodd" d="M56.256 115.649C76.142 113.185 97.4935 116.544 108.403 119.465C114.939 121.214 116.974 125.122 123.727 125.747C137.289 127 168.82 125.447 169.668 128.632C171.338 134.902 160.953 139.041 136.659 143.693C137.219 144.091 134.262 152.29 114.635 155.467C106.87 156.724 93.7107 156.933 88.5745 155.731C80.68 153.885 72.5635 153.163 64.4647 153.545C35.6599 154.905 12.8794 153.216 12.27 148.298C12.066 146.654 13.5665 144.25 16.0746 142.738C17.6373 141.795 15.2088 141.263 14.6423 141.103C7.6848 139.135 3.68718 136.674 3.39705 134.518C2.48701 127.754 27.0661 119.267 56.256 115.649Z" fill="#DEEDF2"/>
<path fill-rule="evenodd" clip-rule="evenodd" d="M129.126 34.2434C128.443 28.6956 123.715 24.4004 117.984 24.4004C111.784 24.4004 106.758 29.428 106.758 35.6301C106.758 36.6476 106.893 37.6335 107.147 38.5708C107.051 38.572 106.957 38.5754 106.863 38.5809L106.757 38.5722V38.5879C103.542 38.8296 101.007 41.5164 101.007 44.795C101.007 48.0737 103.542 50.7605 106.757 51.0021V51.0207H147.631V51.0201H147.631C150.137 51.0201 152.168 48.988 152.168 46.4815C152.168 43.9751 150.137 41.9433 147.631 41.9433H147.631V41.9431L137.276 41.089C137.323 40.7797 137.347 40.4628 137.347 40.1402C137.347 36.7024 134.561 33.9154 131.125 33.9154C130.426 33.9154 129.753 34.0307 129.126 34.2434Z" fill="#DEEDF2"/>
<path fill-rule="evenodd" clip-rule="evenodd" d="M76.1178 41.8856L76.0267 41.9698L71.213 46.5328L70.9775 46.7555L66.7375 50.7738L66.6181 50.8869L61.5359 55.7044C58.4717 48.5638 56.1738 43.4787 56.1738 43.4787C56.1738 43.4787 74.844 30.6203 79.9214 28.0652C84.9987 25.5117 87.6358 30.9669 87.6358 30.9669L76.1178 41.8856Z" fill="#9BC3D3"/>
<path fill-rule="evenodd" clip-rule="evenodd" d="M76.7623 56.7935C76.6145 57.2829 76.8113 57.7757 77.2023 57.8943L78.4982 58.2889C78.8888 58.4065 79.3244 58.1068 79.4732 57.6167L79.77 56.6327C79.9178 56.1437 79.7213 55.651 79.3304 55.5324L78.034 55.1382C77.6436 55.0193 77.2075 55.3198 77.0596 55.8096L76.7623 56.7935Z" fill="#DEEDF2"/>
<path fill-rule="evenodd" clip-rule="evenodd" d="M72.4185 55.299C72.2708 55.788 72.4673 56.2803 72.8585 56.3997L74.1545 56.7939C74.545 56.9119 74.9807 56.6114 75.1291 56.1216L75.4263 55.1382C75.5742 54.6483 75.3776 54.156 74.9867 54.0379L73.6903 53.6437C73.2999 53.5243 72.8638 53.8248 72.7158 54.3151L72.4185 55.299Z" fill="#DEEDF2"/>
<path fill-rule="evenodd" clip-rule="evenodd" d="M68.153 53.9824C68.0051 54.4718 68.2015 54.965 68.5925 55.0831L69.8888 55.4777C70.2789 55.5957 70.715 55.2957 70.8634 54.8059L71.1606 53.822C71.3085 53.3326 71.1111 52.8402 70.7211 52.7213L69.4243 52.327C69.0338 52.2085 68.5981 52.5091 68.4498 52.9984L68.153 53.9824Z" fill="#DEEDF2"/>
<path fill-rule="evenodd" clip-rule="evenodd" d="M63.9188 52.5034C63.7706 52.9923 63.9683 53.4856 64.3584 53.6036L65.6547 53.9983C66.0453 54.1159 66.4815 53.8154 66.6292 53.3269L66.9261 52.3425C67.0744 51.8527 66.8775 51.3604 66.4866 51.2418L65.1906 50.8476C64.7997 50.7291 64.364 51.0292 64.2161 51.519L63.9188 52.5034Z" fill="#DEEDF2"/>
<path fill-rule="evenodd" clip-rule="evenodd" d="M59.7004 51.1943C59.5535 51.6834 59.7495 52.1761 60.14 52.2946L61.4367 52.6893C61.8265 52.8068 62.2631 52.5064 62.4113 52.0171L62.7072 51.0338C62.856 50.5437 62.6587 50.0508 62.2677 49.9331L60.9717 49.5385C60.5817 49.4201 60.1456 49.7202 59.9977 50.21L59.7004 51.1943Z" fill="#DEEDF2"/>
<path fill-rule="evenodd" clip-rule="evenodd" d="M55.5126 49.7218C55.3643 50.2116 55.5612 50.7039 55.9521 50.8225L57.2485 51.2167C57.6391 51.3348 58.0751 51.0352 58.2234 50.5458L58.5199 49.5613C58.6682 49.0716 58.4708 48.5791 58.0799 48.4606L56.7839 48.0664C56.3935 47.9475 55.9582 48.2481 55.8095 48.7374L55.5126 49.7218Z" fill="#DEEDF2"/>
<path fill-rule="evenodd" clip-rule="evenodd" d="M51.3015 48.4139C51.1529 48.9028 51.3501 49.3961 51.7411 49.5142L53.037 49.9088C53.4272 50.0263 53.8637 49.7264 54.0111 49.2369L54.3088 48.253C54.4575 47.7638 54.2602 47.2709 53.8693 47.1523L52.5729 46.7581C52.1819 46.64 51.7458 46.94 51.5975 47.4294L51.3015 48.4139Z" fill="#DEEDF2"/>
<path fill-rule="evenodd" clip-rule="evenodd" d="M47.1063 47.1727C46.958 47.6624 47.1553 48.1553 47.5458 48.2734L48.8421 48.668C49.2322 48.7864 49.6688 48.486 49.8167 47.9962L50.1136 47.0118C50.2621 46.5234 50.0648 46.0305 49.6744 45.9116L48.3767 45.5172C47.9866 45.3996 47.5509 45.6997 47.4026 46.1891L47.1063 47.1727Z" fill="#DEEDF2"/>
<path fill-rule="evenodd" clip-rule="evenodd" d="M91.7147 63.4426L88.9553 67.0833C88.9553 67.0833 87.6362 68.9603 86.5459 68.2682C85.037 67.3114 85.5077 59.696 85.5077 59.696C85.5077 59.696 91.5171 57.9525 91.7147 63.4426Z" fill="#9BC3D3"/>
<path d="M101.338 59.2407C101.335 59.2403 101.328 59.2393 101.322 59.2358C101.328 59.2393 101.335 59.2403 101.341 59.2437L101.338 59.2407Z" fill="#D39E00"/>
<path fill-rule="evenodd" clip-rule="evenodd" d="M37.6531 39.5958C37.6531 39.5958 34.1949 43.0999 39.5039 44.9861C39.5039 44.9861 31.6886 43.8895 32.7832 40.0665C32.7832 40.0665 35.5302 39.6018 37.6531 39.5958Z" fill="#DEEDF2"/>
<path fill-rule="evenodd" clip-rule="evenodd" d="M45.5626 70.1559L45.6709 70.0726L51.5149 65.6926L51.8002 65.4783L56.9469 61.6201L57.0917 61.5114L63.2617 56.8871C56.1535 52.19 48.2831 52.3137 48.2831 52.3137C48.2831 52.3137 33.6639 66.6266 29.9337 71.6756C26.2051 76.7248 31.5787 80.6361 31.5787 80.6361L45.5626 70.1559Z" fill="#9BC3D3"/>
<path fill-rule="evenodd" clip-rule="evenodd" d="M83.1899 17.8569C82.7235 14.0428 79.4944 11.0898 75.5807 11.0898C71.3466 11.0898 67.9139 14.5463 67.9139 18.8103C67.9139 19.5098 68.0062 20.1876 68.1795 20.832C68.1144 20.8329 68.0499 20.8352 67.9857 20.839L67.9135 20.833V20.8438C65.7176 21.0099 63.9866 22.8571 63.9866 25.1112C63.9866 27.3653 65.7176 29.2124 67.9135 29.3785V29.3913H95.8275V29.3909H95.8276C97.5386 29.3909 98.9258 27.9938 98.9258 26.2706C98.9258 24.5475 97.5386 23.1506 95.8276 23.1506H95.8275V23.1504L88.7554 22.5633C88.7877 22.3506 88.8044 22.1327 88.8044 21.911C88.8044 19.5475 86.9018 17.6314 84.5548 17.6314C84.0774 17.6314 83.6183 17.7107 83.1899 17.8569Z" fill="#EAF7FE"/>
<path fill-rule="evenodd" clip-rule="evenodd" d="M32.3714 60.8984C32.8767 56.7375 36.3749 53.5161 40.6147 53.5161C45.2017 53.5161 48.9204 57.2868 48.9204 61.9384C48.9204 62.7015 48.8204 63.441 48.6327 64.1439C48.7032 64.1448 48.7731 64.1474 48.8426 64.1515L48.9208 64.145V64.1568C51.2998 64.338 53.175 66.3531 53.175 68.8121C53.175 71.2711 51.2998 73.2862 48.9208 73.4674V73.4814H18.6807V73.4809H18.6806C16.827 73.4809 15.3242 71.9568 15.3242 70.077C15.3242 68.1972 16.827 66.6733 18.6806 66.6733H18.6807V66.6731L26.3422 66.0326C26.3072 65.8006 26.289 65.5629 26.289 65.321C26.289 62.7426 28.3501 60.6524 30.8928 60.6524C31.41 60.6524 31.9073 60.7389 32.3714 60.8984Z" fill="#EAF7FE"/>
<path fill-rule="evenodd" clip-rule="evenodd" d="M107.825 75.2673C107.825 75.2673 107.221 76.954 107.18 78.5366C107.18 78.5366 108.991 78.8701 109.866 78.6823C109.866 78.6823 109.637 76.142 109.595 75.5378C109.595 75.5378 108.783 74.809 107.825 75.2673Z" fill="#DEEDF2"/>
<path fill-rule="evenodd" clip-rule="evenodd" d="M107.494 77.8843C107.494 77.8843 106.682 80.8656 106.641 82.8232C106.641 82.8232 108.244 83.1027 109.514 82.7486C109.514 82.7486 109.424 78.5082 109.598 77.8843H107.494Z" fill="#DEEDF2"/>
<path fill-rule="evenodd" clip-rule="evenodd" d="M106.932 82.8755C106.932 82.8755 106.141 86.4848 106.537 88.5257C106.537 88.5257 108.078 89.1159 109.452 88.3248C109.452 88.3248 109.056 83.4994 109.119 82.8755H106.932Z" fill="#DEEDF2"/>
<path fill-rule="evenodd" clip-rule="evenodd" d="M106.933 87.9494C106.933 87.9494 106.287 92.2186 106.641 94.572C106.641 94.572 108.64 94.9466 110.161 94.0719C110.161 94.0719 108.89 88.4077 108.89 87.7205L106.933 87.9494Z" fill="#DEEDF2"/>
<path fill-rule="evenodd" clip-rule="evenodd" d="M107.494 94.0301C107.494 94.0301 106.973 97.987 108.077 100.736C108.077 100.736 110.368 100.986 111.804 100.028C111.804 100.028 109.639 94.0928 109.451 93.093L107.494 94.0301Z" fill="#DEEDF2"/>
<path fill-rule="evenodd" clip-rule="evenodd" d="M108.641 100.361C108.641 100.361 108.682 104.463 109.369 106.754C109.369 106.754 112.223 107.213 113.888 105.796C113.888 105.796 111.41 100.819 111.264 99.7781L108.641 100.361Z" fill="#DEEDF2"/>
<path fill-rule="evenodd" clip-rule="evenodd" d="M110.16 106.421C110.181 106.483 110.66 111.377 110.369 112.752C110.369 112.752 113.409 113.293 115.096 111.939C115.096 111.939 113.596 106.9 113.159 105.755L110.16 106.421Z" fill="#DEEDF2"/>
<path fill-rule="evenodd" clip-rule="evenodd" d="M111.432 112.46C111.432 112.46 111.286 116.667 111.266 118.166C111.266 118.166 115.014 119.02 116.888 117.458C116.888 117.458 115.139 112.877 114.619 112.023L111.432 112.46Z" fill="#DEEDF2"/>
<path fill-rule="evenodd" clip-rule="evenodd" d="M112.326 117.191C112.326 117.191 111.369 124.373 111.473 126.269C111.473 126.269 114.742 127.05 117.366 125.905C117.366 125.905 116.866 120.622 115.95 117.191H112.326Z" fill="#DEEDF2"/>
<mask id="mask0_1487_24917" style="mask-type:luminance" maskUnits="userSpaceOnUse" x="106" y="75" width="12" height="52">
<path fill-rule="evenodd" clip-rule="evenodd" d="M107.828 75.2673C107.828 75.2673 107.224 76.954 107.182 78.5366C107.182 78.5366 107.233 78.5459 107.316 78.5597C107.074 79.5663 106.67 81.4387 106.641 82.8057C106.641 82.8057 106.74 82.8226 106.908 82.8425C106.779 83.4808 106.183 86.6234 106.537 88.4506C106.537 88.4506 106.655 88.4924 106.852 88.5364C106.691 89.7867 106.367 92.7515 106.641 94.5718C106.641 94.5718 106.959 94.6298 107.434 94.6467C107.338 95.8648 107.239 98.6478 108.078 100.736C108.078 100.736 108.3 100.76 108.648 100.764C108.679 101.853 108.812 104.898 109.369 106.754C109.369 106.754 109.703 106.806 110.203 106.82C110.32 108.023 110.611 111.607 110.368 112.751C110.368 112.751 110.795 112.828 111.417 112.851C111.38 113.929 111.281 116.945 111.264 118.166C111.264 118.166 111.628 118.249 112.186 118.316C111.923 120.394 111.393 124.851 111.472 126.287C111.472 126.287 114.741 127.078 117.366 125.933C117.366 125.933 116.93 121.291 116.127 117.927C116.401 117.803 116.658 117.649 116.886 117.458C116.886 117.458 115.325 113.37 114.714 112.199C114.847 112.121 114.975 112.036 115.095 111.94C115.095 111.94 113.871 107.825 113.313 106.187C113.514 106.075 113.708 105.949 113.888 105.796C113.888 105.796 111.928 101.86 111.392 100.258C111.535 100.189 111.675 100.115 111.805 100.028C111.805 100.028 110.445 96.2997 109.787 94.2561C109.914 94.2009 110.039 94.1416 110.16 94.0717C110.16 94.0717 109.277 90.1358 108.984 88.4284C109.14 88.3707 109.297 88.3011 109.452 88.2116C109.452 88.2116 109.082 83.7799 109.114 82.8116C109.249 82.7873 109.384 82.7589 109.515 82.7227C109.515 82.7227 109.459 80.184 109.519 78.7284C109.645 78.7194 109.764 78.705 109.869 78.6826C109.869 78.6826 109.639 76.142 109.597 75.538C109.597 75.538 109.127 75.116 108.481 75.116C108.278 75.116 108.057 75.1578 107.828 75.2673Z" fill="white"/>
</mask>
<g mask="url(#mask0_1487_24917)">
<path fill-rule="evenodd" clip-rule="evenodd" d="M111.945 93.0546C111.036 93.1273 110.39 93.7977 109.496 94.0055C108.591 94.2158 107.652 94.2061 106.734 94.3302C106.616 94.3462 106.596 94.5383 106.701 94.587C107.622 95.02 108.554 95.0268 109.553 94.8818C110.552 94.7373 111.738 94.6494 112.381 93.813C112.609 93.5157 112.301 93.0263 111.945 93.0546Z" fill="#9BC3D3"/>
</g>
<mask id="mask1_1487_24917" style="mask-type:luminance" maskUnits="userSpaceOnUse" x="106" y="75" width="12" height="52">
<path fill-rule="evenodd" clip-rule="evenodd" d="M107.828 75.2673C107.828 75.2673 107.224 76.954 107.182 78.5366C107.182 78.5366 107.233 78.5459 107.316 78.5597C107.074 79.5663 106.67 81.4387 106.641 82.8057C106.641 82.8057 106.74 82.8226 106.908 82.8425C106.779 83.4808 106.183 86.6234 106.537 88.4506C106.537 88.4506 106.655 88.4924 106.852 88.5364C106.691 89.7867 106.367 92.7515 106.641 94.5718C106.641 94.5718 106.959 94.6298 107.434 94.6467C107.338 95.8648 107.239 98.6478 108.078 100.736C108.078 100.736 108.3 100.76 108.648 100.764C108.679 101.853 108.812 104.898 109.369 106.754C109.369 106.754 109.703 106.806 110.203 106.82C110.32 108.023 110.611 111.607 110.368 112.751C110.368 112.751 110.795 112.828 111.417 112.851C111.38 113.929 111.281 116.945 111.264 118.166C111.264 118.166 111.628 118.249 112.186 118.316C111.923 120.394 111.393 124.851 111.472 126.287C111.472 126.287 114.741 127.078 117.366 125.933C117.366 125.933 116.93 121.291 116.127 117.927C116.401 117.803 116.658 117.649 116.886 117.458C116.886 117.458 115.325 113.37 114.714 112.199C114.847 112.121 114.975 112.036 115.095 111.94C115.095 111.94 113.871 107.825 113.313 106.187C113.514 106.075 113.708 105.949 113.888 105.796C113.888 105.796 111.928 101.86 111.392 100.258C111.535 100.189 111.675 100.115 111.805 100.028C111.805 100.028 110.445 96.2997 109.787 94.2561C109.914 94.2009 110.039 94.1416 110.16 94.0717C110.16 94.0717 109.277 90.1358 108.984 88.4284C109.14 88.3707 109.297 88.3011 109.452 88.2116C109.452 88.2116 109.082 83.7799 109.114 82.8116C109.249 82.7873 109.384 82.7589 109.515 82.7227C109.515 82.7227 109.459 80.184 109.519 78.7284C109.645 78.7194 109.764 78.705 109.869 78.6826C109.869 78.6826 109.639 76.142 109.597 75.538C109.597 75.538 109.127 75.116 108.481 75.116C108.278 75.116 108.057 75.1578 107.828 75.2673Z" fill="white"/>
</mask>
<g mask="url(#mask1_1487_24917)">
<path fill-rule="evenodd" clip-rule="evenodd" d="M110.263 87.3863C108.997 87.5891 107.747 87.8486 106.454 87.8037C106.038 87.789 105.934 88.4588 106.354 88.5402C107.774 88.8154 109.292 88.6388 110.389 87.6015C110.491 87.5055 110.381 87.3673 110.263 87.3863Z" fill="#9BC3D3"/>
</g>
<mask id="mask2_1487_24917" style="mask-type:luminance" maskUnits="userSpaceOnUse" x="106" y="75" width="12" height="52">
<path fill-rule="evenodd" clip-rule="evenodd" d="M107.828 75.2673C107.828 75.2673 107.224 76.954 107.182 78.5366C107.182 78.5366 107.233 78.5459 107.316 78.5597C107.074 79.5663 106.67 81.4387 106.641 82.8057C106.641 82.8057 106.74 82.8226 106.908 82.8425C106.779 83.4808 106.183 86.6234 106.537 88.4506C106.537 88.4506 106.655 88.4924 106.852 88.5364C106.691 89.7867 106.367 92.7515 106.641 94.5718C106.641 94.5718 106.959 94.6298 107.434 94.6467C107.338 95.8648 107.239 98.6478 108.078 100.736C108.078 100.736 108.3 100.76 108.648 100.764C108.679 101.853 108.812 104.898 109.369 106.754C109.369 106.754 109.703 106.806 110.203 106.82C110.32 108.023 110.611 111.607 110.368 112.751C110.368 112.751 110.795 112.828 111.417 112.851C111.38 113.929 111.281 116.945 111.264 118.166C111.264 118.166 111.628 118.249 112.186 118.316C111.923 120.394 111.393 124.851 111.472 126.287C111.472 126.287 114.741 127.078 117.366 125.933C117.366 125.933 116.93 121.291 116.127 117.927C116.401 117.803 116.658 117.649 116.886 117.458C116.886 117.458 115.325 113.37 114.714 112.199C114.847 112.121 114.975 112.036 115.095 111.94C115.095 111.94 113.871 107.825 113.313 106.187C113.514 106.075 113.708 105.949 113.888 105.796C113.888 105.796 111.928 101.86 111.392 100.258C111.535 100.189 111.675 100.115 111.805 100.028C111.805 100.028 110.445 96.2997 109.787 94.2561C109.914 94.2009 110.039 94.1416 110.16 94.0717C110.16 94.0717 109.277 90.1358 108.984 88.4284C109.14 88.3707 109.297 88.3011 109.452 88.2116C109.452 88.2116 109.082 83.7799 109.114 82.8116C109.249 82.7873 109.384 82.7589 109.515 82.7227C109.515 82.7227 109.459 80.184 109.519 78.7284C109.645 78.7194 109.764 78.705 109.869 78.6826C109.869 78.6826 109.639 76.142 109.597 75.538C109.597 75.538 109.127 75.116 108.481 75.116C108.278 75.116 108.057 75.1578 107.828 75.2673Z" fill="white"/>
</mask>
<g mask="url(#mask2_1487_24917)">
<path fill-rule="evenodd" clip-rule="evenodd" d="M109.611 82.4579C109.073 82.5418 108.445 82.2561 107.902 82.2227C107.278 82.1846 106.721 82.3013 106.141 82.5247C105.682 82.7012 105.686 83.5388 106.269 83.4683C107.077 83.3707 107.839 83.4755 108.643 83.5451C109.25 83.5978 109.65 83.4683 109.994 82.9573C110.179 82.6844 109.875 82.4167 109.611 82.4579Z" fill="#9BC3D3"/>
</g>
<mask id="mask3_1487_24917" style="mask-type:luminance" maskUnits="userSpaceOnUse" x="106" y="75" width="12" height="52">
<path fill-rule="evenodd" clip-rule="evenodd" d="M107.828 75.2673C107.828 75.2673 107.224 76.954 107.182 78.5366C107.182 78.5366 107.233 78.5459 107.316 78.5597C107.074 79.5663 106.67 81.4387 106.641 82.8057C106.641 82.8057 106.74 82.8226 106.908 82.8425C106.779 83.4808 106.183 86.6234 106.537 88.4506C106.537 88.4506 106.655 88.4924 106.852 88.5364C106.691 89.7867 106.367 92.7515 106.641 94.5718C106.641 94.5718 106.959 94.6298 107.434 94.6467C107.338 95.8648 107.239 98.6478 108.078 100.736C108.078 100.736 108.3 100.76 108.648 100.764C108.679 101.853 108.812 104.898 109.369 106.754C109.369 106.754 109.703 106.806 110.203 106.82C110.32 108.023 110.611 111.607 110.368 112.751C110.368 112.751 110.795 112.828 111.417 112.851C111.38 113.929 111.281 116.945 111.264 118.166C111.264 118.166 111.628 118.249 112.186 118.316C111.923 120.394 111.393 124.851 111.472 126.287C111.472 126.287 114.741 127.078 117.366 125.933C117.366 125.933 116.93 121.291 116.127 117.927C116.401 117.803 116.658 117.649 116.886 117.458C116.886 117.458 115.325 113.37 114.714 112.199C114.847 112.121 114.975 112.036 115.095 111.94C115.095 111.94 113.871 107.825 113.313 106.187C113.514 106.075 113.708 105.949 113.888 105.796C113.888 105.796 111.928 101.86 111.392 100.258C111.535 100.189 111.675 100.115 111.805 100.028C111.805 100.028 110.445 96.2997 109.787 94.2561C109.914 94.2009 110.039 94.1416 110.16 94.0717C110.16 94.0717 109.277 90.1358 108.984 88.4284C109.14 88.3707 109.297 88.3011 109.452 88.2116C109.452 88.2116 109.082 83.7799 109.114 82.8116C109.249 82.7873 109.384 82.7589 109.515 82.7227C109.515 82.7227 109.459 80.184 109.519 78.7284C109.645 78.7194 109.764 78.705 109.869 78.6826C109.869 78.6826 109.639 76.142 109.597 75.538C109.597 75.538 109.127 75.116 108.481 75.116C108.278 75.116 108.057 75.1578 107.828 75.2673Z" fill="white"/>
</mask>
<g mask="url(#mask3_1487_24917)">
<path fill-rule="evenodd" clip-rule="evenodd" d="M110.263 78.8338C109.682 78.0321 108.334 78.0598 107.461 78.2127C106.927 78.3063 107.153 79.1195 107.686 79.0263C108.107 78.9526 108.539 78.9517 108.957 79.0428C109.313 79.1198 109.64 79.278 110.01 79.2746C110.215 79.2727 110.398 79.0203 110.263 78.8338Z" fill="#9BC3D3"/>
</g>
<mask id="mask4_1487_24917" style="mask-type:luminance" maskUnits="userSpaceOnUse" x="106" y="75" width="12" height="52">
<path fill-rule="evenodd" clip-rule="evenodd" d="M107.828 75.2673C107.828 75.2673 107.224 76.954 107.182 78.5366C107.182 78.5366 107.233 78.5459 107.316 78.5597C107.074 79.5663 106.67 81.4387 106.641 82.8057C106.641 82.8057 106.74 82.8226 106.908 82.8425C106.779 83.4808 106.183 86.6234 106.537 88.4506C106.537 88.4506 106.655 88.4924 106.852 88.5364C106.691 89.7867 106.367 92.7515 106.641 94.5718C106.641 94.5718 106.959 94.6298 107.434 94.6467C107.338 95.8648 107.239 98.6478 108.078 100.736C108.078 100.736 108.3 100.76 108.648 100.764C108.679 101.853 108.812 104.898 109.369 106.754C109.369 106.754 109.703 106.806 110.203 106.82C110.32 108.023 110.611 111.607 110.368 112.751C110.368 112.751 110.795 112.828 111.417 112.851C111.38 113.929 111.281 116.945 111.264 118.166C111.264 118.166 111.628 118.249 112.186 118.316C111.923 120.394 111.393 124.851 111.472 126.287C111.472 126.287 114.741 127.078 117.366 125.933C117.366 125.933 116.93 121.291 116.127 117.927C116.401 117.803 116.658 117.649 116.886 117.458C116.886 117.458 115.325 113.37 114.714 112.199C114.847 112.121 114.975 112.036 115.095 111.94C115.095 111.94 113.871 107.825 113.313 106.187C113.514 106.075 113.708 105.949 113.888 105.796C113.888 105.796 111.928 101.86 111.392 100.258C111.535 100.189 111.675 100.115 111.805 100.028C111.805 100.028 110.445 96.2997 109.787 94.2561C109.914 94.2009 110.039 94.1416 110.16 94.0717C110.16 94.0717 109.277 90.1358 108.984 88.4284C109.14 88.3707 109.297 88.3011 109.452 88.2116C109.452 88.2116 109.082 83.7799 109.114 82.8116C109.249 82.7873 109.384 82.7589 109.515 82.7227C109.515 82.7227 109.459 80.184 109.519 78.7284C109.645 78.7194 109.764 78.705 109.869 78.6826C109.869 78.6826 109.639 76.142 109.597 75.538C109.597 75.538 109.127 75.116 108.481 75.116C108.278 75.116 108.057 75.1578 107.828 75.2673Z" fill="white"/>
</mask>
<g mask="url(#mask4_1487_24917)">
<path fill-rule="evenodd" clip-rule="evenodd" d="M110.476 75.4874C110.312 75.3629 110.249 75.2079 110.045 75.1174C109.774 74.9976 109.469 74.9253 109.183 74.8576C108.643 74.7306 108.097 74.6414 107.547 74.5724C107.338 74.5462 107.179 74.6414 107.08 74.7896C106.546 74.5821 106.053 75.3689 106.476 75.8168C106.886 76.2511 107.455 76.5496 107.999 76.7845C108.27 76.9012 108.55 77.0166 108.831 77.1065C109.215 77.2288 109.494 77.2104 109.881 77.22C110.392 77.2328 110.553 76.6364 110.241 76.3244H110.257C110.729 76.3244 110.791 75.7254 110.476 75.4874Z" fill="#9BC3D3"/>
</g>
<mask id="mask5_1487_24917" style="mask-type:luminance" maskUnits="userSpaceOnUse" x="106" y="75" width="12" height="52">
<path fill-rule="evenodd" clip-rule="evenodd" d="M107.828 75.2673C107.828 75.2673 107.224 76.954 107.182 78.5366C107.182 78.5366 107.233 78.5459 107.316 78.5597C107.074 79.5663 106.67 81.4387 106.641 82.8057C106.641 82.8057 106.74 82.8226 106.908 82.8425C106.779 83.4808 106.183 86.6234 106.537 88.4506C106.537 88.4506 106.655 88.4924 106.852 88.5364C106.691 89.7867 106.367 92.7515 106.641 94.5718C106.641 94.5718 106.959 94.6298 107.434 94.6467C107.338 95.8648 107.239 98.6478 108.078 100.736C108.078 100.736 108.3 100.76 108.648 100.764C108.679 101.853 108.812 104.898 109.369 106.754C109.369 106.754 109.703 106.806 110.203 106.82C110.32 108.023 110.611 111.607 110.368 112.751C110.368 112.751 110.795 112.828 111.417 112.851C111.38 113.929 111.281 116.945 111.264 118.166C111.264 118.166 111.628 118.249 112.186 118.316C111.923 120.394 111.393 124.851 111.472 126.287C111.472 126.287 114.741 127.078 117.366 125.933C117.366 125.933 116.93 121.291 116.127 117.927C116.401 117.803 116.658 117.649 116.886 117.458C116.886 117.458 115.325 113.37 114.714 112.199C114.847 112.121 114.975 112.036 115.095 111.94C115.095 111.94 113.871 107.825 113.313 106.187C113.514 106.075 113.708 105.949 113.888 105.796C113.888 105.796 111.928 101.86 111.392 100.258C111.535 100.189 111.675 100.115 111.805 100.028C111.805 100.028 110.445 96.2997 109.787 94.2561C109.914 94.2009 110.039 94.1416 110.16 94.0717C110.16 94.0717 109.277 90.1358 108.984 88.4284C109.14 88.3707 109.297 88.3011 109.452 88.2116C109.452 88.2116 109.082 83.7799 109.114 82.8116C109.249 82.7873 109.384 82.7589 109.515 82.7227C109.515 82.7227 109.459 80.184 109.519 78.7284C109.645 78.7194 109.764 78.705 109.869 78.6826C109.869 78.6826 109.639 76.142 109.597 75.538C109.597 75.538 109.127 75.116 108.481 75.116C108.278 75.116 108.057 75.1578 107.828 75.2673Z" fill="white"/>
</mask>
<g mask="url(#mask5_1487_24917)">
<path fill-rule="evenodd" clip-rule="evenodd" d="M113.383 99.0616C112.518 98.76 111.427 99.445 110.568 99.6575C109.412 99.9438 108.229 100.143 107.053 100.325C106.406 100.425 106.594 101.412 107.202 101.43C108.548 101.471 109.836 101.282 111.117 100.854C111.984 100.564 113.216 100.305 113.571 99.3929C113.626 99.251 113.509 99.1056 113.383 99.0616Z" fill="#9BC3D3"/>
</g>
<mask id="mask6_1487_24917" style="mask-type:luminance" maskUnits="userSpaceOnUse" x="106" y="75" width="12" height="52">
<path fill-rule="evenodd" clip-rule="evenodd" d="M107.828 75.2673C107.828 75.2673 107.224 76.954 107.182 78.5366C107.182 78.5366 107.233 78.5459 107.316 78.5597C107.074 79.5663 106.67 81.4387 106.641 82.8057C106.641 82.8057 106.74 82.8226 106.908 82.8425C106.779 83.4808 106.183 86.6234 106.537 88.4506C106.537 88.4506 106.655 88.4924 106.852 88.5364C106.691 89.7867 106.367 92.7515 106.641 94.5718C106.641 94.5718 106.959 94.6298 107.434 94.6467C107.338 95.8648 107.239 98.6478 108.078 100.736C108.078 100.736 108.3 100.76 108.648 100.764C108.679 101.853 108.812 104.898 109.369 106.754C109.369 106.754 109.703 106.806 110.203 106.82C110.32 108.023 110.611 111.607 110.368 112.751C110.368 112.751 110.795 112.828 111.417 112.851C111.38 113.929 111.281 116.945 111.264 118.166C111.264 118.166 111.628 118.249 112.186 118.316C111.923 120.394 111.393 124.851 111.472 126.287C111.472 126.287 114.741 127.078 117.366 125.933C117.366 125.933 116.93 121.291 116.127 117.927C116.401 117.803 116.658 117.649 116.886 117.458C116.886 117.458 115.325 113.37 114.714 112.199C114.847 112.121 114.975 112.036 115.095 111.94C115.095 111.94 113.871 107.825 113.313 106.187C113.514 106.075 113.708 105.949 113.888 105.796C113.888 105.796 111.928 101.86 111.392 100.258C111.535 100.189 111.675 100.115 111.805 100.028C111.805 100.028 110.445 96.2997 109.787 94.2561C109.914 94.2009 110.039 94.1416 110.16 94.0717C110.16 94.0717 109.277 90.1358 108.984 88.4284C109.14 88.3707 109.297 88.3011 109.452 88.2116C109.452 88.2116 109.082 83.7799 109.114 82.8116C109.249 82.7873 109.384 82.7589 109.515 82.7227C109.515 82.7227 109.459 80.184 109.519 78.7284C109.645 78.7194 109.764 78.705 109.869 78.6826C109.869 78.6826 109.639 76.142 109.597 75.538C109.597 75.538 109.127 75.116 108.481 75.116C108.278 75.116 108.057 75.1578 107.828 75.2673Z" fill="white"/>
</mask>
<g mask="url(#mask6_1487_24917)">
<path fill-rule="evenodd" clip-rule="evenodd" d="M111.115 106.091C110.235 106.353 109.905 106.47 109.008 106.648C108.835 106.682 108.88 106.945 109.048 106.947C110.259 106.964 111.376 106.927 112.589 107.069C113.47 107.173 114.227 107.141 115.044 106.792C116.161 106.315 115.199 104.66 114.084 105.151C113.281 105.503 111.961 105.839 111.115 106.091Z" fill="#9BC3D3"/>
</g>
<mask id="mask7_1487_24917" style="mask-type:luminance" maskUnits="userSpaceOnUse" x="106" y="75" width="12" height="52">
<path fill-rule="evenodd" clip-rule="evenodd" d="M107.828 75.2673C107.828 75.2673 107.224 76.954 107.182 78.5366C107.182 78.5366 107.233 78.5459 107.316 78.5597C107.074 79.5663 106.67 81.4387 106.641 82.8057C106.641 82.8057 106.74 82.8226 106.908 82.8425C106.779 83.4808 106.183 86.6234 106.537 88.4506C106.537 88.4506 106.655 88.4924 106.852 88.5364C106.691 89.7867 106.367 92.7515 106.641 94.5718C106.641 94.5718 106.959 94.6298 107.434 94.6467C107.338 95.8648 107.239 98.6478 108.078 100.736C108.078 100.736 108.3 100.76 108.648 100.764C108.679 101.853 108.812 104.898 109.369 106.754C109.369 106.754 109.703 106.806 110.203 106.82C110.32 108.023 110.611 111.607 110.368 112.751C110.368 112.751 110.795 112.828 111.417 112.851C111.38 113.929 111.281 116.945 111.264 118.166C111.264 118.166 111.628 118.249 112.186 118.316C111.923 120.394 111.393 124.851 111.472 126.287C111.472 126.287 114.741 127.078 117.366 125.933C117.366 125.933 116.93 121.291 116.127 117.927C116.401 117.803 116.658 117.649 116.886 117.458C116.886 117.458 115.325 113.37 114.714 112.199C114.847 112.121 114.975 112.036 115.095 111.94C115.095 111.94 113.871 107.825 113.313 106.187C113.514 106.075 113.708 105.949 113.888 105.796C113.888 105.796 111.928 101.86 111.392 100.258C111.535 100.189 111.675 100.115 111.805 100.028C111.805 100.028 110.445 96.2997 109.787 94.2561C109.914 94.2009 110.039 94.1416 110.16 94.0717C110.16 94.0717 109.277 90.1358 108.984 88.4284C109.14 88.3707 109.297 88.3011 109.452 88.2116C109.452 88.2116 109.082 83.7799 109.114 82.8116C109.249 82.7873 109.384 82.7589 109.515 82.7227C109.515 82.7227 109.459 80.184 109.519 78.7284C109.645 78.7194 109.764 78.705 109.869 78.6826C109.869 78.6826 109.639 76.142 109.597 75.538C109.597 75.538 109.127 75.116 108.481 75.116C108.278 75.116 108.057 75.1578 107.828 75.2673Z" fill="white"/>
</mask>
<g mask="url(#mask7_1487_24917)">
<path fill-rule="evenodd" clip-rule="evenodd" d="M110.378 112.439C109.803 112.601 109.887 113.59 110.524 113.521C112.498 113.306 115.143 113.025 116.14 111.014C116.268 110.756 116.118 110.375 115.786 110.397C113.847 110.526 112.218 111.919 110.378 112.439Z" fill="#9BC3D3"/>
</g>
<mask id="mask8_1487_24917" style="mask-type:luminance" maskUnits="userSpaceOnUse" x="106" y="75" width="12" height="52">
<path fill-rule="evenodd" clip-rule="evenodd" d="M107.182 78.5366C107.182 78.5366 107.233 78.5459 107.316 78.5597C107.074 79.5663 106.67 81.4387 106.641 82.8057C106.641 82.8057 106.74 82.8226 106.908 82.8425C106.779 83.4808 106.183 86.6234 106.537 88.4506C106.537 88.4506 106.655 88.4924 106.852 88.5364C106.691 89.7867 106.367 92.7515 106.641 94.5718C106.641 94.5718 106.959 94.6298 107.434 94.6467C107.338 95.8648 107.239 98.6478 108.078 100.736C108.078 100.736 108.3 100.76 108.648 100.764C108.679 101.853 108.812 104.898 109.369 106.754C109.369 106.754 109.703 106.806 110.203 106.82C110.32 108.023 110.611 111.607 110.368 112.751C110.368 112.751 110.795 112.828 111.417 112.851C111.38 113.929 111.281 116.945 111.264 118.166C111.264 118.166 111.628 118.249 112.186 118.316C111.923 120.394 111.393 124.851 111.472 126.287C111.472 126.287 114.741 127.078 117.366 125.933C117.366 125.933 116.93 121.291 116.127 117.927C116.401 117.803 116.658 117.649 116.886 117.458C116.886 117.458 115.325 113.37 114.714 112.199C114.847 112.121 114.975 112.036 115.095 111.94C115.095 111.94 113.871 107.825 113.313 106.187C113.514 106.075 113.708 105.949 113.888 105.796C113.888 105.796 111.928 101.86 111.392 100.258C111.535 100.189 111.675 100.115 111.805 100.028C111.805 100.028 110.445 96.2997 109.787 94.2561C109.914 94.2009 110.039 94.1416 110.16 94.0717C110.16 94.0717 109.277 90.1358 108.984 88.4284C109.14 88.3707 109.297 88.3011 109.452 88.2116C109.452 88.2116 109.082 83.7799 109.114 82.8116C109.249 82.7873 109.384 82.7589 109.515 82.7227C109.515 82.7227 109.459 80.184 109.519 78.7284C109.645 78.7194 109.764 78.705 109.869 78.6826C109.869 78.6826 109.639 76.142 109.597 75.538C109.597 75.538 109.127 75.116 108.481 75.116C108.278 75.116 108.057 75.1578 107.828 75.2673C107.828 75.2673 107.224 76.954 107.182 78.5366Z" fill="white"/>
</mask>
<g mask="url(#mask8_1487_24917)">
<path fill-rule="evenodd" clip-rule="evenodd" d="M118.442 116.499C117.237 116.773 116.123 117.34 114.9 117.591C113.566 117.864 112.192 117.969 110.834 117.878C110.409 117.849 110.328 118.512 110.734 118.614C113.339 119.272 116.815 119.251 118.898 117.282C119.252 116.947 118.88 116.399 118.442 116.499Z" fill="#9BC3D3"/>
</g>
<mask id="mask9_1487_24917" style="mask-type:luminance" maskUnits="userSpaceOnUse" x="106" y="75" width="12" height="52">
<path fill-rule="evenodd" clip-rule="evenodd" d="M107.182 78.5366C107.182 78.5366 107.233 78.5459 107.316 78.5597C107.074 79.5663 106.67 81.4387 106.641 82.8057C106.641 82.8057 106.74 82.8226 106.908 82.8425C106.779 83.4808 106.183 86.6234 106.537 88.4506C106.537 88.4506 106.655 88.4924 106.852 88.5364C106.691 89.7867 106.367 92.7515 106.641 94.5718C106.641 94.5718 106.959 94.6298 107.434 94.6467C107.338 95.8648 107.239 98.6478 108.078 100.736C108.078 100.736 108.3 100.76 108.648 100.764C108.679 101.853 108.812 104.898 109.369 106.754C109.369 106.754 109.703 106.806 110.203 106.82C110.32 108.023 110.611 111.607 110.368 112.751C110.368 112.751 110.795 112.828 111.417 112.851C111.38 113.929 111.281 116.945 111.264 118.166C111.264 118.166 111.628 118.249 112.186 118.316C111.923 120.394 111.393 124.851 111.472 126.287C111.472 126.287 114.741 127.078 117.366 125.933C117.366 125.933 116.93 121.291 116.127 117.927C116.401 117.803 116.658 117.649 116.886 117.458C116.886 117.458 115.325 113.37 114.714 112.199C114.847 112.121 114.975 112.036 115.095 111.94C115.095 111.94 113.871 107.825 113.313 106.187C113.514 106.075 113.708 105.949 113.888 105.796C113.888 105.796 111.928 101.86 111.392 100.258C111.535 100.189 111.675 100.115 111.805 100.028C111.805 100.028 110.445 96.2997 109.787 94.2561C109.914 94.2009 110.039 94.1416 110.16 94.0717C110.16 94.0717 109.277 90.1358 108.984 88.4284C109.14 88.3707 109.297 88.3011 109.452 88.2116C109.452 88.2116 109.082 83.7799 109.114 82.8116C109.249 82.7873 109.384 82.7589 109.515 82.7227C109.515 82.7227 109.459 80.184 109.519 78.7284C109.645 78.7194 109.764 78.705 109.869 78.6826C109.869 78.6826 109.639 76.142 109.597 75.538C109.597 75.538 109.127 75.116 108.481 75.116C108.278 75.116 108.057 75.1578 107.828 75.2673C107.828 75.2673 107.224 76.954 107.182 78.5366Z" fill="white"/>
</mask>
<g mask="url(#mask9_1487_24917)">
<path fill-rule="evenodd" clip-rule="evenodd" d="M119.255 124.113C118.802 124.237 118.335 124.26 117.863 124.251C118.77 123.001 119.436 121.478 118.592 120.055C118.385 119.707 117.891 119.721 117.681 120.055C116.913 121.281 117.003 122.821 116.64 124.208C116.272 124.2 115.903 124.208 115.539 124.266C113.954 124.519 112.389 125.169 110.771 125.106C110.099 125.08 109.92 126.203 110.609 126.303C110.85 126.338 111.087 126.364 111.322 126.385C111.068 126.817 111.286 127.51 111.953 127.565C113.167 127.666 114.377 127.703 115.586 127.539C116.647 127.396 117.886 127.324 118.671 126.538C118.76 126.449 118.812 126.342 118.834 126.231C119.06 126.2 119.282 126.158 119.491 126.084C119.912 125.936 120.199 125.593 120.211 125.138L120.219 124.848C120.233 124.35 119.722 123.987 119.255 124.113Z" fill="#9BC3D3"/>
</g>
<path fill-rule="evenodd" clip-rule="evenodd" d="M108.057 75.4986C108.057 75.4986 109.501 71.4959 109.375 69.5209L108.691 69.4666L109.247 68.9869C109.247 68.9869 109.186 66.4095 108.626 65.1819L107.33 64.9314L108.24 64.3437L107.511 62.9252L106.012 62.8962L106.799 62.1759C106.799 62.1759 105.513 60.3928 104.365 59.878L103.027 60.4252L103.388 59.2866C103.388 59.2866 99.0046 57.5 95.8906 60.2814C95.8906 60.2814 99.0938 61.3979 100.044 62.2246L101.339 62.1503L100.739 62.8363L101.689 63.9934L103.442 64.0589L102.396 64.9854L103.856 67.3054L105.306 67.078L104.319 67.9122L105.656 68.0416L104.611 68.9557C104.611 68.9557 106.04 71.4757 106.174 71.879L107.101 71.7477L106.36 72.4299C106.36 72.4299 107.524 74.4399 107.491 75.577L108.057 75.4986Z" fill="#9BC3D3"/>
<path fill-rule="evenodd" clip-rule="evenodd" d="M110.201 73.0233C110.201 73.0233 107.544 70.6169 103.638 70.8356L103.325 71.5231L102.888 70.8215C102.888 70.8215 99.9503 71.7733 98.7939 72.586L99.0126 73.3671L98.0748 72.7108C98.0748 72.7108 95.4185 73.8984 94.4184 75.3359L95.2622 76.2112L93.5433 75.8671C93.5433 75.8671 89.1993 78.4299 91.9184 86.6805C91.9184 86.6805 93.8871 83.8055 94.9497 82.9614L94.4184 82.1178L95.2934 82.3677C95.2934 82.3677 96.9499 79.9613 97.6999 79.2737L96.9499 77.4924L98.1687 78.7512C98.1687 78.7512 100.524 77.1799 100.612 77.0551C100.7 76.9297 100.419 75.2111 100.419 75.2111L101.232 76.3984C101.232 76.3984 103.919 75.1172 104.138 75.086L104.169 73.242L104.826 74.7422C104.826 74.7422 107.575 73.2735 110.013 73.617L110.201 73.0233Z" fill="#9BC3D3"/>
<path fill-rule="evenodd" clip-rule="evenodd" d="M108.237 74.3518C108.237 74.3518 111.385 71.2818 112.306 70.8909L111.611 70.1385L112.66 70.4978C112.66 70.4978 114.795 68.7771 115.207 68.608L114.503 67.6737L115.737 68.151C115.737 68.151 117.821 66.7896 118.835 66.5556L118.199 64.4418L119.605 66.1167C119.605 66.1167 123.047 63.8157 125.213 64.2765C125.213 64.2765 122.214 62.5947 120.14 62.0953L119.756 63.0046L119.48 61.739C119.48 61.739 117.084 61.7035 115.823 62.4625L115.192 63.632L115.036 62.7357C115.036 62.7357 113.274 63.0726 112.484 64.2734L112.289 65.475L112.021 64.5488C112.021 64.5488 110.669 65.6207 109.607 67.7869C108.544 69.9529 107.852 73.876 107.852 73.876L108.237 74.3518Z" fill="#DEEDF2"/>
<path fill-rule="evenodd" clip-rule="evenodd" d="M110.004 69.4006C110.004 69.4006 112.918 66.996 116.23 66.7758C116.23 66.7758 116.15 68.2673 116.051 68.3646C115.951 68.4616 117.409 66.4935 117.409 66.4935C117.409 66.4935 120.778 66.4504 123.153 67.3788L122.561 69.1005L124.363 67.7054C124.363 67.7054 129.039 70.7595 129.326 75.2598C129.326 75.2598 125.462 73.0196 123.71 73.6491L123.952 71.7468L122.928 73.5428C122.928 73.5428 119.999 72.9229 118.72 73.4002L118.303 71.0587L117.585 73.3097C117.585 73.3097 116.14 73.0589 115.056 73.5384L114.537 71.4904L114.227 73.6055L110.914 74.2213C110.914 74.2213 108.668 72.4696 107.727 72.5776L108.159 71.0702L110.004 69.4006Z" fill="#9BC3D3"/>
<path fill-rule="evenodd" clip-rule="evenodd" d="M109.699 73.2109C109.699 73.2109 112.574 73.2421 114.637 74.6796L113.919 75.8361L115.2 75.0546C115.2 75.0546 116.825 76.4297 117.044 77.5861L115.919 78.7513L117.888 78.5236C117.888 78.5236 119.044 80.1489 119.169 82.1803L118.466 82.516L119.333 82.5983C119.333 82.5983 119.884 86.6416 119.169 88.1297C119.169 88.1297 116.485 84.4498 115.958 84.2742C115.43 84.0982 115.899 84.2742 115.899 84.2742L117.001 83.1256L115.477 83.5005C115.477 83.5005 114.082 80.9341 113.649 80.7818L114.797 79.7854L113.215 80.2191C113.215 80.2191 112.137 78.8012 111.715 78.473L112.313 77.4885L111.141 78.3323C111.141 78.3323 109.922 76.7267 108.821 76.0822L108.305 74.5233L109.699 73.2109Z" fill="#9BC3D3"/>
<path fill-rule="evenodd" clip-rule="evenodd" d="M109.347 74.9688C109.347 74.9688 107.94 77.8285 108.093 79.0588L107.003 78.7512L107.682 79.4338C107.682 79.4338 106.323 82.1881 106.264 82.8794L104.846 82.2701L105.678 83.2194C105.678 83.2194 104.999 84.9773 104.87 85.7509L103.71 85.5634L104.459 86.1727C104.459 86.1727 102.842 89.1144 102.666 90.8371C102.666 90.8371 101.307 87.3563 101.436 85.6336L102.268 84.7545L101.073 84.6843C101.073 84.6843 100.826 81.8717 101.436 80.7231L103.053 80.477L101.436 79.5392C101.436 79.5392 102.35 76.8205 103.909 75.2264L105.409 75.4142L104.542 74.6521C104.542 74.6521 105.209 73.8554 106.85 73.7384C108.491 73.6211 108.678 73.2695 108.678 73.2695L109.347 74.9688Z" fill="#DEEDF2"/>
<path fill-rule="evenodd" clip-rule="evenodd" d="M107.546 73.9492C107.546 73.9492 104.636 72.6496 103.412 72.8474L103.679 71.7468L103.022 72.4512C103.022 72.4512 100.22 71.1946 99.5267 71.1616L100.083 69.7219L99.1655 70.5888C99.1655 70.5888 97.3836 69.9743 96.6059 69.8741L96.7503 68.7077L96.1688 69.4798C96.1688 69.4798 93.1696 67.9724 91.4414 67.8604C91.4414 67.8604 94.8695 66.3733 96.5959 66.4382L97.5049 67.2371L97.5311 66.0399C97.5311 66.0399 100.333 65.6901 101.503 66.2567L101.809 67.8639L102.686 66.213C102.686 66.213 105.437 67.0259 107.087 68.5246L106.955 70.0304L107.684 69.1357C107.684 69.1357 108.505 69.774 108.683 71.4089C108.861 73.0445 109.22 73.2189 109.22 73.2189L107.546 73.9492Z" fill="#DEEDF2"/>
<path fill-rule="evenodd" clip-rule="evenodd" d="M114.537 126.66H118.905C118.905 126.66 120.016 125.704 120.523 125.607C120.523 125.607 119.451 125.39 118.769 126.01C118.769 126.01 119.314 123.643 119.958 123.097C119.958 123.097 118.788 123.572 118.476 124.215C118.476 124.215 118.478 122.893 118.876 122.328C118.876 122.328 118.184 122.798 118.008 123.246C118.008 123.246 117.738 121.629 116.596 121.336C116.596 121.336 116.842 122.449 116.741 123.072C116.741 123.072 115.854 121.707 114.581 121.454C114.581 121.454 115.239 121.805 115.941 122.955C115.941 122.955 114.07 121.766 112.861 121.883C112.861 121.883 113.953 122.515 114.342 123.642C114.342 123.642 113.017 123.014 112.022 123.209C112.022 123.209 112.919 123.501 113.563 124.418C113.563 124.418 112.509 124.14 111.554 124.571C111.554 124.571 112.451 125.587 113.153 125.88C113.153 125.88 111.925 125.958 111.379 125.802C111.379 125.802 112.51 126.426 113.27 126.446C114.031 126.465 114.537 126.66 114.537 126.66Z" fill="#9BC3D3"/>
<path fill-rule="evenodd" clip-rule="evenodd" d="M108.297 126.66C108.297 126.66 107.985 125.12 107.141 124.134C107.141 124.134 107.835 124.135 108.477 124.993C108.477 124.993 108.065 123.081 107.387 122.382C107.387 122.382 108.689 122.311 109.779 123.429C109.779 123.429 109.363 122.081 108.708 121.541C108.708 121.541 110.106 121.988 110.635 122.814C110.635 122.814 110.424 121.184 109.64 120.506C109.64 120.506 110.826 120.973 111.313 122.752C111.313 122.752 111.208 122.011 112.118 121.312C112.118 121.312 112.055 122.201 112.118 122.773C112.118 122.773 112.69 122.032 114.067 121.947C114.067 121.947 113.326 123.727 113.326 124.405C113.326 124.405 113.559 123.917 114.406 123.811C114.406 123.811 113.919 124.532 113.898 125.082C113.898 125.082 115.02 124.706 115.825 125.066C115.825 125.066 114.766 126.036 114.618 126.66H108.297Z" fill="#9BC3D3"/>
<path fill-rule="evenodd" clip-rule="evenodd" d="M27.3976 95.2937C27.3976 95.2937 27.0621 96.2113 27.0391 97.0722C27.0391 97.0722 28.0455 97.2537 28.5314 97.1515C28.5314 97.1515 28.4042 95.7696 28.381 95.4409C28.381 95.4409 27.9299 95.0444 27.3976 95.2937Z" fill="#DEEDF2"/>
<path fill-rule="evenodd" clip-rule="evenodd" d="M27.2087 96.7173C27.2087 96.7173 26.7574 98.3392 26.7344 99.404C26.7344 99.404 27.6252 99.5561 28.3309 99.3635C28.3309 99.3635 28.2805 97.0567 28.3772 96.7173H27.2087Z" fill="#DEEDF2"/>
<path fill-rule="evenodd" clip-rule="evenodd" d="M26.8986 99.4326C26.8986 99.4326 26.4589 101.396 26.6787 102.506C26.6787 102.506 27.5348 102.827 28.2985 102.397C28.2985 102.397 28.0787 99.772 28.1134 99.4326H26.8986Z" fill="#DEEDF2"/>
<path fill-rule="evenodd" clip-rule="evenodd" d="M26.8967 102.193C26.8967 102.193 26.5381 104.515 26.7346 105.796C26.7346 105.796 27.8454 105.999 28.6899 105.524C28.6899 105.524 27.9842 102.442 27.9842 102.068L26.8967 102.193Z" fill="#DEEDF2"/>
<path fill-rule="evenodd" clip-rule="evenodd" d="M27.2127 105.501C27.2127 105.501 26.9234 107.653 27.5366 109.149C27.5366 109.149 28.8092 109.285 29.6075 108.763C29.6075 108.763 28.4044 105.535 28.3002 104.991L27.2127 105.501Z" fill="#DEEDF2"/>
<path fill-rule="evenodd" clip-rule="evenodd" d="M27.8477 108.945C27.8477 108.945 27.8709 111.176 28.2525 112.423C28.2525 112.423 29.8376 112.672 30.7631 111.901C30.7631 111.901 29.3865 109.194 29.3054 108.627L27.8477 108.945Z" fill="#DEEDF2"/>
<path fill-rule="evenodd" clip-rule="evenodd" d="M28.6914 112.241C28.703 112.275 28.9692 114.938 28.8072 115.685C28.8072 115.685 30.4963 115.98 31.4333 115.243C31.4333 115.243 30.6004 112.502 30.3574 111.879L28.6914 112.241Z" fill="#DEEDF2"/>
<path fill-rule="evenodd" clip-rule="evenodd" d="M29.3972 115.527C29.3972 115.527 29.3161 117.815 29.3047 118.631C29.3047 118.631 31.387 119.095 32.4284 118.246C32.4284 118.246 31.4567 115.754 31.1674 115.289L29.3972 115.527Z" fill="#DEEDF2"/>
<path fill-rule="evenodd" clip-rule="evenodd" d="M29.8926 118.1C29.8926 118.1 29.3606 122.007 29.4185 123.039C29.4185 123.039 31.2347 123.464 32.6925 122.841C32.6925 122.841 32.4148 119.967 31.9056 118.1H29.8926Z" fill="#DEEDF2"/>
<mask id="mask10_1487_24917" style="mask-type:luminance" maskUnits="userSpaceOnUse" x="26" y="95" width="7" height="29">
<path fill-rule="evenodd" clip-rule="evenodd" d="M27.3961 95.2937C27.3961 95.2937 27.0605 96.2113 27.0373 97.0722C27.0373 97.0722 27.0657 97.0773 27.1117 97.0848C26.9774 97.6324 26.7527 98.651 26.7366 99.3946C26.7366 99.3946 26.7916 99.4038 26.885 99.4147C26.8134 99.7619 26.482 101.471 26.6787 102.465C26.6787 102.465 26.7446 102.488 26.8538 102.512C26.7645 103.192 26.5845 104.805 26.7366 105.795C26.7366 105.795 26.9132 105.827 27.1774 105.836C27.124 106.499 27.069 108.013 27.5349 109.149C27.5349 109.149 27.6583 109.162 27.8519 109.164C27.8689 109.757 27.9429 111.413 28.252 112.423C28.252 112.423 28.4377 112.451 28.7158 112.459C28.7805 113.113 28.9422 115.063 28.8075 115.685C28.8075 115.685 29.0444 115.727 29.39 115.739C29.3697 116.326 29.3144 117.966 29.3049 118.631C29.3049 118.631 29.5071 118.676 29.8172 118.712C29.6714 119.843 29.3768 122.267 29.4207 123.048C29.4207 123.048 31.237 123.479 32.6948 122.856C32.6948 122.856 32.4527 120.33 32.0066 118.501C32.159 118.433 32.3016 118.349 32.4286 118.246C32.4286 118.246 31.5614 116.022 31.2219 115.384C31.2955 115.342 31.3669 115.296 31.4337 115.244C31.4337 115.244 30.7534 113.005 30.4432 112.114C30.5552 112.053 30.6631 111.984 30.7626 111.901C30.7626 111.901 29.674 109.76 29.3763 108.888C29.4555 108.851 29.5331 108.811 29.6056 108.763C29.6056 108.763 28.8501 106.735 28.4848 105.624C28.5548 105.594 28.6243 105.561 28.6917 105.523C28.6917 105.523 28.2014 103.382 28.0384 102.453C28.1252 102.422 28.2124 102.384 28.2983 102.335C28.2983 102.335 28.0928 99.9246 28.1108 99.3979C28.1858 99.3846 28.2605 99.3692 28.3332 99.3495C28.3332 99.3495 28.3021 97.9684 28.3354 97.1766C28.4058 97.1717 28.4716 97.1639 28.5299 97.1517C28.5299 97.1517 28.4025 95.7696 28.3793 95.441C28.3793 95.441 28.1181 95.2114 27.7588 95.2114C27.646 95.2114 27.5233 95.2342 27.3961 95.2937Z" fill="white"/>
</mask>
<g mask="url(#mask10_1487_24917)">
<path fill-rule="evenodd" clip-rule="evenodd" d="M29.6857 104.97C29.1805 105.009 28.8216 105.374 28.3249 105.487C27.8225 105.602 27.3008 105.596 26.7906 105.664C26.7251 105.672 26.7141 105.777 26.772 105.803C27.284 106.039 27.8015 106.043 28.3568 105.964C28.9115 105.885 29.5705 105.837 29.9277 105.382C30.0545 105.221 29.8833 104.954 29.6857 104.97Z" fill="#9BC3D3"/>
</g>
<mask id="mask11_1487_24917" style="mask-type:luminance" maskUnits="userSpaceOnUse" x="26" y="95" width="7" height="29">
<path fill-rule="evenodd" clip-rule="evenodd" d="M27.3961 95.2937C27.3961 95.2937 27.0605 96.2113 27.0373 97.0722C27.0373 97.0722 27.0657 97.0773 27.1117 97.0848C26.9774 97.6324 26.7527 98.651 26.7366 99.3946C26.7366 99.3946 26.7916 99.4038 26.885 99.4147C26.8134 99.7619 26.482 101.471 26.6787 102.465C26.6787 102.465 26.7446 102.488 26.8538 102.512C26.7645 103.192 26.5845 104.805 26.7366 105.795C26.7366 105.795 26.9132 105.827 27.1774 105.836C27.124 106.499 27.069 108.013 27.5349 109.149C27.5349 109.149 27.6583 109.162 27.8519 109.164C27.8689 109.757 27.9429 111.413 28.252 112.423C28.252 112.423 28.4377 112.451 28.7158 112.459C28.7805 113.113 28.9422 115.063 28.8075 115.685C28.8075 115.685 29.0444 115.727 29.39 115.739C29.3697 116.326 29.3144 117.966 29.3049 118.631C29.3049 118.631 29.5071 118.676 29.8172 118.712C29.6714 119.843 29.3768 122.267 29.4207 123.048C29.4207 123.048 31.237 123.479 32.6948 122.856C32.6948 122.856 32.4527 120.33 32.0066 118.501C32.159 118.433 32.3016 118.349 32.4286 118.246C32.4286 118.246 31.5614 116.022 31.2219 115.384C31.2955 115.342 31.3669 115.296 31.4337 115.244C31.4337 115.244 30.7534 113.005 30.4432 112.114C30.5552 112.053 30.6631 111.984 30.7626 111.901C30.7626 111.901 29.674 109.76 29.3763 108.888C29.4555 108.851 29.5331 108.811 29.6056 108.763C29.6056 108.763 28.8501 106.735 28.4848 105.624C28.5548 105.594 28.6243 105.561 28.6917 105.523C28.6917 105.523 28.2014 103.382 28.0384 102.453C28.1252 102.422 28.2124 102.384 28.2983 102.335C28.2983 102.335 28.0928 99.9246 28.1108 99.3979C28.1858 99.3846 28.2605 99.3692 28.3332 99.3495C28.3332 99.3495 28.3021 97.9684 28.3354 97.1766C28.4058 97.1717 28.4716 97.1639 28.5299 97.1517C28.5299 97.1517 28.4025 95.7696 28.3793 95.441C28.3793 95.441 28.1181 95.2114 27.7588 95.2114C27.646 95.2114 27.5233 95.2342 27.3961 95.2937Z" fill="white"/>
</mask>
<g mask="url(#mask11_1487_24917)">
<path fill-rule="evenodd" clip-rule="evenodd" d="M28.7504 101.886C28.0468 101.997 27.3523 102.138 26.6339 102.114C26.4033 102.106 26.3452 102.47 26.5787 102.514C27.3674 102.664 28.2109 102.568 28.8201 102.004C28.8767 101.951 28.8156 101.876 28.7504 101.886Z" fill="#9BC3D3"/>
</g>
<mask id="mask12_1487_24917" style="mask-type:luminance" maskUnits="userSpaceOnUse" x="26" y="95" width="7" height="29">
<path fill-rule="evenodd" clip-rule="evenodd" d="M27.3961 95.2937C27.3961 95.2937 27.0605 96.2113 27.0373 97.0722C27.0373 97.0722 27.0657 97.0773 27.1117 97.0848C26.9774 97.6324 26.7527 98.651 26.7366 99.3946C26.7366 99.3946 26.7916 99.4038 26.885 99.4147C26.8134 99.7619 26.482 101.471 26.6787 102.465C26.6787 102.465 26.7446 102.488 26.8538 102.512C26.7645 103.192 26.5845 104.805 26.7366 105.795C26.7366 105.795 26.9132 105.827 27.1774 105.836C27.124 106.499 27.069 108.013 27.5349 109.149C27.5349 109.149 27.6583 109.162 27.8519 109.164C27.8689 109.757 27.9429 111.413 28.252 112.423C28.252 112.423 28.4377 112.451 28.7158 112.459C28.7805 113.113 28.9422 115.063 28.8075 115.685C28.8075 115.685 29.0444 115.727 29.39 115.739C29.3697 116.326 29.3144 117.966 29.3049 118.631C29.3049 118.631 29.5071 118.676 29.8172 118.712C29.6714 119.843 29.3768 122.267 29.4207 123.048C29.4207 123.048 31.237 123.479 32.6948 122.856C32.6948 122.856 32.4527 120.33 32.0066 118.501C32.159 118.433 32.3016 118.349 32.4286 118.246C32.4286 118.246 31.5614 116.022 31.2219 115.384C31.2955 115.342 31.3669 115.296 31.4337 115.244C31.4337 115.244 30.7534 113.005 30.4432 112.114C30.5552 112.053 30.6631 111.984 30.7626 111.901C30.7626 111.901 29.674 109.76 29.3763 108.888C29.4555 108.851 29.5331 108.811 29.6056 108.763C29.6056 108.763 28.8501 106.735 28.4848 105.624C28.5548 105.594 28.6243 105.561 28.6917 105.523C28.6917 105.523 28.2014 103.382 28.0384 102.453C28.1252 102.422 28.2124 102.384 28.2983 102.335C28.2983 102.335 28.0928 99.9246 28.1108 99.3979C28.1858 99.3846 28.2605 99.3692 28.3332 99.3495C28.3332 99.3495 28.3021 97.9684 28.3354 97.1766C28.4058 97.1717 28.4716 97.1639 28.5299 97.1517C28.5299 97.1517 28.4025 95.7696 28.3793 95.441C28.3793 95.441 28.1181 95.2114 27.7588 95.2114C27.646 95.2114 27.5233 95.2342 27.3961 95.2937Z" fill="white"/>
</mask>
<g mask="url(#mask12_1487_24917)">
<path fill-rule="evenodd" clip-rule="evenodd" d="M28.3835 99.2053C28.0847 99.251 27.7357 99.0955 27.4341 99.0774C27.0877 99.0567 26.7783 99.1201 26.4558 99.2416C26.2008 99.3377 26.2031 99.7933 26.5268 99.755C26.9761 99.7019 27.3993 99.7589 27.8457 99.7967C28.1832 99.8254 28.4052 99.755 28.5967 99.477C28.6991 99.3285 28.5306 99.1829 28.3835 99.2053Z" fill="#9BC3D3"/>
</g>
<mask id="mask13_1487_24917" style="mask-type:luminance" maskUnits="userSpaceOnUse" x="26" y="95" width="7" height="29">
<path fill-rule="evenodd" clip-rule="evenodd" d="M27.3961 95.2937C27.3961 95.2937 27.0605 96.2113 27.0373 97.0722C27.0373 97.0722 27.0657 97.0773 27.1117 97.0848C26.9774 97.6324 26.7527 98.651 26.7366 99.3946C26.7366 99.3946 26.7916 99.4038 26.885 99.4147C26.8134 99.7619 26.482 101.471 26.6787 102.465C26.6787 102.465 26.7446 102.488 26.8538 102.512C26.7645 103.192 26.5845 104.805 26.7366 105.795C26.7366 105.795 26.9132 105.827 27.1774 105.836C27.124 106.499 27.069 108.013 27.5349 109.149C27.5349 109.149 27.6583 109.162 27.8519 109.164C27.8689 109.757 27.9429 111.413 28.252 112.423C28.252 112.423 28.4377 112.451 28.7158 112.459C28.7805 113.113 28.9422 115.063 28.8075 115.685C28.8075 115.685 29.0444 115.727 29.39 115.739C29.3697 116.326 29.3144 117.966 29.3049 118.631C29.3049 118.631 29.5071 118.676 29.8172 118.712C29.6714 119.843 29.3768 122.267 29.4207 123.048C29.4207 123.048 31.237 123.479 32.6948 122.856C32.6948 122.856 32.4527 120.33 32.0066 118.501C32.159 118.433 32.3016 118.349 32.4286 118.246C32.4286 118.246 31.5614 116.022 31.2219 115.384C31.2955 115.342 31.3669 115.296 31.4337 115.244C31.4337 115.244 30.7534 113.005 30.4432 112.114C30.5552 112.053 30.6631 111.984 30.7626 111.901C30.7626 111.901 29.674 109.76 29.3763 108.888C29.4555 108.851 29.5331 108.811 29.6056 108.763C29.6056 108.763 28.8501 106.735 28.4848 105.624C28.5548 105.594 28.6243 105.561 28.6917 105.523C28.6917 105.523 28.2014 103.382 28.0384 102.453C28.1252 102.422 28.2124 102.384 28.2983 102.335C28.2983 102.335 28.0928 99.9246 28.1108 99.3979C28.1858 99.3846 28.2605 99.3692 28.3332 99.3495C28.3332 99.3495 28.3021 97.9684 28.3354 97.1766C28.4058 97.1717 28.4716 97.1639 28.5299 97.1517C28.5299 97.1517 28.4025 95.7696 28.3793 95.441C28.3793 95.441 28.1181 95.2114 27.7588 95.2114C27.646 95.2114 27.5233 95.2342 27.3961 95.2937Z" fill="white"/>
</mask>
<g mask="url(#mask13_1487_24917)">
<path fill-rule="evenodd" clip-rule="evenodd" d="M28.7492 97.2339C28.4267 96.7977 27.678 96.8128 27.1929 96.896C26.8962 96.9469 27.0218 97.3893 27.3175 97.3386C27.5515 97.2985 27.7915 97.298 28.0241 97.3476C28.2217 97.3895 28.4035 97.4755 28.6087 97.4737C28.7225 97.4726 28.8243 97.3353 28.7492 97.2339Z" fill="#9BC3D3"/>
</g>
<mask id="mask14_1487_24917" style="mask-type:luminance" maskUnits="userSpaceOnUse" x="26" y="95" width="7" height="29">
<path fill-rule="evenodd" clip-rule="evenodd" d="M27.3961 95.2937C27.3961 95.2937 27.0605 96.2113 27.0373 97.0722C27.0373 97.0722 27.0657 97.0773 27.1117 97.0848C26.9774 97.6324 26.7527 98.651 26.7366 99.3946C26.7366 99.3946 26.7916 99.4038 26.885 99.4147C26.8134 99.7619 26.482 101.471 26.6787 102.465C26.6787 102.465 26.7446 102.488 26.8538 102.512C26.7645 103.192 26.5845 104.805 26.7366 105.795C26.7366 105.795 26.9132 105.827 27.1774 105.836C27.124 106.499 27.069 108.013 27.5349 109.149C27.5349 109.149 27.6583 109.162 27.8519 109.164C27.8689 109.757 27.9429 111.413 28.252 112.423C28.252 112.423 28.4377 112.451 28.7158 112.459C28.7805 113.113 28.9422 115.063 28.8075 115.685C28.8075 115.685 29.0444 115.727 29.39 115.739C29.3697 116.326 29.3144 117.966 29.3049 118.631C29.3049 118.631 29.5071 118.676 29.8172 118.712C29.6714 119.843 29.3768 122.267 29.4207 123.048C29.4207 123.048 31.237 123.479 32.6948 122.856C32.6948 122.856 32.4527 120.33 32.0066 118.501C32.159 118.433 32.3016 118.349 32.4286 118.246C32.4286 118.246 31.5614 116.022 31.2219 115.384C31.2955 115.342 31.3669 115.296 31.4337 115.244C31.4337 115.244 30.7534 113.005 30.4432 112.114C30.5552 112.053 30.6631 111.984 30.7626 111.901C30.7626 111.901 29.674 109.76 29.3763 108.888C29.4555 108.851 29.5331 108.811 29.6056 108.763C29.6056 108.763 28.8501 106.735 28.4848 105.624C28.5548 105.594 28.6243 105.561 28.6917 105.523C28.6917 105.523 28.2014 103.382 28.0384 102.453C28.1252 102.422 28.2124 102.384 28.2983 102.335C28.2983 102.335 28.0928 99.9246 28.1108 99.3979C28.1858 99.3846 28.2605 99.3692 28.3332 99.3495C28.3332 99.3495 28.3021 97.9684 28.3354 97.1766C28.4058 97.1717 28.4716 97.1639 28.5299 97.1517C28.5299 97.1517 28.4025 95.7696 28.3793 95.441C28.3793 95.441 28.1181 95.2114 27.7588 95.2114C27.646 95.2114 27.5233 95.2342 27.3961 95.2937Z" fill="white"/>
</mask>
<g mask="url(#mask14_1487_24917)">
<path fill-rule="evenodd" clip-rule="evenodd" d="M28.8695 95.4137C28.7782 95.346 28.7432 95.2616 28.63 95.2124C28.4796 95.1472 28.3099 95.1079 28.151 95.071C27.8511 95.002 27.5479 94.9534 27.2423 94.9159C27.1262 94.9017 27.038 94.9534 26.983 95.034C26.6862 94.9212 26.4123 95.3492 26.6472 95.5929C26.8749 95.8291 27.1912 95.9915 27.4933 96.1193C27.6437 96.1828 27.7997 96.2456 27.9558 96.2944C28.169 96.361 28.3238 96.351 28.5388 96.3562C28.8227 96.3632 28.9121 96.0387 28.7388 95.869H28.748C29.0101 95.869 29.0444 95.5432 28.8695 95.4137Z" fill="#9BC3D3"/>
</g>
<mask id="mask15_1487_24917" style="mask-type:luminance" maskUnits="userSpaceOnUse" x="26" y="95" width="7" height="29">
<path fill-rule="evenodd" clip-rule="evenodd" d="M27.3961 95.2937C27.3961 95.2937 27.0605 96.2113 27.0373 97.0722C27.0373 97.0722 27.0657 97.0773 27.1117 97.0848C26.9774 97.6324 26.7527 98.651 26.7366 99.3946C26.7366 99.3946 26.7916 99.4038 26.885 99.4147C26.8134 99.7619 26.482 101.471 26.6787 102.465C26.6787 102.465 26.7446 102.488 26.8538 102.512C26.7645 103.192 26.5845 104.805 26.7366 105.795C26.7366 105.795 26.9132 105.827 27.1774 105.836C27.124 106.499 27.069 108.013 27.5349 109.149C27.5349 109.149 27.6583 109.162 27.8519 109.164C27.8689 109.757 27.9429 111.413 28.252 112.423C28.252 112.423 28.4377 112.451 28.7158 112.459C28.7805 113.113 28.9422 115.063 28.8075 115.685C28.8075 115.685 29.0444 115.727 29.39 115.739C29.3697 116.326 29.3144 117.966 29.3049 118.631C29.3049 118.631 29.5071 118.676 29.8172 118.712C29.6714 119.843 29.3768 122.267 29.4207 123.048C29.4207 123.048 31.237 123.479 32.6948 122.856C32.6948 122.856 32.4527 120.33 32.0066 118.501C32.159 118.433 32.3016 118.349 32.4286 118.246C32.4286 118.246 31.5614 116.022 31.2219 115.384C31.2955 115.342 31.3669 115.296 31.4337 115.244C31.4337 115.244 30.7534 113.005 30.4432 112.114C30.5552 112.053 30.6631 111.984 30.7626 111.901C30.7626 111.901 29.674 109.76 29.3763 108.888C29.4555 108.851 29.5331 108.811 29.6056 108.763C29.6056 108.763 28.8501 106.735 28.4848 105.624C28.5548 105.594 28.6243 105.561 28.6917 105.523C28.6917 105.523 28.2014 103.382 28.0384 102.453C28.1252 102.422 28.2124 102.384 28.2983 102.335C28.2983 102.335 28.0928 99.9246 28.1108 99.3979C28.1858 99.3846 28.2605 99.3692 28.3332 99.3495C28.3332 99.3495 28.3021 97.9684 28.3354 97.1766C28.4058 97.1717 28.4716 97.1639 28.5299 97.1517C28.5299 97.1517 28.4025 95.7696 28.3793 95.441C28.3793 95.441 28.1181 95.2114 27.7588 95.2114C27.646 95.2114 27.5233 95.2342 27.3961 95.2937Z" fill="white"/>
</mask>
<g mask="url(#mask15_1487_24917)">
<path fill-rule="evenodd" clip-rule="evenodd" d="M30.4835 108.237C30.0031 108.073 29.3972 108.446 28.9199 108.562C28.2774 108.717 27.6204 108.825 26.9668 108.925C26.6076 108.979 26.7117 109.516 27.0499 109.526C27.7975 109.548 28.5131 109.445 29.2247 109.212C29.7062 109.055 30.3911 108.914 30.5881 108.418C30.6188 108.34 30.5535 108.261 30.4835 108.237Z" fill="#9BC3D3"/>
</g>
<mask id="mask16_1487_24917" style="mask-type:luminance" maskUnits="userSpaceOnUse" x="26" y="95" width="7" height="29">
<path fill-rule="evenodd" clip-rule="evenodd" d="M27.3961 95.2937C27.3961 95.2937 27.0605 96.2113 27.0373 97.0722C27.0373 97.0722 27.0657 97.0773 27.1117 97.0848C26.9774 97.6324 26.7527 98.651 26.7366 99.3946C26.7366 99.3946 26.7916 99.4038 26.885 99.4147C26.8134 99.7619 26.482 101.471 26.6787 102.465C26.6787 102.465 26.7446 102.488 26.8538 102.512C26.7645 103.192 26.5845 104.805 26.7366 105.795C26.7366 105.795 26.9132 105.827 27.1774 105.836C27.124 106.499 27.069 108.013 27.5349 109.149C27.5349 109.149 27.6583 109.162 27.8519 109.164C27.8689 109.757 27.9429 111.413 28.252 112.423C28.252 112.423 28.4377 112.451 28.7158 112.459C28.7805 113.113 28.9422 115.063 28.8075 115.685C28.8075 115.685 29.0444 115.727 29.39 115.739C29.3697 116.326 29.3144 117.966 29.3049 118.631C29.3049 118.631 29.5071 118.676 29.8172 118.712C29.6714 119.843 29.3768 122.267 29.4207 123.048C29.4207 123.048 31.237 123.479 32.6948 122.856C32.6948 122.856 32.4527 120.33 32.0066 118.501C32.159 118.433 32.3016 118.349 32.4286 118.246C32.4286 118.246 31.5614 116.022 31.2219 115.384C31.2955 115.342 31.3669 115.296 31.4337 115.244C31.4337 115.244 30.7534 113.005 30.4432 112.114C30.5552 112.053 30.6631 111.984 30.7626 111.901C30.7626 111.901 29.674 109.76 29.3763 108.888C29.4555 108.851 29.5331 108.811 29.6056 108.763C29.6056 108.763 28.8501 106.735 28.4848 105.624C28.5548 105.594 28.6243 105.561 28.6917 105.523C28.6917 105.523 28.2014 103.382 28.0384 102.453C28.1252 102.422 28.2124 102.384 28.2983 102.335C28.2983 102.335 28.0928 99.9246 28.1108 99.3979C28.1858 99.3846 28.2605 99.3692 28.3332 99.3495C28.3332 99.3495 28.3021 97.9684 28.3354 97.1766C28.4058 97.1717 28.4716 97.1639 28.5299 97.1517C28.5299 97.1517 28.4025 95.7696 28.3793 95.441C28.3793 95.441 28.1181 95.2114 27.7588 95.2114C27.646 95.2114 27.5233 95.2342 27.3961 95.2937Z" fill="white"/>
</mask>
<g mask="url(#mask16_1487_24917)">
<path fill-rule="evenodd" clip-rule="evenodd" d="M29.2236 112.062C28.7345 112.204 28.5517 112.268 28.0529 112.365C27.9572 112.383 27.9822 112.526 28.0754 112.528C28.7482 112.537 29.3688 112.517 30.0425 112.594C30.5321 112.65 30.9525 112.633 31.4062 112.443C32.0269 112.184 31.4927 111.284 30.8733 111.55C30.4272 111.742 29.6936 111.925 29.2236 112.062Z" fill="#9BC3D3"/>
</g>
<mask id="mask17_1487_24917" style="mask-type:luminance" maskUnits="userSpaceOnUse" x="26" y="95" width="7" height="29">
<path fill-rule="evenodd" clip-rule="evenodd" d="M27.3961 95.2937C27.3961 95.2937 27.0605 96.2113 27.0373 97.0722C27.0373 97.0722 27.0657 97.0773 27.1117 97.0848C26.9774 97.6324 26.7527 98.651 26.7366 99.3946C26.7366 99.3946 26.7916 99.4038 26.885 99.4147C26.8134 99.7619 26.482 101.471 26.6787 102.465C26.6787 102.465 26.7446 102.488 26.8538 102.512C26.7645 103.192 26.5845 104.805 26.7366 105.795C26.7366 105.795 26.9132 105.827 27.1774 105.836C27.124 106.499 27.069 108.013 27.5349 109.149C27.5349 109.149 27.6583 109.162 27.8519 109.164C27.8689 109.757 27.9429 111.413 28.252 112.423C28.252 112.423 28.4377 112.451 28.7158 112.459C28.7805 113.113 28.9422 115.063 28.8075 115.685C28.8075 115.685 29.0444 115.727 29.39 115.739C29.3697 116.326 29.3144 117.966 29.3049 118.631C29.3049 118.631 29.5071 118.676 29.8172 118.712C29.6714 119.843 29.3768 122.267 29.4207 123.048C29.4207 123.048 31.237 123.479 32.6948 122.856C32.6948 122.856 32.4527 120.33 32.0066 118.501C32.159 118.433 32.3016 118.349 32.4286 118.246C32.4286 118.246 31.5614 116.022 31.2219 115.384C31.2955 115.342 31.3669 115.296 31.4337 115.244C31.4337 115.244 30.7534 113.005 30.4432 112.114C30.5552 112.053 30.6631 111.984 30.7626 111.901C30.7626 111.901 29.674 109.76 29.3763 108.888C29.4555 108.851 29.5331 108.811 29.6056 108.763C29.6056 108.763 28.8501 106.735 28.4848 105.624C28.5548 105.594 28.6243 105.561 28.6917 105.523C28.6917 105.523 28.2014 103.382 28.0384 102.453C28.1252 102.422 28.2124 102.384 28.2983 102.335C28.2983 102.335 28.0928 99.9246 28.1108 99.3979C28.1858 99.3846 28.2605 99.3692 28.3332 99.3495C28.3332 99.3495 28.3021 97.9684 28.3354 97.1766C28.4058 97.1717 28.4716 97.1639 28.5299 97.1517C28.5299 97.1517 28.4025 95.7696 28.3793 95.441C28.3793 95.441 28.1181 95.2114 27.7588 95.2114C27.646 95.2114 27.5233 95.2342 27.3961 95.2937Z" fill="white"/>
</mask>
<g mask="url(#mask17_1487_24917)">
<path fill-rule="evenodd" clip-rule="evenodd" d="M28.8117 115.515C28.4923 115.603 28.5393 116.141 28.893 116.103C29.9897 115.987 31.4592 115.834 32.0133 114.74C32.0843 114.599 32.0008 114.392 31.8164 114.404C30.7391 114.474 29.8343 115.232 28.8117 115.515Z" fill="#9BC3D3"/>
</g>
<mask id="mask18_1487_24917" style="mask-type:luminance" maskUnits="userSpaceOnUse" x="26" y="95" width="7" height="29">
<path fill-rule="evenodd" clip-rule="evenodd" d="M27.0373 97.0722C27.0373 97.0722 27.0657 97.0773 27.1117 97.0848C26.9774 97.6324 26.7527 98.651 26.7366 99.3946C26.7366 99.3946 26.7916 99.4038 26.885 99.4147C26.8134 99.7619 26.482 101.471 26.6787 102.465C26.6787 102.465 26.7446 102.488 26.8538 102.512C26.7645 103.192 26.5845 104.805 26.7366 105.795C26.7366 105.795 26.9132 105.827 27.1774 105.836C27.124 106.499 27.069 108.013 27.5349 109.149C27.5349 109.149 27.6583 109.162 27.8519 109.164C27.8689 109.757 27.9429 111.413 28.252 112.423C28.252 112.423 28.4377 112.451 28.7158 112.459C28.7805 113.113 28.9422 115.063 28.8075 115.685C28.8075 115.685 29.0444 115.727 29.39 115.739C29.3697 116.326 29.3144 117.966 29.3049 118.631C29.3049 118.631 29.5071 118.676 29.8172 118.712C29.6714 119.843 29.3768 122.267 29.4207 123.048C29.4207 123.048 31.237 123.479 32.6948 122.856C32.6948 122.856 32.4527 120.33 32.0066 118.501C32.159 118.433 32.3016 118.349 32.4286 118.246C32.4286 118.246 31.5614 116.022 31.2219 115.384C31.2955 115.342 31.3669 115.296 31.4337 115.244C31.4337 115.244 30.7534 113.005 30.4432 112.114C30.5552 112.053 30.6631 111.984 30.7626 111.901C30.7626 111.901 29.674 109.76 29.3763 108.888C29.4555 108.851 29.5331 108.811 29.6056 108.763C29.6056 108.763 28.8501 106.735 28.4848 105.624C28.5548 105.594 28.6243 105.561 28.6917 105.523C28.6917 105.523 28.2014 103.382 28.0384 102.453C28.1252 102.422 28.2124 102.384 28.2983 102.335C28.2983 102.335 28.0928 99.9246 28.1108 99.3979C28.1858 99.3846 28.2605 99.3692 28.3332 99.3495C28.3332 99.3495 28.3021 97.9684 28.3354 97.1766C28.4058 97.1717 28.4716 97.1639 28.5299 97.1517C28.5299 97.1517 28.4025 95.7696 28.3793 95.441C28.3793 95.441 28.1181 95.2114 27.7588 95.2114C27.646 95.2114 27.5233 95.2342 27.3961 95.2937C27.3961 95.2937 27.0605 96.2113 27.0373 97.0722Z" fill="white"/>
</mask>
<g mask="url(#mask18_1487_24917)">
<path fill-rule="evenodd" clip-rule="evenodd" d="M33.2926 117.723C32.6235 117.872 32.0046 118.181 31.3252 118.317C30.5838 118.466 29.8207 118.523 29.066 118.474C28.8301 118.458 28.7852 118.819 29.0107 118.874C30.458 119.232 32.3892 119.221 33.546 118.15C33.7431 117.967 33.5361 117.669 33.2926 117.723Z" fill="#9BC3D3"/>
</g>
<mask id="mask19_1487_24917" style="mask-type:luminance" maskUnits="userSpaceOnUse" x="26" y="95" width="7" height="29">
<path fill-rule="evenodd" clip-rule="evenodd" d="M27.0373 97.0722C27.0373 97.0722 27.0657 97.0773 27.1117 97.0848C26.9774 97.6324 26.7527 98.651 26.7366 99.3946C26.7366 99.3946 26.7916 99.4038 26.885 99.4147C26.8134 99.7619 26.482 101.471 26.6787 102.465C26.6787 102.465 26.7446 102.488 26.8538 102.512C26.7645 103.192 26.5845 104.805 26.7366 105.795C26.7366 105.795 26.9132 105.827 27.1774 105.836C27.124 106.499 27.069 108.013 27.5349 109.149C27.5349 109.149 27.6583 109.162 27.8519 109.164C27.8689 109.757 27.9429 111.413 28.252 112.423C28.252 112.423 28.4377 112.451 28.7158 112.459C28.7805 113.113 28.9422 115.063 28.8075 115.685C28.8075 115.685 29.0444 115.727 29.39 115.739C29.3697 116.326 29.3144 117.966 29.3049 118.631C29.3049 118.631 29.5071 118.676 29.8172 118.712C29.6714 119.843 29.3768 122.267 29.4207 123.048C29.4207 123.048 31.237 123.479 32.6948 122.856C32.6948 122.856 32.4527 120.33 32.0066 118.501C32.159 118.433 32.3016 118.349 32.4286 118.246C32.4286 118.246 31.5614 116.022 31.2219 115.384C31.2955 115.342 31.3669 115.296 31.4337 115.244C31.4337 115.244 30.7534 113.005 30.4432 112.114C30.5552 112.053 30.6631 111.984 30.7626 111.901C30.7626 111.901 29.674 109.76 29.3763 108.888C29.4555 108.851 29.5331 108.811 29.6056 108.763C29.6056 108.763 28.8501 106.735 28.4848 105.624C28.5548 105.594 28.6243 105.561 28.6917 105.523C28.6917 105.523 28.2014 103.382 28.0384 102.453C28.1252 102.422 28.2124 102.384 28.2983 102.335C28.2983 102.335 28.0928 99.9246 28.1108 99.3979C28.1858 99.3846 28.2605 99.3692 28.3332 99.3495C28.3332 99.3495 28.3021 97.9684 28.3354 97.1766C28.4058 97.1717 28.4716 97.1639 28.5299 97.1517C28.5299 97.1517 28.4025 95.7696 28.3793 95.441C28.3793 95.441 28.1181 95.2114 27.7588 95.2114C27.646 95.2114 27.5233 95.2342 27.3961 95.2937C27.3961 95.2937 27.0605 96.2113 27.0373 97.0722Z" fill="white"/>
</mask>
<g mask="url(#mask19_1487_24917)">
<path fill-rule="evenodd" clip-rule="evenodd" d="M33.7416 121.866C33.4897 121.933 33.2306 121.946 32.9684 121.941C33.4719 121.261 33.8421 120.433 33.3731 119.659C33.2584 119.469 32.9835 119.477 32.867 119.659C32.4403 120.326 32.4903 121.163 32.2887 121.918C32.084 121.914 31.8795 121.918 31.6771 121.949C30.7967 122.087 29.9268 122.441 29.0281 122.406C28.6551 122.392 28.5554 123.003 28.9381 123.058C29.0723 123.077 29.2038 123.09 29.3343 123.102C29.1932 123.337 29.3145 123.714 29.6851 123.744C30.3592 123.799 31.0313 123.819 31.7031 123.73C32.2925 123.652 32.9809 123.613 33.4171 123.185C33.4665 123.137 33.4951 123.079 33.5076 123.018C33.6332 123.001 33.7563 122.978 33.8724 122.938C34.1065 122.858 34.2658 122.671 34.2727 122.423L34.2773 122.266C34.2851 121.995 34.0008 121.797 33.7416 121.866Z" fill="#9BC3D3"/>
</g>
<path fill-rule="evenodd" clip-rule="evenodd" d="M27.5781 95.1807C27.5781 95.1807 28.3702 93.0085 28.3009 91.9367L27.9259 91.9073L28.2309 91.6469C28.2309 91.6469 28.1974 90.2482 27.89 89.582L27.1797 89.4461L27.6784 89.1271L27.2787 88.3574L26.4565 88.3416L26.888 87.9507C26.888 87.9507 26.1828 86.983 25.5533 86.7037L24.8195 87.0006L25.0178 86.3827C25.0178 86.3827 22.6139 85.4132 20.9062 86.9226C20.9062 86.9226 22.6628 87.5285 23.1841 87.9771L23.8939 87.9368L23.5652 88.3091L24.0862 88.937L25.0476 88.9726L24.4735 89.4754L25.2743 90.7344L26.0694 90.611L25.5285 91.0637L26.2614 91.1339L25.6884 91.63C25.6884 91.63 26.4719 92.9975 26.5455 93.2164L27.0541 93.1452L26.6473 93.5154C26.6473 93.5154 27.2861 94.6062 27.2678 95.2232L27.5781 95.1807Z" fill="#9BC3D3"/>
<path fill-rule="evenodd" clip-rule="evenodd" d="M28.7511 93.8375C28.7511 93.8375 27.2942 92.5315 25.152 92.6502L24.9806 93.0233L24.7408 92.6426C24.7408 92.6426 23.1298 93.1591 22.4956 93.6001L22.6155 94.024L22.1013 93.6678C22.1013 93.6678 20.6446 94.3123 20.0961 95.0924L20.5589 95.5675L19.6163 95.3807C19.6163 95.3807 17.2341 96.7715 18.7251 101.249C18.7251 101.249 19.8048 99.6888 20.3875 99.2306L20.0961 98.7729L20.576 98.9085C20.576 98.9085 21.4844 97.6026 21.8956 97.2294L21.4844 96.2628L22.1528 96.9459C22.1528 96.9459 23.4444 96.0931 23.4928 96.0254C23.541 95.9574 23.3867 95.0247 23.3867 95.0247L23.8324 95.669C23.8324 95.669 25.3062 94.9738 25.4261 94.9568L25.4434 93.9561L25.8033 94.7703C25.8033 94.7703 27.3113 93.9732 28.6482 94.1596L28.7511 93.8375Z" fill="#9BC3D3"/>
<path fill-rule="evenodd" clip-rule="evenodd" d="M27.6726 94.5582C27.6726 94.5582 29.3985 92.8922 29.9037 92.6801L29.5225 92.2718L30.0979 92.4668C30.0979 92.4668 31.2689 91.533 31.4943 91.4412L31.1086 90.9342L31.7852 91.1932C31.7852 91.1932 32.9279 90.4544 33.4841 90.3274L33.1356 89.1803L33.9061 90.0892C33.9061 90.0892 35.7941 88.8405 36.9818 89.0906C36.9818 89.0906 35.3373 88.1779 34.1999 87.9069L33.9893 88.4003L33.8379 87.7135C33.8379 87.7135 32.524 87.6942 31.8324 88.1061L31.4863 88.7408L31.4009 88.2544C31.4009 88.2544 30.4347 88.4373 30.0015 89.0889L29.8945 89.741L29.7473 89.2383C29.7473 89.2383 29.0061 89.82 28.4234 90.9956C27.8407 92.171 27.4609 94.3001 27.4609 94.3001L27.6726 94.5582Z" fill="#DEEDF2"/>
<path fill-rule="evenodd" clip-rule="evenodd" d="M28.6437 91.8715C28.6437 91.8715 30.2414 90.5666 32.0578 90.4471C32.0578 90.4471 32.0138 91.2565 31.9594 91.3093C31.9049 91.3619 32.7043 90.2939 32.7043 90.2939C32.7043 90.2939 34.5517 90.2705 35.8544 90.7743L35.5296 91.7087L36.5177 90.9516C36.5177 90.9516 39.0817 92.609 39.2395 95.0512C39.2395 95.0512 37.1202 93.8355 36.1595 94.1771L36.2926 93.1448L35.7308 94.1194C35.7308 94.1194 34.1247 93.783 33.423 94.042L33.1946 92.7713L32.801 93.9929C32.801 93.9929 32.0082 93.8568 31.4137 94.117L31.1292 93.0056L30.9595 94.1534L29.1426 94.4876C29.1426 94.4876 27.9107 93.537 27.3945 93.5956L27.6318 92.7776L28.6437 91.8715Z" fill="#9BC3D3"/>
<path fill-rule="evenodd" clip-rule="evenodd" d="M28.4758 93.9395C28.4758 93.9395 30.0524 93.9564 31.1837 94.7365L30.7896 95.3641L31.4922 94.94C31.4922 94.94 32.3833 95.6862 32.5032 96.3138L31.8863 96.9461L32.9661 96.8225C32.9661 96.8225 33.6003 97.7045 33.6687 98.807L33.2831 98.9891L33.7587 99.0338C33.7587 99.0338 34.0608 101.228 33.6687 102.036C33.6687 102.036 32.1968 100.039 31.9077 99.9433C31.6186 99.8478 31.8757 99.9433 31.8757 99.9433L32.4798 99.3199L31.6443 99.5234C31.6443 99.5234 30.8794 98.1307 30.6418 98.048L31.2715 97.5073L30.4038 97.7426C30.4038 97.7426 29.8126 96.9732 29.5811 96.7951L29.9089 96.2608L29.2663 96.7187C29.2663 96.7187 28.598 95.8474 27.9939 95.4976L27.7109 94.6517L28.4758 93.9395Z" fill="#9BC3D3"/>
<path fill-rule="evenodd" clip-rule="evenodd" d="M28.2831 94.8933C28.2831 94.8933 27.5119 96.4452 27.5954 97.1129L26.9976 96.946L27.3704 97.3164C27.3704 97.3164 26.6249 98.8111 26.5929 99.1863L25.8152 98.8557L26.2714 99.3708C26.2714 99.3708 25.8986 100.325 25.828 100.745L25.1918 100.643L25.603 100.974C25.603 100.974 24.7162 102.57 24.6197 103.505C24.6197 103.505 23.8742 101.616 23.945 100.681L24.4012 100.204L23.7457 100.166C23.7457 100.166 23.6107 98.6395 23.945 98.0161L24.8318 97.8826L23.945 97.3737C23.945 97.3737 24.4462 95.8983 25.3009 95.0332L26.1236 95.1351L25.648 94.7215C25.648 94.7215 26.0143 94.2891 26.9141 94.2256C27.8138 94.162 27.9166 93.9712 27.9166 93.9712L28.2831 94.8933Z" fill="#DEEDF2"/>
<path fill-rule="evenodd" clip-rule="evenodd" d="M27.2924 94.3399C27.2924 94.3399 25.6968 93.6347 25.0257 93.742L25.1721 93.1447L24.8119 93.527C24.8119 93.527 23.2749 92.8451 22.8948 92.8271L23.2 92.0458L22.6967 92.5163C22.6967 92.5163 21.7195 92.1828 21.2931 92.1285L21.3723 91.4955L21.0534 91.9145C21.0534 91.9145 19.4087 91.0964 18.4609 91.0357C18.4609 91.0357 20.3409 90.2286 21.2876 90.2639L21.7861 90.6974L21.8005 90.0477C21.8005 90.0477 23.3369 89.8579 23.9786 90.1653L24.1462 91.0375L24.6273 90.1416C24.6273 90.1416 26.1358 90.5828 27.0409 91.3961L26.9686 92.2133L27.3684 91.7277C27.3684 91.7277 27.8186 92.0741 27.9162 92.9614C28.0137 93.849 28.2102 93.9436 28.2102 93.9436L27.2924 94.3399Z" fill="#DEEDF2"/>
<path fill-rule="evenodd" clip-rule="evenodd" d="M31.1306 122.945H33.5256C33.5256 122.945 34.1349 122.427 34.4129 122.374C34.4129 122.374 33.825 122.256 33.4508 122.593C33.4508 122.593 33.7502 121.308 34.1029 121.011C34.1029 121.011 33.4614 121.269 33.2904 121.619C33.2904 121.619 33.2914 120.901 33.51 120.594C33.51 120.594 33.1301 120.849 33.0337 121.093C33.0337 121.093 32.8858 120.215 32.2595 120.056C32.2595 120.056 32.3943 120.66 32.3387 120.998C32.3387 120.998 31.8523 120.257 31.1547 120.12C31.1547 120.12 31.5155 120.31 31.9004 120.935C31.9004 120.935 30.8739 120.289 30.211 120.353C30.211 120.353 30.8098 120.696 31.0236 121.307C31.0236 121.307 30.2966 120.966 29.7512 121.072C29.7512 121.072 30.2432 121.231 30.5959 121.728C30.5959 121.728 30.0179 121.578 29.4944 121.812C29.4944 121.812 29.9866 122.363 30.3715 122.522C30.3715 122.522 29.6978 122.564 29.3984 122.48C29.3984 122.48 30.0186 122.818 30.4357 122.829C30.8526 122.839 31.1306 122.945 31.1306 122.945Z" fill="#9BC3D3"/>
<path fill-rule="evenodd" clip-rule="evenodd" d="M27.7086 122.945C27.7086 122.945 27.5375 122.109 27.0742 121.574C27.0742 121.574 27.4552 121.575 27.8071 122.04C27.8071 122.04 27.5813 121.003 27.2095 120.623C27.2095 120.623 27.9236 120.585 28.5212 121.192C28.5212 121.192 28.2931 120.46 27.9337 120.167C27.9337 120.167 28.7003 120.41 28.9908 120.858C28.9908 120.858 28.8746 119.973 28.4449 119.605C28.4449 119.605 29.0953 119.859 29.3623 120.824C29.3623 120.824 29.3045 120.422 29.8039 120.043C29.8039 120.043 29.769 120.526 29.8039 120.836C29.8039 120.836 30.1176 120.434 30.8726 120.388C30.8726 120.388 30.4661 121.353 30.4661 121.721C30.4661 121.721 30.5939 121.457 31.0585 121.399C31.0585 121.399 30.7911 121.79 30.7797 122.089C30.7797 122.089 31.3952 121.885 31.8366 122.08C31.8366 122.08 31.2559 122.607 31.1745 122.945H27.7086Z" fill="#9BC3D3"/>
<ellipse cx="74.6751" cy="136.626" rx="13.3423" ry="47.0141" transform="rotate(-86.98 74.6751 136.626)" fill="#DEEDF2"/>
<path fill-rule="evenodd" clip-rule="evenodd" d="M62.0273 125.292L53.8428 75.8L54.8327 75.6363L63.0172 125.129L62.0273 125.292Z" fill="#767676"/>
<path fill-rule="evenodd" clip-rule="evenodd" d="M94.9127 83.0088C46.8912 63.1712 22.606 97.9126 22.606 97.9126L94.9127 83.0088Z" fill="#34466B"/>
<path fill-rule="evenodd" clip-rule="evenodd" d="M74.7891 70.6353L75.7952 63.499L74.7891 70.6353Z" fill="#444444"/>
<path fill-rule="evenodd" clip-rule="evenodd" d="M85.1607 109.895L116.21 113.778L75.1872 150.45L44.0234 145.378L85.1607 109.895Z" fill="#1BB3BC"/>
<path d="M116.211 113.778L85.1614 109.895L80.1175 113.91L111.122 118.309L116.211 113.778Z" fill="#EAF7FE"/>
<path d="M106.672 122.304L74.8557 118.421L70.5785 122.436L101.583 126.834L106.672 122.304Z" fill="#EAF7FE"/>
<path d="M96.9375 131.225L64.9919 127.269L59.9898 131.357L91.8488 135.756L96.9375 131.225Z" fill="#EAF7FE"/>
<path d="M86.5938 140.354L54.4665 136.331L49.4644 140.42L81.5458 144.756L86.5938 140.354Z" fill="#EAF7FE"/>
<path fill-rule="evenodd" clip-rule="evenodd" d="M96.4253 133.793C96.4253 133.793 100.814 142.629 101.912 142.972C103.009 143.315 103.769 142.8 103.769 142.8C103.769 142.8 112.884 141.084 111.196 143.057C109.508 145.03 94.7372 143.83 94.7372 143.83L91.0234 135.337L96.4253 133.793Z" fill="#F4A48D"/>
<path fill-rule="evenodd" clip-rule="evenodd" d="M83.9605 133.937C83.9605 133.937 91.1188 129.264 93.0788 129.264C93.0788 129.264 95.9762 128.346 97.6805 134.688C97.6805 134.688 91.8005 135.689 91.8857 138.443L90.7779 136.107L86.0057 141.28L80.2109 137.442L83.9605 133.937Z" fill="#DEEDF2"/>
<path fill-rule="evenodd" clip-rule="evenodd" d="M83.9605 133.521C83.9605 133.521 91.1188 128.848 93.0788 128.848C93.0788 128.848 95.9762 127.93 97.6805 134.272C97.6805 134.272 91.8005 135.273 91.8857 138.027L90.7779 135.691L86.0057 140.864L80.2109 137.026L83.9605 133.521Z" fill="#34466B"/>
<path fill-rule="evenodd" clip-rule="evenodd" d="M91.8052 131.418C91.3781 133.454 89.1572 133.793 89.1572 133.793L85.9966 131.842C85.9966 131.842 85.5508 128.92 85.174 127.139C85.0297 126.455 84.8956 125.938 84.8008 125.82C84.4591 125.396 89.8405 125.481 89.8405 125.481C90.2182 126.115 90.562 126.768 90.8707 127.438C91.4566 128.711 92.0332 130.331 91.8052 131.418Z" fill="#F4A48D"/>
<path fill-rule="evenodd" clip-rule="evenodd" d="M78.1312 115.907L76.3454 124.226L72.0083 123.145C72.0083 123.145 68.0114 120.067 69.202 118.153C69.5915 117.528 73.9311 115.829 74.8793 116.051C76.2408 116.37 78.1312 115.907 78.1312 115.907Z" fill="#F4A48D"/>
<path fill-rule="evenodd" clip-rule="evenodd" d="M70.2314 110.89C69.286 110.196 68.6719 109.076 68.6719 107.814C68.6719 105.708 70.3815 103.999 72.4872 103.999C74.4316 103.999 76.0382 105.456 76.273 107.337C76.3141 107.533 76.3439 107.731 76.3645 107.929L76.3645 107.93L76.3652 107.934L76.3653 107.936C76.3714 107.995 76.3767 108.054 76.3812 108.113L76.644 111.057L76.0458 111.258L76.0396 111.259L76.0396 111.259C76.0247 111.31 76.0165 111.338 76.0165 111.338L76.0002 111.736L75.9709 112.481C75.9607 112.727 75.9092 112.968 75.8195 113.195C75.7568 113.356 75.674 113.509 75.5728 113.651C75.454 113.818 75.312 113.968 75.1535 114.095C75.0709 114.161 74.9832 114.221 74.8915 114.274C74.843 114.302 74.7946 114.327 74.7443 114.351L74.744 114.352L75.0009 119.002C75.0009 119.002 73.6433 119.411 72.1568 119.087C71.2582 118.892 70.3116 118.427 69.5894 117.444C69.5894 117.444 70.4442 113.74 70.2314 110.89Z" fill="#F4A48D"/>
<path fill-rule="evenodd" clip-rule="evenodd" d="M71.3591 104.138C73.1251 104.078 72.9083 102.598 72.9083 102.598C74.7982 102.658 75.6038 103.353 75.6038 103.353C77.1221 104.531 76.5201 106.894 76.5201 106.894C76.2884 105.111 73.4895 105.871 72.3938 106.05C71.9461 106.478 72.1189 107.524 71.8919 108.406C71.8878 108.422 71.4009 109.615 71.4009 109.615L71.4003 109.616L71.3729 109.74C71.3648 109.72 71.3564 109.699 71.3477 109.679C71.0531 108.999 70.4532 108.596 70.008 108.779C69.5625 108.963 69.4404 109.662 69.7349 110.343C69.8375 110.58 70.0967 110.783 70.254 110.94C70.3761 111.939 70.3532 112.867 70.267 113.663L69.8103 113.683L68.1678 106.071C68.0457 105.052 68.5112 104.587 69.2562 104.365C69.8362 104.191 70.5856 104.165 71.3591 104.138Z" fill="#DEEDF2"/>
<path fill-rule="evenodd" clip-rule="evenodd" d="M91.0243 127.554C89.8061 127.328 86.3556 126.753 85.1839 127.238C85.0359 126.513 84.8984 125.966 84.8012 125.841C84.4509 125.392 89.9681 125.481 89.9681 125.481C90.3553 126.153 90.7079 126.845 91.0243 127.554Z" fill="#DEEDF2"/>
<path fill-rule="evenodd" clip-rule="evenodd" d="M72.352 121.431L73.6399 123.22L74.3728 120.575C74.6558 119.516 74.805 118.427 74.8171 117.332C74.8232 116.868 74.975 116.417 75.2512 116.042C76.5727 115.325 77.5538 114.946 79.2193 115.116C80.8693 115.295 82.4368 115.928 83.7467 116.943C88.6969 120.728 91.0247 127.019 91.0247 127.019C91.0247 127.019 84.2404 125.668 84.5796 127.188C84.5796 127.188 81.6115 122.46 80.933 123.22C80.2546 123.98 82.3747 134.028 82.3747 134.028L68.4669 135.041L64.8203 125.415L64.9899 118.238C64.9899 118.238 68.5941 116.591 69.3573 116.591C69.6244 116.591 69.5837 116.499 69.6965 116.929C70.1315 118.587 71.3489 120.038 72.352 121.431Z" fill="#DEEDF2"/>
<g opacity="0.05">
<path fill-rule="evenodd" clip-rule="evenodd" d="M84.3438 126.542C84.6189 127.053 84.7945 127.4 84.7945 127.4C84.6467 126.578 85.853 126.434 87.2598 126.532C86.1561 126.387 85.0101 126.325 84.3438 126.542Z" fill="#DEEDF2"/>
</g>
<path fill-rule="evenodd" clip-rule="evenodd" d="M67.9913 144.052C67.1802 144.722 64.8776 146.329 62.0343 145.72C59.2002 145.113 61.5775 143.756 62.6639 143.227C62.7805 143.17 62.8649 143.064 62.8931 142.938C62.9213 142.811 62.8903 142.679 62.8089 142.578C62.1858 141.818 61.47 141.139 60.6783 140.556C59.9876 140.048 59.1562 139.134 58.4324 138.256V138.255C58.0519 137.795 57.7027 137.347 57.418 136.97C57.3083 136.825 57.3031 136.626 57.4052 136.475C57.5073 136.325 57.694 136.256 57.8697 136.304L63.4258 137.811C63.5128 137.834 63.59 137.885 63.6462 137.955L65.4725 140.235L68.0531 143.457C68.1987 143.639 68.1711 143.904 67.9913 144.052Z" fill="#F4A48D"/>
<path fill-rule="evenodd" clip-rule="evenodd" d="M65.6509 140.032C60.9127 136.828 59.1243 137.401 58.4565 138.154C58.0677 137.718 57.7108 137.292 57.4198 136.935C57.3077 136.797 57.3025 136.609 57.4068 136.466C57.5112 136.323 57.702 136.257 57.8815 136.303L63.5593 137.732C63.6483 137.755 63.7272 137.803 63.7845 137.87L65.6509 140.032Z" fill="#DEEDF2"/>
<path fill-rule="evenodd" clip-rule="evenodd" d="M61.6083 129.791C61.6083 129.791 54.2028 127.377 55.3809 132.456C56.5591 137.534 58.0738 138.783 58.0738 138.783C58.0738 138.783 58.4946 134.787 65.6476 140.032L63.123 136.036L66.0684 132.372L61.6083 129.791Z" fill="#34466B"/>
<path fill-rule="evenodd" clip-rule="evenodd" d="M60.187 124.834C60.187 124.834 59.5046 128.418 61.9782 132.769C63.9391 136.219 61.6118 137.792 60.5628 138.296C60.2811 138.431 59.9447 138.375 59.7225 138.155C59.0315 137.471 57.7066 135.736 58.481 133.025L58.9928 131.66L56.178 129.612C56.178 129.612 55.4164 126.787 55.7545 126.152C56.0927 125.517 58.8222 123.811 58.8222 123.811L60.187 124.834Z" fill="#DEEDF2"/>
<path fill-rule="evenodd" clip-rule="evenodd" d="M60.187 124.834C60.187 124.834 59.5046 128.418 61.9782 132.769C63.9391 136.219 61.6118 137.792 60.5628 138.296C60.2811 138.431 59.9447 138.375 59.7225 138.155C59.0315 137.471 57.7066 135.736 58.481 133.025L58.9928 131.66L56.178 129.612C56.178 129.612 55.4164 126.787 55.7545 126.152C56.0927 125.517 58.8222 123.811 58.8222 123.811L60.187 124.834Z" fill="#F4A48D"/>
<path fill-rule="evenodd" clip-rule="evenodd" d="M65.8452 117.987C65.8452 117.987 59.8165 121.431 57.3045 123.699C54.7925 125.966 55.2949 126.722 55.2949 126.722C55.2949 126.722 57.7231 122.187 59.8165 126.134C59.8165 126.134 65.6777 121.851 67.2686 123.699C68.8595 125.546 65.8452 117.987 65.8452 117.987Z" fill="#DEEDF2"/>
<path fill-rule="evenodd" clip-rule="evenodd" d="M63.9883 138.087L68.9796 137.121L68.3973 139.616L64.7802 139.252L63.9883 138.087Z" fill="#34466B"/>
<path fill-rule="evenodd" clip-rule="evenodd" d="M72.7247 126.575L72.557 128.386L66.521 127.398L64.6767 126.245L61.9102 125.258C62.2364 124.375 66.8379 124.134 69.036 123.811L70.8803 125.669L72.7247 126.575Z" fill="#FFC4B8"/>
<path fill-rule="evenodd" clip-rule="evenodd" d="M66.4844 124.152C66.4844 124.152 69.5244 122.742 71.0033 125.651C72.4822 128.56 73.1395 128.384 73.1395 128.384L70.1816 126.356L66.4844 124.152Z" fill="#FFC4B8"/>
<path fill-rule="evenodd" clip-rule="evenodd" d="M69.1869 138.213C69.1869 138.213 66.7794 140.14 68.1551 142.569C69.5308 144.999 78.129 144.58 78.129 144.58C78.129 144.58 72.671 142.582 74.0243 135.873C74.0243 135.873 70.1327 136.956 69.1869 138.213Z" fill="#34466B"/>
<path fill-rule="evenodd" clip-rule="evenodd" d="M80.6249 141.057L79.793 144.192L82.7046 143.614C82.7046 143.614 81.4567 140.974 81.6231 140.232C81.7895 139.489 80.6249 141.057 80.6249 141.057Z" fill="#34466B"/>
<path d="M82.9895 137.121C82.9895 137.121 90.6912 137.878 92.8071 139.057L94.4151 139.562C94.4151 139.562 95.0075 139.394 96.2771 140.488L102.878 142.004L107.957 143.014C107.957 143.014 112.611 143.856 112.95 143.687C113.288 143.519 115.574 144.95 113.373 145.624C111.173 146.297 106.602 145.287 106.602 145.287C106.602 145.287 103.217 144.866 102.455 145.119C101.694 145.371 96.531 144.614 96.531 144.614L91.4529 144.95C91.4529 144.95 90.6066 143.687 88.4061 144.108C86.8358 144.409 84.1019 143.938 82.6647 143.643C82.0956 143.527 81.6538 143.079 81.5473 142.511L81.043 139.815L82.9895 137.121Z" fill="#FFC4B8"/>
<path fill-rule="evenodd" clip-rule="evenodd" d="M82.9895 137.121C82.9895 137.121 90.6912 137.878 92.8071 139.057L94.4151 139.562C94.4151 139.562 95.0075 139.394 96.2771 140.488L102.878 142.004L107.957 143.014C107.957 143.014 112.611 143.856 112.95 143.687C113.288 143.519 115.574 144.95 113.373 145.624C111.173 146.297 106.602 145.287 106.602 145.287C106.602 145.287 103.217 144.866 102.455 145.119C101.694 145.371 96.531 144.614 96.531 144.614L91.4529 144.95C91.4529 144.95 90.6066 143.687 88.4061 144.108C86.8358 144.409 84.1019 143.938 82.6647 143.643C82.0956 143.527 81.6538 143.079 81.5473 142.511L81.043 139.815L82.9895 137.121Z" fill="#FFC4B8"/>
<path fill-rule="evenodd" clip-rule="evenodd" d="M59.8743 119.735L59.8362 119.754C58.1647 118.083 58.1699 115.363 59.8477 113.686C61.3696 112.164 63.7485 112.018 65.4249 113.252C65.677 113.413 65.9041 113.618 66.0939 113.863C66.6656 114.507 67.0086 115.285 67.1233 116.089L67.1241 116.089L67.1211 116.091L68.2713 119.699L67.6281 119.843C67.6823 120.255 67.5515 120.865 67.4185 121.343C67.1876 122.17 66.381 122.701 65.5276 122.579C65.4585 122.57 65.3872 122.557 65.3137 122.54C65.2158 122.52 65.1147 122.492 65.0083 122.459C65.002 122.456 64.9945 122.454 64.987 122.452L65.3521 123.08L66.5174 125.088C67.086 126.068 66.4264 127.302 65.2914 127.381C65.2552 127.385 65.2179 127.389 65.1818 127.392C65.1052 127.399 65.0276 127.403 64.9498 127.403C64.6732 127.404 64.3869 127.367 64.0986 127.289C63.8975 127.235 63.7028 127.162 63.5154 127.073C63.5101 127.07 63.5059 127.068 63.5005 127.066C62.7951 126.727 62.2598 126.117 61.9885 125.385L60.2105 120.59L59.9264 119.826L59.9317 119.828C59.9118 119.797 59.8927 119.766 59.8743 119.735Z" fill="#FFC4B8"/>
<path fill-rule="evenodd" clip-rule="evenodd" d="M62.3047 121.309C63.505 122.199 64.5147 122.747 65.3501 123.072L64.985 122.445C64.1934 122.219 63.4294 121.908 62.7048 121.517L62.3175 121.307L62.3047 121.309ZM67.6266 119.835L67.1496 117.885C67.1496 117.885 66.6083 119.334 67.6266 119.835Z" fill="#F4A48D"/>
<path fill-rule="evenodd" clip-rule="evenodd" d="M67.6618 116.221L67.663 116.226L67.7303 116.437C67.7325 116.236 67.7215 116.034 67.6977 115.835C67.6924 115.793 67.6871 115.751 67.6806 115.709C67.5823 115.039 67.3377 114.391 66.9569 113.817C66.6426 113.342 66.2349 112.917 65.7392 112.57C63.6214 111.09 60.6978 111.596 59.2088 113.702C59.1041 113.85 59.0093 114.002 58.9242 114.157C58.6119 113.843 58.1786 113.649 57.6995 113.649C56.7479 113.649 55.9766 114.416 55.9766 115.362C55.9766 116.309 56.7479 117.076 57.6995 117.076C57.9447 117.076 58.1778 117.025 58.3889 116.933C58.512 117.96 58.9758 118.942 59.7486 119.7C59.9307 119.879 60.1305 120.045 60.3469 120.196C60.4346 120.258 60.5237 120.316 60.6141 120.37L60.5061 120.08L60.5114 120.082C60.3591 119.846 60.2476 119.592 60.1772 119.33C59.988 119.246 59.8052 119.085 59.6723 118.866C59.4022 118.421 59.44 117.904 59.7567 117.711C59.9047 117.622 60.0875 117.618 60.2678 117.686C60.326 117.537 60.3983 117.392 60.4848 117.254L60.7551 116.818L61.1422 116.195C61.1066 116.501 61.1445 116.8 61.2848 117.076C61.768 118.027 65.4373 114.407 65.4373 114.407L65.5632 114.774C65.9411 115.909 67.4559 116.188 67.6618 116.221Z" fill="#EC0000"/>
<path fill-rule="evenodd" clip-rule="evenodd" d="M61.4922 125.027C61.4922 125.027 65.0914 126.964 65.2628 128.227C65.4342 129.49 64.7487 131.006 64.7487 131.006C64.7487 131.006 66.3769 140.606 68.4336 141.28L73.9182 136.059L78.5458 134.038C78.5458 134.038 75.8035 133.869 75.5464 131.343C75.2894 128.816 75.8892 127.974 72.8042 126.795C69.7191 125.616 68.048 124.227 68.048 124.227L67.2513 124.424L71.3473 126.542C71.3473 126.542 73.6611 127.89 67.6624 126.879L62.0064 124.858L61.4922 125.027Z" fill="#DEEDF2"/>
<path fill-rule="evenodd" clip-rule="evenodd" d="M62.5975 125.247C62.5975 125.247 59.1115 123.971 59.9617 128.055C60.812 132.139 65.2333 139.201 65.2333 139.201L75.6063 135.627C75.6063 135.627 78.8373 133.16 77.987 132.905C77.1368 132.649 72.6305 134.266 72.6305 134.266L66.5087 135.202L65.0632 131.118C65.0632 131.118 66.4236 130.182 65.9985 128.991C65.9943 128.979 65.99 128.967 65.9857 128.955C65.4081 127.37 64.2439 126.067 62.7337 125.316L62.5975 125.247Z" fill="#DEEDF2"/>
<path fill-rule="evenodd" clip-rule="evenodd" d="M62.1834 125.247C62.1834 125.247 58.6974 123.971 59.5477 128.055C60.3979 132.139 64.8192 139.201 64.8192 139.201L75.1923 135.627C75.1923 135.627 78.4232 133.16 77.573 132.905C76.7227 132.649 72.2164 134.266 72.2164 134.266L66.0946 135.202L64.6492 131.118C64.6492 131.118 66.0096 130.182 65.5844 128.991C65.5802 128.979 65.5759 128.967 65.5716 128.955C64.9941 127.37 63.8299 126.067 62.3196 125.316L62.1834 125.247Z" fill="#FFC4B8"/>
<path fill-rule="evenodd" clip-rule="evenodd" d="M102.085 148.507C99.7935 148.992 93.1064 148.786 92.1246 147.999C90.6221 146.795 90.9918 145.724 91.0914 145.504H91.0695C91.0695 145.504 91.9136 143.473 91.0695 141.95C91.0695 141.95 90.9851 140.089 89.2124 138.651C87.4397 137.213 85.4982 133.152 85.4982 133.152L84.4853 135.267C84.4853 135.267 82.9625 139.911 81.3831 141.972C81.0672 142.381 80.852 142.859 80.7551 143.367C80.6504 143.927 80.2891 144.631 79.1673 144.827L79.109 144.837C77.5053 145.106 75.8915 144.419 74.9703 143.076C74.2148 141.986 73.359 140.473 73.1655 138.999C73.0379 137.996 73.3386 136.986 73.9936 136.218L74.0029 136.207C75.8212 134.054 82.1251 126.647 83.1347 126.214C83.1347 126.214 87.693 121.815 89.4656 127.737C91.2383 133.659 91.8292 135.436 91.8292 135.436C91.8292 135.436 93.9488 139.23 94.5304 140.512C95.1314 141.837 97.6317 145.142 97.8858 145.476C98.1179 145.635 100.352 147.153 101.072 147.153C101.391 147.153 103.736 148.158 102.085 148.507Z" fill="#FFC4B8"/>
</svg>
