<svg width="160" height="161" viewBox="0 0 160 161" fill="none" xmlns="http://www.w3.org/2000/svg">
<path fill-rule="evenodd" clip-rule="evenodd" d="M82.5516 160.025C42.9958 160.025 10.9297 157.265 10.9297 153.86C10.9297 150.455 42.9958 147.695 82.5516 147.695C122.107 147.695 154.173 150.455 154.173 153.86C154.173 157.265 122.107 160.025 82.5516 160.025Z" fill="#DEEDF2"/>
<path fill-rule="evenodd" clip-rule="evenodd" d="M60.8284 44.6693C52.6806 53.3358 41.886 58.9921 30.1876 61.1181C23.0871 62.4084 16.293 65.7999 10.803 71.2928C-3.57646 85.6793 -3.59278 108.88 10.7673 123.286C17.102 129.641 25.1795 133.192 33.4623 133.94C40.5531 134.581 47.2154 137.677 52.135 142.828C52.1984 142.895 52.2623 142.96 52.3261 143.026C60.7186 151.594 74.2945 151.679 82.7887 143.212C82.8374 143.164 82.8857 143.115 82.9335 143.066C85.2026 140.762 88.4777 139.755 91.651 140.372C109.744 143.888 129.201 138.634 143.215 124.61C165.606 102.2 165.606 65.8015 143.215 43.3918C120.806 20.9646 84.4748 20.9648 62.0663 43.3922C61.6456 43.8131 61.2329 44.2388 60.8284 44.6693Z" fill="#DEEDF2"/>
<path fill-rule="evenodd" clip-rule="evenodd" d="M126.456 69.5012C127.669 68.61 128.457 67.1734 128.457 65.5544C128.457 62.853 126.264 60.6597 123.562 60.6597C121.068 60.6597 119.007 62.5296 118.706 64.9428C118.653 65.1942 118.615 65.4485 118.588 65.7026L118.588 65.703L118.587 65.7086L118.587 65.7106C118.579 65.7866 118.573 65.8626 118.567 65.9385L118.23 69.7155L118.997 69.9723L119.005 69.9741L119.005 69.9742C119.024 70.04 119.035 70.0755 119.035 70.0755L119.056 70.5865L119.093 71.5414C119.106 71.8574 119.172 72.1671 119.287 72.4582C119.368 72.6637 119.474 72.8606 119.604 73.0432C119.756 73.2576 119.938 73.4499 120.142 73.6124C120.248 73.6976 120.36 73.7737 120.478 73.8414C120.54 73.8774 120.602 73.9104 120.667 73.9414L120.667 73.9416L120.338 79.9075C120.338 79.9075 122.079 80.4323 123.986 80.0159C125.139 79.7663 126.353 79.1705 127.28 77.9091C127.28 77.9091 126.183 73.1565 126.456 69.5012Z" fill="#FFC4B8"/>
<path fill-rule="evenodd" clip-rule="evenodd" d="M123.968 79.9456C125.121 79.6961 126.335 79.1002 127.262 77.8388C127.262 77.8388 126.076 72.7463 126.478 69.0455C126.478 69.0455 123.78 75.6229 123.968 79.9456ZM118.999 69.994C119.268 70.0728 119.532 69.8618 119.515 69.5828L119.402 67.7837L118.999 69.994Z" fill="#F4A48D"/>
<path fill-rule="evenodd" clip-rule="evenodd" d="M125.31 66.686C125.656 66.2421 126.121 66.0157 126.519 66.1507C127.086 66.3428 127.302 67.1943 127.003 68.0509C126.899 68.3493 126.745 68.6092 126.566 68.8131C126.554 69.0691 126.55 69.3208 126.552 69.5678C127.263 68.983 127.947 68.2093 128.269 67.2891C129.271 64.4199 128.146 61.7479 124.747 60.595C122.196 59.7296 119.449 60.8103 118.231 63.0334L118.506 63.4654L118.507 63.4614L118.551 63.4496L123.125 62.1922L124.291 65.373L123.865 66.1446L121.976 69.5615C121.845 69.8007 121.651 69.9953 121.42 70.1299C121.245 70.2328 121.049 70.3024 120.842 70.3311L120.841 70.3306C120.775 70.3393 120.709 70.3449 120.641 70.3457C120.533 70.3475 120.426 70.3379 120.321 70.3185L119.456 70.1536C119.375 70.1378 119.291 70.1272 119.208 70.1196C119.057 70.1066 118.904 70.1083 118.754 70.1236C118.751 70.1241 118.748 70.1231 118.745 70.1253L118.754 70.1267C118.779 70.1926 118.792 70.2283 118.792 70.2283L118.848 70.7468L120.018 70.9248C120.048 70.9293 120.077 70.9359 120.105 70.9456C120.254 70.9962 120.372 71.1145 120.419 71.2661C120.474 71.4459 120.415 71.6389 120.271 71.7598L119.319 72.5525L119.217 72.6377C119.315 72.8424 119.44 73.0369 119.589 73.216C119.763 73.4258 119.968 73.6119 120.192 73.7664C120.309 73.8475 120.433 73.9189 120.561 73.9815L120.614 73.9554C120.666 73.9301 120.719 73.9038 120.77 73.8767C122.223 73.1357 123.419 72.0253 124.244 70.6767C124.543 70.1899 124.793 69.6719 124.987 69.1289C125.008 69.0726 125.028 69.0158 125.047 68.9572L125.047 68.9568C124.787 68.59 124.734 67.9738 124.951 67.3548L124.959 67.3328L124.961 67.3254L124.967 67.3108L124.97 67.3022L124.975 67.2888L124.978 67.28L124.983 67.2665L124.987 67.2583L124.993 67.2422L124.995 67.2367L125.004 67.216L125.007 67.2082L125.013 67.1949L125.017 67.1859L125.022 67.1738L125.026 67.1646L125.031 67.1526L125.035 67.1438L125.041 67.1307L125.045 67.1231L125.054 67.1035L125.058 67.0958L125.064 67.0833L125.068 67.0743L125.074 67.0631L125.079 67.0539L125.084 67.043L125.089 67.034L125.095 67.0225L125.099 67.0142L125.109 66.9956L125.113 66.9885L125.12 66.9763L125.124 66.9676L125.13 66.9571L125.135 66.9482L125.141 66.938L125.146 66.9291L125.153 66.9186L125.157 66.9104L125.165 66.8972L125.168 66.8923L125.172 66.8871L125.179 66.8743L125.184 66.8662L125.191 66.856L125.196 66.8476L125.203 66.8378L125.208 66.8295L125.215 66.8195L125.22 66.8117L125.228 66.8001L125.232 66.7941L125.243 66.7774L125.248 66.7704L125.255 66.7601L125.261 66.7526L125.268 66.7429L125.273 66.7354L125.28 66.7256L125.286 66.7185L125.294 66.7075L125.298 66.7019L125.31 66.686Z" fill="#9BC3D3"/>
<mask id="mask0_1483_87155" style="mask-type:luminance" maskUnits="userSpaceOnUse" x="16" y="38" width="65" height="65">
<path fill-rule="evenodd" clip-rule="evenodd" d="M80.5881 62.7236H56.3092V38.4448H41.1852V62.7236H16.9062V77.8483H41.1852V102.127H56.3092V77.8483H80.5881V62.7236Z" fill="white"/>
</mask>
<g mask="url(#mask0_1483_87155)">
<path fill-rule="evenodd" clip-rule="evenodd" d="M80.5881 62.7236H56.3092V38.4448H41.1852V62.7236H16.9062V77.8483H41.1852V102.127H56.3092V77.8483H80.5881V62.7236Z" fill="#9BC3D3"/>
</g>
<path fill-rule="evenodd" clip-rule="evenodd" d="M48.7475 24.0342C23.2447 24.0342 2.49609 44.7828 2.49609 70.2861C2.49609 95.7895 23.2447 116.538 48.7475 116.538C74.2522 116.538 95.0007 95.7895 95.0007 70.2861C95.0007 44.7828 74.2522 24.0342 48.7475 24.0342ZM0.4375 70.286C0.4375 43.6473 22.109 21.9751 48.7469 21.9751C75.3866 21.9751 97.0581 43.6473 97.0581 70.286C97.0581 96.9246 75.3866 118.597 48.7469 118.597C22.109 118.597 0.4375 96.9246 0.4375 70.286Z" fill="#9BC3D3"/>
<path fill-rule="evenodd" clip-rule="evenodd" d="M133.642 151.32H137.646L137.812 155.259L132.994 155.672H129.472L130.127 153.846L130.84 153.389L133.642 151.32Z" fill="#CEDEE7"/>
<path fill-rule="evenodd" clip-rule="evenodd" d="M101.003 153.859H103.963L104.086 156.813L100.525 157.123H97.921L98.4055 155.753L98.932 155.41L101.003 153.859Z" fill="#CEDEE7"/>
<path fill-rule="evenodd" clip-rule="evenodd" d="M122.256 149.204L118.811 152.89L119.463 154.549L127.173 152.198L125.765 148.522L122.256 149.204Z" fill="#CEDEE7"/>
<path fill-rule="evenodd" clip-rule="evenodd" d="M92.0072 151.683L88.4658 153.947L88.6286 155.446L95.2852 155.201L94.953 151.889L92.0072 151.683Z" fill="#CEDEE7"/>
<path fill-rule="evenodd" clip-rule="evenodd" d="M99.9472 74.4922C101.095 73.6491 101.84 72.2902 101.84 70.7586C101.84 68.2032 99.7651 66.1284 97.2096 66.1284C94.85 66.1284 92.9003 67.8973 92.6153 70.1801C92.5655 70.418 92.5292 70.6585 92.5043 70.8989L92.5042 70.8993L92.5034 70.9046L92.5033 70.9064C92.4959 70.9784 92.4895 71.0503 92.484 71.122L92.1651 74.6949L92.891 74.9379L92.8986 74.9396L92.8986 74.9396C92.9166 75.0019 92.9266 75.0355 92.9266 75.0355L92.9463 75.5188L92.982 76.4222C92.9943 76.7211 93.0568 77.0141 93.1657 77.2895C93.2417 77.4839 93.3422 77.6701 93.4651 77.8429C93.6093 78.0456 93.7816 78.2276 93.9739 78.3813C94.0741 78.4619 94.1806 78.5338 94.2919 78.5979C94.3508 78.6319 94.4095 78.6632 94.4705 78.6925L94.4709 78.6927L94.1591 84.3363C94.1591 84.3363 95.8066 84.8327 97.6107 84.4388C98.7012 84.2027 99.85 83.639 100.726 82.4458C100.726 82.4458 99.689 77.95 99.9472 74.4922Z" fill="#FFC4B8"/>
<path fill-rule="evenodd" clip-rule="evenodd" d="M97.5953 84.372C98.6859 84.1359 99.8346 83.5722 100.711 82.379C100.711 82.379 99.589 77.5617 99.9693 74.0608C99.9693 74.0608 97.4172 80.2828 97.5953 84.372ZM92.8943 74.9581C93.1484 75.0326 93.3986 74.833 93.382 74.569L93.2752 72.8672L92.8943 74.9581Z" fill="#F4A48D"/>
<path fill-rule="evenodd" clip-rule="evenodd" d="M97.4697 90.5969C102.827 90.7169 108.294 89.471 108.316 84.7957C108.342 79.3263 104.821 71.095 103.555 68.4146C102.674 66.5517 100.047 63.9114 95.9154 64.7851C95.2554 64.9247 94.297 65.4252 93.8479 65.8852C93.8209 65.9127 93.7939 65.9396 93.7666 65.9658C91.8173 66.2535 90.2526 67.8467 90.091 69.8823C90.0738 70.0998 90.0732 70.3149 90.0881 70.5263C90.0517 73.3854 89.9511 84.9097 90.6553 87.5303C91.0263 88.9108 95.1304 90.5445 97.4697 90.5969ZM95.6973 84.5266C95.1218 84.4666 94.6056 84.3833 94.1668 84.2693L94.4785 78.6258L94.4781 78.6255C94.4172 78.5962 94.3583 78.565 94.2995 78.531C94.1883 78.4669 94.0818 78.395 93.9816 78.3143C93.7892 78.1607 93.617 77.9787 93.4727 77.7759C93.3499 77.6031 93.2494 77.417 93.1734 77.2226C93.0645 76.9471 93.0019 76.6542 92.9897 76.3553L92.954 75.4519L92.9343 74.9685C92.9343 74.9685 92.9242 74.9349 92.9063 74.8728L92.8986 74.871L92.1728 74.628L92.4916 71.055C92.4972 70.9834 92.5035 70.9114 92.5109 70.8395L92.5111 70.8376L92.5119 70.8323V70.8319C92.5368 70.5915 92.5731 70.351 92.623 70.1131C92.6796 69.6598 92.8018 69.2266 92.9799 68.8237C93.3879 68.2003 93.8897 67.6591 95.6748 67.6696C97.8713 67.6828 98.6877 68.8562 99.0462 69.638C99.3749 70.3547 99.4929 71.2006 99.4929 71.2006L99.4936 71.2023L99.5159 71.3312L99.5194 71.3514L99.5229 71.3709C99.9081 70.8544 100.434 70.6012 100.783 70.7972C101.115 70.9842 101.182 71.5211 100.979 72.0883C100.949 72.1954 100.91 72.3037 100.859 72.4112L100.85 72.4298L100.848 72.435L100.841 72.4492L100.838 72.454L100.829 72.4721L100.827 72.4754L100.82 72.4904L100.817 72.4959L100.809 72.5101L100.807 72.514C100.61 72.8772 100.325 73.1385 100.043 73.2406C100.024 73.2501 100.006 73.2589 99.9871 73.2672C99.9871 73.2672 99.9508 74.3749 99.9408 74.4534C99.5522 77.4869 100.638 81.9564 100.719 82.3953C99.93 83.4279 98.901 84.1694 97.1425 84.4681C96.6135 84.5381 96.1026 84.543 95.6973 84.5266Z" fill="#34466B"/>
<path fill-rule="evenodd" clip-rule="evenodd" d="M92.4171 82.8263C92.6664 82.9586 92.9299 83.0644 93.2076 83.1437C93.9004 83.3416 94.9884 83.4625 96.4714 83.5063L100.472 82.3211C100.856 82.2073 101.259 82.4264 101.373 82.8104C101.39 82.8685 101.4 82.9285 101.402 82.989L102.245 105.237C102.26 105.638 101.948 105.974 101.548 105.99C101.539 105.99 101.53 105.99 101.52 105.99H91.4167C91.0161 105.99 90.6914 105.665 90.6914 105.265C90.6914 105.258 90.6915 105.25 90.6917 105.243L91.3523 83.445C91.3644 83.0447 91.6988 82.7299 92.0992 82.7421C92.2102 82.7454 92.319 82.7742 92.4171 82.8263Z" fill="#CCCCCC"/>
<path fill-rule="evenodd" clip-rule="evenodd" d="M74.0456 92.3015C74.0456 92.3015 72.9892 91.9698 72.9033 91.3438C72.8311 90.811 72.3532 90.1759 72.206 89.9794C72.0095 89.7171 71.7071 88.6881 71.3735 88.9321C71.0409 89.1761 71.792 90.6529 71.8871 90.9947C71.983 91.3356 70.5373 90.6867 70.18 90.7754C69.8227 90.8649 68.8832 93.3196 69.9269 93.6504C70.9696 93.9812 72.3029 93.6458 72.4747 93.7399C72.6465 93.835 73.2241 94.0114 73.2241 94.0114L74.0456 92.3015Z" fill="#FFC4B8"/>
<path fill-rule="evenodd" clip-rule="evenodd" d="M70.441 90.7956C70.441 90.7956 67.1794 89.995 66.9172 90.1239C66.6549 90.2528 66.622 90.4319 66.9236 90.5196C67.226 90.6064 70.0526 91.3841 70.0526 91.3841C70.0526 91.3841 66.0335 91.0853 65.7959 91.1438C65.6569 91.1776 65.572 91.5212 65.7291 91.5824C65.8863 91.6446 69.8534 92.1682 69.8534 92.1682C69.8534 92.1682 66.1002 91.8968 65.9156 92.0046C65.7547 92.0988 65.7566 92.4332 66.0335 92.4725C66.3104 92.5127 69.7794 92.9614 69.7794 92.9614C69.7794 92.9614 67.035 92.9358 66.9336 93.1186C66.8715 93.231 66.7846 93.5244 67.4929 93.5088C68.2011 93.4933 69.8762 93.6331 69.8762 93.6331L70.441 90.7956Z" fill="#FFC4B8"/>
<path fill-rule="evenodd" clip-rule="evenodd" d="M122.065 78.0669C122.065 78.0669 117.782 78.9524 117.274 79.403C116.723 79.8818 115.75 84.5717 115.692 85.8786C115.634 87.1854 116.208 92.6429 116.76 94.6754C117.312 96.7087 116.543 104.397 116.195 107.214C116.195 107.214 126.663 110.804 135.142 109.701C135.142 109.701 132.541 100.35 132.881 97.5641C133.315 93.9964 134.362 85.7762 134.362 85.7762C134.362 85.7762 134.619 80.4767 133.865 79.838C133.11 79.1992 126.9 78.0669 126.9 78.0669H122.065Z" fill="#34466B"/>
<path fill-rule="evenodd" clip-rule="evenodd" d="M102.026 103.771C102.026 103.771 104.237 106.645 104.836 110.054C105.436 113.464 104.483 124.907 104.508 126.592C104.535 128.278 106.102 132.471 105.789 135.645C105.475 138.82 104.238 154.62 104.238 154.62L100.851 153.947C100.851 153.947 101.047 137.84 100.851 136.508C100.655 135.175 100.262 130.318 100.183 129.77C100.104 129.221 95.207 114.814 95.207 112.355C95.207 109.898 96.6966 99.7606 102.026 103.771Z" fill="#34466B"/>
<path fill-rule="evenodd" clip-rule="evenodd" d="M90.9232 104.895C90.9232 104.895 87.2915 118.754 86.8602 120.675C86.4289 122.595 85.8047 124.179 85.8047 124.994C85.8047 126.886 86.5074 129.923 86.5074 129.923L91.1188 151.979H95.5108C95.5108 151.979 93.0644 138.748 92.9986 136.159C92.9319 133.567 90.936 129.884 91.3281 128.787C91.7201 127.69 97.6373 115.031 97.6373 115.031C97.6373 115.031 102.118 100.871 90.9232 104.895Z" fill="#34466B"/>
<path fill-rule="evenodd" clip-rule="evenodd" d="M118.351 79.0693C118.351 79.0693 116.433 79.466 115.504 80.802C114.575 82.1372 114.275 85.4572 114.275 85.9215C114.275 86.3866 114.101 93.4133 113.927 94.1681C113.752 94.923 113.781 97.4196 114.449 99.7134C115.117 102.007 116.04 108.145 116.04 108.145L118.05 107.321L117.327 94.1992L118.351 79.0693Z" fill="#FFC4B8"/>
<path fill-rule="evenodd" clip-rule="evenodd" d="M117.006 106.276L115.184 108.307L115.764 110.766L117.006 106.276Z" fill="#34466B"/>
<path fill-rule="evenodd" clip-rule="evenodd" d="M124.148 108.138C124.148 108.138 125.496 115.392 126.194 117.367C126.89 119.341 127.819 126.077 127.819 126.736C127.819 127.394 128.981 132.775 129.213 133.86C129.445 134.943 132.194 151.9 132.194 151.9C132.194 151.9 136.297 152.558 137.924 151.9C137.924 151.9 136.878 137.615 136.762 135.601C136.646 133.588 135.523 127.782 135.175 126.271C134.827 124.761 135.137 112.702 134.072 108.279C133.007 103.856 124.148 108.138 124.148 108.138Z" fill="#34466B"/>
<path fill-rule="evenodd" clip-rule="evenodd" d="M116.594 106.566C116.594 106.566 115.731 110.321 115.427 110.824C115.123 111.328 111.678 122.71 111.444 124.065C111.212 125.419 110.322 127.007 110.98 128.362C111.638 129.717 116.826 141.757 117.252 142.454C117.678 143.151 120.988 149.708 120.988 149.708C120.988 149.708 124.524 151.049 126.188 148.92C126.188 148.92 122.246 137.499 121.511 135.369C120.775 133.24 118.49 129.407 118.374 127.782C118.258 126.155 122.44 117.832 123.214 116.128C123.988 114.425 127.357 107.96 127.357 107.96C127.357 107.96 127.163 102.618 116.594 106.566Z" fill="#34466B"/>
<path fill-rule="evenodd" clip-rule="evenodd" d="M118.573 78.9893C118.573 78.9893 115.235 79.1181 114.325 83.0093C113.416 86.8996 113.511 87.4324 113.511 87.4324L118.109 88.2448C118.109 88.2448 120.142 80.8837 118.573 78.9893Z" fill="#34466B"/>
<path fill-rule="evenodd" clip-rule="evenodd" d="M118.074 97.1948L128.115 111.48L137.284 105.036L127.601 90.498L118.074 97.1948Z" fill="#767676"/>
<path fill-rule="evenodd" clip-rule="evenodd" d="M119.168 97.6188L128.086 110.307L136.23 104.583L127.63 91.6714L119.168 97.6188Z" fill="#DEEDF2"/>
<path fill-rule="evenodd" clip-rule="evenodd" d="M121.911 96.1634L121.285 95.2724L124.578 92.9585L125.332 93.759L121.911 96.1634Z" fill="#767676"/>
<path fill-rule="evenodd" clip-rule="evenodd" d="M122.858 106.813C122.858 106.813 123.253 106.78 123.42 106.681C123.42 106.681 123.708 106.477 123.921 106.346C123.989 106.304 124.049 106.269 124.091 106.251C124.262 106.173 124.663 106.055 125.024 105.753C125.384 105.453 126.605 103.755 126.605 103.755L125.874 102.835L125.313 101.875C125.313 101.875 122.47 102.315 122.102 102.556C122.066 102.58 122.032 102.605 122.001 102.631C121.709 102.866 121.59 103.163 121.451 103.303C121.4 103.355 120.929 103.907 120.967 104.119C121.018 104.416 121.173 104.6 121.363 104.681C121.363 104.681 121.488 105.257 121.799 105.503C121.799 105.503 121.898 106.037 122.372 106.232C122.372 106.232 122.533 106.763 122.858 106.813Z" fill="#FFC4B8"/>
<path fill-rule="evenodd" clip-rule="evenodd" d="M131.829 79.9493C131.268 80.1668 129.373 80.5826 129.604 83.4723C129.834 86.361 130.852 87.6897 131.231 88.3578C131.611 89.0267 133.697 93.1455 133.323 93.6874C132.947 94.2293 129.404 97.7248 129.199 98.009C128.995 98.2941 124.859 102.085 124.859 102.085L126.449 103.971C126.449 103.971 135.594 98.0172 136.261 97.351C136.927 96.6848 139.029 95.6549 138.152 93.3767C137.276 91.0984 136.087 85.0569 135.849 84.6237C135.609 84.1915 135.542 78.5118 131.829 79.9493Z" fill="#FFC4B8"/>
<path fill-rule="evenodd" clip-rule="evenodd" d="M130.469 79.0396C130.469 79.0396 128.288 80.7951 129.262 84.7019C130.236 88.6086 130.575 89.3872 130.575 89.3872L137.173 87.5897C137.173 87.5897 136.693 80.5758 133.125 79.3741C133.125 79.3741 131.044 78.7791 130.469 79.0396Z" fill="#34466B"/>
<path fill-rule="evenodd" clip-rule="evenodd" d="M120.585 76.2534V76.6161L119.762 77.0934L119.324 76.9113L120.585 76.2534Z" fill="#CCCCCC"/>
<path fill-rule="evenodd" clip-rule="evenodd" d="M126.932 75.1191V75.7323C125.956 76.8754 125.119 77.7901 124.423 78.4765C123.378 79.5055 124.754 77.2511 124.754 77.2511C124.754 77.2511 125.48 76.5404 126.932 75.1191Z" fill="#CCCCCC"/>
<path fill-rule="evenodd" clip-rule="evenodd" d="M127.294 77.8852C127.225 77.5851 127.112 77.1599 127.112 77.1599C127.112 77.1599 126.344 78.2776 124.642 80.7224L125.48 81.3303C126.735 79.2336 127.339 78.0852 127.294 77.8852Z" fill="#CCCCCC"/>
<path fill-rule="evenodd" clip-rule="evenodd" d="M125.296 113.827C125.296 113.827 124.878 112.747 124.254 114.002C124.254 114.002 123.544 111.783 124.803 111.481C126.061 111.178 125.296 113.827 125.296 113.827Z" fill="#34466B"/>
<path fill-rule="evenodd" clip-rule="evenodd" d="M119.558 80.4448C119.558 80.4448 121.532 80.7401 125.48 81.3305C124.57 79.9892 124.396 78.6822 124.957 77.4094C124.957 77.4094 122.576 76.7756 119.322 76.9111C119.322 76.9111 118.299 78.3159 119.558 80.4448Z" fill="#CCCCCC"/>
<path d="M89.9903 83.0466C88.859 84.2584 87.7971 86.1912 87.5001 86.8382C87.204 87.4843 83.0505 93.4755 82.8357 93.6099C82.6201 93.7451 80.8042 93.2681 79.3503 93.1465C76.977 92.9492 73.4257 91.7392 73.4257 91.7392L72.8984 94.4214C72.8984 94.4214 81.6313 97.2397 83.6463 96.7435C85.2888 96.3383 88.0012 93.7098 91.7833 88.8578L92.6625 86.77L94.113 83.3249C93.3008 82.7753 92.6964 82.4731 92.2998 82.4183C91.2343 82.2708 90.2243 82.7958 89.9903 83.0466Z" fill="#EAF7FE"/>
<path d="M91.5341 93.2333C91.5341 98.8535 91.3557 108.009 90.5841 110.9C89.8115 113.791 87.6133 122.733 87.6133 122.733L85.8906 121.929C85.8906 121.929 90.0335 107.659 90.3458 106.63C90.6591 105.601 90.1086 94.7311 89.8115 93.8209C89.5144 92.9107 88.251 88.8586 88.4477 87.7346C88.6951 86.3181 89.5503 84.4021 91.9259 82.5996L93.8688 83.4589C92.3123 86.2283 91.5341 89.4864 91.5341 93.2333Z" fill="#EAF7FE"/>
<path d="M97.2925 89.9611C96.6646 95.0421 99.2198 118.628 100.933 123.982L107.572 122.911C107.572 122.911 106.143 106.24 104.203 103.206C102.263 100.172 101.646 97.4876 103.74 91.1546C105.834 84.8224 102.822 81.6862 102.822 81.6862C102.822 81.6862 101.042 81.3963 100.459 81.3306C98.7667 83.6969 97.711 86.5737 97.2925 89.9611Z" fill="#EAF7FE"/>
<path fill-rule="evenodd" clip-rule="evenodd" d="M100.41 111.317L109.358 106.15L101.658 92.0054L92.3594 97.3743L100.41 111.317Z" fill="#767676"/>
<path fill-rule="evenodd" clip-rule="evenodd" d="M93.3281 97.854L100.477 110.237L108.425 105.648L101.587 93.0854L93.3281 97.854Z" fill="#DEEDF2"/>
<path fill-rule="evenodd" clip-rule="evenodd" d="M95.9666 96.7408L95.4648 95.8717L98.678 94.0166L99.3049 94.8135L95.9666 96.7408Z" fill="#767676"/>
<path fill-rule="evenodd" clip-rule="evenodd" d="M96.536 107.422C96.536 107.422 96.9016 107.424 97.0624 107.347C97.0624 107.347 97.3439 107.184 97.5504 107.08C97.6162 107.048 97.6738 107.02 97.7131 107.007C97.8776 106.95 98.255 106.874 98.6105 106.627C98.9669 106.381 100.227 104.921 100.227 104.921L99.6313 104.016L99.1954 103.089C99.1954 103.089 96.5488 103.26 96.1906 103.452C96.1559 103.47 96.1221 103.49 96.0919 103.511C95.804 103.703 95.6706 103.966 95.5317 104.084C95.4805 104.128 95.0035 104.595 95.0199 104.794C95.0428 105.07 95.1707 105.252 95.3371 105.342C95.3371 105.342 95.4056 105.882 95.6706 106.132C95.6706 106.132 95.7181 106.631 96.1367 106.849C96.1367 106.849 96.2418 107.35 96.536 107.422Z" fill="#FFC4B8"/>
<path d="M101.442 81.7031C101.442 81.7031 103.887 81.0027 105.288 83.6964C106.688 86.3904 106.681 87.5392 106.869 88.8551C107.045 90.097 107.843 93.4875 107.924 93.8375C108.004 94.1884 109.812 98.3638 108.983 99.8232C108.15 101.291 99.6893 105.609 99.7432 105.931C99.7971 106.255 98.2773 102.667 98.2773 102.667C98.2773 102.667 101.702 100.759 102.262 100.171C103.173 99.2164 105.094 98.1884 104.699 97.0049C104.236 95.614 102.843 90.9223 102.519 90.235C102.196 89.5478 99.3813 82.5785 101.442 81.7031Z" fill="#EAF7FE"/>
</svg>
