<svg width="160" height="160" viewBox="0 0 160 160" fill="none" xmlns="http://www.w3.org/2000/svg">
<path fill-rule="evenodd" clip-rule="evenodd" d="M82.5398 149.05C42.9841 149.05 10.918 146.29 10.918 142.885C10.918 139.48 42.9841 136.72 82.5398 136.72C122.096 136.72 154.162 139.48 154.162 142.885C154.162 146.29 122.096 149.05 82.5398 149.05Z" fill="#DEEDF2"/>
<path fill-rule="evenodd" clip-rule="evenodd" d="M60.8205 33.6942C52.6728 42.3607 41.8782 48.017 30.1798 50.143C23.0793 51.4333 16.2852 54.8248 10.7952 60.3177C-3.58427 74.7042 -3.60059 97.9046 10.7595 112.311C17.0942 118.666 25.1717 122.217 33.4544 122.965C40.5453 123.606 47.2075 126.702 52.1272 131.853C52.1906 131.919 52.2544 131.985 52.3183 132.051C60.7108 140.619 74.2867 140.704 82.7809 132.237C82.8296 132.189 82.8779 132.14 82.9257 132.091C85.1947 129.787 88.4698 128.78 91.6432 129.397C109.736 132.913 129.194 127.659 143.207 113.635C165.598 91.2252 165.598 54.8264 143.207 32.4167C120.798 9.98955 84.4669 9.98969 62.0585 32.4171C61.6378 32.838 61.2251 33.2637 60.8205 33.6942Z" fill="#DEEDF2"/>
<path fill-rule="evenodd" clip-rule="evenodd" d="M126.448 58.5261C127.661 57.6349 128.449 56.1983 128.449 54.5793C128.449 51.8779 126.256 49.6846 123.555 49.6846C121.06 49.6846 118.999 51.5545 118.698 53.9677C118.645 54.2192 118.607 54.4734 118.58 54.7275L118.58 54.7279L118.58 54.7335L118.579 54.7355C118.572 54.8115 118.565 54.8875 118.559 54.9634L118.222 58.7404L118.989 58.9972L118.997 58.999L118.997 58.9991C119.016 59.0649 119.027 59.1004 119.027 59.1004L119.048 59.6114L119.085 60.5663C119.098 60.8823 119.165 61.192 119.28 61.4831C119.36 61.6887 119.466 61.8855 119.596 62.0681C119.749 62.2825 119.931 62.4748 120.134 62.6373C120.24 62.7225 120.352 62.7986 120.47 62.8663C120.532 62.9023 120.594 62.9353 120.659 62.9663L120.659 62.9665L120.33 68.9324C120.33 68.9324 122.071 69.4572 123.979 69.0408C125.131 68.7912 126.346 68.1954 127.272 66.934C127.272 66.934 126.176 62.1814 126.448 58.5261Z" fill="#FFC4B8"/>
<path fill-rule="evenodd" clip-rule="evenodd" d="M123.96 68.9705C125.113 68.7209 126.328 68.125 127.254 66.8637C127.254 66.8637 126.068 61.7712 126.47 58.0703C126.47 58.0703 123.772 64.6477 123.96 68.9705ZM118.99 59.0189C119.259 59.0977 119.523 58.8867 119.506 58.6077L119.393 56.8086L118.99 59.0189Z" fill="#F4A48D"/>
<path fill-rule="evenodd" clip-rule="evenodd" d="M125.303 55.7114C125.648 55.2675 126.114 55.0411 126.512 55.1761C127.078 55.3682 127.295 56.2197 126.995 57.0763C126.891 57.3747 126.738 57.6346 126.558 57.8385C126.546 58.0945 126.542 58.3462 126.544 58.5932C127.255 58.0084 127.939 57.2347 128.261 56.3145C129.264 53.4453 128.138 50.7733 124.739 49.6204C122.188 48.755 119.441 49.8356 118.223 52.0588L118.498 52.4908L118.499 52.4868L118.543 52.475L123.117 51.2176L124.283 54.3984L123.857 55.17L121.968 58.5869C121.837 58.8261 121.643 59.0206 121.413 59.1552C121.237 59.2582 121.042 59.3278 120.834 59.3565L120.833 59.356C120.767 59.3647 120.701 59.3703 120.633 59.3711C120.525 59.3729 120.419 59.3632 120.314 59.3439L119.448 59.179C119.367 59.1632 119.283 59.1525 119.2 59.145C119.049 59.132 118.897 59.1337 118.746 59.149C118.743 59.1495 118.74 59.1485 118.738 59.1507L118.746 59.1521C118.771 59.218 118.784 59.2537 118.784 59.2537L118.84 59.7722L120.01 59.9501C120.041 59.9546 120.069 59.9612 120.097 59.971C120.247 60.0216 120.364 60.1399 120.411 60.2915C120.466 60.4712 120.408 60.6643 120.263 60.7851L119.311 61.5779L119.209 61.6631C119.307 61.8678 119.432 62.0623 119.581 62.2414C119.755 62.4512 119.96 62.6373 120.184 62.7918C120.301 62.8729 120.425 62.9443 120.553 63.0069L120.606 62.9808C120.658 62.9555 120.712 62.9292 120.762 62.9021C122.215 62.1611 123.411 61.0507 124.236 59.7021C124.535 59.2153 124.785 58.6973 124.979 58.1543C125 58.098 125.02 58.0412 125.039 57.9826L125.039 57.9822C124.78 57.6154 124.727 56.9992 124.943 56.3802L124.951 56.3582L124.953 56.3508L124.959 56.3362L124.962 56.3276L124.967 56.3142L124.97 56.3054L124.976 56.2919L124.979 56.2836L124.985 56.2676L124.988 56.2621L124.996 56.2414L124.999 56.2336L125.005 56.2203L125.009 56.2113L125.014 56.1992L125.018 56.19L125.024 56.178L125.028 56.1691L125.034 56.1561L125.037 56.1485L125.046 56.1289L125.05 56.1212L125.056 56.1087L125.061 56.0997L125.066 56.0885L125.071 56.0793L125.076 56.0684L125.081 56.0594L125.087 56.0479L125.091 56.0396L125.101 56.021L125.105 56.0139L125.112 56.0017L125.117 55.993L125.123 55.9825L125.128 55.9736L125.133 55.9633L125.139 55.9545L125.145 55.944L125.15 55.9357L125.158 55.9225L125.161 55.9176L125.164 55.9124L125.172 55.8997L125.177 55.8916L125.183 55.8814L125.188 55.873L125.195 55.8632L125.2 55.8549L125.207 55.8449L125.212 55.8371L125.22 55.8255L125.224 55.8195L125.235 55.8028L125.24 55.7958L125.248 55.7855L125.253 55.7779L125.26 55.7683L125.265 55.7608L125.273 55.751L125.278 55.7439L125.286 55.7329L125.29 55.7273L125.303 55.7114Z" fill="#9BC3D3"/>
<mask id="mask0_1487_20078" style="mask-type:luminance" maskUnits="userSpaceOnUse" x="16" y="27" width="65" height="65">
<path fill-rule="evenodd" clip-rule="evenodd" d="M80.5803 51.7485H56.3013V27.4697H41.1773V51.7485H16.8984V66.8732H41.1773V91.1519H56.3013V66.8732H80.5803V51.7485Z" fill="white"/>
</mask>
<g mask="url(#mask0_1487_20078)">
<path fill-rule="evenodd" clip-rule="evenodd" d="M80.5803 51.7485H56.3013V27.4697H41.1773V51.7485H16.8984V66.8732H41.1773V91.1519H56.3013V66.8732H80.5803V51.7485Z" fill="#9BC3D3"/>
</g>
<path fill-rule="evenodd" clip-rule="evenodd" d="M48.7394 13.0589C23.2366 13.0589 2.48797 33.8075 2.48797 59.3109C2.48797 84.8142 23.2366 105.563 48.7394 105.563C74.244 105.563 94.9926 84.8142 94.9926 59.3109C94.9926 33.8075 74.244 13.0589 48.7394 13.0589ZM0.429688 59.3109C0.429688 32.6722 22.1012 11 48.7391 11C75.3788 11 97.0503 32.6722 97.0503 59.3109C97.0503 85.9495 75.3788 107.622 48.7391 107.622C22.1012 107.622 0.429688 85.9495 0.429688 59.3109Z" fill="#9BC3D3"/>
<path fill-rule="evenodd" clip-rule="evenodd" d="M133.634 140.345H137.638L137.805 144.283L132.986 144.697H129.464L130.119 142.871L130.832 142.414L133.634 140.345Z" fill="#CEDEE7"/>
<path fill-rule="evenodd" clip-rule="evenodd" d="M100.996 142.884H103.955L104.078 145.837L100.517 146.148H97.9132L98.3976 144.778L98.9242 144.435L100.996 142.884Z" fill="#CEDEE7"/>
<path fill-rule="evenodd" clip-rule="evenodd" d="M122.249 138.229L118.803 141.915L119.455 143.574L127.166 141.223L125.757 137.547L122.249 138.229Z" fill="#CEDEE7"/>
<path fill-rule="evenodd" clip-rule="evenodd" d="M91.9994 140.708L88.458 142.972L88.6208 144.471L95.2774 144.226L94.9451 140.914L91.9994 140.708Z" fill="#CEDEE7"/>
<path fill-rule="evenodd" clip-rule="evenodd" d="M99.9355 63.5171C101.083 62.674 101.828 61.3151 101.828 59.7835C101.828 57.2281 99.7534 55.1533 97.1979 55.1533C94.8383 55.1533 92.8886 56.9222 92.6036 59.205C92.5537 59.4429 92.5175 59.6834 92.4926 59.9238L92.4925 59.9242L92.4917 59.9295L92.4916 59.9313C92.4842 60.0033 92.4778 60.0752 92.4723 60.1469L92.1534 63.7198L92.8793 63.9628L92.8868 63.9645L92.8869 63.9645C92.9049 64.0268 92.9149 64.0604 92.9149 64.0604L92.9346 64.5437L92.9703 65.4471C92.9826 65.746 93.0451 66.039 93.154 66.3144C93.23 66.5088 93.3305 66.695 93.4533 66.8678C93.5976 67.0706 93.7698 67.2525 93.9622 67.4062C94.0624 67.4868 94.1689 67.5587 94.2802 67.6228C94.339 67.6568 94.3978 67.6881 94.4588 67.7174L94.4592 67.7176L94.1474 73.3612C94.1474 73.3612 95.7949 73.8576 97.599 73.4637C98.6894 73.2276 99.8382 72.6639 100.715 71.4707C100.715 71.4707 99.6773 66.9749 99.9355 63.5171Z" fill="#FFC4B8"/>
<path fill-rule="evenodd" clip-rule="evenodd" d="M97.5836 73.3968C98.6742 73.1608 99.8229 72.5971 100.699 71.4039C100.699 71.4039 99.5773 66.5865 99.9576 63.0856C99.9576 63.0856 97.4055 69.3077 97.5836 73.3968ZM92.8814 63.983C93.1355 64.0575 93.3857 63.8579 93.3691 63.5939L93.2622 61.8921L92.8814 63.983Z" fill="#F4A48D"/>
<path fill-rule="evenodd" clip-rule="evenodd" d="M97.458 79.6218C102.815 79.7418 108.282 78.4959 108.305 73.8206C108.331 68.3512 104.81 60.1199 103.543 57.4395C102.662 55.5766 100.035 52.9363 95.9037 53.81C95.2437 53.9496 94.2853 54.4501 93.8362 54.9101C93.8092 54.9376 93.7822 54.9645 93.7549 54.9907C91.8055 55.2784 90.2409 56.8716 90.0793 58.9072C90.062 59.1247 90.0615 59.3398 90.0764 59.5512C90.04 62.4103 89.9394 73.9346 90.6436 76.5552C91.0145 77.9357 95.1186 79.5694 97.458 79.6218ZM95.6838 73.5515C95.1082 73.4915 94.592 73.4081 94.1532 73.2942L94.4649 67.6506L94.4645 67.6504C94.4036 67.6211 94.3448 67.5899 94.2859 67.5558C94.1747 67.4918 94.0682 67.4198 93.968 67.3392C93.7756 67.1855 93.6034 67.0036 93.4591 66.8008C93.3363 66.628 93.2359 66.4418 93.1598 66.2474C93.0509 65.972 92.9884 65.679 92.9761 65.3801L92.9404 64.4768L92.9207 63.9934C92.9207 63.9934 92.9106 63.9598 92.8927 63.8976L92.885 63.8958L92.1592 63.6529L92.4781 60.0799C92.4836 60.0082 92.4899 59.9363 92.4974 59.8644L92.4975 59.8624L92.4983 59.8572V59.8568C92.5233 59.6163 92.5595 59.3759 92.6094 59.138C92.666 58.6846 92.7883 58.2515 92.9663 57.8486C93.3743 57.2252 93.8761 56.684 95.6612 56.6945C97.8577 56.7077 98.6741 57.8811 99.0326 58.6629C99.3614 59.3796 99.4794 60.2254 99.4794 60.2254L99.48 60.2272L99.5024 60.3561L99.5058 60.3763L99.5093 60.3957C99.8945 59.8793 100.421 59.6261 100.769 59.8221C101.101 60.0091 101.169 60.546 100.965 61.1132C100.936 61.2202 100.896 61.3285 100.845 61.436L100.837 61.4546L100.834 61.4599L100.827 61.4741L100.825 61.4789L100.816 61.4969L100.814 61.5002L100.806 61.5153L100.803 61.5208L100.796 61.535L100.793 61.5388C100.597 61.9021 100.312 62.1634 100.029 62.2655C100.011 62.275 99.992 62.2838 99.9735 62.2921C99.9735 62.2921 99.9373 63.3997 99.9272 63.4783C99.5387 66.5118 100.625 70.9812 100.705 71.4202C99.9164 72.4528 98.8874 73.1943 97.1289 73.4929C96.5999 73.563 96.089 73.5678 95.6838 73.5515Z" fill="#34466B"/>
<path fill-rule="evenodd" clip-rule="evenodd" d="M92.4093 71.8512C92.6586 71.9835 92.9221 72.0893 93.1998 72.1686C93.8926 72.3666 94.9805 72.4874 96.4636 72.5312L100.464 71.346C100.848 71.2322 101.251 71.4513 101.365 71.8353C101.382 71.8934 101.392 71.9534 101.395 72.0139L102.237 94.2623C102.252 94.6626 101.94 94.9994 101.54 95.0145C101.531 95.0149 101.522 95.0151 101.513 95.0151H91.4089C91.0083 95.0151 90.6836 94.6903 90.6836 94.2898C90.6836 94.2825 90.6837 94.2751 90.6839 94.2678L91.3445 72.4699C91.3566 72.0696 91.691 71.7548 92.0914 71.767C92.2024 71.7703 92.3112 71.7992 92.4093 71.8512Z" fill="#CCCCCC"/>
<path fill-rule="evenodd" clip-rule="evenodd" d="M74.0417 81.3264C74.0417 81.3264 72.9853 80.9947 72.8994 80.3687C72.8272 79.8359 72.3492 79.2008 72.2021 79.0043C72.0056 78.742 71.7031 77.713 71.3696 77.957C71.0369 78.201 71.7881 79.6778 71.8832 80.0196C71.9791 80.3605 70.5334 79.7116 70.1761 79.8003C69.8188 79.8899 68.8793 82.3445 69.923 82.6753C70.9657 83.0061 72.299 82.6707 72.4708 82.7649C72.6426 82.8599 73.2202 83.0363 73.2202 83.0363L74.0417 81.3264Z" fill="#FFC4B8"/>
<path fill-rule="evenodd" clip-rule="evenodd" d="M70.4371 79.8205C70.4371 79.8205 67.1755 79.02 66.9133 79.1488C66.651 79.2777 66.6181 79.4568 66.9196 79.5445C67.2221 79.6313 70.0487 80.409 70.0487 80.409C70.0487 80.409 66.0296 80.1102 65.7919 80.1687C65.653 80.2025 65.5681 80.5461 65.7252 80.6073C65.8824 80.6695 69.8495 81.1931 69.8495 81.1931C69.8495 81.1931 66.0963 80.9217 65.9117 81.0295C65.7508 81.1237 65.7527 81.4581 66.0296 81.4974C66.3064 81.5376 69.7755 81.9863 69.7755 81.9863C69.7755 81.9863 67.0311 81.9607 66.9297 82.1435C66.8676 82.2559 66.7807 82.5493 67.489 82.5337C68.1972 82.5182 69.8723 82.658 69.8723 82.658L70.4371 79.8205Z" fill="#FFC4B8"/>
<path fill-rule="evenodd" clip-rule="evenodd" d="M122.061 67.0918C122.061 67.0918 117.779 67.9773 117.27 68.4279C116.719 68.9067 115.746 73.5966 115.688 74.9035C115.63 76.2103 116.204 81.6678 116.756 83.7003C117.308 85.7336 116.539 93.4219 116.191 96.2384C116.191 96.2384 126.659 99.829 135.138 98.7259C135.138 98.7259 132.537 89.3744 132.877 86.589C133.311 83.0213 134.358 74.8011 134.358 74.8011C134.358 74.8011 134.615 69.5016 133.861 68.8629C133.106 68.2241 126.896 67.0918 126.896 67.0918H122.061Z" fill="#34466B"/>
<path fill-rule="evenodd" clip-rule="evenodd" d="M102.022 92.7955C102.022 92.7955 104.233 95.6696 104.832 99.0792C105.432 102.489 104.479 113.932 104.504 115.617C104.531 117.302 106.098 121.496 105.785 124.67C105.471 127.845 104.234 143.644 104.234 143.644L100.847 142.972C100.847 142.972 101.043 126.865 100.847 125.533C100.651 124.2 100.258 119.343 100.179 118.795C100.1 118.246 95.2031 103.839 95.2031 101.38C95.2031 98.9229 96.6927 88.7855 102.022 92.7955Z" fill="#34466B"/>
<path fill-rule="evenodd" clip-rule="evenodd" d="M90.9193 93.9194C90.9193 93.9194 87.2876 107.779 86.8563 109.7C86.4249 111.62 85.8008 113.204 85.8008 114.019C85.8008 115.911 86.5035 118.948 86.5035 118.948L91.1149 141.004H95.5069C95.5069 141.004 93.0605 127.772 92.9947 125.184C92.928 122.592 90.9321 118.909 91.3241 117.812C91.7162 116.715 97.6334 104.056 97.6334 104.056C97.6334 104.056 102.114 89.8957 90.9193 93.9194Z" fill="#34466B"/>
<path fill-rule="evenodd" clip-rule="evenodd" d="M118.347 68.0942C118.347 68.0942 116.429 68.4909 115.5 69.8269C114.571 71.1621 114.271 74.4821 114.271 74.9464C114.271 75.4115 114.097 82.4382 113.923 83.193C113.748 83.9479 113.777 86.4445 114.445 88.7383C115.113 91.0321 116.036 97.1696 116.036 97.1696L118.046 96.3462L117.323 83.2241L118.347 68.0942Z" fill="#FFC4B8"/>
<path fill-rule="evenodd" clip-rule="evenodd" d="M117.002 95.3008L115.18 97.3323L115.76 99.7906L117.002 95.3008Z" fill="#34466B"/>
<path fill-rule="evenodd" clip-rule="evenodd" d="M124.145 97.1635C124.145 97.1635 125.492 104.418 126.19 106.393C126.886 108.367 127.816 115.103 127.816 115.761C127.816 116.419 128.977 121.8 129.209 122.885C129.441 123.969 132.19 140.925 132.19 140.925C132.19 140.925 136.293 141.583 137.92 140.925C137.92 140.925 136.875 126.64 136.759 124.627C136.642 122.614 135.519 116.807 135.171 115.296C134.823 113.787 135.133 101.727 134.068 97.3042C133.003 92.8812 124.145 97.1635 124.145 97.1635Z" fill="#34466B"/>
<path fill-rule="evenodd" clip-rule="evenodd" d="M116.59 95.5913C116.59 95.5913 115.727 99.3463 115.423 99.849C115.119 100.352 111.674 111.735 111.441 113.09C111.208 114.444 110.318 116.032 110.976 117.387C111.634 118.742 116.822 130.782 117.248 131.479C117.674 132.176 120.984 138.733 120.984 138.733C120.984 138.733 124.52 140.074 126.184 137.945C126.184 137.945 122.242 126.524 121.507 124.394C120.771 122.265 118.486 118.432 118.37 116.807C118.254 115.18 122.436 106.856 123.21 105.153C123.984 103.45 127.353 96.9849 127.353 96.9849C127.353 96.9849 127.159 91.6425 116.59 95.5913Z" fill="#34466B"/>
<path fill-rule="evenodd" clip-rule="evenodd" d="M118.57 68.0142C118.57 68.0142 115.231 68.143 114.321 72.0342C113.412 75.9245 113.507 76.4573 113.507 76.4573L118.105 77.2697C118.105 77.2697 120.138 69.9086 118.57 68.0142Z" fill="#34466B"/>
<path fill-rule="evenodd" clip-rule="evenodd" d="M118.07 86.2197L128.111 100.505L137.281 94.0606L127.597 79.5229L118.07 86.2197Z" fill="#767676"/>
<path fill-rule="evenodd" clip-rule="evenodd" d="M119.164 86.6437L128.082 99.3317L136.226 93.6082L127.626 80.6963L119.164 86.6437Z" fill="#DEEDF2"/>
<path fill-rule="evenodd" clip-rule="evenodd" d="M121.907 85.1883L121.281 84.2973L124.574 81.9834L125.328 82.7839L121.907 85.1883Z" fill="#767676"/>
<path fill-rule="evenodd" clip-rule="evenodd" d="M122.854 95.8384C122.854 95.8384 123.25 95.8046 123.416 95.7059C123.416 95.7059 123.704 95.5021 123.918 95.3705C123.985 95.3285 124.046 95.2937 124.087 95.2755C124.258 95.1978 124.659 95.0799 125.02 94.7783C125.38 94.4777 126.601 92.7797 126.601 92.7797L125.87 91.8595L125.309 90.8999C125.309 90.8999 122.466 91.3395 122.098 91.5807C122.062 91.6054 122.028 91.6301 121.997 91.6557C121.705 91.8905 121.586 92.1875 121.447 92.3283C121.396 92.3804 120.926 92.9314 120.963 93.1443C121.014 93.4404 121.17 93.625 121.359 93.7064C121.359 93.7064 121.484 94.2821 121.796 94.5279C121.796 94.5279 121.894 95.0616 122.369 95.2572C122.369 95.2572 122.529 95.7881 122.854 95.8384Z" fill="#FFC4B8"/>
<path fill-rule="evenodd" clip-rule="evenodd" d="M131.825 68.9742C131.264 69.1917 129.369 69.6075 129.6 72.4972C129.831 75.3859 130.848 76.7146 131.227 77.3827C131.607 78.0516 133.693 82.1704 133.319 82.7123C132.943 83.2542 129.4 86.7497 129.195 87.0339C128.991 87.319 124.855 91.1097 124.855 91.1097L126.445 92.9959C126.445 92.9959 135.591 87.0421 136.257 86.3759C136.923 85.7097 139.025 84.6798 138.148 82.4016C137.272 80.1233 136.083 74.0818 135.845 73.6486C135.605 73.2164 135.538 67.5367 131.825 68.9742Z" fill="#FFC4B8"/>
<path fill-rule="evenodd" clip-rule="evenodd" d="M130.465 68.064C130.465 68.064 128.284 69.8195 129.258 73.7263C130.233 77.633 130.571 78.4116 130.571 78.4116L137.169 76.6141C137.169 76.6141 136.689 69.6002 133.121 68.3985C133.121 68.3985 131.04 67.8036 130.465 68.064Z" fill="#34466B"/>
<path fill-rule="evenodd" clip-rule="evenodd" d="M120.581 65.2783V65.641L119.758 66.1183L119.32 65.9362L120.581 65.2783Z" fill="#CCCCCC"/>
<path fill-rule="evenodd" clip-rule="evenodd" d="M126.928 64.144V64.7572C125.952 65.9003 125.115 66.815 124.419 67.5014C123.375 68.5304 124.75 66.276 124.75 66.276C124.75 66.276 125.476 65.5653 126.928 64.144Z" fill="#CCCCCC"/>
<path fill-rule="evenodd" clip-rule="evenodd" d="M127.29 66.9101C127.221 66.61 127.108 66.1848 127.108 66.1848C127.108 66.1848 126.34 67.3025 124.639 69.7473L125.477 70.3552C126.731 68.2585 127.335 67.1101 127.29 66.9101Z" fill="#CCCCCC"/>
<path fill-rule="evenodd" clip-rule="evenodd" d="M125.292 102.852C125.292 102.852 124.875 101.772 124.25 103.027C124.25 103.027 123.54 100.808 124.799 100.506C126.057 100.203 125.292 102.852 125.292 102.852Z" fill="#34466B"/>
<path fill-rule="evenodd" clip-rule="evenodd" d="M119.554 69.4697C119.554 69.4697 121.528 69.765 125.476 70.3554C124.566 69.0141 124.392 67.7071 124.953 66.4343C124.953 66.4343 122.572 65.8005 119.318 65.936C119.318 65.936 118.295 67.3408 119.554 69.4697Z" fill="#CCCCCC"/>
<path d="M89.9864 72.0715C88.8551 73.2833 87.7932 75.2161 87.4962 75.8631C87.2001 76.5092 83.0466 82.5004 82.8318 82.6348C82.6162 82.77 80.8003 82.293 79.3464 82.1714C76.9731 81.9741 73.4218 80.7641 73.4218 80.7641L72.8945 83.4463C72.8945 83.4463 81.6274 86.2646 83.6424 85.7684C85.2849 85.3632 87.9973 82.7347 91.7794 77.8827L92.6585 75.7949L94.1091 72.3498C93.2969 71.8002 92.6925 71.498 92.2959 71.4432C91.2304 71.2957 90.2204 71.8208 89.9864 72.0715Z" fill="#EAF7FE"/>
<path d="M91.5302 82.2582C91.5302 87.8784 91.3518 97.0334 90.5802 99.9249C89.8076 102.816 87.6094 111.758 87.6094 111.758L85.8867 110.954C85.8867 110.954 90.0296 96.6843 90.3419 95.6553C90.6552 94.6263 90.1047 83.756 89.8076 82.8458C89.5105 81.9356 88.2471 77.8835 88.4438 76.7595C88.6912 75.343 89.5464 73.427 91.922 71.6245L93.8649 72.4838C92.3084 75.2532 91.5302 78.5113 91.5302 82.2582Z" fill="#EAF7FE"/>
<path d="M97.2886 78.986C96.6607 84.067 99.2159 107.653 100.929 113.007L107.569 111.936C107.569 111.936 106.139 95.2645 104.199 92.2305C102.259 89.1965 101.642 86.5125 103.736 80.1795C105.83 73.8473 102.818 70.7111 102.818 70.7111C102.818 70.7111 101.038 70.4212 100.456 70.3555C98.7628 72.7218 97.7071 75.5986 97.2886 78.986Z" fill="#EAF7FE"/>
<path fill-rule="evenodd" clip-rule="evenodd" d="M100.406 100.342L109.354 95.175L101.654 81.0303L92.3555 86.3992L100.406 100.342Z" fill="#767676"/>
<path fill-rule="evenodd" clip-rule="evenodd" d="M93.3242 86.8789L100.473 99.2617L108.421 94.6732L101.583 82.1104L93.3242 86.8789Z" fill="#DEEDF2"/>
<path fill-rule="evenodd" clip-rule="evenodd" d="M95.9626 85.7657L95.4609 84.8966L98.6741 83.0415L99.301 83.8384L95.9626 85.7657Z" fill="#767676"/>
<path fill-rule="evenodd" clip-rule="evenodd" d="M96.5321 96.4473C96.5321 96.4473 96.8977 96.4491 97.0585 96.3724C97.0585 96.3724 97.34 96.2088 97.5465 96.1046C97.6123 96.0726 97.6699 96.0452 97.7092 96.0315C97.8737 95.9748 98.2511 95.899 98.6066 95.6522C98.963 95.4055 100.223 93.9461 100.223 93.9461L99.6274 93.0404L99.1915 92.1138C99.1915 92.1138 96.5449 92.2847 96.1867 92.4766C96.152 92.4948 96.1182 92.515 96.088 92.536C95.8001 92.7279 95.6667 92.9911 95.5278 93.109C95.4766 93.1528 94.9996 93.6198 95.016 93.819C95.0389 94.095 95.1668 94.2769 95.3331 94.3673C95.3331 94.3673 95.4017 94.9065 95.6667 95.1569C95.6667 95.1569 95.7142 95.6559 96.1328 95.8743C96.1328 95.8743 96.2379 96.3751 96.5321 96.4473Z" fill="#FFC4B8"/>
<path d="M101.438 70.728C101.438 70.728 103.883 70.0276 105.284 72.7213C106.684 75.4153 106.677 76.5641 106.865 77.88C107.041 79.1219 107.839 82.5124 107.92 82.8624C108.001 83.2133 109.808 87.3887 108.979 88.8481C108.146 90.3158 99.6853 94.6338 99.7393 94.9564C99.7932 95.2799 98.2734 91.6921 98.2734 91.6921C98.2734 91.6921 101.698 89.7839 102.258 89.1963C103.169 88.2413 105.09 87.2133 104.695 86.0298C104.232 84.6389 102.839 79.9472 102.516 79.2599C102.192 78.5727 99.3774 71.6034 101.438 70.728Z" fill="#EAF7FE"/>
</svg>
