<svg width="160" height="160" viewBox="0 0 160 160" fill="none" xmlns="http://www.w3.org/2000/svg">
<path fill-rule="evenodd" clip-rule="evenodd" d="M153.05 78.0457C151.176 71.3211 157.134 71.0617 157.266 62.397C157.319 58.8533 155.378 55.2441 150.707 53.5884C148.411 52.7751 146.123 52.2159 144.08 50.9221C139.425 47.974 139.51 42.3643 138.24 37.5822C135.451 27.0792 124.718 18.735 113.854 19.0064C106.023 19.2018 98.9422 19.4418 91.8023 26.0892C86.9168 30.6379 83.7416 36.2347 79.206 40.9239C74.4025 45.8896 68.5494 48.2722 61.9771 49.8677C55.7613 51.3765 48.9997 53.1718 44.2423 57.6964C39.7714 61.9483 40.4232 66.3955 42.3399 71.6163C44.454 77.3733 39.8703 81.2899 35.0909 83.5319C31.0667 85.4193 24.3304 89.2585 24.1101 96.3376C23.4286 118.264 37.3562 118.352 42.5489 120.436C90.3176 139.608 108.65 124.821 128.904 125.12C149.096 125.418 160.67 101 159.969 93.8085C159.079 84.6781 154.359 82.7413 153.05 78.0457Z" fill="#DEEDF2"/>
<path fill-rule="evenodd" clip-rule="evenodd" d="M134.133 26.9009C133.585 22.4477 129.79 19 125.19 19C120.213 19 116.178 23.0356 116.178 28.014C116.178 28.8308 116.287 29.6221 116.491 30.3745C116.414 30.3755 116.338 30.3782 116.263 30.3826L116.178 30.3756V30.3882C113.597 30.5822 111.562 32.7389 111.562 35.3706C111.562 38.0024 113.597 40.159 116.178 40.353V40.3679H148.987V40.3674H148.987C150.998 40.3674 152.629 38.7362 152.629 36.7244C152.629 34.7125 150.998 33.0815 148.987 33.0815H148.987V33.0814L140.675 32.3958C140.713 32.1475 140.733 31.8932 140.733 31.6342C140.733 28.8747 138.496 26.6376 135.738 26.6376C135.176 26.6376 134.637 26.7302 134.133 26.9009Z" fill="#DEEDF2"/>
<path fill-rule="evenodd" clip-rule="evenodd" d="M115.178 52.4773C115.552 49.4157 118.144 47.0454 121.286 47.0454C124.685 47.0454 127.44 49.8199 127.44 53.2425C127.44 53.8041 127.366 54.3481 127.227 54.8654C127.279 54.866 127.331 54.8679 127.382 54.8709L127.44 54.8661V54.8748C129.203 55.0082 130.592 56.4909 130.592 58.3002C130.592 60.1096 129.203 61.5923 127.44 61.7256V61.7359H105.034V61.7355H105.034C103.66 61.7355 102.547 60.6141 102.547 59.2309C102.547 57.8477 103.66 56.7265 105.034 56.7265H105.034V56.7263L110.711 56.2551C110.685 56.0843 110.671 55.9095 110.671 55.7314C110.671 53.8343 112.198 52.2963 114.082 52.2963C114.466 52.2963 114.834 52.3599 115.178 52.4773Z" fill="#EAF7FE"/>
<path fill-rule="evenodd" clip-rule="evenodd" d="M53.461 27.5966C53.8666 24.2567 56.6745 21.6709 60.0778 21.6709C63.7598 21.6709 66.7447 24.6976 66.7447 28.4314C66.7447 29.044 66.6645 29.6375 66.5138 30.2017C66.5704 30.2025 66.6265 30.2045 66.6823 30.2078L66.7451 30.2026V30.2121C68.6547 30.3576 70.1599 31.975 70.1599 33.9489C70.1599 35.9227 68.6547 37.5402 66.7451 37.6857V37.6968H42.4716V37.6965H42.4715C40.9836 37.6965 39.7773 36.4731 39.7773 34.9642C39.7773 33.4553 40.9836 32.232 42.4715 32.232H42.4716V32.2319L48.6214 31.7178C48.5933 31.5315 48.5787 31.3408 48.5787 31.1466C48.5787 29.077 50.2332 27.3991 52.2741 27.3991C52.6893 27.3991 53.0885 27.4685 53.461 27.5966Z" fill="#EAF7FE"/>
<path fill-rule="evenodd" clip-rule="evenodd" d="M116.588 106.263C100.527 105.403 83.6179 109.288 75.0456 112.237C69.91 114.004 68.4992 117.248 63.127 118.126C52.3376 119.889 27.003 120.41 26.5021 123.008C25.5159 128.122 34.0631 130.855 53.7767 133.22C53.3511 133.57 56.1778 139.97 72.0711 141.415C78.36 141.986 88.9084 141.417 92.9539 140.167C99.172 138.247 105.631 137.214 112.137 137.067C135.278 136.543 153.425 133.915 153.638 129.942C153.709 128.614 152.373 126.774 150.28 125.703C148.976 125.036 150.89 124.474 151.335 124.314C156.796 122.348 159.859 120.154 159.971 118.412C160.321 112.944 140.164 107.525 116.588 106.263Z" fill="#DEEDF2"/>
<mask id="mask0_1487_19944" style="mask-type:luminance" maskUnits="userSpaceOnUse" x="0" y="29" width="144" height="93">
<path fill-rule="evenodd" clip-rule="evenodd" d="M61.4559 31.5084C55.629 32.8851 49.8364 34.2612 44.3822 31.9894C34.741 27.9753 26.297 39.9364 20.7024 52.0869C15.1075 64.2374 -0.945779 65.8271 0.954898 78.8192C3.70099 97.5932 0.0865432 107.865 24.8941 117.11C49.7016 126.354 75.2385 115.56 100.277 113.41C111.976 112.406 120.161 114.781 126.431 117.189C133.58 119.935 138.24 122.724 142.784 120.598C143.631 120.202 143.998 119.626 143.989 118.892L143.989 118.863C143.839 112.842 118.804 96.4177 125.905 82.9819C133.887 67.8776 133.704 52.1711 110.477 47.4154C87.251 42.6599 100.381 33.4487 74.7952 29.9864C73.7929 29.851 72.7843 29.8018 71.7713 29.8195C68.3633 29.879 64.9038 30.694 61.4559 31.5084Z" fill="white"/>
</mask>
<g mask="url(#mask0_1487_19944)">
<path d="M49.6565 58.843L44.5925 58.9313L44.3789 46.6948L49.4425 46.6064L49.6565 58.843Z" fill="#DEEDF2"/>
</g>
<mask id="mask1_1487_19944" style="mask-type:luminance" maskUnits="userSpaceOnUse" x="0" y="29" width="144" height="93">
<path fill-rule="evenodd" clip-rule="evenodd" d="M61.4559 31.5084C55.629 32.8851 49.8364 34.2612 44.3822 31.9894C34.741 27.9753 26.297 39.9364 20.7024 52.0869C15.1075 64.2374 -0.945779 65.8271 0.954898 78.8192C3.70099 97.5932 0.0865432 107.865 24.8941 117.11C49.7016 126.354 75.2385 115.56 100.277 113.41C111.976 112.406 120.161 114.781 126.431 117.189C133.58 119.935 138.24 122.724 142.784 120.598C143.631 120.202 143.998 119.626 143.989 118.892L143.989 118.863C143.839 112.842 118.804 96.4177 125.905 82.9819C133.887 67.8776 133.704 52.1711 110.477 47.4154C87.251 42.6599 100.381 33.4487 74.7952 29.9864C73.7929 29.851 72.7843 29.8018 71.7713 29.8195C68.3633 29.879 64.9038 30.694 61.4559 31.5084Z" fill="white"/>
</mask>
<g mask="url(#mask1_1487_19944)">
<path d="M58.4221 50.5185C58.4522 52.2439 59.1678 53.8861 60.4107 55.0837C61.6532 56.2813 63.3211 56.9356 65.0468 56.9025C68.6333 56.8362 71.4876 53.8771 71.4227 50.2915C71.3639 46.7052 68.4076 43.846 64.8199 43.9049C63.0941 43.9328 61.4501 44.6456 60.2501 45.8862C59.0498 47.1265 58.3923 48.793 58.4228 50.5185" fill="#DEEDF2"/>
</g>
<mask id="mask2_1487_19944" style="mask-type:luminance" maskUnits="userSpaceOnUse" x="0" y="29" width="144" height="93">
<path fill-rule="evenodd" clip-rule="evenodd" d="M61.4559 31.5084C55.629 32.8851 49.8364 34.2612 44.3822 31.9894C34.741 27.9753 26.297 39.9364 20.7024 52.0869C15.1075 64.2374 -0.945779 65.8271 0.954898 78.8192C3.70099 97.5932 0.0865432 107.865 24.8941 117.11C49.7016 126.354 75.2385 115.56 100.277 113.41C111.976 112.406 120.161 114.781 126.431 117.189C133.58 119.935 138.24 122.724 142.784 120.598C143.631 120.202 143.998 119.626 143.989 118.892L143.989 118.863C143.839 112.842 118.804 96.4177 125.905 82.9819C133.887 67.8776 133.704 52.1711 110.477 47.4154C87.251 42.6599 100.381 33.4487 74.7952 29.9864C73.7929 29.851 72.7843 29.8018 71.7713 29.8195C68.3633 29.879 64.9038 30.694 61.4559 31.5084Z" fill="white"/>
</mask>
<g mask="url(#mask2_1487_19944)">
<path fill-rule="evenodd" clip-rule="evenodd" d="M45.5995 83.2462C45.7555 92.0808 53.0466 99.1157 61.8842 98.9596L61.8853 98.9596C70.7188 98.8021 77.7533 91.5178 77.5991 82.6876C77.445 73.8586 70.1625 66.8246 61.33 66.974C52.4912 67.1249 45.4489 74.4093 45.5994 83.2443L45.5995 83.2462Z" fill="white"/>
</g>
<mask id="mask3_1487_19944" style="mask-type:luminance" maskUnits="userSpaceOnUse" x="0" y="29" width="144" height="93">
<path fill-rule="evenodd" clip-rule="evenodd" d="M61.4559 31.5084C55.629 32.8851 49.8364 34.2612 44.3822 31.9894C34.741 27.9753 26.297 39.9364 20.7024 52.0869C15.1075 64.2374 -0.945779 65.8271 0.954898 78.8192C3.70099 97.5932 0.0865432 107.865 24.8941 117.11C49.7016 126.354 75.2385 115.56 100.277 113.41C111.976 112.406 120.161 114.781 126.431 117.189C133.58 119.935 138.24 122.724 142.784 120.598C143.631 120.202 143.998 119.626 143.989 118.892L143.989 118.863C143.839 112.842 118.804 96.4177 125.905 82.9819C133.887 67.8776 133.704 52.1711 110.477 47.4154C87.251 42.6599 100.381 33.4487 74.7952 29.9864C73.7929 29.851 72.7843 29.8018 71.7713 29.8195C68.3633 29.879 64.9038 30.694 61.4559 31.5084Z" fill="white"/>
</mask>
<g mask="url(#mask3_1487_19944)">
<path d="M54.5182 149.588L87.6971 143.917C89.469 143.619 91.0491 142.627 92.0881 141.161C93.1267 139.696 93.5394 137.877 93.2341 136.107L78.1347 47.754C77.4983 44.0726 74.0022 41.5997 70.3174 42.2241L37.1378 47.8958C35.3659 48.1943 33.7858 49.1858 32.7468 50.6515C31.7075 52.1169 31.2955 53.9358 31.6012 55.7058L46.7002 144.059C47.337 147.741 50.8327 150.213 54.5175 149.589" fill="#9E3667"/>
</g>
<mask id="mask4_1487_19944" style="mask-type:luminance" maskUnits="userSpaceOnUse" x="0" y="29" width="144" height="93">
<path fill-rule="evenodd" clip-rule="evenodd" d="M61.4559 31.5084C55.629 32.8851 49.8364 34.2612 44.3822 31.9894C34.741 27.9753 26.297 39.9364 20.7024 52.0869C15.1075 64.2374 -0.945779 65.8271 0.954898 78.8192C3.70099 97.5932 0.0865432 107.865 24.8941 117.11C49.7016 126.354 75.2385 115.56 100.277 113.41C111.976 112.406 120.161 114.781 126.431 117.189C133.58 119.935 138.24 122.724 142.784 120.598C143.631 120.202 143.998 119.626 143.989 118.892L143.989 118.863C143.839 112.842 118.804 96.4177 125.905 82.9819C133.887 67.8776 133.704 52.1711 110.477 47.4154C87.251 42.6599 100.381 33.4487 74.7952 29.9864C73.7929 29.851 72.7843 29.8018 71.7713 29.8195C68.3633 29.879 64.9038 30.694 61.4559 31.5084Z" fill="white"/>
</mask>
<g mask="url(#mask4_1487_19944)">
<path fill-rule="evenodd" clip-rule="evenodd" d="M56.5537 148.898L89.7319 143.23C93.4128 142.592 95.8865 139.102 95.2682 135.42L80.1502 47.065C79.8516 45.2975 78.8624 43.7213 77.4002 42.6834C75.9377 41.6463 74.1226 41.2333 72.3552 41.5344L39.1551 47.2053C37.387 47.5086 35.8122 48.5023 34.778 49.9675C33.7435 51.4324 33.3348 53.2483 33.6407 55.0149L48.7398 143.368C49.3714 147.053 52.8709 149.528 56.5571 148.898" fill="white"/>
</g>
<mask id="mask5_1487_19944" style="mask-type:luminance" maskUnits="userSpaceOnUse" x="0" y="29" width="144" height="93">
<path fill-rule="evenodd" clip-rule="evenodd" d="M61.4559 31.5084C55.629 32.8851 49.8364 34.2612 44.3822 31.9894C34.741 27.9753 26.297 39.9364 20.7024 52.0869C15.1075 64.2374 -0.945779 65.8271 0.954898 78.8192C3.70099 97.5932 0.0865432 107.865 24.8941 117.11C49.7016 126.354 75.2385 115.56 100.277 113.41C111.976 112.406 120.161 114.781 126.431 117.189C133.58 119.935 138.24 122.724 142.784 120.598C143.631 120.202 143.998 119.626 143.989 118.892L143.989 118.863C143.839 112.842 118.804 96.4177 125.905 82.9819C133.887 67.8776 133.704 52.1711 110.477 47.4154C87.251 42.6599 100.381 33.4487 74.7952 29.9864C73.7929 29.851 72.7843 29.8018 71.7713 29.8195C68.3633 29.879 64.9038 30.694 61.4559 31.5084Z" fill="white"/>
</mask>
<g mask="url(#mask5_1487_19944)">
<path fill-rule="evenodd" clip-rule="evenodd" d="M34.2804 59.1098L48.2395 140.784C48.6733 143.324 51.8759 144.895 54.4063 144.46L90.9541 138.217C93.4926 137.78 95.1995 135.374 94.7712 132.835L80.7929 51.1602C80.3647 48.6251 77.9614 46.9173 75.4254 47.3458C75.4242 47.3458 75.4228 47.3462 75.422 47.3462L38.8742 53.5907C36.3215 54.0243 33.8473 56.5692 34.2804 59.1079" fill="white"/>
</g>
<mask id="mask6_1487_19944" style="mask-type:luminance" maskUnits="userSpaceOnUse" x="0" y="29" width="144" height="93">
<path fill-rule="evenodd" clip-rule="evenodd" d="M61.4559 31.5084C55.629 32.8851 49.8364 34.2612 44.3822 31.9894C34.741 27.9753 26.297 39.9364 20.7024 52.0869C15.1075 64.2374 -0.945779 65.8271 0.954898 78.8192C3.70099 97.5932 0.0865432 107.865 24.8941 117.11C49.7016 126.354 75.2385 115.56 100.277 113.41C111.976 112.406 120.161 114.781 126.431 117.189C133.58 119.935 138.24 122.724 142.784 120.598C143.631 120.202 143.998 119.626 143.989 118.892L143.989 118.863C143.839 112.842 118.804 96.4177 125.905 82.9819C133.887 67.8776 133.704 52.1711 110.477 47.4154C87.251 42.6599 100.381 33.4487 74.7952 29.9864C73.7929 29.851 72.7843 29.8018 71.7713 29.8195C68.3633 29.879 64.9038 30.694 61.4559 31.5084Z" fill="white"/>
</mask>
<g mask="url(#mask6_1487_19944)">
<path d="M53.6345 48.4418L59.0026 47.5233C59.1709 47.4903 59.2848 47.3325 59.2633 47.1625C59.2484 47.0781 59.2003 47.0036 59.1297 46.9555C59.0598 46.9073 58.9729 46.8895 58.8897 46.9073L53.5216 47.8235C53.4401 47.8372 53.3686 47.8837 53.323 47.9525C53.2778 48.0215 53.2625 48.1057 53.2814 48.1855C53.2939 48.2666 53.3379 48.3393 53.4044 48.3872C53.471 48.4354 53.5534 48.4551 53.6345 48.4418Z" fill="#DEEDF2"/>
</g>
<mask id="mask7_1487_19944" style="mask-type:luminance" maskUnits="userSpaceOnUse" x="0" y="29" width="144" height="93">
<path fill-rule="evenodd" clip-rule="evenodd" d="M61.4559 31.5084C55.629 32.8851 49.8364 34.2612 44.3822 31.9894C34.741 27.9753 26.297 39.9364 20.7024 52.0869C15.1075 64.2374 -0.945779 65.8271 0.954898 78.8192C3.70099 97.5932 0.0865432 107.865 24.8941 117.11C49.7016 126.354 75.2385 115.56 100.277 113.41C111.976 112.406 120.161 114.781 126.431 117.189C133.58 119.935 138.24 122.724 142.784 120.598C143.631 120.202 143.998 119.626 143.989 118.892L143.989 118.863C143.839 112.842 118.804 96.4177 125.905 82.9819C133.887 67.8776 133.704 52.1711 110.477 47.4154C87.251 42.6599 100.381 33.4487 74.7952 29.9864C73.7929 29.851 72.7843 29.8018 71.7713 29.8195C68.3633 29.879 64.9038 30.694 61.4559 31.5084Z" fill="white"/>
</mask>
<g mask="url(#mask7_1487_19944)">
<path d="M45.9918 49.4294C46.1013 50.0417 46.6832 50.4525 47.2975 50.3501C47.5929 50.3008 47.8559 50.1358 48.0291 49.8919C48.2016 49.6473 48.2691 49.344 48.2168 49.0494C48.1671 48.7537 48.0009 48.4897 47.7558 48.317C47.5103 48.1442 47.2065 48.0764 46.9111 48.1287C46.3007 48.2384 45.8913 48.8179 45.9918 49.4297" fill="#DEEDF2"/>
</g>
<mask id="mask8_1487_19944" style="mask-type:luminance" maskUnits="userSpaceOnUse" x="0" y="29" width="144" height="93">
<path fill-rule="evenodd" clip-rule="evenodd" d="M61.4559 31.5084C55.629 32.8851 49.8364 34.2612 44.3822 31.9894C34.741 27.9753 26.297 39.9364 20.7024 52.0869C15.1075 64.2374 -0.945779 65.8271 0.954898 78.8192C3.70099 97.5932 0.0865432 107.865 24.8941 117.11C49.7016 126.354 75.2385 115.56 100.277 113.41C111.976 112.406 120.161 114.781 126.431 117.189C133.58 119.935 138.24 122.724 142.784 120.598C143.631 120.202 143.998 119.626 143.989 118.892L143.989 118.863C143.839 112.842 118.804 96.4177 125.905 82.9819C133.887 67.8776 133.704 52.1711 110.477 47.4154C87.251 42.6599 100.381 33.4487 74.7952 29.9864C73.7929 29.851 72.7843 29.8018 71.7713 29.8195C68.3633 29.879 64.9038 30.694 61.4559 31.5084Z" fill="white"/>
</mask>
<g mask="url(#mask8_1487_19944)">
<path d="M65.1841 46.1485C65.2468 46.4655 65.5479 46.6773 65.8675 46.6302C66.0227 46.6071 66.1616 46.5215 66.2522 46.3937C66.342 46.2652 66.3764 46.1061 66.3477 45.9522C66.3242 45.7997 66.2405 45.6631 66.1153 45.5728C65.9908 45.4818 65.8353 45.4445 65.6835 45.469C65.3614 45.5222 65.1397 45.8222 65.184 46.1459" fill="#DEEDF2"/>
</g>
<mask id="mask9_1487_19944" style="mask-type:luminance" maskUnits="userSpaceOnUse" x="0" y="29" width="144" height="93">
<path fill-rule="evenodd" clip-rule="evenodd" d="M61.4559 31.5084C55.629 32.8851 49.8364 34.2612 44.3822 31.9894C34.741 27.9753 26.297 39.9364 20.7024 52.0869C15.1075 64.2374 -0.945779 65.8271 0.954898 78.8192C3.70099 97.5932 0.0865432 107.865 24.8941 117.11C49.7016 126.354 75.2385 115.56 100.277 113.41C111.976 112.406 120.161 114.781 126.431 117.189C133.58 119.935 138.24 122.724 142.784 120.598C143.631 120.202 143.998 119.626 143.989 118.892L143.989 118.863C143.839 112.842 118.804 96.4177 125.905 82.9819C133.887 67.8776 133.704 52.1711 110.477 47.4154C87.251 42.6599 100.381 33.4487 74.7952 29.9864C73.7929 29.851 72.7843 29.8018 71.7713 29.8195C68.3633 29.879 64.9038 30.694 61.4559 31.5084Z" fill="white"/>
</mask>
<g mask="url(#mask9_1487_19944)">
<path d="M62.9379 46.5333C63.0029 46.8495 63.3036 47.0599 63.6228 47.0124C63.778 46.99 63.9165 46.9045 64.0068 46.7763C64.0973 46.6482 64.1317 46.4887 64.1015 46.3348C64.0781 46.1827 63.9948 46.0465 63.8699 45.9566C63.7454 45.8667 63.59 45.8301 63.4382 45.855C63.1153 45.9078 62.8937 46.2082 62.9379 46.5318" fill="#DEEDF2"/>
</g>
<mask id="mask10_1487_19944" style="mask-type:luminance" maskUnits="userSpaceOnUse" x="0" y="29" width="144" height="93">
<path fill-rule="evenodd" clip-rule="evenodd" d="M61.4559 31.5084C55.629 32.8851 49.8364 34.2612 44.3822 31.9894C34.741 27.9753 26.297 39.9364 20.7024 52.0869C15.1075 64.2374 -0.945779 65.8271 0.954898 78.8192C3.70099 97.5932 0.0865432 107.865 24.8941 117.11C49.7016 126.354 75.2385 115.56 100.277 113.41C111.976 112.406 120.161 114.781 126.431 117.189C133.58 119.935 138.24 122.724 142.784 120.598C143.631 120.202 143.998 119.626 143.989 118.892L143.989 118.863C143.839 112.842 118.804 96.4177 125.905 82.9819C133.887 67.8776 133.704 52.1711 110.477 47.4154C87.251 42.6599 100.381 33.4487 74.7952 29.9864C73.7929 29.851 72.7843 29.8018 71.7713 29.8195C68.3633 29.879 64.9038 30.694 61.4559 31.5084Z" fill="white"/>
</mask>
<g mask="url(#mask10_1487_19944)">
<path d="M34.2837 59.1093L36.4971 72.1067L83.0289 64.1582L80.7969 51.1615C80.3684 48.6264 77.9651 46.9183 75.429 47.3467L75.4261 47.3472L38.8782 53.5921C36.3256 54.0256 33.8506 56.5706 34.2844 59.1092" fill="#EC0000"/>
</g>
<mask id="mask11_1487_19944" style="mask-type:luminance" maskUnits="userSpaceOnUse" x="0" y="29" width="144" height="93">
<path fill-rule="evenodd" clip-rule="evenodd" d="M61.4559 31.5084C55.629 32.8851 49.8364 34.2612 44.3822 31.9894C34.741 27.9753 26.297 39.9364 20.7024 52.0869C15.1075 64.2374 -0.945779 65.8271 0.954898 78.8192C3.70099 97.5932 0.0865432 107.865 24.8941 117.11C49.7016 126.354 75.2385 115.56 100.277 113.41C111.976 112.406 120.161 114.781 126.431 117.189C133.58 119.935 138.24 122.724 142.784 120.598C143.631 120.202 143.998 119.626 143.989 118.892L143.989 118.863C143.839 112.842 118.804 96.4177 125.905 82.9819C133.887 67.8776 133.704 52.1711 110.477 47.4154C87.251 42.6599 100.381 33.4487 74.7952 29.9864C73.7929 29.851 72.7843 29.8018 71.7713 29.8195C68.3633 29.879 64.9038 30.694 61.4559 31.5084Z" fill="white"/>
</mask>
<g mask="url(#mask11_1487_19944)">
<path d="M77.3669 87.1046L51.6197 91.5033" stroke="#CEDEE7" stroke-width="1.046"/>
</g>
<mask id="mask12_1487_19944" style="mask-type:luminance" maskUnits="userSpaceOnUse" x="0" y="29" width="144" height="93">
<path fill-rule="evenodd" clip-rule="evenodd" d="M61.4559 31.5084C55.629 32.8851 49.8364 34.2612 44.3822 31.9894C34.741 27.9753 26.297 39.9364 20.7024 52.0869C15.1075 64.2374 -0.945779 65.8271 0.954898 78.8192C3.70099 97.5932 0.0865432 107.865 24.8941 117.11C49.7016 126.354 75.2385 115.56 100.277 113.41C111.976 112.406 120.161 114.781 126.431 117.189C133.58 119.935 138.24 122.724 142.784 120.598C143.631 120.202 143.998 119.626 143.989 118.892L143.989 118.863C143.839 112.842 118.804 96.4177 125.905 82.9819C133.887 67.8776 133.704 52.1711 110.477 47.4154C87.251 42.6599 100.381 33.4487 74.7952 29.9864C73.7929 29.851 72.7843 29.8018 71.7713 29.8195C68.3633 29.879 64.9038 30.694 61.4559 31.5084Z" fill="white"/>
</mask>
<g mask="url(#mask12_1487_19944)">
<path d="M78.0672 61.5915L53.137 65.8498L53.2969 66.7749L78.2271 62.5167L78.0672 61.5915Z" fill="#EC0000"/>
</g>
<mask id="mask13_1487_19944" style="mask-type:luminance" maskUnits="userSpaceOnUse" x="0" y="29" width="144" height="93">
<path fill-rule="evenodd" clip-rule="evenodd" d="M61.4559 31.5084C55.629 32.8851 49.8364 34.2612 44.3822 31.9894C34.741 27.9753 26.297 39.9364 20.7024 52.0869C15.1075 64.2374 -0.945779 65.8271 0.954898 78.8192C3.70099 97.5932 0.0865432 107.865 24.8941 117.11C49.7016 126.354 75.2385 115.56 100.277 113.41C111.976 112.406 120.161 114.781 126.431 117.189C133.58 119.935 138.24 122.724 142.784 120.598C143.631 120.202 143.998 119.626 143.989 118.892L143.989 118.863C143.839 112.842 118.804 96.4177 125.905 82.9819C133.887 67.8776 133.704 52.1711 110.477 47.4154C87.251 42.6599 100.381 33.4487 74.7952 29.9864C73.7929 29.851 72.7843 29.8018 71.7713 29.8195C68.3633 29.879 64.9038 30.694 61.4559 31.5084Z" fill="white"/>
</mask>
<g mask="url(#mask13_1487_19944)">
<path d="M77.7944 60.0146L69.1169 61.4945L69.2764 62.4197L77.9542 60.9376L77.7944 60.0146Z" fill="#EC0000"/>
</g>
<mask id="mask14_1487_19944" style="mask-type:luminance" maskUnits="userSpaceOnUse" x="0" y="29" width="144" height="93">
<path fill-rule="evenodd" clip-rule="evenodd" d="M61.4559 31.5084C55.629 32.8851 49.8364 34.2612 44.3822 31.9894C34.741 27.9753 26.297 39.9364 20.7024 52.0869C15.1075 64.2374 -0.945779 65.8271 0.954898 78.8192C3.70099 97.5932 0.0865432 107.865 24.8941 117.11C49.7016 126.354 75.2385 115.56 100.277 113.41C111.976 112.406 120.161 114.781 126.431 117.189C133.58 119.935 138.24 122.724 142.784 120.598C143.631 120.202 143.998 119.626 143.989 118.892L143.989 118.863C143.839 112.842 118.804 96.4177 125.905 82.9819C133.887 67.8776 133.704 52.1711 110.477 47.4154C87.251 42.6599 100.381 33.4487 74.7952 29.9864C73.7929 29.851 72.7843 29.8018 71.7713 29.8195C68.3633 29.879 64.9038 30.694 61.4559 31.5084Z" fill="white"/>
</mask>
<g mask="url(#mask14_1487_19944)">
<path d="M87.2791 108.717L75.1302 110.794L77.206 122.946L89.3545 120.869L87.2791 108.717Z" fill="#DEEDF2"/>
</g>
<mask id="mask15_1487_19944" style="mask-type:luminance" maskUnits="userSpaceOnUse" x="0" y="29" width="144" height="93">
<path fill-rule="evenodd" clip-rule="evenodd" d="M61.4559 31.5084C55.629 32.8851 49.8364 34.2612 44.3822 31.9894C34.741 27.9753 26.297 39.9364 20.7024 52.0869C15.1075 64.2374 -0.945779 65.8271 0.954898 78.8192C3.70099 97.5932 0.0865432 107.865 24.8941 117.11C49.7016 126.354 75.2385 115.56 100.277 113.41C111.976 112.406 120.161 114.781 126.431 117.189C133.58 119.935 138.24 122.724 142.784 120.598C143.631 120.202 143.998 119.626 143.989 118.892L143.989 118.863C143.839 112.842 118.804 96.4177 125.905 82.9819C133.887 67.8776 133.704 52.1711 110.477 47.4154C87.251 42.6599 100.381 33.4487 74.7952 29.9864C73.7929 29.851 72.7843 29.8018 71.7713 29.8195C68.3633 29.879 64.9038 30.694 61.4559 31.5084Z" fill="white"/>
</mask>
<g mask="url(#mask15_1487_19944)">
<path d="M73.3347 111.102L61.1654 113.179L63.2615 125.329L75.41 123.252L73.3347 111.102Z" fill="#DEEDF2"/>
</g>
<mask id="mask16_1487_19944" style="mask-type:luminance" maskUnits="userSpaceOnUse" x="0" y="29" width="144" height="93">
<path fill-rule="evenodd" clip-rule="evenodd" d="M61.4559 31.5084C55.629 32.8851 49.8364 34.2612 44.3822 31.9894C34.741 27.9753 26.297 39.9364 20.7024 52.0869C15.1075 64.2374 -0.945779 65.8271 0.954898 78.8192C3.70099 97.5932 0.0865432 107.865 24.8941 117.11C49.7016 126.354 75.2385 115.56 100.277 113.41C111.976 112.406 120.161 114.781 126.431 117.189C133.58 119.935 138.24 122.724 142.784 120.598C143.631 120.202 143.998 119.626 143.989 118.892L143.989 118.863C143.839 112.842 118.804 96.4177 125.905 82.9819C133.887 67.8776 133.704 52.1711 110.477 47.4154C87.251 42.6599 100.381 33.4487 74.7952 29.9864C73.7929 29.851 72.7843 29.8018 71.7713 29.8195C68.3633 29.879 64.9038 30.694 61.4559 31.5084Z" fill="white"/>
</mask>
<g mask="url(#mask16_1487_19944)">
<path d="M59.3689 113.485L47.2201 115.564L49.2958 127.716L61.4644 125.638L59.3689 113.485Z" fill="#DEEDF2"/>
</g>
<mask id="mask17_1487_19944" style="mask-type:luminance" maskUnits="userSpaceOnUse" x="0" y="29" width="144" height="93">
<path fill-rule="evenodd" clip-rule="evenodd" d="M61.4559 31.5084C55.629 32.8851 49.8364 34.2612 44.3822 31.9894C34.741 27.9753 26.297 39.9364 20.7024 52.0869C15.1075 64.2374 -0.945779 65.8271 0.954898 78.8192C3.70099 97.5932 0.0865432 107.865 24.8941 117.11C49.7016 126.354 75.2385 115.56 100.277 113.41C111.976 112.406 120.161 114.781 126.431 117.189C133.58 119.935 138.24 122.724 142.784 120.598C143.631 120.202 143.998 119.626 143.989 118.892L143.989 118.863C143.839 112.842 118.804 96.4177 125.905 82.9819C133.887 67.8776 133.704 52.1711 110.477 47.4154C87.251 42.6599 100.381 33.4487 74.7952 29.9864C73.7929 29.851 72.7843 29.8018 71.7713 29.8195C68.3633 29.879 64.9038 30.694 61.4559 31.5084Z" fill="white"/>
</mask>
<g mask="url(#mask17_1487_19944)">
<path d="M83.0281 64.1587L36.4956 72.1072L39.6891 90.7958L86.222 82.8473L83.0281 64.1587Z" fill="#DEEDF2"/>
</g>
<mask id="mask18_1487_19944" style="mask-type:luminance" maskUnits="userSpaceOnUse" x="0" y="29" width="144" height="93">
<path fill-rule="evenodd" clip-rule="evenodd" d="M61.4559 31.5084C55.629 32.8851 49.8364 34.2612 44.3822 31.9894C34.741 27.9753 26.297 39.9364 20.7024 52.0869C15.1075 64.2374 -0.945779 65.8271 0.954898 78.8192C3.70099 97.5932 0.0865432 107.865 24.8941 117.11C49.7016 126.354 75.2385 115.56 100.277 113.41C111.976 112.406 120.161 114.781 126.431 117.189C133.58 119.935 138.24 122.724 142.784 120.598C143.631 120.202 143.998 119.626 143.989 118.892L143.989 118.863C143.839 112.842 118.804 96.4177 125.905 82.9819C133.887 67.8776 133.704 52.1711 110.477 47.4154C87.251 42.6599 100.381 33.4487 74.7952 29.9864C73.7929 29.851 72.7843 29.8018 71.7713 29.8195C68.3633 29.879 64.9038 30.694 61.4559 31.5084Z" fill="white"/>
</mask>
<g mask="url(#mask18_1487_19944)">
<path fill-rule="evenodd" clip-rule="evenodd" d="M39.691 90.7938L42.8848 109.482L89.4173 101.532L87.9791 93.0573L87.5011 90.3082L86.2234 82.8443L78.6285 84.1416L77.7101 84.3013L75.7905 84.6295L75.6883 84.6439L39.691 90.7938Z" fill="#9BC3D3"/>
</g>
<mask id="mask19_1487_19944" style="mask-type:luminance" maskUnits="userSpaceOnUse" x="0" y="29" width="144" height="93">
<path fill-rule="evenodd" clip-rule="evenodd" d="M61.4559 31.5084C55.629 32.8851 49.8364 34.2612 44.3822 31.9894C34.741 27.9753 26.297 39.9364 20.7024 52.0869C15.1075 64.2374 -0.945779 65.8271 0.954898 78.8192C3.70099 97.5932 0.0865432 107.865 24.8941 117.11C49.7016 126.354 75.2385 115.56 100.277 113.41C111.976 112.406 120.161 114.781 126.431 117.189C133.58 119.935 138.24 122.724 142.784 120.598C143.631 120.202 143.998 119.626 143.989 118.892L143.989 118.863C143.839 112.842 118.804 96.4177 125.905 82.9819C133.887 67.8776 133.704 52.1711 110.477 47.4154C87.251 42.6599 100.381 33.4487 74.7952 29.9864C73.7929 29.851 72.7843 29.8018 71.7713 29.8195C68.3633 29.879 64.9038 30.694 61.4559 31.5084Z" fill="white"/>
</mask>
<g mask="url(#mask19_1487_19944)">
<path fill-rule="evenodd" clip-rule="evenodd" d="M72.2002 85.6044C72.7735 86.3928 73.4099 87.1337 74.1028 87.8194C74.8231 88.5362 75.6013 89.1926 76.4299 89.7809C79.6439 92.0458 84.1474 93.1178 87.9757 93.0569L87.4977 90.3078L86.2208 82.8439L78.6255 84.1412L74.7325 85.1742L72.2002 85.6044Z" fill="#1BB3BC"/>
</g>
<mask id="mask20_1487_19944" style="mask-type:luminance" maskUnits="userSpaceOnUse" x="0" y="29" width="144" height="93">
<path fill-rule="evenodd" clip-rule="evenodd" d="M61.4559 31.5084C55.629 32.8851 49.8364 34.2612 44.3822 31.9894C34.741 27.9753 26.297 39.9364 20.7024 52.0869C15.1075 64.2374 -0.945779 65.8271 0.954898 78.8192C3.70099 97.5932 0.0865432 107.865 24.8941 117.11C49.7016 126.354 75.2385 115.56 100.277 113.41C111.976 112.406 120.161 114.781 126.431 117.189C133.58 119.935 138.24 122.724 142.784 120.598C143.631 120.202 143.998 119.626 143.989 118.892L143.989 118.863C143.839 112.842 118.804 96.4177 125.905 82.9819C133.887 67.8776 133.704 52.1711 110.477 47.4154C87.251 42.6599 100.381 33.4487 74.7952 29.9864C73.7929 29.851 72.7843 29.8018 71.7713 29.8195C68.3633 29.879 64.9038 30.694 61.4559 31.5084Z" fill="white"/>
</mask>
<g mask="url(#mask20_1487_19944)">
<path fill-rule="evenodd" clip-rule="evenodd" d="M70.5601 91.3795L76.4314 89.7826L78.7345 89.1567L74.7327 85.1733L72.1997 85.6047C72.1798 85.5679 72.1383 85.5315 72.1168 85.4948L72.0783 85.6243L70.5601 91.3795Z" fill="#1BB3BC"/>
</g>
<mask id="mask21_1487_19944" style="mask-type:luminance" maskUnits="userSpaceOnUse" x="0" y="29" width="144" height="93">
<path fill-rule="evenodd" clip-rule="evenodd" d="M61.4559 31.5084C55.629 32.8851 49.8364 34.2612 44.3822 31.9894C34.741 27.9753 26.297 39.9364 20.7024 52.0869C15.1075 64.2374 -0.945779 65.8271 0.954898 78.8192C3.70099 97.5932 0.0865432 107.865 24.8941 117.11C49.7016 126.354 75.2385 115.56 100.277 113.41C111.976 112.406 120.161 114.781 126.431 117.189C133.58 119.935 138.24 122.724 142.784 120.598C143.631 120.202 143.998 119.626 143.989 118.892L143.989 118.863C143.839 112.842 118.804 96.4177 125.905 82.9819C133.887 67.8776 133.704 52.1711 110.477 47.4154C87.251 42.6599 100.381 33.4487 74.7952 29.9864C73.7929 29.851 72.7843 29.8018 71.7713 29.8195C68.3633 29.879 64.9038 30.694 61.4559 31.5084Z" fill="white"/>
</mask>
<g mask="url(#mask21_1487_19944)">
<path fill-rule="evenodd" clip-rule="evenodd" d="M41.9727 80.7894C42.4911 83.7876 45.3382 85.8013 48.3392 85.2923C49.7805 85.0475 51.0649 84.2389 51.9084 83.0453C52.7528 81.8517 53.0864 80.3712 52.8355 78.931C52.5953 77.4909 51.7905 76.2059 50.5995 75.3611C49.4084 74.5159 47.9299 74.1798 46.4901 74.4277C43.4885 74.9422 41.4692 77.7868 41.9735 80.789" fill="white"/>
</g>
<mask id="mask22_1487_19944" style="mask-type:luminance" maskUnits="userSpaceOnUse" x="0" y="29" width="144" height="93">
<path fill-rule="evenodd" clip-rule="evenodd" d="M61.4559 31.5084C55.629 32.8851 49.8364 34.2612 44.3822 31.9894C34.741 27.9753 26.297 39.9364 20.7024 52.0869C15.1075 64.2374 -0.945779 65.8271 0.954898 78.8192C3.70099 97.5932 0.0865432 107.865 24.8941 117.11C49.7016 126.354 75.2385 115.56 100.277 113.41C111.976 112.406 120.161 114.781 126.431 117.189C133.58 119.935 138.24 122.724 142.784 120.598C143.631 120.202 143.998 119.626 143.989 118.892L143.989 118.863C143.839 112.842 118.804 96.4177 125.905 82.9819C133.887 67.8776 133.704 52.1711 110.477 47.4154C87.251 42.6599 100.381 33.4487 74.7952 29.9864C73.7929 29.851 72.7843 29.8018 71.7713 29.8195C68.3633 29.879 64.9038 30.694 61.4559 31.5084Z" fill="white"/>
</mask>
<g mask="url(#mask22_1487_19944)">
<path d="M45.2336 99.8562C45.7508 102.855 48.598 104.87 51.5994 104.36C53.041 104.114 54.3257 103.306 55.1701 102.112C56.0133 100.918 56.3469 99.4381 56.0971 97.9982C55.8514 96.5564 55.0421 95.2714 53.8481 94.4266C52.6533 93.5823 51.1726 93.2477 49.7306 93.4963C46.7331 94.0137 44.7209 96.8598 45.2336 99.857" fill="#DEEDF2"/>
</g>
<mask id="mask23_1487_19944" style="mask-type:luminance" maskUnits="userSpaceOnUse" x="0" y="29" width="144" height="93">
<path fill-rule="evenodd" clip-rule="evenodd" d="M61.4559 31.5084C55.629 32.8851 49.8364 34.2612 44.3822 31.9894C34.741 27.9753 26.297 39.9364 20.7024 52.0869C15.1075 64.2374 -0.945779 65.8271 0.954898 78.8192C3.70099 97.5932 0.0865432 107.865 24.8941 117.11C49.7016 126.354 75.2385 115.56 100.277 113.41C111.976 112.406 120.161 114.781 126.431 117.189C133.58 119.935 138.24 122.724 142.784 120.598C143.631 120.202 143.998 119.626 143.989 118.892L143.989 118.863C143.839 112.842 118.804 96.4177 125.905 82.9819C133.887 67.8776 133.704 52.1711 110.477 47.4154C87.251 42.6599 100.381 33.4487 74.7952 29.9864C73.7929 29.851 72.7843 29.8018 71.7713 29.8195C68.3633 29.879 64.9038 30.694 61.4559 31.5084Z" fill="white"/>
</mask>
<g mask="url(#mask23_1487_19944)">
<path fill-rule="evenodd" clip-rule="evenodd" d="M80.1444 73.7891L55.2347 78.047L55.3734 78.9726L80.3043 74.7143L80.1444 73.7891Z" fill="white"/>
</g>
<mask id="mask24_1487_19944" style="mask-type:luminance" maskUnits="userSpaceOnUse" x="0" y="29" width="144" height="93">
<path fill-rule="evenodd" clip-rule="evenodd" d="M61.4559 31.5084C55.629 32.8851 49.8364 34.2612 44.3822 31.9894C34.741 27.9753 26.297 39.9364 20.7024 52.0869C15.1075 64.2374 -0.945779 65.8271 0.954898 78.8192C3.70099 97.5932 0.0865432 107.865 24.8941 117.11C49.7016 126.354 75.2385 115.56 100.277 113.41C111.976 112.406 120.161 114.781 126.431 117.189C133.58 119.935 138.24 122.724 142.784 120.598C143.631 120.202 143.998 119.626 143.989 118.892L143.989 118.863C143.839 112.842 118.804 96.4177 125.905 82.9819C133.887 67.8776 133.704 52.1711 110.477 47.4154C87.251 42.6599 100.381 33.4487 74.7952 29.9864C73.7929 29.851 72.7843 29.8018 71.7713 29.8195C68.3633 29.879 64.9038 30.694 61.4559 31.5084Z" fill="white"/>
</mask>
<g mask="url(#mask24_1487_19944)">
<path fill-rule="evenodd" clip-rule="evenodd" d="M80.491 93.509L63.4012 96.43L63.5611 97.3552L80.6509 94.4345L80.491 93.509Z" fill="white"/>
</g>
<mask id="mask25_1487_19944" style="mask-type:luminance" maskUnits="userSpaceOnUse" x="0" y="29" width="144" height="93">
<path fill-rule="evenodd" clip-rule="evenodd" d="M61.4559 31.5084C55.629 32.8851 49.8364 34.2612 44.3822 31.9894C34.741 27.9753 26.297 39.9364 20.7024 52.0869C15.1075 64.2374 -0.945779 65.8271 0.954898 78.8192C3.70099 97.5932 0.0865432 107.865 24.8941 117.11C49.7016 126.354 75.2385 115.56 100.277 113.41C111.976 112.406 120.161 114.781 126.431 117.189C133.58 119.935 138.24 122.724 142.784 120.598C143.631 120.202 143.998 119.626 143.989 118.892L143.989 118.863C143.839 112.842 118.804 96.4177 125.905 82.9819C133.887 67.8776 133.704 52.1711 110.477 47.4154C87.251 42.6599 100.381 33.4487 74.7952 29.9864C73.7929 29.851 72.7843 29.8018 71.7713 29.8195C68.3633 29.879 64.9038 30.694 61.4559 31.5084Z" fill="white"/>
</mask>
<g mask="url(#mask25_1487_19944)">
<path fill-rule="evenodd" clip-rule="evenodd" d="M66.6187 66.548C62.4903 74.0328 65.1903 83.4451 72.6589 87.6055C80.1457 91.7515 89.5768 89.0488 93.7297 81.5676C97.8789 74.0862 95.1757 64.6587 87.6914 60.5112C87.6907 60.5108 87.6899 60.5101 87.6891 60.5097C80.203 56.3619 70.7697 59.065 66.6187 66.548Z" fill="white"/>
</g>
<mask id="mask26_1487_19944" style="mask-type:luminance" maskUnits="userSpaceOnUse" x="0" y="29" width="144" height="93">
<path fill-rule="evenodd" clip-rule="evenodd" d="M44.3822 31.9894C34.741 27.9753 26.297 39.9364 20.7024 52.0869C15.1075 64.2374 -0.945779 65.8271 0.954898 78.8192C3.70099 97.5932 0.0865432 107.865 24.8941 117.11C49.7016 126.354 75.2385 115.56 100.277 113.41C111.976 112.406 120.161 114.781 126.431 117.189C133.58 119.935 138.24 122.724 142.784 120.598C143.631 120.202 143.998 119.626 143.989 118.892L143.989 118.863C143.839 112.842 118.804 96.4177 125.905 82.9819C133.887 67.8776 133.704 52.1711 110.477 47.4154C87.251 42.6599 100.381 33.4487 74.7952 29.9864C73.7929 29.851 72.7843 29.8018 71.7713 29.8195C68.3633 29.879 64.9038 30.694 61.4559 31.5084C55.629 32.8851 49.8364 34.2612 44.3822 31.9894Z" fill="white"/>
</mask>
<g mask="url(#mask26_1487_19944)">
<path fill-rule="evenodd" clip-rule="evenodd" d="M70.5834 91.3945L76.785 87.6609L70.457 84.1543L70.5834 91.3945Z" fill="white"/>
</g>
<path fill-rule="evenodd" clip-rule="evenodd" d="M127.889 88.8445C126.375 87.7666 124.523 87.2708 122.673 87.4475C120.409 87.6568 118.349 88.8453 117.034 90.701C116.651 91.239 116.338 91.8232 116.102 92.4395C115.622 93.7094 114.458 94.5937 113.106 94.7164L113.08 94.7159C110.119 94.9898 107.425 96.5443 105.705 98.9716C103.082 102.657 103.2 107.632 105.997 111.188C106.595 111.947 107.3 112.617 108.089 113.176C112.679 116.426 119.034 115.34 122.284 110.75C122.284 110.75 122.285 110.749 122.285 110.749C122.825 109.993 123.257 109.166 123.571 108.292C123.666 108.032 123.749 107.768 123.821 107.505C124.221 106.024 124.282 104.473 124.001 102.965C126.292 102.774 128.382 101.581 129.711 99.7045C130.124 99.126 130.456 98.4937 130.697 97.8254C130.767 97.6262 130.831 97.427 130.887 97.224C131.741 94.0779 130.544 90.7338 127.889 88.8432" fill="#CEDEE7"/>
<path fill-rule="evenodd" clip-rule="evenodd" d="M121.518 79.004C119.652 83.1258 120.724 87.9844 124.152 90.9377C124.885 91.5686 125.705 92.0905 126.587 92.4873C131.716 94.7947 137.744 92.5074 140.051 87.3785C140.052 87.3781 140.052 87.3778 140.052 87.3775C140.436 86.532 140.702 85.6377 140.843 84.7199C140.885 84.4455 140.915 84.1712 140.936 83.8997C141.243 79.6475 138.866 75.6554 134.982 73.8976C132.77 72.8939 130.269 72.7217 127.94 73.4127C125.085 74.2498 122.739 76.2932 121.518 79.0057" fill="#CEDEE7"/>
<path fill-rule="evenodd" clip-rule="evenodd" d="M120.869 91.9069L121.022 93.9732L121.496 100.565C121.52 100.877 121.61 101.182 121.758 101.457C121.908 101.732 122.116 101.971 122.369 102.155C123.67 103.086 125.227 103.594 126.828 103.611C128.173 103.64 129.504 103.326 130.694 102.698C131.638 102.184 132.066 101.059 131.7 100.048C130.687 97.2143 128.414 88.5374 128.414 88.5374L121.582 91.5884L121.243 91.7398L120.869 91.9069Z" fill="#FFC4B8"/>
<path fill-rule="evenodd" clip-rule="evenodd" d="M127.004 75.531L122.738 77.0955L119.739 81.6576C118.698 83.2436 118.029 85.0441 117.78 86.9248L117.549 88.6819C117.477 89.1668 117.534 89.6624 117.715 90.118C117.95 90.6808 118.362 91.1518 118.889 91.4592L119.583 91.859C120.647 92.4736 121.875 92.7455 123.098 92.6376L129.982 92.0231L133.072 79.1876L127.004 75.531Z" fill="#FFC4B8"/>
<path fill-rule="evenodd" clip-rule="evenodd" d="M121.259 79.3779C119.616 83.0074 120.56 87.2854 123.578 89.8859C124.224 90.4412 124.946 90.9009 125.722 91.2504C130.24 93.2824 135.548 91.268 137.58 86.751C137.581 86.7504 137.581 86.7497 137.581 86.749C137.919 86.0046 138.152 85.2176 138.276 84.4097C138.314 84.1676 138.341 83.9266 138.358 83.6875C138.629 79.9432 136.537 76.4272 133.117 74.8782C131.168 73.995 128.966 73.8434 126.914 74.4514C124.4 75.1886 122.334 76.9881 121.259 79.3773" fill="#FFC4B8"/>
<path fill-rule="evenodd" clip-rule="evenodd" d="M148.799 127.146L107.361 126.423L108.68 119.186L109.741 113.356C110.514 109.107 113.105 105.408 116.834 103.228C117.515 102.831 118.227 102.487 118.962 102.202L132.999 96.7726C133.376 96.6266 133.763 96.5031 134.155 96.4034C138.479 95.3198 142.991 97.2796 145.151 101.179L152.88 115.124C155.177 119.267 153.68 124.487 149.537 126.783C149.297 126.916 149.051 127.037 148.799 127.147" fill="#F6C854"/>
<path fill-rule="evenodd" clip-rule="evenodd" d="M116.834 103.229C118.297 107.863 122.924 110.758 127.628 109.795C132.666 108.763 135.887 103.695 134.819 98.4751C134.673 97.7623 134.45 97.0675 134.154 96.4032C133.761 96.5019 133.376 96.6254 132.999 96.7724L118.962 102.202C118.226 102.487 117.514 102.83 116.833 103.228" fill="#FFC4B8"/>
<path fill-rule="evenodd" clip-rule="evenodd" d="M117.658 104.299C120.114 103.218 121.591 100.675 121.312 98.0058L130.802 97.4475C130.802 97.4475 130.526 98.4625 133.108 98.2117C133.108 98.2117 133.524 106.353 127.037 106.278C120.551 106.204 117.658 104.299 117.658 104.299" fill="#FFC4B8"/>
<path fill-rule="evenodd" clip-rule="evenodd" d="M147.936 126.917L146.427 130.64C146.34 130.852 146.131 130.99 145.901 130.986L145.69 130.983C145.426 130.979 145.201 130.789 145.153 130.529L145.069 130.086L144.978 130.52C144.923 130.781 144.69 130.965 144.424 130.961L143.856 130.951C143.579 130.947 143.348 130.738 143.315 130.463L143.244 129.907L143.147 130.467C143.101 130.737 142.864 130.933 142.589 130.928L142.242 130.922C142.002 130.919 141.791 130.761 141.72 130.532L140.605 126.945L140.575 127.015L138.864 126.985L139.069 126.2C139.335 125.185 140.231 124.461 141.28 124.413L145.21 124.239C145.609 124.223 146.008 124.241 146.403 124.293C147.454 124.429 148.197 125.391 148.061 126.443C148.04 126.605 147.998 126.765 147.937 126.918" fill="#FFC4B8"/>
<path fill-rule="evenodd" clip-rule="evenodd" d="M119.409 83.9361L118.111 82.7447L122.737 77.0946L125.689 79.1133L119.409 83.9361Z" fill="#FFC4B8"/>
<path fill-rule="evenodd" clip-rule="evenodd" d="M127.799 79.1234C128.928 79.1504 129.958 79.7752 130.503 80.7644C130.503 80.7644 132.145 84.7835 133.112 85.7363C135.601 88.1877 139.839 87.4566 139.917 82.9924C139.895 81.2135 139.525 79.4563 138.827 77.8199C138.742 77.6027 138.625 77.3195 138.484 76.9888C136.645 72.638 131.928 70.256 127.335 71.3575C127.335 71.3575 122.849 72.5645 123.826 76.6812C124.143 78.0167 125.33 79.0783 127.799 79.1214" fill="#CEDEE7"/>
<path fill-rule="evenodd" clip-rule="evenodd" d="M118.531 85.2549L120.937 85.6184C120.937 85.6184 119.998 87.0459 119.396 86.9553C118.795 86.8647 118.531 85.2549 118.531 85.2549Z" fill="#F4A48D"/>
<path fill-rule="evenodd" clip-rule="evenodd" d="M120.902 92.4263C121.431 92.6308 121.994 92.7315 122.561 92.7224C123.437 92.6902 124.574 92.5164 124.574 92.5164C123.869 92.9375 123.138 93.3151 122.387 93.647C121.958 93.8472 121.49 93.9522 121.017 93.955L120.902 92.4263Z" fill="#F4A48D"/>
<path fill-rule="evenodd" clip-rule="evenodd" d="M83.8804 66.2593C82.2252 66.2606 80.2467 67.3528 79.8937 68.8585C79.2607 67.4373 76.6555 66.7529 75.027 67.0334C70.7293 67.7738 69.7451 72.9438 71.9067 76.1783C73.07 77.9191 74.6436 79.3934 76.3309 80.6937C77.7438 81.7826 81.3356 84.0409 81.345 84.0314C81.3561 84.0392 84.4609 81.2061 85.6442 79.8945C87.0572 78.328 88.3254 76.6098 89.1395 74.6993C90.6521 71.1495 88.2485 66.2559 83.8804 66.2593Z" fill="#EC0000"/>
<path fill-rule="evenodd" clip-rule="evenodd" d="M84.7482 74.2902C84.2009 72.7516 83.6537 71.213 83.1064 69.6744C83.0273 69.4519 82.7119 69.4983 82.6638 69.7152C82.0383 72.539 81.4128 75.3628 80.7873 78.1867C80.7511 78.3503 80.7148 78.5138 80.6786 78.6774C79.9259 76.9259 79.1731 75.1744 78.4204 73.4229C78.2997 73.142 78.1789 72.8611 78.0582 72.5801C77.9855 72.4108 77.7096 72.3664 77.6339 72.5637C77.282 73.4809 76.9302 74.398 76.5783 75.3151C75.3206 75.4311 72.4895 75.7331 71.2317 75.849C70.9363 75.8763 70.977 76.3378 71.2728 76.3105C72.578 76.1901 75.4564 75.8839 76.7616 75.7635C76.838 75.7565 76.9209 75.7056 76.9496 75.631C77.2511 74.845 77.5526 74.059 77.8541 73.2731C78.6264 75.07 79.3987 76.8669 80.1709 78.6638C80.2916 78.9448 80.4123 79.2256 80.5331 79.5066C80.6236 79.7173 80.9253 79.6929 80.9756 79.4657C81.6011 76.6419 82.2267 73.8181 82.8522 70.9942C82.8821 70.8591 82.912 70.7241 82.9419 70.589C83.4203 71.9339 83.8987 73.2788 84.3771 74.6238C84.4103 74.7172 84.5144 74.7846 84.6135 74.7728C85.7933 74.6317 89.3577 74.2203 90.5375 74.0792C90.8316 74.044 90.7916 73.5823 90.4964 73.6176C87.4117 73.9766 85.4957 74.2008 84.7482 74.2902Z" fill="white"/>
</svg>
