<svg width="148" height="160" viewBox="0 0 148 160" fill="none" xmlns="http://www.w3.org/2000/svg">
<path fill-rule="evenodd" clip-rule="evenodd" d="M63.7108 111.568C63.4015 111.258 63.0977 110.945 62.8001 110.629C56.8065 104.259 48.8654 100.101 40.26 98.5388C35.0365 97.5902 30.0385 95.0975 25.9999 91.0604C15.4219 80.4861 15.4099 63.4334 25.9736 52.8447C30.6336 48.1738 36.5757 45.5636 42.6688 45.0137C47.8852 44.5426 52.7859 42.2671 56.4049 38.481C56.4516 38.4323 56.4987 38.3839 56.5458 38.3358C62.7192 32.0382 72.7061 31.9759 78.955 38.1987C78.9906 38.2342 79.0263 38.27 79.0613 38.3059C80.7304 39.9998 83.14 40.7396 85.4741 40.2863C98.7839 37.7019 113.097 41.5635 123.406 51.8718C139.877 68.343 139.877 95.0964 123.406 111.568C106.921 128.052 80.1952 128.052 63.7108 111.568Z" fill="#EAF7FE"/>
<path d="M40.5648 111.021C45.1305 111.021 48.8977 114.44 49.4417 118.855C49.9415 118.686 50.4771 118.594 51.0339 118.594C53.772 118.594 55.9917 120.812 55.9917 123.548C55.9917 123.805 55.9722 124.057 55.9344 124.303L64.1848 124.983V124.983C66.1093 124.983 67.6828 126.487 67.7931 128.382H27.1685C27.0838 128.02 27.0391 127.642 27.0391 127.253C27.0391 124.644 29.0584 122.505 31.6202 122.313V122.301L31.7044 122.307C31.7793 122.303 31.8546 122.3 31.9305 122.299C31.7284 121.554 31.6207 120.769 31.6207 119.959C31.6207 115.023 35.6252 111.021 40.5648 111.021Z" fill="#9BC3D3"/>
<path d="M41.9844 94.8181L52.3189 77.1074C55.8286 71.0925 64.5223 71.0925 68.032 77.1074L78.3665 94.8181V128.383C66.2393 128.383 54.1116 128.383 41.9844 128.383V94.8181Z" fill="#FFE99F"/>
<path d="M78.3633 97.6338H104.688L107.789 102.916V128.383H78.3633V97.6338Z" fill="#FFE99F"/>
<path fill-rule="evenodd" clip-rule="evenodd" d="M52.3189 77.1068L41.9844 94.8175V102.735L54.937 80.5378C57.4242 76.2752 61.9722 74.4034 66.2691 74.9227C62.1756 71.2114 55.3343 71.9394 52.3189 77.1068Z" fill="#FFE99F"/>
<path fill-rule="evenodd" clip-rule="evenodd" d="M66.9276 77.9465C63.9288 72.7346 56.4136 72.7346 53.4148 77.9465L36.6093 107.156C36.2512 107.778 35.4567 107.992 34.8348 107.634C34.2129 107.275 33.9991 106.481 34.3571 105.858L51.1626 76.6489C55.1608 69.6997 65.1816 69.6997 69.1797 76.6489L85.9853 105.858C86.3435 106.481 86.1294 107.275 85.5075 107.634C84.8855 107.992 84.0914 107.778 83.7331 107.156L66.9276 77.9465Z" fill="#F4A48D"/>
<path d="M60.0712 71.4377C60.105 71.4373 60.1389 71.437 60.1724 71.437H60.0705L60.0712 71.4377Z" fill="#2A8FEC"/>
<path d="M84.893 107.807H110.819C110.839 107.808 110.859 107.808 110.88 107.807H110.891L110.89 107.807C111.097 107.8 111.305 107.744 111.496 107.634C112.118 107.276 112.332 106.481 111.974 105.858L95.1683 76.649C93.1693 73.1742 89.6647 71.437 86.1598 71.437V71.4495L86.1381 71.437H60.1758C63.6796 71.4377 67.1834 73.1749 69.1821 76.649L85.9876 105.858C86.3459 106.481 86.1318 107.276 85.5098 107.634C85.3149 107.746 85.1034 107.802 84.893 107.807Z" fill="#2A8FEC"/>
<path d="M66.6889 128.383V108.888C66.6889 108.177 66.107 107.6 65.3894 107.6H53.5729C52.8553 107.6 52.2734 108.177 52.2734 108.888V128.383H66.6889Z" fill="#A66555"/>
<path d="M121.148 128.383H24.1914V130.148H121.148V128.383Z" fill="#DEEDF2"/>
<path d="M38.3313 122.126C37.5582 121.492 37.0671 120.543 37.0671 119.482C37.0671 117.572 38.6575 116.024 40.6192 116.024C42.5812 116.024 44.1716 117.572 44.1716 119.482C44.1716 120.175 43.9616 120.821 43.6007 121.362C45.6995 122.122 47.1947 124.09 47.1947 126.397C47.1947 127.098 47.0564 127.768 46.8048 128.383H36.5499C36.2985 127.768 36.1602 127.098 36.1602 126.397C36.1602 124.656 37.0116 123.108 38.3313 122.126Z" fill="#9BC3D3"/>
<path d="M104.839 111.022C100.253 111.022 96.4701 114.441 95.9235 118.856C95.4218 118.687 94.8841 118.595 94.3246 118.595C91.5748 118.595 89.3459 120.813 89.3459 123.549C89.3459 123.806 89.3653 124.058 89.4032 124.304L88.8019 124.543V124.543C86.7973 124.543 85.1719 126.16 85.1719 128.155C85.1719 128.231 85.1744 128.308 85.1792 128.383H118.293C118.378 128.021 118.422 127.643 118.422 127.254C118.422 124.645 116.395 122.506 113.822 122.314V122.302L113.737 122.308C113.662 122.304 113.586 122.301 113.51 122.3C113.713 121.555 113.821 120.77 113.821 119.96C113.821 115.024 109.799 111.022 104.839 111.022Z" fill="#9BC3D3"/>
<path fill-rule="evenodd" clip-rule="evenodd" d="M91.3281 35.0376L93.1959 33.8896C94.69 35.0354 95.5492 36.3807 95.7736 37.9255C95.9979 39.4703 95.7736 41.2763 95.1004 43.3434C94.786 43.8028 94.6285 44.4334 94.6285 45.235C94.6285 46.0368 95.2215 46.9548 96.4066 47.9893H93.1959C92.6872 47.4747 92.433 46.5566 92.433 45.235C92.433 43.2527 94.2379 41.2681 93.5328 38.606C93.0631 36.8313 92.3278 35.6419 91.3281 35.0376Z" fill="#1BB3BC"/>
<path fill-rule="evenodd" clip-rule="evenodd" d="M68.0859 42.9517L69.9537 44.0996C71.4478 42.9539 72.3066 41.6086 72.5314 40.0638C72.7557 38.519 72.5314 36.713 71.8579 34.6458C71.5434 34.1865 71.3864 33.5559 71.3864 32.7542C71.3864 31.9525 71.9789 31.0344 73.1644 30H69.9537C69.445 30.5146 69.1909 31.4327 69.1909 32.7542C69.1909 34.7365 70.9957 36.7212 70.2906 39.3832C69.8206 41.158 69.0857 42.3474 68.0859 42.9517Z" fill="#8AD7C4"/>
<path fill-rule="evenodd" clip-rule="evenodd" d="M102.174 48.3942L104.209 47.8091C105.285 49.2994 105.72 50.8078 105.514 52.3341C105.309 53.8605 104.618 55.5135 103.442 57.2933C103.028 57.6443 102.714 58.2001 102.5 58.9609C102.285 59.7216 102.588 60.7526 103.408 62.0539L100.437 61.1877C100.105 60.562 100.115 59.6223 100.468 58.3683C100.998 56.4874 103.199 55.0913 103.259 52.3752C103.299 50.5644 102.937 49.2374 102.174 48.3942Z" fill="#2A8FEC"/>
<path fill-rule="evenodd" clip-rule="evenodd" d="M38.1216 35.5061L40.212 34.9209C41.3169 36.4113 41.7638 37.9196 41.5527 39.446C41.3416 40.9724 40.632 42.6254 39.4246 44.4051C38.9996 44.7561 38.677 45.312 38.4567 46.0727C38.2365 46.8334 38.5475 47.8645 39.3897 49.1659L36.3386 48.2994C35.9967 47.6738 36.0072 46.734 36.3702 45.4801C36.9148 43.5992 39.1753 42.2032 39.2365 39.487C39.2773 37.6762 38.9057 36.3492 38.1216 35.5061Z" fill="#2A8FEC"/>
<path fill-rule="evenodd" clip-rule="evenodd" d="M112.649 80.5996L114.816 80.7206C115.381 82.488 115.316 84.0597 114.624 85.4364C113.931 86.8128 112.726 88.1479 111.008 89.4426C110.493 89.6376 110.008 90.0595 109.554 90.7083C109.1 91.3571 109.061 92.4334 109.438 93.937L106.83 92.1317C106.709 91.4292 107.022 90.5431 107.771 89.4735C108.893 87.8695 111.483 87.278 112.419 84.7272C113.042 83.0265 113.119 81.6508 112.649 80.5996Z" fill="#2A8FEC"/>
<path fill-rule="evenodd" clip-rule="evenodd" d="M76.1214 60.2031L73.5246 58.4683L71.043 62.1117L73.6398 63.8464L76.1214 60.2031Z" fill="#F6C854"/>
<path fill-rule="evenodd" clip-rule="evenodd" d="M28.7656 56.4751L31.5803 54.9883L33.1185 57.8622L30.3038 59.349L28.7656 56.4751Z" fill="#8AD7C4"/>
<path fill-rule="evenodd" clip-rule="evenodd" d="M122.184 97.7009L124.998 96.2139L126.536 99.088L123.722 100.575L122.184 97.7009Z" fill="#8AD7C4"/>
<path fill-rule="evenodd" clip-rule="evenodd" d="M47.0118 55.7634C48.0512 56.2515 49.2352 55.974 49.656 55.1437C50.0768 54.3133 49.5751 53.2445 48.5353 52.7564C47.4958 52.2683 46.3118 52.5458 45.8911 53.3762C45.4703 54.2065 45.972 55.2753 47.0118 55.7634Z" fill="#2A8FEC"/>
<path fill-rule="evenodd" clip-rule="evenodd" d="M124.268 40.1911C123.973 41.2879 124.475 42.3748 125.39 42.6187C126.305 42.8626 127.286 42.1711 127.581 41.0742C127.877 39.9774 127.374 38.8905 126.46 38.6466C125.545 38.4027 124.564 39.0942 124.268 40.1911Z" fill="#2A8FEC"/>
<path fill-rule="evenodd" clip-rule="evenodd" d="M50.5033 39.0368C50.0968 40.5646 50.7876 42.0785 52.0455 42.4181C53.3031 42.7578 54.6522 41.7947 55.0583 40.2669C55.4647 38.7391 54.7743 37.2252 53.5164 36.8856C52.2585 36.5458 50.9093 37.509 50.5033 39.0368Z" fill="#1BB3BC"/>
<path fill-rule="evenodd" clip-rule="evenodd" d="M16.1907 93.156C15.7845 94.6835 16.4749 96.1975 17.7328 96.5373C18.9907 96.8768 20.3397 95.9139 20.746 94.386C21.1521 92.858 20.4617 91.3445 19.2038 91.0046C17.9459 90.6651 16.5969 91.6281 16.1907 93.156Z" fill="#1BB3BC"/>
<path fill-rule="evenodd" clip-rule="evenodd" d="M130.999 64.9936C131.815 66.3472 133.384 66.9022 134.502 66.2335C135.62 65.5644 135.864 63.9251 135.047 62.5715C134.231 61.218 132.662 60.6629 131.544 61.332C130.426 62.0007 130.182 63.6404 130.999 64.9936Z" fill="#1BB3BC"/>
<path fill-rule="evenodd" clip-rule="evenodd" d="M60.6125 48.6305C60.2064 50.1583 60.8968 51.6722 62.1547 52.0119C63.4127 52.3516 64.7618 51.3884 65.1679 49.8607C65.574 48.3329 64.8836 46.819 63.6256 46.4793C62.3677 46.1396 61.0189 47.1027 60.6125 48.6305Z" fill="#F6C854"/>
<path fill-rule="evenodd" clip-rule="evenodd" d="M108.108 53.2255C107.69 54.7141 108.401 56.1892 109.697 56.5202C110.993 56.8511 112.383 55.9127 112.802 54.424C113.22 52.9355 112.509 51.4604 111.213 51.1294C109.917 50.7984 108.527 51.7369 108.108 53.2255Z" fill="#F6C854"/>
<path fill-rule="evenodd" clip-rule="evenodd" d="M34.7995 86.4661C34.5041 87.524 35.0063 88.5719 35.9211 88.8073C36.836 89.0423 37.817 88.3754 38.1125 87.3176C38.4079 86.2601 37.9057 85.2119 36.9909 84.9768C36.076 84.7418 35.0949 85.4086 34.7995 86.4661Z" fill="#8AD7C4"/>
<path fill-rule="evenodd" clip-rule="evenodd" d="M36.1803 73.8517L38.0272 69.9738L34.6677 71.5778L30.367 68.0688V73.8517L26.7344 75.6091L31.2764 76.5945V81.2963L34.6677 77.0825H38.7773L36.1803 73.8517Z" fill="#F6C854"/>
<path fill-rule="evenodd" clip-rule="evenodd" d="M132.182 83.6056L136.327 82.4779L132.92 80.9761L132.777 75.4272L128.392 79.1974L124.692 77.5885L126.905 81.675L123.34 84.7403L128.746 84.5649L131.425 87.681L132.182 83.6056Z" fill="#1BB3BC"/>
<path fill-rule="evenodd" clip-rule="evenodd" d="M80.9902 47.6964L83.6745 43.6914L84.8206 48.8427L88.6687 49.7658L84.8206 51.6269V56.0468L81.3569 52.802L76.9107 54.368L79.8058 50.6553L75.4648 46.4881L80.9902 47.6964Z" fill="#8AD7C4"/>
<path fill-rule="evenodd" clip-rule="evenodd" d="M44.4375 71.285L46.8923 72.2854C47.1126 71.1051 47.7302 69.9888 48.745 68.9368C50.2674 67.3593 53.2644 67.2717 55.6905 65.2561C57.3074 63.9121 58.1512 62.891 58.2218 62.1922L55.6905 61.0928C54.8154 62.5729 53.8186 63.7311 52.6994 64.5672C51.021 65.8218 48.6416 65.9623 46.8923 67.4497C45.7263 68.441 44.9079 69.7195 44.4375 71.285Z" fill="#2A8FEC"/>
<path fill-rule="evenodd" clip-rule="evenodd" d="M125.834 60.2026L123.405 59.2021C123.187 60.3825 122.576 61.4984 121.572 62.5504C120.066 64.1283 117.1 64.2158 114.7 66.2315C113.1 67.5751 112.265 68.5962 112.195 69.295L114.7 70.3944C115.566 68.9143 116.552 67.7564 117.659 66.92C119.32 65.6654 121.674 65.5253 123.405 64.0378C124.559 63.0462 125.369 61.7677 125.834 60.2026Z" fill="#2A8FEC"/>
<path fill-rule="evenodd" clip-rule="evenodd" d="M102.242 31.7688L104.542 30.4824C104.748 32 105.327 33.435 106.278 34.7874C107.704 36.8161 110.512 36.9286 112.784 39.5202C114.3 41.2479 115.09 42.5609 115.156 43.4592L112.784 44.8727C111.965 42.9699 111.031 41.4808 109.983 40.4055C108.41 38.7926 106.181 38.6122 104.542 36.6998C103.449 35.4249 102.683 33.7812 102.242 31.7688Z" fill="#8AD7C4"/>
<path fill-rule="evenodd" clip-rule="evenodd" d="M11.0352 65.4173L13.5113 64.5161C13.4719 66.047 13.813 67.5561 14.5348 69.0436C15.6174 71.2744 18.3708 71.8357 20.1988 74.758C21.4175 76.7059 21.9873 78.1286 21.9084 79.0261L19.341 80.0413C18.837 78.0315 18.1537 76.412 17.2912 75.1828C15.9975 73.3385 13.8261 72.8034 12.515 70.6531C11.6409 69.2194 11.1476 67.4741 11.0352 65.4173Z" fill="#8AD7C4"/>
<path fill-rule="evenodd" clip-rule="evenodd" d="M106.514 74.7022L104.085 75.7159C103.867 74.5201 103.256 73.3894 102.252 72.3239C100.746 70.7257 97.7798 70.6371 95.3795 68.5949C93.7795 67.2337 92.9445 66.1994 92.875 65.4917L95.3795 64.3779C96.2453 65.8771 97.2318 67.0501 98.3389 67.8976C100 69.1684 102.354 69.3103 104.085 70.8173C105.239 71.8218 106.049 73.1165 106.514 74.7022Z" fill="#1BB3BC"/>
</svg>
