<svg width="160" height="160" viewBox="0 0 160 160" fill="none" xmlns="http://www.w3.org/2000/svg">
<path fill-rule="evenodd" clip-rule="evenodd" d="M75.2639 115.521C75.8358 115.346 76.4025 115.163 76.9646 114.973C88.2791 111.134 100.562 111.202 112.012 114.818C118.961 117.013 126.614 117.205 134.077 114.925C153.623 108.954 164.421 88.4368 158.276 68.9449C155.564 60.3463 149.991 53.4094 142.932 48.8558C136.888 44.9571 132.369 39.0878 130.364 32.2193C130.338 32.1308 130.311 32.0425 130.285 31.9547C126.762 20.4315 114.661 13.9776 103.129 17.4763C103.063 17.4961 102.997 17.5166 102.932 17.5373C99.8313 18.5099 96.4344 17.8614 93.8833 15.8248C79.3372 4.21308 59.4942 -0.281537 40.4439 5.54121C10.0034 14.8454 -6.91503 47.0462 2.69292 77.3921C12.3088 107.762 44.7993 124.832 75.2639 115.521Z" fill="#EAF7FE"/>
<path fill-rule="evenodd" clip-rule="evenodd" d="M58.773 53.1476L53.7051 44.5594C52.4378 41.9396 51.3048 39.2563 50.3407 36.5105C49.8686 35.1666 49.4368 33.8107 49.202 32.7645C48.8798 31.3263 48.6404 29.887 48.6394 28.7653L48.6389 27.7944C48.6368 27.5685 48.6543 27.3472 48.6878 27.1295C48.9663 25.3312 50.3716 23.8777 52.2185 23.5705C53.9986 23.2763 55.7735 24.1331 56.6516 25.7078L57.954 28.1228L69.3075 49.1603C81.2577 65.1081 93.4272 78.2999 106.7 90.2032L109.577 129.854L74.4716 149.521L65.4752 134.481C62.7166 129.869 60.4012 125.008 58.5593 119.96L53.7 106.644L46.8907 93.3453L49.1809 73.6495C48.189 73.3762 47.2897 72.7245 46.7296 71.7145C46.1423 70.6551 46.0609 69.3888 46.5083 68.2636L48.5333 63.1654C49.0991 61.7421 49.8846 60.4263 50.8539 59.263L50.8698 59.1255C53.2341 56.8626 56.0957 55.1233 58.773 53.1476Z" fill="#FFC4B8"/>
<path fill-rule="evenodd" clip-rule="evenodd" d="M49.1767 96.6759L49.1149 96.7104C47.4188 97.6884 45.2512 97.1803 44.1655 95.548L38.5515 87.1003C37.4505 85.4443 37.6595 83.2442 39.0503 81.823L39.7731 81.0858C39.9465 80.9087 40.1313 80.7522 40.3249 80.6169C42.2166 79.2898 44.9459 79.9261 45.9965 82.1122L49.8135 90.0679L50.6716 91.852C51.5122 93.6038 50.8605 95.7061 49.1767 96.6759Z" fill="#FFC4B8"/>
<path fill-rule="evenodd" clip-rule="evenodd" d="M83.823 121.835C83.1266 123.039 82.5248 124.385 82.0883 125.873C82.0142 126.124 81.8031 126.246 81.5926 126.246C81.3619 126.246 81.1334 126.1 81.0871 125.816L80.2151 120.503C80.2151 120.503 78.6728 120.683 76.4486 120.683C70.6925 120.683 60.3628 119.475 60.3453 110.805C60.3438 109.91 55.0834 110.436 53.6997 106.639L49.0628 97.5838L48.7158 96.9064L49.1153 96.7067L49.1765 96.6717C50.8603 95.7019 51.512 93.5996 50.6714 91.8479L49.8138 90.0637L47.7681 85.8004L48.0353 83.5031L49.1812 73.6464L49.3227 73.6804L49.4735 73.7195L49.6239 73.7401L49.7268 73.7576L49.8128 73.7664L49.9518 73.7854L50.0933 73.788L50.2725 73.7942L50.3064 73.7921L50.4341 73.7947L50.6441 73.7741L50.7151 73.77L50.7635 73.7622L50.9154 73.7473L51.0889 73.7087L51.1537 73.6984L51.2165 73.6804L51.3895 73.6423L51.529 73.5934L51.5841 73.578L51.6597 73.5471L51.8512 73.4796L51.9588 73.4261L52.0015 73.4086L52.0875 73.3618L52.2944 73.2588L52.3727 73.2063L52.402 73.1903L52.4931 73.1265L52.7135 72.9793L52.766 72.9335L52.7809 72.9232L52.8668 72.846L53.1031 72.6401L53.133 72.6066L53.134 72.6056L53.1597 72.5762L53.4573 72.2416L59.0424 65.0875L63.735 63.6292L63.7324 63.623L63.7355 63.6251L60.039 55.6102C61.4108 51.7346 64.4737 49.55 69.2831 49.1104L69.3083 49.1572C78.206 61.0312 87.2251 71.3774 96.7306 80.799L100.821 89.1088C92.1452 97.2631 85.9727 108.747 83.823 121.835ZM49.4082 90.09H49.3356C47.9555 90.0787 46.6043 89.427 45.7472 88.2256L40.3242 80.6169C40.7551 80.3147 41.2287 80.115 41.7166 80.011C41.9756 79.9565 42.2386 79.9282 42.5006 79.9276H42.5325C43.9353 79.9333 45.3164 80.6987 45.9959 82.1123L49.8128 90.0684C49.6779 90.0813 49.5431 90.0885 49.4082 90.09Z" fill="#F4A48D"/>
<path d="M81.5727 120.075L48.2368 114.978C44.5351 114.41 41.9927 110.952 42.5595 107.252L56.1512 18.5148C56.718 14.8153 60.1782 12.2749 63.8814 12.8412L97.2163 17.94C100.919 18.5067 103.461 21.9648 102.894 25.6643L89.3024 114.402C88.7361 118.102 85.2754 120.641 81.5727 120.075Z" fill="#9E3667"/>
<path d="M79.5258 119.763L46.1899 114.663C42.4878 114.098 39.9459 110.638 40.5126 106.939L54.1039 18.2019C54.6711 14.5024 58.1314 11.962 61.834 12.5282L95.1694 17.6274C98.8721 18.1932 101.414 21.6518 100.847 25.3514L87.2555 114.088C86.6887 117.788 83.228 120.329 79.5258 119.763Z" fill="white"/>
<path d="M100.272 29.1216L87.708 111.151C87.3173 113.7 84.1458 115.33 81.5957 114.94L44.8752 109.323C42.3236 108.933 40.5744 106.551 40.9646 104.001L53.5289 21.9722C53.9196 19.4217 56.3024 17.6695 58.8546 18.0597L95.574 23.6765C98.1242 24.0664 100.662 26.5714 100.272 29.1216Z" fill="white"/>
<path fill-rule="evenodd" clip-rule="evenodd" d="M87.0707 20.5844C87.6853 20.6747 88.2619 20.2446 88.3586 19.6242C88.4554 19.0032 88.0359 18.4274 87.4218 18.3371C86.8077 18.2473 86.2306 18.677 86.1338 19.2979C86.0371 19.9183 86.4561 20.4947 87.0707 20.5844ZM70.6582 17.5235C70.9779 17.5706 71.2785 17.3466 71.329 17.023C71.3794 16.6993 71.1611 16.3991 70.8404 16.3521C70.5203 16.3051 70.2196 16.5291 70.1697 16.8528C70.1187 17.1763 70.338 17.4766 70.6582 17.5235ZM69.0727 16.6775C69.0223 17.0006 68.7222 17.2252 68.402 17.1782C68.0818 17.1306 67.863 16.8309 67.9135 16.5073C67.9639 16.1836 68.2646 15.9597 68.5842 16.0067C68.9049 16.0537 69.1232 16.354 69.0727 16.6775ZM75.2983 17.9748L80.6945 18.7771C80.866 18.803 81.0266 18.679 81.0528 18.5006C81.0796 18.322 80.9622 18.157 80.7908 18.1316L75.3946 17.3291C75.2237 17.3039 75.0636 17.4273 75.0363 17.6059C75.0095 17.7842 75.1264 17.9495 75.2983 17.9748Z" fill="#DEEDF2"/>
<path fill-rule="evenodd" clip-rule="evenodd" d="M81.5688 120.056L48.2329 114.959C44.5307 114.391 41.9888 110.933 42.5556 107.233L56.1473 18.4958C56.7141 14.7962 60.1743 12.2558 63.8775 12.8221L97.2124 17.9209C100.916 18.4877 103.457 21.9457 102.89 25.6453L89.2985 114.383C88.7322 118.083 85.2715 120.622 81.5688 120.056Z" fill="#9E3667"/>
<path fill-rule="evenodd" clip-rule="evenodd" d="M79.5219 119.744L46.186 114.644C42.4839 114.079 39.942 110.619 40.5087 106.92L54.1 18.1829C54.6672 14.4833 58.1274 11.9429 61.8301 12.5091L95.1655 17.6084C98.8682 18.1742 101.41 21.6327 100.843 25.3324L87.2516 114.069C86.6848 117.769 83.2241 120.31 79.5219 119.744Z" fill="white"/>
<path d="M100.264 29.1026L87.7001 111.132C87.3094 113.681 84.138 115.311 81.5879 114.921L44.8674 109.304C42.3157 108.914 40.5666 106.532 40.9568 103.982L53.5211 21.9531C53.9118 19.4027 56.2946 17.6505 58.8468 18.0407L95.5662 23.6574C98.1163 24.0474 100.655 26.5523 100.264 29.1026Z" fill="white"/>
<path fill-rule="evenodd" clip-rule="evenodd" d="M88.1191 108.415L87.7027 111.13C87.6811 111.267 87.6528 111.4 87.6162 111.53C86.9748 113.848 84.0036 115.29 81.591 114.921L44.8705 109.303C42.6215 108.96 40.9933 107.068 40.9099 104.876C40.8986 104.581 40.913 104.282 40.9599 103.98L41.3758 101.265L88.1191 108.415Z" fill="#CEDEE7"/>
<path d="M88.1187 108.415L87.7023 111.13C87.6807 111.267 87.6524 111.4 87.6158 111.53L87.5911 111.527L87.7007 110.811L41.0078 103.67L41.3754 101.265L88.1187 108.415Z" fill="#EC0000"/>
<path fill-rule="evenodd" clip-rule="evenodd" d="M75.0025 91.0508L87.1668 92.8344L85.2493 105.122L73.085 103.339L75.0025 91.0508ZM60.9843 88.9068L73.1486 90.6904L71.2311 102.978L59.0678 101.195L60.9843 88.9068ZM46.9678 86.7617L59.1321 88.5459L57.2151 100.834L45.0508 99.0501L46.9678 86.7617Z" fill="#CEDEE7"/>
<path fill-rule="evenodd" clip-rule="evenodd" d="M87.0666 20.5653C87.6813 20.6556 88.2578 20.2255 88.3546 19.6051C88.4513 18.9841 88.0318 18.4083 87.4177 18.318C86.8036 18.2282 86.2265 18.6579 86.1298 19.2788C86.033 19.8992 86.452 20.4756 87.0666 20.5653ZM70.6542 17.5044C70.9738 17.5515 71.2744 17.3275 71.3249 17.0039C71.3753 16.6802 71.1571 16.38 70.8364 16.333C70.5162 16.286 70.2156 16.51 70.1656 16.8337C70.1147 17.1572 70.334 17.4575 70.6542 17.5044ZM69.0688 16.6584C69.0184 16.9816 68.7183 17.2062 68.3981 17.1591C68.0779 17.1116 67.8591 16.8119 67.9096 16.4882C67.96 16.1646 68.2606 15.9406 68.5803 15.9877C68.901 16.0346 69.1193 16.3349 69.0688 16.6584ZM75.2942 17.9557L80.6905 18.7581C80.8619 18.7839 81.0225 18.6599 81.0487 18.4815C81.0755 18.303 80.9581 18.1379 80.7867 18.1125L75.3905 17.31C75.2196 17.2848 75.0595 17.4082 75.0322 17.5868C75.0055 17.7651 75.1223 17.9304 75.2942 17.9557Z" fill="#DEEDF2"/>
<path d="M100.266 29.1021L98.2668 42.1562L51.5234 35.0068L53.5228 21.9527C53.9135 19.4022 56.2963 17.6497 58.8485 18.0403L95.5679 23.657C98.118 24.0469 100.656 26.5518 100.266 29.1021Z" fill="#EC0000"/>
<path fill-rule="evenodd" clip-rule="evenodd" d="M95.3908 60.959L48.6484 53.8095L51.5234 35.041L98.2652 42.1904L95.3908 60.959Z" fill="#DEEDF2"/>
<path fill-rule="evenodd" clip-rule="evenodd" d="M92.933 50.9435C92.4718 53.9564 89.6529 56.0252 86.638 55.564C83.623 55.1028 81.5527 52.2865 82.0134 49.2731C82.4756 46.2603 85.2939 44.1914 88.3094 44.6527C91.3249 45.1136 93.3947 47.9304 92.933 50.9435Z" fill="#CEDEE7"/>
<path fill-rule="evenodd" clip-rule="evenodd" d="M79.5641 48.3637L54.5215 44.5337L54.3789 45.4633L79.422 49.2938L79.5641 48.3637Z" fill="white"/>
<path fill-rule="evenodd" clip-rule="evenodd" d="M95.4053 60.8697L92.5304 79.6384L45.7891 72.4884L47.0924 63.9773L47.5145 61.2156L48.664 53.7202L56.2866 54.8867L57.2219 55.0303L59.1528 55.3242L59.2418 55.3376L95.4053 60.8697Z" fill="#9BC3D3"/>
<path fill-rule="evenodd" clip-rule="evenodd" d="M90.0029 70.0948C89.5417 73.1077 86.7229 75.1766 83.7079 74.7153C80.693 74.2536 78.6226 71.4379 79.0838 68.4245C79.5455 65.4116 82.3639 63.3427 85.3793 63.8034C88.3948 64.2647 90.4647 67.0814 90.0029 70.0948Z" fill="#DEEDF2"/>
<path fill-rule="evenodd" clip-rule="evenodd" d="M71.8944 66.4374L54.7163 63.8101L54.5742 64.7402L71.7523 67.3676L71.8944 66.4374Z" fill="#DEEDF2"/>
<path fill-rule="evenodd" clip-rule="evenodd" d="M57.4697 61.3956C54.5763 63.4943 50.4757 64.5192 47 64.5073L47.3974 61.9974L48.4779 55.186L55.404 56.284L58.9728 57.1797L61.2805 57.5442L61.3531 57.4427L61.386 57.5611L62.8449 62.7849L57.4702 61.3956H57.4697Z" fill="#34466B"/>
<path fill-rule="evenodd" clip-rule="evenodd" d="M55.1649 58.527C43.2126 62.9005 29.4989 58.1528 22.9815 46.7351C15.7137 33.9986 20.1528 17.7851 32.8984 10.5221C45.6433 3.25861 61.8676 7.69462 69.136 20.4304C75.6518 31.8493 72.7589 46.0612 62.9064 54.115L62.8652 63.0317L55.1649 58.527Z" fill="white"/>
<path fill-rule="evenodd" clip-rule="evenodd" d="M42.5367 68.4798L41.5679 69.2422C39.7004 70.7133 39.1166 73.2897 40.1673 75.4213L45.5233 86.2915C46.558 88.3928 49.0484 89.3281 51.212 88.4293L51.2887 88.3974C53.4332 87.5064 54.5291 85.1138 53.8007 82.9096L49.7542 70.65C48.754 67.6201 45.0446 66.5047 42.5367 68.4798Z" fill="#FFC4B8"/>
<path fill-rule="evenodd" clip-rule="evenodd" d="M83.7052 141.601L83.0777 140.306C82.3838 138.875 81.8932 137.365 81.6173 135.814C81.3362 134.266 81.2708 132.68 81.4237 131.096C82.1063 124.002 83.7957 117.072 86.4133 110.508C88.6499 104.901 91.5625 99.5618 95.1102 94.6124L95.8314 93.605C97.4858 91.2937 98.171 88.428 97.7401 85.6179L97.3216 82.9149C96.7996 79.5155 96.7281 76.063 97.1142 72.6455C97.1142 72.6455 97.8271 62.0126 101.965 54.8903C102.539 53.902 103.446 53.186 104.445 52.733C105.445 52.28 106.573 52.1116 107.704 52.2867C108.149 52.3556 108.551 52.5296 108.888 52.7834C109.604 53.3146 110.032 54.1928 109.951 55.139L109.172 64.4288L109.152 64.6692L113.549 93.4428C114.065 96.8202 114.034 100.256 113.459 103.623L111.302 121.427L109.486 136.4L109.487 136.401L121.2 156.653H78.6054L74.5692 149.693L74.406 149.41L74.0312 148.761L83.4267 141.808L83.7046 141.601L83.7052 141.601Z" fill="#FFC4B8"/>
<path d="M34.2383 30.1965L40.8241 18.9064C43.0608 15.0722 48.6011 15.0722 50.8378 18.9064L57.4236 30.1965V45.1013C57.4236 46.9306 55.9406 48.4136 54.1117 48.4136H37.5508C35.7213 48.4136 34.2383 46.9306 34.2383 45.1013V30.1965Z" fill="#FFE99F"/>
<path d="M39.582 48.4134H54.1117C55.9411 48.4134 57.4236 46.9306 57.4236 45.1014V30.1966L53.7426 23.8862L39.582 48.4134Z" fill="#FFE99F"/>
<path fill-rule="evenodd" clip-rule="evenodd" d="M50.1363 19.4416C48.225 16.1192 43.4357 16.1192 41.5249 19.4416L30.8153 38.0618C30.5872 38.4585 30.0807 38.595 29.6843 38.3665C29.288 38.1381 29.1521 37.6313 29.3801 37.2346L40.0897 18.6145C42.6378 14.1845 49.0234 14.1845 51.5715 18.6145L62.2811 37.2346C62.5091 37.6313 62.3727 38.1381 61.9763 38.3665C61.5799 38.595 61.0739 38.4585 60.8459 38.0618L50.1363 19.4416Z" fill="#EC0000"/>
<path d="M50.7997 48.4132V35.9859C50.7997 35.5322 50.4291 35.1646 49.972 35.1646H41.6915C41.2339 35.1646 40.8633 35.5322 40.8633 35.9859V48.4132H50.7997Z" fill="#A66555"/>
</svg>
