<svg width="162" height="161" viewBox="0 0 162 161" fill="none" xmlns="http://www.w3.org/2000/svg">
<path fill-rule="evenodd" clip-rule="evenodd" d="M79.8795 25.2624C48.3747 22.3393 20.1179 46.049 17.5196 77.5538C17.5196 80.8017 15.5708 83.7249 12.6477 85.024L12.3229 85.3488C1.92955 91.1951 -1.64315 104.187 4.20309 114.58L4.52789 114.905C8.10059 121.076 9.39976 128.221 8.10059 135.367C6.80143 142.512 7.45101 149.658 10.0493 156.153H78.2556C83.4522 146.734 91.572 138.939 101.316 133.743C101.641 133.418 102.29 133.093 102.94 132.768C119.829 123.349 130.872 106.46 132.171 87.6224C135.094 56.1176 111.384 28.1855 79.8795 25.2624Z" fill="#EAF7FE"/>
<path fill-rule="evenodd" clip-rule="evenodd" d="M161.397 156.152C161.397 158.75 135.738 160.699 104.234 160.699C72.7288 160.699 47.0703 158.75 47.0703 156.152C47.0703 153.553 72.7288 151.604 104.234 151.604C135.738 151.604 161.397 153.553 161.397 156.152Z" fill="#CEDEE7"/>
<path fill-rule="evenodd" clip-rule="evenodd" d="M88.6406 155.827H150.351V108.083H88.6406V155.827Z" fill="#FFE99F"/>
<path fill-rule="evenodd" clip-rule="evenodd" d="M100.668 127.896H142.566V117.827H100.668V127.896Z" fill="white"/>
<path fill-rule="evenodd" clip-rule="evenodd" d="M93.1972 105.81L73.0601 61.9629L52.2734 105.81H93.1972Z" fill="#D39E00"/>
<path fill-rule="evenodd" clip-rule="evenodd" d="M57.4766 155.828H88.6566V102.237L73.0666 68.459L57.4766 102.237C57.4766 102.237 57.4766 155.828 57.4766 155.828Z" fill="white"/>
<path fill-rule="evenodd" clip-rule="evenodd" d="M73.0547 61.9629H131.192L154.253 105.485H92.867L73.0547 61.9629Z" fill="#2A8FEC"/>
<path fill-rule="evenodd" clip-rule="evenodd" d="M88.6406 108.083H150.351V105.485H88.6406V108.083Z" fill="#D39E00"/>
<rect x="67.5391" y="134.718" width="11.6925" height="19.8123" fill="#34466B"/>
</svg>
