<svg width="170" height="152" viewBox="0 0 170 152" fill="none" xmlns="http://www.w3.org/2000/svg">
<path fill-rule="evenodd" clip-rule="evenodd" d="M67.6335 122.514C67.196 122.076 66.7669 121.634 66.3462 121.187C57.8737 112.182 46.6489 106.306 34.4842 104.097C27.1007 102.756 20.0358 99.2324 14.327 93.5254C-0.625563 78.5781 -0.642539 54.4734 14.2899 39.5056C20.8771 32.9029 29.2765 29.2134 37.8894 28.4359C45.2629 27.7701 52.1906 24.5534 57.3063 19.2017C57.3723 19.1328 57.4387 19.0644 57.5051 18.9965C66.232 10.0944 80.3491 10.0063 89.1818 18.8026C89.2325 18.8528 89.2827 18.9035 89.3324 18.9541C91.6919 21.3486 95.0975 22.3942 98.3973 21.7535C117.211 18.1004 137.444 23.559 152.016 38.1302C175.299 61.4131 175.299 99.2307 152.016 122.514C128.714 145.815 90.9351 145.815 67.6335 122.514Z" fill="#DEEDF2"/>
<path fill-rule="evenodd" clip-rule="evenodd" d="M105.995 115.316C112.393 117.517 114.151 121.558 120.844 122.651C134.285 124.848 165.847 125.498 166.471 128.734C167.7 135.105 157.052 138.51 132.492 141.456C133.023 141.893 129.501 149.865 109.701 151.665C101.866 152.377 88.7251 151.668 83.6852 150.111C75.9387 147.718 67.8923 146.432 59.7866 146.248C30.9571 145.596 8.34991 142.322 8.08508 137.373C7.99626 135.718 9.66078 133.425 12.2682 132.091C13.8929 131.261 11.5074 130.56 10.9535 130.361C4.15022 127.912 0.334015 125.178 0.194962 123.008C-0.241013 116.196 24.8702 109.445 54.2414 107.872C74.2508 106.801 95.316 111.642 105.995 115.316Z" fill="#DEEDF2"/>
<path fill-rule="evenodd" clip-rule="evenodd" d="M137.269 21.6957C137.925 21.7681 138.48 22.2335 138.656 22.883L143.618 44.4054C143.686 44.758 143.667 44.8742 143.625 45.0637L154.582 61.1029L157.16 61.1032V72.3753H128.078V61.1032L130.093 61.1029L140.771 45.4733C140.707 45.3544 140.657 45.2272 140.621 45.0956L135.66 23.5732C135.594 23.2261 135.614 23.163 135.637 23.0026C135.733 22.3597 136.272 21.8088 136.926 21.7089C137.144 21.676 137.198 21.6931 137.269 21.6957ZM141.674 46.3339L142.338 45.3628C138.755 50.61 135.17 55.8572 131.586 61.1033L141.714 61.1032L141.674 46.3339ZM142.906 46.1934L142.902 44.7485C142.917 50.1997 142.931 55.6517 142.946 61.1032L153.092 61.1029L142.906 46.1934Z" fill="#DEEDF2"/>
<path fill-rule="evenodd" clip-rule="evenodd" d="M133.739 5.07719C134.121 5.24547 134.476 5.46898 134.668 5.82791C134.732 5.94755 134.762 6.08165 134.811 6.20918L138.655 22.8828C138.667 23.0287 138.7 23.1734 138.692 23.3193C138.624 24.4631 137.024 25.2454 136.083 24.329C135.801 24.0516 135.797 23.9306 135.659 23.573L132.691 10.7043L66.1663 125.933L92.3118 125.933V137.991H49.4375V125.933L62.646 125.934C62.6694 125.879 62.6956 125.818 62.7243 125.747L131.981 5.78583C132.235 5.45583 132.539 5.16527 132.932 5.06535C133.194 4.9983 133.47 5.03643 133.739 5.07719Z" fill="#9BC3D3"/>
<path fill-rule="evenodd" clip-rule="evenodd" d="M48.1156 74.4824C47.7876 74.5185 47.5102 74.7513 47.4221 75.076L44.9411 85.8372C44.9072 86.0133 44.9165 86.0715 44.9376 86.166L45.5811 85.2245C43.5403 88.2115 41.4996 91.1991 39.4588 94.1862L38.17 94.1861V99.8222H52.7109V94.1861L51.7035 94.1859L46.3646 86.3712C46.3964 86.3117 46.4215 86.2481 46.4393 86.1823L48.9202 75.4211C48.9531 75.2476 48.9432 75.216 48.9314 75.1358C48.8834 74.8144 48.6139 74.5389 48.2872 74.489C48.1781 74.4725 48.1511 74.4811 48.1156 74.4824ZM45.9129 86.8015L45.5808 86.3159C47.3726 88.9396 49.1651 91.5632 50.957 94.1864L45.8933 94.1861L45.9129 86.8015ZM45.2972 86.731L45.2991 86.0088C45.2919 88.7344 45.2848 91.4605 45.2772 94.1862L40.2044 94.1859L45.2972 86.731Z" fill="#DEEDF2"/>
<path fill-rule="evenodd" clip-rule="evenodd" d="M50.0835 65.7346C49.8928 65.8188 49.7153 65.9305 49.6194 66.11C49.5872 66.1698 49.572 66.2369 49.5477 66.3006L47.6256 74.6374C47.6196 74.7104 47.6032 74.7827 47.6072 74.8557C47.6413 75.4276 48.4414 75.8187 48.9114 75.3606C49.0527 75.2218 49.0547 75.1614 49.1237 74.9826L50.6074 68.5482L83.8702 126.163L70.7972 126.163V132.192H92.2344V126.163L85.6304 126.164C85.6186 126.136 85.6054 126.105 85.591 126.069L50.9624 66.089C50.8355 65.924 50.6837 65.7787 50.4871 65.7287C50.3563 65.6952 50.2182 65.7143 50.0835 65.7346Z" fill="#9BC3D3"/>
<path fill-rule="evenodd" clip-rule="evenodd" d="M113.235 14.3579C112.308 6.7296 105.888 0.82373 98.1073 0.82373C89.6894 0.82373 82.865 7.73668 82.865 16.2646C82.865 17.6637 83.0485 19.0193 83.3931 20.308C83.2636 20.3097 83.1353 20.3144 83.0078 20.322L82.8642 20.31V20.3316C78.4984 20.6639 75.0571 24.3582 75.0571 28.8664C75.0571 33.3746 78.4984 37.0689 82.8642 37.4011V37.4267H138.36V37.4258H138.36C141.762 37.4258 144.52 34.6316 144.52 31.1853C144.52 27.739 141.762 24.9452 138.36 24.9452H138.36V24.9449L124.3 23.7706C124.364 23.3452 124.397 22.9095 124.397 22.466C124.397 17.739 120.615 13.9069 115.949 13.9069C114.999 13.9069 114.087 14.0654 113.235 14.3579Z" fill="#DEEDF2"/>
<path fill-rule="evenodd" clip-rule="evenodd" d="M30.0773 38.9786C30.8769 32.4773 36.4125 27.4438 43.1217 27.4438C50.3802 27.4438 56.2648 33.3356 56.2648 40.6037C56.2648 41.7961 56.1065 42.9514 55.8094 44.0498C55.921 44.0512 56.0317 44.0552 56.1417 44.0617L56.2654 44.0514V44.0699C60.0299 44.3531 62.9973 47.5016 62.9973 51.3438C62.9973 55.186 60.0299 58.3346 56.2654 58.6178V58.6395H8.41293C5.47961 58.6388 3.10156 56.2574 3.10156 53.3202C3.10156 50.383 5.47961 48.0019 8.41277 48.0019L20.5366 47.0009C20.4812 46.6383 20.4525 46.267 20.4525 45.8889C20.4525 41.8603 23.714 38.5943 27.7376 38.5943C28.556 38.5943 29.3429 38.7294 30.0773 38.9786Z" fill="#EAF7FE"/>
<path fill-rule="evenodd" clip-rule="evenodd" d="M51.225 80.0608C52.1024 78.5826 52.2896 76.7208 51.5671 75.0187C50.3616 72.1786 47.077 70.8515 44.237 72.0571C41.6146 73.1702 40.2822 76.0558 41.0424 78.7274C41.0992 79.0152 41.1723 79.2996 41.258 79.5786L41.2582 79.579L41.2598 79.5853L41.2605 79.5874C41.2862 79.6709 41.313 79.7538 41.3408 79.8361L42.6719 83.9574L43.5932 83.8849L43.6024 83.8833L43.6025 83.8833C43.6519 83.944 43.6788 83.9767 43.6788 83.9767L43.9288 84.5045L44.3946 85.4917C44.5493 85.8181 44.7569 86.1141 45.0078 86.3689C45.1841 86.549 45.3836 86.7085 45.6016 86.8426C45.8575 87 46.1349 87.1209 46.4211 87.2009C46.5705 87.2433 46.7228 87.273 46.8767 87.2917C46.9582 87.3017 47.0382 87.3088 47.1198 87.3126L47.1204 87.3126L49.4362 93.7318C49.4362 93.7318 51.5013 93.5063 53.3205 92.2174C54.4211 91.4406 55.4319 90.2722 55.8429 88.5327C55.8429 88.5327 52.5692 84.0256 51.225 80.0608Z" fill="#FFC4B8"/>
<path fill-rule="evenodd" clip-rule="evenodd" d="M53.2693 92.1512C54.3699 91.3743 55.3806 90.206 55.7917 88.4665C55.7917 88.4665 52.2723 83.6419 51.0434 79.5717C51.0434 79.5717 51.1423 87.6906 53.2693 92.1512ZM43.6041 83.9069C43.9216 83.8699 44.1055 83.5301 43.9625 83.2445L43.0409 81.4035L43.6041 83.9069Z" fill="#F4A48D"/>
<path fill-rule="evenodd" clip-rule="evenodd" d="M50.2522 76.8954C50.3149 76.8857 50.3785 76.8829 50.4426 76.8875C51.1521 76.9387 51.6576 77.878 51.5707 78.9839C51.5304 79.4964 51.293 79.8061 51.1386 80.295C51.0649 80.5285 51.0152 80.8216 51.0152 80.8216L51.3391 81.1468C52.0772 80.1903 52.5551 79.0171 52.6557 77.7275C52.7348 76.7215 52.5756 75.7533 52.2258 74.8767C51.9366 74.152 51.5171 73.4893 50.994 72.921C50.3783 72.2518 49.6186 71.7122 48.7587 71.3524C48.131 71.0891 47.4487 70.9215 46.7303 70.8697C44.816 70.732 43.0316 71.4414 41.751 72.6793C41.2183 73.1934 40.7733 73.7985 40.4424 74.4733C40.3769 74.6046 40.3165 74.7392 40.2611 74.8764L40.2541 76.05L40.8138 76.5837L42.5294 75.7556L45.3821 74.3794L46.0184 75.4354L47.1965 77.3895L47.2874 77.5403C46.9533 78.7394 46.4227 80.7711 46.4591 81.4551C46.48 81.8497 47.442 82.7113 47.9644 82.5793C48.484 82.4481 49.5815 80.6821 49.5931 80.6634C49.1833 80.3107 48.9365 79.5982 48.9994 78.7986L48.9996 78.7962L49.0015 78.7733L49.0021 78.7656L49.0037 78.7486L49.0046 78.7394L49.0061 78.7239L49.0072 78.7141L49.0088 78.6993L49.0099 78.6893L49.0116 78.6747L49.0128 78.6646L49.0146 78.6502L49.0158 78.6402L49.0178 78.6255L49.0191 78.6159L49.0212 78.6007L49.0225 78.5917L49.025 78.575L49.0261 78.5677L49.0298 78.5441L49.0298 78.5437L49.0338 78.5197L49.035 78.5132L49.038 78.496L49.0395 78.4874L49.0423 78.4723L49.044 78.463L49.0467 78.4487L49.0486 78.4391L49.0514 78.4252L49.0534 78.4155L49.0562 78.4018L49.0583 78.3921L49.0613 78.3783L49.0633 78.3689L49.0665 78.3548L49.0685 78.3458L49.072 78.3308L49.0739 78.3229L49.0783 78.3048L49.0794 78.3001L49.0852 78.2773L49.0863 78.2728L49.091 78.2547L49.0931 78.247L49.0971 78.2323L49.0995 78.2236L49.1033 78.2099L49.1059 78.2008L49.1096 78.1877L49.1123 78.1784L49.1162 78.1655L49.1189 78.1563L49.1229 78.1434L49.1257 78.1343L49.1298 78.1213L49.1326 78.1125L49.137 78.099L49.1396 78.0909L49.1446 78.0757L49.1467 78.0694L49.1541 78.048L49.1543 78.0474L49.1616 78.0268L49.164 78.0201L49.1692 78.0058L49.1722 77.9977L49.177 77.9848L49.1802 77.9763L49.1849 77.964L49.1883 77.9553L49.193 77.9433L49.1964 77.9346L49.2012 77.9227L49.2047 77.914L49.2097 77.9021L49.2131 77.8937L49.2183 77.8815L49.2217 77.8736L49.2274 77.8605L49.2303 77.8536L49.2377 77.837L49.2391 77.8338L49.2481 77.8141L49.2506 77.8087L49.2572 77.7946L49.2606 77.7873L49.2664 77.7752L49.2702 77.7674L49.2757 77.7561L49.2797 77.748L49.2852 77.737L49.2893 77.7288L49.2948 77.718L49.299 77.7099L49.3046 77.6992L49.3088 77.6913L49.3147 77.6804L49.3187 77.6728L49.3249 77.6614L49.3288 77.6545L49.336 77.6416L49.3389 77.6364L49.3492 77.6185L49.3513 77.6148L49.3595 77.6007L49.3634 77.5943L49.3701 77.5831L49.3744 77.576L49.3807 77.5657L49.3853 77.5583L49.3914 77.5485L49.3962 77.541L49.4023 77.5314L49.4072 77.5239L49.4134 77.5144L49.4182 77.5071L49.4246 77.4975L49.4294 77.4904L49.436 77.4807L49.4406 77.474L49.4479 77.4636L49.452 77.4578L49.4621 77.4435L49.4634 77.4417L49.4749 77.426L49.479 77.4205L49.4866 77.4103L49.4914 77.404L49.4984 77.3949L49.5036 77.3882L49.5103 77.3796L49.5156 77.3729L49.5223 77.3645L49.5277 77.3578L49.5344 77.3496L49.5399 77.343L49.5467 77.3349L49.5522 77.3284L49.5591 77.3202L49.5645 77.314L49.5719 77.3056L49.5769 77.2998L49.5855 77.2902L49.5895 77.2859L49.6019 77.2723L49.6062 77.2678L49.6146 77.2588L49.62 77.2532L49.6274 77.2455L49.6331 77.2396L49.6402 77.2324L49.6462 77.2264L49.6532 77.2195L49.6593 77.2136L49.6663 77.2068L49.6725 77.2009L49.6795 77.1943L49.6857 77.1886L49.6928 77.182L49.699 77.1764L49.7064 77.1698L49.7123 77.1645L49.7203 77.1575L49.7258 77.1528L49.7376 77.1427L49.739 77.1415L49.7433 77.138L49.7526 77.1304L49.7585 77.1256L49.7662 77.1194L49.7726 77.1144L49.7799 77.1086L49.7865 77.1035L49.7938 77.0981L49.8005 77.0931L49.8077 77.0878L49.8145 77.0828L49.8217 77.0777L49.8285 77.0728L49.8357 77.0678L49.8426 77.0631L49.8499 77.0582L49.8567 77.0536L49.8643 77.0487L49.871 77.0444L49.8793 77.0391L49.8851 77.0354L49.8887 77.0332L49.8991 77.0269L49.9059 77.0229L49.9135 77.0184L49.9206 77.0143L49.928 77.0102L49.9352 77.0061L49.9425 77.0022L49.9499 76.9982L49.9571 76.9944L49.9645 76.9905L49.9717 76.9869L49.9792 76.9832L49.9864 76.9796L49.994 76.976L50.0011 76.9727L50.0088 76.9691L50.0159 76.9659L50.0236 76.9625L50.0308 76.9595L50.0385 76.9561L50.0446 76.9537L50.0529 76.9503L50.0609 76.9472L50.0678 76.9445L50.0759 76.9415L50.0828 76.939L50.0909 76.9361L50.0979 76.9337L50.106 76.9309L50.113 76.9286L50.1212 76.926L50.1282 76.9239L50.1364 76.9214L50.1434 76.9194L50.1517 76.917L50.1586 76.9152L50.167 76.9129L50.1737 76.9113L50.1824 76.9091L50.1887 76.9077L50.1977 76.9056L50.2021 76.9047L50.2127 76.9024L50.2236 76.9003L50.2276 76.8995L50.237 76.8979L50.2431 76.8969L50.2522 76.8954Z" fill="#9BC3D3"/>
<path fill-rule="evenodd" clip-rule="evenodd" d="M52.0931 72.797C51.9668 72.3247 51.7825 71.8832 51.5499 71.4779C50.3249 69.3478 47.7548 68.2279 45.2355 68.9109C42.6895 69.6014 39.551 70.8783 39.6126 75.0143L39.6127 75.0176L39.5994 76.6823L39.5894 77.8459L39.5854 78.3444L39.5854 78.3444L38.3459 79.8406C38.1061 80.163 38.3593 80.6108 38.7603 80.5735L46.3916 79.3864C46.5974 79.3673 46.8003 79.3273 46.9983 79.267C47.307 79.1729 47.8245 79.0106 48.4369 78.8001C48.6255 79.9573 48.9053 81.0977 49.2735 82.211L50.4623 85.8018C50.4669 85.8164 50.472 85.8302 50.4779 85.8442C50.558 86.0329 50.7396 86.1627 50.95 86.1767C51.1209 86.188 51.2821 86.1219 51.3946 86.0062C51.4654 85.9331 51.5166 85.8411 51.5399 85.7369L52.3119 82.2422C52.2068 81.8845 52.1107 81.5154 52.0256 81.1365L51.9464 81.1429L51.8046 81.6424L50.8796 84.8994L49.9727 82.0992C49.5975 80.9416 49.3182 79.7554 49.1371 78.5523C50.1789 78.1727 51.3516 77.693 52.2203 77.19C54.1971 76.0452 53.5128 75.5609 53.5128 75.5609C53.5128 75.5609 53.2958 75.6825 52.9167 75.8803L52.0934 72.7972L52.0931 72.797Z" fill="#F6C854"/>
<path fill-rule="evenodd" clip-rule="evenodd" d="M48.7088 78.0158C48.7088 78.0158 51.2844 77.1985 53.1243 76.3993L52.219 73.0107C52.0935 72.5413 51.9102 72.1025 51.6792 71.6997C51.3063 71.948 50.89 72.2537 50.482 72.6127C49.4243 73.5408 48.4233 74.8228 48.3891 76.3774C48.3778 76.8943 48.4727 77.4418 48.7088 78.0158Z" fill="#34466B"/>
<path fill-rule="evenodd" clip-rule="evenodd" d="M52.0957 107.777C46.0202 109.39 42.0328 109 35.6593 109.844C35.3455 107.86 35.312 108.547 34.8492 107.62C34.8492 107.62 45.0724 103.815 50.1455 102.066C51.0561 101.751 54.0168 97.3833 54.5697 97.4147C57.0981 97.5596 59.7005 100.316 58.0713 103.199C57.5594 104.105 52.3416 107.688 52.0957 107.777Z" fill="#F4A48D"/>
<path fill-rule="evenodd" clip-rule="evenodd" d="M30.2585 106.907C30.2626 106.905 30.2668 106.903 30.2711 106.902C30.9777 106.64 31.7722 106.37 32.3791 106.333C33.218 106.281 34.0695 106.688 34.8305 106.995L34.8736 106.979L39.0606 105.513L41.4375 109.657L36.4435 110.332C36.1895 110.645 35.9183 111.214 35.4829 111.322L32.8561 111.975C32.4929 112.065 31.7878 112.04 31.7029 111.674L31.4437 110.561C31.4223 110.469 31.8049 110.003 31.864 109.548L31.1404 109.756L29.6573 111.571C29.4903 111.774 27.8844 112.094 27.6445 111.987C27.6347 111.983 27.625 111.978 27.6157 111.973C27.3136 112.627 26.3208 112.179 26.6131 111.511L27.759 108.901C27.7716 108.873 27.7858 108.848 27.8006 108.823C27.84 108.73 27.938 108.608 28.0851 108.498L30.2117 106.923L30.2585 106.907Z" fill="#D39E00"/>
<path fill-rule="evenodd" clip-rule="evenodd" d="M53.8218 84.4207C58.8127 86.2395 60.8118 86.9018 62.6706 89.3744C66.388 94.3184 66.7096 99.0545 68.241 103.993C69.7724 108.931 68.9524 108.504 70.8164 112.077C66.3186 115.117 62.5299 116.657 57.8281 117.377C54.3015 113.999 53.0495 112.191 52.2273 108.041C47.3899 101.674 48.732 98.5409 48.4058 90.8243L53.8218 84.4207Z" fill="#F6C854"/>
<path fill-rule="evenodd" clip-rule="evenodd" d="M52.9513 82.7765C51.5161 86.0897 49.5824 87.9235 47.2977 89.7231L48.9138 93.072C52.5636 90.3599 53.8585 86.6565 54.4006 84.1548L52.9513 82.7765Z" fill="#D39E00"/>
<path fill-rule="evenodd" clip-rule="evenodd" d="M81.7212 127.721C80.863 127.27 80.1547 127.261 79.1016 127.832C78.221 128.31 78.1219 129.323 78.2892 131.134C78.5495 133.974 78.6026 135.182 76.5121 137.117C76.1717 137.431 76.0806 137.902 76.2824 138.733C76.2824 138.733 80.2619 139.086 81.263 138.553C82.0069 138.157 83.4842 135.463 83.4607 133.289C83.4514 132.462 83.0114 128.398 81.7212 127.721ZM54.3859 131.913L48.9019 132.408C46.3412 136.076 46.5098 135.749 42.7806 136.243C41.618 136.397 41.2428 136.645 41.2719 137.856C44.8497 138.125 55.2198 138.032 55.2198 138.032C55.4475 135.985 55.1206 133.96 54.3859 131.913Z" fill="#DEEDF2"/>
<path fill-rule="evenodd" clip-rule="evenodd" d="M41.593 115.227C41.5747 113.491 42.1578 111.902 45.0387 112.157L56.6346 113.609L59.9793 113.22L68.1998 115.266L68.6875 125.589C65.4774 126.576 57.5313 124.709 54.3854 123.312C53.6502 122.986 52.9391 122.689 52.2346 122.414L54.7962 132.172L47.5117 133.926L41.7038 116.683H41.7031C41.5765 116.178 41.5368 115.685 41.593 115.227Z" fill="#723846"/>
<path fill-rule="evenodd" clip-rule="evenodd" d="M58.1131 87.8391C60.9282 88.8963 62.3378 89.6192 63.6666 91.3826C66.9591 95.7555 67.2443 99.9439 68.6004 104.312C69.9569 108.679 69.2305 108.3 70.882 111.459C70.8773 111.487 70.8725 111.515 70.8676 111.543C71.7944 113.185 72.5112 114.691 73.0259 116.817C74.0431 121.025 72.4552 123.724 70.4043 127.432L73.1037 126.841L79.9351 127.272C81.5554 129.477 81.5995 131.168 80.0037 133.374L64.0854 138.009C60.5494 139.141 55.1741 139.441 56.097 135.473L56.1359 135.392C56.1612 134.83 56.3738 134.397 56.6162 133.654L60.116 122.932L58.1025 120.5L57.4067 115.853C54.5161 113.051 55.12 111.439 54.4161 107.89C54.0599 107.423 53.7424 106.975 53.4581 106.542C54.4372 105.811 54.2352 104.704 53.4364 101.434C52.5536 97.8156 53.2107 93.0542 55.1529 90.0659C55.8193 89.04 56.8121 88.1714 58.1131 87.8391ZM66.8005 101.752L64.1784 93.8143C58.6407 84.9437 53.6222 91.8552 55.6673 98.3236L58.632 104.543C60.088 107.554 62.5244 113.514 66.5441 111.499C70.1817 109.674 67.8554 104.943 66.8005 101.752Z" fill="#9E3667"/>
<path fill-rule="evenodd" clip-rule="evenodd" d="M53.039 110.833C54.1589 105.369 53.5447 102.729 54.1677 96.4101C54.6092 91.9216 55.9973 89.7193 59.1716 90.0955C64.849 90.7688 62.7469 101.897 62.1865 105.067C61.6151 108.292 59.7492 114.016 57.8872 116.281C57.707 116.54 57.481 116.766 57.2061 116.947C57.0574 117.054 56.9097 117.134 56.7638 117.184C56.7508 117.188 56.7378 117.191 56.7248 117.195C56.5159 117.276 56.2863 117.336 56.0355 117.372C50.0744 118.104 44.0601 116.303 37.9182 116.267C37.8816 114.349 38.16 113.972 37.8457 113.035C37.8457 113.035 47.4091 111.803 53.039 110.833Z" fill="#FFC4B8"/>
<path fill-rule="evenodd" clip-rule="evenodd" d="M38.208 112.884C37.3665 112.8 34.7194 111.62 33.5425 111.452C32.6994 111.333 32.6726 111.399 31.902 111.631C31.2881 111.817 30.364 111.983 30.2655 112.016C30.1188 112.066 28.9907 113.085 28.9907 113.085C28.5555 114.098 28.1675 114.539 28.641 114.829C28.9288 115.006 29.3047 114.632 30.0005 113.782L30.4815 113.462C30.1143 113.853 29.8148 114.141 29.7194 114.605C29.6346 115.014 29.6873 115.593 30.474 115.728C30.6625 115.759 30.655 115.595 30.7314 115.408L30.9367 114.91C31.5316 114.743 32.0564 114.572 32.6399 114.371C31.8562 114.702 31.3895 114.937 31.1704 115.181C30.8581 115.523 31.1177 115.84 31.3774 116.151C31.7409 116.588 32.2885 115.862 33.5089 115.536C33.1064 115.71 32.5039 115.907 32.2504 116.286C32.0083 116.648 32.4771 116.874 32.8284 116.905C34.1198 117.015 36.1414 116.992 37.4749 116.778C38.0935 116.679 38.5166 116.225 38.9321 116.262L41.1133 116.501L41.004 112.531L38.208 112.884Z" fill="#F6C854"/>
<path fill-rule="evenodd" clip-rule="evenodd" d="M63.0947 105.05L54.1872 103.505C54.2452 101.435 54.2656 99.2255 54.5762 96.1813C55.046 91.5845 56.52 89.3269 59.8919 89.7116C65.9229 90.4017 63.6905 101.803 63.0947 105.05Z" fill="#D39E00"/>
<path fill-rule="evenodd" clip-rule="evenodd" d="M62.1867 105.05L53.803 103.544C53.8579 101.527 53.8769 99.3713 54.1697 96.4029C54.6112 91.9206 55.9989 89.7197 59.1725 90.0954C64.8485 90.7681 62.747 101.884 62.1867 105.05Z" fill="#F6C854"/>
<path fill-rule="evenodd" clip-rule="evenodd" d="M106.985 96.6835L106.668 117.099L110.749 142.908L113.961 143.045L115.565 119.143L121.226 95.6279L106.985 96.6835Z" fill="#34466B"/>
<path fill-rule="evenodd" clip-rule="evenodd" d="M114.152 98.2356L117.132 118.29L124.29 143.045L127.355 142.749L125.878 119.022L127.463 95.2119L114.152 98.2356Z" fill="#34466B"/>
<path fill-rule="evenodd" clip-rule="evenodd" d="M120.106 55.3615C121.537 54.3855 122.5 52.7654 122.565 50.9038C122.674 47.7977 120.24 45.1878 117.134 45.0793C114.266 44.9792 111.821 47.0464 111.378 49.8091C111.307 50.0961 111.253 50.3868 111.212 50.678L111.212 50.6785L111.211 50.6849L111.211 50.6871C111.199 50.7742 111.188 50.8614 111.178 50.9484L110.639 55.2776L111.511 55.6037L111.52 55.6061L111.52 55.6061C111.539 55.6826 111.55 55.7239 111.55 55.7239L111.553 56.3122L111.558 57.4117C111.561 57.7756 111.624 58.1343 111.745 58.4737C111.829 58.7132 111.943 58.9437 112.085 59.159C112.252 59.4116 112.454 59.6401 112.681 59.835C112.799 59.9373 112.926 60.0292 113.058 60.1118C113.128 60.1557 113.198 60.1961 113.271 60.2344L113.272 60.2346L112.653 67.081C112.653 67.081 114.635 67.7543 116.844 67.3521C118.18 67.1115 119.6 66.4751 120.716 65.0619C120.716 65.0619 119.646 59.5534 120.106 55.3615Z" fill="#FFC4B8"/>
<path fill-rule="evenodd" clip-rule="evenodd" d="M116.826 67.2702C118.162 67.0296 119.582 66.3932 120.698 64.98C120.698 64.98 119.539 59.0771 120.149 54.838C120.149 54.838 116.783 62.2924 116.826 67.2702ZM111.511 55.6284C111.817 55.7298 112.129 55.4978 112.12 55.1762L112.063 53.1031L111.511 55.6284Z" fill="#F4A48D"/>
<path fill-rule="evenodd" clip-rule="evenodd" d="M121.631 54.6992C122.03 53.9425 123.093 52.5626 123.287 51.3218C123.72 48.5571 121.9 46.5886 121.083 45.9817C120.817 45.774 120.488 45.5788 120.036 45.3655C119.11 44.0025 116.947 43.7658 117.388 43.9896C111.824 43.1095 109.887 48.1019 108.305 47.7325C109.535 49.7452 111.009 49.5287 112.932 49.0868C113.706 49.9017 114.052 50.9297 114.068 51.9053C114.049 52.2187 113.992 52.9123 113.838 53.526C113.631 54.3481 114.24 54.6942 114.518 54.6145C114.796 54.5357 114.713 54.6274 115.281 53.9845C115.719 53.4894 115.858 53.1037 116.134 52.7404C116.649 52.2066 117.263 51.7538 117.79 51.9045C118.487 52.1057 118.269 53.3749 117.815 54.2809C117.572 54.7653 117.593 55.2576 117.735 55.5659C118.05 56.2467 118.68 55.8672 119.393 56.5026C119.975 57.0212 120.337 57.8869 120.619 58.2524C120.929 56.4557 121.035 55.8314 121.631 54.6992Z" fill="#DEEDF2"/>
<path fill-rule="evenodd" clip-rule="evenodd" d="M111.38 67.0285C111.38 67.0285 114.711 83.5013 97.3939 94.7952L99.2645 96.9566C99.2645 96.9566 119.828 93.6621 120.745 69.4537C120.745 69.4537 121.358 64.0799 116.276 62.4046C111.194 60.7289 111.38 67.0285 111.38 67.0285Z" fill="#F6C854"/>
<path fill-rule="evenodd" clip-rule="evenodd" d="M103.902 100.653C109.432 101.383 113.61 101.784 116.434 101.856C119.259 101.927 123.398 101.738 128.852 101.288C128.21 79.2954 125.348 65.7953 120.267 60.7879C120.267 60.7879 114.34 62.2619 112.252 62.0356C112.252 62.0356 109.469 74.9082 103.902 100.653Z" fill="#F6C854"/>
<path fill-rule="evenodd" clip-rule="evenodd" d="M122.27 76.9837C122.27 76.9837 112.85 84.8301 108.062 88.8968C103.273 92.9631 88.249 81.438 88.249 81.438L89.406 78.9767L104.139 82.695L115.19 71.9035C115.19 71.9035 118.772 68.1783 122.191 69.9259C122.414 70.0402 122.609 70.1698 122.777 70.3121C125.187 72.3457 122.27 76.9837 122.27 76.9837L101.107 70.8749Z" fill="#FFE99F"/>
<path fill-rule="evenodd" clip-rule="evenodd" d="M121.249 61.9556L115.368 65.2353L113.393 62.6232L112.32 63.9139L111.254 62.1312L112.761 60.8686C112.761 60.8686 112.98 61.8692 115.52 61.2353C118.076 60.5976 119.627 59.9735 119.627 59.9735L121.249 61.9556Z" fill="#34466B"/>
<path fill-rule="evenodd" clip-rule="evenodd" d="M87.1245 75.8461C86.5529 76.0293 87.3796 77.742 87.3796 77.742C87.3796 77.742 81.7981 79.4165 81.6869 80.0116C81.5758 80.607 88.8803 81.0303 88.8803 81.0303L89.9391 79.1991C89.9391 79.1991 87.6964 75.6629 87.1245 75.8461Z" fill="#FFC4B8"/>
<path fill-rule="evenodd" clip-rule="evenodd" d="M98.1354 94.7959C98.1354 94.7959 94.048 96.0079 94.0566 96.6415C94.0648 97.2747 95.9682 96.9498 95.9682 96.9498C95.9682 96.9498 91.6353 101.366 95.1455 100.509C96.9415 100.07 99.5966 96.4144 99.5966 96.4144L98.1354 94.7959Z" fill="#FFC4B8"/>
<path fill-rule="evenodd" clip-rule="evenodd" d="M110.788 141.915L113.856 141.916L114.092 145.955L109.509 146.221L106.59 146.241L107.074 143.997L110.788 141.915Z" fill="#DEEDF2"/>
<path fill-rule="evenodd" clip-rule="evenodd" d="M124.447 142.041L120.362 144.049L120.536 146.049L128.16 145.602L127.437 141.642L124.447 142.041Z" fill="#DEEDF2"/>
<path fill-rule="evenodd" clip-rule="evenodd" d="M125.672 49.3569C126.329 46.5793 125.1 43.6149 122.508 42.2315C119.888 40.8337 116.326 39.4745 113.155 43.0585L113.152 43.0614L111.845 44.4742L110.93 45.4612L110.539 45.8843L108.36 46.1955C107.912 46.2838 107.771 46.8643 108.128 47.1456L115.293 52.09C115.476 52.2343 115.674 52.3586 115.882 52.4617C116.208 52.6223 116.758 52.8876 117.423 53.1859C116.675 54.3225 116.016 55.5159 115.45 56.7553L113.257 60.8294C113.249 60.8456 112.758 61.8277 113.506 61.3285C113.631 61.2457 114.498 59.8714 116.109 57.2057C116.704 55.923 117.399 54.6908 118.188 53.5209C119.336 54.0098 120.669 54.5155 121.771 54.7638C124.279 55.3287 124.097 54.3803 124.097 54.3803C124.097 54.3803 123.825 54.3149 123.361 54.1879L125.089 50.9092C125.353 50.4065 125.547 49.885 125.672 49.3569Z" fill="#F6C854"/>
<path fill-rule="evenodd" clip-rule="evenodd" d="M118.254 52.7278C118.254 52.7278 120.997 54.0404 123.125 54.794L125.024 51.19C125.287 50.6907 125.479 50.1724 125.604 49.6477C125.105 49.5688 124.527 49.5051 123.913 49.4934C122.325 49.4609 120.508 49.7752 119.269 51.0775C118.857 51.5107 118.509 52.0528 118.254 52.7278Z" fill="#34466B"/>
</svg>
