<svg width="161" height="161" viewBox="0 0 161 161" fill="none" xmlns="http://www.w3.org/2000/svg">
<path fill-rule="evenodd" clip-rule="evenodd" d="M64.2423 124.297C63.8288 123.883 63.4233 123.465 63.0256 123.043C55.0179 114.532 44.4087 108.978 32.9113 106.89C25.9328 105.623 19.2554 102.293 13.8597 96.8987C-0.272691 82.7712 -0.288737 59.9887 13.8246 45.8418C20.0505 39.6013 27.9893 36.1142 36.1297 35.3793C43.0988 34.7501 49.6465 31.7098 54.4816 26.6516C54.5439 26.5865 54.6067 26.5218 54.6695 26.4576C62.9177 18.0438 76.2605 17.9606 84.6087 26.2744C84.6566 26.3218 84.7041 26.3697 84.751 26.4177C86.9811 28.6807 90.1999 29.669 93.3188 29.0635C111.101 25.6107 130.224 30.7699 143.996 44.5419C166.003 66.5478 166.003 102.291 143.996 124.297C121.973 146.32 86.2658 146.32 64.2423 124.297Z" fill="#DEEDF2"/>
<path fill-rule="evenodd" clip-rule="evenodd" d="M100.503 117.494C106.55 119.574 108.212 123.394 114.537 124.427C127.241 126.503 157.072 127.117 157.662 130.176C158.823 136.198 148.759 139.416 125.547 142.201C126.048 142.613 122.72 150.148 104.006 151.849C96.6008 152.523 84.1802 151.852 79.4168 150.381C72.0952 148.119 64.4902 146.903 56.8291 146.73C29.5808 146.113 8.21368 143.019 7.96338 138.341C7.87943 136.777 9.45264 134.61 11.9171 133.349C13.4526 132.564 11.198 131.902 10.6744 131.714C4.24434 129.399 0.637466 126.816 0.506027 124.764C0.0939636 118.326 23.8278 111.945 51.588 110.459C70.4999 109.446 90.4096 114.021 100.503 117.494Z" fill="#DEEDF2"/>
<path fill-rule="evenodd" clip-rule="evenodd" d="M130.058 29.0088C130.678 29.0772 131.202 29.5171 131.369 30.1309L136.058 50.4728C136.123 50.8062 136.105 50.916 136.065 51.095L146.421 66.2545L148.858 66.2548V76.9086H121.371V66.2548L123.276 66.2545L133.368 51.4822C133.307 51.3698 133.26 51.2496 133.226 51.1252L128.537 30.7833C128.475 30.4553 128.493 30.3956 128.516 30.244C128.606 29.6364 129.116 29.1157 129.733 29.0213C129.94 28.9902 129.991 29.0064 130.058 29.0088ZM134.222 52.2956L134.849 51.3778C131.462 56.3371 128.074 61.2965 124.687 66.2549L134.259 66.2548L134.222 52.2956ZM135.385 52.1628L135.382 50.7972C135.396 55.9493 135.409 61.1023 135.423 66.2548L145.013 66.2545L135.385 52.1628Z" fill="#CEDEE7"/>
<path fill-rule="evenodd" clip-rule="evenodd" d="M126.719 13.3016C127.079 13.4606 127.415 13.6719 127.596 14.0111C127.657 14.1242 127.686 14.251 127.732 14.3715L131.365 30.1306C131.376 30.2685 131.407 30.4052 131.4 30.5431C131.335 31.6242 129.823 32.3636 128.934 31.4974C128.667 31.2353 128.664 31.1209 128.533 30.7829L125.728 18.62L62.8522 127.529L87.5636 127.529V138.925H47.041V127.529L59.525 127.53C59.5471 127.478 59.5719 127.42 59.5991 127.352L125.057 13.9714C125.297 13.6595 125.584 13.3848 125.956 13.2904C126.203 13.227 126.464 13.2631 126.719 13.3016Z" fill="#9BC3D3"/>
<path fill-rule="evenodd" clip-rule="evenodd" d="M45.7876 78.9002C45.4775 78.9343 45.2153 79.1543 45.1321 79.4612L42.7872 89.6322C42.7551 89.7986 42.764 89.8536 42.7839 89.943L43.3921 89.0531C41.4633 91.8763 39.5344 94.6999 37.6056 97.5232L36.3875 97.5231V102.85H50.1309V97.5231L49.1787 97.523L44.1326 90.1369C44.1627 90.0806 44.1864 90.0205 44.2032 89.9584L46.5481 79.7874C46.5791 79.6234 46.5698 79.5936 46.5586 79.5178C46.5133 79.2139 46.2585 78.9536 45.9497 78.9064C45.8466 78.8909 45.8211 78.8989 45.7876 78.9002ZM43.7057 90.5435L43.3918 90.0846C45.0854 92.5644 46.7795 95.0441 48.4732 97.5234L43.6872 97.5231L43.7057 90.5435ZM43.1254 90.477L43.1272 89.7943C43.1204 92.3705 43.1136 94.947 43.1065 97.5233L38.3119 97.523L43.1254 90.477Z" fill="#CEDEE7"/>
<path fill-rule="evenodd" clip-rule="evenodd" d="M47.6513 70.6322C47.4711 70.7118 47.3034 70.8174 47.2127 70.987C47.1822 71.0435 47.1679 71.1069 47.1449 71.1672L45.3282 79.0467C45.3226 79.1157 45.3071 79.184 45.3108 79.253C45.3431 79.7935 46.0993 80.1632 46.5435 79.7302C46.6771 79.5991 46.679 79.5419 46.7442 79.3729L48.1465 73.2915L79.5848 127.746L67.2289 127.746V133.444H87.4902V127.746L81.2485 127.747C81.2373 127.721 81.2249 127.692 81.2112 127.658L48.482 70.9671C48.3621 70.8112 48.2186 70.6739 48.0328 70.6266C47.9092 70.595 47.7787 70.613 47.6513 70.6322Z" fill="#9BC3D3"/>
<path fill-rule="evenodd" clip-rule="evenodd" d="M107.346 22.0735C106.469 14.8637 100.402 9.28174 93.0476 9.28174C85.0914 9.28174 78.6413 15.8155 78.6413 23.8757C78.6413 25.198 78.8148 26.4793 79.1404 27.6973C79.0181 27.6989 78.8968 27.7033 78.7762 27.7105L78.6406 27.6992V27.7196C74.5142 28.0337 71.2617 31.5253 71.2617 35.7862C71.2617 40.0471 74.5142 43.5388 78.6406 43.8529V43.877H131.092V43.8762H131.092C134.307 43.8762 136.914 41.2353 136.914 37.978C136.914 34.7207 134.307 32.0801 131.092 32.0801H131.092V32.0799L117.803 30.97C117.864 30.5679 117.896 30.1561 117.896 29.7369C117.896 25.2692 114.321 21.6473 109.91 21.6473C109.013 21.6473 108.151 21.7971 107.346 22.0735Z" fill="#DEEDF2"/>
<path fill-rule="evenodd" clip-rule="evenodd" d="M28.7461 45.3437C29.5019 39.199 34.7338 34.4417 41.075 34.4417C47.9354 34.4417 53.4972 40.0102 53.4972 46.8797C53.4972 48.0067 53.3476 49.0986 53.0668 50.1367C53.1723 50.1381 53.2769 50.1419 53.3808 50.148L53.4978 50.1383V50.1557C57.0558 50.4234 59.8604 53.3993 59.8604 57.0307C59.8604 60.6622 57.0558 63.638 53.4978 63.9057V63.9263H8.27003C5.49761 63.9256 3.25 61.6748 3.25 58.8987C3.25 56.1226 5.49761 53.8721 8.26988 53.8721L19.7287 52.9259C19.6764 52.5833 19.6492 52.2323 19.6492 51.875C19.6492 48.0673 22.7319 44.9805 26.5347 44.9805C27.3083 44.9805 28.052 45.1082 28.7461 45.3437Z" fill="#EAF7FE"/>
<path fill-rule="evenodd" clip-rule="evenodd" d="M48.7314 84.1724C49.5607 82.7753 49.7376 81.0156 49.0547 79.4068C47.9153 76.7226 44.8109 75.4683 42.1266 76.6077C39.6481 77.6598 38.3888 80.3871 39.1073 82.9121C39.1609 83.1842 39.2301 83.4529 39.3111 83.7166L39.3112 83.7171L39.3127 83.723L39.3134 83.725C39.3377 83.8038 39.363 83.8822 39.3893 83.96L40.6474 87.8552L41.5182 87.7868L41.5269 87.7852L41.527 87.7852C41.5736 87.8426 41.5991 87.8735 41.5991 87.8735L41.8354 88.3724L42.2756 89.3054C42.4218 89.6139 42.6181 89.8937 42.8552 90.1345C43.0218 90.3047 43.2104 90.4555 43.4164 90.5822C43.6583 90.7309 43.9204 90.8453 44.191 90.9209C44.3322 90.9609 44.4761 90.989 44.6216 91.0067C44.6986 91.0162 44.7742 91.0228 44.8514 91.0264L44.8519 91.0264L47.0407 97.0935C47.0407 97.0935 48.9926 96.8804 50.712 95.6622C51.7522 94.928 52.7075 93.8237 53.096 92.1796C53.096 92.1796 50.0019 87.9197 48.7314 84.1724Z" fill="#FFC4B8"/>
<path fill-rule="evenodd" clip-rule="evenodd" d="M50.5174 95.5994C51.6128 94.8318 52.6307 93.6954 53.0779 92.0344C53.0779 92.0344 49.7675 87.5592 48.6744 83.7346C48.6744 83.7346 48.5573 91.43 50.5174 95.5994ZM41.5045 87.8078C41.8171 87.7636 42.0066 87.4355 41.8738 87.1682L41.018 85.4452L41.5045 87.8078Z" fill="#F4A48D"/>
<path fill-rule="evenodd" clip-rule="evenodd" d="M47.8119 81.1798C47.8712 81.1706 47.9313 81.168 47.9919 81.1723C48.6625 81.2207 49.1403 82.1085 49.0581 83.1537C49.02 83.6381 48.7956 83.9309 48.6498 84.3929C48.5801 84.6136 48.5331 84.8906 48.5331 84.8906L48.8392 85.198C49.5368 84.2939 49.9886 83.1851 50.0837 81.9662C50.1584 81.0154 50.0079 80.1003 49.6773 79.2718C49.4039 78.5868 49.0075 77.9605 48.5131 77.4234C47.9311 76.7909 47.2131 76.2809 46.4004 75.9408C45.8071 75.6919 45.1622 75.5335 44.4832 75.4846C42.6739 75.3544 40.9874 76.0249 39.7771 77.195C39.2736 77.6808 38.853 78.2527 38.5402 78.8905C38.4783 79.0147 38.4212 79.1419 38.3689 79.2715L38.3622 80.3808L38.8913 80.8851L40.5128 80.1025L43.2089 78.8018L43.8104 79.7999L44.9239 81.6468L45.0097 81.7893C44.694 82.9226 44.1925 84.8429 44.2269 85.4894C44.2467 85.8624 45.1559 86.6767 45.6496 86.5519C46.1407 86.4279 47.178 84.7588 47.189 84.7411C46.8017 84.4078 46.5684 83.7343 46.6278 82.9785L46.628 82.9763L46.6298 82.9547L46.6305 82.9474L46.6319 82.9313L46.6328 82.9226L46.6342 82.908L46.6352 82.8987L46.6367 82.8847L46.6378 82.8752L46.6394 82.8615L46.6405 82.852L46.6422 82.8383L46.6434 82.8289L46.6452 82.815L46.6465 82.8059L46.6485 82.7915L46.6497 82.783L46.6521 82.7672L46.6531 82.7603L46.6566 82.738L46.6566 82.7377L46.6604 82.715L46.6615 82.7089L46.6643 82.6925L46.6658 82.6844L46.6684 82.6702L46.67 82.6614L46.6726 82.6479L46.6744 82.6388L46.677 82.6257L46.6789 82.6165L46.6816 82.6035L46.6835 82.5944L46.6863 82.5814L46.6883 82.5725L46.6913 82.5591L46.6932 82.5507L46.6965 82.5364L46.6983 82.529L46.7024 82.5119L46.7035 82.5074L46.709 82.4859L46.71 82.4816L46.7145 82.4645L46.7165 82.4572L46.7202 82.4433L46.7225 82.4351L46.726 82.4222L46.7285 82.4136L46.7321 82.4012L46.7346 82.3924L46.7382 82.3802L46.7409 82.3715L46.7446 82.3593L46.7472 82.3508L46.7511 82.3384L46.7537 82.3302L46.7579 82.3173L46.7604 82.3097L46.7651 82.2954L46.7671 82.2894L46.7741 82.2692L46.7743 82.2686L46.7811 82.2491L46.7834 82.2428L46.7883 82.2292L46.7912 82.2216L46.7957 82.2094L46.7987 82.2014L46.8032 82.1898L46.8064 82.1815L46.8108 82.1702L46.8141 82.1619L46.8186 82.1507L46.8219 82.1425L46.8266 82.1313L46.8299 82.1233L46.8348 82.1118L46.838 82.1043L46.8433 82.0919L46.8461 82.0854L46.8531 82.0697L46.8544 82.0667L46.8629 82.0481L46.8653 82.0429L46.8715 82.0297L46.8748 82.0228L46.8802 82.0114L46.8838 82.0039L46.889 81.9932L46.8928 81.9856L46.898 81.9752L46.9019 81.9675L46.9071 81.9573L46.9111 81.9496L46.9164 81.9395L46.9203 81.932L46.9258 81.9217L46.9297 81.9145L46.9356 81.9038L46.9392 81.8972L46.946 81.885L46.9487 81.8801L46.9585 81.8632L46.9604 81.8597L46.9683 81.8464L46.9719 81.8403L46.9782 81.8298L46.9823 81.823L46.9882 81.8133L46.9926 81.8063L46.9984 81.797L47.0029 81.7899L47.0087 81.7808L47.0133 81.7738L47.0191 81.7648L47.0237 81.7579L47.0297 81.7489L47.0343 81.7421L47.0405 81.733L47.0449 81.7266L47.0518 81.7168L47.0556 81.7113L47.0652 81.6979L47.0665 81.6961L47.0773 81.6812L47.0812 81.6761L47.0883 81.6665L47.0929 81.6605L47.0995 81.6519L47.1044 81.6456L47.1107 81.6374L47.1158 81.6311L47.1221 81.6232L47.1272 81.6168L47.1335 81.6091L47.1387 81.6028L47.1451 81.5951L47.1503 81.589L47.1569 81.5813L47.162 81.5754L47.1689 81.5674L47.1737 81.562L47.1818 81.5529L47.1856 81.5488L47.1973 81.536L47.2014 81.5317L47.2093 81.5232L47.2144 81.518L47.2214 81.5107L47.2268 81.5051L47.2336 81.4983L47.2392 81.4927L47.2459 81.4861L47.2516 81.4805L47.2582 81.4741L47.264 81.4686L47.2707 81.4623L47.2765 81.4568L47.2833 81.4506L47.289 81.4454L47.2961 81.4391L47.3017 81.4341L47.3092 81.4275L47.3144 81.423L47.3256 81.4135L47.3269 81.4124L47.331 81.4091L47.3397 81.4018L47.3453 81.3973L47.3526 81.3914L47.3587 81.3867L47.3656 81.3813L47.3718 81.3765L47.3787 81.3713L47.385 81.3666L47.3918 81.3616L47.3982 81.3569L47.405 81.352L47.4115 81.3475L47.4183 81.3427L47.4248 81.3383L47.4317 81.3336L47.4382 81.3293L47.4453 81.3247L47.4516 81.3206L47.4595 81.3156L47.465 81.3121L47.4684 81.31L47.4782 81.3041L47.4846 81.3003L47.4918 81.296L47.4986 81.2922L47.5055 81.2882L47.5124 81.2844L47.5192 81.2807L47.5262 81.2769L47.533 81.2733L47.5401 81.2697L47.5468 81.2663L47.5539 81.2627L47.5607 81.2594L47.5679 81.256L47.5747 81.2528L47.5819 81.2495L47.5886 81.2464L47.5959 81.2432L47.6027 81.2403L47.61 81.2372L47.6158 81.2348L47.6236 81.2317L47.6311 81.2287L47.6376 81.2262L47.6453 81.2233L47.6519 81.2209L47.6595 81.2182L47.6661 81.2159L47.6738 81.2134L47.6804 81.2112L47.6881 81.2087L47.6947 81.2067L47.7025 81.2043L47.7091 81.2024L47.717 81.2002L47.7234 81.1985L47.7314 81.1964L47.7378 81.1948L47.7459 81.1928L47.7519 81.1914L47.7605 81.1894L47.7646 81.1885L47.7746 81.1864L47.7849 81.1844L47.7887 81.1837L47.7976 81.1821L47.8034 81.1811L47.8119 81.1798Z" fill="#9BC3D3"/>
<path fill-rule="evenodd" clip-rule="evenodd" d="M49.5509 77.3067C49.4315 76.8604 49.2573 76.443 49.0375 76.06C47.8796 74.0467 45.4506 72.9882 43.0694 73.6337C40.6631 74.2864 37.6968 75.4932 37.7549 79.4024L37.755 79.4055L37.7425 80.9789L37.733 82.0787L37.7293 82.5499L37.7293 82.5498L36.5577 83.964C36.3311 84.2687 36.5704 84.6919 36.9494 84.6567L44.1621 83.5347C44.3566 83.5166 44.5484 83.4788 44.7356 83.4218C45.0273 83.3329 45.5164 83.1795 46.0953 82.9806C46.2735 84.0743 46.538 85.1521 46.886 86.2044L48.0095 89.5982C48.0139 89.612 48.0187 89.625 48.0243 89.6383C48.1 89.8167 48.2716 89.9393 48.4705 89.9526C48.6321 89.9632 48.7843 89.9007 48.8907 89.7914C48.9576 89.7223 49.0061 89.6353 49.028 89.5369L49.7577 86.2338C49.6584 85.8958 49.5676 85.547 49.4871 85.1888L49.4123 85.1949L49.2782 85.6669L48.4039 88.7453L47.5468 86.0987C47.1922 85.0046 46.9282 83.8834 46.7571 82.7464C47.7417 82.3875 48.85 81.9342 49.6711 81.4588C51.5395 80.3767 50.8927 79.919 50.8927 79.919C50.8927 79.919 50.6876 80.034 50.3293 80.2209L49.5512 77.3069L49.5509 77.3067Z" fill="#F6C854"/>
<path fill-rule="evenodd" clip-rule="evenodd" d="M46.3522 82.239C46.3522 82.239 48.7865 81.4666 50.5255 80.7113L49.6699 77.5085C49.5512 77.0649 49.378 76.6501 49.1597 76.2694C48.8072 76.5041 48.4138 76.793 48.0282 77.1323C47.0285 78.0096 46.0823 79.2213 46.0501 80.6905C46.0394 81.1791 46.1291 81.6966 46.3522 82.239Z" fill="#34466B"/>
<path fill-rule="evenodd" clip-rule="evenodd" d="M49.5547 110.368C43.8125 111.893 40.0439 111.524 34.0199 112.322C33.7233 110.447 33.6917 111.096 33.2542 110.22C33.2542 110.22 42.9167 106.624 47.7116 104.971C48.5722 104.673 51.3705 100.545 51.8931 100.574C54.2828 100.711 56.7424 103.316 55.2026 106.042C54.7188 106.898 49.7872 110.284 49.5547 110.368Z" fill="#F4A48D"/>
<path fill-rule="evenodd" clip-rule="evenodd" d="M28.9185 109.546C28.9224 109.544 28.9264 109.542 28.9305 109.541C29.5983 109.293 30.3492 109.039 30.9228 109.003C31.7157 108.954 32.5205 109.339 33.2398 109.63L33.2805 109.614L37.2379 108.228L39.4844 112.145L34.7643 112.783C34.5242 113.079 34.2679 113.617 33.8564 113.719L31.3737 114.336C31.0304 114.421 30.364 114.397 30.2838 114.052L30.0388 112.999C30.0185 112.913 30.3802 112.472 30.436 112.042L29.7521 112.239L28.3504 113.954C28.1925 114.146 26.6747 114.448 26.4479 114.348C26.4387 114.344 26.4295 114.339 26.4207 114.334C26.1352 114.952 25.1968 114.528 25.4731 113.897L26.5561 111.43C26.5681 111.404 26.5814 111.38 26.5954 111.357C26.6327 111.269 26.7253 111.153 26.8643 111.05L28.8743 109.561L28.9185 109.546Z" fill="#D39E00"/>
<path fill-rule="evenodd" clip-rule="evenodd" d="M51.1895 88.293C55.9067 90.012 57.7961 90.6381 59.553 92.975C63.0664 97.6478 63.3704 102.124 64.8178 106.792C66.2652 111.459 65.4902 111.055 67.252 114.432C63.0008 117.306 59.42 118.761 54.9761 119.442C51.6429 116.249 50.4596 114.54 49.6824 110.617C45.1103 104.6 46.3789 101.639 46.0705 94.3454L51.1895 88.293Z" fill="#F6C854"/>
<path fill-rule="evenodd" clip-rule="evenodd" d="M50.3698 86.7391C49.0133 89.8706 47.1856 91.6038 45.0263 93.3047L46.5537 96.4699C50.0033 93.9066 51.2272 90.4063 51.7396 88.0418L50.3698 86.7391Z" fill="#D39E00"/>
<path fill-rule="evenodd" clip-rule="evenodd" d="M77.5549 129.218C76.7438 128.792 76.0743 128.783 75.079 129.323C74.2467 129.775 74.153 130.733 74.3111 132.444C74.5572 135.128 74.6074 136.27 72.6315 138.099C72.3098 138.396 72.2237 138.841 72.4145 139.626C72.4145 139.626 76.1756 139.96 77.1218 139.456C77.8249 139.081 79.2212 136.535 79.199 134.481C79.1902 133.699 78.7743 129.858 77.5549 129.218ZM51.7206 133.18L46.5374 133.648C44.1172 137.115 44.2765 136.806 40.7518 137.273C39.653 137.418 39.2984 137.652 39.3259 138.798C42.7074 139.051 52.5087 138.964 52.5087 138.964C52.724 137.029 52.415 135.115 51.7206 133.18Z" fill="#CEDEE7"/>
<path fill-rule="evenodd" clip-rule="evenodd" d="M39.628 117.409C39.6107 115.768 40.1618 114.267 42.8846 114.508L53.8446 115.881L57.0058 115.513L64.7753 117.446L65.2363 127.203C62.2023 128.136 54.692 126.371 51.7187 125.051C51.0238 124.742 50.3517 124.462 49.6859 124.203L52.107 133.425L45.222 135.082L39.7327 118.785H39.7321C39.6124 118.308 39.5748 117.842 39.628 117.409Z" fill="#732645"/>
<path fill-rule="evenodd" clip-rule="evenodd" d="M55.2414 91.5239C57.9021 92.5231 59.2343 93.2064 60.4903 94.8731C63.6022 99.0061 63.8717 102.965 65.1535 107.093C66.4355 111.22 65.749 110.863 67.3099 113.849C67.3055 113.875 67.3009 113.901 67.2963 113.928C68.1722 115.479 68.8498 116.903 69.3362 118.912C70.2977 122.889 68.7968 125.44 66.8584 128.945L69.4098 128.387L75.8664 128.793C77.3978 130.878 77.4395 132.477 75.9313 134.561L60.8861 138.942C57.544 140.012 52.4636 140.295 53.3358 136.545L53.3726 136.469C53.3965 135.938 53.5975 135.528 53.8266 134.826L57.1344 124.692L55.2313 122.393L54.5737 118.001C51.8416 115.353 52.4125 113.829 51.7471 110.475C51.4104 110.033 51.1104 109.61 50.8417 109.201C51.7671 108.51 51.5762 107.464 50.8212 104.373C49.9869 100.953 50.6078 96.453 52.4436 93.6286C53.0734 92.659 54.0117 91.838 55.2414 91.5239ZM63.4541 104.674L60.9758 97.1714C55.7418 88.7874 50.9987 95.3197 52.9316 101.433L55.7337 107.312C57.1098 110.157 59.4126 115.79 63.2118 113.886C66.6499 112.161 64.4512 107.69 63.4541 104.674Z" fill="#9E3667"/>
<path fill-rule="evenodd" clip-rule="evenodd" d="M50.4523 113.256C51.5108 108.092 50.9303 105.597 51.5191 99.6245C51.9364 95.3822 53.2484 93.3007 56.2485 93.6562C61.6145 94.2926 59.6278 104.811 59.0981 107.807C58.558 110.855 56.7944 116.264 55.0346 118.406C54.8643 118.65 54.6506 118.864 54.3909 119.035C54.2503 119.136 54.1107 119.212 53.9728 119.259C53.9605 119.262 53.9483 119.266 53.936 119.269C53.7385 119.346 53.5215 119.403 53.2844 119.436C47.6503 120.128 41.9659 118.426 36.1609 118.392C36.1263 116.579 36.3894 116.223 36.0924 115.337C36.0924 115.337 45.1312 114.173 50.4523 113.256Z" fill="#FFC4B8"/>
<path fill-rule="evenodd" clip-rule="evenodd" d="M36.4357 115.195C35.6403 115.116 33.1385 114 32.0261 113.842C31.2293 113.729 31.204 113.792 30.4756 114.011C29.8953 114.186 29.022 114.343 28.9289 114.375C28.7902 114.422 27.724 115.385 27.724 115.385C27.3126 116.342 26.9459 116.759 27.3935 117.034C27.6655 117.201 28.0207 116.847 28.6784 116.044L29.133 115.741C28.7859 116.11 28.5029 116.383 28.4128 116.821C28.3326 117.208 28.3824 117.755 29.1259 117.882C29.3041 117.912 29.297 117.757 29.3692 117.58L29.5632 117.11C30.1255 116.952 30.6215 116.791 31.173 116.601C30.4323 116.913 29.9913 117.135 29.7842 117.366C29.489 117.69 29.7343 117.989 29.9798 118.283C30.3234 118.696 30.8409 118.01 31.9943 117.702C31.6139 117.866 31.0445 118.052 30.8049 118.41C30.5761 118.753 31.0192 118.966 31.3512 118.995C32.5717 119.099 34.4825 119.077 35.7429 118.876C36.3275 118.782 36.7274 118.353 37.1201 118.388L39.1816 118.613L39.0783 114.861L36.4357 115.195Z" fill="#F6C854"/>
<path fill-rule="evenodd" clip-rule="evenodd" d="M59.9565 107.79L51.5375 106.33C51.5923 104.374 51.6116 102.286 51.9052 99.4083C52.3492 95.0636 53.7423 92.9299 56.9293 93.2935C62.6295 93.9457 60.5195 104.722 59.9565 107.79Z" fill="#D39E00"/>
<path fill-rule="evenodd" clip-rule="evenodd" d="M59.0983 107.791L51.1744 106.367C51.2263 104.46 51.2443 102.423 51.521 99.6177C51.9383 95.3812 53.2499 93.3011 56.2493 93.6561C61.6141 94.2919 59.6278 104.798 59.0983 107.791Z" fill="#F6C854"/>
<path fill-rule="evenodd" clip-rule="evenodd" d="M101.437 99.8837L101.137 119.179L104.994 143.572L108.03 143.703L109.546 121.111L114.896 98.886L101.437 99.8837Z" fill="#34466B"/>
<path fill-rule="evenodd" clip-rule="evenodd" d="M108.211 101.351L111.027 120.305L117.793 143.703L120.69 143.423L119.293 120.997L120.791 98.4929L108.211 101.351Z" fill="#34466B"/>
<path fill-rule="evenodd" clip-rule="evenodd" d="M113.838 60.828C115.19 59.9056 116.1 58.3744 116.162 56.6149C116.264 53.6792 113.964 51.2124 111.028 51.1099C108.318 51.0152 106.007 52.9691 105.588 55.5802C105.521 55.8515 105.47 56.1263 105.432 56.4015L105.431 56.4019L105.43 56.408L105.43 56.4101C105.419 56.4924 105.408 56.5748 105.399 56.657L104.89 60.7488L105.714 61.057L105.722 61.0593L105.722 61.0593C105.741 61.1315 105.751 61.1706 105.751 61.1706L105.754 61.7266L105.759 62.7659C105.761 63.1098 105.821 63.4488 105.935 63.7695C106.015 63.9959 106.123 64.2138 106.257 64.4173C106.414 64.656 106.605 64.872 106.82 65.0562C106.932 65.1529 107.051 65.2398 107.176 65.3178C107.243 65.3593 107.309 65.3975 107.378 65.4337L107.378 65.4339L106.794 71.9048C106.794 71.9048 108.666 72.5411 110.755 72.161C112.017 71.9335 113.359 71.3321 114.414 69.9964C114.414 69.9964 113.403 64.79 113.838 60.828Z" fill="#FFC4B8"/>
<path fill-rule="evenodd" clip-rule="evenodd" d="M110.739 72.0689C112.014 71.8469 113.369 71.2517 114.43 69.922C114.43 69.922 113.301 64.3445 113.87 60.3448C113.87 60.3448 110.68 67.3691 110.739 72.0689ZM105.713 61.0782C106.006 61.1752 106.305 60.9573 106.295 60.6536L106.233 58.6956L105.713 61.0782Z" fill="#F4A48D"/>
<path fill-rule="evenodd" clip-rule="evenodd" d="M115.281 60.2023C115.658 59.487 116.662 58.1829 116.846 57.0102C117.256 54.397 115.535 52.5365 114.763 51.963C114.511 51.7666 114.2 51.5821 113.773 51.3805C112.898 50.0923 110.854 49.8686 111.27 50.0801C106.012 49.2482 104.181 53.9668 102.685 53.6176C103.848 55.52 105.241 55.3154 107.059 54.8977C107.79 55.6679 108.118 56.6395 108.133 57.5616C108.115 57.8578 108.061 58.5133 107.915 59.0934C107.719 59.8705 108.296 60.1976 108.558 60.1222C108.821 60.0477 108.742 60.1344 109.279 59.5268C109.693 59.0588 109.824 58.6943 110.085 58.3509C110.572 57.8464 111.152 57.4184 111.65 57.5608C112.309 57.751 112.103 58.9506 111.674 59.8069C111.444 60.2648 111.464 60.73 111.599 61.0214C111.896 61.6648 112.491 61.3062 113.166 61.9068C113.716 62.3969 114.058 63.2151 114.324 63.5605C114.617 61.8624 114.717 61.2723 115.281 60.2023Z" fill="#CEDEE7"/>
<path fill-rule="evenodd" clip-rule="evenodd" d="M105.591 71.8552C105.591 71.8552 108.739 87.4245 92.3716 98.099L94.1396 100.142C94.1396 100.142 113.575 97.028 114.442 74.1474C114.442 74.1474 115.021 69.0684 110.218 67.4849C105.415 65.9012 105.591 71.8552 105.591 71.8552Z" fill="#F6C854"/>
<path fill-rule="evenodd" clip-rule="evenodd" d="M98.5225 103.636C103.749 104.325 107.697 104.704 110.367 104.772C113.037 104.84 116.949 104.661 122.104 104.236C121.497 83.4494 118.792 70.6897 113.99 65.957C113.99 65.957 108.388 67.3502 106.415 67.1363C106.415 67.1363 103.784 79.3028 98.5225 103.636Z" fill="#F6C854"/>
<path fill-rule="evenodd" clip-rule="evenodd" d="M115.883 81.2643C115.883 81.2643 106.98 88.6803 102.454 92.5239C97.9284 96.3673 83.7284 85.4743 83.7284 85.4743L84.8219 83.1479L98.7472 86.6624L109.192 76.4628C109.192 76.4628 112.578 72.9419 115.808 74.5936C116.019 74.7017 116.203 74.8241 116.363 74.9586C118.64 76.8807 115.883 81.2643 115.883 81.2643L95.8809 75.4906Z" fill="#FFE99F"/>
<path fill-rule="evenodd" clip-rule="evenodd" d="M114.919 67.0608L109.36 70.1605L107.493 67.6918L106.479 68.9117L105.472 67.2268L106.896 66.0333C106.896 66.0333 107.103 66.9791 109.504 66.3799C111.919 65.7772 113.385 65.1873 113.385 65.1873L114.919 67.0608Z" fill="#34466B"/>
<path fill-rule="evenodd" clip-rule="evenodd" d="M82.6651 80.1892C82.1249 80.3624 82.9062 81.9811 82.9062 81.9811C82.9062 81.9811 77.6309 83.5638 77.5258 84.1262C77.4208 84.689 84.3247 85.089 84.3247 85.089L85.3254 83.3583C85.3254 83.3583 83.2057 80.0161 82.6651 80.1892Z" fill="#FFC4B8"/>
<path fill-rule="evenodd" clip-rule="evenodd" d="M93.07 98.0996C93.07 98.0996 89.2068 99.2451 89.2149 99.8439C89.2226 100.442 91.0216 100.135 91.0216 100.135C91.0216 100.135 86.9264 104.309 90.2441 103.499C91.9415 103.085 94.4511 99.6293 94.4511 99.6293L93.07 98.0996Z" fill="#FFC4B8"/>
<path fill-rule="evenodd" clip-rule="evenodd" d="M105.031 142.634L107.931 142.635L108.154 146.453L103.822 146.704L101.064 146.723L101.521 144.602L105.031 142.634Z" fill="#CEDEE7"/>
<path fill-rule="evenodd" clip-rule="evenodd" d="M117.94 142.753L114.08 144.651L114.244 146.541L121.449 146.119L120.767 142.377L117.94 142.753Z" fill="#CEDEE7"/>
<path fill-rule="evenodd" clip-rule="evenodd" d="M119.096 55.153C119.717 52.5277 118.555 49.726 116.105 48.4184C113.629 47.0973 110.263 45.8126 107.265 49.2001L107.263 49.2028L106.027 50.5381L105.163 51.471L104.793 51.8709L102.733 52.165C102.31 52.2485 102.176 52.7972 102.514 53.0631L109.286 57.7362C109.459 57.8726 109.646 57.9901 109.843 58.0875C110.151 58.2393 110.67 58.4901 111.299 58.772C110.593 59.8462 109.969 60.9742 109.434 62.1456L107.362 65.9962C107.354 66.0115 106.89 66.9398 107.597 66.468C107.715 66.3897 108.535 65.0908 110.057 62.5713C110.619 61.359 111.277 60.1944 112.023 59.0886C113.107 59.5507 114.367 60.0286 115.409 60.2634C117.779 60.7973 117.607 59.9009 117.607 59.9009C117.607 59.9009 117.35 59.8391 116.911 59.719L118.545 56.6202C118.795 56.145 118.977 55.6522 119.096 55.153Z" fill="#F6C854"/>
<path fill-rule="evenodd" clip-rule="evenodd" d="M112.086 58.339C112.086 58.339 114.678 59.5795 116.689 60.2918L118.484 56.8855C118.732 56.4136 118.914 55.9238 119.032 55.4278C118.561 55.3532 118.014 55.293 117.434 55.2819C115.933 55.2513 114.216 55.5483 113.045 56.7792C112.655 57.1886 112.326 57.701 112.086 58.339Z" fill="#34466B"/>
</svg>
