<svg width="160" height="161" viewBox="0 0 160 161" fill="none" xmlns="http://www.w3.org/2000/svg">
<g clip-path="url(#clip0_1487_29054)">
<path fill-rule="evenodd" clip-rule="evenodd" d="M47.8372 48.8848C47.018 47.1122 46.5835 45.2586 46.5835 43.351C46.5835 30.6745 65.7737 20.3828 89.4106 20.3828C113.047 20.3828 132.238 30.6745 132.238 43.351C132.238 44.6081 132.049 45.8418 131.686 47.0442C147.394 47.3014 160 54.2216 160 62.7084C160 71.3578 146.907 78.38 130.78 78.38C128.075 78.38 122.968 78.3828 122.968 78.3828H27.0006V78.3353C11.9085 77.7258 0 70.957 0 62.7084C0 54.4598 11.9085 47.691 27.0006 47.0815V47.0423L27.3119 47.0698C27.9435 47.0479 28.5802 47.0368 29.2217 47.0368C33.1831 47.0368 36.9613 47.4604 40.4073 48.2278L47.8372 48.8848Z" fill="#DEEDF2"/>
<rect x="87.4258" y="99.3049" width="12.8144" height="29.1018" fill="#A66555"/>
<rect x="96.2891" y="99.3049" width="3.9521" height="29.1018" fill="#F4A48D"/>
<path fill-rule="evenodd" clip-rule="evenodd" d="M40.1211 122.02C40.1211 132.624 48.6733 141.221 59.2229 141.221C69.7725 141.221 78.3247 132.624 78.3247 122.02V98.4667H40.1211V122.02ZM76.3245 122.02C76.3245 131.419 68.8202 139.056 59.5057 139.208L59.2228 139.211C49.7779 139.211 42.1212 131.514 42.1212 122.02V100.477H76.3245V122.02Z" fill="#CC0000"/>
<ellipse cx="59.0408" cy="75.6523" rx="18.4431" ry="23.7725" fill="#990000"/>
<rect x="34.8516" y="70.323" width="48.503" height="27.7844" fill="#FFE99F"/>
<path fill-rule="evenodd" clip-rule="evenodd" d="M59.1031 82.916L83.3546 98.1075H34.8516L59.1031 82.916Z" fill="#FFE99F"/>
<path fill-rule="evenodd" clip-rule="evenodd" d="M59.1031 90.3118L83.3546 70.323H34.8516L59.1031 90.3118Z" fill="#F6C854"/>
<path fill-rule="evenodd" clip-rule="evenodd" d="M83.1556 70.323L61.5892 90.3118L59.9062 89.1998L83.1556 70.323Z" fill="#D39E00"/>
<path fill-rule="evenodd" clip-rule="evenodd" d="M34.8516 98.1074L53.892 86.314L36.8739 98.1074H34.8516Z" fill="#F6C854"/>
<path fill-rule="evenodd" clip-rule="evenodd" d="M83.3555 98.1074L64.315 86.314L81.3331 98.1074H83.3555Z" fill="#F6C854"/>
<path fill-rule="evenodd" clip-rule="evenodd" d="M78.3676 99.4246H122.275V67.1083C122.275 67.1083 121.713 61.2015 117.843 56.5459C113.974 51.8902 106.752 50.9216 106.752 50.9216H58.9219C58.9219 50.9216 68.2052 52.0556 72.4131 56.5459C76.621 61.0361 77.3652 67.1083 77.3652 67.1083V99.4246H78.3676Z" fill="#CC0000"/>
<path fill-rule="evenodd" clip-rule="evenodd" d="M77.499 69.2451H122.39V67.0298C122.335 66.5257 121.654 60.9525 117.964 56.5164C117.767 56.2788 117.56 56.0508 117.346 55.832H71.8398C72.0888 56.051 72.3257 56.279 72.5484 56.5164C76.7549 61.0015 77.499 67.0667 77.499 67.0667V69.2451Z" fill="#EC0000"/>
<path d="M78.322 69.7241V99.5445H39.8789V97.5431H76.3198V69.7241H78.322Z" fill="#EC0000"/>
<path d="M58.9806 50.9216C69.6212 50.9216 78.2672 59.435 78.4391 70.002L78.4417 70.3228H76.4354C76.4354 60.7125 68.6206 52.9218 58.9806 52.9218C49.437 52.9218 41.6823 60.5574 41.5282 70.0351L41.5258 70.3228H39.5195C39.5195 59.6078 48.2326 50.9216 58.9806 50.9216Z" fill="#EC0000"/>
<path fill-rule="evenodd" clip-rule="evenodd" d="M91.4862 43.4966V48.2896H85.66V81.0328C86.7023 81.6675 87.4072 82.8822 87.4072 84.2765C87.4072 86.3269 85.8828 87.9891 84.0024 87.9891C82.122 87.9891 80.5977 86.3269 80.5977 84.2765C80.5977 83.0423 81.1499 81.9488 81.9997 81.2738V43.4966H91.4862Z" fill="#732645"/>
<ellipse cx="84.0039" cy="84.1762" rx="2.20308" ry="2.40816" fill="white"/>
<ellipse cx="18.3832" cy="20.5988" rx="18.3832" ry="20.5988" transform="matrix(1 0 0 -1 39.8789 140.503)" fill="#EC0000"/>
<rect x="110.66" y="88.0474" width="1.78695" height="1.78695" fill="#EC0000"/>
<rect x="113.637" y="88.0474" width="1.78695" height="1.78695" fill="#EC0000"/>
<rect x="116.418" y="88.0474" width="1.78695" height="1.78695" fill="#EC0000"/>
<rect x="110.66" y="91.0256" width="1.78695" height="1.78695" fill="#EC0000"/>
<rect x="113.637" y="91.0256" width="1.78695" height="1.78695" fill="#EC0000"/>
<rect x="116.418" y="91.0256" width="1.78695" height="1.78695" fill="#EC0000"/>
<rect x="110.66" y="93.8054" width="1.78695" height="1.78695" fill="#EC0000"/>
<rect x="113.637" y="93.8054" width="1.78695" height="1.78695" fill="#EC0000"/>
<rect x="116.418" y="93.8054" width="1.78695" height="1.78695" fill="#EC0000"/>
</g>
<defs>
<clipPath id="clip0_1487_29054">
<rect width="160" height="120.838" fill="white" transform="translate(0 20.3828)"/>
</clipPath>
</defs>
</svg>
