<svg width="160" height="161" viewBox="0 0 160 161" fill="none" xmlns="http://www.w3.org/2000/svg">
<path fill-rule="evenodd" clip-rule="evenodd" d="M47.8372 76.2373C47.018 72.7749 46.5835 69.1542 46.5835 65.428C46.5835 40.6667 65.7737 20.5635 89.4106 20.5635C113.047 20.5635 132.238 40.6667 132.238 65.428C132.238 67.8836 132.049 70.2934 131.686 72.6422C147.394 73.1445 160 86.6619 160 103.24C160 120.135 146.907 133.851 130.78 133.851C128.075 133.851 122.968 133.857 122.968 133.857H27.0006V133.764C11.9085 132.573 0 119.352 0 103.24C0 87.1272 11.9085 73.9056 27.0006 72.715V72.6384L27.3119 72.6921C27.9435 72.6494 28.5802 72.6276 29.2217 72.6276C33.1831 72.6276 36.9613 73.4551 40.4073 74.9541L47.8372 76.2373Z" fill="#DEEDF2"/>
<rect x="87.4258" y="99.4856" width="12.8144" height="29.1018" fill="#A66555"/>
<rect x="96.2871" y="99.4856" width="3.9521" height="29.1018" fill="#F4A48D"/>
<path fill-rule="evenodd" clip-rule="evenodd" d="M40.1191 122.201C40.1191 132.805 48.6713 141.402 59.2209 141.402C69.7706 141.402 78.3227 132.805 78.3227 122.201V98.6479H40.1191V122.201ZM76.3227 122.201C76.3227 131.6 68.8185 139.238 59.5039 139.389L59.2211 139.392C49.7762 139.392 42.1195 131.695 42.1195 122.201V100.659H76.3227V122.201Z" fill="#2274C0"/>
<ellipse cx="59.0427" cy="75.833" rx="18.4431" ry="23.7725" fill="#1B4872"/>
<rect x="34.8496" y="70.5032" width="48.503" height="27.7844" fill="#FFE99F"/>
<path fill-rule="evenodd" clip-rule="evenodd" d="M59.1011 83.0962L83.3526 98.2877H34.8496L59.1011 83.0962Z" fill="#FFE99F"/>
<path fill-rule="evenodd" clip-rule="evenodd" d="M59.1011 90.4919L83.3526 70.5031H34.8496L59.1011 90.4919Z" fill="#F6C854"/>
<path fill-rule="evenodd" clip-rule="evenodd" d="M83.1517 70.5032L61.5853 90.492L59.9023 89.38L83.1517 70.5032Z" fill="#D39E00"/>
<path fill-rule="evenodd" clip-rule="evenodd" d="M34.8496 98.2878L53.89 86.4944L36.8719 98.2878H34.8496Z" fill="#F6C854"/>
<path fill-rule="evenodd" clip-rule="evenodd" d="M83.3535 98.2878L64.3131 86.4944L81.3312 98.2878H83.3535Z" fill="#F6C854"/>
<path fill-rule="evenodd" clip-rule="evenodd" d="M78.3676 99.6053H122.275V67.289C122.275 67.289 121.713 61.3822 117.843 56.7265C113.974 52.0709 106.752 51.1023 106.752 51.1023H58.9219C58.9219 51.1023 68.2052 52.2363 72.4131 56.7265C76.621 61.2168 77.3652 67.289 77.3652 67.289V99.6053H78.3676Z" fill="#2274C0"/>
<path fill-rule="evenodd" clip-rule="evenodd" d="M77.5009 69.4257H122.392V67.2105C122.337 66.7063 121.656 61.1331 117.966 56.6971C117.768 56.4595 117.562 56.2315 117.348 56.0127H71.8418C72.0908 56.2317 72.3277 56.4597 72.5504 56.6971C76.7569 61.1822 77.5009 67.2474 77.5009 67.2474V69.4257Z" fill="#2A8FEC"/>
<path d="M78.324 69.9048V99.7251H39.8809V97.7238H76.3217V69.9048H78.324Z" fill="#2A8FEC"/>
<path d="M58.9826 51.1023C69.6231 51.1023 78.2692 59.6157 78.441 70.1827L78.4436 70.5035H76.4373C76.4373 60.8931 68.6226 53.1024 58.9826 53.1024C49.439 53.1024 41.6843 60.7381 41.5301 70.2157L41.5278 70.5035H39.5215C39.5215 59.7885 48.2345 51.1023 58.9826 51.1023Z" fill="#2A8FEC"/>
<path fill-rule="evenodd" clip-rule="evenodd" d="M91.4901 43.6763V48.4693H85.6639V81.2125C86.7062 81.8472 87.4111 83.0619 87.4111 84.4562C87.4111 86.5066 85.8867 88.1687 84.0063 88.1687C82.1259 88.1687 80.6016 86.5066 80.6016 84.4562C80.6016 83.222 81.1538 82.1285 82.0036 81.4535V43.6763H91.4901Z" fill="#732645"/>
<ellipse cx="84.0058" cy="84.3564" rx="2.20308" ry="2.40816" fill="white"/>
<ellipse cx="18.3832" cy="20.5988" rx="18.3832" ry="20.5988" transform="matrix(1 0 0 -1 39.8809 140.683)" fill="#2A8FEC"/>
<rect x="110.656" y="88.2278" width="1.78695" height="1.78695" fill="#2A8FEC"/>
<rect x="113.635" y="88.2278" width="1.78695" height="1.78695" fill="#2A8FEC"/>
<rect x="116.414" y="88.2278" width="1.78695" height="1.78695" fill="#2A8FEC"/>
<rect x="110.656" y="91.2061" width="1.78695" height="1.78695" fill="#2A8FEC"/>
<rect x="113.635" y="91.2061" width="1.78695" height="1.78695" fill="#2A8FEC"/>
<rect x="116.414" y="91.2061" width="1.78695" height="1.78695" fill="#2A8FEC"/>
<rect x="110.656" y="93.9858" width="1.78695" height="1.78695" fill="#2A8FEC"/>
<rect x="113.635" y="93.9858" width="1.78695" height="1.78695" fill="#2A8FEC"/>
<rect x="116.414" y="93.9858" width="1.78695" height="1.78695" fill="#2A8FEC"/>
</svg>
