<svg width="160" height="160" viewBox="0 0 160 160" fill="none" xmlns="http://www.w3.org/2000/svg">
<mask id="mask0_1487_19668" style="mask-type:luminance" maskUnits="userSpaceOnUse" x="0" y="16" width="160" height="120">
<rect y="16" width="160" height="119.04" fill="white"/>
</mask>
<g mask="url(#mask0_1487_19668)">
<rect y="16" width="160" height="119.04" fill="white"/>
<mask id="mask1_1487_19668" style="mask-type:luminance" maskUnits="userSpaceOnUse" x="16" y="28" width="131" height="92">
<path fill-rule="evenodd" clip-rule="evenodd" d="M66.9157 106.832C66.5743 106.522 66.2387 106.208 65.9087 105.891C59.2809 99.506 50.5001 95.3383 40.9837 93.7737C35.1158 92.8437 29.6407 90.2408 25.215 86.2772C13.5179 75.6775 13.5047 58.5839 25.186 47.9698C30.3064 43.3898 36.7966 40.6299 43.6474 40.1191C49.4155 39.6468 54.835 37.3658 58.8367 33.5706C58.8882 33.5217 58.94 33.4732 58.9921 33.4251C65.8187 27.1104 76.8626 27.0499 83.772 33.2877C83.8115 33.3233 83.8508 33.3591 83.8898 33.3952C85.8208 35.1152 88.4375 35.8478 90.981 35.3805C105.699 32.7898 121.526 36.6605 132.926 46.994C151.14 63.506 151.14 90.3224 132.926 106.834C114.697 123.357 85.1433 123.357 66.9148 106.834" fill="white"/>
</mask>
<g mask="url(#mask1_1487_19668)">
<path d="M15.6211 27.9116H147.401V119.962H15.6211V27.9116Z" fill="#DEEDF2"/>
</g>
<path fill-rule="evenodd" clip-rule="evenodd" d="M89.3865 100.005C115.21 101.873 138.399 106.405 138.748 110.373C139.098 114.341 131.091 123.776 75.2997 121.777C19.5087 119.779 14.7092 108.046 22.8623 104.91C31.0155 101.774 44.5711 100.959 44.5711 100.959C44.5711 100.959 63.5629 98.1384 89.3865 100.005Z" fill="#CEDEE7"/>
<path fill-rule="evenodd" clip-rule="evenodd" d="M37.258 69.6764C37.258 69.6764 34.7027 70.6837 35.4199 72.1809C36.1372 73.6781 37.258 73.9 37.258 73.9C37.258 73.9 38.0115 83.7602 38.6302 86.2878C39.2488 88.8154 41.8639 99.6851 41.8639 99.6851L43.5019 107.347C43.5019 107.347 43.8893 109.132 47.2954 110.217C53.4612 112.127 59.9884 112.569 66.3554 111.506C75.1823 110.098 75.6781 107.782 75.9891 106.932C76.3002 106.082 81.3122 60.4352 81.3122 60.4352L78.0627 58.8036C78.0627 58.8036 78.9131 58.1005 77.2947 58.0041C75.6764 57.9076 65.7606 57.2207 65.7606 57.2207L63.9034 58.8036C63.9034 58.8036 52.4354 60.3396 47.3423 62.4934C42.2492 64.6473 37.258 69.6764 37.258 69.6764Z" fill="#9BC3D3"/>
<path d="M37.1823 70.3278C37.1823 70.3278 35.2231 71.5344 38.4303 73.0431C41.6376 74.5518 50.7525 75.4192 59.4821 73.6784C68.2117 71.9376 67.7329 70.757 67.7329 70.757L66.9649 68.9377L44.163 65.4126L37.1823 70.3278Z" fill="#137E84"/>
<path d="M45.6556 58.904C45.6556 58.904 42.977 58.6352 41.8583 58.904C40.7396 59.1728 38.1211 60.0734 38.1211 60.0734C38.1211 60.0734 37.9628 58.3732 38.1211 57.9828C38.2794 57.5924 39.3371 56.8308 39.3371 56.8308L38.4898 53.3428C38.4898 53.3428 40.2353 52.4493 41.0545 52.4656C41.8737 52.4818 43.536 52.4656 43.536 52.4656L44.1491 55.9344C44.1491 55.9344 45.5016 56.745 45.6569 56.8303C45.8122 56.9157 45.6556 58.904 45.6556 58.904Z" fill="#EC0000"/>
<path d="M38.0479 60.0732C38.0479 60.0732 36.0763 63.6896 36.7001 66.8401C37.3239 69.9906 37.6789 71.4174 37.6789 71.4174C37.832 71.8155 38.088 72.1658 38.4209 72.4324C38.909 72.8403 39.7862 73.1241 40.7142 73.4803C42.0706 74.0013 44.0985 74.2364 46.7485 74.367C48.3617 74.4325 49.9546 73.9895 51.3023 73.1006C51.3023 73.1006 52.6451 69.2721 51.3023 65.7828C49.9596 62.2936 50.2783 60.9956 48.2888 60.0728C47.194 59.565 45.8009 58.6648 43.3535 58.7582C41.585 58.8243 38.6811 59.8108 38.0475 60.0728" fill="#3366FF"/>
<path fill-rule="evenodd" clip-rule="evenodd" d="M66.1216 28.2808H62.7812L99.7447 99.6356L102.859 98.313L66.1216 28.2808Z" fill="#34466B"/>
<path fill-rule="evenodd" clip-rule="evenodd" d="M99.6578 99.787C99.6578 99.787 100.395 98.6439 101.329 98.2885C101.998 98.0881 102.712 98.0881 103.381 98.2885L104.997 101.412C104.997 101.412 107.018 100.9 107.129 101.412C107.24 101.924 106.105 102.862 104.453 103.75C102.802 104.637 100.08 105.325 99.6578 104.662C99.2358 103.999 101.329 102.749 101.329 102.749L99.6578 99.787Z" fill="#1BB3BC"/>
<path d="M38.6944 64.4796L39.0554 67.5627L41.292 72.3781C41.292 72.3781 43.3946 73.9192 43.2747 73.0769C43.1548 72.2347 41.0347 67.1668 41.292 65.5143C41.5493 63.8618 43.9292 63.5811 43.9292 63.5811L47.5218 74.3702C47.5218 74.3702 45.1158 74.2597 43.2747 73.9789C42.1654 73.8095 41.0806 73.5067 40.044 73.0769L37.5625 67.5627L38.6944 64.4796Z" fill="#34466B"/>
<path fill-rule="evenodd" clip-rule="evenodd" d="M99.5997 104.927C99.5997 104.927 98.0637 104.885 96.7602 104.927C94.7883 105.073 92.8468 105.496 90.9929 106.184C89.1873 106.898 85.1075 109.433 83.9337 109.633C82.76 109.834 77.8422 110.931 76.8204 110.572C76.0439 110.372 75.2292 110.372 74.4528 110.572L73.7031 112.371C73.7031 112.371 76.6275 112.439 78.6119 112.371C79.0049 112.358 79.4141 112.331 79.9474 112.286C81.4514 112.158 82.9925 111.894 82.9925 111.894C84.2122 111.543 85.4039 111.101 86.5577 110.572C87.9897 109.692 89.4713 108.895 90.9951 108.186C92.892 107.352 96.0417 106.184 96.0417 106.184C96.0417 106.184 91.9606 108.556 90.9951 109.069C90.0295 109.582 86.8321 111.917 85.6886 111.893C84.5452 111.869 79.9495 113.334 79.9495 113.334C79.9495 113.334 79.7187 114.93 80.6454 115.025C81.5721 115.12 84.8972 113.334 84.8972 113.334L83.9359 115.025C83.9359 115.025 84.8033 116.654 85.6882 116.26C86.5731 115.865 88.5298 115.025 88.5298 115.025C88.5298 115.025 89.451 116.7 90.2672 116.26C91.0834 115.819 91.9875 113.789 91.9875 113.789C91.9875 113.789 92.3907 114.48 92.8929 114.6C93.3951 114.72 93.7556 116.807 94.6205 116.26C95.4853 115.713 95.8608 116.419 96.7619 116.26C97.5477 116.084 98.1185 115.404 98.155 114.6C98.1144 114.057 98.6802 111.893 98.6802 111.893C98.6802 111.893 99.7541 114.203 99.6014 114.6C99.4486 114.997 98.5565 116.171 99.6014 116.26C100.646 116.349 101.764 117.001 101.986 116.26C102.188 115.751 102.546 115.318 103.01 115.025C103.297 115.662 103.874 116.122 104.559 116.26C105.665 116.431 106.453 115.791 106.604 115.025C106.754 114.26 107.412 111.151 107.412 111.151C107.737 111.992 107.889 112.889 107.859 113.79C107.803 115.263 108.184 116.333 109.403 116.752C110.048 117.013 110.77 117.013 111.415 116.752C111.415 116.752 111.529 116.726 110.596 115.678C109.663 114.629 109.359 114.205 109.401 113.334C109.444 112.464 109.401 110.572 109.401 110.572C109.401 110.572 110.67 112.55 110.596 113.334C110.522 114.119 112.285 116.274 113.462 116.752C114.534 117.116 115.637 117.383 116.757 117.551L116.1 116.26C116.1 116.26 117.261 117.198 117.729 116.26C118.197 115.321 119.545 116.729 120.143 116.752C120.7 116.691 121.241 116.524 121.736 116.26V113.789C121.736 113.789 120.661 115.215 120.143 114.6C119.624 113.985 117.729 113.335 117.729 113.335C118.532 113.408 119.34 113.408 120.143 113.335C120.749 113.194 123.531 112.524 123.968 113.335C124.406 114.145 126.047 116.065 126.692 115.678C127.336 115.291 127.82 113.335 127.82 113.335C127.82 113.335 126.099 113.83 125.474 112.808C124.848 111.787 124.011 110.32 123.039 109.634C122.067 108.947 116.101 106.184 116.101 106.184C116.101 106.184 112.611 104.544 111.417 103.644C110.222 102.744 109.843 101.758 108.796 101.262C107.749 100.766 104.56 102.227 104.56 102.227L99.5997 104.927Z" fill="#FFE99F"/>
<path fill-rule="evenodd" clip-rule="evenodd" d="M63.6476 72.4542C63.6476 72.4542 56.6788 69.6715 56.6831 67.3948C56.6874 65.1181 55.77 60.1569 54.1969 59.3014C52.6238 58.4459 49.0202 56.0664 49.0202 56.0664C48.1801 56.5783 47.3004 57.0219 46.3893 57.3929C45.6587 57.5749 44.8945 57.5749 44.1638 57.3929C43.3292 58.3986 42.6872 59.5497 42.2703 60.7883C41.6776 62.6938 41.1968 64.9697 41.6546 66.0252C42.1124 67.0808 45.0483 74.2637 45.0483 74.2637C46.9333 74.4191 48.8265 74.451 50.7157 74.3593C53.8692 74.2083 55.3877 73.9975 57.539 73.7257C59.6012 73.4386 61.642 73.0138 63.6476 72.4542Z" fill="#F6C854"/>
<path d="M48.1295 53.0935L49.0136 55.9782C49.0136 55.9782 48.9773 57.2949 46.9839 57.7502C44.9906 58.2054 43.9875 57.0159 43.9875 57.0159L42.9844 54.5267C43.7608 53.9125 44.6319 53.4286 45.5636 53.094C46.4039 52.8673 47.2892 52.8671 48.1295 53.0935Z" fill="#CC0000"/>
<path d="M41.0568 73.6138L40.2603 72.3377C40.2603 72.3377 37.9563 67.5317 38.2741 66.7381C38.592 65.9445 38.3701 64.1986 38.3701 64.1986L38.2741 63.8615C38.2741 63.8615 36.2837 61.5712 34.8057 61.4995C33.3278 61.4278 30.3624 62.1007 30.3624 62.1007C30.3624 62.1007 29.2996 63.8223 30.4755 65.2691C31.5752 66.5418 33.1296 67.3331 34.8057 67.4737C36.2419 67.6311 36.7705 68.094 36.7705 68.094L37.6849 71.486C37.8677 71.871 38.1307 72.2124 38.4563 72.4874C38.7728 72.7099 39.1126 72.8972 39.4696 73.0459C39.9828 73.2771 40.5135 73.467 41.0568 73.6138Z" fill="#9E3667"/>
<path fill-rule="evenodd" clip-rule="evenodd" d="M41.1402 61.8434C41.1402 61.8434 40.7562 57.616 36.9111 56.8667C33.066 56.1175 30.9804 56.0266 30.2615 57.4957C29.5426 58.9647 30.9288 63.2719 30.9288 63.2719C30.9288 63.2719 31.6755 64.9585 33.2644 65.5161C34.4163 65.8628 35.6348 65.927 36.8168 65.7034C37.5648 65.4965 38.257 65.1248 38.8426 64.6154C40.0258 63.7531 41.1402 61.8434 41.1402 61.8434Z" fill="#F6C854"/>
<path d="M63.7391 72.4316C63.7391 72.4316 63.8718 66.4959 63.1891 65.1604C62.5064 63.8249 63.5001 64.0353 63.1891 61.8597C62.8781 59.6841 61.4504 54.76 61.1872 53.6677C60.9239 52.5754 60.0928 49.2649 60.0928 49.2649C59.2388 48.9859 58.3619 48.7829 57.4722 48.6582C56.8494 48.6906 56.249 48.9012 55.7425 49.2649L54.3008 52.8097C54.6802 53.6952 54.9048 54.6394 54.9647 55.6009C54.8313 57.0514 54.6096 58.4923 54.3008 59.9158L54.3076 74.1238C54.3076 74.1238 55.0794 74.0491 57.5533 73.7236C58.6566 73.5785 60.039 73.3306 61.3246 73.0443C62.6323 72.7533 63.7391 72.4316 63.7391 72.4316Z" fill="#EC0000"/>
<path fill-rule="evenodd" clip-rule="evenodd" d="M60.1658 49.3394V47.1135H63.2907V45.3369C63.2907 45.3369 62.6387 43.1272 61.84 42.7833C61.0413 42.4394 53.4999 41.7205 53.4999 41.7205C53.4999 41.7205 53.3886 40.644 51.5168 41.2388C49.645 41.8335 49.3203 42.7833 49.3203 42.7833C49.6436 43.2316 50.0651 43.6001 50.5525 43.8606C51.1032 44.0959 51.6363 44.3702 52.1478 44.6815C52.1478 44.6815 52.5434 45.4069 51.5168 46.6523C50.8669 47.4308 50.1299 48.1322 49.3203 48.743C49.3203 48.743 49.3783 49.9056 50.5525 49.3403C51.7267 48.775 54.294 45.9607 54.294 45.9607L55.6593 47.1127V49.3386C56.4272 49.6757 57.253 49.8617 58.0913 49.8864C59.6512 49.9807 60.1658 49.3394 60.1658 49.3394Z" fill="white"/>
<path d="M60.1921 46.6963C60.1921 46.6963 58.8545 44.2089 60.1921 44.1461C61.5297 44.0834 62.782 46.6963 62.782 46.6963H60.1921Z" fill="#CCCCCC"/>
<path fill-rule="evenodd" clip-rule="evenodd" d="M61.8041 66.9979C61.8041 66.9979 62.7671 56.4856 65.2102 56.0065C67.6532 55.5274 69.7478 57.3778 71.0743 57.0471C72.4008 56.7165 77.4615 55.5235 78.3976 57.0471C79.2485 58.2741 80.2257 59.4085 81.3134 60.4315C81.3134 60.4315 79.8683 60.5923 78.6024 60.5923C77.9197 60.1755 77.4482 59.404 75.192 60.1755C73.2136 60.8522 65.7465 70.11 63.7147 72.4357C63.2087 72.5787 63.0295 72.6299 62.4654 72.7792C61.9014 72.9285 61.4414 73.0309 61.4414 73.0309L61.8041 66.9979Z" fill="#1BB3BC"/>
<path d="M64.875 72.0577C64.875 72.0577 65.4608 71.8444 65.9715 71.6464C66.4823 71.4485 66.9183 71.2744 66.9183 71.2744L67.4017 70.529L67.1709 69.6757C67.0012 69.5868 66.824 69.513 66.6414 69.4551C66.3323 69.546 66.0283 69.6536 65.7309 69.7776C65.701 69.7951 65.1105 70.5354 65.0964 70.564C65.0824 70.5926 64.875 72.0577 64.875 72.0577Z" fill="#34466B"/>
<path fill-rule="evenodd" clip-rule="evenodd" d="M80.1556 88.7738C80.1556 88.7738 85.5897 83.5425 86.257 82.4092C86.9243 81.276 89.6187 75.6833 89.6187 75.6833C89.6187 75.6833 88.8788 71.0292 88.2772 69.0665C87.6756 67.1039 86.5928 60.9027 83.6577 60.5759C81.9536 60.3745 80.2316 60.3745 78.5275 60.5759C77.8374 59.9472 76.901 59.6623 75.9777 59.8002C74.257 59.9508 71.1905 61.6395 68.235 63.9563C65.2795 66.2731 65.419 68.8686 65.419 68.8686C65.419 68.8686 67.3727 66.6281 68.8247 66.2399C70.2766 65.8516 71.5391 65.221 72.337 66.1422C73.1348 67.0633 78.3103 69.9659 78.5262 72.7329C78.7421 75.4998 76.7534 86.1025 77.7757 87.0386C78.5162 87.6862 79.3126 88.2669 80.1556 88.7738Z" fill="#EC0000"/>
<path d="M67.5118 92.4484C67.0067 92.7043 66.4352 92.7987 65.8747 92.7189C65.0047 92.5657 64.4295 92.4304 64.5268 90.8027C64.6241 89.175 65.8747 74.4358 65.8747 74.4358C65.8747 74.4358 67.3548 69.5492 66.7532 69.7198C66.1516 69.8905 65.9288 70.3091 65.5965 70.7925C65.3353 71.1969 65.0981 71.6164 64.8861 72.0486L63.6914 72.4505C63.6914 72.4505 64.4475 69.7625 65.8764 68.2888C67.3053 66.8151 69.3848 65.4135 70.5313 65.3729C71.6778 65.3324 73.1613 66.7063 73.1613 66.7063C73.1613 66.7063 74.3329 79.3962 73.6541 84.3839C72.9752 89.3717 71.8911 91.4517 71.8911 91.4517L67.5118 92.4484Z" fill="#34466B"/>
<path fill-rule="evenodd" clip-rule="evenodd" d="M74.0331 93.6283C74.1792 93.5671 74.2848 93.4367 74.3144 93.2811C74.344 93.1255 74.2936 92.9654 74.1803 92.8548L73.3884 92.6675L74.1803 92.3782L74.1376 92.0369C74.0301 91.9515 73.312 91.9417 73.3867 91.6955C73.4998 91.3201 74.0088 91.5556 74.6484 91.4357C74.8361 91.2889 74.5826 90.5849 74.6484 90.3264C74.7141 90.0678 74.3296 90.497 74.179 89.8916C74.124 89.6701 74.5771 89.9445 74.563 89.4803C74.5558 89.2861 74.796 89.3472 74.563 88.8829L74.179 88.3223H74.8024C74.8608 88.0663 74.6983 88.2711 74.9142 87.7612C74.9517 87.6721 74.5579 87.5697 74.6552 87.3376C74.7439 87.1264 74.9871 87.268 75.2248 86.8682C75.3059 86.7325 74.988 86.401 75.1249 86.0891C75.1676 85.8169 74.4781 85.7516 74.6292 85.4223C74.6842 85.2977 75.2901 85.0946 75.3212 84.9363C75.3472 84.8053 75.5567 84.4315 75.3212 84.1205C75.139 83.876 74.7529 83.8615 74.8024 83.5773L75.6186 83.4118L75.805 82.7142C75.8144 82.6097 75.5768 82.6408 75.1254 82.3929C74.9086 82.2769 75.936 82.4467 75.9505 82.1898C75.9642 81.9407 75.6945 81.415 76.2351 80.874C76.4911 80.6223 75.6049 80.6675 75.6186 80.2767C75.6254 80.0842 76.1848 80.6077 76.3866 80.2767L76.2407 79.6025L75.8046 79.2087L76.3866 79.0112C76.4369 78.9455 76.7412 78.5845 76.3866 78.3328L75.9147 78.1561L76.6584 77.8421L76.4395 77.2921L75.9147 77.0387L76.2048 76.7012C76.2074 76.5834 76.6178 76.2408 76.2338 76.0893L75.9147 75.8504L76.4395 75.626V75.1567L75.8046 74.8823L76.3866 74.5917L76.4395 74C76.4395 73.8813 76.1506 73.8818 75.8046 73.7832C75.5452 73.7064 76.4391 73.6552 76.4395 73.3301C76.4395 73.1513 76.332 73.101 76.2407 72.7575C76.2347 72.7481 75.6203 72.5258 75.6186 72.353C75.6186 72.2604 76.242 72.1845 76.2053 71.9669C76.1784 71.7783 76.492 71.5611 76.2053 71.2578L75.3216 71.0355L76.2411 70.6173C76.2452 70.3523 76.2332 70.0873 76.2053 69.8237H75.6186L76.2053 69.2337C76.1698 69.1654 76.4148 68.7255 75.9493 68.5015C75.7978 68.4285 75.5047 68.5868 75.1241 68.5015C74.9308 68.4588 76.1195 68.19 75.8038 68.0168L75.6173 67.495H74.6279C74.5425 67.2249 75.3566 66.9915 75.1237 66.7069C74.589 66.0512 73.6768 65.9893 73.1857 65.9389C72.3793 65.8583 68.873 67.8163 68.873 67.8163C68.873 67.8163 66.8869 88.5476 66.9385 91.4656C66.9359 92.0957 66.9449 91.9993 67.5853 92.4076C68.239 92.8573 73.4417 93.8455 74.0331 93.6283Z" fill="#CEDEE7"/>
<ellipse cx="35.7533" cy="59.5497" rx="5.91445" ry="3.16843" transform="rotate(21 35.7533 59.5497)" fill="#FFE99F"/>
<path d="M39.3408 72.9712C38.9764 72.2233 38.6554 71.4551 38.3795 70.6702C37.8781 69.2712 37.2774 68.0466 37.4306 67.5743C37.5837 67.102 37.9989 67.3405 38.1179 67.678C38.237 68.0155 39.1389 70.11 39.5229 71.1417C39.857 71.9527 40.2522 72.7372 40.7052 73.4883C40.3897 73.4008 40.0788 73.2972 39.7738 73.1777C39.5123 73.0591 39.3408 72.9712 39.3408 72.9712Z" fill="#723846"/>
</g>
</svg>
