<svg width="160" height="160" viewBox="0 0 160 160" fill="none" xmlns="http://www.w3.org/2000/svg">
<path fill-rule="evenodd" clip-rule="evenodd" d="M81.3365 25.644C62.7788 39.0239 47.6426 35.1466 37.5195 33.4836C17.3204 30.1641 9.79149 49.0899 17.1597 63.4571C24.5283 77.8241 30.7009 95.3049 12.9675 109.165C-4.76547 123.026 15.1946 158.091 43.7753 148.418C72.3557 138.745 104.621 140.112 119.325 150.571C134.03 161.03 166.466 136.58 140.802 111.957C115.138 87.3347 131.89 76.8479 140.652 65.6462C149.414 54.4441 145.828 33.8014 121.31 23.7443C121.31 23.7443 99.8946 12.2645 81.3365 25.644Z" fill="#EAF7FE"/>
<path fill-rule="evenodd" clip-rule="evenodd" d="M112.813 86.0051C112.826 86.1516 112.835 86.2822 112.833 86.3961C112.835 86.5096 112.836 86.6061 112.829 86.6841L112.816 86.9226L112.687 86.9187C112.687 86.9187 112.682 86.8378 112.673 86.6861C112.671 86.6103 112.661 86.5174 112.646 86.4089C112.636 86.2998 112.614 86.1762 112.586 86.0388C112.526 85.7658 112.441 85.4353 112.276 85.0896C112.112 84.7453 111.876 84.3796 111.534 84.0748C111.198 83.7713 110.752 83.5146 110.268 83.3887L110.082 83.3434C110.082 83.3507 110.083 83.3579 110.084 83.3651C110.086 83.3735 110.087 83.382 110.088 83.3907C110.102 83.4977 110.098 83.6138 110.094 83.7279C110.089 83.8419 110.064 83.9625 110.04 84.0781C110.031 84.1054 110.022 84.1329 110.013 84.1603C109.985 84.2498 109.956 84.339 109.906 84.4216L109.816 84.584L109.701 84.7285L109.643 84.7991L109.628 84.8166C109.633 84.8128 109.561 84.8844 109.588 84.8563L109.582 84.8614L109.559 84.8812L109.512 84.921C109.509 84.9235 109.506 84.9259 109.503 84.9285C109.491 84.9388 109.478 84.9504 109.447 84.9718C109.383 85.017 109.315 85.0605 109.249 85.0971L109.078 85.1701C108.964 85.2084 108.849 85.242 108.737 85.2545C108.51 85.2888 108.29 85.282 108.076 85.2388C107.863 85.1959 107.654 85.1272 107.458 85.0071C107.263 84.8896 107.08 84.7277 106.944 84.5148C106.811 84.2984 106.752 84.0306 106.748 83.8331C106.741 83.6934 106.756 83.5815 106.79 83.4501C106.823 83.3235 106.884 83.1985 106.962 83.0923C107.12 82.8779 107.329 82.7493 107.518 82.6703C107.765 82.5726 107.997 82.531 108.221 82.5107C108.15 82.4548 108.079 82.4074 108.014 82.3763C107.629 82.1843 107.128 82.1157 106.648 82.132C106.165 82.1523 105.695 82.2479 105.282 82.3917C104.871 82.5397 104.507 82.7252 104.225 82.941C103.935 83.1506 103.727 83.3876 103.58 83.6045C103.434 83.823 103.355 84.0243 103.307 84.1593C103.265 84.3096 103.242 84.3896 103.242 84.3896L103.113 84.3827C103.113 84.3827 103.095 84.3017 103.079 84.143C103.068 83.974 103.07 83.7265 103.154 83.4182C103.236 83.1109 103.407 82.7472 103.693 82.4005C103.831 82.2223 104.004 82.057 104.196 81.8963C104.388 81.7357 104.604 81.5801 104.845 81.4505C105.325 81.1837 105.889 80.966 106.529 80.8784C107.164 80.7909 107.896 80.8162 108.622 81.1694L108.656 81.1858L108.703 81.2125L108.715 81.2199L108.764 81.2505L108.813 81.2812C108.828 81.2906 108.845 81.3009 108.872 81.3213C108.968 81.3909 109.077 81.4716 109.141 81.5373C109.296 81.6724 109.42 81.8252 109.536 81.9841C109.682 82.1847 109.802 82.4045 109.897 82.6411C109.913 82.6446 109.928 82.6475 109.944 82.6504C109.965 82.6542 109.986 82.6581 110.007 82.6633L110.121 82.6933L110.163 82.7051L110.188 82.7139L110.239 82.7314C110.283 82.7467 110.328 82.7618 110.372 82.7769C110.395 82.7848 110.418 82.7927 110.441 82.8006C111.032 83.0168 111.502 83.3602 111.862 83.7494C112.221 84.138 112.443 84.5712 112.585 84.9619C112.73 85.3543 112.784 85.7132 112.813 86.0051ZM108.876 83.9998C108.882 83.9803 108.888 83.9614 108.896 83.9435C108.955 83.8031 108.936 83.6027 108.862 83.3901C108.846 83.3421 108.826 83.2937 108.803 83.2456C108.781 83.2465 108.758 83.247 108.735 83.2475C108.697 83.2483 108.658 83.2491 108.619 83.2523C108.343 83.2754 108.062 83.3317 107.864 83.4339C107.767 83.4848 107.706 83.5456 107.679 83.5928C107.665 83.6175 107.657 83.6402 107.653 83.6698C107.649 83.6938 107.646 83.7446 107.652 83.7658L107.652 83.7865L107.664 83.8461L107.676 83.9056C107.677 83.9104 107.677 83.9123 107.677 83.9122C107.677 83.912 107.672 83.8834 107.673 83.8878L107.675 83.8908L107.678 83.8968L107.684 83.9091C107.689 83.9322 107.702 83.9525 107.714 83.9727C107.721 83.9829 107.727 83.9931 107.732 84.0036C107.779 84.061 107.848 84.1164 107.936 84.1609C108.112 84.2491 108.364 84.2812 108.558 84.2322C108.597 84.2257 108.631 84.2116 108.663 84.1982C108.672 84.1946 108.681 84.191 108.689 84.1877C108.707 84.177 108.724 84.1677 108.742 84.1593C108.743 84.1587 108.743 84.1581 108.743 84.1576C108.746 84.1526 108.747 84.1511 108.751 84.1519C108.749 84.1584 108.765 84.1421 108.78 84.1275L108.781 84.1262L108.823 84.0849L108.827 84.0779L108.843 84.0509C108.853 84.0332 108.865 84.0164 108.876 83.9998Z" fill="#FFC4B8"/>
<path d="M108.874 83.0611C108.858 83.013 108.838 82.9647 108.815 82.9165C108.754 82.9191 108.693 82.9185 108.632 82.9234C108.356 82.9463 108.076 83.0026 107.879 83.1048C107.782 83.1557 107.722 83.2166 107.694 83.2637C107.68 83.2884 107.673 83.3114 107.668 83.3407C107.665 83.3648 107.661 83.4156 107.668 83.4367L107.668 83.4575L107.68 83.5171L107.692 83.5765C107.696 83.6001 107.687 83.5532 107.689 83.5588L107.69 83.5619L107.693 83.5678L107.699 83.5801C107.7 83.5825 107.701 83.5846 107.702 83.5868C107.732 83.5415 107.789 83.4863 107.879 83.4392C108.076 83.3371 108.356 83.2808 108.632 83.2577C108.693 83.2527 108.754 83.2535 108.815 83.251C108.838 83.2991 108.858 83.3475 108.874 83.3957C108.894 83.4537 108.909 83.5103 108.921 83.5655C108.958 83.429 108.939 83.2512 108.874 83.0611Z" fill="#F4A48D"/>
<path d="M109.911 84.0927L109.821 84.2551L109.707 84.3995L109.649 84.4701L109.634 84.4875C109.639 84.4838 109.566 84.5553 109.594 84.5271L109.588 84.5322L109.565 84.5521L109.519 84.592C109.503 84.6047 109.491 84.6164 109.453 84.6428C109.389 84.6879 109.322 84.7315 109.256 84.7682L109.086 84.8411C108.973 84.8794 108.857 84.913 108.745 84.9256C108.52 84.9597 108.3 84.9529 108.087 84.9099C107.874 84.8669 107.666 84.7983 107.471 84.6781C107.277 84.5606 107.094 84.3988 106.959 84.1858C106.85 84.0091 106.793 83.8004 106.773 83.6214C106.764 83.6904 106.759 83.7605 106.763 83.8385C106.767 84.036 106.826 84.3039 106.959 84.5203C107.094 84.7332 107.277 84.8951 107.471 85.0126C107.666 85.1327 107.874 85.2013 108.087 85.2444C108.3 85.2874 108.52 85.2942 108.745 85.2601C108.857 85.2473 108.973 85.214 109.086 85.1755L109.256 85.1026C109.322 85.0659 109.389 85.0225 109.453 84.9772C109.491 84.9507 109.503 84.939 109.519 84.9265L109.565 84.8866L109.588 84.8668L109.594 84.8617C109.566 84.8899 109.639 84.8181 109.634 84.822L109.649 84.8046L109.707 84.7339L109.821 84.5894L109.911 84.4271C109.976 84.3191 110.004 84.2001 110.044 84.0836C110.069 83.968 110.093 83.8473 110.098 83.7333C110.102 83.6325 110.104 83.5309 110.094 83.4346C110.086 83.5379 110.066 83.6453 110.044 83.749C110.004 83.8657 109.976 83.9847 109.911 84.0927Z" fill="#F4A48D"/>
<path d="M108.025 82.0473C107.642 81.8554 107.143 81.7867 106.663 81.8031C106.182 81.8234 105.714 81.9189 105.302 82.063C104.892 82.2108 104.53 82.3963 104.248 82.6121C103.96 82.8217 103.752 83.0586 103.606 83.2755C103.461 83.4941 103.381 83.6953 103.333 83.8303C103.292 83.9805 103.269 84.0607 103.269 84.0607L103.14 84.0538C103.14 84.0538 103.124 83.9782 103.109 83.8346C103.099 83.9577 103.101 84.0631 103.106 84.1484C103.123 84.3072 103.14 84.3882 103.14 84.3882L103.269 84.3951C103.269 84.3951 103.292 84.3151 103.333 84.1648C103.381 84.0298 103.461 83.8285 103.606 83.61C103.752 83.3931 103.96 83.156 104.248 82.9465C104.53 82.7307 104.892 82.5452 105.302 82.3973C105.714 82.2534 106.182 82.1579 106.663 82.1375C107.033 82.1251 107.412 82.1644 107.743 82.2703C107.912 82.2222 108.074 82.1962 108.231 82.1816C108.161 82.1259 108.09 82.0785 108.025 82.0473Z" fill="#F4A48D"/>
<path d="M108.861 83.7271L108.861 83.7282C108.869 83.7195 108.874 83.7141 108.861 83.7271Z" fill="#F4A48D"/>
<path d="M110.09 83.3962C110.092 83.4086 110.092 83.422 110.093 83.4346C110.094 83.4229 110.096 83.4106 110.097 83.3989C110.097 83.3836 110.097 83.368 110.098 83.3522C110.093 83.3512 110.089 83.35 110.085 83.3489C110.086 83.3649 110.089 83.3802 110.09 83.3962Z" fill="#F4A48D"/>
<path d="M108.861 84.0617C108.874 84.0486 108.869 84.0541 108.861 84.0626L108.861 84.0617Z" fill="#F4A48D"/>
<path fill-rule="evenodd" clip-rule="evenodd" d="M75.0889 114.205C75.0889 114.205 68.4932 116.974 63.3867 114.205V98.3027H75.0889V114.205Z" fill="#FFC4B8"/>
<path d="M73.0745 98.3027L67.894 109.033L73.1739 111.495V112.503C73.1739 112.503 68.0675 114.629 63.3867 113.291L63.4265 116.154C68.5329 118.922 75.1338 115.267 75.1338 115.267L75.0888 98.3027H73.0745Z" fill="#FFC4B8"/>
<path fill-rule="evenodd" clip-rule="evenodd" d="M63.3867 114.41C63.3867 114.41 63.6847 111.627 64.495 115.158C64.495 115.158 65.3195 112.96 65.7159 114.915C65.7159 114.915 65.8846 115.591 65.7765 116.175C65.7765 116.175 64.2378 115.915 63.3867 115.269V114.41Z" fill="black"/>
<path fill-rule="evenodd" clip-rule="evenodd" d="M98.9189 114.205C98.9189 114.205 92.3231 116.974 87.0039 114.205V98.3027H98.9189V114.205Z" fill="#FFC4B8"/>
<path d="M89.3443 110.319L92.4121 108.456L89.3734 98.3027H87.0039C87.0107 106.045 87.0156 111.641 87.0186 115.089C87.0189 115.411 87.0189 115.47 87.0186 115.267C92.3377 118.036 98.918 116.328 98.918 116.328L98.9188 112.519C96.3656 113.079 92.7486 113.487 89.3443 111.773V110.319Z" fill="#FFC4B8"/>
<path fill-rule="evenodd" clip-rule="evenodd" d="M87.0039 114.41C87.0039 114.41 87.3852 111.627 88.1958 115.158C88.1958 115.158 89.062 112.96 89.4584 114.915C89.4584 114.915 89.5645 115.591 89.4564 116.175C89.4564 116.175 88.0678 115.915 87.0039 115.269V114.41Z" fill="black"/>
<path fill-rule="evenodd" clip-rule="evenodd" d="M53.3337 84.0832L47.6206 83.8557C44.9425 92.1648 49.0562 98.8159 49.0562 98.8159L50.6708 98.5288C50.6705 98.5291 53.074 100.858 56.5256 100.527C61.2148 106.843 69.6752 111.059 79.3338 111.059C94.0814 111.059 106.037 101.23 106.037 89.1058C106.037 76.9818 94.0814 67.1533 79.3338 67.1533C66.6884 67.1533 56.0966 74.3797 53.3337 84.0832Z" fill="#FFC4B8"/>
<path fill-rule="evenodd" clip-rule="evenodd" d="M95.3704 71.5522C99.2927 75.3734 101.658 80.3095 101.658 85.7006C101.658 97.8246 89.7024 107.653 74.9547 107.653C68.9363 107.653 63.3834 106.016 58.918 103.254C63.8162 108.027 71.1436 111.059 79.3335 111.059C94.0813 111.059 106.037 101.23 106.037 89.1057C106.037 81.9297 101.847 75.5581 95.3704 71.5522Z" fill="#F4A48D"/>
<path fill-rule="evenodd" clip-rule="evenodd" d="M66.5898 69.8099C66.5898 69.8099 78.1765 64.067 90.6044 69.2005C90.6044 69.2005 70.6283 65.3157 70.6602 72.8385L66.5898 69.8099Z" fill="#F4A48D"/>
<path fill-rule="evenodd" clip-rule="evenodd" d="M49.5438 96.6272C49.5438 96.6272 46.3268 91.419 47.4398 84.4639C45.1463 92.487 49.0573 98.8163 49.0573 98.8163L54.2232 97.6712L56.7262 96.5928L49.5438 96.6272Z" fill="#F4A48D"/>
<path fill-rule="evenodd" clip-rule="evenodd" d="M53.0984 98.8161C53.0984 98.8161 55.5753 97.9084 57.252 96.7085C58.8809 95.543 57.0211 96.6374 57.0211 96.6374L50.6719 98.5293C50.6719 98.5293 54.9092 102.633 60.2107 99.1688C55.8551 100.692 53.0984 98.8161 53.0984 98.8161Z" fill="#F4A48D"/>
<path fill-rule="evenodd" clip-rule="evenodd" d="M62.5195 60.9458C62.5195 60.9458 70.4695 61.7896 70.6603 72.8389L62.5694 75.804L62.5195 60.9458Z" fill="#FFC4B8"/>
<path fill-rule="evenodd" clip-rule="evenodd" d="M49.0586 98.8161C49.0586 98.8161 49.1025 98.8042 49.185 98.782C49.2679 98.7624 49.387 98.7213 49.5392 98.6814C49.6914 98.6419 49.8741 98.5851 50.0845 98.5218C50.2942 98.456 50.5321 98.393 50.7889 98.3117C51.0453 98.2288 51.3227 98.139 51.6176 98.0532C51.9136 97.9718 52.2171 97.8506 52.5378 97.7538C52.8567 97.6508 53.1863 97.5444 53.5212 97.4361C53.8539 97.3206 54.1921 97.2037 54.5302 97.0867C54.8688 96.9719 55.2124 96.8709 55.5416 96.7446C55.872 96.6216 56.2021 96.5137 56.519 96.4017C56.8355 96.2893 57.1459 96.1911 57.4399 96.0962C57.7281 95.9865 58.0039 95.8898 58.2591 95.8022C58.7683 95.6236 59.1999 95.4881 59.5036 95.3959C59.8074 95.3038 59.9846 95.2583 59.9846 95.2583C59.9846 95.2583 59.8313 95.3556 59.5564 95.5138C59.2818 95.6719 58.8868 95.8948 58.4044 96.145C58.1636 96.2718 57.9024 96.408 57.6224 96.5443C57.3383 96.671 57.0389 96.8061 56.7246 96.9346C56.4108 97.0643 56.0891 97.2058 55.757 97.3359C55.429 97.4768 55.0808 97.581 54.7384 97.7004C54.3932 97.8122 54.0481 97.9233 53.7084 98.033C53.3679 98.1413 53.0219 98.2136 52.6937 98.3018C52.3636 98.385 52.046 98.4681 51.737 98.5204C51.4305 98.5806 51.1389 98.6289 50.8702 98.6735C50.6024 98.7211 50.3508 98.739 50.1312 98.764C49.9118 98.7912 49.7183 98.8032 49.5582 98.8084C49.2398 98.8253 49.0586 98.8161 49.0586 98.8161Z" fill="#A66555"/>
<path fill-rule="evenodd" clip-rule="evenodd" d="M62.5195 60.9458L62.5569 72.0279L65.0172 74.9069C65.3561 70.1065 64.6025 65.3011 62.5525 60.9501C62.5317 60.9474 62.5195 60.9458 62.5195 60.9458Z" fill="#F4A48D"/>
<path fill-rule="evenodd" clip-rule="evenodd" d="M63.5294 73.1652L65.0178 74.9068C65.2984 70.9338 64.8277 66.9585 63.4961 63.2393L63.5294 73.1652Z" fill="#A66555"/>
<path fill-rule="evenodd" clip-rule="evenodd" d="M90.6289 70.0305L87.0177 68.6608C83.0958 67.9665 79.3893 67.6759 75.5513 68.6115L76.4382 69.4984L90.6289 70.0305Z" fill="#A66555"/>
<path fill-rule="evenodd" clip-rule="evenodd" d="M61.0621 81.5298C61.0621 82.1865 60.5297 82.719 59.8728 82.719C59.2163 82.719 58.6836 82.1865 58.6836 81.5298C58.6836 80.8734 59.2163 80.3408 59.8728 80.3408C60.5297 80.3408 61.0621 80.8734 61.0621 81.5298Z" fill="black"/>
<path fill-rule="evenodd" clip-rule="evenodd" d="M80.0391 156.247C40.1666 156.247 7.84375 152.276 7.84375 147.378C7.84375 142.479 40.1666 138.508 80.0391 138.508C119.912 138.508 152.234 142.479 152.234 147.378C152.234 152.276 119.912 156.247 80.0391 156.247Z" fill="#CEDEE7"/>
<path fill-rule="evenodd" clip-rule="evenodd" d="M121.08 131.324H56.3438V134.385V148.071V151.133H121.08C125.39 151.133 128.883 147.644 128.883 143.34V139.117C128.883 134.813 125.39 131.324 121.08 131.324Z" fill="#34466B"/>
<path fill-rule="evenodd" clip-rule="evenodd" d="M96.2411 149.737H33.1875V132.998H96.2411C98.3983 132.998 100.147 134.742 100.147 136.895V145.84C100.147 147.993 98.3983 149.737 96.2411 149.737Z" fill="white"/>
<path d="M95.1343 131.324H30.3984V134.385H95.1341C97.7466 134.385 99.872 136.508 99.872 139.117V143.34C99.872 145.949 97.7466 148.071 95.1341 148.071H30.3984V151.133H95.1343C99.4442 151.133 102.938 147.644 102.938 143.34V139.117C102.938 134.813 99.4442 131.324 95.1343 131.324Z" fill="#34466B"/>
<path fill-rule="evenodd" clip-rule="evenodd" d="M95.1343 131.324H30.3984V134.385H95.1341C97.7466 134.385 99.872 136.508 99.872 139.117V143.34C99.872 145.949 97.7466 148.071 95.1341 148.071H30.3984V151.133H95.1343C99.4442 151.133 102.938 147.644 102.938 143.34V139.117C102.938 134.813 99.4442 131.324 95.1343 131.324Z" fill="#34466B"/>
<path fill-rule="evenodd" clip-rule="evenodd" d="M42.1524 114.863H95.6839V117.407V128.78V131.324H42.1524C38.5885 131.324 35.6992 128.424 35.6992 124.848V121.339C35.6992 117.762 38.5885 114.863 42.1524 114.863Z" fill="#2A8FEC"/>
<path fill-rule="evenodd" clip-rule="evenodd" d="M62.6365 130.208H114.656V116.258H62.6365C60.8569 116.258 59.4141 117.712 59.4141 119.506V126.96C59.4141 128.754 60.8569 130.208 62.6365 130.208Z" fill="white"/>
<path d="M63.3555 114.863H116.887V117.407H63.3555C61.1952 117.407 59.4376 119.171 59.4376 121.339V124.848C59.4376 127.016 61.1952 128.78 63.3555 128.78H116.887V131.324H63.3555C59.7917 131.324 56.9023 128.424 56.9023 124.848V121.339C56.9023 117.762 59.7917 114.863 63.3555 114.863Z" fill="#2A8FEC"/>
<path fill-rule="evenodd" clip-rule="evenodd" d="M63.3555 114.863H116.887V117.407H63.3555C61.1952 117.407 59.4376 119.171 59.4376 121.339V124.848C59.4376 127.016 61.1952 128.78 63.3555 128.78H116.887V131.324H63.3555C59.7917 131.324 56.9023 128.424 56.9023 124.848V121.339C56.9023 117.762 59.7917 114.863 63.3555 114.863Z" fill="#2A8FEC"/>
<path fill-rule="evenodd" clip-rule="evenodd" d="M89.772 53.7357C90.8003 57.5733 88.5229 61.5179 84.6853 62.5462C80.8477 63.5745 76.9031 61.2971 75.8748 57.4595C74.8465 53.6219 77.1239 49.6773 80.9616 48.649C84.7992 47.6207 88.7437 49.8981 89.772 53.7357Z" fill="#D39E00"/>
<path fill-rule="evenodd" clip-rule="evenodd" d="M88.9167 53.9657C89.9449 57.8028 87.6672 61.748 83.83 62.7761C83.1973 62.9457 82.5613 63.0255 81.9364 63.0223C78.7705 63.0106 75.8783 60.8938 75.0196 57.6894C73.9913 53.8517 76.2684 49.9068 80.1061 48.8785C82.0141 48.3672 83.9489 48.6736 85.5385 49.5831C87.1455 50.5016 88.3998 52.0365 88.9167 53.9657Z" fill="#FFE99F"/>
<path fill-rule="evenodd" clip-rule="evenodd" d="M88.9157 53.9658C89.9439 57.8029 87.6662 61.7481 83.829 62.7762C83.1963 62.9458 82.5603 63.0256 81.9354 63.0224L85.5375 49.5832C87.1445 50.5017 88.3988 52.0366 88.9157 53.9658Z" fill="#F6C854"/>
<path fill-rule="evenodd" clip-rule="evenodd" d="M95.3193 22.4817L100.806 2.06619L104.536 6.53164L106.643 10.2311L110.217 16.5074L100.374 31.881L98.9252 34.5547C97.6272 36.95 95.8474 39.0514 93.6973 40.7276C92.3021 41.8153 90.6946 43.0635 89.3745 44.0751C88.055 45.087 87.0229 45.8624 86.7791 46.0034L84.9799 48.9666C84.7648 49.3204 84.4282 49.5604 84.0531 49.6609C83.7198 49.7502 83.3564 49.7294 83.0202 49.5804C82.5533 49.3728 82.232 48.9574 82.1324 48.4817C81.316 48.9781 80.2491 48.6646 79.8333 47.8055L76.6244 41.1761C76.2307 40.3625 76.151 39.4323 76.4006 38.5632L76.7689 36.2906L73.824 38.5021L65.6102 44.67L65.5286 44.7272C65.3903 44.8178 65.2406 44.8838 65.086 44.9253C64.649 45.0424 64.1714 44.9632 63.7887 44.6869L63.7284 44.6411C63.0028 44.0614 62.9551 42.9638 63.6456 42.3237L69.7092 36.7014L64.2614 38.8186C63.5049 39.1126 62.6533 38.7445 62.3509 37.9931C62.0648 37.2831 62.3689 36.472 63.0516 36.1236L70.9477 32.0939L74.7088 30.3965L72.719 29.9262L68.9252 29.979L68.855 29.978C68.3205 29.955 67.8846 29.5828 67.7537 29.0943C67.7143 28.9472 67.7026 28.7894 67.7242 28.6274C67.7998 28.0628 68.2641 27.6298 68.8334 27.5931L73.9637 27.2611L78.1505 27.766L95.3193 22.4817ZM87.8315 37.7489L84.3014 34.2282L84.2791 34.238L81.5373 36.3767L80.4743 39.7202L82.5789 45.8642L82.5791 45.8638C83.0099 44.351 83.7338 42.9339 84.7132 41.6951L87.8315 37.7489Z" fill="#F4A48D"/>
</svg>
