<svg width="163" height="160" viewBox="0 0 163 160" fill="none" xmlns="http://www.w3.org/2000/svg">
<path d="M160 27.1646H0V132.756H160V27.1646Z" fill="white"/>
<path fill-rule="evenodd" clip-rule="evenodd" d="M138.574 80.9616L144.121 86.5216C145.1 87.5023 145.1 89.0925 144.121 90.0731L138.321 95.8864C137.343 96.867 135.756 96.867 134.778 95.8864L129.23 90.326C128.251 89.3454 128.251 87.7554 129.23 86.7748L135.03 80.9616C136.009 79.9809 137.595 79.9809 138.574 80.9616Z" fill="#CEDEE7"/>
<path fill-rule="evenodd" clip-rule="evenodd" d="M149.492 77.1744L159.585 87.2906C160.563 88.2712 160.563 89.8612 159.585 90.8418L149.113 101.337C148.134 102.318 146.548 102.318 145.569 101.337L135.476 91.2216C134.498 90.2409 134.498 88.6507 135.476 87.6701L145.948 77.1744C146.927 76.1938 148.513 76.1938 149.492 77.1744Z" fill="#CEDEE7"/>
<path fill-rule="evenodd" clip-rule="evenodd" d="M133.066 83.2594L143.159 93.3753C144.137 94.3559 144.137 95.9461 143.159 96.9268L132.687 107.422C131.708 108.403 130.122 108.403 129.144 107.422L119.05 97.3063C118.072 96.3256 118.072 94.7357 119.05 93.755L129.522 83.2594C130.501 82.2788 132.087 82.2788 133.066 83.2594Z" fill="#CEDEE7"/>
<path fill-rule="evenodd" clip-rule="evenodd" d="M61.3359 99.5412H73.8086L68.4314 90.0955C68.0497 89.4245 67.0943 89.4245 66.7121 90.0955L61.3359 99.5412Z" fill="#DEEDF2"/>
<path fill-rule="evenodd" clip-rule="evenodd" d="M61.3359 99.5412H73.8086L68.4314 90.0955C68.0497 89.4245 67.0943 89.4245 66.7121 90.0955L61.3359 99.5412Z" fill="#DEEDF2"/>
<path fill-rule="evenodd" clip-rule="evenodd" d="M64.8086 97.9231H77.2813L71.904 88.4773C71.5223 87.8064 70.567 87.8064 70.1848 88.4773L64.8086 97.9231Z" fill="#DEEDF2"/>
<path d="M74.2886 123.583C89.0295 123.583 100.98 116.372 100.98 107.478C100.98 98.5832 89.0295 91.3726 74.2886 91.3726C59.5477 91.3726 47.5977 98.5832 47.5977 107.478C47.5977 116.372 59.5477 123.583 74.2886 123.583Z" fill="#DEEDF2"/>
<path fill-rule="evenodd" clip-rule="evenodd" d="M0 96.2344H159.967V132.636H0V96.2344Z" fill="#DEEDF2"/>
<path opacity="0.64" fill-rule="evenodd" clip-rule="evenodd" d="M84.0709 123.772C73.6318 120.882 56.0717 123.772 52.5124 123.772C48.9527 123.772 59.8949 125.055 71.1544 125.055C82.4139 125.055 94.5101 126.663 84.0709 123.772ZM125.815 120.795C117.757 118.564 104.202 120.795 101.454 120.795C98.7062 120.795 107.153 121.786 115.844 121.786C124.536 121.786 133.873 123.026 125.815 120.795Z" fill="white"/>
<path opacity="0.414" fill-rule="evenodd" clip-rule="evenodd" d="M42.4967 115.68C32.0576 112.79 14.4975 115.68 10.9381 115.68C7.37861 115.68 18.3208 116.964 29.5802 116.964C40.84 116.964 52.9361 118.571 42.4967 115.68Z" fill="white"/>
<path opacity="0.66" fill-rule="evenodd" clip-rule="evenodd" d="M72.7788 106.935C66.742 105.264 56.587 106.935 54.5285 106.935C52.47 106.935 58.798 107.678 65.3093 107.678C71.8207 107.678 78.8159 108.607 72.7788 106.935ZM160.439 119.641C154.402 117.969 144.247 119.641 142.189 119.641C140.13 119.641 146.458 120.383 152.97 120.383C159.481 120.383 166.476 121.312 160.439 119.641Z" fill="white"/>
<path opacity="0.45" fill-rule="evenodd" clip-rule="evenodd" d="M35.8933 100.766C32.4436 99.811 26.6406 100.766 25.4644 100.766C24.2881 100.766 27.9041 101.19 31.6249 101.19C35.3456 101.19 39.3429 101.722 35.8933 100.766ZM107.307 112.398C103.857 111.443 98.0547 112.398 96.8785 112.398C95.702 112.398 99.3182 112.822 103.039 112.822C106.76 112.822 110.757 113.353 107.307 112.398Z" fill="white"/>
<path opacity="0.568" fill-rule="evenodd" clip-rule="evenodd" d="M63.5575 100.909C60.9704 100.193 56.618 100.909 55.736 100.909C54.8537 100.909 57.5658 101.227 60.3564 101.227C63.1468 101.227 66.145 101.626 63.5575 100.909ZM145.906 112.22C141.567 111.018 134.268 112.22 132.788 112.22C131.309 112.22 135.857 112.753 140.537 112.753C145.217 112.753 150.245 113.421 145.906 112.22Z" fill="white"/>
<path fill-rule="evenodd" clip-rule="evenodd" d="M96.0109 103.332C94.2862 102.854 91.3848 103.332 90.7966 103.332C90.2085 103.332 92.0163 103.544 93.8768 103.544C95.7371 103.544 97.7359 103.81 96.0109 103.332ZM124.218 107.626C122.493 107.149 119.592 107.626 119.004 107.626C118.416 107.626 120.224 107.838 122.084 107.838C123.944 107.838 125.943 108.104 124.218 107.626ZM45.8432 97.9632C44.1182 97.4857 41.2168 97.9632 40.6287 97.9632C40.0405 97.9632 41.8486 98.1754 43.7091 98.1754C45.5694 98.1754 47.5682 98.4408 45.8432 97.9632ZM144.039 103.868C142.314 103.391 139.412 103.868 138.824 103.868C138.236 103.868 140.044 104.08 141.904 104.08C143.765 104.08 145.763 104.346 144.039 103.868Z" fill="white"/>
<path fill-rule="evenodd" clip-rule="evenodd" d="M5.60376 69.1334C6.78233 69.8044 13.6499 70.3678 14.4451 71.3264C15.2402 72.2851 14.4561 74.6704 15.2125 76.5893C15.9689 78.5079 17.7112 90.3572 17.7112 92.6037C17.7112 94.8505 17.476 96.9555 19.2402 100.079C21.0044 103.202 20.9374 105.777 20.9374 107.724C20.9374 109.672 20.9374 111.657 20.9374 113.156C20.9374 114.656 24.0804 116.784 24.0804 118.384C24.0804 119.45 24.4656 124.201 25.236 132.636H0.0625V69.1334C2.97094 68.686 4.81803 68.686 5.60376 69.1334Z" fill="#9BC3D3"/>
<path fill-rule="evenodd" clip-rule="evenodd" d="M53.0753 89.3493C53.6075 89.2512 54.1315 89.8035 54.5463 90.3044C54.8253 89.6636 55.481 89.3412 55.9371 89.4338C56.0243 89.4514 56.0287 89.6359 55.9371 89.6468C55.6606 89.6791 55.3884 89.8078 55.1754 90.0914C54.9964 90.3302 54.9106 90.5356 54.7633 90.8102C54.721 90.8893 54.6357 90.9137 54.5745 90.8868C54.5585 90.8798 54.5422 90.8708 54.5281 90.8567C54.5123 90.8412 54.4982 90.8214 54.4857 90.8002C54.4773 90.7907 54.4686 90.7863 54.4605 90.7738C54.0883 90.1824 53.6208 89.5492 53.0753 89.5395C52.9936 89.5381 52.9979 89.3637 53.0753 89.3493ZM56.2856 87.5054C56.5309 87.1463 57.1068 86.9657 57.5075 87.0175C57.5844 87.0273 57.5879 87.1308 57.5075 87.1368C57.2644 87.155 57.0253 87.2275 56.8387 87.3862C56.7599 87.4533 56.7018 87.5329 56.6469 87.6149L56.5926 87.6972C56.5565 87.7524 56.5192 87.807 56.4763 87.8583C56.4391 87.9023 56.3641 87.9164 56.3106 87.9012C56.2965 87.8974 56.2821 87.8923 56.2699 87.8844C56.2557 87.8757 56.2435 87.8643 56.2327 87.8526C56.2253 87.8474 56.2172 87.845 56.2107 87.8377C55.8836 87.5062 55.4726 87.2892 54.9937 87.2838C54.922 87.2829 54.926 87.1854 54.9937 87.1773C55.4612 87.1219 55.9213 87.2248 56.2856 87.5054ZM49.7001 84.05C50.266 83.9766 51.0793 84.2317 51.4253 84.7389C51.9396 84.3426 52.5894 84.1975 53.2495 84.2752C53.3453 84.2863 53.3508 84.4243 53.2495 84.4254C52.5731 84.4333 51.9931 84.7397 51.5313 85.208C51.5218 85.2178 51.5106 85.2213 51.5003 85.2287C51.4848 85.2458 51.4675 85.2613 51.4476 85.2738C51.4302 85.2846 51.4099 85.2917 51.39 85.2974C51.3142 85.3189 51.2083 85.2993 51.1559 85.2368C51.0953 85.1643 51.0429 85.0871 50.9918 85.0094L50.9307 84.916C50.8489 84.7921 50.7631 84.6712 50.6446 84.5705C50.3809 84.3461 50.0435 84.2439 49.7001 84.2184C49.5868 84.21 49.5923 84.0638 49.7001 84.05Z" fill="#9BC3D3"/>
<path fill-rule="evenodd" clip-rule="evenodd" d="M117.355 88.1207H117.653V83.686H117.355V88.1207Z" fill="#CEDEE7"/>
<path fill-rule="evenodd" clip-rule="evenodd" d="M116.143 82.1291C115.897 81.8197 115.748 81.4454 116.075 81.1294C116.389 80.8241 117.155 80.7391 117.584 80.9768C118.107 81.2666 117.729 81.8938 119.249 82.36C119.858 82.5466 119.929 83.0869 119.047 83.2847C118.715 83.3594 118.23 83.42 117.882 84.2371C118.128 84.5465 118.276 84.9208 117.95 85.237C117.635 85.5421 116.869 85.6274 116.44 85.3894C115.917 85.0996 116.296 84.4723 114.775 84.0062C114.167 83.8198 114.096 83.2795 114.978 83.0815C115.31 83.0068 115.795 82.9462 116.143 82.1291Z" fill="#CEDEE7"/>
<path fill-rule="evenodd" clip-rule="evenodd" d="M121.045 88.3166H121.304V83.2227H121.045V88.3166Z" fill="#CEDEE7"/>
<path fill-rule="evenodd" clip-rule="evenodd" d="M123.781 81.2014C123.731 80.7062 122.999 80.3055 122.098 80.2797C121.338 80.2577 120.675 80.4978 120.381 80.8504C120.239 81.0216 119.943 81.1365 119.602 81.1509L119.588 81.1514C118.977 81.1808 118.487 81.4557 118.447 81.7925C118.417 82.0378 118.888 82.2576 119.261 82.392C119.53 82.4893 119.695 82.6534 119.7 82.8305C119.7 82.8316 119.7 82.8327 119.7 82.8337C119.717 83.3488 120.475 83.7739 121.411 83.7921C122.422 83.8117 123.252 83.3673 123.252 82.8161C123.252 82.7403 123.236 82.6664 123.206 82.5958C123.092 82.3217 123.202 82.0351 123.486 81.8012C123.692 81.6314 123.805 81.4239 123.781 81.2014Z" fill="#CEDEE7"/>
<path fill-rule="evenodd" clip-rule="evenodd" d="M125.921 82.0202C125.771 81.5894 125.551 80.9809 124.845 80.8404C124.453 80.7622 124.17 80.8728 123.955 81.0521C123.695 81.224 123.58 81.4641 123.427 81.738C123.06 82.391 122.344 82.9927 122.424 83.7321C122.49 84.3444 123.15 84.8138 123.943 84.9287V87.436H124.652V84.9328C124.763 84.9181 124.874 84.8983 124.984 84.8682C126.646 84.4123 126.252 82.9718 125.921 82.0202Z" fill="#CEDEE7"/>
<path fill-rule="evenodd" clip-rule="evenodd" d="M153.915 87.0752C124.238 87.2882 104.963 87.6815 96.0894 88.2558C83.3165 88.9621 72.2464 92.4351 62.8789 98.6748H153.915V87.0752Z" fill="#CEDEE7"/>
<path fill-rule="evenodd" clip-rule="evenodd" d="M159.982 85.2812C149.56 86.2885 124.803 89.4027 119.051 89.4027C113.298 89.4027 98.4693 90.8804 94.2145 93.2723C89.9687 94.8856 86.9999 97.6032 85.3086 101.425H159.999C159.988 90.6626 159.982 85.2812 159.982 85.2812Z" fill="#9BC3D3"/>
<g opacity="0.595">
<path opacity="0.595" d="M149.144 56.1035H124.446C123.589 56.1035 122.895 56.7995 122.895 57.6582V59.2128C122.895 60.0712 123.589 60.7674 124.446 60.7674H149.144C150 60.7674 150.695 60.0712 150.695 59.2128V57.6582C150.695 56.7995 150 56.1035 149.144 56.1035Z" fill="#EAF7FE"/>
<path opacity="0.595" d="M144.49 51.6792H133.871C133.015 51.6792 132.32 52.3752 132.32 53.2338V54.7884C132.32 55.6468 133.015 56.3428 133.871 56.3428H144.49C145.347 56.3428 146.041 55.6468 146.041 54.7884V53.2338C146.041 52.3752 145.347 51.6792 144.49 51.6792Z" fill="#EAF7FE"/>
</g>
<path opacity="0.426" d="M103.178 62.5622C107.319 62.5622 110.677 59.1973 110.677 55.0465C110.677 50.8957 107.319 47.5308 103.178 47.5308C99.037 47.5308 95.6797 50.8957 95.6797 55.0465C95.6797 59.1973 99.037 62.5622 103.178 62.5622Z" fill="#DEEDF2"/>
<path fill-rule="evenodd" clip-rule="evenodd" d="M31.7925 47.6179C33.7071 45.1837 34.7239 43.8709 34.8429 43.6797C35.0213 43.3928 35.5149 42.2922 35.5149 41.7111C35.5149 41.13 35.6008 40.5997 35.7388 40.0754C35.8768 39.5511 35.8721 39.5034 35.7388 39.2284C35.6499 39.045 35.6785 38.949 35.8249 38.9402C35.8825 38.8645 35.8825 38.7878 35.8249 38.71C35.7388 38.5932 35.8249 38.6264 35.8249 38.4921C35.8249 38.3578 35.5896 38.5155 35.5149 38.3616C35.4399 38.2077 35.5269 38.1134 35.419 38.0517C35.3115 37.99 35.2129 38.4868 35.1172 38.5545C35.0213 38.6222 34.6212 38.9776 34.6212 39.4127C34.6212 39.8478 34.9483 40.3108 34.8429 40.5122C34.7375 40.7136 33.7805 42.1887 33.6745 42.4517C33.5686 42.7146 33.1054 43.6291 32.6409 43.7367C32.3312 43.8084 31.7567 44.2601 30.9178 45.0918L30.543 46.6515L31.7925 47.6179Z" fill="#F4A48D"/>
<path fill-rule="evenodd" clip-rule="evenodd" d="M29.3615 46.2659C29.3586 46.2603 30.933 45.6274 31.2525 45.0657C31.1653 44.9427 31.093 44.806 31.0392 44.6572C30.7179 43.7683 31.1789 42.782 32.0677 42.4562C32.9568 42.1303 33.9393 42.5875 34.2607 43.4765C34.3911 43.8374 34.3924 44.2145 34.2887 44.5568L34.2889 44.5571L34.1097 45.7298L33.8079 45.6612L33.4398 46.4497C33.3439 46.6551 33.1301 46.779 32.9052 46.7595L32.3975 46.7157V46.7156V46.7157C32.3975 46.7157 32.3434 46.7721 32.2532 46.8608L31.0811 47.9472L31.08 47.9467C30.8064 48.092 30.3859 48.1252 30.0724 47.9786C29.3428 47.6374 29.179 46.895 29.3615 46.2659Z" fill="#FFC4B8"/>
<path fill-rule="evenodd" clip-rule="evenodd" d="M32.1116 46.9954C31.9358 46.8299 31.7144 46.519 31.5859 45.9507L32.3544 46.7523C32.3544 46.7523 32.2602 46.8516 32.1116 46.9954ZM33.8305 45.6364C33.7319 45.6234 33.6772 45.5157 33.724 45.4264L34.0241 44.8506L33.8305 45.6364Z" fill="#F4A48D"/>
<mask id="mask0_1483_87274" style="mask-type:luminance" maskUnits="userSpaceOnUse" x="16" y="40" width="30" height="24">
<path fill-rule="evenodd" clip-rule="evenodd" d="M28.9466 45.8003C28.4905 45.3688 28.0551 45.1531 27.6408 45.1531C27.0191 45.1531 26.1972 44.6602 25.7916 44.3372C25.3859 44.0141 23.4046 43.1105 22.9766 42.8355C22.5486 42.5604 21.8041 42.369 21.8041 42.1032C21.8041 41.8373 21.6935 41.4644 21.4464 41.352C21.1993 41.2395 20.6925 40.8928 20.6925 40.8928C20.6925 40.8928 20.644 40.9309 20.547 41.0071L20.8771 41.4644L19.4754 40.7466L18.9602 41.0071V41.6371L19.8116 42.3631L20.2586 42.6865C20.5116 42.8622 20.6991 42.9501 20.8211 42.9501C21.0041 42.9501 21.191 43.0174 21.4464 43.1044C21.7018 43.1914 23.9431 45.1491 24.4532 45.3283C24.9634 45.5075 27.2887 46.7276 27.4273 46.9651C27.5656 47.2025 27.421 48.7648 27.436 49.2622C27.4512 49.7597 27.929 51.0616 27.7848 52.2432C27.6408 53.4248 26.9993 54.2057 26.9081 54.54C26.8168 54.8741 26.468 55.3392 26.6424 56.0175C26.8168 56.6955 26.6065 57.7587 26.3375 58.1325C26.0684 58.5063 25.2075 59.9713 25.0884 60.3763C24.9693 60.7814 24.4683 61.4499 23.8416 61.4499C23.2149 61.4499 22.2285 61.0655 21.6309 61.0655C21.0334 61.0655 19.2756 61.392 18.3299 61.2288C17.6995 61.1198 17.1862 61.0655 16.7901 61.0655L16.3672 62.2724L17.1776 62.841C17.8437 62.6484 18.7217 62.6484 19.8116 62.841C21.4464 63.1295 24.5757 63.6739 24.8321 63.6739C25.7085 63.6796 26.7269 61.5729 28.0032 60.3763C28.8322 59.2015 29.8123 57.15 30.354 56.8349C30.8954 56.52 33.7311 56.6765 34.5779 56.5983C35.4246 56.52 37.1495 56.3614 37.9588 56.5983C38.768 56.8349 38.7971 57.7788 40.4593 58.1325C42.1218 58.4862 44.183 59.3109 44.5199 59.4894C44.857 59.6676 46.1848 59.0026 45.5209 58.6563C44.857 58.3102 38.9554 54.54 38.3211 54.54C37.6868 54.54 33.8593 53.3597 33.0316 53.3597C32.2039 53.3597 31.2018 53.3809 31.0356 52.812C30.8696 52.2432 32.0225 50.1513 32.0225 49.6182C32.0225 49.3569 31.9263 48.7044 32.0225 48.2722C32.1224 47.8228 32.2428 47.7311 32.0225 47.46C31.7345 47.1055 30.7091 46.5522 28.9466 45.8003Z" fill="white"/>
</mask>
<g mask="url(#mask0_1483_87274)">
<path d="M28.9466 45.8003C28.4905 45.3688 28.0551 45.1531 27.6408 45.1531C27.0191 45.1531 26.1972 44.6602 25.7916 44.3372C25.3859 44.0141 23.4046 43.1105 22.9766 42.8355C22.5486 42.5604 21.8041 42.369 21.8041 42.1032C21.8041 41.8373 21.6935 41.4644 21.4464 41.352C21.1993 41.2395 20.6925 40.8928 20.6925 40.8928C20.6925 40.8928 20.644 40.9309 20.547 41.0071L20.8771 41.4644L19.4754 40.7466L18.9602 41.0071V41.6371L19.8116 42.3631L20.2586 42.6865C20.5116 42.8622 20.6991 42.9501 20.8211 42.9501C21.0041 42.9501 21.191 43.0174 21.4464 43.1044C21.7018 43.1914 23.9431 45.1491 24.4532 45.3283C24.9634 45.5075 27.2887 46.7276 27.4273 46.9651C27.5656 47.2025 27.421 48.7648 27.436 49.2622C27.4512 49.7597 27.929 51.0616 27.7848 52.2432C27.6408 53.4248 26.9993 54.2057 26.9081 54.54C26.8168 54.8741 26.468 55.3392 26.6424 56.0175C26.8168 56.6955 26.6065 57.7587 26.3375 58.1325C26.0684 58.5063 25.2075 59.9713 25.0884 60.3763C24.9693 60.7814 24.4683 61.4499 23.8416 61.4499C23.2149 61.4499 22.2285 61.0655 21.6309 61.0655C21.0334 61.0655 19.2756 61.392 18.3299 61.2288C17.6995 61.1198 17.1862 61.0655 16.7901 61.0655L16.3672 62.2724L17.1776 62.841C17.8437 62.6484 18.7217 62.6484 19.8116 62.841C21.4464 63.1295 24.5757 63.6739 24.8321 63.6739C25.7085 63.6796 26.7269 61.5729 28.0032 60.3763C28.8322 59.2015 29.8123 57.15 30.354 56.8349C30.8954 56.52 33.7311 56.6765 34.5779 56.5983C35.4246 56.52 37.1495 56.3614 37.9588 56.5983C38.768 56.8349 38.7971 57.7788 40.4593 58.1325C42.1218 58.4862 44.183 59.3109 44.5199 59.4894C44.857 59.6676 46.1848 59.0026 45.5209 58.6563C44.857 58.3102 38.9554 54.54 38.3211 54.54C37.6868 54.54 33.8593 53.3597 33.0316 53.3597C32.2039 53.3597 31.2018 53.3809 31.0356 52.812C30.8696 52.2432 32.0225 50.1513 32.0225 49.6182C32.0225 49.3569 31.9263 48.7044 32.0225 48.2722C32.1224 47.8228 32.2428 47.7311 32.0225 47.46C31.7345 47.1055 30.7091 46.5522 28.9466 45.8003Z" fill="#FFC4B8"/>
<path fill-rule="evenodd" clip-rule="evenodd" d="M31.0353 48.067C31.3822 48.067 31.6438 47.7668 31.8195 47.1664C32.2053 47.433 32.3982 47.6497 32.3982 47.8166C32.3982 47.9836 32.321 48.7917 32.1664 50.241L31.9779 52.5663L31.8195 53.5629L30.297 54.4693L27.2542 53.5629L26.5234 52.8805V51.0833L26.7518 48.067L27.2542 47.369C27.3203 47.8344 27.502 48.067 27.7994 48.067C28.2458 48.067 29.0542 45.9846 28.8879 45.3344C28.7771 44.9009 28.9681 44.9009 29.4608 45.3344C29.5776 47.0814 30.1025 47.9923 31.0353 48.067Z" fill="#2A8FEC"/>
</g>
<path fill-rule="evenodd" clip-rule="evenodd" d="M17.5621 61.174C17.2329 60.7241 16.7216 60.2466 16.4515 60.2466C16.1814 60.2466 15.2734 62.144 14.861 62.3461C14.4485 62.5485 14.0859 63.5289 14.0859 63.8755C14.0859 64.2221 14.3444 64.5307 14.6599 64.5307C14.9754 64.5307 15.0059 64.0141 15.6857 63.6737C16.3654 63.3333 17.0537 63.2309 17.2323 63.2309C17.4109 63.2309 17.3662 62.8221 17.2323 62.6053C17.0985 62.3888 17.0985 62.2807 17.2323 61.8045C17.3662 61.328 17.8914 61.6238 17.5621 61.174Z" fill="#767676"/>
<path fill-rule="evenodd" clip-rule="evenodd" d="M43.9711 59.491C44.1366 60.0239 44.4845 60.5181 44.7399 60.6066C44.9952 60.6949 46.4687 59.1979 46.9239 59.1416C47.3795 59.0854 48.0399 58.277 48.1521 57.9494C48.2645 57.6218 48.12 57.245 47.8217 57.1418C47.5235 57.0388 47.2779 57.2189 46.5743 57.6166C45.9857 57.9494 45.3343 57.8079 44.933 57.9494C44.6486 58.0499 44.7233 58.1422 44.7467 58.2455C44.8029 58.4943 44.7872 58.4715 44.5063 58.8781C44.2254 59.2848 43.8054 58.958 43.9711 59.491Z" fill="#767676"/>
<path fill-rule="evenodd" clip-rule="evenodd" d="M33.2953 42.0766C33.5985 42.212 33.8476 42.4191 34.0315 42.6694C34.2154 42.9196 34.3341 43.2129 34.3768 43.5207C34.4134 43.7846 34.3939 44.0589 34.3116 44.3257L34.3686 43.9429C34.3667 43.8276 34.3542 43.7111 34.3295 43.5943L34.3213 43.6062L34.3211 43.6067L34.3129 43.6182L34.3126 43.6189L34.3045 43.6303L34.304 43.6311L34.2961 43.6422L34.2953 43.6431L34.2874 43.6541L34.2866 43.655L34.2784 43.666L34.2779 43.6668L34.2695 43.6778L34.2692 43.6784L34.2605 43.6896V43.6898C34.2276 43.7321 34.1934 43.7727 34.1575 43.8117L34.1573 43.812L34.1483 43.8217L34.1472 43.8229L34.1388 43.8318L34.1369 43.8336L34.129 43.8421L34.1268 43.8442L34.119 43.8524L34.1165 43.8548L34.1089 43.8626L34.1062 43.8652L34.0986 43.8729L34.0959 43.8756L34.0883 43.8831L34.0853 43.8858L34.0777 43.8932L34.0747 43.896L34.0671 43.9033L34.0641 43.906L34.0565 43.9133L34.0535 43.9159L34.0459 43.9231L34.0429 43.9257L34.035 43.9329L34.0323 43.9354L34.0242 43.9426L34.0217 43.9449L34.0133 43.9523L34.0111 43.9541L34.0022 43.9619L34.0011 43.9629C33.9801 43.9809 33.959 43.9983 33.9372 44.0152L33.9356 44.0166L33.9269 44.0233L33.9239 44.0255L33.916 44.0317L33.9122 44.0344L33.9046 44.0402L33.9006 44.0432L33.8932 44.0487L33.8889 44.0518L33.8815 44.0572L33.8772 44.0604L33.8699 44.0656L33.8652 44.0689L33.8582 44.0739L33.8533 44.0772L33.8462 44.0822L33.8413 44.0855L33.8343 44.0903L33.8294 44.0937L33.8223 44.0984L33.8174 44.1018L33.8104 44.1064L33.8052 44.1097L33.7981 44.1143L33.793 44.1176L33.7859 44.1221L33.7808 44.1254L33.7737 44.1299L33.7685 44.133L33.7615 44.1375L33.7563 44.1406L33.749 44.145L33.7441 44.148L33.7365 44.1525L33.7319 44.1552L33.724 44.1598L33.7199 44.1621C33.7099 44.168 33.6995 44.1738 33.6895 44.1794L33.6868 44.1809L33.6789 44.1852L33.674 44.1879L33.6667 44.1918L33.6612 44.1947L33.6542 44.1984L33.6485 44.2015L33.6414 44.2051L33.6354 44.2081L33.6286 44.2116L33.6227 44.2147L33.6156 44.2181L33.6096 44.2211L33.6028 44.2244L33.5966 44.2275L33.5898 44.2307L33.5835 44.2337L33.5768 44.2369L33.5702 44.2399L33.5637 44.2429L33.5572 44.2459L33.5504 44.2489L33.5439 44.2518L33.5374 44.2548L33.5306 44.2577L33.5241 44.2606L33.5173 44.2634L33.5107 44.2662L33.504 44.269L33.4974 44.2718L33.4906 44.2746L33.4838 44.2773L33.4771 44.28L33.4705 44.2826L33.4635 44.2854L33.457 44.2879L33.4499 44.2906L33.4434 44.293L33.436 44.2958L33.4301 44.2981L33.4216 44.3011L33.4165 44.303L33.4029 44.3078L33.398 44.3095L33.3893 44.3125L33.3833 44.3145L33.3755 44.3172L33.3692 44.3192L33.3616 44.3217L33.3554 44.3237L33.348 44.3261L33.3415 44.3281L33.3342 44.3304L33.3277 44.3324L33.3203 44.3346L33.3138 44.3366L33.3065 44.3387L33.2997 44.3406L33.2923 44.3427L33.2858 44.3445L33.2785 44.3466L33.272 44.3484L33.2646 44.3504L33.2578 44.3521L33.2505 44.354L33.2437 44.3557L33.2364 44.3576L33.2299 44.3592L33.2223 44.361L33.2157 44.3626L33.2081 44.3643L33.2016 44.3659L33.194 44.3676L33.1875 44.369L33.1796 44.3707L33.1734 44.3721L33.1655 44.3737L33.159 44.3751L33.1511 44.3767L33.1448 44.3779L33.1364 44.3795L33.1304 44.3806L33.1215 44.3823L33.1163 44.3833L33.1049 44.3853L33.1019 44.3858L33.0878 44.3882L33.0834 44.3889L33.0734 44.3905L33.0677 44.3913L33.059 44.3927L33.053 44.3935L33.0446 44.3947L33.0383 44.3956L33.0302 44.3966L33.0237 44.3975L33.0158 44.3985L33.0093 44.3993L33.0014 44.4002L32.9946 44.401L32.9867 44.4018L32.9802 44.4025L32.9723 44.4033L32.9655 44.404L32.9579 44.4047L32.9511 44.4053L32.9433 44.406L32.9365 44.4065L32.9289 44.4071L32.9221 44.4076L32.9142 44.4082L32.9074 44.4086L32.8995 44.4091L32.893 44.4095L32.8849 44.4099L32.8783 44.4103L32.8705 44.4106L32.8637 44.4109L32.8558 44.4112L32.849 44.4114L32.8409 44.4117L32.8346 44.4118L32.8262 44.412L32.8199 44.4121L32.811 44.4122L32.8053 44.4123L32.7955 44.4123L32.7906 44.4124L32.7759 44.4123C32.7773 44.3939 32.7778 44.3758 32.7778 44.3581C32.7778 44.3359 32.7768 44.3144 32.7746 44.2936C32.7732 44.2802 32.7713 44.2671 32.7691 44.2544C32.7662 44.237 32.7624 44.2203 32.7577 44.2044C32.7556 44.1966 32.7531 44.189 32.7507 44.1816C32.749 44.1773 32.7477 44.1731 32.7461 44.169C32.7404 44.154 32.7338 44.14 32.7265 44.127C32.7145 44.1054 32.7007 44.0868 32.6849 44.0716C32.6795 44.0665 32.6741 44.0618 32.6684 44.0575C32.6532 44.0459 32.6366 44.0373 32.6184 44.0321L32.6159 44.0313L32.6132 44.0307L32.6105 44.03C32.6029 44.0283 32.595 44.0272 32.5871 44.0267L32.5839 44.0265C32.582 44.0264 32.5801 44.0264 32.5782 44.0264C32.5722 44.0264 32.5662 44.0267 32.5602 44.0274L32.5567 44.0278C32.5469 44.0292 32.5372 44.0314 32.5274 44.0346C32.5192 44.0372 32.5108 44.0404 32.5027 44.0443C32.5016 44.0448 32.5005 44.0453 32.4994 44.0459L32.4961 44.0476C32.476 44.0578 32.4562 44.0715 32.4372 44.0883C32.4242 44.0996 32.4117 44.1123 32.3994 44.1263L32.3986 44.1272L32.3943 44.1326L32.3935 44.1333L32.3888 44.139L32.3886 44.1393L32.384 44.1451L32.3834 44.1457L32.3791 44.1515L32.3782 44.1525L32.3739 44.1583L32.3731 44.1593L32.369 44.1653L32.3682 44.1663L32.3638 44.1725L32.3636 44.1732L32.359 44.1798L32.3546 44.1867L32.3541 44.1875L32.35 44.1941L32.3492 44.1951L32.3451 44.2017L32.3446 44.2029L32.3405 44.2096L32.3399 44.2106L32.3359 44.2177L32.3356 44.2182L32.3315 44.2256V44.2259L32.3274 44.2333L32.3269 44.2343L32.3231 44.2415L32.3226 44.2427L32.319 44.25L32.3185 44.2512L32.315 44.2587L32.3144 44.2597L32.3106 44.2675V44.2679L32.3071 44.2759L32.3068 44.2765L32.3033 44.2845L32.3027 44.2856L32.2995 44.2934L32.2989 44.2948L32.2957 44.3027L32.2954 44.3039L32.2921 44.3121L32.2919 44.313L32.2886 44.3216L32.2853 44.3304L32.2851 44.3313L32.2824 44.3398C32.2742 44.3633 32.2674 44.3877 32.2614 44.413L32.2601 44.4184C32.2585 44.4253 32.2571 44.4322 32.2557 44.4391C32.2538 44.4485 32.2522 44.4578 32.2506 44.467L32.2495 44.4739C32.2481 44.4828 32.2468 44.4917 32.2457 44.5006C32.2416 44.5353 32.2397 44.5691 32.2402 44.6016C32.2411 44.649 32.2468 44.6934 32.2568 44.7333C32.2623 44.7549 32.269 44.7751 32.2769 44.7937C32.2786 44.7973 32.2802 44.8009 32.2818 44.8044C32.2737 44.8269 32.2652 44.8493 32.2565 44.8716L32.2519 44.8835L32.2503 44.8874L32.247 44.8954L32.2451 44.8999L32.2419 44.9073L32.24 44.9119L32.237 44.9194L32.2351 44.9238L32.2316 44.932L32.2299 44.9355L32.2248 44.9472L32.2242 44.9487L32.2196 44.9588L32.218 44.9627L32.2144 44.9704L32.2123 44.9748L32.209 44.982L32.2071 44.9865L32.2036 44.9938L32.2017 44.998L32.1976 45.0064L32.1962 45.0094L32.1905 45.0208L32.1895 45.0232L32.1851 45.0321L32.1829 45.036L32.1794 45.0434L32.1772 45.0477L32.1737 45.0547L32.1713 45.059L32.1677 45.0663L32.1655 45.0702L32.1609 45.0789L32.1598 45.0813L32.1539 45.0924L32.1522 45.0952L32.1479 45.1034L32.1457 45.1074L32.1419 45.1144L32.1395 45.1186L32.1357 45.1254L32.1332 45.1296L32.1291 45.1367L32.1272 45.1405L32.1218 45.1496L32.121 45.1512L32.1147 45.162L32.1128 45.1651L32.1082 45.1726L32.1061 45.1766L32.102 45.1833L32.0993 45.1875L32.0955 45.1941L32.0927 45.1981L32.0884 45.2052L32.0862 45.2087L32.08 45.2188L32.0797 45.2191L32.0732 45.2295L32.071 45.2328L32.0664 45.2399L32.064 45.2438L32.0596 45.2502L32.0569 45.2542L32.0525 45.2607L32.0501 45.2646L32.0452 45.2716L32.0433 45.2748L32.0362 45.2849L32.0354 45.2861L32.0295 45.2949L32.027 45.2984L32.0221 45.305L32.0197 45.3088L32.0151 45.3151L32.0123 45.3189L32.0077 45.3253L32.005 45.3289L31.9998 45.336L31.9979 45.3388L31.9906 45.3486L31.989 45.3506L31.9833 45.3583L31.9806 45.3618L31.9759 45.368L31.9729 45.3718L31.9683 45.3778L31.9653 45.3815L31.9607 45.3877L31.958 45.3911L31.9523 45.3984L31.9504 45.4007L31.9428 45.4101L31.9409 45.4126L31.9352 45.4195L31.9325 45.423L31.9273 45.4289L31.9243 45.4326L31.9194 45.4383L31.9164 45.442L31.9116 45.448L31.9086 45.4512L31.9023 45.4587L31.901 45.4604L31.8928 45.4695L31.8906 45.4722L31.8849 45.4786L31.8819 45.482L31.8768 45.4876L31.8738 45.4912L31.8686 45.4967L31.8656 45.5002L31.8602 45.5061L31.8575 45.5091L31.8499 45.5172L31.8493 45.5179L31.8412 45.5267L31.8385 45.5296L31.8328 45.5354L31.8295 45.5388L31.8244 45.5441L31.8211 45.5476L31.8159 45.5529L31.8127 45.5563L31.807 45.562L31.8043 45.5648L31.7958 45.5732L31.7947 45.5744L31.7874 45.5816L31.7844 45.5846L31.7787 45.59L31.7755 45.5933L31.77 45.5984L31.7665 45.6018L31.7613 45.6069L31.7578 45.61L31.7518 45.6157L31.7491 45.6182L31.7404 45.6263L31.7385 45.6282L31.7317 45.6344L31.7285 45.6373L31.723 45.6424L31.7192 45.6456L31.7141 45.6504L31.7103 45.6537L31.7048 45.6586L31.7013 45.6616L31.6951 45.6672L31.6923 45.6694L31.6834 45.6771L31.6809 45.6793L31.6744 45.6848L31.6709 45.6878L31.6652 45.6925L31.6616 45.6956L31.6562 45.7001L31.6524 45.7033L31.6467 45.708L31.6432 45.7108L31.6361 45.7164L31.6339 45.7183L31.6247 45.7255L31.6217 45.728L31.6155 45.7329L31.6117 45.7359L31.606 45.7402L31.6022 45.7433L31.5964 45.7475L31.5926 45.7506L31.5867 45.755L31.5831 45.7577L31.5755 45.7635L31.5736 45.7648L31.5644 45.7717L31.5609 45.7743L31.5549 45.7787L31.5508 45.7816L31.5454 45.7856L31.541 45.7886L31.5356 45.7926L31.5315 45.7955L31.5253 45.7997L31.5217 45.8023L31.5128 45.8085L31.5122 45.8088L31.5101 45.8103L31.5025 45.8155L31.4987 45.8181L31.4927 45.8221L31.4886 45.8249L31.4829 45.8287L31.4786 45.8315L31.4728 45.8353L31.4688 45.838L31.4625 45.842L31.4587 45.8444L31.4492 45.8506L31.446 45.8526L31.4392 45.8569L31.4351 45.8595L31.4291 45.8631L31.4248 45.8658L31.4191 45.8693L31.4147 45.872L31.409 45.8755L31.4044 45.8781L31.3981 45.8819L31.3943 45.8842L31.3846 45.8899L31.3808 45.8921L31.3745 45.8958L31.3702 45.8984L31.3642 45.9017L31.3596 45.9043L31.3541 45.9075L31.3492 45.9101L31.3435 45.9133L31.3389 45.9158L31.3324 45.9194L31.3289 45.9215L31.3188 45.9268L31.3145 45.9291L31.3085 45.9323L31.3039 45.9348L31.2982 45.9378L31.2933 45.9404L31.2876 45.9432L31.2827 45.9457L31.277 45.9486L31.2724 45.9511L31.2656 45.9544L31.262 45.9562L31.2596 45.9574L31.2517 45.9612L31.2471 45.9636L31.2419 45.9661L31.2246 45.9744L31.2218 45.9756L31.2042 45.9839L31.2031 45.9844L31.1852 45.9924L31.1838 45.993L31.1659 46.0009L31.1634 46.002L31.1455 46.0096L31.1436 46.0105L31.1251 46.0182L31.1067 46.0256L31.1042 46.0266L31.0863 46.0336L31.0838 46.0345L31.0651 46.0416L31.0461 46.0486L31.0445 46.0492L31.026 46.0557L31.0235 46.0566L31.0048 46.063L31.0034 46.0635L30.9842 46.0698V46.0699L30.9649 46.076L30.9627 46.0768L30.944 46.0825L30.942 46.0831L30.9225 46.0889L30.9152 46.091L30.9122 46.0919L30.9054 46.0938L30.901 46.0951L30.8942 46.0969L30.8896 46.0982L30.8831 46.1L30.8785 46.1012L30.872 46.103L30.8676 46.1041L30.8608 46.1059L30.8578 46.1066L30.8502 46.1086L30.8424 46.1105L30.8394 46.1113L30.8323 46.113L30.8282 46.114L30.8212 46.1157L30.8168 46.1167L30.81 46.1183L30.8057 46.1193L30.7986 46.1209L30.7948 46.1217C30.7861 46.1237 30.7774 46.1255 30.7687 46.1274L30.766 46.128L30.7584 46.1295L30.7546 46.1303L30.7476 46.1317L30.7432 46.1325L30.7361 46.1339L30.7323 46.1347L30.7247 46.1361L30.7215 46.1367C30.7125 46.1383 30.7035 46.1399 30.6946 46.1415L30.6919 46.1419L30.6843 46.1432L30.6805 46.1438L30.6731 46.145L30.6693 46.1456L30.6617 46.1468L30.6582 46.1474L30.65 46.1486L30.6481 46.1489C30.6386 46.1503 30.6291 46.1516 30.6199 46.1528L30.6174 46.1532L30.6093 46.1542L30.606 46.1546L30.5981 46.1556L30.5946 46.156L30.5865 46.157L30.5837 46.1573L30.5751 46.1583L30.5745 46.1583C30.5645 46.1594 30.5547 46.1605 30.5446 46.1614L30.5422 46.1616L30.5338 46.1624L30.5308 46.1627L30.5226 46.1634L30.5196 46.1637L30.5112 46.1643L30.5088 46.1645C30.4955 46.1655 30.4822 46.1664 30.4688 46.1672L30.4669 46.1673L30.4582 46.1678L30.4555 46.1679L30.4468 46.1684L30.4441 46.1685L30.4352 46.1689L30.4338 46.1689C30.4202 46.1695 30.4066 46.1699 30.3931 46.1702L30.3911 46.1702L30.3819 46.1703L30.3797 46.1704L30.3708 46.1705L30.3686 46.1705L30.3591 46.1706C30.3447 46.1706 30.3308 46.1705 30.3167 46.1703L30.3151 46.1702L30.3059 46.17L30.3037 46.17L30.2944 46.1697L30.2928 46.1697C30.2754 46.1692 30.2578 46.1685 30.2404 46.1675L30.239 46.1674L30.2292 46.1668L30.2276 46.1667L30.2178 46.1661L30.217 46.166C30.1994 46.1649 30.1814 46.1634 30.1638 46.1618L30.1627 46.1617L30.1526 46.1607L30.1516 46.1606C30.1301 46.1584 30.1086 46.1559 30.0872 46.1531L30.0864 46.153L30.076 46.1516L30.0755 46.1515C30.054 46.1486 30.0323 46.1452 30.0108 46.1415L30.0103 46.1414L29.9997 46.1395C29.8394 46.1111 29.6805 46.0629 29.5251 45.9937C29.4833 45.975 29.4423 45.9549 29.4024 45.9337C29.2999 45.8793 29.1761 45.8941 29.0886 45.9711C28.5369 46.4581 27.7334 46.6087 27.0194 46.2902C26.6955 46.1457 26.431 45.9227 26.2378 45.6534C26.0943 45.4534 25.8526 45.3562 25.6085 45.3838C25.4332 45.4036 25.2506 45.3784 25.078 45.3013C24.5285 45.0561 24.3001 44.3855 24.6048 43.8459C24.8283 43.45 25.2939 43.2455 25.7339 43.3508C25.7373 43.3516 25.7407 43.3524 25.744 43.3533C25.9846 43.4133 26.2389 43.3444 26.4107 43.1642C26.9613 42.5865 27.8333 42.3867 28.6013 42.7293L28.6032 42.7301C28.7088 42.7774 28.8324 42.7532 28.9145 42.6707C29.5194 42.0619 30.4705 41.8727 31.2884 42.2892C31.3164 42.3035 31.3441 42.3184 31.3713 42.3339L31.3715 42.3337C31.3751 42.3307 31.3789 42.3278 31.3824 42.3248L31.3835 42.3239L31.3848 42.3229L31.3881 42.3203L31.396 42.314C31.3998 42.3111 31.4036 42.3082 31.4074 42.3053L31.4085 42.3043L31.4098 42.3034C31.4134 42.3005 31.4172 42.2976 31.421 42.2947L31.4291 42.2887L31.4324 42.2861L31.4337 42.2852L31.4348 42.2843C31.4386 42.2815 31.4424 42.2788 31.4462 42.2759L31.4538 42.2703L31.4579 42.2675L31.4593 42.2665L31.4604 42.2658C31.4642 42.263 31.468 42.2603 31.4718 42.2576L31.4723 42.2573L31.4734 42.2566L31.4791 42.2523L31.4837 42.2491L31.4851 42.2482L31.4859 42.2477C31.4897 42.245 31.4938 42.2423 31.4976 42.2397L31.4981 42.2393L31.4995 42.2384L31.5046 42.2348L31.5101 42.2313L31.5111 42.2304L31.512 42.23C31.5158 42.2274 31.5198 42.2248 31.5236 42.2223L31.5245 42.2217L31.5258 42.2208L31.5304 42.2177L31.5367 42.2138L31.5378 42.2131L31.538 42.2128C31.5421 42.2103 31.5459 42.2077 31.55 42.2052L31.5511 42.2046L31.5524 42.2038L31.5565 42.2011L31.5636 42.1967L31.5647 42.1961C31.5685 42.1936 31.5725 42.1911 31.5766 42.1886L31.5777 42.188L31.5791 42.1872L31.5829 42.1849L31.5913 42.1798C31.5954 42.1774 31.5994 42.175 31.6035 42.1725L31.6049 42.1718L31.606 42.1711C31.6144 42.1663 31.6225 42.1615 31.6309 42.1569L31.632 42.1561L31.6334 42.1555C31.6375 42.1531 31.6415 42.1508 31.6456 42.1485L31.654 42.1439L31.6584 42.1417L31.6597 42.1409L31.6608 42.1403C31.6649 42.1381 31.669 42.1358 31.6731 42.1337L31.6812 42.1294L31.6861 42.1268L31.6874 42.1261L31.6883 42.1257C31.6926 42.1235 31.6967 42.1214 31.7008 42.1192L31.7016 42.1189L31.7027 42.1183L31.7086 42.1152L31.7141 42.1126L31.7154 42.1119L31.7162 42.1115C31.7203 42.1094 31.7247 42.1074 31.7287 42.1053L31.7296 42.1049L31.7309 42.1042L31.7363 42.1017L31.7426 42.0987L31.7437 42.0981L31.7442 42.0978C31.7486 42.0958 31.7526 42.0938 31.757 42.0918L31.7578 42.0913L31.7594 42.0907L31.7641 42.0885L31.7714 42.0852L31.7725 42.0846C31.7768 42.0827 31.7812 42.0807 31.7855 42.0788L31.7866 42.0783L31.788 42.0776L31.792 42.0758L31.8005 42.0721L31.801 42.0719C31.8053 42.07 31.8097 42.0681 31.814 42.0662L31.8154 42.0657L31.8168 42.0651C31.8254 42.0614 31.8341 42.0577 31.8428 42.0542L31.8442 42.0536L31.8455 42.053C31.8499 42.0513 31.8542 42.0495 31.8589 42.0478L31.8678 42.0442L31.8719 42.0426L31.8735 42.042L31.8746 42.0415C31.879 42.0398 31.8833 42.0382 31.8879 42.0365L31.8966 42.0332L31.9012 42.0314L31.9029 42.0308L31.904 42.0305C31.9083 42.0288 31.9126 42.0272 31.917 42.0257L31.9175 42.0255L31.9189 42.025L31.9254 42.0227L31.9308 42.0208L31.9325 42.0202L31.9333 42.0199C31.9376 42.0184 31.942 42.0169 31.9463 42.0154L31.9474 42.0151L31.9488 42.0146L31.9545 42.0126L31.9607 42.0106L31.9621 42.0101L31.9629 42.0099C31.9672 42.0085 31.9716 42.007 31.9759 42.0056L31.977 42.0053L31.9787 42.0047L31.9838 42.0031L31.9909 42.0009L31.992 42.0005L31.9925 42.0004C31.9969 41.999 32.0015 41.9976 32.0058 41.9962L32.0072 41.9959L32.0088 41.9954L32.0132 41.994L32.0213 41.9916L32.0224 41.9913C32.0267 41.99 32.0314 41.9887 32.0357 41.9874L32.0371 41.987L32.0387 41.9865L32.0428 41.9855L32.0523 41.9828C32.0569 41.9815 32.0615 41.9803 32.0659 41.9791L32.0675 41.9787L32.0691 41.9783C32.0735 41.977 32.0781 41.9759 32.0827 41.9747L32.0922 41.9723L32.0963 41.9712L32.0979 41.9708L32.0993 41.9705C32.1039 41.9693 32.1082 41.9683 32.1128 41.9672L32.1221 41.965L32.1267 41.9639L32.1286 41.9635L32.1297 41.9632C32.1343 41.9622 32.1387 41.9611 32.1433 41.9601L32.1438 41.96L32.1452 41.9597L32.1522 41.9582L32.1574 41.957L32.1593 41.9567L32.1601 41.9564C32.1647 41.9555 32.1694 41.9545 32.1737 41.9536L32.1745 41.9534L32.1761 41.9531L32.1824 41.9519L32.1884 41.9507L32.19 41.9504L32.1908 41.9502C32.1954 41.9493 32.1998 41.9485 32.2044 41.9476L32.2055 41.9474L32.2071 41.9471L32.2125 41.9461L32.2193 41.9449L32.221 41.9446L32.2215 41.9445C32.2261 41.9437 32.2307 41.9429 32.2354 41.9421L32.2364 41.9419L32.2383 41.9416L32.243 41.9408L32.2508 41.9395L32.2525 41.9393C32.2571 41.9385 32.2617 41.9378 32.2663 41.9371L32.2677 41.9369L32.2693 41.9367L32.2734 41.936L32.2826 41.9347L32.2834 41.9346C32.2881 41.9339 32.2927 41.9332 32.2973 41.9327L32.2989 41.9324L32.3006 41.9322C32.3052 41.9316 32.3098 41.931 32.3144 41.9304L32.3245 41.9291L32.3285 41.9287L32.3302 41.9285L32.3315 41.9283C32.3361 41.9278 32.3408 41.9273 32.3454 41.9268L32.3552 41.9257L32.3598 41.9253L32.3614 41.9251L32.3628 41.925C32.3674 41.9245 32.372 41.9241 32.3766 41.9237L32.3772 41.9236L32.3785 41.9235L32.3859 41.9228L32.3913 41.9224L32.3929 41.9222L32.394 41.9222C32.3986 41.9218 32.4032 41.9214 32.4081 41.921L32.4087 41.921L32.4103 41.9209L32.4168 41.9204L32.4228 41.92L32.4244 41.9199L32.4255 41.9198C32.4301 41.9196 32.4347 41.9193 32.4394 41.919L32.4402 41.9189L32.4421 41.9188L32.4478 41.9185L32.4546 41.9182L32.4562 41.9181L32.4568 41.9181C32.4614 41.9178 32.4663 41.9177 32.4709 41.9175L32.472 41.9174L32.4739 41.9174L32.4788 41.9172L32.4866 41.9169L32.4883 41.9169C32.4929 41.9167 32.4975 41.9166 32.5024 41.9165L32.5037 41.9164L32.5054 41.9164L32.51 41.9163L32.519 41.9162L32.5198 41.9162C32.5244 41.9161 32.5293 41.916 32.5339 41.916H32.5355L32.5372 41.916C32.5467 41.916 32.5562 41.916 32.5657 41.9161L32.5673 41.9162H32.5687C32.5736 41.9162 32.5782 41.9163 32.5831 41.9164L32.5928 41.9166L32.5975 41.9168L32.5991 41.9168L32.6005 41.9169C32.6051 41.917 32.61 41.9172 32.6146 41.9173L32.6241 41.9178L32.6292 41.918L32.6309 41.918L32.632 41.9181C32.6369 41.9184 32.6415 41.9186 32.6464 41.9188L32.6469 41.9189L32.6485 41.919L32.6553 41.9194L32.661 41.9198L32.6629 41.9198L32.6637 41.9199C32.6684 41.9202 32.6733 41.9205 32.6779 41.9209L32.6787 41.9209L32.6803 41.9211L32.6866 41.9215L32.6931 41.9221L32.6947 41.9222L32.6955 41.9223C32.7001 41.9227 32.7048 41.9231 32.7097 41.9235L32.7107 41.9236L32.7124 41.9237L32.7178 41.9242L32.7254 41.925L32.7265 41.9251L32.727 41.9252C32.7319 41.9256 32.7365 41.9261 32.7414 41.9266L32.7425 41.9268L32.7444 41.9269L32.749 41.9275L32.7577 41.9285L32.7588 41.9286C32.7634 41.9291 32.7683 41.9298 32.7732 41.9304L32.7746 41.9305L32.7762 41.9307C32.7857 41.932 32.7952 41.9332 32.805 41.9346L32.8064 41.9349L32.808 41.9351C32.8126 41.9358 32.8175 41.9365 32.8224 41.9372L32.8324 41.9388L32.8368 41.9395L32.8384 41.9398L32.8398 41.94C32.8444 41.9408 32.8493 41.9416 32.8539 41.9423L32.8637 41.9441L32.8686 41.9449L32.8702 41.9452L32.8713 41.9455C32.8762 41.9463 32.8808 41.9472 32.8857 41.9481L32.8862 41.9482L32.8876 41.9485L32.8949 41.9499L32.9004 41.951L32.902 41.9513L32.9031 41.9515C32.9077 41.9524 32.9126 41.9534 32.9172 41.9544L32.918 41.9545L32.9196 41.9548L32.9259 41.9562L32.9324 41.9576L32.934 41.9579L32.9346 41.9581C32.9395 41.9591 32.9441 41.9601 32.949 41.9612L32.9498 41.9614L32.9514 41.9618L32.9571 41.9631L32.9645 41.9648L32.9658 41.9651L32.9661 41.9652C32.971 41.9664 32.9756 41.9675 32.9805 41.9686L32.9816 41.9689L32.9832 41.9693L32.9881 41.9706L32.9965 41.9727L32.9976 41.973C33.0025 41.9742 33.0071 41.9754 33.012 41.9767L33.0134 41.977L33.015 41.9775L33.0193 41.9786L33.0291 41.9813C33.034 41.9827 33.0386 41.9839 33.0435 41.9853L33.0449 41.9857L33.0465 41.9862C33.056 41.9889 33.0655 41.9916 33.075 41.9945L33.0764 41.995L33.078 41.9954C33.0826 41.9968 33.0872 41.9983 33.0921 41.9997L33.1016 42.0028L33.1063 42.0043L33.1082 42.0049L33.1092 42.0053C33.1139 42.0068 33.1188 42.0083 33.1234 42.0098L33.1236 42.01L33.125 42.0104L33.1326 42.0129L33.1378 42.0147L33.1394 42.0153L33.1405 42.0156C33.1451 42.0173 33.1497 42.0189 33.1543 42.0205L33.1552 42.0208L33.1568 42.0213L33.1633 42.0236L33.1693 42.0258L33.1709 42.0264L33.1717 42.0267C33.1763 42.0283 33.181 42.0301 33.1856 42.0317L33.1864 42.0321L33.1883 42.0328L33.1937 42.0349L33.2005 42.0374L33.2022 42.038L33.2027 42.0383C33.2073 42.0401 33.2119 42.0418 33.2165 42.0436L33.2176 42.0441L33.2195 42.0448L33.2244 42.0467L33.232 42.0498L33.2334 42.0503L33.2337 42.0505C33.2383 42.0524 33.2429 42.0542 33.2475 42.0561L33.2489 42.0567L33.2505 42.0574L33.2549 42.0592L33.2635 42.0628L33.2646 42.0633C33.2692 42.0652 33.2736 42.0672 33.2782 42.0692L33.2798 42.0698L33.2815 42.0706C33.2861 42.0725 33.2907 42.0746 33.2953 42.0766Z" fill="#9E3667"/>
<path fill-rule="evenodd" clip-rule="evenodd" d="M34.5526 53.6364C34.1943 54.596 34.0151 55.1812 34.0151 55.3914C34.0151 55.6019 33.9393 56.0485 33.788 56.7315C32.2121 56.7315 31.2948 56.7315 31.0354 56.7315C30.7762 56.7315 30.4635 56.8434 30.0979 57.0669L29.3498 58.7723C27.3866 58.4972 26.3253 58.3051 26.1659 58.1964C25.9268 58.0337 26.5235 57.0737 26.5235 56.4987C26.5235 56.2544 26.5268 55.919 26.5235 55.5558C26.5191 55.0652 26.7998 54.5262 27.0556 54.1152C27.3521 53.6384 27.5501 53.3239 27.6496 53.1719C28.4808 53.4815 29.2202 53.6364 29.8675 53.6364C30.5149 53.6364 31.0745 53.4815 31.5463 53.1719C32.3488 53.2343 32.9255 53.2927 33.2767 53.347C33.628 53.4012 34.0531 53.4977 34.5526 53.6364Z" fill="#2274C0"/>
</svg>
