<svg width="160" height="161" viewBox="0 0 160 161" fill="none" xmlns="http://www.w3.org/2000/svg">
<path fill-rule="evenodd" clip-rule="evenodd" d="M100 92.473C98.2377 92.3524 96.4228 92.6829 94.7227 93.5163L95.8367 95.7724C97.6287 94.8929 99.5853 94.7532 101.367 95.2418C103.468 95.8064 105.323 97.2352 106.359 99.3316C106.992 100.612 107.237 101.986 107.152 103.312C108.07 102.861 108.673 102.47 109.691 102.575C109.658 101.11 109.316 99.6175 108.625 98.2196C106.932 94.7902 103.576 92.7099 100 92.473Z" fill="#9BC3D3"/>
<path fill-rule="evenodd" clip-rule="evenodd" d="M105.701 121.89L101.483 123.959C100.025 124.674 98.2556 124.075 97.5379 122.622L93.0363 113.507C92.6347 112.694 92.6395 111.775 92.9867 110.998C94.3576 112.051 95.9818 112.737 97.6688 113.002C97.734 113.227 98.2825 114.3 98.396 114.531C98.7505 115.249 99.6169 115.549 100.334 115.198L108.891 111.001C109.61 110.647 109.91 109.775 109.555 109.057L108.907 107.744C108.561 107.043 107.683 106.73 106.957 107.084L99.7622 110.614C98.0518 110.711 96.3612 110.246 94.9456 109.298L108.064 102.863C109.562 102.129 111.295 102.779 112.001 104.206L116.502 113.32C117.22 114.774 116.628 116.531 115.169 117.247L111.271 119.158L117.212 131.186C115.955 132.876 117.173 135.353 119.291 135.395L123.331 143.576C123.627 144.176 123.38 144.9 122.778 145.194L119.694 146.708C119.093 147.003 118.365 146.757 118.069 146.157L111.236 132.324L112.119 129.648L109.143 128.86L105.701 121.89Z" fill="#F6C854"/>
<path fill-rule="evenodd" clip-rule="evenodd" d="M106.904 124.347L112.49 121.608L111.285 119.15L105.699 121.89L106.904 124.347Z" fill="#D39E00"/>
<path fill-rule="evenodd" clip-rule="evenodd" d="M108.623 107.359C107.62 109.412 106.08 110.926 104.288 111.885C101.091 113.598 97.0915 113.548 93.9297 111.652C93.9339 111.652 93.9399 111.649 93.9435 111.649C94.9498 111.534 95.839 110.921 96.3044 110.025C98.9817 111.135 101.675 110.621 103.645 109.326H103.646C104.258 108.924 104.798 108.448 105.247 107.921C106.521 107.297 107.668 106.409 108.623 107.359Z" fill="#9BC3D3"/>
<path fill-rule="evenodd" clip-rule="evenodd" d="M86.4329 122.801C83.2382 120.223 81.5096 116.037 82.2862 111.719C83.0583 107.431 86.1029 104.116 89.9628 102.789C89.8875 104.801 90.3942 106.84 91.5733 108.712C91.425 110.272 92.4995 111.715 94.0765 111.995C95.7593 112.302 97.3364 111.159 97.6238 109.534C97.9232 107.881 96.8189 106.297 95.1557 105.999C94.4404 105.87 93.7389 106.003 93.1485 106.326C92.5563 104.994 92.371 103.578 92.5407 102.219C93.6075 102.108 94.7058 102.143 95.8143 102.342C100.01 103.092 103.276 105.993 104.671 109.7H104.673C104.979 110.515 105.195 111.369 105.312 112.247C105.312 112.25 105.314 112.254 105.314 112.259C105.465 113.415 105.445 114.613 105.226 115.823C104.421 120.286 101.155 123.693 97.0687 124.904L96.0082 124.714L95.4237 127.963L92.3545 127.411L87.9382 151.934L85.5622 153.543L90.3333 127.048L88.3127 126.684L83.8949 151.211L85.5616 153.543L83.8949 151.211L82.2277 148.878L86.2896 126.32L85.1224 126.11L85.7401 122.676L86.4329 122.801ZM88.4561 113.674C88.3133 114.467 87.5532 114.993 86.7596 114.851C85.9642 114.708 85.4365 113.951 85.5799 113.16C85.7222 112.367 86.4799 111.842 87.2753 111.984C88.0707 112.126 88.5983 112.882 88.4561 113.674Z" fill="#D39E00"/>
<path fill-rule="evenodd" clip-rule="evenodd" d="M88.313 126.684L90.3336 127.048L85.562 153.543L83.8953 151.211L88.313 126.684ZM92.3543 127.411L94.3768 127.775L93.7448 131.285L94.9143 134.527L92.6865 137.161L93.8566 140.403L91.6281 143.038L92.7982 146.279L90.5704 148.912L90.3164 150.325L87.9386 151.934L92.3543 127.411ZM104.287 111.885C104.287 111.881 104.285 111.876 104.285 111.873C104.168 110.995 103.952 110.142 103.646 109.326H103.644C102.248 105.619 98.9827 102.718 94.7869 101.968C93.6784 101.769 92.5801 101.734 91.5134 101.845C91.3437 103.204 91.529 104.621 92.1212 105.953C92.7116 105.629 93.4131 105.497 94.1284 105.625C95.7916 105.924 96.8958 107.507 96.5965 109.16C96.3091 110.785 94.732 111.929 93.0492 111.621C91.4722 111.342 90.3977 109.899 90.5459 108.338C89.3669 106.467 88.8601 104.427 88.9354 102.416C85.0756 103.742 82.0309 107.057 81.2588 111.345C80.4557 115.811 82.3321 120.136 85.7383 122.686L96.0413 124.53C100.128 123.319 103.393 119.912 104.199 115.449C104.418 114.239 104.437 113.041 104.287 111.885ZM87.4288 113.301C87.286 114.093 86.5258 114.619 85.7322 114.477C84.9369 114.334 84.4092 113.577 84.5526 112.787C84.6949 111.994 85.4526 111.468 86.2479 111.61C87.0433 111.752 87.571 112.508 87.4288 113.301Z" fill="#F6C854"/>
<path fill-rule="evenodd" clip-rule="evenodd" d="M92.1037 105.906C91.5276 104.587 91.3466 103.189 91.5151 101.846C91.8276 99.3136 93.3736 96.9801 95.838 95.7713L94.7241 93.5164C91.1804 95.2533 89.0763 98.741 88.9371 102.416C88.8624 104.394 89.3524 106.399 90.4914 108.246C90.4914 108.247 90.4908 108.247 90.4908 108.248C91.4481 109.741 92.6845 110.904 93.9305 111.651C93.9341 111.651 93.9401 111.649 93.9442 111.649C94.9506 111.534 95.8398 110.921 96.3046 110.025C94.3907 109.237 92.8704 107.642 92.1037 105.906Z" fill="#DEEDF2"/>
<g clip-path="url(#clip0_1487_18507)">
<path fill-rule="evenodd" clip-rule="evenodd" d="M32.4724 12.0051L55.1529 51.2225L93.6246 52.6382L102.01 49.2708L112.814 47.1123C114.013 46.8725 115.214 47.5115 115.684 48.6382C115.818 48.9615 115.882 49.2946 115.882 49.6211C115.882 50.7519 115.124 51.8049 113.947 52.1022L106.065 54.0972L102.207 56.1749L110.934 57.6019L129.514 61.5638C131.12 61.9064 132.2 63.4165 132.001 65.045C131.792 66.7682 130.233 68.0025 128.504 67.8135L116.053 66.4528L131.723 74.7276C133.556 75.6949 134.044 78.0931 132.738 79.6988C132.099 80.483 131.154 80.9117 130.185 80.9117C129.773 80.9117 129.356 80.8344 128.958 80.674L108.534 72.4622L101.212 69.5183L103.234 74.0179C104.233 75.6784 104.584 77.6481 104.22 79.5507L101.255 95.0536C100.871 97.0626 98.8362 98.3033 96.871 97.7285C96.871 97.7287 96.871 97.7288 96.871 97.729C96.9286 98.7683 96.4939 99.8065 95.6426 100.495C95.0294 100.99 94.2886 101.235 93.5491 101.235C92.7169 101.235 91.8869 100.925 91.2455 100.312L85.8775 95.1757C85.2948 95.019 82.7282 93.9864 79.4355 92.6235C76.1418 91.2617 72.1219 89.5697 68.6306 88.0919C63.2501 85.8148 58.4003 82.4521 54.385 78.2136L49.9034 73.4825L21 47.1189L24.9183 32.1442L27.2274 23.3177L27.2271 23.3174L32.4724 12.0051ZM94.4941 92.5587L95.4425 78.6723L91.3876 72.3407L84.5257 69.4345L84.4741 69.4263L84.4739 69.4265L79.1194 78.6724L87.7632 85.1114C90.4777 87.1326 92.762 89.6645 94.493 92.557C94.4934 92.5576 94.4937 92.5581 94.4941 92.5587Z" fill="#F4A48D"/>
</g>
<path fill-rule="evenodd" clip-rule="evenodd" d="M92.1076 105.877C91.5315 104.559 91.3505 103.16 91.519 101.817C91.8315 99.2848 93.3775 96.9513 95.8419 95.7425L94.728 93.4875C91.1843 95.2245 89.0802 98.7122 88.941 102.387C88.8663 104.365 89.3563 106.37 90.4953 108.217C90.4953 108.218 90.4947 108.218 90.4947 108.219C91.452 109.712 92.6884 110.875 93.9344 111.622C93.938 111.622 93.944 111.62 93.9481 111.62C94.9545 111.506 95.8437 110.892 96.3085 109.996C94.3946 109.209 92.8743 107.613 92.1076 105.877Z" fill="#DEEDF2"/>
<defs>
<clipPath id="clip0_1487_18507">
<rect width="112.474" height="89.2296" fill="white" transform="translate(21 12.0051)"/>
</clipPath>
</defs>
</svg>
