<svg width="160" height="160" viewBox="0 0 160 160" fill="none" xmlns="http://www.w3.org/2000/svg">
<path fill-rule="evenodd" clip-rule="evenodd" d="M79.3881 14.5314C60.3234 28.2769 44.7737 24.2937 34.374 22.5852C13.6231 19.1751 5.88846 38.6178 13.458 53.3776C21.0279 68.137 27.3691 86.0955 9.15124 100.335C-9.0662 114.574 11.4392 150.596 40.8007 140.66C70.1619 130.722 103.309 132.127 118.415 142.872C133.521 153.616 166.843 128.498 140.478 103.203C114.113 77.9075 131.323 67.1342 140.324 55.6265C149.326 44.1184 145.641 22.9117 120.454 12.5798C120.454 12.5798 98.4532 0.786416 79.3881 14.5314Z" fill="#EAF7FE"/>
<path fill-rule="evenodd" clip-rule="evenodd" d="M159.964 139.973C159.964 143.405 125.053 146.187 81.9878 146.187C38.9227 146.187 4.01172 143.405 4.01172 139.973C4.01172 136.541 38.9227 133.759 81.9878 133.759C125.053 133.759 159.964 136.541 159.964 139.973Z" fill="#CEDEE7"/>
<path fill-rule="evenodd" clip-rule="evenodd" d="M76.8466 141.191C81.4129 141.191 85.1147 133.858 85.1147 124.812C85.1147 115.766 81.4129 108.433 76.8466 108.433H66.2383V141.191H76.8466Z" fill="black"/>
<path fill-rule="evenodd" clip-rule="evenodd" d="M57.9297 124.812C57.9297 115.766 61.6315 108.433 66.1978 108.433C70.7641 108.433 74.4659 115.766 74.4659 124.812C74.4659 133.858 70.7641 141.191 66.1978 141.191C61.6315 141.191 57.9297 133.858 57.9297 124.812Z" fill="black"/>
<path fill-rule="evenodd" clip-rule="evenodd" d="M137.479 141.191C142.046 141.191 145.748 133.858 145.748 124.812C145.748 115.766 142.046 108.433 137.479 108.433H126.871V141.191H137.479Z" fill="black"/>
<path fill-rule="evenodd" clip-rule="evenodd" d="M118.566 124.812C118.566 115.766 122.268 108.433 126.835 108.433C131.401 108.433 135.103 115.766 135.103 124.812C135.103 133.858 131.401 141.191 126.835 141.191C122.268 141.191 118.566 133.858 118.566 124.812Z" fill="black"/>
<path fill-rule="evenodd" clip-rule="evenodd" d="M22.6436 132.942L16.9803 131.549C15.041 131.071 13.4115 129.763 12.5266 127.972L12.5226 127.964C12.1366 127.183 11.6031 126.483 10.9521 125.904L9.56064 124.667C7.94645 123.231 7.11403 121.112 7.31995 118.961L8.08677 110.951C8.34991 108.201 10.2571 105.887 12.9064 105.102L16.9537 103.905L31.5609 102.865L22.6436 132.942Z" fill="#CC0000"/>
<path fill-rule="evenodd" clip-rule="evenodd" d="M34.995 141.191C39.5614 141.191 43.2632 133.858 43.2632 124.812C43.2632 115.766 39.5614 108.433 34.995 108.433H24.3867V141.191H34.995Z" fill="black"/>
<path fill-rule="evenodd" clip-rule="evenodd" d="M16.082 124.812C16.082 115.766 19.7838 108.433 24.3502 108.433C28.9165 108.433 32.6183 115.766 32.6183 124.812C32.6183 133.858 28.9165 141.191 24.3502 141.191C19.7838 141.191 16.082 133.858 16.082 124.812Z" fill="black"/>
<path fill-rule="evenodd" clip-rule="evenodd" d="M18.5469 124.812C18.5469 117.661 21.144 111.865 24.3476 111.865C27.5512 111.865 30.1484 117.661 30.1484 124.812C30.1484 131.963 27.5512 137.759 24.3476 137.759C21.144 137.759 18.5469 131.963 18.5469 124.812Z" fill="#767676"/>
<path fill-rule="evenodd" clip-rule="evenodd" d="M108.258 132.942L122.537 101.031C122.537 101.031 101.171 85.124 74.0829 85.124C30.148 85.124 31.6562 91.0472 16.9531 103.905L23.3709 108.433C34.789 108.433 35.741 126.534 37.5662 131.624C37.849 132.414 38.5951 132.942 39.4337 132.942H108.258Z" fill="#CC0000"/>
<path fill-rule="evenodd" clip-rule="evenodd" d="M103.9 124.812C103.9 115.766 100.198 108.433 95.6318 108.433H85.0234V141.191H95.6318C100.198 141.191 103.9 133.858 103.9 124.812Z" fill="black"/>
<path fill-rule="evenodd" clip-rule="evenodd" d="M76.7148 124.812C76.7148 115.766 80.4167 108.433 84.983 108.433C89.5497 108.433 93.2515 115.766 93.2515 124.812C93.2515 133.858 89.5497 141.191 84.983 141.191C80.4167 141.191 76.7148 133.858 76.7148 124.812Z" fill="black"/>
<path fill-rule="evenodd" clip-rule="evenodd" d="M79.1797 124.812C79.1797 117.661 81.7768 111.865 84.9804 111.865C88.1844 111.865 90.7815 117.661 90.7815 124.812C90.7815 131.963 88.1844 137.759 84.9804 137.759C81.7768 137.759 79.1797 131.963 79.1797 124.812Z" fill="#767676"/>
<path fill-rule="evenodd" clip-rule="evenodd" d="M99.7372 130.308C98.4211 124.33 92.1305 108.452 84.5877 108.452L76.418 101.031C76.418 101.031 116.447 101.031 122.537 101.031C125.731 101.031 139.91 102.99 147.945 108.433C154.437 112.83 155.226 119.5 156.169 129.25C156.362 131.241 154.62 132.952 152.421 132.953C133.941 132.961 111.576 133.024 103.435 133.049C101.638 133.055 100.09 131.908 99.7372 130.308Z" fill="#CC0000"/>
<path fill-rule="evenodd" clip-rule="evenodd" d="M119.204 101.031C112.559 101.031 99.1763 101.031 89.1391 101.031C87.7286 101.031 86.3969 100.346 85.6078 99.1769C82.2614 94.2196 76.3389 89.1966 72 86.8174C102.396 86.8174 119.204 101.031 119.204 101.031Z" fill="#DEEDF2"/>
<path fill-rule="evenodd" clip-rule="evenodd" d="M80.2654 101.03C77.8716 101.03 76.4178 101.03 76.4178 101.03H65.0448C66.6102 97.5137 67.8238 94.2861 67.955 92.0093C66.3029 91.8865 65.0189 91.7906 64.0218 91.7166C65.7726 91.8467 67.2611 91.9568 67.9558 92.0075C68.0407 91.2957 68.0144 89.4468 68.1074 86.955C69.2376 87.1674 70.312 87.6288 71.2545 88.3107C74.9024 90.9487 79.047 95.0394 81.3737 99.1039C81.865 99.9618 81.2538 101.03 80.2654 101.03ZM55.2059 101.03H50.7617L53.9424 87.0723C54.2314 87.0592 54.5251 87.0471 54.82 87.0366C55.2151 87.0023 55.691 86.9735 56.2257 86.9487C56.2614 88.2615 56.3401 89.6629 56.4739 91.1539C57.6019 91.2384 59.0364 91.3452 60.5168 91.4556L56.4739 91.155C56.4739 91.155 55.827 95.7071 55.2059 101.03Z" fill="#CEDEE7"/>
<path fill-rule="evenodd" clip-rule="evenodd" d="M49.0134 101.031H31.008C25.9588 101.031 27.4104 88.866 52.1711 87.1738L49.0134 101.031Z" fill="#CEDEE7"/>
<path fill-rule="evenodd" clip-rule="evenodd" d="M104.951 125.836L120.741 127.028C121.251 127.066 121.646 127.492 121.646 128.004V129.083C121.646 129.623 121.208 130.061 120.667 130.061H104.877C104.337 130.061 103.898 129.623 103.898 129.083V126.812C103.898 126.243 104.383 125.793 104.951 125.836Z" fill="#34466B"/>
<path fill-rule="evenodd" clip-rule="evenodd" d="M155.147 126.066L150.798 126.939C150.341 127.03 150.012 127.432 150.012 127.898V129.083C150.012 129.623 150.45 130.062 150.991 130.062H155.585C156.172 130.062 156.627 129.549 156.557 128.967L156.312 126.91C156.244 126.343 155.707 125.954 155.147 126.066Z" fill="#34466B"/>
<path fill-rule="evenodd" clip-rule="evenodd" d="M103.839 111.148C95.6706 110.306 95.8951 106.4 95.8951 106.4L117.944 107.472C117.944 107.472 112.977 111.253 105.877 111.253C105.215 111.253 104.535 111.22 103.839 111.148Z" fill="white"/>
<path d="M8.2653 109.931C8.33928 109.637 8.43258 109.351 8.54375 109.074H8.54447C8.43295 109.351 8.33965 109.637 8.2653 109.931Z" fill="#767676"/>
<path fill-rule="evenodd" clip-rule="evenodd" d="M8.13237 114.419C8.07078 114.419 8.007 114.414 7.9414 114.403C7.8798 114.394 7.82331 114.379 7.76172 114.36L8.08791 110.949C8.12035 110.601 8.17939 110.261 8.26322 109.93C8.33756 109.637 8.43087 109.351 8.54239 109.074L10.0345 109.031C10.0345 109.031 10.1008 114.419 8.13237 114.419Z" fill="#34466B"/>
<path d="M148.944 109.16C148.628 108.911 148.296 108.668 147.948 108.433C147.505 108.133 147.044 107.843 146.566 107.564C147.044 107.842 147.505 108.131 147.947 108.431C148.295 108.668 148.627 108.91 148.944 109.16Z" fill="white"/>
<path fill-rule="evenodd" clip-rule="evenodd" d="M148.685 111.252C144.431 111.252 141.453 107.472 141.453 107.472L145.776 107.122C146.043 107.266 146.306 107.414 146.565 107.564C147.042 107.843 147.504 108.133 147.946 108.433C148.294 108.668 148.626 108.91 148.942 109.159C149.65 109.717 150.28 110.308 150.841 110.935C150.553 111.02 150.241 111.091 149.906 111.148C149.489 111.219 149.082 111.252 148.685 111.252Z" fill="white"/>
<path fill-rule="evenodd" clip-rule="evenodd" d="M124.774 113.63H140.378C140.915 113.63 141.45 113.802 141.905 114.12L144.632 116.032C145.26 116.473 145.68 117.154 145.779 117.894L146.474 123.059C146.67 124.512 145.602 125.742 144.147 125.742H127.459C126.465 125.742 125.523 125.156 125.056 124.247L121.938 118.171C121.485 117.288 121.561 116.258 122.135 115.521L122.915 114.52C123.354 113.955 124.034 113.63 124.774 113.63Z" fill="white"/>
<path d="M58.9185 104.704H52.6717L52.5099 105.36C52.3419 106.042 52.7584 106.594 53.4396 106.594H57.2194C57.9006 106.594 58.5891 106.042 58.7571 105.36" fill="#34466B"/>
<path fill-rule="evenodd" clip-rule="evenodd" d="M37.4225 104.704H31.1753L31.0138 105.36C30.8458 106.042 31.262 106.594 31.9435 106.594H35.723C36.4045 106.594 37.093 106.042 37.2606 105.36L37.4225 104.704Z" fill="#34466B"/>
<path d="M62.0278 139.763L59.8746 139.729L59.2539 134.736L61.4068 134.77L62.0278 139.763Z" fill="#FFC4B8"/>
<path d="M48.9166 139.712L46.9492 138.615L48.4194 133.98L50.3868 135.078L48.9166 139.712Z" fill="#FFC4B8"/>
<path fill-rule="evenodd" clip-rule="evenodd" d="M54.9647 79.4488C54.2912 79.8822 53.6111 80.3126 52.8844 80.7044C52.154 81.0955 51.4185 81.48 50.507 81.7723C50.2759 81.8448 50.0295 81.9111 49.754 81.9625C49.6155 81.9884 49.4552 82.0055 49.3032 82.0208C49.1355 82.031 48.9613 82.031 48.7805 82.015C48.5398 81.9934 48.0119 81.9288 47.1971 81.8212L45.7891 78.1266C45.8474 75.9078 46.0037 74.2651 46.2581 73.1987L47.8592 73.42C47.8836 74.884 47.9696 76.4297 48.2754 77.7366C48.3523 78.0603 48.45 78.3646 48.5652 78.6146C48.6741 78.865 48.8115 79.0552 48.8964 79.1106C48.938 79.1409 48.958 79.1372 48.9602 79.1252L48.9799 79.1019C49.0018 79.0961 49.2529 79.0428 49.5189 78.931C50.0649 78.7061 50.6991 78.3566 51.3066 77.979C51.9185 77.5978 52.5367 77.1877 53.1449 76.7584C54.3612 75.9056 55.5887 74.9871 56.7589 74.0833L58.8101 76.6206C57.5626 77.6422 56.3052 78.5654 54.9647 79.4488Z" fill="#FFC4B8"/>
<path fill-rule="evenodd" clip-rule="evenodd" d="M59.4724 75.6288C58.4902 77.8392 54.7115 80.1291 52.6162 81.0877C51.9973 81.3709 52.0746 82.2022 51.7083 81.8414C51.7083 81.8414 50.0938 78.879 50.0938 78.2722C50.0938 77.665 50.6273 78.0284 51.0672 77.6231C52.641 76.1737 55.9349 72.9617 57.9854 72.6071C60.6795 72.1416 60.3894 73.5649 59.4724 75.6288Z" fill="#9BC3D3"/>
<path fill-rule="evenodd" clip-rule="evenodd" d="M50.3161 77.8885C50.108 77.5813 49.2468 78.3853 48.9731 78.7173C48.6997 79.0493 49.4516 80.2706 49.6794 80.9117C49.9068 81.5531 49.46 82.2201 50.1528 82.3196C50.5213 82.3724 51.556 82.2376 51.7568 81.9704C52.2263 81.3465 50.814 78.6225 50.3161 77.8885Z" fill="#1BB3BC"/>
<path d="M55.6328 79.3992C55.9594 79.1842 56.2845 78.9579 56.6005 78.7231L56.6001 78.7242C56.2841 78.9586 55.959 79.1846 55.6328 79.3992Z" fill="#CCCCCC"/>
<path d="M55.2617 79.6386C55.4578 78.6144 56.0522 77.4063 56.9575 76.4692C56.8318 77.1351 56.7097 77.8863 56.6018 78.7231C56.2859 78.9578 55.9608 79.1841 55.6342 79.3991C55.5103 79.4808 55.386 79.5606 55.2617 79.6386Z" fill="#9BC3D3"/>
<path d="M47.5436 74.0738L48.9341 72.015L46.6649 71.0903C46.6649 71.0903 45.382 72.5416 46.2895 73.8198L47.5436 74.0738Z" fill="#FFC4B8"/>
<path fill-rule="evenodd" clip-rule="evenodd" d="M49.5163 69.7967L47.4305 69.7271L46.6641 71.0901L48.9332 72.0148L49.5163 69.7967Z" fill="#FFC4B8"/>
<path d="M61.7294 137.345H61.7283L61.6663 136.845H61.6674L61.7294 137.345Z" fill="black"/>
<path d="M49.6301 137.469L49.629 137.468L49.8437 136.791L49.8448 136.792L49.6301 137.469Z" fill="#CCCCCC"/>
<path fill-rule="evenodd" clip-rule="evenodd" d="M70.0171 73.3955C67.6981 81.5722 68.166 90.2514 67.9565 92.0077C66.2727 91.8853 59.9311 91.4126 56.4742 91.1542C55.3731 78.8526 57.9823 72.6072 57.9823 72.6072C57.9823 72.6072 58.7207 72.4639 59.7248 72.3608C60.0397 72.3287 60.3793 72.3003 60.7329 72.2817C60.9282 72.2701 61.1265 72.2635 61.3277 72.2599C62.627 72.2383 64.7481 72.4446 66.2096 72.6236C66.5154 72.6615 66.8274 72.7074 67.1284 72.7566C67.408 72.8044 67.6824 72.855 67.9408 72.9068C69.1125 73.1404 70.0171 73.3955 70.0171 73.3955Z" fill="#9BC3D3"/>
<path d="M61.9497 74.7447C63.8193 74.8179 65.6759 73.5037 66.2084 72.6228L61.3279 72.2598C60.3588 72.7769 60.08 74.6714 61.9497 74.7447Z" fill="#FFC4B8"/>
<path d="M68.4218 82.1942C68.4261 82.1509 68.4305 82.1071 68.4349 82.0638C68.4305 82.1075 68.4261 82.1509 68.4218 82.1942Z" fill="#CCCCCC"/>
<path d="M68.4219 82.1945C67.596 81.3038 67.3602 77.6946 67.5665 76.9033L68.8833 78.5984C68.6923 79.7855 68.5462 80.9481 68.435 82.0641C68.4306 82.1074 68.4263 82.1512 68.4219 82.1945Z" fill="#9BC3D3"/>
<path d="M58.7739 136.801L62.4185 136.856C62.4185 136.856 60.313 122.459 60.641 115.759C60.7412 113.721 60.4147 110.871 60.953 107.815C61.633 103.966 61.96 102.431 62.8394 97.5654C63.4666 94.0965 64.0239 91.7165 64.0239 91.7165L56.4756 91.1553C56.4756 91.1553 54.0104 108.507 54.0836 115.077C54.1591 121.907 58.7739 136.801 58.7739 136.801Z" fill="#34466B"/>
<path fill-rule="evenodd" clip-rule="evenodd" d="M62.4201 136.856L61.6671 136.845L59.5139 136.812L58.7755 136.801C58.7755 136.801 57.5338 132.794 56.3282 127.982C57.3578 124.172 58.4143 120.209 59.082 117.594C59.4629 116.101 60.01 114.422 60.6372 112.65C60.6445 113.408 60.6634 114.12 60.6634 114.773C60.6634 115.12 60.658 115.449 60.6427 115.759C60.619 116.244 60.608 116.768 60.608 117.324C60.6077 124.465 62.4201 136.856 62.4201 136.856ZM60.6349 112.33C60.6313 111.7 60.6386 111.041 60.6739 110.362C60.6743 110.361 60.675 110.359 60.6754 110.359C60.644 110.959 60.6342 111.543 60.6342 112.105C60.6342 112.181 60.6345 112.255 60.6349 112.33ZM54.5742 106.958C55.2747 99.6158 56.4767 91.1553 56.4767 91.1553L60.5492 91.4581C60.5419 91.4771 57.0154 100.387 54.5742 106.958ZM64.0245 91.7168C62.1198 91.575 61.2589 91.5109 60.8697 91.4817L64.0245 91.7165C64.0245 91.7165 64.0245 91.7165 64.0245 91.7168Z" fill="#34466B"/>
<path d="M55.8983 126.229H55.8979C55.7288 125.518 55.5637 124.799 55.4062 124.08L55.4066 124.08C55.5641 124.798 55.7292 125.518 55.8983 126.229Z" fill="#34466B"/>
<path d="M56.327 127.984C56.1831 127.408 56.0395 126.822 55.8984 126.229H55.8988C56.0398 126.821 56.1834 127.408 56.3274 127.982C56.3274 127.983 56.3274 127.983 56.327 127.984Z" fill="#34466B"/>
<path d="M60.6363 112.65C60.6352 112.544 60.6344 112.437 60.6341 112.33C60.6344 112.437 60.6355 112.543 60.6366 112.649C60.6366 112.649 60.6363 112.65 60.6363 112.65Z" fill="#34466B"/>
<path d="M56.3265 127.982C56.0094 126.718 55.6949 125.397 55.4062 124.079C56.461 121.159 57.4705 118.34 58.1685 116.334C58.7895 114.548 59.6792 112.508 60.6723 110.362C60.637 111.041 60.6297 111.7 60.6333 112.33C60.6337 112.437 60.6344 112.544 60.6355 112.65C60.0083 114.422 59.4612 116.101 59.0804 117.594C58.4127 120.209 57.3561 124.172 56.3265 127.982Z" fill="#34466B"/>
<path d="M60.5487 91.458C60.5487 91.458 55.1255 105.161 53.0696 111.123C50.8183 117.653 47.1836 135.282 47.1836 135.282L50.6128 137.227C50.6128 137.227 55.9565 122.694 58.1691 116.334C60.6897 109.089 67.6331 97.6396 67.9578 92.0094C60.5487 91.458 60.5487 91.458 60.5487 91.458Z" fill="#34466B"/>
<path fill-rule="evenodd" clip-rule="evenodd" d="M50.6128 137.227L49.8445 136.791L47.8823 135.678L47.1836 135.282C47.1836 135.282 50.8183 117.653 53.0696 111.123C55.1255 105.161 60.5487 91.458 60.5487 91.458C60.5487 91.458 60.5487 91.458 67.9578 92.0094C67.8266 94.2862 66.6129 97.5139 65.0476 101.031C63.6954 104.068 62.0801 107.321 60.673 110.362C59.6798 112.508 58.7902 114.548 58.1691 116.334C57.4712 118.34 56.4616 121.159 55.4069 124.079L55.4065 124.08C55.1485 124.794 54.8879 125.513 54.6284 126.229C54.2297 127.328 53.8339 128.417 53.4548 129.458C52.9982 130.711 52.5663 131.894 52.1832 132.942C52.0109 133.413 51.8476 133.859 51.6974 134.27C51.6861 134.301 51.6752 134.33 51.6639 134.361C51.0235 136.11 50.6128 137.227 50.6128 137.227Z" fill="#34466B"/>
<path fill-rule="evenodd" clip-rule="evenodd" d="M70.5512 74.6953C71.0264 75.5769 71.4357 76.4469 71.8566 77.3336C72.2637 78.2222 72.6475 79.1231 73.0193 80.0336C73.391 80.9451 73.7281 81.8763 74.0365 82.8315L74.2592 83.5542L74.4571 84.2966C74.5227 84.5445 74.5741 84.8072 74.632 85.0613L74.6743 85.2573L74.7166 85.5183C74.7472 85.6991 74.7479 85.8387 74.7628 86.0008C74.7938 86.6066 74.749 87.1318 74.6932 87.6511C74.6356 88.1672 74.5602 88.6676 74.4742 89.1607C74.2938 90.1437 74.078 91.1018 73.8342 92.0487C73.3502 93.9442 72.7685 95.7862 72.0994 97.6195L70.5409 97.1901C70.8679 95.3215 71.1802 93.4333 71.4576 91.5709C71.5917 90.6382 71.7145 89.7089 71.7983 88.793C71.8424 88.3363 71.8745 87.884 71.8894 87.4445C71.9033 87.0086 71.8993 86.573 71.8588 86.2221C71.8439 86.1466 71.8388 86.0453 71.8206 85.991L71.7998 85.8981L71.755 85.7454C71.6908 85.5362 71.638 85.3306 71.5662 85.1192L71.3504 84.4847L71.115 83.8451C70.7895 82.9908 70.4247 82.1372 70.0566 81.2804C69.6816 80.4253 69.2821 79.5762 68.8776 78.7281C68.4847 77.8792 68.0572 77.0242 67.6562 76.2009L70.5512 74.6953Z" fill="#FFC4B8"/>
<path fill-rule="evenodd" clip-rule="evenodd" d="M70.0191 73.3956C71.5615 73.8789 73.6079 80.2842 74.4156 83.0119C74.9317 83.4744 74.6722 84.3203 74.6722 84.3203L71.525 85.7089C70.7856 85.3586 70.3471 84.5816 70.6194 84.2069C68.9727 81.097 67.6771 78.775 67.055 76.9188C66.1343 74.1719 67.6399 72.6506 70.0191 73.3956Z" fill="#9BC3D3"/>
<path fill-rule="evenodd" clip-rule="evenodd" d="M70.7587 84.9475C70.4395 85.1367 71.4133 86.1339 71.7282 86.4269C72.0431 86.7199 73.084 85.9549 73.7378 85.7669C74.3917 85.5784 75.0306 86.065 75.172 85.3794C75.2471 85.015 75.1753 83.9737 74.9205 83.7572C74.3264 83.251 71.5216 84.4953 70.7587 84.9475Z" fill="#1BB3BC"/>
<path fill-rule="evenodd" clip-rule="evenodd" d="M70.9383 96.2715L69.2578 97.6696L71.3487 99.1799C71.3487 99.1799 72.7249 97.7249 72.1072 96.8543L70.9383 96.2715Z" fill="#FFC4B8"/>
<path fill-rule="evenodd" clip-rule="evenodd" d="M68.3008 99.6259L70.3698 100.634L71.3513 99.1798L69.2604 97.6694L68.3008 99.6259Z" fill="#FFC4B8"/>
<path d="M65.4236 66.7394C66.2987 66.0964 66.8672 65.0599 66.8672 63.8916C66.8672 61.9424 65.2847 60.3599 63.3354 60.3599C61.5356 60.3599 60.0484 61.7091 59.831 63.4504C59.793 63.6318 59.7654 63.8152 59.7464 63.9986L59.7457 64.0029C59.7399 64.0592 59.7351 64.1141 59.7309 64.1688L59.4876 66.8941L60.0413 67.0794L60.0471 67.0807C60.0609 67.1282 60.0685 67.1539 60.0685 67.1539L60.0835 67.5226L60.1107 68.2116C60.1201 68.4396 60.1678 68.6631 60.2508 68.8731C60.3088 69.0214 60.3855 69.1634 60.4792 69.2952C60.5892 69.4499 60.7206 69.5887 60.8673 69.7059C60.9437 69.7674 61.025 69.8223 61.1099 69.8712C61.1548 69.8971 61.1996 69.9209 61.2461 69.9433L61.2464 69.9435C60.8719 72.6381 60.7926 74.073 61.0086 74.2482C61.3326 74.511 62.1424 74.7143 63.6413 74.3264C64.4708 74.1117 65.3494 73.7163 66.0178 72.8062C66.0178 72.8062 65.2266 69.377 65.4236 66.7394Z" fill="#FFC4B8"/>
<path fill-rule="evenodd" clip-rule="evenodd" d="M63.6235 74.275C64.4554 74.0949 65.3316 73.6649 66 72.7548C66 72.7548 65.1442 69.0803 65.4343 66.41C65.4343 66.41 63.4876 71.1559 63.6235 74.275ZM60.0367 67.0944C60.2305 67.1512 60.4213 66.999 60.4087 66.7976L60.3271 65.4995L60.0367 67.0944Z" fill="#F4A48D"/>
<path fill-rule="evenodd" clip-rule="evenodd" d="M64.4412 60.2328C62.849 60.1776 63.0445 58.8267 63.0445 58.8267C61.3407 58.8819 60.6143 59.516 60.6143 59.516C59.2455 60.591 59.7882 62.7479 59.7882 62.7479C59.9971 61.1203 62.5206 61.8142 63.5084 61.9776C63.912 62.3687 63.7562 63.3233 63.9609 64.1279C63.9646 64.1425 64.4036 65.2315 64.4036 65.2315L64.4041 65.2328L64.4289 65.3459C64.4361 65.3274 64.4437 65.3089 64.4516 65.2904C64.7171 64.6693 65.258 64.302 65.6594 64.4691C66.061 64.6363 66.1711 65.2752 65.9056 65.8962C65.8131 66.1125 65.5794 66.2981 65.4376 66.441C65.3275 67.3529 65.3481 68.1998 65.4258 68.927L65.8377 68.9446L67.3185 61.9972C67.4285 61.0673 67.0089 60.6428 66.3372 60.4394C65.8143 60.281 65.1386 60.257 64.4412 60.2328Z" fill="black"/>
<path d="M82.5876 15.9137C81.9891 11.0526 77.846 7.28906 72.8246 7.28906C67.392 7.28906 62.9877 11.6944 62.9877 17.1288C62.9877 18.0204 63.1062 18.8843 63.3285 19.7055C63.245 19.7066 63.1622 19.7096 63.0799 19.7144L62.9873 19.7068V19.7206C60.1697 19.9323 57.9488 22.2865 57.9488 25.1594C57.9488 28.0322 60.1697 30.3865 62.9873 30.5982V30.6145H98.8021V30.6139H98.8022C100.998 30.6139 102.777 28.8333 102.777 26.6371C102.777 24.4409 100.998 22.6606 98.8022 22.6606H98.8021V22.6604L89.7282 21.9121C89.7697 21.641 89.7912 21.3633 89.7912 21.0807C89.7912 18.0684 87.3501 15.6264 84.3387 15.6264C83.7262 15.6264 83.1372 15.7274 82.5876 15.9137Z" fill="#CEDEE7"/>
<path fill-rule="evenodd" clip-rule="evenodd" d="M31.5386 33.6682C31.9765 30.0983 35.0081 27.3345 38.6823 27.3345C42.6574 27.3345 45.88 30.5696 45.88 34.5606C45.88 35.2153 45.7933 35.8497 45.6306 36.4528C45.6917 36.4536 45.7523 36.4558 45.8126 36.4593L45.8803 36.4537V36.4639C47.9419 36.6193 49.567 38.3482 49.567 40.458C49.567 42.5677 47.9419 44.2966 45.8803 44.4521V44.4641H19.6743V44.4637H19.6743C18.0679 44.4637 16.7656 43.156 16.7656 41.5432C16.7656 39.9304 18.0679 38.6229 19.6743 38.6229H19.6743V38.6228L26.3138 38.0732C26.2834 37.8742 26.2677 37.6703 26.2677 37.4627C26.2677 35.2506 28.0539 33.4572 30.2573 33.4572C30.7055 33.4572 31.1365 33.5314 31.5386 33.6682Z" fill="#DEEDF2"/>
<path fill-rule="evenodd" clip-rule="evenodd" d="M59.8795 140.272L58.6796 143.597L62.3242 141.75L62.1756 138.586L59.6923 138.13L59.8795 140.272Z" fill="black"/>
<path fill-rule="evenodd" clip-rule="evenodd" d="M46.7873 138.984L44.1686 141.66L48.6515 141.693L49.4498 138.216L47.0788 137.65L46.7873 138.984Z" fill="black"/>
</svg>
