<svg width="160" height="160" viewBox="0 0 160 160" fill="none" xmlns="http://www.w3.org/2000/svg">
<path fill-rule="evenodd" clip-rule="evenodd" d="M8.04446 72.8506C10.2142 65.0664 3.31654 64.7661 3.16466 54.7359C3.10283 50.6337 5.34987 46.4558 10.7572 44.5392C13.4147 43.5977 16.0633 42.9503 18.4279 41.4527C23.8163 38.04 23.7189 31.5462 25.1891 26.0105C28.4171 13.8524 40.8411 4.19324 53.4171 4.50745C62.4829 4.73355 70.6792 5.01144 78.9443 12.7064C84.5998 17.9719 88.2753 24.4507 93.5257 29.8789C99.0861 35.6271 105.862 38.3851 113.47 40.2321C120.665 41.9787 128.492 44.0568 133.999 49.2945C139.175 54.2165 138.42 59.3645 136.201 65.408C133.754 72.0723 139.06 76.6061 144.593 79.2014C149.251 81.3862 157.049 85.8305 157.304 94.0252C158.093 119.407 141.971 119.509 135.959 121.922C80.663 144.115 59.442 126.997 35.9953 127.343C12.622 127.688 -0.776367 99.4217 0.0356445 91.0975C1.06602 80.5282 6.52904 78.2862 8.04446 72.8506Z" fill="#EAF7FE"/>
<path fill-rule="evenodd" clip-rule="evenodd" d="M100.403 114.862C106.477 116.488 108.368 120.12 114.642 120.7C127.244 121.864 153.049 117.741 157.33 123.38C161.55 128.94 157.3 139.771 134.884 138.225C135.403 138.595 124.431 145.363 106.194 148.315C98.9783 149.483 86.7513 149.677 81.9788 148.561C74.6433 146.845 67.1016 146.175 59.5763 146.53C32.8112 147.793 11.6439 146.224 11.0776 141.654C10.888 140.126 12.2823 137.892 14.6128 136.487C16.0648 135.612 13.8083 135.117 13.2819 134.968C6.8171 133.14 3.10257 130.853 2.83297 128.85C1.98737 122.565 24.826 114.679 51.9489 111.317C70.4267 109.027 90.2662 112.149 100.403 114.862Z" fill="#CEDEE7"/>
<path fill-rule="evenodd" clip-rule="evenodd" d="M90.0067 49.0457L89.9778 45.6611L92.3031 44.2467L93.6494 47.5935L94.9934 48.2426L95.3362 50.0063L92.8534 50.9682L90.0067 49.0457Z" fill="#FFC4B8"/>
<path fill-rule="evenodd" clip-rule="evenodd" d="M120.454 36.8666C121.869 35.8262 122.789 34.1493 122.789 32.2593C122.789 29.1058 120.229 26.5454 117.075 26.5454C114.163 26.5454 111.757 28.7282 111.406 31.5454C111.344 31.8389 111.299 32.1356 111.269 32.4323L111.269 32.4328L111.268 32.4393L111.267 32.4416C111.258 32.5304 111.25 32.6191 111.244 32.7077L110.85 37.1168L111.746 37.4166L111.755 37.4187L111.755 37.4187C111.778 37.4956 111.79 37.5371 111.79 37.5371L111.814 38.1335L111.858 39.2483C111.873 39.6172 111.951 39.9787 112.085 40.3186C112.179 40.5585 112.303 40.7882 112.454 41.0014C112.632 41.2517 112.845 41.4762 113.082 41.6658C113.206 41.7654 113.337 41.8541 113.475 41.9332C113.547 41.9752 113.62 42.0137 113.695 42.0499L113.696 42.0502L113.311 49.0145C113.311 49.0145 115.344 49.6271 117.57 49.141C118.916 48.8497 120.333 48.1541 121.415 46.6816C121.415 46.6816 120.135 41.1336 120.454 36.8666Z" fill="#FFC4B8"/>
<path fill-rule="evenodd" clip-rule="evenodd" d="M117.55 49.0586C118.896 48.7673 120.313 48.0717 121.395 46.5992C121.395 46.5992 120.01 40.6545 120.479 36.3343C120.479 36.3343 117.33 44.0125 117.55 49.0586ZM111.748 37.4416C112.061 37.5336 112.37 37.2872 112.35 36.9615L112.218 34.8613L111.748 37.4416Z" fill="#F4A48D"/>
<path fill-rule="evenodd" clip-rule="evenodd" d="M117.396 56.74C124.007 56.8881 130.753 55.3507 130.781 49.5812C130.813 42.8318 126.468 32.674 124.905 29.3663C123.819 27.0675 120.577 23.8092 115.478 24.8874C114.664 25.0597 113.481 25.6773 112.927 26.2449C112.893 26.279 112.86 26.3121 112.826 26.3444C110.421 26.6995 108.49 28.6655 108.29 31.1776C108.269 31.4459 108.269 31.7114 108.287 31.9722C108.242 35.5005 108.118 49.7219 108.987 52.9558C109.445 54.6594 114.509 56.6754 117.396 56.74ZM115.206 49.2491C114.496 49.1752 113.859 49.0723 113.317 48.9317L113.702 41.9673L113.702 41.9671C113.626 41.9309 113.554 41.8923 113.481 41.8503C113.344 41.7713 113.213 41.6825 113.089 41.583C112.852 41.3934 112.639 41.1688 112.461 40.9186C112.309 40.7054 112.185 40.4756 112.092 40.2357C111.957 39.8958 111.88 39.5343 111.865 39.1654L111.821 38.0507L111.797 37.4542C111.797 37.4542 111.784 37.4127 111.762 37.336L111.752 37.3338L110.857 37.034L111.25 32.6248C111.257 32.5364 111.265 32.4476 111.274 32.3588L111.274 32.3564L111.275 32.35V32.3495C111.306 32.0527 111.351 31.756 111.412 31.4625C111.482 30.903 111.633 30.3685 111.853 29.8713C112.356 29.1019 112.976 28.4341 115.178 28.447C117.889 28.4634 118.896 29.9114 119.339 30.8761C119.745 31.7606 119.89 32.8044 119.89 32.8044L119.891 32.8066L119.919 32.9656L119.923 32.9906L119.927 33.0146C120.402 32.3772 121.052 32.0648 121.482 32.3066C121.892 32.5374 121.975 33.1999 121.724 33.8999C121.687 34.032 121.638 34.1657 121.576 34.2983L121.565 34.3213L121.562 34.3277L121.553 34.3452L121.55 34.3512L121.539 34.3735L121.537 34.3775L121.527 34.3961L121.524 34.4029L121.514 34.4204L121.512 34.4252C121.269 34.8734 120.917 35.1959 120.568 35.3219C120.546 35.3336 120.523 35.3445 120.5 35.3547C120.5 35.3547 120.455 36.7216 120.443 36.8185C119.963 40.562 121.304 46.0774 121.403 46.6191C120.429 47.8934 119.16 48.8084 116.99 49.1769C116.337 49.2634 115.706 49.2694 115.206 49.2491Z" fill="#34466B"/>
<path fill-rule="evenodd" clip-rule="evenodd" d="M94.4829 47.8876L103.97 54.5189L113.676 44.1006L114.833 55.9189L105.374 62.1411L92.7539 51.014L94.4829 47.8876Z" fill="#CEDEE7"/>
<path fill-rule="evenodd" clip-rule="evenodd" d="M128.61 85.6295L129.101 90.475L124.754 107.122L128.791 133.874L125.82 134.897L117.985 108.78L116.742 101.182L116.787 85.0977L128.61 85.6295Z" fill="#FFC4B8"/>
<path fill-rule="evenodd" clip-rule="evenodd" d="M105.758 91.03L112.007 135.856H114.847L115.359 107.122L120.529 86.9551L105.758 91.03Z" fill="#FFC4B8"/>
<path d="M113.676 44.1006C116.498 42.5079 120.345 44.3084 123.408 44.3084C124.312 53.8363 127.644 62.5196 129.26 71.8745C130.976 81.8101 132.909 91.7082 135.055 101.56C135.177 102.118 126.533 101.836 125.718 101.85C117.402 101.99 106.516 101.962 98.4922 99.4473C103.613 85.6997 105.483 70.9075 109.515 56.8023C110.223 54.326 111.064 51.8868 111.702 49.3902C112.071 47.9431 112.014 46.1968 112.738 45.0142C112.963 44.6466 113.263 44.3333 113.676 44.1006Z" fill="#EC0000"/>
<path d="M120.897 60.7339C119.251 61.6835 116.591 61.9346 114.906 62.2798L116.089 66.1215C116.201 66.4727 122.34 65.6815 124.762 65.3718C123.979 64.134 123.152 62.8014 122.106 61.811C121.725 61.5881 121.005 60.7747 120.897 60.7339Z" fill="#EAF7FE"/>
<path fill-rule="evenodd" clip-rule="evenodd" d="M91.5586 83.7161L91.5589 83.7152C88.7368 81.4669 85.9582 79.1875 83.2274 76.8735L83.2249 76.875C85.9571 79.1901 88.7343 81.4695 91.5577 83.7186C91.558 83.7179 91.5583 83.717 91.5586 83.7161Z" fill="#008437"/>
<path fill-rule="evenodd" clip-rule="evenodd" d="M88.9953 61.3678C88.9953 61.3678 99.1269 74.4076 93.3612 86.8299C86.7615 101.049 75.7202 105.135 75.7202 105.135L88.9953 61.3678Z" fill="#767676"/>
<path fill-rule="evenodd" clip-rule="evenodd" d="M88.9365 61.2253L90.9035 55.6388L92.9447 54.4559L95.712 52.3549L90.4297 66.1987L88.9365 61.2253Z" fill="#767676"/>
<path fill-rule="evenodd" clip-rule="evenodd" d="M110.072 62.9764C112.316 63.568 113.586 65.8949 112.909 68.1738C112.233 70.4525 109.866 71.82 107.623 71.2283C105.379 70.6367 104.109 68.3097 104.786 66.0311C105.462 63.7522 107.829 62.3848 110.072 62.9764ZM107.114 72.9431C110.289 73.7807 113.64 71.8447 114.598 68.6189C115.555 65.3933 113.757 62.099 110.582 61.2613C107.406 60.4238 104.055 62.3597 103.098 65.5857C102.14 68.8115 103.938 72.1055 107.114 72.9431Z" fill="#CCCCCC"/>
<path d="M94.2124 49.7671L94.2119 49.7759L94.2099 49.767L94.2124 49.7671Z" fill="#008437"/>
<path d="M94.2085 49.7588L94.2153 49.7817L94.2128 49.7816L94.2085 49.7588Z" fill="#444444"/>
<path d="M87.3653 74.3741L85.321 71.487L75.4078 104.862C75.4078 104.862 76.7755 104.365 78.8315 103.106L87.3653 74.3741Z" fill="#CCCCCC"/>
<path d="M106.011 61.8217C105.665 62.0202 105.335 62.2467 105.024 62.5001C105.031 62.4474 105.038 62.3948 105.046 62.3425L106.011 61.8217Z" fill="#CCCCCC"/>
<path fill-rule="evenodd" clip-rule="evenodd" d="M105.868 69.9431L111.907 63.8221L111.907 63.822L105.868 69.9431ZM105.499 68.6232C105.355 68.2039 105.178 67.6935 104.974 67.111L104.974 67.1116C105.178 67.6937 105.355 68.2039 105.499 68.6232Z" fill="#008437"/>
<path fill-rule="evenodd" clip-rule="evenodd" d="M114.164 63.4441L112.646 62.6187L112.313 62.8619L112.586 63.2969L111.137 62.9839L109.109 64.5989L109.858 65.7583L110.69 66.673L112.286 66.7212L113.958 65.7902L116.066 65.1786L115.504 63.2462L114.164 63.4441Z" fill="#FFC4B8"/>
<path fill-rule="evenodd" clip-rule="evenodd" d="M124.956 132.042L128.627 132.814L129.207 135.217L129.142 135.236L129.159 135.238L124.912 137.803L122.893 138.032L122.637 135.68L123.182 135.273L124.956 132.042Z" fill="black"/>
<path fill-rule="evenodd" clip-rule="evenodd" d="M120.99 60.6643C121.795 60.1205 122.348 59.3481 122.419 58.2097C122.485 57.1605 122.239 56.1211 122.058 55.0857C121.484 51.7992 121.559 48.4003 122.28 45.1427C122.997 41.9011 126.779 45.9771 127.249 47.4394C127.771 49.0602 127.624 50.8252 127.751 52.5009C127.921 54.7508 128.002 57.0076 127.993 59.2642C127.987 60.6919 128.338 64.0642 126.836 64.881C126.429 65.102 125.962 65.1794 125.506 65.2535C124.788 65.3698 116.224 66.4501 116.089 66.027L114.906 62.2943C116.688 61.9291 119.357 61.7684 120.99 60.6643Z" fill="#CEDEE7"/>
<path fill-rule="evenodd" clip-rule="evenodd" d="M111.746 133.974L108.336 136.505L108.743 138.612L116.066 137.41L114.906 133.394L111.746 133.974Z" fill="black"/>
<path fill-rule="evenodd" clip-rule="evenodd" d="M92.5648 47.2112C94.3829 48.6253 94.6578 51.2982 93.1787 53.1813C91.6997 55.0643 89.0267 55.4445 87.2086 54.0303C85.3906 52.6163 85.1158 49.9434 86.5948 48.0604C88.0739 46.1773 90.7468 45.7972 92.5648 47.2112ZM86.0958 55.4474C88.6695 57.4492 92.4532 56.9112 94.5471 54.2455C96.6409 51.5797 96.252 47.7958 93.6782 45.7939C91.1045 43.7921 87.3207 44.3306 85.2269 46.9963C83.133 49.662 83.5221 53.4456 86.0958 55.4474Z" fill="#767676"/>
<path fill-rule="evenodd" clip-rule="evenodd" d="M98.4628 69.4927L103.835 66.683L105.011 64.1419L106.357 61.6094L93.346 68.7344L98.4628 69.4927Z" fill="#CCCCCC"/>
<path fill-rule="evenodd" clip-rule="evenodd" d="M27.5833 136.663C25.8113 136.663 24.375 134.587 24.375 132.026V79.4676C24.375 76.9067 25.8113 74.8315 27.5833 74.8315C43.7495 74.8315 54.9778 74.8315 61.268 74.8315C61.7534 74.8315 64.6494 74.8347 69.9561 74.841C65.2048 81.1536 64.4318 84.3099 67.6372 84.3099C69.6405 84.3099 77.0256 81.1505 89.7925 74.8315C91.5645 74.8315 93.0008 76.9067 93.0008 79.4676V132.026C93.0008 134.587 91.5645 136.663 89.7925 136.663H27.5833Z" fill="#DEEDF2"/>
<path fill-rule="evenodd" clip-rule="evenodd" d="M50.3784 100.435C49.4774 102.265 47.2587 103.019 45.419 102.111C43.5833 101.208 42.8279 98.9881 43.7343 97.1559C44.6367 95.3265 46.8608 94.5722 48.6937 95.4799C50.5308 96.3849 51.2848 98.6044 50.3784 100.435ZM50.733 91.3498C46.595 89.3063 41.6187 91.0187 39.5949 95.1138C37.5654 99.2265 39.2591 104.21 43.3783 106.243C47.5136 108.285 52.4967 106.57 54.5177 102.477C56.55 98.3661 54.8549 93.3822 50.733 91.3498Z" fill="#CC0000"/>
<path fill-rule="evenodd" clip-rule="evenodd" d="M73.2744 117.456C72.3734 119.285 70.1546 120.04 68.3147 119.132C66.4776 118.227 65.7234 116.008 66.6299 114.177C67.531 112.348 69.7552 111.592 71.5896 112.501C73.4241 113.406 74.1796 115.624 73.2744 117.456ZM73.6291 108.37C69.4895 106.327 64.5129 108.04 62.4903 112.135C60.4593 116.247 62.1532 121.23 66.2753 123.263C70.4095 125.305 75.3916 123.59 77.4128 119.498C79.4438 115.386 77.7499 110.404 73.6291 108.37Z" fill="#CC0000"/>
<path fill-rule="evenodd" clip-rule="evenodd" d="M50.4975 128.04L46.3888 126.012L66.1327 86.1791L70.2415 88.206L50.4975 128.04Z" fill="#CC0000"/>
<path fill-rule="evenodd" clip-rule="evenodd" d="M98.9456 69.3301C99.3421 69.1582 84.299 61.5169 72.8002 68.9552C59.638 77.4696 57.1281 88.9719 57.1281 88.9719L98.9456 69.3301Z" fill="#CCCCCC"/>
<path d="M88.3128 69.2232C88.9428 68.4984 90.0414 68.4215 90.7664 69.0517C91.4913 69.6819 91.568 70.7804 90.938 71.5052C90.3078 72.2302 89.2093 72.3071 88.4844 71.6769C87.7594 71.0467 87.6826 69.9481 88.3128 69.2232Z" fill="#CCCCCC"/>
</svg>
