<svg width="160" height="160" viewBox="0 0 160 160" fill="none" xmlns="http://www.w3.org/2000/svg">
<path fill-rule="evenodd" clip-rule="evenodd" d="M8.02336 73.1168C10.1878 65.3516 3.30704 65.0521 3.15552 55.0465C3.09383 50.9543 5.33537 46.7866 10.7295 44.8747C13.3805 43.9355 16.0226 43.2898 18.3813 41.7958C23.7566 38.3914 23.6594 31.9136 25.126 26.3914C28.3461 14.2631 40.7397 4.62758 53.2849 4.94103C62.3285 5.16657 70.5047 5.44378 78.7495 13.1199C84.3912 18.3725 88.0577 24.8354 93.2953 30.2503C98.8421 35.9845 105.601 38.7357 113.19 40.5782C120.368 42.3205 128.176 44.3936 133.67 49.6184C138.832 54.5283 138.08 59.6637 135.866 65.6925C133.425 72.3404 138.718 76.8632 144.237 79.4521C148.884 81.6315 156.663 86.0649 156.917 94.2395C157.704 119.56 141.621 119.661 135.625 122.068C80.464 144.206 59.2951 127.131 35.9058 127.476C12.5897 127.82 -0.775864 99.6229 0.0341644 91.3191C1.06201 80.7756 6.51164 78.5391 8.02336 73.1168Z" fill="#EAF7FE"/>
<path fill-rule="evenodd" clip-rule="evenodd" d="M100.16 115.026C106.218 116.647 108.104 120.27 114.363 120.849C126.934 122.01 152.676 117.897 156.946 123.523C161.157 129.069 156.917 139.873 134.555 138.331C135.074 138.7 124.128 145.452 105.936 148.397C98.7379 149.562 86.5409 149.755 81.7801 148.642C74.4625 146.93 66.9392 146.261 59.4324 146.616C32.7328 147.876 11.6174 146.311 11.0525 141.751C10.8634 140.228 12.2542 137.999 14.579 136.598C16.0275 135.724 13.7765 135.231 13.2514 135.082C6.80242 133.258 3.09698 130.977 2.82805 128.979C1.98452 122.709 24.7672 114.843 51.8237 111.49C70.2562 109.205 90.0472 112.319 100.16 115.026Z" fill="#CEDEE7"/>
<path fill-rule="evenodd" clip-rule="evenodd" d="M89.7859 49.3704L89.7571 45.994L92.0767 44.5832L93.4197 47.9218L94.7604 48.5693L95.1024 50.3286L92.6256 51.2881L89.7859 49.3704Z" fill="#FFC4B8"/>
<path fill-rule="evenodd" clip-rule="evenodd" d="M120.158 37.2212C121.571 36.1834 122.488 34.5106 122.488 32.6251C122.488 29.4794 119.934 26.9253 116.788 26.9253C113.884 26.9253 111.484 29.1028 111.133 31.913C111.071 32.2058 111.027 32.5018 110.996 32.7978L110.996 32.7983L110.995 32.8048L110.995 32.8071C110.986 32.8956 110.978 32.9841 110.971 33.0725L110.579 37.4708L111.472 37.7699L111.481 37.772L111.482 37.772C111.504 37.8486 111.516 37.89 111.516 37.89L111.54 38.485L111.584 39.5971C111.599 39.9651 111.676 40.3257 111.81 40.6647C111.904 40.904 112.028 41.1332 112.179 41.3459C112.356 41.5955 112.568 41.8195 112.805 42.0087C112.929 42.108 113.06 42.1965 113.197 42.2754C113.269 42.3173 113.341 42.3557 113.417 42.3918L113.417 42.3921L113.033 49.3394C113.033 49.3394 115.061 49.9505 117.282 49.4656C118.625 49.175 120.039 48.4811 121.117 47.0122C121.117 47.0122 119.841 41.4778 120.158 37.2212Z" fill="#FFC4B8"/>
<path fill-rule="evenodd" clip-rule="evenodd" d="M117.262 49.3832C118.605 49.0926 120.019 48.3987 121.098 46.9298C121.098 46.9298 119.717 40.9997 120.185 36.69C120.185 36.69 117.043 44.3494 117.262 49.3832ZM111.473 37.7946C111.786 37.8864 112.094 37.6407 112.073 37.3157L111.942 35.2207L111.473 37.7946Z" fill="#F4A48D"/>
<path fill-rule="evenodd" clip-rule="evenodd" d="M117.108 57.0458C123.704 57.1935 130.433 55.6599 130.461 49.9045C130.493 43.1716 126.158 33.0387 124.599 29.7391C123.515 27.4459 120.281 24.1956 115.195 25.2712C114.383 25.443 113.203 26.0591 112.65 26.6254C112.617 26.6593 112.584 26.6924 112.55 26.7246C110.15 27.0788 108.224 29.04 108.025 31.5459C108.004 31.8136 108.003 32.0784 108.022 32.3386C107.977 35.8583 107.853 50.0448 108.72 53.2708C109.177 54.9702 114.229 56.9813 117.108 57.0458ZM114.923 49.5731C114.215 49.4993 113.579 49.3967 113.039 49.2565L113.423 42.3091L113.422 42.3089C113.347 42.2728 113.275 42.2343 113.203 42.1924C113.066 42.1136 112.935 42.025 112.811 41.9258C112.574 41.7366 112.362 41.5126 112.185 41.263C112.034 41.0503 111.91 40.8211 111.816 40.5818C111.682 40.2427 111.605 39.8821 111.59 39.5141L111.546 38.4021L111.522 37.8071C111.522 37.8071 111.51 37.7657 111.488 37.6892L111.478 37.687L110.585 37.3879L110.977 32.9895C110.984 32.9013 110.992 32.8127 111.001 32.7242L111.001 32.7218L111.002 32.7154V32.7148C111.033 32.4188 111.077 32.1228 111.139 31.83C111.208 31.2719 111.359 30.7387 111.578 30.2427C112.08 29.4753 112.698 28.8091 114.896 28.822C117.6 28.8383 118.605 30.2827 119.046 31.2451C119.451 32.1274 119.596 33.1686 119.596 33.1686L119.597 33.1708L119.624 33.3294L119.628 33.3544L119.633 33.3783C120.107 32.7425 120.755 32.4309 121.184 32.6721C121.593 32.9023 121.675 33.5632 121.425 34.2614C121.389 34.3932 121.34 34.5266 121.277 34.6589L121.267 34.6818L121.263 34.6883L121.255 34.7057L121.252 34.7117L121.241 34.7339L121.238 34.738L121.229 34.7564L121.225 34.7632L121.216 34.7807L121.214 34.7855C120.971 35.2326 120.62 35.5543 120.272 35.68C120.25 35.6917 120.227 35.7025 120.204 35.7127C120.204 35.7127 120.159 37.0763 120.147 37.1729C119.669 40.9073 121.006 46.4092 121.105 46.9495C120.134 48.2207 118.867 49.1335 116.702 49.5011C116.051 49.5874 115.422 49.5933 114.923 49.5731Z" fill="#34466B"/>
<path fill-rule="evenodd" clip-rule="evenodd" d="M94.2521 48.2148L103.716 54.8298L113.398 44.437L114.552 56.2264L105.116 62.4334L92.5273 51.3335L94.2521 48.2148Z" fill="#CEDEE7"/>
<path fill-rule="evenodd" clip-rule="evenodd" d="M128.296 85.8646L128.786 90.6981L124.45 107.305L128.476 133.991L125.512 135.012L117.697 108.958L116.457 101.379L116.502 85.334L128.296 85.8646Z" fill="#FFC4B8"/>
<path fill-rule="evenodd" clip-rule="evenodd" d="M105.5 91.2514L111.734 135.967H114.567L115.077 107.304L120.235 87.1865L105.5 91.2514Z" fill="#FFC4B8"/>
<path d="M113.396 44.4374C116.211 42.8486 120.05 44.6447 123.104 44.6447C124.007 54.1493 127.331 62.8113 128.943 72.1432C130.654 82.0545 132.582 91.9283 134.723 101.756C134.845 102.312 126.222 102.032 125.409 102.045C117.113 102.185 106.255 102.157 98.25 99.6485C103.359 85.9346 105.224 71.1786 109.246 57.1079C109.953 54.6377 110.791 52.2045 111.427 49.7141C111.796 48.2705 111.739 46.5284 112.461 45.3488C112.685 44.982 112.985 44.6695 113.396 44.4374Z" fill="#2A8FEC"/>
<path d="M120.601 61.0298C118.959 61.9771 116.306 62.2276 114.625 62.572L115.805 66.4042C115.916 66.7545 122.041 65.9653 124.456 65.6563C123.676 64.4216 122.85 63.0923 121.807 62.1043C121.427 61.8819 120.709 61.0705 120.601 61.0298Z" fill="#EAF7FE"/>
<path fill-rule="evenodd" clip-rule="evenodd" d="M91.3361 83.9918C91.3362 83.9916 91.3363 83.9913 91.3364 83.991C88.5211 81.7182 85.7512 79.4201 83.0311 77.0938L83.0286 77.095C85.7499 79.4225 88.5185 81.7205 91.3351 83.994C91.3354 83.9934 91.3357 83.9926 91.3361 83.9918Z" fill="#2C9891"/>
<path fill-rule="evenodd" clip-rule="evenodd" d="M88.7768 61.6619C88.7768 61.6619 98.8836 74.6697 93.132 87.0616C86.5485 101.246 75.5343 105.322 75.5343 105.322L88.7768 61.6619Z" fill="#767676"/>
<path fill-rule="evenodd" clip-rule="evenodd" d="M88.7175 61.5197L90.6797 55.9469L92.7159 54.7669L95.4764 52.671L90.207 66.481L88.7175 61.5197Z" fill="#767676"/>
<path fill-rule="evenodd" clip-rule="evenodd" d="M109.933 63.384C112.141 64.1293 113.327 66.5237 112.582 68.7323C111.837 70.9407 109.442 72.1266 107.234 71.3811C105.025 70.6358 103.84 68.2412 104.585 66.0329C105.33 63.8244 107.725 62.6386 109.933 63.384ZM106.672 73.0429C109.798 74.0982 113.188 72.4193 114.243 69.2931C115.298 66.167 113.619 62.777 110.493 61.7217C107.367 60.6666 103.977 62.3454 102.922 65.4718C101.867 68.5981 103.546 71.9878 106.672 73.0429Z" fill="#CCCCCC"/>
<path d="M93.982 50.0895L93.9815 50.0983L93.9795 50.0894L93.982 50.0895Z" fill="#2C9891"/>
<path d="M93.9781 50.0813L93.9849 50.1041L93.9824 50.104L93.9781 50.0813Z" fill="#444444"/>
<path d="M87.1511 74.6366L85.1119 71.7566L75.223 105.05C75.223 105.05 76.5873 104.554 78.6382 103.298L87.1511 74.6366Z" fill="#CCCCCC"/>
<path d="M105.755 62.1149C105.41 62.3129 105.08 62.5388 104.77 62.7916C104.777 62.7391 104.785 62.6866 104.792 62.6344L105.755 62.1149Z" fill="#CCCCCC"/>
<path fill-rule="evenodd" clip-rule="evenodd" d="M105.611 70.165L111.635 64.1631L111.635 64.1629L105.611 70.165ZM105.219 68.9004C105.088 68.4823 104.927 67.9731 104.741 67.3919L104.741 67.3925C104.927 67.9733 105.088 68.4823 105.219 68.9004Z" fill="#2C9891"/>
<path fill-rule="evenodd" clip-rule="evenodd" d="M113.882 63.7336L112.368 62.9102L112.036 63.1528L112.308 63.5867L110.862 63.2745L108.84 64.8855L109.587 66.0421L110.416 66.9546L112.009 67.0026L113.676 66.074L115.78 65.4638L115.219 63.5361L113.882 63.7336Z" fill="#FFC4B8"/>
<path fill-rule="evenodd" clip-rule="evenodd" d="M124.649 132.163L128.312 132.934L128.89 135.33L128.825 135.35L128.842 135.352L124.606 137.91L122.592 138.139L122.336 135.792L122.88 135.386L124.649 132.163Z" fill="black"/>
<path fill-rule="evenodd" clip-rule="evenodd" d="M120.694 60.9602C121.496 60.4177 122.048 59.6472 122.12 58.5116C122.185 57.465 121.94 56.4281 121.76 55.3953C121.186 52.1168 121.262 48.7263 121.981 45.4767C122.696 42.243 126.469 46.309 126.938 47.7677C127.458 49.3845 127.311 51.1452 127.438 52.8169C127.608 55.0612 127.689 57.3125 127.68 59.5636C127.674 60.9877 128.024 64.3518 126.525 65.1665C126.119 65.387 125.654 65.4642 125.199 65.5382C124.483 65.6542 115.939 66.7318 115.805 66.3097L114.625 62.5862C116.402 62.2219 119.065 62.0616 120.694 60.9602Z" fill="#CEDEE7"/>
<path fill-rule="evenodd" clip-rule="evenodd" d="M111.472 134.09L108.07 136.615L108.477 138.717L115.781 137.517L114.625 133.512L111.472 134.09Z" fill="black"/>
<path fill-rule="evenodd" clip-rule="evenodd" d="M92.4388 47.7556C94.1984 49.2852 94.3849 51.9516 92.8553 53.7111C91.3259 55.4706 88.6595 55.657 86.8999 54.1274C85.1405 52.5979 84.954 49.9315 86.4834 48.1721C88.013 46.4126 90.6794 46.2261 92.4388 47.7556ZM85.7477 55.4515C88.2385 57.6167 92.013 57.353 94.1782 54.8621C96.3435 52.3713 96.0796 48.5966 93.5888 46.4313C91.0979 44.266 87.3233 44.5302 85.1581 47.0211C82.9928 49.5119 83.2568 53.2862 85.7477 55.4515Z" fill="#767676"/>
<path fill-rule="evenodd" clip-rule="evenodd" d="M98.2203 69.767L103.579 66.9642L104.752 64.4294L106.096 61.903L93.116 69.0106L98.2203 69.767Z" fill="#CCCCCC"/>
<path fill-rule="evenodd" clip-rule="evenodd" d="M27.5324 136.773C25.7648 136.773 24.332 134.702 24.332 132.148V79.7174C24.332 77.1629 25.7648 75.0928 27.5324 75.0928C43.6591 75.0928 54.8599 75.0928 61.1347 75.0928C61.6189 75.0928 64.5078 75.0959 69.8015 75.1022C65.0618 81.3994 64.2907 84.5479 67.4883 84.5479C69.4866 84.5479 76.8537 81.3962 89.5893 75.0928C91.357 75.0928 92.7898 77.1629 92.7898 79.7174V132.148C92.7898 134.702 91.357 136.773 89.5893 136.773H27.5324Z" fill="#DEEDF2"/>
<path fill-rule="evenodd" clip-rule="evenodd" d="M50.2486 100.633C49.3486 102.458 47.1372 103.211 45.3056 102.305C43.4779 101.404 42.7283 99.1898 43.6338 97.3622C44.5352 95.5372 46.752 94.7849 48.5769 95.6904C50.4058 96.5932 51.1541 98.8072 50.2486 100.633ZM50.6142 91.5707C46.4944 89.5321 41.5344 91.2402 39.5127 95.3251C37.4853 99.4275 39.1661 104.399 43.2671 106.427C47.3843 108.464 52.3511 106.753 54.37 102.671C56.4001 98.5698 54.718 93.5981 50.6142 91.5707Z" fill="#2274C0"/>
<path fill-rule="evenodd" clip-rule="evenodd" d="M73.0892 117.614C72.1891 119.439 69.9775 120.191 68.1458 119.285C66.3167 118.383 65.5683 116.169 66.4739 114.343C67.374 112.518 69.5909 111.764 71.4173 112.671C73.2437 113.574 73.9934 115.786 73.0892 117.614ZM73.4557 108.55C69.3342 106.511 64.3739 108.221 62.3534 112.305C60.3245 116.407 62.0054 121.377 66.1095 123.406C70.2255 125.443 75.1913 123.733 77.2103 119.651C79.2392 115.549 77.5583 110.579 73.4557 108.55Z" fill="#2274C0"/>
<path fill-rule="evenodd" clip-rule="evenodd" d="M50.374 128.17L46.2752 126.147L65.9708 86.4121L70.0696 88.4341L50.374 128.17Z" fill="#2274C0"/>
<path fill-rule="evenodd" clip-rule="evenodd" d="M98.7019 69.605C99.0974 69.4336 84.0912 61.8109 72.6205 69.231C59.4906 77.7245 56.9868 89.1987 56.9868 89.1987L98.7019 69.605Z" fill="#CCCCCC"/>
<path d="M88.0938 69.4981C88.7223 68.7751 89.8182 68.6984 90.5414 69.3271C91.2645 69.9557 91.341 71.0515 90.7125 71.7745C90.0839 72.4977 88.9881 72.5745 88.2649 71.9458C87.5417 71.3172 87.4651 70.2213 88.0938 69.4981Z" fill="#CCCCCC"/>
</svg>
