<svg width="160" height="160" viewBox="0 0 160 160" fill="none" xmlns="http://www.w3.org/2000/svg">
<path fill-rule="evenodd" clip-rule="evenodd" d="M99.1795 123.838C107.327 115.172 118.122 109.515 129.82 107.389C136.921 106.099 143.715 102.707 149.205 97.2145C163.584 82.828 163.601 59.6276 149.241 45.2213C142.906 38.8664 134.828 35.3152 126.546 34.5669C119.455 33.9261 112.792 30.8301 107.873 25.6791C107.809 25.6128 107.746 25.547 107.682 25.4816C99.2892 16.9135 85.7133 16.8287 77.2191 25.295C77.1704 25.3433 77.1221 25.3921 77.0743 25.4409C74.8053 27.7455 71.5302 28.7519 68.3568 28.1353C50.264 24.6192 30.8065 29.8729 16.7932 43.8975C-5.59775 66.307 -5.59775 102.706 16.7932 125.115C39.2022 147.543 75.5331 147.543 97.9415 125.115C98.3622 124.694 98.7749 124.269 99.1795 123.838Z" fill="#EAF7FE"/>
<path fill-rule="evenodd" clip-rule="evenodd" d="M102.597 96.9719L81.4827 90.2761C80.3261 89.9092 79.6858 88.6739 80.0526 87.5169L84.0116 75.0329C84.3785 73.8759 85.6134 73.2356 86.7704 73.6024L107.885 80.2983C109.042 80.6651 109.682 81.9005 109.315 83.0571L105.356 95.5415C104.989 96.6984 103.754 97.3388 102.597 96.9719Z" fill="#EC0000"/>
<path fill-rule="evenodd" clip-rule="evenodd" d="M82.3906 80.1437L107.694 88.1682L108.903 84.3561L83.5996 76.3315L82.3906 80.1437Z" fill="#CC0000"/>
<path fill-rule="evenodd" clip-rule="evenodd" d="M87.6854 87.863L83.4287 86.513C83.1142 86.4134 82.94 86.0777 83.0399 85.7628L83.7813 83.4247C83.8813 83.1102 84.217 82.9363 84.5315 83.0359L87.7165 84.0457C87.8655 84.0933 87.9897 84.1969 88.0636 84.3345L88.8025 85.7233C88.8779 85.8653 88.8929 86.0316 88.8442 86.185L88.4356 87.4738C88.336 87.7886 87.9999 87.9626 87.6854 87.863Z" fill="#CEDEE7"/>
<path fill-rule="evenodd" clip-rule="evenodd" d="M104.527 90.4897L93.8633 87.1077L94.1361 86.248L104.8 89.6296L104.527 90.4897Z" fill="#CC0000"/>
<path fill-rule="evenodd" clip-rule="evenodd" d="M103.777 92.854L93.1133 89.472L93.3861 88.6123L104.05 91.9939L103.777 92.854Z" fill="#CC0000"/>
<path fill-rule="evenodd" clip-rule="evenodd" d="M36.0938 134.279C36.0938 133.512 42.2865 132.89 49.9255 132.89C57.5645 132.89 63.7569 133.512 63.7569 134.279C63.7569 135.047 57.5645 135.669 49.9255 135.669C42.2865 135.669 36.0938 135.047 36.0938 134.279Z" fill="#CEDEE7"/>
<path fill-rule="evenodd" clip-rule="evenodd" d="M60.0619 67.1009L38.8874 73.6038C37.7275 73.96 36.4983 73.3083 36.1417 72.148L32.2966 59.6281C31.9404 58.4682 32.5921 57.2391 33.7523 56.8825L54.9269 50.3796C56.0872 50.0234 57.3163 50.6751 57.6725 51.835L61.5177 64.3549C61.8739 65.5152 61.2222 66.7443 60.0619 67.1009Z" fill="#EC0000"/>
<path fill-rule="evenodd" clip-rule="evenodd" d="M40.3556 65.5334L37.3573 66.4542C36.9707 66.5728 36.5606 66.3553 36.4413 65.9683L35.4271 62.6647C35.3081 62.2777 35.5256 61.8676 35.9126 61.7486L38.9108 60.8278C39.2975 60.7092 39.7075 60.9263 39.8269 61.3133L40.8411 64.6173C40.9601 65.0043 40.743 65.4144 40.3556 65.5334Z" fill="#CEDEE7"/>
<path fill-rule="evenodd" clip-rule="evenodd" d="M42.3005 69.0553L37.7232 70.4609L37.2109 68.7932L41.7887 67.3872L42.3005 69.0553Z" fill="#CC0000"/>
<path fill-rule="evenodd" clip-rule="evenodd" d="M47.9536 67.319L43.3759 68.7249L42.8633 67.0568L47.441 65.6509L47.9536 67.319Z" fill="#CC0000"/>
<path fill-rule="evenodd" clip-rule="evenodd" d="M53.6095 65.5823L49.0318 66.9882L48.5195 65.3201L53.0973 63.9146L53.6095 65.5823Z" fill="#CC0000"/>
<path fill-rule="evenodd" clip-rule="evenodd" d="M59.2619 63.846L54.6845 65.2519L54.1719 63.5842L58.7496 62.1782L59.2619 63.846Z" fill="#CC0000"/>
<path fill-rule="evenodd" clip-rule="evenodd" d="M118.019 56.7969C125.988 63.1709 135.326 68.6731 145.842 72.8437C143.336 77.453 140.52 81.9879 137.4 86.4174C126.17 81.5456 116.185 75.306 107.633 68.1572C111.378 64.5248 114.843 60.7277 118.019 56.7969Z" fill="#008437"/>
<path fill-rule="evenodd" clip-rule="evenodd" d="M111.93 65.8179C113.41 64.2531 114.84 62.6619 116.222 61.0461C117.822 62.3111 120.205 62.0428 121.408 60.4688C127.154 64.6405 133.523 68.3732 140.455 71.5205C139.417 73.2636 140.14 75.4231 142.2 76.2934C141.069 78.1801 139.886 80.0521 138.649 81.9069C136.543 80.992 133.929 81.5712 132.679 83.2466C125.329 79.6687 118.569 75.4912 112.459 70.8592C113.865 69.3808 113.567 67.1316 111.93 65.8179Z" fill="#63BA68"/>
<path fill-rule="evenodd" clip-rule="evenodd" d="M123.519 75.739C121.06 74.2393 120.577 71.341 122.216 69.3156C123.861 67.2879 126.914 66.7937 129.257 68.1608C131.594 69.5294 132.43 72.3384 130.902 74.4975C129.379 76.6562 125.973 77.2402 123.519 75.739Z" fill="#008437"/>
<path fill-rule="evenodd" clip-rule="evenodd" d="M103.078 50.7969C103.08 53.1753 101.153 55.1045 98.7739 55.106C96.3951 55.1074 94.4659 53.1805 94.4648 50.8017C94.4634 48.4233 96.3903 46.4938 98.7691 46.4927C101.147 46.4912 103.077 48.4182 103.078 50.7969Z" fill="#D39E00"/>
<path fill-rule="evenodd" clip-rule="evenodd" d="M95.0664 50.7933C95.0675 52.8326 96.7272 54.4912 98.7662 54.4912H98.7684C100.808 54.4901 102.467 52.8293 102.466 50.7892C102.466 49.8011 102.08 48.8722 101.381 48.1736C100.682 47.4757 99.7536 47.0913 98.7665 47.0913H98.7643C97.7758 47.092 96.8469 47.4772 96.1487 48.1765C95.4501 48.8758 95.066 49.8051 95.0664 50.7933ZM98.7647 47.6566H98.7669C99.6031 47.6566 100.39 47.9821 100.982 48.5738C101.574 49.1651 101.901 49.9522 101.901 50.7896C101.902 52.5181 100.497 53.9248 98.7687 53.9259H98.7665C97.0391 53.9259 95.6328 52.5207 95.6321 50.7929C95.6317 49.9555 95.9572 49.1684 96.5489 48.576C97.1405 47.9836 97.9277 47.6573 98.7647 47.6566Z" fill="#F6C854"/>
<path d="M57.7113 95.6065C57.7128 97.9849 55.7858 99.9144 53.4067 99.9159C51.0283 99.917 49.0991 97.99 49.0977 95.6116C49.0966 93.2329 51.0235 91.3037 53.4023 91.3022C55.7807 91.3008 57.7098 93.2281 57.7113 95.6065Z" fill="#F6C854"/>
<path fill-rule="evenodd" clip-rule="evenodd" d="M49.6953 95.6028C49.6964 97.6426 51.3557 99.3008 53.3947 99.3008H53.3969C54.3855 99.3001 55.3144 98.9145 56.0126 98.2156C56.7111 97.5166 57.0952 96.587 57.0952 95.5992C57.0938 93.5591 55.4344 91.9009 53.3955 91.9009H53.3933C52.4047 91.9016 51.4758 92.2871 50.7776 92.9865C50.079 93.6854 49.6949 94.6147 49.6953 95.6028ZM53.3936 92.4665H53.3958C55.1232 92.4665 56.5292 93.8714 56.5299 95.5992C56.5306 96.4365 56.2048 97.2237 55.6131 97.8157C55.0214 98.4081 54.2342 98.7347 53.3973 98.7351H53.3951C52.5588 98.7351 51.772 98.4096 51.1803 97.8187C50.5879 97.227 50.2613 96.4398 50.261 95.6028C50.2606 94.7655 50.5861 93.9783 51.1778 93.3859C51.7698 92.7931 52.5566 92.4669 53.3936 92.4665Z" fill="#F6C854"/>
<path fill-rule="evenodd" clip-rule="evenodd" d="M74.6215 87.8101C74.6229 90.1889 72.6956 92.1184 70.3172 92.1195C67.9388 92.121 66.0093 90.194 66.0078 87.8152C66.0063 85.4368 67.9337 83.5073 70.3121 83.5059C72.6908 83.5048 74.62 85.4317 74.6215 87.8101Z" fill="#D39E00"/>
<path fill-rule="evenodd" clip-rule="evenodd" d="M66.6094 87.8061C66.6108 89.8462 68.2702 91.5044 70.3091 91.5044H70.3113C72.3518 91.5029 74.0108 89.8425 74.0097 87.8024C74.0082 85.7627 72.3489 84.1045 70.3091 84.1045H70.3073C68.2672 84.1056 66.6083 85.7664 66.6094 87.8061ZM70.3077 84.6698H70.3095C72.0369 84.6698 73.4432 86.0746 73.4439 87.8024C73.445 89.5309 72.0398 90.938 70.3113 90.9387H70.3091C68.5821 90.9387 67.1758 89.5339 67.175 87.8061C67.1739 86.0779 68.5791 84.6709 70.3077 84.6698Z" fill="#F6C854"/>
<path fill-rule="evenodd" clip-rule="evenodd" d="M73.7426 126.849C71.3638 126.85 69.4347 124.923 69.4336 122.544C69.4321 120.166 71.3591 118.237 73.7379 118.235C76.1163 118.234 78.0454 120.161 78.0469 122.54C78.0483 124.918 76.121 126.848 73.7426 126.849Z" fill="#D39E00"/>
<path fill-rule="evenodd" clip-rule="evenodd" d="M70.0313 122.535C70.0323 124.575 71.692 126.233 73.731 126.233H73.7332C75.7733 126.232 77.4319 124.572 77.4308 122.531C77.4297 120.492 75.7704 118.833 73.7314 118.833H73.7292C72.7406 118.834 71.8118 119.22 71.1135 119.919C70.415 120.618 70.0309 121.548 70.0313 122.535ZM73.7295 119.399H73.7317C74.568 119.399 75.3548 119.725 75.9465 120.316C76.5389 120.908 76.8655 121.694 76.8658 122.531C76.8666 124.26 75.4617 125.667 73.7336 125.668H73.7314C72.0039 125.668 70.5976 124.263 70.5969 122.535C70.5965 121.698 70.922 120.911 71.5137 120.319C72.1054 119.726 72.8926 119.4 73.7295 119.399Z" fill="#F6C854"/>
<path fill-rule="evenodd" clip-rule="evenodd" d="M64.4102 48.2883C72.5368 42.116 80.152 34.4042 86.764 25.2241C90.6216 28.78 94.3324 32.6174 97.8659 36.7243C96.7029 38.2355 95.5151 39.7093 94.3044 41.1454C87.7426 48.9285 80.5066 55.6055 72.8916 61.1341C70.2833 56.6152 67.4469 52.3275 64.4102 48.2883Z" fill="#008437"/>
<path fill-rule="evenodd" clip-rule="evenodd" d="M71.6692 56.3992C70.5133 54.5821 69.3193 52.806 68.0898 51.0723C69.7071 49.8293 70.0285 47.4531 68.7961 45.9018C74.2442 41.3482 79.4184 36.0832 84.1631 30.1292C85.6001 31.5611 87.8702 31.3876 89.2172 29.6016C90.771 31.1591 92.2974 32.7639 93.7942 34.4162C92.393 36.2344 92.3165 38.9109 93.6357 40.5328C88.3718 46.7871 82.6707 52.3227 76.687 57.1172C75.597 55.3927 73.3431 55.132 71.6692 56.3992Z" fill="#63BA68"/>
<path fill-rule="evenodd" clip-rule="evenodd" d="M84.1209 47.5815C82.0665 49.6004 79.1378 49.3609 77.5737 47.2773C76.0092 45.1874 76.275 42.1056 78.1727 40.167C80.0707 38.2345 82.9987 38.1097 84.7195 40.1186C86.4411 42.1221 86.1756 45.5682 84.1209 47.5815Z" fill="#008437"/>
<path fill-rule="evenodd" clip-rule="evenodd" d="M50.8814 130.437C49.1844 132.134 46.4329 132.134 44.7359 130.437L29.6768 115.278C27.9798 113.581 28.4851 111.435 30.1821 109.738L52.5169 87.4036C54.2136 85.7066 56.9651 85.7066 58.6621 87.4036L73.2163 101.957C74.9133 103.654 74.9133 106.406 73.2163 108.103L50.8814 130.437Z" fill="#9BC3D3"/>
<path fill-rule="evenodd" clip-rule="evenodd" d="M30.5946 112.004C30.2757 112.324 30.2757 112.841 30.5946 113.16C30.9139 113.479 31.4309 113.479 31.7502 113.16L53.4732 91.4368C55.1211 89.7888 57.0371 89.0335 59.2973 91.2936L71.3009 103.298C71.6118 103.608 72.1156 103.608 72.4264 103.298C72.7369 102.987 72.7369 102.483 72.4264 102.173L59.4994 89.2451C57.8023 87.5481 55.5188 87.0805 53.2107 89.3886L30.5946 112.004Z" fill="#34466B"/>
<path fill-rule="evenodd" clip-rule="evenodd" d="M69.6734 98.4145L69.3472 101.342L64.3125 96.307L64.6387 93.3794L69.6734 98.4145Z" fill="#34466B"/>
<path fill-rule="evenodd" clip-rule="evenodd" d="M74.1946 112.158L53.3089 133.044C51.661 134.692 48.9893 134.692 47.3413 133.044L29.6758 115.278L54.0899 90.8637C55.4094 89.5441 57.5484 89.5441 58.8675 90.8637L74.1946 106.19C75.8426 107.838 75.8426 110.51 74.1946 112.158Z" fill="#9BC3D3"/>
<path fill-rule="evenodd" clip-rule="evenodd" d="M54.9838 92.2504C54.9135 92.2504 54.845 92.2138 54.8077 92.1489C54.7516 92.0516 54.7853 91.9278 54.8823 91.8718C55.2554 91.6572 55.6812 91.5371 56.1133 91.5251C56.2154 91.5207 56.3187 91.61 56.3216 91.722C56.3249 91.8337 56.2367 91.9271 56.1246 91.9304C55.7596 91.9406 55.4001 92.042 55.0844 92.2236C55.0526 92.2419 55.0178 92.2504 54.9838 92.2504ZM58.7542 93.4911C58.7022 93.4911 58.6506 93.4713 58.6107 93.4318L57.7682 92.589C57.6891 92.5099 57.6891 92.381 57.7682 92.3023C57.8473 92.2228 57.9754 92.2228 58.0549 92.3023L58.8974 93.1447C58.9765 93.2238 58.9765 93.3527 58.8974 93.4318C58.8578 93.4713 58.8058 93.4911 58.7542 93.4911ZM52.6829 94.4336C52.6309 94.4336 52.5793 94.4138 52.5394 94.3743C52.4603 94.2952 52.4603 94.1663 52.5394 94.0876L53.3822 93.2448C53.4617 93.1653 53.5895 93.1653 53.6689 93.2448C53.748 93.3239 53.748 93.4524 53.6689 93.5315L52.8261 94.3743C52.7865 94.4138 52.7345 94.4336 52.6829 94.4336ZM61.0021 95.7386C60.9502 95.7386 60.8982 95.7192 60.8586 95.6793L60.0158 94.8368C59.9367 94.7577 59.9367 94.6288 60.0158 94.5497C60.0952 94.4707 60.2234 94.4707 60.3025 94.5497L61.1453 95.3926C61.2244 95.4717 61.2244 95.6002 61.1453 95.6793C61.1058 95.7192 61.0538 95.7386 61.0021 95.7386ZM50.435 96.6814C50.3833 96.6814 50.3314 96.6616 50.2918 96.622C50.2127 96.543 50.2127 96.4141 50.2918 96.335L51.1343 95.4925C51.2137 95.4131 51.3419 95.4131 51.4213 95.4925C51.5 95.5712 51.5 95.7001 51.4213 95.7792L50.5785 96.622C50.5386 96.6616 50.487 96.6814 50.435 96.6814ZM63.2486 97.9863C63.197 97.9863 63.145 97.9665 63.1055 97.9269L62.2626 97.0837C62.1836 97.0043 62.1836 96.8761 62.2626 96.7971C62.3421 96.7176 62.4699 96.7176 62.5493 96.7971L63.3922 97.6403C63.4712 97.7197 63.4712 97.8479 63.3922 97.9269C63.3522 97.9665 63.3006 97.9863 63.2486 97.9863ZM48.1874 98.9282C48.1358 98.9282 48.0838 98.9088 48.0442 98.8689C47.9652 98.7898 47.9652 98.6613 48.0442 98.5822L48.8871 97.7394C48.9662 97.6599 49.0943 97.6599 49.1738 97.7394C49.2528 97.8185 49.2528 97.9473 49.1738 98.0261L48.3309 98.8689C48.2914 98.9088 48.2394 98.9282 48.1874 98.9282ZM65.4962 100.233C65.4442 100.233 65.3926 100.214 65.3527 100.174L64.5102 99.3313C64.4311 99.2522 64.4311 99.1233 64.5102 99.0446C64.5893 98.9652 64.7174 98.9652 64.7969 99.0446L65.6397 99.8871C65.7184 99.9662 65.7184 100.095 65.6397 100.174C65.5998 100.214 65.5482 100.233 65.4962 100.233ZM45.9402 101.176C45.8882 101.176 45.8366 101.156 45.7967 101.117C45.7176 101.038 45.7176 100.909 45.7967 100.83L46.6395 99.9871C46.719 99.9077 46.8467 99.9077 46.9262 99.9871C47.0053 100.066 47.0053 100.195 46.9262 100.274L46.0834 101.117C46.0438 101.156 45.9918 101.176 45.9402 101.176ZM67.7441 102.481C67.6921 102.481 67.6402 102.462 67.6006 102.422L66.7578 101.579C66.6787 101.5 66.6787 101.371 66.7578 101.292C66.8372 101.213 66.9654 101.213 67.0445 101.292L67.8873 102.135C67.9664 102.214 67.9664 102.343 67.8873 102.422C67.8478 102.462 67.7958 102.481 67.7441 102.481ZM43.693 103.423C43.6414 103.423 43.5894 103.404 43.5498 103.364C43.4707 103.285 43.4707 103.156 43.5498 103.077L44.3923 102.235C44.4717 102.155 44.5999 102.155 44.679 102.235C44.7581 102.313 44.7581 102.442 44.679 102.521L43.8365 103.364C43.7966 103.404 43.745 103.423 43.693 103.423ZM69.9906 104.728C69.939 104.728 69.887 104.708 69.8475 104.669L69.0046 103.826C68.9255 103.747 68.9255 103.618 69.0046 103.539C69.0841 103.46 69.2119 103.46 69.2913 103.539L70.1341 104.382C70.2132 104.461 70.2132 104.59 70.1341 104.669C70.0946 104.708 70.0426 104.728 69.9906 104.728ZM41.4454 105.671C41.3938 105.671 41.3418 105.651 41.3023 105.611C41.2232 105.532 41.2232 105.404 41.3023 105.325L42.1451 104.482C42.2242 104.402 42.3523 104.402 42.4318 104.482C42.5109 104.561 42.5109 104.69 42.4318 104.768L41.5889 105.611C41.5494 105.651 41.4974 105.671 41.4454 105.671ZM72.2382 106.976C72.1862 106.976 72.1346 106.956 72.0947 106.916L71.2522 106.074C71.1731 105.995 71.1731 105.866 71.2522 105.787C71.3313 105.708 71.4594 105.708 71.5389 105.787L72.3817 106.629C72.4604 106.709 72.4604 106.837 72.3817 106.916C72.3418 106.956 72.2902 106.976 72.2382 106.976ZM39.1982 107.918C39.1462 107.918 39.0946 107.898 39.0547 107.859C38.9756 107.78 38.9756 107.651 39.0547 107.572L39.8975 106.729C39.977 106.65 40.1048 106.65 40.1842 106.729C40.2633 106.808 40.2633 106.937 40.1842 107.016L39.3414 107.859C39.3018 107.898 39.2498 107.918 39.1982 107.918ZM73.9247 109.558C73.8167 109.558 73.7269 109.473 73.7226 109.364C73.7057 108.999 73.5984 108.641 73.4124 108.329C73.3553 108.233 73.3868 108.108 73.4827 108.051C73.5798 107.993 73.7039 108.025 73.7606 108.121C73.981 108.49 74.1074 108.914 74.1271 109.346C74.1326 109.458 74.0458 109.553 73.9342 109.558L73.9247 109.558ZM36.8068 110.106C36.7281 110.027 36.7281 109.898 36.8068 109.819L37.65 108.976C37.7295 108.897 37.8576 108.897 37.9367 108.976C38.0158 109.055 38.0158 109.184 37.9367 109.263L37.0939 110.106C37.054 110.146 36.8467 110.146 36.8068 110.106ZM72.3759 112.222C72.3239 112.222 72.2722 112.203 72.2323 112.163C72.1536 112.084 72.1536 111.955 72.2323 111.876L73.0752 111.034C73.1535 110.955 73.2894 110.945 73.3684 111.023C73.4483 111.1 73.4596 111.217 73.3838 111.298L73.3578 111.325L72.5194 112.163C72.4795 112.203 72.4278 112.222 72.3759 112.222ZM34.7034 112.413C34.6518 112.413 34.5998 112.393 34.5603 112.353C34.4812 112.274 34.4812 112.146 34.5603 112.067L35.4031 111.224C35.4822 111.145 35.6103 111.145 35.6898 111.224C35.7689 111.303 35.7689 111.432 35.6898 111.511L34.8469 112.353C34.8074 112.393 34.7554 112.413 34.7034 112.413ZM70.1282 114.47C70.0766 114.47 70.0246 114.45 69.985 114.41C69.9059 114.332 69.9059 114.203 69.985 114.124L70.8275 113.281C70.907 113.202 71.0351 113.202 71.1146 113.281C71.1933 113.36 71.1933 113.489 71.1146 113.568L70.2717 114.41C70.2318 114.45 70.1802 114.47 70.1282 114.47ZM32.8986 114.94L32.8729 114.939C32.762 114.925 32.6833 114.823 32.6968 114.713C32.7503 114.283 32.9103 113.871 33.1596 113.52C33.2244 113.429 33.3515 113.408 33.4423 113.472C33.5334 113.537 33.555 113.664 33.4899 113.755C33.2797 114.051 33.1446 114.4 33.0996 114.762C33.0864 114.865 32.9993 114.94 32.8986 114.94ZM67.881 116.717C67.829 116.717 67.777 116.698 67.7375 116.658C67.6584 116.579 67.6584 116.45 67.7375 116.371L68.5803 115.528C68.6598 115.449 68.7875 115.449 68.867 115.528C68.9461 115.607 68.9461 115.736 68.867 115.815L68.0241 116.658C67.9846 116.698 67.9326 116.717 67.881 116.717ZM34.2785 117.642C34.2269 117.642 34.1749 117.622 34.1354 117.583L33.4448 116.892C33.3892 116.836 33.3365 116.779 33.2867 116.72C33.2149 116.634 33.2263 116.506 33.3123 116.434C33.398 116.362 33.5261 116.374 33.5979 116.459C33.6396 116.51 33.6843 116.558 33.7315 116.605L34.4221 117.296C34.5011 117.375 34.5011 117.504 34.4221 117.583C34.3821 117.622 34.3305 117.642 34.2785 117.642ZM65.6334 118.965C65.5814 118.965 65.5298 118.945 65.4899 118.906C65.4108 118.826 65.4108 118.698 65.4899 118.619L66.3327 117.776C66.4122 117.697 66.54 117.697 66.6194 117.776C66.6985 117.855 66.6985 117.984 66.6194 118.063L65.7769 118.906C65.737 118.945 65.6854 118.965 65.6334 118.965ZM36.5259 119.889C36.474 119.889 36.4223 119.87 36.3824 119.83L35.54 118.987C35.4609 118.908 35.4609 118.779 35.54 118.7C35.619 118.621 35.7472 118.621 35.8266 118.7L36.6695 119.543C36.7482 119.622 36.7482 119.751 36.6695 119.83C36.6296 119.87 36.5779 119.889 36.5259 119.889ZM63.3862 121.212C63.3346 121.212 63.2826 121.192 63.243 121.153C63.164 121.074 63.164 120.945 63.243 120.866L64.0855 120.023C64.165 119.944 64.2931 119.944 64.3726 120.023C64.4513 120.102 64.4513 120.231 64.3726 120.31L63.5297 121.153C63.4898 121.192 63.4382 121.212 63.3862 121.212ZM38.7739 122.136C38.7219 122.136 38.6699 122.117 38.6304 122.077L37.7875 121.234C37.7084 121.155 37.7084 121.027 37.7875 120.948C37.867 120.868 37.9951 120.868 38.0742 120.948L38.917 121.79C38.9961 121.869 38.9961 121.998 38.917 122.077C38.8775 122.117 38.8255 122.136 38.7739 122.136ZM61.139 123.459C61.087 123.459 61.035 123.44 60.9955 123.4C60.9164 123.321 60.9164 123.193 60.9955 123.113L61.8383 122.271C61.9174 122.191 62.0455 122.191 62.125 122.271C62.2041 122.35 62.2041 122.479 62.125 122.557L61.2822 123.4C61.2426 123.44 61.1906 123.459 61.139 123.459ZM41.0211 124.384C40.9695 124.384 40.9175 124.364 40.8779 124.325L40.0351 123.482C39.956 123.403 39.956 123.274 40.0351 123.195C40.1145 123.116 40.2423 123.116 40.3218 123.195L41.1646 124.038C41.2437 124.117 41.2437 124.246 41.1646 124.325C41.1247 124.364 41.0731 124.384 41.0211 124.384ZM58.8914 125.707C58.8394 125.707 58.7878 125.687 58.7479 125.648C58.6688 125.568 58.6688 125.44 58.7479 125.361L59.5907 124.518C59.6702 124.439 59.798 124.439 59.8774 124.518C59.9565 124.597 59.9565 124.726 59.8774 124.805L59.0346 125.648C58.995 125.687 58.9431 125.707 58.8914 125.707ZM43.2679 126.631C43.2159 126.631 43.1643 126.612 43.1244 126.572L42.2819 125.729C42.2029 125.65 42.2029 125.521 42.2819 125.442C42.361 125.363 42.4892 125.363 42.5686 125.442L43.4115 126.285C43.4902 126.364 43.4902 126.493 43.4115 126.572C43.3716 126.612 43.3199 126.631 43.2679 126.631ZM56.6442 127.955C56.5926 127.955 56.5406 127.935 56.5011 127.895C56.422 127.816 56.422 127.687 56.5011 127.608L57.3435 126.766C57.423 126.686 57.5511 126.686 57.6306 126.766C57.7093 126.844 57.7093 126.973 57.6306 127.052L56.7877 127.895C56.7478 127.935 56.6962 127.955 56.6442 127.955ZM45.5159 128.879C45.4639 128.879 45.4119 128.859 45.3724 128.819L44.5295 127.977C44.4504 127.897 44.4504 127.769 44.5295 127.69C44.609 127.61 44.7371 127.61 44.8162 127.69L45.659 128.533C45.7381 128.612 45.7381 128.74 45.659 128.819C45.6195 128.859 45.5675 128.879 45.5159 128.879ZM54.3966 130.201C54.345 130.201 54.293 130.182 54.2535 130.142C54.1744 130.063 54.1744 129.935 54.2535 129.855L55.0963 129.013C55.1754 128.933 55.3036 128.933 55.383 129.013C55.4621 129.092 55.4621 129.221 55.383 129.299L54.5402 130.142C54.5006 130.182 54.4486 130.201 54.3966 130.201ZM47.7631 131.126C47.7114 131.126 47.6595 131.106 47.6199 131.067L46.7771 130.224C46.698 130.145 46.698 130.016 46.7771 129.937C46.8565 129.858 46.9843 129.858 47.0638 129.937L47.9066 130.78C47.9857 130.859 47.9857 130.988 47.9066 131.067C47.8671 131.106 47.8151 131.126 47.7631 131.126ZM52.1408 132.44C52.0822 132.44 52.024 132.414 51.984 132.365C51.913 132.279 51.9255 132.151 52.0126 132.08C52.0723 132.031 52.1305 131.979 52.1865 131.923L52.8489 131.26C52.9283 131.181 53.0561 131.181 53.1355 131.26C53.2146 131.339 53.2146 131.468 53.1355 131.547L52.4736 132.209C52.408 132.275 52.3396 132.336 52.2693 132.394C52.2316 132.425 52.1862 132.44 52.1408 132.44ZM50.2795 132.954L50.2509 132.952C49.8229 132.892 49.4132 132.726 49.0665 132.471C48.9764 132.405 48.957 132.278 49.0233 132.187C49.0896 132.097 49.217 132.078 49.3067 132.144C49.5996 132.359 49.9456 132.5 50.3077 132.55C50.4183 132.566 50.4955 132.669 50.4801 132.779C50.4659 132.881 50.3791 132.954 50.2795 132.954Z" fill="#34466B"/>
<path fill-rule="evenodd" clip-rule="evenodd" d="M69.3483 101.342L61.7719 108.919C61.4248 109.266 60.8621 109.266 60.515 108.919L56.7369 105.141C56.3898 104.794 56.3898 104.231 56.7369 103.884L64.3136 96.3071L69.3483 101.342Z" fill="#34466B"/>
<path fill-rule="evenodd" clip-rule="evenodd" d="M62.4839 103.17C63.2022 103.888 63.2022 105.053 62.4839 105.771C61.7655 106.49 60.6009 106.49 59.8825 105.771C59.1642 105.053 59.1642 103.888 59.8825 103.17C60.6009 102.451 61.7655 102.451 62.4839 103.17Z" fill="#9BC3D3"/>
<path fill-rule="evenodd" clip-rule="evenodd" d="M106.329 103.317C103.95 103.319 102.021 101.391 102.02 99.013C102.018 96.6342 103.945 94.7051 106.324 94.7036C108.702 94.7022 110.631 96.6295 110.633 99.0079C110.634 101.386 108.707 103.316 106.329 103.317Z" fill="#D39E00"/>
<path fill-rule="evenodd" clip-rule="evenodd" d="M103.702 101.62C104.401 102.317 105.329 102.702 106.316 102.702H106.319C108.359 102.7 110.018 101.04 110.017 99.0001C110.016 96.96 108.356 95.3018 106.317 95.3018H106.315C104.275 95.3032 102.616 96.9636 102.617 99.0037C102.618 99.9923 103.003 100.921 103.702 101.62ZM106.315 95.8674H106.318C107.154 95.8674 107.941 96.1929 108.532 96.7842C109.125 97.3759 109.451 98.1627 109.452 99C109.452 100.728 108.048 102.135 106.319 102.136H106.317C105.48 102.136 104.694 101.81 104.102 101.22C103.51 100.628 103.183 99.8407 103.183 99.0037C103.182 97.2752 104.587 95.8681 106.315 95.8674Z" fill="#F6C854"/>
<path d="M85.359 101.461C87.5155 102.093 89.4717 101.895 89.7888 100.814L89.9451 100.251C90.1714 99.1819 88.563 98.3292 86.4574 97.7123C84.4085 97.1114 82.6038 97.0232 82.1465 97.9817C82.122 98.0319 81.9946 98.4709 81.9788 98.5251C81.6621 99.6059 83.2021 100.829 85.359 101.461Z" fill="#D39E00"/>
<path fill-rule="evenodd" clip-rule="evenodd" d="M85.565 100.776C87.7219 101.408 89.6884 101.176 89.9575 100.257C90.227 99.338 88.6965 98.0814 86.54 97.4491C84.3839 96.8172 82.4174 97.0493 82.1479 97.9679C81.8788 98.8865 83.4088 100.144 85.565 100.776Z" fill="#D39E00"/>
<path fill-rule="evenodd" clip-rule="evenodd" d="M85.6388 100.504C86.3919 100.725 87.1381 100.842 87.7748 100.842C87.874 100.842 87.971 100.839 88.0648 100.834C88.8556 100.785 89.3393 100.534 89.4641 100.109C89.589 99.6835 89.3166 99.2112 88.677 98.7429C88.1168 98.3328 87.3285 97.9663 86.4571 97.7111C85.5948 97.4585 84.7004 97.3362 84.0022 97.3725C83.1905 97.4164 82.6954 97.6639 82.5713 98.0886C82.3055 98.9959 83.9535 100.01 85.6388 100.504ZM88.0429 100.486C87.4007 100.525 86.5579 100.411 85.7366 100.17C84.0631 99.6792 82.7406 98.7525 82.9061 98.1868C82.983 97.9246 83.389 97.7548 84.0213 97.7207C84.68 97.6848 85.5334 97.8038 86.3591 98.0458C87.1803 98.2864 87.9503 98.643 88.4717 99.0245C88.967 99.3873 89.2072 99.7469 89.1296 100.011C89.0523 100.275 88.6562 100.448 88.0429 100.486Z" fill="#F6C854"/>
<path d="M133.926 102.813C135.795 104.061 137.721 104.457 138.346 103.52L138.664 103.029C139.2 102.077 137.92 100.783 136.095 99.5644C134.319 98.3788 132.623 97.7549 131.9 98.533C131.862 98.574 131.609 98.9548 131.578 99.0016C130.953 99.9382 132.057 101.565 133.926 102.813Z" fill="#D39E00"/>
<path fill-rule="evenodd" clip-rule="evenodd" d="M134.331 102.222C136.199 103.47 138.146 103.836 138.677 103.04C139.209 102.244 138.124 100.587 136.255 99.3386C134.386 98.0912 132.44 97.7251 131.909 98.521C131.377 99.3174 132.461 100.974 134.331 102.222Z" fill="#D39E00"/>
<path fill-rule="evenodd" clip-rule="evenodd" d="M134.483 101.984C135.454 102.632 136.597 103.114 137.397 103.114C137.778 103.114 138.082 103.004 138.251 102.751C138.498 102.382 138.38 101.85 137.909 101.212C137.497 100.653 136.854 100.068 136.099 99.5638C135.352 99.0644 134.535 98.6796 133.858 98.5068C133.071 98.3054 132.524 98.3936 132.278 98.762C132.032 99.1303 132.16 99.6689 132.647 100.319C133.067 100.878 133.736 101.485 134.483 101.984ZM137.962 102.557C137.627 103.055 136.124 102.66 134.676 101.694C133.961 101.216 133.323 100.639 132.926 100.11C132.547 99.6037 132.416 99.183 132.568 98.956C132.719 98.7283 133.158 98.6884 133.771 98.8444C134.412 99.008 135.19 99.3756 135.905 99.8538C136.617 100.329 137.245 100.899 137.629 101.419C137.993 101.913 138.114 102.328 137.962 102.557Z" fill="#F6C854"/>
<path d="M134.135 124.135C136.268 123.426 137.763 122.149 137.408 121.08L137.216 120.529C136.794 119.521 134.986 119.736 132.904 120.427C130.877 121.1 129.343 122.055 129.513 123.104C129.522 123.159 129.667 123.592 129.685 123.645C130.04 124.714 132.002 124.843 134.135 124.135Z" fill="#D39E00"/>
<path fill-rule="evenodd" clip-rule="evenodd" d="M133.916 123.453C136.048 122.744 137.533 121.434 137.231 120.525C136.929 119.617 134.956 119.454 132.823 120.162C130.69 120.871 129.206 122.182 129.508 123.09C129.809 123.998 131.783 124.161 133.916 123.453Z" fill="#D39E00"/>
<path fill-rule="evenodd" clip-rule="evenodd" d="M129.922 122.95C130.078 123.419 130.682 123.614 131.462 123.614C132.171 123.614 133.025 123.453 133.82 123.189C135.457 122.645 137.037 121.583 136.74 120.686C136.441 119.789 134.54 119.883 132.902 120.426C131.235 120.98 129.625 122.053 129.922 122.95ZM133.012 120.757C133.817 120.49 134.6 120.357 135.212 120.357C135.856 120.357 136.312 120.504 136.409 120.796C136.598 121.365 135.361 122.309 133.709 122.858C132.055 123.408 130.44 123.399 130.254 122.84C130.068 122.281 131.357 121.307 133.012 120.757Z" fill="#F6C854"/>
<path d="M30.6932 103.077C32.5477 101.808 33.6329 100.168 32.9962 99.2385L32.6594 98.7611C31.975 97.9091 30.2971 98.615 28.4865 99.8547C26.7247 101.061 25.5139 102.402 25.9664 103.363C25.9902 103.413 26.2498 103.79 26.281 103.836C26.9177 104.766 28.8391 104.347 30.6932 103.077Z" fill="#D39E00"/>
<path fill-rule="evenodd" clip-rule="evenodd" d="M30.2937 102.482C32.1481 101.213 33.2128 99.5434 32.6721 98.7537C32.1313 97.964 30.1897 98.3524 28.3356 99.6222C26.4811 100.892 25.4164 102.561 25.9572 103.351C26.498 104.141 28.4396 103.752 30.2937 102.482Z" fill="#D39E00"/>
<path fill-rule="evenodd" clip-rule="evenodd" d="M26.3171 103.101C26.4768 103.334 26.7572 103.452 27.1439 103.452C27.3624 103.452 27.6158 103.414 27.8996 103.339C28.5747 103.158 29.3872 102.763 30.1282 102.256C31.5525 101.28 32.7776 99.8236 32.2437 99.0438C31.9937 98.6777 31.4554 98.5894 30.688 98.7882C30.0162 98.9629 29.233 99.3411 28.4843 99.8544C27.0351 100.846 25.783 102.321 26.3171 103.101ZM30.7759 99.1258C31.0121 99.0643 31.2226 99.0339 31.4005 99.0339C31.6689 99.0339 31.8622 99.1038 31.9559 99.2404C32.2946 99.7354 31.3676 100.985 29.9316 101.968C29.2217 102.454 28.448 102.831 27.8095 103.002C27.1984 103.166 26.7594 103.13 26.6046 102.905C26.2717 102.418 27.242 101.127 28.6809 100.142C29.3872 99.6582 30.1509 99.288 30.7759 99.1258Z" fill="#F6C854"/>
<path d="M74.0867 78.3887C75.8225 79.8159 77.7001 80.4006 78.4155 79.5303L78.7802 79.0741C79.4073 78.1793 78.2621 76.7642 76.5669 75.371C74.9175 74.0153 73.2918 73.2262 72.4951 73.9288C72.4534 73.9655 72.1641 74.3195 72.1283 74.3631C71.4132 75.233 72.3505 76.9619 74.0867 78.3887Z" fill="#D39E00"/>
<path fill-rule="evenodd" clip-rule="evenodd" d="M74.5472 77.8403C76.2834 79.2675 78.1833 79.8248 78.7914 79.0852C79.3992 78.3456 78.4846 76.5896 76.7481 75.1624C75.0122 73.7356 73.112 73.1784 72.5046 73.9176C71.8964 74.6572 72.811 76.4135 74.5472 77.8403Z" fill="#D39E00"/>
<path fill-rule="evenodd" clip-rule="evenodd" d="M74.7177 77.6187C75.6883 78.4161 76.8739 79.0415 77.6794 79.0411C77.9807 79.0411 78.2289 78.9536 78.3926 78.7548C78.9923 78.0244 77.899 76.4657 76.566 75.3703C75.8721 74.7998 75.0974 74.3356 74.4406 74.0965C73.6764 73.8182 73.1243 73.8523 72.8431 74.1942C72.5623 74.5362 72.6359 75.0843 73.0566 75.78C73.4187 76.3782 74.0239 77.0483 74.7177 77.6187ZM73.1128 74.4155C73.1982 74.3115 73.3483 74.2595 73.5504 74.2595C73.7576 74.2595 74.0198 74.3144 74.3211 74.4242C74.9424 74.6501 75.6798 75.0932 76.3443 75.6394C77.6895 76.7448 78.5034 78.0702 78.1226 78.5337C77.7419 78.9969 76.2836 78.4543 74.9395 77.3493C74.2742 76.803 73.6968 76.1652 73.3549 75.5999C73.0272 75.0584 72.9389 74.6267 73.1128 74.4155Z" fill="#F6C854"/>
<path fill-rule="evenodd" clip-rule="evenodd" d="M48.7463 84.5885C45.4712 88.6496 42.4935 92.8404 39.8196 97.1289C31.1335 91.772 21.1963 87.4476 10.25 84.5877C12.177 79.7079 14.4195 74.864 16.9773 70.0874C28.717 73.5561 39.3876 78.5341 48.7463 84.5885Z" fill="#008437"/>
<path fill-rule="evenodd" clip-rule="evenodd" d="M44.7697 87.4336C43.4908 89.1669 42.2646 90.9203 41.0908 92.692C39.3484 91.6317 37.0157 92.1875 36.0129 93.8966C29.8018 90.4553 23.0262 87.5259 15.7624 85.2452C16.58 83.3889 15.6002 81.3335 13.4492 80.7206C14.3419 78.7101 15.289 76.7078 16.2908 74.7164C18.492 75.3684 21.0164 74.4754 22.0537 72.6602C29.7846 75.3168 37.0029 78.6402 43.631 82.4941C42.4154 84.1326 42.9848 86.329 44.7697 87.4336Z" fill="#63BA68"/>
<path fill-rule="evenodd" clip-rule="evenodd" d="M32.0596 78.9969C34.6833 80.1861 35.5151 83.0042 34.1352 85.2134C32.7494 87.4264 29.7786 88.289 27.2867 87.2173C24.8003 86.1431 23.6283 83.4567 24.8823 81.1278C26.1308 78.7999 29.441 77.8059 32.0596 78.9969Z" fill="#008437"/>
<path fill-rule="evenodd" clip-rule="evenodd" d="M59.1016 83.6055C59.103 85.9843 57.1757 87.9134 54.7973 87.9145C52.4185 87.916 50.4894 85.9891 50.4883 83.6103C50.4868 81.2319 52.4134 79.3027 54.7925 79.3013C57.1709 79.2998 59.1001 81.2271 59.1016 83.6055Z" fill="#D39E00"/>
<path fill-rule="evenodd" clip-rule="evenodd" d="M51.0859 83.602C51.0874 85.6417 52.7471 87.3003 54.7861 87.3003H54.7883C56.8284 87.2988 58.4869 85.6381 58.4858 83.598C58.4851 82.6098 58.0999 81.6809 57.4006 80.9823C56.702 80.2845 55.7735 79.9004 54.7864 79.9004H54.7842C53.7957 79.9008 52.8668 80.2863 52.1682 80.9852C51.47 81.6846 51.0856 82.6138 51.0859 83.602ZM54.7842 80.4657H54.7864C55.6227 80.4657 56.4091 80.7912 57.0012 81.3825C57.5936 81.9741 57.9198 82.761 57.9201 83.5983C57.9212 85.3268 56.516 86.7339 54.7882 86.7346H54.786C53.0586 86.7346 51.6523 85.3298 51.6516 83.6016C51.6509 82.7646 51.9767 81.9771 52.5684 81.385C53.1597 80.7926 53.9472 80.466 54.7842 80.4657Z" fill="#F6C854"/>
<path fill-rule="evenodd" clip-rule="evenodd" d="M67.0085 64.7427C67.01 67.1211 65.0827 69.0507 62.7039 69.0521C60.3255 69.0532 58.396 67.1263 58.3945 64.7475C58.3938 62.3691 60.3204 60.4399 62.6992 60.4385C65.0776 60.437 67.0071 62.3643 67.0085 64.7427Z" fill="#D39E00"/>
<path fill-rule="evenodd" clip-rule="evenodd" d="M60.0774 67.3544C60.776 68.0522 61.7045 68.4367 62.692 68.4367H62.6938C63.6827 68.4359 64.6116 68.0507 65.3098 67.3514C66.008 66.6525 66.3925 65.7229 66.3921 64.7347C66.3914 63.7465 66.0058 62.8176 65.3069 62.119C64.6083 61.4212 63.6798 61.0371 62.6927 61.0371H62.6905C61.7016 61.0375 60.7727 61.423 60.0745 62.122C59.3763 62.8213 58.9918 63.7505 58.9922 64.7387C58.9929 65.7273 59.3785 66.6561 60.0774 67.3544ZM62.6904 61.6024H62.6926C64.4196 61.6024 65.8256 63.0073 65.8263 64.7351C65.827 65.572 65.5012 66.3596 64.9095 66.952C64.3182 67.5444 63.5314 67.8706 62.6937 67.8714H62.6918C61.8552 67.8714 61.0688 67.5455 60.4771 66.9546C59.8847 66.3629 59.5581 65.5761 59.5577 64.7384C59.557 63.9014 59.8829 63.1138 60.4745 62.5218C61.0658 61.9294 61.8534 61.6028 62.6904 61.6024Z" fill="#F6C854"/>
<path fill-rule="evenodd" clip-rule="evenodd" d="M85.2078 57.9205C85.2089 60.2989 83.2819 62.2284 80.9031 62.2295C78.5247 62.2309 76.5952 60.304 76.5938 57.9252C76.5927 55.5468 78.5196 53.6173 80.8984 53.6162C83.2768 53.6147 85.2063 55.5417 85.2078 57.9205Z" fill="#D39E00"/>
<path fill-rule="evenodd" clip-rule="evenodd" d="M78.2805 60.532C78.9791 61.2298 79.9076 61.6143 80.8951 61.6143H80.8969C81.8858 61.6135 82.8147 61.2284 83.5129 60.529C84.2111 59.8297 84.5956 58.9005 84.5952 57.9123C84.5945 56.9241 84.209 55.9952 83.51 55.2966C82.8114 54.5988 81.8829 54.2144 80.8955 54.2144H80.8936C79.9047 54.2151 78.9758 54.6006 78.2776 55.2996C77.5794 55.9989 77.1949 56.9281 77.1953 57.9167C77.196 58.9049 77.5816 59.8334 78.2805 60.532ZM80.8936 54.7796H80.8954C81.732 54.7796 82.5185 55.1051 83.1102 55.6968C83.7026 56.2881 84.0292 57.0753 84.0295 57.9126C84.0303 58.75 83.7044 59.5372 83.1127 60.1296C82.5214 60.722 81.7342 61.0482 80.8969 61.0489H80.8951C79.1676 61.0489 77.7617 59.6437 77.761 57.9163C77.7602 57.079 78.0861 56.2914 78.6778 55.699C79.2691 55.1066 80.0562 54.7804 80.8936 54.7796Z" fill="#F6C854"/>
<path fill-rule="evenodd" clip-rule="evenodd" d="M102.773 67.1851C102.775 69.5639 100.848 71.493 98.4695 71.4945C96.0908 71.496 94.1616 69.5686 94.1602 67.1902C94.1587 64.8115 96.086 62.8823 98.4644 62.8809C100.843 62.8794 102.772 64.8067 102.773 67.1851Z" fill="#D39E00"/>
<path fill-rule="evenodd" clip-rule="evenodd" d="M95.8469 69.7972C96.5455 70.4954 97.474 70.8795 98.4611 70.8795H98.4633C100.503 70.8784 102.163 69.2176 102.162 67.1776C102.161 66.1894 101.775 65.2605 101.076 64.5623C100.377 63.8641 99.4486 63.48 98.4615 63.48H98.4593C97.4711 63.4803 96.5422 63.8659 95.8436 64.5652C95.1451 65.2645 94.761 66.1938 94.7617 67.1819C94.7625 68.1701 95.1476 69.099 95.8469 69.7972ZM98.4594 64.0452H98.4616C100.189 64.0452 101.595 65.4501 101.596 67.1779C101.597 68.9064 100.192 70.3131 98.4634 70.3142H98.4612C96.7338 70.3142 95.3282 68.9093 95.3275 67.1815C95.3268 66.3442 95.6519 65.557 96.2436 64.9646C96.8356 64.3722 97.6224 64.0456 98.4594 64.0452Z" fill="#F6C854"/>
<path fill-rule="evenodd" clip-rule="evenodd" d="M112.707 83.0811C112.708 85.4595 110.782 87.389 108.403 87.3905C106.024 87.392 104.095 85.4646 104.094 83.0859C104.093 80.7075 106.02 78.7783 108.398 78.7769C110.777 78.7754 112.706 80.7027 112.707 83.0811L114.598 87.8332Z" fill="#D39E00"/>
<path fill-rule="evenodd" clip-rule="evenodd" d="M104.695 83.0775C104.696 85.1168 106.356 86.775 108.395 86.775H108.397C109.385 86.7743 110.314 86.3888 111.013 85.6898C111.711 84.9905 112.095 84.0613 112.095 83.0731C112.094 81.0337 110.434 79.3755 108.395 79.3755H108.393C106.353 79.3766 104.694 81.0374 104.695 83.0775ZM108.393 79.9409H108.395C110.123 79.9409 111.529 81.3457 111.53 83.0735C111.53 83.9109 111.205 84.6981 110.613 85.2901C110.021 85.8825 109.234 86.2091 108.397 86.2095H108.395C107.559 86.2095 106.772 85.884 106.18 85.293C105.588 84.7014 105.261 83.9142 105.261 83.0772C105.26 81.3487 106.665 79.942 108.393 79.9409Z" fill="#F6C854"/>
<path fill-rule="evenodd" clip-rule="evenodd" d="M54.5384 55.2669C54.5097 55.0676 54.4189 54.8788 54.273 54.7301L54.0776 54.531L53.2962 53.7344C53.2217 53.6585 53.1616 53.5721 53.1168 53.4792L53.1009 53.5353C53.0069 53.8674 53.0979 54.2238 53.3396 54.4702L53.3397 54.4704L54.1505 55.2969C54.1501 55.2969 54.1497 55.297 54.1493 55.2971C54.3698 55.5419 54.4502 55.8831 54.36 56.202L54.3441 56.2581C54.2992 56.1652 54.2391 56.0789 54.1647 56.0029L54.2379 56.0776L53.5785 55.4055L52.9748 54.7901L52.9925 54.8081C52.918 54.7321 52.8579 54.6457 52.813 54.5528L52.7971 54.6089C52.7032 54.941 52.7942 55.2974 53.0358 55.5439L53.036 55.544L53.0614 55.57L53.622 56.1414L53.6221 56.1415L53.8174 56.3405C54.0592 56.587 54.1502 56.9435 54.0562 57.2756L54.0404 57.3318C53.9955 57.2389 53.9354 57.1525 53.8609 57.0765L53.9342 57.1512L52.8841 56.0808L52.884 56.0807C52.7881 55.9829 52.7161 55.8679 52.6698 55.744C51.9082 56.132 51.4494 56.6862 51.5712 57.1632C51.7361 57.8087 52.9022 58.0684 54.1757 57.7432C55.4492 57.418 56.3479 56.631 56.183 55.9855C56.0612 55.5086 55.3928 55.2423 54.5384 55.2669Z" fill="white"/>
</svg>
