<svg width="160" height="161" viewBox="0 0 160 161" fill="none" xmlns="http://www.w3.org/2000/svg">
<path fill-rule="evenodd" clip-rule="evenodd" d="M62.0427 37.2162C54.0185 45.7513 43.3876 51.3218 31.8667 53.4155C24.8738 54.6863 18.1827 58.0264 12.776 63.436C-1.38538 77.6043 -1.40146 100.453 12.7408 114.641C18.9795 120.899 26.9345 124.397 35.0916 125.134C42.075 125.765 48.6362 128.814 53.4812 133.887C53.5436 133.952 53.6065 134.017 53.6694 134.081C61.9346 142.519 75.3047 142.603 83.67 134.265C83.718 134.217 83.7656 134.169 83.8126 134.121C86.0473 131.852 89.2727 130.86 92.3979 131.468C110.216 134.93 129.379 129.756 143.18 115.944C165.231 93.8748 165.231 58.028 143.18 35.9582C121.11 13.8711 85.3305 13.8712 63.2619 35.9585C62.8476 36.373 62.4412 36.7923 62.0427 37.2162Z" fill="#EAF7FE"/>
<mask id="mask0_1483_87173" style="mask-type:luminance" maskUnits="userSpaceOnUse" x="37" y="61" width="52" height="62">
<path fill-rule="evenodd" clip-rule="evenodd" d="M37.8555 61.8931H88.0218V122.113H37.8555V61.8931Z" fill="white"/>
</mask>
<g mask="url(#mask0_1483_87173)">
<path fill-rule="evenodd" clip-rule="evenodd" d="M42.278 120.119L58.3033 122.113C58.3033 122.113 63.6544 112.828 63.958 112.296C74.333 114.226 87.7319 92.7988 87.9705 92.5652L88.0219 92.5209L56.8601 61.8931L54.5948 69.9288L44.8155 68.3063L41.334 76.3316L37.8555 98.0538L38.9255 103.43L42.278 120.119Z" fill="#F4A48D"/>
</g>
<path fill-rule="evenodd" clip-rule="evenodd" d="M105.471 104.128H62.1656C59.0842 104.128 56.5859 101.63 56.5859 98.5486V17.1158C56.5859 14.0343 59.0842 11.5361 62.1656 11.5361H105.471C108.552 11.5361 111.05 14.0343 111.05 17.1158V98.5486C111.05 101.63 108.552 104.128 105.471 104.128Z" fill="#2A8FEC"/>
<path fill-rule="evenodd" clip-rule="evenodd" d="M62.1689 94.6879C61.8018 94.6879 61.5039 94.389 61.5039 94.0222V19.185C61.5039 18.8186 61.8018 18.52 62.1689 18.52H105.474C105.841 18.52 106.139 18.8186 106.139 19.185V94.0222C106.139 94.389 105.841 94.6879 105.474 94.6879H62.1689Z" fill="white"/>
<path fill-rule="evenodd" clip-rule="evenodd" d="M67.1445 64.2963H96.7202V63.6787H67.1445V64.2963Z" fill="#34466B"/>
<path fill-rule="evenodd" clip-rule="evenodd" d="M67.1445 69.1974H96.7202V68.5796H67.1445V69.1974Z" fill="#34466B"/>
<path fill-rule="evenodd" clip-rule="evenodd" d="M67.1445 74.0992H96.7202V73.4814H67.1445V74.0992Z" fill="#34466B"/>
<path fill-rule="evenodd" clip-rule="evenodd" d="M67.1445 79.0014H96.7202V78.3838H67.1445V79.0014Z" fill="#34466B"/>
<path fill-rule="evenodd" clip-rule="evenodd" d="M67.1445 83.9013H96.7202V83.2837H67.1445V83.9013Z" fill="#34466B"/>
<path fill-rule="evenodd" clip-rule="evenodd" d="M67.1445 88.8036H96.7202V88.186H67.1445V88.8036Z" fill="#34466B"/>
<path fill-rule="evenodd" clip-rule="evenodd" d="M89.8102 99.3766C89.8102 100.243 89.1074 100.946 88.2406 100.946H79.4017C78.5349 100.946 77.832 100.243 77.832 99.3766C77.832 98.5095 78.5349 97.8066 79.4017 97.8066H88.2406C89.1074 97.8066 89.8102 98.5095 89.8102 99.3766Z" fill="white"/>
<path fill-rule="evenodd" clip-rule="evenodd" d="M35.8546 101.373C37.0078 99.3069 37.7903 97.8212 37.7792 97.7769C34.2653 88.284 40.5164 75.0508 41.3328 73.6976L43.9 69.4201C43.9 69.4201 45.3996 66.3712 46.18 62.6576C47.0585 58.4019 48.0882 54.1858 48.7671 49.8865C49.2021 47.2179 51.636 45.3119 54.3217 45.6329L54.4214 45.6544C56.0082 45.8469 57.3289 46.8447 58.0392 48.2176C58.5296 49.159 58.3921 50.2779 58.5467 51.4458C58.7135 52.7047 56.82 62.9762 54.5196 69.8401C54.176 70.7133 54.8325 71.1233 55.235 72.404C58.9896 84.3522 58.557 104.961 46.41 107.646C45.785 107.784 42.3346 119.808 42.2017 119.842L29.5703 112.01C31.4614 109.144 34.0907 104.552 35.8546 101.373Z" fill="#FFC4B8"/>
<path fill-rule="evenodd" clip-rule="evenodd" d="M53.8042 130.489L26.1445 112.546L35.2113 99.377L62.1599 117.295L53.8042 130.489Z" fill="white"/>
<path d="M57.2213 128.459L37.8571 160.107L0 153.322L27.1606 107.944L28.6252 108.944L55.732 127.44L57.2213 128.459Z" fill="#34466B"/>
<path fill-rule="evenodd" clip-rule="evenodd" d="M43.7499 139.213C44.7435 139.464 45.3449 140.474 45.0931 141.468C44.8414 142.462 43.8317 143.063 42.8381 142.811C41.8446 142.559 41.2428 141.55 41.4949 140.556C41.7464 139.562 42.7564 138.961 43.7499 139.213Z" fill="white"/>
<path fill-rule="evenodd" clip-rule="evenodd" d="M47.0002 134.15C47.9937 134.401 48.5952 135.411 48.3434 136.405C48.0916 137.399 47.0819 138 46.0884 137.748C45.0944 137.496 44.493 136.487 44.7448 135.493C44.9969 134.499 46.0066 133.898 47.0002 134.15Z" fill="white"/>
<path fill-rule="evenodd" clip-rule="evenodd" d="M72.2812 55.1289H76.5295V43.6396H72.2812V55.1289Z" fill="#34466B"/>
<path fill-rule="evenodd" clip-rule="evenodd" d="M90.3086 55.1289H94.5565V43.6396H90.3086V55.1289Z" fill="#34466B"/>
<path fill-rule="evenodd" clip-rule="evenodd" d="M96.3164 55.1291H100.565V36.8931H96.3164V55.1291Z" fill="#34466B"/>
<path fill-rule="evenodd" clip-rule="evenodd" d="M66.7852 55.379H71.0334V51.5122H66.7852V55.379Z" fill="#34466B"/>
<path fill-rule="evenodd" clip-rule="evenodd" d="M78.293 55.1293H82.5412V48.8286H78.293V55.1293Z" fill="#34466B"/>
<path fill-rule="evenodd" clip-rule="evenodd" d="M84.3008 55.129H88.549V47.3818H84.3008V55.129Z" fill="#34466B"/>
<path fill-rule="evenodd" clip-rule="evenodd" d="M50.2226 129.129C51.2162 129.38 51.8176 130.39 51.5658 131.384C51.314 132.378 50.3044 132.979 49.3105 132.727C48.3169 132.475 47.7155 131.466 47.9676 130.472C48.2194 129.478 49.2287 128.877 50.2226 129.129Z" fill="white"/>
<path fill-rule="evenodd" clip-rule="evenodd" d="M117.042 111.981C117.011 112.001 116.98 112.02 116.949 112.041C114.398 113.676 111.119 112.625 109.561 109.869C103.459 99.3504 96.4392 89.8572 88.7688 81.4708C86.7988 79.2615 86.8913 75.9072 88.9913 73.7993C89.0174 73.774 89.0431 73.7483 89.0685 73.7229C91.1671 71.619 94.5885 71.6572 96.6924 73.9875C104.792 82.7618 112.211 92.6729 118.681 103.636C120.355 106.532 119.591 110.348 117.042 111.981Z" fill="#F4A48D"/>
<path fill-rule="evenodd" clip-rule="evenodd" d="M108.404 89.4497L108.306 89.474C105.639 90.1419 102.935 88.5204 102.268 85.8537L92.49 46.7887C91.8225 44.1215 93.4432 41.4179 96.1107 40.7504L96.2089 40.7258C98.8753 40.0583 101.579 41.6794 102.247 44.3465L112.025 83.4115C112.692 86.0787 111.071 88.7822 108.404 89.4497Z" fill="#FFC4B8"/>
<path fill-rule="evenodd" clip-rule="evenodd" d="M118.161 87.0078L118.063 87.0321C115.396 87.6996 112.692 86.0782 112.025 83.4114L107.521 65.4185C106.854 62.7514 108.474 60.0478 111.142 59.3803L111.239 59.3557C113.907 58.6882 116.61 60.3096 117.278 62.9767L121.781 80.9692C122.449 83.6367 120.828 86.3399 118.161 87.0078Z" fill="#FFC4B8"/>
<path fill-rule="evenodd" clip-rule="evenodd" d="M127.917 84.5657L127.819 84.5904C125.152 85.2575 122.448 83.6364 121.781 80.9693L118.006 65.8868C117.338 63.2193 118.959 60.5161 121.627 59.8486L121.724 59.8239C124.391 59.1564 127.094 60.7775 127.762 63.4447L131.537 78.5275C132.205 81.1947 130.584 83.8982 127.917 84.5657Z" fill="#FFC4B8"/>
<path fill-rule="evenodd" clip-rule="evenodd" d="M137.123 82.2617L137.037 82.2835C134.668 82.8763 132.266 81.4367 131.674 79.0678L128.321 65.6721C127.728 63.3031 129.168 60.9021 131.536 60.3092L131.623 60.2878C133.992 59.6946 136.393 61.1342 136.986 63.5031L140.339 76.8988C140.932 79.2678 139.493 81.6688 137.123 82.2617Z" fill="#FFC4B8"/>
<path fill-rule="evenodd" clip-rule="evenodd" d="M64.3098 36.7091C64.2534 36.588 64.297 36.4394 64.4073 36.3773L70.3234 33.0462L72.7809 34.1644L74.3427 33.0476L75.2463 33.3576L80.2831 30.038L82.8838 32.0616L93.8216 28.6787L96.8281 30.0855H103.839C103.964 30.0855 104.064 30.1959 104.064 30.3323C104.064 30.4684 103.964 30.5787 103.839 30.5787L96.6945 30.5591L93.7906 29.2005L82.7991 32.6005L80.2627 30.6266L75.3045 33.8944L74.4109 33.5876L72.8277 34.7198L70.3438 33.5891L64.6123 36.8162C64.5795 36.8348 64.5445 36.8434 64.5098 36.8434C64.4284 36.8434 64.3498 36.7944 64.3098 36.7091Z" fill="#34466B"/>
<path fill-rule="evenodd" clip-rule="evenodd" d="M146.899 124.661L142.562 107.33C145.012 103.946 146.009 99.5447 144.914 95.1744L142.447 85.3151L140.284 76.6729C139.691 74.3036 137.29 72.864 134.921 73.4572L134.834 73.4786C132.465 74.0719 131.026 76.4726 131.619 78.8419L131.225 77.2708C130.558 74.6033 127.854 72.9819 125.187 73.6494L125.09 73.674C122.423 74.3415 120.802 77.0454 121.469 79.7126L121.105 78.2576C120.437 75.5901 117.734 73.969 115.066 74.6365L114.969 74.6608C112.302 75.3286 110.681 78.0319 111.348 80.6994C110.681 78.0319 107.977 76.4111 105.31 77.0786L105.212 77.1029C102.545 77.7708 100.924 80.474 101.592 83.1415L104.512 94.8097L106.98 104.669C108.012 108.792 110.699 112.064 114.154 113.958L118.605 131.743L146.899 124.661Z" fill="#FFC4B8"/>
<path fill-rule="evenodd" clip-rule="evenodd" d="M149.491 127.321L117.471 135.177L114.09 119.549L145.604 112.195L149.491 127.321Z" fill="white"/>
<mask id="mask1_1483_87173" style="mask-type:luminance" maskUnits="userSpaceOnUse" x="114" y="123" width="45" height="31">
<path fill-rule="evenodd" clip-rule="evenodd" d="M114.816 123.44H158.252V153.369H114.816V123.44Z" fill="white"/>
</mask>
<g mask="url(#mask1_1483_87173)">
<path d="M158.252 153.369H120.523L114.816 131.283L116.541 130.905H116.545L118.295 130.519L129.641 128.012L146.787 124.23L148.595 123.83L150.352 123.44L158.252 153.369Z" fill="#34466B"/>
</g>
<path fill-rule="evenodd" clip-rule="evenodd" d="M148.956 140.623C149.82 140.072 150.968 140.325 151.519 141.19C152.07 142.054 151.817 143.202 150.953 143.753C150.088 144.304 148.941 144.05 148.389 143.186C147.838 142.322 148.092 141.174 148.956 140.623Z" fill="white"/>
<path fill-rule="evenodd" clip-rule="evenodd" d="M147.495 134.787C148.359 134.236 149.507 134.489 150.058 135.353C150.609 136.218 150.356 137.365 149.492 137.916C148.627 138.468 147.48 138.214 146.928 137.35C146.377 136.486 146.63 135.338 147.495 134.787Z" fill="white"/>
<path fill-rule="evenodd" clip-rule="evenodd" d="M146.05 128.998C146.914 128.447 148.061 128.7 148.613 129.565C149.164 130.429 148.911 131.576 148.046 132.128C147.182 132.679 146.034 132.425 145.483 131.561C144.932 130.697 145.185 129.55 146.05 128.998L151.788 134.75Z" fill="white"/>
<path d="M105.171 102.726C104.394 101.529 103.605 100.347 102.805 99.1787C102.805 99.1787 103.43 100.626 105.171 102.726Z" fill="black"/>
<path d="M144.518 114.904L146.202 114.511L145.607 112.195L143.938 112.584L144.518 114.904Z" fill="white"/>
</svg>
