<svg width="160" height="160" viewBox="0 0 160 160" fill="none" xmlns="http://www.w3.org/2000/svg">
<path fill-rule="evenodd" clip-rule="evenodd" d="M99.1795 129.286C107.327 120.62 118.122 114.963 129.82 112.838C136.921 111.547 143.715 108.156 149.205 102.663C163.584 88.2763 163.601 65.0759 149.241 50.6695C142.906 44.3146 134.828 40.7635 126.546 40.0152C119.455 39.3744 112.792 36.2784 107.873 31.1274C107.809 31.061 107.746 30.9952 107.682 30.9299C99.2892 22.3617 85.7133 22.277 77.2191 30.7433C77.1704 30.7916 77.1221 30.8403 77.0743 30.8891C74.8053 33.1937 71.5302 34.2001 68.3568 33.5835C50.264 30.0674 30.8065 35.3212 16.7932 49.3458C-5.59775 71.7552 -5.59775 108.154 16.7932 130.564C39.2022 152.991 75.5331 152.991 97.9415 130.563C98.3622 130.142 98.7749 129.717 99.1795 129.286Z" fill="#EAF7FE"/>
<path d="M91.9023 49.7112L92.0854 51.1758L94.4653 49.4071C93.6136 49.2767 92.7281 49.4183 91.9023 49.7112Z" fill="#FFC4B8"/>
<path d="M91.9031 49.7114C91.6029 49.8261 91.2679 49.9026 90.9878 50.0776L90.8047 52.2744L92.2692 51.0189L91.9031 49.7114Z" fill="#F4A48D"/>
<path fill-rule="evenodd" clip-rule="evenodd" d="M43.4098 159.551L74.1506 135.255L75.4252 131.394L35.996 118.178L22.3359 159.551H43.4098Z" fill="#34466B"/>
<path fill-rule="evenodd" clip-rule="evenodd" d="M45.2319 96.4582L45.3738 95.0698L45.2429 97.3885C45.2063 97.0853 45.1995 96.7749 45.2319 96.4582ZM65.2818 109.021L61.055 108.365C60.3668 108.258 59.7581 107.902 59.3284 107.383L58.8731 100.039L58.8553 99.7554C58.3832 92.1377 56.1086 84.7489 52.2319 78.1929L51.9959 53.9056C51.9906 53.4303 51.8907 52.9785 51.7148 52.567C51.3663 51.7519 50.7167 51.0991 49.9076 50.742C49.4669 50.5478 48.9802 50.4389 48.4667 50.4435L45.5668 50.5117C43.6366 50.53 42.0874 52.1105 42.1057 54.0412L39.3594 88.1555C39.3887 91.161 42.4396 105.97 44.1191 108.293L73.2424 117.08C77.6251 115.677 81.2553 112.17 82.5836 107.372L83.1122 105.465L83.0698 105.617L80.9266 106.661C76.0744 109.025 70.6156 109.849 65.2818 109.021Z" fill="#FFC4B8"/>
<path fill-rule="evenodd" clip-rule="evenodd" d="M58.9496 102.068C58.6626 105.259 58.6626 107.029 58.9496 107.377C59.3802 107.9 60.3199 108.306 61.0095 108.414L65.2445 109.075C70.5887 109.91 76.0582 109.08 80.9199 106.696L83.0673 105.642L83.1098 105.489L83.4805 104.142C82.889 104.368 82.2393 104.467 81.567 104.398L58.9496 102.068Z" fill="#F4A48D"/>
<path fill-rule="evenodd" clip-rule="evenodd" d="M51.6042 52.3065L53.7733 31.1852C54.0329 28.6561 56.3009 26.8159 58.8395 27.0745L63.6057 27.56C64.4218 27.6429 65.1242 28.1696 65.4309 28.9278L65.9114 30.1152C66.2276 30.8968 66.9525 31.4397 67.7942 31.5257L76.9566 32.4591C77.7978 32.5452 78.618 32.1598 79.0869 31.4579L79.7988 30.3915C80.2531 29.7116 81.0482 29.3377 81.8637 29.4211L86.6299 29.9066C89.1685 30.1652 91.0162 32.4252 90.7566 34.9538L88.7901 54.1051L90.9722 52.268L92.9785 32.7293C93.2135 30.4395 91.5412 28.3933 89.2429 28.1592L56.6359 24.8364C54.3375 24.6023 52.2842 26.2683 52.0492 28.5581L49.7969 50.4887C50.6061 50.8444 51.2556 51.4946 51.6042 52.3065Z" fill="#2A8FEC"/>
<path fill-rule="evenodd" clip-rule="evenodd" d="M84.4052 96.2293L84.2371 97.8692C83.9761 100.409 81.6995 102.257 79.1524 101.997L58.582 99.8996L58.7086 101.934L81.3639 104.244C82.0373 104.312 82.6881 104.214 83.2806 103.99C84.7167 103.445 85.8004 102.135 85.9669 100.507L86.4081 96.2104L84.4052 96.2293Z" fill="#2A8FEC"/>
<path fill-rule="evenodd" clip-rule="evenodd" d="M90.7769 34.9186C91.0365 32.3888 89.1888 30.1277 86.6503 29.8689L81.8841 29.3832C81.0686 29.2997 80.2735 29.6738 79.8192 30.3541L79.1074 31.421C78.6384 32.1233 77.8182 32.5088 76.9771 32.4227L67.8147 31.4889C66.9731 31.4028 66.2481 30.8597 65.932 30.0776L65.4515 28.8897C65.1448 28.1311 64.4424 27.6042 63.6264 27.5212L58.8601 27.0355C56.3216 26.7767 54.0536 28.6179 53.794 31.1482L51.625 52.2798C51.8009 52.6898 51.9008 53.1401 51.9061 53.6138L52.1421 77.8178C56.0191 84.3512 58.2938 91.7148 58.7665 99.3062L58.7837 99.5885L79.2811 101.678C81.8197 101.937 84.0882 100.096 84.3478 97.5653L84.5153 95.9313L83.6145 95.9401C80.8383 95.9673 78.5667 93.7463 78.5395 90.9791L78.5248 89.5001C78.5007 87.0391 80.2615 84.9773 82.6032 84.5318C80.7744 83.7967 79.4753 82.0202 79.4549 79.9323L79.4408 78.4527C79.4287 77.27 79.8307 76.1801 80.5101 75.3162C79.7826 75.1711 79.1487 74.7647 78.8085 74.194C77.9265 73.9926 77.1817 73.2987 76.9964 72.3246L75.7659 65.8595L62.0127 72.8724C60.3691 73.7103 58.219 73.4307 56.9251 72.2266C56.7372 72.0867 56.5592 71.9276 56.3959 71.7492C55.0298 70.2571 55.0947 67.9553 56.5419 66.5419L76.4767 47.0741C77.8328 45.7495 80.1233 46.4642 80.4798 48.3231L81.0074 51.0736C82.038 51.2087 82.9628 51.8567 83.1465 52.8323L84.1217 58.028L88.8104 54.0792L90.7769 34.9186Z" fill="white"/>
<path fill-rule="evenodd" clip-rule="evenodd" d="M37.3526 118.626L74.7771 131.069L78.7163 117.731L75.6068 116.696L41.2914 105.288L37.3526 118.626Z" fill="white"/>
<path fill-rule="evenodd" clip-rule="evenodd" d="M74.1442 135.204L42.8398 159.551H65.5696L74.1442 135.204Z" fill="#34466B"/>
<path fill-rule="evenodd" clip-rule="evenodd" d="M91.405 73.4786C92.0958 73.4717 92.7544 73.6143 93.3525 73.8761C95.3813 73.5414 97.1748 71.9201 97.5778 69.8486L90.3056 72.4272L89.3398 73.4994L91.405 73.4786Z" fill="#F4A48D"/>
<path fill-rule="evenodd" clip-rule="evenodd" d="M89.3852 73.4697L90.3818 72.4116L81.8711 75.372C81.367 75.5338 80.8439 75.5495 80.3599 75.4529C79.674 76.3224 79.2682 77.4193 79.2804 78.6097L79.2947 80.0989C79.3153 82.2002 80.6267 83.9881 82.4729 84.728C80.1089 85.1764 78.3314 87.2515 78.3557 89.7284L78.3705 91.217C78.398 94.002 80.6912 96.2373 83.4937 96.21L84.4031 96.2011L86.4178 96.1816L87.7082 96.169L95.4342 87.9625C94.9539 86.5815 93.8882 85.4747 92.5344 84.9317C91.9347 84.6912 91.279 84.561 90.5921 84.5673L87.7694 84.5946L95.9298 75.9265C95.3766 74.9987 94.5333 74.2631 93.5257 73.8414C92.9085 73.5831 92.229 73.4424 91.5162 73.4492L89.3852 73.4697Z" fill="#FFC4B8"/>
<path fill-rule="evenodd" clip-rule="evenodd" d="M90.6205 84.6773C91.3004 84.6707 91.858 84.8088 92.4511 85.0435C94.7908 84.6069 96.6855 82.3984 96.6614 79.9811L96.6473 78.528C96.6379 77.6303 96.3647 76.6105 95.9294 75.8901L87.6914 84.6773H90.6205Z" fill="#F4A48D"/>
<path fill-rule="evenodd" clip-rule="evenodd" d="M95.5624 91.185L95.5487 89.7234C95.545 89.3569 95.4886 88.7731 95.3796 87.9722C91.8806 91.6946 89.3177 94.4406 87.6908 96.2102C87.6721 96.2306 87.7331 96.2306 87.8739 96.2102L90.7465 96.1813C93.4323 96.155 95.5888 93.9179 95.5624 91.185Z" fill="#F4A48D"/>
<path fill-rule="evenodd" clip-rule="evenodd" d="M62.2583 73.0413L76.1561 66.2192L75.5706 63.2583L61.5437 72.4977C60.1807 73.395 58.3998 73.3326 57.1172 72.413C58.4247 73.5843 60.5975 73.8563 62.2583 73.0413Z" fill="white"/>
<path d="M80.7518 75.707C81.4999 74.6745 82.5923 73.9475 83.8457 73.7313C83.5013 73.5749 83.177 73.3775 82.8777 73.144L80.5555 74.3579C80.0698 74.5941 79.5579 74.6307 79.0859 74.5142C79.419 75.1209 80.0395 75.5528 80.7518 75.707Z" fill="white"/>
<path fill-rule="evenodd" clip-rule="evenodd" d="M83.2971 52.8938C83.1243 51.9408 82.2545 51.3078 81.2852 51.1758L82.7723 59.2307L84.2142 57.9693L83.2971 52.8938Z" fill="white"/>
<path fill-rule="evenodd" clip-rule="evenodd" d="M97.4743 65.8213L95.5668 66.7131L89.7031 72.7778L97.575 69.8487C97.6507 69.4889 97.7621 68.9493 97.758 68.5673L97.7423 67.3973C97.7365 66.8464 97.6413 66.3183 97.4743 65.8213Z" fill="#F4A48D"/>
<path fill-rule="evenodd" clip-rule="evenodd" d="M80.1836 75.6476C80.6662 75.7437 81.1879 75.728 81.6905 75.5672L90.1773 72.6229L95.5612 66.9199L82.3697 73.2339C82.6774 73.4538 83.0109 73.6397 83.365 73.7869C82.0762 73.9906 80.9529 74.6752 80.1836 75.6476Z" fill="#FFC4B8"/>
<path fill-rule="evenodd" clip-rule="evenodd" d="M134.532 41.8471L136.453 37.1638C136.797 36.3249 136.337 35.3718 135.466 35.1231L104.762 26.34C103.502 25.9791 102.41 27.2831 102.982 28.4656L107.786 38.4055L84.2873 58.3209L82.7587 59.617L80.6553 48.5795C80.2998 46.7136 78.0152 45.9962 76.6625 47.3258L56.7789 66.8668C55.3354 68.2854 55.2707 70.5959 56.6333 72.0936C56.7962 72.2727 56.9737 72.4324 57.1611 72.5728C58.4271 73.5217 60.1849 73.5861 61.5303 72.6602L75.3756 63.1267L77.1809 72.6712C77.3657 73.6489 78.1086 74.3454 78.9883 74.5476C79.4692 74.6581 79.9907 74.623 80.4856 74.3999L95.9222 66.9218L97.6576 66.0808L116.701 56.8546L121.54 66.8679C122.005 67.8288 123.212 67.9744 123.916 67.3433C124.078 67.1978 124.213 67.0108 124.307 66.783L134.532 41.8471Z" fill="#34466B"/>
<path fill-rule="evenodd" clip-rule="evenodd" d="M36.7016 136.971C37.7521 136.942 38.6267 137.771 38.6549 138.822C38.6828 139.872 37.8541 140.747 36.804 140.775C35.7533 140.803 34.8789 139.974 34.8503 138.924C34.8222 137.873 35.6511 136.999 36.7016 136.971Z" fill="white"/>
<path fill-rule="evenodd" clip-rule="evenodd" d="M38.4989 131.071C39.549 131.043 40.4237 131.871 40.4517 132.922C40.4799 133.973 39.6512 134.847 38.6008 134.875C37.5498 134.903 36.6756 134.074 36.6474 133.024C36.6192 131.973 37.4479 131.099 38.4989 131.071Z" fill="white"/>
<path fill-rule="evenodd" clip-rule="evenodd" d="M40.2839 125.219C41.3343 125.19 42.2087 126.019 42.2369 127.07C42.2652 128.12 41.4365 128.995 40.3856 129.023C39.3352 129.051 38.4609 128.222 38.4327 127.172C38.4043 126.121 39.233 125.247 40.2839 125.219L42.2891 133.303Z" fill="white"/>
</svg>
