<svg width="156" height="160" viewBox="0 0 156 160" fill="none" xmlns="http://www.w3.org/2000/svg">
<ellipse cx="43.8792" cy="101.779" rx="37.8519" ry="21.9396" fill="#CCCCCC"/>
<path fill-rule="evenodd" clip-rule="evenodd" d="M87.7587 91.5011L116.946 96.9151C118.641 95.0209 120.138 92.9574 121.411 90.7572C123.894 86.6425 122.1 81.942 122.1 81.942L109.481 72.4189L87.7587 91.5011Z" fill="#FFC4B8"/>
<path fill-rule="evenodd" clip-rule="evenodd" d="M109.053 65.2787C107.47 62.2549 104.376 58.7566 103.704 56.8655C103.032 54.9744 100.459 49.5039 100.459 49.5039C100.459 49.5039 96.8195 51.1188 96.9159 54.3104C97.0124 57.502 99.0376 65.2787 99.0376 65.2787L112.59 73.0169C112.59 73.0169 110.638 68.3026 109.053 65.2787Z" fill="#FFC4B8"/>
<path fill-rule="evenodd" clip-rule="evenodd" d="M114.751 74.6214L77.082 52.6663C77.082 52.6663 75.1533 51.6272 73.4535 52.2492C71.7538 52.8712 52.6523 61.5338 52.6523 61.5338V63.8835L94.6723 90.4975C95.8094 90.7991 96.9822 90.9451 98.1585 90.9314C99.7758 90.8485 114.252 77.7397 114.252 77.7397L114.751 74.6214Z" fill="#767676"/>
<path fill-rule="evenodd" clip-rule="evenodd" d="M54.6917 61.0273C54.6917 61.0273 53.399 61.3485 54.6917 62.0491C62.4338 66.2441 89.7648 85.5645 91.546 85.1542C93.6006 84.6812 108.946 72.8472 108.946 72.8472L56.0814 60.4463L54.6917 61.0273Z" fill="#CCCCCC"/>
<path fill-rule="evenodd" clip-rule="evenodd" d="M79.5153 54.2142L91.2981 60.7286L65.8867 55.8811C65.8867 55.8811 72.6432 52.9171 72.7685 52.7864C74.0984 52.2488 74.4181 52.3144 74.9302 52.3119C76.437 52.3052 79.5153 54.2142 79.5153 54.2142Z" fill="white"/>
<ellipse cx="104.876" cy="80.5644" rx="2.41095" ry="2.16985" fill="#444444"/>
<path fill-rule="evenodd" clip-rule="evenodd" d="M63.5563 70.5605C63.5563 70.5605 58.3843 69.8064 58.6379 71.8928C58.8916 73.9792 60.856 75.6867 60.856 75.6867C60.856 75.6867 67.8786 76.9346 69.3676 76.8203C70.1199 76.7447 70.8778 76.7447 71.6301 76.8203C71.6301 76.8203 69.5648 73.458 67.5459 71.8928C66.4237 70.9757 65.0043 70.5017 63.5563 70.5605Z" fill="#FFC4B8"/>
<path fill-rule="evenodd" clip-rule="evenodd" d="M65.2492 76.5219C65.2492 76.5219 63.9295 78.44 68.4587 80.606C69.7813 81.2396 78.2389 86.4979 78.4077 86.5476C78.3253 86.7607 82.9037 89.8202 86.2062 91.3131C90.787 93.3865 101.664 94.1638 101.664 94.1638L94.955 90.8415L73.7903 77.4077L70.1087 74.9297L65.2492 76.5219Z" fill="#FFC4B8"/>
<path fill-rule="evenodd" clip-rule="evenodd" d="M126.556 77.7109C126.556 77.7109 116.698 83.0705 114.344 87.1619C111.99 91.2532 108.516 99.2745 108.516 99.2745L142.138 119.728C145.388 116.88 148.152 113.523 150.323 109.787C152.53 105.617 154.429 101.292 156.005 96.8452L126.556 77.7109Z" fill="#F6C854"/>
<path fill-rule="evenodd" clip-rule="evenodd" d="M108.301 99.2442L109.344 97.0068L146.55 115.374L142.224 119.942L108.301 99.2442Z" fill="#D39E00"/>
<path fill-rule="evenodd" clip-rule="evenodd" d="M21.5517 86.6328L57.3934 115.46L56.0008 119.68L55.7057 119.934L17.2752 97.0466L16.7264 96.318L16.5302 95.3262L14.5508 78.1641H20.9157L21.5517 86.6328Z" fill="#444444"/>
<path fill-rule="evenodd" clip-rule="evenodd" d="M14.5508 78.1648L38.1299 68.2471H41.1947V75.2162L76.342 99.9462L57.3389 115.444L21.0097 86.4131L19.8939 78.1652L14.5508 78.1648Z" fill="#34466B"/>
<path d="M24.6761 84.3642L40.5402 76.3773C40.5402 76.3773 43.2404 74.4229 41.5561 71.3519C39.8718 68.2808 38.0733 69.3672 38.0733 69.3672L20.2188 77.5644C20.2188 77.5644 23.2787 76.4978 24.6771 79.0828C26.0754 81.6678 24.6761 84.3642 24.6761 84.3642Z" fill="#767676" stroke="#767676" stroke-width="2.02993"/>
<path d="M20.3867 77.4488L23.9154 84.6078C23.9154 84.6078 26.3504 82.7476 24.8716 79.228C23.3927 75.7085 20.3867 77.4488 20.3867 77.4488Z" fill="#767676" stroke="#767676" stroke-width="2.02993"/>
<path d="M57.3569 115.431L56.0039 119.657L74.6647 103.525L76.3244 99.9424L57.3569 115.431Z" fill="black"/>
<path fill-rule="evenodd" clip-rule="evenodd" d="M41.827 77.9941L26.5859 86.5236L40.9697 98.1584L56.3684 87.8877L41.827 77.9941Z" fill="white"/>
<path fill-rule="evenodd" clip-rule="evenodd" d="M45.838 98.5837C45.838 98.5837 47.843 97.0021 48.7794 97.845C49.7158 98.6879 47.5334 100.673 47.5334 100.673C47.5334 100.673 45.0848 102.746 44.0394 101.724C42.9941 100.701 45.838 98.5837 45.838 98.5837Z" fill="#767676"/>
<path fill-rule="evenodd" clip-rule="evenodd" d="M51.295 94.6843C51.295 94.6843 53.3 93.1027 54.2364 93.9456C55.1728 94.7885 52.9904 96.7736 52.9904 96.7736C52.9904 96.7736 50.5419 98.8471 49.4965 97.8243C48.4511 96.8016 51.295 94.6843 51.295 94.6843Z" fill="#767676"/>
<path fill-rule="evenodd" clip-rule="evenodd" d="M56.7599 90.7849C56.7599 90.7849 58.7648 89.2033 59.7013 90.0462C60.6377 90.889 58.4553 92.8742 58.4553 92.8742C58.4553 92.8742 56.0067 94.9476 54.9613 93.9249C53.9159 92.9022 56.7599 90.7849 56.7599 90.7849Z" fill="#767676"/>
<path fill-rule="evenodd" clip-rule="evenodd" d="M48.9552 100.921C48.9552 100.921 50.9602 99.3391 51.8966 100.182C52.833 101.025 50.6506 103.01 50.6506 103.01C50.6506 103.01 48.202 105.083 47.1566 104.061C46.1112 103.038 48.9552 100.921 48.9552 100.921Z" fill="#767676"/>
<path fill-rule="evenodd" clip-rule="evenodd" d="M54.42 97.0232C54.42 97.0232 56.425 95.4416 57.3614 96.2845C58.2978 97.1273 56.1154 99.1125 56.1154 99.1125C56.1154 99.1125 53.6669 101.186 52.6215 100.163C51.5761 99.1405 54.42 97.0232 54.42 97.0232Z" fill="#767676"/>
<path fill-rule="evenodd" clip-rule="evenodd" d="M59.8732 93.1257C59.8732 93.1257 61.8781 91.5441 62.8145 92.387C63.7509 93.2299 61.5686 95.215 61.5686 95.215C61.5686 95.215 59.12 97.2885 58.0746 96.2657C57.0292 95.243 59.8732 93.1257 59.8732 93.1257Z" fill="#767676"/>
<path fill-rule="evenodd" clip-rule="evenodd" d="M52.0802 103.26C52.0802 103.26 54.0852 101.678 55.0216 102.521C55.958 103.364 53.7756 105.349 53.7756 105.349C53.7756 105.349 51.327 107.422 50.2816 106.4C49.2362 105.377 52.0802 103.26 52.0802 103.26Z" fill="#767676"/>
<path fill-rule="evenodd" clip-rule="evenodd" d="M57.5333 99.363C57.5333 99.363 59.5383 97.7814 60.4747 98.6243C61.4111 99.4672 59.2287 101.452 59.2287 101.452C59.2287 101.452 56.7801 103.526 55.7348 102.503C54.6894 101.48 57.5333 99.363 57.5333 99.363Z" fill="#767676"/>
<path fill-rule="evenodd" clip-rule="evenodd" d="M62.9904 95.4636C62.9904 95.4636 64.9953 93.882 65.9317 94.7249C66.8681 95.5678 64.6857 97.5529 64.6857 97.5529C64.6857 97.5529 62.2372 99.6264 61.1918 98.6036C60.1464 97.5809 62.9904 95.4636 62.9904 95.4636Z" fill="#767676"/>
<path fill-rule="evenodd" clip-rule="evenodd" d="M55.1974 105.597C55.1974 105.597 57.2023 104.016 58.1388 104.859C59.0752 105.702 56.8928 107.687 56.8928 107.687C56.8928 107.687 54.4442 109.76 53.3988 108.737C52.3534 107.715 55.1974 105.597 55.1974 105.597Z" fill="#767676"/>
<path fill-rule="evenodd" clip-rule="evenodd" d="M60.6505 101.7C60.6505 101.7 62.6555 100.118 63.5919 100.961C64.5283 101.804 62.3459 103.789 62.3459 103.789C62.3459 103.789 59.8973 105.863 58.8519 104.84C57.8066 103.817 60.6505 101.7 60.6505 101.7Z" fill="#767676"/>
<path fill-rule="evenodd" clip-rule="evenodd" d="M66.1075 97.8025C66.1075 97.8025 68.1125 96.2209 69.0489 97.0638C69.9853 97.9066 67.8029 99.8918 67.8029 99.8918C67.8029 99.8918 65.3544 101.965 64.309 100.942C63.2636 99.9198 66.1075 97.8025 66.1075 97.8025Z" fill="#767676"/>
<path fill-rule="evenodd" clip-rule="evenodd" d="M58.3107 107.936C58.3107 107.936 60.3156 106.355 61.252 107.198C62.1884 108.04 60.0061 110.026 60.0061 110.026C60.0061 110.026 57.5575 112.099 56.5121 111.076C55.4667 110.054 58.3107 107.936 58.3107 107.936Z" fill="#2A8FEC"/>
<path fill-rule="evenodd" clip-rule="evenodd" d="M63.7677 104.039C63.7677 104.039 65.7727 102.457 66.7091 103.3C67.6455 104.143 65.4631 106.128 65.4631 106.128C65.4631 106.128 63.0145 108.202 61.9691 107.179C60.9237 106.156 63.7677 104.039 63.7677 104.039Z" fill="#F6C854"/>
<path fill-rule="evenodd" clip-rule="evenodd" d="M69.2325 100.141C69.2325 100.141 71.2375 98.5598 72.1739 99.4026C73.1103 100.245 70.9279 102.231 70.9279 102.231C70.9279 102.231 68.4794 104.304 67.434 103.281C66.3886 102.259 69.2325 100.141 69.2325 100.141Z" fill="#8AD7C4"/>
<path fill-rule="evenodd" clip-rule="evenodd" d="M26.8174 82.8398C26.8174 82.8398 28.1194 79.584 24.6191 75.1512C22.3311 72.3918 19.3394 70.3023 15.9609 69.1041L29.6146 63.043C29.6146 63.043 35.289 65.6434 37.5153 69.1041C38.8709 71.2491 39.7618 73.6543 40.1307 76.1648L26.8174 82.8398Z" fill="white"/>
<path fill-rule="evenodd" clip-rule="evenodd" d="M26.59 78.6662C27.5211 81.27 26.7675 82.8959 26.7675 82.8959L40.1507 76.1776L40.0426 75.5859C40.0426 75.5859 31.9182 79.8292 29.0487 79.4136C26.1792 78.9979 25.6589 76.0619 26.59 78.6662Z" fill="#CCCCCC"/>
<path fill-rule="evenodd" clip-rule="evenodd" d="M27.3867 86.6611L40.9845 97.6917L55.5162 88.1844L27.3867 86.6611Z" fill="#CCCCCC"/>
<path d="M26.7305 83.0033L40.2192 76.1523" stroke="#767676" stroke-width="1.01496"/>
<path fill-rule="evenodd" clip-rule="evenodd" d="M28.3711 55.3223L31.1706 51.9144L34.5785 54.7139L31.779 58.1218L28.3711 55.3223Z" fill="#9BC3D3"/>
<path fill-rule="evenodd" clip-rule="evenodd" d="M12.299 54.8751C12.299 57.0492 10.5365 58.8117 8.36238 58.8117C6.18826 58.8117 4.42578 57.0492 4.42578 54.8751C4.42578 52.701 6.18826 50.9385 8.36238 50.9385C10.5365 50.9385 12.299 52.701 12.299 54.8751Z" fill="#F6C854"/>
<rect x="3.77344" y="67.373" width="3.33193" height="3.33193" fill="#2A8FEC"/>
<path fill-rule="evenodd" clip-rule="evenodd" d="M0 35.7676L3.68797 31.2789L8.17665 34.9669L4.48869 39.4555L0 35.7676Z" fill="#1BB3BC"/>
</svg>
