<svg width="160" height="160" viewBox="0 0 160 160" fill="none" xmlns="http://www.w3.org/2000/svg">
<ellipse cx="45.0022" cy="105.308" rx="38.8225" ry="22.5022" fill="#CCCCCC"/>
<path fill-rule="evenodd" clip-rule="evenodd" d="M90.0089 94.7646L119.944 100.317C121.683 98.3747 123.218 96.2583 124.524 94.0016C127.071 89.7815 125.231 84.9604 125.231 84.9604L112.288 75.1932L90.0089 94.7646Z" fill="#FFC4B8"/>
<path fill-rule="evenodd" clip-rule="evenodd" d="M111.849 67.8702C110.225 64.7689 107.052 61.1809 106.362 59.2413C105.673 57.3016 103.034 51.6909 103.034 51.6909C103.034 51.6909 99.3015 53.3472 99.4004 56.6206C99.4993 59.8941 101.576 67.8702 101.576 67.8702L115.476 75.8068C115.476 75.8068 113.474 70.9716 111.849 67.8702Z" fill="#FFC4B8"/>
<path fill-rule="evenodd" clip-rule="evenodd" d="M117.691 77.4535L79.0561 54.9355C79.0561 54.9355 77.0779 53.8697 75.3346 54.5077C73.5912 55.1457 54 64.0303 54 64.0303V66.4403L97.0974 93.7367C98.2637 94.0461 99.4665 94.1958 100.673 94.1818C102.332 94.0967 117.179 80.6518 117.179 80.6518L117.691 77.4535Z" fill="#767676"/>
<path fill-rule="evenodd" clip-rule="evenodd" d="M56.0932 63.51C56.0932 63.51 54.7673 63.8394 56.0932 64.558C64.0337 68.8606 92.0656 88.6764 93.8924 88.2555C95.9997 87.7703 111.739 75.633 111.739 75.633L57.5185 62.9141L56.0932 63.51Z" fill="#CCCCCC"/>
<path fill-rule="evenodd" clip-rule="evenodd" d="M81.5523 56.5223L93.6372 63.2037L67.5742 58.2319C67.5742 58.2319 74.5039 55.1919 74.6325 55.0579C75.9965 54.5065 76.3244 54.5737 76.8496 54.5713C78.3951 54.5643 81.5523 56.5223 81.5523 56.5223Z" fill="white"/>
<ellipse cx="107.563" cy="83.5468" rx="2.47277" ry="2.22549" fill="#444444"/>
<path fill-rule="evenodd" clip-rule="evenodd" d="M65.1865 73.2871C65.1865 73.2871 59.8819 72.5136 60.1421 74.6535C60.4022 76.7934 62.417 78.5447 62.417 78.5447C62.417 78.5447 69.6197 79.8246 71.1469 79.7073C71.9184 79.6298 72.6958 79.6298 73.4673 79.7073C73.4673 79.7073 71.3492 76.2588 69.2785 74.6535C68.1275 73.7129 66.6717 73.2267 65.1865 73.2871Z" fill="#FFC4B8"/>
<path fill-rule="evenodd" clip-rule="evenodd" d="M66.9218 79.4011C66.9218 79.4011 65.5682 81.3684 70.2135 83.59C71.5701 84.2398 80.2446 89.6329 80.4177 89.6838C80.3331 89.9024 85.0289 93.0404 88.4161 94.5715C93.1143 96.6981 104.27 97.4953 104.27 97.4953L97.3893 94.0878L75.6818 80.3096L71.9059 77.7681L66.9218 79.4011Z" fill="#FFC4B8"/>
<path fill-rule="evenodd" clip-rule="evenodd" d="M129.8 80.6206C129.8 80.6206 119.689 86.1176 117.275 90.3139C114.861 94.5101 111.297 102.737 111.297 102.737L145.782 123.715C149.114 120.794 151.95 117.351 154.176 113.519C156.44 109.243 158.388 104.806 160.004 100.245L129.8 80.6206Z" fill="#F6C854"/>
<path fill-rule="evenodd" clip-rule="evenodd" d="M111.078 102.706L112.148 100.412L150.308 119.25L145.871 123.935L111.078 102.706Z" fill="#D39E00"/>
<path fill-rule="evenodd" clip-rule="evenodd" d="M22.1023 89.7723L58.863 119.339L57.4347 123.667L57.132 123.928L17.7161 100.453L17.1533 99.7059L16.952 98.6886L14.9219 81.0864H21.45L22.1023 89.7723Z" fill="#444444"/>
<path fill-rule="evenodd" clip-rule="evenodd" d="M14.9219 81.0865L39.1056 70.9146H42.2489V78.0623L78.2975 103.427L58.8071 119.322L21.5464 89.5464L20.402 81.087L14.9219 81.0865Z" fill="#34466B"/>
<path d="M25.3099 87.4459L41.5808 79.2542C41.5808 79.2542 44.3503 77.2497 42.6228 74.0999C40.8953 70.9501 39.0506 72.0643 39.0506 72.0643L20.7383 80.4718C20.7383 80.4718 23.8767 79.3778 25.3109 82.0291C26.7451 84.6804 25.3099 87.4459 25.3099 87.4459Z" fill="#767676" stroke="#767676"/>
<path d="M20.9102 80.3534L24.5293 87.696C24.5293 87.696 27.0268 85.788 25.51 82.1783C23.9932 78.5685 20.9102 80.3534 20.9102 80.3534Z" fill="#767676" stroke="#767676"/>
<path d="M58.8291 119.309L57.4414 123.643L76.5806 107.097L78.2829 103.423L58.8291 119.309Z" fill="black"/>
<path fill-rule="evenodd" clip-rule="evenodd" d="M42.9014 80.9116L27.2695 89.6598L42.0221 101.593L57.8156 91.0589L42.9014 80.9116Z" fill="white"/>
<path fill-rule="evenodd" clip-rule="evenodd" d="M47.0151 102.029C47.0151 102.029 49.0714 100.407 50.0318 101.271C50.9923 102.136 48.7539 104.172 48.7539 104.172C48.7539 104.172 46.2426 106.298 45.1704 105.249C44.0982 104.201 47.0151 102.029 47.0151 102.029Z" fill="#767676"/>
<path fill-rule="evenodd" clip-rule="evenodd" d="M52.6088 98.0299C52.6088 98.0299 54.6652 96.4078 55.6256 97.2722C56.586 98.1367 54.3477 100.173 54.3477 100.173C54.3477 100.173 51.8363 102.299 50.7641 101.25C49.6919 100.201 52.6088 98.0299 52.6088 98.0299Z" fill="#767676"/>
<path fill-rule="evenodd" clip-rule="evenodd" d="M58.2143 94.0314C58.2143 94.0314 60.2706 92.4092 61.2311 93.2737C62.1915 94.1382 59.9531 96.1743 59.9531 96.1743C59.9531 96.1743 57.4418 98.3009 56.3696 97.2519C55.2974 96.203 58.2143 94.0314 58.2143 94.0314Z" fill="#767676"/>
<path fill-rule="evenodd" clip-rule="evenodd" d="M50.2104 104.426C50.2104 104.426 52.2667 102.804 53.2271 103.669C54.1876 104.533 51.9492 106.569 51.9492 106.569C51.9492 106.569 49.4379 108.696 48.3657 107.647C47.2935 106.598 50.2104 104.426 50.2104 104.426Z" fill="#767676"/>
<path fill-rule="evenodd" clip-rule="evenodd" d="M55.8158 100.428C55.8158 100.428 57.8722 98.8057 58.8326 99.6702C59.793 100.535 57.5547 102.571 57.5547 102.571C57.5547 102.571 55.0433 104.697 53.9711 103.648C52.899 102.599 55.8158 100.428 55.8158 100.428Z" fill="#767676"/>
<path fill-rule="evenodd" clip-rule="evenodd" d="M61.4096 96.4308C61.4096 96.4308 63.4659 94.8086 64.4264 95.6731C65.3868 96.5376 63.1484 98.5737 63.1484 98.5737C63.1484 98.5737 60.6371 100.7 59.5649 99.6513C58.4927 98.6024 61.4096 96.4308 61.4096 96.4308Z" fill="#767676"/>
<path fill-rule="evenodd" clip-rule="evenodd" d="M53.4135 106.826C53.4135 106.826 55.4698 105.204 56.4303 106.069C57.3907 106.933 55.1523 108.969 55.1523 108.969C55.1523 108.969 52.641 111.096 51.5688 110.047C50.4966 108.998 53.4135 106.826 53.4135 106.826Z" fill="#767676"/>
<path fill-rule="evenodd" clip-rule="evenodd" d="M59.0111 102.827C59.0111 102.827 61.0675 101.205 62.0279 102.07C62.9883 102.934 60.75 104.97 60.75 104.97C60.75 104.97 58.2387 107.097 57.1665 106.048C56.0943 104.999 59.0111 102.827 59.0111 102.827Z" fill="#767676"/>
<path fill-rule="evenodd" clip-rule="evenodd" d="M64.6049 98.8287C64.6049 98.8287 66.6613 97.2066 67.6217 98.0711C68.5821 98.9356 66.3437 100.972 66.3437 100.972C66.3437 100.972 63.8324 103.098 62.7602 102.049C61.688 101 64.6049 98.8287 64.6049 98.8287Z" fill="#767676"/>
<path fill-rule="evenodd" clip-rule="evenodd" d="M56.6127 109.223C56.6127 109.223 58.6691 107.601 59.6295 108.466C60.5899 109.33 58.3516 111.366 58.3516 111.366C58.3516 111.366 55.8402 113.493 54.768 112.444C53.6958 111.395 56.6127 109.223 56.6127 109.223Z" fill="#767676"/>
<path fill-rule="evenodd" clip-rule="evenodd" d="M62.2065 105.225C62.2065 105.225 64.2628 103.603 65.2232 104.468C66.1837 105.332 63.9453 107.368 63.9453 107.368C63.9453 107.368 61.434 109.495 60.3618 108.446C59.2896 107.397 62.2065 105.225 62.2065 105.225Z" fill="#767676"/>
<path fill-rule="evenodd" clip-rule="evenodd" d="M67.8002 101.228C67.8002 101.228 69.8566 99.606 70.817 100.47C71.7774 101.335 69.5391 103.371 69.5391 103.371C69.5391 103.371 67.0277 105.498 65.9555 104.449C64.8833 103.4 67.8002 101.228 67.8002 101.228Z" fill="#767676"/>
<path fill-rule="evenodd" clip-rule="evenodd" d="M59.808 111.622C59.808 111.622 61.8644 110 62.8248 110.864C63.7852 111.729 61.5469 113.765 61.5469 113.765C61.5469 113.765 59.0355 115.891 57.9633 114.842C56.8911 113.793 59.808 111.622 59.808 111.622Z" fill="#EC0000"/>
<path fill-rule="evenodd" clip-rule="evenodd" d="M65.4018 107.624C65.4018 107.624 67.4581 106.002 68.4186 106.866C69.379 107.731 67.1406 109.767 67.1406 109.767C67.1406 109.767 64.6293 111.894 63.5571 110.845C62.4849 109.796 65.4018 107.624 65.4018 107.624Z" fill="#F6C854"/>
<path fill-rule="evenodd" clip-rule="evenodd" d="M71.0072 103.626C71.0072 103.626 73.0636 102.004 74.024 102.868C74.9844 103.733 72.7461 105.769 72.7461 105.769C72.7461 105.769 70.2347 107.896 69.1626 106.847C68.0904 105.798 71.0072 103.626 71.0072 103.626Z" fill="#63BA68"/>
<path fill-rule="evenodd" clip-rule="evenodd" d="M27.506 85.8806C27.506 85.8806 28.8413 82.5413 25.2513 77.9949C22.9046 75.1647 19.8362 73.0217 16.3711 71.7927L30.3749 65.5762C30.3749 65.5762 36.1948 68.2433 38.4781 71.7927C39.8685 73.9927 40.7823 76.4596 41.1606 79.0345L27.506 85.8806Z" fill="white"/>
<path fill-rule="evenodd" clip-rule="evenodd" d="M27.2727 81.6006C28.2277 84.2712 27.4547 85.9388 27.4547 85.9388L41.1811 79.0482L41.0703 78.4414C41.0703 78.4414 32.7375 82.7935 29.7945 82.3672C26.8514 81.9409 26.3177 78.9295 27.2727 81.6006Z" fill="#CCCCCC"/>
<path fill-rule="evenodd" clip-rule="evenodd" d="M28.0898 89.8018L42.0363 101.115L56.9406 91.3641L28.0898 89.8018Z" fill="#CCCCCC"/>
<path d="M27.4141 86.0505L41.2487 79.0239" stroke="#767676" stroke-width="0.5"/>
<path fill-rule="evenodd" clip-rule="evenodd" d="M29.0977 57.6592L31.9689 54.1639L35.4642 57.0352L32.5929 60.5305L29.0977 57.6592Z" fill="#9BC3D3"/>
<path fill-rule="evenodd" clip-rule="evenodd" d="M12.6141 57.1992C12.6141 59.429 10.8065 61.2367 8.5766 61.2367C6.34673 61.2367 4.53906 59.429 4.53906 57.1992C4.53906 54.9693 6.34673 53.1616 8.5766 53.1616C10.8065 53.1616 12.6141 54.9693 12.6141 57.1992Z" fill="#F6C854"/>
<rect x="3.87109" y="70.0186" width="3.41737" height="3.41737" fill="#EC0000"/>
<path fill-rule="evenodd" clip-rule="evenodd" d="M0 37.604L3.78253 33.0002L8.38631 36.7828L4.60378 41.3865L0 37.604Z" fill="#1BB3BC"/>
</svg>
