<svg width="160" height="160" viewBox="0 0 160 160" fill="none" xmlns="http://www.w3.org/2000/svg">
<path fill-rule="evenodd" clip-rule="evenodd" d="M41.8162 106.397C70.9454 111.183 115.099 104.812 142.829 91.7433C170.559 78.6747 161.77 52.1868 137.289 47.4022C112.809 42.6177 31.5481 63.3708 22.2354 78.3146C12.9227 93.2584 12.6869 101.612 41.8162 106.397Z" fill="#DEEDF2"/>
<ellipse cx="84.3722" cy="101.474" rx="22.0011" ry="12.5144" fill="#CCCCCC"/>
<path fill-rule="evenodd" clip-rule="evenodd" d="M109.442 95.3665L126.221 98.4782C126.221 98.4782 127.36 97.3036 128.788 94.9385C130.215 92.5735 129.184 89.871 129.184 89.871L121.929 84.396L109.442 95.3665Z" fill="#FFC4B8"/>
<path fill-rule="evenodd" clip-rule="evenodd" d="M121.686 80.2916C120.775 78.5531 118.997 76.542 118.61 75.4546C118.224 74.3673 116.745 71.2231 116.745 71.2231C116.745 71.2231 114.653 72.1516 114.708 73.9858C114.764 75.82 115.929 80.2916 115.929 80.2916L123.72 84.7395C123.72 84.7395 122.596 82.0299 121.686 80.2916Z" fill="#FFC4B8"/>
<path fill-rule="evenodd" clip-rule="evenodd" d="M124.964 85.6633L103.309 73.0417C103.309 73.0417 102.201 72.4444 101.224 72.8021C100.246 73.1598 89.2656 78.1399 89.2656 78.1399V79.4905L113.422 94.7903C114.076 94.9636 114.749 95.0476 115.426 95.0398C116.355 94.9925 124.677 87.4561 124.677 87.4561L124.964 85.6633Z" fill="#767676"/>
<path fill-rule="evenodd" clip-rule="evenodd" d="M90.4358 77.8477C90.4358 77.8477 89.6926 78.0318 90.4358 78.4345C94.8865 80.8461 110.598 91.9528 111.622 91.7171C112.804 91.4452 121.626 84.642 121.626 84.642L91.2349 77.5137L90.4358 77.8477Z" fill="#CCCCCC"/>
<path fill-rule="evenodd" clip-rule="evenodd" d="M104.703 73.9309L111.477 77.6757L96.8672 74.8903C96.8672 74.8903 100.751 73.1857 100.823 73.111C101.588 72.802 101.772 72.8389 102.066 72.8377C102.933 72.8339 104.703 73.9309 104.703 73.9309Z" fill="white"/>
<ellipse cx="119.087" cy="89.06" rx="1.61476" ry="1.31199" fill="#444444"/>
<path fill-rule="evenodd" clip-rule="evenodd" d="M95.532 83.3273C95.532 83.3273 92.5589 82.8938 92.7044 84.0931C92.8499 85.2925 93.9807 86.273 93.9807 86.273C93.9807 86.273 98.0176 86.9904 98.8738 86.9248C99.3062 86.8814 99.7419 86.8814 100.174 86.9248C100.174 86.9248 98.987 84.9919 97.8264 84.0923C97.1811 83.565 96.3647 83.2928 95.532 83.3273Z" fill="#FFC4B8"/>
<path fill-rule="evenodd" clip-rule="evenodd" d="M96.5052 86.7566C96.5052 86.7566 95.7465 87.8587 98.3505 89.1042C99.1108 89.4676 103.973 92.4914 104.07 92.5199C104.023 92.6426 106.654 94.4015 108.553 95.2597C111.186 96.4506 117.44 96.8983 117.44 96.8983L113.583 94.9882L101.416 87.2654L99.2993 85.8408L96.5052 86.7566Z" fill="#FFC4B8"/>
<path fill-rule="evenodd" clip-rule="evenodd" d="M131.746 87.439C131.746 87.439 126.079 90.5205 124.726 92.8708C123.372 95.2211 121.375 99.8345 121.375 99.8345L140.704 111.593C140.704 111.593 143.574 109.191 145.409 105.879C147.243 102.566 148.675 98.4383 148.675 98.4383L131.746 87.439Z" fill="#F6C854"/>
<path fill-rule="evenodd" clip-rule="evenodd" d="M121.254 99.8182L121.854 98.5322L143.242 109.092L140.756 111.717L121.254 99.8182Z" fill="#D39E00"/>
<path fill-rule="evenodd" clip-rule="evenodd" d="M71.3832 92.5673L91.9885 109.14L91.188 111.566L91.0182 111.711L68.9257 98.554L68.6102 98.135L68.4974 97.5656L67.3594 87.6992H71.0168L71.3832 92.5673Z" fill="#444444"/>
<path fill-rule="evenodd" clip-rule="evenodd" d="M67.3594 87.6996L80.9155 81.998H82.6772V86.0041L102.882 100.221L91.9574 109.131L71.0727 92.4415L70.4315 87.6998L67.3594 87.6996Z" fill="#34466B"/>
<path d="M73.1802 91.2634L82.2994 86.671C82.2994 86.671 83.8518 85.548 82.8833 83.7822C81.9148 82.0165 80.8812 82.6416 80.8812 82.6416L70.6172 87.3557C70.6172 87.3557 72.3765 86.7417 73.1806 88.2283C73.9848 89.7148 73.1802 91.2634 73.1802 91.2634Z" fill="#767676" stroke="#767676"/>
<path d="M70.7148 87.2885L72.7434 91.4044C72.7434 91.4044 74.1432 90.3346 73.2932 88.3117C72.4432 86.2888 70.7148 87.2885 70.7148 87.2885Z" fill="#767676" stroke="#767676"/>
<path d="M91.9693 109.123L91.1914 111.552L101.919 102.278L102.873 100.219L91.9693 109.123Z" fill="black"/>
<path fill-rule="evenodd" clip-rule="evenodd" d="M83.0388 87.6016L74.2773 92.5064L82.5461 99.1945L91.3984 93.2885L83.0388 87.6016Z" fill="white"/>
<path fill-rule="evenodd" clip-rule="evenodd" d="M85.346 99.4372C85.346 99.4372 86.4987 98.5289 87.0374 99.0123C87.5762 99.4958 86.3213 100.638 86.3213 100.638C86.3213 100.638 84.9138 101.829 84.3125 101.242C83.7112 100.655 85.346 99.4372 85.346 99.4372Z" fill="#767676"/>
<path fill-rule="evenodd" clip-rule="evenodd" d="M88.4827 97.1965C88.4827 97.1965 89.6354 96.2882 90.1742 96.7716C90.7129 97.255 89.458 98.3977 89.458 98.3977C89.458 98.3977 88.0506 99.5886 87.4493 99.0012C86.848 98.4138 88.4827 97.1965 88.4827 97.1965Z" fill="#767676"/>
<path fill-rule="evenodd" clip-rule="evenodd" d="M91.6194 94.9553C91.6194 94.9553 92.7722 94.047 93.3109 94.5304C93.8496 95.0138 92.5947 96.1565 92.5947 96.1565C92.5947 96.1565 91.1873 97.3473 90.586 96.76C89.9847 96.1726 91.6194 94.9553 91.6194 94.9553Z" fill="#767676"/>
<path fill-rule="evenodd" clip-rule="evenodd" d="M87.139 100.781C87.139 100.781 88.2917 99.8732 88.8304 100.357C89.3691 100.84 88.1143 101.983 88.1143 101.983C88.1143 101.983 86.7068 103.174 86.1055 102.586C85.5042 101.999 87.139 100.781 87.139 100.781Z" fill="#767676"/>
<path fill-rule="evenodd" clip-rule="evenodd" d="M90.2757 98.5407C90.2757 98.5407 91.4284 97.6324 91.9671 98.1159C92.5059 98.5993 91.251 99.7419 91.251 99.7419C91.251 99.7419 89.8435 100.933 89.2422 100.345C88.6409 99.7581 90.2757 98.5407 90.2757 98.5407Z" fill="#767676"/>
<path fill-rule="evenodd" clip-rule="evenodd" d="M93.4163 96.2995C93.4163 96.2995 94.569 95.3912 95.1078 95.8746C95.6465 96.3581 94.3916 97.5007 94.3916 97.5007C94.3916 97.5007 92.9842 98.6916 92.3829 98.1042C91.7816 97.5168 93.4163 96.2995 93.4163 96.2995Z" fill="#767676"/>
<path fill-rule="evenodd" clip-rule="evenodd" d="M88.9319 102.126C88.9319 102.126 90.0847 101.218 90.6234 101.701C91.1621 102.185 89.9072 103.327 89.9072 103.327C89.9072 103.327 88.4998 104.518 87.8985 103.931C87.2972 103.344 88.9319 102.126 88.9319 102.126Z" fill="#767676"/>
<path fill-rule="evenodd" clip-rule="evenodd" d="M92.0686 99.8855C92.0686 99.8855 93.2214 98.9772 93.7601 99.4606C94.2988 99.944 93.044 101.087 93.044 101.087C93.044 101.087 91.6365 102.278 91.0352 101.69C90.4339 101.103 92.0686 99.8855 92.0686 99.8855Z" fill="#767676"/>
<path fill-rule="evenodd" clip-rule="evenodd" d="M95.2093 97.6442C95.2093 97.6442 96.362 96.7359 96.9007 97.2194C97.4395 97.7028 96.1846 98.8454 96.1846 98.8454C96.1846 98.8454 94.7771 100.036 94.1758 99.4489C93.5745 98.8616 95.2093 97.6442 95.2093 97.6442Z" fill="#767676"/>
<path fill-rule="evenodd" clip-rule="evenodd" d="M90.7249 103.47C90.7249 103.47 91.8776 102.562 92.4164 103.046C92.9551 103.529 91.7002 104.672 91.7002 104.672C91.7002 104.672 90.2927 105.862 89.6914 105.275C89.0902 104.688 90.7249 103.47 90.7249 103.47Z" fill="#767676"/>
<path fill-rule="evenodd" clip-rule="evenodd" d="M93.8616 101.23C93.8616 101.23 95.0143 100.321 95.5531 100.805C96.0918 101.288 94.8369 102.431 94.8369 102.431C94.8369 102.431 93.4295 103.622 92.8282 103.034C92.2269 102.447 93.8616 101.23 93.8616 101.23Z" fill="#767676"/>
<path fill-rule="evenodd" clip-rule="evenodd" d="M96.9983 98.989C96.9983 98.989 98.1511 98.0807 98.6898 98.5641C99.2285 99.0475 97.9736 100.19 97.9736 100.19C97.9736 100.19 96.5662 101.381 95.9649 100.794C95.3636 100.206 96.9983 98.989 96.9983 98.989Z" fill="#767676"/>
<path fill-rule="evenodd" clip-rule="evenodd" d="M92.5179 104.815C92.5179 104.815 93.6706 103.907 94.2093 104.39C94.748 104.874 93.4932 106.016 93.4932 106.016C93.4932 106.016 92.0857 107.207 91.4844 106.62C90.8831 106.032 92.5179 104.815 92.5179 104.815Z" fill="#EC0000"/>
<path fill-rule="evenodd" clip-rule="evenodd" d="M95.6546 102.574C95.6546 102.574 96.8073 101.666 97.346 102.15C97.8848 102.633 96.6299 103.776 96.6299 103.776C96.6299 103.776 95.2224 104.966 94.6211 104.379C94.0198 103.792 95.6546 102.574 95.6546 102.574Z" fill="#F6C854"/>
<path fill-rule="evenodd" clip-rule="evenodd" d="M98.7913 100.334C98.7913 100.334 99.944 99.4254 100.483 99.9088C101.021 100.392 99.7666 101.535 99.7666 101.535C99.7666 101.535 98.3592 102.726 97.7579 102.138C97.1566 101.551 98.7913 100.334 98.7913 100.334Z" fill="#63BA68"/>
<path fill-rule="evenodd" clip-rule="evenodd" d="M74.4129 90.3875C74.4129 90.3875 75.1597 88.5155 73.1494 85.9681C71.139 83.4206 68.1719 82.4909 68.1719 82.4909L76.0212 79.0068C76.0212 79.0068 79.2834 80.5005 80.5627 82.4909C81.3419 83.7238 81.8541 85.1062 82.0663 86.5492L74.4129 90.3875Z" fill="white"/>
<path fill-rule="evenodd" clip-rule="evenodd" d="M74.282 87.9874C74.8173 89.4849 74.3829 90.4186 74.3829 90.4186L82.0766 86.5571L82.0147 86.2168C82.0147 86.2168 77.3442 88.6565 75.6943 88.4169C74.0444 88.1773 73.7467 86.4901 74.282 87.9874Z" fill="#CCCCCC"/>
<path fill-rule="evenodd" clip-rule="evenodd" d="M74.7383 92.5845L82.5559 98.9256L90.9097 93.4605L74.7383 92.5845Z" fill="#CCCCCC"/>
<path d="M74.3633 90.4811L82.1176 86.5425" stroke="#767676" stroke-width="0.5"/>
<path fill-rule="evenodd" clip-rule="evenodd" d="M75.3086 74.5679L76.918 72.6087L78.8773 74.2181L77.2678 76.1773L75.3086 74.5679Z" fill="#9BC3D3"/>
<path fill-rule="evenodd" clip-rule="evenodd" d="M66.0653 74.3109C66.0653 75.2263 65.5139 76.0515 64.6683 76.4018C63.8226 76.752 62.8492 76.5584 62.202 75.9112C61.5547 75.2639 61.3611 74.2905 61.7114 73.4449C62.0617 72.5992 62.8869 72.0479 63.8022 72.0479C65.0521 72.0479 66.0653 73.0611 66.0653 74.3109Z" fill="#F6C854"/>
<rect x="61.168" y="81.4956" width="1.91551" height="1.91551" fill="#EC0000"/>
<path fill-rule="evenodd" clip-rule="evenodd" d="M58.9961 63.3271L61.1164 60.7465L63.697 62.8668L61.5767 65.4474L58.9961 63.3271Z" fill="#1BB3BC"/>
<ellipse cx="25.9371" cy="91.9871" rx="25.9371" ry="14.7347" fill="#CCCCCC"/>
<path fill-rule="evenodd" clip-rule="evenodd" d="M4.42969 92.8698H7.86468L8.48193 75.2816L6.56581 74.0215L4.42969 92.8698Z" fill="#F6C854"/>
<path fill-rule="evenodd" clip-rule="evenodd" d="M8.2212 75.0792L10.825 73.7471L12.2393 95.4426L7.51172 92.7485L8.2212 75.0792Z" fill="#D39E00"/>
<path fill-rule="evenodd" clip-rule="evenodd" d="M10.7148 73.9871L29.6772 70.2173L32.6911 90.6099L12.1718 95.2119L10.7148 73.9871Z" fill="#F6C854"/>
<path d="M10.5229 73.8265C10.5076 72.8885 10.5731 71.951 10.7189 71.0243C10.9401 69.7579 11.2274 68.504 11.5795 67.2677C12.0948 67.3045 12.6118 67.3108 13.1278 67.2864C14.159 67.2343 17.0231 67.3288 17.0231 67.3288L18.3919 72.5284" stroke="#444444" stroke-width="3"/>
<path d="M15.3295 74.9051C15.329 74.9006 14.1802 68.6133 14.6538 66.0737C16.3195 66.0918 20.1681 66.6712 20.1681 66.6712C20.1681 66.6712 21.5263 72.535 21.7622 73.9314" stroke="#D39E00" stroke-width="3"/>
<path fill-rule="evenodd" clip-rule="evenodd" d="M6.45703 74.022L14.5106 73.3081L10.703 74.022L8.03869 75.3056L6.45703 74.022Z" fill="#444444"/>
<path d="M25.8273 59.4438C25.8273 59.4438 25.2997 48.5378 28.9507 45.8538C32.6016 43.1699 35.0809 57.2044 35.0809 57.2044" stroke="#767676" stroke-width="3"/>
<path fill-rule="evenodd" clip-rule="evenodd" d="M23.0625 57.2296L43.138 55.9756L27.7891 58.4613L25.4465 58.9231L23.0625 57.2296Z" fill="#444444"/>
<path fill-rule="evenodd" clip-rule="evenodd" d="M18.707 94.655H22.3933L25.3893 58.7991L23.0277 57.23L18.707 94.655Z" fill="#1BB3BC"/>
<path fill-rule="evenodd" clip-rule="evenodd" d="M25.3406 58.7133L27.8084 58.4194L25.8687 99.5292L22.1719 94.6954L25.3406 58.7133Z" fill="#137E84"/>
<path fill-rule="evenodd" clip-rule="evenodd" d="M27.7519 58.4068L43.2855 56.022L47.3077 90.8418L25.7852 99.7135L27.7519 58.4068Z" fill="#1BB3BC"/>
<path d="M30.6669 58.3467C30.6669 58.3467 29.1635 45.469 33.6647 45.5001C38.1658 45.5311 38.931 56.9515 38.931 56.9515" stroke="#767676" stroke-width="3"/>
</svg>
