<svg width="160" height="160" viewBox="0 0 160 160" fill="none" xmlns="http://www.w3.org/2000/svg">
<mask id="mask0_1487_15564" style="mask-type:luminance" maskUnits="userSpaceOnUse" x="0" y="7" width="160" height="146">
<rect y="7" width="160" height="145.6" fill="white"/>
</mask>
<g mask="url(#mask0_1487_15564)">
<rect y="7" width="160" height="145.6" fill="white"/>
<path fill-rule="evenodd" clip-rule="evenodd" d="M150.847 64.5583C150.88 83.9614 142.806 102.496 128.575 115.685C123.19 120.705 117.043 124.841 110.364 127.938C102.822 131.439 94.711 133.553 86.4196 134.182C84.6197 134.319 82.8493 134.388 81.0149 134.388C79.868 134.388 78.6893 134.358 77.5452 134.302C71.4332 134.003 65.387 132.901 59.5616 131.027C30.7315 121.707 11.2021 94.8572 11.2149 64.5579C11.2149 25.9919 42.4616 -5.26806 81.0149 -5.26806C119.319 -5.2773 150.479 25.5766 150.847 63.8791V64.5591" fill="#DEEDF2"/>
<path fill-rule="evenodd" clip-rule="evenodd" d="M148.82 58.6658C148.837 78.0658 140.765 96.5946 126.546 109.793C121.155 114.807 115.01 118.943 108.335 122.049C100.78 125.548 92.659 127.663 84.3571 128.293C82.5915 128.426 80.7883 128.495 78.9867 128.495C77.8071 128.495 76.6603 128.469 75.5147 128.411C69.4027 128.117 63.3564 127.016 57.5335 125.135C28.6958 115.818 9.15423 88.9706 9.15234 58.6654C9.15118 40.1445 16.5086 22.3821 29.6056 9.28666C42.7026 -3.80875 60.4659 -11.164 78.9867 -11.1606C117.28 -11.1556 148.423 19.6958 148.787 57.9878C148.813 58.2128 148.823 58.4393 148.818 58.6658" fill="white"/>
<path fill-rule="evenodd" clip-rule="evenodd" d="M55.0095 93.653L48.6571 104.691C48.0095 105.798 46.5907 106.177 45.4775 105.539L26.0883 94.3394C24.9843 93.6992 24.603 92.2886 25.2343 91.1794L31.6251 80.1394C31.9282 79.6095 32.4302 79.2223 33.0197 79.0636C33.6093 78.905 34.2377 78.988 34.7659 79.2942L54.1911 90.4902C55.288 91.1381 55.6542 92.5512 55.0099 93.6502" fill="#CEDEE7"/>
<path fill-rule="evenodd" clip-rule="evenodd" d="M55.4627 91.108L49.1103 102.146C48.4613 103.252 47.043 103.629 45.9307 102.991L26.5407 91.7956C25.4371 91.155 25.0563 89.7446 25.6875 88.6356L32.0759 77.5956C32.3774 77.0634 32.8795 76.6742 33.47 76.5147C34.0605 76.3552 34.6902 76.4388 35.2187 76.7468L54.6087 87.9468C55.1451 88.2487 55.5377 88.7535 55.6983 89.3477C55.8589 89.942 55.774 90.5758 55.4627 91.1068" fill="#DEEDF2"/>
<path fill-rule="evenodd" clip-rule="evenodd" d="M47.8992 101.291L27.0352 89.2341L33.8788 77.3345L54.778 89.3945L47.8992 101.291Z" fill="white"/>
<path fill-rule="evenodd" clip-rule="evenodd" d="M46.6907 98.0019L37.3203 92.5935L40.3967 87.2583L49.7639 92.6659L46.6907 98.0019Z" fill="#DEEDF2"/>
<path fill-rule="evenodd" clip-rule="evenodd" d="M39.3521 83.6785C39.3451 85.0834 38.2023 86.2176 36.7973 86.2141C35.4037 86.204 34.2788 85.0722 34.2773 83.6785C34.2802 82.286 35.4048 81.1559 36.7973 81.1465C38.2012 81.1423 39.3438 82.2747 39.3521 83.6785Z" fill="#DEEDF2"/>
<path fill-rule="evenodd" clip-rule="evenodd" d="M62.9383 110.55L58.9727 95.1359L77.1211 90.4883L81.0491 105.905L62.9383 110.55Z" fill="#DEEDF2"/>
<path fill-rule="evenodd" clip-rule="evenodd" d="M61.6234 113.996L57.6602 98.5775L75.7726 93.9331L79.739 109.347L61.6234 113.996Z" fill="#CEDEE7"/>
<path fill-rule="evenodd" clip-rule="evenodd" d="M109.413 137.536C114.444 135.64 119.142 132.958 123.333 129.59L126.221 135.574C121.916 139.128 117.056 141.949 111.835 143.924C104.776 146.54 97.2349 147.602 89.7273 147.039L87.9609 140.691C95.2537 141.157 102.563 140.082 109.413 137.536" fill="#34466B"/>
<path fill-rule="evenodd" clip-rule="evenodd" d="M85.0111 82.4181L79.7031 61.7781L103.972 55.5581L109.28 76.1981L85.0111 82.4181Z" fill="#DEEDF2"/>
<path fill-rule="evenodd" clip-rule="evenodd" d="M100.339 80.9368L96.4099 74.2484C96.2348 73.9158 95.9425 73.66 95.5895 73.5308L92.2815 72.2012C91.4489 71.8718 90.5035 72.2441 90.1191 73.0528L87.2391 79.1352C86.9683 79.7046 87.1464 80.3863 87.6611 80.7504C87.8105 80.853 87.978 80.9263 88.1547 80.9664C88.6909 81.0719 89.2369 80.8377 89.5299 80.3764L90.1511 79.3484L92.8051 82.3584C93.8889 83.5642 95.2177 84.5245 96.7027 85.1752L100.569 86.8688L103.42 84.5628L100.339 80.9368Z" fill="#CEDEE7"/>
<path fill-rule="evenodd" clip-rule="evenodd" d="M103.551 83.8547L98.375 87.4479L112.067 116.808C112.067 116.808 128.181 103.395 128.248 103.097C128.281 102.795 103.551 83.8535 103.551 83.8535" fill="#CEDEE7"/>
<path fill-rule="evenodd" clip-rule="evenodd" d="M69.3831 101.766L68.8251 96.6165L66.6651 93.1121C66.1961 92.3215 65.8526 91.4629 65.6471 90.5669L64.7671 86.7085C64.7335 86.6561 64.7671 86.6001 64.8311 86.5709C65.1691 86.369 65.6064 86.4759 65.8131 86.8109L67.9731 90.3485L68.5311 83.7613C68.5943 82.9714 69.1232 82.2956 69.8747 82.0445C70.1043 81.9693 70.4279 81.8709 70.7263 81.7697C71.4875 81.5342 72.3043 81.9057 72.6271 82.6341C72.6271 82.6341 76.2927 92.1401 74.9871 96.4009L74.7247 97.2037L74.5599 103.561L69.3831 101.766Z" fill="#F4A48D"/>
<path fill-rule="evenodd" clip-rule="evenodd" d="M131.981 121.793C130.319 124.132 128.536 126.383 126.64 128.536C117.09 139.301 102.496 144.109 88.4179 141.131C88.3147 141.111 88.2227 141.089 88.1179 141.065C87.0071 140.829 85.8943 140.534 84.7803 140.194C83.313 139.74 81.9907 138.909 80.9459 137.783C79.8859 136.662 79.1408 135.282 78.7859 133.781H78.7531C78.0951 133.696 67.4219 132.175 67.4219 121.981L68.1719 97.0181L75.4783 96.5957L77.5767 115.773C77.6591 116.571 78.0999 117.289 78.7747 117.723C79.4496 118.157 80.2851 118.26 81.0455 118.004L101.125 111.27L115.013 106.121L127.527 101.496C127.527 101.496 139.582 111.152 131.983 121.794" fill="#9BC3D3"/>
<path fill-rule="evenodd" clip-rule="evenodd" d="M88.1239 141.064C87.0083 140.828 85.8975 140.533 84.7811 140.196C83.3163 139.739 81.9962 138.907 80.9515 137.782C79.8894 136.664 79.1432 135.284 78.7891 133.782C81.2444 133.941 83.7082 133.657 86.0627 132.942L88.1239 141.064Z" fill="#34466B"/>
<path fill-rule="evenodd" clip-rule="evenodd" d="M92.4102 72.1386L93.5922 70.2946L94.4438 70.5566L94.6086 72.0866L92.4102 72.1386ZM101.453 77.1827L98.1102 70.2087C97.93 69.8766 97.6576 69.6038 97.3258 69.4231L94.1502 67.8383C93.3346 67.4387 92.3489 67.7339 91.887 68.5159L88.547 74.3495C88.2217 74.8949 88.348 75.5966 88.843 75.9943C88.9862 76.1136 89.1541 76.1997 89.3346 76.2463C89.8479 76.3906 90.3966 76.1988 90.7082 75.7663L91.4282 74.7903L93.8534 78.0035C94.8296 79.2898 96.0685 80.3534 97.4878 81.1235L101.222 83.1183L104.236 81.0447L101.453 77.1827Z" fill="#F4A48D"/>
<path fill-rule="evenodd" clip-rule="evenodd" d="M119.144 113.439C117.766 116.898 112.687 118.916 107.812 117.95C103.553 117.105 100.832 114.275 101.127 111.27L110.264 107.876L115.017 106.121C118.489 107.591 120.257 110.558 119.144 113.441" fill="#F4A48D"/>
<path fill-rule="evenodd" clip-rule="evenodd" d="M104.438 80.3535L99 83.5239L110.333 113.878C110.333 113.878 127.431 101.788 127.528 101.494C127.594 101.199 104.437 80.3539 104.437 80.3539" fill="#9BC3D3"/>
<path fill-rule="evenodd" clip-rule="evenodd" d="M103.418 102.018L102.924 98.2415L101.68 97.2395C101.053 96.7452 100.674 96.0014 100.643 95.2038C100.611 94.4063 100.93 93.6349 101.516 93.0927C104.727 90.1971 110.001 88.9463 113.93 89.8175C114.948 90.025 115.916 90.4274 116.781 91.0027C117.222 91.2896 117.564 91.7046 117.763 92.1919L103.418 102.018Z" fill="#EC0000"/>
<path fill-rule="evenodd" clip-rule="evenodd" d="M90.6477 72.188L87.7969 72.5544L87.8633 73.0984L89.6633 73.3832L99.9157 73.0816C99.9157 73.0816 99.7853 71.9584 99.6533 71.9556C99.5213 71.9528 90.6485 72.1884 90.6485 72.1884" fill="#D39E00"/>
<path d="M94.6727 76.148L90.6135 74.294C90.3159 74.1542 90.0919 73.8942 89.9977 73.5791C89.9035 73.2641 89.9479 72.9238 90.1199 72.6436C90.4147 72.1848 90.9872 71.9906 91.5003 72.1752L96.0183 73.8092L94.6727 76.148Z" fill="#F4A48D"/>
<path d="M124.251 105.918C122.396 112.514 115.553 116.364 108.953 114.526C108.61 114.433 108.273 114.321 107.942 114.192C107.261 113.943 106.604 113.634 105.978 113.269V113.265C105.715 113.105 105.453 112.932 105.19 112.755V112.745C104.877 112.546 104.581 112.32 104.306 112.07C104.204 111.99 104.109 111.913 104.013 111.83C102.728 110.678 101.701 109.267 100.999 107.69C100.895 107.501 100.807 107.304 100.736 107.1C100.67 106.92 100.604 106.737 100.54 106.55C100.441 106.292 100.375 106.033 100.278 105.764C100.179 105.299 100.078 104.824 100.013 104.342C99.9874 104.275 99.9767 104.202 99.982 104.13C99.9163 103.77 99.8831 103.405 99.8828 103.039V102.199C99.8828 101.973 99.9164 101.747 99.9164 101.524C99.9783 100.749 100.121 99.9812 100.342 99.2348C101.226 96.0623 103.335 93.3714 106.204 91.7554C109.074 90.1395 112.469 89.7311 115.64 90.6204C122.232 92.4793 126.081 99.3168 124.251 105.917" fill="#F4A48D"/>
<path fill-rule="evenodd" clip-rule="evenodd" d="M124.676 103.053C124.647 104.022 124.504 104.984 124.251 105.919C123.844 107.343 123.19 108.685 122.32 109.883C117.08 117.069 105.942 115.841 102.306 107.727C102.11 107.278 102.014 107.004 102.014 107.004V107L101.552 104.825L100.736 107.102C100.67 106.922 100.604 106.738 100.54 106.552C100.447 106.295 100.37 106.032 100.309 105.765C100.212 105.415 100.112 105.058 100.047 104.695C100.047 104.58 100.013 104.462 100.013 104.344C99.9874 104.276 99.9767 104.203 99.982 104.131C99.9163 103.771 99.8831 103.406 99.8828 103.04V102.2C99.8828 101.974 99.9164 101.748 99.9164 101.525C99.9719 100.958 100.06 100.393 100.179 99.8351C100.244 99.6351 100.278 99.4351 100.342 99.2351C100.564 98.4415 100.86 97.6705 101.226 96.9323C103.916 91.6661 109.945 89.0259 115.64 90.6203C121.167 92.1714 124.906 97.3147 124.677 103.051" fill="#EC0000"/>
<path fill-rule="evenodd" clip-rule="evenodd" d="M102.338 106.417C102.25 106.622 102.142 106.817 102.014 107V107.003C101.978 107.039 101.944 107.072 101.913 107.104C101.917 107.128 101.903 107.15 101.88 107.156C101.839 107.214 101.795 107.27 101.748 107.323C101.715 107.343 101.715 107.356 101.686 107.376C101.493 107.56 101.271 107.71 101.028 107.821C101.028 107.779 100.999 107.733 100.999 107.69C100.895 107.501 100.807 107.304 100.736 107.1C100.67 106.92 100.604 106.737 100.54 106.55C100.441 106.292 100.375 106.033 100.278 105.764C100.179 105.299 100.078 104.824 100.013 104.343C99.9876 104.275 99.977 104.202 99.982 104.129C99.9163 103.769 99.8831 103.404 99.8828 103.039V102.833C100.382 102.626 100.948 102.66 101.42 102.924C102.472 103.51 102.9 105.076 102.34 106.416" fill="#F4A48D"/>
<path fill-rule="evenodd" clip-rule="evenodd" d="M75.0888 94.0555L70.9568 95.7391C70.4958 95.9221 69.9732 95.702 69.782 95.2443L65.2912 84.2387C65.1155 83.7796 65.3333 83.2636 65.7848 83.0691L69.91 81.3891C70.3711 81.2038 70.8957 81.4224 71.0888 81.8803L75.5756 92.8859C75.6678 93.1054 75.6682 93.3527 75.5767 93.5725C75.4852 93.7923 75.3095 93.9663 75.0888 94.0555Z" fill="#DEEDF2"/>
<path fill-rule="evenodd" clip-rule="evenodd" d="M85.8281 76.1445L94.0805 61.8081L85.8281 76.1445Z" fill="#1BB3BC"/>
<path fill-rule="evenodd" clip-rule="evenodd" d="M71.9091 86.3183C71.913 86.9119 71.6801 87.4825 71.2618 87.9037C70.8436 88.325 70.2747 88.562 69.6811 88.5623C68.4383 88.5648 67.4278 87.5611 67.4219 86.3183C67.428 85.0757 68.4384 84.0723 69.6811 84.0747C70.2746 84.075 70.8435 84.312 71.2617 84.7331C71.6799 85.1543 71.9129 85.7248 71.9091 86.3183Z" fill="white"/>
<path fill-rule="evenodd" clip-rule="evenodd" d="M73.8763 77.5071C73.8687 78.1706 73.3298 78.705 72.6663 78.7071C72.002 78.7057 71.4619 78.1714 71.4531 77.5071C71.4623 76.8431 72.0022 76.309 72.6663 76.3071C73.3297 76.3095 73.8685 76.8438 73.8763 77.5071Z" fill="#CEDEE7"/>
<path fill-rule="evenodd" clip-rule="evenodd" d="M61.8555 64.8666H64.9135V61.8066H61.8555V64.8666Z" fill="#DEEDF2"/>
<path fill-rule="evenodd" clip-rule="evenodd" d="M127.199 48.0643H130.265V45.0039H127.199V48.0643Z" fill="#DEEDF2"/>
<path fill-rule="evenodd" clip-rule="evenodd" d="M38.0405 56.0596C37.6282 55.9985 37.2121 55.9667 36.7953 55.9644C36.3905 55.9682 35.9865 56 35.5861 56.0596C33.3983 56.3845 31.4298 57.5668 30.115 59.3454C28.8002 61.1239 28.2472 63.3526 28.5781 65.5396C28.577 65.7722 28.6091 66.0039 28.6733 66.2276C28.6679 66.3032 28.6796 66.3791 28.7077 66.4496C28.7357 66.6008 28.7717 66.7512 28.8045 66.8984C28.8341 66.9836 28.8341 67.0688 28.8701 67.1508C28.8965 67.2901 28.9406 67.4254 29.0013 67.5536C29.0341 67.6424 29.0341 67.7276 29.0653 67.8092C29.1293 67.9436 29.1621 68.0744 29.2277 68.202C29.2605 68.282 29.2949 68.366 29.3277 68.4476C29.3688 68.5964 29.4231 68.7413 29.4901 68.8804C29.5593 68.991 29.6149 69.1096 29.6557 69.2336C29.7197 69.3648 29.7853 69.4957 29.8525 69.6264C29.9181 69.738 29.9821 69.8464 30.0477 69.9572C30.0821 70.0392 30.1477 70.1216 30.1805 70.1996C30.2437 70.332 30.3206 70.4573 30.4101 70.5736C30.4429 70.6288 30.4757 70.6884 30.5053 70.7476C30.6037 70.8884 30.6693 71.032 30.7709 71.1728C30.7709 71.1896 30.8021 71.2024 30.8021 71.2188C31.8161 72.7972 33.0285 74.3204 34.0757 75.9448C35.1911 77.6586 35.784 79.6599 35.7821 81.7048V83.0344C35.7897 83.5717 36.2259 84.0042 36.7633 84.0072C37.3005 84.0031 37.7366 83.5715 37.7461 83.0344V81.832C37.7504 79.8059 38.329 77.8225 39.4149 76.112C41.6741 72.614 44.6229 69.6232 45.0509 65.536C45.3811 63.3487 44.8275 61.12 43.5123 59.3415C42.197 57.563 40.2281 56.3809 38.0401 56.056" fill="#1BB3BC"/>
<path fill-rule="evenodd" clip-rule="evenodd" d="M36.7961 61.6968C37.5872 61.6925 38.3471 62.0047 38.9068 62.5638C39.4664 63.1229 39.7793 63.8826 39.7757 64.6736C39.7794 65.4648 39.4666 66.2245 38.9069 66.7837C38.3473 67.3429 37.5873 67.6551 36.7961 67.6508C36.0097 67.6492 35.2563 67.3341 34.7029 66.7753C34.1494 66.2165 33.8417 65.4601 33.8477 64.6736C33.8418 63.8872 34.1496 63.1309 34.703 62.5722C35.2564 62.0134 36.0097 61.6984 36.7961 61.6968Z" fill="white"/>
</g>
</svg>
