<svg width="160" height="160" viewBox="0 0 160 160" fill="none" xmlns="http://www.w3.org/2000/svg">
<mask id="mask0_1487_15666" style="mask-type:luminance" maskUnits="userSpaceOnUse" x="0" y="54" width="160" height="52">
<rect y="54" width="160" height="51.3778" fill="white"/>
</mask>
<g mask="url(#mask0_1487_15666)">
<rect y="54" width="160" height="51.3778" fill="white"/>
<path fill-rule="evenodd" clip-rule="evenodd" d="M28.7169 105.039C22.5948 104.788 15.9809 105.617 10.6149 102.368C5.95711 99.5486 4.83105 91.9843 3.8035 86.7923C3.08705 83.1722 3.46466 79.4039 4.67462 75.8346C7.11319 68.6382 13.0218 62.4439 19.9543 60.7571C24.6476 59.6151 29.5388 55.3205 40.8431 55.3704C43.907 55.3838 51.9898 59.2014 51.9898 59.2014C51.9898 59.2014 74.6904 71.5456 94.5484 75.6188C114.406 79.692 117.614 63.5429 127.466 63.758C137.47 63.9765 149.516 57.684 152.096 57.5319C163.247 56.8741 160.853 79.1564 155.552 92.7207C153.733 97.3758 151.547 101.017 149.46 102.265C141.371 107.104 126.63 105.27 111.342 103.943C96.0543 102.615 92.339 99.0359 72.5427 96.9299C52.7464 94.824 48.0271 105.83 28.7169 105.039Z" fill="#EAF7FE"/>
<path fill-rule="evenodd" clip-rule="evenodd" d="M62.1431 86.4993C59.3087 82.0814 61.2542 78.4254 64.677 75.2394C67.7298 72.3973 82.3695 62.8679 91.8715 63.0842C101.52 63.304 96.9737 86.7429 89.5225 91.2264C82.0713 95.71 64.9776 90.9173 62.1431 86.4993Z" fill="#9BC3D3"/>
<path fill-rule="evenodd" clip-rule="evenodd" d="M128.098 64.562H129.826V60.3828H128.098V64.562Z" fill="#DEEDF2"/>
<path d="M125.055 61.7722C125.055 62.3613 124.821 62.9263 124.404 63.3425C123.987 63.7588 123.422 63.9923 122.833 63.9914C121.608 63.9903 120.616 62.9968 120.617 61.7722C120.616 60.5474 121.608 59.5537 122.833 59.5522C123.422 59.5515 123.987 59.7851 124.404 60.2015C124.821 60.6179 125.055 61.183 125.055 61.7722Z" fill="#DEEDF2"/>
<path d="M129.628 72.8701C129.627 74.3193 129.051 75.7089 128.026 76.7333C127.001 77.7576 125.611 78.3329 124.162 78.3323C121.147 78.3306 118.703 75.8855 118.703 72.8701C118.703 69.8546 121.146 67.4095 124.162 67.4077C125.611 67.4072 127.001 67.9824 128.026 69.0068C129.051 70.0313 129.627 71.4209 129.628 72.8701Z" fill="white"/>
<path fill-rule="evenodd" clip-rule="evenodd" d="M118.298 76.5784L116.592 72.8643L114.81 74.0616C113.955 74.6365 113.295 75.4567 112.916 76.4141L112.196 78.2223C112.042 78.6218 112.07 79.0685 112.273 79.4456C112.506 79.8663 112.935 80.1419 113.414 80.1795C113.894 80.2171 114.36 80.0115 114.656 79.6323L116.641 77.0957L118.298 76.5784Z" fill="#FFC4B8"/>
<path fill-rule="evenodd" clip-rule="evenodd" d="M114.48 91.11L116.466 96.5521C117.118 98.3424 117.939 100.066 118.919 101.701L121.195 104.791L131.912 102.689L122.427 86.5557L114.48 91.11Z" fill="#FFC4B8"/>
<path fill-rule="evenodd" clip-rule="evenodd" d="M119.841 70.6424L116.759 73.9855L114.746 69.8177C114.295 68.8891 113.896 67.9364 113.55 66.9638C113.39 66.4872 113.236 66.0063 113.152 65.6358C113.034 65.1717 112.966 64.6963 112.949 64.2177V63.8739C112.949 63.7947 112.956 63.7156 112.97 63.6376C113.07 62.9904 113.575 62.4809 114.221 62.3754C114.851 62.2709 115.478 62.5743 115.787 63.1329L116.248 63.9891L119.841 70.6424Z" fill="#FFC4B8"/>
<path fill-rule="evenodd" clip-rule="evenodd" d="M121.196 104.786L120.148 103.293L130.179 100.667L130.473 100.451L130.557 100.387L132.521 98.9346L133.716 101.008L134.513 102.382L136.246 105.297C136.246 105.297 131.882 105.536 128.122 105.44C125.801 105.374 123.488 105.156 121.196 104.786Z" fill="#FFC4B8"/>
<path fill-rule="evenodd" clip-rule="evenodd" d="M126.977 95.5748L115.62 93.8365C115.013 93.7451 114.468 93.4159 114.105 92.9217C113.741 92.4275 113.59 91.809 113.683 91.2029L118.31 60.9451C118.506 59.6844 119.684 58.8193 120.945 59.0103L132.303 60.7486C132.91 60.84 133.455 61.1692 133.818 61.6634C134.182 62.1576 134.333 62.7761 134.239 63.3822L129.613 93.64C129.417 94.9007 128.239 95.7658 126.977 95.5748Z" fill="#9E3667"/>
<path d="M126.281 95.4677L114.923 93.7301C113.663 93.5341 112.798 92.3574 112.987 91.0965L117.621 60.8387C117.712 60.2333 118.041 59.6893 118.534 59.3263C119.027 58.9634 119.644 58.8114 120.249 58.9039L131.614 60.6422C132.219 60.7354 132.762 61.0652 133.124 61.5592C133.486 62.0532 133.637 62.6707 133.543 63.2758L128.916 93.5327C128.823 94.1387 128.493 94.6831 127.999 95.0459C127.505 95.4088 126.887 95.5604 126.281 95.4675" fill="white"/>
<path fill-rule="evenodd" clip-rule="evenodd" d="M133.346 64.5617L129.068 92.5316C128.936 93.4011 127.852 93.9569 126.985 93.8234L114.474 91.9096C113.605 91.7754 113.008 90.9639 113.139 90.0945L117.424 62.1252C117.486 61.7081 117.713 61.3331 118.052 61.0829C118.392 60.8326 118.817 60.7276 119.234 60.791L131.745 62.7055C132.619 62.8383 133.478 63.6923 133.345 64.5618" fill="white"/>
<path fill-rule="evenodd" clip-rule="evenodd" d="M129.206 91.605L129.067 92.5305C129.061 92.5768 129.052 92.6227 129.039 92.6676C128.822 93.4574 127.809 93.9495 126.984 93.8231L114.472 91.9086C113.719 91.7946 113.152 91.1608 113.123 90.3989C113.118 90.2969 113.122 90.1946 113.137 90.0935L113.284 89.1675L129.206 91.605Z" fill="#CEDEE7"/>
<path fill-rule="evenodd" clip-rule="evenodd" d="M126.68 61.0342L124.842 60.7526C124.784 60.7424 124.744 60.6891 124.751 60.6309C124.755 60.6021 124.771 60.5764 124.795 60.5596C124.818 60.5428 124.848 60.5365 124.876 60.542L126.715 60.8229C126.743 60.8271 126.767 60.8426 126.783 60.8658C126.799 60.889 126.805 60.9177 126.799 60.9452C126.795 60.9728 126.78 60.9977 126.758 61.0144C126.735 61.0312 126.707 61.0382 126.68 61.0341" fill="#DEEDF2"/>
<path fill-rule="evenodd" clip-rule="evenodd" d="M129.294 61.3258C129.26 61.5357 129.064 61.6794 128.854 61.6481C128.753 61.6331 128.662 61.5782 128.601 61.4958C128.541 61.4133 128.516 61.3101 128.532 61.2092C128.548 61.1079 128.603 61.017 128.685 60.9565C128.768 60.8961 128.871 60.8711 128.973 60.887C129.182 60.9211 129.325 61.1164 129.294 61.326" fill="#DEEDF2"/>
<path fill-rule="evenodd" clip-rule="evenodd" d="M122.722 60.32C122.702 60.4287 122.601 60.5028 122.491 60.4886C122.438 60.4818 122.39 60.4534 122.358 60.4102C122.326 60.367 122.314 60.3127 122.323 60.2599C122.33 60.2078 122.358 60.1607 122.4 60.1291C122.442 60.0974 122.495 60.0839 122.547 60.0914C122.658 60.1077 122.735 60.209 122.722 60.32" fill="#DEEDF2"/>
<path fill-rule="evenodd" clip-rule="evenodd" d="M123.492 60.4383C123.471 60.5467 123.37 60.6205 123.26 60.6061C123.207 60.5993 123.159 60.5709 123.128 60.5277C123.096 60.4845 123.083 60.4302 123.093 60.3775C123.1 60.3254 123.128 60.2784 123.17 60.2468C123.212 60.2153 123.265 60.2019 123.317 60.2097C123.427 60.2258 123.505 60.3273 123.491 60.4383" fill="#DEEDF2"/>
<path fill-rule="evenodd" clip-rule="evenodd" d="M133.345 64.5613L132.667 69.0124L116.738 66.5757L117.423 62.1247C117.486 61.7076 117.713 61.3326 118.052 61.0824C118.392 60.8321 118.817 60.7271 119.234 60.7905L131.745 62.705C132.619 62.8378 133.478 63.6918 133.345 64.5613" fill="#EC0000"/>
<path fill-rule="evenodd" clip-rule="evenodd" d="M118.416 65.6699L126.949 66.9748L126.901 67.2921L118.367 65.9865L118.416 65.6699Z" fill="#EC0000"/>
<path fill-rule="evenodd" clip-rule="evenodd" d="M118.502 65.1299L121.473 65.5834L121.423 65.9007L118.453 65.4463L118.502 65.1299Z" fill="#EC0000"/>
<path fill-rule="evenodd" clip-rule="evenodd" d="M115.175 84.2231L119.334 84.8599L118.698 89.0215L114.539 88.3847L115.175 84.2231Z" fill="#CEDEE7"/>
<path fill-rule="evenodd" clip-rule="evenodd" d="M119.949 84.9541L124.114 85.5909L123.471 89.7509L119.312 89.1141L119.949 84.9541Z" fill="#CEDEE7"/>
<path fill-rule="evenodd" clip-rule="evenodd" d="M124.729 85.6846L128.888 86.3214L128.252 90.483L124.086 89.8462L124.729 85.6846Z" fill="#CEDEE7"/>
<path fill-rule="evenodd" clip-rule="evenodd" d="M129.208 91.6051L129.068 92.5306C129.063 92.577 129.053 92.6228 129.041 92.6677L129.034 92.6665L129.069 92.4225L113.16 89.9877L113.286 89.168L129.208 91.6051Z" fill="#EC0000"/>
<path fill-rule="evenodd" clip-rule="evenodd" d="M134.465 102.766L129.753 104.213L125.623 104.728L125.154 103.766C124.91 103.261 124.736 102.725 124.637 102.173C124.537 101.621 124.513 101.059 124.567 100.5C124.809 97.9958 125.404 95.538 126.335 93.2005C127.13 91.2036 128.165 89.311 129.418 87.565L129.669 87.2078C130.257 86.3887 130.5 85.3721 130.347 84.3757L130.201 83.4173C130.016 82.2119 129.993 80.9874 130.131 79.7758C130.131 79.7758 130.382 76.0057 131.843 73.4811C132.051 73.1415 132.359 72.8743 132.724 72.7157C133.085 72.5519 133.485 72.497 133.877 72.5577C134.029 72.5797 134.174 72.6404 134.296 72.7339C134.56 72.9268 134.703 73.244 134.674 73.5694L134.401 76.8628L134.394 76.9481L135.953 87.1499C136.133 88.3471 136.121 89.5654 135.917 90.7588L135.155 97.0717L134.465 102.766Z" fill="#FFC4B8"/>
<path fill-rule="evenodd" clip-rule="evenodd" d="M113.139 88.2958L113.118 88.3084C112.516 88.6551 111.748 88.4747 111.363 87.8961L109.378 84.9011C108.989 84.3138 109.062 83.5343 109.553 83.0293L109.812 82.7685C109.871 82.707 109.937 82.6513 110.007 82.6021C110.335 82.3735 110.747 82.3005 111.133 82.4025C111.519 82.5046 111.841 82.7713 112.013 83.1319L113.369 85.9528L113.67 86.5854C113.971 87.2064 113.738 87.9546 113.138 88.2958" fill="#FFC4B8"/>
<path fill-rule="evenodd" clip-rule="evenodd" d="M110.792 78.2989L110.45 78.5693C109.788 79.0907 109.581 80.004 109.953 80.7597L111.847 84.6146C112.217 85.3593 113.1 85.6906 113.867 85.3723L113.895 85.3606C114.653 85.0429 115.04 84.196 114.783 83.4153L113.35 79.0685C113.183 78.5635 112.78 78.1716 112.271 78.0184C111.762 77.8652 111.21 77.9698 110.792 78.2989" fill="#FFC4B8"/>
<path fill-rule="evenodd" clip-rule="evenodd" d="M115.632 68.5239L131.265 71.0046L131.02 72.5357L115.387 70.0549L115.632 68.5239Z" fill="#DEEDF2"/>
<path fill-rule="evenodd" clip-rule="evenodd" d="M115.175 72.0298L130.808 74.5105L130.563 76.0415L114.93 73.5608L115.175 72.0298Z" fill="#DEEDF2"/>
<path fill-rule="evenodd" clip-rule="evenodd" d="M108.089 68.0439H118.044C119.517 68.0439 120.711 69.2379 120.711 70.7106V75.5106H108.089C106.616 75.5106 105.422 74.3167 105.422 72.8439V70.7106C105.422 69.2379 106.616 68.0439 108.089 68.0439Z" fill="#34466B"/>
<path fill-rule="evenodd" clip-rule="evenodd" d="M108.089 67.333H118.755C120.228 67.333 121.422 68.5269 121.422 69.9997V74.7997H108.089C106.616 74.7997 105.422 73.6058 105.422 72.133V69.9997C105.422 68.5269 106.616 67.333 108.089 67.333Z" fill="#CEDEE7"/>
<circle cx="109.33" cy="71.0666" r="0.888889" fill="white"/>
<circle cx="112.174" cy="71.0666" r="0.888889" fill="white"/>
<ellipse cx="114.929" cy="71.0666" rx="0.8" ry="0.888889" fill="white"/>
<circle cx="117.686" cy="71.0666" r="0.888889" fill="white"/>
<path fill-rule="evenodd" clip-rule="evenodd" d="M117.191 94.0762L125.572 95.3384L124.763 98.8072L124.061 96.7315C124.061 96.7315 121.03 97.0353 119.313 96.3715C118.292 95.9704 117.511 95.125 117.191 94.0762L117.191 94.0762Z" fill="#F4A48D"/>
<path fill-rule="evenodd" clip-rule="evenodd" d="M110.027 82.6002C110.103 82.5143 110.2 82.45 110.309 82.4137C110.45 82.377 110.596 82.3614 110.741 82.3675L111.891 84.741C112.051 84.9819 112.264 85.1829 112.513 85.3288C112.785 85.451 113.079 85.5138 113.376 85.5129V85.9963C113.376 85.9963 112.452 86.1936 111.626 84.9677C110.801 83.7417 110.027 82.6002 110.027 82.6002Z" fill="#F4A48D"/>
<path fill-rule="evenodd" clip-rule="evenodd" d="M86.6058 78.6108C86.5557 79.4207 86.4563 80.2268 86.3082 81.0246H81.216V86.2157H78.8021V81.0246H73.4453C73.4878 80.214 73.5873 79.4074 73.7429 78.6108H78.8021V73.3862H81.216V78.6108H86.6058Z" fill="white"/>
<path fill-rule="evenodd" clip-rule="evenodd" d="M15.584 92.9458C15.0365 92.9452 14.5638 92.5622 14.4498 92.0267L10.1973 71.9075C10.1245 71.5654 10.2098 71.2087 10.4295 70.9365C10.6493 70.6644 10.98 70.5058 11.3298 70.5049H43.4062C43.9539 70.5058 44.4261 70.8898 44.5387 71.4258L48.7947 91.5431C48.8676 91.8855 48.7821 92.2426 48.5619 92.5148C48.3418 92.7871 48.0106 92.9454 47.6605 92.9458H15.584Z" fill="#34466B"/>
<path fill-rule="evenodd" clip-rule="evenodd" d="M16.4473 92.9458C15.9002 92.945 15.4281 92.5619 15.3148 92.0267L11.0606 71.9075C10.9878 71.5654 11.0731 71.2087 11.2928 70.9365C11.5125 70.6644 11.8433 70.5058 12.1931 70.5049H45.306C45.854 70.5056 46.3269 70.8896 46.4402 71.4258L50.6944 91.5431C50.7673 91.8852 50.682 92.242 50.4622 92.5141C50.2425 92.7863 49.9118 92.9449 49.562 92.9458H16.4473Z" fill="#CEDEE7"/>
<path fill-rule="evenodd" clip-rule="evenodd" d="M49.5598 92.9458H28.582L41.5403 70.5049H45.2985C45.8461 70.5058 46.3184 70.8898 46.4309 71.4258L50.6851 91.5431C50.7577 91.884 50.6733 92.2395 50.4552 92.5114C50.2371 92.7833 49.9084 92.9427 49.5598 92.9458Z" fill="#9BC3D3"/>
<path fill-rule="evenodd" clip-rule="evenodd" d="M17.0755 91.0135L13.1484 72.4375H44.6773L48.6062 91.0135H17.0755Z" fill="#EAF7FE"/>
<path d="M21.1758 70.2573H22.8864" stroke="#EC0000" stroke-width="2"/>
<path d="M28.5352 77.9019H44.1796" stroke="#CEDEE7" stroke-width="8"/>
<path d="M28.5352 80.7461H44.1796" stroke="#CEDEE7" stroke-width="8"/>
<path d="M19.4688 83.5908H44.1799" stroke="#CEDEE7" stroke-width="8"/>
<path d="M19.4688 86.4351H44.1799" stroke="#CEDEE7" stroke-width="8"/>
<path fill-rule="evenodd" clip-rule="evenodd" d="M25.4801 66.073C28.1099 70.6515 26.5445 76.4944 21.9779 79.1447C17.4002 81.7863 11.5479 80.2186 8.90357 75.6425C7.63434 73.4447 7.29028 70.8326 7.94709 68.3811C8.6039 65.9296 10.2078 63.8395 12.4058 62.5706C16.9833 59.9277 22.8367 61.4956 25.4801 66.0729" fill="#DEEDF2"/>
<path d="M25.1214 79.8646L21.4798 78.9414L20.0508 78.5798L22.4785 76.0762L24.0465 76.3151C24.059 76.2923 24.0842 76.2696 24.0968 76.2456L24.1224 76.3252L25.1214 79.8646Z" fill="#CEDEE7"/>
<path fill-rule="evenodd" clip-rule="evenodd" d="M27.2848 64.4749C29.9146 69.0533 28.3491 74.8962 23.7826 77.5465C19.2049 80.1881 13.3525 78.6205 10.7083 74.0443C9.43903 71.8465 9.09496 69.2345 9.75178 66.783C10.4086 64.3315 12.0125 62.2413 14.2105 60.9725C18.788 58.3295 24.6413 59.8975 27.2848 64.4747" fill="white"/>
<path fill-rule="evenodd" clip-rule="evenodd" d="M25.1076 79.8747L21.2383 77.6347L25.1076 75.4004V79.8747Z" fill="white"/>
<g clip-path="url(#clip0_1487_15666)">
<path d="M19.0304 66.9836L15.0864 67.5926L17.9574 70.3476C17.6674 70.6956 17.2904 71.0436 16.8844 71.3336C16.5074 71.5946 16.0724 71.8556 15.6374 72.0296L13.8684 68.4626L12.0994 72.0586C11.6644 71.8846 11.2584 71.6236 10.8524 71.3336C10.4754 71.0726 10.0984 70.7246 9.77941 70.3766L12.6504 67.5636L8.67741 67.0126C8.70641 66.5486 8.82241 66.0556 8.96741 65.5916C9.11241 65.1276 9.31541 64.6926 9.54741 64.2866L13.1144 66.1426L12.4184 62.1986C12.8534 62.0826 13.3464 62.0536 13.8394 62.0536C14.3324 62.0536 14.8254 62.0826 15.2894 62.1986L14.6224 66.1426L18.1314 64.2576C18.3924 64.6636 18.5664 65.0986 18.7114 65.5916C18.8854 66.0266 19.0014 66.5196 19.0304 66.9836Z" fill="#EC0000"/>
</g>
<g clip-path="url(#clip1_1487_15666)">
<path d="M21.5187 66.9836L17.5747 67.5926L20.4457 70.3476C20.1557 70.6956 19.7787 71.0436 19.3727 71.3336C18.9957 71.5946 18.5607 71.8556 18.1257 72.0296L16.3567 68.4626L14.5877 72.0586C14.1527 71.8846 13.7467 71.6236 13.3407 71.3336C12.9637 71.0726 12.5867 70.7246 12.2677 70.3766L15.1387 67.5636L11.1657 67.0126C11.1947 66.5486 11.3107 66.0556 11.4557 65.5916C11.6007 65.1276 11.8037 64.6926 12.0357 64.2866L15.6027 66.1426L14.9067 62.1986C15.3417 62.0826 15.8347 62.0536 16.3277 62.0536C16.8207 62.0536 17.3137 62.0826 17.7777 62.1986L17.1107 66.1426L20.6197 64.2576C20.8807 64.6636 21.0547 65.0986 21.1997 65.5916C21.3737 66.0266 21.4897 66.5196 21.5187 66.9836Z" fill="#EC0000"/>
</g>
<g clip-path="url(#clip2_1487_15666)">
<path d="M24.007 66.9836L20.063 67.5926L22.934 70.3476C22.644 70.6956 22.267 71.0436 21.861 71.3336C21.484 71.5946 21.049 71.8556 20.614 72.0296L18.845 68.4626L17.076 72.0586C16.641 71.8846 16.235 71.6236 15.829 71.3336C15.452 71.0726 15.075 70.7246 14.756 70.3766L17.627 67.5636L13.654 67.0126C13.683 66.5486 13.799 66.0556 13.944 65.5916C14.089 65.1276 14.292 64.6926 14.524 64.2866L18.091 66.1426L17.395 62.1986C17.83 62.0826 18.323 62.0536 18.816 62.0536C19.309 62.0536 19.802 62.0826 20.266 62.1986L19.599 66.1426L23.108 64.2576C23.369 64.6636 23.543 65.0986 23.688 65.5916C23.862 66.0266 23.978 66.5196 24.007 66.9836Z" fill="#EC0000"/>
</g>
<path d="M21.1797 69.9019H22.8903" stroke="#EC0000" stroke-width="2"/>
<rect x="12.5352" y="67.0664" width="12.0889" height="4.8" rx="2.4" stroke="#EC0000" stroke-width="3"/>
</g>
<defs>
<clipPath id="clip0_1487_15666">
<rect width="2.31111" height="7.46667" fill="white" transform="translate(13.6914 66.2666)"/>
</clipPath>
<clipPath id="clip1_1487_15666">
<rect width="2.31111" height="7.46667" fill="white" transform="translate(16.1797 66.2666)"/>
</clipPath>
<clipPath id="clip2_1487_15666">
<rect width="2.31111" height="7.46667" fill="white" transform="translate(18.668 66.2666)"/>
</clipPath>
</defs>
</svg>
