<svg width="160" height="160" viewBox="0 0 160 160" fill="none" xmlns="http://www.w3.org/2000/svg">
<mask id="mask0_1483_87232" style="mask-type:luminance" maskUnits="userSpaceOnUse" x="13" y="0" width="134" height="160">
<rect x="13" y="0.25" width="133.194" height="159.5" fill="white"/>
</mask>
<g mask="url(#mask0_1483_87232)">
<rect x="13" y="0.25" width="133.194" height="159.5" fill="white"/>
<path fill-rule="evenodd" clip-rule="evenodd" d="M105.533 43.4571C105.533 43.4571 139.37 41.3456 145.021 55.4206C150.672 69.4956 134.455 84.3237 128.138 99.7576C121.822 115.191 136.277 129.572 125.691 135.349C115.105 141.126 106.879 133.993 96.7072 128.021C86.5351 122.048 48.9005 146.053 34.5591 140.632C20.2178 135.212 5.42824 117.472 17.3837 102.306C29.3393 87.1395 24.1883 94.3609 42.7852 66.6762C61.3821 38.9914 105.533 43.4571 105.533 43.4571Z" fill="#CEDEE7"/>
<path fill-rule="evenodd" clip-rule="evenodd" d="M81.4582 119.698C81.4582 119.698 31.7185 131.818 24.7082 124.648C13.6954 113.38 36.0024 104.935 34.1317 87.1205C32.261 69.3058 10.1178 64.1638 17.226 53.3931C24.3342 42.6223 29.8824 39.057 42.5915 39.6544C55.3006 40.2518 55.2027 46.2878 71.5899 44.2779C87.9771 42.268 92.8646 30.5609 108.141 31.6181C123.417 32.6754 116.746 38.758 122.184 49.0836C127.623 59.4091 129.836 66.1214 129.895 72.9207C129.998 84.9857 122.184 111.035 122.184 111.035L81.4582 119.698Z" fill="#EAF7FE"/>
<circle cx="130.4" cy="77.3534" r="0.0169624" stroke="#CCCCCC" stroke-width="0.332985"/>
<path fill-rule="evenodd" clip-rule="evenodd" d="M58.9119 137.107L62.2954 135.921L62.3693 55.3262H58.8633L58.9119 137.107Z" fill="#9E3667"/>
<path fill-rule="evenodd" clip-rule="evenodd" d="M34.9576 53.0102C35.7235 39.0645 39.2595 34.719 30.9428 22.0849C24.7719 12.724 28.4771 8.78978 32.406 5.86251C38.2685 1.17674 52.166 -2.40219 67.2615 2.85032C77.6197 11.0341 59.8796 11.3265 90.0138 24.4967C102.068 29.7612 103.466 45.0176 85.9996 50.6074C78.7655 52.9237 67.8616 54.7617 60.9238 85.0454C56.4951 104.428 33.5012 79.4653 34.9576 53.0099" fill="#2C9891"/>
<path fill-rule="evenodd" clip-rule="evenodd" d="M40.1009 46.4039C40.8668 32.4585 44.4027 28.1127 36.0861 15.4786C29.9152 6.11767 47.1452 -1.98553 61.2821 1.02166C75.419 4.02885 65.0225 4.72046 95.1564 17.8904C107.21 23.1549 108.609 38.4113 91.1422 44.0011C83.9078 46.3173 73.0039 48.1551 66.0664 78.4391C61.6377 97.8212 38.6438 72.8589 40.1002 46.4036" fill="#8AD7C4"/>
</g>
</svg>
