<svg width="160" height="160" viewBox="0 0 160 160" fill="none" xmlns="http://www.w3.org/2000/svg">
<path fill-rule="evenodd" clip-rule="evenodd" d="M41.8933 41.897C43.2233 37.1255 38.9953 36.9414 38.9022 30.7932C38.8643 28.2787 40.2416 25.7177 43.5562 24.5429C45.1852 23.9658 46.8087 23.569 48.2581 22.6509C51.561 20.5591 51.5013 16.5786 52.4025 13.1853C54.3811 5.73273 61.9967 -0.188036 69.7054 0.00456916C75.2626 0.143159 80.2866 0.313495 85.3529 5.0303C88.8195 8.25792 91.0725 12.2292 94.2909 15.5565C97.6993 19.08 101.852 20.7706 106.516 21.9028C110.926 22.9734 115.724 24.2472 119.1 27.4578C122.272 30.4748 121.81 33.6304 120.45 37.3349C118.95 41.4199 122.202 44.199 125.594 45.7898C128.449 47.1291 133.229 49.8533 133.385 54.8764C133.869 70.435 123.986 70.4973 120.302 71.9761C86.4064 85.5797 73.3986 75.0871 59.0264 75.2994C44.6992 75.5107 36.4864 58.1843 36.9842 53.0818C37.6157 46.6031 40.9644 45.2288 41.8933 41.897Z" fill="#DEEDF2"/>
<path fill-rule="evenodd" clip-rule="evenodd" d="M98.2695 67.6492C101.992 68.6456 103.151 70.8718 106.997 71.2272C114.722 71.9411 130.539 69.4137 133.164 72.8705C135.751 76.2784 133.145 82.9174 119.405 81.9698C119.724 82.1966 112.998 86.3454 101.819 88.1548C97.3959 88.8708 89.9011 88.9897 86.9757 88.3055C82.4792 87.2538 77.8564 86.8427 73.2436 87.0604C56.8374 87.8349 43.8624 86.8731 43.5153 84.0715C43.3991 83.1351 44.2537 81.766 45.6822 80.9047C46.5723 80.368 45.1891 80.0649 44.8665 79.9736C40.9037 78.8527 38.6268 77.451 38.4616 76.2232C37.9432 72.3705 51.9426 67.5368 68.5682 65.4763C79.8946 64.0726 92.0557 65.9859 98.2695 67.6492Z" fill="#DEEDF2"/>
<path fill-rule="evenodd" clip-rule="evenodd" d="M55.7109 81.5015L55.281 85.4951C54.5521 92.2685 57.0449 98.9911 62.0122 103.649L68.5225 109.754L59.6854 139.028L65.8941 145.462L80.9852 112.724C81.8718 109.11 81.5167 105.302 79.9765 101.914L72.037 84.4514L55.7109 81.5015Z" fill="#9BC3D3"/>
<path fill-rule="evenodd" clip-rule="evenodd" d="M63.3258 150.644L59.6055 146.835L80.6038 109.734L68.6007 83.8013L83.5586 86.6091L89.2622 95.0537C94.8407 103.064 95.6526 107.551 92.1371 112.74L70.6663 143.844L68.1819 148.83L63.3258 150.644Z" fill="#DEEDF2"/>
<path fill-rule="evenodd" clip-rule="evenodd" d="M59.2239 136.424L65.7808 136.534L65.2042 140.918L65.7997 140.689L72.0506 142.672L67.6506 152.495L68.9723 160L65.6943 159.889L60.7954 151.142L51.6484 142.275L59.2239 136.424Z" fill="#34466B"/>
<rect x="26" y="82.5332" width="85.6248" height="9.80043" fill="white"/>
<path fill-rule="evenodd" clip-rule="evenodd" d="M84.465 32.6071C83.939 31.4851 83.1765 30.4329 82.1286 29.5374C79.0751 26.9292 74.571 26.604 71.1917 28.7776C66.6704 31.6861 65.6425 37.7406 68.8187 41.9506C69.1868 42.4385 69.5961 42.8772 70.036 43.2701L64.9414 54.7501L76.4103 56.4156L80.1694 49.3926L81.5181 48.8065C83.8142 47.8087 85.429 45.6995 85.7875 43.2302L85.8118 43.0651L86.9097 42.8653L85.8306 37.4881L84.465 32.6071Z" fill="#F4A48D"/>
<path fill-rule="evenodd" clip-rule="evenodd" d="M80.4417 49.3185C80.4425 49.3871 80.443 49.4565 80.4432 49.5267C80.4434 49.6597 80.4434 49.7949 80.4434 49.7481C80.4434 49.6734 80.4434 49.5996 80.4432 49.5267C80.443 49.438 80.4428 49.3504 80.4423 49.3185L80.4417 49.3185ZM72.8265 44.9497C72.811 44.993 72.7957 45.0643 72.7773 45.1989C73.4996 47.5141 76.5965 49.6511 80.416 49.3179C77.044 49.2378 74.0864 46.8859 72.8265 44.9497ZM85.8206 43.0167L84.308 39.0278L84.412 41.9517C84.4375 42.6731 85.1194 43.1887 85.8206 43.0167Z" fill="#A66555"/>
<path fill-rule="evenodd" clip-rule="evenodd" d="M67.0974 33.6331C68.3737 29.9712 71.8675 27.3413 75.9785 27.3413C79.3426 27.3413 82.2942 29.1028 83.955 31.7502C83.5192 35.0607 81.3475 37.8279 78.3796 39.1133C78.0454 38.189 77.415 37.5842 76.8302 37.6988C76.2058 37.8211 75.8427 38.7227 75.9427 39.7958C75.6115 39.8417 75.2748 39.8704 74.9335 39.8809L74.0461 49.0002C74.0461 49.0002 62.1703 53.6992 58.7539 47.704L67.0306 33.6135L67.0974 33.6331Z" fill="#444444"/>
<path fill-rule="evenodd" clip-rule="evenodd" d="M93.9167 82.9966L101.32 82.9864L97.2632 75.2035L96.2195 68.8476C95.4528 64.1771 92.678 60.1262 88.7037 57.7073C87.9778 57.2684 81.2843 56.8789 80.4831 56.5524L65.3328 50.3856C64.9186 50.2164 64.5041 50.0779 64.085 49.9629C59.4628 48.7152 54.4917 50.7036 52.0434 54.9449L43.3801 69.9505C40.5212 74.903 42.6456 80.8372 47.4411 83.0024L47.6327 83.0605L88.8721 83.0036L86.8843 74.9626L93.9402 82.9965L93.9167 82.9966Z" fill="#F6C854"/>
<path fill-rule="evenodd" clip-rule="evenodd" d="M51.383 79.9946L51.5463 80.0025L55.8149 80.2671C56.9305 80.3362 57.873 81.1077 58.1655 82.183L58.183 82.2506L58.3919 83.1063L56.4774 83.0966L55.2189 86.9062C55.1431 87.1421 54.9314 87.303 54.6874 87.3202L54.644 87.3217H54.268C53.9812 87.3217 53.7371 87.1245 53.6758 86.8485L53.6683 86.8085L53.5755 86.1989L53.4891 86.8024C53.4499 87.0886 53.2129 87.3024 52.9283 87.3205L52.8892 87.3217H52.2723C51.9955 87.3217 51.7579 87.1344 51.6867 86.8709L51.6773 86.8308L51.5883 86.3584L51.4895 86.8407C51.434 87.1068 51.207 87.3023 50.9367 87.3203L50.8958 87.3217H50.6671C50.4309 87.3217 50.2198 87.1848 50.1206 86.9749L50.1033 86.9347L48.5316 82.8602C48.0395 81.5865 48.8891 80.1942 50.2493 80.0384C50.6225 79.9962 51.0023 79.9805 51.383 79.9946ZM88.7345 42.5665C88.9014 42.2599 89.2476 42.0806 89.6087 42.1374C90.0019 42.1993 90.2938 42.5418 90.2938 42.9413L90.2925 46.0333C90.2932 46.0496 90.2939 46.064 90.2939 46.0766C90.294 46.0805 90.2939 46.0841 90.2938 46.0877C90.2936 46.0931 90.2932 46.098 90.2925 46.1027V46.1365L90.9898 46.6804L92.1176 47.5596C92.4131 47.7909 92.5454 48.1768 92.4527 48.5402L90.4099 56.976L90.4098 56.9763L100.903 74.0561C101.687 74.8625 102.402 75.9186 102.948 77.1503C104.462 80.5681 104.094 84.0478 102.127 84.9184C100.159 85.7901 97.3373 83.7226 95.8238 80.3048C95.6892 80.0008 95.5694 79.6963 95.4644 79.3932L86.1635 59.5192L84.7526 56.861C84.2914 55.9954 84.2518 54.9692 84.6426 54.0715L85.3276 52.5047L84.7378 51.6428L84.7155 52.0051C84.697 52.2697 84.4929 52.4825 84.2308 52.5132L84.1838 52.5194C83.8685 52.5578 83.5865 52.318 83.5692 52.0025L83.5198 51.048L82.8829 51.2657C82.6814 51.3348 82.4576 51.2507 82.35 51.0666C82.2659 50.9268 82.2696 50.7574 82.3426 50.6227C82.366 50.5807 82.3945 50.541 82.4304 50.5077L83.427 49.5826L84.6512 48.3029C84.8565 48.0878 85.1693 48.0158 85.4476 48.1174L87.7488 48.9608L85.5378 47.7613C85.4513 47.7229 85.361 47.7007 85.267 47.6919L81.9122 47.3914C81.5128 47.3569 81.2396 46.9662 81.3484 46.5754C81.4287 46.2897 81.7082 46.1042 82.0025 46.1042L86.239 46.0993C86.3651 46.0993 86.49 46.1264 86.605 46.1795L88.6107 47.1183L86.8807 45.6591C86.7942 45.5835 86.6915 45.5304 86.5827 45.4994L83.0301 44.498C82.6826 44.4015 82.4934 44.0281 82.6171 43.6918C82.7209 43.4099 83.0091 43.2441 83.3034 43.2949L86.584 43.8723L87.4273 44.0219C87.5571 44.0441 87.6796 44.0972 87.7834 44.179L88.2707 44.5586L88.2707 44.5581L88.4538 43.7147L88.4539 43.715L88.6516 42.794C88.6689 42.7125 88.6961 42.6359 88.7345 42.5665ZM56.4989 83.0321L56.4086 83.0964L56.4775 83.0966L56.4989 83.0321ZM64.0876 49.963C64.4457 50.0605 64.804 50.1771 65.1583 50.3152L65.3351 50.386L67.7086 51.3519C67.7288 51.2627 67.7198 51.1932 67.7154 51.169L67.7135 51.1597L78.0153 51.9461C77.8748 53.5056 78.1708 54.7536 78.6525 55.7357L78.6968 55.8242L80.4867 56.5528C81.2893 56.8803 82.056 57.2687 82.7818 57.7077C81.1038 62.7169 76.0204 65.7737 70.927 64.6398C65.4712 63.4242 62.0669 57.856 63.3257 52.2011C63.5013 51.4135 63.7598 50.6643 64.0876 49.963Z" fill="#F4A48D"/>
<path fill-rule="evenodd" clip-rule="evenodd" d="M63.0317 83.7103L63.1445 85.5538L78.8203 84.5925L78.7073 82.749C73.4821 83.0695 68.2567 83.3899 63.0317 83.7103Z" fill="#EC0000"/>
<path fill-rule="evenodd" clip-rule="evenodd" d="M75.3208 85.0337L106.08 85.0931C106.664 85.0941 107.17 84.6852 107.292 84.1118L111.878 62.6264C112.043 61.855 111.458 61.1269 110.671 61.1259L79.9135 61.0664C79.3292 61.0654 78.8236 61.4744 78.7012 62.0478L74.1134 83.5328C73.9486 84.304 74.534 85.0322 75.3208 85.0337Z" fill="white"/>
<path fill-rule="evenodd" clip-rule="evenodd" d="M79.7053 62.0505L75.1179 83.5362C74.9534 84.3061 75.5386 85.0332 76.325 85.0362L89.2047 85.0599L105.536 85.0931L107.083 85.0954C107.667 85.0967 108.174 84.687 108.296 84.1126L112.883 62.6295C112.962 62.2532 112.865 61.8868 112.652 61.6125C112.429 61.3208 112.079 61.1281 111.674 61.1284L99.1082 61.1026L80.9188 61.0679C80.3342 61.0668 79.8271 61.4762 79.7053 62.0505Z" fill="#EC0000"/>
<path fill-rule="evenodd" clip-rule="evenodd" d="M99.1081 61.1025L105.536 85.093L107.083 85.0956C107.667 85.0963 108.175 84.687 108.296 84.1126L112.883 62.6293C112.962 62.2532 112.865 61.8868 112.652 61.6124C112.429 61.3211 112.079 61.1283 111.674 61.1284L99.1081 61.1025Z" fill="#EC0000"/>
<path fill-rule="evenodd" clip-rule="evenodd" d="M100.833 8.44901C100.444 5.28916 97.7511 2.84277 94.4871 2.84277C90.9558 2.84277 88.0929 5.70632 88.0929 9.23884C88.0929 9.81838 88.1699 10.3799 88.3145 10.9137C88.2602 10.9145 88.2063 10.9164 88.1528 10.9195L88.0926 10.9145V10.9235C86.2612 11.0611 84.8175 12.5914 84.8175 14.4589C84.8175 16.3263 86.2612 17.8566 88.0926 17.9942V18.0048H111.373V18.0044H111.373C112.8 18.0044 113.957 16.847 113.957 15.4194C113.957 13.9919 112.8 12.8346 111.373 12.8346H111.373V12.8345L105.475 12.348C105.502 12.1718 105.516 11.9914 105.516 11.8076C105.516 9.84958 103.929 8.2622 101.972 8.2622C101.573 8.2622 101.191 8.32788 100.833 8.44901Z" fill="#DEEDF2"/>
<path fill-rule="evenodd" clip-rule="evenodd" d="M86.3503 16.6732C86.0657 14.3527 84.0951 12.5562 81.7068 12.5562C79.1229 12.5562 77.0282 14.6591 77.0282 17.2533C77.0282 17.6789 77.0845 18.0912 77.1903 18.4833C77.1505 18.4838 77.1112 18.4852 77.072 18.4875L77.0279 18.4839V18.4904C75.6879 18.5915 74.6315 19.7153 74.6315 21.0867C74.6315 22.4581 75.6879 23.5819 77.0279 23.683V23.6908H94.0624V23.6905H94.0625C95.1066 23.6905 95.9531 22.8405 95.9531 21.7921C95.9531 20.7438 95.1066 19.8939 94.0625 19.8939H94.0624V19.8938L89.7466 19.5366C89.7664 19.4072 89.7766 19.2746 89.7766 19.1397C89.7766 17.7018 88.6155 16.536 87.1832 16.536C86.8919 16.536 86.6118 16.5843 86.3503 16.6732Z" fill="#EAF7FE"/>
<path fill-rule="evenodd" clip-rule="evenodd" d="M49.7524 16.9976C50.0403 14.6278 52.0327 12.793 54.4476 12.793C57.0602 12.793 59.1782 14.9406 59.1782 17.59C59.1782 18.0247 59.1212 18.4458 59.0143 18.8462C59.0545 18.8467 59.0943 18.8482 59.1339 18.8505L59.1784 18.8468V18.8535C60.5334 18.9567 61.6015 20.1045 61.6015 21.505C61.6015 22.9056 60.5334 24.0533 59.1784 24.1565V24.1645H41.9547V24.1642H41.9547C40.8989 24.1642 40.043 23.2961 40.043 22.2255C40.043 21.1548 40.8989 20.2868 41.9547 20.2868H41.9547V20.2867L46.3184 19.9219C46.2985 19.7898 46.2881 19.6544 46.2881 19.5166C46.2881 18.0481 47.4621 16.8575 48.9103 16.8575C49.2049 16.8575 49.4881 16.9068 49.7524 16.9976Z" fill="#EAF7FE"/>
</svg>
