<svg width="160" height="161" viewBox="0 0 160 161" fill="none" xmlns="http://www.w3.org/2000/svg">
<path fill-rule="evenodd" clip-rule="evenodd" d="M38.8716 31.7191C38.8338 29.2106 40.2079 26.6558 43.5144 25.4839C45.1395 24.9081 46.7591 24.5123 48.205 23.5965C51.5 21.5096 51.4405 17.5387 52.3395 14.1536C54.3134 6.71895 61.9107 0.812416 69.6008 1.00456C75.1446 1.14282 80.1566 1.31274 85.2106 6.01821C88.6689 9.23806 90.9165 13.1998 94.1271 16.5191C97.5273 20.0342 101.671 21.7207 106.323 22.8501C110.723 23.9181 115.509 25.1889 118.877 28.3917C122.041 31.4015 121.58 34.5495 120.223 38.2451C118.727 42.3202 121.971 45.0927 125.355 46.6797C128.203 48.0157 132.971 50.7334 133.127 55.7444C133.61 71.2656 123.751 71.3278 120.075 72.803C86.2616 86.3739 73.2851 75.9065 58.9475 76.1183C44.6548 76.3291 36.4617 59.0444 36.9582 53.9542C37.5883 47.4911 40.9289 46.1201 41.8556 42.7962C43.1824 38.0362 38.9645 37.8525 38.8716 31.7191Z" fill="#EAF7FE"/>
<path fill-rule="evenodd" clip-rule="evenodd" d="M98.0953 68.4865C101.809 69.4804 102.965 71.7013 106.802 72.0559C114.508 72.768 130.288 70.2467 132.906 73.6952C135.486 77.0949 132.887 83.7179 119.18 82.7726C119.498 82.9988 112.788 87.1377 101.636 88.9427C97.2238 89.657 89.747 89.7756 86.8287 89.0931C82.343 88.0439 77.7313 87.6337 73.1296 87.8509C56.7628 88.6236 43.8191 87.6641 43.4728 84.8692C43.3569 83.9351 44.2094 82.5693 45.6345 81.7101C46.5225 81.1747 45.1426 80.8723 44.8207 80.7812C40.8675 79.663 38.5961 78.2646 38.4312 77.0398C37.9141 73.1964 51.8799 68.3743 68.4655 66.3187C79.7646 64.9184 91.8964 66.8272 98.0953 68.4865Z" fill="#CEDEE7"/>
<path fill-rule="evenodd" clip-rule="evenodd" d="M55.6392 82.3052L55.2104 86.2892C54.4833 93.0463 56.97 99.7527 61.9254 104.4L68.42 110.49L59.6042 139.693L65.7979 146.112L80.8527 113.453C81.7373 109.847 81.383 106.049 79.8465 102.669L71.926 85.248L55.6392 82.3052Z" fill="#9BC3D3"/>
<path fill-rule="evenodd" clip-rule="evenodd" d="M63.2348 151.281L59.5234 147.482L80.4713 110.47L68.497 84.5996L83.419 87.4007L89.1089 95.825C94.674 103.816 95.4839 108.292 91.9768 113.469L70.5576 144.498L68.0792 149.472L63.2348 151.281Z" fill="#CEDEE7"/>
<path d="M59.1432 137.096L65.6843 137.205L65.1091 141.579L65.7032 141.351L71.939 143.329L67.5496 153.128L68.8681 160.615L65.598 160.505L60.7109 151.778L51.5859 142.932L59.1432 137.096Z" fill="#34466B"/>
<rect x="26" y="83.3345" width="85.4188" height="9.77686" fill="white"/>
<path fill-rule="evenodd" clip-rule="evenodd" d="M84.3282 33.5285C83.8035 32.4092 83.0428 31.3595 81.9974 30.4662C78.9513 27.8643 74.458 27.5399 71.0868 29.7083C66.5764 32.6097 65.5509 38.6497 68.7195 42.8496C69.0868 43.3363 69.4951 43.7739 69.9339 44.1659L64.8516 55.6183L76.2928 57.2798L80.043 50.2737L81.3884 49.6889C83.679 48.6936 85.2899 46.5895 85.6476 44.1261L85.6717 43.9614L86.767 43.7621L85.6905 38.3978L84.3282 33.5285Z" fill="#F4A48D"/>
<path fill-rule="evenodd" clip-rule="evenodd" d="M80.3126 50.1997C80.3134 50.2681 80.3139 50.3374 80.3141 50.4075C80.3143 50.5401 80.3143 50.675 80.3143 50.6283C80.3143 50.5538 80.3143 50.4802 80.3141 50.4075C80.3139 50.319 80.3137 50.2315 80.3133 50.1997L80.3126 50.1997ZM72.717 45.8412C72.7016 45.8844 72.6863 45.9555 72.668 46.0898C73.3885 48.3994 76.4779 50.5312 80.2883 50.1989C76.9243 50.119 73.9739 47.7728 72.717 45.8412ZM85.6809 43.9129L84.1719 39.9336L84.2756 42.8504C84.301 43.5701 84.9813 44.0844 85.6809 43.9129Z" fill="#A66555"/>
<path d="M66.9992 34.552C68.2725 30.8989 71.7579 28.2754 75.859 28.2754C79.215 28.2754 82.1595 30.0327 83.8162 32.6736C83.3815 35.9763 81.2151 38.7367 78.2543 40.0191C77.9209 39.097 77.292 38.4936 76.7087 38.6079C76.0857 38.73 75.7235 39.6294 75.8232 40.6999C75.4928 40.7457 75.1569 40.7744 74.8164 40.7848L73.9312 49.8822C73.9312 49.8822 62.0839 54.5699 58.6758 48.5891L66.9325 34.5325L66.9992 34.552Z" fill="#444444"/>
<path d="M93.7548 83.7966L101.141 83.7864L97.0932 76.0223L96.0521 69.6816C95.2873 65.0224 92.5191 60.9813 88.5544 58.5682C87.8302 58.1303 81.1528 57.7418 80.3535 57.416L65.2396 51.2641C64.8264 51.0953 64.413 50.9571 63.9949 50.8424C59.3838 49.5976 54.4246 51.5813 51.9822 55.8124L43.3397 70.782C40.4877 75.7225 42.607 81.6425 47.3909 83.8025L47.5821 83.8604L88.7223 83.8036L86.7394 75.7819L93.7782 83.7965L93.7548 83.7966Z" fill="#F6C854"/>
<path fill-rule="evenodd" clip-rule="evenodd" d="M51.3212 80.802L51.484 80.8099L55.7423 81.0739C56.8553 81.1427 57.7955 81.9124 58.0873 82.9851L58.1047 83.0525L58.3131 83.9062L56.4033 83.8965L55.1477 87.697C55.0722 87.9323 54.861 88.0928 54.6175 88.11L54.5743 88.1115H54.1991C53.913 88.1115 53.6696 87.9148 53.6084 87.6394L53.6009 87.5995L53.5083 86.9914L53.4221 87.5934C53.383 87.8789 53.1466 88.0922 52.8627 88.1102L52.8237 88.1115H52.2083C51.9321 88.1115 51.6952 87.9246 51.6241 87.6617L51.6147 87.6217L51.5259 87.1505L51.4274 87.6316C51.372 87.8971 51.1456 88.0921 50.8759 88.1101L50.8351 88.1115H50.6069C50.3713 88.1115 50.1608 87.9749 50.0617 87.7655L50.0445 87.7254L48.4766 83.6607C47.9857 82.3901 48.8332 81.0011 50.1901 80.8456C50.5625 80.8035 50.9413 80.7879 51.3212 80.802ZM88.5837 43.4639C88.7503 43.158 89.0957 42.9792 89.4559 43.0358C89.8481 43.0975 90.1393 43.4392 90.1393 43.8378L90.138 46.9224C90.1387 46.9386 90.1394 46.953 90.1394 46.9656C90.1395 46.9694 90.1394 46.973 90.1393 46.9766C90.1391 46.982 90.1387 46.9869 90.138 46.9916V47.0253L90.8336 47.5679L91.9587 48.445C92.2535 48.6758 92.3855 49.0607 92.293 49.4232L90.2551 57.8387L90.255 57.839L100.723 74.8778C101.505 75.6822 102.219 76.7358 102.763 77.9645C104.274 81.3741 103.906 84.8454 101.944 85.7139C99.9809 86.5836 97.1659 84.521 95.656 81.1114C95.5217 80.8081 95.4022 80.5044 95.2974 80.202L86.0189 60.3758L84.6115 57.724C84.1513 56.8605 84.1118 55.8368 84.5016 54.9412L85.185 53.3782L84.5966 52.5183L84.5744 52.8798C84.5559 53.1438 84.3524 53.356 84.0909 53.3867L84.044 53.3928C83.7294 53.4312 83.4482 53.1919 83.4309 52.8772L83.3815 51.925L82.7463 52.1422C82.5452 52.2111 82.3219 52.1272 82.2146 51.9435C82.1307 51.8041 82.1344 51.6351 82.2072 51.5008C82.2306 51.4588 82.259 51.4192 82.2948 51.386L83.289 50.4631L84.5103 49.1865C84.7151 48.9719 85.0271 48.9001 85.3047 49.0015L87.6004 49.8428L85.3948 48.6462C85.3084 48.6078 85.2184 48.5857 85.1246 48.577L81.7779 48.2772C81.3795 48.2427 81.1068 47.853 81.2154 47.4632C81.2956 47.1781 81.5743 46.9931 81.8679 46.9931L86.0942 46.9882C86.22 46.9882 86.3446 47.0152 86.4594 47.0682L88.4602 48.0048L86.7344 46.549C86.6481 46.4736 86.5457 46.4206 86.4372 46.3898L82.8931 45.3907C82.5464 45.2945 82.3577 44.922 82.4811 44.5865C82.5847 44.3052 82.8721 44.1398 83.1657 44.1905L86.4384 44.7666L87.2797 44.9158C87.4092 44.9379 87.5313 44.9909 87.635 45.0725L88.121 45.4512L88.1211 45.4507L88.3037 44.6094L88.3038 44.6096L88.501 43.6908C88.5183 43.6095 88.5455 43.5331 88.5837 43.4639ZM56.4247 83.8322L56.3347 83.8963L56.4034 83.8965L56.4247 83.8322ZM63.9937 50.8428C64.351 50.94 64.7084 51.0564 65.0619 51.1941L65.2382 51.2647L67.606 52.2283C67.6262 52.1393 67.6172 52.07 67.6128 52.0458L67.6109 52.0366L77.8879 52.821C77.7478 54.3768 78.0431 55.6218 78.5236 56.6015L78.5678 56.6898L80.3535 57.4167C81.1541 57.7434 81.9189 58.1309 82.643 58.5688C80.969 63.566 75.8978 66.6154 70.8167 65.4842C65.3741 64.2716 61.9779 58.7167 63.2337 53.0755C63.4089 52.2897 63.6667 51.5423 63.9937 50.8428Z" fill="#F4A48D"/>
<path fill-rule="evenodd" clip-rule="evenodd" d="M62.9407 84.5093L63.0533 86.3483L78.6914 85.3893L78.5786 83.5503C73.366 83.87 68.1532 84.1896 62.9407 84.5093Z" fill="#2A8FEC"/>
<path fill-rule="evenodd" clip-rule="evenodd" d="M75.2018 85.8291L105.887 85.8884C106.47 85.8894 106.974 85.4814 107.096 84.9094L111.671 63.4756C111.836 62.7062 111.252 61.9798 110.467 61.9788L79.7834 61.9194C79.2005 61.9184 78.6961 62.3264 78.574 62.8984L73.9973 84.3318C73.8328 85.1011 74.4169 85.8275 75.2018 85.8291Z" fill="white"/>
<path fill-rule="evenodd" clip-rule="evenodd" d="M79.5742 62.9012L74.9979 84.3352C74.8338 85.1033 75.4175 85.8285 76.202 85.8316L89.0507 85.8552L105.343 85.8883L106.886 85.8907C107.469 85.8919 107.975 85.4832 108.096 84.9102L112.672 63.4788C112.751 63.1034 112.654 62.7379 112.442 62.4642C112.219 62.1733 111.87 61.981 111.466 61.9813L98.9305 61.9555L80.7848 61.9209C80.2017 61.9198 79.6957 62.3282 79.5742 62.9012Z" fill="#2A8FEC"/>
<path d="M98.9303 61.9556L105.343 85.8883L106.886 85.8909C107.469 85.8916 107.975 85.4833 108.096 84.9103L112.672 63.4786C112.751 63.1035 112.654 62.7379 112.442 62.4642C112.219 62.1736 111.87 61.9813 111.466 61.9813L98.9303 61.9556Z" fill="#2A8FEC"/>
<path fill-rule="evenodd" clip-rule="evenodd" d="M100.654 9.42869C100.266 6.27644 97.5792 3.83594 94.323 3.83594C90.8002 3.83594 87.9442 6.6926 87.9442 10.2166C87.9442 10.7948 88.021 11.355 88.1652 11.8875C88.111 11.8882 88.0573 11.8901 88.0039 11.8933L87.9439 11.8883V11.8972C86.1168 12.0345 84.6767 13.5612 84.6767 15.4241C84.6767 17.287 86.1168 18.8136 87.9439 18.9509V18.9615H111.168V18.9611H111.168C112.592 18.9611 113.746 17.8065 113.746 16.3823C113.746 14.9582 112.592 13.8037 111.168 13.8037H111.168V13.8036L105.284 13.3184C105.311 13.1426 105.325 12.9625 105.325 12.7792C105.325 10.8259 103.742 9.24233 101.789 9.24233C101.392 9.24233 101.01 9.30785 100.654 9.42869Z" fill="#CEDEE7"/>
<path fill-rule="evenodd" clip-rule="evenodd" d="M86.2055 17.6331C85.9215 15.3181 83.9557 13.5259 81.5731 13.5259C78.9954 13.5259 76.9057 15.6237 76.9057 18.2117C76.9057 18.6363 76.9619 19.0477 77.0674 19.4387C77.0278 19.4393 76.9885 19.4407 76.9494 19.443L76.9055 19.4393V19.4459C75.5686 19.5467 74.5148 20.6678 74.5148 22.0359C74.5148 23.404 75.5686 24.5251 76.9055 24.626V24.6337H93.899V24.6334H93.899C94.9407 24.6334 95.7852 23.7855 95.7852 22.7396C95.7852 21.6938 94.9407 20.846 93.899 20.846H93.899V20.8459L89.5936 20.4895C89.6133 20.3604 89.6235 20.2282 89.6235 20.0936C89.6235 18.6591 88.4652 17.4962 87.0364 17.4962C86.7457 17.4962 86.4663 17.5443 86.2055 17.6331Z" fill="#9BC3D3"/>
<path fill-rule="evenodd" clip-rule="evenodd" d="M49.6939 17.9568C49.9811 15.5926 51.9687 13.7622 54.3778 13.7622C56.9841 13.7622 59.097 15.9047 59.097 18.5477C59.097 18.9813 59.0402 19.4015 58.9335 19.8009C58.9736 19.8014 59.0133 19.8029 59.0528 19.8052L59.0973 19.8015V19.8082C60.449 19.9112 61.5145 21.0561 61.5145 22.4533C61.5145 23.8505 60.449 24.9955 59.0973 25.0985V25.1064H41.915V25.1061H41.9149C40.8617 25.1061 40.0078 24.2401 40.0078 23.172C40.0078 22.1039 40.8617 21.238 41.9149 21.238H41.915V21.238L46.2682 20.874C46.2483 20.7422 46.238 20.6071 46.238 20.4697C46.238 19.0047 47.4091 17.817 48.8538 17.817C49.1477 17.817 49.4303 17.8661 49.6939 17.9568Z" fill="#CEDEE7"/>
</svg>
