<svg width="178" height="161" viewBox="0 0 178 161" fill="none" xmlns="http://www.w3.org/2000/svg">
<path fill-rule="evenodd" clip-rule="evenodd" d="M64.2984 119.909C63.9167 119.527 63.5424 119.141 63.1754 118.751C55.7838 110.896 45.9912 105.769 35.3786 103.842C28.9372 102.672 22.7736 99.5979 17.7932 94.6191C4.74841 81.5789 4.7336 60.5497 17.7608 47.4915C23.5076 41.7313 30.8354 38.5125 38.3493 37.8342C44.782 37.2534 50.8259 34.4471 55.2889 29.7782C55.3464 29.7181 55.4043 29.6584 55.4623 29.5992C63.0758 21.8329 75.3917 21.756 83.0974 29.43C83.1416 29.4738 83.1854 29.518 83.2288 29.5622C85.2872 31.6512 88.2583 32.5634 91.1372 32.0045C107.551 28.8174 125.202 33.5795 137.915 46.2917C158.227 66.604 158.227 99.5964 137.915 119.909C117.586 140.237 84.627 140.237 64.2984 119.909Z" fill="#DEEDF2"/>
<path fill-rule="evenodd" clip-rule="evenodd" d="M139.842 119.38H50.9918C49.4768 119.38 48.1683 118.324 47.8539 116.848L36.071 61.5155C35.6478 59.5284 37.1694 57.6577 39.2088 57.6577H128.055C129.57 57.6577 130.879 58.7134 131.193 60.1896L142.98 115.522C143.403 117.51 141.881 119.38 139.842 119.38Z" fill="#9BC3D3"/>
<path fill-rule="evenodd" clip-rule="evenodd" d="M145.104 119.38H53.3825C51.8674 119.38 50.559 118.324 50.2445 116.848L38.4617 61.5155C38.0384 59.5284 39.5601 57.6577 41.5995 57.6577H133.317C134.832 57.6577 136.141 58.7134 136.455 60.1896L148.242 115.522C148.665 117.51 147.144 119.38 145.104 119.38Z" fill="#9BC3D3"/>
<path fill-rule="evenodd" clip-rule="evenodd" d="M145.105 119.38H87.0195L122.909 57.6567H133.318C134.833 57.6567 136.141 58.7132 136.455 60.1888L148.242 115.522C148.665 117.508 147.143 119.38 145.105 119.38Z" fill="#CEDEE7"/>
<path fill-rule="evenodd" clip-rule="evenodd" d="M55.1252 114.063L44.2461 62.9746H131.576L142.458 114.063H55.1252Z" fill="#EAF7FE"/>
<path fill-rule="evenodd" clip-rule="evenodd" d="M90.8231 60.5253C90.8231 61.1312 90.3285 61.6223 89.7183 61.6223C89.1081 61.6223 88.6133 61.1312 88.6133 60.5253C88.6133 59.9194 89.1081 59.4282 89.7183 59.4282C90.3285 59.4282 90.8231 59.9194 90.8231 60.5253Z" fill="#CEDEE7"/>
<path fill-rule="evenodd" clip-rule="evenodd" d="M58.5602 30.4284C64.0911 40.0575 60.7987 52.346 51.1945 57.92C41.5669 63.4757 29.2586 60.1786 23.6972 50.5543C21.0279 45.932 20.3042 40.4385 21.6856 35.2826C23.067 30.1267 26.4402 25.7309 31.0629 23.0623C40.6902 17.5038 53.0006 20.8014 58.5602 30.428" fill="#990000"/>
<path d="M57.8048 59.4335L50.146 57.4919L47.1406 56.7314L52.2465 51.4658L55.5443 51.9683C55.5704 51.9205 55.6235 51.8726 55.6501 51.8221L55.7039 51.9896L57.8048 59.4335Z" fill="#34466B"/>
<path fill-rule="evenodd" clip-rule="evenodd" d="M62.3532 27.0666C67.8841 36.6957 64.5917 48.9842 54.9875 54.5582C45.3599 60.1139 33.0515 56.8168 27.4902 47.1925C24.8208 42.5702 24.0972 37.0767 25.4786 31.9208C26.86 26.7649 30.2331 22.3691 34.8559 19.7005C44.4831 14.1419 56.7936 17.4395 62.3532 27.0662" fill="white"/>
<path fill-rule="evenodd" clip-rule="evenodd" d="M57.7745 59.456L49.6367 54.745L57.7745 50.0459V59.456Z" fill="white"/>
<path d="M52.7622 32.9005L49.9379 30.0762L44.2893 35.7248L38.6407 30.0763L35.8164 32.9006L41.465 38.5491L35.8165 44.1976L38.6408 47.0219L44.2893 41.3734L49.9379 47.022L52.7622 44.1977L47.1136 38.5491L52.7622 32.9005Z" fill="#CC0000"/>
</svg>
