<svg width="179" height="161" viewBox="0 0 179 161" fill="none" xmlns="http://www.w3.org/2000/svg">
<path fill-rule="evenodd" clip-rule="evenodd" d="M64.3674 108.926C63.9862 108.648 63.6122 108.366 63.2456 108.081C55.8616 102.345 46.0791 98.6019 35.4774 97.1949C29.0426 96.3409 22.8854 94.0963 17.9101 90.4611C4.87871 80.9398 4.86391 65.5854 17.8777 56.051C23.6186 51.8452 30.9388 49.495 38.445 48.9997C44.8712 48.5756 50.9088 46.5266 55.3672 43.1176C55.4247 43.0737 55.4825 43.0302 55.5404 42.9869C63.1461 37.3164 75.4493 37.2603 83.1471 42.8634C83.1913 42.8954 83.235 42.9277 83.2784 42.96C85.3347 44.4852 88.3028 45.1513 91.1786 44.7431C107.575 42.4161 125.209 45.8932 137.908 55.1749C158.2 70.0059 158.2 94.0953 137.908 108.926C117.6 123.769 84.6751 123.769 64.3674 108.926Z" fill="#DEEDF2"/>
<path fill-rule="evenodd" clip-rule="evenodd" d="M139.969 119.38H51.1188C49.6037 119.38 48.2953 118.324 47.9808 116.848L36.198 61.5155C35.7747 59.5284 37.2964 57.6577 39.3358 57.6577H128.182C129.697 57.6577 131.006 58.7134 131.32 60.1896L143.107 115.522C143.53 117.51 142.008 119.38 139.969 119.38Z" fill="#9BC3D3"/>
<path fill-rule="evenodd" clip-rule="evenodd" d="M145.231 119.38H53.5094C51.9944 119.38 50.6859 118.324 50.3715 116.848L38.5886 61.5155C38.1654 59.5284 39.687 57.6577 41.7264 57.6577H133.444C134.959 57.6577 136.268 58.7134 136.582 60.1896L148.369 115.522C148.792 117.51 147.271 119.38 145.231 119.38Z" fill="#9BC3D3"/>
<path fill-rule="evenodd" clip-rule="evenodd" d="M145.232 119.38H87.1465L123.036 57.6567H133.445C134.96 57.6567 136.268 58.7132 136.582 60.1888L148.369 115.522C148.792 117.508 147.27 119.38 145.232 119.38Z" fill="#CEDEE7"/>
<path fill-rule="evenodd" clip-rule="evenodd" d="M55.2521 114.063L44.373 62.9746H131.703L142.585 114.063H55.2521Z" fill="#EAF7FE"/>
<path fill-rule="evenodd" clip-rule="evenodd" d="M90.952 60.5253C90.952 61.1312 90.4574 61.6223 89.8472 61.6223C89.237 61.6223 88.7422 61.1312 88.7422 60.5253C88.7422 59.9194 89.237 59.4282 89.8472 59.4282C90.4574 59.4282 90.952 59.9194 90.952 60.5253Z" fill="#CEDEE7"/>
<path fill-rule="evenodd" clip-rule="evenodd" d="M58.6871 30.4284C64.218 40.0575 60.9256 52.346 51.3214 57.92C41.6938 63.4757 29.3855 60.1786 23.8242 50.5543C21.1548 45.932 20.4312 40.4385 21.8126 35.2826C23.1939 30.1267 26.5671 25.7309 31.1899 23.0623C40.8171 17.5038 53.1276 20.8014 58.6871 30.428" fill="#1B4872"/>
<path d="M57.9298 59.4335L50.271 57.4919L47.2656 56.7314L52.3715 51.4658L55.6693 51.9683C55.6954 51.9205 55.7485 51.8726 55.7751 51.8221L55.8289 51.9896L57.9298 59.4335Z" fill="#34466B"/>
<path fill-rule="evenodd" clip-rule="evenodd" d="M62.4821 27.0666C68.013 36.6957 64.7206 48.9842 55.1164 54.5582C45.4888 60.1139 33.1804 56.8168 27.6191 47.1925C24.9497 42.5702 24.2261 37.0767 25.6075 31.9208C26.9889 26.7649 30.362 22.3691 34.9848 19.7005C44.612 14.1419 56.9225 17.4395 62.4821 27.0662" fill="white"/>
<path fill-rule="evenodd" clip-rule="evenodd" d="M57.9015 59.456L49.7637 54.745L57.9015 50.0459V59.456Z" fill="white"/>
<path d="M52.8892 32.9005L50.0649 30.0762L44.4162 35.7248L38.7677 30.0763L35.9434 32.9006L41.5919 38.5491L35.9434 44.1976L38.7677 47.0219L44.4162 41.3734L50.0648 47.022L52.8891 44.1977L47.2405 38.5491L52.8892 32.9005Z" fill="#2274C0"/>
</svg>
