<svg width="160" height="161" viewBox="0 0 160 161" fill="none" xmlns="http://www.w3.org/2000/svg">
<path fill-rule="evenodd" clip-rule="evenodd" d="M160 129.78H40.3687L80.3022 36.2009H120.066L160 129.78Z" fill="#9BC3D3"/>
<rect y="0.563477" width="96.7742" height="129.217" rx="48.3871" fill="#DEEDF2"/>
<path fill-rule="evenodd" clip-rule="evenodd" d="M143.225 12.1091V90.4927V129.78H142.229V88.1571V12.1091C142.229 11.7235 141.923 11.4071 141.511 11.3909H124.163C115.045 11.4012 106.577 16.2969 102.032 24.1721L99.1102 29.2333L98.2477 28.7352L101.169 23.6739C105.897 15.483 114.708 10.3945 124.163 10.3945H141.511C142.456 10.3945 143.225 11.1635 143.225 12.1091Z" fill="#9BC3D3"/>
<path fill-rule="evenodd" clip-rule="evenodd" d="M120.246 36.2009H80.5533C84.4034 29.2046 91.8492 24.4651 100.401 24.4651C108.952 24.4651 116.395 29.2046 120.246 36.2009Z" fill="#9BC3D3"/>
<path opacity="0.368437" fill-rule="evenodd" clip-rule="evenodd" d="M160 129.78H40.3687L80.3022 36.2009H120.066L160 129.78Z" fill="white"/>
<g clip-path="url(#clip0_1481_42748)">
<mask id="mask0_1481_42748" style="mask-type:luminance" maskUnits="userSpaceOnUse" x="14" y="16" width="41" height="12">
<path fill-rule="evenodd" clip-rule="evenodd" d="M14.9316 16.1501V22.109C14.9316 24.8875 23.534 27.14 34.1454 27.14H54.9316V16.1501" fill="white"/>
</mask>
<g mask="url(#mask0_1481_42748)">
<path fill-rule="evenodd" clip-rule="evenodd" d="M53.9199 21.7672C53.9199 24.5148 45.4101 26.7422 34.9131 26.7422C24.4159 26.7422 15.9062 24.5148 15.9062 21.7672C15.9062 19.0196 24.4159 16.7922 34.9131 16.7922C45.4101 16.7922 53.9199 19.0196 53.9199 21.7672Z" fill="#DEEDF2"/>
<path fill-rule="evenodd" clip-rule="evenodd" d="M46.7522 21.0231H33.5098L33.51 21.023C34.8075 20.4363 37.2055 20.075 39.8005 20.075H40.4614C43.0567 20.075 45.4548 20.4364 46.7522 21.0231Z" fill="#CEDEE7"/>
<path fill-rule="evenodd" clip-rule="evenodd" d="M54.0354 20.9313H40.793V20.9311C42.0906 20.3445 44.4885 19.9832 47.0835 19.9832H47.7447C50.3397 19.9832 52.7378 20.3446 54.0354 20.9313Z" fill="#CEDEE7"/>
<path fill-rule="evenodd" clip-rule="evenodd" d="M41.2607 21.8489H12.9062L12.9067 21.8487C15.6849 20.5808 20.8193 19.7998 26.3758 19.7998H27.7911C33.3478 19.7998 38.4824 20.581 41.2607 21.8489Z" fill="#CEDEE7"/>
<path fill-rule="evenodd" clip-rule="evenodd" d="M7.64844 20.7556L18.9266 20.206C30.9348 19.6209 43.2232 20.7573 51.163 23.1875L62.2438 22.6475L74.3281 26.3461L62.6249 26.9164C57.0214 27.1895 51.2873 26.6591 47.5822 25.5251C46.9227 25.3233 45.9023 25.2289 44.9049 25.2775L34.5662 25.7813C28.9626 26.0544 23.2284 25.524 19.5233 24.3901L7.64844 20.7556Z" fill="#9BC3D3"/>
<path fill-rule="evenodd" clip-rule="evenodd" d="M16.4512 -63.5137H22.4512L19.8644 97.7284C19.6808 109.182 19.2213 109.182 19.0374 97.7284L16.4512 -63.5137Z" fill="#CEDEE7"/>
<path fill-rule="evenodd" clip-rule="evenodd" d="M19.0605 -63.6052H25.0605L22.4738 97.6368C22.2902 109.09 21.8307 109.09 21.6468 97.6368L19.0605 -63.6052Z" fill="#CEDEE7"/>
<path fill-rule="evenodd" clip-rule="evenodd" d="M21.5527 -63.2485H27.5527L24.966 97.9935C24.7824 109.447 24.3228 109.447 24.139 97.9935L21.5527 -63.2485Z" fill="#CEDEE7"/>
<path fill-rule="evenodd" clip-rule="evenodd" d="M47.5703 20.9314H53.2568L50.8054 19.8183C50.6312 19.7393 50.1957 19.7393 50.0216 19.8183L47.5703 20.9314Z" fill="#9BC3D3"/>
<path fill-rule="evenodd" clip-rule="evenodd" d="M45.7012 -65.3486H51.7012L49.1144 95.8934C48.9308 107.347 48.4713 107.347 48.2874 95.8934L45.7012 -65.3486Z" fill="#CEDEE7"/>
<path fill-rule="evenodd" clip-rule="evenodd" d="M47.5703 -65.2671H53.5703L50.9836 95.9749C50.8 107.429 50.3404 107.429 50.1566 95.9749L47.5703 -65.2671Z" fill="#9BC3D3"/>
<path fill-rule="evenodd" clip-rule="evenodd" d="M66.6164 19.9221H55.1502C42.9418 19.9221 31.6607 21.6292 25.5563 24.4004V24.4004H14.2909L5 28.6181H16.8984C22.5953 28.6181 27.8595 27.8215 30.708 26.5284C31.215 26.2982 32.1519 26.1565 33.1658 26.1565H43.677C49.3738 26.1565 54.6381 25.3599 57.4866 24.0667L66.6164 19.9221Z" fill="#CEDEE7"/>
<path fill-rule="evenodd" clip-rule="evenodd" d="M35.9629 22.9805C36.1038 22.9199 36.2579 22.8614 36.4143 22.8034C36.572 22.7456 36.734 22.6886 36.9012 22.6326C37.0674 22.5763 37.239 22.5212 37.4128 22.4665C37.5874 22.412 37.7655 22.3582 37.9466 22.3051C38.6714 22.0927 39.4508 21.8926 40.2722 21.7044C40.4779 21.6575 40.6865 21.6114 40.8969 21.5658C41.0027 21.5432 41.1085 21.5206 41.2158 21.4985L41.5386 21.4323C41.9703 21.3445 42.4164 21.2615 42.8697 21.1811C43.3233 21.1007 43.7877 21.0245 44.261 20.952C44.4987 20.9163 44.7371 20.8808 44.9791 20.847L45.1604 20.8214L45.3433 20.7968L45.5265 20.7722L45.6182 20.76L45.7106 20.7481C46.2018 20.684 46.7047 20.6258 47.2129 20.5712C47.3408 20.558 47.4675 20.5442 47.5959 20.5315L47.982 20.4936C48.0462 20.4872 48.1113 20.4815 48.1762 20.4756L48.3709 20.4579L48.5658 20.4404L48.7624 20.4242L48.959 20.408C49.0246 20.4026 49.0899 20.3971 49.156 20.3923L49.552 20.3624C49.6178 20.3572 49.6846 20.3529 49.7509 20.3483L49.9505 20.3348L50.1501 20.3214L50.3509 20.3094C50.485 20.3015 50.6183 20.293 50.7528 20.2857L51.1565 20.2644L51.2576 20.2593L51.3592 20.2547L51.5621 20.2458C51.6976 20.24 51.8325 20.2336 51.9687 20.2289C54.1392 20.145 56.3621 20.1618 58.4751 20.2864C57.3927 20.2759 56.3184 20.2757 55.2528 20.2974L54.8538 20.3058C54.7872 20.307 54.7209 20.3091 54.6546 20.311L54.4559 20.3166C54.1907 20.3232 53.9271 20.3332 53.6633 20.342C53.1373 20.3628 52.6134 20.3853 52.0949 20.4148C51.9647 20.4213 51.8358 20.4296 51.7067 20.4372L51.513 20.4489L51.4163 20.4548L51.3202 20.4613L50.935 20.4868C50.8069 20.4955 50.6797 20.5052 50.552 20.5144L50.3608 20.5284L50.1711 20.5436C50.0448 20.554 49.9171 20.5631 49.7913 20.5739L49.4139 20.606C49.3509 20.6112 49.2886 20.6171 49.2263 20.6228L49.0391 20.6401C48.5407 20.6865 48.0462 20.7357 47.5597 20.7903C47.499 20.7971 47.4374 20.8035 47.377 20.8104L47.1955 20.8315L47.0139 20.8525L46.9232 20.863L46.8333 20.874L46.4731 20.9178L46.1162 20.9633L46.0268 20.9747L45.9384 20.9865L45.7614 21.01L45.5843 21.0336L45.4089 21.058L45.2333 21.0824L45.1453 21.0945L45.0583 21.1071L44.7106 21.1575C44.2485 21.2256 43.7938 21.2974 43.344 21.3713C42.8941 21.4453 42.4526 21.5228 42.0157 21.6024L41.6903 21.6629C41.5816 21.6831 41.4756 21.7041 41.3672 21.7244C41.152 21.7655 40.9385 21.8073 40.7274 21.85C39.8807 22.0199 39.0593 22.1995 38.2645 22.3879C37.8661 22.4818 37.4757 22.5784 37.0909 22.6768C36.899 22.7262 36.708 22.7759 36.5202 22.8265C36.3318 22.8771 36.1455 22.9282 35.9629 22.9805Z" fill="#DEEDF2"/>
<path fill-rule="evenodd" clip-rule="evenodd" d="M43.4414 22.57L54.7196 22.0205C66.7277 21.4353 79.0162 22.5718 86.956 25.0019L98.0365 24.462L110.121 28.1606L98.4179 28.7309C92.8144 29.0039 87.08 28.4736 83.3749 27.3396C82.7156 27.1378 81.695 27.0434 80.6977 27.092L70.3591 27.5958C64.7556 27.8688 59.0212 27.3385 55.3161 26.2045L43.4414 22.57Z" fill="#9BC3D3"/>
<g clip-path="url(#clip1_1481_42748)">
<path fill-rule="evenodd" clip-rule="evenodd" d="M47.75 -214.919H51.1294V79.3059H47.75V-214.919Z" fill="#CEDEE7"/>
<path fill-rule="evenodd" clip-rule="evenodd" d="M47.7505 79.3061V-214.919H47.0254V83.1975L47.1555 145.731L47.382 254.594L47.6085 145.731L47.7469 79.3061H47.7505Z" fill="#9BC3D3"/>
</g>
<path fill-rule="evenodd" clip-rule="evenodd" d="M49.9854 20.0444C39.4523 20.8243 30.9047 22.8891 27.1464 25.6189L16.0605 26.14L12.6348 28.6283H5L14.2892 24.4153H25.5521C30.7844 22.0421 39.8214 20.4503 49.9854 20.0444Z" fill="#9BC3D3"/>
<path fill-rule="evenodd" clip-rule="evenodd" d="M50.6088 26.0184H45.2816C39.6 23.4508 29.0997 21.8691 17.7363 21.8691H23.0634C34.4268 21.8691 44.9269 23.4508 50.6088 26.0184Z" fill="#9BC3D3"/>
<path fill-rule="evenodd" clip-rule="evenodd" d="M64.4745 29.9433H58.7255C53.422 29.9433 48.521 29.2036 45.8692 28.0029C45.633 27.8961 45.297 27.8098 44.9023 27.7501C44.507 27.6906 44.0528 27.6577 43.581 27.6577H33.7955C28.4917 27.6577 23.5909 26.918 20.939 25.7173L12.4395 21.8691H17.7862C29.1518 21.8691 39.6542 23.4542 45.337 26.0272H55.8249L64.4745 29.9433Z" fill="#DEEDF2"/>
<path fill-rule="evenodd" clip-rule="evenodd" d="M23.2285 25.7943C23.2726 25.684 23.3574 25.5766 23.4544 25.4703C23.5531 25.3641 23.6688 25.2593 23.7992 25.1559C23.9296 25.0525 24.0744 24.9505 24.2319 24.8497C24.2714 24.8245 24.3106 24.7993 24.3524 24.7744C24.3935 24.7494 24.4352 24.7244 24.4778 24.6996C24.5206 24.6747 24.564 24.65 24.6084 24.6253C24.6524 24.6006 24.6969 24.576 24.7435 24.5516C25.1087 24.3555 25.5276 24.1657 25.9941 23.9826C26.2274 23.8911 26.4758 23.8018 26.735 23.7143C26.9938 23.6267 27.2689 23.5418 27.5566 23.4594C27.6994 23.4179 27.8491 23.3778 27.9987 23.3377L28.2286 23.2787C28.2668 23.2689 28.3065 23.2594 28.3459 23.2498L28.4645 23.2211C28.7836 23.1453 29.1141 23.0719 29.465 23.0042C29.6412 22.9706 29.8173 22.937 30.0025 22.9061C30.0942 22.8904 30.1845 22.8743 30.28 22.8598L30.4214 22.8376C30.4686 22.8303 30.515 22.8227 30.5637 22.8158C30.9457 22.7585 31.347 22.7082 31.7611 22.6659C32.1754 22.6236 32.6026 22.5888 33.0412 22.5663C33.479 22.5435 33.9247 22.5314 34.3671 22.532L34.5328 22.5328L34.6153 22.5333C34.6427 22.5334 34.6705 22.5343 34.698 22.5348C34.8082 22.5372 34.9174 22.5391 35.0261 22.5423C35.1351 22.5464 35.2432 22.5506 35.3504 22.5552C35.3771 22.5563 35.4039 22.5574 35.4306 22.5591L35.5104 22.5637L35.669 22.5731C36.0893 22.6004 36.4917 22.6398 36.8605 22.6939C36.4386 22.7048 36.0372 22.7182 35.6506 22.7389L35.5064 22.747C35.4586 22.75 35.4111 22.7518 35.3638 22.7554C35.2692 22.7621 35.1757 22.7683 35.0829 22.7744L34.8081 22.7963C34.7854 22.7981 34.7627 22.7998 34.7402 22.8018L34.6728 22.808L34.539 22.8203C34.1839 22.8538 33.8436 22.8928 33.5153 22.9367C33.4336 22.9481 33.3527 22.9597 33.2713 22.9705L33.0322 23.0066C32.9921 23.0122 32.953 23.0187 32.9139 23.0251L32.7968 23.044L32.7384 23.0535L32.7091 23.0582L32.6803 23.0631L32.5651 23.083C31.3404 23.2949 30.2587 23.5668 29.228 23.8601C28.7126 24.0069 28.2137 24.1605 27.7195 24.3172L27.5356 24.3764C27.473 24.3958 27.4126 24.4159 27.3511 24.4357L27.1675 24.4954C27.1064 24.5153 27.0443 24.5351 26.9842 24.5554C26.7388 24.6353 26.4968 24.7165 26.2523 24.7979L24.778 25.2924C24.5286 25.3756 24.2767 25.459 24.0205 25.5428C23.7634 25.6265 23.5035 25.7103 23.2285 25.7943Z" fill="white"/>
<path fill-rule="evenodd" clip-rule="evenodd" d="M72.7693 19.606V27.6801H-1.97266V19.606H1.28565C7.9208 21.7487 17.5199 23.238 28.4509 23.6469C28.456 23.6471 28.4614 23.6473 28.4672 23.6476C30.4592 23.7219 32.4957 23.7604 34.566 23.7604C35.7947 23.7604 37.0117 23.7468 38.2141 23.7202H38.2144C50.1644 23.4564 60.7163 21.9085 67.8465 19.606H72.7693Z" fill="#CEDEE7"/>
<path fill-rule="evenodd" clip-rule="evenodd" d="M64.981 26.6316L60.8039 27.6881L59.1019 28.1186C58.9189 27.9709 58.6895 27.8274 58.4184 27.6881C52.8729 24.8339 29.882 23.7121 28.4863 23.6533C30.4766 23.7276 32.5113 23.7661 34.5799 23.7661C35.8074 23.7661 37.0234 23.7526 38.2248 23.726H38.225C55.6837 24.2745 64.981 26.6316 64.981 26.6316Z" fill="white"/>
<path fill-rule="evenodd" clip-rule="evenodd" d="M6.86914 23.4392H16.5042C26.7629 23.4392 36.2424 24.8721 41.3717 27.1982H61.6131L69.4203 30.7386H48.6471C43.86 30.7386 39.4365 30.0699 37.0429 28.9845V28.9844C36.6169 28.7913 35.8296 28.6723 34.9776 28.6723H26.1451C21.358 28.6723 16.9345 28.0036 14.5409 26.9182L6.86914 23.4392Z" fill="#DEEDF2"/>
<g clip-path="url(#clip2_1481_42748)">
<path fill-rule="evenodd" clip-rule="evenodd" d="M26.1934 25.6475H2.42026V24.0542H26.1934V25.6475Z" fill="#9BC3D3"/>
<path fill-rule="evenodd" clip-rule="evenodd" d="M-224.658 23.4221C-219.991 23.2672 -152.9 23.1419 -70.2358 23.1337C-0.48941 23.1269 60.3357 23.202 87.2803 23.3123C100.34 23.3658 127.426 23.4018 158.698 23.4062L160.051 23.4064C216.132 23.4156 261.035 23.5016 264.735 23.607C267.43 23.6837 224.254 23.7525 190.038 23.7945C165.337 23.8249 150.266 23.8762 149.763 23.9316C149.75 23.932 149.75 23.9323 149.75 23.9326C148.229 24.0938 78.6812 24.2267 -7.21909 24.2324C-99.9135 24.2386 -176.08 24.0995 -176.08 23.9271C-176.08 23.9034 -174.636 23.8803 -171.903 23.8582C-161.357 23.7725 -171.516 23.6829 -197.533 23.6097C-216.458 23.5566 -226.759 23.4917 -224.658 23.4221Z" fill="#9BC3D3"/>
</g>
<path fill-rule="evenodd" clip-rule="evenodd" d="M29.9482 21.1697C29.7 21.1701 29.4632 21.1831 29.2464 21.2064C29.0559 21.2268 28.8481 21.2325 28.6449 21.2241C28.5891 21.2218 28.5319 21.2207 28.4736 21.2209C27.9248 21.2227 27.4778 21.3413 27.4746 21.4858C27.4729 21.5661 27.6057 21.6381 27.817 21.6873C27.9773 21.7246 28.0933 21.7732 28.1606 21.8267C28.4108 22.0256 29.1224 22.1691 29.9613 22.1691C31.01 22.1691 31.86 21.9448 31.858 21.6684C31.8561 21.3925 30.9956 21.1678 29.9482 21.1697Z" fill="#DEEDF2"/>
<path fill-rule="evenodd" clip-rule="evenodd" d="M29.7584 22.0956C29.4327 22.0956 29.1262 22.0739 28.8584 22.0358L28.8002 22.0636C29.121 22.1291 29.5236 22.1681 29.9607 22.1681C31.0094 22.1681 31.8593 21.9439 31.8574 21.6675C31.8566 21.5416 31.677 21.4263 31.3823 21.3384C31.5547 21.4134 31.6545 21.5012 31.6551 21.5949C31.6571 21.8713 30.8071 22.0956 29.7584 22.0956ZM28.3365 21.9271C28.2641 21.8956 28.2047 21.8618 28.16 21.8263C28.1006 21.7791 28.0034 21.7357 27.8711 21.7005C27.9057 21.7175 27.9345 21.7354 27.9577 21.7538C28.039 21.8184 28.169 21.8772 28.3365 21.9271Z" fill="#9BC3D3"/>
<path fill-rule="evenodd" clip-rule="evenodd" d="M26.7539 22.7434H28.4638L30.2325 21.9363L30.9966 21.7839L30.9019 21.751L30.4341 21.8443L30.9071 21.6284H30.1893C29.5754 21.6284 29.0082 21.7147 28.7013 21.8548L26.7539 22.7434Z" fill="#CEDEE7"/>
<g clip-path="url(#clip3_1481_42748)">
<path fill-rule="evenodd" clip-rule="evenodd" d="M44.9883 26.8962H15.6005V25.5435H44.9883V26.8962Z" fill="#9BC3D3"/>
<path fill-rule="evenodd" clip-rule="evenodd" d="M44.9883 25.5514H15.6005V24.731H44.9883V25.5514Z" fill="white"/>
<path fill-rule="evenodd" clip-rule="evenodd" d="M18.4217 24.9739L16.8436 24.9364C16.1049 24.9189 15.8344 24.8804 16.2306 24.8493L22.3168 24.3715C22.7364 24.3386 23.7373 24.3266 24.5196 24.3452L27.0189 24.4046C27.8012 24.4232 28.0504 24.4649 27.5675 24.4963L20.5599 24.9523C20.104 24.9819 19.1604 24.9915 18.4217 24.9739ZM13.3474 24.975L12.4363 25.04C12.0098 25.0704 11.0765 25.0815 10.3211 25.0652L-1.28428 24.8146C-2.08421 24.7973 -2.37435 24.7561 -1.92268 24.7239L-0.479675 24.621C-0.0280075 24.5888 0.983868 24.5785 1.74715 24.5984L12.8207 24.887C13.5415 24.9057 13.7739 24.9446 13.3474 24.975ZM43.8054 24.7309V25.5435V26.8963H54.6445V24.7309H43.8054ZM18.4474 25.1829L19.3585 25.1179C19.785 25.0875 20.7183 25.0763 21.4737 25.0926L33.0791 25.3432C33.879 25.3605 34.1692 25.4017 33.7175 25.4339L32.2745 25.5368C31.8228 25.5691 30.8109 25.5793 30.0477 25.5594L18.9741 25.2709C18.2533 25.2521 18.0209 25.2133 18.4474 25.1829ZM13.3731 25.1839L14.9512 25.2214C15.6899 25.239 15.9604 25.2774 15.5642 25.3085L9.47798 25.7864C9.05841 25.8193 8.0575 25.8312 7.2752 25.8127L4.77585 25.7532C3.99354 25.7346 3.74437 25.693 4.22731 25.6616L11.2348 25.2056C11.6909 25.1759 12.6344 25.1664 13.3731 25.1839Z" fill="#CEDEE7"/>
</g>
</g>
<path fill-rule="evenodd" clip-rule="evenodd" d="M79.5707 86.0321V21.3931H14.9316V86.0321H79.5707ZM19.9086 26.37H46.0223V52.453H19.9086V26.37ZM46.0223 54.9722H19.9086V81.0551H46.0223V54.9722ZM48.5415 54.9722H74.5937V81.0551H48.5415V54.9722ZM48.5415 52.453H74.5937V26.37H48.5415V52.453Z" fill="white"/>
</g>
<g clip-path="url(#clip4_1481_42748)">
<path fill-rule="evenodd" clip-rule="evenodd" d="M81.6543 83.8929L85.8322 91.1009H109.257C112.509 91.1009 114.542 87.5937 112.916 84.788L107.187 74.904C104.536 70.3289 99.1399 68.0861 94.0101 69.4277L86.9383 71.2771C81.4315 72.7162 78.8075 78.9804 81.6543 83.8929Z" fill="#2A8FEC"/>
<path fill-rule="evenodd" clip-rule="evenodd" d="M83.8095 84.1885H90.939C91.142 84.1885 91.3066 84.0234 91.3066 83.8198V79.6415C91.3066 79.4379 91.142 79.2729 90.939 79.2729H83.8095C83.6064 79.2729 83.4418 79.4379 83.4418 79.6415V83.8198C83.4418 84.0234 83.6064 84.1885 83.8095 84.1885Z" fill="white"/>
<path fill-rule="evenodd" clip-rule="evenodd" d="M90.1013 81.4233H90.5481C90.6283 81.4233 90.6934 81.4938 90.6934 81.5807V82.0647C90.6934 82.1517 90.6283 82.2221 90.5481 82.2221H90.1013C90.0211 82.2221 89.956 82.1517 89.956 82.0647V81.5807C89.956 81.4938 90.0211 81.4233 90.1013 81.4233Z" fill="#CEDEE7"/>
<path fill-rule="evenodd" clip-rule="evenodd" d="M90.6621 83.0255H89.1535V82.8059H90.6621V83.0255ZM90.0754 83.7275H90.6572V83.441H90.0754V83.7275ZM89.326 83.7275H89.9077V83.441H89.326V83.7275ZM87.4379 83.0255H88.9465V82.8059H87.4379V83.0255ZM87.2406 83.0255H85.732V82.8059H87.2406V83.0255ZM84.0262 83.0255H85.5348V82.8059H84.0262V83.0255Z" fill="#CEDEE7"/>
<path fill-rule="evenodd" clip-rule="evenodd" d="M90.1228 82.7762L89.0554 83.8184C88.8301 84.0384 88.4727 84.0434 88.2413 83.8298C88.0038 83.6106 87.9848 83.2409 88.1987 82.9984L90.6531 80.2148L89.178 81.4354C88.9302 81.6404 88.5666 81.6175 88.3462 81.3831C88.1037 81.1251 88.1297 80.715 88.4029 80.4899L90.4843 78.7759C90.8026 78.5138 91.2241 78.4151 91.6251 78.5087L94.0703 79.5622C94.7632 79.8607 95.3217 80.4058 95.6382 81.0927L97.0163 84.0828C97.026 84.0906 97.031 84.0946 97.031 84.0946L98.4168 84.4891C100.975 85.2171 103.651 85.4409 106.296 85.1476L106.995 85.0703C106.995 85.0703 109.828 85.1881 110.047 88.9217L107.449 89.2857C103.817 89.7952 100.114 89.2577 96.7777 87.7366L94.7691 86.7849C94.4476 86.6328 94.1352 86.462 93.8338 86.2741C93.5886 86.1215 93.3502 85.9572 93.12 85.7818L92.4281 85.2551L92.3832 85.2069L92.0418 85.5387C91.905 85.6717 91.6984 85.7012 91.5301 85.6118C91.3586 85.5206 91.2669 85.3274 91.3045 85.1363L91.4816 84.2374L91.1929 83.9269C90.8828 84.3225 90.5472 84.7549 90.3053 85.0674C90.1203 85.3064 89.7728 85.339 89.5469 85.1387C89.3675 84.9796 89.3188 84.7186 89.4288 84.5052L90.2494 82.9124L90.1228 82.7762Z" fill="#FFC4B8"/>
<path fill-rule="evenodd" clip-rule="evenodd" d="M92.3095 62.9972C92.6832 62.2928 92.9244 61.5042 92.9976 60.6611C93.0597 59.9457 92.9958 59.2464 92.8239 58.589C92.4481 57.1485 91.5548 55.8991 90.3383 55.068C89.4856 54.4844 88.4743 54.1064 87.3699 54.0119C83.9677 53.7199 80.9728 56.2237 80.6796 59.6045C80.6573 59.8576 80.8403 61.48 80.8674 61.72L80.9337 62.2986L81.096 67.5155L81.8722 67.3276C81.9021 67.3815 81.933 67.4349 81.9652 67.4879C82.1874 67.8585 82.4622 68.1989 82.783 68.4982L83.3853 69.0649L83.765 69.421L83.8015 69.4545L83.8201 69.4727C84.2312 69.8584 84.7203 70.2801 85.2479 70.6655C85.913 71.1513 86.7241 71.2668 87.4474 71.0661C87.5549 71.2824 87.6623 71.5222 87.7588 71.7788C87.8911 72.1297 87.9742 72.4969 88.0225 72.8683C88.0225 72.8683 88.1393 73.4193 88.1583 73.4264C88.9287 74.7185 90.4476 75.4673 92.0214 75.1914C93.8734 74.8669 95.1657 73.2348 95.1062 71.4184C95.114 71.4124 95.118 71.4076 95.1169 71.4041C94.6135 69.8224 94.8739 70.7106 94.0114 68.9318C93.6446 68.1743 93.1408 67.6566 92.4857 65.4603C92.3724 65.0789 92.1193 63.8424 92.054 63.5995C92.0505 63.5867 92.0467 63.5694 92.0425 63.548L92.3095 62.9972Z" fill="#FFC4B8"/>
<path fill-rule="evenodd" clip-rule="evenodd" d="M90.7323 67.1496L89.1557 69.8774C88.7745 70.5191 88.1582 70.923 87.4873 71.0604C87.4861 71.0612 87.4854 71.0614 87.4851 71.0609C87.6998 71.5774 87.7956 71.9768 87.7956 71.9768C88.987 71.3246 89.6967 70.1928 90.7323 67.1496ZM83.0306 67.1234L82.3601 67.1954C82.1145 67.0506 81.9384 66.794 81.9137 66.483L81.7227 64.127L83.0306 67.1234Z" fill="#F4A48D"/>
<path fill-rule="evenodd" clip-rule="evenodd" d="M90.6304 76.4159C90.6304 76.4159 92.3221 69.3243 94.337 68.3667L96.2832 69.4269L95.491 74.648L90.6304 76.4159Z" fill="#2A8FEC"/>
<path fill-rule="evenodd" clip-rule="evenodd" d="M86.3282 127.762L85.5898 127.605L90.298 105.496L91.0364 105.652L86.3282 127.762ZM109.924 127.762L110.662 127.605L105.954 105.496L105.216 105.652L109.924 127.762Z" fill="#767676"/>
<rect x="82.9473" y="96.9565" width="30.3613" height="8.70661" rx="4.3533" fill="#9E3667"/>
<rect width="41.0899" height="8.16304" transform="matrix(-1 0 0 1 116.584 120.989)" fill="#34466B"/>
<path fill-rule="evenodd" clip-rule="evenodd" d="M116.584 128.754L113.044 120.989H107.497L107.992 123.08L114.224 129.152L116.584 128.754ZM88.7065 129.152L87.6102 123.607L80.8335 124.212L80.6342 125.019L75.4941 126.833L88.7065 129.152Z" fill="#34466B"/>
<rect width="36.9419" height="34.4185" transform="matrix(-1 0 0 1 115.5 90.7273)" fill="#9BC3D3"/>
<path fill-rule="evenodd" clip-rule="evenodd" d="M78.5623 99.2617C78.4468 104.076 80.7231 124.66 80.7231 124.66L88.0342 125.146C88.0342 125.146 86.2196 108.402 86.3841 103.076C86.4822 99.8957 95.4515 100.096 95.4515 100.096L106.951 99.6759L107.549 121.077H113.13C113.13 121.077 115.069 99.7914 115.482 94.7385C115.565 93.7323 115.379 91.6894 114.473 91.1136C113.568 90.5375 110.938 90.5375 107.549 91.5831L100.665 92.816L93.0924 93.4755L83.156 93.9465C82.3139 93.987 81.5113 94.2453 80.8192 94.6797C80.1259 95.1145 79.5419 95.7233 79.1371 96.4664C78.6709 97.32 78.5851 98.3108 78.5623 99.2617Z" fill="#9BC3D3"/>
<rect x="56.1309" y="90.8071" width="74.6544" height="3.06274" fill="#CEDEE7"/>
<path fill-rule="evenodd" clip-rule="evenodd" d="M125.808 93.8699H121.597V129.474H125.808V93.8699ZM64.5531 93.8699H60.3418V129.474H64.5531V93.8699Z" fill="#CEDEE7"/>
<path fill-rule="evenodd" clip-rule="evenodd" d="M60.98 80.7163C60.2485 77.7648 62.4818 74.9104 65.5226 74.9104H77.3151C79.4662 74.9104 81.3402 76.3767 81.8577 78.4645L83.3256 84.3873C84.0572 87.3388 81.8239 90.1932 78.7831 90.1932H66.9905C64.8395 90.1932 62.9655 88.7269 62.448 86.6391L60.98 80.7163Z" fill="#767676"/>
<path fill-rule="evenodd" clip-rule="evenodd" d="M63.6253 90.8155C63.5787 90.4869 63.8338 90.1931 64.1657 90.1931L83.3763 90.1931L84.4989 90.1931C84.7708 90.1931 85.0012 90.3932 85.0394 90.6623C85.0859 90.991 84.8309 91.2847 84.4989 91.2847H64.1657C63.8939 91.2847 63.6635 91.0847 63.6253 90.8155Z" fill="#767676"/>
<path fill-rule="evenodd" clip-rule="evenodd" d="M84.6695 90.7933C84.6373 90.472 84.8896 90.1931 85.2126 90.1931L98.631 90.1931L99.2655 90.1931C99.5459 90.1931 99.7807 90.4056 99.8086 90.6845C99.8408 91.0059 99.5885 91.2847 99.2655 91.2847H85.2126C84.9322 91.2847 84.6974 91.0723 84.6695 90.7933Z" fill="#767676"/>
<ellipse cx="85.2246" cy="81.5156" rx="0.798771" ry="0.399386" fill="#CEDEE7"/>
<ellipse cx="85.2249" cy="80.6248" rx="0.552995" ry="0.552995" fill="#CEDEE7"/>
<rect x="84.5566" y="80.3259" width="1.33487" height="1.39631" rx="0.667435" stroke="#CEDEE7"/>
<path fill-rule="evenodd" clip-rule="evenodd" d="M-346.557 -741.857C-375.004 -759.779 -391.756 -839.054 -384.558 -928.57C-383.57 -940.859 -382.179 -952.755 -380.433 -964.145C-396.01 -981.631 -420.252 -1025.66 -420.252 -1025.66L-420.225 -1025.75C-448.001 -946.214 -467.076 -856.194 -474.944 -758.914C-481.642 -676.112 -479.687 -594.487 -470.204 -517.06C-449.53 -347.461 -392.901 -197.047 -312.816 -93.3766C-256.667 -20.6263 -188.985 29.1467 -113.987 46.5433C24.1204 78.5943 155.728 -6.2992 246.017 -163.367L373.549 -167.931C399.16 -168.853 411.396 -221.675 392.986 -251.846L406.033 -270.221C434.295 -310 444.532 -375.795 431.513 -434.016L355.325 -767.697C354.455 -754.677 352.991 -741.857 350.961 -729.349H350.957C347.089 -705.479 341.165 -682.729 333.395 -661.839L333.386 -661.815L332.52 -659.515L331.647 -657.249L331.626 -657.197L330.744 -654.964L330.715 -654.891L329.817 -652.669L328.925 -650.512L328.855 -650.345L327.952 -648.214L327.917 -648.13L326.98 -645.968L326.056 -643.886L325.952 -643.651L325.019 -641.598L324.997 -641.549L324.059 -639.527L323.983 -639.365L323.048 -637.393L322.917 -637.122L321.956 -635.14L320.986 -633.188L320.857 -632.93L319.9 -631.043L319.759 -630.77L318.768 -628.859L317.769 -626.977L317.602 -626.666L316.618 -624.849L316.479 -624.598L315.512 -622.853L315.429 -622.705L314.416 -620.918L314.223 -620.583L313.204 -618.823L313.086 -618.625L312.108 -616.972L311.962 -616.727L310.927 -615.021L310.721 -614.684L309.66 -612.971L309.594 -612.866L308.56 -611.233L308.37 -610.937L307.309 -609.297L307.101 -608.98L306.007 -607.329L305.991 -607.305L304.877 -605.66L304.657 -605.338L303.563 -603.758L303.367 -603.479L302.306 -601.983L302.194 -601.827L301.064 -600.265L300.825 -599.939L299.692 -598.41L299.527 -598.192L298.452 -596.775L298.277 -596.548L297.123 -595.06L296.877 -594.746L295.697 -593.264L295.591 -593.131L294.46 -591.742L294.242 -591.476L293.06 -590.056L292.817 -589.769L291.583 -588.323L289.345 -585.745L289.013 -585.363L286.871 -582.932L286.467 -582.477L284.315 -580.066L283.991 -579.709L281.754 -577.24L281.714 -577.195L279.454 -574.738L279.106 -574.36L276.936 -572.036L276.527 -571.598L274.338 -569.286L274.025 -568.959L271.779 -566.621L271.7 -566.537L269.42 -564.199L269.057 -563.829L266.859 -561.607L266.446 -561.193L264.223 -558.98L263.922 -558.682L261.663 -556.467L261.549 -556.354L259.248 -554.13L258.873 -553.772L256.647 -551.652L256.233 -551.261L253.974 -549.146L253.687 -548.879L251.411 -546.778L251.265 -546.644L248.944 -544.536L248.559 -544.189L246.305 -542.172L245.891 -541.807L243.596 -539.787L243.327 -539.554L241.028 -537.563L240.856 -537.412L238.514 -535.417L238.12 -535.084L235.837 -533.169L235.427 -532.829L233.094 -530.907L232.85 -530.707L230.521 -528.818L230.326 -528.66L227.961 -526.774L227.564 -526.46L225.251 -524.647L224.847 -524.334L222.474 -522.506L222.26 -522.341L219.895 -520.55L219.684 -520.39L217.294 -518.611L216.895 -518.317L214.549 -516.602L214.158 -516.32L211.744 -514.584L211.567 -514.46L209.156 -512.758L208.933 -512.603L206.515 -510.929L206.121 -510.658L203.74 -509.039L203.368 -508.79L200.906 -507.148L200.777 -507.063L198.307 -505.446L198.08 -505.299L195.631 -503.728L195.249 -503.484L192.828 -501.962L192.48 -501.746L189.967 -500.197L189.897 -500.153L187.356 -498.618L187.133 -498.484L184.649 -497.013L184.283 -496.8L181.819 -495.371L181.504 -495.191L178.933 -493.73L176.308 -492.274L176.096 -492.156L173.571 -490.785L173.231 -490.603L170.717 -489.268L170.446 -489.126L167.83 -487.766L165.167 -486.415L164.976 -486.32L162.405 -485.046L162.098 -484.897L159.529 -483.655L159.31 -483.551L156.644 -482.293L153.94 -481.049L153.779 -480.976L151.155 -479.8L150.893 -479.683L148.259 -478.532L148.108 -478.469L145.382 -477.31L142.633 -476.174L142.513 -476.125L139.827 -475.046L139.619 -474.965L136.913 -473.908L136.845 -473.881L134.05 -472.823L131.248 -471.795L131.182 -471.77L128.427 -470.79L128.287 -470.74C125.462 -469.751 122.631 -468.807 119.794 -467.911C110.89 -636.869 32.8177 -775.718 -68.9351 -793.592C-189.087 -814.702 -291.903 -775.478 -295.728 -773.994L-296.086 -773.292L-296.332 -772.812L-296.667 -772.168L-296.937 -771.654L-297.253 -771.059L-297.546 -770.512L-297.843 -769.962L-298.158 -769.386L-298.438 -768.879L-298.772 -768.279L-299.038 -767.813L-299.39 -767.191L-299.642 -766.758L-300.013 -766.118L-300.249 -765.72L-300.638 -765.066L-300.861 -764.698L-301.265 -764.033L-301.478 -763.689L-301.896 -763.014L-302.098 -762.698L-302.531 -762.016L-302.723 -761.721L-303.168 -761.036L-303.351 -760.761L-303.808 -760.076L-303.982 -759.818L-304.451 -759.132L-304.619 -758.892L-305.097 -758.208L-305.258 -757.983L-305.745 -757.305L-305.903 -757.092L-306.397 -756.417L-306.549 -756.217L-307.05 -755.554L-307.201 -755.359L-307.707 -754.704L-307.854 -754.519L-308.365 -753.877L-308.511 -753.701L-309.027 -753.07L-309.172 -752.897L-309.69 -752.28L-309.836 -752.113L-310.357 -751.511L-310.503 -751.348L-311.026 -750.764L-311.173 -750.604L-311.697 -750.035L-311.846 -749.877L-312.369 -749.327L-312.522 -749.171L-313.045 -748.64L-313.201 -748.487L-313.722 -747.973L-313.882 -747.82L-314.401 -747.323L-314.566 -747.174L-315.083 -746.7L-315.251 -746.549L-315.765 -746.092L-315.94 -745.945L-316.449 -745.51L-316.63 -745.36L-317.138 -744.947L-317.324 -744.798L-317.825 -744.403L-318.019 -744.258L-318.516 -743.883L-318.717 -743.738L-319.206 -743.385L-319.415 -743.241L-319.9 -742.907L-320.116 -742.765L-320.596 -742.45L-320.819 -742.31L-321.292 -742.017L-321.524 -741.879L-321.989 -741.605L-322.229 -741.47L-322.688 -741.214L-322.935 -741.085L-323.388 -740.846L-323.645 -740.721L-324.089 -740.503L-324.354 -740.379L-324.792 -740.177L-325.065 -740.063L-325.497 -739.879L-325.777 -739.768L-326.202 -739.601L-326.49 -739.497L-326.907 -739.346L-327.205 -739.248L-327.614 -739.113L-327.919 -739.022L-328.322 -738.906L-328.634 -738.824L-329.03 -738.721L-329.351 -738.648L-329.739 -738.557L-330.066 -738.493L-330.449 -738.419L-330.784 -738.366L-331.159 -738.304L-331.502 -738.261L-331.87 -738.213L-332.22 -738.179L-332.583 -738.144L-332.939 -738.124L-333.295 -738.102L-333.659 -738.093L-334.008 -738.082L-334.379 -738.086L-334.719 -738.088L-335.1 -738.104L-335.433 -738.117L-335.824 -738.146L-336.147 -738.172L-336.551 -738.215L-336.86 -738.25L-337.287 -738.311L-337.574 -738.353L-338.049 -738.439L-338.289 -738.481L-339.002 -738.633L-339.687 -738.806L-339.863 -738.855L-340.496 -739.037L-340.547 -739.052L-341.22 -739.272L-341.394 -739.333L-341.985 -739.55L-342.075 -739.584L-342.733 -739.852L-342.907 -739.926L-343.458 -740.172L-343.586 -740.23L-344.225 -740.541L-344.405 -740.632L-344.915 -740.899L-345.079 -740.986L-345.693 -741.334L-345.892 -741.452L-346.35 -741.73L-346.557 -741.857Z" fill="#9BC3D3"/>
</g>
<defs>
<clipPath id="clip0_1481_42748">
<rect width="64.639" height="69.9232" fill="white" transform="translate(14.9316 16.146)"/>
</clipPath>
<clipPath id="clip1_1481_42748">
<rect width="4.10461" height="469.513" fill="white" transform="matrix(1 0 0 -1 47.0254 254.594)"/>
</clipPath>
<clipPath id="clip2_1481_42748">
<rect width="489.783" height="2.51434" fill="white" transform="matrix(-1 0 0 1 264.855 23.1333)"/>
</clipPath>
<clipPath id="clip3_1481_42748">
<rect width="56.7805" height="2.55988" fill="white" transform="matrix(-1 0 0 1 54.6445 24.3364)"/>
</clipPath>
<clipPath id="clip4_1481_42748">
<rect width="74.7158" height="80.8295" fill="white" transform="translate(56.0996 53.2515)"/>
</clipPath>
</defs>
</svg>
