<svg width="160" height="160" viewBox="0 0 160 160" fill="none" xmlns="http://www.w3.org/2000/svg">
<path fill-rule="evenodd" clip-rule="evenodd" d="M79.2091 15.1353C60.1875 28.8497 44.6728 24.8755 34.2966 23.1709C13.5926 19.7685 5.87544 39.1673 13.4279 53.8938C20.9807 68.6199 27.3076 86.5377 9.13086 100.745C-9.04545 114.951 11.4136 150.893 40.7089 140.979C70.0037 131.064 103.076 132.465 118.148 143.186C133.22 153.906 166.467 128.845 140.161 103.607C113.856 78.3682 131.026 67.6193 140.008 56.1376C148.989 44.6555 145.313 23.4967 120.182 13.1881C120.182 13.1881 98.2311 1.42136 79.2091 15.1353Z" fill="#EAF7FE"/>
<path fill-rule="evenodd" clip-rule="evenodd" d="M159.604 136.676C159.604 142.902 124.772 147.948 81.8039 147.948C38.8361 147.948 4.00391 142.902 4.00391 136.676C4.00391 130.45 38.8361 125.403 81.8039 125.403C124.772 125.403 159.604 130.45 159.604 136.676Z" fill="#CEDEE7"/>
<path fill-rule="evenodd" clip-rule="evenodd" d="M149.363 132H40.5716C37.4727 132 34.9609 129.488 34.9609 126.39V62.8067C34.9609 59.7087 37.4727 57.1982 40.5716 57.1982H149.363C152.462 57.1982 154.974 59.7087 154.974 62.8067V126.39C154.974 129.488 152.462 132 149.363 132Z" fill="white"/>
<path d="M53.5225 89.0264H46.6959C45.4702 89.0264 44.4766 90.02 44.4766 91.2457V98.0723C44.4766 99.298 45.4702 100.292 46.6959 100.292H53.5225C54.7482 100.292 55.7419 99.298 55.7419 98.0723V91.2457C55.7419 90.02 54.7482 89.0264 53.5225 89.0264Z" fill="#CEDEE7"/>
<path fill-rule="evenodd" clip-rule="evenodd" d="M67.4578 109.719H44.4766V113.174H67.4578V109.719ZM70.6133 109.719H93.5945V113.174H70.6133V109.719ZM119.579 109.719H96.5977V113.174H119.579V109.719ZM145.563 109.719H122.582V113.174H145.563V109.719ZM55.9648 119.708H64.8269V124.214H55.9648V119.708ZM53.4128 119.708H44.5508V124.214H53.4128V119.708Z" fill="#CEDEE7"/>
<path fill-rule="evenodd" clip-rule="evenodd" d="M138.709 72.5002C138.809 71.521 138.602 70.518 138.089 69.6401L137.402 68.4646L134.654 63.7618C134.392 63.3134 134.21 62.8325 134.108 62.3389L133.967 62.5863C133.133 64.0505 133.143 65.8486 133.993 67.3032L133.993 67.3044L136.845 72.1837C136.843 72.1834 136.841 72.1831 136.839 72.1831C137.591 73.6052 137.569 75.3189 136.769 76.725L136.628 76.9724C136.526 76.4787 136.344 75.9978 136.082 75.5494L136.339 75.9903L134.021 72.0222L131.897 68.3893L131.959 68.4953C131.697 68.047 131.515 67.5661 131.413 67.0724L131.272 67.3198C130.439 68.784 130.449 70.5822 131.299 72.0371L131.299 72.0379L131.389 72.191L133.36 75.5648L133.361 75.5651L134.048 76.7404C134.898 78.1956 134.908 79.994 134.074 81.4585L133.934 81.7062C133.831 81.2122 133.649 80.7313 133.387 80.283L133.645 80.7238L129.952 74.4047L129.951 74.4038C129.614 73.8268 129.41 73.196 129.337 72.5534C125.29 73.4934 122.475 75.5793 122.488 77.9859C122.507 81.243 127.7 83.854 134.088 83.8177C140.476 83.7811 145.638 81.1112 145.62 77.854C145.606 75.4475 142.767 73.3941 138.709 72.5002Z" fill="#2A8FEC"/>
<path fill-rule="evenodd" clip-rule="evenodd" d="M134.488 138.865H28.0387C25.0065 138.865 22.5488 136.394 22.5488 133.347V70.8061C22.5488 67.7589 25.0065 65.2896 28.0387 65.2896H134.488C137.52 65.2896 139.978 67.7589 139.978 70.8061V133.347C139.978 136.394 137.52 138.865 134.488 138.865Z" fill="#2A8FEC"/>
<path fill-rule="evenodd" clip-rule="evenodd" d="M40.7125 96.5957H34.0329C32.8336 96.5957 31.8613 97.5731 31.8613 98.7787V105.493C31.8613 106.699 32.8336 107.676 34.0329 107.676H40.7125C41.9118 107.676 42.8841 106.699 42.8841 105.493V98.7787C42.8841 97.5731 41.9118 96.5957 40.7125 96.5957Z" fill="#DEEDF2"/>
<path fill-rule="evenodd" clip-rule="evenodd" d="M108.424 116.986H131.028V120.367H108.424V116.986ZM82.8652 116.986H105.47V120.367H82.8652V116.986ZM57.3066 116.986H79.9111V120.367H57.3066V116.986ZM31.5996 116.986H54.2041V120.367H31.5996V116.986ZM42.9004 126.76H51.6171V131.169H42.9004V126.76ZM31.6738 126.76H40.3906V131.169H31.6738V126.76Z" fill="#2274C0"/>
<path fill-rule="evenodd" clip-rule="evenodd" d="M124.065 80.341C124.162 79.3778 123.96 78.3912 123.458 77.5277L122.786 76.3714L120.097 71.7458C119.841 71.3048 119.663 70.8318 119.563 70.3462L119.425 70.5896C118.609 72.0297 118.619 73.7984 119.451 75.2292L119.451 75.2303L122.241 80.0296C122.239 80.0293 122.237 80.029 122.235 80.029C122.971 81.4278 122.949 83.1134 122.166 84.4964L122.029 84.7398C121.928 84.2542 121.75 83.7812 121.494 83.3402L121.746 83.7738L119.477 79.8708L117.4 76.2975L117.461 76.4017C117.204 75.9607 117.026 75.4877 116.926 75.0021L116.788 75.2455C115.973 76.6857 115.983 78.4543 116.814 79.8854L116.815 79.8862L116.902 80.0368L118.831 83.3553L118.832 83.3556L119.504 84.5116C120.336 85.9429 120.346 87.7119 119.53 89.1523L119.392 89.396C119.292 88.9101 119.114 88.4371 118.858 87.9961L119.11 88.4297L115.496 82.2142L115.496 82.2133C115.166 81.6458 114.966 81.0254 114.895 80.3932C110.935 81.3179 108.18 83.3696 108.193 85.7367C108.212 88.9404 113.293 91.5086 119.543 91.4729C125.793 91.4369 130.845 88.8107 130.827 85.607C130.813 83.2399 128.036 81.2202 124.065 80.341Z" fill="white"/>
<path fill-rule="evenodd" clip-rule="evenodd" d="M58.7745 23.9878C59.9674 23.1113 60.7422 21.6986 60.7422 20.1062C60.7422 17.4495 58.5852 15.2925 55.9284 15.2925C53.4753 15.2925 51.4483 17.1315 51.152 19.5048C51.1002 19.7521 51.0625 20.0021 51.0366 20.2521L51.0365 20.2525L51.0357 20.258L51.0355 20.2599C51.0278 20.3347 51.0212 20.4094 51.0155 20.484L50.6839 24.1986L51.4386 24.4512L51.4465 24.453L51.4465 24.453C51.4652 24.5177 51.4756 24.5527 51.4756 24.5527L51.4961 25.0552L51.5332 25.9943C51.546 26.3051 51.611 26.6097 51.7242 26.896C51.8032 27.0981 51.9077 27.2917 52.0354 27.4713C52.1853 27.6821 52.3645 27.8713 52.5644 28.031C52.6686 28.1149 52.7793 28.1897 52.895 28.2563C52.9562 28.2916 53.0173 28.3241 53.0807 28.3546L53.0811 28.3548L52.757 34.2221C52.757 34.2221 54.4698 34.7382 56.3454 34.3287C57.4791 34.0833 58.6734 33.4972 59.5845 32.2567C59.5845 32.2567 58.5061 27.5827 58.7745 23.9878Z" fill="#FFC4B8"/>
<path fill-rule="evenodd" clip-rule="evenodd" d="M56.3273 34.2592C57.4611 34.0138 58.6553 33.4277 59.5664 32.1872C59.5664 32.1872 58.4 27.1789 58.7954 23.5392C58.7954 23.5392 56.1421 30.0079 56.3273 34.2592ZM51.4375 24.4721C51.7016 24.5496 51.9617 24.3421 51.9445 24.0677L51.8334 22.2983L51.4375 24.4721Z" fill="#F4A48D"/>
<path fill-rule="evenodd" clip-rule="evenodd" d="M57.4968 15.2396C55.3787 15.1652 55.6388 13.3462 55.6388 13.3462C53.3722 13.4205 52.4059 14.2743 52.4059 14.2743C50.585 15.7219 51.307 18.626 51.307 18.626C51.5849 16.4345 54.9418 17.3689 56.2559 17.5889C56.7928 18.1155 56.5856 19.4008 56.8578 20.4842C56.8627 20.5038 57.4467 21.9701 57.4467 21.9701L57.4803 22.1243C57.49 22.0993 57.5001 22.0744 57.5106 22.0495C57.8638 21.2133 58.5834 20.7187 59.1173 20.9436C59.6516 21.1688 59.7981 22.029 59.4448 22.8652C59.3218 23.1565 59.0109 23.4064 58.8223 23.5988C58.6758 24.8266 58.7033 25.967 58.8066 26.9461L59.3545 26.9698L61.4569 18.2728C61.6034 17.0206 60.9125 15.7916 60.019 15.5177C59.3234 15.3044 58.4246 15.2721 57.4968 15.2396Z" fill="black"/>
<path fill-rule="evenodd" clip-rule="evenodd" d="M50.7762 35.5C50.3437 34.8019 48.248 33.4033 48.248 33.4033C48.248 33.4033 46.4115 35.374 45.9424 37.635C45.4728 39.897 41.2237 48.6662 41.0404 49.4222C40.8571 50.1777 41.2935 53.3004 41.2935 53.3004L44.9617 52.072C44.9617 52.072 45.1777 49.7337 46.4508 48.0788C47.7239 46.4233 50.7451 42.3051 51.182 39.4868C51.619 36.6679 51.8257 37.1931 50.7762 35.5Z" fill="white"/>
<path fill-rule="evenodd" clip-rule="evenodd" d="M54.4631 34.1267C56.7427 34.5063 58.4448 33.5247 59.5692 31.1818C59.3268 31.1818 60.3571 31.6667 62.6602 32.6364L57.6638 40.0509L50.1212 36.1018L50.2965 32.4545L53.0238 31C52.5484 32.8459 53.0282 33.8881 54.4631 34.1267Z" fill="white"/>
<path d="M39.424 92.3706L37.966 96.1539L42.3945 94.0517L42.214 90.4528L39.1965 89.9341L39.424 92.3706Z" fill="black"/>
<path fill-rule="evenodd" clip-rule="evenodd" d="M45.8287 56.9374C45.8287 56.9374 37.342 63.9274 36.3956 66.0923C35.4482 68.2566 38.65 92.2981 38.65 92.2981L42.8107 92.051C42.8107 92.051 43.2045 84.1686 43.5694 79.9708C43.9485 75.6083 43.4925 69.2996 43.4925 69.2996C43.4925 69.2996 48.2898 67.3621 50.7045 66.7817C60.5069 64.4243 58.498 58.2901 58.3627 54.3672L45.8287 56.9374Z" fill="#444444"/>
<path d="M53.3098 92.9406L51.914 97.8765L56.918 95.1056L55.8352 90.3252L52.8778 91.1156L53.3098 92.9406Z" fill="black"/>
<path fill-rule="evenodd" clip-rule="evenodd" d="M53.2306 58.0693C53.2306 58.0693 46.6432 62.805 45.6957 64.9699C44.7488 67.1342 52.8772 92.9337 52.8772 92.9337L56.9364 93.1099C56.9364 93.1099 55.0006 82.287 54.5948 78.0924C54.189 73.899 53.5955 68.7575 53.5955 68.7575C53.5955 68.7575 59.1575 67.9502 61.3486 66.7813C65.151 64.7517 64.1964 61.9933 64.0612 58.0693H53.2306Z" fill="#444444"/>
<path fill-rule="evenodd" clip-rule="evenodd" d="M53.9938 36.7597C53.9938 36.7597 51.9527 50.911 52.1174 52.4743C52.2822 54.0381 51.8289 58.531 52.9116 59.2974C55.5827 61.1901 62.6954 60.1674 64.1087 60.1674C64.1087 60.1674 64.5827 53.6814 64.7474 49.8141C64.9122 45.9479 63.2665 40.7644 63.4313 38.8717C63.5954 36.9795 65.6523 33.6059 65.6523 33.6059L59.9333 31.3638C59.1503 34.9611 57.1705 36.7597 53.9938 36.7597Z" fill="#34466B"/>
<path fill-rule="evenodd" clip-rule="evenodd" d="M53.9961 36.7599C53.9961 36.7599 53.8019 57.2112 52.5675 58.6921C51.3332 60.1735 45.2503 59.0979 44.9214 59.2626C44.5925 59.4268 47.3077 51.6246 47.3077 49.691C47.3077 47.7579 48.2503 33.4037 48.2503 33.4037L52.6628 31.1821C51.348 33.9683 51.7925 35.8275 53.9961 36.7599Z" fill="#34466B"/>
<path d="M53.7734 58.8337L53.3043 57.3364C53.3043 57.3364 49.4131 58.5866 48.3434 58.8337C47.2738 59.0802 45.5573 59.9028 45.5573 59.9028H52.3749L53.7734 58.8337Z" fill="#FFC4B8"/>
<path fill-rule="evenodd" clip-rule="evenodd" d="M51.9653 57.6814L52.3765 59.9025C52.3765 59.9025 62.3098 59.206 64.0711 56.2693C64.9193 54.856 65.1947 54.6302 66.1471 49.8684C68.2231 39.4884 67.052 34.1816 65.6529 33.6056C64.2543 33.0296 61.796 36.0738 62.0376 38.6249C62.2798 41.1754 60.092 52.81 60.092 52.81C60.092 52.81 57.1503 55.2318 51.9653 57.6814Z" fill="white"/>
<path fill-rule="evenodd" clip-rule="evenodd" d="M49.3711 60.6035H45.2513L41.132 46.1904H44.264L49.3711 60.6035Z" fill="#CCCCCC"/>
<path fill-rule="evenodd" clip-rule="evenodd" d="M48.1875 60.6035H32.1097L27.9904 46.1904H44.0677L48.1875 60.6035Z" fill="#767676"/>
<path fill-rule="evenodd" clip-rule="evenodd" d="M50.5508 61.3519H32.1079V60.2769H50.5508V61.3519Z" fill="#444444"/>
<path d="M59.7734 61.3519H50.552V60.2769H59.7734V61.3519Z" fill="#444444"/>
</svg>
