<svg width="160" height="161" viewBox="0 0 160 161" fill="none" xmlns="http://www.w3.org/2000/svg">
<path fill-rule="evenodd" clip-rule="evenodd" d="M113.304 115.149L98.6964 140.449H16.7945C5.42274 140.449 -1.68466 128.138 4.00106 118.291L24.0306 83.5969C33.2995 67.5379 52.1675 59.6655 70.1033 64.3748L94.829 70.8661C114.083 75.9176 123.258 97.9053 113.304 115.149Z" fill="#EC0000"/>
<path fill-rule="evenodd" clip-rule="evenodd" d="M105.93 116.233H81.0302C80.321 116.233 79.7461 115.658 79.7461 114.949V100.396C79.7461 99.6871 80.321 99.1125 81.0302 99.1125H105.93C106.639 99.1125 107.214 99.6871 107.214 100.396V114.949C107.214 115.658 106.639 116.233 105.93 116.233Z" fill="white"/>
<path fill-rule="evenodd" clip-rule="evenodd" d="M83.9962 106.397H82.4337C82.1532 106.397 81.9258 106.625 81.9258 106.905V108.468C81.9258 108.748 82.1532 108.976 82.4337 108.976H83.9962C84.2767 108.976 84.5042 108.748 84.5042 108.468V106.905C84.5042 106.625 84.2767 106.397 83.9962 106.397Z" fill="#CEDEE7"/>
<path fill-rule="evenodd" clip-rule="evenodd" d="M81.9258 111.924H87.1857V111.133H81.9258V111.924ZM83.9713 114.451H81.943V113.42H83.9713V114.451ZM86.584 114.451H84.5557V113.42H86.584V114.451ZM93.1675 111.924H87.9076V111.133H93.1675V111.924ZM93.855 111.924H99.1149V111.133H93.855V111.924ZM105.062 111.924H99.8024V111.133H105.062V111.924Z" fill="#CEDEE7"/>
<path fill-rule="evenodd" clip-rule="evenodd" d="M103.49 102.615C103.513 102.391 103.465 102.161 103.348 101.96L103.191 101.691L102.562 100.615C102.502 100.512 102.46 100.402 102.437 100.289L102.404 100.346C102.214 100.681 102.216 101.092 102.411 101.425L102.411 101.426L103.063 102.542C103.063 102.542 103.062 102.542 103.062 102.542C103.234 102.868 103.229 103.26 103.046 103.582L103.014 103.638C102.99 103.525 102.949 103.415 102.889 103.313L102.948 103.414L102.417 102.505L101.931 101.674L101.945 101.698C101.885 101.596 101.843 101.485 101.82 101.372L101.788 101.429C101.597 101.764 101.599 102.176 101.794 102.509L101.794 102.509L101.814 102.544L102.266 103.316L102.266 103.316L102.423 103.585C102.618 103.918 102.62 104.33 102.429 104.665L102.397 104.722C102.373 104.609 102.332 104.499 102.272 104.396L102.331 104.497L101.486 103.051L101.485 103.05C101.408 102.918 101.362 102.774 101.345 102.627C100.419 102.842 99.7742 103.32 99.7774 103.87C99.7816 104.616 100.97 105.213 102.432 105.205C103.894 105.197 105.076 104.586 105.072 103.84C105.068 103.289 104.419 102.819 103.49 102.615Z" fill="#EC0000"/>
<path fill-rule="evenodd" clip-rule="evenodd" d="M83.4644 111.493L87.2341 115.162C88.0226 115.929 89.2733 115.947 90.0829 115.201C90.9139 114.437 90.9802 113.148 90.2319 112.302L81.6437 102.594L86.8053 106.851C87.6721 107.566 88.9447 107.486 89.7157 106.669C90.5644 105.769 90.4732 104.338 89.5173 103.554L82.2341 97.5758C81.1206 96.6618 79.6455 96.3176 78.2425 96.6442L69.6865 100.318C67.2618 101.359 65.3078 103.26 64.2002 105.656L59.363 116.117C59.3621 116.117 59.3617 116.118 59.3617 116.118L54.5296 117.497C45.6087 120.042 36.277 120.824 27.0564 119.799L24.6176 119.529C24.6176 119.529 14.74 119.94 13.9766 132.993L23.0349 134.265C35.7008 136.047 48.6118 134.167 60.2451 128.85L67.249 125.523C68.3699 124.991 69.4592 124.394 70.5103 123.737C71.3654 123.203 72.1965 122.629 72.9993 122.016L75.412 120.175L75.5796 119.994L76.7846 121.161C77.2632 121.625 77.9859 121.728 78.5748 121.416C79.175 121.098 79.4958 120.424 79.3641 119.758L78.7379 116.589L79.7347 115.514C80.8251 116.901 82.0088 118.421 82.8608 119.518C83.5079 120.351 84.724 120.465 85.5144 119.766C86.1422 119.212 86.3124 118.301 85.9277 117.557L83.0335 111.958L83.4644 111.493Z" fill="#FFC4B8"/>
<path fill-rule="evenodd" clip-rule="evenodd" d="M142.853 143.947C142.709 143.947 142.565 143.945 142.422 143.94L134.145 143.637L139.05 137.255L150.513 139.264L149.355 142.084L148.227 142.657C146.56 143.506 144.719 143.947 142.853 143.947Z" fill="#F4A48D"/>
<path fill-rule="evenodd" clip-rule="evenodd" d="M138.215 144.925L157.627 111.302C158.543 109.715 157.398 107.731 155.565 107.731H112.672C111.821 107.731 111.035 108.185 110.61 108.922L91.1975 142.545C90.2812 144.131 91.4266 146.115 93.2593 146.115H136.153C137.004 146.115 137.79 145.662 138.215 144.925Z" fill="#DEEDF2"/>
<path fill-rule="evenodd" clip-rule="evenodd" d="M136.919 136.87V136.606L135.579 136.627C134.258 136.648 133.15 135.635 133.052 134.318L133.03 134.022C132.938 132.791 133.764 131.677 134.968 131.406L134.953 130.252C134.929 128.451 136.257 126.915 138.044 126.681L143.921 125.91L143.825 125.565C143.271 123.588 144.396 121.531 146.359 120.931L152.283 119.12C153.189 118.843 154.164 119.256 154.594 120.1L155.034 120.96C155.522 121.917 155.148 123.089 154.194 123.584L152.105 124.669L152.582 125.588C153.381 127.133 153.421 128.961 152.692 130.541L152.401 131.169C153.293 132.48 153.393 134.173 152.661 135.579L152.342 136.192L152.191 138.289C152.067 140 150.958 141.483 149.352 142.084L138.015 138.382C137.362 138.169 136.919 137.559 136.919 136.87Z" fill="#FFC4B8"/>
<path fill-rule="evenodd" clip-rule="evenodd" d="M76.078 42.1392C74.7747 39.668 73.9333 36.9012 73.6782 33.9434C73.4616 31.4338 73.6846 28.9804 74.2841 26.6739C75.5943 21.6206 78.7097 17.2374 82.9517 14.3215C85.9254 12.2743 89.4522 10.9481 93.3035 10.6166C105.168 9.59229 115.612 18.3762 116.634 30.2367C116.712 31.1246 116.074 36.8165 115.979 37.6584L115.748 39.6883L115.182 57.9903L112.475 57.3311C112.371 57.5201 112.263 57.7076 112.151 57.8936C111.376 59.1938 110.418 60.3878 109.299 61.438L107.199 63.4259L105.874 64.6753L105.747 64.7929L105.682 64.8565C104.249 66.2099 102.543 67.6891 100.703 69.0414C98.3839 70.7454 95.5554 71.1509 93.0332 70.4466C92.6581 71.2056 92.2836 72.047 91.9472 72.9469C91.4858 74.1781 91.1958 75.4663 91.0277 76.7694C91.0277 76.7694 90.6203 78.7024 90.554 78.7272C87.8676 83.26 82.5706 85.8871 77.0824 84.9194C70.6243 83.7806 66.1175 78.055 66.3251 71.6828C66.2978 71.6618 66.2841 71.6447 66.2878 71.6325C68.043 66.0835 67.135 69.1995 70.143 62.959C71.4219 60.3017 73.179 58.4854 75.4635 50.7801C75.8586 49.442 76.7411 45.1043 76.9687 44.2522C76.9808 44.2071 76.9942 44.1464 77.0088 44.0716L76.078 42.1392Z" fill="#732645"/>
<path fill-rule="evenodd" clip-rule="evenodd" d="M82.6871 55.8626L87.5024 65.8673C88.671 68.2232 90.7186 69.7966 93.023 70.4433C93.0271 70.4464 93.0296 70.4471 93.0306 70.4455C92.1535 72.2163 91.7196 73.6024 91.7196 73.6024C87.7294 71.0141 85.5377 66.8495 82.6871 55.8626ZM111.897 57.2046L109.609 56.6431C108.978 55.8683 108.71 54.8045 109.005 53.7413L111.229 45.6802L111.897 57.2046Z" fill="#3B101C"/>
<g clip-path="url(#clip0_1487_18536)">
<path fill-rule="evenodd" clip-rule="evenodd" d="M66.609 67.5312C64.0314 68.9264 62.5135 75.0979 63.1657 82.0667C63.2552 83.0234 63.3813 83.9495 63.5394 84.8363C62.128 86.1975 59.9314 89.6256 59.9314 89.6256L59.9339 89.6321C57.417 83.4403 55.6886 76.4323 54.9757 68.859C54.3687 62.4129 54.5459 56.0585 55.4052 50.0308C57.2785 36.8275 62.4097 25.1178 69.6664 17.0471C74.754 11.3835 80.8868 7.50863 87.6824 6.15431C100.197 3.65914 112.122 10.2681 120.303 22.4958L131.859 22.8511C134.179 22.9229 135.288 27.0351 133.62 29.3839L134.802 30.8143C137.363 33.9112 138.291 39.0333 137.111 43.5658L130.207 69.5428C130.129 68.5292 129.996 67.5312 129.812 66.5574H129.812C129.461 64.6991 128.924 62.928 128.22 61.3018L128.22 61.2999L128.141 61.1209L128.062 60.9445L128.06 60.9404L127.98 60.7665L127.978 60.7609L127.896 60.5879L127.815 60.42L127.809 60.407L127.727 60.2411L127.724 60.2345L127.639 60.0662L127.555 59.9041L127.546 59.8859L127.461 59.726L127.459 59.7222L127.374 59.5648L127.368 59.5522L127.283 59.3986L127.271 59.3775L127.184 59.2232L127.096 59.0713L127.084 59.0512L126.998 58.9043L126.985 58.883L126.895 58.7343L126.804 58.5878L126.789 58.5635L126.7 58.4221L126.688 58.4026L126.6 58.2667L126.592 58.2552L126.501 58.1161L126.483 58.09L126.391 57.953L126.38 57.9376L126.292 57.8089L126.278 57.7898L126.184 57.657L126.166 57.6308L126.07 57.4974L126.064 57.4892L125.97 57.3621L125.953 57.339L125.857 57.2113L125.838 57.1867L125.739 57.0582L125.737 57.0563L125.636 56.9282L125.616 56.9032L125.517 56.7802L125.499 56.7585L125.403 56.642L125.393 56.6298L125.291 56.5082L125.269 56.4829L125.166 56.3638L125.152 56.3468L125.054 56.2366L125.038 56.2189L124.934 56.1031L124.911 56.0786L124.805 55.9632L124.795 55.9529L124.692 55.8447L124.673 55.824L124.566 55.7135L124.544 55.6911L124.432 55.5786L124.229 55.3778L124.199 55.3481L124.005 55.1588L123.968 55.1235L123.773 54.9357L123.744 54.908L123.541 54.7158L123.537 54.7122L123.333 54.521L123.301 54.4915L123.105 54.3106L123.067 54.2765L122.869 54.0966L122.841 54.0711L122.637 53.889L122.63 53.8825L122.424 53.7005L122.391 53.6717L122.191 53.4987L122.154 53.4665L121.953 53.2942L121.925 53.271L121.721 53.0986L121.71 53.0898L121.502 52.9166L121.468 52.8888L121.266 52.7237L121.229 52.6933L121.024 52.5286L120.998 52.5078L120.792 52.3443L120.778 52.3338L120.568 52.1698L120.533 52.1427L120.329 51.9857L120.291 51.9573L120.084 51.8L120.059 51.7819L119.851 51.6269L119.835 51.6151L119.623 51.4598L119.587 51.4339L119.381 51.2849L119.343 51.2584L119.132 51.1088L119.11 51.0932L118.899 50.9461L118.881 50.9338L118.667 50.787L118.631 50.7625L118.421 50.6214L118.385 50.597L118.17 50.4548L118.15 50.4419L117.936 50.3024L117.917 50.29L117.7 50.1515L117.664 50.1286L117.452 49.9951L117.416 49.9732L117.197 49.838L117.181 49.8283L116.963 49.6958L116.943 49.6838L116.724 49.5534L116.688 49.5323L116.472 49.4063L116.438 49.387L116.215 49.2591L116.204 49.2525L115.98 49.1266L115.959 49.1152L115.737 48.9928L115.703 48.9739L115.483 48.8554L115.452 48.8385L115.224 48.7179L115.218 48.7145L114.988 48.5951L114.967 48.5846L114.742 48.4701L114.709 48.4535L114.486 48.3422L114.457 48.3282L114.224 48.2145L113.987 48.1011L113.967 48.0919L113.739 47.9852L113.708 47.9711L113.48 47.8671L113.455 47.8561L113.218 47.7502L112.977 47.645L112.96 47.6377L112.727 47.5384L112.699 47.5268L112.466 47.4301L112.446 47.4221L112.205 47.3241L111.96 47.2273L111.945 47.2216L111.707 47.13L111.684 47.121L111.445 47.0314L111.431 47.0264L111.184 46.9362L110.935 46.8478L110.924 46.8439L110.681 46.76L110.662 46.7536L110.417 46.6714L110.411 46.6693L110.157 46.5869L109.904 46.5069L109.898 46.5049L109.648 46.4286L109.635 46.4248C109.379 46.3478 109.123 46.2743 108.866 46.2045C108.059 59.3578 100.985 70.1672 91.7647 71.5588C80.8775 73.2021 71.5613 70.1485 71.2147 70.033L71.1823 69.9784L71.16 69.941L71.1296 69.8909L71.1052 69.8508L71.0765 69.8045L71.05 69.7619L71.023 69.7192L70.9945 69.6743L70.9691 69.6348L70.9388 69.5881L70.9148 69.5518L70.8829 69.5034L70.86 69.4697L70.8264 69.4199L70.805 69.3889L70.7698 69.3379L70.7495 69.3093L70.713 69.2575L70.6937 69.2308L70.6558 69.1783L70.6375 69.1536L70.5983 69.1005L70.5809 69.0776L70.5405 69.0242L70.524 69.0029L70.4825 68.9495L70.4667 68.9294L70.4243 68.876L70.409 68.8573L70.3658 68.8041L70.3511 68.7866L70.307 68.7338L70.2928 68.7172L70.248 68.6647L70.2342 68.6491L70.1888 68.5974L70.1751 68.5823L70.1292 68.5313L70.116 68.5169L70.0696 68.4669L70.0564 68.4532L70.0097 68.4041L69.9965 68.3906L69.9495 68.3426L69.9363 68.3296L69.8891 68.2827L69.8759 68.27L69.8285 68.2246L69.8152 68.2121L69.7677 68.1678L69.7542 68.1555L69.7068 68.1127L69.6929 68.1006L69.6456 68.0592L69.6314 68.0473L69.5842 68.0073L69.5698 67.9954L69.5227 67.9567L69.5078 67.9451L69.4609 67.9082L69.4457 67.8964L69.3991 67.8609L69.3833 67.8494L69.3371 67.8156L69.3207 67.8038L69.2747 67.7717L69.2579 67.7601L69.2125 67.7294L69.1948 67.7181L69.1498 67.6889L69.1316 67.6776L69.0873 67.6501L69.0684 67.6389L69.0244 67.6129L69.0048 67.6018L68.9614 67.5773L68.9411 67.5664L68.8983 67.5436L68.8773 67.5329L68.8351 67.5115L68.8134 67.501L68.7718 67.4811L68.7494 67.471L68.7084 67.4525L68.6851 67.4427L68.6448 67.4257L68.6209 67.4161L68.5811 67.4004L68.5564 67.3915L68.5173 67.3772L68.4919 67.3685L68.4534 67.3555L68.4273 67.3474L68.3895 67.3357L68.3625 67.328L68.3255 67.3176L68.2978 67.3105L68.2613 67.3014L68.2331 67.2951L68.1972 67.287L68.1681 67.2813L68.1329 67.2743L68.1033 67.2693L68.0686 67.2635L68.0382 67.2594L68.0043 67.2546L67.9731 67.2512L67.9398 67.2475L67.9081 67.2448L67.8752 67.2421L67.8429 67.2406L67.8107 67.2389L67.7777 67.2382L67.7461 67.2373L67.7125 67.2376L67.6816 67.2377L67.6471 67.239L67.6169 67.24L67.5815 67.2423L67.5522 67.2442L67.5157 67.2476L67.4877 67.2503L67.449 67.2551L67.423 67.2584L67.3799 67.2651L67.3582 67.2683L67.2936 67.2802L67.2315 67.2937L67.2155 67.2975L67.1582 67.3116L67.1536 67.3128L67.0926 67.3299L67.0768 67.3347L67.0233 67.3515L67.0152 67.3542L66.9555 67.3751L66.9397 67.3809L66.8898 67.4L66.8782 67.4045L66.8203 67.4287L66.804 67.4358L66.7578 67.4566L66.7429 67.4634L66.6873 67.4904L66.6692 67.4996L66.6277 67.5213L66.609 67.5312Z" fill="#3B101C"/>
</g>
<path fill-rule="evenodd" clip-rule="evenodd" d="M81.9059 89.0703C81.9059 89.0703 75.9861 64.0764 68.9352 60.7014L62.125 64.4379L64.8973 82.8396L81.9059 89.0703Z" fill="#EC0000"/>
<defs>
<clipPath id="clip0_1487_18536">
<rect width="82.6537" height="83.6037" fill="white" transform="translate(54.6172 5.63208)"/>
</clipPath>
</defs>
</svg>
