<svg width="161" height="160" viewBox="0 0 161 160" fill="none" xmlns="http://www.w3.org/2000/svg">
<g clip-path="url(#clip0_1487_20588)">
<path fill-rule="evenodd" clip-rule="evenodd" d="M14.5067 31.7994C19.4008 26.1694 30.7913 28.8637 35.0547 31.293C38.8521 33.4567 45.9697 47.813 59.1824 48.7435C68.0084 49.3648 70.1858 36.4 76.1539 31.293C79.0739 28.7943 82.97 28.3787 96.3808 31.7994C109.792 35.2201 118.16 41.5549 131.865 45.3689C140.855 47.8709 149.5 33.5106 156.004 41.0918C162.509 48.673 161.637 65.6767 157.883 75.6923C154.129 85.7078 146.944 79.2352 140.989 81.1556C133.584 83.5434 130.85 93.344 123.28 93.8511C117.433 94.2428 114.025 88.6891 106.592 87.4264C99.6666 86.2498 98.0221 86.5724 88.6033 83.1899C79.1844 79.8074 71.984 69.9626 68.9167 73.8962C63.3989 80.9711 60.3274 81.1039 55.9013 81.4789C53.2503 81.7036 54.3275 82.2215 50.9793 83.1897C37.945 86.9588 20.3503 94.7168 12.7068 90.9978C10.0339 89.6973 7.0241 89.7445 5.11816 87.7085C3.46454 85.9423 0.997938 81.1126 0.850768 79.0641C0.247391 70.6836 11.8867 60.7655 13.7864 53.8116C16.1311 45.2273 9.61279 37.4294 14.5067 31.7994Z" fill="#EAF7FE"/>
<path d="M72.5547 65.514L72.6069 73.8344C72.6297 76.2277 73.7611 78.4752 75.6699 79.9191C77.5788 81.3631 80.0493 81.8402 82.3585 81.211L109.569 73.7715L106.135 57.1621L101.102 57.6051C97.5234 57.9149 94.0843 59.1389 91.1146 61.1598L78.1904 69.9653L78.2168 64.1903L72.5547 65.514Z" fill="#1BB3BC"/>
<path fill-rule="evenodd" clip-rule="evenodd" d="M115.548 41.7984C115.701 42.5831 115.736 43.3862 115.653 44.1813C115.472 46.37 114.514 48.4219 112.953 49.9667C112.585 50.3228 112.191 50.6512 111.774 50.9492C111.012 51.4855 110.172 51.9028 109.284 52.1867C105.443 53.4276 101.242 52.0163 98.9294 48.7081C98.6509 48.3316 98.4054 47.9316 98.1959 47.5127C97.3999 45.9034 97.0901 44.097 97.3042 42.3144C97.3042 42.2302 97.3306 42.1459 97.3306 42.0617C97.5338 40.7232 98.0259 39.445 98.7728 38.3159C99.4031 37.3486 100.213 36.5112 101.159 35.849C105.332 32.9169 111.092 33.9188 114.03 38.0879C114.572 38.8654 114.988 39.7236 115.263 40.6308C115.397 41.0093 115.493 41.4 115.551 41.7973" fill="#723846"/>
<path fill-rule="evenodd" clip-rule="evenodd" d="M76.3592 66.8648L72.5583 65.5147L71.1689 60.6518C70.943 59.7019 71.0543 58.7029 71.4836 57.826L71.6931 57.4144C71.6975 57.0543 71.6624 56.6948 71.5884 56.3423C71.5318 55.9686 71.4351 55.6021 71.3 55.2491L71.2217 55.0447C71.1509 54.8829 71.1501 54.699 71.2196 54.5366C71.2891 54.3742 71.4227 54.2478 71.5886 54.1874L72.6633 53.8569L76.3592 66.8648Z" fill="#FFC4B8"/>
<path fill-rule="evenodd" clip-rule="evenodd" d="M85.2219 75.8348C85.2787 76.1495 85.1363 76.4667 84.8633 76.6333C84.5903 76.7999 84.243 76.7816 83.9891 76.5871C83.3597 76.102 82.6003 75.5125 81.8134 74.8834C79.2703 72.9199 76.2549 70.5789 75.3911 69.9183C75.2526 69.7921 75.1527 69.6294 75.1028 69.4489L70.515 44.4772C70.4671 44.1959 70.5768 43.9109 70.801 43.7344C71.0252 43.5578 71.328 43.518 71.5902 43.6305L79.4278 46.9937C79.6676 47.0948 79.8436 47.3059 79.9 47.56L81.7609 57.4741L83.963 69.1449L85.1952 75.7011L85.2219 75.8348Z" fill="#CEDEE7"/>
<path fill-rule="evenodd" clip-rule="evenodd" d="M85.1963 75.7009L78.7476 68.2168C78.3508 67.7087 78.1548 67.0723 78.1971 66.4291L78.3282 65.0554L83.047 64.2295L83.9645 69.1446L85.1963 75.7009Z" fill="#1BB3BC"/>
<path fill-rule="evenodd" clip-rule="evenodd" d="M83.1979 57.9568L84.1942 56.7403C84.2893 56.6155 84.3093 56.449 84.2464 56.3052C84.1648 56.0764 83.9629 55.9118 83.7223 55.8779C83.3054 55.8141 82.8804 55.9209 82.5432 56.1741C81.7571 56.7403 83.1984 57.9568 83.1984 57.9568" fill="#FFC4B8"/>
<path fill-rule="evenodd" clip-rule="evenodd" d="M81.9899 55.1776C81.6549 55.2435 81.4338 55.5646 81.4916 55.901L81.911 58.6851L78.2673 54.8789C78.0347 54.6254 77.6696 54.5419 77.3499 54.6692C76.9402 54.8373 76.7416 55.3033 76.9041 55.7152L77.2452 56.554C77.271 56.5933 77.2188 56.6273 77.1663 56.5961C77.0579 56.4308 76.8636 56.3432 76.668 56.3716C76.4099 56.386 76.1797 56.5385 76.0657 56.7704C75.9516 57.0023 75.9714 57.2776 76.1175 57.4908L77.088 58.8591L76.878 59.0742C76.7184 59.2558 76.6684 59.5089 76.7469 59.7376L78.2148 64.1914L78.1365 66.3621C78.1133 66.9243 78.3442 67.4672 78.7653 67.8404L84.8736 72.3518L88.8844 69.2534L86.761 63.0957C86.5212 62.3862 86.1573 61.7249 85.6863 61.1426L83.4581 58.2828L82.7504 55.6439C82.6633 55.3099 82.3274 55.1047 81.9904 55.1798" fill="#FFC4B8"/>
<path fill-rule="evenodd" clip-rule="evenodd" d="M117.383 80.0444L108.652 89.8878C106.75 92.0562 103.92 93.1744 101.05 92.8911C98.1797 92.6077 95.6225 90.9575 94.1818 88.4592L84.7969 72.2406L87.9953 66.7017L117.383 80.0444Z" fill="#1BB3BC"/>
<path fill-rule="evenodd" clip-rule="evenodd" d="M110.96 44.2602C110.96 44.2602 109.885 49.5397 111.17 51.5374C111.17 51.5374 114.499 49.5661 114.342 45.9982C114.185 42.4303 110.96 44.2602 110.96 44.2602" fill="#EC0000"/>
<path d="M113.137 48.0078C113.766 48.3854 113.845 49.4051 113.295 50.286C112.771 51.1639 111.827 51.5729 111.197 51.1928C110.594 50.8155 110.516 49.7956 111.04 48.9188C111.565 48.0421 112.508 47.6317 113.137 48.009" fill="#723846"/>
<path fill-rule="evenodd" clip-rule="evenodd" d="M111.458 50.7245V50.7192L110.908 52.2318L107.394 61.7291C106.879 63.182 105.816 64.3758 104.432 65.0558C104.414 65.059 104.397 65.0634 104.38 65.069C104.018 65.2474 103.641 65.3905 103.252 65.4962C102.706 65.6489 102.141 65.7244 101.574 65.7208C101.417 65.7208 101.26 65.7155 101.103 65.6998L100.893 65.6787C99.8503 65.6048 98.9195 64.9995 98.4293 64.0766C97.9392 63.1538 97.9587 62.0436 98.4811 61.1387L100.787 57.1618L101.496 55.9192C101.469 55.9246 101.469 55.9271 101.443 55.9324C101.246 55.9979 101.045 56.0513 100.841 56.0925C100.703 56.1286 100.563 56.1548 100.421 56.1711C98.7421 56.4032 97.1504 55.3565 96.6981 53.7228C96.4359 52.7764 96.174 51.5704 96.3051 50.7526L95.4141 50.9544L97.3539 43.0877C97.4587 42.7601 97.5375 42.4375 97.6417 42.1231C98.0028 41.0551 98.515 40.0443 99.1627 39.1215V39.1057C99.9717 37.967 101.195 37.1913 102.571 36.9458C102.925 36.8829 103.285 36.8574 103.645 36.8697C104.163 36.888 104.675 36.9826 105.166 37.1504C106.317 37.546 107.298 38.3241 107.945 39.355L108.024 39.4915L110.959 44.2598L111.51 45.1222C112.555 46.8486 112.535 49.0177 111.458 50.7242" fill="#FFC4B8"/>
<path fill-rule="evenodd" clip-rule="evenodd" d="M121.031 56.1948C119.065 52.5405 115.263 40.6314 115.263 40.6314C114.193 40.6438 113.139 40.8851 112.17 41.3392C110.676 37.0439 106.218 35.5091 103.729 35.9468C101.082 36.4108 99.8754 37.9599 99.3252 38.1382C98.775 38.3165 97.3853 41.9708 97.3601 43.0873C97.3601 43.0873 98.9852 38.3294 102.865 38.1618C106.194 38.0214 109.182 41.4804 110.205 45.9028C111.253 51.2191 109.313 56.6243 103.074 60.7138C96.8093 64.8125 77.0174 82.2434 99.6144 86.5268C122.211 90.8103 126.641 66.5567 121.031 56.1943" fill="#723846"/>
<path fill-rule="evenodd" clip-rule="evenodd" d="M110.935 45.817C111.642 45.9925 112.009 46.9417 111.773 47.9402C111.536 48.9388 110.75 49.6075 110.043 49.4318C109.336 49.256 108.968 48.3088 109.204 47.3111C109.44 46.3134 110.226 45.6438 110.935 45.8168" fill="#FFC4B8"/>
<path fill-rule="evenodd" clip-rule="evenodd" d="M97.3516 43.0881C97.3516 43.0881 100.707 42.6265 101.494 40.215L101.756 39.4851C101.756 39.4851 109.725 48.0475 110.669 46.1618C112.398 42.7672 105.583 36.287 105.373 36.3209C105.19 36.3524 100.471 37.5921 100.261 37.954C100.078 38.313 98.5576 39.2804 98.5576 39.2804L97.3516 43.0881Z" fill="#723846"/>
<path d="M83.8398 54.3368C84.2318 54.0653 84.577 53.732 84.862 53.3498C85.2728 52.7891 85.646 52.2019 85.979 51.5918" stroke="#DEEDF2" stroke-width="1.628" stroke-dasharray="2.44"/>
<path fill-rule="evenodd" clip-rule="evenodd" d="M91.8249 47.5603C91.8225 49.5569 90.2037 51.1743 88.2071 51.1751C86.2107 51.1743 84.592 49.5568 84.5898 47.5603C84.5919 45.5638 86.2105 43.9461 88.2071 43.9453C90.2038 43.9461 91.8226 45.5637 91.8249 47.5603Z" fill="#CEDEE7"/>
<path fill-rule="evenodd" clip-rule="evenodd" d="M90.4366 47.5601C90.4358 46.3304 89.4384 45.334 88.2087 45.3345C86.9789 45.3342 85.9816 46.3304 85.9805 47.5601C85.9805 48.1509 86.2154 48.7174 86.6334 49.1348C87.0514 49.5523 87.6182 49.7865 88.2089 49.7858C88.7996 49.7864 89.3662 49.5522 89.7841 49.1347C90.2019 48.7172 90.4367 48.1508 90.4366 47.5601V47.5601Z" stroke="white" stroke-linecap="square" stroke-linejoin="round"/>
<path fill-rule="evenodd" clip-rule="evenodd" d="M88.2067 46.0762C88.0115 46.0647 87.8206 46.1362 87.6809 46.273C87.5412 46.4098 87.4658 46.5992 87.4732 46.7946L87.5779 47.5155C87.6149 47.8315 87.8888 48.0657 88.2067 48.0531C88.5248 48.0661 88.7992 47.8317 88.8361 47.5155L88.915 46.7946C88.9327 46.601 88.8641 46.4094 88.7276 46.2709C88.5911 46.1325 88.4006 46.0612 88.2067 46.0762Z" stroke="white" stroke-linecap="round" stroke-linejoin="round"/>
<path d="M86.5273 49.0424C86.6676 48.7232 86.9921 48.5254 87.3401 48.5469C87.5842 48.5642 87.8236 48.6236 88.0475 48.7224C88.1482 48.7645 88.2615 48.7645 88.3622 48.7224C88.5863 48.6236 88.8257 48.5643 89.07 48.5469C89.4212 48.5117 89.7532 48.714 89.8827 49.0424" stroke="white" stroke-linecap="round" stroke-linejoin="round"/>
<path d="M81.8242 57.9565L81.9404 58.9282C81.9404 58.9282 84.4011 61.306 84.3719 61.0618C84.3427 60.8175 81.8242 57.9565 81.8242 57.9565Z" fill="#F4A48D"/>
<path d="M97.5534 47.4746L96.3984 50.6927C96.3984 50.6927 97.9425 49.4656 98.1045 48.5835C98.2378 48.1267 97.998 47.6441 97.5534 47.4746Z" fill="#F4A48D"/>
<path d="M101.54 55.8376L100.828 57.0927C101.484 57.0711 102.132 56.9459 102.749 56.7216C103.687 56.3603 103.884 56.4409 104.801 55.6054C105.477 54.9753 106.025 54.2206 106.415 53.3828C106.415 53.2046 104.888 54.8188 103.698 55.2475C102.996 55.5025 102.274 55.6999 101.54 55.8376Z" fill="#F4A48D"/>
<path d="M44.6172 16.456C79.0182 12.5467 85.0725 32.8523 85.2151 40.8493" stroke="#DEEDF2" stroke-width="1.8" stroke-dasharray="2.71"/>
<path d="M42.1562 38.9508C61.1219 34.9251 77.4264 43.0888 82.9774 46.6149" stroke="#DEEDF2" stroke-width="1.8" stroke-dasharray="2.73"/>
<path fill-rule="evenodd" clip-rule="evenodd" d="M85.7984 35.4828C85.7957 36.0428 85.3402 36.495 84.7801 36.4935C84.2254 36.4882 83.7782 36.0375 83.7773 35.4828C83.7784 34.9281 84.2255 34.4776 84.7801 34.4722C85.34 34.4709 85.7954 34.9229 85.7984 35.4828Z" fill="#DEEDF2"/>
<path fill-rule="evenodd" clip-rule="evenodd" d="M34.6342 41.9365H27.1875V23.9341H34.6346L34.6342 41.9365Z" fill="#DEEDF2"/>
<path fill-rule="evenodd" clip-rule="evenodd" d="M47.7383 29.9175C47.7382 32.4558 48.7478 34.8898 50.5444 36.6829C52.3404 38.4758 54.7757 39.481 57.3135 39.4767C59.8469 39.4749 62.2758 38.4666 64.0657 36.6738C65.8556 34.8809 66.8599 32.4504 66.8577 29.917C66.8619 24.6411 62.589 20.3602 57.313 20.3545C54.7746 20.351 52.339 21.3569 50.543 23.1507C48.7469 24.9444 47.7378 27.3787 47.7383 29.917" fill="#DEEDF2"/>
<path fill-rule="evenodd" clip-rule="evenodd" d="M28.0469 77.7248C28.048 83.9667 30.5288 89.9526 34.9435 94.3653C39.3582 98.7781 45.3452 101.256 51.5872 101.255C64.5788 101.25 75.1079 90.7164 75.1077 77.7248C75.1079 64.7348 64.5814 54.2021 51.5914 54.1948C45.3488 54.1925 39.361 56.6703 34.9454 61.0831C30.5299 65.4959 28.0484 71.4822 28.0469 77.7248" fill="white"/>
<path d="M39.4553 175.529L88.3822 168.041C90.9946 167.648 93.3426 166.23 94.9071 164.101C96.472 161.972 97.1249 159.308 96.7214 156.696L76.7899 26.3586C75.948 20.9279 70.872 17.2012 65.4385 18.0246L16.5121 25.5127C13.8994 25.9068 11.5509 27.3246 9.98529 29.4531C8.42033 31.582 7.76764 34.2464 8.17149 36.8575L28.1044 167.195C28.9463 172.626 34.0219 176.352 39.4553 175.529Z" fill="#9E3667"/>
<path fill-rule="evenodd" clip-rule="evenodd" d="M42.4628 175.068L91.3891 167.584C96.8161 166.739 100.542 161.67 99.7298 156.238L79.7672 25.8996C79.374 23.2919 77.9595 20.9478 75.8357 19.3845C73.7118 17.821 70.8483 16.8546 68.2394 17.2536L19.2824 24.7417C16.6758 25.143 14.5421 26.8759 12.9833 29.0035C11.4245 31.1314 10.7757 33.7918 11.1799 36.3984L31.1119 166.736C31.9454 172.172 37.027 175.903 42.4628 175.07" fill="white"/>
<path fill-rule="evenodd" clip-rule="evenodd" d="M12.0274 41.9335L30.4543 162.42C31.0269 166.165 35.6933 168.559 39.4263 167.984L93.3212 159.74C97.0643 159.162 99.6352 155.666 99.0712 151.921L80.6152 31.438C80.3439 29.6414 79.3697 28.0263 77.9071 26.9483C76.4445 25.8703 74.6135 25.4178 72.8171 25.6903L18.9222 33.9368C15.1582 34.509 11.4558 38.1883 12.0274 41.9354" fill="white"/>
<path d="M29.8516 158.43L30.4538 162.417C30.4787 162.616 30.5191 162.813 30.5747 163.007C31.5073 166.409 35.8731 168.528 39.4263 167.986L93.3207 159.74C96.5681 159.248 99.0076 156.518 99.1319 153.236C99.1566 152.796 99.1364 152.355 99.0717 151.919L98.4393 147.929L29.8516 158.43Z" fill="#DEEDF2"/>
<path fill-rule="evenodd" clip-rule="evenodd" d="M40.7474 26.7414L48.6669 25.528C48.915 25.4837 49.0859 25.2542 49.0574 25.0038C49.0394 24.8798 48.9714 24.7686 48.8692 24.6961C48.767 24.6234 48.6396 24.5955 48.5163 24.619L40.5987 25.8291C40.479 25.8475 40.3722 25.9146 40.3037 26.0145C40.2353 26.1144 40.211 26.2381 40.2364 26.3565C40.2528 26.476 40.3164 26.5839 40.4128 26.6562C40.5085 26.7289 40.6295 26.7598 40.7483 26.7419" fill="#DEEDF2"/>
<path fill-rule="evenodd" clip-rule="evenodd" d="M29.4891 27.9968C29.6343 28.9005 30.4794 29.5193 31.3848 29.3848C31.8205 29.32 32.2122 29.0837 32.4726 28.7284C32.7325 28.373 32.8399 27.9287 32.7709 27.4938C32.7044 27.0579 32.4675 26.6662 32.1122 26.4051C31.7562 26.1446 31.3109 26.0369 30.8752 26.1058C29.9747 26.2522 29.3582 27.0941 29.4905 27.9968" fill="#DEEDF2"/>
<path fill-rule="evenodd" clip-rule="evenodd" d="M57.7916 23.664C57.8772 24.1314 58.3135 24.4501 58.7848 24.3896C59.0135 24.3598 59.2201 24.2377 59.3565 24.0517C59.4927 23.8656 59.547 23.6319 59.507 23.4048C59.4772 23.1801 59.3586 22.9767 59.1777 22.8402C58.9966 22.7039 58.7686 22.6456 58.5444 22.6783C58.0681 22.7481 57.7342 23.1847 57.7916 23.6626" fill="#DEEDF2"/>
<path fill-rule="evenodd" clip-rule="evenodd" d="M54.4779 24.1726C54.5649 24.639 55.0011 24.9562 55.4716 24.8953C55.7005 24.8659 55.9073 24.7439 56.0438 24.5579C56.1804 24.372 56.2345 24.138 56.1934 23.911C56.1634 23.687 56.0448 23.4844 55.864 23.3487C55.6832 23.2131 55.4557 23.1553 55.2321 23.1883C54.7552 23.2569 54.4207 23.6943 54.4793 24.1726" fill="#DEEDF2"/>
<path fill-rule="evenodd" clip-rule="evenodd" d="M12.0275 41.934L14.9484 61.1071L83.5658 50.611L80.6153 31.438C80.3439 29.6414 79.3696 28.0263 77.9069 26.9483C76.4442 25.8703 74.6131 25.4177 72.8167 25.6903L18.9223 33.9368C15.1582 34.509 11.4554 38.1883 12.0275 41.9354" fill="#EC0000"/>
<path d="M74.65 84.2153L36.6836 90.0232" stroke="#CEDEE7" stroke-width="1.046"/>
<path fill-rule="evenodd" clip-rule="evenodd" d="M76.3419 46.7095L39.5781 52.3306L39.7894 53.6974L76.5522 48.073L76.3419 46.7095Z" fill="#EC0000"/>
<path fill-rule="evenodd" clip-rule="evenodd" d="M75.9774 44.3813L63.1797 46.3354L63.3905 47.7022L76.1882 45.7453L75.9774 44.3813Z" fill="#EC0000"/>
<path fill-rule="evenodd" clip-rule="evenodd" d="M90.3095 126.63L72.3945 129.373L75.1343 147.299L93.0492 144.556L90.3095 126.63Z" fill="#DEEDF2"/>
<path fill-rule="evenodd" clip-rule="evenodd" d="M69.7454 129.779L51.8008 132.522L54.5711 150.446L72.4851 147.703L69.7454 129.779Z" fill="#DEEDF2"/>
<path fill-rule="evenodd" clip-rule="evenodd" d="M49.1527 132.926L31.2383 135.669L33.9776 153.595L51.9226 150.852L49.1527 132.926Z" fill="#DEEDF2"/>
<path fill-rule="evenodd" clip-rule="evenodd" d="M83.5671 50.6118L14.9492 61.1078L19.1645 88.6752L87.7838 78.1791L83.5671 50.6118Z" fill="#DEEDF2"/>
<path fill-rule="evenodd" clip-rule="evenodd" d="M19.1602 88.6741L23.3749 116.241L91.9933 105.743L90.0967 93.2413L89.4643 89.1856L87.7785 78.1758L76.5772 79.8889L75.2226 80.0997L72.3926 80.533L72.2415 80.5514L19.1602 88.6741Z" fill="#9BC3D3"/>
<path d="M67.0938 81.8759C67.9162 83.0501 68.8325 84.1558 69.8335 85.1821C70.8741 86.2552 72.0018 87.2402 73.2051 88.127C77.8725 91.5405 84.4667 93.2329 90.0962 93.2423L89.4634 89.1866L87.7781 78.1768L76.5772 79.8899L70.8263 81.308L67.0938 81.8759Z" fill="#9BC3D3"/>
<path d="M64.5352 90.3267L73.2066 88.129L76.6092 87.2679L70.8282 81.3066L67.0942 81.8755C67.0641 81.8214 67.0044 81.7673 66.9738 81.7099L66.9131 81.8981L64.5352 90.3267Z" fill="#9BC3D3"/>
<path fill-rule="evenodd" clip-rule="evenodd" d="M22.7741 74.0181C23.4589 78.4412 27.5931 81.4764 32.0181 80.8047C34.1434 80.4814 36.0523 79.325 37.3231 77.5912C38.5949 75.8575 39.1234 73.6884 38.7915 71.564C38.4752 69.4399 37.3253 67.5295 35.5963 66.2558C33.8669 64.9821 31.7013 64.4501 29.5786 64.7774C25.1527 65.4578 22.1104 69.5893 22.7746 74.0177" fill="#DEEDF2"/>
<path d="M27.0837 102.145C27.7665 106.568 31.9016 109.604 36.3268 108.931C38.4527 108.608 40.3625 107.452 41.6341 105.718C42.9047 103.983 43.4331 101.815 43.1025 99.6905C42.7783 97.5636 41.6214 95.653 39.8871 94.3799C38.1531 93.1068 35.984 92.5757 33.858 92.9039C29.4375 93.588 26.4059 97.7225 27.0828 102.144" fill="#DEEDF2"/>
<path fill-rule="evenodd" clip-rule="evenodd" d="M79.0804 64.7021L42.3477 70.3266L42.5283 71.691L79.2912 66.0699L79.0804 64.7021Z" fill="white"/>
<path fill-rule="evenodd" clip-rule="evenodd" d="M79.0762 93.7153L53.875 97.5735L54.0853 98.9408L79.2869 95.0826L79.0762 93.7153Z" fill="white"/>
<path fill-rule="evenodd" clip-rule="evenodd" d="M29.8516 158.43L30.4543 162.417C30.478 162.617 30.518 162.814 30.5738 163.007L30.6039 163.001L30.4543 161.95L98.9809 151.463L98.4398 147.932L29.8516 158.43Z" fill="#EC0000"/>
<path fill-rule="evenodd" clip-rule="evenodd" d="M59.4634 53.7048C53.2018 64.6073 56.9297 78.5203 67.8036 84.8315C78.7043 91.1214 92.6399 87.3882 98.9364 76.4913C101.959 71.2578 102.778 65.038 101.214 59.2005C99.6494 53.3629 95.8302 48.386 90.5963 45.3646C79.6959 39.0719 65.7583 42.8056 59.4634 53.7048Z" fill="white"/>
<path fill-rule="evenodd" clip-rule="evenodd" d="M64.5664 90.3519L73.7794 85.0197L64.5664 79.6992V90.3519Z" fill="white"/>
<path fill-rule="evenodd" clip-rule="evenodd" d="M85.8887 64.5865V57.6846C85.8577 53.8781 82.7788 50.8003 78.9723 50.7706C77.1359 50.7621 75.3724 51.4878 74.0738 52.7862C72.7756 54.0849 72.0501 55.8484 72.0587 57.6846V64.5865H74.1322V57.8658C74.1214 56.5825 74.6294 55.3492 75.5409 54.4457C76.4522 53.5422 77.6897 53.0449 78.9727 53.0666C80.2344 53.0737 81.441 53.5846 82.3241 54.4857C83.2072 55.3871 83.693 56.6041 83.6735 57.8658V64.5874L85.8887 64.5865Z" fill="#EC0000"/>
<path fill-rule="evenodd" clip-rule="evenodd" d="M88.6566 64.5864H69.1556C68.8279 64.6315 68.5882 64.9184 68.6022 65.2489V75.8145C68.5865 76.49 68.8405 77.1439 69.308 77.6316C69.7753 78.1196 70.4176 78.4013 71.0931 78.4146H86.72C88.1538 78.3986 89.3164 77.2481 89.3473 75.8145V65.2494C89.3016 64.8942 89.0151 64.6187 88.6584 64.5869L88.6566 64.5864Z" stroke="#EC0000" stroke-width="4" stroke-linejoin="round"/>
<path fill-rule="evenodd" clip-rule="evenodd" d="M80.8163 70.8147C80.8606 70.4285 80.7805 70.0382 80.5877 69.7006L80.3232 69.2423L79.2627 67.4073C79.1652 67.2346 79.094 67.0483 79.0515 66.8545L78.9964 66.9486C78.6757 67.5182 78.6757 68.2139 78.9964 68.7836L80.0946 70.6853C80.3847 71.2413 80.3709 71.9068 80.0579 72.4502L80.0028 72.5443C79.9644 72.349 79.8933 72.1616 79.7925 71.99L79.8937 72.1618L78.9969 70.6138L78.1843 69.1985L78.2112 69.2399C78.1107 69.0682 78.0396 68.8809 78.0008 68.6857L77.9458 68.7798C77.6159 69.347 77.6159 70.0476 77.9458 70.6148L77.9815 70.675L78.7344 71.9924L78.9997 72.4507C79.3297 73.0178 79.3297 73.7185 78.9997 74.2856L78.9447 74.3797C78.9059 74.1844 78.8348 73.997 78.7344 73.825L78.8346 73.9972L77.4174 71.5332C77.2886 71.3126 77.2072 71.0676 77.1784 70.8138C75.605 71.169 74.5078 71.9731 74.5078 72.9085C74.5078 74.1732 76.5202 75.2003 78.9988 75.2003C81.4863 75.2003 83.4897 74.1741 83.4897 72.9085C83.4897 71.9755 82.3916 71.1676 80.8182 70.8138" fill="#EC0000"/>
</g>
<defs>
<clipPath id="clip0_1487_20588">
<rect width="160" height="140.308" fill="white" transform="translate(1 10)"/>
</clipPath>
</defs>
</svg>
