<svg width="160" height="160" viewBox="0 0 160 160" fill="none" xmlns="http://www.w3.org/2000/svg">
<rect y="62.8398" width="160" height="95.7862" fill="white"/>
<path fill-rule="evenodd" clip-rule="evenodd" d="M13.1771 79.3908C17.892 72.251 28.8655 75.6675 32.9728 78.7494C36.6311 81.4934 43.4881 99.7002 56.217 100.88C64.7199 101.668 66.8176 85.2262 72.5672 78.7494C75.3803 75.5805 79.1337 75.0537 92.0534 79.3908C104.973 83.728 113.035 91.7625 126.238 96.5989C134.9 99.7733 143.227 81.5612 149.494 91.1751C155.76 100.789 154.92 122.354 151.304 135.056C147.687 147.759 140.765 139.55 135.028 141.985C127.895 145.013 125.261 157.442 117.968 158.085C107.03 159.05 92.1143 133.947 83.6899 137.472C75.2655 140.997 65.6739 147.771 62.7183 152.76C57.4026 161.732 50.2844 153.992 46.0205 154.467C33.5011 155.864 20.6945 160.392 11.4438 154.467C8.86871 152.818 5.96912 152.878 4.13296 150.296C2.53988 148.056 0.163595 141.931 0.0218142 139.333C-0.559471 128.705 10.6537 116.127 12.4839 107.308C14.742 96.4198 8.46236 86.5306 13.1771 79.3908Z" fill="#EAF7FE"/>
<path fill-rule="evenodd" clip-rule="evenodd" d="M129.403 138.033L117.509 117.471C112.818 109.282 104.49 103.833 95.1078 102.813C94.8604 102.789 94.6289 102.766 94.3987 102.746L90.4893 102.413L82.0094 104.639L78.5783 107.349C75.9888 109.396 74.7548 112.714 75.3781 115.956C75.9271 118.833 76.9591 121.596 78.4302 124.129L86.8594 138.724L88.9702 139.355L89.3667 134.478L90.4887 138.031L129.403 138.033Z" fill="#2A8FEC"/>
<path fill-rule="evenodd" clip-rule="evenodd" d="M126.336 111.418C126.045 111.44 125.758 111.49 125.478 111.57C123.164 112.208 121.805 114.6 122.442 116.914C122.875 118.486 124.147 119.685 125.741 120.026C126.133 120.107 126.486 120.315 126.747 120.617C127.874 121.946 129.684 122.476 131.35 121.964C133.627 121.268 134.926 118.875 134.269 116.586C134.253 116.563 134.253 116.542 134.237 116.519C134.026 115.784 134.288 114.994 134.897 114.532C136.314 113.44 136.921 111.594 136.43 109.874C135.748 107.565 133.335 106.236 131.019 106.894C129.518 107.324 128.361 108.523 127.983 110.039C127.794 110.809 127.127 111.368 126.335 111.418" fill="#1BB3BC"/>
<path fill-rule="evenodd" clip-rule="evenodd" d="M133.048 116.685C132.783 116.562 132.507 116.464 132.223 116.392C129.895 115.799 127.526 117.202 126.928 119.529C126.527 121.106 127.035 122.776 128.247 123.862C128.543 124.128 128.745 124.482 128.825 124.872C129.141 126.588 130.453 127.949 132.158 128.326C134.478 128.843 136.787 127.41 137.353 125.101C137.353 125.08 137.37 125.057 137.37 125.034C137.542 124.288 138.161 123.728 138.92 123.631C140.697 123.394 142.145 122.089 142.566 120.346C143.132 118.01 141.701 115.655 139.366 115.082C137.85 114.712 136.252 115.179 135.176 116.309C134.621 116.879 133.765 117.031 133.048 116.686" fill="#9BC3D3"/>
<path fill-rule="evenodd" clip-rule="evenodd" d="M142.566 120.346C142.146 122.089 140.697 123.393 138.921 123.629C138.161 123.727 137.543 124.288 137.371 125.034C137.371 125.056 137.354 125.079 137.354 125.104C137.192 125.794 136.857 126.432 136.381 126.958C136.194 127.175 135.983 127.37 135.753 127.541C134.749 128.307 133.461 128.599 132.224 128.341C132.201 128.338 132.179 128.333 132.158 128.326C130.504 127.954 129.214 126.662 128.842 125.008C128.842 124.962 128.825 124.919 128.825 124.874C128.745 124.484 128.543 124.13 128.247 123.864C127.035 122.778 126.527 121.108 126.928 119.53C127.526 117.204 129.895 115.801 132.223 116.394C132.507 116.465 132.783 116.563 133.048 116.687C133.764 117.033 134.622 116.881 135.176 116.31C136.252 115.18 137.85 114.713 139.366 115.083C141.701 115.656 143.132 118.011 142.566 120.347" fill="#1BB3BC"/>
<path d="M137.288 127.191L135.755 127.538L132.226 128.339C132.203 128.336 132.181 128.331 132.16 128.324C130.506 127.952 129.215 126.66 128.844 125.006L136.382 126.954L137.288 127.191Z" fill="#1BB3BC"/>
<path fill-rule="evenodd" clip-rule="evenodd" d="M127.637 126.973L130.771 138.032H135.39L138.524 126.973H127.637Z" fill="#DEEDF2"/>
<path fill-rule="evenodd" clip-rule="evenodd" d="M66.7171 122.285L66.008 122.084L65.9917 122.073C65.9737 122.066 65.9569 122.057 65.9419 122.045L63.5826 120.765C63.275 120.604 63.1341 120.239 63.2528 119.913C63.3541 119.617 63.634 119.421 63.9463 119.425C64.0135 119.426 64.0802 119.436 64.144 119.457L64.9358 119.688L65.6449 119.899L66.5686 120.169L66.7171 122.285Z" fill="#FFC4B8"/>
<path fill-rule="evenodd" clip-rule="evenodd" d="M59.4102 148.447H137.891V137.519H59.4102V148.447Z" fill="#DEEDF2"/>
<path fill-rule="evenodd" clip-rule="evenodd" d="M57.1016 141.344C57.1016 140.818 63.9637 140.394 72.4098 140.394C80.8709 140.394 87.718 140.819 87.718 141.344C87.718 141.869 80.8722 142.294 72.4098 142.294C63.9637 142.294 57.1016 141.869 57.1016 141.344Z" fill="#9BC3D3"/>
<path fill-rule="evenodd" clip-rule="evenodd" d="M146.887 141.292H118.183L114.703 145.226V145.871H143.407L146.887 141.936V141.292Z" fill="#CEDEE7"/>
<path fill-rule="evenodd" clip-rule="evenodd" d="M86.0986 112.59C86 112.31 85.8841 112.047 85.7857 111.785C85.7196 111.612 85.6698 111.444 85.6037 111.28C85.0102 109.556 84.6641 108.231 84.6641 108.231L88.3589 102.456L89.0025 101.427L89.0849 101.307L89.1673 101.172L90.1571 99.6345L90.4869 99.1108C90.4869 99.1108 90.5361 99.305 90.6517 99.6217C90.7669 99.9228 90.9317 100.335 91.1462 100.791C91.4296 101.38 91.7665 101.942 92.1526 102.47C93.6292 104.509 94.5604 106.892 94.858 109.392C96.046 117.806 87.7975 117.719 86.0986 112.591" fill="#FFC4B8"/>
<path fill-rule="evenodd" clip-rule="evenodd" d="M144.02 144.428H115.316L118.797 140.493H147.501L144.02 144.428Z" fill="white"/>
<path fill-rule="evenodd" clip-rule="evenodd" d="M91.8243 94.0968C91.8225 96.3918 90.9091 98.592 89.285 100.213C87.6609 101.835 85.4592 102.745 83.1643 102.743C81.3896 102.744 79.657 102.203 78.1984 101.192L80.8376 100.82L79.8319 96.3695L79.5349 94.9927L76.1862 95.759L74.7344 96.0949C74.6853 95.8906 74.6351 95.683 74.6029 95.4707C74.586 95.3653 74.571 95.2584 74.5531 95.1514C74.5201 94.8055 74.5037 94.4538 74.5039 94.0962C74.5057 91.8011 75.4192 89.6008 77.0434 87.9793C78.6676 86.3578 80.8695 85.4481 83.1646 85.4502C84.6617 85.4496 86.1336 85.8365 87.437 86.5731C89.2513 87.5995 90.6338 89.2466 91.33 91.2114C91.655 92.1386 91.8222 93.1137 91.8246 94.0962" fill="#723846"/>
<path fill-rule="evenodd" clip-rule="evenodd" d="M90.6537 99.6202L87.404 106.939C87.0449 107.838 86.3076 108.534 85.3888 108.84C84.4699 109.146 83.463 109.031 82.6364 108.526C81.9497 108.106 81.2887 107.644 80.6568 107.145L79.2219 106.002C78.778 105.653 78.384 105.245 78.0508 104.789C77.5343 104.067 77.1746 103.246 76.9949 102.377L76.0051 97.4634C75.8094 96.4965 76.1352 95.4978 76.8634 94.8322C78.5612 93.3016 80.8006 92.5136 83.0828 92.6438L86.563 92.843L89.6144 97.7217L89.8453 97.2029C90.0767 97.2029 90.654 99.6199 90.654 99.6199" fill="#FFC4B8"/>
<path fill-rule="evenodd" clip-rule="evenodd" d="M76.1523 98.1947L77.5381 98.02L80.8369 104.387L77.3398 104.866L76.1523 98.1947Z" fill="#FFC4B8"/>
<path fill-rule="evenodd" clip-rule="evenodd" d="M81.9426 131.227C83.5595 130.295 86.1825 131.813 87.799 134.615C89.4156 137.418 89.4322 140.446 87.8153 141.376C86.1984 142.306 83.5761 140.79 81.9426 137.987C80.3264 135.185 80.3264 132.159 81.9426 131.227" fill="#FFC4B8"/>
<path fill-rule="evenodd" clip-rule="evenodd" d="M82.2396 138.46L74.2227 126.66L76.2188 123.128L86.4791 132.834L82.2396 138.46Z" fill="#FFC4B8"/>
<path fill-rule="evenodd" clip-rule="evenodd" d="M113.667 118.722L125.198 138.874L130.444 139.002L136.465 140.027C136.795 140.083 137.022 140.391 136.976 140.722C136.924 141.041 136.638 141.267 136.316 141.244L132.522 140.925L128.728 141.575C128.684 141.575 128.648 141.608 128.643 141.651C128.639 141.694 128.668 141.733 128.711 141.742L131.417 142.132C131.586 142.149 131.744 142.226 131.862 142.349C131.989 142.471 132.066 142.635 132.077 142.811C132.099 143.015 132.035 143.218 131.9 143.373C131.765 143.527 131.572 143.618 131.367 143.624C129.816 143.683 127.342 143.677 125.627 143.586C123.367 143.466 122.047 141.642 122.047 141.642L105.551 120.409L113.667 118.722Z" fill="#FFC4B8"/>
<path fill-rule="evenodd" clip-rule="evenodd" d="M76.482 122.313C76.0119 121.608 75.2478 121.153 74.4035 121.075L72.9188 120.947L72.5066 120.142L72.8029 120.276C73.0087 120.369 73.2518 120.302 73.3805 120.116L73.414 120.081C73.4851 119.971 73.5093 119.838 73.4813 119.71C73.4533 119.582 73.3754 119.471 73.2649 119.401L72.5557 118.968L72.9842 118.575C73.1236 118.452 73.1582 118.249 73.0672 118.088C72.9901 117.971 72.8603 117.9 72.7205 117.898C72.6815 117.898 72.6428 117.904 72.6059 117.916L71.4833 118.292L69.9992 118.694C69.7523 118.759 69.5695 118.967 69.5372 119.22L69.2237 121.32V119.143C69.2234 119.063 69.2404 118.983 69.2735 118.909L70.4446 116.234C70.5081 116.08 70.5008 115.907 70.4246 115.759C70.3485 115.611 70.2112 115.505 70.0493 115.468C69.7966 115.421 69.543 115.544 69.4219 115.771L67.6732 118.99C67.6087 119.081 67.5741 119.189 67.5739 119.301L67.4586 121.214L67.0627 119.296C67.0459 119.199 67.0459 119.099 67.0627 119.001L67.7719 115.888C67.805 115.742 67.7758 115.589 67.6912 115.466C67.6066 115.343 67.4744 115.26 67.3265 115.239C67.0733 115.204 66.831 115.354 66.7495 115.596L65.8252 118.33L65.5943 119.032C65.5506 119.138 65.5395 119.255 65.5624 119.368L65.6448 119.896L66.0078 122.085L66.14 122.841L66.3383 124.062C66.3916 124.384 66.6313 124.644 66.9481 124.723L74.2231 126.66L78.3802 125.189L76.482 122.313Z" fill="#FFC4B8"/>
<path fill-rule="evenodd" clip-rule="evenodd" d="M90.2583 96.3799C90.2583 95.1928 89.714 94.2314 89.0211 94.2314C88.3452 94.2314 87.8008 95.1931 87.8008 96.3799C87.8008 97.5667 88.3452 98.5287 89.0211 98.5287C89.714 98.5287 90.2583 97.5654 90.2583 96.3799Z" fill="#FFC4B8"/>
<path fill-rule="evenodd" clip-rule="evenodd" d="M78.0156 98.0201L78.4946 94.2314L79.4674 98.0201H78.0156Z" fill="#FFC4B8"/>
<path fill-rule="evenodd" clip-rule="evenodd" d="M93.9708 89.5899C93.9686 90.4673 93.6179 91.3078 92.996 91.9266C92.374 92.5454 91.5317 92.8917 90.6543 92.8894C88.8333 92.8866 87.3579 91.4109 87.3555 89.5899C87.3586 87.7695 88.8339 86.2946 90.6543 86.292C91.5315 86.2895 92.3736 86.6356 92.9956 87.2541C93.6175 87.8726 93.9683 88.7128 93.9708 89.5899Z" fill="#723846"/>
<path fill-rule="evenodd" clip-rule="evenodd" d="M91.4931 92.1553C88.794 95.4321 84.7693 97.328 80.524 97.3223C80.342 97.3223 80.1772 97.3191 80.0131 97.3124C79.7655 97.3041 79.5182 97.2893 79.2711 97.2681L78.4952 94.232L78.1322 97.1231C77.535 97.024 76.9453 96.8838 76.3675 96.7032C75.8106 96.5364 75.2651 96.3338 74.7343 96.0966C74.6874 95.7462 74.6653 95.3929 74.6682 95.0394C74.6728 90.2611 78.5499 86.391 83.3283 86.395C84.826 86.3912 86.2989 86.7783 87.6013 87.518C89.4158 88.5439 90.7982 90.1912 91.4937 92.1563" fill="#723846"/>
<path fill-rule="evenodd" clip-rule="evenodd" d="M110.877 111.597L114.704 118.697L104.444 123.235L98.2578 114.1L104.228 109.993C105.304 109.255 106.642 109.008 107.91 109.314C109.178 109.62 110.256 110.45 110.876 111.597" fill="#2A8FEC"/>
<path fill-rule="evenodd" clip-rule="evenodd" d="M70.3147 158.625H27.474C25.4888 158.627 23.6536 157.569 22.66 155.85C21.6664 154.132 21.6653 152.014 22.6573 150.294L31.9291 134.275C34.3284 130.126 38.2327 127.06 42.8321 125.713L48.9024 123.93L54.9739 125.713C59.5667 127.065 63.4644 130.131 65.8616 134.275L75.1328 150.294C76.1277 152.013 76.1281 154.133 75.1337 155.853C74.1394 157.573 72.3019 158.63 70.3154 158.625" fill="#F6C854"/>
<path fill-rule="evenodd" clip-rule="evenodd" d="M37.9 158.626H27.474C25.4888 158.627 23.6536 157.57 22.66 155.851C21.6664 154.132 21.6653 152.014 22.6573 150.294L27.8706 141.291L37.9 158.626Z" fill="#723846"/>
<path fill-rule="evenodd" clip-rule="evenodd" d="M70.3124 158.626H58.3359L69.1406 139.936L75.1285 150.294C76.1239 152.014 76.1245 154.134 75.1302 155.853C74.1359 157.573 72.2983 158.631 70.3118 158.626" fill="#723846"/>
<path fill-rule="evenodd" clip-rule="evenodd" d="M55.7471 122.66L55.5658 124.685C53.7098 124.479 52.0357 123.475 50.9805 121.934C52.1024 122.509 53.9157 122.565 55.3844 122.489L55.7471 122.66Z" fill="#F4A48D"/>
<path fill-rule="evenodd" clip-rule="evenodd" d="M66.3064 158.56H30.1311C29.6731 158.564 29.2776 158.24 29.1914 157.791L25.6276 141.009C25.5655 140.724 25.6357 140.426 25.8184 140.199C26.0011 139.972 26.2768 139.839 26.5685 139.838H62.7438C63.2036 139.837 63.6024 140.156 63.7016 140.605L67.2486 157.388C67.3106 157.673 67.2405 157.97 67.0579 158.198C66.8754 158.425 66.5998 158.558 66.3083 158.559" fill="#9BC3D3"/>
<path fill-rule="evenodd" clip-rule="evenodd" d="M67.4443 158.56H31.2691C30.8147 158.554 30.4246 158.235 30.3288 157.791L26.7655 141.009C26.7074 140.722 26.7813 140.424 26.9669 140.197C27.1525 139.97 27.4302 139.838 27.7234 139.838H63.8827C64.3422 139.837 64.7407 140.156 64.8405 140.605L68.3862 157.388C68.4485 157.673 68.3785 157.97 68.1959 158.198C68.0132 158.425 67.7376 158.558 67.4459 158.559" fill="#DEEDF2"/>
<path d="M48.5063 115.704C48.7372 116.636 48.4565 117.5 47.8958 117.637C47.3352 117.774 46.6918 117.126 46.461 116.194C46.2464 115.262 46.5095 114.398 47.0877 114.263C47.6484 114.128 48.2918 114.774 48.5063 115.704" fill="#FFC4B8"/>
<path fill-rule="evenodd" clip-rule="evenodd" d="M55.7472 122.66L55.5665 124.685L55.2197 128.301C55.1997 128.608 55.1094 128.906 54.956 129.172C54.8038 129.438 54.5955 129.668 54.3455 129.845C53.0442 130.736 51.5017 131.209 49.9247 131.199C48.6041 131.205 47.3037 130.874 46.1469 130.237C45.225 129.72 44.8242 128.603 45.2065 127.618C46.2461 124.855 48.3739 119.224 48.3739 119.224L55.0384 122.334L55.3845 122.489L55.7472 122.66Z" fill="#723846"/>
<path fill-rule="evenodd" clip-rule="evenodd" d="M49.9892 106.48L54.1636 108.089L57.0333 112.619C58.0243 114.195 58.6501 115.973 58.8648 117.823L59.0624 119.552C59.1188 120.028 59.0565 120.511 58.8811 120.957C58.6317 121.503 58.2158 121.957 57.693 122.252L57.0171 122.633C55.957 123.22 54.7418 123.466 53.5368 123.338L46.7731 122.618L43.9688 109.965L49.9892 106.48Z" fill="#723846"/>
<path fill-rule="evenodd" clip-rule="evenodd" d="M57.3131 114.861L58.6165 113.713L54.164 108.089L51.2266 110.02L57.3131 114.861Z" fill="#723846"/>
<path fill-rule="evenodd" clip-rule="evenodd" d="M50.9642 105.741C50.6842 105.62 50.3872 105.514 50.1072 105.421C48.0956 104.789 45.9238 104.9 43.9871 105.734C42.2603 106.47 40.8187 107.746 39.8789 109.371C39.8661 109.39 39.8554 109.41 39.8469 109.431C39.8306 109.462 39.7971 109.498 39.7808 109.533C39.2364 110.473 36.1515 115.381 29.207 119.501C25.8583 121.486 23.9611 124.603 23.9611 127.975C23.9581 128.488 23.9964 128.999 24.0757 129.505V129.508C24.5357 132.365 26.2896 134.849 28.8277 136.238C29.7241 136.743 30.7362 137.007 31.7651 137.004C33.916 137.007 35.9044 135.86 36.9778 133.996L38.6605 131.109C41.2834 127.137 43.8731 125.63 45.0443 125.109C45.3482 124.984 45.6629 124.885 45.9846 124.816C46.3683 124.763 46.7256 124.591 47.0063 124.324C48.9201 122.823 48.475 118.024 47.9798 115.046L50.9987 109.838C52.3348 109.724 53.5215 108.938 54.1491 107.753L55.0565 106.046C53.7186 105.721 52.3365 105.618 50.9651 105.74" fill="#444444"/>
<path fill-rule="evenodd" clip-rule="evenodd" d="M48.5063 115.704C48.7372 116.636 48.4565 117.5 47.8958 117.637C47.3352 117.774 46.6918 117.126 46.461 116.194C46.2464 115.262 46.5095 114.398 47.0877 114.263C47.6484 114.128 48.2918 114.774 48.5063 115.704" fill="#723846"/>
<path d="M70.6606 74.3063C75.3837 82.5291 72.5721 93.0229 64.3706 97.7829C56.1491 102.527 45.6384 99.7116 40.8892 91.4929C38.6097 87.5457 37.9918 82.8545 39.1714 78.4516C40.351 74.0487 43.2316 70.2949 47.1792 68.016C55.4004 63.2693 65.913 66.0853 70.6606 74.306" fill="#CEDEE7"/>
<path d="M70.013 99.0755L63.4727 97.4174L60.9062 96.768L65.2664 92.2715L68.0826 92.7006C68.1049 92.6597 68.1502 92.6189 68.1729 92.5758L68.2189 92.7188L70.013 99.0755Z" fill="#CEDEE7"/>
<path fill-rule="evenodd" clip-rule="evenodd" d="M73.9027 71.4357C78.6259 79.6585 75.8143 90.1523 67.6128 94.9123C59.3913 99.6565 48.8805 96.841 44.1314 88.6223C41.8519 84.6751 41.234 79.9839 42.4136 75.581C43.5932 71.1781 46.4738 67.4243 50.4214 65.1454C58.6426 60.3987 69.1551 63.2147 73.9027 71.4354" fill="white"/>
<path fill-rule="evenodd" clip-rule="evenodd" d="M69.9884 99.0934L63.0391 95.0704L69.9884 91.0576V99.0934Z" fill="white"/>
<path fill-rule="evenodd" clip-rule="evenodd" d="M64.129 79.9673V74.7604C64.1054 71.8891 61.7832 69.5674 58.9119 69.5445C57.5265 69.5378 56.196 70.0853 55.2165 71.0649C54.2367 72.0445 53.6891 73.375 53.6954 74.7604V79.9667H55.2599V74.897C55.2518 73.9288 55.6352 72.9983 56.3231 72.3169C57.0106 71.6353 57.9442 71.2602 58.9122 71.2766C59.8638 71.282 60.7738 71.6676 61.4397 72.3475C62.1061 73.0271 62.4728 73.9453 62.4579 74.897V79.9676L64.129 79.9673Z" fill="#2A8FEC"/>
<path fill-rule="evenodd" clip-rule="evenodd" d="M66.2159 79.9673H51.5044C51.2574 80.0017 51.0767 80.2178 51.0865 80.467V88.4373C51.0746 88.9468 51.266 89.44 51.6184 89.808C51.9708 90.1762 52.4553 90.3887 52.9648 90.3987H64.7535C65.8352 90.3866 66.7122 89.5185 66.7354 88.437V80.4686C66.7011 80.2006 66.485 79.9927 66.2159 79.9689V79.9673Z" stroke="#2A8FEC" stroke-width="5" stroke-linejoin="round"/>
<path fill-rule="evenodd" clip-rule="evenodd" d="M60.2986 84.665C60.3316 84.3737 60.2711 84.0793 60.1259 83.8246L59.926 83.4792L59.1259 82.0957C59.0524 81.9653 58.9986 81.8248 58.9662 81.6787L58.9247 81.7502C58.6837 82.1796 58.6837 82.7034 58.9247 83.1327L59.7533 84.5676C59.9724 84.9869 59.9621 85.4891 59.7258 85.8991L59.6843 85.9715C59.6549 85.8243 59.6009 85.683 59.5247 85.5536L59.6006 85.6832L58.9241 84.5156L58.3107 83.4482L58.3315 83.4801C58.2551 83.3508 58.2012 83.2095 58.1718 83.0622L58.1303 83.1347C57.8818 83.562 57.8818 84.0899 58.1303 84.5172L58.1578 84.5628L58.7236 85.5549L58.9234 85.9006C59.172 86.328 59.172 86.8558 58.9234 87.2832L58.8822 87.3556C58.8528 87.2083 58.7989 87.0669 58.7226 86.9374L58.7986 87.067L57.7293 85.2084C57.6325 85.0419 57.5713 84.8571 57.5495 84.6656C56.3631 84.9338 55.5352 85.5405 55.5352 86.2461C55.5352 87.1998 57.0524 87.9751 58.9225 87.9751C60.7989 87.9751 62.3098 87.2008 62.3098 86.2461C62.3098 85.5421 61.4816 84.9338 60.2951 84.6656" fill="#2A8FEC"/>
<path d="M55.5312 111.539L57.8726 114.498C57.2538 114.498 56.6637 114.237 56.2471 113.78C55.6618 113.04 55.5312 111.539 55.5312 111.539Z" fill="#723846"/>
<path d="M77.8477 100.418L77.999 104.723C77.999 104.723 79.3196 104.186 79.1398 103.489C78.9601 102.792 77.8477 100.418 77.8477 100.418Z" fill="#F4A48D"/>
<path d="M66.0228 122.088L65.6379 119.9C65.6379 119.9 64.7909 120.37 65.0106 120.965C65.2303 121.56 66.0228 122.088 66.0228 122.088Z" fill="#F4A48D"/>
<path d="M88.9795 103.438C88.9795 103.438 88.1437 106.112 87.1012 107.515C86.0587 108.919 84.8695 108.962 84.8695 108.962L85.4466 110.844C85.4466 110.844 86.7023 110.824 87.5885 108.962C88.4747 107.1 88.9795 103.438 88.9795 103.438Z" fill="#F4A48D"/>
<path d="M51.9828 123.18C51.9828 123.18 52.8889 123.29 53.9754 123.372C54.5595 123.436 55.1506 123.363 55.701 123.157L55.5681 124.625C55.0211 124.629 54.479 124.521 53.9753 124.308C53.2778 123.994 52.6108 123.617 51.9828 123.18H51.9828Z" fill="#723846"/>
</svg>
