<svg width="160" height="160" viewBox="0 0 160 160" fill="none" xmlns="http://www.w3.org/2000/svg">
<path fill-rule="evenodd" clip-rule="evenodd" d="M56.4928 45.2814C69.5926 48.8492 72.0738 44.7561 82.1678 35.1366C92.2618 25.517 107.253 11.0181 115.573 7.34844C123.892 3.6788 151.731 2.7156 158.992 31.6787C166.252 60.6418 133.135 115.563 97.1528 127.324C61.1704 139.086 53.093 132.263 38.0821 125.375C23.0712 118.487 6.66813 101.764 2.21935 85.5438C-2.22943 69.324 -1.32073 42.3936 17.4983 37.6839C36.3174 32.9743 43.3967 41.7137 56.4928 45.2814Z" fill="#DEEDF2"/>
<ellipse cx="60.3662" cy="145.344" rx="46.9092" ry="3.57403" fill="#CCCCCC"/>
<ellipse cx="68.4096" cy="151.151" rx="39.7611" ry="3.12728" fill="#CCCCCC"/>
<ellipse cx="94.7828" cy="146.686" rx="25.9117" ry="3.12728" fill="#CCCCCC"/>
<path fill-rule="evenodd" clip-rule="evenodd" d="M53.0898 143.139H63.3652V111.182L60.1146 109.013L53.0898 143.139Z" fill="#F6C854"/>
<path fill-rule="evenodd" clip-rule="evenodd" d="M62.9648 110.794L69.3802 109.604L71.497 147.647L62.9648 142.995V110.794Z" fill="#D39E00"/>
<path fill-rule="evenodd" clip-rule="evenodd" d="M69.1367 109.647L100.052 108.486L106.039 141.316L71.3893 147.688L69.1367 109.647Z" fill="#F6C854"/>
<path d="M65.9336 109.619C66.0184 108.039 66.2393 106.469 66.5939 104.927C67.1155 102.823 67.7466 100.748 68.4846 98.7095C69.3472 98.8323 70.2163 98.9039 71.0874 98.9239C72.8288 98.9561 77.6359 99.4547 77.6359 99.4547L79.0074 109.348" stroke="#444444"/>
<path d="M73.5594 109.534C73.2023 105.643 72.623 101.776 71.8242 97.9507C73.2172 97.9605 80.3858 98.611 80.3858 98.611C80.3858 98.611 84.3709 106.653 84.5192 109.04" stroke="#D39E00"/>
<path fill-rule="evenodd" clip-rule="evenodd" d="M60.2305 109.321L69.4139 109.64L62.9807 110.881L60.2305 109.321Z" fill="#444444"/>
<path fill-rule="evenodd" clip-rule="evenodd" d="M79.5078 148.25L94.5616 144.217V72.0681L85.4488 66.3032L79.5078 148.25Z" fill="#1BB3BC"/>
<path fill-rule="evenodd" clip-rule="evenodd" d="M94.1562 71.7956L99.9837 65.8091L105.414 152.136L94.1562 144.17V71.7956Z" fill="#137E84"/>
<path fill-rule="evenodd" clip-rule="evenodd" d="M99.9297 65.4048H130.907L144.785 140.684L105.275 152.444L99.9297 65.4048Z" fill="#1BB3BC"/>
<path d="M109.135 77.2811C109.135 77.2811 107.015 48.0196 114.61 48.0723C122.205 48.1251 125.901 77.2811 125.901 77.2811" stroke="#767676"/>
<path fill-rule="evenodd" clip-rule="evenodd" d="M85.4297 66.3564L98.2712 67.6824L94.1852 71.8864L85.4297 66.3564Z" fill="#444444"/>
<path d="M91.8791 67.1081C91.8791 67.1081 91.7522 48.8278 97.6146 48.9395C103.477 49.0512 104.791 65.4569 104.791 65.4569" stroke="#767676"/>
</svg>
