<svg width="160" height="160" viewBox="0 0 160 160" fill="none" xmlns="http://www.w3.org/2000/svg">
<path fill-rule="evenodd" clip-rule="evenodd" d="M99.1795 34.0975C107.327 42.764 118.122 48.4203 129.82 50.5463C136.921 51.8366 143.715 55.2281 149.205 60.721C163.584 75.1075 163.601 98.3079 149.241 112.714C142.906 119.069 134.828 122.62 126.546 123.369C119.455 124.009 112.792 127.105 107.873 132.256C107.809 132.323 107.746 132.389 107.682 132.454C99.2892 141.022 85.7133 141.107 77.2191 132.641C77.1704 132.592 77.1221 132.543 77.0743 132.495C74.8053 130.19 71.5302 129.184 68.3568 129.8C50.264 133.316 30.8065 128.063 16.7932 114.038C-5.59775 91.6286 -5.59775 55.2297 16.7932 32.8201C39.2022 10.3929 75.5331 10.393 97.9415 32.8204C98.3622 33.2413 98.7749 33.667 99.1795 34.0975Z" fill="#EAF7FE"/>
<path d="M109.774 54.6513L107.695 54.499L109.775 54.6513" fill="#137E84"/>
<path d="M125.838 55.8268L120.105 55.4072L125.838 55.8268Z" fill="#137E84"/>
<path fill-rule="evenodd" clip-rule="evenodd" d="M61.3722 112.022C55.7403 113.959 54.1932 117.516 48.302 118.479C36.4701 120.412 8.6877 120.984 8.13835 123.833C7.05686 129.441 16.43 132.439 38.0483 135.032C37.5815 135.416 40.6813 142.434 58.1103 144.018C65.0067 144.645 76.5744 144.02 81.0107 142.65C87.8296 140.544 94.9124 139.412 102.047 139.25C127.425 138.675 147.324 135.794 147.558 131.437C147.636 129.981 146.171 127.962 143.875 126.789C142.445 126.057 144.545 125.441 145.033 125.265C151.021 123.11 154.38 120.703 154.503 118.793C154.887 112.797 132.783 106.854 106.929 105.47C89.3153 104.527 70.7727 108.787 61.3722 112.022Z" fill="#CEDEE7"/>
<path d="M126.646 119.991L123.4 123.631L43.2422 121.298L65.8752 112.798L126.646 119.991Z" fill="#DEEDF2"/>
<path d="M149.967 86.0415C149.967 86.0415 145.627 86.786 144.57 86.1081C143.289 85.2859 141.439 81.0322 141.439 81.0322L139.383 82.0123C139.383 82.0123 140.546 87.5403 142.324 88.9589C143.702 90.0594 148.178 90.9551 149.575 91.0774C151.63 91.2575 153.201 86.1396 149.967 86.0415Z" fill="#137E84"/>
<path d="M149.967 86.0415C149.967 86.0415 145.627 86.786 144.57 86.1081C143.289 85.2859 141.439 81.0322 141.439 81.0322L139.383 82.0123C139.383 82.0123 140.546 87.5403 142.324 88.9589C143.702 90.0594 148.178 90.9551 149.575 91.0774C151.63 91.2575 153.201 86.1396 149.967 86.0415Z" fill="#137E84"/>
<path fill-rule="evenodd" clip-rule="evenodd" d="M121.87 105.793L93.442 70.6871C92.6323 69.6871 92.7864 68.2203 93.7861 67.4108L114.304 50.7961C115.303 49.9866 116.77 50.1411 117.579 51.141L146.007 86.2465C146.817 87.2465 146.663 88.713 145.664 89.5225L125.146 106.137C124.146 106.947 122.68 106.793 121.87 105.793Z" fill="white"/>
<path fill-rule="evenodd" clip-rule="evenodd" d="M110.692 63.6373L108.908 61.4344C108.588 61.0389 108.007 60.9779 107.612 61.2982L105.409 63.082C105.014 63.4023 104.953 63.9826 105.273 64.3781L107.057 66.5809C107.377 66.9765 107.957 67.0374 108.353 66.7172L110.556 64.9333C110.951 64.6131 111.012 64.0328 110.692 63.6373Z" fill="#CEDEE7"/>
<path fill-rule="evenodd" clip-rule="evenodd" d="M122.064 91.3285L128.069 98.7442L126.954 99.647L120.949 92.2313L122.064 91.3285ZM115.275 82.9438L121.28 90.3595L120.165 91.2622L114.16 83.8465L115.275 82.9438ZM108.482 74.5585L114.487 81.9742L113.372 82.877L107.367 75.4613L108.482 74.5585ZM101.654 66.1249L107.659 73.5406L106.544 74.4434L100.539 67.0277L101.654 66.1249ZM101.435 72.443L103.75 75.3026L102.296 76.4801L99.9806 73.6204L101.435 72.443ZM98.4503 68.7594L100.766 71.619L99.3119 72.7965L96.9962 69.9368L98.4503 68.7594Z" fill="#CEDEE7"/>
<path fill-rule="evenodd" clip-rule="evenodd" d="M138.288 86.8075C138.63 86.5837 138.899 86.2549 139.049 85.8599L139.248 85.3311L140.048 83.2154C140.124 83.0137 140.232 82.8294 140.364 82.6674L140.248 82.6865C139.557 82.8002 138.98 83.2733 138.732 83.9276L138.732 83.928L137.903 86.1233C137.902 86.1225 137.902 86.1218 137.901 86.1211C137.639 86.7354 137.08 87.1761 136.418 87.2853L136.301 87.3044C136.433 87.1424 136.541 86.9581 136.617 86.7564L136.542 86.9547L137.217 85.1696L137.834 83.5351L137.816 83.5829C137.893 83.3811 138 83.1968 138.133 83.0348L138.016 83.0539C137.326 83.1676 136.748 83.6408 136.501 84.2951L136.501 84.2955L136.475 84.3644L135.901 85.8822L135.901 85.8824L135.701 86.4111C135.454 87.0658 134.876 87.539 134.186 87.6526L134.069 87.672C134.202 87.5099 134.31 87.3254 134.386 87.1238L134.311 87.3222L135.385 84.4793L135.385 84.4789C135.483 84.2193 135.633 83.9886 135.822 83.7972C134.461 82.7367 133.052 82.3734 132.279 83.0066C131.233 83.8637 131.747 86.2218 133.428 88.2735C135.109 90.3251 137.32 91.2934 138.366 90.4363C139.139 89.8031 139.06 88.3505 138.288 86.8075Z" fill="#2A8FEC"/>
<path fill-rule="evenodd" clip-rule="evenodd" d="M138.853 78.6728C138.853 78.6728 138.927 78.8355 139.253 78.8786C139.578 78.9219 140.204 78.9155 140.445 79.4383L140.512 79.4962C140.512 79.4962 140.629 79.2297 140.587 79.0813C140.586 79.081 140.586 79.0808 140.586 79.0805C140.578 79.0047 140.548 78.9191 140.481 78.8247C140.447 78.7776 140.396 78.7338 140.334 78.6938C140.331 78.5997 140.301 78.4921 140.215 78.3706C140.162 78.2963 140.072 78.2299 139.96 78.1725C139.931 78.0261 139.846 77.8239 139.603 77.6591C139.579 77.6427 139.55 77.6281 139.519 77.6145C139.522 77.5612 139.484 77.4807 139.339 77.3557C139.109 77.1591 138.283 77.1312 138.306 77.3534C138.306 77.3534 138.38 77.4426 138.589 77.4505C138.7 77.4546 138.837 77.4702 138.989 77.5135C138.587 77.4977 138.164 77.5868 138.164 77.7988C138.164 77.7988 138.256 77.9277 138.546 77.9108C138.678 77.9031 138.927 77.9131 139.186 77.9633C138.783 77.9246 138.412 77.9874 138.372 78.1984C138.372 78.1984 138.456 78.3826 138.825 78.4316C138.922 78.4444 139.043 78.4539 139.173 78.4711C139 78.498 138.874 78.5618 138.853 78.6728Z" fill="#FFC4B8"/>
<path d="M115.357 57.1508L115.642 54.1807L115.357 57.1508Z" fill="#34466B"/>
<path fill-rule="evenodd" clip-rule="evenodd" d="M39.558 93.5713L73.2393 90.1565C76.3876 90.0386 79.5356 90.381 82.5842 91.1752C96.8903 94.9027 138.045 106.11 138.045 106.11C147.142 109.143 148.671 114.213 148.671 118.448L123.489 123.619C120.248 123.495 101.582 117.113 98.7989 115.448C98.704 115.392 98.6095 115.336 98.5154 115.281C94.1028 112.698 88.6243 112.855 84.346 115.654C82.1488 117.092 79.5226 117.928 76.7003 117.928C70.3867 117.928 65.0535 113.745 63.3108 108.001L38.957 103.607L39.558 93.5713Z" fill="#9BC3D3"/>
<path fill-rule="evenodd" clip-rule="evenodd" d="M43.1187 93.3221C45.2964 93.2486 47.3588 93.6743 49.2113 94.4844L49.211 94.4819C49.211 94.4819 108.447 111.697 110.355 112.257C117.017 114.213 121.386 117.788 123.399 123.631L74.5204 122.349C71.2842 122.14 68.1354 121.136 65.3967 119.398C65.2424 119.3 65.0889 119.205 64.9356 119.111C60.6194 116.468 55.2034 116.625 50.8836 119.262C48.662 120.619 46.0371 121.371 43.2412 121.298C35.3125 121.09 29.0974 114.327 29.6471 106.332C30.1364 99.2241 35.9983 93.5625 43.1187 93.3221Z" fill="#9BC3D3"/>
<path d="M106.887 102.557L112.813 101.644V101.305L100.98 100.278V100.618L106.887 102.557Z" fill="#9BC3D3"/>
<path fill-rule="evenodd" clip-rule="evenodd" d="M106.887 102.217L112.813 101.305L106.906 99.4302L100.98 100.279L106.887 102.217Z" fill="#EAF7FE"/>
<path d="M98.9852 103.781L104.911 102.868V102.529L93.0781 101.502V101.842L98.9852 103.781Z" fill="#9BC3D3"/>
<path fill-rule="evenodd" clip-rule="evenodd" d="M98.9852 103.441L104.911 102.529L99.0041 100.654L93.0781 101.503L98.9852 103.441Z" fill="#EAF7FE"/>
<path d="M90.8677 104.792L96.7935 103.88V103.541L84.9609 102.514V102.854L90.8677 104.792Z" fill="#9BC3D3"/>
<path fill-rule="evenodd" clip-rule="evenodd" d="M90.8677 104.453L96.7935 103.541L90.8867 101.666L84.9609 102.514L90.8677 104.453Z" fill="#EAF7FE"/>
<path d="M117.759 105.238L123.684 104.326V103.986L111.852 102.959V103.299L117.759 105.238Z" fill="#9BC3D3"/>
<path fill-rule="evenodd" clip-rule="evenodd" d="M117.759 104.899L123.684 103.986L117.778 102.111L111.852 102.96L117.759 104.899Z" fill="#EAF7FE"/>
<path d="M109.852 106.462L115.778 105.549V105.21L103.945 104.184V104.523L109.852 106.462Z" fill="#9BC3D3"/>
<path fill-rule="evenodd" clip-rule="evenodd" d="M109.852 106.122L115.778 105.21L109.871 103.335L103.945 104.184L109.852 106.122Z" fill="#EAF7FE"/>
<path d="M101.735 107.474L107.661 106.561V106.222L95.8281 105.195V105.535L101.735 107.474Z" fill="#9BC3D3"/>
<path fill-rule="evenodd" clip-rule="evenodd" d="M101.735 107.134L107.661 106.222L101.754 104.347L95.8281 105.195L101.735 107.134Z" fill="#EAF7FE"/>
<path d="M128.626 107.919L134.552 107.007V106.667L122.719 105.641V105.98L128.626 107.919Z" fill="#9BC3D3"/>
<path fill-rule="evenodd" clip-rule="evenodd" d="M128.626 107.579L134.552 106.667L128.644 104.792L122.719 105.641L128.626 107.579Z" fill="#CEDEE7"/>
<path d="M120.719 109.143L126.645 108.231V107.891L114.812 106.865V107.204L120.719 109.143Z" fill="#9BC3D3"/>
<path fill-rule="evenodd" clip-rule="evenodd" d="M120.719 108.803L126.645 107.891L120.738 106.016L114.812 106.865L120.719 108.803Z" fill="#DEEDF2"/>
<path d="M112.606 110.154L118.532 109.242V108.903L106.699 107.876V108.216L112.606 110.154Z" fill="#9BC3D3"/>
<path fill-rule="evenodd" clip-rule="evenodd" d="M112.606 109.815L118.532 108.903L112.625 107.028L106.699 107.877L112.606 109.815Z" fill="#CEDEE7"/>
<path fill-rule="evenodd" clip-rule="evenodd" d="M43.7261 55.9449C39.142 55.9449 35.4258 59.6611 35.4258 64.2452V68.0178C35.4258 75.317 38.2253 81.9435 44.1651 83.9492C49.395 85.7151 50.821 90.0964 50.821 93.6112V94.0526L74.3708 91.6521V90.7864C74.3708 85.1833 72.0311 82.973 68.2787 81.8979C62.6864 80.2955 58.1269 74.1663 58.1269 68.3489V61.8783C58.1269 57.8614 61.3836 54.605 65.4005 54.605H66.4272C70.4444 54.605 47.743 55.9449 43.7261 55.9449Z" fill="white"/>
<path fill-rule="evenodd" clip-rule="evenodd" d="M43.0681 55.933L42.1875 55.8776L65.3177 55.1621C66.6612 55.0878 68.0113 55.3525 69.1964 55.9899C71.2462 57.0922 73.4898 58.5621 73.0382 64.2079L49.2481 66.9175C49.2481 66.9175 50.0567 56.4479 43.0681 55.933Z" fill="#DEEDF2"/>
<path d="M43.5798 55.9842L42.6992 55.9291L65.8294 54.6494C67.1729 54.5751 68.523 54.8398 69.7081 55.4772C71.758 56.5798 74.0016 59.0745 73.55 64.7204L50.785 65.6359C50.785 65.6359 51.6308 56.4755 43.5798 55.9842Z" fill="#EAF7FE"/>
<path fill-rule="evenodd" clip-rule="evenodd" d="M29.6471 106.332C30.1361 99.2243 35.9983 93.5628 43.1186 93.3221C45.2964 93.2486 47.3588 93.6743 49.211 94.4844V94.4821C49.211 94.4821 108.447 111.697 110.355 112.257C117.017 114.213 121.386 117.788 123.398 123.631L112.902 123.356C101.02 119.899 54.4453 106.363 54.4453 106.363V106.366C52.593 105.556 50.5304 105.13 48.3529 105.204C41.2326 105.444 35.3704 111.106 34.8814 118.213C34.8806 118.224 34.8806 118.234 34.8801 118.245C31.4268 115.485 29.317 111.132 29.6471 106.332Z" fill="#34466B"/>
<path fill-rule="evenodd" clip-rule="evenodd" d="M79.1608 91.9785L101.965 98.1047L79.3928 101.127L54.7148 94.4476L79.1608 91.9785Z" fill="#EAF7FE"/>
<path fill-rule="evenodd" clip-rule="evenodd" d="M66.8203 39.5051C66.8203 43.303 70.0611 46.3817 74.0589 46.3817C78.0566 46.3817 81.2975 43.303 81.2975 39.5051C81.2975 35.7072 78.0566 32.6284 74.0589 32.6284C70.0611 32.6284 66.8203 35.7072 66.8203 39.5051Z" fill="#D39E00"/>
<path fill-rule="evenodd" clip-rule="evenodd" d="M67.7109 39.5051C67.7109 43.3025 70.9522 46.3817 74.9495 46.3817C75.6086 46.3817 76.2475 46.2981 76.8541 46.1405C79.9281 45.3464 82.1879 42.6763 82.1879 39.5051C82.1879 35.7071 78.9474 32.6279 74.9495 32.6279C72.9619 32.6279 71.1612 33.3895 69.853 34.6226C68.5303 35.8683 67.7109 37.5959 67.7109 39.5051Z" fill="#FFE99F"/>
<path fill-rule="evenodd" clip-rule="evenodd" d="M67.7109 39.5051C67.7109 43.3025 70.9522 46.3817 74.9495 46.3817C75.6086 46.3817 76.2475 46.298 76.8541 46.1404L69.853 34.6226C68.5303 35.8683 67.7109 37.5959 67.7109 39.5051Z" fill="#F6C854"/>
<path fill-rule="evenodd" clip-rule="evenodd" d="M135.508 64.6218C135.508 68.4197 138.749 71.4984 142.746 71.4984C146.744 71.4984 149.985 68.4197 149.985 64.6218C149.985 60.8239 146.744 57.7451 142.746 57.7451C138.749 57.7451 135.508 60.8239 135.508 64.6218Z" fill="#D39E00"/>
<path fill-rule="evenodd" clip-rule="evenodd" d="M143.637 71.4984C144.296 71.4984 144.935 71.4148 145.542 71.2572C148.616 70.4631 150.875 67.793 150.875 64.6218C150.875 60.8238 147.635 57.7446 143.637 57.7446C141.649 57.7446 139.849 58.5062 138.54 59.7393C137.218 60.985 136.398 62.7126 136.398 64.6218C136.398 68.4192 139.64 71.4984 143.637 71.4984Z" fill="#FFE99F"/>
<path fill-rule="evenodd" clip-rule="evenodd" d="M136.398 64.6218C136.398 68.4192 139.64 71.4984 143.637 71.4984C144.296 71.4984 144.935 71.4147 145.542 71.2571L138.54 59.7393C137.218 60.985 136.398 62.7126 136.398 64.6218Z" fill="#F6C854"/>
<path fill-rule="evenodd" clip-rule="evenodd" d="M80.4023 54.3703C80.4023 58.1682 83.6432 61.247 87.6409 61.247C91.6387 61.247 94.8795 58.1682 94.8795 54.3703C94.8795 50.5724 91.6387 47.4937 87.6409 47.4937C83.6432 47.4937 80.4023 50.5724 80.4023 54.3703Z" fill="#D39E00"/>
<path fill-rule="evenodd" clip-rule="evenodd" d="M81.293 54.3703C81.293 58.1677 84.5342 61.2469 88.5315 61.2469C89.1906 61.2469 89.8295 61.1633 90.4361 61.0057C93.5102 60.2117 95.77 57.5415 95.77 54.3703C95.77 50.5723 92.5294 47.4932 88.5315 47.4932C86.5439 47.4932 84.7432 48.2547 83.435 49.4878C82.1123 50.7335 81.293 52.4611 81.293 54.3703Z" fill="#FFE99F"/>
<path fill-rule="evenodd" clip-rule="evenodd" d="M81.293 54.3703C81.293 58.1677 84.5342 61.2469 88.5315 61.2469C89.1906 61.2469 89.8295 61.1633 90.4361 61.0057L83.435 49.4878C82.1123 50.7335 81.293 52.4611 81.293 54.3703Z" fill="#F6C854"/>
<path fill-rule="evenodd" clip-rule="evenodd" d="M51.4414 52.5759C51.4414 56.3738 54.6822 59.4525 58.68 59.4525C62.6777 59.4525 65.9186 56.3738 65.9186 52.5759C65.9186 48.778 62.6777 45.6992 58.68 45.6992C54.6822 45.6992 51.4414 48.778 51.4414 52.5759Z" fill="#D39E00"/>
<path fill-rule="evenodd" clip-rule="evenodd" d="M52.332 52.5759C52.332 56.3733 55.5733 59.4525 59.5706 59.4525C60.2297 59.4525 60.8686 59.3689 61.4751 59.2113C64.5492 58.4173 66.809 55.7471 66.809 52.5759C66.809 48.7779 63.5685 45.6987 59.5706 45.6987C57.583 45.6987 55.7822 46.4603 54.4741 47.6934C53.1514 48.9391 52.332 50.6667 52.332 52.5759Z" fill="#FFE99F"/>
<path fill-rule="evenodd" clip-rule="evenodd" d="M52.332 52.5759C52.332 56.3733 55.5733 59.4525 59.5706 59.4525C60.2297 59.4525 60.8686 59.3688 61.4752 59.2112L54.4741 47.6934C53.1514 48.9391 52.332 50.6667 52.332 52.5759Z" fill="#F6C854"/>
<path d="M150.337 82.6699C150.337 82.6699 150.081 84.7454 150.832 85.5771C151.591 86.4185 147.582 88.1505 147.582 88.1505C147.582 88.1505 148.115 86.796 148.023 84.414C147.989 83.5475 150.337 82.6699 150.337 82.6699Z" fill="#F4A48D"/>
<path fill-rule="evenodd" clip-rule="evenodd" d="M150.337 82.6699C150.337 82.6699 150.081 84.7454 150.832 85.5771C151.591 86.4185 147.582 88.1505 147.582 88.1505C147.582 88.1505 148.115 86.796 148.023 84.414C147.989 83.5475 150.337 82.6699 150.337 82.6699Z" fill="#FFC4B8"/>
<path fill-rule="evenodd" clip-rule="evenodd" d="M149.883 79.4335C148.906 79.035 147.998 79.2323 147.133 80.3431C146.615 81.0069 146.734 81.8519 146.349 82.1769C146.096 82.3911 145.971 82.3099 146.023 82.4824C146.094 82.7128 146.342 82.7997 146.342 82.7997C146.342 82.7997 146.275 84.3782 147.119 84.8892C147.879 85.349 149.588 85.1512 150.37 84.0435C150.851 83.363 152.124 80.347 149.883 79.4335Z" fill="#FFC4B8"/>
<path fill-rule="evenodd" clip-rule="evenodd" d="M149.881 79.4336C149.609 79.3226 149.342 79.2598 149.081 79.248C150.422 80.264 149.907 82.8597 149.537 83.4782C148.919 84.5115 147.864 85.04 147.059 84.8468C147.078 84.8606 147.096 84.8768 147.117 84.8893C147.877 85.3491 149.404 85.1892 150.306 84.1163C150.843 83.4787 152.122 80.347 149.881 79.4336Z" fill="#F4A48D"/>
<path fill-rule="evenodd" clip-rule="evenodd" d="M147.443 77.8341C147.443 77.8341 147.97 78.2891 148.221 78.1491C148.472 78.0094 149.273 77.8329 149.835 78.0966C150.596 78.4533 150.423 78.7717 150.628 78.7763C151.513 78.7968 152.411 79.4309 152.543 80.4219C152.723 81.7682 151.8 83.0953 151.209 83.8276C150.866 84.2527 150.681 84.8338 150.681 84.8338C150.681 84.8338 149.523 84.1838 150.239 82.1442C150.436 81.5829 150.312 81.4312 150.205 81.6849C150.048 82.0584 149.903 82.0658 149.903 82.0658C149.918 82.0025 149.762 80.4381 148.807 80.4665C148.56 80.474 148.285 80.5009 147.992 80.4573C147.087 80.3233 146.21 79.873 146.509 79.4337C146.521 79.417 146.537 79.4032 146.552 79.3886C146.448 79.2699 146.366 79.1407 146.318 78.9972C146.036 78.1612 146.621 77.2741 147.443 77.8341Z" fill="#137E84"/>
<path fill-rule="evenodd" clip-rule="evenodd" d="M148.167 119.991L148.108 120.79C148.089 121.039 148.14 121.287 148.255 121.509C148.442 121.868 148.695 122.626 148.579 122.878C148.402 123.261 143.375 123.247 143.227 123.011C143.08 122.775 143.462 122.723 145.497 121.909C146.148 121.648 146.104 120.462 146.104 120.462L148.167 119.991Z" fill="black"/>
<path d="M148.255 121.509C148.14 121.287 148.089 121.039 148.108 120.79L148.166 119.991L147.683 120.101L147.654 120.488C147.636 120.737 147.686 120.985 147.802 121.207C147.989 121.566 147.948 122.147 147.832 122.399C147.686 122.712 144.588 122.937 143.28 122.814C143.187 122.881 143.181 122.937 143.227 123.011C143.375 123.247 148.402 123.261 148.579 122.878C148.695 122.626 148.442 121.868 148.255 121.509Z" fill="#34466B"/>
<path fill-rule="evenodd" clip-rule="evenodd" d="M157.724 118.645L158.409 119.599C158.409 119.599 159.509 120.143 159.62 120.53C159.725 120.897 158.71 121.799 157.995 122.56C157.676 122.901 157.238 123.102 156.772 123.125C156.035 123.16 155.238 123.196 155.139 123.083C155.013 122.939 155.583 122.688 156.119 122.352C156.613 122.042 156.844 121.444 156.679 120.884L156.301 119.599L157.724 118.645Z" fill="black"/>
<path d="M159.618 120.53C159.507 120.143 158.407 119.599 158.407 119.599L157.722 118.645L157.323 118.913L157.728 119.478C157.728 119.478 158.829 120.022 158.939 120.409C159.044 120.775 158.029 121.678 157.314 122.439C156.995 122.779 156.557 122.981 156.091 123.003C155.757 123.019 155.41 123.035 155.121 123.038C155.121 123.054 155.125 123.069 155.137 123.083C155.236 123.196 156.034 123.16 156.77 123.125C157.236 123.102 157.674 122.9 157.993 122.56C158.708 121.799 159.723 120.897 159.618 120.53Z" fill="#34466B"/>
<path d="M144.939 98.3604C144.939 98.3604 143.747 107.032 143.85 109.937C143.951 112.783 145.868 121.303 145.868 121.303L148.293 121.282C148.293 121.282 149.888 113.104 148.557 110.253C147.632 108.272 150.124 104.401 150.117 101.023C150.114 99.2856 149.866 98.6566 149.866 98.6566L144.939 98.3604Z" fill="#F6C854"/>
<path fill-rule="evenodd" clip-rule="evenodd" d="M144.939 98.3604C144.939 98.3604 143.747 107.032 143.85 109.937C143.951 112.783 145.868 121.261 145.868 121.261L148.293 121.24C148.293 121.24 149.888 113.104 148.557 110.253C147.632 108.272 150.124 104.401 150.117 101.023C150.114 99.2856 149.866 98.6566 149.866 98.6566L144.939 98.3604Z" fill="#F6C854"/>
<path d="M148.146 101.308C148.146 101.308 147.86 105.095 147.216 107.42C146.701 109.285 148.213 110.968 147.832 111.843C147.491 112.624 146.681 114.047 146.979 113.851C147.276 113.655 147.652 112.872 147.832 113.263C148.011 113.655 146.738 116.005 147.227 115.663C147.717 115.32 147.995 115.075 147.832 116.495C147.668 117.915 147.277 121.164 147.277 121.164V121.291L148.291 121.283C148.291 121.283 149.886 113.104 148.555 110.253C147.934 108.922 148.854 106.738 149.524 104.424L148.146 101.308Z" fill="#F6C854"/>
<path fill-rule="evenodd" clip-rule="evenodd" d="M147.832 97.9363C147.832 97.9363 148.29 103.162 148.616 105.6C148.919 107.869 149.437 108.814 149.688 109.731C149.824 110.222 150.031 110.689 150.305 111.118L156.412 120.781L158.58 119.412C158.58 119.412 156.793 112.249 155.232 110.638C153.973 109.338 153.446 108.862 153.446 107.026C153.446 104.837 153.877 99.3149 152.749 98.3605C151.621 97.4063 147.832 97.9363 147.832 97.9363Z" fill="#F6C854"/>
<path d="M150.666 99.2097C151.862 100.076 152.064 105.614 152.23 107.797C152.369 109.628 153.142 110.063 154.496 111.264C156.14 112.722 158.129 119.361 158.201 119.589L158.582 119.412C158.582 119.412 156.794 112.249 155.233 110.638C153.975 109.338 153.448 108.862 153.448 107.026C153.448 104.837 153.878 99.3147 152.751 98.3606C151.623 97.4061 150.098 98.7986 150.666 99.2097Z" fill="#F6C854"/>
<path fill-rule="evenodd" clip-rule="evenodd" d="M147.909 86.2626C147.909 86.2626 149.061 86.5771 150.493 85.0391C150.493 85.0391 151.16 85.1203 152.1 87.7883C152.874 89.9842 153.236 99.4494 153.236 99.4494C153.236 99.4494 146.922 101.854 144.605 99.7921C144.605 99.7921 145.902 90.5365 146.012 90.0773C146.258 89.0475 147.322 87.1778 147.909 86.2626Z" fill="#2C9891"/>
<path d="M150.147 89.6592L150.88 91.5652C150.88 91.5652 147.839 94.528 145.508 94.7907L145.992 91.5373L150.147 89.6592Z" fill="#137E84"/>
<path fill-rule="evenodd" clip-rule="evenodd" d="M140.61 89.9809C142.497 90.0701 140.868 89.0027 140.439 88.8591C139.028 88.3871 138.047 87.8788 137.994 87.6207C137.91 87.2107 137.189 86.4669 136.839 86.1594C136.735 86.0684 136.509 85.8615 136.411 85.5845C136.327 85.3464 136.142 85.2347 136.127 85.4999C136.112 85.7649 136.182 85.9102 136.429 86.2555C136.549 86.4231 136.526 86.4738 136.492 86.5105C136.431 86.5745 136.072 86.2855 135.7 85.8864C135.316 85.4748 135.083 85.2454 134.883 85.2185C134.728 85.1977 134.603 85.1852 134.838 85.471C135.073 85.757 135.692 86.2009 135.637 86.3585C135.582 86.5161 135.171 86.1166 134.948 85.8636C134.724 85.6104 134.55 85.2252 134.379 85.3187C134.261 85.3828 134.276 85.5486 134.54 85.909C134.803 86.2696 135.472 86.6707 135.393 86.777C135.315 86.8834 134.699 86.3285 134.57 86.1642C134.436 85.9946 134.259 86.0238 134.42 86.3588C134.581 86.6942 134.835 86.8157 135.142 87.0664C135.45 87.3168 135.645 87.3762 135.611 87.4772C135.577 87.5759 135.357 87.4982 135.107 87.2371C134.857 86.9756 134.642 86.7376 134.613 86.918C134.584 87.0984 134.829 87.4918 135.341 87.8729C135.854 88.2543 136.51 88.7735 137.091 88.7464C137.091 88.7464 137.395 89.0949 138.798 90.5755C142.154 94.1208 140.519 90.8803 140.61 89.9809Z" fill="#FFC4B8"/>
<path fill-rule="evenodd" clip-rule="evenodd" d="M148.28 87.0962C148.28 87.0962 145.013 90.0487 143.758 90.0413C142.236 90.0328 138.395 87.431 138.395 87.431L137.184 89.3591C137.184 89.3591 141.126 93.4054 143.386 93.6522C145.14 93.8437 149.4 92.2044 150.645 91.5598C152.477 90.6116 151.064 85.4478 148.28 87.0962Z" fill="#2C9891"/>
<path d="M148.363 87.0298L146.68 88.4261L147.808 87.1543L148.363 87.0298Z" fill="#137E84"/>
<path d="M149.758 81.7101C149.758 81.7101 149.969 81.1486 150.489 81.4846C150.922 81.764 150.439 83.0265 149.621 82.6692" fill="#F4A48D"/>
<path fill-rule="evenodd" clip-rule="evenodd" d="M60.5179 80.7143L26.4751 113.589C25.5054 114.525 23.9551 114.493 23.0124 113.517L3.66371 93.4807C2.72098 92.5045 2.74302 90.9544 3.7127 90.018L37.7555 57.1432C38.7252 56.2068 40.2752 56.2388 41.2179 57.2151L60.5665 77.2512C61.5093 78.2274 61.4876 79.7779 60.5179 80.7143Z" fill="#2A8FEC"/>
<path fill-rule="evenodd" clip-rule="evenodd" d="M17.4517 96.1337L15.3156 98.1965C14.932 98.5669 14.9235 99.1803 15.2965 99.5665L17.3738 101.718C17.7468 102.104 18.3601 102.117 18.7436 101.746L20.8798 99.6835C21.2633 99.3131 21.2719 98.6998 20.8989 98.3135L18.8216 96.1624C18.4486 95.7761 17.8353 95.7633 17.4517 96.1337Z" fill="#CEDEE7"/>
<path fill-rule="evenodd" clip-rule="evenodd" d="M45.3551 81.786L52.5464 74.8416L53.5976 75.9302L46.4064 82.8747L45.3551 81.786ZM37.2223 89.6381L44.4136 82.6936L45.4648 83.7822L38.2736 90.7267L37.2223 89.6381ZM29.0934 97.4906L36.2847 90.5461L37.3359 91.6348L30.1447 98.5793L29.0934 97.4906ZM20.9136 105.388L28.1048 98.4437L29.1561 99.5324L21.9649 106.477L20.9136 105.388ZM27.5469 105.064L30.32 102.386L31.6912 103.806L28.9181 106.484L27.5469 105.064ZM23.9766 108.513L26.7496 105.835L28.1209 107.255L25.3478 109.933L23.9766 108.513Z" fill="#2274C0"/>
<path fill-rule="evenodd" clip-rule="evenodd" d="M39.0782 65.1846C38.8113 64.846 38.4414 64.5923 38.0137 64.4708L37.441 64.3079L35.1499 63.6565C34.9316 63.5943 34.7283 63.4978 34.5461 63.3731L34.5773 63.4937C34.762 64.2069 35.3123 64.7705 36.0209 64.9721L36.0214 64.9723L38.3985 65.6481C38.3978 65.6486 38.3971 65.6492 38.3964 65.6498C39.0645 65.8706 39.5791 66.4173 39.7565 67.1022L39.7877 67.2228C39.6055 67.0981 39.4022 67.0016 39.1839 66.9394L39.3986 67.0005L37.4655 66.4508L35.6956 65.9477L35.7473 65.9623C35.5288 65.9002 35.3255 65.8036 35.1433 65.679L35.1745 65.7995C35.3593 66.5127 35.9096 67.0763 36.6182 67.278L36.6187 67.2781L36.6933 67.2993L38.3369 67.7666L38.3371 67.7667L38.9097 67.9294C39.6185 68.131 40.169 68.6947 40.3538 69.4081L40.3851 69.5286C40.2028 69.4039 39.9995 69.3074 39.7811 69.2452L39.9959 69.3063L36.9174 68.431L36.9169 68.4309C36.6358 68.3509 36.38 68.2139 36.1617 68.0333C35.1812 69.5526 34.935 71.0606 35.6716 71.8149C36.6686 72.8356 39.0882 72.089 41.076 70.1474C43.0636 68.2056 43.8667 65.8042 42.8697 64.7834C42.1331 64.0292 40.62 64.24 39.0782 65.1846Z" fill="white"/>
<path fill-rule="evenodd" clip-rule="evenodd" d="M36.5781 97.1711C36.5781 100.969 39.8189 104.048 43.8167 104.048C47.8145 104.048 51.0553 100.969 51.0553 97.1711C51.0553 93.3732 47.8145 90.2944 43.8167 90.2944C39.8189 90.2944 36.5781 93.3732 36.5781 97.1711Z" fill="#D39E00"/>
<path fill-rule="evenodd" clip-rule="evenodd" d="M37.4688 97.1711C37.4688 100.968 40.71 104.048 44.7073 104.048C45.3664 104.048 46.0053 103.964 46.6119 103.806C49.686 103.012 51.9458 100.342 51.9458 97.1711C51.9458 93.3731 48.7052 90.2939 44.7073 90.2939C42.7197 90.2939 40.919 91.0555 39.6108 92.2886C38.2881 93.5343 37.4688 95.2619 37.4688 97.1711Z" fill="#FFE99F"/>
<path fill-rule="evenodd" clip-rule="evenodd" d="M37.4688 97.1711C37.4688 100.968 40.71 104.048 44.7073 104.048C45.3664 104.048 46.0053 103.964 46.6119 103.806L39.6108 92.2886C38.2881 93.5343 37.4688 95.2619 37.4688 97.1711Z" fill="#F6C854"/>
<path fill-rule="evenodd" clip-rule="evenodd" d="M14.0234 57.9582C14.0234 61.7561 17.2643 64.8349 21.262 64.8349C25.2598 64.8349 28.5006 61.7561 28.5006 57.9582C28.5006 54.1603 25.2598 51.0815 21.262 51.0815C17.2643 51.0815 14.0234 54.1603 14.0234 57.9582Z" fill="#D39E00"/>
<path fill-rule="evenodd" clip-rule="evenodd" d="M14.9141 57.9582C14.9141 61.7556 18.1553 64.8348 22.1526 64.8348C22.8117 64.8348 23.4506 64.7512 24.0572 64.5936C27.1313 63.7996 29.3911 61.1294 29.3911 57.9582C29.3911 54.1602 26.1505 51.0811 22.1526 51.0811C20.165 51.0811 18.3643 51.8426 17.0561 53.0757C15.7334 54.3214 14.9141 56.049 14.9141 57.9582Z" fill="#FFE99F"/>
<path fill-rule="evenodd" clip-rule="evenodd" d="M14.9141 57.9582C14.9141 61.7556 18.1553 64.8348 22.1526 64.8348C22.8117 64.8348 23.4506 64.7512 24.0572 64.5936L17.0561 53.0757C15.7334 54.3214 14.9141 56.049 14.9141 57.9582Z" fill="#F6C854"/>
</svg>
