<svg width="160" height="160" viewBox="0 0 160 160" fill="none" xmlns="http://www.w3.org/2000/svg">
<path fill-rule="evenodd" clip-rule="evenodd" d="M82.5438 148.805C42.988 148.805 10.9219 146.045 10.9219 142.64C10.9219 139.235 42.988 136.475 82.5438 136.475C122.099 136.475 154.166 139.235 154.166 142.64C154.166 146.045 122.099 148.805 82.5438 148.805Z" fill="#DEEDF2"/>
<path fill-rule="evenodd" clip-rule="evenodd" d="M60.8205 33.4496C52.6728 42.1161 41.8782 47.7724 30.1798 49.8983C23.0793 51.1887 16.2852 54.5802 10.7952 60.073C-3.58427 74.4596 -3.60059 97.66 10.7595 112.066C17.0942 118.421 25.1717 121.972 33.4544 122.721C40.5453 123.361 47.2075 126.457 52.1272 131.608C52.1906 131.675 52.2544 131.741 52.3183 131.806C60.7108 140.374 74.2867 140.459 82.7809 131.993C82.8296 131.944 82.8779 131.895 82.9257 131.847C85.1947 129.542 88.4698 128.536 91.6432 129.152C109.736 132.668 129.194 127.415 143.207 113.39C165.598 90.9806 165.598 54.5818 143.207 32.1721C120.798 9.74492 84.4669 9.74506 62.0585 32.1725C61.6378 32.5934 61.2251 33.0191 60.8205 33.4496Z" fill="#DEEDF2"/>
<path fill-rule="evenodd" clip-rule="evenodd" d="M67.6687 31.1862C67.0732 26.3493 62.9508 22.6045 57.9544 22.6045C52.5489 22.6045 48.1666 26.9878 48.1666 32.3952C48.1666 33.2823 48.2845 34.1419 48.5057 34.959C48.4226 34.9601 48.3402 34.9631 48.2583 34.9679L48.1661 34.9603V34.974C45.3626 35.1847 43.1528 37.5272 43.1528 40.3857C43.1528 43.2442 45.3626 45.5867 48.1661 45.7974V45.8136H83.8024C85.9869 45.8131 87.7578 44.0413 87.7578 41.8561C87.7578 39.6708 85.9869 37.8994 83.8025 37.8994L74.7738 37.1546C74.815 36.8849 74.8364 36.6086 74.8364 36.3274C74.8364 33.3301 72.4075 30.9002 69.4111 30.9002C68.8016 30.9002 68.2156 31.0008 67.6687 31.1862Z" fill="#DEEDF2"/>
<path fill-rule="evenodd" clip-rule="evenodd" d="M45.39 41.1968C44.9833 37.8714 42.168 35.2969 38.7558 35.2969C35.0642 35.2969 32.0715 38.3104 32.0715 42.028C32.0715 42.6379 32.152 43.2288 32.303 43.7906C32.2463 43.7914 32.19 43.7934 32.1341 43.7967L32.0711 43.7915V43.8009C30.1566 43.9458 28.6474 45.5562 28.6474 47.5215C28.6474 49.4867 30.1566 51.0972 32.0711 51.242V51.2531H56.4081V51.2528H56.4082C57.8999 51.2528 59.1094 50.0347 59.1094 48.5323C59.1094 47.03 57.8999 45.8121 56.4082 45.8121H56.4081V45.812L50.2422 45.3001C50.2704 45.1146 50.285 44.9247 50.285 44.7313C50.285 42.6707 48.6262 41.0002 46.5799 41.0002C46.1637 41.0002 45.7635 41.0693 45.39 41.1968Z" fill="#EAF7FE"/>
<path fill-rule="evenodd" clip-rule="evenodd" d="M125.898 16.8999C125.491 13.5745 122.676 11 119.264 11C115.572 11 112.579 14.0136 112.579 17.7311C112.579 18.341 112.66 18.932 112.811 19.4938C112.754 19.4945 112.698 19.4965 112.642 19.4998L112.579 19.4946V19.504C110.664 19.6489 109.155 21.2593 109.155 23.2246C109.155 25.1898 110.664 26.8003 112.579 26.9451V26.9563H136.916V26.9559H136.916C138.408 26.9559 139.617 25.7378 139.617 24.2355C139.617 22.7331 138.408 21.5152 136.916 21.5152H136.916V21.5151L130.75 21.0032C130.778 20.8178 130.793 20.6278 130.793 20.4345C130.793 18.3739 129.134 16.7033 127.088 16.7033C126.671 16.7033 126.271 16.7724 125.898 16.8999Z" fill="#EAF7FE"/>
<path d="M14.8672 143.709H21.6109V138.932H14.8672V143.709Z" fill="#D39E00"/>
<path d="M43.6992 143.709H50.443V138.932H43.6992V143.709Z" fill="#D39E00"/>
<path d="M14.8672 140.969H50.4419V138.93H14.8672V140.969Z" fill="#D39E00"/>
<path d="M32.6562 140.969H50.4426V138.93H32.6562V140.969Z" fill="#D39E00"/>
<path d="M15.5703 138.439H32.1012V121.909H15.5703V138.439Z" fill="#D39E00"/>
<path d="M23.8359 138.439H32.1014V121.909H23.8359V138.439Z" fill="#D39E00"/>
<path d="M15.1641 124.577H32.5096V121.65H15.1641V124.577Z" fill="#D39E00"/>
<path d="M23.8359 124.577H32.5087V121.65H23.8359V124.577Z" fill="#D39E00"/>
<path d="M33.207 138.439H49.7369V121.909H33.207V138.439Z" fill="#D39E00"/>
<path d="M41.4727 138.439H49.7371V121.909H41.4727V138.439Z" fill="#D39E00"/>
<path d="M32.8008 124.577H50.1463V121.65H32.8008V124.577Z" fill="#D39E00"/>
<path d="M41.4727 124.577H50.1454V121.65H41.4727V124.577Z" fill="#D39E00"/>
<path d="M52.4492 143.709H59.193V138.932H52.4492V143.709Z" fill="#D39E00"/>
<path d="M81.2812 143.709H88.025V138.932H81.2812V143.709Z" fill="#D39E00"/>
<path d="M52.4492 140.969H88.0239V138.93H52.4492V140.969Z" fill="#D39E00"/>
<path d="M70.2383 140.969H88.0246V138.93H70.2383V140.969Z" fill="#D39E00"/>
<path d="M53.1523 138.439H69.6822V121.909H53.1523V138.439Z" fill="#D39E00"/>
<path d="M61.4219 138.439H69.6863V121.909H61.4219V138.439Z" fill="#D39E00"/>
<path d="M52.7461 124.577H70.0927V121.65H52.7461V124.577Z" fill="#D39E00"/>
<path d="M61.4219 124.577H70.0947V121.65H61.4219V124.577Z" fill="#D39E00"/>
<path d="M70.7891 138.439H87.3189V121.909H70.7891V138.439Z" fill="#D39E00"/>
<path d="M79.0547 138.439H87.3191V121.909H79.0547V138.439Z" fill="#D39E00"/>
<path d="M70.3828 124.577H87.7273V121.65H70.3828V124.577Z" fill="#D39E00"/>
<path d="M79.0547 124.577H87.7264V121.65H79.0547V124.577Z" fill="#D39E00"/>
<path d="M15.5703 121.083H32.1012V104.553H15.5703V121.083Z" fill="#D39E00"/>
<path d="M23.8359 121.083H32.1014V104.553H23.8359V121.083Z" fill="#D39E00"/>
<path d="M15.1641 107.221H32.5096V104.293H15.1641V107.221Z" fill="#D39E00"/>
<path d="M23.8359 107.221H32.5087V104.293H23.8359V107.221Z" fill="#D39E00"/>
<path d="M33.207 121.083H49.7369V104.553H33.207V121.083Z" fill="#D39E00"/>
<path d="M41.4727 121.083H49.7371V104.553H41.4727V121.083Z" fill="#D39E00"/>
<path d="M32.8008 107.221H50.1463V104.293H32.8008V107.221Z" fill="#D39E00"/>
<path d="M41.4727 107.221H50.1454V104.293H41.4727V107.221Z" fill="#D39E00"/>
<path d="M15.5703 103.583H32.1012V87.0527H15.5703V103.583Z" fill="#D39E00"/>
<path d="M23.8359 103.583H32.1014V87.0527H23.8359V103.583Z" fill="#D39E00"/>
<path d="M15.1641 89.72H32.5096V86.7925H15.1641V89.72Z" fill="#D39E00"/>
<path d="M23.8359 89.72H32.5087V86.7925H23.8359V89.72Z" fill="#D39E00"/>
<path d="M52.8594 121.083H69.3893V104.553H52.8594V121.083Z" fill="#D39E00"/>
<path d="M61.125 121.083H69.3894V104.553H61.125V121.083Z" fill="#D39E00"/>
<path d="M52.4492 107.221H69.7948V104.293H52.4492V107.221Z" fill="#D39E00"/>
<path d="M61.125 107.221H69.7967V104.293H61.125V107.221Z" fill="#D39E00"/>
<path d="M16.25 93.7982H21.8804V91.2446H16.25V93.7982Z" fill="#DEEDF2"/>
<path d="M20.8711 93.4716H21.4685V91.5718H20.8711V93.4716Z" fill="#767676"/>
<path d="M19.8008 93.4716H20.3992V91.5718H19.8008V93.4716Z" fill="#767676"/>
<path d="M18.6992 93.4716H19.2977V91.5718H18.6992V93.4716Z" fill="#767676"/>
<path d="M17.6875 93.4716H18.2849V91.5718H17.6875V93.4716Z" fill="#767676"/>
<path d="M16.6602 93.4716H17.2596V91.5718H16.6602V93.4716Z" fill="#767676"/>
<path d="M16.5352 111.514H22.1656V108.96H16.5352V111.514Z" fill="#DEEDF2"/>
<path d="M21.1562 111.187H21.7537V109.287H21.1562V111.187Z" fill="#767676"/>
<path d="M20.0898 111.187H20.6883V109.287H20.0898V111.187Z" fill="#767676"/>
<path d="M18.9844 111.187H19.5828V109.287H18.9844V111.187Z" fill="#767676"/>
<path d="M17.9727 111.187H18.5711V109.287H17.9727V111.187Z" fill="#767676"/>
<path d="M16.9492 111.187H17.5477V109.287H16.9492V111.187Z" fill="#767676"/>
<path d="M34.1055 111.514H39.7359V108.96H34.1055V111.514Z" fill="#DEEDF2"/>
<path d="M38.7266 111.187H39.3261V109.287H38.7266V111.187Z" fill="#767676"/>
<path d="M37.6602 111.187H38.2586V109.287H37.6602V111.187Z" fill="#767676"/>
<path d="M36.5547 111.187H37.1531V109.287H36.5547V111.187Z" fill="#767676"/>
<path d="M35.543 111.187H36.1425V109.287H35.543V111.187Z" fill="#767676"/>
<path d="M34.5195 111.187H35.1169V109.287H34.5195V111.187Z" fill="#767676"/>
<path d="M53.9062 111.514H59.5356V108.96H53.9062V111.514Z" fill="#DEEDF2"/>
<path d="M58.5234 111.187H59.1219V109.287H58.5234V111.187Z" fill="#767676"/>
<path d="M57.4531 111.187H58.0516V109.287H57.4531V111.187Z" fill="#767676"/>
<path d="M56.3516 111.187H56.9511V109.287H56.3516V111.187Z" fill="#767676"/>
<path d="M55.3398 111.187H55.9372V109.287H55.3398V111.187Z" fill="#767676"/>
<path d="M54.3164 111.187H54.9149V109.287H54.3164V111.187Z" fill="#767676"/>
<path d="M16.5352 129.015H22.1656V126.46H16.5352V129.015Z" fill="#DEEDF2"/>
<path d="M21.1562 128.687H21.7537V126.787H21.1562V128.687Z" fill="#767676"/>
<path d="M20.0898 128.687H20.6883V126.787H20.0898V128.687Z" fill="#767676"/>
<path d="M18.9844 128.687H19.5828V126.787H18.9844V128.687Z" fill="#767676"/>
<path d="M17.9727 128.687H18.5711V126.787H17.9727V128.687Z" fill="#767676"/>
<path d="M16.9492 128.687H17.5477V126.787H16.9492V128.687Z" fill="#767676"/>
<path d="M34.1055 129.015H39.7359V126.46H34.1055V129.015Z" fill="#DEEDF2"/>
<path d="M38.7266 128.687H39.3261V126.787H38.7266V128.687Z" fill="#767676"/>
<path d="M37.6602 128.687H38.2586V126.787H37.6602V128.687Z" fill="#767676"/>
<path d="M36.5547 128.687H37.1531V126.787H36.5547V128.687Z" fill="#767676"/>
<path d="M35.543 128.687H36.1425V126.787H35.543V128.687Z" fill="#767676"/>
<path d="M34.5195 128.687H35.1169V126.787H34.5195V128.687Z" fill="#767676"/>
<path d="M53.9062 129.015H59.5356V126.46H53.9062V129.015Z" fill="#DEEDF2"/>
<path d="M58.5234 128.687H59.1219V126.787H58.5234V128.687Z" fill="#767676"/>
<path d="M57.4531 128.687H58.0516V126.787H57.4531V128.687Z" fill="#767676"/>
<path d="M56.3516 128.687H56.9511V126.787H56.3516V128.687Z" fill="#767676"/>
<path d="M55.3398 128.687H55.9372V126.787H55.3398V128.687Z" fill="#767676"/>
<path d="M54.3164 128.687H54.9149V126.787H54.3164V128.687Z" fill="#767676"/>
<path d="M71.7969 129.015H77.4273V126.46H71.7969V129.015Z" fill="#DEEDF2"/>
<path d="M76.418 128.687H77.0154V126.787H76.418V128.687Z" fill="#767676"/>
<path d="M75.3516 128.687H75.95V126.787H75.3516V128.687Z" fill="#767676"/>
<path d="M74.2461 128.687H74.8445V126.787H74.2461V128.687Z" fill="#767676"/>
<path d="M73.2344 128.687H73.8328V126.787H73.2344V128.687Z" fill="#767676"/>
<path d="M72.2109 128.687H72.8094V126.787H72.2109V128.687Z" fill="#767676"/>
<path fill-rule="evenodd" clip-rule="evenodd" d="M110.277 83.9798C110.277 83.9798 107.107 82.0126 106.715 82.3796C106.322 82.7464 107.648 83.7993 107.648 83.7993C107.648 83.7993 103.776 87.2912 103.915 87.8108C104.053 88.3303 110.123 85.8546 110.123 85.8546L110.277 83.9798Z" fill="#F4A48D"/>
<path fill-rule="evenodd" clip-rule="evenodd" d="M123.427 101.562L123.156 119.35L126.639 141.836L129.38 141.956L130.749 121.13L135.58 100.642L123.427 101.562Z" fill="#444444"/>
<path fill-rule="evenodd" clip-rule="evenodd" d="M130.215 102.44L132.87 119.999L139.247 141.673L141.978 141.414L140.662 120.64L142.074 99.793L130.215 102.44Z" fill="#444444"/>
<path fill-rule="evenodd" clip-rule="evenodd" d="M135.71 67.5619C137.886 66.7171 139.438 64.5398 139.438 61.9899C139.438 58.7075 136.867 56.0425 133.701 56.0425C131.196 56.0425 129.064 57.7112 128.283 60.034L128.274 60.0364L126.775 64.6711L126.913 64.7265L126.985 64.7555L127.871 64.9346L127.875 67.3688L127.918 67.5163C127.988 67.7209 128.085 67.9192 128.209 68.1056C128.353 68.3236 128.531 68.5227 128.734 68.6945C128.84 68.7846 128.953 68.8663 129.072 68.9398C129.136 68.9795 129.199 69.0157 129.264 69.05C129.315 69.0773 129.366 69.1028 129.418 69.1263L129.578 69.1996L129.069 74.5671C129.069 74.5671 131.684 75.1494 132.894 74.9153L133.056 74.8817L133.059 74.881C134.215 74.6479 135.362 74.2811 136.332 73.1624C136.332 73.1624 136.33 73.15 136.325 73.1259L136.332 73.1174C136.332 73.1174 136.241 72.7108 136.128 72.047C135.955 70.9879 135.732 69.3031 135.71 67.5619Z" fill="#F4A48D"/>
<path fill-rule="evenodd" clip-rule="evenodd" d="M129.763 70.9378C130.68 70.6959 132.614 69.7443 134.066 68.1965L129.92 69.4918C129.92 69.4918 129.841 70.2308 129.763 70.9378ZM127.56 64.5109C127.934 64.6201 128.317 64.3726 128.307 64.0284L128.242 61.8096L127.56 64.5109Z" fill="#A66555"/>
<path fill-rule="evenodd" clip-rule="evenodd" d="M135.584 68.584L136.483 68.0904C137.559 67.4719 138.471 66.5497 139.068 65.3733C140.704 62.1507 139.363 58.2392 136.074 56.6364C133.112 55.1936 129.578 56.115 127.711 58.6685L128.451 59.2564C128.619 59.2084 128.897 59.1316 129.237 59.0453C130.46 58.7293 132.488 58.2823 133.123 58.586C134.053 59.0311 134.01 60.7071 133.868 62.0368C133.73 63.3373 133.606 63.9021 134.207 64.1575C134.427 64.2511 134.563 63.1527 135.069 62.8226C135.603 62.4739 136.285 62.8289 136.185 64.0231C136.02 64.5658 135.893 65.1007 135.797 65.623C135.637 66.5572 135.579 67.5761 135.584 68.584Z" fill="#767676"/>
<path fill-rule="evenodd" clip-rule="evenodd" d="M139.109 141.108H141.956L142.074 143.925L138.649 144.22H136.145L136.611 142.914L137.117 142.587L139.109 141.108Z" fill="#CEDEE7"/>
<path fill-rule="evenodd" clip-rule="evenodd" d="M126.4 140.259L123.012 142.664L123.28 144.088L129.929 143.408L129.365 140.259H126.4Z" fill="#CEDEE7"/>
<path fill-rule="evenodd" clip-rule="evenodd" d="M125.487 76.1812C125.487 76.1812 124.943 86.1325 109.504 83.3882L110.007 86.1724C110.007 86.1724 125.086 93.0015 132.142 77.0434C132.212 76.8855 132.754 77.3597 132.754 77.3597C131.947 76.978 127.662 77.3716 125.487 76.1812Z" fill="#767676"/>
<path fill-rule="evenodd" clip-rule="evenodd" d="M141.907 80.83C143.062 87.5309 143.819 101.577 143.336 105.601C143.336 105.601 129.871 108.164 122.161 104.708C122.161 104.708 122.716 85.4547 125.487 76.2557C126.107 74.1944 127.891 72.6851 130.026 72.4053C130.4 72.3565 130.809 72.3175 131.258 72.2919C136.45 71.9966 141.023 75.7058 141.907 80.83Z" fill="#767676"/>
<path fill-rule="evenodd" clip-rule="evenodd" d="M130.515 95.9754C126.261 99.4396 113.499 89.0476 113.499 89.0476L114.563 86.916L125.995 90.1136L132.235 80.1034C132.235 80.1034 135.16 76.906 138.084 78.5048C141.009 80.1034 139.414 83.301 139.414 83.301C139.414 83.301 134.769 92.5115 130.515 95.9754Z" fill="#767676"/>
<path fill-rule="evenodd" clip-rule="evenodd" d="M136.039 72.1406L124.955 86.8553L129.658 72.3498L136.039 72.1406Z" fill="#EAF7FE"/>
<path fill-rule="evenodd" clip-rule="evenodd" d="M136.988 73.6581L131.57 75.6279L130.319 73.1403L129.211 74.0862L128.8 72.4456L129.878 71.4956C129.878 71.4956 130.6 72.6303 132.894 72.203C135.114 71.7893 136.038 71.5932 136.038 71.5932L136.988 73.6581Z" fill="#EAF7FE"/>
<path fill-rule="evenodd" clip-rule="evenodd" d="M131.203 74.6085L129.955 75.7308L129.654 80.8342L124.95 86.8053L127.267 79.7697L129.391 75.6365L129.34 73.8566L130.39 72.9106L131.203 74.6085Z" fill="#EC0000"/>
<path fill-rule="evenodd" clip-rule="evenodd" d="M114.477 87.0841C114.477 87.0841 114.392 85.5716 114.184 85.1083C113.939 84.5628 112.883 82.8706 112.788 83.4122C112.693 83.9541 113.118 84.8007 113.118 84.8007C113.118 84.8007 110.483 83.1875 109.848 83.6343C109.213 84.0808 111.299 87.4208 111.866 88.1118C112.433 88.8029 113.592 89.0643 113.592 89.0643L114.477 87.0841Z" fill="#F4A48D"/>
<path fill-rule="evenodd" clip-rule="evenodd" d="M84.5827 101.103L84.8594 118.903L81.301 141.404L78.5008 141.524L77.1023 120.685L72.1669 100.183L84.5827 101.103Z" fill="#34466B"/>
<path fill-rule="evenodd" clip-rule="evenodd" d="M78.332 102.457L75.734 119.941L69.4933 141.525L66.821 141.267L68.109 120.58L66.7275 99.8208L78.332 102.457Z" fill="#34466B"/>
<path fill-rule="evenodd" clip-rule="evenodd" d="M73.1394 65.0769C71.8923 64.2259 71.0522 62.8135 70.9956 61.1904C70.901 58.4824 73.0228 56.2069 75.7309 56.1123C78.2314 56.025 80.363 57.8274 80.7496 60.236C80.8112 60.4862 80.8585 60.7397 80.8938 60.9936L80.8939 60.994L80.8949 60.9996L80.8952 61.0015C80.9057 61.0775 80.9151 61.1534 80.9235 61.2293L81.3937 65.0038L80.6335 65.2881L80.6255 65.2902L80.6255 65.2902C80.6087 65.3568 80.5994 65.3929 80.5994 65.3929L80.5963 65.9058L80.592 66.8644C80.59 67.1817 80.5346 67.4944 80.4294 67.7903C80.356 67.9991 80.2564 68.2001 80.1326 68.3878C79.9873 68.608 79.8115 68.8072 79.6133 68.9772C79.5101 69.0663 79.3999 69.1465 79.2844 69.2185C79.2232 69.2567 79.1622 69.292 79.0986 69.3253L79.0982 69.3256L79.6374 75.2946C79.6374 75.2946 77.9099 75.8817 75.9835 75.531C74.8192 75.3212 73.5809 74.7664 72.6081 73.5343C72.6081 73.5343 73.541 68.7316 73.1394 65.0769Z" fill="#FFC4B8"/>
<path fill-rule="evenodd" clip-rule="evenodd" d="M75.9977 75.4583C74.8126 75.249 73.5546 74.6946 72.5714 73.4631C72.5714 73.4631 73.6343 68.3167 73.1155 64.6213C73.1155 64.6213 76.0638 71.1188 75.9977 75.4583ZM80.6322 65.3097C80.3584 65.398 80.0804 65.1956 80.0903 64.9152L80.154 63.1076L80.6322 65.3097Z" fill="#F4A48D"/>
<path fill-rule="evenodd" clip-rule="evenodd" d="M71.8106 64.4997C71.4633 63.8399 70.5364 62.6369 70.3669 61.5551C69.9892 59.1446 71.5765 57.4284 72.2887 56.8993C72.5208 56.7182 72.8077 56.5479 73.2017 56.362C74.0092 55.1737 75.8946 54.9673 75.5104 55.1625C80.3611 54.3951 82.0503 58.7478 83.4296 58.4257C82.3573 60.1805 81.0718 59.9917 79.3954 59.6064C78.7206 60.317 78.4183 61.2132 78.4046 62.0638C78.4211 62.337 78.471 62.9417 78.6053 63.4768C78.7859 64.1936 78.2544 64.4953 78.0125 64.4258C77.7701 64.3571 77.8423 64.4371 77.347 63.8766C76.9656 63.4449 76.8445 63.1086 76.6039 62.7919C76.1547 62.3264 75.6194 61.9317 75.1599 62.063C74.5519 62.2385 74.7423 63.3451 75.1381 64.135C75.3502 64.5573 75.3317 64.9865 75.2072 65.2553C74.933 65.8488 74.384 65.518 73.762 66.072C73.2546 66.5241 72.9387 67.2789 72.6934 67.5975C72.4229 66.0311 72.3307 65.4868 71.8106 64.4997Z" fill="#CEDEE7"/>
<path fill-rule="evenodd" clip-rule="evenodd" d="M80.7477 75.249C80.7477 75.249 77.8437 89.611 92.9417 99.4576L91.3109 101.342C91.3109 101.342 73.3825 98.4697 72.583 77.3634C72.583 77.3634 72.0487 72.6783 76.4795 71.2176C80.9102 69.7567 80.7477 75.249 80.7477 75.249Z" fill="#F6C854"/>
<path fill-rule="evenodd" clip-rule="evenodd" d="M87.2687 104.565C82.4473 105.201 78.8052 105.55 76.3424 105.613C73.8796 105.676 70.2709 105.511 65.5162 105.118C66.0759 85.9438 68.5707 74.1736 73.0005 69.8079C73.0005 69.8079 78.168 71.093 79.9885 70.8957C79.9885 70.8957 82.4152 82.1187 87.2687 104.565Z" fill="#F6C854"/>
<path fill-rule="evenodd" clip-rule="evenodd" d="M71.2552 83.9281C71.2552 83.9281 79.4673 90.7691 83.6423 94.3146C87.8173 97.8599 100.916 87.8117 100.916 87.8117L99.9075 85.6657L87.0621 88.9076L77.4272 79.4989C77.4272 79.4989 74.3041 76.2511 71.3241 77.7748C71.1292 77.8744 70.9595 77.9874 70.8125 78.1114C68.7119 79.8845 71.2552 83.9281 71.2552 83.9281L89.7061 78.6021Z" fill="#FFE99F"/>
<path fill-rule="evenodd" clip-rule="evenodd" d="M72.1456 70.8262L77.2735 73.6856L78.9955 71.4082L79.9304 72.5335L80.8597 70.9793L79.5462 69.8784C79.5462 69.8784 79.3548 70.7509 77.1406 70.1981C74.9124 69.6422 73.5599 69.098 73.5599 69.098L72.1456 70.8262Z" fill="#34466B"/>
<path fill-rule="evenodd" clip-rule="evenodd" d="M101.894 82.9367C102.392 83.0965 101.672 84.5897 101.672 84.5897C101.672 84.5897 106.538 86.0497 106.635 86.5685C106.732 87.0876 100.363 87.4566 100.363 87.4566L99.4401 85.8601C99.4401 85.8601 101.395 82.7771 101.894 82.9367Z" fill="#FFC4B8"/>
<path fill-rule="evenodd" clip-rule="evenodd" d="M92.2985 99.458C92.2985 99.458 95.8621 100.515 95.8547 101.067C95.8476 101.619 94.1881 101.336 94.1881 101.336C94.1881 101.336 97.9657 105.186 94.9053 104.439C93.3395 104.057 91.0246 100.869 91.0246 100.869L92.2985 99.458Z" fill="#FFC4B8"/>
<path fill-rule="evenodd" clip-rule="evenodd" d="M81.2649 140.539L78.5898 140.54L78.3841 144.062L82.3801 144.294L84.9244 144.311L84.5026 142.355L81.2649 140.539Z" fill="#CEDEE7"/>
<path fill-rule="evenodd" clip-rule="evenodd" d="M69.3555 140.649L72.9165 142.4L72.765 144.144L66.1185 143.754L66.7482 140.302L69.3555 140.649Z" fill="#CEDEE7"/>
<path fill-rule="evenodd" clip-rule="evenodd" d="M68.2867 59.8412C67.7136 57.4195 68.7855 54.835 71.0456 53.6288C73.3299 52.4101 76.4348 51.2251 79.1998 54.3499L79.202 54.3524L80.342 55.5842L81.1394 56.4447L81.4808 56.8135L83.3807 57.0849C83.7707 57.1619 83.8942 57.668 83.5829 57.9133L77.3356 62.224C77.1758 62.3499 77.004 62.4582 76.8219 62.5481C76.5379 62.6881 76.0587 62.9195 75.4791 63.1795C76.1305 64.1704 76.7054 65.211 77.199 66.2915L79.111 69.8436C79.1176 69.8576 79.5462 70.7139 78.8934 70.2787C78.7851 70.2065 78.0288 69.0083 76.6245 66.6842C76.1059 65.5659 75.4994 64.4916 74.8115 63.4716C73.8109 63.8978 72.649 64.3387 71.688 64.5552C69.501 65.0478 69.6601 64.2209 69.6601 64.2209C69.6601 64.2209 69.8974 64.1639 70.302 64.0531L68.7951 61.1946C68.5646 60.7563 68.3961 60.3016 68.2867 59.8412Z" fill="#F6C854"/>
<path fill-rule="evenodd" clip-rule="evenodd" d="M74.7516 62.7804C74.7516 62.7804 72.3602 63.9247 70.5056 64.5818L68.8497 61.4396C68.6205 61.0042 68.4532 60.5524 68.3443 60.0949C68.7788 60.0261 69.2832 59.9706 69.8179 59.9604C71.2024 59.9321 72.7868 60.2061 73.8669 61.3415C74.226 61.7191 74.5302 62.1919 74.7516 62.7804Z" fill="#34466B"/>
<path fill-rule="evenodd" clip-rule="evenodd" d="M105.891 84.9246C105.891 85.4954 106.353 85.9582 106.924 85.9582C107.495 85.9582 107.958 85.4954 107.958 84.9246C107.958 84.3538 107.495 83.8911 106.924 83.8911C106.353 83.8911 105.891 84.3538 105.891 84.9246Z" fill="#D39E00"/>
<path fill-rule="evenodd" clip-rule="evenodd" d="M107.034 85.9582C107.128 85.9582 107.219 85.9456 107.305 85.9219C107.744 85.8026 108.067 85.4013 108.067 84.9247C108.067 84.3539 107.604 83.8911 107.034 83.8911C106.75 83.8911 106.493 84.0056 106.306 84.1909C106.117 84.3781 106 84.6377 106 84.9247C106 85.4954 106.463 85.9582 107.034 85.9582Z" fill="#FFE99F"/>
<path fill-rule="evenodd" clip-rule="evenodd" d="M106 84.8768C106 85.4741 106.463 85.9584 107.034 85.9584C107.128 85.9584 107.219 85.9452 107.306 85.9204L106.306 84.1089C106.117 84.3048 106 84.5765 106 84.8768Z" fill="#F6C854"/>
</svg>
