<svg width="161" height="161" viewBox="0 0 161 161" fill="none" xmlns="http://www.w3.org/2000/svg">
<path fill-rule="evenodd" clip-rule="evenodd" d="M61.3205 37.0978C53.1728 45.7643 42.3782 51.4206 30.6798 53.5465C23.5793 54.8369 16.7852 58.2284 11.2952 63.7212C-3.08427 78.1078 -3.10059 101.308 11.2595 115.714C17.5942 122.069 25.6717 125.621 33.9544 126.369C41.0453 127.01 47.7075 130.106 52.6272 135.257C52.6906 135.323 52.7544 135.389 52.8183 135.454C61.2108 144.022 74.7867 144.107 83.2809 135.641C83.3296 135.592 83.3779 135.544 83.4257 135.495C85.6947 133.19 88.9698 132.184 92.1432 132.801C110.236 136.317 129.694 131.063 143.707 117.038C166.098 94.6288 166.098 58.23 143.707 35.8203C121.298 13.3931 84.9669 13.3932 62.5585 35.8206C62.1378 36.2415 61.7251 36.6673 61.3205 37.0978Z" fill="#DEEDF2"/>
<path fill-rule="evenodd" clip-rule="evenodd" d="M153.533 100.442L108.717 103.133L105.664 51.7908L150.48 49.0996L153.533 100.442Z" fill="#EAF7FE"/>
<path fill-rule="evenodd" clip-rule="evenodd" d="M150.117 91.3667L111.087 93.7037C110.785 93.7217 110.526 93.491 110.508 93.1881L108.204 54.5571C108.186 54.2545 108.416 53.9942 108.718 53.9762L147.748 51.6392C148.05 51.6212 148.31 51.8519 148.328 52.1548L150.631 90.7858C150.649 91.0884 150.419 91.3487 150.117 91.3667Z" fill="#9BC3D3"/>
<path fill-rule="evenodd" clip-rule="evenodd" d="M56.7106 121.838L101.187 124.529L104.217 73.1865L59.74 70.4954L56.7106 121.838Z" fill="#EAF7FE"/>
<path fill-rule="evenodd" clip-rule="evenodd" d="M98.8222 114.737C99.1216 114.755 99.3789 114.524 99.397 114.222L101.681 75.5905C101.699 75.2879 101.47 75.0276 101.171 75.0096L62.4746 72.6726C62.1752 72.6546 61.9176 72.8853 61.8998 73.1882L59.6161 111.819C59.5981 112.122 59.8266 112.382 60.126 112.4L98.8222 114.737Z" fill="#9BC3D3"/>
<mask id="mask0_1483_70189" style="mask-type:luminance" maskUnits="userSpaceOnUse" x="59" y="72" width="43" height="43">
<path fill-rule="evenodd" clip-rule="evenodd" d="M98.8222 114.737C99.1216 114.755 99.3789 114.524 99.397 114.222L101.681 75.5905C101.699 75.2879 101.47 75.0276 101.171 75.0096L62.4746 72.6726C62.1752 72.6546 61.9176 72.8853 61.8998 73.1882L59.6161 111.819C59.5981 112.122 59.8266 112.382 60.126 112.4L98.8222 114.737Z" fill="white"/>
</mask>
<g mask="url(#mask0_1483_70189)">
<path fill-rule="evenodd" clip-rule="evenodd" d="M68.6707 82.9366C68.6707 82.9366 70.0711 86.7851 70.2768 87.7007C70.4722 88.5706 71.4295 90.9397 71.6285 91.4065C71.8743 91.9847 74.357 96.4857 74.9108 96.5439C75.2568 96.5802 76.2597 96.3282 77.0737 96.0979C77.5657 95.9577 77.9892 95.8254 78.156 95.7688C78.6004 95.6191 80.9747 95.2407 81.7696 95.4081C81.7696 95.4081 81.9582 95.4544 82.2457 95.5133C82.903 95.6474 84.0783 95.8487 84.7037 95.7165C85.603 95.5261 86.132 94.882 86.7127 94.374C87.2934 93.866 89.2181 92.0695 89.3911 91.6721C89.5649 91.274 90.0411 87.6311 90.1983 86.6056C90.3584 85.5652 90.447 84.4267 90.4389 84.2943C90.4307 84.1627 93.998 84.546 93.9158 84.9091C93.8337 85.2723 93.0968 88.2629 92.8072 89.7037C92.5502 90.9802 92.099 92.2484 91.799 92.8071C91.4982 93.3664 88.5554 96.9087 88.178 97.5695C87.8012 98.2305 86.3735 99.8751 86.2389 100.123C86.1043 100.372 85.4464 103.232 85.032 104.041C84.6168 104.852 84.3212 110.645 84.354 111.59C84.3859 112.534 84.6737 113.449 84.6737 113.449C84.6737 113.449 79.3914 114.022 74.2433 113.874C74.2433 113.874 74.8329 111.47 74.8655 110.532C74.898 109.594 74.3781 103.648 73.9957 102.688C73.6133 101.729 69.8968 94.8607 69.7501 94.5823C69.604 94.3048 68.3653 92.4108 68.1239 91.7122C68.1239 91.7122 64.9139 84.2843 64.8665 83.7534L68.6707 82.9366Z" fill="#34466B"/>
<path fill-rule="evenodd" clip-rule="evenodd" d="M91.9286 118.545C91.37 118.856 90.9003 118.976 90.0833 119.186C88.2474 119.464 76.6902 121.598 76.6902 121.598C76.6721 121.482 76.6666 121.382 76.6139 121.249C76.1784 121.37 75.7361 121.432 75.4536 121.488C75.0233 121.573 73.3004 119.146 73.8013 119.146C74.3021 119.147 74.9733 119.034 75.2758 119.171C75.3713 119.214 75.8216 119.133 76.3931 119.002C76.4008 118.799 76.4104 118.672 76.4104 118.672L79.4423 118.141L79.4398 112.922C79.4398 112.922 80.1153 107.736 84.6084 111.436C84.7136 111.523 85.1433 111.66 85.2515 111.755C85.2515 111.755 87.0616 112.914 87.4421 113.058C87.469 113.069 87.5132 113.074 87.5728 113.076C88.3593 113.099 91.8184 112.447 93.0305 112.575C94.3347 112.712 94.7604 112.679 95.2052 112.96C95.65 113.242 96.4254 115.152 96.2904 115.686C96.2061 116.018 95.498 117.433 94.7592 117.865C94.0204 118.296 92.1922 118.398 91.9286 118.545Z" fill="#CEDEE7"/>
<path fill-rule="evenodd" clip-rule="evenodd" d="M83.2283 122.304C82.8243 122.131 82.0607 121.869 81.5515 121.45C81.5104 121.415 81.4138 121.362 81.2719 121.291L81.2711 121.292L80.3806 121.796L69.2451 116.955C68.5751 116.696 68.0572 116.353 67.7259 116.001C67.1798 115.421 64.0747 112.848 64.0537 112.298C64.0328 111.747 65.1876 110.04 65.6812 109.857C66.1756 109.674 66.5843 109.795 67.8885 109.932C69.1928 110.069 72.8529 111.629 73.255 111.567C73.4376 111.539 73.8252 111.391 74.1944 111.24C74.6364 111.057 75.0511 110.868 75.0511 110.868C80.9129 108.98 81.1107 113.098 81.1107 113.098L80.2529 118.066C80.2529 118.066 80.6957 118.344 81.2728 118.694L83.9683 119.763C83.7442 121.573 83.4975 122.42 83.2283 122.304Z" fill="#CEDEE7"/>
<path fill-rule="evenodd" clip-rule="evenodd" d="M69.1544 81.5203C69.217 81.35 69.1084 80.8566 68.936 80.3013C68.7636 79.746 68.2908 79.0783 68.1969 79.0517C68.1037 79.0252 66.1112 79.8865 66.0249 80.1427C66.0249 80.1427 66.1334 80.6377 66.1223 80.8334C66.1113 81.0289 66.5444 82.2825 66.9696 83.2075C66.9696 83.2075 67.5181 83.6981 68.6472 82.7909C68.6472 82.7909 69.0918 81.6905 69.1544 81.5203Z" fill="#F4A48D"/>
<path fill-rule="evenodd" clip-rule="evenodd" d="M90.2168 82.997C90.1542 82.822 90.2575 82.3027 90.4229 81.7169C90.5884 81.131 91.0474 80.416 91.1387 80.3847C91.1992 80.3637 91.4604 80.4516 91.9224 80.6482C92.463 80.7793 92.7817 80.961 92.8785 81.1934C93.0704 81.7027 93.1704 82.0252 93.1786 82.161C93.1901 82.3646 92.7745 83.6887 92.3634 84.6703C92.3634 84.6703 91.8303 85.2039 90.7199 84.3018C90.7199 84.3018 90.2793 83.172 90.2168 82.997Z" fill="#F4A48D"/>
<path fill-rule="evenodd" clip-rule="evenodd" d="M78.5019 92.5181C77.37 91.9097 76.6581 90.5734 76.8117 89.1121C77.0094 87.2311 78.5668 85.8507 80.2873 86.0315C81.6488 86.1746 82.707 87.2527 82.9915 88.6284L82.9966 88.6303L83.5318 91.3719L83.4536 91.3958L83.4128 91.4083L82.9206 91.4603L82.7719 92.855L82.7395 92.9371C82.6891 93.0503 82.6245 93.1585 82.546 93.2582C82.4545 93.3749 82.3454 93.4788 82.225 93.5657C82.1622 93.6113 82.0957 93.6516 82.0263 93.687C81.9895 93.7061 81.9529 93.7232 81.9155 93.7391C81.8863 93.7519 81.857 93.7636 81.8271 93.774L81.7358 93.8069L82.0205 95.984C82.0205 95.984 80.233 97.0963 79.5892 96.893L79.5034 96.8644L79.5016 96.8639C78.8877 96.6643 78.2861 96.3886 77.8264 95.6921C77.8264 95.6921 77.8286 95.6851 77.8328 95.6716L77.8291 95.6662C77.8291 95.6662 77.903 95.4385 78.0046 95.0645C78.1623 94.4675 78.3853 93.5147 78.5019 92.5181Z" fill="#F4A48D"/>
<path fill-rule="evenodd" clip-rule="evenodd" d="M81.8142 94.3404C81.443 94.196 80.6742 93.6908 80.1238 92.9322L81.796 93.6764C81.796 93.6764 81.8048 94.0157 81.8142 94.3404ZM82.9975 91.5612C82.8287 91.5961 82.6681 91.4707 82.6846 91.3166L82.7906 90.3238L82.9975 91.5612Z" fill="#A66555"/>
<path fill-rule="evenodd" clip-rule="evenodd" d="M78.4426 92.741L77.9888 92.4223C77.447 92.0257 77.0109 91.4735 76.7579 90.8009C76.065 88.9586 77.0071 86.9098 78.8621 86.2246C80.532 85.6079 82.3741 86.3074 83.2287 87.7994L82.7987 88.077C82.7115 88.0415 82.5668 87.9841 82.3893 87.9181C81.7517 87.6775 80.69 87.3205 80.3323 87.4497C79.8086 87.639 79.7361 88.5517 79.7359 89.2818C79.7356 89.996 79.7702 90.3097 79.4334 90.4145C79.3099 90.453 79.2996 89.8487 79.0475 89.641C78.7811 89.4215 78.3953 89.5759 78.3806 90.2301C78.4383 90.5341 78.4759 90.8318 78.4972 91.1209C78.5295 91.6372 78.5027 92.1939 78.4426 92.741Z" fill="#CEDEE7"/>
<path fill-rule="evenodd" clip-rule="evenodd" d="M76.7285 87.7823L73.4009 86.5315L80.0304 83.0244L85.5256 85.6597L82.6661 87.2022L76.7285 87.7823Z" fill="#34466B"/>
<path fill-rule="evenodd" clip-rule="evenodd" d="M73.9635 113.16L73.5816 107.667L85.8736 108.673L84.5263 113.897C84.5263 113.897 80.4615 114.917 79.0457 115.613C79.0457 115.613 75.8332 113.881 73.9635 113.16Z" fill="#EAF7FE"/>
</g>
<path fill-rule="evenodd" clip-rule="evenodd" d="M90.1427 77.0227L73.3906 75.05L74.408 66.5061L91.1601 68.4779L90.1427 77.0227Z" fill="#EAF7FE"/>
<path fill-rule="evenodd" clip-rule="evenodd" d="M138.443 55.2687L121.603 56.2349L121.121 47.6441L137.961 46.677L138.443 55.2687Z" fill="#EAF7FE"/>
<path fill-rule="evenodd" clip-rule="evenodd" d="M93.457 44.4839L80.1413 46.1914L79.2877 39.4206L92.6032 37.7123L93.457 44.4839Z" fill="#EAF7FE"/>
<path fill-rule="evenodd" clip-rule="evenodd" d="M42.5801 116.363L29.2643 118.07L28.4107 111.299L41.7263 109.591L42.5801 116.363Z" fill="#EAF7FE"/>
<path fill-rule="evenodd" clip-rule="evenodd" d="M55.7734 93.7159L11.1594 98.7491L5.42405 47.6367L50.0381 42.6037L55.7734 93.7159Z" fill="#EAF7FE"/>
<path fill-rule="evenodd" clip-rule="evenodd" d="M51.8908 84.8321L13.0368 89.2085C12.7361 89.2423 12.4649 89.0255 12.4309 88.724L8.10885 50.2664C8.07482 49.9652 8.29135 49.6931 8.59201 49.6594L47.446 45.2829C47.7466 45.2491 48.0181 45.4659 48.0519 45.7675L52.3739 84.225C52.4079 84.5263 52.1914 84.7983 51.8908 84.8321Z" fill="#9BC3D3"/>
<mask id="mask1_1483_70189" style="mask-type:luminance" maskUnits="userSpaceOnUse" x="8" y="45" width="45" height="45">
<path fill-rule="evenodd" clip-rule="evenodd" d="M51.8908 84.8321L13.0368 89.2085C12.7361 89.2423 12.4649 89.0255 12.4309 88.724L8.10885 50.2664C8.07482 49.9652 8.29135 49.6931 8.59201 49.6594L47.446 45.2829C47.7466 45.2491 48.0181 45.4659 48.0519 45.7675L52.3739 84.225C52.4079 84.5263 52.1914 84.7983 51.8908 84.8321Z" fill="white"/>
</mask>
<g mask="url(#mask1_1483_70189)">
<path fill-rule="evenodd" clip-rule="evenodd" d="M26.4855 64.9402C25.0593 63.967 24.0987 62.3517 24.0338 60.4956C23.9257 57.3987 26.3522 54.7965 29.4492 54.6883C32.3088 54.5885 34.7465 56.6496 35.1885 59.4041C35.259 59.6903 35.3131 59.9802 35.3535 60.2705L35.3536 60.271L35.3547 60.2773L35.355 60.2796C35.367 60.3665 35.3778 60.4533 35.3875 60.5401L35.9251 64.8566L35.0558 65.1817L35.0467 65.1841L35.0466 65.1841C35.0274 65.2603 35.0167 65.3015 35.0167 65.3015L35.0133 65.8881L35.0083 66.9844C35.006 67.3472 34.9426 67.7048 34.8224 68.0432C34.7384 68.282 34.6245 68.5119 34.483 68.7265C34.3168 68.9784 34.1157 69.2062 33.8891 69.4005C33.7711 69.5025 33.6451 69.5942 33.5129 69.6765C33.443 69.7202 33.3732 69.7606 33.3005 69.7987L33.3 69.799L33.9167 76.6252C33.9167 76.6252 31.9411 77.2965 29.7381 76.8955C28.4065 76.6556 26.9905 76.021 25.8779 74.6121C25.8779 74.6121 26.9448 69.1197 26.4855 64.9402Z" fill="#FFC4B8"/>
<path fill-rule="evenodd" clip-rule="evenodd" d="M29.755 76.7928C28.3884 76.5608 26.9389 75.9354 25.8088 74.5349C25.8088 74.5349 27.053 68.6516 26.4673 64.4349C26.4673 64.4349 29.8464 71.8369 29.755 76.7928ZM35.0547 65.2035C34.7378 65.306 34.417 65.0764 34.4294 64.756L34.5093 62.6907L35.0547 65.2035Z" fill="#F4A48D"/>
<path fill-rule="evenodd" clip-rule="evenodd" d="M27.6454 55.1199C30.109 54.9472 29.7322 52.8394 29.7322 52.8394C32.3748 52.8338 33.5348 53.7888 33.5348 53.7888C35.7142 55.4005 34.9915 58.8118 34.9915 58.8118C34.5788 56.2711 30.7075 57.4956 29.1861 57.8053C28.5822 58.4404 28.8758 59.9288 28.6029 61.2016C28.5979 61.2246 27.9775 62.9559 27.9775 62.9559L27.9767 62.958L27.9446 63.1368C27.9323 63.1081 27.9196 63.0795 27.9063 63.0509C27.4609 62.0915 26.6029 61.5448 25.9902 61.8284C25.3772 62.1124 25.2416 63.1201 25.687 64.0796C25.8421 64.4138 26.2143 64.6921 26.4417 64.9086C26.6623 66.3325 26.6767 67.6616 26.5961 68.806L25.9591 68.8558L23.2847 58.0422C23.0632 56.5899 23.6901 55.9017 24.7195 55.5464C25.5209 55.2696 26.5663 55.1954 27.6454 55.1199Z" fill="#CEDEE7"/>
<path fill-rule="evenodd" clip-rule="evenodd" d="M37.7327 86.1966L40.81 80.9475L43.2188 80.2363L40.2875 91.1236L37.3514 93.2326L33.5282 91.485L31.9258 81.5085L35.778 80.4962L37.7327 86.1966Z" fill="#2274C0"/>
<path fill-rule="evenodd" clip-rule="evenodd" d="M40.4976 80.4853L40.356 78.1486L42.1866 76.7052L42.9261 76.9633L41.915 78.0995L46.5444 77.9379L46.4075 79.0659L41.893 81.8587L40.4976 80.4853Z" fill="#FFC4B8"/>
<path fill-rule="evenodd" clip-rule="evenodd" d="M19.23 84.1569C19.7968 82.6514 21.4763 78.9445 22.4284 77.6299C24.7957 74.3606 24.3407 73.9292 31.919 74.2772C32.5566 74.3064 33.085 74.4104 33.5395 74.5782C34.131 74.9658 35.1316 76.2949 35.8822 80.7549C35.8489 81.714 35.7656 84.5627 35.795 88.3077C35.8194 91.4002 36.9303 96.8726 39.1278 104.725C35.271 104.622 33.232 104.567 33.0109 104.559C22.268 103.738 16.8736 103.273 16.8276 103.164C16.4361 102.413 16.399 101.667 16.399 101.667C15.4776 96.6103 17.9544 87.7499 17.9547 87.7487C18.4538 86.3048 18.9342 84.9426 19.23 84.1569Z" fill="#2A8FEC"/>
<path fill-rule="evenodd" clip-rule="evenodd" d="M23.9143 75.4762L31.4381 89.2121L37.3393 82.2341L39.677 84.5352C36.649 89.9966 34.6708 93.2008 33.7424 94.1479C32.3496 95.5685 32.267 95.8831 28.1061 91.7719C25.3322 89.0312 23.0541 84.977 21.2718 79.6094C21.7024 78.6472 22.094 77.8904 22.4466 77.3389C22.7992 76.7874 23.2884 76.1665 23.9143 75.4762Z" fill="#2A8FEC"/>
<path fill-rule="evenodd" clip-rule="evenodd" d="M37.7906 82.6792L37.6489 80.3424L39.4796 78.899L40.2191 79.1571L39.208 80.2934L43.8374 80.1317L43.7004 81.2597L39.1859 84.0525L37.7906 82.6792Z" fill="#FFC4B8"/>
</g>
<path fill-rule="evenodd" clip-rule="evenodd" d="M36.5773 49.108L19.9804 52.1193L18.4553 43.6513L35.0519 40.639L36.5773 49.108Z" fill="#EAF7FE"/>
<path fill-rule="evenodd" clip-rule="evenodd" d="M128.785 69.4623C127.812 68.8679 126.656 68.6439 125.531 68.8312C124.153 69.0561 122.943 69.8712 122.217 71.0625C122.006 71.4079 121.839 71.7786 121.72 72.1657C121.481 72.9629 120.806 73.5535 119.983 73.6864L119.967 73.6873C118.165 73.9816 116.582 75.0476 115.633 76.6058C114.184 78.9724 114.469 82.0096 116.334 84.0649C116.733 84.5038 117.193 84.8831 117.7 85.1911C120.65 86.9823 124.496 86.0461 126.29 83.0998C126.29 83.0996 126.29 83.0992 126.29 83.099C126.588 82.6135 126.818 82.0895 126.973 81.5416C127.02 81.3783 127.06 81.2132 127.092 81.0496C127.274 80.1267 127.245 79.175 127.008 78.2648C128.403 78.0501 129.632 77.2307 130.366 76.0264C130.594 75.6549 130.77 75.254 130.889 74.8349C130.923 74.7101 130.954 74.5855 130.98 74.4589C131.368 72.4982 130.492 70.5042 128.785 69.4615" fill="#CEDEE7"/>
<path fill-rule="evenodd" clip-rule="evenodd" d="M124.342 63.7469C123.388 66.3119 124.241 69.1973 126.437 70.8338C126.907 71.1834 127.425 71.4636 127.975 71.6656C131.171 72.8408 134.718 71.2065 135.896 68.0154C135.896 68.0152 135.896 68.0149 135.896 68.0147C136.093 67.4885 136.216 66.9379 136.262 66.3783C136.276 66.211 136.283 66.0443 136.284 65.8797C136.29 63.3018 134.685 60.9942 132.264 60.098C130.884 59.5861 129.366 59.5878 127.987 60.103C126.297 60.7285 124.966 62.0601 124.342 63.7479" fill="#CEDEE7"/>
<path fill-rule="evenodd" clip-rule="evenodd" d="M124.753 71.6593L124.938 72.9398L125.517 77.0254C125.546 77.2191 125.615 77.4047 125.719 77.57C125.823 77.7349 125.962 77.8744 126.126 77.9781C126.972 78.5016 127.957 78.7509 128.947 78.6921C129.78 78.6519 130.589 78.3985 131.298 77.9555C131.86 77.5949 132.075 76.8753 131.805 76.2616C131.055 74.5402 129.272 69.2335 129.272 69.2335L125.18 71.43L124.977 71.539L124.753 71.6593Z" fill="#FFC4B8"/>
<path fill-rule="evenodd" clip-rule="evenodd" d="M127.58 61.3502L125.038 62.4865L123.398 65.3964C122.829 66.408 122.496 67.5345 122.425 68.6918L122.358 69.7731C122.335 70.0719 122.391 70.3716 122.521 70.6417C122.689 70.9748 122.961 71.2444 123.296 71.4093L123.738 71.6234C124.415 71.9527 125.177 72.066 125.921 71.9479L130.105 71.2791L131.447 63.3205L127.58 61.3502Z" fill="#FFC4B8"/>
<path fill-rule="evenodd" clip-rule="evenodd" d="M124.298 64.0494C123.457 66.3123 124.21 68.8577 126.147 70.3016C126.562 70.6098 127.019 70.857 127.503 71.0354C130.325 72.0722 133.454 70.6301 134.494 67.8144C134.494 67.814 134.494 67.8136 134.494 67.8132C134.667 67.349 134.776 66.8635 134.816 66.37C134.829 66.2221 134.835 66.0753 134.835 65.9301C134.841 63.6559 133.426 61.6196 131.289 60.8282C130.072 60.3769 128.732 60.3785 127.515 60.8328C126.024 61.3847 124.849 62.5596 124.299 64.049" fill="#FFC4B8"/>
<path fill-rule="evenodd" clip-rule="evenodd" d="M143.221 92.0605L117.704 93.3978L118.206 88.9242L118.609 85.3206C118.903 82.6941 120.338 80.3253 122.538 78.835C122.941 78.5631 123.364 78.3231 123.804 78.1174L132.205 74.2012C132.431 74.0959 132.663 74.0039 132.9 73.9263C135.513 73.0793 138.372 74.0817 139.867 76.3692L145.218 84.5481C146.807 86.9779 146.11 90.2279 143.66 91.8072C143.518 91.8987 143.372 91.9833 143.222 92.0609" fill="#F6C854"/>
<path fill-rule="evenodd" clip-rule="evenodd" d="M122.649 78.6485C123.721 81.3969 126.611 82.9584 129.384 82.1772C132.354 81.3401 134.067 78.1314 133.207 75.0109C133.09 74.5848 132.927 74.1729 132.722 73.7825C132.491 73.8588 132.266 73.9498 132.047 74.0548L123.879 77.9363C123.451 78.14 123.039 78.3781 122.649 78.6479" fill="#FFC4B8"/>
<path fill-rule="evenodd" clip-rule="evenodd" d="M123.037 79.3575C124.496 78.5931 125.292 76.9786 125.007 75.3625L130.797 74.6159C130.797 74.6159 130.671 75.2469 132.242 74.9834C132.242 74.9834 132.845 79.9316 128.868 80.1637C124.891 80.3959 123.037 79.3575 123.037 79.3575" fill="#FFC4B8"/>
<path fill-rule="evenodd" clip-rule="evenodd" d="M142.781 92.0577L141.987 94.319C141.942 94.4481 141.816 94.5383 141.671 94.5461L141.539 94.5531C141.372 94.5622 141.223 94.4601 141.181 94.3091L141.11 94.0509L141.071 94.3109C141.047 94.4672 140.908 94.5861 140.74 94.5949L140.383 94.6137C140.208 94.6234 140.054 94.5105 140.022 94.3497L139.954 94.0247L139.916 94.359C139.899 94.5204 139.758 94.6464 139.585 94.6553L139.366 94.6667C139.215 94.6751 139.075 94.5912 139.021 94.4591L138.169 92.3918L138.153 92.4343L137.075 92.4908L137.171 92.0192C137.296 91.4087 137.83 90.9426 138.488 90.8694L140.954 90.5962C141.204 90.5693 141.456 90.5626 141.706 90.5766C142.374 90.611 142.881 91.1464 142.84 91.7725C142.834 91.8695 142.814 91.9656 142.782 92.0581" fill="#FFC4B8"/>
<path fill-rule="evenodd" clip-rule="evenodd" d="M123.359 67.0534L122.494 66.3606L125.141 62.6023L127.078 63.7433L123.359 67.0534Z" fill="#FFC4B8"/>
<path fill-rule="evenodd" clip-rule="evenodd" d="M128.199 63.6749C128.9 63.6427 129.564 63.9816 129.944 64.5652C129.944 64.5652 131.133 66.9609 131.774 67.504C133.42 68.9009 136.013 68.2691 135.869 65.5259C135.779 64.4351 135.474 63.3726 134.972 62.3985C134.91 62.2688 134.825 62.1001 134.724 61.9032C133.397 59.3125 130.375 58.0543 127.578 58.9288C127.578 58.9288 124.852 59.8634 125.634 62.3477C125.888 63.1536 126.668 63.7539 128.199 63.6737" fill="#CEDEE7"/>
<path fill-rule="evenodd" clip-rule="evenodd" d="M122.969 67.4587L124.428 67.5897C124.428 67.5897 123.928 68.5475 123.563 68.5149C123.198 68.4823 122.969 67.4587 122.969 67.4587Z" fill="#F4A48D"/>
<path fill-rule="evenodd" clip-rule="evenodd" d="M124.719 71.6924C125.041 71.8149 125.378 71.862 125.713 71.8309C126.229 71.77 126.893 71.597 126.893 71.597C126.496 71.9271 126.082 72.2273 125.654 72.4959C125.41 72.6569 125.139 72.7519 124.859 72.7744L124.719 71.6924Z" fill="#F4A48D"/>
</svg>
