<svg width="160" height="160" viewBox="0 0 160 160" fill="none" xmlns="http://www.w3.org/2000/svg">
<path fill-rule="evenodd" clip-rule="evenodd" d="M97.9415 32.8209C98.3622 33.2418 98.7749 33.6675 99.1795 34.098C107.327 42.7645 118.122 48.4208 129.82 50.5468C136.921 51.8371 143.715 55.2286 149.205 60.7215C163.584 75.108 163.601 98.3084 149.241 112.715C142.906 119.07 134.828 122.621 126.546 123.369C119.455 124.01 112.792 127.106 107.873 132.257C107.809 132.323 107.746 132.389 107.682 132.454C99.2892 141.023 85.7133 141.107 77.2191 132.641C77.1704 132.593 77.1221 132.544 77.0743 132.495C74.8053 130.191 71.5302 129.184 68.3568 129.801C50.264 133.317 30.8065 128.063 16.7932 114.038C-5.59775 91.629 -5.59775 55.2302 16.7932 32.8206C39.2022 10.3934 75.5331 10.3935 97.9415 32.8209Z" fill="#EAF7FE"/>
<path d="M109.407 53.5527L107.328 53.4004L109.407 53.5527" fill="#137E84"/>
<path d="M125.475 54.7282L119.742 54.3086L125.475 54.7282Z" fill="#137E84"/>
<path fill-rule="evenodd" clip-rule="evenodd" d="M148.648 136.458C148.648 140.3 117.667 143.414 79.4491 143.414C41.2314 143.414 10.25 140.3 10.25 136.458C10.25 132.615 41.2314 129.501 79.4491 129.501C117.667 129.501 148.648 132.615 148.648 136.458Z" fill="#DEEDF2"/>
<path fill-rule="evenodd" clip-rule="evenodd" d="M109.014 129.135L118.362 133.629H41.0078L51.5942 129.135H109.014Z" fill="#34466B"/>
<path fill-rule="evenodd" clip-rule="evenodd" d="M58.2077 130.79L55.2539 130.788L57.1692 129.95H59.8847L58.2077 130.79Z" fill="#9BC3D3"/>
<path fill-rule="evenodd" clip-rule="evenodd" d="M54.6065 130.787L51.6523 130.784L53.8583 129.95H56.5742L54.6065 130.787Z" fill="#9BC3D3"/>
<path fill-rule="evenodd" clip-rule="evenodd" d="M65.4151 130.797L62.4609 130.794L63.7955 129.95H66.5109L65.4151 130.797Z" fill="#9BC3D3"/>
<path fill-rule="evenodd" clip-rule="evenodd" d="M61.8136 130.794L58.8594 130.791L60.4841 129.95H63.2L61.8136 130.794Z" fill="#9BC3D3"/>
<path fill-rule="evenodd" clip-rule="evenodd" d="M72.6807 130.803L69.7266 130.8L70.4748 129.95H73.1903L72.6807 130.803Z" fill="#9BC3D3"/>
<path fill-rule="evenodd" clip-rule="evenodd" d="M69.0792 130.8L66.125 130.798L67.1643 129.95H69.8797L69.0792 130.8Z" fill="#9BC3D3"/>
<path fill-rule="evenodd" clip-rule="evenodd" d="M79.8874 130.809L76.9336 130.807L77.1002 129.95H79.8161L79.8874 130.809Z" fill="#9BC3D3"/>
<path fill-rule="evenodd" clip-rule="evenodd" d="M76.2858 130.806L73.332 130.804L73.7892 129.95H76.5051L76.2858 130.806Z" fill="#9BC3D3"/>
<path fill-rule="evenodd" clip-rule="evenodd" d="M87.1205 130.816L84.1667 130.814L83.75 129.95H86.4659L87.1205 130.816Z" fill="#9BC3D3"/>
<path fill-rule="evenodd" clip-rule="evenodd" d="M83.5174 130.813L80.5636 130.81L80.4375 129.95H83.1534L83.5174 130.813Z" fill="#9BC3D3"/>
<path fill-rule="evenodd" clip-rule="evenodd" d="M94.3228 130.822L91.369 130.819L90.3711 129.95H93.087L94.3228 130.822Z" fill="#9BC3D3"/>
<path fill-rule="evenodd" clip-rule="evenodd" d="M90.724 130.819L87.7698 130.817L87.0625 129.95H89.778L90.724 130.819Z" fill="#9BC3D3"/>
<path fill-rule="evenodd" clip-rule="evenodd" d="M101.589 130.829L98.635 130.826L97.0508 129.95H99.7667L101.589 130.829Z" fill="#9BC3D3"/>
<path fill-rule="evenodd" clip-rule="evenodd" d="M97.9857 130.825L95.0319 130.823L93.7383 129.95H96.4542L97.9857 130.825Z" fill="#9BC3D3"/>
<path fill-rule="evenodd" clip-rule="evenodd" d="M108.795 130.835L105.842 130.833L103.676 129.95H106.392L108.795 130.835Z" fill="#9BC3D3"/>
<path fill-rule="evenodd" clip-rule="evenodd" d="M105.192 130.832L102.238 130.83L100.363 129.95H103.079L105.192 130.832Z" fill="#9BC3D3"/>
<path fill-rule="evenodd" clip-rule="evenodd" d="M56.2992 131.801L53.0586 131.795L54.9663 130.958L57.9686 130.96L56.2992 131.801Z" fill="#9BC3D3"/>
<path fill-rule="evenodd" clip-rule="evenodd" d="M52.3499 131.793L49.1094 131.787L51.3077 130.953L54.31 130.956L52.3499 131.793Z" fill="#9BC3D3"/>
<path fill-rule="evenodd" clip-rule="evenodd" d="M64.2054 131.814L60.9648 131.808L62.2909 130.964L65.2932 130.967L64.2054 131.814Z" fill="#9BC3D3"/>
<path fill-rule="evenodd" clip-rule="evenodd" d="M60.2558 131.807L57.0156 131.801L58.6323 130.96L61.6346 130.964L60.2558 131.807Z" fill="#9BC3D3"/>
<path fill-rule="evenodd" clip-rule="evenodd" d="M72.1742 131.828L68.9336 131.823L69.6742 130.972L72.6761 130.975L72.1742 131.828Z" fill="#9BC3D3"/>
<path fill-rule="evenodd" clip-rule="evenodd" d="M68.2206 131.822L64.9805 131.816L66.0113 130.969L69.0136 130.972L68.2206 131.822Z" fill="#9BC3D3"/>
<path fill-rule="evenodd" clip-rule="evenodd" d="M80.0804 131.842L76.8398 131.837L76.9989 130.979L80.0011 130.982L80.0804 131.842Z" fill="#9BC3D3"/>
<path fill-rule="evenodd" clip-rule="evenodd" d="M76.1273 131.836L72.8867 131.83L73.3363 130.976L76.3386 130.979L76.1273 131.836Z" fill="#9BC3D3"/>
<path fill-rule="evenodd" clip-rule="evenodd" d="M88.013 131.856L84.7724 131.851L84.3477 130.988L87.3499 130.991L88.013 131.856Z" fill="#9BC3D3"/>
<path fill-rule="evenodd" clip-rule="evenodd" d="M84.0618 131.85L80.8212 131.844L80.6875 130.983L83.6898 130.987L84.0618 131.85Z" fill="#9BC3D3"/>
<path fill-rule="evenodd" clip-rule="evenodd" d="M95.9188 131.871L92.6783 131.865L91.6719 130.995L94.6746 130.998L95.9188 131.871Z" fill="#9BC3D3"/>
<path fill-rule="evenodd" clip-rule="evenodd" d="M91.9676 131.864L88.7266 131.858L88.0117 130.992L91.014 130.995L91.9676 131.864Z" fill="#9BC3D3"/>
<path fill-rule="evenodd" clip-rule="evenodd" d="M103.887 131.885L100.647 131.879L99.0547 131.003L102.057 131.006L103.887 131.885Z" fill="#9BC3D3"/>
<path fill-rule="evenodd" clip-rule="evenodd" d="M99.9363 131.878L96.6962 131.872L95.3945 130.999L98.3964 131.002L99.9363 131.878Z" fill="#9BC3D3"/>
<path fill-rule="evenodd" clip-rule="evenodd" d="M111.793 131.899L108.552 131.893L106.379 131.01L109.381 131.013L111.793 131.899Z" fill="#9BC3D3"/>
<path fill-rule="evenodd" clip-rule="evenodd" d="M107.842 131.892L104.602 131.886L102.719 131.007L105.721 131.01L107.842 131.892Z" fill="#9BC3D3"/>
<path fill-rule="evenodd" clip-rule="evenodd" d="M54.3479 132.785L50.8281 132.776L52.7359 131.938L56.0169 131.944L54.3479 132.785Z" fill="#9BC3D3"/>
<path fill-rule="evenodd" clip-rule="evenodd" d="M50.055 132.774L46.5352 132.765L48.7335 131.93L52.0146 131.937L50.055 132.774Z" fill="#9BC3D3"/>
<path fill-rule="evenodd" clip-rule="evenodd" d="M62.93 132.806L59.4102 132.797L60.7371 131.953L64.0182 131.959L62.93 132.806Z" fill="#9BC3D3"/>
<path fill-rule="evenodd" clip-rule="evenodd" d="M58.6409 132.795L55.1211 132.786L56.7382 131.946L60.0197 131.952L58.6409 132.795Z" fill="#9BC3D3"/>
<path fill-rule="evenodd" clip-rule="evenodd" d="M80.0561 132.849L68.0664 132.819L68.8066 131.968L79.9844 131.989L80.0561 132.849Z" fill="#9BC3D3"/>
<path fill-rule="evenodd" clip-rule="evenodd" d="M67.2932 132.817L63.7734 132.808L64.8047 131.96L68.0858 131.967L67.2932 132.817Z" fill="#9BC3D3"/>
<path fill-rule="evenodd" clip-rule="evenodd" d="M88.7874 132.871L85.2685 132.862L84.8438 131.999L88.1252 132.005L88.7874 132.871Z" fill="#9BC3D3"/>
<path fill-rule="evenodd" clip-rule="evenodd" d="M84.4973 132.86L80.9775 132.851L80.8438 131.991L84.1248 131.997L84.4973 132.86Z" fill="#9BC3D3"/>
<path fill-rule="evenodd" clip-rule="evenodd" d="M97.3773 132.892L93.8579 132.883L92.8516 132.014L96.133 132.02L97.3773 132.892Z" fill="#9BC3D3"/>
<path fill-rule="evenodd" clip-rule="evenodd" d="M93.0828 132.882L89.5626 132.873L88.8477 132.006L92.1287 132.012L93.0828 132.882Z" fill="#9BC3D3"/>
<path fill-rule="evenodd" clip-rule="evenodd" d="M106.03 132.914L102.511 132.905L100.918 132.029L104.2 132.036L106.03 132.914Z" fill="#9BC3D3"/>
<path fill-rule="evenodd" clip-rule="evenodd" d="M101.735 132.903L98.2157 132.894L96.9141 132.021L100.196 132.028L101.735 132.903Z" fill="#9BC3D3"/>
<path fill-rule="evenodd" clip-rule="evenodd" d="M114.615 132.936L111.095 132.926L108.922 132.044L112.203 132.05L114.615 132.936Z" fill="#9BC3D3"/>
<path fill-rule="evenodd" clip-rule="evenodd" d="M110.324 132.925L106.804 132.916L104.922 132.037L108.203 132.043L110.324 132.925Z" fill="#9BC3D3"/>
<path fill-rule="evenodd" clip-rule="evenodd" d="M41.0078 134.859H118.362V133.629H41.0078V134.859Z" fill="#9BC3D3"/>
<path fill-rule="evenodd" clip-rule="evenodd" d="M89.5847 119.135C87.4167 115.909 87.219 111.561 87.219 111.561H72.7725C72.7725 111.561 72.5753 115.909 70.4067 119.135C68.2375 122.36 63.7031 124.375 63.7031 124.375H96.2889C96.2889 124.375 91.754 122.36 89.5847 119.135Z" fill="#34466B"/>
<path fill-rule="evenodd" clip-rule="evenodd" d="M146.483 16.7319C149.094 16.7319 151.21 18.8496 151.21 21.4625V109.392C151.21 112.005 149.094 114.123 146.483 114.123H13.1438C10.5339 114.123 8.41797 112.005 8.41797 109.392V21.4625C8.41797 18.8496 10.5339 16.7319 13.1438 16.7319H146.483ZM143.519 21.4875H15.6656C14.522 21.4875 13.5953 22.4153 13.5953 23.5596V93.5692C13.5953 94.7135 14.522 95.6413 15.6656 95.6413H143.519C144.662 95.6413 145.589 94.7135 145.589 93.5692V23.5596C145.589 22.4153 144.662 21.4875 143.519 21.4875Z" fill="#34466B"/>
<path fill-rule="evenodd" clip-rule="evenodd" d="M8.41797 100.577V109.38C8.41797 112 10.5339 114.124 13.1438 114.124H146.483C149.094 114.124 151.21 112 151.21 109.38V100.577H8.41797Z" fill="#9BC3D3"/>
<path fill-rule="evenodd" clip-rule="evenodd" d="M97.2233 125.84H63.1364C62.8433 125.84 62.6055 125.601 62.6055 125.307V122.71C62.6055 122.417 62.8433 122.178 63.1364 122.178H97.2233C97.5164 122.178 97.7542 122.417 97.7542 122.71V125.307C97.7542 125.601 97.5164 125.84 97.2233 125.84Z" fill="#9BC3D3"/>
<path fill-rule="evenodd" clip-rule="evenodd" d="M80.3739 110.828H79.6195C77.7049 110.828 76.1523 109.275 76.1523 107.361V106.607C76.1523 104.692 77.7049 103.14 79.6195 103.14H80.3739C82.2886 103.14 83.8411 104.692 83.8411 106.607V107.361C83.8411 109.275 82.2886 110.828 80.3739 110.828Z" fill="#34466B"/>
<path fill-rule="evenodd" clip-rule="evenodd" d="M119.651 61.4009C119.651 47.4484 108.341 36.1377 94.388 36.1377C80.4358 36.1377 69.125 47.4484 69.125 61.4009C69.125 75.3533 80.4358 86.664 94.388 86.664C108.341 86.664 119.651 75.3533 119.651 61.4009Z" fill="#34466B"/>
<path fill-rule="evenodd" clip-rule="evenodd" d="M114.972 46.4314C114.047 46.8218 112.784 47.7656 112.883 48.9097C113.049 50.8161 114.26 50.4237 114.04 51.489C113.819 52.5544 112.498 52.5544 112.168 53.6759C111.837 54.7973 111.122 57.2647 112.113 58.4422C113.103 59.6199 114.425 58.6105 115.031 59.5077C115.636 60.4048 115.857 61.5263 116.958 61.358C117.47 61.2799 118.575 60.6833 119.651 60.0825C119.651 57.9172 119.117 55.7529 118.443 53.7118C117.541 50.9777 116.205 48.4616 114.972 46.4314ZM89.1031 53.8089C88.4755 54.0171 88.3489 54.6751 89.1031 54.9061C89.8574 55.1369 90.8437 54.9061 90.7857 54.5018C90.7277 54.0975 89.6253 53.6356 89.1031 53.8089ZM83.4414 52.7859C83.3866 53.3785 87.6045 54.7411 87.6045 54.0894C87.6045 53.4377 85.1943 52.4305 84.7013 52.3713C83.8235 52.2658 83.4961 52.1936 83.4414 52.7859ZM97.1459 42.7612C97.2579 42.3816 96.4189 41.9476 96.1952 41.839C95.3886 41.4479 95.2443 42.4902 95.6919 42.9783C96.1393 43.4665 97.0341 43.1411 97.1459 42.7612ZM99.3946 61.5679C97.2275 61.234 96.6162 61.7905 96.6162 61.7905L92.5596 58.2285C92.5596 58.2285 86.3361 59.6198 85.5581 59.4528C84.78 59.286 82.7796 59.1746 82.7241 58.0615C82.6684 56.9483 83.7244 55.7796 82.3351 54.8889C80.9459 53.9984 77.8897 54.6663 77.5007 54.1098C77.1116 53.5532 77.2229 50.7147 78.501 49.713C79.7789 48.7111 82.3906 48.3214 83.1686 49.0451C83.9465 49.7686 83.2797 51.2713 84.1132 51.3825C84.9468 51.4939 84.1689 48.4328 85.169 47.7093C86.1693 46.9857 86.7806 47.1527 87.3917 46.5404C88.003 45.9283 87.5585 45.0934 88.5031 44.7036C89.4479 44.3142 93.3932 44.2028 93.6712 43.1454C93.949 42.0879 91.226 41.9765 91.3928 41.5313C91.5595 41.086 95.0603 42.2548 95.2269 40.9748C95.3938 39.6947 91.504 37.524 90.1702 37.9693C88.8366 38.4145 87.9475 41.4199 86.8917 41.086C85.8358 40.752 83.9465 39.0268 84.9468 38.3031C85.9471 37.5796 87.9475 38.5815 88.3365 37.6909C88.5183 37.2746 88.4505 37.3223 88.1268 36.9062C84.428 37.6912 80.3587 39.9976 77.3625 42.7278C75.2999 44.6071 73.7377 46.5722 72.5295 48.6591C72.4383 50.8074 72.2595 53.4517 72.8328 53.2749C73.5551 53.0523 73.3886 47.8762 73.9442 48.711C74.4999 49.5459 73.8331 52.6071 74.4999 53.7758C75.1667 54.9447 75.7225 54.6107 75.7225 54.6107C75.7225 54.6107 76.9449 55.9464 77.7229 55.4456C77.5007 55.8908 78.9453 58.0059 80.3346 58.6737C81.7238 59.3416 83.8354 58.952 84.78 60.2321C85.7248 61.5122 85.3358 62.7368 85.3358 62.7368C85.3358 62.7368 83.7799 64.2951 84.0577 66.2432C84.002 66.2988 82.9463 65.7423 83.2241 67.5231C83.5019 69.3043 88.6143 71.9202 88.8921 73.4786C89.1699 75.0369 88.6143 82.8848 88.8921 84.2761C89.0526 85.0802 89.335 86.1145 89.6645 86.2243C89.994 86.3342 90.5654 86.3976 90.9826 86.444C91.2035 86.4686 91.5317 86.5411 91.6416 86.444C92.0235 86.1066 91.6706 85.111 91.6706 85.111L95.7826 80.7141C95.7826 80.7141 98.0053 80.2131 99.7835 78.3763C101.562 76.5397 107.508 69.1373 106.618 66.8554C105.729 64.5734 102.506 64.7404 102.506 64.7404C102.506 64.7404 101.562 61.9019 99.3946 61.5679Z" fill="#9BC3D3"/>
<path fill-rule="evenodd" clip-rule="evenodd" d="M99.3799 61.401C97.214 61.0661 96.603 61.6243 96.603 61.6243L92.5487 58.0514C92.5487 58.0514 86.3285 59.4471 85.5509 59.2795C84.7733 59.1122 82.7739 59.0004 82.7185 57.8839C82.6628 56.7674 83.7182 55.5951 82.3296 54.7017C80.9413 53.8085 77.8867 54.4784 77.4979 53.9202C77.1091 53.3619 77.2202 50.5147 78.4976 49.5099C79.7748 48.5049 82.3851 48.1141 83.1627 48.84C83.9402 49.5657 83.2737 51.073 84.1068 51.1846C84.9399 51.2963 84.1625 48.2259 85.1621 47.5002C86.1618 46.7743 86.7728 46.9418 87.3836 46.3277C87.9945 45.7137 87.5502 44.8763 88.4943 44.4853C89.4386 44.0946 93.3818 43.9829 93.6596 42.9223C93.9372 41.8616 91.2158 41.7498 91.3824 41.3032C91.5491 40.8566 95.048 42.0289 95.2144 40.7451C95.3627 39.6024 92.3023 37.7543 90.6866 37.6753C90.4986 37.6963 90.3113 37.7193 90.1245 37.7448C88.8117 38.2331 87.9295 41.1885 86.8838 40.8566C86.2 40.6395 73.388 47.6675 73.9433 48.5049C74.4988 49.3424 73.8323 52.4129 74.4988 53.5852C75.1652 54.7577 75.7207 54.4226 75.7207 54.4226C75.7207 54.4226 76.9424 55.7624 77.72 55.26C77.4979 55.7067 78.9417 57.8281 80.3303 58.498C81.7187 59.168 83.8292 58.7771 84.7733 60.0612C85.7175 61.3452 85.3287 62.5735 85.3287 62.5735C85.3287 62.5735 83.7737 64.1366 84.0513 66.0906C83.9957 66.1464 82.9406 65.5882 83.2182 67.3745C83.4959 69.1611 88.6055 71.7849 88.8831 73.3481C89.1608 74.9112 88.6055 82.783 88.8831 84.1786C89.0349 84.9411 89.3608 85.4942 89.7745 86.0048C90.3388 86.0904 90.9558 86.3982 91.532 86.4442C91.9808 85.9162 91.6601 85.0161 91.6601 85.0161L95.7699 80.6057C95.7699 80.6057 97.9914 80.1032 99.7686 78.2608C101.546 76.4186 107.488 68.9935 106.6 66.7047C105.711 64.4157 102.49 64.5832 102.49 64.5832C102.49 64.5832 101.546 61.7361 99.3799 61.401Z" fill="#9BC3D3"/>
<path fill-rule="evenodd" clip-rule="evenodd" d="M75.2197 46.3913C75.0192 46.6893 74.8191 46.9718 74.62 47.2394L74.4056 46.9126C74.6015 46.6495 74.7986 46.3713 74.9963 46.0774L75.2197 46.3913ZM73.7117 47.9562C73.4909 48.1919 73.2716 48.4113 73.0538 48.6153L72.8738 48.3087C73.0872 48.1091 73.3021 47.8939 73.5188 47.6626L73.7117 47.9562ZM71.7555 49.5789C71.5179 49.7983 71.282 49.9957 71.0481 50.1716L70.8973 49.786C71.1246 49.6149 71.3544 49.423 71.5863 49.2086L71.7555 49.5789ZM69.7924 50.6594C69.5248 50.8085 69.2606 50.9316 69 51.0298L68.9007 50.6284C69.1515 50.5339 69.4066 50.4153 69.6654 50.2707L69.7924 50.6594ZM67.6614 51.3555C67.5949 51.3677 67.5288 51.3783 67.4629 51.3876C67.233 51.4199 67.0069 51.435 66.785 51.4339L66.7611 51.0425C66.9726 51.0438 67.1884 51.0293 67.4082 50.9984C67.4712 50.9896 67.5345 50.9795 67.5981 50.9678L67.6614 51.3555ZM65.1987 51.4267C64.9059 51.3757 64.6231 51.2978 64.3512 51.1962L64.4206 50.8705C64.6779 50.9666 64.9456 51.0405 65.2235 51.0888L65.1987 51.4267ZM63.1212 50.8425C62.8338 50.6418 62.5607 50.4125 62.3032 50.1592L62.4606 49.8261C62.7043 50.0659 62.9628 50.2831 63.2346 50.4728L63.1212 50.8425ZM61.4257 49.382C61.1622 49.1226 60.9213 48.8446 60.7042 48.5521L60.9872 48.3344C61.1932 48.612 61.4218 48.8757 61.6716 49.1216L61.4257 49.382ZM59.969 47.3195C59.7808 46.9346 59.6214 46.5382 59.4928 46.1355L59.8467 46.0057C59.9684 46.3863 60.1193 46.7622 60.2977 47.1271L59.969 47.3195ZM59.6014 45.1326L59.2479 45.1882L59.2336 45.0914C59.1864 44.7555 59.1681 44.4199 59.1806 44.0885L59.5382 44.1024C59.5266 44.4114 59.5435 44.726 59.5879 45.0416C59.5921 45.0718 59.5966 45.1022 59.6014 45.1326ZM59.2483 42.8314C59.3504 42.4734 59.4964 42.1275 59.6889 41.8012L60.0152 41.9743C59.8389 42.2732 59.7045 42.5908 59.6103 42.9215L59.2483 42.8314ZM60.4439 40.9744C60.636 40.7186 60.8601 40.4879 61.1167 40.2881L61.2797 40.6072C61.0416 40.7925 60.8355 41.0049 60.6594 41.2397L60.4439 40.9744ZM62.4319 39.8793C62.6895 39.7766 62.9684 39.6937 63.2694 39.633L63.3288 39.9468C63.042 40.0046 62.7778 40.0832 62.5357 40.1798L62.4319 39.8793ZM64.6301 39.2964C64.9042 39.281 65.1928 39.2812 65.4964 39.2982L65.4914 39.6191C65.1968 39.6025 64.9177 39.6023 64.6539 39.6173L64.6301 39.2964ZM66.8371 39.5907C67.1531 39.7129 67.4315 39.8943 67.6706 40.126L67.4858 40.3868C67.2769 40.1846 67.0348 40.0264 66.754 39.9176L66.8371 39.5907ZM68.6109 40.851C68.7992 41.1533 68.9415 41.492 69.0422 41.8598L68.6545 41.9541C68.5607 41.6113 68.4294 41.3014 68.26 41.0296L68.6109 40.851ZM69.2269 43.2872C69.2559 43.6335 69.2648 43.9956 69.2544 44.3702L68.9324 44.349C68.9423 43.9873 68.9339 43.6398 68.9062 43.3099L69.2269 43.2872ZM69.1531 45.3607C69.1145 45.7652 69.0612 46.1785 68.9938 46.5975L68.6476 46.4992C68.7136 46.0897 68.7656 45.6869 68.8031 45.2933L69.1531 45.3607ZM68.8981 47.6725C68.783 48.0096 68.6549 48.3498 68.5143 48.6912L68.1384 48.5814C68.2762 48.2463 68.402 47.9125 68.5147 47.5819L68.8981 47.6725ZM67.887 49.8119C67.7497 50.1426 67.6026 50.4726 67.4463 50.8005L67.1173 50.6486C67.2709 50.3261 67.4156 50.0016 67.5506 49.6767L67.887 49.8119ZM66.9603 52.1523C66.8054 52.4762 66.6428 52.7963 66.4729 53.1108L66.1805 52.9178C66.3476 52.6084 66.5074 52.2938 66.6598 51.9754L66.9603 52.1523ZM65.7775 53.8904C65.6068 54.2063 65.4292 54.5147 65.2452 54.8142L64.9863 54.5742C65.1666 54.2807 65.3408 53.9781 65.5084 53.668L65.7775 53.8904ZM64.1922 55.8123C64.0046 56.1178 63.8107 56.4108 63.6109 56.6895L63.3859 56.3888C63.5807 56.1171 63.7701 55.831 63.9537 55.5321L64.1922 55.8123ZM62.8051 57.1174C62.5897 57.3556 62.3688 57.5773 62.1424 57.7799L61.9671 57.4686C62.1857 57.2729 62.3998 57.0583 62.6089 56.827L62.8051 57.1174ZM60.6123 58.786C60.3629 58.954 60.1081 59.0982 59.8485 59.2161L59.7374 58.8747C59.9844 58.7626 60.2278 58.6247 60.4671 58.4637L60.6123 58.786ZM58.691 59.4491C58.5875 59.473 58.4833 59.4925 58.3785 59.5072C58.193 59.5333 58.0055 59.5446 57.8165 59.5403L57.7952 59.1455C57.9726 59.1496 58.1487 59.1389 58.3233 59.1143C58.4219 59.1005 58.5201 59.0823 58.6178 59.0595L58.691 59.4491ZM56.3884 59.4538C56.1058 59.3641 55.8202 59.2344 55.5326 59.0628L55.6126 58.6755C55.8838 58.8377 56.152 58.9591 56.4172 59.0434L56.3884 59.4538ZM54.3317 58.863C54.0655 58.6585 53.7986 58.4226 53.5317 58.1535L53.7064 57.8417C53.9624 58.0999 54.2172 58.3252 54.4706 58.5197L54.3317 58.863ZM52.5365 57.2022C52.2549 56.9268 52.0265 56.6316 51.8427 56.3189L52.182 56.1428C52.3512 56.4303 52.5599 56.7003 52.8193 56.9538L52.5365 57.2022ZM51.4066 55.2183C51.3114 54.895 51.2434 54.5589 51.1945 54.2109L51.1848 54.1403L51.5548 54.091L51.5642 54.159C51.6112 54.4935 51.676 54.8128 51.7654 55.1162L51.4066 55.2183ZM51.1678 53.1187C51.1482 52.7715 51.1366 52.4144 51.1276 52.0475L51.4606 52.0454C51.4696 52.4105 51.481 52.7637 51.5001 53.1044L51.1678 53.1187ZM51.3176 50.6553C51.3089 50.31 51.2978 49.9569 51.2806 49.5959L51.6109 49.5855C51.6284 49.9505 51.6396 50.3065 51.6483 50.6534L51.3176 50.6553ZM50.6658 48.5705C50.6386 48.2193 50.6017 47.8619 50.5512 47.4985L50.951 47.4427C51.0025 47.8137 51.0402 48.178 51.0676 48.5351L50.6658 48.5705ZM50.6312 46.0095C50.5627 45.6726 50.4819 45.3306 50.3867 44.9836L50.7142 44.8887C50.812 45.2442 50.8946 45.5946 50.9647 45.9393L50.6312 46.0095Z" fill="#34466B"/>
<path fill-rule="evenodd" clip-rule="evenodd" d="M44.3812 39.4006L59.3268 37.8429L40.1537 36.9622L44.3812 39.4006Z" fill="#EC0000"/>
<path fill-rule="evenodd" clip-rule="evenodd" d="M43.5291 46.9254L59.2711 37.8364L43.6366 44.8672L43.5291 46.9254Z" fill="#990000"/>
<path fill-rule="evenodd" clip-rule="evenodd" d="M40.2045 36.9619L43.6496 39.9986L43.5795 41.3407L44.3988 40.038L59.3776 37.8443L44.4337 39.3698L40.2045 36.9619Z" fill="#990000"/>
<path fill-rule="evenodd" clip-rule="evenodd" d="M59.3382 37.8336L40.2023 46.5638L44.2836 40.0502L59.3382 37.8336Z" fill="#EC0000"/>
<path fill-rule="evenodd" clip-rule="evenodd" d="M145.721 22.563C145.721 21.7692 144.726 21.126 143.498 21.126H15.77C14.542 21.126 13.5469 21.7692 13.5469 22.563V26.6003H145.721V22.563Z" fill="#CCCCCC"/>
<path fill-rule="evenodd" clip-rule="evenodd" d="M134.557 23.9036C134.557 24.4641 134.103 24.9188 133.542 24.9188C132.982 24.9188 132.527 24.4641 132.527 23.9036C132.527 23.3434 132.982 22.8892 133.542 22.8892C134.103 22.8892 134.557 23.3434 134.557 23.9036Z" fill="#34466B"/>
<path fill-rule="evenodd" clip-rule="evenodd" d="M138.694 23.9036C138.694 24.4641 138.24 24.9188 137.679 24.9188C137.118 24.9188 136.664 24.4641 136.664 23.9036C136.664 23.3434 137.118 22.8892 137.679 22.8892C138.24 22.8892 138.694 23.3434 138.694 23.9036Z" fill="#34466B"/>
<path fill-rule="evenodd" clip-rule="evenodd" d="M141.815 24.9188C141.255 24.9188 140.801 24.4641 140.801 23.9036C140.801 23.3434 141.255 22.8892 141.815 22.8892C142.376 22.8892 142.83 23.3434 142.83 23.9036C142.83 24.4641 142.376 24.9188 141.815 24.9188Z" fill="#34466B"/>
</svg>
