<svg width="160" height="161" viewBox="0 0 160 161" fill="none" xmlns="http://www.w3.org/2000/svg">
<path fill-rule="evenodd" clip-rule="evenodd" d="M97.9415 49.6134C98.3622 50.0343 98.7749 50.46 99.1795 50.8905C107.327 59.557 118.122 65.2133 129.82 67.3393C136.921 68.6296 143.715 72.0211 149.205 77.514C163.584 91.9005 163.601 115.101 149.241 129.507C142.906 135.862 134.828 139.413 126.546 140.162C119.455 140.802 112.792 143.898 107.873 149.049C107.809 149.116 107.746 149.182 107.682 149.247C99.2892 157.815 85.7133 157.9 77.2191 149.434C77.1704 149.385 77.1221 149.336 77.0743 149.288C74.8053 146.983 71.5302 145.977 68.3568 146.593C50.264 150.109 30.8065 144.856 16.7932 130.831C-5.59775 108.422 -5.59775 72.0227 16.7932 49.6131C39.2022 27.1859 75.5331 27.186 97.9415 49.6134Z" fill="#EAF7FE"/>
<path d="M109.407 70.3456L107.328 70.1933L109.407 70.3456" fill="#137E84"/>
<path d="M125.475 71.5212L119.742 71.1016L125.475 71.5212Z" fill="#137E84"/>
<path fill-rule="evenodd" clip-rule="evenodd" d="M148.648 153.251C148.648 157.093 117.667 160.207 79.4491 160.207C41.2314 160.207 10.25 157.093 10.25 153.251C10.25 149.408 41.2314 146.294 79.4491 146.294C117.667 146.294 148.648 149.408 148.648 153.251Z" fill="#DEEDF2"/>
<path fill-rule="evenodd" clip-rule="evenodd" d="M109.014 145.928L118.362 150.422H41.0078L51.5942 145.928H109.014Z" fill="#34466B"/>
<path fill-rule="evenodd" clip-rule="evenodd" d="M58.2077 147.583L55.2539 147.58L57.1692 146.743H59.8847L58.2077 147.583Z" fill="#9BC3D3"/>
<path fill-rule="evenodd" clip-rule="evenodd" d="M54.6065 147.579L51.6523 147.577L53.8583 146.743H56.5742L54.6065 147.579Z" fill="#9BC3D3"/>
<path fill-rule="evenodd" clip-rule="evenodd" d="M65.4151 147.589L62.4609 147.587L63.7955 146.743H66.5109L65.4151 147.589Z" fill="#9BC3D3"/>
<path fill-rule="evenodd" clip-rule="evenodd" d="M61.8136 147.586L58.8594 147.583L60.4841 146.743H63.2L61.8136 147.586Z" fill="#9BC3D3"/>
<path fill-rule="evenodd" clip-rule="evenodd" d="M72.6807 147.596L69.7266 147.593L70.4748 146.743H73.1903L72.6807 147.596Z" fill="#9BC3D3"/>
<path fill-rule="evenodd" clip-rule="evenodd" d="M69.0792 147.592L66.125 147.59L67.1643 146.743H69.8797L69.0792 147.592Z" fill="#9BC3D3"/>
<path fill-rule="evenodd" clip-rule="evenodd" d="M79.8874 147.602L76.9336 147.599L77.1002 146.743H79.8161L79.8874 147.602Z" fill="#9BC3D3"/>
<path fill-rule="evenodd" clip-rule="evenodd" d="M76.2858 147.599L73.332 147.596L73.7892 146.743H76.5051L76.2858 147.599Z" fill="#9BC3D3"/>
<path fill-rule="evenodd" clip-rule="evenodd" d="M87.1205 147.609L84.1667 147.606L83.75 146.743H86.4659L87.1205 147.609Z" fill="#9BC3D3"/>
<path fill-rule="evenodd" clip-rule="evenodd" d="M83.5174 147.606L80.5636 147.603L80.4375 146.743H83.1534L83.5174 147.606Z" fill="#9BC3D3"/>
<path fill-rule="evenodd" clip-rule="evenodd" d="M94.3228 147.615L91.369 147.612L90.3711 146.743H93.087L94.3228 147.615Z" fill="#9BC3D3"/>
<path fill-rule="evenodd" clip-rule="evenodd" d="M90.724 147.612L87.7698 147.609L87.0625 146.743H89.778L90.724 147.612Z" fill="#9BC3D3"/>
<path fill-rule="evenodd" clip-rule="evenodd" d="M101.589 147.621L98.635 147.619L97.0508 146.743H99.7667L101.589 147.621Z" fill="#9BC3D3"/>
<path fill-rule="evenodd" clip-rule="evenodd" d="M97.9857 147.618L95.0319 147.615L93.7383 146.743H96.4542L97.9857 147.618Z" fill="#9BC3D3"/>
<path fill-rule="evenodd" clip-rule="evenodd" d="M108.795 147.628L105.842 147.625L103.676 146.743H106.392L108.795 147.628Z" fill="#9BC3D3"/>
<path fill-rule="evenodd" clip-rule="evenodd" d="M105.192 147.625L102.238 147.622L100.363 146.743H103.079L105.192 147.625Z" fill="#9BC3D3"/>
<path fill-rule="evenodd" clip-rule="evenodd" d="M56.2992 148.593L53.0586 148.587L54.9663 147.75L57.9686 147.753L56.2992 148.593Z" fill="#9BC3D3"/>
<path fill-rule="evenodd" clip-rule="evenodd" d="M52.3499 148.586L49.1094 148.58L51.3077 147.745L54.31 147.748L52.3499 148.586Z" fill="#9BC3D3"/>
<path fill-rule="evenodd" clip-rule="evenodd" d="M64.2054 148.607L60.9648 148.601L62.2909 147.757L65.2932 147.76L64.2054 148.607Z" fill="#9BC3D3"/>
<path fill-rule="evenodd" clip-rule="evenodd" d="M60.2558 148.6L57.0156 148.594L58.6323 147.753L61.6346 147.757L60.2558 148.6Z" fill="#9BC3D3"/>
<path fill-rule="evenodd" clip-rule="evenodd" d="M72.1742 148.621L68.9336 148.615L69.6742 147.765L72.6761 147.768L72.1742 148.621Z" fill="#9BC3D3"/>
<path fill-rule="evenodd" clip-rule="evenodd" d="M68.2206 148.614L64.9805 148.608L66.0113 147.761L69.0136 147.764L68.2206 148.614Z" fill="#9BC3D3"/>
<path fill-rule="evenodd" clip-rule="evenodd" d="M80.0804 148.635L76.8398 148.629L76.9989 147.772L80.0011 147.775L80.0804 148.635Z" fill="#9BC3D3"/>
<path fill-rule="evenodd" clip-rule="evenodd" d="M76.1273 148.629L72.8867 148.622L73.3363 147.769L76.3386 147.772L76.1273 148.629Z" fill="#9BC3D3"/>
<path fill-rule="evenodd" clip-rule="evenodd" d="M88.013 148.649L84.7724 148.643L84.3477 147.78L87.3499 147.784L88.013 148.649Z" fill="#9BC3D3"/>
<path fill-rule="evenodd" clip-rule="evenodd" d="M84.0618 148.642L80.8212 148.636L80.6875 147.776L83.6898 147.779L84.0618 148.642Z" fill="#9BC3D3"/>
<path fill-rule="evenodd" clip-rule="evenodd" d="M95.9188 148.663L92.6783 148.657L91.6719 147.787L94.6746 147.79L95.9188 148.663Z" fill="#9BC3D3"/>
<path fill-rule="evenodd" clip-rule="evenodd" d="M91.9676 148.656L88.7266 148.651L88.0117 147.784L91.014 147.787L91.9676 148.656Z" fill="#9BC3D3"/>
<path fill-rule="evenodd" clip-rule="evenodd" d="M103.887 148.677L100.647 148.671L99.0547 147.795L102.057 147.799L103.887 148.677Z" fill="#9BC3D3"/>
<path fill-rule="evenodd" clip-rule="evenodd" d="M99.9363 148.67L96.6962 148.665L95.3945 147.792L98.3964 147.794L99.9363 148.67Z" fill="#9BC3D3"/>
<path fill-rule="evenodd" clip-rule="evenodd" d="M111.793 148.692L108.552 148.686L106.379 147.803L109.381 147.806L111.793 148.692Z" fill="#9BC3D3"/>
<path fill-rule="evenodd" clip-rule="evenodd" d="M107.842 148.684L104.602 148.679L102.719 147.799L105.721 147.803L107.842 148.684Z" fill="#9BC3D3"/>
<path fill-rule="evenodd" clip-rule="evenodd" d="M54.3479 149.577L50.8281 149.568L52.7359 148.73L56.0169 148.736L54.3479 149.577Z" fill="#9BC3D3"/>
<path fill-rule="evenodd" clip-rule="evenodd" d="M50.055 149.566L46.5352 149.558L48.7335 148.723L52.0146 148.729L50.055 149.566Z" fill="#9BC3D3"/>
<path fill-rule="evenodd" clip-rule="evenodd" d="M62.93 149.598L59.4102 149.59L60.7371 148.745L64.0182 148.751L62.93 149.598Z" fill="#9BC3D3"/>
<path fill-rule="evenodd" clip-rule="evenodd" d="M58.6409 149.588L55.1211 149.579L56.7382 148.738L60.0197 148.744L58.6409 149.588Z" fill="#9BC3D3"/>
<path fill-rule="evenodd" clip-rule="evenodd" d="M80.0561 149.641L68.0664 149.611L68.8066 148.761L79.9844 148.782L80.0561 149.641Z" fill="#9BC3D3"/>
<path fill-rule="evenodd" clip-rule="evenodd" d="M67.2932 149.61L63.7734 149.6L64.8047 148.753L68.0858 148.759L67.2932 149.61Z" fill="#9BC3D3"/>
<path fill-rule="evenodd" clip-rule="evenodd" d="M88.7874 149.664L85.2685 149.654L84.8438 148.791L88.1252 148.798L88.7874 149.664Z" fill="#9BC3D3"/>
<path fill-rule="evenodd" clip-rule="evenodd" d="M84.4973 149.653L80.9775 149.644L80.8438 148.784L84.1248 148.79L84.4973 149.653Z" fill="#9BC3D3"/>
<path fill-rule="evenodd" clip-rule="evenodd" d="M97.3773 149.685L93.8579 149.676L92.8516 148.806L96.133 148.812L97.3773 149.685Z" fill="#9BC3D3"/>
<path fill-rule="evenodd" clip-rule="evenodd" d="M93.0828 149.674L89.5626 149.665L88.8477 148.799L92.1287 148.804L93.0828 149.674Z" fill="#9BC3D3"/>
<path fill-rule="evenodd" clip-rule="evenodd" d="M106.03 149.707L102.511 149.698L100.918 148.822L104.2 148.828L106.03 149.707Z" fill="#9BC3D3"/>
<path fill-rule="evenodd" clip-rule="evenodd" d="M101.735 149.696L98.2157 149.687L96.9141 148.813L100.196 148.82L101.735 149.696Z" fill="#9BC3D3"/>
<path fill-rule="evenodd" clip-rule="evenodd" d="M114.615 149.728L111.095 149.719L108.922 148.836L112.203 148.843L114.615 149.728Z" fill="#9BC3D3"/>
<path fill-rule="evenodd" clip-rule="evenodd" d="M110.324 149.717L106.804 149.708L104.922 148.829L108.203 148.835L110.324 149.717Z" fill="#9BC3D3"/>
<path fill-rule="evenodd" clip-rule="evenodd" d="M41.0078 151.652H118.362V150.422H41.0078V151.652Z" fill="#9BC3D3"/>
<path fill-rule="evenodd" clip-rule="evenodd" d="M89.5886 135.928C87.4206 132.702 87.2229 128.354 87.2229 128.354H72.7764C72.7764 128.354 72.5792 132.702 70.4106 135.928C68.2414 139.153 63.707 141.169 63.707 141.169H96.2928C96.2928 141.169 91.7579 139.153 89.5886 135.928Z" fill="#34466B"/>
<path fill-rule="evenodd" clip-rule="evenodd" d="M146.487 33.5254C149.098 33.5254 151.214 35.6431 151.214 38.256V126.185C151.214 128.798 149.098 130.917 146.487 130.917H13.1477C10.5378 130.917 8.42188 128.798 8.42188 126.185V38.256C8.42188 35.6431 10.5378 33.5254 13.1477 33.5254H146.487ZM143.521 38.2808H15.668C14.5243 38.2808 13.5977 39.2085 13.5977 40.3528V110.362C13.5977 111.507 14.5243 112.434 15.668 112.434H143.521C144.664 112.434 145.592 111.507 145.592 110.362V40.3528C145.592 39.2085 144.664 38.2808 143.521 38.2808Z" fill="#34466B"/>
<path fill-rule="evenodd" clip-rule="evenodd" d="M8.42188 117.37V126.173C8.42188 128.793 10.5378 130.917 13.1477 130.917H146.487C149.098 130.917 151.214 128.793 151.214 126.173V117.37H8.42188Z" fill="#9BC3D3"/>
<path fill-rule="evenodd" clip-rule="evenodd" d="M97.2272 142.633H63.1403C62.8472 142.633 62.6094 142.395 62.6094 142.101V139.504C62.6094 139.21 62.8472 138.972 63.1403 138.972H97.2272C97.5203 138.972 97.7581 139.21 97.7581 139.504V142.101C97.7581 142.395 97.5203 142.633 97.2272 142.633Z" fill="#9BC3D3"/>
<path fill-rule="evenodd" clip-rule="evenodd" d="M80.3778 127.621H79.6234C77.7088 127.621 76.1562 126.068 76.1562 124.154V123.4C76.1562 121.485 77.7088 119.933 79.6234 119.933H80.3778C82.2925 119.933 83.845 121.485 83.845 123.4V124.154C83.845 126.068 82.2925 127.621 80.3778 127.621Z" fill="#34466B"/>
<path fill-rule="evenodd" clip-rule="evenodd" d="M119.655 78.1933C119.655 64.2409 108.344 52.9302 94.3919 52.9302C80.4397 52.9302 69.1289 64.2409 69.1289 78.1933C69.1289 92.1458 80.4397 103.456 94.3919 103.456C108.344 103.456 119.655 92.1458 119.655 78.1933Z" fill="#34466B"/>
<path fill-rule="evenodd" clip-rule="evenodd" d="M114.974 63.2246C114.049 63.615 112.786 64.5587 112.885 65.7029C113.051 67.6093 114.262 67.2169 114.042 68.2822C113.821 69.3476 112.5 69.3476 112.17 70.4691C111.839 71.5905 111.124 74.0579 112.115 75.2354C113.106 76.4131 114.427 75.4037 115.033 76.3008C115.638 77.198 115.859 78.3195 116.96 78.1512C117.472 78.0731 118.577 77.4764 119.653 76.8757C119.653 74.7104 119.119 72.5461 118.445 70.5049C117.543 67.7709 116.207 65.2547 114.974 63.2246ZM89.1052 70.6019C88.4776 70.8101 88.351 71.4681 89.1052 71.6991C89.8594 71.9299 90.8458 71.6991 90.7878 71.2949C90.7298 70.8906 89.6273 70.4286 89.1052 70.6019ZM83.4458 69.5789C83.3911 70.1715 87.609 71.5342 87.609 70.8824C87.609 70.2307 85.1987 69.2236 84.7058 69.1644C83.8279 69.0588 83.5006 68.9866 83.4458 69.5789ZM97.1495 59.554C97.2615 59.1744 96.4225 58.7405 96.1988 58.6319C95.3922 58.2407 95.2479 59.283 95.6955 59.7712C96.1429 60.2594 97.0378 59.934 97.1495 59.554ZM99.3986 78.3608C97.2314 78.027 96.6201 78.5835 96.6201 78.5835L92.5635 75.0215C92.5635 75.0215 86.34 76.4128 85.562 76.2458C84.7839 76.079 82.7835 75.9676 82.728 74.8544C82.6723 73.7413 83.7283 72.5726 82.339 71.6819C80.9498 70.7914 77.8936 71.4593 77.5046 70.9028C77.1155 70.3462 77.2268 67.5076 78.5049 66.5059C79.7828 65.504 82.3945 65.1144 83.1725 65.838C83.9504 66.5615 83.2836 68.0643 84.1171 68.1755C84.9507 68.2869 84.1728 65.2258 85.1729 64.5023C86.1732 63.7786 86.7845 63.9456 87.3956 63.3334C88.0069 62.7213 87.5624 61.8864 88.507 61.4966C89.4518 61.1071 93.3971 60.9957 93.6751 59.9384C93.9529 58.8809 91.2299 58.7695 91.3967 58.3242C91.5634 57.879 95.0642 59.0477 95.2308 57.7678C95.3977 56.4876 91.5079 54.317 90.1741 54.7622C88.8405 55.2075 87.9514 58.2128 86.8956 57.879C85.8398 57.545 83.9504 55.8197 84.9507 55.0961C85.951 54.3726 87.9514 55.3745 88.3404 54.4838C88.5222 54.0676 88.4544 54.1152 88.1307 53.6992C84.4319 54.4842 80.3626 56.7906 77.3664 59.5207C75.3038 61.4001 73.7417 63.3651 72.5334 65.4521C72.4422 67.6004 72.2635 70.2447 72.8367 70.0679C73.5591 69.8453 73.3925 64.6691 73.9481 65.504C74.5038 66.3389 73.837 69.4 74.5038 70.5688C75.1706 71.7377 75.7264 71.4037 75.7264 71.4037C75.7264 71.4037 76.9488 72.7394 77.7268 72.2386C77.5046 72.6838 78.9492 74.7988 80.3385 75.4667C81.7277 76.1346 83.8393 75.7449 84.7839 77.0251C85.7287 78.3052 85.3397 79.5297 85.3397 79.5297C85.3397 79.5297 83.7838 81.0881 84.0616 83.0361C84.0059 83.0917 82.9503 82.5353 83.228 84.3161C83.5058 86.0973 88.6182 88.7131 88.896 90.2715C89.1738 91.8299 88.6182 99.6777 88.896 101.069C89.0566 101.873 89.3389 102.907 89.6684 103.017C89.9979 103.127 90.5693 103.191 90.9865 103.237C91.2074 103.262 91.5356 103.334 91.6455 103.237C92.0274 102.9 91.6745 101.904 91.6745 101.904L95.7865 97.5071C95.7865 97.5071 98.0092 97.0061 99.7874 95.1693C101.566 93.3327 107.511 85.9302 106.622 83.6484C105.733 81.3664 102.51 81.5334 102.51 81.5334C102.51 81.5334 101.566 78.6949 99.3986 78.3608Z" fill="#9BC3D3"/>
<path fill-rule="evenodd" clip-rule="evenodd" d="M99.3839 78.1935C97.2179 77.8586 96.6069 78.4168 96.6069 78.4168L92.5526 74.8439C92.5526 74.8439 86.3324 76.2395 85.5548 76.072C84.7772 75.9047 82.7779 75.7929 82.7224 74.6764C82.6667 73.5599 83.7221 72.3876 82.3336 71.4942C80.9452 70.601 77.8906 71.2709 77.5018 70.7127C77.113 70.1543 77.2241 67.3072 78.5015 66.3024C79.7788 65.2974 82.389 64.9066 83.1667 65.6325C83.9441 66.3582 83.2776 67.8655 84.1107 67.9771C84.9438 68.0888 84.1664 65.0183 85.166 64.2926C86.1657 63.5668 86.7767 63.7343 87.3875 63.1202C87.9984 62.5062 87.5541 61.6688 88.4982 61.2778C89.4425 60.8871 93.3857 60.7754 93.6635 59.7148C93.9411 58.6541 91.2197 58.5423 91.3863 58.0957C91.553 57.6491 95.0519 58.8214 95.2183 57.5375C95.3666 56.3949 92.3062 54.5468 90.6905 54.4678C90.5025 54.4887 90.3152 54.5118 90.1284 54.5372C88.8156 55.0256 87.9334 57.981 86.8877 57.6491C86.2039 57.432 73.3919 64.46 73.9472 65.2974C74.5027 66.1349 73.8362 69.2053 74.5027 70.3777C75.1691 71.5501 75.7246 71.2151 75.7246 71.2151C75.7246 71.2151 76.9463 72.5549 77.7239 72.0525C77.5018 72.4991 78.9457 74.6206 80.3342 75.2905C81.7226 75.9604 83.8331 75.5696 84.7772 76.8537C85.7215 78.1377 85.3326 79.366 85.3326 79.366C85.3326 79.366 83.7776 80.9291 84.0552 82.8831C83.9996 82.9388 82.9445 82.3807 83.2221 84.1669C83.4998 85.9535 88.6094 88.5774 88.887 90.1406C89.1647 91.7037 88.6094 99.5755 88.887 100.971C89.0388 101.734 89.3647 102.287 89.7784 102.797C90.3427 102.883 90.9597 103.191 91.5359 103.237C91.9848 102.709 91.664 101.809 91.664 101.809L95.7738 97.3982C95.7738 97.3982 97.9953 96.8956 99.7725 95.0533C101.55 93.211 107.492 85.786 106.604 83.4972C105.715 81.2082 102.494 81.3757 102.494 81.3757C102.494 81.3757 101.55 78.5285 99.3839 78.1935Z" fill="#9BC3D3"/>
<path fill-rule="evenodd" clip-rule="evenodd" d="M75.2242 63.1835C75.0237 63.4815 74.8237 63.7641 74.6246 64.0317L74.4102 63.7048C74.6061 63.4418 74.8032 63.1635 75.0009 62.8696L75.2242 63.1835ZM73.7167 64.7487C73.4959 64.9844 73.2766 65.2038 73.0589 65.4078L72.8789 65.1012C73.0922 64.9017 73.3072 64.6864 73.5238 64.4551L73.7167 64.7487ZM71.7606 66.3712C71.5229 66.5907 71.2871 66.7881 71.0532 66.964L70.9023 66.5784C71.1297 66.4073 71.3595 66.2153 71.5914 66.001L71.7606 66.3712ZM69.798 67.4516C69.5304 67.6008 69.2661 67.7239 69.0056 67.822L68.9062 67.4207C69.157 67.3262 69.4121 67.2076 69.6709 67.063L69.798 67.4516ZM67.6659 68.148C67.5994 68.1601 67.5332 68.1708 67.4674 68.1801C67.2375 68.2124 67.0114 68.2275 66.7895 68.2263L66.7656 67.835C66.9771 67.8363 67.1928 67.8218 67.4127 67.7909C67.4757 67.7821 67.539 67.772 67.6026 67.7603L67.6659 68.148ZM65.2029 68.2193C64.9102 68.1682 64.6273 68.0904 64.3555 67.9887L64.4248 67.6631C64.6821 67.7592 64.9498 67.8331 65.2277 67.8814L65.2029 68.2193ZM63.1266 67.635C62.8392 67.4344 62.5661 67.205 62.3086 66.9517L62.466 66.6187C62.7097 66.8585 62.9682 67.0757 63.24 67.2654L63.1266 67.635ZM61.4285 66.1745C61.165 65.9151 60.9241 65.6372 60.707 65.3447L60.99 65.127C61.196 65.4045 61.4246 65.6683 61.6744 65.9142L61.4285 66.1745ZM59.9722 64.1117C59.784 63.7268 59.6247 63.3304 59.4961 62.9277L59.8499 62.7979C59.9716 63.1785 60.1226 63.5544 60.301 63.9192L59.9722 64.1117ZM59.6043 61.9249L59.2508 61.9806L59.2365 61.8838C59.1893 61.5479 59.171 61.2123 59.1835 60.8809L59.5412 60.8948C59.5295 61.2038 59.5464 61.5184 59.5908 61.834C59.595 61.8642 59.5995 61.8946 59.6043 61.9249ZM59.2539 59.624C59.3561 59.2659 59.502 58.92 59.6946 58.5938L60.0208 58.7668C59.8445 59.0658 59.7101 59.3833 59.6159 59.714L59.2539 59.624ZM60.4492 57.7669C60.6413 57.5111 60.8654 57.2804 61.122 57.0806L61.285 57.3997C61.0468 57.585 60.8408 57.7974 60.6646 58.0322L60.4492 57.7669ZM62.4375 56.672C62.6951 56.5694 62.974 56.4865 63.275 56.4258L63.3343 56.7395C63.0476 56.7974 62.7834 56.876 62.5413 56.9726L62.4375 56.672ZM64.6328 56.0889C64.9068 56.0735 65.1955 56.0737 65.4991 56.0907L65.4941 56.4116C65.1995 56.3949 64.9204 56.3948 64.6566 56.4098L64.6328 56.0889ZM66.841 56.3832C67.157 56.5054 67.4354 56.6868 67.6745 56.9185L67.4897 57.1794C67.2808 56.9771 67.0387 56.8189 66.7579 56.7101L66.841 56.3832ZM68.6165 57.6436C68.8049 57.9459 68.9471 58.2845 69.0478 58.6524L68.6601 58.7466C68.5663 58.4039 68.435 58.0939 68.2656 57.8221L68.6165 57.6436ZM69.2299 60.0796C69.2589 60.4259 69.2678 60.788 69.2575 61.1625L68.9355 61.1414C68.9453 60.7797 68.9369 60.4322 68.9092 60.1023L69.2299 60.0796ZM69.1578 62.1533C69.1192 62.5579 69.0659 62.9712 68.9986 63.3902L68.6523 63.2919C68.7184 62.8824 68.7703 62.4796 68.8078 62.0859L69.1578 62.1533ZM68.9002 64.4651C68.7852 64.8022 68.6571 65.1424 68.5165 65.4838L68.1406 65.374C68.2784 65.0389 68.4042 64.7051 68.5169 64.3745L68.9002 64.4651ZM67.8908 66.6045C67.7535 66.9352 67.6064 67.2651 67.4501 67.5931L67.1211 67.4412C67.2747 67.1187 67.4194 66.7942 67.5544 66.4692L67.8908 66.6045ZM66.9634 68.9451C66.8086 69.2689 66.6459 69.589 66.476 69.9035L66.1836 69.7105C66.3507 69.4012 66.5105 69.0865 66.6629 68.7681L66.9634 68.9451ZM65.7795 70.6828C65.6088 70.9988 65.4312 71.3071 65.2472 71.6066L64.9883 71.3667C65.1686 71.0731 65.3428 70.7705 65.5104 70.4605L65.7795 70.6828ZM64.197 72.6049C64.0093 72.9104 63.8154 73.2035 63.6157 73.4821L63.3906 73.1814C63.5854 72.9097 63.7749 72.6236 63.9584 72.3247L64.197 72.6049ZM62.8106 73.9101C62.5953 74.1483 62.3744 74.3699 62.148 74.5725L61.9727 74.2613C62.1913 74.0656 62.4053 73.851 62.6145 73.6196L62.8106 73.9101ZM60.6171 75.5787C60.3677 75.7466 60.1129 75.8908 59.8532 76.0088L59.7422 75.6674C59.9892 75.5552 60.2326 75.4174 60.4719 75.2564L60.6171 75.5787ZM58.6966 76.2416C58.5931 76.2655 58.4889 76.285 58.3841 76.2997C58.1986 76.3258 58.0111 76.3371 57.8221 76.3328L57.8008 75.938C57.9782 75.9421 58.1543 75.9314 58.3289 75.9069C58.4275 75.893 58.5257 75.8748 58.6234 75.8521L58.6966 76.2416ZM56.3909 76.2466C56.1083 76.1568 55.8227 76.0272 55.5352 75.8556L55.6151 75.4683C55.8863 75.6305 56.1546 75.7519 56.4198 75.8362L56.3909 76.2466ZM54.3351 75.6556C54.0689 75.4511 53.802 75.2152 53.5352 74.9461L53.7098 74.6343C53.9658 74.8925 54.2207 75.1178 54.474 75.3123L54.3351 75.6556ZM52.5415 73.9944C52.2599 73.7191 52.0315 73.4238 51.8477 73.1112L52.187 72.9351C52.3562 73.2226 52.5649 73.4926 52.8242 73.7461L52.5415 73.9944ZM51.4093 72.0106C51.3141 71.6874 51.2461 71.3512 51.1972 71.0032L51.1875 70.9326L51.5575 70.8833L51.5669 70.9513C51.6139 71.2858 51.6788 71.6051 51.7682 71.9086L51.4093 72.0106ZM51.173 69.9111C51.1535 69.564 51.1419 69.2069 51.1328 68.84L51.4659 68.8379C51.4749 69.203 51.4862 69.5562 51.5054 69.8968L51.173 69.9111ZM51.3222 67.4477C51.3135 67.1024 51.3024 66.7493 51.2852 66.3884L51.6155 66.3779C51.6329 66.743 51.6441 67.099 51.6529 67.4459L51.3222 67.4477ZM50.6693 65.3632C50.6421 65.012 50.6052 64.6546 50.5547 64.2912L50.9544 64.2354C51.006 64.6064 51.0437 64.9707 51.0711 65.3278L50.6693 65.3632ZM50.6351 62.8021C50.5666 62.4651 50.4858 62.1232 50.3906 61.7762L50.7181 61.6812C50.8159 62.0367 50.8985 62.3871 50.9686 62.7318L50.6351 62.8021Z" fill="#34466B"/>
<path fill-rule="evenodd" clip-rule="evenodd" d="M44.3851 56.1931L59.3307 54.6353L40.1576 53.7547L44.3851 56.1931Z" fill="#2A8FEC"/>
<path fill-rule="evenodd" clip-rule="evenodd" d="M43.533 63.7184L59.275 54.6294L43.6405 61.6601L43.533 63.7184Z" fill="#1B4872"/>
<path fill-rule="evenodd" clip-rule="evenodd" d="M40.2084 53.7544L43.6535 56.7911L43.5834 58.1332L44.4027 56.8305L59.3815 54.6368L44.4376 56.1622L40.2084 53.7544Z" fill="#1B4872"/>
<path fill-rule="evenodd" clip-rule="evenodd" d="M59.3422 54.6261L40.2062 63.3562L44.2875 56.8427L59.3422 54.6261Z" fill="#2A8FEC"/>
<path fill-rule="evenodd" clip-rule="evenodd" d="M145.721 39.356C145.721 38.5622 144.726 37.9189 143.498 37.9189H15.77C14.542 37.9189 13.5469 38.5622 13.5469 39.356V43.3933H145.721V39.356Z" fill="#CCCCCC"/>
<path fill-rule="evenodd" clip-rule="evenodd" d="M134.557 40.697C134.557 41.2576 134.103 41.7122 133.542 41.7122C132.982 41.7122 132.527 41.2576 132.527 40.697C132.527 40.1369 132.982 39.6826 133.542 39.6826C134.103 39.6826 134.557 40.1369 134.557 40.697Z" fill="#34466B"/>
<path fill-rule="evenodd" clip-rule="evenodd" d="M138.694 40.697C138.694 41.2576 138.24 41.7122 137.679 41.7122C137.118 41.7122 136.664 41.2576 136.664 40.697C136.664 40.1369 137.118 39.6826 137.679 39.6826C138.24 39.6826 138.694 40.1369 138.694 40.697Z" fill="#34466B"/>
<path fill-rule="evenodd" clip-rule="evenodd" d="M141.815 41.7122C141.255 41.7122 140.801 41.2576 140.801 40.697C140.801 40.1369 141.255 39.6826 141.815 39.6826C142.376 39.6826 142.83 40.1369 142.83 40.697C142.83 41.2576 142.376 41.7122 141.815 41.7122Z" fill="#34466B"/>
</svg>
