<svg width="160" height="160" viewBox="0 0 160 160" fill="none" xmlns="http://www.w3.org/2000/svg">
<path fill-rule="evenodd" clip-rule="evenodd" d="M55.951 121.9C30.7181 116.213 8.32201 108.435 6.93193 98.8115C4.75046 83.6917 27.3058 88.2058 36.157 72.3607C45.0081 56.5156 35.0802 45.4349 41.8045 35.9877C48.5287 26.5405 60.6703 30.0227 70.3834 37.1116C80.0965 44.2005 76.5181 49.19 90.6558 56.0075C104.793 62.825 111.237 53.7365 122.717 62.5392C134.196 71.342 129.631 81.9481 127.071 92.2149C124.511 102.482 124.09 104.451 120.193 110.159C113.277 120.287 81.1839 127.587 55.951 121.9Z" fill="#EAF7FE"/>
<path fill-rule="evenodd" clip-rule="evenodd" d="M108.301 26.731C108.301 26.731 114.818 45.6042 119.182 46.8485C119.182 46.8485 119.329 39.5852 115.586 33.3829C111.842 27.1806 108.301 26.731 108.301 26.731Z" fill="#34466B"/>
<path fill-rule="evenodd" clip-rule="evenodd" d="M112.983 26.2422L115.74 29.8741L117.144 31.7234L123.893 40.6127L115.507 45.0477L115.235 45.1925L114.217 45.7312L107.873 52.1265C106.265 53.7467 104.35 55.0318 102.242 55.905L98.6646 57.3862C97.377 60.1361 95.6455 62.6598 93.5361 64.8547L90.4686 68.0466L84.03 64.6697L86.8149 58.6488L84.5295 60.8752L74.9219 54.6562L81.0757 43.4048C82.4078 40.9706 84.5789 39.1025 87.1856 38.1496L103.426 32.213C103.956 32.0195 104.463 31.7659 104.938 31.4592L108.93 28.8699L109.21 28.6883L109.338 28.6059L109.997 28.1781L112.983 26.2422Z" fill="#F4A48D"/>
<path fill-rule="evenodd" clip-rule="evenodd" d="M146.312 2L108.301 26.7307C108.301 26.7307 116.548 38.2237 119.182 46.8483L159.998 28.3222L146.312 2Z" fill="#EC0000"/>
<path fill-rule="evenodd" clip-rule="evenodd" d="M102.384 69.518L66.6697 88.4947L61.0039 76.2585L67.3442 72.6282L72.6947 69.5649L95.3245 57.0225L100.277 65.7887L102.384 69.518Z" fill="#9E3667"/>
<path fill-rule="evenodd" clip-rule="evenodd" d="M95.3239 57.0225L100.276 65.7886L98.3088 70.4151C94.1304 71.9283 89.9599 72.8062 85.9929 73.2539C85.7713 75.2527 84.5882 77.1081 82.67 78.1057C79.6131 79.6952 75.8465 78.5057 74.257 75.449C73.9174 74.7958 73.7046 74.1101 73.6099 73.4202C71.2803 73.2326 69.1677 72.9436 67.3438 72.6282L72.6942 69.5649L75.585 67.9627C75.9769 67.6054 76.4211 67.2926 76.9138 67.0364C77.3034 66.8339 77.7044 66.6765 78.111 66.5623L95.3239 57.0225Z" fill="#723846"/>
<path fill-rule="evenodd" clip-rule="evenodd" d="M101.403 56.753L95.6517 70.2777C76.508 77.2118 57.5312 70.8054 57.5312 70.8054L62.0615 51.3433L87.1862 54.7981L96.145 56.0299L101.403 56.753Z" fill="#9BC3D3"/>
<path fill-rule="evenodd" clip-rule="evenodd" d="M100.926 55.8384L95.175 69.3631C76.0319 76.2972 57.0547 69.8908 57.0547 69.8908L61.5849 50.4287L86.7095 53.8835L95.6683 55.1153L100.926 55.8384Z" fill="#CEDEE7"/>
<path fill-rule="evenodd" clip-rule="evenodd" d="M84.0604 60.0748C85.7731 63.3684 84.4917 67.4269 81.1978 69.1395C77.9047 70.8522 73.8458 69.5705 72.1332 66.2768C70.4206 62.9832 71.7023 58.9247 74.996 57.2121C78.29 55.4994 82.3485 56.7811 84.0604 60.0748ZM69.3496 56.247C70.0438 57.5821 69.5243 59.2273 68.1893 59.9215C66.8541 60.6157 65.2091 60.0962 64.5149 58.7611C63.8207 57.4259 64.3402 55.7809 65.6752 55.0867C67.0103 54.3924 68.6554 54.912 69.3496 56.247Z" fill="#9BC3D3"/>
<path fill-rule="evenodd" clip-rule="evenodd" d="M81.1348 60.8198L83.825 55.841C84.099 55.3328 84.4718 54.8841 84.9209 54.5206L88.4249 51.6825C89.0636 51.1651 89.8855 50.9305 90.7011 51.0328C95.627 51.6505 100.562 49.9651 104.081 46.464L108.267 42.2989L103.27 35.394L90.5699 39.9683C87.5411 41.0593 85.0206 43.2289 83.4909 46.0619L83.0121 46.9473L80.568 49.4207C80.0075 49.9876 79.571 50.6646 79.2862 51.409L76.4307 58.869C75.978 60.5132 77.2032 62.1406 78.9081 62.1614C78.9494 62.1617 78.9916 62.1614 79.0329 62.1598C79.9195 62.128 80.7135 61.6001 81.1348 60.8198Z" fill="#F4A48D"/>
<path fill-rule="evenodd" clip-rule="evenodd" d="M23.6811 61.6074C22.0746 60.941 20.9297 59.2235 20.9297 57.212C20.9297 54.6228 22.8268 52.5205 25.1636 52.5205C27.0127 52.5205 28.5865 53.8369 29.1629 55.6692L29.17 55.671L30.276 59.327L30.1744 59.3708L30.1212 59.3936L29.4675 59.5349L29.4646 61.4551L29.4327 61.5715C29.381 61.7328 29.3095 61.8893 29.2182 62.0363C29.1117 62.2083 28.9798 62.3654 28.8303 62.5009C28.7523 62.572 28.6687 62.6364 28.5805 62.6944C28.5338 62.7257 28.4871 62.7543 28.4391 62.7813C28.4016 62.8029 28.3639 62.8229 28.3252 62.8414L28.2072 62.8993L28.583 67.1333C28.583 67.1333 26.6529 67.5927 25.7593 67.4081L25.64 67.3815L25.6375 67.381C24.7847 67.1971 23.9377 66.9078 23.2218 66.0253C23.2218 66.0253 23.2238 66.0155 23.2275 65.9965L23.2218 65.9898C23.2218 65.9898 23.2888 65.6691 23.3725 65.1454C23.5002 64.31 23.6652 62.981 23.6811 61.6074Z" fill="#F4A48D"/>
<path fill-rule="evenodd" clip-rule="evenodd" d="M28.2718 63.8568C27.728 63.6926 26.5805 63.0466 25.7188 61.9959L28.1783 62.8752C28.1783 62.8752 28.2253 63.3769 28.2718 63.8568ZM29.5791 59.4939C29.3572 59.5681 29.1298 59.4 29.1358 59.1664L29.1744 57.6602L29.5791 59.4939Z" fill="#A66555"/>
<path fill-rule="evenodd" clip-rule="evenodd" d="M23.6873 61.7594L23.0305 61.3953C22.2442 60.939 21.5782 60.2586 21.142 59.3907C19.9472 57.0133 20.9267 54.1276 23.3295 52.9452C25.4927 51.8807 28.0743 52.5605 29.4374 54.4443L28.8972 54.878C28.7746 54.8426 28.5716 54.786 28.323 54.7223C27.4297 54.4891 25.9483 54.1594 25.4845 54.3835C24.8055 54.7118 24.8371 55.9483 24.9402 56.9293C25.041 57.8887 25.1321 58.3054 24.693 58.4938C24.532 58.5629 24.4326 57.7525 24.0633 57.509C23.6733 57.2517 23.1752 57.5136 23.2481 58.3947C23.3688 58.795 23.4617 59.1896 23.5314 59.575C23.6481 60.2642 23.6908 61.0159 23.6873 61.7594Z" fill="#767676"/>
<path fill-rule="evenodd" clip-rule="evenodd" d="M30.1585 65.8833C30.1585 65.8833 38.1174 65.7619 39.9029 65.3838C39.9029 65.3838 41.3627 67.3136 40.7675 68.4049C40.1724 69.4955 30.9835 71.7897 30.9835 71.7897L30.1585 65.8833Z" fill="#CEDEE7"/>
<path fill-rule="evenodd" clip-rule="evenodd" d="M40.1995 64.5776C40.1995 64.5776 38.7934 65.1217 38.6399 65.6861C38.4864 66.2502 38.7934 68.7567 39.9073 69.0976C41.0206 69.4385 43.05 67.8888 42.546 66.3848C42.0413 64.8806 40.1995 64.5776 40.1995 64.5776Z" fill="#9BC3D3"/>
<path d="M28.418 67.1309C28.418 67.1309 28.115 68.8713 27.9267 69.1933C27.9267 69.1933 27.3061 69.3932 27.0721 69.3527L25.9408 67.2262L26.9756 66.7612L27.4046 66.8115L28.418 67.1309Z" fill="black"/>
<path fill-rule="evenodd" clip-rule="evenodd" d="M38.3454 53.279C38.3407 52.7747 38.7187 52.9622 38.8213 52.9478C38.9238 52.9335 40.7649 53.1497 41.1972 54.6615C41.5371 55.8507 41.0223 56.5405 40.7864 56.7814C41.0404 57.6553 42.651 63.2658 42.7428 65.2421C42.844 67.3881 40.584 68.0594 40.584 68.0594C38.708 65.201 39.5565 57.5873 39.6517 56.7873C39.4634 56.5652 39.1001 55.9403 39.7428 54.8921C39.7428 54.8921 38.3515 53.8921 38.3454 53.279Z" fill="#F4A48D"/>
<path d="M40.5078 53.6159C39.8121 53.0399 38.8939 52.9376 38.8229 52.9478C38.7203 52.9622 38.3423 52.7747 38.347 53.279C38.353 53.8921 39.7444 54.8921 39.7444 54.8921L40.5078 53.6159Z" fill="#F4A48D"/>
<path d="M25.7294 77.8361C26.4023 77.8361 26.9492 77.1304 26.9492 76.2638C26.9492 75.3972 26.4023 74.6914 25.7294 74.6914C25.0565 74.6914 24.5096 75.3972 24.5096 76.2638C24.5096 77.1304 25.0565 77.8361 25.7294 77.8361Z" fill="#137E84"/>
<path fill-rule="evenodd" clip-rule="evenodd" d="M27.0352 76.2633C27.0352 75.3484 26.4494 74.6045 25.7289 74.6045C25.0084 74.6045 24.4226 75.3484 24.4226 76.2633C24.4226 77.1782 25.0084 77.9221 25.7289 77.9221C26.4494 77.9221 27.0352 77.1782 27.0352 76.2633ZM24.5957 76.2632C24.5957 75.4429 25.1038 74.7774 25.7291 74.7774C26.3551 74.7774 26.8624 75.4429 26.8624 76.2632C26.8624 77.0836 26.3551 77.7491 25.7291 77.7491C25.1038 77.7491 24.5957 77.0836 24.5957 76.2632Z" fill="#1BB3BC"/>
<path d="M25.7311 77.2588C26.1574 77.2588 26.5039 76.8125 26.5039 76.2635C26.5039 75.714 26.1574 75.2676 25.7311 75.2676C25.3049 75.2676 24.9584 75.714 24.9584 76.2635C24.9584 76.8125 25.3049 77.2588 25.7311 77.2588Z" fill="#137E84"/>
<path fill-rule="evenodd" clip-rule="evenodd" d="M26.5586 76.2633C26.5586 75.6842 26.1873 75.2124 25.7309 75.2124C25.2744 75.2124 24.9031 75.6842 24.9031 76.2633C24.9031 76.8424 25.2744 77.3136 25.7309 77.3136C26.1873 77.3136 26.5586 76.8424 26.5586 76.2633ZM25.0127 76.2633C25.0127 75.7432 25.3344 75.3223 25.7306 75.3223C26.1267 75.3223 26.4484 75.7432 26.4484 76.2633C26.4484 76.7828 26.1267 77.2043 25.7306 77.2043C25.3344 77.2043 25.0127 76.7828 25.0127 76.2633Z" fill="#1BB3BC"/>
<path d="M26.8628 87.2939C26.911 87.2939 26.9492 87.255 26.9492 87.2075V79.416C26.9492 79.3685 26.911 79.3296 26.8628 79.3296H24.596C24.5478 79.3296 24.5096 79.3685 24.5096 79.416V87.2075C24.5096 87.255 24.5478 87.2939 24.596 87.2939H26.8628Z" fill="#137E84"/>
<path fill-rule="evenodd" clip-rule="evenodd" d="M26.8622 79.2437H24.5955C24.4997 79.2437 24.4226 79.3207 24.4226 79.4166V87.208C24.4226 87.3032 24.4997 87.3809 24.5955 87.3809H26.8622C26.9581 87.3809 27.0352 87.3032 27.0352 87.208V79.4166C27.0352 79.3207 26.9581 79.2437 26.8622 79.2437ZM24.5957 87.2079H26.8624V79.4165H24.5957V87.2079Z" fill="#1BB3BC"/>
<path d="M25.0136 80.9181C25.0136 81.4381 25.3353 81.8591 25.7314 81.8591C26.1275 81.8591 26.4492 81.4381 26.4492 80.9181C26.4492 80.3986 26.1275 79.9771 25.7314 79.9771C25.3353 79.9771 25.0136 80.3986 25.0136 80.9181Z" fill="#137E84"/>
<path fill-rule="evenodd" clip-rule="evenodd" d="M25.0136 80.9181C25.0136 81.4381 25.3353 81.8591 25.7314 81.8591C26.1275 81.8591 26.4492 81.4381 26.4492 80.9181C26.4492 80.3986 26.1275 79.9771 25.7314 79.9771C25.3353 79.9771 25.0136 80.3986 25.0136 80.9181Z" stroke="#1BB3BC" stroke-width="0.594893" stroke-linejoin="round"/>
<path d="M25.3203 80.9184C25.3203 81.2153 25.5039 81.4559 25.7304 81.4559C25.9577 81.4559 26.1406 81.2153 26.1406 80.9184C26.1406 80.6215 25.9577 80.3809 25.7304 80.3809C25.5039 80.3809 25.3203 80.6215 25.3203 80.9184Z" fill="#137E84"/>
<path fill-rule="evenodd" clip-rule="evenodd" d="M25.3203 80.9184C25.3203 81.2153 25.5039 81.4559 25.7304 81.4559C25.9577 81.4559 26.1406 81.2153 26.1406 80.9184C26.1406 80.6215 25.9577 80.3809 25.7304 80.3809C25.5039 80.3809 25.3203 80.6215 25.3203 80.9184Z" stroke="#1BB3BC" stroke-width="0.5" stroke-linejoin="round"/>
<path d="M26.448 86.6006C26.4963 86.6006 26.5352 86.5618 26.5352 86.5142V82.899C26.5352 82.8514 26.4963 82.8125 26.448 82.8125H25.0124C24.9641 82.8125 24.9259 82.8514 24.9259 82.899V86.5142C24.9259 86.5618 24.9641 86.6006 25.0124 86.6006H26.448Z" fill="#137E84"/>
<path fill-rule="evenodd" clip-rule="evenodd" d="M26.4475 82.7256H25.0119C24.916 82.7256 24.8383 82.8033 24.8383 82.8985V86.5137C24.8383 86.6096 24.916 86.6866 25.0119 86.6866H26.4475C26.5433 86.6866 26.6211 86.6096 26.6211 86.5137V82.8985C26.6211 82.8033 26.5433 82.7256 26.4475 82.7256ZM25.0116 86.5137H26.4472V82.8984H25.0116V86.5137Z" fill="#1BB3BC"/>
<path fill-rule="evenodd" clip-rule="evenodd" d="M23.7794 84.9215L23.4791 83L31.8677 83.2118L33.5664 105.599L33.4803 126.916C33.4803 126.916 32.6733 127.972 30.3221 126.724L26.2022 100.402C25.5842 104.376 24.8636 107.992 24.0403 111.251C23.2171 114.51 21.6914 119.786 19.4631 127.079C17.435 127.645 16.0007 126.675 16.0007 126.675L20.6058 85.3237L23.7794 84.9215Z" fill="#34466B"/>
<path fill-rule="evenodd" clip-rule="evenodd" d="M28.465 65.3853C28.0588 66.0808 27.7157 66.7451 27.4067 66.8116C27.1443 66.8689 23.2574 65.4159 23.2574 65.4159C23.2574 65.4159 18.4712 67.287 17.8405 67.6313L18.3512 71.1471L20.4484 86.5423C27.1332 88.6716 32.0373 86.1268 32.0373 86.1268C32.0373 86.1268 33.8402 70.2951 32.2404 67.6057C31.3208 66.0592 30.6251 65.9791 29.666 65.6883L28.465 65.3853Z" fill="#CEDEE7"/>
<path fill-rule="evenodd" clip-rule="evenodd" d="M27.6787 66.7705L26.7021 66.8202C26.7021 66.8202 26.2813 73.6287 28.0319 80.0079C28.5466 81.8812 28.9615 83.0394 28.9615 83.0394C28.9615 83.0394 30.1203 81.9918 29.9126 79.4269" fill="#EC0000"/>
<path fill-rule="evenodd" clip-rule="evenodd" d="M19.5525 85.5805C19.5525 85.5798 20.7703 85.2192 21.0069 85.1469C21.2428 85.0738 22.0135 85.1636 22.5873 85.3466C23.3868 85.6006 23.4947 85.8446 23.4961 86.0912C23.4974 86.4732 22.4861 86.5262 21.6858 86.7923C21.2394 86.9411 20.8574 87.1622 20.3775 87.1622C19.3762 87.1622 19.2944 86.494 19.2944 86.494C16.9734 86.3023 10.7517 85.047 10.5365 84.5798C10.2383 83.9317 10.6666 82.0189 10.6666 82.0189C11.2845 81.6617 17.9318 84.8044 19.5525 85.5805Z" fill="#F4A48D"/>
<path fill-rule="evenodd" clip-rule="evenodd" d="M29.6055 67.963L29.0485 65.533L28.4913 65.2705L27.4044 66.8116L29.6055 67.963Z" fill="#9BC3D3"/>
<path fill-rule="evenodd" clip-rule="evenodd" d="M23.8181 68.4406L23.2579 65.4155C23.2579 65.4155 25.1137 66.0419 27.0781 66.7537L23.8181 68.4406Z" fill="#9BC3D3"/>
<path d="M10.4977 83.1683C10.5735 82.1442 10.922 80.6577 11.7886 78.5786L14.2383 80.1537C14.2383 80.1537 13.6384 81.7823 12.861 83.1683H10.4977Z" fill="#F4A48D"/>
<path fill-rule="evenodd" clip-rule="evenodd" d="M19.7773 73.8168L14.0931 81.4212C14.0931 81.4212 11.8311 81.1799 10.986 80.4119C10.1408 79.6438 17.0542 67.3596 17.8404 67.6314" fill="#CEDEE7"/>
<path fill-rule="evenodd" clip-rule="evenodd" d="M14.2315 81.2358C14.2315 81.2358 11.6934 80.3076 11.0017 79.6447C11.0017 79.6447 10.5694 79.5556 10.4923 79.7473C10.4159 79.9396 10.176 81.1514 10.2524 81.4208C10.3294 81.6896 12.5184 82.6882 13.3059 82.6299C13.3059 82.6299 14.3307 81.7425 14.2315 81.2358Z" fill="#9BC3D3"/>
<path fill-rule="evenodd" clip-rule="evenodd" d="M33.4496 126.213H30.3644L30.2365 129.109L33.9419 129.413L35.4727 129.258L34.9686 127.915L34.4208 127.579L33.4496 126.213Z" fill="black"/>
<path fill-rule="evenodd" clip-rule="evenodd" d="M19.4131 126.504L20.9258 128.313L20.6559 129.704L15.3987 128.901L15.9805 126.068L19.4131 126.504Z" fill="black"/>
</svg>
