<svg width="160" height="160" viewBox="0 0 160 160" fill="none" xmlns="http://www.w3.org/2000/svg">
<path fill-rule="evenodd" clip-rule="evenodd" d="M61.419 120.019C33.7714 113.793 9.66309 102.548 8.11489 91.8122C5.6853 74.9437 30.8444 79.9744 40.7219 62.2939C50.5993 44.6134 39.5276 32.2531 47.0308 21.7112C54.534 11.1694 68.0769 15.0513 78.91 22.9579C89.7431 30.8645 85.7502 36.4322 101.519 44.0349C117.288 51.6376 124.478 41.496 137.281 51.3143C150.084 61.1325 144.988 72.9669 142.13 84.4222C139.272 95.8774 138.803 98.0747 134.454 104.444C126.737 115.746 109.303 114.6 109.303 114.6C95.8121 122.364 79.8508 124.17 61.419 120.019Z" fill="#DEEDF2"/>
<path fill-rule="evenodd" clip-rule="evenodd" d="M79.1342 134.098C42.3374 134.098 12.5078 131.53 12.5078 128.363C12.5078 125.195 42.3374 122.628 79.1342 122.628C115.931 122.628 145.761 125.195 145.761 128.363C145.761 131.53 115.931 134.098 79.1342 134.098Z" fill="#DEEDF2"/>
<path fill-rule="evenodd" clip-rule="evenodd" d="M133.127 95.6322C133.127 76.442 117.57 60.8853 98.3795 60.8853C79.1896 60.8853 63.6328 76.442 63.6328 95.6322C63.6328 114.822 79.1896 130.379 98.3795 130.379C117.57 130.379 133.127 114.822 133.127 95.6322Z" fill="#34466B"/>
<path fill-rule="evenodd" clip-rule="evenodd" d="M126.549 74.8853C125.274 75.4222 123.535 76.7202 123.672 78.2939C123.899 80.9159 125.568 80.3762 125.264 81.8414C124.961 83.3068 123.141 83.3068 122.686 84.8493C122.231 86.3917 121.245 89.7854 122.61 91.4049C123.975 93.0247 125.795 91.6363 126.629 92.8703C127.464 94.1043 127.767 95.6467 129.284 95.4153C129.989 95.3078 131.813 95.1091 133.296 94.2828C132.766 87.414 130.294 80.1645 126.549 74.8853ZM90.9183 85.0325C90.0539 85.3188 89.8795 86.2239 90.9183 86.5416C91.9572 86.8591 93.3158 86.5416 93.2359 85.9856C93.156 85.4295 91.6375 84.7941 90.9183 85.0325ZM83.1181 83.6254C83.0427 84.4404 88.8523 86.3146 88.8523 85.4182C88.8523 84.5218 85.5325 83.1366 84.8535 83.0552C83.6444 82.91 83.1935 82.8107 83.1181 83.6254ZM101.996 69.8373C102.15 69.3152 100.994 68.7183 100.686 68.569C99.5753 68.031 99.3765 69.4645 99.993 70.136C100.609 70.8074 101.842 70.3599 101.996 69.8373ZM108.486 104.548C108.486 104.548 108.076 96.1635 105.091 95.704C102.106 95.2449 101.264 96.0102 101.264 96.0102L95.6766 91.1111C95.6766 91.1111 87.1044 93.0247 86.0327 92.795C84.9611 92.5656 82.2057 92.4124 82.1292 90.8814C82.0525 89.3504 83.507 87.7429 81.5934 86.5179C79.68 85.2931 75.4704 86.2117 74.9346 85.4463C74.3988 84.6807 74.552 80.7766 76.3124 79.3988C78.0726 78.0208 81.6699 77.4849 82.7415 78.4802C83.813 79.4753 82.8945 81.5422 84.0426 81.6952C85.1907 81.8484 84.1193 77.6381 85.4969 76.643C86.8747 75.6477 87.7167 75.8774 88.5584 75.0353C89.4004 74.1934 88.7881 73.0451 90.0891 72.509C91.3905 71.9733 96.8247 71.8201 97.2076 70.3659C97.5902 68.9113 93.8397 68.7581 94.0693 68.1457C94.299 67.5333 99.1209 69.1408 99.3504 67.3804C99.5803 65.6197 94.2225 62.6342 92.3854 63.2466C90.5485 63.859 89.3239 67.9925 87.8696 67.5333C86.4153 67.0739 83.813 64.7011 85.1907 63.7057C86.5685 62.7107 89.3239 64.0887 89.8597 62.8636C90.1101 62.2912 90.2216 62.4697 89.7756 61.8975C85.4688 62.8101 80.8894 64.9852 77.125 67.9697C73.3711 70.946 70.4298 74.8971 67.848 78.2589C67.7223 81.2137 67.7156 84.5411 68.5052 84.298C69.5001 83.9918 69.2707 76.8725 70.036 78.0208C70.8015 79.1691 69.883 83.3794 70.8015 84.9869C71.7199 86.5946 72.4854 86.1352 72.4854 86.1352C72.4854 86.1352 74.1691 87.9724 75.2408 87.2835C74.9346 87.8959 76.9245 90.8049 78.8381 91.7235C80.7515 92.6421 83.66 92.1062 84.9611 93.8669C86.2624 95.6276 85.7266 97.3118 85.7266 97.3118C85.7266 97.3118 83.5835 99.4552 83.9661 102.134C83.8894 102.211 82.4354 101.446 82.818 103.895C83.2007 106.345 90.2423 109.943 90.625 112.086C91.0076 114.229 90.2423 125.023 90.625 126.937C91.0076 128.851 92.0792 130.918 93.5335 130.458C94.9878 129.999 94.452 128.085 94.452 128.085L100.116 122.038C100.116 122.038 103.177 121.349 105.627 118.822C108.076 116.296 116.266 106.115 115.041 102.977C113.816 99.8378 109.377 100.068 109.377 100.068L108.486 104.548Z" fill="#CEDEE7"/>
<path fill-rule="evenodd" clip-rule="evenodd" d="M105.174 95.5686C102.189 95.1077 101.347 95.876 101.347 95.876L95.7598 90.9578C95.7598 90.9578 87.1876 92.8789 86.1159 92.6483C85.0443 92.418 82.2889 92.2641 82.2125 90.7272C82.1357 89.1903 83.5903 87.5765 81.6766 86.3467C79.7632 85.1172 75.5536 86.0393 75.0178 85.271C74.482 84.5024 74.6351 80.5831 76.3956 79.2C78.1558 77.8166 81.7531 77.2787 82.8248 78.2779C83.8962 79.2768 82.9777 81.3517 84.1258 81.5053C85.274 81.6591 84.2026 77.4325 85.5801 76.4335C86.9579 75.4343 87.7999 75.6649 88.6416 74.8196C89.4836 73.9744 88.8713 72.8217 90.1724 72.2834C91.4737 71.7457 96.908 71.5919 97.2908 70.1319C97.6735 68.6718 93.9229 68.518 94.1526 67.9032C94.3823 67.2884 99.2042 68.9021 99.4337 67.1348C99.638 65.562 95.4203 63.018 93.1937 62.9092C92.9346 62.938 92.6764 62.9698 92.419 63.0048C90.6098 63.677 89.394 67.7452 87.9529 67.2884C87.0105 66.9896 85.5666 66.1153 85.0556 65.1019C84.7067 65.2345 84.3607 65.3722 84.0175 65.5149C77.2925 68.3121 71.6928 73.0524 68.0199 79.2942C68.0121 81.8865 68.128 84.2605 68.5884 84.1182C69.5833 83.8108 69.3539 76.6639 70.1191 77.8166C70.8846 78.9694 69.9662 83.1961 70.8846 84.8098C71.8031 86.4238 72.5686 85.9626 72.5686 85.9626C72.5686 85.9626 74.2523 87.8069 75.3239 87.1153C75.0178 87.7301 77.0076 90.6504 78.9213 91.5726C80.8347 92.4947 83.7432 91.9567 85.0443 93.7243C86.3456 95.4918 85.8098 97.1826 85.8098 97.1826C85.8098 97.1826 83.6667 99.3343 84.0494 102.024C83.9726 102.101 82.5186 101.332 82.9012 103.791C83.2839 106.251 90.3256 109.863 90.7082 112.014C91.0908 114.166 90.3256 125.002 90.7082 126.923C90.9174 127.973 91.3325 129.067 91.9026 129.77C92.6803 129.888 93.4665 129.978 94.2605 130.042C94.8791 129.315 94.5352 128.076 94.5352 128.076L100.199 122.005C100.199 122.005 103.261 121.313 105.71 118.777C108.159 116.241 116.349 106.02 115.124 102.869C113.9 99.7185 109.46 99.9491 109.46 99.9491C109.46 99.9491 108.159 96.0298 105.174 95.5686Z" fill="#DEEDF2"/>
<path fill-rule="evenodd" clip-rule="evenodd" d="M74.4887 74.641C73.8271 74.9734 73.1788 75.2804 72.5439 75.563L72.3414 74.8343C72.9658 74.5566 73.6045 74.2545 74.2567 73.9265L74.4887 74.641ZM70.0682 76.3019C69.4081 76.5277 68.7641 76.7264 68.1359 76.8992L67.9975 76.2091C68.6127 76.0402 69.2441 75.8452 69.8919 75.6235L70.0682 76.3019ZM65.3055 77.786C64.6223 77.9692 63.9608 78.1151 63.3206 78.225L63.3078 77.4211C63.9302 77.314 64.5745 77.1724 65.2412 76.9934L65.3055 77.786ZM60.8603 78.1903C60.166 78.2384 59.5004 78.2404 58.8637 78.199L58.9872 77.3603C59.6001 77.4001 60.2423 77.3985 60.9141 77.3514L60.8603 78.1903ZM56.0446 77.6823C55.8927 77.6482 55.7429 77.6113 55.5949 77.5717C55.0784 77.4333 54.5853 77.2618 54.116 77.0597L54.4175 76.2084C54.8648 76.4014 55.3352 76.5649 55.8292 76.6973C55.9707 76.7352 56.114 76.7708 56.2595 76.8032L56.0446 77.6823ZM51.4556 75.6187C50.8748 75.2696 50.3373 74.8788 49.8433 74.4528L50.2627 73.9021C50.7304 74.3051 51.239 74.6754 51.7905 75.0065L51.4556 75.6187ZM48.1267 72.8536C47.6695 72.2758 47.2652 71.6617 46.913 71.0204L47.5098 70.5929C47.8431 71.2 48.2256 71.7814 48.6582 72.3278L48.1267 72.8536ZM45.617 68.7205C45.34 68.0863 45.1168 67.4374 44.9462 66.7815L45.606 66.6221C45.7678 67.2445 45.9798 67.8603 46.2423 68.4616L45.617 68.7205ZM44.6822 63.8943C44.6354 63.0183 44.6522 62.1437 44.732 61.2819L45.5028 61.3202C45.4276 62.135 45.4114 62.9643 45.4558 63.7946L44.6822 63.8943ZM44.8316 59.0648C44.846 59.0063 44.8612 58.948 44.8767 58.8902C45.0384 58.2864 45.2618 57.7074 45.5477 57.1612L46.3011 57.4843C46.0345 57.9936 45.8247 58.5362 45.6727 59.1035C45.6582 59.1578 45.6439 59.2126 45.6305 59.2676L44.8316 59.0648ZM46.9323 55.0178C47.3746 54.4871 47.8856 54.0092 48.4646 53.5991L48.9155 54.1334C48.3852 54.5094 47.9155 54.9477 47.5072 55.4381L46.9323 55.0178ZM50.7727 52.324C51.3877 52.0386 52.0507 51.8243 52.7587 51.6916L52.8507 52.3893C52.1939 52.5121 51.584 52.7097 51.0197 52.9719L50.7727 52.324ZM55.2887 51.8463C55.9272 51.8605 56.5933 51.9358 57.286 52.078L57.1296 52.7966C56.4694 52.6613 55.8386 52.5901 55.2383 52.577L55.2887 51.8463ZM59.7945 52.5879C60.3894 52.8019 61.0012 53.0621 61.6296 53.3714L61.3302 54.0472C60.7206 53.7469 60.1289 53.4954 59.556 53.2897L59.7945 52.5879ZM63.8285 54.6871C64.4051 55.1695 64.8538 55.7238 65.1784 56.3328L64.5748 56.6334C64.291 56.1016 63.9012 55.6188 63.3892 55.1898L63.8285 54.6871ZM66.3385 58.9497C66.469 59.6058 66.485 60.2875 66.4005 60.9867L65.5965 60.8464C65.6753 60.195 65.6585 59.5701 65.5412 58.9802L66.3385 58.9497ZM65.5513 63.8203C65.3426 64.4263 65.0784 65.0419 64.7634 65.6624L64.0918 65.357C64.3957 64.7578 64.6494 64.1669 64.8482 63.5896L65.5513 63.8203ZM63.5593 67.4379C63.1629 68.1696 62.7318 68.9057 62.2696 69.6416L61.6957 69.1794C62.1478 68.4605 62.568 67.7427 62.9535 67.0309L63.5593 67.4379ZM61.0952 71.5443C60.6455 72.0301 60.1702 72.5114 59.6721 72.9855L59.0871 72.5216C59.5757 72.056 60.0422 71.5837 60.483 71.1073L61.0952 71.5443ZM57.7061 74.9849C57.2215 75.4434 56.7203 75.8933 56.2041 76.3331L55.7328 75.8325C56.2402 75.4 56.7332 74.9574 57.2096 74.507L57.7061 74.9849ZM53.9701 78.4671C53.386 78.8812 52.7881 79.2825 52.179 79.6685L51.7052 79.0992C52.3041 78.7197 52.8918 78.3251 53.4663 77.9179L53.9701 78.4671ZM50.5796 80.9006C49.9677 81.2882 49.3471 81.6573 48.7198 82.0062L48.3541 81.3861C48.9689 81.0442 49.5778 80.6819 50.1784 80.3016L50.5796 80.9006ZM46.1676 83.3564C45.5278 83.7122 44.8843 84.0419 44.2396 84.3425L43.9938 83.6488C44.6225 83.3558 45.251 83.0339 45.877 82.6857L46.1676 83.3564ZM42.4054 84.7309C41.7548 84.9659 41.1058 85.167 40.4601 85.3301L40.3355 84.6357C40.9589 84.4781 41.5878 84.2834 42.2196 84.0553L42.4054 84.7309ZM36.9406 86.1621C36.2694 86.2612 35.6064 86.3111 34.9551 86.3076L35.0035 85.5711C35.6231 85.5746 36.2564 85.5268 36.9003 85.4318L36.9406 86.1621ZM32.7771 85.7564C32.5361 85.714 32.2976 85.6615 32.0622 85.5984C31.6453 85.4867 31.2377 85.342 30.8407 85.1628L31.1509 84.3065C31.5234 84.4749 31.9064 84.6106 32.2987 84.7157C32.5203 84.7751 32.7449 84.8249 32.9726 84.8646L32.7771 85.7564ZM28.4386 84.0382C27.9074 83.6411 27.4018 83.1715 26.9257 82.6267L27.4068 82.0155C27.8555 82.5299 28.3308 82.9704 28.8292 83.3432L28.4386 84.0382ZM25.1375 80.9375C24.7285 80.3708 24.3427 79.751 23.9828 79.0753L24.5998 78.698C24.9449 79.3462 25.3134 79.9383 25.7027 80.4773L25.1375 80.9375ZM22.9508 76.462C22.6537 75.7874 22.4651 75.1185 22.3681 74.453L23.0972 74.4057C23.1867 75.0179 23.3588 75.6294 23.6327 76.2505L22.9508 76.462ZM22.3837 71.5879C22.4331 70.9652 22.5507 70.3436 22.7183 69.7181C22.7296 69.676 22.7409 69.6336 22.7527 69.5913L23.582 69.8187C23.5706 69.8594 23.5597 69.9002 23.5488 69.9407C23.3877 70.542 23.2766 71.1327 23.2304 71.7173L22.3837 71.5879ZM23.2554 67.4409C23.4851 66.8414 23.7396 66.2318 24.0071 65.608L24.7205 65.8836C24.4542 66.5044 24.2023 67.1071 23.9768 67.6954L23.2554 67.4409ZM25.6245 63.034C25.876 62.4467 26.1284 61.8443 26.3738 61.2236L27.0879 61.4829C26.8397 62.1107 26.5852 62.718 26.3326 63.3081L25.6245 63.034ZM26.2892 58.6899C26.5058 58.0772 26.7062 57.4459 26.8826 56.7931L27.7805 57.0344C27.6005 57.7009 27.3963 58.3444 27.1755 58.9671L26.2892 58.6899ZM28.1838 54.063C28.3009 53.4396 28.3957 52.7976 28.4636 52.135L29.2376 52.2499C29.1685 52.929 29.0711 53.5868 28.9514 54.2245L28.1838 54.063Z" fill="#34466B"/>
<path fill-rule="evenodd" clip-rule="evenodd" d="M17.2 42.9882L45.3086 40.0698L9.24918 38.4199L17.2 42.9882Z" fill="#2A8FEC"/>
<path fill-rule="evenodd" clip-rule="evenodd" d="M15.5993 57.0864L45.2057 40.0583L15.8014 53.2302L15.5993 57.0864Z" fill="#1B4872"/>
<path fill-rule="evenodd" clip-rule="evenodd" d="M9.3431 38.4191L15.8223 44.1083L15.6905 46.6226L17.2313 44.1821L45.4023 40.0722L17.2969 42.9301L9.3431 38.4191Z" fill="#1B4872"/>
<path fill-rule="evenodd" clip-rule="evenodd" d="M27.0331 38.2913C26.9974 38.1559 26.9089 38.0546 26.7681 37.9877C26.6273 37.9208 26.4374 37.8615 26.2066 37.8095C26.3014 38.1751 26.3488 38.358 26.4436 38.7237C26.6646 38.7175 26.8299 38.6774 26.9326 38.6044C27.0352 38.5313 27.0687 38.4268 27.0331 38.2913ZM25.1346 36.7837C25.1668 36.9129 25.242 37.0087 25.3604 37.0717C25.4786 37.1345 25.6498 37.1892 25.8675 37.2353C25.7739 36.8716 25.727 36.6898 25.6334 36.326C25.4292 36.3387 25.2847 36.385 25.2047 36.4651C25.1251 36.5452 25.1014 36.6515 25.1346 36.7837ZM26.8101 36.6322C26.7705 36.6023 26.7158 36.5702 26.6456 36.5361C26.5755 36.5021 26.4963 36.4697 26.4079 36.439C26.3195 36.4084 26.2244 36.3824 26.1227 36.3612C26.0211 36.3399 25.9199 36.3272 25.8202 36.3227L26.0677 37.2783C26.1086 37.2851 26.1292 37.2884 26.1701 37.2951C26.365 37.3321 26.5507 37.3735 26.7155 37.4198C26.8804 37.466 27.0246 37.5231 27.148 37.5913C27.2714 37.6596 27.3758 37.7445 27.4609 37.846C27.5458 37.9476 27.6081 38.0724 27.6474 38.2202C27.6911 38.3835 27.6951 38.5241 27.6593 38.6414C27.6236 38.7585 27.5568 38.8575 27.4594 38.9371C27.362 39.0168 27.2398 39.0774 27.0931 39.1189C26.9464 39.1601 26.7821 39.1837 26.6053 39.1892C26.6557 39.3833 26.6809 39.4801 26.7313 39.6741C26.6221 39.6755 26.5674 39.6763 26.4582 39.6775C26.4075 39.4798 26.3821 39.381 26.3312 39.1835C26.0766 39.171 25.8178 39.1301 25.5695 39.0616C25.3211 38.9932 25.0863 38.8967 24.865 38.7723C24.93 38.5927 24.9622 38.5029 25.0265 38.3236C25.0741 38.3598 25.14 38.3986 25.2245 38.4402C25.3088 38.4818 25.4054 38.5219 25.514 38.5601C25.6225 38.5984 25.7399 38.6325 25.866 38.6616C25.9921 38.6907 26.121 38.7109 26.2491 38.7214C26.1507 38.3393 26.1016 38.1482 26.0032 37.766C25.981 37.76 25.958 37.7551 25.9346 37.7509C25.9111 37.7465 25.888 37.7415 25.8656 37.7355C25.6694 37.6951 25.4965 37.6521 25.3472 37.6067C25.1977 37.5612 25.0695 37.5057 24.9625 37.4399C24.8558 37.3742 24.7678 37.2966 24.6991 37.2071C24.6302 37.1174 24.5806 37.0082 24.5491 36.8791C24.5125 36.7286 24.5094 36.5942 24.5392 36.476C24.5692 36.3578 24.6267 36.2552 24.7118 36.1683C24.7969 36.0818 24.9042 36.0132 25.0339 35.9629C25.1634 35.9127 25.3127 35.8801 25.4781 35.8649C25.4302 35.6785 25.4061 35.5853 25.3583 35.3988C25.463 35.3968 25.5152 35.3959 25.6198 35.3939C25.6682 35.5804 25.6925 35.6736 25.7409 35.8603C25.9629 35.8685 26.1854 35.9044 26.3938 35.9679C26.6021 36.0315 26.7917 36.109 26.9625 36.2006C26.9019 36.3734 26.8713 36.4597 26.8101 36.6322Z" fill="white"/>
<path fill-rule="evenodd" clip-rule="evenodd" d="M31.141 37.1783C31.2579 37.5883 31.7139 37.8586 32.1498 37.7536C32.5858 37.6488 32.8348 37.2075 32.7168 36.7988C32.5989 36.39 32.1587 36.1678 31.7238 36.2714C31.2889 36.3749 31.024 36.7683 31.141 37.1783Z" fill="white"/>
<path fill-rule="evenodd" clip-rule="evenodd" d="M20.9045 37.8816C20.9917 38.2924 20.7027 38.687 20.2707 38.7928C19.8386 38.8987 19.428 38.6778 19.3407 38.2669C19.2536 37.8561 19.5248 37.4111 19.9571 37.3053C20.3891 37.1996 20.8175 37.4707 20.9045 37.8816Z" fill="white"/>
<path fill-rule="evenodd" clip-rule="evenodd" d="M20.1107 47.2821C25.8364 42.224 34.313 46.4681 40.4529 41.8314L37.9205 32.3804C31.6944 36.8153 23.8561 33.385 17.5783 37.8311L20.1107 47.2821Z" fill="#8AD7C4"/>
<path fill-rule="evenodd" clip-rule="evenodd" d="M20.3692 40.2771C21.1102 39.8473 21.5884 38.5446 21.4059 37.7076C23.129 37.1109 24.8912 37.0137 26.6994 36.9527C25.8934 37.594 25.5379 38.852 25.8223 40.2094C26.0626 41.3564 27.0036 42.6866 28.0339 43.2379C26.2392 43.297 24.4822 43.3803 22.7749 43.9849C22.5923 43.1479 21.7887 42.9167 21.0782 43.3459C20.7945 42.1183 20.6527 41.5046 20.3692 40.2771ZM36.9599 42.5217C35.1566 43.0212 33.4621 43.2089 31.591 43.275C32.3175 42.6465 32.5611 41.46 32.233 40.2044C31.9205 39.0073 30.8701 37.6666 29.7734 37.1138C31.664 37.0625 33.3789 36.8943 35.2059 36.4087C35.4397 37.2237 36.4613 38.0178 37.1947 37.6122C37.5332 38.8065 37.7027 39.4038 38.0413 40.5981C37.3184 41.0032 36.726 41.7066 36.9599 42.5217ZM20.7565 46.268C26.4519 42.4095 33.7034 45.8532 39.5916 42.2671C38.8244 39.5025 38.0572 36.738 37.29 33.9735C31.4403 37.3586 24.5465 34.5038 18.7059 37.9463C19.6172 41.6448 20.3007 44.4187 20.7565 46.268Z" fill="#2C9891"/>
<path fill-rule="evenodd" clip-rule="evenodd" d="M45.3331 40.0525L9.34348 56.4082L17.0194 44.2051L45.3331 40.0525Z" fill="#2A8FEC"/>
<path fill-rule="evenodd" clip-rule="evenodd" d="M97.2339 22.6516C96.68 18.152 92.8451 14.6685 88.1972 14.6685C83.1687 14.6685 79.0921 18.7461 79.0921 23.7763C79.0921 24.6015 79.2017 25.4012 79.4075 26.1613C79.3302 26.1623 79.2536 26.1651 79.1774 26.1695L79.0916 26.1625V26.1752C76.4837 26.3712 74.428 28.5503 74.428 31.2095C74.428 33.8686 76.4837 36.0477 79.0916 36.2437V36.2588H112.242V36.2583H112.242C114.274 36.2583 115.922 34.6101 115.922 32.5773C115.922 30.5445 114.274 28.8965 112.242 28.8965H112.242V28.8964L103.843 28.2037C103.882 27.9528 103.902 27.6958 103.902 27.4342C103.902 24.646 101.642 22.3856 98.8548 22.3856C98.2878 22.3856 97.7427 22.4791 97.2339 22.6516Z" fill="#DEEDF2"/>
<path fill-rule="evenodd" clip-rule="evenodd" d="M76.6071 34.3626C76.2018 31.0583 73.3958 28.5 69.9949 28.5C66.3155 28.5 63.3326 31.4945 63.3326 35.1886C63.3326 35.7946 63.4128 36.3818 63.5634 36.9401C63.5069 36.9408 63.4508 36.9428 63.395 36.9461L63.3323 36.9409V36.9503C61.424 37.0942 59.9199 38.6945 59.9199 40.6473C59.9199 42.6001 61.424 44.2004 63.3323 44.3443V44.3554H87.5889V44.355H87.589C89.0758 44.355 90.2812 43.1447 90.2812 41.6518C90.2812 40.1589 89.0758 38.9487 87.589 38.9487H87.5889V38.9486L81.4434 38.44C81.4714 38.2557 81.486 38.067 81.486 37.8748C81.486 35.8272 79.8327 34.1673 77.7932 34.1673C77.3783 34.1673 76.9794 34.2359 76.6071 34.3626Z" fill="#EAF7FE"/>
<path fill-rule="evenodd" clip-rule="evenodd" d="M127.224 78.7352C127.493 78.8348 127.766 78.928 128.041 79.014L128.165 78.745C127.894 78.6604 127.626 78.5688 127.362 78.4709L127.224 78.7352ZM128.9 79.1576C129.176 79.244 129.454 79.3224 129.733 79.3923L129.81 79.1148C129.537 79.0463 129.264 78.9694 128.993 78.8846L128.9 79.1576ZM130.845 79.5645C131.129 79.6358 131.412 79.6965 131.692 79.7459L131.715 79.4525C131.442 79.4043 131.166 79.3451 130.888 79.2753L130.845 79.5645ZM132.397 79.7901C132.657 79.7861 132.914 79.7715 133.168 79.7452L133.17 79.5082C132.925 79.5336 132.676 79.5478 132.423 79.5517L132.397 79.7901ZM134.592 79.6748C134.862 79.6436 135.123 79.5943 135.374 79.5255L135.279 79.2459C135.04 79.3114 134.791 79.3585 134.532 79.3885L134.592 79.6748ZM136.081 79.1104C136.168 79.0666 136.254 79.0204 136.339 78.9716C136.488 78.8853 136.633 78.7911 136.772 78.6889L136.624 78.495C136.494 78.591 136.357 78.6794 136.217 78.7606C136.137 78.8065 136.056 78.8501 135.974 78.8914L136.081 79.1104ZM137.608 77.9905C137.782 77.7991 137.941 77.5876 138.085 77.3558L137.864 77.219C137.729 77.4378 137.579 77.6362 137.416 77.8159L137.608 77.9905ZM138.576 76.6348C138.675 76.3735 138.76 76.0941 138.829 75.7958L138.552 75.7139C138.486 76.0001 138.405 76.267 138.31 76.5155L138.576 76.6348ZM139.099 74.7613C139.112 74.4883 139.091 74.2246 139.042 73.968L138.803 73.9976C138.849 74.2336 138.868 74.4747 138.856 74.726L139.099 74.7613ZM138.533 72.708C138.436 72.4801 138.321 72.2552 138.191 72.0309C138.183 72.0158 138.174 72.0006 138.165 71.9854L137.967 72.1018C137.976 72.1164 137.984 72.131 137.993 72.1456C138.117 72.3612 138.227 72.5749 138.317 72.7889L138.533 72.708ZM137.902 71.3687C137.759 71.1564 137.608 70.9414 137.451 70.7216L137.291 70.8512C137.447 71.0699 137.597 71.2826 137.738 71.4909L137.902 71.3687ZM136.409 69.8654C136.262 69.6584 136.112 69.4459 135.962 69.2264L135.8 69.3501C135.952 69.5721 136.103 69.7863 136.251 69.9942L136.409 69.8654ZM135.742 68.3144C135.601 68.0967 135.461 67.8715 135.326 67.6375L135.111 67.7617C135.25 68.0006 135.392 68.2302 135.535 68.4514L135.742 68.3144ZM134.748 66.8157C134.632 66.5902 134.521 66.3569 134.413 66.115L134.216 66.1877C134.326 66.4356 134.44 66.6746 134.558 66.9053L134.748 66.8157Z" fill="#34466B"/>
<path fill-rule="evenodd" clip-rule="evenodd" d="M139.338 61.5942L126.427 60.2496L142.99 59.4894L139.338 61.5942Z" fill="#2A8FEC"/>
<path fill-rule="evenodd" clip-rule="evenodd" d="M140.068 68.0893L126.469 60.244L139.975 66.3127L140.068 68.0893Z" fill="#1B4872"/>
<path fill-rule="evenodd" clip-rule="evenodd" d="M142.943 59.4889L139.967 62.1101L140.027 63.2685L139.32 62.1441L126.38 60.2506L139.29 61.5673L142.943 59.4889Z" fill="#1B4872"/>
<path fill-rule="evenodd" clip-rule="evenodd" d="M134.765 59.4296C134.782 59.3672 134.822 59.3205 134.887 59.2896C134.952 59.2587 135.039 59.2314 135.145 59.2074C135.101 59.3758 135.079 59.46 135.036 59.6285C134.934 59.6258 134.858 59.6073 134.811 59.5737C134.764 59.5401 134.749 59.492 134.765 59.4296ZM135.637 58.7343C135.622 58.7938 135.588 58.838 135.533 58.8671C135.479 58.896 135.4 58.9213 135.3 58.9426C135.343 58.775 135.365 58.6912 135.408 58.5237C135.502 58.5294 135.568 58.5507 135.605 58.5876C135.641 58.6244 135.652 58.6734 135.637 58.7343ZM134.867 58.6651C134.885 58.6513 134.91 58.6365 134.942 58.6208C134.974 58.6051 135.011 58.5901 135.051 58.5759C135.092 58.5618 135.136 58.5498 135.182 58.54C135.229 58.5301 135.276 58.5243 135.322 58.5222L135.207 58.9625C135.189 58.9656 135.179 58.9671 135.16 58.9702C135.071 58.9873 134.986 59.0065 134.91 59.0279C134.834 59.0492 134.768 59.0755 134.711 59.107C134.654 59.1385 134.606 59.1777 134.567 59.2244C134.528 59.2713 134.499 59.3288 134.481 59.3969C134.461 59.4721 134.459 59.5369 134.476 59.5909C134.492 59.6448 134.523 59.6904 134.567 59.727C134.612 59.7637 134.668 59.7916 134.736 59.8106C134.803 59.8296 134.879 59.8404 134.96 59.8429C134.937 59.9323 134.925 59.9769 134.902 60.0663C134.952 60.0669 134.977 60.0672 135.027 60.0677C135.051 59.9767 135.062 59.9311 135.086 59.8401C135.203 59.8343 135.322 59.8154 135.436 59.7837C135.55 59.7521 135.658 59.7076 135.759 59.6502C135.73 59.5675 135.715 59.5262 135.685 59.4436C135.664 59.4603 135.633 59.4782 135.594 59.4974C135.556 59.5166 135.511 59.535 135.461 59.5527C135.412 59.5704 135.358 59.5861 135.3 59.5996C135.242 59.613 135.182 59.6223 135.124 59.6272C135.169 59.4512 135.192 59.3632 135.237 59.187C135.247 59.1843 135.258 59.182 135.268 59.1801C135.279 59.1781 135.29 59.1757 135.3 59.173C135.39 59.1543 135.47 59.1344 135.538 59.1135C135.607 59.0925 135.666 59.0668 135.715 59.0365C135.764 59.0062 135.805 58.9704 135.836 58.9292C135.868 58.8878 135.891 58.8375 135.905 58.778C135.922 58.7087 135.924 58.6468 135.91 58.5923C135.896 58.5379 135.87 58.4907 135.831 58.4507C135.792 58.4108 135.742 58.3793 135.683 58.3562C135.623 58.3331 135.555 58.3181 135.479 58.3111C135.501 58.2253 135.512 58.1823 135.534 58.0964C135.486 58.0956 135.462 58.0951 135.414 58.0942C135.392 58.1802 135.38 58.2231 135.358 58.3091C135.256 58.313 135.154 58.3296 135.058 58.3589C134.962 58.3883 134.875 58.4241 134.797 58.4663C134.824 58.5459 134.839 58.5856 134.867 58.6651Z" fill="white"/>
<path fill-rule="evenodd" clip-rule="evenodd" d="M132.878 58.9181C132.824 59.107 132.615 59.2316 132.415 59.1834C132.214 59.1353 132.1 58.9321 132.154 58.7438C132.209 58.5555 132.411 58.4529 132.611 58.5005C132.811 58.5481 132.932 58.7292 132.878 58.9181Z" fill="white"/>
<path fill-rule="evenodd" clip-rule="evenodd" d="M137.58 59.2386C137.54 59.4279 137.673 59.6096 137.871 59.6581C138.069 59.7068 138.258 59.6048 138.298 59.4155C138.339 59.2263 138.214 59.0214 138.016 58.9728C137.817 58.9243 137.62 59.0493 137.58 59.2386Z" fill="white"/>
<path fill-rule="evenodd" clip-rule="evenodd" d="M137.941 63.5684C135.312 61.2404 131.416 63.1984 128.597 61.0647L129.764 56.7103C132.622 58.751 136.225 57.1681 139.107 59.214L137.941 63.5684Z" fill="#8AD7C4"/>
<path fill-rule="evenodd" clip-rule="evenodd" d="M137.825 60.3421C137.485 60.1443 137.265 59.5444 137.35 59.1588C136.558 58.8846 135.749 58.8404 134.918 58.8129C135.288 59.1081 135.451 59.6874 135.32 60.3128C135.209 60.8412 134.776 61.4543 134.303 61.7086C135.127 61.7352 135.934 61.7729 136.718 62.0509C136.803 61.6653 137.172 61.5585 137.498 61.7559C137.629 61.1904 137.694 60.9076 137.825 60.3421ZM130.2 61.3818C131.029 61.6113 131.807 61.6971 132.667 61.7269C132.333 61.4377 132.222 60.8912 132.373 60.3127C132.517 59.7612 133 59.1432 133.504 58.8882C132.635 58.8652 131.848 58.7884 131.008 58.5653C130.901 58.9408 130.431 59.307 130.094 59.1204C129.938 59.6707 129.86 59.9458 129.704 60.4961C130.036 60.6825 130.308 61.0063 130.2 61.3818ZM137.645 63.1018C135.03 61.3264 131.697 62.9152 128.993 61.2654C129.346 59.9917 129.7 58.718 130.053 57.4442C132.74 59.0015 135.908 57.6841 138.59 59.2677C138.17 60.9717 137.855 62.2498 137.645 63.1018Z" fill="#2C9891"/>
<path fill-rule="evenodd" clip-rule="evenodd" d="M142.943 67.7769L139.417 62.1546L126.412 60.2413L142.943 67.7769Z" fill="#2A8FEC"/>
</svg>
