<svg width="160" height="160" viewBox="0 0 160 160" fill="none" xmlns="http://www.w3.org/2000/svg">
<path fill-rule="evenodd" clip-rule="evenodd" d="M63.3933 130.51C33.0557 123.678 6.60181 111.339 4.90298 99.5586C2.237 81.0489 29.844 86.5691 40.6824 67.1683C51.5208 47.7676 39.3719 34.2048 47.6051 22.6372C55.8383 11.0697 70.6989 15.3294 82.586 24.0052C94.4731 32.6811 90.0917 38.7905 107.395 47.1329C124.698 55.4752 132.587 44.3469 146.636 55.1204C160.685 65.894 155.094 78.8798 151.957 91.4495C148.821 104.019 148.306 106.43 143.534 113.419C135.066 125.821 115.936 124.564 115.936 124.564C101.133 133.082 83.6184 135.065 63.3933 130.51Z" fill="#DEEDF2"/>
<path fill-rule="evenodd" clip-rule="evenodd" d="M82.8353 145.958C42.4584 145.958 9.72656 143.141 9.72656 139.666C9.72656 136.19 42.4584 133.373 82.8353 133.373C123.212 133.373 155.944 136.19 155.944 139.666C155.944 143.141 123.212 145.958 82.8353 145.958Z" fill="#DEEDF2"/>
<path fill-rule="evenodd" clip-rule="evenodd" d="M142.079 103.75C142.079 82.6928 125.009 65.6226 103.952 65.6226C82.8946 65.6226 65.8242 82.6928 65.8242 103.75C65.8242 124.807 82.8946 141.878 103.952 141.878C125.009 141.878 142.079 124.807 142.079 103.75Z" fill="#34466B"/>
<path fill-rule="evenodd" clip-rule="evenodd" d="M134.868 80.9851C133.469 81.5743 131.561 82.9986 131.71 84.7253C131.96 87.6025 133.791 87.0103 133.458 88.618C133.125 90.226 131.128 90.226 130.629 91.9185C130.13 93.6111 129.048 97.3349 130.546 99.112C132.043 100.889 134.041 99.3659 134.956 100.72C135.871 102.074 136.204 103.767 137.869 103.513C138.643 103.395 140.644 103.177 142.271 102.27C141.69 94.7328 138.978 86.7779 134.868 80.9851ZM95.7706 92.1193C94.8221 92.4335 94.6307 93.4266 95.7706 93.7753C96.9106 94.1236 98.4013 93.7753 98.3137 93.1651C98.226 92.555 96.5598 91.8577 95.7706 92.1193ZM87.2113 90.5754C87.1285 91.4697 93.5034 93.5263 93.5034 92.5427C93.5034 91.559 89.8606 90.0391 89.1155 89.9497C87.7887 89.7904 87.294 89.6814 87.2113 90.5754ZM107.926 75.4457C108.095 74.8728 106.827 74.2179 106.489 74.054C105.27 73.4636 105.052 75.0367 105.728 75.7735C106.404 76.5102 107.757 76.0191 107.926 75.4457ZM115.048 113.534C115.048 113.534 114.598 104.333 111.322 103.829C108.047 103.325 107.123 104.165 107.123 104.165L100.992 98.7893C100.992 98.7893 91.5856 100.889 90.4097 100.637C89.2337 100.385 86.2103 100.217 86.1264 98.5372C86.0422 96.8573 87.6382 95.0934 85.5384 93.7492C83.4389 92.4052 78.8197 93.4132 78.2318 92.5734C77.6438 91.7333 77.8119 87.4493 79.7436 85.9375C81.675 84.4254 85.6224 83.8374 86.7983 84.9296C87.9739 86.0215 86.9661 88.2894 88.2259 88.4573C89.4858 88.6254 88.3101 84.0055 89.8217 82.9136C91.3335 81.8215 92.2574 82.0735 93.1811 81.1495C94.105 80.2257 93.4331 78.9657 94.8607 78.3774C96.2887 77.7896 102.252 77.6215 102.672 76.0257C103.092 74.4297 98.9762 74.2616 99.2282 73.5896C99.4802 72.9176 104.771 74.6815 105.023 72.7497C105.275 70.8177 99.3963 67.5418 97.3804 68.2138C95.3648 68.8857 94.021 73.4215 92.4253 72.9176C90.8295 72.4135 87.9739 69.8098 89.4858 68.7176C90.9976 67.6257 94.021 69.1378 94.609 67.7936C94.8837 67.1654 95.0061 67.3613 94.5167 66.7334C89.7909 67.7349 84.7659 70.1215 80.6353 73.3965C76.5161 76.6623 73.2887 80.9978 70.4556 84.6867C70.3177 87.929 70.3104 91.5801 71.1768 91.3133C72.2686 90.9774 72.0168 83.1654 72.8565 84.4254C73.6965 85.6855 72.6887 90.3054 73.6965 92.0693C74.7043 93.8334 75.5443 93.3293 75.5443 93.3293C75.5443 93.3293 77.3918 95.3452 78.5677 94.5893C78.2318 95.2613 80.4152 98.4533 82.515 99.4613C84.6146 100.469 87.8061 99.8812 89.2337 101.813C90.6617 103.745 90.0737 105.593 90.0737 105.593C90.0737 105.593 87.7222 107.945 88.142 110.885C88.0578 110.969 86.4623 110.129 86.8822 112.817C87.302 115.505 95.0288 119.453 95.4487 121.805C95.8686 124.157 95.0288 136.001 95.4487 138.101C95.8686 140.201 97.0445 142.469 98.6402 141.965C100.236 141.461 99.648 139.361 99.648 139.361L105.863 132.725C105.863 132.725 109.222 131.969 111.91 129.197C114.598 126.425 123.584 115.253 122.24 111.809C120.896 108.365 116.025 108.617 116.025 108.617L115.048 113.534Z" fill="#CEDEE7"/>
<path fill-rule="evenodd" clip-rule="evenodd" d="M111.406 103.681C108.131 103.175 107.207 104.018 107.207 104.018L101.076 98.6213C101.076 98.6213 91.6697 100.729 90.4938 100.476C89.3179 100.224 86.2944 100.055 86.2105 98.3683C86.1263 96.6818 87.7224 94.9111 85.6226 93.5616C83.523 92.2124 78.9038 93.2243 78.3159 92.3812C77.7279 91.5379 77.896 87.2373 79.8277 85.7196C81.7591 84.2016 85.7065 83.6113 86.8824 84.7077C88.0581 85.8038 87.0502 88.0806 88.3101 88.2492C89.5699 88.4179 88.3943 83.7801 89.9058 82.6839C91.4177 81.5875 92.3416 81.8406 93.2652 80.9129C94.1891 79.9856 93.5172 78.7206 94.9449 78.13C96.3728 77.54 102.336 77.3712 102.756 75.7692C103.176 74.167 99.0604 73.9982 99.3124 73.3237C99.5644 72.6491 104.855 74.4198 105.107 72.4806C105.331 70.7546 100.703 67.9632 98.2602 67.8438C97.9758 67.8754 97.6925 67.9103 97.4101 67.9487C95.4249 68.6863 94.0908 73.1503 92.5094 72.6491C91.4754 72.3212 89.891 71.3618 89.3303 70.2499C88.9475 70.3953 88.5677 70.5464 88.1912 70.703C80.8119 73.7723 74.6674 78.9738 70.6371 85.8229C70.6286 88.6675 70.7558 91.2725 71.2609 91.1163C72.3526 90.779 72.1009 82.9367 72.9406 84.2016C73.7806 85.4665 72.7727 90.1044 73.7806 91.8751C74.7884 93.6461 75.6283 93.1401 75.6283 93.1401C75.6283 93.1401 77.4759 95.1638 78.6518 94.405C78.3159 95.0796 80.4993 98.284 82.5991 99.2959C84.6987 100.308 87.8902 99.7175 89.3179 101.657C90.7458 103.596 90.1579 105.452 90.1579 105.452C90.1579 105.452 87.8063 107.813 88.2262 110.764C88.142 110.848 86.5465 110.005 86.9663 112.703C87.3862 115.402 95.113 119.365 95.5329 121.726C95.9527 124.087 95.113 135.978 95.5329 138.086C95.7624 139.237 96.2178 140.438 96.8435 141.21C97.6968 141.339 98.5595 141.438 99.4308 141.508C100.11 140.71 99.7322 139.351 99.7322 139.351L105.947 132.689C105.947 132.689 109.307 131.93 111.994 129.147C114.682 126.364 123.668 115.149 122.325 111.692C120.981 108.234 116.11 108.487 116.11 108.487C116.11 108.487 114.682 104.187 111.406 103.681Z" fill="#DEEDF2"/>
<path fill-rule="evenodd" clip-rule="evenodd" d="M77.7782 80.3117C77.0483 80.9742 76.3313 81.5991 75.6278 82.1882L75.3361 81.3256C76.0281 80.7466 76.7344 80.1313 77.4541 79.4779L77.7782 80.3117ZM72.9238 82.1533C72.1929 82.7009 71.4781 83.2066 70.7791 83.6722L70.5649 82.8148C71.2495 82.3592 71.9503 81.8632 72.6675 81.3256L72.9238 82.1533ZM67.7118 83.825C66.9511 84.3251 66.2121 84.7679 65.4942 85.1551L65.4133 84.1C66.1111 83.7233 66.831 83.2928 67.5732 82.8044L67.7118 83.825ZM62.8381 84.3309C62.0606 84.6814 61.3116 84.9574 60.5914 85.1626L60.66 83.9726C61.3532 83.7751 62.076 83.5092 62.8283 83.1694L62.8381 84.3309ZM57.5764 83.8855C57.404 83.9074 57.2338 83.9245 57.0654 83.9368C56.4776 83.98 55.9131 83.9663 55.3723 83.8989L55.6351 82.5729C56.1505 82.6376 56.6891 82.6506 57.2512 82.6093C57.4123 82.5975 57.5751 82.5816 57.7401 82.5603L57.5764 83.8855ZM52.549 81.7517C51.8659 81.516 51.2281 81.2059 50.6363 80.83L51.0621 79.9097C51.6225 80.2651 52.226 80.5594 52.8746 80.7826L52.549 81.7517ZM48.9152 78.8409C48.3444 78.2626 47.8313 77.619 47.3756 76.9219L48.0236 76.1607C48.4549 76.8206 48.9404 77.4301 49.4805 77.9768L48.9152 78.8409ZM46.1395 74.3656C45.7677 73.6687 45.4566 72.9352 45.2059 72.1751L45.9549 71.7524C46.1929 72.4737 46.4882 73.1697 46.8406 73.8305L46.1395 74.3656ZM45.097 69.1252C44.967 68.1265 44.9129 67.1093 44.9351 66.0871L45.8577 65.8882C45.8371 66.8545 45.888 67.819 46.0113 68.7656L45.097 69.1252ZM45.1937 63.9108C45.2059 63.8386 45.219 63.7664 45.2326 63.6946C45.3745 62.945 45.5919 62.2046 45.8866 61.4825L46.8127 61.6185C46.5378 62.2918 46.3335 62.9858 46.2003 63.6901C46.1875 63.7575 46.1752 63.8254 46.1638 63.8932L45.1937 63.9108ZM47.4821 59.6025C47.9495 58.7905 48.5005 58.0212 49.1357 57.3133L49.7004 57.8266C49.1187 58.4754 48.612 59.1815 48.1805 59.9315L47.4821 59.6025ZM51.669 56.6272C52.3437 56.0182 53.0789 55.4846 53.8719 55.0418L54.0339 55.9268C53.2984 56.3373 52.6221 56.8287 52.0031 57.3879L51.669 56.6272ZM56.6071 55.9862C57.3203 55.7138 58.0694 55.5141 58.854 55.3957L58.7415 56.4702C57.9938 56.5833 57.2844 56.7726 56.6139 57.029L56.6071 55.9862ZM61.5344 56.6627C62.2161 56.689 62.9207 56.7724 63.648 56.9164L63.3725 57.9967C62.6669 57.8564 61.9855 57.7762 61.329 57.7512L61.5344 56.6627ZM65.9379 58.7792C66.6324 59.1969 67.1878 59.7578 67.6066 60.4379L66.9461 61.0626C66.5799 60.4689 66.0974 59.9799 65.4805 59.6081L65.9379 58.7792ZM68.7349 63.2819C68.9417 64.0303 69.0167 64.8469 68.9756 65.717L68.0234 65.8088C68.0618 64.9981 67.9906 64.2503 67.8047 63.5774L68.7349 63.2819ZM67.9271 68.5603C67.7295 69.3273 67.4665 70.1229 67.1434 70.9402L66.3164 70.7988C66.6281 70.0096 66.8807 69.246 67.0689 68.5154L67.9271 68.5603ZM65.7525 72.4612C65.3416 73.4328 64.8898 74.4206 64.4008 75.4178L63.677 75.0642C64.1554 74.0898 64.5958 73.1268 64.9954 72.1815L65.7525 72.4612ZM63.0564 76.9001C62.5767 77.6585 62.0672 78.42 61.5307 79.1804L60.8169 78.8003C61.3432 78.0538 61.8432 77.3066 62.3134 76.5629L63.0564 76.9001ZM59.3377 80.6914C58.8155 81.4276 58.2734 82.1588 57.7132 82.8824L57.1278 82.418C57.6784 81.7064 58.2117 80.9873 58.725 80.2639L59.3377 80.6914ZM55.2479 84.4474C54.6133 85.187 53.9618 85.915 53.2963 86.6274L52.7072 86.066C53.3616 85.3655 54.0019 84.6498 54.6262 83.9226L55.2479 84.4474ZM51.5283 87.1383C50.8596 87.8537 50.1795 88.5485 49.4901 89.2198L49.0206 88.5547C49.6963 87.8968 50.3636 87.2149 51.0199 86.5128L51.5283 87.1383ZM46.6935 89.8594C45.9903 90.5442 45.2808 91.1966 44.5675 91.8121L44.2292 91.0099C44.9248 90.4097 45.6179 89.7727 46.3059 89.1028L46.6935 89.8594ZM42.5693 91.4006C41.8499 91.9566 41.1295 92.4675 40.4099 92.9269L40.211 92.0585C40.9058 91.6148 41.6039 91.1201 42.3024 90.5803L42.5693 91.4006ZM36.5817 93.0317C35.8345 93.442 35.0923 93.782 34.3588 94.0447L34.3515 93.0245C35.0492 92.7747 35.7582 92.4497 36.4751 92.0564L36.5817 93.0317ZM32.039 92.7358C31.7667 92.787 31.4962 92.8227 31.2283 92.8424C30.7539 92.8772 30.2869 92.8618 29.8288 92.7933L30.1009 91.4563C30.5307 91.5209 30.9695 91.5351 31.4158 91.5023C31.6681 91.4838 31.9228 91.4505 32.18 91.4018L32.039 92.7358ZM27.312 91.0388C26.6761 90.7163 26.0631 90.2885 25.4774 89.7504L25.9733 88.7626C26.5253 89.271 27.1013 89.6718 27.698 89.9747L27.312 91.0388ZM23.6903 87.7257C23.1756 87.1446 22.6832 86.487 22.2158 85.7485L22.8911 85.0444C23.3393 85.7529 23.8096 86.381 24.2994 86.9337L23.6903 87.7257ZM21.263 82.8799C20.8645 82.1394 20.5919 81.3692 20.4252 80.5722L21.2635 80.2659C21.4171 80.9989 21.666 81.7032 22.0332 82.3848L21.263 82.8799ZM20.5757 77.6063C20.5818 76.8703 20.6694 76.114 20.8163 75.3375C20.8262 75.2853 20.8362 75.2326 20.8466 75.1799L21.8551 75.1812C21.845 75.2319 21.8354 75.2826 21.8259 75.3328C21.6846 76.0794 21.6022 76.7978 21.5965 77.4887L20.5757 77.6063ZM21.5147 73.0943C21.7379 72.3283 21.9898 71.5428 22.2561 70.7366L23.1303 70.8303C22.8653 71.6325 22.6159 72.4093 22.3968 73.1611L21.5147 73.0943ZM24.1087 68.2553C24.3589 67.4965 24.6089 66.7199 24.8491 65.9244L25.7229 65.999C25.4801 66.8036 25.228 67.5866 24.9766 68.3489L24.1087 68.2553ZM24.8405 63.4945C25.047 62.7174 25.2326 61.9237 25.3876 61.1129L26.4791 61.1086C26.3209 61.9365 26.1318 62.7454 25.9212 63.5355L24.8405 63.4945ZM26.9521 58.3572C27.0389 57.599 27.0976 56.8263 27.1224 56.0383L28.0554 55.927C28.0306 56.7344 27.9702 57.5262 27.8814 58.3018L26.9521 58.3572Z" fill="#34466B"/>
<path fill-rule="evenodd" clip-rule="evenodd" d="M14.8747 45.9841L45.718 42.7817L6.1503 40.9713L14.8747 45.9841Z" fill="#EC0000"/>
<path fill-rule="evenodd" clip-rule="evenodd" d="M13.1181 61.4538L45.605 42.769L13.3398 57.2225L13.1181 61.4538Z" fill="#990000"/>
<path fill-rule="evenodd" clip-rule="evenodd" d="M6.25206 40.9706L13.3616 47.2133L13.2171 49.9723L14.9078 47.2944L45.8196 42.7846L14.9798 45.9205L6.25206 40.9706Z" fill="#990000"/>
<path fill-rule="evenodd" clip-rule="evenodd" d="M25.6786 40.964C25.6482 40.7882 25.5532 40.6367 25.3943 40.5095C25.2355 40.3825 25.0187 40.2487 24.7536 40.1104C24.8341 40.5844 24.8744 40.8214 24.9549 41.2955C25.2134 41.3602 25.4097 41.3655 25.5355 41.3106C25.6613 41.2555 25.709 41.1398 25.6786 40.964ZM23.552 39.0651C23.5791 39.2296 23.6594 39.3681 23.7933 39.4813C23.927 39.5943 24.1236 39.7145 24.3756 39.8395C24.2957 39.3755 24.2558 39.1434 24.1759 38.6794C23.935 38.6288 23.7613 38.6376 23.6608 38.7076C23.5605 38.7775 23.524 38.8967 23.552 39.0651ZM25.5528 39.1801C25.5089 39.1316 25.4473 39.0756 25.3677 39.0122C25.2882 38.949 25.1979 38.8848 25.0967 38.8196C24.9955 38.7545 24.886 38.6929 24.7684 38.6347C24.6508 38.5766 24.5331 38.5288 24.4164 38.4914L24.6279 39.7136C24.6753 39.7348 24.6991 39.7454 24.7466 39.7666C24.9724 39.8735 25.1869 39.9829 25.3765 40.0913C25.5663 40.1995 25.7308 40.3142 25.87 40.4356C26.0092 40.5569 26.1247 40.6921 26.2162 40.8408C26.3074 40.9896 26.3702 41.1588 26.4042 41.3483C26.4419 41.5575 26.4349 41.7268 26.3832 41.8556C26.3316 41.9841 26.245 42.0809 26.124 42.1448C26.0031 42.2087 25.8547 42.2419 25.679 42.2442C25.5034 42.2462 25.3086 42.2215 25.1006 42.1712C25.1437 42.4195 25.1652 42.5433 25.2083 42.7916C25.0799 42.758 25.0157 42.7413 24.8875 42.7076C24.8443 42.455 24.8227 42.3287 24.7792 42.0761C24.4815 41.9792 24.1811 41.8471 23.8953 41.6852C23.6093 41.5234 23.3417 41.3324 23.0923 41.1125C23.1834 40.9186 23.2287 40.8217 23.3189 40.6281C23.3718 40.6866 23.446 40.7542 23.5417 40.8312C23.6372 40.9081 23.7473 40.9871 23.8716 41.0677C23.9958 41.1484 24.1308 41.227 24.2765 41.3024C24.422 41.3778 24.5717 41.4434 24.7212 41.4972C24.6373 41.0088 24.5956 40.7645 24.5117 40.2758C24.4862 40.2615 24.4595 40.2482 24.4324 40.2356C24.4052 40.2229 24.3785 40.2094 24.3527 40.195C24.1257 40.0836 23.9264 39.9765 23.7548 39.8742C23.5831 39.7717 23.4372 39.664 23.3171 39.551C23.1973 39.438 23.1004 39.3169 23.0271 39.1878C22.9538 39.0584 22.9045 38.9118 22.8783 38.7473C22.8478 38.5556 22.8553 38.394 22.9001 38.2622C22.945 38.1305 23.021 38.0264 23.1281 37.95C23.2352 37.8738 23.3668 37.8264 23.5232 37.8081C23.6795 37.7897 23.8574 37.7988 24.0528 37.8338C24.012 37.5956 23.9915 37.4764 23.9508 37.238C24.0739 37.2694 24.1352 37.2851 24.2582 37.3163C24.2995 37.5549 24.3203 37.6742 24.3617 37.9129C24.6216 37.9942 24.8798 38.1088 25.1192 38.2518C25.3584 38.3949 25.5746 38.5486 25.7674 38.7131C25.6821 38.9003 25.6389 38.9935 25.5528 39.1801Z" fill="white"/>
<path fill-rule="evenodd" clip-rule="evenodd" d="M30.1632 39.6098C30.2914 40.0596 30.7918 40.3562 31.2701 40.2411C31.7485 40.1261 32.0218 39.6418 31.8923 39.1933C31.763 38.7448 31.2799 38.5009 30.8026 38.6147C30.3255 38.7282 30.0348 39.1599 30.1632 39.6098Z" fill="white"/>
<path fill-rule="evenodd" clip-rule="evenodd" d="M18.9316 40.381C19.0273 40.8318 18.7102 41.2648 18.2361 41.3808C17.762 41.4971 17.3115 41.2546 17.2157 40.8037C17.1201 40.3531 17.4177 39.8647 17.892 39.7487C18.366 39.6326 18.8361 39.9301 18.9316 40.381Z" fill="white"/>
<path fill-rule="evenodd" clip-rule="evenodd" d="M18.0601 50.6964C24.3429 45.1461 33.6441 49.8032 40.3814 44.7154L37.6026 34.3449C30.7708 39.2113 22.1699 35.4472 15.2813 40.3259L18.0601 50.6964Z" fill="#63BA68"/>
<path fill-rule="evenodd" clip-rule="evenodd" d="M18.2016 41.6391C19.085 41.352 19.7393 39.8514 19.5991 38.7126C21.6203 38.5617 23.6455 39.0655 25.7203 39.6321C24.745 40.1673 24.235 41.6543 24.4491 43.4971C24.63 45.0542 25.598 47.0962 26.7321 48.1709C24.673 47.6066 22.655 47.0869 20.6511 47.2536C20.5108 46.1148 19.6099 45.5316 18.7614 45.8287C18.5374 44.1528 18.4254 43.315 18.2016 41.6391ZM36.4459 47.0274C34.3408 47.0251 32.3857 46.6616 30.2385 46.0789C31.1217 45.5318 31.4979 44.0966 31.2254 42.3689C30.9659 40.7218 29.8735 38.6273 28.6636 37.5269C30.8318 38.1354 32.8086 38.5312 34.9397 38.5599C35.1405 39.6889 36.2447 41.0718 37.1175 40.8131C37.407 42.466 37.552 43.2926 37.8416 44.9455C36.9809 45.2073 36.2451 45.8984 36.4459 47.0274ZM18.0779 47.6767C24.7746 44.8504 32.5866 52.8428 39.4754 50.4798C38.8541 46.305 38.2328 42.1302 37.6115 37.9554C30.7829 40.0567 23.3205 33.0398 16.4971 35.2245C17.1996 40.7588 17.7266 44.9095 18.0779 47.6767Z" fill="#008437"/>
<path fill-rule="evenodd" clip-rule="evenodd" d="M45.7419 42.7631L6.25072 60.7101L14.6735 47.3198L45.7419 42.7631Z" fill="#EC0000"/>
<path fill-rule="evenodd" clip-rule="evenodd" d="M102.733 23.8741C102.132 18.8724 97.9733 15 92.9327 15C87.4793 15 83.0582 19.5327 83.0582 25.1243C83.0582 26.0417 83.1771 26.9306 83.4003 27.7756C83.3164 27.7767 83.2333 27.7797 83.1507 27.7847L83.0577 27.7768V27.791C80.2294 28.0089 78 30.4312 78 33.3871C78 36.3431 80.2294 38.7654 83.0577 38.9832V39H119.01V38.9994H119.01C121.213 38.9994 123 37.1673 123 34.9076C123 32.6479 121.213 30.8161 119.01 30.8161H119.01V30.8159L109.901 30.0459C109.943 29.767 109.964 29.4813 109.964 29.1905C109.964 26.0911 107.514 23.5784 104.491 23.5784C103.876 23.5784 103.285 23.6824 102.733 23.8741Z" fill="#DEEDF2"/>
<path fill-rule="evenodd" clip-rule="evenodd" d="M80.1375 36.2858C79.697 32.7429 76.6471 30 72.9506 30C68.9515 30 65.7093 33.2107 65.7093 37.1714C65.7093 37.8212 65.7965 38.4508 65.9602 39.0493C65.8987 39.0502 65.8378 39.0523 65.7772 39.0558L65.709 39.0503V39.0603C63.6349 39.2146 62 40.9304 62 43.0242C62 45.118 63.6349 46.8338 65.709 46.9881V47H92.0737V46.9996H92.0738C93.6898 46.9996 95 45.7019 95 44.1012C95 42.5006 93.6898 41.203 92.0738 41.203H92.0737V41.2029L85.3941 40.6575C85.4246 40.46 85.4404 40.2576 85.4404 40.0516C85.4404 37.8562 83.6434 36.0764 81.4266 36.0764C80.9757 36.0764 80.5421 36.15 80.1375 36.2858Z" fill="#EAF7FE"/>
<path fill-rule="evenodd" clip-rule="evenodd" d="M135.585 85.0051C135.877 85.2407 136.174 85.4702 136.474 85.6923L136.646 85.4194C136.35 85.201 136.059 84.9753 135.772 84.7437L135.585 85.0051ZM137.421 85.4782C137.723 85.7013 138.028 85.9152 138.334 86.119L138.453 85.8158C138.153 85.616 137.854 85.406 137.558 85.1872L137.421 85.4782ZM139.556 85.937C139.869 86.1449 140.181 86.3395 140.491 86.5193L140.552 86.1735C140.249 85.9982 139.944 85.8082 139.639 85.6048L139.556 85.937ZM141.261 86.2129C141.549 86.3316 141.834 86.4349 142.117 86.5208L142.147 86.2057C141.873 86.1228 141.597 86.0228 141.317 85.9074L141.261 86.2129ZM143.661 86.1241C143.963 86.2113 144.257 86.2702 144.542 86.2984L144.47 85.8804C144.198 85.8536 143.917 85.7972 143.628 85.7137L143.661 86.1241ZM145.29 85.5928C145.39 85.575 145.488 85.5527 145.585 85.5258C145.757 85.4781 145.924 85.4157 146.087 85.3381L145.949 84.9587C145.796 85.0316 145.639 85.0901 145.477 85.135C145.386 85.1604 145.293 85.1815 145.199 85.1982L145.29 85.5928ZM146.946 84.4149C147.16 84.2428 147.361 84.0371 147.546 83.7965L147.318 83.5089C147.144 83.736 146.955 83.9289 146.754 84.0905L146.946 84.4149ZM148.005 82.9576C148.147 82.6834 148.276 82.3811 148.389 82.0491L148.085 81.8311C147.977 82.1496 147.854 82.4384 147.718 82.6992L148.005 82.9576ZM148.591 80.9124C148.639 80.6111 148.646 80.3066 148.619 79.9988L148.34 79.9374C148.364 80.2205 148.358 80.4989 148.313 80.7763L148.591 80.9124ZM147.997 78.6864C147.91 78.411 147.8 78.1319 147.674 77.8479C147.665 77.8288 147.657 77.8096 147.648 77.7903L147.398 77.838C147.406 77.8565 147.415 77.875 147.423 77.8934C147.544 78.1664 147.648 78.4316 147.73 78.6901L147.997 78.6864ZM147.312 77.2283C147.168 76.9519 147.014 76.6695 146.855 76.38L146.649 76.456C146.807 76.7441 146.959 77.0233 147.101 77.2946L147.312 77.2283ZM145.679 75.5777C145.529 75.3052 145.377 75.0261 145.225 74.7394L145.017 74.8082C145.17 75.0982 145.324 75.3796 145.474 75.6534L145.679 75.5777ZM144.941 73.878C144.8 73.5966 144.662 73.3081 144.529 73.0117L144.258 73.0612C144.393 73.3638 144.534 73.6579 144.678 73.944L144.941 73.878ZM143.845 72.2144C143.735 71.9345 143.631 71.6479 143.534 71.3539L143.289 71.3559C143.389 71.6571 143.496 71.9508 143.608 72.2371L143.845 72.2144Z" fill="#34466B"/>
<path fill-rule="evenodd" clip-rule="evenodd" d="M148.893 66.4003L134.726 64.9248L152.901 64.0907L148.893 66.4003Z" fill="#EC0000"/>
<path fill-rule="evenodd" clip-rule="evenodd" d="M149.698 73.5276L134.775 64.9189L149.596 71.5781L149.698 73.5276Z" fill="#990000"/>
<path fill-rule="evenodd" clip-rule="evenodd" d="M152.85 64.0903L149.584 66.9665L149.651 68.2376L148.874 67.0038L134.675 64.926L148.841 66.3709L152.85 64.0903Z" fill="#990000"/>
<path fill-rule="evenodd" clip-rule="evenodd" d="M143.878 64.0877C143.892 64.0058 143.935 63.9352 144.008 63.8759C144.08 63.8167 144.18 63.7543 144.301 63.6898C144.264 63.9106 144.246 64.021 144.209 64.2419C144.09 64.2721 144.001 64.2746 143.943 64.2491C143.886 64.2235 143.864 64.1696 143.878 64.0877ZM144.849 63.2086C144.837 63.2867 144.8 63.3525 144.74 63.4063C144.679 63.46 144.59 63.5172 144.475 63.5766C144.512 63.3563 144.53 63.2461 144.566 63.0258C144.676 63.0017 144.754 63.0058 144.8 63.0389C144.845 63.0721 144.862 63.1287 144.849 63.2086ZM143.933 63.2647C143.954 63.2423 143.982 63.2165 144.019 63.1873C144.055 63.1582 144.097 63.1287 144.143 63.0986C144.19 63.0687 144.24 63.0403 144.294 63.0135C144.348 62.9867 144.402 62.9647 144.456 62.9475L144.358 63.5103C144.336 63.5201 144.325 63.525 144.304 63.5348C144.2 63.584 144.101 63.6344 144.014 63.6843C143.927 63.7341 143.851 63.787 143.787 63.8428C143.723 63.8987 143.67 63.961 143.628 64.0295C143.586 64.098 143.557 64.1759 143.542 64.2632C143.524 64.3595 143.528 64.4375 143.551 64.4968C143.575 64.556 143.615 64.6006 143.67 64.63C143.726 64.6594 143.794 64.6747 143.875 64.6758C143.955 64.6767 144.045 64.6653 144.14 64.6422C144.121 64.7565 144.111 64.8135 144.091 64.9278C144.15 64.9124 144.179 64.9047 144.238 64.8892C144.258 64.7728 144.268 64.7147 144.288 64.5983C144.425 64.5537 144.563 64.4929 144.694 64.4183C144.826 64.3438 144.949 64.2558 145.063 64.1546C145.022 64.0653 145.001 64.0207 144.959 63.9315C144.935 63.9584 144.901 63.9896 144.857 64.025C144.813 64.0604 144.762 64.0968 144.705 64.134C144.648 64.1711 144.586 64.2073 144.519 64.242C144.452 64.2768 144.384 64.307 144.315 64.3318C144.354 64.1068 144.373 63.9943 144.411 63.7692C144.423 63.7627 144.435 63.7565 144.448 63.7508C144.46 63.7449 144.473 63.7387 144.485 63.7321C144.589 63.6807 144.68 63.6314 144.759 63.5843C144.838 63.5371 144.905 63.4875 144.96 63.4354C145.016 63.3834 145.06 63.3276 145.094 63.2682C145.128 63.2086 145.15 63.1411 145.162 63.0653C145.176 62.977 145.173 62.9026 145.152 62.8419C145.132 62.7813 145.097 62.7333 145.048 62.6981C144.999 62.6631 144.938 62.6412 144.866 62.6328C144.794 62.6243 144.713 62.6285 144.623 62.6447C144.642 62.5349 144.651 62.48 144.67 62.3703C144.613 62.3847 144.585 62.3919 144.529 62.4063C144.51 62.5162 144.5 62.5712 144.481 62.6811C144.362 62.7185 144.243 62.7713 144.133 62.8372C144.023 62.9031 143.924 62.9739 143.835 63.0496C143.874 63.1358 143.894 63.1788 143.933 63.2647Z" fill="white"/>
<path fill-rule="evenodd" clip-rule="evenodd" d="M141.811 63.4644C141.752 63.6716 141.522 63.8084 141.302 63.7556C141.083 63.7028 140.957 63.4798 141.017 63.2732C141.077 63.0665 141.299 62.954 141.518 63.0062C141.737 63.0584 141.87 63.2571 141.811 63.4644Z" fill="white"/>
<path fill-rule="evenodd" clip-rule="evenodd" d="M146.97 63.8157C146.926 64.0234 147.071 64.2228 147.289 64.2761C147.507 64.3294 147.714 64.2176 147.758 64.0099C147.802 63.8022 147.666 63.5774 147.448 63.5241C147.23 63.4708 147.014 63.608 146.97 63.8157Z" fill="white"/>
<path fill-rule="evenodd" clip-rule="evenodd" d="M147.365 68.5671C144.481 66.0126 140.206 68.1611 137.112 65.8199L138.392 61.0418C141.529 63.2811 145.482 61.5442 148.645 63.7891L147.365 68.5671Z" fill="#63BA68"/>
<path fill-rule="evenodd" clip-rule="evenodd" d="M147.304 64.3967C146.899 64.2644 146.598 63.5733 146.663 63.0489C145.735 62.9792 144.804 63.2111 143.851 63.4719C144.299 63.7184 144.533 64.4032 144.434 65.2518C144.35 65.9689 143.905 66.9092 143.384 67.404C144.33 67.1443 145.257 66.9051 146.178 66.9821C146.243 66.4577 146.657 66.1891 147.046 66.326C147.15 65.5543 147.201 65.1684 147.304 64.3967ZM138.92 66.8814C139.887 66.8804 140.785 66.7132 141.772 66.4451C141.366 66.193 141.194 65.5321 141.319 64.7365C141.439 63.978 141.941 63.0135 142.497 62.5069C141.501 62.7869 140.593 62.969 139.614 62.9821C139.521 63.5019 139.014 64.1388 138.613 64.0195C138.479 64.7807 138.413 65.1613 138.279 65.9225C138.675 66.0431 139.012 66.3615 138.92 66.8814ZM147.361 67.1819C144.286 65.8784 140.696 69.5579 137.532 68.4677C137.818 66.5449 138.104 64.622 138.391 62.6992C141.527 63.6688 144.956 60.4385 148.09 61.4465C147.766 63.9956 147.523 65.9073 147.361 67.1819Z" fill="#008437"/>
<path fill-rule="evenodd" clip-rule="evenodd" d="M152.849 73.1849L148.98 67.0155L134.71 64.9161L152.849 73.1849Z" fill="#EC0000"/>
</svg>
