<svg width="160" height="160" viewBox="0 0 160 160" fill="none" xmlns="http://www.w3.org/2000/svg">
<path fill-rule="evenodd" clip-rule="evenodd" d="M99.1795 27.0976C107.327 35.764 118.122 41.4203 129.82 43.5463C136.921 44.8366 143.715 48.2281 149.205 53.721C163.584 68.1075 163.601 91.3079 149.241 105.714C142.906 112.069 134.828 115.62 126.546 116.369C119.455 117.009 112.792 120.105 107.873 125.256C107.809 125.323 107.746 125.389 107.682 125.454C99.2892 134.022 85.7133 134.107 77.2191 125.641C77.1704 125.592 77.1221 125.543 77.0743 125.495C74.8053 123.19 71.5302 122.184 68.3568 122.8C50.264 126.316 30.8065 121.063 16.7932 107.038C-5.59775 84.6286 -5.59775 48.2298 16.7932 25.8201C39.2022 3.39288 75.5331 3.39302 97.9415 25.8204C98.3622 26.2413 98.7749 26.667 99.1795 27.0976Z" fill="#DEEDF2"/>
<path fill-rule="evenodd" clip-rule="evenodd" d="M150.48 143.118C150.48 146.96 119.499 150.075 81.2811 150.075C43.0635 150.075 12.082 146.96 12.082 143.118C12.082 139.276 43.0635 136.162 81.2811 136.162C119.499 136.162 150.48 139.276 150.48 143.118Z" fill="#9BC3D3"/>
<path fill-rule="evenodd" clip-rule="evenodd" d="M41.4725 47.3888C39.7488 46.6102 38.405 45.0503 37.982 43.0601C37.2762 39.7395 39.3991 36.4704 42.7197 35.7646C45.7858 35.1129 48.8079 36.8728 49.8088 39.7605C49.9393 40.0558 50.0528 40.3583 50.1516 40.6638L50.1518 40.6643L50.1543 40.671L50.155 40.6733C50.1845 40.7648 50.2126 40.8564 50.2395 40.9482L51.6408 45.5028L50.7647 46.019L50.7553 46.0233L50.7552 46.0234C50.749 46.1092 50.7453 46.1557 50.7453 46.1557L50.8532 46.7892L51.0564 47.9729C51.1229 48.3648 51.1226 48.7627 51.0572 49.1506C51.0121 49.4242 50.9329 49.6939 50.8211 49.9524C50.6897 50.2557 50.5161 50.5397 50.3086 50.7925C50.2006 50.925 50.0821 51.0479 49.9552 51.1618C49.8881 51.2223 49.8204 51.2791 49.7492 51.3341L49.7487 51.3345L51.7127 58.5817C51.7127 58.5817 49.709 59.6818 47.2559 59.6683C45.7737 59.6627 44.1253 59.2475 42.657 57.9391C42.657 57.9391 42.7631 51.8106 41.4725 47.3888Z" fill="#FFC4B8"/>
<path fill-rule="evenodd" clip-rule="evenodd" d="M47.2594 59.5765C45.7771 59.5709 44.1287 59.1557 42.6604 57.8473C42.6604 57.8473 42.7877 51.2776 41.3266 46.8335C41.3266 46.8335 46.3614 54.2137 47.2594 59.5765ZM50.7704 46.0448C50.4609 46.2118 50.0807 46.0215 50.0293 45.6739L49.6981 43.433L50.7704 46.0448Z" fill="#F4A48D"/>
<path fill-rule="evenodd" clip-rule="evenodd" d="M42.2755 43.6116C41.744 43.16 41.1239 43.0039 40.6787 43.2703C40.0451 43.6492 40.004 44.741 40.5868 45.7067C40.7898 46.043 41.0419 46.32 41.311 46.5222C41.3915 46.8306 41.4619 47.1358 41.5233 47.4369C40.5142 46.9076 39.4889 46.1415 38.8629 45.1041C36.9108 41.8697 37.5774 38.3295 41.3796 36.055C44.2339 34.3475 47.8271 34.9583 49.8714 37.3514L49.6519 37.9474L49.6494 37.9429L49.5936 37.9398L43.7496 37.5827L43.1664 41.7523L43.8797 42.5821L47.0426 46.2557C47.2626 46.5133 47.5464 46.7003 47.8594 46.805C48.0975 46.8854 48.3515 46.9199 48.6093 46.9016L48.6108 46.9007C48.6924 46.8944 48.7738 46.8841 48.8555 46.8678C48.9861 46.8423 49.1124 46.8032 49.234 46.7528L50.2351 46.3303C50.3295 46.2901 50.4275 46.2557 50.5257 46.2253C50.7052 46.1706 50.8891 46.1336 51.0749 46.1136C51.0789 46.1133 51.082 46.1115 51.0853 46.1136L51.0752 46.1175C51.0628 46.2039 51.0558 46.2508 51.0558 46.2508L51.1223 46.8961L49.7572 47.4126C49.7214 47.426 49.6891 47.4412 49.657 47.4605C49.4901 47.5603 49.3786 47.7345 49.3618 47.9309C49.3419 48.1637 49.4621 48.3837 49.668 48.4936L51.0216 49.2142L51.1662 49.2919C51.1007 49.5662 51.0003 49.8349 50.8674 50.0909C50.7111 50.391 50.5127 50.6699 50.2818 50.9154C50.1616 51.0441 50.0312 51.1627 49.8928 51.2717L49.8214 51.2537C49.7526 51.2361 49.6812 51.2179 49.6129 51.198C47.6687 50.6687 45.9384 49.6242 44.5946 48.1945C44.1082 47.6787 43.6726 47.1124 43.2977 46.5015C43.2576 46.4385 43.2189 46.3744 43.1809 46.308L43.1806 46.3075C43.399 45.7946 43.3036 45.0311 42.8825 44.3333L42.8674 44.3085L42.8622 44.3002L42.852 44.2838L42.8459 44.2742L42.8363 44.2591L42.83 44.2493L42.8202 44.2342L42.8141 44.225L42.8022 44.2071L42.7982 44.2011L42.7825 44.178L42.7765 44.1694L42.7662 44.1546L42.7593 44.1447L42.7497 44.1313L42.7425 44.1212L42.7329 44.108L42.7258 44.0982L42.7152 44.0838L42.709 44.0755L42.6928 44.054L42.6863 44.0456L42.6757 44.0319L42.6681 44.0221L42.6585 44.0099L42.6505 43.9999L42.641 43.9881L42.633 43.9782L42.6229 43.9659L42.6155 43.9569L42.5987 43.9368L42.5921 43.9291L42.5809 43.916L42.5728 43.9067L42.563 43.8954L42.5546 43.8858L42.5448 43.8749L42.5364 43.8654L42.5262 43.8543L42.5182 43.8454L42.5052 43.8314L42.5003 43.8262L42.4952 43.8207L42.4823 43.8072L42.4742 43.7986L42.4638 43.7879L42.4551 43.779L42.445 43.7687L42.4363 43.76L42.4258 43.7495L42.4175 43.7414L42.405 43.7292L42.3986 43.723L42.3804 43.7056L42.3727 43.6984L42.3612 43.6877L42.3528 43.6799L42.3419 43.6699L42.3333 43.6622L42.3221 43.6521L42.314 43.6449L42.301 43.6335L42.2945 43.6279L42.2755 43.6116Z" fill="#444444"/>
<path fill-rule="evenodd" clip-rule="evenodd" d="M114.283 49.149C115.807 48.029 116.797 46.2238 116.797 44.1891C116.797 40.7943 114.041 38.0381 110.646 38.0381C107.511 38.0381 104.921 40.3879 104.543 43.4206C104.476 43.7366 104.428 44.056 104.395 44.3754L104.395 44.376L104.394 44.383L104.394 44.3855C104.384 44.481 104.375 44.5765 104.368 44.6719L103.944 49.4183L104.909 49.7411L104.919 49.7433L104.919 49.7434C104.943 49.8261 104.956 49.8708 104.956 49.8708L104.982 50.5128L105.03 51.7129C105.046 52.11 105.129 52.4992 105.274 52.8651C105.375 53.1233 105.508 53.3706 105.671 53.6002C105.863 53.8696 106.092 54.1113 106.347 54.3154C106.48 54.4225 106.622 54.5181 106.77 54.6032C106.848 54.6484 106.926 54.6899 107.007 54.7289L107.008 54.7291L106.593 62.2264C106.593 62.2264 108.782 62.8858 111.179 62.3626C112.627 62.0489 114.153 61.3001 115.318 59.715C115.318 59.715 113.94 53.7425 114.283 49.149Z" fill="#FFC4B8"/>
<path fill-rule="evenodd" clip-rule="evenodd" d="M111.158 62.2738C112.607 61.9602 114.133 61.2114 115.297 59.6262C115.297 59.6262 113.806 53.2266 114.312 48.5759C114.312 48.5759 110.921 56.8416 111.158 62.2738ZM104.914 49.7679C105.251 49.8669 105.583 49.6018 105.561 49.2511L105.42 46.9902L104.914 49.7679Z" fill="#F4A48D"/>
<path fill-rule="evenodd" clip-rule="evenodd" d="M110.993 70.543C118.11 70.7024 125.372 69.0474 125.402 62.8365C125.437 55.5706 120.759 44.6357 119.076 41.0749C117.907 38.6002 114.417 35.0926 108.928 36.2533C108.051 36.4387 106.778 37.1036 106.182 37.7147C106.146 37.7513 106.11 37.787 106.074 37.8218C103.484 38.204 101.405 40.3205 101.191 43.0247C101.168 43.3136 101.167 43.5994 101.187 43.8802C101.139 47.6784 101.005 62.9879 101.94 66.4692C102.433 68.3032 107.885 70.4734 110.993 70.543ZM108.636 62.4789C107.871 62.3992 107.185 62.2885 106.603 62.1372L107.017 54.6399L107.016 54.6397C106.935 54.6007 106.857 54.5592 106.779 54.514C106.631 54.4289 106.49 54.3333 106.357 54.2262C106.101 54.0221 105.872 53.7804 105.68 53.511C105.517 53.2814 105.384 53.0341 105.283 52.7758C105.138 52.41 105.055 52.0207 105.039 51.6237L104.991 50.4237L104.965 49.7815C104.965 49.7815 104.952 49.7368 104.928 49.6542L104.918 49.6519L103.954 49.3291L104.377 44.5826C104.385 44.4874 104.393 44.3918 104.403 44.2963L104.403 44.2937L104.404 44.2867V44.2862C104.437 43.9667 104.485 43.6473 104.552 43.3313C104.627 42.729 104.789 42.1536 105.026 41.6184C105.568 40.7902 106.234 40.0713 108.606 40.0852C111.524 40.1028 112.608 41.6616 113.085 42.7001C113.521 43.6522 113.678 44.7759 113.678 44.7759L113.679 44.7783L113.709 44.9494L113.713 44.9763L113.718 45.0022C114.23 44.316 114.929 43.9797 115.392 44.2401C115.833 44.4885 115.922 45.2017 115.652 45.9552C115.613 46.0974 115.56 46.2413 115.493 46.3841L115.481 46.4088L115.478 46.4158L115.468 46.4347L115.465 46.4411L115.453 46.465L115.451 46.4694L115.441 46.4894L115.437 46.4967L115.427 46.5156L115.424 46.5207C115.163 47.0033 114.784 47.3504 114.408 47.486C114.384 47.4986 114.359 47.5104 114.335 47.5213C114.335 47.5213 114.286 48.9928 114.273 49.0972C113.757 53.1271 115.2 59.0645 115.306 59.6476C114.259 61.0194 112.892 62.0044 110.556 62.4012C109.853 62.4943 109.174 62.5007 108.636 62.4789Z" fill="#444444"/>
<path fill-rule="evenodd" clip-rule="evenodd" d="M67.081 28.683C67.7576 27.495 67.8802 26.012 67.282 24.6684C66.2834 22.4255 63.6517 21.4152 61.4087 22.4139C59.3574 23.3272 58.3372 25.6065 58.9418 27.7051L59.1485 28.8497L59.5101 31.3098L59.8492 31.202C60.0758 31.5372 60.3363 31.8546 60.6245 32.1414C60.7866 32.3038 60.9577 32.4558 61.1371 32.5962C61.8962 33.1914 62.7963 33.5734 63.763 33.5721C63.8761 33.572 63.9879 33.5522 64.098 33.5155C64.1171 33.7211 64.0561 34.0567 64.064 34.0787C64.064 34.0787 65.492 34.2458 66.777 33.3509C68.2955 32.2933 68.2123 30.9791 68.2123 30.9791C67.5906 29.6031 67.4175 29.5209 67.3372 29.3448C67.2299 29.1112 67.1505 28.8999 67.0978 28.7454C67.0932 28.732 67.0876 28.7107 67.081 28.683Z" fill="#F4A48D"/>
<path fill-rule="evenodd" clip-rule="evenodd" d="M65.505 32.2547C65.144 33.2145 64.7159 33.8065 64.2824 34.1583C64.2213 33.9596 64.1617 33.7668 64.1113 33.6034C64.1474 33.591 64.1833 33.5768 64.219 33.5609C64.6945 33.3492 65.1342 32.8346 65.505 32.2547ZM59.8511 29.3825L60.2941 30.6862L60.2958 30.6914C60.3667 30.9052 60.2538 31.134 60.0517 31.2239C60.037 31.2305 60.0217 31.2363 60.0061 31.2413L59.8948 31.277L59.8511 29.3825Z" fill="#A66555"/>
<path fill-rule="evenodd" clip-rule="evenodd" d="M58.2406 26.4669C57.9583 26.1868 57.7389 25.835 57.6139 25.4283C57.2086 24.1093 57.9493 22.7116 59.2682 22.3063C59.8562 22.1256 60.4599 22.1727 60.9843 22.3973C61.6694 22.0066 62.4658 21.7906 63.3118 21.8083C64.1209 21.8252 64.8759 22.054 65.5251 22.4411C66.2854 22.894 66.9006 23.5641 67.2861 24.3641C67.7352 24.6722 68.0873 25.1286 68.2597 25.6898C68.6086 26.8253 68.1081 28.0192 67.1205 28.588C67.0599 28.7094 66.7612 28.5598 66.6854 28.4681C66.4942 28.2809 66.378 28.0609 66.3522 27.8014C66.5392 27.6246 66.6701 27.2847 66.6783 26.8918C66.6904 26.3109 66.4299 25.8344 66.0964 25.8274L66.0914 25.8273L66.0897 25.8273L66.0863 25.8273L66.0842 25.8274L66.0813 25.8274L66.079 25.8275L66.0763 25.8276L66.0738 25.8277L66.0713 25.8278L66.0686 25.8279L66.0662 25.8281L66.0634 25.8283L66.0612 25.8284L66.0582 25.8287L66.0563 25.8288L66.053 25.8292L66.0513 25.8293L66.0478 25.8297L66.0463 25.8299L66.0426 25.8304L66.0413 25.8306L66.0374 25.8311L66.0364 25.8313L66.0321 25.8319L66.0315 25.832L66.0269 25.8328L66.0265 25.8329L66.0216 25.8338C65.8374 25.8694 65.6757 26.0486 65.5758 26.3062L65.5743 26.3101C65.5669 26.2999 65.5595 26.2898 65.552 26.2797L65.5502 26.2773L65.5409 26.2649L65.5382 26.2613L65.5297 26.2502L65.5265 26.246L65.5184 26.2355L65.5149 26.231L65.507 26.2209L65.5033 26.2163L65.4955 26.2064L65.4917 26.2017L65.4838 26.1918L65.4801 26.1872L65.4719 26.1772L65.4684 26.1729L65.4598 26.1625L65.4566 26.1587L65.4471 26.1474L65.4447 26.1446L65.4332 26.131L65.4328 26.1306L65.4205 26.1162L65.4081 26.1021L65.4069 26.1007L65.396 26.0884L65.393 26.085L65.3837 26.0747L65.38 26.0706L65.3714 26.0612L65.3672 26.0566L65.3589 26.0477L65.3545 26.0429L65.3464 26.0342L65.3418 26.0294L65.3337 26.0209L65.3291 26.016L65.3209 26.0075L65.3163 26.0028L65.3079 25.9942L65.3035 25.9897L65.2947 25.9808L65.2906 25.9766L65.2811 25.9671L65.2777 25.9637L65.2661 25.9523L65.2647 25.9509L65.2513 25.9378L65.238 25.9251L65.2351 25.9224L65.2248 25.9126L65.2206 25.9087L65.2114 25.9001L65.2066 25.8957L65.198 25.8878L65.1929 25.8831L65.1845 25.8755L65.1792 25.8707L65.1709 25.8633L65.1655 25.8584L65.1573 25.8512L65.1517 25.8463L65.1435 25.8391L65.138 25.8343L65.1295 25.827L65.1241 25.8224L65.1154 25.815L65.1102 25.8106L65.1008 25.8028L65.0962 25.799L65.0851 25.7897L65.0822 25.7874L65.068 25.7758L65.0666 25.7746L65.0538 25.7644L65.0493 25.7608L65.0396 25.7531L65.0341 25.7488L65.0253 25.7419L65.0194 25.7373L65.0109 25.7308L65.0047 25.7261L64.9965 25.7198L64.9901 25.715L64.982 25.7089L64.9755 25.7041L64.9674 25.6981L64.9608 25.6933L64.9527 25.6873L64.9461 25.6826L64.9379 25.6766L64.9313 25.672L64.9229 25.666L64.9165 25.6615L64.9077 25.6553L64.9016 25.6511L64.8917 25.6442L64.8867 25.6408L64.8719 25.6307L64.8668 25.6273L64.8568 25.6207L64.8503 25.6164L64.8417 25.6107L64.8347 25.6061L64.8266 25.6008L64.8193 25.5962L64.8113 25.591L64.8039 25.5863L64.796 25.5814L64.7885 25.5766L64.7807 25.5718L64.773 25.5671L64.7653 25.5623L64.7575 25.5576L64.7498 25.553L64.742 25.5483L64.7343 25.5437L64.7264 25.539L64.7187 25.5346L64.7107 25.5299L64.7032 25.5255L64.695 25.5208L64.6877 25.5167C64.6769 25.5105 64.666 25.5045 64.655 25.4985L64.6483 25.4947L64.6394 25.4899L64.6324 25.4861L64.6235 25.4814L64.6165 25.4776L64.6076 25.473L64.6005 25.4693L64.5915 25.4646L64.5845 25.461L64.5754 25.4564L64.5684 25.4528L64.5593 25.4482L64.5523 25.4447L64.543 25.4402L64.5362 25.4368L64.5268 25.4322L64.5202 25.429L64.5104 25.4244L64.5043 25.4214L64.494 25.4166L64.4888 25.4142L64.4776 25.409L64.4754 25.408C64.461 25.4014 64.4466 25.3949 64.4322 25.3886L64.4294 25.3874L64.4176 25.3822L64.4129 25.3802L64.4017 25.3754L64.3963 25.3731L64.3853 25.3685L64.3796 25.3662L64.3688 25.3617L64.363 25.3593L64.3521 25.3549L64.3464 25.3526L64.3353 25.3482L64.3298 25.346L64.3185 25.3416L64.3132 25.3396L64.3016 25.3352L64.2969 25.3334L64.2846 25.3288L64.2809 25.3274L64.2676 25.3225L64.2661 25.3219C64.2395 25.3123 64.2128 25.303 64.186 25.2941L64.1844 25.2936L64.1702 25.289L64.1672 25.288L64.1537 25.2837L64.1501 25.2825L64.1368 25.2784L64.133 25.2772L64.1197 25.2731L64.1159 25.272L64.1024 25.268L64.0989 25.2669L64.0851 25.2629L64.0821 25.262L64.0677 25.2579L64.0657 25.2574L64.0502 25.253L64.05 25.253C64.005 25.2406 63.9596 25.2294 63.9138 25.2192L63.9131 25.2191L63.8967 25.2155L63.8956 25.2152L63.8793 25.2118L63.8782 25.2116L63.8617 25.2082L63.8611 25.2081C63.8092 25.1976 63.7568 25.1886 63.7041 25.1811L63.7041 25.1811C63.6458 25.1728 63.5871 25.1663 63.5279 25.1617L63.0041 25.1204C62.8243 25.1063 62.6449 25.1023 62.4664 25.1082L62.436 25.1093L62.4345 25.1094L62.4039 25.1107L62.3728 25.1123L62.3724 25.1123L62.3435 25.1139L62.3397 25.1141L62.3108 25.1159L62.3103 25.116L62.2793 25.1181L62.2504 25.1203L62.2453 25.1207L62.2199 25.1228L62.2158 25.1231L62.1861 25.1258L62.1572 25.1285L62.1514 25.1291L62.1279 25.1315L62.1216 25.1321L62.0931 25.1352L62.064 25.1386L62.0581 25.1393L62.0353 25.142L62.0278 25.143L62.004 25.146L61.9994 25.1466L61.9708 25.1504L61.9657 25.1511L61.9426 25.1544L61.9345 25.1556L61.913 25.1587L61.906 25.1598L61.8779 25.1641L61.875 25.1646L61.85 25.1686L61.8417 25.17L61.8212 25.1734L61.8131 25.1748L61.7867 25.1794L61.7853 25.1796L61.7575 25.1846L61.7496 25.1861L61.7293 25.1899L61.7206 25.1916L61.6984 25.1959L61.6928 25.197L61.6653 25.2025L61.6584 25.2039L61.6375 25.2082L61.6286 25.2101L61.6082 25.2145L61.6008 25.216L61.5735 25.2221L61.5686 25.2232L61.546 25.2283L61.5373 25.2304L61.5175 25.235L61.5093 25.2369L61.482 25.2435C61.4106 25.261 61.3396 25.2801 61.269 25.3008C61.6572 25.4116 61.9526 25.5784 61.9526 25.5784C60.5124 28.3227 57.7675 27.711 57.7675 27.711C57.7717 27.458 58.1766 26.6008 58.2406 26.4669Z" fill="#444444"/>
<path fill-rule="evenodd" clip-rule="evenodd" d="M50.6797 54.1657L59.8011 48.0848L66.042 37.043L68.6366 38.7303L63.9617 51.6054L52.7601 56.4061L50.6797 54.1657Z" fill="#CEDEE7"/>
<path fill-rule="evenodd" clip-rule="evenodd" d="M107.568 58.1592L105.528 59.1265L97.0469 71.4485L97.4897 74.409L103.768 74.3289L107.568 58.1592Z" fill="#34466B"/>
<path fill-rule="evenodd" clip-rule="evenodd" d="M63.8568 86.9897L64.4142 110.771L60.2958 141.492L56.8495 141.533L54.3371 113.261L49.2852 85.0205L63.8568 86.9897Z" fill="#34466B"/>
<path fill-rule="evenodd" clip-rule="evenodd" d="M56.8633 141.122L56.8854 142.985L60.6344 144.804L62.4758 142.919L60.5902 141.078L56.8633 141.122Z" fill="#CEDEE7"/>
<path fill-rule="evenodd" clip-rule="evenodd" d="M45.1387 142.02L48.1021 144.538L47.3612 146.02L41.8789 144.835V142.02H45.1387Z" fill="#CEDEE7"/>
<path fill-rule="evenodd" clip-rule="evenodd" d="M51.9077 96.3446L49.4445 119.396L46.1943 142.372L41.5587 142.152L41.7279 118.316L38.9375 96.2084L45.4908 93.1558L51.9077 96.3446Z" fill="#34466B"/>
<path fill-rule="evenodd" clip-rule="evenodd" d="M51.4629 53.9429C51.4629 53.9429 57.5906 57.8854 62.2376 69.8171C66.9692 81.9665 67.7999 98.4927 67.7999 98.4927C67.7999 98.4927 57.6478 100.553 37.3438 104.674L39.4754 73.8488L42.4584 55.6326L51.4629 53.9429Z" fill="#9BC3D3"/>
<path fill-rule="evenodd" clip-rule="evenodd" d="M120.714 95.9539L121.166 100.435L117.153 115.833L120.881 140.576L118.136 141.523L110.902 117.366L109.754 110.339L109.796 95.4619L120.714 95.9539Z" fill="#FFC4B8"/>
<path fill-rule="evenodd" clip-rule="evenodd" d="M121.19 142.752L118.36 144.248L116.797 142.955L118.078 140.922L120.736 139.457L120.886 140.933L121.19 142.752Z" fill="#CEDEE7"/>
<path fill-rule="evenodd" clip-rule="evenodd" d="M99.6133 100.949L105.384 142.409H108.007L108.479 115.833L113.253 97.1797L99.6133 100.949Z" fill="#FFC4B8"/>
<path fill-rule="evenodd" clip-rule="evenodd" d="M108.007 144.4L104.346 144.949L103.797 143.118L105.153 142.082H107.989L108.007 144.4Z" fill="#CEDEE7"/>
<path fill-rule="evenodd" clip-rule="evenodd" d="M119.013 62.5834C118.898 59.6395 116.831 58.1117 116.83 58.1112C115.923 57.9092 115.134 57.3254 114.218 57.0951C108.024 55.5365 104.646 60.2662 102.327 65.3675C99.4698 71.6528 97.0696 78.1477 95.1292 84.7732C93.4261 90.5882 91.7193 96.4555 91.0052 102.49C90.7104 104.98 90.4645 107.342 93.1909 108.44C97.535 110.19 102.417 110.152 107.005 110.714C110.519 111.143 115.919 111.632 123.205 112.18C122.942 107.856 122.064 100.786 120.57 90.9714C118.329 76.2491 119.129 65.5274 119.013 62.5834Z" fill="#34466B"/>
<path fill-rule="evenodd" clip-rule="evenodd" d="M75.0117 47.6901L77.0864 49.5477L86.0858 52.4926L86.7575 50.9009L79.7439 46.0396L75.0117 47.6901Z" fill="#F4A48D"/>
<path fill-rule="evenodd" clip-rule="evenodd" d="M72.4961 50.7401L73.4696 52.9108L81.5939 57.9267L82.8023 56.8066L76.9509 51.0192L75.7701 47.9389L73.4914 47.6982L72.4961 50.7401Z" fill="#F4A48D"/>
<path fill-rule="evenodd" clip-rule="evenodd" d="M68.7577 29.6789C70.0104 29.7349 74.9838 30.794 77.5592 33.0849C79.2761 34.6121 81.6755 37.9718 84.7573 43.164L70.112 53.5988C68.8467 47.0081 67.3564 42.3077 65.6411 39.4974C63.0681 35.2821 62.36 33.9149 65.7184 32.1801C66.9095 30.4753 67.9226 29.6415 68.7577 29.6789Z" fill="#723846"/>
<path fill-rule="evenodd" clip-rule="evenodd" d="M67.5508 30.1664L72.8921 26.7861L76.3931 23.7905L77.8368 25.1446L75.3764 28.9029L71.5181 31.8825L69.1984 31.814L67.5508 30.1664Z" fill="#723846"/>
<path fill-rule="evenodd" clip-rule="evenodd" d="M63.5227 34.1938L61.5622 38.243L58.1445 40.1631L58.6984 41.4103L62.8962 40.4518L65.3705 37.9835L64.8041 34.3769L63.5227 34.1938Z" fill="#723846"/>
<path fill-rule="evenodd" clip-rule="evenodd" d="M85.8672 52.5898L86.4839 54.3069L87.2415 54.0497L87.5816 51.4669L86.6164 50.8145L85.8672 52.5898Z" fill="#CEDEE7"/>
<path d="M82.5475 56.5552L81.1109 57.6006L80.6367 58.7924L81.4498 59.3952L83.2084 57.1082L82.5475 56.5552Z" fill="black"/>
<path fill-rule="evenodd" clip-rule="evenodd" d="M76.5508 23.9363L77.6253 21.9111L78.0447 22.1447L78.0267 24.1498L78.4621 24.0259L78.446 24.3834L77.6266 24.9452L76.5508 23.9363Z" fill="#F4A48D"/>
<path fill-rule="evenodd" clip-rule="evenodd" d="M58.2309 40.3092L57.3179 40.2739L56.6328 41.1746L57.0981 41.9833L58.0927 42.1711L58.6566 41.3669L58.2309 40.3092Z" fill="#F4A48D"/>
<path fill-rule="evenodd" clip-rule="evenodd" d="M82.6655 55.6618C77.5359 56.5881 72.0008 61.1413 71.7295 66.0958C68.991 61.9579 60.5427 61.2468 55.6485 63.0405C42.7331 67.7742 42.5082 84.6586 50.9752 93.6743C55.5323 98.5267 61.2151 102.308 67.1552 105.477C72.1295 108.13 84.496 113.265 84.5199 113.23C84.5584 113.248 92.6329 102.566 95.5837 97.7626C99.1072 92.0259 102.099 85.8903 103.578 79.3998C106.326 67.3408 96.202 53.2173 82.6655 55.6618Z" fill="#2A8FEC"/>
<path d="M84.7875 113.365C84.7153 113.365 79.201 111.085 74.0703 108.782C74.0819 108.782 74.0935 108.782 74.105 108.782C79.1473 111.037 84.4493 113.229 84.5209 113.229C84.5212 113.229 84.5215 113.229 84.5215 113.229H84.5216C84.5543 113.229 87.7367 109.035 90.8327 104.724C90.8338 104.887 90.8395 105.047 90.8509 105.205C87.8354 109.393 84.82 113.365 84.7882 113.365H84.788C84.788 113.365 84.7878 113.365 84.7875 113.365Z" fill="#CCCCCC"/>
<path fill-rule="evenodd" clip-rule="evenodd" d="M89.624 80.1349C87.0599 75.6447 84.4958 71.1544 81.9317 66.6643C81.5612 66.0151 80.5987 66.3326 80.568 67.0344C80.1683 76.1702 79.7686 85.3058 79.369 94.4415C79.3458 94.9708 79.3227 95.4999 79.2995 96.029C75.9742 90.9887 72.649 85.9485 69.3236 80.9084C68.7904 80.0999 68.257 79.2917 67.7237 78.4832C67.4023 77.996 66.5135 78.0093 66.3853 78.665C65.7898 81.7138 65.1942 84.7627 64.5986 87.8114C60.7228 88.8631 52.0214 91.3575 48.1456 92.4092C47.2355 92.6561 47.6179 94.0708 48.5294 93.8235C52.5512 92.7321 61.3986 90.1983 65.4203 89.1069C65.6557 89.0431 65.8875 88.8391 65.936 88.591C66.4464 85.9783 66.9568 83.3655 67.4672 80.7528C70.8786 85.9238 74.2903 91.0948 77.7017 96.2656C78.235 97.074 78.7682 97.8823 79.3016 98.6907C79.7017 99.297 80.6331 99.0556 80.6654 98.3206C81.065 89.1849 81.4647 80.0491 81.8644 70.9134C81.8836 70.4764 81.9026 70.0393 81.9218 69.6023C84.1631 73.5273 86.4044 77.4522 88.6457 81.3773C88.8014 81.6498 89.1649 81.8026 89.4685 81.7114C93.0862 80.6242 104.024 77.3864 107.642 76.2993C108.544 76.0282 108.163 74.6129 107.258 74.8849C97.7941 77.6961 91.916 79.4461 89.624 80.1349Z" fill="white"/>
<path fill-rule="evenodd" clip-rule="evenodd" d="M89.8789 125.981V143.109H92.4642L94.0801 132.767L95.5343 124.85L89.8789 125.981Z" fill="#34466B"/>
<path fill-rule="evenodd" clip-rule="evenodd" d="M95.5352 124.203L96.5047 131.636L97.7974 143.594L100.383 143.432V134.222L101.675 124.85L95.5352 124.203Z" fill="#34466B"/>
<path fill-rule="evenodd" clip-rule="evenodd" d="M97.1523 99.8037L101.677 101.42L105.716 111.438L108.948 118.709L107.171 119.84L102 112.569L97.1523 99.8037Z" fill="#9BC3D3"/>
<path fill-rule="evenodd" clip-rule="evenodd" d="M107.168 119.84L108.299 121.456L108.945 120.81H110.884L108.945 118.709L107.168 119.84Z" fill="#FFC4B8"/>
<path fill-rule="evenodd" clip-rule="evenodd" d="M89.8801 143.108L88.4258 144.563L89.0721 145.532L91.9806 144.563V143.108H89.8801Z" fill="#CEDEE7"/>
<path fill-rule="evenodd" clip-rule="evenodd" d="M98.2305 143.566L98.769 145.694L100.546 146.34L101.516 145.855L100.011 143.455L98.2305 143.566Z" fill="#CEDEE7"/>
<path fill-rule="evenodd" clip-rule="evenodd" d="M92.7078 99.5728L90.8035 101.053L86.9629 110.174L84.5625 116.735L86.1628 117.536L88.4031 114.495L92.7078 99.5728Z" fill="#9BC3D3"/>
<path fill-rule="evenodd" clip-rule="evenodd" d="M86.1622 117.536L85.8421 118.336L83.7617 119.136V118.016L84.5619 116.736L86.1622 117.536Z" fill="#FFC4B8"/>
<path fill-rule="evenodd" clip-rule="evenodd" d="M97.3331 59.9319L96.7081 58.0721L94.6934 56.7671L91.8789 58.7571L93.4509 60.1569L96.4887 59.3918L97.3331 59.9319Z" fill="#FFC4B8"/>
<path fill-rule="evenodd" clip-rule="evenodd" d="M73.0117 35.493L73.3525 32.1056L73.8821 31.6014L74.5654 31.889L74.5246 32.791L75.1545 31.8469L76.4484 31.2944L78.2732 32.8637L76.6221 36.3771L73.0117 35.493Z" fill="#FFC4B8"/>
<path fill-rule="evenodd" clip-rule="evenodd" d="M42.0474 58.159L62.0417 50.805L73.0834 34.0024L76.924 36.0827L68.9227 55.1257L48.5247 66.2839L41.3984 62.0068L42.0474 58.159Z" fill="#9BC3D3"/>
<path fill-rule="evenodd" clip-rule="evenodd" d="M120.408 62.4872L117.046 81.3702L105.365 90.6517L103.215 88.2086L112.246 77.6896L113.846 63.4473L116.887 58.1665L120.408 62.4872Z" fill="#34466B"/>
<path fill-rule="evenodd" clip-rule="evenodd" d="M90.4449 102.955C89.6907 105.755 88.2365 114.624 86.082 129.561L104.26 126.95C105.445 108.529 102.133 99.292 94.3228 99.2382C94.3228 99.2382 91.5759 98.7535 90.4449 102.955Z" fill="#9BC3D3"/>
<path fill-rule="evenodd" clip-rule="evenodd" d="M99.3277 98.2597C99.8953 97.9031 100.399 97.4251 100.798 96.8341C102.33 94.5625 101.73 91.4743 99.4584 89.9421C97.1869 88.4099 94.0987 89.0102 92.5665 91.2818C92.2657 91.7278 92.0471 92.2052 91.9072 92.6962L91.6392 93.2114C91.521 93.439 91.4152 93.673 91.3216 93.9124C91.2368 94.1281 91.1763 94.3504 91.1406 94.5768C91.1048 94.7981 91.0927 95.0223 91.1049 95.2468L90.8829 95.6588L91.1936 95.8601C91.2177 95.9572 91.2465 96.0536 91.2801 96.1488L91.5814 97.0138L91.5814 97.0138L91.5987 97.0638C91.725 97.4269 91.8882 97.8356 92.0857 98.2358C92.12 98.3052 92.1582 98.37 92.2 98.4304C92.1453 98.5073 92.3927 98.9755 92.3503 99.0559C92.1384 99.4472 92.2953 100.212 92.5961 100.471C93.5032 101.254 94.5317 101.914 96.7113 100.989C97.4578 100.672 98.2223 99.5524 98.6822 98.6016C98.7869 98.5557 98.8902 98.5061 98.9919 98.4528C99.1058 98.401 99.2186 98.3366 99.3277 98.2597Z" fill="#FFC4B8"/>
<path fill-rule="evenodd" clip-rule="evenodd" d="M97.5488 98.3367C97.3525 98.5669 97.1239 98.7717 96.9119 98.8467C96.8986 98.8534 96.8852 98.86 96.8712 98.8663C96.3937 99.0981 95.8755 99.2346 95.3459 99.2614C95.1263 99.2723 94.9242 99.2764 94.793 99.2744C94.1006 99.2629 93.4901 99.2087 93.0089 99.0283C92.742 98.9289 92.5157 98.7899 92.3361 98.5991L92.3365 98.5984C92.3371 98.5913 92.2016 98.426 92.2016 98.426C92.2324 98.6999 92.3741 99.0346 92.3318 99.115C92.759 99.6058 93.8213 99.7676 94.4338 99.7782C94.5649 99.7803 94.7671 99.7761 94.9866 99.7652C95.5314 99.7378 96.0641 99.5944 96.5527 99.3504C96.6431 99.3182 96.7366 99.2625 96.829 99.1912C97.0541 99.0191 97.2739 98.7559 97.4351 98.5169C97.4771 98.4545 97.5155 98.3937 97.5488 98.3367ZM92.323 94.5917L91.2399 95.8935C91.5715 96.1042 91.9517 96.034 92.0252 95.7486L92.323 94.5917Z" fill="#F4A48D"/>
<path fill-rule="evenodd" clip-rule="evenodd" d="M100.128 97.695C100.65 97.5487 101.51 97.071 102.521 95.5909C103.446 94.2361 103.922 92.7774 103.507 91.1163C103.162 89.7348 102.228 88.5106 100.987 87.813C98.2018 86.2476 93.5426 86.7726 92.3632 90.1272C91.7868 91.7668 91.7288 92.0732 92.0105 92.6613C92.1013 92.851 92.5219 93.0136 93.0895 93.1601C93.1703 93.1809 93.5445 92.0101 93.6307 92.0303C93.7106 92.0491 93.502 93.259 93.5857 93.2772C94.7441 93.53 96.2259 93.7395 96.9219 93.9727C98.1036 94.3691 97.5636 96.4713 97.5636 96.4713L98.0484 96.6286L98.0789 96.6507C98.1286 96.5975 98.1818 96.5459 98.2384 96.4964C98.8924 95.9235 99.7529 95.8365 100.161 96.302C100.463 96.6471 100.431 97.1992 100.128 97.695Z" fill="#444444"/>
<path fill-rule="evenodd" clip-rule="evenodd" d="M103.285 88.251L100.564 90.6513L100.5 93.1557L101.525 93.5318L103.285 92.4116L104.766 89.97L103.285 88.251Z" fill="#FFC4B8"/>
</svg>
