<svg width="160" height="160" viewBox="0 0 160 160" fill="none" xmlns="http://www.w3.org/2000/svg">
<path fill-rule="evenodd" clip-rule="evenodd" d="M79.3881 18.5314C60.3234 32.2769 44.7737 28.2937 34.374 26.5852C13.6231 23.1751 5.88846 42.6178 13.458 57.3776C21.0279 72.137 27.3691 90.0955 9.15124 104.335C-9.06621 118.574 11.4392 154.596 40.8007 144.66C70.1619 134.722 103.309 136.127 118.415 146.872C133.521 157.616 166.843 132.498 140.478 107.203C114.113 81.9075 131.323 71.1342 140.324 59.6265C149.326 48.1184 145.641 26.9117 120.454 16.5798C120.454 16.5798 98.4532 4.78642 79.3881 18.5314Z" fill="#EAF7FE"/>
<path fill-rule="evenodd" clip-rule="evenodd" d="M159.964 142.716C159.964 147.446 125.053 151.281 81.9878 151.281C38.9227 151.281 4.01172 147.446 4.01172 142.716C4.01172 137.986 38.9227 134.151 81.9878 134.151C125.053 134.151 159.964 137.986 159.964 142.716Z" fill="#CEDEE7"/>
<path d="M105.392 48.4111C106.85 47.3397 107.797 45.6126 107.797 43.6661C107.797 40.4184 105.16 37.7815 101.912 37.7815C98.9134 37.7815 96.4355 40.0296 96.0733 42.9309C96.0099 43.2332 95.9639 43.5388 95.9322 43.8443L95.9321 43.8448L95.9311 43.8516L95.9309 43.8539C95.9215 43.9454 95.9134 44.0367 95.9064 44.1279L95.5011 48.6688L96.4237 48.9776L96.4333 48.9798L96.4333 48.9798C96.4562 49.0589 96.4689 49.1017 96.4689 49.1017L96.494 49.7159L96.5393 50.864C96.555 51.2439 96.6344 51.6162 96.7728 51.9663C96.8694 52.2133 96.9972 52.4499 97.1532 52.6696C97.3365 52.9273 97.5555 53.1585 97.7999 53.3538C97.9273 53.4563 98.0626 53.5477 98.2041 53.6291C98.2789 53.6724 98.3535 53.7121 98.4311 53.7493L98.4316 53.7496L98.0353 60.9221C98.0353 60.9221 100.129 61.553 102.422 61.0524C103.808 60.7524 105.268 60.036 106.382 58.5195C106.382 58.5195 105.063 52.8057 105.392 48.4111Z" fill="#FFC4B8"/>
<path fill-rule="evenodd" clip-rule="evenodd" d="M102.4 60.9673C103.786 60.6672 105.246 59.9508 106.359 58.4344C106.359 58.4344 104.934 52.3119 105.417 47.8626C105.417 47.8626 102.173 55.7703 102.4 60.9673ZM96.4242 49.0031C96.7471 49.0978 97.0651 48.8441 97.044 48.5086L96.9082 46.3457L96.4242 49.0031Z" fill="#F4A48D"/>
<path fill-rule="evenodd" clip-rule="evenodd" d="M103.853 37.2586C101.298 37.1691 101.612 34.9792 101.612 34.9792C98.8772 35.0687 97.7115 36.0966 97.7115 36.0966C95.5147 37.8392 96.3858 41.3353 96.3858 41.3353C96.721 38.6971 100.771 39.8219 102.356 40.0868C103.004 40.7207 102.754 42.2681 103.082 43.5723C103.088 43.596 103.793 45.3612 103.793 45.3612L103.794 45.3633L103.833 45.5467C103.845 45.5167 103.857 45.4867 103.87 45.4567C104.296 44.45 105.164 43.8546 105.808 44.1253C106.453 44.3965 106.629 45.432 106.203 46.4387C106.055 46.7894 105.68 47.0902 105.452 47.3219C105.276 48.7999 105.309 50.1728 105.433 51.3514L106.094 51.3799L109.322 40.5014C109.499 38.9939 107.974 37.9232 106.896 37.5935C106.057 37.3366 104.972 37.2977 103.853 37.2586Z" fill="#444444"/>
<path d="M82.7387 39.7171L82.7195 39.6965V36.437H82.7387V39.7171Z" fill="#9BC3D3"/>
<path d="M70.3001 45.8781L70.2887 45.9478C70.3216 45.933 70.3552 45.9185 70.3883 45.9038C70.3589 45.8952 70.3296 45.8865 70.3001 45.8781Z" fill="white"/>
<path fill-rule="evenodd" clip-rule="evenodd" d="M107.987 73.6239C107.615 74.3843 107.048 75.5303 106.092 75.427C106.057 75.4234 106.022 75.4057 105.983 75.377C104.866 74.527 102.649 62.9932 102.047 59.7506C102.702 60.0151 103.581 60.1401 104.656 59.7793C105.503 59.4972 106.06 58.9757 106.42 58.3044H110.75C114.147 58.5296 115.754 59.0652 116.535 60.9041C117.645 63.5253 116.714 68.9422 113.821 75.434L107.987 73.6239Z" fill="#34466B"/>
<path fill-rule="evenodd" clip-rule="evenodd" d="M112.616 98.7595H90.7585L91.5651 71.4887L87.5992 74.4206L86.9162 73.8004L86.7965 73.6911L81.8693 69.2263L81.6367 68.9478L87.5255 62.3372C90.667 59.5322 93.914 58.8698 98.0982 58.6689C98.3094 59.3313 98.6265 59.9553 98.9928 60.3672C99.8521 61.3401 99.8346 68.9374 100.159 71.4356C100.778 76.1719 102.835 81.507 105.639 81.8452C106.139 81.9084 106.66 81.8099 107.199 81.5245C108.742 80.7105 109.943 76.9929 112.616 76.0168V98.7595Z" fill="#34466B"/>
<path fill-rule="evenodd" clip-rule="evenodd" d="M90.9494 89.8697C89.5475 90.2473 88.0998 89.7927 88.0088 89.4661C87.9127 89.1395 89.7244 88.7157 89.628 88.2974C89.5777 88.0625 88.7627 88.0882 88.0441 88.1543C87.4066 88.2156 86.7942 87.9146 86.4653 87.3737L86.4198 87.3022L86.0603 86.6593C86.0603 86.6593 85.5087 86.2153 84.6685 85.5056C83.4085 84.4443 79.3089 80.3523 77.6289 78.7142C77.6591 77.6372 77.6999 77.0241 78.5401 76.3452C79.0764 75.9163 80.2512 75.5104 80.909 75.4341C81.6146 76.3603 85.1269 81.2073 86.784 82.7751C87.0929 83.0202 87.4317 83.2807 87.7912 83.5409C87.7912 83.5409 88.4844 83.2753 89.2688 83.3571C89.7546 83.4081 90.7042 83.7851 91.1139 84.2496L90.9494 89.8697Z" fill="#FFC4B8"/>
<path fill-rule="evenodd" clip-rule="evenodd" d="M85.3125 73.7111C84.8071 74.0094 84.0685 74.4622 83.0966 75.0696C81.6388 75.9808 81.0292 76.3645 79.8165 77.0742C78.6037 77.7838 78.0309 77.7494 77.6297 78.7142C77.0584 78.0743 76.5274 77.4896 76.2909 77.0199C75.2977 75.0356 80.8248 69.9929 81.576 69.3131C81.633 69.2631 81.821 69.2383 81.821 69.2383L86.0123 73.0651L85.3125 73.7111Z" fill="#FFC4B8"/>
<path d="M83.8238 77.3083C83.6217 77.2749 83.4211 77.2574 83.2233 77.2574C83.0741 77.2574 82.9264 77.2673 82.7812 77.2881C82.9302 77.267 83.082 77.2564 83.2353 77.2564C83.4264 77.2564 83.6201 77.2726 83.8153 77.3043C83.8181 77.3056 83.821 77.307 83.8238 77.3083Z" fill="#CCCCCC"/>
<path d="M87.6552 83.273C87.6548 83.273 87.6548 83.273 87.6548 83.273C87.6523 83.2712 87.6497 83.2694 87.6472 83.2676C87.6472 83.2672 87.6468 83.2672 87.6468 83.2672C87.6493 83.269 87.6523 83.2712 87.6552 83.273Z" fill="#CCCCCC"/>
<path d="M87.6548 83.2729C87.6523 83.271 87.6497 83.2692 87.6472 83.2674C87.6497 83.2692 87.6523 83.271 87.6548 83.2729Z" fill="#F4A48D"/>
<path d="M87.6539 83.2721C87.6535 83.2721 87.6535 83.2718 87.6535 83.2718C87.6517 83.2707 87.6503 83.2692 87.6484 83.2681C87.6484 83.2681 87.6484 83.2681 87.6481 83.2681C87.6499 83.2692 87.6521 83.2707 87.6539 83.2721Z" fill="#CCCCCC"/>
<path d="M87.6535 83.2719C87.6517 83.2708 87.6503 83.2698 87.6484 83.2683C87.6503 83.2694 87.6517 83.2708 87.6535 83.2719Z" fill="#F4A48D"/>
<path d="M84.7397 75.2524C84.7378 75.252 84.736 75.2516 84.7342 75.2513C84.736 75.2516 84.7378 75.252 84.7397 75.2524Z" fill="#CCCCCC"/>
<path d="M99.4469 59.7886C99.0801 59.3775 98.7626 58.7546 98.551 58.0934C98.2583 57.2139 98.1559 56.2678 98.3748 55.6593C98.5545 55.1669 99.0979 54.136 98.5545 53.925C98.2835 53.8191 97.8778 53.7618 97.6742 54.1134C97.4725 54.4611 97.4735 55.2173 97.0981 55.1212C96.7274 55.0295 96.9215 52.2193 98.9248 51.8005C99.0871 51.7653 99.2598 51.7444 99.4469 51.7444C101.94 51.7444 102.904 53.7388 102.904 53.9006C102.904 54.0659 102.049 58.2953 101.683 58.6691C101.318 59.0429 100.307 60.7598 99.4469 59.7886Z" fill="#F4A48D"/>
<path fill-rule="evenodd" clip-rule="evenodd" d="M113.04 75.683C112.624 76.4391 111.961 77.4556 110.97 78.497C110.049 79.4713 108.696 80.9995 107.151 81.8121C103.557 83.7047 100.403 77.1955 99.6728 71.6307C99.3483 69.1366 99.9442 61.1241 99.0836 60.1529C98.7168 59.7417 98.3993 59.1189 98.1877 58.4577C97.895 57.5782 97.7926 56.6321 98.0115 56.0235C98.1912 55.5311 98.7346 54.5003 98.1912 54.2893C97.9202 54.1833 97.7442 54.5345 97.5406 54.8861C97.3389 55.2338 97.1102 55.5816 96.7348 55.4854C96.3641 55.3937 96.5582 52.5836 98.5615 52.1648C98.7238 52.1296 98.8965 52.1086 99.0836 52.1086C101.577 52.1086 102.54 54.1031 102.54 54.2649C102.54 54.4302 102.05 59.024 102.05 59.024C102.05 59.024 102.103 59.3264 102.205 59.8575C102.833 63.1572 106.279 75.2994 106.279 75.2994C106.279 75.2994 107.164 74.5817 107.827 73.8996C107.914 73.808 107.993 73.7121 108.063 73.6118L113.347 75.2518C113.225 75.3891 113.123 75.5328 113.04 75.683Z" fill="#FFC4B8"/>
<path fill-rule="evenodd" clip-rule="evenodd" d="M95.5818 143.58L99.8986 143.655L99.8412 146.942L99.8275 147.725L94.4844 147.698L92.4302 147.899L92.2123 145.46L92.7733 145.048L95.5818 143.58Z" fill="#444444"/>
<path fill-rule="evenodd" clip-rule="evenodd" d="M107.126 143.75L103.473 145.796L103.622 147.89L110.962 147.606L110.301 143.569L107.126 143.75Z" fill="#444444"/>
<path fill-rule="evenodd" clip-rule="evenodd" d="M110.795 98.7595V144.317H104.857C104.857 144.317 102.111 108.629 101.478 100.431C100.934 100.431 100.193 100.431 100.193 100.431V144.317H94.2584L90.75 98.7595H110.795Z" fill="#9BC3D3"/>
<mask id="mask0_1487_21504" style="mask-type:luminance" maskUnits="userSpaceOnUse" x="116" y="41" width="3" height="3">
<path fill-rule="evenodd" clip-rule="evenodd" d="M116.641 41.5227L118.814 41.6747L118.662 43.8478L116.489 43.6958L116.641 41.5227Z" fill="white"/>
</mask>
<g mask="url(#mask0_1487_21504)">
<path d="M117.979 41.6494C117.691 41.5585 117.412 41.5818 117.149 41.7185C116.886 41.8552 116.706 42.0703 116.615 42.3577C116.524 42.6455 116.548 42.9247 116.685 43.1876C116.821 43.4507 117.036 43.6303 117.324 43.7212C117.438 43.7572 117.55 43.7753 117.661 43.7754C117.83 43.7756 117.995 43.7345 118.154 43.6521C118.417 43.5153 118.596 43.3003 118.687 43.0128C118.778 42.7257 118.755 42.4465 118.618 42.1829C118.481 41.9197 118.266 41.7402 117.979 41.6494Z" fill="#EC0000"/>
</g>
<path fill-rule="evenodd" clip-rule="evenodd" d="M124.612 33.7759C124.131 32.9282 123.321 32.3187 122.204 31.9641C121.088 31.6097 120.071 31.6388 119.181 32.0506C118.408 32.4087 117.841 33.0169 117.495 33.8584C117.437 34.0002 117.441 34.1613 117.505 34.3003C117.57 34.4393 117.69 34.5455 117.835 34.5916L118.5 34.8027C118.766 34.8869 119.051 34.7573 119.165 34.501C119.365 34.0464 119.65 33.7382 120.034 33.5587C120.499 33.3414 121.059 33.3343 121.699 33.5376C122.338 33.7404 122.786 34.0758 123.032 34.5347C123.276 34.992 123.3 35.5431 123.102 36.1725C122.829 37.04 122.397 37.546 121.82 37.6763C121.213 37.8135 120.359 37.7039 119.283 37.3502L118.995 37.2588C118.708 37.1676 118.401 37.3284 118.31 37.6171L117.516 40.1366C117.472 40.2765 117.485 40.4252 117.552 40.5553C117.62 40.6855 117.733 40.7815 117.872 40.8257L118.547 41.0398C118.601 41.0571 118.656 41.0653 118.71 41.0654C118.942 41.0656 119.159 40.9156 119.232 40.6815L119.746 39.0499C119.752 39.0297 119.774 39.018 119.794 39.0237C121.061 39.3889 122.115 39.4149 122.926 39.1009C123.789 38.7668 124.414 38.0012 124.784 36.8252C125.153 35.6538 125.095 34.6279 124.612 33.7759Z" fill="#EC0000"/>
<path d="M33.4883 104.523C33.4883 104.523 33.6437 102.991 38.0199 103.138C42.3963 103.286 48.7334 102.139 52.8306 102.048C57.5686 101.944 62.2684 102.806 62.2684 102.806L55.184 112.973H40.2672L33.4883 104.523Z" fill="#767676"/>
<path fill-rule="evenodd" clip-rule="evenodd" d="M62.4765 92.9982C58.1346 100.003 52.864 106.324 50.4973 113.814C46.6436 112.744 42.796 111.674 38.9102 110.599C40.9066 103.032 41.5157 95.3681 43.2366 87.321C49.5937 88.2663 55.5546 89.9451 61.4338 92.232L62.4765 92.9982Z" fill="#63BA68"/>
<path fill-rule="evenodd" clip-rule="evenodd" d="M62.1204 92.1013C57.6135 98.9005 53.1926 105.816 50.7017 113.18L51.4575 113.376L51.6813 112.714C47.6842 111.677 43.6928 110.638 39.6614 109.597L39.4384 110.259L40.2034 110.425C41.2492 106.719 41.9279 103.004 42.5687 99.2492C43.2094 95.4938 43.8122 91.6974 44.6987 87.822L43.9262 87.6862L43.8026 88.3682C50.3292 89.2756 56.4491 90.886 62.4997 93.0861L62.8018 92.4482L62.1204 92.1013L62.8018 92.4482L63.1038 91.8104C56.9577 89.5753 50.7113 87.93 44.0497 87.0042L43.3021 86.9004L43.1534 87.5505C42.255 91.4781 41.6492 95.2992 41.0101 99.0449C40.371 102.791 39.6984 106.461 38.6734 110.093L38.4922 110.734L39.2154 110.921C43.2453 111.963 47.236 113.001 51.2335 114.039L51.9892 114.235L52.213 113.573C53.8781 108.643 56.458 103.871 59.3722 99.162C60.692 97.0296 62.0803 94.9102 63.4833 92.7952L63.9355 92.1129L63.1038 91.8104L62.8018 92.4482L62.1204 92.1013Z" fill="#008437"/>
<path d="M50.7747 96.8548C54.2368 97.8176 55.9962 100.686 54.8096 103.072C53.6144 105.471 50.5722 106.797 47.8218 106.025C45.0853 105.246 43.1414 102.565 43.5557 99.9883C43.9796 97.4237 47.3101 95.913 50.7747 96.8548Z" fill="#008437"/>
<path d="M39.7461 111.041C40.5525 111.265 41.355 111.488 42.1566 111.712C42.5357 110.464 41.7107 109.145 40.3054 108.768C40.138 109.529 39.9538 110.286 39.7461 111.041Z" fill="#008437"/>
<path d="M47.8843 99.1264C47.3938 99.0379 47.0545 99.3155 46.8705 99.9515C46.6829 100.592 46.8111 100.965 47.2457 101.074C47.5123 101.14 47.7371 101.087 47.9194 100.912C48.1068 100.738 48.3742 100.361 48.7363 99.7804C49.0969 99.2004 49.5168 98.8112 49.9978 98.6175C50.4768 98.4245 51.0269 98.4062 51.6359 98.5674C52.3439 98.7556 52.7974 99.135 52.9801 99.6937C53.1661 100.252 53.1208 100.822 52.8672 101.407C52.2516 102.818 51.2336 103.435 49.8002 103.277C49.9034 102.871 50.0082 102.465 50.1125 102.059C50.8784 102.165 51.4091 101.843 51.7168 101.088C52.0053 100.381 51.8279 99.9385 51.1776 99.7667C50.8907 99.6913 50.6445 99.7214 50.4403 99.8594C50.237 99.9964 49.933 100.365 49.5462 100.965C49.1584 101.563 48.7564 101.963 48.3388 102.166C47.9201 102.367 47.4755 102.407 46.9917 102.285C46.4772 102.154 46.0875 101.859 45.8235 101.399C45.5589 100.94 45.5123 100.355 45.699 99.6467C46.0627 98.24 46.9112 97.6441 48.2053 97.8871C48.0976 98.3004 47.9913 98.7134 47.8843 99.1264Z" fill="#63BA68"/>
<path d="M46.4184 100.125C46.3163 100.343 46.2136 100.561 46.1134 100.778C45.6612 100.716 45.2071 100.654 44.75 100.593C44.8406 100.375 44.9313 100.156 45.02 99.937C45.4909 99.9995 45.957 100.062 46.4184 100.125Z" fill="#63BA68"/>
<path d="M53.9262 101.833C53.771 102.042 53.6172 102.251 53.465 102.46C53.0613 102.39 52.6595 102.322 52.2578 102.254C52.3992 102.042 52.5428 101.831 52.6884 101.619C53.0997 101.69 53.5121 101.761 53.9262 101.833Z" fill="#63BA68"/>
<path d="M50.9138 113.814C51.2022 113.006 51.5113 112.202 51.8399 111.403C50.2361 110.993 48.5487 111.749 48.0859 113.092C49.0278 113.333 49.9707 113.574 50.9138 113.814Z" fill="#008437"/>
<path fill-rule="evenodd" clip-rule="evenodd" d="M63.5183 92.1347C61.5278 91.6131 59.5361 91.1299 57.5297 90.6853C56.5604 92.0883 58.3012 93.7243 61.4534 94.4701C62.1423 93.6908 62.8356 92.9124 63.5183 92.1347Z" fill="#008437"/>
<path d="M42.9133 87.7417C42.6794 88.5587 42.457 89.3692 42.2461 90.1749C45.1842 90.5283 47.8958 89.8172 48.5026 88.4594C46.6642 88.1797 44.8004 87.9396 42.9133 87.7417Z" fill="#008437"/>
<path d="M46.6447 107.964C47.0955 108.101 47.3509 108.571 47.2202 109.014C47.0884 109.456 46.6307 109.707 46.1931 109.573C45.7553 109.44 45.4973 108.971 45.614 108.525C45.7327 108.079 46.194 107.828 46.6447 107.964Z" fill="#008437"/>
<path d="M52.9838 93.2677C53.6722 93.4424 54.0689 93.9396 53.8824 94.3669C53.6937 94.7933 53.0197 94.9974 52.3684 94.835C51.7196 94.6716 51.3072 94.1934 51.4563 93.755C51.6096 93.3186 52.2956 93.0933 52.9838 93.2677Z" fill="#008437"/>
<path fill-rule="evenodd" clip-rule="evenodd" d="M51.7784 111.712C47.7768 111.179 43.78 110.644 39.7461 110.113C40.5704 102.49 39.9985 94.9543 40.4757 86.9006C44.9457 86.9556 50.4632 86.5894 54.7618 87.3211C56.6897 87.6493 57.4286 88.8272 59.35 89.2754C55.1059 99.1674 52.5821 106.646 51.7784 111.712Z" fill="#63BA68"/>
<path fill-rule="evenodd" clip-rule="evenodd" d="M58.8723 88.4805C55.6557 95.9248 52.5367 103.475 51.3242 111.232L52.0737 111.333L52.1828 110.636C48.2185 110.099 44.2586 109.561 40.2611 109.026L40.1533 109.724L40.907 109.793C41.3193 105.917 41.3813 102.078 41.401 98.2039C41.4204 94.3292 41.3975 90.418 41.6323 86.3907L40.8761 86.3526L40.8659 87.0572C45.0982 87.1102 51.1004 87.5847 58.8723 88.4805L59.5748 88.7436L59.7618 88.0607C53.5657 86.5916 47.3667 85.7289 40.8863 85.648L40.159 85.6389L40.1198 86.3144C39.8821 90.396 39.906 94.3326 39.8863 98.1972C39.867 102.062 39.804 105.855 39.3997 109.654L39.3281 110.325L40.0456 110.421C44.0409 110.956 47.9999 111.494 51.9645 112.031L52.7143 112.132L52.8231 111.435C53.9992 103.891 57.0644 96.4359 60.2774 89.0064L60.6004 88.2593L59.7618 88.0607L59.5748 88.7436L58.8723 88.4805Z" fill="#008437"/>
<path d="M39.7461 110.13C40.5751 110.236 41.4015 110.343 42.227 110.45C42.4118 109.233 41.397 108.102 39.9531 107.927C39.9032 108.661 39.8366 109.395 39.7461 110.13Z" fill="#008437"/>
<path d="M51.4027 111.712C51.5321 110.878 51.6778 110.046 51.8416 109.217C50.4341 109.009 49.1209 109.963 48.9219 111.347C49.7486 111.468 50.5766 111.59 51.4027 111.712Z" fill="#008437"/>
<path fill-rule="evenodd" clip-rule="evenodd" d="M54.1349 86.9004C53.5858 88.5521 55.674 90.1827 58.4729 90.6852C58.9045 89.7527 59.339 89.0911 59.7658 88.162C57.989 87.7884 55.9102 87.1872 54.1349 86.9004Z" fill="#008437"/>
<path fill-rule="evenodd" clip-rule="evenodd" d="M40.287 86.0593C40.2335 86.9064 40.192 87.7457 40.1602 88.5788C42.9398 88.6507 45.2951 87.6711 45.5825 86.2424C43.8318 86.1382 42.0656 86.0758 40.287 86.0593Z" fill="#008437"/>
<path fill-rule="evenodd" clip-rule="evenodd" d="M33.4883 104.515C33.4883 104.515 33.6437 101.898 38.0199 102.046C42.3963 102.194 47.0615 104.021 51.1552 104.207C57.0207 104.473 62.2684 102.797 62.2684 102.797L55.184 112.973H40.2672L33.4883 104.515Z" fill="#9BC3D3"/>
<path fill-rule="evenodd" clip-rule="evenodd" d="M63.5368 127.691C61.3121 122.63 57.8912 117.342 54.7374 112.553H39.5015C36.3825 117.342 33.2359 122.697 30.772 127.691C25.5157 138.346 28.5111 141.857 34.6795 144.375C39.2551 146.242 55.053 146.242 59.6286 144.375C65.7979 141.857 67.3533 136.372 63.5368 127.691Z" fill="#9BC3D3"/>
<path d="M56.0127 112.675C56.0127 112.84 55.7066 112.973 55.3297 112.973H38.344C37.9658 112.973 37.6602 112.84 37.6602 112.675V112.43C37.6602 112.266 37.9658 112.132 38.344 112.132H55.3297C55.7066 112.132 56.0127 112.266 56.0127 112.43V112.675Z" fill="#DEEDF2"/>
<path fill-rule="evenodd" clip-rule="evenodd" d="M51.7545 135.82C51.1269 136.242 50.0742 136.663 48.7376 136.663C47.0975 136.663 45.6396 136.041 44.6273 134.877C43.8578 134.034 43.3516 132.871 43.1691 131.426H41.9141V130.442H43.0678V130.142C43.0678 129.82 43.0885 129.519 43.1086 129.239H41.9141V128.235H43.2503C43.4933 126.83 44.1005 125.666 44.9108 124.844C45.9435 123.78 47.2594 123.178 48.9198 123.178C50.1146 123.178 51.0457 123.519 51.6127 123.821L51.2079 125.145C50.7014 124.844 49.8512 124.583 48.9399 124.583C47.8464 124.583 46.9555 124.964 46.2671 125.687C45.6597 126.268 45.2548 127.172 45.0523 128.235H50.7014V129.239H44.8701C44.85 129.499 44.8296 129.8 44.8296 130.081V130.442H50.7014V131.426H44.9714C45.1332 132.589 45.5386 133.452 46.0849 134.054C46.8344 134.837 47.8464 135.218 48.9399 135.218C50.0131 135.218 50.9445 134.817 51.4104 134.556L51.7545 135.82Z" fill="#DEEDF2"/>
<path fill-rule="evenodd" clip-rule="evenodd" d="M27.3318 144.863C27.3318 145.367 25.4548 145.775 23.1404 145.775C20.8253 145.775 18.9492 145.367 18.9492 144.863C18.9492 144.361 20.8253 143.952 23.1404 143.952C25.4548 143.952 27.3318 144.361 27.3318 144.863Z" fill="#D39E00"/>
<path fill-rule="evenodd" clip-rule="evenodd" d="M37.5349 144.863C37.5349 145.367 35.6579 145.775 33.3436 145.775C31.0284 145.775 29.1523 145.367 29.1523 144.863C29.1523 144.361 31.0284 143.952 33.3436 143.952C35.6579 143.952 37.5349 144.361 37.5349 144.863Z" fill="#D39E00"/>
<path fill-rule="evenodd" clip-rule="evenodd" d="M18.9492 144.681H27.3318V143.588H18.9492V144.681Z" fill="#D39E00"/>
<path fill-rule="evenodd" clip-rule="evenodd" d="M29.1523 144.681H37.5349V143.588H29.1523V144.681Z" fill="#D39E00"/>
<path fill-rule="evenodd" clip-rule="evenodd" d="M27.3318 143.77C27.3318 144.273 25.4548 144.681 23.1404 144.681C20.8253 144.681 18.9492 144.273 18.9492 143.77C18.9492 143.267 20.8253 142.859 23.1404 142.859C25.4548 142.859 27.3318 143.267 27.3318 143.77Z" fill="#F6C854"/>
<path fill-rule="evenodd" clip-rule="evenodd" d="M37.5349 143.77C37.5349 144.273 35.6579 144.681 33.3436 144.681C31.0284 144.681 29.1523 144.273 29.1523 143.77C29.1523 143.267 31.0284 142.859 33.3436 142.859C35.6579 142.859 37.5349 143.267 37.5349 143.77Z" fill="#F6C854"/>
<path fill-rule="evenodd" clip-rule="evenodd" d="M27.3318 143.041C27.3318 143.544 25.4548 143.952 23.1404 143.952C20.8253 143.952 18.9492 143.544 18.9492 143.041C18.9492 142.538 20.8253 142.13 23.1404 142.13C25.4548 142.13 27.3318 142.538 27.3318 143.041Z" fill="#D39E00"/>
<path fill-rule="evenodd" clip-rule="evenodd" d="M37.5349 143.041C37.5349 143.544 35.6579 143.952 33.3436 143.952C31.0284 143.952 29.1523 143.544 29.1523 143.041C29.1523 142.538 31.0284 142.13 33.3436 142.13C35.6579 142.13 37.5349 142.538 37.5349 143.041Z" fill="#D39E00"/>
<path fill-rule="evenodd" clip-rule="evenodd" d="M18.9492 143.224H27.3318V142.13H18.9492V143.224Z" fill="#D39E00"/>
<path fill-rule="evenodd" clip-rule="evenodd" d="M29.1523 143.224H37.5349V142.13H29.1523V143.224Z" fill="#D39E00"/>
<path fill-rule="evenodd" clip-rule="evenodd" d="M27.3318 141.947C27.3318 142.451 25.4548 142.859 23.1404 142.859C20.8253 142.859 18.9492 142.451 18.9492 141.947C18.9492 141.445 20.8253 141.037 23.1404 141.037C25.4548 141.037 27.3318 141.445 27.3318 141.947Z" fill="#F6C854"/>
<path fill-rule="evenodd" clip-rule="evenodd" d="M37.5349 141.947C37.5349 142.451 35.6579 142.859 33.3436 142.859C31.0284 142.859 29.1523 142.451 29.1523 141.947C29.1523 141.445 31.0284 141.037 33.3436 141.037C35.6579 141.037 37.5349 141.445 37.5349 141.947Z" fill="#F6C854"/>
<path fill-rule="evenodd" clip-rule="evenodd" d="M27.3318 141.219C27.3318 141.722 25.4548 142.13 23.1404 142.13C20.8253 142.13 18.9492 141.722 18.9492 141.219C18.9492 140.716 20.8253 140.308 23.1404 140.308C25.4548 140.308 27.3318 140.716 27.3318 141.219Z" fill="#D39E00"/>
<path fill-rule="evenodd" clip-rule="evenodd" d="M37.5349 141.219C37.5349 141.722 35.6579 142.13 33.3436 142.13C31.0284 142.13 29.1523 141.722 29.1523 141.219C29.1523 140.716 31.0284 140.308 33.3436 140.308C35.6579 140.308 37.5349 140.716 37.5349 141.219Z" fill="#D39E00"/>
<path fill-rule="evenodd" clip-rule="evenodd" d="M18.9492 141.037H27.3318V139.943H18.9492V141.037Z" fill="#D39E00"/>
<path fill-rule="evenodd" clip-rule="evenodd" d="M29.1523 141.037H37.5349V139.943H29.1523V141.037Z" fill="#D39E00"/>
<path fill-rule="evenodd" clip-rule="evenodd" d="M27.3318 140.125C27.3318 140.629 25.4548 141.037 23.1404 141.037C20.8253 141.037 18.9492 140.629 18.9492 140.125C18.9492 139.622 20.8253 139.214 23.1404 139.214C25.4548 139.214 27.3318 139.622 27.3318 140.125Z" fill="#F6C854"/>
<path fill-rule="evenodd" clip-rule="evenodd" d="M37.5349 140.125C37.5349 140.629 35.6579 141.037 33.3436 141.037C31.0284 141.037 29.1523 140.629 29.1523 140.125C29.1523 139.622 31.0284 139.214 33.3436 139.214C35.6579 139.214 37.5349 139.622 37.5349 140.125Z" fill="#F6C854"/>
<path fill-rule="evenodd" clip-rule="evenodd" d="M27.3318 139.396C27.3318 139.9 25.4548 140.308 23.1404 140.308C20.8253 140.308 18.9492 139.9 18.9492 139.396C18.9492 138.894 20.8253 138.485 23.1404 138.485C25.4548 138.485 27.3318 138.894 27.3318 139.396Z" fill="#D39E00"/>
<path fill-rule="evenodd" clip-rule="evenodd" d="M37.5349 139.396C37.5349 139.9 35.6579 140.308 33.3436 140.308C31.0284 140.308 29.1523 139.9 29.1523 139.396C29.1523 138.894 31.0284 138.485 33.3436 138.485C35.6579 138.485 37.5349 138.894 37.5349 139.396Z" fill="#D39E00"/>
<path fill-rule="evenodd" clip-rule="evenodd" d="M18.9492 139.214H27.3318V138.121H18.9492V139.214Z" fill="#D39E00"/>
<path fill-rule="evenodd" clip-rule="evenodd" d="M29.1523 139.214H37.5349V138.121H29.1523V139.214Z" fill="#D39E00"/>
<path fill-rule="evenodd" clip-rule="evenodd" d="M27.3318 138.303C27.3318 138.806 25.4548 139.214 23.1404 139.214C20.8253 139.214 18.9492 138.806 18.9492 138.303C18.9492 137.8 20.8253 137.392 23.1404 137.392C25.4548 137.392 27.3318 137.8 27.3318 138.303Z" fill="#F6C854"/>
<path fill-rule="evenodd" clip-rule="evenodd" d="M37.5349 138.303C37.5349 138.806 35.6579 139.214 33.3436 139.214C31.0284 139.214 29.1523 138.806 29.1523 138.303C29.1523 137.8 31.0284 137.392 33.3436 137.392C35.6579 137.392 37.5349 137.8 37.5349 138.303Z" fill="#F6C854"/>
<path fill-rule="evenodd" clip-rule="evenodd" d="M27.3318 137.574C27.3318 138.077 25.4548 138.485 23.1404 138.485C20.8253 138.485 18.9492 138.077 18.9492 137.574C18.9492 137.071 20.8253 136.663 23.1404 136.663C25.4548 136.663 27.3318 137.071 27.3318 137.574Z" fill="#D39E00"/>
<path fill-rule="evenodd" clip-rule="evenodd" d="M37.5349 137.574C37.5349 138.077 35.6579 138.485 33.3436 138.485C31.0284 138.485 29.1523 138.077 29.1523 137.574C29.1523 137.071 31.0284 136.663 33.3436 136.663C35.6579 136.663 37.5349 137.071 37.5349 137.574Z" fill="#D39E00"/>
<path fill-rule="evenodd" clip-rule="evenodd" d="M18.9492 137.392H27.3318V136.299H18.9492V137.392Z" fill="#D39E00"/>
<path fill-rule="evenodd" clip-rule="evenodd" d="M29.1523 137.392H37.5349V136.299H29.1523V137.392Z" fill="#D39E00"/>
<path fill-rule="evenodd" clip-rule="evenodd" d="M27.3318 136.116C27.3318 136.62 25.4548 137.028 23.1404 137.028C20.8253 137.028 18.9492 136.62 18.9492 136.116C18.9492 135.613 20.8253 135.205 23.1404 135.205C25.4548 135.205 27.3318 135.613 27.3318 136.116Z" fill="#F6C854"/>
<path fill-rule="evenodd" clip-rule="evenodd" d="M37.5349 136.116C37.5349 136.62 35.6579 137.028 33.3436 137.028C31.0284 137.028 29.1523 136.62 29.1523 136.116C29.1523 135.613 31.0284 135.205 33.3436 135.205C35.6579 135.205 37.5349 135.613 37.5349 136.116Z" fill="#F6C854"/>
<path fill-rule="evenodd" clip-rule="evenodd" d="M27.3318 135.752C27.3318 136.255 25.4548 136.663 23.1404 136.663C20.8253 136.663 18.9492 136.255 18.9492 135.752C18.9492 135.249 20.8253 134.841 23.1404 134.841C25.4548 134.841 27.3318 135.249 27.3318 135.752Z" fill="#D39E00"/>
<path fill-rule="evenodd" clip-rule="evenodd" d="M37.5349 135.752C37.5349 136.255 35.6579 136.663 33.3436 136.663C31.0284 136.663 29.1523 136.255 29.1523 135.752C29.1523 135.249 31.0284 134.841 33.3436 134.841C35.6579 134.841 37.5349 135.249 37.5349 135.752Z" fill="#D39E00"/>
<path fill-rule="evenodd" clip-rule="evenodd" d="M18.9492 135.57H27.3318V134.476H18.9492V135.57Z" fill="#D39E00"/>
<path d="M29.1523 135.57H37.5349V134.476H29.1523V135.57Z" fill="#D39E00"/>
<path fill-rule="evenodd" clip-rule="evenodd" d="M27.3318 134.658C27.3318 135.162 25.4548 135.57 23.1404 135.57C20.8253 135.57 18.9492 135.162 18.9492 134.658C18.9492 134.156 20.8253 133.748 23.1404 133.748C25.4548 133.748 27.3318 134.156 27.3318 134.658Z" fill="#F6C854"/>
<path fill-rule="evenodd" clip-rule="evenodd" d="M37.5349 134.658C37.5349 135.162 35.6579 135.57 33.3436 135.57C31.0284 135.57 29.1523 135.162 29.1523 134.658C29.1523 134.156 31.0284 133.748 33.3436 133.748C35.6579 133.748 37.5349 134.156 37.5349 134.658Z" fill="#F6C854"/>
<path fill-rule="evenodd" clip-rule="evenodd" d="M27.3318 133.565C27.3318 134.068 25.4548 134.476 23.1404 134.476C20.8253 134.476 18.9492 134.068 18.9492 133.565C18.9492 133.062 20.8253 132.654 23.1404 132.654C25.4548 132.654 27.3318 133.062 27.3318 133.565Z" fill="#D39E00"/>
<path fill-rule="evenodd" clip-rule="evenodd" d="M37.5349 133.565C37.5349 134.068 35.6579 134.476 33.3436 134.476C31.0284 134.476 29.1523 134.068 29.1523 133.565C29.1523 133.062 31.0284 132.654 33.3436 132.654C35.6579 132.654 37.5349 133.062 37.5349 133.565Z" fill="#D39E00"/>
<path fill-rule="evenodd" clip-rule="evenodd" d="M18.9492 133.747H27.3318V132.654H18.9492V133.747Z" fill="#D39E00"/>
<path fill-rule="evenodd" clip-rule="evenodd" d="M29.1523 133.747H37.5349V132.654H29.1523V133.747Z" fill="#D39E00"/>
<path fill-rule="evenodd" clip-rule="evenodd" d="M27.3318 132.836C27.3318 133.339 25.4548 133.747 23.1404 133.747C20.8253 133.747 18.9492 133.339 18.9492 132.836C18.9492 132.333 20.8253 131.925 23.1404 131.925C25.4548 131.925 27.3318 132.333 27.3318 132.836Z" fill="#F6C854"/>
<path fill-rule="evenodd" clip-rule="evenodd" d="M37.5349 132.836C37.5349 133.339 35.6579 133.747 33.3436 133.747C31.0284 133.747 29.1523 133.339 29.1523 132.836C29.1523 132.333 31.0284 131.925 33.3436 131.925C35.6579 131.925 37.5349 132.333 37.5349 132.836Z" fill="#F6C854"/>
<path fill-rule="evenodd" clip-rule="evenodd" d="M27.3318 132.107C27.3318 132.611 25.4548 133.019 23.1404 133.019C20.8253 133.019 18.9492 132.611 18.9492 132.107C18.9492 131.605 20.8253 131.196 23.1404 131.196C25.4548 131.196 27.3318 131.605 27.3318 132.107Z" fill="#D39E00"/>
<path fill-rule="evenodd" clip-rule="evenodd" d="M18.9492 131.925H27.3318V130.832H18.9492V131.925Z" fill="#D39E00"/>
<path fill-rule="evenodd" clip-rule="evenodd" d="M27.3318 130.649C27.3318 131.153 25.4548 131.561 23.1404 131.561C20.8253 131.561 18.9492 131.153 18.9492 130.649C18.9492 130.146 20.8253 129.739 23.1404 129.739C25.4548 129.739 27.3318 130.146 27.3318 130.649Z" fill="#F6C854"/>
<path fill-rule="evenodd" clip-rule="evenodd" d="M27.3318 130.285C27.3318 130.788 25.4548 131.196 23.1404 131.196C20.8253 131.196 18.9492 130.788 18.9492 130.285C18.9492 129.782 20.8253 129.374 23.1404 129.374C25.4548 129.374 27.3318 129.782 27.3318 130.285Z" fill="#D39E00"/>
<path fill-rule="evenodd" clip-rule="evenodd" d="M18.9492 130.103H27.3318V129.01H18.9492V130.103Z" fill="#D39E00"/>
<path fill-rule="evenodd" clip-rule="evenodd" d="M27.3318 128.827C27.3318 129.33 25.4548 129.738 23.1404 129.738C20.8253 129.738 18.9492 129.33 18.9492 128.827C18.9492 128.324 20.8253 127.916 23.1404 127.916C25.4548 127.916 27.3318 128.324 27.3318 128.827Z" fill="#F6C854"/>
<path fill-rule="evenodd" clip-rule="evenodd" d="M27.3318 128.463C27.3318 128.966 25.4548 129.374 23.1404 129.374C20.8253 129.374 18.9492 128.966 18.9492 128.463C18.9492 127.96 20.8253 127.552 23.1404 127.552C25.4548 127.552 27.3318 127.96 27.3318 128.463Z" fill="#D39E00"/>
<path fill-rule="evenodd" clip-rule="evenodd" d="M18.9492 128.281H27.3318V127.187H18.9492V128.281Z" fill="#D39E00"/>
<path fill-rule="evenodd" clip-rule="evenodd" d="M27.3318 127.004C27.3318 127.508 25.4548 127.916 23.1404 127.916C20.8253 127.916 18.9492 127.508 18.9492 127.004C18.9492 126.502 20.8253 126.094 23.1404 126.094C25.4548 126.094 27.3318 126.502 27.3318 127.004Z" fill="#F6C854"/>
<path fill-rule="evenodd" clip-rule="evenodd" d="M27.3318 126.276C27.3318 126.779 25.4548 127.187 23.1404 127.187C20.8253 127.187 18.9492 126.779 18.9492 126.276C18.9492 125.773 20.8253 125.365 23.1404 125.365C25.4548 125.365 27.3318 125.773 27.3318 126.276Z" fill="#D39E00"/>
<path fill-rule="evenodd" clip-rule="evenodd" d="M18.9492 126.094H27.3318V125H18.9492V126.094Z" fill="#D39E00"/>
<path fill-rule="evenodd" clip-rule="evenodd" d="M27.3318 125.182C27.3318 125.686 25.4548 126.094 23.1404 126.094C20.8253 126.094 18.9492 125.686 18.9492 125.182C18.9492 124.679 20.8253 124.271 23.1404 124.271C25.4548 124.271 27.3318 124.679 27.3318 125.182Z" fill="#F6C854"/>
<path fill-rule="evenodd" clip-rule="evenodd" d="M27.3318 124.453C27.3318 124.957 25.4548 125.365 23.1404 125.365C20.8253 125.365 18.9492 124.957 18.9492 124.453C18.9492 123.951 20.8253 123.542 23.1404 123.542C25.4548 123.542 27.3318 123.951 27.3318 124.453Z" fill="#D39E00"/>
<path fill-rule="evenodd" clip-rule="evenodd" d="M18.9492 124.636H27.3318V123.542H18.9492V124.636Z" fill="#D39E00"/>
<path fill-rule="evenodd" clip-rule="evenodd" d="M27.3318 123.36C27.3318 123.863 25.4548 124.272 23.1404 124.272C20.8253 124.272 18.9492 123.863 18.9492 123.36C18.9492 122.857 20.8253 122.449 23.1404 122.449C25.4548 122.449 27.3318 122.857 27.3318 123.36Z" fill="#F6C854"/>
</svg>
