<svg width="160" height="160" viewBox="0 0 160 160" fill="none" xmlns="http://www.w3.org/2000/svg">
<path fill-rule="evenodd" clip-rule="evenodd" d="M79.2091 14.1348C60.1875 27.8492 44.6728 23.875 34.2966 22.1704C13.5926 18.768 5.87544 38.1668 13.4279 52.8933C20.9807 67.6194 27.3076 85.5372 9.13086 99.7443C-9.04545 113.951 11.4136 149.892 40.7089 139.978C70.0037 130.063 103.076 131.465 118.148 142.185C133.22 152.905 166.467 127.844 140.161 102.606C113.856 77.3677 131.026 66.6188 140.008 55.1371C148.989 43.655 145.313 22.4962 120.182 12.1876C120.182 12.1876 98.2311 0.420872 79.2091 14.1348Z" fill="#EAF7FE"/>
<path fill-rule="evenodd" clip-rule="evenodd" d="M159.604 138.039C159.604 142.759 124.772 146.585 81.8039 146.585C38.8361 146.585 4.00391 142.759 4.00391 138.039C4.00391 133.319 38.8361 129.494 81.8039 129.494C124.772 129.494 159.604 133.319 159.604 138.039Z" fill="#CEDEE7"/>
<path d="M105.155 43.9469C106.61 42.8779 107.555 41.1548 107.555 39.2126C107.555 35.9722 104.924 33.3413 101.683 33.3413C98.6913 33.3413 96.219 35.5843 95.8576 38.4791C95.7944 38.7807 95.7484 39.0856 95.7168 39.3905L95.7167 39.391L95.7157 39.3977L95.7155 39.4C95.7061 39.4913 95.698 39.5824 95.6911 39.6734L95.2867 44.204L96.2072 44.5121L96.2168 44.5143L96.2168 44.5143C96.2397 44.5932 96.2523 44.6359 96.2523 44.6359L96.2773 45.2488L96.3225 46.3943C96.3382 46.7733 96.4174 47.1448 96.5555 47.494C96.6519 47.7405 96.7794 47.9766 96.9351 48.1957C97.118 48.4529 97.3364 48.6836 97.5803 48.8784C97.7074 48.9807 97.8424 49.0719 97.9835 49.1532C98.0582 49.1963 98.1327 49.2359 98.21 49.2731L98.2106 49.2734L97.8152 56.4297C97.8152 56.4297 99.9043 57.0591 102.192 56.5597C103.575 56.2603 105.031 55.5455 106.143 54.0325C106.143 54.0325 104.827 48.3316 105.155 43.9469Z" fill="#FFC4B8"/>
<path fill-rule="evenodd" clip-rule="evenodd" d="M102.17 56.4748C103.553 56.1754 105.01 55.4607 106.121 53.9476C106.121 53.9476 104.698 47.839 105.181 43.3998C105.181 43.3998 101.944 51.2896 102.17 56.4748ZM96.2087 44.5376C96.5309 44.6321 96.8482 44.379 96.8271 44.0443L96.6916 41.8862L96.2087 44.5376Z" fill="#F4A48D"/>
<path fill-rule="evenodd" clip-rule="evenodd" d="M103.619 32.8196C101.07 32.7303 101.383 30.5454 101.383 30.5454C98.6547 30.6347 97.4917 31.6602 97.4917 31.6602C95.2999 33.3989 96.1689 36.8872 96.1689 36.8872C96.5034 34.2549 100.544 35.3771 102.126 35.6414C102.772 36.2739 102.523 37.8178 102.85 39.1191C102.856 39.1427 103.559 40.9039 103.559 40.9039L103.56 40.906L103.6 41.089C103.611 41.059 103.623 41.0291 103.636 40.9992C104.061 39.9948 104.927 39.4007 105.57 39.6708C106.213 39.9414 106.389 40.9746 105.964 41.979C105.816 42.3289 105.442 42.629 105.215 42.8601C105.039 44.3349 105.072 45.7046 105.196 46.8806L105.855 46.909L109.076 36.0551C109.252 34.551 107.731 33.4827 106.655 33.1537C105.818 32.8975 104.736 32.8586 103.619 32.8196Z" fill="#444444"/>
<path d="M82.5547 35.2727L82.5355 35.2521V32H82.5547V35.2727Z" fill="#9BC3D3"/>
<path d="M70.1435 41.4195L70.1322 41.4891C70.165 41.4743 70.1985 41.4598 70.2315 41.4452C70.2022 41.4365 70.1729 41.4279 70.1435 41.4195Z" fill="white"/>
<path fill-rule="evenodd" clip-rule="evenodd" d="M107.743 69.1032C107.372 69.8619 106.806 71.0054 105.852 70.9022C105.817 70.8987 105.782 70.881 105.744 70.8524C104.629 70.0043 102.417 58.4965 101.816 55.2613C102.47 55.5251 103.347 55.6498 104.419 55.2899C105.265 55.0084 105.82 54.4881 106.18 53.8184H110.5C113.889 54.043 115.493 54.5774 116.272 56.4121C117.38 59.0274 116.45 64.4321 113.564 70.9093L107.743 69.1032Z" fill="#34466B"/>
<path fill-rule="evenodd" clip-rule="evenodd" d="M112.362 94.1816H90.5543L91.3591 66.9725L87.4022 69.8977L86.7207 69.279L86.6012 69.1699L81.6851 64.7151L81.4531 64.4373L87.3286 57.8416C90.4631 55.043 93.7027 54.3821 97.8774 54.1816C98.0882 54.8425 98.4045 55.4651 98.77 55.8761C99.6274 56.8468 99.6099 64.4269 99.9332 66.9195C100.552 71.6451 102.604 76.9681 105.401 77.3055C105.9 77.3686 106.42 77.2703 106.958 76.9856C108.497 76.1734 109.695 72.4642 112.362 71.4903V94.1816Z" fill="#34466B"/>
<path fill-rule="evenodd" clip-rule="evenodd" d="M90.7436 85.3122C89.3448 85.6889 87.9003 85.2354 87.8095 84.9095C87.7137 84.5837 89.5213 84.1608 89.4251 83.7434C89.375 83.5091 88.5618 83.5347 87.8448 83.6007C87.2087 83.6618 86.5977 83.3615 86.2695 82.8219L86.2241 82.7505L85.8655 82.109C85.8655 82.109 85.3151 81.666 84.4769 80.958C83.2196 79.8991 79.1293 75.8163 77.4531 74.1819C77.4833 73.1074 77.524 72.4956 78.3622 71.8183C78.8973 71.3903 80.0695 70.9854 80.7259 70.9092C81.4298 71.8333 84.9342 76.6693 86.5876 78.2336C86.8958 78.4782 87.2338 78.7381 87.5924 78.9977C87.5924 78.9977 88.2841 78.7327 89.0668 78.8143C89.5514 78.8652 90.4989 79.2413 90.9077 79.7048L90.7436 85.3122Z" fill="#FFC4B8"/>
<path fill-rule="evenodd" clip-rule="evenodd" d="M85.12 69.1898C84.6158 69.4873 83.8788 69.9392 82.9091 70.5452C81.4545 71.4543 80.8463 71.8372 79.6364 72.5452C78.4264 73.2533 77.8548 73.219 77.4545 74.1816C76.8845 73.5431 76.3547 72.9597 76.1188 72.4911C75.1278 70.5113 80.6425 65.48 81.3919 64.8017C81.4488 64.7518 81.6364 64.7271 81.6364 64.7271L85.8182 68.5452L85.12 69.1898Z" fill="#FFC4B8"/>
<path d="M83.6379 72.779C83.4362 72.7457 83.236 72.7282 83.0387 72.7282C82.8898 72.7282 82.7425 72.7381 82.5977 72.7589C82.7463 72.7378 82.8977 72.7272 83.0507 72.7272C83.2414 72.7272 83.4346 72.7434 83.6294 72.775C83.6322 72.7764 83.635 72.7777 83.6379 72.779Z" fill="#CCCCCC"/>
<path d="M87.4594 78.7301C87.4591 78.7301 87.4591 78.7301 87.4591 78.7301C87.4565 78.7283 87.454 78.7265 87.4514 78.7247C87.4514 78.7243 87.4511 78.7243 87.4511 78.7243C87.4536 78.7261 87.4565 78.7283 87.4594 78.7301Z" fill="#CCCCCC"/>
<path d="M87.4591 78.73C87.4565 78.7281 87.454 78.7263 87.4514 78.7245C87.454 78.7263 87.4565 78.7281 87.4591 78.73Z" fill="#F4A48D"/>
<path d="M87.4582 78.7292C87.4578 78.7292 87.4578 78.7289 87.4578 78.7289C87.456 78.7278 87.4545 78.7263 87.4527 78.7252C87.4527 78.7252 87.4527 78.7252 87.4523 78.7252C87.4542 78.7263 87.4563 78.7278 87.4582 78.7292Z" fill="#CCCCCC"/>
<path d="M87.4578 78.729C87.456 78.728 87.4545 78.7269 87.4527 78.7254C87.4545 78.7265 87.456 78.728 87.4578 78.729Z" fill="#F4A48D"/>
<path d="M84.5478 70.7278C84.546 70.7274 84.5442 70.727 84.5424 70.7267C84.5442 70.727 84.546 70.7274 84.5478 70.7278Z" fill="#CCCCCC"/>
<path d="M99.2225 55.2986C98.8565 54.8883 98.5397 54.2669 98.3286 53.6072C98.0366 52.7297 97.9344 51.7857 98.1528 51.1785C98.3321 50.6872 98.8743 49.6587 98.3321 49.4482C98.0617 49.3425 97.657 49.2853 97.4538 49.6361C97.2526 49.983 97.2535 50.7375 96.879 50.6416C96.5092 50.5501 96.7028 47.7464 98.7016 47.3285C98.8635 47.2934 99.0358 47.2725 99.2225 47.2725C101.71 47.2725 102.671 49.2624 102.671 49.4238C102.671 49.5887 101.819 53.8086 101.454 54.1816C101.089 54.5545 100.081 56.2675 99.2225 55.2986Z" fill="#F4A48D"/>
<path fill-rule="evenodd" clip-rule="evenodd" d="M112.785 71.1574C112.369 71.9117 111.708 72.926 110.719 73.9649C109.8 74.9371 108.45 76.4619 106.909 77.2726C103.322 79.1609 100.175 72.6664 99.4471 67.1142C99.1233 64.6258 99.7178 56.6313 98.8592 55.6623C98.4932 55.2521 98.1764 54.6307 97.9653 53.9709C97.6733 53.0934 97.5711 52.1494 97.7895 51.5423C97.9688 51.051 98.511 50.0225 97.9688 49.812C97.6984 49.7062 97.5229 50.0567 97.3197 50.4074C97.1185 50.7544 96.8902 51.1013 96.5157 51.0054C96.1459 50.9139 96.3395 48.1101 98.3383 47.6923C98.5002 47.6571 98.6726 47.6362 98.8592 47.6362C101.347 47.6362 102.308 49.6261 102.308 49.7876C102.308 49.9525 101.819 54.536 101.819 54.536C101.819 54.536 101.872 54.8377 101.974 55.3676C102.6 58.6598 106.038 70.7746 106.038 70.7746C106.038 70.7746 106.921 70.0586 107.583 69.378C107.67 69.2866 107.748 69.1909 107.818 69.0908L113.091 70.7271C112.969 70.8641 112.867 71.0075 112.785 71.1574Z" fill="#FFC4B8"/>
<path fill-rule="evenodd" clip-rule="evenodd" d="M95.3672 138.901L99.6743 138.976L99.617 142.256L99.6034 143.036L94.2724 143.01L92.2228 143.21L92.0053 140.776L92.5651 140.365L95.3672 138.901Z" fill="#444444"/>
<path fill-rule="evenodd" clip-rule="evenodd" d="M106.884 139.071L103.239 141.112L103.388 143.201L110.711 142.919L110.052 138.89L106.884 139.071Z" fill="#444444"/>
<path fill-rule="evenodd" clip-rule="evenodd" d="M110.547 94.1816V139.636H104.622C104.622 139.636 101.882 104.029 101.251 95.8494C100.708 95.8494 99.9685 95.8494 99.9685 95.8494V139.636H94.0474L90.5469 94.1816H110.547Z" fill="#9BC3D3"/>
<mask id="mask0_1483_87188" style="mask-type:luminance" maskUnits="userSpaceOnUse" x="116" y="37" width="3" height="3">
<path fill-rule="evenodd" clip-rule="evenodd" d="M116.367 37.0742L118.535 37.2258L118.384 39.3941L116.216 39.2424L116.367 37.0742Z" fill="white"/>
</mask>
<g mask="url(#mask0_1483_87188)">
<path d="M117.702 37.2006C117.416 37.11 117.137 37.1332 116.874 37.2695C116.612 37.4059 116.433 37.6206 116.342 37.9074C116.251 38.1945 116.274 38.473 116.411 38.7353C116.547 38.9979 116.762 39.177 117.049 39.2677C117.162 39.3036 117.275 39.3217 117.386 39.3218C117.554 39.3221 117.718 39.281 117.877 39.1988C118.139 39.0623 118.318 38.8478 118.409 38.561C118.5 38.2745 118.477 37.9959 118.34 37.7329C118.203 37.4703 117.989 37.2912 117.702 37.2006Z" fill="#2A8FEC"/>
</g>
<path fill-rule="evenodd" clip-rule="evenodd" d="M124.323 29.3449C123.843 28.4992 123.034 27.891 121.92 27.5372C120.806 27.1836 119.792 27.2127 118.904 27.6236C118.133 27.9809 117.567 28.5877 117.222 29.4273C117.164 29.5687 117.168 29.7295 117.232 29.8681C117.296 30.0068 117.416 30.1128 117.561 30.1589L118.225 30.3695C118.49 30.4535 118.775 30.3241 118.888 30.0684C119.088 29.6149 119.372 29.3073 119.755 29.1282C120.219 28.9114 120.778 28.9044 121.417 29.1072C122.054 29.3095 122.501 29.6442 122.746 30.102C122.99 30.5583 123.014 31.1082 122.816 31.7361C122.543 32.6017 122.113 33.1065 121.537 33.2366C120.931 33.3734 120.08 33.2641 119.006 32.9112L118.719 32.82C118.432 32.729 118.125 32.8895 118.035 33.1775L117.243 35.6913C117.199 35.8309 117.212 35.9792 117.279 36.1091C117.346 36.239 117.459 36.3347 117.598 36.3788L118.271 36.5925C118.325 36.6097 118.38 36.6179 118.434 36.618C118.666 36.6182 118.882 36.4685 118.955 36.235L119.468 34.607C119.474 34.5869 119.496 34.5752 119.516 34.5809C120.78 34.9453 121.832 34.9712 122.641 34.6579C123.501 34.3246 124.125 33.5607 124.494 32.3874C124.862 31.2187 124.804 30.195 124.323 29.3449Z" fill="#2A8FEC"/>
<path d="M33.4102 99.9323C33.4102 99.9323 33.5652 98.4037 37.9315 98.5511C42.2981 98.6986 48.6208 97.5535 52.7088 97.4633C57.4361 97.3592 62.1253 98.2192 62.1253 98.2192L55.0569 108.364H40.1738L33.4102 99.9323Z" fill="#767676"/>
<path fill-rule="evenodd" clip-rule="evenodd" d="M62.3334 88.4334C58.0014 95.4221 52.7426 101.729 50.3813 109.203C46.5363 108.135 42.6974 107.067 38.8203 105.995C40.8122 98.4447 41.4199 90.7979 43.137 82.769C49.4797 83.7121 55.4272 85.3871 61.293 87.6689L62.3334 88.4334Z" fill="#8AD7C4"/>
<path fill-rule="evenodd" clip-rule="evenodd" d="M61.9772 87.5388C57.4805 94.3227 53.0695 101.222 50.5843 108.57L51.3384 108.766L51.5617 108.105C47.5736 107.07 43.5912 106.034 39.5689 104.995L39.3464 105.655L40.1097 105.821C41.1531 102.123 41.8303 98.4172 42.4697 94.6705C43.1089 90.9236 43.7103 87.1357 44.5949 83.2691L43.824 83.1336L43.7008 83.8141C50.2126 84.7194 56.3187 86.3262 62.3556 88.5214L62.657 87.8849L61.9772 87.5388L62.657 87.8849L62.9584 87.2485C56.8261 85.0185 50.5938 83.3768 43.9473 82.4531L43.2014 82.3496L43.053 82.9983C42.1566 86.917 41.5523 90.7295 40.9145 94.4666C40.2769 98.2042 39.6058 101.866 38.5831 105.49L38.4023 106.13L39.1239 106.316C43.1447 107.355 47.1264 108.391 51.1149 109.427L51.8688 109.622L52.0921 108.962C53.7535 104.043 56.3276 99.2816 59.2352 94.5836C60.552 92.4559 61.9372 90.3413 63.337 88.2311L63.7882 87.5503L62.9584 87.2485L62.657 87.8849L61.9772 87.5388Z" fill="#2C9891"/>
<path d="M50.6567 92.2814C54.111 93.242 55.8664 96.1042 54.6825 98.4849C53.49 100.878 50.4546 102.201 47.7105 101.431C44.9802 100.653 43.0406 97.9789 43.454 95.4078C43.8769 92.8491 47.1999 91.3417 50.6567 92.2814Z" fill="#2C9891"/>
<path d="M39.6523 106.436C40.457 106.659 41.2576 106.882 42.0574 107.105C42.4356 105.86 41.6125 104.545 40.2104 104.168C40.0434 104.927 39.8596 105.683 39.6523 106.436Z" fill="#2C9891"/>
<path d="M47.7737 94.548C47.2842 94.4598 46.9458 94.7367 46.7621 95.3713C46.5749 96.01 46.7029 96.3823 47.1364 96.4914C47.4025 96.557 47.6268 96.5046 47.8087 96.3299C47.9956 96.1556 48.2624 95.7797 48.6237 95.2006C48.9835 94.6219 49.4025 94.2336 49.8824 94.0403C50.3603 93.8477 50.9091 93.8295 51.5168 93.9903C52.2231 94.1781 52.6757 94.5566 52.8579 95.1141C53.0435 95.6711 52.9983 96.2397 52.7453 96.8236C52.131 98.2308 51.1154 98.8468 49.6852 98.6893C49.7882 98.2839 49.8928 97.8793 49.9968 97.4743C50.7609 97.5798 51.2905 97.2581 51.5975 96.5054C51.8853 95.8002 51.7084 95.3583 51.0595 95.1869C50.7732 95.1117 50.5276 95.1417 50.3239 95.2794C50.1211 95.4161 49.8177 95.7838 49.4318 96.3823C49.0448 96.9796 48.6438 97.3786 48.2271 97.5803C47.8094 97.7813 47.3658 97.8208 46.883 97.6997C46.3697 97.5686 45.9809 97.2748 45.7175 96.8155C45.4535 96.3571 45.407 95.7743 45.5933 95.0672C45.9562 93.6637 46.8027 93.0691 48.0939 93.3115C47.9865 93.7239 47.8804 94.136 47.7737 94.548Z" fill="#8AD7C4"/>
<path d="M46.3092 95.544C46.2073 95.7615 46.1048 95.979 46.0048 96.1956C45.5536 96.1335 45.1006 96.0718 44.6445 96.0108C44.735 95.793 44.8254 95.5751 44.9139 95.3564C45.3837 95.4188 45.8488 95.4811 46.3092 95.544Z" fill="#8AD7C4"/>
<path d="M53.8014 97.2477C53.6465 97.4565 53.4931 97.6651 53.3412 97.8738C52.9384 97.8041 52.5375 97.7358 52.1367 97.6681C52.2778 97.4569 52.421 97.2459 52.5664 97.0347C52.9767 97.1051 53.3882 97.1758 53.8014 97.2477Z" fill="#8AD7C4"/>
<path d="M50.798 109.203C51.0858 108.396 51.3942 107.594 51.722 106.796C50.1218 106.387 48.4383 107.141 47.9766 108.482C48.9163 108.722 49.857 108.963 50.798 109.203Z" fill="#2C9891"/>
<path fill-rule="evenodd" clip-rule="evenodd" d="M63.3713 87.5717C61.3853 87.0512 59.3982 86.5691 57.3963 86.1255C56.4291 87.5253 58.166 89.1577 61.3111 89.9017C61.9985 89.1242 62.6902 88.3475 63.3713 87.5717Z" fill="#2C9891"/>
<path d="M42.8141 83.189C42.5807 84.0041 42.3589 84.8128 42.1484 85.6166C45.0799 85.9693 47.7854 85.2598 48.3909 83.9051C46.5566 83.626 44.697 83.3864 42.8141 83.189Z" fill="#2C9891"/>
<path d="M46.5369 103.366C46.9866 103.502 47.2414 103.971 47.111 104.413C46.9796 104.854 46.5228 105.105 46.0862 104.971C45.6495 104.838 45.392 104.37 45.5084 103.925C45.6269 103.48 46.0871 103.23 46.5369 103.366Z" fill="#2C9891"/>
<path d="M52.8592 88.7026C53.546 88.8769 53.9418 89.373 53.7558 89.7993C53.5675 90.2248 52.895 90.4284 52.2452 90.2663C51.5979 90.1034 51.1864 89.6263 51.3351 89.1889C51.4881 88.7534 52.1726 88.5286 52.8592 88.7026Z" fill="#2C9891"/>
<path fill-rule="evenodd" clip-rule="evenodd" d="M51.6575 107.105C47.6649 106.573 43.6772 106.04 39.6523 105.51C40.4748 97.9034 39.9042 90.385 40.3803 82.3495C44.8402 82.4044 50.3453 82.039 54.6342 82.7691C56.5576 83.0965 57.2949 84.2717 59.2119 84.7189C54.9775 94.5886 52.4594 102.051 51.6575 107.105Z" fill="#8AD7C4"/>
<path fill-rule="evenodd" clip-rule="evenodd" d="M58.7344 83.926C55.525 91.3535 52.4131 98.8867 51.2033 106.626L51.9512 106.727L52.06 106.031C48.1047 105.496 44.1538 104.959 40.1653 104.425L40.0577 105.121L40.8097 105.191C41.221 101.323 41.2829 97.4932 41.3025 93.6274C41.3219 89.7614 41.2991 85.8591 41.5334 81.8409L40.7789 81.8029L40.7686 82.5059C44.9915 82.5588 50.9801 83.0322 58.7344 83.926L59.4354 84.1884L59.6219 83.5071C53.4398 82.0413 47.2548 81.1806 40.789 81.0999L40.0634 81.0908L40.0242 81.7648C39.7871 85.8372 39.8109 89.7648 39.7913 93.6208C39.7721 97.4772 39.7092 101.261 39.3058 105.052L39.2344 105.721L39.9502 105.817C43.9365 106.351 47.8866 106.887 51.8422 107.423L52.5903 107.524L52.6989 106.828C53.8723 99.3016 56.9306 91.8635 60.1363 84.4507L60.4586 83.7053L59.6219 83.5071L59.4354 84.1884L58.7344 83.926Z" fill="#2C9891"/>
<path d="M39.6523 105.526C40.4795 105.633 41.304 105.739 42.1277 105.846C42.312 104.632 41.2996 103.503 39.8588 103.329C39.8091 104.061 39.7427 104.793 39.6523 105.526Z" fill="#2C9891"/>
<path d="M51.2838 107.105C51.4129 106.273 51.5583 105.443 51.7217 104.616C50.3174 104.408 49.0072 105.36 48.8086 106.74C49.6334 106.862 50.4596 106.983 51.2838 107.105Z" fill="#2C9891"/>
<path fill-rule="evenodd" clip-rule="evenodd" d="M54.0097 82.3496C53.4618 83.9976 55.5453 85.6245 58.3379 86.1258C58.7686 85.1955 59.202 84.5354 59.6279 83.6084C57.8551 83.2356 55.781 82.6357 54.0097 82.3496Z" fill="#2C9891"/>
<path fill-rule="evenodd" clip-rule="evenodd" d="M40.193 81.5107C40.1396 82.3559 40.0981 83.1933 40.0664 84.0245C42.8398 84.0963 45.1898 83.1189 45.4765 81.6934C43.7298 81.5895 41.9675 81.5272 40.193 81.5107Z" fill="#2C9891"/>
<path fill-rule="evenodd" clip-rule="evenodd" d="M33.4102 99.9249C33.4102 99.9249 33.5652 97.3131 37.9315 97.4606C42.2981 97.6084 46.9527 99.432 51.0372 99.6174C56.8895 99.8827 62.1253 98.2104 62.1253 98.2104L55.0569 108.364H40.1738L33.4102 99.9249Z" fill="#9BC3D3"/>
<path fill-rule="evenodd" clip-rule="evenodd" d="M63.3903 123.048C61.1706 117.999 57.7574 112.722 54.6108 107.944H39.4093C36.2973 112.722 33.1578 118.065 30.6994 123.048C25.455 133.678 28.4437 137.182 34.5982 139.694C39.1634 141.556 54.9256 141.556 59.4909 139.694C65.6463 137.182 67.1982 131.709 63.3903 123.048Z" fill="#9BC3D3"/>
<path d="M55.8814 108.066C55.8814 108.23 55.576 108.364 55.1999 108.364H38.2526C37.8753 108.364 37.5703 108.23 37.5703 108.066V107.822C37.5703 107.658 37.8753 107.524 38.2526 107.524H55.1999C55.576 107.524 55.8814 107.658 55.8814 107.822V108.066Z" fill="#DEEDF2"/>
<path fill-rule="evenodd" clip-rule="evenodd" d="M51.6346 131.159C51.0085 131.579 49.9581 132 48.6246 132C46.9882 132 45.5335 131.379 44.5235 130.218C43.7557 129.377 43.2507 128.216 43.0686 126.774H41.8164V125.793H42.9676V125.493C42.9676 125.173 42.9882 124.872 43.0082 124.592H41.8164V123.591H43.1496C43.3921 122.189 43.9979 121.028 44.8064 120.207C45.8367 119.146 47.1496 118.545 48.8064 118.545C49.9985 118.545 50.9275 118.886 51.4932 119.186L51.0892 120.507C50.5839 120.207 49.7357 119.947 48.8264 119.947C47.7354 119.947 46.8465 120.327 46.1597 121.048C45.5536 121.629 45.1496 122.53 44.9475 123.591H50.5839V124.592H44.7657C44.7457 124.852 44.7254 125.153 44.7254 125.433V125.793H50.5839V126.774H44.8668C45.0283 127.935 45.4328 128.796 45.9779 129.397C46.7256 130.178 47.7354 130.558 48.8264 130.558C49.8971 130.558 50.8264 130.158 51.2913 129.898L51.6346 131.159Z" fill="#DEEDF2"/>
<path fill-rule="evenodd" clip-rule="evenodd" d="M27.2738 140.181C27.2738 140.684 25.401 141.091 23.0919 141.091C20.782 141.091 18.9102 140.684 18.9102 140.181C18.9102 139.68 20.782 139.272 23.0919 139.272C25.401 139.272 27.2738 139.68 27.2738 140.181Z" fill="#D39E00"/>
<path fill-rule="evenodd" clip-rule="evenodd" d="M37.4574 140.181C37.4574 140.684 35.5846 141.091 33.2755 141.091C30.9656 141.091 29.0938 140.684 29.0938 140.181C29.0938 139.68 30.9656 139.272 33.2755 139.272C35.5846 139.272 37.4574 139.68 37.4574 140.181Z" fill="#D39E00"/>
<path fill-rule="evenodd" clip-rule="evenodd" d="M18.9102 140H27.2738V138.909H18.9102V140Z" fill="#D39E00"/>
<path fill-rule="evenodd" clip-rule="evenodd" d="M29.0938 140H37.4574V138.909H29.0938V140Z" fill="#D39E00"/>
<path fill-rule="evenodd" clip-rule="evenodd" d="M27.2738 139.09C27.2738 139.593 25.401 140 23.0919 140C20.782 140 18.9102 139.593 18.9102 139.09C18.9102 138.589 20.782 138.182 23.0919 138.182C25.401 138.182 27.2738 138.589 27.2738 139.09Z" fill="#F6C854"/>
<path fill-rule="evenodd" clip-rule="evenodd" d="M37.4574 139.09C37.4574 139.593 35.5846 140 33.2755 140C30.9656 140 29.0938 139.593 29.0938 139.09C29.0938 138.589 30.9656 138.182 33.2755 138.182C35.5846 138.182 37.4574 138.589 37.4574 139.09Z" fill="#F6C854"/>
<path fill-rule="evenodd" clip-rule="evenodd" d="M27.2738 138.363C27.2738 138.865 25.401 139.272 23.0919 139.272C20.782 139.272 18.9102 138.865 18.9102 138.363C18.9102 137.862 20.782 137.454 23.0919 137.454C25.401 137.454 27.2738 137.862 27.2738 138.363Z" fill="#D39E00"/>
<path fill-rule="evenodd" clip-rule="evenodd" d="M37.4574 138.363C37.4574 138.865 35.5846 139.272 33.2755 139.272C30.9656 139.272 29.0938 138.865 29.0938 138.363C29.0938 137.862 30.9656 137.454 33.2755 137.454C35.5846 137.454 37.4574 137.862 37.4574 138.363Z" fill="#D39E00"/>
<path fill-rule="evenodd" clip-rule="evenodd" d="M18.9102 138.545H27.2738V137.454H18.9102V138.545Z" fill="#D39E00"/>
<path fill-rule="evenodd" clip-rule="evenodd" d="M29.0938 138.545H37.4574V137.454H29.0938V138.545Z" fill="#D39E00"/>
<path fill-rule="evenodd" clip-rule="evenodd" d="M27.2738 137.272C27.2738 137.774 25.401 138.181 23.0919 138.181C20.782 138.181 18.9102 137.774 18.9102 137.272C18.9102 136.77 20.782 136.363 23.0919 136.363C25.401 136.363 27.2738 136.77 27.2738 137.272Z" fill="#F6C854"/>
<path fill-rule="evenodd" clip-rule="evenodd" d="M37.4574 137.272C37.4574 137.774 35.5846 138.181 33.2755 138.181C30.9656 138.181 29.0938 137.774 29.0938 137.272C29.0938 136.77 30.9656 136.363 33.2755 136.363C35.5846 136.363 37.4574 136.77 37.4574 137.272Z" fill="#F6C854"/>
<path fill-rule="evenodd" clip-rule="evenodd" d="M27.2738 136.545C27.2738 137.047 25.401 137.454 23.0919 137.454C20.782 137.454 18.9102 137.047 18.9102 136.545C18.9102 136.044 20.782 135.636 23.0919 135.636C25.401 135.636 27.2738 136.044 27.2738 136.545Z" fill="#D39E00"/>
<path fill-rule="evenodd" clip-rule="evenodd" d="M37.4574 136.545C37.4574 137.047 35.5846 137.454 33.2755 137.454C30.9656 137.454 29.0938 137.047 29.0938 136.545C29.0938 136.044 30.9656 135.636 33.2755 135.636C35.5846 135.636 37.4574 136.044 37.4574 136.545Z" fill="#D39E00"/>
<path fill-rule="evenodd" clip-rule="evenodd" d="M18.9102 136.363H27.2738V135.272H18.9102V136.363Z" fill="#D39E00"/>
<path fill-rule="evenodd" clip-rule="evenodd" d="M29.0938 136.363H37.4574V135.272H29.0938V136.363Z" fill="#D39E00"/>
<path fill-rule="evenodd" clip-rule="evenodd" d="M27.2738 135.453C27.2738 135.956 25.401 136.363 23.0919 136.363C20.782 136.363 18.9102 135.956 18.9102 135.453C18.9102 134.952 20.782 134.545 23.0919 134.545C25.401 134.545 27.2738 134.952 27.2738 135.453Z" fill="#F6C854"/>
<path fill-rule="evenodd" clip-rule="evenodd" d="M37.4574 135.453C37.4574 135.956 35.5846 136.363 33.2755 136.363C30.9656 136.363 29.0938 135.956 29.0938 135.453C29.0938 134.952 30.9656 134.545 33.2755 134.545C35.5846 134.545 37.4574 134.952 37.4574 135.453Z" fill="#F6C854"/>
<path fill-rule="evenodd" clip-rule="evenodd" d="M27.2738 134.727C27.2738 135.229 25.401 135.636 23.0919 135.636C20.782 135.636 18.9102 135.229 18.9102 134.727C18.9102 134.225 20.782 133.818 23.0919 133.818C25.401 133.818 27.2738 134.225 27.2738 134.727Z" fill="#D39E00"/>
<path fill-rule="evenodd" clip-rule="evenodd" d="M37.4574 134.727C37.4574 135.229 35.5846 135.636 33.2755 135.636C30.9656 135.636 29.0938 135.229 29.0938 134.727C29.0938 134.225 30.9656 133.818 33.2755 133.818C35.5846 133.818 37.4574 134.225 37.4574 134.727Z" fill="#D39E00"/>
<path fill-rule="evenodd" clip-rule="evenodd" d="M18.9102 134.545H27.2738V133.454H18.9102V134.545Z" fill="#D39E00"/>
<path fill-rule="evenodd" clip-rule="evenodd" d="M29.0938 134.545H37.4574V133.454H29.0938V134.545Z" fill="#D39E00"/>
<path fill-rule="evenodd" clip-rule="evenodd" d="M27.2738 133.636C27.2738 134.138 25.401 134.545 23.0919 134.545C20.782 134.545 18.9102 134.138 18.9102 133.636C18.9102 133.134 20.782 132.727 23.0919 132.727C25.401 132.727 27.2738 133.134 27.2738 133.636Z" fill="#F6C854"/>
<path fill-rule="evenodd" clip-rule="evenodd" d="M37.4574 133.636C37.4574 134.138 35.5846 134.545 33.2755 134.545C30.9656 134.545 29.0938 134.138 29.0938 133.636C29.0938 133.134 30.9656 132.727 33.2755 132.727C35.5846 132.727 37.4574 133.134 37.4574 133.636Z" fill="#F6C854"/>
<path fill-rule="evenodd" clip-rule="evenodd" d="M27.2738 132.908C27.2738 133.411 25.401 133.818 23.0919 133.818C20.782 133.818 18.9102 133.411 18.9102 132.908C18.9102 132.407 20.782 132 23.0919 132C25.401 132 27.2738 132.407 27.2738 132.908Z" fill="#D39E00"/>
<path fill-rule="evenodd" clip-rule="evenodd" d="M37.4574 132.908C37.4574 133.411 35.5846 133.818 33.2755 133.818C30.9656 133.818 29.0938 133.411 29.0938 132.908C29.0938 132.407 30.9656 132 33.2755 132C35.5846 132 37.4574 132.407 37.4574 132.908Z" fill="#D39E00"/>
<path fill-rule="evenodd" clip-rule="evenodd" d="M18.9102 132.727H27.2738V131.636H18.9102V132.727Z" fill="#D39E00"/>
<path fill-rule="evenodd" clip-rule="evenodd" d="M29.0938 132.727H37.4574V131.636H29.0938V132.727Z" fill="#D39E00"/>
<path fill-rule="evenodd" clip-rule="evenodd" d="M27.2738 131.453C27.2738 131.956 25.401 132.363 23.0919 132.363C20.782 132.363 18.9102 131.956 18.9102 131.453C18.9102 130.952 20.782 130.545 23.0919 130.545C25.401 130.545 27.2738 130.952 27.2738 131.453Z" fill="#F6C854"/>
<path fill-rule="evenodd" clip-rule="evenodd" d="M37.4574 131.453C37.4574 131.956 35.5846 132.363 33.2755 132.363C30.9656 132.363 29.0938 131.956 29.0938 131.453C29.0938 130.952 30.9656 130.545 33.2755 130.545C35.5846 130.545 37.4574 130.952 37.4574 131.453Z" fill="#F6C854"/>
<path fill-rule="evenodd" clip-rule="evenodd" d="M27.2738 131.091C27.2738 131.593 25.401 132 23.0919 132C20.782 132 18.9102 131.593 18.9102 131.091C18.9102 130.589 20.782 130.182 23.0919 130.182C25.401 130.182 27.2738 130.589 27.2738 131.091Z" fill="#D39E00"/>
<path fill-rule="evenodd" clip-rule="evenodd" d="M37.4574 131.091C37.4574 131.593 35.5846 132 33.2755 132C30.9656 132 29.0938 131.593 29.0938 131.091C29.0938 130.589 30.9656 130.182 33.2755 130.182C35.5846 130.182 37.4574 130.589 37.4574 131.091Z" fill="#D39E00"/>
<path fill-rule="evenodd" clip-rule="evenodd" d="M18.9102 130.909H27.2738V129.818H18.9102V130.909Z" fill="#D39E00"/>
<path d="M29.0938 130.909H37.4574V129.818H29.0938V130.909Z" fill="#D39E00"/>
<path fill-rule="evenodd" clip-rule="evenodd" d="M27.2738 129.999C27.2738 130.502 25.401 130.909 23.0919 130.909C20.782 130.909 18.9102 130.502 18.9102 129.999C18.9102 129.498 20.782 129.091 23.0919 129.091C25.401 129.091 27.2738 129.498 27.2738 129.999Z" fill="#F6C854"/>
<path fill-rule="evenodd" clip-rule="evenodd" d="M37.4574 129.999C37.4574 130.502 35.5846 130.909 33.2755 130.909C30.9656 130.909 29.0938 130.502 29.0938 129.999C29.0938 129.498 30.9656 129.091 33.2755 129.091C35.5846 129.091 37.4574 129.498 37.4574 129.999Z" fill="#F6C854"/>
<path fill-rule="evenodd" clip-rule="evenodd" d="M27.2738 128.908C27.2738 129.411 25.401 129.818 23.0919 129.818C20.782 129.818 18.9102 129.411 18.9102 128.908C18.9102 128.407 20.782 128 23.0919 128C25.401 128 27.2738 128.407 27.2738 128.908Z" fill="#D39E00"/>
<path fill-rule="evenodd" clip-rule="evenodd" d="M37.4574 128.908C37.4574 129.411 35.5846 129.818 33.2755 129.818C30.9656 129.818 29.0938 129.411 29.0938 128.908C29.0938 128.407 30.9656 128 33.2755 128C35.5846 128 37.4574 128.407 37.4574 128.908Z" fill="#D39E00"/>
<path fill-rule="evenodd" clip-rule="evenodd" d="M18.9102 129.09H27.2738V128H18.9102V129.09Z" fill="#D39E00"/>
<path fill-rule="evenodd" clip-rule="evenodd" d="M29.0938 129.09H37.4574V128H29.0938V129.09Z" fill="#D39E00"/>
<path fill-rule="evenodd" clip-rule="evenodd" d="M27.2738 128.181C27.2738 128.683 25.401 129.091 23.0919 129.091C20.782 129.091 18.9102 128.683 18.9102 128.181C18.9102 127.679 20.782 127.272 23.0919 127.272C25.401 127.272 27.2738 127.679 27.2738 128.181Z" fill="#F6C854"/>
<path fill-rule="evenodd" clip-rule="evenodd" d="M37.4574 128.181C37.4574 128.683 35.5846 129.091 33.2755 129.091C30.9656 129.091 29.0938 128.683 29.0938 128.181C29.0938 127.679 30.9656 127.272 33.2755 127.272C35.5846 127.272 37.4574 127.679 37.4574 128.181Z" fill="#F6C854"/>
<path fill-rule="evenodd" clip-rule="evenodd" d="M27.2738 127.454C27.2738 127.956 25.401 128.363 23.0919 128.363C20.782 128.363 18.9102 127.956 18.9102 127.454C18.9102 126.952 20.782 126.545 23.0919 126.545C25.401 126.545 27.2738 126.952 27.2738 127.454Z" fill="#D39E00"/>
<path fill-rule="evenodd" clip-rule="evenodd" d="M18.9102 127.273H27.2738V126.182H18.9102V127.273Z" fill="#D39E00"/>
<path fill-rule="evenodd" clip-rule="evenodd" d="M27.2738 125.999C27.2738 126.502 25.401 126.909 23.0919 126.909C20.782 126.909 18.9102 126.502 18.9102 125.999C18.9102 125.498 20.782 125.091 23.0919 125.091C25.401 125.091 27.2738 125.498 27.2738 125.999Z" fill="#F6C854"/>
<path fill-rule="evenodd" clip-rule="evenodd" d="M27.2738 125.636C27.2738 126.138 25.401 126.545 23.0919 126.545C20.782 126.545 18.9102 126.138 18.9102 125.636C18.9102 125.134 20.782 124.727 23.0919 124.727C25.401 124.727 27.2738 125.134 27.2738 125.636Z" fill="#D39E00"/>
<path fill-rule="evenodd" clip-rule="evenodd" d="M18.9102 125.454H27.2738V124.363H18.9102V125.454Z" fill="#D39E00"/>
<path fill-rule="evenodd" clip-rule="evenodd" d="M27.2738 124.181C27.2738 124.683 25.401 125.091 23.0919 125.091C20.782 125.091 18.9102 124.683 18.9102 124.181C18.9102 123.679 20.782 123.272 23.0919 123.272C25.401 123.272 27.2738 123.679 27.2738 124.181Z" fill="#F6C854"/>
<path fill-rule="evenodd" clip-rule="evenodd" d="M27.2738 123.818C27.2738 124.32 25.401 124.727 23.0919 124.727C20.782 124.727 18.9102 124.32 18.9102 123.818C18.9102 123.316 20.782 122.909 23.0919 122.909C25.401 122.909 27.2738 123.316 27.2738 123.818Z" fill="#D39E00"/>
<path fill-rule="evenodd" clip-rule="evenodd" d="M18.9102 123.636H27.2738V122.545H18.9102V123.636Z" fill="#D39E00"/>
<path fill-rule="evenodd" clip-rule="evenodd" d="M27.2738 122.363C27.2738 122.865 25.401 123.272 23.0919 123.272C20.782 123.272 18.9102 122.865 18.9102 122.363C18.9102 121.861 20.782 121.454 23.0919 121.454C25.401 121.454 27.2738 121.861 27.2738 122.363Z" fill="#F6C854"/>
<path fill-rule="evenodd" clip-rule="evenodd" d="M27.2738 121.636C27.2738 122.138 25.401 122.545 23.0919 122.545C20.782 122.545 18.9102 122.138 18.9102 121.636C18.9102 121.134 20.782 120.727 23.0919 120.727C25.401 120.727 27.2738 121.134 27.2738 121.636Z" fill="#D39E00"/>
<path fill-rule="evenodd" clip-rule="evenodd" d="M18.9102 121.454H27.2738V120.363H18.9102V121.454Z" fill="#D39E00"/>
<path fill-rule="evenodd" clip-rule="evenodd" d="M27.2738 120.545C27.2738 121.047 25.401 121.454 23.0919 121.454C20.782 121.454 18.9102 121.047 18.9102 120.545C18.9102 120.043 20.782 119.636 23.0919 119.636C25.401 119.636 27.2738 120.043 27.2738 120.545Z" fill="#F6C854"/>
<path fill-rule="evenodd" clip-rule="evenodd" d="M27.2738 119.818C27.2738 120.32 25.401 120.727 23.0919 120.727C20.782 120.727 18.9102 120.32 18.9102 119.818C18.9102 119.316 20.782 118.909 23.0919 118.909C25.401 118.909 27.2738 119.316 27.2738 119.818Z" fill="#D39E00"/>
<path fill-rule="evenodd" clip-rule="evenodd" d="M18.9102 120H27.2738V118.909H18.9102V120Z" fill="#D39E00"/>
<path fill-rule="evenodd" clip-rule="evenodd" d="M27.2738 118.726C27.2738 119.229 25.401 119.636 23.0919 119.636C20.782 119.636 18.9102 119.229 18.9102 118.726C18.9102 118.225 20.782 117.818 23.0919 117.818C25.401 117.818 27.2738 118.225 27.2738 118.726Z" fill="#F6C854"/>
</svg>
