<svg width="160" height="160" viewBox="0 0 160 160" fill="none" xmlns="http://www.w3.org/2000/svg">
<path fill-rule="evenodd" clip-rule="evenodd" d="M79.2091 14.1353C60.1875 27.8497 44.6728 23.8755 34.2966 22.1709C13.5926 18.7685 5.87544 38.1673 13.4279 52.8938C20.9807 67.6199 27.3076 85.5377 9.13086 99.7448C-9.04545 113.951 11.4136 149.893 40.7089 139.979C70.0037 130.064 103.076 131.465 118.148 142.186C133.22 152.906 166.467 127.845 140.161 102.607C113.856 77.3682 131.026 66.6193 140.008 55.1376C148.989 43.6555 145.313 22.4967 120.182 12.1881C120.182 12.1881 98.2311 0.421361 79.2091 14.1353Z" fill="#EAF7FE"/>
<path fill-rule="evenodd" clip-rule="evenodd" d="M159.604 138.04C159.604 142.759 124.772 146.585 81.8039 146.585C38.8361 146.585 4.00391 142.759 4.00391 138.04C4.00391 133.32 38.8361 129.494 81.8039 129.494C124.772 129.494 159.604 133.32 159.604 138.04Z" fill="#CEDEE7"/>
<path fill-rule="evenodd" clip-rule="evenodd" d="M31.4662 33.2291C31.9031 29.6673 34.9278 26.9097 38.5937 26.9097C42.5598 26.9097 45.7752 30.1375 45.7752 34.1194C45.7752 34.7727 45.6887 35.4057 45.5264 36.0074C45.5873 36.0082 45.6478 36.0104 45.7079 36.0139L45.7755 36.0083V36.0184C47.8325 36.1736 49.4538 37.8985 49.4538 40.0035C49.4538 42.1085 47.8325 43.8335 45.7755 43.9886V44.0006H19.6287V44.0002H19.6286C18.0259 44.0002 16.7266 42.6955 16.7266 41.0863C16.7266 39.4771 18.0259 38.1726 19.6286 38.1726H19.6287V38.1725L26.2531 37.6242C26.2229 37.4256 26.2072 37.2221 26.2072 37.015C26.2072 34.8079 27.9893 33.0185 30.1878 33.0185C30.635 33.0185 31.065 33.0926 31.4662 33.2291Z" fill="#CEDEE7"/>
<path fill-rule="evenodd" clip-rule="evenodd" d="M83.1766 36.6789C81.9187 35.7545 81.1016 34.2646 81.1016 32.5854C81.1016 29.7836 83.3763 27.5088 86.1781 27.5088C88.7652 27.5088 90.9029 29.4482 91.2154 31.9511C91.27 32.2119 91.3098 32.4755 91.3371 32.7392L91.3372 32.7396L91.3381 32.7454L91.3382 32.7474C91.3463 32.8263 91.3534 32.9051 91.3593 32.9838L91.709 36.9012L90.9131 37.1675L90.9048 37.1694L90.9048 37.1695C90.885 37.2377 90.8741 37.2746 90.8741 37.2746L90.8525 37.8045L90.8134 38.795C90.7998 39.1227 90.7313 39.4439 90.612 39.7459C90.5286 39.959 90.4184 40.1631 90.2837 40.3526C90.1256 40.5749 89.9367 40.7744 89.7258 40.9429C89.616 41.0313 89.4992 41.1102 89.3772 41.1804C89.3126 41.2177 89.2482 41.252 89.1813 41.2841L89.1809 41.2843L89.5228 47.472C89.5228 47.472 87.7164 48.0163 85.7384 47.5844C84.5428 47.3255 83.2833 46.7075 82.3225 45.3993C82.3225 45.3993 83.4597 40.47 83.1766 36.6789Z" fill="#FFC4B8"/>
<path fill-rule="evenodd" clip-rule="evenodd" d="M85.7558 47.5109C84.5601 47.2521 83.3007 46.634 82.3398 45.3258C82.3398 45.3258 83.5699 40.044 83.153 36.2056C83.153 36.2056 85.9511 43.0275 85.7558 47.5109ZM90.9106 37.1895C90.632 37.2712 90.3577 37.0523 90.3759 36.7629L90.493 34.897L90.9106 37.1895Z" fill="#F4A48D"/>
<path fill-rule="evenodd" clip-rule="evenodd" d="M84.5265 27.0672C86.7108 26.9897 86.4426 25.0913 86.4426 25.0913C88.78 25.1689 89.7764 26.0599 89.7764 26.0599C91.6542 27.5706 90.9097 30.6014 90.9097 30.6014C90.6231 28.3143 87.1614 29.2894 85.8062 29.519C85.2525 30.0685 85.4662 31.41 85.1855 32.5406C85.1804 32.5611 84.5782 34.0913 84.5782 34.0913L84.5775 34.0931L84.5435 34.2521C84.5336 34.2261 84.5232 34.2001 84.5123 34.1741C84.148 33.3014 83.406 32.7852 82.8554 33.02C82.3044 33.255 82.1534 34.1527 82.5177 35.0254C82.6446 35.3294 82.9651 35.5902 83.1596 35.791C83.3107 37.0723 83.2824 38.2625 83.1758 39.2842L82.6108 39.3089L79.8519 29.8784C79.7008 28.5716 81.0041 27.6434 81.9256 27.3575C82.6429 27.1349 83.5698 27.1011 84.5265 27.0672Z" fill="#444444"/>
<path fill-rule="evenodd" clip-rule="evenodd" d="M148.348 97.7783L138.385 116.724L134.595 109.808L87.6055 135.666L80.0253 121.83L34.9084 146.545H28.9084L20.7266 145.091L83.125 111.152L90.7077 124.988L130.818 102.915L127.03 96L148.363 97.7489L148.348 97.7783Z" fill="#2A8FEC"/>
<path fill-rule="evenodd" clip-rule="evenodd" d="M138.395 116.748L134.602 109.838L87.5824 135.674L79.9972 121.85L34.9102 148L28.9102 146.546L81.1336 116.094L88.7208 129.919L148.365 97.8184L138.395 116.748Z" fill="#1B4872"/>
<path fill-rule="evenodd" clip-rule="evenodd" d="M60.9573 112.364L58.1798 114.204C58.1798 114.204 58.1425 115.418 59.2607 116.727L62.5433 114.639L60.9573 112.364Z" fill="#FFC4B8"/>
<path fill-rule="evenodd" clip-rule="evenodd" d="M81.8178 85.2767C81.8178 85.2767 81.5211 101.322 79.8218 104.489C78.1225 107.656 61.8456 115.273 61.8456 115.273C61.8456 115.273 60.7061 113.967 60.3633 112.143C60.3633 112.143 64.9504 108.097 66.7651 106.267C69.4874 103.521 73.5141 101.141 73.5141 101.141L73.1005 82.9092L81.8178 85.2767Z" fill="#34466B"/>
<path fill-rule="evenodd" clip-rule="evenodd" d="M110.181 110.182C110 110.182 111.32 109.587 112.727 108.546L110.786 104.728L108.363 106.178L110.181 110.182Z" fill="#FFC4B8"/>
<path fill-rule="evenodd" clip-rule="evenodd" d="M81.0555 76C81.0555 76 99.0665 82.981 101.417 85.7458C103.767 88.5116 111.636 105.637 111.636 105.637C111.636 105.637 110.315 108.053 108.45 107.573C108.45 107.573 104.435 101.63 103.014 99.3435C101.529 96.954 98.0453 94.0926 96.3584 88.9403C96.3584 88.9403 86.739 88.5946 79.4005 87.3933C74.4668 86.5863 71.0418 83.026 72.2403 78.1494L72.2512 78.1114C72.3463 77.8127 72.6037 77.5955 72.9099 77.538L81.0555 76Z" fill="#34466B"/>
<path fill-rule="evenodd" clip-rule="evenodd" d="M118.092 43.2814C117.499 43.1481 115.055 44.6383 114.949 44.6633C114.843 44.6883 114.347 44.5535 113.847 44.5207C113.346 44.4879 113.058 44.6649 112.692 45.3629C112.327 46.063 112.045 47.2554 112.045 47.2554C111.812 47.3673 111.552 47.4881 111.273 47.6135C111.692 48.3631 112.133 49.0985 112.602 49.8184C113.022 49.5425 113.4 49.2901 113.718 49.0746C113.966 49.1553 114.215 49.1751 114.444 49.1084C115.045 48.9309 115.555 48.7347 115.853 48.6134C116.03 48.5385 116.133 48.4932 116.133 48.4932L116.143 48.4994C116.2 48.5229 116.485 48.6259 117.037 48.4406C117.657 48.2309 118.054 47.7452 118.043 47.434C118.034 47.1206 117.662 46.966 117.662 46.966C117.662 46.966 117.914 46.7214 117.879 46.3935C117.844 46.063 117.26 45.7803 117.26 45.7803C117.26 45.7803 117.509 45.4248 117.251 45.1073C117.006 44.7997 116.258 45.1359 116.194 45.163C116.299 45.0881 118.67 43.411 118.092 43.2814Z" fill="#FFC4B8"/>
<path fill-rule="evenodd" clip-rule="evenodd" d="M112.727 49.5466C112.727 49.5466 105.298 54.1085 103.158 54.4633C101.018 54.818 94.4452 53.9103 94.4452 53.9103C93.7025 53.8577 93.0423 53.7792 92.4529 53.6758C90.4627 53.3268 89.296 52.6943 88.6128 51.8656C87.4706 50.4868 88.1573 48.4905 88.8021 46.9092C88.8021 46.9092 89.8379 47.6962 95.042 48.7428C95.042 48.7428 102.441 50.122 102.839 50.1943C102.839 50.1943 108.411 48.4608 111.495 47.149C111.495 47.149 112.162 49.1823 112.727 49.5466Z" fill="#CEDEE7"/>
<path fill-rule="evenodd" clip-rule="evenodd" d="M111.955 46.5459L110.91 46.9655L112.477 49.8186L113.456 49.3294L111.955 46.5459Z" fill="#9BC3D3"/>
<path fill-rule="evenodd" clip-rule="evenodd" d="M62.1985 96.0201C61.9178 96.6286 61.1917 96.8962 60.5802 96.6166L35.2544 85.0583C34.6414 84.7782 34.3737 84.0573 34.6544 83.4488L41.7963 67.981C42.078 67.371 42.8016 67.1043 43.4151 67.384L68.7404 78.9423C69.3524 79.2219 69.6221 79.9423 69.3403 80.5523L62.1985 96.0201Z" fill="#444444"/>
<path fill-rule="evenodd" clip-rule="evenodd" d="M68.9073 80.7275C69.1868 80.1133 68.9902 79.3053 68.3832 79.0237L43.2638 67.3847C42.6553 67.1032 41.9375 67.3717 41.6581 67.9859L37.8164 76.4326L65.1366 89.0911L68.9073 80.7275Z" fill="#767676"/>
<path fill-rule="evenodd" clip-rule="evenodd" d="M60.6086 72.4067L59.4728 74.9091L58.2176 74.3276L59.3208 71.8953L58.1023 71.3295L58.0421 71.3016L57.3011 70.9576L57.2093 70.9155L53.9966 69.4228L52.8919 71.8552L51.6367 71.2722L52.773 68.7698C53.073 68.1082 53.8501 67.8164 54.5028 68.1204L57.5168 69.5187L57.7431 69.6237L58.1625 69.8191L58.2507 69.8591L59.968 70.6572C60.6206 70.9612 60.9091 71.7451 60.6086 72.4067Z" fill="black"/>
<path fill-rule="evenodd" clip-rule="evenodd" d="M45.0644 78.065L43.9395 80.5705C43.8788 80.7058 43.7226 80.7653 43.5903 80.7028L42.3335 80.1128C42.2012 80.0507 42.143 79.891 42.2037 79.7557L43.3287 77.2501C43.3899 77.1133 43.5461 77.0538 43.6788 77.1159L44.9351 77.7059C45.0674 77.7679 45.1256 77.9282 45.0644 78.065Z" fill="black"/>
<path fill-rule="evenodd" clip-rule="evenodd" d="M60.3378 85.3381L59.2138 87.8427C59.1532 87.9785 58.9966 88.0375 58.8648 87.9755L57.6066 87.385C57.4749 87.323 57.4162 87.1623 57.4774 87.0275L58.6014 84.5224C58.6625 84.3856 58.8191 84.3266 58.9513 84.3881L60.209 84.979C60.3413 85.0411 60.3989 85.2013 60.3378 85.3381Z" fill="black"/>
<path fill-rule="evenodd" clip-rule="evenodd" d="M59.3521 70.4731C59.132 70.3904 58.7816 70.2246 58.5669 70.1095C58.584 70.0519 58.5904 69.9387 58.5167 69.8329C58.3532 69.5983 58.0443 69.6957 57.9701 69.8329C57.7817 70.0922 57.5934 70.6 57.5519 71.1132L57.9062 71.2943C57.9062 71.2943 57.5831 71.6977 57.2991 71.6283C56.9141 71.5344 56.9644 71.1132 56.9644 71.1132C56.9644 71.1132 56.7672 71.465 56.4734 71.343C56.1797 71.2209 56.1758 70.8652 56.1758 70.8652C55.6668 71.1294 55.4994 70.6094 55.4994 70.6094C55.4994 70.6094 55.0138 70.7998 54.9201 70.3761C54.8245 69.953 55.4477 68.6664 55.4477 68.6664C55.9449 67.4693 56.6569 66.1472 57.3709 65.3019C57.5368 64.9314 57.7378 64.4896 57.9633 64C58.4571 64.3508 58.9725 64.6726 59.4678 65.0195C59.7669 65.2276 60.0656 65.4357 60.3647 65.6424C59.9143 66.2436 59.5385 66.7347 59.2965 67.0481C59.317 67.4053 59.3248 67.7896 59.2882 68.0685C59.2111 68.6747 59.6088 69.8211 59.3521 70.4731Z" fill="#FFC4B8"/>
<path fill-rule="evenodd" clip-rule="evenodd" d="M78.7602 53.319C78.7602 53.319 81.6455 48.946 79.9986 45.8184C79.9986 45.8184 73.1037 48.5814 69.6652 50.5317C69.6652 50.5317 64.5255 53.3444 62.8021 55.2713L57.4531 64.4342C57.4531 64.4342 59.0576 66.2967 60.1575 66.1764C62.1391 63.4535 64.9106 59.5448 65.4467 58.2458L72.2225 56.0224L78.7602 53.319Z" fill="#CEDEE7"/>
<path fill-rule="evenodd" clip-rule="evenodd" d="M57.7894 64C57.4506 64.2423 57.1458 64.6084 57.0898 65.0706L59.9588 66.9091C60.2627 66.64 60.5164 66.2946 60.7262 65.882L57.7894 64Z" fill="#9BC3D3"/>
<path fill-rule="evenodd" clip-rule="evenodd" d="M88.7577 79.6366C86.0621 78.5686 82.0435 76.5586 78.2034 78.2438C75.0868 79.6122 72.0504 78.8316 72.0504 78.8316C72.0504 78.8316 71.7431 75.3242 72.6456 71.7515C73.5432 68.1997 74.4312 63.7547 74.7435 62.0038C75.0079 60.5248 75.2659 59.125 75.5148 57.8223C75.6715 57.0059 75.8261 56.2283 75.9768 55.493C76.8454 51.2722 77.2271 47.6517 77.8966 47.0987C79.7864 45.5375 82.7273 44.7275 82.7273 44.7275C84.8124 45.7774 86.1457 46.3835 86.7273 46.5457C86.7965 46.565 87.645 46.262 89.2727 45.6366C89.2727 45.6366 90.2135 47.2337 90.1816 48.9937C89.9052 64.5174 89.4921 64.625 89.1918 69.3444C89.1024 70.7457 89.1518 72.8863 88.7577 75.0407C88.3845 77.0772 88.7577 79.6366 88.7577 79.6366Z" fill="#CEDEE7"/>
<path fill-rule="evenodd" clip-rule="evenodd" d="M86.9324 71.6368L84.7266 66.6248L86.323 49.481C86.1056 49.253 86.1198 49.0302 86.3654 48.8126C86.611 48.595 86.8803 48.5667 87.1731 48.7277L88.7266 66.3879L86.9324 71.6368Z" fill="#2A8FEC"/>
<path d="M87.2677 46.3102L88.4925 48.3515L86.952 49.4469L84.685 48.1414L86.726 46.1819L87.9677 47.6807" fill="#2A8FEC"/>
<path fill-rule="evenodd" clip-rule="evenodd" d="M82.8645 43.6987C83.2623 45.4919 86.7248 46.1818 86.7248 46.1818L84.7248 49.0909C84.7248 49.0909 83.3308 47.9394 80.543 45.6364C82.0906 44.3446 82.8645 43.6987 82.8645 43.6987Z" fill="#9BC3D3"/>
<path fill-rule="evenodd" clip-rule="evenodd" d="M89.9993 47.273L88.5447 49.4548L86.7266 46.1821C88.1347 45.7489 88.9736 45.264 89.2434 44.7275C89.2434 44.7275 89.4954 45.576 89.9993 47.273Z" fill="#9BC3D3"/>
<path fill-rule="evenodd" clip-rule="evenodd" d="M112.713 108.503L116.888 108.375L117.837 110.242L111.414 113.772L109.905 109.979L112.713 108.503Z" fill="black"/>
<path fill-rule="evenodd" clip-rule="evenodd" d="M59.456 116.546L59.4857 121.195L57.5862 122.078L54.2832 115.536L58.1261 114.16L59.456 116.546Z" fill="black"/>
</svg>
