<svg width="160" height="177" viewBox="0 0 160 177" fill="none" xmlns="http://www.w3.org/2000/svg">
<path fill-rule="evenodd" clip-rule="evenodd" d="M7.45463 74.4098L23.5144 52.1775H160L96.2842 140.383H55.1106C12.7495 140.383 -13.726 103.731 7.45463 74.4098Z" fill="#DEEDF2"/>
<g clip-path="url(#clip0_1487_21500)">
<path fill-rule="evenodd" clip-rule="evenodd" d="M82.832 148.299C82.832 159.498 91.9105 168.577 103.109 168.577C114.308 168.577 123.387 159.498 123.387 148.299C123.387 137.1 114.308 128.022 103.109 128.022C91.9105 128.022 82.832 137.1 82.832 148.299Z" fill="#D39E00"/>
<path fill-rule="evenodd" clip-rule="evenodd" d="M85.332 148.3C85.332 159.497 94.4117 168.577 105.609 168.577C107.456 168.577 109.245 168.331 110.944 167.866C119.556 165.525 125.886 157.651 125.886 148.3C125.886 137.101 116.808 128.021 105.609 128.021C100.041 128.021 94.9971 130.267 91.3324 133.903C87.6273 137.576 85.332 142.67 85.332 148.3Z" fill="#FFE99F"/>
<path fill-rule="evenodd" clip-rule="evenodd" d="M85.332 148.3C85.332 159.497 94.4117 168.577 105.609 168.577C107.456 168.577 109.245 168.33 110.944 167.866L91.3324 133.903C87.6273 137.576 85.332 142.67 85.332 148.3Z" fill="#F6C854"/>
</g>
<g clip-path="url(#clip1_1487_21500)">
<path fill-rule="evenodd" clip-rule="evenodd" d="M15.0897 15.6697L44.9216 67.2526L95.5237 69.1147L106.553 64.6855L120.764 61.8464C122.34 61.5311 123.921 62.3714 124.538 63.8534C124.715 64.2787 124.798 64.7168 124.798 65.1463C124.798 66.6336 123.802 68.0186 122.254 68.4098L111.886 71.0337L106.812 73.7666L118.291 75.6435L142.729 80.8546C144.842 81.3052 146.262 83.2915 146.001 85.4334C145.726 87.7 143.676 89.3234 141.401 89.0749L125.024 87.2851L145.635 98.169C148.046 99.4414 148.688 102.596 146.97 104.708C146.129 105.739 144.887 106.303 143.611 106.303C143.07 106.303 142.522 106.201 141.998 105.99L115.134 95.1894L105.503 91.3173L108.164 97.2356C109.478 99.4196 109.939 102.01 109.461 104.513L105.56 124.904C105.055 127.547 102.379 129.178 99.7938 128.422C99.7938 128.423 99.7938 128.423 99.7938 128.423C99.8696 129.79 99.2978 131.156 98.178 132.062C97.3715 132.712 96.3972 133.034 95.4244 133.034C94.3298 133.034 93.2382 132.626 92.3946 131.82L85.3339 125.065C84.5675 124.859 81.1916 123.5 76.8608 121.708C72.5285 119.917 67.2411 117.691 62.6489 115.747C55.5719 112.752 49.193 108.329 43.9116 102.754L38.0168 96.5313L0 61.8551L5.15373 42.1588L8.19094 30.5492L8.19055 30.5488L15.0897 15.6697ZM96.6674 121.622L97.9148 103.358L92.5814 95.0296L83.5559 91.207L83.488 91.1962L83.4878 91.1965L76.445 103.358L87.8142 111.827C91.3846 114.485 94.3892 117.816 96.666 121.62C96.6665 121.621 96.6669 121.622 96.6674 121.622Z" fill="#F4A48D"/>
</g>
<defs>
<clipPath id="clip0_1487_21500">
<rect width="43.0769" height="40.6" fill="white" transform="translate(82.832 128.021)"/>
</clipPath>
<clipPath id="clip1_1487_21500">
<rect width="147.938" height="117.365" fill="white" transform="translate(0 15.6697)"/>
</clipPath>
</defs>
</svg>
