<svg width="160" height="160" viewBox="0 0 160 160" fill="none" xmlns="http://www.w3.org/2000/svg">
<path fill-rule="evenodd" clip-rule="evenodd" d="M82.4868 156.706C81.8659 156.714 81.2445 156.714 80.6237 156.707L80.5004 156.706L80.5081 156.064C81.0821 156.071 81.6571 156.072 82.2321 156.067L82.4791 156.064C82.4812 156.278 82.4842 156.492 82.4868 156.706ZM86.4533 156.558C85.833 156.596 85.2116 156.627 84.5908 156.652L84.4701 156.657L84.4456 156.015C85.0828 155.991 85.7199 155.96 86.3576 155.92L86.4131 155.917C86.4258 156.131 86.4396 156.344 86.4533 156.558ZM76.6537 155.922C77.2501 155.958 77.8475 155.988 78.445 156.012L78.5341 156.015L78.5097 156.656C77.8771 156.632 77.245 156.601 76.614 156.563L76.5274 156.558L76.5676 155.917C76.5962 155.918 76.6247 155.92 76.6537 155.922ZM90.4065 156.211C89.7882 156.28 89.1684 156.343 88.5491 156.399L88.4314 156.409L88.3749 155.77C89.0029 155.714 89.6314 155.651 90.2588 155.581L90.3347 155.573C90.3581 155.785 90.3826 155.998 90.4065 156.211ZM72.7505 155.584C73.3383 155.649 73.9281 155.708 74.5173 155.761L74.6034 155.769L74.5469 156.408C73.923 156.353 73.3006 156.291 72.6787 156.222L72.5723 156.21L72.6441 155.572C72.6792 155.576 72.7154 155.58 72.7505 155.584ZM94.3412 155.664C93.7127 155.768 93.0842 155.863 92.4537 155.951L92.3783 155.962L92.2902 155.326C92.9355 155.236 93.5783 155.139 94.2205 155.033C94.2205 155.033 94.2995 155.413 94.3412 155.664ZM68.7893 155.037C69.4071 155.139 70.0254 155.232 70.6452 155.319L70.69 155.326L70.6019 155.962C69.9994 155.878 69.4005 155.787 68.802 155.69L68.639 155.663L68.7434 155.03C68.7587 155.032 68.774 155.035 68.7893 155.037ZM98.2395 154.918C97.5932 155.059 96.9448 155.191 96.296 155.316L96.1737 154.686C96.7834 154.57 97.3925 154.444 98.0001 154.313L98.103 154.291C98.1488 154.5 98.1942 154.709 98.2395 154.918ZM64.894 154.294C65.5006 154.425 66.1087 154.55 66.7179 154.668L66.8039 154.685L66.6832 155.315C66.0395 155.191 65.3977 155.06 64.7575 154.921L64.8752 154.29C64.8813 154.292 64.8879 154.293 64.894 154.294ZM61.0724 153.36C61.6673 153.52 62.2637 153.675 62.8622 153.823L62.9579 153.846L62.8051 154.47C62.17 154.314 61.5359 154.15 60.9039 153.979L61.0516 153.354C61.0587 153.356 61.0653 153.357 61.0724 153.36ZM102.096 153.975C101.461 154.147 100.825 154.311 100.186 154.468L100.021 153.847C100.625 153.7 101.225 153.545 101.824 153.383L101.928 153.355C101.984 153.562 102.04 153.768 102.096 153.975ZM105.9 152.836C105.308 153.03 104.712 153.217 104.114 153.397L104.006 153.43L103.821 152.815C104.443 152.629 105.064 152.434 105.682 152.232C105.682 152.232 105.821 152.594 105.9 152.836ZM57.3246 152.239C57.9067 152.429 58.4914 152.613 59.0776 152.789L59.1571 152.813L58.9727 153.428C58.3921 153.254 57.8125 153.072 57.2349 152.885L57.078 152.834L57.2782 152.224C57.2935 152.229 57.3093 152.234 57.3246 152.239ZM109.641 151.504C109.082 151.719 108.52 151.928 107.957 152.131L107.779 152.194L107.564 151.589C108.123 151.389 108.683 151.183 109.239 150.97L109.41 150.905C109.487 151.105 109.564 151.304 109.641 151.504ZM53.6617 150.938C54.2306 151.156 54.802 151.368 55.3755 151.572L55.4162 151.587L55.2013 152.192C55.0791 152.148 54.9563 152.104 54.8346 152.06C54.4012 151.903 53.9693 151.742 53.5389 151.578L53.3398 151.502L53.57 150.903C53.6005 150.915 53.6311 150.927 53.6617 150.938ZM49.9788 149.415C50.5334 149.661 51.0906 149.901 51.6503 150.135L51.741 150.172L51.495 150.765C50.8991 150.518 50.3073 150.263 49.7185 150.002L49.6711 149.981L49.9319 149.395C49.9477 149.402 49.9635 149.409 49.9788 149.415ZM113.309 149.983C112.708 150.251 112.104 150.509 111.497 150.762L111.238 150.174C111.383 150.115 111.527 150.054 111.671 149.994C112.124 149.801 112.577 149.606 113.027 149.406C113.027 149.406 113.205 149.752 113.309 149.983ZM116.892 148.279C116.351 148.553 115.808 148.82 115.261 149.082L115.111 149.154L114.835 148.574C115.361 148.324 115.885 148.067 116.407 147.805L116.603 147.706C116.699 147.897 116.796 148.088 116.892 148.279ZM46.3963 147.712C46.9687 148.002 47.5448 148.285 48.1244 148.562L47.8687 149.15C47.7245 149.082 47.5804 149.013 47.4363 148.943C46.9911 148.728 46.5475 148.508 46.106 148.285L46.3774 147.703C46.3835 147.706 46.3901 147.709 46.3963 147.712ZM120.387 146.393C119.867 146.69 119.344 146.982 118.818 147.268L118.652 147.357L118.347 146.793C118.468 146.727 118.589 146.662 118.71 146.596C119.107 146.379 119.501 146.159 119.893 145.935L120.068 145.836C120.174 146.022 120.281 146.207 120.387 146.393ZM42.9158 145.835C43.471 146.152 44.0302 146.464 44.593 146.768L44.6322 146.789L44.3276 147.354C44.1804 147.275 44.0338 147.195 43.8876 147.115C43.4552 146.878 43.0248 146.637 42.5965 146.392C42.5965 146.392 42.8761 145.812 42.9158 145.835ZM123.782 144.333C123.28 144.654 122.776 144.97 122.268 145.28L122.097 145.384L121.765 144.835C122.271 144.528 122.772 144.215 123.271 143.897L123.434 143.792C123.55 143.972 123.666 144.152 123.782 144.333ZM39.6389 143.849C40.145 144.172 40.6543 144.49 41.1677 144.803L41.215 144.832L40.8819 145.38C40.3815 145.076 39.8832 144.766 39.3883 144.45L39.1984 144.329L39.5449 143.788C39.5763 143.809 39.6076 143.828 39.6389 143.849ZM127.067 142.103C126.583 142.45 126.095 142.79 125.604 143.126L125.438 143.239L125.077 142.707C125.194 142.628 125.311 142.549 125.428 142.469C125.799 142.214 126.167 141.956 126.533 141.696L126.693 141.581C126.818 141.756 126.942 141.929 127.067 142.103ZM36.2875 141.578C36.8056 141.948 37.3278 142.313 37.8544 142.672L37.9016 142.704L37.5411 143.234C36.9928 142.862 36.4514 142.484 35.9137 142.1C35.9137 142.1 36.27 141.565 36.2875 141.578ZM130.234 139.711C129.767 140.082 129.295 140.448 128.82 140.81L128.665 140.927L128.278 140.414C128.389 140.331 128.5 140.247 128.61 140.162C128.967 139.889 129.322 139.614 129.674 139.336L129.835 139.208C129.968 139.376 130.101 139.543 130.234 139.711ZM33.1519 139.21C33.65 139.606 34.1525 139.996 34.6595 140.38L34.7003 140.41L34.3135 140.923C33.7874 140.525 33.2678 140.122 32.7524 139.712C32.7524 139.712 33.0976 139.167 33.1519 139.21ZM133.28 137.161C132.828 137.558 132.373 137.95 131.914 138.337L131.774 138.455L131.362 137.963C131.465 137.876 131.568 137.789 131.672 137.702C132.014 137.412 132.355 137.119 132.692 136.824L132.856 136.68C132.997 136.84 133.138 137.001 133.28 137.161ZM30.1427 136.69C30.6198 137.11 31.1016 137.524 31.5883 137.933L31.6188 137.958L31.2068 138.45C31.0809 138.345 30.9554 138.239 30.8301 138.133C30.4568 137.816 30.0863 137.495 29.7184 137.172L30.1255 136.675C30.1313 136.68 30.137 136.685 30.1427 136.69ZM136.19 134.462C135.729 134.912 135.262 135.354 134.791 135.792L134.751 135.83L134.314 135.359C134.793 134.916 135.267 134.465 135.735 134.009C135.735 134.009 136.01 134.279 136.19 134.462ZM27.2655 134.025C27.7208 134.468 28.181 134.905 28.6463 135.338L28.2287 135.826C27.7518 135.384 27.2824 134.937 26.8176 134.484L26.7899 134.457L27.2381 133.998C27.2473 134.007 27.2564 134.016 27.2655 134.025ZM138.962 131.62C138.521 132.096 138.074 132.565 137.622 133.03L137.594 133.058L137.136 132.61C137.587 132.147 138.034 131.677 138.475 131.202L138.492 131.184C138.649 131.329 138.806 131.475 138.962 131.62ZM24.526 131.218C24.9585 131.683 25.3962 132.143 25.8392 132.598L25.3866 133.054C24.9365 132.592 24.4938 132.126 24.0556 131.655L24.0185 131.614L24.4892 131.178C24.5015 131.192 24.5138 131.205 24.526 131.218ZM21.9305 128.277C22.3153 128.734 22.7048 129.188 23.0993 129.638L23.1698 129.718L22.688 130.142C22.2917 129.691 21.899 129.236 21.5115 128.776L21.3944 128.636L21.8864 128.224C21.9011 128.241 21.9158 128.259 21.9305 128.277ZM141.587 128.642C141.167 129.143 140.741 129.638 140.309 130.129L139.811 129.723C140.237 129.241 140.655 128.753 141.069 128.26L141.094 128.23C141.259 128.367 141.423 128.504 141.587 128.642ZM19.4817 125.206C19.8433 125.683 20.2099 126.156 20.5816 126.625L20.6399 126.699L20.1375 127.098C19.7659 126.63 19.3996 126.159 19.0383 125.683L18.9214 125.529L19.4335 125.142C19.4496 125.163 19.4657 125.184 19.4817 125.206ZM144.059 125.535C143.662 126.06 143.258 126.58 142.849 127.095L142.34 126.704C142.739 126.203 143.131 125.698 143.516 125.189L143.547 125.148C143.717 125.277 143.888 125.406 144.059 125.535ZM146.372 122.307C146 122.854 145.622 123.396 145.237 123.934L144.715 123.562C145.086 123.044 145.45 122.521 145.809 121.994L145.841 121.947C146.018 122.067 146.195 122.187 146.372 122.307ZM17.1889 122.012C17.5265 122.508 17.8693 122.999 18.2175 123.487L18.2669 123.556L17.745 123.93C17.3982 123.445 17.0577 122.958 16.722 122.467L16.6096 122.301L17.1406 121.941C17.1568 121.965 17.1728 121.988 17.1889 122.012ZM148.518 118.967C148.194 119.5 147.863 120.03 147.527 120.555L147.466 120.651L146.926 120.304C147.27 119.767 147.609 119.225 147.94 118.681L147.968 118.634C148.151 118.745 148.335 118.856 148.518 118.967ZM15.0575 118.7C15.3702 119.213 15.6883 119.722 16.012 120.228L16.0567 120.298L15.5166 120.644C15.1947 120.143 14.8789 119.638 14.5683 119.131L14.4649 118.961L15.0135 118.627C15.0281 118.652 15.0429 118.676 15.0575 118.7ZM150.491 115.522C150.178 116.103 149.856 116.679 149.528 117.252L148.969 116.938C149.044 116.806 149.12 116.673 149.195 116.541C149.435 116.115 149.672 115.687 149.905 115.256L149.926 115.217C150.115 115.319 150.302 115.42 150.491 115.522ZM13.0912 115.276C13.3781 115.805 13.6708 116.331 13.9691 116.855L14.0132 116.932L13.4562 117.251C13.1591 116.732 12.8672 116.208 12.5809 115.682L12.4914 115.516L13.0561 115.211C13.0678 115.232 13.0796 115.254 13.0912 115.276ZM11.2965 111.745C11.5567 112.291 11.823 112.832 12.0952 113.372L12.143 113.467L11.5703 113.756C11.2791 113.181 10.9947 112.603 10.717 112.021L10.6948 111.975L11.2745 111.699C11.2819 111.715 11.2891 111.73 11.2965 111.745ZM152.288 111.982C152.007 112.572 151.718 113.16 151.423 113.743L150.84 113.473C151.134 112.895 151.42 112.311 151.699 111.725C151.699 111.725 152.059 111.873 152.288 111.982ZM153.902 108.354C153.654 108.949 153.4 109.541 153.139 110.13L153.118 110.178L152.531 109.917C152.769 109.383 153.001 108.844 153.227 108.303L153.309 108.108C153.506 108.19 153.704 108.272 153.902 108.354ZM9.68021 108.114C9.92753 108.709 10.1818 109.301 10.4431 109.89L9.86585 110.171C9.80061 110.025 9.73608 109.878 9.67165 109.731C9.47286 109.276 9.2781 108.819 9.08732 108.36L9.67501 108.102C9.67674 108.106 9.67847 108.11 9.68021 108.114ZM155.328 104.649C155.13 105.205 154.926 105.759 154.715 106.31L154.639 106.51L154.039 106.28C154.093 106.143 154.145 106.005 154.197 105.868C154.372 105.404 154.543 104.94 154.71 104.474L154.724 104.434C154.925 104.505 155.127 104.577 155.328 104.649ZM8.28398 104.495C8.48928 105.069 8.7009 105.64 8.91894 106.209L8.94359 106.273L8.34453 106.504C8.12976 105.946 7.92114 105.384 7.71833 104.82L7.65487 104.642L8.25948 104.427C8.26768 104.45 8.27583 104.473 8.28398 104.495ZM156.565 100.876C156.391 101.457 156.21 102.036 156.023 102.613L155.972 102.77L155.361 102.57C155.546 102.009 155.723 101.445 155.894 100.88L155.951 100.692C156.155 100.753 156.361 100.814 156.565 100.876ZM7.06648 100.792C7.24346 101.378 7.42692 101.962 7.61699 102.545L7.0131 102.763C6.81885 102.171 6.63229 101.575 6.45179 100.977L6.41939 100.869L7.03413 100.684C7.04488 100.72 7.05563 100.756 7.06648 100.792ZM6.00432 96.8972C6.15136 97.4957 6.30502 98.0926 6.46546 98.6875L6.49357 98.7914L5.87409 98.9595C5.7022 98.3254 5.53774 97.6882 5.38088 97.0495C5.38088 97.0495 5.98558 96.8203 6.00432 96.8972ZM157.607 97.045C157.451 97.6801 157.287 98.3137 157.117 98.9452L156.491 98.7985C156.655 98.198 156.811 97.593 156.96 96.9874L156.983 96.8922C157.192 96.9426 157.4 96.994 157.607 97.045ZM5.16382 93.0383C5.28097 93.6489 5.40493 94.2571 5.53552 94.8632L5.55803 94.967L4.93081 95.103C4.7905 94.4572 4.65808 93.8089 4.53335 93.159C4.53335 93.159 5.11804 92.7984 5.16382 93.0383ZM158.452 93.1654C158.329 93.8087 158.198 94.4504 158.059 95.0906L157.427 94.9735C157.561 94.3618 157.686 93.7461 157.805 93.1298L157.822 93.0442C158.032 93.0845 158.242 93.1247 158.452 93.1654ZM159.099 89.2473C159.015 89.8483 158.924 90.4483 158.828 91.0472L158.801 91.2102L158.168 91.1058C158.189 90.9744 158.21 90.8435 158.231 90.7126C158.305 90.2492 158.375 89.7847 158.441 89.3202L158.463 89.1592C158.675 89.1888 158.887 89.2178 159.099 89.2473ZM4.53292 89.2269C4.62017 89.8467 4.71439 90.465 4.81559 91.0823L4.18496 91.2035C4.15838 91.0426 4.13255 90.8816 4.10688 90.7207C4.03314 90.2526 3.96321 89.7846 3.89725 89.316L3.88676 89.2406L4.52253 89.152C4.526 89.177 4.52951 89.2019 4.53292 89.2269ZM159.546 85.3027C159.492 85.9261 159.429 86.5484 159.359 87.1703L159.347 87.2778L158.71 87.2065C158.78 86.5815 158.843 85.9571 158.899 85.3322L158.907 85.2461C159.12 85.2655 159.333 85.2843 159.546 85.3027ZM4.0888 85.3558C4.14187 85.9451 4.20126 86.5344 4.26681 87.1221L4.27536 87.199L3.6376 87.2708C3.56777 86.653 3.50528 86.0327 3.44951 85.4123L3.43912 85.2957L4.07851 85.2387C4.08198 85.2779 4.08539 85.3171 4.0888 85.3558ZM159.794 81.3403C159.77 81.9724 159.739 82.6044 159.7 83.236L159.696 83.3225L159.055 83.2833C159.094 82.6589 159.125 82.032 159.15 81.405L159.153 81.3164C159.367 81.324 159.58 81.3327 159.794 81.3403ZM3.83844 81.4288C3.86212 82.0263 3.89212 82.6237 3.92853 83.2201L3.93195 83.2761L3.29138 83.3158C3.25268 82.6965 3.22171 82.0752 3.19701 81.4538L3.19242 81.3336L3.83385 81.3092C3.83538 81.3494 3.83686 81.3891 3.83844 81.4288ZM3.78471 77.3711C3.77768 77.9446 3.77666 78.5196 3.7818 79.0941L3.78471 79.3406L3.14282 79.3488C3.13523 78.7274 3.13472 78.1071 3.14129 77.4867L3.14282 77.3635C3.35673 77.3655 3.57074 77.3686 3.78471 77.3711ZM159.845 77.4867C159.851 78.1071 159.851 78.7274 159.844 79.3488L159.202 79.3406C159.208 78.7656 159.21 78.1916 159.205 77.6171L159.202 77.3711L159.844 77.3635C159.844 77.4042 159.844 77.446 159.845 77.4867ZM159.699 73.4514C159.735 74.0529 159.766 74.6549 159.79 75.2575L159.794 75.3777L159.153 75.4021C159.129 74.766 159.097 74.1283 159.058 73.4912L159.055 73.4357L159.696 73.3954C159.697 73.4143 159.698 73.4326 159.699 73.4514ZM3.9322 73.4297C3.89334 74.0541 3.86191 74.68 3.83726 75.307L3.8338 75.3967L3.19242 75.3722C3.21641 74.7391 3.24789 74.1071 3.28619 73.476L3.29154 73.3895C3.50514 73.4032 3.71865 73.4164 3.9322 73.4297ZM159.356 69.5172C159.422 70.11 159.482 70.7039 159.535 71.2988L159.546 71.4154L158.906 71.4719C158.851 70.8445 158.788 70.2165 158.718 69.589L158.71 69.5126L159.347 69.4403C159.35 69.4663 159.353 69.4922 159.356 69.5172ZM4.27562 69.5064C4.20538 70.1288 4.14228 70.7537 4.0861 71.3796L4.07851 71.4657L3.43912 71.4097C3.49418 70.7853 3.55662 70.1634 3.62579 69.5415L3.63775 69.4346C3.85039 69.4585 4.06298 69.483 4.27562 69.5064ZM158.804 65.5246C158.907 66.147 159.001 66.7704 159.089 67.3953L159.1 67.4712L158.464 67.5593C158.374 66.914 158.276 66.2707 158.171 65.6285L158.802 65.5083C158.802 65.5134 158.803 65.519 158.804 65.5246ZM4.81844 65.6067C4.79685 65.7371 4.77566 65.8685 4.75468 65.9989C4.68093 66.4629 4.6111 66.9269 4.5451 67.3919L4.52243 67.5533L3.88676 67.4647C3.97024 66.8637 4.0614 66.2638 4.15848 65.6648L4.18517 65.5018C4.39622 65.537 4.60739 65.5716 4.81844 65.6067ZM158.078 61.713C158.209 62.3247 158.335 62.9379 158.453 63.5527L157.822 63.6739C157.707 63.0653 157.581 62.4561 157.45 61.8485L157.427 61.7446L158.055 61.6086C158.063 61.6438 158.07 61.6779 158.078 61.713ZM5.55829 61.739C5.52386 61.8968 5.49019 62.0547 5.45673 62.2126C5.36083 62.6684 5.26869 63.1248 5.18033 63.5822L5.16377 63.6682L4.53335 63.5475C4.65686 62.9032 4.78816 62.262 4.92699 61.6213C4.92699 61.6213 5.30969 61.6855 5.55829 61.739ZM157.14 57.8564C157.302 58.4563 157.457 59.0584 157.605 59.6619L156.984 59.8264C156.837 59.2229 156.682 58.6229 156.52 58.0239L156.492 57.92L157.112 57.752C157.121 57.7866 157.131 57.8217 157.14 57.8564ZM6.49469 57.9138C6.45236 58.0697 6.41075 58.225 6.3694 58.3804C6.25119 58.8276 6.13669 59.2757 6.02587 59.7239L6.00228 59.8212L5.37889 59.6674C5.53474 59.0323 5.69848 58.3982 5.86966 57.7661C5.86966 57.7661 6.24976 57.8471 6.49469 57.9138ZM155.979 53.9674C156.171 54.5546 156.356 55.1434 156.535 55.7352L156.567 55.8427L155.952 56.0276C155.766 55.4057 155.572 54.7848 155.369 54.1665L155.973 53.9485C155.975 53.9541 155.977 53.9608 155.979 53.9674ZM7.62519 54.142C7.58445 54.2668 7.54411 54.3915 7.50388 54.5153C7.36336 54.9528 7.22645 55.3918 7.09322 55.8314L7.03617 56.0208L6.42138 55.8365C6.59572 55.2558 6.77688 54.6763 6.96411 54.0987L7.01524 53.9423C7.21856 54.009 7.42188 54.0753 7.62519 54.142ZM154.666 50.2722C154.886 50.8457 155.099 51.4217 155.306 52.0003L155.331 52.0691L154.726 52.285C154.527 51.7243 154.32 51.1656 154.108 50.6089L154.042 50.4383L154.642 50.2075C154.649 50.2289 154.658 50.2503 154.666 50.2722ZM8.94578 50.4328C8.71562 51.0307 8.49239 51.6332 8.27624 52.2378L8.26162 52.2785L7.65686 52.0636C7.70046 51.9408 7.74446 51.8191 7.78862 51.6964C7.94569 51.2635 8.10618 50.8316 8.27028 50.4012L8.34673 50.2026C8.54638 50.2795 8.74613 50.3559 8.94578 50.4328ZM153.13 46.5608C153.393 47.1541 153.649 47.7515 153.899 48.3515L153.311 48.6097C153.252 48.4651 153.191 48.321 153.13 48.1768C152.938 47.7235 152.742 47.2713 152.543 46.8215L153.12 46.5399C153.123 46.547 153.127 46.5531 153.13 46.5608ZM10.4536 46.7952C10.2006 47.3641 9.95426 47.9381 9.71391 48.5136L9.67607 48.6048L9.08333 48.3588C9.31568 47.7996 9.5547 47.2413 9.79978 46.6862L9.86722 46.5344C10.0626 46.622 10.2581 46.7086 10.4536 46.7952ZM151.464 43.0498C151.739 43.5937 152.006 44.1402 152.269 44.6903L152.291 44.7371L151.711 45.0127C151.46 44.4845 151.204 43.961 150.942 43.4404L150.843 43.2454L151.416 42.9551C151.431 42.9866 151.448 43.0182 151.464 43.0498ZM12.1449 43.2397C12.0734 43.3808 12.0025 43.5224 11.9319 43.6629C11.713 44.102 11.4976 44.5435 11.286 44.9866L10.6968 44.7315C10.9782 44.1391 11.2674 43.5524 11.563 42.9687C11.563 42.9687 11.9187 43.1251 12.1449 43.2397ZM149.574 39.5382C149.875 40.066 150.17 40.596 150.46 41.1302L150.495 41.1954L149.931 41.5004C149.65 40.9835 149.365 40.4669 149.072 39.9549L148.973 39.7799L149.53 39.4608C149.545 39.4866 149.56 39.5124 149.574 39.5382ZM14.0152 39.775C13.9396 39.9063 13.8647 40.039 13.7899 40.1709C13.5497 40.5962 13.3128 41.0252 13.0797 41.4556L13.0582 41.4953L12.4933 41.1907C12.5726 41.0435 12.6526 40.8968 12.7328 40.7502C12.9702 40.318 13.2114 39.8876 13.4562 39.4595C13.4562 39.4595 13.7927 39.6474 14.0152 39.775ZM147.514 36.1367C147.841 36.6474 148.161 37.1609 148.476 37.6779L148.52 37.7511L147.972 38.0838C147.664 37.5782 147.352 37.0762 147.034 36.5778L146.929 36.4135L147.469 36.0672C147.484 36.0901 147.499 36.1138 147.514 36.1367ZM16.0609 36.4086C15.7163 36.9457 15.3784 37.4865 15.0467 38.0308L15.0175 38.0789L14.4689 37.7454C14.5377 37.632 14.6068 37.5195 14.676 37.4062C14.914 37.0196 15.1551 36.6345 15.3991 36.2515L15.5206 36.0622C15.7007 36.1777 15.8808 36.2931 16.0609 36.4086ZM145.29 32.8511C145.641 33.3431 145.986 33.8386 146.326 34.3385L146.375 34.4102L145.845 34.7702C145.765 34.654 145.685 34.5372 145.606 34.421C145.351 34.0502 145.093 33.6823 144.833 33.3158L144.718 33.1552L145.24 32.7815C145.256 32.8045 145.273 32.8282 145.29 32.8511ZM18.2708 33.1502C17.8986 33.6694 17.535 34.1915 17.1768 34.718L17.1447 34.7653L16.6136 34.4053C16.9846 33.8581 17.3636 33.3159 17.7486 32.7773C17.7486 32.7773 18.0621 33.0011 18.2708 33.1502ZM142.907 29.6871C143.282 30.1597 143.651 30.6373 144.016 31.1178L144.064 31.1824L143.552 31.5689C143.197 31.0992 142.838 30.6352 142.473 30.1741L142.346 30.0127L142.848 29.6132C142.867 29.6376 142.887 29.6627 142.907 29.6871ZM20.6439 30.0083C20.5487 30.1273 20.454 30.2478 20.3595 30.3675C20.0596 30.7498 19.7624 31.1349 19.4686 31.5229L19.4376 31.5638L18.9254 31.1773C19.3229 30.6508 19.7263 30.1316 20.1356 29.616C20.1356 29.616 20.4435 29.8483 20.6439 30.0083ZM140.369 26.6501C140.767 27.1033 141.16 27.5609 141.549 28.022L141.593 28.0751L141.1 28.4875C140.725 28.0393 140.346 27.5968 139.962 27.1578L139.817 26.9936L140.299 26.5698C140.323 26.5963 140.347 26.6236 140.369 26.6501ZM23.1736 26.9893C23.0698 27.107 22.9664 27.2253 22.8632 27.3436C22.5447 27.7101 22.2288 28.0794 21.9162 28.4524L21.8904 28.4825L21.3983 28.0708C21.5038 27.9446 21.6098 27.8191 21.716 27.6936C22.0331 27.3207 22.3535 26.9499 22.677 26.582C22.677 26.582 22.9836 26.8215 23.1736 26.9893ZM137.605 23.6653C138.052 24.1243 138.493 24.5876 138.929 25.0566L138.966 25.0968L138.496 25.5335C138.051 25.0538 137.601 24.5811 137.145 24.1136C137.145 24.1136 137.557 23.6158 137.605 23.6653ZM25.8501 24.1019C25.3975 24.5659 24.9517 25.0349 24.5107 25.5097L24.0225 25.0923C24.4628 24.6168 24.9109 24.1463 25.3638 23.6809L25.3906 23.6537C25.5438 23.8028 25.6969 23.952 25.8501 24.1019ZM134.775 20.9035C135.244 21.3395 135.708 21.7806 136.167 22.2274L136.195 22.2546L135.747 22.7136C135.282 22.2604 134.814 21.815 134.338 21.3739L134.756 20.8863C134.763 20.892 134.769 20.8977 134.775 20.9035ZM28.6692 21.3523C28.4366 21.5681 28.2057 21.7854 27.976 22.0027C27.7324 22.2351 27.4901 22.4682 27.2492 22.7027L26.7939 22.2502C27.2552 21.7998 27.7216 21.3573 28.1929 20.9191L28.2327 20.8818C28.3782 21.0389 28.5237 21.1959 28.6692 21.3523ZM131.809 18.2862C132.3 18.6985 132.785 19.1159 133.266 19.5391L132.859 20.0361C132.376 19.6101 131.889 19.192 131.397 18.7782L131.366 18.753L131.778 18.2604C131.788 18.269 131.798 18.2776 131.809 18.2862ZM31.6243 18.7489C31.1762 19.124 30.7337 19.5041 30.2951 19.8877L30.1306 20.0319L29.7065 19.5507C30.1576 19.1533 30.6131 18.7611 31.0727 18.3738L31.2121 18.2569C31.3495 18.4212 31.4869 18.5846 31.6243 18.7489ZM128.713 15.8203C129.224 16.2076 129.73 16.6006 130.232 16.9993L129.841 17.5078C129.34 17.1091 128.834 16.7182 128.325 16.3323L128.284 16.3015L128.671 15.7894C128.685 15.7995 128.699 15.8095 128.713 15.8203ZM34.7063 16.2977C34.5955 16.3809 34.485 16.4648 34.3745 16.5495C34.0175 16.822 33.6633 17.0974 33.3112 17.3756L33.1497 17.504L32.7504 17.0013C33.218 16.6298 33.6896 16.2633 34.1651 15.9019L34.3193 15.7849C34.4483 15.9557 34.5772 16.1271 34.7063 16.2977ZM125.492 13.5094C126.023 13.8709 126.549 14.238 127.072 14.6117L126.698 15.1345C126.181 14.763 125.658 14.3987 125.131 14.0401L125.083 14.0078L125.444 13.4771C125.46 13.4879 125.476 13.4987 125.492 13.5094ZM37.9066 14.0043C37.7901 14.084 37.6736 14.1636 37.5572 14.2432C37.1863 14.4985 36.8181 14.7559 36.452 15.0162L36.2913 15.131L35.9177 14.6089C36.4017 14.2625 36.8896 13.9219 37.381 13.5863L37.546 13.4736C37.6662 13.6508 37.7864 13.8279 37.9066 14.0043ZM122.152 11.3599C122.669 11.6754 123.183 11.996 123.693 12.3223L123.788 12.3826L123.441 12.9226C122.904 12.5791 122.363 12.2406 121.818 11.9085L121.771 11.8798L122.104 11.3312C122.12 11.3405 122.136 11.3506 122.152 11.3599ZM41.2211 11.8761C41.101 11.9492 40.9808 12.0231 40.8606 12.0963C40.4766 12.333 40.0952 12.5718 39.7156 12.8142L39.5511 12.9196L39.2044 12.3788C39.7055 12.0576 40.2104 11.7413 40.7185 11.4308L40.8881 11.3275C40.9991 11.5104 41.1101 11.6933 41.2211 11.8761ZM118.699 9.37866C119.266 9.68629 119.83 9.99972 120.39 10.3203L120.075 10.8789C119.518 10.5598 118.958 10.2486 118.394 9.9438L118.355 9.92225L118.659 9.35712C118.672 9.3643 118.686 9.37148 118.699 9.37866ZM44.6383 9.91952C44.1193 10.1992 43.6044 10.4854 43.0925 10.7765L42.9173 10.8762L42.5985 10.3197C43.118 10.0221 43.6415 9.73021 44.1677 9.44402L44.3332 9.35438C44.435 9.54298 44.5364 9.73092 44.6383 9.91952ZM115.137 7.57038C115.721 7.84867 116.302 8.13409 116.879 8.42669L116.608 9.00833C116.031 8.71501 115.447 8.42954 114.861 8.14988L115.117 7.56035C115.123 7.56392 115.13 7.56682 115.137 7.57038ZM48.1496 8.13786C48.032 8.19378 47.9143 8.24975 47.7967 8.30639C47.3882 8.50359 46.9823 8.7037 46.5779 8.90738L46.3823 9.00634L46.092 8.43331C46.667 8.14214 47.2456 7.85814 47.8273 7.57991L47.8736 7.55836C47.9658 7.75129 48.0575 7.94422 48.1496 8.13786ZM111.581 5.98466C112.146 6.21986 112.707 6.46158 113.267 6.70901L113.314 6.7305L113.053 7.31713C112.517 7.07831 111.98 6.84667 111.44 6.62079L111.244 6.539L111.49 5.94662C111.52 5.95884 111.551 5.97173 111.581 5.98466ZM51.747 6.53724C51.6028 6.59749 51.4587 6.65769 51.3151 6.71794C50.8613 6.91016 50.409 7.10594 49.9588 7.30533L49.6771 6.72798C49.8238 6.66274 49.9705 6.59821 50.1172 6.53434C50.573 6.33499 51.0298 6.14064 51.4887 5.94985C51.4887 5.94985 51.6492 6.30128 51.747 6.53724ZM107.826 4.53376C108.404 4.741 108.981 4.954 109.555 5.17346L109.647 5.20931L109.416 5.80816C108.817 5.57795 108.215 5.35488 107.61 5.13832L107.57 5.12395L107.785 4.5194C107.798 4.52439 107.813 4.52943 107.826 4.53376ZM55.4207 5.12202C54.8584 5.32207 54.3002 5.52865 53.7451 5.74093L53.574 5.80617L53.3438 5.20733C53.9025 4.99219 54.4642 4.78348 55.0275 4.58123L55.2053 4.51741C55.2771 4.71895 55.3489 4.92048 55.4207 5.12202ZM104.091 3.30757C104.683 3.48542 105.272 3.67045 105.859 3.86196L105.906 3.87774L105.706 4.48729C105.581 4.44644 105.457 4.40626 105.332 4.36612C104.895 4.22555 104.456 4.08855 104.016 3.95516L103.827 3.89852L104.012 3.28317C104.038 3.29178 104.065 3.29968 104.091 3.30757ZM59.163 3.89657C58.5412 4.08374 57.9203 4.27809 57.303 4.47963L57.084 3.87574C57.6769 3.68138 58.2728 3.49492 58.8707 3.31422L58.9787 3.28193C59.0403 3.48703 59.1019 3.69142 59.163 3.89657ZM100.276 2.26555C100.88 2.41402 101.481 2.56966 102.081 2.73244L101.933 3.35782C101.331 3.19357 100.728 3.03797 100.123 2.8888L100.027 2.86511L100.18 2.24192C100.212 2.24981 100.244 2.25771 100.276 2.26555ZM62.9624 2.8635C62.8086 2.90079 62.6547 2.93954 62.5014 2.97825C62.0538 3.09086 61.6061 3.20704 61.1599 3.32754L61.056 3.3555L60.8879 2.73658C61.522 2.56444 62.1592 2.40023 62.7979 2.24316C62.7979 2.24316 62.9018 2.61537 62.9624 2.8635ZM96.387 1.4136C97.0017 1.53191 97.6149 1.65745 98.2266 1.79013L98.109 2.42193C97.4947 2.28783 96.881 2.16234 96.2658 2.04326L96.1797 2.02676L96.3009 1.39638C96.3294 1.40214 96.3585 1.40784 96.387 1.4136ZM66.8108 2.02601C66.5058 2.08407 66.2012 2.14504 65.8961 2.20671C65.4673 2.29421 64.8821 2.42042 64.8821 2.42042L64.7456 1.7929C65.3919 1.65309 66.0403 1.52042 66.6896 1.39563C66.6896 1.39563 66.763 1.77354 66.8108 2.02601ZM92.4296 0.756759C93.0546 0.844259 93.6785 0.93894 94.3008 1.04075L94.3472 1.04865L94.2428 1.68192C93.6484 1.58363 93.0535 1.49328 92.4576 1.40868L92.2962 1.38571L92.3843 0.750291C92.3996 0.75243 92.4149 0.75462 92.4296 0.756759ZM70.696 1.38496C70.5549 1.40503 70.4133 1.4251 70.2723 1.44516C69.7696 1.51835 69.2669 1.59577 68.7657 1.67827L68.645 1.04785C68.8054 1.02131 68.9669 0.995542 69.1278 0.96972C69.5954 0.895819 70.0634 0.826247 70.5325 0.760291L70.6079 0.749544C70.6374 0.961112 70.6665 1.17339 70.696 1.38496ZM88.5255 0.310299C89.1198 0.363369 89.7137 0.422908 90.307 0.488864L90.4145 0.501087L90.3422 1.13936C89.7172 1.06836 89.0933 1.00597 88.4689 0.949282L88.3828 0.942151L88.4394 0.302404C88.4679 0.305307 88.4969 0.307447 88.5255 0.310299ZM74.6099 0.941387C73.9809 0.997361 73.3534 1.05975 72.7265 1.13004L72.6506 1.13864L72.5783 0.501087C73.1961 0.430802 73.8164 0.368411 74.4362 0.312438L74.5539 0.302404C74.5722 0.515399 74.5911 0.728393 74.6099 0.941387ZM84.5652 0.0582765C85.1677 0.0819595 85.7697 0.11206 86.3717 0.148679L86.4583 0.154384L86.418 0.794844C85.7916 0.756085 85.1667 0.724559 84.5407 0.700163L84.4516 0.696547L84.476 0.0547113C84.5056 0.0561374 84.5356 0.0575635 84.5652 0.0582765ZM78.5386 0.69663C77.8999 0.721026 77.2628 0.752553 76.6266 0.791311L76.5716 0.794877L76.5314 0.154467C77.1512 0.115709 77.7721 0.0841823 78.3939 0.0597863L78.5141 0.0554571C78.5223 0.269215 78.5299 0.482923 78.5386 0.69663ZM81.6174 0.000132899C81.9067 0.000845936 82.1959 0.00232294 82.4857 0.00588813L82.4791 0.647774C82.3151 0.645584 82.1501 0.644158 81.9856 0.643445C81.4931 0.640593 80.9996 0.642019 80.5071 0.647774L80.5004 0.00588813C80.8722 0.0016099 81.2451 -0.000580138 81.6174 0.000132899Z" fill="#9BC3D3"/>
<path fill-rule="evenodd" clip-rule="evenodd" d="M50.6563 9.73197C52.1817 9.7528 53.4254 8.52287 53.4254 7.00175C53.4254 5.49353 52.2036 4.27148 50.695 4.27148C49.1742 4.27148 47.9442 5.51507 47.9651 7.04046C47.9855 8.49058 49.2063 9.71191 50.6563 9.73197ZM79.387 157.034L82.997 160L85.9627 156.391L82.3522 153.425L79.387 157.034Z" fill="#F6C854"/>
<path fill-rule="evenodd" clip-rule="evenodd" d="M119.313 12.8008C120.8 12.8008 122.006 11.6031 122.006 10.1257C122.006 8.64833 120.8 7.45068 119.313 7.45068C117.825 7.45068 116.619 8.64833 116.619 10.1257C116.619 11.6031 117.825 12.8008 119.313 12.8008ZM17.3179 117.346L13.708 114.38L10.7422 117.989L14.352 120.956L17.3179 117.346Z" fill="#1BB3BC"/>
<path fill-rule="evenodd" clip-rule="evenodd" d="M4.9375 56.653H9.43483V52.1558H4.9375V56.653Z" fill="#EC0000"/>
<path fill-rule="evenodd" clip-rule="evenodd" d="M150.754 111.476H155.251V106.979H150.754V111.476Z" fill="#9E3667"/>
<path fill-rule="evenodd" clip-rule="evenodd" d="M151.642 41.9688L155.252 44.936L152.285 48.5445L148.676 45.5782L151.642 41.9688Z" fill="#444444"/>
<path fill-rule="evenodd" clip-rule="evenodd" d="M6.38593 83.567C6.38593 85.0445 5.18038 86.2424 3.69299 86.2424C2.20559 86.2424 1 85.0445 1 83.567C1 82.09 2.20559 80.8921 3.69299 80.8921C5.18038 80.8921 6.38593 82.09 6.38593 83.567Z" fill="#A66555"/>
<path fill-rule="evenodd" clip-rule="evenodd" d="M37.2617 87.6123V42.2611C37.2617 40.5243 38.6283 39.1076 40.342 39.0342L40.4821 39.0316L41.77 39.0318C58.559 39.0318 70.0909 35.1799 80.4156 27.8369L80.7635 28.0831C90.8835 35.1843 102.2 38.9458 118.496 39.0303L120.348 39.0316L120.488 39.0342C122.155 39.1055 123.493 40.4466 123.566 42.1175L123.569 42.2611V87.6123C123.569 112.156 104.743 132.436 81.1322 135.629L80.4151 135.72C56.4703 132.845 37.2617 112.403 37.2617 87.6123Z" fill="#34466B"/>
<path fill-rule="evenodd" clip-rule="evenodd" d="M99.7423 79.0386C103.3 79.0386 106.185 81.9233 106.185 85.4819V98.368C106.185 105.485 100.416 111.254 93.2989 111.254H67.5267C60.4101 111.254 54.6406 105.485 54.6406 98.368V85.4819C54.6406 81.9233 57.5254 79.0386 61.0839 79.0386H99.7423Z" fill="#F6C854"/>
<path fill-rule="evenodd" clip-rule="evenodd" d="M65.1602 111.037C65.9272 111.18 66.7187 111.254 67.5269 111.254H93.2991C100.416 111.254 106.185 105.485 106.185 98.368V85.4819C106.185 81.9233 103.301 79.0386 99.7425 79.0386H83.6344L65.1602 111.037Z" fill="#F6C854"/>
<path fill-rule="evenodd" clip-rule="evenodd" d="M70.7475 62.9317C70.7475 57.5942 75.0746 53.267 80.4122 53.267C85.7498 53.267 90.0769 57.5942 90.0769 62.9317V79.0393H96.5197V62.9317C96.5197 54.0356 89.3083 46.8237 80.4122 46.8237C71.516 46.8237 64.3047 54.0356 64.3047 62.9317V79.0393H70.7475V62.9317Z" fill="#9BC3D3"/>
<path d="M66.1855 95.1462C66.1855 96.9257 64.7431 98.3681 62.9636 98.3681C61.1846 98.3681 59.7422 96.9257 59.7422 95.1462C59.7422 93.3672 61.1846 91.9248 62.9636 91.9248C64.7431 91.9248 66.1855 93.3672 66.1855 95.1462Z" fill="#A66555"/>
<path d="M74.2414 98.3681C76.0205 98.3681 77.4628 96.9257 77.4628 95.1462C77.4628 93.3672 76.0205 91.9248 74.2414 91.9248C72.4619 91.9248 71.0195 93.3672 71.0195 95.1462C71.0195 96.9257 72.4619 98.3681 74.2414 98.3681Z" fill="#A66555"/>
<path d="M88.7363 95.1462C88.7363 96.9257 87.2939 98.3681 85.5149 98.3681C83.7353 98.3681 82.293 96.9257 82.293 95.1462C82.293 93.3672 83.7353 91.9248 85.5149 91.9248C87.2939 91.9248 88.7363 93.3672 88.7363 95.1462Z" fill="#A66555"/>
<path d="M96.7917 98.3681C98.5712 98.3681 100.014 96.9257 100.014 95.1462C100.014 93.3672 98.5712 91.9248 96.7917 91.9248C95.0127 91.9248 93.5703 93.3672 93.5703 95.1462C93.5703 96.9257 95.0127 98.3681 96.7917 98.3681Z" fill="#A66555"/>
</svg>
