<svg width="160" height="160" viewBox="0 0 160 160" fill="none" xmlns="http://www.w3.org/2000/svg">
<path fill-rule="evenodd" clip-rule="evenodd" d="M148.648 143.371C148.648 147.213 117.667 150.327 79.4491 150.327C41.2314 150.327 10.25 147.213 10.25 143.371C10.25 139.528 41.2314 136.414 79.4491 136.414C117.667 136.414 148.648 139.528 148.648 143.371Z" fill="#9BC3D3"/>
<path fill-rule="evenodd" clip-rule="evenodd" d="M99.1795 29.6608C107.327 38.3273 118.122 43.9836 129.82 46.1095C136.921 47.3999 143.715 50.7914 149.205 56.2842C163.584 70.6708 163.601 93.8711 149.241 108.277C142.906 114.632 134.828 118.184 126.546 118.932C119.455 119.573 112.792 122.669 107.873 127.82C107.809 127.886 107.746 127.952 107.682 128.017C99.2892 136.585 85.7133 136.67 77.2191 128.204C77.1704 128.155 77.1221 128.107 77.0743 128.058C74.8053 125.753 71.5302 124.747 68.3568 125.364C50.264 128.88 30.8065 123.626 16.7932 109.601C-5.59775 87.1918 -5.59775 50.793 16.7932 28.3833C39.2022 5.95612 75.5331 5.95625 97.9415 28.3836C98.3622 28.8045 98.7749 29.2303 99.1795 29.6608Z" fill="#DEEDF2"/>
<path fill-rule="evenodd" clip-rule="evenodd" d="M71.5361 70.2632L71.561 67.3483L69.56 66.1303L68.4016 69.0126L67.2451 69.5716L66.9501 71.0905L69.0866 71.9189L71.5361 70.2632Z" fill="#FFC4B8"/>
<path fill-rule="evenodd" clip-rule="evenodd" d="M45.5817 60.6941C44.3623 59.7832 43.5703 58.3149 43.5703 56.6601C43.5703 53.899 45.7753 51.6572 48.4911 51.6572C50.9988 51.6572 53.0709 53.5684 53.3738 56.035C53.4268 56.292 53.4653 56.5518 53.4918 56.8116L53.4919 56.812L53.4927 56.8177L53.4929 56.8198C53.5007 56.8975 53.5075 56.9752 53.5133 57.0527L53.8522 60.9131L53.0808 61.1756L53.0728 61.1775L53.0727 61.1775C53.0536 61.2448 53.043 61.2811 53.043 61.2811L53.022 61.8034L52.9841 62.7794C52.971 63.1024 52.9046 63.4189 52.7889 63.7165C52.7081 63.9265 52.6012 64.1277 52.4707 64.3144C52.3175 64.5335 52.1344 64.7301 51.93 64.8961C51.8235 64.9833 51.7103 65.061 51.592 65.1302C51.5294 65.167 51.467 65.2007 51.4022 65.2324L51.4017 65.2326L51.7331 71.3304C51.7331 71.3304 49.9822 71.8667 48.0649 71.4411C46.906 71.1861 45.6851 70.577 44.7537 69.2878C44.7537 69.2878 45.8561 64.4302 45.5817 60.6941Z" fill="#FFC4B8"/>
<path fill-rule="evenodd" clip-rule="evenodd" d="M48.0846 71.3692C46.9256 71.1141 45.7048 70.505 44.7734 69.2158C44.7734 69.2158 45.9658 64.0108 45.5616 60.2282C45.5616 60.2282 48.2739 66.9509 48.0846 71.3692ZM53.0815 61.1977C52.8114 61.2782 52.5455 61.0625 52.5632 60.7773L52.6767 58.9385L53.0815 61.1977Z" fill="#F4A48D"/>
<path fill-rule="evenodd" clip-rule="evenodd" d="M47.957 77.8939C42.3387 78.0258 36.6058 76.6571 36.5822 71.5207C36.5548 65.512 40.2473 56.469 41.5758 53.5243C42.4991 51.4778 45.2539 48.5771 49.5869 49.5369C50.2791 49.6903 51.2841 50.2401 51.7551 50.7455C51.7834 50.7758 51.8118 50.8053 51.8404 50.834C53.8847 51.1502 55.5255 52.9004 55.695 55.1368C55.7131 55.3757 55.7137 55.612 55.6981 55.8442C55.7362 58.9853 55.8417 71.646 55.1032 74.525C54.7142 76.0416 50.4102 77.8364 47.957 77.8939ZM49.8177 71.2252C50.4213 71.1593 50.9627 71.0678 51.4228 70.9426L51.0959 64.7425L51.0964 64.7423C51.1602 64.7101 51.2219 64.6758 51.2836 64.6384C51.4003 64.568 51.512 64.489 51.617 64.4004C51.8188 64.2316 51.9994 64.0317 52.1507 63.8089C52.2795 63.6191 52.3848 63.4145 52.4646 63.201C52.5788 62.8984 52.6444 62.5765 52.6573 62.2481L52.6947 61.2558L52.7154 60.7247C52.7154 60.7247 52.7259 60.6877 52.7447 60.6195L52.7528 60.6175L53.5139 60.3506L53.1795 56.4253C53.1738 56.3466 53.1671 56.2675 53.1593 56.1885L53.1592 56.1864L53.1583 56.1806V56.1802C53.1321 55.916 53.0941 55.6518 53.0418 55.3905C52.9824 54.8924 52.8542 54.4166 52.6675 53.9739C52.2396 53.289 51.7134 52.6945 49.8414 52.706C47.5379 52.7206 46.6817 54.0097 46.3058 54.8685C45.961 55.6559 45.8373 56.5852 45.8373 56.5852L45.8366 56.5871L45.8132 56.7287L45.8095 56.7509L45.8059 56.7723C45.402 56.2049 44.8499 55.9267 44.4845 56.142C44.1362 56.3475 44.0657 56.9373 44.2792 57.5604C44.3099 57.6781 44.3516 57.797 44.4047 57.9151L44.414 57.9356L44.4167 57.9413L44.424 57.9569L44.4265 57.9622L44.4361 57.9821L44.4379 57.9857L44.446 58.0022L44.449 58.0082L44.457 58.0238L44.4591 58.0281C44.6654 58.4271 44.9644 58.7142 45.2608 58.8264C45.2803 58.8368 45.2997 58.8465 45.3191 58.8556C45.3191 58.8556 45.3571 60.0725 45.3676 60.1588C45.7751 63.4914 44.6361 68.4016 44.5519 68.8838C45.3789 70.0182 46.4581 70.8328 48.3022 71.1609C48.857 71.2379 49.3928 71.2432 49.8177 71.2252Z" fill="#34466B"/>
<path d="M67.8455 69.4619L59.6678 75.168L51.3011 66.2031L50.3042 76.3727L58.4577 81.7269L69.3359 72.1521L67.8455 69.4619Z" fill="#EAF7FE"/>
<path fill-rule="evenodd" clip-rule="evenodd" d="M38.4302 101.939L38.007 106.108L41.7538 120.433L38.2747 143.452L40.8355 144.333L47.5886 121.86L48.6602 115.322L48.6212 101.481L38.4302 101.939Z" fill="#FFC4B8"/>
<path fill-rule="evenodd" clip-rule="evenodd" d="M58.125 106.586L52.7385 145.158H50.2898L49.8491 120.433L45.3928 103.079L58.125 106.586Z" fill="#FFC4B8"/>
<path fill-rule="evenodd" clip-rule="evenodd" d="M51.3028 66.2032C48.8702 64.8327 45.5535 66.382 42.9139 66.382C42.1341 74.5807 39.262 82.0526 37.8691 90.1024C36.3899 98.6519 34.7241 107.169 32.8739 115.647C32.7689 116.127 40.22 115.884 40.9227 115.896C48.0909 116.017 57.4738 115.992 64.3906 113.829C59.9763 101.999 58.3646 89.2703 54.8888 77.1329C54.2785 75.0021 53.5539 72.9031 53.0042 70.7549C52.6857 69.5096 52.7346 68.0069 52.1113 66.9893C51.9173 66.673 51.6582 66.4034 51.3028 66.2032Z" fill="#990000"/>
<mask id="mask0_1487_20414" style="mask-type:luminance" maskUnits="userSpaceOnUse" x="40" y="60" width="37" height="34">
<path fill-rule="evenodd" clip-rule="evenodd" d="M40.4062 65.5591L71.4536 60.0846L76.3905 88.0833L45.3432 93.5578L40.4062 65.5591Z" fill="white"/>
</mask>
<g mask="url(#mask0_1487_20414)">
<path fill-rule="evenodd" clip-rule="evenodd" d="M62.9973 61.6087C60.2315 61.8587 57.0565 63.9265 56.6473 66.4219C55.419 64.2113 50.9836 63.4912 48.296 64.1901C41.2034 66.0346 40.1793 74.568 44.1792 79.4908C46.332 82.1404 49.1383 84.2963 52.1138 86.1529C54.6054 87.7074 60.8783 90.8328 60.8929 90.816C60.9121 90.827 65.7604 85.7667 67.5803 83.4618C69.7537 80.7094 71.6666 77.7325 72.7978 74.5115C74.8996 68.527 70.296 60.9492 62.9973 61.6087Z" fill="#EC0000"/>
</g>
<path fill-rule="evenodd" clip-rule="evenodd" d="M68.2132 73.4751C66.7178 70.2623 65.2224 67.0494 63.7272 63.8366C63.5109 63.3719 62.8073 63.5327 62.7356 64.0097C61.8034 70.2203 60.8711 76.4309 59.9386 82.6412C59.8846 83.001 59.8308 83.3607 59.7767 83.7204C57.7817 80.088 55.7869 76.4557 53.7919 72.8233C53.4719 72.2408 53.152 71.6583 52.8321 71.0755C52.6392 70.7245 52.0093 70.682 51.872 71.122C51.2338 73.1676 50.5955 75.2133 49.9572 77.2592C47.1396 77.7515 44.3221 78.244 41.5044 78.7366C40.8429 78.8521 41.0128 79.8396 41.6755 79.7239C44.5992 79.2128 47.523 78.7019 50.4467 78.1908C50.6179 78.1608 50.7964 78.0351 50.8483 77.8686C51.3952 76.1157 51.9421 74.3626 52.4892 72.6095C54.5357 76.3359 56.5825 80.0623 58.629 83.7891C58.949 84.3716 59.269 84.9541 59.589 85.5366C59.829 85.9737 60.5053 85.8631 60.5805 85.3632C61.5127 79.1529 62.4449 72.9423 63.3773 66.7319C63.4219 66.4348 63.4665 66.1378 63.5111 65.8407C64.8182 68.6492 66.1254 71.4575 67.4324 74.2658C67.5233 74.4609 67.7697 74.5863 67.991 74.5416C70.6286 74.0099 73.266 73.4783 75.9036 72.9467C76.5609 72.8141 76.3924 71.8264 75.7325 71.9594C73.226 72.4645 70.7196 72.9698 68.2132 73.4751Z" fill="white"/>
<path d="M44.9979 80.4565C44.3046 79.9886 43.8279 79.324 43.7661 78.3443C43.7092 77.4415 43.9212 76.5471 44.0772 75.6562C44.5725 72.8282 44.5072 69.9035 43.886 67.1004C43.2678 64.311 40.0081 67.8183 39.6027 69.0766C39.1534 70.4713 39.28 71.9901 39.1704 73.432C39.0235 75.368 38.9537 77.31 38.9617 79.2518C38.9668 80.4803 38.6639 83.3821 39.9593 84.0849C40.3098 84.2751 40.7119 84.3417 41.1055 84.4055C41.724 84.5056 49.1067 85.4352 49.2224 85.0711L50.2422 81.8591C48.7063 81.5449 46.4055 81.4066 44.9979 80.4565Z" fill="#EAF7FE"/>
<path fill-rule="evenodd" clip-rule="evenodd" d="M51.078 82.8485L52.4283 82.1382L52.7244 82.3475L52.4812 82.7218L53.7708 82.4525L55.5742 83.8421L54.9079 84.8399L54.1684 85.6269L52.7482 85.6684L51.2611 84.8673L48.9778 84.2292L49.4332 82.3112L51.078 82.8485Z" fill="#FFC4B8"/>
<path d="M45.0784 80.5166C46.4967 81.3337 48.79 81.5498 50.2422 81.8469L49.2224 85.1526C49.1263 85.4548 43.8341 84.774 41.7469 84.5074C42.4216 83.4424 43.1348 82.2957 44.0362 81.4434C44.3645 81.2516 44.9853 80.5518 45.0784 80.5166Z" fill="#EAF7FE"/>
<path fill-rule="evenodd" clip-rule="evenodd" d="M41.8699 141.54L38.5963 142.249L38.0794 144.451L38.1372 144.469L38.1225 144.471L41.9086 146.822L43.7088 147.032L43.9375 144.876L43.4513 144.502L41.8699 141.54Z" fill="#CEDEE7"/>
<path fill-rule="evenodd" clip-rule="evenodd" d="M52.9505 143.167L56.0195 145.476L55.6528 147.398L49.063 146.302L50.1065 142.638L52.9505 143.167Z" fill="#CEDEE7"/>
<path fill-rule="evenodd" clip-rule="evenodd" d="M80.918 67.7466L82.3081 70.14L83.037 70.1443L84.2132 69.2338L83.2746 66.8491L81.099 66.8819L80.918 67.7466Z" fill="#FFC4B8"/>
<path fill-rule="evenodd" clip-rule="evenodd" d="M87.7571 11.8716C87.7571 11.4017 87.7571 10.9317 87.7571 10.4618L87.1084 9.13304C86.9472 8.94988 86.6073 8.95707 86.4584 9.14699L85.9153 10.4618V11.8716C85.4038 11.8716 84.5709 12.2728 84.5709 12.7676C84.5709 13.2624 84.9855 13.6635 85.4971 13.6635H85.9153V61.4449C85.9153 64.1407 84.4911 66.3831 82.4453 66.335C80.86 66.2976 79.4773 64.949 79.2445 62.7476C79.1929 62.2599 78.7769 61.885 78.2701 61.885H78.2334C77.6477 61.885 77.1888 62.3802 77.2615 62.9425C77.666 66.0734 80.1488 68.3135 82.5059 68.3135C84.3479 68.3135 85.8581 67.4594 86.7379 65.9195C87.827 64.0133 87.7571 61.9175 87.7571 59.8258C87.7571 57.8443 87.7571 55.8627 87.7571 53.8812C87.7571 51.1145 87.7571 48.3479 87.7571 45.5812C87.7571 42.4268 87.7571 39.2723 87.7571 36.1178C87.7571 32.9727 87.7571 29.8275 87.7571 26.6824C87.7571 23.9439 87.7571 21.2053 87.7571 18.4667C87.7571 16.8657 87.7571 15.2646 87.7571 13.6635H88.0439C88.5555 13.6635 88.9702 13.2624 88.9702 12.7676C88.9702 12.2728 88.2687 11.8716 87.7571 11.8716Z" fill="#444444"/>
<path fill-rule="evenodd" clip-rule="evenodd" d="M84.8498 69.2096L84.9429 66.5279L83.8251 64.2861L83.2431 64.9387L83.5549 66.2214L82.7461 68.4527L83.843 70.1443L84.8498 69.2096Z" fill="#FFC4B8"/>
<path fill-rule="evenodd" clip-rule="evenodd" d="M84.2132 66.6657L83.7834 65.4312L81.9209 65.0181L80.918 65.7062L81.2045 67.2149L84.2132 66.6657Z" fill="#FFC4B8"/>
<path fill-rule="evenodd" clip-rule="evenodd" d="M112.585 97.604L119.726 98.8767L115.458 117.643L118.268 142.894L114.535 143.737L104.742 113.261L104.715 104.152L105.444 98.761L112.585 97.604Z" fill="#34466B"/>
<path fill-rule="evenodd" clip-rule="evenodd" d="M96.5281 88.763L96.293 112.299L100.782 142.638L104.197 142.633L106.31 114.628L110.938 86.6201L96.5281 88.763Z" fill="#34466B"/>
<path fill-rule="evenodd" clip-rule="evenodd" d="M122.654 106.655C121.019 106.398 119.373 106.21 117.723 106.09C113.381 105.775 109.005 105.934 104.695 106.56C102.743 106.843 100.68 107.096 98.8284 107.806C97.9206 108.154 97.0493 108.589 96.1692 109.001C95.9432 109.107 93.5758 110.014 93.5771 110.053C93.4696 106.99 92.7983 104.027 92.4461 100.982C92.09 97.9026 91.907 94.8031 91.8985 91.703C91.8853 86.8459 93.5184 82.5091 94.5962 77.8013C95.1314 75.4641 95.5921 73.0951 96.4239 70.8411C97.0749 69.0765 98.8591 67.5239 100.584 66.5781C100.879 66.4162 101.757 67.2002 104.144 66.8641C106.477 66.5355 108.354 64.1784 108.7 64.29C109.749 64.6281 111.836 65.467 112.442 66.3955C115.159 70.5591 117.115 75.1621 118.469 79.9869C119.176 82.5061 119.852 85.034 120.446 87.5814C121.108 90.4241 121.668 93.2922 122.049 96.1857C122.092 96.5072 122.246 97.4037 122.394 98.4817C122.537 99.5246 122.307 106.528 122.654 106.655Z" fill="#34466B"/>
<path fill-rule="evenodd" clip-rule="evenodd" d="M100.321 66.4829L98.3256 67.6365L90.0583 78.4702L85.6396 68.6649L81.6484 69.8185L85.9319 85.1783L91.0632 86.6202L94.6196 82.3634L100.321 66.4829Z" fill="#34466B"/>
<path fill-rule="evenodd" clip-rule="evenodd" d="M106.665 80.93C108.57 88.7288 112.33 98.0284 114.235 105.827C109.033 105.827 102.79 106.872 96.1602 108.954C96.0134 105.966 95.8302 100.083 95.6834 97.0948C95.5892 95.1791 95.4951 93.2568 95.6294 91.3503C95.8461 88.2754 96.6513 85.3109 97.4518 82.3741C98.9305 76.9478 100.409 71.5215 101.888 66.0951C101.931 65.939 103.48 67.0397 104.899 66.4934C106.118 66.0242 107.17 63.8834 107.903 63.9204C108.479 65.4976 107.371 68.4858 107.014 70.0571C106.495 72.3437 105.824 74.6316 105.962 77.0399C106.038 78.3582 106.352 79.6495 106.665 80.93Z" fill="#DEEDF2"/>
<path d="M94.7281 70.0092C94.7281 70.0092 94.6977 69.9588 94.6842 69.988C94.6561 69.9736 94.6639 70.0321 94.6639 70.0321C94.316 70.7699 91.6088 75.8924 83.1133 76.9865C83.1133 76.9865 86.9286 91.7214 93.5784 95.9154C100.68 100.395 105.488 100.8 105.503 100.777C105.53 100.785 109.063 97.4451 111.736 89.4372C114.238 81.9453 108.048 68.0908 108.048 68.0908C100.762 72.6266 95.459 70.3619 94.7281 70.0092Z" fill="#137E84"/>
<path d="M95.3392 71.7577C95.3392 71.7577 95.3122 71.7128 95.2998 71.7389C95.2739 71.7263 95.2806 71.7784 95.2806 71.7784C94.9619 72.4385 92.4833 77.0236 84.7852 78.0458C84.7852 78.0458 88.1602 91.1715 94.159 94.8772C100.567 98.8351 105.034 99.5124 105.048 99.4913C105.071 99.4989 108.173 96.1576 110.636 88.9986C112.942 82.3008 107.411 69.9736 107.411 69.9736C100.79 74.06 96.0002 72.0684 95.3392 71.7577Z" fill="#1BB3BC"/>
<path fill-rule="evenodd" clip-rule="evenodd" d="M95.7388 72.9934C95.7523 72.9659 95.7805 73.013 95.7805 73.013C96.4584 73.3321 101.295 75.3431 108.021 71.3863C107.53 70.101 107.177 69.313 107.177 69.313C100.555 73.3994 95.7659 71.4077 95.1048 71.0971C95.1048 71.0971 95.0778 71.0521 95.0654 71.0783C95.0395 71.0657 95.0474 71.1178 95.0474 71.1178C94.7276 71.778 92.249 76.363 84.5508 77.3852C84.5508 77.3852 84.7659 78.2223 85.1848 79.5327C92.8864 78.3447 95.3909 73.7129 95.7197 73.0347C95.7197 73.0347 95.7118 72.9802 95.7388 72.9934Z" fill="#1BB3BC"/>
<path fill-rule="evenodd" clip-rule="evenodd" d="M106.531 74.2695C101.537 77.3793 97.2101 75.926 96.709 75.6843C96.709 75.6843 96.6887 75.6495 96.6797 75.6696C96.6594 75.6598 96.665 75.6998 96.665 75.6998C96.4263 76.2058 94.004 80.0586 88.1797 80.8088C88.1797 80.8088 91.3621 90.57 95.9207 93.4454C100.79 96.5164 104.086 96.7943 104.096 96.778C104.114 96.7841 106.537 94.494 108.37 89.0039C110.085 83.8674 106.531 74.2695 106.531 74.2695Z" fill="#DEEDF2"/>
<path fill-rule="evenodd" clip-rule="evenodd" d="M107.604 54.3383C109.028 53.2919 109.953 51.6051 109.953 49.704C109.953 46.5319 107.378 43.9565 104.206 43.9565C101.277 43.9565 98.8567 46.1522 98.5029 48.9859C98.441 49.2811 98.396 49.5796 98.3651 49.878L98.365 49.8785L98.364 49.8851L98.3638 49.8874C98.3546 49.9767 98.3467 50.0659 98.3399 50.155L97.9441 54.59L98.8451 54.8916L98.8545 54.8937L98.8545 54.8937C98.8769 54.971 98.8893 55.0128 98.8893 55.0128L98.9138 55.6127L98.958 56.7341C98.9733 57.1051 99.0509 57.4687 99.186 57.8106C99.2804 58.0519 99.4052 58.283 99.5576 58.4975C99.7367 58.7492 99.9505 58.9751 100.189 59.1658C100.314 59.2659 100.446 59.3552 100.584 59.4347C100.657 59.4769 100.73 59.5157 100.806 59.5521L100.806 59.5524L100.419 66.5576C100.419 66.5576 102.464 67.1738 104.704 66.6849C106.057 66.3919 107.483 65.6922 108.571 64.211C108.571 64.211 107.283 58.6305 107.604 54.3383Z" fill="#FFC4B8"/>
<path fill-rule="evenodd" clip-rule="evenodd" d="M104.683 66.602C106.037 66.309 107.463 65.6093 108.551 64.1282C108.551 64.1282 107.158 58.1485 107.63 53.8029C107.63 53.8029 104.462 61.5262 104.683 66.602ZM98.8476 54.9167C99.163 55.0092 99.4736 54.7615 99.453 54.4338L99.3204 52.3213L98.8476 54.9167Z" fill="#F4A48D"/>
<path fill-rule="evenodd" clip-rule="evenodd" d="M105.962 43.4805C103.463 43.3918 103.77 41.2197 103.77 41.2197C101.095 41.3085 99.9551 42.328 99.9551 42.328C97.8066 44.0564 98.6585 47.5241 98.6585 47.5241C98.9864 44.9074 102.947 46.023 104.498 46.2857C105.131 46.9145 104.887 48.4493 105.208 49.7429C105.214 49.7664 105.903 51.5172 105.903 51.5172L105.904 51.5193L105.942 51.7012C105.954 51.6714 105.966 51.6417 105.978 51.6119C106.395 50.6134 107.244 50.0229 107.874 50.2914C108.504 50.5604 108.677 51.5875 108.26 52.586C108.115 52.9338 107.748 53.2321 107.526 53.4619C107.353 54.928 107.385 56.2897 107.507 57.4587L108.154 57.487L111.31 46.6969C111.483 45.2017 109.992 44.1397 108.938 43.8127C108.117 43.5579 107.057 43.5193 105.962 43.4805Z" fill="#CEDEE7"/>
<path fill-rule="evenodd" clip-rule="evenodd" d="M118.629 82.5318L114.283 80.396L103.617 82.1046V85.6642L117.444 88.0848L118.629 82.5318Z" fill="#34466B"/>
<path fill-rule="evenodd" clip-rule="evenodd" d="M103.617 82.6136L101.265 81.8604L98.125 83.3706L98.8387 85.1555H103.617V82.6136Z" fill="#FFC4B8"/>
<path d="M85.6849 36.826L85.6656 36.8052V33.5308H85.6849V36.826Z" fill="#9BC3D3"/>
<path d="M87.5064 38.6566L85.6758 36.744V33.5308H87.5064C87.5064 34.3944 87.5064 35.2581 87.5064 36.1217C87.5064 36.9668 87.5064 37.8116 87.5064 38.6566Z" fill="#34466B"/>
<path fill-rule="evenodd" clip-rule="evenodd" d="M73.1548 42.9968L73.4906 40.9496C74.6539 33.8589 77.4058 27.1161 81.5442 21.2161L86.7744 13.7598C74.0408 14.2939 63.1231 21.7701 57.78 32.4657C56.1494 35.7296 55.0403 39.2934 54.5547 43.0504C57.31 42.2343 60.5011 41.7663 63.9157 41.7663C67.255 41.7663 70.4064 42.2138 73.1548 42.9968Z" fill="#9BC3D3"/>
<path fill-rule="evenodd" clip-rule="evenodd" d="M100.128 39.0057L101.023 43.4165H101.358C104.27 42.4587 107.721 41.9021 111.436 41.9021C115.138 41.9021 118.609 42.4549 121.556 43.4067C120.969 38.5916 119.361 34.0893 116.955 30.1192C111.016 20.3166 100.209 13.7598 87.8601 13.7598C87.4963 13.7598 87.1344 13.7674 86.7734 13.7787L90.9496 19.8504C96.069 26.1118 98.4197 32.4546 100.128 39.0057Z" fill="#9BC3D3"/>
<path fill-rule="evenodd" clip-rule="evenodd" d="M73.5573 41.0809L73.2266 43.1369C73.2562 43.1455 73.2857 43.1543 73.3152 43.1631C76.7881 41.6042 81.5474 40.7101 86.8038 40.7101C92.3391 40.7101 97.3341 41.7014 100.856 43.4165H101.053L100.17 39.0029C98.4869 32.4476 96.1704 26.1008 91.1255 19.8353L87.0102 13.7598C86.887 13.7637 86.7642 13.7687 86.6415 13.7739L81.4899 21.2624C77.4137 27.1878 74.7031 33.9597 73.5573 41.0809Z" fill="#DEEDF2"/>
<path fill-rule="evenodd" clip-rule="evenodd" d="M73.1875 43.0152L73.176 43.0853C73.2091 43.0704 73.2428 43.0558 73.276 43.0411C73.2466 43.0324 73.2171 43.0237 73.1875 43.0152Z" fill="white"/>
<path fill-rule="evenodd" clip-rule="evenodd" d="M118.193 143.455L118.26 145.37L114.422 147.398L112.402 145.54L114.288 143.568L118.126 141.54L118.193 143.455Z" fill="#CEDEE7"/>
<path fill-rule="evenodd" clip-rule="evenodd" d="M104.347 142.638L104.35 144.466L100.448 146.3L98.4922 144.475L100.442 142.644L104.347 142.638Z" fill="#CEDEE7"/>
<path fill-rule="evenodd" clip-rule="evenodd" d="M31.3425 18.3967C30.7413 13.5132 26.5792 9.73242 21.5347 9.73242C16.0772 9.73242 11.6527 14.158 11.6527 19.6174C11.6527 20.513 11.7717 21.3809 11.9951 22.2059C11.9112 22.207 11.828 22.21 11.7453 22.2148L11.6522 22.2071V22.221C8.82178 22.4337 6.59068 24.7987 6.59068 27.6848C6.59068 30.5708 8.82178 32.9358 11.6522 33.1486V33.1649H47.6315V33.1644H47.6316C49.837 33.1644 51.625 31.3756 51.625 29.1693C51.625 26.963 49.837 25.1745 47.6316 25.1745H47.6315V25.1743L38.516 24.4226C38.5576 24.1502 38.5792 23.8713 38.5792 23.5874C38.5792 20.5613 36.1269 18.108 33.1017 18.108C32.4863 18.108 31.8947 18.2095 31.3425 18.3967Z" fill="#DEEDF2"/>
</svg>
