<svg width="160" height="161" viewBox="0 0 160 161" fill="none" xmlns="http://www.w3.org/2000/svg">
<path fill-rule="evenodd" clip-rule="evenodd" d="M148.648 153.207C148.648 157.049 117.667 160.164 79.4491 160.164C41.2314 160.164 10.25 157.049 10.25 153.207C10.25 149.365 41.2314 146.25 79.4491 146.25C117.667 146.25 148.648 149.365 148.648 153.207Z" fill="#9BC3D3"/>
<path fill-rule="evenodd" clip-rule="evenodd" d="M99.1795 39.497C107.327 48.1635 118.122 53.8198 129.82 55.9457C136.921 57.2361 143.715 60.6276 149.205 66.1204C163.584 80.507 163.601 103.707 149.241 118.114C142.906 124.469 134.828 128.02 126.546 128.768C119.455 129.409 112.792 132.505 107.873 137.656C107.809 137.722 107.746 137.788 107.682 137.853C99.2892 146.421 85.7133 146.506 77.2191 138.04C77.1704 137.992 77.1221 137.943 77.0743 137.894C74.8053 135.589 71.5302 134.583 68.3568 135.2C50.264 138.716 30.8065 133.462 16.7932 119.437C-5.59775 97.028 -5.59775 60.6292 16.7932 38.2195C39.2022 15.7923 75.5331 15.7924 97.9415 38.2198C98.3622 38.6407 98.7749 39.0665 99.1795 39.497Z" fill="#DEEDF2"/>
<path fill-rule="evenodd" clip-rule="evenodd" d="M71.5361 80.0997L71.561 77.1848L69.56 75.9667L68.4016 78.849L67.2451 79.408L66.9501 80.9269L69.0866 81.7553L71.5361 80.0997Z" fill="#FFC4B8"/>
<path fill-rule="evenodd" clip-rule="evenodd" d="M45.5817 70.53C44.3623 69.6191 43.5703 68.1509 43.5703 66.496C43.5703 63.7349 45.7753 61.4932 48.4911 61.4932C50.9988 61.4932 53.0709 63.4044 53.3738 65.8709C53.4268 66.1279 53.4653 66.3878 53.4918 66.6475L53.4919 66.648L53.4927 66.6537L53.4929 66.6557C53.5007 66.7334 53.5075 66.8111 53.5133 66.8886L53.8522 70.7491L53.0808 71.0116L53.0728 71.0134L53.0727 71.0135C53.0536 71.0807 53.043 71.1171 53.043 71.1171L53.022 71.6393L52.9841 72.6154C52.971 72.9383 52.9046 73.2548 52.7889 73.5524C52.7081 73.7625 52.6012 73.9636 52.4707 74.1503C52.3175 74.3694 52.1344 74.566 51.93 74.7321C51.8235 74.8192 51.7103 74.8969 51.592 74.9661C51.5294 75.0029 51.467 75.0367 51.4022 75.0683L51.4017 75.0686L51.7331 81.1663C51.7331 81.1663 49.9822 81.7027 48.0649 81.2771C46.906 81.022 45.6851 80.4129 44.7537 79.1237C44.7537 79.1237 45.8561 74.2661 45.5817 70.53Z" fill="#FFC4B8"/>
<path fill-rule="evenodd" clip-rule="evenodd" d="M48.0846 81.2051C46.9256 80.95 45.7048 80.3409 44.7734 79.0517C44.7734 79.0517 45.9658 73.8467 45.5616 70.0641C45.5616 70.0641 48.2739 76.7868 48.0846 81.2051ZM53.0815 71.0336C52.8114 71.1141 52.5456 70.8985 52.5632 70.6132L52.6767 68.7744L53.0815 71.0336Z" fill="#F4A48D"/>
<path fill-rule="evenodd" clip-rule="evenodd" d="M47.957 87.7303C42.3387 87.8622 36.6058 86.4935 36.5822 81.3572C36.5548 75.3484 40.2473 66.3055 41.5758 63.3607C42.4991 61.3142 45.2539 58.4135 49.5869 59.3733C50.2791 59.5267 51.2841 60.0766 51.7551 60.5819C51.7834 60.6122 51.8118 60.6417 51.8404 60.6705C53.8847 60.9866 55.5255 62.7368 55.695 64.9732C55.7131 65.2121 55.7137 65.4484 55.6981 65.6807C55.7362 68.8217 55.8417 81.4824 55.1032 84.3614C54.7142 85.878 50.4102 87.6728 47.957 87.7303ZM49.8155 81.0614C50.419 80.9955 50.9604 80.9039 51.4205 80.7787L51.0937 74.5787L51.0941 74.5785C51.158 74.5463 51.2197 74.5119 51.2814 74.4745C51.398 74.4042 51.5097 74.3251 51.6148 74.2365C51.8165 74.0677 51.9972 73.8678 52.1485 73.6451C52.2772 73.4552 52.3826 73.2507 52.4624 73.0371C52.5765 72.7345 52.6421 72.4127 52.655 72.0843L52.6924 71.0919L52.7131 70.5608C52.7131 70.5608 52.7236 70.5239 52.7424 70.4556L52.7505 70.4536L53.5117 70.1867L53.1773 66.2614C53.1715 66.1827 53.1648 66.1037 53.157 66.0247L53.1569 66.0225L53.156 66.0168V66.0163C53.1299 65.7521 53.0919 65.488 53.0395 65.2267C52.9802 64.7286 52.852 64.2528 52.6653 63.8101C52.2373 63.1252 51.7112 62.5307 49.8391 62.5422C47.5356 62.5567 46.6795 63.8458 46.3035 64.7047C45.9588 65.4921 45.835 66.4213 45.835 66.4213L45.8343 66.4233L45.8109 66.5648L45.8072 66.5871L45.8036 66.6084C45.3997 66.041 44.8477 65.7629 44.4823 65.9782C44.134 66.1836 44.0634 66.7734 44.277 67.3966C44.3077 67.5142 44.3493 67.6332 44.4024 67.7513L44.4117 67.7717L44.4144 67.7775L44.4217 67.7931L44.4242 67.7984L44.4338 67.8182L44.4356 67.8218L44.4437 67.8383L44.4468 67.8444L44.4547 67.86L44.4569 67.8642C44.6631 68.2633 44.9621 68.5503 45.2585 68.6625C45.278 68.673 45.2974 68.6827 45.3168 68.6917C45.3168 68.6917 45.3548 69.9086 45.3654 69.9949C45.7728 73.3276 44.6338 78.2377 44.5497 78.7199C45.3767 79.8544 46.4558 80.669 48.2999 80.9971C48.8547 81.0741 49.3905 81.0794 49.8155 81.0614Z" fill="#34466B"/>
<path d="M67.8455 79.2988L59.6678 85.0049L51.3011 76.04L50.3042 86.2096L58.4577 91.5638L69.3359 81.989L67.8455 79.2988Z" fill="#EAF7FE"/>
<path fill-rule="evenodd" clip-rule="evenodd" d="M38.4302 111.775L38.007 115.945L41.7538 130.269L38.2747 153.289L40.8355 154.169L47.5886 131.696L48.6602 125.158L48.6212 111.317L38.4302 111.775Z" fill="#FFC4B8"/>
<path fill-rule="evenodd" clip-rule="evenodd" d="M58.125 116.422L52.7385 154.994H50.2898L49.8491 130.269L45.3928 112.916L58.125 116.422Z" fill="#FFC4B8"/>
<path fill-rule="evenodd" clip-rule="evenodd" d="M51.3028 76.0396C48.8702 74.6691 45.5535 76.2184 42.9139 76.2184C42.1341 84.4171 39.262 91.8891 37.8691 99.9388C36.3899 108.488 34.7241 117.006 32.8739 125.483C32.7689 125.963 40.22 125.721 40.9227 125.732C48.0909 125.853 57.4738 125.829 64.3906 123.665C59.9763 111.835 58.3646 99.1068 54.8888 86.9693C54.2785 84.8385 53.5539 82.7396 53.0042 80.5913C52.6857 79.3461 52.7346 77.8433 52.1113 76.8258C51.9173 76.5094 51.6582 76.2398 51.3028 76.0396Z" fill="#1B4872"/>
<mask id="mask0_1483_87151" style="mask-type:luminance" maskUnits="userSpaceOnUse" x="40" y="69" width="37" height="35">
<path fill-rule="evenodd" clip-rule="evenodd" d="M40.4023 75.395L71.4497 69.9205L76.3866 97.9193L45.3393 103.394L40.4023 75.395Z" fill="white"/>
</mask>
<g mask="url(#mask0_1483_87151)">
<path fill-rule="evenodd" clip-rule="evenodd" d="M62.9934 71.4447C60.2275 71.6947 57.0526 73.7624 56.6434 76.2578C55.415 74.0472 50.9797 73.3272 48.2921 74.026C41.1995 75.8705 40.1754 84.404 44.1753 89.3268C46.3281 91.9764 49.1344 94.1322 52.1099 95.9888C54.6015 97.5434 60.8744 100.669 60.889 100.652C60.9082 100.663 65.7565 95.6026 67.5764 93.2978C69.7498 90.5454 71.6627 87.5684 72.7939 84.3474C74.8957 78.363 70.2921 70.7851 62.9934 71.4447Z" fill="#2A8FEC"/>
</g>
<path fill-rule="evenodd" clip-rule="evenodd" d="M68.2132 83.311C66.7178 80.0982 65.2224 76.8854 63.7272 73.6725C63.5109 73.2079 62.8073 73.3686 62.7356 73.8457C61.8034 80.0562 60.8711 86.2668 59.9386 92.4772C59.8846 92.8369 59.8308 93.1966 59.7767 93.5563C57.7817 89.9239 55.7869 86.2916 53.7919 82.6592C53.4719 82.0767 53.152 81.4942 52.8321 80.9115C52.6392 80.5604 52.0093 80.518 51.872 80.9579C51.2338 83.0036 50.5955 85.0493 49.9572 87.0952C47.1396 87.5875 44.3221 88.08 41.5044 88.5725C40.8429 88.688 41.0128 89.6755 41.6755 89.5598C44.5992 89.0487 47.523 88.5378 50.4467 88.0267C50.6179 87.9968 50.7964 87.871 50.8483 87.7045C51.3952 85.9516 51.9421 84.1986 52.4892 82.4455C54.5357 86.1718 56.5825 89.8983 58.629 93.625C58.949 94.2075 59.269 94.79 59.589 95.3725C59.829 95.8096 60.5053 95.6991 60.5805 95.1991C61.5127 88.9888 62.4449 82.7782 63.3773 76.5679C63.4219 76.2707 63.4665 75.9738 63.5111 75.6766C64.8182 78.4851 66.1254 81.2934 67.4324 84.1017C67.5233 84.2968 67.7697 84.4223 67.991 84.3775C70.6286 83.8459 73.266 83.3143 75.9036 82.7826C76.5609 82.6501 76.3924 81.6623 75.7325 81.7953C73.226 82.3004 70.7196 82.8057 68.2132 83.311Z" fill="white"/>
<path d="M44.9979 90.2929C44.3046 89.825 43.8279 89.1604 43.7661 88.1808C43.7092 87.278 43.9212 86.3835 44.0772 85.4926C44.5725 82.6646 44.5072 79.7399 43.886 76.9368C43.2678 74.1474 40.0081 77.6547 39.6027 78.913C39.1534 80.3077 39.28 81.8265 39.1704 83.2685C39.0235 85.2044 38.9537 87.1464 38.9617 89.0882C38.9668 90.3167 38.6639 93.2185 39.9593 93.9214C40.3098 94.1116 40.7119 94.1781 41.1055 94.2419C41.724 94.342 49.1067 95.2716 49.2224 94.9075L50.2422 91.6956C48.7063 91.3813 46.4055 91.243 44.9979 90.2929Z" fill="#EAF7FE"/>
<path fill-rule="evenodd" clip-rule="evenodd" d="M51.078 92.6849L52.4283 91.9746L52.7244 92.1839L52.4812 92.5582L53.7708 92.2889L55.5742 93.6786L54.9079 94.6763L54.1684 95.4633L52.7482 95.5048L51.2611 94.7037L48.9778 94.0656L49.4332 92.1476L51.078 92.6849Z" fill="#FFC4B8"/>
<path d="M45.0784 90.353C46.4967 91.1702 48.79 91.3863 50.2422 91.6833L49.2224 94.9891C49.1263 95.2912 43.8341 94.6104 41.7469 94.3439C42.4216 93.2788 43.1348 92.1321 44.0362 91.2799C44.3645 91.088 44.9853 90.3882 45.0784 90.353Z" fill="#EAF7FE"/>
<path fill-rule="evenodd" clip-rule="evenodd" d="M41.8699 151.376L38.5963 152.085L38.0794 154.287L38.1372 154.305L38.1225 154.307L41.9086 156.659L43.7088 156.868L43.9375 154.712L43.4513 154.339L41.8699 151.376Z" fill="#CEDEE7"/>
<path fill-rule="evenodd" clip-rule="evenodd" d="M52.9505 153.004L56.0195 155.313L55.6528 157.235L49.063 156.138L50.1065 152.475L52.9505 153.004Z" fill="#CEDEE7"/>
<path fill-rule="evenodd" clip-rule="evenodd" d="M80.918 77.5831L82.3081 79.9764L83.037 79.9807L84.2132 79.0702L83.2746 76.6855L81.099 76.7183L80.918 77.5831Z" fill="#FFC4B8"/>
<path fill-rule="evenodd" clip-rule="evenodd" d="M87.7571 21.7081C87.7571 21.2381 87.7571 20.7681 87.7571 20.2982L87.1084 18.9695C86.9472 18.7863 86.6073 18.7935 86.4584 18.9834L85.9153 20.2982V21.7081C85.4038 21.7081 84.5709 22.1092 84.5709 22.604C84.5709 23.0988 84.9855 23.4999 85.4971 23.4999H85.9153V71.2813C85.9153 73.9772 84.4911 76.2195 82.4453 76.1714C80.86 76.134 79.4773 74.7855 79.2445 72.584C79.1929 72.0964 78.7769 71.7214 78.2701 71.7214H78.2334C77.6477 71.7214 77.1888 72.2167 77.2615 72.7789C77.666 75.9099 80.1488 78.1499 82.5059 78.1499C84.3479 78.1499 85.8581 77.2959 86.7379 75.7559C87.827 73.8497 87.7571 71.7539 87.7571 69.6622C87.7571 67.6807 87.7571 65.6991 87.7571 63.7176C87.7571 60.951 87.7571 58.1843 87.7571 55.4177C87.7571 52.2633 87.7571 49.1087 87.7571 45.9542C87.7571 42.8092 87.7571 39.664 87.7571 36.5188C87.7571 33.7803 87.7571 31.0417 87.7571 28.3032C87.7571 26.7021 87.7571 25.101 87.7571 23.4999H88.0439C88.5555 23.4999 88.9702 23.0988 88.9702 22.604C88.9702 22.1092 88.2687 21.7081 87.7571 21.7081Z" fill="#444444"/>
<path fill-rule="evenodd" clip-rule="evenodd" d="M84.8498 79.046L84.9429 76.3644L83.8251 74.1226L83.2431 74.7751L83.5549 76.0578L82.7461 78.2891L83.843 79.9807L84.8498 79.046Z" fill="#FFC4B8"/>
<path fill-rule="evenodd" clip-rule="evenodd" d="M84.2132 76.5021L83.7834 75.2676L81.9209 74.8545L80.918 75.5426L81.2045 77.0513L84.2132 76.5021Z" fill="#FFC4B8"/>
<path fill-rule="evenodd" clip-rule="evenodd" d="M112.585 107.44L119.726 108.713L115.458 127.48L118.268 152.73L114.535 153.573L104.742 123.097L104.715 113.989L105.444 108.597L112.585 107.44Z" fill="#34466B"/>
<path fill-rule="evenodd" clip-rule="evenodd" d="M96.5281 98.5994L96.293 122.136L100.782 152.475L104.197 152.469L106.31 124.465L110.938 96.4565L96.5281 98.5994Z" fill="#34466B"/>
<path fill-rule="evenodd" clip-rule="evenodd" d="M122.654 116.491C121.019 116.234 119.373 116.046 117.723 115.926C113.381 115.611 109.005 115.771 104.695 116.396C102.743 116.68 100.68 116.932 98.8284 117.642C97.9206 117.99 97.0493 118.425 96.1692 118.837C95.9432 118.943 93.5758 119.85 93.5771 119.889C93.4696 116.826 92.7983 113.863 92.4461 110.818C92.09 107.739 91.907 104.64 91.8985 101.539C91.8853 96.6823 93.5184 92.3455 94.5962 87.6377C95.1314 85.3005 95.5921 82.9315 96.4239 80.6776C97.0749 78.9129 98.8591 77.3603 100.584 76.4145C100.879 76.2527 101.757 77.0366 104.144 76.7005C106.477 76.3719 108.354 74.0149 108.7 74.1264C109.749 74.4645 111.836 75.3034 112.442 76.232C115.159 80.3955 117.115 84.9985 118.469 89.8233C119.176 92.3425 119.852 94.8704 120.446 97.4178C121.108 100.261 121.668 103.129 122.049 106.022C122.092 106.344 122.246 107.24 122.394 108.318C122.537 109.361 122.307 116.364 122.654 116.491Z" fill="#34466B"/>
<path fill-rule="evenodd" clip-rule="evenodd" d="M100.321 76.3193L98.3256 77.4729L90.0583 88.3066L85.6396 78.5013L81.6484 79.6549L85.9319 95.0147L91.0632 96.4566L94.6196 92.1999L100.321 76.3193Z" fill="#34466B"/>
<path fill-rule="evenodd" clip-rule="evenodd" d="M106.665 90.7664C108.57 98.5652 112.33 107.865 114.235 115.664C109.033 115.664 102.79 116.709 96.1602 118.791C96.0134 115.802 95.8302 109.919 95.6834 106.931C95.5892 105.016 95.4951 103.093 95.6294 101.187C95.8461 98.1118 96.6513 95.1473 97.4518 92.2105C98.9305 86.7842 100.409 81.3579 101.888 75.9316C101.931 75.7754 103.48 76.8761 104.899 76.3298C106.118 75.8607 107.17 73.7198 107.903 73.7568C108.479 75.334 107.371 78.3222 107.014 79.8935C106.495 82.1801 105.824 84.468 105.962 86.8763C106.038 88.1946 106.352 89.4859 106.665 90.7664Z" fill="#DEEDF2"/>
<path d="M94.7281 79.8457C94.7281 79.8457 94.6977 79.7952 94.6842 79.8245C94.6561 79.81 94.6639 79.8685 94.6639 79.8685C94.316 80.6064 91.6088 85.7288 83.1133 86.8229C83.1133 86.8229 86.9286 101.558 93.5784 105.752C100.68 110.232 105.488 110.637 105.503 110.613C105.53 110.622 109.063 107.282 111.736 99.2737C114.238 91.7817 108.048 77.9272 108.048 77.9272C100.762 82.4631 95.459 80.1983 94.7281 79.8457Z" fill="#137E84"/>
<path d="M95.3392 81.5941C95.3392 81.5941 95.3122 81.5492 95.2998 81.5753C95.2739 81.5627 95.2806 81.6148 95.2806 81.6148C94.9619 82.275 92.4833 86.86 84.7852 87.8823C84.7852 87.8823 88.1602 101.008 94.159 104.714C100.567 108.672 105.034 109.349 105.048 109.328C105.071 109.335 108.173 105.994 110.636 98.835C112.942 92.1372 107.411 79.8101 107.411 79.8101C100.79 83.8964 96.0002 81.9048 95.3392 81.5941Z" fill="#1BB3BC"/>
<path fill-rule="evenodd" clip-rule="evenodd" d="M95.7388 82.8298C95.7523 82.8023 95.7805 82.8494 95.7805 82.8494C96.4584 83.1685 101.295 85.1795 108.021 81.2227C107.53 79.9375 107.177 79.1494 107.177 79.1494C100.555 83.2358 95.7659 81.2442 95.1048 80.9335C95.1048 80.9335 95.0778 80.8886 95.0654 80.9148C95.0395 80.9022 95.0474 80.9543 95.0474 80.9543C94.7276 81.6144 92.249 86.1994 84.5508 87.2216C84.5508 87.2216 84.7659 88.0587 85.1848 89.3691C92.8864 88.1811 95.3909 83.5493 95.7197 82.8711C95.7197 82.8711 95.7118 82.8166 95.7388 82.8298Z" fill="#1BB3BC"/>
<path fill-rule="evenodd" clip-rule="evenodd" d="M106.531 84.106C101.537 87.2157 97.2101 85.7624 96.709 85.5207C96.709 85.5207 96.6887 85.486 96.6797 85.5061C96.6594 85.4962 96.665 85.5362 96.665 85.5362C96.4263 86.0422 94.004 89.895 88.1797 90.6452C88.1797 90.6452 91.3621 100.406 95.9207 103.282C100.79 106.353 104.086 106.631 104.096 106.614C104.114 106.621 106.537 104.33 108.37 98.8403C110.085 93.7039 106.531 84.106 106.531 84.106Z" fill="#DEEDF2"/>
<path fill-rule="evenodd" clip-rule="evenodd" d="M107.608 64.1748C109.032 63.1283 109.957 61.4415 109.957 59.5404C109.957 56.3684 107.382 53.793 104.21 53.793C101.281 53.793 98.8606 55.9886 98.5068 58.8223C98.4449 59.1175 98.3999 59.416 98.369 59.7145L98.3689 59.715L98.3679 59.7215L98.3677 59.7238C98.3585 59.8131 98.3506 59.9024 98.3438 59.9914L97.948 64.4264L98.849 64.728L98.8584 64.7302L98.8584 64.7302C98.8808 64.8074 98.8932 64.8492 98.8932 64.8492L98.9177 65.4491L98.9619 66.5705C98.9772 66.9415 99.0548 67.3052 99.1899 67.647C99.2843 67.8883 99.4091 68.1194 99.5616 68.3339C99.7406 68.5856 99.9544 68.8115 100.193 69.0022C100.318 69.1023 100.45 69.1916 100.588 69.2711C100.661 69.3134 100.734 69.3522 100.81 69.3885L100.81 69.3888L100.423 76.3941C100.423 76.3941 102.468 77.0103 104.707 76.5213C106.061 76.2283 107.487 75.5286 108.575 74.0475C108.575 74.0475 107.287 68.4669 107.608 64.1748Z" fill="#FFC4B8"/>
<path fill-rule="evenodd" clip-rule="evenodd" d="M104.687 76.4384C106.041 76.1454 107.467 75.4457 108.555 73.9646C108.555 73.9646 107.162 67.9849 107.634 63.6393C107.634 63.6393 104.466 71.3626 104.687 76.4384ZM98.8508 64.7531C99.1662 64.8457 99.4768 64.5979 99.4562 64.2702L99.3235 62.1577L98.8508 64.7531Z" fill="#F4A48D"/>
<path fill-rule="evenodd" clip-rule="evenodd" d="M105.962 53.3169C103.463 53.2282 103.77 51.0562 103.77 51.0562C101.095 51.1449 99.9551 52.1644 99.9551 52.1644C97.8066 53.8928 98.6585 57.3605 98.6585 57.3605C98.9864 54.7438 102.947 55.8594 104.498 56.1221C105.131 56.7509 104.887 58.2857 105.208 59.5793C105.214 59.6028 105.903 61.3536 105.903 61.3536L105.904 61.3557L105.942 61.5376C105.954 61.5079 105.966 61.4781 105.978 61.4483C106.395 60.4499 107.244 59.8593 107.874 60.1278C108.504 60.3968 108.677 61.4239 108.26 62.4224C108.115 62.7702 107.748 63.0686 107.526 63.2984C107.353 64.7644 107.385 66.1261 107.507 67.2951L108.154 67.3234L111.31 56.5333C111.483 55.0382 109.992 53.9761 108.938 53.6491C108.117 53.3944 107.057 53.3557 105.962 53.3169Z" fill="#CEDEE7"/>
<path fill-rule="evenodd" clip-rule="evenodd" d="M118.629 92.3682L114.283 90.2324L103.617 91.941V95.5007L117.444 97.9212L118.629 92.3682Z" fill="#34466B"/>
<path fill-rule="evenodd" clip-rule="evenodd" d="M103.617 92.45L101.265 91.6968L98.125 93.2071L98.8387 94.992H103.617V92.45Z" fill="#FFC4B8"/>
<path d="M85.6849 46.6624L85.6656 46.6416V43.3672H85.6849V46.6624Z" fill="#9BC3D3"/>
<path d="M87.5064 48.493L85.6758 46.5804V43.3672H87.5064C87.5064 44.2308 87.5064 45.0945 87.5064 45.9581C87.5064 46.8032 87.5064 47.648 87.5064 48.493Z" fill="#34466B"/>
<path fill-rule="evenodd" clip-rule="evenodd" d="M73.1548 52.8332L73.4906 50.786C74.6539 43.6954 77.4058 36.9525 81.5442 31.0525L86.7744 23.5962C74.0408 24.1303 63.1231 31.6065 57.78 42.3021C56.1494 45.566 55.0403 49.1298 54.5547 52.8868C57.31 52.0707 60.5011 51.6027 63.9157 51.6027C67.255 51.6027 70.4064 52.0503 73.1548 52.8332Z" fill="#9BC3D3"/>
<path fill-rule="evenodd" clip-rule="evenodd" d="M100.128 48.8421L101.023 53.2529H101.358C104.27 52.2951 107.721 51.7385 111.436 51.7385C115.138 51.7385 118.609 52.2913 121.556 53.2431C120.969 48.428 119.361 43.9257 116.955 39.9556C111.016 30.1531 100.209 23.5962 87.8601 23.5962C87.4963 23.5962 87.1344 23.6039 86.7734 23.6151L90.9496 29.6868C96.069 35.9482 98.4197 42.291 100.128 48.8421Z" fill="#9BC3D3"/>
<path fill-rule="evenodd" clip-rule="evenodd" d="M73.5573 50.9173L73.2266 52.9734C73.2562 52.9819 73.2857 52.9907 73.3152 52.9996C76.7881 51.4406 81.5474 50.5465 86.8038 50.5465C92.3391 50.5465 97.3341 51.5378 100.856 53.2529H101.053L100.17 48.8393C98.4869 42.284 96.1704 35.9372 91.1255 29.6717L87.0102 23.5962C86.887 23.6001 86.7642 23.6052 86.6415 23.6104L81.4899 31.0988C77.4137 37.0242 74.7031 43.7961 73.5573 50.9173Z" fill="#DEEDF2"/>
<path fill-rule="evenodd" clip-rule="evenodd" d="M73.1875 52.8517L73.176 52.9217C73.2091 52.9068 73.2428 52.8923 73.276 52.8775C73.2466 52.8688 73.2171 52.8601 73.1875 52.8517Z" fill="white"/>
<path fill-rule="evenodd" clip-rule="evenodd" d="M118.193 153.292L118.26 155.207L114.422 157.235L112.402 155.376L114.288 153.404L118.126 151.376L118.193 153.292Z" fill="#CEDEE7"/>
<path fill-rule="evenodd" clip-rule="evenodd" d="M104.347 152.475L104.35 154.303L100.448 156.136L98.4922 154.312L100.442 152.481L104.347 152.475Z" fill="#CEDEE7"/>
<path fill-rule="evenodd" clip-rule="evenodd" d="M31.3425 28.2331C30.7413 23.3497 26.5792 19.5688 21.5347 19.5688C16.0772 19.5688 11.6527 23.9944 11.6527 29.4538C11.6527 30.3495 11.7717 31.2173 11.9951 32.0423C11.9112 32.0434 11.828 32.0464 11.7453 32.0512L11.6522 32.0436V32.0574C8.82178 32.2701 6.59068 34.6351 6.59068 37.5212C6.59068 40.4072 8.82178 42.7723 11.6522 42.985V43.0013H47.6315V43.0008H47.6316C49.837 43.0008 51.625 41.212 51.625 39.0057C51.625 36.7995 49.837 35.0109 47.6316 35.0109H47.6315V35.0107L38.516 34.259C38.5576 33.9867 38.5792 33.7077 38.5792 33.4238C38.5792 30.3977 36.1269 27.9444 33.1017 27.9444C32.4863 27.9444 31.8947 28.0459 31.3425 28.2331Z" fill="#DEEDF2"/>
</svg>
