<svg width="160" height="161" viewBox="0 0 160 161" fill="none" xmlns="http://www.w3.org/2000/svg">
<path fill-rule="evenodd" clip-rule="evenodd" d="M75.6881 126.631L75.631 126.656L67.2393 112.617C64.6661 108.313 62.5062 103.775 60.7883 99.0631L55.5636 84.7361H55.5635L56.2557 86.6343L51.6061 77.5475C51.7297 77.4947 48.3732 77.797 47.3621 76.2764L42.1254 68.3905C41.098 66.8447 41.2934 64.7912 42.5906 63.4646L43.2644 62.7767C43.4266 62.611 43.5987 62.4653 43.7795 62.3389C44.3642 61.9282 45.0348 61.719 45.7055 61.697L43.6337 57.4897C42.6537 55.4994 43.1981 53.0951 44.9409 51.7218L45.8442 51.0097C47.0201 50.0829 48.4792 49.8849 49.7583 50.277L51.4372 46.0497C51.9752 44.6944 52.7267 43.4436 53.656 42.3417C53.6375 42.3636 53.619 42.3856 53.6006 42.4078L53.6154 42.2792L53.7917 42.1834C54.5604 41.3001 55.4454 40.5161 56.4276 39.8549L60.5032 37.1122L56.2603 28.6821C55.0778 26.2372 54.0211 23.732 53.122 21.1692C52.6823 19.9151 52.279 18.6495 52.0601 17.6733C51.7593 16.331 51.5365 14.9867 51.5353 13.9403L51.5346 13.0341V13.0044C51.5346 12.8036 51.5507 12.6069 51.581 12.4125C51.8402 10.7349 53.1513 9.37835 54.8734 9.09111C55.0823 9.05662 55.2919 9.03889 55.4992 9.0376H55.5472C56.9682 9.04598 58.3009 9.81516 59.0085 11.0863L60.2236 13.34L68.7826 29.2098C68.7826 29.2098 73.3369 35.2398 75.1997 37.3295C75.8331 38.04 76.4756 38.8127 77.0562 39.5345C78.1862 40.874 79.4669 42.4784 80.859 44.362C83.3196 47.6918 89.7742 55.4162 94.0686 63.158C95.2452 65.2789 96.39 67.1532 97.4496 68.7767C97.4628 68.1887 97.4251 67.5968 97.3348 67.0075L96.9445 64.4843C96.4573 61.3105 96.3913 58.0884 96.751 54.8985C96.751 54.8985 97.4158 44.9736 101.275 38.3256C101.811 37.403 102.657 36.735 103.589 36.3117C104.522 35.8888 105.574 35.7318 106.63 35.8949C107.044 35.9594 107.419 36.1215 107.733 36.3588C108.401 36.8546 108.801 37.6747 108.726 38.5574L107.998 47.2289L107.979 47.4533L112.082 74.3112C112.562 77.4637 112.534 80.671 111.997 83.8135L109.985 100.432L108.304 114.303L108.365 114.409L118.024 131.14L126.232 145.36L126.236 145.365L128.819 149.837L134.908 160.383H95.1746L75.7948 126.817L75.6881 126.631ZM53.7676 42.2111L53.7143 42.2733L53.7788 42.1982L53.7676 42.2111Z" fill="#FFC4B8"/>
<path fill-rule="evenodd" clip-rule="evenodd" d="M64.8429 48.0298L60.3371 38.2512L55.6546 41.4024C53.4044 42.9169 51.6649 45.0762 50.6643 47.5972L48.7742 52.356C48.357 53.4067 48.4328 54.5885 48.9808 55.5772C50.2916 57.9428 53.5924 58.2017 55.2558 56.0691L60.4657 49.3908L64.8429 48.0298Z" fill="#F4A48D"/>
<path fill-rule="evenodd" clip-rule="evenodd" d="M65.6163 46.4824C65.6163 46.4824 67.0579 44.6149 65.5623 40.78C64.262 37.4456 61.1105 36.7039 61.1105 36.7039L56.428 39.8551C54.1779 41.3696 52.4383 43.5288 51.4377 46.0498L49.5476 50.8087C49.1305 51.8593 49.2062 53.0411 49.7543 54.0298C51.065 56.3954 54.3658 56.6543 56.0293 54.5218L61.2391 47.8435L65.6163 46.4824Z" fill="#FFC4B8"/>
<path fill-rule="evenodd" clip-rule="evenodd" d="M55.5477 9.0376H55.4997C55.2924 9.03889 55.0829 9.05662 54.874 9.09111C53.1519 9.37835 51.8408 10.7349 51.5816 12.4125C51.5513 12.6069 51.5352 12.8036 51.5352 13.0044V13.0341L51.5358 13.9403C51.5371 14.9867 51.7599 16.331 52.0606 17.6733C52.2795 18.6495 52.6828 19.9151 53.1225 21.1692C54.0216 23.732 55.0784 26.2372 56.2608 28.6821L65.2284 46.4997C65.2284 46.4997 68.8497 47.8189 72.7784 46.6348C76.2499 45.5883 79.2351 42.3578 79.2351 42.3578C79.2351 42.3578 77.1728 39.5422 75.2002 37.3295C73.3374 35.2398 68.7831 29.2098 68.7831 29.2098L60.2241 13.34L59.0091 11.0863C58.3015 9.81516 56.9688 9.04598 55.5477 9.0376Z" fill="#FFC4B8"/>
<path fill-rule="evenodd" clip-rule="evenodd" d="M78.6456 41.573C78.6859 41.574 78.7255 41.5753 78.7652 41.5769C78.7652 41.5769 82.3242 45.9441 86.8858 52.202C91.0489 57.9132 95.1405 64.871 97.4345 69.1176C97.3274 71.0273 96.6824 72.8839 95.5525 74.4629L94.8803 75.4032C91.5708 80.0225 88.8542 85.0064 86.7681 90.2398C84.6504 95.5532 83.1843 101.122 82.417 106.825C82.3938 106.857 82.3812 106.87 82.3799 106.863L80.9534 99.5693C80.9534 99.5693 77.908 100.724 72.4254 100.429C64.0166 99.9771 57.1392 88.1615 55.8957 85.9655C54.9086 84.2221 53.0846 80.5906 51.6602 77.5232C51.7674 77.4751 51.8732 77.4213 51.9772 77.3613L52.0346 77.3291C53.6049 76.4235 54.2126 74.4613 53.4285 72.8259L52.6287 71.1611L52.0424 69.938C52.6696 69.9845 53.3164 69.8881 53.9345 69.6311L54.0057 69.6011C56.0064 68.7694 57.028 66.537 56.3494 64.4793L53.6996 56.446C53.8421 56.2359 53.9873 56.0266 54.135 55.8187C54.8501 55.6066 55.516 55.1772 56.0272 54.5218L60.4011 48.9151C60.6834 48.6688 60.9696 48.4257 61.2583 48.1878C61.4929 47.9944 61.7429 47.7996 62.0062 47.6043L65.3868 46.5534C66.1283 46.7884 69.3343 47.6723 72.7763 46.6349C76.2477 45.5885 79.2329 42.358 79.2329 42.358C79.2329 42.358 79.0121 42.0566 78.6456 41.573Z" fill="#F4A48D"/>
<path fill-rule="evenodd" clip-rule="evenodd" d="M86.4735 98.7671L57.1931 94.6514C53.9413 94.1939 51.6755 91.1873 52.1327 87.9351L63.0977 9.93929C63.5548 6.68751 66.5613 4.42173 69.814 4.87886L99.0935 8.99503C102.346 9.4526 104.612 12.4592 104.154 15.7109L93.1894 93.7072C92.7324 96.9594 89.7258 99.2247 86.4735 98.7671Z" fill="#9E3667"/>
<path fill-rule="evenodd" clip-rule="evenodd" d="M84.6767 98.5148L55.3962 94.3982C52.1445 93.9416 49.8787 90.9341 50.3358 87.6827L61.3004 9.68654C61.7579 6.43482 64.7644 4.16904 68.0167 4.62611L97.2967 8.74268C100.549 9.19941 102.815 12.2064 102.357 15.4582L91.3925 93.454C90.9355 96.7062 87.9284 98.9719 84.6767 98.5148Z" fill="white"/>
<path fill-rule="evenodd" clip-rule="evenodd" d="M101.892 18.7718L91.7557 90.8715C91.4405 93.1127 88.6776 94.5765 86.4377 94.2618L54.1844 89.7274C51.9432 89.4122 50.3837 87.341 50.6989 85.0994L60.8348 13.0002C61.1499 10.7584 63.2202 9.19545 65.4618 9.51071L97.7143 14.045C99.9542 14.3598 102.206 16.5302 101.892 18.7718Z" fill="white"/>
<path fill-rule="evenodd" clip-rule="evenodd" d="M91.3526 10.5744C91.2767 11.1159 90.7756 11.4934 90.234 11.4171C89.692 11.3413 89.3149 10.8401 89.3908 10.2986C89.4672 9.75651 89.9682 9.37944 90.5099 9.45535C91.0514 9.53167 91.429 10.0323 91.3526 10.5744ZM76.3941 8.47142C76.3543 8.75392 76.0933 8.95048 75.8112 8.91073C75.5287 8.87102 75.3316 8.60998 75.3718 8.32753C75.4111 8.04506 75.6722 7.84841 75.9547 7.88812C76.2371 7.92791 76.4338 8.1889 76.3941 8.47142ZM74.4117 8.19273C74.3719 8.47481 74.111 8.67191 73.8289 8.63216C73.5464 8.59191 73.3498 8.33137 73.3896 8.04886C73.4293 7.76634 73.6904 7.5698 73.9723 7.60954C74.2548 7.64924 74.4515 7.91033 74.4117 8.19273ZM84.6225 9.90567L79.8813 9.23913C79.7303 9.21812 79.6258 9.07896 79.6469 8.92849C79.6684 8.77786 79.8075 8.67348 79.9576 8.69446L84.6987 9.36111C84.8493 9.38216 84.9542 9.52117 84.9331 9.67175C84.9121 9.82233 84.773 9.92715 84.6225 9.90567Z" fill="#DEEDF2"/>
<path fill-rule="evenodd" clip-rule="evenodd" d="M86.4696 98.7498L57.1892 94.6341C53.9374 94.1765 51.6716 91.1699 52.1288 87.9178L63.0938 9.92195C63.5509 6.67017 66.5574 4.4044 69.8101 4.86153L99.0896 8.9777C102.342 9.43527 104.608 12.4418 104.15 15.6936L93.1855 93.6899C92.7285 96.942 89.7219 99.2073 86.4696 98.7498Z" fill="#767676"/>
<path fill-rule="evenodd" clip-rule="evenodd" d="M84.6728 98.4975L55.3923 94.3809C52.1406 93.9242 49.8748 90.9168 50.3319 87.6654L61.2965 9.66921C61.754 6.41749 64.7605 4.15171 68.0127 4.60878L97.2928 8.72534C100.545 9.18208 102.811 12.1891 102.353 15.4409L91.3886 93.4366C90.9316 96.6888 87.9245 98.9546 84.6728 98.4975Z" fill="black"/>
<path fill-rule="evenodd" clip-rule="evenodd" d="M101.888 18.7544L91.7518 90.8542C91.4366 93.0954 88.6737 94.5592 86.4338 94.2444L54.1805 89.7101C51.9393 89.3949 50.3798 87.3237 50.695 85.0821L60.8309 12.9829C61.146 10.7411 63.2163 9.17812 65.4579 9.49337L97.7104 14.0277C99.9503 14.3425 102.202 16.5128 101.888 18.7544Z" fill="#F6C854"/>
<path fill-rule="evenodd" clip-rule="evenodd" d="M91.3487 10.557C91.2728 11.0986 90.7717 11.4761 90.2301 11.3998C89.6881 11.3239 89.311 10.8228 89.3869 10.2812C89.4633 9.73918 89.9643 9.3621 90.506 9.43801C91.0475 9.51434 91.4251 10.015 91.3487 10.557ZM76.3902 8.45408C76.3503 8.73659 76.0894 8.93314 75.8073 8.89339C75.5248 8.85369 75.3277 8.59264 75.3679 8.3102C75.4072 8.02773 75.6683 7.83108 75.9508 7.87078C76.2332 7.91058 76.4299 8.17156 76.3902 8.45408ZM74.4078 8.1754C74.368 8.45747 74.1071 8.65458 73.825 8.61483C73.5425 8.57457 73.3459 8.31403 73.3857 8.03153C73.4254 7.74901 73.6864 7.55247 73.9684 7.5922C74.2509 7.63191 74.4476 7.893 74.4078 8.1754ZM84.6186 9.88833L79.8774 9.22179C79.7264 9.20079 79.6219 9.06162 79.643 8.91115C79.6645 8.76053 79.8036 8.65615 79.9537 8.67713L84.6948 9.34377C84.8454 9.36483 84.9503 9.50384 84.9292 9.65441C84.9082 9.80499 84.7691 9.90981 84.6186 9.88833Z" fill="#DEEDF2"/>
<path fill-rule="evenodd" clip-rule="evenodd" d="M101.846 18.7779L91.7116 90.8701C91.3965 93.111 88.6308 94.5743 86.3885 94.2592L54.1002 89.7199C51.8565 89.4044 50.295 87.3331 50.6101 85.0917L60.745 13C61.0601 10.7585 63.1323 9.19597 65.3764 9.51157L97.6639 14.0508C99.9063 14.366 102.161 16.5365 101.846 18.7779Z" fill="white"/>
<mask id="mask0_1487_21701" style="mask-type:luminance" maskUnits="userSpaceOnUse" x="50" y="9" width="52" height="86">
<path fill-rule="evenodd" clip-rule="evenodd" d="M101.846 18.7779L91.7116 90.8701C91.3965 93.111 88.6308 94.5743 86.3885 94.2592L54.1002 89.7199C51.8565 89.4044 50.295 87.3331 50.6101 85.0917L60.745 13C61.0601 10.7585 63.1323 9.19597 65.3764 9.51157L97.6639 14.0508C99.9063 14.366 102.161 16.5365 101.846 18.7779Z" fill="white"/>
</mask>
<g mask="url(#mask0_1487_21701)">
<g clip-path="url(#clip0_1487_21701)">
<path fill-rule="evenodd" clip-rule="evenodd" d="M148.984 119.784L143.63 118.409L118.274 100.132L106.967 84.9052C103.283 79.9447 97.8533 76.3695 91.668 74.8311L96.2552 90.3608L111.168 105.879C113.844 108.663 117.008 110.993 120.517 112.761L141.063 123.118L144.781 128.727C145.406 129.671 146.414 130.336 147.566 130.565L150.17 131.08C151.839 131.411 153.54 130.775 154.492 129.462L156.181 127.138L148.984 119.784Z" fill="#FFC4B8"/>
<path fill-rule="evenodd" clip-rule="evenodd" d="M63.6181 76.8241C58.5948 78.5118 54.5899 82.1232 52.5785 86.7775L44.0496 106.515L33.7658 127.326L31.6155 128.775C30.856 129.287 30.3569 130.073 30.2336 130.95L29.5406 135.881L32.4971 137.286C32.4971 137.286 33.818 135.37 33.7669 135.733C33.7565 135.808 33.7506 135.964 33.7482 136.167C33.7385 136.973 34.7967 137.375 35.3599 136.778L38.3633 133.593C38.5927 133.35 38.7157 133.032 38.7078 132.704L38.5848 127.632L48.2954 115.625C49.2417 114.455 50.0561 113.194 50.726 111.862L60.1142 93.1945L69.8114 82.6619L63.6181 76.8241Z" fill="#FFC4B8"/>
<path fill-rule="evenodd" clip-rule="evenodd" d="M98.2639 93.5132L98.1822 93.3251L98.2481 93.2142C98.3097 92.8517 98.3666 92.484 98.4184 92.1157C99.1818 86.6837 99.0749 81.5697 98.279 77.3974C96.2185 76.277 93.9963 75.4058 91.6695 74.8312L90.4963 74.5379C86.6033 77.067 82.1967 78.2381 77.7225 77.6093C74.9698 77.2224 72.4238 76.1872 70.1678 74.6237L63.6138 76.8231C61.8534 77.4164 60.218 78.2453 58.749 79.2701C59.8974 81.4476 60.7116 84.3551 61.1195 87.7276L42.4537 147.228C51.1989 154.199 62.126 159.068 74.3536 160.787C83.7556 162.108 92.9352 161.425 101.375 159.085L98.2639 93.5132Z" fill="#F6C854"/>
<path fill-rule="evenodd" clip-rule="evenodd" d="M66.9327 47.4222C69.3421 36.3961 73.8728 34.3138 80.7184 35.3709C87.556 36.4266 91.2443 39.7709 90.2179 50.9766C90.4682 50.8797 90.8155 50.8608 91.2707 51.0804C92.9846 51.9056 92.6109 54.5272 90.8572 59.1928C89.6294 62.4539 88.4051 62.0558 87.8649 61.6465C86.0869 65.9798 83.4571 68.9205 80.4473 70.2519C78.8328 73.888 78.7417 84.5448 80.4608 85.4806C81.1181 90.8728 63.6763 88.737 65.1241 83.5738C65.2621 83.0814 68.3399 78.9783 68.8664 75.2617C69.1914 72.9673 69.3964 70.5861 69.5234 67.8029C67.5367 65.5596 66.2539 62.2379 65.9423 58.0802C65.4291 58.3458 63.9611 58.761 63.8036 54.9407C63.5981 49.9807 64.0373 47.3729 65.8262 47.0876C66.4172 46.9928 66.7495 47.1999 66.9327 47.4222Z" fill="#FFC4B8"/>
<path fill-rule="evenodd" clip-rule="evenodd" d="M81.1789 69.5009C81.1789 69.5009 78.8801 72.3119 75.0818 71.8805C71.2833 71.4491 69.4295 67.36 69.4295 67.36C69.4295 67.36 68.9492 70.1488 74.4924 73.7546C79.7747 72.5365 81.1789 69.5009 81.1789 69.5009ZM76.9023 60.5355C76.0882 60.6677 75.3905 59.9577 75.5421 59.1517L76.5196 53.9558L76.9023 60.5355Z" fill="#F4A48D"/>
<path fill-rule="evenodd" clip-rule="evenodd" d="M65.0928 47.1626C63.8877 47.985 63.5927 50.5056 63.7682 54.7429C63.9257 58.5632 65.3938 58.1479 65.907 57.8824C66.2186 62.0401 67.5014 65.3618 69.488 67.6051C69.3611 70.3883 69.1561 72.7694 68.8311 75.0639C68.5204 77.2564 67.322 79.5834 66.3629 81.2243C60.024 81.2729 51.8311 80.801 53.435 77.924C55.9877 73.3388 58.836 61.2656 60.8583 48.2155C62.88 35.1681 70.0548 29.4897 80.9724 31.1738L81.2231 31.2127C92.1424 32.8975 97.2632 40.4741 95.2414 53.5208C93.2191 66.5709 92.2799 78.9387 93.3271 84.0794C94.0028 87.3962 85.5757 85.1678 79.4972 83.1638C78.8376 79.6402 79.1846 72.8184 80.412 70.0541C83.4217 68.7228 86.0516 65.782 87.8295 61.4487C88.3697 61.8579 89.5941 62.2561 90.8219 58.995C92.4975 54.537 92.9133 51.9452 91.4518 51.0035C90.9262 54.4205 90.0043 57.0834 90.0043 57.0834L88.8253 56.9018C90.1471 48.3918 87.364 40.9247 87.364 40.9247C83.3823 45.0577 76.9054 44.7902 72.999 45.9636C66.6011 47.8834 66.0931 53.402 66.0931 53.402L64.9162 53.2209C64.8478 50.6223 64.8961 48.7047 65.0928 47.1626Z" fill="#9E3667"/>
</g>
</g>
<path fill-rule="evenodd" clip-rule="evenodd" d="M52.0362 77.3291L51.9788 77.3613C50.3966 78.2736 48.375 77.7998 47.3621 76.2765L42.1254 68.3906C41.098 66.8449 41.2934 64.7913 42.5906 63.4648L43.2644 62.7768C43.4266 62.6111 43.5987 62.4654 43.7795 62.339C45.5439 61.1005 48.0897 61.694 49.0697 63.7346L52.6303 71.1611L53.4301 72.8259C54.2141 74.4613 53.6065 76.4235 52.0362 77.3291Z" fill="#FFC4B8"/>
<path fill-rule="evenodd" clip-rule="evenodd" d="M45.8457 61.6956H45.7983C45.6452 61.6965 45.4924 61.7072 45.3402 61.7278C45.3396 61.7281 45.3386 61.7281 45.3376 61.7284C45.3357 61.7284 45.3338 61.7288 45.3318 61.7291C44.7877 61.8036 44.2541 62.0044 43.7773 62.339L48.836 69.4412C49.6423 70.5721 50.9176 71.1814 52.2171 71.1814C52.3538 71.1814 52.4911 71.1743 52.6284 71.1608L49.0678 63.7349C48.4356 62.4183 47.1513 61.7036 45.8457 61.6956Z" fill="#F4A48D"/>
<path fill-rule="evenodd" clip-rule="evenodd" d="M45.8429 51.0096L44.9396 51.7217C43.1968 53.0951 42.6524 55.4993 43.6324 57.4897L48.6288 67.636C49.594 69.597 51.9167 70.47 53.9348 69.6309L54.006 69.6009C56.0067 68.7692 57.0283 66.5368 56.3497 64.479L52.575 53.0361C51.6421 50.2072 48.182 49.166 45.8429 51.0096Z" fill="#FFC4B8"/>
<path fill-rule="evenodd" clip-rule="evenodd" d="M108.167 115.423C108.167 115.423 105.696 123.439 97.4862 124.826C90.1399 126.066 84.9046 120.041 84.8771 120.013C82.754 117.82 82.5515 115.308 82.2946 113.862C82.0328 112.416 81.9713 110.936 82.1141 109.457C82.7508 102.835 84.3265 96.3673 86.7685 90.2396C88.8546 85.0062 91.5712 80.0223 94.8807 75.403L95.5529 74.4627C97.0967 72.305 97.7357 69.6299 97.3337 67.0074L96.9433 64.4842C96.4562 61.3104 96.3901 58.0883 96.7499 54.8984C96.7499 54.8984 97.4146 44.9735 101.274 38.3255C101.81 37.4029 102.655 36.7349 103.588 36.3116C104.52 35.8887 105.573 35.7317 106.628 35.8948C107.043 35.9593 107.418 36.1214 107.732 36.3587C108.4 36.8545 108.8 37.6746 108.724 38.5573L107.997 47.2288L107.978 47.4532L112.08 74.3111C112.561 77.4636 112.533 80.6709 111.996 83.8134L109.984 100.432L108.167 115.423Z" fill="#FFC4B8"/>
<defs>
<clipPath id="clip0_1487_21701">
<rect width="154" height="259" fill="white" transform="translate(15.4961 22.7859) rotate(8)"/>
</clipPath>
</defs>
</svg>
