<svg width="160" height="160" viewBox="0 0 160 160" fill="none" xmlns="http://www.w3.org/2000/svg">
<path fill-rule="evenodd" clip-rule="evenodd" d="M146.147 79.0926C144.113 71.7932 150.581 71.5116 150.723 62.1063C150.781 58.2597 148.674 54.342 143.604 52.5448C141.112 51.662 138.628 51.055 136.411 49.6506C131.358 46.4505 131.45 40.3613 130.071 35.1705C127.044 23.7697 115.394 14.7123 103.601 15.007C95.1004 15.219 87.4147 15.4796 79.6646 22.6952C74.3614 27.6327 70.9149 33.7078 65.9915 38.7978C60.7775 44.188 54.424 46.7742 47.29 48.5061C40.543 50.1439 33.2034 52.0925 28.0394 57.0039C23.1864 61.6193 23.8938 66.4466 25.9744 72.1136C28.2692 78.3627 23.2936 82.6141 18.1057 85.0477C13.7376 87.0964 6.42556 91.2638 6.18636 98.948C5.44668 122.749 20.5647 122.844 26.2013 125.106C78.0529 145.917 97.9518 129.866 119.938 130.19C141.855 130.514 154.419 104.008 153.657 96.2027C152.691 86.2919 147.568 84.1895 146.147 79.0926Z" fill="#DEEDF2"/>
<path fill-rule="evenodd" clip-rule="evenodd" d="M125.611 23.5762C125.016 18.7424 120.896 15 115.903 15C110.501 15 106.121 19.3806 106.121 24.7845C106.121 25.671 106.239 26.5301 106.46 27.3467C106.377 27.3478 106.295 27.3507 106.213 27.3555L106.121 27.3479V27.3616C103.319 27.5722 101.111 29.9132 101.111 32.7699C101.111 35.6266 103.319 37.9676 106.121 38.1781V38.1943H141.735V38.1938H141.735C143.918 38.1938 145.688 36.4232 145.688 34.2393C145.688 32.0555 143.918 30.2851 141.735 30.2851H141.735V30.285L132.712 29.5408C132.753 29.2713 132.774 28.9952 132.774 28.7141C132.774 25.7188 130.347 23.2904 127.352 23.2904C126.743 23.2904 126.158 23.3909 125.611 23.5762Z" fill="#CEDEE7"/>
<path fill-rule="evenodd" clip-rule="evenodd" d="M57.9821 27.2305C58.4224 23.6051 61.4704 20.7983 65.1646 20.7983C69.1612 20.7983 72.4013 24.0838 72.4013 28.1367C72.4013 28.8016 72.3142 29.4459 72.1506 30.0584C72.212 30.0592 72.273 30.0614 72.3335 30.065L72.4017 30.0593V30.0696C74.4745 30.2275 76.1083 31.9832 76.1083 34.1258C76.1083 36.2683 74.4745 38.024 72.4017 38.1819V38.1941H46.0534V38.1937H46.0533C44.4383 38.1937 43.1289 36.8657 43.1289 35.2278C43.1289 33.59 44.4383 32.2622 46.0533 32.2622H46.0534V32.2621L52.7289 31.704C52.6984 31.5018 52.6826 31.2947 52.6826 31.0839C52.6826 28.8374 54.4784 27.0162 56.6938 27.0162C57.1445 27.0162 57.5778 27.0915 57.9821 27.2305Z" fill="#9BC3D3"/>
<path fill-rule="evenodd" clip-rule="evenodd" d="M55.7668 38.575C56.12 35.705 58.5651 33.4829 61.5285 33.4829C64.7346 33.4829 67.3338 36.0839 67.3338 39.2924C67.3338 39.8188 67.2639 40.3289 67.1327 40.8138C67.182 40.8144 67.2309 40.8162 67.2794 40.819L67.3341 40.8145V40.8226C68.9969 40.9476 70.3076 42.3376 70.3076 44.0338C70.3076 45.73 68.9969 47.1199 67.3341 47.2449V47.2545H46.1976C44.902 47.2542 43.8516 46.2029 43.8516 44.9063C43.8516 43.6096 44.902 42.5584 46.1975 42.5584L51.5526 42.1165C51.5282 41.9565 51.5155 41.7926 51.5155 41.6257C51.5155 39.8472 52.9561 38.4054 54.7333 38.4054C55.0948 38.4054 55.4424 38.465 55.7668 38.575Z" fill="#CEDEE7"/>
<path fill-rule="evenodd" clip-rule="evenodd" d="M80 144.151C35.8165 144.151 0 141.606 0 138.467C0 135.329 35.8165 132.784 80 132.784C124.183 132.784 160 135.329 160 138.467C160 141.606 124.183 144.151 80 144.151Z" fill="#CEDEE7"/>
<path fill-rule="evenodd" clip-rule="evenodd" d="M18.6641 139.704H141.254V55.9868H18.6641V139.704Z" fill="#9BC3D3"/>
<path fill-rule="evenodd" clip-rule="evenodd" d="M18.6641 65.6865H141.254V55.9014H18.6641V65.6865Z" fill="#34466B"/>
<path fill-rule="evenodd" clip-rule="evenodd" d="M118.512 60.4834C118.512 61.7834 117.456 62.8383 116.155 62.8383C114.855 62.8383 113.801 61.7834 113.801 60.4834C113.801 59.1827 114.855 58.127 116.155 58.127C117.456 58.127 118.512 59.1827 118.512 60.4834Z" fill="white"/>
<path fill-rule="evenodd" clip-rule="evenodd" d="M125.758 60.4834C125.758 61.7834 124.703 62.8383 123.403 62.8383C122.101 62.8383 121.047 61.7834 121.047 60.4834C121.047 59.1827 122.101 58.127 123.403 58.127C124.703 58.127 125.758 59.1827 125.758 60.4834Z" fill="white"/>
<path fill-rule="evenodd" clip-rule="evenodd" d="M133.008 60.4834C133.008 61.7834 131.953 62.8383 130.653 62.8383C129.352 62.8383 128.297 61.7834 128.297 60.4834C128.297 59.1827 129.352 58.127 130.653 58.127C131.953 58.127 133.008 59.1827 133.008 60.4834Z" fill="white"/>
<path fill-rule="evenodd" clip-rule="evenodd" d="M37.625 126.151H122.628V114.624H37.625V126.151Z" fill="white"/>
<path fill-rule="evenodd" clip-rule="evenodd" d="M37.625 133.784H122.628V129.422H37.625V133.784Z" fill="white"/>
<path fill-rule="evenodd" clip-rule="evenodd" d="M98.7999 118.796C98.7571 118.948 98.8451 119.106 98.9973 119.149C99.1494 119.192 99.3077 119.104 99.3509 118.952L99.8786 117.083C99.9213 116.931 99.8328 116.773 99.6806 116.73C99.5285 116.687 99.3708 116.775 99.3275 116.928L98.7999 118.796Z" fill="#EC0000"/>
<path fill-rule="evenodd" clip-rule="evenodd" d="M92.0475 124.66L93.8721 124C94.0212 123.946 94.0975 123.782 94.0441 123.633C93.9901 123.484 93.8263 123.408 93.6777 123.462L91.8531 124.122C91.704 124.175 91.6277 124.339 91.6811 124.488C91.735 124.636 91.8989 124.713 92.0475 124.66Z" fill="#EC0000"/>
<path fill-rule="evenodd" clip-rule="evenodd" d="M91.8919 121.538H93.8336C93.9914 121.538 94.1196 121.41 94.1196 121.252C94.1196 121.094 93.9914 120.966 93.8336 120.966H91.8919C91.7337 120.966 91.6055 121.094 91.6055 121.252C91.6055 121.41 91.7337 121.538 91.8919 121.538Z" fill="#EC0000"/>
<path fill-rule="evenodd" clip-rule="evenodd" d="M96.2148 116.44V118.381C96.2148 118.54 96.3431 118.668 96.5018 118.668C96.6596 118.668 96.7878 118.54 96.7878 118.381V116.44C96.7878 116.282 96.6596 116.154 96.5018 116.154C96.3431 116.154 96.2148 116.282 96.2148 116.44Z" fill="#EC0000"/>
<path fill-rule="evenodd" clip-rule="evenodd" d="M92.6738 117.964L94.1443 119.232C94.2639 119.335 94.445 119.322 94.5483 119.202C94.6516 119.082 94.6384 118.902 94.5183 118.798L93.0478 117.531C92.9282 117.428 92.747 117.441 92.6438 117.561C92.5405 117.681 92.5537 117.861 92.6738 117.964Z" fill="#EC0000"/>
<path fill-rule="evenodd" clip-rule="evenodd" d="M101.322 129.044L104.061 126.539L99.7386 121.814L101.59 120.121L95.1622 119.56L95.1484 126.011L96.9995 124.319L101.322 129.044Z" fill="#EC0000"/>
<path fill-rule="evenodd" clip-rule="evenodd" d="M37.2695 87.4865H59.5424V71.1309H37.2695V87.4865Z" fill="white"/>
<path fill-rule="evenodd" clip-rule="evenodd" d="M68.3359 87.4865H90.6098V71.1309H68.3359V87.4865Z" fill="white"/>
<path fill-rule="evenodd" clip-rule="evenodd" d="M100.375 87.4865H122.649V71.1309H100.375V87.4865Z" fill="white"/>
<path fill-rule="evenodd" clip-rule="evenodd" d="M41.6143 79.7432C42.0132 79.6618 42.5541 79.5743 43.18 79.4736C45.0738 79.1672 47.4053 78.7887 48.425 78.1811C49.4426 78.7887 51.7751 79.1672 53.6684 79.4736C54.2937 79.5743 54.8346 79.6618 55.233 79.7432C56.2629 79.9544 56.473 80.6601 56.5112 81.0275H40.3356C40.3702 80.6606 40.5758 79.9554 41.6143 79.7432ZM57.0173 81.0276H57.0157C56.972 80.4119 56.5939 79.5108 55.3331 79.2533C54.925 79.1698 54.38 79.0813 53.7481 78.9795C51.9962 78.6961 49.6256 78.312 48.6919 77.7604V77.5604C49.2358 77.4398 49.6464 76.9509 49.6464 76.3728C49.6464 75.7022 49.101 75.1567 48.4293 75.1567C48.065 75.1567 47.7241 75.318 47.4915 75.5994L47.8767 75.9179C48.0136 75.7526 48.2146 75.6574 48.4293 75.6574C48.8247 75.6574 49.1452 75.9785 49.1452 76.3728C49.1452 76.7631 48.8287 77.0842 48.4385 77.0893L48.1917 77.0923V77.74C47.2834 78.3023 44.8741 78.6926 43.0999 78.9795C42.4684 79.0813 41.9219 79.1698 41.5144 79.2533C40.254 79.5108 39.8749 80.4119 39.8312 81.0276L39.8281 81.5277H57.0173V81.0276Z" fill="#767676"/>
<path fill-rule="evenodd" clip-rule="evenodd" d="M119.895 84.2556L119.894 84.2561C119.887 84.1223 119.668 80.9513 113.813 80.9371C113.813 80.9371 109.494 80.5921 108.543 73.7504C108.543 73.7504 104.991 73.4197 104.378 76.8359C104.212 77.7574 104.242 78.28 104.684 79.5327C105.118 80.7615 105.025 84.7838 105.025 84.7838H105.986L105.99 80.0553C105.99 80.0553 109.297 81.4784 111.431 84.8224C111.942 85.6218 117.391 85.4025 119.879 84.6077C119.879 84.6077 119.929 84.4856 119.895 84.2556Z" fill="#EC0000"/>
<path fill-rule="evenodd" clip-rule="evenodd" d="M108.544 73.7504C108.544 73.7504 108.713 73.7061 109.215 74.6118C110.444 76.8231 111.482 79.6639 115.283 81.0159C115.283 81.0159 113.311 81.7867 111.245 80.0165C109.976 78.9287 108.295 76.3459 108.544 73.7504Z" fill="#990000"/>
<path fill-rule="evenodd" clip-rule="evenodd" d="M105.027 85.1299H105.993V84.7554H105.027V85.1299Z" fill="#990000"/>
<path fill-rule="evenodd" clip-rule="evenodd" d="M78.9922 77.9033C78.9922 77.9033 80.5802 72.8761 82.5652 73.1336C83.4688 73.2511 84.9923 74.1675 84.5501 76.1911C84.3232 77.224 83.0781 77.9985 79.7198 78.7673L78.9922 77.9033Z" fill="#34466B"/>
<path fill-rule="evenodd" clip-rule="evenodd" d="M79.4688 77.7285C79.4688 77.7285 81.0151 73.1761 82.5512 73.9505C82.9537 74.1525 82.9659 74.9356 81.787 76.2723C80.2859 77.9758 79.4688 77.7285 79.4688 77.7285Z" fill="#137E84"/>
<path fill-rule="evenodd" clip-rule="evenodd" d="M79.2727 77.9253C79.2727 77.9253 77.736 72.8818 75.7506 73.1184C74.8449 73.2258 73.3113 74.1264 73.7316 76.1551C73.9463 77.19 75.1838 77.9777 78.5334 78.7822L79.2727 77.9253Z" fill="#34466B"/>
<path fill-rule="evenodd" clip-rule="evenodd" d="M78.7971 77.745C78.7971 77.745 77.2991 73.1768 75.7538 73.9344C75.3503 74.1318 75.3304 74.9149 76.4946 76.2643C77.9779 77.9836 78.7971 77.745 78.7971 77.745Z" fill="#137E84"/>
<path fill-rule="evenodd" clip-rule="evenodd" d="M72.1602 85.8371H86.1976V79.5327H72.1602V85.8371Z" fill="#137E84"/>
<path fill-rule="evenodd" clip-rule="evenodd" d="M71.7617 80.0262H86.5991V78.0098H71.7617V80.0262Z" fill="#34466B"/>
<path fill-rule="evenodd" clip-rule="evenodd" d="M79.4807 80.3635C79.3255 80.3635 79.1998 80.2378 79.1998 80.0826C79.1998 79.9279 79.3255 79.8022 79.4807 79.8022C79.6354 79.8022 79.7615 79.9279 79.7615 80.0826C79.7615 80.2378 79.6354 80.3635 79.4807 80.3635ZM80.27 79.4536H78.6987L77.5859 80.2189V84.7393H81.3609V80.2138L80.27 79.4536Z" fill="#F6C854"/>
<path fill-rule="evenodd" clip-rule="evenodd" d="M79.4739 80.3647C79.4078 80.3647 79.3554 80.3347 79.3554 80.3347V77.8593C79.3554 77.7936 79.4078 77.7407 79.4739 77.7407C79.5396 77.7407 79.593 77.7936 79.593 77.8593V80.3408C79.5589 80.3581 79.5396 80.3647 79.4739 80.3647Z" fill="white"/>
<path fill-rule="evenodd" clip-rule="evenodd" d="M108.41 81.0031C108.255 81.0031 108.129 80.8774 108.129 80.7222C108.129 80.5675 108.255 80.4419 108.41 80.4419C108.565 80.4419 108.691 80.5675 108.691 80.7222C108.691 80.8774 108.565 81.0031 108.41 81.0031ZM110.29 80.8534L109.199 80.0933H107.628L106.516 80.858V85.3789H110.29V80.8534Z" fill="#F6C854"/>
<path fill-rule="evenodd" clip-rule="evenodd" d="M108.401 81.0039C108.335 81.0039 108.281 80.9729 108.281 80.9729V78.4984C108.281 78.4328 108.335 78.3799 108.401 78.3799C108.466 78.3799 108.519 78.4328 108.519 78.4984V80.98C108.485 80.9973 108.466 81.0039 108.401 81.0039Z" fill="white"/>
<path fill-rule="evenodd" clip-rule="evenodd" d="M37.6484 110.369H59.9218V94.0132H37.6484V110.369Z" fill="white"/>
<path fill-rule="evenodd" clip-rule="evenodd" d="M68.2188 110.369H90.4916V94.0132H68.2188V110.369Z" fill="white"/>
<path fill-rule="evenodd" clip-rule="evenodd" d="M100.297 110.369H122.57V94.0132H100.297V110.369Z" fill="white"/>
<path fill-rule="evenodd" clip-rule="evenodd" d="M56.4888 99.3192L54.2667 102.064L50.9258 99.3579L53.1468 96.6138L56.4888 99.3192Z" fill="#F6C854"/>
<path fill-rule="evenodd" clip-rule="evenodd" d="M40.3242 99.3192L42.5468 102.064L45.8872 99.3579L43.6652 96.6138L40.3242 99.3192Z" fill="#F6C854"/>
<path fill-rule="evenodd" clip-rule="evenodd" d="M43.6484 108.863H53.1431V96.6138H43.6484V108.863Z" fill="#F6C854"/>
<path fill-rule="evenodd" clip-rule="evenodd" d="M46.168 96.6138L48.4546 98.4695L50.7433 96.6138H46.168Z" fill="#FFE99F"/>
<path fill-rule="evenodd" clip-rule="evenodd" d="M75.0212 109.093H83.4234C83.2972 108.12 83.3064 106.083 84.2864 102.19C85.1427 100.086 85.0303 95.7676 85.0303 95.7676H84.1414C84.3103 97.4828 83.9801 99.1197 83.8534 99.6637C83.3557 99.0256 82.5808 98.6735 81.7112 98.6139C80.8248 98.5539 79.6199 98.7025 79.2058 99.6708C78.7906 98.7025 77.5729 98.5697 76.7191 98.6139C75.7636 98.6628 74.9245 99.1095 74.4406 99.8565L74.4396 99.855C74.4396 99.855 73.8977 97.8695 74.1043 95.7676H73.2148C73.2148 95.7676 73.2128 99.8412 74.0743 101.942C74.0758 101.945 75.357 106.479 75.0212 109.093Z" fill="#EC0000"/>
<path fill-rule="evenodd" clip-rule="evenodd" d="M111.033 99.7448C111.033 99.7448 109.23 96.4415 110.343 95.5475C110.852 95.1405 112.077 94.8102 112.9 96.038C113.321 96.6649 113.102 97.6897 111.837 99.7983L111.033 99.7448Z" fill="#F6C854"/>
<path fill-rule="evenodd" clip-rule="evenodd" d="M111.177 99.4149C111.177 99.4149 109.598 96.367 110.757 95.9584C111.059 95.8516 111.468 96.2332 111.573 97.5007C111.708 99.1157 111.177 99.4149 111.177 99.4149Z" fill="#D39E00"/>
<path fill-rule="evenodd" clip-rule="evenodd" d="M111.535 99.3913C111.535 99.3913 112.668 95.8031 114.085 95.9863C114.73 96.0697 115.817 96.7251 115.502 98.1686C115.34 98.9069 114.452 99.4595 112.055 100.009L111.535 99.3913Z" fill="#F6C854"/>
<path fill-rule="evenodd" clip-rule="evenodd" d="M114.076 96.569C114.362 96.713 114.37 97.2727 113.53 98.2268C112.458 99.4423 111.875 99.2663 111.875 99.2663C111.875 99.2663 112.978 96.0169 114.076 96.569Z" fill="#D39E00"/>
<path fill-rule="evenodd" clip-rule="evenodd" d="M111.317 99.4925C111.317 99.4925 110.221 95.892 108.803 96.0609C108.157 96.1378 107.063 96.7814 107.364 98.229C107.516 98.9674 108.4 99.5296 110.79 100.104L111.317 99.4925Z" fill="#F6C854"/>
<path fill-rule="evenodd" clip-rule="evenodd" d="M110.981 99.3637C110.981 99.3637 109.911 96.1027 108.807 96.6436C108.519 96.785 108.506 97.3432 109.336 98.3069C110.395 99.5342 110.981 99.3637 110.981 99.3637Z" fill="#D39E00"/>
<path fill-rule="evenodd" clip-rule="evenodd" d="M107.074 108.469H115.682V100.298H107.074V108.469Z" fill="#EC0000"/>
<path fill-rule="evenodd" clip-rule="evenodd" d="M106.699 101.037H116.058V99.5591H106.699V101.037Z" fill="#F6C854"/>
<path fill-rule="evenodd" clip-rule="evenodd" d="M50.7502 99.237C50.595 99.237 50.4693 99.1118 50.4693 98.9566C50.4693 98.8014 50.595 98.6752 50.7502 98.6752C50.9054 98.6752 51.0311 98.8014 51.0311 98.9566C51.0311 99.1118 50.9054 99.237 50.7502 99.237ZM52.6299 99.0873L51.54 98.3271H49.9688L48.8555 99.0924V103.613H52.6299V99.0873Z" fill="#EC0000"/>
<path fill-rule="evenodd" clip-rule="evenodd" d="M50.7432 99.2378C50.6776 99.2378 50.6251 99.2073 50.6251 99.2073V96.7323C50.6251 96.6667 50.6776 96.6138 50.7432 96.6138C50.8088 96.6138 50.8623 96.6667 50.8623 96.7323V99.2139C50.8282 99.2312 50.8088 99.2378 50.7432 99.2378Z" fill="white"/>
<path fill-rule="evenodd" clip-rule="evenodd" d="M83.6419 102.427C83.4689 102.427 83.3295 102.287 83.3295 102.114C83.3295 101.942 83.4689 101.802 83.6419 101.802C83.8144 101.802 83.9544 101.942 83.9544 102.114C83.9544 102.287 83.8144 102.427 83.6419 102.427ZM85.7335 102.26L84.5204 101.415H82.7731L81.5352 102.265V107.294H85.7335V102.26Z" fill="#F6C854"/>
<path fill-rule="evenodd" clip-rule="evenodd" d="M83.6343 102.427C83.5611 102.427 83.502 102.393 83.502 102.393V99.6401C83.502 99.5668 83.5611 99.5078 83.6343 99.5078C83.7071 99.5078 83.7666 99.5668 83.7666 99.6401V102.4C83.7285 102.42 83.7071 102.427 83.6343 102.427Z" fill="white"/>
<path fill-rule="evenodd" clip-rule="evenodd" d="M112.608 101.807C112.475 101.807 112.367 101.699 112.367 101.567C112.367 101.433 112.475 101.325 112.608 101.325C112.741 101.325 112.849 101.433 112.849 101.567C112.849 101.699 112.741 101.807 112.608 101.807ZM114.219 101.679L113.284 101.028H111.938L110.984 101.683V105.558H114.219V101.679Z" fill="#F6C854"/>
<path fill-rule="evenodd" clip-rule="evenodd" d="M112.6 101.808C112.543 101.808 112.497 101.782 112.497 101.782V99.6608C112.497 99.6049 112.543 99.5591 112.6 99.5591C112.656 99.5591 112.701 99.6049 112.701 99.6608V101.788C112.672 101.802 112.656 101.808 112.6 101.808Z" fill="white"/>
<path fill-rule="evenodd" clip-rule="evenodd" d="M102.225 27.6379C102.889 27.1502 103.32 26.3639 103.32 25.4778C103.32 23.9993 102.12 22.7988 100.641 22.7988C99.2762 22.7988 98.1481 23.8222 97.9832 25.1431C97.9544 25.2807 97.9334 25.4198 97.919 25.5589L97.9189 25.5591L97.9185 25.5622L97.9184 25.5633C97.9141 25.6049 97.9104 25.6465 97.9072 25.688L97.7227 27.7552L98.1427 27.8958L98.1471 27.8968L98.1471 27.8968C98.1575 27.9328 98.1633 27.9523 98.1633 27.9523L98.1747 28.2319L98.1953 28.7546C98.2025 28.9276 98.2386 29.097 98.3016 29.2564C98.3456 29.3689 98.4038 29.4766 98.4748 29.5766C98.5583 29.6939 98.658 29.7992 98.7692 29.8881C98.8272 29.9347 98.8888 29.9763 98.9532 30.0134C98.9873 30.0331 99.0213 30.0512 99.0566 30.0681L99.0568 30.0682L98.8764 33.3335C98.8764 33.3335 99.8296 33.6207 100.873 33.3928C101.504 33.2562 102.169 32.9301 102.676 32.2397C102.676 32.2397 102.076 29.6385 102.225 27.6379Z" fill="#FFC4B8"/>
<path fill-rule="evenodd" clip-rule="evenodd" d="M100.865 33.3543C101.496 33.2177 102.161 32.8915 102.668 32.2012C102.668 32.2012 102.019 29.414 102.239 27.3884C102.239 27.3884 100.762 30.9884 100.865 33.3543ZM98.1452 27.9075C98.2922 27.9506 98.4369 27.8351 98.4273 27.6824L98.3655 26.6978L98.1452 27.9075Z" fill="#F4A48D"/>
<path fill-rule="evenodd" clip-rule="evenodd" d="M101.507 22.975C100.33 22.9337 100.474 21.9224 100.474 21.9224C99.2143 21.9637 98.6771 22.4384 98.6771 22.4384C97.6647 23.2432 98.0661 24.8578 98.0661 24.8578C98.2206 23.6394 100.087 24.1589 100.818 24.2812C101.116 24.574 101.001 25.2886 101.152 25.8909C101.155 25.9019 101.48 26.7171 101.48 26.7171L101.48 26.7181L101.498 26.8028C101.504 26.7889 101.509 26.775 101.515 26.7612C101.712 26.2963 102.112 26.0213 102.408 26.1463C102.706 26.2716 102.787 26.7498 102.591 27.2147C102.522 27.3767 102.349 27.5156 102.244 27.6226C102.163 28.3052 102.178 28.9393 102.236 29.4836L102.54 29.4968L103.636 24.2959C103.717 23.5997 103.407 23.282 102.91 23.1297C102.523 23.0111 102.023 22.9931 101.507 22.975Z" fill="#444444"/>
<path fill-rule="evenodd" clip-rule="evenodd" d="M104.196 31.6709C103.83 31.6709 100.753 32.3957 100.753 32.3957C98.8231 31.9125 97.7359 31.6709 97.4917 31.6709C96.468 31.6709 96.4079 32.0695 96.077 33.4464L95.6797 51.2411H106.19V33.5371C106.19 32.1352 106.541 31.6709 104.196 31.6709Z" fill="#34466B"/>
<path fill-rule="evenodd" clip-rule="evenodd" d="M108.469 33.0624C108.181 32.1719 107.249 31.9034 106.571 32.0885C105.893 32.2736 105.259 33.0884 105.528 33.9252L108.651 42.1807H111.263L108.469 33.0624Z" fill="#FFC4B8"/>
<path fill-rule="evenodd" clip-rule="evenodd" d="M108.359 32.8051C108.071 31.94 105.826 31.6709 104.738 31.6709C103.651 31.6709 104.898 32.9709 105.184 33.8359L106.275 37.1071L109.45 36.0768L108.359 32.8051Z" fill="#34466B"/>
<path fill-rule="evenodd" clip-rule="evenodd" d="M102.926 45.1808L103.414 47.2545C103.414 47.2545 111.912 44.887 111.261 42.1808L109.89 41.8184L108.655 41.9811L102.926 45.1808Z" fill="#FFC4B8"/>
<path fill-rule="evenodd" clip-rule="evenodd" d="M91.3633 42.6187L94.1573 33.5004C94.4457 32.6099 95.3779 32.3414 96.0567 32.5265C96.7344 32.7116 97.3686 33.5264 97.0979 34.3632L93.9763 42.6187H91.3633Z" fill="#FFC4B8"/>
<path fill-rule="evenodd" clip-rule="evenodd" d="M94.2664 32.8802C94.554 32.0151 96.6117 31.3864 97.4892 31.6708C98.3651 31.9547 97.728 33.046 97.4415 33.911L96.3492 37.1822L93.1758 36.1519L94.2664 32.8802Z" fill="#34466B"/>
<path fill-rule="evenodd" clip-rule="evenodd" d="M99.6991 45.6183L99.2114 47.692C99.2114 47.692 90.7131 45.3245 91.3637 42.6183L92.7347 42.2559L93.9707 42.4186L99.6991 45.6183Z" fill="#FFC4B8"/>
<path fill-rule="evenodd" clip-rule="evenodd" d="M107.275 50.6946C107.275 50.9961 107.03 51.2411 106.729 51.2411H95.4996C95.1974 51.2411 94.9531 50.9961 94.9531 50.6946V42.3653C94.9531 42.0633 95.1974 41.8184 95.4996 41.8184H106.729C107.03 41.8184 107.275 42.0633 107.275 42.3653V50.6946Z" fill="black"/>
<path fill-rule="evenodd" clip-rule="evenodd" d="M108.365 51.8722C108.365 52.1246 108.171 52.3286 107.932 52.3286H94.6622C94.4242 52.3286 94.2305 52.1246 94.2305 51.8722V51.3358C94.2305 51.0835 94.4242 50.8789 94.6622 50.8789H107.932C108.171 50.8789 108.365 51.0835 108.365 51.3358V51.8722Z" fill="#444444"/>
<path fill-rule="evenodd" clip-rule="evenodd" d="M92.418 53.2344L92.9486 55.9525H97.4917V53.2692C97.4917 53.2692 95.8005 53.2576 92.418 53.2344Z" fill="black"/>
<path fill-rule="evenodd" clip-rule="evenodd" d="M105.101 53.0563L94.121 48.3569C93.049 48.0262 91.504 47.4161 90.5775 49.1668C90.0571 50.1457 89.8904 51.7509 91.9935 52.3996L101.544 55.5901H104.549L105.101 53.0563Z" fill="#767676"/>
<path fill-rule="evenodd" clip-rule="evenodd" d="M108.809 51.243L96.7656 53.1156V55.9526H109.612C111.809 55.9526 112.136 54.292 111.937 53.1497C111.582 51.1089 109.928 51.243 108.809 51.243Z" fill="#767676"/>
</svg>
