<svg width="160" height="160" viewBox="0 0 160 160" fill="none" xmlns="http://www.w3.org/2000/svg">
<path fill-rule="evenodd" clip-rule="evenodd" d="M56.5602 122.341C57.1623 122.367 57.7628 122.383 58.3619 122.39C70.4226 122.528 81.8582 126.72 91.1281 134.019C96.7549 138.449 103.821 141.204 111.677 141.536C132.254 142.405 150.359 126.449 152.251 105.779C153.086 96.6599 150.599 88.1659 145.794 81.4472C141.679 75.6947 139.759 68.5738 140.576 61.3439C140.586 61.2507 140.596 61.1575 140.605 61.0648C141.827 48.8819 133.059 38.655 120.929 38.1196C120.859 38.1163 120.79 38.1137 120.721 38.1115C117.447 37.9981 114.531 36.2377 112.947 33.4363C103.917 17.4647 87.1584 6.50658 67.1021 5.6628C35.0548 4.31471 6.66639 29.3658 3.75797 61.5602C0.847576 93.7799 24.4877 120.992 56.5602 122.341Z" fill="#EAF7FE"/>
<path d="M95.8161 153.792L51.9867 147.092C47.119 146.346 43.7769 141.801 44.5218 136.938L62.3924 20.3066C63.1374 15.4441 67.6869 12.1051 72.5559 12.8494L116.384 19.551C121.253 20.2959 124.595 24.841 123.849 29.7035L105.979 146.336C105.235 151.199 100.685 154.536 95.8161 153.792Z" fill="#9E3667"/>
<path d="M93.1252 153.382L49.2953 146.68C44.4278 145.937 41.0856 141.39 41.8304 136.528L59.7001 19.8964C60.4461 15.034 64.9955 11.695 69.8641 12.4392L113.693 19.1414C118.561 19.885 121.904 24.4308 121.158 29.2934L103.288 145.925C102.543 150.788 97.9924 154.127 93.1252 153.382Z" fill="white"/>
<path d="M120.4 34.2478L103.881 142.062C103.367 145.414 99.1972 147.556 95.8447 147.043L47.5651 139.661C44.2101 139.148 41.9098 136.017 42.4232 132.665L58.9427 24.851C59.4561 21.4988 62.5893 19.1958 65.9445 19.7087L114.223 27.091C117.576 27.6035 120.914 30.8959 120.4 34.2478Z" fill="white"/>
<path fill-rule="evenodd" clip-rule="evenodd" d="M103.054 23.018C103.864 23.1421 104.623 22.5857 104.747 21.7757C104.871 20.9651 104.314 20.2082 103.504 20.0841C102.693 19.9606 101.935 20.5164 101.81 21.327C101.686 22.137 102.242 22.8945 103.054 23.018ZM81.4735 18.9988C81.8955 19.0635 82.2907 18.7737 82.3557 18.3512C82.4203 17.9287 82.1302 17.5342 81.7078 17.4694C81.285 17.4049 80.8898 17.6947 80.8256 18.1172C80.7601 18.5396 81.0507 18.9342 81.4735 18.9988ZM79.3864 17.898C79.3218 18.3198 78.9267 18.6104 78.5047 18.5457C78.0818 18.4803 77.7917 18.0864 77.8568 17.6639C77.9214 17.2414 78.3166 16.9517 78.7385 17.0163C79.1614 17.0809 79.4515 17.4756 79.3864 17.898ZM87.5695 19.5658L94.6662 20.6506C94.8917 20.6855 95.1022 20.5309 95.1365 20.3056C95.1708 20.0803 95.0161 19.87 94.7906 19.8358L87.6939 18.7508C87.4692 18.7167 87.2587 18.8706 87.2235 19.096C87.1892 19.3211 87.3431 19.5316 87.5695 19.5658Z" fill="#DEEDF2"/>
<path fill-rule="evenodd" clip-rule="evenodd" d="M95.8087 153.768L51.9788 147.068C47.1111 146.322 43.7691 141.777 44.514 136.914L62.3845 20.2827C63.1296 15.4201 67.679 12.0812 72.548 12.8255L116.377 19.527C121.245 20.272 124.587 24.8171 123.841 29.6796L105.971 146.312C105.227 151.175 100.677 154.512 95.8087 153.768Z" fill="#9E3667"/>
<path fill-rule="evenodd" clip-rule="evenodd" d="M93.1173 153.357L49.2874 146.654C44.42 145.911 41.0778 141.365 41.8226 136.502L59.6927 19.8705C60.4382 15.0081 64.9877 11.6691 69.8562 12.4133L113.685 19.1155C118.553 19.8592 121.896 24.4049 121.15 29.2675L103.28 145.899C102.535 150.762 97.9846 154.101 93.1173 153.357Z" fill="white"/>
<path d="M120.396 34.2219L103.877 142.037C103.363 145.388 99.1937 147.53 95.8407 147.018L47.5611 139.635C44.2061 139.122 41.9058 135.991 42.4193 132.639L58.9387 24.8251C59.4521 21.4729 62.5853 19.1699 65.9405 19.6828L114.219 27.0651C117.572 27.5777 120.91 30.87 120.396 34.2219Z" fill="white"/>
<path fill-rule="evenodd" clip-rule="evenodd" d="M104.423 138.468L103.876 142.036C103.847 142.216 103.81 142.392 103.762 142.562C102.919 145.609 99.0118 147.504 95.8399 147.019L47.5604 139.635C44.6029 139.183 42.4623 136.697 42.3524 133.816C42.3375 133.429 42.3569 133.036 42.4184 132.639L42.9651 129.07L104.423 138.468Z" fill="#CEDEE7"/>
<path d="M104.425 138.468L103.878 142.036C103.849 142.216 103.812 142.392 103.764 142.562L103.731 142.558L103.876 141.617L42.4844 132.231L42.9677 129.07L104.425 138.468Z" fill="#2A8FEC"/>
<path fill-rule="evenodd" clip-rule="evenodd" d="M87.1162 115.646L103.171 118.099L100.711 134.141L84.6564 131.688L87.1162 115.646ZM68.6855 112.827L84.74 115.28L82.2802 131.322L66.2266 128.869L68.6855 112.827ZM50.2567 110.009L66.3107 112.462L63.8518 128.504L47.7969 126.051L50.2567 110.009Z" fill="#CEDEE7"/>
<path fill-rule="evenodd" clip-rule="evenodd" d="M103.046 22.9916C103.856 23.1158 104.615 22.5593 104.739 21.7494C104.863 20.9387 104.307 20.1818 103.496 20.0577C102.685 19.9342 101.927 20.4901 101.802 21.3007C101.679 22.1106 102.235 22.8682 103.046 22.9916ZM81.4657 18.9724C81.8881 19.0371 82.2829 18.7474 82.3479 18.3249C82.4125 17.9023 82.1224 17.5078 81.7 17.4431C81.2772 17.3785 80.882 17.6684 80.8178 18.0909C80.7523 18.5132 81.0429 18.9079 81.4657 18.9724ZM79.3786 17.8716C79.314 18.2935 78.9193 18.584 78.4969 18.5193C78.074 18.4539 77.7839 18.0601 77.849 17.6376C77.9136 17.215 78.3087 16.9253 78.7307 16.99C79.1536 17.0546 79.4437 17.4492 79.3786 17.8716ZM87.5616 19.5394L94.6583 20.6242C94.8838 20.6591 95.0944 20.5045 95.1287 20.2792C95.163 20.0539 95.0082 19.8437 94.7827 19.8094L87.686 18.7245C87.4614 18.6903 87.2509 18.8442 87.2157 19.0696C87.1814 19.2948 87.3357 19.5052 87.5616 19.5394Z" fill="#DEEDF2"/>
<path d="M120.391 34.223L117.762 51.3808L56.3047 41.9839L58.9337 24.8261C59.4471 21.474 62.5803 19.1706 65.9355 19.6839L114.214 27.0662C117.567 27.5787 120.905 30.8709 120.391 34.223Z" fill="#2A8FEC"/>
<path fill-rule="evenodd" clip-rule="evenodd" d="M108.123 114.33L46.668 104.929L56.304 42.0283L117.759 51.4292L108.123 114.33Z" fill="#CEDEE7"/>
<path d="M50.4609 80.0932C52.8785 79.414 55.202 78.3815 57.1216 76.9899L64.1884 78.8162L62.2702 71.9503L62.2275 71.7947L62.1313 71.9279L59.0974 71.4488L54.4051 70.2716L52.0231 69.894L50.4609 80.0932Z" fill="#34466B"/>
<path fill-rule="evenodd" clip-rule="evenodd" d="M74.8826 65.6852L76.3468 56.1159C76.403 55.7493 76.7371 55.4944 77.1011 55.5344L77.1305 55.5383L77.4026 55.5801C80.945 56.1221 83.5024 55.6816 85.9182 54.4658L85.9837 54.5287C87.8896 56.3542 90.156 57.5129 93.5916 58.057L93.9824 58.1172L94.0118 58.1221C94.3613 58.1911 94.6004 58.5172 94.5617 58.872L94.5578 58.9027L93.0936 68.4715C92.3011 73.6504 87.6738 77.3216 82.589 77.2333L82.4347 77.2293C77.4751 75.8496 74.0822 70.9159 74.8826 65.6852Z" fill="#34466B"/>
<path fill-rule="evenodd" clip-rule="evenodd" d="M90.9087 64.1336L82.1764 70.4308L78.4727 65.2734L80.2516 63.9961L82.6753 67.3706L89.6274 62.3569L90.9087 64.1336Z" fill="white"/>
<path fill-rule="evenodd" clip-rule="evenodd" d="M54.0595 72.8982C38.3449 78.6459 20.314 72.4059 11.7452 57.3994C2.18956 40.659 8.02614 19.3488 24.7835 9.80278C41.5409 0.255948 62.8722 6.08639 72.4287 22.8256C80.9957 37.8341 77.1922 56.5136 64.2384 67.0987L64.1843 78.8187L54.0595 72.8982Z" fill="white"/>
<path d="M26.1204 41.0031C26.0922 40.5531 25.9797 40.0749 25.8109 39.6529C25.6703 39.1747 25.5015 38.7528 25.2483 38.359L21.8447 40.1874L22.4917 36.3618C22.0416 36.2493 21.5634 36.2212 21.0852 36.2212C20.607 36.2212 20.1288 36.2493 19.7068 36.3618L20.3819 40.1874L16.922 38.3871C16.697 38.7809 16.5001 39.2029 16.3594 39.6529C16.2188 40.103 16.1063 40.5812 16.0781 41.0313L19.9319 41.5658L17.147 44.2942C17.4565 44.6317 17.8222 44.9693 18.1878 45.2225C18.5816 45.5038 18.9755 45.757 19.3974 45.9258L21.1133 42.4379L22.8292 45.8977C23.2511 45.7289 23.6731 45.4757 24.0388 45.2225C24.4326 44.9412 24.7983 44.6036 25.0796 44.266L22.2947 41.5939L26.1204 41.0031Z" fill="#2A8FEC"/>
<path d="M39.6789 41.0031C39.6508 40.5531 39.5383 40.0749 39.3695 39.6529C39.2289 39.1747 39.0601 38.7528 38.8069 38.359L35.4033 40.1874L36.0502 36.3618C35.6001 36.2493 35.1219 36.2212 34.6438 36.2212C34.1656 36.2212 33.6874 36.2493 33.2654 36.3618L33.9405 40.1874L30.4806 38.3871C30.2556 38.7809 30.0587 39.2029 29.918 39.6529C29.7774 40.103 29.6649 40.5812 29.6367 41.0313L33.4904 41.5658L30.7056 44.2942C31.015 44.6317 31.3807 44.9693 31.7464 45.2225C32.1402 45.5038 32.534 45.757 32.956 45.9258L34.6719 42.4379L36.3878 45.8977C36.8097 45.7289 37.2317 45.4757 37.5973 45.2225C37.9912 44.9412 38.3569 44.6036 38.6381 44.266L35.8533 41.5939L39.6789 41.0031Z" fill="#2A8FEC"/>
<path d="M53.2377 41.0031C53.2096 40.5531 53.0971 40.0749 52.9283 39.6529C52.7876 39.1747 52.6188 38.7528 52.3656 38.359L48.9617 40.1874L49.6087 36.3618C49.1586 36.2493 48.6804 36.2212 48.2021 36.2212C47.7243 36.2212 47.2461 36.2493 46.8241 36.3618L47.4993 40.1874L44.0392 38.3871C43.8141 38.7809 43.6172 39.2029 43.4766 39.6529C43.3359 40.103 43.2234 40.5812 43.1953 41.0313L47.0492 41.5658L44.2642 44.2942C44.5736 44.6317 44.9393 44.9693 45.305 45.2225C45.6988 45.5038 46.0927 45.757 46.5147 45.9258L48.2303 42.4379L49.9463 45.8977C50.3683 45.7289 50.7903 45.4757 51.156 45.2225C51.5498 44.9412 51.9155 44.6036 52.1969 44.266L49.4118 41.5939L53.2377 41.0031Z" fill="#2A8FEC"/>
<path d="M66.7961 41.0031C66.768 40.5531 66.6554 40.0749 66.4867 39.6529C66.346 39.1747 66.1772 38.7528 65.924 38.359L62.5201 40.1874L63.1671 36.3618C62.717 36.2493 62.2387 36.2212 61.7609 36.2212C61.2827 36.2212 60.8045 36.2493 60.3825 36.3618L61.0576 40.1874L57.5974 38.3871C57.3724 38.7809 57.1754 39.2029 57.0348 39.6529C56.8941 40.103 56.782 40.5812 56.7539 41.0313L60.6075 41.5658L57.8225 44.2942C58.1319 44.6317 58.4976 44.9693 58.8634 45.2225C59.2572 45.5038 59.651 45.757 60.073 45.9258L61.7891 42.4379L63.5047 45.8977C63.9267 45.7289 64.3486 45.4757 64.7143 45.2225C65.1082 44.9412 65.4739 44.6036 65.7552 44.266L62.9702 41.5939L66.7961 41.0031Z" fill="#2A8FEC"/>
<rect x="54.9766" y="82.814" width="53.4514" height="12.3077" transform="rotate(8.7 54.9766 82.814)" fill="white"/>
</svg>
