<svg width="160" height="160" viewBox="0 0 160 160" fill="none" xmlns="http://www.w3.org/2000/svg">
<path fill-rule="evenodd" clip-rule="evenodd" d="M57.0008 125.863C57.6479 125.891 58.2931 125.908 58.9369 125.915C71.8971 126.064 84.1856 130.569 94.1469 138.412C100.193 143.173 107.786 146.133 116.229 146.49C138.34 147.424 157.796 130.278 159.829 108.065C160.726 98.2666 158.054 89.139 152.89 81.9193C148.468 75.7377 146.405 68.0857 147.282 60.3166C147.293 60.2164 147.304 60.1163 147.314 60.0166C148.627 46.9251 139.205 35.9354 126.17 35.3601C126.096 35.3566 126.021 35.3538 125.947 35.3514C122.429 35.2296 119.295 33.3378 117.594 30.3276C107.889 13.1647 89.8811 1.3893 68.329 0.482588C33.8915 -0.966045 3.38576 25.9535 0.260416 60.549C-2.86704 95.1718 22.5362 124.414 57.0008 125.863Z" fill="#EAF7FE"/>
<path d="M99.1847 159.66L52.0863 152.46C46.8556 151.659 43.2642 146.775 44.0647 141.549L63.2681 16.2187C64.0687 10.9935 68.9575 7.40549 74.1897 8.20526L121.287 15.4067C126.519 16.2072 130.11 21.0913 129.308 26.3164L110.106 151.647C109.306 156.873 104.416 160.46 99.1847 159.66Z" fill="#9E3667"/>
<path d="M96.2946 159.219L49.1957 152.017C43.9652 151.218 40.3738 146.333 41.1741 141.108L60.3766 15.7772C61.1782 10.5521 66.0669 6.96415 71.2986 7.76383L118.397 14.9659C123.628 15.765 127.219 20.6498 126.418 25.8751L107.215 151.205C106.415 156.431 101.525 160.019 96.2946 159.219Z" fill="white"/>
<path d="M125.604 31.1993L107.853 147.055C107.301 150.657 102.82 152.958 99.2172 152.408L47.3368 144.475C43.7315 143.923 41.2596 140.559 41.8114 136.957L59.5629 21.1017C60.1146 17.4994 63.4815 15.0246 67.0869 15.5758L118.966 23.5087C122.569 24.0595 126.156 27.5974 125.604 31.1993Z" fill="white"/>
<path fill-rule="evenodd" clip-rule="evenodd" d="M106.964 19.1322C107.835 19.2657 108.649 18.6677 108.783 17.7973C108.916 16.9262 108.318 16.1129 107.447 15.9795C106.576 15.8468 105.761 16.4441 105.627 17.3152C105.494 18.1856 106.092 18.9996 106.964 19.1322ZM83.7734 14.8135C84.2268 14.883 84.6515 14.5717 84.7214 14.1177C84.7908 13.6636 84.4791 13.2397 84.0251 13.1701C83.5707 13.1007 83.1461 13.4122 83.0771 13.8662C83.0068 14.3201 83.319 14.7442 83.7734 14.8135ZM81.5325 13.6304C81.463 14.0837 81.0384 14.396 80.5849 14.3265C80.1305 14.2562 79.8188 13.8329 79.8887 13.3789C79.9581 12.9249 80.3828 12.6136 80.8362 12.683C81.2906 12.7524 81.6024 13.1766 81.5325 13.6304ZM90.3263 15.4228L97.9523 16.5885C98.1946 16.626 98.4209 16.4599 98.4577 16.2178C98.4946 15.9757 98.3283 15.7497 98.086 15.7129L90.46 14.5471C90.2186 14.5104 89.9924 14.6758 89.9546 14.9179C89.9177 15.1599 90.083 15.386 90.3263 15.4228Z" fill="#DEEDF2"/>
<path fill-rule="evenodd" clip-rule="evenodd" d="M99.1773 159.634L52.0785 152.434C46.8477 151.633 43.2564 146.749 44.0569 141.523L63.2603 16.1928C64.0609 10.9676 68.9497 7.37961 74.1818 8.17938L121.279 15.3808C126.511 16.1813 130.102 21.0654 129.301 26.2905L110.098 151.621C109.298 156.847 104.409 160.434 99.1773 159.634Z" fill="#9E3667"/>
<path fill-rule="evenodd" clip-rule="evenodd" d="M96.2868 159.192L49.1879 151.99C43.9574 151.191 40.3659 146.306 41.1662 141.08L60.3692 15.7499C61.1703 10.5248 66.0591 6.93681 71.2908 7.73649L118.389 14.9386C123.62 15.7377 127.212 20.6224 126.41 25.8477L107.207 151.178C106.407 156.404 101.517 159.992 96.2868 159.192Z" fill="white"/>
<path d="M125.596 31.1715L107.845 147.027C107.293 150.629 102.812 152.931 99.2093 152.38L47.3289 144.447C43.7237 143.895 41.2518 140.531 41.8036 136.929L59.555 21.0739C60.1067 17.4716 63.4736 14.9968 67.079 15.548L118.958 23.4809C122.562 24.0317 126.148 27.5696 125.596 31.1715Z" fill="white"/>
<path fill-rule="evenodd" clip-rule="evenodd" d="M108.435 143.192L107.847 147.027C107.817 147.22 107.777 147.409 107.725 147.592C106.819 150.866 102.621 152.902 99.2124 152.381L47.3319 144.447C44.154 143.961 41.8536 141.289 41.7356 138.194C41.7196 137.777 41.7404 137.355 41.8065 136.928L42.394 133.093L108.435 143.192Z" fill="#CEDEE7"/>
<path d="M108.435 143.192L107.847 147.027C107.817 147.22 107.777 147.409 107.725 147.592L107.69 147.587L107.845 146.576L41.875 136.49L42.3943 133.093L108.435 143.192Z" fill="#EC0000"/>
<path fill-rule="evenodd" clip-rule="evenodd" d="M89.8378 118.668L107.09 121.304L104.447 138.543L87.1946 135.907L89.8378 118.668ZM70.0335 115.639L87.2854 118.275L84.6422 135.513L67.3912 132.878L70.0335 115.639ZM50.2292 112.611L67.4806 115.247L64.8383 132.485L47.5859 129.85L50.2292 112.611Z" fill="#CEDEE7"/>
<path fill-rule="evenodd" clip-rule="evenodd" d="M106.952 19.104C107.823 19.2374 108.638 18.6394 108.771 17.769C108.905 16.8979 108.306 16.0846 107.435 15.9512C106.564 15.8185 105.75 16.4158 105.615 17.2869C105.483 18.1572 106.08 18.9713 106.952 19.104ZM83.7617 14.7852C84.2156 14.8547 84.6397 14.5434 84.7096 14.0894C84.7791 13.6353 84.4673 13.2114 84.0134 13.1418C83.559 13.0724 83.1344 13.3839 83.0654 13.8379C82.995 14.2918 83.3073 14.7158 83.7617 14.7852ZM81.5207 13.6021C81.4513 14.0554 81.0271 14.3676 80.5732 14.2981C80.1188 14.2279 79.8071 13.8046 79.877 13.3506C79.9464 12.8966 80.3711 12.5852 80.8245 12.6547C81.2789 12.7241 81.5906 13.1482 81.5207 13.6021ZM90.3146 15.3945L97.9406 16.5602C98.1829 16.5977 98.4091 16.4315 98.446 16.1894C98.4828 15.9473 98.3166 15.7214 98.0742 15.6846L90.4482 14.5187C90.2069 14.482 89.9806 14.6474 89.9428 14.8896C89.906 15.1316 90.0718 15.3577 90.3146 15.3945Z" fill="#DEEDF2"/>
<path d="M125.593 31.173L122.768 49.6105L56.7266 39.5128L59.5517 21.0754C60.1034 17.4732 63.4702 14.998 67.0756 15.5495L118.955 23.4825C122.558 24.0332 126.145 27.5709 125.593 31.173Z" fill="#EC0000"/>
<path fill-rule="evenodd" clip-rule="evenodd" d="M112.41 117.254L46.3711 107.153L56.7258 39.5601L122.765 49.6621L112.41 117.254Z" fill="#CEDEE7"/>
<path d="M50.4453 80.4637C53.0432 79.7339 55.54 78.6244 57.6027 77.129L65.1966 79.0916L63.1353 71.7135L63.0895 71.5463L62.9861 71.6894L59.7259 71.1746L54.6837 69.9097L52.124 69.5039L50.4453 80.4637Z" fill="#34466B"/>
<path fill-rule="evenodd" clip-rule="evenodd" d="M76.6921 64.9814L78.2655 54.6985C78.326 54.3045 78.6849 54.0306 79.076 54.0736L79.1077 54.0778L79.4001 54.1227C83.2067 54.7051 85.9548 54.2318 88.5508 52.9253L88.6212 52.9928C90.6693 54.9545 93.1047 56.1996 96.7965 56.7843L97.2164 56.8491L97.2481 56.8543C97.6236 56.9284 97.8805 57.2789 97.839 57.6601L97.8347 57.6931L96.2613 67.9756C95.4097 73.5408 90.4373 77.4858 84.9733 77.3908L84.8075 77.3866C79.478 75.9039 75.832 70.6023 76.6921 64.9814Z" fill="#34466B"/>
<path fill-rule="evenodd" clip-rule="evenodd" d="M93.9143 63.314L84.5308 70.0808L80.5508 64.5388L82.4624 63.1662L85.0669 66.7923L92.5375 61.4048L93.9143 63.314Z" fill="white"/>
<path fill-rule="evenodd" clip-rule="evenodd" d="M54.3158 72.7325C37.4292 78.9089 18.0535 72.2035 8.84558 56.0777C-1.42277 38.0888 4.84912 15.1892 22.8564 4.93117C40.8635 -5.3277 63.7858 0.937597 74.055 18.9253C83.261 35.0532 79.1738 55.1259 65.2538 66.5004L65.1957 79.0945L54.3158 72.7325Z" fill="white"/>
<path d="M24.2912 38.4589C24.261 37.9753 24.1401 37.4614 23.9587 37.008C23.8076 36.4941 23.6262 36.0407 23.3541 35.6176L19.6966 37.5823L20.3919 33.4714C19.9082 33.3505 19.3944 33.3203 18.8805 33.3203C18.3666 33.3203 17.8527 33.3505 17.3993 33.4714L18.1248 37.5823L14.4068 35.6478C14.165 36.071 13.9534 36.5244 13.8023 37.008C13.6512 37.4916 13.5302 38.0055 13.5 38.4891L17.6412 39.0635L14.6486 41.9954C14.9811 42.3581 15.3741 42.7209 15.7671 42.993C16.1902 43.2953 16.6135 43.5674 17.0669 43.7487L18.9107 40.0007L20.7546 43.7185C21.208 43.5371 21.6614 43.2651 22.0544 42.993C22.4776 42.6907 22.8705 42.3279 23.1728 41.9652L20.1803 39.0938L24.2912 38.4589Z" fill="#EC0000"/>
<path d="M38.8615 38.4589C38.8313 37.9753 38.7104 37.4614 38.529 37.008C38.3779 36.4941 38.1965 36.0407 37.9245 35.6176L34.267 37.5823L34.9621 33.4714C34.4785 33.3505 33.9647 33.3203 33.4508 33.3203C32.9369 33.3203 32.4231 33.3505 31.9697 33.4714L32.6951 37.5823L28.9771 35.6478C28.7353 36.071 28.5237 36.5244 28.3726 37.008C28.2215 37.4916 28.1005 38.0055 28.0703 38.4891L32.2115 39.0635L29.219 41.9954C29.5514 42.3581 29.9444 42.7209 30.3374 42.993C30.7606 43.2953 31.1837 43.5674 31.6371 43.7487L33.481 40.0007L35.3249 43.7185C35.7783 43.5371 36.2317 43.2651 36.6247 42.993C37.0479 42.6907 37.4408 42.3279 37.7431 41.9652L34.7506 39.0938L38.8615 38.4589Z" fill="#EC0000"/>
<path d="M53.432 38.4589C53.4018 37.9753 53.2809 37.4614 53.0995 37.008C52.9484 36.4941 52.767 36.0407 52.4949 35.6176L48.8371 37.5823L49.5324 33.4714C49.0487 33.3505 48.5348 33.3203 48.0209 33.3203C47.5074 33.3203 46.9935 33.3505 46.5401 33.4714L47.2656 37.5823L43.5474 35.6478C43.3056 36.071 43.094 36.5244 42.9429 37.008C42.7917 37.4916 42.6708 38.0055 42.6406 38.4891L46.7819 39.0635L43.7892 41.9954C44.1218 42.3581 44.5147 42.7209 44.9076 42.993C45.3309 43.2953 45.7541 43.5674 46.2075 43.7487L48.0511 40.0007L49.8951 43.7185C50.3486 43.5371 50.802 43.2651 51.195 42.993C51.6182 42.6907 52.0112 42.3279 52.3135 41.9652L49.3208 39.0938L53.432 38.4589Z" fill="#EC0000"/>
<path d="M68.0021 38.4589C67.9719 37.9753 67.851 37.4614 67.6696 37.008C67.5184 36.4941 67.3371 36.0407 67.065 35.6176L63.4072 37.5823L64.1024 33.4714C63.6188 33.3505 63.1049 33.3203 62.5914 33.3203C62.0775 33.3203 61.5636 33.3505 61.1101 33.4714L61.8357 37.5823L58.1174 35.6478C57.8755 36.071 57.6639 36.5244 57.5128 37.008C57.3616 37.4916 57.2412 38.0055 57.2109 38.4891L61.352 39.0635L58.3592 41.9954C58.6917 42.3581 59.0847 42.7209 59.4777 42.993C59.9009 43.2953 60.3242 43.5674 60.7776 43.7487L62.6216 40.0007L64.4652 43.7185C64.9187 43.5371 65.3721 43.2651 65.7651 42.993C66.1883 42.6907 66.5813 42.3279 66.8836 41.9652L63.8908 39.0938L68.0021 38.4589Z" fill="#EC0000"/>
<rect x="55.2969" y="83.3877" width="57.438" height="13.2256" transform="rotate(8.7 55.2969 83.3877)" fill="white"/>
</svg>
