<svg width="160" height="161" viewBox="0 0 160 161" fill="none" xmlns="http://www.w3.org/2000/svg">
<path fill-rule="evenodd" clip-rule="evenodd" d="M151.475 115.739L95.2428 110.448H7.26953L61.2326 115.739H151.475Z" fill="#CEDEE7"/>
<path fill-rule="evenodd" clip-rule="evenodd" d="M64.7068 115.74V88.38L61.2305 85.4402V115.74H64.7068ZM132.879 115.74H130.006V99.8681H132.879V115.74Z" fill="#9BC3D3"/>
<path fill-rule="evenodd" clip-rule="evenodd" d="M123.606 44.9753L160 97.9763H72.372L35.9785 44.9753H123.606Z" fill="#DEEDF2"/>
<path fill-rule="evenodd" clip-rule="evenodd" d="M160 97.9763L35.9785 44.9753H123.606L160 97.9763Z" fill="#CEDEE7"/>
<path fill-rule="evenodd" clip-rule="evenodd" d="M100.794 97.9396L100.689 98.0133L82.0916 71.5395H53.9688V71.4112H82.0015L63.4562 45.0122L63.5612 44.9385L82.1582 71.4112H111.334L92.788 45.0122L92.8928 44.9385C99.0921 53.7627 105.291 62.587 111.49 71.4112H140.905V71.5395H111.58C117.763 80.3395 123.945 89.1395 130.127 97.9396L130.022 98.0133L111.424 71.5395H82.2483L100.794 97.9396Z" fill="white"/>
<path fill-rule="evenodd" clip-rule="evenodd" d="M160 100.472H71.0574L35.082 48.4738L35.9786 44.9753L72.3721 97.9763H160V100.472Z" fill="#9BC3D3"/>
<path fill-rule="evenodd" clip-rule="evenodd" d="M40.2388 16.617C40.2388 18.3032 38.8628 19.6693 37.1658 19.6693C35.4689 19.6693 34.0918 18.3032 34.0918 16.617C34.0918 14.9309 35.4689 13.5635 37.1658 13.5635C38.8628 13.5635 40.2388 14.9309 40.2388 16.617Z" fill="#1BB3BC"/>
<path fill-rule="evenodd" clip-rule="evenodd" d="M79.591 147.213L77.1211 145.183L79.1508 142.712L81.6216 144.742L79.591 147.213Z" fill="#F6C854"/>
<path fill-rule="evenodd" clip-rule="evenodd" d="M9.06459 76.2536C9.06459 78.7416 7.03604 80.7575 4.5323 80.7575C2.02855 80.7575 0 78.7416 0 76.2536C0 73.7669 2.02855 71.751 4.5323 71.751C7.03604 71.751 9.06459 73.7669 9.06459 76.2536Z" fill="#2A8FEC"/>
<path fill-rule="evenodd" clip-rule="evenodd" d="M112.025 33.7713L109.555 31.7407L111.583 29.2717L114.054 31.3003L112.025 33.7713Z" fill="#F6C854"/>
</svg>
