<svg width="173" height="150" viewBox="0 0 173 150" fill="none" xmlns="http://www.w3.org/2000/svg">
<path fill-rule="evenodd" clip-rule="evenodd" d="M164.155 76.202C161.769 67.5837 169.354 67.2512 169.521 56.1464C169.589 51.6046 167.118 46.979 161.172 44.8571C158.25 43.8147 155.338 43.098 152.738 41.4399C146.813 37.6615 146.92 30.4719 145.303 24.3431C141.754 10.8823 128.092 0.188202 114.264 0.536085C104.295 0.786406 95.2826 1.09407 86.1944 9.61355C79.9757 15.4433 75.9342 22.6161 70.1608 28.626C64.0466 34.9901 56.5963 38.0436 48.2306 40.0886C40.3188 42.0222 31.7121 44.3231 25.6566 50.122C19.9657 55.5713 20.7952 61.2709 23.235 67.9619C25.926 75.3402 20.0915 80.3599 14.0079 83.2333C8.8856 85.6522 0.311219 90.5726 0.0307322 99.6453C-0.836651 127.747 16.8914 127.86 23.5011 130.531C84.3046 155.102 107.639 136.15 133.421 136.533C159.122 136.915 173.855 105.62 172.962 96.404C171.829 84.7022 165.822 82.22 164.155 76.202Z" fill="#DEEDF2"/>
<path d="M121.046 45.2717L118.633 45.0937L121.046 45.2717" fill="#137E84"/>
<path d="M139.693 46.6452L133.039 46.1548L139.693 46.6452Z" fill="#137E84"/>
<path fill-rule="evenodd" clip-rule="evenodd" d="M117.742 104.663C97.2978 103.561 75.7749 108.541 64.8635 112.32C58.3264 114.585 56.5307 118.742 49.6926 119.867C35.959 122.126 3.71131 122.795 3.07367 126.125C1.81835 132.679 12.6979 136.182 37.7909 139.212C37.249 139.661 40.8471 147.863 61.0773 149.715C69.0822 150.447 82.5091 149.717 87.6584 148.116C95.5733 145.654 103.794 144.331 112.076 144.142C141.532 143.471 164.63 140.103 164.901 135.011C164.992 133.309 163.291 130.95 160.627 129.578C158.967 128.724 161.404 128.003 161.97 127.798C168.921 125.279 172.82 122.467 172.963 120.234C173.408 113.226 147.751 106.281 117.742 104.663Z" fill="#DEEDF2"/>
<path fill-rule="evenodd" clip-rule="evenodd" d="M52.5484 68.356H37.1781C36.5188 68.356 35.9844 68.8941 35.9844 69.5582V71.4883C35.9844 72.1521 36.5188 72.6906 37.1781 72.6906H52.5484C53.2077 72.6906 53.7421 72.1521 53.7421 71.4883V69.5582C53.7421 68.8941 53.2077 68.356 52.5484 68.356Z" fill="#1BB3BC"/>
<path fill-rule="evenodd" clip-rule="evenodd" d="M52.5484 74.2134H37.1781C36.5188 74.2134 35.9844 74.7515 35.9844 75.4157V77.3458C35.9844 78.0096 36.5188 78.548 37.1781 78.548H52.5484C53.2077 78.548 53.7421 78.0096 53.7421 77.3458V75.4157C53.7421 74.7515 53.2077 74.2134 52.5484 74.2134Z" fill="#1BB3BC"/>
<path fill-rule="evenodd" clip-rule="evenodd" d="M49.1468 80.0703H40.5772C40.2316 80.0703 40.0289 80.4562 40.2154 80.7493C41.1963 82.2905 42.909 83.3136 44.862 83.3136C46.8154 83.3136 48.5277 82.2905 49.5086 80.7493C49.6951 80.4562 49.4924 80.0703 49.1468 80.0703Z" fill="#1BB3BC"/>
<path fill-rule="evenodd" clip-rule="evenodd" d="M44.8649 19.9409C33.1735 19.9409 23.6953 29.4838 23.6953 41.2556C23.6953 54.8155 34.0708 59.0475 35.4086 65.4706C35.5759 66.2737 36.3033 66.8334 37.1183 66.8334H52.6116C53.4266 66.8334 54.1535 66.2737 54.3209 65.4706C55.6586 59.0475 66.0342 54.8155 66.0342 41.2556C66.0342 29.4838 56.5564 19.9409 44.8649 19.9409Z" fill="#F6C854"/>
<path fill-rule="evenodd" clip-rule="evenodd" d="M64.1964 58.4242C64.36 58.4422 64.5153 58.4959 64.6563 58.5845L78.0239 67.6931C78.7964 68.2631 78.0976 69.9689 76.9701 69.2611L63.6025 60.1526C63.0133 59.7179 63.1399 59.4844 63.212 59.161C63.3057 58.7412 63.5929 58.4438 64.1261 58.4219C64.1496 58.4226 64.173 58.4235 64.1964 58.4242Z" fill="#F6C854"/>
<path fill-rule="evenodd" clip-rule="evenodd" d="M85.7059 38.8765C86.4025 38.9455 86.3814 39.1403 86.5123 39.4421C86.7582 40.009 86.3333 40.7286 85.6691 40.7681L70.9665 41.0593C70.7255 41.0545 70.6594 41.024 70.5377 40.9645C69.8128 40.6105 69.9469 39.2246 70.9295 39.1662L85.6322 38.875C85.6571 38.8755 85.6811 38.876 85.7059 38.8765Z" fill="#F6C854"/>
<path fill-rule="evenodd" clip-rule="evenodd" d="M72.8756 8.9458C73.1064 8.97526 73.1718 9.01282 73.2885 9.08659C73.7377 9.37059 73.899 9.95837 73.5309 10.4695L65.2671 21.1708C64.5963 21.982 64.2492 21.687 63.8324 21.2299C63.5343 20.9031 63.5129 20.3831 63.7827 20.0086L72.0464 9.30728C72.2524 9.05819 72.5438 8.92596 72.8756 8.9458Z" fill="#F6C854"/>
<path fill-rule="evenodd" clip-rule="evenodd" d="M24.134 59.3256C24.5973 59.3762 24.6518 59.5046 24.7772 59.6506C25.1176 60.0469 25.1126 60.6365 24.6287 61.0283L12.2622 70.3304C11.4702 70.8829 10.1046 69.6494 11.1368 68.8135L23.5033 59.5114C23.676 59.3909 23.7791 59.3125 24.134 59.3256Z" fill="#F6C854"/>
<path fill-rule="evenodd" clip-rule="evenodd" d="M15.9093 11.863C16.1597 11.8832 16.3857 11.991 16.5597 12.1732L24.3657 20.8557C24.9939 21.5984 23.8683 23.0652 22.9716 22.1263L15.1655 13.4438C15.0148 13.2656 14.9884 13.1863 14.9521 13.0449C14.8097 12.4887 15.1803 11.8895 15.8525 11.8618C15.8714 11.8622 15.8904 11.8626 15.9093 11.863Z" fill="#F6C854"/>
<path fill-rule="evenodd" clip-rule="evenodd" d="M45.4759 0.000487658C45.6908 0.023208 45.7248 0.0466857 45.8143 0.089097C46.1329 0.240566 46.3368 0.575312 46.353 0.937323L46.4574 14.6335C46.4421 15.1527 46.3158 15.1839 46.162 15.3297C45.6433 15.8219 44.6135 15.4609 44.5771 14.648L44.4727 0.95247C44.4791 0.735112 44.4996 0.698759 44.535 0.605606C44.678 0.23072 45.0575 -0.0123872 45.4759 0.000487658Z" fill="#F6C854"/>
<path fill-rule="evenodd" clip-rule="evenodd" d="M17.2452 40.0674C17.7336 40.09 17.7718 40.2099 17.9082 40.3492C18.4215 40.8728 18.0526 41.9337 17.2327 41.9607L2.62509 41.863C1.92647 41.8307 1.93737 41.6351 1.79077 41.3405C1.50442 40.7652 1.95437 39.9921 2.63757 39.9697C7.50678 40.0023 12.376 40.0349 17.2452 40.0674Z" fill="#F6C854"/>
<path fill-rule="evenodd" clip-rule="evenodd" d="M93.668 56.2051C93.668 56.2051 88.8963 53.2303 88.3056 53.7853C87.7149 54.3399 89.711 55.9321 89.711 55.9321C89.711 55.9321 83.8832 61.2124 84.0915 61.998C84.2997 62.7836 93.4364 59.0399 93.4364 59.0399L93.668 56.2051Z" fill="#F4A48D"/>
<path fill-rule="evenodd" clip-rule="evenodd" d="M113.454 82.7916L113.047 109.69L118.289 143.693L122.415 143.874L124.475 112.382L131.746 81.4009L113.454 82.7916Z" fill="#444444"/>
<path fill-rule="evenodd" clip-rule="evenodd" d="M123.672 84.1204L127.668 110.671L137.267 143.446L141.377 143.054L139.396 111.641L141.521 80.1172L123.672 84.1204Z" fill="#444444"/>
<path fill-rule="evenodd" clip-rule="evenodd" d="M131.671 31.3813C134.75 30.1178 136.945 26.8614 136.945 23.0475C136.945 18.1383 133.308 14.1523 128.828 14.1523C125.284 14.1523 122.266 16.6482 121.162 20.1223L121.148 20.1258L119.028 27.0576L119.222 27.1406L119.324 27.1839L120.578 27.4517L120.583 31.0925L120.644 31.3131C120.743 31.6191 120.88 31.9157 121.056 32.1945C121.26 32.5206 121.512 32.8184 121.799 33.0753C121.949 33.2101 122.109 33.3322 122.278 33.4422C122.368 33.5016 122.457 33.5557 122.549 33.607C122.621 33.6479 122.693 33.6859 122.767 33.721L122.994 33.8307L122.273 41.8585C122.273 41.8585 125.973 42.7295 127.686 42.3794L127.915 42.3291L127.92 42.328C129.555 41.9795 131.179 41.4309 132.551 39.7577C132.551 39.7577 132.547 39.7391 132.54 39.703L132.551 39.6903C132.551 39.6903 132.423 39.0823 132.262 38.0894C132.017 36.5054 131.701 33.9855 131.671 31.3813Z" fill="#F4A48D"/>
<path fill-rule="evenodd" clip-rule="evenodd" d="M122.979 35.8528C124.092 35.5281 126.44 34.2512 128.203 32.1742L123.17 33.9123C123.17 33.9123 123.074 34.9041 122.979 35.8528ZM120.303 27.2283C120.758 27.3749 121.223 27.0426 121.211 26.5808L121.132 23.6033L120.303 27.2283Z" fill="#A66555"/>
<path fill-rule="evenodd" clip-rule="evenodd" d="M131.612 31.9957L132.874 31.2928C134.386 30.4118 135.667 29.0984 136.505 27.4229C138.803 22.8331 136.919 17.2621 132.299 14.9794C128.14 12.9244 123.177 14.2367 120.556 17.8736L121.595 18.7108C121.83 18.6425 122.221 18.5331 122.699 18.4102C124.416 17.9601 127.264 17.3234 128.156 17.7561C129.462 18.39 129.401 20.777 129.203 22.6708C129.009 24.5231 128.834 25.3275 129.678 25.6912C129.987 25.8246 130.179 24.2602 130.889 23.79C131.638 23.2934 132.596 23.799 132.456 25.4999C132.224 26.2727 132.045 27.0346 131.911 27.7785C131.687 29.109 131.605 30.5602 131.612 31.9957Z" fill="#767676"/>
<path fill-rule="evenodd" clip-rule="evenodd" d="M137.057 142.591H141.342L141.52 146.85L136.364 147.297H132.595L133.296 145.322L134.059 144.828L137.057 142.591Z" fill="#1BB3BC"/>
<path fill-rule="evenodd" clip-rule="evenodd" d="M117.936 141.307L112.836 144.944L113.239 147.097L123.248 146.069L122.398 141.307H117.936Z" fill="#1BB3BC"/>
<path fill-rule="evenodd" clip-rule="evenodd" d="M116.555 44.4121C116.555 44.4121 115.736 59.4601 92.4977 55.3103L93.2554 59.5204C93.2554 59.5204 115.951 69.8469 126.571 45.7159C126.676 45.4772 127.492 46.1943 127.492 46.1943C126.278 45.6171 119.828 46.2123 116.555 44.4121Z" fill="#767676"/>
<path fill-rule="evenodd" clip-rule="evenodd" d="M141.27 51.4417C143.009 61.5743 144.149 82.8141 143.422 88.8993C143.422 88.8993 123.154 92.7742 111.549 87.5491C111.549 87.5491 112.386 58.4349 116.556 44.5246C117.49 41.4077 120.174 39.1254 123.388 38.7023C123.95 38.6285 124.567 38.5696 125.242 38.5308C133.058 38.0843 139.94 43.6931 141.27 51.4417Z" fill="#767676"/>
<path fill-rule="evenodd" clip-rule="evenodd" d="M124.121 74.3439C117.719 79.5822 98.51 63.868 98.51 63.868L100.111 60.6447L117.318 65.4799L126.709 50.343C126.709 50.343 131.112 45.5081 135.513 47.9258C139.915 50.343 137.515 55.1782 137.515 55.1782C137.515 55.1782 130.524 69.1059 124.121 74.3439Z" fill="#767676"/>
<path fill-rule="evenodd" clip-rule="evenodd" d="M132.438 38.3027L115.754 60.5535L122.834 38.6191L132.438 38.3027Z" fill="#EAF7FE"/>
<path fill-rule="evenodd" clip-rule="evenodd" d="M133.867 40.5972L125.711 43.5758L123.829 39.8141L122.162 41.2446L121.543 38.7636L123.165 37.3271C123.165 37.3271 124.253 39.043 127.705 38.3969C131.047 37.7713 132.437 37.4748 132.437 37.4748L133.867 40.5972Z" fill="#EAF7FE"/>
<path fill-rule="evenodd" clip-rule="evenodd" d="M125.156 42.0342L123.278 43.7312L122.824 51.4484L115.744 60.4775L119.232 49.8387L122.428 43.5888L122.353 40.8973L123.933 39.4668L125.156 42.0342Z" fill="#EC0000"/>
<path fill-rule="evenodd" clip-rule="evenodd" d="M99.9844 60.899C99.9844 60.899 99.8565 58.6119 99.5437 57.9114C99.1752 57.0864 97.5854 54.5276 97.4421 55.3466C97.2994 56.166 97.9398 57.4463 97.9398 57.4463C97.9398 57.4463 93.9743 55.0068 93.0177 55.6825C92.0615 56.3577 95.2017 61.4082 96.0554 62.4532C96.9092 63.4981 98.6533 63.8935 98.6533 63.8935L99.9844 60.899Z" fill="#F4A48D"/>
</svg>
