<svg width="161" height="160" viewBox="0 0 161 160" fill="none" xmlns="http://www.w3.org/2000/svg">
<path fill-rule="evenodd" clip-rule="evenodd" d="M152.062 81.476C149.855 73.5052 156.87 73.1978 157.025 62.9274C157.087 58.7269 154.802 54.4489 149.303 52.4864C146.601 51.5224 143.907 50.8595 141.503 49.326C136.023 45.8316 136.122 39.1823 134.627 33.514C131.344 21.0646 118.709 11.1742 105.92 11.4959C96.7001 11.7274 88.3648 12.012 79.9596 19.8913C74.2082 25.2829 70.4703 31.9168 65.1308 37.475C59.4761 43.3609 52.5856 46.185 44.8485 48.0762C37.5312 49.8646 29.5713 51.9925 23.9708 57.3557C18.7075 62.3955 19.4748 67.6668 21.7312 73.8551C24.22 80.6789 18.8239 85.3214 13.1974 87.9788C8.46008 90.216 0.53002 94.7667 0.27061 103.158C-0.531593 129.148 15.8643 129.252 21.9773 131.722C78.2117 154.447 99.7926 136.919 123.637 137.274C147.407 137.627 161.032 108.683 160.207 100.16C159.159 89.3374 153.603 87.0417 152.062 81.476Z" fill="#DEEDF2"/>
<path d="M112.193 52.8695L109.961 52.7049L112.193 52.8695" fill="#137E84"/>
<path d="M129.437 54.14L123.283 53.6865L129.437 54.14Z" fill="#137E84"/>
<path fill-rule="evenodd" clip-rule="evenodd" d="M109.136 107.798C90.2277 106.779 70.3221 111.384 60.2306 114.88C54.1848 116.974 52.524 120.819 46.1997 121.859C33.4982 123.949 3.67368 124.567 3.08395 127.647C1.92296 133.708 11.985 136.948 35.1923 139.751C34.6912 140.166 38.0189 147.751 56.7289 149.464C64.1323 150.142 76.5502 149.466 81.3127 147.985C88.6327 145.709 96.2361 144.485 103.896 144.31C131.138 143.689 152.501 140.575 152.751 135.866C152.835 134.292 151.262 132.11 148.798 130.841C147.263 130.05 149.517 129.384 150.04 129.194C156.469 126.865 160.075 124.264 160.207 122.198C160.619 115.718 136.89 109.294 109.136 107.798Z" fill="#DEEDF2"/>
<path fill-rule="evenodd" clip-rule="evenodd" d="M48.8428 74.2192H34.6274C34.0177 74.2192 33.5234 74.7169 33.5234 75.3312V77.1162C33.5234 77.7302 34.0177 78.2282 34.6274 78.2282H48.8428C49.4525 78.2282 49.9468 77.7302 49.9468 77.1162V75.3312C49.9468 74.7169 49.4525 74.2192 48.8428 74.2192Z" fill="#1BB3BC"/>
<path fill-rule="evenodd" clip-rule="evenodd" d="M48.8428 79.6367H34.6274C34.0177 79.6367 33.5234 80.1344 33.5234 80.7487V82.5337C33.5234 83.1476 34.0177 83.6457 34.6274 83.6457H48.8428C49.4525 83.6457 49.9468 83.1476 49.9468 82.5337V80.7487C49.9468 80.1344 49.4525 79.6367 48.8428 79.6367Z" fill="#1BB3BC"/>
<path fill-rule="evenodd" clip-rule="evenodd" d="M45.6969 85.0537H37.7713C37.4516 85.0537 37.2641 85.4106 37.4367 85.6817C38.3438 87.107 39.9278 88.0533 41.7341 88.0533C43.5407 88.0533 45.1243 87.107 46.0315 85.6817C46.204 85.4106 46.0165 85.0537 45.6969 85.0537Z" fill="#1BB3BC"/>
<path fill-rule="evenodd" clip-rule="evenodd" d="M41.7331 29.4424C30.9202 29.4424 22.1543 38.2682 22.1543 49.1554C22.1543 61.6963 31.7501 65.6104 32.9874 71.5507C33.1422 72.2935 33.8148 72.8112 34.5686 72.8112H48.8977C49.6514 72.8112 50.3238 72.2935 50.4785 71.5507C51.7158 65.6104 61.3116 61.6963 61.3116 49.1554C61.3116 38.2682 52.546 29.4424 41.7331 29.4424Z" fill="#F6C854"/>
<path fill-rule="evenodd" clip-rule="evenodd" d="M59.6157 65.0339C59.767 65.0506 59.9106 65.1002 60.0411 65.1821L72.4042 73.6062C73.1186 74.1335 72.4723 75.711 71.4296 75.0565L59.0664 66.6324C58.5215 66.2304 58.6386 66.0144 58.7053 65.7154C58.792 65.327 59.0576 65.052 59.5507 65.0317C59.5724 65.0324 59.5941 65.0332 59.6157 65.0339Z" fill="#F6C854"/>
<path fill-rule="evenodd" clip-rule="evenodd" d="M79.5121 46.955C80.1562 47.0188 80.1368 47.199 80.2578 47.4781C80.4853 48.0024 80.0922 48.6679 79.478 48.7044L65.8802 48.9737C65.6574 48.9693 65.5962 48.9411 65.4836 48.8861C64.8132 48.5587 64.9372 47.2769 65.846 47.2229L79.4439 46.9536C79.4668 46.9541 79.4891 46.9545 79.5121 46.955Z" fill="#F6C854"/>
<path fill-rule="evenodd" clip-rule="evenodd" d="M67.6391 19.2738C67.8525 19.301 67.913 19.3358 68.0209 19.404C68.4364 19.6667 68.5856 20.2103 68.2451 20.683L60.6023 30.5801C59.9819 31.3304 59.6608 31.0575 59.2754 30.6348C58.9997 30.3326 58.9799 29.8516 59.2294 29.5052L66.8721 19.6081C67.0627 19.3777 67.3322 19.2554 67.6391 19.2738Z" fill="#F6C854"/>
<path fill-rule="evenodd" clip-rule="evenodd" d="M22.5591 65.8675C22.9876 65.9143 23.038 66.033 23.154 66.1681C23.4688 66.5346 23.4642 67.0798 23.0167 67.4422L11.5794 76.0453C10.8469 76.5564 9.58394 75.4155 10.5386 74.6424L21.9758 66.0393C22.1356 65.9279 22.2309 65.8554 22.5591 65.8675Z" fill="#F6C854"/>
<path fill-rule="evenodd" clip-rule="evenodd" d="M14.9601 21.9718C15.1917 21.9905 15.4007 22.0902 15.5616 22.2587L22.781 30.2888C23.362 30.9756 22.321 32.3322 21.4917 31.4639L14.2722 23.4338C14.1328 23.269 14.1084 23.1957 14.0748 23.0649C13.9431 22.5505 14.2859 21.9963 14.9076 21.9707C14.9251 21.9711 14.9426 21.9714 14.9601 21.9718Z" fill="#F6C854"/>
<path fill-rule="evenodd" clip-rule="evenodd" d="M42.3009 11.0005C42.4997 11.0215 42.5311 11.0432 42.6139 11.0824C42.9086 11.2225 43.0971 11.5321 43.1121 11.8669L43.2087 24.5339C43.1945 25.014 43.0777 25.0429 42.9355 25.1778C42.4557 25.633 41.5033 25.2991 41.4696 24.5473L41.373 11.8809C41.379 11.6799 41.398 11.6463 41.4307 11.5601C41.563 11.2134 41.914 10.9885 42.3009 11.0005Z" fill="#F6C854"/>
<path fill-rule="evenodd" clip-rule="evenodd" d="M16.1925 48.0567C16.6442 48.0775 16.6796 48.1884 16.8058 48.3172C17.2804 48.8015 16.9392 49.7827 16.181 49.8077L2.67104 49.7173C2.02492 49.6875 2.035 49.5065 1.89942 49.2341C1.63459 48.702 2.05073 47.987 2.68259 47.9663C7.1859 47.9964 11.6892 48.0265 16.1925 48.0567Z" fill="#F6C854"/>
<path fill-rule="evenodd" clip-rule="evenodd" d="M86.8691 62.9819C86.8691 62.9819 82.456 60.2307 81.9097 60.744C81.3634 61.2569 83.2095 62.7295 83.2095 62.7295C83.2095 62.7295 77.8197 67.613 78.0123 68.3395C78.2049 69.0661 86.6549 65.6038 86.6549 65.6038L86.8691 62.9819Z" fill="#F4A48D"/>
<path fill-rule="evenodd" clip-rule="evenodd" d="M105.164 87.5709L104.787 112.448L109.636 143.895L113.451 144.063L115.356 114.938L122.081 86.2847L105.164 87.5709Z" fill="#444444"/>
<path fill-rule="evenodd" clip-rule="evenodd" d="M114.617 88.7996L118.313 113.355L127.191 143.667L130.992 143.305L129.16 114.252L131.125 85.0972L114.617 88.7996Z" fill="#444444"/>
<path fill-rule="evenodd" clip-rule="evenodd" d="M122.014 40.0236C124.863 38.8551 126.893 35.8434 126.893 32.3161C126.893 27.7758 123.529 24.0894 119.386 24.0894C116.107 24.0894 113.317 26.3977 112.295 29.6107L112.282 29.614L110.321 36.0249L110.501 36.1016L110.596 36.1417L111.755 36.3894L111.76 39.7565L111.816 39.9606C111.908 40.2435 112.035 40.5179 112.197 40.7758C112.386 41.0773 112.619 41.3528 112.884 41.5904C113.023 41.715 113.171 41.8279 113.327 41.9297C113.41 41.9846 113.493 42.0347 113.578 42.0821C113.645 42.1199 113.712 42.1551 113.78 42.1876L113.989 42.2889L113.323 49.7136C113.323 49.7136 116.745 50.5191 118.329 50.1953L118.541 50.1487L118.545 50.1478C120.057 49.8254 121.559 49.3181 122.829 47.7706C122.829 47.7706 122.825 47.7534 122.819 47.72L122.829 47.7083C122.829 47.7083 122.71 47.146 122.561 46.2276C122.335 44.7627 122.042 42.4322 122.014 40.0236Z" fill="#F4A48D"/>
<path fill-rule="evenodd" clip-rule="evenodd" d="M113.975 44.159C115.004 43.8587 117.176 42.6778 118.807 40.7568L114.152 42.3643C114.152 42.3643 114.063 43.2816 113.975 44.159ZM111.501 36.1827C111.921 36.3183 112.351 36.011 112.34 35.5838L112.267 32.8301L111.501 36.1827Z" fill="#A66555"/>
<path fill-rule="evenodd" clip-rule="evenodd" d="M121.963 40.5922L123.131 39.9421C124.529 39.1273 125.713 37.9126 126.489 36.363C128.614 32.1181 126.872 26.9657 122.599 24.8545C118.753 22.954 114.162 24.1677 111.738 27.5313L112.699 28.3056C112.917 28.2424 113.278 28.1412 113.72 28.0276C115.308 27.6112 117.943 27.0225 118.767 27.4226C119.975 28.0089 119.918 30.2165 119.735 31.968C119.556 33.6811 119.394 34.4251 120.175 34.7615C120.461 34.8848 120.638 33.4379 121.294 33.0031C121.988 32.5438 122.874 33.0114 122.744 34.5845C122.529 35.2993 122.364 36.0039 122.24 36.6919C122.033 37.9224 121.957 39.2646 121.963 40.5922Z" fill="#767676"/>
<path fill-rule="evenodd" clip-rule="evenodd" d="M126.998 142.876H130.96L131.125 146.816L126.357 147.229H122.871L123.52 145.402L124.225 144.945L126.998 142.876Z" fill="#1BB3BC"/>
<path fill-rule="evenodd" clip-rule="evenodd" d="M109.312 141.688L104.596 145.052L104.969 147.043L114.225 146.093L113.439 141.688H109.312Z" fill="#1BB3BC"/>
<path fill-rule="evenodd" clip-rule="evenodd" d="M108.035 52.0752C108.035 52.0752 107.278 65.9924 85.7855 62.1544L86.4863 66.0482C86.4863 66.0482 107.477 75.5987 117.299 53.281C117.396 53.0602 118.15 53.7235 118.15 53.7235C117.027 53.1896 111.062 53.7401 108.035 52.0752Z" fill="#767676"/>
<path fill-rule="evenodd" clip-rule="evenodd" d="M130.894 58.5766C132.502 67.9478 133.556 87.5915 132.884 93.2194C132.884 93.2194 114.139 96.8032 103.407 91.9707C103.407 91.9707 104.18 65.0442 108.037 52.1793C108.901 49.2966 111.383 47.1857 114.355 46.7945C114.876 46.7262 115.446 46.6717 116.07 46.6358C123.299 46.2229 129.664 51.4102 130.894 58.5766Z" fill="#767676"/>
<path fill-rule="evenodd" clip-rule="evenodd" d="M115.034 79.7573C109.113 84.602 91.3475 70.0686 91.3475 70.0686L92.8281 67.0875L108.742 71.5594L117.428 57.5599C117.428 57.5599 121.499 53.0884 125.57 55.3244C129.641 57.5599 127.421 62.0318 127.421 62.0318C127.421 62.0318 120.956 74.913 115.034 79.7573Z" fill="#767676"/>
<path fill-rule="evenodd" clip-rule="evenodd" d="M122.725 46.4248L107.295 67.0036L113.843 46.7174L122.725 46.4248Z" fill="#EAF7FE"/>
<path fill-rule="evenodd" clip-rule="evenodd" d="M124.047 48.5467L116.504 51.3015L114.763 47.8225L113.221 49.1455L112.649 46.851L114.149 45.5225C114.149 45.5225 115.155 47.1094 118.348 46.5118C121.438 45.9332 122.725 45.659 122.725 45.659L124.047 48.5467Z" fill="#EAF7FE"/>
<path fill-rule="evenodd" clip-rule="evenodd" d="M115.99 49.8759L114.253 51.4455L113.833 58.5827L107.285 66.9334L110.511 57.0939L113.467 51.3137L113.397 48.8244L114.859 47.5015L115.99 49.8759Z" fill="#2A8FEC"/>
<path fill-rule="evenodd" clip-rule="evenodd" d="M92.7109 67.3228C92.7109 67.3228 92.5926 65.2076 92.3034 64.5597C91.9626 63.7967 90.4922 61.4302 90.3597 62.1876C90.2277 62.9455 90.82 64.1296 90.82 64.1296C90.82 64.1296 87.1525 61.8734 86.2678 62.4983C85.3834 63.1228 88.2876 67.7938 89.0772 68.7602C89.8669 69.7266 91.4799 70.0923 91.4799 70.0923L92.7109 67.3228Z" fill="#F4A48D"/>
</svg>
