<svg width="160" height="160" viewBox="0 0 160 160" fill="none" xmlns="http://www.w3.org/2000/svg">
<path fill-rule="evenodd" clip-rule="evenodd" d="M75.6672 10.9282C57.168 26.1099 41.2881 22.8621 30.7173 21.6729C9.62509 19.2988 2.84216 39.7223 11.2402 54.4921C19.6387 69.2616 26.9654 87.389 9.34546 103.032C-8.27405 118.676 14.2695 154.612 43.3452 142.786C72.4204 130.958 105.902 130.592 121.687 140.82C137.472 151.047 169.749 123.388 141.858 98.8067C113.967 74.2259 130.751 62.2029 139.225 49.873C147.698 37.5427 142.88 15.9286 116.955 6.67653C116.955 6.67653 94.1667 -4.25319 75.6672 10.9282Z" fill="#EAF7FE"/>
<path fill-rule="evenodd" clip-rule="evenodd" d="M159.963 139.824C159.963 143.683 124.73 146.812 81.2685 146.812C37.8068 146.812 2.57422 143.683 2.57422 139.824C2.57422 135.964 37.8068 132.835 81.2685 132.835C124.73 132.835 159.963 135.964 159.963 139.824Z" fill="#CEDEE7"/>
<path d="M127.198 137.589C127.125 137.351 127.001 137.132 126.818 136.972C126.721 136.888 126.611 136.822 126.517 136.735C126.075 136.323 126.125 135.93 125.475 136.02C124.735 136.121 123.999 136.257 123.261 136.376C123.232 136.381 123.201 136.386 123.179 136.405C123.146 136.433 123.138 136.481 123.133 136.525C123.103 136.781 123.072 137.036 123.042 137.292C122.959 137.982 122.341 138.184 121.834 138.457C121.703 138.528 121.568 138.598 121.431 138.671C120.856 138.976 119.112 139.654 119.973 140.555C120.328 140.927 120.944 140.927 121.418 140.975C121.875 141.021 122.336 140.912 122.787 140.849C124.233 140.575 125.567 140.147 126.876 139.449C127.345 139.199 127.315 138.491 127.273 137.988C127.262 137.854 127.237 137.719 127.198 137.589Z" fill="black"/>
<path d="M112.264 137.441C112.24 137.327 112.201 137.222 112.143 137.134C112.069 137.02 111.965 136.93 111.894 136.814C111.714 136.516 111.78 136.094 111.558 135.828C111.244 135.452 110.713 135.623 110.309 135.649C109.689 135.689 109.057 135.659 108.435 135.664C108.406 135.664 108.375 135.665 108.349 135.68C108.313 135.703 108.299 135.749 108.287 135.792C108.221 136.04 108.155 136.288 108.089 136.536C107.91 137.207 107.27 137.313 106.73 137.507C106.591 137.556 106.447 137.606 106.301 137.657C105.827 137.823 105.144 137.954 104.77 138.319C103.925 139.148 105.409 139.791 105.964 139.934C106.41 140.05 106.881 140.011 107.336 140.017C108.805 139.965 110.185 139.744 111.579 139.251C111.717 139.202 111.86 139.15 111.964 139.044C112.058 138.948 112.11 138.817 112.15 138.686C112.251 138.358 112.349 137.841 112.264 137.441Z" fill="black"/>
<path d="M116.089 92.5721L115.073 101.98L112.212 136.537L107.664 136.296L105.814 117.528L105.27 101.608L107.006 91.4541L116.089 92.5721Z" fill="#CCCCCC"/>
<path d="M125.129 92.6841L126.604 98.457L124.969 114.908L126.89 136.795L122.57 137.161L116.965 116.224L112.543 93.3162L125.129 92.6841Z" fill="#CCCCCC"/>
<path fill-rule="evenodd" clip-rule="evenodd" d="M129.464 90.6485C129.383 87.7406 129.105 84.8155 128.71 81.882C128.354 79.2334 127.901 76.5774 127.411 73.9092C126.643 69.7246 125.944 66.0376 124.404 62.058C123.856 60.6447 123.295 59.2062 122.35 58.0293C121.48 56.945 120.182 56.2004 118.878 55.7639C118.27 55.56 117.584 55.386 116.975 55.2479C116.285 55.0916 115.938 55.4033 115.277 55.6863C114.833 55.8765 114.312 55.9273 113.852 56.0885C111.117 57.0471 109.556 58.9774 108.63 61.7174C107.886 63.9223 107.141 66.127 106.397 68.3317C105.785 70.1422 105.174 71.9534 104.644 73.7901C103.256 78.5983 102.436 83.553 101.833 88.5198C101.531 91.0097 101.284 93.5063 101.046 96.0034C100.894 97.5994 101.705 96.9279 102.663 96.4404C104.315 95.6001 105.955 94.7138 107.808 94.4104C108.707 94.2631 109.623 94.2559 110.535 94.2688C116.078 94.348 121.641 95.1727 126.847 97.0778C127.157 97.1909 127.471 97.3115 127.724 97.5232C128.061 97.8055 128.518 98.4474 129.005 98.1119C129.308 97.9034 129.381 97.192 129.436 96.8716C129.659 95.5863 129.615 94.2412 129.572 92.943C129.536 91.869 129.473 90.97 129.464 90.6485Z" fill="#1BB3BC"/>
<path d="M100.423 73.9076C99.5126 75.572 98.4189 77.4313 98.0871 79.3248C97.8894 80.4542 98.6239 81.5332 99.5405 82.1221C100.691 82.8612 101.931 82.6631 103.241 82.6089C104.038 82.5759 112.488 82.1209 112.487 81.7478C112.486 80.1393 112.485 78.5311 112.483 76.9226C110.35 76.5035 108.197 76.1899 106.035 75.9834C107.652 73.5676 116.821 59.2371 112.555 57.6117C108.494 56.0639 102.017 70.9927 100.423 73.9076Z" fill="#1BB3BC"/>
<path fill-rule="evenodd" clip-rule="evenodd" d="M119.256 45.7288C120.825 44.5763 121.844 42.7185 121.844 40.6248C121.844 37.1313 119.007 34.2949 115.514 34.2949C112.288 34.2949 109.623 36.7131 109.233 39.8339C109.165 40.1591 109.115 40.4878 109.081 40.8165L109.081 40.817L109.08 40.8243L109.08 40.8268C109.07 40.9251 109.061 41.0234 109.054 41.1215L108.618 46.006L109.61 46.3381L109.62 46.3404L109.62 46.3405C109.645 46.4255 109.659 46.4716 109.659 46.4716L109.686 47.1323L109.734 48.3673C109.751 48.7759 109.837 49.1764 109.986 49.5529C110.09 49.8186 110.227 50.0732 110.395 50.3094C110.592 50.5866 110.828 50.8354 111.09 51.0454C111.227 51.1556 111.373 51.254 111.525 51.3416C111.606 51.3881 111.686 51.4308 111.769 51.4709L111.77 51.4712L111.344 59.1863C111.344 59.1863 113.596 59.8649 116.062 59.3265C117.553 59.0037 119.123 58.2331 120.321 56.6019C120.321 56.6019 118.903 50.4558 119.256 45.7288Z" fill="#FFC4B8"/>
<path fill-rule="evenodd" clip-rule="evenodd" d="M116.038 59.2352C117.528 58.9124 119.099 58.1418 120.297 56.5106C120.297 56.5106 118.763 49.925 119.283 45.139C119.283 45.139 115.794 53.645 116.038 59.2352ZM109.61 46.3658C109.957 46.4676 110.299 46.1948 110.276 45.8339L110.13 43.5073L109.61 46.3658Z" fill="#F4A48D"/>
<path fill-rule="evenodd" clip-rule="evenodd" d="M117.562 34.7099C114.78 34.6123 115.122 32.2227 115.122 32.2227C112.144 32.3203 110.875 33.4419 110.875 33.4419C108.483 35.3435 109.431 39.1586 109.431 39.1586C109.796 36.2797 114.206 37.5071 115.932 37.7961C116.638 38.4879 116.365 40.1765 116.723 41.5997C116.729 41.6254 117.497 43.5517 117.497 43.5517L117.498 43.554L117.541 43.7541C117.553 43.7214 117.567 43.6886 117.581 43.6559C118.045 42.5574 118.99 41.9076 119.691 42.2031C120.393 42.499 120.586 43.629 120.121 44.7275C119.96 45.1102 119.551 45.4384 119.304 45.6912C119.111 47.3041 119.147 48.8022 119.283 50.0884L120.003 50.1195L122.591 37.8309C122.783 36.1859 122.05 35.4351 120.876 35.0753C119.962 34.7951 118.781 34.7526 117.562 34.7099Z" fill="black"/>
<path fill-rule="evenodd" clip-rule="evenodd" d="M152.604 101.976C152.594 101.999 152.586 102.023 152.578 102.048C152.563 102.07 152.548 102.092 152.535 102.114L152.514 102.149L152.509 102.158L152.455 102.212C152.436 102.231 152.414 102.253 152.417 102.245C152.41 102.244 152.41 102.246 152.405 102.254C152.382 102.265 152.359 102.277 152.336 102.291C152.285 102.311 152.232 102.338 152.167 102.348C151.917 102.412 151.591 102.37 151.364 102.256C151.25 102.199 151.161 102.127 151.1 102.053C151.08 102.013 151.049 101.976 151.038 101.931L151.03 101.915L151.026 101.908L151.024 101.904C151.022 101.897 151.034 101.957 151.028 101.927L151.013 101.85L150.997 101.773L150.997 101.746C150.989 101.719 150.993 101.653 150.998 101.622C151.003 101.584 151.013 101.555 151.031 101.523C151.067 101.462 151.145 101.383 151.271 101.318C151.526 101.186 151.889 101.113 152.247 101.083C152.325 101.077 152.405 101.078 152.484 101.075C152.513 101.137 152.539 101.199 152.56 101.261C152.655 101.536 152.68 101.795 152.604 101.976ZM157.688 105.142C157.691 104.995 157.68 104.826 157.662 104.637C157.626 104.26 157.556 103.797 157.368 103.29C157.185 102.786 156.898 102.227 156.434 101.725C155.97 101.222 155.363 100.779 154.598 100.5C154.512 100.47 154.425 100.441 154.338 100.411L154.272 100.388L154.239 100.377L154.185 100.361L154.038 100.323C153.991 100.311 153.943 100.304 153.896 100.294C153.773 99.9885 153.618 99.7047 153.43 99.4457C153.279 99.2406 153.119 99.0433 152.92 98.8689C152.836 98.784 152.695 98.6799 152.572 98.5901C152.536 98.5637 152.515 98.5503 152.495 98.5382L152.432 98.4987L152.368 98.4591L152.353 98.4495L152.292 98.4151L152.248 98.3939C151.31 97.9379 150.365 97.9053 149.545 98.0182C148.718 98.1313 147.989 98.4124 147.37 98.7569C147.058 98.9241 146.78 99.125 146.531 99.3323C146.283 99.5398 146.059 99.7533 145.881 99.9834C145.512 100.431 145.291 100.901 145.185 101.297C145.076 101.695 145.074 102.015 145.088 102.233C145.109 102.438 145.132 102.543 145.132 102.543L145.299 102.551C145.299 102.551 145.328 102.448 145.382 102.254C145.444 102.08 145.547 101.82 145.735 101.538C145.926 101.258 146.194 100.952 146.568 100.681C146.933 100.403 147.403 100.163 147.934 99.9721C148.467 99.7864 149.075 99.663 149.698 99.6367C150.319 99.6157 150.966 99.7043 151.463 99.9521C151.548 99.9923 151.639 100.053 151.731 100.126C151.441 100.152 151.142 100.206 150.823 100.332C150.578 100.434 150.308 100.6 150.104 100.877C150.003 101.014 149.925 101.175 149.882 101.338C149.838 101.508 149.819 101.653 149.828 101.833C149.833 102.088 149.909 102.434 150.082 102.713C150.257 102.988 150.494 103.197 150.745 103.349C150.998 103.504 151.268 103.592 151.543 103.648C151.82 103.704 152.105 103.712 152.397 103.668C152.542 103.652 152.691 103.609 152.838 103.559L153.059 103.465C153.144 103.418 153.232 103.361 153.314 103.303C153.364 103.269 153.379 103.254 153.399 103.238L153.459 103.186L153.489 103.161L153.497 103.154C153.461 103.19 153.555 103.098 153.549 103.103L153.568 103.08L153.643 102.989L153.791 102.802L153.908 102.593C153.992 102.453 154.029 102.3 154.08 102.149C154.112 102 154.144 101.844 154.15 101.697C154.156 101.55 154.161 101.4 154.142 101.262C154.14 101.241 154.137 101.221 154.134 101.201C154.215 101.22 154.295 101.24 154.375 101.259C155 101.422 155.577 101.753 156.01 102.145C156.452 102.539 156.757 103.011 156.969 103.455C157.183 103.902 157.292 104.328 157.369 104.681C157.406 104.858 157.434 105.018 157.448 105.159C157.466 105.299 157.48 105.419 157.482 105.516C157.493 105.712 157.5 105.817 157.5 105.817L157.667 105.822C157.667 105.822 157.673 105.715 157.684 105.514C157.692 105.413 157.692 105.289 157.688 105.142Z" fill="#FFC4B8"/>
<path fill-rule="evenodd" clip-rule="evenodd" d="M108.93 141.046C108.93 141.046 100.409 144.621 93.8125 141.046V120.515H108.93V141.046Z" fill="#FFC4B8"/>
<path fill-rule="evenodd" clip-rule="evenodd" d="M106.327 120.515L99.6351 134.368L106.456 137.547V138.848C106.456 138.848 99.8592 141.593 93.8125 139.865L93.8639 143.562C100.46 147.136 108.988 142.417 108.988 142.417L108.929 120.515H106.327Z" fill="#FFC4B8"/>
<path fill-rule="evenodd" clip-rule="evenodd" d="M93.8125 141.31C93.8125 141.31 94.1974 137.717 95.2442 142.276C95.2442 142.276 96.3093 139.439 96.8214 141.962C96.8214 141.962 97.0392 142.835 96.8997 143.589C96.8997 143.589 94.9119 143.253 93.8125 142.42V141.31Z" fill="#444444"/>
<path fill-rule="evenodd" clip-rule="evenodd" d="M139.712 141.046C139.712 141.046 131.192 144.621 124.32 141.046V120.515H139.712V141.046Z" fill="#FFC4B8"/>
<path fill-rule="evenodd" clip-rule="evenodd" d="M127.344 136.029L131.307 133.623L127.381 120.515H124.32C124.329 130.511 124.335 137.735 124.339 142.188C124.34 142.603 124.34 142.679 124.339 142.417C131.211 145.991 139.711 143.787 139.711 143.787L139.712 138.87C136.414 139.592 131.741 140.118 127.344 137.906V136.029Z" fill="#FFC4B8"/>
<path fill-rule="evenodd" clip-rule="evenodd" d="M124.32 141.31C124.32 141.31 124.813 137.717 125.86 142.276C125.86 142.276 126.979 139.439 127.491 141.962C127.491 141.962 127.628 142.835 127.488 143.589C127.488 143.589 125.695 143.253 124.32 142.42V141.31Z" fill="#444444"/>
<path fill-rule="evenodd" clip-rule="evenodd" d="M80.8238 102.156L73.4434 101.863C69.9839 112.59 75.2981 121.178 75.2981 121.178L77.3838 120.807C77.3834 120.807 80.4884 123.813 84.9472 123.387C91.0048 131.541 101.934 136.984 114.411 136.984C133.462 136.984 148.907 124.294 148.907 108.641C148.907 92.9878 133.462 80.2983 114.411 80.2983C98.0756 80.2983 84.393 89.6283 80.8238 102.156Z" fill="#FFC4B8"/>
<path fill-rule="evenodd" clip-rule="evenodd" d="M135.129 85.978C140.196 90.9115 143.251 97.2844 143.251 104.245C143.251 119.898 127.807 132.588 108.756 132.588C100.981 132.588 93.8076 130.474 88.0391 126.908C94.3667 133.069 103.832 136.984 114.412 136.984C133.464 136.984 148.908 124.294 148.908 108.641C148.908 99.3762 143.496 91.1499 135.129 85.978Z" fill="#F4A48D"/>
<path fill-rule="evenodd" clip-rule="evenodd" d="M97.9492 83.7285C97.9492 83.7285 112.917 76.3139 128.972 82.9416C128.972 82.9416 103.166 77.926 103.207 87.6387L97.9492 83.7285Z" fill="#F4A48D"/>
<path fill-rule="evenodd" clip-rule="evenodd" d="M75.9268 118.351C75.9268 118.351 71.771 111.627 73.2089 102.647C70.246 113.005 75.2983 121.177 75.2983 121.177L81.9717 119.699L85.2052 118.306L75.9268 118.351Z" fill="#F4A48D"/>
<path fill-rule="evenodd" clip-rule="evenodd" d="M80.5175 121.178C80.5175 121.178 83.7172 120.006 85.8832 118.457C87.9874 116.952 85.5848 118.365 85.5848 118.365L77.3828 120.807C77.3828 120.807 82.8566 126.106 89.7053 121.633C84.0787 123.6 80.5175 121.178 80.5175 121.178Z" fill="#F4A48D"/>
<path fill-rule="evenodd" clip-rule="evenodd" d="M92.6914 72.2837C92.6914 72.2837 102.961 73.3731 103.208 87.6387L92.7558 91.4669L92.6914 72.2837Z" fill="#FFC4B8"/>
<path fill-rule="evenodd" clip-rule="evenodd" d="M75.2969 121.177C75.2969 121.177 75.3536 121.162 75.4602 121.133C75.5672 121.108 75.7211 121.055 75.9177 121.004C76.1143 120.952 76.3504 120.879 76.6222 120.797C76.8931 120.713 77.2004 120.631 77.5322 120.526C77.8633 120.419 78.2217 120.303 78.6027 120.192C78.9851 120.087 79.3771 119.931 79.7914 119.806C80.2033 119.673 80.6291 119.535 81.0618 119.396C81.4915 119.247 81.9284 119.096 82.3652 118.945C82.8026 118.796 83.2465 118.666 83.6718 118.503C84.0985 118.344 84.5249 118.205 84.9344 118.06C85.3432 117.915 85.7443 117.788 86.124 117.666C86.4963 117.524 86.8526 117.399 87.1822 117.286C87.84 117.056 88.3977 116.881 88.79 116.762C89.1824 116.643 89.4113 116.584 89.4113 116.584C89.4113 116.584 89.2132 116.71 88.8582 116.914C88.5034 117.118 87.9931 117.406 87.3699 117.729C87.0589 117.892 86.7214 118.068 86.3598 118.244C85.9928 118.408 85.606 118.582 85.2 118.748C84.7946 118.916 84.3791 119.098 83.95 119.266C83.5263 119.448 83.0764 119.583 82.6341 119.737C82.1882 119.881 81.7424 120.025 81.3035 120.166C80.8638 120.306 80.4168 120.399 79.9927 120.513C79.5663 120.621 79.1561 120.728 78.7569 120.796C78.3609 120.873 77.9842 120.936 77.6372 120.993C77.2912 121.055 76.9662 121.078 76.6825 121.11C76.3991 121.145 76.1491 121.161 75.9422 121.168C75.5309 121.189 75.2969 121.177 75.2969 121.177Z" fill="#444444"/>
<path fill-rule="evenodd" clip-rule="evenodd" d="M92.6914 72.2837L92.7397 86.5917L95.918 90.3087C96.3557 84.1109 95.3822 77.9068 92.734 72.2892C92.7071 72.2857 92.6914 72.2837 92.6914 72.2837Z" fill="#F4A48D"/>
<path fill-rule="evenodd" clip-rule="evenodd" d="M93.9962 88.0604L95.9189 90.3089C96.2813 85.1794 95.6734 80.047 93.9531 75.2451L93.9962 88.0604Z" fill="#A66555"/>
<path fill-rule="evenodd" clip-rule="evenodd" d="M129.002 84.013L124.337 82.2446C119.271 81.3481 114.483 80.9729 109.524 82.1809L110.67 83.326L129.002 84.013Z" fill="#A66555"/>
<path fill-rule="evenodd" clip-rule="evenodd" d="M90.8069 98.8593C90.8069 99.7072 90.1191 100.395 89.2706 100.395C88.4225 100.395 87.7344 99.7072 87.7344 98.8593C87.7344 98.0118 88.4225 97.3242 89.2706 97.3242C90.1191 97.3242 90.8069 98.0118 90.8069 98.8593Z" fill="#444444"/>
<path d="M114.965 77.8299C115.075 77.7875 115.156 77.6964 115.244 77.6179C115.768 77.1473 116.573 77.1079 117.239 77.3374C117.789 77.5269 118.43 77.8985 118.834 78.3239C119.247 78.7589 119.257 79.5979 119.32 80.1893C119.337 80.3451 119.35 80.5084 119.29 80.6531C119.251 80.7467 119.184 80.8256 119.119 80.9031C119.017 81.0231 118.914 81.1432 118.813 81.2633C118.261 81.9123 117.227 81.6815 116.46 81.6922C116.123 81.6966 115.711 81.6551 115.575 81.347C115.465 81.0982 115.581 80.7443 115.364 80.5812C115.264 80.5065 115.129 80.5062 115.004 80.5093C113.685 80.5404 111.849 80.538 110.53 80.5689C110.507 79.8384 110.623 77.887 111.303 77.6289C111.52 77.5464 112.498 77.7483 112.77 77.7507C113.387 77.7558 114.005 77.7886 114.62 77.8489C114.736 77.8603 114.857 77.8721 114.965 77.8299Z" fill="#FFC4B8"/>
<path d="M81.2271 71.9939L6.17086 56.0403C4.03295 55.5858 2.67073 53.4735 3.12795 51.3225L12.5121 7.17352C12.9693 5.02244 15.0728 3.64764 17.2107 4.10207L92.2669 20.0558C94.4048 20.5102 95.7672 22.6217 95.3099 24.7727L85.9258 68.9217C85.4686 71.0728 83.365 72.4484 81.2271 71.9939Z" fill="#2A8FEC"/>
<path fill-rule="evenodd" clip-rule="evenodd" d="M21.4479 28.1009L16.7382 27.0999C15.8926 26.9201 15.0604 27.4643 14.8795 28.3154L13.872 33.0554C13.6911 33.9065 14.2299 34.7421 15.0756 34.9219L19.7853 35.923C20.6309 36.1027 21.4631 35.5585 21.644 34.7074L22.6515 29.9674C22.8324 29.1163 22.2935 28.2807 21.4479 28.1009Z" fill="#CEDEE7"/>
<path fill-rule="evenodd" clip-rule="evenodd" d="M66.1549 52.6542L82.1118 56.046L81.6052 58.4294L65.6483 55.0376L66.1549 52.6542ZM48.1119 48.8193L64.0688 52.211L63.5622 54.5944L47.6053 51.2027L48.1119 48.8193ZM30.0689 44.9838L46.0259 48.3756L45.5192 50.759L29.5623 47.3672L30.0689 44.9838ZM11.9205 41.1269L27.8774 44.5186L27.3708 46.902L11.4139 43.5103L11.9205 41.1269ZM18.4341 49.714L24.5874 51.0219L23.9266 54.1307L17.7733 52.8228L18.4341 49.714ZM10.5083 48.0289L16.6616 49.3369L16.0008 52.4457L9.84748 51.1377L10.5083 48.0289Z" fill="#2274C0"/>
<path fill-rule="evenodd" clip-rule="evenodd" d="M82.6601 29.1183C82.8732 28.453 82.8787 27.7262 82.6542 27.0414L82.3538 26.1244L81.1517 22.4561C81.0373 22.1064 80.9828 21.7458 80.985 21.388L80.8513 21.5391C80.0602 22.4336 79.8017 23.6836 80.1734 24.8182L80.1734 24.8191L81.4208 28.6252C81.4194 28.6247 81.418 28.6242 81.4166 28.6239C81.7256 29.7216 81.4574 30.9082 80.6978 31.7672L80.564 31.9183C80.5663 31.5605 80.5118 31.1999 80.3974 30.8502L80.5099 31.194L79.4958 28.0988L78.5671 25.265L78.5943 25.3477C78.4797 24.9979 78.4251 24.6373 78.4274 24.2795L78.2937 24.4307C77.5026 25.3251 77.2442 26.5751 77.6157 27.71L77.616 27.7106L77.6551 27.83L78.5174 30.4618L78.5176 30.462L78.8181 31.3788C79.1899 32.5139 78.9315 33.7641 78.1402 34.6587L78.0066 34.8101C78.0089 34.4521 77.9542 34.0915 77.8397 33.7417L77.9525 34.0856L76.3373 29.1564L76.337 29.1557C76.1896 28.7057 76.1418 28.2377 76.1865 27.7809C73.2553 27.84 71.0053 28.8756 70.6595 30.5485C70.1916 32.8128 73.3892 35.3873 77.8014 36.2988C82.2136 37.2101 86.1696 36.1134 86.6375 33.8491C86.9832 32.1761 85.3278 30.334 82.6601 29.1183Z" fill="white"/>
<path fill-rule="evenodd" clip-rule="evenodd" d="M39.2689 63.582L34.1292 65.6064L25.7264 72.5688L21.8848 60.0845L17.2031 60.9248L20.2044 76.17L25.126 80.6118L39.2911 72.8089L39.2689 63.582Z" fill="#34466B"/>
<path fill-rule="evenodd" clip-rule="evenodd" d="M67.1602 71.4894L69.1428 69.5376L72.2693 69.6116L72.626 71.1972L67.9017 73.2381L67.1602 71.4894Z" fill="#FFC4B8"/>
<path fill-rule="evenodd" clip-rule="evenodd" d="M34.4871 99.7287L34.0742 103.809L37.7287 117.827L34.3353 140.353L36.8331 141.215L43.4196 119.223L44.4649 112.825L44.4267 99.2808L34.4871 99.7287Z" fill="#FFC4B8"/>
<path fill-rule="evenodd" clip-rule="evenodd" d="M53.6994 104.276L48.4456 142.022H46.0574L45.6276 117.827L41.2812 100.845L53.6994 104.276Z" fill="#FFC4B8"/>
<path fill-rule="evenodd" clip-rule="evenodd" d="M34.6201 94.7233C36.6598 80.992 35.9312 70.9923 36.037 68.2464C36.1428 65.5007 38.0239 64.0758 38.0239 64.0758C38.8503 63.8869 39.5688 63.3423 40.4025 63.1274C46.0417 61.674 49.1178 66.0851 51.2286 70.8431C53.8296 76.7053 56.0149 82.7628 57.7814 88.9424C59.3319 94.3659 60.8857 99.8381 61.5361 105.467C61.9697 109.219 61.3064 111.069 59.5461 111.016C53.9466 112.08 49.7544 112.787 46.9694 113.136C42.1709 113.738 37.3658 114.177 32.5357 114.383C30.0141 114.49 32.5805 108.454 34.6201 94.7233Z" fill="#34466B"/>
<path fill-rule="evenodd" clip-rule="evenodd" d="M18.1183 60.761L16.0039 58.6443L16.7243 54.9229H18.7649L19.365 58.164L20.4009 58.7864V60.3512L18.1183 60.761Z" fill="#FFC4B8"/>
<path fill-rule="evenodd" clip-rule="evenodd" d="M43.1328 62.8457L48.5348 63.8059L58.285 73.2383L67.0253 70.1703L69.8355 73.7534L58.1382 80.6121L45.7738 72.6892L43.1328 62.8457Z" fill="#34466B"/>
<path fill-rule="evenodd" clip-rule="evenodd" d="M37.4452 59.0466C35.7002 58.1646 34.42 56.4251 34.1984 54.3164C33.8539 51.0389 36.196 48.1024 39.4253 47.763C42.5681 47.4326 45.4005 49.6832 45.8673 52.8252C45.9118 53.0152 45.9449 53.2101 45.9658 53.4093L45.9659 53.4099C45.9826 53.5693 45.9912 53.7277 45.9919 53.8846L46.2666 58.9058L44.1722 60.0594L44.577 63.9108C42.6378 65.6428 40.5484 65.8112 38.3221 64.556L37.4452 59.0466Z" fill="#FFC4B8"/>
<path fill-rule="evenodd" clip-rule="evenodd" d="M44.0321 60.0453C44.0321 60.0453 37.789 60.8713 37.4067 58.9613L37.673 60.5173C37.673 60.5173 37.9094 61.5808 44.0321 60.0453ZM45.6292 57.5878L44.6282 55.154L44.4416 56.8199C44.3783 57.3844 45.0142 57.7955 45.6292 57.5878Z" fill="#F4A48D"/>
<path fill-rule="evenodd" clip-rule="evenodd" d="M36.094 65.1987C33.9487 64.6628 32.2746 62.8079 32.0273 60.4363C31.8645 58.8772 32.3598 57.4041 33.2853 56.304C33.4285 56.1335 33.481 55.9042 33.4281 55.6857L33.4308 55.6874L33.4273 55.6819L33.4145 55.6281C33.3852 55.5024 33.3595 55.3765 33.337 55.2509C33.331 55.2167 33.3252 55.1829 33.3197 55.149C32.8911 52.4509 34.1106 49.6568 36.5725 48.2505C36.9797 48.018 37.4008 47.8349 37.8294 47.6991C37.8708 47.6742 37.9125 47.6497 37.9546 47.6257C39.3773 46.8132 40.9712 46.6026 42.4584 46.9127C43.0509 47.0355 43.6258 47.2414 44.1663 47.5244C44.1319 48.0011 44.0555 48.4678 43.9405 48.9199C44.5664 49.4403 45.1094 50.0869 45.5296 50.8483C45.8092 51.3552 46.0179 51.8829 46.1588 52.4191L44.0806 50.2483L43.6335 49.8722C42.7193 52.196 40.7452 54.0035 38.2564 54.6073C38.3221 54.9915 38.3679 55.3986 38.3768 55.8101C38.0433 55.494 37.6533 55.3744 37.3968 55.5448C37.0852 55.7519 37.0795 56.3152 37.3658 56.8493L37.3746 56.8656L37.3836 56.8818L37.3857 56.8855L37.3928 56.898L37.3956 56.903L37.4026 56.9151L37.4051 56.9193L37.4145 56.9352L37.4162 56.9379L37.4242 56.9512L37.4273 56.9562L37.4345 56.9677L37.4374 56.9725L37.4475 56.9883L37.456 57.0015L37.4588 57.0058L37.4646 57.0145L37.4679 57.0196L37.4732 57.0274L37.4768 57.0328L37.4819 57.0403L37.4857 57.0457L37.4908 57.0531L37.4945 57.0585L37.4997 57.0659L37.5034 57.0711L37.5088 57.0786L37.5124 57.0836L37.5182 57.0916L37.5214 57.0959L37.5304 57.1082L37.5395 57.1203L37.5487 57.1323L37.5523 57.1369L37.558 57.1443L37.5618 57.1491L37.5673 57.1561L37.5713 57.1611L37.5767 57.1679L37.5807 57.1728L37.5902 57.1844L37.5958 57.1912L37.5997 57.1959L37.6057 57.203L37.6093 57.2072L37.6189 57.2184L37.6285 57.2294L37.6382 57.2404L37.6418 57.2444L37.6479 57.2513L37.6577 57.262L37.6676 57.2727L37.6718 57.2772L37.6818 57.2877L37.6876 57.2938L37.6917 57.298L37.6979 57.3043L37.7017 57.3083L37.7117 57.3184L37.7218 57.3283L37.7319 57.3382L37.7355 57.3416L37.742 57.3479L37.7461 57.3518L37.7522 57.3575L37.7565 57.3615L37.7625 57.3671L37.7668 57.3711L37.7728 57.3765L37.7771 57.3805L37.7832 57.3858L37.7875 57.3897L37.7937 57.3952L37.7978 57.3987L37.8081 57.4077L37.8185 57.4165L37.8289 57.4252L37.8393 57.4337L37.8434 57.4371L37.8497 57.4422L37.8541 57.4457L37.8602 57.4505L37.8647 57.454L37.8708 57.4587L37.8753 57.4622L37.8814 57.4669L37.8858 57.4702L37.8921 57.4749L37.8964 57.4781L37.9032 57.4831L37.9069 57.4858L37.9175 57.4934L37.9281 57.5009L37.9387 57.5082L37.9493 57.5155L37.9537 57.5184L37.96 57.5225L37.9645 57.5255L37.9707 57.5295L37.9814 57.5364L37.9859 57.5392L37.9922 57.5432L37.9966 57.5458L38.0072 57.5523L38.0179 57.5587L38.0286 57.5649L38.0393 57.5709L38.0499 57.5769L38.0541 57.5792L38.0606 57.5827L38.065 57.585L38.0714 57.5883L38.0758 57.5906L38.0822 57.5939L38.0865 57.5961L38.093 57.5994L38.0972 57.6015L38.1079 57.6066L38.1157 57.6103C38.3082 57.7005 38.4973 57.7209 38.6512 57.656C39.7478 58.801 41.3671 60.8114 40.7856 62.2003C40.7848 62.2023 40.7839 62.2043 40.783 62.2063C40.663 62.49 40.3679 62.6464 40.0742 62.601L40.073 62.6072L38.5226 62.1465C38.2676 62.0705 38.1622 62.0595 37.9674 62.0162C37.8658 62.254 37.7811 62.3923 37.658 62.6242C37.1415 63.5976 36.5367 64.5401 36.094 65.1987Z" fill="black"/>
<path d="M44.2235 61.1111C44.2235 61.1111 45.0347 61.1818 45.1214 61.1855C47.8638 61.3045 50.4105 62.5584 50.8968 65.3166C51.0197 66.0137 50.2052 67.298 48.8945 66.8236C47.6521 66.3739 47.2575 64.667 45.5165 64.135C45.122 64.0144 44.7215 63.9392 44.3378 63.8886L44.3165 62.3245C44.2434 61.5823 44.2124 61.1778 44.2235 61.1111Z" fill="black"/>
<path d="M45.1235 77.7344L37.9961 64.1406L40.1576 63.381L41.717 62.9229L44.4662 63.1087L45.1235 77.7344Z" fill="#EAF7FE"/>
<path fill-rule="evenodd" clip-rule="evenodd" d="M48.5299 140.834L45.734 140.929L45.4219 143.247L45.4799 143.256L45.4658 143.26L49.396 144.899L51.1598 144.883L51.132 142.972L50.6191 142.699L48.5299 140.834Z" fill="black"/>
<path fill-rule="evenodd" clip-rule="evenodd" d="M37.413 139.639L40.6406 142.066L40.2625 143.943L33.4682 142.872L34.3648 139.639H37.413Z" fill="black"/>
</svg>
