<svg width="162" height="160" viewBox="0 0 162 160" fill="none" xmlns="http://www.w3.org/2000/svg">
<path fill-rule="evenodd" clip-rule="evenodd" d="M76.7767 11.3168C58.2152 26.5497 42.2818 23.2909 31.6754 22.0977C10.5121 19.7156 3.7063 40.208 12.1327 55.0275C20.5594 69.8468 27.9108 88.0353 10.2315 103.731C-7.44737 119.427 15.1722 155.485 44.3458 143.619C73.519 131.752 107.113 131.384 122.952 141.646C138.79 151.908 171.175 124.155 143.191 99.4915C115.206 74.8278 132.047 62.7643 140.548 50.3929C149.05 38.021 144.216 16.3341 118.204 7.05079C118.204 7.05079 95.3386 -3.91576 76.7767 11.3168Z" fill="#EAF7FE"/>
<path fill-rule="evenodd" clip-rule="evenodd" d="M161.356 140.647C161.356 144.519 126.005 147.658 82.397 147.658C38.7888 147.658 3.4375 144.519 3.4375 140.647C3.4375 136.774 38.7888 133.634 82.397 133.634C126.005 133.634 161.356 136.774 161.356 140.647Z" fill="#CEDEE7"/>
<path d="M128.481 138.405C128.407 138.166 128.284 137.946 128.1 137.786C128.003 137.701 127.892 137.635 127.797 137.547C127.354 137.134 127.404 136.74 126.752 136.83C126.01 136.932 125.271 137.068 124.531 137.187C124.502 137.192 124.471 137.197 124.448 137.217C124.415 137.245 124.407 137.293 124.402 137.337C124.372 137.593 124.341 137.85 124.311 138.106C124.228 138.799 123.607 139.002 123.098 139.276C122.968 139.346 122.832 139.417 122.694 139.49C122.117 139.796 120.368 140.477 121.231 141.38C121.588 141.754 122.206 141.753 122.681 141.801C123.14 141.848 123.602 141.738 124.055 141.675C125.506 141.401 126.844 140.971 128.158 140.271C128.629 140.019 128.598 139.309 128.556 138.805C128.545 138.67 128.52 138.535 128.481 138.405Z" fill="black"/>
<path d="M113.493 138.255C113.469 138.141 113.43 138.036 113.372 137.947C113.297 137.833 113.193 137.743 113.122 137.626C112.941 137.327 113.008 136.904 112.785 136.637C112.47 136.26 111.937 136.431 111.532 136.457C110.91 136.498 110.275 136.467 109.652 136.472C109.622 136.472 109.591 136.473 109.565 136.489C109.529 136.511 109.514 136.558 109.503 136.601C109.437 136.85 109.371 137.099 109.304 137.348C109.125 138.021 108.482 138.127 107.94 138.321C107.801 138.371 107.657 138.421 107.51 138.472C107.035 138.639 106.349 138.77 105.974 139.137C105.126 139.968 106.615 140.613 107.172 140.757C107.619 140.873 108.092 140.834 108.548 140.84C110.023 140.788 111.408 140.566 112.806 140.071C112.944 140.023 113.088 139.97 113.192 139.864C113.286 139.767 113.339 139.636 113.379 139.505C113.481 139.176 113.578 138.657 113.493 138.255Z" fill="black"/>
<path d="M117.333 93.236L116.314 102.676L113.442 137.349L108.879 137.108L107.022 118.276L106.477 102.302L108.219 92.1143L117.333 93.236Z" fill="#CCCCCC"/>
<path d="M126.402 93.3481L127.882 99.1405L126.241 115.647L128.169 137.608L123.834 137.975L118.21 116.967L113.773 93.9824L126.402 93.3481Z" fill="#CCCCCC"/>
<path fill-rule="evenodd" clip-rule="evenodd" d="M130.751 91.3056C130.67 88.3878 130.391 85.4529 129.995 82.5095C129.638 79.8519 129.183 77.187 128.692 74.5099C127.92 70.3111 127.219 66.6117 125.674 62.6187C125.125 61.2006 124.561 59.7572 123.614 58.5764C122.741 57.4885 121.438 56.7413 120.13 56.3034C119.519 56.0988 118.831 55.9242 118.22 55.7856C117.528 55.6288 117.18 55.9416 116.517 56.2256C116.071 56.4164 115.548 56.4673 115.086 56.6291C112.343 57.5909 110.776 59.5277 109.847 62.277C109.1 64.4893 108.353 66.7014 107.606 68.9135C106.993 70.7302 106.379 72.5474 105.847 74.3903C104.455 79.2148 103.632 84.1861 103.028 89.1697C102.724 91.668 102.476 94.173 102.237 96.6785C102.084 98.2798 102.899 97.6061 103.86 97.1169C105.517 96.2738 107.163 95.3846 109.022 95.0801C109.924 94.9323 110.844 94.9251 111.758 94.938C117.32 95.0176 122.902 95.845 128.125 97.7565C128.436 97.87 128.752 97.991 129.005 98.2034C129.343 98.4867 129.802 99.1307 130.291 98.7941C130.595 98.5848 130.668 97.8711 130.724 97.5496C130.947 96.26 130.903 94.9103 130.86 93.6078C130.824 92.5301 130.76 91.6281 130.751 91.3056Z" fill="#1BB3BC"/>
<path d="M101.614 74.5083C100.701 76.1783 99.6037 78.0439 99.2708 79.9438C99.0724 81.077 99.8094 82.1596 100.729 82.7504C101.884 83.4921 103.127 83.2933 104.442 83.2389C105.242 83.2059 113.72 82.7493 113.72 82.3749C113.718 80.761 113.717 79.1474 113.715 77.5335C111.575 77.1129 109.415 76.7983 107.246 76.5911C108.868 74.1671 118.068 59.7884 113.788 58.1575C109.712 56.6045 103.214 71.5836 101.614 74.5083Z" fill="#1BB3BC"/>
<path fill-rule="evenodd" clip-rule="evenodd" d="M120.509 46.2346C122.083 45.0782 123.105 43.2142 123.105 41.1134C123.105 37.6081 120.26 34.7622 116.754 34.7622C113.518 34.7622 110.843 37.1885 110.452 40.3199C110.384 40.6461 110.334 40.9759 110.3 41.3057L110.3 41.3063L110.299 41.3135L110.299 41.3161C110.289 41.4148 110.28 41.5134 110.272 41.6118L109.835 46.5127L110.831 46.846L110.841 46.8483L110.841 46.8483C110.866 46.9337 110.879 46.9799 110.879 46.9799L110.906 47.6428L110.955 48.882C110.972 49.292 111.058 49.6938 111.207 50.0716C111.312 50.3382 111.45 50.5936 111.618 50.8306C111.816 51.1088 112.052 51.3584 112.316 51.5691C112.453 51.6798 112.599 51.7784 112.752 51.8663C112.833 51.913 112.913 51.9558 112.997 51.996L112.998 51.9963L112.57 59.7375C112.57 59.7375 114.83 60.4184 117.304 59.8781C118.8 59.5543 120.376 58.7811 121.578 57.1444C121.578 57.1444 120.155 50.9776 120.509 46.2346Z" fill="#FFC4B8"/>
<path fill-rule="evenodd" clip-rule="evenodd" d="M117.281 59.7867C118.777 59.4629 120.353 58.6897 121.555 57.053C121.555 57.053 120.016 50.4452 120.537 45.6431C120.537 45.6431 117.037 54.1777 117.281 59.7867ZM110.832 46.8739C111.181 46.9762 111.524 46.7024 111.501 46.3403L111.355 44.0059L110.832 46.8739Z" fill="#F4A48D"/>
<path fill-rule="evenodd" clip-rule="evenodd" d="M118.811 35.1788C116.019 35.0808 116.362 32.6831 116.362 32.6831C113.374 32.7811 112.101 33.9065 112.101 33.9065C109.701 35.8145 110.652 39.6424 110.652 39.6424C111.019 36.7538 115.443 37.9854 117.175 38.2754C117.883 38.9695 117.61 40.6637 117.969 42.0917C117.975 42.1176 118.745 44.0503 118.745 44.0503L118.746 44.0526L118.789 44.2534C118.802 44.2206 118.815 44.1877 118.829 44.1548C119.295 43.0527 120.243 42.4007 120.947 42.6972C121.651 42.9941 121.844 44.1279 121.379 45.2301C121.216 45.614 120.807 45.9434 120.558 46.1971C120.365 47.8154 120.401 49.3186 120.537 50.609L121.26 50.6403L123.856 38.3102C124.049 36.6597 123.313 35.9064 122.135 35.5454C121.219 35.2642 120.034 35.2216 118.811 35.1788Z" fill="black"/>
<path fill-rule="evenodd" clip-rule="evenodd" d="M153.976 102.671C153.966 102.694 153.958 102.718 153.951 102.744C153.935 102.765 153.92 102.787 153.907 102.81L153.886 102.845L153.881 102.854L153.827 102.908C153.808 102.927 153.785 102.949 153.789 102.941C153.782 102.94 153.781 102.942 153.777 102.95C153.754 102.961 153.731 102.973 153.708 102.987C153.656 103.007 153.603 103.034 153.538 103.045C153.287 103.108 152.96 103.067 152.732 102.952C152.618 102.895 152.529 102.823 152.468 102.749C152.447 102.708 152.416 102.671 152.405 102.626L152.397 102.61L152.393 102.603L152.391 102.599C152.389 102.591 152.401 102.652 152.395 102.622L152.38 102.545L152.364 102.467L152.363 102.441C152.356 102.413 152.36 102.347 152.365 102.316C152.37 102.278 152.38 102.249 152.398 102.217C152.434 102.155 152.512 102.077 152.639 102.011C152.895 101.878 153.259 101.805 153.618 101.775C153.696 101.769 153.776 101.77 153.856 101.767C153.885 101.829 153.911 101.892 153.932 101.954C154.027 102.229 154.053 102.489 153.976 102.671ZM159.079 105.848C159.081 105.7 159.07 105.531 159.052 105.341C159.016 104.963 158.945 104.498 158.757 103.99C158.573 103.484 158.285 102.923 157.82 102.419C157.354 101.915 156.745 101.47 155.978 101.19C155.892 101.16 155.804 101.131 155.717 101.1L155.651 101.078L155.618 101.066L155.564 101.051L155.416 101.012C155.368 101.001 155.321 100.994 155.273 100.984C155.15 100.677 154.995 100.392 154.806 100.132C154.655 99.9266 154.494 99.7286 154.294 99.5535C154.21 99.4684 154.069 99.364 153.945 99.2738C153.909 99.2473 153.888 99.2339 153.868 99.2218L153.804 99.1821L153.741 99.1424L153.725 99.1328L153.664 99.0983L153.62 99.077C152.679 98.6195 151.73 98.5867 150.908 98.7C150.078 98.8135 149.346 99.0956 148.725 99.4412C148.412 99.609 148.133 99.8106 147.884 100.019C147.635 100.227 147.41 100.441 147.231 100.672C146.861 101.121 146.64 101.592 146.533 101.99C146.424 102.39 146.422 102.71 146.436 102.929C146.457 103.135 146.48 103.24 146.48 103.24L146.648 103.249C146.648 103.249 146.677 103.145 146.731 102.95C146.793 102.775 146.896 102.515 147.085 102.231C147.276 101.95 147.546 101.644 147.921 101.372C148.287 101.092 148.758 100.852 149.292 100.66C149.826 100.474 150.436 100.35 151.061 100.324C151.684 100.303 152.334 100.392 152.832 100.64C152.917 100.681 153.009 100.742 153.101 100.815C152.81 100.841 152.51 100.895 152.19 101.021C151.944 101.124 151.674 101.29 151.469 101.568C151.367 101.706 151.289 101.867 151.246 102.032C151.202 102.202 151.182 102.347 151.192 102.528C151.196 102.784 151.273 103.13 151.446 103.411C151.622 103.687 151.859 103.896 152.112 104.049C152.365 104.204 152.636 104.293 152.913 104.349C153.19 104.405 153.476 104.413 153.769 104.369C153.915 104.353 154.064 104.309 154.212 104.26L154.433 104.165C154.519 104.118 154.607 104.061 154.69 104.003C154.739 103.968 154.755 103.953 154.775 103.937L154.835 103.885L154.865 103.86L154.873 103.853C154.837 103.889 154.931 103.797 154.925 103.802L154.944 103.779L155.02 103.688L155.168 103.5L155.285 103.29C155.37 103.15 155.407 102.996 155.458 102.845C155.49 102.695 155.522 102.539 155.528 102.391C155.534 102.244 155.539 102.093 155.52 101.955C155.518 101.934 155.515 101.914 155.513 101.893C155.594 101.913 155.674 101.932 155.754 101.952C156.382 102.115 156.96 102.448 157.395 102.841C157.838 103.236 158.144 103.709 158.356 104.155C158.571 104.603 158.681 105.031 158.758 105.385C158.795 105.563 158.823 105.723 158.837 105.864C158.855 106.005 158.869 106.125 158.872 106.224C158.883 106.42 158.889 106.525 158.889 106.525L159.057 106.53C159.057 106.53 159.063 106.423 159.074 106.221C159.082 106.12 159.082 105.995 159.079 105.848Z" fill="#FFC4B8"/>
<path fill-rule="evenodd" clip-rule="evenodd" d="M110.152 141.873C110.152 141.873 101.603 145.46 94.9844 141.873V121.272H110.152V141.873Z" fill="#FFC4B8"/>
<path fill-rule="evenodd" clip-rule="evenodd" d="M107.541 121.272L100.827 135.172L107.67 138.362V139.668C107.67 139.668 101.051 142.422 94.9844 140.688L95.036 144.397C101.655 147.984 110.211 143.248 110.211 143.248L110.152 121.272H107.541Z" fill="#FFC4B8"/>
<path fill-rule="evenodd" clip-rule="evenodd" d="M94.9844 142.139C94.9844 142.139 95.3706 138.534 96.4209 143.108C96.4209 143.108 97.4896 140.261 98.0034 142.792C98.0034 142.792 98.222 143.668 98.082 144.425C98.082 144.425 96.0875 144.088 94.9844 143.252V142.139Z" fill="#444444"/>
<path fill-rule="evenodd" clip-rule="evenodd" d="M141.042 141.873C141.042 141.873 132.492 145.46 125.598 141.873V121.272H141.042V141.873Z" fill="#FFC4B8"/>
<path fill-rule="evenodd" clip-rule="evenodd" d="M128.631 136.839L132.608 134.425L128.669 121.272H125.598C125.606 131.303 125.613 138.551 125.617 143.019C125.617 143.435 125.617 143.511 125.617 143.248C132.511 146.835 141.04 144.624 141.04 144.624L141.041 139.689C137.732 140.414 133.044 140.942 128.631 138.722V136.839Z" fill="#FFC4B8"/>
<path fill-rule="evenodd" clip-rule="evenodd" d="M125.598 142.139C125.598 142.139 126.092 138.534 127.143 143.108C127.143 143.108 128.265 140.261 128.779 142.792C128.779 142.792 128.917 143.668 128.776 144.425C128.776 144.425 126.977 144.088 125.598 143.252V142.139Z" fill="#444444"/>
<path fill-rule="evenodd" clip-rule="evenodd" d="M81.9542 102.852L74.549 102.557C71.0778 113.321 76.4098 121.937 76.4098 121.937L78.5025 121.565C78.5022 121.566 81.6176 124.582 86.0915 124.155C92.1695 132.336 103.136 137.797 115.655 137.797C134.77 137.797 150.267 125.065 150.267 109.358C150.267 93.6526 134.77 80.9204 115.655 80.9204C99.2642 80.9204 85.5354 90.2818 81.9542 102.852Z" fill="#FFC4B8"/>
<path fill-rule="evenodd" clip-rule="evenodd" d="M136.44 86.6191C141.524 91.5692 144.59 97.9636 144.59 104.947C144.59 120.653 129.093 133.386 109.978 133.386C102.177 133.386 94.9794 131.265 89.1914 127.687C95.5403 133.869 105.038 137.797 115.653 137.797C134.769 137.797 150.265 125.065 150.265 109.359C150.265 100.062 144.835 91.8084 136.44 86.6191Z" fill="#F4A48D"/>
<path fill-rule="evenodd" clip-rule="evenodd" d="M99.1367 84.362C99.1367 84.362 114.155 76.9225 130.264 83.5725C130.264 83.5725 104.371 78.54 104.413 88.2854L99.1367 84.362Z" fill="#F4A48D"/>
<path fill-rule="evenodd" clip-rule="evenodd" d="M77.0407 119.102C77.0407 119.102 72.8709 112.355 74.3136 103.345C71.3407 113.738 76.4101 121.937 76.4101 121.937L83.1059 120.454L86.3503 119.057L77.0407 119.102Z" fill="#F4A48D"/>
<path fill-rule="evenodd" clip-rule="evenodd" d="M81.6491 121.937C81.6491 121.937 84.8596 120.761 87.0329 119.207C89.1442 117.697 86.7336 119.115 86.7336 119.115L78.5039 121.566C78.5039 121.566 83.9962 126.882 90.8679 122.394C85.2223 124.368 81.6491 121.937 81.6491 121.937Z" fill="#F4A48D"/>
<path fill-rule="evenodd" clip-rule="evenodd" d="M93.8594 72.8789C93.8594 72.8789 104.164 73.972 104.411 88.2856L93.924 92.1267L93.8594 72.8789Z" fill="#FFC4B8"/>
<path fill-rule="evenodd" clip-rule="evenodd" d="M76.4102 121.938C76.4102 121.938 76.4671 121.922 76.574 121.893C76.6814 121.868 76.8358 121.815 77.0331 121.763C77.2304 121.712 77.4672 121.638 77.7399 121.556C78.0118 121.471 78.3201 121.389 78.653 121.284C78.9853 121.177 79.3448 121.06 79.7271 120.949C80.1108 120.844 80.5041 120.687 80.9198 120.561C81.3331 120.428 81.7604 120.29 82.1945 120.15C82.6257 120 83.0641 119.849 83.5023 119.697C83.9412 119.548 84.3866 119.418 84.8133 119.254C85.2415 119.095 85.6693 118.955 86.0801 118.81C86.4903 118.664 86.8928 118.537 87.2738 118.414C87.6474 118.272 88.0049 118.147 88.3356 118.033C88.9956 117.802 89.5551 117.626 89.9487 117.507C90.3425 117.388 90.5721 117.329 90.5721 117.329C90.5721 117.329 90.3734 117.455 90.0172 117.66C89.6612 117.864 89.1492 118.153 88.5239 118.477C88.2118 118.642 87.8732 118.818 87.5103 118.995C87.1421 119.159 86.754 119.334 86.3466 119.5C85.9399 119.668 85.523 119.851 85.0924 120.02C84.6673 120.203 84.2159 120.337 83.7722 120.492C83.3248 120.637 82.8774 120.781 82.4371 120.923C81.9958 121.063 81.5473 121.157 81.1218 121.271C80.694 121.379 80.2824 121.487 79.8818 121.554C79.4846 121.632 79.1065 121.695 78.7583 121.753C78.4112 121.814 78.0851 121.838 77.8005 121.87C77.5161 121.905 77.2652 121.921 77.0577 121.928C76.645 121.949 76.4102 121.938 76.4102 121.938Z" fill="#444444"/>
<path fill-rule="evenodd" clip-rule="evenodd" d="M93.8594 72.8789L93.9078 87.2351L97.0968 90.9647C97.536 84.746 96.5592 78.521 93.9021 72.8844C93.8751 72.881 93.8594 72.8789 93.8594 72.8789Z" fill="#F4A48D"/>
<path fill-rule="evenodd" clip-rule="evenodd" d="M95.1682 88.7086L97.0974 90.9646C97.461 85.8179 96.851 80.6681 95.125 75.8501L95.1682 88.7086Z" fill="#A66555"/>
<path fill-rule="evenodd" clip-rule="evenodd" d="M130.295 84.6476L125.614 82.8732C120.53 81.9737 115.726 81.5973 110.751 82.8093L111.901 83.9582L130.295 84.6476Z" fill="#A66555"/>
<path fill-rule="evenodd" clip-rule="evenodd" d="M91.9735 99.5442C91.9735 100.395 91.2834 101.085 90.432 101.085C89.581 101.085 88.8906 100.395 88.8906 99.5442C88.8906 98.6938 89.581 98.0039 90.432 98.0039C91.2834 98.0039 91.9735 98.6938 91.9735 99.5442Z" fill="#444444"/>
<path d="M116.207 78.4439C116.317 78.4013 116.399 78.3099 116.486 78.2311C117.013 77.7589 117.82 77.7194 118.489 77.9497C119.04 78.1398 119.684 78.5127 120.088 78.9395C120.503 79.3759 120.513 80.2177 120.576 80.8112C120.593 80.9675 120.606 81.1313 120.546 81.2766C120.507 81.3705 120.44 81.4497 120.374 81.5273C120.272 81.6478 120.169 81.7683 120.067 81.8888C119.514 82.54 118.477 82.3084 117.706 82.3192C117.369 82.3236 116.955 82.2819 116.818 81.9728C116.708 81.7231 116.825 81.3681 116.607 81.2044C116.507 81.1295 116.371 81.1291 116.246 81.1323C114.923 81.1635 113.08 81.161 111.756 81.192C111.734 80.4591 111.85 78.5011 112.532 78.2422C112.75 78.1593 113.731 78.362 114.004 78.3644C114.624 78.3695 115.243 78.4024 115.86 78.4629C115.977 78.4743 116.098 78.4861 116.207 78.4439Z" fill="#FFC4B8"/>
<path d="M82.3543 72.5883L7.04514 56.5809C4.90003 56.1249 3.53321 54.0055 3.99197 51.8472L13.4077 7.54944C13.8665 5.39111 15.977 4.01167 18.1221 4.46763L93.4313 20.4751C95.5764 20.931 96.9434 23.0496 96.4846 25.208L87.0689 69.5057C86.6101 71.664 84.4994 73.0443 82.3543 72.5883Z" fill="#EC0000"/>
<path fill-rule="evenodd" clip-rule="evenodd" d="M22.3752 28.5473L17.6496 27.5429C16.8011 27.3625 15.9661 27.9086 15.7846 28.7625L14.7737 33.5185C14.5922 34.3724 15.1329 35.2109 15.9814 35.3912L20.7069 36.3957C21.5554 36.576 22.3904 36.03 22.5719 35.176L23.5828 30.4201C23.7643 29.5661 23.2237 28.7277 22.3752 28.5473Z" fill="#CEDEE7"/>
<path fill-rule="evenodd" clip-rule="evenodd" d="M67.0624 54.9474L83.2413 53.1838L82.9011 57.2148L66.7222 58.9784L67.0624 54.9474ZM48.9585 51.0993L65.1373 49.3357L64.7972 53.3667L48.6183 55.1303L48.9585 51.0993ZM30.8546 47.2514L47.0334 45.4878L46.6933 49.5188L30.5144 51.2824L30.8546 47.2514ZM12.6469 43.3811L28.8257 41.6174L28.4856 45.6484L12.3067 47.4121L12.6469 43.3811ZM19.1777 50.2334L25.5244 50.539L25.0341 54.665L18.6873 54.3594L19.1777 50.2334ZM11.2243 48.5429L17.571 48.8485L17.0806 52.9745L10.7339 52.6689L11.2243 48.5429Z" fill="#CC0000"/>
<path fill-rule="evenodd" clip-rule="evenodd" d="M83.7904 29.5681C84.0042 28.9005 84.0097 28.1713 83.7845 27.4842L83.4831 26.5641L82.277 22.8834C82.1621 22.5325 82.1074 22.1707 82.1097 21.8117L81.9755 21.9633C81.1818 22.8608 80.9224 24.115 81.2953 25.2535L81.2953 25.2543L82.5469 29.0733C82.5455 29.0728 82.5442 29.0723 82.5428 29.072C82.8527 30.1734 82.5837 31.364 81.8215 32.2259L81.6873 32.3775C81.6896 32.0185 81.6349 31.6567 81.5201 31.3058L81.633 31.6508L80.6154 28.5451L79.6836 25.7017L79.7109 25.7847C79.5959 25.4338 79.5412 25.072 79.5435 24.713L79.4093 24.8646C78.6156 25.7621 78.3563 27.0163 78.729 28.155L78.7293 28.1557L78.7686 28.2755L79.6338 30.9161L79.634 30.9163L79.9354 31.8362C80.3085 32.9751 80.0492 34.2295 79.2553 35.1271L79.1212 35.279C79.1236 34.9198 79.0687 34.558 78.9538 34.2071L79.067 34.5521L77.4463 29.6063L77.446 29.6056C77.2981 29.154 77.2501 28.6845 77.295 28.2261C74.354 28.2855 72.0963 29.3245 71.7494 31.0031C71.2799 33.275 74.4883 35.8582 78.9154 36.7728C83.3425 37.6872 87.3117 36.5867 87.7812 34.3148C88.1281 32.6362 86.4671 30.7879 83.7904 29.5681Z" fill="white"/>
<path fill-rule="evenodd" clip-rule="evenodd" d="M40.2613 64.148L35.1042 66.1792L26.6731 73.1651L22.8185 60.6387L18.1211 61.4818L21.1325 76.7785L26.0706 81.2352L40.2835 73.406L40.2613 64.148Z" fill="#34466B"/>
<path fill-rule="evenodd" clip-rule="evenodd" d="M68.2461 72.0819L70.2354 70.1235L73.3724 70.1978L73.7304 71.7887L68.9901 73.8365L68.2461 72.0819Z" fill="#FFC4B8"/>
<path fill-rule="evenodd" clip-rule="evenodd" d="M35.465 100.416L35.0508 104.51L38.7176 118.575L35.3127 141.178L37.8189 142.043L44.4277 119.976L45.4765 113.557L45.4382 99.9668L35.465 100.416Z" fill="#FFC4B8"/>
<path fill-rule="evenodd" clip-rule="evenodd" d="M54.7373 104.979L49.4658 142.852H47.0696L46.6383 118.576L42.2773 101.536L54.7373 104.979Z" fill="#FFC4B8"/>
<path fill-rule="evenodd" clip-rule="evenodd" d="M35.5955 95.3943C37.6421 81.6167 36.9111 71.5832 37.0172 68.8281C37.1234 66.0732 39.0108 64.6435 39.0108 64.6435C39.84 64.4538 40.5608 63.9074 41.3973 63.6918C47.0556 62.2335 50.142 66.6595 52.26 71.4335C54.8697 77.3155 57.0624 83.3934 58.8349 89.5939C60.3906 95.0356 61.9497 100.526 62.6022 106.174C63.0372 109.939 62.3717 111.795 60.6055 111.742C54.9871 112.81 50.7808 113.519 47.9865 113.869C43.1718 114.473 38.3504 114.913 33.5041 115.12C30.974 115.228 33.549 109.172 35.5955 95.3943Z" fill="#34466B"/>
<path fill-rule="evenodd" clip-rule="evenodd" d="M19.0395 61.3173L16.918 59.1934L17.6407 55.4595H19.6882L20.2904 58.7116L21.3298 59.336V60.9062L19.0395 61.3173Z" fill="#FFC4B8"/>
<path fill-rule="evenodd" clip-rule="evenodd" d="M44.1406 63.4092L49.5608 64.3726L59.3439 73.8368L68.1136 70.7584L70.9333 74.3536L59.1966 81.2354L46.7906 73.2859L44.1406 63.4092Z" fill="#34466B"/>
<path fill-rule="evenodd" clip-rule="evenodd" d="M38.4309 59.5972C36.68 58.7122 35.3955 56.9669 35.1731 54.851C34.8275 51.5625 37.1775 48.6161 40.4176 48.2755C43.5711 47.9441 46.413 50.2022 46.8814 53.3549C46.926 53.5455 46.9592 53.741 46.9802 53.9409L46.9803 53.9415C46.9971 54.1014 47.0057 54.2604 47.0064 54.4178L47.2821 59.4559L45.1805 60.6134L45.5867 64.4778C43.641 66.2157 41.5445 66.3846 39.3108 65.1251L38.4309 59.5972Z" fill="#FFC4B8"/>
<path fill-rule="evenodd" clip-rule="evenodd" d="M45.052 60.9404C45.052 60.9404 38.7323 61.4048 38.3956 59.1034L38.6243 60.9745C38.6243 60.9745 38.8355 62.2578 45.052 60.9404ZM46.6449 58.172L45.6536 55.6663L45.4275 57.3502C45.3508 57.9207 46.0026 58.3607 46.6449 58.172Z" fill="#F4A48D"/>
<path fill-rule="evenodd" clip-rule="evenodd" d="M37.0771 65.7704C34.9244 65.2327 33.2447 63.3715 32.9966 60.992C32.8333 59.4276 33.3302 57.9495 34.2589 56.8457C34.4025 56.6746 34.4552 56.4446 34.4021 56.2253L34.4049 56.227L34.4013 56.2215L34.3885 56.1675C34.3591 56.0414 34.3333 55.9151 34.3107 55.7891C34.3047 55.7548 34.2989 55.7208 34.2933 55.6868C33.8634 52.9796 35.0869 50.1761 37.5572 48.7651C37.9657 48.5318 38.3882 48.3481 38.8183 48.2118C38.8598 48.1868 38.9016 48.1623 38.9438 48.1382C40.3714 47.323 41.9707 47.1116 43.4628 47.4227C44.0573 47.5459 44.6342 47.7525 45.1765 48.0365C45.142 48.5149 45.0654 48.9831 44.95 49.4368C45.578 49.9588 46.1228 50.6077 46.5444 51.3717C46.825 51.8802 47.0344 52.4097 47.1758 52.9478L45.0906 50.7697L44.6419 50.3923C43.7247 52.7239 41.7439 54.5375 39.2467 55.1433C39.3126 55.5288 39.3585 55.9373 39.3675 56.3502C39.0329 56.033 38.6415 55.913 38.3842 56.0839C38.0716 56.2918 38.0658 56.857 38.3531 57.3929L38.362 57.4092L38.371 57.4255L38.373 57.4292L38.3802 57.4417L38.383 57.4467L38.39 57.4588L38.3925 57.463L38.402 57.479L38.4037 57.4818L38.4117 57.4951L38.4148 57.5001L38.422 57.5116L38.425 57.5165L38.4351 57.5324L38.4436 57.5455L38.4464 57.5498L38.4522 57.5586L38.4556 57.5637L38.4609 57.5716L38.4645 57.577L38.4696 57.5845L38.4734 57.5899L38.4785 57.5973L38.4823 57.6027L38.4874 57.6101L38.4912 57.6154L38.4966 57.6229L38.5002 57.6279L38.506 57.636L38.5092 57.6403L38.5183 57.6526L38.5274 57.6648L38.5366 57.6768L38.5402 57.6814L38.5459 57.6888L38.5498 57.6937L38.5553 57.7007L38.5593 57.7057L38.5647 57.7125L38.5687 57.7175L38.5782 57.7291L38.5839 57.7359L38.5878 57.7406L38.5938 57.7477L38.5974 57.7519L38.607 57.7632L38.6167 57.7743L38.6264 57.7853L38.63 57.7893L38.6362 57.7962L38.646 57.807L38.6559 57.8177L38.6602 57.8222L38.6701 57.8327L38.676 57.8388L38.6801 57.8431L38.6863 57.8494L38.6902 57.8534L38.7002 57.8635L38.7103 57.8735L38.7204 57.8834L38.724 57.8868L38.7306 57.8932L38.7347 57.897L38.7408 57.9028L38.7451 57.9068L38.7511 57.9124L38.7555 57.9164L38.7614 57.9218L38.7658 57.9258L38.7719 57.9312L38.7762 57.935L38.7824 57.9406L38.7865 57.9442L38.7969 57.9531L38.8073 57.962L38.8177 57.9707L38.8282 57.9793L38.8323 57.9826L38.8387 57.9877L38.8431 57.9912L38.8492 57.9961L38.8537 57.9996L38.8598 58.0043L38.8643 58.0078L38.8704 58.0125L38.8749 58.0159L38.8812 58.0206L38.8855 58.0238L38.8923 58.0288L38.8961 58.0315L38.9067 58.0392L38.9173 58.0467L38.9279 58.054L38.9386 58.0613L38.9429 58.0642L38.9493 58.0684L38.9538 58.0713L38.96 58.0754L38.9708 58.0823L38.9753 58.0851L38.9816 58.0891L38.986 58.0917L38.9967 58.0982L39.0074 58.1046L39.0181 58.1108L39.0288 58.1169L39.0395 58.1229L39.0438 58.1252L39.0503 58.1287L39.0547 58.131L39.0611 58.1344L39.0655 58.1367L39.0719 58.14L39.0763 58.1422L39.0827 58.1454L39.087 58.1475L39.0977 58.1527L39.1055 58.1564C39.2987 58.2469 39.4884 58.2674 39.6428 58.2023C40.7431 59.3511 42.3679 61.3683 41.7844 62.7619C41.7836 62.7639 41.7827 62.7659 41.7818 62.7679C41.6614 63.0526 41.3653 63.2095 41.0706 63.1639L41.0694 63.1702L39.5138 62.7079C39.258 62.6316 39.1522 62.6206 38.9567 62.5771C38.8547 62.8158 38.7698 62.9545 38.6463 63.1872C38.128 64.1639 37.5212 65.1096 37.0771 65.7704Z" fill="black"/>
<path d="M45.2287 61.6685C45.2287 61.6685 46.0426 61.7394 46.1295 61.7432C48.8812 61.8625 51.4364 63.1207 51.9244 65.8882C52.0478 66.5877 51.2305 67.8762 49.9154 67.4003C48.6688 66.9491 48.2729 65.2364 46.526 64.7026C46.1302 64.5816 45.7283 64.5061 45.3433 64.4553L45.3219 62.886C45.2486 62.1413 45.2175 61.7354 45.2287 61.6685Z" fill="black"/>
<path d="M46.1319 78.3482L38.9805 64.7087L41.1493 63.9465L42.714 63.4868L45.4724 63.6733L46.1319 78.3482Z" fill="#EAF7FE"/>
<path fill-rule="evenodd" clip-rule="evenodd" d="M49.5521 141.661L46.7468 141.755L46.4336 144.081L46.4918 144.091L46.4777 144.094L50.4211 145.739L52.1909 145.723L52.1629 143.805L51.6483 143.531L49.5521 141.661Z" fill="black"/>
<path fill-rule="evenodd" clip-rule="evenodd" d="M38.3983 140.461L41.6367 142.896L41.2574 144.779L34.4401 143.705L35.3397 140.461H38.3983Z" fill="black"/>
</svg>
