<svg width="160" height="161" viewBox="0 0 160 161" fill="none" xmlns="http://www.w3.org/2000/svg">
<g clip-path="url(#clip0_1483_32357)">
<path fill-rule="evenodd" clip-rule="evenodd" d="M76.9648 85.0085L90.3248 123.045L97.0552 157.624L95.6594 164.539H119.948L120.128 163.64L105.989 156.471L97.0552 85.0085H76.9648Z" fill="#34466B"/>
<path fill-rule="evenodd" clip-rule="evenodd" d="M67.6175 85.0085L65.8958 115.047L48.1017 146.997L44.6719 153.156L61.4233 168.717L56.491 151.043L77.4512 122.247L93.8832 85.1928L67.6175 85.0085Z" fill="#9BC3D3"/>
<path fill-rule="evenodd" clip-rule="evenodd" d="M44.6719 153.156L48.1017 146.997L56.491 151.043L61.4233 168.717L44.6719 153.156ZM95.6596 164.539L97.0555 157.624L105.989 156.471L120.128 163.64L119.948 164.539H95.6596Z" fill="#34466B"/>
<path fill-rule="evenodd" clip-rule="evenodd" d="M80.5676 20.1672C78.4664 18.6233 77.1016 16.1347 77.1016 13.3298C77.1016 8.64996 80.9011 4.85034 85.581 4.85034C89.9022 4.85034 93.4728 8.08971 93.9948 12.2704C94.0861 12.706 94.1525 13.1464 94.1981 13.5867L94.1982 13.5874L94.1997 13.5971L94.2 13.6005C94.2135 13.7322 94.2252 13.8639 94.2352 13.9953L94.8192 20.5385L93.4899 20.9835L93.4761 20.9866L93.476 20.9866C93.443 21.1006 93.4247 21.1623 93.4247 21.1623L93.3886 22.0474L93.3233 23.7018C93.3007 24.2492 93.1862 24.7857 92.9869 25.29C92.8476 25.6461 92.6635 25.987 92.4386 26.3035C92.1745 26.6748 91.859 27.008 91.5068 27.2894C91.3233 27.4371 91.1282 27.5689 90.9245 27.6862C90.8166 27.7485 90.7091 27.8057 90.5973 27.8594L90.5966 27.8598L91.1676 38.1951C91.1676 38.1951 88.1505 39.1042 84.8466 38.3828C82.8496 37.9505 80.7457 36.9182 79.1408 34.733C79.1408 34.733 81.0405 26.4997 80.5676 20.1672Z" fill="#FFC4B8"/>
<path fill-rule="evenodd" clip-rule="evenodd" d="M84.8776 38.2603C82.8804 37.828 80.7767 36.7957 79.1719 34.6105C79.1719 34.6105 81.2265 25.7883 80.53 19.377C80.53 19.377 85.2038 30.7717 84.8776 38.2603ZM93.4881 21.0203C93.0228 21.1568 92.5647 20.7913 92.595 20.3078L92.7907 17.1912L93.4881 21.0203Z" fill="#F4A48D"/>
<g clip-path="url(#clip1_1483_32357)">
<path fill-rule="evenodd" clip-rule="evenodd" d="M80.6083 19.9572L80.6744 21.0885L80.6725 21.2515C79.3355 20.263 78.2432 18.9135 77.5643 17.273C75.5689 12.4508 77.895 6.93778 82.7595 4.95998C86.3072 3.51722 90.2274 4.35323 92.8621 6.78369C93.6327 7.34379 95.0062 7.29181 96.3042 7.05774C97.6007 6.82395 98.3991 8.42853 97.3998 9.28C96.7129 9.86545 95.8091 10.4316 94.6241 10.8737L94.6204 10.8618C94.5883 10.8786 94.5559 10.8949 94.5234 10.9107C94.3667 10.9675 94.2051 11.0222 94.0386 11.0744C93.3406 11.2933 92.6692 11.3741 92.0319 11.3525C89.9101 11.2058 87.5589 9.92016 85.9051 7.765C85.6816 7.47388 84.9291 10.6277 84.5363 12.4372C84.3062 13.4974 84.7065 17.0572 84.8929 18.5653L84.89 19.3234L84.0172 20.1722L83.9289 19.8476L83.9134 19.8561C83.8839 19.6317 83.5184 17.9004 83.1865 17.1032C82.5584 15.5945 81.2577 14.6913 80.2836 15.0874C79.3095 15.4835 79.0286 17.0299 79.6566 18.5386C79.8469 18.9957 80.099 19.3972 80.385 19.7238C80.403 19.754 80.4305 19.7847 80.4684 19.816C80.5143 19.865 80.561 19.9121 80.6083 19.9572Z" fill="#9BC3D3"/>
</g>
<path fill-rule="evenodd" clip-rule="evenodd" d="M66.9298 35.3936C66.207 35.8228 65.5105 36.3253 64.8218 36.8484C62.1406 38.8856 58.3898 36.0954 59.7055 32.9966C59.7758 32.8292 59.8571 32.6784 59.9479 32.5451C61.0482 30.9459 62.8099 29.9317 64.5921 29.1637C68.9996 27.2678 73.9186 26.5732 78.6781 27.1746C79.2966 27.2538 79.933 27.3605 80.4679 27.6709L80.4895 27.6687L80.4949 27.6869C80.5432 27.7156 80.5906 27.7461 80.6371 27.7784C81.2182 28.1828 81.5529 28.8171 81.6726 29.5134L85.8938 33.8159C87.3312 35.2808 89.5381 35.6754 91.3937 34.7985L94.4191 42.585L96.757 54.966L98.799 87.3678C98.799 87.3678 98.5923 88.0638 98.0883 89.0262L97.7113 86.1048L92.2917 89.0857C93.1077 95.0333 92.5216 102.31 84.5394 101.66C78.4775 101.166 73.4987 100.121 69.8686 99.1284C66.0397 98.0802 63.7357 94.1794 64.6608 90.3198L67.38 78.9758L68.0033 76.3745L59.865 69.3732C55.9501 66.0044 54.7929 60.424 57.044 55.7758L66.5772 36.0987C66.6892 35.8558 66.807 35.6206 66.9298 35.3936ZM66.7915 60.3673L69.4167 62.9912L68.7711 57.6505L66.7915 60.3673Z" fill="#34466B"/>
<path fill-rule="evenodd" clip-rule="evenodd" d="M76.8019 83.9439L77.8349 82.5602C77.902 82.5601 82.5122 82.543 84.4084 80.1891L86.7664 81.4855V85.1731H67.3633V75.824L76.8019 83.9439ZM77.8867 71.4575H86.7663V78.6495L86.627 78.5284C85.6648 77.6918 84.5298 77.0785 83.304 76.7312L82.3814 76.4704L82.6039 76.1723L77.8867 71.4575Z" fill="black"/>
<path fill-rule="evenodd" clip-rule="evenodd" d="M82.3806 76.4705L83.3032 76.7312C84.529 77.0785 85.664 77.6918 86.6262 78.5284L89.0825 80.6619C89.4211 80.9548 89.4851 81.456 89.2293 81.8246L89.1725 81.9075C88.9167 82.2784 88.4211 82.3952 88.0256 82.1782L84.4075 80.1891C82.5101 82.5444 77.8955 82.5601 77.834 82.5602L82.3806 76.4705Z" fill="#FFC4B8"/>
<path fill-rule="evenodd" clip-rule="evenodd" d="M86.5467 81.3645L86.5146 81.572C82.2227 86.3807 76.6818 85.0451 76.6818 85.0451C74.3893 83.2785 68.5137 79.1259 68.5137 79.1259V76.8135L76.8021 83.9439L77.8379 82.5566L77.8352 82.5602C77.8967 82.5601 82.5113 82.5444 84.4087 80.1891L86.5467 81.3645Z" fill="black"/>
</g>
<defs>
<clipPath id="clip0_1483_32357">
<rect width="80.7571" height="160" fill="white" transform="translate(39.5 0.718262)"/>
</clipPath>
<clipPath id="clip1_1483_32357">
<rect width="20.9464" height="17.1609" fill="white" transform="translate(76.8496 4.25146)"/>
</clipPath>
</defs>
</svg>
