<svg width="160" height="160" viewBox="0 0 160 160" fill="none" xmlns="http://www.w3.org/2000/svg">
<path d="M24.326 59.6333C19.3182 62.7223 15.1855 67.0428 12.3221 72.1828C9.45859 77.3229 7.95982 83.1107 7.96879 88.9946" stroke="#DEEDF2" stroke-width="1.197" stroke-dasharray="1.8"/>
<path d="M72.4648 59.6333C77.4723 62.7221 81.6052 67.0423 84.4686 72.1822C87.3323 77.3217 88.8311 83.1095 88.8226 88.993" stroke="#DEEDF2" stroke-width="1.197" stroke-dasharray="1.8"/>
<path fill-rule="evenodd" clip-rule="evenodd" d="M89.1546 102.83V103.545C89.1546 103.831 89.0412 104.104 88.8393 104.306C88.6374 104.508 88.3639 104.621 88.0785 104.621H87.2807C87.3244 104.497 87.3466 104.367 87.3463 104.235C87.3515 104.078 87.3247 103.921 87.2679 103.774C87.2112 103.627 87.1255 103.493 87.0161 103.38C86.9066 103.267 86.7755 103.177 86.6306 103.115C86.4855 103.054 86.3296 103.022 86.1723 103.022C86.0149 103.022 85.8591 103.054 85.714 103.115C85.5691 103.177 85.438 103.267 85.3285 103.38C85.2187 103.493 85.1333 103.627 85.0766 103.774C85.0199 103.921 84.9931 104.078 84.9983 104.235C84.9973 104.366 85.019 104.497 85.062 104.621H78.9101C78.9537 104.497 78.9759 104.367 78.9756 104.235C78.9808 104.078 78.954 103.921 78.8973 103.774C78.8405 103.627 78.7549 103.493 78.6454 103.38C78.5359 103.267 78.4048 103.177 78.2599 103.115C78.1148 103.054 77.959 103.022 77.8016 103.022C77.6442 103.022 77.4884 103.054 77.3433 103.115C77.1984 103.177 77.0673 103.267 76.9578 103.38C76.848 103.493 76.7624 103.627 76.7059 103.774C76.6492 103.921 76.6224 104.078 76.6276 104.235C76.6267 104.366 76.6483 104.497 76.6913 104.621H74.9531V104.003C74.9522 103.591 75.087 103.19 75.3361 102.862C75.5853 102.534 75.9357 102.296 76.3327 102.187L79.0119 101.445L79.0564 101.433L80.9614 100.661C81.5393 100.429 82.1565 100.309 82.7792 100.309H86.0229C86.2744 100.309 86.5217 100.375 86.7398 100.501C86.9578 100.627 87.1389 100.808 87.2649 101.026L87.4988 101.429L87.5293 101.441L88.4548 101.804C88.6606 101.884 88.8375 102.025 88.9622 102.207C89.0869 102.389 89.1537 102.605 89.154 102.826" fill="#EAF7FE"/>
<path fill-rule="evenodd" clip-rule="evenodd" d="M78.6913 104.238C78.6907 104.444 78.6191 104.643 78.4885 104.801C78.3577 104.96 78.176 105.069 77.9744 105.108C77.7728 105.148 77.5634 105.116 77.3825 105.019C77.2014 104.922 77.0596 104.765 76.9812 104.575C76.9028 104.385 76.8928 104.174 76.9525 103.977C77.0126 103.78 77.1389 103.611 77.3099 103.497C77.481 103.383 77.6862 103.332 77.8909 103.352C78.0955 103.372 78.2867 103.463 78.4318 103.609C78.5142 103.691 78.5797 103.79 78.6242 103.898C78.6688 104.006 78.6916 104.121 78.6913 104.238Z" fill="#9BC3D3"/>
<path fill-rule="evenodd" clip-rule="evenodd" d="M87.0591 104.238C87.0588 104.444 86.9872 104.643 86.8566 104.802C86.7258 104.96 86.5441 105.069 86.3425 105.109C86.1406 105.148 85.9315 105.117 85.75 105.02C85.5689 104.923 85.4271 104.766 85.3484 104.576C85.27 104.386 85.26 104.174 85.3197 103.978C85.3798 103.781 85.5061 103.611 85.6771 103.497C85.8482 103.383 86.0534 103.332 86.258 103.352C86.4627 103.372 86.6542 103.463 86.7993 103.609C86.882 103.691 86.9472 103.79 86.992 103.897C87.0366 104.005 87.0594 104.121 87.0591 104.238Z" fill="#9BC3D3"/>
<path d="M87.5294 101.445H79.0117L79.0562 101.431L80.9612 100.659C81.5391 100.425 82.156 100.305 82.779 100.305H86.0227C86.2745 100.305 86.5218 100.371 86.7399 100.497C86.9579 100.623 87.1391 100.804 87.2647 101.022L87.4986 101.424L87.5294 101.445Z" fill="#9BC3D3"/>
<path fill-rule="evenodd" clip-rule="evenodd" d="M87.5287 101.445H83.3906L84.0341 100.312H86.022C86.2736 100.312 86.5209 100.379 86.7389 100.504C86.9569 100.63 87.1381 100.811 87.264 101.029L87.4979 101.431L87.5287 101.445Z" fill="#9BC3D3"/>
<path d="M10.1145 96.3853H9.5V105.936H10.1145V96.3853Z" fill="#CEDEE7"/>
<path fill-rule="evenodd" clip-rule="evenodd" d="M9.07722 92.2781C9.21328 91.8981 9.4308 91.5523 9.71458 91.2653C9.99833 90.9781 10.3415 90.7564 10.7199 90.6158C11.0983 90.4755 11.5029 90.4194 11.9053 90.4518C12.3077 90.4841 12.6982 90.6039 13.0493 90.8031C13.4004 91.0025 13.7038 91.276 13.938 91.6047C14.1723 91.9335 14.3318 92.3095 14.4054 92.7065C14.479 93.1032 14.4649 93.5116 14.3641 93.9025C14.2633 94.2934 14.0782 94.6575 13.8218 94.9692L13.7117 95.0948C13.6117 95.2418 13.5306 95.401 13.4702 95.5681C13.3876 95.7968 13.3192 96.0304 13.2656 96.2676C13.2403 96.464 13.1982 96.658 13.14 96.847C12.954 97.4572 12.6089 98.0067 12.1399 98.4388C11.6711 98.8712 11.0954 99.1707 10.4722 99.3064C9.84912 99.4421 9.20106 99.4095 8.5948 99.2112C7.98857 99.0133 7.44605 98.6575 7.02315 98.1799C6.60029 97.7027 6.3123 97.1212 6.18889 96.4954C6.06548 95.8697 6.11113 95.2223 6.32108 94.6203C6.53104 94.0181 6.89776 93.4826 7.38344 93.0694C7.86913 92.6559 8.4562 92.3796 9.08423 92.2686L9.07722 92.2781Z" fill="#DEEDF2"/>
<path d="M14.4136 96.2266H13.8281V105.652H14.4136V96.2266Z" fill="#CEDEE7"/>
<path fill-rule="evenodd" clip-rule="evenodd" d="M13.832 100.21L14.4157 99.8682V96.5474H13.832V100.21Z" fill="#CEDEE7"/>
<path fill-rule="evenodd" clip-rule="evenodd" d="M17.2205 93.7443C17.1921 93.2549 17.0008 92.7889 16.677 92.4212C16.3532 92.0531 15.9156 91.804 15.4338 91.7134C14.952 91.6231 14.4538 91.6963 14.0186 91.922C13.5834 92.1473 13.2361 92.512 13.0321 92.9579C12.947 93.1469 12.8122 93.3092 12.6421 93.4275C12.4719 93.5461 12.2729 93.6159 12.0661 93.6303H12.0487C11.6816 93.6626 11.3383 93.8251 11.0804 94.0883C10.8226 94.3515 10.6672 94.6979 10.6423 95.0656C10.6057 95.6145 11.1854 96.107 11.6449 96.4181C11.8087 96.5251 11.9437 96.6706 12.038 96.8419C12.1323 97.0136 12.1831 97.2054 12.1859 97.4012C12.1921 97.7071 12.2624 98.0083 12.3924 98.2855C12.5223 98.5627 12.709 98.8094 12.9404 99.0098C13.1717 99.2101 13.4425 99.3598 13.7353 99.4489C14.0281 99.5382 14.3364 99.5648 14.6401 99.5273C14.9439 99.4897 15.2364 99.3888 15.4987 99.2312C15.761 99.0735 15.9874 98.8625 16.163 98.6118C16.3387 98.3612 16.4597 98.0766 16.5184 97.7763C16.5771 97.4759 16.572 97.1664 16.5036 96.8682C16.4374 96.5635 16.4337 96.2488 16.4928 95.943C16.552 95.6371 16.6726 95.3465 16.8476 95.0888C17.1154 94.6933 17.2464 94.2213 17.2205 93.7443Z" fill="#CEDEE7"/>
<path fill-rule="evenodd" clip-rule="evenodd" d="M17.2205 93.7443C17.1921 93.2549 17.0008 92.7889 16.677 92.4212C16.3532 92.0531 15.9156 91.804 15.4338 91.7134C14.952 91.6231 14.4538 91.6963 14.0186 91.922C13.5834 92.1473 13.2361 92.512 13.0321 92.9579C12.947 93.1469 12.8122 93.3092 12.6421 93.4275C12.4719 93.5461 12.2729 93.6159 12.0661 93.6303H12.0487C11.6816 93.6626 11.3383 93.8251 11.0804 94.0883C10.8226 94.3515 10.6672 94.6979 10.6423 95.0656C10.6057 95.6145 11.1854 96.107 11.6449 96.4181C11.8087 96.5251 11.9437 96.6706 12.038 96.8419C12.1323 97.0136 12.1831 97.2054 12.1859 97.4012C12.1921 97.7071 12.2624 98.0083 12.3924 98.2855C12.5223 98.5627 12.709 98.8094 12.9404 99.0098C13.1717 99.2101 13.4425 99.3598 13.7353 99.4489C14.0281 99.5382 14.3364 99.5648 14.6401 99.5273C14.9439 99.4897 15.2364 99.3888 15.4987 99.2312C15.761 99.0735 15.9874 98.8625 16.163 98.6118C16.3387 98.3612 16.4597 98.0766 16.5184 97.7763C16.5771 97.4759 16.572 97.1664 16.5036 96.8682C16.4374 96.5635 16.4337 96.2488 16.4928 95.943C16.552 95.6371 16.6726 95.3465 16.8476 95.0888C17.1154 94.6933 17.2464 94.2213 17.2205 93.7443Z" fill="#CEDEE7"/>
<path fill-rule="evenodd" clip-rule="evenodd" d="M23.2737 92.7196C23.573 93.1575 23.7855 93.6488 23.8997 94.1666C23.9996 94.6094 24.2188 95.0162 24.5334 95.3431C24.6198 95.4358 24.6992 95.5346 24.7709 95.6388C25.0229 96.013 25.1555 96.4549 25.1513 96.9059C25.1471 97.3569 25.0064 97.796 24.7476 98.1653C24.4888 98.5349 24.1241 98.817 23.7017 98.9749C23.2792 99.1332 22.8188 99.1594 22.3811 99.0502C21.9219 98.9423 21.4424 98.9563 20.9903 99.0911C20.2496 99.3076 19.4635 99.3149 18.719 99.1121C17.9744 98.9097 17.3003 98.5053 16.7713 97.9436C16.2422 97.3819 15.8788 96.6848 15.7211 95.9295C15.5634 95.1741 15.6177 94.3901 15.8779 93.6637C16.1381 92.9371 16.5941 92.2967 17.1954 91.8133C17.7968 91.33 18.5202 91.022 19.2855 90.9241C20.0509 90.8259 20.8284 90.9415 21.5323 91.2577C22.2361 91.574 22.8388 92.0786 23.2737 92.716" fill="#DEEDF2"/>
<path fill-rule="evenodd" clip-rule="evenodd" d="M22.1835 96.9146L19.9156 98.632C19.8647 98.6713 19.8312 98.729 19.8225 98.7927C19.8139 98.8561 19.8307 98.9208 19.8693 98.972C19.9084 99.0229 19.9661 99.0565 20.0298 99.0653C20.0934 99.0739 20.1579 99.0571 20.2093 99.0184L22.0231 97.6388C22.0825 97.5946 22.1297 97.5357 22.1604 97.4683C22.1912 97.4006 22.2045 97.3265 22.199 97.2524L22.1835 96.9146Z" fill="#CEDEE7"/>
<path fill-rule="evenodd" clip-rule="evenodd" d="M20.7861 105.619H19.5273V97.5231C19.527 97.3792 19.5554 97.2368 19.6108 97.1041C19.6662 96.9715 19.7475 96.8513 19.8499 96.7504L20.7861 95.8301V105.619Z" fill="#CEDEE7"/>
<path fill-rule="evenodd" clip-rule="evenodd" d="M119.812 118.302H0L3.59131 111.973H119.812V118.302Z" fill="#EAF7FE"/>
<path fill-rule="evenodd" clip-rule="evenodd" d="M104.307 109.333H5.13672L7.3872 105.365H104.307V109.333Z" fill="#EAF7FE"/>
<path fill-rule="evenodd" clip-rule="evenodd" d="M62.8594 104.092V105.492H69.0415V104.092H68.4292V76.5436C68.4337 76.467 68.4228 76.3902 68.3965 76.3179C68.3706 76.2459 68.33 76.1798 68.2773 76.1239C68.2248 76.0678 68.1614 76.0233 68.091 75.9928C68.0205 75.9623 67.9446 75.9468 67.8678 75.9468C67.7909 75.9468 67.715 75.9623 67.6445 75.9928C67.5741 76.0233 67.5107 76.0678 67.4582 76.1239C67.4055 76.1798 67.3649 76.2459 67.339 76.3179C67.3128 76.3902 67.3018 76.467 67.3064 76.5436V77.3452H64.6021V76.5454C64.6064 76.4688 64.5951 76.392 64.5686 76.32C64.5424 76.2478 64.5015 76.1819 64.4487 76.1261C64.396 76.07 64.3326 76.0258 64.2621 75.9953C64.1914 75.9648 64.1154 75.9492 64.0386 75.9492C63.962 75.9492 63.8861 75.9648 63.8154 75.9953C63.7449 76.0258 63.6815 76.07 63.6287 76.1261C63.576 76.1819 63.5351 76.2478 63.5089 76.32C63.4824 76.392 63.4711 76.4688 63.4757 76.5454V104.092H62.8594ZM64.5997 94.6953C64.5997 94.3355 64.7427 93.9903 64.9973 93.736C65.2517 93.4814 65.5969 93.3383 65.957 93.3383C66.3168 93.3383 66.662 93.4814 66.9163 93.736C67.171 93.9903 67.314 94.3355 67.314 94.6953V96.0822H64.5997V94.6953ZM64.5997 89.9891C64.5997 89.6293 64.7427 89.2841 64.9973 89.0298C65.2517 88.7751 65.5969 88.6321 65.957 88.6321C66.3168 88.6321 66.662 88.7751 66.9163 89.0298C67.171 89.2841 67.314 89.6293 67.314 89.9891V91.3781H64.5997V89.9891ZM64.5997 85.2908C64.5997 84.931 64.7427 84.5858 64.9973 84.3315C65.2517 84.0768 65.5969 83.9338 65.957 83.9338C66.3168 83.9338 66.662 84.0768 66.9163 84.3315C67.171 84.5858 67.314 84.931 67.314 85.2908V86.678H64.5997V85.2908ZM64.5997 80.5926C64.5997 80.2328 64.7427 79.8876 64.9973 79.6333C65.2517 79.3787 65.5969 79.2356 65.957 79.2356C66.3168 79.2356 66.662 79.3787 66.9163 79.6333C67.171 79.8876 67.314 80.2328 67.314 80.5926V81.9759H64.5997V80.5926Z" fill="#EAF7FE"/>
<path fill-rule="evenodd" clip-rule="evenodd" d="M33.0938 104.091V105.492H39.2756V104.091H38.6657V77.7657V76.5429C38.6672 76.4679 38.6541 76.3935 38.6266 76.3236C38.5992 76.2538 38.558 76.1904 38.5056 76.1367C38.4531 76.083 38.3906 76.0406 38.3217 76.0114C38.2525 75.9824 38.1784 75.9675 38.1034 75.9675C38.0283 75.9675 37.9542 75.9824 37.8853 76.0114C37.8161 76.0406 37.7536 76.083 37.7011 76.1367C37.6487 76.1904 37.6078 76.2538 37.5801 76.3236C37.5526 76.3935 37.5395 76.4679 37.5413 76.5429V77.3446H34.8371V76.5447C34.8414 76.4679 34.8301 76.3913 34.8036 76.3191C34.7773 76.2471 34.7365 76.1809 34.6837 76.1251C34.6313 76.0693 34.5675 76.0248 34.4971 75.9943C34.4267 75.9641 34.3504 75.9482 34.2739 75.9482C34.197 75.9482 34.1211 75.9641 34.0504 75.9943C33.9799 76.0248 33.9165 76.0693 33.8637 76.1251C33.811 76.1809 33.7701 76.2471 33.7439 76.3191C33.7174 76.3913 33.7061 76.4679 33.7106 76.5447V77.3446V104.091H33.0938ZM34.8344 94.6947C34.8304 94.5138 34.8628 94.3345 34.9292 94.1665C34.9957 93.9985 35.0951 93.8454 35.2214 93.7164C35.3479 93.5871 35.4986 93.4846 35.6654 93.4145C35.8319 93.3447 36.0106 93.3084 36.1914 93.3084C36.3719 93.3084 36.5509 93.3447 36.7174 93.4145C36.8839 93.4846 37.0349 93.5871 37.1611 93.7164C37.2877 93.8454 37.3868 93.9985 37.4532 94.1665C37.5197 94.3345 37.552 94.5138 37.5484 94.6947V96.0815H34.8344V94.6947ZM34.8341 89.9884C34.8414 89.6335 34.9878 89.2956 35.2415 89.0474C35.4952 88.7989 35.8358 88.6598 36.1911 88.6598C36.546 88.6598 36.8869 88.7989 37.1404 89.0474C37.3941 89.2956 37.5404 89.6335 37.5481 89.9884V91.3775H34.8341V89.9884ZM34.8341 85.2901C34.8414 84.9352 34.9878 84.5973 35.2415 84.3491C35.4952 84.1005 35.8358 83.9615 36.1911 83.9615C36.546 83.9615 36.8869 84.1005 37.1404 84.3491C37.3941 84.5973 37.5404 84.9352 37.5481 85.2901V86.6773H34.8341V85.2901ZM34.8341 80.5919C34.8414 80.237 34.9878 79.8991 35.2415 79.6509C35.4952 79.4024 35.8358 79.2633 36.1911 79.2633C36.546 79.2633 36.8869 79.4024 37.1404 79.6509C37.3941 79.8991 37.5404 80.237 37.5481 80.5919V81.9752H34.8341V80.5919Z" fill="#EAF7FE"/>
<path fill-rule="evenodd" clip-rule="evenodd" d="M63.4766 101.047L68.4377 99.5977H63.4766V101.047Z" fill="#9BC3D3"/>
<path fill-rule="evenodd" clip-rule="evenodd" d="M33.707 101.047L38.6681 99.5977H33.707V101.047Z" fill="#9BC3D3"/>
<path d="M74.6696 97.3066H27.4648V99.5977H74.6696V97.3066Z" fill="#9BC3D3"/>
<path d="M37.9219 83.1908C40.642 88.942 45.5082 92.7749 51.0585 92.7749C56.6088 92.7749 61.508 88.9109 64.2201 83.1387" stroke="#DEEDF2" stroke-width="2.401"/>
<path d="M27.4219 91.2503C30.449 89.6122 32.9914 86.7512 34.6875 83.1367" stroke="#DEEDF2" stroke-width="2.401"/>
<path d="M74.9552 91.2503C71.9277 89.6122 69.3836 86.7512 67.6875 83.1367" stroke="#DEEDF2" stroke-width="2.401"/>
<path d="M69.0511 103.962H62.8672V105.363H69.0511V103.962Z" fill="#9BC3D3"/>
<path d="M39.2816 103.962H33.0977V105.363H39.2816V103.962Z" fill="#9BC3D3"/>
<path fill-rule="evenodd" clip-rule="evenodd" d="M105.527 100.252C105.765 99.6592 106.045 99.0847 106.365 98.5324H142.891V84.3337H146.31V87.1391H148.823V98.5745L150.817 98.5897V83.9067H154.476V86.3487H160.001V97.8182C160.001 101 158.737 104.052 156.487 106.301C154.237 108.551 151.186 109.815 148.004 109.815H143.679C141.798 112.268 139.414 114.29 136.687 115.745C133.96 117.2 130.953 118.055 127.869 118.252C127.409 118.282 126.947 118.296 126.482 118.296H117.788C110.096 118.296 104.59 111.981 104.59 105.098C104.588 103.437 104.906 101.792 105.527 100.252Z" fill="#EAF7FE"/>
<path fill-rule="evenodd" clip-rule="evenodd" d="M112.047 98.5337H104.127C100.308 98.5337 96.6466 100.05 93.9469 102.75C91.2473 105.45 89.7305 109.112 89.7305 112.93V117.501H112.047V98.5337Z" fill="#EAF7FE"/>
<path fill-rule="evenodd" clip-rule="evenodd" d="M91.3669 105.697C90.7469 106.056 90.1947 106.52 89.7345 107.069C87.8817 109.539 86.4869 110.595 83.4753 111.348C82.1247 111.725 80.7329 111.935 79.3314 111.974C79.1246 111.974 78.7383 112.125 78.7383 112.331V115.138L92.0033 115.562L95.1716 111.607L91.3669 105.697Z" fill="#EAF7FE"/>
<path d="M71.0888 58.5326C64.327 54.0096 56.3747 51.5952 48.2398 51.5952C40.1045 51.5952 32.1525 54.0096 25.3906 58.5326" stroke="#DEEDF2" stroke-width="1.14" stroke-dasharray="1.72"/>
<path fill-rule="evenodd" clip-rule="evenodd" d="M35.911 51.7576L33.3242 47.2505C33.3242 47.2505 34.8096 46.9645 35.5052 47.542C35.9379 47.9034 37.5702 50.156 40.0278 50.8263C41.1326 51.1276 42.1179 51.3169 42.1179 51.3169L37.7791 51.771L35.911 51.7576Z" fill="#9BC3D3"/>
<path fill-rule="evenodd" clip-rule="evenodd" d="M60.3828 53.0342C60.3669 53.0966 60.3355 53.1538 60.2913 53.2004C59.8449 53.6932 58.0543 53.7548 58.0543 53.7548H43.7585C42.5455 53.752 41.3361 53.6225 40.1498 53.3685L39.3152 53.1907L35.125 52.3042V51.7248L42.207 51.1299C42.207 51.1299 56.049 51.1994 57.0168 51.2534C58.0811 51.3143 58.3891 51.5583 59.1091 51.9084L59.1396 51.924C59.3317 52.0163 59.5186 52.1188 59.6997 52.231C60.1364 52.5033 60.4261 52.7872 60.3721 53.0171" fill="#EAF7FE"/>
<path d="M60.2886 53.2002C59.8422 53.6929 58.0515 53.7546 58.0515 53.7546H43.7558C42.5428 53.7518 41.3334 53.6223 40.1471 53.3682L39.3125 53.1904L60.2886 53.2002Z" fill="#DEEDF2"/>
<path fill-rule="evenodd" clip-rule="evenodd" d="M38.5865 52.0934L34.1432 51.543H33.4961L35.8045 52.1879C36.1601 52.2888 36.5263 52.3459 36.8959 52.3581C37.4658 52.3794 38.2483 52.3581 38.5902 52.0934" fill="#9BC3D3"/>
<path fill-rule="evenodd" clip-rule="evenodd" d="M39.4326 51.7649L38.0418 51.7747L36.8516 50.1055H37.3599L39.4326 51.7649Z" fill="#EAF7FE"/>
<path fill-rule="evenodd" clip-rule="evenodd" d="M49.0488 52.9567C49.0488 52.9567 47.6674 53.3431 46.5373 53.5846C45.7526 53.7591 44.932 53.651 44.2197 53.2797L43.5665 52.9415C43.5665 52.9415 39.0128 52.2532 38.0352 51.7653L39.4202 51.7559L49.0488 52.9567Z" fill="#9BC3D3"/>
<path fill-rule="evenodd" clip-rule="evenodd" d="M49.6016 52.7619L50.2776 52.9629V52.5591L49.6016 52.7619Z" fill="#9BC3D3"/>
<path fill-rule="evenodd" clip-rule="evenodd" d="M50.1953 52.4621V53.0592C50.5576 53.2291 50.9537 53.3143 51.3541 53.3084V52.209C50.9537 52.2009 50.5573 52.2855 50.1953 52.4563" fill="#9BC3D3"/>
<path fill-rule="evenodd" clip-rule="evenodd" d="M53.1525 52.0297V53.5017C53.1525 53.5017 53.0772 53.5191 52.9595 53.5404C52.5326 53.6197 51.5184 53.7627 50.8594 53.5017V52.0297C51.5184 51.7668 52.5326 51.9099 52.9595 51.9892C53.0815 52.0123 53.1525 52.0297 53.1525 52.0297Z" fill="#9BC3D3"/>
<path d="M114.583 94.0225H113.969V103.574H114.583V94.0225Z" fill="#CEDEE7"/>
<path fill-rule="evenodd" clip-rule="evenodd" d="M113.55 89.9153C113.686 89.5353 113.904 89.1895 114.188 88.9022C114.472 88.6153 114.815 88.3936 115.193 88.253C115.572 88.1128 115.976 88.0566 116.379 88.089C116.781 88.1213 117.171 88.2411 117.523 88.4403C117.874 88.6394 118.177 88.9132 118.411 89.242C118.645 89.5707 118.805 89.9467 118.879 90.3434C118.952 90.7404 118.938 91.1488 118.837 91.5397C118.737 91.9303 118.552 92.2947 118.295 92.6064L118.185 92.732C118.085 92.879 118.004 93.0382 117.943 93.2053C117.861 93.434 117.793 93.6673 117.739 93.9045C117.714 94.1009 117.671 94.2949 117.613 94.4839C117.427 95.0941 117.082 95.6436 116.613 96.076C116.144 96.5084 115.569 96.8079 114.945 96.9436C114.322 97.0793 113.674 97.0467 113.068 96.8488C112.461 96.6505 111.919 96.2944 111.496 95.8171C111.073 95.3396 110.785 94.7581 110.661 94.1323C110.538 93.5066 110.584 92.8592 110.794 92.2569C111.004 91.6547 111.371 91.1192 111.857 90.706C112.342 90.2925 112.929 90.0162 113.557 89.9052L113.55 89.9153Z" fill="#DEEDF2"/>
<path d="M118.886 93.8643H118.301V103.29H118.886V93.8643Z" fill="#CEDEE7"/>
<path fill-rule="evenodd" clip-rule="evenodd" d="M118.301 97.8477L118.884 97.5059V94.1851H118.301V97.8477Z" fill="#CEDEE7"/>
<path fill-rule="evenodd" clip-rule="evenodd" d="M121.693 91.3817C121.664 90.8923 121.473 90.4266 121.149 90.0586C120.825 89.6905 120.388 89.4417 119.906 89.3511C119.424 89.2608 118.926 89.334 118.491 89.5597C118.056 89.785 117.708 90.1497 117.504 90.5956C117.419 90.7843 117.285 90.9469 117.114 91.0652C116.944 91.1835 116.745 91.2536 116.539 91.268H116.521C116.154 91.3003 115.811 91.4625 115.553 91.7257C115.295 91.9889 115.14 92.3356 115.115 92.7033C115.078 93.2522 115.658 93.7444 116.118 94.0554C116.281 94.1625 116.416 94.3082 116.51 94.4796C116.605 94.6513 116.656 94.8431 116.659 95.0389C116.665 95.3447 116.735 95.646 116.865 95.9232C116.995 96.2001 117.182 96.4468 117.413 96.6472C117.644 96.8478 117.915 96.9972 118.208 97.0863C118.501 97.1756 118.809 97.2022 119.113 97.1646C119.417 97.1271 119.709 97.0262 119.971 96.8685C120.234 96.7109 120.46 96.4999 120.636 96.2492C120.811 95.9985 120.932 95.714 120.991 95.4134C121.05 95.113 121.045 94.8038 120.976 94.5055C120.91 94.2012 120.906 93.8865 120.965 93.5807C121.024 93.2748 121.145 92.9842 121.32 92.7265C121.588 92.331 121.719 91.8586 121.693 91.3817Z" fill="#CEDEE7"/>
<path fill-rule="evenodd" clip-rule="evenodd" d="M121.693 91.3817C121.664 90.8923 121.473 90.4266 121.149 90.0586C120.825 89.6905 120.388 89.4417 119.906 89.3511C119.424 89.2608 118.926 89.334 118.491 89.5597C118.056 89.785 117.708 90.1497 117.504 90.5956C117.419 90.7843 117.285 90.9469 117.114 91.0652C116.944 91.1835 116.745 91.2536 116.539 91.268H116.521C116.154 91.3003 115.811 91.4625 115.553 91.7257C115.295 91.9889 115.14 92.3356 115.115 92.7033C115.078 93.2522 115.658 93.7444 116.118 94.0554C116.281 94.1625 116.416 94.3082 116.51 94.4796C116.605 94.6513 116.656 94.8431 116.659 95.0389C116.665 95.3447 116.735 95.646 116.865 95.9232C116.995 96.2001 117.182 96.4468 117.413 96.6472C117.644 96.8478 117.915 96.9972 118.208 97.0863C118.501 97.1756 118.809 97.2022 119.113 97.1646C119.417 97.1271 119.709 97.0262 119.971 96.8685C120.234 96.7109 120.46 96.4999 120.636 96.2492C120.811 95.9985 120.932 95.714 120.991 95.4134C121.05 95.113 121.045 94.8038 120.976 94.5055C120.91 94.2012 120.906 93.8865 120.965 93.5807C121.024 93.2748 121.145 92.9842 121.32 92.7265C121.588 92.331 121.719 91.8586 121.693 91.3817Z" fill="#CEDEE7"/>
<path fill-rule="evenodd" clip-rule="evenodd" d="M127.742 90.3581C128.042 90.796 128.254 91.2873 128.368 91.8051C128.468 92.2475 128.687 92.6543 129.002 92.9815C129.088 93.0739 129.168 93.1727 129.239 93.277C129.492 93.6512 129.624 94.0928 129.62 94.5441C129.616 94.9951 129.475 95.4342 129.216 95.8035C128.958 96.1731 128.593 96.4554 128.17 96.6134C127.748 96.7714 127.288 96.7976 126.85 96.6887C126.391 96.5808 125.911 96.5948 125.459 96.7293C124.718 96.9458 123.932 96.9528 123.188 96.7503C122.443 96.5478 121.769 96.1435 121.24 95.5818C120.711 95.0201 120.347 94.323 120.19 93.5676C120.032 92.8123 120.086 92.0283 120.347 91.3016C120.607 90.5752 121.063 89.9349 121.664 89.4515C122.266 88.9682 122.989 88.6602 123.754 88.5623C124.52 88.4641 125.297 88.5797 126.001 88.8959C126.705 89.2121 127.308 89.7168 127.742 90.3542" fill="#DEEDF2"/>
<path fill-rule="evenodd" clip-rule="evenodd" d="M126.653 94.5518L124.385 96.2692C124.333 96.3085 124.3 96.3662 124.291 96.4299C124.283 96.4933 124.299 96.558 124.338 96.6092C124.377 96.6601 124.435 96.6937 124.499 96.7022C124.562 96.7111 124.627 96.6943 124.678 96.6556L126.492 95.2763C126.551 95.2318 126.599 95.1732 126.629 95.1055C126.66 95.0381 126.673 94.964 126.668 94.8899L126.653 94.5518Z" fill="#CEDEE7"/>
<path fill-rule="evenodd" clip-rule="evenodd" d="M125.256 103.255H123.996V95.1607C123.996 95.0168 124.024 94.8744 124.08 94.7417C124.135 94.6091 124.216 94.4886 124.319 94.388L125.256 93.4683V103.255Z" fill="#CEDEE7"/>
<path fill-rule="evenodd" clip-rule="evenodd" d="M120.696 114.602H118.266V56.1914H120.696V114.602Z" fill="#9BC3D3"/>
<path fill-rule="evenodd" clip-rule="evenodd" d="M138.167 56.4656C138.189 56.4657 138.211 56.4615 138.232 56.4532C138.252 56.4449 138.271 56.4327 138.286 56.4172C138.302 56.4018 138.315 56.3833 138.323 56.3631C138.332 56.3427 138.336 56.321 138.336 56.2989C138.336 56.2769 138.332 56.2551 138.324 56.2347C138.316 56.2143 138.303 56.1957 138.288 56.18C138.272 56.1644 138.254 56.1519 138.234 56.1433C138.213 56.1348 138.192 56.1303 138.17 56.1301L121.65 54.8296L119.546 56.143C119.538 56.1481 119.531 56.1552 119.527 56.1637C119.522 56.1721 119.52 56.1816 119.52 56.1913C119.52 56.2009 119.522 56.2105 119.527 56.2189C119.531 56.2274 119.538 56.2345 119.546 56.2396L121.635 57.5765L138.167 56.4656Z" fill="#CEDEE7"/>
<path fill-rule="evenodd" clip-rule="evenodd" d="M109.865 76.4881C109.846 76.5259 109.843 76.5695 109.854 76.6104C109.867 76.6509 109.893 76.6857 109.93 76.7074C109.966 76.729 110.01 76.736 110.051 76.7269C110.093 76.718 110.129 76.6936 110.153 76.6589L119.617 58.6226L119.546 56.1434C119.546 56.1337 119.543 56.1243 119.538 56.116C119.533 56.1076 119.526 56.1007 119.518 56.0958C119.51 56.0909 119.5 56.0882 119.491 56.0879C119.481 56.0876 119.471 56.0898 119.463 56.0943L117.254 57.2226L109.865 76.4881Z" fill="#CEDEE7"/>
<path fill-rule="evenodd" clip-rule="evenodd" d="M110.048 41.2404C110.029 41.2023 110.026 41.1587 110.039 41.1183C110.051 41.0779 110.078 41.0437 110.115 41.0226C110.152 41.0014 110.195 40.9948 110.236 41.0041C110.278 41.0134 110.314 41.0379 110.338 41.0727L119.645 53.665L119.546 56.1433C119.546 56.1529 119.543 56.1624 119.538 56.1706C119.533 56.1789 119.526 56.1858 119.518 56.1907C119.51 56.1955 119.5 56.1981 119.491 56.1983C119.481 56.1986 119.471 56.1963 119.463 56.1918L117.267 55.0388L110.048 41.2404Z" fill="#CEDEE7"/>
<path fill-rule="evenodd" clip-rule="evenodd" d="M118.262 56.1795C118.262 56.4237 118.334 56.6623 118.47 56.8653C118.606 57.0682 118.798 57.2264 119.024 57.3197C119.25 57.4132 119.498 57.4375 119.737 57.3899C119.977 57.3422 120.197 57.2246 120.369 57.052C120.542 56.8794 120.659 56.6594 120.707 56.42C120.755 56.1805 120.73 55.9323 120.637 55.7068C120.543 55.4812 120.385 55.2885 120.182 55.1529C119.979 55.0172 119.74 54.9448 119.496 54.9448C119.169 54.945 118.855 55.0751 118.623 55.3067C118.392 55.5382 118.262 55.8522 118.262 56.1795Z" fill="#DEEDF2"/>
<path fill-rule="evenodd" clip-rule="evenodd" d="M98.3619 105.915H97.1602V77.0283H98.3619V105.915Z" fill="#9BC3D3"/>
<path fill-rule="evenodd" clip-rule="evenodd" d="M99.4637 67.9471C99.4661 67.9262 99.46 67.9052 99.4475 67.8884C99.4347 67.8716 99.4161 67.8602 99.3954 67.8567C99.3747 67.8531 99.3533 67.8576 99.3356 67.8692C99.3182 67.8808 99.3054 67.8986 99.3006 67.9191L97.3242 75.8717L97.7938 77.0049C97.7957 77.0094 97.7987 77.0131 97.8024 77.0161C97.806 77.0192 97.8103 77.0213 97.8152 77.0219C97.8198 77.0229 97.8246 77.0225 97.8292 77.021C97.8338 77.0192 97.8377 77.0168 97.8408 77.0131L98.6641 76.1025L99.4637 67.9471Z" fill="#CEDEE7"/>
<path fill-rule="evenodd" clip-rule="evenodd" d="M106.932 83.3803C106.948 83.3924 106.969 83.3979 106.99 83.3952C107.011 83.3928 107.03 83.3824 107.043 83.3662C107.057 83.3504 107.064 83.3299 107.063 83.3089C107.062 83.2879 107.053 83.268 107.039 83.2534L99.0088 77.1719L97.7936 77.0051C97.7888 77.0045 97.7839 77.0051 97.7796 77.0066C97.775 77.0085 97.7711 77.0112 97.768 77.0149C97.765 77.0185 97.7628 77.0231 97.7622 77.0277C97.7613 77.0323 97.7616 77.0371 97.7631 77.0417L98.134 78.2109L106.932 83.3803Z" fill="#CEDEE7"/>
<path fill-rule="evenodd" clip-rule="evenodd" d="M89.7522 80.4278C89.7321 80.4342 89.7101 80.4324 89.6912 80.4232C89.672 80.4138 89.6574 80.3976 89.6498 80.3781C89.6424 80.3583 89.6428 80.3363 89.651 80.3168C89.6589 80.2973 89.6745 80.2814 89.6937 80.2729L96.5927 76.7554L97.7936 77.0048C97.7981 77.0057 97.8024 77.0079 97.8061 77.0109C97.8097 77.0143 97.8125 77.0182 97.8143 77.0225C97.8158 77.0271 97.8164 77.032 97.8158 77.0365C97.8149 77.0414 97.8131 77.0457 97.8103 77.0496L97.0696 78.027L89.7522 80.4278Z" fill="#CEDEE7"/>
<path fill-rule="evenodd" clip-rule="evenodd" d="M97.7057 77.6323C97.8247 77.6522 97.9469 77.636 98.0567 77.5863C98.1668 77.5366 98.2595 77.4555 98.3232 77.353C98.3867 77.2506 98.4187 77.1316 98.4147 77.0109C98.4108 76.8904 98.3714 76.7736 98.301 76.6757C98.2308 76.5776 98.1333 76.5025 98.0204 76.4601C97.9073 76.4175 97.7844 76.4095 97.667 76.4367C97.5496 76.4641 97.4429 76.5257 97.3602 76.6135C97.2779 76.7017 97.2233 76.8121 97.2035 76.931C97.1904 77.0103 97.1931 77.0911 97.2111 77.1691C97.2294 77.2469 97.2626 77.3207 97.3093 77.386C97.356 77.4509 97.4151 77.5064 97.4831 77.5485C97.5511 77.5909 97.6267 77.6195 97.7057 77.6323Z" fill="#DEEDF2"/>
<path fill-rule="evenodd" clip-rule="evenodd" d="M137.082 69.0835L142.447 78.377H148.771V100.043H150.013V78.377H156.316L150.951 69.0835H137.082Z" fill="#9BC3D3"/>
<path fill-rule="evenodd" clip-rule="evenodd" d="M137.082 69.0835L142.449 78.3779H148.772V82.3068H150.014V78.3779H156.316L155.453 76.8831H144.88L140.375 69.0835H137.082Z" fill="#CEDEE7"/>
<path fill-rule="evenodd" clip-rule="evenodd" d="M132.676 86.3955L135.895 91.9717H139.689V98.3968H140.434L140.435 91.9717H144.216L140.997 86.3955H132.676Z" fill="#9BC3D3"/>
<path fill-rule="evenodd" clip-rule="evenodd" d="M132.676 86.396L135.896 91.9725L139.69 91.9722L139.689 94.3297H140.435L140.435 91.9722L144.216 91.9725L143.698 91.0756H137.355L134.652 86.396H132.676Z" fill="#CEDEE7"/>
</svg>
