<svg width="160" height="161" viewBox="0 0 160 161" fill="none" xmlns="http://www.w3.org/2000/svg">
<path fill-rule="evenodd" clip-rule="evenodd" d="M69.4424 128.416L68.3711 128.188L75.2023 96.0496L76.2736 96.2773L69.4424 128.416ZM103.678 128.416L104.749 128.188L97.9179 96.0496L96.8466 96.2773L103.678 128.416Z" fill="#767676"/>
<rect x="64.5371" y="83.6372" width="44.0518" height="12.6558" rx="6.32789" fill="#9E3667"/>
<path fill-rule="evenodd" clip-rule="evenodd" d="M94.407 81.6091L93.3293 84.7644C91.5015 90.1159 87.2679 94.2989 81.8967 96.0608L74.8573 98.3695L71.236 123.493L64.3079 126.155L64.4394 96.2321C65.0403 93.2019 66.6433 90.4619 68.9905 88.4535L81.0897 78.1011L94.407 81.6091Z" fill="#9BC3D3"/>
<path fill-rule="evenodd" clip-rule="evenodd" d="M64.4221 130.955L68.5569 129.395L65.7751 94.1165L83.9027 78.8178L71.6646 75.6827L64.4112 80.0349C57.4044 84.1039 55.2196 87.1946 56.0438 92.3323L61.2851 123.264L61.4049 127.887L64.4221 130.955Z" fill="#CEDEE7"/>
<path fill-rule="evenodd" clip-rule="evenodd" d="M66.4204 122.978L67.5248 119.478L72.4962 121.695L76.1429 128.755L66.1509 132.217L59.3967 137.079L56.8918 136.012L60.5189 130.83L60.6547 121.896L66.053 122.597L66.4204 122.978Z" fill="#34466B"/>
<path fill-rule="evenodd" clip-rule="evenodd" d="M80.533 41.8421C80.533 41.8421 83.3774 43.0763 84.8055 43.0763C85.325 43.0763 86.9798 42.8623 88.5815 42.3962C90.1833 41.9302 92.2539 41.0254 92.2539 41.0254L88.2317 45.7035L83.6999 50.183L81.4964 50.3673L80.533 41.8421Z" fill="white"/>
<path fill-rule="evenodd" clip-rule="evenodd" d="M101.886 43.9994C100.108 42.7725 98.7057 41.0256 96.2738 41.0256C96.2738 41.0256 93.7269 41.0254 92.4535 41.0254C90.7788 41.0254 84.5829 50.0398 82.8564 50.0398C81.8321 50.0398 80.5334 41.8421 80.5334 41.8421C75.2287 41.8421 73.5245 43.5612 70.8722 48.1538L63.8039 61.5563C60.5457 67.1979 59.3156 70.7243 63.8039 75.4469C65.2767 76.9967 67.2975 77.9089 69.4344 77.9886L72.2024 78.092C72.2024 78.092 80.6592 78.8351 83.8605 79.452C89.9408 80.6237 92.0217 83.2989 94.4114 81.3572C98.7752 77.8114 99.332 75.6839 99.332 75.6839C99.332 75.6839 103.464 62.2546 103.562 54.4947C103.663 46.5209 102.279 44.2707 101.886 43.9994Z" fill="#2274C0"/>
<path fill-rule="evenodd" clip-rule="evenodd" d="M91.1987 67.3482C91.1987 67.3482 96.6665 67.576 95.0718 73.877C93.477 80.178 87.7054 76.3822 87.7054 76.3822L81.3262 72.0549L76.7836 71.665L76.4986 71.791C75.5018 72.2317 74.8683 71.5333 74.0311 70.8359L71.2815 70.3602C69.9879 70.2491 68.9478 69.9952 68.9478 68.6971C68.9478 68.6971 73.0689 65.7415 77.3169 65.7415C79.8393 65.7415 81.6301 67.0445 81.6301 67.0445L91.1987 67.3482Z" fill="#FFC4B8"/>
<path fill-rule="evenodd" clip-rule="evenodd" d="M89.923 28.8367C91.7055 27.527 92.8633 25.4159 92.8633 23.0365C92.8633 19.0665 89.6401 15.8433 85.6701 15.8433C82.0043 15.8433 78.9754 18.5913 78.5326 22.1378C78.4551 22.5073 78.3988 22.8809 78.3601 23.2544L78.36 23.255L78.3588 23.2632L78.3585 23.2661C78.347 23.3779 78.3371 23.4895 78.3286 23.601L77.8332 29.1517L78.9609 29.5292L78.9726 29.5318L78.9727 29.5318C79.0007 29.6286 79.0162 29.6808 79.0162 29.6808L79.0468 30.4317L79.1022 31.8351C79.1214 32.2995 79.2185 32.7546 79.3876 33.1825C79.5058 33.4845 79.6619 33.7737 79.8527 34.0422C80.0767 34.3572 80.3444 34.6399 80.6432 34.8786C80.7989 35.0038 80.9643 35.1156 81.1372 35.2151C81.2287 35.268 81.3199 35.3165 81.4147 35.3621L81.4153 35.3624L80.9309 44.1299C80.9309 44.1299 83.4904 44.9011 86.2931 44.2892C87.9872 43.9224 89.7719 43.0467 91.1333 41.193C91.1333 41.193 89.5219 34.2086 89.923 28.8367Z" fill="#FFC4B8"/>
<path fill-rule="evenodd" clip-rule="evenodd" d="M86.2652 44.1854C87.9595 43.8187 89.744 42.943 91.1055 41.0892C91.1055 41.0892 89.3625 33.6053 89.9533 28.1665C89.9533 28.1665 85.9885 37.8327 86.2652 44.1854ZM78.9608 29.5606C79.3556 29.6764 79.7442 29.3663 79.7185 28.9562L79.5525 26.3123L78.9608 29.5606Z" fill="#F4A48D"/>
<g clip-path="url(#clip0_1483_77145)">
<path fill-rule="evenodd" clip-rule="evenodd" d="M79.0358 16.6997C81.1328 14.751 84.1641 13.9457 87.082 14.8473C90.8924 16.0246 93.2595 19.7254 92.9432 23.5913C93.0429 23.5872 93.1432 23.5852 93.244 23.5852C97.2874 23.5852 100.57 26.9119 100.57 31.0095C100.57 35.1071 97.2874 38.4339 93.244 38.4339C92.5898 38.4339 91.1142 38.3341 90.5105 38.1707C90.1819 37.3466 89.7161 33.9262 89.8771 29.4018C89.8771 29.3815 88.377 28.6511 88.377 28.6511L88.3657 28.6175C88.4204 28.6455 88.4776 28.6688 88.5371 28.6872C89.0238 28.8376 89.5648 28.6254 90.0221 28.1695C90.0796 28.1122 90.1358 28.0511 90.1903 27.9863L90.2066 27.9669L90.2073 27.9661C90.2234 27.9467 90.2393 27.9269 90.2552 27.9068L90.2707 27.8869L90.2718 27.8855L90.2867 27.8661L90.2877 27.8647C90.3031 27.8446 90.3183 27.8241 90.3333 27.8033L90.3344 27.8018L90.3486 27.782L90.3502 27.7799L90.3643 27.7599L90.3654 27.7582L90.3799 27.7374L90.3951 27.715L90.409 27.6945L90.4106 27.6921L90.4239 27.6718L90.4256 27.6692L90.4391 27.6485L90.4401 27.6469L90.454 27.6252L90.4676 27.6035L90.4689 27.6014L90.4818 27.5805L90.4837 27.5774L90.4963 27.5566L90.498 27.5538L90.5108 27.5322L90.5252 27.5077L90.5378 27.4859L90.5395 27.4829L90.5516 27.4616L90.5535 27.4581L90.5655 27.4366L90.567 27.4338L90.5796 27.4107L90.5919 27.3879L90.5931 27.3856L90.6048 27.3634L90.6067 27.3598L90.618 27.3379L90.6199 27.3343L90.6313 27.3119L90.6325 27.3094L90.6445 27.2855L90.656 27.2621L90.6575 27.2589L90.6684 27.2363L90.6702 27.2324L90.6809 27.2098L90.6826 27.2062L90.6935 27.1827L90.6943 27.181L90.705 27.1574L90.7059 27.1554L90.7164 27.1318L90.7181 27.128L90.7282 27.1049L90.73 27.1008L90.7401 27.0773L90.7415 27.074L90.752 27.0489L90.7622 27.0242L90.7634 27.0212L90.7731 26.9972L90.7748 26.993L90.7841 26.9693L90.7857 26.9651L90.7952 26.9408L90.7962 26.9381L90.8061 26.9119L90.8155 26.8867L90.8168 26.883L90.8257 26.8586L90.8272 26.8542L90.8359 26.8296L90.8373 26.8258L90.8461 26.8003L90.8553 26.7731L90.8561 26.7706L90.8645 26.7452L90.8659 26.741L90.8739 26.716L90.8754 26.7116L90.8833 26.6862L90.8844 26.6828L90.8926 26.656L90.899 26.6347L90.9006 26.6291L90.9069 26.6077L90.913 26.5865L90.9145 26.581L90.9206 26.5594L90.9263 26.5383L90.9278 26.533L90.9325 26.5152L90.9336 26.5111L90.9391 26.4901L90.9404 26.4852L90.9449 26.4676L90.946 26.463L90.9512 26.442L90.9524 26.4375L90.9566 26.4199L90.9578 26.4149L90.9628 26.394L90.9637 26.39L90.9678 26.3722L90.969 26.3669L90.9737 26.346L90.9783 26.3245L90.9795 26.3191L90.9839 26.2981L90.9883 26.2768L90.9894 26.2714L90.9936 26.2503L90.9976 26.2292L90.9987 26.2238L91.0026 26.2026L91.0064 26.1817L91.0073 26.1764L91.0111 26.155L91.0145 26.1343L91.0154 26.1292L91.0182 26.1116L91.0189 26.1076L91.0221 26.087L91.0228 26.0822L91.0254 26.0649L91.0261 26.0604L91.029 26.0398L91.0296 26.0355L91.032 26.0182L91.0327 26.0133L91.0354 25.9928L91.0359 25.9891L91.0381 25.9715L91.0387 25.9664L91.0411 25.9459L91.0435 25.925L91.0441 25.9197L91.0463 25.8992L91.0484 25.8785L91.0489 25.8733L91.0508 25.8527L91.0527 25.8322L91.0531 25.827L91.0548 25.8064L91.0564 25.7861L91.0567 25.781L91.0582 25.7603L91.0595 25.7401L91.0598 25.7353L91.0607 25.7182L91.0609 25.7144L91.062 25.6944L91.0622 25.6899L91.063 25.673L91.0631 25.6688L91.0639 25.6488L91.0641 25.6448L91.0646 25.6279L91.0648 25.6234L91.0653 25.6035L91.0654 25.6002L91.0657 25.583L91.0658 25.5783L91.0661 25.5584L91.0662 25.5383L91.0663 25.5334L91.0663 25.5136L91.0662 25.4937L91.0662 25.4889L91.0659 25.4692L91.0655 25.4447L91.065 25.4249L91.0644 25.4054L91.0643 25.4008L91.0636 25.3836L91.0635 25.3809L91.0627 25.3615L91.0616 25.3406L91.0615 25.3373L91.0604 25.318L91.0601 25.3141L91.0591 25.2977L91.0588 25.2939L91.0573 25.2714L91.056 25.2549L91.0556 25.2509L91.0541 25.2319L91.0523 25.2124L91.0519 25.2083L91.0501 25.1893L91.0499 25.1877L91.0481 25.1702L91.0477 25.166L91.0455 25.147L91.0455 25.1469L91.0433 25.1282L91.0428 25.1241L91.0405 25.1054L91.038 25.0866L91.0375 25.0826L91.0349 25.0639L91.0321 25.0453L91.0316 25.0415L91.029 25.0248L91.0287 25.0228L91.0257 25.0043L91.0252 25.0008L91.0224 24.9846L91.022 24.982L91.0188 24.9638L91.0182 24.9606L91.0148 24.9417L91.0113 24.9235L91.0108 24.921L91.0076 24.905L91.007 24.9017L91.0029 24.882L90.9987 24.8622L90.9945 24.8436L90.9906 24.8266L90.9898 24.8232L90.9856 24.8054L90.9813 24.7879L90.9805 24.7846L90.9761 24.7671L90.9715 24.7496L90.9707 24.7465L90.966 24.7292L90.9611 24.7118L90.9603 24.7088L90.9557 24.6928L90.9503 24.6744L90.9495 24.6717L90.9447 24.6562L90.9442 24.6544L90.9388 24.6374L90.9332 24.6199L90.9325 24.6177L90.9264 24.5993L90.9203 24.5816L90.9145 24.5648L90.9086 24.5483L90.9076 24.5459L90.9015 24.5293L90.8945 24.5107L90.8882 24.4945L90.8818 24.4785L90.8808 24.4761L90.8743 24.4603L90.8676 24.4443L90.8599 24.4265L90.853 24.4106L90.852 24.4086L90.8452 24.3935L90.8451 24.3931L90.8378 24.3774L90.8301 24.3612L90.8221 24.3448L90.8144 24.3292L90.8056 24.312L90.7981 24.2976L90.7893 24.2811L90.7813 24.2666L90.7804 24.265L90.7722 24.2503L90.7641 24.236L90.7631 24.2344L90.7547 24.2201L90.7453 24.2045L90.7368 24.1905L90.7271 24.1751L90.7183 24.1615L90.7092 24.1477L90.6993 24.1331L90.6899 24.1194L90.6799 24.1052L90.6702 24.0918L90.6604 24.0785L90.6599 24.0779L90.65 24.0647L90.6444 24.0575C90.489 23.8571 90.2938 23.7121 90.0638 23.6411C89.1851 23.3696 88.1297 24.2797 87.7084 25.6722C87.6483 25.8707 87.6044 26.0683 87.5757 26.2621L87.1789 25.0814L87.105 24.857L87.1035 24.8544L86.1929 22.1436L86.1593 22.0596L85.3512 20.0152C84.4028 20.4123 83.0748 20.6593 81.6058 20.6593C78.7266 20.6593 76.3893 19.7106 76.3893 18.5421C76.3893 17.7528 77.4561 17.0639 79.0358 16.6997Z" fill="#34466B"/>
</g>
<rect x="25.6133" y="74.7263" width="108.38" height="4.44637" fill="#DEEDF2"/>
<path fill-rule="evenodd" clip-rule="evenodd" d="M126.767 79.1726H120.654V130.862H126.767V79.1726ZM37.8403 79.1726H31.7266V130.862H37.8403V79.1726Z" fill="#CEDEE7"/>
<path fill-rule="evenodd" clip-rule="evenodd" d="M33.4769 59.0948C32.4591 54.995 35.5611 51.0288 39.7854 51.0288H57.503C60.4896 51.0288 63.092 53.0641 63.8115 55.9628L66.0822 65.1104C67.1 69.2102 63.998 73.1764 59.7737 73.1764H42.0561C39.0695 73.1764 36.4671 71.1411 35.7476 68.2424L33.4769 59.0948Z" fill="#CCCCCC"/>
<path fill-rule="evenodd" clip-rule="evenodd" d="M37.4034 74.0786C37.3358 73.6024 37.7055 73.1765 38.1866 73.1765L66.0702 73.1765L67.7009 73.1765C68.0948 73.1765 68.4286 73.4664 68.484 73.8564C68.5516 74.3326 68.1819 74.7585 67.7009 74.7585H38.1866C37.7927 74.7585 37.4588 74.4686 37.4034 74.0786Z" fill="#767676"/>
<path fill-rule="evenodd" clip-rule="evenodd" d="M67.9466 74.0464C67.8999 73.5807 68.2656 73.1765 68.7337 73.1765L88.2105 73.1765L89.1327 73.1765C89.539 73.1765 89.8792 73.4843 89.9197 73.8886C89.9664 74.3543 89.6007 74.7585 89.1327 74.7585H68.7337C68.3274 74.7585 67.9872 74.4507 67.9466 74.0464Z" fill="#CCCCCC"/>
<defs>
<clipPath id="clip0_1483_77145">
<rect width="24.2303" height="23.7537" fill="white" transform="matrix(-1 0 0 1 100.57 14.479)"/>
</clipPath>
</defs>
</svg>
