<svg width="160" height="160" viewBox="0 0 160 160" fill="none" xmlns="http://www.w3.org/2000/svg">
<path fill-rule="evenodd" clip-rule="evenodd" d="M99.1795 27.3768C107.327 36.0433 118.122 41.6996 129.82 43.8256C136.921 45.1159 143.715 48.5074 149.205 54.0003C163.584 68.3868 163.601 91.5872 149.241 105.994C142.906 112.348 134.828 115.9 126.546 116.648C119.455 117.289 112.792 120.385 107.873 125.536C107.809 125.602 107.746 125.668 107.682 125.733C99.2893 134.301 85.7133 134.386 77.2191 125.92C77.1704 125.872 77.1221 125.823 77.0743 125.774C74.8053 123.469 71.5302 122.463 68.3568 123.08C50.264 126.596 30.8065 121.342 16.7932 107.317C-5.59775 84.9079 -5.59775 48.509 16.7932 26.0994C39.2022 3.67218 75.5331 3.67232 97.9415 26.0997C98.3622 26.5206 98.7749 26.9463 99.1795 27.3768Z" fill="#DEEDF2"/>
<path fill-rule="evenodd" clip-rule="evenodd" d="M156.339 143.032C156.339 147.278 122.243 150.72 80.1829 150.72C38.1233 150.72 4.02734 147.278 4.02734 143.032C4.02734 138.785 38.1233 135.343 80.1829 135.343C122.243 135.343 156.339 138.785 156.339 143.032Z" fill="#9BC3D3"/>
<path fill-rule="evenodd" clip-rule="evenodd" d="M27.6577 44.5459C25.8287 43.202 24.6406 41.0357 24.6406 38.5941C24.6406 34.5204 27.948 31.2129 32.0218 31.2129C35.7834 31.2129 38.8915 34.0327 39.3459 37.6719C39.4253 38.0511 39.4831 38.4344 39.5228 38.8177L39.523 38.8183L39.5242 38.8268L39.5245 38.8297C39.5363 38.9444 39.5465 39.059 39.5551 39.1734L40.0635 44.8692L38.9064 45.2565L38.8943 45.2592L38.8943 45.2592C38.8655 45.3585 38.8496 45.4121 38.8496 45.4121L38.8182 46.1826L38.7613 47.6227C38.7417 48.0992 38.642 48.5662 38.4685 49.0052C38.3472 49.3152 38.187 49.6119 37.9912 49.8874C37.7613 50.2107 37.4867 50.5007 37.1801 50.7457C37.0203 50.8742 36.8506 50.9889 36.6732 51.091C36.5793 51.1453 36.4857 51.1951 36.3884 51.2418L36.3878 51.2422L36.8848 60.2388C36.8848 60.2388 34.2585 61.0302 31.3825 60.4023C29.6441 60.0259 27.8128 59.1273 26.4158 57.2252C26.4158 57.2252 28.0694 50.0582 27.6577 44.5459Z" fill="#FFC4B8"/>
<path fill-rule="evenodd" clip-rule="evenodd" d="M31.4042 60.2959C29.6657 59.9196 27.8345 59.021 26.4375 57.1188C26.4375 57.1188 28.226 49.4393 27.6197 43.8584C27.6197 43.8584 31.6882 53.7772 31.4042 60.2959ZM38.8959 45.2893C38.4908 45.4081 38.092 45.0899 38.1184 44.6691L38.2888 41.9561L38.8959 45.2893Z" fill="#F4A48D"/>
<path fill-rule="evenodd" clip-rule="evenodd" d="M29.6333 31.6973C32.8779 31.5834 32.4795 28.7969 32.4795 28.7969C35.9517 28.9107 37.4319 30.2187 37.4319 30.2187C40.2213 32.4361 39.1153 36.8849 39.1153 36.8849C38.6896 33.5278 33.5473 34.9591 31.5342 35.2961C30.7117 36.1028 31.0292 38.0718 30.6121 39.7314C30.6046 39.7615 29.71 42.0077 29.71 42.0077L29.7089 42.0104L29.6585 42.2437C29.6438 42.2056 29.6283 42.1674 29.6122 42.1292C29.0711 40.8482 27.9688 40.0906 27.1509 40.4351C26.3324 40.7802 26.1081 42.0979 26.6492 43.3788C26.8377 43.825 27.3139 44.2078 27.6028 44.5026C27.8272 46.3834 27.7851 48.1304 27.6268 49.6301L26.7876 49.6664L23.77 35.3366C23.5457 33.4184 24.4009 32.5429 25.7697 32.1234C26.8352 31.7966 28.2121 31.7471 29.6333 31.6973Z" fill="#CEDEE7"/>
<path d="M120.305 56.9551L114.429 65.4855L111.688 59.3894L107.791 59.2246L110.31 73.7235L113.606 77.513L116.736 74.2178L120.305 56.9551Z" fill="#2A8FEC"/>
<path fill-rule="evenodd" clip-rule="evenodd" d="M138.918 85.5243L139.465 90.9657L134.565 109.654L139.068 139.698L135.731 140.843L126.963 111.508L125.576 102.975L125.643 84.9141L138.918 85.5243Z" fill="#FFC4B8"/>
<path fill-rule="evenodd" clip-rule="evenodd" d="M113.254 91.5633L120.222 141.904L123.41 141.908L124.016 109.644L129.844 87.0039L113.254 91.5633Z" fill="#FFC4B8"/>
<path fill-rule="evenodd" clip-rule="evenodd" d="M105.522 51.0824C105.219 50.9437 104.896 51.2343 105.003 51.5505L107.446 59.4934C107.528 59.7384 107.706 59.9391 107.942 60.0492L111.103 61.5368C111.461 61.7045 111.858 61.3972 111.784 61.0097L110.184 52.5444C110.125 52.2292 109.916 51.9624 109.624 51.829L105.522 51.0824Z" fill="#34466B"/>
<path fill-rule="evenodd" clip-rule="evenodd" d="M111.565 63.55L113.305 61.0113L112.217 58.1463L111.209 57.9369L111.58 59.9017L106.47 56.5889L105.862 57.9532L109.062 64.1546L111.565 63.55Z" fill="#FFC4B8"/>
<path fill-rule="evenodd" clip-rule="evenodd" d="M39.1576 65.4111L41.4642 72.9901L45.748 66.2349L48.9453 65.4111L44.5947 79.5805L40.6404 82.2166L35.6976 79.7452L34.05 66.5645L39.1576 65.4111Z" fill="#9BC3D3"/>
<path fill-rule="evenodd" clip-rule="evenodd" d="M39.4731 86.2095L39.8242 111.339L35.3082 143.106L31.7543 143.275L29.9793 113.854L23.7157 84.9102L39.4731 86.2095Z" fill="#34466B"/>
<path fill-rule="evenodd" clip-rule="evenodd" d="M31.5078 87.4801L28.0675 112.375L19.8034 143.106L16.2647 142.739L17.9703 113.284L16.1408 83.7266L31.5078 87.4801Z" fill="#34466B"/>
<path fill-rule="evenodd" clip-rule="evenodd" d="M17.2509 69.4613C18.0646 67.5094 20.4413 62.7162 21.7524 61.0327C25.0127 56.8461 24.4347 56.2584 34.3752 57.0633C35.2115 57.131 35.901 57.2918 36.4904 57.5332C37.2497 58.0695 38.5034 59.8616 39.2848 65.7557C39.1972 67.0143 38.957 70.753 38.8238 75.6747C38.714 79.7388 39.9225 86.9794 42.4492 97.3966C37.3868 97.0844 34.7106 96.9185 34.4204 96.8987C20.3439 95.3262 13.278 94.4678 13.2225 94.3234C12.7427 93.3183 12.7282 92.336 12.7282 92.3359C11.7495 85.6506 15.4102 74.1233 15.4107 74.1217C16.1326 72.2475 16.8263 70.48 17.2509 69.4613Z" fill="#9BC3D3"/>
<path fill-rule="evenodd" clip-rule="evenodd" d="M23.8001 58.2725L33.0548 76.664L41.1281 67.767L44.0938 70.8974C39.8651 77.9338 37.1191 82.0527 35.8558 83.2544C33.9608 85.0569 33.8378 85.4665 28.5598 79.8743C25.0412 76.1462 22.2341 70.7152 20.1388 63.5814C20.7486 62.3371 21.2978 61.3607 21.7864 60.6523C22.2749 59.9439 22.9462 59.1506 23.8001 58.2725Z" fill="#CEDEE7"/>
<path fill-rule="evenodd" clip-rule="evenodd" d="M49.7006 59.5896L54.9594 60.3642C55.2896 60.4129 55.4019 60.8322 55.1405 61.0395L47.3592 67.206C47.1565 67.3666 46.897 67.4376 46.6408 67.4027L43.1779 66.9303C42.7871 66.8771 42.6214 66.4033 42.8937 66.1177L48.8415 59.885C49.063 59.6531 49.3831 59.543 49.7006 59.5896Z" fill="#34466B"/>
<path fill-rule="evenodd" clip-rule="evenodd" d="M41.7044 68.3704L41.6255 65.2938L44.0969 63.4814L45.0566 63.8545L43.6761 65.3009H49.7656L49.534 66.7766L43.4746 70.2387L41.7044 68.3704Z" fill="#FFC4B8"/>
<path fill-rule="evenodd" clip-rule="evenodd" d="M131.783 54.0461C131.807 54.0357 128.341 48.0878 128.717 45.5006C129.304 45.3271 129.876 45.0725 130.419 44.733C133.665 42.7047 134.648 38.4128 132.612 35.1546C130.576 31.8964 126.288 30.8979 123.042 32.9262C121.724 33.7497 120.779 34.9466 120.258 36.2961L120.256 36.2964L117.907 40.4789L119.045 41.014L118.258 44.4441C118.053 45.3379 118.429 46.2665 119.199 46.7669L120.935 47.8948L120.935 47.8952L120.935 47.8952C120.935 47.8952 120.968 48.2099 121.036 48.7179L122.082 55.1052L122.086 55.106C122.601 56.2519 123.865 57.4079 125.236 57.7243C128.424 58.4604 130.8 56.5055 131.783 54.0461Z" fill="#FFC4B8"/>
<path fill-rule="evenodd" clip-rule="evenodd" d="M121.109 49.2053C122.045 49.1238 123.468 48.7129 125.219 47.3042L120.94 47.8937C120.94 47.8937 120.994 48.4176 121.109 49.2053ZM119.049 41.0137C119.383 41.2089 119.808 41.014 119.877 40.6338L120.325 38.1826L119.049 41.0137Z" fill="#F4A48D"/>
<path fill-rule="evenodd" clip-rule="evenodd" d="M128.907 31.6592C127.595 31.3562 126.284 31.4171 125.078 31.7762C123.873 32.1351 122.774 32.7919 121.886 33.6809C121.125 34.4432 120.52 35.3756 120.137 36.4373L120.885 35.0632C121.172 34.6961 121.496 34.3504 121.86 34.0337L121.857 34.0922L121.857 34.0942L121.855 34.1512L121.855 34.1545L121.853 34.2105L121.853 34.2146L121.852 34.2699L121.852 34.2747L121.851 34.3297L121.851 34.3342L121.851 34.3893L121.851 34.3934L121.851 34.4493L121.851 34.4523L121.851 34.5091L121.851 34.5104C121.854 34.7266 121.867 34.9415 121.888 35.1545L121.888 35.1564L121.894 35.2092L121.894 35.2159L121.9 35.2654L121.901 35.2752L121.907 35.3225L121.908 35.3345L121.914 35.38L121.916 35.3935L121.922 35.4378L121.924 35.4524L121.93 35.496L121.932 35.5112L121.939 35.554L121.941 35.5699L121.948 35.6121L121.951 35.6283L121.958 35.6704L121.961 35.6865L121.968 35.7285L121.971 35.7443L121.979 35.7866L121.982 35.8019L121.99 35.8445L121.993 35.859L122.001 35.9024L122.004 35.9156L122.013 35.9603L122.016 35.9712L122.026 36.018L122.027 36.0244C122.051 36.1332 122.078 36.2412 122.106 36.3484L122.109 36.3572L122.12 36.3998L122.124 36.4142L122.135 36.4537L122.14 36.4711L122.151 36.5086L122.157 36.5278L122.168 36.5639L122.174 36.5844L122.185 36.6195L122.191 36.6408L122.202 36.6751L122.209 36.697L122.22 36.7308L122.227 36.753L122.238 36.7863L122.246 36.8089L122.257 36.8418L122.265 36.8646L122.276 36.8971L122.284 36.9201L122.296 36.9524L122.304 36.9754L122.316 37.0075L122.324 37.0305L122.336 37.0625L122.345 37.0854L122.357 37.1173L122.366 37.14L122.379 37.1719L122.388 37.1943L122.401 37.2264L122.409 37.2481L122.423 37.2807L122.431 37.3013L122.445 37.3348L122.453 37.3524C122.472 37.396 122.49 37.4394 122.51 37.4826L122.515 37.4942L122.53 37.5268L122.539 37.5477L122.553 37.5779L122.564 37.601L122.578 37.63L122.589 37.654L122.603 37.6824L122.615 37.7069L122.628 37.7348L122.641 37.7596L122.655 37.7871L122.667 37.812L122.681 37.8392L122.694 37.8643L122.708 37.8912L122.721 37.9163L122.735 37.943L122.749 37.9682L122.763 37.9946L122.777 38.0197L122.791 38.0459L122.805 38.0712L122.82 38.0971L122.834 38.1224L122.848 38.1481L122.863 38.1734L122.878 38.1988L122.893 38.2241L122.908 38.2493L122.923 38.2747L122.938 38.2996L122.953 38.3251L122.968 38.3497L122.984 38.3754L122.999 38.3995L123.015 38.4256L123.03 38.4491L123.048 38.4761L123.062 38.4984L123.081 38.5281L123.094 38.5475L123.126 38.5958L123.138 38.613L123.159 38.6444L123.173 38.6652L123.192 38.6928L123.207 38.7145L123.226 38.7409L123.241 38.763L123.259 38.7888L123.276 38.8111L123.294 38.8364L123.31 38.8587L123.328 38.8838L123.345 38.9061L123.363 38.9308L123.38 38.9531L123.399 38.9777L123.416 38.9999L123.435 39.0243L123.452 39.0463L123.471 39.0706L123.488 39.0925L123.508 39.1166L123.525 39.1384L123.544 39.1624L123.562 39.184L123.582 39.208L123.599 39.2293L123.619 39.2532L123.637 39.2743L123.658 39.2983L123.675 39.319L123.696 39.3431L123.714 39.3634L123.735 39.3877L123.753 39.4076L123.774 39.4322L123.792 39.4515L123.815 39.4769L123.831 39.495L123.856 39.5223L123.871 39.5383L123.903 39.5724L123.911 39.5812L123.952 39.6238L123.964 39.6366L123.993 39.6662L124.009 39.6826L124.034 39.7082L124.052 39.7259L124.076 39.7499L124.094 39.7682L124.117 39.7914L124.137 39.8099L124.16 39.8325L124.179 39.8511L124.203 39.8733L124.222 39.892L124.245 39.9138L124.266 39.9324L124.289 39.9539L124.309 39.9725L124.332 39.9938L124.353 40.0123L124.376 40.0333L124.397 40.0516L124.421 40.0725L124.441 40.0907L124.465 40.1114L124.486 40.1294L124.51 40.15L124.531 40.1678L124.556 40.1883L124.577 40.2058L124.602 40.2263L124.623 40.2435L124.648 40.264L124.669 40.2808L124.695 40.3015L124.715 40.3178L124.742 40.3388L124.762 40.3544L124.79 40.3762L124.809 40.3907L124.84 40.4147L124.856 40.4266L124.904 40.4622C124.944 40.3995 124.986 40.3396 125.029 40.2826C125.084 40.2112 125.14 40.1444 125.197 40.0826C125.234 40.0426 125.272 40.0048 125.31 39.9691C125.362 39.9204 125.415 39.8758 125.469 39.8355C125.495 39.8158 125.521 39.7971 125.548 39.7794C125.563 39.7692 125.578 39.7594 125.593 39.75C125.648 39.7157 125.704 39.6863 125.759 39.662C125.85 39.6217 125.94 39.5954 126.029 39.5848C126.058 39.5812 126.087 39.5794 126.116 39.5793C126.194 39.5792 126.269 39.5921 126.34 39.6193L126.35 39.6233L126.36 39.6275L126.371 39.6321C126.4 39.6452 126.428 39.6606 126.454 39.6781L126.466 39.6857C126.472 39.6901 126.478 39.6945 126.484 39.6991C126.504 39.7136 126.522 39.7294 126.54 39.7462L126.55 39.7559C126.579 39.7842 126.605 39.8154 126.629 39.8495C126.649 39.878 126.668 39.9085 126.685 39.9408C126.687 39.9453 126.69 39.9498 126.692 39.9542L126.699 39.9678C126.739 40.0496 126.77 40.1421 126.791 40.243C126.805 40.3108 126.815 40.3824 126.82 40.4573L126.82 40.4622L126.822 40.4906L126.822 40.4945L126.824 40.5245L126.824 40.5257L126.825 40.5559L126.825 40.5589L126.825 40.5888L126.825 40.5934L126.825 40.6229L126.825 40.6281L126.824 40.6578L126.824 40.6626L126.823 40.6933L126.823 40.6966L126.821 40.7289L126.819 40.7619L126.819 40.7656L126.816 40.797L126.816 40.802L126.813 40.8331L126.812 40.8384L126.808 40.8698L126.808 40.8745L126.803 40.9071L126.803 40.9098L126.798 40.9432L126.798 40.9448L126.793 40.9783L126.792 40.9826L126.787 41.0151L126.786 41.0204L126.78 41.0527L126.779 41.0581L126.772 41.0909L126.771 41.0953L126.764 41.1296L126.764 41.1313L126.756 41.1658L126.755 41.1685L126.747 41.2026L126.746 41.2074L126.737 41.2406L126.736 41.2462L126.727 41.2794L126.725 41.2847L126.716 41.3186L126.715 41.3225L126.704 41.3582L126.693 41.3943L126.692 41.3978L126.68 41.4322C126.649 41.5274 126.612 41.6233 126.57 41.7191L126.561 41.7396C126.549 41.7659 126.537 41.7918 126.525 41.8175C126.508 41.8522 126.491 41.8864 126.473 41.92L126.46 41.9449C126.443 41.9771 126.425 42.0088 126.407 42.0399C126.336 42.1622 126.26 42.2758 126.179 42.3794C126.061 42.5304 125.934 42.6599 125.805 42.7639C125.734 42.8201 125.663 42.8689 125.592 42.9095C125.578 42.9175 125.564 42.9251 125.55 42.9325C125.522 43.0245 125.494 43.1173 125.469 43.2108L125.455 43.2608L125.451 43.277L125.442 43.3111L125.437 43.33L125.429 43.3616L125.424 43.3811L125.416 43.4129L125.411 43.4316L125.403 43.4667L125.399 43.4818L125.387 43.5318L125.386 43.5387L125.376 43.5819L125.372 43.599L125.365 43.6322L125.361 43.6514L125.354 43.6828L125.35 43.7023L125.343 43.7344L125.339 43.7527L125.332 43.7893L125.329 43.8028L125.319 43.8528L125.317 43.8635L125.31 43.9029L125.307 43.9206L125.301 43.9532L125.297 43.9725L125.292 44.0039L125.288 44.0233L125.283 44.0557L125.28 44.0735L125.274 44.1124L125.272 44.1236L125.264 44.1735L125.262 44.1867L125.257 44.2236L125.254 44.2417L125.249 44.2738L125.247 44.2932L125.242 44.3246L125.24 44.3437L125.236 44.3768L125.233 44.3939L125.228 44.4362L125.227 44.4438L125.222 44.4936L125.22 44.5084L125.216 44.5436L125.214 44.5621L125.211 44.5938L125.209 44.6132L125.206 44.6446L125.204 44.6635L125.201 44.6971L125.2 44.7134L125.196 44.7616L125.196 44.7632L125.192 44.8129L125.191 44.8288L125.188 44.8627L125.187 44.8815L125.185 44.9128L125.184 44.9322L125.182 44.9636L125.181 44.9822L125.179 45.0167L125.178 45.0319L125.176 45.0814L125.176 45.0877L125.174 45.1309L125.174 45.1478L125.173 45.1806L125.172 45.1996L125.171 45.2306L125.171 45.2499L125.17 45.2814L125.17 45.2996L125.17 45.3353L125.17 45.3491L125.169 45.3983L125.169 45.4087L125.169 45.4476L125.169 45.4651L125.17 45.4971L125.17 45.5162L125.17 45.5469L125.17 45.5661L125.171 45.5977L125.171 45.6155L125.173 45.6528L125.173 45.6646L125.174 45.7135L125.175 45.7265L125.176 45.7625L125.177 45.7805L125.178 45.8117L125.179 45.8309L125.181 45.8614L125.182 45.8804L125.184 45.9122L125.185 45.9294L125.188 45.9694L125.188 45.9782L125.191 46.0267L125.193 46.0414L125.195 46.0754L125.197 46.0938L125.199 46.1244L125.201 46.1436L125.204 46.1738L125.205 46.1926L125.208 46.2247L125.21 46.2412L125.215 46.2856L125.215 46.2896L125.22 46.3377L125.222 46.3537L125.226 46.3861L125.228 46.4048L125.232 46.4346L125.234 46.4539L125.238 46.4838L125.24 46.5024L125.245 46.5349L125.247 46.5506L125.254 46.5982L125.254 46.605L125.261 46.6461L125.263 46.6631L125.268 46.6941L125.271 46.7131L125.276 46.7423L125.279 46.7616L125.284 46.7912L125.287 46.8096L125.293 46.8426L125.295 46.8572L125.304 46.9043L125.306 46.9154L125.312 46.9518L125.316 46.9695L125.322 46.9993L125.325 47.0184L125.331 47.0471L125.335 47.0663L125.341 47.0957L125.345 47.1138L125.352 47.1476L125.355 47.1609L125.365 47.2073L125.368 47.2211L125.375 47.2543L125.38 47.2725L125.386 47.3014L125.391 47.3207L125.398 47.3487L125.402 47.3679L125.409 47.3969L125.414 47.4147L125.423 47.4499L125.425 47.4613L125.437 47.507L125.441 47.5227L125.449 47.5534L125.454 47.5722L125.462 47.6L125.467 47.6194L125.475 47.6468L125.48 47.666L125.489 47.6947L125.494 47.7122L125.504 47.7496L125.507 47.7581L125.52 47.8031L125.526 47.82L125.534 47.8489L125.54 47.868L125.549 47.8948L125.555 47.9144L125.563 47.9411L125.569 47.9603L125.579 47.9887L125.584 48.0058L125.598 48.0479L125.599 48.0502L125.602 48.06L125.614 48.0953L125.621 48.1132L125.63 48.1404L125.637 48.1599L125.646 48.1858L125.653 48.2055L125.662 48.2314L125.669 48.2505L125.679 48.2786L125.686 48.2954L125.702 48.3387L125.707 48.3527L125.719 48.3832L125.726 48.4019L125.736 48.4277L125.744 48.4475L125.754 48.4723L125.762 48.4922L125.772 48.5174L125.78 48.5365L125.791 48.5642L125.797 48.5806L125.815 48.6229L125.822 48.6394L125.834 48.6667L125.842 48.686L125.853 48.7105L125.861 48.7305L125.872 48.7543L125.88 48.7743L125.891 48.7986L125.9 48.8178L125.912 48.8452L125.919 48.8611L125.939 48.9025L125.947 48.9205L125.959 48.9455L125.968 48.9653L125.979 48.9884L125.989 49.0087L126 49.0315L126.01 49.0516L126.021 49.0749L126.031 49.0943L126.044 49.1213L126.052 49.1362L126.056 49.1461L126.072 49.177L126.082 49.1962L126.093 49.217L126.129 49.286L126.134 49.2966L126.172 49.3663L126.174 49.3708L126.212 49.4402L126.215 49.4454L126.254 49.5143L126.259 49.5244L126.299 49.5923L126.303 49.5999L126.344 49.6699L126.386 49.7391L126.391 49.7478L126.433 49.8144L126.438 49.8234L126.482 49.8916L126.526 49.9609L126.53 49.9667L126.574 50.0328L126.58 50.0417L126.625 50.1076L126.628 50.1125L126.675 50.1801L126.675 50.1809L126.722 50.2471L126.728 50.2551L126.775 50.3194L126.78 50.3262L126.828 50.392L126.847 50.4168L126.855 50.4273L126.872 50.4498L126.884 50.4648L126.9 50.4867L126.912 50.502L126.929 50.5238L126.941 50.5389L126.958 50.5608L126.969 50.575L126.988 50.5977L126.995 50.607L127.015 50.6324L127.036 50.6575L127.044 50.6671L127.062 50.69L127.073 50.7034L127.092 50.7255L127.103 50.7395L127.122 50.7614L127.133 50.7751L127.152 50.7973L127.163 50.8095C127.186 50.8369 127.209 50.8641 127.233 50.8912L127.241 50.8999L127.261 50.923L127.272 50.9351L127.292 50.9573L127.303 50.9699L127.323 50.9921L127.334 51.004L127.355 51.0268L127.364 51.0363C127.389 51.0636 127.414 51.0908 127.439 51.1177L127.447 51.1256L127.469 51.1487L127.479 51.1595L127.501 51.1819L127.511 51.193L127.533 51.2154L127.543 51.2256L127.566 51.2489L127.572 51.255C127.599 51.2825 127.627 51.3097 127.654 51.3367L127.661 51.3437L127.685 51.3668L127.695 51.3764L127.718 51.3988L127.728 51.4085L127.752 51.4311L127.76 51.4394L127.786 51.4634L127.787 51.4648C127.817 51.4927 127.847 51.5204 127.877 51.5479L127.884 51.5541L127.909 51.5772L127.918 51.5854L127.943 51.6078L127.953 51.6161L127.978 51.6389L127.985 51.645C128.026 51.6808 128.067 51.7162 128.108 51.7512L128.114 51.7565L128.142 51.7793L128.15 51.7864L128.177 51.8088L128.185 51.8155L128.213 51.8385L128.218 51.8422C128.26 51.8772 128.304 51.9118 128.347 51.946L128.353 51.9505L128.382 51.9731L128.39 51.979L128.419 52.0013L128.425 52.0063L128.456 52.0297C128.502 52.0648 128.548 52.0988 128.594 52.1323L128.599 52.136L128.63 52.1582L128.637 52.1629L128.668 52.1851L128.673 52.1885C128.731 52.2296 128.789 52.27 128.849 52.3096L128.853 52.3126L128.886 52.3344L128.891 52.3379L128.925 52.3599L128.927 52.3615C128.988 52.401 129.049 52.4398 129.11 52.4778L129.114 52.48L129.149 52.5014L129.153 52.5037C129.228 52.5491 129.303 52.5934 129.38 52.6366L129.382 52.6381L129.419 52.6588L129.421 52.66C129.499 52.703 129.577 52.7449 129.656 52.7856L129.657 52.7864L129.697 52.8065C130.285 53.1052 130.918 53.3378 131.589 53.4928C131.771 53.5347 131.953 53.5701 132.134 53.5991C132.598 53.6736 132.964 54.0234 133.059 54.4846C133.662 57.402 135.9 59.848 138.989 60.5612C140.391 60.8849 141.791 60.8104 143.073 60.4127C144.025 60.1174 145.045 60.3933 145.769 61.0779C146.289 61.5692 146.943 61.9329 147.69 62.1054C150.068 62.6544 152.441 61.0477 152.767 58.5637C153.007 56.7409 151.996 54.9456 150.313 54.212C150.3 54.2065 150.287 54.201 150.274 54.1954C149.348 53.8023 148.692 52.9598 148.574 51.9596C148.196 48.7524 145.856 45.9807 142.533 45.2135L142.525 45.2117C142.067 45.1062 141.725 44.7268 141.66 44.2606C141.182 40.8208 138.559 37.8903 134.895 37.2399C134.769 37.2175 134.643 37.1982 134.518 37.182L134.517 37.1809C134.513 37.1623 134.508 37.1438 134.503 37.1252L134.502 37.1197L134.5 37.1131L134.496 37.097L134.485 37.0574C134.48 37.0389 134.475 37.0202 134.47 37.0016L134.469 36.9955L134.467 36.9897C134.462 36.9711 134.456 36.9525 134.451 36.934L134.44 36.8951L134.435 36.8784L134.433 36.8722L134.432 36.8669C134.426 36.8485 134.421 36.8302 134.415 36.8118L134.404 36.7749L134.398 36.756L134.396 36.7495L134.395 36.745C134.389 36.7268 134.383 36.7087 134.377 36.6904L134.377 36.6884L134.375 36.6835L134.366 36.6553L134.359 36.6339L134.357 36.6276L134.356 36.624C134.349 36.6059 134.343 36.5877 134.337 36.5698L134.336 36.5671L134.334 36.5612L134.326 36.5366L134.317 36.5123L134.315 36.5064L134.314 36.5037C134.308 36.4857 134.302 36.4677 134.295 36.4499L134.294 36.4463L134.292 36.4402L134.284 36.4186L134.274 36.391L134.272 36.3863L134.271 36.3842C134.265 36.3664 134.258 36.3485 134.251 36.3306L134.25 36.3263L134.247 36.3204L134.24 36.3014L134.228 36.2701L134.226 36.2658C134.219 36.2478 134.212 36.2301 134.205 36.2121L134.203 36.2073L134.201 36.2016L134.194 36.185L134.179 36.1481C134.172 36.1303 134.164 36.1124 134.157 36.0946L134.155 36.0893L134.152 36.0838C134.138 36.0483 134.122 36.0128 134.107 35.9776L134.105 35.9719L134.102 35.967C134.095 35.9494 134.087 35.9318 134.079 35.9143L134.063 35.8788L134.055 35.8615L134.052 35.8556L134.05 35.8513C134.042 35.8339 134.034 35.8166 134.026 35.7994L134.01 35.7658L134.001 35.7461L133.998 35.7402L133.996 35.7365C133.988 35.7195 133.98 35.7024 133.971 35.6853L133.97 35.683L133.968 35.6777L133.956 35.6534L133.945 35.6314L133.942 35.6258L133.941 35.623C133.932 35.606 133.923 35.5891 133.915 35.572L133.913 35.569L133.91 35.5633L133.9 35.5422L133.887 35.5173L133.884 35.5124L133.883 35.5103C133.874 35.4934 133.865 35.4766 133.856 35.4599L133.854 35.4562L133.851 35.4503L133.841 35.4319L133.826 35.4038L133.824 35.3986C133.814 35.382 133.805 35.3652 133.796 35.3486L133.794 35.3441L133.791 35.3385L133.782 35.3224L133.764 35.2903L133.762 35.2881C133.753 35.2715 133.743 35.2548 133.734 35.2384L133.731 35.2334L133.728 35.2279C133.709 35.1948 133.689 35.1618 133.67 35.1289L133.667 35.1236L133.664 35.1186C133.654 35.1023 133.644 35.086 133.634 35.0696L133.613 35.0359L133.604 35.0207L133.6 35.0149L133.597 35.0105C133.587 34.9944 133.577 34.9784 133.567 34.9624L133.547 34.9305L133.536 34.9132L133.532 34.9074L133.53 34.9038C133.519 34.8877 133.509 34.8719 133.499 34.8563L133.497 34.8541L133.494 34.8493L133.479 34.8261L133.466 34.8068L133.462 34.8012L133.46 34.798C133.45 34.7824 133.439 34.7667 133.428 34.7512L133.426 34.7483L133.423 34.7429L133.409 34.7228L133.394 34.7011L133.39 34.6959L133.389 34.6935C133.378 34.6782 133.367 34.6627 133.356 34.6474L133.354 34.6439L133.35 34.6382L133.337 34.6207L133.32 34.5964L133.317 34.592L133.316 34.5905C133.305 34.5751 133.294 34.5597 133.282 34.5446L133.279 34.5406L133.275 34.5349L133.264 34.5197L133.244 34.4922L133.241 34.4885C133.23 34.4733 133.218 34.458 133.207 34.443L133.203 34.4385L133.199 34.433L133.189 34.4199L133.165 34.3878C133.153 34.3727 133.141 34.3576 133.129 34.3427L133.125 34.3376L133.122 34.3326C133.11 34.3177 133.098 34.3028 133.086 34.2879L133.061 34.2566L133.05 34.2434L133.046 34.238L133.042 34.2337C133.031 34.219 133.019 34.2044 133.006 34.1898L132.982 34.1602L132.969 34.1453L132.965 34.1397L132.962 34.1361C132.949 34.1217 132.937 34.1073 132.925 34.0929L132.924 34.0912L132.92 34.0867L132.901 34.0648L132.887 34.0483L132.882 34.0429L132.879 34.0397C132.867 34.0255 132.854 34.0115 132.842 33.9975L132.84 33.9949L132.835 33.9899L132.818 33.9712L132.802 33.9525L132.797 33.9475L132.795 33.9449C132.782 33.931 132.77 33.9172 132.757 33.9033L132.754 33.9002L132.749 33.8949L132.735 33.8787L132.715 33.8579L132.711 33.8534L132.709 33.8516C132.696 33.8378 132.684 33.8241 132.671 33.8104L132.667 33.8067L132.662 33.8014L132.649 33.7874L132.627 33.764L132.622 33.7595C132.609 33.7459 132.596 33.7323 132.583 33.7189L132.579 33.7147L132.574 33.7099L132.562 33.6976L132.535 33.6708L132.533 33.6689C132.52 33.6555 132.506 33.6421 132.493 33.6288L132.488 33.6242L132.484 33.6196C132.47 33.6064 132.456 33.5929 132.443 33.5796L132.413 33.5511L132.402 33.5399L132.396 33.5352L132.392 33.5311C132.378 33.518 132.365 33.5049 132.351 33.492L132.322 33.4651L132.308 33.4527L132.303 33.4477L132.299 33.4441C132.285 33.4312 132.271 33.4187 132.257 33.4059L132.256 33.4046L132.251 33.4007L132.229 33.3807L132.213 33.3665L132.208 33.3617L132.204 33.3586C132.19 33.3461 132.176 33.3337 132.162 33.3212L132.16 33.3192L132.155 33.3147L132.135 33.2975L132.117 33.2818L132.111 33.2772L132.109 33.2747C132.094 33.2625 132.08 33.2503 132.066 33.2381L132.063 33.2356L132.057 33.231L132.039 33.2159L132.018 33.1985L132.013 33.1944L132.011 33.1925C131.997 33.1804 131.982 33.1684 131.967 33.1565L131.964 33.1534L131.958 33.149L131.942 33.136L131.918 33.1163L131.912 33.112C131.897 33.1001 131.882 33.0882 131.867 33.0764L131.863 33.073L131.858 33.0686L131.843 33.0575L131.815 33.0351L131.812 33.033C131.797 33.0212 131.781 33.0095 131.766 32.9979L131.761 32.9943L131.756 32.9902C131.725 32.9669 131.694 32.9439 131.663 32.921L131.658 32.9171L131.653 32.9134C131.638 32.9021 131.622 32.8908 131.606 32.8796L131.574 32.8561L131.559 32.8456L131.553 32.8416L131.549 32.8385C131.533 32.8275 131.517 32.8164 131.502 32.8053L131.47 32.7836L131.453 32.7717L131.447 32.7677L131.443 32.7652C131.427 32.7545 131.411 32.7438 131.395 32.7331L131.393 32.7315L131.388 32.7281L131.365 32.7126L131.345 32.6997L131.339 32.6957L131.336 32.6937C131.32 32.6832 131.304 32.6727 131.288 32.6623L131.285 32.6604L131.279 32.6568L131.258 32.6433L131.235 32.629L131.23 32.6255L131.227 32.624C131.211 32.6137 131.195 32.6035 131.179 32.5933L131.175 32.5911L131.169 32.5874L131.15 32.5759L131.124 32.5599L131.12 32.5572L131.118 32.5561C131.101 32.5461 131.085 32.5361 131.068 32.5261L131.064 32.5236L131.058 32.5199L131.041 32.5101L131.01 32.4921L131.007 32.49C130.99 32.4801 130.973 32.4704 130.956 32.4607L130.951 32.4577L130.945 32.4545C130.911 32.4351 130.877 32.4158 130.843 32.3969L130.837 32.394L130.832 32.3911C130.814 32.3816 130.797 32.3722 130.78 32.3628L130.744 32.3435L130.728 32.3351L130.722 32.332L130.717 32.3295C130.699 32.3203 130.682 32.3113 130.665 32.3021L130.629 32.2843L130.611 32.2749L130.605 32.2718L130.601 32.2698C130.583 32.2608 130.566 32.2522 130.548 32.2434L130.546 32.2426L130.541 32.2402L130.514 32.2269L130.493 32.2167L130.487 32.2136L130.484 32.2119C130.466 32.2035 130.448 32.1951 130.43 32.1867L130.428 32.1854L130.422 32.1826L130.398 32.1713L130.374 32.1601L130.368 32.1575L130.365 32.1563C130.347 32.148 130.329 32.1397 130.311 32.1317L130.308 32.13L130.301 32.1273L130.28 32.1176L130.252 32.1054L130.247 32.1032L130.245 32.1024C130.227 32.0945 130.209 32.0866 130.191 32.0787L130.187 32.0768L130.18 32.0741L130.161 32.066L130.129 32.0524L130.124 32.0505C130.106 32.0429 130.088 32.0352 130.069 32.0278L130.064 32.0256L130.058 32.0231L130.041 32.0162L130.002 32.0008C129.983 31.9934 129.965 31.986 129.946 31.9787L129.94 31.9764L129.934 31.9742C129.897 31.9597 129.859 31.9455 129.822 31.9316L129.815 31.9293L129.81 31.9272C129.791 31.9204 129.772 31.9136 129.753 31.9068L129.715 31.8931L129.696 31.8866L129.689 31.8843L129.684 31.8825C129.665 31.8761 129.646 31.8695 129.628 31.8633L129.626 31.8626L129.621 31.8608L129.59 31.8507L129.569 31.8437L129.562 31.8412L129.558 31.8399C129.538 31.8338 129.52 31.8276 129.501 31.8215L129.498 31.8207L129.491 31.8185L129.465 31.8103L129.44 31.8026L129.433 31.8006L129.43 31.7994C129.411 31.7935 129.392 31.7879 129.372 31.782L129.368 31.7809L129.361 31.7788L129.338 31.7718L129.31 31.7637L129.303 31.762L129.301 31.7611C129.281 31.7557 129.262 31.7502 129.243 31.7447L129.238 31.7434L129.231 31.7413L129.21 31.7357L129.178 31.727L129.173 31.7253L129.171 31.7249C129.151 31.7198 129.132 31.7145 129.112 31.7096L129.107 31.7081L129.099 31.7061L129.081 31.7015L129.044 31.6922L129.04 31.6909C129.02 31.686 129 31.6813 128.981 31.6765L128.974 31.675L128.967 31.6733C128.947 31.6684 128.927 31.6638 128.907 31.6592Z" fill="#9E3667"/>
<path fill-rule="evenodd" clip-rule="evenodd" d="M89.0627 33.6588C88.4644 33.3581 87.878 33.0805 87.3038 32.8249L87.1206 33.484C87.6853 33.7351 88.263 34.0084 88.8529 34.305L89.0627 33.6588ZM85.2606 32.1336C84.6673 31.9429 84.0882 31.7757 83.5231 31.6309L83.3921 32.2331C83.9455 32.3746 84.5132 32.5386 85.0955 32.7258L85.2606 32.1336ZM81.5028 31.1759C80.8882 31.0226 80.2928 30.9015 79.7163 30.8116L79.6975 31.5117C80.2579 31.5993 80.8378 31.7168 81.4376 31.8666L81.5028 31.1759ZM77.7826 31.0515C77.1599 31.0278 76.5621 31.0411 75.9891 31.0895L76.0811 31.7745C76.6326 31.7279 77.2095 31.7148 77.812 31.7382L77.7826 31.0515ZM73.7177 31.287C73.5806 31.3189 73.4453 31.3528 73.3114 31.3887C72.8443 31.5139 72.3966 31.6623 71.9686 31.8323L72.1992 32.4448C72.6071 32.2826 73.0342 32.1411 73.4809 32.0214C73.609 31.9871 73.7384 31.9544 73.8697 31.924L73.7177 31.287ZM69.9848 33.0405C69.4552 33.3399 68.9635 33.6725 68.51 34.033L68.8743 34.4752C69.3036 34.1341 69.7689 33.8189 70.2718 33.535L69.9848 33.0405ZM67.3012 35.1075C66.8877 35.6301 66.5221 36.1855 66.2036 36.7656L66.7433 37.1522C67.0448 36.6031 67.3907 36.0773 67.782 35.583L67.3012 35.1075ZM65.2235 38.6135C64.9881 39.183 64.7996 39.7663 64.657 40.3564L65.2329 40.5062C65.3682 39.9462 65.5472 39.3927 65.7703 38.8527L65.2235 38.6135ZM64.2385 42.4141C64.2004 43.1272 64.2141 43.8392 64.279 44.5406L64.9064 44.5095C64.8452 43.8462 64.832 43.1712 64.8681 42.4953L64.2385 42.4141ZM64.4208 46.4994C64.434 46.5522 64.4478 46.6049 64.4619 46.6572C64.6082 47.2033 64.7987 47.7301 65.0337 48.2304L65.5734 47.9761C65.3542 47.5097 65.1753 47.016 65.0379 46.5029C65.0247 46.4538 65.0117 46.4042 64.9993 46.3546L64.4208 46.4994ZM66.1827 49.9783C66.5726 50.4611 67.0218 50.8967 67.5296 51.2719L67.9174 50.794C67.4523 50.45 67.0393 50.0504 66.6794 49.6044L66.1827 49.9783ZM69.3649 52.2397C69.917 52.4827 70.5132 52.6633 71.1506 52.7724L71.2398 52.164C70.6486 52.0631 70.1002 51.8965 69.5936 51.6734L69.3649 52.2397ZM73.1448 52.735C73.7152 52.6957 74.3129 52.6102 74.9375 52.4743L74.8304 51.9527C74.2352 52.0821 73.6691 52.163 73.1328 52.1998L73.1448 52.735ZM76.8438 51.9422C77.3844 51.7579 77.9421 51.5388 78.5168 51.2829L78.2802 50.7992C77.7227 51.0478 77.1833 51.2595 76.6627 51.4367L76.8438 51.9422ZM80.3122 50.1826C80.8367 49.7574 81.2465 49.2707 81.5447 48.7375L81.003 48.4813C80.7422 48.9469 80.3862 49.3708 79.9205 49.7489L80.3122 50.1826ZM82.2759 46.6016C82.368 46.0151 82.3657 45.403 82.2807 44.773L81.6245 44.8809C81.7038 45.4678 81.7042 46.0289 81.6213 46.5561L82.2759 46.6016ZM81.7475 42.8748C81.5665 42.3246 81.3443 41.7633 81.0845 41.1954L80.6043 41.4376C80.8549 41.986 81.0683 42.5247 81.2406 43.0488L81.7475 42.8748ZM80.0432 39.499C79.7205 38.9035 79.3696 38.3042 78.9933 37.7052L78.5262 38.0814C78.8942 38.6667 79.2362 39.2509 79.5501 39.8304L80.0432 39.499ZM77.9375 36.2661C77.5415 35.8239 77.1234 35.3854 76.6854 34.9532L76.1802 35.3664C76.6099 35.7908 77.0203 36.221 77.4084 36.6547L77.9375 36.2661ZM75.1556 33.4632C74.7295 33.0453 74.289 32.6349 73.8356 32.2336L73.4298 32.6808C73.8754 33.0756 74.3087 33.4792 74.7276 33.8898L75.1556 33.4632ZM72.3782 30.6264C71.85 30.2518 71.3092 29.8889 70.7583 29.5398L70.3298 30.0547C70.8715 30.398 71.403 30.7548 71.9226 31.1231L72.3782 30.6264ZM69.2826 28.5738C68.7291 28.2232 68.1678 27.8894 67.6005 27.5739L67.2697 28.1347C67.8258 28.444 68.3765 28.7716 68.9197 29.1156L69.2826 28.5738ZM65.8222 26.5275C65.2435 26.2056 64.6615 25.9074 64.0785 25.6356L63.8561 26.263C64.4247 26.528 64.9932 26.8191 65.5594 27.134L65.8222 26.5275ZM62.3946 25.2951C61.8099 25.0965 61.2262 24.9272 60.6453 24.791L60.5266 25.3968C61.0875 25.5283 61.6531 25.6921 62.2208 25.885L62.3946 25.2951ZM58.2551 24.4461C57.6544 24.38 57.0599 24.3541 56.4747 24.3717L56.5015 24.9745C57.0582 24.9577 57.6261 24.9826 58.2024 25.0459L58.2551 24.4461ZM54.5306 24.5696C54.3137 24.6116 54.0984 24.6611 53.8855 24.7181C53.5085 24.8192 53.1382 24.944 52.7758 25.0938L53.0139 25.7098C53.354 25.569 53.7019 25.4519 54.0566 25.3568C54.2571 25.3031 54.4598 25.2563 54.6647 25.2168L54.5306 24.5696ZM51.0766 25.9297C50.5939 26.2803 50.1336 26.6938 49.6992 27.1725L50.1277 27.7002C50.5371 27.2483 50.9697 26.8605 51.4226 26.5313L51.0766 25.9297ZM48.0705 28.3856C47.7006 28.8982 47.3517 29.4588 47.0262 30.0699L47.5842 30.4112C47.8963 29.8249 48.2296 29.2894 48.5817 28.8019L48.0705 28.3856ZM46.3705 32.2359C46.1179 32.8417 45.9598 33.4434 45.8813 34.0428L46.5165 34.092C46.5889 33.5407 46.7332 32.9906 46.9661 32.4328L46.3705 32.2359ZM45.8211 36.0321C45.8856 36.5899 46.0002 37.15 46.1518 37.7156C46.162 37.7537 46.1722 37.7921 46.1828 37.8304L46.7826 37.665C46.7724 37.6282 46.7625 37.5912 46.7527 37.5546C46.607 37.0107 46.4985 36.4787 46.4381 35.9549L45.8211 36.0321ZM46.703 39.7154C46.8991 40.2607 47.1139 40.8161 47.3389 41.3849L47.8512 41.1712C47.6272 40.6053 47.4147 40.0561 47.2222 39.5209L46.703 39.7154ZM48.4309 43.2857C48.6425 43.8211 48.8554 44.3701 49.064 44.935L49.5776 44.7359C49.3667 44.1645 49.152 43.6111 48.9395 43.0732L48.4309 43.2857ZM49.4013 46.8487C49.5884 47.4052 49.7644 47.9775 49.9236 48.568L50.5733 48.3933C50.4107 47.7905 50.2314 47.207 50.0408 46.6413L49.4013 46.8487ZM50.5639 50.7391C50.6782 51.3006 50.777 51.8778 50.8569 52.4722L51.4211 52.4046C51.3397 51.7955 51.2382 51.2042 51.1213 50.6297L50.5639 50.7391Z" fill="#34466B"/>
<path d="M105.579 49.924L104.228 47.047C106.713 43.7004 106.032 38.926 102.707 36.3832C99.3833 33.8404 94.6746 34.4921 92.1905 37.8387C89.7063 41.1854 90.3872 45.9598 93.7114 48.5026C96.141 50.3611 99.4238 50.5667 102.034 49.024L105.579 49.924Z" fill="#9BC3D3"/>
<mask id="mask0_1483_87224" style="mask-type:luminance" maskUnits="userSpaceOnUse" x="90" y="32" width="20" height="21">
<path fill-rule="evenodd" clip-rule="evenodd" d="M104.195 32.1143L90.2356 36.1171L95.0593 52.9395L109.019 48.9366L104.195 32.1143Z" fill="white"/>
</mask>
<g mask="url(#mask0_1483_87224)">
<path fill-rule="evenodd" clip-rule="evenodd" d="M105.671 49.8967L104.653 46.4595C107.365 43.4593 107.159 38.7268 104.193 35.8891C101.227 33.0513 96.6229 33.183 93.9104 36.1832C91.1979 39.1833 91.4038 43.9159 94.3703 46.7537C96.539 48.8282 99.6875 49.3803 102.352 48.1531L105.671 49.8967Z" fill="white"/>
</g>
<path fill-rule="evenodd" clip-rule="evenodd" d="M102.624 40.3579C102.624 40.5991 102.542 40.7357 102.405 40.9039L102.392 40.9208L102.411 40.9328C102.68 41.1037 102.868 41.3617 102.883 41.7243C102.903 42.2643 102.463 42.7113 101.94 42.7102H100.563C100.429 42.7102 100.32 42.5942 100.32 42.4516V39.6736C100.32 39.5304 100.429 39.415 100.562 39.415L101.7 39.4183C102.196 39.4188 102.624 39.7977 102.624 40.3579ZM101.937 42.2101C102.214 42.2107 102.435 42.0005 102.43 41.724C102.424 41.4409 102.176 41.258 101.9 41.2575H101.342C101.218 41.2575 101.116 41.1508 101.116 41.0169C101.116 40.8829 101.217 40.7757 101.342 40.7757H101.714C101.966 40.7653 102.159 40.6069 102.171 40.3598C102.184 40.0952 101.965 39.8965 101.698 39.8965H100.793L100.789 42.2101H101.937Z" fill="#34466B"/>
<path fill-rule="evenodd" clip-rule="evenodd" d="M97.5656 41.7571L97.5723 41.7767L97.5796 41.7571C97.6483 41.574 97.731 41.3713 97.8187 41.1501C97.9093 40.9174 97.9992 40.695 98.0893 40.4831C98.1804 40.2678 98.2664 40.076 98.3485 39.9087C98.4307 39.7376 98.4987 39.6205 98.5511 39.5562C98.632 39.4625 98.739 39.415 98.8722 39.415H98.9336C99.0151 39.415 99.0787 39.4357 99.1265 39.4749C99.1703 39.512 99.1963 39.5545 99.2035 39.6036L99.5861 42.477C99.5861 42.551 99.5641 42.6083 99.5208 42.6508C99.4775 42.6905 99.4156 42.7102 99.3346 42.7102C99.2536 42.7102 99.1895 42.6916 99.1422 42.6552C99.0899 42.6187 99.0601 42.5707 99.0528 42.5113C99.0399 42.4159 99.0281 42.3097 99.0162 42.193C98.9994 42.077 98.9397 41.5756 98.9228 41.4492C98.9071 41.319 98.7997 40.5071 98.7631 40.2123L98.7597 40.1872L98.6371 40.4362C98.5955 40.5218 98.5505 40.6247 98.501 40.7447C98.4521 40.8645 98.402 40.9909 98.353 41.1245C98.2996 41.2541 98.0628 41.9097 98.0628 41.9097C98.0409 41.9691 97.9992 42.089 97.9616 42.1991C97.9233 42.3086 97.8884 42.4078 97.8788 42.4269C97.8226 42.5353 97.7129 42.6067 97.5734 42.6078C97.4323 42.6072 97.3226 42.5353 97.2669 42.4269C97.2568 42.4078 97.2219 42.3086 97.1836 42.1991C97.1454 42.089 97.1049 41.9691 97.0818 41.9097C97.0818 41.9097 96.845 41.2541 96.7921 41.1245C96.7426 40.9909 96.6931 40.8645 96.6436 40.7447C96.5941 40.6247 96.5492 40.5218 96.5086 40.4362L96.3854 40.1872L96.3826 40.2123C96.3455 40.5071 96.2386 41.319 96.2223 41.4492C96.2054 41.5756 96.1458 42.077 96.1295 42.193C96.1172 42.3097 96.1048 42.4159 96.0918 42.5113C96.0845 42.5707 96.0547 42.6187 96.003 42.6552C95.9551 42.6916 95.891 42.7102 95.81 42.7102C95.729 42.7102 95.6677 42.6905 95.6244 42.6508C95.5811 42.6083 95.5591 42.5506 95.5586 42.477L95.941 39.6036C95.9495 39.5545 95.9748 39.512 96.0187 39.4749C96.0659 39.4357 96.1306 39.415 96.2111 39.415H96.2729C96.4063 39.415 96.5131 39.4625 96.5936 39.5562C96.6465 39.6205 96.7139 39.7376 96.7961 39.9087C96.8787 40.076 96.9648 40.2678 97.0554 40.4831C97.1454 40.695 97.2359 40.9174 97.3265 41.1501C97.4142 41.3713 97.4969 41.574 97.5656 41.7571Z" fill="#34466B"/>
<path d="M95.4837 44.1745L95.4548 44.4061C95.4416 44.5202 95.5272 44.6204 95.6384 44.6204H102.805C102.916 44.6204 103.002 44.5202 102.989 44.4061L102.96 44.1745C102.942 43.9941 103.067 43.8296 103.238 43.8105C103.411 43.7909 103.563 43.9229 103.58 44.1026L103.608 44.328C103.664 44.8313 103.392 45.2731 102.908 45.2731H95.5357C95.0513 45.2731 94.7794 44.8313 94.8354 44.328L94.863 44.1026C94.8814 43.9229 95.0328 43.7909 95.2046 43.8105C95.3764 43.8296 95.5014 43.9941 95.4837 44.1745Z" fill="#2274C0"/>
<path d="M96.4321 36.8535H102.008C102.533 36.8535 102.794 37.2546 102.856 37.7834L102.879 37.9528C102.898 38.1345 102.767 38.297 102.592 38.3162C102.416 38.3354 102.258 38.2037 102.24 38.0221L102.217 37.8601C102.194 37.6592 102.11 37.5042 101.909 37.5042H96.5306C96.3297 37.5042 96.2461 37.6592 96.2225 37.8601L96.2009 38.0221C96.1827 38.2037 96.025 38.3354 95.8483 38.3162C95.6723 38.297 95.5416 38.1345 95.5604 37.9528L95.584 37.7834C95.646 37.2546 95.907 36.8535 96.4321 36.8535Z" fill="#2274C0"/>
<path fill-rule="evenodd" clip-rule="evenodd" d="M134.997 138.272L138.949 138.456L139.498 141.572L139.429 141.592L139.447 141.594L134.951 144.259L132.813 144.497L131.992 143.032L133.119 141.63L134.997 138.272Z" fill="#CEDEE7"/>
<path fill-rule="evenodd" clip-rule="evenodd" d="M121.847 53.9522C124.786 52.4434 128.793 54.149 131.982 54.149C132.924 63.1752 136.394 71.4011 138.077 80.2632C139.864 89.6756 141.876 99.0523 144.112 108.385C144.238 108.914 135.237 108.647 134.388 108.66C125.727 108.793 114.392 108.766 106.035 106.384C111.368 93.3603 113.315 79.3472 117.515 65.9849C118.252 63.639 119.127 61.3283 119.791 58.9632C120.176 57.5923 120.117 55.9379 120.87 54.8177C121.105 54.4694 121.418 54.1726 121.847 53.9522Z" fill="#2A8FEC"/>
<path fill-rule="evenodd" clip-rule="evenodd" d="M120.089 140.469L117.16 142.683L117.546 144.679L124.483 143.54L123.384 139.736L120.089 140.469Z" fill="#CEDEE7"/>
<path fill-rule="evenodd" clip-rule="evenodd" d="M35.394 142.515L31.6711 141.933L31.4881 146.509L36.7921 146.99L38.9832 146.744L38.2618 144.622L37.4775 144.091L35.394 142.515Z" fill="#CEDEE7"/>
<path fill-rule="evenodd" clip-rule="evenodd" d="M132.368 57.3555L119.287 73.9792L112.697 62.2812L108.742 64.4231L116.321 81.7229L120.276 82.5467L130.985 70.8487L134.016 65.0443" fill="#2274C0"/>
<path fill-rule="evenodd" clip-rule="evenodd" d="M20.1363 141.749L22.6992 144.513L22.3132 146.509L15.3766 145.37L16.2919 141.932L20.1363 141.749Z" fill="#CEDEE7"/>
</svg>
