<svg width="160" height="160" viewBox="0 0 160 160" fill="none" xmlns="http://www.w3.org/2000/svg">
<circle cx="69.7168" cy="79.5" r="69.7168" fill="#EAF7FE"/>
<path fill-rule="evenodd" clip-rule="evenodd" d="M139.367 74.0728L129.769 90.7121L129.662 90.8924L118.367 110.47H96.2528L86.6185 127.153L73.9444 149.114H0L20.6647 113.348C27.1067 102.188 39.0145 95.3132 51.9005 95.3153H75.676C76.7994 95.3141 77.9028 95.0179 78.8758 94.4562C79.8526 93.8931 80.6636 93.0821 81.2267 92.1053C87.6685 80.945 99.5762 74.0706 112.462 74.0728H139.367Z" fill="#CEDEE7"/>
<path d="M139.367 72.4028L129.769 89.0422L129.662 89.2225L118.367 108.8H96.2528L86.6185 125.484L73.9444 147.444H0L20.6647 111.678C27.1067 100.518 39.0145 93.6433 51.9005 93.6454H75.676C76.7994 93.6442 77.9028 93.3479 78.8758 92.7863C79.8526 92.2231 80.6636 91.4122 81.2267 90.4353C87.6685 79.2751 99.5762 72.4006 112.462 72.4028H139.367Z" fill="white"/>
<path fill-rule="evenodd" clip-rule="evenodd" d="M58.9126 141.439C58.9126 142.084 56.4555 142.605 53.4504 142.605C50.4275 142.605 47.9883 142.084 47.9883 141.439C47.9883 140.793 50.4275 140.272 53.4504 140.272C56.4563 140.272 58.9126 140.796 58.9126 141.439Z" fill="#9BC3D3"/>
<path fill-rule="evenodd" clip-rule="evenodd" d="M56.3336 136.53C55.8389 137.491 54.9727 138.085 54.1774 138.087C53.9375 138.091 53.7003 138.036 53.4876 137.925C53.3949 137.872 53.3063 137.812 53.2225 137.746C52.5331 137.154 52.4093 135.906 52.9925 134.779C53.417 133.976 54.0885 133.434 54.7601 133.273C55.1268 133.175 55.5167 133.214 55.8562 133.384C56.7046 133.831 56.9523 135.069 56.475 136.245C56.435 136.343 56.3877 136.438 56.3334 136.529M56.3681 132.377C55.9161 132.144 55.3963 132.079 54.9009 132.193C53.8924 132.396 52.8681 133.197 52.2491 134.392C51.312 136.202 51.6307 138.235 52.9562 138.931C53.0418 138.976 53.1304 139.014 53.2213 139.046C53.4822 139.138 53.7582 139.178 54.0344 139.165C55.1658 139.12 56.3679 138.274 57.0752 136.915C57.1902 136.698 57.2906 136.474 57.3756 136.244C57.9236 134.626 57.5346 132.987 56.3671 132.376" fill="#CEDEE7"/>
<path fill-rule="evenodd" clip-rule="evenodd" d="M55.1293 130.262V130.279L54.8993 132.194L54.7577 133.274L54.4044 136.245L54.1748 138.088L54.0332 139.166L53.9807 139.714C53.9006 140.315 53.6347 140.876 53.2201 141.319C52.6844 141.903 51.9267 142.233 51.1342 142.228H49.8438C48.537 142.224 47.3968 141.34 47.0683 140.075C47.0509 139.976 47.033 139.872 47.0158 139.765L46.0074 132.653L45.6719 130.279V130.262H55.1293Z" fill="#CEDEE7"/>
<path d="M55.1298 130.262V130.279L54.8998 132.194L54.7583 133.274L54.4049 136.245L54.1753 138.088L54.0337 139.166L53.9812 139.714C53.9011 140.315 53.6352 140.876 53.2206 141.319C52.6849 141.903 51.9272 142.233 51.1347 142.228H50.4453C50.7787 142.075 51.079 141.858 51.3294 141.59C51.7388 141.145 51.9984 140.584 52.0718 139.984L52.1422 139.438L52.2661 138.36L52.4961 136.516L52.8494 133.545L52.9908 132.466L53.2208 130.552V130.534" fill="white"/>
<path d="M53.2043 120.502C52.0396 122.061 51.4692 123.984 51.5957 125.925L51.8608 129.761L51.9312 130.76C51.4543 130.778 50.9421 130.786 50.4112 130.786C50.0753 130.786 49.7396 130.783 49.4388 130.776L48.9616 129.761L45.9208 123.094C44.4171 119.806 45.2675 115.92 48.007 113.56C49.8131 112.023 50.8535 109.77 50.8531 107.398C50.8527 106.094 50.5374 104.809 49.9339 103.652L44.507 93.2474C44.2154 92.689 44.1698 92.0343 44.3811 91.4408C44.5925 90.8473 45.0416 90.3688 45.6206 90.1204C45.9055 89.9986 46.2121 89.9361 46.522 89.9365C47.1834 89.9406 47.81 90.2338 48.237 90.739L58.5425 102.89C60.999 105.778 61.1239 109.983 58.8433 113.012L53.2043 120.502Z" fill="#DEEDF2"/>
<path fill-rule="evenodd" clip-rule="evenodd" d="M55.1291 130.261C55.1291 130.401 54.634 130.528 53.8387 130.622C52.6994 130.741 51.5544 130.797 50.4089 130.788C49.2578 130.797 48.1072 130.742 46.9623 130.622C46.1672 130.528 45.6719 130.401 45.6719 130.261C45.6719 129.971 47.7932 129.736 50.4091 129.736C53.0077 129.736 55.1293 129.971 55.1293 130.261" fill="#9E3667"/>
<path fill-rule="evenodd" clip-rule="evenodd" d="M93.813 140.125C96.5279 139.101 99.0635 137.654 101.326 135.837L102.882 139.067C100.56 140.984 97.9377 142.507 95.121 143.572C91.3108 144.984 87.2409 145.558 83.1889 145.254L82.2344 141.828C86.1706 142.079 90.1156 141.499 93.8128 140.125" fill="#34466B"/>
<path fill-rule="evenodd" clip-rule="evenodd" d="M80.6452 110.379L77.7812 99.2402L90.8801 95.8833L93.7436 107.022L80.6452 110.379Z" fill="#1BB3BC"/>
<path fill-rule="evenodd" clip-rule="evenodd" d="M90.6519 111.154L87.8594 113.094L95.248 128.939C95.248 128.939 103.946 121.701 103.981 121.54C103.998 121.377 90.6521 111.154 90.6521 111.154" fill="#CEDEE7"/>
<path fill-rule="evenodd" clip-rule="evenodd" d="M72.2144 120.82L71.9136 118.041L70.7469 116.15C70.4943 115.723 70.3096 115.26 70.1993 114.776L69.722 112.694C69.7038 112.666 69.722 112.636 69.7573 112.62C69.9396 112.511 70.1756 112.568 70.2875 112.749L71.4542 114.658L71.755 111.103C71.789 110.677 72.0742 110.312 72.4795 110.176C72.6034 110.136 72.7799 110.083 72.9393 110.028C73.3499 109.9 73.7909 110.101 73.9646 110.495C73.9646 110.495 75.944 115.624 75.2373 117.924L75.0957 118.357L75.0075 121.789L72.2144 120.82Z" fill="#F4A48D"/>
<path fill-rule="evenodd" clip-rule="evenodd" d="M105.994 131.628C105.098 132.89 104.136 134.105 103.113 135.268C97.9585 141.077 90.0823 143.672 82.4841 142.065C82.4308 142.054 82.378 142.042 82.3247 142.029C81.7235 141.902 81.1223 141.743 80.5212 141.559C79.7297 141.314 79.0164 140.865 78.4527 140.258C77.8797 139.654 77.4771 138.908 77.2861 138.098H77.2686C76.9149 138.052 71.1523 137.232 71.1523 131.729L71.5596 118.257L75.5017 118.029L76.6331 128.379C76.6775 128.81 76.9157 129.197 77.2803 129.431C77.6449 129.666 78.0963 129.721 78.5068 129.583L89.3429 125.948L96.8378 123.169L103.59 120.673C103.59 120.673 110.096 125.885 105.995 131.628" fill="#9BC3D3"/>
<path fill-rule="evenodd" clip-rule="evenodd" d="M82.3238 142.03C81.7226 141.902 81.1214 141.743 80.5202 141.561C79.729 141.315 79.0159 140.866 78.4518 140.258C77.8792 139.655 77.4766 138.91 77.2852 138.1C78.61 138.186 79.9394 138.033 81.2099 137.647L82.3238 142.03Z" fill="#34466B"/>
<path fill-rule="evenodd" clip-rule="evenodd" d="M87.716 103.79L89.5195 107.554L91.0205 109.637L89.394 110.756L87.3785 109.68C86.6126 109.264 85.9438 108.691 85.4166 107.997L84.1083 106.263L83.7205 106.789C83.5516 107.023 83.2552 107.126 82.9781 107.048C82.8808 107.023 82.7902 106.976 82.713 106.912C82.4467 106.697 82.3788 106.319 82.5536 106.024L84.3572 102.876C84.6058 102.454 85.1373 102.295 85.5772 102.51L87.2919 103.366C87.4713 103.463 87.6186 103.611 87.716 103.79ZM85.2773 103.836L84.6406 104.831L85.8253 104.803L85.7367 103.977L85.2773 103.836Z" fill="#F4A48D"/>
<path fill-rule="evenodd" clip-rule="evenodd" d="M99.0663 127.121C98.3236 128.988 95.5836 130.076 92.9497 129.555C90.6516 129.099 89.1848 127.572 89.3438 125.948L94.2754 124.116L96.8389 123.169C98.713 123.963 99.6671 125.564 99.0663 127.12" fill="#F4A48D"/>
<path fill-rule="evenodd" clip-rule="evenodd" d="M91.1296 109.265L88.1953 110.976L94.3112 127.358C94.3112 127.358 103.539 120.833 103.592 120.674C103.627 120.515 91.1294 109.265 91.1294 109.265" fill="#9BC3D3"/>
<path d="M90.5813 120.956L90.3162 118.918L89.6443 118.377C89.3053 118.111 89.1002 117.709 89.0832 117.279C89.0662 116.848 89.2391 116.431 89.5561 116.139C91.2886 114.577 94.1345 113.901 96.2557 114.372C96.8047 114.484 97.3268 114.701 97.7935 115.012C98.0311 115.167 98.216 115.391 98.3237 115.653L90.5813 120.956Z" fill="#2A8FEC"/>
<path fill-rule="evenodd" clip-rule="evenodd" d="M83.6863 104.859L82.1484 105.057L82.1841 105.35L83.1561 105.504L88.689 105.341C88.689 105.341 88.6178 104.735 88.5474 104.733C88.4771 104.731 83.6865 104.858 83.6865 104.858" fill="#F6C854"/>
<path d="M85.8612 106.995L83.6698 105.994C83.5095 105.919 83.389 105.778 83.3384 105.608C83.2878 105.438 83.312 105.255 83.4047 105.103C83.5633 104.856 83.8717 104.752 84.1479 104.851L86.5871 105.734L85.8612 106.995Z" fill="#F4A48D"/>
<path fill-rule="evenodd" clip-rule="evenodd" d="M101.824 123.062C100.823 126.621 97.1303 128.698 93.5685 127.707C93.3828 127.657 93.1998 127.597 93.0205 127.527C92.6532 127.392 92.2984 127.225 91.9599 127.028V127.026C91.8185 126.94 91.677 126.846 91.5358 126.751V126.745C91.3671 126.637 91.2075 126.515 91.0585 126.381C91.0052 126.339 90.9525 126.296 90.8995 126.252C90.2067 125.63 89.6526 124.868 89.273 124.018C89.2179 123.915 89.1706 123.809 89.1317 123.7C89.0964 123.603 89.0609 123.503 89.0256 123.403C88.9723 123.263 88.937 123.123 88.884 122.979C88.8315 122.728 88.778 122.471 88.7427 122.211C88.7283 122.175 88.7223 122.135 88.7252 122.096C88.6897 121.902 88.6719 121.705 88.6719 121.508V121.055C88.6719 120.933 88.6897 120.811 88.6897 120.691C88.7234 120.272 88.8004 119.858 88.9197 119.455C89.3966 117.743 90.5347 116.291 92.0832 115.419C93.6318 114.547 95.4635 114.326 97.1748 114.806C100.733 115.808 102.811 119.499 101.824 123.061" fill="#F4A48D"/>
<path fill-rule="evenodd" clip-rule="evenodd" d="M102.055 121.515C102.038 122.038 101.961 122.557 101.825 123.062C101.605 123.83 101.252 124.554 100.782 125.201C97.9532 129.079 91.943 128.416 89.9801 124.037C89.874 123.795 89.8211 123.647 89.8211 123.647V123.645L89.5734 122.471L89.1319 123.7C89.0966 123.603 89.0611 123.504 89.0258 123.403C88.9754 123.264 88.9341 123.123 88.9019 122.979C88.8489 122.789 88.7958 122.597 88.7605 122.401C88.7605 122.339 88.7427 122.275 88.7427 122.211C88.7283 122.175 88.7223 122.136 88.7252 122.096C88.6897 121.902 88.6719 121.705 88.6719 121.508V121.055C88.6719 120.933 88.6897 120.811 88.6897 120.691C88.72 120.385 88.7672 120.081 88.8313 119.78C88.8662 119.672 88.8838 119.564 88.9195 119.456C89.0389 119.028 89.1987 118.612 89.3968 118.213C90.8483 115.372 94.1017 113.947 97.1746 114.807C100.157 115.645 102.176 118.42 102.053 121.516" fill="#2A8FEC"/>
<path fill-rule="evenodd" clip-rule="evenodd" d="M89.9979 123.33C89.9503 123.441 89.891 123.547 89.8211 123.645V123.647C89.8032 123.666 89.7858 123.684 89.7678 123.702C89.7701 123.714 89.7625 123.727 89.7503 123.73C89.7282 123.761 89.7046 123.791 89.6795 123.82C89.6621 123.831 89.6621 123.838 89.6442 123.849C89.5407 123.948 89.4213 124.029 89.2909 124.089C89.2909 124.066 89.273 124.041 89.273 124.018C89.2179 123.916 89.1706 123.81 89.1317 123.7C89.0964 123.603 89.0609 123.504 89.0256 123.403C88.9723 123.264 88.937 123.124 88.884 122.979C88.8315 122.728 88.778 122.472 88.7427 122.212C88.7284 122.175 88.7224 122.136 88.7252 122.097C88.6897 121.903 88.6719 121.706 88.6719 121.508V121.397C88.9418 121.286 89.2477 121.304 89.5025 121.446C90.0683 121.763 90.2976 122.608 89.9979 123.331" fill="#F4A48D"/>
<path fill-rule="evenodd" clip-rule="evenodd" d="M75.2909 116.659L73.0635 117.568C72.8141 117.667 72.5312 117.548 72.4272 117.301L70.0054 111.361C69.9108 111.114 70.0276 110.836 70.2705 110.73L72.498 109.824C72.7469 109.724 73.0298 109.842 73.1342 110.089L75.556 116.028C75.6056 116.147 75.6055 116.28 75.5557 116.399C75.5059 116.518 75.4104 116.611 75.2909 116.659Z" fill="#CEDEE7"/>
<path fill-rule="evenodd" clip-rule="evenodd" d="M81.0898 106.994L85.5449 99.2559L81.0898 106.994Z" fill="#EAF7FE"/>
<path fill-rule="evenodd" clip-rule="evenodd" d="M73.5743 112.484C73.5766 112.804 73.4509 113.112 73.2252 113.34C72.9994 113.567 72.6923 113.695 72.372 113.695C71.7012 113.696 71.1557 113.155 71.1523 112.484C71.1557 111.813 71.7012 111.271 72.372 111.273C72.6923 111.273 72.9994 111.401 73.2252 111.628C73.4509 111.855 73.5766 112.163 73.5743 112.484Z" fill="white"/>
<path d="M102.916 75.669H150.098L123.376 55.5615L102.916 55.3311L102.916 75.669Z" fill="#2A8FEC"/>
<path fill-rule="evenodd" clip-rule="evenodd" d="M82.0367 74.9578C85.4371 86.3736 93.2081 95.9849 103.659 101.7C115.678 108.312 130.048 109.111 142.727 103.873V38.3779H86.7506C86.3958 38.9599 86.0522 39.5558 85.7218 40.1588C84.1889 42.944 82.9531 45.8831 82.0348 48.9268C79.4846 57.4164 79.4846 66.4684 82.0348 74.958" fill="#9BC3D3"/>
<mask id="mask0_1483_87220" style="mask-type:luminance" maskUnits="userSpaceOnUse" x="69" y="12" width="91" height="91">
<path fill-rule="evenodd" clip-rule="evenodd" d="M160 12.0488H69.3199V102.73H160V12.0488Z" fill="white"/>
</mask>
<g mask="url(#mask0_1483_87220)">
<path d="M157.979 70.7336C150.609 94.6583 125.24 108.079 101.315 100.71C77.3901 93.3392 63.9703 67.9688 71.3411 44.0435C78.7116 20.1195 104.081 6.69958 128.005 14.0699C151.929 21.4401 165.349 46.8092 157.979 70.7336Z" fill="white"/>
</g>
<path fill-rule="evenodd" clip-rule="evenodd" d="M71.8145 61.5166C71.8145 83.4939 89.6312 101.309 111.609 101.309H111.61C133.587 101.309 151.402 83.4934 151.402 61.5166C151.403 39.5389 133.587 21.7221 111.61 21.7212C89.6319 21.7212 71.8145 39.5371 71.8145 61.515V61.5166Z" fill="#DEEDF2"/>
<path fill-rule="evenodd" clip-rule="evenodd" d="M138.242 48.7597C138.242 53.7261 142.269 57.7523 147.235 57.7523C152.202 57.7531 156.23 53.7268 156.23 48.7597C156.23 43.7925 152.202 39.7664 147.235 39.7671C142.269 39.7671 138.242 43.7932 138.242 48.7597Z" fill="#34466B"/>
<path d="M139.199 47.1676C139.199 52.1338 143.225 56.1598 148.191 56.1602C153.157 56.1598 157.183 52.1338 157.184 47.1676C157.184 42.2004 153.158 38.1732 148.191 38.1724C143.224 38.1732 139.198 42.2004 139.199 47.1676Z" fill="white"/>
<path d="M150.917 41.8924C150.533 41.8633 150.198 42.151 150.169 42.5353C150.166 42.5716 150.166 42.608 150.169 42.6443L150.28 43.3482C150.303 43.6905 150.576 43.9631 150.918 43.9861C151.261 43.9642 151.535 43.6912 151.558 43.3482L151.67 42.6443C151.7 42.2592 151.412 41.9229 151.028 41.8924C150.991 41.8894 150.954 41.8894 150.918 41.8924" fill="white"/>
<path fill-rule="evenodd" clip-rule="evenodd" d="M133 86.92C133.002 91.887 137.029 95.9126 141.996 95.9126C146.962 95.911 150.987 91.8858 150.988 86.92C150.988 81.953 146.963 77.9262 141.996 77.9248C137.028 77.9252 133 81.952 133 86.92Z" fill="#34466B"/>
<path d="M133.956 85.3236C133.956 90.2897 137.982 94.3159 142.948 94.3162H142.949C147.915 94.3168 151.941 90.2918 151.941 85.3263V85.3236C151.942 80.3575 147.916 76.3314 142.95 76.3311H142.949C137.983 76.3307 133.957 80.3563 133.956 85.3223V85.3236Z" fill="white"/>
<path d="M137.962 66.8623H136.945H116.684H94.8948L91.2305 65.9776V59.5928H139.55L137.962 66.8623Z" fill="#2274C0"/>
<path fill-rule="evenodd" clip-rule="evenodd" d="M128.188 55.6594C128.535 55.5204 129.23 55.8261 130.172 56.0017C132.534 56.4413 134.915 56.7301 137.26 57.2408C139.016 57.6236 141.376 58.1194 142.093 60.0125C142.625 61.4142 142.642 63.5684 142.31 65.029C142.147 65.7476 141.779 66.4086 141.043 66.6456C140.78 66.7303 137.779 66.9146 137.786 66.8477C137.805 66.6558 137.815 66.4607 137.815 66.2637C137.815 63.0781 135.233 60.4958 132.047 60.4958C128.862 60.4958 126.279 63.0781 126.279 66.2637C126.279 66.4607 126.289 66.6558 126.309 66.8477H116.684H104.29C104.309 66.6558 104.319 66.4607 104.319 66.2637C104.319 63.0781 101.736 60.4958 98.5511 60.4958C95.3655 60.4958 92.7832 63.0781 92.7832 66.2637C92.7832 66.2883 92.7838 66.3135 92.784 66.3384L89.9022 65.6425C89.0016 65.4254 88.3672 64.6194 88.3672 63.6924V57.5084C88.3672 56.5922 88.795 55.7285 89.5234 55.1733L94.0147 51.7516C94.8833 51.0896 95.9096 50.6684 96.992 50.5237C97.2035 50.4957 97.4158 50.4682 97.629 50.4416L98.5381 50.3215L100.074 50.1831" fill="#2A8FEC"/>
<path fill-rule="evenodd" clip-rule="evenodd" d="M134.2 63.0161C132.4 61.3737 130.181 60.256 127.814 59.7005C125.325 59.1167 122.885 59.2767 120.301 59.1575C120.042 59.1456 113.836 59.0335 114.09 59.0808C114.316 59.123 105.991 59.0992 103.736 58.7348C102.189 58.4845 101.24 57.9115 99.9978 57.1086C96.898 55.1053 92.642 54.8528 89.2619 55.9102C88.6753 56.0939 88.0898 56.3603 87.6906 56.8278C86.6456 58.0511 86.4336 63.6151 87.5032 64.8965C87.8225 65.279 88.3064 65.4772 88.7755 65.6453C89.4889 65.9004 90.2143 66.123 90.9455 66.3223C91.3991 66.446 91.8526 66.5598 92.3008 66.6997C92.773 66.8466 93.3194 67 93.8109 66.8562C94.1549 66.7557 94.4004 66.5015 94.538 66.1773C95.0804 64.9019 95.4119 63.3793 96.5934 62.6545C97.2083 62.2774 97.9636 62.1919 98.683 62.2474C99.2869 62.2938 99.9103 62.4464 100.364 62.8482C100.892 63.3153 101.107 64.046 101.162 64.7484C101.201 65.2549 100.935 64.6513 101.339 64.9305C101.432 64.9933 102.055 65.2699 102.167 65.2702C110.816 65.2974 119.452 65.5293 128.204 65.5335" fill="#2274C0"/>
<path fill-rule="evenodd" clip-rule="evenodd" d="M100.865 50.1091C102.211 49.9888 103.582 49.8954 104.972 49.8317C108.268 49.6802 111.468 49.7023 114.514 49.8795C117.082 50.0287 119.583 50.7626 121.826 52.0204L128.962 56.0803L127.672 56.8351L117.718 56.5729L105.326 56.6168L103.266 56.8351L101.52 54.9575L100.676 50.9409L100.865 50.1091Z" fill="#EAF7FE"/>
<path fill-rule="evenodd" clip-rule="evenodd" d="M132.075 61.583C134.671 61.583 136.776 63.6874 136.776 66.2833C136.776 68.8791 134.671 70.9838 132.075 70.9838C129.479 70.9838 127.375 68.8791 127.375 66.2833C127.375 63.6874 129.479 61.583 132.075 61.583ZM99.4463 61.583C102.042 61.583 104.147 63.6874 104.147 66.2833C104.147 68.8791 102.042 70.9838 99.4463 70.9838C96.8505 70.9838 94.7461 68.8791 94.7461 66.2833C94.7461 63.6874 96.8505 61.583 99.4463 61.583Z" fill="#34466B"/>
<path fill-rule="evenodd" clip-rule="evenodd" d="M96.4472 50.633C96.4288 50.6222 96.3526 50.648 96.3314 50.65C96.1909 50.6633 96.0502 50.691 95.9107 50.7114C95.3662 50.791 94.7949 50.8552 94.2477 50.973C94.0186 51.0223 93.7904 51.0843 93.5685 51.1599C93.4382 51.2043 92.8893 51.3713 93.0807 51.584C93.1384 51.648 93.7414 51.9469 93.7918 51.9033C93.462 52.1881 93.1344 52.4376 92.8004 52.6921C92.269 53.0969 91.7378 53.5018 91.2064 53.9066C90.6459 54.3336 90.085 54.7608 89.5245 55.1877C89.4019 55.2814 89.2886 55.3842 89.1836 55.4941C90.6068 54.9157 91.9708 54.1784 93.323 53.4528C93.6783 53.2623 94.0316 53.0683 94.385 52.8738C94.6933 52.7042 95.0237 52.5307 95.3382 52.3557C95.6428 52.1864 95.9854 52.0282 96.2167 51.7606C96.4033 51.5449 96.5066 51.2751 96.5066 50.9894C96.5077 50.9164 96.525 50.6783 96.4472 50.633Z" fill="#767676"/>
<path fill-rule="evenodd" clip-rule="evenodd" d="M118.965 50.748C119.952 51.0824 120.909 51.5079 121.823 52.0206L128.959 56.0805L127.669 56.835L117.714 56.5731L115.406 56.5813" fill="#9BC3D3"/>
<path fill-rule="evenodd" clip-rule="evenodd" d="M127.961 55.8781C127.877 55.9863 127.682 56.0104 127.556 56.0095C123.02 55.9736 112.055 55.8869 111.009 55.8739C108.652 55.8442 106.278 56.0194 103.926 55.8968C103.507 55.875 103.047 55.8201 102.766 55.5095C102.572 55.2958 102.503 55.0005 102.441 54.7188C102.097 53.1668 101.753 51.6147 101.41 50.063C100.962 50.1035 100.514 50.144 100.066 50.1844C100.409 51.6997 100.751 53.2152 101.094 54.7307C101.41 56.1298 102.005 56.9964 103.526 57.1122C106.257 57.3206 109.028 57.1219 111.765 57.0836C114.236 57.0488 116.71 57.0947 119.18 57.1488C120.412 57.1759 121.643 57.2071 122.875 57.2371C123.683 57.2566 124.491 57.283 125.299 57.3166C126.081 57.3492 126.887 57.454 127.666 57.3379C128.15 57.2657 128.61 57.0842 128.985 56.7654C129.149 56.6261 129.514 56.334 129.358 56.0823C129.225 55.868 129.006 55.7624 128.787 55.6791C128.496 55.5687 128.144 55.5064 127.839 55.4407C127.973 55.4696 128.012 55.6669 128.002 55.7765C127.998 55.8167 127.983 55.8501 127.961 55.8781Z" fill="#2274C0"/>
<path fill-rule="evenodd" clip-rule="evenodd" d="M99.4342 64.0229C100.723 64.0229 101.771 65.0252 101.771 66.2573C101.771 67.4891 100.723 68.4913 99.4342 68.4913C98.1568 68.4913 97.1172 67.4891 97.1172 66.2573C97.1172 65.0252 98.1568 64.0229 99.4342 64.0229ZM132.05 64.1953C133.247 64.1953 134.22 65.1259 134.22 66.2697C134.22 67.4138 133.247 68.3443 132.05 68.3443C130.864 68.3443 129.898 67.4138 129.898 66.2697C129.898 65.1259 130.864 64.1953 132.05 64.1953Z" fill="#CEDEE7"/>
<path fill-rule="evenodd" clip-rule="evenodd" d="M148.193 44.356C150.115 44.356 151.679 45.9196 151.679 47.8418C151.679 49.7639 150.115 51.3276 148.193 51.3276C146.271 51.3276 144.707 49.7639 144.707 47.8418C144.707 45.9196 146.271 44.356 148.193 44.356ZM148.192 44.7046C146.462 44.7046 145.055 46.112 145.055 47.8418C145.055 49.5717 146.462 50.9791 148.192 50.9791C149.922 50.9791 151.329 49.5717 151.329 47.8418C151.329 46.112 149.922 44.7046 148.192 44.7046ZM146.368 48.1905L146.372 48.1906H148.717C148.813 48.1906 148.891 48.2685 148.891 48.3649C148.891 48.4612 148.813 48.5391 148.717 48.5391H146.6C146.874 49.1641 147.497 49.5849 148.194 49.5849C148.761 49.5849 149.295 49.3076 149.621 48.843C149.676 48.7647 149.785 48.7449 149.864 48.8006C149.943 48.8561 149.962 48.9647 149.906 49.0435C149.514 49.6007 148.874 49.9335 148.194 49.9335C147.308 49.9335 146.522 49.3648 146.229 48.5391H145.928C145.832 48.5391 145.754 48.4612 145.754 48.3649C145.754 48.2685 145.832 48.1906 145.928 48.1906H146.364C146.366 48.1908 146.369 48.1902 146.372 48.1906L146.368 48.1905ZM148.194 45.7505C148.862 45.7505 149.495 46.0737 149.888 46.6153C149.945 46.6933 149.927 46.8022 149.849 46.8587C149.771 46.9154 149.662 46.8977 149.606 46.8199C149.278 46.3685 148.751 46.0991 148.194 46.0991C147.499 46.0991 146.875 46.5208 146.601 47.1448H148.717C148.813 47.1448 148.891 47.2228 148.891 47.3191C148.891 47.4155 148.813 47.4934 148.717 47.4934H145.928C145.832 47.4934 145.754 47.4155 145.754 47.3191C145.754 47.2228 145.832 47.1448 145.928 47.1448H146.228C146.522 46.32 147.31 45.7505 148.194 45.7505Z" fill="#2A8FEC"/>
<path fill-rule="evenodd" clip-rule="evenodd" d="M143.442 82.1143C143.923 82.1143 144.314 82.505 144.314 82.9857L144.313 82.9948C145.089 83.3179 145.617 84.0423 145.692 84.8757C145.903 84.8085 146.057 84.6129 146.057 84.3801C146.057 84.2838 146.135 84.2058 146.231 84.2058C146.327 84.2058 146.405 84.2838 146.405 84.3801C146.405 84.8039 146.101 85.157 145.7 85.2348C145.64 86.1069 145.086 86.8452 144.314 87.1684V87.8659C144.314 87.9621 144.236 88.0402 144.139 88.0402C144.043 88.0402 143.965 87.9621 143.965 87.8659V87.2796C143.797 87.3197 143.623 87.343 143.442 87.343H142.048C141.868 87.343 141.695 87.3162 141.525 87.2757V87.8659C141.525 87.9621 141.447 88.0402 141.351 88.0402C141.255 88.0402 141.177 87.9621 141.177 87.8659V87.1687C141.177 87.167 141.178 87.1652 141.178 87.1635C140.634 86.9369 140.189 86.5085 139.958 85.9487H139.608C139.512 85.9487 139.434 85.8706 139.434 85.7744V84.3801C139.434 84.2838 139.512 84.2058 139.608 84.2058H139.958C140.144 83.7512 140.473 83.3733 140.899 83.1279C141.027 82.8275 141.399 82.1143 142.048 82.1143C142.144 82.1143 142.222 82.1923 142.222 82.2885V82.8114H142.589C142.669 82.414 143.022 82.1143 143.442 82.1143ZM141.873 82.4937C141.487 82.6313 141.247 83.1901 141.198 83.3146C141.183 83.3529 141.155 83.3846 141.119 83.4042C140.707 83.6262 140.396 83.9933 140.242 84.437C140.218 84.5074 140.152 84.5545 140.078 84.5545H139.781V85.6002H140.078C140.152 85.6002 140.218 85.6473 140.242 85.7174C140.508 86.4811 141.233 86.9946 142.047 86.9946H143.441C144.499 86.9946 145.359 86.1343 145.359 85.0774C145.359 84.323 144.915 83.6443 144.239 83.3362C144.231 83.354 144.22 83.3703 144.211 83.3871C144.203 83.4031 144.195 83.4191 144.186 83.4345C144.167 83.4648 144.146 83.4934 144.124 83.5213C144.118 83.5296 144.112 83.5391 144.105 83.5471C144.076 83.5816 144.044 83.6133 144.009 83.6429C143.997 83.653 143.984 83.6614 143.972 83.6715C143.948 83.6903 143.922 83.7085 143.896 83.7249C143.881 83.7339 143.866 83.7423 143.851 83.7506C143.824 83.7649 143.797 83.7775 143.77 83.7893C143.754 83.796 143.738 83.8026 143.721 83.8082C143.691 83.819 143.66 83.827 143.629 83.8343C143.614 83.8371 143.599 83.8416 143.584 83.8441C143.538 83.8521 143.49 83.8573 143.441 83.8573C143.385 83.8573 143.329 83.8507 143.276 83.8406C143.258 83.8371 143.242 83.8312 143.224 83.8266C143.189 83.8176 143.154 83.8075 143.121 83.7942C143.101 83.7869 143.083 83.7775 143.065 83.7681C143.035 83.7538 143.006 83.7388 142.979 83.7217C142.961 83.7102 142.943 83.6977 142.926 83.6848C142.901 83.6659 142.877 83.6464 142.853 83.6248C142.838 83.6102 142.822 83.5955 142.807 83.5795C142.785 83.5565 142.766 83.5314 142.746 83.5059C142.734 83.4892 142.721 83.4728 142.709 83.4554C142.691 83.4265 142.675 83.3954 142.66 83.3641C142.652 83.3473 142.642 83.3316 142.635 83.3146C142.616 83.2686 142.601 83.2201 142.59 83.1699C142.59 83.1671 142.588 83.164 142.588 83.1605L142.047 83.1601C141.951 83.1601 141.873 83.0821 141.873 82.9859V82.4937ZM141.002 84.2058C141.098 84.2058 141.177 84.2839 141.177 84.3801V84.7286C141.177 84.8249 141.098 84.9029 141.002 84.9029C140.906 84.9029 140.828 84.8249 140.828 84.7286V84.3801C140.828 84.2839 140.906 84.2058 141.002 84.2058ZM144.139 84.2056C144.235 84.2056 144.313 84.2836 144.313 84.3799C144.313 84.4761 144.235 84.5542 144.139 84.5542H142.745C142.648 84.5542 142.57 84.4761 142.57 84.3799C142.57 84.2836 142.648 84.2056 142.745 84.2056H144.139ZM143.441 82.4629C143.153 82.4629 142.918 82.6975 142.918 82.9858C142.918 83.274 143.153 83.5086 143.441 83.5086C143.693 83.5086 143.914 83.3221 143.956 83.075C143.961 83.0443 143.964 83.0164 143.964 82.9858C143.964 82.6975 143.729 82.4629 143.441 82.4629Z" fill="#2A8FEC"/>
<circle cx="98.1263" cy="111.744" r="1.22004" fill="#9BC3D3"/>
<ellipse cx="100.391" cy="107.038" rx="1.74292" ry="1.74292" fill="#9BC3D3"/>
<circle cx="103.182" cy="101.112" r="2.44009" fill="#9BC3D3"/>
</svg>
