<svg width="160" height="160" viewBox="0 0 160 160" fill="none" xmlns="http://www.w3.org/2000/svg">
<mask id="mask0_1487_13901" style="mask-type:luminance" maskUnits="userSpaceOnUse" x="0" y="0" width="160" height="160">
<rect width="160" height="160" fill="white"/>
</mask>
<g mask="url(#mask0_1487_13901)">
<rect width="160" height="160" fill="white"/>
<path fill-rule="evenodd" clip-rule="evenodd" d="M111.151 27.1223C111.151 27.1223 151.797 24.5823 158.586 41.5135C165.374 58.4447 145.894 76.2815 138.306 94.8471C130.718 113.413 148.082 130.711 135.366 137.661C122.65 144.611 112.768 136.03 100.549 128.846C88.3297 121.661 43.1209 150.536 25.8933 144.016C8.6657 137.496 -9.1003 116.156 5.2613 97.9119C19.6229 79.6675 13.4333 88.3551 35.7733 55.0511C58.1133 21.7471 111.151 27.1223 111.151 27.1223Z" fill="#9BC3D3"/>
<path fill-rule="evenodd" clip-rule="evenodd" d="M82.2341 118.833C82.2341 118.833 22.4841 133.414 14.0625 124.788C0.833326 111.233 27.6297 101.073 25.3825 79.6451C23.1353 58.2167 -3.46427 52.0303 5.07453 39.0739C13.6133 26.1174 20.2781 21.8287 35.5449 22.5475C50.8117 23.2663 50.6941 30.5271 70.3793 28.1075C90.0645 25.6879 95.9361 11.6107 114.287 12.8807C132.638 14.1507 124.623 21.4691 131.157 33.8899C137.69 46.3107 140.349 54.3851 140.419 62.5639C140.543 77.0771 123.495 86.1935 123.495 86.1935L82.2341 118.833Z" fill="#EAF7FE"/>
<path fill-rule="evenodd" clip-rule="evenodd" d="M105.67 48.7845L104.059 46.3225L106.544 44.7261L108.156 47.1881L105.67 48.7845Z" fill="#1BB3BC"/>
<path fill-rule="evenodd" clip-rule="evenodd" d="M109.685 36.1661C109.315 36.9979 109.293 37.9432 109.623 38.7916C109.954 39.6399 110.61 40.3209 111.445 40.6829C113.186 41.4508 115.221 40.6733 116.005 38.9401C116.375 38.1093 116.398 37.1652 116.069 36.3175C115.74 35.4698 115.085 34.7887 114.251 34.4257C112.512 33.6549 110.476 34.4291 109.689 36.1609L109.686 36.1661" fill="#F6C854"/>
<path d="M66.9123 46.8968C66.1534 49.1838 65.1384 51.3778 63.8867 53.4368C66.7903 50.1674 68.9996 46.3424 70.3807 42.1936C70.7753 41.0007 71.2722 39.8441 71.8659 38.7368C69.6065 41.0376 67.911 43.8307 66.9123 46.8968Z" fill="#9BC3D3"/>
<path d="M64.2079 55.8745C64.2079 55.8745 60.4187 56.3193 58.7227 57.3293L63.4919 59.4249L64.2079 55.8745Z" fill="#990000"/>
<path fill-rule="evenodd" clip-rule="evenodd" d="M66.9453 61.8799L74.1205 63.2695C76.2364 63.6782 78.0565 65.0163 79.0777 66.9139L90.9321 88.9375L84.3453 94.2251L75.0741 77.3367L66.9453 61.8799Z" fill="#EC0000"/>
<path d="M73.6941 58.5864L74.9341 60.5556L72.9905 66.006L68.9805 61.7148L72.1497 58.5992L73.6941 58.5864Z" fill="#990000"/>
<path fill-rule="evenodd" clip-rule="evenodd" d="M76.4743 66.3425L58.1875 66.1157L63.5075 90.4801L73.2843 95.8897L85.1783 91.1801L79.3427 69.2933L76.4743 66.3425Z" fill="#EC0000"/>
<path d="M61.9254 47.3141C63.2336 52.1941 68.2461 55.0934 73.1286 53.7941C75.4726 53.1758 77.4746 51.6508 78.6932 49.5551C79.9119 47.4594 80.2471 44.9651 79.625 42.6221C78.3178 37.7428 73.3065 34.8434 68.425 36.1421C66.0805 36.7598 64.078 38.2847 62.859 40.3805C61.64 42.4762 61.3047 44.9708 61.927 47.3141" fill="#723846"/>
<path d="M60.7422 58.6624C60.7422 58.6624 67.0274 66.7956 73.1466 69.7464L73.9106 64.8756C73.4217 64.4057 73.0198 63.853 72.7234 63.2432C72.6483 63.0932 72.5816 62.9392 72.5234 62.782C72.452 62.5963 72.3906 62.407 72.3394 62.2148C72.1106 61.3558 72.0848 60.4554 72.2638 59.5848L72.8918 56.5048L72.9406 56.2648L72.3702 55.726L64.4746 48.2432C64.4746 48.2432 65.037 55.4668 60.743 58.6604" fill="#FFC4B8"/>
<path d="M73.2715 61.7002C73.2715 61.7002 71.4979 66.189 65.4375 62.2694C65.4375 62.2694 66.3459 73.9638 66.6163 74.019C66.8867 74.0742 74.8715 73.9086 74.8715 73.9086L75.7879 68.0418L73.2715 61.7002Z" fill="white"/>
<path fill-rule="evenodd" clip-rule="evenodd" d="M70.4721 113.767C71.7956 114.222 73.1808 114.471 74.5797 114.507L82.0181 114.692C88.6281 114.858 95.2222 113.968 101.551 112.054L103.485 111.471L101.629 95.3918L62.8347 89.1538C62.8347 89.1538 55.3347 107.668 70.4721 113.767Z" fill="#34466B"/>
<path fill-rule="evenodd" clip-rule="evenodd" d="M64.8232 51.3687L70.1384 57.9415C70.7472 58.7622 71.687 59.2723 72.7069 59.3357C73.7267 59.399 74.7225 59.009 75.428 58.2699C76.0094 57.656 76.5544 57.0088 77.0604 56.3315L78.2204 54.7763C78.298 54.6723 78.372 54.5663 78.4432 54.4599C78.6982 54.0726 78.9103 53.6587 79.0756 53.2255C79.4148 52.3522 79.5605 51.4158 79.5028 50.4807L79.1828 45.2083C79.1191 44.168 78.512 43.2383 77.5852 42.7615C75.6014 41.7401 73.3088 41.492 71.1524 42.0655C70.9868 42.1083 70.8212 42.1571 70.6568 42.2103L69.4444 42.5303C68.5631 42.7595 67.7511 43.2007 67.0792 43.8155C66.5375 44.3082 66.0976 44.9024 65.7844 45.5643C65.5589 46.0405 65.4018 46.5462 65.3176 47.0663C65.2055 47.758 65.2243 48.4647 65.3728 49.1495L64.9984 48.6843C64.7584 48.7495 64.8248 51.3675 64.8248 51.3675" fill="#FFC4B8"/>
<path d="M79.2341 46.0107L77.6281 46.2291L75.8281 54.3423L79.8949 53.8363L79.2341 46.0107Z" fill="#FFC4B8"/>
<path d="M74.2563 59.5112C74.2563 59.5112 75.2367 60.0216 73.4339 62.7396C71.6311 65.4576 71.4883 70.1856 71.4883 70.1856L74.5655 75.5296L79.3447 69.294L76.8919 62.7848C76.3837 61.4413 75.4605 60.2947 74.2563 59.5116" fill="#CC0000"/>
<path d="M58.7246 57.3296L57.4414 60.68L60.7578 63.51C61.216 62.1681 62.2091 61.0756 63.5014 60.492C63.7755 60.3846 63.9556 60.1198 63.9547 59.8254C63.9538 59.531 63.7722 59.2673 63.4974 59.1616L58.7246 57.3296Z" fill="#CC0000"/>
<path d="M63.5914 48.0022C63.2558 46.7474 63.5706 45.5762 64.293 45.3842C65.0154 45.1922 65.8726 46.0538 66.2058 47.3086C66.539 48.5634 66.2262 49.735 65.5046 49.9266C64.783 50.1182 63.9246 49.2574 63.5914 48.0022Z" fill="#FFC4B8"/>
<path fill-rule="evenodd" clip-rule="evenodd" d="M102.682 139.866L97.5016 103.75L84.5481 94.9538L97.9637 93.2242C103.368 92.521 108.337 96.2851 109.123 101.678L114.081 136.016L102.682 139.866Z" fill="#34466B"/>
<path fill-rule="evenodd" clip-rule="evenodd" d="M111.076 141.505L105.894 105.391L92.941 96.5945L106.356 94.8635C111.76 94.1614 116.728 97.925 117.516 103.317L122.476 137.655L111.076 141.505Z" fill="#34466B"/>
<path d="M75.9752 43.8209C77.406 43.6209 78.9376 43.2905 79.8952 42.2133C80.8528 41.1361 80.7708 39.0853 79.4244 38.5609C79.0052 38.3973 78.5 38.3853 78.1912 38.0589C77.8268 37.6753 77.9192 37.0589 77.718 36.5693C77.2412 35.4093 75.5916 35.5553 74.34 35.6893C73.0044 35.8301 71.652 35.7181 70.3152 35.8669C68.9784 36.0157 67.5988 36.4769 66.752 37.5177C65.352 39.2397 66.222 42.2517 68.3252 42.9677C68.3252 42.9677 73.3652 44.1901 75.9732 43.8225" fill="#723846"/>
<path d="M64.8692 49.1338C64.7359 50.4464 65.1296 51.758 65.9636 52.7802L70.1396 57.9426C70.748 58.7633 71.6877 59.2736 72.7073 59.337C73.727 59.4004 74.7226 59.0104 75.428 58.2714C75.7612 57.9242 76.0768 57.563 76.3696 57.2102C76.6188 56.9106 76.8496 56.6146 77.0612 56.3326L77.4044 55.8698L77.4272 55.8394L77.8672 55.2478L78.2188 54.7782C78.2988 54.6742 78.3712 54.5682 78.4424 54.4622C77.2971 53.9116 75.9529 53.9666 74.8564 54.609L69.1336 51.5362L66.73 42.519L65.6004 45.039C65.6004 45.039 64.8928 47.4102 65.3708 49.1526L64.9968 48.6874C64.9356 48.7038 64.8944 48.879 64.868 49.1342" fill="#723846"/>
<path d="M76.3654 57.2094C76.615 56.9094 76.8454 56.6134 77.057 56.3322L77.4006 55.869L75.3242 55.3774C75.3242 55.3774 75.6442 56.6406 76.3642 57.2098" fill="#FFC4B8"/>
<path fill-rule="evenodd" clip-rule="evenodd" d="M108.336 137.573C108.656 139.517 112.271 143.876 112.271 143.876H131.341C131.341 143.876 117.574 134.706 114.566 134.541L108.336 137.573Z" fill="#34466B"/>
<path d="M88.6901 93.219L78.7826 92.8906" stroke="#EC0000" stroke-width="8.62"/>
<path fill-rule="evenodd" clip-rule="evenodd" d="M75.2571 89.068L79.0971 88.89L83.0311 85.544C83.3756 85.2498 83.798 85.062 84.2471 85.0032L87.9599 84.5052C88.529 84.4289 89.0922 84.6811 89.4143 85.1564L90.4047 86.6232C90.4454 86.6819 90.453 86.7575 90.4247 86.8232L90.3251 87.0724C90.299 87.1351 90.2452 87.1822 90.1796 87.1997C90.1139 87.2173 90.0438 87.2033 89.9899 87.162L89.8627 87.06L90.0163 87.364C90.1001 87.5278 90.0731 87.7264 89.9487 87.862L89.5887 88.256C89.4288 88.4272 89.1633 88.4447 88.9823 88.296L87.3275 86.9332C87.2979 86.9083 87.2585 86.8985 87.2207 86.9068L86.3679 87.0844C86.3165 87.095 86.2772 87.1365 86.2694 87.1884C86.2617 87.2403 86.2871 87.2915 86.3331 87.3168L87.4435 87.9392C87.5468 87.9968 87.6061 88.1101 87.5946 88.2278C87.5832 88.3455 87.5031 88.4453 87.3907 88.482L86.5555 88.762C86.5024 88.7779 86.4463 88.7808 86.3919 88.7704L85.8067 88.6356C85.6431 88.5984 85.4717 88.6194 85.3219 88.6948L84.5015 89.1108C84.3396 89.1923 84.2025 89.3156 84.1043 89.468L83.5971 90.2436C83.3603 90.6077 83.0174 90.8903 82.6147 91.0532L74.6211 94.304L75.2571 89.068Z" fill="#FFC4B8"/>
<path fill-rule="evenodd" clip-rule="evenodd" d="M88.3348 94.8014L111.168 92.4521C111.602 92.408 111.947 92.0663 111.994 91.6324L113.719 75.3704C113.751 75.0929 113.654 74.8163 113.457 74.6184C113.26 74.4206 112.984 74.3229 112.706 74.353L89.8742 76.7022C89.4397 76.7452 89.0952 77.0878 89.0498 77.5222L87.3219 93.7837C87.2929 94.0607 87.3901 94.336 87.5866 94.5334C87.7831 94.7308 88.058 94.8293 88.3351 94.8015" fill="white"/>
<path fill-rule="evenodd" clip-rule="evenodd" d="M89.7986 77.4466L88.07 93.7072C88.0409 93.9843 88.138 94.2597 88.3346 94.4571C88.5311 94.6546 88.8061 94.753 89.0833 94.7251L98.6436 93.7393L110.769 92.494L111.916 92.3756C112.352 92.3322 112.696 91.9883 112.74 91.5532L114.467 75.294C114.497 75.0169 114.4 74.7411 114.203 74.5437C114.007 74.3462 113.731 74.248 113.454 74.2765L104.125 75.2346L90.6218 76.6241C90.1876 76.6694 89.844 77.0119 89.7975 77.4461" fill="#EC0000"/>
<path fill-rule="evenodd" clip-rule="evenodd" d="M104.123 75.2355L110.766 92.4942L111.913 92.3759C112.348 92.3311 112.692 91.9884 112.739 91.5538L114.464 75.2943C114.494 75.0171 114.397 74.7413 114.2 74.5438C114.003 74.3464 113.728 74.2484 113.451 74.2772L104.123 75.2355Z" fill="#CC0000"/>
<path fill-rule="evenodd" clip-rule="evenodd" d="M103.102 141.004C103.419 142.951 103.642 145.599 103.642 145.599H122.712C122.712 145.599 108.947 136.427 105.937 136.262L103.102 141.004Z" fill="#34466B"/>
<mask id="mask1_1487_13901" style="mask-type:luminance" maskUnits="userSpaceOnUse" x="39" y="35" width="49" height="44">
<path fill-rule="evenodd" clip-rule="evenodd" d="M49.8128 71.1252C52.6084 75.9443 57.7596 78.9091 63.3308 78.9056H87.0664L66.0792 42.6656C63.5388 38.2888 58.8595 35.5963 53.7988 35.5996C42.8832 35.5996 36.0604 47.3804 41.5188 56.8052L49.8128 71.1252Z" fill="white"/>
</mask>
<g mask="url(#mask1_1487_13901)">
<mask id="mask2_1487_13901" style="mask-type:luminance" maskUnits="userSpaceOnUse" x="39" y="73" width="74" height="74">
<path fill-rule="evenodd" clip-rule="evenodd" d="M112.32 146.539H39.3789V73.8188H112.32V146.539Z" fill="white"/>
</mask>
<g mask="url(#mask2_1487_13901)">
<path fill-rule="evenodd" clip-rule="evenodd" d="M87.3015 73.3643H38.9219V117.581H87.3015V73.3643Z" fill="#EC0000"/>
</g>
</g>
<path fill-rule="evenodd" clip-rule="evenodd" d="M58.9386 59.7231L55.1842 61.6831C50.9262 63.9055 48.4055 68.4546 48.7786 73.2431L50.2414 91.8031C50.5513 95.6634 53.8812 98.5734 57.7482 98.3631L76.7406 97.3571C76.7406 97.3571 74.433 90.1927 76.7446 88.5971L59.9354 88.9971L59.7042 70.2279L58.9386 59.7231Z" fill="#EC0000"/>
<path fill-rule="evenodd" clip-rule="evenodd" d="M68.0433 62.8526L74.5861 71.9782L75.6101 86.8558L59.6141 94.8014L55.4141 63.4342L62.8497 59.5942C64.9398 59.9589 66.8039 61.128 68.0421 62.851" fill="#EC0000"/>
</g>
</svg>
