<svg width="164" height="155" viewBox="0 0 164 155" fill="none" xmlns="http://www.w3.org/2000/svg">
<path fill-rule="evenodd" clip-rule="evenodd" d="M102.039 23.3072C110.34 32.1897 121.337 37.987 133.254 40.1659C140.488 41.4884 147.409 44.9644 153.002 50.5942C167.651 65.3394 167.668 89.118 153.039 103.883C146.585 110.397 138.356 114.036 129.918 114.803C122.694 115.46 115.907 118.633 110.895 123.913C110.831 123.981 110.766 124.048 110.701 124.115C102.151 132.897 88.3204 132.984 79.667 124.306C79.6173 124.257 79.5681 124.207 79.5195 124.157C77.2079 121.795 73.8713 120.763 70.6385 121.395C52.2065 124.999 32.3841 119.614 18.1081 105.24C-4.7027 82.2722 -4.7027 44.9661 18.1081 21.9979C40.9372 -0.988342 77.9493 -0.988205 100.778 21.9982C101.207 22.4296 101.627 22.8659 102.039 23.3072Z" fill="#DEEDF2"/>
<path fill-rule="evenodd" clip-rule="evenodd" d="M163.578 143.047C163.578 147.871 127.089 151.781 82.0781 151.781C37.0668 151.781 0.578125 147.871 0.578125 143.047C0.578125 138.222 37.0668 134.312 82.0781 134.312C127.089 134.312 163.578 138.222 163.578 143.047Z" fill="#9BC3D3"/>
<path fill-rule="evenodd" clip-rule="evenodd" d="M114.99 57.3342L114.297 57.8017L125.105 74.1367L125.441 72.6546L114.99 57.3342Z" fill="#34466B"/>
<path fill-rule="evenodd" clip-rule="evenodd" d="M113.799 56.6692C113.263 56.8702 94.7897 68.9444 94.7897 68.9444L105.714 86.4875L125.105 74.1366L113.799 56.6692Z" fill="#9E3667"/>
<path fill-rule="evenodd" clip-rule="evenodd" d="M93.5485 63.4826L93.1396 63.2716C96.1421 57.4428 98.5683 56.8685 99.1439 56.8178C99.2097 56.7552 99.3147 56.6913 99.4751 56.6675C100.672 56.4876 103.447 58.8843 107.496 63.5965L107.147 63.8966C101.879 57.7654 100.117 57.1123 99.6031 57.1186C99.5088 57.1192 99.4704 57.1443 99.459 57.1535L99.4026 57.2829L99.2422 57.2736C99.2205 57.2725 96.7553 57.2591 93.5485 63.4826Z" fill="#34466B"/>
<path fill-rule="evenodd" clip-rule="evenodd" d="M115.497 61.5539L114.7 61.8701L113.783 60.7307L112.343 61.3393L117.405 79.0403L119.828 78.8753C119.828 78.8753 120.639 79.9166 122.44 79.2958C121.435 76.4737 115.497 61.5539 115.497 61.5539Z" fill="#F6C854"/>
<path fill-rule="evenodd" clip-rule="evenodd" d="M113.783 60.7306L120.239 80.0159L99.0598 87.7729L97.7969 67.4856L113.783 60.7306Z" fill="white"/>
<path fill-rule="evenodd" clip-rule="evenodd" d="M95.9097 65.3748C95.0336 61.62 95.185 59.1339 96.3591 57.9868C97.0364 57.3246 98.0157 57.1526 99.2689 57.4764C102.481 58.3053 104.748 62.2709 104.843 62.4392L104.441 62.6649C104.419 62.6255 102.175 58.7015 99.1539 57.9225C98.0662 57.6423 97.2348 57.7744 96.6805 58.3158C95.6444 59.3283 95.5329 61.7334 96.3583 65.2705L95.9097 65.3748Z" fill="#34466B"/>
<path fill-rule="evenodd" clip-rule="evenodd" d="M87.596 60.3105L85.4468 64.5418L106.802 68.4325L108.539 64.1398L87.596 60.3105Z" fill="#F6C854"/>
<path fill-rule="evenodd" clip-rule="evenodd" d="M108.857 66.7452L108.54 64.1401L106.802 68.4323L107.259 70.6921L108.857 66.7452Z" fill="#34466B"/>
<path fill-rule="evenodd" clip-rule="evenodd" d="M90.3625 63.1086C90.3625 63.1086 95.9868 56.4555 98.9569 56.4592C101.927 56.4625 104.297 65.5683 104.297 65.5683L102.995 65.3397C102.995 65.3397 101.662 57.515 98.8847 57.1458C96.1074 56.777 91.8655 63.3696 91.8655 63.3696L90.3625 63.1086Z" fill="#34466B"/>
<path fill-rule="evenodd" clip-rule="evenodd" d="M72.7148 77.0396L75.1516 82.7992L109.606 89.7126L108.778 84.1617L72.7148 77.0396Z" fill="#CEDEE7"/>
<path fill-rule="evenodd" clip-rule="evenodd" d="M114.02 67.2877L114.497 68.1353C114.497 68.1353 114.58 68.1951 114.418 68.8852C114.255 69.5753 109.605 89.7124 109.605 89.7124L108.654 84.2525L114.02 67.2877Z" fill="#9BC3D3"/>
<path fill-rule="evenodd" clip-rule="evenodd" d="M81.7019 61.5766L72.7143 77.0395L108.777 84.1616L114.02 67.2878L81.7019 61.5766Z" fill="white"/>
<path fill-rule="evenodd" clip-rule="evenodd" d="M106.09 61.5843C103.064 58.5177 99.9465 58.0094 99.9148 58.0044L99.9848 57.5492C100.118 57.5699 103.364 58.1531 106.496 61.3267L106.09 61.5843Z" fill="#34466B"/>
<path fill-rule="evenodd" clip-rule="evenodd" d="M55.2244 42.9568C53.0683 41.8671 51.4865 39.7178 51.2126 37.1121C50.787 33.0623 53.6809 29.4339 57.6711 29.0145C61.5545 28.6064 65.0542 31.3872 65.6311 35.2696C65.686 35.5043 65.7269 35.7451 65.7528 35.9912L65.7529 35.992C65.7736 36.189 65.7841 36.3847 65.785 36.5786L66.1245 42.7829L63.5365 44.2083L64.0367 48.9672C61.6406 51.1074 59.0588 51.3154 56.3081 49.7644L55.2244 42.9568Z" fill="#FFC4B8"/>
<path fill-rule="evenodd" clip-rule="evenodd" d="M63.367 44.1909C63.367 44.1909 55.6529 45.2116 55.1806 42.8516L55.5095 44.7741C55.5095 44.7741 55.8017 46.0882 63.367 44.1909ZM65.3403 41.155L64.1033 38.1477L63.8728 40.2062C63.7946 40.9037 64.5803 41.4117 65.3403 41.155Z" fill="#F4A48D"/>
<path fill-rule="evenodd" clip-rule="evenodd" d="M58.0535 50.3581C57.6515 52.8178 56.2404 54.6723 54.3841 54.8674C53.5116 54.9591 52.6589 54.6714 51.9064 54.0993C51.4073 55.1857 50.3747 55.9856 49.1117 56.1184C47.1978 56.3195 45.4805 54.9077 45.2762 52.9638C45.0926 51.2172 46.1949 49.6358 47.8104 49.1884C46.5491 48.4091 45.6467 47.0632 45.4781 45.4596C45.2041 42.8519 46.9698 40.5073 49.4741 40.06C49.4638 40.0016 49.4554 39.9424 49.4491 39.8825C49.3287 38.7364 50.0019 37.6922 51.0198 37.3112C51.0136 37.2614 51.0078 37.2115 51.0025 37.1614C50.5645 32.9939 53.5426 29.2601 57.6489 28.8285C57.8075 28.8118 57.9656 28.8003 58.1229 28.7937C59.9858 28.6557 61.7504 29.3006 63.123 30.4732C64.6231 31.6989 65.6624 33.5052 65.8823 35.5974C65.9382 36.1293 65.9385 36.6542 65.8879 37.166L65.8481 36.4381C65.8472 36.2442 65.8366 36.0484 65.8159 35.8514L65.8159 35.8507C65.486 32.7122 62.7101 30.4289 59.6163 30.7541C56.5225 31.0792 54.2821 33.8897 54.612 37.0282C54.6263 37.1641 54.6451 37.2983 54.6684 37.4308C54.3603 37.1628 53.9488 37.0188 53.5148 37.0644C52.6748 37.1527 52.0679 37.9134 52.1572 38.766C52.1571 38.766 52.347 41.8634 55.0899 41.5751L56.3711 49.6238C56.9391 49.9441 57.5 50.1894 58.0535 50.3581Z" fill="#D39E00"/>
<path fill-rule="evenodd" clip-rule="evenodd" d="M57.8979 48.5609L51.5471 51.0623L41.1644 59.6652L36.4176 44.2393L30.6328 45.2775L34.3413 64.115L40.4225 69.6034L57.9253 59.9619L57.8979 48.5609Z" fill="#F6C854"/>
<path fill-rule="evenodd" clip-rule="evenodd" d="M92.3594 58.3316L94.8092 55.9199L98.6723 56.0113L99.1131 57.9706L93.2757 60.4923L92.3594 58.3316Z" fill="#FFC4B8"/>
<path fill-rule="evenodd" clip-rule="evenodd" d="M51.9867 93.2244L51.4766 98.2658L55.9922 115.587L51.7992 143.421L54.8855 144.486L63.024 117.312L64.3155 109.406L64.2684 92.6709L51.9867 93.2244Z" fill="#FFC4B8"/>
<path fill-rule="evenodd" clip-rule="evenodd" d="M75.7269 98.8434L69.2352 145.483H66.2843L65.7533 115.587L60.3828 94.6035L75.7269 98.8434Z" fill="#FFC4B8"/>
<path fill-rule="evenodd" clip-rule="evenodd" d="M52.1511 87.0397C54.6713 70.0729 53.7711 57.717 53.9018 54.3241C54.0325 50.9315 56.3569 49.1709 56.3569 49.1709C57.378 48.9374 58.2657 48.2645 59.2958 47.9989C66.2639 46.2031 70.0647 51.6536 72.6729 57.5327C75.8867 64.7762 78.5869 72.261 80.7697 79.8967C82.6856 86.598 84.6055 93.3596 85.4091 100.314C85.7404 103.184 86.017 105.905 82.9502 107.171C78.0634 109.188 72.5718 109.144 67.4102 109.791C61.481 110.534 55.5437 111.077 49.5755 111.331C46.4598 111.464 49.6308 104.006 52.1511 87.0397Z" fill="#F6C854"/>
<path fill-rule="evenodd" clip-rule="evenodd" d="M31.761 45.0751L29.1484 42.4596L30.0385 37.8613H32.56L33.3015 41.8662L34.5815 42.6352V44.5688L31.761 45.0751Z" fill="#FFC4B8"/>
<path d="M62.6719 47.6509L69.3467 48.8374L81.3943 60.4922L92.194 56.7013L95.6664 61.1287L81.2129 69.6035L65.9352 59.8138L62.6719 47.6509Z" fill="#F6C854"/>
<path fill-rule="evenodd" clip-rule="evenodd" d="M38.5995 62.9742C39.4087 61.7351 40.1156 60.3966 41.0287 59.225L36.4176 44.2393L30.6328 45.2775L34.3413 64.1153L36.6089 66.1616C37.2366 65.0799 37.913 64.0259 38.5995 62.9742Z" fill="#F6C854"/>
<path fill-rule="evenodd" clip-rule="evenodd" d="M123.204 14.4065C122.521 8.85866 117.793 4.56348 112.062 4.56348C105.862 4.56348 100.836 9.59108 100.836 15.7932C100.836 16.8107 100.971 17.7966 101.225 18.7339C101.129 18.7351 101.035 18.7385 100.941 18.744L100.835 18.7353V18.751C97.6198 18.9927 95.0852 21.6794 95.0852 24.9581C95.0852 28.2368 97.6198 30.9236 100.835 31.1652V31.1838H141.709V31.1832H141.709C144.215 31.1832 146.246 29.151 146.246 26.6446C146.246 24.1382 144.215 22.1063 141.709 22.1063H141.709V22.1061L131.354 21.2521C131.401 20.9427 131.426 20.6259 131.426 20.3033C131.426 16.8655 128.64 14.0785 125.203 14.0785C124.504 14.0785 123.832 14.1938 123.204 14.4065Z" fill="#DEEDF2"/>
<path fill-rule="evenodd" clip-rule="evenodd" d="M102.225 27.9682C101.759 24.1541 98.5296 21.2012 94.6159 21.2012C90.3817 21.2012 86.9491 24.6576 86.9491 28.9216C86.9491 29.6212 87.0414 30.299 87.2147 30.9433C87.1496 30.9442 87.085 30.9465 87.0209 30.9503L86.9487 30.9443V30.9551C84.7527 31.1212 83.0218 32.9684 83.0218 35.2225C83.0218 37.4766 84.7527 39.3237 86.9487 39.4899V39.5026H114.863V39.5022H114.863C116.574 39.5022 117.961 38.1051 117.961 36.382C117.961 34.6588 116.574 33.2619 114.863 33.2619H114.863V33.2618L107.791 32.6746C107.823 32.4619 107.84 32.2441 107.84 32.0223C107.84 29.6588 105.937 27.7427 103.59 27.7427C103.113 27.7427 102.653 27.822 102.225 27.9682Z" fill="#EAF7FE"/>
<path fill-rule="evenodd" clip-rule="evenodd" d="M22.7034 19.0165C23.2087 14.8557 26.7069 11.6343 30.9467 11.6343C35.5337 11.6343 39.2524 15.405 39.2524 20.0566C39.2524 20.8197 39.1524 21.5591 38.9647 22.2621C39.0352 22.263 39.1051 22.2656 39.1746 22.2697L39.2528 22.2631V22.2749C41.6318 22.4562 43.507 24.4713 43.507 26.9303C43.507 29.3893 41.6318 31.4043 39.2528 31.5856V31.5995H9.01274V31.5991H9.01264C7.15905 31.5991 5.65625 30.075 5.65625 28.1951C5.65625 26.3153 7.15905 24.7914 9.01264 24.7914H9.01274V24.7913L16.6742 24.1508C16.6392 23.9187 16.6211 23.6811 16.6211 23.4391C16.6211 20.8608 18.6822 18.7705 21.2248 18.7705C21.742 18.7705 22.2393 18.857 22.7034 19.0165Z" fill="#EAF7FE"/>
<path fill-rule="evenodd" clip-rule="evenodd" d="M69.4662 143.018L66.3056 143.462L65.9187 146.55L65.9906 146.562L65.9732 146.567L70.8456 148.75L73.0322 148.729L72.9977 146.183L72.3619 145.819L69.4662 143.018Z" fill="#CEDEE7"/>
<path fill-rule="evenodd" clip-rule="evenodd" d="M55.4909 142.214L59.2344 145.146L58.7959 147.414L50.9155 146.12L51.9554 142.214H55.4909Z" fill="#CEDEE7"/>
</svg>
