<svg width="161" height="166" viewBox="0 0 161 166" fill="none" xmlns="http://www.w3.org/2000/svg">
<path fill-rule="evenodd" clip-rule="evenodd" d="M144.211 113.177C141.017 117.637 137.314 122.424 133.115 127.173C113.075 149.885 82.5794 159.338 53.7873 153.316C53.5864 153.274 53.3856 153.23 53.1847 153.184C50.8599 152.688 48.5488 152.08 46.257 151.376C43.1535 150.421 40.4215 148.666 38.2783 146.369C36.1295 144.074 34.575 141.221 33.8211 138.063C33.7964 138.063 33.7771 138.057 33.7551 138.057C32.3657 137.881 10.2344 134.731 10.2344 113.565L11.7669 61.7582L26.9237 60.8804L31.2597 100.681C31.6422 104.181 35.1583 106.431 38.4956 105.311L80.1336 91.3374L109.011 80.6457L134.939 71.0468C134.939 71.0468 160.003 91.0926 144.211 113.177Z" fill="#9BC3D3"/>
<path fill-rule="evenodd" clip-rule="evenodd" d="M87.0458 27.1704L75.7461 33.7544L99.256 96.756C99.256 96.756 134.789 71.6643 134.937 71.0483C135.091 70.4376 87.0458 27.1704 87.0458 27.1704Z" fill="#9BC3D3"/>
<path fill-rule="evenodd" clip-rule="evenodd" d="M97.3836 145.858C107.847 141.924 117.482 136.372 126.253 129.37L132.264 141.783C123.221 149.193 113.244 155.023 102.369 159.114C87.8033 164.589 72.4071 166.652 56.4801 165.579L52.8594 152.403C68.3052 153.273 83.2417 151.176 97.3836 145.858Z" fill="#34466B"/>
<path fill-rule="evenodd" clip-rule="evenodd" d="M53.1866 153.182C50.8645 152.687 48.5507 152.082 46.2561 151.375C43.1554 150.423 40.4234 148.665 38.2802 146.367C36.1341 144.073 34.5769 141.22 33.8203 138.064C41.5899 138.741 48.8671 136.322 48.8671 136.322L53.1866 153.182Z" fill="#34466B"/>
<path fill-rule="evenodd" clip-rule="evenodd" d="M62.1155 10.1236L64.5227 6.30174L66.3195 6.83827L66.6358 10.0132L62.1155 10.1236ZM80.8548 20.5951L73.8777 6.11772C73.5364 5.41319 72.9726 4.83825 72.2654 4.49159L65.6596 1.20092C63.9812 0.373187 61.9563 0.986521 61.0208 2.60412L54.0656 14.7156C53.4107 15.8516 53.6694 17.2825 54.6681 18.1241C54.9707 18.3801 55.3202 18.5535 55.675 18.6527C56.715 18.9412 57.8843 18.5892 58.5722 17.6591L60.0744 15.6313L65.0846 22.3007C67.1038 24.9833 69.6793 27.1871 72.6313 28.7689L80.3956 32.9151L86.6436 28.6068L80.8548 20.5951Z" fill="#F4A48D"/>
<path fill-rule="evenodd" clip-rule="evenodd" d="M14.889 61.5792L11.1666 51.4954C11.1666 51.4954 10.3824 50.6538 10.6245 48.7333C10.8639 46.8101 11.4637 42.1221 11.4637 42.1221C11.4637 42.1221 11.637 41.368 12.3055 40.6997C12.9741 40.0282 18.5538 37.1365 18.5538 37.1365C18.5538 37.1365 19.7561 36.4128 20.8373 36.776C21.9186 37.1365 22.5789 37.7968 22.5789 37.7968L26.6645 35.7525C26.6645 35.7525 28.4364 35.3648 29.1269 37.1365C29.8203 38.9082 28.7088 39.4778 28.7088 39.4778C28.7088 39.4778 31.0501 38.672 31.892 40.6997C32.7339 42.7242 31.5921 43.3845 31.5921 43.3845C31.5921 43.3845 32.6128 43.1456 33.2154 44.4661C33.8152 45.7893 32.6128 46.9888 32.6128 46.9888C32.6128 46.9888 34.0572 46.9888 34.4755 48.1914C34.8964 49.3936 33.8152 50.7525 33.8152 50.7525L28.4666 57.2624C28.4666 57.2624 27.4459 58.8277 26.0042 59.5488L24.5626 60.2666L24.6754 61.0122C24.6754 61.0122 18.4877 61.8762 14.889 61.5792Z" fill="#F4A48D"/>
<path fill-rule="evenodd" clip-rule="evenodd" d="M87.6223 84.3528C87.6061 84.1085 87.5938 83.8637 87.5858 83.6182C87.5636 83.0847 87.5636 82.5506 87.5803 82.0106C87.5924 81.5789 87.6151 81.1462 87.6541 80.72C87.774 79.2604 88.0407 77.7948 88.4501 76.334C91.9783 63.6975 105.087 56.3163 117.718 59.8504C130.355 63.3846 137.735 76.4934 134.196 89.1245C132.641 94.6921 129.227 99.2383 124.814 102.28C124.713 102.695 124.581 103.109 124.418 103.523C121.803 110.141 112.099 114.002 102.745 112.156C94.5918 110.537 89.393 105.119 89.9331 99.3663L93.2496 98.139C91.8014 96.4393 90.6009 94.5441 89.6825 92.5167C89.5129 92.1474 89.3529 91.7722 89.2054 91.3915C89.083 91.0798 88.9649 90.7633 88.8556 90.4422C88.8434 90.4066 88.8313 90.3711 88.8194 90.3354C88.7985 90.2728 88.7778 90.2102 88.7574 90.1476C88.6387 89.7857 88.5271 89.423 88.4241 89.0523C88.4039 88.98 88.384 88.9073 88.3644 88.8344C88.3203 88.6653 88.2778 88.4955 88.237 88.3252C88.0709 87.6331 87.9336 86.9319 87.8295 86.2235C87.8241 86.1869 87.8188 86.1503 87.8135 86.1136C87.8078 86.0794 87.8022 86.0452 87.7966 86.0111C87.78 85.9088 87.7642 85.8063 87.7512 85.7042C87.7301 85.5322 87.7107 85.3603 87.6931 85.1882C87.6644 84.9101 87.6407 84.6317 87.6223 84.3528Z" fill="#F4A48D"/>
<path fill-rule="evenodd" clip-rule="evenodd" d="M90.7806 71.8882C89.0298 69.7931 89.1401 66.593 91.2564 64.6935C97.4161 59.1477 107.495 56.7553 115.013 58.4205C117.053 58.8749 118.905 59.6248 120.44 60.6929C129.988 64.3812 135.996 73.7612 135.599 83.757C135.526 85.575 135.241 87.4104 134.73 89.2393C133.946 92.05 132.689 94.5994 131.067 96.8262C121.058 110.585 99.6843 108.234 92.7333 92.7046C92.3485 91.8462 92.1771 91.3199 92.1771 91.3199V91.3139L92.1768 91.3128C92.4147 90.9784 92.6255 90.6034 92.7957 90.1942C93.8806 87.6323 93.0966 84.6369 91.0568 83.513C90.119 82.9894 89.0747 82.9556 88.1142 83.3363C88.0974 82.9331 88.1028 82.5299 88.1142 82.126C88.1261 81.6943 88.1483 81.2628 88.1885 80.8366C88.2736 79.7624 88.4438 78.6829 88.6938 77.6033C88.7795 77.2166 88.876 76.836 88.9834 76.45C89.4155 74.8987 89.9952 73.4271 90.6995 72.046C90.7263 71.9933 90.7533 71.9407 90.7806 71.8882Z" fill="#2A8FEC"/>
</svg>
