<svg width="160" height="160" viewBox="0 0 160 160" fill="none" xmlns="http://www.w3.org/2000/svg">
<path fill-rule="evenodd" clip-rule="evenodd" d="M160 23.0957L134.359 80.0522C118.715 114.8 89.8057 136.205 58.5194 136.205H0L25.6418 79.2482C41.2851 44.5009 70.1948 23.0957 101.481 23.0957H160Z" fill="#EAF7FE"/>
<path fill-rule="evenodd" clip-rule="evenodd" d="M61.2836 49.9853L70.1274 52.0324L69.9586 56.1375L70.1927 55.9311L76.2011 69.9572C76.7986 71.3522 76.4096 73.0063 75.2671 73.9285C73.806 75.1079 71.7137 74.6412 70.8095 72.9344L69.3671 70.2113C67.7757 71.0939 65.7905 70.4046 64.9972 68.6384L61.8565 61.6457C61.4796 60.8061 61.2836 59.886 61.2836 58.9534V49.9853ZM64.1549 31.9349L71.0105 32.2673L88.361 33.1105L93.9746 42.3985L96.8311 52.9469L88.361 55.4916L69.1087 44.3681L65.7015 42.3985L63.8203 45.6268L57.3687 56.7081C56.7169 57.8278 55.5885 58.4622 54.4206 58.4622C53.9598 58.4622 53.491 58.3637 53.0444 58.155C51.2532 57.3238 50.4499 55.0744 51.2627 53.1693L54.4837 45.615L58.8254 35.4312C59.7738 33.2072 61.8807 31.8246 64.1549 31.9349Z" fill="#F4A48D"/>
<path fill-rule="evenodd" clip-rule="evenodd" d="M59.9163 10.9813C60.3776 8.67861 62.6666 7.38835 64.6908 8.28873L83.836 16.8102C85.8663 17.714 87.6475 19.1615 89.0099 21.0149L97.9924 33.2353C99.3224 35.0446 100.41 37.0451 101.225 39.1784L114.491 73.9251L152.484 106.025L149.461 141.311L123.512 142.294L96.0943 91.2597C93 89.7359 90.197 87.6752 87.7841 85.1902C87.3595 84.7543 86.9469 84.3056 86.5473 83.8428C85.5876 82.7333 84.7005 81.5521 83.8943 80.307C82.4493 78.0815 81.2578 75.6513 80.3611 73.0653L77.9244 66.0409H77.9219L72.6673 59.9575L59.9387 50.2496C57.9152 48.7064 57.2871 45.7886 58.4558 43.4525L58.5179 43.3322C59.8024 40.9161 62.6123 39.9885 64.9369 41.2134L77.4552 47.8092L82.8353 47.9809L86.2025 40.6742L77.746 24.9909L69.2312 19.0661L61.8065 15.1654C60.3563 14.4038 59.5764 12.6773 59.9163 10.9813Z" fill="#FFC4B8"/>
<path fill-rule="evenodd" clip-rule="evenodd" d="M61.173 41.4029H13.951C12.6059 41.4029 11.5156 40.3127 11.5156 38.968V11.369C11.5156 10.0243 12.6059 8.93457 13.951 8.93457H61.173C62.5181 8.93457 63.6084 10.0243 63.6084 11.369V38.968C63.6084 40.3127 62.5181 41.4029 61.173 41.4029Z" fill="#EC0000"/>
<path fill-rule="evenodd" clip-rule="evenodd" d="M19.571 22.75H16.6079C16.0758 22.75 15.6445 23.1813 15.6445 23.7133V26.6765C15.6445 27.2085 16.0758 27.6398 16.6079 27.6398H19.571C20.103 27.6398 20.5343 27.2085 20.5343 26.6765V23.7133C20.5343 23.1813 20.103 22.75 19.571 22.75Z" fill="#CEDEE7"/>
<path fill-rule="evenodd" clip-rule="evenodd" d="M49.551 31.7318H59.5262V33.2314H49.551V31.7318ZM38.2721 31.7318L48.2473 31.7318V33.2314H38.2721V31.7318ZM26.9932 31.7318H36.9684V33.2314H26.9932V31.7318ZM15.6484 31.7318H25.6236V33.2314H15.6484V31.7318ZM20.6365 36.0675H24.4832V38.0234H20.6365V36.0675ZM15.6814 36.0675H19.528V38.0234H15.6814V36.0675Z" fill="#CC0000"/>
<path fill-rule="evenodd" clip-rule="evenodd" d="M56.2794 14.3352L55.9813 13.8249L54.7883 11.7837C54.6747 11.589 54.5957 11.3803 54.5513 11.166L54.4901 11.2734C54.1284 11.909 54.1327 12.6895 54.5016 13.3208L55.7396 15.4393C55.7387 15.4391 55.7378 15.439 55.7369 15.439C56.0634 16.0563 56.0538 16.8001 55.7064 17.4104L55.6452 17.5178C55.6008 17.3035 55.5219 17.0948 55.4082 16.9002L55.52 17.0915L54.5135 15.3692L53.5918 13.7923L53.6188 13.8383C53.5051 13.6437 53.4261 13.4349 53.3817 13.2206L53.3205 13.328C52.9588 13.9636 52.9632 14.7441 53.332 15.3756L53.3711 15.4424L54.2269 16.9069L54.5252 17.4171C54.8943 18.0488 54.8987 18.8294 54.5368 19.4651L54.4758 19.5726C54.4314 19.3582 54.3523 19.1494 54.2386 18.9548L54.3505 19.1461L52.7475 16.4033C52.601 16.1524 52.5123 15.8787 52.4808 15.5997C50.7239 16.0077 49.5019 16.9132 49.5078 17.9577C49.5159 19.3715 51.7701 20.5048 54.5427 20.4891C57.3153 20.4732 59.5563 19.3143 59.5482 17.9005C59.5423 16.8559 58.3101 15.9646 56.5487 15.5766C56.5919 15.1516 56.5022 14.7162 56.2794 14.3352Z" fill="white"/>
</svg>
