<svg width="161" height="160" viewBox="0 0 161 160" fill="none" xmlns="http://www.w3.org/2000/svg">
<path fill-rule="evenodd" clip-rule="evenodd" d="M160.884 40.0752L135.102 97.3465C119.372 132.286 90.3021 153.809 58.8429 153.809H0L25.7836 96.5381C41.5133 61.5987 70.5828 40.0752 102.042 40.0752H160.884Z" fill="#EAF7FE"/>
<path fill-rule="evenodd" clip-rule="evenodd" d="M61.6211 67.1133L70.5138 69.1717L70.344 73.2995L70.5794 73.0919L76.621 87.1955C77.2218 88.5983 76.8307 90.2615 75.6819 91.1888C74.2127 92.3747 72.1088 91.9055 71.1996 90.1892L69.7492 87.451C68.149 88.3386 66.1529 87.6454 65.3552 85.8695L62.1971 78.8381C61.8181 77.9939 61.6211 77.0686 61.6211 76.1309V67.1133ZM64.5053 48.9632L71.3988 49.2975L88.8452 50.1453L94.4898 59.4847L97.3621 70.0915L88.8452 72.6502L69.4865 61.4652L66.0604 59.4847L64.1688 62.7309L57.6815 73.8734C57.0262 74.9992 55.8915 75.6372 54.7171 75.6372C54.2538 75.6372 53.7825 75.5382 53.3333 75.3283C51.5322 74.4925 50.7245 72.2306 51.5418 70.315L54.7806 62.719L59.1463 52.4789C60.1 50.2426 62.2185 48.8523 64.5053 48.9632Z" fill="#F4A48D"/>
<path fill-rule="evenodd" clip-rule="evenodd" d="M60.244 27.8938C60.7079 25.5784 63.0095 24.281 65.0449 25.1863L84.2959 33.7549C86.3375 34.6637 88.1285 36.1192 89.4985 37.9828L98.5306 50.2708C99.868 52.0901 100.962 54.1016 101.781 56.2468L115.12 91.1856L153.323 123.463L150.283 158.944L124.192 159.932L96.622 108.616C93.5106 107.084 90.6921 105.012 88.2659 102.513C87.8389 102.075 87.4241 101.623 87.0222 101.158C86.0572 100.042 85.1652 98.8546 84.3545 97.6027C82.9016 95.3649 81.7034 92.9213 80.8018 90.321L78.3517 83.2578H78.3492L73.0654 77.1407L60.2665 67.3791C58.2319 65.8274 57.6003 62.8935 58.7755 60.5445L58.8379 60.4236C60.1295 57.994 62.9549 57.0614 65.2924 58.293L77.8799 64.9252L83.2897 65.0979L86.6755 57.7509L78.1723 41.9809L69.6104 36.0233L62.1446 32.101C60.6865 31.3352 59.9022 29.5992 60.244 27.8938Z" fill="#FFC4B8"/>
<path fill-rule="evenodd" clip-rule="evenodd" d="M61.514 58.4838H14.0308C12.6783 58.4838 11.582 57.3875 11.582 56.0354V28.2838C11.582 26.9317 12.6783 25.8359 14.0308 25.8359H61.514C62.8665 25.8359 63.9628 26.9317 63.9628 28.2838V56.0354C63.9628 57.3875 62.8665 58.4838 61.514 58.4838Z" fill="#2A8FEC"/>
<path fill-rule="evenodd" clip-rule="evenodd" d="M19.6865 39.7275H16.7069C16.172 39.7275 15.7383 40.1612 15.7383 40.6962V43.6757C15.7383 44.2107 16.172 44.6444 16.7069 44.6444H19.6865C20.2214 44.6444 20.6551 44.2107 20.6551 43.6757V40.6962C20.6551 40.1612 20.2214 39.7275 19.6865 39.7275Z" fill="#CEDEE7"/>
<path fill-rule="evenodd" clip-rule="evenodd" d="M49.8281 48.7593H59.8585V50.2671H49.8281V48.7593ZM38.4844 48.7593H48.5147V50.2671H38.4844V48.7593ZM27.1445 48.7597H37.1749V50.2676H27.1445V48.7597ZM15.7383 48.7596H25.7686V50.2674H15.7383V48.7596ZM20.754 53.1192H24.6219V55.0859H20.754V53.1192ZM15.7695 53.1192H19.6374V55.0859H15.7695V53.1192Z" fill="#2274C0"/>
<path fill-rule="evenodd" clip-rule="evenodd" d="M56.5942 31.2668L56.2944 30.7537L55.0948 28.7011C54.9806 28.5054 54.9012 28.2955 54.8565 28.0801L54.795 28.1881C54.4313 28.8271 54.4356 29.6119 54.8066 30.2468L56.0514 32.3769C56.0505 32.3768 56.0496 32.3767 56.0487 32.3767C56.377 32.9974 56.3673 33.7453 56.018 34.359L55.9565 34.467C55.9119 34.2515 55.8325 34.0416 55.7182 33.8459L55.8306 34.0383L54.8185 32.3065L53.8918 30.7209L53.9189 30.7671C53.8045 30.5714 53.7251 30.3615 53.6805 30.1461L53.619 30.254C53.2552 30.8931 53.2596 31.6779 53.6305 32.3129L53.6698 32.3801L54.5303 33.8527L54.8303 34.3657C55.2014 35.0009 55.2058 35.7858 54.842 36.425L54.7806 36.5331C54.7359 36.3175 54.6564 36.1076 54.5421 35.9119L54.6546 36.1043L53.0428 33.3463C52.8954 33.0941 52.8062 32.8188 52.7745 32.5383C51.0079 32.9486 49.7792 33.859 49.7852 34.9094C49.7933 36.3309 52.06 37.4705 54.8479 37.4547C57.6358 37.4387 59.8892 36.2734 59.8811 34.8518C59.8751 33.8015 58.6361 32.9052 56.865 32.5151C56.9084 32.0877 56.8182 31.6499 56.5942 31.2668Z" fill="white"/>
</svg>
