<?xml version="1.0" encoding="UTF-8"?>
<svg width="512px" height="512px" viewBox="0 0 512 512" version="1.1" xmlns="http://www.w3.org/2000/svg" xmlns:xlink="http://www.w3.org/1999/xlink">
    <title> FLA000 | AQ antarctica</title>
    <g id="-FLA000-|-AQ-antarctica" stroke="none" stroke-width="1" fill="none" fill-rule="evenodd">
        <g id="flag">
            <path d="M256,512 C397.384533,512 512,397.384533 512,256 C512,114.61504 397.384533,0 256,0 C114.61504,0 0,114.61504 0,256 C0,397.384533 114.61504,512 256,512 Z" id="Path" fill="#FFFFFF" fill-rule="nonzero"></path>
            <g id="Flag_of_Antarctica_Flat_Round-512x512" transform="translate(0.000000, 0.000000)" fill="#3A7DCE">
                <path d="M227.210997,1.17153141 C143.726845,9.10224396 69.4743093,56.8321014 27.043277,129.839034 C23.9030103,135.242642 21.3333333,140.345045 21.3333333,141.177373 C21.3333333,142.009701 23.3870515,144.870139 25.8980509,147.53379 C29.2811216,151.123143 32.4891711,153.211494 38.291178,155.601049 C47.2101828,159.274739 51.3510048,161.77072 58.0119313,167.4926 C61.4799835,170.471511 65.2788564,172.362071 72.6196344,174.761666 C82.1861168,177.888168 82.8518048,178.304834 91.2619326,186.409242 C100.665534,195.470475 102.378315,196.145173 107.712924,192.888149 C109.447962,191.827909 114.414318,190.474497 118.749383,189.880121 C126.34207,188.837953 131.799093,186.902213 133.120352,184.78073 C133.466348,184.224505 136.022873,183.769687 138.801968,183.769687 C141.580052,183.769687 147.053262,183.0478 150.96342,182.165271 L158.073534,180.559852 L157.400764,175.709456 L156.729006,170.858057 L160.429746,169.844002 C162.466265,169.286774 164.71625,169.052839 165.430499,169.324927 C166.378447,169.685368 166.876195,168.009667 167.271764,163.129151 C167.646087,158.501647 168.479714,155.54382 169.977006,153.533782 C171.693834,151.228565 171.917416,150.215514 171.06052,148.625154 C169.883931,146.444434 170.788377,143.910301 173.556344,141.630184 C174.690441,140.69645 174.969666,139.37617 174.528572,137.041836 C174.12491,134.906297 174.512385,132.503689 175.639401,130.146263 C177.002139,127.294861 177.112412,126.219561 176.155359,125.075988 C174.369737,122.940449 175.766873,119.893264 179.617342,117.531821 L183.009518,115.451503 L182.453091,105.434448 C181.970518,96.7346598 182.107096,95.4163884 183.497149,95.4163884 C184.378326,95.4163884 188.089182,93.3842625 191.744396,90.90033 C195.400621,88.4163975 198.917234,86.4967213 199.560665,86.6332673 C200.203085,86.7698133 201.1136,85.1392934 201.584033,83.0097781 C203.332223,75.0820776 207.210007,71.3200343 213.632176,71.3200343 C217.11338,71.3200343 218.520632,68.9987522 216.748162,66.1804828 C214.899816,63.2427356 215.350015,62.2839015 218.576275,62.2839015 C220.503533,62.2839015 222.884025,63.4234582 225.23619,65.4726524 C228.107348,67.9746571 229.078565,68.3662229 229.749311,67.2899191 C230.218733,66.5349 232.045834,65.2136165 233.81021,64.3521719 C236.285801,63.1433381 237.421922,61.5800871 238.793765,57.4947511 C239.771052,54.5851164 240.835343,51.9415455 241.15807,51.6212648 C242.31746,50.4716679 243.867359,52.3973682 244.926592,56.3019816 C245.975709,60.1684424 246.125438,60.275872 250.466573,60.275872 C256.105699,60.275872 277.512929,63.0218523 282.806059,64.4234569 C285.950373,65.2567892 288.12954,65.1282753 292.98461,63.8240601 C299.071912,62.1885201 299.229735,62.1985602 303.65484,64.4847018 C306.487555,65.9485553 308.787112,68.0810827 309.883777,70.2597947 C312.017419,74.499749 314.056973,75.7186229 317.780981,74.9796681 C320.230268,74.4937249 320.929342,74.8993469 322.661344,77.8119937 C325.369622,82.3692167 329.037988,84.5860812 334.760071,85.1252372 C338.804784,85.5067628 348.129474,83.8340742 353.621905,81.7417074 C354.599192,81.370222 356.503181,82.6493368 358.878614,85.2758394 C362.485267,89.262782 365.534482,90.4575595 366.823368,88.3882851 C368.131475,86.2878862 370.364261,87.3953145 370.365273,90.1453109 C370.365273,91.6643853 371.731046,95.7708056 373.400324,99.271805 C375.068591,102.772804 376.434364,106.2477 376.434364,106.993683 C376.434364,109.905325 378.688396,109.474603 381.951076,105.940471 L385.365509,102.240677 L390.49677,103.333045 C403.307722,106.059949 415.971981,110.458537 418.186557,112.949498 C419.426881,114.346083 421.353127,115.616161 422.465979,115.772788 C425.588036,116.210538 427.018557,117.43142 427.018557,119.655313 C427.018557,120.773785 427.359494,121.52278 427.77732,121.320973 C428.195145,121.119166 429.75415,120.347079 431.243348,119.604108 C435.139343,117.661339 438.867398,118.95953 443.989553,124.042857 L448.413647,128.43241 L447.732784,136.271757 C446.924448,145.596042 448.395436,154.937395 451.872594,162.555859 C453.226227,165.521719 454.334021,168.987578 454.334021,170.25866 C454.334021,171.528739 455.699794,176.553833 457.369072,181.424308 C459.038351,186.294784 460.404124,190.785742 460.404124,191.403211 C460.404124,192.02068 459.231582,194.239553 457.800049,196.334931 C455.251618,200.059826 455.233408,200.21344 456.931013,203.34195 C459.159753,207.449375 458.358499,211.948365 454.257133,218.367031 C452.558515,221.024658 451.53975,223.513611 451.992984,223.897144 C452.446219,224.281682 454.865155,225.174251 457.369072,225.881078 C463.637465,227.650152 468.351912,230.157176 473.610645,234.517613 C478.010458,238.165198 478.183456,238.213391 485.276371,237.761584 L492.477537,237.302749 L490.431912,243.248525 L488.386287,249.1943 L491.546788,256.813768 L494.707288,264.43424 L491.671225,267.865963 C488.971041,270.918167 488.706991,271.777604 489.287698,275.619969 C489.753072,278.698278 489.449567,280.967351 488.232511,283.513533 C486.68767,286.742444 486.673507,287.29666 488.077724,289.286617 C490.10008,292.152076 494.799351,295.200264 497.207159,295.208296 C498.863285,295.214321 499.02212,295.741428 498.444448,299.323753 C498.080242,301.582786 496.797427,305.310693 495.593523,307.606875 C493.920198,310.797634 493.302059,314.08779 492.973262,321.570712 C492.558471,331.001422 492.457303,331.359856 490.20833,331.359856 C486.841446,331.359856 482.142175,335.700211 480.158263,340.642976 C478.050925,345.894977 475.851524,348.428107 473.399203,348.428107 C471.007582,348.428107 471.031863,348.759431 474.122557,358.46725 C475.545996,362.942144 476.570832,368.00539 476.398845,369.720247 C476.133784,372.35679 475.462026,373.047552 472.038488,374.201165 C469.812784,374.951164 466.84248,376.941122 465.438263,378.62385 C463.122518,381.397943 462.613641,381.581678 459.986298,380.589711 C458.392896,379.988306 456.989691,379.621841 456.870312,379.775455 C456.749922,379.929069 455.845476,383.06762 454.859085,386.749342 C453.078521,393.401943 453.136187,394.228248 455.856605,400.887877 C456.483849,402.425024 455.926411,402.644903 451.407219,402.644903 C448.565399,402.644903 446.24055,403.035465 446.24055,403.513376 C446.24055,403.991287 447.194568,405.585662 448.361039,407.057548 C449.526499,408.52843 450.230631,410.377825 449.926114,411.167985 C449.148129,413.18003 440.183599,417.508338 434.122601,418.798497 C427.979656,420.105724 427.67514,421.554517 432.22974,427.795473 C433.982988,430.197076 435.006812,432.299483 434.506029,432.468158 C431.009649,433.639843 426.519797,437.492247 423.932921,441.540435 C421.15079,445.893843 421.034447,446.408902 422.5803,447.530387 C424.012844,448.570546 425.062972,448.059503 429.439516,444.193042 C442.409303,432.734221 460.957515,410.255335 472.037476,392.564595 C479.740437,380.267422 489.572992,360.573673 494.237867,348.099794 C499.697924,333.499411 505.200473,313.882971 503.952055,313.470321 C503.370337,313.27755 502.894845,311.75446 502.894845,310.084783 C502.894845,307.861894 503.283332,307.196233 504.344588,307.600851 C505.316816,307.971332 505.98554,307.262498 506.374026,305.449247 C507.799489,298.793633 509.965504,282.23743 509.970562,277.955307 C509.973597,275.364949 510.43189,272.966358 510.988316,272.624993 C511.594315,272.253507 512,265.566769 512,255.940275 C512,247.104946 511.611513,240.113991 511.137034,240.405155 C510.663566,240.696319 509.991808,236.974437 509.645812,232.135086 C507.679098,204.634117 497.259766,168.757658 483.354172,141.601067 C434.772102,46.7256889 333.2992,-8.90676869 227.210997,1.17153141 M16.7304455,153.318551 C13.6588639,160.817297 7.22345701,182.417426 5.18782878,192.069094 C0.94223386,212.18941 0,222.621063 0,249.497135 C0,284.669409 2.61406913,302.488821 12.0595857,331.708958 C24.9172988,371.484066 45.6283045,405.784894 74.6712776,435.400675 C115.427175,476.962863 165.585256,502.051856 225.229163,510.709788 C237.084178,512.430071 276.861563,512.430071 288.716578,510.709788 C338.795048,503.440208 381.540218,484.884999 418.90105,454.197381 C423.437881,450.47113 426.925658,447.052146 426.651554,446.599981 C425.817148,445.222933 419.21748,445.682292 415.752881,447.358385 C413.956086,448.227775 411.534495,450.252241 410.371566,451.856399 C409.067555,453.654783 406.932161,455.027721 404.805836,455.434669 C402.908268,455.797429 400.537064,457.017247 399.537389,458.144576 C398.377484,459.450717 397.023086,459.968651 395.801709,459.574034 C394.430179,459.13009 392.208119,460.440341 387.987718,464.184062 C384.744821,467.060448 381.840524,469.413762 381.533164,469.413762 C381.225804,469.413762 381.429367,468.193944 381.985638,466.701799 C382.541908,465.210682 382.817021,463.806916 382.597334,463.583916 C382.377647,463.359889 380.211013,463.64352 377.782368,464.214892 C371.526338,465.685456 371.419518,465.655654 370.089305,462.06197 L368.890099,458.820768 L364.348229,463.089617 C359.833569,467.333803 357.426085,468.295681 356.234941,466.330819 C355.09519,464.450223 353.865752,465.26412 351.579197,469.413762 C350.332626,471.674587 348.969159,473.524353 348.548932,473.524353 C348.128706,473.524353 346.160596,472.54706 344.175355,471.352933 C340.938505,469.405541 340.084951,469.305859 335.880674,470.385917 C329.521855,472.017821 324.549682,470.961399 318.766281,466.744961 C314.180071,463.40305 313.825347,463.307479 312.398392,465.025706 C310.597566,467.193015 302.156763,467.561941 300.169507,465.560083 C298.430153,463.806916 294.777107,463.942565 293.251394,465.816995 C291.509017,467.957585 290.969878,467.772608 289.081379,464.385481 C287.922482,462.307577 285.674221,460.755829 281.535446,459.177362 C271.768462,455.450084 270.683129,453.241669 277.003654,449.953196 C280.96406,447.892762 282.16629,446.179673 282.16629,442.600376 C282.16629,441.511069 283.133717,439.814423 284.3168,438.830964 C291.739789,432.657883 291.737773,432.661994 291.909088,428.140344 C292.0018,425.688376 292.656829,421.740153 293.36426,419.364232 C294.601761,415.209452 294.467732,414.577448 289.826097,402.664955 C284.369202,388.661199 283.100462,387.705486 278.787348,394.352312 C273.658976,402.253896 264.403922,401.874694 245.117856,392.973209 C235.519163,388.541992 235.129169,388.455669 227.114639,388.975659 C219.84281,389.447349 218.696006,389.274705 216.894173,387.43727 C215.031875,385.538177 214.730562,385.503237 213.250197,387.012852 C211.861535,388.42895 210.997905,388.485471 207.080832,387.416717 C200.666588,385.666633 199.985358,385.790979 196.770678,389.29834 L193.907697,392.42239 L182.862903,391.354664 C167.476778,389.86663 164.26109,389.947814 164.26109,391.826354 C164.26109,394.086151 163.025605,393.785051 154.413487,389.427824 C150.130605,387.260515 142.790251,384.394405 138.102259,383.058463 C130.916089,381.010361 128.717207,379.833704 124.095726,375.565883 C118.729528,370.609538 118.506818,370.514994 113.473173,371.060675 C110.645464,371.366914 107.537604,371.936231 106.568161,372.326737 C104.996092,372.957713 104.804622,372.295908 104.804622,366.245118 L104.804622,359.455449 L99.8818278,359.455449 L94.9590338,359.455449 L95.0598075,349.435883 C95.115233,343.924608 94.4561732,335.948006 93.5935505,331.708958 C91.9408623,323.580264 91.8360576,323.484693 86.1826545,324.931621 C84.0855543,325.469081 83.4023088,325.103238 82.4298428,322.927708 C81.4412531,320.714155 81.5652047,319.653622 83.1664984,316.622061 L85.0902678,312.978022 L82.7432489,311.038851 C81.4523382,309.97318 79.7653869,309.100707 78.995476,309.100707 C78.1842479,309.100707 77.5957296,308.048396 77.5957296,306.598385 C77.5957296,302.836166 75.7334321,298.595064 74.3145388,299.126358 C72.9712257,299.628877 72.9440168,300.088236 74.0404344,303.76927 C74.715618,306.036261 74.5715117,306.112307 70.8811797,305.449475 C68.7548551,305.06719 65.0735928,303.902865 62.7013805,302.861857 C57.5407606,300.595894 54.4742177,294.842094 54.4399546,287.360818 L54.4177844,282.577118 L60.6224196,283.150545 C66.7948072,283.72089 66.8230238,283.711641 66.1367551,281.254535 C65.7578461,279.895985 64.7188695,273.805116 63.8280302,267.719386 L62.2085972,256.652647 L67.8861861,250.582332 C71.0131932,247.239393 73.5647826,243.56247 73.5647826,242.399172 C73.5647826,241.003627 74.4193434,240.068467 76.0841245,239.643021 C79.0539247,238.882561 79.0085766,239.115838 77.0918613,234.437985 C76.2604784,232.40838 75.5802561,228.955484 75.5802561,226.763511 C75.5802561,223.313698 75.2759196,222.779321 73.3128485,222.784459 C71.8526379,222.788569 70.4347523,223.886097 69.3292651,225.867402 C66.9570528,230.117754 65.5925772,229.723137 66.217374,224.967183 C66.5307801,222.590233 66.2889233,220.7045 65.6177706,220.282137 C65.000028,219.892658 64.4951519,217.752068 64.4951519,215.524127 C64.4951519,212.209963 64.142444,211.474167 62.5532432,211.474167 C60.7342784,211.474167 57.0741785,207.767442 56.1601613,204.999986 C55.552496,203.159469 52.4023109,206.107791 52.4023109,208.516597 C52.4023109,210.793865 52.6018428,210.756869 48.2695825,209.272946 C43.9121288,207.780801 41.3172067,205.49634 41.3172067,203.152276 C41.3172067,202.14107 40.3769883,200.64276 39.2271607,199.821669 L37.1381224,198.329525 L39.1727429,194.262095 C40.7296962,191.149349 42.3833922,189.678785 46.219846,187.995498 L51.2333363,185.796332 L45.9920975,180.322052 C43.1089626,177.311044 38.5529848,173.728664 35.8663586,172.359837 C28.6650718,168.692162 23.8974693,163.437799 20.9458083,155.91439 L18.3639868,149.333333 L16.7304455,153.318551 M20.2666667,191.326982 C20.2666667,191.540799 20.5977028,192.114022 21.0024845,192.600756 C21.8317135,193.598249 22.7789356,192.862142 22.244143,191.635936 C21.9267635,190.908477 20.2666667,190.649013 20.2666667,191.326982" id="Shape"></path>
            </g>
        </g>
    </g>
</svg>