<?xml version="1.0" encoding="UTF-8"?>
<svg width="512px" height="512px" viewBox="0 0 512 512" version="1.1" xmlns="http://www.w3.org/2000/svg" xmlns:xlink="http://www.w3.org/1999/xlink">
    <title> FLA000 | GS south georgia and the south sandwich island</title>
    <g id="-FLA000-|-GS-south-georgia-and-the-south-sandwich-island" stroke="none" stroke-width="1" fill="none" fill-rule="evenodd">
        <g id="181-cook-islands" transform="translate(0.499512, 0.000000)">
            <path d="M511.500488,256.249756 C511.500488,397.49582 396.996308,512 255.750244,512 C114.50418,512 0,397.49582 0,256.249756 C0,256.310697 255.750244,0.527484878 255.750244,0.499512195 C396.996308,0.499512195 511.500488,115.003692 511.500488,256.249756 Z" id="Path" fill="#0052B4" fill-rule="nonzero"></path>
            <g id="Group" fill="#F0F0F0" fill-rule="nonzero">
                <path d="M256.341786,1.06666667 C256.307653,1.06666667 256.282053,1.06666667 256.250053,1.06666667 L256.341786,1.06666667 Z" id="Path"></path>
                <path d="M255.244566,257.205411 L256.705899,257.205411 C256.705899,256.714745 256.705899,256.236878 256.705899,255.744078 C256.219499,256.232611 255.733099,256.719011 255.244566,257.205411 Z" id="Path"></path>
                <path d="M255.751243,133.934205 C255.751243,88.9331512 255.751243,59.4469463 255.751243,0.499512195 L255.707286,0.499512195 C114.479204,0.52348878 0,115.016679 0,256.249756 L133.434693,256.249756 L133.434693,181.112133 L208.572316,256.249756 L255.066911,256.249756 C255.294689,256.021979 255.522466,255.794201 255.751243,255.565424 C255.751243,238.335251 255.751243,222.961264 255.751243,209.073826 L180.611621,133.934205 L255.751243,133.934205 Z" id="Path"></path>
            </g>
            <g id="Group" transform="translate(33.358423, 33.857936)" fill="#D80027" fill-rule="nonzero">
                <path d="M96.0302205,0 C56.0302829,22.7767571 22.775758,56.0302829 0,96.0302205 L0,222.39182 L66.7178459,222.39182 L66.7178459,66.7198439 L66.7178459,66.7178459 L222.39182,66.7178459 C222.39182,45.6753951 222.39182,25.6289717 222.39182,0 L96.0302205,0 Z" id="Path"></path>
                <path d="M222.39182,190.941534 L131.525557,100.077268 L100.076269,100.077268 L100.076269,100.079266 L222.389822,222.39182 L222.39182,222.39182 C222.39182,222.39182 222.39182,200.705998 222.39182,190.941534 L222.39182,190.941534 Z" id="Path"></path>
            </g>
            <g id="Group" transform="translate(0.000000, 0.499512)"></g>
        </g>
        <g id="color" transform="translate(298.666667, 213.333333)">
            <line x1="40" y1="17.4545455" x2="56" y2="0" id="Path" stroke="#9B9B9A" stroke-width="17.0666667" stroke-linecap="round" stroke-linejoin="round"></line>
            <line x1="40" y1="17.4545455" x2="24" y2="0" id="Path" stroke="#9B9B9A" stroke-width="17.0666667" stroke-linecap="round" stroke-linejoin="round"></line>
            <rect id="Rectangle" stroke="#E27022" stroke-width="17.0666667" stroke-linecap="round" stroke-linejoin="round" x="48" y="26.1818182" width="32" height="8.72727273"></rect>
            <line x1="80" y1="34.9090909" x2="80" y2="61.0909091" id="Path" stroke="#E27022" stroke-width="17.0666667" stroke-linecap="round" stroke-linejoin="round"></line>
            <line x1="48" y1="34.9090909" x2="48" y2="61.0909091" id="Path" stroke="#E27022" stroke-width="17.0666667" stroke-linecap="round" stroke-linejoin="round"></line>
            <line x1="40" y1="17.4545455" x2="48" y2="26.1818182" id="Path" stroke="#E27022" stroke-width="17.0666667" stroke-linecap="round" stroke-linejoin="round"></line>
            <path d="M121.0856,192 C106.057466,175.255356 85.4812592,165.818298 64,165.818298 C42.5187408,165.818298 21.9425337,175.255356 6.9144,192" id="Path" stroke="#F1B31C" stroke-width="17.0666667" stroke-linecap="round" stroke-linejoin="round"></path>
            <polygon id="Path" stroke="#5C9E31" stroke-width="17.0666667" fill="#5C9E31" fill-rule="nonzero" stroke-linecap="round" stroke-linejoin="round" points="64 148.363636 88 78.5454545 40 78.5454545"></polygon>
            <g id="Group" transform="translate(104.000000, 52.363636)">
                <path d="M0,0 L0,87.2727273 C0.0127423195,92.0868973 3.58701082,95.9860993 8,96 L16,96 C20.4129892,95.9860993 23.9872577,92.0868973 24,87.2727273 L24,43.6363636 C23.7199635,38.2651653 21.2846929,33.30145 17.3432,30.0680727 L0,17.4545455" id="Path" fill="#000000" fill-rule="nonzero"></path>
                <path d="M0,0 L0,87.2727273 C0.0127423195,92.0868973 3.58701082,95.9860993 8,96 L16,96 C20.4129892,95.9860993 23.9872577,92.0868973 24,87.2727273 L24,43.6363636 C23.7199635,38.2651653 21.2846929,33.30145 17.3432,30.0680727 L0,17.4545455" id="Path" stroke="#000000" stroke-width="17.0666667" stroke-linecap="round" stroke-linejoin="round"></path>
            </g>
            <g id="Group" transform="translate(0.000000, 52.363636)">
                <path d="M24,0 L24,87.2727273 C23.9872577,92.0868973 20.4129892,95.9860993 16,96 L8,96 C3.58701082,95.9860993 0.0127423195,92.0868973 0,87.2727273 L0,43.6363636 C0.280036479,38.2651653 2.71530708,33.30145 6.6568,30.0680727 L24,17.4545455" id="Path" fill="#9B9B9A" fill-rule="nonzero"></path>
                <path d="M24,0 L24,87.2727273 C23.9872577,92.0868973 20.4129892,95.9860993 16,96 L8,96 C3.58701082,95.9860993 0.0127423195,92.0868973 0,87.2727273 L0,43.6363636 C0.280036479,38.2651653 2.71530708,33.30145 6.6568,30.0680727 L24,17.4545455" id="Path" stroke="#9B9B9A" stroke-width="17.0666667" stroke-linecap="round" stroke-linejoin="round"></path>
            </g>
        </g>
    </g>
</svg>