<?xml version="1.0" encoding="UTF-8"?>
<svg width="512px" height="512px" viewBox="0 0 512 512" version="1.1" xmlns="http://www.w3.org/2000/svg" xmlns:xlink="http://www.w3.org/1999/xlink">
    <title> FLA000 | NC new caledonia</title>
    <defs>
        <circle id="path-1" cx="256" cy="256" r="256"></circle>
    </defs>
    <g id="-FLA000-|-NC-new-caledonia" stroke="none" stroke-width="1" fill="none" fill-rule="evenodd">
        <g id="Flags_of_New_Caledonia">
            <mask id="mask-2" fill="white">
                <use xlink:href="#path-1"></use>
            </mask>
            <use id="Mask" fill="#F0F0F0" fill-rule="nonzero" xlink:href="#path-1"></use>
            <g mask="url(#mask-2)" id="g10">
                <g transform="translate(-106.666667, -14.222222)">
                    <g transform="translate(458.666667, 263.111111) scale(-1, 1) rotate(-180.000000) translate(-458.666667, -263.111111) ">
                        <polygon id="path18" fill="#009543" fill-rule="nonzero" points="4.08196291e-13 0 917.333333 0 917.333333 490.666667 4.08196291e-13 490.666667"></polygon>
                        <polygon id="path20" fill="#ED4135" fill-rule="nonzero" points="4.2996779e-13 177.777778 917.333333 177.777778 917.333333 490.666667 4.2996779e-13 490.666667"></polygon>
                        <polygon id="path22" fill="#0035AD" fill-rule="nonzero" points="4.49126708e-13 334.222222 917.333333 334.222222 917.333333 526.222222 4.49126708e-13 526.222222"></polygon>
                        <g id="g24" transform="translate(155.456119, 102.181727)">
                            <g id="g26-Clipped" transform="translate(0.000000, 0.000000)">
                                <g id="g26" transform="translate(0.000000, 0.000000)">
                                    <g id="g32" transform="translate(0.000000, 0.000000)" fill="#FAE600" fill-rule="nonzero">
                                        <path d="M150.321659,307.633118 C233.340558,307.633118 300.641456,238.768988 300.641456,153.817511 C300.641456,68.8679398 233.340558,0 150.321659,0 C67.3008977,0 0,68.8679398 0,153.817511 C0,238.768988 67.3008977,307.633118 150.321659,307.633118" id="path34"></path>
                                    </g>
                                    <g id="g36" transform="translate(0.000000, 0.000000)" stroke="#000000" stroke-width="10.6666667">
                                        <path d="M150.321659,307.633118 C233.340558,307.633118 300.641456,238.768988 300.641456,153.817511 C300.641456,68.8679398 233.340558,0 150.321659,0 C67.3008977,0 0,68.8679398 0,153.817511 C0,238.768988 67.3008977,307.633118 150.321659,307.633118 Z" id="path38"></path>
                                    </g>
                                    <g id="g40" transform="translate(124.839246, 44.307924)" fill="#000000" fill-rule="nonzero" stroke="#000000" stroke-width="11.2">
                                        <path d="M25.6182486,262.826667 L25.6182486,0 M0,125.292646 L50.9648246,125.292646 M0,86.7039687 L50.9648246,86.7039687" id="path42"></path>
                                    </g>
                                    <g id="g44" transform="translate(89.580875, 0.763862)" fill="#000000" fill-rule="nonzero">
                                        <path d="M0.218565311,11.8160808 C61.5677336,-13.8189011 119.070711,10.2425878 119.070711,10.2425878 C119.070711,10.2425878 97.3656081,34.2793123 86.2347385,43.6669314 C75.3793947,52.8202411 43.4370196,52.4582996 32.5369959,43.6669314 C23.4409215,36.3252342 -2.64653058,9.27868047 0.218565311,11.8160808" id="path46"></path>
                                    </g>
                                    <g id="g48" transform="translate(133.505277, 57.864157)" fill="#000000" fill-rule="nonzero">
                                        <path d="M16.8163815,50.0622222 C26.104207,50.0622222 33.6346247,38.8572758 33.6346247,25.0311111 C33.6346247,11.2087563 26.104207,0 16.8163815,0 C7.52855606,0 4.27796259e-13,11.2087563 4.27796259e-13,25.0311111 C4.27796259e-13,38.8572758 7.52855606,50.0622222 16.8163815,50.0622222" id="path50"></path>
                                    </g>
                                    <g id="g52" transform="translate(129.936474, 136.964373)" fill="#000000" fill-rule="nonzero">
                                        <path d="M20.3851852,26.4083937 C31.6426477,26.4083937 40.7703704,20.4954128 40.7703704,13.2013394 C40.7703704,5.91107593 31.6426477,0 20.3851852,0 C9.12586098,0 0,5.91107593 0,13.2013394 C0,20.4954128 9.12586098,26.4083937 20.3851852,26.4083937" id="path54"></path>
                                    </g>
                                    <g id="g56" transform="translate(129.936474, 190.322929)" fill="#000000" fill-rule="nonzero">
                                        <path d="M20.3851852,41.7185185 C31.6426477,41.7185185 40.7703704,32.3804282 40.7703704,20.8573543 C40.7703704,9.33809031 31.6426477,0 20.3851852,0 C9.12586098,0 0,9.33809031 0,20.8573543 C0,32.3804282 9.12586098,41.7185185 20.3851852,41.7185185" id="path58"></path>
                                    </g>
                                    <g id="g60" transform="translate(128.563685, 239.885754)" fill="#000000" fill-rule="nonzero">
                                        <path d="M46.221313,48.9965089 C46.2138664,49.0117485 47.9880291,46.0038243 44.2702926,39.1536055 C26.5081874,6.42457046 8.68464739,5.71592713 5.30387147,2.89659346 C1.57310333,-0.206578539 4.50087475e-13,0.00296653166 4.50087475e-13,0.00296653166 C0.266217487,2.80896552 0.513818366,14.2710809 0.709292745,15.3759549 C3.40311585,30.6689351 25.9831991,30.45939 43.6522212,46.1181216 C46.4130641,48.5621791 46.2138664,49.0117485 46.2138664,49.0117485 L46.221313,48.9965089 Z" id="path62"></path>
                                    </g>
                                    <g id="g64" transform="translate(115.157307, 175.719162)" fill="#000000" fill-rule="nonzero">
                                        <path d="M0,42.762434 C0,42.762434 3.98953898,31.0507695 4.58527042,19.2952911 C5.54216405,0.527672586 23.1162415,0 35.1649099,0 L35.1649099,10.4296296 C26.1339936,10.4296296 18.2926785,11.8031023 11.7228777,25.5530688 C8.48172637,32.3366142 0,42.762434 0,42.762434" id="path66"></path>
                                    </g>
                                    <g id="g68" transform="translate(114.648329, 67.250633)" fill="#000000" fill-rule="nonzero">
                                        <path d="M0,0 C0,0 6.41528294,8.1017744 13.9233607,27.0941776 C17.8421566,36.9999445 27.1243971,42.762434 35.6731432,42.762434 L35.6731432,57.3620105 C16.2802232,57.3620105 6.97936614,50.0069785 6.00013259,39.2554115 C3.983954,17.1674561 0,0 0,0" id="path70"></path>
                                    </g>
                                    <g id="g72" transform="translate(150.321100, 175.719162)" fill="#000000" fill-rule="nonzero">
                                        <path d="M35.1649099,42.762434 C35.1649099,42.762434 31.1735092,31.0507695 30.5777778,19.2952911 C29.6246075,0.527672586 12.0486684,0 0,0 L0,10.4296296 C9.02905463,10.4296296 16.8722314,11.8031023 23.4438938,25.5530688 C26.6850452,32.3366142 35.1649099,42.762434 35.1649099,42.762434" id="path74"></path>
                                    </g>
                                    <g id="g76" transform="translate(150.321845, 67.250633)" fill="#000000" fill-rule="nonzero">
                                        <path d="M35.6731432,0 C35.6731432,0 29.2559986,8.1017744 21.7497825,27.0941776 C17.8309866,36.9999445 8.55060781,42.762434 0,42.762434 L0,57.3620105 C19.3947817,57.3620105 28.6919154,50.0069785 29.6730107,39.2554115 C31.6873276,17.1674561 35.6731432,0 35.6731432,0" id="path78"></path>
                                    </g>
                                </g>
                            </g>
                        </g>
                    </g>
                </g>
            </g>
        </g>
    </g>
</svg>