<?xml version="1.0" encoding="UTF-8"?>
<svg width="512px" height="512px" viewBox="0 0 512 512" version="1.1" xmlns="http://www.w3.org/2000/svg" xmlns:xlink="http://www.w3.org/1999/xlink">
    <title> FLA000 | SH saint-helena</title>
    <g id="-FLA000-|-SH-saint-helena" stroke="none" stroke-width="1" fill="none" fill-rule="evenodd">
        <g id="saint-helena" fill-rule="nonzero">
            <path d="M512,256 C512,397.384533 397.384533,512 256,512 C114.616036,512 0,397.384533 0,256 C0,256.061156 256,0.028 256,0 C397.384533,0 512,114.616036 512,256 Z" id="Path" fill="#0052B4"></path>
            <path d="M255.315911,256.008533 L256.001422,256.008533 C256.001422,255.778133 256.001422,255.553422 256.001422,255.323022 C255.772444,255.552 255.544889,255.779556 255.315911,256.008533 Z" id="Path" fill="#F0F0F0"></path>
            <path d="M256.001422,133.565013 C256.001422,88.5199644 256.001422,59.0050133 256.001422,0 L255.957333,0 C114.591004,0.024 0,114.628978 0,256 L133.565013,256 L133.565013,180.788622 L208.776533,256 L255.315911,256 C255.543467,255.772444 255.772444,255.543467 256.001422,255.314489 C256.001422,238.068622 256.001422,222.678756 256.001422,208.777956 L180.788622,133.565013 L256.001422,133.565013 Z" id="Path" fill="#F0F0F0"></path>
            <path d="M129.512818,33.3889422 C89.4738489,56.1878756 56.18688,89.4738489 33.3889422,129.512818 L33.3889422,255.998578 L100.171947,255.998578 L100.171947,100.173938 L100.171947,100.171947 L255.998578,100.171947 C255.998578,79.1088356 255.998578,59.0428444 255.998578,33.3889422 L129.512818,33.3889422 Z" id="Path" fill="#D80027"></path>
            <path d="M255.997156,224.504889 L165.041778,133.552071 L133.562027,133.552071 L133.562027,133.554062 L255.995733,255.985778 L255.997156,255.985778 C255.997156,255.985778 255.997156,234.2784 255.997156,224.504889 L255.997156,224.504889 Z" id="Path" fill="#D80027"></path>
            <path d="M444.824178,264.783644 L444.824178,197.999929 C444.824178,197.999929 397.587911,188 366.910578,188 C336.234667,188 288.9984,197.999929 288.9984,197.999929 L288.9984,264.783644 L444.824178,264.783644 Z" id="Path" fill="#FFDA44"></path>
            <path d="M288.999822,264 L288.999822,325.846756 C288.999822,381.077333 367.000178,398.000356 367.000178,398.000356 C367.000178,398.000356 445.000533,381.077333 445.000533,325.846756 L445.000533,264 L288.999822,264 Z" id="Path" fill="#338AF3"></path>
            <circle id="Oval" fill="#000000" cx="367.502222" cy="226.503111" r="19.4986667"></circle>
        </g>
    </g>
</svg>