<?xml version="1.0" encoding="UTF-8"?>
<svg width="512px" height="512px" viewBox="0 0 512 512" version="1.1" xmlns="http://www.w3.org/2000/svg" xmlns:xlink="http://www.w3.org/1999/xlink">
    <title> FLA000 | SV el salvador</title>
    <g id="-FLA000-|-SV-el-salvador" stroke="none" stroke-width="1" fill="none" fill-rule="evenodd">
        <g id="248-el-salvador" fill-rule="nonzero">
            <circle id="Oval" fill="#F0F0F0" cx="256" cy="256" r="256"></circle>
            <g id="Group" transform="translate(25.402000, 0.000000)" fill="#0052B4">
                <path d="M230.598,0 C129.104,0 41.408,59.065 0,144.696 L461.195,144.696 C419.788,59.065 332.091,0 230.598,0 Z" id="Path"></path>
                <path d="M230.598,512 C332.091,512 419.788,452.935 461.196,367.304 L0,367.304 C41.408,452.935 129.104,512 230.598,512 Z" id="Path"></path>
            </g>
            <polygon id="Path" fill="#FFDA44" points="204.59 267.13 256 178.087 307.41 267.13"></polygon>
            <polygon id="Path" fill="#6DA544" points="322.783 296.531 256 329.923 189.217 296.531 189.217 252.01 322.783 252.01"></polygon>
            <path d="M318.963,181.907 L295.352,205.518 C305.423,215.589 311.653,229.502 311.653,244.87 C311.653,275.606 286.736,300.522 256.001,300.522 C225.266,300.522 200.349,275.605 200.349,244.87 C200.349,229.502 206.579,215.589 216.65,205.518 L193.039,181.907 C176.924,198.019 166.958,220.28 166.958,244.87 C166.958,294.048 206.824,333.913 256.001,333.913 C305.178,333.913 345.044,294.047 345.044,244.87 C345.044,220.28 335.077,198.019 318.963,181.907 L318.963,181.907 Z" id="Path" fill="#FFDA44"></path>
        </g>
    </g>
</svg>