<?xml version="1.0" encoding="UTF-8"?>
<svg width="512px" height="512px" viewBox="0 0 512 512" version="1.1" xmlns="http://www.w3.org/2000/svg" xmlns:xlink="http://www.w3.org/1999/xlink">
    <title> FLA000 | SZ swaziland</title>
    <g id="-FLA000-|-SZ-swaziland" stroke="none" stroke-width="1" fill="none" fill-rule="evenodd">
        <g id="024-swaziland" fill-rule="nonzero">
            <path d="M486.598,367.304 C502.872,333.649 512,295.89 512,256 C512,216.11 502.872,178.351 486.598,144.696 L256,133.565 L25.402,144.695 C9.128,178.351 0,216.11 0,256 C0,295.89 9.128,333.649 25.402,367.304 L256,378.435 L486.598,367.304 Z" id="Path" fill="#FFDA44"></path>
            <path d="M256,0 C154.506,0 66.81,59.065 25.402,144.696 L486.597,144.696 C445.19,59.065 357.493,0 256,0 Z" id="Path" fill="#000000"></path>
            <path d="M256,512 C154.506,512 66.81,452.935 25.402,367.304 L486.597,367.304 C445.19,452.935 357.493,512 256,512 Z" id="Path" fill="#0052B4"></path>
            <path d="M499.911,178.087 L12.089,178.087 C4.247,202.656 0,228.831 0,256 C0,283.169 4.247,309.344 12.089,333.913 L499.91,333.913 C507.753,309.344 512,283.169 512,256 C512,228.831 507.753,202.656 499.911,178.087 Z" id="Path" fill="#A2001D"></path>
            <g id="Group" transform="translate(89.043000, 200.348000)" fill="#FFDA44">
                <polygon id="Path" points="0 44.522 333.913 44.522 333.913 66.783 0 66.783"></polygon>
                <polygon id="Path" points="44.522 0 289.392 0 289.392 22.261 44.522 22.261"></polygon>
            </g>
            <path d="M380.025,256 C380.025,256 322.782,322.783 256,322.783 C189.217,322.783 189.217,256 189.217,256 C189.217,256 189.217,189.217 256,189.217 C322.783,189.217 380.025,256 380.025,256 Z" id="Path" fill="#F0F0F0"></path>
            <path d="M256,322.783 C189.217,322.783 131.975,256 131.975,256 C131.975,256 189.217,189.217 256,189.217" id="Path" fill="#000000"></path>
            <polygon id="Path" fill="#F0F0F0" points="211.478 233.739 233.739 233.739 233.739 278.261 211.478 278.261"></polygon>
            <polygon id="Path" fill="#000000" points="278.261 233.739 300.522 233.739 300.522 278.261 278.261 278.261"></polygon>
            <g id="Group" transform="translate(66.782000, 233.739000)" fill="#0052B4">
                <circle id="Oval" cx="22.261" cy="22.261" r="22.261"></circle>
                <circle id="Oval" cx="356.175" cy="22.261" r="22.261"></circle>
            </g>
        </g>
    </g>
</svg>