<?xml version="1.0" encoding="UTF-8"?>
<svg width="512px" height="512px" viewBox="0 0 512 512" version="1.1" xmlns="http://www.w3.org/2000/svg" xmlns:xlink="http://www.w3.org/1999/xlink">
    <title> FLA000 | VC st vincent and the grenadines</title>
    <g id="-FLA000-|-VC-st-vincent-and-the-grenadines" stroke="none" stroke-width="1" fill="none" fill-rule="evenodd">
        <g id="102-st-vincent-and-the-grenadines" fill-rule="nonzero">
            <path d="M378.435,31.127 C342.064,11.283 300.35,0 256,0 C211.65,0 169.936,11.283 133.565,31.127 L111.304,256 L133.565,480.873 C169.936,500.717 211.65,512 256,512 C300.35,512 342.064,500.717 378.435,480.873 L400.696,256 L378.435,31.127 Z" id="Path" fill="#FFDA44"></path>
            <path d="M133.565,480.871 L133.565,31.126 C53.989,74.546 0,158.965 0,256 C0,353.035 53.989,437.454 133.565,480.871 Z" id="Path" fill="#338AF3"></path>
            <g id="Group" transform="translate(155.825000, 31.126000)" fill="#6DA544">
                <path d="M356.175,224.874 C356.175,127.839 302.186,43.42 222.61,0 L222.61,449.745 C302.186,406.328 356.175,321.909 356.175,224.874 Z" id="Path"></path>
                <polygon id="Path" points="44.523 291.657 0 224.874 44.522 158.091 89.046 224.874"></polygon>
                <polygon id="Path" points="155.827 291.657 111.305 224.874 155.827 158.091 200.349 224.874"></polygon>
                <polygon id="Path" points="100.175 380.7 55.653 313.917 100.175 247.135 144.697 313.917"></polygon>
            </g>
        </g>
    </g>
</svg>