<svg width="93" height="24" viewBox="0 0 93 24" fill="none" xmlns="http://www.w3.org/2000/svg">
<path d="M10.381 1.16145C9.52193 0.428743 8.41008 0 6.69351 0H0V17.6824H2.52606V9.85149H6.69351C8.41168 9.85149 9.52193 9.42274 10.381 8.69004C11.4417 7.78136 12.1232 6.44234 12.1232 4.92574C12.1248 3.41075 11.4433 2.07172 10.381 1.16145ZM8.89161 6.66791C8.43727 7.14785 7.77976 7.45021 6.56712 7.45021H2.52606V2.39968H6.56712C7.77976 2.39968 8.43567 2.70204 8.89161 3.18198C9.32036 3.63631 9.59872 4.24263 9.59872 4.92574C9.59872 5.60725 9.32036 6.21357 8.89161 6.66791ZM21.6739 6.89668C20.5877 5.9624 19.2998 5.55766 17.9608 5.55766C16.849 5.55766 15.8635 5.83602 15.0556 6.31596C13.2622 7.37662 11.9984 9.37155 11.9984 11.7472C11.9984 14.1213 13.2366 16.0923 15.03 17.1529C15.8379 17.6328 16.9497 17.9352 18.0104 17.9352C19.4246 17.9352 20.7124 17.4553 21.6723 16.5962V17.6824H23.9968V5.81042H21.6723V6.89668H21.6739ZM21.5971 13.9693C20.7892 15.0556 19.551 15.6619 18.3384 15.6619C16.0395 15.6619 14.3981 13.8685 14.3981 11.7472C14.3981 9.67551 15.9131 7.83255 18.212 7.83255C19.6518 7.83255 20.8644 8.56526 21.5971 9.52513V13.9693ZM36.1984 6.89668C35.1121 5.9624 33.8243 5.55766 32.4853 5.55766C31.3734 5.55766 30.3879 5.83602 29.5801 6.31596C27.7867 7.37662 26.5229 9.37155 26.5229 11.7472C26.5229 14.1213 27.7611 16.0923 29.5545 17.1529C30.3623 17.6328 31.4742 17.9352 32.5349 17.9352C33.9491 17.9352 35.1617 17.4809 36.1216 16.6474V17.3049C36.1216 18.7959 35.8944 19.7046 35.4657 20.3621C34.8849 21.2468 33.8739 21.7267 32.5861 21.7267C30.6407 21.7267 29.5289 20.7412 28.6714 19.6054L26.9036 21.2468C27.6619 22.4338 29.6056 24 32.6884 24C35.0369 24 36.8559 22.9137 37.8158 21.0692C38.2957 20.1349 38.5229 18.9479 38.5229 17.1785V5.81203H36.1984V6.89668ZM36.1216 13.9693C35.3137 15.0556 34.0755 15.6619 32.8628 15.6619C30.5639 15.6619 28.9225 13.8685 28.9225 11.7472C28.9225 9.67551 30.4375 7.83255 32.7364 7.83255C34.1762 7.83255 35.3889 8.56526 36.1216 9.52513V13.9693ZM47.1857 5.55766C43.6742 5.55766 41.0473 8.2101 41.0473 11.7456C41.0473 15.2812 43.6742 17.9336 47.1857 17.9336C50.6972 17.9336 53.3241 15.2812 53.3241 11.7456C53.3241 8.2101 50.6972 5.55766 47.1857 5.55766ZM47.1857 15.6619C44.9876 15.6619 43.447 13.9181 43.447 11.7472C43.447 9.57472 44.9876 7.83255 47.1857 7.83255C49.3838 7.83255 50.9244 9.57472 50.9244 11.7472C50.9244 13.9181 49.3838 15.6619 47.1857 15.6619Z" fill="#13294B"/>
<path d="M68.3541 18.7927L57.7443 5.80882H55.9766V17.6808H58.5026V10.5074L69.1124 23.4913H70.8802V0H68.3541V18.7927ZM84.4688 5.81042H81.6403L78.8359 9.64991L76.0315 5.81042H73.2031L77.2697 11.4433L72.7727 17.6824H75.6267L78.8343 13.2366L82.0419 17.6824H84.8959L80.3989 11.4433L84.4688 5.81042ZM92.8564 7.95734V5.81042H89.0682V2.52606H86.6685V13.387C86.6685 14.6748 86.9212 15.7611 87.6283 16.545C88.3866 17.4041 89.4969 17.9336 90.9879 17.9336C91.6694 17.9336 92.4021 17.8328 92.8564 17.6808L92.3765 15.5083C92.023 15.6091 91.4166 15.6603 91.0631 15.6603C90.4312 15.6603 89.7497 15.4331 89.4217 15.0284C89.1194 14.6748 89.0682 14.1437 89.0682 13.5134V7.95574H92.8564V7.95734Z" fill="white"/>
</svg>
