<svg width="207" height="72" viewBox="0 0 207 72" fill="none" xmlns="http://www.w3.org/2000/svg">
<g clip-path="url(#clip0_1486_430)">
<path fill-rule="evenodd" clip-rule="evenodd" d="M137.035 16.4474C137.035 9.03121 133.601 4.69147 127.8 4.69147C121.96 4.69147 118.606 8.95185 118.606 16.1317C118.606 23.5873 122.039 27.8876 127.879 27.8876C133.719 27.8876 137.035 23.5873 137.035 16.4474ZM115.725 16.2501C115.725 7.68987 120.144 2.08772 127.8 2.08772C135.85 2.08772 139.915 8.24193 139.915 16.3286C139.915 24.8502 135.495 30.4909 127.879 30.4909C119.869 30.4909 115.725 24.4161 115.725 16.2501ZM160.711 16.6053V29.9389H157.949V17.1179C157.949 13.449 156.567 11.5556 151.714 11.5556C150.293 11.5556 148.636 11.7529 147.136 12.1081V29.9389H144.374V10.2143C147.017 9.50434 149.583 9.1097 151.792 9.1097C158.461 9.1097 160.711 11.8319 160.711 16.6053ZM167.183 18.2224H179.18V18.0646C179.18 14.1594 177.285 11.5161 173.379 11.5161C169.432 11.5161 167.499 14.1199 167.183 18.2224ZM181.823 20.7078H167.183C167.538 25.4417 170.024 27.9661 174.523 27.9661C176.654 27.9661 179.021 27.493 181.152 26.27C181.074 26.9799 180.915 28.0455 180.718 28.9128C178.745 30.0568 176.693 30.412 174.444 30.412C167.854 30.412 164.341 26.4275 164.341 19.6427C164.341 13.7647 167.025 9.1097 173.497 9.1097C179.416 9.1097 181.981 13.1732 181.981 18.2619C181.981 19.0902 181.942 19.9189 181.823 20.7078ZM135.14 44.7322H126.38V69.3881H123.617V44.7322H114.541C114.581 44.0223 114.699 42.8388 114.857 42.0894H135.456C135.416 42.7994 135.298 43.9828 135.14 44.7322ZM146.308 48.7957C146.308 49.7029 146.189 50.6891 146.032 51.2021C145.124 51.0838 144.098 51.0443 142.993 51.0443C141.849 51.0443 140.428 51.2021 139.126 51.4784V69.3881H136.363V49.6635C138.1 49.0715 140.783 48.6379 142.914 48.6379C144.216 48.6379 145.44 48.6777 146.308 48.7957ZM156.528 67.5732C158.581 67.5732 160.238 66.8238 161.54 65.5614V51.4784C160.356 51.1623 159.133 51.0048 157.712 51.0048C152.425 51.0048 150.018 54.0817 150.018 59.3677C150.018 64.4568 152.228 67.5732 156.528 67.5732ZM164.303 49.6635V69.3881H161.738L161.659 67.8494C160.317 69.0329 158.502 69.8612 156.292 69.8612C150.688 69.8612 147.216 66.1135 147.216 59.3677C147.216 52.4251 150.649 48.5589 157.712 48.5589C160.159 48.5589 162.211 48.8746 164.303 49.6635ZM177.522 67.5732C179.614 67.5732 181.39 66.7449 182.732 65.443V51.6358C181.31 51.2416 179.811 51.0048 178.469 51.0048C173.497 51.0048 171.09 53.9638 171.09 59.3677C171.09 64.4568 173.261 67.5732 177.522 67.5732ZM185.494 41.8527V69.3881H182.929L182.81 67.731C181.469 69.0329 179.614 69.8612 176.812 69.8612C171.8 69.8612 168.289 66.1135 168.289 59.3677C168.289 52.3462 171.722 48.5589 178.588 48.5589C180.048 48.5589 181.429 48.7562 182.732 49.111V42.2473C183.56 41.971 184.586 41.8527 185.494 41.8527ZM192.202 57.6716H204.198V57.5138C204.198 53.6086 202.304 50.9654 198.397 50.9654C194.451 50.9654 192.518 53.5691 192.202 57.6716ZM206.842 60.157H192.202C192.557 64.8905 195.043 67.4153 199.541 67.4153C201.672 67.4153 204.04 66.9422 206.171 65.7192C206.092 66.4292 205.934 67.4947 205.737 68.362C203.764 69.5061 201.712 69.8612 199.462 69.8612C192.872 69.8612 189.36 65.8767 189.36 59.0919C189.36 53.2139 192.044 48.5589 198.515 48.5589C204.435 48.5589 207 52.6224 207 57.7111C207 58.5394 206.961 59.3677 206.842 60.157ZM46.1862 28.0734C46.0901 25.8647 45.4722 23.6736 44.3282 21.6931L34.2389 4.22391C33.4695 2.89158 32.9379 1.46402 32.6431 0L32.2209 0.73008C29.7239 5.05394 29.7239 10.3811 32.2209 14.705L40.2926 28.6807C42.7899 33.0046 42.7899 38.3322 40.2926 42.6561L39.8708 43.3866C39.5756 41.9221 39.0443 40.495 38.275 39.1631L26.1676 18.1992C25.3982 16.8669 24.867 15.4394 24.5714 13.9753L24.15 14.7054C21.6608 19.0147 21.6531 24.3204 24.1251 28.637L32.2209 42.6561C34.7186 46.9804 34.7186 52.3076 32.2209 56.6319L31.7995 57.3624C31.5043 55.8983 30.9726 54.4704 30.2032 53.1384L20.1139 35.6684C18.761 33.3255 18.1426 30.6883 18.2555 28.0751C7.45469 30.8959 0 36.8858 0 43.8211C0 53.4687 14.4262 61.2903 32.2209 61.2903C50.0163 61.2903 64.4421 53.4687 64.4421 43.8211C64.4421 36.8854 56.9879 30.8942 46.1862 28.0734ZM89.9545 72H92.7162V0H89.9545V72Z" fill="#EC0000"/>
</g>
<defs>
<clipPath id="clip0_1486_430">
<rect width="207" height="72" fill="white"/>
</clipPath>
</defs>
</svg>
