<svg width="155" height="58" viewBox="0 0 155 58" fill="none" xmlns="http://www.w3.org/2000/svg">
<g clip-path="url(#clip0_410_179)">
<path d="M17.3017 1.93574C15.8699 0.714572 14.0168 0 11.1558 0H0V29.4707H4.2101V16.4191H11.1558C14.0195 16.4191 15.8699 15.7046 17.3017 14.4834C19.0695 12.9689 20.2053 10.7372 20.2053 8.20957C20.208 5.68458 19.0721 3.45287 17.3017 1.93574ZM14.8194 11.1132C14.0621 11.9131 12.9663 12.417 10.9452 12.417H4.2101V3.99947H10.9452C12.9663 3.99947 14.0595 4.5034 14.8194 5.30329C15.5339 6.06052 15.9979 7.07106 15.9979 8.20957C15.9979 9.34542 15.5339 10.356 14.8194 11.1132ZM36.1232 11.4945C34.3128 9.93734 32.1664 9.26276 29.9347 9.26276C28.0816 9.26276 26.4391 9.7267 25.0927 10.5266C22.1037 12.2944 19.9973 15.6192 19.9973 19.5787C19.9973 23.5355 22.0611 26.8204 25.05 28.5882C26.3965 29.3881 28.2496 29.892 30.0173 29.892C32.3743 29.892 34.5207 29.0921 36.1205 27.6603V29.4707H39.9947V9.68404H36.1205V11.4945H36.1232ZM35.9952 23.2822C34.6487 25.0927 32.585 26.1032 30.5639 26.1032C26.7324 26.1032 23.9968 23.1142 23.9968 19.5787C23.9968 16.1258 26.5218 13.0543 30.3533 13.0543C32.753 13.0543 34.774 14.2754 35.9952 15.8752V23.2822ZM60.3306 11.4945C58.5202 9.93734 56.3738 9.26276 54.1421 9.26276C52.289 9.26276 50.6466 9.7267 49.3001 10.5266C46.3112 12.2944 44.2048 15.6192 44.2048 19.5787C44.2048 23.5355 46.2685 26.8204 49.2574 28.5882C50.6039 29.3881 52.457 29.892 54.2248 29.892C56.5818 29.892 58.6029 29.1348 60.2026 27.7456V28.8415C60.2026 31.3265 59.824 32.841 59.1094 33.9368C58.1416 35.4113 56.4565 36.2112 54.3101 36.2112C51.0679 36.2112 49.2148 34.5687 47.7856 32.6756L44.8394 35.4113C46.1032 37.3897 49.3427 40 54.4807 40C58.3949 40 61.4265 38.1896 63.0263 35.1153C63.8262 33.5582 64.2048 31.5798 64.2048 28.6308V9.68671H60.3306V11.4945ZM60.2026 23.2822C58.8562 25.0927 56.7924 26.1032 54.7714 26.1032C50.9399 26.1032 48.2042 23.1142 48.2042 19.5787C48.2042 16.1258 50.7292 13.0543 54.5607 13.0543C56.9604 13.0543 58.9815 14.2754 60.2026 15.8752V23.2822ZM78.6428 9.26276C72.7903 9.26276 68.4122 13.6835 68.4122 19.5761C68.4122 25.4686 72.7903 29.8893 78.6428 29.8893C84.4954 29.8893 88.8735 25.4686 88.8735 19.5761C88.8735 13.6835 84.4954 9.26276 78.6428 9.26276ZM78.6428 26.1032C74.9793 26.1032 72.4117 23.1969 72.4117 19.5787C72.4117 15.9579 74.9793 13.0543 78.6428 13.0543C82.3064 13.0543 84.874 15.9579 84.874 19.5787C84.874 23.1969 82.3064 26.1032 78.6428 26.1032Z" fill="#13294B"/>
<path d="M113.924 31.3212L96.2405 9.68137H93.2943V29.4681H97.5044V17.5123L115.187 39.1521H118.134V0H113.924V31.3212ZM140.781 9.68404H136.067L131.393 16.0832L126.719 9.68404H122.005L128.783 19.0721L121.288 29.4707H126.045L131.391 22.0611L136.736 29.4707H141.493L133.998 19.0721L140.781 9.68404ZM154.761 13.2622V9.68404H148.447V4.21011H144.447V22.3117C144.447 24.4581 144.869 26.2685 146.047 27.575C147.311 29.0068 149.161 29.8893 151.646 29.8893C152.782 29.8893 154.003 29.7214 154.761 29.4681L153.961 25.8472C153.372 26.0152 152.361 26.1005 151.772 26.1005C150.719 26.1005 149.583 25.7219 149.036 25.0473C148.532 24.4581 148.447 23.5729 148.447 22.5223V13.2596H154.761V13.2622Z" fill="#47D7AC"/>
<path fill-rule="evenodd" clip-rule="evenodd" d="M154.761 46.6075C154.761 47.0868 154.705 47.6677 154.622 47.9727C154.26 47.929 153.898 47.9145 153.467 47.9145C153.092 47.9145 152.716 47.9436 152.341 48.0016V54.2171H150.811V46.9561C151.464 46.7237 152.563 46.5495 153.425 46.5495C153.898 46.5495 154.427 46.564 154.761 46.6075ZM144.496 49.7733H147.945C147.945 48.5826 147.334 47.8855 146.276 47.8855C145.192 47.8855 144.621 48.539 144.496 49.7733ZM149.406 51.1094H144.524C144.719 52.4018 145.442 53.0263 146.805 53.0263C147.639 53.0263 148.488 52.8374 149.253 52.4744C149.197 52.8956 149.114 53.4473 149.016 53.9265C148.321 54.2606 147.584 54.3912 146.763 54.3912C144.204 54.3912 142.966 52.91 142.966 50.4269C142.966 48.2631 143.926 46.5495 146.36 46.5495C148.543 46.5495 149.489 48.0451 149.489 49.875C149.489 50.3253 149.461 50.6883 149.406 51.1094ZM140.198 52.5324V48.0598C139.795 47.9727 139.378 47.9145 138.974 47.9145C137.458 47.9145 136.735 48.9021 136.735 50.5576C136.735 52.0387 137.305 53.0844 138.668 53.0844C139.28 53.0844 139.781 52.8665 140.198 52.5324ZM141.714 44.0517V54.2171H140.309L140.226 53.2877C139.837 53.9703 139.239 54.3912 138.237 54.3912C136.401 54.3912 135.177 52.9971 135.177 50.5576C135.177 48.0016 136.485 46.5495 139.058 46.5495C139.461 46.5495 139.837 46.5931 140.198 46.6657V44.2695C140.671 44.0953 141.213 44.0517 141.714 44.0517ZM133.953 49.3377V54.2171H132.423V49.6136C132.423 48.4664 132.062 47.9145 130.532 47.9145C130.17 47.9145 129.739 47.9581 129.322 48.0307V54.2171H127.792V46.9561C128.765 46.7092 129.836 46.5495 130.573 46.5495C133.133 46.5495 133.953 47.5805 133.953 49.3377ZM124.593 52.5615V48.0016C124.273 47.9436 123.925 47.9145 123.494 47.9145C121.908 47.9145 121.171 48.9312 121.171 50.5576C121.171 52.0387 121.742 53.0844 123.104 53.0844C123.702 53.0844 124.189 52.8811 124.593 52.5615ZM126.122 46.9561V54.2171H124.718L124.634 53.3458C124.245 53.9848 123.647 54.3912 122.673 54.3912C120.837 54.3912 119.614 52.9971 119.614 50.5576C119.614 48.0016 120.921 46.5495 123.494 46.5495C124.495 46.5495 125.316 46.6657 126.122 46.9561ZM117.916 53.0263C118.361 53.0263 118.779 52.9391 119.112 52.8085C119.071 53.244 119.015 53.7379 118.932 54.1589C118.514 54.3332 118.069 54.3912 117.638 54.3912C116.15 54.3912 115.204 53.6797 115.204 51.9081V44.284C115.677 44.1243 116.261 44.0517 116.734 44.0517V46.7963H119.154C119.126 47.2901 119.085 47.7403 119.015 48.1614H116.734V51.7194C116.734 52.6632 117.179 53.0263 117.916 53.0263ZM113.674 49.3377V54.2171H112.144V49.6136C112.144 48.4664 111.782 47.9145 110.253 47.9145C109.891 47.9145 109.46 47.9581 109.043 48.0307V54.2171H107.513V46.9561C108.486 46.7092 109.557 46.5495 110.294 46.5495C112.853 46.5495 113.674 47.5805 113.674 49.3377ZM104.313 52.5615V48.0016C103.994 47.9436 103.646 47.9145 103.215 47.9145C101.629 47.9145 100.892 48.9312 100.892 50.5576C100.892 52.0387 101.462 53.0844 102.825 53.0844C103.423 53.0844 103.91 52.8811 104.313 52.5615ZM105.843 46.9561V54.2171H104.439L104.355 53.3458C103.966 53.9848 103.368 54.3912 102.394 54.3912C100.558 54.3912 99.3344 52.9971 99.3344 50.5576C99.3344 48.0016 100.642 46.5495 103.215 46.5495C104.216 46.5495 105.037 46.6657 105.843 46.9561ZM91.9489 53.8976C91.9767 53.3022 92.0601 52.8956 92.213 52.4309C92.9919 52.8085 93.9933 52.9971 94.7583 52.9971C96.0518 52.9971 96.775 52.5615 96.775 51.7047C96.775 50.8625 96.2465 50.4703 94.9391 49.875L94.2298 49.5556C92.9224 48.9601 92.0323 48.1904 92.0323 46.6511C92.0323 44.9957 93.1311 43.9355 95.3842 43.9355C96.2882 43.9355 97.1366 44.0663 97.9294 44.3567C97.8876 44.9376 97.7903 45.3878 97.6512 45.8089C96.9001 45.5184 96.01 45.3878 95.3702 45.3878C94.1603 45.3878 93.6039 45.8816 93.6039 46.6511C93.6039 47.4063 94.1464 47.8419 95.1199 48.2777L95.871 48.6116C97.6373 49.3958 98.3743 50.2235 98.3743 51.6322C98.3743 53.3022 97.1644 54.4494 94.8 54.4494C93.6596 54.4494 92.7278 54.2752 91.9489 53.8976ZM84.5312 45.2068L82.2126 41.0138C82.0359 40.694 81.9137 40.3514 81.8458 40L81.749 40.1752C81.1751 41.2131 81.1751 42.4916 81.7489 43.5295L83.6038 46.884C84.1776 47.9218 84.1776 49.2005 83.6038 50.2384L83.5069 50.4136C83.4391 50.0622 83.3169 49.7196 83.1401 49.3998L80.3578 44.3681C80.181 44.0484 80.059 43.7057 79.991 43.3543L79.8942 43.5296C79.3223 44.564 79.3205 45.8374 79.8886 46.8734L81.749 50.2384C82.3229 51.2761 82.3229 52.5548 81.749 53.5927L81.6521 53.7679C81.5843 53.4166 81.4621 53.0739 81.2853 52.7543L78.9668 48.5611C78.6558 47.9988 78.5138 47.3657 78.5398 46.7386C76.0578 47.4157 74.3446 48.8533 74.3446 50.5179C74.3446 52.8335 77.6597 54.7108 81.749 54.7108C85.8383 54.7108 89.1533 52.8335 89.1533 50.5179C89.1533 48.8532 87.4404 47.4152 84.9581 46.7381C84.9362 46.208 84.7941 45.6821 84.5312 45.2068Z" fill="#9D9D9D"/>
<path d="M61.9411 49.71C62.7419 49.71 63.3534 49.9502 63.7757 50.4307C64.2052 50.9112 64.42 51.5955 64.42 52.4836C64.42 53.4009 64.1943 54.1144 63.7429 54.624C63.2916 55.1336 62.6145 55.3884 61.7118 55.3884C61.0857 55.3884 60.4851 55.2792 59.91 55.0608V47.7007C60.1866 47.606 60.4997 47.5587 60.8491 47.5587V49.9393C61.1913 49.7864 61.5553 49.71 61.9411 49.71ZM61.7664 54.613C62.3488 54.613 62.7747 54.4274 63.044 54.0561C63.3207 53.6848 63.459 53.1752 63.459 52.5273C63.459 51.8576 63.3316 51.3516 63.0768 51.0094C62.822 50.66 62.4143 50.4853 61.8538 50.4853C61.5262 50.4853 61.1913 50.5617 60.8491 50.7146V54.482C61.133 54.5694 61.4388 54.613 61.7664 54.613ZM69.7151 49.841L67.5857 55.9671C67.3892 56.5422 67.138 56.9754 66.8323 57.2666C66.5265 57.5578 66.137 57.7034 65.6638 57.7034C65.4818 57.7034 65.3217 57.6816 65.1833 57.6379C65.1833 57.3176 65.2015 57.0555 65.2379 56.8516C65.3544 56.8808 65.4636 56.8953 65.5655 56.8953C65.7767 56.8953 65.9587 56.8553 66.1115 56.7752C66.2717 56.6951 66.4137 56.5568 66.5374 56.3602C66.6685 56.1637 66.7849 55.8943 66.8869 55.5522L64.7029 49.841H65.6966L67.3127 54.3946L68.7651 49.841H69.7151Z" fill="#B2B2B2"/>
</g>
<defs>
<clipPath id="clip0_410_179">
<rect width="155" height="58" fill="white"/>
</clipPath>
</defs>
</svg>
