<svg width="162" height="159" viewBox="0 0 162 159" fill="none" xmlns="http://www.w3.org/2000/svg">
<path fill-rule="evenodd" clip-rule="evenodd" d="M107.056 114.544C108.345 114.54 109.625 114.473 110.887 114.347L74.7364 51.7636C70.1137 58.2869 67.4017 66.2815 67.4254 74.9085C67.4855 96.8539 85.2231 114.604 107.056 114.544ZM86.7748 26.6803L134.405 109.653C140.621 120.482 134.951 134.298 122.947 137.562L49.066 157.653L31.9531 79.6451L66.3306 26.1626C71.1943 18.5947 82.294 18.8755 86.7748 26.6803Z" fill="#CC0000"/>
<path fill-rule="evenodd" clip-rule="evenodd" d="M69.5577 108.591L64.9834 100.953L62.8248 97.36L60.503 93.4831L59.8817 92.4428L58.5336 90.1888L52.7731 80.5546L49.3818 75.9779L59.6764 68.5007L63.2354 65.9081L71.6076 59.8267L74.1173 57.9973L79.5625 57.3744L79.6904 57.3617L98.4964 55.2137L100.091 55.024L101.294 54.8909L104.795 54.4921L109.364 53.9656L105.72 40.6528L95.789 40.7094L90.5057 40.7384L74.1965 40.837C68.6592 40.866 63.1509 41.5039 57.7831 42.7592C51.5399 44.1947 45.477 46.4518 39.7581 49.493C29.4451 54.9806 17.1789 63.0258 8.96502 73.3853C1.96462 82.2201 -0.464127 93.6103 1.74097 104.305C2.60512 108.495 4.18402 112.577 6.47366 116.357L17.4781 134.522L22.1665 142.194L27.2034 150.429C32.008 156.026 38.6287 158.706 45.1939 158.652C46.6842 158.638 48.1656 158.485 49.6291 158.192H49.6421C49.6528 158.192 49.6725 158.187 49.6886 158.181C49.7011 158.174 49.7249 158.174 49.7374 158.168C50.7724 157.966 51.7931 157.686 52.7905 157.33C52.803 157.33 52.8209 157.33 52.8263 157.318C57.8631 155.554 62.3708 152.043 65.3698 146.887L68.0589 142.269L73.1986 133.445L100.573 126.412C108.359 124.412 114.558 118.458 116.936 110.691L129.953 68.1911L119.982 62.9059L97.452 106.444L69.5577 108.591Z" fill="#1BB3BC"/>
<path fill-rule="evenodd" clip-rule="evenodd" d="M126.998 87.6731L72.0049 38.1574L105.96 0.105794L160.953 49.6215L126.998 87.6731Z" fill="#9BC3D3"/>
<path fill-rule="evenodd" clip-rule="evenodd" d="M124.117 84.8896L75.0695 40.727L109.026 2.67469L158.073 46.8373L124.117 84.8896Z" fill="#DEEDF2"/>
<path fill-rule="evenodd" clip-rule="evenodd" d="M99.1171 62.8896L74.5933 40.8083L108.549 2.756L133.073 24.8373L99.1171 62.8896Z" fill="#DEEDF2"/>
<path fill-rule="evenodd" clip-rule="evenodd" d="M99.5933 62.8445L124.117 84.9258L158.073 46.8735L99.5933 62.8445Z" fill="#DEEDF2"/>
<path fill-rule="evenodd" clip-rule="evenodd" d="M2.00098 104.459C2.86745 108.664 4.45058 112.76 6.74635 116.554L17.7803 134.783L22.4822 142.482L27.5308 150.747C32.3497 156.365 38.9867 159.053 45.5691 158.999L46.4535 143.656L46.8961 135.939C46.9809 134.463 47.1738 133.022 47.4662 131.609C49.8001 120.275 58.5504 111.206 70.001 108.763L65.413 101.095L63.2487 97.4892L60.9206 93.5985L60.2977 92.5546L58.9459 90.2926L53.1699 80.6241L49.7696 76.031L33.9382 76.0001C22.7491 75.9761 12.5295 82.449 7.6505 92.6531L2.00098 104.459Z" fill="#1BB3BC"/>
<path fill-rule="evenodd" clip-rule="evenodd" d="M53.3178 139.304C52.8893 139.702 52.4502 140.084 52.001 140.449C56.1904 142.076 60.59 143.16 65.0957 143.659L68.1684 144L74.001 134L53.3178 139.304Z" fill="#137E84"/>
<path fill-rule="evenodd" clip-rule="evenodd" d="M61.1111 93.5966C70.8903 90.52 78.001 81.2667 78.001 70.3423C78.001 56.9075 67.2469 46 54.001 46C40.755 46 30.001 56.9075 30.001 70.3423C30.001 80.1357 35.7155 88.5861 43.9442 92.4473C43.485 95.1638 41.8619 97.7189 40.3701 99.5807C40.8819 99.9111 41.4118 100.222 41.9592 100.513C49.3488 104.441 57.964 103.559 64.3243 98.9731L61.741 94.6528L61.1111 93.5966Z" fill="#FFC4B8"/>
<path fill-rule="evenodd" clip-rule="evenodd" d="M76.0104 59.8551H76.0024C73.8124 55.2776 70.2055 51.3497 65.4077 48.809C53.5051 42.5138 38.801 47.1521 32.5601 59.2C32.3594 59.5868 32.1699 59.9773 31.9916 60.3697C30.2504 63.4002 29.5239 67.252 27.7014 70.2962C23.9249 76.6016 16.2532 78.3463 11.7234 83.9783C7.95906 88.6632 6.92393 95.9279 9.19681 101.721C11.4712 107.524 16.699 111.891 17.2803 118.207C17.8696 124.582 13.4091 130.462 13.8168 136.856C14.2566 143.753 21.4765 148.887 27.1443 146.334C33.5467 143.449 35.3754 134.201 35.3411 126.389C35.3088 118.58 34.5337 109.975 38.6855 103.743C41.5306 99.4733 46.1138 97.2691 50.5419 94.9574C54.6056 95.5658 58.7183 95.1085 62.4975 93.7046C61.8781 92.5435 61.747 90.8703 62.2455 89.1687C63.0609 86.4019 65.2448 84.6222 67.1239 85.1896C67.8137 85.3975 68.3661 85.8938 68.7483 86.5748C80.4158 78.6779 76.0044 59.8551 76.0044 59.8551H76.0104ZM66.3307 91.9026C65.2196 92.5511 64.0611 93.1073 62.8681 93.5661C64.0602 93.1093 65.2187 92.5526 66.3307 91.9026Z" fill="#9E3667"/>
</svg>
