<?xml version="1.0" encoding="UTF-8"?><svg version="1.1" width="89px" height="120px" viewBox="0 0 89.0 120.0" xmlns="http://www.w3.org/2000/svg" xmlns:xlink="http://www.w3.org/1999/xlink"><defs><clipPath id="i0"><path d="M1440,0 L1440,1006 L0,1006 L0,0 L1440,0 Z"></path></clipPath><clipPath id="i1"><path d="M43.4997585,0 C46.4323671,0 48.9258454,1.84047453 49.8923913,4.41975474 L63.5839372,4.41975474 C65.696256,4.41975474 67.4597826,5.89796609 67.8870773,7.8701945 L84.0256039,7.8701945 C85.6681159,7.8701945 87,9.14825515 87,10.7249819 L87,115.044777 C87,116.677061 85.6681159,118 84.0256039,118 L2.97439614,118 C1.33152174,118 0,116.677061 0,115.044777 L0,10.7249819 C0,9.14825515 1.33152174,7.8701945 2.97439614,7.8701945 L19.1124396,7.8701945 C19.5400966,5.89796609 21.3033816,4.41975474 23.4157005,4.41975474 L37.1071256,4.41975474 C38.0740338,1.84047453 40.5675121,0 43.4997585,0 Z"></path></clipPath><clipPath id="i2"><path d="M84.0256039,0 C85.6681159,0 87,1.32161465 87,2.95172991 L87,107.04827 C87,108.678265 85.6681159,110 84.0256039,110 L2.97439614,110 C1.33152174,110 0,108.678265 0,107.04827 L0,2.95172991 C0,1.32161465 1.33152174,0 2.97439614,0 L84.0256039,0 Z"></path></clipPath><clipPath id="i3"><path d="M84.0256039,0 C85.6681159,0 87,1.28543569 87,2.87126096 L87,104.128739 C87,105.714564 85.6681159,107 84.0256039,107 L2.97439614,107 C1.33152174,107 0,105.714564 0,104.128739 L0,2.87126096 C0,1.28543569 1.33152174,0 2.97439614,0 L84.0256039,0 Z"></path></clipPath><clipPath id="i4"><path d="M77,0 L77,94 L0,94 L0,0 L77,0 Z"></path></clipPath><clipPath id="i5"><path d="M24.4998188,0 C27.4351659,0 29.9380356,1.89473074 30.9040972,4.55431557 L44.5936551,4.55458493 C46.9574275,4.55458493 48.8868786,6.45961335 48.9952033,8.85128566 L49,9.0635424 L49,17 L0,17 L0,9.0635424 C0,6.64447095 1.86168665,4.67032621 4.19869804,4.55949269 L4.4061032,4.55458493 L18.0957793,4.55431557 C19.0618316,1.89473074 21.5646596,0 24.4998188,0 Z"></path></clipPath><clipPath id="i6"><path d="M49,0 L49,5 L0,5 L0,0 L49,0 Z"></path></clipPath><clipPath id="i7"><path d="M1.99982674,0 C3.10473275,0 4,0.895536178 4,2 C4,3.10446382 3.10473275,4 1.99982674,4 C0.89538275,4 0,3.10446382 0,2 C0,0.895536178 0.89538275,0 1.99982674,0 Z"></path></clipPath></defs><g transform="translate(-664.0 -471.0)"><g clip-path="url(#i0)"><g transform="translate(664.0 471.0)"><g transform="translate(2.0 2.0)"><g clip-path="url(#i1)"><polygon points="0,0 87,0 87,118 0,118 0,0" stroke="none" fill="#9BC3D3"></polygon></g></g><g transform="translate(0.0 9.0)"><g clip-path="url(#i2)"><polygon points="0,0 87,0 87,110 0,110 0,0" stroke="none" fill="#9BC3D3"></polygon></g></g><g transform="translate(0.0 8.0)"><g clip-path="url(#i3)"><polygon points="0,0 87,0 87,107 0,107 0,0" stroke="none" fill="#DEEDF2"></polygon></g></g><g transform="translate(5.0 15.0)"><g clip-path="url(#i4)"><polygon points="0,0 77,0 77,94 0,94 0,0" stroke="none" fill="#F1F7F9"></polygon></g></g><g transform="translate(19.0 0.0)"><g clip-path="url(#i5)"><polygon points="0,0 49,0 49,17 0,17 0,0" stroke="none" fill="#CEDEE7"></polygon></g></g><g transform="translate(19.0 12.0)"><g clip-path="url(#i6)"><polygon points="0,0 49,0 49,5 0,5 0,0" stroke="none" fill="#DEEDF2"></polygon></g></g><g transform="translate(41.0 3.0)"><g clip-path="url(#i7)"><polygon points="0,0 4,0 4,4 0,4 0,0" stroke="none" fill="#FFFFFF"></polygon></g></g></g></g></g></svg>