<svg width="140" height="140" viewBox="0 0 140 140" fill="none" xmlns="http://www.w3.org/2000/svg">
<path fill-rule="evenodd" clip-rule="evenodd" d="M53.218 32.7518C46.0887 40.2949 36.6434 45.218 26.4073 47.0684C20.1944 48.1915 14.2495 51.1433 9.4458 55.9242C-3.13624 68.4458 -3.15052 88.6388 9.41453 101.178C14.9574 106.709 22.0252 109.8 29.2726 110.451C35.4772 111.009 41.3066 113.703 45.6113 118.187C45.6667 118.244 45.7226 118.302 45.7785 118.359C53.1219 125.816 65.0009 125.89 72.4333 118.521C72.4759 118.479 72.5182 118.436 72.56 118.394C74.5454 116.388 77.4111 115.512 80.1878 116.049C96.019 119.109 113.044 114.536 125.306 102.33C144.898 82.8253 144.898 51.1447 125.306 31.6399C105.698 12.1199 73.9086 12.12 54.3012 31.6402C53.9331 32.0066 53.572 32.3771 53.218 32.7518Z" fill="#DEEDF2"/>
<path fill-rule="evenodd" clip-rule="evenodd" d="M127.099 87.8291L93.3422 107.319C92.3807 107.874 91.1446 107.541 90.5813 106.575L79.0198 86.7488C78.4565 85.7828 78.7794 84.55 79.7409 83.9949L113.498 64.5051C114.46 63.95 115.696 64.2828 116.259 65.2488L127.82 85.0748C128.384 86.0408 128.061 87.2739 127.099 87.8291Z" fill="white"/>
<path fill-rule="evenodd" clip-rule="evenodd" d="M90.6723 100.777L97.6005 96.777L97.0968 95.9131L90.1686 99.9131L90.6723 100.777ZM95.286 102.732L92.688 104.232L91.6805 102.505L94.2785 101.005L95.286 102.732ZM98.7489 100.732L96.1509 102.232L95.1434 100.505L97.7414 99.0047L98.7489 100.732ZM105.395 92.277L98.4666 96.277L97.9628 95.4131L104.891 91.4131L105.395 92.277ZM107.127 91.277L114.055 87.277L113.551 86.4131L106.623 90.4131L107.127 91.277ZM121.85 82.7769L114.922 86.7769L114.418 85.9131L121.346 81.9131L121.85 82.7769Z" fill="#DEEDF2"/>
<path fill-rule="evenodd" clip-rule="evenodd" d="M70.5 132C35.4299 132 7 129.538 7 126.5C7 123.462 35.4299 121 70.5 121C105.57 121 134 123.462 134 126.5C134 129.538 105.57 132 70.5 132Z" fill="#DEEDF2"/>
<path fill-rule="evenodd" clip-rule="evenodd" d="M100.92 126H45.0804C43.9316 126 43 125.076 43 123.936V43.0642C43 41.9242 43.9316 41 45.0804 41H100.92C102.069 41 103 41.9242 103 43.0642V123.936C103 125.076 102.069 126 100.92 126Z" fill="#34466B"/>
<path fill-rule="evenodd" clip-rule="evenodd" d="M95.9364 121H49.0633C47.9238 121 47 120.07 47 118.921V35.0789C47 33.9308 47.9238 33 49.0633 33H95.9364C97.0759 33 98 33.9308 98 35.0789V118.921C98 120.07 97.0759 121 95.9364 121Z" fill="#9BC3D3"/>
<path fill-rule="evenodd" clip-rule="evenodd" d="M54 33H92C92 32.4476 91.4345 32 90.7366 32H55.2631C54.5655 32 54 32.4476 54 33Z" fill="#34466B"/>
<path fill-rule="evenodd" clip-rule="evenodd" d="M89.6123 117H55.3877C55.1733 117 55 116.859 55 116.683V116.317C55 116.142 55.1733 116 55.3877 116H89.6123C89.8263 116 90 116.142 90 116.317V116.683C90 116.859 89.8263 117 89.6123 117Z" fill="#34466B"/>
<path fill-rule="evenodd" clip-rule="evenodd" d="M93 42.7109V64.2878C93 65.2334 92.2231 66 91.2649 66H53.7351C53.5454 66 53.3635 65.9705 53.1925 65.915C52.4995 65.6898 52 65.0459 52 64.2878V42.7109C52 41.7666 52.7769 41 53.7351 41H91.2649C92.2231 41 93 41.7666 93 42.7109Z" fill="#EFF6F9"/>
<path fill-rule="evenodd" clip-rule="evenodd" d="M61.4776 72H53.5224C52.6817 72 52 71.3283 52 70.5002C52 69.6714 52.6817 69 53.5224 69H61.4776C62.3183 69 63 69.6714 63 70.5002C63 71.3283 62.3183 72 61.4776 72Z" fill="#EFF6F9"/>
<path fill-rule="evenodd" clip-rule="evenodd" d="M76.4776 72H68.5224C67.6817 72 67 71.3283 67 70.5002C67 69.6714 67.6817 69 68.5224 69H76.4776C77.3183 69 78 69.6714 78 70.5002C78 71.3283 77.3183 72 76.4776 72Z" fill="#EFF6F9"/>
<path fill-rule="evenodd" clip-rule="evenodd" d="M91.4773 72H83.5224C82.6813 72 82 71.3283 82 70.5002C82 69.6714 82.6813 69 83.5224 69H91.4773C92.3183 69 93 69.6714 93 70.5002C93 71.3283 92.3183 72 91.4773 72Z" fill="#EFF6F9"/>
<path fill-rule="evenodd" clip-rule="evenodd" d="M63.0908 82H52.9092C52.4069 82 52 81.5432 52 80.9806V76.0194C52 75.4565 52.4069 75 52.9092 75H63.0908C63.5928 75 64 75.4565 64 76.0194V80.9806C64 81.5432 63.5928 82 63.0908 82Z" fill="#EFF6F9"/>
<path fill-rule="evenodd" clip-rule="evenodd" d="M78.0905 82H67.9095C67.4072 82 67 81.5432 67 80.9806V76.0194C67 75.4565 67.4072 75 67.9095 75H78.0905C78.5928 75 79 75.4565 79 76.0194V80.9806C79 81.5432 78.5928 82 78.0905 82Z" fill="#EFF6F9"/>
<path fill-rule="evenodd" clip-rule="evenodd" d="M93.0905 82H82.9095C82.4072 82 82 81.5432 82 80.9806V76.0194C82 75.4565 82.4072 75 82.9095 75H93.0905C93.5928 75 94 75.4565 94 76.0194V80.9806C94 81.5432 93.5928 82 93.0905 82Z" fill="#EFF6F9"/>
<path fill-rule="evenodd" clip-rule="evenodd" d="M63.0908 93H52.9092C52.4069 93 52 92.5441 52 91.9808V87.0188C52 86.4562 52.4069 86 52.9092 86H63.0908C63.5928 86 64 86.4562 64 87.0188V91.9808C64 92.5441 63.5928 93 63.0908 93Z" fill="#EFF6F9"/>
<path fill-rule="evenodd" clip-rule="evenodd" d="M78.0905 93H67.9095C67.4072 93 67 92.5441 67 91.9808V87.0188C67 86.4562 67.4072 86 67.9095 86H78.0905C78.5928 86 79 86.4562 79 87.0188V91.9808C79 92.5441 78.5928 93 78.0905 93Z" fill="#EFF6F9"/>
<path fill-rule="evenodd" clip-rule="evenodd" d="M93.0905 93H82.9095C82.4072 93 82 92.5441 82 91.9808V87.0188C82 86.4562 82.4072 86 82.9095 86H93.0905C93.5928 86 94 86.4562 94 87.0188V91.9808C94 92.5441 93.5928 93 93.0905 93Z" fill="#EFF6F9"/>
<path fill-rule="evenodd" clip-rule="evenodd" d="M63.0908 103H52.9092C52.4069 103 52 102.544 52 101.981V97.0188C52 96.4562 52.4069 96 52.9092 96H63.0908C63.5928 96 64 96.4562 64 97.0188V101.981C64 102.544 63.5928 103 63.0908 103Z" fill="#EFF6F9"/>
<path fill-rule="evenodd" clip-rule="evenodd" d="M78.0905 103H67.9095C67.4072 103 67 102.544 67 101.981V97.0188C67 96.4562 67.4072 96 67.9095 96H78.0905C78.5928 96 79 96.4562 79 97.0188V101.981C79 102.544 78.5928 103 78.0905 103Z" fill="#EFF6F9"/>
<path fill-rule="evenodd" clip-rule="evenodd" d="M93.0905 103H82.9095C82.4072 103 82 102.544 82 101.981V97.0188C82 96.4562 82.4072 96 82.9095 96H93.0905C93.5928 96 94 96.4562 94 97.0188V101.981C94 102.544 93.5928 103 93.0905 103Z" fill="#EFF6F9"/>
<path fill-rule="evenodd" clip-rule="evenodd" d="M63.0908 114H52.9092C52.4069 114 52 113.543 52 112.981V108.019C52 107.457 52.4069 107 52.9092 107H63.0908C63.5928 107 64 107.457 64 108.019V112.981C64 113.543 63.5928 114 63.0908 114Z" fill="#CEDEE7"/>
<path fill-rule="evenodd" clip-rule="evenodd" d="M78.0905 114H67.9095C67.4072 114 67 113.543 67 112.981V108.019C67 107.457 67.4072 107 67.9095 107H78.0905C78.5928 107 79 107.457 79 108.019V112.981C79 113.543 78.5928 114 78.0905 114Z" fill="#DEEDF2"/>
<path fill-rule="evenodd" clip-rule="evenodd" d="M93.0905 114H82.9095C82.4072 114 82 113.543 82 112.981V108.019C82 107.457 82.4072 107 82.9095 107H93.0905C93.5928 107 94 107.457 94 108.019V112.981C94 113.543 93.5928 114 93.0905 114Z" fill="#CEDEE7"/>
<path d="M122 50.2266L120 50.0935L122 50.2266" fill="#9BC3D3"/>
<path d="M136 51.3669L131 51L136 51.3669Z" fill="#9BC3D3"/>
<path d="M25 88.2712C25 88.2712 25.1458 86.87 29.2513 87.0051C33.3571 87.1403 39.3022 86.0907 43.146 86.008C47.5909 85.9126 52 86.7009 52 86.7009L45.3537 96H31.3596L25 88.2712Z" fill="#EFF6F9"/>
<path d="M31 94.3162C31.6445 94.5446 32.2858 94.7719 32.9264 95C33.2293 93.7286 32.57 92.3846 31.447 92C31.3132 92.7751 31.166 93.5473 31 94.3162Z" fill="#008035"/>
<path d="M42.0132 96C42.3205 95.3589 42.6499 94.7217 43 94.0885C41.2911 93.7633 39.4931 94.3625 39 95.4274C40.0036 95.6183 41.0083 95.8093 42.0132 96Z" fill="#008035"/>
<path d="M37.2692 91.044C37.8095 91.2072 38.1157 91.7655 37.959 92.2919C37.8011 92.8177 37.2523 93.1164 36.7278 92.9572C36.2031 92.7983 35.8938 92.2411 36.0336 91.7105C36.1759 91.1806 36.7289 90.8822 37.2692 91.044Z" fill="#008035"/>
<path d="M31 92.7458C31.6625 92.8306 32.3229 92.9152 32.9827 93C33.1303 92.0351 32.3194 91.1385 31.1654 91C31.1255 91.5817 31.0723 92.1636 31 92.7458Z" fill="#008035"/>
<path d="M41.549 95C41.682 94.3389 41.8317 93.6797 42 93.0226C40.5538 92.8577 39.2045 93.6137 39 94.7104C39.8494 94.8068 40.7003 94.903 41.549 95Z" fill="#008035"/>
<path fill-rule="evenodd" clip-rule="evenodd" d="M25 88.2645C25 88.2645 25.1458 85.8703 29.2513 86.0055C33.3571 86.141 37.7336 87.8126 41.5742 87.9825C47.0769 88.2257 52 86.6928 52 86.6928L45.3537 96H31.3596L25 88.2645Z" fill="#9BC3D3"/>
<path fill-rule="evenodd" clip-rule="evenodd" d="M53.071 109.67C50.9968 105.1 47.8073 100.325 44.8669 96H30.6616C27.7535 100.325 24.8198 105.16 22.5225 109.67C17.6218 119.291 20.4146 122.462 26.1658 124.735C30.4318 126.422 45.1611 126.422 49.4272 124.735C55.1792 122.462 56.6294 117.509 53.071 109.67Z" fill="#9BC3D3"/>
<path d="M46 95.6456C46 95.8412 45.7164 96 45.3673 96H29.6334C29.2831 96 29 95.8412 29 95.6456V95.3544C29 95.1588 29.2831 95 29.6334 95H45.3673C45.7164 95 46 95.1588 46 95.3544V95.6456Z" fill="#DEEDF2"/>
<path fill-rule="evenodd" clip-rule="evenodd" d="M42 116.25C41.4261 116.625 40.4632 117 39.2408 117C37.7408 117 36.4074 116.447 35.4815 115.411C34.7777 114.661 34.3148 113.625 34.1479 112.339H33V111.464H34.0552V111.197C34.0552 110.911 34.0741 110.643 34.0925 110.393H33V109.5H34.2221C34.4444 108.25 34.9997 107.214 35.7408 106.482C36.6853 105.535 37.8888 105 39.4075 105C40.5002 105 41.3518 105.303 41.8704 105.572L41.5001 106.75C41.0369 106.482 40.2593 106.25 39.4258 106.25C38.4257 106.25 37.6109 106.589 36.9813 107.232C36.4258 107.75 36.0555 108.554 35.8702 109.5H41.0369V110.393H35.7035C35.6852 110.625 35.6665 110.893 35.6665 111.143V111.464H41.0369V112.339H35.7962C35.9442 113.375 36.315 114.143 36.8147 114.678C37.5001 115.375 38.4257 115.714 39.4258 115.714C40.4073 115.714 41.2592 115.357 41.6853 115.125L42 116.25Z" fill="#DEEDF2"/>
</svg>
