<svg width="141" height="136" viewBox="0 0 141 136" fill="none" xmlns="http://www.w3.org/2000/svg">
<g id="concepts/client-service/Bank and Counter/glossary">
<path id="Fill-5" fill-rule="evenodd" clip-rule="evenodd" d="M8.68195 63.0694C10.5887 56.2286 4.52704 55.9647 4.39355 47.1501C4.3392 43.5451 6.31392 39.8735 11.0659 38.1892C13.4014 37.3618 15.729 36.7929 17.8069 35.4767C22.5423 32.4776 22.4567 26.7709 23.7488 21.9061C26.5855 11.2214 37.5038 2.73292 48.5557 3.00905C56.5228 3.20775 63.7257 3.45195 70.9891 10.2144C75.9592 14.8417 79.1892 20.5353 83.8034 25.3056C88.6899 30.3572 94.6443 32.7809 101.33 34.4041C107.653 35.939 114.532 37.7653 119.372 42.3682C123.92 46.6936 123.257 51.2177 121.307 56.5288C119.156 62.3854 123.819 66.3698 128.681 68.6505C132.775 70.5706 139.628 74.4762 139.852 81.6777C140.545 103.984 126.377 104.073 121.094 106.193C72.4995 125.697 53.8504 110.654 33.2453 110.958C12.7047 111.261 0.930161 86.4203 1.64375 79.1049C2.54926 69.8165 7.35019 67.8462 8.68195 63.0694Z" fill="#DEEDF2"/>
<g id="g.-illustration/Backgrounds/Shapes/Bubble-02">
<path id="Primary-color" fill-rule="evenodd" clip-rule="evenodd" d="M46.9238 96.8749C63.1622 94.8625 80.5973 97.6056 89.5059 99.9903C94.843 101.419 96.5049 104.61 102.019 105.12C113.093 106.143 138.84 104.875 139.533 107.476C140.897 112.596 132.417 115.976 112.579 119.775C113.036 120.1 110.621 126.795 94.595 129.389C88.2535 130.415 77.5083 130.586 73.3143 129.605C66.8678 128.097 60.24 127.508 53.6268 127.82C30.1055 128.93 11.5035 127.551 11.0058 123.535C10.8393 122.192 12.0645 120.229 14.1126 118.994C15.3886 118.225 13.4056 117.79 12.943 117.659C7.2617 116.052 3.99734 114.043 3.76043 112.283C3.0173 106.759 23.088 99.8291 46.9238 96.8749Z" fill="#DEEDF2"/>
</g>
<path id="Primary-color-Copy-2" fill-rule="evenodd" clip-rule="evenodd" d="M108.81 8.66255C108.252 4.13234 104.391 0.625 99.7115 0.625C94.6488 0.625 90.5444 4.73041 90.5444 9.79492C90.5444 10.6258 90.6548 11.4309 90.862 12.1962C90.7841 12.1972 90.707 12.2 90.6302 12.2045L90.5439 12.1974V12.2102C87.9182 12.4075 85.8485 14.6015 85.8485 17.2788C85.8485 19.9561 87.9182 22.15 90.5439 22.3473V22.3625H123.921V22.362H123.921C125.967 22.362 127.625 20.7026 127.625 18.6559C127.625 16.6092 125.967 14.9501 123.921 14.9501H123.921V14.9499L115.464 14.2525C115.503 13.9999 115.523 13.7412 115.523 13.4777C115.523 10.6705 113.248 8.39472 110.442 8.39472C109.871 8.39472 109.322 8.48889 108.81 8.66255Z" fill="#DEEDF2"/>
<path id="Primary-color_2" fill-rule="evenodd" clip-rule="evenodd" d="M91.6789 19.7368C91.298 16.6223 88.6613 14.211 85.4654 14.211C82.0079 14.211 79.2049 17.0335 79.2049 20.5153C79.2049 21.0865 79.2803 21.64 79.4218 22.1662C79.3687 22.1669 79.316 22.1688 79.2636 22.1719L79.2046 22.167V22.1758C77.4114 22.3115 75.998 23.8198 75.998 25.6605C75.998 27.5011 77.4114 29.0094 79.2046 29.1451V29.1555H101.998V29.1552H101.999C103.396 29.1552 104.528 28.0144 104.528 26.6073C104.528 25.2002 103.396 24.0595 101.999 24.0595H101.998V24.0594L96.2235 23.5799C96.2499 23.4062 96.2636 23.2284 96.2636 23.0473C96.2636 21.1173 94.71 19.5527 92.7934 19.5527C92.4036 19.5527 92.0287 19.6174 91.6789 19.7368Z" fill="#EAF7FE"/>
<path id="Primary-color_3" fill-rule="evenodd" clip-rule="evenodd" d="M14.8554 17.5218C15.268 14.1241 18.1245 11.4936 21.5867 11.4936C25.3323 11.4936 28.3689 14.5727 28.3689 18.371C28.3689 18.9942 28.2872 19.598 28.1339 20.172C28.1915 20.1728 28.2486 20.1748 28.3054 20.1782L28.3692 20.1729V20.1825C30.3118 20.3305 31.8431 21.976 31.8431 23.9839C31.8431 25.9919 30.3118 27.6373 28.3692 27.7853V27.7967H3.67588V27.7963H3.6758C2.1622 27.7963 0.935059 26.5518 0.935059 25.0168C0.935059 23.4818 2.1622 22.2374 3.6758 22.2374H3.67588V22.2373L9.93205 21.7142C9.90347 21.5248 9.88866 21.3307 9.88866 21.1332C9.88866 19.0277 11.5717 17.3209 13.648 17.3209C14.0703 17.3209 14.4764 17.3915 14.8554 17.5218Z" fill="#EAF7FE"/>
<path id="Fill-26" fill-rule="evenodd" clip-rule="evenodd" d="M17.9903 116.325C18.0281 116.326 18.0662 116.326 18.1047 116.325L67.8345 115.672L68.2876 115.666L78.7771 115.528C80.146 115.51 81.3313 114.745 81.9482 113.624C82.0216 113.491 82.0868 113.353 82.1434 113.21C82.3018 112.811 82.3925 112.377 82.4004 111.924C82.4009 111.894 82.4014 111.865 82.4009 111.835C82.3193 97.05 82.0061 41.6417 81.8288 26.8884C81.805 24.9077 80.2114 23.3141 78.2431 23.2797C78.2164 23.2793 78.1897 23.2788 78.163 23.2793L17.6451 23.5269C15.6578 23.535 14.0446 25.132 14.009 27.1161C14.0088 27.1298 14.0086 27.1435 14.0086 27.1572L13.9856 30.4942L9.3459 30.4869C8.07174 30.4845 7.03345 31.5063 7.00961 32.7782C7.00943 32.7883 7.00926 32.7981 7.00909 32.8082L6.80152 67.3158C6.79859 67.801 6.94411 68.2535 7.19583 68.6293C7.21234 68.654 7.22918 68.6785 7.247 68.7026C7.65573 69.265 8.30975 69.6387 9.05585 69.6638L9.11054 69.6657L9.20071 69.6686L14.188 69.8372L14.3847 112.667C14.3937 114.671 16.0025 116.29 17.9903 116.325Z" fill="#767676"/>
<g id="Group">
<path id="Fill-25" fill-rule="evenodd" clip-rule="evenodd" d="M18.0553 111.37H78.5127V27.4767H18.0553V111.37Z" fill="white"/>
<path id="Fill-30" fill-rule="evenodd" clip-rule="evenodd" d="M50.8635 38.4863C50.8635 38.7774 50.6278 39.013 50.3371 39.013H25.5205C25.2298 39.013 24.9938 38.7774 24.9938 38.4863C24.9938 38.1956 25.2298 37.9594 25.5205 37.9594H50.3371C50.6278 37.9594 50.8635 38.1956 50.8635 38.4863Z" fill="#CEDEE7"/>
<path id="Fill-31" fill-rule="evenodd" clip-rule="evenodd" d="M46.3219 41.3106C46.3219 41.6016 46.0859 41.8373 45.7952 41.8373H25.5205C25.2298 41.8373 24.9938 41.6016 24.9938 41.3106C24.9938 41.0199 25.2298 40.7839 25.5205 40.7839H45.7952C46.0859 40.7839 46.3219 41.0199 46.3219 41.3106Z" fill="#CEDEE7"/>
<path id="Fill-32" fill-rule="evenodd" clip-rule="evenodd" d="M52.7465 44.1347C52.7465 44.4254 52.5105 44.6614 52.2198 44.6614H25.5205C25.2298 44.6614 24.9938 44.4254 24.9938 44.1347C24.9938 43.8437 25.2298 43.6077 25.5205 43.6077H52.2198C52.5105 43.6077 52.7465 43.8437 52.7465 44.1347Z" fill="#CEDEE7"/>
<path id="Fill-35" fill-rule="evenodd" clip-rule="evenodd" d="M43.3816 52.723C43.3816 53.0137 43.1456 53.2497 42.8549 53.2497H25.5205C25.2298 53.2497 24.9938 53.0137 24.9938 52.723C24.9938 52.432 25.2298 52.196 25.5205 52.196H42.8549C43.1456 52.196 43.3816 52.432 43.3816 52.723Z" fill="#CEDEE7"/>
<path id="Fill-36" fill-rule="evenodd" clip-rule="evenodd" d="M50.7715 55.5469C50.7715 55.8379 50.5358 56.0739 50.2448 56.0739H25.5205C25.2298 56.0739 24.9938 55.8379 24.9938 55.5469C24.9938 55.2559 25.2298 55.0202 25.5205 55.0202H50.2448C50.5358 55.0202 50.7715 55.2559 50.7715 55.5469Z" fill="#CEDEE7"/>
<path id="Fill-37" fill-rule="evenodd" clip-rule="evenodd" d="M41.3102 58.371C41.3102 58.662 41.0743 58.8977 40.7836 58.8977H25.5205C25.2298 58.8977 24.9938 58.662 24.9938 58.371C24.9938 58.0803 25.2298 57.8443 25.5205 57.8443H40.7836C41.0743 57.8443 41.3102 58.0803 41.3102 58.371Z" fill="#CEDEE7"/>
<path id="Fill-40" fill-rule="evenodd" clip-rule="evenodd" d="M37.6414 66.6787C37.6414 66.9694 37.4054 67.2054 37.1144 67.2054H25.5205C25.2298 67.2054 24.9938 66.9694 24.9938 66.6787C24.9938 66.3877 25.2298 66.1514 25.5205 66.1514H37.1144C37.4054 66.1514 37.6414 66.3877 37.6414 66.6787Z" fill="#CEDEE7"/>
<path id="Fill-41" fill-rule="evenodd" clip-rule="evenodd" d="M46.3219 69.5018C46.3219 69.7928 46.0859 70.0288 45.7952 70.0288H25.5205C25.2298 70.0288 24.9938 69.7928 24.9938 69.5018C24.9938 69.2111 25.2298 68.9751 25.5205 68.9751H45.7952C46.0859 68.9751 46.3219 69.2111 46.3219 69.5018Z" fill="#CEDEE7"/>
<path id="Fill-42" fill-rule="evenodd" clip-rule="evenodd" d="M42.8549 72.3264C42.8549 72.6171 42.6189 72.8531 42.3282 72.8531H25.5205C25.2298 72.8531 24.9938 72.6171 24.9938 72.3264C24.9938 72.0354 25.2298 71.7997 25.5205 71.7997H42.3282C42.6189 71.7997 42.8549 72.0354 42.8549 72.3264Z" fill="#CEDEE7"/>
<path id="Fill-45" fill-rule="evenodd" clip-rule="evenodd" d="M50.8635 79.6681C50.8635 79.9588 50.6278 80.1947 50.3371 80.1947H25.5205C25.2298 80.1947 24.9938 79.9588 24.9938 79.6681C24.9938 79.377 25.2298 79.1414 25.5205 79.1414H50.3371C50.6278 79.1414 50.8635 79.377 50.8635 79.6681Z" fill="#CEDEE7"/>
<path id="Fill-46" fill-rule="evenodd" clip-rule="evenodd" d="M46.3219 82.4922C46.3219 82.7829 46.0859 83.0192 45.7952 83.0192H25.5205C25.2298 83.0192 24.9938 82.7829 24.9938 82.4922C24.9938 82.2012 25.2298 81.9655 25.5205 81.9655H45.7952C46.0859 81.9655 46.3219 82.2012 46.3219 82.4922Z" fill="#CEDEE7"/>
<path id="Fill-47" fill-rule="evenodd" clip-rule="evenodd" d="M41.5031 85.3159C41.5031 85.607 41.2671 85.8429 40.9764 85.8429H25.5205C25.2298 85.8429 24.9938 85.607 24.9938 85.3159C24.9938 85.0249 25.2298 84.7892 25.5205 84.7892H40.9764C41.2671 84.7892 41.5031 85.0249 41.5031 85.3159Z" fill="#CEDEE7"/>
</g>
<g id="lupa-2">
<path id="lupa" fill-rule="evenodd" clip-rule="evenodd" d="M61.7233 36.3974C66.8249 39.6656 68.4892 46.2523 65.6851 51.4552L87.2829 64.6371C88.0646 65.114 88.3126 66.1413 87.8369 66.9317C87.3615 67.7218 86.3424 67.9758 85.5607 67.4987C85.5356 67.4832 85.5064 67.4642 85.4822 67.4476L64.6506 53.045C61.028 57.7192 54.2994 58.9245 49.1999 55.6577C43.8287 52.2167 42.2678 45.0972 45.7204 39.787C49.1731 34.4769 56.3521 32.9564 61.7233 36.3974ZM47.2785 40.7841C44.3773 45.2459 45.6888 51.2282 50.2021 54.1196C54.7153 57.0111 60.7477 55.7331 63.6488 51.2712C66.5501 46.8094 65.2385 40.8271 60.7252 37.9357C56.2119 35.0444 50.1797 36.322 47.2785 40.7841Z" fill="#732645"/>
</g>
<g id="Group-14">
<g id="g.-illustration/Characters/Body-parts/Head/Male/Model-B-07">
<g id="g.-illustration/Characters/Body-parts/Head/Male/Model-B-00">
<path id="Skin-tone" fill-rule="evenodd" clip-rule="evenodd" d="M98.4756 50.2518C99.8113 49.3403 100.711 47.8275 100.772 46.089C100.873 43.1885 98.6004 40.7513 95.6998 40.65C93.0215 40.5564 90.7384 42.4869 90.3244 45.0668C90.2584 45.3348 90.2077 45.6063 90.1699 45.8782L90.1698 45.8786L90.1687 45.8846L90.1685 45.8867C90.1572 45.9681 90.1471 46.0494 90.1381 46.1307L89.6345 50.1735L90.4487 50.478L90.4573 50.4802L90.4573 50.4803C90.4753 50.5516 90.4853 50.5902 90.4853 50.5902L90.4885 51.1396L90.4932 52.1664C90.4953 52.5062 90.5547 52.8411 90.6673 53.1581C90.7459 53.3817 90.8526 53.597 90.9852 53.798C91.1408 54.0339 91.3292 54.2473 91.5414 54.4293C91.6519 54.5248 91.77 54.6107 91.8937 54.6878C91.9592 54.7288 92.0247 54.7666 92.0928 54.8023L92.0932 54.8025L91.5156 61.1959C91.5156 61.1959 93.3659 61.8246 95.4293 61.4491C96.6764 61.2243 98.0026 60.63 99.0446 59.3104C99.0446 59.3104 98.0454 54.1663 98.4756 50.2518Z" fill="#FFC4B8"/>
<path id="Shadows" fill-rule="evenodd" clip-rule="evenodd" d="M95.4087 61.373C96.6559 61.1483 97.9821 60.554 99.0241 59.2344C99.0241 59.2344 97.9416 53.722 98.512 49.7634C98.512 49.7634 95.3686 56.7246 95.4087 61.373ZM90.4446 50.5011C90.73 50.5958 91.0219 50.3791 91.0135 50.0788L90.9597 48.1429L90.4446 50.5011Z" fill="#F4A48D"/>
</g>
<g id="g.-illustration/Characters/Body-parts/Hair/Male/Model-B-07">
<path id="Hair-color" fill-rule="evenodd" clip-rule="evenodd" d="M97.3854 41.0542C95.078 40.8925 95.431 38.9183 95.431 38.9183C92.9559 38.913 91.8695 39.8075 91.8695 39.8075C89.8282 41.317 90.5051 44.5121 90.5051 44.5121C90.8916 42.1324 94.5175 43.2793 95.9424 43.5694C96.508 44.1642 96.233 45.5582 96.4887 46.7503C96.4933 46.7719 97.0744 48.3934 97.0744 48.3934L97.0751 48.3954L97.1052 48.5628C97.1166 48.536 97.1286 48.5091 97.141 48.4824C97.5582 47.5838 98.3618 47.0717 98.9356 47.3374C99.5098 47.6034 99.6368 48.5472 99.2196 49.4458C99.0743 49.7588 98.7258 50.0195 98.5127 50.2222C98.3062 51.5558 98.2927 52.8007 98.3681 53.8725L98.9648 53.9192L101.47 43.7912C101.677 42.431 101.09 41.7864 100.126 41.4537C99.3752 41.1945 98.3961 41.125 97.3854 41.0542Z" fill="#444444"/>
</g>
</g>
<g id="Group_2">
<path id="Fill-16" fill-rule="evenodd" clip-rule="evenodd" d="M89.7637 64.8217L87.9329 70.1607L85.0507 65.2444L82.7947 64.5784L85.5401 74.7753L88.29 76.7506L91.8708 75.1138L93.3716 65.7699L89.7637 64.8217Z" fill="#9BC3D3"/>
<path id="Fill-17" fill-rule="evenodd" clip-rule="evenodd" d="M89.0201 79.623L88.1453 97.5065L90.5709 120.237L93.0971 120.447L95.0924 99.5423L100.272 79.0897L89.0201 79.623Z" fill="#34466B"/>
<path id="Fill-19" fill-rule="evenodd" clip-rule="evenodd" d="M94.6578 80.7254L96.4884 98.5364L101.608 120.623L104.137 120.449L103.655 99.4346L105.693 78.4349L94.6578 80.7254Z" fill="#34466B"/>
<path id="Fill-23" fill-rule="evenodd" clip-rule="evenodd" d="M105.261 68.2508C104.73 66.8408 103.157 63.3689 102.266 62.1376C100.048 59.0757 100.475 58.6716 93.3768 58.9975C92.7796 59.0249 92.2847 59.1223 91.8591 59.2795C91.305 59.6424 90.3679 60.8872 89.6649 65.0645C89.696 65.9628 89.7741 68.6308 89.7465 72.1384C89.7237 75.0348 88.6832 80.1602 86.6251 87.5146C90.2373 87.4182 92.147 87.3665 92.3541 87.3597C102.416 86.5901 107.468 86.1545 107.511 86.0531C107.878 85.3494 107.913 84.6504 107.913 84.6502C108.776 79.9146 106.456 71.616 106.456 71.6148C105.988 70.2625 105.538 68.9867 105.261 68.2508Z" fill="#9BC3D3"/>
<path id="Fill-26_2" fill-rule="evenodd" clip-rule="evenodd" d="M100.876 60.1205L93.8297 72.9854L88.3026 66.4499L86.1132 68.6051C88.9491 73.7201 90.8019 76.7212 91.6715 77.6082C92.9759 78.9387 93.0533 79.2334 96.9504 75.3829C99.5484 72.8159 101.682 69.0188 103.351 63.9915C102.948 63.0904 102.581 62.3816 102.251 61.865C101.921 61.3485 101.463 60.767 100.876 60.1205Z" fill="#CEDEE7"/>
<path id="Fill-28" fill-rule="evenodd" clip-rule="evenodd" d="M87.878 66.8663L88.0107 64.6778L86.2961 63.3259L85.6035 63.5676L86.5505 64.6318L82.2146 64.4804L82.3429 65.5369L86.5712 68.1526L87.878 66.8663Z" fill="#FFC4B8"/>
</g>
<path id="Fill-74" fill-rule="evenodd" clip-rule="evenodd" d="M90.5354 119.815L93.2006 119.493L93.2171 122.756L89.4286 122.966L87.8746 122.736L88.4411 121.243L89.0127 120.885L90.5354 119.815Z" fill="#1BB3BC"/>
<path id="Fill-78" fill-rule="evenodd" clip-rule="evenodd" d="M101.415 119.649L99.5211 121.553L99.7463 122.984L104.714 122.345L104.147 119.875L101.415 119.649Z" fill="#1BB3BC"/>
</g>
<path id="A" fill-rule="evenodd" clip-rule="evenodd" d="M25.6591 34.9296L25.8525 34.2948H26.8248L27.0182 34.9296H27.6275L26.6825 32.2516H25.9911L25.0498 34.9296H25.6591ZM26.686 33.8205H25.9909C26.1806 33.2063 26.2956 32.8214 26.3357 32.6657C26.3454 32.7095 26.3615 32.7691 26.384 32.8445C26.4065 32.9199 26.5072 33.2452 26.686 33.8205Z" fill="#CEDEE7"/>
</g>
</svg>
