<?xml version="1.0" encoding="UTF-8"?><svg version="1.1" width="122px" height="120px" viewBox="0 0 122.0 120.0" xmlns="http://www.w3.org/2000/svg" xmlns:xlink="http://www.w3.org/1999/xlink"><defs><clipPath id="i0"><path d="M1440,0 L1440,1097 L0,1097 L0,0 L1440,0 Z"></path></clipPath><clipPath id="i1"><path d="M122,0 L122,69 L0,69 L0,0 L122,0 Z"></path></clipPath><clipPath id="i2"><path d="M61,0 L122,51 L0,51 L61,0 Z"></path></clipPath><clipPath id="i3"><path d="M61,0 L122,38 L0,38 L61,0 Z"></path></clipPath><clipPath id="i4"><path d="M46,0 L4.88577071,30 L0,30 L46,0 Z"></path></clipPath><clipPath id="i5"><path d="M46,0 L4.8857705,30 L0,30 L46,0 Z"></path></clipPath><clipPath id="i6"><path d="M46,0 L4.8857705,40 L0,40 L46,0 Z"></path></clipPath><clipPath id="i7"><path d="M46,0 L4.88577071,40 L0,40 L46,0 Z"></path></clipPath></defs><g transform="translate(-639.0 -543.0)"><g clip-path="url(#i0)"><g transform="translate(639.0 543.0)"><g transform="translate(0.0 51.0)"><g clip-path="url(#i1)"><polygon points="0,0 122,0 122,69 0,69 0,0" stroke="none" fill="#DEEDF3"></polygon></g></g><g clip-path="url(#i2)"><polygon points="0,0 122,0 122,51 0,51 0,0" stroke="none" fill="#DEEDF3"></polygon></g><g transform="translate(0.0 102.0) scale(1.0 -1.0)"><g clip-path="url(#i2)"><polygon points="0,0 122,0 122,51 0,51 0,0" stroke="none" fill="#C3DEE7"></polygon></g></g><g transform="translate(0.0 82.0)"><g clip-path="url(#i3)"><polygon points="0,0 122,0 122,38 0,38 0,0" stroke="none" fill="#DEEDF2"></polygon></g></g><g transform="translate(0.0 90.0)"><g clip-path="url(#i4)"><polygon points="0,0 46,0 46,30 0,30 0,0" stroke="none" fill="#9BC3D3"></polygon></g></g><g transform="translate(122.0 90.0) scale(-1.0 1.0)"><g clip-path="url(#i5)"><polygon points="0,0 46,0 46,30 0,30 0,0" stroke="none" fill="#9BC3D3"></polygon></g></g><g transform="translate(122.0 91.0) rotate(180.0)"><g clip-path="url(#i6)"><polygon points="0,0 46,0 46,40 0,40 0,0" stroke="none" fill="#9BC3D3"></polygon></g></g><g transform="translate(3.552713678800501e-15 91.0) scale(1.0 -1.0)"><g clip-path="url(#i7)"><polygon points="0,0 46,0 46,40 0,40 0,0" stroke="none" fill="#9BC3D3"></polygon></g></g></g></g></g></svg>