<?xml version="1.0" encoding="UTF-8"?><svg version="1.1" width="126px" height="120px" viewBox="0 0 126.0 120.0" xmlns="http://www.w3.org/2000/svg" xmlns:xlink="http://www.w3.org/1999/xlink"><defs><clipPath id="i0"><path d="M1440,0 L1440,2326 L0,2326 L0,0 L1440,0 Z"></path></clipPath><clipPath id="i1"><path d="M69.7546308,0.0419311464 C79.8625162,0.656961441 82.8946004,7.29674829 85.3658428,14.3436598 L85.5651134,14.9158123 C85.6642628,15.2022237 85.7627798,15.4890547 85.8610986,15.775931 L86.1558941,16.6363214 L86.5516059,17.7800496 C86.5848582,17.8750662 86.618201,17.9699908 86.6516504,18.0648095 L86.8537543,18.6323404 C86.8876943,18.7266801 86.9217731,18.8208863 86.9560067,18.914945 C90.0370316,27.3802287 90.6777159,28.9705475 90.6442313,34.8547099 C90.5849378,45.2960964 71.4081341,65.7278259 50.8905978,73.7269079 C30.3730612,81.7259902 10.8619049,86.8979694 5.2992877,80.7674854 C-3.43879072,71.1340715 14.6305104,63.5819808 13.3342758,48.1841596 C12.0380411,32.7863384 -0.244753955,29.6917616 0.00371830793,19.8223642 C0.252190595,9.9529665 10.479851,6.6303244 20.7105458,7.00959619 C24.4569974,7.14848446 26.811359,7.93723224 28.9402064,8.7870353 L29.4280067,8.98395952 L29.9109864,9.18144335 L30.6333868,9.47520084 C33.6908903,10.7028922 36.9375747,11.7223807 44.0154711,10.6954286 C57.2399621,8.77664957 57.4612568,-0.706078696 69.7546308,0.0419311464 Z"></path></clipPath><clipPath id="i2"><path d="M5.70110439,0 L8.64272616,1.19857748 C9.50036465,5.30012747 5.87281214,14.7124166 5.87281214,14.7124166 L2.62830007,14.7124166 L0,12.4692283 L5.70110439,0 Z"></path></clipPath><clipPath id="i3"><path d="M14.1808129,0.0158675773 L14.238239,0.0276810821 C15.0277346,0.213422704 15.3114879,1.19053615 14.7441315,1.77012501 C14.1877429,2.33851042 13.5341347,3.0033712 12.960508,3.57928277 L12.5480533,3.9916412 C11.9819458,4.55480979 11.561697,4.9591825 11.5126028,4.96900831 C11.3524306,5.00099905 7.24217368,4.62874015 7.00403247,4.60713302 L6.99326547,4.60615551 L8.35634622,3.66664068 L2.90289759,5.06799545 L1.96931134,4.29868747 L0.692084471,3.2457014 L0.624767344,3.19031663 L0,2.67504312 L3.21029044,1.94933754 L5.37690077,1.45912978 L8.30096135,0.798039734 C9.19687401,0.595487566 10.1106475,1.05274964 10.4853578,1.89125106 C10.5229566,1.97507869 10.5480223,2.06018211 10.5619059,2.14596097 L13.4085181,0.184004243 C13.6344799,0.0282264408 13.9120875,-0.0315817756 14.1808129,0.0158675773 Z"></path></clipPath><clipPath id="i4"><path d="M21.7469281,0.631164265 L23.3138368,1.1306028 C24.0494487,1.36482486 24.8220588,1.45983452 25.5919671,1.41037846 L31.5620401,1.02636237 C31.6478189,1.02110906 31.732247,1.02043366 31.8159996,1.02508657 C32.8623815,1.07979593 33.7366054,1.88737794 33.8520278,2.95349725 C33.8605831,3.03199653 33.8645606,3.10982038 33.8645606,3.1877193 C33.8645606,3.54066587 33.7787818,3.87717713 33.6250852,4.17473896 C33.2971295,4.81203906 32.6591539,5.27320359 31.8911967,5.3404458 L31.0394871,5.41571806 L30.5722841,5.45705439 L34.1185202,5.54967715 L37.7378923,5.64401138 L43.2571988,3.90691808 L46.6907882,1.49285524 C47.2527409,1.09765712 48.0068893,1.11604368 48.5488795,1.53810865 C49.2959434,2.11983558 49.354971,3.22274755 48.6876171,3.88139113 L48.6430639,3.92370636 L48.1580406,4.36689375 C48.320001,4.88738804 48.0826949,5.47046625 47.5662127,5.71590652 L45.723944,6.59111321 L41.8942268,10.0917537 C40.9681248,10.9381506 39.8301816,11.516668 38.6024573,11.7666477 L38.4705773,11.7921713 L29.5589576,13.4274479 C29.1290876,13.5062974 28.6925765,13.5425127 28.2558547,13.5356195 L28.0920866,13.5310129 L17.8152096,13.1149517 L8.87897447,12.8095099 L0,12.505344 L2.87257842,6.67253209 L4.55228299,3.26231613 L13.2597288,0.755371419 C15.9824532,-0.20141038 18.9618474,-0.256416295 21.7469281,0.631164265 Z"></path></clipPath><clipPath id="i5"><path d="M1.12157914,0 L20.5089733,4.90200253 L20.6671596,4.941426 C20.8078252,4.78906008 20.9559568,4.64867886 21.1119018,4.52128851 L36.0222627,6.53029979 C36.0222627,6.53029979 33.6040946,12.7613867 33.2010914,17.5731076 C33.0145995,19.8004309 32.3437533,21.9597166 31.2261516,23.8954068 L18.793171,23.8954068 C18.793171,23.8954068 18.685689,23.1889596 18.5619159,22.0401777 L16.5775551,21.930103 L0,21.0150535 L1.12157914,0 Z"></path></clipPath><clipPath id="i6"><path d="M0,0 C0,0 3.01463025,0.382832055 6.20209339,5.66332973 C9.05403409,10.3879853 9.25383418,15.8358574 9.26429691,16.9304271 L9.26413814,17.1277196 C5.54899983,16.0683164 0,0 0,0 Z"></path></clipPath><clipPath id="i7"><path d="M32.4046002,0 L34.7516069,3.09217567 L35.9469056,4.66663553 L41.6932101,12.2347955 L34.5535376,16.0106546 L34.3218194,16.1339317 L33.4553615,16.5925501 L28.0539578,22.0373917 C26.6850616,23.4168413 25.0546223,24.5109639 23.2597624,25.254374 L20.2140969,26.5154402 C19.1178762,28.8566137 17.6436809,31.0053213 15.84784,32.8740013 L13.236231,35.5915277 L7.7545287,32.7164637 L10.1255429,27.5903955 L8.17972772,29.4859455 L0,24.1911469 L5.23927772,14.6119334 C6.37339667,12.5394705 8.22178877,10.9490274 10.4410829,10.1377845 L24.2676982,5.08342233 C24.7188986,4.91869601 25.1509802,4.70280801 25.5547663,4.44164732 L28.9540641,2.23718916 L29.1919005,2.08255746 L29.301259,2.0124302 L29.862583,1.64818148 L32.4046002,0 Z"></path></clipPath><clipPath id="i8"><path d="M32.3617742,0 L44.0142154,22.410282 L9.26413814,38.1830239 C7.02190151,30.8402348 0,21.0553044 0,21.0553044 L32.3617742,0 Z"></path></clipPath><clipPath id="i9"><path d="M29.2198886,0 L33.4360746,7.46342672 L35.2300752,10.6385079 L4.82376476,26.7948506 L0,16.3772414 L5.39804454,13.2864411 L9.95335096,10.678438 L29.2198886,0 Z"></path></clipPath><clipPath id="i10"><path d="M23.8217728,0 L28.0379588,7.46335542 L26.3630356,11.4022416 C22.8056749,12.6905911 19.2550013,13.4379735 15.8775824,13.819126 C15.6888884,15.5209259 14.681644,17.1005375 13.0485008,17.9499152 C10.4459167,19.3031876 7.23910535,18.2904616 5.88583294,15.6880201 C5.59664472,15.1318608 5.41550974,14.548106 5.33485213,13.9607432 C3.35150355,13.8009814 1.55285453,13.55493 0,13.2864411 L4.55523511,10.678438 L7.0164452,9.31430532 C7.35008677,9.01014044 7.72828862,8.74384337 8.14779934,8.52570883 C8.47944545,8.35327104 8.82089852,8.21925067 9.16707422,8.12204192 L23.8217728,0 Z"></path></clipPath><clipPath id="i11"><path d="M3.85695826,0 L25.2477035,2.9413478 L32.8750575,3.99008223 L37.3515019,4.60571813 L32.4550788,16.1204056 C16.1564852,22.0239932 0,16.56969 0,16.56969 L3.85695826,0 Z"></path></clipPath><clipPath id="i12"><path d="M3.85695827,0 L25.2475609,2.94134781 L32.8749149,3.99008221 L37.3513593,4.60571812 L32.4549362,16.1204056 C16.1568418,22.0239932 0,16.5696901 0,16.5696901 L3.85695827,0 Z"></path></clipPath><clipPath id="i13"><path d="M16.9027242,4.50882258 C18.3608843,7.31298211 17.2699381,10.7682868 14.4655646,12.2263756 C11.6619042,13.6845357 8.20624304,12.5933043 6.74815424,9.78914474 C5.29006545,6.98498521 6.38122554,3.52968053 9.1854564,2.07159173 C11.9899011,0.613431631 15.4452771,1.70466305 16.9027242,4.50882258 Z M4.37830539,1.25003083 C4.96934153,2.38668266 4.52704484,3.78737201 3.39039299,4.37840815 C2.25366986,4.96944428 0.853123121,4.52714762 0.262086981,3.39042447 C-0.328949159,2.25370132 0.113347526,0.853154577 1.24999935,0.262118437 C2.3866512,-0.328989006 3.78726925,0.113378983 4.37830539,1.25003083 Z"></path></clipPath><clipPath id="i14"><path d="M22.9313227,0 L27.185607,5.8786823 L23.6218887,9.42473489 C20.6256122,12.4055635 16.4240954,13.8404573 12.230226,13.314541 C11.5358363,13.2274365 10.8360933,13.4271883 10.2923585,13.8676821 L7.30908275,16.2839749 C6.92670954,16.5934679 6.60933978,16.9755353 6.37609211,17.4081521 L4.08567658,21.6469886 C3.72701053,22.3113239 3.05097469,22.7607653 2.29616998,22.7878374 C2.26099164,22.7893348 2.22504854,22.7893348 2.1898702,22.7893348 C0.738381509,22.7715482 -0.304732605,21.3859807 0.0806995873,19.9861125 L2.51182846,13.6348169 C2.75425306,13.0010715 3.12591983,12.4246821 3.6031216,11.9420507 L5.68399662,9.83624493 L6.09160646,9.08243438 C7.39396961,6.67042426 9.53984795,4.82333221 12.1185729,3.89447117 L22.9313227,0 Z"></path></clipPath></defs><g transform="translate(-657.0 -1102.0)"><g clip-path="url(#i0)"><g transform="translate(0.0 140.0)"><g transform="translate(0.0 745.0)"><g transform="translate(429.0 217.0)"><g transform="translate(227.99999999999997 0.0)"><g transform="translate(0.0 0.11760818414319374)"><g transform="translate(48.173384298816686 -2.2737367544323206e-13) rotate(34.0)"><g clip-path="url(#i1)"><polygon points="-1.81366033e-12,9.13047415e-13 90.6454528,9.13047415e-13 90.6454528,83.4631628 -1.81366033e-12,83.4631628 -1.81366033e-12,9.13047415e-13" stroke="none" fill="#DDEDF2"></polygon></g></g><g transform="translate(0.0 71.05340596909501)"><g transform="translate(29.16085489267686 6.830413213046333)"><g clip-path="url(#i2)"><polygon points="0,0 8.77393168,0 8.77393168,14.7124166 0,14.7124166 0,0" stroke="none" fill="#9BC3D3"></polygon></g></g><g transform="translate(56.54051920894528 7.172414205159432)"><g clip-path="url(#i3)"><polygon points="0,-8.32667268e-17 15.0420789,-8.32667268e-17 15.0420789,5.06799545 0,5.06799545 0,-8.32667268e-17" stroke="none" fill="#FDFDFD"></polygon></g></g><g transform="translate(26.125799450900445 4.947012778742911)"><g clip-path="url(#i4)"><polygon points="0,0 49.1512457,0 49.1512457,13.5364465 0,13.5364465 0,0" stroke="none" fill="#FFFEFF"></polygon></g></g><g clip-path="url(#i5)"><polygon points="0,0 36.0222627,0 36.0222627,23.8954068 0,23.8954068 0,0" stroke="none" fill="#C2DEE6"></polygon></g></g></g><g transform="translate(37.69340076675735 0.0)"><g transform="translate(43.63157496485181 21.05530435512835)"><g clip-path="url(#i6)"><polygon points="0,0 9.26480565,0 9.26480565,17.1277196 0,17.1277196 0,0" stroke="none" fill="#9BC3D3"></polygon></g></g><g transform="translate(15.212833155478283 20.639358773585556)"><g clip-path="url(#i7)"><polygon points="0,0 41.6932101,0 41.6932101,35.5915277 0,35.5915277 0,0" stroke="none" fill="#FDFDFD"></polygon></g></g><g transform="translate(43.63157496485181 0.0)"><g clip-path="url(#i8)"><polygon points="0,0 44.0142154,0 44.0142154,38.1830239 0,38.1830239 0,0" stroke="none" fill="#C2DEE6"></polygon></g></g><g transform="translate(0.0 41.23129774072554)"><g transform="translate(3.361968267103766 5.613809352051142)"><g clip-path="url(#i9)"><polygon points="0,0 35.2300752,0 35.2300752,26.7948506 0,26.7948506 0,0" stroke="none" fill="#F0F7F9"></polygon></g><g transform="translate(5.398115847225201 7.130367257346393e-05)"><g clip-path="url(#i10)"><polygon points="0,0 28.0379588,0 28.0379588,18.5500049 0,18.5500049 0,0" stroke="none" fill="#9BC3D3"></polygon></g></g></g><g transform="translate(0.40486225306253587 0.7785647998731573)"><g clip-path="url(#i11)"><polygon points="0,0 37.3515019,0 37.3515019,18.8659922 0,18.8659922 0,0" stroke="none" fill="#9BC3D3"></polygon></g></g><g clip-path="url(#i12)"><polygon points="0,0 37.3513593,0 37.3513593,18.8659922 0,18.8659922 0,0" stroke="none" fill="#CEDEE7"></polygon></g><g transform="translate(6.088788533407103 3.7036492210666516)"><g clip-path="url(#i13)"><polygon points="5.55111512e-17,5.55111512e-17 17.5493779,5.55111512e-17 17.5493779,12.8729732 5.55111512e-17,12.8729732 5.55111512e-17,5.55111512e-17" stroke="none" fill="#9BC3D3"></polygon></g></g></g><g transform="translate(16.41537806119814 28.430901178630343)"><g clip-path="url(#i14)"><polygon points="1.45716772e-15,0 27.185607,0 27.185607,22.7893348 1.45716772e-15,22.7893348 1.45716772e-15,0" stroke="none" fill="#FFFEFF"></polygon></g></g></g></g></g></g></g></g></g></svg>