<?xml version="1.0" encoding="UTF-8"?><svg version="1.1" width="139px" height="107px" viewBox="0 0 139.0 107.0" xmlns="http://www.w3.org/2000/svg" xmlns:xlink="http://www.w3.org/1999/xlink"><defs><clipPath id="i0"><path d="M1440,0 L1440,1000 L0,1000 L0,0 L1440,0 Z"></path></clipPath><clipPath id="i1"><path d="M71.9158966,5.47900634 C71.9582403,5.5210527 72.0001729,5.56351131 72.041694,5.60596992 C74.0129334,7.61182955 76.8581773,8.48779578 79.6150346,7.95108611 C95.3331483,4.89076923 112.236883,9.46351912 124.410878,21.6701602 C143.863041,41.1747337 143.863041,72.8552792 124.410878,92.3600586 C104.943093,111.88009 73.3806567,111.879967 53.913283,92.3597701 C53.5478125,91.9934308 53.1893306,91.6228867 52.8378377,91.2481793 C45.7594653,83.7051001 36.3816705,78.7820048 26.2187098,76.9316345 C20.0501497,75.8085427 14.1477377,72.8566806 9.37832571,68.0758424 C-3.11383376,55.5541831 -3.12801681,35.3612034 9.34728745,22.8223135 C14.8506006,17.2911535 21.867924,14.2003323 29.0635429,13.5490257 C35.2237576,12.9912928 41.0115542,10.2966146 45.2854634,5.81331629 L45.4515492,5.64142079 C52.7424617,-1.81604052 64.5365971,-1.88982779 71.9158966,5.47900634 Z"></path></clipPath><clipPath id="i2"><path d="M10.626087,0 L10.626087,32.9411765 L0,32.9411765 L0,0 L10.626087,0 Z"></path></clipPath><clipPath id="i3"><path d="M89.2191144,0 C91.8599372,0 94,2.15269192 94,4.8089512 L94,61.8964298 C94,64.5526891 91.8599372,66.7058824 89.2191144,66.7058824 L4.78221429,66.7058824 C2.14047812,66.7058824 0,64.5526891 0,61.8964298 L0,4.8089512 C0,2.15269192 2.14047812,0 4.78221429,0 Z"></path></clipPath><clipPath id="i4"><path d="M86.6434783,0 L86.6434783,52.7058824 L0,52.7058824 L0,0 L86.6434783,0 Z"></path></clipPath><clipPath id="i5"><path d="M2.86086957,0 C4.44084749,0 5.72173913,1.29045737 5.72173913,2.88223443 C5.72173913,4.47416966 4.44084749,5.76470588 2.86086957,5.76470588 C1.28049989,5.76470588 0,4.47416966 0,2.88223443 C0,1.29045737 1.28049989,0 2.86086957,0 Z"></path></clipPath><clipPath id="i6"><path d="M35.9652174,0 L35.9652174,2.47058824 L0,2.47058824 L0,0 L35.9652174,0 Z"></path></clipPath><clipPath id="i7"><path d="M21.0219213,1.77653088 L21.1890815,2.02923057 L34.42747,27.025146 C36.0060838,29.6019946 34.1377908,32.8052859 31.0534434,32.9914857 L30.7697602,33 L4.24273462,33 C1.0866513,33 -0.9224231,29.8724319 0.426234502,27.3012916 L0.558151206,27.0691869 L13.8467883,1.98518969 C15.4203457,-0.583404925 19.2782183,-0.666262816 21.0219213,1.77653088 Z M15.6958449,4.17495069 L15.5754233,4.3504146 L3.55890884,27.3182685 C2.73161749,28.6856732 3.69245467,30.3829846 5.29652172,30.5165817 L5.50029744,30.525 L29.5108634,30.525 C31.1661865,30.525 32.2253858,28.8826697 31.5247563,27.455098 L31.4279277,27.2779044 L19.4453856,4.36878002 C18.6242678,3.01157927 16.6287753,2.94696949 15.6958449,4.17495069 Z M17.0930233,23.1 C17.892195,23.1 18.7209302,23.5770008 18.7209302,24.4565283 L18.7209302,25.1337512 C18.7209302,26.002191 17.9920915,26.4 17.0930233,26.4 C16.2938515,26.4 15.4651163,26.1005124 15.4651163,25.1337512 L15.4651163,24.4565283 C15.4651163,23.5770008 16.1939551,23.1 17.0930233,23.1 Z M17.0930233,12.375 C17.892195,12.375 18.7209302,12.9049692 18.7209302,13.6696924 L18.7209302,21.0972264 C18.7209302,21.7550851 17.9920915,22.275 17.0930233,22.275 C16.2938515,22.275 15.4651163,21.8945491 15.4651163,21.0972264 L15.4651163,13.6696924 C15.4651163,12.8871782 16.1939551,12.375 17.0930233,12.375 Z"></path></clipPath></defs><g transform="translate(-651.0 -352.0)"><g clip-path="url(#i0)"><g transform="translate(455.0 352.0)"><g transform="translate(196.0 0.0)"><g transform="translate(0.0 107.0) scale(1.0 -1.0)"><g clip-path="url(#i1)"><polygon points="1.77635684e-15,0 139,0 139,107 1.77635684e-15,107 1.77635684e-15,0" stroke="none" fill="#F1F7F9"></polygon></g></g><g transform="translate(22.0 12.0)"><g transform="translate(41.68695652173913 51.05882352941177)"><g clip-path="url(#i2)"><polygon points="0,0 10.626087,0 10.626087,32.9411765 0,32.9411765 0,0" stroke="none" fill="#9BC3D3"></polygon></g></g><g clip-path="url(#i3)"><polygon points="0,0 94,0 94,66.7058824 0,66.7058824 0,0" stroke="none" fill="#CEDEE7"></polygon></g><g transform="translate(3.2695652173913032 3.2941176470588225)"><g clip-path="url(#i4)"><polygon points="0,0 86.6434783,0 86.6434783,52.7058824 0,52.7058824 0,0" stroke="none" fill="#FFFFFF"></polygon></g></g><g transform="translate(44.1391304347826 58.47058823529412)"><g clip-path="url(#i5)"><polygon points="0,0 5.72173913,0 5.72173913,5.76470588 0,5.76470588 0,0" stroke="none" fill="#DEEDF2"></polygon></g></g><g transform="translate(28.60869565217391 81.52941176470588)"><g clip-path="url(#i6)"><polygon points="0,0 35.9652174,0 35.9652174,2.47058824 0,2.47058824 0,0" stroke="none" fill="#CEDEE7"></polygon></g></g></g><g transform="translate(52.0 26.0)"><g clip-path="url(#i7)"><polygon points="0,2.22044605e-16 35,2.22044605e-16 35,33 0,33 0,2.22044605e-16" stroke="none" fill="#9BC3D3"></polygon></g></g></g></g></g></g></svg>