<svg width="162" height="161" viewBox="0 0 162 161" fill="none" xmlns="http://www.w3.org/2000/svg">
<ellipse cx="34.6141" cy="117.972" rx="33.3797" ry="11.4587" fill="#DEEDF2"/>
<ellipse cx="76.626" cy="104.967" rx="27.8995" ry="12.9533" fill="#DEEDF2"/>
<ellipse cx="122.376" cy="120.526" rx="38.86" ry="12.9533" fill="#DEEDF2"/>
<path fill-rule="evenodd" clip-rule="evenodd" d="M139.763 36.5935C140.991 35.691 141.789 34.2364 141.789 32.597C141.789 29.8615 139.568 27.6406 136.833 27.6406C134.307 27.6406 132.22 29.5341 131.915 31.9777C131.861 32.2323 131.823 32.4897 131.796 32.7471L131.796 32.7475L131.795 32.7532L131.795 32.7552C131.787 32.8322 131.78 32.9091 131.774 32.9859L131.433 36.8105L132.21 37.0706L132.218 37.0724L132.218 37.0724C132.237 37.1391 132.248 37.1751 132.248 37.1751L132.269 37.6924L132.307 38.6594C132.321 38.9794 132.387 39.293 132.504 39.5878C132.585 39.7959 132.693 39.9952 132.824 40.1801C132.979 40.3972 133.163 40.592 133.369 40.7565C133.476 40.8428 133.59 40.9198 133.709 40.9884C133.773 41.0248 133.835 41.0582 133.901 41.0896L133.901 41.0898L133.567 47.1309C133.567 47.1309 135.331 47.6623 137.262 47.2406C138.429 46.9879 139.659 46.3845 140.597 45.1073C140.597 45.1073 139.487 40.2948 139.763 36.5935Z" fill="#FFC4B8"/>
<path fill-rule="evenodd" clip-rule="evenodd" d="M137.243 47.1693C138.41 46.9165 139.64 46.3132 140.578 45.0359C140.578 45.0359 139.377 39.8793 139.784 36.1318C139.784 36.1318 137.052 42.7921 137.243 47.1693ZM132.21 37.0922C132.482 37.172 132.749 36.9583 132.732 36.6757L132.617 34.854L132.21 37.0922Z" fill="#F4A48D"/>
<path fill-rule="evenodd" clip-rule="evenodd" d="M141.803 32.1317C141.709 30.3465 140.649 28.6665 138.891 27.8408C136.886 26.8986 134.567 27.3473 133.069 28.7954L133.066 28.7938C130.943 29.4228 131.487 30.6781 131.487 30.6781L131.996 31.3277C132.164 30.847 132.507 29.9937 133.088 29.6352C133.742 29.2316 134.296 29.5106 134.296 29.5106C133.479 30.8231 133.606 32.6016 134.846 33.7436C135.14 34.0147 135.475 34.2781 135.854 34.5249C135.975 33.8523 136.386 33.3595 136.854 33.3765C137.394 33.3961 137.806 34.0856 137.775 34.9153C137.768 35.0963 137.74 35.2691 137.696 35.4284C137.944 35.5171 138.203 35.5991 138.476 35.6735C138.925 35.7958 139.385 35.861 139.704 35.8443C139.684 35.9376 139.481 38.2558 139.739 40.5221C140.043 43.1905 140.498 44.9891 140.498 44.9891C139.816 45.863 139.223 46.3617 138.31 46.7642C139.328 47.898 140.754 48.4364 142.82 48.3319C152.559 47.8389 149.488 38.9864 145.533 37.6174C142.315 36.5036 141.864 33.5714 141.808 32.5165C141.811 32.3879 141.809 32.2596 141.803 32.1318L141.803 32.1317Z" fill="#EC0000"/>
<path fill-rule="evenodd" clip-rule="evenodd" d="M126.268 73.7197L130.098 89.5776C130.098 89.5776 131.015 93.5396 134.675 94.784C138.336 96.0253 143.659 100.225 143.659 100.225L145.656 95.8517L136.402 88.8028L134.983 73.7197H126.268Z" fill="#F4A48D"/>
<path fill-rule="evenodd" clip-rule="evenodd" d="M132.159 116.764L125.475 122.69L136.504 124.469C136.504 124.469 136.723 122.684 136.311 121.336C135.848 119.819 135.253 117.812 135.253 117.812L132.159 116.764ZM144.979 95.4468C144.979 95.4468 145.507 95.852 144.738 97.5337C143.973 99.222 142.892 99.7495 142.892 99.7495C142.892 99.7495 141.731 108.911 143.825 108.911C145.915 108.911 147.906 105.499 147.906 105.499L149.868 97.0738C149.868 97.0738 150.306 95.4468 148.472 95.4468H144.979Z" fill="black"/>
<path fill-rule="evenodd" clip-rule="evenodd" d="M134.568 73.7197L132.306 116.762L135.371 117.981L143.039 73.7197H134.568Z" fill="#FFC4B8"/>
<path fill-rule="evenodd" clip-rule="evenodd" d="M144.746 45.8495L141.56 48.161L145.292 53.6963L148.364 62.9969C148.584 63.6603 148.873 64.3005 149.228 64.9069L152.872 71.129L152.492 73.4812C152.468 73.6335 152.503 73.7893 152.592 73.9176L153.753 75.5958C153.971 75.9108 154.477 75.7928 154.524 75.4171C154.536 75.3225 154.543 75.2492 154.543 75.214C154.543 75.0415 155.021 76.0194 155.021 76.0194L156.453 75.5591V73.2194C156.453 72.803 156.277 72.4047 155.964 72.1168L155.08 71.3017L151.738 60.9455L149.124 51.2031C148.508 48.9058 146.919 46.9634 144.746 45.8495ZM132.133 43.0876C129.225 43.399 126.531 44.7076 124.541 46.775L118.434 53.1211L105.751 59.9675L103.232 60.2572L99.4939 63.2087L100.112 64.4006C100.461 65.0736 101.193 65.481 101.972 65.4363L103.188 65.3665C103.725 65.3357 104.226 65.0921 104.57 64.6936L106.616 62.3265L116.609 58.851C118.316 58.2576 119.901 57.3806 121.295 56.26L129.058 50.0141L132.133 43.0876Z" fill="#FFC4B8"/>
<path fill-rule="evenodd" clip-rule="evenodd" d="M127.944 51.3496L127.993 51.2674L127.97 51.2115C127.966 51.0388 127.963 50.864 127.963 50.6892C127.963 48.1116 128.338 45.7389 128.966 43.8495C129.973 43.4628 131.038 43.2028 132.132 43.0876L132.683 43.0278C134.29 44.4593 136.217 45.2924 138.289 45.2924C139.564 45.2924 140.786 44.9772 141.911 44.3972L144.747 45.8493C145.509 46.2404 146.198 46.7331 146.8 47.3061C146.14 48.2442 145.584 49.5439 145.184 51.0866L149.863 79.9947C145.446 82.6665 140.173 84.2178 134.51 84.2178C130.155 84.2178 126.03 83.2994 122.346 81.6585L127.944 51.3496Z" fill="#9E3667"/>
<path fill-rule="evenodd" clip-rule="evenodd" d="M26.8947 113.942L27.9615 115.754L29.8433 120.395C29.8433 120.395 30.2573 121.162 29.8433 121.579C29.4614 121.964 28.9115 121.994 28.8292 121.996L23.4805 121.996L25.1549 115.553L26.8947 113.942ZM41.8571 107.089L44.2127 108.587V112.716C44.2127 112.716 44.1491 114.507 42.8912 115.427C41.6331 116.347 40.1011 116.531 39.0977 115.899C38.0941 115.265 37.8184 114.955 37.8184 114.955L41.8571 107.089Z" fill="#34466B"/>
<path fill-rule="evenodd" clip-rule="evenodd" d="M31.1019 79.4106L38.9642 81.4012L27.828 115.753C27.828 115.753 27.1977 114.906 26.4483 115.108C25.6982 115.311 24.9336 116.025 24.9336 116.025L31.1019 79.4106ZM47.3602 76.4807L52.4511 89.6879C52.4511 89.6879 52.9826 90.5835 52.9826 92.7791C52.9826 94.9741 51.6842 95.585 51.1793 96.501C50.6744 97.4175 44.0787 109.328 44.0787 109.328C44.0787 109.328 43.3944 110.016 42.4636 109.328C41.5327 108.64 41.7229 107.088 41.7229 107.088C41.7229 107.088 42.5644 104.237 43.1363 102.745C43.7086 101.252 43.6362 98.9155 44.5161 96.9082C45.3961 94.901 46.4343 93.7863 46.4343 93.7863L40.0742 80.5865L47.3602 76.4807Z" fill="#F6C854"/>
<path fill-rule="evenodd" clip-rule="evenodd" d="M44.8197 69.8757L52.9434 90.0802C52.9434 90.0802 53.7228 93.2602 51.7455 95.9841C51.4524 96.3884 45.7841 107.454 45.273 107.454C43.6851 107.454 42.2221 107.001 41.5041 105.147C41.2626 104.523 45.5536 92.6762 45.5536 92.6762L39.6647 79.6626L29.7277 113.21C29.7277 113.21 29.319 113.725 28.53 113.944C28.1137 114.06 27.5908 114.093 26.9664 113.923C25.9064 113.636 25.3686 113.21 25.1131 112.784C24.6668 112.04 25.0816 111.298 25.0816 111.298L32.1767 69.8757H44.8197Z" fill="#137E84"/>
<path fill-rule="evenodd" clip-rule="evenodd" d="M41.2407 37.6072C40.41 36.3942 40.145 34.8089 40.6634 33.3034C41.5283 30.7916 44.2486 29.4471 46.7344 30.303C49.0297 31.0934 50.3276 33.4851 49.8322 35.8244C49.8002 36.0749 49.754 36.3234 49.6969 36.5681L49.6969 36.5685L49.6958 36.574L49.6954 36.5759C49.6782 36.6491 49.6601 36.7219 49.6411 36.7942L48.7421 40.413L47.9537 40.4087L47.9458 40.4078L47.9458 40.4078C47.9072 40.463 47.8861 40.4927 47.8861 40.4927L47.7033 40.9612L47.3629 41.8372C47.2497 42.1269 47.0897 42.3939 46.8906 42.6282C46.7509 42.7938 46.5901 42.9431 46.4121 43.0718C46.2032 43.2228 45.9741 43.344 45.735 43.4306C45.6102 43.4763 45.4823 43.5113 45.3523 43.537C45.2835 43.5507 45.2158 43.5618 45.1465 43.5702L45.1461 43.5702L43.5393 49.222C43.5393 49.222 41.7687 49.1581 40.1471 48.1667C39.1663 47.5694 38.2396 46.6305 37.791 45.1641C37.791 45.1641 40.3216 41.0925 41.2407 37.6072Z" fill="#FFC4B8"/>
<path fill-rule="evenodd" clip-rule="evenodd" d="M40.9995 48.1077C39.7147 47.6075 38.443 46.7618 37.6706 45.3444C37.6706 45.3444 40.304 40.7392 40.7421 37.1058C40.7421 37.1058 42.2793 44.013 40.9995 48.1077ZM48.0939 40.4283C47.7489 40.4457 47.4822 40.1878 47.5739 39.9254L48.1656 38.2342L48.0939 40.4283Z" fill="#F4A48D"/>
<path fill-rule="evenodd" clip-rule="evenodd" d="M41.2371 37.6975L41.0591 38.3281L41.0274 38.4168C40.5067 37.6331 40.1834 36.6964 40.1334 35.6759C39.9865 32.6763 42.2539 30.0855 45.1975 29.8895C47.3443 29.7464 49.2591 30.917 50.1942 32.7253C50.496 33.1718 51.2318 33.3933 51.962 33.5016C52.6913 33.6098 52.8112 34.6324 52.1227 34.916C51.6494 35.1111 51.0651 35.2561 50.3556 35.2822L50.3558 35.275C50.3357 35.2783 50.3155 35.2813 50.2954 35.2841C50.2018 35.2866 50.1061 35.2871 50.0083 35.2853C49.5981 35.278 49.2281 35.1999 48.8952 35.0722C47.8013 34.6058 46.8006 33.4749 46.3321 31.9956C46.2688 31.7958 45.2773 33.3832 44.729 34.301C44.4078 34.8387 43.9493 36.8579 43.7638 37.7163L43.6196 38.1303L42.9985 38.4355L43.0129 38.242L43.0031 38.2438C43.0298 38.1157 43.1625 37.1026 43.1371 36.6064C43.0892 35.6672 42.5717 34.9366 41.9822 34.9759C41.3928 35.0152 40.9532 35.8095 41.0011 36.7487C41.0157 37.0332 41.0733 37.2986 41.163 37.5293C41.1668 37.5491 41.1756 37.5709 41.1897 37.5948C41.2048 37.63 41.2205 37.6642 41.2371 37.6975Z" fill="#990000"/>
<path fill-rule="evenodd" clip-rule="evenodd" d="M55.3785 55.9722L56.4942 59.6767L63.2957 67.6229L65.4751 70.7502C65.7598 71.1589 65.753 71.7061 65.4578 72.1072L65.0898 72.6074C64.7298 73.0963 64.027 73.155 63.5928 72.7324L61.9364 71.1206C61.5826 70.7764 61.3827 70.3015 61.3827 69.8054V68.9653L57.4414 66.5072C55.5774 65.3448 54.0995 63.6461 53.1975 61.6293L52.084 59.1399L55.3785 55.9722ZM31.7229 45.9214L30.848 51.8915L20.7877 55.8109L13.5081 64.3477L14.3206 66.4751C14.551 67.0782 14.5663 67.7435 14.364 68.3568L13.8166 70.0164C13.7275 70.2864 13.4775 70.4684 13.1958 70.4684C12.7643 70.4684 12.4509 70.054 12.5645 69.6333L12.6579 69.2872L11.8609 69.8779C9.80401 70.2415 8.39406 67.1861 8.30523 66.9886L8.30078 66.9786L10.4439 64.4551L15.0366 56.7535C16.3967 54.4727 18.2521 52.5337 20.4623 51.0832L31.7229 45.9214Z" fill="#FFC4B8"/>
<path fill-rule="evenodd" clip-rule="evenodd" d="M33.2048 43.8495L37.5084 43.0862L38.535 41.7976L41.4044 44.2674L41.9357 49.4216L45.124 44.2674L48.0449 45.9975C50.1738 47.2586 51.9628 49.0303 53.2537 51.1558L57.0263 57.368L51.9253 60.6967L49.056 57.368L47.0367 70.4685L48.5895 75.6459C48.8718 76.5872 48.161 77.5322 47.1877 77.5093L30.848 77.1262L30.2459 55.3277L28.4394 53.9317L26.2076 55.2204L22.0742 50.0253L28.8414 45.5843C30.1656 44.7153 31.6498 44.1253 33.2048 43.8495Z" fill="#EC0000"/>
<path fill-rule="evenodd" clip-rule="evenodd" d="M84.6164 64.3789L82.3493 76.9421C82.3493 76.9421 81.8066 80.0809 79.6401 81.0667C77.4737 82.0501 74.323 85.3772 74.323 85.3772L73.1406 81.9126L78.6179 76.3282L79.458 64.3789H84.6164Z" fill="#F4A48D"/>
<path fill-rule="evenodd" clip-rule="evenodd" d="M81.1259 98.4797L85.0819 103.175L78.5539 104.584C78.5539 104.584 78.4244 103.17 78.6681 102.102C78.9422 100.9 79.2944 99.3103 79.2944 99.3103L81.1259 98.4797ZM73.538 81.592C73.538 81.592 73.2258 81.9131 73.6807 83.2454C74.1339 84.5829 74.7735 85.0008 74.7735 85.0008C74.7735 85.0008 75.4608 92.2589 74.2215 92.2589C72.984 92.2589 71.8055 89.5559 71.8055 89.5559L70.6442 82.881C70.6442 82.881 70.3853 81.592 71.4705 81.592H73.538Z" fill="black"/>
<path fill-rule="evenodd" clip-rule="evenodd" d="M79.7016 64.3789L81.0405 98.4786L79.2261 99.4441L74.6875 64.3789H79.7016Z" fill="#FFC4B8"/>
<path fill-rule="evenodd" clip-rule="evenodd" d="M73.9497 52.1096L71.2607 56.1525L69.047 62.9457C68.889 63.4302 68.6805 63.8978 68.4247 64.3407L65.799 68.8853L66.0726 70.6033C66.0903 70.7145 66.0646 70.8283 66.0007 70.922L65.1644 72.1478C65.0075 72.3778 64.6427 72.2916 64.6089 72.0173C64.6003 71.9482 64.595 71.8946 64.595 71.8689C64.595 71.7543 64.3106 72.3343 64.2589 72.4406L64.2509 72.4572L63.2188 72.121V70.4121C63.2188 70.1079 63.3459 69.817 63.571 69.6068L64.208 69.0114L66.6162 61.4473L68.4995 54.3315C68.9437 52.6536 70.0882 51.2348 71.6545 50.4213L73.9497 52.1096ZM80.7422 48.4041C82.8371 48.6315 84.7784 49.5873 86.2121 51.0972L90.6126 55.7324L99.7511 60.733L101.566 60.9446L104.26 63.1004L103.814 63.9709C103.563 64.4624 103.035 64.76 102.474 64.7273L101.598 64.6764C101.211 64.6539 100.85 64.476 100.602 64.1849L99.1277 62.456L91.9274 59.9175C90.6978 59.4841 89.5553 58.8435 88.5516 58.025L82.9576 53.4631L80.7422 48.4041Z" fill="#FFC4B8"/>
<path fill-rule="evenodd" clip-rule="evenodd" d="M83.7622 54.4388L83.7268 54.3788L83.7433 54.3379C83.7468 54.2118 83.7485 54.0841 83.7485 53.9564C83.7485 52.0738 83.4783 50.3408 83.026 48.9607C82.3001 48.6783 81.5329 48.4884 80.745 48.4042L80.3475 48.3606C79.1899 49.4061 77.8017 50.0146 76.3086 50.0146C75.3899 50.0146 74.5091 49.7844 73.699 49.3607L71.6553 50.4213C71.1065 50.7071 70.6095 51.0669 70.1758 51.4854C70.6518 52.1706 71.052 53.1199 71.3406 54.2467L67.9688 75.361C71.1512 77.3124 74.9511 78.4454 79.0316 78.4454C82.1692 78.4454 85.1418 77.7747 87.7961 76.5762L83.7622 54.4388Z" fill="#F6C854"/>
<path fill-rule="evenodd" clip-rule="evenodd" d="M74.5635 39.5187C75.3291 38.1368 76.6256 37.2275 78.0948 37.2275C79.4345 37.2275 80.6305 37.9835 81.4114 39.1645C81.4114 39.1645 81.5043 39.3027 81.6032 39.473C81.6899 39.6223 81.7975 39.8944 81.8075 40.1229L81.9223 41.9146C81.9248 41.9548 81.9289 41.9943 81.9344 42.0342C81.9641 42.2467 82.1216 42.933 82.1701 43.2099C82.2301 43.552 82.7195 47.7265 80.0033 48.8403C79.5074 49.0436 79.0135 49.1273 78.5354 49.1206L78.5354 49.1587C78.5354 49.2069 78.5344 49.2551 78.5336 49.3043C78.5308 49.3768 78.5298 49.4501 78.5317 49.5233C78.5491 50.0858 78.3678 50.5833 78.073 50.9637C77.1675 52.1267 75.1991 52.174 74.6406 49.5233C74.4794 48.7567 74.4272 47.9716 74.5316 47.205C74.548 47.0833 74.5684 46.962 74.593 46.8414C74.4477 46.615 74.3464 46.3995 74.2964 46.2107C74.2523 46.0443 74.2088 45.8165 74.1664 45.5465C73.6388 45.6304 73.0546 45.152 72.819 44.4158C72.5652 43.6242 72.81 42.8343 73.3659 42.6513C73.5219 42.5999 73.6858 42.6018 73.8467 42.6488L73.844 42.6189C73.7498 41.5221 74.0092 40.4376 74.5635 39.5187Z" fill="#FFC4B8"/>
<path fill-rule="evenodd" clip-rule="evenodd" d="M78.5546 49.129C78.555 49.1648 78.5552 49.201 78.5553 49.2376C78.5555 49.3069 78.5555 49.3775 78.5555 49.3531C78.5555 49.3141 78.5555 49.2756 78.5553 49.2376C78.5553 49.1914 78.5551 49.1457 78.5549 49.129L78.5546 49.129ZM74.6385 46.8512C74.6306 46.8738 74.6226 46.911 74.6133 46.9812C74.9847 48.1884 76.5778 49.3027 78.5426 49.129C76.808 49.0872 75.2866 47.8609 74.6385 46.8512ZM79.9051 45.1249L79.127 43.0449L79.1804 44.5695C79.1936 44.9457 79.5444 45.2145 79.9051 45.1249Z" fill="#F4A48D"/>
<path fill-rule="evenodd" clip-rule="evenodd" d="M82.0714 40.1367C82.1 39.8139 82.0951 39.4899 82.0575 39.1701C82.0526 39.1281 82.0474 39.086 82.041 39.0443C81.9449 38.377 81.7058 37.7321 81.3338 37.1598C81.0265 36.6869 80.6281 36.2636 80.1437 35.9182C78.0741 34.4432 75.2171 34.9478 73.762 37.0452C73.4831 37.4468 73.2762 37.8784 73.1387 38.3231C73.0781 38.5169 73.0313 38.7132 72.9969 38.9109C72.9284 39.3083 72.9116 39.7117 72.9451 40.109C72.9726 40.434 73.0336 40.7556 73.1271 41.068C73.1229 41.0912 73.1187 41.1143 73.1151 41.1373C72.8732 41.7539 72.6303 42.3118 72.4283 42.6524C70.8655 45.2873 70.9562 48.4891 74.1817 49.5787C74.1809 49.5757 74.1802 49.5727 74.1795 49.5696C74.1802 49.5727 74.181 49.5757 74.1817 49.5787C74.3532 49.6369 74.5336 49.6891 74.7231 49.7349C74.6824 49.6005 74.6459 49.4576 74.6138 49.3059C74.4527 48.5393 74.4004 47.7542 74.5049 46.9876C74.5213 46.8659 74.5417 46.7446 74.5662 46.624C74.421 46.3976 74.3196 46.1821 74.2696 45.9933C74.2527 45.9292 74.2357 45.856 74.219 45.7748C74.2101 45.7318 74.2013 45.6866 74.1925 45.6394C74.1883 45.6295 74.1846 45.62 74.1817 45.6113C74.1846 45.62 74.1883 45.6295 74.1925 45.6393C74.1884 45.6172 74.1843 45.5946 74.1802 45.5715C74.1666 45.4953 74.153 45.4143 74.1397 45.329C73.6122 45.413 73.0279 44.9346 72.7922 44.1984C72.5454 43.4283 72.7704 42.6597 73.2946 42.4501C74.0575 43.4495 79.099 37.9661 79.099 37.9661L79.2611 38.4478C79.6984 39.7862 81.2973 40.2185 81.8076 40.324L81.814 40.4233L81.8956 41.6972C81.8981 41.7374 81.9021 41.7768 81.9077 41.8168C81.9373 42.0292 82.0948 42.7156 82.1434 42.9925C82.1981 43.3047 82.6106 46.8092 80.6172 48.2656L80.5997 48.2783L80.5979 48.2796L80.5812 48.2915L80.5656 48.3024L80.5624 48.3047L80.5476 48.3149L80.54 48.3201L80.5262 48.3295L80.5181 48.3349L80.5072 48.3422L80.4948 48.3504L80.4837 48.3577L80.4719 48.3653L80.4541 48.3766L80.451 48.3786L80.4418 48.3844L80.4271 48.3935L80.4168 48.3999L80.3997 48.4103L80.3932 48.4142L80.3906 48.4158L80.3699 48.4281L80.3608 48.4334L80.3432 48.4436L80.3357 48.4479L80.3117 48.4614L80.3041 48.4657L80.2852 48.476L80.2776 48.4802L80.2525 48.4937L80.2473 48.4964L80.226 48.5075L80.2183 48.5115L80.1937 48.524L80.1656 48.538L80.1581 48.5416L80.136 48.5522L80.1307 48.5548L80.1038 48.5673L80.0971 48.5704L80.0751 48.5804L80.0683 48.5835L80.0408 48.5956L80.0359 48.5977L80.0124 48.6078L80.0048 48.6111L79.9765 48.6228L79.9451 48.6356C79.6241 48.764 79.304 48.8425 78.9886 48.879C78.8272 48.8977 78.667 48.9054 78.5087 48.9031L78.5087 48.9413C78.5087 48.9894 78.5077 49.0377 78.5068 49.0869C78.5041 49.1594 78.5031 49.2326 78.505 49.3059C78.5102 49.4743 78.4976 49.6369 78.4694 49.7922C78.6529 49.7465 78.8248 49.6924 78.9856 49.6307C79.3907 49.4748 79.7254 49.2702 79.9989 49.03C80.0182 49.138 80.0411 49.2456 80.0678 49.3526C80.1 49.4792 80.1369 49.6063 80.1793 49.7322C80.3173 50.144 80.5133 50.5443 80.7678 50.9211C82.2737 53.1517 85.2722 53.7263 87.466 52.2045C87.8534 51.9358 88.1898 51.6197 88.4726 51.2682C89.7919 49.634 89.9514 47.2475 88.7115 45.4108C87.8837 44.1847 86.6046 43.4592 85.2563 43.3077C85.2524 43.3073 85.2485 43.3068 85.2445 43.3064C84.6032 43.2355 84.0651 42.8041 83.8455 42.1894C83.7412 41.8981 83.5995 41.615 83.4189 41.3473C83.062 40.8187 82.5954 40.4118 82.0714 40.1367Z" fill="#1BB3BC"/>
</svg>
