<svg width="182" height="162" viewBox="0 0 182 162" fill="none" xmlns="http://www.w3.org/2000/svg">
<g clip-path="url(#clip0_36_17378)">
<path fill-rule="evenodd" clip-rule="evenodd" d="M130.248 122.918L113.154 152H17.3126C4.00529 152 -4.31179 137.849 2.34164 126.529L25.7802 86.6498C36.6266 68.1904 58.706 59.1413 79.6945 64.5544L108.629 72.0161C131.16 77.8227 141.896 103.097 130.248 122.918Z" fill="#9E3667"/>
<path fill-rule="evenodd" clip-rule="evenodd" d="M90.8465 99.1447C92.5459 98.7534 94.3327 99.1658 95.6816 100.261L104.504 107.423C105.662 108.363 105.772 110.077 104.744 111.155C103.81 112.134 102.269 112.229 101.219 111.373L94.9665 106.273L105.37 117.904C106.276 118.917 106.196 120.461 105.189 121.377C104.208 122.27 102.693 122.249 101.738 121.33L97.172 116.935L96.6496 117.492L100.156 124.199C100.594 125.039 100.437 126.054 99.7835 126.725L99.6551 126.846C98.6976 127.684 97.2246 127.547 96.4407 126.549C95.785 125.714 94.9672 124.674 94.1191 123.601L93.7542 123.14C93.3861 122.675 93.0159 122.208 92.6541 121.753L91.446 123.041L92.2051 126.837C92.3547 127.585 92.0225 128.341 91.3812 128.747L91.2489 128.823C90.5356 129.197 89.6602 129.073 89.0804 128.518L87.6204 127.119L87.4183 127.336L84.4957 129.541C83.5233 130.276 82.5165 130.964 81.4808 131.604C80.2075 132.391 78.888 133.106 77.5303 133.743L69.0463 137.729C54.9546 144.1 39.3151 146.351 23.9726 144.217L13 142.693C13.9248 127.055 25.8897 126.562 25.8897 126.562L28.844 126.885C40.0131 128.114 51.3168 127.176 62.123 124.128L67.9762 122.475L73.8367 109.941C75.1783 107.071 77.5452 104.794 80.4823 103.546L90.8465 99.1447Z" fill="#F4A48D"/>
<path fill-rule="evenodd" clip-rule="evenodd" d="M163.641 157C163.464 157 163.289 156.997 163.114 156.99L153 156.583L158.993 148L173 150.702L171.585 154.494L170.207 155.265C168.171 156.407 165.92 157 163.641 157Z" fill="#A66555"/>
<path fill-rule="evenodd" clip-rule="evenodd" d="M157.874 157.481L181.606 114.559C182.726 112.533 181.326 110 179.085 110H126.647C125.607 110 124.646 110.579 124.126 111.52L100.394 154.442C99.274 156.467 100.674 159 102.915 159H155.354C156.394 159 157.355 158.421 157.874 157.481Z" fill="#C3DEE7"/>
<path fill-rule="evenodd" clip-rule="evenodd" d="M156.733 146.44V146.108L155.105 146.134C153.5 146.16 152.153 144.886 152.035 143.229L152.008 142.857C151.897 141.307 152.9 139.906 154.363 139.565L154.344 138.113C154.315 135.847 155.928 133.915 158.099 133.621L165.239 132.651L165.122 132.217C164.449 129.729 165.816 127.14 168.201 126.385L175.397 124.108C176.499 123.759 177.682 124.279 178.205 125.341L178.74 126.423C179.333 127.627 178.878 129.101 177.72 129.724L175.182 131.089L175.76 132.246C176.731 134.19 176.781 136.489 175.895 138.477L175.541 139.267C176.625 140.916 176.746 143.047 175.857 144.816L175.469 145.587L175.285 148.225C175.135 150.379 173.788 152.244 171.836 153L158.064 148.343C157.27 148.074 156.733 147.307 156.733 146.44Z" fill="#F4A48D"/>
<path fill-rule="evenodd" clip-rule="evenodd" d="M85.9827 39.137C84.4855 36.3023 83.5249 33.1298 83.2445 29.7395C83.0065 26.863 83.2774 24.0518 83.9838 21.4097C85.5277 15.6211 89.1596 10.6042 94.0892 7.27108C97.5448 4.93107 101.638 3.41839 106.101 3.04644C119.852 1.89682 131.907 11.9849 133.03 25.5795C133.116 26.5972 132.347 33.119 132.233 34.0836L131.955 36.4095L131.205 57.383L128.073 56.622C127.951 56.8384 127.825 57.0531 127.694 57.266C126.79 58.7545 125.673 60.1208 124.372 61.3221L121.929 63.5961L120.388 65.0251L120.24 65.1597L120.164 65.2325C118.497 66.7806 116.513 68.4722 114.374 70.0182C111.678 71.9664 108.399 72.4252 105.481 71.6129C105.042 72.482 104.604 73.4455 104.21 74.4762C103.669 75.8861 103.327 77.3619 103.125 78.855C103.125 78.855 102.643 81.0694 102.566 81.0978C99.4305 86.287 93.2802 89.2868 86.9268 88.1666C79.4505 86.8483 74.2586 80.2773 74.5319 72.9749C74.5003 72.9508 74.4845 72.9312 74.4887 72.9173C76.5509 66.5615 75.4828 70.1307 78.9998 62.9851C80.4951 59.9424 82.5402 57.8643 85.2264 49.0386C85.6911 47.5059 86.7358 42.5364 87.0039 41.5604C87.0181 41.5088 87.034 41.4392 87.0512 41.3535L85.9827 39.137Z" fill="#F4A48D"/>
<path fill-rule="evenodd" clip-rule="evenodd" d="M93.9469 54.7033L99.5912 66.0735C100.961 68.7513 103.362 70.5484 106.063 71.2971C106.068 71.3006 106.071 71.3015 106.072 71.2996C105.044 73.3001 104.535 74.8678 104.535 74.8678C99.8565 71.9072 97.2875 67.1729 93.9469 54.7033ZM128.195 56.4263L125.512 55.7741C124.772 54.8918 124.458 53.6845 124.804 52.4818L127.413 43.3627L128.195 56.4263Z" fill="#A66555"/>
<path fill-rule="evenodd" clip-rule="evenodd" d="M89.3798 30.2127C87.5786 30.8937 86.5179 33.906 86.9736 37.3074C87.0362 37.7743 87.1243 38.2264 87.2348 38.6592C86.2485 39.3236 84.7136 40.9968 84.7136 40.9968L84.7153 41C82.9565 37.9778 81.7487 34.5573 81.2505 30.8608C80.8264 27.7144 80.9502 24.6129 81.5507 21.6708C82.8597 15.2263 86.4454 9.51087 91.5163 5.57159C95.0715 2.80722 99.3571 0.915935 104.106 0.254898C112.851 -0.962981 121.184 2.26281 126.901 8.23108L134.976 8.40451C136.598 8.43954 137.372 10.4467 136.207 11.5931L137.033 12.2913C138.822 13.8029 139.471 16.303 138.646 18.5153L133.822 31.1945C133.767 30.6998 133.674 30.2127 133.546 29.7374C133.301 28.8303 132.926 27.9659 132.434 27.1721L132.433 27.1712L132.378 27.0838L132.323 26.9977L132.322 26.9957L132.266 26.9109L132.264 26.9081L132.207 26.8237L132.151 26.7417L132.146 26.7354L132.089 26.6544L132.087 26.6512L132.027 26.569L131.969 26.4899L131.962 26.481L131.903 26.403L131.902 26.4011L131.842 26.3243L131.838 26.3182L131.778 26.2432L131.77 26.2329L131.709 26.1576L131.648 26.0834L131.64 26.0736L131.579 26.0019L131.57 25.9915L131.507 25.9189L131.444 25.8474L131.434 25.8356L131.371 25.7666L131.362 25.757L131.301 25.6907L131.296 25.6851L131.232 25.6172L131.22 25.6045L131.155 25.5376L131.148 25.5301L131.086 25.4672L131.076 25.4579L131.011 25.3931L130.998 25.3803L130.931 25.3152L130.927 25.3112L130.861 25.2492L130.849 25.2379L130.782 25.1756L130.769 25.1636L130.699 25.1008L130.698 25.0999L130.628 25.0374L130.614 25.0252L130.545 24.9651L130.532 24.9546L130.465 24.8977L130.458 24.8918L130.386 24.8324L130.371 24.82L130.299 24.7619L130.289 24.7536L130.221 24.6998L130.21 24.6912L130.137 24.6346L130.121 24.6227L130.047 24.5664L130.04 24.5613L129.968 24.5085L129.954 24.4985L129.88 24.4445L129.864 24.4336L129.786 24.3786L129.644 24.2807L129.623 24.2662L129.488 24.1738L129.462 24.1565L129.326 24.0649L129.305 24.0513L129.164 23.9575L129.161 23.9558L129.018 23.8624L128.996 23.8481L128.859 23.7598L128.833 23.7431L128.694 23.6553L128.674 23.6428L128.532 23.554L128.527 23.5508L128.383 23.462L128.36 23.4479L128.221 23.3635L128.194 23.3477L128.054 23.2637L128.035 23.2523L127.892 23.1682L127.884 23.1639L127.739 23.0794L127.715 23.0658L127.574 22.9852L127.548 22.9703L127.405 22.89L127.387 22.8798L127.242 22.8L127.233 22.7949L127.086 22.7148L127.062 22.7016L126.919 22.625L126.893 22.6111L126.748 22.5343L126.731 22.5255L126.585 22.4498L126.574 22.4441L126.426 22.3683L126.401 22.3557L126.256 22.2829L126.23 22.27L126.083 22.197L126.067 22.1894L125.92 22.1176L125.907 22.1116L125.758 22.0399L125.732 22.0279L125.586 21.9591L125.56 21.9472L125.41 21.8777L125.397 21.8714L125.247 21.8034L125.234 21.7973L125.082 21.7297L125.057 21.7185L124.908 21.6534L124.884 21.6427L124.731 21.5767L124.72 21.572L124.567 21.5073L124.553 21.5014L124.4 21.4378L124.375 21.4275L124.224 21.366L124.2 21.3565L124.044 21.2942L124.036 21.2909L123.88 21.2295L123.866 21.2239L123.711 21.1642L123.686 21.1549L123.533 21.0971L123.511 21.0889L123.352 21.03L123.347 21.0283L123.187 20.97L123.172 20.9649L123.015 20.909L122.992 20.9009L122.836 20.8466L122.816 20.8398L122.653 20.7843L122.487 20.729L122.474 20.7245L122.314 20.6724L122.292 20.6655L122.133 20.6147L122.116 20.6093L121.95 20.5577L121.782 20.5063L121.769 20.5027L121.607 20.4543L121.587 20.4486L121.425 20.4014L121.411 20.3975L121.242 20.3497L121.071 20.3024L121.06 20.2997L120.894 20.255L120.878 20.2505L120.711 20.2068L120.701 20.2044L120.529 20.1604L120.355 20.1172L120.347 20.1153L120.177 20.0743L120.164 20.0712L119.993 20.0311L119.988 20.03L119.811 19.9898L119.634 19.9508L119.63 19.9498L119.455 19.9126L119.446 19.9107C119.267 19.8731 119.088 19.8373 118.909 19.8032C118.345 26.2233 113.401 31.4993 106.959 32.1785C99.3506 32.9806 92.8404 31.4902 92.5982 31.4338L92.5756 31.4071L92.56 31.3889L92.5388 31.3644L92.5217 31.3449L92.5017 31.3223L92.4832 31.3015L92.4643 31.2806L92.4444 31.2587L92.4266 31.2394L92.4055 31.2166L92.3887 31.1989L92.3664 31.1753L92.3504 31.1589L92.327 31.1345L92.312 31.1194L92.2874 31.0945L92.2732 31.0806L92.2477 31.0553L92.2342 31.0422L92.2077 31.0166L92.1949 31.0046L92.1675 30.9787L92.1554 30.9675L92.1272 30.9414L92.1156 30.931L92.0866 30.9049L92.0756 30.8951L92.0459 30.8691L92.0353 30.8599L92.005 30.834L91.9948 30.8254L91.964 30.7996L91.954 30.7915L91.9227 30.7659L91.9131 30.7583L91.8814 30.7331L91.8718 30.7257L91.8398 30.7008L91.8305 30.6938L91.7981 30.6694L91.7889 30.6627L91.7562 30.6387L91.747 30.6321L91.7142 30.6087L91.705 30.6024L91.672 30.5795L91.6627 30.5733L91.6296 30.5511L91.6203 30.545L91.5871 30.5234L91.5777 30.5174L91.5445 30.4965L91.5349 30.4906L91.5018 30.4704L91.4919 30.4646L91.4589 30.445L91.4488 30.4392L91.4159 30.4204L91.4055 30.4147L91.3727 30.3967L91.3621 30.3909L91.3295 30.3736L91.3185 30.368L91.2862 30.3515L91.2748 30.3457L91.2426 30.3301L91.2308 30.3244L91.1991 30.3094L91.1868 30.3039L91.1553 30.2896L91.1426 30.2841L91.1116 30.2707L91.0984 30.2652L91.0677 30.2525L91.054 30.2471L91.0237 30.2352L91.0095 30.2299L90.9795 30.2187L90.9649 30.2135L90.9354 30.2031L90.9202 30.1979L90.8912 30.1882L90.8755 30.1833L90.8468 30.1742L90.8306 30.1695L90.8025 30.1612L90.7857 30.1565L90.7579 30.1488L90.7407 30.1445L90.7133 30.1375L90.6956 30.1333L90.6687 30.1269L90.6504 30.123L90.624 30.1172L90.6052 30.1135L90.5793 30.1084L90.56 30.1049L90.5344 30.1005L90.5147 30.0974L90.4896 30.0935L90.4693 30.0907L90.4447 30.0873L90.424 30.0848L90.3998 30.082L90.3786 30.08L90.3548 30.0777L90.3331 30.076L90.3098 30.0742L90.2876 30.0729L90.2646 30.0716L90.2421 30.0708L90.2196 30.07L90.1965 30.0696L90.1744 30.0692L90.1509 30.0694L90.1294 30.0694L90.1052 30.07L90.0842 30.0705L90.0594 30.0716L90.039 30.0726L90.0134 30.0743L89.9938 30.0756L89.9668 30.0779L89.9486 30.0795L89.9185 30.0828L89.9033 30.0844L89.8582 30.0902L89.8148 30.0967L89.8037 30.0986L89.7636 30.1055L89.7604 30.106L89.7177 30.1144L89.7067 30.1168L89.6693 30.125L89.6636 30.1263L89.622 30.1364L89.6109 30.1393L89.576 30.1486L89.568 30.1508L89.5275 30.1626L89.5161 30.1661L89.4838 30.1763L89.4734 30.1796L89.4345 30.1928L89.4219 30.1973L89.3929 30.2078L89.3798 30.2127Z" fill="#CC0000"/>
<path fill-rule="evenodd" clip-rule="evenodd" d="M93 94C93 94 86.1169 64.9259 77.9184 61L70 65.3464L73.2235 86.7521L93 94Z" fill="#9E3667"/>
</g>
<defs>
<clipPath id="clip0_36_17378">
<rect width="182" height="162" fill="white"/>
</clipPath>
</defs>
</svg>
