<svg width="496" height="376" viewBox="0 0 496 376" fill="none" xmlns="http://www.w3.org/2000/svg">
<g clip-path="url(#clip0_60_20558)">
<path fill-rule="evenodd" clip-rule="evenodd" d="M126.259 234.811C125.553 234.069 124.859 233.318 124.18 232.559C110.491 217.278 92.3561 207.304 72.7027 203.556C60.7737 201.281 49.3594 195.301 40.1361 185.615C15.9784 160.248 15.9509 119.34 40.0761 93.9384C50.7186 82.7331 64.289 76.4715 78.2041 75.1521C90.1169 74.0222 101.31 68.5632 109.575 59.4807C109.681 59.3637 109.788 59.2477 109.896 59.1324C123.995 44.0247 146.803 43.8752 161.073 58.8034C161.155 58.8886 161.236 58.9746 161.317 59.0606C165.129 63.1242 170.631 64.8988 175.962 63.8115C206.359 57.6117 239.048 66.8754 262.59 91.6043C300.207 131.118 300.207 195.298 262.59 234.812C224.943 274.356 163.906 274.356 126.259 234.811Z" fill="#DEEDF2"/>
<path fill-rule="evenodd" clip-rule="evenodd" d="M352.396 237.404C351.238 237.197 350.086 236.973 348.94 236.733C325.873 231.889 302.493 234.99 282.091 244.894C269.708 250.906 255.2 253.134 240.085 250.436C200.494 243.372 171.872 205.479 175.941 165.516C177.737 147.888 185.637 132.847 197.305 122.153C207.293 112.997 213.603 100.319 214.731 86.2756C214.746 86.0947 214.762 85.9141 214.779 85.7342C216.974 62.1359 237.505 46.4721 260.852 50.5928C260.985 50.616 261.119 50.6406 261.251 50.6656C267.541 51.8367 273.76 49.7359 277.823 45.0992C300.99 18.6631 337.041 4.99683 375.629 11.8887C437.286 22.9014 482.152 82.3796 475.741 144.605C469.324 206.879 414.101 248.426 352.396 237.404Z" fill="#C3DEE7"/>
<path fill-rule="evenodd" clip-rule="evenodd" d="M329.976 120.791C280.806 114.903 229.042 141.507 202.799 161.7C187.076 173.797 182.758 196.006 166.311 202.017C133.281 214.088 55.7227 217.661 54.1891 235.448C51.17 270.464 77.3363 289.177 137.687 305.369C136.384 307.766 145.037 351.583 193.693 361.475C212.945 365.39 245.238 361.49 257.622 352.934C276.658 339.784 296.431 332.715 316.349 331.706C387.193 328.118 442.746 310.126 443.397 282.924C443.615 273.833 439.525 261.229 433.118 253.9C429.125 249.333 434.987 245.484 436.348 244.387C453.066 230.93 462.444 215.905 462.786 203.975C463.857 166.541 402.15 129.435 329.976 120.791Z" fill="#9BC3D3"/>
<path fill-rule="evenodd" clip-rule="evenodd" d="M355.055 329.218L357.534 340.479H352.91L348.135 329.218H355.055Z" fill="#34466B"/>
<path fill-rule="evenodd" clip-rule="evenodd" d="M99.668 329.218L97.1895 340.479H101.813L106.588 329.218H99.668Z" fill="#34466B"/>
<path fill-rule="evenodd" clip-rule="evenodd" d="M92.4902 330.157H361.293V317.019H94.9826L92.4902 330.157Z" fill="#34466B"/>
<path fill-rule="evenodd" clip-rule="evenodd" d="M80.1725 318.896L70.873 361.123H79.2645L97.1894 318.896H80.1725Z" fill="#34466B"/>
<path fill-rule="evenodd" clip-rule="evenodd" d="M373.611 318.896L382.91 361.123H374.519L356.594 318.896H373.611Z" fill="#34466B"/>
<path fill-rule="evenodd" clip-rule="evenodd" d="M66.1738 310.451C67.1019 313.915 70.3347 319.834 76.8032 319.834H376.844C384.383 319.834 388.549 314.18 388.549 310.451H66.1738Z" fill="#9BC3D3"/>
<path fill-rule="evenodd" clip-rule="evenodd" d="M66.1738 309.512H388.549L375.816 292.786L80.4596 290.745L66.1738 309.512Z" fill="#C3DEE7"/>
<path fill-rule="evenodd" clip-rule="evenodd" d="M393.967 205.053C396.256 183.129 380.567 168.755 357.589 168.755H104.198C74.134 168.755 63.5457 186.493 61.8363 205.053C60.1295 223.611 54.4359 244.591 93.5342 250.298C132.63 256.006 351.562 257.324 371.585 250.298C391.612 243.273 392.367 220.4 393.967 205.053Z" fill="#DEEDF2"/>
<path fill-rule="evenodd" clip-rule="evenodd" d="M77.1289 214.583C78.3788 192.669 84.9737 180.016 102.999 180.016H352.716C367.665 180.016 384.371 188.939 379.096 214.583C373.82 240.227 373.929 242.844 356.947 246.773C339.966 250.698 108.044 246.773 97.309 246.773C86.5745 246.773 78.5152 243.28 77.1289 236.299C75.7425 229.317 77.1289 214.583 77.1289 214.583Z" fill="#9BC3D3"/>
<path fill-rule="evenodd" clip-rule="evenodd" d="M40.7886 216.271C41.8792 209.445 46.7133 206.503 55.4526 205.037C61.4889 204.023 73.8768 203.914 78.7667 207.284C83.6538 210.654 85.9104 231.249 89.6706 245.853C85.5338 253.342 81.7737 288.917 81.7737 288.917L66.3593 309.512C66.3593 309.512 34.0214 271.693 40.7886 216.271Z" fill="#9BC3D3"/>
<path fill-rule="evenodd" clip-rule="evenodd" d="M413.935 216.271C412.844 209.445 408.01 206.503 399.271 205.037C393.234 204.023 380.846 203.914 375.957 207.284C371.07 210.654 368.813 231.249 365.053 245.853C369.189 253.342 372.95 288.917 372.95 288.917L388.364 309.512C388.364 309.512 420.702 271.693 413.935 216.271Z" fill="#9BC3D3"/>
<path fill-rule="evenodd" clip-rule="evenodd" d="M56.6577 204.413C56.162 204.474 55.6883 204.543 55.256 204.615C46.6257 206.077 41.8534 209.005 40.7767 215.793C34.096 270.94 66.0205 308.574 66.0205 308.574L76.5124 294.441C65.7286 281.895 52.2929 235.449 56.6577 204.413Z" fill="#C3DEE7"/>
<path fill-rule="evenodd" clip-rule="evenodd" d="M413.947 216.498C412.884 209.772 408.198 206.832 399.764 205.352C402.336 233.103 389.12 282.477 378.211 295.343L388.707 309.512C388.707 309.512 420.626 271.785 413.947 216.498Z" fill="#C3DEE7"/>
<path fill-rule="evenodd" clip-rule="evenodd" d="M56.9062 213.591C61.3859 213.143 74.3345 209.83 80.272 208.272C79.916 207.819 79.5459 207.424 79.1563 207.171C74.2448 203.932 61.7952 204.039 55.7288 205.013C48.227 206.216 43.6127 208.475 41.7373 213.183C46.4525 213.922 53.7552 213.908 56.9062 213.591Z" fill="#DEEDF2"/>
<path fill-rule="evenodd" clip-rule="evenodd" d="M412.986 213.183C411.111 208.475 406.497 206.215 398.995 205.012C392.928 204.038 380.479 203.934 375.565 207.17C375.178 207.426 374.808 207.821 374.452 208.272C380.389 209.832 393.338 213.143 397.817 213.591C400.968 213.908 408.268 213.922 412.986 213.183Z" fill="#DEEDF2"/>
<path fill-rule="evenodd" clip-rule="evenodd" d="M77.2626 252.487C74.3828 255.106 72.3422 256.399 71.1825 261.043C70.02 265.69 72.3422 279.624 74.6672 286.207C76.9922 292.785 81.6394 293.56 88.224 293.56H372.911C379.496 293.56 382.208 285.433 382.593 277.69C382.983 269.947 383.142 261.592 382.3 258.051C381.464 254.51 378.76 251.436 376.242 249.943C373.725 248.453 349.199 240.072 334.083 240.072H102.929C97.747 240.072 90.2284 241.624 77.2626 252.487Z" fill="#DEEDF2"/>
<path fill-rule="evenodd" clip-rule="evenodd" d="M71.3358 260.716C71.2857 260.894 71.2271 261.043 71.1825 261.232C70.02 265.852 72.3422 279.704 74.6673 286.247C76.9923 292.79 81.6396 293.56 88.2244 293.56H372.918C379.503 293.56 382.212 285.477 382.6 277.782C382.918 271.511 383.071 264.88 382.667 260.716H71.3358Z" fill="#C3DEE7"/>
<path fill-rule="evenodd" clip-rule="evenodd" d="M82.7178 183.345C78.6676 181.204 80.1113 177.328 83.6775 179.743C93.9113 175.737 119.634 183.581 130.115 183.345C140.597 183.106 145.12 179.743 147.74 179.743C150.121 175.737 154.171 176.703 150.121 180.973C150.36 190.952 148.455 206.168 147.74 213.062C147.025 219.956 155.837 232.317 157.267 237.548C162.032 240.339 162.269 243.318 158.458 241.827C150.121 245.156 110.824 240.722 104.868 242.227C98.9128 243.732 92.8598 243.532 92.8598 243.532C92.8598 243.532 85.06 247.28 89.3688 241.702C88.0837 235.668 89.6247 220.256 88.4342 214.164C87.2436 208.07 82.7178 191.666 82.7178 183.345Z" fill="#DEEDF2"/>
<path fill-rule="evenodd" clip-rule="evenodd" d="M157.268 237.558C156.862 236.075 155.852 234.003 154.642 231.658C149.448 242.255 127.244 231.849 113.223 234.267C97.0834 237.053 98.6356 223.439 97.7037 211.619C96.9192 201.654 88.8714 185.533 83.1631 179.528C79.9835 177.814 78.868 181.399 82.7152 183.429C82.7152 191.739 87.2413 208.12 88.4319 214.206C89.6225 220.289 88.0814 235.681 89.3638 241.706C85.0575 247.276 92.8578 243.533 92.8578 243.533C92.8578 243.533 98.911 243.733 104.867 242.23C110.823 240.727 150.124 245.155 158.459 241.834C162.27 243.32 162.031 240.345 157.268 237.558Z" fill="#C3DEE7"/>
<path fill-rule="evenodd" clip-rule="evenodd" d="M372.006 183.345C376.056 181.204 374.612 177.328 371.046 179.743C360.812 175.737 335.09 183.581 324.609 183.345C314.127 183.106 309.601 179.743 306.984 179.743C304.603 175.737 300.552 176.703 304.603 180.973C304.363 190.952 306.269 206.168 306.984 213.062C307.699 219.956 298.883 232.317 297.457 237.548C292.692 240.339 292.455 243.318 296.263 241.827C304.603 245.156 343.9 240.722 349.855 242.227C355.811 243.732 361.864 243.532 361.864 243.532C361.864 243.532 369.664 247.28 365.355 241.702C366.64 235.668 365.099 220.256 366.289 214.164C367.48 208.07 372.006 191.666 372.006 183.345Z" fill="#DEEDF2"/>
<path fill-rule="evenodd" clip-rule="evenodd" d="M297.456 237.558C297.862 236.075 298.872 234.003 300.082 231.658C305.276 242.255 327.48 231.849 341.5 234.267C357.64 237.053 356.088 223.439 357.02 211.619C357.804 201.654 365.852 185.533 371.56 179.528C374.74 177.814 375.855 181.399 372.008 183.429C372.008 191.739 367.482 208.12 366.292 214.206C365.101 220.289 366.642 235.681 365.357 241.706C369.666 247.276 361.866 243.533 361.866 243.533C361.866 243.533 355.812 243.733 349.857 242.23C343.901 240.727 304.6 245.155 296.266 241.834C292.455 243.32 292.691 240.345 297.456 237.558Z" fill="#C3DEE7"/>
<path fill-rule="evenodd" clip-rule="evenodd" d="M263.711 122.664C268.17 119.365 271.066 114.046 271.066 108.052C271.066 98.0509 263.004 89.9309 253.073 89.9309C243.904 89.9309 236.328 96.8536 235.22 105.788C235.026 106.719 234.886 107.66 234.789 108.601L234.789 108.602L234.785 108.623L234.785 108.63C234.756 108.912 234.731 109.193 234.71 109.474L233.471 123.457L236.291 124.408L236.321 124.415C236.391 124.659 236.43 124.79 236.43 124.79L236.507 126.682L236.645 130.217C236.693 131.387 236.936 132.534 237.359 133.612C237.654 134.372 238.045 135.101 238.522 135.777C239.083 136.571 239.752 137.283 240.499 137.884C240.889 138.2 241.303 138.482 241.735 138.732C241.964 138.866 242.192 138.988 242.429 139.103L242.431 139.103L241.219 161.19C241.219 161.19 247.621 163.133 254.632 161.592C258.869 160.668 263.333 158.462 266.739 153.792C266.739 153.792 262.708 136.197 263.711 122.664Z" fill="#FFC4B8"/>
<path fill-rule="evenodd" clip-rule="evenodd" d="M254.38 161.248C258.575 160.324 262.995 158.117 266.366 153.445C266.366 153.445 262.05 134.585 263.513 120.879C263.513 120.879 253.694 145.238 254.38 161.248ZM236.291 124.392C237.268 124.684 238.231 123.902 238.167 122.868L237.756 116.206L236.291 124.392Z" fill="#F4A48D"/>
<path fill-rule="evenodd" clip-rule="evenodd" d="M258.727 91.343C250.906 91.0666 251.867 84.3007 251.867 84.3007C243.497 84.5771 239.93 87.7529 239.93 87.7529C233.206 93.137 235.872 103.939 235.872 103.939C236.898 95.7877 249.293 99.2629 254.145 100.081C256.128 102.04 255.363 106.821 256.368 110.85C256.386 110.923 258.542 116.377 258.542 116.377L258.545 116.384L258.666 116.951C258.702 116.858 258.739 116.765 258.778 116.672C260.082 113.562 262.739 111.722 264.711 112.559C266.683 113.397 267.224 116.596 265.92 119.707C265.465 120.79 264.318 121.719 263.621 122.435C263.08 127.002 263.182 131.244 263.563 134.885L265.586 134.973L272.86 100.18C273.4 95.5221 271.339 93.3963 268.04 92.3777C265.471 91.5842 262.153 91.4639 258.727 91.343Z" fill="#34466B"/>
<path fill-rule="evenodd" clip-rule="evenodd" d="M246.648 144.552L240.467 148.387L240.187 151.113L239.149 151.113C227.122 151.113 216.009 157.565 209.995 168.04L197.524 189.76C190.137 202.627 192.051 218.848 202.227 229.619C205.566 233.154 210.148 235.235 214.993 235.416L221.269 235.652L267.327 243.099C267.327 243.099 283.991 246.945 288.57 242.946C298.175 234.557 300.042 227.081 300.042 227.081C300.042 227.081 330.263 173.791 296.264 158.848C294.193 157.938 292.184 156.886 290.325 155.595C286.293 152.796 281.359 151.113 275.846 151.113L270.464 151.113C270.266 147.869 269.339 145.188 266.983 144.751C262.223 143.869 254.637 143.538 250.857 143.422C249.374 143.377 247.91 143.769 246.648 144.552Z" fill="#EC0000"/>
<path fill-rule="evenodd" clip-rule="evenodd" d="M216.638 209.59C216.638 209.59 204.187 210.105 207.818 224.343C211.45 238.581 224.593 230.004 224.593 230.004L239.119 220.226L249.463 219.345L250.112 219.629C252.382 220.625 255.024 220.258 256.93 218.682L262.098 218.268C265.043 218.017 267.306 215.571 267.306 212.638V203.243L264.907 200.768C263.677 199.5 261.981 198.783 260.207 198.783H257.405C254.814 198.783 252.283 199.556 250.14 201.002L238.427 208.904L216.638 209.59Z" fill="#F4A48D"/>
<path fill-rule="evenodd" clip-rule="evenodd" d="M311.389 331.095L323.698 357.873L315.492 359.247L293.826 338.305L292.105 331.095H311.389ZM222.963 340.125L226.775 359.247L180.838 351.25L198.709 344.992L199.402 342.211L222.963 340.125Z" fill="#34466B"/>
<path fill-rule="evenodd" clip-rule="evenodd" d="M191.191 255.237C190.789 271.965 198.722 343.481 198.722 343.481L224.204 345.171C224.204 345.171 217.879 286.996 218.453 268.488C218.795 257.44 250.056 258.137 250.056 258.137L290.136 256.676L292.22 331.033H311.671C311.671 331.033 318.43 257.078 319.87 239.521C320.157 236.025 319.553 232.386 318.027 229.16L317.105 227.193C315.446 223.678 312.849 220.798 309.692 218.797C306.539 216.796 302.823 215.674 298.937 215.674C294.793 215.674 290.749 216.956 287.361 219.346L268.226 232.842L241.833 235.133L207.202 236.77C204.267 236.91 201.47 237.808 199.057 239.317C196.641 240.828 194.606 242.943 193.195 245.525C191.57 248.491 191.271 251.933 191.191 255.237Z" fill="#34466B"/>
<path fill-rule="evenodd" clip-rule="evenodd" d="M263.604 233.829L263.72 237.533L234.734 238.128L234.619 234.423C244.281 234.225 253.943 234.027 263.604 233.829Z" fill="#DEEDF2"/>
<path fill-rule="evenodd" clip-rule="evenodd" d="M241.408 238.548L184.308 243.648C183.223 243.744 182.217 243.063 181.896 242.012L169.867 202.63C169.435 201.217 170.403 199.762 171.863 199.632L228.961 194.533C230.046 194.436 231.051 195.118 231.372 196.169L243.405 235.549C243.837 236.963 242.869 238.418 241.408 238.548Z" fill="white"/>
<path fill-rule="evenodd" clip-rule="evenodd" d="M229.494 196.171L241.525 235.551C241.956 236.963 240.989 238.415 239.529 238.549L215.619 240.682L185.301 243.392L182.429 243.648C181.344 243.745 180.336 243.062 180.016 242.009L167.986 202.634C167.778 201.943 167.897 201.244 168.248 200.697C168.614 200.116 169.233 199.699 169.985 199.634L193.312 197.548L227.08 194.533C228.165 194.436 229.173 195.118 229.494 196.171Z" fill="#DEEDF2"/>
<path fill-rule="evenodd" clip-rule="evenodd" d="M192.96 197.513L185.116 243.408L182.283 243.66C181.213 243.755 180.216 243.071 179.9 242.016L167.98 202.572C167.774 201.882 167.891 201.181 168.237 200.634C168.597 200.053 169.207 199.637 169.949 199.572L192.96 197.513Z" fill="#C3DEE7"/>
</g>
<defs>
<clipPath id="clip0_60_20558">
<rect width="496" height="376" fill="white"/>
</clipPath>
</defs>
</svg>
