<svg width="160" height="161" viewBox="0 0 160 161" fill="none" xmlns="http://www.w3.org/2000/svg">
<path fill-rule="evenodd" clip-rule="evenodd" d="M87.2305 44.2347L90.3619 28.1331L93.8219 28.1511C93.8219 28.1511 95.7446 36.4346 96.2396 43.331L87.2305 44.2347Z" fill="#34466B"/>
<path fill-rule="evenodd" clip-rule="evenodd" d="M103.824 42.953L106.956 26.8513L110.417 26.8687C110.417 26.8687 112.339 35.1549 112.833 42.0493L103.824 42.953Z" fill="#34466B"/>
<path fill-rule="evenodd" clip-rule="evenodd" d="M53.9325 159.055C51.3458 162.574 44.4798 157.315 42.0914 155.766L42.0188 155.719C39.9476 154.38 38.7024 152.079 38.7189 149.615L38.7403 145.256L38.7809 138.169L39.1253 75.1657L39.1334 73.8369L40.6067 73.9212L40.6334 75.2506L41.942 138.132L42.089 145.216L42.1893 149.979C47.3383 148.779 50.9354 148.805 52.7708 148.959C53.8434 149.049 54.7945 149.712 55.2128 150.707C56.2438 153.139 55.8306 156.469 53.9325 159.055Z" fill="#34466B"/>
<path fill-rule="evenodd" clip-rule="evenodd" d="M42.1375 43.7677C42.0924 43.287 41.781 42.8779 41.332 42.7016C40.752 42.4727 39.9162 42.3737 39.2401 43.1983C38.0702 44.6185 38.7524 75.1434 38.7524 75.1434L40.9813 75.2709C40.9813 75.2709 42.6318 49.2124 42.1375 43.7677Z" fill="#DEEDF2"/>
<path fill-rule="evenodd" clip-rule="evenodd" d="M84.6056 90.6877C84.6056 90.6877 60.0232 90.7887 57.1592 88.346C54.9714 86.4762 47.5674 73.03 44.3019 66.1483C43.2969 64.026 43.1318 60.229 43.1318 60.229L37.8789 63.5L38.6075 66.2183C41.1316 75.6494 46.2956 96.4218 50.1725 98.8477C55.1714 101.974 84.8167 108.042 84.8167 108.042L84.6056 90.6877Z" fill="#732645"/>
<path fill-rule="evenodd" clip-rule="evenodd" d="M102.508 37.3696C102.508 37.3696 43.3115 47.8409 42.9018 47.9023C39.5554 48.4049 36.9364 47.2589 36.6331 50.3999C36.4971 51.8116 36.7704 52.7426 37.1456 53.3522C37.606 54.0976 37.9651 54.4698 38.8251 54.3109L43.2337 53.6279C43.2337 53.6279 63.5141 53.8807 70.7329 53.1694C75.6485 52.6843 108.654 49.3812 108.654 49.3812L102.508 37.3696Z" fill="#732645"/>
<path fill-rule="evenodd" clip-rule="evenodd" d="M38.6539 57.2803C40.9771 57.4444 42.6099 57.1762 43.0786 60.1518C43.6927 64.0228 41.8525 64.5796 38.9655 64.1866C35.7481 63.7472 37.7182 57.2138 38.6539 57.2803Z" fill="#732645"/>
<path fill-rule="evenodd" clip-rule="evenodd" d="M92.9901 61.3812L92.695 37.356L101.681 34.8083C113.602 31.4339 125.099 41.3434 123.494 53.6313C121.831 66.3658 119.684 80.4489 117.589 87.4107C112.486 104.371 95.0046 114.589 77.8147 110.329C75.8599 109.842 74.5219 109.289 74.1637 108.654C71.9554 104.75 70.2708 93.2403 76.5804 87.8078C77.348 87.1453 84.6442 85.9281 84.6442 85.9281C84.6442 85.9281 87.7518 76.0497 88.9069 74.3866C90.0658 72.7218 101.339 69.7585 101.339 69.7585L92.9901 61.3812Z" fill="#F6C854"/>
<path fill-rule="evenodd" clip-rule="evenodd" d="M104.964 5.91879C104.989 8.05952 103.275 9.81747 101.134 9.84271C98.9924 9.87035 97.2362 8.15504 97.2113 6.01431C97.1843 3.87461 98.8989 2.11632 101.04 2.08868C103.18 2.06207 104.937 3.77909 104.964 5.91879Z" fill="#CEDEE7"/>
<g clip-path="url(#clip0_1487_11280)">
<path fill-rule="evenodd" clip-rule="evenodd" d="M101.891 45.4158C95.0621 45.3382 89.4444 51.3454 89.3449 58.8337C89.2454 66.3211 94.7018 72.4558 101.534 72.5315C108.363 72.6088 113.981 66.6019 114.081 59.1145C114.18 51.6252 108.724 45.494 101.891 45.4158Z" fill="#137E84"/>
<path fill-rule="evenodd" clip-rule="evenodd" d="M100.375 50.5307C91.6169 50.4325 84.4137 58.1329 84.2868 67.7361C84.1598 77.3364 91.1571 85.2015 99.9182 85.2998C108.676 85.3999 115.879 77.6954 116.006 68.096C116.133 58.4944 109.136 50.6309 100.375 50.5307Z" fill="#1BB3BC"/>
</g>
<defs>
<clipPath id="clip0_1487_11280">
<rect width="31.7271" height="39.9147" fill="white" transform="matrix(-1 0 0 1 116.008 45.415)"/>
</clipPath>
</defs>
</svg>
