<svg xmlns="http://www.w3.org/2000/svg" viewBox="0 0 95 95" width="95" height="95" preserveAspectRatio="xMidYMid meet" style="width: 100%; height: 100%; transform: translate3d(0px, 0px, 0px);"><defs><clipPath id="__lottie_element_2"><rect width="95" height="95" x="0" y="0"></rect></clipPath></defs><g clip-path="url(#__lottie_element_2)"><g transform="matrix(0.800000011920929,0,0,0.800000011920929,-0.7407989501953125,-0.7407989501953125)" opacity="1" style="display: block;"><path stroke-linecap="round" stroke-linejoin="round" fill-opacity="0" stroke="rgb(236,0,0)" stroke-opacity="1" stroke-width="3" d=" M110.97000122070312,84.96700286865234 C101.64199829101562,103.8489990234375 82.19599914550781,116.83899688720703 59.7140007019043,116.85299682617188 C59.7140007019043,116.85299682617188 59.676998138427734,116.85299682617188 59.676998138427734,116.85299682617188 C32.0620002746582,116.85299682617188 9.677000045776367,104.71199798583984 9.677000045776367,89.73500061035156 C9.677000045776367,78.97000122070312 21.2450008392334,69.6719970703125 38.005001068115234,65.29299926757812 C37.83000183105469,69.3489990234375 38.78900146484375,73.44400024414062 40.888999938964844,77.08100128173828 C40.888999938964844,77.08100128173828 56.54600143432617,104.1989974975586 56.54600143432617,104.1989974975586 C57.73899841308594,106.26599884033203 58.56399917602539,108.48200225830078 59.02199935913086,110.75499725341797 C59.02199935913086,110.75499725341797 59.676998138427734,109.62200164794922 59.676998138427734,109.62200164794922 C63.551998138427734,102.90899658203125 63.551998138427734,94.63999938964844 59.676998138427734,87.9280014038086 C59.676998138427734,87.9280014038086 47.11199951171875,66.16500091552734 47.11199951171875,66.16500091552734 C47.11199951171875,66.16500091552734 47.112998962402344,66.16500091552734 47.112998962402344,66.16500091552734 C43.277000427246094,59.46500015258789 43.28900146484375,51.229000091552734 47.152000427246094,44.540000915527344 C47.152000427246094,44.540000915527344 47.805999755859375,43.40599822998047 47.805999755859375,43.40599822998047 C48.263999938964844,45.67900085449219 49.0890007019043,47.89500045776367 50.28200149536133,49.96200180053711 C50.28200149536133,49.96200180053711 57.604000091552734,62.643001556396484 57.604000091552734,62.643001556396484 C57.604000091552734,62.643001556396484 69.07099914550781,82.50499725341797 69.07099914550781,82.50499725341797 C70.26399993896484,84.5719985961914 71.08899688720703,86.78800201416016 71.5469970703125,89.06099700927734 C71.5469970703125,89.06099700927734 72.2020034790039,87.9280014038086 72.2020034790039,87.9280014038086 C76.0770034790039,81.21499633789062 76.0770034790039,72.94599914550781 72.2020034790039,66.23400115966797 C72.2020034790039,66.23400115966797 59.67599868774414,44.53900146484375 59.67599868774414,44.53900146484375 C55.80099868774414,37.82699966430664 55.80099868774414,29.55699920654297 59.676998138427734,22.84600067138672 C59.676998138427734,22.84600067138672 60.33100128173828,21.711999893188477 60.33100128173828,21.711999893188477 C60.78900146484375,23.985000610351562 61.61399841308594,26.201000213623047 62.80799865722656,28.268999099731445 C62.80799865722656,28.268999099731445 78.46399688720703,55.387001037597656 78.46399688720703,55.387001037597656 C80.23899841308594,58.46099853515625 81.197998046875,61.86199951171875 81.3479995727539,65.29000091552734 C82.66600036621094,65.63400268554688 83.9520034790039,66.00900268554688 85.2030029296875,66.41300201416016"></path></g><g style="display: none;"><path></path></g></g></svg>