<svg width="150" height="151" viewBox="0 0 150 151" fill="none" xmlns="http://www.w3.org/2000/svg">
<ellipse cx="75" cy="75.125" rx="75" ry="75.125" fill="white"/>
<path fill-rule="evenodd" clip-rule="evenodd" d="M100 4.26764V145.732C92.1805 148.496 83.7659 150 75 150C66.2341 150 57.8195 148.496 50 145.732V4.26764C57.8195 1.50386 66.2341 0 75 0C83.7659 0 92.1805 1.50386 100 4.26764Z" fill="#DC171D"/>
<path fill-rule="evenodd" clip-rule="evenodd" d="M145.732 100C148.496 92.1805 150 83.7659 150 75C150 66.2341 148.496 57.8195 145.732 50H4.26764C1.50386 57.8195 0 66.2341 0 75C0 83.7659 1.50386 92.1805 4.26764 100H145.732Z" fill="#012A87"/>
<path d="M75 52.0833L73.0686 58.0274L76.0407 58.9931L75 52.0833Z" fill="white"/>
<path d="M75 52.0833L76.9314 58.0274L73.9593 58.9931L75 52.0833Z" fill="white"/>
<path d="M80.9441 56.402H74.6941V59.527L80.9441 56.402Z" fill="white"/>
<path d="M80.9441 56.402L75.8878 60.0756L74.0509 57.5475L80.9441 56.402Z" fill="white"/>
<path d="M69.0559 56.402L74.1122 60.0756L75.9491 57.5475L69.0559 56.402Z" fill="white"/>
<path d="M69.0559 56.402H75.3059V59.527L69.0559 56.402Z" fill="white"/>
<path d="M78.6737 63.3897L76.7423 57.4456L73.7703 58.4113L78.6737 63.3897Z" fill="white"/>
<path d="M78.6737 63.3897L73.6173 59.716L75.4541 57.1879L78.6737 63.3897Z" fill="white"/>
<path d="M71.3263 63.3897L76.3827 59.716L74.5459 57.1879L71.3263 63.3897Z" fill="white"/>
<path d="M71.3263 63.3897L73.2577 57.4456L76.2297 58.4113L71.3263 63.3897Z" fill="white"/>
<path d="M108.333 65.8904L106.402 71.8345L109.374 72.8002L108.333 65.8904Z" fill="white"/>
<path d="M108.333 65.8904L110.265 71.8345L107.293 72.8002L108.333 65.8904Z" fill="white"/>
<path d="M114.277 70.2091H108.027V73.3341L114.277 70.2091Z" fill="white"/>
<path d="M114.277 70.2091L109.221 73.8827L107.384 71.3546L114.277 70.2091Z" fill="white"/>
<path d="M102.389 70.2091L107.446 73.8827L109.282 71.3546L102.389 70.2091Z" fill="white"/>
<path d="M102.389 70.2091H108.639V73.3341L102.389 70.2091Z" fill="white"/>
<path d="M112.007 77.1968L110.076 71.2527L107.104 72.2184L112.007 77.1968Z" fill="white"/>
<path d="M112.007 77.1968L106.951 73.5231L108.787 70.995L112.007 77.1968Z" fill="white"/>
<path d="M104.66 77.1968L109.716 73.5231L107.879 70.995L104.66 77.1968Z" fill="white"/>
<path d="M104.66 77.1968L106.591 71.2527L109.563 72.2184L104.66 77.1968Z" fill="white"/>
<path d="M88.8071 85.4167L86.8758 91.3608L89.8478 92.3264L88.8071 85.4167Z" fill="white"/>
<path d="M88.8071 85.4167L90.7385 91.3608L87.7664 92.3264L88.8071 85.4167Z" fill="white"/>
<path d="M94.7512 89.7353H88.5012V92.8603L94.7512 89.7353Z" fill="white"/>
<path d="M94.7512 89.7353L89.6949 93.409L87.858 90.8808L94.7512 89.7353Z" fill="white"/>
<path d="M82.863 89.7353L87.9194 93.409L89.7562 90.8808L82.863 89.7353Z" fill="white"/>
<path d="M82.863 89.7353H89.113V92.8603L82.863 89.7353Z" fill="white"/>
<path d="M92.4808 96.723L90.5494 90.7789L87.5774 91.7446L92.4808 96.723Z" fill="white"/>
<path d="M92.4808 96.723L87.4244 93.0494L89.2612 90.5212L92.4808 96.723Z" fill="white"/>
<path d="M85.1335 96.723L90.1898 93.0494L88.353 90.5212L85.1335 96.723Z" fill="white"/>
<path d="M85.1335 96.723L87.0648 90.7789L90.0369 91.7446L85.1335 96.723Z" fill="white"/>
<path d="M41.6667 65.8904L43.598 71.8345L40.626 72.8002L41.6667 65.8904Z" fill="white"/>
<path d="M41.6667 65.8904L39.7353 71.8345L42.7074 72.8002L41.6667 65.8904Z" fill="white"/>
<path d="M35.7226 70.2091H41.9726V73.3341L35.7226 70.2091Z" fill="white"/>
<path d="M35.7226 70.2091L40.7789 73.8827L42.6158 71.3546L35.7226 70.2091Z" fill="white"/>
<path d="M47.6108 70.2091L42.5544 73.8827L40.7176 71.3546L47.6108 70.2091Z" fill="white"/>
<path d="M47.6108 70.2091H41.3608V73.3341L47.6108 70.2091Z" fill="white"/>
<path d="M37.993 77.1968L39.9244 71.2527L42.8964 72.2184L37.993 77.1968Z" fill="white"/>
<path d="M37.993 77.1968L43.0494 73.5231L41.2125 70.995L37.993 77.1968Z" fill="white"/>
<path d="M45.3403 77.1968L40.284 73.5231L42.1208 70.995L45.3403 77.1968Z" fill="white"/>
<path d="M45.3403 77.1968L43.409 71.2527L40.4369 72.2184L45.3403 77.1968Z" fill="white"/>
<path d="M61.1929 85.4167L63.1242 91.3608L60.1522 92.3264L61.1929 85.4167Z" fill="white"/>
<path d="M61.1929 85.4167L59.2615 91.3608L62.2336 92.3264L61.1929 85.4167Z" fill="white"/>
<path d="M55.2488 89.7353H61.4988V92.8603L55.2488 89.7353Z" fill="white"/>
<path d="M55.2488 89.7353L60.3051 93.409L62.142 90.8808L55.2488 89.7353Z" fill="white"/>
<path d="M67.137 89.7353L62.0806 93.409L60.2438 90.8808L67.137 89.7353Z" fill="white"/>
<path d="M67.137 89.7353H60.887V92.8603L67.137 89.7353Z" fill="white"/>
<path d="M57.5192 96.723L59.4506 90.7789L62.4226 91.7446L57.5192 96.723Z" fill="white"/>
<path d="M57.5192 96.723L62.5756 93.0494L60.7388 90.5212L57.5192 96.723Z" fill="white"/>
<path d="M64.8665 96.723L59.8102 93.0494L61.647 90.5212L64.8665 96.723Z" fill="white"/>
<path d="M64.8665 96.723L62.9352 90.7789L59.9631 91.7446L64.8665 96.723Z" fill="white"/>
</svg>
