<?xml version="1.0" encoding="UTF-8"?>
<svg width="512px" height="512px" viewBox="0 0 512 512" version="1.1" xmlns="http://www.w3.org/2000/svg" xmlns:xlink="http://www.w3.org/1999/xlink">
    <title> FLA000 | BL saint barthélemy</title>
    <g id="-FLA000-|-BL-saint-barthélemy" stroke="none" stroke-width="1" fill="none" fill-rule="evenodd">
        <g id="048-st-barts" fill-rule="nonzero">
            <circle id="Oval" fill="#F0F0F0" cx="256" cy="256" r="256"></circle>
            <g id="Group" transform="translate(54.910043, 178.087087)" fill="#ACABB1">
                <path d="M402.178912,27.8258259 L317.958826,27.8258259 C317.958826,12.4582196 305.500606,0 290.133,0 L267.871739,44.5215216 C267.871739,44.5215216 291.617217,111.304304 290.874608,111.304304 L318.700434,111.304304 C334.069041,111.304304 346.52626,98.8470855 346.52626,83.4784784 C361.894867,83.4784784 374.352086,71.0212596 374.352086,55.6526526 L373.425325,55.6526526 C388.792932,55.6516517 402.178912,43.1944329 402.178912,27.8258259 Z" id="Path"></path>
                <path d="M0,27.8258259 L84.2200868,27.8258259 C84.2200868,12.4582196 96.6783064,0 112.045913,0 L134.307174,44.5215216 C134.307174,44.5215216 110.561695,111.304304 111.304304,111.304304 L83.4784784,111.304304 C68.1098714,111.304304 55.6526526,98.8470855 55.6526526,83.4784784 C40.2840455,83.4784784 27.8268267,71.0212596 27.8268267,55.6526526 L28.7535869,55.6526526 C13.3849799,55.6516517 0,43.1944329 0,27.8258259 Z" id="Path"></path>
            </g>
            <polygon id="Path" fill="#FFDA44" points="345.043043 356.173173 345.043043 367.303303 166.955956 367.303303 166.955956 356.173173 122.434434 356.173173 122.434434 400.694695 166.955956 400.694695 166.955956 411.824825 345.043043 411.824825 345.043043 400.694695 389.564565 400.694695 389.564565 356.173173"></polygon>
            <path d="M166.955956,178.086086 L166.955956,289.38939 C166.955956,357.548301 255.998999,378.433434 255.998999,378.433434 C255.998999,378.433434 345.042042,357.548301 345.042042,289.38939 L345.042042,178.086086 L255.998999,166.955956 L166.955956,178.086086 Z" id="Path" fill="#0052B4"></path>
            <polygon id="Path" fill="#D80027" points="166.956957 222.612612 345.043043 222.612612 345.043043 289.395395 166.956957 289.395395"></polygon>
            <polygon id="Path" fill="#FFDA44" points="300.520521 122.434434 300.520521 139.13013 289.390391 144.695696 278.26026 133.564565 278.26026 100.173173 233.738739 100.173173 233.738739 133.564565 222.608609 144.695696 211.477478 139.13013 211.477478 122.434434 166.955956 122.434434 166.955956 178.086086 345.043043 178.086086 345.043043 122.434434"></polygon>
        </g>
    </g>
</svg>