<?xml version="1.0" encoding="iso-8859-1"?>
<svg version="1.1" id="Layer_1" xmlns="http://www.w3.org/2000/svg" xmlns:xlink="http://www.w3.org/1999/xlink" x="0px" y="0px"
	 viewBox="0 0 512 512" style="enable-background:new 0 0 512 512;" xml:space="preserve">
  <g id="Page-1" stroke="none" stroke-width="1" fill="none" fill-rule="evenodd">
    <g id="EU">
      <circle id="Oval-3" fill="#039" cx="256" cy="256" r="256"></circle>
    </g>
  </g>
  <g fill="#fc0" transform="matrix(25, 0, 0, 25, 258.249998, 258.249998)">
    <g transform="matrix(1, 0, 0, 1, 0, -6)">
      <g>
        <path d="M0,0v1h0.5z" transform="translate(0,-1)rotate(18)"></path>
        <path d="M0,0v1h0.5z" transform="matrix(-0.9510565162951535, 0.3090169943749474, 0.3090169943749474, 0.9510565162951535, 0, -1)"></path>
      </g>
      <g>
        <g transform="matrix(0.30901699437494745, 0.9510565162951535, -0.9510565162951535, 0.30901699437494745, 0, 0)">
          <path d="M0,0v1h0.5z" transform="translate(0,-1)rotate(18)"></path>
          <path d="M0,0v1h0.5z" transform="matrix(-0.9510565162951535, 0.3090169943749474, 0.3090169943749474, 0.9510565162951535, 0, -1)"></path>
        </g>
        <g transform="matrix(-0.8090169943749473, 0.5877852522924732, -0.5877852522924732, -0.8090169943749473, 0, 0)">
          <path d="M0,0v1h0.5z" transform="translate(0,-1)rotate(18)"></path>
          <path d="M0,0v1h0.5z" transform="matrix(-0.9510565162951535, 0.3090169943749474, 0.3090169943749474, 0.9510565162951535, 0, -1)"></path>
        </g>
      </g>
      <g transform="matrix(-1, 0, 0, 1, 0, 0)">
        <g transform="matrix(0.30901699437494745, 0.9510565162951535, -0.9510565162951535, 0.30901699437494745, 0, 0)">
          <path d="M0,0v1h0.5z" transform="translate(0,-1)rotate(18)"></path>
          <path d="M0,0v1h0.5z" transform="matrix(-0.9510565162951535, 0.3090169943749474, 0.3090169943749474, 0.9510565162951535, 0, -1)"></path>
        </g>
        <g transform="matrix(-0.8090169943749473, 0.5877852522924732, -0.5877852522924732, -0.8090169943749473, 0, 0)">
          <path d="M0,0v1h0.5z" transform="translate(0,-1)rotate(18)"></path>
          <path d="M0,0v1h0.5z" transform="matrix(-0.9510565162951535, 0.3090169943749474, 0.3090169943749474, 0.9510565162951535, 0, -1)"></path>
        </g>
      </g>
    </g>
    <g transform="matrix(1, 0, 0, 1, 0, 6)">
      <g>
        <path d="M0,0v1h0.5z" transform="translate(0,-1)rotate(18)"></path>
        <path d="M0,0v1h0.5z" transform="matrix(-0.9510565162951535, 0.3090169943749474, 0.3090169943749474, 0.9510565162951535, 0, -1)"></path>
      </g>
      <g>
        <g transform="matrix(0.30901699437494745, 0.9510565162951535, -0.9510565162951535, 0.30901699437494745, 0, 0)">
          <path d="M0,0v1h0.5z" transform="translate(0,-1)rotate(18)"></path>
          <path d="M0,0v1h0.5z" transform="matrix(-0.9510565162951535, 0.3090169943749474, 0.3090169943749474, 0.9510565162951535, 0, -1)"></path>
        </g>
        <g transform="matrix(-0.8090169943749473, 0.5877852522924732, -0.5877852522924732, -0.8090169943749473, 0, 0)">
          <path d="M0,0v1h0.5z" transform="translate(0,-1)rotate(18)"></path>
          <path d="M0,0v1h0.5z" transform="matrix(-0.9510565162951535, 0.3090169943749474, 0.3090169943749474, 0.9510565162951535, 0, -1)"></path>
        </g>
      </g>
      <g transform="matrix(-1, 0, 0, 1, 0, 0)">
        <g transform="matrix(0.30901699437494745, 0.9510565162951535, -0.9510565162951535, 0.30901699437494745, 0, 0)">
          <path d="M0,0v1h0.5z" transform="translate(0,-1)rotate(18)"></path>
          <path d="M0,0v1h0.5z" transform="matrix(-0.9510565162951535, 0.3090169943749474, 0.3090169943749474, 0.9510565162951535, 0, -1)"></path>
        </g>
        <g transform="matrix(-0.8090169943749473, 0.5877852522924732, -0.5877852522924732, -0.8090169943749473, 0, 0)">
          <path d="M0,0v1h0.5z" transform="translate(0,-1)rotate(18)"></path>
          <path d="M0,0v1h0.5z" transform="matrix(-0.9510565162951535, 0.3090169943749474, 0.3090169943749474, 0.9510565162951535, 0, -1)"></path>
        </g>
      </g>
    </g>
    <g id="l">
      <g transform="matrix(1, 0, 0, 1, -6, 0)">
        <g>
          <path d="M0,0v1h0.5z" transform="translate(0,-1)rotate(18)"></path>
          <path d="M0,0v1h0.5z" transform="matrix(-0.9510565162951535, 0.3090169943749474, 0.3090169943749474, 0.9510565162951535, 0, -1)"></path>
        </g>
        <g>
          <g transform="matrix(0.30901699437494745, 0.9510565162951535, -0.9510565162951535, 0.30901699437494745, 0, 0)">
            <path d="M0,0v1h0.5z" transform="translate(0,-1)rotate(18)"></path>
            <path d="M0,0v1h0.5z" transform="matrix(-0.9510565162951535, 0.3090169943749474, 0.3090169943749474, 0.9510565162951535, 0, -1)"></path>
          </g>
          <g transform="matrix(-0.8090169943749473, 0.5877852522924732, -0.5877852522924732, -0.8090169943749473, 0, 0)">
            <path d="M0,0v1h0.5z" transform="translate(0,-1)rotate(18)"></path>
            <path d="M0,0v1h0.5z" transform="matrix(-0.9510565162951535, 0.3090169943749474, 0.3090169943749474, 0.9510565162951535, 0, -1)"></path>
          </g>
        </g>
        <g transform="matrix(-1, 0, 0, 1, 0, 0)">
          <g transform="matrix(0.30901699437494745, 0.9510565162951535, -0.9510565162951535, 0.30901699437494745, 0, 0)">
            <path d="M0,0v1h0.5z" transform="translate(0,-1)rotate(18)"></path>
            <path d="M0,0v1h0.5z" transform="matrix(-0.9510565162951535, 0.3090169943749474, 0.3090169943749474, 0.9510565162951535, 0, -1)"></path>
          </g>
          <g transform="matrix(-0.8090169943749473, 0.5877852522924732, -0.5877852522924732, -0.8090169943749473, 0, 0)">
            <path d="M0,0v1h0.5z" transform="translate(0,-1)rotate(18)"></path>
            <path d="M0,0v1h0.5z" transform="matrix(-0.9510565162951535, 0.3090169943749474, 0.3090169943749474, 0.9510565162951535, 0, -1)"></path>
          </g>
        </g>
      </g>
      <g transform="matrix(-0.8090169943749475, -0.5877852522924731, 0.5877852522924731, -0.8090169943749475, -2.9999999999999996, -5.196152422706632)">
        <g>
          <path d="M0,0v1h0.5z" transform="translate(0,-1)rotate(18)"></path>
          <path d="M0,0v1h0.5z" transform="matrix(-0.9510565162951535, 0.3090169943749474, 0.3090169943749474, 0.9510565162951535, 0, -1)"></path>
        </g>
        <g>
          <g transform="matrix(0.30901699437494745, 0.9510565162951535, -0.9510565162951535, 0.30901699437494745, 0, 0)">
            <path d="M0,0v1h0.5z" transform="translate(0,-1)rotate(18)"></path>
            <path d="M0,0v1h0.5z" transform="matrix(-0.9510565162951535, 0.3090169943749474, 0.3090169943749474, 0.9510565162951535, 0, -1)"></path>
          </g>
          <g transform="matrix(-0.8090169943749473, 0.5877852522924732, -0.5877852522924732, -0.8090169943749473, 0, 0)">
            <path d="M0,0v1h0.5z" transform="translate(0,-1)rotate(18)"></path>
            <path d="M0,0v1h0.5z" transform="matrix(-0.9510565162951535, 0.3090169943749474, 0.3090169943749474, 0.9510565162951535, 0, -1)"></path>
          </g>
        </g>
        <g transform="matrix(-1, 0, 0, 1, 0, 0)">
          <g transform="matrix(0.30901699437494745, 0.9510565162951535, -0.9510565162951535, 0.30901699437494745, 0, 0)">
            <path d="M0,0v1h0.5z" transform="translate(0,-1)rotate(18)"></path>
            <path d="M0,0v1h0.5z" transform="matrix(-0.9510565162951535, 0.3090169943749474, 0.3090169943749474, 0.9510565162951535, 0, -1)"></path>
          </g>
          <g transform="matrix(-0.8090169943749473, 0.5877852522924732, -0.5877852522924732, -0.8090169943749473, 0, 0)">
            <path d="M0,0v1h0.5z" transform="translate(0,-1)rotate(18)"></path>
            <path d="M0,0v1h0.5z" transform="matrix(-0.9510565162951535, 0.3090169943749474, 0.3090169943749474, 0.9510565162951535, 0, -1)"></path>
          </g>
        </g>
      </g>
      <g transform="matrix(-0.8090169943749472, 0.5877852522924731, -0.5877852522924731, -0.8090169943749472, -5.196152422706632, -2.9999999999999987)">
        <g>
          <path d="M0,0v1h0.5z" transform="translate(0,-1)rotate(18)"></path>
          <path d="M0,0v1h0.5z" transform="matrix(-0.9510565162951535, 0.3090169943749474, 0.3090169943749474, 0.9510565162951535, 0, -1)"></path>
        </g>
        <g>
          <g transform="matrix(0.30901699437494745, 0.9510565162951535, -0.9510565162951535, 0.30901699437494745, 0, 0)">
            <path d="M0,0v1h0.5z" transform="translate(0,-1)rotate(18)"></path>
            <path d="M0,0v1h0.5z" transform="matrix(-0.9510565162951535, 0.3090169943749474, 0.3090169943749474, 0.9510565162951535, 0, -1)"></path>
          </g>
          <g transform="matrix(-0.8090169943749473, 0.5877852522924732, -0.5877852522924732, -0.8090169943749473, 0, 0)">
            <path d="M0,0v1h0.5z" transform="translate(0,-1)rotate(18)"></path>
            <path d="M0,0v1h0.5z" transform="matrix(-0.9510565162951535, 0.3090169943749474, 0.3090169943749474, 0.9510565162951535, 0, -1)"></path>
          </g>
        </g>
        <g transform="matrix(-1, 0, 0, 1, 0, 0)">
          <g transform="matrix(0.30901699437494745, 0.9510565162951535, -0.9510565162951535, 0.30901699437494745, 0, 0)">
            <path d="M0,0v1h0.5z" transform="translate(0,-1)rotate(18)"></path>
            <path d="M0,0v1h0.5z" transform="matrix(-0.9510565162951535, 0.3090169943749474, 0.3090169943749474, 0.9510565162951535, 0, -1)"></path>
          </g>
          <g transform="matrix(-0.8090169943749473, 0.5877852522924732, -0.5877852522924732, -0.8090169943749473, 0, 0)">
            <path d="M0,0v1h0.5z" transform="translate(0,-1)rotate(18)"></path>
            <path d="M0,0v1h0.5z" transform="matrix(-0.9510565162951535, 0.3090169943749474, 0.3090169943749474, 0.9510565162951535, 0, -1)"></path>
          </g>
        </g>
      </g>
      <g transform="matrix(0.30901699437494756, 0.9510565162951536, -0.9510565162951536, 0.30901699437494756, -5.196152422706632, 3.000000000000001)">
        <g>
          <path d="M0,0v1h0.5z" transform="translate(0,-1)rotate(18)"></path>
          <path d="M0,0v1h0.5z" transform="matrix(-0.9510565162951535, 0.3090169943749474, 0.3090169943749474, 0.9510565162951535, 0, -1)"></path>
        </g>
        <g>
          <g transform="matrix(0.30901699437494745, 0.9510565162951535, -0.9510565162951535, 0.30901699437494745, 0, 0)">
            <path d="M0,0v1h0.5z" transform="translate(0,-1)rotate(18)"></path>
            <path d="M0,0v1h0.5z" transform="matrix(-0.9510565162951535, 0.3090169943749474, 0.3090169943749474, 0.9510565162951535, 0, -1)"></path>
          </g>
          <g transform="matrix(-0.8090169943749473, 0.5877852522924732, -0.5877852522924732, -0.8090169943749473, 0, 0)">
            <path d="M0,0v1h0.5z" transform="translate(0,-1)rotate(18)"></path>
            <path d="M0,0v1h0.5z" transform="matrix(-0.9510565162951535, 0.3090169943749474, 0.3090169943749474, 0.9510565162951535, 0, -1)"></path>
          </g>
        </g>
        <g transform="matrix(-1, 0, 0, 1, 0, 0)">
          <g transform="matrix(0.30901699437494745, 0.9510565162951535, -0.9510565162951535, 0.30901699437494745, 0, 0)">
            <path d="M0,0v1h0.5z" transform="translate(0,-1)rotate(18)"></path>
            <path d="M0,0v1h0.5z" transform="matrix(-0.9510565162951535, 0.3090169943749474, 0.3090169943749474, 0.9510565162951535, 0, -1)"></path>
          </g>
          <g transform="matrix(-0.8090169943749473, 0.5877852522924732, -0.5877852522924732, -0.8090169943749473, 0, 0)">
            <path d="M0,0v1h0.5z" transform="translate(0,-1)rotate(18)"></path>
            <path d="M0,0v1h0.5z" transform="matrix(-0.9510565162951535, 0.3090169943749474, 0.3090169943749474, 0.9510565162951535, 0, -1)"></path>
          </g>
        </g>
      </g>
      <g transform="matrix(0.3090169943749475, 0.9510565162951536, -0.9510565162951536, 0.3090169943749475, -2.9999999999999996, 5.196152422706632)">
        <g>
          <path d="M0,0v1h0.5z" transform="translate(0,-1)rotate(18)"></path>
          <path d="M0,0v1h0.5z" transform="matrix(-0.9510565162951535, 0.3090169943749474, 0.3090169943749474, 0.9510565162951535, 0, -1)"></path>
        </g>
        <g>
          <g transform="matrix(0.30901699437494745, 0.9510565162951535, -0.9510565162951535, 0.30901699437494745, 0, 0)">
            <path d="M0,0v1h0.5z" transform="translate(0,-1)rotate(18)"></path>
            <path d="M0,0v1h0.5z" transform="matrix(-0.9510565162951535, 0.3090169943749474, 0.3090169943749474, 0.9510565162951535, 0, -1)"></path>
          </g>
          <g transform="matrix(-0.8090169943749473, 0.5877852522924732, -0.5877852522924732, -0.8090169943749473, 0, 0)">
            <path d="M0,0v1h0.5z" transform="translate(0,-1)rotate(18)"></path>
            <path d="M0,0v1h0.5z" transform="matrix(-0.9510565162951535, 0.3090169943749474, 0.3090169943749474, 0.9510565162951535, 0, -1)"></path>
          </g>
        </g>
        <g transform="matrix(-1, 0, 0, 1, 0, 0)">
          <g transform="matrix(0.30901699437494745, 0.9510565162951535, -0.9510565162951535, 0.30901699437494745, 0, 0)">
            <path d="M0,0v1h0.5z" transform="translate(0,-1)rotate(18)"></path>
            <path d="M0,0v1h0.5z" transform="matrix(-0.9510565162951535, 0.3090169943749474, 0.3090169943749474, 0.9510565162951535, 0, -1)"></path>
          </g>
          <g transform="matrix(-0.8090169943749473, 0.5877852522924732, -0.5877852522924732, -0.8090169943749473, 0, 0)">
            <path d="M0,0v1h0.5z" transform="translate(0,-1)rotate(18)"></path>
            <path d="M0,0v1h0.5z" transform="matrix(-0.9510565162951535, 0.3090169943749474, 0.3090169943749474, 0.9510565162951535, 0, -1)"></path>
          </g>
        </g>
      </g>
    </g>
    <g transform="matrix(-1, 0, 0, 1, 0, 0)">
      <g transform="matrix(1, 0, 0, 1, -6, 0)">
        <g>
          <path d="M0,0v1h0.5z" transform="translate(0,-1)rotate(18)"></path>
          <path d="M0,0v1h0.5z" transform="matrix(-0.9510565162951535, 0.3090169943749474, 0.3090169943749474, 0.9510565162951535, 0, -1)"></path>
        </g>
        <g>
          <g transform="matrix(0.30901699437494745, 0.9510565162951535, -0.9510565162951535, 0.30901699437494745, 0, 0)">
            <path d="M0,0v1h0.5z" transform="translate(0,-1)rotate(18)"></path>
            <path d="M0,0v1h0.5z" transform="matrix(-0.9510565162951535, 0.3090169943749474, 0.3090169943749474, 0.9510565162951535, 0, -1)"></path>
          </g>
          <g transform="matrix(-0.8090169943749473, 0.5877852522924732, -0.5877852522924732, -0.8090169943749473, 0, 0)">
            <path d="M0,0v1h0.5z" transform="translate(0,-1)rotate(18)"></path>
            <path d="M0,0v1h0.5z" transform="matrix(-0.9510565162951535, 0.3090169943749474, 0.3090169943749474, 0.9510565162951535, 0, -1)"></path>
          </g>
        </g>
        <g transform="matrix(-1, 0, 0, 1, 0, 0)">
          <g transform="matrix(0.30901699437494745, 0.9510565162951535, -0.9510565162951535, 0.30901699437494745, 0, 0)">
            <path d="M0,0v1h0.5z" transform="translate(0,-1)rotate(18)"></path>
            <path d="M0,0v1h0.5z" transform="matrix(-0.9510565162951535, 0.3090169943749474, 0.3090169943749474, 0.9510565162951535, 0, -1)"></path>
          </g>
          <g transform="matrix(-0.8090169943749473, 0.5877852522924732, -0.5877852522924732, -0.8090169943749473, 0, 0)">
            <path d="M0,0v1h0.5z" transform="translate(0,-1)rotate(18)"></path>
            <path d="M0,0v1h0.5z" transform="matrix(-0.9510565162951535, 0.3090169943749474, 0.3090169943749474, 0.9510565162951535, 0, -1)"></path>
          </g>
        </g>
      </g>
      <g transform="matrix(-0.8090169943749475, -0.5877852522924731, 0.5877852522924731, -0.8090169943749475, -2.9999999999999996, -5.196152422706632)">
        <g>
          <path d="M0,0v1h0.5z" transform="translate(0,-1)rotate(18)"></path>
          <path d="M0,0v1h0.5z" transform="matrix(-0.9510565162951535, 0.3090169943749474, 0.3090169943749474, 0.9510565162951535, 0, -1)"></path>
        </g>
        <g>
          <g transform="matrix(0.30901699437494745, 0.9510565162951535, -0.9510565162951535, 0.30901699437494745, 0, 0)">
            <path d="M0,0v1h0.5z" transform="translate(0,-1)rotate(18)"></path>
            <path d="M0,0v1h0.5z" transform="matrix(-0.9510565162951535, 0.3090169943749474, 0.3090169943749474, 0.9510565162951535, 0, -1)"></path>
          </g>
          <g transform="matrix(-0.8090169943749473, 0.5877852522924732, -0.5877852522924732, -0.8090169943749473, 0, 0)">
            <path d="M0,0v1h0.5z" transform="translate(0,-1)rotate(18)"></path>
            <path d="M0,0v1h0.5z" transform="matrix(-0.9510565162951535, 0.3090169943749474, 0.3090169943749474, 0.9510565162951535, 0, -1)"></path>
          </g>
        </g>
        <g transform="matrix(-1, 0, 0, 1, 0, 0)">
          <g transform="matrix(0.30901699437494745, 0.9510565162951535, -0.9510565162951535, 0.30901699437494745, 0, 0)">
            <path d="M0,0v1h0.5z" transform="translate(0,-1)rotate(18)"></path>
            <path d="M0,0v1h0.5z" transform="matrix(-0.9510565162951535, 0.3090169943749474, 0.3090169943749474, 0.9510565162951535, 0, -1)"></path>
          </g>
          <g transform="matrix(-0.8090169943749473, 0.5877852522924732, -0.5877852522924732, -0.8090169943749473, 0, 0)">
            <path d="M0,0v1h0.5z" transform="translate(0,-1)rotate(18)"></path>
            <path d="M0,0v1h0.5z" transform="matrix(-0.9510565162951535, 0.3090169943749474, 0.3090169943749474, 0.9510565162951535, 0, -1)"></path>
          </g>
        </g>
      </g>
      <g transform="matrix(-0.8090169943749472, 0.5877852522924731, -0.5877852522924731, -0.8090169943749472, -5.196152422706632, -2.9999999999999987)">
        <g>
          <path d="M0,0v1h0.5z" transform="translate(0,-1)rotate(18)"></path>
          <path d="M0,0v1h0.5z" transform="matrix(-0.9510565162951535, 0.3090169943749474, 0.3090169943749474, 0.9510565162951535, 0, -1)"></path>
        </g>
        <g>
          <g transform="matrix(0.30901699437494745, 0.9510565162951535, -0.9510565162951535, 0.30901699437494745, 0, 0)">
            <path d="M0,0v1h0.5z" transform="translate(0,-1)rotate(18)"></path>
            <path d="M0,0v1h0.5z" transform="matrix(-0.9510565162951535, 0.3090169943749474, 0.3090169943749474, 0.9510565162951535, 0, -1)"></path>
          </g>
          <g transform="matrix(-0.8090169943749473, 0.5877852522924732, -0.5877852522924732, -0.8090169943749473, 0, 0)">
            <path d="M0,0v1h0.5z" transform="translate(0,-1)rotate(18)"></path>
            <path d="M0,0v1h0.5z" transform="matrix(-0.9510565162951535, 0.3090169943749474, 0.3090169943749474, 0.9510565162951535, 0, -1)"></path>
          </g>
        </g>
        <g transform="matrix(-1, 0, 0, 1, 0, 0)">
          <g transform="matrix(0.30901699437494745, 0.9510565162951535, -0.9510565162951535, 0.30901699437494745, 0, 0)">
            <path d="M0,0v1h0.5z" transform="translate(0,-1)rotate(18)"></path>
            <path d="M0,0v1h0.5z" transform="matrix(-0.9510565162951535, 0.3090169943749474, 0.3090169943749474, 0.9510565162951535, 0, -1)"></path>
          </g>
          <g transform="matrix(-0.8090169943749473, 0.5877852522924732, -0.5877852522924732, -0.8090169943749473, 0, 0)">
            <path d="M0,0v1h0.5z" transform="translate(0,-1)rotate(18)"></path>
            <path d="M0,0v1h0.5z" transform="matrix(-0.9510565162951535, 0.3090169943749474, 0.3090169943749474, 0.9510565162951535, 0, -1)"></path>
          </g>
        </g>
      </g>
      <g transform="matrix(0.30901699437494756, 0.9510565162951536, -0.9510565162951536, 0.30901699437494756, -5.196152422706632, 3.000000000000001)">
        <g>
          <path d="M0,0v1h0.5z" transform="translate(0,-1)rotate(18)"></path>
          <path d="M0,0v1h0.5z" transform="matrix(-0.9510565162951535, 0.3090169943749474, 0.3090169943749474, 0.9510565162951535, 0, -1)"></path>
        </g>
        <g>
          <g transform="matrix(0.30901699437494745, 0.9510565162951535, -0.9510565162951535, 0.30901699437494745, 0, 0)">
            <path d="M0,0v1h0.5z" transform="translate(0,-1)rotate(18)"></path>
            <path d="M0,0v1h0.5z" transform="matrix(-0.9510565162951535, 0.3090169943749474, 0.3090169943749474, 0.9510565162951535, 0, -1)"></path>
          </g>
          <g transform="matrix(-0.8090169943749473, 0.5877852522924732, -0.5877852522924732, -0.8090169943749473, 0, 0)">
            <path d="M0,0v1h0.5z" transform="translate(0,-1)rotate(18)"></path>
            <path d="M0,0v1h0.5z" transform="matrix(-0.9510565162951535, 0.3090169943749474, 0.3090169943749474, 0.9510565162951535, 0, -1)"></path>
          </g>
        </g>
        <g transform="matrix(-1, 0, 0, 1, 0, 0)">
          <g transform="matrix(0.30901699437494745, 0.9510565162951535, -0.9510565162951535, 0.30901699437494745, 0, 0)">
            <path d="M0,0v1h0.5z" transform="translate(0,-1)rotate(18)"></path>
            <path d="M0,0v1h0.5z" transform="matrix(-0.9510565162951535, 0.3090169943749474, 0.3090169943749474, 0.9510565162951535, 0, -1)"></path>
          </g>
          <g transform="matrix(-0.8090169943749473, 0.5877852522924732, -0.5877852522924732, -0.8090169943749473, 0, 0)">
            <path d="M0,0v1h0.5z" transform="translate(0,-1)rotate(18)"></path>
            <path d="M0,0v1h0.5z" transform="matrix(-0.9510565162951535, 0.3090169943749474, 0.3090169943749474, 0.9510565162951535, 0, -1)"></path>
          </g>
        </g>
      </g>
      <g transform="matrix(0.3090169943749475, 0.9510565162951536, -0.9510565162951536, 0.3090169943749475, -2.9999999999999996, 5.196152422706632)">
        <g>
          <path d="M0,0v1h0.5z" transform="translate(0,-1)rotate(18)"></path>
          <path d="M0,0v1h0.5z" transform="matrix(-0.9510565162951535, 0.3090169943749474, 0.3090169943749474, 0.9510565162951535, 0, -1)"></path>
        </g>
        <g>
          <g transform="matrix(0.30901699437494745, 0.9510565162951535, -0.9510565162951535, 0.30901699437494745, 0, 0)">
            <path d="M0,0v1h0.5z" transform="translate(0,-1)rotate(18)"></path>
            <path d="M0,0v1h0.5z" transform="matrix(-0.9510565162951535, 0.3090169943749474, 0.3090169943749474, 0.9510565162951535, 0, -1)"></path>
          </g>
          <g transform="matrix(-0.8090169943749473, 0.5877852522924732, -0.5877852522924732, -0.8090169943749473, 0, 0)">
            <path d="M0,0v1h0.5z" transform="translate(0,-1)rotate(18)"></path>
            <path d="M0,0v1h0.5z" transform="matrix(-0.9510565162951535, 0.3090169943749474, 0.3090169943749474, 0.9510565162951535, 0, -1)"></path>
          </g>
        </g>
        <g transform="matrix(-1, 0, 0, 1, 0, 0)">
          <g transform="matrix(0.30901699437494745, 0.9510565162951535, -0.9510565162951535, 0.30901699437494745, 0, 0)">
            <path d="M0,0v1h0.5z" transform="translate(0,-1)rotate(18)"></path>
            <path d="M0,0v1h0.5z" transform="matrix(-0.9510565162951535, 0.3090169943749474, 0.3090169943749474, 0.9510565162951535, 0, -1)"></path>
          </g>
          <g transform="matrix(-0.8090169943749473, 0.5877852522924732, -0.5877852522924732, -0.8090169943749473, 0, 0)">
            <path d="M0,0v1h0.5z" transform="translate(0,-1)rotate(18)"></path>
            <path d="M0,0v1h0.5z" transform="matrix(-0.9510565162951535, 0.3090169943749474, 0.3090169943749474, 0.9510565162951535, 0, -1)"></path>
          </g>
        </g>
      </g>
    </g>
  </g>
</svg>