<?xml version="1.0" encoding="UTF-8"?>
<svg width="512px" height="512px" viewBox="0 0 512 512" version="1.1" xmlns="http://www.w3.org/2000/svg" xmlns:xlink="http://www.w3.org/1999/xlink">
    <title> FLA000 | HM isles heard mcdonald</title>
    <g id="-FLA000-|-HM-isles-heard-mcdonald" stroke="none" stroke-width="1" fill="none" fill-rule="evenodd">
        <g id="181-cook-islands" transform="translate(0.499512, 0.000000)">
            <path d="M511.500488,256.249756 C511.500488,397.49582 396.996308,512 255.750244,512 C114.50418,512 0,397.49582 0,256.249756 C0,256.310697 255.750244,0.527484878 255.750244,0.499512195 C396.996308,0.499512195 511.500488,115.003692 511.500488,256.249756 Z" id="Path" fill="#0052B4" fill-rule="nonzero"></path>
            <g id="Group" fill="#F0F0F0" fill-rule="nonzero">
                <path d="M256.341786,1.06666667 C256.307653,1.06666667 256.282053,1.06666667 256.250053,1.06666667 L256.341786,1.06666667 Z" id="Path"></path>
                <path d="M255.244566,257.205411 L256.705899,257.205411 C256.705899,256.714745 256.705899,256.236878 256.705899,255.744078 C256.219499,256.232611 255.733099,256.719011 255.244566,257.205411 Z" id="Path"></path>
                <path d="M255.751243,133.934205 C255.751243,88.9331512 255.751243,59.4469463 255.751243,0.499512195 L255.707286,0.499512195 C114.479204,0.52348878 0,115.016679 0,256.249756 L133.434693,256.249756 L133.434693,181.112133 L208.572316,256.249756 L255.066911,256.249756 C255.294689,256.021979 255.522466,255.794201 255.751243,255.565424 C255.751243,238.335251 255.751243,222.961264 255.751243,209.073826 L180.611621,133.934205 L255.751243,133.934205 Z" id="Path"></path>
            </g>
            <g id="Group" transform="translate(33.358423, 33.857936)" fill="#D80027" fill-rule="nonzero">
                <path d="M96.0302205,0 C56.0302829,22.7767571 22.775758,56.0302829 0,96.0302205 L0,222.39182 L66.7178459,222.39182 L66.7178459,66.7198439 L66.7178459,66.7178459 L222.39182,66.7178459 C222.39182,45.6753951 222.39182,25.6289717 222.39182,0 L96.0302205,0 Z" id="Path"></path>
                <path d="M222.39182,190.941534 L131.525557,100.077268 L100.076269,100.077268 L100.076269,100.079266 L222.389822,222.39182 L222.39182,222.39182 C222.39182,222.39182 222.39182,200.705998 222.39182,190.941534 L222.39182,190.941534 Z" id="Path"></path>
            </g>
            <g id="Group" transform="translate(0.000000, 0.499512)"></g>
        </g>
        <g id="Group-5" transform="translate(106.666667, 149.333333)" fill="#FFFFFF">
            <polygon id="Star" points="275.187959 37.2638436 264.956453 47.2249378 265.96969 32.5871046 252.197973 30.3705526 263.692966 22.0785673 256.751422 9.3534781 270.072206 13.6513748 275.187959 0 280.303712 13.6513748 293.624497 9.3534781 286.682952 22.0785673 298.177946 30.3705526 284.406228 32.5871046 285.419466 47.2249378"></polygon>
            <polygon id="Star-Copy" points="339.08545 89.6590662 328.853943 99.6201604 329.867181 84.9823272 316.095463 82.7657752 327.590457 74.4737899 320.648912 61.7487007 333.969697 66.0465973 339.08545 52.3952226 344.201203 66.0465973 357.521988 61.7487007 350.580443 74.4737899 362.075436 82.7657752 348.303719 84.9823272 349.316956 99.6201604"></polygon>
            <polygon id="Star-Copy-2" points="223.157145 114.953312 212.925639 124.914406 213.938877 110.276573 200.167159 108.060021 211.662152 99.7680353 204.720608 87.0429461 218.041392 91.3408427 223.157145 77.689468 228.272899 91.3408427 241.593683 87.0429461 234.652139 99.7680353 246.147132 108.060021 232.375414 110.276573 233.388652 124.914406"></polygon>
            <polygon id="Star-Copy-3" points="28.7262095 245.941368 16.2623743 258.075792 17.496682 240.24425 0.720226048 237.544086 14.7232178 227.442941 6.26715455 211.941468 22.4942919 217.177088 28.7262095 200.547231 34.9581271 217.177088 51.1852645 211.941468 42.7292013 227.442941 56.732193 237.544086 39.955737 240.24425 41.1900448 258.075792"></polygon>
            <polygon id="Star-Copy-4" points="275.187959 266.718784 266.444672 275.230992 267.310529 262.722298 255.541971 260.828153 265.364965 253.742275 259.4331 242.868108 270.816316 246.540856 275.187959 234.875136 279.559603 246.540856 290.942819 242.868108 285.010953 253.742275 294.833948 260.828153 283.065389 262.722298 283.931247 275.230992"></polygon>
            <polygon id="Star-Copy-5" points="313.00089 140.69924 304.684475 145.305304 306.272769 135.549503 299.544648 128.640407 308.842682 127.217055 313.00089 118.340934 317.159097 127.217055 326.457132 128.640407 319.729011 135.549503 321.317305 145.305304"></polygon>
        </g>
    </g>
</svg>