<?xml version="1.0" encoding="UTF-8"?>
<svg width="512px" height="512px" viewBox="0 0 512 512" version="1.1" xmlns="http://www.w3.org/2000/svg" xmlns:xlink="http://www.w3.org/1999/xlink">
    <title> FLA000 | PM saint pierre and miquelon </title>
    <defs>
        <circle id="path-1" cx="256" cy="256" r="256"></circle>
    </defs>
    <g id="-FLA000-|-PM-saint-pierre-and-miquelon-" stroke="none" stroke-width="1" fill="none" fill-rule="evenodd">
        <g id="saint-pierre-and-miquelon">
            <mask id="mask-2" fill="white">
                <use xlink:href="#path-1"></use>
            </mask>
            <use id="Mask" fill="#4DA6EA" fill-rule="nonzero" xlink:href="#path-1"></use>
            <g mask="url(#mask-2)">
                <g transform="translate(-21.333333, 42.666667)">
                    <polygon id="Path" fill="#4DA6EA" fill-rule="nonzero" points="0 0 554.666667 0 554.666667 426.666667 0 426.666667"></polygon>
                    <polygon id="Path" fill="#DD3E46" fill-rule="nonzero" points="0 0 153.011494 0 153.011494 135.757576 0 135.757576"></polygon>
                    <polygon id="Path" fill="#DD3E46" fill-rule="nonzero" points="0 290.909091 153.011494 290.909091 153.011494 426.666667 0 426.666667"></polygon>
                    <polygon id="Path" fill="#3E8051" fill-rule="nonzero" points="153.011494 12.8969697 91.0418391 67.8787879 153.011494 122.860606 153.011494 135.757576 138.475402 135.757576 76.5057471 80.7757576 14.536092 135.757576 0 135.757576 0 122.860606 61.9696552 67.8787879 4.2469221e-15 12.8969697 4.2469221e-15 0 14.536092 0 76.5057471 54.9818182 138.475402 0 153.011494 0"></polygon>
                    <path d="M38.2528736,387.878788 L38.2528736,349.090909 C38.2528736,338.379932 46.816071,329.69697 57.3793103,329.69697 L76.5057471,329.69697 L86.0689655,349.090909 L114.758621,349.090909 L114.758621,387.878788 L38.2528736,387.878788 Z" id="Path" fill="#F9BB4B" fill-rule="nonzero"></path>
                    <polygon id="Path" fill="#F9BB4B" fill-rule="nonzero" points="200.827586 48.4848485 258.206897 48.4848485 258.206897 87.2727273 200.827586 87.2727273"></polygon>
                    <polygon id="Path" fill="#F9BB4B" fill-rule="nonzero" points="296.45977 38.7878788 353.83908 38.7878788 353.83908 77.5757576 296.45977 77.5757576"></polygon>
                    <polygon id="Path" fill="#F9BB4B" fill-rule="nonzero" points="392.091954 38.7878788 449.471264 38.7878788 449.471264 77.5757576 392.091954 77.5757576"></polygon>
                    <path d="M382.528736,116.363636 L306.022989,116.363636 C288.996562,156.610495 288.996562,202.177384 306.022989,242.424242 L382.528736,242.424242 C365.502309,202.177384 365.502309,156.610495 382.528736,116.363636 Z" id="Path" fill="#FFD782" fill-rule="nonzero"></path>
                    <path d="M468.597701,116.363636 L420.781609,116.363636 C403.755182,156.610495 403.755182,202.177384 420.781609,242.424242 L468.597701,242.424242 C451.571274,202.177384 451.571274,156.610495 468.597701,116.363636 L468.597701,116.363636 Z" id="Path" fill="#FFD782" fill-rule="nonzero"></path>
                    <polygon id="Path" fill="#FCF05A" fill-rule="nonzero" points="239.214345 244.014545 226.198805 164.848485 248.509793 182.652121 260.855908 257.735758"></polygon>
                    <polygon id="Path" fill="#FCF05A" fill-rule="nonzero" points="334.712644 77.5757576 353.83908 77.5757576 353.83908 116.363636 334.712644 116.363636"></polygon>
                    <polygon id="Path" fill="#FCF05A" fill-rule="nonzero" points="430.344828 77.5757576 449.471264 77.5757576 449.471264 116.363636 430.344828 116.363636"></polygon>
                    <polygon id="Path" fill="#FCF05A" fill-rule="nonzero" points="239.08046 87.2727273 258.206897 87.2727273 258.206897 126.060606 239.08046 126.060606"></polygon>
                    <path d="M504.411954,378.181818 C493.046382,378.301441 482.038274,374.157109 473.503632,366.545455 C462.618216,356.261643 445.744083,356.261643 434.858667,366.545455 C417.124946,382.126026 390.79487,382.126026 373.061149,366.545455 C362.198541,356.259812 345.336172,356.259812 334.473563,366.545455 C316.741414,382.120425 290.417759,382.120425 272.685609,366.545455 C261.82115,356.26457 244.962482,356.26457 234.098023,366.545455 C216.36741,382.124603 190.040682,382.124603 172.310069,366.545455 C167.12358,361.502666 160.196757,358.718245 153.011494,358.787879 L153.011494,339.393939 C164.372235,339.268999 175.376165,343.414324 183.90069,351.030303 C194.770181,361.307714 211.628348,361.307714 222.497839,351.030303 C240.228452,335.451155 266.55518,335.451155 284.285793,351.030303 C295.150252,361.311188 312.008921,361.311188 322.873379,351.030303 C340.603993,335.451155 366.93072,335.451155 384.661333,351.030303 C395.532164,361.313743 412.397215,361.313743 423.268046,351.030303 C441.014116,335.463573 467.338619,335.463573 485.08469,351.030303 C495.977818,361.322699 512.865217,361.322699 523.758345,351.030303 C532.292987,343.418649 543.301094,339.274317 554.666667,339.393939 L554.666667,358.787879 C547.472265,358.71476 540.535258,361.499135 535.339402,366.545455 C526.797012,374.156798 515.783151,378.300732 504.411954,378.181818 L504.411954,378.181818 Z" id="Path" fill="#F4F4E6" fill-rule="nonzero"></path>
                    <path d="M504.411954,416.969697 C493.046382,417.089319 482.038274,412.944988 473.503632,405.333333 C462.618216,395.049522 445.744083,395.049522 434.858667,405.333333 C417.124946,420.913905 390.79487,420.913905 373.061149,405.333333 C362.198541,395.04769 345.336172,395.04769 334.473563,405.333333 C316.741414,420.908304 290.417759,420.908304 272.685609,405.333333 C261.82115,395.052449 244.962482,395.052449 234.098023,405.333333 C216.36741,420.912481 190.040682,420.912481 172.310069,405.333333 C167.12358,400.290545 160.196757,397.506124 153.011494,397.575758 L153.011494,378.181818 C164.372235,378.056878 175.376165,382.202202 183.90069,389.818182 C194.770181,400.095593 211.628348,400.095593 222.497839,389.818182 C240.228452,374.239034 266.55518,374.239034 284.285793,389.818182 C295.150252,400.099067 312.008921,400.099067 322.873379,389.818182 C340.603993,374.239034 366.93072,374.239034 384.661333,389.818182 C395.532164,400.101622 412.397215,400.101622 423.268046,389.818182 C441.014116,374.251452 467.338619,374.251452 485.08469,389.818182 C495.977818,400.110578 512.865217,400.110578 523.758345,389.818182 C532.292987,382.206527 543.301094,378.062196 554.666667,378.181818 L554.666667,397.575758 C547.472265,397.502639 540.535258,400.287014 535.339402,405.333333 C526.797012,412.944677 515.783151,417.088611 504.411954,416.969697 L504.411954,416.969697 Z" id="Path" fill="#F4F4E6" fill-rule="nonzero"></path>
                    <polygon id="Path" fill="#F3F2F0" fill-rule="nonzero" points="86.0689655 135.757576 86.0689655 0 66.9425287 0 66.9425287 135.757576 0 135.757576 0 290.909091 153.011494 290.909091 153.011494 135.757576"></polygon>
                    <path d="M258.206897,126.060606 L219.954023,126.060606 C208.945646,143.848401 208.945646,166.454629 219.954023,184.242424 L258.206897,184.242424 C247.198519,166.454629 247.198519,143.848401 258.206897,126.060606 L258.206897,126.060606 Z" id="Path" fill="#F9BB4B" fill-rule="nonzero"></path>
                    <polygon id="Path" fill="#F9BB4B" fill-rule="nonzero" points="210.390805 242.424242 267.770115 329.69697 459.034483 329.69697 516.413793 242.424242"></polygon>
                    <g id="Group" stroke-width="1" fill="none" fill-rule="evenodd" transform="translate(28.689655, 164.848485)">
                        <polygon id="Path" fill="#143441" fill-rule="nonzero" points="0 0 19.1264368 0 19.1264368 19.3939394 0 19.3939394"></polygon>
                        <polygon id="Path" fill="#143441" fill-rule="nonzero" points="38.2528736 0 57.3793103 0 57.3793103 19.3939394 38.2528736 19.3939394"></polygon>
                        <polygon id="Path" fill="#143441" fill-rule="nonzero" points="76.5057471 0 95.6321839 0 95.6321839 19.3939394 76.5057471 19.3939394"></polygon>
                        <polygon id="Path" fill="#143441" fill-rule="nonzero" points="0 38.7878788 19.1264368 38.7878788 19.1264368 58.1818182 0 58.1818182"></polygon>
                        <polygon id="Path" fill="#143441" fill-rule="nonzero" points="38.2528736 38.7878788 57.3793103 38.7878788 57.3793103 58.1818182 38.2528736 58.1818182"></polygon>
                        <polygon id="Path" fill="#143441" fill-rule="nonzero" points="76.5057471 38.7878788 95.6321839 38.7878788 95.6321839 58.1818182 76.5057471 58.1818182"></polygon>
                        <polygon id="Path" fill="#143441" fill-rule="nonzero" points="0 77.5757576 19.1264368 77.5757576 19.1264368 96.969697 0 96.969697"></polygon>
                        <polygon id="Path" fill="#143441" fill-rule="nonzero" points="38.2528736 77.5757576 57.3793103 77.5757576 57.3793103 96.969697 38.2528736 96.969697"></polygon>
                        <polygon id="Path" fill="#143441" fill-rule="nonzero" points="76.5057471 77.5757576 95.6321839 77.5757576 95.6321839 96.969697 76.5057471 96.969697"></polygon>
                    </g>
                </g>
            </g>
        </g>
    </g>
</svg>