<?xml version="1.0" encoding="UTF-8"?>
<svg width="512px" height="512px" viewBox="0 0 512 512" version="1.1" xmlns="http://www.w3.org/2000/svg" xmlns:xlink="http://www.w3.org/1999/xlink">
    <title> FLA000 | ST sao tome and prince</title>
    <g id="-FLA000-|-ST-sao-tome-and-prince" stroke="none" stroke-width="1" fill="none" fill-rule="evenodd">
        <g id="060-sao-tome-and-prince" fill-rule="nonzero">
            <circle id="Oval" fill="#FFDA44" cx="256.00025" cy="255.99975" r="255.99975"></circle>
            <g id="Group" transform="translate(74.989427, 0.000000)" fill="#6DA544">
                <path d="M80.8369211,166.956837 L421.086589,166.956837 C384.916624,69.4719322 291.080716,0 181.010823,0 C110.316892,0 46.3239548,28.658972 0,74.9889268 L80.8369211,166.956837 Z" id="Path"></path>
                <path d="M80.8369211,345.042663 L421.086589,345.042663 C384.916624,442.527568 291.080716,511.9995 181.010823,511.9995 C110.316892,511.9995 46.3239548,483.340528 0,437.010573 L80.8369211,345.042663 Z" id="Path"></path>
            </g>
            <path d="M74.9804268,74.9799268 C-24.9934756,174.953829 -24.9934756,337.044671 74.9804268,437.019573 C116.293386,395.706614 156.026348,355.973652 256.00025,255.99975 L74.9804268,74.9799268 Z" id="Path" fill="#D80027"></path>
            <polygon id="Path" fill="#000000" points="325.074183 211.477793 336.125172 245.48976 371.887137 245.48976 342.955165 266.50974 354.006154 300.521707 325.074183 279.500727 296.142211 300.521707 307.1922 266.50974 278.261228 245.48976 314.023193 245.48976"></polygon>
            <polygon id="Path" fill="#000000" points="436.379074 211.477793 447.429063 245.48976 483.191028 245.48976 454.260056 266.50974 465.310046 300.521707 436.379074 279.500727 407.446102 300.521707 418.497091 266.50974 389.56512 245.48976 425.327085 245.48976"></polygon>
        </g>
    </g>
</svg>