<?xml version="1.0" encoding="UTF-8"?>
<svg width="512px" height="512px" viewBox="0 0 512 512" version="1.1" xmlns="http://www.w3.org/2000/svg" xmlns:xlink="http://www.w3.org/1999/xlink">
    <title> FLA000 | SX sint maarten</title>
    <g id="-FLA000-|-SX-sint-maarten" stroke="none" stroke-width="1" fill="none" fill-rule="evenodd">
        <g id="097-sint-maarten" transform="translate(0.000000, 0.000500)" fill-rule="nonzero">
            <path d="M233.739272,278.260728 C233.739272,278.260728 75.1304266,74.9449268 74.9804268,74.9809268 C121.306382,28.653972 185.307319,0 256.00025,0 C397.384112,0 512,114.615888 512,255.99975 L233.739272,278.260728 Z" id="Path" fill="#D80027"></path>
            <path d="M233.739272,255.99975 C233.739272,255.99975 75.1304266,437.054573 74.9804268,437.018573 C121.306382,483.345528 185.307319,511.9995 256.00025,511.9995 C397.384112,511.9995 512,397.383612 512,255.99975 L233.739272,255.99975 Z" id="Path" fill="#0052B4"></path>
            <path d="M74.9804268,74.9799268 C-24.9934756,174.953829 -24.9934756,337.044671 74.9804268,437.019573 C116.293386,395.706614 156.026348,355.973652 256.00025,255.99975 L74.9804268,74.9799268 Z" id="Path" fill="#F0F0F0"></path>
            <g id="Group" transform="translate(27.826473, 178.086826)" fill="#FFDA44">
                <path d="M0.234999771,77.9139239 C0.0949999072,79.7519221 0,81.6039203 0,83.4779185 C0,123.433879 32.3919684,155.825848 72.3479293,155.825848 C112.30389,155.825848 144.695859,123.433879 144.695859,83.4779185 C144.695859,81.6039203 144.600859,79.7509221 144.460859,77.9139239 L0.234999771,77.9139239 Z" id="Path"></path>
                <circle id="Oval" cx="72.3479293" cy="22.2609783" r="22.2609783"></circle>
            </g>
            <path d="M50.0874511,194.78281 L50.0874511,267.130739 C50.0874511,305.470702 100.174402,317.21769 100.174402,317.21769 C100.174402,317.21769 150.261353,305.470702 150.261353,267.130739 L150.261353,194.78281 L50.0874511,194.78281 Z" id="Path" fill="#D80027"></path>
            <path d="M100.198402,293.919713 C90.9064112,290.575716 72.3474293,282.029725 72.3474293,267.129739 L72.3474293,217.042788 L128.000375,217.042788 L128.000375,267.129739 C128.000375,282.078725 109.443393,290.603716 100.198402,293.919713 L100.198402,293.919713 Z" id="Path" fill="#338AF3"></path>
            <polygon id="Path" fill="#F3F3F3" points="111.304391 244.869761 111.304391 233.738772 100.174402 228.173777 89.043413 233.738772 89.043413 244.869761 83.4784185 250.434755 83.4784185 272.695734 116.870386 272.695734 116.870386 250.434755"></polygon>
        </g>
    </g>
</svg>