<?xml version="1.0" encoding="UTF-8"?>
<svg width="512px" height="512px" viewBox="0 0 512 512" version="1.1" xmlns="http://www.w3.org/2000/svg" xmlns:xlink="http://www.w3.org/1999/xlink">
    <title> FLA000 | UM united states minor outlying islands </title>
    <g id="-FLA000-|-UM-united-states-minor-outlying-islands-" stroke="none" stroke-width="1" fill="none" fill-rule="evenodd">
        <g id="186-united-states" fill-rule="nonzero">
            <circle id="Oval" fill="#F0F0F0" cx="256" cy="256" r="256"></circle>
            <g id="Group" transform="translate(8.819000, 55.652000)" fill="#D80027">
                <path d="M236.051,200.348 L503.181,200.348 C503.181,177.242 500.101,154.858 494.362,133.565 L236.051,133.565 L236.051,200.348 Z" id="Path"></path>
                <path d="M236.051,66.783 L465.607,66.783 C449.936,41.211 429.899,18.608 406.537,0 L236.051,0 L236.051,66.783 Z" id="Path"></path>
                <path d="M247.181,456.348 C307.43,456.348 362.807,435.524 406.537,400.696 L87.825,400.696 C131.555,435.524 186.932,456.348 247.181,456.348 Z" id="Path"></path>
                <path d="M28.755,333.913 L465.607,333.913 C478.188,313.384 487.945,290.944 494.362,267.13 L0,267.13 C6.417,290.944 16.174,313.384 28.755,333.913 Z" id="Path"></path>
            </g>
            <path d="M118.584,39.978 L141.913,39.978 L120.213,55.743 L128.502,81.252 L106.803,65.487 L85.104,81.252 L92.264,59.215 C73.158,75.13 56.412,93.776 42.612,114.552 L50.087,114.552 L36.274,124.587 C34.122,128.177 32.058,131.824 30.08,135.525 L36.676,155.826 L24.37,146.885 C21.311,153.366 18.513,159.993 15.998,166.758 L23.265,189.126 L50.087,189.126 L28.387,204.891 L36.676,230.4 L14.977,214.635 L1.979,224.079 C0.678,234.537 0,245.189 0,256 L256,256 C256,114.616 256,97.948 256,0 C205.428,0 158.285,14.67 118.584,39.978 Z M128.502,230.4 L106.803,214.635 L85.104,230.4 L93.393,204.891 L71.693,189.126 L98.515,189.126 L106.803,163.617 L115.091,189.126 L141.913,189.126 L120.213,204.891 L128.502,230.4 Z M120.213,130.317 L128.502,155.826 L106.803,140.061 L85.104,155.826 L93.393,130.317 L71.693,114.552 L98.515,114.552 L106.803,89.043 L115.091,114.552 L141.913,114.552 L120.213,130.317 Z M220.328,230.4 L198.629,214.635 L176.93,230.4 L185.219,204.891 L163.519,189.126 L190.341,189.126 L198.629,163.617 L206.917,189.126 L233.739,189.126 L212.039,204.891 L220.328,230.4 Z M212.039,130.317 L220.328,155.826 L198.629,140.061 L176.93,155.826 L185.219,130.317 L163.519,114.552 L190.341,114.552 L198.629,89.043 L206.917,114.552 L233.739,114.552 L212.039,130.317 Z M212.039,55.743 L220.328,81.252 L198.629,65.487 L176.93,81.252 L185.219,55.743 L163.519,39.978 L190.341,39.978 L198.629,14.469 L206.917,39.978 L233.739,39.978 L212.039,55.743 Z" id="Shape" fill="#0052B4"></path>
        </g>
    </g>
</svg>