<?xml version="1.0" encoding="UTF-8"?>
<svg width="512px" height="512px" viewBox="0 0 512 512" version="1.1" xmlns="http://www.w3.org/2000/svg" xmlns:xlink="http://www.w3.org/1999/xlink">
    <title> FLA000 | VA vatican city</title>
    <g id="-FLA000-|-VA-vatican-city" stroke="none" stroke-width="1" fill="none" fill-rule="evenodd">
        <g id="071-vatican-city" fill-rule="nonzero">
            <path d="M256,0 C397.384,0 512,114.616 512,256 C512,397.384 397.384,512 256,512 C256,500.87 222.609,256 222.609,256 L256,0 Z" id="Path" fill="#F0F0F0"></path>
            <path d="M256,512 C114.616,512 0,397.384 0,256 C0,114.616 114.616,0 256,0" id="Path" fill="#FFDA44"></path>
            <path d="M354.03,222.765 L402.141,286.411 C394.561,297.889 394.601,313.353 403.368,324.95 C414.488,339.661 435.429,342.573 450.141,331.452 C464.852,320.332 467.764,299.391 456.642,284.68 C447.877,273.083 433.009,268.827 419.899,272.989 L344.918,173.796 L327.16,187.22 L300.52,207.354 L327.368,242.869 L354.03,222.765 Z M423.293,295.935 C428.197,292.227 435.178,293.199 438.885,298.101 C442.591,303.005 441.622,309.986 436.718,313.694 C431.815,317.399 424.834,316.431 421.128,311.526 C417.419,306.622 418.39,299.641 423.293,295.935 L423.293,295.935 Z" id="Shape" fill="#ACABB1"></path>
            <path d="M436.55,242.868 L463.398,207.353 L436.76,187.217 L419.002,173.793 L344.021,272.986 C330.913,268.824 316.044,273.081 307.278,284.677 C296.156,299.389 299.068,320.329 313.779,331.449 C328.491,342.569 349.431,339.658 360.551,324.947 C369.317,313.35 369.357,297.886 361.778,286.408 L409.889,222.762 L436.55,242.868 Z M342.793,311.525 C339.087,316.43 332.107,317.399 327.203,313.693 C322.299,309.985 321.329,303.004 325.036,298.1 C328.742,293.198 335.723,292.226 340.628,295.934 C345.531,299.641 346.5,306.622 342.793,311.525 L342.793,311.525 Z" id="Shape" fill="#FFDA44"></path>
        </g>
    </g>
</svg>