<svg width="160" height="160" viewBox="0 0 160 160" fill="none" xmlns="http://www.w3.org/2000/svg">
<path fill-rule="evenodd" clip-rule="evenodd" d="M55.1588 121.777C55.76 121.802 56.3596 121.818 56.9578 121.825C69.0004 121.963 80.4181 126.149 89.6739 133.437C95.2921 137.86 102.347 140.611 110.191 140.942C130.737 141.81 148.815 125.879 150.704 105.239C151.537 96.1346 149.054 87.6535 144.256 80.9451C140.148 75.2014 138.231 68.0914 139.046 60.8725C139.056 60.7795 139.066 60.6864 139.075 60.5938C140.295 48.4296 131.541 38.2183 119.429 37.6837C119.36 37.6804 119.291 37.6778 119.222 37.6756C115.953 37.5624 113.041 35.8046 111.46 33.0076C102.443 17.0603 85.7102 6.11898 65.6846 5.27649C33.6863 3.93046 5.34126 28.9433 2.43728 61.0884C-0.468657 93.259 23.1353 120.43 55.1588 121.777Z" fill="#EAF7FE"/>
<path d="M94.355 153.179L50.5921 146.489C45.7323 145.745 42.395 141.206 43.1389 136.351L60.9819 19.8976C61.7258 15.0425 66.2687 11.7086 71.1299 12.4518L114.891 19.1431C119.753 19.8869 123.089 24.4251 122.345 29.2801L104.503 145.734C103.759 150.59 99.2157 153.922 94.355 153.179Z" fill="#9E3667"/>
<path d="M91.6675 152.77L47.9046 146.078C43.0447 145.336 39.7077 140.796 40.4513 135.942L58.294 19.4879C59.0383 14.6329 63.5813 11.299 68.442 12.0421L112.204 18.734C117.065 19.4765 120.402 24.0153 119.658 28.8705L101.815 145.324C101.071 150.179 96.5274 153.513 91.6675 152.77Z" fill="white"/>
<path d="M118.902 33.8178L102.408 141.468C101.895 144.814 97.7317 146.953 94.3838 146.441L46.178 139.07C42.8283 138.558 40.5315 135.432 41.0442 132.085L57.5382 24.4353C58.0513 21.0882 61.1793 18.7887 64.5297 19.3008L112.734 26.6719C116.082 27.1836 119.415 30.471 118.902 33.8178Z" fill="white"/>
<path fill-rule="evenodd" clip-rule="evenodd" d="M101.579 22.6057C102.388 22.7295 103.145 22.1737 103.269 21.3649C103.394 20.5553 102.838 19.7996 102.029 19.6758C101.219 19.5526 100.462 20.1078 100.338 20.9174C100.214 21.7262 100.769 22.4826 101.579 22.6057ZM80.0311 18.5926C80.4525 18.6571 80.847 18.3678 80.912 17.9459C80.9765 17.5241 80.6868 17.1302 80.2651 17.0656C79.8428 17.0012 79.4483 17.2907 79.3842 17.7125C79.3188 18.1342 79.6089 18.5282 80.0311 18.5926ZM77.9505 17.4931C77.886 17.9143 77.4914 18.2045 77.0701 18.14C76.6479 18.0748 76.3582 17.6816 76.4232 17.2597C76.4881 16.8378 76.8822 16.5485 77.304 16.613C77.7262 16.6774 78.0155 17.0715 77.9505 17.4931ZM86.1193 19.1594L93.2051 20.242C93.4303 20.2768 93.6405 20.1223 93.6747 19.8971C93.7094 19.672 93.5549 19.462 93.3298 19.4277L86.2439 18.3451C86.0196 18.311 85.8094 18.4648 85.7743 18.69C85.7401 18.915 85.8937 19.1253 86.1193 19.1594Z" fill="#DEEDF2"/>
<path fill-rule="evenodd" clip-rule="evenodd" d="M94.3474 153.155L50.5844 146.465C45.7242 145.721 42.3872 141.183 43.1311 136.327L60.9743 19.8737C61.7182 15.0185 66.2607 11.6847 71.1222 12.4278L114.884 19.1192C119.745 19.863 123.082 24.4012 122.337 29.2562L104.494 145.71C103.751 150.566 99.2081 153.898 94.3474 153.155Z" fill="#9E3667"/>
<path fill-rule="evenodd" clip-rule="evenodd" d="M91.6599 152.745L47.897 146.053C43.0369 145.311 39.6999 140.771 40.4435 135.916L58.2859 19.4625C59.0307 14.6075 63.5732 11.2736 68.4343 12.0167L112.196 18.7086C117.057 19.4511 120.394 23.9899 119.65 28.8451L101.807 145.298C101.063 150.154 96.5197 153.488 91.6599 152.745Z" fill="white"/>
<path d="M118.894 33.7938L102.4 141.444C101.887 144.79 97.7236 146.929 94.3762 146.417L46.1704 139.046C42.8205 138.534 40.5237 135.407 41.0364 132.06L57.5306 24.4114C58.0432 21.0643 61.1716 18.7648 64.5217 19.2769L112.727 26.648C116.074 27.1598 119.407 30.447 118.894 33.7938Z" fill="white"/>
<path fill-rule="evenodd" clip-rule="evenodd" d="M102.949 137.879L102.402 141.442C102.374 141.622 102.337 141.797 102.289 141.967C101.447 145.01 97.5466 146.902 94.3792 146.417L46.1734 139.045C43.2206 138.594 41.0832 136.111 40.9735 133.235C40.9586 132.848 40.9779 132.455 41.0394 132.059L41.5852 128.496L102.949 137.879Z" fill="#CEDEE7"/>
<path d="M102.952 137.879L102.405 141.442C102.377 141.622 102.34 141.797 102.291 141.967L102.259 141.963L102.403 141.024L41.1055 131.652L41.588 128.496L102.952 137.879Z" fill="#2A8FEC"/>
<path fill-rule="evenodd" clip-rule="evenodd" d="M85.6735 115.093L101.701 117.539L99.2422 133.559L83.2148 131.114L85.6735 115.093ZM67.2708 112.278L83.2978 114.724L80.8391 130.744L64.8126 128.298L67.2708 112.278ZM48.8693 109.464L64.8962 111.911L62.4379 127.931L46.4102 125.485L48.8693 109.464Z" fill="#CEDEE7"/>
<path fill-rule="evenodd" clip-rule="evenodd" d="M101.567 22.5804C102.376 22.7042 103.133 22.1483 103.257 21.3395C103.382 20.5299 102.826 19.7742 102.017 19.6504C101.208 19.5272 100.45 20.0824 100.326 20.892C100.202 21.7008 100.757 22.4573 101.567 22.5804ZM80.0194 18.5672C80.4407 18.6317 80.8353 18.3424 80.9003 17.9205C80.9648 17.4987 80.6755 17.1048 80.2533 17.0402C79.8311 16.9758 79.4366 17.2653 79.3725 17.6871C79.3071 18.1088 79.5972 18.5028 80.0194 18.5672ZM77.9388 17.4677C77.8738 17.8889 77.4797 18.1791 77.0579 18.1146C76.6357 18.0494 76.3465 17.6562 76.4115 17.2343C76.476 16.8124 76.8705 16.5231 77.2919 16.5876C77.7141 16.652 78.0037 17.0461 77.9388 17.4677ZM86.1077 19.134L93.1935 20.2166C93.4187 20.2514 93.6289 20.0969 93.6631 19.8718C93.6974 19.6466 93.5429 19.4366 93.3177 19.4024L86.2323 18.3197C86.008 18.2856 85.7974 18.4394 85.7627 18.6646C85.728 18.8896 85.8821 19.0999 86.1077 19.134Z" fill="#DEEDF2"/>
<path d="M118.894 33.7929L116.27 50.9245L54.9062 41.542L57.5308 24.4105C58.0439 21.0634 61.1718 18.7635 64.5223 19.276L112.727 26.6471C116.075 27.1588 119.407 30.446 118.894 33.7929Z" fill="#2A8FEC"/>
<path fill-rule="evenodd" clip-rule="evenodd" d="M112.495 75.6013L51.1328 66.2188L54.9068 41.5879L116.269 50.9705L112.495 75.6013Z" fill="#DEEDF2"/>
<path fill-rule="evenodd" clip-rule="evenodd" d="M109.271 62.4571C108.665 66.411 104.965 69.1264 101.007 68.5208C97.0484 67.9155 94.3303 64.2197 94.936 60.2653C95.5425 56.3113 99.2424 53.5964 103.201 54.2016C107.159 54.8064 109.877 58.5031 109.271 62.4571Z" fill="#CEDEE7"/>
<path fill-rule="evenodd" clip-rule="evenodd" d="M91.7191 59.0716L58.8432 54.0454L58.6562 55.2651L91.5321 60.2921L91.7191 59.0716Z" fill="white"/>
<path fill-rule="evenodd" clip-rule="evenodd" d="M112.51 75.4836L108.736 100.115L47.375 90.7311L49.0858 79.5622L49.6401 75.9379L51.149 66.1011L61.1557 67.6319L62.3832 67.8206L64.9187 68.2064L65.035 68.224L112.51 75.4836Z" fill="#9BC3D3"/>
<path fill-rule="evenodd" clip-rule="evenodd" d="M105.419 87.5892C104.814 91.5431 101.113 94.2581 97.155 93.6529C93.1971 93.0472 90.4791 89.3513 91.0843 85.3974C91.6904 81.4434 95.3907 78.728 99.349 79.3328C103.308 79.9385 106.025 83.6348 105.419 87.5892Z" fill="#DEEDF2"/>
<path fill-rule="evenodd" clip-rule="evenodd" d="M81.6481 82.7907L59.0971 79.3428L58.9102 80.5638L81.4611 84.0112L81.6481 82.7907Z" fill="#DEEDF2"/>
<path fill-rule="evenodd" clip-rule="evenodd" d="M62.7134 76.1733C58.9149 78.9278 53.5314 80.273 48.9688 80.2572L49.4906 76.9633L50.9091 68.0249L60.0015 69.4658L64.6867 70.6411L67.7155 71.1191L67.8116 70.9865L67.8541 71.1415L69.7695 77.9969L62.7139 76.1733H62.7134Z" fill="#34466B"/>
<path fill-rule="evenodd" clip-rule="evenodd" d="M59.6872 72.4091C43.9965 78.148 25.9931 71.9175 17.4374 56.9339C7.89636 40.2191 13.7241 18.9415 30.4558 9.41003C47.1876 -0.122217 68.4865 5.69931 78.0283 22.4129C86.5818 37.3985 82.7841 56.0495 69.8505 66.6184L69.7961 78.3205L59.6872 72.4091Z" fill="white"/>
<path fill-rule="evenodd" clip-rule="evenodd" d="M68.2375 32.0964L41.4288 55.5007L27.6562 39.6636L33.1192 34.9129L42.1319 45.2768L63.4765 26.6426L68.2375 32.0964Z" fill="#2C9891"/>
</svg>
