<svg width="160" height="160" viewBox="0 0 160 160" fill="none" xmlns="http://www.w3.org/2000/svg">
<path fill-rule="evenodd" clip-rule="evenodd" d="M79.2091 14.1348C60.1875 27.8492 44.6728 23.875 34.2966 22.1704C13.5926 18.768 5.87544 38.1668 13.4279 52.8933C20.9807 67.6194 27.3076 85.5372 9.13086 99.7443C-9.04545 113.951 11.4136 149.892 40.7089 139.978C70.0037 130.063 103.076 131.465 118.148 142.185C133.22 152.905 166.467 127.844 140.161 102.606C113.856 77.3677 131.026 66.6188 140.008 55.1371C148.989 43.655 145.313 22.4962 120.182 12.1876C120.182 12.1876 98.2311 0.420872 79.2091 14.1348Z" fill="#EAF7FE"/>
<path fill-rule="evenodd" clip-rule="evenodd" d="M159.604 138.403C159.604 143.122 124.772 146.948 81.8039 146.948C38.8361 146.948 4.00391 143.122 4.00391 138.403C4.00391 133.683 38.8361 129.857 81.8039 129.857C124.772 129.857 159.604 133.683 159.604 138.403Z" fill="#CEDEE7"/>
<path fill-rule="evenodd" clip-rule="evenodd" d="M80.4396 117.818L38.5469 114.367L46.8387 58.1816L86.9105 61.4821L80.4396 117.818Z" fill="#2A8FEC"/>
<path fill-rule="evenodd" clip-rule="evenodd" d="M86.9126 61.4546L86.8684 114.856L80.3672 117.818L86.9126 61.4546Z" fill="#1B4872"/>
<path fill-rule="evenodd" clip-rule="evenodd" d="M74.234 66.6379C73.3504 70.0226 71.3956 72.7257 68.8689 74.0436C67.5533 74.7357 66.088 74.9982 64.69 74.8825C62.8317 74.7286 61.097 73.899 60.0128 72.4855C58.6863 70.7648 58.2657 68.3231 58.7281 65.0285C58.7969 64.5253 58.8793 64.0226 58.9622 63.5156C59.2013 62.0498 59.4312 60.6477 59.3737 59.2725L60.7528 59.3871C60.7934 60.8579 60.5544 62.3194 60.318 63.7438C60.241 64.2371 60.1592 64.7305 60.0871 65.2195C59.6789 68.1299 60.009 70.2267 61.0981 71.6407C62.5818 73.5688 65.7844 74.0982 68.2341 72.8201C70.4193 71.6773 72.122 69.2956 72.9064 66.2869C73.397 64.3927 73.526 62.4176 73.5401 60.4469L74.9105 60.5604C74.8964 62.5868 74.7571 64.6306 74.234 66.6379Z" fill="white"/>
<path fill-rule="evenodd" clip-rule="evenodd" d="M58.1854 80.9417L54.1956 115.636L28.3672 113.511L33.4801 78.9087L58.1854 80.9417Z" fill="#9E3667"/>
<path fill-rule="evenodd" clip-rule="evenodd" d="M58.2931 80.7271L58.9109 115.636L54.1836 115.547L58.2931 80.7271Z" fill="#723846"/>
<path fill-rule="evenodd" clip-rule="evenodd" d="M50.4912 84.0899C49.9411 86.1367 48.7255 87.7711 47.1533 88.5682C46.3347 88.986 45.4226 89.1449 44.5531 89.0748C43.3966 88.9817 42.3171 88.481 41.6428 87.6255C40.8177 86.5856 40.5552 85.109 40.8434 83.1168C40.886 82.8124 40.9374 82.509 40.9888 82.202C41.1381 81.3155 41.2808 80.4676 41.2447 79.6362L42.1027 79.7052C42.1284 80.5949 41.9797 81.4787 41.8326 82.34C41.7845 82.6385 41.7342 82.9365 41.6893 83.2323C41.435 84.9919 41.6401 86.2598 42.3176 87.1146C43.2412 88.2809 45.2339 88.6008 46.758 87.8278C48.1179 87.1371 49.1777 85.697 49.6655 83.8775C49.9706 82.7327 50.051 81.5381 50.0598 80.3467L50.9123 80.4157C50.9035 81.6408 50.8166 82.876 50.4912 84.0899Z" fill="white"/>
<path fill-rule="evenodd" clip-rule="evenodd" d="M121.093 66.5564L102.449 65.0933C102.078 65.0641 101.733 65.2934 101.616 65.6472L84.5434 117.24L29.2799 112.903L20.0374 73.9134L96.9867 79.4865L97.466 77.8682L19.0514 72.2161C18.7948 72.1977 18.543 72.3037 18.3766 72.5C18.2097 72.6958 18.146 72.962 18.2054 73.2124L27.8391 113.853C27.9206 114.197 28.2129 114.447 28.5641 114.475L85.0496 118.907C85.4202 118.936 85.7654 118.706 85.8821 118.353L102.955 66.7608L120.602 68.1741" fill="#34466B"/>
<path fill-rule="evenodd" clip-rule="evenodd" d="M85.5583 118.96C86.2423 119.013 86.8682 119.279 87.3906 119.46C87.7839 119.596 88.1227 119.775 88.4225 120.022C88.8694 120.394 89.2535 120.927 89.5474 121.81C89.8386 122.691 90.0196 123.915 90.0191 125.572C90.0191 126.269 89.9872 127.042 89.9207 127.898C89.7154 130.543 87.5127 132.553 84.9199 132.553C84.7881 132.553 84.6552 132.547 84.5206 132.537L28.4942 128.122L28.3672 129.747L84.3942 134.161C84.5704 134.175 84.7459 134.182 84.9199 134.182C88.3561 134.181 91.2623 131.525 91.5362 128.025C91.6059 127.133 91.6399 126.318 91.6399 125.572C91.6399 123.995 91.4908 122.724 91.2012 121.679C90.984 120.896 90.6847 120.238 90.3054 119.694C89.7387 118.876 88.9855 118.337 88.1848 118.018C87.3831 117.697 86.5386 117.573 85.6931 117.505L85.0474 117.455L84.9126 118.909L85.5583 118.96Z" fill="#34466B"/>
<path fill-rule="evenodd" clip-rule="evenodd" d="M74.2005 137.392C73.9656 140.395 76.2089 143.02 79.2118 143.255C82.2151 143.491 84.8404 141.247 85.0758 138.244C85.3107 135.241 83.0673 132.616 80.0645 132.38C77.0612 132.145 74.4359 134.389 74.2005 137.392Z" fill="#34466B"/>
<path fill-rule="evenodd" clip-rule="evenodd" d="M30.5638 134.119C30.3289 137.123 32.5722 139.748 35.575 139.983C38.5784 140.218 41.2037 137.974 41.4391 134.972C41.674 131.969 39.4306 129.343 36.4278 129.108C33.4244 128.872 30.7992 131.116 30.5638 134.119Z" fill="#34466B"/>
<path d="M80.8895 77.8179L76 117.259L77.656 117.454L82.5455 78.0132" fill="#34466B"/>
<path d="M69.3216 76.7271L65.457 116.202L67.0471 116.363L70.9116 76.888" fill="#34466B"/>
<path d="M57.6508 76L54.5469 115.51L56.1708 115.636L59.2741 76.1267" fill="#34466B"/>
<path d="M46.3303 75.2725L44 114.816L45.6697 114.909L48 75.3655" fill="#34466B"/>
<path d="M33.6811 74.1816L33.0938 113.794L34.6877 113.818L35.2756 74.2065" fill="#34466B"/>
<path d="M94.184 89.6553L21.9475 84L21.8203 85.6174L94.0573 91.2727" fill="#34466B"/>
<path d="M88.9112 104.363L25.9468 99.2725L25.8203 100.89L88.6029 105.818L88.9112 104.363Z" fill="#34466B"/>
<path fill-rule="evenodd" clip-rule="evenodd" d="M138.547 106.503L136.932 142.545L110.184 142.209L112.962 106.182L138.547 106.503Z" fill="#1BB3BC"/>
<path fill-rule="evenodd" clip-rule="evenodd" d="M138.344 106.545L141.458 142.308L136.73 142.545L138.344 106.545Z" fill="#137E84"/>
<path fill-rule="evenodd" clip-rule="evenodd" d="M130.338 110.468C129.925 112.607 128.8 114.369 127.25 115.297C126.443 115.783 125.522 116.01 124.628 116C123.438 115.985 122.298 115.546 121.545 114.716C120.625 113.706 120.25 112.209 120.399 110.145C120.421 109.829 120.451 109.514 120.482 109.196C120.569 108.275 120.653 107.396 120.556 106.545L121.439 106.556C121.53 107.467 121.442 108.384 121.354 109.279C121.327 109.588 121.297 109.898 121.272 110.204C121.141 112.028 121.443 113.315 122.198 114.145C123.227 115.276 125.289 115.465 126.792 114.566C128.132 113.761 129.111 112.209 129.477 110.309C129.706 109.111 129.702 107.88 129.624 106.657L130.5 106.668C130.581 107.926 130.582 109.2 130.338 110.468Z" fill="white"/>
<path fill-rule="evenodd" clip-rule="evenodd" d="M82.4027 16.9685C81.8056 12.1183 77.6719 8.36328 72.6618 8.36328C67.2414 8.36328 62.8471 12.7586 62.8471 18.1808C62.8471 19.0704 62.9653 19.9323 63.1872 20.7517C63.1038 20.7528 63.0212 20.7558 62.9391 20.7606L62.8467 20.7529V20.7667C60.0355 20.978 57.8196 23.3269 57.8196 26.1932C57.8196 29.0596 60.0355 31.4085 62.8467 31.6198V31.636H98.5806V31.6355H98.5807C100.771 31.6355 102.547 29.8589 102.547 27.6676C102.547 25.4764 100.771 23.7001 98.5807 23.7001H98.5806V23.6999L89.5272 22.9533C89.5686 22.6828 89.59 22.4058 89.59 22.1238C89.59 19.1183 87.1545 16.6817 84.1499 16.6817C83.5387 16.6817 82.9511 16.7826 82.4027 16.9685Z" fill="#CEDEE7"/>
<path fill-rule="evenodd" clip-rule="evenodd" d="M32.9232 37.9557C33.3602 34.3938 36.3848 31.6362 40.0508 31.6362C44.0168 31.6362 47.2322 34.8641 47.2322 38.846C47.2322 39.4993 47.1457 40.1322 46.9834 40.734C47.0444 40.7348 47.1048 40.737 47.1649 40.7405L47.2325 40.7349V40.745C49.2895 40.9001 50.9109 42.6251 50.9109 44.7301C50.9109 46.8351 49.2895 48.5601 47.2325 48.7152V48.7271H21.0857V48.7267H21.0857C19.483 48.7267 18.1836 47.4221 18.1836 45.8129C18.1836 44.2037 19.483 42.8992 21.0857 42.8992H21.0857V42.8991L27.7102 42.3508C27.6799 42.1521 27.6642 41.9487 27.6642 41.7416C27.6642 39.5344 29.4463 37.7451 31.6448 37.7451C32.092 37.7451 32.522 37.8191 32.9232 37.9557Z" fill="#DEEDF2"/>
</svg>
