<svg width="161" height="160" viewBox="0 0 161 160" fill="none" xmlns="http://www.w3.org/2000/svg">
<path fill-rule="evenodd" clip-rule="evenodd" d="M65.4344 123.58C65.0242 123.17 64.6219 122.756 64.2275 122.336C56.2837 113.894 45.7594 108.384 34.3539 106.313C27.4312 105.056 20.8071 101.752 15.4546 96.4013C1.43516 82.3868 1.41924 59.7864 15.4198 45.7527C21.5959 39.5621 29.4712 36.1028 37.5465 35.3738C44.4599 34.7496 50.9553 31.7337 55.7517 26.7159C55.8136 26.6513 55.8758 26.5871 55.9381 26.5235C64.1204 18.1769 77.3565 18.0943 85.638 26.3417C85.6855 26.3887 85.7326 26.4363 85.7792 26.4838C87.9914 28.7288 91.1845 29.7092 94.2784 29.1085C111.918 25.6833 130.889 30.8012 144.551 44.4632C166.381 66.2931 166.381 101.751 144.551 123.581C122.703 145.428 87.2818 145.428 65.4344 123.58Z" fill="#DEEDF2"/>
<path fill-rule="evenodd" clip-rule="evenodd" d="M97.7461 139.545H147.664V19.4292H97.7461V139.545Z" fill="#CEDEE7"/>
<path fill-rule="evenodd" clip-rule="evenodd" d="M118.412 139.935H126.212V132.135H118.412V139.935Z" fill="#767676"/>
<path fill-rule="evenodd" clip-rule="evenodd" d="M101.646 114.586H104.766V55.6978H101.646V114.586Z" fill="#9BC3D3"/>
<path fill-rule="evenodd" clip-rule="evenodd" d="M107.887 114.586H111.007V55.6978H107.887V114.586Z" fill="#9BC3D3"/>
<path fill-rule="evenodd" clip-rule="evenodd" d="M114.904 114.586H118.024V55.6982H114.904V114.586Z" fill="#9BC3D3"/>
<path fill-rule="evenodd" clip-rule="evenodd" d="M121.145 114.586H124.264V55.6978H121.145V114.586Z" fill="#9BC3D3"/>
<path fill-rule="evenodd" clip-rule="evenodd" d="M127.387 114.586H130.507V55.6978H127.387V114.586Z" fill="#9BC3D3"/>
<path fill-rule="evenodd" clip-rule="evenodd" d="M134.016 114.586H137.136V55.6978H134.016V114.586Z" fill="#9BC3D3"/>
<path fill-rule="evenodd" clip-rule="evenodd" d="M140.645 114.586H143.764V55.6978H140.645V114.586Z" fill="#9BC3D3"/>
<path fill-rule="evenodd" clip-rule="evenodd" d="M101.646 38.9284H104.766V25.6689H101.646V38.9284Z" fill="#9BC3D3"/>
<path fill-rule="evenodd" clip-rule="evenodd" d="M107.887 38.9284H111.007V25.6689H107.887V38.9284Z" fill="#9BC3D3"/>
<path fill-rule="evenodd" clip-rule="evenodd" d="M114.904 38.9284H118.024V25.6689H114.904V38.9284Z" fill="#9BC3D3"/>
<path fill-rule="evenodd" clip-rule="evenodd" d="M121.145 38.9284H124.264V25.6689H121.145V38.9284Z" fill="#9BC3D3"/>
<path fill-rule="evenodd" clip-rule="evenodd" d="M127.387 38.9284H130.507V25.6689H127.387V38.9284Z" fill="#9BC3D3"/>
<path fill-rule="evenodd" clip-rule="evenodd" d="M134.016 38.9284H137.136V25.6689H134.016V38.9284Z" fill="#9BC3D3"/>
<path fill-rule="evenodd" clip-rule="evenodd" d="M140.645 38.9284H143.764V25.6689H140.645V38.9284Z" fill="#9BC3D3"/>
<path fill-rule="evenodd" clip-rule="evenodd" d="M94.625 52.5784H150.783V42.0488H94.625V52.5784Z" fill="#9BC3D3"/>
<path fill-rule="evenodd" clip-rule="evenodd" d="M109.836 19.4294H134.795V7.33984H109.836V19.4294Z" fill="#9BC3D3"/>
<path fill-rule="evenodd" clip-rule="evenodd" d="M119.973 6.94993H125.432V5H119.973V6.94993Z" fill="#9BC3D3"/>
<path fill-rule="evenodd" clip-rule="evenodd" d="M147.664 52.5781H97.7461L100.539 55.698H147.664V52.5781Z" fill="#9BC3D3"/>
<path fill-rule="evenodd" clip-rule="evenodd" d="M101.254 118.096V128.235H117.33L127.383 118.096H101.254Z" fill="#9BC3D3"/>
<path fill-rule="evenodd" clip-rule="evenodd" d="M143.373 118.096H127.297L117.244 128.235H143.373V118.096Z" fill="#9BC3D3"/>
<path fill-rule="evenodd" clip-rule="evenodd" d="M94.625 45.1687H150.783V42.0488H94.625V45.1687Z" fill="#9BC3D3"/>
<path fill-rule="evenodd" clip-rule="evenodd" d="M32.9439 120.097L49.5011 148.87H142.334C155.224 148.87 163.28 134.87 156.835 123.67L134.133 84.2138C123.627 65.9503 102.24 56.9972 81.9106 62.3529L53.8847 69.7353C32.0608 75.4803 21.6618 100.486 32.9439 120.097Z" fill="#1B4872"/>
<path fill-rule="evenodd" clip-rule="evenodd" d="M54.586 77.674C54.6152 77.8168 54.7061 78.2369 54.8236 78.7734C55.3679 81.2615 57.3487 83.1753 59.847 83.6402C65.7751 84.7435 76.89 84.9621 86.0195 74.5219C86.0213 74.3891 76.3413 49.7587 75.7773 48.0215C75.2956 46.5394 74.9663 45.2171 74.7595 44.2543C74.5418 43.2426 74.1049 35.2788 74.1049 35.2788L73.2174 44.0817L69.6012 48.3615L69.2827 48.7356L69.0001 49.0684L66.5819 51.9349L52.9987 67.9915C52.9987 67.9915 53.4701 72.1706 54.586 77.674Z" fill="#FFC4B8"/>
<path d="M54.4166 77.5451C54.4172 77.5445 54.4172 77.5443 54.4171 77.544C54.3505 77.2464 54.2862 76.953 54.2241 76.6646C54.2861 76.9533 54.3502 77.2471 54.4166 77.5451Z" fill="#2A8FEC"/>
<path fill-rule="evenodd" clip-rule="evenodd" d="M54.7689 77.5453C64.0087 73.9799 66.0925 70.0877 68.4102 55.9717L61.9923 67.7279C60.2518 70.8277 57.1253 72.5665 53.881 72.7167C54.0707 73.8633 54.3016 75.1699 54.5773 76.5828C54.6391 76.8981 54.7031 77.2188 54.7694 77.5441C54.7695 77.5444 54.7695 77.5447 54.7696 77.545" fill="#F4A48D"/>
<path fill-rule="evenodd" clip-rule="evenodd" d="M78.7518 33.0297C76.9535 46.1573 64.8504 55.3442 51.7238 53.5457C46.6734 52.8538 42.2028 50.6315 38.7187 47.4161L46.0761 47.3835L45.0074 34.7725L44.6763 30.871L35.232 31.7263L31.0948 32.1029C31.0393 31.5212 31.0034 30.9328 30.9923 30.3386C30.9837 30.0397 30.9863 29.7445 30.9886 29.4431C31.0034 28.4771 31.0738 27.4988 31.2085 26.5168C33.0069 13.3886 45.105 4.20575 58.2364 6.0055C62.4989 6.58854 66.3459 8.25859 69.5371 10.6994C74.0887 14.1779 77.3073 19.2251 78.4825 24.9147C79.0213 27.5124 79.1323 30.2521 78.7518 33.0297Z" fill="#CEDEE7"/>
<path fill-rule="evenodd" clip-rule="evenodd" d="M32.0762 34.3978L27.3379 22.1756C26.5993 20.2296 27.1801 18.0313 28.7842 16.7028L29.524 16.089C28.4796 15.0803 29.1738 13.315 30.6263 13.2843L52.459 12.8242L67.9668 23.658L32.0762 34.3978Z" fill="#CEDEE7"/>
<path fill-rule="evenodd" clip-rule="evenodd" d="M34.3343 56.4154C34.5376 56.8849 34.7594 57.3478 35.0022 57.8029C35.789 59.2994 36.7848 60.6868 37.9669 61.9224L40.1868 64.2606L41.5844 65.7303L41.72 65.869L41.7883 65.943C43.3014 67.5358 45.1114 69.2837 47.0774 70.8972C51.821 74.7925 58.9017 73.4689 61.8925 68.0899L71.1959 50.8794L75.8926 42.1952C75.8926 42.1952 73.8479 39.9863 73.1439 39.8871L72.2462 41.3436L65.1444 25.4588L54.8897 23.4317C52.1978 22.9004 49.4657 22.8135 46.7952 23.1499C42.7893 23.6551 38.9242 25.11 35.5331 27.4487C33.0812 29.1382 31.6974 31.999 31.881 34.9835L32.8348 50.1352C32.9691 52.3146 33.4829 54.4368 34.3343 56.4154Z" fill="#FFC4B8"/>
<path fill-rule="evenodd" clip-rule="evenodd" d="M68.8939 33.5203C68.8939 33.5203 62.92 34.9166 55.9158 34.1867C49.6247 33.5312 44.916 28.0796 45.0767 21.7259L45.1906 17.2271L66.1121 19.6613C66.1121 19.6613 77.0824 35.0144 68.8939 33.5203Z" fill="#CEDEE7"/>
<path fill-rule="evenodd" clip-rule="evenodd" d="M31.4246 57.2928L34.8933 56.6375L37.479 56.1453L39.3496 55.7917L36.0338 37.0893L31.8166 37.04L31.4246 57.2928Z" fill="#FFC4B8"/>
<path fill-rule="evenodd" clip-rule="evenodd" d="M74.0339 38.6065C74.4853 35.3342 73.3177 32.4728 71.426 32.2154C69.5343 31.958 67.6348 34.4022 67.1834 37.6745C66.732 40.9469 67.8995 43.8082 69.7913 44.0657C71.683 44.323 73.5825 41.879 74.0339 38.6065Z" fill="#FFC4B8"/>
<path d="M34.9482 56.8524L37.5721 56.4287C37.578 56.4232 37.5839 56.4176 37.5898 56.4121L37.3241 56.4547L34.9494 56.8381L34.9482 56.8524Z" fill="#FFC4B8"/>
<path fill-rule="evenodd" clip-rule="evenodd" d="M34.9465 56.852L37.2948 56.403L37.5576 56.3532C38.2966 55.526 38.6475 54.3671 38.3789 53.1772L36.3411 44.084L34.9465 56.852Z" fill="#F4A48D"/>
<path fill-rule="evenodd" clip-rule="evenodd" d="M68.4072 90.7536C68.4072 90.7536 75.127 62.4369 83.1308 58.6133L90.8613 62.8465L87.7144 83.6945L68.4072 90.7536Z" fill="#1B4872"/>
<path fill-rule="evenodd" clip-rule="evenodd" d="M22.193 152.447C22.3406 152.447 22.4871 152.445 22.6336 152.44L31.0879 152.165L26.0779 146.369L14.3694 148.194L15.5525 150.754L16.7044 151.275C18.4064 152.046 20.2874 152.447 22.193 152.447Z" fill="#F4A48D"/>
<path fill-rule="evenodd" clip-rule="evenodd" d="M21.0771 152.747L1.24969 105.605C0.313683 103.38 1.48342 100.598 3.35545 100.598H47.1669C48.0358 100.598 48.8385 101.234 49.2728 102.267L69.1003 149.41C70.0362 151.634 68.8663 154.416 66.9943 154.416H23.1828C22.3139 154.416 21.511 153.781 21.0771 152.747Z" fill="#EAF7FE"/>
<path fill-rule="evenodd" clip-rule="evenodd" d="M28.2472 146.019V145.779L29.616 145.798C30.9658 145.817 32.0975 144.897 32.1971 143.701L32.2194 143.432C32.3134 142.313 31.4702 141.302 30.24 141.055L30.2557 140.007C30.2803 138.371 28.9238 136.977 27.0988 136.764L21.0958 136.064L21.1942 135.751C21.76 133.955 20.6104 132.086 18.6053 131.541L12.5553 129.897C11.6294 129.645 10.6341 130.02 10.1946 130.787L9.74507 131.568C9.24631 132.437 9.62876 133.501 10.6028 133.951L12.7365 134.936L12.25 135.772C11.4337 137.175 11.3923 138.835 12.1371 140.27L12.4346 140.841C11.5232 142.031 11.4214 143.569 12.1684 144.846L12.495 145.403L12.6493 147.308C12.7756 148.862 13.9085 150.209 15.549 150.755L27.1278 147.392C27.7955 147.198 28.2472 146.644 28.2472 146.019Z" fill="#FFC4B8"/>
<path fill-rule="evenodd" clip-rule="evenodd" d="M63.3438 102.57L62.2129 100.601C62.1266 100.451 62.067 100.29 62.034 100.125L61.9867 100.208C61.7068 100.695 61.7068 101.295 61.9867 101.782L62.8915 103.357C63.1713 103.844 63.1713 104.445 62.8915 104.932L62.8442 105.014C62.8111 104.849 62.7515 104.688 62.6653 104.538L61.3081 102.176C61.2219 102.026 61.1623 101.865 61.1292 101.7L61.082 101.782C60.803 102.268 60.8022 102.866 61.0792 103.352L61.9867 104.932C62.2666 105.419 62.2666 106.019 61.9867 106.507L61.9394 106.589C61.9064 106.424 61.8468 106.263 61.7605 106.113L60.6296 104.144C60.4779 103.88 60.4086 103.583 60.4213 103.289C59.2106 103.607 58.375 104.282 58.375 105.063C58.375 106.15 59.992 107.031 61.9867 107.031C63.9814 107.031 65.5984 106.15 65.5984 105.063C65.5984 104.282 64.7629 103.606 63.5521 103.289C63.5414 103.04 63.472 102.793 63.3438 102.57Z" fill="#1B4872"/>
<path fill-rule="evenodd" clip-rule="evenodd" d="M87.1224 86.2488L76.6333 127.271L80.2622 128.199L90.7514 87.1768L87.1224 86.2488Z" fill="#F6C854"/>
<path fill-rule="evenodd" clip-rule="evenodd" d="M77.1613 132.551L76.6407 127.288L80.2544 128.213L77.1613 132.551Z" fill="#FFE99F"/>
<path fill-rule="evenodd" clip-rule="evenodd" d="M91.174 85.3208L87.5686 84.3993L87.0859 86.2879L90.6913 87.2094L91.174 85.3208Z" fill="#DEEDF2"/>
<path fill-rule="evenodd" clip-rule="evenodd" d="M87.7022 83.603C87.9392 82.5835 88.9578 81.9492 89.9773 82.1862C90.9968 82.4232 91.6311 83.4418 91.3941 84.4613L91.1908 85.3357L87.4997 84.4776L87.703 83.603" fill="#F4A48D"/>
<path fill-rule="evenodd" clip-rule="evenodd" d="M89.6738 93.5451C88.3572 92.8075 86.772 92.7325 85.3842 93.3422L76.3077 97.3302C75.1164 97.8538 74.6067 99.2848 75.198 100.446C75.7352 101.502 76.9927 101.95 78.074 101.472L84.5125 98.625L73.0329 106.036C72.0326 106.682 71.7228 108.014 72.3358 109.033C72.9331 110.026 74.1969 110.369 75.2147 109.815L80.0813 107.165L80.379 107.763L75.8298 112.632C75.2461 113.257 75.1378 114.189 75.5538 114.924L75.6004 115.002C76.1919 115.942 77.4491 116.177 78.3438 115.515C79.5218 114.643 81.1572 113.436 82.6599 112.338L83.3492 113.721L81.7929 116.769C81.4783 117.385 81.5827 118.129 82.0457 118.627L82.103 118.686C82.6046 119.173 83.362 119.277 83.9792 118.943L85.533 118.101L85.6485 118.334L87.539 120.905C88.1678 121.762 88.8365 122.587 89.5413 123.377C90.4073 124.35 91.3292 125.272 92.302 126.138L98.3794 131.548C107.479 143.302 116.05 147.311 129.318 149.152L143.737 149.122C146.782 135.605 136.96 132.335 136.96 132.335L134.427 131.906C124.847 130.29 115.684 126.799 107.448 121.632L102.988 118.832L102.988 118.832L101.175 106.778C100.769 104.081 99.4119 101.631 97.3565 99.8784L97.212 99.7572L89.6738 93.5451Z" fill="#FFC4B8"/>
<path fill-rule="evenodd" clip-rule="evenodd" d="M105.449 35.2192C104.949 31.1555 101.489 28.0093 97.2955 28.0093C92.7584 28.0093 89.0802 31.692 89.0802 36.235C89.0802 36.9803 89.1792 37.7025 89.3648 38.389C89.2951 38.3899 89.2259 38.3924 89.1572 38.3964L89.0798 38.3901V38.4016C86.7268 38.5786 84.872 40.5466 84.872 42.9483C84.872 45.3499 86.7268 47.3179 89.0798 47.4949V47.5085H118.991C120.824 47.5081 122.311 46.0196 122.311 44.1836C122.311 42.3477 120.824 40.8593 118.991 40.8593L111.413 40.2336C111.447 40.007 111.465 39.7749 111.465 39.5386C111.465 37.0204 109.426 34.979 106.912 34.979C106.4 34.979 105.908 35.0634 105.449 35.2192Z" fill="#EAF7FE"/>
<path fill-rule="evenodd" clip-rule="evenodd" d="M135.696 53.8862C135.977 51.6105 137.923 49.8486 140.282 49.8486C142.834 49.8486 144.903 51.9109 144.903 54.455C144.903 54.8724 144.847 55.2768 144.743 55.6613C144.782 55.6618 144.821 55.6632 144.86 55.6654L144.903 55.6619V55.6683C146.227 55.7675 147.27 56.8696 147.27 58.2145C147.27 59.5594 146.227 60.6615 144.903 60.7606V60.7682H128.078C127.047 60.768 126.211 59.9344 126.211 58.9063C126.211 57.8781 127.047 57.0447 128.078 57.0447L132.341 56.6943C132.322 56.5674 132.311 56.4374 132.311 56.3051C132.311 54.8949 133.458 53.7517 134.873 53.7517C135.161 53.7517 135.437 53.799 135.696 53.8862Z" fill="#EAF7FE"/>
</svg>
