<svg width="160" height="160" viewBox="0 0 160 160" fill="none" xmlns="http://www.w3.org/2000/svg">
<path fill-rule="evenodd" clip-rule="evenodd" d="M56.5605 125.358C57.1622 125.384 57.7627 125.4 58.3618 125.407C70.4229 125.545 81.8581 129.737 91.1284 137.036C96.7548 141.466 103.821 144.221 111.677 144.553C132.254 145.422 150.359 129.466 152.251 108.796C153.086 99.677 150.6 91.183 145.793 84.4643C141.68 78.7118 139.759 71.5909 140.575 64.361C140.586 64.2678 140.596 64.1746 140.605 64.0819C141.827 51.899 133.059 41.6721 120.929 41.1367C120.859 41.1334 120.79 41.1308 120.721 41.1286C117.447 41.0152 114.531 39.2547 112.947 36.4534C103.917 20.4818 87.1583 9.52367 67.102 8.67989C35.0548 7.3318 6.6664 32.3829 3.75797 64.5772C0.847576 96.797 24.4877 124.009 56.5605 125.358Z" fill="#EAF7FE"/>
<path d="M95.8164 156.812L51.9865 150.112C47.1192 149.366 43.7769 144.821 44.5218 139.957L62.3922 23.3261C63.1373 18.4636 67.6871 15.1246 72.5557 15.8689L116.384 22.5705C121.253 23.3154 124.595 27.8605 123.849 32.723L105.979 149.355C105.234 154.218 100.685 157.556 95.8164 156.812Z" fill="#9E3667"/>
<path d="M93.125 156.402L49.2951 149.7C44.4278 148.956 41.0856 144.409 41.8304 139.547L59.7004 22.9155C60.4459 18.053 64.9958 14.714 69.8639 15.4583L113.693 22.1604C118.561 22.9041 121.903 27.4498 121.158 32.3124L103.288 148.944C102.543 153.807 97.9923 157.146 93.125 156.402Z" fill="white"/>
<path d="M120.4 37.2673L103.881 145.082C103.367 148.434 99.1975 150.576 95.8445 150.063L47.565 142.681C44.2101 142.168 41.9097 139.037 42.4232 135.685L58.9425 27.8705C59.4564 24.5183 62.5891 22.2152 65.9447 22.7282L114.223 30.1105C117.576 30.6231 120.914 33.9154 120.4 37.2673Z" fill="white"/>
<path fill-rule="evenodd" clip-rule="evenodd" d="M103.054 26.0375C103.864 26.1617 104.623 25.6052 104.746 24.7952C104.871 23.9846 104.314 23.2277 103.504 23.1036C102.693 22.9801 101.935 23.5359 101.81 24.3465C101.687 25.1565 102.243 25.9141 103.054 26.0375ZM81.4735 22.0184C81.896 22.083 82.2907 21.7933 82.3557 21.3707C82.4203 20.9482 82.1302 20.5537 81.7078 20.489C81.285 20.4244 80.8898 20.7143 80.8256 21.1367C80.7601 21.5591 81.0507 21.9537 81.4735 22.0184ZM79.3868 20.9175C79.3217 21.3394 78.927 21.6299 78.5046 21.5652C78.0817 21.4998 77.7921 21.106 77.8567 20.6835C77.9217 20.2609 78.3165 19.9712 78.7384 20.0359C79.1613 20.1005 79.4514 20.4951 79.3868 20.9175ZM87.5695 22.5853L94.6662 23.6701C94.8916 23.705 95.1022 23.5504 95.1365 23.3251C95.1708 23.0998 95.016 22.8896 94.7906 22.8553L87.6938 21.7704C87.4692 21.7362 87.2587 21.8901 87.2235 22.1155C87.1892 22.3407 87.3435 22.5511 87.5695 22.5853Z" fill="#DEEDF2"/>
<path fill-rule="evenodd" clip-rule="evenodd" d="M95.8085 156.785L51.9786 150.085C47.1114 149.339 43.7691 144.794 44.514 139.931L62.3843 23.2993C63.1294 18.4367 67.6793 15.0978 72.5479 15.8421L116.376 22.5436C121.245 23.2886 124.587 27.8337 123.841 32.6962L105.972 149.328C105.227 154.191 100.677 157.529 95.8085 156.785Z" fill="#9E3667"/>
<path fill-rule="evenodd" clip-rule="evenodd" d="M93.1172 156.375L49.2873 149.673C44.42 148.93 41.0778 144.383 41.8226 139.521L59.6925 22.8891C60.438 18.0266 64.9879 14.6877 69.8561 15.4319L113.685 22.1341C118.553 22.8777 121.896 27.4234 121.15 32.2861L103.28 148.917C102.535 153.781 97.9844 157.119 93.1172 156.375Z" fill="white"/>
<path d="M120.396 37.2405L103.877 145.055C103.363 148.406 99.1933 150.549 95.8407 150.036L47.5612 142.654C44.2062 142.141 41.9059 139.01 42.4193 135.657L58.9388 27.8437C59.4522 24.4915 62.5853 22.1884 65.9405 22.7013L114.219 30.0837C117.572 30.5963 120.91 33.8886 120.396 37.2405Z" fill="white"/>
<path fill-rule="evenodd" clip-rule="evenodd" d="M104.423 141.486L103.875 145.055C103.847 145.235 103.81 145.41 103.761 145.581C102.919 148.628 99.012 150.523 95.8397 150.037L47.5601 142.654C44.6029 142.202 42.4623 139.715 42.3524 136.835C42.3375 136.447 42.3569 136.054 42.4184 135.657L42.9651 132.088L104.423 141.486Z" fill="#CEDEE7"/>
<path d="M104.425 141.486L103.878 145.055C103.849 145.235 103.812 145.41 103.764 145.581L103.732 145.576L103.876 144.636L42.4844 135.249L42.9677 132.088L104.425 141.486Z" fill="#2A8FEC"/>
<path fill-rule="evenodd" clip-rule="evenodd" d="M103.046 26.0112C103.857 26.1353 104.615 25.5788 104.738 24.7689C104.863 23.9582 104.306 23.2014 103.496 23.0772C102.685 22.9537 101.927 23.5095 101.802 24.3202C101.678 25.1302 102.235 25.8877 103.046 26.0112ZM81.4657 21.992C81.8881 22.0566 82.2829 21.7669 82.3479 21.3444C82.4125 20.9219 82.1224 20.5274 81.7 20.4626C81.2772 20.398 80.882 20.6879 80.8178 21.1103C80.7523 21.5328 81.0429 21.9274 81.4657 21.992ZM79.379 20.8911C79.3139 21.313 78.9192 21.6036 78.4968 21.5389C78.0739 21.4735 77.7842 21.0796 77.8489 20.6571C77.9139 20.2346 78.3091 19.9449 78.7311 20.0095C79.1539 20.0741 79.4436 20.4688 79.379 20.8911ZM87.5616 22.559L94.6588 23.6437C94.8838 23.6787 95.0944 23.5241 95.1287 23.2988C95.163 23.0735 95.0082 22.8632 94.7827 22.829L87.686 21.744C87.4614 21.7098 87.2509 21.8638 87.2157 22.0891C87.1814 22.3143 87.3357 22.5247 87.5616 22.559Z" fill="#DEEDF2"/>
<path d="M120.395 37.2425L117.766 54.3999L56.3086 45.0035L58.9376 27.8457C59.451 24.4935 62.5842 22.1901 65.9394 22.7034L114.218 30.0857C117.571 30.5983 120.909 33.8905 120.395 37.2425Z" fill="#2A8FEC"/>
<path fill-rule="evenodd" clip-rule="evenodd" d="M105.096 137.136L43.6406 127.733L56.3076 45.0488L117.762 54.4515L105.096 137.136Z" fill="#CEDEE7"/>
<path fill-rule="evenodd" clip-rule="evenodd" d="M109.091 65.8974L60.4375 58.4525L61.2393 53.293L109.892 60.7378L109.091 65.8974Z" fill="white"/>
<circle cx="75.7197" cy="121.109" r="8.79121" transform="rotate(8.7 75.7197 121.109)" fill="#2A8FEC"/>
<path fill-rule="evenodd" clip-rule="evenodd" d="M73.2414 122.667C73.7095 122.534 73.9895 122.055 73.8757 121.582L73.6519 120.651C74.8937 120.484 76.6836 120.758 77.8256 121.29L77.3337 122.112C77.084 122.529 77.2075 123.069 77.6141 123.337L78.3605 123.827C78.6779 124.035 79.0911 124.024 79.3965 123.8L80.4475 123.028C80.9174 122.682 81.0185 122.022 80.673 121.551C78.3772 118.426 73.9825 117.753 70.8568 120.049C70.3869 120.395 70.2853 121.055 70.6308 121.525L71.4027 122.577C71.6273 122.882 72.0185 123.016 72.3834 122.912L73.2414 122.667Z" fill="white"/>
<path fill-rule="evenodd" clip-rule="evenodd" d="M78.2433 104.81C81.6029 105.323 84.7431 103.017 85.2574 99.6576C85.7712 96.2976 83.4649 93.1573 80.1053 92.6435C76.7458 92.1292 73.6055 94.436 73.0912 97.7956C72.577 101.155 74.8838 104.295 78.2433 104.81ZM77.9781 106.548C82.2976 107.209 86.335 104.243 86.9961 99.9237C87.6568 95.6041 84.691 91.5668 80.3719 90.9057C76.0524 90.2446 72.015 93.2103 71.3539 97.5298C70.6928 101.849 73.6585 105.887 77.9781 106.548Z" fill="white"/>
<path fill-rule="evenodd" clip-rule="evenodd" d="M81.5679 83.084C84.9274 83.5982 88.0677 81.2914 88.5815 77.9319C89.0958 74.5723 86.789 71.4321 83.4294 70.9178C80.0699 70.404 76.9296 72.7103 76.4154 76.0699C75.9015 79.4295 78.2083 82.5697 81.5679 83.084ZM81.3023 84.8218C85.6214 85.4829 89.6592 82.5172 90.3199 78.1976C90.981 73.878 88.0153 69.8407 83.6957 69.1796C79.3761 68.5185 75.3388 71.4846 74.6781 75.8037C74.017 80.1233 76.9827 84.1607 81.3023 84.8218Z" fill="white"/>
<path fill-rule="evenodd" clip-rule="evenodd" d="M97.3643 107.735C100.724 108.25 103.864 105.943 104.378 102.583C104.892 99.2237 102.586 96.0835 99.2263 95.5692C95.8667 95.0553 92.7265 97.3617 92.2122 100.721C91.6984 104.081 94.0048 107.221 97.3643 107.735ZM97.0992 109.474C101.419 110.135 105.456 107.169 106.117 102.849C106.778 98.5298 103.812 94.4924 99.493 93.8313C95.1734 93.1707 91.1361 96.1364 90.475 100.455C89.8139 104.775 92.78 108.812 97.0992 109.474Z" fill="white"/>
<path fill-rule="evenodd" clip-rule="evenodd" d="M100.689 86.0092C104.048 86.5235 107.188 84.2167 107.702 80.8572C108.217 77.4976 105.91 74.3574 102.55 73.8431C99.1906 73.3292 96.0504 75.6361 95.5366 78.9956C95.0223 82.3552 97.3291 85.4954 100.689 86.0092ZM100.423 87.7474C104.743 88.4085 108.78 85.4428 109.441 81.1233C110.102 76.8037 107.136 72.7663 102.817 72.1052C98.4972 71.4446 94.4599 74.4103 93.7992 78.7299C93.1381 83.049 96.1038 87.0868 100.423 87.7474Z" fill="white"/>
<path fill-rule="evenodd" clip-rule="evenodd" d="M59.1261 101.884C62.4857 102.398 65.6259 100.091 66.1402 96.7313C66.6541 93.3718 64.3472 90.2316 60.9877 89.7177C57.6281 89.2034 54.4879 91.5102 53.9741 94.8698C53.4598 98.2294 55.7666 101.37 59.1261 101.884ZM58.8609 103.622C63.1804 104.283 67.2178 101.317 67.8789 96.9975C68.5396 92.6783 65.5739 88.6405 61.2543 87.9799C56.9352 87.3188 52.8978 90.2845 52.2367 94.604C51.5756 98.9236 54.5413 102.961 58.8609 103.622Z" fill="white"/>
<path fill-rule="evenodd" clip-rule="evenodd" d="M62.4507 80.1597C65.8103 80.6736 68.9505 78.3668 69.4643 75.0072C69.9786 71.6477 67.6718 68.5074 64.3122 67.9936C60.9527 67.4793 57.8125 69.7861 57.2982 73.1457C56.7843 76.5052 59.0911 79.6455 62.4507 80.1597ZM62.1854 81.8979C66.5046 82.5586 70.5419 79.5929 71.203 75.2733C71.8641 70.9542 68.8984 66.9169 64.5788 66.2558C60.2593 65.5947 56.2219 68.5604 55.5608 72.8799C54.9002 77.1995 57.8659 81.2369 62.1854 81.8979Z" fill="white"/>
<path d="M50.4609 76.0785C52.8785 75.3994 55.202 74.3669 57.1216 72.9752L64.1884 74.8016L62.2702 67.9357L62.2275 67.7801L62.1313 67.9132L59.0974 67.4341L54.4051 66.257L52.0231 65.8794L50.4609 76.0785Z" fill="#34466B"/>
<path fill-rule="evenodd" clip-rule="evenodd" d="M54.0634 68.8821C38.3488 74.6298 20.3179 68.3898 11.7491 53.3832C2.19347 36.6429 8.03007 15.3327 24.7874 5.78667C41.5448 -3.76017 62.8762 2.07029 72.4327 18.8095C80.9993 33.818 77.1957 52.4975 64.2423 63.0826L64.1883 74.8026L54.0634 68.8821Z" fill="white"/>
<path d="M26.1243 36.987C26.0961 36.5369 25.9836 36.0587 25.8148 35.6368C25.6742 35.1586 25.5054 34.7367 25.2523 34.3429L21.8486 36.1713L22.4956 32.3457C22.0455 32.2332 21.5673 32.2051 21.0891 32.2051C20.6109 32.2051 20.1327 32.2332 19.7107 32.3457L20.3859 36.1713L16.9259 34.371C16.7009 34.7648 16.504 35.1867 16.3633 35.6368C16.2227 36.0869 16.1102 36.5651 16.082 37.0151L19.9358 37.5496L17.151 40.2782C17.4604 40.6157 17.8261 40.9533 18.1917 41.2064C18.5855 41.4877 18.9794 41.7409 19.4013 41.9096L21.1172 38.4216L22.8331 41.8815C23.255 41.7128 23.677 41.4596 24.0427 41.2064C24.4365 40.9251 24.8022 40.5876 25.0835 40.25L22.2986 37.5777L26.1243 36.987Z" fill="#2A8FEC"/>
<path d="M39.679 36.987C39.6508 36.5369 39.5383 36.0587 39.3695 35.6368C39.2289 35.1586 39.0601 34.7367 38.8069 34.3429L35.4033 36.1713L36.0503 32.3457C35.6001 32.2332 35.1219 32.2051 34.6438 32.2051C34.1656 32.2051 33.6874 32.2332 33.2654 32.3457L33.9405 36.1713L30.4806 34.371C30.2556 34.7648 30.0587 35.1867 29.918 35.6368C29.7774 36.0869 29.6649 36.5651 29.6367 37.0151L33.4904 37.5496L30.7056 40.2782C31.015 40.6157 31.3808 40.9533 31.7464 41.2064C32.1402 41.4877 32.534 41.7409 32.956 41.9096L34.6719 38.4216L36.3878 41.8815C36.8097 41.7128 37.2317 41.4596 37.5974 41.2064C37.9912 40.9251 38.3569 40.5876 38.6382 40.25L35.8533 37.5777L39.679 36.987Z" fill="#2A8FEC"/>
<path d="M53.2414 36.987C53.2133 36.5369 53.1008 36.0587 52.932 35.6368C52.7913 35.1586 52.6225 34.7367 52.3693 34.3429L48.9658 36.1713L49.6128 32.3457C49.1627 32.2332 48.6845 32.2051 48.2063 32.2051C47.728 32.2051 47.2498 32.2332 46.8278 32.3457L47.503 36.1713L44.0431 34.371C43.818 34.7648 43.6212 35.1867 43.4805 35.6368C43.3398 36.0869 43.2274 36.5651 43.1992 37.0151L47.0528 37.5496L44.2681 40.2782C44.5775 40.6157 44.9432 40.9533 45.3091 41.2064C45.7025 41.4877 46.0964 41.7409 46.5183 41.9096L48.2344 38.4216L49.9504 41.8815C50.3724 41.7128 50.7939 41.4596 51.1597 41.2064C51.5535 40.9251 51.9192 40.5876 52.2005 40.25L49.4159 37.5777L53.2414 36.987Z" fill="#2A8FEC"/>
<path d="M66.7961 36.987C66.768 36.5369 66.6554 36.0587 66.4867 35.6368C66.346 35.1586 66.1772 34.7367 65.924 34.3429L62.5205 36.1713L63.1675 32.3457C62.7174 32.2332 62.2392 32.2051 61.7609 32.2051C61.2827 32.2051 60.8045 32.2332 60.3825 32.3457L61.0576 36.1713L57.5979 34.371C57.3728 34.7648 57.1759 35.1867 57.0352 35.6368C56.8946 36.0869 56.782 36.5651 56.7539 37.0151L60.6075 37.5496L57.8229 40.2782C58.1324 40.6157 58.4981 40.9533 58.8638 41.2064C59.2576 41.4877 59.651 41.7409 60.073 41.9096L61.7891 38.4216L63.5051 41.8815C63.9271 41.7128 64.3491 41.4596 64.7143 41.2064C65.1082 40.9251 65.4739 40.5876 65.7552 40.25L62.9706 37.5777L66.7961 36.987Z" fill="#2A8FEC"/>
</svg>
