<svg width="160" height="160" viewBox="0 0 160 160" fill="none" xmlns="http://www.w3.org/2000/svg">
<g clip-path="url(#clip0_1483_32300)">
<path fill-rule="evenodd" clip-rule="evenodd" d="M82.3336 54.0363C80.7443 51.9878 79.5294 49.5946 78.8195 46.9324C78.2171 44.6736 78.0255 42.3953 78.2017 40.1907C78.5849 35.3609 80.7259 30.8527 84.133 27.504C86.5209 25.1538 89.5306 23.3732 92.9972 22.4496C103.676 19.6014 114.637 25.9466 117.482 36.622C117.697 37.4209 118.031 42.726 118.08 43.5107L118.196 45.4032L120.628 62.2219L118.048 62.0557C117.983 62.2451 117.915 62.4339 117.842 62.622C117.343 63.9352 116.66 65.1809 115.807 66.321L114.208 68.4764L113.199 69.8317L113.101 69.9598L113.052 70.0284C111.96 71.4963 110.64 73.1231 109.176 74.6556C107.331 76.5868 104.811 77.4132 102.392 77.176C102.172 77.9302 101.965 78.7595 101.803 79.6362C101.579 80.8358 101.522 82.06 101.578 83.278C101.578 83.278 101.517 85.1104 101.461 85.1438C99.7359 89.7196 95.3181 92.9743 90.146 92.9743C84.0599 92.9743 79.0182 88.4675 78.181 82.61C78.1526 82.5952 78.1373 82.5818 78.1388 82.5701C78.8488 77.2156 78.521 80.2099 80.2645 74.0215C81.0051 71.3867 82.3184 69.4434 83.1646 62.0329C83.31 60.7463 83.4176 56.6394 83.4883 55.824C83.4921 55.7809 83.4946 55.7232 83.4958 55.6525L82.3336 54.0363Z" fill="#732645"/>
<path fill-rule="evenodd" clip-rule="evenodd" d="M90.584 65.5142L96.5973 73.8821C98.0451 75.847 100.17 76.9551 102.38 77.1748C102.385 77.1769 102.387 77.1772 102.388 77.1755C101.871 78.9353 101.698 80.2721 101.698 80.2721C97.6342 78.5496 94.96 75.0965 90.584 65.5142ZM117.497 62.0333L115.315 61.8888C114.614 61.2824 114.198 60.3532 114.296 59.334L115.03 51.6079L117.497 62.0333Z" fill="#3B101C"/>
<g clip-path="url(#clip1_1483_32300)">
<path fill-rule="evenodd" clip-rule="evenodd" d="M87.5873 45.8111L87.5825 45.8268C86.8587 45.1705 86.055 44.8684 85.3152 45.0652C83.7165 45.4894 83.0229 48.0832 83.7649 50.858C83.8586 51.208 83.9706 51.5442 84.0982 51.8636C83.3929 52.4662 82.3559 53.8971 82.3559 53.8971L82.3714 53.9185C80.7032 51.776 79.4281 49.2732 78.683 46.4889C78.0507 44.1266 77.8497 41.7439 78.0346 39.4382C78.4367 34.3872 80.6838 29.6723 84.2598 26.1702C86.766 23.7122 89.9249 21.8501 93.5632 20.8842C104.771 17.9055 116.275 24.5414 119.262 35.706C119.487 36.5416 119.653 37.3804 119.773 38.2138C119.807 38.4739 119.84 38.7303 119.867 38.9883C119.921 39.5047 119.955 40.0175 119.968 40.5264L119.969 40.5275C119.969 40.5275 106.133 41.2624 99.9725 40.6696C98.6791 41.6865 96.4554 44.2492 95.0762 44.7543L92.5431 55.1719H88.8295L87.5873 45.8111Z" fill="#3B101C"/>
</g>
<path fill-rule="evenodd" clip-rule="evenodd" d="M101.97 76.7565L104.119 77.3201C122.343 82.1022 131.721 101.749 124.887 118.615C113.35 134.827 94.4053 145.402 72.991 145.402C49.6324 145.402 29.2119 132.819 18.1387 114.062L31.8477 90.316C41.3093 73.9227 60.5696 65.8873 78.8787 70.6945L80.6587 71.1616C80.3664 71.9791 80.0976 72.6975 79.8787 73.477C78.1351 79.6652 78.4628 76.6709 77.7525 82.0252C77.7515 82.037 77.7664 82.0504 77.7951 82.0652C78.632 87.9227 83.674 92.4293 89.7597 92.4293C94.932 92.4293 99.35 89.175 101.075 84.5991C101.131 84.5657 101.192 82.7334 101.192 82.7334C101.136 81.5155 101.193 80.2909 101.417 79.0914C101.57 78.2632 101.763 77.477 101.97 76.7565Z" fill="#2A8FEC"/>
<path fill-rule="evenodd" clip-rule="evenodd" d="M78.3806 82.5026C78.3806 82.5026 82.0242 79.7872 83.3704 79.0954C84.717 78.4041 84.635 76.32 85.7622 75.4329C86.8893 74.5457 96.6119 69.577 98.8437 69.0303C98.8437 69.0303 100.125 67.8718 98.7673 66.2729C97.4088 64.6739 93.0724 66.0995 91.1873 66.8334C89.3022 67.5677 85.7868 70.1498 83.054 68.9498C83.054 68.9498 80.754 67.6139 79.416 69.2036L78.0488 70.6964L78.3806 82.5026Z" fill="#F4A48D"/>
<path fill-rule="evenodd" clip-rule="evenodd" d="M49.2539 96.2861L63.9875 79.6751L71.3219 62.4505C71.7824 60.7936 73.2249 59.5997 74.9372 59.4572L86.1542 58.5223C87.1834 58.4362 88.2178 58.6003 89.1701 59.0018L98.8167 63.0664C99.5095 63.3582 99.7044 64.2485 99.1978 64.8044L98.6778 65.3746L99.7331 66.4854C100.256 67.0362 100.264 67.8967 99.7511 68.4567C99.3131 68.9367 98.607 69.0644 98.028 68.7685L89.0239 64.1751L91.6849 69.1136C92.0367 69.7659 92.1357 70.5259 91.9634 71.2474L91.0101 75.2474C90.8665 75.8521 90.3172 76.2731 89.6952 76.2551C88.9711 76.2356 88.4003 75.6326 88.4193 74.9074L88.4639 73.2136C87.3254 72.8485 86.5265 71.8213 86.4552 70.6269L86.3854 69.4541L83.5137 67.7756L80.5362 68.3997L78.547 70.6669L78.4947 82.4556L74.4111 86.1351L67.2918 104.344L49.2539 96.2861Z" fill="#FFC4B8"/>
</g>
<defs>
<clipPath id="clip0_1483_32300">
<rect width="160" height="160" fill="white"/>
</clipPath>
<clipPath id="clip1_1483_32300">
<rect width="41.5385" height="34.8718" fill="white" transform="translate(77.9688 20.1719)"/>
</clipPath>
</defs>
</svg>
