<svg width="160" height="160" viewBox="0 0 160 160" fill="none" xmlns="http://www.w3.org/2000/svg">
<path fill-rule="evenodd" clip-rule="evenodd" d="M79.3881 18.5314C60.3234 32.2769 44.7737 28.2937 34.374 26.5852C13.6231 23.1751 5.88846 42.6178 13.458 57.3776C21.0279 72.137 27.3691 90.0955 9.15124 104.335C-9.06621 118.574 11.4392 154.596 40.8007 144.66C70.1619 134.722 103.309 136.127 118.415 146.872C133.521 157.616 166.843 132.498 140.478 107.203C114.113 81.9075 131.323 71.1342 140.324 59.6265C149.326 48.1184 145.641 26.9117 120.454 16.5798C120.454 16.5798 98.4532 4.78642 79.3881 18.5314Z" fill="#EAF7FE"/>
<path fill-rule="evenodd" clip-rule="evenodd" d="M78.0505 152.702C37.0887 152.702 3.88281 148.622 3.88281 143.591C3.88281 138.558 37.0887 134.479 78.0505 134.479C119.012 134.479 152.218 138.558 152.218 143.591C152.218 148.622 119.012 152.702 78.0505 152.702Z" fill="#CEDEE7"/>
<path fill-rule="evenodd" clip-rule="evenodd" d="M98.0391 56.9317C98.0391 66.1899 105.258 73.695 114.163 73.695C123.068 73.695 130.288 66.1899 130.288 56.9317C130.288 47.6736 123.068 40.1685 114.163 40.1685C105.258 40.1685 98.0391 47.6736 98.0391 56.9317Z" fill="#D39E00"/>
<path fill-rule="evenodd" clip-rule="evenodd" d="M100.027 56.9325C100.027 66.1894 107.247 73.6957 116.151 73.6957C117.62 73.6957 119.043 73.4917 120.394 73.1076C127.242 71.172 132.275 64.663 132.275 56.9325C132.275 47.6741 125.057 40.168 116.151 40.168C111.724 40.168 107.713 42.0244 104.799 45.0304C101.852 48.0671 100.027 52.2784 100.027 56.9325Z" fill="#FFE99F"/>
<path fill-rule="evenodd" clip-rule="evenodd" d="M100.027 56.9324C100.027 66.1893 107.247 73.6956 116.151 73.6956C117.62 73.6956 119.043 73.4917 120.394 73.1075L104.799 45.0303C101.852 48.067 100.027 52.2783 100.027 56.9324Z" fill="#F6C854"/>
<path fill-rule="evenodd" clip-rule="evenodd" d="M107.014 74.4523L106.422 71.3868L108.252 69.2954L109.21 70.1668L108.769 72.3347L109.244 72.8595L108.728 75.0754C108.728 75.0754 107.008 74.4103 107.014 74.4523Z" fill="#F4A48D"/>
<path fill-rule="evenodd" clip-rule="evenodd" d="M130.912 68.2436L131.137 65.0452L128.55 63.0425L127.465 64.4611L128.633 66.5472L128.216 67.632L129.363 69.3547L130.912 68.2436Z" fill="#F4A48D"/>
<path fill-rule="evenodd" clip-rule="evenodd" d="M110.514 104.44L110.305 122.536L112.233 145.831H114.855L117.993 124.339L121.581 102.811L110.514 104.44Z" fill="#34466B"/>
<path fill-rule="evenodd" clip-rule="evenodd" d="M114.839 146.937L112.004 148.355L110.586 146.937L112.004 145.52H114.839V146.937Z" fill="black"/>
<path fill-rule="evenodd" clip-rule="evenodd" d="M128.493 104.44L128.544 114.909L126.776 145.831H124.154L119.768 125.312L117.426 102.811L128.493 104.44Z" fill="#34466B"/>
<path fill-rule="evenodd" clip-rule="evenodd" d="M124.168 146.937L127.003 148.355L128.421 146.937L127.003 145.52H124.168V146.937Z" fill="black"/>
<path fill-rule="evenodd" clip-rule="evenodd" d="M130.539 114.71C130.408 114.725 130.282 114.668 130.167 114.612C128.951 114.021 128.084 113.185 126.885 112.615C125.628 112.017 124.201 111.704 122.805 111.487C120.724 111.155 118.608 110.955 116.513 110.937C114.713 110.921 112.84 111.742 111.138 112.194C110.483 112.368 109.95 112.845 109.406 113.22C108.602 113.773 108.25 113.992 108.359 112.861C108.538 111.018 108.724 109.174 108.951 107.335C109.403 103.668 110.019 100.009 111.061 96.4588C111.459 95.1027 111.919 93.7653 112.378 92.4284C112.937 90.8002 113.496 89.1724 114.055 87.5444C114.75 85.521 115.531 84.6018 117.717 83.5084C118.864 82.9352 120.625 82.8137 123.002 83.1439C125.342 86.1542 126.822 88.237 127.443 89.3923C128.26 90.9106 129.29 95.0521 129.596 96.6894C129.964 98.6596 130.304 100.621 130.571 102.577C130.868 104.743 131.076 106.902 131.137 109.05C131.144 109.287 131.192 109.951 131.218 110.744C131.275 112.405 131.238 114.627 130.539 114.71Z" fill="#34466B"/>
<path fill-rule="evenodd" clip-rule="evenodd" d="M120.268 84.041L117.717 83.6764C117.717 83.6764 114.394 97.0655 114.254 99.3568C114.117 101.606 113.156 110.727 113.156 110.727C113.156 110.727 117.08 110.819 121.602 111.37C126.022 112.317 126.394 111.757 126.394 111.757C126.394 111.757 124.658 106.892 124.277 99.356C124.023 94.332 123.598 88.9231 123.001 83.1294L120.268 84.041Z" fill="white"/>
<path fill-rule="evenodd" clip-rule="evenodd" d="M121.044 84.0552H119.299C118.892 84.0552 118.661 84.5217 118.908 84.8454L119.624 85.7839L117.719 103.36L120.064 105.666L121.676 102.928L121.237 85.7839L121.52 84.6683C121.599 84.3573 121.365 84.0552 121.044 84.0552Z" fill="#EC0000"/>
<path fill-rule="evenodd" clip-rule="evenodd" d="M131.873 80.63L128.543 69.3839L131.287 67.416L137.91 80.4347L136.079 84.9433L127.484 89.3795L122.82 83.1439L131.873 80.63Z" fill="#34466B"/>
<path fill-rule="evenodd" clip-rule="evenodd" d="M122.613 78.8539C124.224 78.186 125.371 76.4645 125.371 74.4484C125.371 71.8532 123.47 69.7461 121.127 69.7461C119.274 69.7461 117.697 71.0655 117.119 72.902L117.112 72.9039L116.003 76.5683L116.105 76.6121L116.158 76.635L116.814 76.7766L116.817 78.7012L116.849 78.8179C116.9 78.9796 116.972 79.1364 117.064 79.2838C117.17 79.4562 117.302 79.6136 117.452 79.7495C117.53 79.8207 117.614 79.8852 117.703 79.9434C117.749 79.9748 117.796 80.0034 117.844 80.0305C117.882 80.0521 117.92 80.0722 117.959 80.0908L118.077 80.1487L117.7 84.3926C117.7 84.3926 119.635 84.853 120.53 84.6679L120.65 84.6413C121.507 84.4565 122.356 84.1665 123.074 83.282C123.074 83.282 123.072 83.2722 123.068 83.2531L123.074 83.2464C123.074 83.2464 123.007 82.925 122.923 82.4001C122.795 81.5627 122.629 80.2306 122.613 78.8539Z" fill="#F4A48D"/>
<path fill-rule="evenodd" clip-rule="evenodd" d="M118.011 81.1089C118.556 80.9442 119.707 80.2968 120.57 79.2437L118.105 80.125C118.105 80.125 118.058 80.6278 118.011 81.1089ZM116.702 76.736C116.924 76.8103 117.152 76.6418 117.146 76.4076L117.108 74.8979L116.702 76.736Z" fill="#A66555"/>
<path fill-rule="evenodd" clip-rule="evenodd" d="M122.606 79.0065L123.265 78.6415C124.053 78.1841 124.72 77.5022 125.158 76.6323C126.355 74.2494 125.373 71.3571 122.965 70.1719C120.797 69.105 118.209 69.7863 116.843 71.6745L117.385 72.1092C117.507 72.0737 117.711 72.0169 117.96 71.9532C118.855 71.7194 120.34 71.3889 120.805 71.6135C121.486 71.9427 121.454 73.1819 121.351 74.1652C121.25 75.1269 121.158 75.5445 121.598 75.7333C121.76 75.8026 121.859 74.9903 122.23 74.7462C122.62 74.4884 123.12 74.7509 123.047 75.634C122.926 76.0352 122.833 76.4308 122.763 76.817C122.646 77.5078 122.603 78.2612 122.606 79.0065Z" fill="#767676"/>
<path fill-rule="evenodd" clip-rule="evenodd" d="M117.718 83.5083L108.678 83.5677L109.495 74.5336L106.779 73.5459L103.504 84.4359L105.041 87.7208L114.448 90.4712L117.718 83.5083Z" fill="#34466B"/>
<path d="M30.9102 86.0525C30.9102 86.0525 31.1486 83.7126 37.8615 83.9382C44.575 84.164 54.2959 82.4112 60.5809 82.2731C67.8489 82.1138 75.0584 83.4302 75.0584 83.4302L64.1909 98.9586H41.3089L30.9102 86.0525Z" fill="#767676"/>
<path fill-rule="evenodd" clip-rule="evenodd" d="M75.3808 68.4508C68.7204 79.1486 60.6354 88.803 57.0049 100.243C51.0935 98.6084 45.1913 96.9734 39.2305 95.3327C42.293 83.7755 43.2273 72.0703 45.8672 59.7803C55.6188 61.2239 64.7627 63.7879 73.7812 67.2806L75.3808 68.4508Z" fill="#63BA68"/>
<path fill-rule="evenodd" clip-rule="evenodd" d="M74.8351 67.0814C67.9216 77.4657 61.14 88.0274 57.319 99.275L58.4784 99.5744L58.8217 98.5633C52.6902 96.9781 46.5675 95.3927 40.3833 93.8015L40.0413 94.813L41.2148 95.0663C42.819 89.4063 43.8602 83.7333 44.8432 77.9982C45.826 72.2626 46.7506 66.4645 48.1106 60.5457L46.9254 60.3383L46.736 61.38C56.7476 62.7657 66.1354 65.2253 75.4169 68.5855L75.8802 67.6113L74.8351 67.0814L75.8802 67.6113L76.3436 66.637C66.9156 63.2235 57.3337 60.7106 47.1149 59.2967L45.9682 59.1382L45.7401 60.1311C44.3619 66.1297 43.4327 71.9655 42.4522 77.6861C41.472 83.4073 40.4402 89.0129 38.8677 94.56L38.5898 95.5393L39.6992 95.8247C45.881 97.4152 52.0027 99.0004 58.1348 100.586L59.2939 100.885L59.6373 99.8739C62.1915 92.345 66.1491 85.0564 70.6194 77.8651C72.6439 74.6083 74.7736 71.3714 76.9257 68.1411L77.6194 67.099L76.3436 66.637L75.8802 67.6113L74.8351 67.0814Z" fill="#008437"/>
<path d="M57.4288 74.341C62.7395 75.8113 65.4384 80.1926 63.6182 83.8367C61.7848 87.4998 57.1181 89.5248 52.8991 88.3469C48.7014 87.156 45.7194 83.0622 46.355 79.1266C47.0052 75.2099 52.1141 72.9025 57.4288 74.341Z" fill="#008437"/>
<path d="M40.5078 96.0067C41.7449 96.349 42.9759 96.6896 44.2055 97.0315C44.787 95.1262 43.5215 93.112 41.3658 92.5356C41.1091 93.6972 40.8265 94.8544 40.5078 96.0067Z" fill="#008437"/>
<path d="M52.9945 77.8103C52.242 77.6753 51.7216 78.0992 51.4392 79.0706C51.1515 80.0483 51.3482 80.6182 52.0147 80.7852C52.4238 80.8857 52.7686 80.8053 53.0482 80.5379C53.3357 80.2712 53.7459 79.6957 54.3014 78.8092C54.8545 77.9235 55.4986 77.329 56.2365 77.0331C56.9712 76.7384 57.815 76.7105 58.7493 76.9567C59.8353 77.2441 60.531 77.8235 60.8112 78.6769C61.0965 79.5295 61.0271 80.3999 60.638 81.2937C59.6937 83.4478 58.1322 84.3907 55.9334 84.1495C56.0917 83.529 56.2525 82.9097 56.4124 82.2897C57.5872 82.4513 58.4013 81.9588 58.8734 80.8066C59.3159 79.7271 59.0439 79.0506 58.0463 78.7883C57.6062 78.6732 57.2284 78.7192 56.9153 78.9299C56.6035 79.1392 56.1371 79.7021 55.5438 80.6182C54.9488 81.5324 54.3322 82.1432 53.6916 82.452C53.0493 82.7596 52.3673 82.8202 51.6251 82.6348C50.8359 82.434 50.2382 81.9843 49.8332 81.2813C49.4273 80.5795 49.3557 79.6875 49.6421 78.6051C50.2001 76.4567 51.5016 75.5466 53.4868 75.9177C53.3217 76.5489 53.1585 77.1796 52.9945 77.8103Z" fill="#63BA68"/>
<path d="M50.7468 79.3354C50.5901 79.6684 50.4326 80.0013 50.2789 80.3329C49.5852 80.2378 48.8886 80.1434 48.1875 80.0501C48.3265 79.7165 48.4656 79.3831 48.6017 79.0483C49.324 79.1437 50.039 79.2392 50.7468 79.3354Z" fill="#63BA68"/>
<path d="M62.2624 81.9433C62.0243 82.2628 61.7884 82.5821 61.555 82.9017C60.9357 82.795 60.3193 82.6904 59.7031 82.5868C59.92 82.2635 60.1403 81.9405 60.3637 81.6172C60.9945 81.725 61.6273 81.8332 62.2624 81.9433Z" fill="#63BA68"/>
<path d="M57.6426 100.243C58.0849 99.0079 58.5591 97.7803 59.0631 96.5601C56.603 95.9335 54.0145 97.0881 53.3047 99.14C54.7495 99.5078 56.1958 99.8758 57.6426 100.243Z" fill="#008437"/>
<path fill-rule="evenodd" clip-rule="evenodd" d="M76.9802 67.1321C73.9269 66.3355 70.8717 65.5975 67.7939 64.9185C66.307 67.0613 68.9773 69.5599 73.8127 70.6988C74.8696 69.5086 75.933 68.3198 76.9802 67.1321Z" fill="#008437"/>
<path d="M45.3711 60.4229C45.0123 61.6706 44.6712 62.9085 44.3477 64.139C48.8547 64.6787 53.0142 63.5927 53.9451 61.519C51.125 61.0919 48.2659 60.7251 45.3711 60.4229Z" fill="#008437"/>
<path d="M51.0929 91.308C51.7843 91.5176 52.1761 92.2347 51.9756 92.9109C51.7735 93.5864 51.0713 93.9701 50.4 93.7655C49.7286 93.5615 49.3328 92.8457 49.5117 92.1641C49.6939 91.4834 50.4015 91.1001 51.0929 91.308Z" fill="#008437"/>
<path d="M60.8158 68.8623C61.8717 69.1291 62.4802 69.8886 62.1943 70.5411C61.9047 71.1924 60.8708 71.5041 59.8718 71.256C58.8765 71.0066 58.2438 70.2762 58.4726 69.6067C58.7078 68.9401 59.7601 68.5961 60.8158 68.8623Z" fill="#008437"/>
<path fill-rule="evenodd" clip-rule="evenodd" d="M58.9652 97.032C52.8267 96.2175 46.6958 95.4017 40.5078 94.5901C41.7723 82.9472 40.895 71.4385 41.627 59.1384C48.4839 59.2224 56.9477 58.6631 63.5417 59.7806C66.4989 60.2818 67.6324 62.0807 70.5798 62.7653C64.0695 77.8731 60.198 89.2953 58.9652 97.032Z" fill="#63BA68"/>
<path fill-rule="evenodd" clip-rule="evenodd" d="M69.8476 61.5514C64.9133 72.9207 60.1288 84.4521 58.2689 96.2992L59.4187 96.4539L59.586 95.3887C53.5048 94.5689 47.4305 93.7475 41.2984 92.9302L41.133 93.9954L42.2892 94.1015C42.9216 88.1811 43.0168 82.319 43.0469 76.4015C43.0767 70.4838 43.0415 64.5103 43.4018 58.3596L42.2418 58.3014L42.226 59.3776C48.7184 59.4585 57.9256 60.1831 69.8476 61.5514L70.9253 61.9531L71.212 60.9101C61.7074 58.6664 52.1982 57.3488 42.2574 57.2254L41.1418 57.2114L41.0816 58.2431C40.7169 64.4768 40.7536 70.489 40.7235 76.3914C40.6939 82.2945 40.5972 88.0871 39.9769 93.8895L39.8672 94.9142L40.9677 95.0608C47.0964 95.8777 53.1696 96.6989 59.2512 97.5189L60.4012 97.6741L60.5683 96.6084C62.3724 85.0872 67.0743 73.7014 72.003 62.3545L72.4985 61.2135L71.212 60.9101L70.9253 61.9531L69.8476 61.5514Z" fill="#008437"/>
<path d="M40.5078 94.6153C41.7795 94.7786 43.0471 94.9417 44.3135 95.1051C44.5969 93.2459 43.0403 91.5184 40.8253 91.2515C40.7488 92.3723 40.6467 93.4936 40.5078 94.6153Z" fill="#008437"/>
<path d="M58.3915 97.0318C58.5899 95.7581 58.8135 94.4878 59.0647 93.2217C56.9057 92.9041 54.8913 94.3606 54.5859 96.4739C55.8541 96.6595 57.1243 96.845 58.3915 97.0318Z" fill="#008437"/>
<path fill-rule="evenodd" clip-rule="evenodd" d="M62.5843 59.1382C61.742 61.6608 64.9452 64.1512 69.2386 64.9186C69.9008 63.4944 70.5672 62.4841 71.222 61.065C68.4963 60.4944 65.3076 59.5762 62.5843 59.1382Z" fill="#008437"/>
<path d="M41.3431 57.8535C41.261 59.1472 41.1972 60.429 41.1484 61.7014C45.4124 61.8113 49.0254 60.3151 49.4662 58.1332C46.7807 57.974 44.0713 57.8787 41.3431 57.8535Z" fill="#008437"/>
<path fill-rule="evenodd" clip-rule="evenodd" d="M30.9102 86.0412C30.9102 86.0412 31.1486 82.0432 37.8615 82.269C44.575 82.4952 51.7312 85.2866 58.0109 85.5704C67.0085 85.9765 75.0584 83.4167 75.0584 83.4167L64.1909 98.9586H41.3089L30.9102 86.0412Z" fill="#9BC3D3"/>
<path fill-rule="evenodd" clip-rule="evenodd" d="M77.0047 121.436C73.592 113.707 68.3443 105.631 63.5066 98.3164H40.135C35.3504 105.631 30.5237 113.809 26.744 121.436C18.681 137.709 23.276 143.072 32.7381 146.917C39.757 149.768 63.9907 149.768 71.0096 146.917C80.4732 143.072 82.8591 134.695 77.0047 121.436Z" fill="#9BC3D3"/>
<path d="M65.4611 98.5036C65.4611 98.7549 64.9914 98.9588 64.4133 98.9588H38.3576C37.7775 98.9588 37.3086 98.7549 37.3086 98.5036V98.1295C37.3086 97.8783 37.7775 97.6743 38.3576 97.6743H64.4133C64.9914 97.6743 65.4611 97.8783 65.4611 98.1295V98.5036Z" fill="#DEEDF2"/>
<path fill-rule="evenodd" clip-rule="evenodd" d="M59.0405 133.907C58.0876 134.556 56.4889 135.206 54.4594 135.206C51.9688 135.206 49.755 134.248 48.2178 132.454C47.0492 131.156 46.2806 129.363 46.0035 127.137H44.0977V125.622H45.8497V125.159C45.8497 124.664 45.881 124.2 45.9115 123.768H44.0977V122.222H46.1268C46.4958 120.058 47.4178 118.265 48.6483 116.998C50.2164 115.359 52.2146 114.432 54.7361 114.432C56.5504 114.432 57.9643 114.957 58.8253 115.421L58.2105 117.461C57.4414 116.998 56.1504 116.596 54.7666 116.596C53.1061 116.596 51.7532 117.183 50.7079 118.296C49.7855 119.192 49.1707 120.583 48.8631 122.222H57.4414V123.768H48.5864C48.5559 124.17 48.525 124.633 48.525 125.066V125.622H57.4414V127.137H48.7402C48.986 128.93 49.6016 130.26 50.4312 131.187C51.5693 132.393 53.1061 132.98 54.7666 132.98C56.3961 132.98 57.8105 132.361 58.5181 131.96L59.0405 133.907Z" fill="#DEEDF2"/>
<path fill-rule="evenodd" clip-rule="evenodd" d="M70.1969 21.3718C69.5985 16.5106 65.4554 12.7471 60.4339 12.7471C55.0013 12.7471 50.5971 17.1524 50.5971 22.5868C50.5971 23.4784 50.7156 24.3423 50.9379 25.1635C50.8544 25.1646 50.7716 25.1676 50.6893 25.1724L50.5966 25.1648V25.1786C47.7791 25.3903 45.5582 27.7445 45.5582 30.6174C45.5582 33.4902 47.7791 35.8445 50.5966 36.0562V36.0725H86.4115V36.0719H86.4116C88.6069 36.0719 90.3867 34.2913 90.3867 32.0951C90.3867 29.8989 88.6069 28.1186 86.4116 28.1186H86.4115V28.1184L77.3376 27.3701C77.3791 27.099 77.4006 26.8214 77.4006 26.5387C77.4006 23.5264 74.9595 21.0844 71.9481 21.0844C71.3355 21.0844 70.7466 21.1854 70.1969 21.3718Z" fill="#CEDEE7"/>
<path fill-rule="evenodd" clip-rule="evenodd" d="M18.7808 42.406C19.2187 38.8361 22.2502 36.0723 25.9245 36.0723C29.8996 36.0723 33.1222 39.3074 33.1222 43.2983C33.1222 43.9531 33.0355 44.5875 32.8728 45.1906C32.9339 45.1914 32.9945 45.1936 33.0547 45.1971L33.1225 45.1915V45.2016C35.1841 45.3571 36.8092 47.086 36.8092 49.1958C36.8092 51.3055 35.1841 53.0344 33.1225 53.1899V53.2019H6.91653V53.2015H6.91645C5.31013 53.2015 4.00781 51.8938 4.00781 50.281C4.00781 48.6682 5.31013 47.3607 6.91645 47.3607H6.91653V47.3606L13.5559 46.811C13.5256 46.612 13.5099 46.4081 13.5099 46.2005C13.5099 43.9883 15.296 42.195 17.4995 42.195C17.9477 42.195 18.3787 42.2692 18.7808 42.406Z" fill="#CEDEE7"/>
</svg>
