<svg width="160" height="160" viewBox="0 0 160 160" fill="none" xmlns="http://www.w3.org/2000/svg">
<path fill-rule="evenodd" clip-rule="evenodd" d="M61.2608 121.903C61.2608 121.903 9.95371 104.087 8.42473 93.122C6.02531 75.8932 30.9682 81.0171 40.7719 62.9517C50.5755 44.8864 39.6047 32.2675 47.0503 21.4953C54.4958 10.723 67.9217 14.6803 78.6584 22.7501C89.3951 30.8199 85.4329 36.5093 101.064 44.2658C116.694 52.0223 123.829 41.659 136.518 51.6803C149.207 61.7016 144.148 73.7928 141.308 85.4953C138.467 97.1977 138 99.4425 133.685 105.951C126.027 117.499 108.742 116.339 108.742 116.339L61.2608 121.903Z" fill="#EAF7FE"/>
<path fill-rule="evenodd" clip-rule="evenodd" d="M144.127 131.61C144.127 134.594 113.778 137.012 76.3408 137.012C38.9035 137.012 8.55469 134.594 8.55469 131.61C8.55469 128.626 38.9035 126.208 76.3408 126.208C113.778 126.208 144.127 128.626 144.127 131.61Z" fill="#CEDEE7"/>
<path fill-rule="evenodd" clip-rule="evenodd" d="M20.8755 95.2213C20.8755 95.2213 20.7254 92.6411 20.0355 92.014C19.1955 91.2506 14.5376 92.014 13.4688 93.3122C12.3997 94.6103 13.7742 96.6719 14.6139 97.0538C15.4539 97.4357 18.4321 97.5885 18.4321 97.5885L22.4793 98.5045L22.8609 95.6794C22.6318 95.6794 20.8755 95.2213 20.8755 95.2213Z" fill="#2A8FEC"/>
<path fill-rule="evenodd" clip-rule="evenodd" d="M85.9038 93.3123C84.8347 92.0141 80.1768 91.2504 79.3368 92.0141C78.6472 92.641 78.4968 95.2214 78.4968 95.2214C78.4968 95.2214 76.7406 95.6793 76.5117 95.6793L76.8933 98.5046L80.9403 97.5886C80.9403 97.5886 83.9187 97.4358 84.7585 97.0539C85.5985 96.672 86.9729 94.6104 85.9038 93.3123Z" fill="#2A8FEC"/>
<path d="M23.8491 132.365H18.8654C17.5848 132.365 16.5469 131.327 16.5469 130.046V118.493H26.1675V130.046C26.1675 131.327 25.1296 132.365 23.8491 132.365Z" fill="#34466B"/>
<path d="M80.7905 132.365H75.8068C74.5265 132.365 73.4883 131.327 73.4883 130.046V118.493H83.1092V130.046C83.1092 131.327 82.071 132.365 80.7905 132.365Z" fill="#34466B"/>
<path fill-rule="evenodd" clip-rule="evenodd" d="M33.25 125.541L35.4502 126.659H62.0754L66.2894 125.541C66.2894 125.541 65.6552 122.408 65.3197 122.297C64.9839 122.185 57.7124 120.954 57.7124 120.954C57.7124 120.954 52.2307 121.066 51.5596 121.066C50.8883 121.066 40.4842 122.52 40.4842 122.52L35.3382 124.198L33.25 125.541Z" fill="black"/>
<path fill-rule="evenodd" clip-rule="evenodd" d="M83.5944 105.553C83.5944 104.573 82.9557 102.955 82.4414 101.81C82.0639 100.969 81.4548 100.254 80.6828 99.7504L78.3738 98.2446C78.3738 98.2446 72.7058 82.5828 69.2749 81.6877C67.929 81.3365 62.4856 80.7766 57.6295 80.3252C52.1083 79.8114 46.5515 79.8269 41.0329 80.3679C36.5071 80.8118 31.5726 81.3476 30.269 81.6877C26.8382 82.5828 21.1701 98.2446 21.1701 98.2446L18.8612 99.7504C18.0894 100.254 17.4806 100.969 17.103 101.809C16.5885 102.954 15.9496 104.573 15.9496 105.553C15.9496 107.194 15.6513 115.1 16.2478 119.575C16.5586 121.905 17.031 123.426 17.4126 124.349C17.7106 125.07 18.4113 125.541 19.1915 125.541H33.2524L36.3847 124.795H47.7954H48.6159H63.1592L66.2918 125.541H80.3522C81.1328 125.541 81.8334 125.07 82.1313 124.349C82.5127 123.426 82.9854 121.905 83.2959 119.575C83.8928 115.1 83.5944 107.194 83.5944 105.553Z" fill="#2A8FEC"/>
<path fill-rule="evenodd" clip-rule="evenodd" d="M49.8839 96.6031L23.9297 96.4546C23.9297 96.4546 27.2113 99.5872 29.4487 101.675C31.6862 103.764 33.7744 105.404 40.0392 105.553C45.5817 105.686 49.1371 105.584 49.8839 105.559C50.6308 105.584 54.1861 105.686 59.7284 105.553C65.9934 105.404 68.0816 103.764 70.3188 101.675C72.5563 99.5872 75.8379 96.4546 75.8379 96.4546L49.8839 96.6031Z" fill="#2274C0"/>
<path fill-rule="evenodd" clip-rule="evenodd" d="M73.4205 89.0359C72.5315 87.1534 71.0338 85.1277 70.1778 84.0377C69.772 83.5206 69.1846 83.1763 68.5344 83.0758C58.947 81.5956 52.0343 81.5172 49.8209 81.5381C47.6074 81.5172 40.6944 81.5956 31.107 83.0758C30.4571 83.1763 29.8697 83.5206 29.4636 84.0377C28.6079 85.1277 27.1102 87.1534 26.2212 89.0359C24.9231 91.7847 21.9452 96.1373 26.2975 96.1373H49.0616H50.5801H73.3439C77.6965 96.1373 74.7186 91.7847 73.4205 89.0359Z" fill="#DEEDF2"/>
<path fill-rule="evenodd" clip-rule="evenodd" d="M33.0156 108.126H66.003V107.515H33.0156V108.126Z" fill="#2274C0"/>
<path fill-rule="evenodd" clip-rule="evenodd" d="M33.0156 109.348H66.003V108.737H33.0156V109.348Z" fill="#2274C0"/>
<path fill-rule="evenodd" clip-rule="evenodd" d="M33.0156 110.569H66.003V109.958H33.0156V110.569Z" fill="#2274C0"/>
<path d="M35.5534 115.38H65.0888C65.9041 115.38 66.3463 116.333 65.8205 116.956L62.8573 120.462C62.6753 120.678 62.4077 120.802 62.1259 120.802H38.714C38.4429 120.802 38.1844 120.687 38.0028 120.485L34.8419 116.979C34.2866 116.363 34.7238 115.38 35.5534 115.38Z" fill="#34466B"/>
<path fill-rule="evenodd" clip-rule="evenodd" d="M58.7179 116.831H40.3171C39.9371 116.831 39.6289 116.523 39.6289 116.143V112.709C39.6289 112.329 39.9371 112.021 40.3171 112.021H58.7179C59.0981 112.021 59.4061 112.329 59.4061 112.709V116.143C59.4061 116.523 59.0981 116.831 58.7179 116.831Z" fill="white"/>
<path fill-rule="evenodd" clip-rule="evenodd" d="M19.2348 113.27L20.5439 118.003C20.8352 119.056 21.7004 119.852 22.7745 120.055L30.676 121.543C31.0476 121.613 31.4181 121.415 31.567 121.068C31.6854 120.792 31.6407 120.473 31.4506 120.24L29.1982 117.479C27.8561 115.834 26.0371 114.645 23.9916 114.077L19.6374 112.868C19.3926 112.8 19.1671 113.025 19.2348 113.27Z" fill="#9E3667"/>
<path fill-rule="evenodd" clip-rule="evenodd" d="M22.9423 119.175C22.2095 119.037 21.6073 118.483 21.4087 117.764L20.3672 113.999L23.7543 114.94C25.6317 115.461 27.2751 116.535 28.5068 118.045L30.6066 120.619L22.9423 119.175Z" fill="white"/>
<path fill-rule="evenodd" clip-rule="evenodd" d="M30.9765 107.53C30.9765 107.53 29.4103 109.208 26.9492 109.432L30.4171 111.781L30.9765 107.53Z" fill="#2274C0"/>
<path fill-rule="evenodd" clip-rule="evenodd" d="M24.0529 101.273L30.0997 105.04C30.5653 105.33 30.5332 106.018 30.0427 106.263L26.2833 108.143C25.9663 108.301 25.6046 108.348 25.2579 108.274L19.9342 107.141C19.2525 106.996 18.7487 106.417 18.699 105.722L18.4376 102.061C18.3797 101.252 18.95 100.533 19.7512 100.405C21.243 100.166 22.7707 100.475 24.0529 101.273Z" fill="white"/>
<path fill-rule="evenodd" clip-rule="evenodd" d="M80.4131 113.27L79.1038 118.003C78.8127 119.056 77.9473 119.852 76.8735 120.055L68.972 121.543C68.6001 121.613 68.2299 121.415 68.0809 121.068C67.9626 120.792 68.0073 120.473 68.1974 120.24L70.4496 117.479C71.7917 115.834 73.6107 114.645 75.6561 114.077L80.0106 112.868C80.2553 112.8 80.4808 113.025 80.4131 113.27Z" fill="#9E3667"/>
<path fill-rule="evenodd" clip-rule="evenodd" d="M76.7112 119.175C77.444 119.037 78.0459 118.483 78.2448 117.764L79.2863 113.999L75.8992 114.94C74.022 115.461 72.3784 116.535 71.1468 118.045L69.0469 120.619L76.7112 119.175Z" fill="white"/>
<path fill-rule="evenodd" clip-rule="evenodd" d="M68.6719 107.53C68.6719 107.53 70.2381 109.208 72.6991 109.432L69.2312 111.781L68.6719 107.53Z" fill="#2274C0"/>
<path fill-rule="evenodd" clip-rule="evenodd" d="M75.5963 101.273L69.5495 105.04C69.084 105.33 69.1161 106.018 69.6065 106.263L73.3657 108.143C73.683 108.301 74.0446 108.348 74.3913 108.274L79.7148 107.141C80.3968 106.996 80.9003 106.417 80.95 105.722L81.2116 102.061C81.2693 101.252 80.699 100.533 79.898 100.405C78.4062 100.166 76.8785 100.475 75.5963 101.273Z" fill="white"/>
<g opacity="0.05">
<path d="M82.7461 104.878C83.0293 105.304 83.21 105.593 83.21 105.593C83.0579 104.908 84.2994 104.788 85.7473 104.87C84.6113 104.749 83.4319 104.697 82.7461 104.878Z" fill="black"/>
</g>
<path fill-rule="evenodd" clip-rule="evenodd" d="M113.019 56.9396C114.064 56.172 114.742 54.9348 114.742 53.5403C114.742 51.2137 112.853 49.3247 110.527 49.3247C108.378 49.3247 106.603 50.9352 106.344 53.0136C106.298 53.2302 106.265 53.4491 106.243 53.668L106.242 53.6684L106.242 53.6732L106.242 53.6749C106.235 53.7404 106.229 53.8059 106.224 53.8712L105.934 57.1242L106.595 57.3454L106.601 57.347L106.602 57.347C106.618 57.4036 106.627 57.4343 106.627 57.4343L106.645 57.8743L106.677 58.6968C106.689 58.969 106.746 59.2357 106.845 59.4864C106.914 59.6634 107.005 59.8329 107.117 59.9903C107.249 60.1749 107.405 60.3406 107.581 60.4804C107.672 60.5539 107.769 60.6194 107.87 60.6777C107.924 60.7087 107.977 60.7371 108.033 60.7638L108.033 60.764L107.749 65.9023C107.749 65.9023 109.249 66.3542 110.892 65.9956C111.885 65.7807 112.93 65.2674 113.728 64.1811C113.728 64.1811 112.784 60.0878 113.019 56.9396Z" fill="#FFC4B8"/>
<path fill-rule="evenodd" clip-rule="evenodd" d="M110.874 65.9346C111.867 65.7197 112.913 65.2065 113.711 64.1201C113.711 64.1201 112.689 59.7341 113.036 56.5467C113.036 56.5467 110.712 62.2116 110.874 65.9346ZM106.594 57.3637C106.826 57.4315 107.053 57.2498 107.038 57.0094L106.941 55.46L106.594 57.3637Z" fill="#F4A48D"/>
<path fill-rule="evenodd" clip-rule="evenodd" d="M111.944 54.5214C112.236 54.1429 112.629 53.9499 112.966 54.0651C113.444 54.2288 113.627 54.9548 113.374 55.6853C113.286 55.9397 113.157 56.1613 113.005 56.3351C112.995 56.5534 112.991 56.768 112.993 56.9786C113.594 56.48 114.172 55.8203 114.444 55.0357C115.292 52.5893 114.341 50.311 111.468 49.328C109.311 48.59 106.989 49.5115 105.96 51.4071L106.192 51.7754L106.193 51.7719L106.23 51.762L110.097 50.6898L111.082 53.4019L110.722 54.0598L109.125 56.9732C109.014 57.1772 108.85 57.3431 108.655 57.4579C108.507 57.5457 108.342 57.605 108.167 57.6294L108.165 57.6291C108.11 57.6365 108.054 57.6412 107.997 57.6419C107.905 57.6434 107.815 57.6352 107.727 57.6187L106.995 57.4781C106.926 57.4646 106.856 57.4556 106.785 57.4491C106.657 57.4381 106.529 57.4395 106.401 57.4525C106.399 57.4529 106.396 57.4521 106.394 57.454L106.402 57.4552C106.422 57.5114 106.434 57.5418 106.434 57.5418L106.481 57.9839L107.47 58.1356C107.496 58.1395 107.52 58.1451 107.544 58.1534C107.67 58.1965 107.769 58.2974 107.809 58.4267C107.855 58.58 107.806 58.7445 107.684 58.8476L106.879 59.5235L106.793 59.5962C106.876 59.7707 106.982 59.9366 107.107 60.0893C107.255 60.2682 107.427 60.4269 107.617 60.5586C107.716 60.6277 107.82 60.6886 107.929 60.742L107.974 60.7197C108.018 60.6981 108.063 60.6758 108.106 60.6527C109.334 60.0208 110.345 59.074 111.042 57.9241C111.295 57.5091 111.506 57.0674 111.67 56.6044C111.688 56.5564 111.705 56.508 111.721 56.458L111.721 56.4576C111.502 56.1449 111.457 55.6195 111.64 55.0917L111.646 55.0729L111.649 55.0666L111.653 55.0542L111.656 55.0469L111.66 55.0354L111.663 55.0279L111.667 55.0164L111.67 55.0094L111.676 54.9957L111.677 54.991L111.685 54.9733L111.687 54.9667L111.692 54.9553L111.695 54.9477L111.7 54.9374L111.703 54.9296L111.708 54.9193L111.711 54.9118L111.716 54.9006L111.719 54.8942L111.727 54.8774L111.73 54.8708L111.735 54.8602L111.739 54.8525L111.744 54.843L111.748 54.8352L111.752 54.8258L111.756 54.8181L111.761 54.8084L111.765 54.8013L111.773 54.7855L111.777 54.7793L111.782 54.769L111.786 54.7616L111.791 54.7526L111.796 54.745L111.801 54.7363L111.805 54.7288L111.81 54.7198L111.814 54.7127L111.821 54.7015L111.824 54.6973L111.826 54.6929L111.833 54.682L111.837 54.6751L111.843 54.6664L111.847 54.6593L111.853 54.6509L111.857 54.6438L111.863 54.6353L111.867 54.6286L111.874 54.6187L111.877 54.6136L111.887 54.5994L111.891 54.5934L111.897 54.5846L111.902 54.5782L111.908 54.5699L111.912 54.5635L111.918 54.5552L111.923 54.5492L111.93 54.5398L111.933 54.535L111.944 54.5214Z" fill="#444444"/>
<path fill-rule="evenodd" clip-rule="evenodd" d="M93.311 64.4796C93.9838 63.8315 94.9123 63.74 96.0966 64.205C96.5855 64.9015 96.2646 66.3637 96.3904 66.9524C96.5162 67.5412 96.1974 68.5098 96.1974 68.5098L94.2226 68.3906C94.2226 68.3906 93.8676 66.9331 93.5969 66.5895C93.4159 66.3605 93.1923 66.1463 92.9261 65.947C92.5099 65.6168 92.6382 65.1276 93.311 64.4796Z" fill="#FFC4B8"/>
<path d="M109.594 64.9419C109.594 64.9419 109.999 66.4633 109.853 66.8893C109.853 66.8893 108.964 67.1935 108.324 66.8131C108.324 66.8131 108.777 65.7482 109.594 64.9419Z" fill="#34466B"/>
<path d="M107.449 66.7818C107.449 66.7818 108.709 67.6975 111.247 66.9414L109.589 64.9419L107.449 66.7818Z" fill="#F4A48D"/>
<path fill-rule="evenodd" clip-rule="evenodd" d="M102.428 89.1138C102.428 89.1138 100.595 98.6976 99.9647 102.185C99.4285 105.154 99.0037 109.626 99.2605 111.769C99.5787 114.422 105.365 128.656 105.198 129.434C105.031 130.212 109.555 129.785 109.555 129.785C109.555 129.785 105.11 112.946 105.716 110.091C106.166 107.977 108.608 95.2079 109.211 95.9283C109.815 96.6488 110.562 109.183 111.01 111.264C111.456 113.344 112.828 129.785 112.828 129.785C112.828 129.785 115.894 130.211 116.713 129.558C116.713 129.558 117.086 115.52 116.802 111.62C116.693 110.133 118.654 93.7943 116.14 87.2168" fill="#34466B"/>
<path fill-rule="evenodd" clip-rule="evenodd" d="M123.32 80.7614C122.566 79.3437 121.974 78.1795 121.781 77.7515C121.146 76.3411 117.874 73.1076 117.874 73.1076L117.872 73.1144L117.872 73.1184L117.87 73.122L117.866 73.1355C117.864 73.1432 117.862 73.1522 117.858 73.1629L117.854 73.1801L117.85 73.1931C117.671 73.8172 116.578 77.7196 116.538 79.6418C116.493 81.7339 116.299 87.666 116.299 87.666C116.299 87.666 109.816 89.0099 102.427 89.1139C102.427 89.1139 102.353 87.4673 102.326 84.9934C102.315 83.9579 102.514 82.0154 102.458 80.2129C102.458 80.2034 102.458 80.1938 102.458 80.1849C102.458 80.1621 102.456 80.1395 102.456 80.1166C102.454 80.1084 102.454 80.1013 102.454 80.0936V80.0897C102.419 79.0986 102.515 78.1211 102.319 77.408L102.155 76.4583C101.722 77.8522 99.4532 80.3376 99.4532 80.3376C95.8173 84.7806 94.3042 69.172 93.5586 68.1216L96.9482 67.2404L98.6681 73.7164L99.4532 71.5847L100.293 69.3041C100.388 69.2332 101.388 66.068 102.201 65.7048C103.029 65.3338 105.109 64.4588 106.013 63.9927C106.475 63.7552 106.911 63.5384 107.288 63.3757L107.346 63.351C107.97 63.082 108.256 62.9574 108.313 62.9982C108.497 63.13 109.459 63.3333 110.524 63.3333C111.918 63.3333 112.716 62.5375 113.138 62.5142C113.213 62.5097 113.275 62.5071 113.323 62.5061C113.365 62.5049 113.396 62.5043 113.415 62.5057C113.53 62.5119 114.086 62.6949 114.819 62.957C114.848 62.967 114.875 62.9769 114.904 62.9872C114.938 62.9994 114.972 63.0116 115.007 63.0241C115.071 63.0471 115.135 63.0704 115.201 63.0942C115.332 63.1424 115.467 63.1918 115.604 63.2427C115.65 63.2601 115.698 63.2777 115.747 63.2957C117.212 63.8429 118.85 64.5826 119.29 64.7889C120.165 65.199 120.519 65.9634 121.328 68.2232C122.554 71.9183 124.108 77.5743 124.156 78.9693C124.157 78.9912 124.158 79.0123 124.158 79.0321C124.158 79.1929 123.835 79.8365 123.32 80.7614Z" fill="#9BC3D3"/>
<path d="M115.004 89.8524C115.004 89.8524 115.769 90.7389 117.002 91.2637L121.151 84.246L119.001 80.3379C119.001 80.3379 115.101 89.1677 115.004 89.8524Z" fill="#444444"/>
<path fill-rule="evenodd" clip-rule="evenodd" d="M114.859 90.1735C114.207 90.3557 113.591 90.72 113.309 91.1507C113.027 91.5814 116.496 92.7737 116.496 92.7737C116.496 92.7737 117.922 90.6703 117.799 89.7595C117.676 88.8486 116.003 88.8486 116.003 88.8486C116.003 88.8486 115.51 89.9914 114.859 90.1735Z" fill="#FFC4B8"/>
<path d="M117.851 73.1931C117.851 73.1931 119.997 76.1388 119.666 78.9543L114.633 89.703C114.633 89.703 116.226 90.9948 117.573 91.5249C117.573 91.5249 123.455 80.7663 124.159 79.0323C124.159 79.0323 121.838 72.5329 117.851 73.1931Z" fill="#9BC3D3"/>
<path d="M99.457 71.585C99.4603 72.2158 99.2469 76.4101 99.2469 76.4101L98.6719 73.7167L99.457 71.585Z" fill="#9BC3D3"/>
<path fill-rule="evenodd" clip-rule="evenodd" d="M112.992 128.641L117.019 128.109L117.544 131.196L112.952 133.92L111.123 134.129L110.891 131.974L111.385 131.601L112.992 128.641Z" fill="black"/>
<path fill-rule="evenodd" clip-rule="evenodd" d="M105.128 128.723L102.652 131.236L103.025 133.179C106.358 132.604 108.769 132.188 110.256 131.931L109.018 127.476L105.128 128.723Z" fill="black"/>
<path fill-rule="evenodd" clip-rule="evenodd" d="M99.61 26.2999C100.13 22.074 103.732 18.8022 108.097 18.8022C112.82 18.8022 116.648 22.6319 116.648 27.3562C116.648 28.1312 116.545 28.8822 116.352 29.5961C116.425 29.5971 116.497 29.5996 116.568 29.6038L116.649 29.5972V29.6092C119.098 29.7933 121.029 31.8398 121.029 34.3373C121.029 36.8347 119.098 38.8812 116.649 39.0653V39.0795H85.5144C83.6058 39.079 82.0586 37.5311 82.0586 35.6219C82.0586 33.7127 83.6058 32.165 85.5143 32.165L93.4024 31.5143C93.3664 31.2787 93.3477 31.0373 93.3477 30.7916C93.3477 28.1729 95.4698 26.05 98.0876 26.05C98.6202 26.05 99.1322 26.1379 99.61 26.2999Z" fill="#CEDEE7"/>
<path fill-rule="evenodd" clip-rule="evenodd" d="M48.9838 44.9927C48.4635 40.7668 44.8619 37.4951 40.4966 37.4951C35.774 37.4951 31.9453 41.3247 31.9453 46.049C31.9453 46.8241 32.0483 47.5751 32.2415 48.289C32.1689 48.2899 32.097 48.2925 32.0254 48.2967L31.9449 48.2901V48.3021C29.4955 48.4861 27.5649 50.5327 27.5649 53.0301C27.5649 55.5276 29.4955 57.5741 31.9449 57.7582V57.7723H63.0794V57.7719H63.0795C64.9879 57.7719 66.5352 56.224 66.5352 54.3148C66.5352 52.4056 64.9879 50.8579 63.0795 50.8579H63.0794V50.8577L55.1913 50.2072C55.2274 49.9715 55.246 49.7302 55.246 49.4844C55.246 46.8658 53.124 44.7429 50.5061 44.7429C49.9736 44.7429 49.4616 44.8307 48.9838 44.9927Z" fill="#CEDEE7"/>
<path fill-rule="evenodd" clip-rule="evenodd" d="M22.1727 41.5343C22.5576 38.3649 25.2222 35.9111 28.4518 35.9111C31.9458 35.9111 34.7784 38.7833 34.7784 42.3266C34.7784 42.9079 34.7022 43.4711 34.5592 44.0065C34.6129 44.0072 34.6662 44.0092 34.7191 44.0123L34.7787 44.0073V44.0163C36.5908 44.1544 38.0192 45.6893 38.0192 47.5624C38.0192 49.4355 36.5908 50.9704 34.7787 51.1084V51.1191H11.7442V51.1187H11.7441C10.3322 51.1187 9.1875 49.9578 9.1875 48.5259C9.1875 47.094 10.3322 45.9332 11.7441 45.9332H11.7442V45.9331L17.5801 45.4452C17.5534 45.2684 17.5396 45.0874 17.5396 44.9031C17.5396 42.9392 19.1096 41.347 21.0464 41.347C21.4404 41.347 21.8192 41.4128 22.1727 41.5343Z" fill="#9BC3D3"/>
<path d="M93.2905 64.3714C93.6974 64.6313 93.8437 65.2256 93.5642 65.6542L93.477 65.5974C93.5271 65.5206 93.6071 65.3394 93.612 65.1707C93.6242 64.7567 93.2729 64.3622 92.8532 64.3351C92.3604 64.3032 91.8905 64.7946 92.0008 65.3198C92.0519 65.5627 92.2213 65.7769 92.446 65.8856L92.4007 65.9793C91.9753 65.7734 91.7618 65.2098 91.9616 64.77C92.1737 64.303 92.8069 64.0823 93.2717 64.3598C93.278 64.3636 93.2843 64.3675 93.2905 64.3714Z" fill="#DEEDF2"/>
<path fill-rule="evenodd" clip-rule="evenodd" d="M91.3319 65.9218L91.5023 65.6823C91.7 65.4049 92.1281 65.2726 92.3997 65.4964L92.5233 65.726C92.795 65.9497 92.855 66.356 92.6574 66.6337L92.4869 66.873C92.2894 67.1508 91.909 67.1942 91.6373 66.9705L91.4662 66.8295C91.1945 66.6059 91.1343 66.1994 91.3319 65.9218ZM92.3699 65.7744C92.5483 65.9214 92.378 66.1606 92.1996 66.0137C92.021 65.8668 92.1914 65.6275 92.3699 65.7744Z" fill="#9BC3D3"/>
<path d="M92.2482 66.5218L91.406 67.7049L91.5586 67.8255L91.4505 67.8921L91.2709 67.8947L91.2513 67.9224L91.4026 68.0316L91.2957 68.1096L91.1161 68.1123L91.0965 68.14L91.2476 68.249L91.141 68.3271L91.0151 68.3287L90.9125 68.3982L90.4536 68.45L90.3907 67.9685L91.353 66.6166L91.484 66.5497L92.2482 66.5218Z" fill="#9BC3D3"/>
<path d="M90.6422 68.1857L90.6543 67.9314L91.9129 66.1633L92.0194 66.251L90.6422 68.1857Z" fill="#9BC3D3"/>
<path d="M92.2567 66.0719C92.3502 66.149 92.4815 66.1338 92.5496 66.0382C92.6177 65.9425 92.5971 65.8025 92.5034 65.7253" stroke="black" stroke-width="0.5"/>
<path fill-rule="evenodd" clip-rule="evenodd" d="M92.3403 67.2106C92.0185 67.0679 91.8518 66.6925 91.9678 66.3721L92.0679 66.0957C92.1839 65.7753 92.5607 65.5333 92.8825 65.676L93.063 65.8642C93.3846 66.0068 93.4645 66.3269 93.4645 66.8021L93.4464 66.9344C93.2955 67.3198 92.8645 67.4433 92.5428 67.3006L92.3403 67.2106ZM92.9267 65.9522C93.1379 66.0459 93.0381 66.3221 92.8267 66.2282C92.6154 66.1345 92.7155 65.8584 92.9267 65.9522Z" fill="#9BC3D3"/>
<path d="M93.0431 66.6973L92.5485 68.0627L92.7277 68.1382L92.6415 68.2313L92.4692 68.2819L92.4578 68.3139L92.6326 68.3784L92.5507 68.4823L92.3783 68.5328L92.3669 68.5648L92.5419 68.6296L92.4599 68.7332L92.3392 68.7686L92.2588 68.8631L91.8307 69.0358L91.6409 68.5887L92.2059 67.0285L92.3144 66.929L93.0431 66.6973Z" fill="#9BC3D3"/>
<path d="M91.9401 68.731L91.8836 68.4827L92.6226 66.4422L92.7485 66.4981L91.9401 68.731Z" fill="#9BC3D3"/>
<path d="M93.5621 65.655C93.4513 65.8205 93.2795 65.9462 93.1003 66.0116C92.994 66.0504 92.8762 66.0672 92.7652 66.0365L92.7583 66.0344L92.788 65.9347C92.7925 65.936 92.7969 65.9372 92.8015 65.9384C93.049 66 93.3231 65.8161 93.4695 65.6061L93.4757 65.5971C93.5045 65.6164 93.5333 65.6357 93.5621 65.655Z" fill="#DEEDF2"/>
<path fill-rule="evenodd" clip-rule="evenodd" d="M92.3689 64.785C92.2057 64.3817 92.4053 63.9148 92.9676 63.3843C93.3132 63.2243 93.392 63.0778 94.1012 63.5537C94.8104 64.0296 95.0513 64.109 95.0513 64.109L94.3687 64.779C94.3687 64.779 93.7393 64.7867 93.5647 64.88C93.4483 64.9425 93.2261 65.0294 92.8983 65.1407C92.7086 65.3069 92.5321 65.1883 92.3689 64.785Z" fill="#FFC4B8"/>
</svg>
