<svg width="161" height="161" viewBox="0 0 161 161" fill="none" xmlns="http://www.w3.org/2000/svg">
<path fill-rule="evenodd" clip-rule="evenodd" d="M10.597 72.0836C12.6797 64.6114 6.05862 64.3232 5.91283 54.6952C5.85347 50.7575 8.01041 46.7471 13.201 44.9073C15.7519 44.0036 18.2943 43.3822 20.564 41.9446C25.7364 38.6687 25.6429 32.4353 27.0541 27.1216C30.1527 15.451 42.0785 6.17917 54.1502 6.48079C62.8526 6.69782 70.7202 6.96456 78.6538 14.351C84.0826 19.4054 87.6107 25.6243 92.6506 30.8349C97.9881 36.3526 104.492 39 111.795 40.773C118.702 42.4495 126.215 44.4443 131.501 49.472C136.469 54.1966 135.745 59.1382 133.615 64.9394C131.266 71.3364 136.359 75.6885 141.67 78.1797C146.142 80.2769 153.627 84.5429 153.872 92.4091C154.629 116.774 139.153 116.871 133.383 119.187C80.3036 140.49 59.9336 124.059 37.4271 124.391C14.991 124.722 2.12984 97.5892 2.90929 89.5988C3.89835 79.4533 9.1423 77.3012 10.597 72.0836Z" fill="#DEEDF2"/>
<path fill-rule="evenodd" clip-rule="evenodd" d="M99.6138 112.954C105.721 114.582 107.622 118.221 113.932 118.801C126.604 119.965 152.556 115.827 156.86 121.477C161.103 127.048 163.244 144.357 140.701 142.813C141.224 143.184 123.77 143.517 105.429 146.48C98.1722 147.652 85.876 147.849 81.0768 146.732C73.7002 145.014 66.1159 144.344 58.548 144.701C31.6312 145.974 10.3445 144.407 9.77616 139.826C9.5859 138.295 10.9886 136.057 13.3326 134.648C14.7931 133.77 12.5239 133.275 11.9946 133.126C5.49362 131.295 1.75863 129.004 1.488 126.996C0.639128 120.697 23.6088 112.789 50.886 109.413C69.4689 107.114 89.4199 110.237 99.6138 112.954Z" fill="#DEEDF2"/>
<path fill-rule="evenodd" clip-rule="evenodd" d="M144.226 115.604L78.0165 114.061L56.6719 116.677V127.482L98.8782 137.062L144.208 124.108L144.226 123.874V115.604Z" fill="#EAF7FE"/>
<path fill-rule="evenodd" clip-rule="evenodd" d="M100.816 127.65V136.321L57.1536 127.383C57.1536 127.383 54.7679 118.287 57.9586 116.785C61.1498 115.283 100.816 127.65 100.816 127.65Z" fill="#CCCCCC"/>
<path fill-rule="evenodd" clip-rule="evenodd" d="M144.968 113.677L136.824 115.578L103.994 109.238L66.0623 116.625L57.4141 114.835V118.309L101.191 127.788L144.968 117.151V113.677Z" fill="#34466B"/>
<path fill-rule="evenodd" clip-rule="evenodd" d="M144.968 113.69L101.191 124.078L57.4141 114.599L103.994 105.528L144.968 113.441V113.69Z" fill="#34466B"/>
<path fill-rule="evenodd" clip-rule="evenodd" d="M141.695 124.425C141.695 124.425 101.139 135.23 100.535 135.23C99.9902 135.23 64.9926 128.153 58.2293 126.865C56.8733 123.608 58.358 118.305 58.358 118.305L57.9199 116.958L57.9111 116.96C58.7815 115.703 57.1008 114.816 57.1008 114.816C57.1008 114.816 55.9369 114.436 55.1607 117.829C54.9049 118.947 54.8186 120.476 54.8164 122.025C54.8164 122.087 54.9085 127.286 55.7555 128.537L100.271 138.918L145.338 126.036V123.475L141.695 124.425Z" fill="#34466B"/>
<path fill-rule="evenodd" clip-rule="evenodd" d="M80.7395 128.159C80.7395 128.159 79.661 137.791 80.188 137.687C80.7151 137.583 83.1558 135.539 83.1558 135.539C83.1558 135.539 86.303 139.764 86.303 139.244C86.303 138.725 87.4628 129.594 87.4628 129.594L80.7395 128.159Z" fill="#EC0000"/>
<path d="M78.9297 111.828C79.5399 112.056 103.947 107.012 103.947 107.012L125.304 111.159L78.9297 111.828Z" fill="#137E84"/>
<path d="M74.4766 116.446L101.663 120.739L126.786 115.174L74.4766 116.446Z" fill="#137E84"/>
<path fill-rule="evenodd" clip-rule="evenodd" d="M53.7031 102.619L119.912 101.076L141.257 103.692V114.497L99.0508 124.078L53.7212 111.123L53.7031 110.89V102.619Z" fill="#CCCCCC"/>
<path fill-rule="evenodd" clip-rule="evenodd" d="M97.1094 115.036V123.707L140.772 114.769C140.772 114.769 143.157 105.672 139.967 104.171C136.775 102.669 97.1094 115.036 97.1094 115.036Z" fill="#EAF7FE"/>
<path fill-rule="evenodd" clip-rule="evenodd" d="M61.1298 102.594L94.0584 96.2534L132.104 103.64L140.7 102.189L140.778 105.324L96.8692 114.803L52.9609 104.166V100.692L61.1298 102.594Z" fill="#EC0000"/>
<path fill-rule="evenodd" clip-rule="evenodd" d="M96.7899 111.464L141.071 102.189L93.9842 92.9146L52.9609 100.828L96.7899 111.464Z" fill="#EC0000"/>
<path fill-rule="evenodd" clip-rule="evenodd" d="M97.3928 122.576C97.9384 122.576 132.936 115.421 139.699 114.119C141.055 110.827 139.57 105.466 139.57 105.466L140.008 104.104L140.017 104.106C139.147 102.835 140.562 102.247 140.562 102.247C140.562 102.247 141.992 101.555 142.767 104.984C143.023 106.115 143.11 107.661 143.112 109.226C143.112 109.289 143.02 114.544 142.173 115.809L97.657 126.304L52.5898 113.282V110.692L56.2328 111.652C56.2328 111.652 96.7891 122.576 97.3928 122.576Z" fill="#EC0000"/>
<path fill-rule="evenodd" clip-rule="evenodd" d="M72.2555 96.1968C73.5276 97.9286 72.0759 102.599 68.5296 107.771C65.2656 112.535 60.2216 117.72 53.8914 121.419C40.686 129.135 27.6501 128.811 25.1763 125.326L12.8672 107.262L60.6954 79.3159C60.6954 79.3159 72.1624 96.0706 72.2555 96.1968Z" fill="#34466B"/>
<path fill-rule="evenodd" clip-rule="evenodd" d="M71.246 72.5951L45.1237 107.968L43.7266 105.918L69.9237 70.6548L71.246 72.5951Z" fill="#34466B"/>
<path fill-rule="evenodd" clip-rule="evenodd" d="M69.9219 70.6548L43.7232 105.918L4.54466 114.732L2.87891 114.999L30.6988 80.0809L69.9219 70.6548Z" fill="#34466B"/>
<path fill-rule="evenodd" clip-rule="evenodd" d="M68.5303 107.771C68.5303 107.771 69.6348 100.675 66.6509 96.2968C63.6065 91.829 59.8072 91.3088 58.2038 91.3088C57.7178 91.3088 57.4336 91.3567 57.4336 91.3567L63.3698 83.2861C63.3698 83.2861 72.1631 96.0705 72.2562 96.1966C72.5619 96.6129 72.7103 97.1983 72.7103 97.9199C72.7099 100.201 71.2248 103.842 68.5303 107.771Z" fill="#34466B"/>
<path fill-rule="evenodd" clip-rule="evenodd" d="M39.1109 90.6141C39.2552 90.8256 39.2545 91.1057 39.1332 91.4062C38.9261 91.9349 38.3507 92.5373 37.5494 93.0059C36.2888 93.742 34.9447 93.8666 34.5459 93.2816C34.2528 92.8512 34.5518 92.1608 35.2307 91.5338C35.4759 91.3053 35.7727 91.0857 36.1077 90.8901C37.368 90.1534 38.7121 90.0291 39.1109 90.6141Z" fill="#F6C854"/>
<path fill-rule="evenodd" clip-rule="evenodd" d="M23.071 124.532C24.0901 128.687 24.1291 132.218 23.1608 132.421C22.1925 132.624 20.5801 129.423 19.5607 125.268C18.5412 121.113 18.5026 117.581 19.4705 117.378C19.7399 117.322 20.0611 117.528 20.3998 117.945C21.2902 119.029 22.3349 121.531 23.071 124.532Z" fill="#F6C854"/>
<path fill-rule="evenodd" clip-rule="evenodd" d="M21.2898 117.281C21.4419 117.902 21.1996 118.52 20.714 118.91C20.4981 119.083 20.2347 119.213 19.9334 119.276C18.9651 119.479 17.9994 118.915 17.7794 118.017C17.631 117.413 17.8592 116.812 18.3163 116.42C18.5377 116.231 18.8167 116.09 19.1354 116.023C20.1037 115.82 21.0694 116.384 21.2898 117.281Z" fill="#F6C854"/>
<path fill-rule="evenodd" clip-rule="evenodd" d="M4.13583 116.825L45.1274 107.956L43.7254 105.899L2.87891 114.98L4.13583 116.825Z" fill="#34466B"/>
<path fill-rule="evenodd" clip-rule="evenodd" d="M36.4956 91.6968L23.712 108.551L24.0433 108.802L23.758 108.5C23.7135 108.541 21.1117 111.016 19.0742 117.249L19.8644 117.507C20.8609 114.46 21.9884 112.349 22.8609 111.005C23.2968 110.333 23.6693 109.853 23.9301 109.543C24.0603 109.388 24.1627 109.276 24.231 109.203C24.2655 109.168 24.2911 109.142 24.3074 109.125L24.3252 109.108L24.3286 109.104L24.2978 109.072L24.3286 109.104L24.2978 109.072L24.3286 109.104L24.3534 109.081L37.1578 92.1991L36.4956 91.6968Z" fill="#F6C854"/>
<path fill-rule="evenodd" clip-rule="evenodd" d="M97.7625 78.0211L97.4824 80.9088L99.9616 90.8302L97.6596 106.773L99.3539 107.383L103.822 91.8183L104.531 87.2901L104.505 77.7041L97.7625 78.0211Z" fill="#FFC4B8"/>
<path fill-rule="evenodd" clip-rule="evenodd" d="M108.184 107.754H106.472L106.164 90.5332L103.047 78.446H111.766L108.184 107.754Z" fill="#FFC4B8"/>
<path fill-rule="evenodd" clip-rule="evenodd" d="M114.46 64.9268C114.301 64.1523 113.557 63.0541 113.469 61.9347C113.382 60.8142 111.892 56.4481 111.866 55.7892C111.839 55.1313 111.092 52.1339 110.382 50.8384C109.656 49.5132 107.303 48.7131 107.303 48.7131C107.303 48.7131 108.52 55.2077 108.507 56.5574C108.502 56.9627 108.632 57.7012 108.82 58.5521L108.824 58.5723C108.863 58.759 108.865 58.9192 108.847 59.0657C108.787 59.5505 108.511 59.8752 108.681 60.5118L108.677 60.8524C108.694 60.9161 108.711 60.9798 108.728 61.0434C108.967 61.9623 109.189 62.9416 109.292 63.3809C109.314 63.4721 109.33 63.54 109.34 63.5793C109.499 64.1735 109.306 63.8573 109.587 65.3449C109.587 65.3449 114.766 66.4218 114.46 64.9268Z" fill="#34466B"/>
<path fill-rule="evenodd" clip-rule="evenodd" d="M94.869 84.0921C94.869 84.0921 95.3685 69.2588 97.0238 65.543C98.6791 61.8273 109.506 63.4995 109.506 63.4995C109.506 63.4995 113.902 77.6961 113.902 80.8092C113.902 80.8092 106.255 84.0921 94.869 84.0921Z" fill="#34466B"/>
<path fill-rule="evenodd" clip-rule="evenodd" d="M109.829 57.8533C108.971 59.8395 109.78 60.5027 109.388 62.4879C108.995 64.4741 108.996 69.8907 109.069 70.9942C109.143 72.0966 98.7059 75.1938 96.4254 73.1831C96.4254 73.1831 96.6251 70.7671 97.3738 68.5496C97.4668 68.2758 97.5615 68 97.6581 67.7251C98.0298 66.6673 98.4249 65.6317 98.7953 64.8296C99.035 64.3097 99.1613 61.9977 98.8913 61.3112C98.7872 61.0459 98.2701 60.1196 97.6755 59.082C97.4265 58.6501 97.1646 58.197 96.913 57.7663C96.2052 56.5514 95.5815 55.4988 95.5815 55.4988C95.5815 55.4988 94.9522 50.3857 96.2788 49.3554C96.7322 49.0042 97.5553 48.7273 98.4218 48.5098C98.7469 48.4281 99.0796 48.3559 99.3998 48.2902C100.396 48.0833 101.283 47.9496 101.543 47.8604C102.106 47.6642 103.747 47.5782 104.9 47.7501C104.9 47.7501 106.665 48.583 107.278 48.7061C107.892 48.8292 110.316 51.8128 110.733 52.9396C111.15 54.0686 111.172 56.187 109.829 57.8533L108.315 56.391L106.071 59.4517" fill="#34466B"/>
<path d="M98.8164 63.8179C98.8164 63.8179 97.9451 64.2794 98.1917 64.6115C98.4381 64.9436 98.8066 65.3447 98.8066 65.3447L98.8164 63.8179Z" fill="#F4A48D"/>
<path d="M105.985 64.5555L101.843 64.1194C102.221 63.9454 102.836 63.6271 102.724 63.4435C102.565 63.1825 101.339 63.6048 100.858 63.6069C100.416 63.6101 99.8363 63.8573 99.7421 63.8987L98.7239 63.7915L98.8093 65.3449C98.8093 65.3449 100.981 65.8096 101.612 65.9157C102.636 66.0876 105.912 65.1613 105.982 64.9799C106.109 64.6531 105.985 64.5555 105.985 64.5555Z" fill="#F4A48D"/>
<path d="M112.133 64.7244C112.133 64.7244 113.282 64.7074 113.177 64.2936C113.072 63.8798 112.267 64.1058 112.267 64.1058L112.133 64.7244Z" fill="#F4A48D"/>
<path fill-rule="evenodd" clip-rule="evenodd" d="M94.8049 74.7954C95.836 75.4482 96.6318 75.8019 97.1923 75.8564C100.472 76.1756 101.981 76.3583 102.497 76.387C111.286 76.8755 110.995 74.3349 110.848 71.502C110.604 66.7825 111.183 60.6974 110.787 57.0422C110.39 53.3869 96.5048 58.6804 96.5048 58.6804C96.5048 58.6804 95.8341 63.4137 94.8049 74.7954Z" fill="#34466B"/>
<path fill-rule="evenodd" clip-rule="evenodd" d="M116.669 59.4334C116.875 59.3538 117.474 59.4896 118.149 59.7061C118.824 59.9225 119.638 60.5178 119.671 60.6355C119.705 60.7523 119.793 60.8562 119.69 61.1523C119.587 61.4483 119.338 61.6425 119.338 61.6425C119.338 61.6425 119.383 62.0679 119.057 62.2833C119.057 62.2833 119.081 62.6844 118.671 62.869C118.671 62.869 118.684 63.2627 118.375 63.3709C118.375 63.3709 117.774 63.2351 117.537 63.2499C117.3 63.2637 116.121 62.7788 114.995 62.2441C114.995 62.2441 113.677 61.8207 115.136 60.0732C115.136 60.0732 116.464 59.5119 116.669 59.4334Z" fill="#F4A48D"/>
<path fill-rule="evenodd" clip-rule="evenodd" d="M118.899 65.052L109.731 66.3405C109.47 66.3772 109.227 66.1809 109.187 65.9022L108.383 60.1818C108.344 59.9031 108.524 59.6475 108.785 59.6108L117.953 58.3224C118.214 58.2857 118.458 58.4818 118.497 58.7605L119.301 64.4809C119.34 64.7596 119.16 65.0153 118.899 65.052Z" fill="#EC0000"/>
<path fill-rule="evenodd" clip-rule="evenodd" d="M110.278 62.3211L109.703 62.4019C109.599 62.4165 109.528 62.5176 109.544 62.6279L109.63 63.2421C109.645 63.3523 109.742 63.43 109.845 63.4154L110.42 63.3346C110.524 63.3201 110.595 63.2189 110.579 63.1086L110.493 62.4945C110.478 62.3842 110.381 62.3066 110.278 62.3211Z" fill="#DEEDF2"/>
<path fill-rule="evenodd" clip-rule="evenodd" d="M116.522 63.12L118.606 63.1534L118.634 63.6483L116.55 63.6149L116.522 63.12ZM114.184 63.4481L116.268 63.4815L116.296 63.9764L114.212 63.943L114.184 63.4481ZM111.846 63.7767L113.93 63.8101L113.958 64.305L111.874 64.2716L111.846 63.7767ZM109.497 64.1073L111.58 64.1407L111.608 64.6356L109.525 64.6022L109.497 64.1073ZM110.65 65.005L111.46 64.9555L111.501 65.3978L110.691 65.4473L110.65 65.005ZM109.623 65.1496L110.433 65.1001L110.473 65.5423L109.663 65.5918L109.623 65.1496Z" fill="#CC0000"/>
<path fill-rule="evenodd" clip-rule="evenodd" d="M117.249 59.8251C117.245 59.7358 117.215 59.648 117.161 59.5751L117.088 59.4775L116.797 59.087C116.769 59.0497 116.748 59.0086 116.733 58.9654L116.724 58.9893C116.673 59.1309 116.696 59.2926 116.786 59.4134L116.786 59.4135L117.088 59.8187C117.088 59.8187 117.088 59.8187 117.088 59.8187C117.169 59.9378 117.189 60.0922 117.139 60.2282L117.13 60.2521C117.116 60.2089 117.094 60.1678 117.066 60.1305L117.094 60.1672L116.848 59.8376L116.623 59.5359L116.63 59.5447C116.602 59.5075 116.581 59.4664 116.566 59.4232L116.557 59.4471C116.505 59.5887 116.529 59.7504 116.619 59.8712L116.619 59.8713L116.629 59.884L116.837 60.1642L116.837 60.1642L116.91 60.2618C117 60.3826 117.024 60.5443 116.972 60.6859L116.963 60.7099C116.948 60.6667 116.927 60.6256 116.899 60.5883L116.927 60.6249L116.535 60.1002L116.535 60.1001C116.5 60.0522 116.474 59.9978 116.46 59.9409C116.131 60.0734 115.92 60.2944 115.952 60.5107C115.995 60.8036 116.465 60.9769 117.003 60.898C117.541 60.8191 117.942 60.5177 117.899 60.2249C117.868 60.0086 117.603 59.8575 117.249 59.8251Z" fill="white"/>
<path fill-rule="evenodd" clip-rule="evenodd" d="M108.843 64.3858C109.488 64.1863 110.289 63.5762 110.872 63.7152C111.35 63.8292 111.537 64.4505 111.558 65.092C111.563 65.2331 111.605 64.7483 111.55 65.5129C111.495 66.2776 111.392 66.4499 111.246 66.5959C110.875 66.9684 109.454 66.9312 107.536 66.2829C105.618 65.6346 107.984 64.407 107.984 64.407C107.984 64.407 108.469 64.5015 108.843 64.3858Z" fill="#FFC4B8"/>
<path fill-rule="evenodd" clip-rule="evenodd" d="M97.1792 48.7895C97.9152 48.7279 99.6792 49.5831 99.702 51.6267C99.7191 53.1556 99.7265 54.4724 99.6756 55.0772C99.6247 55.682 99.6181 59.7298 99.9768 60.1075C100.431 60.585 102.989 61.8285 103.222 61.9781C104.026 62.4959 107.988 64.1607 107.988 64.1607L106.122 71.6569C106.122 71.6569 97.0815 65.5379 96.1769 64.861C95.581 64.4153 95.0807 62.6646 94.8388 60.7516C94.5929 58.8078 94.7286 54.1689 94.7567 53.7795C94.7849 53.3891 94.4935 49.0123 97.1792 48.7895Z" fill="#34466B"/>
<path fill-rule="evenodd" clip-rule="evenodd" d="M100.13 48.1423C100.13 48.1423 106.008 51.6183 106.008 51.6002C106.008 51.3498 106.5 48.4479 106.5 48.4479C106.5 48.4479 105.636 47.9534 105.393 47.9068C105.231 47.8749 103.954 47.8442 101.562 47.8145L101.966 49.0654" fill="#EAF7FE"/>
<path fill-rule="evenodd" clip-rule="evenodd" d="M106.008 51.6L105.534 47.9521C105.534 47.9521 107.311 48.4211 108.551 49.2678L106.008 51.6Z" fill="#9E3667"/>
<path fill-rule="evenodd" clip-rule="evenodd" d="M101.438 48.0042C101.438 47.7389 103.188 44.887 103.301 43.5142C103.021 43.3556 102.757 43.157 102.518 42.9183C101.092 41.4923 101.097 39.1724 102.528 37.741C103.96 36.3095 106.28 36.3052 107.706 37.7312C108.285 38.3102 108.628 39.0367 108.735 39.7913L109.447 42.2174L108.799 42.3573L108.796 44.2114C108.796 44.6946 108.492 45.1268 108.038 45.2924L107.013 45.6658C107.013 45.666 106.959 45.8237 106.864 46.0764L105.416 48.2694C105.016 48.7968 102.764 48.2694 101.438 48.0042Z" fill="#FFC4B8"/>
<path fill-rule="evenodd" clip-rule="evenodd" d="M106.768 46.3189C106.297 46.1661 105.615 45.7864 104.883 44.8557L107.01 45.6655C107.01 45.6655 106.92 45.9281 106.768 46.3189ZM108.797 42.3568C108.602 42.4174 108.407 42.2669 108.416 42.0635L108.477 40.752L108.797 42.3568Z" fill="#F4A48D"/>
<path fill-rule="evenodd" clip-rule="evenodd" d="M106.008 51.6002L97.1799 48.7895C97.1799 48.7895 98.7008 47.8802 101.562 47.8145L106.008 51.6002Z" fill="#9E3667"/>
<path fill-rule="evenodd" clip-rule="evenodd" d="M104.844 36.3862C105.553 36.3862 106.219 36.573 106.796 36.9002C107.372 37.2273 107.858 37.6948 108.209 38.2564C108.509 38.738 108.709 39.2884 108.78 39.8788L108.559 39.0848C108.455 38.8623 108.33 38.6463 108.18 38.4406L108.175 38.471L108.169 38.5015L108.168 38.5032L108.163 38.5322L108.156 38.5628L108.156 38.5653L108.15 38.5936L108.143 38.6243L108.142 38.6264L108.136 38.655L108.128 38.6857L108.128 38.6863C108.101 38.797 108.069 38.9059 108.033 39.0127L108.024 39.0401L108.022 39.0435L108.014 39.0682L108.012 39.0731L108.003 39.0968L108.001 39.1027L107.993 39.1254L107.99 39.1321L107.982 39.1542L107.979 39.1614L107.971 39.183L107.968 39.1905L107.959 39.2118L107.956 39.2196L107.948 39.2405L107.945 39.2485L107.936 39.2693L107.933 39.2772L107.924 39.2979L107.921 39.3057L107.912 39.3265L107.908 39.334L107.899 39.3549L107.896 39.362L107.886 39.3832L107.883 39.3897L107.873 39.4116L107.871 39.4169L107.86 39.4397L107.858 39.4428C107.833 39.4958 107.807 39.5481 107.779 39.5998L107.777 39.604L107.766 39.6245L107.762 39.6314L107.752 39.6504L107.747 39.6587L107.737 39.6767L107.732 39.6859L107.722 39.7032L107.717 39.7129L107.707 39.7297L107.701 39.7398L107.692 39.7562L107.686 39.7666L107.676 39.7826L107.669 39.7932L107.66 39.809L107.653 39.8197L107.644 39.8352L107.637 39.846L107.627 39.8614L107.62 39.8722L107.611 39.8874L107.604 39.8982L107.594 39.9133L107.587 39.9241L107.577 39.9391L107.569 39.9498L107.559 39.9648L107.552 39.9754L107.542 39.9903L107.535 40.0007L107.524 40.0157L107.517 40.0258L107.507 40.0409L107.5 40.0505L107.488 40.066L107.483 40.0741C107.468 40.0943 107.453 40.1144 107.438 40.1342L107.434 40.1396L107.422 40.1546L107.415 40.1641L107.404 40.178L107.396 40.1886L107.385 40.2019L107.377 40.2128L107.366 40.2258L107.357 40.237L107.347 40.2497L107.338 40.2609L107.327 40.2734L107.318 40.2847L107.308 40.297L107.298 40.3084L107.288 40.3205L107.278 40.3319L107.268 40.3439L107.258 40.3552L107.247 40.3671L107.237 40.3784L107.227 40.3901L107.217 40.4014L107.206 40.413L107.196 40.4243L107.185 40.4357L107.175 40.447L107.164 40.4583L107.153 40.4696L107.143 40.4807L107.132 40.492L107.121 40.503L107.11 40.5142L107.1 40.5251L107.089 40.5364L107.078 40.547L107.066 40.5584L107.056 40.5687L107.044 40.5805L107.034 40.5903L107.021 40.6033L107.012 40.6117L106.99 40.6327L106.982 40.6402L106.967 40.6538L106.957 40.6628L106.944 40.6747L106.934 40.684L106.921 40.6954L106.911 40.7049L106.898 40.716L106.887 40.7255L106.875 40.7364L106.864 40.7459L106.852 40.7566L106.84 40.7661L106.828 40.7766L106.817 40.786L106.804 40.7964L106.793 40.8058L106.78 40.8161L106.769 40.8254L106.756 40.8356L106.745 40.8448L106.732 40.8549L106.72 40.864L106.708 40.874L106.696 40.883L106.683 40.893L106.671 40.9018L106.658 40.9117L106.647 40.9205L106.633 40.9304L106.622 40.9389L106.608 40.9488L106.597 40.9572L106.583 40.9671L106.572 40.9752L106.558 40.9853L106.546 40.9931L106.532 41.0034L106.521 41.0108L106.505 41.0218L106.495 41.0283L106.475 41.042L106.47 41.0456L106.444 41.0626L106.436 41.0677L106.418 41.0795L106.407 41.086L106.392 41.0962L106.38 41.1032L106.365 41.1127L106.354 41.1199L106.339 41.129L106.327 41.1363L106.312 41.1451L106.3 41.1524L106.285 41.161L106.273 41.1682L106.259 41.1767L106.246 41.1839L106.232 41.1922L106.219 41.1993L106.205 41.2074L106.192 41.2145L106.177 41.2225L106.165 41.2295L106.15 41.2374L106.137 41.2443L106.122 41.2521L106.109 41.2588L106.095 41.2666L106.082 41.2732L106.067 41.2808L106.054 41.2873L106.039 41.2949L106.026 41.3012L106.011 41.3088L105.998 41.315L105.982 41.3225L105.97 41.3284L105.953 41.3361L105.941 41.3417L105.924 41.3496L105.913 41.3548L105.894 41.3633L105.884 41.3676L105.856 41.3802C105.842 41.3432 105.828 41.3075 105.812 41.2731C105.793 41.23 105.772 41.1891 105.75 41.1505C105.736 41.1256 105.721 41.1017 105.705 41.0789C105.684 41.0477 105.663 41.0185 105.64 40.9915C105.629 40.9783 105.618 40.9656 105.606 40.9534C105.6 40.9463 105.593 40.9395 105.586 40.9328C105.562 40.9087 105.537 40.8871 105.512 40.8681C105.47 40.8365 105.426 40.8123 105.382 40.7964C105.368 40.7911 105.353 40.7867 105.338 40.7833C105.298 40.774 105.258 40.7717 105.218 40.7773L105.213 40.7781L105.207 40.7791L105.201 40.7802C105.184 40.7834 105.168 40.788 105.152 40.7939L105.146 40.7964C105.142 40.7979 105.138 40.7995 105.135 40.8011C105.123 40.8063 105.112 40.8121 105.101 40.8187L105.094 40.8225C105.076 40.8336 105.059 40.8465 105.043 40.8611C105.029 40.8734 105.016 40.8869 105.003 40.9014C105.001 40.9034 104.999 40.9054 104.998 40.9074L104.993 40.9136C104.962 40.9509 104.936 40.9947 104.913 41.044C104.898 41.0771 104.884 41.1128 104.872 41.1505L104.872 41.153L104.867 41.1674L104.867 41.1694L104.863 41.1846L104.858 41.2006L104.854 41.2175L104.85 41.235L104.85 41.2377L104.846 41.253L104.843 41.2714L104.843 41.2731L104.84 41.2899L104.837 41.3071L104.834 41.3254L104.834 41.3281L104.832 41.3444L104.831 41.3472L104.83 41.3637L104.828 41.3835L104.826 41.4026L104.825 41.4213L104.823 41.4409L104.823 41.461L104.822 41.4815L104.821 41.5024V41.5219V41.5234L104.822 41.5419L104.822 41.5445L104.822 41.5625L104.822 41.5656L104.823 41.5837L104.824 41.6051L104.825 41.6268L104.827 41.6467L104.827 41.6486L104.829 41.6676C104.833 41.7202 104.841 41.7738 104.851 41.828L104.854 41.8396C104.856 41.8545 104.86 41.8693 104.863 41.8839C104.867 41.9037 104.872 41.9233 104.877 41.9426L104.881 41.957C104.886 41.9755 104.891 41.9939 104.897 42.012C104.919 42.0832 104.945 42.1506 104.974 42.2133C105.016 42.3048 105.066 42.3864 105.12 42.4551C105.15 42.4923 105.18 42.5258 105.212 42.555C105.218 42.5608 105.225 42.5664 105.231 42.5718C105.235 42.6224 105.238 42.6733 105.24 42.7244L105.241 42.7517L105.241 42.7605L105.242 42.779L105.242 42.7893L105.242 42.8065L105.243 42.8171L105.243 42.8344L105.243 42.8445L105.243 42.8636L105.243 42.8717L105.244 42.8988V42.9025L105.243 42.9259V42.9351L105.243 42.953L105.243 42.9634L105.243 42.9803L105.243 42.9908L105.242 43.0081L105.242 43.0179L105.242 43.0376L105.241 43.0449L105.24 43.0717L105.24 43.0774L105.239 43.0985L105.239 43.108L105.238 43.1254L105.238 43.1358L105.237 43.1525L105.236 43.1629L105.235 43.1802L105.235 43.1897L105.233 43.2104L105.233 43.2163L105.231 43.2429L105.23 43.2499L105.229 43.2695L105.228 43.2791L105.226 43.2961L105.225 43.3064L105.224 43.323L105.223 43.3331L105.221 43.3506L105.22 43.3596L105.218 43.3819L105.218 43.386L105.215 43.4122L105.214 43.42L105.211 43.4385L105.21 43.4483L105.208 43.4649L105.207 43.4751L105.205 43.4916L105.203 43.5015L105.201 43.5192L105.2 43.5277L105.196 43.5529L105.192 43.5797L105.191 43.588L105.188 43.6057L105.186 43.6155L105.184 43.6318L105.182 43.6419L105.179 43.6582L105.178 43.6679L105.174 43.6858L105.173 43.6937L105.168 43.7194L105.168 43.7226L105.163 43.745L105.162 43.7538L105.158 43.7707L105.156 43.7806L105.153 43.7965L105.151 43.8065L105.148 43.8228L105.145 43.8322L105.141 43.8505L105.14 43.8576L105.134 43.8829L105.133 43.8882L105.128 43.9082L105.126 43.9172L105.122 43.9336L105.12 43.9434L105.116 43.9591L105.114 43.9689L105.11 43.9851L105.107 43.9941L105.102 44.0132L105.101 44.0192L105.094 44.0441L105.092 44.0507L105.087 44.0691L105.085 44.0782L105.081 44.0941L105.078 44.1038L105.073 44.1192L105.071 44.1289L105.066 44.145L105.063 44.1537L105.057 44.1739L105.056 44.1784L105.048 44.2029L105.046 44.2103L105.041 44.2275L105.038 44.2367L105.033 44.2521L105.03 44.2618L105.025 44.277L105.022 44.2864L105.016 44.3025L105.013 44.3108L105.006 44.3331L105.005 44.3351L104.997 44.3591L104.994 44.3671L104.988 44.3833L104.985 44.3927L104.979 44.4076L104.976 44.4172L104.97 44.4321L104.967 44.4413L104.961 44.4575L104.958 44.4653L104.949 44.489L104.939 44.5127L104.936 44.5211L104.93 44.5365L104.926 44.5459L104.92 44.5603L104.916 44.5698L104.91 44.5844L104.907 44.5935L104.9 44.6098L104.897 44.617L104.887 44.6402L104.884 44.6456L104.877 44.6635L104.873 44.6722L104.866 44.6868L104.862 44.6962L104.856 44.7102L104.852 44.7197L104.845 44.734L104.841 44.7428L104.833 44.7593L104.83 44.7659L104.819 44.7885L104.816 44.7952L104.809 44.8113L104.804 44.8202L104.797 44.8342L104.793 44.8436L104.786 44.8572L104.781 44.8665L104.774 44.8806L104.77 44.8892L104.761 44.9062L104.758 44.9117L104.747 44.9338L104.743 44.9413L104.735 44.9561L104.73 44.9652L104.723 44.9785L104.718 44.9879L104.711 45.001L104.706 45.0103L104.698 45.024L104.693 45.0324L104.684 45.0503L104.681 45.0544L104.669 45.0759L104.664 45.084L104.656 45.0978L104.651 45.1069L104.644 45.1197L104.638 45.129L104.631 45.1417L104.625 45.1508L104.617 45.1643L104.612 45.1724L104.6 45.1924L104.596 45.1981L104.586 45.2148L104.581 45.2232L104.573 45.2361L104.567 45.2453L104.559 45.2575L104.553 45.2668L104.545 45.279L104.54 45.288L104.531 45.3012L104.526 45.309L104.512 45.3294L104.508 45.3359L104.498 45.3502L104.492 45.359L104.484 45.371L104.478 45.3802L104.47 45.3918L104.463 45.4011L104.455 45.4128L104.449 45.4217L104.44 45.4346L104.435 45.4422L104.42 45.4619L104.415 45.4695L104.406 45.4822L104.399 45.4911L104.391 45.5024L104.384 45.5116L104.376 45.5226L104.369 45.5319L104.361 45.543L104.354 45.5519L104.344 45.5645L104.339 45.5718L104.324 45.5907L104.317 45.599L104.309 45.6104L104.301 45.6195L104.293 45.6301L104.286 45.6393L104.277 45.6497L104.27 45.6589L104.261 45.6695L104.254 45.6783L104.244 45.6906L104.238 45.6974L104.235 45.7019L104.223 45.7159L104.216 45.7246L104.208 45.734L104.181 45.7651L104.177 45.7699L104.149 45.8013L104.148 45.8033L104.12 45.8344L104.118 45.8367L104.09 45.8675L104.086 45.872L104.057 45.9022L104.054 45.9056L104.025 45.9367L103.995 45.9672L103.991 45.9711L103.962 46.0004L103.958 46.0043L103.928 46.0342L103.897 46.0645L103.894 46.067L103.864 46.0957L103.86 46.0996L103.829 46.1281L103.827 46.1303L103.794 46.1594L103.762 46.1882L103.758 46.1916L103.727 46.2191L103.723 46.222L103.691 46.25L103.678 46.2605L103.673 46.265L103.661 46.2745L103.654 46.2809L103.642 46.2901L103.634 46.2966L103.623 46.3057L103.615 46.3121L103.604 46.3213L103.596 46.3273L103.584 46.3368L103.58 46.3406L103.566 46.3513L103.553 46.3617L103.547 46.3657L103.535 46.3753L103.528 46.3809L103.516 46.39L103.508 46.3958L103.496 46.4049L103.489 46.4105L103.476 46.4197L103.47 46.4247C103.454 46.436 103.439 46.4472 103.424 46.4583L103.419 46.4619L103.405 46.4713L103.398 46.4763L103.386 46.4853L103.378 46.4904L103.366 46.4994L103.358 46.5043L103.345 46.5135L103.34 46.5174C103.323 46.5284 103.307 46.5393 103.291 46.5502L103.286 46.5533L103.272 46.5626L103.266 46.5669L103.252 46.5758L103.245 46.5803L103.231 46.5892L103.225 46.5933L103.21 46.6025L103.206 46.6049C103.189 46.6158 103.172 46.6265 103.155 46.6372L103.15 46.6399L103.135 46.649L103.129 46.6527L103.115 46.6615L103.108 46.6652L103.093 46.674L103.088 46.6773L103.072 46.6866L103.071 46.6871C103.053 46.6979 103.034 46.7086 103.015 46.7192L103.011 46.7216L102.995 46.7304L102.99 46.7335L102.974 46.7421L102.968 46.7452L102.952 46.7539L102.948 46.7562C102.923 46.7697 102.898 46.783 102.872 46.7961L102.869 46.7981L102.852 46.8066L102.847 46.8092L102.83 46.8175L102.825 46.82L102.808 46.8285L102.805 46.8299C102.779 46.8428 102.753 46.8554 102.727 46.8678L102.723 46.8695L102.706 46.8776L102.701 46.8797L102.683 46.8877L102.68 46.8896L102.661 46.8979C102.633 46.9104 102.605 46.9224 102.578 46.9342L102.556 46.9432L102.552 46.9449L102.534 46.9526L102.531 46.9537C102.496 46.9679 102.461 46.9817 102.426 46.9951L102.404 47.0034L102.401 47.0045L102.381 47.0119C102.344 47.0255 102.308 47.0382 102.272 47.0504L102.249 47.0579L102.247 47.0586C102.203 47.0731 102.159 47.0869 102.115 47.1L102.092 47.1067C102.046 47.12 102.001 47.1322 101.955 47.1437L101.932 47.1496C101.595 47.2333 101.242 47.2777 100.879 47.2777C100.781 47.2777 100.683 47.2743 100.587 47.2677C100.339 47.2508 100.11 47.3871 100.007 47.6126C99.3513 49.0389 97.9125 50.0294 96.2418 50.0294C95.4838 50.0294 94.7738 49.8253 94.1628 49.4692C93.7092 49.2047 93.1527 49.2255 92.6998 49.4911C92.3746 49.6817 91.9961 49.791 91.5921 49.791C90.3062 49.791 89.2782 48.6848 89.4051 47.3709C89.4983 46.4067 90.23 45.6048 91.1809 45.4276C91.1882 45.4263 91.1955 45.425 91.2028 45.4237C91.7248 45.3317 92.1616 44.9769 92.3407 44.4774C92.915 42.8756 94.4448 41.73 96.2418 41.73H96.2462C96.4939 41.7302 96.7141 41.5758 96.8026 41.3442C97.4562 39.635 99.1497 38.4412 101.108 38.5417C101.176 38.5451 101.242 38.5501 101.309 38.5567C101.314 38.5471 101.318 38.5382 101.323 38.5292L101.324 38.5266L101.326 38.5234L101.33 38.5156L101.34 38.4965C101.345 38.4876 101.35 38.4786 101.355 38.4697L101.356 38.4667L101.358 38.4639C101.362 38.455 101.367 38.4461 101.372 38.4372L101.383 38.4185L101.387 38.4106L101.389 38.4076C101.395 38.3963 101.4 38.3876 101.405 38.3787L101.415 38.3611L101.421 38.3521L101.422 38.349L101.424 38.3469C101.429 38.3382 101.434 38.3296 101.439 38.3209L101.44 38.32L101.441 38.3176L101.449 38.3043L101.455 38.2941L101.457 38.2911L101.458 38.2894C101.463 38.2808 101.469 38.2722 101.474 38.2637L101.476 38.2597L101.484 38.248L101.491 38.2366L101.493 38.2338L101.494 38.2325C101.499 38.224 101.504 38.2156 101.51 38.2072L101.513 38.2026L101.519 38.1924L101.528 38.1795L101.529 38.1773C101.535 38.1679 101.541 38.1595 101.546 38.1512L101.55 38.1464L101.556 38.1375L101.566 38.1228L101.567 38.1208C101.573 38.1124 101.578 38.1042 101.584 38.0958L101.586 38.0935L101.588 38.0909L101.593 38.0831L101.605 38.066C101.611 38.0577 101.617 38.0494 101.623 38.0411L101.624 38.0387L101.626 38.0361C101.638 38.0197 101.65 38.0032 101.662 37.987L101.664 37.9844L101.666 37.9821C101.672 37.974 101.678 37.9659 101.684 37.9578L101.697 37.9415L101.703 37.9335L101.705 37.9309L101.706 37.9289C101.713 37.9209 101.719 37.913 101.725 37.9051L101.737 37.8897L101.744 37.8807L101.746 37.878L101.748 37.8763C101.754 37.8686 101.76 37.8608 101.767 37.853L101.778 37.8385L101.787 37.8285L101.79 37.8247C101.796 37.8169 101.803 37.8093 101.809 37.8015L101.81 37.8002L101.812 37.7976L101.82 37.7881L101.83 37.7768L101.832 37.7746C101.839 37.766 101.846 37.7585 101.852 37.7509L101.856 37.7466L101.863 37.7383L101.874 37.7257L101.876 37.7233C101.883 37.7159 101.89 37.7084 101.896 37.701L101.901 37.6964L101.907 37.6892L101.92 37.6749L101.921 37.6739C101.928 37.6665 101.935 37.659 101.941 37.6517L101.946 37.6471C101.96 37.6323 101.973 37.6177 101.987 37.6031L101.992 37.5986C101.999 37.5914 102.006 37.5841 102.013 37.5769L102.027 37.5621L102.034 37.5554L102.037 37.5528L102.039 37.5509C102.046 37.5438 102.053 37.5368 102.06 37.5298L102.074 37.5158L102.082 37.5083L102.084 37.5057C102.093 37.4971 102.1 37.4902 102.108 37.4834L102.111 37.4804L102.121 37.4703L102.13 37.4619L102.133 37.4595L102.134 37.4581C102.141 37.4513 102.149 37.4445 102.156 37.4378L102.157 37.4365L102.16 37.4342L102.169 37.4255L102.18 37.4162L102.182 37.4139C102.191 37.4063 102.198 37.3996 102.205 37.393L102.207 37.3916L102.218 37.3816L102.23 37.3712L102.232 37.3693C102.24 37.3621 102.248 37.3555 102.255 37.349L102.257 37.3473L102.26 37.3449L102.268 37.3384L102.282 37.3267C102.291 37.3187 102.299 37.3122 102.306 37.3058L102.309 37.3039L102.311 37.3016L102.318 37.2961L102.334 37.2825C102.342 37.2761 102.35 37.2698 102.358 37.2635L102.361 37.2614L102.363 37.2593C102.371 37.253 102.379 37.2467 102.387 37.2405L102.403 37.2274L102.41 37.2219L102.413 37.2197L102.416 37.2179C102.423 37.2117 102.431 37.2057 102.439 37.1996L102.455 37.1873L102.464 37.1812L102.466 37.1788L102.469 37.1773C102.477 37.1714 102.485 37.1655 102.492 37.1595L102.508 37.1479L102.518 37.1412L102.521 37.1389L102.522 37.1377C102.53 37.1318 102.538 37.1261 102.546 37.1204L102.551 37.1173L102.562 37.1096L102.572 37.102L102.575 37.1C102.585 37.0933 102.593 37.0877 102.601 37.0821L102.603 37.0808L102.616 37.0721L102.628 37.0637L102.632 37.0612C102.64 37.0556 102.648 37.0501 102.657 37.0446L102.662 37.041L102.67 37.0354L102.685 37.026L102.687 37.0242C102.696 37.0188 102.704 37.0134 102.713 37.0081L102.718 37.0045L102.726 36.9996L102.743 36.989C102.752 36.983 102.761 36.9777 102.769 36.9725L102.772 36.9706L102.775 36.9688C102.784 36.9636 102.792 36.9583 102.801 36.9531L102.819 36.942L102.827 36.9377L102.83 36.9358L102.833 36.9343C102.841 36.9292 102.85 36.9241 102.859 36.9191L102.877 36.9087L102.885 36.9039L102.888 36.902C102.899 36.8956 102.908 36.8909 102.917 36.886L102.934 36.8763L102.944 36.8709L102.947 36.8691L102.949 36.8679C102.958 36.8632 102.967 36.8585 102.976 36.8537L102.977 36.853L102.98 36.8513L102.992 36.8448L103.004 36.8389L103.007 36.8372L103.009 36.8362C103.017 36.8317 103.026 36.8271 103.035 36.8225L103.04 36.8199L103.051 36.8143L103.064 36.8078L103.068 36.8056C103.077 36.8011 103.086 36.7966 103.095 36.7923L103.097 36.7911L103.101 36.7895L103.111 36.7848L103.125 36.7775L103.129 36.7759C103.138 36.7716 103.147 36.7672 103.156 36.763L103.158 36.7617L103.162 36.7601L103.17 36.7561L103.188 36.748L103.19 36.7473C103.199 36.7431 103.208 36.7388 103.217 36.7347L103.22 36.7334L103.223 36.7319C103.242 36.7236 103.26 36.7155 103.279 36.7074L103.282 36.706L103.285 36.7048C103.295 36.7007 103.304 36.6968 103.313 36.6929L103.333 36.6847L103.342 36.6811L103.345 36.6797C103.357 36.6748 103.367 36.671 103.376 36.6672L103.395 36.6598L103.405 36.6557L103.408 36.6544L103.411 36.6535C103.42 36.6499 103.43 36.6463 103.439 36.6427L103.443 36.641L103.457 36.6358L103.469 36.6315L103.472 36.6302C103.484 36.626 103.493 36.6225 103.503 36.6191L103.504 36.6185L103.52 36.6129L103.533 36.6082L103.538 36.6066C103.548 36.6032 103.557 36.5999 103.567 36.5966L103.569 36.5959L103.573 36.5947L103.583 36.591L103.599 36.5859L103.603 36.5848C103.612 36.5816 103.622 36.5784 103.632 36.5752L103.638 36.5733L103.647 36.5702L103.665 36.5646C103.677 36.5609 103.687 36.5579 103.697 36.5549L103.703 36.553C103.723 36.5471 103.743 36.5412 103.763 36.5356L103.766 36.5348C103.779 36.5311 103.789 36.5283 103.799 36.5255L103.82 36.5199L103.829 36.5175L103.832 36.5166L103.835 36.5159C103.845 36.5132 103.855 36.5107 103.865 36.508L103.885 36.5031L103.896 36.5004L103.899 36.4995L103.902 36.499C103.912 36.4965 103.922 36.4941 103.932 36.4917L103.933 36.4915L103.951 36.4872L103.963 36.4845L103.967 36.4836C103.979 36.481 103.989 36.4788 103.999 36.4765L104.004 36.4755L104.018 36.4725L104.031 36.4696L104.035 36.469C104.046 36.4666 104.057 36.4644 104.067 36.4624L104.069 36.462L104.072 36.4614L104.085 36.4589L104.1 36.4559L104.104 36.4552C104.114 36.4533 104.125 36.4514 104.135 36.4495L104.137 36.449L104.141 36.4484L104.152 36.4465L104.17 36.4433C104.183 36.4412 104.193 36.4394 104.204 36.4378L104.206 36.4373L104.21 36.4367L104.219 36.4351L104.241 36.4319C104.252 36.4303 104.262 36.4287 104.272 36.4272L104.276 36.4267C104.3 36.4233 104.321 36.4204 104.342 36.4177L104.345 36.4173C104.359 36.4156 104.369 36.4143 104.38 36.4131L104.401 36.4106L104.412 36.4096L104.416 36.4091C104.429 36.4078 104.439 36.4066 104.45 36.4056L104.454 36.4052L104.47 36.4036L104.482 36.4026L104.486 36.4021L104.488 36.4019C104.499 36.4011 104.509 36.4001 104.52 36.3993L104.521 36.3992L104.525 36.3989L104.54 36.3978L104.553 36.3967L104.559 36.3963C104.569 36.3956 104.58 36.3949 104.59 36.3942L104.596 36.3939L104.609 36.393L104.625 36.3922L104.628 36.3921C104.64 36.3914 104.651 36.3909 104.661 36.3904L104.664 36.3903L104.668 36.3901L104.679 36.3896L104.697 36.389L104.701 36.3888C104.711 36.3885 104.722 36.388 104.732 36.3878L104.736 36.3877L104.74 36.3876L104.749 36.3874L104.77 36.387C104.783 36.3867 104.793 36.3865 104.804 36.3864H104.807H104.811C104.822 36.3862 104.833 36.3862 104.844 36.3862Z" fill="#DEEDF2"/>
<path fill-rule="evenodd" clip-rule="evenodd" d="M100.122 105.528L97.8417 106.007L97.4816 107.495L97.5219 107.507L97.5116 107.508L100.149 109.097L101.403 109.238L101.562 107.782L101.224 107.529L100.122 105.528Z" fill="#DEEDF2"/>
<path fill-rule="evenodd" clip-rule="evenodd" d="M108.337 106.27L110.465 107.89L110.211 109.238L105.642 108.469L106.365 105.899L108.337 106.27Z" fill="#DEEDF2"/>
<path fill-rule="evenodd" clip-rule="evenodd" d="M151.454 133.951L113.553 142.701C112.473 142.95 111.396 142.278 111.147 141.198L106.033 119.047C105.784 117.968 106.457 116.891 107.537 116.642L145.437 107.892C146.517 107.643 147.594 108.315 147.843 109.395L152.957 131.546C153.206 132.625 152.533 133.702 151.454 133.951Z" fill="white"/>
<path fill-rule="evenodd" clip-rule="evenodd" d="M114.608 126.688L112.23 127.238C111.803 127.336 111.537 127.762 111.636 128.189L112.185 130.567C112.283 130.994 112.709 131.261 113.136 131.162L115.514 130.613C115.942 130.514 116.208 130.088 116.109 129.661L115.56 127.283C115.462 126.856 115.035 126.59 114.608 126.688Z" fill="#DEEDF2"/>
<path fill-rule="evenodd" clip-rule="evenodd" d="M140.328 126.495L148.427 127.297L148.612 129.546L140.514 128.744L140.328 126.495ZM131.276 128.584L139.374 129.387L139.56 131.636L131.461 130.833L131.276 128.584ZM122.223 130.674L130.321 131.477L130.507 133.726L122.408 132.923L122.223 130.674ZM113.119 132.776L121.218 133.579L121.403 135.828L113.305 135.025L113.119 132.776ZM117.924 136.658L121.108 136.467L121.374 138.56L118.19 138.75L117.924 136.658ZM113.947 137.576L117.132 137.385L117.397 139.478L114.213 139.668L113.947 137.576Z" fill="#DEEDF2"/>
<path fill-rule="evenodd" clip-rule="evenodd" d="M142.957 114.08C142.912 113.73 142.76 113.398 142.51 113.133L142.177 112.779L140.841 111.362C140.714 111.226 140.612 111.073 140.536 110.91L140.507 111.007C140.334 111.584 140.483 112.21 140.896 112.648L140.896 112.649L142.282 114.119C142.281 114.119 142.28 114.119 142.28 114.12C142.656 114.554 142.786 115.153 142.62 115.707L142.591 115.805C142.516 115.641 142.414 115.488 142.287 115.353L142.412 115.486L141.285 114.29L140.253 113.195L140.283 113.227C140.156 113.092 140.054 112.939 139.978 112.775L139.949 112.873C139.776 113.45 139.925 114.076 140.338 114.514L140.338 114.515L140.381 114.561L141.34 115.577L141.34 115.578L141.674 115.932C142.087 116.37 142.235 116.996 142.062 117.573L142.033 117.671C141.958 117.507 141.856 117.354 141.728 117.219L141.854 117.352L140.059 115.447L140.059 115.447C139.895 115.273 139.773 115.07 139.696 114.852C138.361 115.505 137.548 116.458 137.747 117.295C138.015 118.429 140.034 118.92 142.257 118.394C144.479 117.868 146.063 116.522 145.795 115.389C145.596 114.552 144.442 114.065 142.957 114.08Z" fill="#EC0000"/>
<path fill-rule="evenodd" clip-rule="evenodd" d="M119.508 60.6909C119.508 60.6909 118.628 60.7942 116.868 61.0007C116.811 62.1962 116.862 62.8632 117.023 63.0019C117.264 63.2098 118.412 63.6544 118.412 63.6544C119.468 62.0996 119.892 61.133 119.683 60.7546" fill="#FFC4B8"/>
</svg>
