<svg width="160" height="160" viewBox="0 0 160 160" fill="none" xmlns="http://www.w3.org/2000/svg">
<path d="M160 28.0957L134.359 85.0522C118.715 119.8 89.8057 141.205 58.5194 141.205H0L25.6418 84.2482C41.2851 49.5009 70.1948 28.0957 101.481 28.0957H160Z" fill="#DEEDF2"/>
<path fill-rule="evenodd" clip-rule="evenodd" d="M71.0066 37.2678L64.151 36.9353C61.8768 36.8251 59.7699 38.2077 58.8215 40.4317L54.4798 50.6155L51.2588 58.1698C50.446 60.0748 51.2493 62.3243 53.0405 63.1555C53.4871 63.3642 53.9559 63.4627 54.4167 63.4627C55.5846 63.4627 56.713 62.8282 57.3648 61.7086L63.8164 50.6273L65.6976 47.399L69.1048 49.3686L88.3571 60.4921L96.8272 57.9474L93.9707 47.399L88.3571 38.111L71.0066 37.2678ZM70.1227 57.0329L61.279 54.9858V63.9539C61.279 64.8865 61.4749 65.8066 61.8518 66.6462L64.9926 73.6389C65.7858 75.4051 67.771 76.0944 69.3624 75.2117L70.8048 77.9349C71.709 79.6417 73.8013 80.1083 75.2624 78.929C76.4049 78.0068 76.7939 76.3527 76.1964 74.9577L70.188 60.9316L69.954 61.138L70.1227 57.0329Z" fill="#F4A48D"/>
<path d="M59.9124 15.9813C60.3737 13.6786 62.6627 12.3884 64.6869 13.2887L83.8321 21.8102C85.8624 22.714 87.6436 24.1615 89.006 26.0149L97.9885 38.2353C99.3185 40.0446 100.406 42.0451 101.221 44.1784L114.487 78.9251L152.48 111.025L149.457 146.311L123.508 147.294L96.0904 96.2597C92.9961 94.7359 90.1931 92.6752 87.7802 90.1902C87.3556 89.7543 86.943 89.3056 86.5434 88.8428C85.5837 87.7333 84.6966 86.5521 83.8903 85.307C82.4454 83.0815 81.2539 80.6513 80.3572 78.0653L77.9205 71.0409H77.918L72.6633 64.9575L59.9348 55.2496C57.9113 53.7064 57.2832 50.7886 58.4519 48.4525L58.514 48.3322C59.7985 45.9161 62.6084 44.9885 64.933 46.2134L77.4513 52.8092L82.8314 52.9809L86.1986 45.6742L77.7421 29.9909L69.2273 24.0661L61.8026 20.1654C60.3524 19.4038 59.5725 17.6773 59.9124 15.9813Z" fill="#FFC4B8"/>
<path d="M61.173 46.4029H13.951C12.6059 46.4029 11.5156 45.3127 11.5156 43.968V16.369C11.5156 15.0243 12.6059 13.9346 13.951 13.9346H61.173C62.5181 13.9346 63.6084 15.0243 63.6084 16.369V43.968C63.6084 45.3127 62.5181 46.4029 61.173 46.4029Z" fill="#EC0000"/>
<path d="M19.571 27.75H16.6079C16.0758 27.75 15.6445 28.1813 15.6445 28.7133V31.6765C15.6445 32.2085 16.0758 32.6398 16.6079 32.6398H19.571C20.103 32.6398 20.5343 32.2085 20.5343 31.6765V28.7133C20.5343 28.1813 20.103 27.75 19.571 27.75Z" fill="#CEDEE7"/>
<path fill-rule="evenodd" clip-rule="evenodd" d="M25.6197 36.7319H15.6445V38.2315H25.6197V36.7319ZM26.9893 36.7319H36.9645V38.2315H26.9893V36.7319ZM48.2434 36.7319H38.2682V38.2315H48.2434V36.7319ZM59.5223 36.7319H49.5471V38.2315H59.5223V36.7319ZM20.6319 41.0675H24.4785V43.0234H20.6319V41.0675ZM19.5241 41.0675H15.6775V43.0234H19.5241V41.0675Z" fill="#CC0000"/>
<path d="M56.5487 20.5766C56.5919 20.1516 56.5022 19.7162 56.2794 19.3352L55.9813 18.8249L54.7883 16.7837C54.6747 16.589 54.5957 16.3803 54.5513 16.166L54.4901 16.2734C54.1284 16.909 54.1327 17.6895 54.5016 18.3208L54.5017 18.3214L55.7396 20.4393C55.7387 20.4391 55.7378 20.439 55.7369 20.439C56.0634 21.0563 56.0538 21.8001 55.7064 22.4104L55.6452 22.5178C55.6008 22.3035 55.5219 22.0948 55.4082 21.9002L55.52 22.0915L54.5135 20.3692L53.5918 18.7923L53.6188 18.8383C53.5051 18.6437 53.4261 18.4349 53.3817 18.2206L53.3205 18.328C52.9588 18.9636 52.9632 19.7441 53.332 20.3756L53.3323 20.376L53.3711 20.4424L54.2269 21.9069L54.227 21.907L54.5252 22.4171C54.8943 23.0488 54.8987 23.8294 54.5368 24.4651L54.4758 24.5726C54.4314 24.3582 54.3523 24.1494 54.2386 23.9548L54.3505 24.1461L52.7475 21.4033L52.7473 21.4029C52.601 21.1524 52.5123 20.8787 52.4808 20.5997C50.7239 21.0077 49.5019 21.9132 49.5078 22.9577C49.5159 24.3715 51.7701 25.5048 54.5427 25.4891C57.3153 25.4732 59.5563 24.3143 59.5482 22.9005C59.5423 21.8559 58.3101 20.9646 56.5487 20.5766Z" fill="white"/>
</svg>
