<svg width="160" height="160" viewBox="0 0 160 160" fill="none" xmlns="http://www.w3.org/2000/svg">
<path fill-rule="evenodd" clip-rule="evenodd" d="M58.7934 133.608C59.435 133.61 60.0747 133.603 60.7127 133.585C73.5538 133.233 85.8971 137.221 96.0647 144.605C102.236 149.087 109.87 151.726 118.244 151.754C140.179 151.827 158.786 134.097 159.944 112.021C160.455 102.282 157.457 93.345 152.064 86.3938C147.448 80.4426 145.109 72.9436 145.678 65.2156C145.686 65.1159 145.692 65.0163 145.699 64.9171C146.494 51.9015 136.74 41.3806 123.809 41.3131C123.735 41.3124 123.661 41.3126 123.587 41.3131C120.099 41.3279 116.922 39.5751 115.121 36.6595C104.849 20.036 86.5612 9.06799 65.1815 9.00031C31.0206 8.89242 1.84614 36.7276 0.0837855 71.11C-1.67961 105.52 24.6053 133.501 58.7934 133.608Z" fill="#EAF7FE"/>
<mask id="mask0_1557_5079" style="mask-type:luminance" maskUnits="userSpaceOnUse" x="0" y="9" width="160" height="143">
<path fill-rule="evenodd" clip-rule="evenodd" d="M58.7934 133.608C59.435 133.61 60.0747 133.603 60.7127 133.585C73.5538 133.233 85.8971 137.221 96.0647 144.605C102.236 149.087 109.87 151.726 118.244 151.753C140.179 151.827 158.786 134.097 159.944 112.021C160.455 102.282 157.457 93.345 152.064 86.3938C147.448 80.4426 145.109 72.9436 145.678 65.2156C145.686 65.1159 145.692 65.0163 145.699 64.9171C152.064 21.4669 120.624 9.17578 65.1815 9.00031C31.0206 8.89242 1.84614 36.7276 0.0837855 71.11C-1.67961 105.52 24.6053 133.5 58.7934 133.608Z" fill="white"/>
</mask>
<g mask="url(#mask0_1557_5079)">
<path d="M99.6005 197.165L44.2163 188.699C38.0655 187.756 33.8423 182.013 34.7836 175.868L57.3649 28.4902C58.3063 22.3458 64.0555 18.1267 70.2078 19.0672L125.59 27.5354C131.743 28.4767 135.966 34.22 135.023 40.3643L112.443 187.743C111.501 193.888 105.752 198.106 99.6005 197.165Z" fill="#9E3667"/>
<path d="M130.667 46.1062L109.793 182.343C109.144 186.578 103.874 189.285 99.6378 188.637L38.6306 179.309C34.3914 178.66 31.4847 174.704 32.1335 170.468L53.0078 34.2323C53.6566 29.9964 57.6155 27.0862 61.8557 27.7344L122.861 37.0628C127.098 37.7105 131.315 41.8707 130.667 46.1062Z" fill="white"/>
<path fill-rule="evenodd" clip-rule="evenodd" d="M108.745 31.9145C109.769 32.0714 110.727 31.3682 110.884 30.3448C111.041 29.3204 110.338 28.364 109.314 28.2072C108.289 28.0511 107.331 28.7535 107.173 29.7778C107.017 30.8013 107.72 31.7586 108.745 31.9145ZM81.4753 26.8374C82.0087 26.9191 82.5077 26.5529 82.5898 26.0191C82.6719 25.4852 82.3053 24.9866 81.7711 24.9048C81.2368 24.8232 80.7377 25.1895 80.6566 25.7233C80.5736 26.2571 80.941 26.7558 81.4753 26.8374ZM78.8388 25.4447C78.7572 25.9778 78.2581 26.345 77.7248 26.2633C77.1901 26.1806 76.824 25.6829 76.906 25.1491C76.9876 24.6151 77.4867 24.249 78.0201 24.3307C78.5543 24.4123 78.9209 24.9111 78.8388 25.4447ZM89.1784 27.553L98.1462 28.9238C98.4312 28.9679 98.6972 28.7726 98.7405 28.4878C98.7837 28.2032 98.5881 27.9375 98.3036 27.8942L89.3357 26.5232C89.0522 26.4801 88.7857 26.6746 88.7415 26.9593C88.6982 27.2439 88.893 27.5098 89.1784 27.553Z" fill="#DEEDF2"/>
<path fill-rule="evenodd" clip-rule="evenodd" d="M99.5924 197.135L44.2082 188.668C38.0577 187.726 33.8344 181.982 34.7758 175.837L57.3573 28.4595C58.2986 22.3151 64.0479 18.0959 70.2002 19.0364L125.583 27.5047C131.735 28.446 135.957 34.1893 135.016 40.3336L112.435 187.712C111.493 193.857 105.744 198.075 99.5924 197.135Z" fill="#9E3667"/>
<path fill-rule="evenodd" clip-rule="evenodd" d="M96.1822 196.647L40.7981 188.178C34.6474 187.238 30.4243 181.492 31.3656 175.347L53.9511 27.9388C54.8934 21.7932 60.6426 17.573 66.794 18.5134L122.178 26.9824C128.329 27.9221 132.552 33.6672 131.61 39.8129L109.025 187.221C108.083 193.367 102.333 197.587 96.1822 196.647Z" fill="white"/>
<path fill-rule="evenodd" clip-rule="evenodd" d="M88.6067 148.961L108.894 152.061L105.785 172.332L85.4985 169.233L88.6067 148.961ZM65.3175 145.401L85.6039 148.501L82.4957 168.771L62.2102 165.673L65.3175 145.401ZM42.03 141.839L62.3165 144.939L59.2092 165.21L38.9219 162.111L42.03 141.839Z" fill="#CEDEE7"/>
<path fill-rule="evenodd" clip-rule="evenodd" d="M108.732 31.8833C109.756 32.0402 110.714 31.337 110.871 30.3135C111.028 29.2892 110.325 28.3328 109.301 28.1759C108.276 28.0199 107.318 28.7222 107.161 29.7466C107.004 30.7701 107.707 31.7273 108.732 31.8833ZM81.4636 26.8062C81.9969 26.8878 82.496 26.5217 82.5781 25.9879C82.6601 25.4539 82.2936 24.9554 81.7593 24.8736C81.2251 24.792 80.726 25.1583 80.6448 25.6921C80.5619 26.2259 80.9293 26.7245 81.4636 26.8062ZM78.8275 25.4135C78.7455 25.9466 78.2464 26.3137 77.713 26.232C77.1788 26.1494 76.8122 25.6517 76.8943 25.1178C76.9763 24.5839 77.4754 24.2178 78.0088 24.2995C78.5431 24.3811 78.9096 24.8799 78.8275 25.4135ZM89.1667 27.5218L98.1345 28.8925C98.4195 28.9366 98.6855 28.7413 98.7287 28.4566C98.772 28.1719 98.5764 27.9062 98.2919 27.8629L89.324 26.492C89.0404 26.4488 88.774 26.6433 88.7298 26.9281C88.6865 27.2126 88.8813 27.4785 89.1667 27.5218Z" fill="#DEEDF2"/>
<path d="M130.656 46.0736L127.335 67.7545L49.6758 55.8805L52.9976 34.1997C53.6469 29.9638 57.6053 27.0532 61.8456 27.7017L122.851 37.0302C127.088 37.6779 131.305 41.8379 130.656 46.0736Z" fill="#EC0000"/>
<path fill-rule="evenodd" clip-rule="evenodd" d="M120.805 110.095L43.1336 98.1841L36.2852 142.968L113.956 154.878L120.805 110.095Z" fill="#9BC3D3"/>
<path fill-rule="evenodd" clip-rule="evenodd" d="M120.85 110.159L43.1797 98.2401L49.6548 55.918L127.324 67.8371L120.85 110.159Z" fill="#DEEDF2"/>
</g>
<path fill-rule="evenodd" clip-rule="evenodd" d="M83.1296 119.061C83.0697 120.21 82.0895 121.092 80.9408 121.032L24.2667 118.062C23.118 118.001 22.2357 117.021 22.2959 115.873L26.1399 42.5255C26.2001 41.3769 27.1799 40.4945 28.3286 40.5547L85.0029 43.5248C86.1512 43.585 87.034 44.5651 86.9736 45.7139L83.1296 119.061Z" fill="#CEDEE7"/>
<path fill-rule="evenodd" clip-rule="evenodd" d="M83.2662 116.447C83.208 117.557 82.2297 118.408 81.0809 118.348L24.4069 115.377C23.2581 115.317 22.3742 114.369 22.4324 113.259L26.1457 42.4056C26.2038 41.2959 27.182 40.4453 28.3308 40.5054L85.0051 43.4756C86.1534 43.5358 87.0375 44.4841 86.9794 45.5936L83.2662 116.447Z" fill="#34466B"/>
<path fill-rule="evenodd" clip-rule="evenodd" d="M26.043 111.016L79.812 113.834L83.2655 47.936L29.4965 45.1182L26.043 111.016Z" fill="white"/>
<path fill-rule="evenodd" clip-rule="evenodd" d="M52.3188 39.3758C53.0888 37.5945 54.9062 36.3918 56.958 36.4993C59.0098 36.6069 60.6911 37.9929 61.2709 39.845L70.8388 40.3464C72.5394 40.4355 73.846 41.8865 73.7567 43.5872L73.4727 49.0076L39.2266 47.2128L39.5106 41.7925C39.5997 40.0917 41.0508 38.7852 42.7513 38.8744L52.3188 39.3758Z" fill="#CEDEE7"/>
<path fill-rule="evenodd" clip-rule="evenodd" d="M39.2266 47.2139L73.4728 49.0087L73.6708 45.236L39.4243 43.4414L39.2266 47.2139Z" fill="#9BC3D3"/>
<path fill-rule="evenodd" clip-rule="evenodd" d="M58.247 39.8883C58.2046 40.6958 57.5157 41.3163 56.7078 41.274C55.9004 41.2317 55.28 40.5426 55.3224 39.735C55.3647 38.9274 56.0536 38.3069 56.8611 38.3492C57.669 38.3915 58.289 39.0807 58.247 39.8883Z" fill="#EC0000"/>
<path fill-rule="evenodd" clip-rule="evenodd" d="M35.6819 89.7032C35.4734 93.6815 38.5296 97.076 42.508 97.2843L64.1191 98.4173C68.0978 98.6256 71.4918 95.5693 71.7005 91.591L72.8331 69.9799C73.0414 66.0012 69.9855 62.6072 66.0068 62.3984L44.3957 61.2659C40.4173 61.0576 37.023 64.1135 36.8145 68.0922L35.6819 89.7032Z" fill="#DEEDF2"/>
<path fill-rule="evenodd" clip-rule="evenodd" d="M76.3353 68.2755L49.1942 92.767L34.7812 76.7325L40.3122 71.7606L49.7442 82.2536L71.353 62.7544L76.3353 68.2755Z" fill="#008437"/>
<path d="M39.3242 123.375L40.0203 118.887L80.9107 121.019L39.3242 123.375Z" fill="#34466B"/>
<path fill-rule="evenodd" clip-rule="evenodd" d="M114.526 87.1298C113.599 93.186 107.931 97.3447 101.868 96.4173C95.8063 95.4899 91.6436 89.8295 92.5705 83.7732C93.5002 77.7169 99.1665 73.5587 105.23 74.4857C111.293 75.4122 115.454 81.074 114.526 87.1298Z" fill="#CEDEE7"/>
<path fill-rule="evenodd" clip-rule="evenodd" d="M108.702 128.152C107.774 134.208 102.107 138.367 96.0442 137.439C89.9821 136.512 85.8194 130.851 86.7463 124.795C87.676 118.739 93.3423 114.581 99.4057 115.508C105.468 116.434 109.63 122.096 108.702 128.152Z" fill="#DEEDF2"/>
</svg>
