<svg width="160" height="160" viewBox="0 0 160 160" fill="none" xmlns="http://www.w3.org/2000/svg">
<path fill-rule="evenodd" clip-rule="evenodd" d="M151.82 70.51C149.613 62.5937 156.628 62.2883 156.782 52.088C156.845 47.9163 154.56 43.6674 149.061 41.7183C146.358 40.7609 143.665 40.1025 141.26 38.5795C135.78 35.1089 135.88 28.505 134.384 22.8754C131.102 10.511 118.467 0.688035 105.678 1.00758C96.458 1.23751 88.1227 1.52011 79.7174 9.34563C73.966 14.7005 70.2281 21.2891 64.8886 26.8094C59.2339 32.6551 52.3434 35.4599 44.6063 37.3383C37.289 39.1144 29.3291 41.2278 23.7286 46.5544C18.4654 51.5598 19.2326 56.7951 21.489 62.9412C23.9778 69.7184 18.5817 74.3292 12.9553 76.9685C8.2179 79.1904 0.287832 83.71 0.0284229 92.0438C-0.773781 117.857 15.6221 117.96 21.7351 120.413C77.9695 142.983 99.5504 125.575 123.395 125.927C147.165 126.278 160.79 97.5318 159.965 89.0664C158.917 78.3179 153.361 76.0378 151.82 70.51Z" fill="#EAF7FE"/>
<path fill-rule="evenodd" clip-rule="evenodd" d="M129.547 10.3011C128.902 5.05873 124.434 1 119.018 1C113.16 1 108.41 5.75083 108.41 11.6115C108.41 12.573 108.538 13.5046 108.777 14.3903C108.687 14.3915 108.598 14.3947 108.509 14.3999L108.409 14.3916V14.4065C105.371 14.6349 102.976 17.1737 102.976 20.2719C102.976 23.3701 105.371 25.9089 108.409 26.1373V26.1548H147.033V26.1543H147.033C149.401 26.1543 151.32 24.234 151.32 21.8655C151.32 19.4971 149.401 17.5771 147.033 17.5771H147.033V17.5769L137.248 16.7699C137.292 16.4776 137.316 16.1781 137.316 15.8733C137.316 12.6248 134.683 9.9912 131.436 9.9912C130.775 9.9912 130.14 10.1002 129.547 10.3011Z" fill="#9BC3D3"/>
<path fill-rule="evenodd" clip-rule="evenodd" d="M107.237 40.4102C107.678 36.806 110.729 34.0156 114.427 34.0156C118.428 34.0156 121.672 37.2818 121.672 41.311C121.672 41.9721 121.585 42.6126 121.421 43.2215C121.482 43.2223 121.543 43.2245 121.604 43.228L121.672 43.2224V43.2326C123.747 43.3896 125.383 45.1351 125.383 47.2651C125.383 49.3951 123.747 51.1405 121.672 51.2975V51.3096H95.2949V51.3092H95.2948C93.678 51.3092 92.3672 49.989 92.3672 48.3607C92.3672 46.7324 93.678 45.4124 95.2948 45.4124H95.2949V45.4123L101.978 44.8574C101.947 44.6565 101.931 44.4506 101.931 44.241C101.931 42.0077 103.729 40.1971 105.947 40.1971C106.398 40.1971 106.832 40.272 107.237 40.4102Z" fill="#CEDEE7"/>
<path fill-rule="evenodd" clip-rule="evenodd" d="M34.5814 11.1204C35.0589 7.18858 38.3645 4.14453 42.3709 4.14453C46.7054 4.14453 50.2193 7.70765 50.2193 12.1032C50.2193 12.8243 50.1248 13.523 49.9474 14.1873C50.0141 14.1881 50.0801 14.1905 50.1458 14.1944L50.2197 14.1883V14.1994C52.4677 14.3707 54.2397 16.2748 54.2397 18.5985C54.2397 20.9221 52.4677 22.8262 50.2197 22.9975V23.0107H21.6444V23.0102H21.6443C19.8927 23.0102 18.4727 21.57 18.4727 19.7937C18.4727 18.0174 19.8927 16.5774 21.6443 16.5774H21.6444V16.5772L28.8841 15.972C28.851 15.7527 28.8338 15.5281 28.8338 15.2995C28.8338 12.8631 30.7815 10.8879 33.1842 10.8879C33.6729 10.8879 34.1428 10.9697 34.5814 11.1204Z" fill="#CEDEE7"/>
<path d="M108.895 103.728C89.9874 102.716 70.0819 107.29 59.9904 110.762C53.9445 112.841 52.2838 116.66 45.9595 117.693C33.2579 119.769 3.43345 120.383 2.84372 123.441C1.68273 129.462 11.7448 132.679 34.9521 135.463C34.451 135.875 37.7787 143.409 56.4887 145.11C63.8921 145.783 76.31 145.112 81.0724 143.641C88.3925 141.38 95.9959 140.165 103.655 139.991C130.898 139.374 152.26 136.281 152.511 131.604C152.595 130.041 151.022 127.874 148.558 126.614C147.023 125.829 149.277 125.167 149.8 124.978C156.229 122.665 159.835 120.081 159.966 118.03C160.378 111.594 136.65 105.214 108.895 103.728Z" fill="#CEDEE7"/>
<path fill-rule="evenodd" clip-rule="evenodd" d="M57.1833 52.629L52.4355 44.5781C51.2481 42.1221 50.1868 39.6066 49.2834 37.0326C48.8415 35.7727 48.4369 34.5017 48.2168 33.5209C47.9151 32.1726 47.691 30.8233 47.6897 29.7719L47.6892 28.8616C47.6875 28.6498 47.7039 28.4424 47.7354 28.2383C47.9963 26.5524 49.3127 25.1899 51.0427 24.9019C52.7105 24.6261 54.3731 25.4293 55.1957 26.9055L56.4158 29.1695L67.0522 48.8911C78.2474 63.8417 89.6477 76.2084 102.082 87.3672L104.777 124.539L71.8898 142.975L63.4618 128.875C60.8777 124.553 58.7085 119.995 56.9829 115.263L52.4309 102.78L46.0516 90.313L48.1972 71.849C47.268 71.5925 46.4255 70.9817 45.9007 70.0348C45.3505 69.0417 45.2742 67.8544 45.6935 66.7997L47.5907 62.0202C48.1205 60.686 48.8563 59.4527 49.7645 58.362L49.7795 58.2332C51.9942 56.112 54.6749 54.4812 57.1833 52.629Z" fill="#FFC4B8"/>
<path fill-rule="evenodd" clip-rule="evenodd" d="M48.1914 93.4345L48.1337 93.467C46.5444 94.3836 44.514 93.9075 43.4971 92.3773L38.2375 84.4577C37.2059 82.9052 37.402 80.843 38.7047 79.5105L39.3818 78.8196C39.5446 78.6533 39.7177 78.5068 39.8992 78.38C41.6713 77.1359 44.2278 77.7321 45.2124 79.7816L48.7882 87.2397L49.5917 88.9125C50.3792 90.5545 49.7688 92.5254 48.1914 93.4345Z" fill="#FFC4B8"/>
<path fill-rule="evenodd" clip-rule="evenodd" d="M80.6523 117.021C80.0002 118.149 79.4364 119.411 79.0273 120.805C78.958 121.041 78.7602 121.156 78.5631 121.156C78.347 121.156 78.1327 121.018 78.0893 120.753L77.2724 115.771C77.2724 115.771 75.8277 115.94 73.7442 115.94C68.3515 115.94 58.6745 114.808 58.6585 106.681C58.6568 105.841 53.7291 106.334 52.4327 102.775L48.0887 94.286L47.7637 93.6507L48.1377 93.4635L48.1954 93.4311C49.7727 92.5219 50.3832 90.551 49.5957 88.9089L48.7921 87.2362L46.8758 83.2394L47.1259 81.0861L48.1997 71.8457L48.3323 71.8774L48.4735 71.9143L48.6143 71.9337L48.7105 71.9499L48.791 71.958L48.9213 71.9759L49.0543 71.9786L49.2221 71.9841L49.2536 71.9824L49.3734 71.9848L49.5701 71.9653L49.6366 71.9617L49.6821 71.9543L49.8242 71.9402L49.9868 71.9042L50.0474 71.8943L50.1064 71.8777L50.2685 71.8419L50.3991 71.7958L50.4504 71.7814L50.5216 71.7526L50.7009 71.6893L50.8017 71.6391L50.8416 71.6229L50.9221 71.579L51.1161 71.4822L51.1896 71.4331L51.2167 71.4183L51.302 71.3581L51.5088 71.2201L51.5579 71.1774L51.5719 71.1674L51.6521 71.0953L51.8736 70.9024L51.9016 70.871L51.9028 70.8699L51.9267 70.8426L52.2053 70.529L57.4378 63.822L61.8339 62.4549L61.8312 62.4492L61.8341 62.4513L58.3715 54.9373C59.6563 51.3045 62.5255 49.2561 67.0313 48.8442L67.0548 48.8878C75.3902 60.0195 83.8394 69.7187 92.7444 78.5509L96.5762 86.3412C88.4489 93.9851 82.6662 104.751 80.6523 117.021ZM48.4124 87.2607H48.3446C47.0516 87.2501 45.7858 86.6391 44.9831 85.513L39.9023 78.3802H39.9028C40.3061 78.0971 40.7498 77.9094 41.2068 77.8122C41.4495 77.7608 41.6958 77.7347 41.9416 77.7338H41.9713C43.2855 77.7391 44.5793 78.457 45.216 79.7818L48.7918 87.2403C48.6654 87.2528 48.5389 87.2594 48.4124 87.2607Z" fill="#F4A48D"/>
<path d="M78.5452 115.372L47.3158 110.593C43.8476 110.061 41.4662 106.819 41.997 103.351L54.73 20.1633C55.2609 16.6951 58.5026 14.3136 61.9718 14.8444L93.2002 19.6243C96.6694 20.1557 99.0505 23.3975 98.5192 26.8656L85.7865 110.053C85.2557 113.522 82.014 115.903 78.5452 115.372Z" fill="#9E3667"/>
<path d="M76.6273 115.079L45.3979 110.298C41.9297 109.768 39.5483 106.525 40.079 103.057L52.8116 19.8698C53.3429 16.4016 56.5847 14.0201 60.0533 14.5509L91.2823 19.3312C94.751 19.8617 97.1325 23.1039 96.6012 26.5722L83.8685 109.759C83.3377 113.228 80.0954 115.609 76.6273 115.079Z" fill="white"/>
<path d="M96.0599 30.1063L84.2896 107.005C83.9236 109.395 80.9526 110.923 78.5636 110.558L44.1635 105.292C41.7731 104.926 40.1341 102.693 40.5 100.302L52.2703 23.404C52.6363 21.0131 54.8685 19.3704 57.2594 19.7363L91.6586 25.0017C94.0476 25.3673 96.4257 27.7155 96.0599 30.1063Z" fill="white"/>
<path fill-rule="evenodd" clip-rule="evenodd" d="M83.7246 22.1704C84.3153 22.2183 84.8556 21.7555 84.9307 21.1372C85.0064 20.5183 84.5884 19.9785 83.9978 19.9306C83.407 19.8831 82.8668 20.3455 82.7911 20.9644C82.716 21.5827 83.1335 22.1231 83.7246 22.1704ZM68.3362 19.269C68.6439 19.294 68.9252 19.053 68.9647 18.7304C69.004 18.4078 68.7863 18.1265 68.4783 18.1015C68.1701 18.0766 67.8886 18.3177 67.8498 18.6402C67.8099 18.9627 68.0281 19.2441 68.3362 19.269ZM66.8504 18.4067C66.8111 18.7288 66.5297 18.9704 66.2221 18.9454C65.9139 18.9199 65.6962 18.6391 65.7357 18.3165C65.775 17.9939 66.0565 17.753 66.364 17.7779C66.6721 17.8028 66.8898 18.0843 66.8504 18.4067ZM72.6704 20.43L77.7503 20.037C77.9116 20.0251 78.0564 19.7899 78.0737 19.5122C78.091 19.2344 77.9743 19.0197 77.813 19.0324L72.7331 19.4252C72.5724 19.4379 72.4275 19.6722 72.4097 19.9502C72.3924 20.2278 72.5086 20.4429 72.6704 20.43Z" fill="#DEEDF2"/>
<path fill-rule="evenodd" clip-rule="evenodd" d="M78.5374 115.353L47.308 110.574C43.8398 110.042 41.4584 106.8 41.9892 103.332L54.7222 20.1443C55.2531 16.676 58.4948 14.2945 61.964 14.8254L93.1924 19.6053C96.6616 20.1366 99.0426 23.3784 98.5114 26.8466L85.7787 110.034C85.2479 113.503 82.0062 115.884 78.5374 115.353Z" fill="#9E3667"/>
<path fill-rule="evenodd" clip-rule="evenodd" d="M76.6195 115.06L45.3901 110.279C41.9219 109.749 39.5405 106.506 40.0712 103.038L52.8038 19.8507C53.3351 16.3826 56.5768 14.0011 60.0455 14.5319L91.2745 19.3122C94.7431 19.8426 97.1247 23.0848 96.5934 26.5531L83.8607 109.74C83.3299 113.209 80.0876 115.59 76.6195 115.06Z" fill="white"/>
<path d="M96.0521 30.0872L84.2818 106.986C83.9158 109.376 80.9447 110.904 78.5558 110.539L44.1557 105.273C41.7653 104.907 40.1263 102.674 40.4922 100.283L52.2625 23.385C52.6285 20.994 54.8607 19.3514 57.2516 19.7172L91.6507 24.9827C94.0398 25.3482 96.4179 27.6965 96.0521 30.0872Z" fill="white"/>
<path fill-rule="evenodd" clip-rule="evenodd" d="M84.6764 104.44L84.2864 106.985C84.2661 107.113 84.2397 107.238 84.2052 107.36C83.6048 109.533 80.8211 110.885 78.5608 110.539L44.1609 105.272C42.0537 104.95 40.5285 103.177 40.4502 101.122C40.4396 100.846 40.4534 100.565 40.4972 100.282L40.8867 97.7368L84.6764 104.44Z" fill="#CEDEE7"/>
<path d="M84.6762 104.44L84.2862 106.985C84.2659 107.113 84.2396 107.238 84.2051 107.36L84.182 107.357L84.2849 106.686L40.5423 99.9911L40.8867 97.7368L84.6762 104.44Z" fill="#EC0000"/>
<path fill-rule="evenodd" clip-rule="evenodd" d="M72.0887 88.1617L83.7876 89.1062L82.2945 101.353L70.5956 100.409L72.0887 88.1617ZM58.9565 86.1517L70.655 87.0963L69.1621 99.3433L57.4639 98.3993L58.9565 86.1517ZM45.8253 84.1416L57.5238 85.0862L56.0313 97.3332L44.3323 96.3891L45.8253 84.1416Z" fill="#CEDEE7"/>
<path fill-rule="evenodd" clip-rule="evenodd" d="M83.7168 22.1509C84.3075 22.1988 84.8478 21.736 84.9229 21.1176C84.9986 20.4987 84.5806 19.9589 83.99 19.911C83.3992 19.8636 82.859 20.326 82.7833 20.9449C82.7082 21.5632 83.1257 22.1036 83.7168 22.1509ZM68.3284 19.2495C68.636 19.2744 68.9174 19.0334 68.9569 18.7109C68.9962 18.3883 68.7784 18.1069 68.4705 18.0819C68.1623 18.0571 67.8808 18.2982 67.842 18.6207C67.8021 18.9432 68.0203 19.2246 68.3284 19.2495ZM66.8426 18.3872C66.8032 18.7092 66.5219 18.9508 66.2142 18.9259C65.9061 18.9004 65.6884 18.6195 65.7278 18.297C65.7672 17.9744 66.0487 17.7334 66.3562 17.7584C66.6643 17.7832 66.882 18.0647 66.8426 18.3872ZM72.6626 20.4105L77.7425 20.0175C77.9038 20.0056 78.0486 19.7704 78.0659 19.4926C78.0832 19.2149 77.9665 19.0002 77.8052 19.0129L72.7253 19.4057C72.5645 19.4183 72.4197 19.6527 72.4019 19.9307C72.3846 20.2083 72.5008 20.4234 72.6626 20.4105Z" fill="#DEEDF2"/>
<path d="M96.0572 30.0873L94.1841 42.325L50.3945 35.6227L52.2676 23.385C52.6336 20.9941 54.8658 19.3512 57.2566 19.7173L91.6558 24.9827C94.0449 25.3483 96.423 27.6964 96.0572 30.0873Z" fill="#EC0000"/>
<path fill-rule="evenodd" clip-rule="evenodd" d="M91.483 59.9534L47.6943 53.251L50.3876 35.6564L94.1758 42.3587L91.483 59.9534Z" fill="#DEEDF2"/>
<path fill-rule="evenodd" clip-rule="evenodd" d="M89.1811 50.5638C88.749 53.3884 86.1084 55.328 83.2838 54.8954C80.4593 54.4629 78.5198 51.8228 78.9518 48.9983C79.3848 46.1736 82.0249 44.2342 84.85 44.6666C87.6745 45.0987 89.6135 47.7393 89.1811 50.5638Z" fill="#CEDEE7"/>
<path fill-rule="evenodd" clip-rule="evenodd" d="M76.6596 48.1457L53.1993 44.5552L53.0659 45.4267L76.5261 49.0177L76.6596 48.1457Z" fill="white"/>
<path fill-rule="evenodd" clip-rule="evenodd" d="M91.4963 59.8676L88.8032 77.4624L45.0154 70.7596L46.2362 62.781L46.6317 60.1921L47.7086 53.1653L54.8493 54.2588L55.7255 54.3936L57.5346 54.6691L57.6176 54.6816L91.4963 59.8676Z" fill="#9BC3D3"/>
<path fill-rule="evenodd" clip-rule="evenodd" d="M86.4349 68.5154C86.0028 71.34 83.3623 73.2795 80.5377 72.847C77.7132 72.4144 75.7736 69.7743 76.2056 66.9498C76.6382 64.1252 79.2787 62.1857 82.1033 62.6177C84.9284 63.0502 86.8674 65.6908 86.4349 68.5154Z" fill="#DEEDF2"/>
<path fill-rule="evenodd" clip-rule="evenodd" d="M69.4713 65.0873L53.3789 62.6245L53.2455 63.4965L69.338 65.9594L69.4713 65.0873Z" fill="#DEEDF2"/>
<path fill-rule="evenodd" clip-rule="evenodd" d="M56.2254 58.9123C53.5146 60.8798 49.6731 61.8408 46.417 61.8294L46.7894 59.4767L47.8017 53.0915L54.2901 54.1207L57.6334 54.9604L59.795 55.3019L59.8634 55.2071L59.8939 55.318L61.2606 60.215L56.2258 58.9124L56.2254 58.9123Z" fill="#34466B"/>
<path fill-rule="evenodd" clip-rule="evenodd" d="M57.4094 57.9862C51.4595 60.1646 44.6326 57.7995 41.3882 52.1119C37.7703 45.7672 39.9801 37.6903 46.3248 34.0723C52.6695 30.4539 60.746 32.6637 64.3643 39.0081C67.6079 44.6965 66.1678 51.7762 61.2633 55.7881L61.2428 60.2301L57.4094 57.9862Z" fill="white"/>
<path fill-rule="evenodd" clip-rule="evenodd" d="M41.9753 67.0018L41.068 67.7167C39.318 69.0961 38.7714 71.5111 39.7555 73.5095L44.7733 83.6999C45.7428 85.6695 48.0757 86.5463 50.1026 85.7037L50.1744 85.6739C52.1835 84.8385 53.2098 82.5956 52.5277 80.5292L48.7368 69.0367C47.7997 66.1961 44.3247 65.1503 41.9753 67.0018Z" fill="#FFC4B8"/>
<path fill-rule="evenodd" clip-rule="evenodd" d="M80.5393 135.55L79.9512 134.336C79.3011 132.995 78.8415 131.579 78.5832 130.125C78.3201 128.674 78.2584 127.187 78.4017 125.702C79.0415 119.051 80.6242 112.556 83.0761 106.402C85.1717 101.146 87.9 96.1402 91.2237 91.5004L91.899 90.5562C93.4492 88.3893 94.0908 85.7027 93.6871 83.0685L93.2953 80.5346C92.8064 77.3475 92.7394 74.1112 93.1009 70.9072C93.1009 70.9072 93.7688 60.9396 97.6449 54.2628C98.1831 53.3363 99.0323 52.6651 99.9685 52.2404C100.906 51.8154 101.962 51.6579 103.022 51.8221C103.439 51.8864 103.814 52.0497 104.131 52.2875C104.801 52.7854 105.203 53.6089 105.127 54.4958L104.397 63.2047L104.378 63.4301L108.498 90.4041C108.981 93.5703 108.952 96.7911 108.413 99.9472L106.392 116.638L104.691 130.674L104.692 130.675L114.392 147.478L121.09 159.082H81.1867L71.9805 143.136L71.8275 142.871L71.4766 142.262L80.2781 135.744L80.5386 135.551L80.5393 135.55Z" fill="#FFC4B8"/>
<path fill-rule="evenodd" clip-rule="evenodd" d="M56.2912 40.8636L57.2578 40.6247C58.024 40.4353 58.685 40.9373 58.7338 41.7364L59.2424 50.054C59.292 50.8651 58.7113 51.6758 57.945 51.8652L47.9339 54.3395C47.1799 54.5258 46.5198 54.0218 46.4702 53.2106L45.9616 44.8931C45.9128 44.0939 46.4929 43.2852 47.2469 43.0988L48.2165 42.8591L48.1384 41.5809C47.9943 39.2234 49.6873 36.8579 51.9136 36.3077C54.1388 35.7578 56.069 37.2278 56.2131 39.5852L56.2912 40.8636ZM50.207 41.8709C50.1128 40.482 51.0585 39.0849 52.3168 38.757C53.5741 38.4292 54.6739 39.2928 54.7683 40.6818L54.8615 42.0559L50.3003 43.245L50.207 41.8709ZM53.5153 48.4518L53.6844 50.4525C53.6915 50.5371 53.6215 50.6151 53.5318 50.6343L52.5275 50.85C52.4508 50.8665 52.3694 50.821 52.3621 50.7364L52.193 48.7358C51.4849 48.6292 50.936 48.1034 50.8725 47.3508C50.7906 46.3831 51.5499 45.4173 52.5679 45.1987C53.5852 44.9803 54.4776 45.5913 54.5594 46.559C54.6231 47.3117 54.1811 48.0501 53.5153 48.4518Z" fill="#EC0000"/>
</svg>
