<svg width="160" height="160" viewBox="0 0 160 160" fill="none" xmlns="http://www.w3.org/2000/svg">
<path fill-rule="evenodd" clip-rule="evenodd" d="M50.5356 43.0375C43.7656 50.2384 34.7964 54.9382 25.0763 56.7047C19.1765 57.7768 13.5313 60.5948 8.96969 65.1588C-2.97816 77.1125 -2.99172 96.3896 8.94 108.36C14.2035 113.64 20.9151 116.591 27.7972 117.212C33.689 117.745 39.2246 120.317 43.3123 124.597C43.365 124.652 43.418 124.707 43.4711 124.761C50.4443 131.881 61.7246 131.951 68.7823 124.916C68.8228 124.876 68.8629 124.836 68.9027 124.795C70.788 122.88 73.5093 122.044 76.146 122.557C91.1793 125.478 107.346 121.113 118.99 109.46C137.595 90.8398 137.595 60.5961 118.99 41.976C100.37 23.3413 70.1833 23.3415 51.5641 41.9763C51.2146 42.326 50.8717 42.6797 50.5356 43.0375Z" fill="#EAF7FE"/>
<path fill-rule="evenodd" clip-rule="evenodd" d="M58.5517 85.2519L26.4806 86.3718C25.567 86.4037 24.8005 85.6836 24.7684 84.7636L24.1089 65.8796C24.0768 64.9595 24.7912 64.188 25.7048 64.1561L57.7759 63.0362C58.6894 63.0043 59.4559 63.724 59.488 64.6441L60.1475 83.5281C60.1796 84.4482 59.4652 85.22 58.5517 85.2519Z" fill="#2A8FEC"/>
<path fill-rule="evenodd" clip-rule="evenodd" d="M29.8542 73.4757L27.8418 73.546C27.4804 73.5586 27.1978 73.864 27.2105 74.228L27.2813 76.2554C27.294 76.6195 27.5973 76.9044 27.9586 76.8917L29.971 76.8215C30.3324 76.8088 30.615 76.5035 30.6023 76.1395L30.5315 74.112C30.5187 73.748 30.2155 73.4631 29.8542 73.4757Z" fill="#DEEDF2"/>
<path fill-rule="evenodd" clip-rule="evenodd" d="M50.4875 78.9244L57.3128 78.686L57.3484 79.7045L50.5231 79.9428L50.4875 78.9244ZM42.7688 79.1939L49.5941 78.9556L49.6296 79.974L42.8043 80.2123L42.7688 79.1939ZM35.05 79.4634L41.8753 79.2251L41.9109 80.2435L35.0856 80.4819L35.05 79.4634ZM27.2883 79.7344L34.1136 79.4961L34.1492 80.5145L27.3239 80.7529L27.2883 79.7344ZM30.8048 82.5597L33.4368 82.4678L33.4832 83.7962L30.8512 83.8881L30.8048 82.5597ZM27.4142 82.6779L30.0462 82.586L30.0926 83.9144L27.4606 84.0063L27.4142 82.6779Z" fill="#2274C0"/>
<path fill-rule="evenodd" clip-rule="evenodd" d="M54.7935 67.6907C54.8127 67.3989 54.7413 67.1031 54.581 66.8477L54.3663 66.5056L53.5073 65.1372C53.4255 65.0067 53.3668 64.8658 53.3316 64.7202L53.2926 64.7952C53.0621 65.2386 53.0837 65.7725 53.3493 66.1958L53.3494 66.1961L54.2407 67.6159C54.2401 67.6158 54.2395 67.6158 54.2389 67.6158C54.4753 68.0304 54.4866 68.5396 54.2653 68.9654L54.2263 69.0404C54.191 68.8948 54.1324 68.7538 54.0506 68.6234L54.131 68.7517L53.4063 67.597L52.7427 66.5399L52.7621 66.5708C52.6802 66.4403 52.6216 66.2994 52.5863 66.1538L52.5473 66.2287C52.3168 66.6722 52.3385 67.2061 52.6041 67.6295L52.6042 67.6297L52.6322 67.6742L53.2484 68.656L53.2485 68.6561L53.4632 68.998C53.7289 69.4215 53.7506 69.9555 53.52 70.399L53.4811 70.474C53.4459 70.3284 53.3872 70.1874 53.3053 70.0569L53.3859 70.1852L52.2317 68.3465L52.2315 68.3462C52.1261 68.1783 52.0594 67.9931 52.0313 67.803C50.8478 68.1238 50.0396 68.7723 50.0685 69.4869C50.1078 70.4541 51.6659 71.1761 53.5485 71.0995C55.4312 71.0229 56.9254 70.1768 56.8862 69.2096C56.8572 68.4951 55.999 67.9144 54.7935 67.6907Z" fill="white"/>
<path fill-rule="evenodd" clip-rule="evenodd" d="M67.2038 64.2097C67.2038 64.2097 67.2621 66.786 69.1317 68.4082C69.1317 68.4082 69.5926 70.5633 72.9611 74.4192L76.5162 72.1788L71.7102 63.6632L67.2038 64.2097Z" fill="#FFC4B8"/>
<path fill-rule="evenodd" clip-rule="evenodd" d="M84.1439 63.6456C84.1439 63.6456 82.2227 60.4795 77.8059 58.2292L65.7185 50.8694C65.7185 50.8694 64.7931 50.0943 61.6736 50.5795C61.022 50.6808 60.2747 50.8371 59.4202 51.0669L51.7345 53.8926C51.7345 53.8926 50.7262 54.1186 50.0133 54.7493C49.1795 55.4867 47.8665 57.0457 47.4504 57.5982C46.6745 58.6282 45.2651 60.0903 45.2651 60.0903C45.2651 60.0903 44.7444 61.9858 48.1726 61.8074C51.6034 61.6281 63.948 54.7386 63.948 54.7386L84.1439 63.6456Z" fill="#FFC4B8"/>
<path fill-rule="evenodd" clip-rule="evenodd" d="M46.0812 62.5891C46.0812 62.5891 49.7243 66.9165 55.5091 61.5415C55.5091 61.5415 58.9539 62.4626 63.4273 60.5412C63.4273 60.5412 64.4871 63.2175 68.6707 64.9035C68.6707 64.9035 70.7752 67.9217 74.4665 72.3772C74.4665 72.3772 68.979 79.4051 69.562 81.3733C69.562 81.3733 63.1227 82.6243 60.3536 82.5434C57.5855 82.4632 47.4766 82.0378 47.769 88.2473C47.769 88.2473 47.7044 90.7603 53.7707 89.9322C53.7707 89.9322 60.9994 91.5926 69.7124 91.1286C69.7124 91.1286 72.9409 92.0585 75.6724 93.6082C78.4021 95.1591 83.1029 96.2118 87.0689 95.9067L102.34 100.322C102.34 100.322 104.929 89.7843 101.25 83.0826C101.25 83.0826 95.2416 81.7277 92.868 77.92C90.4953 74.1118 85.5326 65.2058 85.5326 65.2058C85.5326 65.2058 82.9871 61.4034 75.5351 58.1965C68.0829 54.9903 64.7889 53.7182 63.1948 53.5112C61.5995 53.3043 52.759 56.7951 52.759 56.7951C52.759 56.7951 45.3158 61.6864 46.0812 62.5891Z" fill="#FFC4B8"/>
<path fill-rule="evenodd" clip-rule="evenodd" d="M95.0127 101.767L99.351 80.5519L133.495 88.1263L134.37 114.542L95.0127 101.767Z" fill="white"/>
<mask id="mask0_1483_87168" style="mask-type:luminance" maskUnits="userSpaceOnUse" x="88" y="66" width="66" height="63">
<path fill-rule="evenodd" clip-rule="evenodd" d="M110.477 66.6904L153.782 93.7506L132.008 128.595L88.7032 101.535L110.477 66.6904Z" fill="white"/>
</mask>
<g mask="url(#mask0_1483_87168)">
<path fill-rule="evenodd" clip-rule="evenodd" d="M102.797 78.9805L97.0038 106.722L136.689 121.105L146.461 89.1758L102.797 78.9805Z" fill="#34466B"/>
</g>
<mask id="mask1_1483_87168" style="mask-type:luminance" maskUnits="userSpaceOnUse" x="93" y="88" width="49" height="41">
<path fill-rule="evenodd" clip-rule="evenodd" d="M103.848 88.9907L141.898 112.767L132.009 128.594L93.9582 104.817L103.848 88.9907Z" fill="white"/>
</mask>
<g mask="url(#mask1_1483_87168)">
<path d="M99.1302 96.5402L137.184 109.822L136.689 121.104L97.0039 106.72L99.1302 96.5402Z" fill="#34466B"/>
</g>
<path fill-rule="evenodd" clip-rule="evenodd" d="M114.691 109.041C114.271 110.149 113.033 110.709 111.924 110.29C110.816 109.871 110.256 108.632 110.675 107.524C111.094 106.415 112.334 105.856 113.443 106.276C114.551 106.694 115.111 107.932 114.691 109.041Z" fill="black"/>
<path fill-rule="evenodd" clip-rule="evenodd" d="M120.553 108.619C121.66 109.037 122.218 110.275 121.8 111.384C121.38 112.493 120.14 113.052 119.033 112.633C117.924 112.214 117.365 110.975 117.784 109.867C118.204 108.758 119.442 108.2 120.553 108.619Z" fill="black"/>
<path d="M46.0874 62.5767C46.0874 62.5767 48.9912 66.0252 53.7301 62.9404L46.7468 61.3533C46.1978 61.9094 45.9032 62.3594 46.0874 62.5767Z" fill="#FFC4B8"/>
</svg>
