<svg width="160" height="160" viewBox="0 0 160 160" fill="none" xmlns="http://www.w3.org/2000/svg">
<path fill-rule="evenodd" clip-rule="evenodd" d="M63.7508 130.557C35.8787 124.095 11.1401 115.256 9.60462 104.321C7.19499 87.1405 32.1095 92.2699 41.8864 74.2653C51.6634 56.2607 40.6971 43.6697 48.1246 32.935C55.5522 22.2002 68.9637 26.157 79.6927 34.212C90.4218 42.2671 86.4691 47.9366 102.086 55.6833C117.702 63.4299 124.82 53.1027 137.5 63.1052C150.18 73.1077 145.137 85.1593 142.309 96.8253C139.482 108.491 139.017 110.729 134.712 117.215C127.073 128.724 91.623 137.019 63.7508 130.557Z" fill="#EAF7FE"/>
<path fill-rule="evenodd" clip-rule="evenodd" d="M41.242 139.752H45.4515C45.4515 139.752 50.1579 127.189 49.0452 121.715L45.2287 120.116L37.832 136.758L41.242 139.752Z" fill="#34466B"/>
<path fill-rule="evenodd" clip-rule="evenodd" d="M77.1217 127.336L75.9105 126.309L74.2534 124.904L74.1661 124.83L73.3555 124.142L77.5205 123.174L80.3315 122.52L84.1253 121.637C85.2876 121.367 86.4732 121.977 86.9593 123.096C87.0081 123.208 87.0406 123.322 87.0586 123.436L87.0583 123.436L90.7519 120.818C91.045 120.61 91.4052 120.53 91.7539 120.593L91.8284 120.609C92.8527 120.857 93.2208 122.161 92.4847 122.935C90.8004 124.705 88.4293 127.176 88.2921 127.204C88.0843 127.247 82.7516 126.75 82.4426 126.721L82.4286 126.72L84.1971 125.466L77.1217 127.336Z" fill="#F4A48D"/>
<path fill-rule="evenodd" clip-rule="evenodd" d="M62.1132 118.444L64.1461 119.111C65.1005 119.424 66.1029 119.55 67.1018 119.484L74.8475 118.972C74.9588 118.965 75.0683 118.964 75.177 118.97C76.5345 119.043 77.6688 120.121 77.8185 121.544C77.8296 121.649 77.8348 121.753 77.8348 121.857C77.8348 122.328 77.7235 122.777 77.5241 123.174C77.0986 124.024 76.2709 124.64 75.2745 124.73L74.1695 124.83L73.5633 124.885L78.1643 125.009L82.8601 125.135L90.0209 122.816L94.4757 119.594C95.2048 119.067 96.1832 119.092 96.8864 119.655C97.8557 120.431 97.9323 121.903 97.0664 122.782L97.0086 122.839L96.3793 123.43C96.5895 124.125 96.2816 124.903 95.6115 125.231L93.2213 126.399L88.2526 131.071C87.051 132.201 85.5747 132.973 83.9818 133.306L83.8107 133.34L72.2486 135.523C71.6909 135.628 71.1246 135.676 70.558 135.667L70.3455 135.661L57.0123 135.106L57.0121 135.106L45.4181 134.698L33.8984 134.292L37.6254 126.507L39.8046 121.956L51.1018 118.61C54.6343 117.333 58.4998 117.26 62.1132 118.444Z" fill="#FFC4B8"/>
<path fill-rule="evenodd" clip-rule="evenodd" d="M1.45515 111L26.6086 117.542L26.8139 117.595C26.9964 117.391 27.1885 117.204 27.3909 117.034L46.7358 119.715C46.7358 119.715 43.5984 128.031 43.0756 134.453C42.8336 137.426 41.9632 140.308 40.5132 142.891H24.3825C24.3825 142.891 24.2431 141.948 24.0825 140.415L21.5079 140.268L0 139.047L1.45515 111Z" fill="#9BC3D3"/>
<path fill-rule="evenodd" clip-rule="evenodd" d="M103.812 42.8779C103.812 42.8779 110.896 63.3897 115.638 64.7421C115.638 64.7421 115.799 56.8481 111.73 50.1074C107.661 43.3666 103.812 42.8779 103.812 42.8779Z" fill="#34466B"/>
<path fill-rule="evenodd" clip-rule="evenodd" d="M108.901 42.3472L111.897 46.2944L113.423 48.3043L120.758 57.9653L111.644 62.7853L111.348 62.9427L110.242 63.5281L103.347 70.4787C101.6 72.2396 99.5183 73.6363 97.2271 74.5853L93.3392 76.1951C91.9398 79.1837 90.0579 81.9266 87.7655 84.312L84.4317 87.781L77.4341 84.1109L80.4608 77.5673L77.9769 79.987L67.5352 73.228L74.2233 60.9998C75.671 58.3542 78.0306 56.324 80.8636 55.2884L98.5137 48.8363C99.0897 48.6261 99.6413 48.3505 100.157 48.0171L104.496 45.203L104.8 45.0056L104.939 44.9161L105.656 44.4511L108.901 42.3472Z" fill="#F4A48D"/>
<path fill-rule="evenodd" clip-rule="evenodd" d="M145.123 16L103.812 42.8778C103.812 42.8778 112.776 55.3686 115.638 64.742L159.998 44.6075L145.123 16Z" fill="#EC0000"/>
<path fill-rule="evenodd" clip-rule="evenodd" d="M97.3787 89.3802L58.564 110.004L52.4062 96.7059L59.297 92.7604L65.1121 89.4312L89.7065 75.7998L95.0886 85.3271L97.3787 89.3802Z" fill="#9E3667"/>
<path fill-rule="evenodd" clip-rule="evenodd" d="M89.7062 75.7998L95.0883 85.327L92.9502 90.3552C88.4091 91.9998 83.8766 92.9539 79.5652 93.4404C79.3243 95.6128 78.0385 97.6292 75.9537 98.7135C72.6315 100.441 68.5378 99.1482 66.8103 95.8261C66.4412 95.1162 66.21 94.371 66.107 93.6212C63.5752 93.4172 61.2791 93.1032 59.2969 92.7604L65.1118 89.4312L68.2536 87.6898C68.6795 87.3016 69.1623 86.9616 69.6978 86.6832C70.1212 86.463 70.5571 86.292 70.999 86.1679L89.7062 75.7998Z" fill="#723846"/>
<path fill-rule="evenodd" clip-rule="evenodd" d="M96.3133 75.5063L90.0629 90.2052C69.2571 97.7414 48.6328 90.7787 48.6328 90.7787L53.5564 69.627L80.8624 73.3817L90.599 74.7204L96.3133 75.5063Z" fill="#9BC3D3"/>
<path fill-rule="evenodd" clip-rule="evenodd" d="M95.7975 74.5127L89.5471 89.2116C68.742 96.7477 48.1172 89.7851 48.1172 89.7851L53.0407 68.6333L80.3466 72.388L90.0832 73.7268L95.7975 74.5127Z" fill="#CEDEE7"/>
<path fill-rule="evenodd" clip-rule="evenodd" d="M77.4676 79.1171C79.329 82.6967 77.9364 87.1075 74.3565 88.9688C70.7775 90.8302 66.3663 89.4372 64.505 85.8576C62.6437 82.278 64.0366 77.8672 67.6163 76.0059C71.1962 74.1445 75.6072 75.5375 77.4676 79.1171ZM61.4797 74.957C62.2342 76.408 61.6696 78.196 60.2186 78.9505C58.7675 79.705 56.9797 79.1404 56.2252 77.6893C55.4707 76.2383 56.0353 74.4504 57.4863 73.6959C58.9373 72.9414 60.7252 73.5061 61.4797 74.957Z" fill="#9BC3D3"/>
<path fill-rule="evenodd" clip-rule="evenodd" d="M74.2858 79.9261L77.2096 74.5151C77.5074 73.9628 77.9125 73.4751 78.4006 73.08L82.2089 69.9956C82.903 69.4333 83.7962 69.1783 84.6826 69.2894C90.0363 69.9608 95.3996 68.1291 99.2245 64.324L103.774 59.7973L98.343 52.293L84.5401 57.2644C81.2483 58.4501 78.509 60.808 76.8465 63.887L76.3261 64.8493L73.6698 67.5374C73.0607 68.1535 72.5862 68.8893 72.2768 69.6983L69.1733 77.8059C68.6813 79.5929 70.0129 81.3617 71.8658 81.3842C71.9107 81.3846 71.9565 81.3842 72.0015 81.3824C72.965 81.3479 73.828 80.7742 74.2858 79.9261Z" fill="#F4A48D"/>
</svg>
