<svg width="173" height="163" viewBox="0 0 173 163" fill="none" xmlns="http://www.w3.org/2000/svg">
<path fill-rule="evenodd" clip-rule="evenodd" d="M9.30412 73.5596C11.6392 65.1821 4.21591 64.8589 4.05244 54.0643C3.9859 49.6495 6.40417 45.1532 12.2236 43.0905C15.0836 42.0773 17.9341 41.3806 20.4788 39.7688C26.2779 36.096 26.1731 29.1074 27.7553 23.1498C31.2293 10.0651 44.6002 -0.330139 58.1345 0.00802219C67.8913 0.251349 76.7122 0.550411 85.6071 8.83183C91.6936 14.4986 95.6492 21.4711 101.3 27.313C107.284 33.4993 114.576 36.4675 122.764 38.4553C130.507 40.3349 138.931 42.5714 144.858 48.2083C150.428 53.5053 149.616 59.0457 147.228 65.5498C144.594 72.7219 150.305 77.6013 156.259 80.3943C161.272 82.7457 169.664 87.5286 169.939 96.3478C170.788 123.664 153.437 123.774 146.967 126.37C87.4568 150.254 64.6187 131.832 39.3851 132.205C14.2306 132.576 -0.188934 102.156 0.684967 93.1971C1.79387 81.8223 7.67322 79.4094 9.30412 73.5596Z" fill="#DEEDF2"/>
<path fill-rule="evenodd" clip-rule="evenodd" d="M108.287 118.773C114.823 120.522 116.858 124.431 123.611 125.055C137.173 126.309 164.944 121.871 169.552 127.94C174.094 133.924 169.52 145.58 145.395 143.916C145.955 144.314 134.146 151.599 114.519 154.775C106.753 156.032 93.5946 156.241 88.4584 155.04C80.5639 153.193 72.4474 152.472 64.3486 152.854C35.5438 154.214 12.7633 152.525 12.1539 147.606C11.9499 145.962 13.4504 143.558 15.9585 142.046C17.5212 141.104 15.0927 140.572 14.5262 140.411C7.56872 138.443 3.57108 135.982 3.28095 133.827C2.37091 127.062 26.95 118.576 56.1399 114.958C76.0259 112.494 97.3774 115.853 108.287 118.773Z" fill="#DEEDF2"/>
<path fill-rule="evenodd" clip-rule="evenodd" d="M71.6094 59.9446C71.6094 59.9446 76.2796 57.053 76.8577 57.5925C77.4359 58.1315 75.4822 59.6793 75.4822 59.6793C75.4822 59.6793 81.186 64.812 80.9822 65.5757C80.7784 66.3393 71.8361 62.7002 71.8361 62.7002L71.6094 59.9446Z" fill="#F4A48D"/>
<path fill-rule="evenodd" clip-rule="evenodd" d="M52.2417 85.7884L52.6406 111.935L47.5098 144.988L43.4721 145.164L41.4555 114.552L34.3391 84.4365L52.2417 85.7884Z" fill="#444444"/>
<path fill-rule="evenodd" clip-rule="evenodd" d="M42.2422 87.0798L38.3311 112.889L28.9363 144.748L24.9135 144.367L26.8524 113.831L24.7726 83.1885L42.2422 87.0798Z" fill="#444444"/>
<path fill-rule="evenodd" clip-rule="evenodd" d="M34.4125 35.8149C31.3982 34.5867 29.25 31.4213 29.25 27.714C29.25 22.9419 32.8097 19.0674 37.1942 19.0674C40.6637 19.0674 43.6167 21.4935 44.6981 24.8705L44.7116 24.8739L46.7868 31.6121L46.596 31.6927L46.4964 31.7348L45.2697 31.9952L45.2643 35.5341L45.2044 35.7487C45.1074 36.046 44.9733 36.3344 44.8019 36.6054C44.6022 36.9223 44.3547 37.2118 44.0742 37.4616C43.9279 37.5926 43.771 37.7113 43.6055 37.8182C43.5178 37.8759 43.4301 37.9286 43.3401 37.9784C43.2698 38.0181 43.199 38.0551 43.1264 38.0893L42.905 38.1958L43.6101 45.9994C43.6101 45.9994 39.9886 46.846 38.312 46.5057L38.0882 46.4567L38.0835 46.4558C36.4833 46.1169 34.894 45.5837 33.5508 43.9573C33.5508 43.9573 33.5544 43.9392 33.5614 43.9041L33.5508 43.8917C33.5508 43.8917 33.6765 43.3007 33.8335 42.3355C34.0731 40.7958 34.3827 38.3464 34.4125 35.8149Z" fill="#F4A48D"/>
<path fill-rule="evenodd" clip-rule="evenodd" d="M42.9258 40.1616C41.8366 39.846 39.5385 38.6048 37.8125 36.5858L42.7385 38.2753C42.7385 38.2753 42.8328 39.2394 42.9258 40.1616ZM45.5425 31.7781C45.098 31.9206 44.6425 31.5977 44.6545 31.1487L44.7319 28.2544L45.5425 31.7781Z" fill="#A66555"/>
<path fill-rule="evenodd" clip-rule="evenodd" d="M34.4705 36.4119L33.2347 35.7287C31.755 34.8723 30.5018 33.5956 29.6809 31.9669C27.4325 27.5054 29.2757 22.0901 33.7974 19.8711C37.8681 17.8736 42.7261 19.1492 45.2911 22.6845L44.2746 23.4983C44.0439 23.4319 43.6619 23.3256 43.1941 23.2061C41.513 22.7685 38.7253 22.1497 37.8526 22.5703C36.5748 23.1865 36.6343 25.5068 36.8283 27.3477C37.0181 29.1482 37.1894 29.9301 36.3632 30.2837C36.0602 30.4133 35.873 28.8926 35.1782 28.4356C34.4442 27.9528 33.5069 28.4443 33.6441 30.0977C33.8713 30.8489 34.046 31.5895 34.1772 32.3126C34.3968 33.606 34.4772 35.0166 34.4705 36.4119Z" fill="#767676"/>
<path fill-rule="evenodd" clip-rule="evenodd" d="M29.1408 143.916H24.9476L24.7734 148.057L29.8194 148.491H33.5082L32.8219 146.571L32.0758 146.091L29.1408 143.916Z" fill="#1BB3BC"/>
<path fill-rule="evenodd" clip-rule="evenodd" d="M47.8563 142.668L52.8477 146.203L52.453 148.296L42.6571 147.297L43.4889 142.668H47.8563Z" fill="#1BB3BC"/>
<path fill-rule="evenodd" clip-rule="evenodd" d="M49.2047 48.4814C49.2047 48.4814 50.0062 63.1089 72.7504 59.0751L72.0088 63.1675C72.0088 63.1675 49.7953 73.2055 39.4013 49.7488C39.2986 49.5167 38.5 50.2138 38.5 50.2138C39.6883 49.6527 46.0011 50.2313 49.2047 48.4814Z" fill="#767676"/>
<path fill-rule="evenodd" clip-rule="evenodd" d="M25.0151 55.3146C23.313 65.1641 22.1979 85.8103 22.9096 91.7255C22.9096 91.7255 42.7459 95.4922 54.104 90.4131C54.104 90.4131 53.285 62.1123 49.2042 48.5908C48.29 45.561 45.6625 43.3424 42.5175 42.9312C41.9668 42.8594 41.3633 42.8022 40.7028 42.7644C33.0532 42.3304 26.317 47.7825 25.0151 55.3146Z" fill="#767676"/>
<path fill-rule="evenodd" clip-rule="evenodd" d="M65.4258 64.5075C65.4258 64.5075 65.551 62.2843 65.8571 61.6034C66.2177 60.8014 67.7738 58.3141 67.9139 59.1102C68.0537 59.9067 67.4269 61.1512 67.4269 61.1512C67.4269 61.1512 71.308 58.7799 72.2443 59.4367C73.1802 60.0931 70.1068 65.0024 69.2712 66.0182C68.4355 67.0339 66.7285 67.4182 66.7285 67.4182L65.4258 64.5075Z" fill="#F4A48D"/>
<path fill-rule="evenodd" clip-rule="evenodd" d="M41.7987 77.5762C48.0653 82.6682 66.8655 67.3931 66.8655 67.3931L65.2987 64.2598L48.4571 68.96L39.2656 54.246C39.2656 54.246 34.9569 49.5463 30.649 51.8963C26.3406 54.246 28.6903 58.9462 28.6903 58.9462C28.6903 58.9462 35.5321 72.4847 41.7987 77.5762Z" fill="#767676"/>
<path fill-rule="evenodd" clip-rule="evenodd" d="M33.6602 42.5425L49.9888 64.1715L43.0596 42.85L33.6602 42.5425Z" fill="#EAF7FE"/>
<path fill-rule="evenodd" clip-rule="evenodd" d="M32.2578 44.7729L40.2401 47.6682L42.0824 44.0117L43.7144 45.4022L44.3201 42.9906L42.7325 41.5942C42.7325 41.5942 41.668 43.2622 38.289 42.6341C35.0184 42.026 33.6572 41.7377 33.6572 41.7377L32.2578 44.7729Z" fill="#EAF7FE"/>
<path fill-rule="evenodd" clip-rule="evenodd" d="M104.2 85.7884L103.801 111.935L108.932 144.988L112.969 145.164L114.986 114.552L122.102 84.4365L104.2 85.7884Z" fill="#34466B"/>
<path fill-rule="evenodd" clip-rule="evenodd" d="M112.953 87.4959L116.864 113.305L126.259 145.164L130.282 144.783L128.343 114.247L130.423 83.6045L112.953 87.4959Z" fill="#34466B"/>
<path fill-rule="evenodd" clip-rule="evenodd" d="M40.7852 46.1695L42.6232 47.8191L43.0678 55.3206L49.997 64.0974L46.5838 53.7559L43.4551 47.6806L43.5291 45.0643L41.9827 43.6738L40.7852 46.1695Z" fill="#EC0000"/>
<path fill-rule="evenodd" clip-rule="evenodd" d="M120.666 31.8392C122.487 30.5966 123.714 28.534 123.797 26.1639C123.935 22.2094 120.836 18.8867 116.882 18.7486C113.23 18.6211 110.118 21.253 109.553 24.7702C109.463 25.1356 109.394 25.5058 109.343 25.8765L109.342 25.8771L109.341 25.8852L109.341 25.8881C109.325 25.999 109.311 26.1099 109.299 26.2207L108.613 31.7325L109.723 32.1476L109.734 32.1507L109.734 32.1507C109.759 32.248 109.773 32.3007 109.773 32.3007L109.777 33.0496L109.783 34.4495C109.786 34.9128 109.867 35.3694 110.021 35.8015C110.128 36.1065 110.273 36.4 110.454 36.674C110.666 36.9956 110.923 37.2865 111.212 37.5347C111.363 37.6649 111.524 37.782 111.693 37.8871C111.782 37.943 111.871 37.9945 111.964 38.0431L111.965 38.0435L111.177 46.7599C111.177 46.7599 113.7 47.6171 116.513 47.1051C118.213 46.7987 120.021 45.9885 121.442 44.1894C121.442 44.1894 120.08 37.1762 120.666 31.8392Z" fill="#FFC4B8"/>
<path fill-rule="evenodd" clip-rule="evenodd" d="M116.491 47.001C118.191 46.6946 119.999 45.8844 121.42 44.0853C121.42 44.0853 119.944 36.5699 120.721 31.1729C120.721 31.1729 116.436 40.6635 116.491 47.001ZM109.723 32.1792C110.112 32.3083 110.51 32.0129 110.499 31.6035L110.425 28.9642L109.723 32.1792Z" fill="#F4A48D"/>
<path fill-rule="evenodd" clip-rule="evenodd" d="M118.983 27.6654C119.502 27.0395 120.182 26.7348 120.747 26.9504C121.551 27.2572 121.819 28.502 121.345 29.7284C121.18 30.1556 120.947 30.5246 120.679 30.8111C120.649 31.1814 120.63 31.5461 120.62 31.904C121.672 31.0922 122.693 30.0053 123.202 28.6879C124.788 24.5801 123.307 20.6513 118.482 18.81C114.86 17.4277 110.859 18.8561 108.997 22.0169L109.369 22.6566L109.371 22.6509L109.435 22.6361L116.07 21.0433L117.584 25.7114L116.933 26.8083L114.046 31.6653C113.846 32.0055 113.558 32.2777 113.22 32.4612C112.962 32.6016 112.678 32.6927 112.378 32.7238L112.376 32.7231C112.281 32.7324 112.186 32.7371 112.089 32.7349C111.934 32.7321 111.781 32.7128 111.631 32.6795L110.396 32.3971C110.28 32.37 110.16 32.3504 110.042 32.3354C109.824 32.3089 109.606 32.3037 109.389 32.3184C109.384 32.3189 109.38 32.3174 109.377 32.3204L109.389 32.3229C109.421 32.4196 109.438 32.472 109.438 32.472L109.493 33.2262L111.164 33.5428C111.208 33.5509 111.248 33.5618 111.289 33.5774C111.501 33.6582 111.664 33.8356 111.723 34.0577C111.793 34.3209 111.699 34.5977 111.485 34.7656L110.077 35.8667L109.927 35.9851C110.058 36.2867 110.227 36.5749 110.432 36.8418C110.672 37.1546 110.956 37.4346 111.271 37.6697C111.435 37.7931 111.609 37.9028 111.789 38L111.868 37.9648C111.943 37.9307 112.021 37.8953 112.096 37.8587C114.22 36.8576 115.995 35.3084 117.248 33.3953C117.702 32.7049 118.088 31.9666 118.394 31.1896C118.428 31.109 118.459 31.0277 118.489 30.9438L118.49 30.9431C118.135 30.3985 118.09 29.5028 118.432 28.6167L118.444 28.5851L118.449 28.5745L118.457 28.5537L118.462 28.5414L118.47 28.5222L118.475 28.5096L118.484 28.4903L118.489 28.4785L118.499 28.4556L118.502 28.4478L118.515 28.4181L118.521 28.4071L118.529 28.388L118.535 28.3752L118.544 28.3579L118.55 28.3448L118.558 28.3277L118.564 28.315L118.574 28.2964L118.579 28.2856L118.593 28.2577L118.599 28.2466L118.608 28.2288L118.615 28.216L118.624 28.2001L118.631 28.187L118.639 28.1715L118.647 28.1586L118.656 28.1423L118.662 28.1305L118.678 28.1041L118.684 28.0939L118.694 28.0766L118.701 28.0642L118.71 28.0493L118.718 28.0366L118.727 28.0221L118.735 28.0096L118.744 27.9947L118.752 27.9829L118.764 27.9642L118.768 27.9572L118.773 27.9498L118.785 27.9317L118.793 27.9203L118.802 27.9058L118.81 27.8939L118.82 27.88L118.828 27.8683L118.838 27.8541L118.846 27.8431L118.858 27.8266L118.864 27.8181L118.881 27.7945L118.889 27.7846L118.9 27.77L118.908 27.7594L118.918 27.7457L118.927 27.7351L118.937 27.7213L118.945 27.7113L118.958 27.6957L118.964 27.6879L118.983 27.6654Z" fill="#9BC3D3"/>
<path fill-rule="evenodd" clip-rule="evenodd" d="M109.813 47.3619C109.813 47.3619 114.076 68.4662 91.9034 82.9376L94.2981 85.7065C94.2981 85.7065 120.626 81.4834 121.803 50.4679C121.803 50.4679 122.588 43.5832 116.082 41.4373C109.575 39.291 109.813 47.3619 109.813 47.3619Z" fill="#EC0000"/>
<path fill-rule="evenodd" clip-rule="evenodd" d="M100.095 90.3497C107.191 91.2832 112.552 91.7961 116.178 91.8883C119.803 91.9804 125.115 91.7388 132.113 91.1635C131.288 63.0345 127.615 45.7676 121.094 39.3627C121.094 39.3627 113.487 41.2476 110.808 40.958C110.808 40.958 107.237 57.4219 100.095 90.3497Z" fill="#EC0000"/>
<path fill-rule="evenodd" clip-rule="evenodd" d="M81.4769 63.3743C81.4769 63.3743 78.6892 58.7038 77.9623 58.9558C77.2358 59.2079 78.2574 61.4738 78.2574 61.4738C78.2574 61.4738 71.1653 63.7833 71.0157 64.5764C70.8662 65.37 80.1093 65.8255 80.1093 65.8255L81.4769 63.3743Z" fill="#FFC4B8"/>
<path fill-rule="evenodd" clip-rule="evenodd" d="M92.2641 83.6582C92.2641 83.6582 86.8702 85.2034 86.8814 86.0112C86.8922 86.8185 89.4041 86.4043 89.4041 86.4043C89.4041 86.4043 83.6862 92.0345 88.3185 90.9418C90.6886 90.3827 94.1925 85.7217 94.1925 85.7217L92.2641 83.6582Z" fill="#FFC4B8"/>
<path fill-rule="evenodd" clip-rule="evenodd" d="M123.607 60.1718C123.607 60.1718 111.54 70.2997 105.404 75.5485C99.2685 80.797 80.088 66.0031 80.088 66.0031L81.5746 62.8311L100.406 67.576L114.569 53.652C114.569 53.652 117.105 50.9334 121.471 53.1734C125.838 55.414 123.607 60.1718 123.607 60.1718Z" fill="#EC0000"/>
<path fill-rule="evenodd" clip-rule="evenodd" d="M122.551 41.0861L115.02 45.2344L112.49 41.9276L111.117 43.5606L109.751 41.3039L111.68 39.7065C111.68 39.7065 111.962 40.9731 115.214 40.1718C118.486 39.3659 120.472 38.5767 120.472 38.5767L122.551 41.0861Z" fill="#990000"/>
<path fill-rule="evenodd" clip-rule="evenodd" d="M109.001 143.292L112.952 143.292L113.254 148.534L107.352 148.881L103.594 148.907L104.217 145.996L109.001 143.292Z" fill="#1BB3BC"/>
<path fill-rule="evenodd" clip-rule="evenodd" d="M126.418 143.528L121.243 146.229L121.451 148.894L131.087 148.251L130.199 142.978L126.418 143.528Z" fill="#1BB3BC"/>
<path d="M55.9844 34.1073L58.4209 30.3568C55.6809 25.2349 57.579 18.7187 62.6604 15.8027C67.7416 12.8867 74.082 14.675 76.8218 19.7969C79.5618 24.9188 77.6637 31.4349 72.5824 34.3511C68.8686 36.4823 64.3151 36.1539 61.0378 33.5185L55.9844 34.1073Z" fill="#9BC3D3"/>
<mask id="mask0_1487_24791" style="mask-type:luminance" maskUnits="userSpaceOnUse" x="51" y="9" width="29" height="32">
<path fill-rule="evenodd" clip-rule="evenodd" d="M61.0664 9.76367L79.5291 17.9838L69.5896 40.3083L51.1269 32.0882L61.0664 9.76367Z" fill="white"/>
</mask>
<g mask="url(#mask0_1487_24791)">
<path fill-rule="evenodd" clip-rule="evenodd" d="M55.5549 34.0597L57.6306 29.5046C54.4777 24.8354 55.6869 18.3334 60.3315 14.9819C64.9761 11.6304 71.297 12.6986 74.4499 17.3678C77.6029 22.0368 76.3937 28.5389 71.7491 31.8904C68.3536 34.3406 63.905 34.4977 60.4718 32.2885L55.5549 34.0597Z" fill="white"/>
</g>
<path fill-rule="evenodd" clip-rule="evenodd" d="M68.4367 21.2792L66.793 18.4183C66.6676 18.2001 66.581 17.9663 66.5329 17.7266L66.4643 17.8461C66.0574 18.5543 66.0574 19.4266 66.4642 20.1348L67.7793 22.4236C68.1861 23.1317 68.1861 24.0042 67.7793 24.7123L67.7106 24.8319C67.6625 24.5921 67.5759 24.3583 67.4505 24.1401L65.478 20.707C65.3526 20.4888 65.2661 20.255 65.2179 20.0153L65.1493 20.1348C64.7438 20.8406 64.7426 21.7095 65.1453 22.4164L66.4643 24.7123C66.8711 25.4204 66.8711 26.2929 66.4643 27.001L66.3956 27.1206C66.3475 26.8808 66.2609 26.647 66.1355 26.4289L64.4918 23.5679C64.2713 23.1842 64.1706 22.7523 64.1891 22.3243C62.4294 22.7864 61.2148 23.7673 61.2148 24.903C61.2148 26.483 63.5651 27.7639 66.4643 27.7639C69.3634 27.7639 71.7136 26.483 71.7136 24.903C71.7136 23.7672 70.4992 22.786 68.7394 22.3241C68.7238 21.9624 68.6231 21.6035 68.4367 21.2792Z" fill="#EC0000"/>
</svg>
