<svg width="160" height="160" viewBox="0 0 160 160" fill="none" xmlns="http://www.w3.org/2000/svg">
<path fill-rule="evenodd" clip-rule="evenodd" d="M100.781 38.821C100.206 38.6406 99.6304 38.4697 99.0533 38.3081C87.4392 35.0531 77.4784 28.0438 70.4133 18.5942C66.1254 12.8586 60.0129 8.36885 52.5104 6.01518C32.8594 -0.149946 11.2416 10.5756 4.06402 30.0525C0.897934 38.6444 1.10103 47.4926 4.00411 55.2262C6.48934 61.8473 6.50125 69.2227 3.84152 75.995C3.80727 76.0825 3.77374 76.17 3.74064 76.257C-0.592612 87.7084 5.2293 99.8561 16.8075 103.513C16.8737 103.534 16.9401 103.555 17.0064 103.575C20.1393 104.532 22.5003 106.987 23.3052 110.102C27.8942 127.867 41.2453 142.789 60.4001 148.795C91.0063 158.392 124.911 141.542 136.053 111.197C147.203 80.8284 131.412 48.4249 100.781 38.821Z" fill="#EAF7FE"/>
<path d="M68.4099 153.354L24.5803 146.654C19.7128 145.908 16.3707 141.363 17.1156 136.5L34.9861 19.8681C35.731 15.0056 40.2808 11.6666 45.1497 12.4109L88.9778 19.1125C93.8468 19.8575 97.1888 24.4025 96.4429 29.265L78.573 145.897C77.8279 150.76 73.2785 154.098 68.4099 153.354Z" fill="#9E3667"/>
<path d="M65.7185 152.944L21.889 146.241C17.0215 145.498 13.6794 140.951 14.4241 136.089L32.2941 19.4575C33.0397 14.595 37.5894 11.2561 42.4576 12.0002L86.2869 18.7024C91.155 19.4461 94.4974 23.9918 93.7515 28.8544L75.8816 145.486C75.1366 150.349 70.5862 153.688 65.7185 152.944Z" fill="white"/>
<path d="M92.998 33.8088L76.4784 141.624C75.965 144.975 71.7949 147.117 68.4424 146.604L20.1626 139.222C16.8077 138.709 14.5074 135.578 15.0209 132.226L31.5402 24.412C32.0539 21.0598 35.1867 18.7568 38.5422 19.2697L86.8204 26.652C90.1734 27.1646 93.5114 30.4569 92.998 33.8088Z" fill="white"/>
<path fill-rule="evenodd" clip-rule="evenodd" d="M75.6475 22.5795C76.4581 22.7037 77.2163 22.1472 77.3403 21.3372C77.4647 20.5266 76.9082 19.7697 76.0976 19.6456C75.2866 19.5221 74.5284 20.0779 74.404 20.8886C74.28 21.6985 74.8361 22.4561 75.6475 22.5795ZM54.0673 18.5603C54.4893 18.625 54.8844 18.3353 54.949 17.9128C55.0141 17.4902 54.724 17.0957 54.3011 17.031C53.8783 16.9664 53.4836 17.2563 53.4194 17.6788C53.3539 18.1011 53.6444 18.4958 54.0673 18.5603ZM51.9802 17.4595C51.9156 17.8814 51.5204 18.1719 51.0984 18.1073C50.6756 18.0419 50.3855 17.648 50.4505 17.2255C50.5151 16.803 50.9103 16.5132 51.3323 16.5779C51.7551 16.6425 52.0452 17.0372 51.9802 17.4595ZM60.1632 19.1273L67.2599 20.2121C67.4854 20.247 67.696 20.0924 67.7302 19.8671C67.7645 19.6418 67.6098 19.4316 67.3843 19.3973L60.2876 18.3124C60.063 18.2782 59.8524 18.4321 59.8173 18.6575C59.783 18.8826 59.9368 19.0931 60.1632 19.1273Z" fill="#DEEDF2"/>
<path fill-rule="evenodd" clip-rule="evenodd" d="M68.4063 153.33L24.5764 146.63C19.7089 145.884 16.3667 141.339 17.1117 136.476L34.9822 19.8442C35.7272 14.9817 40.2769 11.6427 45.1456 12.387L88.9742 19.0886C93.8432 19.8335 97.1848 24.3786 96.4393 29.2411L78.5689 145.873C77.8243 150.736 73.2744 154.074 68.4063 153.33Z" fill="#9E3667"/>
<path fill-rule="evenodd" clip-rule="evenodd" d="M65.7149 152.918L21.8851 146.215C17.0177 145.472 13.6755 140.926 14.4202 136.064L32.2901 19.4316C33.0358 14.5691 37.5855 11.2302 42.4538 11.9744L86.2828 18.6766C91.151 19.4202 94.4934 23.9659 93.7479 28.8286L75.8776 145.46C75.133 150.323 70.5822 153.662 65.7149 152.918Z" fill="white"/>
<path d="M92.99 33.7849L76.4709 141.6C75.957 144.951 71.7874 147.093 68.4344 146.581L20.1548 139.198C16.7999 138.685 14.4996 135.554 15.0131 132.202L31.5324 24.3881C32.0461 21.0359 35.1789 18.7329 38.5344 19.2458L86.8129 26.6281C90.1658 27.1407 93.5034 30.433 92.99 33.7849Z" fill="white"/>
<path fill-rule="evenodd" clip-rule="evenodd" d="M77.0164 138.031L76.4692 141.599C76.4406 141.779 76.4037 141.955 76.3553 142.125C75.5127 145.172 71.6059 147.067 68.4336 146.582L20.154 139.198C17.1967 138.746 15.056 136.26 14.9462 133.379C14.9313 132.991 14.9506 132.599 15.0122 132.202L15.5589 128.633L77.0164 138.031Z" fill="#CEDEE7"/>
<path d="M77.0191 138.031L76.4718 141.599C76.4432 141.779 76.4063 141.955 76.3575 142.125L76.3254 142.121L76.4696 141.18L15.0781 131.794L15.5615 128.633L77.0191 138.031Z" fill="#2A8FEC"/>
<path fill-rule="evenodd" clip-rule="evenodd" d="M59.7137 115.208L75.7686 117.662L73.3084 133.704L57.2539 131.251L59.7137 115.208ZM41.2834 112.39L57.3377 114.843L54.8779 130.885L38.8242 128.433L41.2834 112.39ZM22.8543 109.572L38.9085 112.025L36.4495 128.067L20.3945 125.614L22.8543 109.572Z" fill="#CEDEE7"/>
<path fill-rule="evenodd" clip-rule="evenodd" d="M75.6432 22.5546C76.4542 22.6788 77.2124 22.1223 77.3359 21.3123C77.4608 20.5017 76.9038 19.7448 76.0933 19.6207C75.2827 19.4972 74.5245 20.053 74.4001 20.8636C74.2761 21.6736 74.8322 22.4312 75.6432 22.5546ZM54.0638 18.5354C54.4858 18.6001 54.8805 18.3104 54.9456 17.8879C55.0102 17.4654 54.7205 17.0708 54.2977 17.0061C53.8748 16.9415 53.4796 17.2314 53.4155 17.6538C53.35 18.0762 53.641 18.4709 54.0638 18.5354ZM51.9766 17.4346C51.9116 17.8564 51.5168 18.147 51.0944 18.0823C50.6716 18.0169 50.3819 17.6231 50.4465 17.2006C50.5116 16.7781 50.9067 16.4883 51.3287 16.553C51.7516 16.6175 52.0412 17.0123 51.9766 17.4346ZM60.159 19.1024L67.2561 20.1872C67.4812 20.2221 67.6917 20.0675 67.726 19.8422C67.7603 19.6169 67.6056 19.4067 67.3805 19.3724L60.2834 18.2875C60.0587 18.2533 59.8482 18.4072 59.8135 18.6326C59.7787 18.8577 59.933 19.0682 60.159 19.1024Z" fill="#DEEDF2"/>
<path d="M92.9886 33.7845L90.36 50.9422L28.9023 41.5453L31.5312 24.3877C32.0448 21.0355 35.1777 18.7321 38.5332 19.2454L86.8114 26.6277C90.1644 27.1403 93.5024 30.4324 92.9886 33.7845Z" fill="#2A8FEC"/>
<path fill-rule="evenodd" clip-rule="evenodd" d="M86.5774 75.6573L25.1211 66.2604L28.901 41.5918L90.3567 50.9887L86.5774 75.6573Z" fill="#DEEDF2"/>
<path fill-rule="evenodd" clip-rule="evenodd" d="M83.3512 62.4923C82.7446 66.4523 79.0387 69.1719 75.0747 68.5653C71.1103 67.9591 68.3881 64.2576 68.9947 60.2971C69.6022 56.3371 73.3077 53.618 77.2725 54.2242C81.2369 54.8299 83.9582 58.5323 83.3512 62.4923Z" fill="#CEDEE7"/>
<path fill-rule="evenodd" clip-rule="evenodd" d="M65.7734 59.1012L32.8475 54.0674L32.6602 55.2894L65.5862 60.3236L65.7734 59.1012Z" fill="white"/>
<path fill-rule="evenodd" clip-rule="evenodd" d="M86.598 75.539L82.8182 100.208L21.3633 90.8102L23.0766 79.6238L23.6318 75.994L25.1431 66.1421L35.165 67.6753L36.3947 67.8643L38.9337 68.2507L39.0502 68.2682L86.598 75.539Z" fill="#9BC3D3"/>
<path fill-rule="evenodd" clip-rule="evenodd" d="M79.4961 87.6629C78.8895 91.6229 75.1835 94.3424 71.2191 93.7358C67.2552 93.1292 64.533 89.4277 65.1391 85.4677C65.7462 81.5077 69.4525 78.7886 73.4165 79.3939C77.3813 80.0005 80.1026 83.7029 79.4961 87.6629Z" fill="#DEEDF2"/>
<path fill-rule="evenodd" clip-rule="evenodd" d="M55.6827 82.857L33.0974 79.4038L32.9102 80.6267L55.4954 84.0794L55.6827 82.857Z" fill="#DEEDF2"/>
<rect x="46.0586" y="64.585" width="112.527" height="43.956" rx="8" fill="#9BC3D3"/>
<rect x="54.8477" y="73.376" width="94.9451" height="26.3736" rx="8" fill="white"/>
<rect x="123.703" y="95.7939" width="18.4615" height="1.75824" transform="rotate(-90 123.703 95.7939)" fill="#444444"/>
<rect x="61.332" y="92.6362" width="12.3077" height="57.9182" transform="rotate(-90 61.332 92.6362)" fill="#DEEDF2"/>
</svg>
