<svg width="160" height="160" viewBox="0 0 160 160" fill="none" xmlns="http://www.w3.org/2000/svg">
<path fill-rule="evenodd" clip-rule="evenodd" d="M109.314 32.6341C109.638 33.1665 109.952 33.7023 110.258 34.2414C116.413 45.0939 125.926 53.3534 137.17 58.0987C143.995 60.9787 150.022 66.0001 154.25 72.9485C165.324 91.1476 159.927 115.519 142.154 127.566C134.314 132.881 125.38 134.876 116.893 133.883C109.627 133.033 102.219 134.854 96.0796 139.208C96.0005 139.264 95.9214 139.319 95.8418 139.374C85.4205 146.571 71.7765 143.744 65.2271 133.028C65.1898 132.966 65.1525 132.905 65.116 132.843C63.3765 129.935 60.3245 128.175 56.996 128.141C38.0185 127.948 19.7175 118.251 8.92663 100.511C-8.31551 72.165 0.177129 33.9342 27.8765 15.2056C55.5978 -3.53759 92.0583 4.2653 109.314 32.6341Z" fill="#EAF7FE"/>
<path fill-rule="evenodd" clip-rule="evenodd" d="M129.274 102.31L45.7982 88.8981C43.4204 88.5159 41.8028 86.279 42.1847 83.9021L50.0235 35.1144C50.4057 32.7373 52.6422 31.1206 55.0199 31.5027L138.496 44.9149C140.874 45.297 142.492 47.5327 142.11 49.9101L134.271 98.6976C133.889 101.075 131.652 102.692 129.274 102.31Z" fill="#34466B"/>
<path fill-rule="evenodd" clip-rule="evenodd" d="M61.0356 57.525L55.7973 56.6832C54.8569 56.5321 53.972 57.1721 53.8209 58.1126L52.9791 63.3508C52.828 64.2912 53.468 65.1761 54.4085 65.3272L59.6467 66.169C60.5871 66.3201 61.472 65.6801 61.6231 64.7397L62.4649 59.5015C62.616 58.561 61.976 57.6761 61.0356 57.525Z" fill="#CEDEE7"/>
<path fill-rule="evenodd" clip-rule="evenodd" d="M51.1159 74.9339L68.7492 77.7672L69.1754 75.1161L51.5417 72.2832L51.1159 74.9339ZM56.6086 84.5051L49.8086 83.4126L50.3641 79.9549L57.1637 81.0478L56.6086 84.5051ZM65.372 85.9165L58.5725 84.8241L59.128 81.3663L65.9276 82.4588L65.372 85.9165ZM88.803 80.9912L71.1697 78.1578L71.5955 75.5072L89.2293 78.3401L88.803 80.9912ZM91.1089 81.3627L108.743 84.196L109.169 81.5449L91.5352 78.712L91.1089 81.3627ZM128.68 87.3992L111.046 84.5658L111.472 81.9152L129.106 84.748L128.68 87.3992Z" fill="#CEDEE7"/>
<path fill-rule="evenodd" clip-rule="evenodd" d="M128.432 55.3418C128.629 54.6027 128.594 53.8075 128.309 53.0707L127.927 52.084L126.397 48.1369C126.252 47.7604 126.172 47.3689 126.154 46.9775L126.016 47.15C125.196 48.1707 124.981 49.5515 125.454 50.7724V50.7733L127.041 54.8689C127.04 54.8684 127.038 54.868 127.036 54.868C127.438 56.0515 127.21 57.364 126.422 58.344L126.284 58.5164C126.266 58.1253 126.186 57.7338 126.04 57.3573L126.184 57.7275L124.893 54.3969L123.712 51.3475L123.747 51.4364C123.601 51.06 123.52 50.6689 123.503 50.2773L123.364 50.4498C122.544 51.4707 122.33 52.8515 122.803 54.0724V54.0733L122.853 54.2018L123.95 57.0338L124.332 58.0204C124.805 59.2418 124.592 60.6231 123.771 61.644L123.633 61.8164C123.615 61.4249 123.535 61.0333 123.389 60.6573L123.532 61.0271L121.478 55.7231L121.477 55.7227C121.29 55.2382 121.211 54.7293 121.235 54.2271C118.013 54.4493 115.596 55.7027 115.309 57.5511C114.922 60.0524 118.585 62.696 123.491 63.456C128.396 64.2151 132.687 62.8031 133.074 60.3018C133.36 58.4533 131.436 56.528 128.432 55.3418Z" fill="#EC0000"/>
<path fill-rule="evenodd" clip-rule="evenodd" d="M136.317 92.9998L51.9702 98.8042C49.5675 98.9696 47.4862 97.1567 47.3209 94.7544L43.9284 45.4578C43.7631 43.0559 45.5764 40.9755 47.9791 40.8102L132.326 35.0056C134.728 34.8403 136.81 36.6526 136.975 39.0545L140.368 88.3513C140.533 90.7531 138.72 92.8344 136.317 92.9998Z" fill="#CEDEE7"/>
<path fill-rule="evenodd" clip-rule="evenodd" d="M59.7191 64.7986L54.4267 65.1626C53.4764 65.2279 52.7591 66.0515 52.8244 67.0017L53.1884 72.2946C53.2538 73.2448 54.0773 73.9621 55.0276 73.8968L60.3204 73.5323C61.2707 73.467 61.988 72.6439 61.9227 71.6932L61.5582 66.4008C61.4929 65.4506 60.6698 64.7332 59.7191 64.7986Z" fill="#CEDEE7"/>
<path fill-rule="evenodd" clip-rule="evenodd" d="M53.9926 84L71.8104 82.7738L71.6259 80.0956L53.8086 81.3214L53.9926 84ZM61.5065 92.0818L54.6358 92.5547L54.3954 89.0613L61.2661 88.5884L61.5065 92.0818ZM70.3624 91.4741L63.4917 91.947L63.2513 88.4533L70.122 87.9804L70.3624 91.4741ZM92.0747 81.3812L74.2569 82.6075L74.0725 79.9292L91.8903 78.703L92.0747 81.3812ZM94.4041 81.2223L112.222 79.996L112.037 77.3178L94.2201 78.5436L94.4041 81.2223ZM132.368 78.6089L114.55 79.8351L114.366 77.1569L132.183 75.9307L132.368 78.6089Z" fill="#CEDEE7"/>
<path fill-rule="evenodd" clip-rule="evenodd" d="M124.88 47.4366C124.905 46.6719 124.691 45.9052 124.246 45.252L123.651 44.3772L121.269 40.8778C121.042 40.5442 120.876 40.181 120.77 39.8037L120.674 40.003C120.106 41.1827 120.21 42.5763 120.946 43.6587V43.6596L123.418 47.2904C123.416 47.2903 123.415 47.2902 123.413 47.2903C124.072 48.3526 124.146 49.6823 123.601 50.8152L123.505 51.0148C123.399 50.6374 123.232 50.2743 123.005 49.9406L123.228 50.2686L121.219 47.3159L119.379 44.6126L119.433 44.6915C119.206 44.3578 119.039 43.9947 118.933 43.6174L118.837 43.8168C118.269 44.9964 118.373 46.39 119.11 47.4726L119.11 47.4734L119.188 47.5872L120.896 50.0979L121.492 50.9726C122.228 52.0552 122.332 53.449 121.764 54.629L121.668 54.8286C121.563 54.4512 121.396 54.0881 121.169 53.7543L121.392 54.0823L118.192 49.3801L118.192 49.3797C117.899 48.9503 117.707 48.4721 117.616 47.9774C114.529 48.9223 112.457 50.6899 112.596 52.5548C112.784 55.0792 116.95 56.8263 121.901 56.4574C126.851 56.0881 130.712 53.7428 130.523 51.2183C130.384 49.3534 128.074 47.913 124.88 47.4366Z" fill="#EC0000"/>
<path fill-rule="evenodd" clip-rule="evenodd" d="M140.277 82.856L58.7814 105.363C56.46 106.004 54.0587 104.642 53.4178 102.321L40.2638 54.6906C39.6229 52.3702 40.9852 49.9697 43.3067 49.3288L124.802 26.8221C127.124 26.181 129.525 27.542 130.165 29.8627L143.32 77.4928C143.961 79.8137 142.598 82.2151 140.277 82.856Z" fill="white"/>
<path fill-rule="evenodd" clip-rule="evenodd" d="M59.5948 70.4934L54.481 71.9054C53.5628 72.1592 53.0241 73.109 53.2774 74.0272L54.6899 79.141C54.9436 80.0592 55.8934 80.5979 56.8116 80.3441L61.9254 78.9321C62.8436 78.6783 63.3823 77.7285 63.1285 76.8103L61.7165 71.6965C61.4628 70.7783 60.513 70.2397 59.5948 70.4934Z" fill="#CEDEE7"/>
<path fill-rule="evenodd" clip-rule="evenodd" d="M57.8128 90.4504L75.0279 85.6961L74.3132 83.1081L57.0977 87.8624L57.8128 90.4504ZM66.7881 96.8717L60.1499 98.705L59.2174 95.3295L65.8561 93.4962L66.7881 96.8717ZM75.3437 94.5104L68.705 96.3437L67.773 92.9682L74.4117 91.1348L75.3437 94.5104ZM94.6073 80.2916L77.3922 85.0458L76.6775 82.4578L93.8926 77.7036L94.6073 80.2916ZM96.8575 79.6691L114.073 74.9149L113.358 72.3269L96.1428 77.0811L96.8575 79.6691ZM133.538 69.5397L116.323 74.2939L115.608 71.7063L132.823 66.9517L133.538 69.5397Z" fill="#CEDEE7"/>
<path fill-rule="evenodd" clip-rule="evenodd" d="M119.982 40.487C119.853 39.7329 119.491 39.0243 118.925 38.4728L118.167 37.7343L115.135 34.7801C114.847 34.4984 114.611 34.1758 114.432 33.8271L114.378 34.0416C114.056 35.3109 114.436 36.6558 115.374 37.5696L115.374 37.5704L118.519 40.6356C118.518 40.6357 118.516 40.6359 118.515 40.6364C119.372 41.5461 119.711 42.8344 119.402 44.0532L119.347 44.2677C119.169 43.9191 118.933 43.5964 118.644 43.3147L118.928 43.5917L116.37 41.099L114.028 38.8168L114.097 38.8834C113.807 38.6017 113.572 38.2791 113.393 37.9304L113.339 38.145C113.017 39.4142 113.397 40.7591 114.334 41.6732L114.335 41.6737L114.434 41.7698L116.608 43.8893L116.609 43.8895L117.367 44.6277C118.304 45.5419 118.684 46.887 118.363 48.1565L118.308 48.3712C118.13 48.0223 117.894 47.6996 117.605 47.4179L117.889 47.6948L113.815 43.7253L113.815 43.7248C113.443 43.3623 113.159 42.932 112.972 42.4657C110.135 44.0072 108.457 46.1522 108.965 47.9521C109.653 50.3881 114.083 51.2694 118.861 49.921C123.638 48.5721 126.953 45.504 126.266 43.068C125.758 41.268 123.206 40.3171 119.982 40.487Z" fill="#EC0000"/>
<path d="M51.6959 155.519L96.0137 148.744C100.935 147.99 104.315 143.395 103.562 138.477L85.4928 20.5498C84.7394 15.6332 80.139 12.2571 75.2159 13.0097L30.8995 19.7859C25.9763 20.5391 22.5974 25.1348 23.3513 30.0513L41.4198 147.979C42.173 152.897 46.7732 156.271 51.6959 155.519Z" fill="#9E3667"/>
<path d="M54.4185 155.105L98.7363 148.328C103.658 147.576 107.038 142.979 106.284 138.063L88.2159 20.1352C87.4621 15.2187 82.8616 11.8427 77.9394 12.5951L33.622 19.3719C28.6997 20.1239 25.32 24.7201 26.0739 29.6368L44.1425 147.564C44.8959 152.481 49.4967 155.857 54.4185 155.105Z" fill="white"/>
<path d="M26.8383 34.6462L43.5413 143.659C44.0604 147.048 48.2768 149.213 51.667 148.695L100.484 141.231C103.876 140.712 106.203 137.546 105.683 134.157L88.9804 25.1447C88.4608 21.7553 85.2933 19.4267 81.9004 19.9453L33.0843 27.4099C29.694 27.9281 26.3191 31.257 26.8383 34.6462Z" fill="white"/>
<path fill-rule="evenodd" clip-rule="evenodd" d="M44.3778 23.2918C43.5578 23.4173 42.7913 22.8547 42.6661 22.0357C42.5401 21.2161 43.1031 20.4508 43.9227 20.3253C44.7423 20.2004 45.509 20.7624 45.6347 21.5821C45.7601 22.401 45.1978 23.167 44.3778 23.2918ZM66.1989 19.2281C65.7718 19.2935 65.3726 19.0006 65.3069 18.5734C65.2415 18.1461 65.5344 17.7473 65.962 17.6818C66.3895 17.6165 66.7891 17.9096 66.854 18.3367C66.9202 18.7638 66.6264 19.1629 66.1989 19.2281ZM68.3086 18.1148C68.3744 18.5414 68.7735 18.8352 69.2002 18.7699C69.6282 18.7037 69.921 18.3055 69.8557 17.8783C69.7899 17.4511 69.3904 17.1581 68.9637 17.2235C68.5362 17.2888 68.2433 17.6878 68.3086 18.1148ZM60.034 19.8014L52.858 20.8983C52.63 20.9336 52.4171 20.7773 52.3824 20.5495C52.3477 20.3217 52.5042 20.1091 52.7322 20.0744L59.9082 18.9774C60.1353 18.9429 60.3482 19.0985 60.3837 19.3264C60.4184 19.554 60.2624 19.7668 60.034 19.8014Z" fill="#DEEDF2"/>
<path fill-rule="evenodd" clip-rule="evenodd" d="M51.7037 155.495L96.0215 148.72C100.943 147.966 104.323 143.37 103.569 138.453L85.5006 20.5258C84.7473 15.6093 80.1468 12.2332 75.2237 12.9858L30.9073 19.762C25.9841 20.5153 22.6052 25.1109 23.3591 30.0274L41.4276 147.955C42.1808 152.873 46.781 156.247 51.7037 155.495Z" fill="#9E3667"/>
<path fill-rule="evenodd" clip-rule="evenodd" d="M54.4263 155.079L98.7441 148.302C103.666 147.55 107.045 142.953 106.292 138.037L88.2237 20.1088C87.4699 15.1923 82.8695 11.8163 77.9472 12.5688L33.6298 19.3456C28.7075 20.0975 25.3278 24.6938 26.0818 29.6104L44.1503 147.538C44.9037 152.455 49.5046 155.831 54.4263 155.079Z" fill="white"/>
<path d="M26.8461 34.6218L43.5491 143.635C44.0682 147.023 48.2846 149.189 51.6749 148.671L100.492 141.206C103.884 140.687 106.21 137.521 105.691 134.132L88.9882 25.1203C88.4686 21.7309 85.3011 19.4022 81.9082 19.9209L33.0921 27.3854C29.7018 27.9037 26.3269 31.2326 26.8461 34.6218Z" fill="white"/>
<path fill-rule="evenodd" clip-rule="evenodd" d="M42.9961 140.025L43.5493 143.634C43.5782 143.815 43.6156 143.992 43.6649 144.165C44.5169 147.246 48.4671 149.162 51.6747 148.671L100.492 141.205C103.482 140.749 105.647 138.234 105.758 135.322C105.773 134.93 105.753 134.532 105.691 134.131L105.138 130.523L42.9961 140.025Z" fill="#CEDEE7"/>
<path d="M42.9961 140.023L43.5495 143.631C43.5784 143.813 43.6157 143.99 43.6646 144.163L43.6975 144.159L43.5512 143.207L105.627 133.719L105.138 130.523L42.9961 140.023Z" fill="#EC0000"/>
<path fill-rule="evenodd" clip-rule="evenodd" d="M60.4916 116.95L44.2578 119.431L46.7449 135.651L62.9787 133.171L60.4916 116.95ZM79.1279 114.099L62.895 116.58L65.3821 132.8L81.6145 130.32L79.1279 114.099ZM97.7615 111.25L81.5286 113.73L84.0149 129.951L100.249 127.471L97.7615 111.25Z" fill="#CEDEE7"/>
<path fill-rule="evenodd" clip-rule="evenodd" d="M44.3891 23.2664C43.5696 23.392 42.803 22.8293 42.6778 22.0103C42.5518 21.1907 43.1149 20.4254 43.9345 20.2999C44.754 20.175 45.5207 20.737 45.6465 21.5567C45.7718 22.3756 45.2096 23.1416 44.3891 23.2664ZM66.2106 19.2028C65.7835 19.2681 65.3844 18.9752 65.3186 18.548C65.2532 18.1208 65.5461 17.7218 65.9737 17.6564C66.4012 17.5911 66.8008 17.8842 66.8657 18.3113C66.9319 18.7385 66.6381 19.1375 66.2106 19.2028ZM68.3186 18.0895C68.3844 18.516 68.7835 18.8098 69.2101 18.7444C69.6381 18.6783 69.931 18.2801 69.8657 17.8529C69.7999 17.4257 69.4004 17.1327 68.9737 17.1981C68.5461 17.2634 68.2532 17.6624 68.3186 18.0895ZM60.0457 19.776L52.8697 20.8729C52.6417 20.9082 52.4288 20.7519 52.3941 20.5241C52.3595 20.2963 52.5159 20.0837 52.7439 20.049L59.9199 18.952C60.147 18.9175 60.3599 19.0731 60.395 19.301C60.4301 19.5286 60.2741 19.7414 60.0457 19.776Z" fill="#DEEDF2"/>
<path d="M26.85 34.6214L29.508 51.9695L91.6499 42.4682L88.9921 25.1199C88.4726 21.7305 85.305 19.4015 81.9121 19.9205L33.096 27.3851C29.7057 27.9033 26.3308 31.232 26.85 34.6214Z" fill="#EC0000"/>
<path fill-rule="evenodd" clip-rule="evenodd" d="M29.5 51.9652L38.59 111.326L100.73 101.826L96.6086 74.9079L95.2721 66.1741L91.6401 42.4668L81.5068 44.0174L80.2632 44.2097L77.6957 44.5976L77.5779 44.6148L29.5 51.9652Z" fill="#CEDEE7"/>
<path fill-rule="evenodd" clip-rule="evenodd" d="M48.3107 81.8336L45.3716 62.6265C45.2592 61.8909 45.7458 61.2025 46.4672 61.0603L46.5263 61.05L47.0716 60.9665C54.1818 59.8785 58.8165 57.4998 62.7134 53.7207L62.8765 53.8025C67.6227 56.154 72.6592 57.014 79.5663 55.9936L80.3507 55.874L80.4103 55.866C81.1205 55.7883 81.7743 56.2696 81.9134 56.9723L81.9241 57.0331L84.8632 76.2403C86.4534 86.6345 79.7947 96.4438 70.0023 99.326L69.7045 99.4114C59.3774 99.7456 49.9174 92.3327 48.3107 81.8336Z" fill="#34466B"/>
<path fill-rule="evenodd" clip-rule="evenodd" d="M78.0722 69.2442L65.1268 86.5464L54.9375 78.8922L57.5775 75.3775L64.2455 80.3864L74.5522 66.6108L78.0722 69.2442Z" fill="white"/>
</svg>
