<svg width="160" height="160" viewBox="0 0 160 160" fill="none" xmlns="http://www.w3.org/2000/svg">
<path fill-rule="evenodd" clip-rule="evenodd" d="M101.027 39.2457C100.441 39.0616 99.8532 38.8872 99.2644 38.7224C87.4153 35.4015 77.2528 28.2504 70.0448 18.6095C65.6701 12.7579 59.4339 8.17729 51.7797 5.776C31.731 -0.513891 9.67566 10.4287 2.35288 30.2997C-0.877279 39.0655 -0.67007 48.0927 2.29175 55.9829C4.82728 62.7379 4.83943 70.2626 2.12587 77.1719C2.09094 77.2612 2.05672 77.3504 2.02295 77.4392C-2.39799 89.1224 3.54173 101.516 15.3543 105.247C15.4218 105.268 15.4895 105.289 15.5571 105.31C18.7534 106.286 21.1622 108.791 21.9834 111.969C26.6653 130.094 40.2866 145.318 59.829 151.446C91.0545 161.236 125.645 144.045 137.013 113.086C148.389 82.1031 132.277 49.0439 101.027 39.2457Z" fill="#EAF7FE"/>
<path d="M68.0047 156.096L23.2882 149.26C18.3222 148.5 14.9124 143.862 15.6724 138.901L33.9045 19.9093C34.6645 14.9484 39.3063 11.5419 44.2738 12.3012L88.9888 19.1384C93.9563 19.8984 97.366 24.5355 96.6049 29.4964L78.3734 148.489C77.6133 153.45 72.9718 156.855 68.0047 156.096Z" fill="#9E3667"/>
<path d="M65.2547 155.678L20.5383 148.84C15.5723 148.081 12.1625 143.443 12.9223 138.482L31.1539 19.4903C31.9146 14.5295 36.5564 11.123 41.5231 11.8822L86.2393 18.72C91.2059 19.4788 94.616 24.1164 93.855 29.0775L75.6235 148.069C74.8633 153.031 70.2209 156.437 65.2547 155.678Z" fill="white"/>
<path d="M93.0852 34.1323L76.2313 144.129C75.7075 147.548 71.4531 149.733 68.0327 149.21L18.7759 141.679C15.3532 141.155 13.0063 137.961 13.5301 134.541L30.3838 24.5454C30.9078 21.1253 34.1041 18.7757 37.5275 19.299L86.7826 26.8307C90.2034 27.3536 93.609 30.7126 93.0852 34.1323Z" fill="white"/>
<path fill-rule="evenodd" clip-rule="evenodd" d="M75.3828 22.6757C76.2098 22.8024 76.9834 22.2346 77.1098 21.4083C77.2367 20.5813 76.669 19.8091 75.8421 19.6824C75.0147 19.5564 74.2411 20.1235 74.1142 20.9506C73.9877 21.7769 74.555 22.5498 75.3828 22.6757ZM53.3655 18.5754C53.796 18.6414 54.1991 18.3458 54.2651 17.9148C54.3314 17.4837 54.0355 17.0812 53.604 17.0151C53.1726 16.9492 52.7699 17.245 52.7044 17.676C52.6376 18.1069 52.9341 18.5095 53.3655 18.5754ZM51.2379 17.4521C51.172 17.8825 50.7688 18.179 50.3383 18.113C49.9069 18.0463 49.6109 17.6444 49.6773 17.2134C49.7432 16.7823 50.1464 16.4867 50.5769 16.5527C51.0083 16.6186 51.3043 17.0212 51.2379 17.4521ZM59.587 19.1539L66.8273 20.2606C67.0574 20.2962 67.2722 20.1385 67.3071 19.9086C67.3421 19.6788 67.1843 19.4643 66.9542 19.4293L59.7139 18.3224C59.4847 18.2875 59.2699 18.4446 59.2341 18.6745C59.1991 18.9042 59.356 19.1189 59.587 19.1539Z" fill="#DEEDF2"/>
<path fill-rule="evenodd" clip-rule="evenodd" d="M67.9972 156.072L23.2804 149.236C18.3144 148.475 14.9046 143.838 15.6646 138.876L33.8967 19.8849C34.6568 14.924 39.2986 11.5174 44.2658 12.2768L88.9813 19.114C93.9488 19.874 97.358 24.5111 96.5974 29.4719L78.3655 148.464C77.6058 153.426 72.9638 156.831 67.9972 156.072Z" fill="#9E3667"/>
<path fill-rule="evenodd" clip-rule="evenodd" d="M65.2511 155.651L20.5344 148.813C15.5684 148.055 12.1586 143.417 12.9184 138.456L31.15 19.464C31.9107 14.5031 36.5525 11.0966 41.5192 11.8558L86.2353 18.6937C91.2019 19.4524 94.612 24.0901 93.8514 29.0511L75.6194 148.043C74.8597 153.004 70.2169 156.411 65.2511 155.651Z" fill="white"/>
<path d="M93.0772 34.1079L76.2238 144.104C75.6996 147.523 71.4455 149.709 68.0247 149.186L18.7681 141.655C15.3453 141.131 12.9985 137.936 13.5223 134.516L30.376 24.521C30.9 21.1009 34.0963 18.7513 37.5197 19.2746L86.7751 26.8063C90.1959 27.3292 93.601 30.6882 93.0772 34.1079Z" fill="white"/>
<path fill-rule="evenodd" clip-rule="evenodd" d="M76.7843 140.463L76.2259 144.104C76.1968 144.287 76.1591 144.466 76.1098 144.64C75.2501 147.749 71.2642 149.682 68.0277 149.187L18.7712 141.654C15.754 141.193 13.57 138.656 13.458 135.717C13.4428 135.322 13.4626 134.921 13.5253 134.516L14.0831 130.875L76.7843 140.463Z" fill="#CEDEE7"/>
<path d="M76.7842 140.463L76.2259 144.104C76.1967 144.287 76.1591 144.466 76.1093 144.64L76.0765 144.636L76.2236 143.676L13.5898 134.1L14.083 130.875L76.7842 140.463Z" fill="#EC0000"/>
<path fill-rule="evenodd" clip-rule="evenodd" d="M59.1267 117.179L75.5065 119.682L72.9965 136.048L56.6171 133.546L59.1267 117.179ZM40.3243 114.302L56.7034 116.805L54.1938 133.172L37.8153 130.67L40.3243 114.302ZM21.5213 111.428L37.9003 113.931L35.3916 130.297L19.0117 127.795L21.5213 111.428Z" fill="#CEDEE7"/>
<path fill-rule="evenodd" clip-rule="evenodd" d="M75.3746 22.6503C76.202 22.777 76.9756 22.2092 77.1016 21.3829C77.2289 20.5558 76.6607 19.7837 75.8338 19.657C75.0068 19.531 74.2333 20.0981 74.1063 20.9251C73.9799 21.7515 74.5472 22.5244 75.3746 22.6503ZM53.3581 18.55C53.7886 18.616 54.1913 18.3204 54.2577 17.8894C54.3236 17.4583 54.0281 17.0558 53.5967 16.9897C53.1653 16.9238 52.7621 17.2196 52.6966 17.6506C52.6298 18.0815 52.9267 18.4841 53.3581 18.55ZM51.2304 17.4267C51.1641 17.8571 50.7613 18.1535 50.3304 18.0876C49.899 18.0208 49.6034 17.619 49.6694 17.188C49.7357 16.7569 50.1389 16.4613 50.5694 16.5273C51.0008 16.5931 51.2963 16.9959 51.2304 17.4267ZM59.5788 19.1285L66.8196 20.2352C67.0492 20.2708 67.264 20.1131 67.299 19.8833C67.334 19.6534 67.1761 19.4389 66.9465 19.4039L59.7057 18.297C59.4766 18.2622 59.2618 18.4192 59.2263 18.6491C59.1909 18.8788 59.3483 19.0936 59.5788 19.1285Z" fill="#DEEDF2"/>
<path d="M93.0784 34.107L90.3966 51.612L27.6953 42.0249L30.3773 24.5201C30.9014 21.1 34.0977 18.7501 37.5211 19.2737L86.7763 26.8054C90.1971 27.3283 93.6027 30.6871 93.0784 34.107Z" fill="#EC0000"/>
<path fill-rule="evenodd" clip-rule="evenodd" d="M86.5358 76.8271L23.8359 67.24L27.6924 42.0723L90.3916 51.6593L86.5358 76.8271Z" fill="#DEEDF2"/>
<path fill-rule="evenodd" clip-rule="evenodd" d="M83.245 63.3957C82.6261 67.4358 78.8452 70.2104 74.801 69.5916C70.7564 68.9731 67.9791 65.1967 68.598 61.1561C69.2177 57.116 72.9982 54.3418 77.0433 54.9603C81.0879 55.5782 83.8643 59.3556 83.245 63.3957Z" fill="#CEDEE7"/>
<path fill-rule="evenodd" clip-rule="evenodd" d="M65.3107 59.9365L31.7185 54.8008L31.5273 56.0475L65.1197 61.1836L65.3107 59.9365Z" fill="white"/>
<path fill-rule="evenodd" clip-rule="evenodd" d="M86.5548 76.7067L82.6985 101.874L20 92.2869L21.748 80.8742L22.3144 77.1709L23.8564 67.1196L34.081 68.6838L35.3356 68.8767L37.9259 69.2709L38.0448 69.2888L86.5548 76.7067Z" fill="#9BC3D3"/>
<path fill-rule="evenodd" clip-rule="evenodd" d="M79.3078 89.0756C78.6889 93.1157 74.908 95.8903 70.8634 95.2714C66.8192 94.6526 64.0419 90.8761 64.6604 86.836C65.2797 82.7958 69.0611 80.0217 73.1052 80.6392C77.1503 81.2581 79.9267 85.0354 79.3078 89.0756Z" fill="#DEEDF2"/>
<path fill-rule="evenodd" clip-rule="evenodd" d="M55.0185 84.173L31.9762 80.6499L31.7852 81.8975L54.8275 85.4201L55.0185 84.173Z" fill="#DEEDF2"/>
<rect x="45.1953" y="65.5312" width="114.805" height="44.8455" rx="8" fill="#9BC3D3"/>
<rect x="54.1641" y="74.5" width="96.8664" height="26.9073" rx="8" fill="white"/>
<rect x="124.414" y="97.3716" width="18.8351" height="1.79382" transform="rotate(-90 124.414 97.3716)" fill="#444444"/>
<rect x="60.7812" y="94.1499" width="12.5568" height="59.0903" transform="rotate(-90 60.7812 94.1499)" fill="#DEEDF2"/>
</svg>
