<svg width="160" height="161" viewBox="0 0 160 161" fill="none" xmlns="http://www.w3.org/2000/svg">
<g clip-path="url(#clip0_1483_77174)">
<path fill-rule="evenodd" clip-rule="evenodd" d="M119.701 80.3478C119.701 102.556 101.698 120.559 79.4902 120.559C57.2823 120.559 39.2793 102.556 39.2793 80.3478C39.2793 58.14 57.2823 40.137 79.4902 40.137C101.698 40.137 119.701 58.14 119.701 80.3478Z" fill="white"/>
<mask id="mask0_1483_77174" style="mask-type:luminance" maskUnits="userSpaceOnUse" x="39" y="40" width="81" height="81">
<path fill-rule="evenodd" clip-rule="evenodd" d="M119.701 80.3478C119.701 102.556 101.698 120.559 79.4902 120.559C57.2823 120.559 39.2793 102.556 39.2793 80.3478C39.2793 58.14 57.2823 40.137 79.4902 40.137C101.698 40.137 119.701 58.14 119.701 80.3478Z" fill="white"/>
</mask>
<g mask="url(#mask0_1483_77174)">
<path fill-rule="evenodd" clip-rule="evenodd" d="M68.3137 52.4378L38.1934 44.521V105.88H68.3137V52.4378Z" fill="#DEEDF2"/>
<path fill-rule="evenodd" clip-rule="evenodd" d="M85.1855 99.5024H124.038V55.7917H85.1855V99.5024Z" fill="#CEDEE7"/>
<path fill-rule="evenodd" clip-rule="evenodd" d="M37.7734 120.559H123.663V99.4851H37.7734V120.559Z" fill="#DEEDF2"/>
</g>
<g clip-path="url(#clip1_1483_77174)">
<g clip-path="url(#clip2_1483_77174)">
<path fill-rule="evenodd" clip-rule="evenodd" d="M92.9693 97.2728H105.486L109.843 108.724H110.536L106.195 96.2079L105.773 94.927H92.6826L92.2609 96.2085L87.9199 108.724H88.613L92.9693 97.2728Z" fill="#9BC3D3"/>
<path fill-rule="evenodd" clip-rule="evenodd" d="M113.876 85.0142L110.126 91.6992C108.865 93.9468 106.534 95.3309 104.013 95.3309H93.2793L102.77 78.4154C103.915 76.3736 106.032 75.116 108.323 75.116C113.259 75.116 116.344 80.615 113.876 85.0142Z" fill="white"/>
<path fill-rule="evenodd" clip-rule="evenodd" d="M92.717 95.3306H99.3726L104.281 86.5828H96.0536C94.7599 86.5828 93.5644 87.293 92.9176 88.4459L90.886 92.0674C90.0723 93.5176 91.0896 95.3306 92.717 95.3306Z" fill="white"/>
<path fill-rule="evenodd" clip-rule="evenodd" d="M97.7754 95.3306H104.018C106.539 95.3306 108.869 93.9463 110.13 91.6991L113.001 86.5828H104.774C103.48 86.5828 102.284 87.293 101.638 88.4459L97.7754 95.3306Z" fill="#DEEDF2"/>
</g>
</g>
<path fill-rule="evenodd" clip-rule="evenodd" d="M91.6914 72.5507H111.057V61.2332H91.6914V72.5507Z" fill="#9BC3D3"/>
</g>
<circle cx="80" cy="80.5635" r="80" fill="white"/>
<mask id="mask1_1483_77174" style="mask-type:luminance" maskUnits="userSpaceOnUse" x="0" y="0" width="160" height="161">
<circle cx="80" cy="80.5635" r="80" fill="white"/>
</mask>
<g mask="url(#mask1_1483_77174)">
<path fill-rule="evenodd" clip-rule="evenodd" d="M47.3395 73.5556H42.9533L41.2395 71.8563L41.5452 73.5556H40.9742L40.2804 71.569L40.8823 69.6016L44.0605 72.0602C44.2631 72.2172 44.5273 72.2873 44.7759 72.224C44.9901 72.1703 45.157 72.0284 44.9664 71.6778L45.3294 71.8734C45.6623 72.0523 46.0095 72.2049 46.3667 72.3287L47.2678 72.6406C47.6706 72.7795 47.7285 73.3343 47.3576 73.5453L47.3395 73.5556Z" fill="#2A8FEC"/>
<path fill-rule="evenodd" clip-rule="evenodd" d="M43.5615 67.8265V67.8262L41.1843 67.4185L41.0457 68.5226L39.7279 68.2966L39.3848 71.0288L42.772 73.5473L44.006 72.9327L42.977 71.9685C42.7831 71.7864 42.6154 71.5837 42.4754 71.3657L44.2285 72.6692L45.4625 72.0545L44.4335 71.0903C43.5467 70.2581 43.2084 68.9919 43.5615 67.8265Z" fill="#FFC4B8"/>
<path fill-rule="evenodd" clip-rule="evenodd" d="M45.8824 74.4335H41.4963L39.7824 72.7343L40.0882 74.4335H39.5171L38.8234 72.4469L39.4253 70.4795L42.6035 72.9381C42.806 73.0951 43.0703 73.1652 43.3188 73.102C43.5331 73.0483 43.7 72.9063 43.5094 72.5557L43.8724 72.7514C44.2052 72.9302 44.5525 73.0828 44.9096 73.2066L45.8108 73.5186C46.2135 73.6574 46.2715 74.2122 45.9006 74.4233L45.8824 74.4335Z" fill="#2A8FEC"/>
<path fill-rule="evenodd" clip-rule="evenodd" d="M47.0547 42.5835L46.1861 56.5821L43.5358 69.2564C43.2742 69.2643 40.7915 68.8012 40.7915 68.8012C40.7915 68.8012 41.4061 61.4951 41.6725 57.9571C41.752 56.896 41.6889 55.8299 41.4836 54.7859L39.1188 42.7371L47.0547 42.5835Z" fill="#137E84"/>
<path fill-rule="evenodd" clip-rule="evenodd" d="M45.5977 42.5835L44.7291 56.5821L42.0787 70.1346C41.8172 70.1424 39.3345 69.6793 39.3345 69.6793C39.3345 69.6793 39.9491 61.4951 40.2154 57.9571C40.295 56.896 40.2319 55.8299 40.0266 54.7859L37.6618 42.7371L45.5977 42.5835Z" fill="#1BB3BC"/>
<path fill-rule="evenodd" clip-rule="evenodd" d="M40.2848 19.7579C39.5521 19.2207 39.0762 18.3547 39.0762 17.3787C39.0762 15.7503 40.4011 14.4282 42.033 14.4282C43.5398 14.4282 44.7848 15.5554 44.9668 17.0101C44.9987 17.1617 45.0218 17.3149 45.0377 17.4681L45.0378 17.4684L45.0383 17.4717L45.0384 17.4729C45.0431 17.5188 45.0472 17.5646 45.0507 17.6103L45.2543 19.8871L44.7908 20.0419L44.786 20.043L44.7859 20.043C44.7744 20.0827 44.7681 20.1041 44.7681 20.1041L44.7555 20.4121L44.7327 20.9878C44.7248 21.1783 44.6849 21.3649 44.6154 21.5404C44.5668 21.6643 44.5026 21.7829 44.4242 21.8931C44.3321 22.0223 44.2221 22.1382 44.0993 22.2361C44.0353 22.2875 43.9673 22.3334 43.8962 22.3742C43.8586 22.3959 43.8211 22.4158 43.7821 22.4345L43.7819 22.4346L43.981 26.0309C43.981 26.0309 42.9289 26.3472 41.7769 26.0962C41.0805 25.9458 40.3469 25.5866 39.7873 24.8262C39.7873 24.8262 40.4497 21.9613 40.2848 19.7579Z" fill="#FFC4B8"/>
<path fill-rule="evenodd" clip-rule="evenodd" d="M41.7884 26.0536C41.092 25.9032 40.3584 25.544 39.7988 24.7836C39.7988 24.7836 40.5153 21.7139 40.2724 19.483C40.2724 19.483 41.9022 23.4479 41.7884 26.0536ZM44.7909 20.0548C44.6287 20.1023 44.4689 19.9751 44.4795 19.8069L44.5477 18.7224L44.7909 20.0548Z" fill="#F4A48D"/>
<g clip-path="url(#clip3_1483_77174)">
<path fill-rule="evenodd" clip-rule="evenodd" d="M41.8679 29.9873C38.4467 30.0638 34.9558 29.2699 34.9415 26.2907C34.9248 22.8054 37.1732 17.5601 37.9822 15.852C38.5444 14.665 40.2219 12.9825 42.8604 13.5392C43.2819 13.6282 43.8939 13.9471 44.1807 14.2402C44.1979 14.2578 44.2152 14.2749 44.2326 14.2916C45.4775 14.475 46.4766 15.4902 46.5798 16.7873C46.5908 16.9259 46.5912 17.063 46.5817 17.1977C46.6049 19.0196 46.6692 26.3633 46.2195 28.0332C45.9826 28.9129 43.3618 29.954 41.8679 29.9873ZM43.001 26.1192C43.3685 26.081 43.6981 26.0278 43.9783 25.9552L43.7793 22.359L43.7796 22.3588C43.8184 22.3402 43.856 22.3202 43.8936 22.2986C43.9646 22.2577 44.0326 22.2119 44.0966 22.1605C44.2195 22.0626 44.3295 21.9466 44.4216 21.8174C44.5 21.7073 44.5642 21.5887 44.6127 21.4648C44.6823 21.2893 44.7222 21.1026 44.73 20.9121L44.7528 20.3365L44.7654 20.0285C44.7654 20.0285 44.7718 20.007 44.7833 19.9674L44.7882 19.9663L45.2517 19.8115L45.0481 17.5346C45.0446 17.489 45.0405 17.4431 45.0358 17.3973L45.0357 17.3961L45.0351 17.3927V17.3925C45.0192 17.2392 44.9961 17.086 44.9642 16.9344C44.928 16.6455 44.85 16.3695 44.7363 16.1128C44.4757 15.7155 44.1553 15.3707 43.0154 15.3774C41.6127 15.3858 41.0913 16.1335 40.8624 16.6317C40.6525 17.0884 40.5771 17.6274 40.5771 17.6274L40.5767 17.6285L40.5624 17.7106L40.5602 17.7235L40.558 17.7359C40.312 17.4068 39.9759 17.2455 39.7534 17.3703C39.5413 17.4895 39.4984 17.8316 39.6284 18.1931C39.6471 18.2613 39.6725 18.3303 39.7048 18.3988L39.7104 18.4107L39.7121 18.414L39.7165 18.4231L39.718 18.4261L39.7239 18.4376L39.725 18.4397L39.7299 18.4493L39.7318 18.4528L39.7366 18.4619L39.7379 18.4643C39.8635 18.6958 40.0456 18.8623 40.2261 18.9274C40.2379 18.9334 40.2498 18.939 40.2616 18.9443C40.2616 18.9443 40.2847 19.6502 40.2912 19.7002C40.5393 21.6333 39.8457 24.4813 39.7944 24.761C40.298 25.4191 40.9551 25.8916 42.0781 26.0819C42.4159 26.1265 42.7422 26.1296 43.001 26.1192Z" fill="#34466B"/>
</g>
<path fill-rule="evenodd" clip-rule="evenodd" d="M39.8912 24.5496L40.5026 24.1577C41.6379 25.0885 42.8663 25.4792 44.2358 25.0511L46.7518 29.315V43.221H40.5026L39.3125 27.8676L39.8912 24.5496Z" fill="white"/>
<path fill-rule="evenodd" clip-rule="evenodd" d="M38.7335 24.9251L38.7336 24.925L39.6615 24.0026C39.8781 23.7874 40.2452 23.8653 40.3549 24.1498L43.0204 31.0567C43.1963 31.5126 43.28 31.9984 43.2669 32.4866L42.9732 43.4402C42.9558 44.0904 42.4068 44.6 41.7549 44.5713L36.2824 44.3297C35.6856 44.3034 35.2547 43.7504 35.3769 43.1676L36.227 39.1127L34.4719 38.9007C33.2564 38.7539 32.4508 37.571 32.7626 36.3909L35.161 27.3142C35.3968 26.4219 36.0816 25.7163 36.9684 25.4517L38.7336 24.925L38.7335 24.9251ZM47.2682 37.2761L46.9411 38.0564L48.6804 42.4945C48.9348 43.1435 48.5432 43.8647 47.859 44.0076L46.7025 44.249C46.2025 44.3535 45.7326 43.9731 45.7326 43.4639V36.6578L45.9016 33.3802L45.9607 32.2314C45.9812 31.834 45.9474 31.4356 45.8602 31.0472L45.0196 27.3034C44.9391 26.945 44.8065 26.6003 44.6261 26.2801L43.8624 24.925L47.1893 26.0495C47.8404 26.2696 48.2946 26.8586 48.3403 27.5423L48.6425 34.7822L50.8642 35.602L50.2124 36.9879C49.8705 37.7147 48.9944 38.0171 48.2748 37.6569L47.2682 37.2761ZM36.2012 35.7445L36.9373 35.7236L36.9954 35.4466L36.6531 33.8137L36.2012 35.7445Z" fill="#2A8FEC"/>
<path fill-rule="evenodd" clip-rule="evenodd" d="M48.2266 38.9832L53.3074 30.2019H50.0963L45.0156 38.9832H48.2266Z" fill="#DEEDF2"/>
<path fill-rule="evenodd" clip-rule="evenodd" d="M46.5586 38.385H44.44L43.9844 34.5623H47.0142L46.5586 38.385Z" fill="#2C9891"/>
<path fill-rule="evenodd" clip-rule="evenodd" d="M46.8251 34.3613H44.1746V34.0657H46.8251V34.3613ZM47.2265 34.6568H43.7734V34.3613H47.2265V34.6568Z" fill="#CEDEE7"/>
<path fill-rule="evenodd" clip-rule="evenodd" d="M47.1292 36.624C47.2526 36.624 47.3528 36.7237 47.3528 36.8468C47.3528 36.9541 47.2759 37.0461 47.1702 37.0658L45.8437 37.3123L46.6117 37.3712C46.7414 37.3811 46.8415 37.4889 46.8415 37.6185C46.8415 37.7518 46.7357 37.8613 46.602 37.8663L44.4991 37.9447C43.9564 37.9649 43.4132 37.922 42.8804 37.8168L42.3266 37.7074L37.7012 38.678L38.7259 36.1218L41.9302 35.77L44.1682 35.1581L45.4152 35.078C45.6401 35.0635 45.8659 35.0793 46.0866 35.1249L47.1559 35.3458C47.259 35.3671 47.3382 35.4497 47.3551 35.5533C47.3756 35.6804 47.2972 35.8026 47.1728 35.8373L46.7516 35.9548L47.267 36.0603C47.3839 36.0842 47.4679 36.1868 47.4679 36.3058C47.4679 36.406 47.4079 36.4966 47.3155 36.5361L47.1097 36.624H47.1292Z" fill="#FFC4B8"/>
<path fill-rule="evenodd" clip-rule="evenodd" d="M49.6992 36.1163L49.2364 35.42C49.1116 35.2275 49.1298 34.9734 49.286 34.8053C49.2987 34.7915 49.3095 34.7818 49.3171 34.7779H49.3172C49.2922 34.6277 49.3408 34.4748 49.4479 34.3664L49.5825 34.2301C49.5252 34.0749 49.5661 33.9006 49.6864 33.7868L49.869 33.6143C49.8508 33.5059 49.8942 33.3965 49.9817 33.3296L50.0317 33.2914C50.1248 33.2202 50.2511 33.21 50.3545 33.2653L50.8692 33.5407C51.0705 33.6484 51.2276 33.8232 51.313 34.0345L51.1847 33.263C51.1524 33.0689 51.2178 32.8715 51.3598 32.7347C51.4204 32.6764 51.5066 32.653 51.5886 32.6726C51.7128 32.7023 51.7936 32.8217 51.7747 32.9477L51.7405 33.1756L51.8457 33.4407C51.9373 33.6715 51.9615 33.9235 51.9155 34.1675L51.9007 34.2456C51.8704 34.4063 51.8212 34.5629 51.7542 34.7122C51.464 35.3583 51.0705 35.9533 50.5892 36.474L50.5886 36.4746C50.4635 36.6099 50.3032 36.7099 50.1243 36.7553C49.9237 36.8063 49.6375 36.8078 49.4159 36.6054L49.6992 36.1163Z" fill="#FFC4B8"/>
</g>
<defs>
<clipPath id="clip0_1483_77174">
<rect width="80.4218" height="80.4218" fill="white" transform="translate(39.2793 40.137)"/>
</clipPath>
<clipPath id="clip1_1483_77174">
<rect width="27.2449" height="34.3657" fill="white" transform="translate(87.9199 75.116)"/>
</clipPath>
<clipPath id="clip2_1483_77174">
<rect width="26.8237" height="33.6076" fill="white" transform="translate(87.9199 75.116)"/>
</clipPath>
<clipPath id="clip3_1483_77174">
<rect width="11.6573" height="16.5628" fill="white" transform="translate(34.9414 13.4294)"/>
</clipPath>
</defs>
</svg>
