<svg width="160" height="160" viewBox="0 0 160 160" fill="none" xmlns="http://www.w3.org/2000/svg">
<path fill-rule="evenodd" clip-rule="evenodd" d="M101.406 94.7631C83.3418 93.7959 64.3243 98.1659 54.683 101.483C48.9069 103.47 47.3202 107.118 41.2781 108.106C29.1432 110.088 0.649224 110.675 0.0858043 113.597C-1.02339 119.349 8.58977 122.423 30.7618 125.082C30.283 125.476 33.4623 132.674 51.3376 134.299C58.4107 134.942 70.2746 134.301 74.8245 132.896C81.8181 130.736 89.0823 129.574 96.4 129.409C122.427 128.819 142.837 125.864 143.076 121.396C143.156 119.902 141.653 117.832 139.299 116.628C137.833 115.878 139.986 115.246 140.486 115.065C146.628 112.855 150.073 110.387 150.199 108.427C150.592 102.278 127.922 96.183 101.406 94.7631Z" fill="#DEEDF2"/>
<path fill-rule="evenodd" clip-rule="evenodd" d="M8.25392 65.4688C10.2777 58.1836 3.84402 57.9025 3.70235 48.5154C3.64467 44.6762 5.74057 40.7661 10.7842 38.9723C13.263 38.0912 15.7334 37.4853 17.9389 36.0837C22.9649 32.8898 22.8741 26.8123 24.2454 21.6315C27.2562 10.2528 38.8446 1.2129 50.5747 1.50698C59.0307 1.71858 66.6757 1.97865 74.3848 9.18033C79.6599 14.1083 83.0882 20.1717 87.9855 25.2519C93.1719 30.6316 99.4917 33.2128 106.588 34.9414C113.299 36.576 120.6 38.5209 125.737 43.4228C130.564 48.0292 129.86 52.8472 127.791 58.5033C125.508 64.7403 130.457 68.9836 135.618 71.4125C139.963 73.4572 147.236 77.6165 147.474 85.2859C148.21 109.041 133.172 109.136 127.565 111.394C75.9879 132.164 56.1944 116.144 34.3247 116.468C12.5236 116.791 0.0263977 90.3365 0.783798 82.5459C1.42451 75.9514 3.91455 70.2591 8.25392 65.4688Z" fill="#DEEDF2"/>
<path fill-rule="evenodd" clip-rule="evenodd" d="M46.1402 123.287H37.5019L34.1265 119.933L34.7287 123.287H33.604L32.2376 119.366L33.4231 115.483L39.6824 120.335C40.0814 120.645 40.6018 120.784 41.0913 120.659C41.5132 120.553 41.8419 120.273 41.4666 119.581L42.1815 119.967C42.837 120.32 43.5209 120.621 44.2243 120.865L45.9991 121.481C46.7923 121.755 46.9064 122.85 46.1759 123.267L46.1402 123.287Z" fill="#EC0000"/>
<path fill-rule="evenodd" clip-rule="evenodd" d="M34.0249 111.175L38.7065 111.979V111.98C38.0112 114.28 38.6775 116.779 40.4239 118.422L42.4505 120.325L40.0202 121.538L36.5677 118.966C36.8433 119.396 37.1735 119.796 37.5553 120.155L39.5818 122.058L37.1516 123.271L30.4805 118.3L31.1562 112.908L33.7515 113.354L34.0249 111.175Z" fill="#FFC4B8"/>
<path fill-rule="evenodd" clip-rule="evenodd" d="M43.273 125.02H34.6347L31.2593 121.666L31.8615 125.02H30.7368L29.3705 121.099L30.5559 117.216L36.8152 122.069C37.2142 122.379 37.7346 122.517 38.2241 122.392C38.646 122.286 38.9748 122.006 38.5994 121.314L39.3143 121.7C39.9698 122.053 40.6537 122.354 41.3571 122.599L43.1319 123.214C43.9251 123.488 44.0392 124.583 43.3088 125L43.273 125.02Z" fill="#EC0000"/>
<path fill-rule="evenodd" clip-rule="evenodd" d="M45.582 62.1592L43.8714 89.7874L38.6517 114.802C38.1366 114.818 33.247 113.904 33.247 113.904C33.247 113.904 34.4574 99.4841 34.982 92.5011C35.1386 90.407 35.0144 88.3028 34.61 86.2425L29.9526 62.4623L45.582 62.1592Z" fill="#137E84"/>
<path fill-rule="evenodd" clip-rule="evenodd" d="M42.7109 62.1592L41.0003 89.7874L35.7806 116.535C35.2655 116.551 30.3759 115.637 30.3759 115.637C30.3759 115.637 31.5863 99.4841 32.1109 92.5011C32.2675 90.407 32.1433 88.3028 31.7389 86.2425L27.0816 62.4623L42.7109 62.1592Z" fill="#1BB3BC"/>
<path fill-rule="evenodd" clip-rule="evenodd" d="M32.7709 14.7923C31.3279 13.732 30.3906 12.023 30.3906 10.0967C30.3906 6.88283 32.9999 4.27344 36.2139 4.27344C39.1815 4.27344 41.6336 6.49807 41.9921 9.36916C42.0547 9.6683 42.1003 9.97073 42.1317 10.2731L42.1318 10.2736L42.1328 10.2803L42.133 10.2826C42.1423 10.3731 42.1503 10.4635 42.1572 10.5538L42.5582 15.0473L41.6453 15.3529L41.6358 15.355L41.6358 15.355C41.6131 15.4333 41.6005 15.4756 41.6005 15.4756L41.5757 16.0835L41.5309 17.2197C41.5154 17.5956 41.4368 17.964 41.2999 18.3104C41.2042 18.5549 41.0778 18.789 40.9233 19.0064C40.742 19.2614 40.5253 19.4902 40.2834 19.6835C40.1574 19.7849 40.0234 19.8754 39.8835 19.9559C39.8094 19.9987 39.7356 20.038 39.6588 20.0749L39.6583 20.0752L40.0505 27.1729C40.0505 27.1729 37.9785 27.7972 35.7095 27.3019C34.3381 27.0049 32.8933 26.296 31.7911 24.7953C31.7911 24.7953 33.0957 19.1411 32.7709 14.7923Z" fill="#FFC4B8"/>
<path fill-rule="evenodd" clip-rule="evenodd" d="M35.727 27.2185C34.3555 26.9215 32.9107 26.2126 31.8086 24.7119C31.8086 24.7119 33.2196 18.6533 32.7413 14.2503C32.7413 14.2503 35.9511 22.0756 35.727 27.2185ZM41.6423 15.3787C41.3228 15.4725 41.0081 15.2214 41.029 14.8894L41.1634 12.749L41.6423 15.3787Z" fill="#F4A48D"/>
<path fill-rule="evenodd" clip-rule="evenodd" d="M35.8877 35.0466C29.1498 35.1975 22.2746 33.6307 22.2463 27.7506C22.2135 20.8719 26.6417 10.5196 28.235 7.14855C29.3422 4.80571 32.646 1.48505 37.8424 2.58385C38.6725 2.75942 39.8778 3.38889 40.4427 3.9674C40.4766 4.00206 40.5106 4.03586 40.5449 4.06879C42.9966 4.43066 44.9644 6.43433 45.1677 8.9945C45.1893 9.26798 45.19 9.53852 45.1713 9.80438C45.2171 13.4003 45.3436 27.894 44.458 31.1898C43.9914 32.9261 38.8298 34.9807 35.8877 35.0466ZM38.1166 27.4119C38.8404 27.3365 39.4897 27.2317 40.0415 27.0884L39.6495 19.9906L39.65 19.9904C39.7266 19.9535 39.8006 19.9142 39.8746 19.8714C40.0145 19.7908 40.1484 19.7004 40.2744 19.5989C40.5164 19.4057 40.733 19.1769 40.9145 18.9218C41.0689 18.7045 41.1952 18.4704 41.2909 18.2259C41.4278 17.8795 41.5065 17.511 41.5219 17.1351L41.5668 15.999L41.5916 15.391C41.5916 15.391 41.6043 15.3488 41.6268 15.2706L41.6365 15.2683L42.5493 14.9628L42.1483 10.4692C42.1413 10.379 42.1334 10.2886 42.124 10.1981L42.1238 10.1957L42.1228 10.1891V10.1886C42.0914 9.88613 42.0459 9.5837 41.9831 9.28457C41.9119 8.71437 41.7582 8.16965 41.5342 7.66288C41.0211 6.87882 40.39 6.19822 38.145 6.21137C35.3825 6.22803 34.3557 7.70379 33.9048 8.68699C33.4914 9.58838 33.343 10.6522 33.343 10.6522L33.3421 10.6544L33.314 10.8165L33.3097 10.842L33.3053 10.8664C32.8209 10.2168 32.1589 9.89844 31.7206 10.1449C31.3029 10.3801 31.2184 11.0553 31.4744 11.7687C31.5113 11.9033 31.5612 12.0395 31.6248 12.1747L31.636 12.1981L31.6393 12.2047L31.648 12.2226L31.651 12.2286L31.6625 12.2513L31.6647 12.2555L31.6744 12.2744L31.6781 12.2813L31.6876 12.2992L31.6902 12.304C31.9376 12.7609 32.2961 13.0895 32.6516 13.2179C32.6749 13.2298 32.6982 13.2409 32.7215 13.2513C32.7215 13.2513 32.7671 14.6444 32.7797 14.7432C33.2684 18.5584 31.9024 24.1795 31.8015 24.7315C32.7933 26.0302 34.0874 26.9627 36.2991 27.3383C36.9644 27.4265 37.6069 27.4325 38.1166 27.4119Z" fill="#CEDEE7"/>
<path fill-rule="evenodd" clip-rule="evenodd" d="M31.9912 24.314L33.1954 23.5405C35.4314 25.3776 37.8506 26.1487 40.5477 25.3038L45.5029 33.7192V61.1646H33.1954L30.8516 30.8624L31.9912 24.314Z" fill="white"/>
<path fill-rule="evenodd" clip-rule="evenodd" d="M29.7163 25.055L29.7163 25.0548L31.5439 23.2344C31.9704 22.8096 32.6933 22.9633 32.9095 23.5248L38.1589 37.1567C38.5054 38.0564 38.6704 39.0153 38.6446 39.9788L38.066 61.5973C38.0317 62.8806 36.9506 63.8863 35.6667 63.8296L24.8888 63.3529C23.7135 63.3009 22.8649 62.2094 23.1055 61.0592L24.7797 53.0563L21.3232 52.6379C18.9292 52.3481 17.3427 50.0135 17.9568 47.6844L22.6804 29.7703C23.1447 28.0093 24.4933 26.6166 26.2399 26.0944L29.7163 25.0548L29.7163 25.055ZM46.5275 49.4311L45.8834 50.9711L49.3088 59.7304C49.8098 61.0113 49.0386 62.4348 47.6911 62.7167L45.4134 63.1933C44.4286 63.3994 43.5033 62.6487 43.5033 61.6437V48.2109L43.8361 41.742L43.9526 39.4747C43.9929 38.6903 43.9264 37.904 43.7546 37.1376L42.099 29.7486C41.9406 29.0413 41.6794 28.3609 41.3241 27.729L39.8199 25.0545L46.3722 27.2739C47.6545 27.7082 48.549 28.8708 48.6391 30.2202L49.2342 44.5091L53.6097 46.1272L52.326 48.8624C51.6526 50.2967 49.9273 50.8937 48.51 50.1827L46.5275 49.4311ZM24.728 46.4085L26.1777 46.3675L26.2921 45.8207L25.6179 42.5979L24.728 46.4085Z" fill="#EC0000"/>
<path fill-rule="evenodd" clip-rule="evenodd" d="M50.2329 47.461L57.0295 38.7954H52.734L45.9375 47.461H50.2329Z" fill="#CCCCCC"/>
<path fill-rule="evenodd" clip-rule="evenodd" d="M45.1244 51.6199H40.952L40.0547 44.0752H46.0217L45.1244 51.6199Z" fill="#008437"/>
<path fill-rule="evenodd" clip-rule="evenodd" d="M40.4307 43.0947H45.6508V43.6781H46.4412V44.2614H39.6406V43.6781H40.4307V43.0947Z" fill="#DEEDF2"/>
<path fill-rule="evenodd" clip-rule="evenodd" d="M46.2516 48.1446C46.4948 48.1446 46.692 48.3415 46.692 48.5843C46.692 48.7961 46.5407 48.9778 46.3324 49.0166L43.7199 49.503L45.2325 49.6192C45.488 49.6389 45.6851 49.8515 45.6851 50.1074C45.6851 50.3706 45.4767 50.5867 45.2133 50.5965L41.0718 50.7511C40.003 50.791 38.9332 50.7064 37.8839 50.4987L36.7933 50.2829L27.6836 52.1984L29.7017 47.1535L36.0125 46.4591L40.4202 45.2515L42.876 45.0933C43.319 45.0647 43.7637 45.0959 44.1984 45.1858L46.3043 45.6219C46.5074 45.664 46.6634 45.8269 46.6965 46.0314C46.7369 46.2822 46.5825 46.5234 46.3376 46.5918L45.5081 46.8239L46.523 47.032C46.7533 47.0792 46.9187 47.2817 46.9187 47.5165C46.9187 47.7144 46.8005 47.8933 46.6185 47.9712L46.2133 48.1446H46.2516ZM51.3144 47.1421L50.403 45.7678C50.1572 45.3879 50.1929 44.8865 50.5005 44.5547C50.5257 44.5274 50.5468 44.5084 50.5619 44.5006H50.5621C50.5129 44.2042 50.6085 43.9025 50.8194 43.6884L51.0846 43.4195C50.9718 43.1132 51.0522 42.7692 51.2891 42.5446L51.6487 42.204C51.613 41.9902 51.6985 41.7742 51.8708 41.6421L51.9692 41.5668C52.1526 41.4262 52.4014 41.4061 52.6049 41.5153L53.6186 42.0588C54.0151 42.2714 54.3245 42.6163 54.4928 43.0333L54.2399 41.5108C54.1763 41.1278 54.3053 40.738 54.5848 40.4681C54.7042 40.353 54.8741 40.3068 55.0354 40.3454C55.2802 40.4042 55.4393 40.6399 55.402 40.8884L55.3346 41.3383L55.5419 41.8614C55.7223 42.317 55.7699 42.8143 55.6793 43.2959L55.6502 43.4501C55.5906 43.7673 55.4937 44.0763 55.3616 44.3709C54.79 45.6462 54.0151 46.8205 53.0671 47.8481L53.0661 47.8493C52.8196 48.1164 52.504 48.3137 52.1515 48.4034C51.7565 48.5039 51.1929 48.5068 50.7565 48.1074L51.3144 47.1421Z" fill="#FFC4B8"/>
<path fill-rule="evenodd" clip-rule="evenodd" d="M5.80414 78.8396C5.39541 78.8703 4.98417 78.9414 4.57405 79.0561C1.24647 79.9885 -0.687243 83.4014 0.226188 86.734C0.866761 89.0715 2.74524 90.7287 4.95404 91.2024C5.51148 91.3218 6.01869 91.617 6.38836 92.052C7.95269 93.8961 10.5217 94.7443 12.9941 93.9882C16.2525 92.9919 18.1207 89.536 17.1729 86.2631C17.1637 86.2307 17.1542 86.1984 17.1442 86.166C16.8211 85.1147 17.2061 83.9829 18.0769 83.3116C20.0513 81.7894 21.0021 79.1632 20.2703 76.6216C19.3167 73.3116 15.839 71.3882 12.5288 72.3395C10.2976 72.9807 8.69983 74.7545 8.18035 76.8568C7.90637 77.9644 6.94216 78.7553 5.80414 78.8396Z" fill="#1BB3BC"/>
<path fill-rule="evenodd" clip-rule="evenodd" d="M29.0819 91.6615C28.4547 94.2313 26.3254 96.0398 23.8563 96.3796C22.7655 96.5305 21.869 97.3212 21.628 98.3956C21.6221 98.4271 21.6135 98.4606 21.6051 98.4941C21.3579 99.5158 20.8691 100.42 20.2101 101.159C19.9395 101.467 19.6374 101.748 19.3104 101.995C17.909 103.059 16.0735 103.531 14.2357 103.145C14.2064 103.139 14.1746 103.13 14.1437 103.123C11.691 102.568 9.91214 100.651 9.40883 98.3574C9.39404 98.2927 9.38149 98.2299 9.36893 98.1646C9.26598 97.6044 8.97025 97.0947 8.54617 96.715C6.86355 95.207 6.05642 92.8364 6.66045 90.4892C7.52254 87.1432 10.8956 85.1394 14.2463 85.9826C14.6595 86.0858 15.0515 86.2284 15.4231 86.4044C16.4512 86.8974 17.6824 86.6898 18.4692 85.8632C19.9646 84.2963 22.2323 83.5494 24.4855 84.101C27.8317 84.919 29.8957 88.3155 29.0819 91.6615Z" fill="#63BA68"/>
<path fill-rule="evenodd" clip-rule="evenodd" d="M21.5124 101.497L19.312 101.996L14.2376 103.145C14.2075 103.139 14.1765 103.131 14.145 103.124C11.6923 102.569 9.91346 100.651 9.41016 98.3579L20.2115 101.158L21.5124 101.497Z" fill="#008437"/>
<path fill-rule="evenodd" clip-rule="evenodd" d="M7.66797 101.182L12.1726 117.068H18.7762L23.2808 101.182H7.66797Z" fill="#F6C854"/>
<path fill-rule="evenodd" clip-rule="evenodd" d="M59.8445 40.5247C60.063 40.8183 60.2821 41.1 60.5013 41.37L60.785 41.1944C60.5693 40.9289 60.3535 40.6515 60.1381 40.362L59.8445 40.5247ZM61.354 42.3017C61.6017 42.5519 61.8487 42.7896 62.095 43.0152L62.3318 42.849C62.0905 42.6281 61.8483 42.395 61.6053 42.1494L61.354 42.3017ZM63.0535 44.157C63.3226 44.401 63.591 44.6279 63.8585 44.8383L64.066 44.6034C63.8059 44.3989 63.5444 44.178 63.2819 43.9399L63.0535 44.157ZM64.912 45.5561C65.2171 45.7695 65.521 45.9598 65.8229 46.1279L65.9829 45.8224C65.6923 45.6606 65.399 45.477 65.1039 45.2704L64.912 45.5561ZM67.1321 46.7509C67.21 46.7831 67.2875 46.8139 67.365 46.8435C67.6352 46.9467 67.9027 47.034 68.1667 47.1061L68.2342 46.7817C67.9825 46.7131 67.7273 46.6297 67.4689 46.5311C67.3948 46.5028 67.3205 46.4734 67.246 46.4425L67.1321 46.7509ZM69.7067 47.502C70.0624 47.555 70.4091 47.5823 70.7449 47.5858L70.6953 47.2888C70.3774 47.2853 70.0492 47.2598 69.7115 47.2093L69.7067 47.502ZM71.9317 47.6232C72.2936 47.5679 72.6404 47.486 72.9704 47.3806L72.8066 47.075C72.4943 47.1747 72.166 47.2524 71.8237 47.3046L71.9317 47.6232ZM74.1703 47.0505C74.4652 46.9265 74.7391 46.7827 74.9903 46.6218L74.7261 46.3847C74.4876 46.5374 74.2277 46.6739 73.9481 46.7915L74.1703 47.0505ZM75.8383 45.9313C76.0941 45.6669 76.3196 45.3852 76.5118 45.0899L76.137 44.8862C75.9551 45.1653 75.7415 45.4325 75.499 45.6831L75.8383 45.9313ZM77.1169 44.3982C77.1257 44.3756 77.1341 44.3529 77.1422 44.3303C77.2268 44.0937 77.2756 43.8478 77.2861 43.5947L76.8435 43.4861C76.8337 43.722 76.7882 43.9526 76.7087 44.1749C76.7011 44.1962 76.6932 44.2175 76.6849 44.2387L77.1169 44.3982ZM77.3297 42.5615C77.2638 42.2674 77.1521 41.9709 76.9912 41.6767L76.6417 41.7198C76.7891 41.9893 76.892 42.2616 76.9527 42.5332L77.3297 42.5615ZM76.3038 40.602C76.0918 40.3467 75.8398 40.099 75.5467 39.8631L75.3294 40.0445C75.6014 40.2632 75.833 40.4912 76.0274 40.7256L76.3038 40.602ZM74.4671 39.2117C74.1709 39.0396 73.8474 38.8773 73.4954 38.7267L73.3935 38.9735C73.7289 39.1172 74.0352 39.2709 74.3136 39.4327L74.4671 39.2117ZM72.3148 38.1092C71.9904 38.0058 71.647 37.9109 71.2842 37.8253L71.2581 38.0994C71.6102 38.1823 71.9422 38.2742 72.2546 38.3739L72.3148 38.1092ZM69.8944 37.6194C69.5077 37.6024 69.1618 37.6421 68.8595 37.7326L69.0624 37.9893C69.3266 37.9104 69.6273 37.8755 69.971 37.8904L69.8944 37.6194ZM67.7084 38.1073C67.4741 38.2791 67.2865 38.4913 67.1412 38.7372L67.5541 38.9188C67.6894 38.6896 67.8624 38.4957 68.0731 38.3413L67.7084 38.1073ZM66.6711 39.8533C66.6082 40.1037 66.5689 40.3727 66.5523 40.6574L66.9514 40.7487C66.9676 40.4738 67.0052 40.2156 67.0652 39.9771L66.6711 39.8533ZM66.5973 41.5289C66.5896 41.8717 66.5971 42.2256 66.6194 42.5881L67.0141 42.6024C66.9921 42.2481 66.9849 41.9031 66.9925 41.5697L66.5973 41.5289ZM66.5574 43.4843C66.6385 43.7661 66.7327 44.0537 66.8393 44.3454L67.2325 44.3627C67.128 44.0763 67.0355 43.7941 66.9561 43.5178L66.5574 43.4843ZM67.0853 45.4976C67.1899 45.7806 67.3043 46.0655 67.4283 46.3513L67.7784 46.3248C67.6565 46.0437 67.5439 45.7635 67.4411 45.4854L67.0853 45.4976ZM67.8039 47.5667C67.9653 47.8645 68.1365 48.1621 68.3168 48.4579L68.6841 48.41C68.5068 48.1191 68.3386 47.8266 68.1797 47.5338L67.8039 47.5667ZM68.6029 49.3112C68.7841 49.6084 68.9742 49.9021 69.1726 50.1912L69.5033 50.0965C69.3088 49.8131 69.1223 49.5249 68.9444 49.2333L68.6029 49.3112ZM69.9423 51.3346C70.1447 51.6295 70.3556 51.9171 70.5746 52.1957L70.8692 52.0435C70.6555 51.7718 70.4494 51.491 70.2514 51.2025L69.9423 51.3346ZM71.1792 52.8608C71.4202 53.111 71.669 53.3509 71.9258 53.5785L72.1574 53.4072C71.9095 53.1874 71.6683 52.9551 71.4343 52.712L71.1792 52.8608ZM73.2159 54.8037C73.4973 55.0269 73.7876 55.232 74.0864 55.4165L74.2544 55.1653C73.9701 54.9899 73.6928 54.7939 73.4228 54.5798L73.2159 54.8037ZM75.15 55.8597C75.2707 55.9142 75.3928 55.965 75.5159 56.0121C75.734 56.0953 75.9559 56.1667 76.1812 56.2253L76.2459 55.8971C76.0344 55.8421 75.826 55.775 75.6208 55.6967C75.5048 55.6524 75.3898 55.6046 75.2759 55.5531L75.15 55.8597ZM77.5443 56.6232C77.8888 56.6529 78.2396 56.654 78.5957 56.6246L78.5271 56.3098C78.1913 56.3378 77.8617 56.3365 77.5385 56.3086L77.5443 56.6232ZM79.8798 56.6598C80.2165 56.5945 80.5563 56.5055 80.8988 56.3913L80.7125 56.096C80.384 56.2056 80.0594 56.2906 79.7391 56.3527L79.8798 56.6598Z" fill="#34466B"/>
<path fill-rule="evenodd" clip-rule="evenodd" d="M98.9439 57.586L94.4079 49.8942C93.2735 47.5478 92.2596 45.1445 91.3965 42.6854C90.9742 41.4816 90.5877 40.2673 90.3774 39.3302C90.0892 38.0422 89.8751 36.753 89.8738 35.7485L89.8734 34.8789C89.8717 34.6765 89.8874 34.4783 89.9175 34.2833C90.1668 32.6727 91.4244 31.3709 93.0772 31.0958C94.6707 30.8323 96.2591 31.5996 97.045 33.01L98.2107 35.173L108.373 54.0148C119.068 68.2984 129.96 80.1133 141.84 90.7744L144.414 126.287L112.994 143.902L104.942 130.431C102.473 126.301 100.401 121.946 98.7525 117.426L94.4036 105.5L88.3088 93.5888L90.3587 75.9485C89.4709 75.7034 88.6661 75.1199 88.1647 74.2152C87.639 73.2664 87.5661 72.1321 87.9667 71.1244L89.7793 66.5582C90.2855 65.2835 90.9884 64.1052 91.8561 63.0632L91.8704 62.9401C93.9864 60.9136 96.5475 59.3554 98.9439 57.586Z" fill="#FFC4B8"/>
<path fill-rule="evenodd" clip-rule="evenodd" d="M90.3546 96.5705L90.2995 96.6015C88.7811 97.4772 86.8413 97.0224 85.8697 95.5604L80.8448 87.9941C79.8592 86.5109 80.0466 84.5407 81.2912 83.2677L81.938 82.6076C82.0936 82.4486 82.2589 82.3088 82.4323 82.1875C84.1254 80.999 86.5679 81.5686 87.5085 83.5266L90.9248 90.652L91.6925 92.2502C92.4449 93.819 91.8616 95.702 90.3546 96.5705Z" fill="#FFC4B8"/>
<path fill-rule="evenodd" clip-rule="evenodd" d="M121.366 119.105C120.743 120.183 120.205 121.388 119.814 122.721C119.747 122.946 119.558 123.055 119.37 123.055C119.164 123.055 118.959 122.924 118.917 122.671L118.137 117.911C118.137 117.911 116.757 118.072 114.766 118.072C109.614 118.072 100.369 116.99 100.354 109.226C100.352 108.424 95.644 108.895 94.4055 105.494L90.2553 97.3842L89.9448 96.7773L90.3021 96.5984L90.3572 96.5674C91.8642 95.6989 92.4474 93.8159 91.695 92.247L90.9274 90.6489L89.0965 86.8304L89.3355 84.7732L90.3614 75.9451L90.488 75.9753L90.6229 76.0105L90.7575 76.0291L90.8494 76.0446L90.9263 76.0523L91.0508 76.0695L91.1778 76.072L91.3381 76.0773L91.3683 76.0757L91.4826 76.0779L91.6706 76.0593L91.7341 76.0559L91.7776 76.0488L91.9133 76.0353L92.0687 76.001L92.1266 75.9915L92.183 75.9757L92.3378 75.9414L92.4626 75.8973L92.5116 75.8836L92.5796 75.8561L92.751 75.7956L92.8473 75.7477L92.8854 75.7322L92.9623 75.6902L93.1477 75.5978L93.2179 75.5509L93.2438 75.5367L93.3253 75.4792L93.5228 75.3473L93.5697 75.3065L93.5831 75.297L93.6597 75.2281L93.8714 75.0438L93.8981 75.0138L93.8992 75.0128L93.9221 74.9867L94.1882 74.687L99.1873 68.2793L103.387 66.9732L103.385 66.9677L103.387 66.9697L100.079 59.791C101.307 56.3202 104.048 54.3632 108.353 53.9697L108.375 54.0114C116.339 64.6465 124.411 73.9129 132.919 82.3511L136.58 89.7938C128.815 97.0968 123.29 107.382 121.366 119.105ZM90.564 90.672H90.4992C89.2639 90.6619 88.0545 90.0782 87.2877 89.0023L82.4336 82.1877H82.434C82.8193 81.9172 83.2433 81.7379 83.6799 81.6451C83.9117 81.5959 84.147 81.5709 84.3819 81.5701H84.4102C85.6659 81.5752 86.9019 82.2611 87.5102 83.5268L90.9265 90.6525C90.8057 90.6645 90.6849 90.6708 90.564 90.672Z" fill="#F4A48D"/>
<path fill-rule="evenodd" clip-rule="evenodd" d="M119.373 117.444L89.5369 112.879C86.2235 112.37 83.9483 109.273 84.4554 105.959L96.6204 26.4832C97.1276 23.1697 100.225 20.8945 103.539 21.4016L133.374 25.9683C136.689 26.4759 138.964 29.5731 138.456 32.8865L126.291 112.363C125.784 115.677 122.687 117.951 119.373 117.444Z" fill="#9E3667"/>
<path fill-rule="evenodd" clip-rule="evenodd" d="M117.537 117.164L87.701 112.597C84.3876 112.091 82.1125 108.992 82.6194 105.679L94.784 26.2029C95.2916 22.8895 98.3888 20.6142 101.703 21.1213L131.538 25.6884C134.852 26.1951 137.128 29.2927 136.62 32.6062L124.455 112.082C123.948 115.396 120.851 117.671 117.537 117.164Z" fill="white"/>
<path fill-rule="evenodd" clip-rule="evenodd" d="M136.105 35.9827L124.859 109.451C124.51 111.735 121.671 113.194 119.389 112.845L86.5233 107.815C84.2396 107.465 82.6737 105.331 83.0233 103.047L94.2685 29.5795C94.6181 27.2952 96.7508 25.7258 99.035 26.0754L131.9 31.1059C134.182 31.4552 136.454 33.6986 136.105 35.9827Z" fill="white"/>
<path fill-rule="evenodd" clip-rule="evenodd" d="M125.458 27.4786C125.381 28.033 124.865 28.4163 124.305 28.3343C123.746 28.2527 123.356 27.7364 123.433 27.182C123.51 26.6271 124.026 26.2442 124.586 26.3258C125.145 26.4079 125.535 26.9236 125.458 27.4786ZM110.21 25.1482C110.17 25.4375 109.901 25.637 109.61 25.5943C109.318 25.5516 109.114 25.2827 109.155 24.9935C109.195 24.7043 109.464 24.5047 109.756 24.5474C110.047 24.5902 110.251 24.859 110.21 25.1482ZM108.191 24.8386C108.151 25.1274 107.882 25.3275 107.591 25.2848C107.299 25.2415 107.095 24.9731 107.136 24.6839C107.176 24.3947 107.445 24.1951 107.736 24.2378C108.028 24.2805 108.231 24.5495 108.191 24.8386ZM118.603 26.7185L113.758 26.0019C113.604 25.9793 113.495 25.8308 113.514 25.6704C113.534 25.5099 113.674 25.3988 113.827 25.4214L118.672 26.1381C118.826 26.1607 118.935 26.309 118.916 26.4695C118.897 26.63 118.757 26.7416 118.603 26.7185Z" fill="#DEEDF2"/>
<path fill-rule="evenodd" clip-rule="evenodd" d="M119.365 117.427L89.5291 112.861C86.2157 112.353 83.9405 109.256 84.4476 105.942L96.6126 26.4656C97.1198 23.1521 100.217 20.8769 103.531 21.3841L133.367 25.9507C136.681 26.4583 138.956 29.5555 138.448 32.8689L126.284 112.346C125.776 115.659 122.679 117.934 119.365 117.427Z" fill="#9E3667"/>
<path fill-rule="evenodd" clip-rule="evenodd" d="M117.529 117.147L87.6932 112.58C84.3798 112.073 82.1047 108.975 82.6116 105.662L94.7762 26.1853C95.2838 22.8719 98.3809 20.5966 101.695 21.1037L131.531 25.6708C134.845 26.1776 137.12 29.2751 136.612 32.5887L124.448 112.065C123.941 115.379 120.843 117.654 117.529 117.147Z" fill="white"/>
<path fill-rule="evenodd" clip-rule="evenodd" d="M136.097 35.9652L124.852 109.433C124.502 111.717 121.663 113.177 119.381 112.828L86.5155 107.797C84.2318 107.447 82.6659 105.314 83.0154 103.029L94.2607 29.5619C94.6103 27.2776 96.743 25.7083 99.0272 26.0578L131.892 31.0883C134.174 31.4376 136.446 33.6811 136.097 35.9652Z" fill="white"/>
<path fill-rule="evenodd" clip-rule="evenodd" d="M125.223 107.001L124.85 109.433C124.831 109.555 124.806 109.675 124.773 109.791C124.199 111.867 121.54 113.159 119.38 112.828L86.5148 107.797C84.5016 107.489 83.0444 105.794 82.9697 103.831C82.9595 103.567 82.9727 103.299 83.0146 103.029L83.3867 100.597L125.223 107.001Z" fill="#DEEDF2"/>
<path fill-rule="evenodd" clip-rule="evenodd" d="M125.223 107.001L124.85 109.433C124.831 109.555 124.806 109.675 124.773 109.791L124.75 109.788L124.849 109.147L83.0577 102.751L83.3867 100.597L125.223 107.001Z" fill="#EC0000"/>
<path fill-rule="evenodd" clip-rule="evenodd" d="M113.298 91.4491L124.371 93.0707L122.84 104.052L111.767 102.431L113.298 91.4491ZM100.756 89.5286L111.828 91.1502L110.298 102.132L99.2257 100.511L100.756 89.5286ZM88.2085 87.6082L99.281 89.2298L97.7509 100.211L86.6779 98.5902L88.2085 87.6082Z" fill="#DEEDF2"/>
<path fill-rule="evenodd" clip-rule="evenodd" d="M125.45 27.4615C125.373 28.0159 124.857 28.3992 124.298 28.3172C123.738 28.2356 123.348 27.7194 123.425 27.1649C123.502 26.61 124.019 26.2271 124.578 26.3087C125.137 26.3908 125.528 26.9066 125.45 27.4615ZM110.202 25.1311C110.162 25.4204 109.893 25.6199 109.602 25.5772C109.31 25.5345 109.106 25.2656 109.147 24.9764C109.187 24.6873 109.456 24.4876 109.748 24.5303C110.039 24.5731 110.243 24.8419 110.202 25.1311ZM108.183 24.8215C108.143 25.1103 107.874 25.3104 107.583 25.2677C107.291 25.2244 107.088 24.956 107.128 24.6668C107.168 24.3776 107.437 24.178 107.728 24.2207C108.02 24.2634 108.224 24.5324 108.183 24.8215ZM118.595 26.7014L113.75 25.9848C113.596 25.9622 113.487 25.8137 113.506 25.6533C113.526 25.4928 113.666 25.3817 113.819 25.4043L118.664 26.121C118.818 26.1436 118.927 26.2919 118.908 26.4524C118.889 26.6129 118.749 26.7245 118.595 26.7014Z" fill="#DEEDF2"/>
<path fill-rule="evenodd" clip-rule="evenodd" d="M136.098 35.9652L134.308 47.657L92.4724 41.2537L94.262 29.562C94.6116 27.2777 96.7443 25.7081 99.0285 26.0579L131.893 31.0884C134.175 31.4377 136.448 33.681 136.098 35.9652Z" fill="#EC0000"/>
<path fill-rule="evenodd" clip-rule="evenodd" d="M96.8476 38.874L119.293 42.2334L119.197 43.1378L96.752 39.7785L96.8476 38.874ZM97.0734 37.4554L104.891 38.6115L104.786 39.4818L96.9682 38.3257L97.0734 37.4554Z" fill="#CC0000"/>
<path fill-rule="evenodd" clip-rule="evenodd" d="M131.732 64.4988L89.8965 58.0955L92.4696 41.2858L134.304 47.6891L131.732 64.4988Z" fill="#DEEDF2"/>
<path fill-rule="evenodd" clip-rule="evenodd" d="M117.57 53.2184L95.1564 49.7881L95.0288 50.6207L117.443 54.0515L117.57 53.2184Z" fill="white"/>
<path fill-rule="evenodd" clip-rule="evenodd" d="M131.746 64.4172L129.173 81.227L87.3386 74.8233L88.5049 67.2006L88.8828 64.7273L89.9117 58.0139L96.7338 59.0586L97.5709 59.1874L99.2993 59.4506L99.3786 59.4626L131.746 64.4172Z" fill="#9BC3D3"/>
<path fill-rule="evenodd" clip-rule="evenodd" d="M110.699 69.4037L95.3242 67.0508L95.1967 67.8839L110.571 70.2368L110.699 69.4037Z" fill="white"/>
<path fill-rule="evenodd" clip-rule="evenodd" d="M98.0136 63.6966C95.4237 65.5763 91.7536 66.4944 88.6428 66.4836L88.9986 64.2357L89.9657 58.1354L96.1646 59.1187L99.3588 59.9209L101.424 60.2472L101.489 60.1566L101.518 60.2626L102.824 64.9412L98.014 63.6966L98.0136 63.6966Z" fill="#34466B"/>
<path fill-rule="evenodd" clip-rule="evenodd" d="M99.1425 62.8119C93.458 64.8932 86.9357 62.6336 83.8361 57.1997C80.3795 51.1381 82.4908 43.4216 88.5524 39.9649C94.6141 36.508 102.33 38.6192 105.787 44.6805C108.886 50.1151 107.51 56.879 102.824 60.712L102.805 64.9557L99.1425 62.8119Z" fill="white"/>
<path fill-rule="evenodd" clip-rule="evenodd" d="M84.421 71.3174L83.5542 72.0004C81.8823 73.3183 81.36 75.6255 82.3002 77.5348L87.0942 87.2705C88.0204 89.1523 90.2493 89.9899 92.1857 89.1849L92.2543 89.1565C94.1738 88.3583 95.1543 86.2155 94.5026 84.2413L90.8808 73.2614C89.9856 70.5476 86.6656 69.5485 84.421 71.3174Z" fill="#FFC4B8"/>
<path fill-rule="evenodd" clip-rule="evenodd" d="M121.264 136.808L120.702 135.647C120.081 134.366 119.642 133.014 119.395 131.625C119.144 130.238 119.085 128.818 119.222 127.399C119.833 121.045 121.345 114.839 123.687 108.959C125.69 103.938 128.296 99.1559 131.472 94.7231L132.117 93.821C133.598 91.7507 134.211 89.184 133.825 86.6673L133.451 84.2464C132.984 81.2015 132.92 78.1096 133.265 75.0485C133.265 75.0485 133.903 65.5256 137.606 59.1466C138.121 58.2615 138.932 57.6202 139.826 57.2145C140.722 56.8085 141.731 56.658 142.744 56.8148C143.142 56.8763 143.501 57.0323 143.803 57.2595C144.443 57.7351 144.827 58.5219 144.755 59.3693L144.057 67.6896L144.039 67.905L147.975 93.6756C148.437 96.7006 148.409 99.7777 147.894 102.793L145.964 118.739L144.338 132.149L144.339 132.15L153.607 148.203L160.006 159.289H121.882L113.087 144.055L112.941 143.802L112.605 143.22L121.014 136.993L121.263 136.808L121.264 136.808Z" fill="#FFC4B8"/>
<path fill-rule="evenodd" clip-rule="evenodd" d="M97.5668 49.7526C97.6368 49.0852 97.5032 48.4009 97.1648 47.8001L96.712 46.9959L94.9005 43.7788C94.7281 43.4721 94.6088 43.1438 94.543 42.8066L94.4481 42.975V42.9746C93.8877 43.9699 93.8873 45.1957 94.4477 46.191L94.4481 46.1917L96.327 49.5295L96.3236 49.5291C96.8186 50.5017 96.7971 51.67 96.2588 52.6256L96.164 52.794C96.0982 52.4569 95.9792 52.1282 95.8065 51.8218L95.9759 52.1232L94.4481 49.4085L93.0484 46.9235L93.0894 46.9959C92.917 46.6892 92.7977 46.3606 92.7314 46.0234L92.6366 46.1917C92.0762 47.1867 92.0762 48.4128 92.6362 49.4081L92.6366 49.4085L92.6953 49.5133L93.995 51.8215L93.9953 51.8218L94.4481 52.6256C95.0082 53.621 95.0082 54.8475 94.4481 55.8428L94.3533 56.0112C94.287 55.674 94.1677 55.3453 93.995 55.0386L94.1651 55.3399L91.731 51.0173L91.7303 51.0169C91.5086 50.6219 91.375 50.1911 91.3291 49.7526C88.6315 50.3776 86.75 51.7891 86.75 53.4298C86.75 55.6509 90.1961 57.4515 94.4481 57.4515C98.6993 57.4515 102.146 55.6509 102.146 53.4298C102.146 51.7891 100.264 50.378 97.5668 49.7526Z" fill="#EC0000"/>
<path fill-rule="evenodd" clip-rule="evenodd" d="M71.1591 34.6369L81.0713 40.3803L69.6369 31.2483L71.1591 34.6369Z" fill="#EC0000"/>
<path fill-rule="evenodd" clip-rule="evenodd" d="M67.2904 38.867L81.0465 40.3528L68.2729 37.654L67.2904 38.867Z" fill="#990000"/>
<path fill-rule="evenodd" clip-rule="evenodd" d="M69.669 31.2712L70.4422 34.6757L69.8015 35.4666L70.8867 35.0356L81.1025 40.4042L71.2057 34.6418L69.669 31.2712Z" fill="#990000"/>
<path fill-rule="evenodd" clip-rule="evenodd" d="M81.0892 40.3806L65.3994 37.1539L70.8165 34.992L81.0892 40.3806Z" fill="#EC0000"/>
<path fill-rule="evenodd" clip-rule="evenodd" d="M75.8259 35.564C75.8442 35.51 75.8275 35.4521 75.7764 35.3904C75.7252 35.3287 75.648 35.2556 75.549 35.1732C75.4991 35.3186 75.4742 35.3913 75.4244 35.5367C75.534 35.5975 75.6252 35.6314 75.6945 35.6369C75.7639 35.6424 75.8077 35.6181 75.8259 35.564ZM75.3385 34.5432C75.3203 34.5942 75.3318 34.6466 75.3731 34.7007C75.4143 34.7546 75.4835 34.821 75.5776 34.8978C75.6275 34.7533 75.6524 34.681 75.7023 34.5365C75.5993 34.4826 75.5165 34.4566 75.4565 34.4598C75.3965 34.4632 75.3571 34.4909 75.3385 34.5432ZM76.1815 34.9668C76.1699 34.946 76.1514 34.9202 76.1257 34.8894C76.1001 34.8587 76.0695 34.8259 76.034 34.791C75.9984 34.7562 75.9583 34.721 75.9137 34.6854C75.869 34.6499 75.8223 34.6172 75.7742 34.5877L75.6425 34.9654C75.6609 34.9791 75.6702 34.986 75.6886 34.9997C75.7752 35.0666 75.856 35.1324 75.9252 35.1938C75.9945 35.2553 76.0506 35.3144 76.0935 35.3712C76.1363 35.428 76.1654 35.4849 76.1805 35.5416C76.1954 35.5983 76.1931 35.6561 76.1732 35.7148C76.1513 35.7797 76.1159 35.8261 76.067 35.8538C76.0182 35.8815 75.9588 35.8945 75.8895 35.8927C75.8201 35.8908 75.7435 35.8759 75.6599 35.8478C75.5764 35.8197 75.4889 35.7809 75.4 35.7328C75.3733 35.8095 75.36 35.8478 75.3333 35.9246C75.2789 35.8942 75.2516 35.879 75.1973 35.8485C75.2248 35.7706 75.2385 35.7316 75.2659 35.6535C75.1433 35.5776 75.0262 35.4914 74.9216 35.3993C74.8169 35.3071 74.7265 35.2097 74.6501 35.1072C74.73 35.0676 74.7699 35.0478 74.8493 35.0082C74.8633 35.0333 74.8856 35.0644 74.9163 35.1017C74.9469 35.1389 74.984 35.179 75.0276 35.222C75.071 35.265 75.12 35.3091 75.1747 35.3541C75.2293 35.3991 75.2877 35.4419 75.3482 35.4815C75.4012 35.3306 75.4278 35.2552 75.4808 35.1043C75.4714 35.0961 75.4613 35.088 75.4509 35.08C75.4404 35.072 75.4304 35.0639 75.4209 35.0556C75.3345 34.9872 75.2605 34.9246 75.1987 34.8678C75.1369 34.8109 75.0882 34.7568 75.0528 34.7055C75.0175 34.6542 74.9947 34.6043 74.9845 34.5561C74.9743 34.5078 74.9788 34.4585 74.9976 34.4081C75.0195 34.3493 75.0537 34.3051 75.0999 34.2754C75.1462 34.2458 75.2019 34.229 75.2671 34.225C75.3322 34.2212 75.4035 34.2294 75.481 34.2498C75.5585 34.2702 75.641 34.3018 75.7269 34.3436C75.7527 34.27 75.7656 34.2332 75.7916 34.1596C75.8439 34.1885 75.87 34.203 75.9223 34.2318C75.8966 34.3056 75.8838 34.3425 75.8581 34.4163C75.9657 34.4816 76.0662 34.556 76.1524 34.6353C76.2385 34.7146 76.3116 34.7931 76.3717 34.8708C76.2958 34.9094 76.2577 34.9285 76.1815 34.9668Z" fill="white"/>
<path fill-rule="evenodd" clip-rule="evenodd" d="M77.1137 36.0585C77.0545 36.2203 77.1398 36.4172 77.3078 36.4867C77.4757 36.5562 77.6624 36.4712 77.721 36.3095C77.7795 36.1478 77.688 35.9703 77.5206 35.9007C77.3533 35.831 77.1728 35.8966 77.1137 36.0585Z" fill="white"/>
<path fill-rule="evenodd" clip-rule="evenodd" d="M73.5874 33.8522C73.5182 34.0072 73.3295 34.0675 73.1627 33.9992C72.9957 33.931 72.9136 33.7611 72.9827 33.606C73.0518 33.4509 73.2467 33.37 73.4136 33.4383C73.5805 33.5065 73.6566 33.6971 73.5874 33.8522Z" fill="white"/>
<path fill-rule="evenodd" clip-rule="evenodd" d="M71.0881 36.7368C74.1698 36.4459 75.9412 39.8509 79.0585 39.7964L80.476 36.1037C77.3784 36.0718 75.6228 33.0847 72.5056 33.0442L71.0881 36.7368Z" fill="#63BA68"/>
<path fill-rule="evenodd" clip-rule="evenodd" d="M72.762 34.5241C73.1173 34.552 73.5785 34.2253 73.7044 33.9014C74.4393 34.1017 75.0748 34.479 75.7181 34.8792C75.2924 34.9073 74.884 35.2475 74.6758 35.77C74.4998 36.2116 74.5264 36.8777 74.7603 37.3028C74.1222 36.9051 73.4916 36.5243 72.7604 36.3304C72.8863 36.0065 72.6589 35.7418 72.3144 35.7208C72.4934 35.2421 72.5829 35.0028 72.762 34.5241ZM77.8354 39.2029C77.0946 38.9513 76.4622 38.6202 75.7958 38.207C76.191 38.1648 76.5443 37.8226 76.7142 37.3241C76.8764 36.849 76.8141 36.1538 76.5574 35.7128C77.2272 36.1354 77.8622 36.4779 78.6082 36.7397C78.5051 37.0681 78.6811 37.5727 79.0282 37.607C78.8758 38.0873 78.7996 38.3275 78.6472 38.8078C78.3039 38.7758 77.9384 38.8745 77.8354 39.2029ZM71.5131 36.6637C74.3235 36.6908 76.0434 39.5643 78.8594 39.7293C79.2112 38.6098 79.5631 37.4904 79.9149 36.371C77.1569 36.1468 75.4286 33.5574 72.6609 33.3548C72.1508 34.8254 71.7681 35.9284 71.5131 36.6637Z" fill="#008437"/>
<path fill-rule="evenodd" clip-rule="evenodd" d="M67.5898 104.741C67.5898 109.673 71.5468 113.672 76.4279 113.672C81.309 113.672 85.266 109.673 85.266 104.741C85.266 99.8082 81.309 95.8096 76.4279 95.8096C71.5468 95.8096 67.5898 99.8082 67.5898 104.741Z" fill="#D39E00"/>
<path fill-rule="evenodd" clip-rule="evenodd" d="M68.6836 104.741C68.6836 109.673 72.641 113.672 77.5216 113.672C78.3264 113.672 79.1064 113.564 79.847 113.359C83.6004 112.328 86.3595 108.86 86.3595 104.741C86.3595 99.8087 82.4029 95.8096 77.5216 95.8096C75.0948 95.8096 72.8962 96.7986 71.2989 98.4001C69.684 100.018 68.6836 102.262 68.6836 104.741Z" fill="#FFE99F"/>
<path fill-rule="evenodd" clip-rule="evenodd" d="M68.6836 104.741C68.6836 109.673 72.641 113.672 77.5216 113.672C78.3264 113.672 79.1064 113.563 79.847 113.359L71.2989 98.3999C69.684 100.018 68.6836 102.261 68.6836 104.741Z" fill="#F6C854"/>
<path fill-rule="evenodd" clip-rule="evenodd" d="M80.3594 112.626C80.3594 117.558 84.3163 121.557 89.1974 121.557C94.0786 121.557 98.0355 117.558 98.0355 112.626C98.0355 107.693 94.0786 103.695 89.1974 103.695C84.3163 103.695 80.3594 107.693 80.3594 112.626Z" fill="#D39E00"/>
<path fill-rule="evenodd" clip-rule="evenodd" d="M81.4531 112.627C81.4531 117.558 85.4106 121.558 90.2911 121.558C91.0959 121.558 91.876 121.449 92.6166 121.244C96.3699 120.213 99.1291 116.745 99.1291 112.627C99.1291 107.694 95.1724 103.695 90.2911 103.695C87.8644 103.695 85.6657 104.684 84.0685 106.285C82.4535 107.903 81.4531 110.147 81.4531 112.627Z" fill="#FFE99F"/>
<path fill-rule="evenodd" clip-rule="evenodd" d="M81.4531 112.626C81.4531 117.558 85.4106 121.557 90.2911 121.557C91.0959 121.557 91.876 121.449 92.6166 121.244L84.0685 106.285C82.4535 107.903 81.4531 110.147 81.4531 112.626Z" fill="#F6C854"/>
</svg>
