<svg width="160" height="160" viewBox="0 0 160 160" fill="none" xmlns="http://www.w3.org/2000/svg">
<path fill-rule="evenodd" clip-rule="evenodd" d="M82.074 156.679C81.453 156.686 80.8321 156.687 80.2111 156.68L80.0878 156.679L80.0957 156.037C80.6693 156.044 81.2444 156.045 81.8195 156.04L82.0661 156.037C82.0683 156.251 82.0711 156.465 82.074 156.679ZM86.04 156.531C85.4197 156.57 84.7988 156.601 84.1778 156.625L84.0573 156.63L84.033 155.989C84.6697 155.964 85.3071 155.933 85.9446 155.894L85.9998 155.89C86.0127 156.104 86.0263 156.317 86.04 156.531ZM76.2416 155.895C76.8382 155.932 77.4354 155.961 78.0327 155.985L78.1217 155.988L78.0973 156.63C77.4648 156.606 76.8331 156.574 76.2021 156.536L76.1154 156.531L76.1555 155.89C76.1842 155.892 76.2129 155.894 76.2416 155.895ZM89.9937 156.184C89.3757 156.254 88.7561 156.316 88.1366 156.372L88.019 156.382L87.9624 155.743C88.5905 155.688 89.2186 155.625 89.846 155.555L89.922 155.546C89.9457 155.759 89.9701 155.971 89.9937 156.184ZM72.3394 155.557C72.9274 155.623 73.5168 155.682 74.1062 155.735L74.1923 155.742L74.1356 156.382C73.5118 156.327 72.8894 156.264 72.268 156.195L72.1612 156.183L72.233 155.545C72.2685 155.549 72.3043 155.553 72.3394 155.557ZM93.926 155.637C93.2979 155.741 92.669 155.836 92.0388 155.925L91.9635 155.935L91.8753 155.3C92.5206 155.21 93.1631 155.112 93.8056 155.007C93.8056 155.007 93.8844 155.386 93.926 155.637ZM68.3795 155.011C68.997 155.112 69.6154 155.206 70.235 155.293L70.2799 155.299L70.1917 155.935C69.5895 155.851 68.9905 155.76 68.3919 155.663L68.2291 155.636L68.3337 155.003C68.349 155.006 68.3643 155.008 68.3795 155.011ZM97.8246 154.892C97.1785 155.032 96.5303 155.165 95.8814 155.289L95.7595 154.659C96.369 154.543 96.9777 154.418 97.5851 154.287L97.6883 154.265C97.7342 154.474 97.7794 154.683 97.8246 154.892ZM64.4858 154.267C65.0923 154.399 65.7002 154.524 66.3095 154.641L66.3956 154.658L66.2748 155.288C65.6308 155.165 64.9894 155.033 64.3493 154.895L64.4669 154.263C64.4732 154.265 64.4795 154.266 64.4858 154.267ZM60.6634 153.333C61.2582 153.494 61.8547 153.649 62.453 153.796L62.5489 153.82L62.396 154.443C61.7611 154.287 61.1271 154.124 60.4952 153.953L60.6428 153.328C60.6497 153.329 60.6566 153.331 60.6634 153.333ZM101.681 153.949C101.046 154.121 100.41 154.285 99.7714 154.442L99.6064 153.821C100.21 153.674 100.81 153.519 101.409 153.357L101.513 153.329C101.569 153.536 101.625 153.742 101.681 153.949ZM105.484 152.81C104.891 153.004 104.296 153.191 103.698 153.371L103.59 153.404L103.405 152.789C104.027 152.602 104.648 152.408 105.266 152.206C105.266 152.206 105.404 152.568 105.484 152.81ZM56.9177 152.213C57.4999 152.403 58.0842 152.586 58.6706 152.763L58.7498 152.787L58.5654 153.402C57.9849 153.227 57.4055 153.046 56.8283 152.859L56.6714 152.808L56.8712 152.198C56.8867 152.203 56.9023 152.208 56.9177 152.213ZM109.223 151.478C108.665 151.693 108.103 151.902 107.541 152.104L107.362 152.168L107.147 151.563C107.707 151.364 108.266 151.157 108.823 150.945L108.993 150.88C109.07 151.079 109.147 151.279 109.223 151.478ZM53.2537 150.912C53.8226 151.13 54.3938 151.342 54.9675 151.547L55.0083 151.561L54.7931 152.166C54.6707 152.122 54.5485 152.078 54.4263 152.034C53.9933 151.877 53.5616 151.717 53.1313 151.553L52.9319 151.476L53.1622 150.877C53.1928 150.889 53.2233 150.9 53.2537 150.912ZM49.5729 149.39C50.1271 149.636 50.6841 149.875 51.2437 150.108L51.3346 150.146L51.0885 150.739C50.4928 150.491 49.9013 150.237 49.3124 149.976L49.2649 149.955L49.5258 149.369C49.5414 149.376 49.5571 149.383 49.5729 149.39ZM112.891 149.958C112.291 150.225 111.686 150.484 111.08 150.736L110.821 150.149C110.966 150.089 111.11 150.028 111.254 149.968C111.707 149.776 112.16 149.58 112.61 149.381C112.61 149.381 112.788 149.726 112.891 149.958ZM116.475 148.253C115.934 148.527 115.391 148.795 114.844 149.057L114.694 149.128L114.418 148.549C114.944 148.299 115.468 148.041 115.99 147.779L116.185 147.68C116.282 147.871 116.379 148.062 116.475 148.253ZM45.9898 147.687C46.5623 147.977 47.1383 148.26 47.7175 148.536L47.4619 149.125C47.3175 149.057 47.1735 148.987 47.0296 148.918C46.5843 148.702 46.1409 148.483 45.6995 148.259L45.9708 147.677C45.9771 147.681 45.9834 147.684 45.9898 147.687ZM119.969 146.368C119.449 146.665 118.926 146.956 118.4 147.242L118.234 147.332L117.929 146.768C118.05 146.702 118.171 146.636 118.293 146.57C118.689 146.353 119.083 146.133 119.475 145.91L119.65 145.811C119.756 145.996 119.862 146.182 119.969 146.368ZM42.5102 145.81C43.0655 146.127 43.6244 146.438 44.187 146.743L44.2265 146.764L43.9218 147.329C43.7748 147.25 43.6282 147.17 43.4817 147.09C43.0494 146.852 42.6192 146.611 42.1912 146.366C42.1912 146.366 42.4707 145.787 42.5102 145.81ZM123.362 144.308C122.861 144.629 122.357 144.945 121.849 145.255L121.678 145.359L121.346 144.811C121.852 144.503 122.353 144.19 122.852 143.873L123.015 143.768C123.131 143.948 123.247 144.128 123.362 144.308ZM39.2345 143.824C39.7405 144.148 40.2499 144.465 40.7628 144.778L40.8105 144.807L40.4774 145.355C39.9769 145.052 39.4787 144.741 38.984 144.426L38.7941 144.304L39.1406 143.764C39.1719 143.784 39.2032 143.804 39.2345 143.824ZM126.647 142.079C126.163 142.425 125.675 142.766 125.184 143.101L125.018 143.214L124.658 142.683C124.775 142.604 124.892 142.524 125.008 142.444C125.379 142.189 125.747 141.932 126.113 141.671L126.273 141.557C126.398 141.731 126.522 141.905 126.647 142.079ZM35.8842 141.553C36.4022 141.924 36.9243 142.288 37.4508 142.647L37.4981 142.679L37.1376 143.21C36.5893 142.838 36.048 142.46 35.5105 142.075C35.5105 142.075 35.8667 141.541 35.8842 141.553ZM129.815 139.687C129.347 140.058 128.876 140.424 128.401 140.785L128.246 140.902L127.859 140.391C127.97 140.307 128.081 140.223 128.191 140.138C128.548 139.865 128.903 139.59 129.255 139.312L129.415 139.184C129.549 139.352 129.681 139.519 129.815 139.687ZM32.7491 139.186C33.2471 139.582 33.7496 139.971 34.2564 140.355L34.2972 140.386L33.9105 140.898C33.3845 140.501 32.865 140.098 32.3497 139.688C32.3497 139.688 32.6948 139.143 32.7491 139.186ZM132.858 137.138C132.407 137.535 131.952 137.927 131.493 138.314L131.352 138.431L130.941 137.939C131.044 137.853 131.147 137.766 131.25 137.678C131.593 137.388 131.933 137.096 132.27 136.8L132.434 136.656C132.575 136.817 132.717 136.977 132.858 137.138ZM29.7404 136.667C30.2174 137.087 30.6991 137.501 31.1857 137.909L31.2162 137.935L30.8042 138.427C30.6784 138.322 30.5529 138.216 30.4276 138.109C30.0544 137.792 29.6839 137.472 29.3162 137.149L29.7232 136.652C29.729 136.657 29.7347 136.662 29.7404 136.667ZM135.769 134.439C135.309 134.888 134.842 135.331 134.371 135.769L134.331 135.807L133.894 135.336C134.372 134.893 134.846 134.442 135.314 133.986C135.314 133.986 135.59 134.256 135.769 134.439ZM26.8635 134.002C27.3187 134.444 27.7788 134.882 28.244 135.314L27.8265 135.802C27.3497 135.36 26.8804 134.913 26.4156 134.461L26.388 134.434L26.8361 133.975C26.8452 133.984 26.8544 133.993 26.8635 134.002ZM138.54 131.597C138.099 132.073 137.652 132.543 137.2 133.008L137.172 133.036L136.713 132.588C137.165 132.125 137.612 131.654 138.053 131.179L138.07 131.161C138.226 131.306 138.383 131.452 138.54 131.597ZM24.1243 131.196C24.5566 131.661 24.9942 132.121 25.4372 132.576L24.9846 133.031C24.5346 132.57 24.092 132.103 23.6539 131.632L23.6168 131.592L24.0874 131.156C24.0997 131.169 24.112 131.182 24.1243 131.196ZM21.5283 128.255C21.913 128.712 22.3025 129.166 22.6968 129.615L22.7673 129.695L22.2856 130.12C21.8894 129.669 21.4968 129.213 21.1094 128.754L20.9922 128.614L21.4842 128.202C21.4989 128.22 21.5136 128.237 21.5283 128.255ZM141.166 128.619C140.745 129.121 140.319 129.616 139.887 130.107L139.39 129.7C139.815 129.219 140.234 128.73 140.648 128.238L140.673 128.208C140.837 128.345 141.001 128.482 141.166 128.619ZM19.0813 125.185C19.4428 125.662 19.8093 126.135 20.181 126.604L20.2393 126.677L19.737 127.076C19.3654 126.609 18.9992 126.137 18.6379 125.662L18.5211 125.508L19.0331 125.121C19.0492 125.142 19.0652 125.163 19.0813 125.185ZM143.636 125.513C143.24 126.038 142.836 126.558 142.428 127.074L141.918 126.682C142.318 126.181 142.709 125.676 143.094 125.167L143.125 125.127C143.295 125.255 143.466 125.384 143.636 125.513ZM145.948 122.286C145.577 122.833 145.199 123.375 144.814 123.913L144.291 123.54C144.663 123.023 145.027 122.5 145.385 121.973L145.418 121.926C145.595 122.046 145.771 122.166 145.948 122.286ZM16.7889 121.991C17.1264 122.486 17.4692 122.978 17.8173 123.466L17.8668 123.535L17.3449 123.909C16.9982 123.424 16.6578 122.937 16.3221 122.446L16.2097 122.28L16.7406 121.92C16.7568 121.944 16.7728 121.967 16.7889 121.991ZM148.094 118.946C147.77 119.48 147.44 120.009 147.103 120.535L147.042 120.63L146.503 120.283C146.847 119.746 147.185 119.205 147.517 118.661L147.545 118.613C147.728 118.724 147.911 118.835 148.094 118.946ZM14.6569 118.68C14.9695 119.192 15.2876 119.702 15.6113 120.208L15.656 120.277L15.1159 120.624C14.7941 120.122 14.4784 119.618 14.1678 119.11L14.0645 118.94L14.613 118.607C14.6276 118.631 14.6423 118.655 14.6569 118.68ZM150.068 115.502C149.754 116.083 149.433 116.659 149.105 117.232L148.546 116.918C148.621 116.786 148.697 116.653 148.772 116.521C149.012 116.095 149.249 115.667 149.482 115.236L149.503 115.197C149.691 115.299 149.879 115.401 150.068 115.502ZM12.691 115.256C12.9778 115.785 13.2704 116.312 13.5687 116.835L13.6128 116.912L13.0559 117.231C12.7588 116.712 12.467 116.188 12.1807 115.662L12.0912 115.496L12.6559 115.191C12.6676 115.213 12.6793 115.234 12.691 115.256ZM10.8967 111.726C11.157 112.271 11.4231 112.813 11.6953 113.353L11.7431 113.447L11.1706 113.737C10.8793 113.162 10.595 112.584 10.3174 112.002L10.2952 111.956L10.8748 111.68C10.8821 111.695 10.8894 111.711 10.8967 111.726ZM151.864 111.962C151.583 112.553 151.294 113.14 150.998 113.724L150.416 113.453C150.709 112.875 150.996 112.292 151.275 111.706C151.275 111.706 151.634 111.853 151.864 111.962ZM153.478 108.335C153.231 108.93 152.976 109.522 152.715 110.111L152.693 110.159L152.108 109.898C152.345 109.364 152.577 108.825 152.803 108.285L152.885 108.089C153.082 108.171 153.28 108.253 153.478 108.335ZM9.27988 108.095C9.52719 108.69 9.78138 109.282 10.0427 109.871L9.46552 110.153C9.40027 110.006 9.33574 109.859 9.27135 109.713C9.07258 109.257 8.87783 108.8 8.6871 108.341L9.27472 108.083C9.27644 108.087 9.27816 108.091 9.27988 108.095ZM154.904 104.631C154.706 105.187 154.502 105.741 154.291 106.292L154.215 106.492L153.616 106.262C153.669 106.125 153.721 105.987 153.773 105.85C153.948 105.386 154.119 104.922 154.285 104.456L154.3 104.416C154.501 104.487 154.703 104.559 154.904 104.631ZM7.88437 104.477C8.08966 105.051 8.30126 105.622 8.51924 106.191L8.54391 106.255L7.94496 106.485C7.7302 105.927 7.52162 105.366 7.31884 104.802L7.25538 104.624L7.85992 104.409C7.86809 104.432 7.87627 104.455 7.88437 104.477ZM156.14 100.858C155.966 101.439 155.785 102.018 155.597 102.595L155.547 102.753L154.936 102.553C155.121 101.992 155.298 101.428 155.468 100.863L155.526 100.674C155.73 100.736 155.935 100.797 156.14 100.858ZM6.6669 100.775C6.84387 101.361 7.02729 101.945 7.2173 102.527L6.61355 102.746C6.41931 102.154 6.2328 101.557 6.05232 100.96L6.01991 100.852L6.63456 100.667C6.64532 100.703 6.65607 100.739 6.6669 100.775ZM5.60489 96.8805C5.75188 97.479 5.90554 98.0757 6.06595 98.6708L6.09405 98.7746L5.47467 98.9426C5.3028 98.3086 5.13838 97.6717 4.98156 97.0331C4.98156 97.0331 5.58617 96.8037 5.60489 96.8805ZM157.182 97.028C157.026 97.6633 156.862 98.2967 156.692 98.9283L156.066 98.7812C156.23 98.1808 156.386 97.5763 156.535 96.9705L156.558 96.8751C156.766 96.926 156.974 96.977 157.182 97.028ZM4.76451 93.0223C4.88168 93.6326 5.00558 94.2405 5.13616 94.8468L5.15867 94.9504L4.53154 95.0866C4.39129 94.4407 4.25885 93.7924 4.13416 93.1428C4.13416 93.1428 4.71876 92.7821 4.76451 93.0223ZM158.027 93.1492C157.904 93.7924 157.772 94.4341 157.633 95.0742L157.002 94.957C157.136 94.3454 157.261 93.7301 157.38 93.114L157.397 93.0283C157.607 93.0686 157.817 93.1089 158.027 93.1492ZM158.674 89.2323C158.59 89.8331 158.499 90.4329 158.402 91.0317L158.375 91.1949L157.742 91.0903C157.764 90.9593 157.784 90.8283 157.806 90.6973C157.879 90.2337 157.949 89.7696 158.015 89.3049L158.038 89.144C158.25 89.1735 158.461 89.2029 158.674 89.2323ZM4.13402 89.2117C4.22121 89.8312 4.31543 90.4497 4.4166 91.067L3.78611 91.1879C3.7595 91.027 3.73369 90.8661 3.70802 90.7051C3.63431 90.2375 3.5644 89.7694 3.49843 89.3007L3.48796 89.2253L4.12362 89.1368C4.12706 89.1618 4.13057 89.1867 4.13402 89.2117ZM159.12 85.2882C159.066 85.9113 159.003 86.5337 158.934 87.1553L158.922 87.2629L158.284 87.1912C158.355 86.5667 158.418 85.9421 158.474 85.3176L158.481 85.2315C158.694 85.2509 158.907 85.2695 159.12 85.2882ZM3.69074 85.3412C3.7438 85.9306 3.80317 86.5193 3.86871 87.1073L3.87731 87.184L3.23965 87.2557C3.16981 86.6384 3.10735 86.0181 3.05157 85.3979L3.04117 85.281L3.68049 85.2243C3.68393 85.2631 3.68737 85.3025 3.69074 85.3412ZM159.368 81.3265C159.345 81.9582 159.313 82.5899 159.274 83.2216L159.269 83.3084L158.629 83.269C158.668 82.6444 158.699 82.0177 158.724 81.391L158.727 81.3021C158.941 81.31 159.155 81.3186 159.368 81.3265ZM3.43956 81.4147C3.46322 82.012 3.49319 82.6093 3.52962 83.2059L3.53306 83.2618L2.8926 83.3012C2.85388 82.6824 2.8229 82.0608 2.79823 81.4398L2.79365 81.3193L3.43497 81.295C3.43648 81.3351 3.43798 81.3753 3.43956 81.4147ZM3.38614 77.3584C3.37911 77.9313 3.37811 78.5064 3.38327 79.0807L3.38614 79.3274L2.74438 79.3353C2.73678 78.7143 2.73628 78.0941 2.74288 77.4738L2.74438 77.3505C2.95828 77.3526 3.17224 77.3555 3.38614 77.3584ZM159.419 77.4738C159.426 78.0941 159.425 78.7143 159.418 79.3353L158.776 79.3274C158.783 78.7523 158.784 78.1787 158.779 77.6043L158.776 77.3584L159.418 77.3505C159.418 77.3914 159.419 77.433 159.419 77.4738ZM159.273 73.439C159.31 74.0406 159.34 74.6422 159.364 75.2445L159.368 75.365L158.727 75.3894C158.703 74.7534 158.671 74.1159 158.633 73.4785L158.629 73.4232L159.269 73.3831C159.271 73.4017 159.272 73.4204 159.273 73.439ZM3.53285 73.4168C3.49398 74.0413 3.46258 74.6673 3.43791 75.294L3.43447 75.3836L2.79322 75.3593C2.81716 74.7261 2.84864 74.0944 2.88693 73.4634L2.89231 73.3766C3.10585 73.3903 3.31931 73.4039 3.53285 73.4168ZM158.931 69.5053C158.997 70.0983 159.057 70.692 159.11 71.2865L159.121 71.4033L158.481 71.46C158.426 70.8326 158.363 70.2044 158.294 69.577L158.285 69.501L158.922 69.4286C158.925 69.4544 158.928 69.4802 158.931 69.5053ZM3.87753 69.4946C3.80733 70.117 3.74423 70.7415 3.68809 71.3675L3.68049 71.4535L3.04117 71.3976C3.09624 70.773 3.15869 70.1514 3.22782 69.5297L3.23979 69.4229C3.45239 69.4465 3.66493 69.4709 3.87753 69.4946ZM158.378 65.5135C158.481 66.1359 158.575 66.759 158.664 67.3836L158.674 67.4596L158.038 67.5478C157.949 66.9025 157.85 66.2593 157.745 65.6175L158.376 65.497C158.377 65.5021 158.377 65.5078 158.378 65.5135ZM4.4199 65.5953C4.39832 65.7258 4.37716 65.857 4.35616 65.9875C4.28244 66.4514 4.2126 66.9154 4.14664 67.38L4.12398 67.5413L3.48839 67.4531C3.57185 66.8523 3.66299 66.2521 3.76008 65.6534L3.78675 65.4906C3.99778 65.5257 4.20887 65.5601 4.4199 65.5953ZM157.653 61.7025C157.784 62.3141 157.91 62.9272 158.028 63.5417L157.397 63.6629C157.282 63.0541 157.156 62.4453 157.026 61.838L157.003 61.734L157.63 61.5978C157.638 61.6329 157.645 61.6673 157.653 61.7025ZM5.1596 61.7283C5.12518 61.886 5.09156 62.0438 5.05807 62.2015C4.9622 62.6576 4.87006 63.1136 4.78172 63.5711L4.76516 63.6571L4.13488 63.5366C4.25835 62.892 4.38964 62.251 4.52846 61.6107C4.52846 61.6107 4.91108 61.6745 5.1596 61.7283ZM156.715 57.8462C156.877 58.4464 157.032 59.048 157.18 59.6517L156.56 59.8159C156.413 59.2129 156.257 58.6127 156.096 58.014L156.068 57.91L156.687 57.7422C156.697 57.7766 156.706 57.8118 156.715 57.8462ZM6.09542 57.9043C6.05311 58.0599 6.01152 58.2155 5.97015 58.3703C5.85198 58.8178 5.73747 59.2659 5.62668 59.7141L5.60309 59.8109L4.97984 59.6574C5.13565 59.0221 5.29935 58.3883 5.47051 57.7566C5.47051 57.7566 5.85055 57.8376 6.09542 57.9043ZM155.554 53.9577C155.746 54.5449 155.931 55.1336 156.109 55.7252L156.142 55.8327L155.527 56.0177C155.341 55.3961 155.146 54.7751 154.944 54.157L155.548 53.939C155.55 53.9448 155.552 53.9512 155.554 53.9577ZM7.22512 54.1326C7.18439 54.2574 7.14402 54.3822 7.10379 54.5062C6.96333 54.9436 6.82644 55.3824 6.69322 55.822L6.63621 56.0113L6.02149 55.827C6.1958 55.2462 6.37693 54.6668 6.56415 54.0896L6.61527 53.9333C6.81855 54 7.02184 54.0659 7.22512 54.1326ZM154.242 50.2635C154.462 50.8371 154.675 51.4129 154.882 51.9915L154.906 52.0604L154.302 52.2762C154.102 51.7155 153.896 51.1569 153.684 50.6005L153.618 50.4298L154.217 50.1989C154.225 50.2204 154.234 50.2419 154.242 50.2635ZM8.54598 50.4241C8.31589 51.0221 8.09267 51.6244 7.87655 52.2289L7.86193 52.2697L7.25731 52.0546C7.30091 51.932 7.34486 51.8101 7.38903 51.6875C7.54607 51.2544 7.70654 50.8228 7.8706 50.3925L7.94704 50.1939C8.14666 50.2706 8.34636 50.3473 8.54598 50.4241ZM152.706 46.5528C152.969 47.1465 153.226 47.7438 153.475 48.3432L152.887 48.6013C152.828 48.4572 152.767 48.3131 152.706 48.169C152.514 47.7158 152.318 47.2633 152.119 46.8138L152.696 46.532C152.699 46.5391 152.703 46.5456 152.706 46.5528ZM10.0542 46.7872C9.80124 47.3558 9.55494 47.9295 9.31465 48.5053L9.27679 48.5963L8.68416 48.3504C8.91648 47.7911 9.15547 47.2332 9.40049 46.6782L9.46789 46.5262C9.66328 46.6137 9.85875 46.7005 10.0542 46.7872ZM151.039 43.0421C151.314 43.5863 151.582 44.1327 151.844 44.6827L151.867 44.7293L151.287 45.0047C151.036 44.4769 150.78 43.9535 150.517 43.4329L150.419 43.2379L150.991 42.9475C151.007 42.979 151.023 43.0106 151.039 43.0421ZM11.7456 43.2321C11.6742 43.3734 11.6032 43.5146 11.5326 43.6552C11.3138 44.094 11.0984 44.5357 10.8869 44.9788L10.2978 44.7236C10.5791 44.1313 10.8682 43.5448 11.1638 42.9611C11.1638 42.9611 11.5194 43.1174 11.7456 43.2321ZM149.15 39.5315C149.451 40.0592 149.746 40.5891 150.035 41.1233L150.071 41.1886L149.506 41.4933C149.227 40.9763 148.94 40.46 148.649 39.9481L148.549 39.7731L149.106 39.454C149.12 39.4798 149.135 39.5057 149.15 39.5315ZM13.6156 39.7681C13.54 39.8993 13.4651 40.032 13.3903 40.1639C13.1502 40.5891 12.9134 41.0179 12.6802 41.4481L12.6588 41.4883L12.094 41.1835C12.1733 41.0365 12.2532 40.8895 12.3334 40.7433C12.5708 40.3109 12.8119 39.8807 13.0567 39.4526C13.0567 39.4526 13.3932 39.6405 13.6156 39.7681ZM147.09 36.1305C147.417 36.6411 147.738 37.1545 148.053 37.6715L148.097 37.7446L147.549 38.0773C147.241 37.5718 146.929 37.0699 146.611 36.5715L146.506 36.4073L147.046 36.061C147.061 36.0839 147.076 36.1076 147.09 36.1305ZM15.6593 36.4023C15.3147 36.9394 14.9769 37.48 14.6452 38.0242L14.6161 38.0723L14.0676 37.7389C14.1363 37.6256 14.2054 37.513 14.2746 37.3997C14.5126 37.0132 14.7536 36.6282 14.9976 36.2453L15.1191 36.056C15.2991 36.1714 15.4792 36.2868 15.6593 36.4023ZM144.866 32.8457C145.218 33.3376 145.563 33.8331 145.903 34.3329L145.952 34.4046L145.421 34.7646C145.342 34.6484 145.262 34.5315 145.182 34.4154C144.928 34.0446 144.67 33.6768 144.409 33.3104L144.295 33.1498L144.817 32.7762C144.833 32.7991 144.85 32.8228 144.866 32.8457ZM17.8701 33.1448C17.4979 33.6639 17.1344 34.1859 16.7763 34.7122L16.7441 34.7595L16.2131 34.3996C16.584 33.8525 16.963 33.3104 17.3479 32.7719C17.3479 32.7719 17.6614 32.9956 17.8701 33.1448ZM142.483 29.6822C142.859 30.1547 143.228 30.6322 143.592 31.1127L143.641 31.1772L143.129 31.5637C142.774 31.094 142.415 30.6301 142.05 30.169L141.923 30.0077L142.425 29.6083C142.444 29.6327 142.464 29.6578 142.483 29.6822ZM20.2428 30.0034C20.1477 30.1224 20.053 30.2429 19.9585 30.3626C19.6587 30.7448 19.3615 31.1299 19.0677 31.5178L19.0368 31.5587L18.5246 31.1722C18.922 30.6459 19.3254 30.1267 19.7347 29.6112C19.7347 29.6112 20.0425 29.8435 20.2428 30.0034ZM139.947 26.6455C140.345 27.0986 140.737 27.5561 141.125 28.0172L141.17 28.0702L140.677 28.4825C140.302 28.0344 139.923 27.592 139.539 27.1531L139.394 26.9889L139.876 26.5652C139.9 26.5917 139.924 26.6189 139.947 26.6455ZM22.7711 26.9846C22.6672 27.1022 22.5639 27.2205 22.4607 27.3389C22.1423 27.7053 21.8264 28.0745 21.5139 28.4474L21.4881 28.4775L20.9961 28.0659C21.1015 27.9397 21.2075 27.8143 21.3137 27.6888C21.6307 27.3159 21.951 26.9452 22.2746 26.5774C22.2746 26.5774 22.581 26.8168 22.7711 26.9846ZM137.184 23.6611C137.631 24.12 138.072 24.5833 138.507 25.0522L138.545 25.0924L138.074 25.529C137.63 25.0493 137.18 24.5768 136.724 24.1093C136.724 24.1093 137.136 23.6117 137.184 23.6611ZM25.4481 24.0978C24.9956 24.5617 24.5499 25.0307 24.109 25.5054L23.6208 25.0881C24.0611 24.6127 24.5091 24.1423 24.9619 23.6769L24.9887 23.6497C25.1419 23.7988 25.295 23.948 25.4481 24.0978ZM134.354 20.8998C134.823 21.3358 135.287 21.7767 135.746 22.2235L135.774 22.2507L135.326 22.7096C134.861 22.2565 134.392 21.8112 133.918 21.3702L134.335 20.8826C134.341 20.8883 134.348 20.8941 134.354 20.8998ZM28.2671 21.3487C28.0347 21.5645 27.8038 21.7818 27.5741 21.999C27.3305 22.2314 27.0883 22.4644 26.8474 22.6989L26.3922 22.2464C26.8534 21.7961 27.3198 21.3537 27.7909 20.9156L27.8308 20.8783C27.9762 21.0353 28.1217 21.1924 28.2671 21.3487ZM131.389 18.2833C131.879 18.6956 132.365 19.1129 132.846 19.536L132.438 20.0329C131.956 19.607 131.468 19.1889 130.976 18.7752L130.946 18.7501L131.358 18.2575C131.368 18.2661 131.378 18.2747 131.389 18.2833ZM31.2209 18.7458C30.7728 19.1208 30.3305 19.5009 29.8919 19.8845L29.7274 20.0286L29.3034 19.5475C29.7545 19.1502 30.2099 18.758 30.6694 18.3708L30.8088 18.2539C30.9461 18.4181 31.0835 18.5816 31.2209 18.7458ZM128.292 15.8174C128.804 16.2046 129.31 16.5975 129.812 16.9962L129.42 17.5046C128.92 17.1059 128.414 16.7151 127.905 16.3294L127.864 16.2985L128.251 15.7866C128.265 15.7966 128.279 15.8066 128.292 15.8174ZM34.3021 16.295C34.1913 16.3781 34.0808 16.462 33.9704 16.5466C33.6135 16.8191 33.2593 17.0945 32.9073 17.3727L32.7458 17.501L32.3466 16.9984C32.8141 16.6269 33.2856 16.2605 33.761 15.8991L33.9152 15.7823C34.0442 15.9529 34.1731 16.1243 34.3021 16.295ZM125.072 13.5071C125.603 13.8685 126.129 14.2356 126.651 14.6092L126.278 15.1319C125.761 14.7605 125.238 14.3962 124.711 14.0377L124.664 14.0054L125.024 13.4748C125.04 13.4856 125.056 13.4963 125.072 13.5071ZM37.503 14.0018C37.3864 14.0814 37.27 14.161 37.1537 14.2406C36.7828 14.4959 36.4147 14.7533 36.0486 15.0136L35.8879 15.1283L35.5144 14.6063C35.9984 14.26 36.4862 13.9194 36.9774 13.5838L37.1425 13.4712C37.2626 13.6483 37.3828 13.8255 37.503 14.0018ZM121.732 11.3581C122.249 11.6736 122.763 11.9941 123.273 12.3204L123.368 12.3806L123.021 12.9205C122.484 12.5771 121.944 12.2386 121.399 11.9066L121.351 11.878L121.684 11.3294C121.701 11.3387 121.716 11.3488 121.732 11.3581ZM40.8157 11.8744C40.6954 11.9475 40.5752 12.0214 40.4551 12.0945C40.0711 12.3311 39.6897 12.5699 39.3102 12.8123L39.1457 12.9177L38.7991 12.377C39.3001 12.0558 39.8049 11.7396 40.3128 11.4291L40.4825 11.3258C40.5935 11.5087 40.7046 11.6915 40.8157 11.8744ZM118.28 9.37691C118.847 9.68453 119.41 9.99787 119.97 10.3184L119.656 10.877C119.099 10.5579 118.539 10.2467 117.975 9.94194L117.936 9.92043L118.24 9.3554C118.253 9.36257 118.267 9.36974 118.28 9.37691ZM44.2318 9.91757C43.713 10.1972 43.1983 10.4833 42.6863 10.7744L42.5111 10.8741L42.1923 10.3177C42.7121 10.0201 43.2353 9.72827 43.7614 9.44217L43.9269 9.35254C44.0285 9.54112 44.1302 9.72898 44.2318 9.91757ZM114.72 7.56925C115.304 7.84746 115.885 8.13284 116.462 8.4254L116.191 9.00692C115.614 8.71365 115.03 8.42827 114.444 8.14862L114.7 7.55921C114.707 7.56279 114.713 7.56566 114.72 7.56925ZM47.7428 8.13643C47.6251 8.19236 47.5076 8.24829 47.3902 8.30493C46.9817 8.50212 46.5758 8.70218 46.1713 8.90582L45.9758 9.00477L45.6858 8.43185C46.2608 8.14073 46.8391 7.85678 47.4207 7.57857L47.4672 7.55706C47.559 7.74994 47.651 7.94283 47.7428 8.13643ZM111.164 5.98386C111.729 6.21905 112.29 6.4607 112.85 6.70808L112.897 6.72959L112.636 7.31613C112.1 7.07736 111.563 6.84575 111.023 6.61988L110.827 6.53814L111.073 5.94586C111.104 5.95805 111.134 5.97096 111.164 5.98386ZM51.3399 6.53599C51.1956 6.59622 51.0515 6.65645 50.9076 6.71668C50.4542 6.90885 50.0021 7.1046 49.5518 7.30394L49.2703 6.72672C49.4168 6.66147 49.5635 6.59694 49.7103 6.53312C50.1657 6.33378 50.6227 6.13946 51.0816 5.94873C51.0816 5.94873 51.2421 6.30008 51.3399 6.53599ZM107.41 4.53329C107.988 4.74051 108.564 4.95347 109.138 5.17289L109.23 5.20874L109 5.80747C108.401 5.5773 107.799 5.3543 107.194 5.13775L107.153 5.12341L107.368 4.51894C107.382 4.52396 107.396 4.52898 107.41 4.53329ZM55.0141 5.12126C54.4521 5.32132 53.8941 5.52782 53.3386 5.74007L53.168 5.80532L52.9374 5.20659C53.4963 4.99148 54.0577 4.78282 54.6212 4.58061L54.7987 4.51679C54.8705 4.71828 54.9423 4.91977 55.0141 5.12126ZM103.676 3.30714C104.267 3.48497 104.856 3.66996 105.443 3.86142L105.49 3.87719L105.29 4.48668C105.166 4.44581 105.042 4.40565 104.917 4.3655C104.479 4.22496 104.041 4.088 103.601 3.95463L103.412 3.89798L103.596 3.28276C103.623 3.29137 103.649 3.29925 103.676 3.30714ZM58.7557 3.89583C58.1334 4.08298 57.513 4.2773 56.8955 4.47879L56.677 3.87504C57.2694 3.68072 57.8654 3.49429 58.4631 3.31359L58.5711 3.28133C58.6326 3.4864 58.6941 3.69076 58.7557 3.89583ZM99.8617 2.26528C100.465 2.4137 101.066 2.5693 101.666 2.73207L101.519 3.35733C100.916 3.19313 100.313 3.03753 99.7083 2.88839L99.6129 2.86472L99.7656 2.24161C99.7979 2.2495 99.8301 2.25739 99.8617 2.26528ZM62.5544 2.86329C62.4005 2.90058 62.2469 2.9393 62.0933 2.97802C61.6458 3.09059 61.1984 3.20675 60.7521 3.32722L60.6482 3.35518L60.4803 2.73637C61.1142 2.56428 61.7512 2.40008 62.3899 2.24305C62.3899 2.24305 62.4938 2.61519 62.5544 2.86329ZM95.9732 1.41343C96.5877 1.53174 97.2008 1.65722 97.8124 1.78988L97.6948 2.42159C97.081 2.2875 96.4672 2.16202 95.852 2.04299L95.766 2.0265L95.8871 1.39622C95.9158 1.40196 95.9445 1.40769 95.9732 1.41343ZM66.4012 2.02578C66.0961 2.08386 65.7913 2.14481 65.4864 2.20648C65.0579 2.29396 64.4724 2.42016 64.4724 2.42016L64.3363 1.79274C64.9823 1.65292 65.6305 1.52027 66.28 1.3955C66.28 1.3955 66.3531 1.77338 66.4012 2.02578ZM92.0151 0.756617C92.6396 0.844096 93.2635 0.938746 93.8859 1.04057L93.9325 1.04845L93.8278 1.6816C93.2333 1.58337 92.6389 1.49302 92.0431 1.40841L91.8817 1.38546L91.9699 0.750163C91.985 0.752315 92 0.754466 92.0151 0.756617ZM70.286 1.38475C70.1447 1.40482 70.0034 1.4249 69.8622 1.44498C69.3593 1.51812 68.8572 1.59556 68.3558 1.67802L68.235 1.04774C68.3958 1.02121 68.5568 0.995392 68.7178 0.969579C69.1854 0.895723 69.6535 0.82617 70.1222 0.760202L70.1975 0.749446C70.2271 0.960974 70.2565 1.17322 70.286 1.38475ZM88.1122 0.310616C88.7067 0.363677 89.3004 0.423192 89.8934 0.48916L90.0009 0.501349L89.9285 1.13952C89.3039 1.06853 88.6801 1.00615 88.0556 0.949502L87.9695 0.942331L88.0262 0.302728C88.0549 0.305596 88.0835 0.307748 88.1122 0.310616ZM74.198 0.941614C73.5691 0.997543 72.9417 1.05993 72.315 1.1302L72.2391 1.1388L72.167 0.501349C72.7847 0.431079 73.4049 0.368696 74.0245 0.312767L74.1421 0.302728C74.1607 0.51569 74.1793 0.728652 74.198 0.941614ZM84.1534 0.0582164C84.7557 0.0818788 85.3581 0.111995 85.9597 0.148564L86.0464 0.1543L86.0063 0.79462C85.3796 0.7559 84.755 0.72435 84.129 0.69997L84.0401 0.696385L84.0645 0.0546312C84.0939 0.0560653 84.124 0.0574994 84.1534 0.0582164ZM78.1281 0.696385C77.4892 0.720765 76.8525 0.752315 76.2165 0.791035L76.1613 0.79462L76.1211 0.1543C76.7406 0.11558 77.3616 0.08403 77.9833 0.0596505L78.1037 0.0553482C78.1116 0.269027 78.1195 0.482706 78.1281 0.696385ZM81.2049 0.00013588C81.4946 0.000852924 81.7836 0.00228701 82.0733 0.00587223L82.0668 0.647626C81.9026 0.645475 81.7377 0.644041 81.5735 0.643324C81.0809 0.640456 80.5876 0.64189 80.095 0.647626L80.0885 0.00587223C80.4599 0.00156997 80.8328 -0.000581164 81.2049 0.00013588Z" fill="#9BC3D3"/>
<path fill-rule="evenodd" clip-rule="evenodd" d="M50.246 9.73057C51.7712 9.75136 53.0145 8.52163 53.0145 7.00078C53.0145 5.49284 51.7927 4.271 50.2847 4.271C48.7639 4.271 47.5342 5.51435 47.5549 7.0395C47.5757 8.48936 48.7961 9.71049 50.246 9.73057ZM78.9716 157.007L82.5812 159.973L85.5462 156.364L81.9366 153.398L78.9716 157.007Z" fill="#F6C854"/>
<path fill-rule="evenodd" clip-rule="evenodd" d="M118.893 12.7989C120.38 12.7989 121.586 11.6014 121.586 10.1243C121.586 8.64717 120.38 7.44971 118.893 7.44971C117.406 7.44971 116.2 8.64717 116.2 10.1243C116.2 11.6014 117.406 12.7989 118.893 12.7989ZM16.9164 117.326L13.3071 114.36L10.3418 117.97L13.951 120.935L16.9164 117.326Z" fill="#1BB3BC"/>
<path fill-rule="evenodd" clip-rule="evenodd" d="M4.53711 56.6431H9.03369V52.1465H4.53711V56.6431Z" fill="#2A8FEC"/>
<path fill-rule="evenodd" clip-rule="evenodd" d="M150.33 111.457H154.827V106.96H150.33V111.457Z" fill="#9E3667"/>
<path fill-rule="evenodd" clip-rule="evenodd" d="M151.217 41.9609L154.827 44.9273L151.861 48.5355L148.252 45.5698L151.217 41.9609Z" fill="#767676"/>
<path fill-rule="evenodd" clip-rule="evenodd" d="M5.98461 83.552C5.98461 85.0291 4.77926 86.2266 3.29211 86.2266C1.80496 86.2266 0.599609 85.0291 0.599609 83.552C0.599609 82.0749 1.80496 80.8774 3.29211 80.8774C4.77926 80.8774 5.98461 82.0749 5.98461 83.552Z" fill="#D39E00"/>
<path fill-rule="evenodd" clip-rule="evenodd" d="M96.2844 144.153H105.385L108.941 140.62L108.307 144.153H109.492L110.931 140.023L109.682 135.932L103.088 141.044C102.667 141.37 102.119 141.516 101.604 141.384C101.159 141.273 100.813 140.978 101.208 140.249L100.455 140.656C99.7643 141.027 99.0439 141.345 98.3028 141.602L96.433 142.251C95.5973 142.539 95.4771 143.693 96.2467 144.132L96.2844 144.153Z" fill="#2A8FEC"/>
<path fill-rule="evenodd" clip-rule="evenodd" d="M104.123 132.241V132.24L109.055 131.393L109.343 133.688L112.077 133.218L112.789 138.9L105.761 144.136L103.201 142.858L105.336 140.853C105.738 140.475 106.086 140.053 106.376 139.6L102.739 142.31L100.179 141.032L102.314 139.027C104.153 137.297 104.855 134.664 104.123 132.241Z" fill="#FFC4B8"/>
<path fill-rule="evenodd" clip-rule="evenodd" d="M99.3059 145.979H108.406L111.963 142.446L111.328 145.979H112.513L113.952 141.848L112.704 137.757L106.109 142.869C105.689 143.196 105.141 143.342 104.625 143.21C104.18 143.099 103.834 142.803 104.23 142.074L103.476 142.481C102.786 142.853 102.065 143.17 101.324 143.428L99.4545 144.076C98.6188 144.365 98.4986 145.519 99.2681 145.958L99.3059 145.979Z" fill="#2A8FEC"/>
<path fill-rule="evenodd" clip-rule="evenodd" d="M96.877 79.7534L98.6792 108.86L104.178 135.214C104.721 135.23 109.872 134.267 109.872 134.267C109.872 134.267 108.597 119.076 108.044 111.719C107.879 109.513 108.01 107.296 108.436 105.126L113.343 80.0728L96.877 79.7534Z" fill="#137E84"/>
<path fill-rule="evenodd" clip-rule="evenodd" d="M99.8984 79.7534L101.701 108.86L107.2 137.04C107.742 137.056 112.894 136.093 112.894 136.093C112.894 136.093 111.618 119.076 111.066 111.719C110.901 109.513 111.032 107.296 111.458 105.126L116.364 80.0728L99.8984 79.7534Z" fill="#1BB3BC"/>
<path fill-rule="evenodd" clip-rule="evenodd" d="M114.785 34.3933L114.843 34.4225C117.39 31.8751 117.382 27.731 114.825 25.174C112.506 22.8544 108.88 22.6324 106.325 24.5127C105.941 24.7583 105.595 25.0707 105.306 25.4441C104.434 26.4264 103.912 27.6107 103.737 28.8365L103.736 28.837L103.74 28.8393L101.987 34.3387L102.968 34.5576C102.885 35.1865 103.084 36.1154 103.287 36.8443C103.639 38.1039 104.868 38.9134 106.169 38.728C106.274 38.7135 106.383 38.6941 106.495 38.6683C106.644 38.6377 106.798 38.5957 106.96 38.5441C106.97 38.5409 106.981 38.5377 106.993 38.5345L106.436 39.4908L104.66 42.5519C103.794 44.0455 104.799 45.9257 106.529 46.0464C106.584 46.0529 106.641 46.0577 106.696 46.0626C106.813 46.0738 106.931 46.0788 107.049 46.0788C107.471 46.0819 107.907 46.0255 108.347 45.9061C108.653 45.8239 108.95 45.7126 109.235 45.5771C109.243 45.5723 109.25 45.569 109.258 45.5658C110.333 45.0498 111.149 44.1192 111.562 43.0049L114.272 35.6961L114.705 34.5318L114.697 34.535C114.727 34.4882 114.756 34.441 114.785 34.3933Z" fill="#FFC4B8"/>
<path fill-rule="evenodd" clip-rule="evenodd" d="M111.076 36.7933C109.247 38.1496 107.708 38.985 106.435 39.4801L106.991 38.5237C108.198 38.1803 109.362 37.7061 110.466 37.1094L111.057 36.7901L111.076 36.7933ZM102.966 34.5466L103.693 31.5742C103.693 31.5742 104.518 33.7829 102.966 34.5466Z" fill="#F4A48D"/>
<g clip-path="url(#clip0_1483_77170)">
<path fill-rule="evenodd" clip-rule="evenodd" d="M102.993 28.2101L102.991 28.2102C102.979 28.0354 102.974 27.8584 102.976 27.6792C102.977 27.59 102.98 27.5007 102.983 27.4108C102.997 27.1207 103.028 26.8276 103.078 26.5331C103.738 22.6079 107.437 19.9645 111.341 20.6292C112.609 20.8452 113.742 21.3835 114.672 22.1458C115.593 22.9015 116.315 23.8782 116.77 24.9804C116.878 25.2332 117.856 27.6474 118.243 32.8772C118.442 35.5706 118.645 36.1944 118.645 36.1944C118.645 36.1944 118.085 36.6847 117.177 37.2701L116.732 35.741L117.017 37.363C116.024 37.9201 114.602 38.8275 112.481 39.468L111.448 30.0306C110.19 30.2416 108.876 30.249 107.547 30.0231C107.407 29.9985 107.265 29.9724 107.128 29.9426C106.928 29.902 106.732 29.8563 106.537 29.8055L106 29.6634L105.624 29.5262C105.145 29.3587 104.683 29.1607 104.238 28.9358C103.805 28.7197 103.39 28.4769 102.993 28.2101ZM104.859 37.9829C105.098 38.2216 105.583 38.622 105.928 38.7433C105.92 38.889 105.909 39.0821 105.902 39.2679C105.163 39.3686 104.806 39.3045 104.806 39.3045L104.859 37.9829Z" fill="#34466B"/>
</g>
<path fill-rule="evenodd" clip-rule="evenodd" d="M85.4099 68.8688L87.1958 73.0911C87.2557 73.2328 87.4189 73.297 87.5576 73.2313C89.334 72.3919 100.929 68.2317 105.07 61.9859L101.075 54.7832C101.075 54.7832 98.0707 63.1811 85.4099 68.8688Z" fill="#D39E00"/>
<path fill-rule="evenodd" clip-rule="evenodd" d="M105.496 43.8286L100.218 52.4679C99.1517 54.2124 98.6859 56.2841 99.0166 58.3055C99.0719 58.6393 99.306 59.6795 99.3731 60.039C99.7033 61.8167 100.223 65.5923 99.4256 70.0198C98.7738 73.6345 97.3592 81.2048 97.7108 84.0427C97.7108 84.0427 108.259 86.087 116.94 82.6813C117.035 81.0483 116.924 74.6968 116.143 69.6737C115.754 67.1856 115.81 64.6467 116.332 62.1829C116.953 59.2483 118.016 53.5991 117.602 47.6182C117.207 41.89 113.354 40.1055 113.354 40.1055L105.496 43.8286Z" fill="#F6C854"/>
<path fill-rule="evenodd" clip-rule="evenodd" d="M99.823 90.7378C99.2756 90.7378 98.8265 91.1739 98.8077 91.7262L98.794 92.1196C93.7472 91.9806 89.6512 91.869 89.6512 91.869V94.7218L103.628 103.437C103.628 103.437 115.849 97.4789 117.305 96.7189L117.436 92.6536C117.354 92.6418 114.022 92.5447 109.693 92.4227L109.702 92.1319L109.703 92.0959C109.702 91.5469 109.27 91.0937 108.72 91.0749L107.373 91.0299L107.337 91.029C106.792 91.029 106.341 91.4635 106.322 92.0165L106.312 92.3279C104.952 92.2899 103.554 92.2512 102.176 92.213L102.188 91.8391L102.187 91.8415L102.188 91.8047C102.188 91.254 101.755 90.8024 101.206 90.7836L99.8565 90.7386H99.8589L99.823 90.7378ZM107.489 92.214L108.524 92.2486L108.52 92.3897C108.179 92.3801 107.834 92.3705 107.485 92.3607L107.489 92.214ZM99.9748 91.9236L101.01 91.9575L101.002 92.1806C100.655 92.1709 100.309 92.1614 99.967 92.152L99.9748 91.9236Z" fill="#CEDEE7"/>
<path fill-rule="evenodd" clip-rule="evenodd" d="M89.6516 94.7216V109.952L116.86 110.498L117.305 96.7188C115.847 97.4799 103.628 103.437 103.628 103.437L89.6516 94.7216ZM108.7 92.215L108.774 88.599L99.9256 88.2578L99.8602 91.8968L101.063 91.9516L101.268 89.6323L107.388 89.8531L107.464 92.1807L108.7 92.215Z" fill="#9BC3D3"/>
<path fill-rule="evenodd" clip-rule="evenodd" d="M104.504 100.606L104.277 106.71L103.497 107.695L102.92 106.786L103.109 100.606H104.504Z" fill="#CEDEE7"/>
<path fill-rule="evenodd" clip-rule="evenodd" d="M104.644 105.673H102.659V105.192H104.644V105.673ZM104.473 101.483L105.216 101.506L105.27 99.7406L102.28 99.6494L102.226 101.414L103.085 101.441L103.11 100.606H104.505L104.473 101.483Z" fill="#DEEDF2"/>
<path fill-rule="evenodd" clip-rule="evenodd" d="M84.7662 69.7856L83.2461 70.4297L80.312 70.065L77.83 72.7605C77.83 72.7605 78.1814 73.3356 79.1471 73.1585L80.5543 72.2303L84.2891 74.7937L86.291 73.1096L84.7662 69.7856Z" fill="#FFC4B8"/>
<path fill-rule="evenodd" clip-rule="evenodd" d="M80.8519 77.2683C81.0279 76.7682 80.1803 76.0135 78.9604 75.5842C77.7404 75.1549 76.6069 75.2125 76.4311 75.7127C76.255 76.2129 77.1026 76.9675 78.3225 77.3968C79.5425 77.8261 80.676 77.7686 80.8519 77.2683Z" fill="#FFC4B8"/>
<path fill-rule="evenodd" clip-rule="evenodd" d="M107.709 83.5161L106.061 85.344C106.02 85.3913 105.985 85.4459 105.959 85.5035L104.847 88.0077C104.812 88.0867 104.809 88.176 104.84 88.2573C104.935 88.509 105.276 88.543 105.418 88.3141C105.638 87.9612 105.929 87.4931 106.191 87.0745L105.085 90.272C105.012 90.4832 105.025 90.7135 105.118 90.9151L105.449 91.6297C105.706 92.1849 106.442 92.2979 106.851 91.8446L109.133 89.3211C109.519 88.8951 109.78 88.371 109.889 87.8054L110.328 85.5264L110.34 85.0871L110.512 84.5558L107.709 83.5161Z" fill="#FFC4B8"/>
<path fill-rule="evenodd" clip-rule="evenodd" d="M113.792 44.0455C113.187 42.9719 111.968 42.5441 110.452 42.7547C108.919 42.967 108.131 44.0381 107.946 45.098C107.605 47.0476 105.787 52.2892 107.807 58.964C108.363 64.7383 106.248 70.2638 105.929 81.0134C105.926 81.1212 105.929 81.2277 106.056 81.2679L110.833 82.7539C112.016 71.3869 114.229 58.6316 114.4 48.9488C114.42 47.811 114.503 47.5891 114.461 46.5434C114.436 45.9162 114.297 44.9412 113.792 44.0455Z" fill="#D39E00"/>
<path fill-rule="evenodd" clip-rule="evenodd" d="M108.637 60.1117C109.222 65.8652 107.694 71.4558 107.714 82.2102C107.715 82.318 107.72 82.4243 107.821 82.4604L111.627 83.7923C115.369 70.3832 114.666 61.719 114.703 61.1506C115.472 49.3293 113.566 45.2548 113.345 44.7919C112.84 43.7385 111.542 43.2667 110.352 43.5258C109.148 43.7872 108.515 45.1831 108.396 46.2485C108.176 48.208 106.875 53.5052 108.637 60.1117Z" fill="#F6C854"/>
<path fill-rule="evenodd" clip-rule="evenodd" d="M85.547 69.1919L84.6973 69.6339L86.365 73.2692L87.1074 72.8813L85.547 69.1919Z" fill="white"/>
<path fill-rule="evenodd" clip-rule="evenodd" d="M104.371 45.7127V42.3979L112.939 38.3433L113.355 40.1054L104.371 45.7127Z" fill="white"/>
<path fill-rule="evenodd" clip-rule="evenodd" d="M107.879 82.4805L107.489 83.4338L111.005 84.7383L111.441 83.7272L107.879 82.4805Z" fill="white"/>
<g clip-path="url(#clip1_1483_77170)">
<path fill-rule="evenodd" clip-rule="evenodd" d="M54.7455 146.454V145.848H61.6389C61.7621 146.609 64.3184 147.494 64.3184 147.494L68.871 148.462L68.4492 149.073H62.2772L63.9992 149.404L63.3958 150.094H47.498V148.008V146.454H54.7455Z" fill="#34466B"/>
<path fill-rule="evenodd" clip-rule="evenodd" d="M64.011 85.6714L65.1757 116.783L62.2849 146.501L56.125 146.784H54.4716L54.3969 145.214L54.0698 143.114L51.2779 114.256L47.459 85.6714H64.011Z" fill="#9BC3D3"/>
<path fill-rule="evenodd" clip-rule="evenodd" d="M43.0742 85.6714L47.2087 116.356L46.9234 147.04H55.8456L60.8445 116.356L61.6287 85.6714H43.0742Z" fill="#CEDEE7"/>
<path fill-rule="evenodd" clip-rule="evenodd" d="M49.6043 27.3343C47.9213 26.1219 46.8281 24.1676 46.8281 21.965C46.8281 18.2899 49.8715 15.3062 53.62 15.3062C57.0812 15.3062 59.9411 17.85 60.3592 21.133C60.4323 21.4751 60.4855 21.8209 60.5221 22.1667L60.5222 22.1673L60.5233 22.1749L60.5236 22.1775C60.5344 22.281 60.5438 22.3844 60.5518 22.4876L61.0196 27.6259L59.9548 27.9753L59.9437 27.9778L59.9437 27.9778C59.9172 28.0673 59.9026 28.1157 59.9026 28.1157L59.8737 28.8108L59.8214 30.1099C59.8033 30.5398 59.7116 30.9611 59.5519 31.3572C59.4403 31.6368 59.2929 31.9045 59.1128 32.153C58.9012 32.4446 58.6485 32.7063 58.3664 32.9273C58.2194 33.0433 58.0632 33.1467 57.8999 33.2388C57.8136 33.2878 57.7274 33.3327 57.6379 33.3749L57.6373 33.3752L58.0947 41.4914C58.0947 41.4914 55.678 42.2053 53.0317 41.6388C51.4321 41.2993 49.747 40.4886 48.4615 38.7726C48.4615 38.7726 49.9831 32.3071 49.6043 27.3343Z" fill="#FFC4B8"/>
<path fill-rule="evenodd" clip-rule="evenodd" d="M53.0565 41.5429C51.4568 41.2034 49.7718 40.3927 48.4863 38.6767C48.4863 38.6767 50.132 31.7488 49.5742 26.7141C49.5742 26.7141 53.3178 35.6622 53.0565 41.5429ZM59.9533 28.0046C59.5806 28.1118 59.2137 27.8247 59.238 27.445L59.3947 24.9976L59.9533 28.0046Z" fill="#F4A48D"/>
<g clip-path="url(#clip2_1483_77170)">
<path fill-rule="evenodd" clip-rule="evenodd" d="M60.0397 21.3194L59.6619 21.2562C57.5973 20.779 57.0381 19.8474 55.2212 18.687C55.044 20.127 54.3185 21.4135 53.2139 22.5941L53.2363 22.6257C54.1683 24.0948 55.306 26.7007 55.1078 27.6946C55.0718 27.8749 54.3714 28.7211 53.5913 29.1168C52.2572 29.7936 51.5235 27.2774 51.5214 27.2703C51.9109 26.8505 52.0889 26.0939 51.9448 25.2781L51.9403 25.2529L51.9358 25.2291L51.9345 25.2223L51.931 25.2045L51.9295 25.1974L51.9247 25.1736L51.919 25.147L51.9171 25.1383L51.9131 25.1206L51.9107 25.1103L51.9071 25.0943L51.9045 25.0833L51.9008 25.0681L51.8981 25.0569L51.8943 25.042L51.8915 25.0307L51.8877 25.0159L51.8848 25.0047L51.8808 24.9898L51.8778 24.9789L51.8736 24.9637L51.8707 24.9533L51.8661 24.9371L51.8635 24.9278L51.8576 24.908L51.856 24.9025L51.8484 24.8773L51.8463 24.8704L51.8406 24.8522L51.8376 24.8428L51.8326 24.8272L51.8292 24.817L51.8244 24.8024L51.8209 24.7919L51.816 24.7777L51.8124 24.767L51.8075 24.753L51.8038 24.7425L51.7987 24.7285L51.795 24.7181L51.7898 24.7039L51.7861 24.6939L51.7804 24.6791L51.777 24.6698L51.7705 24.6532L51.7677 24.646L51.7583 24.6223L51.7568 24.6187L51.7487 24.5987L51.7453 24.5905L51.7389 24.5753L51.735 24.5659L51.729 24.552L51.7248 24.5422L51.7189 24.5288L51.7146 24.5189L51.7087 24.5058L51.7042 24.4959L51.6982 24.4829L51.6937 24.4731L51.6876 24.46L51.6831 24.4505L51.6767 24.4371L51.6724 24.4281L51.6653 24.4136L51.6615 24.4059L51.6519 24.3867L51.6505 24.3838L51.6393 24.362L51.6358 24.3552L51.628 24.3403L51.6235 24.3319L51.6165 24.3187L51.6116 24.3098L51.6048 24.2973L51.5998 24.2882L51.5931 24.2761L51.5879 24.2669L51.5811 24.255L51.5759 24.2459L51.569 24.2339L51.5638 24.2251L51.5566 24.213L51.5516 24.2045L51.5439 24.1917L51.5392 24.1841L51.5301 24.1693L51.5268 24.1639L51.5142 24.1439L51.5112 24.1392L51.5015 24.1241L51.4967 24.1168L51.4886 24.1044L51.4833 24.0964L51.4756 24.085L51.47 24.0767L51.4625 24.0657L51.4567 24.0574L51.4492 24.0466L51.4434 24.0383L51.4358 24.0276L51.43 24.0194L51.4222 24.0087L51.4164 24.0008L51.4082 23.9897L51.4028 23.9824L51.3937 23.9703L51.3891 23.9642L51.3753 23.9463L51.3743 23.945L51.3613 23.9286L51.3564 23.9225L51.3473 23.911L51.3415 23.904L51.3331 23.8937L51.327 23.8863L51.3188 23.8765L51.3125 23.8691L51.3044 23.8595L51.298 23.8521L51.2898 23.8427L51.2834 23.8354L51.2751 23.826L51.2687 23.819L51.2602 23.8095L51.254 23.8027L51.2448 23.7928L51.2392 23.7867L51.2279 23.7748L51.2243 23.771L51.2094 23.7556L51.2046 23.7507L51.1943 23.7403L51.1882 23.7342L51.1791 23.7252L51.1726 23.7188L51.1638 23.7103L51.157 23.7038L51.1484 23.6957L51.1415 23.6892L51.133 23.6812L51.126 23.6748L51.1173 23.667L51.1104 23.6607L51.1015 23.6529L51.0947 23.6469L51.0855 23.6389L51.079 23.6332L51.0687 23.6245L51.0632 23.6199L51.0475 23.6069L51.0433 23.6035L51.0316 23.594L51.0251 23.589L51.0156 23.5814L51.0085 23.576L50.9994 23.569L50.9921 23.5635L50.9833 23.5569L50.9758 23.5514L50.967 23.545L50.9595 23.5395L50.9507 23.5333L50.9431 23.528L50.9342 23.5218L50.9267 23.5166L50.9176 23.5105L50.9102 23.5056L50.9006 23.4993L50.8937 23.4948L50.8818 23.4872L50.8772 23.4843L50.8752 23.4831L50.8609 23.4742L50.854 23.4701L50.8442 23.4642L50.8366 23.4598L50.8275 23.4545L50.8196 23.45L50.8107 23.445L50.8027 23.4405L50.7939 23.4358L50.7857 23.4314L50.777 23.4268L50.7688 23.4225L50.76 23.4181L50.75 23.413L50.7487 23.4124L50.7337 23.4051L50.7323 23.4044L50.7172 23.3973L50.7163 23.3969C50.7004 23.3896 50.6844 23.3826 50.6684 23.376L50.6676 23.3756L50.6521 23.3694L50.651 23.3689L50.6356 23.3629L50.6345 23.3625L50.6188 23.3567L50.6184 23.3565C50.6022 23.3506 50.5859 23.3451 50.5696 23.3399L50.5689 23.3397L50.5531 23.3348L50.5521 23.3345L50.5363 23.3299L50.5356 23.3297C50.5138 23.3235 50.4918 23.318 50.4698 23.3132L50.4693 23.3131L50.4531 23.3097L50.4525 23.3095L50.4362 23.3063L50.436 23.3063C50.4139 23.3022 50.3916 23.2988 50.3694 23.2961L50.3691 23.2961L50.3525 23.2942L50.3523 23.2942C50.3245 23.2913 50.2965 23.2895 50.2686 23.289C50.1997 23.2876 50.1308 23.2934 50.0623 23.3068C49.2821 23.4598 48.8498 24.5446 49.0975 25.7279C49.1838 26.1399 49.3411 26.5098 49.5426 26.8105C49.5141 27.1503 49.4766 27.4832 49.4313 27.8086C48.5941 26.911 47.5176 25.9755 47.109 24.52C45.7597 19.7127 48.4891 16.123 52.3918 15.3578C55.9062 14.6688 59.4396 16.9053 60.4789 19.9567C60.8085 20.9243 60.8807 23.6632 60.518 25.2979L60.0397 21.3194Z" fill="#9BC3D3"/>
</g>
<path fill-rule="evenodd" clip-rule="evenodd" d="M65.6794 87.6013H41.3868C41.3868 87.6013 41.0043 64.3755 41.3868 55.7462C41.7692 47.117 42.6883 43.3448 44.3514 40.3272C46.3488 36.7037 48.3429 35.8208 48.3429 35.8208L57.3959 39.6521L63.5992 54.7561L63.7689 57.4353C66.8536 61.5807 71.1455 65.5659 77.3384 68.1935L77.3376 68.1959L74.1409 74.5376C70.5822 72.9888 67.3686 71.0236 64.4913 68.8418L65.6794 87.6013Z" fill="#9BC3D3"/>
<path fill-rule="evenodd" clip-rule="evenodd" d="M63.5991 54.7561L58.5921 48.2016L59.0324 45.9387L56.8535 43.2975L57.3958 39.6514L63.5991 54.7561Z" fill="#1BB3BC"/>
<path fill-rule="evenodd" clip-rule="evenodd" d="M77.7478 70.0357L81.0957 69.5166L82.5096 69.8726L83.1515 71.7804L87.2162 74.5153C87.2162 74.5153 87.7898 75.6472 86.3548 76.8729C84.9207 78.0985 83.1035 77.2029 83.1035 77.2029L75.8613 74.0907L77.7478 70.0357Z" fill="#A66555"/>
<path fill-rule="evenodd" clip-rule="evenodd" d="M48.082 36.6025L49.3892 32.6885L57.9803 37.3099L57.5706 40.0763L48.082 36.6025ZM77.0048 68.4822L74.2196 74.3123L75.8124 75.0437L78.5976 69.2136L77.0048 68.4822Z" fill="#CEDEE7"/>
<path fill-rule="evenodd" clip-rule="evenodd" d="M57.8974 37.8701L58.8655 39.0185L59.0447 40.0764C59.0447 40.0764 61.373 43.8171 63.0963 53.531L59.0872 43.769L58.5923 40.3269L57.6113 39.8024L57.8974 37.8701Z" fill="#2A8FEC"/>
</g>
<defs>
<clipPath id="clip0_1483_77170">
<rect width="15.6688" height="18.9412" fill="white" transform="matrix(-1 0 0 1 118.645 20.5269)"/>
</clipPath>
<clipPath id="clip1_1483_77170">
<rect width="74.4615" height="134.277" fill="white" transform="translate(21.416 12.0615)"/>
</clipPath>
<clipPath id="clip2_1483_77170">
<rect width="14.1498" height="13.8726" fill="white" transform="translate(46.7598 15.2324)"/>
</clipPath>
</defs>
</svg>
