<svg width="160" height="161" viewBox="0 0 160 161" fill="none" xmlns="http://www.w3.org/2000/svg">
<path fill-rule="evenodd" clip-rule="evenodd" d="M151.477 70.1079C149.275 62.2095 156.274 61.9048 156.428 51.7275C156.491 47.5652 154.211 43.326 148.724 41.3813C146.028 40.426 143.341 39.7691 140.941 38.2495C135.474 34.7868 135.573 28.1977 134.081 22.5809C130.806 10.2444 118.199 0.443623 105.439 0.762446C96.2401 0.991858 87.9237 1.27382 79.5374 9.08166C73.799 14.4244 70.0695 20.9981 64.7421 26.506C59.1001 32.3385 52.2252 35.137 44.5056 37.0111C37.2048 38.7832 29.2629 40.8919 23.675 46.2064C18.4237 51.2005 19.1891 56.424 21.4405 62.5562C23.9237 69.3181 18.5397 73.9185 12.926 76.5519C8.19934 78.7687 0.287182 83.2781 0.0283587 91.593C-0.772033 117.348 15.5868 117.451 21.686 119.899C77.7935 142.417 99.3256 125.048 123.116 125.4C146.832 125.75 160.427 97.0687 159.603 88.6224C158.558 77.8981 153.015 75.6232 151.477 70.1079Z" fill="#EAF7FE"/>
<path fill-rule="evenodd" clip-rule="evenodd" d="M107.472 104.427C88.6068 103.417 68.7463 107.981 58.6775 111.445C52.6453 113.52 50.9883 117.33 44.6783 118.361C32.0055 120.432 2.24832 121.044 1.65992 124.096C0.501556 130.103 10.5409 133.313 33.6958 136.09C33.1958 136.502 36.516 144.018 55.1838 145.715C62.5704 146.387 74.9603 145.718 79.712 144.25C87.0155 141.994 94.6017 140.781 102.244 140.608C129.425 139.993 150.739 136.906 150.989 132.24C151.073 130.68 149.503 128.518 147.045 127.261C145.513 126.478 147.762 125.817 148.285 125.629C154.699 123.321 158.297 120.743 158.428 118.697C158.839 112.275 135.164 105.91 107.472 104.427Z" fill="#CEDEE7"/>
<path fill-rule="evenodd" clip-rule="evenodd" d="M136.762 121.931L146.775 126.745H63.9219L75.2607 121.931H136.762Z" fill="#34466B"/>
<path fill-rule="evenodd" clip-rule="evenodd" d="M82.3473 123.704L79.1836 123.701L81.2351 122.804H84.1435L82.3473 123.704Z" fill="#9BC3D3"/>
<path fill-rule="evenodd" clip-rule="evenodd" d="M78.4884 123.7L75.3242 123.697L77.6869 122.804H80.5959L78.4884 123.7Z" fill="#9BC3D3"/>
<path fill-rule="evenodd" clip-rule="evenodd" d="M90.0665 123.71L86.9023 123.708L88.3317 122.804H91.2402L90.0665 123.71Z" fill="#9BC3D3"/>
<path fill-rule="evenodd" clip-rule="evenodd" d="M86.2071 123.707L83.043 123.704L84.7832 122.804H87.6921L86.2071 123.707Z" fill="#9BC3D3"/>
<path fill-rule="evenodd" clip-rule="evenodd" d="M97.8438 123.717L94.6797 123.714L95.4811 122.804H98.3896L97.8438 123.717Z" fill="#9BC3D3"/>
<path fill-rule="evenodd" clip-rule="evenodd" d="M93.9884 123.714L90.8242 123.711L91.9374 122.804H94.8458L93.9884 123.714Z" fill="#9BC3D3"/>
<path fill-rule="evenodd" clip-rule="evenodd" d="M105.566 123.724L102.402 123.721L102.581 122.804H105.49L105.566 123.724Z" fill="#9BC3D3"/>
<path fill-rule="evenodd" clip-rule="evenodd" d="M101.707 123.721L98.543 123.718L99.0327 122.804H101.942L101.707 123.721Z" fill="#9BC3D3"/>
<path fill-rule="evenodd" clip-rule="evenodd" d="M113.309 123.731L110.146 123.728L109.699 122.804H112.608L113.309 123.731Z" fill="#9BC3D3"/>
<path fill-rule="evenodd" clip-rule="evenodd" d="M109.451 123.728L106.287 123.725L106.152 122.804H109.061L109.451 123.728Z" fill="#9BC3D3"/>
<path fill-rule="evenodd" clip-rule="evenodd" d="M121.029 123.738L117.866 123.735L116.797 122.804H119.706L121.029 123.738Z" fill="#9BC3D3"/>
<path fill-rule="evenodd" clip-rule="evenodd" d="M117.172 123.734L114.008 123.732L113.25 122.804H116.158L117.172 123.734Z" fill="#9BC3D3"/>
<path fill-rule="evenodd" clip-rule="evenodd" d="M128.81 123.745L125.646 123.742L123.949 122.804H126.858L128.81 123.745Z" fill="#9BC3D3"/>
<path fill-rule="evenodd" clip-rule="evenodd" d="M124.952 123.741L121.788 123.738L120.402 122.804H123.311L124.952 123.741Z" fill="#9BC3D3"/>
<path fill-rule="evenodd" clip-rule="evenodd" d="M136.53 123.752L133.367 123.749L131.047 122.804H133.956L136.53 123.752Z" fill="#9BC3D3"/>
<path fill-rule="evenodd" clip-rule="evenodd" d="M132.668 123.748L129.504 123.746L127.496 122.804H130.405L132.668 123.748Z" fill="#9BC3D3"/>
<path fill-rule="evenodd" clip-rule="evenodd" d="M80.3029 124.786L76.832 124.78L78.8754 123.883L82.091 123.886L80.3029 124.786Z" fill="#9BC3D3"/>
<path fill-rule="evenodd" clip-rule="evenodd" d="M76.0686 124.778L72.5977 124.772L74.9523 123.878L78.1679 123.882L76.0686 124.778Z" fill="#9BC3D3"/>
<path fill-rule="evenodd" clip-rule="evenodd" d="M88.7717 124.801L85.3008 124.795L86.7211 123.891L89.9368 123.894L88.7717 124.801Z" fill="#9BC3D3"/>
<path fill-rule="evenodd" clip-rule="evenodd" d="M84.5369 124.793L81.0664 124.787L82.798 123.886L86.0137 123.89L84.5369 124.793Z" fill="#9BC3D3"/>
<path fill-rule="evenodd" clip-rule="evenodd" d="M97.3029 124.816L93.832 124.81L94.6253 123.898L97.8405 123.902L97.3029 124.816Z" fill="#9BC3D3"/>
<path fill-rule="evenodd" clip-rule="evenodd" d="M93.072 124.808L89.6016 124.802L90.7057 123.895L93.9213 123.898L93.072 124.808Z" fill="#9BC3D3"/>
<path fill-rule="evenodd" clip-rule="evenodd" d="M105.772 124.831L102.301 124.825L102.471 123.907L105.687 123.91L105.772 124.831Z" fill="#9BC3D3"/>
<path fill-rule="evenodd" clip-rule="evenodd" d="M101.537 124.824L98.0664 124.817L98.548 123.903L101.764 123.906L101.537 124.824Z" fill="#9BC3D3"/>
<path fill-rule="evenodd" clip-rule="evenodd" d="M114.27 124.846L110.799 124.84L110.344 123.916L113.559 123.919L114.27 124.846Z" fill="#9BC3D3"/>
<path fill-rule="evenodd" clip-rule="evenodd" d="M110.036 124.839L106.565 124.832L106.422 123.911L109.638 123.914L110.036 124.839Z" fill="#9BC3D3"/>
<path fill-rule="evenodd" clip-rule="evenodd" d="M122.736 124.861L119.265 124.855L118.188 123.923L121.404 123.926L122.736 124.861Z" fill="#9BC3D3"/>
<path fill-rule="evenodd" clip-rule="evenodd" d="M118.503 124.854L115.031 124.847L114.266 123.919L117.481 123.923L118.503 124.854Z" fill="#9BC3D3"/>
<path fill-rule="evenodd" clip-rule="evenodd" d="M131.27 124.876L127.799 124.87L126.094 123.932L129.309 123.935L131.27 124.876Z" fill="#9BC3D3"/>
<path fill-rule="evenodd" clip-rule="evenodd" d="M127.036 124.869L123.566 124.863L122.172 123.928L125.387 123.931L127.036 124.869Z" fill="#9BC3D3"/>
<path fill-rule="evenodd" clip-rule="evenodd" d="M139.736 124.892L136.265 124.885L133.938 123.94L137.153 123.943L139.736 124.892Z" fill="#9BC3D3"/>
<path fill-rule="evenodd" clip-rule="evenodd" d="M135.503 124.883L132.032 124.877L130.016 123.936L133.231 123.939L135.503 124.883Z" fill="#9BC3D3"/>
<path fill-rule="evenodd" clip-rule="evenodd" d="M78.2075 125.84L74.4375 125.83L76.4808 124.933L79.9951 124.939L78.2075 125.84Z" fill="#9BC3D3"/>
<path fill-rule="evenodd" clip-rule="evenodd" d="M73.6098 125.828L69.8398 125.819L72.1944 124.924L75.7087 124.932L73.6098 125.828Z" fill="#9BC3D3"/>
<path fill-rule="evenodd" clip-rule="evenodd" d="M87.4028 125.863L83.6328 125.853L85.0541 124.949L88.5683 124.956L87.4028 125.863Z" fill="#9BC3D3"/>
<path fill-rule="evenodd" clip-rule="evenodd" d="M82.8051 125.851L79.0352 125.842L80.7672 124.941L84.282 124.948L82.8051 125.851Z" fill="#9BC3D3"/>
<path fill-rule="evenodd" clip-rule="evenodd" d="M105.748 125.909L92.9062 125.877L93.6991 124.966L105.671 124.988L105.748 125.909Z" fill="#9BC3D3"/>
<path fill-rule="evenodd" clip-rule="evenodd" d="M92.0747 125.875L88.3047 125.865L89.4093 124.957L92.9235 124.964L92.0747 125.875Z" fill="#9BC3D3"/>
<path fill-rule="evenodd" clip-rule="evenodd" d="M115.099 125.932L111.33 125.922L110.875 124.998L114.39 125.005L115.099 125.932Z" fill="#9BC3D3"/>
<path fill-rule="evenodd" clip-rule="evenodd" d="M110.503 125.921L106.733 125.911L106.59 124.99L110.104 124.997L110.503 125.921Z" fill="#9BC3D3"/>
<path fill-rule="evenodd" clip-rule="evenodd" d="M124.297 125.955L120.527 125.946L119.449 125.014L122.964 125.021L124.297 125.955Z" fill="#9BC3D3"/>
<path fill-rule="evenodd" clip-rule="evenodd" d="M119.7 125.944L115.93 125.934L115.164 125.006L118.678 125.012L119.7 125.944Z" fill="#9BC3D3"/>
<path fill-rule="evenodd" clip-rule="evenodd" d="M133.565 125.979L129.796 125.969L128.09 125.031L131.605 125.038L133.565 125.979Z" fill="#9BC3D3"/>
<path fill-rule="evenodd" clip-rule="evenodd" d="M128.968 125.967L125.199 125.957L123.805 125.022L127.319 125.029L128.968 125.967Z" fill="#9BC3D3"/>
<path fill-rule="evenodd" clip-rule="evenodd" d="M142.762 126.001L138.992 125.991L136.664 125.046L140.178 125.053L142.762 126.001Z" fill="#9BC3D3"/>
<path fill-rule="evenodd" clip-rule="evenodd" d="M138.165 125.99L134.395 125.981L132.379 125.039L135.894 125.045L138.165 125.99Z" fill="#9BC3D3"/>
<path fill-rule="evenodd" clip-rule="evenodd" d="M63.9219 128.062H146.775V126.745H63.9219V128.062Z" fill="#9BC3D3"/>
<path fill-rule="evenodd" clip-rule="evenodd" d="M24.8558 21.6065L24.4688 21.18C24.8927 20.7952 25.3237 20.4157 25.7612 20.0415L26.1354 20.4793C25.7013 20.8498 25.2752 21.2255 24.8558 21.6065ZM22.4009 23.9803L21.9883 23.5786C22.3885 23.1671 22.7958 22.7613 23.2107 22.3604L23.6112 22.7741C23.2009 23.1713 22.7969 23.5733 22.4009 23.9803ZM20.1015 26.4958L19.6641 26.1205C20.0371 25.686 20.4185 25.2561 20.8067 24.8311L21.2317 25.2199C20.8477 25.6401 20.4701 26.0655 20.1015 26.4958ZM17.964 29.1502L17.5039 28.8035C17.8499 28.3461 18.203 27.8932 18.5652 27.4448L19.0128 27.8066C18.6548 28.2501 18.3054 28.6981 17.964 29.1502ZM15.9917 31.9344L15.5117 31.6166C15.8283 31.1385 16.1525 30.6642 16.4856 30.1943L16.9559 30.5271C16.6261 30.9917 16.3049 31.4612 15.9917 31.9344ZM107.998 32.0767C107.685 31.602 107.364 31.131 107.035 30.6634L107.506 30.3325C107.839 30.8042 108.163 31.2805 108.479 31.7597L107.998 32.0767ZM14.1986 34.8363L13.6992 34.549C13.9861 34.0517 14.2806 33.5581 14.5824 33.0684L15.073 33.371C14.7733 33.8556 14.4819 34.3438 14.1986 34.8363ZM109.788 34.9876C109.505 34.4948 109.214 34.005 108.914 33.5182L109.405 33.2163C109.708 33.708 110.002 34.203 110.287 34.7011L109.788 34.9876ZM12.5866 37.8456L12.0703 37.5896C12.3257 37.0754 12.5887 36.5645 12.8599 36.0566L13.3681 36.3285C13.0992 36.8307 12.8385 37.3363 12.5866 37.8456ZM111.398 38.0035C111.146 37.4934 110.886 36.9867 110.617 36.4826L111.125 36.2119C111.396 36.7213 111.66 37.2333 111.914 37.7483L111.398 38.0035ZM11.1676 40.949L10.6367 40.7262C10.8593 40.1961 11.0906 39.6698 11.3295 39.1465L11.8535 39.3859C11.6169 39.9039 11.388 40.425 11.1676 40.949ZM112.817 41.1138C112.598 40.5893 112.37 40.0672 112.133 39.5477L112.657 39.3086C112.896 39.8338 113.127 40.3616 113.348 40.8917L112.817 41.1138ZM9.94168 44.1355L9.39844 43.9461C9.58739 43.4033 9.78534 42.8634 9.99224 42.3262L10.53 42.5329C10.3252 43.0644 10.1294 43.599 9.94168 44.1355ZM114.034 44.3059C113.848 43.7687 113.653 43.2334 113.449 42.7003L113.987 42.4951C114.193 43.0338 114.39 43.5748 114.579 44.1177L114.034 44.3059ZM8.91786 47.3927L8.36328 47.2368C8.5191 46.6834 8.68321 46.1327 8.85649 45.583L9.40535 45.7562C9.2344 46.2994 9.07135 46.8449 8.91786 47.3927ZM115.054 47.5674C114.902 47.0193 114.741 46.4734 114.57 45.9286L115.12 45.7573C115.292 46.3073 115.455 46.8596 115.609 47.4134L115.054 47.5674ZM8.09373 50.7073L7.53125 50.5857C7.65289 50.0237 7.78262 49.4635 7.92101 48.9048L8.48011 49.0433C8.34281 49.596 8.21413 50.1509 8.09373 50.7073ZM115.865 50.8865C115.747 50.3301 115.62 49.7748 115.485 49.2206L116.043 49.0839C116.181 49.6438 116.309 50.2043 116.428 50.7675L115.865 50.8865ZM7.47912 54.0669L6.91016 53.9803C6.99686 53.4119 7.09116 52.8442 7.19518 52.2783L7.762 52.3822C7.65926 52.9424 7.5648 53.5041 7.47912 54.0669ZM116.471 54.2497C116.388 53.6865 116.296 53.1248 116.195 52.5634L116.762 52.4614C116.864 53.0284 116.957 53.5965 117.04 54.1653L116.471 54.2497ZM7.06972 57.4582L6.49609 57.4066C6.5479 56.8337 6.60745 56.2614 6.67665 55.6899L7.24798 55.7592C7.17988 56.3243 7.12032 56.8909 7.06972 57.4582ZM116.862 57.6429C116.815 57.0759 116.758 56.5093 116.691 55.9435L117.264 55.8765C117.33 56.4483 117.388 57.0213 117.436 57.5947L116.862 57.6429ZM6.86882 60.869L6.29297 60.8531C6.30882 60.2775 6.334 59.703 6.36732 59.1289L6.94189 59.162C6.90876 59.7305 6.88467 60.2994 6.86882 60.869ZM117.046 61.0546C117.033 60.4857 117.011 59.9165 116.98 59.3477L117.555 59.3164C117.587 59.8913 117.608 60.4665 117.621 61.0418L117.046 61.0546ZM6.30548 64.3054C6.28575 63.7298 6.27506 63.1545 6.27344 62.5793L6.84925 62.5774C6.85087 63.1466 6.8616 63.7162 6.88129 64.2858L6.30548 64.3054ZM117.595 64.4941L117.019 64.4715C117.042 63.9026 117.055 63.333 117.06 62.7634L117.636 62.7679C117.631 63.3436 117.618 63.9192 117.595 64.4941ZM6.52954 67.7507C6.4745 67.1773 6.42771 66.6036 6.39062 66.0295L6.96531 65.9922C7.00235 66.5603 7.04798 67.1276 7.10313 67.695L6.52954 67.7507ZM117.354 67.9372L116.781 67.8793C116.838 67.3131 116.887 66.7453 116.926 66.1772L117.501 66.2172C117.46 66.7916 117.411 67.365 117.354 67.9372ZM6.96793 71.1753C6.87731 70.6061 6.79524 70.0361 6.72266 69.4657L7.29399 69.3931C7.36552 69.9574 7.44638 70.521 7.53681 71.0838L6.96793 71.1753ZM116.9 71.3591L116.332 71.2658C116.424 70.7037 116.507 70.1405 116.582 69.5762L117.153 69.6515C117.078 70.2218 116.993 70.791 116.9 71.3591ZM7.61661 74.566C7.49045 74.0039 7.37367 73.4403 7.26562 72.8756L7.83135 72.7676C7.93815 73.3263 8.05403 73.8842 8.17883 74.4402L7.61661 74.566ZM116.237 74.7457L115.676 74.6184C115.803 74.0627 115.921 73.5056 116.03 72.9473L116.595 73.0576C116.484 73.6219 116.365 74.1847 116.237 74.7457ZM8.47559 77.9105C8.31483 77.3575 8.1624 76.8018 8.01953 76.245L8.57735 76.1016C8.71916 76.6527 8.86923 77.2024 9.02892 77.7498L8.47559 77.9105ZM115.369 78.0852L114.816 77.9229C114.976 77.3766 115.129 76.8281 115.271 76.2773L115.829 76.4223C115.684 76.9787 115.531 77.5332 115.369 78.0852ZM9.54347 81.1949C9.34831 80.6524 9.16214 80.1076 8.98437 79.561L9.53214 79.3833C9.70757 79.9243 9.89265 80.4634 10.0855 81.0002L9.54347 81.1949ZM114.3 81.3639L113.758 81.1681C113.952 80.6328 114.137 80.0944 114.314 79.5542L114.862 79.733C114.683 80.2789 114.495 80.8229 114.3 81.3639ZM10.8127 84.4069C10.5837 83.8772 10.3639 83.3453 10.1523 82.8111L10.6877 82.5991C10.897 83.1277 11.1146 83.6547 11.3411 84.1788L10.8127 84.4069ZM113.025 84.5688L112.496 84.3396C112.723 83.8174 112.942 83.2919 113.151 82.7637L113.686 82.9764C113.475 83.5102 113.254 84.0414 113.025 84.5688ZM12.282 87.5338C12.02 87.0196 11.7675 86.5019 11.5234 85.9816L12.0442 85.7373C12.286 86.2516 12.5362 86.7639 12.7948 87.2729L12.282 87.5338ZM111.552 87.6883L111.039 87.4271C111.297 86.9196 111.548 86.4087 111.79 85.8948L112.311 86.1399C112.066 86.6595 111.813 87.1756 111.552 87.6883ZM13.9435 90.5631C13.6498 90.0658 13.3659 89.5647 13.0898 89.0614L13.5948 88.7847C13.8676 89.2831 14.1492 89.7785 14.4393 90.271L13.9435 90.5631ZM109.89 90.7097L109.395 90.4168C109.684 89.9263 109.966 89.4324 110.24 88.9351L110.745 89.2121C110.468 89.7151 110.183 90.2143 109.89 90.7097ZM15.7891 93.4841C15.4657 93.0056 15.1506 92.5233 14.8438 92.0377L15.3305 91.7305C15.6343 92.2108 15.9461 92.6878 16.2657 93.1622L15.7891 93.4841ZM108.047 93.6207L107.57 93.2977C107.89 92.8263 108.202 92.3508 108.507 91.8716L108.993 92.1795C108.686 92.6641 108.37 93.1444 108.047 93.6207ZM17.8093 96.2873C17.4573 95.8292 17.1132 95.3669 16.7774 94.9016L17.2442 94.5646C17.5767 95.0254 17.9174 95.4824 18.266 95.9365L17.8093 96.2873ZM106.022 96.4109L105.566 96.0582C105.915 95.6079 106.256 95.1528 106.589 94.6938L107.055 95.0319C106.718 95.4957 106.374 95.9554 106.022 96.4109ZM19.996 98.959C19.6192 98.5268 19.2484 98.0871 18.8828 97.6402L19.3282 97.2754C19.69 97.7177 20.0578 98.1526 20.4301 98.5806L19.996 98.959ZM103.831 99.0676L103.398 98.6877C103.775 98.2597 104.142 97.8271 104.503 97.3896L104.948 97.7563C104.583 98.1979 104.211 98.6354 103.831 99.0676ZM22.34 101.49C21.9379 101.082 21.5403 100.666 21.1484 100.243L21.5701 99.8516C21.9586 100.27 22.3516 100.682 22.7503 101.086L22.34 101.49ZM101.475 101.585L101.066 101.179C101.469 100.775 101.865 100.365 102.252 99.9502L102.673 100.343C102.281 100.763 101.881 101.177 101.475 101.585ZM24.8345 103.87C24.4083 103.488 23.9871 103.099 23.5703 102.701L23.9675 102.285C24.3797 102.678 24.7972 103.064 25.2193 103.442L24.8345 103.87ZM98.9684 103.956L98.5859 103.526C99.0129 103.146 99.433 102.762 99.8456 102.372L100.242 102.79C99.8242 103.184 99.3995 103.573 98.9684 103.956ZM27.4713 106.088C27.0226 105.733 26.5776 105.37 26.1367 105L26.5068 104.559C26.9431 104.925 27.3836 105.285 27.829 105.636L27.4713 106.088ZM96.3202 106.167L95.9648 105.713C96.414 105.361 96.8563 105.003 97.2919 104.64L97.6608 105.082C97.2207 105.449 96.7739 105.81 96.3202 106.167ZM30.2403 108.139C29.7694 107.812 29.3025 107.477 28.8398 107.135L29.1828 106.672C29.6398 107.011 30.1021 107.342 30.569 107.665L30.2403 108.139ZM93.5346 108.215L93.207 107.741C93.6754 107.419 94.1403 107.088 94.6 106.749L94.9418 107.212C94.4765 107.555 94.0074 107.889 93.5346 108.215ZM33.1328 110.012C32.6419 109.716 32.1544 109.411 31.6717 109.098L31.9846 108.615C32.4623 108.924 32.9446 109.226 33.431 109.52L33.1328 110.012ZM90.6326 110.089L90.3359 109.596C90.8223 109.302 91.3065 109.001 91.7872 108.691L92.0993 109.175C91.6133 109.488 91.1246 109.792 90.6326 110.089ZM36.1368 111.704C35.6278 111.438 35.1222 111.164 34.6211 110.881L34.9034 110.38C35.4 110.659 35.9 110.93 36.4033 111.193L36.1368 111.704ZM87.6181 111.779L87.3516 111.269C87.856 111.006 88.3567 110.735 88.8556 110.456L89.1372 110.958C88.6338 111.24 88.1271 111.514 87.6181 111.779ZM39.2439 113.204C38.7191 112.97 38.1981 112.728 37.6797 112.478L37.9304 111.959C38.4432 112.207 38.9589 112.447 39.4777 112.678L39.2439 113.204ZM84.5072 113.278L84.2734 112.752C84.7926 112.521 85.3102 112.282 85.8249 112.034L86.0745 112.553C85.5542 112.804 85.032 113.045 84.5072 113.278ZM42.4349 114.51C41.8965 114.309 41.3612 114.099 40.8281 113.882L41.0465 113.349C41.5739 113.564 42.1036 113.771 42.6363 113.97L42.4349 114.51ZM81.3057 114.58L81.1055 114.04C81.6393 113.842 82.1701 113.635 82.6987 113.42L82.9155 113.954C82.3813 114.171 81.8449 114.38 81.3057 114.58ZM45.705 115.615C45.155 115.448 44.6073 115.272 44.0625 115.088L44.2466 114.542C44.7861 114.725 45.3282 114.899 45.8726 115.064L45.705 115.615ZM78.0336 115.679L77.8672 115.128C78.4119 114.964 78.9544 114.79 79.4954 114.609L79.6788 115.155C79.1321 115.338 78.584 115.513 78.0336 115.679ZM49.0317 116.517C48.4715 116.384 47.9143 116.242 47.3594 116.093L47.51 115.536C48.0592 115.685 48.6111 115.825 49.1646 115.957L49.0317 116.517ZM74.6982 116.571L74.5664 116.011C75.1206 115.881 75.6732 115.742 76.2244 115.595L76.3727 116.151C75.8159 116.3 75.2576 116.44 74.6982 116.571ZM52.4144 117.212C51.8474 117.113 51.2823 117.007 50.7188 116.891L50.8347 116.327C51.3926 116.441 51.9521 116.547 52.5134 116.645L52.4144 117.212ZM71.3112 117.254L71.2148 116.686C71.7758 116.591 72.336 116.487 72.895 116.375L73.0083 116.939C72.444 117.053 71.8782 117.158 71.3112 117.254ZM55.8337 117.697C55.261 117.634 54.6903 117.562 54.1211 117.481L54.202 116.911C54.7656 116.991 55.3311 117.062 55.8965 117.125L55.8337 117.697ZM67.8926 117.725L67.832 117.153C68.3982 117.093 68.9633 117.023 69.528 116.946L69.6067 117.516C69.0364 117.595 68.4645 117.664 67.8926 117.725ZM59.2735 117.971C58.699 117.943 58.1249 117.907 57.5508 117.861L57.5967 117.287C58.1641 117.332 58.7325 117.368 59.3017 117.396L59.2735 117.971ZM64.4514 117.984L64.4258 117.408C64.9946 117.383 65.5631 117.349 66.1316 117.307L66.1745 117.881C65.6004 117.924 65.0263 117.958 64.4514 117.984ZM61.9926 118.037C61.6606 118.037 61.3281 118.034 60.9961 118.029L61.0063 117.453C61.5755 117.463 62.1473 117.464 62.7147 117.457L62.7226 118.033C62.479 118.036 62.2362 118.037 61.9926 118.037Z" fill="#34466B"/>
<path fill-rule="evenodd" clip-rule="evenodd" d="M61.0805 14.5782L61.0703 14.0024C61.6444 13.9919 62.2223 13.9925 62.7953 14.0015L62.7866 14.5773C62.2178 14.5681 61.6478 14.5678 61.0805 14.5782ZM66.1932 14.7559C65.6293 14.7062 65.0616 14.6664 64.492 14.6367L64.5225 14.0614C65.0988 14.0917 65.6729 14.132 66.2437 14.1823L66.1932 14.7559ZM57.6758 14.759L57.625 14.1855C58.1957 14.1348 58.7698 14.0941 59.3462 14.0635L59.3763 14.6386C58.8071 14.6688 58.2398 14.709 57.6758 14.759ZM69.5748 15.175C69.0154 15.0853 68.4526 15.0055 67.8867 14.9351L67.9575 14.3638C68.5297 14.4347 69.0997 14.5156 69.6659 14.6064L69.5748 15.175ZM54.2916 15.1812L54.1994 14.6127C54.7663 14.5213 55.3359 14.4398 55.9085 14.3687L55.9789 14.9401C55.4135 15.0106 54.8507 15.091 54.2916 15.1812ZM72.9209 15.835C72.3686 15.7059 71.813 15.5854 71.2539 15.4751L71.3653 14.9102C71.9308 15.022 72.4932 15.1435 73.0523 15.2745L72.9209 15.835ZM50.9482 15.844L50.8164 15.2835C51.3743 15.1518 51.9368 15.0302 52.503 14.918L52.6152 15.4826C52.0557 15.5936 51.5005 15.7141 50.9482 15.844ZM76.2104 16.7334C75.669 16.5647 75.1235 16.4051 74.5742 16.2549L74.7259 15.6992C75.282 15.8513 75.8343 16.0128 76.3824 16.1841L76.2104 16.7334ZM47.6568 16.7453L47.4844 16.196C48.0329 16.0243 48.5852 15.8624 49.1401 15.71L49.2926 16.2649C48.7437 16.4158 48.1982 16.5758 47.6568 16.7453ZM79.4378 17.8698C78.9085 17.6613 78.3743 17.4625 77.8359 17.2727L78.0268 16.7295C78.5723 16.9215 79.1133 17.1229 79.6494 17.3341L79.4378 17.8698ZM44.4417 17.8808L44.2305 17.3447C44.7651 17.1346 45.3045 16.9332 45.847 16.7412L46.0394 17.2837C45.5026 17.4734 44.9699 17.6726 44.4417 17.8808ZM82.5701 19.2347C82.0566 18.9888 81.5385 18.752 81.0156 18.5243L81.2449 17.9961C81.7746 18.2269 82.2994 18.4667 82.8185 18.7152L82.5701 19.2347ZM41.3227 19.2395L41.0742 18.7203C41.5907 18.4726 42.1133 18.2339 42.6396 18.0039L42.8704 18.5321C42.3493 18.7591 41.8336 18.9948 41.3227 19.2395ZM38.3092 20.8197L38.0234 20.3198C38.5223 20.0352 39.026 19.7596 39.535 19.4927L39.8026 20.0028C39.2993 20.2663 38.8012 20.5389 38.3092 20.8197ZM85.5964 20.8196C85.1025 20.5376 84.6029 20.2643 84.0977 20L84.3653 19.4902C84.8762 19.7575 85.3814 20.0342 85.8821 20.3196L85.5964 20.8196ZM35.4144 22.6113L35.094 22.1328C35.5713 21.8136 36.0544 21.5026 36.5434 21.1999L36.8461 21.6897C36.3634 21.9883 35.8861 22.2958 35.4144 22.6113ZM88.5015 22.6168C88.0287 22.3005 87.5502 21.9922 87.0664 21.6929L87.3687 21.2031C87.8593 21.5062 88.3434 21.8183 88.8223 22.1383L88.5015 22.6168ZM32.6504 24.6052L32.2969 24.1508C32.7509 23.798 33.2106 23.4532 33.6774 23.1162L34.0143 23.5838C33.5528 23.9162 33.0984 24.2569 32.6504 24.6052ZM91.2682 24.615C90.819 24.266 90.3643 23.9245 89.9023 23.5913L90.24 23.1245C90.7072 23.4618 91.1677 23.8071 91.6217 24.1606L91.2682 24.615ZM30.0367 26.7915L29.6523 26.3627C30.0796 25.9787 30.5145 25.6019 30.9564 25.2329L31.3254 25.6753C30.889 26.0397 30.4599 26.4116 30.0367 26.7915ZM93.8824 26.804C93.4596 26.4241 93.0301 26.0518 92.5938 25.6866L92.9627 25.2446C93.4047 25.6143 93.8399 25.9912 94.2672 26.3763L93.8824 26.804ZM27.5819 29.1585L27.1681 28.7579C27.5679 28.3442 27.9749 27.938 28.3883 27.5382L28.7888 27.9527C28.38 28.3472 27.9772 28.7493 27.5819 29.1585ZM96.3379 29.1722C95.9437 28.763 95.5417 28.3609 95.1328 27.9667L95.5322 27.5522C95.9467 27.9517 96.3533 28.3583 96.7531 28.7724L96.3379 29.1722ZM25.3017 31.6944L24.8594 31.3247C25.2291 30.8835 25.6063 30.4487 25.9922 30.021L26.4195 30.4061C26.0396 30.8285 25.6665 31.2585 25.3017 31.6944ZM98.617 31.7073C98.2526 31.2717 97.8802 30.8426 97.5 30.4198L97.9284 30.0347C98.3132 30.4623 98.69 30.8972 99.059 31.338L98.617 31.7073ZM23.2051 34.3866L22.7383 34.0492C23.0764 33.5824 23.4212 33.122 23.7755 32.668L24.2295 33.0215C23.8805 33.4706 23.5387 33.9258 23.2051 34.3866ZM100.71 34.3969C100.378 33.9365 100.036 33.4821 99.6875 33.0341L100.142 32.6802C100.495 33.1338 100.84 33.5939 101.176 34.0599L100.71 34.3969ZM21.3015 37.2227L20.8125 36.9188C21.1159 36.4291 21.428 35.9449 21.7488 35.4668L22.2265 35.7872C21.9103 36.2596 21.602 36.7385 21.3015 37.2227ZM102.606 37.2272C102.307 36.7446 101.999 36.2672 101.684 35.7959L102.161 35.4751C102.481 35.9521 102.792 36.4351 103.095 36.9241L102.606 37.2272ZM104.294 40.1831C104.03 39.6801 103.758 39.1824 103.476 38.6904L103.977 38.4046C104.261 38.9027 104.537 39.4068 104.804 39.9154L104.294 40.1831ZM19.6113 40.1885L19.1016 39.9208C19.37 39.41 19.6463 38.9044 19.9317 38.4048L20.4324 38.6905C20.15 39.1845 19.876 39.6837 19.6113 40.1885ZM105.768 43.2506C105.54 42.7299 105.304 42.2145 105.059 41.7036L105.578 41.4548C105.826 41.9713 106.065 42.4935 106.295 43.0198L105.768 43.2506ZM18.1294 43.2689L17.6016 43.0392C17.8323 42.5095 18.0722 41.9851 18.321 41.4663L18.8405 41.7152C18.5943 42.2279 18.3575 42.7463 18.1294 43.2689ZM107.019 46.4184C106.829 45.8812 106.63 45.3493 106.422 44.8211L106.957 44.6099C107.168 45.1441 107.37 45.6828 107.562 46.2261L107.019 46.4184ZM16.8792 46.4494L16.3359 46.2578C16.5283 45.7127 16.7301 45.1724 16.9413 44.6367L17.4766 44.8475C17.2688 45.3769 17.0689 45.9111 16.8792 46.4494ZM108.039 49.6715C107.889 49.1226 107.728 48.5771 107.559 48.0357L108.107 47.8633C108.28 48.411 108.442 48.9633 108.595 49.5194L108.039 49.6715ZM15.86 49.709L15.3047 49.5572C15.4568 49.0008 15.619 48.4489 15.79 47.9004L16.3396 48.0724C16.1702 48.6142 16.0102 49.1597 15.86 49.709ZM108.823 52.9907C108.712 52.4316 108.591 51.8759 108.461 51.324L109.021 51.1919C109.153 51.7498 109.275 52.3123 109.388 52.8781L108.823 52.9907ZM15.076 53.0286L14.5117 52.9165C14.6235 52.3506 14.7451 51.7882 14.8769 51.2295L15.4371 51.3616C15.3072 51.9135 15.1871 52.4692 15.076 53.0286ZM109.367 56.3566C109.296 55.7908 109.215 55.2283 109.125 54.6685L109.693 54.5767C109.785 55.1429 109.866 55.7121 109.938 56.2851L109.367 56.3566ZM14.5364 56.395L13.965 56.3239C14.0364 55.7509 14.118 55.1813 14.2085 54.6151L14.7777 54.7066C14.687 55.266 14.6064 55.8292 14.5364 56.395ZM109.668 59.7531C109.638 59.1831 109.597 58.6161 109.547 58.0518L110.121 58.001C110.172 58.5717 110.213 59.1462 110.243 59.7226L109.668 59.7531ZM14.2349 59.7919L13.6602 59.7614C13.6906 59.185 13.731 58.6113 13.7816 58.0402L14.3551 58.091C14.3057 58.655 14.2653 59.2223 14.2349 59.7919Z" fill="#34466B"/>
<path fill-rule="evenodd" clip-rule="evenodd" d="M100.191 26.0186C100.191 24.3011 101.584 22.9097 103.3 22.9097C105.017 22.9097 106.41 24.3011 106.41 26.0186C106.41 27.7356 105.017 29.1282 103.3 29.1282C101.584 29.1282 100.191 27.7356 100.191 26.0186Z" fill="#34466B"/>
<path fill-rule="evenodd" clip-rule="evenodd" d="M28.2109 16.8052C28.2109 15.088 29.6031 13.6963 31.3198 13.6963C33.0365 13.6963 34.4291 15.088 34.4291 16.8052C34.4291 18.5223 33.0365 19.9152 31.3198 19.9152C29.6031 19.9152 28.2109 18.5223 28.2109 16.8052Z" fill="#34466B"/>
<path fill-rule="evenodd" clip-rule="evenodd" d="M10.4297 65.7506C10.4297 64.0339 11.8221 62.6421 13.5388 62.6421C15.2557 62.6421 16.6482 64.0339 16.6482 65.7506C16.6482 67.4681 15.2557 68.8606 13.5388 68.8606C11.8221 68.8606 10.4297 67.4681 10.4297 65.7506Z" fill="#34466B"/>
<path fill-rule="evenodd" clip-rule="evenodd" d="M112.509 113.249C110.899 110.906 110.752 107.749 110.752 107.749H100.027C100.027 107.749 99.8801 110.906 98.2701 113.249C96.6595 115.591 93.293 117.054 93.293 117.054H117.486C117.486 117.054 114.119 115.591 112.509 113.249Z" fill="#34466B"/>
<path fill-rule="evenodd" clip-rule="evenodd" d="M158.314 106.034C158.314 107.975 156.741 109.548 154.8 109.548H55.6696C53.7293 109.548 52.1562 107.975 52.1562 106.034V40.7385C52.1562 38.7982 53.7293 37.2256 55.6696 37.2256H154.8C156.741 37.2256 158.314 38.7982 158.314 40.7385V106.034Z" fill="#34466B"/>
<path fill-rule="evenodd" clip-rule="evenodd" d="M52.1562 99.5146V106.035C52.1562 107.975 53.7293 109.548 55.6696 109.548H154.8C156.741 109.548 158.314 107.975 158.314 106.035V99.5146H52.1562Z" fill="#9BC3D3"/>
<path fill-rule="evenodd" clip-rule="evenodd" d="M118.163 118.248H92.782C92.5638 118.248 92.3867 118.071 92.3867 117.853V115.924C92.3867 115.706 92.5638 115.529 92.782 115.529H118.163C118.381 115.529 118.558 115.706 118.558 115.924V117.853C118.558 118.071 118.381 118.248 118.163 118.248Z" fill="#9BC3D3"/>
<path fill-rule="evenodd" clip-rule="evenodd" d="M152.594 95.8229H57.5431C56.6928 95.8229 56.0039 95.1339 56.0039 94.2842V42.2955C56.0039 41.4458 56.6928 40.7568 57.5431 40.7568H152.594C153.445 40.7568 154.134 41.4458 154.134 42.2955V94.2842C154.134 95.1339 153.445 95.8229 152.594 95.8229Z" fill="#9BC3D3"/>
<path fill-rule="evenodd" clip-rule="evenodd" d="M151.293 47.7353C91.8942 48.6765 61.7766 48.6765 60.94 47.7353C59.6851 46.3235 59.7506 50.4867 59.7506 57.5379C59.7506 62.2386 59.7506 74.1929 59.7506 93.4006H151.26V57.5379C151.293 47.7353 151.293 47.7353 151.293 47.7353Z" fill="#DEEDF2"/>
<path fill-rule="evenodd" clip-rule="evenodd" d="M151.259 46.3126C151.259 45.4624 150.57 44.7734 149.72 44.7734H61.2892C60.4389 44.7734 59.75 45.4624 59.75 46.3126V50.6369H151.259V46.3126Z" fill="#CEDEE7"/>
<path fill-rule="evenodd" clip-rule="evenodd" d="M105.581 107.014H105.028C103.623 107.014 102.484 105.875 102.484 104.47V103.917C102.484 102.512 103.623 101.374 105.028 101.374H105.581C106.986 101.374 108.125 102.512 108.125 103.917V104.47C108.125 105.875 106.986 107.014 105.581 107.014Z" fill="#34466B"/>
<path fill-rule="evenodd" clip-rule="evenodd" d="M139.951 47.7486C139.951 48.349 139.465 48.836 138.864 48.836C138.264 48.836 137.777 48.349 137.777 47.7486C137.777 47.1487 138.264 46.6621 138.864 46.6621C139.465 46.6621 139.951 47.1487 139.951 47.7486Z" fill="#34466B"/>
<path fill-rule="evenodd" clip-rule="evenodd" d="M144.381 47.7486C144.381 48.349 143.895 48.836 143.294 48.836C142.694 48.836 142.207 48.349 142.207 47.7486C142.207 47.1487 142.694 46.6621 143.294 46.6621C143.895 46.6621 144.381 47.1487 144.381 47.7486Z" fill="#34466B"/>
<path fill-rule="evenodd" clip-rule="evenodd" d="M148.811 47.7486C148.811 48.349 148.324 48.836 147.723 48.836C147.123 48.836 146.637 48.349 146.637 47.7486C146.637 47.1487 147.123 46.6621 147.723 46.6621C148.324 46.6621 148.811 47.1487 148.811 47.7486Z" fill="#34466B"/>
<path fill-rule="evenodd" clip-rule="evenodd" d="M38.0788 136.322C38.0788 137.169 34.9088 137.856 31.0002 137.856C27.0903 137.856 23.9219 137.169 23.9219 136.322C23.9219 135.475 27.0903 134.788 31.0002 134.788C34.9088 134.788 38.0788 135.475 38.0788 136.322Z" fill="#D39E00"/>
<path fill-rule="evenodd" clip-rule="evenodd" d="M55.3991 136.322C55.3991 137.169 52.2291 137.856 48.3205 137.856C44.4106 137.856 41.2422 137.169 41.2422 136.322C41.2422 135.475 44.4106 134.788 48.3205 134.788C52.2291 134.788 55.3991 135.475 55.3991 136.322Z" fill="#D39E00"/>
<path fill-rule="evenodd" clip-rule="evenodd" d="M23.9219 136.322H38.0788V134.289H23.9219V136.322Z" fill="#D39E00"/>
<path fill-rule="evenodd" clip-rule="evenodd" d="M41.2422 136.322H55.3991V134.289H41.2422V136.322Z" fill="#D39E00"/>
<path fill-rule="evenodd" clip-rule="evenodd" d="M38.0788 134.289C38.0788 135.137 34.9088 135.825 31.0002 135.825C27.0903 135.825 23.9219 135.137 23.9219 134.289C23.9219 133.442 27.0903 132.755 31.0002 132.755C34.9088 132.755 38.0788 133.442 38.0788 134.289Z" fill="#F6C854"/>
<path fill-rule="evenodd" clip-rule="evenodd" d="M55.3991 134.289C55.3991 135.137 52.2291 135.825 48.3205 135.825C44.4106 135.825 41.2422 135.137 41.2422 134.289C41.2422 133.442 44.4106 132.755 48.3205 132.755C52.2291 132.755 55.3991 133.442 55.3991 134.289Z" fill="#F6C854"/>
<path fill-rule="evenodd" clip-rule="evenodd" d="M38.0788 133.234C38.0788 134.082 34.9088 134.769 31.0002 134.769C27.0903 134.769 23.9219 134.082 23.9219 133.234C23.9219 132.388 27.0903 131.7 31.0002 131.7C34.9088 131.7 38.0788 132.388 38.0788 133.234Z" fill="#D39E00"/>
<path fill-rule="evenodd" clip-rule="evenodd" d="M55.3991 133.234C55.3991 134.082 52.2291 134.769 48.3205 134.769C44.4106 134.769 41.2422 134.082 41.2422 133.234C41.2422 132.388 44.4106 131.7 48.3205 131.7C52.2291 131.7 55.3991 132.388 55.3991 133.234Z" fill="#D39E00"/>
<path fill-rule="evenodd" clip-rule="evenodd" d="M23.9219 133.234H38.0788V131.202H23.9219V133.234Z" fill="#D39E00"/>
<path fill-rule="evenodd" clip-rule="evenodd" d="M41.2422 133.234H55.3991V131.202H41.2422V133.234Z" fill="#D39E00"/>
<path fill-rule="evenodd" clip-rule="evenodd" d="M38.0788 131.201C38.0788 132.05 34.9088 132.737 31.0002 132.737C27.0903 132.737 23.9219 132.05 23.9219 131.201C23.9219 130.355 27.0903 129.667 31.0002 129.667C34.9088 129.667 38.0788 130.355 38.0788 131.201Z" fill="#F6C854"/>
<path fill-rule="evenodd" clip-rule="evenodd" d="M55.3991 131.201C55.3991 132.05 52.2291 132.737 48.3205 132.737C44.4106 132.737 41.2422 132.05 41.2422 131.201C41.2422 130.355 44.4106 129.667 48.3205 129.667C52.2291 129.667 55.3991 130.355 55.3991 131.201Z" fill="#F6C854"/>
<path fill-rule="evenodd" clip-rule="evenodd" d="M38.0788 130.147C38.0788 130.994 34.9088 131.682 31.0002 131.682C27.0903 131.682 23.9219 130.994 23.9219 130.147C23.9219 129.301 27.0903 128.613 31.0002 128.613C34.9088 128.613 38.0788 129.301 38.0788 130.147Z" fill="#D39E00"/>
<path fill-rule="evenodd" clip-rule="evenodd" d="M55.3991 130.147C55.3991 130.994 52.2291 131.682 48.3205 131.682C44.4106 131.682 41.2422 130.994 41.2422 130.147C41.2422 129.301 44.4106 128.613 48.3205 128.613C52.2291 128.613 55.3991 129.301 55.3991 130.147Z" fill="#D39E00"/>
<path fill-rule="evenodd" clip-rule="evenodd" d="M23.9219 130.147H38.0788V128.114H23.9219V130.147Z" fill="#D39E00"/>
<path fill-rule="evenodd" clip-rule="evenodd" d="M41.2422 130.147H55.3991V128.114H41.2422V130.147Z" fill="#D39E00"/>
<path fill-rule="evenodd" clip-rule="evenodd" d="M38.0788 128.114C38.0788 128.962 34.9088 129.65 31.0002 129.65C27.0903 129.65 23.9219 128.962 23.9219 128.114C23.9219 127.267 27.0903 126.58 31.0002 126.58C34.9088 126.58 38.0788 127.267 38.0788 128.114Z" fill="#F6C854"/>
<path fill-rule="evenodd" clip-rule="evenodd" d="M55.3991 128.114C55.3991 128.962 52.2291 129.65 48.3205 129.65C44.4106 129.65 41.2422 128.962 41.2422 128.114C41.2422 127.267 44.4106 126.58 48.3205 126.58C52.2291 126.58 55.3991 127.267 55.3991 128.114Z" fill="#F6C854"/>
<path fill-rule="evenodd" clip-rule="evenodd" d="M38.0788 127.06C38.0788 127.907 34.9088 128.594 31.0002 128.594C27.0903 128.594 23.9219 127.907 23.9219 127.06C23.9219 126.213 27.0903 125.525 31.0002 125.525C34.9088 125.525 38.0788 126.213 38.0788 127.06Z" fill="#D39E00"/>
<path fill-rule="evenodd" clip-rule="evenodd" d="M55.3991 127.06C55.3991 127.907 52.2291 128.594 48.3205 128.594C44.4106 128.594 41.2422 127.907 41.2422 127.06C41.2422 126.213 44.4106 125.525 48.3205 125.525C52.2291 125.525 55.3991 126.213 55.3991 127.06Z" fill="#D39E00"/>
<path fill-rule="evenodd" clip-rule="evenodd" d="M23.9219 127.06H38.0788V125.027H23.9219V127.06Z" fill="#D39E00"/>
<path fill-rule="evenodd" clip-rule="evenodd" d="M41.2422 127.06H55.3991V125.027H41.2422V127.06Z" fill="#D39E00"/>
<path fill-rule="evenodd" clip-rule="evenodd" d="M38.0788 125.027C38.0788 125.875 34.9088 126.563 31.0002 126.563C27.0903 126.563 23.9219 125.875 23.9219 125.027C23.9219 124.18 27.0903 123.493 31.0002 123.493C34.9088 123.493 38.0788 124.18 38.0788 125.027Z" fill="#F6C854"/>
<path fill-rule="evenodd" clip-rule="evenodd" d="M55.3991 125.027C55.3991 125.875 52.2291 126.563 48.3205 126.563C44.4106 126.563 41.2422 125.875 41.2422 125.027C41.2422 124.18 44.4106 123.493 48.3205 123.493C52.2291 123.493 55.3991 124.18 55.3991 125.027Z" fill="#F6C854"/>
<path fill-rule="evenodd" clip-rule="evenodd" d="M38.0788 123.972C38.0788 124.82 34.9088 125.507 31.0002 125.507C27.0903 125.507 23.9219 124.82 23.9219 123.972C23.9219 123.126 27.0903 122.438 31.0002 122.438C34.9088 122.438 38.0788 123.126 38.0788 123.972Z" fill="#D39E00"/>
<path fill-rule="evenodd" clip-rule="evenodd" d="M55.3991 123.972C55.3991 124.82 52.2291 125.507 48.3205 125.507C44.4106 125.507 41.2422 124.82 41.2422 123.972C41.2422 123.126 44.4106 122.438 48.3205 122.438C52.2291 122.438 55.3991 123.126 55.3991 123.972Z" fill="#D39E00"/>
<path fill-rule="evenodd" clip-rule="evenodd" d="M23.9219 123.972H38.0788V121.939H23.9219V123.972Z" fill="#D39E00"/>
<path fill-rule="evenodd" clip-rule="evenodd" d="M41.2422 123.972H55.3991V121.939H41.2422V123.972Z" fill="#D39E00"/>
<path fill-rule="evenodd" clip-rule="evenodd" d="M38.0788 121.94C38.0788 122.788 34.9088 123.475 31.0002 123.475C27.0903 123.475 23.9219 122.788 23.9219 121.94C23.9219 121.093 27.0903 120.406 31.0002 120.406C34.9088 120.406 38.0788 121.093 38.0788 121.94Z" fill="#F6C854"/>
<path fill-rule="evenodd" clip-rule="evenodd" d="M55.3991 121.94C55.3991 122.788 52.2291 123.475 48.3205 123.475C44.4106 123.475 41.2422 122.788 41.2422 121.94C41.2422 121.093 44.4106 120.406 48.3205 120.406C52.2291 120.406 55.3991 121.093 55.3991 121.94Z" fill="#F6C854"/>
<path fill-rule="evenodd" clip-rule="evenodd" d="M38.0788 120.885C38.0788 121.732 34.9088 122.419 31.0002 122.419C27.0903 122.419 23.9219 121.732 23.9219 120.885C23.9219 120.038 27.0903 119.351 31.0002 119.351C34.9088 119.351 38.0788 120.038 38.0788 120.885Z" fill="#D39E00"/>
<path fill-rule="evenodd" clip-rule="evenodd" d="M55.3991 120.885C55.3991 121.732 52.2291 122.419 48.3205 122.419C44.4106 122.419 41.2422 121.732 41.2422 120.885C41.2422 120.038 44.4106 119.351 48.3205 119.351C52.2291 119.351 55.3991 120.038 55.3991 120.885Z" fill="#D39E00"/>
<path fill-rule="evenodd" clip-rule="evenodd" d="M23.9219 120.885H38.0788V118.852H23.9219V120.885Z" fill="#D39E00"/>
<path fill-rule="evenodd" clip-rule="evenodd" d="M41.2422 120.885H55.3991V118.852H41.2422V120.885Z" fill="#D39E00"/>
<path fill-rule="evenodd" clip-rule="evenodd" d="M38.0788 118.852C38.0788 119.701 34.9088 120.388 31.0002 120.388C27.0903 120.388 23.9219 119.701 23.9219 118.852C23.9219 118.006 27.0903 117.318 31.0002 117.318C34.9088 117.318 38.0788 118.006 38.0788 118.852Z" fill="#F6C854"/>
<path fill-rule="evenodd" clip-rule="evenodd" d="M55.3991 118.852C55.3991 119.701 52.2291 120.388 48.3205 120.388C44.4106 120.388 41.2422 119.701 41.2422 118.852C41.2422 118.006 44.4106 117.318 48.3205 117.318C52.2291 117.318 55.3991 118.006 55.3991 118.852Z" fill="#F6C854"/>
<path fill-rule="evenodd" clip-rule="evenodd" d="M38.0788 117.797C38.0788 118.645 34.9088 119.332 31.0002 119.332C27.0903 119.332 23.9219 118.645 23.9219 117.797C23.9219 116.951 27.0903 116.263 31.0002 116.263C34.9088 116.263 38.0788 116.951 38.0788 117.797Z" fill="#D39E00"/>
<path fill-rule="evenodd" clip-rule="evenodd" d="M55.3991 117.797C55.3991 118.645 52.2291 119.332 48.3205 119.332C44.4106 119.332 41.2422 118.645 41.2422 117.797C41.2422 116.951 44.4106 116.263 48.3205 116.263C52.2291 116.263 55.3991 116.951 55.3991 117.797Z" fill="#D39E00"/>
<path fill-rule="evenodd" clip-rule="evenodd" d="M23.9219 117.797H38.0788V115.765H23.9219V117.797Z" fill="#D39E00"/>
<path fill-rule="evenodd" clip-rule="evenodd" d="M41.2422 117.797H55.3991V115.765H41.2422V117.797Z" fill="#D39E00"/>
<path fill-rule="evenodd" clip-rule="evenodd" d="M38.0788 115.765C38.0788 116.613 34.9088 117.301 31.0002 117.301C27.0903 117.301 23.9219 116.613 23.9219 115.765C23.9219 114.918 27.0903 114.231 31.0002 114.231C34.9088 114.231 38.0788 114.918 38.0788 115.765Z" fill="#F6C854"/>
<path fill-rule="evenodd" clip-rule="evenodd" d="M55.3991 115.765C55.3991 116.613 52.2291 117.301 48.3205 117.301C44.4106 117.301 41.2422 116.613 41.2422 115.765C41.2422 114.918 44.4106 114.231 48.3205 114.231C52.2291 114.231 55.3991 114.918 55.3991 115.765Z" fill="#F6C854"/>
<path fill-rule="evenodd" clip-rule="evenodd" d="M38.0788 114.71C38.0788 115.558 34.9088 116.245 31.0002 116.245C27.0903 116.245 23.9219 115.558 23.9219 114.71C23.9219 113.864 27.0903 113.176 31.0002 113.176C34.9088 113.176 38.0788 113.864 38.0788 114.71Z" fill="#D39E00"/>
<path fill-rule="evenodd" clip-rule="evenodd" d="M23.9219 114.711H38.0788V112.678H23.9219V114.711Z" fill="#D39E00"/>
<path fill-rule="evenodd" clip-rule="evenodd" d="M38.0788 112.677C38.0788 113.526 34.9088 114.213 31.0002 114.213C27.0903 114.213 23.9219 113.526 23.9219 112.677C23.9219 111.831 27.0903 111.144 31.0002 111.144C34.9088 111.144 38.0788 111.831 38.0788 112.677Z" fill="#F6C854"/>
<path fill-rule="evenodd" clip-rule="evenodd" d="M38.0788 111.623C38.0788 112.471 34.9088 113.158 31.0002 113.158C27.0903 113.158 23.9219 112.471 23.9219 111.623C23.9219 110.777 27.0903 110.089 31.0002 110.089C34.9088 110.089 38.0788 110.777 38.0788 111.623Z" fill="#D39E00"/>
<path fill-rule="evenodd" clip-rule="evenodd" d="M23.9219 111.623H38.0788V109.59H23.9219V111.623Z" fill="#D39E00"/>
<path fill-rule="evenodd" clip-rule="evenodd" d="M38.0788 109.59C38.0788 110.438 34.9088 111.126 31.0002 111.126C27.0903 111.126 23.9219 110.438 23.9219 109.59C23.9219 108.743 27.0903 108.056 31.0002 108.056C34.9088 108.056 38.0788 108.743 38.0788 109.59Z" fill="#F6C854"/>
<path fill-rule="evenodd" clip-rule="evenodd" d="M38.0788 108.536C38.0788 109.383 34.9088 110.07 31.0002 110.07C27.0903 110.07 23.9219 109.383 23.9219 108.536C23.9219 107.689 27.0903 107.001 31.0002 107.001C34.9088 107.001 38.0788 107.689 38.0788 108.536Z" fill="#D39E00"/>
<path fill-rule="evenodd" clip-rule="evenodd" d="M23.9219 108.536H38.0788V106.503H23.9219V108.536Z" fill="#D39E00"/>
<path fill-rule="evenodd" clip-rule="evenodd" d="M38.0788 106.503C38.0788 107.351 34.9088 108.038 31.0002 108.038C27.0903 108.038 23.9219 107.351 23.9219 106.503C23.9219 105.656 27.0903 104.969 31.0002 104.969C34.9088 104.969 38.0788 105.656 38.0788 106.503Z" fill="#F6C854"/>
<path fill-rule="evenodd" clip-rule="evenodd" d="M38.0788 105.448C38.0788 106.296 34.9088 106.983 31.0002 106.983C27.0903 106.983 23.9219 106.296 23.9219 105.448C23.9219 104.602 27.0903 103.914 31.0002 103.914C34.9088 103.914 38.0788 104.602 38.0788 105.448Z" fill="#D39E00"/>
<path fill-rule="evenodd" clip-rule="evenodd" d="M23.9219 105.448H38.0788V103.416H23.9219V105.448Z" fill="#D39E00"/>
<path fill-rule="evenodd" clip-rule="evenodd" d="M38.0788 103.415C38.0788 104.264 34.9088 104.951 31.0002 104.951C27.0903 104.951 23.9219 104.264 23.9219 103.415C23.9219 102.569 27.0903 101.881 31.0002 101.881C34.9088 101.881 38.0788 102.569 38.0788 103.415Z" fill="#F6C854"/>
<path fill-rule="evenodd" clip-rule="evenodd" d="M38.0788 102.361C38.0788 103.208 34.9088 103.896 31.0002 103.896C27.0903 103.896 23.9219 103.208 23.9219 102.361C23.9219 101.514 27.0903 100.827 31.0002 100.827C34.9088 100.827 38.0788 101.514 38.0788 102.361Z" fill="#D39E00"/>
<path fill-rule="evenodd" clip-rule="evenodd" d="M23.9219 102.361H38.0788V100.328H23.9219V102.361Z" fill="#D39E00"/>
<path fill-rule="evenodd" clip-rule="evenodd" d="M38.0788 100.328C38.0788 101.176 34.9088 101.864 31.0002 101.864C27.0903 101.864 23.9219 101.176 23.9219 100.328C23.9219 99.4811 27.0903 98.7939 31.0002 98.7939C34.9088 98.7939 38.0788 99.4811 38.0788 100.328Z" fill="#F6C854"/>
<path fill-rule="evenodd" clip-rule="evenodd" d="M132.842 76.6514L143.153 76.7937C143.074 82.2886 138.444 86.7674 132.842 86.7674L132.781 86.7671L132.842 76.6514Z" fill="#34466B"/>
<path fill-rule="evenodd" clip-rule="evenodd" d="M131.098 75.1844L130.953 85.2989C125.351 85.2217 120.785 80.6797 120.785 75.1844C120.785 69.635 125.44 65.0684 131.098 65.0684C136.755 65.0684 141.41 69.635 141.41 75.1844H131.098Z" fill="#2A8FEC"/>
<path fill-rule="evenodd" clip-rule="evenodd" d="M73.0938 86.6611H77.7585V74.0454H73.0938V86.6611Z" fill="#2A8FEC"/>
<path fill-rule="evenodd" clip-rule="evenodd" d="M92.8906 86.6611H97.5549V74.0454H92.8906V86.6611Z" fill="#2A8FEC"/>
<path fill-rule="evenodd" clip-rule="evenodd" d="M99.4883 86.6611H104.153V66.6372H99.4883V86.6611Z" fill="#2A8FEC"/>
<path fill-rule="evenodd" clip-rule="evenodd" d="M67.0586 86.9358H71.7233V82.6899H67.0586V86.9358Z" fill="#2A8FEC"/>
<path fill-rule="evenodd" clip-rule="evenodd" d="M79.6953 86.6611H84.36V79.7427H79.6953V86.6611Z" fill="#2A8FEC"/>
<path fill-rule="evenodd" clip-rule="evenodd" d="M86.293 86.661H90.9577V78.1543H86.293V86.661Z" fill="#2A8FEC"/>
<path fill-rule="evenodd" clip-rule="evenodd" d="M81.3906 69.6553L94.3977 60.9521L81.3906 69.6553Z" fill="#2A8FEC"/>
<path fill-rule="evenodd" clip-rule="evenodd" d="M80.3906 69.6557C80.3906 69.1031 80.8385 68.6553 81.391 68.6553C81.9432 68.6553 82.391 69.1031 82.391 69.6557C82.391 70.2078 81.9432 70.6557 81.391 70.6557C80.8385 70.6557 80.3906 70.2078 80.3906 69.6557Z" fill="#2A8FEC"/>
<path fill-rule="evenodd" clip-rule="evenodd" d="M96.8544 59.5786L94.2348 63.7437L91.9375 59.7649L96.8544 59.5786Z" fill="#2A8FEC"/>
</svg>
