<svg width="160" height="160" viewBox="0 0 160 160" fill="none" xmlns="http://www.w3.org/2000/svg">
<path d="M38.9036 30.7936C38.8656 28.2789 40.2434 25.718 43.5578 24.5429C45.1868 23.9658 46.8103 23.569 48.2595 22.6514C51.5627 20.5592 51.5024 16.579 52.4039 13.1855C54.3826 5.73289 61.9984 -0.187982 69.7069 0.00456646C75.264 0.143404 80.2886 0.313662 85.3546 5.03061C88.8215 8.25832 91.0743 12.2294 94.2924 15.5569C97.7011 19.0801 101.854 20.771 106.518 21.903C110.926 22.9736 115.726 24.2475 119.102 27.458C122.274 30.4749 121.812 33.6307 120.452 37.3352C118.951 41.4203 122.204 44.1991 125.595 45.7902C128.451 47.1294 133.231 49.8535 133.387 54.8765C133.87 70.4354 123.988 70.4977 120.303 71.9763C86.4081 85.5799 73.4003 75.0875 59.0281 75.2998C44.7009 75.5111 36.4882 58.1847 36.9863 53.0822C37.6176 46.6034 40.9665 45.2282 41.8953 41.8971C43.2233 37.1255 38.9954 36.9415 38.9036 30.7936Z" fill="#EAF7FE"/>
<path d="M98.2715 67.6496C101.994 68.6458 103.153 70.8723 107 71.2275C114.724 71.9414 130.542 69.414 133.166 72.8707C135.753 76.2788 133.148 82.9177 119.407 81.9702C119.725 82.1967 112.999 86.3456 101.821 88.1551C97.3979 88.871 89.9032 88.9901 86.9774 88.3071C82.4799 87.2592 77.8582 86.8402 73.2456 87.0616C56.8389 87.8363 43.8642 86.8746 43.5171 84.072C43.401 83.1356 44.2553 81.7665 45.6838 80.9051C46.574 80.3685 45.1907 80.065 44.8685 79.9738C40.9055 78.8529 38.6284 77.4514 38.4632 76.2241C37.9448 72.3731 51.9446 67.5376 68.5702 65.4768C79.8967 64.0728 92.0577 65.9861 98.2715 67.6496Z" fill="#CEDEE7"/>
<path d="M55.7107 81.502L55.2811 85.4958C54.9213 88.836 55.3419 92.2143 56.5096 95.3645C57.6774 98.5152 59.5605 101.351 62.0106 103.65L68.5213 109.754L59.6853 139.03L65.894 145.465L80.9851 112.727C81.8719 109.113 81.5167 105.306 79.9763 101.918L72.0368 84.4545L55.7107 81.502Z" fill="#9BC3D3"/>
<path d="M63.3257 150.645L59.6055 146.836L80.6038 109.735L68.6011 83.8018L83.559 86.6099L89.2625 95.0542C94.8408 103.064 95.6531 107.551 92.1375 112.741L70.6639 143.844L68.181 148.83L63.3257 150.645Z" fill="#CEDEE7"/>
<path d="M59.2242 136.424L65.781 136.534L65.2044 140.918L65.7998 140.689L72.051 142.672L67.6508 152.495L68.9723 160L65.6944 159.889L60.7955 151.142L51.6484 142.275L59.2242 136.424Z" fill="#34466B"/>
<path d="M111.625 82.5332H26V92.3334H111.625V82.5332Z" fill="white"/>
<path fill-rule="evenodd" clip-rule="evenodd" d="M84.4691 32.6068C83.9193 31.4282 83.1222 30.3814 82.1326 29.5372C80.6282 28.2622 78.7559 27.5008 76.7889 27.3641C74.8215 27.2274 72.8619 27.7225 71.1956 28.7772C70.0079 29.5348 69.012 30.5574 68.2862 31.7648C67.5604 32.9722 67.1244 34.3314 67.0125 35.7356C66.9005 37.1399 67.1156 38.5511 67.641 39.8582C68.1664 41.1653 68.9876 42.3328 70.0403 43.269L64.9453 54.7491L76.4141 56.4147L80.1732 49.3915L81.5221 48.8053C82.6495 48.3167 83.6335 47.5483 84.3809 46.5729C85.1283 45.5974 85.6137 44.4473 85.7916 43.2315L85.8154 43.0668L86.9134 42.8642L85.8346 37.487L84.4691 32.6068Z" fill="#F4A48D"/>
<path fill-rule="evenodd" clip-rule="evenodd" d="M80.4477 49.3186C80.4477 49.3861 80.4477 49.4556 80.4477 49.5268C80.4477 49.4382 80.4477 49.3505 80.4477 49.3186ZM72.8319 44.9497C72.8075 45.031 72.7906 45.1142 72.7812 45.1986C73.5038 47.5142 76.6008 49.651 80.4202 49.3181C77.0496 49.2375 74.0921 46.8858 72.8319 44.9497ZM85.8249 43.0166L84.3124 39.0278L84.4163 41.9515C84.4224 42.1207 84.4659 42.2864 84.544 42.4366C84.622 42.5867 84.7325 42.7176 84.8678 42.8196C85.0025 42.9216 85.1591 42.9923 85.3248 43.0264C85.4905 43.0605 85.6618 43.0571 85.8259 43.0166H85.8249Z" fill="#A66555"/>
<path d="M67.0958 33.6345C67.6837 31.9634 68.731 30.4921 70.1174 29.3895C71.5038 28.2868 73.1731 27.5976 74.9336 27.401C76.6941 27.2043 78.4742 27.5083 80.0698 28.2778C81.6655 29.0474 83.0113 30.2514 83.9537 31.7516C83.7384 33.3555 83.1121 34.8765 82.1357 36.1668C81.1587 37.4571 79.8651 38.4727 78.38 39.1151C78.0455 38.1903 77.4172 37.5858 76.8305 37.7003C76.2054 37.8224 75.8426 38.7244 75.9424 39.7976C75.6078 39.8438 75.2708 39.8722 74.9331 39.8827L74.0458 49.0035C74.0458 49.0035 62.1701 53.7023 58.7539 47.7073L67.0305 33.6168L67.0958 33.6345Z" fill="black"/>
<path d="M93.9191 82.9969L101.323 82.9868L97.2654 75.2037L96.2215 68.8476C95.8451 66.5593 94.9791 64.3789 93.6819 62.456C92.3848 60.533 90.6873 58.9136 88.7061 57.7076C87.9799 57.2683 81.2863 56.8791 80.4852 56.5528L65.3346 50.3858C64.9274 50.22 64.5107 50.0789 64.0866 49.9632C61.811 49.3512 59.397 49.5079 57.2196 50.4087C55.0422 51.3094 53.2232 52.9045 52.0452 54.945L43.3804 69.9507C42.7191 71.0578 42.2986 72.2922 42.1463 73.5731C41.9939 74.8536 42.1133 76.1523 42.4964 77.3836C42.8797 78.6149 43.5181 79.7519 44.3702 80.7203C45.2223 81.6886 46.2689 82.4659 47.4417 83.0025L47.6333 83.0607L88.8728 83.004L86.885 74.963L93.9409 82.9969H93.9191Z" fill="#F6C854"/>
<path fill-rule="evenodd" clip-rule="evenodd" d="M51.3832 79.9944L51.5469 80.0025L55.8154 80.267C56.3583 80.3004 56.8771 80.5036 57.2987 80.8472C57.7204 81.1907 58.0237 81.6579 58.166 82.1828L58.1833 82.2502L58.3925 83.1061L56.4777 83.0964L55.2195 86.9059C55.1826 87.0204 55.1122 87.1207 55.0174 87.1947C54.9226 87.2687 54.8079 87.3122 54.688 87.3198H54.6444H54.2684C54.1306 87.3203 53.9967 87.2737 53.889 87.1881C53.7812 87.102 53.7061 86.9819 53.6761 86.8471L53.669 86.807L53.5758 86.199L53.4896 86.8025C53.4701 86.9403 53.4036 87.067 53.3014 87.1617C53.1992 87.256 53.0675 87.3122 52.9287 87.3203H52.8897H52.2725C52.139 87.3198 52.0094 87.2758 51.9036 87.1942C51.7979 87.1131 51.7218 86.9991 51.6873 86.8699L51.6776 86.8298L51.589 86.3571L51.4902 86.8395C51.4626 86.9687 51.3938 87.0857 51.294 87.1719C51.1943 87.2585 51.0691 87.3102 50.9373 87.3193H50.8963H50.6673C50.5527 87.3193 50.4405 87.2869 50.3438 87.2256C50.2471 87.1643 50.1698 87.0766 50.121 86.9727L50.1038 86.9327L48.533 82.8583C48.4187 82.5608 48.3743 82.2406 48.403 81.9229C48.4318 81.6052 48.533 81.2981 48.6989 81.0255C48.8647 80.7534 49.0909 80.5224 49.3599 80.3511C49.6289 80.1793 49.9336 80.0719 50.2507 80.0364C50.6266 79.9944 51.0052 79.9802 51.3832 79.9944ZM88.7354 42.5666C88.819 42.4136 88.9477 42.2903 89.1043 42.2135C89.2608 42.1366 89.4377 42.11 89.6099 42.1375C89.801 42.1683 89.9743 42.2661 90.0999 42.4133C90.2256 42.5606 90.2945 42.7476 90.2945 42.9411V46.032C90.2945 46.0482 90.2945 46.0624 90.2945 46.0751C90.2945 46.0788 90.2945 46.0825 90.2945 46.0862V46.1009V46.1348L90.9917 46.6791L92.1197 47.5582C92.2641 47.6716 92.373 47.8246 92.4323 47.9987C92.4921 48.1728 92.4997 48.3604 92.4546 48.5387L90.4121 56.9742L100.905 74.0538C101.763 74.9577 102.455 76.0051 102.95 77.1482C104.465 80.566 104.096 84.0455 102.129 84.9161C100.162 85.7866 97.3398 83.7202 95.8262 80.3025C95.6909 79.9985 95.5714 79.6944 95.467 79.3904L86.1659 59.5163L84.7552 56.8581C84.5277 56.432 84.4 55.9602 84.3812 55.4774C84.362 54.995 84.4522 54.5141 84.6452 54.0712L85.3303 52.5045L84.7405 51.6431L84.7182 52.0054C84.7086 52.1331 84.6554 52.2537 84.5667 52.3459C84.478 52.4386 84.3605 52.4974 84.2333 52.5121L84.1861 52.5182C84.1112 52.5273 84.0357 52.5207 83.9637 52.4989C83.8912 52.4771 83.8244 52.4412 83.7671 52.3925C83.7093 52.3444 83.6622 52.2846 83.6288 52.2172C83.5948 52.1503 83.5756 52.0768 83.5715 52.0013L83.5208 51.0467L82.8839 51.2646C82.7978 51.294 82.705 51.296 82.6179 51.2717C82.5307 51.2474 82.4527 51.1972 82.3944 51.1273C82.3362 51.0578 82.3002 50.9727 82.2911 50.8825C82.2819 50.7923 82.3002 50.7016 82.3438 50.6218C82.3671 50.5793 82.397 50.5408 82.4324 50.5077L83.4291 49.5825L84.6533 48.303C84.7532 48.1979 84.8819 48.1244 85.0237 48.0915C85.1651 48.0585 85.3131 48.0676 85.4494 48.1176L87.7508 48.9608L85.5396 47.7614C85.4534 47.7234 85.3622 47.6999 85.269 47.6919L81.9141 47.3915C81.8198 47.3831 81.7281 47.354 81.6465 47.3063C81.5644 47.2587 81.494 47.1935 81.4403 47.1156C81.3866 47.0377 81.3506 46.9489 81.3349 46.8555C81.3192 46.7621 81.3243 46.6664 81.3501 46.5752C81.3937 46.4367 81.4808 46.3161 81.5989 46.2313C81.717 46.1464 81.8588 46.1019 82.0043 46.1044L86.2408 46.0994C86.367 46.0992 86.4922 46.1265 86.6072 46.1794L88.6127 47.1184L86.8828 45.6591C86.7962 45.5846 86.6944 45.5302 86.5849 45.4995L83.0319 44.4982C82.8783 44.4561 82.7471 44.3564 82.665 44.22C82.5834 44.0835 82.5576 43.9207 82.5931 43.7656C82.628 43.6105 82.7218 43.4749 82.8545 43.3872C82.9873 43.2995 83.1489 43.2664 83.3055 43.2948L86.5859 43.8724L87.4291 44.0244C87.5583 44.0465 87.6804 44.1005 87.7838 44.1815L88.2712 44.561L88.4541 43.7178L88.6523 42.7972C88.668 42.7166 88.6964 42.6389 88.7354 42.5666ZM56.4991 83.0323L56.4089 83.0967H56.4773L56.4991 83.0323ZM64.0884 49.9631C64.4512 50.0617 64.8086 50.1792 65.1591 50.3153L65.3354 50.3863L67.7094 51.3518C67.7236 51.2921 67.7259 51.2297 67.716 51.1689V51.1598L78.018 51.9462C77.8736 53.2439 78.0945 54.5563 78.6554 55.7354L78.6995 55.8241L80.4897 56.5527C81.2837 56.8775 82.0509 57.2636 82.7846 57.7075C81.1069 62.7168 76.0229 65.7738 70.9275 64.6398C65.4718 63.4237 62.0677 57.8559 63.3269 52.2011C63.4987 51.4299 63.7541 50.6794 64.0884 49.9631Z" fill="#F4A48D"/>
<path d="M63.0273 83.7113L63.1403 85.5547L78.8163 84.5919L78.7033 82.7485L63.0273 83.7113Z" fill="#EC0000"/>
<path d="M75.3225 85.0341L106.08 85.0934C106.363 85.0934 106.639 84.9961 106.86 84.8172C107.08 84.6389 107.233 84.3901 107.292 84.1124L111.878 62.628C111.917 62.4471 111.915 62.2606 111.872 62.0808C111.83 61.9014 111.748 61.7337 111.632 61.5898C111.517 61.4464 111.37 61.3298 111.204 61.2503C111.037 61.1702 110.855 61.1282 110.671 61.1276L79.9138 61.0684C79.6295 61.0679 79.3544 61.1651 79.1335 61.344C78.913 61.5229 78.76 61.7717 78.7012 62.0499L74.1135 83.5343C74.0748 83.7147 74.0769 83.9016 74.1196 84.081C74.1624 84.2604 74.2446 84.4286 74.3605 84.572C74.4764 84.7159 74.6229 84.8319 74.7893 84.912C74.9557 84.9916 75.1379 85.0336 75.3225 85.0341Z" fill="white"/>
<path d="M79.7006 62.0506L75.1135 83.535C75.0748 83.7154 75.0769 83.9018 75.1195 84.0812C75.1621 84.2611 75.2443 84.4288 75.3598 84.5722C75.4755 84.7161 75.6217 84.8321 75.7879 84.9122C75.9541 84.9923 76.136 85.0343 76.3205 85.0353L89.1998 85.0586L105.531 85.0921H107.078C107.363 85.0921 107.638 84.9943 107.859 84.8154C108.08 84.6366 108.233 84.3873 108.292 84.1091L112.878 62.6247C112.916 62.4483 112.915 62.2664 112.875 62.0906C112.836 61.9148 112.758 61.7501 112.648 61.6077C112.533 61.4567 112.385 61.3346 112.215 61.2505C112.046 61.1664 111.859 61.1233 111.669 61.1238L99.1029 61.098L80.9121 61.063C80.6278 61.063 80.3517 61.1618 80.1313 61.3417C79.9103 61.5216 79.7583 61.7719 79.7006 62.0506Z" fill="#EC0000"/>
<path d="M99.1055 61.103L105.536 85.0936H107.082C107.367 85.0936 107.642 84.9963 107.863 84.8175C108.084 84.6381 108.237 84.3888 108.296 84.1106L112.882 62.6262C112.92 62.4499 112.919 62.2679 112.879 62.0921C112.839 61.9163 112.762 61.7516 112.651 61.6092C112.537 61.4582 112.389 61.3361 112.22 61.2525C112.05 61.1684 111.863 61.1248 111.673 61.1253L99.1055 61.103Z" fill="#EC0000"/>
<path d="M100.835 8.451C100.726 7.58068 100.439 6.74213 99.9912 5.98754C99.5443 5.2329 98.9464 4.57838 98.2355 4.06463C97.5246 3.55088 96.7153 3.1889 95.8585 3.00118C95.0017 2.81346 94.1154 2.80403 93.2545 2.97347C92.3941 3.14291 91.5773 3.48759 90.8558 3.98609C90.1337 4.4846 89.5221 5.12624 89.059 5.87115C88.5959 6.61606 88.2908 7.44833 88.1631 8.31612C88.0354 9.18396 88.0871 10.0688 88.3162 10.9156C88.2619 10.9156 88.2082 10.9156 88.1545 10.9212L88.0947 10.9166V10.9253C87.206 10.9967 86.377 11.4001 85.772 12.0553C85.1675 12.7105 84.832 13.5693 84.832 14.4608C84.832 15.3524 85.1675 16.2112 85.772 16.8664C86.377 17.5215 87.206 17.925 88.0947 17.9964V18.0065H111.375C112.06 18.0065 112.718 17.7342 113.202 17.2496C113.687 16.765 113.959 16.1077 113.959 15.4223C113.959 14.7369 113.687 14.0796 113.202 13.595C112.718 13.1103 112.06 12.8381 111.375 12.8381L105.477 12.3516C105.504 12.1727 105.518 11.992 105.518 11.811C105.517 11.2479 105.383 10.6929 105.126 10.1921C104.868 9.69117 104.496 9.25875 104.038 8.93055C103.58 8.60236 103.051 8.38782 102.494 8.30472C101.937 8.22157 101.369 8.27229 100.835 8.45252V8.451Z" fill="#CEDEE7"/>
<path d="M86.3507 16.6732C86.2696 16.0368 86.0588 15.4238 85.731 14.8724C85.4031 14.3209 84.9653 13.8427 84.445 13.4676C83.9246 13.0924 83.3322 12.8282 82.7054 12.6915C82.0786 12.5548 81.4305 12.5484 80.8012 12.6727C80.1719 12.7971 79.575 13.0496 79.047 13.4145C78.5195 13.7793 78.0726 14.2487 77.7336 14.7937C77.3951 15.3386 77.1722 15.9473 77.0789 16.582C76.9852 17.2167 77.0232 17.8638 77.1909 18.4832C77.1509 18.4832 77.1114 18.4847 77.0724 18.4878L77.0283 18.4842V18.4903C76.3749 18.5419 75.7651 18.8378 75.3205 19.3191C74.8758 19.8003 74.6289 20.4314 74.6289 21.0867C74.6289 21.7418 74.8758 22.373 75.3205 22.8542C75.7651 23.3354 76.3749 23.6314 77.0283 23.683V23.6906H94.0628C94.5609 23.6825 95.0357 23.4789 95.3848 23.1237C95.7344 22.7686 95.93 22.2904 95.93 21.7923C95.93 21.2941 95.7344 20.8158 95.3848 20.4607C95.0357 20.1056 94.5609 19.902 94.0628 19.8938L89.7471 19.5392C89.7669 19.4078 89.777 19.2752 89.777 19.1424C89.7786 18.7295 89.6813 18.3221 89.4938 17.9542C89.3063 17.5863 89.0337 17.2685 88.6983 17.0273C88.3633 16.786 87.9752 16.6282 87.5668 16.5671C87.1584 16.506 86.7414 16.5432 86.3507 16.6758V16.6732Z" fill="#9BC3D3"/>
<path d="M49.7525 16.9979C49.889 15.7927 50.4834 14.686 51.413 13.9068C52.3426 13.1276 53.5361 12.7355 54.7466 12.8116C55.9572 12.8877 57.0922 13.4261 57.9168 14.3156C58.7415 15.205 59.1928 16.3775 59.1773 17.5903C59.1775 18.0144 59.1223 18.4367 59.0131 18.8464C59.0531 18.8464 59.0932 18.8464 59.1327 18.8505L59.1773 18.847V18.8535C59.8395 18.9129 60.4556 19.218 60.9042 19.7087C61.3529 20.1994 61.6017 20.8402 61.6017 21.5051C61.6017 22.17 61.3529 22.8109 60.9042 23.3016C60.4556 23.7923 59.8395 24.0974 59.1773 24.1567V24.1649H41.9542C41.4401 24.1649 40.947 23.9606 40.5834 23.597C40.2198 23.2334 40.0156 22.7403 40.0156 22.2261C40.0156 21.712 40.2198 21.2189 40.5834 20.8553C40.947 20.4917 41.4401 20.2875 41.9542 20.2875L46.3175 19.9226C46.2975 19.7885 46.2876 19.653 46.2876 19.5173C46.2828 18.817 46.5563 18.1433 47.0481 17.6447C47.5398 17.146 48.2095 16.863 48.9099 16.8581C49.1966 16.8575 49.4813 16.9048 49.7525 16.9979Z" fill="#CEDEE7"/>
<path d="M92.2235 32.1341C92.1216 32.1019 92.0147 32.09 91.9078 32.0992C91.8014 32.1084 91.698 32.1385 91.6028 32.1878C91.508 32.237 91.4239 32.3045 91.355 32.3863C91.2866 32.4682 91.2344 32.5627 91.202 32.6646C91.17 32.7665 91.1579 32.8738 91.167 32.9803C91.1766 33.0867 91.2065 33.1904 91.2557 33.2852C91.3053 33.3801 91.3727 33.4643 91.4543 33.5331C91.5364 33.6019 91.6306 33.6539 91.7325 33.6861C91.8146 33.7125 91.9002 33.7262 91.9858 33.7267C92.1804 33.7255 92.3679 33.6548 92.5149 33.5274C92.6618 33.4001 92.7581 33.2244 92.787 33.0321C92.8153 32.8399 92.7748 32.6437 92.6714 32.479C92.5681 32.3143 92.4095 32.192 92.2235 32.1341Z" fill="#EC0000"/>
<path d="M97.1912 26.2366C96.7595 25.5918 96.122 25.1127 95.3827 24.8779C94.6435 24.643 93.8464 24.6663 93.1223 24.944C92.5411 25.2142 92.0881 25.7 91.8591 26.2984C91.8373 26.3512 91.8272 26.4079 91.8282 26.4649C91.8297 26.5219 91.8424 26.578 91.8667 26.6298C91.8905 26.6813 91.9245 26.7272 91.967 26.7647C92.0096 26.8022 92.0598 26.8305 92.114 26.8477L92.6121 27.0063C92.7083 27.0366 92.8122 27.0302 92.9039 26.9884C92.9962 26.9466 93.0691 26.8723 93.1097 26.7798C93.2303 26.4711 93.4628 26.2192 93.7613 26.0739C94.1596 25.9096 94.606 25.904 95.0088 26.0582C95.216 26.111 95.4111 26.2041 95.5824 26.3322C95.7537 26.4604 95.8981 26.6211 96.0075 26.8051C96.0987 26.9955 96.1504 27.2025 96.1595 27.4135C96.1681 27.6246 96.1337 27.8351 96.0582 28.0323C95.8555 28.6825 95.5307 29.0615 95.0954 29.1588C94.4514 29.2413 93.7968 29.1572 93.1948 28.9145L92.9789 28.8461C92.9272 28.83 92.8735 28.8242 92.8198 28.829C92.7661 28.8338 92.7139 28.8491 92.6663 28.874C92.6187 28.8989 92.5761 28.933 92.5416 28.9743C92.5072 29.0156 92.4808 29.0633 92.4651 29.1147L91.8713 31.0022C91.8383 31.106 91.8474 31.2186 91.8976 31.3155C91.9478 31.4122 92.0339 31.4853 92.1378 31.5185L92.6445 31.6791C92.6957 31.6952 92.7499 31.7011 92.8031 31.6963C92.8568 31.6915 92.909 31.6762 92.9566 31.6513C93.0048 31.6264 93.0468 31.5923 93.0813 31.551C93.1157 31.5097 93.1421 31.462 93.1583 31.4106L93.5429 30.1879C93.5449 30.1806 93.55 30.1746 93.5566 30.171C93.5637 30.1674 93.5713 30.1666 93.5789 30.1686C94.3344 30.4406 95.1573 30.4608 95.9254 30.2264C96.273 30.0691 96.5801 29.8333 96.8218 29.5374C97.063 29.2416 97.2327 28.8938 97.3174 28.5213C97.4582 28.153 97.5195 27.759 97.4972 27.3652C97.4749 26.9714 97.3701 26.5868 97.1887 26.2366" fill="#EC0000"/>
<path d="M114.879 50.9512H121.464C122.028 50.9512 122.484 51.4081 122.484 51.9711V55.5302C122.484 56.0937 122.028 56.5503 121.464 56.5503H114.879C114.316 56.5503 113.859 56.0937 113.859 55.5302V51.9711C113.859 51.4081 114.316 50.9512 114.879 50.9512Z" stroke="#EC0000"/>
<mask id="path-22-inside-1_1557_6930" fill="white">
<path d="M122.31 51.146L118.855 54.3751C118.469 54.7232 117.882 54.7232 117.497 54.3756L113.961 51.146"/>
</mask>
<path d="M118.855 54.3751L119.525 55.1174L119.531 55.1116L119.537 55.1057L118.855 54.3751ZM117.497 54.3756L116.822 55.114L116.827 55.1184L117.497 54.3756ZM121.627 50.4154L118.172 53.6445L119.537 55.1057L122.993 51.8766L121.627 50.4154ZM118.184 53.6328C118.182 53.6348 118.181 53.6352 118.181 53.6354C118.18 53.6358 118.178 53.6363 118.175 53.6363C118.173 53.6363 118.171 53.6358 118.17 53.6354C118.169 53.6352 118.168 53.6348 118.166 53.6329L116.827 55.1184C117.593 55.809 118.758 55.8091 119.525 55.1174L118.184 53.6328ZM118.171 53.6373L114.635 50.4077L113.286 51.8843L116.822 55.114L118.171 53.6373Z" fill="#EC0000" mask="url(#path-22-inside-1_1557_6930)"/>
<mask id="path-24-inside-2_1557_6930" fill="white">
<path d="M116.829 53.7559L113.84 56.2835L116.829 53.7559Z"/>
</mask>
<path d="M116.184 52.9922L113.194 55.5198L114.485 57.0471L117.475 54.5195L116.184 52.9922Z" fill="#EC0000" mask="url(#path-24-inside-2_1557_6930)"/>
<mask id="path-26-inside-3_1557_6930" fill="white">
<path d="M122.493 56.2835L119.512 53.7559L122.493 56.2835Z"/>
</mask>
<path d="M123.14 55.5207L120.158 52.9931L118.865 54.5186L121.846 57.0462L123.14 55.5207Z" fill="#EC0000" mask="url(#path-26-inside-3_1557_6930)"/>
</svg>
