<svg width="161" height="161" viewBox="0 0 161 161" fill="none" xmlns="http://www.w3.org/2000/svg">
<path fill-rule="evenodd" clip-rule="evenodd" d="M114.676 103.758C130.195 109.44 148.001 103.272 156.463 88.4369C165.9 71.8881 160.136 50.8218 143.588 41.385C127.039 31.9475 105.973 37.7112 96.536 54.2588C88.076 69.0955 91.8319 87.5612 104.624 98.0255L104.678 109.611L114.676 103.758Z" fill="#DEEDF2"/>
<path fill-rule="evenodd" clip-rule="evenodd" d="M51.9178 69.4461C51.5794 69.7834 51.2474 70.1244 50.9219 70.4693C44.3683 77.413 35.6854 81.9447 26.2756 83.6478C20.5642 84.6814 15.0992 87.3989 10.6833 91.7995C-0.883065 103.326 -0.8962 121.913 10.6546 133.456C15.75 138.547 22.2472 141.392 28.9096 141.992C34.6133 142.505 39.9721 144.986 43.9293 149.112C43.9802 149.166 44.0315 149.218 44.0832 149.271C50.8337 156.136 61.7538 156.203 68.5861 149.42C68.6253 149.382 68.6642 149.343 68.7027 149.303C70.5278 147.457 73.1623 146.651 75.7146 147.145C90.2679 149.962 105.919 145.753 117.191 134.516C135.201 116.562 135.201 87.4001 117.191 69.4459C99.1658 51.4776 69.9424 51.4777 51.9178 69.4461Z" fill="#EAF7FE"/>
<path fill-rule="evenodd" clip-rule="evenodd" d="M113.395 99.9096C128.914 105.592 146.72 99.4229 155.182 84.5881C164.619 68.0395 158.855 46.9731 142.306 37.5364C125.758 28.0988 104.692 33.8625 95.2548 50.4101C86.7947 65.2469 90.5506 83.7124 103.343 94.1767L103.396 105.762L113.395 99.9096Z" fill="white"/>
<path d="M147.722 62.8876C150.067 75.3793 141.841 87.4068 129.349 89.7518C116.858 92.0969 104.83 83.8714 102.485 71.3799C100.14 58.8881 108.366 46.8605 120.857 44.5155C133.349 42.1704 145.377 50.3959 147.722 62.8876Z" fill="#DEEDF2"/>
<path d="M102.516 71.5379C101.77 67.562 102.085 63.4596 103.429 59.6442C104.773 55.8287 107.099 52.4351 110.173 49.8052L125.134 67.2917L102.516 71.5379Z" fill="#8AD7C4"/>
<path d="M110.164 49.8117C113.237 47.1805 116.949 45.4057 120.926 44.6662C124.903 43.9266 129.005 44.2485 132.818 45.5994L125.133 67.2917L110.164 49.8117Z" fill="#F6C854"/>
<path d="M132.721 45.5649C136.552 46.9029 139.961 49.2301 142.603 52.3106C145.244 55.3911 147.024 59.1153 147.763 63.1057L125.133 67.2915L132.721 45.5649Z" fill="#2A8FEC"/>
<path d="M137.967 64.8013C139.29 71.8523 134.647 78.6416 127.596 79.9651C120.545 81.2889 113.756 76.6458 112.432 69.5948C111.109 62.5437 115.752 55.7546 122.803 54.4309C129.854 53.1072 136.643 57.7502 137.967 64.8013Z" fill="white"/>
<path fill-rule="evenodd" clip-rule="evenodd" d="M109.709 58.4788C109.466 58.9125 109.62 59.4614 110.054 59.7048L119.881 65.2213C119.207 67.031 119.474 69.1393 120.769 70.7562C122.728 73.2029 126.3 73.5978 128.747 71.638C131.194 69.6784 131.589 66.1063 129.629 63.6596C127.669 61.2129 124.097 60.8181 121.65 62.7777C121.319 63.043 121.026 63.3378 120.77 63.6554L110.935 58.1344C110.501 57.891 109.953 58.0452 109.709 58.4788ZM128.188 64.8143C129.511 66.4649 129.244 68.8745 127.594 70.1964C125.943 71.5184 123.534 71.252 122.212 69.6015C120.89 67.951 121.156 65.5414 122.806 64.2194C124.457 62.8975 126.867 63.1638 128.188 64.8143Z" fill="#34466B"/>
<path fill-rule="evenodd" clip-rule="evenodd" d="M58.6456 54.0224C55.5184 53.6454 52.4396 54.3499 50.002 56.2717C48.3618 53.8121 44.508 52.5748 41.8274 52.9301C41.3154 52.9975 41.2894 53.7059 41.8274 53.7466C43.4544 53.8707 45.0529 54.3667 46.303 55.4542C47.3558 56.371 47.8618 57.631 48.7258 58.6867C48.974 58.9893 49.476 59.0846 49.8352 58.9804C49.9294 58.9526 50.0256 58.9179 50.1078 58.8653C50.2024 58.8048 50.2838 58.7294 50.3572 58.647C50.4065 58.6113 50.4594 58.5944 50.5047 58.5468C52.6926 56.2757 55.441 54.7894 58.6456 54.7517C59.1271 54.7458 59.1003 54.077 58.6456 54.0224Z" fill="#9BC3D3"/>
<path fill-rule="evenodd" clip-rule="evenodd" d="M57.8102 79.5539C60.395 79.6016 62.6105 82.6723 64.3746 85.541C64.4123 85.6011 64.454 85.622 64.4937 85.6677C64.5531 85.7711 64.6196 85.8673 64.695 85.9427C64.7615 86.0101 64.8389 86.0538 64.9155 86.0886C65.205 86.2193 65.6087 86.1003 65.8092 85.7174C66.5068 84.3847 66.9145 83.3888 67.7629 82.2309C68.7708 80.8557 70.0606 80.2307 71.3725 80.0739C71.8059 80.0222 71.785 79.1273 71.3725 79.0419C69.2107 78.5925 66.103 80.1561 64.7804 83.2637C62.815 80.8349 60.3325 78.1558 57.8102 78.6321C57.4442 78.7015 57.4221 79.5471 57.8102 79.5539Z" fill="#9BC3D3"/>
<path fill-rule="evenodd" clip-rule="evenodd" d="M66.9119 68.6152C69.182 68.642 71.1289 69.6937 72.6785 71.302C72.7101 71.3367 72.7478 71.3486 72.7827 71.3734C72.8352 71.431 72.893 71.4855 72.9603 71.5282C73.0177 71.5659 73.0862 71.5908 73.1528 71.6096C73.407 71.683 73.7622 71.6155 73.9378 71.4022C74.5508 70.6551 74.9088 69.7622 75.655 69.1122C76.5402 68.3423 77.6721 67.9901 78.8251 67.9028C79.206 67.874 79.1884 67.372 78.8251 67.3243C76.9259 67.0723 74.1964 67.9484 73.0349 69.6907C71.3085 68.3294 69.1274 67.8304 66.9119 68.0983C66.5916 68.1379 66.5715 68.6112 66.9119 68.6152Z" fill="#9BC3D3"/>
<path fill-rule="evenodd" clip-rule="evenodd" d="M52.1692 114.444L52.1704 114.44C51.3586 113.818 50.8349 112.843 50.8349 111.742C50.8349 110.958 51.1056 110.241 51.5518 109.667C51.7795 109.462 51.9985 109.244 52.2085 109.021C52.2198 109.012 52.2298 109.002 52.2414 108.994V108.989L52.2426 108.985C54.0781 107.009 55.2023 104.365 55.2023 101.455C55.2023 95.3432 50.248 90.3885 44.1358 90.3885C41.9123 90.3885 39.8427 91.0472 38.1072 92.1771C38.1072 92.1759 38.106 92.1759 38.106 92.1759C38.1035 92.1743 38.1009 92.1731 38.0996 92.1719C37.6051 92.4601 37.0321 92.6285 36.4173 92.6285C34.568 92.6285 33.0691 91.1294 33.0691 89.2803C33.0691 89.2663 33.0716 89.2539 33.0716 89.2399C33.0679 89.2386 33.0666 89.2374 33.064 89.2362C32.9565 83.2187 28.0474 78.373 22.0024 78.373C15.8917 78.373 10.937 83.3277 10.937 89.4395C10.937 92.2669 12.0008 94.8445 13.7476 96.8002L13.7438 96.8066C13.9298 97.0039 14.0449 97.2681 14.0449 97.5604C14.0449 98.0651 13.7046 98.4865 13.243 98.6192L13.2455 98.6316C8.30979 100.326 4.76172 105.003 4.76172 110.513C4.76172 116.373 8.77527 121.289 14.2017 122.677V122.68C14.5736 122.756 14.8532 123.086 14.8532 123.481C14.8532 123.563 14.8367 123.64 14.8152 123.715L14.8165 123.716C14.5926 124.428 14.4661 125.184 14.4661 125.97C14.4661 130.141 17.8472 133.522 22.0189 133.522C23.4571 133.522 24.7979 133.112 25.9426 132.414C27.7413 131.409 29.6172 132.22 29.6172 134.65V137.104V139.266V158.464H33.5131V143.398C33.5144 143.373 33.5156 143.346 33.5169 143.321C33.5156 143.306 33.5144 143.288 33.5131 143.272V141.792C33.5131 137.964 36.8727 135.513 40.5017 135.513C41.3505 135.513 42.16 135.671 42.9138 135.948C43.3071 136.035 43.7144 136.087 44.1358 136.087C47.3084 136.087 49.8799 133.514 49.8799 130.343C49.8799 129.382 49.6406 128.477 49.2232 127.682C49.1386 127.486 49.0905 127.27 49.0905 127.044C49.0905 126.308 49.5913 125.693 50.2692 125.508L50.2769 125.494C52.8107 124.661 54.641 122.28 54.641 119.47C54.641 117.427 53.6719 115.615 52.1716 114.454L52.1692 114.444Z" fill="#CEDEE7"/>
<path d="M130.456 141.552L130.455 141.556L130.457 141.564C131.659 142.493 132.435 143.945 132.435 145.581C132.435 147.833 130.969 149.739 128.94 150.406L128.934 150.418C128.39 150.566 127.989 151.058 127.989 151.648C127.989 151.829 128.028 152.001 128.096 152.159C128.43 152.796 128.621 153.52 128.621 154.29C128.621 156.83 126.562 158.891 124.021 158.891C123.684 158.891 123.357 158.849 123.042 158.779C122.438 158.557 121.79 158.431 121.11 158.431C120.05 158.431 119.018 158.692 118.135 159.173H112.392V157.74C112.392 155.793 110.89 155.144 109.449 155.949C108.532 156.508 107.458 156.836 106.306 156.836C102.965 156.836 100.257 154.128 100.257 150.788C100.257 150.158 100.359 149.553 100.538 148.982L100.537 148.981C100.554 148.922 100.567 148.86 100.567 148.794C100.567 148.478 100.343 148.213 100.046 148.153V148.15C95.699 147.038 92.4844 143.101 92.4844 138.408C92.4844 133.995 95.3262 130.248 99.2793 128.891L99.2773 128.881C99.6474 128.775 99.9196 128.437 99.9196 128.033C99.9196 127.799 99.8274 127.587 99.6787 127.429L99.6819 127.424C98.2826 125.858 97.4306 123.793 97.4306 121.529C97.4306 116.633 101.399 112.665 106.293 112.665C111.135 112.665 115.067 116.546 115.153 121.366C115.155 121.367 115.156 121.368 115.159 121.369C115.159 121.374 115.159 121.38 115.158 121.385C115.158 121.39 115.157 121.396 115.157 121.401C115.157 122.882 116.358 124.083 117.839 124.083C118.331 124.083 118.79 123.948 119.186 123.717C119.187 123.718 119.19 123.719 119.192 123.72C119.192 123.72 119.192 123.72 119.192 123.721C119.192 123.721 119.192 123.721 119.192 123.721C120.582 122.817 122.24 122.289 124.021 122.289C128.916 122.289 132.885 126.257 132.885 131.153C132.885 133.483 131.984 135.601 130.514 137.184L130.513 137.187V137.191C130.504 137.197 130.496 137.205 130.487 137.212C130.319 137.391 130.143 137.566 129.961 137.73C129.603 138.19 129.386 138.764 129.386 139.392C129.386 140.273 129.806 141.055 130.456 141.552Z" fill="#CEDEE7"/>
<path d="M109.496 139.288C104.519 139.288 100.413 143.013 99.82 147.826C99.2751 147.642 98.6914 147.542 98.0844 147.542C95.0999 147.542 92.6806 149.96 92.6806 152.942C92.6806 153.222 92.7019 153.497 92.7428 153.765L83.7495 154.506C81.6519 154.506 79.9367 156.145 79.8164 158.211H124.098C124.191 157.816 124.239 157.404 124.239 156.98C124.239 154.136 122.038 151.805 119.246 151.595V151.582L119.154 151.589C119.073 151.585 118.99 151.582 118.908 151.581C119.128 150.767 119.245 149.912 119.245 149.029C119.245 143.649 114.881 139.288 109.496 139.288Z" fill="#9BC3D3"/>
<path d="M73.3091 132.6L62.0437 113.295C58.2293 106.758 48.7974 106.739 44.9501 113.237C44.9276 113.275 44.9096 113.317 44.8968 113.359L39.0898 132.6V157.992C39.0898 158.169 39.2364 158.313 39.4136 158.313C52.3292 158.313 60.0691 158.313 72.9851 158.313C73.1623 158.313 73.3091 158.169 73.3091 157.992V132.6Z" fill="#FFE99F"/>
<path d="M107.951 121.727L96.6856 102.421C92.86 95.8654 83.384 95.8654 79.5579 102.421L68.293 121.727V157.993C68.293 158.17 68.4365 158.313 68.6137 158.313C81.6191 158.313 94.6248 158.313 107.63 158.313C107.807 158.313 107.951 158.17 107.951 157.993V121.727Z" fill="#FFE99F"/>
<path fill-rule="evenodd" clip-rule="evenodd" d="M96.6826 102.421L107.948 121.726V130.356L93.8288 106.16C91.1177 101.514 86.1602 99.4741 81.4766 100.04C85.9385 95.9945 93.3958 96.7879 96.6826 102.421Z" fill="#FFE99F"/>
<path d="M88.2324 96.2402H59.8169L52.6603 100.387L32.8359 135.885H61.1885L72.038 116.006L80.3617 101.872L88.2324 96.2402Z" fill="#2A8FEC"/>
<path fill-rule="evenodd" clip-rule="evenodd" d="M80.7558 103.336C84.0242 97.6546 92.2164 97.6546 95.4848 103.336L113.804 135.175C114.194 135.853 115.06 136.087 115.738 135.696C116.416 135.305 116.649 134.439 116.259 133.76L97.9397 101.921C93.5816 94.3465 82.659 94.3465 78.3009 101.921L59.982 133.76C59.5919 134.439 59.8249 135.305 60.5028 135.696C61.1808 136.087 62.0468 135.853 62.4369 135.175L80.7558 103.336Z" fill="#F4A48D"/>
<path fill-rule="evenodd" clip-rule="evenodd" d="M59.7922 99.0742C56.9272 99.0742 54.0617 100.494 52.4276 103.335L34.1089 135.174C33.7186 135.852 32.8526 136.086 32.1747 135.695C31.4968 135.304 31.2637 134.438 31.654 133.759L49.9727 101.92C52.1517 98.1333 55.9718 96.2393 59.7922 96.2393V99.0742Z" fill="#2A8FEC"/>
<path d="M81.0195 158.313V137.064C81.0195 136.288 81.6538 135.659 82.436 135.659H95.3163C96.0985 135.659 96.7328 136.288 96.7328 137.064V158.313H81.0195Z" fill="#A66555"/>
<path d="M21.6016 158.211H127.287V160.135H21.6016V158.211Z" fill="#DEEDF2"/>
<path d="M112.408 151.392C113.25 150.7 113.785 149.665 113.785 148.508C113.785 146.427 112.052 144.74 109.914 144.74C107.775 144.74 106.041 146.427 106.041 148.508C106.041 149.264 106.27 149.968 106.664 150.558C104.376 151.386 102.746 153.531 102.746 156.046C102.746 156.811 102.897 157.541 103.171 158.211H114.349C114.623 157.541 114.774 156.811 114.774 156.046C114.774 154.148 113.846 152.461 112.408 151.392Z" fill="#9BC3D3"/>
<path d="M39.4513 139.288C44.4493 139.288 48.5732 143.013 49.169 147.826C49.7159 147.642 50.3024 147.542 50.9119 147.542C53.9092 147.542 56.3393 149.96 56.3393 152.942C56.3393 153.222 56.3176 153.497 56.2763 153.765L56.9318 154.025C59.1169 154.025 60.8886 155.788 60.8886 157.962C60.8886 158.046 60.8858 158.129 60.881 158.211H24.7863C24.6936 157.816 24.6445 157.404 24.6445 156.98C24.6445 154.136 26.8551 151.805 29.6596 151.595V151.582L29.7518 151.589C29.8337 151.585 29.9162 151.582 29.9993 151.581C29.778 150.767 29.6601 149.912 29.6601 149.029C29.6601 143.649 34.0439 139.288 39.4513 139.288Z" fill="#9BC3D3"/>
</svg>
