<svg width="160" height="160" viewBox="0 0 160 160" fill="none" xmlns="http://www.w3.org/2000/svg">
<path fill-rule="evenodd" clip-rule="evenodd" d="M58.7593 125.358C59.3615 125.384 59.9619 125.4 60.5611 125.407C72.6222 125.545 84.0573 129.737 93.3272 137.036C98.954 141.466 106.02 144.221 113.876 144.553C134.453 145.422 152.558 129.466 154.45 108.796C155.285 99.677 152.798 91.183 147.993 84.4643C143.878 78.7118 141.958 71.5909 142.775 64.361C142.785 64.2678 142.795 64.1746 142.804 64.0819C144.026 51.899 135.258 41.6721 123.128 41.1367C123.059 41.1334 122.989 41.1308 122.92 41.1286C119.646 41.0152 116.73 39.2547 115.147 36.4534C106.116 20.4818 89.3576 9.52367 69.3013 8.67989C37.254 7.3318 8.86559 32.3829 5.95719 64.5772C3.0468 96.797 26.6869 124.009 58.7593 125.358Z" fill="#EAF7FE"/>
<path d="M98.0157 156.813L54.1858 150.113C49.3185 149.367 45.9761 144.822 46.721 139.958L64.5915 23.3271C65.3366 18.4646 69.8864 15.1256 74.755 15.8699L118.584 22.5715C123.453 23.3164 126.794 27.8615 126.049 32.724L108.178 149.356C107.434 154.219 102.884 157.557 98.0157 156.813Z" fill="#9E3667"/>
<path d="M95.3243 156.403L51.4944 149.701C46.627 148.957 43.2848 144.41 44.0296 139.549L61.8997 22.9164C62.6452 18.054 67.1951 14.715 72.0632 15.4592L115.892 22.1614C120.76 22.9051 124.103 27.4508 123.357 32.3134L105.487 148.945C104.742 153.808 100.192 157.147 95.3243 156.403Z" fill="white"/>
<path d="M122.599 37.2678L106.08 145.082C105.566 148.434 101.397 150.576 98.0438 150.063L49.7643 142.681C46.4093 142.168 44.109 139.037 44.6224 135.685L61.1418 27.871C61.6557 24.5188 64.7884 22.2158 68.144 22.7287L116.422 30.111C119.775 30.6236 123.113 33.9159 122.599 37.2678Z" fill="white"/>
<path fill-rule="evenodd" clip-rule="evenodd" d="M105.253 26.0385C106.063 26.1626 106.822 25.6062 106.946 24.7962C107.07 23.9856 106.514 23.2287 105.703 23.1046C104.892 22.9811 104.134 23.5369 104.009 24.3476C103.886 25.1575 104.442 25.9151 105.253 26.0385ZM83.6728 22.0193C84.0952 22.084 84.4899 21.7943 84.555 21.3718C84.6196 20.9492 84.3295 20.5547 83.907 20.49C83.4842 20.4254 83.089 20.7152 83.0248 21.1377C82.9593 21.5601 83.2499 21.9547 83.6728 22.0193ZM81.5857 20.9185C81.521 21.3403 81.1263 21.6309 80.7039 21.5663C80.281 21.5008 79.9909 21.107 80.056 20.6844C80.1206 20.2619 80.5158 19.9722 80.9377 20.0368C81.3606 20.1015 81.6507 20.4961 81.5857 20.9185ZM89.7687 22.5863L96.8654 23.6711C97.0909 23.706 97.3014 23.5514 97.3357 23.3261C97.37 23.1008 97.2153 22.8906 96.9898 22.8563L89.8931 21.7713C89.6685 21.7372 89.4579 21.8911 89.4227 22.1165C89.3884 22.3416 89.5427 22.5521 89.7687 22.5863Z" fill="#DEEDF2"/>
<path fill-rule="evenodd" clip-rule="evenodd" d="M98.0078 156.785L54.1779 150.085C49.3107 149.339 45.9683 144.794 46.7132 139.931L64.5836 23.2993C65.3287 18.4367 69.8786 15.0978 74.7472 15.8421L118.576 22.5436C123.445 23.2886 126.786 27.8337 126.041 32.6962L108.17 149.328C107.426 154.191 102.876 157.529 98.0078 156.785Z" fill="#9E3667"/>
<path fill-rule="evenodd" clip-rule="evenodd" d="M95.3165 156.375L51.4866 149.673C46.6192 148.93 43.277 144.383 44.0218 139.521L61.8919 22.8891C62.6374 18.0266 67.1872 14.6877 72.0554 15.4319L115.884 22.1341C120.753 22.8777 124.095 27.4234 123.349 32.2861L105.479 148.917C104.734 153.781 100.184 157.119 95.3165 156.375Z" fill="white"/>
<path d="M122.596 37.2405L106.076 145.055C105.563 148.406 101.393 150.549 98.04 150.036L49.7604 142.654C46.4054 142.141 44.1051 139.01 44.6185 135.657L61.138 27.8437C61.6514 24.4915 64.7846 22.1884 68.1398 22.7013L116.418 30.0837C119.771 30.5963 123.109 33.8886 122.596 37.2405Z" fill="white"/>
<path fill-rule="evenodd" clip-rule="evenodd" d="M106.622 141.486L106.075 145.055C106.046 145.235 106.009 145.41 105.961 145.581C105.118 148.628 101.211 150.523 98.039 150.037L49.7594 142.654C46.8022 142.202 44.6615 139.715 44.5517 136.835C44.5368 136.447 44.5561 136.054 44.6176 135.657L45.1643 132.088L106.622 141.486Z" fill="#CEDEE7"/>
<path d="M106.624 141.486L106.077 145.055C106.049 145.235 106.012 145.41 105.963 145.581L105.931 145.576L106.075 144.636L44.6836 135.249L45.1669 132.088L106.624 141.486Z" fill="#2A8FEC"/>
<path fill-rule="evenodd" clip-rule="evenodd" d="M105.245 26.0112C106.056 26.1353 106.814 25.5788 106.938 24.7689C107.063 23.9582 106.506 23.2014 105.695 23.0772C104.885 22.9537 104.126 23.5095 104.002 24.3202C103.878 25.1302 104.434 25.8877 105.245 26.0112ZM83.6649 21.992C84.0874 22.0566 84.4821 21.7669 84.5471 21.3444C84.6118 20.9219 84.3216 20.5274 83.8992 20.4626C83.4764 20.398 83.0812 20.6879 83.017 21.1103C82.9515 21.5328 83.2421 21.9274 83.6649 21.992ZM81.5782 20.8911C81.5131 21.313 81.1184 21.6036 80.696 21.5389C80.2731 21.4735 79.9835 21.0796 80.0481 20.6571C80.1131 20.2346 80.5079 19.9449 80.9298 20.0095C81.3527 20.0741 81.6428 20.4688 81.5782 20.8911ZM89.7609 22.559L96.8576 23.6437C97.0831 23.6787 97.2936 23.5241 97.3279 23.2988C97.3622 23.0735 97.2075 22.8632 96.982 22.829L89.8853 21.744C89.6606 21.7098 89.4501 21.8638 89.4149 22.0891C89.3806 22.3143 89.5349 22.5247 89.7609 22.559Z" fill="#DEEDF2"/>
<path d="M122.594 37.2425L119.965 54.3999L58.5078 45.0035L61.1368 27.8457C61.6507 24.4935 64.7834 22.1901 68.139 22.7034L116.417 30.0857C119.77 30.5983 123.108 33.8905 122.594 37.2425Z" fill="#2A8FEC"/>
<path fill-rule="evenodd" clip-rule="evenodd" d="M107.295 137.135L45.8398 127.732L58.5068 45.0479L119.961 54.4505L107.295 137.135Z" fill="#CEDEE7"/>
<path fill-rule="evenodd" clip-rule="evenodd" d="M111.29 65.8969L62.6367 58.452L63.438 53.2925L112.091 60.7373L111.29 65.8969Z" fill="white"/>
<circle cx="77.9189" cy="121.108" r="8.79121" transform="rotate(8.7 77.9189 121.108)" fill="#2A8FEC"/>
<path fill-rule="evenodd" clip-rule="evenodd" d="M75.4408 122.666C75.909 122.534 76.189 122.054 76.0751 121.581L75.8514 120.65C77.0931 120.483 78.883 120.757 80.025 121.289L79.5331 122.111C79.2835 122.528 79.407 123.068 79.8136 123.336L80.5599 123.826C80.8769 124.034 81.2901 124.023 81.5955 123.799L82.647 123.027C83.1169 122.681 83.218 122.021 82.8725 121.55C80.5766 118.425 76.1819 117.752 73.0562 120.048C72.5859 120.394 72.4848 121.054 72.8298 121.524L73.6021 122.576C73.8268 122.881 74.218 123.015 74.5828 122.911L75.4408 122.666Z" fill="white"/>
<path fill-rule="evenodd" clip-rule="evenodd" d="M80.4426 104.809C83.8021 105.323 86.9423 103.016 87.4566 99.6566C87.9705 96.297 85.6637 93.1568 82.3041 92.6425C78.9445 92.1282 75.8043 94.435 75.2905 97.7946C74.7762 101.154 77.083 104.294 80.4426 104.809ZM80.1773 106.547C84.4969 107.208 88.5342 104.242 89.1953 99.9227C89.856 95.6031 86.8903 91.5658 82.5707 90.9047C78.2516 90.2436 74.2142 93.2093 73.5531 97.5289C72.892 101.848 75.8577 105.886 80.1773 106.547Z" fill="white"/>
<path fill-rule="evenodd" clip-rule="evenodd" d="M83.7671 83.083C87.1267 83.5973 90.2669 81.2905 90.7807 77.9309C91.295 74.5713 88.9882 71.4311 85.6286 70.9168C82.2691 70.403 79.1289 72.7094 78.6146 76.0689C78.1007 79.4285 80.4075 82.5687 83.7671 83.083ZM83.5018 84.8212C87.821 85.4823 91.8583 82.5166 92.5194 78.197C93.1805 73.8774 90.2148 69.8401 85.8952 69.179C81.5757 68.5183 77.5383 71.484 76.8772 75.8032C76.2166 80.1227 79.1823 84.1601 83.5018 84.8212Z" fill="white"/>
<path fill-rule="evenodd" clip-rule="evenodd" d="M99.5636 107.734C102.923 108.249 106.063 105.942 106.578 102.582C107.092 99.2227 104.785 96.0825 101.426 95.5682C98.0661 95.0543 94.9258 97.3607 94.4116 100.72C93.8973 104.08 96.2041 107.221 99.5636 107.734ZM99.2984 109.473C103.618 110.134 107.655 107.168 108.316 102.848C108.978 98.5288 106.011 94.4914 101.692 93.8303C97.3727 93.1697 93.3353 96.1354 92.6742 100.455C92.0131 104.774 94.9788 108.811 99.2984 109.473Z" fill="white"/>
<path fill-rule="evenodd" clip-rule="evenodd" d="M102.888 86.0088C106.248 86.523 109.388 84.2162 109.902 80.8567C110.416 77.4971 108.109 74.3569 104.75 73.8426C101.39 73.3288 98.25 75.6356 97.7357 78.9951C97.2218 82.3547 99.5286 85.4949 102.888 86.0088ZM102.623 87.747C106.942 88.4081 110.98 85.4423 111.64 81.1228C112.301 76.8032 109.336 72.7659 105.016 72.1048C100.696 71.4441 96.6591 74.4098 95.9984 78.7294C95.3373 83.0485 98.303 87.0863 102.623 87.747Z" fill="white"/>
<path fill-rule="evenodd" clip-rule="evenodd" d="M61.3254 101.883C64.6849 102.397 67.8251 100.09 68.3394 96.7304C68.8533 93.3708 66.5465 90.2306 63.1869 89.7167C59.8273 89.2024 56.6871 91.5093 56.1733 94.8688C55.659 98.2284 57.9658 101.369 61.3254 101.883ZM61.0601 103.621C65.3797 104.282 69.417 101.316 70.0781 96.9965C70.7388 92.6774 67.7731 88.6396 63.4535 87.9789C59.1344 87.3178 55.0966 90.2835 54.4359 94.6031C53.7748 98.9226 56.7405 102.96 61.0601 103.621Z" fill="white"/>
<path fill-rule="evenodd" clip-rule="evenodd" d="M64.6495 80.1588C68.009 80.6726 71.1493 78.3658 71.6635 75.0062C72.1778 71.6467 69.871 68.5065 66.5115 67.9926C63.1519 67.4783 60.0117 69.7851 59.4974 73.1447C58.9835 76.5043 61.2899 79.6445 64.6495 80.1588ZM64.3843 81.897C68.7039 82.5576 72.7412 79.5919 73.4023 75.2724C74.0634 70.9532 71.0977 66.9159 66.7782 66.2548C62.4586 65.5937 58.4212 68.5594 57.7601 72.879C57.099 77.1985 60.0652 81.2359 64.3843 81.897Z" fill="white"/>
<path d="M52.6602 76.0785C55.0777 75.3994 57.4013 74.3669 59.3208 72.9752L66.3872 74.8016L64.4694 67.9357L64.4263 67.7801L64.3305 67.9132L61.2966 67.4341L56.6043 66.257L54.2224 65.8794L52.6602 76.0785Z" fill="#34466B"/>
<path fill-rule="evenodd" clip-rule="evenodd" d="M56.2625 68.8821C40.548 74.6298 22.5171 68.3898 13.9483 53.3832C4.39268 36.6429 10.2293 15.3327 26.9867 5.78667C43.744 -3.76017 65.0753 2.07029 74.6318 18.8095C83.1988 33.818 79.3953 52.4975 66.4414 63.0826L66.3874 74.8026L56.2625 68.8821Z" fill="white"/>
<path d="M34.8071 15.2197L27.7221 20.4242L38.1314 34.5948L23.9609 45.0039L29.1655 52.0892L43.3359 41.6799L53.7447 55.8497L60.8295 50.6453L50.4212 36.4754L64.5908 26.0666L59.3864 18.9815L45.2165 29.3903L34.8071 15.2197Z" fill="#2274C0"/>
</svg>
