<svg width="160" height="160" viewBox="0 0 160 160" fill="none" xmlns="http://www.w3.org/2000/svg">
<path fill-rule="evenodd" clip-rule="evenodd" d="M58.7594 122.299C59.3616 122.324 59.962 122.34 60.5611 122.347C72.6218 122.485 84.0574 126.678 93.3273 133.976C98.9541 138.407 106.02 141.162 113.876 141.493C134.453 142.362 152.558 126.407 154.45 105.736C155.285 96.6178 152.798 88.1233 147.993 81.4046C143.878 75.6525 141.958 68.5317 142.775 61.3013C142.785 61.2086 142.795 61.1154 142.804 61.0222C144.026 48.8393 135.258 38.6125 123.128 38.0771C123.059 38.0738 122.989 38.0713 122.92 38.0691C119.646 37.9556 116.73 36.1952 115.146 33.3939C106.116 17.4222 89.3576 6.46414 69.3013 5.62031C37.2541 4.27227 8.86562 29.3234 5.95719 61.5176C3.0468 93.7378 26.6869 120.95 58.7594 122.299Z" fill="#EAF7FE"/>
<path d="M98.0155 153.75L54.1857 147.05C49.3184 146.304 45.9761 141.759 46.721 136.896L64.5914 20.2641C65.3364 15.4016 69.8863 12.0626 74.7549 12.8069L118.583 19.5085C123.452 20.2534 126.794 24.7985 126.049 29.661L108.179 146.293C107.434 151.156 102.884 154.494 98.0155 153.75Z" fill="#9E3667"/>
<path d="M95.3242 153.34L51.4943 146.638C46.627 145.894 43.2848 141.348 44.0296 136.486L61.8996 19.8539C62.6451 14.9915 67.195 11.6525 72.0631 12.3967L115.892 19.0989C120.76 19.8426 124.103 24.3883 123.357 29.2509L105.487 145.882C104.742 150.745 100.191 154.084 95.3242 153.34Z" fill="white"/>
<path d="M122.599 34.2053L106.08 142.02C105.566 145.371 101.397 147.513 98.0437 147.001L49.7641 139.618C46.4093 139.106 44.109 135.975 44.6224 132.622L61.1417 24.8085C61.6555 21.4563 64.7883 19.1533 68.1439 19.6662L116.422 27.0485C119.775 27.561 123.113 30.8534 122.599 34.2053Z" fill="white"/>
<path fill-rule="evenodd" clip-rule="evenodd" d="M105.253 22.9755C106.064 23.0997 106.822 22.5432 106.945 21.7332C107.07 20.9226 106.513 20.1657 105.703 20.0416C104.892 19.9181 104.134 20.4739 104.009 21.2845C103.886 22.0945 104.442 22.8521 105.253 22.9755ZM83.6728 18.9563C84.0952 19.021 84.4899 18.7312 84.555 18.3088C84.6196 17.8862 84.3295 17.4917 83.907 17.427C83.4842 17.3624 83.089 17.6522 83.0248 18.0747C82.9593 18.4971 83.2499 18.8918 83.6728 18.9563ZM81.586 17.8555C81.5209 18.2773 81.1262 18.5679 80.7038 18.5033C80.2809 18.4379 79.9913 18.044 80.0559 17.6215C80.1209 17.199 80.5157 16.9092 80.9381 16.9739C81.3609 17.0384 81.6506 17.4332 81.586 17.8555ZM89.7687 19.5233L96.8658 20.6081C97.0909 20.643 97.3014 20.4884 97.3357 20.2631C97.37 20.0378 97.2153 19.8276 96.9898 19.7933L89.8931 18.7084C89.6685 18.6742 89.4579 18.8281 89.4227 19.0535C89.3884 19.2786 89.5427 19.4891 89.7687 19.5233Z" fill="#DEEDF2"/>
<path fill-rule="evenodd" clip-rule="evenodd" d="M98.0077 153.726L54.1778 147.026C49.3105 146.28 45.9683 141.735 46.7132 136.872L64.5835 20.2402C65.3286 15.3777 69.8785 12.0387 74.7475 12.783L118.576 19.4846C123.445 20.2295 126.786 24.7746 126.041 29.6371L108.171 146.269C107.426 151.132 102.876 154.47 98.0077 153.726Z" fill="#9E3667"/>
<path fill-rule="evenodd" clip-rule="evenodd" d="M95.3163 153.314L51.4869 146.612C46.6192 145.869 43.277 141.322 44.0218 136.46L61.8917 19.8281C62.6372 14.9656 67.1871 11.6267 72.0552 12.3708L115.884 19.073C120.752 19.8167 124.095 24.3624 123.349 29.225L105.479 145.856C104.734 150.72 100.184 154.059 95.3163 153.314Z" fill="white"/>
<path d="M122.595 34.1814L106.076 141.996C105.562 145.347 101.393 147.49 98.0397 146.977L49.7602 139.595C46.4054 139.081 44.1051 135.95 44.6185 132.598L61.1378 24.7846C61.6516 21.4324 64.7843 19.1293 68.1399 19.6423L116.418 27.0246C119.771 27.5372 123.109 30.8295 122.595 34.1814Z" fill="white"/>
<path fill-rule="evenodd" clip-rule="evenodd" d="M106.622 138.427L106.075 141.995C106.046 142.175 106.009 142.351 105.961 142.521C105.118 145.568 101.211 147.463 98.0389 146.978L49.7594 139.594C46.8022 139.142 44.6615 136.656 44.5517 133.775C44.5368 133.387 44.5561 132.995 44.6176 132.598L45.1643 129.029L106.622 138.427Z" fill="#CEDEE7"/>
<path d="M106.624 138.427L106.077 141.995C106.049 142.175 106.012 142.351 105.963 142.521L105.931 142.517L106.075 141.576L44.6836 132.19L45.1669 129.029L106.624 138.427Z" fill="#2A8FEC"/>
<path fill-rule="evenodd" clip-rule="evenodd" d="M89.3154 115.605L105.37 118.058L102.911 134.1L86.8556 131.647L89.3154 115.605ZM70.8851 112.786L86.9392 115.239L84.4794 131.281L68.4258 128.828L70.8851 112.786ZM52.4559 109.968L68.5099 112.421L66.051 128.463L49.9961 126.01L52.4559 109.968Z" fill="#CEDEE7"/>
<path fill-rule="evenodd" clip-rule="evenodd" d="M105.245 22.9506C106.056 23.0748 106.814 22.5183 106.938 21.7083C107.062 20.8977 106.505 20.1408 105.695 20.0167C104.884 19.8931 104.126 20.449 104.002 21.2596C103.878 22.0696 104.434 22.8272 105.245 22.9506ZM83.6649 18.9314C84.0874 18.9961 84.4821 18.7063 84.5471 18.2839C84.6118 17.8613 84.3216 17.4668 83.8992 17.4021C83.4764 17.3375 83.0812 17.6273 83.017 18.0498C82.9515 18.4722 83.2421 18.8669 83.6649 18.9314ZM81.5778 17.8305C81.5128 18.2524 81.1181 18.543 80.6961 18.4783C80.2732 18.4129 79.9831 18.0191 80.0482 17.5966C80.1128 17.174 80.508 16.8843 80.9299 16.949C81.3528 17.0135 81.6429 17.4082 81.5778 17.8305ZM89.7604 19.4984L96.8576 20.5832C97.0826 20.6181 97.2932 20.4635 97.3275 20.2382C97.3622 20.0129 97.2075 19.8027 96.982 19.7684L89.8848 18.6835C89.6606 18.6493 89.4497 18.8032 89.4149 19.0286C89.3806 19.2537 89.5345 19.4642 89.7604 19.4984Z" fill="#DEEDF2"/>
<path d="M122.594 34.1805L119.965 51.3383L58.5078 41.9414L61.1364 24.7837C61.6502 21.4315 64.783 19.1281 68.1386 19.6414L116.417 27.0237C119.77 27.5362 123.108 30.8284 122.594 34.1805Z" fill="#2A8FEC"/>
<path fill-rule="evenodd" clip-rule="evenodd" d="M116.183 76.0533L54.7266 66.6564L58.5068 41.9878L119.962 51.3847L116.183 76.0533Z" fill="#DEEDF2"/>
<path fill-rule="evenodd" clip-rule="evenodd" d="M112.953 62.8883C112.346 66.8483 108.641 69.5679 104.676 68.9613C100.712 68.3551 97.99 64.6536 98.5962 60.6931C99.2041 56.7331 102.909 54.014 106.874 54.6202C110.838 55.2259 113.56 58.9283 112.953 62.8883Z" fill="#CEDEE7"/>
<path fill-rule="evenodd" clip-rule="evenodd" d="M95.3747 59.4977L62.449 54.4639L62.2617 55.6854L95.1874 60.7201L95.3747 59.4977Z" fill="white"/>
<path fill-rule="evenodd" clip-rule="evenodd" d="M116.2 75.935L112.42 100.604L50.9648 91.2058L52.6783 80.0198L53.2334 76.39L54.7446 66.5381L64.7666 68.0713L65.9961 68.2603L68.5354 68.6467L68.6519 68.6642L116.2 75.935Z" fill="#9BC3D3"/>
<path fill-rule="evenodd" clip-rule="evenodd" d="M109.098 88.059C108.491 92.019 104.785 94.7381 100.821 94.1319C96.8567 93.5253 94.1345 89.8238 94.7407 85.8638C95.3477 81.9038 99.0541 79.1842 103.018 79.79C106.983 80.3966 109.704 84.0985 109.098 88.059Z" fill="#DEEDF2"/>
<path fill-rule="evenodd" clip-rule="evenodd" d="M85.2879 83.253L62.7029 79.7998L62.5156 81.0227L85.1007 84.4754L85.2879 83.253Z" fill="#DEEDF2"/>
<path fill-rule="evenodd" clip-rule="evenodd" d="M66.3243 76.6252C62.5199 79.3839 57.1287 80.7312 52.5586 80.7153L53.0812 77.4164L54.5019 68.4644L63.6083 69.9074L68.3006 71.0846L71.3344 71.5633L71.4302 71.4305L71.4733 71.5857L73.3911 78.4516L66.3252 76.6252H66.3243Z" fill="#34466B"/>
<path fill-rule="evenodd" clip-rule="evenodd" d="M63.2939 72.8558C47.5791 78.6035 29.5484 72.3635 20.9796 57.3569C11.4239 40.6166 17.2605 19.3063 34.0179 9.7603C50.7752 0.213468 72.1066 6.04391 81.6631 22.7831C90.2301 37.7916 86.4262 56.4712 73.4728 67.0562L73.4187 78.7762L63.2939 72.8558Z" fill="white"/>
<path d="M71.5127 30.4501L66.3083 23.365L52.1377 33.7741L41.7289 19.604L34.6438 24.8085L45.0528 38.9786L30.8828 49.3873L36.0873 56.4726L50.2573 46.0638L60.6665 60.2339L67.7513 55.0295L57.3425 40.8592L71.5127 30.4501Z" fill="#2274C0"/>
</svg>
