<svg width="160" height="160" viewBox="0 0 160 160" fill="none" xmlns="http://www.w3.org/2000/svg">
<path fill-rule="evenodd" clip-rule="evenodd" d="M58.5029 127.559C59.1216 127.586 59.7386 127.602 60.3542 127.609C72.7469 127.751 84.4964 132.059 94.0212 139.558C99.8027 144.11 107.063 146.941 115.135 147.282C136.278 148.175 154.881 131.78 156.825 110.541C157.682 101.172 155.127 92.4444 150.19 85.541C145.962 79.6303 143.989 72.3137 144.828 64.885C144.839 64.7892 144.849 64.6935 144.858 64.5982C146.114 52.0804 137.105 41.5723 124.641 41.0222C124.57 41.0188 124.499 41.0162 124.428 41.0139C121.064 40.8973 118.068 39.0885 116.44 36.2101C107.161 19.7994 89.9424 8.53999 69.3347 7.67301C36.4063 6.28786 7.23738 32.0277 4.249 65.1072C1.2586 98.2128 25.5486 126.173 58.5029 127.559Z" fill="#EAF7FE"/>
<path d="M98.6437 159.865L53.6087 152.981C48.6076 152.214 45.1733 147.544 45.9387 142.547L64.3005 22.7093C65.0661 17.7131 69.741 14.2823 74.7435 15.0471L119.777 21.9329C124.78 22.6983 128.213 27.3684 127.447 32.3645L109.086 152.203C108.321 157.2 103.646 160.63 98.6437 159.865Z" fill="#9E3667"/>
<path d="M96.2531 159.492L51.2181 152.606C46.2169 151.841 42.7828 147.17 43.5481 142.174L61.9095 22.3358C62.6755 17.3396 67.3505 13.9089 72.3524 14.6735L117.386 21.56C122.388 22.3241 125.823 26.9947 125.057 31.9911L106.695 151.829C105.93 156.826 101.254 160.257 96.2531 159.492Z" fill="white"/>
<path d="M124.234 37.0494L107.26 147.828C106.732 151.272 102.448 153.473 99.0028 152.946L49.3959 145.361C45.9487 144.834 43.5851 141.617 44.1127 138.172L61.0863 27.3943C61.6142 23.9499 64.8331 21.5835 68.281 22.1105L117.887 29.6958C121.332 30.2225 124.761 33.6053 124.234 37.0494Z" fill="white"/>
<path fill-rule="evenodd" clip-rule="evenodd" d="M106.29 25.5174C107.122 25.6449 107.902 25.0731 108.029 24.2409C108.157 23.408 107.585 22.6303 106.752 22.5028C105.919 22.3759 105.14 22.947 105.012 23.7799C104.885 24.6121 105.456 25.3905 106.29 25.5174ZM84.1554 21.3765C84.5895 21.443 84.995 21.1453 85.0619 20.7112C85.1283 20.277 84.8302 19.8716 84.3962 19.8051C83.9617 19.7388 83.5557 20.0366 83.4897 20.4707C83.4224 20.9047 83.721 21.3102 84.1554 21.3765ZM82.0733 20.2628C82.0069 20.6962 81.6013 20.9948 81.1673 20.9284C80.7328 20.8612 80.4347 20.4564 80.5016 20.0223C80.5679 19.5882 80.974 19.2905 81.4076 19.3569C81.842 19.4233 82.1401 19.8288 82.0733 20.2628ZM90.4143 21.9828L97.7061 23.0973C97.9378 23.1332 98.1542 22.9744 98.1894 22.7429C98.2246 22.5114 98.0656 22.2953 97.8339 22.2602L90.5421 21.1454C90.3113 21.1103 90.095 21.2684 90.0589 21.5C90.0236 21.7313 90.1822 21.9476 90.4143 21.9828Z" fill="#DEEDF2"/>
<path fill-rule="evenodd" clip-rule="evenodd" d="M98.6436 159.865L53.6087 152.98C48.6076 152.214 45.1733 147.544 45.9387 142.547L64.3005 22.7093C65.066 17.7131 69.741 14.2823 74.7434 15.0471L119.777 21.9329C124.78 22.6983 128.213 27.3684 127.447 32.3645L109.086 152.203C108.321 157.2 103.646 160.63 98.6436 159.865Z" fill="#9E3667"/>
<path fill-rule="evenodd" clip-rule="evenodd" d="M96.253 159.417L51.2181 152.531C46.2169 151.767 42.7828 147.095 43.5481 142.1L61.9095 22.261C62.6755 17.2649 67.3504 13.8342 72.3524 14.5988L117.386 21.4853C122.388 22.2493 125.823 26.92 125.057 31.9164L106.695 151.754C105.93 156.751 101.254 160.182 96.253 159.417Z" fill="white"/>
<path d="M124.234 37.0494L107.26 147.828C106.732 151.272 102.448 153.473 99.0029 152.947L49.396 145.361C45.9487 144.834 43.5851 141.617 44.1127 138.172L61.0864 27.3943C61.6139 23.9499 64.8332 21.5835 68.2806 22.1105L117.887 29.6958C121.332 30.2225 124.761 33.6053 124.234 37.0494Z" fill="white"/>
<path fill-rule="evenodd" clip-rule="evenodd" d="M107.821 144.119L107.258 147.785C107.229 147.97 107.191 148.15 107.141 148.326C106.276 151.456 102.261 153.404 99.0018 152.905L49.3949 145.318C46.3564 144.854 44.1568 142.299 44.044 139.339C44.0287 138.941 44.0485 138.537 44.1118 138.129L44.6735 134.462L107.821 144.119Z" fill="#CEDEE7"/>
<path d="M107.683 144.119L107.121 147.785C107.091 147.97 107.053 148.15 107.003 148.326L106.97 148.321L107.118 147.355L44.0391 137.71L44.5357 134.462L107.683 144.119Z" fill="#EC0000"/>
<path fill-rule="evenodd" clip-rule="evenodd" d="M106.29 25.4427C107.122 25.5702 107.902 24.9984 108.029 24.1662C108.157 23.3333 107.585 22.5556 106.752 22.4281C105.919 22.3011 105.14 22.8723 105.012 23.7052C104.885 24.5374 105.456 25.3158 106.29 25.4427ZM84.1554 21.3018C84.5895 21.3683 84.995 21.0705 85.0619 20.6364C85.1283 20.2023 84.8302 19.7969 84.3962 19.7304C83.9617 19.6641 83.5557 19.9619 83.4897 20.3959C83.4224 20.83 83.721 21.2355 84.1554 21.3018ZM82.0736 20.1881C82.0068 20.6215 81.6012 20.9201 81.1672 20.8537C80.7327 20.7865 80.4351 20.3817 80.5014 19.9476C80.5683 19.5135 80.9739 19.2158 81.4075 19.2822C81.8419 19.3486 82.14 19.7541 82.0736 20.1881ZM90.4143 21.9081L97.7061 23.0226C97.9378 23.0585 98.1542 22.8997 98.1894 22.6682C98.2246 22.4367 98.0656 22.2206 97.8339 22.1855L90.5421 21.0707C90.3113 21.0356 90.095 21.1937 90.0589 21.4253C90.0236 21.6566 90.1822 21.8729 90.4143 21.9081Z" fill="#DEEDF2"/>
<path d="M124.231 37.0495L121.53 54.6786L58.3828 45.0238L61.0841 27.3943C61.6121 23.9499 64.831 21.5833 68.2788 22.1106L117.884 29.6959C121.33 30.2226 124.759 33.6053 124.231 37.0495Z" fill="#EC0000"/>
<path fill-rule="evenodd" clip-rule="evenodd" d="M108.38 139.664L45.2344 130.003L58.2496 45.0449L121.394 54.7061L108.38 139.664Z" fill="#CEDEE7"/>
<path fill-rule="evenodd" clip-rule="evenodd" d="M112.558 66.512L62.5664 58.8625L63.3898 53.561L113.38 61.2106L112.558 66.512Z" fill="white"/>
<circle cx="77.8986" cy="123.244" r="9.03291" transform="rotate(8.7 77.8986 123.244)" fill="#EC0000"/>
<path fill-rule="evenodd" clip-rule="evenodd" d="M75.6198 124.808C76.1008 124.672 76.3885 124.179 76.2715 123.693L76.0416 122.736C77.3175 122.564 79.1566 122.846 80.33 123.393L79.8246 124.238C79.5681 124.666 79.695 125.221 80.1128 125.496L80.8797 125.999C81.2053 126.213 81.6299 126.202 81.9437 125.971L83.0241 125.178C83.5069 124.823 83.6108 124.144 83.2558 123.661C80.8968 120.45 76.3813 119.759 73.1696 122.118C72.6864 122.473 72.5825 123.152 72.937 123.635L73.7306 124.715C73.9614 125.029 74.3633 125.167 74.7382 125.06L75.6198 124.808Z" fill="white"/>
<path fill-rule="evenodd" clip-rule="evenodd" d="M81.0782 106.399C84.5302 106.927 87.7567 104.558 88.2851 101.106C88.8131 97.6537 86.4429 94.4272 82.9909 93.8987C79.539 93.3703 76.3125 95.7406 75.7845 99.1925C75.2561 102.644 77.6263 105.871 81.0782 106.399ZM80.819 108.199C85.2573 108.878 89.4057 105.831 90.0849 101.393C90.7638 96.9546 87.7165 92.8062 83.2782 92.1269C78.8403 91.4477 74.692 94.4949 74.0127 98.9332C73.3334 103.372 76.3807 107.52 80.819 108.199Z" fill="white"/>
<path fill-rule="evenodd" clip-rule="evenodd" d="M84.0668 84.1385C87.5188 84.667 90.7453 82.2967 91.2733 78.8448C91.8017 75.3929 89.4315 72.1663 85.9796 71.6379C82.5276 71.1099 79.3011 73.4797 78.7727 76.9316C78.2447 80.3836 80.6149 83.6101 84.0668 84.1385ZM83.8076 85.9383C88.2455 86.6176 92.3938 83.5704 93.0731 79.132C93.7524 74.6937 90.7051 70.5454 86.2668 69.8661C81.8285 69.1873 77.6801 72.2345 77.0008 76.6724C76.322 81.1107 79.3693 85.2591 83.8076 85.9383Z" fill="white"/>
<path fill-rule="evenodd" clip-rule="evenodd" d="M100.805 109.462C104.257 109.991 107.483 107.62 108.012 104.169C108.54 100.717 106.17 97.4901 102.718 96.9616C99.266 96.4337 96.0395 98.8034 95.5111 102.255C94.9826 105.708 97.3529 108.934 100.805 109.462ZM100.546 111.262C104.984 111.941 109.132 108.894 109.812 104.456C110.491 100.017 107.443 95.8691 103.005 95.1898C98.5669 94.511 94.4185 97.5582 93.7392 101.996C93.06 106.434 96.1072 110.583 100.546 111.262Z" fill="white"/>
<path fill-rule="evenodd" clip-rule="evenodd" d="M103.79 87.1263C107.241 87.6548 110.468 85.2845 110.996 81.8326C111.524 78.3807 109.154 75.1541 105.702 74.6257C102.25 74.0977 99.0237 76.4679 98.4953 79.9199C97.9673 83.3718 100.338 86.5984 103.79 87.1263ZM103.53 88.9261C107.968 89.6054 112.117 86.5582 112.795 82.1198C113.475 77.6815 110.427 73.5331 105.989 72.8539C101.551 72.1751 97.4024 75.2223 96.7236 79.6606C96.0443 84.0985 99.0916 88.2473 103.53 88.9261Z" fill="white"/>
<path fill-rule="evenodd" clip-rule="evenodd" d="M60.762 103.486C64.2139 104.014 67.4405 101.644 67.9689 98.1918C68.4969 94.7399 66.1266 91.5133 62.6747 90.9853C59.2228 90.4569 55.9962 92.8271 55.4683 96.2791C54.9398 99.731 57.3101 102.958 60.762 103.486ZM60.5026 105.286C64.9409 105.964 69.0893 102.917 69.7685 98.4789C70.4474 94.041 67.4001 89.8922 62.9618 89.2134C58.5239 88.5341 54.3751 91.5813 53.6963 96.0197C53.017 100.458 56.0643 104.606 60.5026 105.286Z" fill="white"/>
<path fill-rule="evenodd" clip-rule="evenodd" d="M64.9452 81.0755C68.3971 81.6035 71.6237 79.2333 72.1521 75.7814C72.6805 72.3294 70.3103 69.1029 66.8584 68.5749C63.4064 68.0465 60.1799 70.4167 59.6514 73.8686C59.1235 77.3206 61.4933 80.5471 64.9452 81.0755ZM64.6862 82.8755C69.1245 83.5543 73.2728 80.507 73.9521 76.0687C74.6314 71.6308 71.5841 67.4825 67.1458 66.8032C62.7075 66.1239 58.5591 69.1712 57.8799 73.6095C57.2006 78.0478 60.2483 82.1962 64.6862 82.8755Z" fill="white"/>
<path d="M52.4062 76.9639C54.8903 76.2661 57.2777 75.2052 59.25 73.7753L66.5107 75.6519L64.5402 68.5972L64.4959 68.4373L64.3974 68.5741L61.2802 68.0818L56.4589 66.8723L54.0114 66.4844L52.4062 76.9639Z" fill="#34466B"/>
<path fill-rule="evenodd" clip-rule="evenodd" d="M55.7827 69.5453C39.6361 75.451 21.1094 69.0394 12.3051 53.6203C2.48671 36.4197 8.48376 14.5236 25.7019 4.71508C42.9199 -5.09423 64.8377 0.89652 74.6569 18.0959C83.4595 33.5171 79.5514 52.7102 66.2414 63.5863L66.1859 75.6285L55.7827 69.5453Z" fill="white"/>
<path d="M33.6717 14.4175L26.3919 19.7651L37.0874 34.3253L22.5273 45.0206L27.875 52.3007L42.435 41.6051L53.1299 56.1645L60.4096 50.817L49.7151 36.2576L64.2743 25.5626L58.9268 18.2827L44.3673 28.9777L33.6717 14.4175Z" fill="#CC0000"/>
</svg>
