<svg width="160" height="160" viewBox="0 0 160 160" fill="none" xmlns="http://www.w3.org/2000/svg">
<path fill-rule="evenodd" clip-rule="evenodd" d="M61.006 116.271C60.6282 115.893 60.2571 115.511 59.8936 115.125C52.5725 107.344 42.8726 102.265 32.3608 100.357C25.9805 99.198 19.8755 96.1532 14.9424 91.2219C2.02148 78.3054 2.0068 57.4757 14.9103 44.5417C20.6025 38.8362 27.8607 35.648 35.3033 34.9762C41.6749 34.4008 47.6614 31.6212 52.0819 26.9966C52.1389 26.9371 52.1964 26.8779 52.254 26.8193C59.7947 19.1267 71.9937 19.0506 79.6266 26.6517C79.6702 26.6951 79.7138 26.7389 79.7564 26.7827C81.7953 28.8518 84.7386 29.7554 87.5897 29.2017C103.848 26.045 121.331 30.7618 133.924 43.3533C154.043 63.4727 154.043 96.1519 133.924 116.271C113.787 136.407 81.1416 136.407 61.006 116.271Z" fill="#EAF7FE"/>
<path d="M32.7325 115.604C38.3095 115.604 42.911 119.78 43.5756 125.173C44.1861 124.966 44.8404 124.854 45.5206 124.854C48.8651 124.854 51.576 127.564 51.576 130.905C51.576 131.219 51.5522 131.527 51.5064 131.828L61.5843 132.658V132.658C63.9349 132.658 65.857 134.495 65.9918 136.81H16.3691C16.2657 136.367 16.2109 135.905 16.2109 135.43C16.2109 132.243 18.6776 129.632 21.8068 129.397V129.381L21.9097 129.389C22.0011 129.384 22.0931 129.381 22.1858 129.38C21.9389 128.469 21.8074 127.51 21.8074 126.521C21.8074 120.492 26.6989 115.604 32.7325 115.604Z" fill="#9BC3D3"/>
<path d="M34.4648 95.8118L47.0885 74.1783C51.3756 66.8312 61.9949 66.8312 66.2819 74.1783L78.9055 95.8118V136.811C64.0921 136.811 49.2783 136.811 34.4648 136.811V95.8118Z" fill="#FFE99F"/>
<path d="M78.9062 99.251H111.062L114.849 105.703V136.811H78.9062V99.251Z" fill="#FFE99F"/>
<path fill-rule="evenodd" clip-rule="evenodd" d="M47.0885 74.1773L34.4648 95.8107V105.482L50.2865 78.3682C53.3246 73.1614 58.88 70.875 64.1285 71.5094C59.1284 66.9761 50.7717 67.8653 47.0885 74.1773Z" fill="#FFE99F"/>
<path fill-rule="evenodd" clip-rule="evenodd" d="M64.938 75.2033C61.275 68.8369 52.0952 68.8369 48.4322 75.2033L27.9043 110.882C27.467 111.642 26.4966 111.904 25.7369 111.466C24.9772 111.028 24.716 110.057 25.1534 109.297L45.6813 73.6182C50.565 65.1299 62.8053 65.1299 67.689 73.6182L88.2168 109.297C88.6539 110.057 88.3929 111.028 87.6332 111.466C86.8734 111.904 85.903 111.642 85.4658 110.882L64.938 75.2033Z" fill="#F4A48D"/>
<path d="M56.5618 67.2524C56.6031 67.252 56.6444 67.2515 56.6853 67.2515H56.5609L56.5618 67.2524Z" fill="#EC0000"/>
<path d="M86.8794 111.678H118.548C118.572 111.679 118.597 111.679 118.622 111.678H118.635L118.635 111.678C118.887 111.67 119.141 111.601 119.375 111.466C120.135 111.028 120.396 110.058 119.958 109.297L99.4306 73.6183C96.9887 69.3739 92.7075 67.252 88.4267 67.252V67.2672L88.4002 67.252H56.6875C60.9674 67.2529 65.2473 69.3748 67.6887 73.6183L88.2165 109.297C88.6536 110.058 88.3926 111.028 87.6329 111.466C87.3947 111.604 87.1359 111.672 86.8794 111.678Z" fill="#EC0000"/>
<path d="M64.6435 136.811V112.998C64.6435 112.129 63.9327 111.424 63.0562 111.424H48.6225C47.7459 111.424 47.0352 112.129 47.0352 112.998V136.811H64.6435Z" fill="#A66555"/>
<path d="M131.166 136.811H12.7344V138.967H131.166V136.811Z" fill="#DEEDF2"/>
<path d="M30.0075 129.169C29.0632 128.394 28.4633 127.235 28.4633 125.939C28.4633 123.606 30.406 121.715 32.8023 121.715C35.1986 121.715 37.1412 123.606 37.1412 125.939C37.1412 126.786 36.8851 127.574 36.4442 128.235C39.0077 129.163 40.834 131.567 40.834 134.385C40.834 135.242 40.6651 136.061 40.358 136.811H27.8315C27.5244 136.061 27.3555 135.242 27.3555 134.385C27.3555 132.258 28.3955 130.368 30.0075 129.169Z" fill="#9BC3D3"/>
<path d="M111.242 115.605C105.641 115.605 101.019 119.781 100.352 125.174C99.739 124.967 99.0821 124.855 98.3987 124.855C95.0399 124.855 92.3168 127.564 92.3168 130.906C92.3168 131.22 92.341 131.528 92.3873 131.829L91.6527 132.12V132.12C89.2041 132.12 87.2188 134.095 87.2188 136.532C87.2188 136.626 87.2219 136.719 87.2277 136.811H127.675C127.779 136.368 127.834 135.906 127.834 135.431C127.834 132.244 125.357 129.633 122.214 129.398V129.382L122.111 129.39C122.019 129.385 121.927 129.382 121.833 129.381C122.081 128.47 122.214 127.511 122.214 126.522C122.214 120.493 117.301 115.605 111.242 115.605Z" fill="#9BC3D3"/>
<path fill-rule="evenodd" clip-rule="evenodd" d="M19.2881 36.5481C15.7836 36.1256 12.3335 36.9151 9.60173 39.0687C7.76384 36.3124 3.44541 34.926 0.441194 35.324C-0.132522 35.3996 -0.16143 36.1935 0.441194 36.2391C2.26462 36.378 4.05581 36.9339 5.45672 38.1525C6.63641 39.1799 7.20345 40.5919 8.17188 41.7749C8.44986 42.1141 9.01245 42.2208 9.41492 42.1041C9.52055 42.0729 9.62842 42.034 9.7207 41.9751C9.82633 41.9072 9.91749 41.8228 9.99975 41.7305C10.0553 41.6905 10.1143 41.6716 10.1654 41.6182C12.6171 39.0732 15.6969 37.4076 19.2881 37.3653C19.8274 37.3587 19.7974 36.6093 19.2881 36.5481Z" fill="#9BC3D3"/>
<path fill-rule="evenodd" clip-rule="evenodd" d="M18.356 65.1586C21.2524 65.212 23.7351 68.6531 25.712 71.8673C25.7543 71.9351 25.8009 71.9585 25.8454 72.0097C25.9121 72.1252 25.9866 72.233 26.0711 72.3175C26.1456 72.3934 26.2324 72.4424 26.3179 72.481C26.6426 72.6279 27.0952 72.4945 27.3198 72.0654C28.1014 70.572 28.5583 69.456 29.509 68.1584C30.6386 66.6174 32.084 65.917 33.5539 65.7413C34.0397 65.6833 34.0164 64.6805 33.5539 64.5848C31.1312 64.0812 27.6489 65.8334 26.1668 69.3158C23.9642 66.594 21.1823 63.5919 18.356 64.1257C17.9458 64.2034 17.9213 65.1505 18.356 65.1586Z" fill="#9BC3D3"/>
<path fill-rule="evenodd" clip-rule="evenodd" d="M28.5551 52.9008C31.099 52.9309 33.2805 54.1094 35.0172 55.9119C35.0528 55.951 35.095 55.964 35.1339 55.9919C35.1928 56.0566 35.2573 56.1177 35.3329 56.1653C35.3974 56.2075 35.4741 56.2354 35.5486 56.2565C35.8333 56.3387 36.2313 56.2633 36.4281 56.0242C37.1152 55.1868 37.5166 54.1862 38.3527 53.4579C39.3445 52.5953 40.6131 52.2004 41.9051 52.1029C42.332 52.0704 42.312 51.5079 41.9051 51.4545C39.777 51.1721 36.7183 52.1537 35.4163 54.1062C33.4817 52.5809 31.0379 52.0215 28.5551 52.3217C28.196 52.3662 28.1737 52.8968 28.5551 52.9008Z" fill="#9BC3D3"/>
<path fill-rule="evenodd" clip-rule="evenodd" d="M85.088 49.7528C77.74 58.7975 79.1849 72.0307 88.3152 79.31C97.4456 86.5893 110.805 85.1579 118.153 76.1129C125.501 67.0684 124.056 53.8351 114.925 46.5558C105.795 39.2766 92.4361 40.708 85.088 49.7528Z" fill="#CEDEE7"/>
<path fill-rule="evenodd" clip-rule="evenodd" d="M120.511 73.2119L157.952 103.061L153.238 108.864L115.797 79.014L120.511 73.2119Z" fill="#137E84"/>
<path fill-rule="evenodd" clip-rule="evenodd" d="M135.801 95.298L153.534 109.435C155.167 110.737 157.578 110.479 158.892 108.861L159.161 108.529C160.476 106.912 160.215 104.523 158.582 103.222L140.849 89.084L135.801 95.298Z" fill="#444444"/>
<path fill-rule="evenodd" clip-rule="evenodd" d="M101.658 40.4273C105.617 40.4345 109.52 41.4654 112.943 43.4194C116.394 45.3897 119.308 48.2639 121.294 51.6714C122.848 54.337 123.838 57.3234 124.19 60.3781C124.638 64.2689 124.044 68.2779 122.475 71.8672C120.968 75.3141 118.578 78.3715 115.592 80.6817C112.227 83.2858 108.102 84.9167 103.825 85.3305C99.7422 85.7249 95.5464 85.0061 91.8317 83.2462C87.8834 81.3754 84.5048 78.3603 82.2273 74.6663C80.5344 71.9211 79.4526 68.8206 79.0639 65.6204C78.5863 61.6882 79.1718 57.6357 80.7627 53.9974C82.27 50.5494 84.662 47.4916 87.6453 45.1825C91.2454 42.3966 95.7041 40.7393 100.262 40.4679C100.726 40.4404 101.191 40.4269 101.658 40.4273ZM101.596 43.3919C98.0928 43.401 94.6064 44.3377 91.5922 46.0988C88.0482 48.1698 85.1934 51.3719 83.5459 55.0924C82.1433 58.2598 81.6203 61.7989 82.0323 65.2372C82.4973 69.1195 84.1574 72.845 86.7646 75.7932C89.078 78.4089 92.0909 80.3992 95.429 81.491C99.1752 82.7162 103.294 82.7863 107.079 81.7107C110.251 80.809 113.185 79.1048 115.531 76.7874C117.814 74.532 119.539 71.7155 120.482 68.6671C121.576 65.1307 121.629 61.2638 120.616 57.6654C119.668 54.2976 117.787 51.2019 115.248 48.8049C113.936 47.5666 112.466 46.5101 110.855 45.6622C108.345 44.3412 105.548 43.5755 102.721 43.4214C102.347 43.401 101.968 43.3912 101.596 43.3919Z" fill="#137E84"/>
<path fill-rule="evenodd" clip-rule="evenodd" d="M101.667 46.332C103.203 46.3366 104.744 46.5511 106.217 46.9651L106.409 47.0279C106.574 47.0973 106.618 47.1098 106.774 47.1991C107.416 47.5669 107.871 48.2385 107.971 48.9653C108.09 49.8236 107.71 50.7292 106.995 51.2487C106.506 51.6038 105.881 51.7697 105.277 51.7027C105.086 51.6815 105.047 51.6722 104.84 51.6142C103.266 51.1776 101.587 51.0651 99.9579 51.2932C98.2259 51.5354 96.546 52.1617 95.089 53.1133C95.0602 53.1321 95.031 53.1514 95.0023 53.1703L94.8297 53.275C94.6698 53.355 94.6316 53.3806 94.4622 53.4403C93.7029 53.7086 92.8125 53.5778 92.1619 53.0881C91.572 52.6447 91.204 51.9259 91.1955 51.188C91.1874 50.5212 91.4695 49.8569 91.9629 49.3964C92.0936 49.2742 92.1336 49.252 92.2783 49.1468C94.996 47.3417 98.1967 46.3744 101.413 46.3334C101.498 46.3324 101.583 46.332 101.667 46.332Z" fill="white"/>
</svg>
