<svg width="160" height="160" viewBox="0 0 160 160" fill="none" xmlns="http://www.w3.org/2000/svg">
<path fill-rule="evenodd" clip-rule="evenodd" d="M63.1117 111.82C62.7753 111.484 62.4449 111.144 62.1213 110.8C55.6033 103.872 46.9674 99.3509 37.6087 97.6517C31.9283 96.6201 26.493 93.9093 22.101 89.5189C10.5974 78.0193 10.5844 59.4745 22.0724 47.9593C27.1402 42.8797 33.6022 40.0412 40.2284 39.443C45.9011 38.9308 51.2309 36.4561 55.1665 32.3388C55.2173 32.2858 55.2685 32.2332 55.3197 32.1809C62.0333 25.3322 72.8941 25.2644 79.6897 32.0318C79.7285 32.0704 79.7673 32.1094 79.8053 32.1484C81.6205 33.9905 84.2409 34.795 86.7793 34.302C101.254 31.4916 116.82 35.691 128.03 46.9012C145.943 64.8137 145.943 93.9081 128.03 111.82C110.103 129.747 81.0385 129.747 63.1117 111.82Z" fill="#EAF7FE"/>
<path d="M37.9436 111.227C42.9089 111.227 47.0055 114.944 47.5973 119.746C48.1408 119.562 48.7233 119.462 49.3289 119.462C52.3065 119.462 54.7201 121.874 54.7201 124.849C54.7201 125.129 54.6989 125.403 54.6581 125.671L63.6305 126.41V126.41C65.7233 126.41 67.4345 128.045 67.5545 130.107H23.3752C23.2831 129.712 23.2344 129.301 23.2344 128.878C23.2344 126.041 25.4304 123.715 28.2164 123.506V123.493L28.308 123.5C28.3894 123.495 28.4713 123.492 28.5539 123.491C28.334 122.68 28.2169 121.827 28.2169 120.946C28.2169 115.578 32.5718 111.227 37.9436 111.227Z" fill="#9BC3D3"/>
<path d="M39.4844 93.6053L50.7233 74.3449C54.5401 67.8037 63.9945 67.8037 67.8113 74.3449L79.0501 93.6053V130.107C65.8617 130.107 52.6729 130.107 39.4844 130.107V93.6053Z" fill="#FFE99F"/>
<path d="M79.0508 96.667H107.679L111.051 102.411V130.107H79.0508V96.667Z" fill="#FFE99F"/>
<path fill-rule="evenodd" clip-rule="evenodd" d="M50.7233 74.3443L39.4844 93.6047V102.215L53.5705 78.0755C56.2753 73.4399 61.2213 71.4043 65.8941 71.9691C61.4425 67.9331 54.0025 68.7247 50.7233 74.3443Z" fill="#FFE99F"/>
<path fill-rule="evenodd" clip-rule="evenodd" d="M66.617 75.2573C63.3558 69.5893 55.183 69.5893 51.9218 75.2573L33.6457 107.023C33.2563 107.699 32.3924 107.932 31.7161 107.542C31.0397 107.153 30.8071 106.288 31.1965 105.611L49.4726 73.8461C53.8206 66.2889 64.7182 66.2889 69.0662 73.8461L87.3422 105.611C87.7314 106.288 87.499 107.153 86.8226 107.542C86.1462 107.932 85.2822 107.699 84.893 107.023L66.617 75.2573Z" fill="#F4A48D"/>
<path d="M59.1571 68.1789C59.1939 68.1785 59.2307 68.1781 59.2671 68.1781H59.1563L59.1571 68.1789Z" fill="#2A8FEC"/>
<path d="M86.1495 107.731H114.344C114.366 107.731 114.388 107.731 114.41 107.731H114.422L114.422 107.731C114.646 107.723 114.872 107.662 115.081 107.542C115.757 107.153 115.99 106.288 115.6 105.611L97.3239 73.8462C95.1499 70.0674 91.3383 68.1782 87.5271 68.1782V68.1918L87.5035 68.1782H59.2695C63.0799 68.179 66.8903 70.0682 69.0639 73.8462L87.3399 105.611C87.7291 106.288 87.4967 107.153 86.8203 107.542C86.6083 107.665 86.3779 107.725 86.1495 107.731Z" fill="#2A8FEC"/>
<path d="M66.3526 130.107V108.907C66.3526 108.133 65.7198 107.505 64.9394 107.505H52.089C51.3086 107.505 50.6758 108.133 50.6758 108.907V130.107H66.3526Z" fill="#A66555"/>
<path d="M125.581 130.107H20.1406V132.027H125.581V130.107Z" fill="#DEEDF2"/>
<path d="M35.5134 123.303C34.6727 122.613 34.1387 121.581 34.1387 120.427C34.1387 118.35 35.8682 116.667 38.0017 116.667C40.1351 116.667 41.8647 118.35 41.8647 120.427C41.8647 121.181 41.6366 121.883 41.2441 122.472C43.5263 123.298 45.1523 125.438 45.1523 127.947C45.1523 128.71 45.0019 129.439 44.7285 130.107H33.5761C33.3028 129.439 33.1523 128.71 33.1523 127.947C33.1523 126.053 34.0783 124.37 35.5134 123.303Z" fill="#9BC3D3"/>
<path d="M107.841 111.228C102.854 111.228 98.7399 114.945 98.1455 119.747C97.5999 119.563 97.0151 119.463 96.4067 119.463C93.4163 119.463 90.9919 121.875 90.9919 124.85C90.9919 125.13 91.0135 125.404 91.0547 125.672L90.4007 125.931V125.931C88.2207 125.931 86.4531 127.69 86.4531 129.859C86.4531 129.942 86.4559 130.026 86.4611 130.108H122.472C122.564 129.713 122.613 129.302 122.613 128.879C122.613 126.042 120.408 123.716 117.61 123.507V123.494L117.518 123.501C117.436 123.496 117.354 123.493 117.271 123.492C117.492 122.681 117.609 121.828 117.609 120.947C117.609 115.579 113.236 111.228 107.841 111.228Z" fill="#9BC3D3"/>
<path fill-rule="evenodd" clip-rule="evenodd" d="M25.9731 40.8425C22.853 40.4664 19.7814 41.1692 17.3492 43.0866C15.713 40.6327 11.8682 39.3983 9.19358 39.7527C8.6828 39.82 8.65706 40.5268 9.19358 40.5674C10.817 40.6911 12.4117 41.186 13.6589 42.2709C14.7092 43.1856 15.2141 44.4427 16.0763 45.496C16.3237 45.7979 16.8246 45.8929 17.1829 45.789C17.277 45.7613 17.373 45.7266 17.4552 45.6742C17.5492 45.6138 17.6304 45.5386 17.7036 45.4564C17.7531 45.4208 17.8056 45.4039 17.8511 45.3564C20.0338 43.0906 22.7758 41.6077 25.9731 41.5701C26.4532 41.5642 26.4265 40.897 25.9731 40.8425Z" fill="#9BC3D3"/>
<path fill-rule="evenodd" clip-rule="evenodd" d="M25.1415 66.3148C27.7202 66.3624 29.9306 69.426 31.6906 72.2876C31.7283 72.348 31.7698 72.3688 31.8094 72.4144C31.8688 72.5172 31.9351 72.6132 32.0104 72.6884C32.0767 72.756 32.1539 72.7996 32.2301 72.834C32.5192 72.9648 32.9221 72.846 33.122 72.464C33.8179 71.1344 34.2247 70.1408 35.0711 68.9856C36.0768 67.6136 37.3637 66.99 38.6723 66.8336C39.1049 66.782 39.0841 65.8892 38.6723 65.804C36.5153 65.3556 33.415 66.9156 32.0955 70.016C30.1345 67.5928 27.6579 64.92 25.1415 65.3952C24.7763 65.4644 24.7545 66.3076 25.1415 66.3148Z" fill="#9BC3D3"/>
<path fill-rule="evenodd" clip-rule="evenodd" d="M34.2239 55.4015C36.4887 55.4283 38.4309 56.4775 39.9771 58.0823C40.0087 58.1171 40.0463 58.1287 40.081 58.1535C40.1335 58.2111 40.1909 58.2655 40.2582 58.3079C40.3156 58.3455 40.3839 58.3703 40.4502 58.3891C40.7036 58.4623 41.058 58.3951 41.2332 58.1823C41.845 57.4367 42.2023 56.5459 42.9467 55.8975C43.8297 55.1295 44.9591 54.7779 46.1094 54.6911C46.4895 54.6622 46.4717 54.1613 46.1094 54.1138C44.2147 53.8624 41.4916 54.7363 40.3324 56.4747C38.61 55.1167 36.4343 54.6186 34.2239 54.8859C33.9041 54.9255 33.8843 55.3979 34.2239 55.4015Z" fill="#9BC3D3"/>
<path fill-rule="evenodd" clip-rule="evenodd" d="M84.5541 52.5985C78.0121 60.6511 79.2985 72.4327 87.4273 78.9135C95.5561 85.3943 107.45 84.1199 113.992 76.0671C120.534 68.0147 119.248 56.2331 111.118 49.7523C102.99 43.2716 91.0961 44.5459 84.5541 52.5985Z" fill="#CEDEE7"/>
<path fill-rule="evenodd" clip-rule="evenodd" d="M116.091 73.4844L149.425 100.06L145.229 105.225L111.895 78.65L116.091 73.4844Z" fill="#137E84"/>
<path fill-rule="evenodd" clip-rule="evenodd" d="M129.707 93.1481L145.495 105.735C146.949 106.894 149.095 106.664 150.265 105.224L150.505 104.928C151.675 103.488 151.443 101.361 149.989 100.203L134.201 87.6157L129.707 93.1481Z" fill="#444444"/>
<path fill-rule="evenodd" clip-rule="evenodd" d="M99.3063 44.2959C102.831 44.3024 106.306 45.2201 109.353 46.9598C112.426 48.714 115.02 51.2729 116.789 54.3067C118.172 56.6799 119.053 59.3387 119.367 62.0583C119.766 65.5223 119.237 69.0915 117.84 72.2871C116.498 75.3559 114.37 78.0779 111.712 80.1347C108.716 82.4531 105.044 83.9051 101.236 84.2735C97.6007 84.6247 93.8651 83.9847 90.5579 82.4179C87.0427 80.7523 84.0347 78.0679 82.0071 74.7791C80.4999 72.3351 79.5367 69.5747 79.1907 66.7255C78.7655 63.2247 79.2867 59.6167 80.7031 56.3775C82.0451 53.3077 84.1747 50.5853 86.8307 48.5295C90.0359 46.0492 94.0055 44.5737 98.0635 44.3321C98.4767 44.3076 98.8907 44.2956 99.3063 44.2959ZM99.2503 46.9354C96.1315 46.9434 93.0275 47.7774 90.3439 49.3453C87.1887 51.1891 84.6471 54.04 83.1803 57.3523C81.9315 60.1723 81.4659 63.3231 81.8327 66.3843C82.2467 69.8407 83.7247 73.1575 86.0459 75.7823C88.1055 78.1111 90.7879 79.8831 93.7599 80.8551C97.0951 81.9459 100.762 82.0083 104.131 81.0507C106.956 80.2479 109.568 78.7307 111.657 76.6675C113.689 74.6595 115.225 72.1519 116.064 69.4379C117.038 66.2895 117.086 62.8467 116.184 59.6431C115.34 56.6447 113.665 53.8886 111.405 51.7546C110.237 50.6521 108.928 49.7115 107.493 48.9566C105.259 47.7805 102.769 47.0988 100.252 46.9616C99.9187 46.9434 99.5819 46.9347 99.2503 46.9354Z" fill="#137E84"/>
<path fill-rule="evenodd" clip-rule="evenodd" d="M99.3155 49.5532C100.682 49.5573 102.054 49.7482 103.366 50.1169L103.537 50.1728C103.684 50.2346 103.723 50.2457 103.862 50.3251C104.433 50.6527 104.838 51.2506 104.928 51.8977C105.034 52.6618 104.696 53.468 104.059 53.9306C103.624 54.2467 103.067 54.3944 102.53 54.3347C102.359 54.3159 102.325 54.3076 102.14 54.2559C100.739 53.8672 99.2435 53.7671 97.7935 53.9701C96.2515 54.1858 94.7559 54.7434 93.4587 55.5906C93.4331 55.6074 93.4071 55.6246 93.3815 55.6414L93.2279 55.7346C93.0855 55.8058 93.0515 55.8286 92.9007 55.8818C92.2247 56.1206 91.4319 56.0042 90.8527 55.5682C90.3275 55.1734 89.9999 54.5335 89.9923 53.8765C89.9851 53.2829 90.2363 52.6915 90.6755 52.2814C90.7919 52.1727 90.8275 52.1529 90.9563 52.0593C93.3759 50.4521 96.2255 49.5909 99.0891 49.5545C99.1647 49.5535 99.2403 49.5532 99.3155 49.5532Z" fill="white"/>
</svg>
