<svg width="161" height="161" viewBox="0 0 161 161" fill="none" xmlns="http://www.w3.org/2000/svg">
<path fill-rule="evenodd" clip-rule="evenodd" d="M60.7291 142.628C60.8718 142.152 64.4751 139.415 64.4751 139.415L72.2627 144.483L71.6962 145.799C71.3989 146.49 71.1835 147.199 71.0526 147.917L71.3299 157.922L69.9322 158.312C69.9322 158.312 60.6426 142.917 60.7291 142.628ZM89.4412 155.78V153.894H98.6977C98.8631 154.936 102.296 156.148 102.296 156.148L109.074 157.474L107.178 158.312H89.4412V155.78Z" fill="#34466B"/>
<path fill-rule="evenodd" clip-rule="evenodd" d="M104.725 86.9414L102.818 128.308L99.0258 154.14H89.4336L89.9382 135.294L90.0437 127.454L90.5794 86.9414H104.725Z" fill="#9BC3D3"/>
<path fill-rule="evenodd" clip-rule="evenodd" d="M96.7731 86.9414L96.6796 91.3884L96.3488 95.1741L96.0715 98.3474L95.6411 103.273L95.2244 108.042L95.032 110.243L94.9684 110.973L93.5409 127.306C93.4751 128.053 93.1239 128.746 92.5602 129.24L89.9594 131.521L71.2036 147.816C71.2036 147.816 65.7967 146.945 64.1484 139.747L82.8933 122.19L75.2395 86.9414H96.7731Z" fill="#CEDEE7"/>
<path fill-rule="evenodd" clip-rule="evenodd" d="M87.5901 23.5404C85.8628 21.4593 85.1137 18.6122 85.8175 15.7893C86.9919 11.0792 91.7693 8.20856 96.4794 9.38292C100.828 10.4673 103.609 14.6235 103.085 18.9621C103.068 19.4234 103.024 19.8833 102.96 20.3379L102.96 20.3386L102.959 20.3487L102.958 20.3523C102.939 20.4882 102.918 20.6237 102.895 20.7585L101.84 27.4904L100.391 27.6046L100.376 27.6043L100.376 27.6043C100.314 27.7108 100.28 27.7682 100.28 27.7682L100.022 28.65L99.5411 30.2986C99.381 30.8439 99.1312 31.3551 98.804 31.8127C98.5745 32.1361 98.3036 32.433 97.9979 32.6951C97.6389 33.0026 97.2377 33.2588 96.8126 33.4536C96.5909 33.5562 96.3615 33.6398 96.127 33.7068C96.0028 33.7424 95.8802 33.773 95.7543 33.799L95.7534 33.7992L93.7346 44.3444C93.7346 44.3444 90.4699 44.5022 87.3258 42.9472C85.4244 42.0109 83.566 40.444 82.4991 37.8421C82.4991 37.8421 86.477 30.0323 87.5901 23.5404Z" fill="#FFC4B8"/>
<path fill-rule="evenodd" clip-rule="evenodd" d="M87.3891 42.832C85.4876 41.8957 83.6294 40.3289 82.5625 37.7269C82.5625 37.7269 86.8441 29.3635 87.752 22.7361C87.752 22.7361 89.5966 35.377 87.3891 42.832ZM100.381 27.6416C99.8787 27.6622 99.5093 27.1794 99.6612 26.7004L100.64 23.6128L100.381 27.6416Z" fill="#F4A48D"/>
<g clip-path="url(#clip0_1483_32309)">
<path fill-rule="evenodd" clip-rule="evenodd" d="M90.9501 18.9122C90.5577 18.012 89.8713 17.4318 89.145 17.4947C88.1115 17.5842 87.3861 18.9423 87.5259 20.5256C87.5747 21.077 87.722 21.5835 87.9369 22.0057C87.8482 22.4462 87.7488 22.8765 87.6406 23.2958C86.6934 22.0027 85.8719 20.3994 85.7217 18.6988C85.2532 13.3959 88.2786 9.32071 94.4812 8.78336C99.1375 8.37998 103.296 11.3702 104.4 15.6637L103.755 16.2837L103.755 16.2764L103.686 16.2381L96.5301 12.1811L93.2216 17.1053L93.61 18.5969L95.3359 25.2031C95.4547 25.6652 95.6975 26.0773 96.028 26.403C96.279 26.6517 96.5783 26.8522 96.915 26.9879L96.9174 26.9877C97.0243 27.0301 97.1334 27.0673 97.2466 27.097C97.4271 27.1452 97.6106 27.1735 97.7953 27.1847L99.3196 27.2666C99.4635 27.2739 99.6085 27.2908 99.7512 27.3128C100.011 27.3542 100.266 27.4208 100.513 27.51C100.518 27.5121 100.524 27.5117 100.526 27.5164L100.511 27.5152C100.442 27.617 100.404 27.6721 100.404 27.6721L100.09 28.5309L98.0486 28.3436C97.9952 28.3384 97.945 28.3378 97.8926 28.3423C97.6204 28.3659 97.3722 28.5179 97.2298 28.7565C97.061 29.0392 97.0771 29.3921 97.2691 29.6585L98.533 31.4064L98.6677 31.594C98.4158 31.9012 98.1233 32.1799 97.7976 32.4223C97.4152 32.7062 96.9927 32.9373 96.5498 33.106C96.3186 33.195 96.0809 33.2648 95.8389 33.3177L95.7599 33.2507C95.6839 33.186 95.6051 33.1189 95.5312 33.0516C93.4036 31.1817 91.8641 28.7908 91.0498 26.1502C90.7541 25.1966 90.5537 24.2103 90.4573 23.2049C90.4456 23.1002 90.4364 22.9952 90.4293 22.8876L90.4292 22.8868C91.0214 22.3715 91.372 21.3451 91.271 20.2011L91.2672 20.1603L91.2658 20.1466L91.263 20.1195L91.2612 20.1036L91.2584 20.0786L91.2565 20.0623L91.2534 20.0371L91.2514 20.0217L91.2474 19.9917L91.2461 19.9815L91.2405 19.9426L91.2383 19.928L91.2344 19.9029L91.2317 19.8861L91.228 19.8632L91.2251 19.8459L91.2211 19.8233L91.2182 19.8065L91.2136 19.7817L91.211 19.7674L91.2037 19.7301L91.2008 19.7154L91.1959 19.6916L91.1923 19.6745L91.1877 19.6531L91.1838 19.6355L91.1791 19.6146L91.1751 19.5973L91.1699 19.5753L91.1662 19.5594L91.1573 19.5236L91.1538 19.5097L91.1477 19.4863L91.1433 19.4694L91.1378 19.4491L91.1331 19.4317L91.1276 19.4119L91.1227 19.3947L91.1168 19.3743L91.1121 19.3581L91.1043 19.3323L91.1014 19.3228L91.0983 19.3126L91.0904 19.2875L91.0854 19.2717L91.0789 19.2516L91.0734 19.2351L91.067 19.2158L91.0614 19.1994L91.0546 19.1796L91.0492 19.1641L91.0409 19.1411L91.0367 19.1292L91.0244 19.0959L91.0191 19.082L91.0113 19.0614L91.0054 19.0463L90.9978 19.0269L90.9918 19.0119L90.9838 18.9922L90.978 18.978L90.9687 18.9557L90.964 18.9445L90.9501 18.9122Z" fill="#9BC3D3"/>
</g>
<path fill-rule="evenodd" clip-rule="evenodd" d="M104.338 43.8481L107.547 62.6481L111.789 61.0863C111.789 61.0863 113.794 62.0544 114.034 64.668C114.26 67.1417 112.602 69.4004 110.205 70.0519L103.926 71.7566L104.338 43.8481Z" fill="#9E3667"/>
<path fill-rule="evenodd" clip-rule="evenodd" d="M113.037 62.8355L115.844 62.2456H116.985C118.159 62.2456 119.031 61.1557 118.774 60.0099L118.116 57.0812C118.019 56.6493 117.394 56.024 117.394 56.024L117.055 55.7951C116.575 55.4706 115.987 55.3457 115.416 55.4468L112.389 55.9821L105.279 61.623L111.04 64.6012L113.037 62.8355Z" fill="#F4A48D"/>
<path fill-rule="evenodd" clip-rule="evenodd" d="M108.67 61.8368L114.1 57.3135H118.901L113.037 62.8356L108.67 61.8368Z" fill="white"/>
<path fill-rule="evenodd" clip-rule="evenodd" d="M105.007 86.855L94.9425 89.4331L85.834 34.8231L86.0238 34.8079C87.686 36.2901 89.8772 37.1937 92.28 37.1937C93.6251 37.1937 94.903 36.9117 96.0608 36.4023L99.0179 39.0507L104.11 58.9498L105.007 86.855Z" fill="#CEDEE7"/>
<path fill-rule="evenodd" clip-rule="evenodd" d="M82.3813 28.0437L79.7621 30.9898L73.8944 32.5474L75.867 39.9958L79.3415 38.8085C79.299 39.5943 79.2528 40.4269 79.2027 41.2999C78.7431 49.3755 77.9596 60.9145 76.8091 71.0292C76.7794 71.2736 76.7515 71.5156 76.7242 71.7581C75.364 83.4671 72.5966 92.8005 72.3995 93.2591C71.9004 94.4252 92.531 94.756 97.3798 92.096C100.439 90.4166 101.747 80.9334 101.587 71.0692C101.55 68.8054 101.435 66.5245 101.246 64.311C100.956 60.8694 100.487 57.5954 99.8503 54.8282C97.0235 42.5176 82.3813 28.0437 82.3813 28.0437ZM95.355 36.6746C96.9349 42.1546 102.045 59.835 102.255 60.152L104.252 92.719L105.197 93.0259C106.797 93.5425 108.396 92.2296 108.2 90.5601L104.875 62.1484L104.337 43.8486C104.283 42.0292 103.325 40.3572 101.783 39.3915L95.5471 35.4812L95.3726 36.0501L95.1579 36.7414L95.355 36.6746Z" fill="#9E3667"/>
<path fill-rule="evenodd" clip-rule="evenodd" d="M98.8746 69.7645L98.4834 72.6568L76.8091 69.725L76.8737 69.141H100.558V63.0073H101.246C101.435 65.2218 101.551 67.4995 101.588 69.7645H98.8746ZM82.6104 40.2656L84.7831 40.4377L83.2609 48.9798L81.9349 56.4314L82.2987 47.7194L82.6104 40.2656ZM81.852 35.6915L74.125 32.4862L80.2963 30.8481L81.852 35.6915Z" fill="#732645"/>
<path fill-rule="evenodd" clip-rule="evenodd" d="M99.0821 60.7331L102.742 60.1525L105.501 58.3131C105.775 58.1306 106.102 58.0466 106.43 58.0746L112.121 58.5644C112.604 58.6054 112.807 59.2025 112.448 59.5299C112.027 59.9164 111.445 60.2754 110.769 60.2359C109.355 60.1525 107.177 60.1525 107.177 60.1525L107.799 61.5346H113.189C114.167 61.5346 114.814 62.5418 114.418 63.4365C114.058 64.2527 112.988 65.452 112.376 66.1004C112.097 66.3966 111.75 66.6185 111.363 66.7463L108.298 67.7594C107.879 67.8983 107.427 67.9169 106.996 67.8124L98.541 65.7617L99.0821 60.7331Z" fill="#FFC4B8"/>
<path fill-rule="evenodd" clip-rule="evenodd" d="M69.2719 40.692C69.1415 40.1663 69.0723 39.6166 69.0723 39.0507C69.0723 35.2982 72.1143 32.2561 75.8667 32.2561C79.6192 32.2561 82.6606 35.2977 82.6611 39.0497V39.0507C82.6611 39.2448 82.653 39.4372 82.637 39.6274L82.2986 47.7195L81.8419 58.6548L87.3698 59.0342L100.559 59.9022V69.1411H76.5839C76.0999 69.1411 75.6579 69.0336 75.2685 68.8093C74.4952 68.3619 74.0185 67.5042 73.819 66.3537L73.8009 66.2482L69.2719 40.692Z" fill="#9E3667"/>
<path fill-rule="evenodd" clip-rule="evenodd" d="M78.6558 78.1937L75.4373 77.8293L79.6928 40.2385L82.9114 40.6029L78.6558 78.1937Z" fill="#732645"/>
<path fill-rule="evenodd" clip-rule="evenodd" d="M76.8862 86.5878L75.2803 86.4055L76.243 77.9203L77.849 78.1025L76.8862 86.5878Z" fill="#9BC3D3"/>
<path fill-rule="evenodd" clip-rule="evenodd" d="M68.5176 42.5567L61.1623 74.7248L63.2877 75.2102L64.3156 75.4471L66.5809 65.5414L71.6712 43.2783C72.0666 41.5515 72.9763 40.0567 74.2263 38.9473C74.8186 38.4162 75.4895 37.9749 76.219 37.6357C77.0975 37.2276 78.06 36.9674 79.0719 36.8901L80.832 36.7523L77.4839 33.8982L77.4704 33.8512C77.4593 33.8505 77.4498 33.8544 77.4361 33.8574C75.3284 34.2768 73.4272 35.2658 71.9083 36.6752C70.2531 38.205 69.0501 40.2297 68.5176 42.5567Z" fill="#732645"/>
<path fill-rule="evenodd" clip-rule="evenodd" d="M61.5166 84.0745L59.9363 83.7138L61.9467 74.906L63.527 75.2668L61.5166 84.0745Z" fill="#9BC3D3"/>
<path fill-rule="evenodd" clip-rule="evenodd" d="M55.8734 98.9051L74.1536 102.827C75.212 103.054 76.2545 102.38 76.4814 101.321L79.7928 85.8869C80.02 84.8278 79.3457 83.7859 78.2866 83.5587L60.006 79.6377C58.948 79.4101 57.9062 80.0844 57.6786 81.1424L54.368 96.5773C54.1408 97.6365 54.815 98.6783 55.8734 98.9051Z" fill="#CEDEE7"/>
<path fill-rule="evenodd" clip-rule="evenodd" d="M69.0293 40.6364C68.8979 40.1111 68.8281 39.5618 68.8281 38.9963C68.8281 35.2515 71.8867 32.2156 75.6596 32.2156C79.4324 32.2156 82.491 35.2515 82.491 38.9963C82.491 39.1952 82.4824 39.392 82.4655 39.5863L82.1266 47.6477L81.6674 58.5614L87.2251 58.94L100.486 59.8067V69.0267H76.3806C75.8937 69.0267 75.4497 68.9196 75.0583 68.6954C74.2804 68.2496 73.8011 67.3928 73.6004 66.2447C73.5928 66.2098 73.5879 66.175 73.5828 66.1401L69.0293 40.6364Z" fill="#9E3667"/>
<defs>
<clipPath id="clip0_1483_32309">
<rect width="18.3237" height="24.3444" fill="white" transform="translate(88.0957 6.65234) rotate(14)"/>
</clipPath>
</defs>
</svg>
