<svg width="160" height="160" viewBox="0 0 160 160" fill="none" xmlns="http://www.w3.org/2000/svg">
<path fill-rule="evenodd" clip-rule="evenodd" d="M57.001 125.436C57.6477 125.464 58.2929 125.481 58.9367 125.488C71.8973 125.637 84.1854 130.142 94.1471 137.985C100.193 142.746 107.786 145.706 116.228 146.063C138.34 146.997 157.795 129.851 159.829 107.639C160.725 97.8398 158.054 88.7122 152.889 81.4924C148.469 75.3108 146.405 67.6589 147.282 59.8898C147.293 59.7896 147.304 59.6895 147.314 59.5898C148.627 46.4983 139.205 35.5086 126.17 34.9333C126.096 34.9298 126.021 34.927 125.947 34.9246C122.429 34.8028 119.295 32.911 117.593 29.9008C107.889 12.7379 89.8809 0.962542 68.3288 0.0558306C33.8914 -1.3928 3.38578 25.5267 0.260416 60.1222C-2.86704 94.745 22.5362 123.987 57.001 125.436Z" fill="#EAF7FE"/>
<path d="M99.1851 159.233L52.0863 152.033C46.8555 151.232 43.2642 146.348 44.0647 141.122L63.2681 15.7919C64.0687 10.5667 68.9574 6.97873 74.1896 7.7785L121.287 14.9799C126.519 15.7804 130.11 20.6645 129.308 25.8896L110.106 151.22C109.306 156.446 104.416 160.033 99.1851 159.233Z" fill="#9E3667"/>
<path d="M96.2945 158.793L49.1957 151.591C43.9652 150.792 40.3738 145.906 41.1741 140.682L60.3765 15.351C61.1781 10.1259 66.0669 6.53788 71.2985 7.33756L118.396 14.5396C123.628 15.3387 127.219 20.2235 126.418 25.4488L107.215 150.779C106.414 156.004 101.525 159.592 96.2945 158.793Z" fill="white"/>
<path d="M125.604 30.7725L107.852 146.628C107.301 150.23 102.82 152.531 99.2171 151.981L47.3367 144.048C43.7315 143.496 41.2596 140.132 41.8114 136.53L59.5629 20.6749C60.1146 17.0727 63.4814 14.5979 67.0868 15.1491L118.966 23.082C122.569 23.6327 126.156 27.1706 125.604 30.7725Z" fill="white"/>
<path fill-rule="evenodd" clip-rule="evenodd" d="M106.96 18.7055C107.831 18.8389 108.645 18.2409 108.779 17.3706C108.912 16.4995 108.314 15.6862 107.443 15.5528C106.572 15.42 105.757 16.0173 105.623 16.8884C105.49 17.7588 106.088 18.5728 106.96 18.7055ZM83.7695 14.3868C84.2229 14.4563 84.6476 14.1449 84.717 13.6909C84.7869 13.2369 84.4752 12.8129 84.0208 12.7434C83.5664 12.674 83.1422 12.9854 83.0732 13.4394C83.0029 13.8933 83.3151 14.3174 83.7695 14.3868ZM81.5286 13.2036C81.4591 13.657 81.0345 13.9692 80.581 13.8997C80.1266 13.8295 79.8149 13.4062 79.8848 12.9522C79.9542 12.4982 80.3789 12.1868 80.8323 12.2563C81.2867 12.3257 81.5985 12.7498 81.5286 13.2036ZM90.3215 14.9961L97.9475 16.1617C98.1898 16.1992 98.4156 16.0331 98.4529 15.791C98.4897 15.5489 98.3235 15.323 98.0811 15.2861L90.4552 14.1203C90.2138 14.0836 89.9875 14.249 89.9497 14.4912C89.9129 14.7331 90.0782 14.9593 90.3215 14.9961Z" fill="#DEEDF2"/>
<path fill-rule="evenodd" clip-rule="evenodd" d="M99.1771 159.207L52.0783 152.007C46.848 151.206 43.2564 146.322 44.0569 141.096L63.2601 15.766C64.0607 10.5408 68.95 6.95285 74.1816 7.75262L121.279 14.954C126.511 15.7546 130.102 20.6386 129.301 25.8638L110.098 151.194C109.298 156.42 104.408 160.007 99.1771 159.207Z" fill="#9E3667"/>
<path fill-rule="evenodd" clip-rule="evenodd" d="M96.2866 158.765L49.1877 151.563C43.9574 150.764 40.3659 145.879 41.1662 140.654L60.3691 15.3231C61.1701 10.098 66.0594 6.51005 71.2906 7.30973L118.388 14.5118C123.62 15.3109 127.211 20.1956 126.41 25.421L107.208 150.751C106.407 155.977 101.517 159.565 96.2866 158.765Z" fill="white"/>
<path d="M125.596 30.7467L107.845 146.603C107.293 150.204 102.812 152.506 99.2091 151.955L47.3288 144.022C43.7237 143.47 41.2518 140.106 41.8036 136.504L59.5549 20.649C60.1071 17.0468 63.4735 14.572 67.0794 15.1232L118.958 23.0561C122.561 23.6069 126.148 27.1448 125.596 30.7467Z" fill="#CEDEE7"/>
<path fill-rule="evenodd" clip-rule="evenodd" d="M108.435 142.767L107.847 146.602C107.816 146.795 107.777 146.984 107.725 147.167C106.819 150.441 102.621 152.478 99.2122 151.956L47.3318 144.022C44.154 143.536 41.8536 140.864 41.7356 137.769C41.7196 137.352 41.7404 136.93 41.8065 136.503L42.394 132.668L108.435 142.767Z" fill="#CEDEE7"/>
<path d="M108.436 142.767L107.847 146.602C107.817 146.795 107.777 146.984 107.725 147.167L107.69 147.162L107.845 146.152L41.875 136.065L42.3944 132.668L108.436 142.767Z" fill="#EC0000"/>
<path fill-rule="evenodd" clip-rule="evenodd" d="M89.8378 118.243L107.09 120.879L104.447 138.117L87.1946 135.482L89.8378 118.243ZM70.0339 115.213L87.2853 117.849L84.6421 135.088L67.3912 132.452L70.0339 115.213ZM50.2292 112.186L67.4811 114.822L64.8383 132.06L47.5859 129.425L50.2292 112.186Z" fill="white"/>
<path fill-rule="evenodd" clip-rule="evenodd" d="M106.952 18.6786C107.824 18.8121 108.639 18.2141 108.771 17.3437C108.905 16.4726 108.307 15.6593 107.436 15.5259C106.565 15.3931 105.75 15.9905 105.617 16.8616C105.483 17.7319 106.081 18.546 106.952 18.6786ZM83.7616 14.36C84.2156 14.4294 84.6397 14.1181 84.7096 13.6641C84.7791 13.2101 84.4673 12.7861 84.0134 12.7165C83.559 12.6471 83.1344 12.9586 83.0654 13.4126C82.995 13.8665 83.3073 14.2905 83.7616 14.36ZM81.5211 13.1768C81.4512 13.6301 81.027 13.9423 80.5731 13.8728C80.1187 13.8026 79.8074 13.3793 79.8769 12.9253C79.9468 12.4713 80.3709 12.1599 80.8249 12.2294C81.2793 12.2988 81.5905 12.7229 81.5211 13.1768ZM90.3136 14.9692L97.9401 16.1349C98.1819 16.1724 98.4082 16.0062 98.445 15.7642C98.4819 15.522 98.3156 15.2961 98.0733 15.2593L90.4473 14.0934C90.2059 14.0567 89.9797 14.2222 89.9419 14.4643C89.9051 14.7063 90.0709 14.9324 90.3136 14.9692Z" fill="#DEEDF2"/>
<path d="M125.596 30.7463L122.772 49.1837L56.7305 39.086L59.5551 20.6486C60.1073 17.0464 63.4736 14.5712 67.0795 15.1228L118.958 23.0557C122.562 23.6065 126.148 27.1442 125.596 30.7463Z" fill="#EC0000"/>
<path fill-rule="evenodd" clip-rule="evenodd" d="M112.414 116.829L46.375 106.728L56.7302 39.1353L122.769 49.2368L112.414 116.829Z" fill="white"/>
<path fill-rule="evenodd" clip-rule="evenodd" d="M66.5777 52.4053L74.5154 53.6197L74.2296 55.4873L68.1596 54.5587L67.2309 60.6283L65.3633 60.3425L66.5777 52.4053Z" fill="#34466B"/>
<path fill-rule="evenodd" clip-rule="evenodd" d="M102.961 101.935L95.0234 100.72L95.3092 98.8529L101.379 99.7815L102.308 93.7114L104.176 93.9977L102.961 101.935Z" fill="#34466B"/>
<path fill-rule="evenodd" clip-rule="evenodd" d="M109.536 58.9795L108.321 66.9168L106.453 66.631L107.383 60.5609L101.312 59.6323L101.598 57.7646L109.536 58.9795Z" fill="#34466B"/>
<path fill-rule="evenodd" clip-rule="evenodd" d="M60.0039 95.3606L61.2183 87.4233L63.086 87.7091L62.1573 93.7787L68.2269 94.7074L67.9412 96.575L60.0039 95.3606Z" fill="#34466B"/>
<path fill-rule="evenodd" clip-rule="evenodd" d="M87.9993 68.9092C88.0961 68.2767 87.6616 67.6854 87.0286 67.5881C86.3957 67.4912 85.8043 67.9258 85.7075 68.5587L84.3051 77.725C84.1606 78.4832 83.5262 78.7784 81.8333 78.5195C81.2004 78.4227 80.609 78.8572 80.5122 79.4897C80.4154 80.1227 80.8499 80.714 81.4824 80.8109C84.2716 81.2379 86.1657 80.3565 86.5898 78.1157L87.9993 68.9092ZM90.6649 84.9046C86.0218 88.3154 79.4926 87.3164 76.0813 82.6728C75.7025 82.157 74.977 82.046 74.4612 82.4248C73.9454 82.8041 73.8344 83.5292 74.2132 84.0455C78.3821 89.7207 86.3624 90.9417 92.0376 86.7728C92.5534 86.3939 92.6644 85.6684 92.2855 85.1526C91.9062 84.6364 91.1807 84.5254 90.6649 84.9046ZM76.7121 66.0096C77.3451 66.1064 77.7796 66.6983 77.6828 67.3307L76.9814 71.9139C76.8845 72.5468 76.2931 72.9814 75.6602 72.8846C75.0273 72.7877 74.5932 72.1964 74.69 71.5634L75.391 66.9803C75.4878 66.3473 76.0796 65.9128 76.7121 66.0096ZM96.0156 70.1374C96.1124 69.5044 95.6779 68.913 95.0454 68.8162C94.4125 68.7194 93.8211 69.1539 93.7243 69.7864L93.0228 74.3696C92.926 75.0025 93.3606 75.5939 93.9935 75.6907C94.626 75.7875 95.2178 75.353 95.3147 74.7205L96.0156 70.1374Z" fill="#EC0000"/>
</svg>
