<svg width="160" height="161" viewBox="0 0 160 161" fill="none" xmlns="http://www.w3.org/2000/svg">
<path fill-rule="evenodd" clip-rule="evenodd" d="M63.0106 111.448C62.6123 111.054 62.2216 110.656 61.8386 110.252C54.1248 102.136 43.9052 96.8387 32.83 94.8477C26.1077 93.6392 19.6755 90.463 14.478 85.3188C0.864469 71.8454 0.849013 50.1177 14.4441 36.6258C20.4415 30.6742 28.0887 27.3485 35.9302 26.6477C42.6434 26.0475 48.9507 23.1481 53.6083 18.324C53.6683 18.2619 53.7288 18.2003 53.7893 18.139C61.7346 10.1148 74.5875 10.0354 82.6292 17.9643C82.6753 18.0095 82.721 18.0552 82.7663 18.1009C84.9144 20.2592 88.0151 21.2018 91.0194 20.6243C108.148 17.3313 126.57 22.2516 139.836 35.386C161.035 56.3731 161.035 90.4615 139.836 111.449C118.621 132.452 84.2254 132.452 63.0106 111.448Z" fill="#DEEDF2"/>
<path fill-rule="evenodd" clip-rule="evenodd" d="M86.2664 20.5498L140.077 47.4329L140.373 49.3227L140.442 49.4796L120.289 63.0494L111.556 65.3529L75.3711 47.2794L86.2664 20.5498Z" fill="#FFC4B8"/>
<path fill-rule="evenodd" clip-rule="evenodd" d="M119.978 32.9951L160 52.9741V93.0882L103.818 65.0421L119.978 32.9951Z" fill="#34466B"/>
<path fill-rule="evenodd" clip-rule="evenodd" d="M34.8359 29.7094L49.6787 47.6451C51.5894 49.9539 78.3839 48.953 80.8631 47.2538C83.3394 45.5562 61.8421 45.375 59.871 43.1131L48.6184 31.0581C42.1662 24.1455 37.3059 27.5808 34.8359 29.7094Z" fill="#FFC4B8"/>
<path fill-rule="evenodd" clip-rule="evenodd" d="M39.1035 22.6152C36.9822 18.5848 39.4785 13.0414 44.0513 14.7984C41.3078 10.9653 46.183 5.73065 50.1975 7.13664C47.8968 3.10115 54.1518 -1.39856 58.595 0.91037L78.9458 11.4861C84.66 14.4553 90.3979 21.355 92.0421 25.2986C96.9147 36.9885 84.5441 47.3208 77.7627 47.9305C72.4758 48.4059 68.7585 49.3297 65.6783 47.7822L34.4317 32.3452C26.9949 28.7197 32.7419 19.4758 39.1035 22.6152Z" fill="#FFC4B8"/>
<path d="M39.8145 35.1287C40.8289 35.647 58.6602 44.3737 58.6602 44.3737L41.5087 37.2198L39.8145 35.1287Z" fill="#F4A48D"/>
<path fill-rule="evenodd" clip-rule="evenodd" d="M49.7788 5.97095C53.511 7.98739 58.3052 10.5853 58.3052 10.5853C58.3052 10.5853 53.6572 8.70486 49.8548 7.10608L49.6464 7.03023C49.8392 7.06786 50.0312 7.11942 50.2215 7.18591C49.9914 6.78318 49.8482 6.37567 49.7788 5.97095ZM42.3764 14.5085C42.9021 14.5064 43.4696 14.6099 44.0735 14.8416C43.8088 14.4723 43.6156 14.0899 43.4852 13.7017C48.2688 16.2542 53.4397 19.0222 53.4397 19.0222C53.4397 19.0222 47.7215 16.7018 42.3764 14.5085ZM39.1243 22.6521C38.9703 22.3597 38.8412 22.0595 38.735 21.7547C42.7019 23.9449 47.9494 26.9502 47.9494 26.9502C47.9494 26.9502 40.6901 23.6768 37.6816 22.1586C37.7036 22.1698 37.7088 22.1648 37.7 22.1467C38.1677 22.2502 38.6442 22.4152 39.1243 22.6521Z" fill="#F4A48D"/>
<path fill-rule="evenodd" clip-rule="evenodd" d="M81.7715 50.5308L94.6661 24.8169L107.373 31.1052L94.4786 56.8191L81.7715 50.5308Z" fill="#444444"/>
<path fill-rule="evenodd" clip-rule="evenodd" d="M85.6447 36.2809C86.8485 33.8646 88.9178 32.1648 91.2904 31.3699C93.6628 30.5754 96.3384 30.6856 98.7549 31.8891C101.171 33.093 102.871 35.1624 103.666 37.5348C104.46 39.9071 104.35 42.5829 103.146 44.9992C101.943 47.4155 99.8732 49.1153 97.5008 49.91C95.1286 50.7047 92.4526 50.5945 90.0363 49.3908C87.6202 48.1871 85.9202 46.1177 85.1255 43.7452C84.331 41.3728 84.4412 38.6974 85.6447 36.2809Z" fill="white"/>
<path fill-rule="evenodd" clip-rule="evenodd" d="M86.936 37.0138C89.037 32.7957 94.1594 31.0799 98.3775 33.1809C102.595 35.2821 104.311 40.4045 102.21 44.6223C100.109 48.84 94.9863 50.5558 90.7687 48.4548C86.5509 46.3538 84.835 41.2314 86.936 37.0138Z" fill="#767676"/>
<path fill-rule="evenodd" clip-rule="evenodd" d="M86.936 37.0138C89.037 32.7957 94.1594 31.0799 98.3775 33.1809C102.595 35.2821 104.311 40.4045 102.21 44.6223C100.109 48.84 94.9863 50.5558 90.7687 48.4548C86.5509 46.3538 84.835 41.2314 86.936 37.0138Z" stroke="#F4A48D" stroke-width="0.216"/>
<path d="M94.5725 40.9721L87.5857 43.307L87.4609 42.7975L94.4478 40.4624L94.5725 40.9721Z" fill="#F6C854"/>
<path fill-rule="evenodd" clip-rule="evenodd" d="M94.1159 40.5275C94.2373 40.4253 94.4146 40.4456 94.5119 40.5732C94.6092 40.7005 94.59 40.887 94.4685 40.9893L89.6985 45.0197C89.5769 45.122 89.3997 45.1019 89.3023 44.9743C89.205 44.8469 89.2241 44.6605 89.3457 44.558L94.1159 40.5275Z" fill="white"/>
<path fill-rule="evenodd" clip-rule="evenodd" d="M94.5658 40.8203C94.6008 40.9772 94.4992 41.1325 94.3392 41.1667C94.179 41.2009 94.0207 41.1015 93.9855 40.9446L93.1574 37.2595C93.1222 37.1025 93.2237 36.9477 93.3839 36.9132C93.5442 36.879 93.7025 36.9784 93.7375 37.1354L94.5658 40.8203Z" fill="white"/>
<path fill-rule="evenodd" clip-rule="evenodd" d="M86.5701 37.4389C86.4135 37.3696 86.3497 37.201 86.4279 37.0621C86.5057 36.9233 86.6964 36.867 86.8529 36.9359L87.9968 37.4411C88.1534 37.5101 88.2172 37.6787 88.139 37.8175C88.0611 37.9562 87.8706 38.013 87.714 37.9437L86.5701 37.4389Z" fill="white"/>
<path fill-rule="evenodd" clip-rule="evenodd" d="M97.9525 32.8155C98.0215 32.6587 98.1903 32.5949 98.3291 32.6729C98.4678 32.7511 98.5243 32.9413 98.4552 33.0979L97.9503 34.2419C97.8812 34.3985 97.7126 34.4623 97.5737 34.3843C97.435 34.3063 97.3782 34.1161 97.4475 33.9593L97.9525 32.8155Z" fill="white"/>
<path fill-rule="evenodd" clip-rule="evenodd" d="M102.219 44.1971C102.376 44.2662 102.44 44.4348 102.362 44.5737C102.284 44.7125 102.093 44.769 101.937 44.6997L100.793 44.1947C100.636 44.1257 100.572 43.9571 100.65 43.8181C100.729 43.6794 100.919 43.623 101.075 43.6921L102.219 44.1971Z" fill="white"/>
<path fill-rule="evenodd" clip-rule="evenodd" d="M90.8388 48.4651C90.7699 48.6217 90.6012 48.6855 90.4624 48.6073C90.3235 48.5295 90.267 48.3388 90.3362 48.1822L90.8412 47.0384C90.9102 46.8816 91.0788 46.818 91.2177 46.8962C91.3565 46.974 91.413 47.1645 91.3439 47.3211L90.8388 48.4651Z" fill="white"/>
<path fill-rule="evenodd" clip-rule="evenodd" d="M89.6379 33.7616C89.5608 33.6402 89.5923 33.4759 89.708 33.3949C89.8236 33.314 89.9802 33.347 90.0572 33.4686L90.6203 34.3618C90.6973 34.4834 90.6658 34.6477 90.5501 34.7285C90.4344 34.8096 90.2781 34.7764 90.2011 34.655L89.6379 33.7616Z" fill="white"/>
<path fill-rule="evenodd" clip-rule="evenodd" d="M101.273 35.882C101.394 35.805 101.559 35.8364 101.64 35.952C101.721 36.068 101.688 36.2242 101.566 36.3013L100.673 36.8644C100.551 36.9414 100.387 36.91 100.306 36.7944C100.225 36.6786 100.258 36.5222 100.38 36.4451L101.273 35.882Z" fill="white"/>
<path fill-rule="evenodd" clip-rule="evenodd" d="M99.1535 47.8742C99.2305 47.9954 99.1991 48.1599 99.0833 48.2407C98.9676 48.3218 98.8112 48.2886 98.7341 48.1672L98.1711 47.2739C98.094 47.1524 98.1255 46.9879 98.2413 46.9071C98.3568 46.8262 98.5134 46.8592 98.5904 46.9807L99.1535 47.8742Z" fill="white"/>
<path fill-rule="evenodd" clip-rule="evenodd" d="M87.5165 45.7539C87.3951 45.8308 87.2306 45.7994 87.1498 45.6836C87.0688 45.568 87.1019 45.4116 87.2235 45.3346L88.1167 44.7714C88.2383 44.6943 88.4027 44.726 88.4834 44.8415C88.5644 44.9573 88.5314 45.1137 88.4099 45.1907L87.5165 45.7539Z" fill="white"/>
<path fill-rule="evenodd" clip-rule="evenodd" d="M93.5065 32.2417C93.4954 32.0791 93.6281 31.9394 93.8023 31.929C93.9767 31.9189 94.1269 32.0424 94.138 32.2046L94.2164 33.3935C94.2273 33.5557 94.0948 33.6957 93.9206 33.7058C93.7462 33.7161 93.596 33.5927 93.5849 33.4302L93.5065 32.2417Z" fill="white"/>
<path fill-rule="evenodd" clip-rule="evenodd" d="M102.795 40.1073C102.957 40.0965 103.097 40.229 103.107 40.4033C103.118 40.5775 102.994 40.7277 102.832 40.7388L101.643 40.8172C101.481 40.8283 101.341 40.6956 101.331 40.5214C101.32 40.347 101.444 40.197 101.606 40.186L102.795 40.1073Z" fill="white"/>
<path fill-rule="evenodd" clip-rule="evenodd" d="M95.2828 49.3945C95.2939 49.5567 95.1611 49.6966 94.987 49.7067C94.8126 49.7171 94.6624 49.5938 94.6513 49.4314L94.5729 48.2425C94.562 48.0803 94.6945 47.9404 94.8689 47.93C95.043 47.9197 95.1933 48.0434 95.2041 48.2056L95.2828 49.3945Z" fill="white"/>
<path fill-rule="evenodd" clip-rule="evenodd" d="M85.9964 41.5284C85.8342 41.5393 85.6943 41.4066 85.6842 41.2325C85.6739 41.0584 85.7973 40.908 85.9597 40.8971L87.1483 40.8185C87.3105 40.8076 87.4504 40.9401 87.4609 41.1144C87.471 41.2885 87.3476 41.4389 87.1852 41.4498L85.9964 41.5284Z" fill="white"/>
<path fill-rule="evenodd" clip-rule="evenodd" d="M102.261 26.5947L118.752 34.8678L104.348 63.5751L99.9062 61.347L102.261 26.5947Z" fill="white"/>
<path fill-rule="evenodd" clip-rule="evenodd" d="M100.672 48.4364C107.788 47.0849 108.728 55.1756 107.773 57.4655L104.435 63.5751L99.9062 61.3446L100.672 48.4364Z" fill="#CCCCCC"/>
<path fill-rule="evenodd" clip-rule="evenodd" d="M107.695 57.5303L160 83.5129V93.0883L103.818 65.1801L107.695 57.5303Z" fill="#34466B"/>
<path fill-rule="evenodd" clip-rule="evenodd" d="M97.5245 50.169L68.9707 85.959L74.9044 94.155L105.29 56.2973C110.024 50.5881 101.288 45.3719 97.5245 50.169Z" fill="#FFC4B8"/>
<path fill-rule="evenodd" clip-rule="evenodd" d="M42.9935 96.9995L12.3338 133.691L12.0789 135.061L12.0781 135.233L35.975 139.669L44.9005 138.308L62.9261 116.723L42.9935 96.9995Z" fill="#FFC4B8"/>
<path fill-rule="evenodd" clip-rule="evenodd" d="M103.464 101.178L82.681 111.927C80.0056 113.31 58.937 118.801 57.3449 116.241C55.7545 113.683 72.4412 104.994 75.1533 103.678L90.2917 96.9593C98.9723 93.107 102.052 98.2225 103.464 101.178Z" fill="#FFC4B8"/>
<path fill-rule="evenodd" clip-rule="evenodd" d="M102.678 59.6736L88.4042 77.4337C88.7363 72.8855 82.3153 70.4456 78.8259 73.881C79.8072 69.2665 73.9536 66.4746 70.1811 68.9728C70.3854 64.571 63.8721 62.3858 60.7223 66.2766L46.2958 84.0976C42.2449 89.1012 39.7451 97.7262 39.8159 102.005C40.0266 114.687 55.5036 119.257 61.9653 117.117C67.0029 115.449 70.0405 114.324 72.2456 111.676L110.415 65.8411C115.583 59.6355 106.786 54.4592 102.678 59.6736Z" fill="#FFC4B8"/>
<path fill-rule="evenodd" clip-rule="evenodd" d="M103.11 59.3081C101.816 60.0725 84.7836 81.306 81.1289 86.6878C84.7453 82.7074 102.895 60.4334 103.11 59.3081ZM80.5589 71.6614C80.1166 72.1183 79.8236 72.522 79.5572 72.889L79.5571 72.8891C79.4029 73.1015 79.2577 73.3016 79.0976 73.4925C79.1426 73.2798 79.1354 73.0109 79.1289 72.7689C79.126 72.6596 79.1232 72.5557 79.1254 72.4651C76.3332 75.9757 72.8922 81.2686 72.8922 81.2686C72.8922 81.2686 78.2218 75.8236 80.5589 71.6614ZM70.3511 68.1799C67.8562 71.3739 65.0625 74.9821 65.0625 74.9821C65.0625 74.9821 68.5723 71.3851 71.4196 68.3867C71.062 68.5274 70.7141 68.7061 70.3823 68.9266C70.3943 68.6698 70.3823 68.4209 70.3511 68.1799Z" fill="#F4A48D"/>
<mask id="mask0_1483_70213" style="mask-type:luminance" maskUnits="userSpaceOnUse" x="0" y="102" width="60" height="44">
<path fill-rule="evenodd" clip-rule="evenodd" d="M0 102.859H59.2826V145.003H0V102.859Z" fill="white"/>
</mask>
<g mask="url(#mask0_1483_70213)">
<path fill-rule="evenodd" clip-rule="evenodd" d="M22.334 117.673L34.5476 102.858L59.2822 123.281L47.069 138.095L22.334 117.673Z" fill="white"/>
</g>
<mask id="mask1_1483_70213" style="mask-type:luminance" maskUnits="userSpaceOnUse" x="0" y="102" width="60" height="44">
<path fill-rule="evenodd" clip-rule="evenodd" d="M0 102.859H59.2826V145.003H0V102.859Z" fill="white"/>
</mask>
<g mask="url(#mask1_1483_70213)">
<path fill-rule="evenodd" clip-rule="evenodd" d="M22.4441 112.918L-0.0117188 139.59V145.003H44.8822L51.6164 137.004L22.4441 112.918Z" fill="#34466B"/>
</g>
<path fill-rule="evenodd" clip-rule="evenodd" d="M32.7031 145.003L44.2476 130.78L51.5489 136.903L44.8345 145.003H32.7031Z" fill="#34466B"/>
<path fill-rule="evenodd" clip-rule="evenodd" d="M44.0801 131.103L53.8806 119.046L59.0144 123.345L49.214 135.402L44.0801 131.103Z" fill="#CCCCCC"/>
<path d="M57.9829 122.601L62.572 116.912C61.2802 117.205 59.0515 119.83 57.2383 121.962L57.9829 122.601Z" fill="#F4A48D"/>
<path d="M62.2148 117.268C62.456 117.148 62.6933 117.029 62.926 116.912C62.7142 116.938 62.4755 117.063 62.2148 117.268Z" fill="#A66555"/>
<path d="M76.084 47.5494C76.4374 47.4441 76.7849 47.3338 77.1256 47.2183L81.0621 50.0629L76.084 47.5494Z" fill="#F4A48D"/>
<path d="M70.75 48.6406C73.0932 48.324 75.2465 47.8542 77.1945 47.2183L78.2172 47.9294C76.317 48.2236 73.6715 48.4689 70.75 48.6406Z" fill="#A66555"/>
<path d="M70.75 48.6406C72.9849 48.3202 75.0414 47.8502 76.9052 47.2183L77.8616 47.909C77.7041 47.9327 77.5482 47.9536 77.396 47.9672C74.8434 48.1992 72.6647 48.539 70.75 48.6406Z" fill="#F4A48D"/>
</svg>
