<svg width="161" height="161" viewBox="0 0 161 161" fill="none" xmlns="http://www.w3.org/2000/svg">
<path fill-rule="evenodd" clip-rule="evenodd" d="M63.296 119.55C62.8977 119.156 62.507 118.758 62.124 118.354C54.4102 110.238 44.1906 104.941 33.1153 102.95C26.393 101.741 19.9607 98.5649 14.7632 93.4207C1.14961 79.9472 1.13415 58.2194 14.7294 44.7274C20.7267 38.7759 28.3739 35.4501 36.2155 34.7493C42.9287 34.1492 49.2361 31.2497 53.8936 26.4256C53.9537 26.3635 54.0142 26.3018 54.0746 26.2406C62.02 18.2163 74.8729 18.1369 82.9147 26.0659C82.9608 26.1111 83.0065 26.1568 83.0518 26.2025C85.1999 28.3608 88.3006 29.3034 91.3049 28.7259C108.434 25.4329 126.855 30.3532 140.122 43.4877C161.32 64.4748 161.32 98.5634 140.122 119.551C118.907 140.554 84.5109 140.554 63.296 119.55Z" fill="#DEEDF2"/>
<path fill-rule="evenodd" clip-rule="evenodd" d="M86.5555 28.6509L140.367 55.5341L140.662 57.4239L140.732 57.5808L120.578 71.1507L111.845 73.4542L75.6602 55.3806L86.5555 28.6509Z" fill="#FFC4B8"/>
<path fill-rule="evenodd" clip-rule="evenodd" d="M120.27 41.0962L160.291 61.0752V101.19L104.109 73.1433L120.27 41.0962Z" fill="#34466B"/>
<path fill-rule="evenodd" clip-rule="evenodd" d="M35.125 37.8105L49.9678 55.7463C51.8786 58.055 78.6731 57.0541 81.1523 55.3549C83.6287 53.6573 62.1313 53.4762 60.1602 51.2142L48.9076 39.1592C42.4553 32.2466 37.595 35.6819 35.125 37.8105Z" fill="#FFC4B8"/>
<path fill-rule="evenodd" clip-rule="evenodd" d="M39.3907 30.7163C37.2693 26.686 39.7656 21.1425 44.3385 22.8995C41.595 19.0665 46.4702 13.8317 50.4847 15.2377C48.184 11.2022 54.439 6.70251 58.8822 9.01145L79.2331 19.5873C84.9474 22.5565 90.6853 29.4562 92.3295 33.3998C97.202 45.0898 84.8314 55.4221 78.05 56.0318C72.7631 56.5071 69.0458 57.431 65.9656 55.8835L34.7189 40.4464C27.282 36.8209 33.0291 27.577 39.3907 30.7163Z" fill="#FFC4B8"/>
<path d="M40.1016 43.23C41.116 43.7483 58.9474 52.4751 58.9474 52.4751L41.7958 45.3211L40.1016 43.23Z" fill="#F4A48D"/>
<path fill-rule="evenodd" clip-rule="evenodd" d="M50.0659 14.0718C53.7982 16.0882 58.5924 18.6862 58.5924 18.6862C58.5924 18.6862 53.9444 16.8057 50.142 15.2069L49.9335 15.1311C50.1264 15.1687 50.3184 15.2203 50.5086 15.2867C50.2786 14.884 50.1354 14.4765 50.0659 14.0718ZM42.6641 22.6096C43.1898 22.6074 43.7573 22.7109 44.3612 22.9426C44.0965 22.5734 43.9033 22.1909 43.7729 21.8027C48.5565 24.3553 53.7274 27.1233 53.7274 27.1233C53.7274 27.1233 48.0092 24.8028 42.6641 22.6096ZM39.4114 30.753C39.2574 30.4606 39.1283 30.1604 39.0221 29.8556C42.989 32.0458 48.2365 35.0511 48.2365 35.0511C48.2365 35.0511 40.9773 31.7777 37.9688 30.2595C37.9908 30.2707 37.996 30.2657 37.9872 30.2476C38.4548 30.3511 38.9313 30.5161 39.4114 30.753Z" fill="#F4A48D"/>
<path fill-rule="evenodd" clip-rule="evenodd" d="M82.0625 58.632L94.9572 32.918L107.664 39.2063L94.7697 64.9203L82.0625 58.632Z" fill="#444444"/>
<path fill-rule="evenodd" clip-rule="evenodd" d="M85.9338 44.3822C87.1375 41.9659 89.2069 40.2661 91.5795 39.4712C93.9519 38.6767 96.6275 38.7869 99.044 39.9905C101.46 41.1944 103.16 43.2637 103.955 45.6361C104.75 48.0085 104.639 50.6843 103.436 53.1006C102.232 55.5169 100.162 57.2167 97.7899 58.0114C95.4177 58.8061 92.7417 58.6959 90.3254 57.4922C87.9093 56.2885 86.2093 54.2191 85.4146 51.8465C84.6201 49.4741 84.7303 46.7987 85.9338 44.3822Z" fill="white"/>
<path fill-rule="evenodd" clip-rule="evenodd" d="M87.2251 45.1151C89.3261 40.8971 94.4485 39.1812 98.6666 41.2822C102.884 43.3834 104.6 48.5058 102.499 52.7237C100.398 56.9414 95.2754 58.6572 91.0578 56.5562C86.8399 54.4552 85.1241 49.3328 87.2251 45.1151Z" fill="#767676"/>
<path fill-rule="evenodd" clip-rule="evenodd" d="M87.2251 45.1151C89.3261 40.8971 94.4485 39.1812 98.6666 41.2822C102.884 43.3834 104.6 48.5059 102.499 52.7237C100.398 56.9414 95.2754 58.6572 91.0578 56.5562C86.8399 54.4552 85.1241 49.3328 87.2251 45.1151Z" stroke="#F4A48D" stroke-width="0.216"/>
<path d="M94.8616 49.0732L87.8748 51.4081L87.75 50.8986L94.7368 48.5635L94.8616 49.0732Z" fill="#F6C854"/>
<path fill-rule="evenodd" clip-rule="evenodd" d="M94.403 48.6286C94.5244 48.5264 94.7018 48.5467 94.799 48.6742C94.8963 48.8016 94.8772 48.9881 94.7556 49.0903L89.9856 53.1208C89.864 53.2231 89.6868 53.203 89.5894 53.0754C89.4921 52.948 89.5112 52.7616 89.6328 52.6591L94.403 48.6286Z" fill="white"/>
<path fill-rule="evenodd" clip-rule="evenodd" d="M94.8568 48.9216C94.8918 49.0785 94.7903 49.2338 94.6302 49.268C94.47 49.3023 94.3117 49.2028 94.2765 49.0459L93.4484 45.3608C93.4132 45.2039 93.5147 45.049 93.675 45.0146C93.8352 44.9803 93.9935 45.0798 94.0285 45.2367L94.8568 48.9216Z" fill="white"/>
<path fill-rule="evenodd" clip-rule="evenodd" d="M86.8592 45.5402C86.7026 45.4709 86.6388 45.3023 86.717 45.1634C86.7947 45.0246 86.9854 44.9683 87.142 45.0372L88.2859 45.5424C88.4425 45.6115 88.5063 45.78 88.4281 45.9188C88.3501 46.0576 88.1597 46.1143 88.0031 46.045L86.8592 45.5402Z" fill="white"/>
<path fill-rule="evenodd" clip-rule="evenodd" d="M98.2415 40.9166C98.3106 40.7598 98.4794 40.696 98.6181 40.774C98.7569 40.8522 98.8134 41.0424 98.7443 41.199L98.2394 42.343C98.1703 42.4995 98.0017 42.5633 97.8628 42.4854C97.724 42.4074 97.6673 42.2172 97.7366 42.0603L98.2415 40.9166Z" fill="white"/>
<path fill-rule="evenodd" clip-rule="evenodd" d="M102.508 52.2982C102.665 52.3673 102.729 52.5359 102.651 52.6748C102.573 52.8136 102.382 52.8701 102.226 52.8008L101.082 52.2958C100.925 52.2267 100.862 52.0581 100.94 51.9192C101.018 51.7804 101.208 51.7241 101.364 51.7932L102.508 52.2982Z" fill="white"/>
<path fill-rule="evenodd" clip-rule="evenodd" d="M91.1259 56.5662C91.057 56.7228 90.8883 56.7866 90.7495 56.7084C90.6106 56.6306 90.5541 56.4399 90.6233 56.2833L91.1283 55.1395C91.1973 54.9827 91.3659 54.9191 91.5048 54.9973C91.6436 55.0751 91.7001 55.2655 91.631 55.4221L91.1259 56.5662Z" fill="white"/>
<path fill-rule="evenodd" clip-rule="evenodd" d="M89.925 41.8632C89.848 41.7418 89.8794 41.5774 89.9952 41.4965C90.1107 41.4155 90.2673 41.4486 90.3443 41.5702L90.9074 42.4633C90.9844 42.585 90.953 42.7493 90.8372 42.8301C90.7215 42.9112 90.5652 42.878 90.4882 42.7565L89.925 41.8632Z" fill="white"/>
<path fill-rule="evenodd" clip-rule="evenodd" d="M101.562 43.9831C101.683 43.9061 101.848 43.9375 101.929 44.0531C102.01 44.1691 101.977 44.3253 101.855 44.4024L100.962 44.9655C100.84 45.0425 100.676 45.0111 100.595 44.8955C100.514 44.7797 100.547 44.6233 100.669 44.5462L101.562 43.9831Z" fill="white"/>
<path fill-rule="evenodd" clip-rule="evenodd" d="M99.4425 55.9755C99.5196 56.0967 99.4881 56.2612 99.3724 56.342C99.2566 56.4232 99.1002 56.3899 99.0232 56.2685L98.4602 55.3752C98.3831 55.2537 98.4146 55.0892 98.5303 55.0084C98.6459 54.9275 98.8025 54.9605 98.8795 55.082L99.4425 55.9755Z" fill="white"/>
<path fill-rule="evenodd" clip-rule="evenodd" d="M87.8056 53.8553C87.6842 53.9321 87.5196 53.9007 87.4389 53.7849C87.3579 53.6694 87.391 53.513 87.5126 53.4359L88.4058 52.8727C88.5274 52.7957 88.6917 52.8273 88.7725 52.9429C88.8535 53.0586 88.8204 53.215 88.699 53.2921L87.8056 53.8553Z" fill="white"/>
<path fill-rule="evenodd" clip-rule="evenodd" d="M93.7975 40.3431C93.7864 40.1804 93.9192 40.0407 94.0933 40.0304C94.2677 40.0203 94.4179 40.1437 94.429 40.3059L94.5074 41.4948C94.5183 41.657 94.3858 41.797 94.2116 41.8071C94.0373 41.8174 93.887 41.694 93.876 41.5315L93.7975 40.3431Z" fill="white"/>
<path fill-rule="evenodd" clip-rule="evenodd" d="M103.082 48.2086C103.244 48.1978 103.384 48.3303 103.394 48.5046C103.405 48.6788 103.281 48.829 103.119 48.8401L101.93 48.9185C101.768 48.9296 101.628 48.7969 101.618 48.6227C101.607 48.4484 101.731 48.2984 101.893 48.2873L103.082 48.2086Z" fill="white"/>
<path fill-rule="evenodd" clip-rule="evenodd" d="M95.5699 57.4958C95.581 57.658 95.4483 57.798 95.2741 57.8081C95.0997 57.8184 94.9495 57.6952 94.9384 57.5327L94.86 56.3439C94.8491 56.1816 94.9816 56.0417 95.156 56.0314C95.3302 56.021 95.4804 56.1447 95.4912 56.3069L95.5699 57.4958Z" fill="white"/>
<path fill-rule="evenodd" clip-rule="evenodd" d="M86.2855 49.6297C86.1233 49.6406 85.9834 49.5079 85.9733 49.3338C85.9629 49.1597 86.0864 49.0093 86.2488 48.9984L87.4373 48.9198C87.5995 48.909 87.7395 49.0414 87.75 49.2157C87.7601 49.3898 87.6367 49.5402 87.4743 49.5511L86.2855 49.6297Z" fill="white"/>
<path fill-rule="evenodd" clip-rule="evenodd" d="M102.55 34.6958L119.041 42.9689L104.637 71.6763L100.195 69.4482L102.55 34.6958Z" fill="white"/>
<path fill-rule="evenodd" clip-rule="evenodd" d="M100.961 56.5375C108.077 55.1859 109.017 63.2767 108.063 65.5666L104.724 71.6762L100.195 69.4457L100.961 56.5375Z" fill="#CCCCCC"/>
<path fill-rule="evenodd" clip-rule="evenodd" d="M107.986 65.6313L160.291 91.6141V101.19L104.109 73.2812L107.986 65.6313Z" fill="#34466B"/>
<path fill-rule="evenodd" clip-rule="evenodd" d="M97.8118 58.2701L69.2578 94.0602L75.1916 102.256L105.578 64.3984C110.311 58.6892 101.575 53.4729 97.8118 58.2701Z" fill="#FFC4B8"/>
<path fill-rule="evenodd" clip-rule="evenodd" d="M43.2827 105.101L12.6228 141.792L12.368 143.162L12.3672 143.334L36.2642 147.771L45.1897 146.41L63.2154 124.825L43.2827 105.101Z" fill="#FFC4B8"/>
<path fill-rule="evenodd" clip-rule="evenodd" d="M103.749 109.279L82.9663 120.028C80.2909 121.412 59.2222 126.903 57.63 124.342C56.0397 121.785 72.7265 113.095 75.4385 111.779L90.577 105.061C99.2577 101.209 102.338 106.324 103.749 109.279Z" fill="#FFC4B8"/>
<path fill-rule="evenodd" clip-rule="evenodd" d="M102.965 67.7747L88.6915 85.5349C89.0236 80.9867 82.6026 78.5468 79.1131 81.9821C80.0944 77.3676 74.2409 74.5757 70.4683 77.074C70.6726 72.6721 64.1593 70.4869 61.0095 74.3777L46.583 92.1988C42.532 97.2024 40.0322 105.827 40.103 110.106C40.3138 122.788 55.7908 127.358 62.2525 125.219C67.2901 123.55 70.3278 122.426 72.5329 119.777L110.703 73.9423C115.87 67.7366 107.074 62.5603 102.965 67.7747Z" fill="#FFC4B8"/>
<path fill-rule="evenodd" clip-rule="evenodd" d="M103.395 67.4097C102.101 68.1741 85.0688 89.4076 81.4141 94.7895C85.0306 90.809 103.18 68.535 103.395 67.4097ZM80.8445 79.7632C80.4022 80.2201 80.1091 80.6238 79.8428 80.9908C79.6885 81.2032 79.5433 81.4033 79.3832 81.5943C79.4281 81.3816 79.4209 81.1127 79.4145 80.8707V80.8707V80.8706C79.4115 80.7613 79.4088 80.6575 79.411 80.5669C76.6187 84.0775 73.1777 89.3704 73.1777 89.3704C73.1777 89.3704 78.5074 83.9254 80.8445 79.7632ZM70.6363 76.2813C68.1413 79.4753 65.3477 83.0836 65.3477 83.0836C65.3477 83.0836 68.8575 79.4866 71.7048 76.4882C71.3472 76.6288 70.9992 76.8076 70.6675 77.0281C70.6795 76.7713 70.6675 76.5223 70.6363 76.2813Z" fill="#F4A48D"/>
<mask id="mask0_1487_22545" style="mask-type:luminance" maskUnits="userSpaceOnUse" x="0" y="110" width="60" height="44">
<path fill-rule="evenodd" clip-rule="evenodd" d="M0.289062 110.96H59.5719V153.105H0.289062V110.96Z" fill="white"/>
</mask>
<g mask="url(#mask0_1487_22545)">
<path fill-rule="evenodd" clip-rule="evenodd" d="M22.625 125.775L34.8387 110.96L59.5733 131.383L47.3601 146.197L22.625 125.775Z" fill="white"/>
</g>
<mask id="mask1_1487_22545" style="mask-type:luminance" maskUnits="userSpaceOnUse" x="0" y="110" width="60" height="44">
<path fill-rule="evenodd" clip-rule="evenodd" d="M0.289062 110.96H59.5719V153.105H0.289062V110.96Z" fill="white"/>
</mask>
<g mask="url(#mask1_1487_22545)">
<path fill-rule="evenodd" clip-rule="evenodd" d="M22.7332 121.02L0.277344 147.692V153.105H45.1715L51.9057 145.106L22.7332 121.02Z" fill="#34466B"/>
</g>
<path fill-rule="evenodd" clip-rule="evenodd" d="M32.9922 153.105L44.5368 138.881L51.838 145.004L45.1236 153.105H32.9922Z" fill="#34466B"/>
<path fill-rule="evenodd" clip-rule="evenodd" d="M44.3672 139.205L54.1677 127.147L59.3016 131.446L49.5011 143.504L44.3672 139.205Z" fill="#CCCCCC"/>
<path d="M58.268 130.703L62.8572 125.014C61.5654 125.307 59.3367 127.931 57.5234 130.064L58.268 130.703Z" fill="#F4A48D"/>
<path d="M62.5039 125.369C62.7451 125.249 62.9823 125.131 63.2151 125.014C63.0033 125.04 62.7645 125.164 62.5039 125.369Z" fill="#A66555"/>
<path d="M76.3711 55.651C76.7245 55.5457 77.072 55.4354 77.4127 55.3198L81.3492 58.1645L76.3711 55.651Z" fill="#F4A48D"/>
<path d="M71.0391 56.7422C73.3823 56.4255 75.5356 55.9558 77.4836 55.3198L78.5063 56.031C76.6061 56.3252 73.9605 56.5705 71.0391 56.7422Z" fill="#A66555"/>
<path d="M71.0391 56.7422C73.274 56.4217 75.3305 55.9518 77.1942 55.3198L78.1507 56.0106C77.9932 56.0342 77.8373 56.0552 77.6851 56.0688C75.1325 56.3008 72.9537 56.6405 71.0391 56.7422Z" fill="#F4A48D"/>
</svg>
