<svg width="160" height="160" viewBox="0 0 160 160" fill="none" xmlns="http://www.w3.org/2000/svg">
<mask id="mask0_1487_19045" style="mask-type:luminance" maskUnits="userSpaceOnUse" x="3" y="0" width="154" height="160">
<rect x="3" width="153.477" height="160" fill="white"/>
</mask>
<g mask="url(#mask0_1487_19045)">
<rect x="3" y="-0.000488281" width="153.477" height="160" fill="white"/>
<mask id="mask1_1487_19045" style="mask-type:luminance" maskUnits="userSpaceOnUse" x="5" y="1" width="146" height="146">
<path fill-rule="evenodd" clip-rule="evenodd" d="M150.2 73.8282C150.2 113.883 117.729 146.354 77.6702 146.354C37.6115 146.354 5.14453 113.883 5.14453 73.8282C5.14453 33.7737 37.6157 1.29834 77.6702 1.29834C117.725 1.29834 150.2 33.7699 150.2 73.8282Z" fill="white"/>
</mask>
<g mask="url(#mask1_1487_19045)">
<path fill-rule="evenodd" clip-rule="evenodd" d="M26.3882 107.593C28.6337 113.126 27.6731 119.444 23.8846 124.06L15.2657 134.55C14.25 135.78 13.416 137.15 12.789 138.617C12.356 139.637 12.0316 140.701 11.8213 141.789C10.0068 151.202 16.9793 161.149 27.796 161.149H64.4728C76.3615 161.149 163.297 134.842 158.25 124.06L154.331 76.9305C151.946 65.2609 74.7623 115.96 80.8542 111.316L90.5516 103.938L95.1943 100.402C104.909 93.0069 103.313 77.9135 92.2641 72.7245C86.5347 70.0487 82.8859 64.284 82.9192 57.9607C82.9089 53.3629 84.8636 48.9798 88.2909 45.9151L92.0108 42.5543C102.028 33.5122 97.3169 16.8852 84.0538 14.468L54.5409 9.09011C49.4959 8.17843 44.3167 9.70225 40.5693 13.2008C36.8219 16.6993 34.9463 21.7618 35.5097 26.8574L35.9667 31.0838C36.894 39.524 31.1685 47.2558 22.8248 48.8307L22.0083 48.9842C17.1083 49.9118 12.9045 53.0355 10.6025 57.4595C8.30051 61.8834 8.15478 67.1188 10.2071 71.6639L13.5372 79.0493L26.148 107.02C26.2316 107.209 26.3126 107.398 26.3897 107.59" fill="#CEDEE7"/>
</g>
<path fill-rule="evenodd" clip-rule="evenodd" d="M35.2665 75.7739C44.9277 107.135 78.1818 124.727 109.544 115.069C140.905 105.406 158.496 72.1497 148.834 40.788C139.172 9.42749 105.917 -8.16317 74.5567 1.49783C43.196 11.1595 25.6052 44.4146 35.2665 75.7754" fill="white"/>
<path fill-rule="evenodd" clip-rule="evenodd" d="M147.511 62.3977C147.511 75.9569 142.125 88.9607 132.537 98.5481C122.948 108.136 109.944 113.521 96.3851 113.52C68.1519 113.519 45.2652 90.6308 45.2656 62.3977C45.2652 34.1644 68.1518 11.2761 96.3851 11.2744C109.944 11.2736 122.949 16.6594 132.537 26.247C142.125 35.8345 147.511 48.8384 147.511 62.3977Z" fill="#DEEDF2"/>
<path fill-rule="evenodd" clip-rule="evenodd" d="M53.6044 54.7792L43.6136 51.0764L42.5351 56.5691C42.0201 59.2041 42.3147 61.9334 43.3803 64.3978L45.3866 69.0581C45.8391 70.0782 46.7142 70.85 47.7828 71.1716C48.9888 71.5179 50.2882 71.2358 51.2419 70.4205C52.1957 69.6052 52.6766 68.3656 52.5221 67.1204L51.5052 58.7857L53.6044 54.7792Z" fill="#FFC4B8"/>
<path fill-rule="evenodd" clip-rule="evenodd" d="M60.2031 84.9843L87.0488 94.9746C91.5513 97.0726 96.2438 98.7362 101.062 99.9426L116.769 103.898L126.837 77.8119L56.6592 63.5908L60.2031 84.9843Z" fill="#FFC4B8"/>
<path fill-rule="evenodd" clip-rule="evenodd" d="M39.3626 71.2537C39.3626 71.2537 42.0849 76.1497 52.2463 80.7732C53.6732 81.4219 59.6274 84.2511 61.8684 85.5084C61.9213 85.5401 70.984 88.9915 71.1497 89.0563C71.3565 89.1366 72.2773 85.8369 72.6061 85.9628C78.9106 88.3718 80.8548 89.2498 86.9824 90.1128C97.5039 90.1128 101.49 81.3139 101.49 81.3139C105.986 83.4139 104.015 83.7731 108.833 84.9828L99.7257 57.8606L83.7628 62.5988L82.2431 65.7957L39.3626 71.2537Z" fill="#F4A48D"/>
<mask id="mask2_1487_19045" style="mask-type:luminance" maskUnits="userSpaceOnUse" x="45" y="11" width="103" height="103">
<path fill-rule="evenodd" clip-rule="evenodd" d="M147.515 62.3972C147.515 75.9564 142.129 88.9602 132.541 98.5476C122.952 108.135 109.948 113.521 96.389 113.52C68.1558 113.518 45.2691 90.6303 45.2695 62.3972C45.2691 34.1639 68.1557 11.2756 96.389 11.2739C109.948 11.2731 122.952 16.6589 132.541 26.2465C142.129 35.8341 147.515 48.8379 147.515 62.3972Z" fill="white"/>
</mask>
<g mask="url(#mask2_1487_19045)">
<path fill-rule="evenodd" clip-rule="evenodd" d="M181.836 86.0642L154.018 113.882L116.946 103.946L116.645 103.876L115.977 103.696L117.578 93.006L117.623 92.6899L119.914 77.2775L120.058 76.3366L120.096 76.0647L121.039 69.7668L127.063 71.3851L131.066 72.4495L149.545 77.3996L165.248 81.6103L165.252 81.6141L170.187 82.9411L181.836 86.0642Z" fill="#FFC4B8"/>
</g>
<rect x="30.2305" y="34.9155" width="68.3131" height="43.472" rx="9" fill="#EC0000"/>
<rect x="33.3008" y="52.8501" width="38.4583" height="7.45247" rx="1" fill="white"/>
<path fill-rule="evenodd" clip-rule="evenodd" d="M92.2959 69.4141H91.3305C91.2236 69.4143 91.1369 69.5009 91.1367 69.6078V71.8137C91.1405 71.9189 91.2283 72.0014 91.3336 71.9986H92.4931C92.8952 72.0109 93.2319 71.6962 93.2466 71.2942C93.2421 71.0208 93.0796 70.7748 92.83 70.6634C92.9625 70.5264 93.0367 70.3433 93.0368 70.1527C93.0349 69.7446 92.7039 69.4147 92.2959 69.4141ZM92.8376 71.2521C92.837 71.4517 92.6754 71.6133 92.4758 71.6139H91.5354V69.7829H92.277C92.4595 69.7836 92.6109 69.9243 92.6247 70.1063C92.6386 70.2883 92.5103 70.4503 92.33 70.4786V70.4824H91.962C91.8499 70.4824 91.759 70.5733 91.759 70.6854C91.759 70.7975 91.8499 70.8884 91.962 70.8884H92.33H92.4758C92.6758 70.8896 92.8372 71.0521 92.8372 71.2521H92.8376Z" fill="white"/>
<path fill-rule="evenodd" clip-rule="evenodd" d="M88.0652 72.0338C88.1266 72.0404 88.188 72.0222 88.236 71.9835C88.284 71.9447 88.3147 71.8884 88.3211 71.827L88.513 70.0731L89.1887 71.7902V71.7932V71.7963V71.7994V71.8013V71.8044V71.8074V71.8093L89.1906 71.8132L89.1925 71.817V71.8189C89.1993 71.8319 89.2077 71.8441 89.2174 71.855C89.2195 71.8579 89.2218 71.8606 89.2243 71.8631L89.2305 71.8692L89.2366 71.8753C89.2397 71.8773 89.2416 71.8803 89.2447 71.8822C89.2559 71.8917 89.268 71.9 89.2807 71.9072H89.2827L89.2857 71.9091L89.2896 71.911H89.2915H89.2946H89.2976H89.3007H89.3038H89.3068H89.3099C89.3344 71.9207 89.3603 71.9262 89.3866 71.9271H89.4028C89.4259 71.9263 89.4488 71.9219 89.4707 71.9141H89.4726H89.4757H89.4776H89.4795H89.4814H89.4833H89.4864H89.4895H89.4925H89.4956H89.4975L89.5014 71.9122L89.5052 71.9103C89.5192 71.9022 89.532 71.8924 89.5436 71.8811L89.5474 71.878C89.5668 71.8606 89.5826 71.8396 89.5942 71.8163L89.5961 71.8132V71.8113L89.5981 71.8082V71.8063L89.6 71.8024L89.6019 71.7986L89.6038 71.7948V71.7928L90.2795 70.0777L90.4683 71.8316C90.4771 71.9143 90.5293 71.986 90.6052 72.0197C90.6812 72.0534 90.7694 72.0441 90.8366 71.9951C90.9038 71.9462 90.9398 71.8651 90.931 71.7825L90.7062 69.7148V69.7128C90.7031 69.6884 90.6981 69.6643 90.6912 69.6407C90.6838 69.6177 90.6744 69.5954 90.6632 69.574C90.6051 69.4641 90.4975 69.3892 90.3743 69.3729C90.3699 69.3724 90.3656 69.3724 90.3612 69.3729C90.3416 69.3708 90.3219 69.3701 90.3021 69.371C90.2786 69.3717 90.2553 69.3747 90.2323 69.3798C90.1089 69.4083 90.0076 69.4959 89.9614 69.6139L89.3859 71.075L88.8103 69.6139C88.7558 69.4719 88.6216 69.3763 88.4696 69.371C88.4499 69.3701 88.4302 69.3708 88.4105 69.3729C88.4067 69.3729 88.4025 69.3729 88.3975 69.3729C88.2486 69.3931 88.1249 69.4979 88.0806 69.6415C88.0737 69.6651 88.0686 69.6892 88.0656 69.7136V69.7155L87.8407 71.7833C87.8351 71.8468 87.856 71.9098 87.8986 71.9573C87.9411 72.0047 88.0015 72.0325 88.0652 72.0338Z" fill="white"/>
<path fill-rule="evenodd" clip-rule="evenodd" d="M88.9062 68.019H92.4673C92.7254 68.0276 92.9284 68.2427 92.922 68.501V68.7312C92.9301 68.8148 92.8903 68.8958 92.819 68.9404C92.7478 68.985 92.6575 68.9853 92.5858 68.9414C92.5142 68.8975 92.4737 68.8168 92.4811 68.7331V68.6069C92.4807 68.5269 92.416 68.4622 92.3361 68.4618H88.7677C88.6876 68.4618 88.6227 68.5268 88.6227 68.6069V68.7296C88.635 68.8112 88.5989 68.8924 88.5301 68.9379C88.4614 68.9835 88.3725 68.9849 88.3022 68.9417C88.232 68.8985 88.1933 68.8184 88.2029 68.7365V68.501C88.1956 68.2426 88.3988 68.027 88.6572 68.019H88.9062ZM90.5377 73.3869H92.8464C93.374 73.3869 93.379 72.8263 93.3253 72.5493C93.2991 72.4663 93.2223 72.41 93.1353 72.41C93.0484 72.41 92.9715 72.4663 92.9454 72.5493V72.7653C92.9452 72.8639 92.8653 72.9439 92.7666 72.9441H88.3392C88.2405 72.9439 88.1606 72.8639 88.1604 72.7653V72.5493C88.1338 72.4668 88.0571 72.4109 87.9705 72.4109C87.8838 72.4109 87.8071 72.4668 87.7805 72.5493C87.7253 72.8263 87.7322 73.3869 88.259 73.3869H90.5377Z" fill="white"/>
<g clip-path="url(#clip0_1487_19045)">
<path d="M67.9121 53.1747C68.3761 52.9747 68.9161 52.8067 69.5321 52.6707C70.1481 52.5267 70.7361 52.4507 71.2961 52.4427V61.1787H70.2641V53.4987C69.8641 53.5627 69.4441 53.6547 69.0041 53.7747C68.5721 53.8867 68.1801 54.0067 67.8281 54.1347C67.8281 53.8147 67.8561 53.4947 67.9121 53.1747ZM79.4473 60.2307C79.4313 60.6067 79.3953 60.9227 79.3393 61.1787H74.3713V60.8187C74.3713 60.3147 74.4753 59.8587 74.6833 59.4507C74.8993 59.0427 75.1753 58.6787 75.5113 58.3587C75.8473 58.0387 76.2793 57.6747 76.8073 57.2667C77.2873 56.8987 77.6473 56.5347 77.8873 56.1747C78.1273 55.8067 78.2473 55.3947 78.2473 54.9387C78.2473 54.4267 78.0873 54.0387 77.7673 53.7747C77.4473 53.5027 76.9713 53.3667 76.3393 53.3667C76.0273 53.3667 75.7113 53.4067 75.3913 53.4867C75.0713 53.5587 74.7713 53.6667 74.4913 53.8107C74.4913 53.4267 74.5153 53.1067 74.5633 52.8507C75.1313 52.5787 75.7713 52.4427 76.4833 52.4427C77.1233 52.4427 77.6513 52.5467 78.0673 52.7547C78.4913 52.9547 78.8033 53.2387 79.0033 53.6067C79.2033 53.9667 79.3033 54.3907 79.3033 54.8787C79.3033 55.5027 79.1433 56.0627 78.8233 56.5587C78.5113 57.0467 78.0193 57.5427 77.3473 58.0467C76.9393 58.3587 76.6193 58.6147 76.3873 58.8147C76.1553 59.0147 75.9553 59.2307 75.7873 59.4627C75.6193 59.6947 75.5033 59.9507 75.4393 60.2307H79.4473ZM84.6704 56.7147C85.8464 57.0027 86.4344 57.6907 86.4344 58.7787C86.4344 59.3227 86.3024 59.7867 86.0384 60.1707C85.7824 60.5547 85.3944 60.8507 84.8744 61.0587C84.3624 61.2587 83.7344 61.3587 82.9904 61.3587C82.3904 61.3587 81.8064 61.2907 81.2384 61.1547C81.2384 61.0107 81.2504 60.8547 81.2744 60.6867C81.2984 60.5187 81.3264 60.3707 81.3584 60.2427C81.5904 60.2987 81.8464 60.3467 82.1264 60.3867C82.4064 60.4187 82.6704 60.4347 82.9184 60.4347C83.7424 60.4347 84.3544 60.2987 84.7544 60.0267C85.1624 59.7467 85.3664 59.3267 85.3664 58.7667C85.3664 58.2387 85.1784 57.8507 84.8024 57.6027C84.4264 57.3467 83.8344 57.2187 83.0264 57.2187H82.0304V56.3067H82.9544C83.6424 56.3067 84.1744 56.1787 84.5504 55.9227C84.9344 55.6587 85.1264 55.2787 85.1264 54.7827C85.1264 54.3587 84.9664 54.0187 84.6464 53.7627C84.3264 53.4987 83.8424 53.3667 83.1944 53.3667C82.8744 53.3667 82.5544 53.4027 82.2344 53.4747C81.9224 53.5387 81.6224 53.6307 81.3344 53.7507C81.3344 53.6307 81.3424 53.4827 81.3584 53.3067C81.3744 53.1307 81.3944 52.9667 81.4184 52.8147C81.6744 52.6947 81.9624 52.6027 82.2824 52.5387C82.6104 52.4747 82.9504 52.4427 83.3024 52.4427C83.9104 52.4427 84.4264 52.5347 84.8504 52.7187C85.2744 52.8947 85.5944 53.1467 85.8104 53.4747C86.0264 53.7947 86.1344 54.1707 86.1344 54.6027C86.1344 55.0987 85.9984 55.5307 85.7264 55.8987C85.4544 56.2667 85.1024 56.5387 84.6704 56.7147Z" fill="white"/>
</g>
<path fill-rule="evenodd" clip-rule="evenodd" d="M44.5781 56.8136C44.5712 56.8995 44.5616 56.9789 44.5525 57.0548C44.5379 57.1759 44.5244 57.2879 44.5244 57.4033C44.5244 57.4397 44.5615 57.4762 44.5961 57.5102C44.6125 57.5263 44.6284 57.542 44.6395 57.5568C44.6653 57.5062 44.6835 57.452 44.6932 57.396C44.6289 57.0901 44.7389 56.7738 44.9791 56.5737C45.0339 56.5176 45.0765 56.4507 45.1042 56.3773C45.1042 56.3685 45.0236 56.3059 45.0148 56.3148C44.9364 56.3465 44.8661 56.3954 44.8091 56.4579C44.6108 56.6679 44.3565 56.8168 44.0762 56.8868C44.0525 56.8988 44.0207 56.8869 43.9891 56.8749C43.9731 56.8689 43.9572 56.8629 43.9423 56.86C43.9491 56.8466 43.9533 56.8318 43.9574 56.8177C43.9641 56.7944 43.9703 56.7728 43.9868 56.7618C44.039 56.7304 44.0926 56.7001 44.1464 56.6697C44.2309 56.6221 44.316 56.574 44.3978 56.5204C44.419 56.5045 44.4307 56.4791 44.4423 56.4538C44.4503 56.4366 44.4582 56.4193 44.4691 56.4053C44.414 56.3852 44.3571 56.3703 44.2992 56.3608C44.2819 56.3608 44.2646 56.3719 44.245 56.3845C44.2341 56.3915 44.2225 56.399 44.2098 56.4053L43.3787 56.7806H43.2636C43.2656 56.7725 43.2671 56.7644 43.2686 56.7566C43.2738 56.7297 43.2785 56.7051 43.2993 56.6912C43.3526 56.6424 43.4103 56.5958 43.4679 56.5492L43.468 56.5492C43.5265 56.5019 43.5849 56.4547 43.6388 56.4053C43.6745 56.3784 43.7014 56.3071 43.6833 56.2902C43.5967 56.2191 43.6143 56.1411 43.632 56.0626C43.6343 56.0521 43.6367 56.0417 43.6388 56.0312C43.6482 55.9586 43.6389 55.8848 43.612 55.8167C43.4644 55.5562 43.1885 55.3948 42.8891 55.3939C42.764 55.3759 42.7103 55.3582 42.7817 55.2331C43.0555 54.8399 43.1734 54.3589 43.1124 53.8837C43.0347 53.6494 42.8217 53.4865 42.5752 53.4727C42.2998 53.4663 42.0258 53.5149 41.7695 53.6159C41.1641 53.7767 40.6333 54.1429 40.2681 54.6518C40.1932 54.8014 40.207 54.9801 40.3038 55.1165C40.3475 55.1435 40.3961 55.1618 40.4469 55.1702C40.4652 55.1311 40.4744 55.0883 40.4737 55.0451C40.4737 55.0248 40.4622 55.0045 40.4506 54.9842C40.4419 54.9687 40.433 54.9532 40.4292 54.9377C40.4272 54.9255 40.4243 54.9123 40.4213 54.8988C40.411 54.8529 40.3997 54.8024 40.4204 54.7677C40.4975 54.6297 40.5937 54.5034 40.7063 54.3925C41.1643 53.9978 41.7211 53.7353 42.317 53.6331C42.5345 53.5528 42.7783 53.6393 42.8964 53.8388C42.9321 53.9204 42.9504 54.0087 42.9501 54.0978C42.9086 54.4973 42.7909 54.8852 42.6032 55.2404C42.5764 55.321 42.4958 55.3478 42.3888 55.3298C42.2237 55.305 42.0569 55.2931 41.89 55.2941C41.5504 55.303 41.2016 55.321 40.862 55.3478C40.4688 55.3835 40.0755 55.4192 39.6914 55.4818C39.1598 55.5787 38.6386 55.7258 38.1348 55.9211C37.5262 56.1382 36.9778 56.4967 36.5348 56.967L36.5285 56.9739L36.5285 56.974C36.4504 57.0606 36.3795 57.1393 36.3114 57.226C36.2996 57.2437 36.3033 57.2651 36.3073 57.2879C36.3093 57.2998 36.3114 57.312 36.3114 57.3242C36.3545 57.3239 36.3971 57.3148 36.4365 57.2974C36.4714 57.2686 36.5019 57.2348 36.5271 57.1973C36.7757 56.896 37.0742 56.6397 37.4096 56.4395C38.1846 56.0158 39.0293 55.7343 39.9036 55.6084C40.2203 55.5605 40.5396 55.5306 40.8597 55.519C41.1915 55.5011 41.5208 55.4912 41.8515 55.4813L41.8519 55.4813L41.8534 55.4812C42.0192 55.4763 42.1853 55.4713 42.3523 55.4653C42.38 55.467 42.4071 55.473 42.4329 55.4833C42.4322 55.5081 42.426 55.5325 42.4148 55.5547C42.3815 55.5991 42.3483 55.6436 42.3152 55.6881C42.1355 55.9292 41.9571 56.1684 41.7534 56.3946C41.5411 56.6317 41.3115 56.8557 41.0797 57.082L41.0796 57.082C40.9795 57.1797 40.8789 57.2778 40.7792 57.3776C40.2609 57.8672 39.6954 58.3041 39.0909 58.6821C38.7266 58.9196 38.3413 59.123 37.9398 59.2899C37.6073 59.4881 37.2276 59.5931 36.8406 59.5938C36.8116 59.5945 36.7835 59.6038 36.76 59.6207C36.572 59.722 36.3466 59.7264 36.1548 59.6325C35.963 59.5386 35.8283 59.3578 35.7931 59.1472C35.7613 58.8077 35.8071 58.4654 35.927 58.1461C35.9359 58.0929 35.9359 58.0386 35.927 57.9854C35.7988 58.0463 35.7158 58.1742 35.7125 58.3161C35.6627 58.5641 35.6272 58.8149 35.6062 59.067C35.5891 59.4412 35.868 59.7633 36.2408 59.7998C36.5457 59.848 36.8575 59.8239 37.1513 59.7296C38.0306 59.4777 38.8572 59.069 39.5913 58.5233C39.6779 58.4583 39.7658 58.3941 39.8538 58.3297C40.0927 58.155 40.332 57.98 40.5474 57.7904C40.9495 57.4328 41.334 57.0576 41.6985 56.6731C41.981 56.3768 42.2377 56.0569 42.4659 55.717C42.635 55.4593 42.6735 55.47 42.9019 55.5337C42.927 55.5406 42.9543 55.5482 42.9842 55.5562C43.0847 55.5848 43.1809 55.6269 43.2701 55.6813C43.3187 55.7079 43.3586 55.7478 43.3852 55.7964C43.5103 56.0377 43.4566 56.1897 43.1976 56.3504C43.1205 56.4002 43.0459 56.4539 42.9743 56.5112L43.1619 56.6006C43.141 56.6238 43.1249 56.6494 43.1093 56.6743C43.0647 56.7453 43.0238 56.8104 42.8849 56.7971C42.8633 56.7971 42.8418 56.82 42.8203 56.8429C42.8149 56.8486 42.8096 56.8543 42.8043 56.8596C42.7598 56.9221 42.7149 56.9847 42.6612 57.0472C42.6242 57.0843 42.5815 57.1175 42.5394 57.1503L42.5393 57.1504C42.4897 57.189 42.4408 57.2272 42.4022 57.2705C42.3736 57.3151 42.3772 57.373 42.411 57.4137C42.4647 57.485 42.5261 57.4493 42.5718 57.3956L42.7951 57.19C42.8167 57.1698 42.8371 57.149 42.8574 57.1284C42.9451 57.039 43.0301 56.9525 43.1972 56.931C43.3223 56.9041 43.4562 56.8684 43.5724 56.8327C43.6312 56.8144 43.6882 56.7905 43.7424 56.7614C43.7492 56.7845 43.7522 56.8086 43.7513 56.8327C43.7244 56.9862 43.7869 57.0472 43.9657 57.0384C44.0738 57.0296 44.1796 57.0023 44.2784 56.9578C44.3793 56.9155 44.4778 56.8678 44.5735 56.8147L44.5781 56.8136ZM46.6694 55.6529L46.7845 55.796C46.8418 55.7415 46.8901 55.6782 46.9276 55.6084C46.9364 55.5816 46.8739 55.5102 46.8294 55.501C46.7132 55.4842 46.6973 55.5449 46.6741 55.6336L46.6686 55.6545L46.6694 55.6529ZM50.8518 55.9567L50.825 55.8854C50.7547 55.8854 50.6844 55.8843 50.6109 55.8832C50.4693 55.881 50.3157 55.8787 50.127 55.8835C50.0621 55.8835 49.9958 55.8884 49.9292 55.8933C49.84 55.8999 49.7502 55.9065 49.6624 55.9015C49.531 55.8949 49.4046 55.952 49.3228 56.055C49.2571 56.1188 49.192 56.183 49.1269 56.2472C48.935 56.4365 48.7431 56.6256 48.5362 56.8059C48.2317 57.0715 47.876 57.2719 47.491 57.3948C47.0938 57.5595 46.6355 57.4302 46.3829 57.0821C46.142 56.7487 45.9582 56.3776 45.8389 55.984C45.8044 55.9123 45.7557 55.8485 45.6957 55.7964L45.2936 55.3674C45.2755 55.3412 45.2661 55.3099 45.2668 55.278C45.2837 55.22 45.3046 55.1632 45.3293 55.108C45.3472 55.1147 45.3662 55.1209 45.3852 55.1271C45.4421 55.1456 45.499 55.1641 45.5258 55.1974C45.5824 55.2655 45.6278 55.3396 45.6737 55.4145C45.7062 55.4675 45.7389 55.5208 45.7759 55.5727C45.8274 55.6528 45.9023 55.7152 45.9904 55.7515C46.3538 55.8678 46.7361 55.9132 47.1166 55.8854C47.3607 55.8609 47.606 55.8498 47.8513 55.852C48.227 55.8251 48.5934 55.8075 48.9687 55.7895C49.1093 55.7864 49.2496 55.7745 49.3888 55.7538C49.4597 55.7416 49.5235 55.7032 49.5676 55.6463C49.68 55.5114 49.7878 55.3743 49.8958 55.2372C50.0023 55.1018 50.1089 54.9664 50.2199 54.8329C50.2391 54.8024 50.2782 54.7886 50.3181 54.7744C50.337 54.7677 50.3561 54.761 50.3734 54.7523C50.3799 54.7716 50.391 54.7909 50.4021 54.8102C50.4218 54.8444 50.4415 54.8788 50.4359 54.9131C50.4182 55.0282 50.3377 55.1011 50.2126 55.1817C50.0159 55.3381 49.8335 55.5115 49.6674 55.7001L49.703 55.7357H49.9444C50.2391 55.7357 50.5429 55.7357 50.838 55.7446C50.8989 55.7445 50.9582 55.7632 51.008 55.7983C51.1062 55.8505 51.115 55.9414 51.0168 56.0039C50.9383 56.0538 50.857 56.1009 50.7758 56.1479C50.6532 56.2189 50.5307 56.2898 50.4179 56.3704C50.0572 56.6058 49.7296 56.8882 49.4437 57.2103L49.4705 57.246C49.5255 57.229 49.5793 57.2081 49.6313 57.1834C49.8011 57.0806 49.9686 56.9734 50.1362 56.8661C50.3038 56.7589 50.4714 56.6516 50.6412 56.5488C50.6885 56.5215 50.7406 56.5033 50.7946 56.4951C50.8372 56.4939 50.8775 56.5141 50.9021 56.5488C50.9201 56.5668 50.8933 56.6201 50.8664 56.6382C50.7924 56.6963 50.7168 56.7511 50.6417 56.8055C50.5443 56.8762 50.4477 56.9462 50.3569 57.0219C50.2797 57.087 50.2146 57.1561 50.1481 57.2265C50.1144 57.2623 50.0803 57.2984 50.0441 57.3346L50.0798 57.3883C50.1557 57.3821 50.2307 57.3672 50.3031 57.3438C50.6891 57.1429 51.0676 56.9417 51.4456 56.7407L51.572 56.6735C51.6169 56.6397 51.6698 56.6182 51.7255 56.6109C51.7904 56.6193 51.8536 56.6374 51.9131 56.6647C51.9041 56.6795 51.8971 56.6964 51.8901 56.7133C51.8762 56.747 51.8622 56.7807 51.8325 56.7986C51.7517 56.8531 51.6658 56.9029 51.5799 56.9527C51.4964 57.0011 51.4129 57.0495 51.3337 57.1025C51.3008 57.1232 51.2874 57.1671 51.2754 57.2067C51.2711 57.2206 51.2671 57.234 51.2624 57.2456C51.3202 57.2639 51.3805 57.2729 51.4412 57.2724C51.9765 57.1563 52.5128 57.0312 53.05 56.8972C53.2622 56.8427 53.4678 56.7783 53.6728 56.7141C53.8045 56.6729 53.9359 56.6317 54.0687 56.5933C54.1346 56.5815 54.2025 56.5877 54.2652 56.6113C54.292 56.6201 54.3277 56.7007 54.3189 56.7095C54.2712 56.7469 54.2165 56.7743 54.1581 56.7901C54.1051 56.806 54.0491 56.8156 53.9861 56.8264C53.9429 56.8338 53.8964 56.8417 53.8454 56.8527L54.0418 56.9678C53.9905 57.0225 53.9131 57.0484 53.8351 57.0745C53.709 57.1167 53.5812 57.1594 53.5592 57.3254C53.6851 57.3268 53.8109 57.3148 53.9344 57.2897C54.3634 57.1554 54.7923 57.0127 55.2125 56.8695C55.3023 56.835 55.3917 56.7989 55.4811 56.7544C55.511 56.7373 55.5448 56.7281 55.5793 56.7276C55.6424 56.7291 55.7003 56.7629 55.7328 56.817C55.7835 56.8882 55.72 56.9083 55.6604 56.9271C55.6453 56.9319 55.6304 56.9366 55.6177 56.9421L55.6086 56.9461C55.4326 57.0246 55.2502 57.106 55.1887 57.2905C55.1526 57.4056 55.1795 57.4413 55.3226 57.4056C55.4808 57.3674 55.6323 57.3193 55.7832 57.2713C55.8797 57.2407 55.9759 57.2101 56.0735 57.1823C56.1354 57.1641 56.1984 57.1489 56.2619 57.1337C56.3542 57.1114 56.4472 57.089 56.5381 57.0572C56.6041 57.0317 56.6675 56.9949 56.731 56.958C56.7794 56.9298 56.8279 56.9016 56.8777 56.8784C56.9451 56.847 57.0179 56.8287 57.0922 56.8247C57.1415 56.8329 57.1826 56.867 57.1996 56.9141C57.2085 56.9409 57.1459 56.9946 57.1102 57.0035C56.9624 57.0386 56.8266 57.1127 56.7169 57.2179L56.7258 57.2625C56.785 57.2714 56.8453 57.2714 56.9046 57.2625C57.0804 57.2142 57.2549 57.1645 57.4286 57.1149C57.7051 57.0361 57.9795 56.9579 58.254 56.8872C58.3367 56.8854 58.4188 56.9005 58.4954 56.9317C58.4545 56.9831 58.4062 57.0282 58.3522 57.0656C58.2591 57.1124 58.1635 57.1591 58.068 57.2057C57.9803 57.2486 57.8926 57.2914 57.807 57.3342C57.7768 57.3457 57.7588 57.3742 57.7391 57.4052C57.7299 57.4198 57.7202 57.435 57.7088 57.4493L57.7357 57.4938C57.7902 57.4829 57.8462 57.4749 57.9025 57.467C57.9846 57.4553 58.0672 57.4436 58.1466 57.4225L59.7554 56.9935C59.8083 56.9796 59.8612 56.9649 59.9144 56.95C60.0319 56.9173 60.1507 56.8841 60.2738 56.8596C60.3439 56.8495 60.415 56.869 60.4702 56.9133C60.5328 56.985 60.4526 57.0295 60.372 57.0564C60.2676 57.0983 60.1601 57.1371 60.0514 57.1763C59.974 57.2042 59.896 57.2324 59.818 57.2621C59.7556 57.2894 59.6957 57.3223 59.6392 57.3603C59.7282 57.3965 59.8245 57.3999 59.9187 57.4031C60.0799 57.4087 60.2349 57.4141 60.3363 57.5836C60.2622 57.5925 60.1872 57.5925 60.113 57.5836C59.8733 57.5113 59.6154 57.5305 59.389 57.6373C59.3846 57.6373 59.3801 57.6395 59.3756 57.6417C59.371 57.6439 59.3665 57.6461 59.3621 57.6461C59.335 57.6484 59.3056 57.6552 59.2758 57.6621C59.1878 57.6826 59.0961 57.7039 59.0494 57.6105C59.0105 57.5132 59.0888 57.491 59.1655 57.4692C59.1947 57.461 59.2237 57.4528 59.2459 57.4405C59.3464 57.3877 59.4503 57.3379 59.5554 57.2874C59.6275 57.2528 59.7003 57.2179 59.7731 57.1815L59.7462 57.1278C59.6769 57.1346 59.6081 57.1465 59.5405 57.1635C59.2556 57.2442 58.9734 57.327 58.6909 57.41C58.4419 57.483 58.1926 57.5562 57.9409 57.6281C57.8896 57.6473 57.8344 57.6535 57.7802 57.6461C57.6936 57.6345 57.6126 57.5971 57.5476 57.5387C57.5246 57.5018 57.5675 57.4295 57.6026 57.3702C57.6084 57.3605 57.614 57.3511 57.619 57.3423C57.6598 57.306 57.6906 57.2599 57.7084 57.2084L57.5476 57.2352C57.4314 57.2621 57.3152 57.2933 57.1991 57.3246C57.0829 57.3559 56.9667 57.3872 56.8505 57.414C56.7074 57.4497 56.5911 57.4228 56.5466 57.2889C56.5182 57.2087 56.4645 57.2176 56.3931 57.2444C56.3394 57.2639 56.2854 57.2837 56.2311 57.3036C55.9874 57.3929 55.7388 57.484 55.4903 57.5571C55.3758 57.5823 55.2575 57.5853 55.1419 57.566C55.026 57.5571 54.9723 57.4766 55.008 57.3783C55.0371 57.3081 55.0698 57.2394 55.1062 57.1727C55.1173 57.1411 55.1234 57.1079 55.1242 57.0744C55.0882 57.0729 55.0521 57.0759 55.0168 57.0833C54.893 57.1266 54.7705 57.1713 54.6483 57.2158C54.4441 57.2903 54.2407 57.3644 54.0338 57.4317C53.9307 57.4704 53.8219 57.4916 53.7119 57.4942C53.6261 57.4933 53.5436 57.4615 53.4793 57.4048C53.3988 57.3154 53.3362 57.3246 53.238 57.3691C53.1595 57.4075 53.0748 57.4316 52.9878 57.4405C52.9119 57.4318 52.8403 57.4007 52.7822 57.3511C52.7734 57.3419 52.8182 57.2525 52.8628 57.208C52.9158 57.1646 52.9727 57.126 53.0327 57.0929L53.0147 57.0572C52.9504 57.0754 52.8862 57.0948 52.8219 57.1142C52.6986 57.1514 52.5752 57.1887 52.4518 57.2179C52.3662 57.2381 52.2799 57.2589 52.193 57.2799C51.9717 57.3333 51.7471 57.3875 51.5225 57.4324C51.2282 57.495 51.1476 57.4236 51.1388 57.1197C51.0765 57.1514 51.0209 57.1826 50.9674 57.2125C50.9136 57.2427 50.862 57.2716 50.8081 57.2985C50.7187 57.3432 50.6271 57.3834 50.5355 57.4236C50.4439 57.4638 50.3522 57.504 50.2628 57.5487C50.1662 57.6024 50.0484 57.5936 50.0127 57.513C49.9859 57.4318 49.9859 57.3441 50.0127 57.2628C50.0187 57.2208 50.0585 57.1842 50.0969 57.1489C50.1076 57.1391 50.1181 57.1294 50.1278 57.1197L50.0921 57.084C50.0608 57.1019 50.0296 57.1175 49.9983 57.1331C49.967 57.1488 49.9357 57.1644 49.9045 57.1823C49.847 57.2141 49.7918 57.2459 49.7373 57.2774C49.6392 57.334 49.5431 57.3895 49.4398 57.4413C49.3812 57.4607 49.3174 57.4576 49.261 57.4324C49.2341 57.3885 49.2341 57.3332 49.261 57.2893C49.5644 56.8982 49.9191 56.5498 50.3154 56.2533C50.4139 56.1968 50.5154 56.1456 50.6193 56.0999C50.6983 56.055 50.7712 56.0105 50.8518 55.9567Z" fill="white"/>
<path fill-rule="evenodd" clip-rule="evenodd" d="M50.199 55.8851H50.8244L50.8758 55.9569C50.8383 55.9782 50.8022 56.0014 50.766 56.0248C50.7259 56.0506 50.6857 56.0766 50.6433 56.1C50.5377 56.1421 50.436 56.1934 50.3394 56.2534C49.9431 56.5499 49.5884 56.8983 49.285 57.2894C49.2581 57.3333 49.2581 57.3886 49.285 57.4325C49.3403 57.4621 49.4059 57.4653 49.4638 57.4414C49.6077 57.3696 49.7433 57.2905 49.8802 57.2105C49.8963 57.2012 49.9124 57.1918 49.9285 57.1824C49.9598 57.1645 49.991 57.1489 50.0223 57.1333C50.0536 57.1176 50.0848 57.102 50.1161 57.0841L50.1518 57.1198C50.14 57.1351 50.1239 57.1504 50.1074 57.166C50.0756 57.1962 50.0425 57.2276 50.0367 57.2629C50.0099 57.3442 50.0099 57.4319 50.0367 57.5131C50.0724 57.5845 50.1886 57.5933 50.2869 57.5488C50.3763 57.5041 50.4679 57.4639 50.5595 57.4237C50.6511 57.3835 50.7427 57.3433 50.8321 57.2986C50.9395 57.2449 51.0377 57.1912 51.1628 57.1198C51.1628 57.4237 51.2426 57.4863 51.5465 57.4325C51.84 57.3821 52.1256 57.3084 52.4181 57.2329L52.4758 57.2181C52.602 57.1874 52.7281 57.1496 52.8542 57.1118C52.9157 57.0933 52.9772 57.0749 53.0387 57.0573L53.0567 57.093C52.9967 57.1261 52.9398 57.1647 52.8868 57.2081C52.8419 57.253 52.7882 57.3332 52.8062 57.3512C52.8624 57.4038 52.935 57.4354 53.0118 57.4406C53.0983 57.4293 53.1826 57.4053 53.262 57.3692C53.3602 57.3243 53.4228 57.3155 53.5034 57.4049C53.5685 57.4602 53.6505 57.4918 53.7359 57.4943C53.8458 57.4908 53.9545 57.4697 54.0578 57.4318C54.211 57.3781 54.3622 57.3241 54.5133 57.2701C54.6884 57.2076 54.8633 57.1452 55.0408 57.0834C55.0761 57.076 55.1122 57.073 55.1483 57.0746C55.1458 57.1078 55.1398 57.1408 55.1302 57.1728C55.1167 57.2088 55.0988 57.2425 55.0809 57.2762C55.0631 57.3096 55.0454 57.3429 55.032 57.3784C54.9959 57.4767 55.0508 57.548 55.1659 57.5661C55.2812 57.5899 55.4004 57.5869 55.5143 57.5572C55.7614 57.4774 56.0027 57.3916 56.2477 57.3046C56.3039 57.2846 56.3604 57.2646 56.4171 57.2445C56.49 57.2177 56.5437 57.2085 56.5706 57.289C56.6155 57.4141 56.7314 57.4498 56.8745 57.4141C56.9907 57.3873 57.1069 57.356 57.223 57.3247C57.3392 57.2935 57.4554 57.2622 57.5717 57.2353C57.6244 57.222 57.6782 57.2131 57.7324 57.2085C57.7212 57.2476 57.6961 57.2761 57.6745 57.3008C57.6615 57.3156 57.6498 57.329 57.643 57.3424C57.6355 57.3556 57.6263 57.3697 57.6169 57.3841C57.5819 57.4377 57.5435 57.4965 57.5717 57.5388C57.6355 57.5989 57.7171 57.6366 57.8042 57.6463C57.8584 57.6536 57.9137 57.6474 57.9649 57.6282C58.2499 57.5475 58.5321 57.4646 58.8146 57.3817C59.0637 57.3086 59.3129 57.2355 59.5646 57.1636C59.6321 57.1466 59.7009 57.1347 59.7702 57.1279L59.7971 57.1816C59.6183 57.2618 59.4399 57.3512 59.2699 57.4406C59.2473 57.4531 59.2173 57.4614 59.1871 57.4698C59.1084 57.4916 59.0282 57.5138 59.0734 57.6106C59.1197 57.7096 59.2097 57.6865 59.2969 57.6642C59.3277 57.6563 59.3581 57.6486 59.3861 57.6463C59.4038 57.6463 59.413 57.6463 59.4218 57.6374C59.6482 57.5306 59.9062 57.5114 60.1459 57.5837C60.22 57.5926 60.295 57.5926 60.3692 57.5837C60.2662 57.4114 60.107 57.4054 59.9422 57.3992C59.851 57.3958 59.758 57.3923 59.672 57.3604C59.7286 57.3224 59.7884 57.2895 59.8508 57.2622C59.9552 57.2203 60.0627 57.1815 60.1714 57.1423C60.2488 57.1143 60.3268 57.0862 60.4048 57.0565C60.4762 57.0285 60.5656 56.9848 60.5031 56.9134C60.4478 56.8691 60.3767 56.8496 60.3066 56.8597C60.1835 56.8843 60.0648 56.9174 59.9472 56.9501C59.8941 56.965 59.8412 56.9797 59.7883 56.9936C59.6227 57.0379 59.4569 57.0831 59.291 57.1283C58.921 57.2291 58.5502 57.3301 58.1794 57.4226C58.1 57.4437 58.0174 57.4554 57.9354 57.4671C57.879 57.475 57.823 57.483 57.7685 57.4939L57.7416 57.4494C57.7562 57.4354 57.7677 57.4181 57.7794 57.4008C57.7964 57.3756 57.8135 57.3502 57.8399 57.3343C57.9331 57.2875 58.0287 57.2408 58.1242 57.1941C58.2119 57.1513 58.2995 57.1085 58.3851 57.0657C58.441 57.0307 58.4896 56.9853 58.5282 56.9318C58.4517 56.9006 58.3695 56.8855 58.2869 56.8873C57.9704 56.968 57.6584 57.0572 57.3477 57.1461C57.2108 57.1852 57.0741 57.2243 56.9374 57.2626C56.8781 57.2715 56.8179 57.2715 56.7586 57.2626L56.7498 57.2181C56.8581 57.111 56.9944 57.0367 57.1431 57.0036C57.188 56.9947 57.2413 56.941 57.2325 56.9142C57.2194 56.8681 57.1813 56.8335 57.1342 56.8248C57.0595 56.8256 56.986 56.844 56.9198 56.8785C56.8686 56.9021 56.8189 56.931 56.7696 56.9597C56.7069 56.9962 56.6446 57.0324 56.5802 57.0573C56.489 57.0895 56.3951 57.1121 56.3014 57.1346C56.2391 57.1496 56.1769 57.1646 56.1155 57.1824C56.006 57.2127 55.8971 57.247 55.7885 57.2813C55.6471 57.3259 55.5061 57.3703 55.3647 57.4057C55.2307 57.4513 55.2039 57.4057 55.2396 57.2906C55.2932 57.1034 55.48 57.0231 55.6672 56.9427L55.6685 56.9422C55.6811 56.9367 55.6961 56.9319 55.7113 56.9271C55.7701 56.9083 55.8334 56.8881 55.7836 56.8171C55.7502 56.7651 55.6919 56.7345 55.6302 56.7365C55.5955 56.7358 55.5614 56.7452 55.5319 56.7634C55.4422 56.8071 55.3528 56.8428 55.2634 56.8785C55.1796 56.9064 55.0961 56.9344 55.0129 56.9623C54.6699 57.0772 54.3305 57.1909 53.9853 57.2986C53.8612 57.3194 53.7358 57.3313 53.61 57.3343C53.632 57.1747 53.7591 57.1303 53.8847 57.0864C53.9633 57.059 54.0412 57.0317 54.0927 56.9767L53.8963 56.8616C53.9472 56.8507 53.9938 56.8427 54.037 56.8353C54.0999 56.8246 54.156 56.815 54.209 56.7991C54.2667 56.7813 54.321 56.7541 54.3697 56.7185C54.3874 56.7097 54.3517 56.6291 54.316 56.6203C54.2544 56.5923 54.1852 56.586 54.1196 56.6022C53.9868 56.6406 53.8554 56.6818 53.7237 56.723C53.5186 56.7873 53.313 56.8517 53.1009 56.9061C52.7458 56.9962 52.3832 57.0784 52.0203 57.1606C51.844 57.2005 51.6677 57.2405 51.492 57.2814C51.4314 57.2819 51.3711 57.2728 51.3132 57.2545C51.3226 57.2358 51.3287 57.2161 51.3345 57.1972C51.3455 57.1616 51.3556 57.1289 51.3846 57.1114C51.4654 57.0569 51.5513 57.0071 51.6373 56.9572C51.7207 56.9088 51.8042 56.8604 51.8834 56.8075C51.9212 56.7687 51.9515 56.7233 51.9728 56.6736C51.9129 56.6475 51.8498 56.6294 51.7852 56.6199C51.7306 56.6312 51.6786 56.6524 51.6317 56.6824C51.5128 56.7457 51.3939 56.8097 51.2747 56.8738C50.9732 57.036 50.6703 57.199 50.3628 57.3527C50.2918 57.3812 50.2161 57.3963 50.1395 57.3972L50.1038 57.3435C50.2013 57.2327 50.3057 57.1282 50.4165 57.0308C50.5062 56.9565 50.6012 56.8876 50.6971 56.818C50.7736 56.7625 50.8507 56.7065 50.9261 56.6471C50.9528 56.6256 50.9663 56.5917 50.9618 56.5577C50.9372 56.523 50.8969 56.5028 50.8543 56.504C50.8003 56.5122 50.7482 56.5304 50.7009 56.5577C50.6058 56.6178 50.5114 56.6778 50.4174 56.7377C50.1754 56.8916 49.9355 57.0443 49.691 57.1923C49.639 57.217 49.5852 57.2379 49.5302 57.2549L49.5034 57.2192C49.7873 56.8951 50.1152 56.6124 50.4776 56.3793C50.59 56.2992 50.7119 56.2286 50.8338 56.158C50.9157 56.1106 50.9975 56.0631 51.0765 56.0129C51.1828 55.9503 51.1751 55.8609 51.0677 55.8072C51.0144 55.78 50.9569 55.7618 50.8977 55.7535C50.603 55.7447 50.2991 55.7447 50.0041 55.7447H49.7627L49.7359 55.7002C49.8997 55.5095 50.0824 55.3358 50.2811 55.1818C50.4062 55.1008 50.4864 55.0283 50.5044 54.9132C50.511 54.8732 50.4876 54.8329 50.4642 54.7926C50.4564 54.7792 50.4486 54.7658 50.4419 54.7524C50.4252 54.7605 50.4072 54.7678 50.3893 54.775C50.3477 54.7918 50.3072 54.8081 50.2884 54.833C50.176 54.9679 50.0682 55.105 49.9603 55.2421C49.8537 55.3775 49.7471 55.513 49.6361 55.6464C49.5952 55.704 49.5348 55.7449 49.4661 55.7616C49.327 55.7823 49.1867 55.7942 49.046 55.7972L47.9287 55.851C47.8292 55.858 47.7297 55.8594 47.6308 55.8608C47.4809 55.863 47.3324 55.8651 47.187 55.8866C46.8065 55.915 46.4241 55.8696 46.0609 55.7527C45.9727 55.7165 45.8979 55.6541 45.8464 55.5739C45.8061 55.5215 45.7713 55.4635 45.7362 55.4051C45.6934 55.3338 45.6502 55.2619 45.5962 55.1987C45.5714 55.1675 45.5163 55.1494 45.4641 55.1323C45.4412 55.1248 45.4188 55.1175 45.3998 55.1093C45.3736 55.1638 45.3526 55.2207 45.3372 55.2793C45.3322 55.3116 45.3421 55.3444 45.3641 55.3687C45.4519 55.4686 45.5402 55.5607 45.6285 55.6528C45.6744 55.7007 45.7203 55.7486 45.7662 55.7976C45.8262 55.8498 45.8749 55.9136 45.9093 55.9852C46.0252 56.3808 46.2097 56.7529 46.4545 57.0845C46.7089 57.4299 47.1652 57.5587 47.5626 57.3972C47.9478 57.2742 48.3036 57.0735 48.6082 56.8075C48.8065 56.6348 48.9912 56.4528 49.1751 56.2716C49.2482 56.1996 49.3211 56.1277 49.3948 56.0566C49.4766 55.9537 49.603 55.8965 49.7343 55.9031C49.8211 55.9082 49.9102 55.9016 49.9992 55.895C50.0662 55.8901 50.1331 55.8851 50.199 55.8851ZM45.9984 55.9208C46.061 56.0458 46.1058 56.1264 46.1519 56.2066C46.2047 56.3005 46.2556 56.3945 46.3062 56.4878L46.3063 56.488L46.3063 56.4881C46.4096 56.6787 46.5115 56.8668 46.6254 57.0465C46.7528 57.2239 46.9612 57.325 47.1794 57.3151C47.4899 57.3129 47.7912 57.2093 48.0374 57.02C48.3188 56.8231 48.5816 56.6073 48.8463 56.39L48.8464 56.3899C48.9426 56.311 49.039 56.2318 49.1366 56.1533C49.2156 56.0802 49.2901 56.0026 49.3599 55.9208C49.1551 55.9353 48.952 55.9527 48.75 55.9701H48.75C47.8326 56.0489 46.9372 56.1258 45.9996 55.9208H45.9984ZM52.9888 57.2882C53.2666 57.2971 53.5333 57.1785 53.7128 56.9663C53.438 56.9716 53.1769 57.0877 52.9888 57.2882Z" fill="black"/>
<path d="M44.5785 56.8146C44.4837 56.8666 44.3851 56.9113 44.2835 56.9485C44.1819 56.9848 44.0772 57.0117 43.9708 57.0291C43.792 57.0379 43.7383 56.9665 43.7563 56.8234C43.7578 56.7963 43.7548 56.769 43.7475 56.7428C43.6925 56.7704 43.6357 56.7943 43.5775 56.8142C43.456 56.8594 43.3303 56.8923 43.2022 56.9124C43.0058 56.9393 42.9164 57.0732 42.8001 57.1714L42.5768 57.3859C42.5231 57.4304 42.4617 57.4665 42.4161 57.404C42.391 57.3602 42.3877 57.3073 42.4072 57.2608C42.4786 57.1803 42.586 57.1177 42.6662 57.0375C42.7199 56.975 42.7737 56.9224 42.8197 56.8587C42.8377 56.8319 42.8734 56.7962 42.9003 56.7962C43.0791 56.8142 43.0967 56.6887 43.1773 56.5997L42.9897 56.5103C43.0702 56.4478 43.1431 56.4029 43.213 56.3496C43.472 56.1888 43.5257 56.0369 43.4006 55.7955C43.374 55.747 43.3341 55.707 43.2855 55.6804C43.1963 55.626 43.1001 55.5839 42.9996 55.5553C42.6958 55.4747 42.6689 55.4302 42.4813 55.7161C42.2558 56.0559 42.0017 56.3758 41.7216 56.6722C41.364 57.0559 40.9707 57.432 40.5705 57.7896C40.2754 58.0486 39.9359 58.2811 39.6143 58.5224C38.8766 59.0696 38.0452 59.4777 37.161 59.7264C36.8629 59.817 36.5486 59.8413 36.2401 59.7978C35.8699 59.7578 35.5933 59.439 35.6059 59.0669C35.6274 58.8112 35.6658 58.5573 35.721 58.3068C35.728 58.166 35.8098 58.0398 35.9355 57.976C35.9444 58.0323 35.9444 58.0897 35.9355 58.146C35.8156 58.4652 35.7698 58.8075 35.8016 59.1471C35.8379 59.3567 35.9725 59.5363 36.1635 59.63C36.3546 59.7237 36.5789 59.7202 36.7669 59.6205C36.7905 59.6037 36.8186 59.5944 36.8475 59.5937C37.2344 59.593 37.614 59.4882 37.9464 59.2902C38.3462 59.1197 38.7312 58.9164 39.0975 58.6824C39.6982 58.3044 40.2617 57.8703 40.7804 57.3859C41.1111 57.064 41.4507 56.7425 41.7546 56.4029C41.9959 56.1343 42.2016 55.84 42.4161 55.563C42.4262 55.5404 42.4323 55.5163 42.4341 55.4916C42.4084 55.4814 42.3812 55.4753 42.3535 55.4736C41.8547 55.4916 41.3617 55.5004 40.8609 55.5273C40.5403 55.539 40.2205 55.569 39.9032 55.6171C39.0286 55.7416 38.1837 56.0232 37.4092 56.4482C37.0777 56.6545 36.7801 56.9107 36.5267 57.2079C36.5018 57.2447 36.4717 57.2778 36.4373 57.3061C36.3998 57.3164 36.3612 57.3224 36.3222 57.3241C36.3222 57.2885 36.3042 57.2436 36.3222 57.2259C36.3893 57.1363 36.4641 57.0526 36.5455 56.9757C36.9873 56.5046 37.5354 56.146 38.144 55.9298C38.647 55.734 39.1678 55.5874 39.6991 55.492C40.0828 55.4295 40.4765 55.3938 40.8698 55.3581C41.2093 55.3312 41.5581 55.3136 41.8977 55.3044C42.0646 55.3027 42.2315 55.3146 42.3965 55.3401C42.5039 55.3581 42.5841 55.3312 42.611 55.2507C42.7953 54.8936 42.9133 54.5061 42.9594 54.1069C42.9598 54.0146 42.9415 53.9233 42.9056 53.8383C42.7874 53.6392 42.5439 53.5528 42.3266 53.633C41.7338 53.7435 41.1796 54.0053 40.7178 54.3931C40.61 54.5081 40.5142 54.6339 40.432 54.7684C40.4051 54.8129 40.432 54.8835 40.4408 54.9383C40.4496 54.974 40.4853 55.0097 40.4853 55.0458C40.485 55.0889 40.4759 55.1314 40.4584 55.1709C40.4077 55.1624 40.3591 55.1442 40.3153 55.1171C40.2181 54.9809 40.2044 54.802 40.2796 54.6525C40.6431 54.1417 41.1745 53.775 41.781 53.6165C42.0379 53.5188 42.3108 53.4699 42.5856 53.4722C42.8239 53.4813 43.0311 53.6385 43.104 53.8655C43.1694 54.341 43.0512 54.8236 42.7733 55.215C42.7107 55.3401 42.7552 55.3581 42.8807 55.3757C43.1779 55.3833 43.4507 55.5417 43.6047 55.7959C43.6355 55.8629 43.6449 55.9378 43.6316 56.0104C43.6136 56.0998 43.5871 56.1892 43.6761 56.2694C43.6941 56.2874 43.6673 56.3588 43.6316 56.3845C43.5242 56.4827 43.3991 56.5721 43.292 56.6703C43.2652 56.6884 43.274 56.7329 43.2563 56.7597C43.2949 56.7612 43.3335 56.7582 43.3714 56.7509L44.2025 56.3757C44.2283 56.3539 44.259 56.3386 44.2919 56.3311C44.3496 56.3418 44.4064 56.3566 44.4619 56.3757C44.4439 56.4202 44.4262 56.4739 44.3905 56.4908C44.2566 56.5713 44.1135 56.6442 43.9796 56.7321C43.9527 56.7501 43.9527 56.7946 43.9351 56.8303C43.9796 56.8392 44.0425 56.866 44.069 56.8572C44.3507 56.7908 44.606 56.6413 44.8019 56.4282C44.8589 56.3658 44.9291 56.3169 45.0075 56.2851C45.0163 56.2763 45.1057 56.3388 45.0969 56.3476C45.0726 56.4178 45.0334 56.4818 44.9818 56.5353C44.7405 56.7345 44.6303 57.0516 44.696 57.3575C44.6876 57.4138 44.6694 57.4682 44.6422 57.5183C44.5977 57.4646 44.5271 57.4109 44.5271 57.3648C44.5252 57.2167 44.5609 57.0383 44.5785 56.8146Z" fill="black"/>
<path d="M46.6713 55.6525C46.6981 55.5631 46.707 55.4825 46.832 55.499C46.8765 55.5078 46.9395 55.5796 46.9303 55.6064C46.8928 55.6762 46.8445 55.7395 46.7871 55.7941L46.6713 55.6525Z" fill="black"/>
<path d="M46 55.9209C47.1438 56.1711 48.2254 56.0015 49.3604 55.9209C49.2906 56.0027 49.216 56.0804 49.1371 56.1534C48.7795 56.4485 48.4223 56.7524 48.0378 57.0202C47.7916 57.2094 47.4904 57.3131 47.1799 57.3152C46.9601 57.3332 46.7478 57.2304 46.6258 57.0467C46.447 56.7696 46.3039 56.4838 46.1523 56.1975C46.1074 56.1266 46.0625 56.046 46 55.9209Z" fill="white"/>
<path d="M52.9883 57.2886C53.1774 57.0896 53.4378 56.9738 53.7123 56.9667C53.5328 57.1789 53.2661 57.2975 52.9883 57.2886Z" fill="white"/>
<rect x="30.2305" y="39.1362" width="68.3131" height="9.3153" fill="white"/>
<rect x="33.3008" y="64.8438" width="12.2939" height="8.54791" rx="2" fill="white"/>
<g clip-path="url(#clip1_1487_19045)">
<path d="M21.6997 40.0675L22.0819 41.6335L22.4697 40.0675H22.8445L23.2342 41.6242L23.6405 40.0675H23.9745L23.3975 42.0547H23.0505L22.646 40.5165L22.2545 42.0547H21.9075L21.3342 40.0675H21.6997ZM24.4458 40.0675L24.828 41.6335L25.2158 40.0675H25.5906L25.9803 41.6242L26.3866 40.0675H26.7206L26.1436 42.0547H25.7966L25.3921 40.5165L25.0006 42.0547H24.6536L24.0803 40.0675H24.4458ZM27.1919 40.0675L27.5741 41.6335L27.9619 40.0675H28.3367L28.7264 41.6242L29.1327 40.0675H29.4667L28.8896 42.0547H28.5427L28.1382 40.5165L27.7467 42.0547H27.3997L26.8264 40.0675H27.1919ZM29.656 41.6502H30.0438V42.0547H29.656V41.6502ZM30.8323 41.4313C30.8422 41.5426 30.8701 41.6279 30.9158 41.6873C30.9999 41.7949 31.1459 41.8487 31.3537 41.8487C31.4774 41.8487 31.5863 41.8221 31.6803 41.7689C31.7743 41.7145 31.8213 41.631 31.8213 41.5185C31.8213 41.4331 31.7836 41.3682 31.7081 41.3236C31.6599 41.2964 31.5646 41.2649 31.4224 41.229L31.157 41.1622C30.9876 41.1201 30.8626 41.0731 30.7822 41.0212C30.6387 40.9309 30.567 40.806 30.567 40.6464C30.567 40.4584 30.6344 40.3062 30.7692 40.1899C30.9053 40.0737 31.0878 40.0155 31.3166 40.0155C31.616 40.0155 31.8318 40.1034 31.9642 40.279C32.047 40.3903 32.0872 40.5103 32.0848 40.639H31.7693C31.7632 40.5635 31.7366 40.4949 31.6896 40.433C31.6129 40.3452 31.4799 40.3013 31.2906 40.3013C31.1645 40.3013 31.0686 40.3254 31.003 40.3736C30.9387 40.4219 30.9065 40.4856 30.9065 40.5647C30.9065 40.6513 30.9492 40.7206 31.0346 40.7726C31.084 40.8035 31.157 40.8307 31.2535 40.8542L31.4743 40.908C31.7143 40.9661 31.8751 41.0224 31.9567 41.0769C32.0866 41.1622 32.1516 41.2964 32.1516 41.4795C32.1516 41.6564 32.0841 41.8091 31.9493 41.9378C31.8157 42.0664 31.6116 42.1308 31.337 42.1308C31.0414 42.1308 30.8317 42.064 30.708 41.9304C30.5855 41.7955 30.52 41.6292 30.5113 41.4313H30.8323ZM32.7898 41.5259C32.7898 41.6224 32.8251 41.6984 32.8956 41.7541C32.9661 41.8098 33.0496 41.8376 33.1461 41.8376C33.2636 41.8376 33.3774 41.8104 33.4875 41.756C33.673 41.6657 33.7658 41.5178 33.7658 41.3125V41.0435C33.725 41.0694 33.6724 41.0911 33.6081 41.1084C33.5438 41.1257 33.4807 41.1381 33.4188 41.1455L33.2166 41.1715C33.0954 41.1876 33.0045 41.2129 32.9438 41.2476C32.8412 41.3057 32.7898 41.3985 32.7898 41.5259ZM33.5988 40.8505C33.6755 40.8406 33.7269 40.8084 33.7528 40.754C33.7677 40.7243 33.7751 40.6816 33.7751 40.626C33.7751 40.5122 33.7343 40.4299 33.6526 40.3792C33.5722 40.3272 33.4566 40.3013 33.3057 40.3013C33.1312 40.3013 33.0076 40.3483 32.9346 40.4423C32.8937 40.4942 32.8672 40.5715 32.8548 40.6742H32.5431C32.5493 40.4293 32.6284 40.2592 32.7806 40.164C32.934 40.0675 33.1115 40.0192 33.3131 40.0192C33.5469 40.0192 33.7368 40.0638 33.8827 40.1528C34.0274 40.2419 34.0998 40.3804 34.0998 40.5685V41.7133C34.0998 41.7479 34.1066 41.7757 34.1202 41.7968C34.1351 41.8178 34.1654 41.8283 34.2111 41.8283C34.226 41.8283 34.2427 41.8277 34.2612 41.8265C34.2798 41.824 34.2996 41.8209 34.3206 41.8172V42.064C34.2687 42.0788 34.2291 42.0881 34.2019 42.0918C34.1746 42.0955 34.1375 42.0974 34.0905 42.0974C33.9755 42.0974 33.892 42.0565 33.84 41.9749C33.8128 41.9316 33.7937 41.8704 33.7825 41.7912C33.7145 41.8803 33.6168 41.9576 33.4894 42.0231C33.3619 42.0887 33.2215 42.1215 33.0682 42.1215C32.8839 42.1215 32.7329 42.0658 32.6154 41.9545C32.4992 41.8419 32.441 41.7015 32.441 41.5333C32.441 41.349 32.4985 41.2061 32.6136 41.1047C32.7286 41.0033 32.8795 40.9408 33.0663 40.9173L33.5988 40.8505ZM34.649 40.0675H34.9663V40.3495C35.0603 40.2332 35.1599 40.1497 35.265 40.099C35.3702 40.0483 35.4871 40.0229 35.6157 40.0229C35.8978 40.0229 36.0882 40.1213 36.1872 40.318C36.2416 40.4256 36.2688 40.5796 36.2688 40.78V42.0547H35.9293V40.8022C35.9293 40.681 35.9114 40.5833 35.8755 40.5091C35.8161 40.3854 35.7085 40.3235 35.5526 40.3235C35.4735 40.3235 35.4085 40.3316 35.3578 40.3477C35.2663 40.3749 35.1859 40.4293 35.1166 40.5109C35.0609 40.5765 35.0244 40.6445 35.0071 40.715C34.991 40.7843 34.983 40.8839 34.983 41.0138V42.0547H34.649V40.0675ZM36.8311 39.5127H37.1687V40.0675H37.486V40.3402H37.1687V41.6372C37.1687 41.7065 37.1923 41.7529 37.2393 41.7764C37.2652 41.79 37.3085 41.7968 37.3691 41.7968C37.3852 41.7968 37.4025 41.7968 37.4211 41.7968C37.4396 41.7955 37.4613 41.7937 37.486 41.7912V42.0547C37.4477 42.0658 37.4075 42.0739 37.3654 42.0788C37.3246 42.0838 37.2801 42.0862 37.2318 42.0862C37.076 42.0862 36.9702 42.0466 36.9146 41.9675C36.8589 41.8871 36.8311 41.7832 36.8311 41.6558V40.3402H36.562V40.0675H36.8311V39.5127ZM38.0779 41.5259C38.0779 41.6224 38.1132 41.6984 38.1837 41.7541C38.2542 41.8098 38.3377 41.8376 38.4342 41.8376C38.5517 41.8376 38.6655 41.8104 38.7756 41.756C38.9611 41.6657 39.0539 41.5178 39.0539 41.3125V41.0435C39.0131 41.0694 38.9605 41.0911 38.8962 41.1084C38.8319 41.1257 38.7688 41.1381 38.7069 41.1455L38.5047 41.1715C38.3835 41.1876 38.2925 41.2129 38.2319 41.2476C38.1293 41.3057 38.0779 41.3985 38.0779 41.5259ZM38.8869 40.8505C38.9636 40.8406 39.0149 40.8084 39.0409 40.754C39.0558 40.7243 39.0632 40.6816 39.0632 40.626C39.0632 40.5122 39.0224 40.4299 38.9407 40.3792C38.8603 40.3272 38.7447 40.3013 38.5938 40.3013C38.4193 40.3013 38.2956 40.3483 38.2227 40.4423C38.1818 40.4942 38.1552 40.5715 38.1429 40.6742H37.8312C37.8373 40.4293 37.9165 40.2592 38.0687 40.164C38.222 40.0675 38.3995 40.0192 38.6012 40.0192C38.835 40.0192 39.0248 40.0638 39.1708 40.1528C39.3155 40.2419 39.3879 40.3804 39.3879 40.5685V41.7133C39.3879 41.7479 39.3947 41.7757 39.4083 41.7968C39.4231 41.8178 39.4535 41.8283 39.4992 41.8283C39.5141 41.8283 39.5308 41.8277 39.5493 41.8265C39.5679 41.824 39.5877 41.8209 39.6087 41.8172V42.064C39.5567 42.0788 39.5172 42.0881 39.4899 42.0918C39.4627 42.0955 39.4256 42.0974 39.3786 42.0974C39.2636 42.0974 39.1801 42.0565 39.1281 41.9749C39.1009 41.9316 39.0817 41.8704 39.0706 41.7912C39.0026 41.8803 38.9049 41.9576 38.7774 42.0231C38.65 42.0887 38.5096 42.1215 38.3563 42.1215C38.1719 42.1215 38.021 42.0658 37.9035 41.9545C37.7872 41.8419 37.7291 41.7015 37.7291 41.5333C37.7291 41.349 37.7866 41.2061 37.9017 41.1047C38.0167 41.0033 38.1676 40.9408 38.3544 40.9173L38.8869 40.8505ZM39.9371 40.0675H40.2544V40.3495C40.3484 40.2332 40.448 40.1497 40.5531 40.099C40.6583 40.0483 40.7752 40.0229 40.9038 40.0229C41.1858 40.0229 41.3763 40.1213 41.4753 40.318C41.5297 40.4256 41.5569 40.5796 41.5569 40.78V42.0547H41.2174V40.8022C41.2174 40.681 41.1994 40.5833 41.1636 40.5091C41.1042 40.3854 40.9966 40.3235 40.8407 40.3235C40.7616 40.3235 40.6966 40.3316 40.6459 40.3477C40.5544 40.3749 40.474 40.4293 40.4047 40.5109C40.349 40.5765 40.3125 40.6445 40.2952 40.715C40.2791 40.7843 40.2711 40.8839 40.2711 41.0138V42.0547H39.9371V40.0675ZM42.2639 41.0843C42.2639 41.297 42.309 41.4752 42.3993 41.6187C42.4896 41.7621 42.6343 41.8339 42.8335 41.8339C42.9881 41.8339 43.1149 41.7677 43.2139 41.6354C43.3141 41.5018 43.3642 41.3106 43.3642 41.062C43.3642 40.8109 43.3128 40.6254 43.2102 40.5054C43.1075 40.3841 42.9807 40.3235 42.8298 40.3235C42.6616 40.3235 42.5249 40.3879 42.4197 40.5165C42.3158 40.6451 42.2639 40.8344 42.2639 41.0843ZM42.7667 40.0322C42.9188 40.0322 43.0463 40.0644 43.1489 40.1287C43.2083 40.1658 43.2757 40.2308 43.3512 40.3235V39.3197H43.6722V42.0547H43.3716V41.7782C43.2937 41.9007 43.2015 41.9891 43.0951 42.0436C42.9887 42.098 42.8669 42.1252 42.7296 42.1252C42.5082 42.1252 42.3164 42.0324 42.1544 41.8469C41.9924 41.6601 41.9113 41.4121 41.9113 41.1028C41.9113 40.8134 41.9849 40.5629 42.1321 40.3514C42.2806 40.1386 42.4921 40.0322 42.7667 40.0322ZM44.9951 40.0229C45.1361 40.0229 45.2728 40.0563 45.4052 40.1231C45.5375 40.1887 45.6383 40.2741 45.7076 40.3792C45.7744 40.4794 45.8189 40.5963 45.8412 40.7299C45.861 40.8214 45.8709 40.9674 45.8709 41.1678H44.4144C44.4205 41.3694 44.4682 41.5314 44.5572 41.6539C44.6463 41.7751 44.7842 41.8357 44.971 41.8357C45.1454 41.8357 45.2846 41.7782 45.3885 41.6632C45.4479 41.5964 45.4899 41.5191 45.5146 41.4313H45.8431C45.8344 41.5042 45.8053 41.5859 45.7559 41.6762C45.7076 41.7652 45.6532 41.8382 45.5926 41.8951C45.4911 41.9941 45.3656 42.0609 45.2159 42.0955C45.1355 42.1153 45.0446 42.1252 44.9432 42.1252C44.6958 42.1252 44.4861 42.0355 44.3142 41.8562C44.1422 41.6756 44.0563 41.4232 44.0563 41.0991C44.0563 40.78 44.1428 40.5208 44.316 40.3217C44.4892 40.1225 44.7156 40.0229 44.9951 40.0229ZM45.5276 40.9024C45.514 40.7577 45.4825 40.6421 45.433 40.5555C45.3415 40.3947 45.1887 40.3143 44.9747 40.3143C44.8213 40.3143 44.6927 40.3699 44.5888 40.4813C44.4849 40.5913 44.4298 40.7317 44.4236 40.9024H45.5276ZM46.2921 40.0675H46.6094V40.4107C46.6354 40.3439 46.6991 40.2629 46.8005 40.1677C46.9019 40.0712 47.0188 40.0229 47.1512 40.0229C47.1574 40.0229 47.1679 40.0236 47.1827 40.0248C47.1976 40.026 47.2229 40.0285 47.2588 40.0322V40.3848C47.239 40.3811 47.2204 40.3786 47.2031 40.3773C47.187 40.3761 47.1691 40.3755 47.1493 40.3755C46.9811 40.3755 46.8518 40.4299 46.7615 40.5388C46.6712 40.6464 46.6261 40.7707 46.6261 40.9117V42.0547H46.2921V40.0675ZM47.615 39.5127H47.9527V40.0675H48.27V40.3402H47.9527V41.6372C47.9527 41.7065 47.9762 41.7529 48.0232 41.7764C48.0492 41.79 48.0925 41.7968 48.1531 41.7968C48.1692 41.7968 48.1865 41.7968 48.2051 41.7968C48.2236 41.7955 48.2453 41.7937 48.27 41.7912V42.0547C48.2317 42.0658 48.1915 42.0739 48.1494 42.0788C48.1086 42.0838 48.0641 42.0862 48.0158 42.0862C47.86 42.0862 47.7542 42.0466 47.6985 41.9675C47.6429 41.8871 47.615 41.7832 47.615 41.6558V40.3402H47.346V40.0675H47.615V39.5127ZM49.3944 41.8395C49.6159 41.8395 49.7674 41.756 49.849 41.589C49.9319 41.4207 49.9733 41.234 49.9733 41.0286C49.9733 40.8431 49.9437 40.6922 49.8843 40.5759C49.7903 40.3928 49.6282 40.3013 49.3981 40.3013C49.194 40.3013 49.0456 40.3792 48.9528 40.5351C48.8601 40.6909 48.8137 40.8789 48.8137 41.0991C48.8137 41.3106 48.8601 41.4869 48.9528 41.6279C49.0456 41.7689 49.1928 41.8395 49.3944 41.8395ZM49.4074 40.01C49.6635 40.01 49.8799 40.0953 50.0568 40.266C50.2337 40.4367 50.3222 40.6878 50.3222 41.0193C50.3222 41.3397 50.2442 41.6044 50.0884 41.8135C49.9325 42.0225 49.6907 42.1271 49.3629 42.1271C49.0895 42.1271 48.8724 42.0349 48.7116 41.8506C48.5508 41.665 48.4704 41.4164 48.4704 41.1047C48.4704 40.7707 48.5551 40.5048 48.7246 40.3068C48.8941 40.1089 49.1217 40.01 49.4074 40.01ZM50.7879 39.5127H51.1256V40.0675H51.4429V40.3402H51.1256V41.6372C51.1256 41.7065 51.1491 41.7529 51.1961 41.7764C51.2221 41.79 51.2654 41.7968 51.326 41.7968C51.3421 41.7968 51.3594 41.7968 51.3779 41.7968C51.3965 41.7955 51.4181 41.7937 51.4429 41.7912V42.0547C51.4045 42.0658 51.3643 42.0739 51.3223 42.0788C51.2814 42.0838 51.2369 42.0862 51.1887 42.0862C51.0328 42.0862 50.9271 42.0466 50.8714 41.9675C50.8157 41.8871 50.7879 41.7832 50.7879 41.6558V40.3402H50.5188V40.0675H50.7879V39.5127ZM51.8455 39.5127H52.1832V40.0675H52.5005V40.3402H52.1832V41.6372C52.1832 41.7065 52.2067 41.7529 52.2537 41.7764C52.2797 41.79 52.323 41.7968 52.3836 41.7968C52.3997 41.7968 52.417 41.7968 52.4355 41.7968C52.4541 41.7955 52.4757 41.7937 52.5005 41.7912V42.0547C52.4621 42.0658 52.4219 42.0739 52.3799 42.0788C52.3391 42.0838 52.2945 42.0862 52.2463 42.0862C52.0904 42.0862 51.9847 42.0466 51.929 41.9675C51.8733 41.8871 51.8455 41.7832 51.8455 41.6558V40.3402H51.5765V40.0675H51.8455V39.5127ZM53.0924 41.5259C53.0924 41.6224 53.1276 41.6984 53.1981 41.7541C53.2687 41.8098 53.3521 41.8376 53.4486 41.8376C53.5661 41.8376 53.6799 41.8104 53.79 41.756C53.9756 41.6657 54.0684 41.5178 54.0684 41.3125V41.0435C54.0275 41.0694 53.975 41.0911 53.9106 41.1084C53.8463 41.1257 53.7832 41.1381 53.7214 41.1455L53.5191 41.1715C53.3979 41.1876 53.307 41.2129 53.2464 41.2476C53.1437 41.3057 53.0924 41.3985 53.0924 41.5259ZM53.9014 40.8505C53.9781 40.8406 54.0294 40.8084 54.0554 40.754C54.0702 40.7243 54.0776 40.6816 54.0776 40.626C54.0776 40.5122 54.0368 40.4299 53.9552 40.3792C53.8748 40.3272 53.7591 40.3013 53.6082 40.3013C53.4338 40.3013 53.3101 40.3483 53.2371 40.4423C53.1963 40.4942 53.1697 40.5715 53.1573 40.6742H52.8456C52.8518 40.4293 52.931 40.2592 53.0831 40.164C53.2365 40.0675 53.414 40.0192 53.6156 40.0192C53.8494 40.0192 54.0393 40.0638 54.1853 40.1528C54.33 40.2419 54.4023 40.3804 54.4023 40.5685V41.7133C54.4023 41.7479 54.4091 41.7757 54.4228 41.7968C54.4376 41.8178 54.4679 41.8283 54.5137 41.8283C54.5285 41.8283 54.5452 41.8277 54.5638 41.8265C54.5823 41.824 54.6021 41.8209 54.6231 41.8172V42.064C54.5712 42.0788 54.5316 42.0881 54.5044 42.0918C54.4772 42.0955 54.4401 42.0974 54.3931 42.0974C54.278 42.0974 54.1945 42.0565 54.1426 41.9749C54.1154 41.9316 54.0962 41.8704 54.0851 41.7912C54.017 41.8803 53.9193 41.9576 53.7919 42.0231C53.6645 42.0887 53.5241 42.1215 53.3707 42.1215C53.1864 42.1215 53.0355 42.0658 52.918 41.9545C52.8017 41.8419 52.7436 41.7015 52.7436 41.5333C52.7436 41.349 52.8011 41.2061 52.9161 41.1047C53.0312 41.0033 53.1821 40.9408 53.3688 40.9173L53.9014 40.8505ZM55.0313 41.6502H55.4191V42.0547H55.0313V41.6502ZM56.8479 41.8302C57.0037 41.8302 57.133 41.7652 57.2356 41.6354C57.3396 41.5042 57.3915 41.3088 57.3915 41.049C57.3915 40.8907 57.3686 40.7546 57.3229 40.6408C57.2363 40.4219 57.0779 40.3124 56.8479 40.3124C56.6165 40.3124 56.4582 40.4281 56.3729 40.6594C56.3271 40.7831 56.3042 40.9402 56.3042 41.1307C56.3042 41.284 56.3271 41.4146 56.3729 41.5222C56.4594 41.7275 56.6178 41.8302 56.8479 41.8302ZM55.9832 40.0768H56.3079V40.3402C56.3747 40.2499 56.4477 40.18 56.5269 40.1306C56.6394 40.0563 56.7718 40.0192 56.9239 40.0192C57.1491 40.0192 57.3402 40.1058 57.4973 40.279C57.6544 40.4509 57.7329 40.6971 57.7329 41.0175C57.7329 41.4504 57.6197 41.7597 57.3934 41.9452C57.2499 42.0627 57.0829 42.1215 56.8924 42.1215C56.7427 42.1215 56.6172 42.0887 56.5157 42.0231C56.4563 41.986 56.3902 41.9223 56.3172 41.832V42.847H55.9832V40.0768ZM58.1912 39.5127H58.5289V40.0675H58.8462V40.3402H58.5289V41.6372C58.5289 41.7065 58.5524 41.7529 58.5994 41.7764C58.6254 41.79 58.6687 41.7968 58.7293 41.7968C58.7454 41.7968 58.7627 41.7968 58.7813 41.7968C58.7998 41.7955 58.8215 41.7937 58.8462 41.7912V42.0547C58.8078 42.0658 58.7676 42.0739 58.7256 42.0788C58.6848 42.0838 58.6402 42.0862 58.592 42.0862C58.4361 42.0862 58.3304 42.0466 58.2747 41.9675C58.219 41.8871 58.1912 41.7832 58.1912 41.6558V40.3402H57.9222V40.0675H58.1912V39.5127Z" fill="#EC0000"/>
</g>
<path fill-rule="evenodd" clip-rule="evenodd" d="M131.683 73.2524L125.666 84.6036L120.79 93.7984L120.678 93.7634L118.997 93.1681L116.361 92.2587C114.98 91.7783 113.671 91.1111 112.471 90.2756C111.269 89.4435 110.189 88.4493 109.259 87.3213C105.087 82.2589 101.654 76.6306 99.0617 70.6044C96.8446 65.459 95.264 60.0621 94.355 54.5335L94.1605 53.4111C93.7334 50.8181 92.3079 48.4955 90.1893 46.9406L88.1515 45.4454C85.5902 43.5625 83.2895 41.3487 81.3095 38.8618C81.3095 38.8618 74.8235 31.4479 72.8625 24.1008C72.6198 23.0916 72.694 22.0322 73.0749 21.0667C73.4383 20.0996 74.076 19.2595 74.9098 18.6496C75.232 18.4092 75.6102 18.2552 76.0086 18.2019C76.8502 18.0713 77.6987 18.3917 78.244 19.0459L83.8126 25.6201L83.957 25.7899L105.636 41.723C108.177 43.5972 110.401 45.8652 112.226 48.4412L122.459 61.4829L131.683 73.2524Z" fill="#FFC4B8"/>
<mask id="mask3_1487_19045" style="mask-type:luminance" maskUnits="userSpaceOnUse" x="-6" y="-3" width="154" height="155">
<path fill-rule="evenodd" clip-rule="evenodd" d="M70.8789 151.107C28.5533 151.107 -5.75 116.799 -5.75 74.4786C-5.75 32.158 28.5587 -2.15527 70.8789 -2.15527C113.199 -2.15527 147.513 32.1534 147.513 74.4786C147.513 116.8 113.204 151.107 70.8789 151.107Z" fill="white"/>
</mask>
<g mask="url(#mask3_1487_19045)">
<path fill-rule="evenodd" clip-rule="evenodd" d="M79.995 63.8099L63.4544 105.665L65.5908 103.353L69.0678 99.9898C71.729 97.4303 75.7704 96.9595 78.9486 98.8388C79.0264 98.8858 79.0823 98.9618 79.1039 99.0501C79.1255 99.1383 79.111 99.2316 79.0638 99.3092L72.5364 110.36L71.8116 112.403L70.3693 116.482C68.3401 122.216 65.2054 127.496 61.143 132.022C60.8794 132.325 60.5981 132.624 60.3211 132.923C60.3199 132.923 60.3186 132.923 60.3177 132.924C60.3168 132.925 60.3164 132.926 60.3165 132.928C59.6527 133.622 58.9582 134.356 58.2419 135.112C53.1165 140.536 46.7311 147.297 41.8022 152.519L35.002 166.919H34.9978L27.6523 182.466H27.6481L3.58212 176.413L-16.6289 171.323L5.72275 145.05L14.7687 112.651C16.5522 106.254 19.7709 100.349 24.1799 95.3844L33.0682 85.3665C33.573 84.7991 34.2662 84.4337 35.0196 84.3378C36.3871 84.1566 37.7119 84.8923 38.281 86.1489L42.1448 81.7924C42.9519 80.8841 44.1797 80.4711 45.3717 80.707C47.67 81.1597 48.7428 83.4012 47.7889 85.5376L47.1911 86.8783L52.4132 80.997C53.0625 80.252 53.961 79.7691 54.9406 79.6388C56.0902 79.5032 57.2407 79.8845 58.0818 80.6797C58.9229 81.475 59.368 82.6023 59.297 83.7577L74.4003 60.9886C75.1164 59.8866 76.428 59.3273 77.7189 59.5735C77.7891 59.5862 77.8551 59.6038 77.9211 59.6215C78.7787 59.8631 79.4938 60.4567 79.8892 61.2551C80.2846 62.0535 80.3233 62.9821 79.9957 63.8106" fill="#FFC4B8"/>
</g>
</g>
<defs>
<clipPath id="clip0_1487_19045">
<rect width="8.05755" height="6.13909" fill="white" transform="translate(73.4648 53.1787)"/>
</clipPath>
<clipPath id="clip1_1487_19045">
<rect width="14.5803" height="1.91847" fill="white" transform="translate(33.3008 41.0547)"/>
</clipPath>
</defs>
</svg>
