<svg width="160" height="160" viewBox="0 0 160 160" fill="none" xmlns="http://www.w3.org/2000/svg">
<mask id="mask0_1483_87165" style="mask-type:luminance" maskUnits="userSpaceOnUse" x="0" y="0" width="154" height="160">
<rect width="153.477" height="160" fill="white"/>
</mask>
<g mask="url(#mask0_1483_87165)">
<rect width="153.477" height="160" fill="white"/>
<mask id="mask1_1483_87165" style="mask-type:luminance" maskUnits="userSpaceOnUse" x="2" y="1" width="146" height="146">
<path fill-rule="evenodd" clip-rule="evenodd" d="M147.204 73.8292C147.204 113.884 114.733 146.355 74.6741 146.355C34.6154 146.355 2.14844 113.884 2.14844 73.8292C2.14844 33.7747 34.6196 1.29932 74.6741 1.29932C114.729 1.29932 147.204 33.7709 147.204 73.8292Z" fill="white"/>
</mask>
<g mask="url(#mask1_1483_87165)">
<path fill-rule="evenodd" clip-rule="evenodd" d="M23.3921 107.594C25.6376 113.127 24.677 119.445 20.8885 124.061L12.2696 134.551C11.254 135.781 10.4199 137.151 9.79286 138.618C9.35989 139.638 9.03554 140.702 8.82519 141.79C7.0107 151.203 13.9832 161.15 24.7999 161.15H61.4767C73.3654 161.15 160.301 134.843 155.254 124.06L151.335 76.9315C148.949 65.2618 71.7662 115.961 77.8581 111.317L87.5555 103.939L92.1982 100.403C101.913 93.0078 100.317 77.9145 89.268 72.7254C83.5387 70.0497 79.8898 64.2849 79.9231 57.9617C79.9128 53.3639 81.8675 48.9808 85.2948 45.916L89.0147 42.5553C99.0318 33.5131 94.3208 16.8862 81.0577 14.4689L51.5448 9.09109C46.4999 8.17941 41.3206 9.70323 37.5732 13.2018C33.8258 16.7003 31.9502 21.7628 32.5136 26.8584L32.9706 31.0848C33.8979 39.5249 28.1724 47.2567 19.8287 48.8317L19.0122 48.9852C14.1122 49.9128 9.90836 53.0365 7.60639 57.4604C5.30442 61.8844 5.15868 67.1197 7.21099 71.6649L10.5411 79.0502L23.1519 107.021C23.2355 107.21 23.3165 107.399 23.3936 107.591" fill="#CEDEE7"/>
</g>
<path fill-rule="evenodd" clip-rule="evenodd" d="M32.2704 75.7744C41.9316 107.136 75.1857 124.728 106.548 115.069C137.909 105.407 155.5 72.1502 145.838 40.7885C136.176 9.42798 102.921 -8.16268 71.5606 1.49832C40.1999 11.16 22.6091 44.4151 32.2704 75.7759" fill="white"/>
<path fill-rule="evenodd" clip-rule="evenodd" d="M144.515 62.3982C144.515 75.9574 139.129 88.9611 129.541 98.5486C119.952 108.136 106.948 113.522 93.389 113.521C65.1558 113.519 42.2691 90.6313 42.2695 62.3982C42.2691 34.1649 65.1557 11.2766 93.389 11.2749C106.948 11.2741 119.952 16.6599 129.541 26.2475C139.129 35.835 144.515 48.8389 144.515 62.3982Z" fill="#DEEDF2"/>
<path fill-rule="evenodd" clip-rule="evenodd" d="M50.6083 54.7797L40.6175 51.0768L39.539 56.5696C39.024 59.2046 39.3186 61.9338 40.3842 64.3983L42.3905 69.0586C42.8431 70.0787 43.7181 70.8505 44.7867 71.1721C45.9928 71.5184 47.2921 71.2363 48.2459 70.421C49.1996 69.6057 49.6805 68.3661 49.526 67.1209L48.5091 58.7862L50.6083 54.7797Z" fill="#FFC4B8"/>
<path fill-rule="evenodd" clip-rule="evenodd" d="M57.207 84.9848L84.0527 94.975C88.5552 97.0731 93.2477 98.7367 98.0663 99.943L113.773 103.899L123.841 77.8124L53.6631 63.5913L57.207 84.9848Z" fill="#FFC4B8"/>
<path fill-rule="evenodd" clip-rule="evenodd" d="M36.3626 71.2546C36.3626 71.2546 39.0849 76.1507 49.2463 80.7742C50.6732 81.4229 56.6274 84.2521 58.8684 85.5094C58.9213 85.5411 67.984 88.9925 68.1497 89.0573C68.3565 89.1376 69.2773 85.8379 69.6061 85.9638C75.9106 88.3728 77.8548 89.2508 83.9824 90.1138C94.5039 90.1138 98.4897 81.3149 98.4897 81.3149C102.986 83.4148 101.015 83.774 105.833 84.9838L96.7257 57.8616L80.7628 62.5998L79.2431 65.7966L36.3626 71.2546Z" fill="#F4A48D"/>
<mask id="mask2_1483_87165" style="mask-type:luminance" maskUnits="userSpaceOnUse" x="42" y="11" width="103" height="103">
<path fill-rule="evenodd" clip-rule="evenodd" d="M144.519 62.3982C144.519 75.9574 139.133 88.9611 129.544 98.5486C119.956 108.136 106.952 113.522 93.3929 113.521C65.1597 113.519 42.273 90.6313 42.2734 62.3982C42.273 34.1649 65.1596 11.2766 93.3929 11.2749C106.952 11.2741 119.956 16.6599 129.544 26.2475C139.133 35.835 144.519 48.8389 144.519 62.3982Z" fill="white"/>
</mask>
<g mask="url(#mask2_1483_87165)">
<path fill-rule="evenodd" clip-rule="evenodd" d="M178.84 86.0652L151.022 113.883L113.95 103.947L113.649 103.877L112.981 103.697L114.582 93.007L114.627 92.6909L116.918 77.2785L117.062 76.3376L117.099 76.0657L118.043 69.7677L124.067 71.3861L128.069 72.4505L146.549 77.4006L162.252 81.6113L162.256 81.6151L167.191 82.9421L178.84 86.0652Z" fill="#FFC4B8"/>
</g>
<rect x="27.2422" y="34.9165" width="68.3131" height="43.472" rx="9" fill="#2A8FEC"/>
<rect x="30.3125" y="52.8511" width="38.4583" height="7.45247" rx="1" fill="white"/>
<path fill-rule="evenodd" clip-rule="evenodd" d="M89.3076 69.415H88.3422C88.2353 69.4153 88.1486 69.5019 88.1484 69.6088V71.8147C88.1522 71.9199 88.24 72.0024 88.3453 71.9996H89.5048C89.9069 72.0119 90.2436 71.6972 90.2584 71.2951C90.2538 71.0218 90.0913 70.7758 89.8417 70.6643C89.9742 70.5274 90.0484 70.3443 90.0485 70.1536C90.0466 69.7456 89.7156 69.4157 89.3076 69.415ZM89.8493 71.2529C89.8487 71.4525 89.6871 71.6141 89.4875 71.6148H88.5471V69.7838H89.2888C89.4713 69.7844 89.6226 69.9252 89.6365 70.1071C89.6503 70.2891 89.522 70.4512 89.3417 70.4794V70.4832H88.9738C88.8617 70.4832 88.7708 70.5741 88.7708 70.6862C88.7708 70.7983 88.8617 70.8892 88.9738 70.8892H89.3417H89.4875C89.6875 70.8905 89.849 71.0529 89.849 71.2529H89.8493Z" fill="white"/>
<path fill-rule="evenodd" clip-rule="evenodd" d="M85.073 72.0348C85.1344 72.0413 85.1958 72.0232 85.2439 71.9844C85.2919 71.9456 85.3225 71.8894 85.3289 71.828L85.5208 70.0741L86.1965 71.7911V71.7942V71.7973V71.8003V71.8023V71.8053V71.8084V71.8103L86.1984 71.8142L86.2003 71.818V71.8199C86.2071 71.8329 86.2155 71.845 86.2253 71.856C86.2273 71.8589 86.2296 71.8616 86.2322 71.864L86.2383 71.8702L86.2444 71.8763C86.2475 71.8782 86.2494 71.8813 86.2525 71.8832C86.2637 71.8927 86.2758 71.901 86.2886 71.9082H86.2905L86.2935 71.9101L86.2974 71.912H86.2993H86.3024H86.3054H86.3085H86.3116H86.3147H86.3177C86.3422 71.9217 86.3681 71.9272 86.3945 71.9281H86.4106C86.4337 71.9273 86.4566 71.9229 86.4785 71.9151H86.4804H86.4835H86.4854H86.4873H86.4892H86.4912H86.4942H86.4973H86.5004H86.5034H86.5053L86.5092 71.9132L86.513 71.9112C86.527 71.9031 86.5399 71.8933 86.5514 71.8821L86.5552 71.879C86.5746 71.8615 86.5905 71.8406 86.602 71.8172L86.604 71.8142V71.8122L86.6059 71.8092V71.8073L86.6078 71.8034L86.6097 71.7996L86.6116 71.7957V71.7938L87.2873 70.0787L87.4761 71.8326C87.4849 71.9152 87.5371 71.9869 87.613 72.0207C87.689 72.0544 87.7772 72.045 87.8444 71.9961C87.9116 71.9472 87.9476 71.8661 87.9388 71.7835L87.714 69.7157V69.7138C87.7109 69.6894 87.7059 69.6653 87.699 69.6417C87.6916 69.6187 87.6822 69.5964 87.671 69.5749C87.6129 69.4651 87.5053 69.3902 87.3821 69.3739C87.3778 69.3733 87.3734 69.3733 87.369 69.3739C87.3494 69.3717 87.3297 69.3711 87.31 69.372C87.2864 69.3727 87.2631 69.3756 87.2401 69.3808C87.1167 69.4093 87.0154 69.4969 86.9692 69.6148L86.3937 71.0759L85.8182 69.6148C85.7636 69.4728 85.6294 69.3772 85.4774 69.372C85.4577 69.3711 85.438 69.3717 85.4183 69.3739C85.4145 69.3739 85.4103 69.3739 85.4053 69.3739C85.2564 69.3941 85.1327 69.4989 85.0884 69.6425C85.0815 69.6661 85.0765 69.6902 85.0734 69.7146V69.7165L84.8486 71.7842C84.8429 71.8477 84.8639 71.9107 84.9064 71.9582C84.9489 72.0057 85.0093 72.0334 85.073 72.0348Z" fill="white"/>
<path fill-rule="evenodd" clip-rule="evenodd" d="M85.9157 68.02H89.4768C89.7349 68.0286 89.9379 68.2437 89.9314 68.5019V68.7322C89.9396 68.8158 89.8997 68.8968 89.8285 68.9414C89.7573 68.9859 89.6669 68.9863 89.5953 68.9424C89.5237 68.8985 89.4831 68.8178 89.4906 68.7341V68.6078C89.4902 68.5279 89.4255 68.4632 89.3455 68.4628H85.7772C85.6971 68.4628 85.6322 68.5277 85.6322 68.6078V68.7306C85.6445 68.8121 85.6084 68.8934 85.5396 68.9389C85.4709 68.9844 85.3819 68.9859 85.3117 68.9427C85.2415 68.8995 85.2028 68.8194 85.2124 68.7375V68.5019C85.2051 68.2435 85.4083 68.028 85.6667 68.02H85.9157ZM87.5456 73.3879H89.8542C90.3818 73.3879 90.3868 72.8273 90.3331 72.5503C90.307 72.4674 90.2301 72.411 90.1432 72.411C90.0562 72.411 89.9794 72.4674 89.9532 72.5503V72.7663C89.953 72.865 89.8731 72.9449 89.7744 72.9451H85.347C85.2483 72.9449 85.1684 72.865 85.1682 72.7663V72.5503C85.1417 72.4678 85.0649 72.4119 84.9783 72.4119C84.8916 72.4119 84.8149 72.4678 84.7883 72.5503C84.7331 72.8273 84.74 73.3879 85.2668 73.3879H87.5456Z" fill="white"/>
<g clip-path="url(#clip0_1483_87165)">
<path d="M64.9199 53.1757C65.3839 52.9757 65.9239 52.8077 66.5399 52.6717C67.1559 52.5277 67.7439 52.4517 68.3039 52.4437V61.1797H67.2719V53.4997C66.8719 53.5637 66.4519 53.6557 66.0119 53.7757C65.5799 53.8877 65.1879 54.0077 64.8359 54.1357C64.8359 53.8157 64.8639 53.4957 64.9199 53.1757ZM76.4551 60.2317C76.4391 60.6077 76.4031 60.9237 76.3471 61.1797H71.3791V60.8197C71.3791 60.3157 71.4831 59.8597 71.6911 59.4517C71.9071 59.0437 72.1831 58.6797 72.5191 58.3597C72.8551 58.0397 73.2871 57.6757 73.8151 57.2677C74.2951 56.8997 74.6551 56.5357 74.8951 56.1757C75.1351 55.8077 75.2551 55.3957 75.2551 54.9397C75.2551 54.4277 75.0951 54.0397 74.7751 53.7757C74.4551 53.5037 73.9791 53.3677 73.3471 53.3677C73.0351 53.3677 72.7191 53.4077 72.3991 53.4877C72.0791 53.5597 71.7791 53.6677 71.4991 53.8117C71.4991 53.4277 71.5231 53.1077 71.5711 52.8517C72.1391 52.5797 72.7791 52.4437 73.4911 52.4437C74.1311 52.4437 74.6591 52.5477 75.0751 52.7557C75.4991 52.9557 75.8111 53.2397 76.0111 53.6077C76.2111 53.9677 76.3111 54.3917 76.3111 54.8797C76.3111 55.5037 76.1511 56.0637 75.8311 56.5597C75.5191 57.0477 75.0271 57.5437 74.3551 58.0477C73.9471 58.3597 73.6271 58.6157 73.3951 58.8157C73.1631 59.0157 72.9631 59.2317 72.7951 59.4637C72.6271 59.6957 72.5111 59.9517 72.4471 60.2317H76.4551ZM81.6783 56.7157C82.8543 57.0037 83.4423 57.6917 83.4423 58.7797C83.4423 59.3237 83.3103 59.7877 83.0463 60.1717C82.7903 60.5557 82.4023 60.8517 81.8823 61.0597C81.3703 61.2597 80.7423 61.3597 79.9983 61.3597C79.3983 61.3597 78.8143 61.2917 78.2463 61.1557C78.2463 61.0117 78.2583 60.8557 78.2823 60.6877C78.3063 60.5197 78.3343 60.3717 78.3663 60.2437C78.5983 60.2997 78.8543 60.3477 79.1343 60.3877C79.4143 60.4197 79.6783 60.4357 79.9263 60.4357C80.7503 60.4357 81.3623 60.2997 81.7623 60.0277C82.1703 59.7477 82.3743 59.3277 82.3743 58.7677C82.3743 58.2397 82.1863 57.8517 81.8103 57.6037C81.4343 57.3477 80.8423 57.2197 80.0343 57.2197H79.0383V56.3077H79.9623C80.6503 56.3077 81.1823 56.1797 81.5583 55.9237C81.9423 55.6597 82.1343 55.2797 82.1343 54.7837C82.1343 54.3597 81.9743 54.0197 81.6543 53.7637C81.3343 53.4997 80.8503 53.3677 80.2023 53.3677C79.8823 53.3677 79.5623 53.4037 79.2423 53.4757C78.9303 53.5397 78.6303 53.6317 78.3423 53.7517C78.3423 53.6317 78.3503 53.4837 78.3663 53.3077C78.3823 53.1317 78.4023 52.9677 78.4263 52.8157C78.6823 52.6957 78.9703 52.6037 79.2903 52.5397C79.6183 52.4757 79.9583 52.4437 80.3103 52.4437C80.9183 52.4437 81.4343 52.5357 81.8583 52.7197C82.2823 52.8957 82.6023 53.1477 82.8183 53.4757C83.0343 53.7957 83.1423 54.1717 83.1423 54.6037C83.1423 55.0997 83.0063 55.5317 82.7343 55.8997C82.4623 56.2677 82.1103 56.5397 81.6783 56.7157Z" fill="white"/>
</g>
<path fill-rule="evenodd" clip-rule="evenodd" d="M41.5859 56.8145C41.579 56.9005 41.5694 56.9799 41.5603 57.0557C41.5457 57.1768 41.5322 57.2889 41.5322 57.4043C41.5322 57.4407 41.5693 57.4771 41.6039 57.5112C41.6203 57.5273 41.6362 57.5429 41.6473 57.5577C41.6732 57.5071 41.6913 57.453 41.701 57.397C41.6367 57.0911 41.7467 56.7748 41.9869 56.5747C42.0417 56.5186 42.0843 56.4517 42.112 56.3783C42.112 56.3694 42.0314 56.3069 42.0226 56.3157C41.9442 56.3475 41.8739 56.3964 41.8169 56.4588C41.6186 56.6689 41.3643 56.8178 41.0841 56.8878C41.0603 56.8998 41.0286 56.8879 40.9969 56.8759C40.9809 56.8699 40.965 56.8639 40.9501 56.861C40.9569 56.8475 40.9612 56.8328 40.9652 56.8187L40.9652 56.8187C40.9719 56.7954 40.9781 56.7737 40.9946 56.7627C41.0468 56.7313 41.1004 56.7011 41.1543 56.6707L41.1543 56.6707C41.2387 56.6231 41.3239 56.575 41.4056 56.5214C41.4268 56.5055 41.4385 56.48 41.4501 56.4548C41.4581 56.4375 41.466 56.4203 41.477 56.4063C41.4218 56.3862 41.3649 56.3713 41.307 56.3618C41.2897 56.3618 41.2724 56.3729 41.2528 56.3855C41.2419 56.3925 41.2303 56.4 41.2176 56.4063L40.3865 56.7815H40.2714C40.2734 56.7735 40.2749 56.7654 40.2764 56.7576C40.2816 56.7306 40.2863 56.7061 40.3071 56.6921C40.3604 56.6434 40.4181 56.5967 40.4758 56.5502L40.4758 56.5501C40.5343 56.5029 40.5928 56.4557 40.6466 56.4063C40.6823 56.3794 40.7092 56.3081 40.6911 56.2912C40.6045 56.2201 40.6221 56.1421 40.6398 56.0636C40.6422 56.0531 40.6445 56.0426 40.6466 56.0322C40.656 55.9596 40.6467 55.8858 40.6198 55.8177C40.4722 55.5572 40.1963 55.3958 39.8969 55.3949C39.7718 55.3768 39.7181 55.3592 39.7895 55.2341C40.0633 54.8409 40.1812 54.3599 40.1202 53.8847C40.0425 53.6504 39.8295 53.4875 39.583 53.4737C39.3076 53.4672 39.0336 53.5159 38.7773 53.6168C38.1719 53.7777 37.6411 54.1439 37.2759 54.6528C37.201 54.8024 37.2148 54.9811 37.3116 55.1175C37.3553 55.1445 37.4039 55.1628 37.4547 55.1712C37.473 55.132 37.4822 55.0893 37.4816 55.0461C37.4816 55.0258 37.47 55.0055 37.4584 54.9852C37.4497 54.9697 37.4409 54.9542 37.437 54.9387C37.435 54.9264 37.4321 54.9133 37.4291 54.8998C37.4188 54.8538 37.4075 54.8034 37.4282 54.7687C37.5053 54.6307 37.6015 54.5044 37.7141 54.3934C38.1721 53.9988 38.7289 53.7363 39.3248 53.6341C39.5423 53.5538 39.7861 53.6403 39.9042 53.8398C39.9399 53.9214 39.9582 54.0096 39.9579 54.0988C39.9164 54.4983 39.7987 54.8862 39.6111 55.2414C39.5842 55.322 39.5036 55.3488 39.3966 55.3308C39.2315 55.306 39.0647 55.294 38.8978 55.2951C38.5582 55.3039 38.2094 55.322 37.8699 55.3488C37.4766 55.3845 37.0833 55.4202 36.6992 55.4827C36.1676 55.5797 35.6464 55.7268 35.1426 55.9221C34.534 56.1392 33.9856 56.4977 33.5426 56.968L33.5364 56.9749C33.4583 57.0615 33.3873 57.1403 33.3193 57.227C33.3074 57.2446 33.3111 57.2661 33.3151 57.2889C33.3171 57.3007 33.3193 57.313 33.3193 57.3252C33.3623 57.3249 33.4049 57.3158 33.4443 57.2984C33.4792 57.2695 33.5097 57.2358 33.5349 57.1982C33.7836 56.897 34.082 56.6407 34.4174 56.4404C35.1924 56.0167 36.0371 55.7353 36.9114 55.6094C37.2282 55.5614 37.5474 55.5316 37.8676 55.52C38.1995 55.5021 38.5289 55.4922 38.8597 55.4823L38.8597 55.4823C39.026 55.4773 39.1926 55.4723 39.3601 55.4662C39.3878 55.4679 39.415 55.474 39.4407 55.4843C39.44 55.5091 39.4339 55.5335 39.4227 55.5556C39.3893 55.6001 39.3561 55.6447 39.323 55.6891L39.3229 55.6891C39.1433 55.9302 38.9649 56.1694 38.7612 56.3955C38.549 56.6327 38.3194 56.8567 38.0875 57.0829C37.9873 57.1806 37.8868 57.2788 37.787 57.3786C37.2687 57.8681 36.7032 58.3051 36.0987 58.6831C35.7345 58.9205 35.3491 59.124 34.9476 59.2909C34.6152 59.4891 34.2354 59.594 33.8484 59.5948C33.8194 59.5954 33.7913 59.6048 33.7678 59.6216C33.5798 59.723 33.3544 59.7274 33.1626 59.6335C32.9708 59.5395 32.8361 59.3588 32.8009 59.1482C32.7691 58.8086 32.8149 58.4663 32.9348 58.1471C32.9437 58.0939 32.9437 58.0395 32.9348 57.9863C32.8066 58.0473 32.7237 58.1752 32.7203 58.3171C32.6705 58.5651 32.635 58.8158 32.614 59.068C32.5969 59.4422 32.8758 59.7643 33.2487 59.8008C33.5535 59.849 33.8653 59.8249 34.1592 59.7306C35.0384 59.4786 35.865 59.07 36.5991 58.5243C36.6857 58.4593 36.7736 58.3951 36.8615 58.3308L36.8615 58.3307C37.1005 58.156 37.3398 57.981 37.5552 57.7914C37.9573 57.4338 38.3418 57.0586 38.7063 56.6741C38.9888 56.3778 39.2455 56.0579 39.4737 55.7179C39.6428 55.4603 39.6813 55.471 39.9097 55.5346L39.9098 55.5347C39.9348 55.5416 39.9621 55.5492 39.9921 55.5572C40.0925 55.5858 40.1887 55.6279 40.2779 55.6823C40.3265 55.7089 40.3664 55.7488 40.393 55.7974C40.5181 56.0387 40.4644 56.1906 40.2054 56.3514C40.1283 56.4012 40.0538 56.4549 39.9821 56.5122L40.1697 56.6016C40.1488 56.6248 40.1327 56.6504 40.1171 56.6753C40.0725 56.7463 40.0316 56.8114 39.8927 56.798C39.8712 56.798 39.8496 56.821 39.8281 56.8439C39.8228 56.8496 39.8174 56.8552 39.8121 56.8606C39.7676 56.9231 39.7227 56.9857 39.669 57.0482C39.632 57.0852 39.5893 57.1185 39.5471 57.1513L39.5471 57.1513C39.4975 57.19 39.4486 57.2282 39.41 57.2715C39.3814 57.316 39.385 57.374 39.4188 57.4146C39.4725 57.486 39.5339 57.4503 39.5796 57.3966L39.8029 57.1909C39.8245 57.1708 39.8449 57.15 39.8652 57.1293C39.9529 57.04 40.0379 56.9534 40.205 56.9319C40.3301 56.9051 40.464 56.8694 40.5803 56.8337C40.6391 56.8154 40.696 56.7915 40.7502 56.7623C40.757 56.7855 40.76 56.8096 40.7591 56.8337C40.7322 56.9872 40.7947 57.0482 40.9735 57.0394C41.0816 57.0306 41.1874 57.0033 41.2863 56.9588C41.3871 56.9165 41.4856 56.8687 41.5813 56.8157L41.5859 56.8145ZM43.676 55.6537L43.7911 55.7968C43.8485 55.7423 43.8968 55.6789 43.9342 55.6092C43.943 55.5823 43.8805 55.511 43.836 55.5018C43.7198 55.485 43.7039 55.5457 43.6807 55.6344L43.6752 55.6552L43.676 55.6537ZM47.8585 55.9578L47.8317 55.8865C47.7614 55.8865 47.6911 55.8854 47.6176 55.8843C47.476 55.8821 47.3224 55.8797 47.1337 55.8845C47.0688 55.8845 47.0025 55.8895 46.9359 55.8944C46.8467 55.901 46.7569 55.9076 46.6691 55.9026C46.5377 55.896 46.4113 55.9531 46.3295 56.0561C46.2638 56.1199 46.1987 56.1841 46.1336 56.2483C45.9416 56.4376 45.7498 56.6267 45.5429 56.8069C45.2384 57.0726 44.8827 57.273 44.4977 57.3959C44.1005 57.5606 43.6422 57.4313 43.3896 57.0832C43.1487 56.7498 42.9649 56.3787 42.8456 55.9851C42.8111 55.9134 42.7624 55.8496 42.7024 55.7974L42.3003 55.3685C42.2822 55.3423 42.2727 55.311 42.2735 55.2791C42.2904 55.221 42.3113 55.1642 42.336 55.1091C42.3539 55.1158 42.3729 55.122 42.3919 55.1282C42.4488 55.1467 42.5057 55.1651 42.5325 55.1985C42.5891 55.2666 42.6345 55.3407 42.6804 55.4156C42.7129 55.4686 42.7456 55.5219 42.7826 55.5738C42.8341 55.6539 42.909 55.7163 42.9971 55.7526C43.3605 55.8689 43.7428 55.9143 44.1233 55.8865C44.3674 55.862 44.6127 55.8509 44.858 55.8531C45.2337 55.8262 45.6001 55.8086 45.9753 55.7905C46.116 55.7875 46.2563 55.7756 46.3955 55.7549C46.4664 55.7427 46.5302 55.7043 46.5743 55.6474C46.6866 55.5125 46.7945 55.3754 46.9024 55.2383C47.009 55.1029 47.1156 54.9674 47.2266 54.834C47.2458 54.8035 47.2849 54.7897 47.3248 54.7755C47.3437 54.7688 47.3628 54.762 47.38 54.7534C47.3866 54.7727 47.3977 54.7919 47.4088 54.8113C47.4285 54.8455 47.4482 54.8798 47.4426 54.9142C47.4249 55.0293 47.3444 55.1022 47.2193 55.1828C47.0226 55.3391 46.8401 55.5126 46.6741 55.7011L46.7097 55.7368H46.9511C47.2458 55.7368 47.5496 55.7368 47.8447 55.7456C47.9055 55.7456 47.9649 55.7643 48.0147 55.7994C48.1129 55.8515 48.1217 55.9425 48.0235 56.005C47.945 56.0549 47.8637 56.102 47.7825 56.149C47.6599 56.22 47.5374 56.2909 47.4246 56.3715C47.0639 56.6069 46.7363 56.8893 46.4504 57.2114L46.4772 57.247C46.5322 57.2301 46.586 57.2092 46.638 57.1845C46.8078 57.0817 46.9753 56.9744 47.1429 56.8672C47.3105 56.7599 47.4781 56.6527 47.6479 56.5499C47.6952 56.5226 47.7473 56.5044 47.8013 56.4962C47.8439 56.495 47.8842 56.5151 47.9088 56.5499C47.9268 56.5679 47.9 56.6212 47.8731 56.6393C47.7991 56.6974 47.7235 56.7522 47.6484 56.8066C47.5509 56.8773 47.4544 56.9473 47.3635 57.023C47.2864 57.0881 47.2213 57.1571 47.1548 57.2276C47.1211 57.2634 47.087 57.2995 47.0508 57.3357L47.0865 57.3894C47.1624 57.3832 47.2374 57.3683 47.3098 57.3449C47.6959 57.1439 48.0744 56.9427 48.4525 56.7416C48.4946 56.7193 48.5366 56.6969 48.5787 56.6746C48.6236 56.6408 48.6765 56.6192 48.7322 56.612C48.7971 56.6204 48.8603 56.6385 48.9198 56.6657C48.9108 56.6806 48.9038 56.6975 48.8968 56.7144C48.8829 56.7481 48.8689 56.7818 48.8392 56.7997C48.7584 56.8542 48.6725 56.904 48.5865 56.9538C48.5031 57.0022 48.4196 57.0506 48.3404 57.1035C48.3075 57.1242 48.2941 57.1682 48.2821 57.2077C48.2778 57.2217 48.2738 57.2351 48.2691 57.2467C48.3269 57.265 48.3872 57.274 48.4479 57.2735C48.9832 57.1574 49.5195 57.0323 50.0567 56.8983C50.2688 56.8438 50.4744 56.7794 50.6795 56.7152C50.8112 56.674 50.9426 56.6328 51.0754 56.5944C51.1413 56.5826 51.2092 56.5888 51.2718 56.6124C51.2987 56.6212 51.3344 56.7018 51.3256 56.7106C51.2779 56.748 51.2232 56.7754 51.1648 56.7912C51.1118 56.8071 51.0558 56.8167 50.9929 56.8275C50.9496 56.8349 50.9031 56.8428 50.8521 56.8538L51.0485 56.9689C50.9972 57.0236 50.9198 57.0494 50.8418 57.0755C50.7157 57.1178 50.5879 57.1605 50.5659 57.3265C50.6918 57.3279 50.8176 57.3159 50.9411 57.2908C51.3701 57.1565 51.799 57.0138 52.2192 56.8706C52.309 56.8361 52.3984 56.8 52.4878 56.7555C52.5177 56.7384 52.5515 56.7292 52.586 56.7287C52.6491 56.7302 52.707 56.7639 52.7395 56.8181C52.7902 56.8893 52.7267 56.9094 52.6671 56.9282C52.652 56.933 52.6371 56.9377 52.6244 56.9432L52.6153 56.9472C52.4393 57.0257 52.2569 57.1071 52.1954 57.2915C52.1593 57.4067 52.1862 57.4423 52.3293 57.4067C52.4875 57.3685 52.639 57.3204 52.7899 57.2724C52.8864 57.2418 52.9826 57.2112 53.0802 57.1833C53.1421 57.1652 53.2052 57.15 53.2686 57.1347C53.3609 57.1125 53.4539 57.0901 53.5448 57.0583C53.6108 57.0328 53.6742 56.996 53.7377 56.959C53.7861 56.9309 53.8346 56.9027 53.8844 56.8795C53.9518 56.8481 54.0246 56.8298 54.0989 56.8257C54.1482 56.834 54.1893 56.8681 54.2063 56.9151C54.2152 56.942 54.1526 56.9957 54.1169 57.0045C53.9691 57.0397 53.8333 57.1137 53.7236 57.219L53.7325 57.2635C53.7917 57.2725 53.852 57.2725 53.9113 57.2635C54.0871 57.2153 54.2616 57.1655 54.4353 57.116C54.7118 57.0372 54.9862 56.959 55.2607 56.8883C55.3434 56.8864 55.4255 56.9016 55.5021 56.9328C55.4612 56.9842 55.4129 57.0293 55.3589 57.0667C55.2657 57.1135 55.1701 57.1602 55.0746 57.2069C54.9869 57.2497 54.8993 57.2925 54.8137 57.3353C54.7835 57.3468 54.7654 57.3752 54.7458 57.4063C54.7365 57.4209 54.7269 57.4361 54.7155 57.4504L54.7423 57.4949C54.7969 57.484 54.8529 57.476 54.9092 57.468C54.9913 57.4564 55.0739 57.4447 55.1533 57.4235L56.7621 56.9946C56.815 56.9807 56.8679 56.966 56.9211 56.9511C57.0386 56.9184 57.1574 56.8852 57.2805 56.8607C57.3506 56.8506 57.4217 56.8701 57.4769 56.9144C57.5395 56.9861 57.4593 57.0306 57.3787 57.0575C57.2743 57.0994 57.1668 57.1382 57.0581 57.1774C56.9807 57.2053 56.9027 57.2335 56.8247 57.2632C56.7622 57.2905 56.7024 57.3234 56.6459 57.3614C56.7349 57.3976 56.8312 57.401 56.9254 57.4042C57.0866 57.4098 57.2416 57.4152 57.343 57.5847C57.2689 57.5936 57.1939 57.5936 57.1197 57.5847C56.88 57.5124 56.6221 57.5315 56.3957 57.6384C56.3913 57.6384 56.3868 57.6406 56.3823 57.6428C56.3777 57.645 56.3732 57.6472 56.3688 57.6472C56.3417 57.6495 56.3123 57.6563 56.2825 57.6632C56.1945 57.6837 56.1028 57.705 56.0561 57.6115C56.0172 57.5143 56.0955 57.4921 56.1722 57.4703C56.2014 57.4621 56.2304 57.4538 56.2526 57.4416C56.3531 57.3888 56.457 57.339 56.5621 57.2885C56.6342 57.2539 56.707 57.219 56.7798 57.1826L56.7529 57.1289C56.6836 57.1356 56.6148 57.1476 56.5472 57.1645C56.2624 57.2453 55.9802 57.3281 55.6977 57.411C55.4486 57.4841 55.1993 57.5573 54.9476 57.6292C54.8963 57.6483 54.8411 57.6545 54.7869 57.6472C54.7003 57.6356 54.6193 57.5982 54.5543 57.5398C54.5313 57.5029 54.5742 57.4306 54.6093 57.3713C54.6151 57.3616 54.6207 57.3522 54.6257 57.3433C54.6665 57.3071 54.6973 57.261 54.7151 57.2094L54.5543 57.2363C54.4381 57.2632 54.3219 57.2944 54.2057 57.3257C54.0896 57.357 53.9734 57.3882 53.8572 57.4151C53.7141 57.4508 53.5978 57.4239 53.5533 57.29C53.5249 57.2098 53.4712 57.2186 53.3998 57.2455C53.3461 57.265 53.2921 57.2848 53.2379 57.3046C52.9942 57.394 52.7456 57.4851 52.497 57.5582C52.3825 57.5834 52.2642 57.5864 52.1486 57.567C52.0327 57.5582 51.979 57.4776 52.0147 57.3794C52.0438 57.3092 52.0765 57.2405 52.1129 57.1738C52.124 57.1422 52.1301 57.109 52.1309 57.0755C52.0949 57.074 52.0588 57.077 52.0235 57.0844C51.8997 57.1277 51.7772 57.1724 51.655 57.2169C51.4508 57.2914 51.2474 57.3655 51.0405 57.4327C50.9374 57.4715 50.8286 57.4927 50.7186 57.4953C50.6328 57.4944 50.5503 57.4626 50.486 57.4059C50.4055 57.3165 50.3429 57.3257 50.2447 57.3702C50.1662 57.4086 50.0815 57.4327 49.9945 57.4416C49.9186 57.4329 49.847 57.4018 49.7889 57.3522C49.78 57.343 49.8249 57.2536 49.8694 57.2091C49.9225 57.1656 49.9794 57.1271 50.0394 57.0939L50.0214 57.0583C49.9571 57.0765 49.8929 57.0959 49.8286 57.1153C49.7053 57.1525 49.5819 57.1898 49.4585 57.219C49.3729 57.2391 49.2865 57.26 49.1997 57.281C48.9784 57.3344 48.7538 57.3886 48.5292 57.4335C48.2349 57.4961 48.1543 57.4247 48.1455 57.1208C48.0832 57.1525 48.0276 57.1837 47.9741 57.2136C47.9203 57.2438 47.8687 57.2726 47.8148 57.2996C47.7254 57.3443 47.6338 57.3845 47.5422 57.4247C47.4506 57.4649 47.3589 57.5051 47.2695 57.5498C47.1729 57.6035 47.0551 57.5947 47.0194 57.5141C46.9926 57.4329 46.9926 57.3452 47.0194 57.2639C47.0254 57.2219 47.0652 57.1852 47.1036 57.15C47.1143 57.1402 47.1248 57.1305 47.1345 57.1208L47.0988 57.0851C47.0675 57.103 47.0363 57.1186 47.005 57.1342C46.9737 57.1499 46.9424 57.1655 46.9112 57.1833C46.8537 57.2152 46.7985 57.247 46.744 57.2785C46.6459 57.3351 46.5498 57.3906 46.4465 57.4423C46.3879 57.4618 46.3241 57.4587 46.2677 57.4335C46.2408 57.3896 46.2408 57.3343 46.2677 57.2904C46.5711 56.8993 46.9258 56.5509 47.3221 56.2544C47.4206 56.1979 47.5221 56.1467 47.626 56.1009C47.705 56.0561 47.7779 56.0115 47.8585 55.9578Z" fill="white"/>
<path fill-rule="evenodd" clip-rule="evenodd" d="M47.2068 55.8861H47.8322L47.8836 55.9578C47.8461 55.9791 47.81 56.0024 47.7738 56.0258C47.7337 56.0516 47.6935 56.0776 47.6511 56.1009C47.5455 56.1431 47.4438 56.1944 47.3472 56.2544C46.9509 56.5509 46.5962 56.8993 46.2929 57.2904C46.2659 57.3343 46.2659 57.3896 46.2929 57.4335C46.3481 57.4631 46.4137 57.4663 46.4717 57.4423C46.6155 57.3706 46.7511 57.2914 46.888 57.2115C46.9041 57.2021 46.9202 57.1927 46.9363 57.1833C46.9676 57.1655 46.9988 57.1499 47.0301 57.1342C47.0614 57.1186 47.0927 57.103 47.1239 57.0851L47.1596 57.1208C47.1478 57.1361 47.1317 57.1514 47.1152 57.167C47.0834 57.1971 47.0503 57.2285 47.0445 57.2639C47.0177 57.3452 47.0177 57.4329 47.0445 57.5141C47.0802 57.5855 47.1964 57.5943 47.2947 57.5498C47.3841 57.5051 47.4757 57.4649 47.5673 57.4247C47.6589 57.3845 47.7505 57.3443 47.8399 57.2996C47.9473 57.2459 48.0456 57.1922 48.1706 57.1208C48.1706 57.4247 48.2505 57.4872 48.5543 57.4335C48.8477 57.3831 49.1334 57.3094 49.4258 57.234C49.445 57.229 49.4643 57.224 49.4836 57.219C49.6098 57.1883 49.7359 57.1505 49.862 57.1127C49.9235 57.0943 49.985 57.0759 50.0465 57.0583L50.0646 57.0939C50.0045 57.1271 49.9477 57.1656 49.8946 57.2091C49.8497 57.2539 49.796 57.3341 49.814 57.3522C49.8702 57.4048 49.9429 57.4364 50.0197 57.4416C50.1061 57.4303 50.1904 57.4063 50.2698 57.3702C50.3681 57.3253 50.4306 57.3165 50.5112 57.4059C50.5763 57.4612 50.6583 57.4927 50.7437 57.4953C50.8537 57.4918 50.9623 57.4707 51.0656 57.4327C51.2188 57.3791 51.37 57.3251 51.5211 57.2711C51.6962 57.2086 51.8711 57.1461 52.0486 57.0844C52.0839 57.077 52.12 57.074 52.1561 57.0755C52.1536 57.1088 52.1476 57.1418 52.138 57.1738C52.1245 57.2098 52.1066 57.2435 52.0887 57.2772C52.0709 57.3106 52.0532 57.3439 52.0398 57.3794C52.0037 57.4776 52.0586 57.549 52.1737 57.567C52.289 57.5909 52.4082 57.5878 52.5221 57.5582C52.7692 57.4784 53.0104 57.3927 53.2552 57.3057C53.3116 57.2857 53.3681 57.2656 53.4249 57.2455C53.4978 57.2186 53.5516 57.2094 53.5784 57.29C53.6233 57.4151 53.7392 57.4508 53.8823 57.4151C53.9986 57.3882 54.1147 57.357 54.2309 57.3257C54.347 57.2944 54.4632 57.2632 54.5795 57.2363C54.6322 57.223 54.686 57.214 54.7402 57.2094C54.729 57.2485 54.7039 57.2771 54.6823 57.3018C54.6693 57.3166 54.6576 57.33 54.6508 57.3433C54.6433 57.3566 54.6341 57.3707 54.6247 57.3851C54.5897 57.4387 54.5514 57.4975 54.5795 57.5398C54.6433 57.5999 54.7249 57.6376 54.812 57.6472C54.8662 57.6545 54.9215 57.6483 54.9728 57.6292C55.2576 57.5484 55.5398 57.4656 55.8223 57.3827C56.0714 57.3096 56.3207 57.2365 56.5724 57.1645C56.6399 57.1476 56.7087 57.1356 56.778 57.1289L56.8049 57.1826C56.6261 57.2628 56.4477 57.3522 56.2777 57.4416C56.2551 57.454 56.2251 57.4624 56.1949 57.4707C56.1162 57.4926 56.0361 57.5148 56.0812 57.6115C56.1275 57.7105 56.2175 57.6875 56.3047 57.6652C56.3355 57.6573 56.3659 57.6495 56.394 57.6472C56.4116 57.6472 56.4208 57.6472 56.4296 57.6384C56.656 57.5315 56.914 57.5124 57.1537 57.5847C57.2278 57.5936 57.3028 57.5936 57.377 57.5847C57.274 57.4123 57.1148 57.4064 56.9501 57.4002C56.8588 57.3967 56.7658 57.3932 56.6798 57.3614C56.7364 57.3234 56.7962 57.2905 56.8586 57.2632C56.963 57.2212 57.0705 57.1825 57.1792 57.1433C57.2566 57.1153 57.3346 57.0872 57.4127 57.0575C57.484 57.0295 57.5734 56.9857 57.5109 56.9144C57.4557 56.8701 57.3845 56.8506 57.3144 56.8607C57.1913 56.8852 57.0725 56.9184 56.955 56.9511C56.9019 56.966 56.849 56.9807 56.7961 56.9946C56.6305 57.0389 56.4647 57.0841 56.2987 57.1293C55.9288 57.2301 55.558 57.3311 55.1872 57.4235C55.1078 57.4447 55.0252 57.4564 54.9432 57.468C54.8869 57.476 54.8308 57.484 54.7763 57.4949L54.7494 57.4504C54.764 57.4363 54.7756 57.4191 54.7872 57.4018C54.8042 57.3766 54.8213 57.3512 54.8477 57.3353C54.9409 57.2885 55.0365 57.2418 55.132 57.1951C55.2197 57.1523 55.3073 57.1095 55.3929 57.0667C55.4488 57.0317 55.4974 56.9862 55.536 56.9328C55.4595 56.9016 55.3773 56.8864 55.2947 56.8883C54.9782 56.969 54.6662 57.0582 54.3555 57.1471C54.2186 57.1862 54.0819 57.2253 53.9452 57.2635C53.886 57.2725 53.8257 57.2725 53.7664 57.2635L53.7576 57.219C53.8659 57.112 54.0022 57.0377 54.1509 57.0045C54.1958 56.9957 54.2491 56.942 54.2403 56.9151C54.2272 56.8691 54.1891 56.8344 54.1421 56.8257C54.0673 56.8266 53.9939 56.845 53.9276 56.8795C53.8764 56.9031 53.8267 56.932 53.7774 56.9607C53.7147 56.9972 53.6524 57.0334 53.588 57.0583C53.4968 57.0905 53.4029 57.1131 53.3092 57.1356C53.2469 57.1506 53.1847 57.1656 53.1234 57.1833C53.0138 57.2137 52.9049 57.248 52.7963 57.2823C52.6549 57.3268 52.5139 57.3713 52.3725 57.4067C52.2386 57.4523 52.2117 57.4067 52.2474 57.2915C52.301 57.1044 52.4879 57.0241 52.675 56.9437L52.6764 56.9432C52.689 56.9376 52.7039 56.9329 52.7191 56.928C52.7779 56.9093 52.8412 56.8891 52.7915 56.8181C52.758 56.7661 52.6998 56.7355 52.638 56.7375C52.6033 56.7368 52.5692 56.7461 52.5398 56.7644C52.45 56.8081 52.3606 56.8438 52.2712 56.8795C52.1873 56.9074 52.1038 56.9354 52.0205 56.9633C51.6776 57.0782 51.3382 57.1919 50.9931 57.2996C50.869 57.3203 50.7436 57.3323 50.6178 57.3353C50.6398 57.1756 50.7669 57.1313 50.8925 57.0874C50.9711 57.0599 51.049 57.0327 51.1005 56.9777L50.9041 56.8626C50.9551 56.8516 51.0016 56.8437 51.0448 56.8363C51.1078 56.8255 51.1638 56.8159 51.2168 56.8C51.2745 56.7823 51.3288 56.7551 51.3776 56.7195C51.3952 56.7106 51.3595 56.6301 51.3238 56.6212C51.2622 56.5933 51.193 56.5869 51.1274 56.6032C50.9946 56.6416 50.8632 56.6828 50.7315 56.724C50.5264 56.7882 50.3208 56.8526 50.1087 56.9071C49.7536 56.9972 49.391 57.0793 49.0281 57.1616C48.8518 57.2015 48.6755 57.2414 48.4999 57.2823C48.4392 57.2829 48.3789 57.2738 48.3211 57.2555C48.3304 57.2368 48.3365 57.2171 48.3423 57.1981C48.3533 57.1626 48.3634 57.1299 48.3924 57.1124C48.4732 57.0578 48.5591 57.008 48.6451 56.9582C48.7285 56.9098 48.8121 56.8614 48.8912 56.8085C48.929 56.7697 48.9593 56.7243 48.9806 56.6746C48.9207 56.6485 48.8576 56.6304 48.793 56.6209C48.7384 56.6321 48.6864 56.6533 48.6395 56.6834C48.5206 56.7466 48.4017 56.8106 48.2826 56.8747C47.9811 57.037 47.6781 57.2 47.3706 57.3537C47.2996 57.3821 47.2239 57.3972 47.1473 57.3982L47.1117 57.3445C47.2091 57.2337 47.3135 57.1292 47.4244 57.0318C47.514 56.9575 47.609 56.8886 47.7049 56.819C47.7814 56.7635 47.8585 56.7075 47.9339 56.6481C47.9606 56.6266 47.9741 56.5927 47.9696 56.5587C47.945 56.524 47.9047 56.5038 47.8622 56.505C47.8081 56.5132 47.7561 56.5314 47.7087 56.5587C47.6136 56.6187 47.5192 56.6788 47.4251 56.7387C47.1832 56.8926 46.9433 57.0452 46.6988 57.1933C46.6468 57.218 46.5931 57.2389 46.538 57.2559L46.5112 57.2202C46.7951 56.8961 47.123 56.6134 47.4854 56.3803C47.5978 56.3002 47.7197 56.2296 47.8416 56.159C47.9235 56.1115 48.0054 56.0641 48.0843 56.0138C48.1906 55.9513 48.1829 55.8619 48.0755 55.8082C48.0222 55.781 47.9648 55.7628 47.9055 55.7545C47.6108 55.7456 47.307 55.7456 47.0119 55.7456H46.7705L46.7437 55.7011C46.9076 55.5105 47.0902 55.3368 47.2889 55.1828C47.414 55.1018 47.4942 55.0293 47.5122 54.9142C47.5189 54.8742 47.4954 54.8339 47.472 54.7936C47.4642 54.7802 47.4564 54.7668 47.4497 54.7534C47.4331 54.7615 47.415 54.7688 47.3971 54.776C47.3555 54.7927 47.315 54.809 47.2962 54.834C47.1839 54.9689 47.076 55.106 46.9681 55.2431C46.8615 55.3785 46.7549 55.514 46.6439 55.6474C46.603 55.705 46.5426 55.7459 46.474 55.7625C46.3348 55.7833 46.1945 55.7952 46.0538 55.7982L44.9365 55.8519C44.837 55.859 44.7375 55.8604 44.6386 55.8618C44.4887 55.864 44.3402 55.8661 44.1948 55.8876C43.8143 55.916 43.4319 55.8705 43.0687 55.7537C42.9806 55.7175 42.9057 55.6551 42.8542 55.5749C42.8139 55.5225 42.7791 55.4645 42.744 55.4061C42.7012 55.3348 42.658 55.2629 42.604 55.1997C42.5792 55.1684 42.5241 55.1504 42.4719 55.1333C42.449 55.1258 42.4266 55.1184 42.4076 55.1103C42.3814 55.1648 42.3604 55.2217 42.345 55.2802C42.34 55.3126 42.3499 55.3454 42.3719 55.3696C42.4597 55.4696 42.548 55.5617 42.6363 55.6538C42.6822 55.7017 42.7282 55.7496 42.774 55.7986C42.834 55.8507 42.8827 55.9146 42.9171 55.9862C43.033 56.3818 43.2175 56.7539 43.4623 57.0855C43.7167 57.4309 44.173 57.5597 44.5705 57.3982C44.9556 57.2751 45.3114 57.0744 45.616 56.8085C45.8143 56.6358 45.999 56.4538 46.1829 56.2726C46.256 56.2006 46.329 56.1287 46.4026 56.0576C46.4844 55.9546 46.6108 55.8975 46.7422 55.9041C46.8289 55.9092 46.918 55.9026 47.007 55.896C47.074 55.891 47.1409 55.8861 47.2068 55.8861ZM43.0078 55.9219C43.0704 56.047 43.1152 56.1275 43.1613 56.2077C43.2141 56.3017 43.2651 56.3957 43.3157 56.4891C43.419 56.6798 43.5209 56.8679 43.6348 57.0476C43.7622 57.2251 43.9706 57.3261 44.1888 57.3162C44.4993 57.314 44.8006 57.2104 45.0468 57.0212C45.3282 56.8242 45.591 56.6084 45.8557 56.3911C45.9519 56.3122 46.0483 56.233 46.146 56.1544C46.225 56.0813 46.2995 56.0037 46.3693 55.9219C46.1645 55.9364 45.9614 55.9539 45.7594 55.9712L45.7594 55.9712C44.8421 56.05 43.9466 56.1269 43.009 55.9219H43.0078ZM49.9961 57.2891C50.2739 57.2979 50.5406 57.1794 50.7201 56.9672C50.4452 56.9725 50.1842 57.0886 49.9961 57.2891Z" fill="black"/>
<path d="M41.5864 56.8156C41.4915 56.8676 41.3929 56.9123 41.2913 56.9495C41.1897 56.9857 41.085 57.0127 40.9786 57.0301C40.7998 57.0389 40.7461 56.9675 40.7641 56.8244C40.7656 56.7972 40.7626 56.77 40.7553 56.7438C40.7003 56.7714 40.6435 56.7952 40.5853 56.8152C40.4638 56.8604 40.3381 56.8933 40.21 56.9134C40.0136 56.9403 39.9242 57.0742 39.8079 57.1724L39.5846 57.3869C39.5309 57.4314 39.4695 57.4675 39.4239 57.4049C39.3988 57.3612 39.3955 57.3083 39.415 57.2618C39.4864 57.1812 39.5938 57.1187 39.674 57.0385C39.7277 56.976 39.7815 56.9234 39.8275 56.8597C39.8455 56.8328 39.8812 56.7972 39.9081 56.7972C40.0869 56.8152 40.1045 56.6897 40.1851 56.6007L39.9975 56.5113C40.0781 56.4488 40.151 56.4039 40.2208 56.3505C40.4798 56.1898 40.5335 56.0378 40.4084 55.7965C40.3818 55.7479 40.3419 55.708 40.2933 55.6814C40.2041 55.627 40.1079 55.5849 40.0075 55.5563C39.7036 55.4757 39.6767 55.4312 39.4891 55.7171C39.2636 56.0569 39.0095 56.3768 38.7294 56.6732C38.3718 57.0569 37.9785 57.4329 37.5783 57.7905C37.2832 58.0495 36.9437 58.282 36.6221 58.5234C35.8844 59.0706 35.053 59.4786 34.1688 59.7274C33.8707 59.8179 33.5564 59.8423 33.2479 59.7988C32.8777 59.7588 32.6011 59.44 32.6137 59.0679C32.6352 58.8122 32.6737 58.5583 32.7288 58.3078C32.7358 58.167 32.8177 58.0408 32.9433 57.977C32.9523 58.0333 32.9523 58.0907 32.9433 58.147C32.8234 58.4662 32.7776 58.8085 32.8094 59.148C32.8457 59.3577 32.9803 59.5373 33.1713 59.6309C33.3624 59.7246 33.5867 59.7211 33.7748 59.6215C33.7983 59.6047 33.8264 59.5953 33.8553 59.5947C34.2422 59.594 34.6218 59.4891 34.9542 59.2912C35.354 59.1207 35.739 58.9174 36.1053 58.6834C36.706 58.3054 37.2695 57.8713 37.7882 57.3869C38.1189 57.065 38.4585 56.7434 38.7624 56.4039C39.0037 56.1353 39.2094 55.841 39.4239 55.564C39.434 55.5414 39.4401 55.5173 39.4419 55.4926C39.4162 55.4824 39.389 55.4763 39.3613 55.4746C38.8625 55.4926 38.3695 55.5014 37.8688 55.5283C37.5481 55.54 37.2283 55.57 36.9111 55.6181C36.0364 55.7426 35.1915 56.0242 34.4171 56.4491C34.0855 56.6555 33.7879 56.9117 33.5346 57.2089C33.5096 57.2457 33.4795 57.2788 33.4452 57.3071C33.4076 57.3174 33.369 57.3234 33.33 57.3251C33.33 57.2894 33.312 57.2445 33.33 57.2269C33.3972 57.1372 33.4719 57.0535 33.5534 56.9767C33.9951 56.5056 34.5432 56.147 35.1518 55.9308C35.6548 55.735 36.1756 55.5884 36.7069 55.493C37.0906 55.4304 37.4843 55.3948 37.8776 55.3591C38.2171 55.3322 38.5659 55.3146 38.9055 55.3054C39.0725 55.3037 39.2393 55.3156 39.4043 55.341C39.5117 55.3591 39.5919 55.3322 39.6188 55.2516C39.8031 54.8946 39.9211 54.507 39.9672 54.1079C39.9676 54.0156 39.9493 53.9243 39.9135 53.8393C39.7952 53.6401 39.5517 53.5538 39.3345 53.634C38.7416 53.7445 38.1874 54.0063 37.7256 54.3941C37.6178 54.5091 37.522 54.6348 37.4398 54.7693C37.4129 54.8138 37.4398 54.8844 37.4486 54.9393C37.4574 54.975 37.4931 55.0107 37.4931 55.0467C37.4928 55.0898 37.4837 55.1324 37.4663 55.1718C37.4155 55.1634 37.3669 55.1452 37.3231 55.1181C37.2259 54.9819 37.2122 54.803 37.2875 54.6535C37.6509 54.1427 38.1823 53.776 38.7889 53.6175C39.0458 53.5198 39.3186 53.4709 39.5935 53.4732C39.8317 53.4823 40.0389 53.6395 40.1118 53.8665C40.1773 54.342 40.059 54.8246 39.7811 55.216C39.7185 55.341 39.763 55.3591 39.8885 55.3767C40.1857 55.3843 40.4585 55.5426 40.6125 55.7969C40.6433 55.8639 40.6527 55.9388 40.6394 56.0114C40.6214 56.1008 40.5949 56.1902 40.6839 56.2703C40.7019 56.2884 40.6751 56.3597 40.6394 56.3855C40.532 56.4837 40.4069 56.5731 40.2998 56.6713C40.273 56.6893 40.2818 56.7338 40.2642 56.7607C40.3027 56.7621 40.3413 56.7592 40.3793 56.7519L41.2103 56.3766C41.2361 56.3548 41.2668 56.3396 41.2997 56.3321C41.3574 56.3427 41.4142 56.3576 41.4697 56.3766C41.4517 56.4211 41.434 56.4749 41.3983 56.4917C41.2644 56.5723 41.1213 56.6452 40.9874 56.7331C40.9606 56.7511 40.9606 56.7956 40.9429 56.8313C40.9874 56.8401 41.0503 56.867 41.0768 56.8582C41.3585 56.7917 41.6138 56.6423 41.8097 56.4292C41.8667 56.3667 41.937 56.3178 42.0153 56.2861C42.0241 56.2773 42.1136 56.3398 42.1047 56.3486C42.0805 56.4188 42.0412 56.4828 41.9896 56.5362C41.7484 56.7355 41.6381 57.0525 41.7038 57.3585C41.6954 57.4148 41.6772 57.4692 41.6501 57.5193C41.6055 57.4656 41.5349 57.4118 41.5349 57.3658C41.533 57.2177 41.5687 57.0393 41.5864 56.8156Z" fill="black"/>
<path d="M43.6791 55.6535C43.7059 55.5641 43.7148 55.4835 43.8399 55.5C43.8844 55.5088 43.9473 55.5806 43.9381 55.6074C43.9006 55.6772 43.8523 55.7405 43.795 55.795L43.6791 55.6535Z" fill="black"/>
<path d="M43.0078 55.9219C44.1516 56.172 45.2332 56.0025 46.3682 55.9219C46.2984 56.0037 46.2238 56.0813 46.1449 56.1544C45.7873 56.4495 45.4301 56.7533 45.0456 57.0212C44.7994 57.2104 44.4982 57.314 44.1877 57.3162C43.9679 57.3342 43.7557 57.2313 43.6336 57.0476C43.4548 56.7706 43.3117 56.4848 43.1601 56.1985C43.1152 56.1275 43.0704 56.047 43.0078 55.9219Z" fill="white"/>
<path d="M49.9961 57.2896C50.1852 57.0906 50.4457 56.9748 50.7201 56.9677C50.5406 57.1799 50.2739 57.2984 49.9961 57.2896Z" fill="white"/>
<rect x="27.2422" y="39.1372" width="68.3131" height="9.3153" fill="white"/>
<rect x="30.3125" y="64.8447" width="12.2939" height="8.54791" rx="2" fill="white"/>
<g clip-path="url(#clip1_1483_87165)">
<path d="M18.7114 40.0685L19.0937 41.6345L19.4814 40.0685H19.8562L20.2459 41.6252L20.6522 40.0685H20.9862L20.4092 42.0557H20.0622L19.6577 40.5175L19.2662 42.0557H18.9192L18.3459 40.0685H18.7114ZM21.4575 40.0685L21.8397 41.6345L22.2275 40.0685H22.6023L22.992 41.6252L23.3983 40.0685H23.7323L23.1553 42.0557H22.8083L22.4038 40.5175L22.0123 42.0557H21.6653L21.092 40.0685H21.4575ZM24.2036 40.0685L24.5858 41.6345L24.9736 40.0685H25.3484L25.7381 41.6252L26.1444 40.0685H26.4784L25.9014 42.0557H25.5544L25.1499 40.5175L24.7584 42.0557H24.4114L23.8381 40.0685H24.2036ZM26.6677 41.6512H27.0555V42.0557H26.6677V41.6512ZM27.844 41.4322C27.8539 41.5436 27.8818 41.6289 27.9275 41.6883C28.0117 41.7959 28.1576 41.8497 28.3654 41.8497C28.4891 41.8497 28.598 41.8231 28.692 41.7699C28.786 41.7155 28.833 41.632 28.833 41.5194C28.833 41.4341 28.7953 41.3691 28.7198 41.3246C28.6716 41.2974 28.5763 41.2659 28.4341 41.23L28.1688 41.1632C27.9993 41.1211 27.8743 41.0741 27.7939 41.0222C27.6505 40.9319 27.5787 40.8069 27.5787 40.6474C27.5787 40.4593 27.6461 40.3072 27.781 40.1909C27.917 40.0746 28.0995 40.0165 28.3283 40.0165C28.6277 40.0165 28.8435 40.1043 28.9759 40.28C29.0588 40.3913 29.099 40.5113 29.0965 40.6399H28.7811C28.7749 40.5645 28.7483 40.4958 28.7013 40.434C28.6246 40.3462 28.4916 40.3022 28.3023 40.3022C28.1762 40.3022 28.0803 40.3264 28.0147 40.3746C27.9504 40.4229 27.9183 40.4866 27.9183 40.5657C27.9183 40.6523 27.9609 40.7216 28.0463 40.7735C28.0958 40.8045 28.1688 40.8317 28.2652 40.8552L28.486 40.909C28.726 40.9671 28.8868 41.0234 28.9685 41.0778C29.0983 41.1632 29.1633 41.2974 29.1633 41.4805C29.1633 41.6574 29.0959 41.8101 28.961 41.9388C28.8274 42.0674 28.6233 42.1317 28.3487 42.1317C28.0531 42.1317 27.8434 42.0649 27.7197 41.9313C27.5973 41.7965 27.5317 41.6301 27.523 41.4322H27.844ZM29.8016 41.5269C29.8016 41.6233 29.8368 41.6994 29.9073 41.7551C29.9778 41.8107 30.0613 41.8386 30.1578 41.8386C30.2753 41.8386 30.3891 41.8114 30.4992 41.7569C30.6848 41.6666 30.7775 41.5188 30.7775 41.3135V41.0444C30.7367 41.0704 30.6841 41.0921 30.6198 41.1094C30.5555 41.1267 30.4924 41.1391 30.4306 41.1465L30.2283 41.1725C30.1071 41.1885 30.0162 41.2139 29.9556 41.2485C29.8529 41.3067 29.8016 41.3994 29.8016 41.5269ZM30.6105 40.8515C30.6872 40.8416 30.7386 40.8094 30.7646 40.755C30.7794 40.7253 30.7868 40.6826 30.7868 40.627C30.7868 40.5132 30.746 40.4309 30.6644 40.3802C30.584 40.3282 30.4683 40.3022 30.3174 40.3022C30.143 40.3022 30.0193 40.3493 29.9463 40.4433C29.9055 40.4952 29.8789 40.5725 29.8665 40.6752H29.5548C29.561 40.4303 29.6401 40.2602 29.7923 40.1649C29.9457 40.0685 30.1232 40.0202 30.3248 40.0202C30.5586 40.0202 30.7485 40.0647 30.8944 40.1538C31.0392 40.2429 31.1115 40.3814 31.1115 40.5694V41.7143C31.1115 41.7489 31.1183 41.7767 31.1319 41.7978C31.1468 41.8188 31.1771 41.8293 31.2229 41.8293C31.2377 41.8293 31.2544 41.8287 31.2729 41.8274C31.2915 41.825 31.3113 41.8219 31.3323 41.8182V42.0649C31.2804 42.0798 31.2408 42.0891 31.2136 42.0928C31.1864 42.0965 31.1493 42.0983 31.1022 42.0983C30.9872 42.0983 30.9037 42.0575 30.8518 41.9759C30.8245 41.9326 30.8054 41.8714 30.7942 41.7922C30.7262 41.8813 30.6285 41.9586 30.5011 42.0241C30.3737 42.0897 30.2333 42.1225 30.0799 42.1225C29.8956 42.1225 29.7447 42.0668 29.6271 41.9555C29.5109 41.8429 29.4527 41.7025 29.4527 41.5343C29.4527 41.35 29.5103 41.2071 29.6253 41.1057C29.7403 41.0042 29.8912 40.9418 30.078 40.9183L30.6105 40.8515ZM31.6607 40.0685H31.978V40.3505C32.072 40.2342 32.1716 40.1507 32.2768 40.1C32.3819 40.0493 32.4988 40.0239 32.6274 40.0239C32.9095 40.0239 33.1 40.1223 33.1989 40.3189C33.2534 40.4266 33.2806 40.5806 33.2806 40.781V42.0557H32.941V40.8032C32.941 40.682 32.9231 40.5843 32.8872 40.5101C32.8278 40.3864 32.7202 40.3245 32.5644 40.3245C32.4852 40.3245 32.4202 40.3326 32.3695 40.3486C32.278 40.3758 32.1976 40.4303 32.1283 40.5119C32.0727 40.5775 32.0362 40.6455 32.0188 40.716C32.0028 40.7853 31.9947 40.8849 31.9947 41.0147V42.0557H31.6607V40.0685ZM33.8428 39.5137H34.1805V40.0685H34.4978V40.3412H34.1805V41.6382C34.1805 41.7075 34.204 41.7538 34.251 41.7773C34.277 41.791 34.3202 41.7978 34.3809 41.7978C34.3969 41.7978 34.4143 41.7978 34.4328 41.7978C34.4514 41.7965 34.473 41.7947 34.4978 41.7922V42.0557C34.4594 42.0668 34.4192 42.0748 34.3771 42.0798C34.3363 42.0847 34.2918 42.0872 34.2436 42.0872C34.0877 42.0872 33.9819 42.0476 33.9263 41.9685C33.8706 41.8881 33.8428 41.7841 33.8428 41.6567V40.3412H33.5737V40.0685H33.8428V39.5137ZM35.0896 41.5269C35.0896 41.6233 35.1249 41.6994 35.1954 41.7551C35.2659 41.8107 35.3494 41.8386 35.4459 41.8386C35.5634 41.8386 35.6772 41.8114 35.7873 41.7569C35.9729 41.6666 36.0656 41.5188 36.0656 41.3135V41.0444C36.0248 41.0704 35.9722 41.0921 35.9079 41.1094C35.8436 41.1267 35.7805 41.1391 35.7187 41.1465L35.5164 41.1725C35.3952 41.1885 35.3043 41.2139 35.2437 41.2485C35.141 41.3067 35.0896 41.3994 35.0896 41.5269ZM35.8986 40.8515C35.9753 40.8416 36.0267 40.8094 36.0526 40.755C36.0675 40.7253 36.0749 40.6826 36.0749 40.627C36.0749 40.5132 36.0341 40.4309 35.9524 40.3802C35.872 40.3282 35.7564 40.3022 35.6055 40.3022C35.4311 40.3022 35.3074 40.3493 35.2344 40.4433C35.1936 40.4952 35.167 40.5725 35.1546 40.6752H34.8429C34.8491 40.4303 34.9282 40.2602 35.0804 40.1649C35.2338 40.0685 35.4113 40.0202 35.6129 40.0202C35.8467 40.0202 36.0366 40.0647 36.1825 40.1538C36.3272 40.2429 36.3996 40.3814 36.3996 40.5694V41.7143C36.3996 41.7489 36.4064 41.7767 36.42 41.7978C36.4349 41.8188 36.4652 41.8293 36.5109 41.8293C36.5258 41.8293 36.5425 41.8287 36.561 41.8274C36.5796 41.825 36.5994 41.8219 36.6204 41.8182V42.0649C36.5685 42.0798 36.5289 42.0891 36.5017 42.0928C36.4744 42.0965 36.4373 42.0983 36.3903 42.0983C36.2753 42.0983 36.1918 42.0575 36.1398 41.9759C36.1126 41.9326 36.0935 41.8714 36.0823 41.7922C36.0143 41.8813 35.9166 41.9586 35.7892 42.0241C35.6618 42.0897 35.5214 42.1225 35.368 42.1225C35.1837 42.1225 35.0327 42.0668 34.9152 41.9555C34.799 41.8429 34.7408 41.7025 34.7408 41.5343C34.7408 41.35 34.7983 41.2071 34.9134 41.1057C35.0284 41.0042 35.1793 40.9418 35.3661 40.9183L35.8986 40.8515ZM36.9488 40.0685H37.2661V40.3505C37.3601 40.2342 37.4597 40.1507 37.5648 40.1C37.67 40.0493 37.7869 40.0239 37.9155 40.0239C38.1976 40.0239 38.3881 40.1223 38.487 40.3189C38.5414 40.4266 38.5687 40.5806 38.5687 40.781V42.0557H38.2291V40.8032C38.2291 40.682 38.2112 40.5843 38.1753 40.5101C38.1159 40.3864 38.0083 40.3245 37.8524 40.3245C37.7733 40.3245 37.7083 40.3326 37.6576 40.3486C37.5661 40.3758 37.4857 40.4303 37.4164 40.5119C37.3607 40.5775 37.3243 40.6455 37.3069 40.716C37.2909 40.7853 37.2828 40.8849 37.2828 41.0147V42.0557H36.9488V40.0685ZM39.2756 41.0853C39.2756 41.298 39.3207 41.4761 39.411 41.6196C39.5013 41.7631 39.6461 41.8349 39.8452 41.8349C39.9998 41.8349 40.1266 41.7687 40.2256 41.6363C40.3258 41.5027 40.3759 41.3116 40.3759 41.063C40.3759 40.8119 40.3245 40.6263 40.2219 40.5063C40.1192 40.3851 39.9924 40.3245 39.8415 40.3245C39.6733 40.3245 39.5366 40.3888 39.4314 40.5175C39.3275 40.6461 39.2756 40.8354 39.2756 41.0853ZM39.7784 40.0332C39.9306 40.0332 40.058 40.0654 40.1606 40.1297C40.22 40.1668 40.2874 40.2317 40.3629 40.3245V39.3207H40.6839V42.0557H40.3833V41.7792C40.3054 41.9017 40.2132 41.9901 40.1068 42.0445C40.0005 42.099 39.8786 42.1262 39.7413 42.1262C39.5199 42.1262 39.3282 42.0334 39.1661 41.8479C39.0041 41.6611 38.923 41.4131 38.923 41.1038C38.923 40.8144 38.9966 40.5639 39.1438 40.3523C39.2923 40.1396 39.5038 40.0332 39.7784 40.0332ZM42.0068 40.0239C42.1479 40.0239 42.2845 40.0573 42.4169 40.1241C42.5493 40.1897 42.6501 40.275 42.7193 40.3802C42.7861 40.4804 42.8307 40.5973 42.8529 40.7309C42.8727 40.8224 42.8826 40.9684 42.8826 41.1688H41.4261C41.4323 41.3704 41.4799 41.5324 41.5689 41.6549C41.658 41.7761 41.7959 41.8367 41.9827 41.8367C42.1571 41.8367 42.2963 41.7792 42.4002 41.6642C42.4596 41.5974 42.5016 41.5201 42.5264 41.4322H42.8548C42.8461 41.5052 42.8171 41.5868 42.7676 41.6771C42.7193 41.7662 42.6649 41.8392 42.6043 41.8961C42.5029 41.9951 42.3773 42.0618 42.2276 42.0965C42.1472 42.1163 42.0563 42.1262 41.9549 42.1262C41.7075 42.1262 41.4978 42.0365 41.3259 41.8571C41.1539 41.6765 41.068 41.4242 41.068 41.1001C41.068 40.781 41.1546 40.5218 41.3277 40.3227C41.5009 40.1235 41.7273 40.0239 42.0068 40.0239ZM42.5394 40.9034C42.5257 40.7587 42.4942 40.643 42.4447 40.5564C42.3532 40.3956 42.2004 40.3152 41.9864 40.3152C41.833 40.3152 41.7044 40.3709 41.6005 40.4822C41.4966 40.5923 41.4415 40.7327 41.4354 40.9034H42.5394ZM43.3038 40.0685H43.6211V40.4117C43.6471 40.3449 43.7108 40.2639 43.8122 40.1687C43.9136 40.0722 44.0305 40.0239 44.1629 40.0239C44.1691 40.0239 44.1796 40.0245 44.1944 40.0258C44.2093 40.027 44.2346 40.0295 44.2705 40.0332V40.3857C44.2507 40.382 44.2322 40.3796 44.2148 40.3783C44.1988 40.3771 44.1808 40.3765 44.161 40.3765C43.9928 40.3765 43.8635 40.4309 43.7732 40.5397C43.6829 40.6474 43.6378 40.7717 43.6378 40.9127V42.0557H43.3038V40.0685ZM44.6268 39.5137H44.9645V40.0685H45.2817V40.3412H44.9645V41.6382C44.9645 41.7075 44.988 41.7538 45.035 41.7773C45.0609 41.791 45.1042 41.7978 45.1648 41.7978C45.1809 41.7978 45.1982 41.7978 45.2168 41.7978C45.2354 41.7965 45.257 41.7947 45.2817 41.7922V42.0557C45.2434 42.0668 45.2032 42.0748 45.1611 42.0798C45.1203 42.0847 45.0758 42.0872 45.0275 42.0872C44.8717 42.0872 44.7659 42.0476 44.7103 41.9685C44.6546 41.8881 44.6268 41.7841 44.6268 41.6567V40.3412H44.3577V40.0685H44.6268V39.5137ZM46.4062 41.8404C46.6276 41.8404 46.7791 41.7569 46.8607 41.5899C46.9436 41.4217 46.9851 41.2349 46.9851 41.0296C46.9851 40.844 46.9554 40.6931 46.896 40.5769C46.802 40.3938 46.6399 40.3022 46.4099 40.3022C46.2058 40.3022 46.0573 40.3802 45.9646 40.536C45.8718 40.6919 45.8254 40.8799 45.8254 41.1001C45.8254 41.3116 45.8718 41.4879 45.9646 41.6289C46.0573 41.7699 46.2045 41.8404 46.4062 41.8404ZM46.4191 40.0109C46.6752 40.0109 46.8917 40.0963 47.0686 40.267C47.2454 40.4377 47.3339 40.6888 47.3339 41.0203C47.3339 41.3407 47.256 41.6054 47.1001 41.8145C46.9442 42.0235 46.7024 42.128 46.3746 42.128C46.1012 42.128 45.8841 42.0359 45.7233 41.8516C45.5625 41.666 45.4821 41.4174 45.4821 41.1057C45.4821 40.7717 45.5669 40.5057 45.7363 40.3078C45.9058 40.1099 46.1334 40.0109 46.4191 40.0109ZM47.7996 39.5137H48.1373V40.0685H48.4546V40.3412H48.1373V41.6382C48.1373 41.7075 48.1608 41.7538 48.2078 41.7773C48.2338 41.791 48.2771 41.7978 48.3377 41.7978C48.3538 41.7978 48.3711 41.7978 48.3896 41.7978C48.4082 41.7965 48.4298 41.7947 48.4546 41.7922V42.0557C48.4162 42.0668 48.376 42.0748 48.334 42.0798C48.2932 42.0847 48.2486 42.0872 48.2004 42.0872C48.0445 42.0872 47.9388 42.0476 47.8831 41.9685C47.8274 41.8881 47.7996 41.7841 47.7996 41.6567V40.3412H47.5306V40.0685H47.7996V39.5137ZM48.8572 39.5137H49.1949V40.0685H49.5122V40.3412H49.1949V41.6382C49.1949 41.7075 49.2184 41.7538 49.2654 41.7773C49.2914 41.791 49.3347 41.7978 49.3953 41.7978C49.4114 41.7978 49.4287 41.7978 49.4473 41.7978C49.4658 41.7965 49.4875 41.7947 49.5122 41.7922V42.0557C49.4739 42.0668 49.4337 42.0748 49.3916 42.0798C49.3508 42.0847 49.3062 42.0872 49.258 42.0872C49.1021 42.0872 48.9964 42.0476 48.9407 41.9685C48.8851 41.8881 48.8572 41.7841 48.8572 41.6567V40.3412H48.5882V40.0685H48.8572V39.5137ZM50.1041 41.5269C50.1041 41.6233 50.1394 41.6994 50.2099 41.7551C50.2804 41.8107 50.3639 41.8386 50.4604 41.8386C50.5779 41.8386 50.6917 41.8114 50.8018 41.7569C50.9873 41.6666 51.0801 41.5188 51.0801 41.3135V41.0444C51.0393 41.0704 50.9867 41.0921 50.9224 41.1094C50.858 41.1267 50.795 41.1391 50.7331 41.1465L50.5309 41.1725C50.4096 41.1885 50.3187 41.2139 50.2581 41.2485C50.1554 41.3067 50.1041 41.3994 50.1041 41.5269ZM50.9131 40.8515C50.9898 40.8416 51.0411 40.8094 51.0671 40.755C51.0819 40.7253 51.0894 40.6826 51.0894 40.627C51.0894 40.5132 51.0485 40.4309 50.9669 40.3802C50.8865 40.3282 50.7708 40.3022 50.6199 40.3022C50.4455 40.3022 50.3218 40.3493 50.2488 40.4433C50.208 40.4952 50.1814 40.5725 50.169 40.6752H49.8573C49.8635 40.4303 49.9427 40.2602 50.0948 40.1649C50.2482 40.0685 50.4257 40.0202 50.6273 40.0202C50.8611 40.0202 51.051 40.0647 51.197 40.1538C51.3417 40.2429 51.4141 40.3814 51.4141 40.5694V41.7143C51.4141 41.7489 51.4209 41.7767 51.4345 41.7978C51.4493 41.8188 51.4796 41.8293 51.5254 41.8293C51.5402 41.8293 51.5569 41.8287 51.5755 41.8274C51.594 41.825 51.6138 41.8219 51.6349 41.8182V42.0649C51.5829 42.0798 51.5433 42.0891 51.5161 42.0928C51.4889 42.0965 51.4518 42.0983 51.4048 42.0983C51.2897 42.0983 51.2062 42.0575 51.1543 41.9759C51.1271 41.9326 51.1079 41.8714 51.0968 41.7922C51.0287 41.8813 50.931 41.9586 50.8036 42.0241C50.6762 42.0897 50.5358 42.1225 50.3824 42.1225C50.1981 42.1225 50.0472 42.0668 49.9297 41.9555C49.8134 41.8429 49.7553 41.7025 49.7553 41.5343C49.7553 41.35 49.8128 41.2071 49.9278 41.1057C50.0429 41.0042 50.1938 40.9418 50.3806 40.9183L50.9131 40.8515ZM52.0431 41.6512H52.4309V42.0557H52.0431V41.6512ZM53.8596 41.8312C54.0154 41.8312 54.1447 41.7662 54.2474 41.6363C54.3513 41.5052 54.4032 41.3098 54.4032 41.05C54.4032 40.8917 54.3803 40.7556 54.3346 40.6418C54.248 40.4229 54.0896 40.3134 53.8596 40.3134C53.6283 40.3134 53.4699 40.429 53.3846 40.6604C53.3388 40.784 53.3159 40.9411 53.3159 41.1316C53.3159 41.285 53.3388 41.4155 53.3846 41.5231C53.4712 41.7285 53.6295 41.8312 53.8596 41.8312ZM52.9949 40.0777H53.3196V40.3412C53.3864 40.2509 53.4594 40.181 53.5386 40.1315C53.6511 40.0573 53.7835 40.0202 53.9356 40.0202C54.1608 40.0202 54.3519 40.1068 54.509 40.28C54.6661 40.4519 54.7446 40.6981 54.7446 41.0185C54.7446 41.4514 54.6314 41.7606 54.4051 41.9462C54.2616 42.0637 54.0946 42.1225 53.9041 42.1225C53.7544 42.1225 53.6289 42.0897 53.5274 42.0241C53.4681 41.987 53.4019 41.9233 53.3289 41.833V42.8479H52.9949V40.0777ZM55.2029 39.5137H55.5406V40.0685H55.8579V40.3412H55.5406V41.6382C55.5406 41.7075 55.5641 41.7538 55.6111 41.7773C55.6371 41.791 55.6804 41.7978 55.741 41.7978C55.7571 41.7978 55.7744 41.7978 55.793 41.7978C55.8115 41.7965 55.8332 41.7947 55.8579 41.7922V42.0557C55.8196 42.0668 55.7794 42.0748 55.7373 42.0798C55.6965 42.0847 55.652 42.0872 55.6037 42.0872C55.4479 42.0872 55.3421 42.0476 55.2864 41.9685C55.2308 41.8881 55.2029 41.7841 55.2029 41.6567V40.3412H54.9339V40.0685H55.2029V39.5137Z" fill="#2A8FEC"/>
</g>
<path fill-rule="evenodd" clip-rule="evenodd" d="M128.687 73.2529L122.67 84.6041L117.794 93.7988L117.682 93.7638L116.001 93.1686L113.365 92.2592C111.984 91.7788 110.675 91.1116 109.475 90.2761C108.273 89.444 107.192 88.4498 106.263 87.3218C102.091 82.2594 98.6577 76.6311 96.0656 70.6049C93.8485 65.4595 92.2679 60.0626 91.3589 54.534L91.1644 53.4116C90.7373 50.8186 89.3118 48.496 87.1932 46.9411L85.1554 45.4459C82.5941 43.563 80.2934 41.3492 78.3134 38.8622C78.3134 38.8622 71.8274 31.4484 69.8664 24.1012C69.6237 23.0921 69.6979 22.0327 70.0788 21.0672C70.4422 20.1 71.0799 19.26 71.9137 18.65C72.2359 18.4097 72.6141 18.2556 73.0125 18.2024C73.8542 18.0718 74.7026 18.3922 75.2479 19.0464L80.8166 25.6206L80.9609 25.7904L102.64 41.7235C105.18 43.5977 107.405 45.8657 109.229 48.4417L119.462 61.4834L128.687 73.2529Z" fill="#FFC4B8"/>
<mask id="mask3_1483_87165" style="mask-type:luminance" maskUnits="userSpaceOnUse" x="-9" y="-3" width="154" height="155">
<path fill-rule="evenodd" clip-rule="evenodd" d="M67.8828 151.108C25.5572 151.108 -8.74609 116.8 -8.74609 74.4796C-8.74609 32.159 25.5626 -2.1543 67.8828 -2.1543C110.203 -2.1543 144.517 32.1544 144.517 74.4796C144.517 116.801 110.208 151.108 67.8828 151.108Z" fill="white"/>
</mask>
<g mask="url(#mask3_1483_87165)">
<path fill-rule="evenodd" clip-rule="evenodd" d="M76.9989 63.8109L60.4583 105.666L62.5947 103.353L66.0717 99.9908C68.7329 97.4312 72.7743 96.9604 75.9526 98.8397C76.0303 98.8867 76.0862 98.9628 76.1078 99.051C76.1294 99.1393 76.1149 99.2325 76.0677 99.3101L69.5403 110.36L68.8155 112.404L67.3732 116.483C65.344 122.217 62.2093 127.497 58.1469 132.023C57.8833 132.326 57.6021 132.625 57.325 132.924C57.3238 132.924 57.3225 132.924 57.3216 132.925C57.3207 132.926 57.3203 132.927 57.3204 132.929C56.6566 133.623 55.9621 134.357 55.2458 135.113C50.1204 140.537 43.735 147.298 38.8061 152.52L32.0059 166.92H32.0017L24.6562 182.467H24.652L0.586031 176.414L-19.625 171.324L2.72665 145.051L11.7726 112.652C13.5561 106.255 16.7748 100.35 21.1838 95.3853L30.0721 85.3675C30.5769 84.8001 31.2701 84.4347 32.0235 84.3388C33.391 84.1576 34.7158 84.8933 35.2849 86.1498L39.1487 81.7934C39.9558 80.8851 41.1836 80.472 42.3756 80.7079C44.6739 81.1607 45.7467 83.4022 44.7928 85.5386L44.195 86.8792L49.4171 80.998C50.0664 80.253 50.9649 79.7701 51.9445 79.6397C53.0941 79.5042 54.2446 79.8855 55.0857 80.6807C55.9268 81.476 56.3719 82.6033 56.3009 83.7587L71.4043 60.9896C72.1203 59.8876 73.4319 59.3283 74.7228 59.5745C74.793 59.5872 74.859 59.6048 74.925 59.6225C75.7826 59.8641 76.4977 60.4577 76.8931 61.2561C77.2885 62.0545 77.3272 62.9831 76.9996 63.8116" fill="#FFC4B8"/>
</g>
</g>
<defs>
<clipPath id="clip0_1483_87165">
<rect width="8.05755" height="6.13909" fill="white" transform="translate(70.4727 53.1797)"/>
</clipPath>
<clipPath id="clip1_1483_87165">
<rect width="14.5803" height="1.91847" fill="white" transform="translate(30.3125 41.0557)"/>
</clipPath>
</defs>
</svg>
