<svg width="160" height="160" viewBox="0 0 160 160" fill="none" xmlns="http://www.w3.org/2000/svg">
<path d="M51.0339 20.2515C51.0339 37.3546 37.1689 51.2194 20.0657 51.2194C15.2374 51.2194 10.6671 50.1145 6.59407 48.1436C2.35199 57.905 0 68.6777 0 79.9998C0 124.183 35.8172 160 80 160C91.2837 160 102.022 157.664 111.758 153.449C109.702 149.306 108.546 144.638 108.546 139.699C108.546 122.597 122.411 108.732 139.514 108.732C144.486 108.732 149.185 109.904 153.349 111.987C157.627 102.19 160 91.3726 160 79.9998C160 67.4353 157.104 55.5494 151.941 44.9696C151.53 44.124 151.102 43.2882 150.661 42.459C150.335 41.8482 150.001 41.2406 149.658 40.6364C141.597 26.3966 129.293 14.8735 114.465 7.78439H114.462C104.026 2.79191 92.3395 0 80 0C68.5899 0 57.7374 2.38877 47.9161 6.69351C49.9131 10.7883 51.0339 15.389 51.0339 20.2515Z" fill="#DEEDF2"/>
<path d="M150.661 42.4589L80 79.9997L114.461 7.78467H114.465C129.919 15.1741 142.634 27.3797 150.661 42.4589Z" fill="#EAF7FE"/>
<path fill-rule="evenodd" clip-rule="evenodd" d="M36.7344 80.42C36.7344 104.277 56.1429 123.685 79.9994 123.685C103.855 123.685 123.264 104.277 123.264 80.42C123.264 56.5635 103.855 37.1553 79.9994 37.1553C56.1429 37.1553 36.7344 56.5635 36.7344 80.42ZM41.6318 80.4179C41.6318 59.2623 58.8436 42.051 79.9993 42.051C101.155 42.051 118.366 59.2628 118.366 80.4179C118.366 101.573 101.155 118.785 79.9993 118.785C58.8436 118.785 41.6318 101.574 41.6318 80.4179Z" fill="#9BC3D3"/>
<path fill-rule="evenodd" clip-rule="evenodd" d="M56.3242 80.4205C56.3242 93.4741 66.9445 104.094 79.9976 104.094C93.0512 104.094 103.671 93.4741 103.671 80.4205C103.671 67.3668 93.0517 56.7471 79.9976 56.7471C66.944 56.7471 56.3242 67.3668 56.3242 80.4205ZM61.2217 80.4178C61.2217 70.0651 69.6439 61.6423 79.9967 61.6423C90.3489 61.6423 98.7722 70.0651 98.7722 80.4178C98.7722 90.7701 90.3489 99.1928 79.9967 99.1928C69.6445 99.1928 61.2217 90.7701 61.2217 80.4178Z" fill="#9BC3D3"/>
<path d="M136.012 108.928C140.387 100.366 142.856 90.6761 142.856 80.4201C142.856 45.7612 114.659 17.5635 79.9996 17.5635C69.4259 17.5635 59.4532 20.188 50.6994 24.8198C50.3557 27.1459 49.7531 29.3877 48.9219 31.5151C57.9089 25.7836 68.5737 22.4598 80.0001 22.4598C111.959 22.4598 137.959 48.46 137.959 80.4185C137.959 91.3611 134.911 101.605 129.619 110.346C131.663 109.658 133.802 109.176 136.012 108.928Z" fill="#9BC3D3"/>
<path d="M110.124 129.92C101.34 135.284 91.0253 138.378 80.0014 138.378C48.0434 138.378 22.0429 112.377 22.0429 80.4189C22.0429 68.9121 25.4136 58.1777 31.2194 49.1514C29.0887 49.9739 26.8443 50.5678 24.5162 50.9028C19.8126 59.7087 17.1445 69.7592 17.1445 80.4204C17.1445 115.079 45.3415 143.277 80.0009 143.277C90.3455 143.277 100.114 140.765 108.73 136.319C108.97 134.108 109.443 131.966 110.124 129.92Z" fill="#9BC3D3"/>
<path d="M151.943 44.9693L81.1483 82.5823C80.7825 82.7752 80.3907 82.8703 80.002 82.8703C79.1267 82.8703 78.2776 82.3966 77.8367 81.5674C77.2034 80.3756 77.6571 78.8927 78.8526 78.2563L149.66 40.6367C150.003 41.2408 150.336 41.848 150.663 42.4588C151.104 43.288 151.532 44.1238 151.943 44.9693Z" fill="#1BB3BC"/>
<path d="M5.32031 25.7823L34.8137 25.7822V37.764C34.8137 38.273 34.401 38.6857 33.892 38.6857H6.24198C5.73296 38.6857 5.32031 38.273 5.32031 37.764V25.7823Z" fill="#FFE99F"/>
<path d="M20.5591 25.7822L13.1094 38.6856H33.8903C34.3994 38.6856 34.812 38.2729 34.812 37.7639V25.7822H20.5591Z" fill="#F6C854"/>
<path d="M4.93862 14.2158C5.16471 13.4245 5.88801 12.8789 6.71105 12.8789H33.4235C34.2466 12.8789 34.9699 13.4245 35.196 14.2158L38.165 24.6074C38.3332 25.1961 37.8911 25.7822 37.2787 25.7822H2.85584C2.24349 25.7822 1.80138 25.1961 1.96962 24.6074L4.93862 14.2158Z" fill="#F4A48D"/>
<path d="M13.1875 25.7822H37.2784C37.8908 25.7822 38.3329 25.1961 38.1647 24.6074L35.1957 14.2158C34.9696 13.4245 34.2463 12.8789 33.4232 12.8789H20.6373L13.1875 25.7822Z" fill="#EC0000"/>
<rect x="23.7539" y="25.7822" width="1.84334" height="12.9033" fill="#D39E00"/>
<path fill-rule="evenodd" clip-rule="evenodd" d="M23.9685 16.6203C25.5405 14.7227 27.4381 12.4321 27.4381 9.19267C27.4381 5.12046 24.1369 1.81934 20.0647 1.81934C15.9926 1.81934 12.6914 5.12046 12.6914 9.19267C12.6914 12.4321 14.589 14.7227 16.161 16.6203C17.2726 17.9621 18.2214 19.1074 18.2214 20.2527C18.2214 21.2707 19.0467 22.096 20.0647 22.096C21.0828 22.096 21.9081 21.2707 21.9081 20.2527C21.9081 19.1074 22.8569 17.9621 23.9685 16.6203ZM20.0647 12.8792C22.1008 12.8792 23.7513 11.2287 23.7513 9.19258C23.7513 7.15651 22.1008 5.50592 20.0647 5.50592C18.0286 5.50592 16.378 7.15651 16.378 9.19258C16.378 11.2287 18.0286 12.8792 20.0647 12.8792Z" fill="#34466B"/>
<path d="M121.082 130.483C121.082 128.447 122.732 126.796 124.769 126.796H154.262C156.298 126.796 157.949 128.447 157.949 130.483V133.248C157.949 133.757 157.536 134.17 157.027 134.17H122.003C121.494 134.17 121.082 133.757 121.082 133.248V130.483Z" fill="#732645"/>
<path d="M128.453 128.639H150.573V153.523C150.573 154.033 150.16 154.445 149.651 154.445H129.374C128.865 154.445 128.453 154.033 128.453 153.523V128.639Z" fill="#63BA68"/>
<path d="M128.453 128.639H150.573V153.523C150.573 154.033 150.16 154.445 149.651 154.445H130.987L144.822 130.482H128.453V128.639Z" fill="#63BA68"/>
<path fill-rule="evenodd" clip-rule="evenodd" d="M135.83 154.445C135.83 150.373 132.529 147.072 128.457 147.072V148.915C131.511 148.915 133.987 151.391 133.987 154.445H135.83ZM150.576 147.072C146.504 147.072 143.203 150.373 143.203 154.445H145.046C145.046 151.391 147.522 148.915 150.576 148.915V147.072Z" fill="#008437"/>
</svg>
