<svg width="161" height="160" viewBox="0 0 161 160" fill="none" xmlns="http://www.w3.org/2000/svg">
<path fill-rule="evenodd" clip-rule="evenodd" d="M99.322 27.35C107.47 36.0165 118.264 41.6728 129.963 43.7987C137.063 45.0891 143.857 48.4806 149.347 53.9734C163.727 68.36 163.743 91.5604 149.383 105.967C143.048 112.322 134.971 115.873 126.688 116.621C119.597 117.262 112.935 120.358 108.015 125.509C107.952 125.575 107.888 125.641 107.824 125.706C99.4318 134.274 85.8558 134.359 77.3617 125.893C77.313 125.845 77.2647 125.796 77.2169 125.747C74.9478 123.443 71.6727 122.436 68.4994 123.053C50.4066 126.569 30.949 121.315 16.9358 107.29C-5.45517 84.881 -5.45517 48.4822 16.9358 26.0725C39.3448 3.64531 75.6756 3.64546 98.0841 26.0728C98.5048 26.4937 98.9174 26.9195 99.322 27.35Z" fill="#DEEDF2"/>
<path fill-rule="evenodd" clip-rule="evenodd" d="M121.896 56.1983C123.918 55.3595 125.359 53.1978 125.359 50.6661C125.359 47.4072 122.972 44.7612 120.03 44.7612C117.703 44.7612 115.722 46.4181 114.997 48.7243L114.988 48.7266L113.596 53.3281L113.724 53.3832L113.791 53.4119L114.613 53.5897L114.617 56.0066L114.657 56.1531C114.722 56.3561 114.812 56.553 114.927 56.7381C115.061 56.9546 115.227 57.1523 115.415 57.3228C115.514 57.4123 115.619 57.4934 115.73 57.5664C115.789 57.6058 115.847 57.6418 115.908 57.6758C115.955 57.7029 116.003 57.7282 116.051 57.7515L116.2 57.8242L115.727 63.1534C115.727 63.1534 118.156 63.7316 119.281 63.4991L119.431 63.4657L119.434 63.465C120.507 63.2337 121.573 62.8695 122.474 61.7588C122.474 61.7588 122.472 61.7464 122.467 61.7225L122.474 61.714C122.474 61.714 122.39 61.3104 122.285 60.6513C122.124 59.5998 121.916 57.9271 121.896 56.1983Z" fill="#F4A48D"/>
<path fill-rule="evenodd" clip-rule="evenodd" d="M116.119 59.0299C116.803 58.8232 118.247 58.0102 119.332 56.6877L116.236 57.7944C116.236 57.7944 116.177 58.4259 116.119 59.0299ZM114.472 53.5385C114.752 53.6318 115.038 53.4203 115.03 53.1262L114.982 51.2305L114.472 53.5385Z" fill="#A66555"/>
<path fill-rule="evenodd" clip-rule="evenodd" d="M121.884 56.3895L122.711 55.9313C123.7 55.3569 124.539 54.5006 125.088 53.4083C126.591 50.416 125.359 46.7839 122.334 45.2957C119.612 43.9559 116.362 44.8115 114.647 47.1826L115.327 47.7284C115.481 47.6839 115.737 47.6125 116.049 47.5324C117.174 47.2389 119.038 46.8239 119.622 47.106C120.477 47.5193 120.437 49.0755 120.307 50.3102C120.18 51.5178 120.066 52.0422 120.618 52.2793C120.821 52.3663 120.946 51.3463 121.411 51.0398C121.902 50.716 122.529 51.0457 122.437 52.1546C122.285 52.6584 122.168 53.1551 122.08 53.6401C121.933 54.5076 121.88 55.4537 121.884 56.3895Z" fill="#767676"/>
<path fill-rule="evenodd" clip-rule="evenodd" d="M156.481 143.005C156.481 147.251 122.385 150.693 80.3255 150.693C38.2659 150.693 4.16992 147.251 4.16992 143.005C4.16992 138.758 38.2659 135.316 80.3255 135.316C122.385 135.316 156.481 138.758 156.481 143.005Z" fill="#9BC3D3"/>
<path fill-rule="evenodd" clip-rule="evenodd" d="M113.743 61.5799C113.743 61.5799 103.726 61.427 101.479 60.9512C101.479 60.9512 99.6414 63.3801 100.39 64.7536C101.14 66.1263 112.705 69.0138 112.705 69.0138L113.743 61.5799Z" fill="#9BC3D3"/>
<path fill-rule="evenodd" clip-rule="evenodd" d="M101.104 59.937C101.104 59.937 102.873 60.6217 103.067 61.3322C103.26 62.0421 102.873 65.1969 101.471 65.626C100.07 66.055 97.5158 64.1045 98.1502 62.2115C98.7854 60.3184 101.104 59.937 101.104 59.937Z" fill="#CEDEE7"/>
<path d="M115.932 63.1498C115.932 63.1498 116.313 65.3404 116.55 65.7456C116.55 65.7456 117.331 65.9972 117.626 65.9462L119.049 63.2698L117.747 62.6846L117.207 62.7478L115.932 63.1498Z" fill="black"/>
<path fill-rule="evenodd" clip-rule="evenodd" d="M103.439 45.7157C103.445 45.081 102.969 45.317 102.84 45.2988C102.711 45.2809 100.394 45.5529 99.8498 47.4557C99.4221 48.9526 100.07 49.8207 100.367 50.124C100.047 51.2238 98.0201 58.2854 97.9045 60.7728C97.7772 63.4739 100.622 64.3188 100.622 64.3188C102.983 60.721 101.915 51.1383 101.795 50.1314C102.032 49.8518 102.489 49.0653 101.68 47.7459C101.68 47.7459 103.432 46.4874 103.439 45.7157Z" fill="#F4A48D"/>
<path d="M100.721 46.1398C101.596 45.4148 102.752 45.286 102.841 45.2988C102.971 45.317 103.446 45.081 103.44 45.7157C103.433 46.4874 101.682 47.7459 101.682 47.7459L100.721 46.1398Z" fill="#F4A48D"/>
<path d="M119.317 76.6236C118.47 76.6236 117.781 75.7353 117.781 74.6445C117.781 73.5538 118.47 72.6655 119.317 72.6655C120.163 72.6655 120.852 73.5538 120.852 74.6445C120.852 75.7353 120.163 76.6236 119.317 76.6236Z" fill="#137E84"/>
<path fill-rule="evenodd" clip-rule="evenodd" d="M117.672 74.645C117.672 73.4935 118.409 72.5571 119.316 72.5571C120.223 72.5571 120.96 73.4935 120.96 74.645C120.96 75.7964 120.223 76.7328 119.316 76.7328C118.409 76.7328 117.672 75.7964 117.672 74.645ZM120.745 74.6452C120.745 73.6127 120.105 72.775 119.318 72.775C118.531 72.775 117.892 73.6127 117.892 74.6452C117.892 75.6778 118.531 76.5154 119.318 76.5154C120.105 76.5154 120.745 75.6778 120.745 74.6452Z" fill="#1BB3BC"/>
<path d="M119.318 75.8974C118.782 75.8974 118.346 75.3355 118.346 74.6447C118.346 73.9529 118.782 73.3911 119.318 73.3911C119.855 73.3911 120.291 73.9529 120.291 74.6447C120.291 75.3355 119.855 75.8974 119.318 75.8974Z" fill="#137E84"/>
<path fill-rule="evenodd" clip-rule="evenodd" d="M118.275 74.6445C118.275 73.9157 118.743 73.3218 119.317 73.3218C119.892 73.3218 120.359 73.9157 120.359 74.6445C120.359 75.3733 119.892 75.9664 119.317 75.9664C118.743 75.9664 118.275 75.3733 118.275 74.6445ZM120.22 74.6445C120.22 73.9899 119.815 73.4602 119.316 73.4602C118.818 73.4602 118.413 73.9899 118.413 74.6445C118.413 75.2983 118.818 75.8289 119.316 75.8289C119.815 75.8289 120.22 75.2983 120.22 74.6445Z" fill="#1BB3BC"/>
<path d="M117.89 88.5285C117.829 88.5285 117.781 88.4796 117.781 88.4197V78.6132C117.781 78.5533 117.829 78.5044 117.89 78.5044H120.743C120.804 78.5044 120.852 78.5533 120.852 78.6132V88.4197C120.852 88.4796 120.804 88.5285 120.743 88.5285H117.89Z" fill="#137E84"/>
<path fill-rule="evenodd" clip-rule="evenodd" d="M117.89 78.395H120.742C120.863 78.395 120.96 78.492 120.96 78.6127V88.4192C120.96 88.5389 120.863 88.6368 120.742 88.6368H117.89C117.769 88.6368 117.672 88.5389 117.672 88.4192V78.6127C117.672 78.492 117.769 78.395 117.89 78.395ZM120.745 88.419H117.892V78.6125H120.745V88.419Z" fill="#1BB3BC"/>
<path d="M120.221 80.5037C120.221 81.1583 119.816 81.6881 119.318 81.6881C118.819 81.6881 118.414 81.1583 118.414 80.5037C118.414 79.8499 118.819 79.3193 119.318 79.3193C119.816 79.3193 120.221 79.8499 120.221 80.5037Z" fill="#137E84"/>
<path fill-rule="evenodd" clip-rule="evenodd" d="M120.221 80.5037C120.221 81.1583 119.816 81.6881 119.318 81.6881C118.819 81.6881 118.414 81.1583 118.414 80.5037C118.414 79.8499 118.819 79.3193 119.318 79.3193C119.816 79.3193 120.221 79.8499 120.221 80.5037Z" stroke="#1BB3BC" stroke-width="0.594893" stroke-linejoin="round"/>
<path d="M119.831 80.5032C119.831 80.8769 119.6 81.1797 119.315 81.1797C119.029 81.1797 118.799 80.8769 118.799 80.5032C118.799 80.1295 119.029 79.8267 119.315 79.8267C119.6 79.8267 119.831 80.1295 119.831 80.5032Z" fill="#137E84"/>
<path fill-rule="evenodd" clip-rule="evenodd" d="M119.831 80.5032C119.831 80.8769 119.6 81.1797 119.315 81.1797C119.029 81.1797 118.799 80.8769 118.799 80.5032C118.799 80.1295 119.029 79.8267 119.315 79.8267C119.6 79.8267 119.831 80.1295 119.831 80.5032Z" stroke="#1BB3BC" stroke-width="0.5" stroke-linejoin="round"/>
<path d="M118.414 87.6551C118.354 87.6551 118.305 87.6061 118.305 87.5462V82.996C118.305 82.9361 118.354 82.8872 118.414 82.8872H120.221C120.282 82.8872 120.33 82.9361 120.33 82.996V87.5462C120.33 87.6061 120.282 87.6551 120.221 87.6551H118.414Z" fill="#137E84"/>
<path fill-rule="evenodd" clip-rule="evenodd" d="M118.412 82.7783H120.219C120.339 82.7783 120.437 82.8762 120.437 82.996V87.5462C120.437 87.6668 120.339 87.7638 120.219 87.7638H118.412C118.291 87.7638 118.193 87.6668 118.193 87.5462V82.996C118.193 82.8762 118.291 82.7783 118.412 82.7783ZM120.22 87.546H118.413V82.9958H120.22V87.546Z" fill="#1BB3BC"/>
<path fill-rule="evenodd" clip-rule="evenodd" d="M121.754 85.0796L122.132 82.6611L111.574 82.9277L109.436 111.105L109.544 137.935C109.544 137.935 110.56 139.265 113.519 137.693L118.704 104.564C119.482 109.565 120.389 114.117 121.425 118.218C122.461 122.32 124.382 128.961 127.186 138.14C129.739 138.853 131.544 137.632 131.544 137.632L125.748 85.5858L121.754 85.0796Z" fill="#34466B"/>
<path fill-rule="evenodd" clip-rule="evenodd" d="M115.878 60.9526C116.389 61.8281 116.821 62.6642 117.21 62.7478C117.54 62.82 122.432 60.9912 122.432 60.9912C122.432 60.9912 128.456 63.3463 129.25 63.7795L128.607 68.2047L125.968 87.5815C117.554 90.2615 111.382 87.0585 111.382 87.0585C111.382 87.0585 109.113 67.1324 111.126 63.7474C112.284 61.8008 113.159 61.7 114.366 61.334L115.878 60.9526Z" fill="#9BC3D3"/>
<path fill-rule="evenodd" clip-rule="evenodd" d="M116.863 62.6968L118.092 62.7593C118.092 62.7593 118.621 71.3287 116.418 79.3578C115.77 81.7156 115.248 83.1733 115.248 83.1733C115.248 83.1733 113.789 81.8548 114.051 78.6264" fill="#2A8FEC"/>
<path fill-rule="evenodd" clip-rule="evenodd" d="M138.278 81.8885C137.501 81.4389 129.134 85.3944 127.094 86.3712C127.094 86.3704 125.562 85.9165 125.264 85.8254C124.967 85.7335 123.997 85.8465 123.275 86.0768C122.268 86.3965 122.133 86.7036 122.131 87.014C122.129 87.4949 123.402 87.5615 124.409 87.8964C124.971 88.0837 125.452 88.3621 126.056 88.3621C127.316 88.3621 127.419 87.521 127.419 87.521V87.5202C130.34 87.2798 138.171 85.6997 138.442 85.1118C138.818 84.296 138.278 81.8885 138.278 81.8885Z" fill="#F4A48D"/>
<path fill-rule="evenodd" clip-rule="evenodd" d="M114.439 64.1969L115.14 61.1385L115.842 60.8081L117.21 62.7478L114.439 64.1969Z" fill="#CEDEE7"/>
<path fill-rule="evenodd" clip-rule="evenodd" d="M121.726 64.7987L122.431 60.9912C122.431 60.9912 120.096 61.7796 117.623 62.6755L121.726 64.7987Z" fill="#CEDEE7"/>
<path d="M138.489 83.3349C138.394 82.0459 137.955 80.1749 136.864 77.5581L133.781 79.5405C133.781 79.5405 134.536 81.5904 135.515 83.3349H138.489Z" fill="#F4A48D"/>
<path fill-rule="evenodd" clip-rule="evenodd" d="M126.811 71.5651L133.965 81.1363C133.965 81.1363 136.812 80.8326 137.876 79.8659C138.939 78.8991 130.238 63.4379 129.248 63.78" fill="#9BC3D3"/>
<path fill-rule="evenodd" clip-rule="evenodd" d="M133.79 80.9027C133.79 80.9027 136.984 79.7344 137.855 78.9001C137.855 78.9001 138.399 78.7879 138.496 79.0291C138.592 79.2712 138.894 80.7964 138.798 81.1355C138.701 81.4738 135.946 82.7307 134.955 82.6573C134.955 82.6573 133.665 81.5404 133.79 80.9027Z" fill="#CEDEE7"/>
<path fill-rule="evenodd" clip-rule="evenodd" d="M62.435 43.9097C63.9592 42.7897 64.9492 40.9845 64.9492 38.9499C64.9492 35.5551 62.193 32.7988 58.7982 32.7988C55.6636 32.7988 53.0735 35.1487 52.6948 38.1813C52.6286 38.4973 52.5805 38.8168 52.5474 39.1362L52.5473 39.1367L52.5462 39.1437L52.546 39.1462C52.5362 39.2418 52.5277 39.3373 52.5205 39.4326L52.0968 44.1791L53.0611 44.5018L53.0711 44.5041L53.0712 44.5041C53.0951 44.5868 53.1084 44.6315 53.1084 44.6315L53.1346 45.2736L53.182 46.4737C53.1984 46.8708 53.2814 47.2599 53.426 47.6258C53.527 47.884 53.6606 48.1314 53.8237 48.3609C54.0153 48.6303 54.2442 48.872 54.4997 49.0762C54.6328 49.1833 54.7743 49.2788 54.9221 49.364C55.0003 49.4092 55.0783 49.4507 55.1594 49.4896L55.1599 49.4899L54.7457 56.9871C54.7457 56.9871 56.9343 57.6466 59.331 57.1233C60.7796 56.8097 62.3057 56.0609 63.4699 54.4757C63.4699 54.4757 62.0919 48.5032 62.435 43.9097Z" fill="#FFC4B8"/>
<path fill-rule="evenodd" clip-rule="evenodd" d="M59.3083 57.0345C60.7571 56.7209 62.2831 55.972 63.4473 54.3869C63.4473 54.3869 61.9568 47.9873 62.4621 43.3365C62.4621 43.3365 59.0717 51.6022 59.3083 57.0345ZM53.0641 44.5287C53.4016 44.6277 53.7339 44.3625 53.7119 44.0118L53.57 41.751L53.0641 44.5287Z" fill="#F4A48D"/>
<path fill-rule="evenodd" clip-rule="evenodd" d="M60.866 40.3813C61.2921 39.8291 61.8661 39.5475 62.357 39.7154C63.0555 39.9544 63.3227 41.0137 62.9534 42.0795C62.8248 42.4507 62.6358 42.774 62.4146 43.0277C62.4 43.3462 62.3946 43.6594 62.3971 43.9666C63.2741 43.2391 64.1177 42.2765 64.5144 41.1317C65.7513 37.5621 64.3633 34.2379 60.1712 32.8036C57.0243 31.7268 53.6366 33.0713 52.1346 35.8372L52.4732 36.3746L52.4746 36.3696L52.5287 36.355L58.1707 34.7907L59.608 38.7478L59.0829 39.7079L56.7529 43.9588C56.5912 44.2564 56.3525 44.4984 56.0681 44.6659C55.8519 44.794 55.6106 44.8806 55.3547 44.9163L55.353 44.9157C55.2719 44.9265 55.1901 44.9334 55.1068 44.9344C54.9738 44.9367 54.8421 44.9247 54.7127 44.9006L53.6456 44.6955C53.5449 44.6757 53.4419 44.6625 53.3395 44.6532C53.1526 44.637 52.965 44.6391 52.7791 44.6581C52.7752 44.6587 52.7718 44.6575 52.769 44.6603L52.7796 44.662C52.8097 44.744 52.8264 44.7883 52.8264 44.7883L52.8954 45.4334L54.3381 45.6548C54.3758 45.6604 54.4107 45.6686 54.4461 45.6808C54.63 45.7437 54.7753 45.8909 54.8326 46.0796C54.9005 46.3031 54.8286 46.5433 54.6501 46.6937L53.4759 47.6799L53.3506 47.7859C53.4717 48.0406 53.6258 48.2826 53.809 48.5054C54.0242 48.7664 54.2763 48.998 54.5532 49.1901C54.6976 49.291 54.8498 49.3799 55.0078 49.4578L55.0739 49.4253C55.1376 49.3938 55.2036 49.3611 55.2662 49.3274C57.0579 48.4055 58.5332 47.0241 59.5505 45.3462C59.919 44.7406 60.2273 44.0961 60.467 43.4206C60.4931 43.3506 60.5176 43.2799 60.541 43.2071L60.5412 43.2065C60.2209 42.7502 60.1555 41.9835 60.4223 41.2135L60.432 41.186L60.4353 41.1768L60.4419 41.1587L60.4458 41.148L60.4521 41.1313L60.4562 41.1204L60.4627 41.1035L60.4667 41.0933L60.4746 41.0734L60.4773 41.0666L60.4879 41.0407L60.4919 41.0311L60.4989 41.0145L60.5037 41.0033L60.5102 40.9882L60.5152 40.9768L60.5218 40.9619L60.5267 40.9509L60.5342 40.9346L60.5385 40.9252L60.5499 40.9008L60.5545 40.8912L60.5619 40.8756L60.5674 40.8645L60.5742 40.8506L60.5799 40.8391L60.5868 40.8255L60.5925 40.8143L60.5999 40.8001L60.6052 40.7897L60.6175 40.7666L60.6223 40.7577L60.6306 40.7426L60.6365 40.7317L60.6438 40.7187L60.6501 40.7075L60.6573 40.6948L60.6636 40.6839L60.6712 40.6708L60.6773 40.6605L60.6871 40.6441L60.6907 40.638L60.6946 40.6315L60.7044 40.6156L60.7106 40.6056L60.7185 40.5929L60.7251 40.5824L60.7329 40.5702L60.7396 40.5599L60.7477 40.5475L60.7541 40.5378L60.7638 40.5233L60.7688 40.5159L60.783 40.4951L60.789 40.4864L60.798 40.4735L60.8046 40.4642L60.8132 40.4521L60.82 40.4428L60.8289 40.4306L60.8353 40.4219L60.8456 40.4081L60.8508 40.4012L60.866 40.3813Z" fill="#9BC3D3"/>
<path d="M54.9824 54.1866C54.9824 54.1866 55.5339 56.7335 55.8306 57.1958C55.8306 57.1958 56.7578 57.4531 57.1002 57.3791L58.639 54.177L57.0862 53.5547L56.4563 53.6539L54.9824 54.1866Z" fill="black"/>
<path fill-rule="evenodd" clip-rule="evenodd" d="M61.9221 78.4525L62.254 76.0127L51.068 77.2543L47.5625 116.46L48.6897 141.723C48.6897 141.723 49.8793 143.282 53.3475 141.44L59.3078 97.6562C60.1878 104.402 61.1111 110.502 62.0775 115.956C63.044 121.41 64.7377 130.08 67.1588 141.964C70.1512 142.8 72.2667 141.37 72.2667 141.37L67.8379 79.1217L61.9221 78.4525Z" fill="#444444"/>
<path fill-rule="evenodd" clip-rule="evenodd" d="M54.8088 51.6158C55.4493 52.6165 56.0693 53.5889 56.5293 53.668C57.0322 53.757 62.9366 51.4712 62.9366 51.4712C62.9366 51.4712 69.1147 52.7813 70.0647 53.2496V59.4955L68.0826 82.609C56.1136 84.9262 50.8391 82.0949 50.8391 82.0949C50.8391 82.0949 49.4742 60.0481 50.2179 56.2027C50.567 54.3977 50.6114 53.4392 51.5987 53.0539L54.8088 51.6158Z" fill="#CCCCCC"/>
<path fill-rule="evenodd" clip-rule="evenodd" d="M56.4567 53.6539L53.2832 55.4851L53.956 51.8699L55.097 51.3931L56.4567 53.6539Z" fill="#767676"/>
<path fill-rule="evenodd" clip-rule="evenodd" d="M56.5293 53.668L61.8435 55.839L62.9366 51.4712C62.9366 51.4712 60.8008 52.2035 56.5293 53.668Z" fill="#767676"/>
<path fill-rule="evenodd" clip-rule="evenodd" d="M50.8311 78.2127C50.8311 78.2127 52.0132 78.3194 53.0967 78.2127C54.1804 78.1059 56.1138 77.9359 56.0078 77.5335L55.0937 77.3062H50.2715L50.8311 78.2127Z" fill="#FFC4B8"/>
<path fill-rule="evenodd" clip-rule="evenodd" d="M56.8412 53.7778C56.8412 53.7778 58.5274 63.635 56.333 73.1429C55.6892 75.9346 55.1468 77.6686 55.1468 77.6686C55.1468 77.6686 53.3758 76.1946 53.5267 72.4015C53.6769 68.6084 56.3843 59.0162 56.1661 53.8514L56.8412 53.7778Z" fill="#2A8FEC"/>
<path fill-rule="evenodd" clip-rule="evenodd" d="M68.8823 52.8911C68.8823 52.8911 71.8746 53.0097 72.9838 55.0133C74.174 57.1613 78.7313 75.8878 78.1362 77.7582C77.542 79.6276 68.9001 78.9781 60.9168 77.2204C60.9168 77.2204 58.71 76.1735 60.0305 72.7739L60.4501 72.7462L71.4545 72.0087C71.4545 72.0087 67.6298 61.6417 66.9506 60.2815" fill="#CCCCCC"/>
<path fill-rule="evenodd" clip-rule="evenodd" d="M61.8182 76.2771C61.7181 76.8406 61.4513 77.1984 60.9788 77.0442C60.4062 76.8584 60.0969 76.4204 59.9471 75.8995C59.7227 75.1294 59.8451 74.1695 59.9707 73.5457C60.0491 73.1582 60.1292 72.9021 60.1292 72.9021C60.6714 72.6412 61.1179 73.0336 61.4238 73.6653V73.6673C61.7912 74.4275 61.9507 75.5327 61.8182 76.2771Z" fill="#767676"/>
<path fill-rule="evenodd" clip-rule="evenodd" d="M61.8177 76.2773L59.9465 75.8996C59.384 76.2219 58.6615 75.7276 58.6615 76.2377C58.6615 76.7468 58.152 76.9515 58.152 76.9515H54.6895C54.6895 76.9515 53.7108 76.0459 53.6257 75.9184C53.5409 75.7909 53.4778 75.4933 53.5134 75.089C53.5495 74.6857 53.9454 74.4306 53.9454 74.4306L52.4445 74.9496C52.3661 75.002 50.8296 77.081 50.8296 77.081H50.3968C50.3337 76.5847 51.5864 74.6007 51.5864 74.6007C51.5864 74.6007 54.9651 72.7096 55.6875 72.4535C56.4095 72.1995 57.533 72.8727 58.3846 73.1989C58.8213 73.3669 59.4211 73.4757 59.9701 73.5459C60.7456 73.6447 61.4232 73.6655 61.4232 73.6655V73.6675C61.7907 74.4277 61.9501 75.5329 61.8177 76.2773Z" fill="#FFC4B8"/>
<path d="M62.6698 77.3058C62.6698 77.5539 62.4671 77.7576 62.2171 77.7576H42.671C42.421 77.7576 42.2188 77.5539 42.2188 77.3058C42.2188 77.0547 42.421 76.853 42.671 76.853H62.2171C62.4671 76.853 62.6698 77.0547 62.6698 77.3058Z" fill="#137E84"/>
<path d="M59.4404 77.3058C59.4404 77.0547 59.2377 76.853 58.9883 76.853H42.671C42.421 76.853 42.2188 77.0547 42.2188 77.3058C42.2188 77.5539 42.421 77.7576 42.671 77.7576H58.9883C59.2377 77.7576 59.4404 77.5539 59.4404 77.3058Z" fill="#137E84"/>
<path d="M59.0737 76.8954H42.3901L38.9551 64.7144H55.6387L59.0737 76.8954Z" fill="#137E84"/>
<path fill-rule="evenodd" clip-rule="evenodd" d="M48.6531 140.808H53.3992L53.5959 145.446L47.8958 145.933L45.541 145.684L46.3164 143.533L47.1592 142.995L48.6531 140.808Z" fill="#CEDEE7"/>
<path fill-rule="evenodd" clip-rule="evenodd" d="M66.9599 140.991L64.5801 143.784L65.0047 145.934L73.2757 144.693L72.2689 140.991H66.9599Z" fill="#CEDEE7"/>
<path fill-rule="evenodd" clip-rule="evenodd" d="M109.599 137.512H113.482L113.643 141.157L108.979 141.54L107.053 141.344L107.687 139.654L108.377 139.231L109.599 137.512Z" fill="#CEDEE7"/>
<path fill-rule="evenodd" clip-rule="evenodd" d="M127.263 137.878L125.359 140.155L125.699 141.906L132.316 140.895L131.584 137.329L127.263 137.878Z" fill="#CEDEE7"/>
<path fill-rule="evenodd" clip-rule="evenodd" d="M107.641 17.6643C107.04 12.7808 102.878 9 97.8335 9C92.376 9 87.9516 13.4255 87.9516 18.8849C87.9516 19.7806 88.0706 20.6485 88.2939 21.4735C88.21 21.4746 88.1268 21.4775 88.0441 21.4824L87.9511 21.4747V21.4886C85.1206 21.7013 82.8895 24.0663 82.8895 26.9524C82.8895 29.8384 85.1206 32.2034 87.9511 32.4161V32.4325H123.93V32.4319H123.93C126.136 32.4319 127.924 30.6432 127.924 28.4369C127.924 26.2306 126.136 24.4421 123.93 24.4421H123.93V24.4419L114.815 23.6901C114.856 23.4178 114.878 23.1389 114.878 22.8549C114.878 19.8288 112.426 17.3756 109.401 17.3756C108.785 17.3756 108.193 17.4771 107.641 17.6643Z" fill="#DEEDF2"/>
<path fill-rule="evenodd" clip-rule="evenodd" d="M20.6405 21.3561C21.0853 17.6935 24.1646 14.8579 27.8967 14.8579C31.9344 14.8579 35.2078 18.1771 35.2078 22.2716C35.2078 22.9434 35.1197 23.5942 34.9545 24.213C35.0165 24.2138 35.0781 24.2161 35.1393 24.2197L35.2081 24.2139V24.2243C37.3022 24.3839 38.9528 26.1576 38.9528 28.3222C38.9528 30.4867 37.3022 32.2605 35.2081 32.42V32.4323H8.58931V32.4319H8.58922C6.9576 32.4319 5.63477 31.0903 5.63477 29.4356C5.63477 27.7809 6.9576 26.4395 8.58922 26.4395H8.58931V26.4393L15.3333 25.8755C15.3025 25.6713 15.2865 25.4621 15.2865 25.2491C15.2865 22.9795 17.1008 21.1396 19.339 21.1396C19.7943 21.1396 20.232 21.2157 20.6405 21.3561Z" fill="#EAF7FE"/>
</svg>
