<svg width="160" height="160" viewBox="0 0 160 160" fill="none" xmlns="http://www.w3.org/2000/svg">
<path fill-rule="evenodd" clip-rule="evenodd" d="M160 129.874C160 135.187 124.183 139.495 80.0002 139.495C35.8172 139.495 0 135.187 0 129.874C0 124.56 35.8172 120.253 80.0002 120.253C124.183 120.253 160 124.56 160 129.874Z" fill="#EAF7FE"/>
<path d="M24.3648 83.8668C23.8196 83.6904 23.0763 83.2607 22.4548 82.464C21.6922 81.4866 21.3884 80.3253 21.6177 79.1759C21.7669 78.3219 22.2315 77.4738 23.0156 76.6873L22.4317 75.939L23.0233 75.4777L23.5599 76.1654C23.62 76.1186 23.6804 76.0714 23.7409 76.0243C23.934 75.8737 24.1246 75.7447 24.303 75.6248L23.7474 74.9128L24.3508 74.4419L24.9723 75.2384C25.9301 74.7243 26.9127 74.5401 27.7841 74.6371C28.904 74.7534 29.8782 75.2553 30.6502 76.2451C31.2058 76.9571 31.4338 77.6723 31.5162 78.1515L30.5314 78.5315C30.4771 78.0885 30.2386 77.4595 29.8147 76.9164C29.3062 76.2645 28.6626 75.9122 27.9081 75.841C27.2756 75.752 26.5442 75.9342 25.8103 76.3125L28.4373 79.6799L27.8338 80.1507L25.122 76.6748C24.9557 76.7853 24.7653 76.9143 24.5963 77.0462C24.5239 77.1026 24.4636 77.1498 24.3791 77.2156L27.1097 80.7157L26.5184 81.177L23.8535 77.7614C23.2289 78.4041 22.8982 79.0506 22.7904 79.6588C22.6683 80.4726 22.9097 81.2548 23.4182 81.9067C23.9172 82.5464 24.5916 82.9132 24.9651 83.0684L24.3648 83.8668Z" fill="#137E84"/>
<path fill-rule="evenodd" clip-rule="evenodd" d="M117.45 72.073C117.437 72.1036 117.426 72.1358 117.416 72.1693C117.396 72.1976 117.376 72.2263 117.358 72.2567L117.331 72.3029L117.324 72.3148L117.253 72.3855C117.227 72.4111 117.198 72.4409 117.202 72.4294C117.193 72.428 117.192 72.4313 117.186 72.4421C117.156 72.4565 117.126 72.4723 117.096 72.4906C117.027 72.5175 116.957 72.5526 116.871 72.5668C116.54 72.6506 116.109 72.5957 115.808 72.4448C115.658 72.3687 115.54 72.274 115.459 72.1758C115.432 72.1219 115.391 72.0736 115.376 72.0141L115.366 71.9931L115.361 71.9829L115.358 71.9777C115.356 71.9681 115.371 72.0484 115.363 72.0081L115.343 71.9063L115.323 71.8044L115.322 71.769C115.311 71.7328 115.317 71.6458 115.323 71.6048C115.33 71.5543 115.344 71.5153 115.367 71.4731C115.415 71.3924 115.518 71.2883 115.685 71.2014C116.023 71.0266 116.503 70.9302 116.977 70.8907C117.08 70.8822 117.186 70.8836 117.291 70.8792C117.329 70.9614 117.364 71.0443 117.392 71.1264C117.517 71.49 117.551 71.8329 117.45 72.073ZM124.182 76.2678C124.185 76.073 124.171 75.8495 124.147 75.599C124.099 75.0996 124.006 74.4858 123.758 73.8145C123.515 73.1464 123.135 72.4054 122.521 71.7406C121.906 71.075 121.103 70.4876 120.09 70.1178C119.977 70.0787 119.861 70.0394 119.746 69.9994L119.659 69.9695L119.615 69.9545L119.544 69.9343L119.349 69.8829C119.286 69.8675 119.223 69.8588 119.161 69.845C118.998 69.4403 118.793 69.0643 118.544 68.7212C118.344 68.4494 118.132 68.1881 117.869 67.9569C117.758 67.8446 117.571 67.7066 117.408 67.5876C117.361 67.5526 117.333 67.5349 117.307 67.5189L117.222 67.4665L117.139 67.414L117.118 67.4013L117.038 67.3558L116.979 67.3277C115.738 66.7236 114.486 66.6804 113.401 66.83C112.306 66.9798 111.341 67.3522 110.521 67.8086C110.108 68.0302 109.74 68.2963 109.411 68.571C109.082 68.8458 108.786 69.1286 108.55 69.4334C108.061 70.0265 107.769 70.6486 107.628 71.1742C107.484 71.7015 107.482 72.1249 107.5 72.414C107.529 72.6853 107.558 72.8239 107.558 72.8239L107.78 72.8357C107.78 72.8357 107.818 72.6988 107.89 72.4418C107.972 72.2109 108.108 71.8665 108.357 71.4928C108.609 71.1218 108.964 70.7165 109.459 70.3579C109.943 69.9888 110.565 69.6715 111.268 69.4185C111.974 69.1725 112.778 69.009 113.604 68.9742C114.426 68.9463 115.282 69.0637 115.94 69.392C116.052 69.4453 116.173 69.5262 116.294 69.622C115.911 69.6567 115.514 69.7279 115.092 69.895C114.768 70.03 114.411 70.2499 114.141 70.6168C114.007 70.7984 113.904 71.0121 113.847 71.2287C113.789 71.4535 113.763 71.6449 113.775 71.8838C113.782 72.2217 113.882 72.6797 114.111 73.0498C114.343 73.414 114.656 73.6909 114.989 73.8919C115.324 74.0973 115.682 74.2149 116.046 74.2883C116.412 74.3622 116.789 74.3739 117.176 74.3152C117.368 74.2937 117.566 74.2363 117.761 74.1708L118.053 74.0459C118.166 73.9833 118.282 73.9088 118.391 73.8316C118.456 73.786 118.477 73.7663 118.503 73.7446L118.583 73.6766L118.623 73.6427L118.633 73.6339C118.585 73.682 118.709 73.5596 118.701 73.5661L118.726 73.5361L118.826 73.4154L119.022 73.1682L119.177 72.8905C119.289 72.7059 119.337 72.5022 119.405 72.3028C119.447 72.1052 119.489 71.899 119.497 71.704C119.505 71.5088 119.512 71.3101 119.487 71.1272C119.484 71.0997 119.479 71.0735 119.477 71.0463C119.583 71.0723 119.69 71.0979 119.796 71.1237C120.623 71.339 121.386 71.7781 121.96 72.2972C122.545 72.8187 122.949 73.4442 123.229 74.033C123.512 74.6244 123.657 75.1897 123.759 75.6567C123.808 75.8916 123.845 76.103 123.863 76.2896C123.887 76.4752 123.906 76.6342 123.909 76.7638C123.923 77.0233 123.932 77.1617 123.932 77.1617L124.153 77.1683C124.153 77.1683 124.161 77.0266 124.175 76.7603C124.186 76.6269 124.186 76.4619 124.182 76.2678Z" fill="#FFC4B8"/>
<path d="M117.397 70.5643C117.37 70.4819 117.335 70.3993 117.297 70.3169C117.192 70.3213 117.087 70.3202 116.983 70.3288C116.511 70.3679 116.032 70.4642 115.696 70.639C115.53 70.726 115.427 70.8302 115.38 70.9108C115.356 70.953 115.343 70.9923 115.335 71.0425C115.329 71.0837 115.324 71.1706 115.334 71.2066L115.335 71.2422L115.355 71.3442L115.375 71.4457C115.383 71.4861 115.368 71.406 115.37 71.4155L115.373 71.4208L115.378 71.4309L115.388 71.452C115.389 71.4561 115.392 71.4597 115.393 71.4634C115.445 71.386 115.542 71.2915 115.696 71.211C116.032 71.0362 116.511 70.9401 116.983 70.9006C117.087 70.892 117.192 70.8933 117.297 70.8891C117.335 70.9713 117.37 71.0541 117.397 71.1365C117.431 71.2358 117.457 71.3325 117.477 71.427C117.541 71.1935 117.509 70.8893 117.397 70.5643Z" fill="#F4A48D"/>
<path d="M119.18 72.3283L119.025 72.6061L118.83 72.8531L118.73 72.9738L118.706 73.0036C118.713 72.9973 118.59 73.1197 118.637 73.0714L118.627 73.0801L118.587 73.114L118.508 73.1823C118.482 73.2041 118.461 73.2241 118.396 73.2693C118.287 73.3465 118.172 73.421 118.059 73.4838L117.767 73.6084C117.574 73.674 117.377 73.7314 117.186 73.7531C116.8 73.8113 116.424 73.7997 116.059 73.7262C115.696 73.6526 115.339 73.5352 115.006 73.3296C114.674 73.1286 114.361 72.8519 114.13 72.4875C113.944 72.1854 113.847 71.8283 113.812 71.5222C113.796 71.6402 113.789 71.7601 113.796 71.8935C113.802 72.2314 113.902 72.6896 114.13 73.0597C114.361 73.4239 114.674 73.7008 115.006 73.9018C115.339 74.1072 115.696 74.2246 116.059 74.2982C116.424 74.3719 116.8 74.3835 117.186 74.3251C117.377 74.3032 117.574 74.2462 117.767 74.1805L118.059 74.0558C118.172 73.993 118.287 73.9187 118.396 73.8413C118.461 73.7959 118.482 73.7759 118.508 73.7545L118.587 73.6863L118.627 73.6523L118.637 73.6436C118.59 73.6919 118.713 73.5691 118.706 73.5758L118.73 73.546L118.83 73.4251L119.025 73.1779L119.18 72.9004C119.291 72.7156 119.339 72.5121 119.407 72.3127C119.449 72.1151 119.491 71.9086 119.499 71.7137C119.506 71.5412 119.508 71.3674 119.492 71.2026C119.479 71.3793 119.445 71.563 119.407 71.7405C119.339 71.9401 119.291 72.1436 119.18 72.3283Z" fill="#F4A48D"/>
<path d="M115.952 68.8298C115.297 68.5017 114.442 68.3841 113.623 68.4122C112.8 68.447 111.999 68.6103 111.295 68.8567C110.593 69.1095 109.974 69.4268 109.492 69.7959C108.999 70.1545 108.644 70.5596 108.394 70.9306C108.145 71.3045 108.009 71.6487 107.928 71.8796C107.856 72.1366 107.818 72.2737 107.818 72.2737L107.597 72.2619C107.597 72.2619 107.57 72.1327 107.543 71.8869C107.526 72.0975 107.53 72.2779 107.539 72.4238C107.567 72.6953 107.597 72.8339 107.597 72.8339L107.818 72.8457C107.818 72.8457 107.856 72.7088 107.928 72.4518C108.009 72.2209 108.145 71.8765 108.394 71.5028C108.644 71.1318 108.999 70.7263 109.492 70.3679C109.974 69.9988 110.593 69.6815 111.295 69.4285C111.999 69.1823 112.8 69.019 113.623 68.9842C114.254 68.963 114.904 69.0302 115.469 69.2112C115.757 69.129 116.035 69.0845 116.304 69.0595C116.184 68.9642 116.063 68.8833 115.952 68.8298Z" fill="#F4A48D"/>
<path d="M117.383 71.7032L117.382 71.705C117.396 71.6901 117.405 71.6809 117.383 71.7032Z" fill="#F4A48D"/>
<path d="M119.489 71.1373C119.491 71.1585 119.491 71.1814 119.493 71.2028C119.494 71.1828 119.499 71.1618 119.5 71.1418C119.5 71.1156 119.5 71.089 119.502 71.0619C119.494 71.0603 119.486 71.0582 119.479 71.0563C119.482 71.0836 119.486 71.1098 119.489 71.1373Z" fill="#F4A48D"/>
<path d="M117.383 72.2752C117.405 72.2527 117.396 72.2621 117.382 72.2767L117.383 72.2752Z" fill="#F4A48D"/>
<path fill-rule="evenodd" clip-rule="evenodd" d="M59.6267 123.835C59.6267 123.835 48.3466 128.571 39.6133 123.835V96.6338H59.6267V123.835Z" fill="#FFC4B8"/>
<path d="M56.1815 96.6338L47.3218 114.987L56.3515 119.198V120.923C56.3515 120.923 47.6185 124.559 39.6133 122.27V123.835C48.3463 128.57 59.6265 123.835 59.6265 123.835V96.6338H56.1815Z" fill="#FFC4B8"/>
<path fill-rule="evenodd" clip-rule="evenodd" d="M39.6133 122.365C39.6133 122.365 40.1229 117.604 41.5087 123.644C41.5087 123.644 42.9188 119.885 43.5967 123.228C43.5967 123.228 43.8851 124.384 43.7004 125.383C43.7004 125.383 41.0688 124.939 39.6133 123.835V122.365Z" fill="#444444"/>
<path fill-rule="evenodd" clip-rule="evenodd" d="M100.381 123.835C100.381 123.835 89.1009 128.571 80.0039 123.835V96.6338H100.381V123.835Z" fill="#FFC4B8"/>
<path d="M84.0065 119.674V117.187L89.2532 114L84.0562 96.6338H80.0039V123.834C89.1007 128.57 100.381 123.834 100.381 123.834V120.951C96.0145 121.908 89.8285 122.605 84.0065 119.674Z" fill="#FFC4B8"/>
<path fill-rule="evenodd" clip-rule="evenodd" d="M80.0039 122.365C80.0039 122.365 80.656 117.604 82.0422 123.644C82.0422 123.644 83.5238 119.885 84.2017 123.228C84.2017 123.228 84.3831 124.384 84.1981 125.383C84.1981 125.383 81.8233 124.939 80.0039 123.835V122.365Z" fill="#444444"/>
<path fill-rule="evenodd" clip-rule="evenodd" d="M22.4174 72.3124L12.6466 71.9233C8.0666 86.1357 15.1019 97.5122 15.1019 97.5122L17.8632 97.0211C17.8627 97.0215 21.9733 101.004 27.8763 100.44C35.8959 111.242 50.365 118.453 66.8834 118.453C92.1052 118.453 112.552 101.641 112.552 80.9033C112.552 60.1658 92.1052 43.3545 66.8834 43.3545C45.2569 43.3545 27.1426 55.715 22.4174 72.3124Z" fill="#FFC4B8"/>
<path fill-rule="evenodd" clip-rule="evenodd" d="M94.3106 50.8789C101.019 57.4149 105.063 65.8579 105.063 75.0791C105.063 95.8168 84.617 112.629 59.3952 112.629C49.1024 112.629 39.6057 109.828 31.9688 105.104C40.3458 113.267 52.8773 118.453 66.8839 118.453C92.106 118.453 112.552 101.641 112.552 80.9034C112.552 68.6291 105.388 57.7307 94.3106 50.8789Z" fill="#F4A48D"/>
<path fill-rule="evenodd" clip-rule="evenodd" d="M45.0898 47.8984C45.0898 47.8984 64.9056 38.0754 86.1602 46.8559C86.1602 46.8559 51.9966 40.2111 52.0511 53.0787L45.0898 47.8984Z" fill="#F4A48D"/>
<path fill-rule="evenodd" clip-rule="evenodd" d="M15.9331 93.7678C15.9331 93.7678 10.4313 84.8594 12.3348 72.9629C8.4123 86.6861 15.101 97.5122 15.101 97.5122L23.9358 95.5536L28.2166 93.709L15.9331 93.7678Z" fill="#F4A48D"/>
<path fill-rule="evenodd" clip-rule="evenodd" d="M22.0132 97.512C22.0132 97.512 26.2493 95.9593 29.1168 93.907C31.9026 91.9134 28.7219 93.7853 28.7219 93.7853L17.8633 97.0213C17.8633 97.0213 25.11 104.041 34.1769 98.1152C26.7278 100.721 22.0132 97.512 22.0132 97.512Z" fill="#F4A48D"/>
<path d="M38.1289 32.7363C38.1289 32.7363 51.7252 34.1796 52.0514 53.0789L38.2142 58.1506L38.1289 32.7363Z" fill="#FFC4B8"/>
<path fill-rule="evenodd" clip-rule="evenodd" d="M15.1016 97.5122C15.1016 97.5122 15.1767 97.4918 15.3178 97.454C15.4595 97.4205 15.6632 97.3501 15.9235 97.2819C16.1838 97.2143 16.4963 97.1171 16.8561 97.0089C17.2148 96.8963 17.6216 96.7885 18.0609 96.6495C18.4993 96.5076 18.9737 96.3541 19.4781 96.2074C19.9843 96.0682 20.5033 95.8607 21.0518 95.6953C21.5972 95.519 22.1608 95.337 22.7337 95.1518C23.3026 94.9543 23.881 94.7544 24.4593 94.5542C25.0384 94.3578 25.626 94.185 26.189 93.9691C26.754 93.7587 27.3185 93.5741 27.8605 93.3825C28.4017 93.1902 28.9328 93.0223 29.4355 92.86C29.9284 92.6723 30.4001 92.5069 30.8365 92.3571C31.7073 92.0516 32.4455 91.8198 32.9649 91.6621C33.4845 91.5046 33.7874 91.4268 33.7874 91.4268C33.7874 91.4268 33.5253 91.5932 33.0552 91.8637C32.5856 92.1342 31.9099 92.5154 31.0849 92.9434C30.6731 93.1603 30.2264 93.3933 29.7476 93.6264C29.2617 93.8432 28.7496 94.0741 28.2122 94.2941C27.6755 94.5159 27.1254 94.7579 26.5573 94.9803C25.9964 95.2215 25.4008 95.3996 24.8153 95.6039C24.225 95.7952 23.6347 95.9851 23.0537 96.1728C22.4715 96.358 21.8797 96.4816 21.3183 96.6325C20.7538 96.7748 20.2107 96.9169 19.6822 97.0064C19.1581 97.1094 18.6593 97.192 18.1999 97.2684C17.7419 97.3497 17.3116 97.3803 16.936 97.4232C16.5608 97.4696 16.2298 97.4902 15.9559 97.4991C15.4114 97.528 15.1016 97.5122 15.1016 97.5122Z" fill="#444444"/>
<path d="M90.6754 113.377C63.8653 121.179 46.8555 114.77 46.8555 114.77C46.8555 114.77 64.9768 124.803 90.6754 113.377Z" fill="#A66555"/>
<path d="M82.5138 51.4509C82.3727 51.4509 82.2287 51.4276 82.088 51.3781C69.0904 46.8518 55.5561 50.1032 55.4213 50.1365C54.7284 50.3088 54.0259 49.8843 53.8545 49.1901C53.683 48.4962 54.1069 47.795 54.8008 47.6233C55.3834 47.4799 69.2242 44.1576 82.9395 48.934C83.6143 49.1691 83.9712 49.9068 83.7362 50.582C83.55 51.1161 83.0494 51.4509 82.5138 51.4509Z" fill="#444444"/>
<path fill-rule="evenodd" clip-rule="evenodd" d="M38.1289 32.7368L38.1928 51.6924L42.4006 56.6168C42.9801 48.4058 41.6912 40.1864 38.1853 32.7441C38.1497 32.7395 38.1289 32.7368 38.1289 32.7368Z" fill="#F4A48D"/>
<path fill-rule="evenodd" clip-rule="evenodd" d="M39.8539 53.6376L42.3993 56.6165C42.8791 49.8209 42.0743 43.0213 39.7969 36.6597L39.8539 53.6376Z" fill="#A66555"/>
<path fill-rule="evenodd" clip-rule="evenodd" d="M35.638 67.9449C35.638 69.0681 34.7275 69.9789 33.6041 69.9789C32.4813 69.9789 31.5703 69.0681 31.5703 67.9449C31.5703 66.8221 32.4813 65.9111 33.6041 65.9111C34.7275 65.9111 35.638 66.8221 35.638 67.9449Z" fill="#444444"/>
<path fill-rule="evenodd" clip-rule="evenodd" d="M79.6298 50.6504C79.6106 45.8193 78.1811 37.9909 70.8045 30.1611C70.8045 30.1611 59.9208 31.6447 48.2461 36.1856C48.2461 36.1856 52.2608 42.5647 54.3911 49.9731C54.3911 49.9731 54.8638 50.2081 55.0592 50.1793C63.2201 48.9956 71.8522 48.0028 79.6298 50.6504Z" fill="#1BB3BC"/>
<path fill-rule="evenodd" clip-rule="evenodd" d="M77.105 49.9166C76.5987 44.955 73.8308 39.588 71.8797 35.9812C71.8797 35.9812 68.2866 35.946 68.8155 32.7368C68.8155 32.7368 62.2013 33.1684 53.8193 36.0823C55.7915 37.2532 54.3124 41.1975 52.6484 40.3964C52.6484 40.3964 55.3364 44.5413 56.6648 49.9071C63.4779 48.9611 70.517 48.3244 77.105 49.9166Z" fill="#CEDEE7"/>
<path fill-rule="evenodd" clip-rule="evenodd" d="M82.8919 51.394C82.8919 51.394 86.2187 46.8764 86.6669 36.513C86.6669 36.513 73.678 35.3422 64.875 36.6982C64.875 36.6982 65.6973 45.8322 64.9035 49.0768C64.9035 49.0768 74.6718 48.7391 82.0891 51.378C82.4179 51.4949 82.7225 51.4506 82.8919 51.394Z" fill="#1BB3BC"/>
<path fill-rule="evenodd" clip-rule="evenodd" d="M84.0802 37.8077C80.891 37.3593 71.1839 37.2698 68.5494 37.438C68.9192 39.2867 66.8852 40.165 65.9609 39.2867C66.5128 42.5977 66.7412 46.9137 66.54 49.0656C69.3316 49.0912 75.1131 49.1324 80.9114 50.9895C83.1328 47.567 84.3836 44.2594 85.1897 40.766C84.0802 40.9971 82.8432 38.7191 84.0802 37.8077Z" fill="#CEDEE7"/>
<path fill-rule="evenodd" clip-rule="evenodd" d="M79.628 50.6505C81.9397 45.029 85.3104 39.5337 85.3104 39.5337C79.887 37.3152 63.8631 35.3428 63.8631 35.3428C58.4373 40.4186 56.0371 45.7348 55.1719 50.1734C63.175 48.872 71.3514 48.2237 79.628 50.6505Z" fill="#1BB3BC"/>
<path fill-rule="evenodd" clip-rule="evenodd" d="M76.9714 49.9731C77.8553 47.8794 78.9119 46.033 80.0745 44.1555C78.78 43.5391 77.7321 42.0599 78.8416 39.8414L67.4399 37.561C66.8852 40.2727 64.1119 41.5054 61.8932 40.7657C59.9073 44.1303 58.8122 47.0704 58.2383 49.7128C64.4467 48.8847 70.1978 48.5927 76.9714 49.9731Z" fill="#CEDEE7"/>
<path fill-rule="evenodd" clip-rule="evenodd" d="M115.692 126.12C118.423 126.139 125.433 126.055 129.01 124.16C129.01 124.16 129.673 122.409 129.249 120.729C129.249 120.729 102.877 118.194 102.261 120.729C101.746 122.852 102.322 124.269 102.322 124.269C104.172 125.799 112.753 126.063 115.692 126.12Z" fill="#F6C854"/>
<path d="M129.248 120.73C129.248 120.73 129.029 120.708 128.635 120.673C128.778 122.117 128.281 123.432 128.281 123.432C124.704 125.328 117.694 125.412 114.964 125.393C112.276 125.34 104.872 125.114 102.211 123.906C102.269 124.14 102.321 124.269 102.321 124.269C104.171 125.799 112.752 126.063 115.691 126.121C118.422 126.14 125.432 126.055 129.009 124.16C129.009 124.16 129.672 122.409 129.248 120.73Z" fill="#F6C854"/>
<path d="M128.803 121.573C128.85 121.958 128.866 122.343 128.874 122.728C128.879 123.113 128.876 123.498 128.842 123.884C128.795 123.5 128.779 123.115 128.77 122.73C128.766 122.344 128.769 121.959 128.803 121.573Z" fill="#D39E00"/>
<path d="M127.799 121.906C127.846 122.291 127.862 122.676 127.87 123.061C127.875 123.446 127.872 123.831 127.838 124.217C127.791 123.832 127.775 123.447 127.766 123.062C127.762 122.677 127.765 122.292 127.799 121.906Z" fill="#D39E00"/>
<path d="M126.795 122.151C126.841 122.561 126.855 122.971 126.863 123.381C126.866 123.791 126.862 124.201 126.826 124.611C126.78 124.202 126.766 123.792 126.759 123.382C126.756 122.972 126.76 122.562 126.795 122.151Z" fill="#D39E00"/>
<path d="M125.87 122.445C125.917 122.835 125.933 123.225 125.941 123.616C125.945 124.007 125.942 124.397 125.907 124.789C125.86 124.399 125.845 124.008 125.837 123.618C125.833 123.227 125.836 122.836 125.87 122.445Z" fill="#D39E00"/>
<path d="M124.777 122.809C124.823 123.199 124.839 123.589 124.847 123.98C124.851 124.37 124.848 124.761 124.814 125.153C124.767 124.763 124.751 124.372 124.743 123.982C124.739 123.591 124.742 123.2 124.777 122.809Z" fill="#D39E00"/>
<path fill-rule="evenodd" clip-rule="evenodd" d="M129.247 120.729C129.247 121.925 123.22 122.894 115.784 122.894C108.348 122.894 102.32 121.925 102.32 120.729C102.32 119.533 108.348 118.564 115.784 118.564C123.22 118.564 129.247 119.533 129.247 120.729Z" fill="#D39E00"/>
<path d="M127.611 120.619C127.611 121.34 122.384 121.923 115.936 121.923C109.488 121.923 104.262 121.34 104.262 120.619C104.262 119.899 109.488 119.315 115.936 119.315C122.384 119.315 127.611 119.899 127.611 120.619Z" fill="#F6C854"/>
<path d="M115.938 119.316C122.096 119.32 127.111 119.558 127.612 120.62C127.612 120.62 126.922 119.991 115.938 119.316Z" fill="white"/>
<path d="M104.262 120.62C104.262 121.34 109.489 121.924 115.936 121.924C119.577 121.924 122.789 121.742 124.968 121.446C104.224 121.537 104.262 120.62 104.262 120.62Z" fill="#F6C854"/>
<path fill-rule="evenodd" clip-rule="evenodd" d="M103.412 120.994C105.261 122.524 113.843 122.788 116.782 122.845C119.513 122.865 126.523 122.78 130.099 120.885C130.099 120.885 130.763 119.134 130.339 117.454C130.339 117.454 103.967 114.919 103.351 117.454C102.836 119.578 103.412 120.994 103.412 120.994Z" fill="#F6C854"/>
<path d="M130.342 117.454C130.342 117.454 130.123 117.433 129.729 117.397C129.872 118.842 129.375 120.157 129.375 120.157C125.798 122.052 118.788 122.137 116.057 122.118C113.37 122.065 105.966 121.839 103.305 120.631C103.363 120.865 103.415 120.994 103.415 120.994C105.264 122.524 113.846 122.788 116.785 122.845C119.516 122.865 126.526 122.78 130.102 120.885C130.102 120.885 130.766 119.134 130.342 117.454Z" fill="#F6C854"/>
<path d="M129.897 118.298C129.944 118.683 129.96 119.068 129.968 119.453C129.973 119.838 129.97 120.223 129.935 120.609C129.888 120.225 129.872 119.84 129.864 119.455C129.86 119.069 129.863 118.684 129.897 118.298Z" fill="#D39E00"/>
<path d="M128.889 118.631C128.936 119.015 128.952 119.4 128.96 119.785C128.965 120.17 128.962 120.556 128.928 120.941C128.88 120.557 128.865 120.172 128.856 119.787C128.852 119.402 128.855 119.017 128.889 118.631Z" fill="#D39E00"/>
<path d="M127.885 118.876C127.931 119.286 127.945 119.696 127.953 120.106C127.956 120.516 127.952 120.926 127.916 121.337C127.87 120.927 127.856 120.517 127.848 120.107C127.845 119.697 127.85 119.287 127.885 118.876Z" fill="#D39E00"/>
<path d="M126.96 119.17C127.007 119.56 127.022 119.95 127.031 120.341C127.035 120.732 127.032 121.123 126.997 121.514C126.95 121.124 126.935 120.733 126.927 120.343C126.923 119.952 126.926 119.561 126.96 119.17Z" fill="#D39E00"/>
<path d="M125.87 119.534C125.917 119.924 125.933 120.314 125.941 120.705C125.945 121.096 125.942 121.486 125.907 121.878C125.86 121.488 125.845 121.097 125.837 120.706C125.833 120.316 125.836 119.925 125.87 119.534Z" fill="#D39E00"/>
<path d="M130.341 117.455C130.341 118.651 124.313 119.62 116.878 119.62C109.442 119.62 103.414 118.651 103.414 117.455C103.414 116.259 109.442 115.29 116.878 115.29C124.313 115.29 130.341 116.259 130.341 117.455Z" fill="#D39E00"/>
<path d="M128.701 117.345C128.701 118.065 123.474 118.649 117.026 118.649C110.578 118.649 105.352 118.065 105.352 117.345C105.352 116.625 110.578 116.041 117.026 116.041C123.474 116.041 128.701 116.625 128.701 117.345Z" fill="#F6C854"/>
<path d="M117.027 116.041C123.186 116.045 128.201 116.283 128.702 117.345C128.702 117.345 128.012 116.716 117.027 116.041Z" fill="white"/>
<path d="M105.352 117.345C105.352 118.065 110.578 118.649 117.026 118.649C120.667 118.649 123.878 118.466 126.058 118.171C105.313 118.262 105.352 117.345 105.352 117.345Z" fill="#F6C854"/>
<path fill-rule="evenodd" clip-rule="evenodd" d="M102.322 118.083C104.172 119.613 112.753 119.877 115.692 119.934C118.423 119.954 125.433 119.869 129.01 117.974C129.01 117.974 129.673 116.223 129.249 114.543C129.249 114.543 102.877 112.008 102.261 114.543C101.746 116.667 102.322 118.083 102.322 118.083Z" fill="#F6C854"/>
<path d="M129.248 114.544C129.248 114.544 129.029 114.523 128.635 114.487C128.778 115.931 128.281 117.246 128.281 117.246C124.704 119.142 117.694 119.226 114.964 119.207C112.276 119.155 104.872 118.928 102.211 117.72C102.269 117.954 102.321 118.083 102.321 118.083C104.171 119.613 112.752 119.878 115.691 119.935C118.422 119.954 125.432 119.869 129.009 117.974C129.009 117.974 129.672 116.223 129.248 114.544Z" fill="#F6C854"/>
<path d="M128.803 115.387C128.85 115.772 128.866 116.156 128.874 116.542C128.879 116.927 128.876 117.312 128.842 117.698C128.795 117.314 128.779 116.928 128.77 116.543C128.766 116.158 128.769 115.773 128.803 115.387Z" fill="#D39E00"/>
<path d="M127.799 115.72C127.846 116.104 127.862 116.489 127.87 116.874C127.875 117.259 127.872 117.644 127.838 118.03C127.791 117.646 127.775 117.261 127.766 116.876C127.762 116.491 127.765 116.106 127.799 115.72Z" fill="#D39E00"/>
<path d="M126.795 115.966C126.841 116.375 126.855 116.785 126.863 117.195C126.866 117.605 126.862 118.015 126.826 118.426C126.78 118.016 126.766 117.607 126.759 117.196C126.756 116.786 126.76 116.376 126.795 115.966Z" fill="#D39E00"/>
<path d="M125.87 116.259C125.917 116.649 125.933 117.039 125.941 117.43C125.945 117.821 125.942 118.211 125.907 118.603C125.86 118.213 125.845 117.822 125.837 117.432C125.833 117.041 125.836 116.65 125.87 116.259Z" fill="#D39E00"/>
<path d="M124.777 116.623C124.823 117.012 124.839 117.403 124.847 117.794C124.851 118.184 124.848 118.575 124.814 118.967C124.767 118.577 124.751 118.186 124.743 117.795C124.739 117.405 124.742 117.014 124.777 116.623Z" fill="#D39E00"/>
<path fill-rule="evenodd" clip-rule="evenodd" d="M129.247 114.544C129.247 115.739 123.22 116.709 115.784 116.709C108.348 116.709 102.32 115.739 102.32 114.544C102.32 113.348 108.348 112.379 115.784 112.379C123.22 112.379 129.247 113.348 129.247 114.544Z" fill="#D39E00"/>
<path d="M127.611 114.434C127.611 115.154 122.384 115.738 115.936 115.738C109.488 115.738 104.262 115.154 104.262 114.434C104.262 113.714 109.488 113.13 115.936 113.13C122.384 113.13 127.611 113.714 127.611 114.434Z" fill="#F6C854"/>
<path d="M115.938 113.13C122.096 113.134 127.111 113.372 127.612 114.434C127.612 114.434 126.922 113.804 115.938 113.13Z" fill="white"/>
<path d="M104.262 114.434C104.262 115.154 109.489 115.738 115.936 115.738C119.577 115.738 122.789 115.556 124.968 115.26C104.224 115.351 104.262 114.434 104.262 114.434Z" fill="#F6C854"/>
<path fill-rule="evenodd" clip-rule="evenodd" d="M103.775 114.808C105.625 116.338 114.207 116.602 117.145 116.659C119.877 116.679 126.886 116.594 130.463 114.699C130.463 114.699 131.126 112.948 130.702 111.268C130.702 111.268 104.33 108.733 103.714 111.268C103.199 113.391 103.775 114.808 103.775 114.808Z" fill="#F6C854"/>
<path fill-rule="evenodd" clip-rule="evenodd" d="M130.701 111.269C130.701 111.269 130.482 111.247 130.088 111.212C130.232 112.656 129.734 113.971 129.734 113.971C126.157 115.867 119.148 115.951 116.417 115.932C113.729 115.88 106.326 115.653 103.664 114.445C103.722 114.679 103.774 114.808 103.774 114.808C105.624 116.338 114.206 116.602 117.145 116.66C119.875 116.679 126.885 116.594 130.462 114.699C130.462 114.699 131.125 112.948 130.701 111.269Z" fill="#F6C854"/>
<path d="M130.26 112.112C130.307 112.497 130.323 112.882 130.331 113.267C130.336 113.652 130.333 114.037 130.299 114.423C130.252 114.039 130.236 113.654 130.227 113.269C130.223 112.883 130.226 112.498 130.26 112.112Z" fill="#D39E00"/>
<path d="M129.252 112.445C129.299 112.83 129.315 113.215 129.324 113.6C129.328 113.985 129.325 114.37 129.291 114.756C129.244 114.371 129.228 113.986 129.22 113.601C129.215 113.216 129.218 112.831 129.252 112.445Z" fill="#D39E00"/>
<path d="M128.248 112.691C128.294 113.1 128.308 113.51 128.316 113.92C128.319 114.33 128.315 114.74 128.279 115.151C128.234 114.742 128.219 114.332 128.212 113.922C128.209 113.512 128.213 113.101 128.248 112.691Z" fill="#D39E00"/>
<path d="M127.323 112.984C127.37 113.374 127.386 113.764 127.394 114.155C127.398 114.546 127.395 114.936 127.36 115.328C127.313 114.938 127.298 114.547 127.29 114.157C127.286 113.766 127.289 113.375 127.323 112.984Z" fill="#D39E00"/>
<path d="M126.234 113.348C126.28 113.738 126.296 114.128 126.304 114.519C126.308 114.909 126.305 115.3 126.27 115.691C126.224 115.302 126.208 114.911 126.2 114.52C126.196 114.13 126.199 113.739 126.234 113.348Z" fill="#D39E00"/>
<path d="M130.704 111.268C130.704 112.464 124.677 113.433 117.241 113.433C109.805 113.433 103.777 112.464 103.777 111.268C103.777 110.073 109.805 109.104 117.241 109.104C124.677 109.104 130.704 110.073 130.704 111.268Z" fill="#D39E00"/>
<path d="M129.068 111.159C129.068 111.879 123.841 112.463 117.393 112.463C110.945 112.463 105.719 111.879 105.719 111.159C105.719 110.439 110.945 109.855 117.393 109.855C123.841 109.855 129.068 110.439 129.068 111.159Z" fill="#F6C854"/>
<path d="M117.391 109.855C123.55 109.859 128.564 110.097 129.065 111.159C129.065 111.159 128.375 110.53 117.391 109.855Z" fill="white"/>
<path d="M105.719 111.159C105.719 111.879 110.946 112.463 117.393 112.463C121.034 112.463 124.246 112.281 126.425 111.985C105.681 112.076 105.719 111.159 105.719 111.159Z" fill="#F6C854"/>
<path fill-rule="evenodd" clip-rule="evenodd" d="M101.959 111.533C103.808 113.063 112.39 113.327 115.329 113.384C118.06 113.404 125.07 113.319 128.646 111.424C128.646 111.424 129.31 109.673 128.886 107.993C128.886 107.993 102.513 105.458 101.898 107.993C101.382 110.117 101.959 111.533 101.959 111.533Z" fill="#F6C854"/>
<path d="M128.885 107.993C128.885 107.993 128.666 107.972 128.272 107.937C128.415 109.381 127.918 110.696 127.918 110.696C124.341 112.591 117.331 112.676 114.6 112.657C111.913 112.604 104.509 112.378 101.848 111.17C101.906 111.404 101.958 111.533 101.958 111.533C103.807 113.063 112.389 113.327 115.328 113.384C118.059 113.404 125.069 113.319 128.645 111.424C128.645 111.424 129.309 109.673 128.885 107.993Z" fill="#F6C854"/>
<path d="M128.44 108.837C128.487 109.221 128.503 109.606 128.511 109.992C128.516 110.377 128.513 110.762 128.478 111.148C128.431 110.764 128.415 110.378 128.407 109.993C128.403 109.608 128.406 109.223 128.44 108.837Z" fill="#D39E00"/>
<path d="M127.436 109.17C127.483 109.554 127.499 109.939 127.507 110.324C127.512 110.709 127.509 111.095 127.475 111.48C127.427 111.096 127.412 110.711 127.403 110.326C127.399 109.941 127.402 109.556 127.436 109.17Z" fill="#D39E00"/>
<path d="M126.432 109.416C126.478 109.825 126.492 110.235 126.499 110.645C126.503 111.055 126.499 111.465 126.463 111.875C126.417 111.466 126.402 111.056 126.395 110.646C126.392 110.236 126.397 109.826 126.432 109.416Z" fill="#D39E00"/>
<path d="M125.503 109.709C125.55 110.099 125.565 110.489 125.574 110.88C125.578 111.271 125.575 111.662 125.54 112.053C125.493 111.663 125.478 111.272 125.47 110.882C125.466 110.491 125.469 110.1 125.503 109.709Z" fill="#D39E00"/>
<path d="M124.413 110.073C124.46 110.463 124.476 110.853 124.484 111.244C124.488 111.635 124.485 112.025 124.45 112.417C124.403 112.027 124.388 111.636 124.38 111.245C124.376 110.855 124.379 110.464 124.413 110.073Z" fill="#D39E00"/>
<path fill-rule="evenodd" clip-rule="evenodd" d="M128.884 107.994C128.884 109.19 122.856 110.159 115.421 110.159C107.985 110.159 101.957 109.19 101.957 107.994C101.957 106.798 107.985 105.829 115.421 105.829C122.856 105.829 128.884 106.798 128.884 107.994Z" fill="#D39E00"/>
<path d="M127.248 107.884C127.248 108.604 122.021 109.188 115.573 109.188C109.125 109.188 103.898 108.604 103.898 107.884C103.898 107.164 109.125 106.58 115.573 106.58C122.021 106.58 127.248 107.164 127.248 107.884Z" fill="#F6C854"/>
<path d="M115.57 106.58C121.729 106.584 126.744 106.822 127.245 107.884C127.245 107.884 126.555 107.255 115.57 106.58Z" fill="white"/>
<path d="M103.898 107.884C103.898 108.604 109.125 109.188 115.573 109.188C119.213 109.188 122.425 109.006 124.605 108.71C103.86 108.801 103.898 107.884 103.898 107.884Z" fill="#F6C854"/>
<path fill-rule="evenodd" clip-rule="evenodd" d="M103.412 108.622C105.261 110.152 113.843 110.416 116.782 110.473C119.513 110.493 126.523 110.408 130.099 108.513C130.099 108.513 130.763 106.762 130.339 105.082C130.339 105.082 103.967 102.547 103.351 105.082C102.836 107.206 103.412 108.622 103.412 108.622Z" fill="#F6C854"/>
<path d="M130.342 105.083C130.342 105.083 130.123 105.062 129.729 105.026C129.872 106.47 129.375 107.785 129.375 107.785C125.798 109.681 118.788 109.765 116.057 109.746C113.37 109.694 105.966 109.467 103.305 108.259C103.363 108.494 103.415 108.623 103.415 108.623C105.264 110.152 113.846 110.417 116.785 110.474C119.516 110.493 126.526 110.408 130.102 108.513C130.102 108.513 130.766 106.763 130.342 105.083Z" fill="#F6C854"/>
<path d="M130.341 105.083C130.341 106.278 124.313 107.248 116.878 107.248C109.442 107.248 103.414 106.278 103.414 105.083C103.414 103.887 109.442 102.918 116.878 102.918C124.313 102.918 130.341 103.887 130.341 105.083Z" fill="#D39E00"/>
<path d="M128.701 104.973C128.701 105.693 123.474 106.277 117.026 106.277C110.578 106.277 105.352 105.693 105.352 104.973C105.352 104.253 110.578 103.669 117.026 103.669C123.474 103.669 128.701 104.253 128.701 104.973Z" fill="#F6C854"/>
<path d="M117.027 103.669C123.186 103.673 128.201 103.911 128.702 104.973C128.702 104.973 128.012 104.344 117.027 103.669Z" fill="white"/>
<path d="M105.352 104.973C105.352 105.693 110.578 106.277 117.026 106.277C120.667 106.277 123.878 106.095 126.058 105.799C105.313 105.89 105.352 104.973 105.352 104.973Z" fill="#F6C854"/>
<path fill-rule="evenodd" clip-rule="evenodd" d="M103.412 105.347C105.261 106.877 113.843 107.141 116.782 107.198C119.513 107.218 126.523 107.133 130.099 105.238C130.099 105.238 130.763 103.487 130.339 101.808C130.339 101.808 103.967 99.2721 103.351 101.808C102.836 103.931 103.412 105.347 103.412 105.347Z" fill="#F6C854"/>
<path fill-rule="evenodd" clip-rule="evenodd" d="M130.342 101.808C130.342 101.808 130.123 101.787 129.729 101.751C129.872 103.195 129.375 104.511 129.375 104.511C125.798 106.406 118.788 106.49 116.057 106.471C113.37 106.419 105.966 106.192 103.305 104.984C103.363 105.218 103.415 105.347 103.415 105.347C105.264 106.877 113.846 107.142 116.785 107.199C119.516 107.218 126.526 107.133 130.102 105.238C130.102 105.238 130.766 103.487 130.342 101.808Z" fill="#D39E00"/>
<path fill-rule="evenodd" clip-rule="evenodd" d="M130.341 101.807C130.341 103.003 124.313 103.972 116.878 103.972C109.442 103.972 103.414 103.003 103.414 101.807C103.414 100.612 109.442 99.6426 116.878 99.6426C124.313 99.6426 130.341 100.612 130.341 101.807Z" fill="#D39E00"/>
<path d="M128.701 101.698C128.701 102.418 123.474 103.002 117.026 103.002C110.578 103.002 105.352 102.418 105.352 101.698C105.352 100.978 110.578 100.394 117.026 100.394C123.474 100.394 128.701 100.978 128.701 101.698Z" fill="#F6C854"/>
<path d="M117.027 100.394C123.186 100.398 128.201 100.636 128.702 101.698C128.702 101.698 128.012 101.069 117.027 100.394Z" fill="white"/>
<path d="M105.352 101.698C105.352 102.418 110.578 103.002 117.026 103.002C120.667 103.002 123.878 102.82 126.058 102.524C105.313 102.615 105.352 101.698 105.352 101.698Z" fill="#F6C854"/>
<path fill-rule="evenodd" clip-rule="evenodd" d="M102.322 102.436C104.172 103.966 112.753 104.23 115.692 104.287C118.423 104.307 125.433 104.222 129.01 102.327C129.01 102.327 129.673 100.576 129.249 98.8964C129.249 98.8964 102.877 96.361 102.261 98.8964C101.746 101.02 102.322 102.436 102.322 102.436Z" fill="#F6C854"/>
<path d="M129.248 98.8966C129.248 98.8966 129.029 98.8756 128.635 98.8398C128.778 100.284 128.281 101.599 128.281 101.599C124.704 103.495 117.694 103.579 114.964 103.56C112.276 103.508 104.872 103.281 102.211 102.073C102.269 102.307 102.321 102.436 102.321 102.436C104.171 103.966 112.752 104.231 115.691 104.288C118.422 104.307 125.432 104.222 129.009 102.327C129.009 102.327 129.672 100.576 129.248 98.8966Z" fill="#F6C854"/>
<path fill-rule="evenodd" clip-rule="evenodd" d="M129.247 98.8968C129.247 100.092 123.22 101.062 115.784 101.062C108.348 101.062 102.32 100.092 102.32 98.8968C102.32 97.701 108.348 96.7319 115.784 96.7319C123.22 96.7319 129.247 97.701 129.247 98.8968Z" fill="#D39E00"/>
<path d="M127.611 98.7867C127.611 99.5071 122.384 100.091 115.936 100.091C109.488 100.091 104.262 99.5071 104.262 98.7867C104.262 98.0668 109.488 97.4829 115.936 97.4829C122.384 97.4829 127.611 98.0668 127.611 98.7867Z" fill="#F6C854"/>
<path d="M115.938 97.4829C122.096 97.4871 127.111 97.7253 127.612 98.7867C127.612 98.7867 126.922 98.1577 115.938 97.4829Z" fill="white"/>
<path d="M104.262 98.7866C104.262 99.507 109.489 100.091 115.936 100.091C119.577 100.091 122.789 99.9086 124.968 99.6133C104.224 99.7042 104.262 98.7866 104.262 98.7866Z" fill="#F6C854"/>
<path fill-rule="evenodd" clip-rule="evenodd" d="M104.138 99.5253C105.988 101.055 114.57 101.32 117.509 101.377C120.24 101.396 127.249 101.311 130.826 99.4162C130.826 99.4162 131.49 97.6655 131.065 95.9857C131.065 95.9857 104.693 93.4504 104.078 95.9857C103.562 98.1089 104.138 99.5253 104.138 99.5253Z" fill="#F6C854"/>
<path d="M131.068 95.9855C131.068 95.9855 130.849 95.9645 130.455 95.9287C130.599 97.3728 130.101 98.6883 130.101 98.6883C126.525 100.583 119.515 100.668 116.784 100.649C114.096 100.597 106.693 100.37 104.031 99.162C104.09 99.3963 104.141 99.5251 104.141 99.5251C105.991 101.055 114.573 101.319 117.512 101.376C120.243 101.396 127.252 101.311 130.829 99.4159C130.829 99.4159 131.493 97.6651 131.068 95.9855Z" fill="#F6C854"/>
<path fill-rule="evenodd" clip-rule="evenodd" d="M131.068 95.9854C131.068 97.1813 125.04 98.1505 117.604 98.1505C110.168 98.1505 104.141 97.1813 104.141 95.9854C104.141 94.7896 110.168 93.8208 117.604 93.8208C125.04 93.8208 131.068 94.7896 131.068 95.9854Z" fill="#D39E00"/>
<path d="M129.431 95.8758C129.431 96.596 124.204 97.18 117.757 97.18C111.309 97.18 106.082 96.596 106.082 95.8758C106.082 95.1559 111.309 94.5718 117.757 94.5718C124.204 94.5718 129.431 95.1559 129.431 95.8758Z" fill="#F6C854"/>
<path d="M117.754 94.5718C123.913 94.5759 128.927 94.8142 129.428 95.8758C129.428 95.8758 128.738 95.2466 117.754 94.5718Z" fill="white"/>
<path d="M106.082 95.876C106.082 96.5961 111.309 97.1802 117.757 97.1802C121.397 97.1802 124.609 96.9977 126.789 96.7025C106.044 96.7934 106.082 95.876 106.082 95.876Z" fill="#F6C854"/>
<path fill-rule="evenodd" clip-rule="evenodd" d="M103.412 96.2506C105.261 97.7804 113.843 98.0446 116.782 98.1019C119.513 98.121 126.523 98.0365 130.099 96.1416C130.099 96.1416 130.763 94.3908 130.339 92.7108C130.339 92.7108 103.967 90.1755 103.351 92.7108C102.836 94.834 103.412 96.2506 103.412 96.2506Z" fill="#F6C854"/>
<path d="M130.342 92.7109C130.342 92.7109 130.123 92.6899 129.729 92.6543C129.872 94.0984 129.375 95.4136 129.375 95.4136C125.798 97.309 118.788 97.3935 116.057 97.3741C113.37 97.3219 105.966 97.0955 103.305 95.8876C103.363 96.1217 103.415 96.2507 103.415 96.2507C105.264 97.7803 113.846 98.0448 116.785 98.102C119.516 98.1211 126.526 98.0367 130.102 96.1415C130.102 96.1415 130.766 94.3907 130.342 92.7109Z" fill="#F6C854"/>
<path d="M130.341 92.7105C130.341 93.9064 124.313 94.8758 116.878 94.8758C109.442 94.8758 103.414 93.9064 103.414 92.7105C103.414 91.5149 109.442 90.5459 116.878 90.5459C124.313 90.5459 130.341 91.5149 130.341 92.7105Z" fill="#D39E00"/>
<path d="M128.701 92.6007C128.701 93.3211 123.474 93.9049 117.026 93.9049C110.578 93.9049 105.352 93.3211 105.352 92.6007C105.352 91.8807 110.578 91.2969 117.026 91.2969C123.474 91.2969 128.701 91.8807 128.701 92.6007Z" fill="#F6C854"/>
<path d="M117.027 91.2974C123.186 91.3013 128.201 91.5396 128.702 92.6012C128.702 92.6012 128.012 91.9722 117.027 91.2974Z" fill="white"/>
<path d="M105.352 92.6011C105.352 93.3214 110.578 93.9053 117.026 93.9053C120.667 93.9053 123.878 93.723 126.058 93.4278C105.313 93.5185 105.352 92.6011 105.352 92.6011Z" fill="#F6C854"/>
<path fill-rule="evenodd" clip-rule="evenodd" d="M104.506 93.3393C106.355 94.8691 114.937 95.1334 117.876 95.1906C120.607 95.2098 127.617 95.1253 131.193 93.2303C131.193 93.2303 131.857 91.4795 131.433 89.7997C131.433 89.7997 105.06 87.2643 104.445 89.7997C103.929 91.9227 104.506 93.3393 104.506 93.3393Z" fill="#F6C854"/>
<path fill-rule="evenodd" clip-rule="evenodd" d="M131.432 89.7995C131.432 89.7995 131.213 89.7783 130.819 89.7427C130.962 91.1867 130.464 92.5022 130.464 92.5022C126.888 94.3974 119.878 94.4819 117.147 94.4627C114.459 94.4103 107.056 94.1841 104.395 92.976C104.453 93.2101 104.505 93.3391 104.505 93.3391C106.354 94.8687 114.936 95.1332 117.875 95.1904C120.606 95.2095 127.615 95.125 131.192 93.2299C131.192 93.2299 131.856 91.4791 131.432 89.7995Z" fill="#F6C854"/>
<path fill-rule="evenodd" clip-rule="evenodd" d="M131.431 89.7996C131.431 90.9952 125.403 91.9647 117.967 91.9647C110.532 91.9647 104.504 90.9952 104.504 89.7996C104.504 88.6038 110.532 87.6348 117.967 87.6348C125.403 87.6348 131.431 88.6038 131.431 89.7996Z" fill="#D39E00"/>
<path d="M129.794 89.6901C129.794 90.4104 124.567 90.9943 118.12 90.9943C111.672 90.9943 106.445 90.4104 106.445 89.6901C106.445 88.9701 111.672 88.3862 118.12 88.3862C124.567 88.3862 129.794 88.9701 129.794 89.6901Z" fill="#F6C854"/>
<path d="M118.121 88.3862C124.28 88.3902 129.294 88.6286 129.795 89.6901C129.795 89.6901 129.105 89.061 118.121 88.3862Z" fill="white"/>
<path d="M106.445 89.6899C106.445 90.4103 111.672 90.9942 118.12 90.9942C121.76 90.9942 124.972 90.8119 127.152 90.5166C106.407 90.6076 106.445 89.6899 106.445 89.6899Z" fill="#F6C854"/>
<path fill-rule="evenodd" clip-rule="evenodd" d="M103.049 90.4282C104.898 91.9582 113.48 92.2225 116.419 92.2795C119.15 92.2988 126.159 92.2141 129.736 90.3192C129.736 90.3192 130.4 88.5684 129.976 86.8886C129.976 86.8886 103.603 84.3531 102.988 86.8886C102.472 89.0118 103.049 90.4282 103.049 90.4282Z" fill="#F6C854"/>
<path d="M129.975 86.8883C129.975 86.8883 129.756 86.8673 129.362 86.8315C129.505 88.2756 129.007 89.5911 129.007 89.5911C125.431 91.4863 118.421 91.5707 115.69 91.5516C113.002 91.4994 105.599 91.273 102.938 90.0649C102.996 90.299 103.048 90.428 103.048 90.428C104.897 91.9578 113.479 92.2222 116.418 92.2792C119.149 92.2986 126.158 92.2139 129.735 90.3187C129.735 90.3187 130.399 88.568 129.975 86.8883Z" fill="#F6C854"/>
<path fill-rule="evenodd" clip-rule="evenodd" d="M129.974 86.8885C129.974 88.0841 123.946 89.0535 116.51 89.0535C109.075 89.0535 103.047 88.0841 103.047 86.8885C103.047 85.6927 109.075 84.7236 116.51 84.7236C123.946 84.7236 129.974 85.6927 129.974 86.8885Z" fill="#D39E00"/>
<path d="M128.337 86.7789C128.337 87.4993 123.11 88.0832 116.663 88.0832C110.215 88.0832 104.988 87.4993 104.988 86.7789C104.988 86.059 110.215 85.4751 116.663 85.4751C123.11 85.4751 128.337 86.059 128.337 86.7789Z" fill="#F6C854"/>
<path d="M116.664 85.4751C122.823 85.4793 127.837 85.7175 128.338 86.7789C128.338 86.7789 127.648 86.1499 116.664 85.4751Z" fill="#FFE99F"/>
<path fill-rule="evenodd" clip-rule="evenodd" d="M104.988 86.7788C104.988 87.4992 110.215 88.083 116.663 88.083C120.303 88.083 123.515 87.9008 125.695 87.6055C104.95 87.6964 104.988 86.7788 104.988 86.7788Z" fill="#FFE99F"/>
<path fill-rule="evenodd" clip-rule="evenodd" d="M123.06 127.18C124.91 128.71 133.492 128.974 136.431 129.032C139.162 129.051 146.171 128.966 149.748 127.071C149.748 127.071 150.412 125.32 149.987 123.64C149.987 123.64 123.615 121.105 123 123.64C122.484 125.764 123.06 127.18 123.06 127.18Z" fill="#F6C854"/>
<path d="M149.99 123.64C149.99 123.64 149.771 123.619 149.377 123.583C149.52 125.028 149.023 126.343 149.023 126.343C145.446 128.238 138.437 128.323 135.706 128.303C133.018 128.251 125.615 128.025 122.953 126.817C123.011 127.051 123.063 127.18 123.063 127.18C124.913 128.71 133.495 128.974 136.434 129.031C139.165 129.05 146.174 128.966 149.751 127.071C149.751 127.071 150.415 125.32 149.99 123.64Z" fill="#F6C854"/>
<path fill-rule="evenodd" clip-rule="evenodd" d="M149.99 123.64C149.99 124.836 143.962 125.805 136.526 125.805C129.09 125.805 123.062 124.836 123.062 123.64C123.062 122.445 129.09 121.476 136.526 121.476C143.962 121.476 149.99 122.445 149.99 123.64Z" fill="#D39E00"/>
<path d="M148.353 123.53C148.353 124.251 143.126 124.835 136.679 124.835C130.231 124.835 125.004 124.251 125.004 123.53C125.004 122.81 130.231 122.227 136.679 122.227C143.126 122.227 148.353 122.81 148.353 123.53Z" fill="#F6C854"/>
<path d="M136.676 122.227C142.835 122.231 147.849 122.469 148.35 123.53C148.35 123.53 147.66 122.901 136.676 122.227Z" fill="white"/>
<path d="M125.004 123.53C125.004 124.251 130.231 124.835 136.679 124.835C140.319 124.835 143.531 124.652 145.711 124.357C124.966 124.448 125.004 123.53 125.004 123.53Z" fill="#F6C854"/>
<path fill-rule="evenodd" clip-rule="evenodd" d="M124.881 124.269C126.73 125.799 135.312 126.063 138.251 126.12C140.982 126.139 147.992 126.055 151.568 124.16C151.568 124.16 152.232 122.409 151.808 120.729C151.808 120.729 125.435 118.194 124.82 120.729C124.304 122.852 124.881 124.269 124.881 124.269Z" fill="#F6C854"/>
<path fill-rule="evenodd" clip-rule="evenodd" d="M151.807 120.73C151.807 120.73 151.588 120.708 151.194 120.673C151.337 122.117 150.84 123.432 150.84 123.432C147.263 125.328 140.253 125.412 137.522 125.393C134.835 125.34 127.431 125.114 124.77 123.906C124.828 124.14 124.88 124.269 124.88 124.269C126.729 125.799 135.311 126.063 138.25 126.121C140.981 126.14 147.991 126.055 151.567 124.16C151.567 124.16 152.231 122.409 151.807 120.73Z" fill="#F6C854"/>
<path fill-rule="evenodd" clip-rule="evenodd" d="M151.81 120.729C151.81 121.925 145.782 122.894 138.347 122.894C130.911 122.894 124.883 121.925 124.883 120.729C124.883 119.533 130.911 118.564 138.347 118.564C145.782 118.564 151.81 119.533 151.81 120.729Z" fill="#D39E00"/>
<path d="M150.169 120.619C150.169 121.34 144.943 121.923 138.495 121.923C132.047 121.923 126.82 121.34 126.82 120.619C126.82 119.899 132.047 119.315 138.495 119.315C144.943 119.315 150.169 119.899 150.169 120.619Z" fill="#F6C854"/>
<path d="M138.496 119.316C144.655 119.32 149.67 119.558 150.17 120.62C150.17 120.62 149.48 119.991 138.496 119.316Z" fill="white"/>
<path d="M126.82 120.62C126.82 121.34 132.047 121.924 138.495 121.924C142.135 121.924 145.347 121.742 147.527 121.446C126.782 121.537 126.82 120.62 126.82 120.62Z" fill="#F6C854"/>
<path fill-rule="evenodd" clip-rule="evenodd" d="M123.428 120.994C125.277 122.524 133.859 122.788 136.798 122.845C139.529 122.865 146.538 122.78 150.115 120.885C150.115 120.885 150.779 119.134 150.355 117.454C150.355 117.454 123.982 114.919 123.367 117.454C122.851 119.578 123.428 120.994 123.428 120.994Z" fill="#F6C854"/>
<path fill-rule="evenodd" clip-rule="evenodd" d="M150.354 117.454C150.354 117.454 150.135 117.433 149.741 117.397C149.884 118.842 149.387 120.157 149.387 120.157C145.81 122.052 138.8 122.137 136.069 122.118C133.381 122.065 125.978 121.839 123.316 120.631C123.375 120.865 123.427 120.994 123.427 120.994C125.276 122.524 133.858 122.788 136.797 122.845C139.528 122.865 146.538 122.78 150.114 120.885C150.114 120.885 150.778 119.134 150.354 117.454Z" fill="#F6C854"/>
<path d="M150.353 117.455C150.353 118.651 144.325 119.62 136.889 119.62C129.454 119.62 123.426 118.651 123.426 117.455C123.426 116.259 129.454 115.29 136.889 115.29C144.325 115.29 150.353 116.259 150.353 117.455Z" fill="#D39E00"/>
<path d="M148.716 117.345C148.716 118.065 143.489 118.649 137.042 118.649C130.594 118.649 125.367 118.065 125.367 117.345C125.367 116.625 130.594 116.041 137.042 116.041C143.489 116.041 148.716 116.625 148.716 117.345Z" fill="#F6C854"/>
<path d="M137.043 116.041C143.202 116.045 148.216 116.283 148.717 117.345C148.717 117.345 148.027 116.716 137.043 116.041Z" fill="white"/>
<path d="M125.367 117.345C125.367 118.065 130.594 118.649 137.042 118.649C140.682 118.649 143.894 118.466 146.074 118.171C125.329 118.262 125.367 117.345 125.367 117.345Z" fill="#F6C854"/>
<path fill-rule="evenodd" clip-rule="evenodd" d="M123.791 117.719C125.64 119.249 134.222 119.513 137.161 119.571C139.892 119.59 146.902 119.505 150.478 117.61C150.478 117.61 151.142 115.86 150.718 114.18C150.718 114.18 124.346 111.644 123.73 114.18C123.214 116.303 123.791 117.719 123.791 117.719Z" fill="#F6C854"/>
<path fill-rule="evenodd" clip-rule="evenodd" d="M150.717 114.18C150.717 114.18 150.498 114.159 150.104 114.123C150.247 115.567 149.75 116.882 149.75 116.882C146.173 118.778 139.163 118.862 136.433 118.843C133.745 118.791 126.341 118.564 123.68 117.356C123.738 117.59 123.79 117.719 123.79 117.719C125.639 119.249 134.221 119.514 137.16 119.571C139.891 119.59 146.901 119.505 150.478 117.61C150.478 117.61 151.141 115.859 150.717 114.18Z" fill="#F6C854"/>
<path fill-rule="evenodd" clip-rule="evenodd" d="M150.716 114.179C150.716 115.375 144.688 116.345 137.253 116.345C129.817 116.345 123.789 115.375 123.789 114.179C123.789 112.984 129.817 112.015 137.253 112.015C144.688 112.015 150.716 112.984 150.716 114.179Z" fill="#D39E00"/>
<path d="M149.079 114.07C149.079 114.79 143.853 115.374 137.405 115.374C130.957 115.374 125.73 114.79 125.73 114.07C125.73 113.35 130.957 112.766 137.405 112.766C143.853 112.766 149.079 113.35 149.079 114.07Z" fill="#F6C854"/>
<path d="M137.406 112.766C143.565 112.77 148.579 113.008 149.081 114.07C149.081 114.07 148.391 113.441 137.406 112.766Z" fill="white"/>
<path d="M125.73 114.07C125.73 114.79 130.957 115.374 137.405 115.374C141.045 115.374 144.257 115.192 146.437 114.897C125.692 114.987 125.73 114.07 125.73 114.07Z" fill="#F6C854"/>
<path fill-rule="evenodd" clip-rule="evenodd" d="M122.697 114.444C124.547 115.974 133.128 116.239 136.067 116.296C138.798 116.315 145.808 116.23 149.385 114.335C149.385 114.335 150.048 112.585 149.624 110.905C149.624 110.905 123.252 108.369 122.636 110.905C122.121 113.028 122.697 114.444 122.697 114.444Z" fill="#F6C854"/>
<path fill-rule="evenodd" clip-rule="evenodd" d="M149.623 110.904C149.623 110.904 149.404 110.883 149.01 110.848C149.153 112.292 148.656 113.607 148.656 113.607C145.079 115.502 138.07 115.587 135.339 115.568C132.651 115.515 125.247 115.289 122.586 114.081C122.644 114.315 122.696 114.444 122.696 114.444C124.546 115.974 133.127 116.238 136.067 116.295C138.797 116.315 145.807 116.23 149.384 114.335C149.384 114.335 150.047 112.584 149.623 110.904Z" fill="#F6C854"/>
<path fill-rule="evenodd" clip-rule="evenodd" d="M149.626 110.905C149.626 112.1 143.598 113.07 136.163 113.07C128.727 113.07 122.699 112.1 122.699 110.905C122.699 109.709 128.727 108.74 136.163 108.74C143.598 108.74 149.626 109.709 149.626 110.905Z" fill="#D39E00"/>
<path d="M147.99 110.795C147.99 111.515 142.763 112.099 136.315 112.099C129.867 112.099 124.641 111.515 124.641 110.795C124.641 110.075 129.867 109.491 136.315 109.491C142.763 109.491 147.99 110.075 147.99 110.795Z" fill="#F6C854"/>
<path d="M136.312 109.491C142.472 109.495 147.486 109.733 147.987 110.795C147.987 110.795 147.297 110.166 136.312 109.491Z" fill="#FFE99F"/>
<path fill-rule="evenodd" clip-rule="evenodd" d="M124.641 110.795C124.641 111.515 129.868 112.099 136.315 112.099C139.955 112.099 143.168 111.917 145.347 111.622C124.603 111.713 124.641 110.795 124.641 110.795Z" fill="#FFE99F"/>
<path fill-rule="evenodd" clip-rule="evenodd" d="M114.163 36.835C114.163 36.835 114.462 37.196 109.505 41.6493L101.532 36.9342L100.605 37.9723C100.605 37.9723 105.126 43.3524 109.806 46.3602C109.806 46.3602 112.947 43.2896 116.225 38.644L114.163 36.835Z" fill="#F4A48D"/>
<path fill-rule="evenodd" clip-rule="evenodd" d="M113.677 85.2331C113.677 85.2331 113.992 86.5059 113.888 86.9306C113.888 86.9306 109.567 87.2192 107.973 86.9306C107.973 86.9306 106.927 86.2829 111.962 85.2724L112.687 83.9805L113.677 85.2331Z" fill="#444444"/>
<path fill-rule="evenodd" clip-rule="evenodd" d="M127.757 82.483C127.757 82.483 128.932 83.0648 129.189 83.4183C129.189 83.4183 126.619 86.9037 125.37 87.9341C125.37 87.9341 124.199 88.3151 126.68 83.8179L126.161 82.4302L127.757 82.483Z" fill="#444444"/>
<path fill-rule="evenodd" clip-rule="evenodd" d="M113.434 51.4935C113.434 51.4935 111.371 52.8498 111.962 85.2724L114.531 86.582C114.531 86.582 116.184 72.081 118.664 50.2222C118.664 50.2222 113.396 52.3129 113.434 51.4935Z" fill="#9BC3D3"/>
<path fill-rule="evenodd" clip-rule="evenodd" d="M113.715 51.455C113.715 51.455 114.166 59.7917 117.443 70.165C118.416 73.2444 125.654 84.6479 125.654 84.6479L127.974 82.5963C127.974 82.5963 121.711 70.7118 121.574 69.6036C120.836 63.6492 125.142 53.8163 121.378 49.4443C121.378 49.4443 115.289 51.7288 113.715 51.455Z" fill="#DEEDF2"/>
<path d="M113.288 44.1751C113.288 44.1751 111.407 41.3518 110.68 40.2877C110.68 40.2877 113.93 35.9614 115.85 35.4849C115.85 35.4849 117.799 39.8518 113.288 44.1751Z" fill="#CC0000"/>
<path fill-rule="evenodd" clip-rule="evenodd" d="M111.664 55.9873C111.64 57.5966 123.611 53.9979 123.303 53.1471C120.244 44.6872 119.253 39.489 118.8 37.6858C117.395 32.091 115.854 33.7799 114.097 35.2269C114.097 35.2269 112.429 35.9048 112.213 36.9026C111.055 42.266 111.664 55.9873 111.664 55.9873Z" fill="#EC0000"/>
<path fill-rule="evenodd" clip-rule="evenodd" d="M117.519 26.5703C117.519 26.5703 116.455 30.0298 117.226 34.1107C117.238 34.17 112.844 37.6251 112.256 37.0908C111.923 36.7884 114.572 33.4692 112.387 31.1809C112.094 30.8753 111.918 30.4772 111.65 30.1501C111.5 29.9659 111.343 29.787 111.184 29.6103C111.133 29.554 110.725 29.0477 110.68 29.0641L117.519 26.5703Z" fill="#F4A48D"/>
<path fill-rule="evenodd" clip-rule="evenodd" d="M108.618 26.0661C108.66 29.0019 108.643 33.567 111.298 33.4677C115.186 33.3227 117.868 29.1045 117.955 26.4482C118.04 23.7923 115.956 21.5689 113.301 21.4836C110.645 21.3975 108.578 23.409 108.618 26.0661Z" fill="#FFC4B8"/>
<path fill-rule="evenodd" clip-rule="evenodd" d="M105.806 36.9026C105.806 41.6717 101.94 45.538 97.171 45.538C92.4015 45.538 88.5352 41.6717 88.5352 36.9026C88.5352 32.1336 92.4015 28.2671 97.171 28.2671C101.94 28.2671 105.806 32.1336 105.806 36.9026Z" fill="#D39E00"/>
<path d="M104.058 36.9026C104.058 40.7046 100.976 43.787 97.1738 43.787C93.3713 43.787 90.2891 40.7046 90.2891 36.9026C90.2891 33.1005 93.3713 30.0181 97.1738 30.0181C100.976 30.0181 104.058 33.1005 104.058 36.9026Z" fill="#F6C854"/>
<path fill-rule="evenodd" clip-rule="evenodd" d="M43.7492 115.286C47.0268 104.913 47.4775 96.5764 47.4775 96.5764C45.903 96.8504 39.8142 94.5659 39.8142 94.5659C36.0501 98.9379 40.9838 108.374 40.2462 114.328C40.1228 115.324 34.5492 125.337 33.4198 127.358C33.4146 127.361 33.4104 127.363 33.4052 127.367C33.406 127.37 33.4079 127.374 33.4089 127.377C33.288 127.594 33.2188 127.718 33.2188 127.718L33.7593 128.196C34.3076 129.168 35.2883 130.023 36.351 130.44C36.351 130.44 35.4233 129.469 34.6686 128.005C34.6686 128.005 42.9523 117.808 43.7492 115.286Z" fill="#F4A48D"/>
<path fill-rule="evenodd" clip-rule="evenodd" d="M47.9222 130.308C48.5135 97.8852 47.7607 96.6146 47.7607 96.6146C47.7988 97.4338 42.5312 95.3433 42.5312 95.3433C45.0113 117.202 46.5432 130.641 46.5432 130.641L46.5572 130.637C46.5549 130.644 46.5526 130.65 46.5501 130.657C47.6685 131.401 49.417 131.528 50.7907 131.036C50.7907 131.036 49.4534 130.915 47.9222 130.308Z" fill="#F4A48D"/>
<path fill-rule="evenodd" clip-rule="evenodd" d="M50.263 100.777C50.263 100.777 49.7014 103.651 50.2087 104.015C50.3536 104.118 50.5373 102.798 50.587 102.706C50.6613 102.567 51.3288 104.657 51.5265 104.628C51.8297 104.584 51.1072 102.858 51.2556 102.879C51.4206 102.901 52.4508 104.809 52.6901 104.727C52.8773 104.664 51.7229 102.813 51.9426 102.636C52.1545 102.466 52.9516 104.39 53.184 104.073C53.3303 103.874 52.1948 101.801 52.3459 101.53C52.3459 101.53 56.2004 102.805 51.685 100.1L51.5515 99.3989L49.8945 100.089L50.263 100.777Z" fill="#F4A48D"/>
<path fill-rule="evenodd" clip-rule="evenodd" d="M47.6921 82.2031L49.3971 91.3627L51.6306 99.6926L50.0157 100.367L46.705 92.4674L44.8984 82.7797L47.6921 82.2031Z" fill="#9BC3D3"/>
<path fill-rule="evenodd" clip-rule="evenodd" d="M47.0717 96.596C47.225 98.1987 39.4885 95.4096 39.8147 94.5656C42.1949 88.4088 41.0257 83.3787 41.2465 81.533C41.856 76.4388 43.484 77.8161 45.3515 79.1174L47.388 80.5781C47.388 80.5781 49.264 82.6745 49.5039 84.6659C49.6716 86.0585 47.3982 89.8445 47.5061 91.2971L47.0717 96.596Z" fill="#9BC3D3"/>
<path fill-rule="evenodd" clip-rule="evenodd" d="M41.2461 70.7642C41.2461 70.7642 42.4735 74.418 42.0333 78.5473C42.0266 78.6071 45.3134 80.0961 45.8684 80.3462C46.2235 80.5064 47.4654 81.048 47.3875 80.578C47.3139 80.1344 43.5225 76.7117 46.7333 74.9472C47.1037 74.7435 47.1435 74.2077 47.384 73.8604C47.5192 73.6646 47.6612 73.4736 47.8056 73.2846C47.8522 73.2243 48.2176 72.687 48.2644 72.6999L41.2461 70.7642Z" fill="#F4A48D"/>
<path fill-rule="evenodd" clip-rule="evenodd" d="M50.0764 69.5458C50.2701 72.4757 48.6858 76.5453 47.661 76.8635C43.9456 78.0171 41.1003 73.3183 40.8005 70.6773C40.5017 68.037 42.4002 65.6537 45.0399 65.3547C47.6802 65.0552 49.902 66.8944 50.0764 69.5458Z" fill="#F4A48D"/>
<path fill-rule="evenodd" clip-rule="evenodd" d="M40.5957 92.1382C40.5957 92.1382 36.1018 97.5717 38.6818 103.672C38.6818 103.672 39.8052 109.033 39.1397 115.964L48.265 117.398C48.265 117.398 49.3387 97.1 47.2858 92.9886L40.5957 92.1382Z" fill="#34466B"/>
<path fill-rule="evenodd" clip-rule="evenodd" d="M51.3417 92.693C51.3417 97.4624 47.4754 101.329 42.7062 101.329C37.9366 101.329 34.0703 97.4624 34.0703 92.693C34.0703 87.9241 37.9366 84.0571 42.7062 84.0571C47.4754 84.0571 51.3417 87.9241 51.3417 92.693Z" fill="#D39E00"/>
<path fill-rule="evenodd" clip-rule="evenodd" d="M49.5932 92.6933C49.5932 96.4953 46.5109 99.5782 42.7089 99.5782C38.9067 99.5782 35.8242 96.4953 35.8242 92.6933C35.8242 88.8915 38.9067 85.8086 42.7089 85.8086C46.5109 85.8086 49.5932 88.8915 49.5932 92.6933Z" fill="#F6C854"/>
<path fill-rule="evenodd" clip-rule="evenodd" d="M45.709 96.9902C45.2345 97.3117 44.4386 97.6332 43.4282 97.6332C42.1883 97.6332 41.0861 97.1588 40.3208 96.2709C39.7392 95.6277 39.3563 94.7401 39.2186 93.6379H38.2695V92.8877H39.1418V92.6582C39.1418 92.4131 39.1574 92.1834 39.1726 91.9693H38.2695V91.2038H39.2798C39.4635 90.1324 39.9225 89.2443 40.5351 88.6169C41.3158 87.8054 42.3106 87.3462 43.566 87.3462C44.4692 87.3462 45.1734 87.6065 45.6018 87.8362L45.2957 88.8464C44.9131 88.6169 44.2701 88.418 43.5814 88.418C42.7547 88.418 42.0809 88.7087 41.5605 89.2599C41.1013 89.7037 40.7952 90.3927 40.6423 91.2038H44.9131V91.9693H40.5043C40.4891 92.1682 40.4737 92.3979 40.4737 92.612V92.8877H44.9131V93.6379H40.5809C40.7032 94.5255 41.0097 95.1839 41.423 95.6429C41.9894 96.2401 42.7547 96.531 43.5814 96.531C44.3925 96.531 45.0968 96.2247 45.4489 96.0258L45.709 96.9902Z" fill="#D39E00"/>
<path fill-rule="evenodd" clip-rule="evenodd" d="M50.7879 131.036C49.4142 131.527 47.6657 131.401 46.5473 130.657C46.5512 130.66 46.4104 131.218 46.4037 131.267C46.3203 131.867 46.8193 132.133 47.3257 132.172C48.0902 132.229 50.9646 132.195 51.6275 132.152C51.6937 132.148 52.2715 132.14 52.2784 132.021C52.2784 132.021 52.3579 130.641 50.7879 131.036Z" fill="#444444"/>
<path fill-rule="evenodd" clip-rule="evenodd" d="M36.3492 130.44C34.9915 129.907 33.757 128.662 33.4034 127.366C33.4047 127.371 32.9315 127.699 32.8943 127.731C32.4367 128.129 32.6377 128.658 32.9942 129.019C33.5322 129.565 35.7208 131.429 36.2483 131.832C36.3009 131.873 36.7417 132.247 36.8245 132.162C36.8245 132.162 37.7925 131.174 36.3492 130.44Z" fill="#444444"/>
<path fill-rule="evenodd" clip-rule="evenodd" d="M47.5756 96.4595C47.5756 96.4595 48.2473 96.9246 48.7265 97.9142C48.7265 97.9142 49.4737 99.1104 49.8774 98.1632C49.8774 98.1632 49.9394 97.9932 50.2623 97.9265C50.7055 97.8349 50.4001 97.6148 50.8772 97.2288C51.0428 97.095 50.98 96.8678 50.9579 96.7487C50.9134 96.5124 51.579 96.2081 50.5853 95.947C50.5853 95.947 51.8123 94.9453 51.2126 94.9453C51.2126 94.9453 49.9525 95.37 49.2463 95.5535L47.4766 95.0244L47.5756 96.4595Z" fill="#F4A48D"/>
<path fill-rule="evenodd" clip-rule="evenodd" d="M44.7539 81.4927C44.7539 81.4927 44.4514 83.5331 42.4977 89.4862L48.3626 95.343L47.7575 96.6146C47.7575 96.6146 42.5346 94.1172 38.6797 90.5239C38.6797 90.5239 40.6219 82.0871 42.1575 80.9038C43.6931 79.7205 44.7539 81.4927 44.7539 81.4927Z" fill="#9BC3D3"/>
<path fill-rule="evenodd" clip-rule="evenodd" d="M49.2383 66.1172C49.1438 65.9499 49.0254 65.7999 48.8903 65.6632L48.8889 65.6618H48.8887C48.3036 65.0712 47.3764 64.7595 46.408 64.6569C44.5835 64.4636 42.4301 64.6153 40.9796 65.8617C39.5083 67.1258 39.567 69.0451 40.1284 70.7584C40.4026 71.596 41.1165 75.1641 42.1804 75.2386C42.4813 74.018 43.1624 72.2551 43.8546 71.1636C44.5646 70.0449 45.4344 68.9022 46.5771 68.5663C46.2255 70.0223 45.4928 71.5716 45.4928 71.5716C51.0515 69.9211 49.9472 67.1916 49.2383 66.1172Z" fill="#444444"/>
<path fill-rule="evenodd" clip-rule="evenodd" d="M42.5654 63.9592C39.7865 63.61 35.4801 65.393 36.368 68.8274C36.7346 70.2456 37.666 71.5759 37.6358 73.0799C37.6048 74.6192 36.2192 75.5883 35.895 76.9999C35.534 78.5727 36.9082 79.5049 37.8277 80.517C38.3701 81.114 38.7149 81.8539 38.6458 82.6713C38.5975 83.2399 38.286 83.6902 38.0272 84.1792C37.702 84.7926 38.1294 85.1004 38.7211 85.0417C39.8485 84.9304 40.6015 83.87 40.6975 82.8119C40.8267 81.3895 39.5697 80.1637 39.8677 78.7544C40.109 77.6116 41.0857 76.7591 41.2193 75.5874C41.3862 74.1232 40.1234 72.9956 39.7759 71.6504C39.3279 69.9169 39.414 68.3825 40.7701 67.7058C42.0487 67.0679 44.2383 66.5169 44.8749 65.28C45.3085 64.4373 43.1715 64.0522 42.7175 63.9808C42.6674 63.9729 42.6166 63.9656 42.5654 63.9592Z" fill="#444444"/>
<path fill-rule="evenodd" clip-rule="evenodd" d="M44.6114 64.5879C44.6114 64.5879 44.504 64.6298 44.3347 64.7036C44.1645 64.7825 43.9327 64.8951 43.6746 65.0413C43.5477 65.1225 43.4081 65.1916 43.2718 65.2892C43.1311 65.3747 42.9913 65.4775 42.8475 65.5809C42.7019 65.6804 42.5656 65.806 42.4168 65.913C42.283 66.0439 42.1284 66.15 41.9963 66.2873C41.8619 66.4213 41.7137 66.5397 41.5878 66.682C41.4632 66.8244 41.3146 66.9419 41.1995 67.0857C41.0791 67.2239 40.9511 67.351 40.8337 67.4775C40.723 67.6092 40.613 67.7322 40.5068 67.8452C40.3978 67.9561 40.2994 68.0616 40.2164 68.1592C40.134 68.2566 40.0514 68.3377 39.9852 68.406C39.8512 68.5421 39.7617 68.617 39.7617 68.617C39.7617 68.617 39.7634 68.5048 39.7886 68.3132C39.8021 68.2177 39.8162 68.0999 39.8443 67.969C39.8672 67.8354 39.8999 67.6869 39.9569 67.5329C40.0095 67.3768 40.0715 67.2089 40.1427 67.0322C40.2232 66.8608 40.3215 66.6852 40.4253 66.5044C40.5227 66.3194 40.6648 66.1525 40.7982 65.9769C40.9255 65.7956 41.1003 65.6464 41.2576 65.4839C41.4205 65.3268 41.6111 65.1953 41.7897 65.0615C41.9834 64.9448 42.1704 64.8254 42.37 64.7423C42.566 64.6533 42.761 64.5819 42.9534 64.5351C43.1405 64.4783 43.3299 64.4602 43.4969 64.4371C43.8399 64.4117 44.1241 64.4446 44.3164 64.4883C44.5103 64.5347 44.6114 64.5879 44.6114 64.5879Z" fill="#F6C854"/>
<path d="M44.9766 70.2835C45.2179 70.9225 45.2292 72.5214 44.5897 72.7625C43.4326 73.1993 42.9033 71.796 42.6619 71.1566C42.4209 70.5176 42.7437 69.8041 43.3827 69.5629C44.0219 69.3217 44.7356 69.6443 44.9766 70.2835Z" fill="#F4A48D"/>
<path fill-rule="evenodd" clip-rule="evenodd" d="M99.9433 41.3896C99.4689 41.7109 98.673 42.0326 97.6626 42.0326C96.4227 42.0326 95.3205 41.5582 94.5551 40.6701C93.9734 40.0271 93.5907 39.1395 93.4527 38.0373H92.5039V37.2869H93.3762V37.0576C93.3762 36.8125 93.3918 36.5828 93.407 36.3687H92.5039V35.6032H93.5141C93.6979 34.5316 94.1569 33.6437 94.7695 33.0163C95.5502 32.2046 96.545 31.7456 97.8003 31.7456C98.7036 31.7456 99.4075 32.0057 99.8362 32.2356L99.5301 33.2456C99.1472 33.0163 98.5045 32.8172 97.8155 32.8172C96.9888 32.8172 96.3153 33.1081 95.7949 33.6591C95.3356 34.1029 95.0296 34.7919 94.8764 35.6032H99.1472V36.3687H94.7387C94.7235 36.5676 94.7081 36.7973 94.7081 37.0115V37.2869H99.1472V38.0373H94.8152C94.9376 38.9249 95.2441 39.5833 95.6571 40.0423C96.2237 40.6395 96.9888 40.9302 97.8155 40.9302C98.6268 40.9302 99.331 40.6241 99.6832 40.4252L99.9433 41.3896Z" fill="#D39E00"/>
<path fill-rule="evenodd" clip-rule="evenodd" d="M114.255 39.0487C114.255 39.0487 114.577 39.3918 109.831 44.1218L101.837 40.0381C101.743 33.9203 101.095 38.3982 101.095 38.3982C100.731 38.3928 99.2908 36.0167 99.0019 36.0482C98.5435 36.0979 100.03 38.0418 99.7323 38.1568C99.4231 38.2761 98.2204 36.0124 98.046 36.1653C97.8226 36.3609 99.1551 38.532 99.0812 38.713C99.0144 38.8764 97.6844 37.1246 97.4615 37.4067C97.3159 37.5915 99.0475 39.5008 98.8634 39.4952C98.7408 39.4914 97.2884 38.9003 97.3088 39.1084C97.3802 39.8387 100.635 40.9605 100.635 40.9605C100.635 40.9605 105.51 46.073 110.408 48.808C110.408 48.808 113.7 45.7929 116.74 40.9676L114.255 39.0487Z" fill="#FFC4B8"/>
<path fill-rule="evenodd" clip-rule="evenodd" d="M118.185 35.8915C118.185 35.8915 119.864 38.3857 116.209 44.8626L112.059 41.541C112.059 41.541 116.096 34.5157 118.185 35.8915Z" fill="#CC0000"/>
<path d="M117.686 28.4682C117.951 27.9271 118.676 26.9323 118.784 26.0563C119.025 24.1045 117.675 22.7671 117.076 22.361C116.881 22.2217 116.641 22.0927 116.313 21.954C115.617 21.0198 114.067 20.9066 114.387 21.053C110.391 20.5714 109.132 24.1241 107.992 23.9035C108.921 25.2865 109.969 25.0984 111.331 24.741C111.905 25.2942 112.178 26.0074 112.213 26.692C112.208 26.9125 112.184 27.4009 112.089 27.8356C111.962 28.4179 112.406 28.6459 112.602 28.5832C112.799 28.521 112.742 28.5875 113.132 28.1221C113.432 27.7638 113.522 27.4896 113.71 27.2277C114.064 26.8403 114.492 26.5073 114.872 26.6002C115.375 26.7244 115.251 27.6209 114.949 28.2681C114.787 28.6142 114.815 28.9593 114.924 29.1723C115.166 29.6425 115.606 29.3606 116.132 29.7893C116.56 30.1391 116.841 30.7381 117.051 30.9878C117.228 29.7187 117.288 29.2778 117.686 28.4682Z" fill="#A66555"/>
</svg>
