<svg width="161" height="160" viewBox="0 0 161 160" fill="none" xmlns="http://www.w3.org/2000/svg">
<path fill-rule="evenodd" clip-rule="evenodd" d="M158.936 30.9297L133.468 87.5025C117.929 122.016 89.2144 143.277 58.1389 143.277H0.0136719L25.4828 86.7039C41.0207 52.1907 69.7356 30.9297 100.811 30.9297H158.936Z" fill="#DEEDF2"/>
<path fill-rule="evenodd" clip-rule="evenodd" d="M108.215 117.617C89.0394 116.59 68.8524 121.229 58.6182 124.75C52.4868 126.859 50.8026 130.732 44.3889 131.78C31.5077 133.884 1.26142 134.507 0.663347 137.609C-0.514059 143.714 9.69029 146.977 33.2258 149.801C32.7176 150.219 36.0924 157.859 55.067 159.584C62.5751 160.266 75.1686 159.586 79.9984 158.094C87.4219 155.802 95.1329 154.569 102.901 154.393C130.528 153.767 152.193 150.63 152.447 145.887C152.532 144.302 150.937 142.104 148.438 140.826C146.881 140.03 149.167 139.359 149.698 139.168C156.218 136.821 159.875 134.201 160.008 132.121C160.426 125.594 136.361 119.124 108.215 117.617Z" fill="#DEEDF2"/>
<path d="M111.55 61.8931L109.287 61.7272L111.551 61.8931" fill="#137E84"/>
<path d="M129.04 63.1726L122.799 62.7158L129.04 63.1726Z" fill="#137E84"/>
<path fill-rule="evenodd" clip-rule="evenodd" d="M100.833 80.4808C93.8655 79.9393 85.1095 83.7057 83.0334 89.6829C80.926 83.7227 70.2286 80.0928 63.2637 80.6902C44.8839 82.2671 38.7148 102.864 46.5455 116.667C50.7599 124.096 56.8053 130.581 63.3979 136.401C68.9183 141.273 83.1522 151.598 83.1954 151.563C83.239 151.598 97.4181 141.159 102.913 136.241C109.475 130.369 115.486 123.835 119.662 116.372C127.42 102.506 119.221 81.9091 100.833 80.4808Z" fill="#2A8FEC"/>
<path fill-rule="evenodd" clip-rule="evenodd" d="M115.483 113.768C110.669 113.91 105.856 114.052 101.042 114.194C99.2837 107.859 97.5248 101.525 95.7659 95.1902C95.5118 94.2746 94.1548 94.3489 93.8704 95.1979C90.1724 106.252 86.4743 117.306 82.7763 128.359C82.5616 128.999 82.3477 129.64 82.1338 130.28C79.5802 123.023 77.0269 115.767 74.4733 108.51C74.064 107.346 73.6547 106.183 73.245 105.019C72.9982 104.318 71.842 104.043 71.4478 104.805C69.6149 108.342 67.7819 111.88 65.949 115.418C60.5616 115.44 55.1746 115.462 49.7869 115.483C48.5225 115.489 48.5252 117.345 49.7919 117.34C55.3824 117.318 60.9723 117.295 66.5629 117.272C66.8897 117.271 67.2608 117.097 67.4101 116.809C68.981 113.777 70.5515 110.745 72.1223 107.714C74.742 115.158 77.3614 122.603 79.9814 130.048C80.3907 131.212 80.8003 132.375 81.2096 133.539C81.5168 134.412 82.8079 134.421 83.1054 133.532C86.8035 122.478 90.5016 111.424 94.1996 100.37C94.3766 99.8413 94.5535 99.3127 94.7301 98.7836C96.2674 104.321 97.8047 109.858 99.3422 115.395C99.4492 115.78 99.867 116.085 100.292 116.073C105.357 115.924 110.422 115.774 115.488 115.624C116.75 115.587 116.751 113.731 115.483 113.768Z" fill="white"/>
<path fill-rule="evenodd" clip-rule="evenodd" d="M93.3821 32.0566C91.97 31.019 91.0527 29.3465 91.0527 27.4615C91.0527 24.3163 93.6063 21.7627 96.7515 21.7627C99.6556 21.7627 102.055 23.9398 102.406 26.7495C102.467 27.0422 102.512 27.3382 102.543 27.6341L102.543 27.6346L102.544 27.6411L102.544 27.6434C102.553 27.7319 102.561 27.8204 102.568 27.9087L102.96 32.3062L102.067 32.6052L102.057 32.6073L102.057 32.6074C102.035 32.684 102.023 32.7254 102.023 32.7254L101.999 33.3202L101.955 34.4321C101.94 34.8 101.863 35.1606 101.729 35.4995C101.635 35.7388 101.511 35.9679 101.36 36.1806C101.183 36.4302 100.971 36.6541 100.734 36.8433C100.611 36.9425 100.48 37.031 100.343 37.1099C100.27 37.1518 100.198 37.1902 100.123 37.2263L100.122 37.2266L100.506 44.1726C100.506 44.1726 98.4783 44.7835 96.2579 44.2987C94.9158 44.0082 93.5019 43.3144 92.4233 41.8458C92.4233 41.8458 93.6999 36.3125 93.3821 32.0566Z" fill="#FFC4B8"/>
<path fill-rule="evenodd" clip-rule="evenodd" d="M96.278 44.2165C94.9358 43.926 93.5219 43.2322 92.4434 41.7636C92.4434 41.7636 93.8242 35.8345 93.3561 31.5257C93.3561 31.5257 96.4972 39.1836 96.278 44.2165ZM102.064 32.6301C101.751 32.7218 101.443 32.4762 101.464 32.1512L101.595 30.0566L102.064 32.6301Z" fill="#F4A48D"/>
<path fill-rule="evenodd" clip-rule="evenodd" d="M94.8649 21.7056C97.3699 21.6177 97.0623 19.4663 97.0623 19.4663C99.7431 19.5542 100.886 20.564 100.886 20.564C103.04 22.276 102.186 25.7108 102.186 25.7108C101.857 23.1189 97.8867 24.2239 96.3325 24.4841C95.6975 25.1069 95.9426 26.6272 95.6206 27.9085C95.6148 27.9317 94.9241 29.6659 94.9241 29.6659L94.9233 29.668L94.8844 29.8481C94.873 29.8187 94.861 29.7892 94.8486 29.7597C94.4308 28.7707 93.5798 28.1857 92.9483 28.4517C92.3164 28.7182 92.1432 29.7355 92.561 30.7245C92.7065 31.069 93.0742 31.3645 93.2972 31.5921C93.4704 33.0443 93.438 34.393 93.3158 35.5509L92.6678 35.5789L90.3381 24.5154C90.1648 23.0344 90.8251 22.3585 91.8819 22.0346C92.7046 21.7823 93.7676 21.744 94.8649 21.7056Z" fill="#CEDEE7"/>
<path fill-rule="evenodd" clip-rule="evenodd" d="M102.85 45.6858C103.362 44.8593 105.843 43.2036 105.843 43.2036C105.843 43.2036 108.018 45.5367 108.573 48.2132C109.129 50.8911 114.159 61.2726 114.376 62.1676C114.593 63.062 114.076 66.7588 114.076 66.7588L109.734 65.3046C109.734 65.3046 109.478 62.5363 107.971 60.5772C106.464 58.6173 102.887 53.742 102.37 50.4055C101.853 47.0683 101.608 47.6902 102.85 45.6858Z" fill="white"/>
<path fill-rule="evenodd" clip-rule="evenodd" d="M98.4873 44.0594C95.7886 44.5089 93.7736 43.3468 92.4424 40.5732C92.7294 40.5732 91.5096 41.1471 88.7832 42.2951L94.6982 51.0728L103.627 46.3976L103.42 42.0799L100.191 40.3579C100.754 42.5432 100.186 43.777 98.4873 44.0594Z" fill="white"/>
<path fill-rule="evenodd" clip-rule="evenodd" d="M116.292 113.011L118.018 117.49L112.775 115.002L112.989 110.741L116.561 110.127L116.292 113.011Z" fill="#CEDEE7"/>
<path fill-rule="evenodd" clip-rule="evenodd" d="M108.709 71.0637C108.709 71.0637 118.756 79.3388 119.876 81.9018C120.998 84.464 117.207 112.926 117.207 112.926L112.282 112.633C112.282 112.633 111.815 103.301 111.383 98.3319C110.935 93.1673 111.474 85.6987 111.474 85.6987C111.474 85.6987 105.795 83.405 102.936 82.718C91.332 79.9271 93.7102 72.6651 93.8703 68.021L108.709 71.0637Z" fill="#CEDEE7"/>
<path fill-rule="evenodd" clip-rule="evenodd" d="M99.8516 113.687L101.504 119.53L95.5801 116.25L96.8619 110.59L100.363 111.526L99.8516 113.687Z" fill="#CEDEE7"/>
<path fill-rule="evenodd" clip-rule="evenodd" d="M99.9447 72.4043C99.9447 72.4043 107.743 78.0106 108.865 80.5735C109.986 83.1358 100.363 113.678 100.363 113.678L95.5575 113.887C95.5575 113.887 97.8493 101.074 98.3297 96.1086C98.8101 91.1442 99.5127 85.0575 99.5127 85.0575C99.5127 85.0575 92.9281 84.1018 90.3342 82.718C85.8327 80.3152 86.9628 77.0497 87.1229 72.4043H99.9447Z" fill="#CEDEE7"/>
<path fill-rule="evenodd" clip-rule="evenodd" d="M99.0422 47.1766C99.0422 47.1766 101.459 63.9296 101.264 65.7802C101.069 67.6316 101.605 72.9505 100.323 73.8578C97.1612 76.0985 88.7408 74.8877 87.0677 74.8877C87.0677 74.8877 86.5065 67.2093 86.3115 62.631C86.1165 58.054 88.0647 51.9176 87.8697 49.6769C87.6753 47.4368 85.2402 43.4429 85.2402 43.4429L92.0108 40.7886C92.9376 45.0472 95.2814 47.1766 99.0422 47.1766Z" fill="#34466B"/>
<path fill-rule="evenodd" clip-rule="evenodd" d="M99.041 47.1765C99.041 47.1765 99.2709 71.3877 100.732 73.1409C102.194 74.8947 109.395 73.6213 109.784 73.8163C110.174 74.0107 106.959 64.7741 106.959 62.485C106.959 60.1965 105.843 43.2033 105.843 43.2033L100.619 40.5732C102.176 43.8716 101.65 46.0727 99.041 47.1765Z" fill="#34466B"/>
<path fill-rule="evenodd" clip-rule="evenodd" d="M99.3027 73.3087L99.8581 71.5361C99.8581 71.5361 104.465 73.0162 105.731 73.3087C106.997 73.6006 109.029 74.5743 109.029 74.5743H100.958L99.3027 73.3087Z" fill="#FFC4B8"/>
<path fill-rule="evenodd" clip-rule="evenodd" d="M101.445 71.9451L100.958 74.5745C100.958 74.5745 89.1985 73.7499 87.1134 70.2733C86.1093 68.6001 85.7832 68.3328 84.6557 62.6955C82.198 50.4072 83.5844 44.1248 85.2407 43.4429C86.8964 42.761 89.8068 46.3649 89.5207 49.385C89.234 52.4044 91.824 66.178 91.824 66.178C91.824 66.178 95.3065 69.0451 101.445 71.9451Z" fill="white"/>
<path fill-rule="evenodd" clip-rule="evenodd" d="M104.518 75.4043H109.395L114.271 58.3413H110.564L104.518 75.4043Z" fill="#767676"/>
<path fill-rule="evenodd" clip-rule="evenodd" d="M105.916 75.4043H124.95L129.826 58.3413H110.793L105.916 75.4043Z" fill="#767676"/>
<path fill-rule="evenodd" clip-rule="evenodd" d="M103.115 76.2903H124.949V75.0176H103.115V76.2903Z" fill="#444444"/>
<path fill-rule="evenodd" clip-rule="evenodd" d="M92.2012 76.2903H103.118V75.0176H92.2012V76.2903Z" fill="#444444"/>
<path fill-rule="evenodd" clip-rule="evenodd" d="M58.8457 70.8823C58.8457 70.8823 63.3212 68.1113 63.8753 68.6282C64.4293 69.1448 62.5571 70.628 62.5571 70.628C62.5571 70.628 68.0231 75.5468 67.8278 76.2786C67.6325 77.0105 59.0629 73.5231 59.0629 73.5231L58.8457 70.8823Z" fill="#F4A48D"/>
<path fill-rule="evenodd" clip-rule="evenodd" d="M40.2877 95.6486L40.6699 120.705L35.753 152.38L31.8836 152.549L29.9511 123.213L23.1314 94.353L40.2877 95.6486Z" fill="#444444"/>
<path fill-rule="evenodd" clip-rule="evenodd" d="M30.7051 96.8864L26.957 121.619L17.9539 152.15L14.0987 151.785L15.9569 122.522L13.9638 93.1572L30.7051 96.8864Z" fill="#444444"/>
<path fill-rule="evenodd" clip-rule="evenodd" d="M23.2032 47.7583C20.3145 46.5813 18.2559 43.5479 18.2559 39.9952C18.2559 35.422 21.6671 31.709 25.8689 31.709C29.1938 31.709 32.0236 34.034 33.06 37.2702L33.0729 37.2735L35.0616 43.7307L34.8788 43.8079L34.7833 43.8483L33.6077 44.0978L33.6026 47.4893L33.5452 47.6949C33.4522 47.9798 33.3237 48.2562 33.1594 48.5159C32.968 48.8196 32.7309 49.097 32.4621 49.3364C32.3218 49.4619 32.1715 49.5757 32.0129 49.6781C31.9288 49.7334 31.8448 49.7839 31.7586 49.8316C31.6912 49.8697 31.6233 49.9052 31.5537 49.9379L31.3416 50.04L32.0174 57.5182C32.0174 57.5182 28.5468 58.3296 26.9401 58.0034L26.7256 57.9565L26.7211 57.9556C25.1877 57.6309 23.6646 57.1199 22.3773 55.5613C22.3773 55.5613 22.3809 55.5439 22.3875 55.5103L22.3773 55.4984C22.3773 55.4984 22.4978 54.9321 22.6483 54.0071C22.8779 52.5316 23.1746 50.1843 23.2032 47.7583Z" fill="#F4A48D"/>
<path fill-rule="evenodd" clip-rule="evenodd" d="M31.3591 51.9235C30.3153 51.6211 28.113 50.4316 26.459 48.4968L31.1796 50.1159C31.1796 50.1159 31.27 51.0398 31.3591 51.9235ZM33.8687 43.8895C33.4428 44.0261 33.0063 43.7166 33.0178 43.2864L33.0919 40.5127L33.8687 43.8895Z" fill="#A66555"/>
<path fill-rule="evenodd" clip-rule="evenodd" d="M23.2602 48.3305L22.0759 47.6757C20.6579 46.855 19.4569 45.6315 18.6703 44.0707C16.5156 39.7952 18.2819 34.6056 22.6151 32.4792C26.5161 30.5649 31.1716 31.7874 33.6297 35.1752L32.6556 35.9551C32.4345 35.8915 32.0684 35.7896 31.6201 35.6752C30.0091 35.2558 27.3376 34.6628 26.5013 35.0658C25.2767 35.6563 25.3338 37.8799 25.5197 39.644C25.7016 41.3695 25.8657 42.1189 25.0739 42.4577C24.7836 42.5819 24.6042 41.1246 23.9384 40.6866C23.235 40.224 22.3367 40.695 22.4683 42.2794C22.686 42.9993 22.8534 43.709 22.9791 44.402C23.1895 45.6415 23.2666 46.9933 23.2602 48.3305Z" fill="#767676"/>
<path fill-rule="evenodd" clip-rule="evenodd" d="M18.1482 151.354H14.1298L13.9629 155.322L18.7985 155.738H22.3336L21.6758 153.898L20.9608 153.438L18.1482 151.354Z" fill="#CEDEE7"/>
<path fill-rule="evenodd" clip-rule="evenodd" d="M36.0859 150.157L40.8691 153.545L40.4909 155.551L31.1034 154.593L31.9006 150.157H36.0859Z" fill="#CEDEE7"/>
<path fill-rule="evenodd" clip-rule="evenodd" d="M37.3776 59.897C37.3776 59.897 38.1457 73.9146 59.9417 70.049L59.231 73.9708C59.231 73.9708 37.9436 83.5903 27.9829 61.1115C27.8845 60.8891 27.1191 61.5572 27.1191 61.5572C28.2579 61.0194 34.3075 61.5739 37.3776 59.897Z" fill="#767676"/>
<path fill-rule="evenodd" clip-rule="evenodd" d="M14.1975 66.4452C12.5664 75.8841 11.4978 95.6696 12.1798 101.338C12.1798 101.338 31.1891 104.948 42.0738 100.08C42.0738 100.08 41.2889 72.9595 37.3782 60.0017C36.5021 57.0982 33.9841 54.9721 30.9703 54.5781C30.4426 54.5093 29.8642 54.4544 29.2312 54.4182C21.9005 54.0023 15.4451 59.2271 14.1975 66.4452Z" fill="#767676"/>
<path fill-rule="evenodd" clip-rule="evenodd" d="M30.2822 87.779C36.2876 92.6587 54.3041 78.0204 54.3041 78.0204L52.8025 75.0178L36.6631 79.522L27.8548 65.4214C27.8548 65.4214 23.7256 60.9176 19.5973 63.1697C15.4686 65.4214 17.7203 69.9256 17.7203 69.9256C17.7203 69.9256 24.2769 82.8997 30.2822 87.779Z" fill="#767676"/>
<path fill-rule="evenodd" clip-rule="evenodd" d="M22.4824 54.2056L38.1304 74.9329L31.4901 54.5003L22.4824 54.2056Z" fill="#EAF7FE"/>
<path fill-rule="evenodd" clip-rule="evenodd" d="M21.1387 56.343L28.7882 59.1177L30.5537 55.6136L32.1177 56.9461L32.6982 54.635L31.1767 53.2969C31.1767 53.2969 30.1566 54.8953 26.9184 54.2934C23.7841 53.7106 22.4797 53.4344 22.4797 53.4344L21.1387 56.343Z" fill="#EAF7FE"/>
<path fill-rule="evenodd" clip-rule="evenodd" d="M29.3105 57.6817L31.072 59.2625L31.4981 66.4513L38.1384 74.8622L34.8675 64.9518L31.8692 59.1298L31.9401 56.6226L30.4581 55.29L29.3105 57.6817Z" fill="#2A8FEC"/>
<path fill-rule="evenodd" clip-rule="evenodd" d="M52.9199 75.2545C52.9199 75.2545 53.0399 73.124 53.3333 72.4715C53.6789 71.703 55.17 69.3193 55.3044 70.0823C55.4383 70.8456 54.8376 72.0382 54.8376 72.0382C54.8376 72.0382 58.557 69.7658 59.4542 70.3952C60.3511 71.0242 57.4058 75.7289 56.605 76.7023C55.8042 77.6756 54.1683 78.044 54.1683 78.044L52.9199 75.2545Z" fill="#F4A48D"/>
</svg>
