<svg width="161" height="160" viewBox="0 0 161 160" fill="none" xmlns="http://www.w3.org/2000/svg">
<path fill-rule="evenodd" clip-rule="evenodd" d="M153.072 77.7073C151.197 70.9828 157.156 70.7233 157.287 62.0586C157.341 58.5149 155.399 54.9057 150.728 53.2501C148.432 52.4367 146.144 51.8775 144.102 50.5837C139.447 47.6356 139.531 42.0259 138.261 37.2438C135.472 26.7408 124.74 18.3966 113.876 18.6681C106.044 18.8634 98.9637 19.1034 91.8238 25.7509C86.9383 30.2996 83.7631 35.8963 79.2274 40.5855C74.424 45.5513 68.5708 47.9338 61.9985 49.5294C55.7828 51.0381 49.0212 52.8334 44.2638 57.358C39.7929 61.6099 40.4446 66.0571 42.3614 71.2779C44.4755 77.0349 39.8917 80.9516 35.1123 83.1935C31.0882 85.0809 24.3519 88.9201 24.1316 95.9993C23.4501 117.926 37.3777 118.014 42.5704 120.098C90.3391 139.27 108.671 124.482 128.926 124.782C149.117 125.079 160.692 100.661 159.99 93.4702C159.1 84.3397 154.381 82.4029 153.072 77.7073Z" fill="#DEEDF2"/>
<path fill-rule="evenodd" clip-rule="evenodd" d="M134.155 26.5625C133.607 22.1093 129.811 18.6616 125.211 18.6616C120.235 18.6616 116.2 22.6972 116.2 27.6756C116.2 28.4924 116.308 29.2838 116.512 30.0361C116.436 30.0371 116.36 30.0398 116.284 30.0442L116.2 30.0372V30.0499C113.618 30.2438 111.584 32.4005 111.584 35.0322C111.584 37.664 113.618 39.8207 116.2 40.0146V40.0296H149.009V40.029H149.009C151.02 40.029 152.65 38.3979 152.65 36.386C152.65 34.3741 151.02 32.7431 149.009 32.7431H149.009V32.743L140.696 32.0575C140.734 31.8091 140.754 31.5548 140.754 31.2958C140.754 28.5364 138.518 26.2992 135.759 26.2992C135.198 26.2992 134.658 26.3918 134.155 26.5625Z" fill="#DEEDF2"/>
<path fill-rule="evenodd" clip-rule="evenodd" d="M115.199 52.1389C115.574 49.0773 118.166 46.707 121.307 46.707C124.706 46.707 127.461 49.4815 127.461 52.9042C127.461 53.4657 127.387 54.0098 127.248 54.527C127.3 54.5277 127.352 54.5295 127.404 54.5326L127.462 54.5278V54.5364C129.224 54.6698 130.614 56.1525 130.614 57.9618C130.614 59.7712 129.224 61.2539 127.462 61.3872V61.3975H105.055V61.3971H105.055C103.682 61.3971 102.568 60.2757 102.568 58.8925C102.568 57.5094 103.682 56.3881 105.055 56.3881H105.055V56.388L110.732 55.9167C110.706 55.7459 110.693 55.5711 110.693 55.3931C110.693 53.4959 112.22 51.9579 114.104 51.9579C114.487 51.9579 114.856 52.0215 115.199 52.1389Z" fill="#EAF7FE"/>
<path fill-rule="evenodd" clip-rule="evenodd" d="M53.4825 27.2582C53.8881 23.9183 56.696 21.3325 60.0993 21.3325C63.7813 21.3325 66.7662 24.3592 66.7662 28.093C66.7662 28.7056 66.6859 29.2991 66.5353 29.8634C66.5919 29.8641 66.648 29.8662 66.7038 29.8695L66.7666 29.8642V29.8737C68.6761 30.0192 70.1814 31.6367 70.1814 33.6105C70.1814 35.5843 68.6761 37.2018 66.7666 37.3473V37.3585H42.4931V37.3581H42.493C41.0051 37.3581 39.7988 36.1347 39.7988 34.6258C39.7988 33.1169 41.0051 31.8937 42.493 31.8937H42.4931V31.8935L48.6429 31.3794C48.6148 31.1931 48.6002 31.0024 48.6002 30.8082C48.6002 28.7386 50.2546 27.0607 52.2956 27.0607C52.7108 27.0607 53.1099 27.1302 53.4825 27.2582Z" fill="#EAF7FE"/>
<path fill-rule="evenodd" clip-rule="evenodd" d="M116.61 105.924C100.548 105.064 83.6394 108.95 75.0671 111.899C69.9314 113.666 68.5207 116.909 63.1485 117.787C52.3591 119.55 27.0245 120.072 26.5236 122.67C25.5373 127.784 34.0846 130.517 53.7982 132.882C53.3725 133.232 56.1993 139.631 72.0926 141.076C78.3815 141.648 88.9299 141.078 92.9754 139.829C99.1935 137.908 105.652 136.876 112.159 136.728C135.3 136.204 153.446 133.577 153.659 129.604C153.73 128.276 152.394 126.435 150.301 125.365C148.997 124.698 150.912 124.136 151.357 123.976C156.817 122.01 159.881 119.816 159.992 118.073C160.342 112.606 140.186 107.187 116.61 105.924Z" fill="#DEEDF2"/>
<mask id="mask0_1483_87156" style="mask-type:luminance" maskUnits="userSpaceOnUse" x="0" y="29" width="145" height="93">
<path fill-rule="evenodd" clip-rule="evenodd" d="M61.4773 31.17C55.6505 32.5467 49.8579 33.9228 44.4037 31.651C34.7625 27.6369 26.3185 39.5981 20.7239 51.7485C15.129 63.899 -0.924295 65.4887 0.976382 78.4808C3.72247 97.2548 0.108028 107.527 24.9156 116.771C49.7231 126.015 75.26 115.222 100.298 113.071C111.998 112.067 120.182 114.442 126.453 116.851C133.601 119.597 138.262 122.386 142.806 120.26C143.652 119.864 144.019 119.287 144.011 118.553L144.01 118.524C143.86 112.503 118.826 96.0793 125.926 82.6436C133.908 67.5392 133.725 51.8327 110.499 47.077C87.2725 42.3216 100.402 33.1103 74.8167 29.6481C73.8144 29.5126 72.8058 29.4634 71.7928 29.4811C68.3847 29.5406 64.9253 30.3556 61.4773 31.17Z" fill="white"/>
</mask>
<g mask="url(#mask0_1483_87156)">
<path d="M49.6779 58.5046L44.614 58.593L44.4004 46.3564L49.464 46.2681L49.6779 58.5046Z" fill="#DEEDF2"/>
</g>
<mask id="mask1_1483_87156" style="mask-type:luminance" maskUnits="userSpaceOnUse" x="0" y="29" width="145" height="93">
<path fill-rule="evenodd" clip-rule="evenodd" d="M61.4773 31.17C55.6505 32.5467 49.8579 33.9228 44.4037 31.651C34.7625 27.6369 26.3185 39.5981 20.7239 51.7485C15.129 63.899 -0.924295 65.4887 0.976382 78.4808C3.72247 97.2548 0.108028 107.527 24.9156 116.771C49.7231 126.015 75.26 115.222 100.298 113.071C111.998 112.067 120.182 114.442 126.453 116.851C133.601 119.597 138.262 122.386 142.806 120.26C143.652 119.864 144.019 119.287 144.011 118.553L144.01 118.524C143.86 112.503 118.826 96.0793 125.926 82.6436C133.908 67.5392 133.725 51.8327 110.499 47.077C87.2725 42.3216 100.402 33.1103 74.8167 29.6481C73.8144 29.5126 72.8058 29.4634 71.7928 29.4811C68.3847 29.5406 64.9253 30.3556 61.4773 31.17Z" fill="white"/>
</mask>
<g mask="url(#mask1_1483_87156)">
<path d="M58.4435 50.1796C58.4737 51.905 59.1893 53.5472 60.4322 54.7449C61.6747 55.9425 63.3426 56.5967 65.0682 56.5636C68.6548 56.4973 71.509 53.5382 71.4442 49.9527C71.3853 46.3663 68.4291 43.5071 64.8414 43.566C63.1156 43.5939 61.4716 44.3067 60.2716 45.5473C59.0713 46.7876 58.4138 48.4542 58.4443 50.1796" fill="#DEEDF2"/>
</g>
<mask id="mask2_1483_87156" style="mask-type:luminance" maskUnits="userSpaceOnUse" x="0" y="29" width="145" height="93">
<path fill-rule="evenodd" clip-rule="evenodd" d="M61.4773 31.17C55.6505 32.5467 49.8579 33.9228 44.4037 31.651C34.7625 27.6369 26.3185 39.5981 20.7239 51.7485C15.129 63.899 -0.924295 65.4887 0.976382 78.4808C3.72247 97.2548 0.108028 107.527 24.9156 116.771C49.7231 126.015 75.26 115.222 100.298 113.071C111.998 112.067 120.182 114.442 126.453 116.851C133.601 119.597 138.262 122.386 142.806 120.26C143.652 119.864 144.019 119.287 144.011 118.553L144.01 118.524C143.86 112.503 118.826 96.0793 125.926 82.6436C133.908 67.5392 133.725 51.8327 110.499 47.077C87.2725 42.3216 100.402 33.1103 74.8167 29.6481C73.8144 29.5126 72.8058 29.4634 71.7928 29.4811C68.3847 29.5406 64.9253 30.3556 61.4773 31.17Z" fill="white"/>
</mask>
<g mask="url(#mask2_1483_87156)">
<path fill-rule="evenodd" clip-rule="evenodd" d="M45.621 82.9073C45.777 91.7419 53.0681 98.7769 61.9057 98.6207L61.9068 98.6207C70.7403 98.4632 77.7747 91.179 77.6206 82.3488C77.4665 73.5197 70.184 66.4858 61.3515 66.6351C52.5127 66.786 45.4704 74.0704 45.6209 82.9055L45.621 82.9073Z" fill="white"/>
</g>
<mask id="mask3_1483_87156" style="mask-type:luminance" maskUnits="userSpaceOnUse" x="0" y="29" width="145" height="93">
<path fill-rule="evenodd" clip-rule="evenodd" d="M61.4773 31.17C55.6505 32.5467 49.8579 33.9228 44.4037 31.651C34.7625 27.6369 26.3185 39.5981 20.7239 51.7485C15.129 63.899 -0.924295 65.4887 0.976382 78.4808C3.72247 97.2548 0.108028 107.527 24.9156 116.771C49.7231 126.015 75.26 115.222 100.298 113.071C111.998 112.067 120.182 114.442 126.453 116.851C133.601 119.597 138.262 122.386 142.806 120.26C143.652 119.864 144.019 119.287 144.011 118.553L144.01 118.524C143.86 112.503 118.826 96.0793 125.926 82.6436C133.908 67.5392 133.725 51.8327 110.499 47.077C87.2725 42.3216 100.402 33.1103 74.8167 29.6481C73.8144 29.5126 72.8058 29.4634 71.7928 29.4811C68.3847 29.5406 64.9253 30.3556 61.4773 31.17Z" fill="white"/>
</mask>
<g mask="url(#mask3_1483_87156)">
<path d="M54.5397 149.249L87.7186 143.579C89.4905 143.28 91.0706 142.289 92.1096 140.823C93.1482 139.358 93.5609 137.539 93.2556 135.769L78.1562 47.4156C77.5198 43.7343 74.0237 41.2613 70.3389 41.8857L37.1593 47.5574C35.3874 47.8559 33.8073 48.8474 32.7683 50.3132C31.729 51.7785 31.317 53.5974 31.6227 55.3674L46.7217 143.721C47.3585 147.402 50.8542 149.875 54.539 149.251" fill="#9E3667"/>
</g>
<mask id="mask4_1483_87156" style="mask-type:luminance" maskUnits="userSpaceOnUse" x="0" y="29" width="145" height="93">
<path fill-rule="evenodd" clip-rule="evenodd" d="M61.4773 31.17C55.6505 32.5467 49.8579 33.9228 44.4037 31.651C34.7625 27.6369 26.3185 39.5981 20.7239 51.7485C15.129 63.899 -0.924295 65.4887 0.976382 78.4808C3.72247 97.2548 0.108028 107.527 24.9156 116.771C49.7231 126.015 75.26 115.222 100.298 113.071C111.998 112.067 120.182 114.442 126.453 116.851C133.601 119.597 138.262 122.386 142.806 120.26C143.652 119.864 144.019 119.287 144.011 118.553L144.01 118.524C143.86 112.503 118.826 96.0793 125.926 82.6436C133.908 67.5392 133.725 51.8327 110.499 47.077C87.2725 42.3216 100.402 33.1103 74.8167 29.6481C73.8144 29.5126 72.8058 29.4634 71.7928 29.4811C68.3847 29.5406 64.9253 30.3556 61.4773 31.17Z" fill="white"/>
</mask>
<g mask="url(#mask4_1483_87156)">
<path fill-rule="evenodd" clip-rule="evenodd" d="M56.5752 148.56L89.7534 142.892C93.4343 142.254 95.908 138.764 95.2897 135.082L80.1717 46.7267C79.8731 44.9591 78.8839 43.383 77.4217 42.3451C75.9592 41.3079 74.144 40.8949 72.3766 41.196L39.1766 46.8669C37.4085 47.1702 35.8336 48.1639 34.7995 49.6291C33.7649 51.094 33.3563 52.9099 33.6622 54.6766L48.7612 143.03C49.3929 146.714 52.8924 149.19 56.5786 148.56" fill="white"/>
</g>
<mask id="mask5_1483_87156" style="mask-type:luminance" maskUnits="userSpaceOnUse" x="0" y="29" width="145" height="93">
<path fill-rule="evenodd" clip-rule="evenodd" d="M61.4773 31.17C55.6505 32.5467 49.8579 33.9228 44.4037 31.651C34.7625 27.6369 26.3185 39.5981 20.7239 51.7485C15.129 63.899 -0.924295 65.4887 0.976382 78.4808C3.72247 97.2548 0.108028 107.527 24.9156 116.771C49.7231 126.015 75.26 115.222 100.298 113.071C111.998 112.067 120.182 114.442 126.453 116.851C133.601 119.597 138.262 122.386 142.806 120.26C143.652 119.864 144.019 119.287 144.011 118.553L144.01 118.524C143.86 112.503 118.826 96.0793 125.926 82.6436C133.908 67.5392 133.725 51.8327 110.499 47.077C87.2725 42.3216 100.402 33.1103 74.8167 29.6481C73.8144 29.5126 72.8058 29.4634 71.7928 29.4811C68.3847 29.5406 64.9253 30.3556 61.4773 31.17Z" fill="white"/>
</mask>
<g mask="url(#mask5_1483_87156)">
<path fill-rule="evenodd" clip-rule="evenodd" d="M34.3019 58.7714L48.261 140.446C48.6948 142.985 51.8974 144.557 54.4277 144.122L90.9756 137.879C93.5141 137.442 95.221 135.035 94.7927 132.496L80.8143 50.8218C80.3862 48.2867 77.9829 46.579 75.4468 47.0074C75.4457 47.0074 75.4443 47.0078 75.4435 47.0078L38.8957 53.2524C36.343 53.6859 33.8688 56.2308 34.3019 58.7695" fill="white"/>
</g>
<mask id="mask6_1483_87156" style="mask-type:luminance" maskUnits="userSpaceOnUse" x="0" y="29" width="145" height="93">
<path fill-rule="evenodd" clip-rule="evenodd" d="M61.4773 31.17C55.6505 32.5467 49.8579 33.9228 44.4037 31.651C34.7625 27.6369 26.3185 39.5981 20.7239 51.7485C15.129 63.899 -0.924295 65.4887 0.976382 78.4808C3.72247 97.2548 0.108028 107.527 24.9156 116.771C49.7231 126.015 75.26 115.222 100.298 113.071C111.998 112.067 120.182 114.442 126.453 116.851C133.601 119.597 138.262 122.386 142.806 120.26C143.652 119.864 144.019 119.287 144.011 118.553L144.01 118.524C143.86 112.503 118.826 96.0793 125.926 82.6436C133.908 67.5392 133.725 51.8327 110.499 47.077C87.2725 42.3216 100.402 33.1103 74.8167 29.6481C73.8144 29.5126 72.8058 29.4634 71.7928 29.4811C68.3847 29.5406 64.9253 30.3556 61.4773 31.17Z" fill="white"/>
</mask>
<g mask="url(#mask6_1483_87156)">
<path d="M53.656 48.1029L59.0241 47.1845C59.1924 47.1515 59.3063 46.9936 59.2847 46.8236C59.2699 46.7392 59.2218 46.6647 59.1512 46.6166C59.0813 46.5684 58.9944 46.5507 58.9112 46.5684L53.5431 47.4847C53.4616 47.4983 53.39 47.5449 53.3445 47.6136C53.2992 47.6827 53.284 47.7668 53.3028 47.8467C53.3154 47.9277 53.3594 48.0005 53.4259 48.0483C53.4925 48.0965 53.5749 48.1162 53.656 48.1029Z" fill="#DEEDF2"/>
</g>
<mask id="mask7_1483_87156" style="mask-type:luminance" maskUnits="userSpaceOnUse" x="0" y="29" width="145" height="93">
<path fill-rule="evenodd" clip-rule="evenodd" d="M61.4773 31.17C55.6505 32.5467 49.8579 33.9228 44.4037 31.651C34.7625 27.6369 26.3185 39.5981 20.7239 51.7485C15.129 63.899 -0.924295 65.4887 0.976382 78.4808C3.72247 97.2548 0.108028 107.527 24.9156 116.771C49.7231 126.015 75.26 115.222 100.298 113.071C111.998 112.067 120.182 114.442 126.453 116.851C133.601 119.597 138.262 122.386 142.806 120.26C143.652 119.864 144.019 119.287 144.011 118.553L144.01 118.524C143.86 112.503 118.826 96.0793 125.926 82.6436C133.908 67.5392 133.725 51.8327 110.499 47.077C87.2725 42.3216 100.402 33.1103 74.8167 29.6481C73.8144 29.5126 72.8058 29.4634 71.7928 29.4811C68.3847 29.5406 64.9253 30.3556 61.4773 31.17Z" fill="white"/>
</mask>
<g mask="url(#mask7_1483_87156)">
<path d="M46.0133 49.091C46.1227 49.7034 46.7047 50.1141 47.3189 50.0117C47.6144 49.9624 47.8774 49.7975 48.0506 49.5535C48.2231 49.3089 48.2906 49.0056 48.2383 48.711C48.1886 48.4153 48.0224 48.1514 47.7773 47.9786C47.5318 47.8058 47.228 47.738 46.9326 47.7903C46.3222 47.9001 45.9128 48.4796 46.0133 49.0914" fill="#DEEDF2"/>
</g>
<mask id="mask8_1483_87156" style="mask-type:luminance" maskUnits="userSpaceOnUse" x="0" y="29" width="145" height="93">
<path fill-rule="evenodd" clip-rule="evenodd" d="M61.4773 31.17C55.6505 32.5467 49.8579 33.9228 44.4037 31.651C34.7625 27.6369 26.3185 39.5981 20.7239 51.7485C15.129 63.899 -0.924295 65.4887 0.976382 78.4808C3.72247 97.2548 0.108028 107.527 24.9156 116.771C49.7231 126.015 75.26 115.222 100.298 113.071C111.998 112.067 120.182 114.442 126.453 116.851C133.601 119.597 138.262 122.386 142.806 120.26C143.652 119.864 144.019 119.287 144.011 118.553L144.01 118.524C143.86 112.503 118.826 96.0793 125.926 82.6436C133.908 67.5392 133.725 51.8327 110.499 47.077C87.2725 42.3216 100.402 33.1103 74.8167 29.6481C73.8144 29.5126 72.8058 29.4634 71.7928 29.4811C68.3847 29.5406 64.9253 30.3556 61.4773 31.17Z" fill="white"/>
</mask>
<g mask="url(#mask8_1483_87156)">
<path d="M65.2055 45.8101C65.2683 46.1271 65.5694 46.339 65.889 46.2918C66.0442 46.2687 66.183 46.1831 66.2736 46.0553C66.3635 45.9268 66.3978 45.7677 66.3692 45.6138C66.3457 45.4613 66.262 45.3247 66.1368 45.2345C66.0123 45.1435 65.8568 45.1061 65.705 45.1306C65.3829 45.1838 65.1612 45.4838 65.2055 45.8075" fill="#DEEDF2"/>
</g>
<mask id="mask9_1483_87156" style="mask-type:luminance" maskUnits="userSpaceOnUse" x="0" y="29" width="145" height="93">
<path fill-rule="evenodd" clip-rule="evenodd" d="M61.4773 31.17C55.6505 32.5467 49.8579 33.9228 44.4037 31.651C34.7625 27.6369 26.3185 39.5981 20.7239 51.7485C15.129 63.899 -0.924295 65.4887 0.976382 78.4808C3.72247 97.2548 0.108028 107.527 24.9156 116.771C49.7231 126.015 75.26 115.222 100.298 113.071C111.998 112.067 120.182 114.442 126.453 116.851C133.601 119.597 138.262 122.386 142.806 120.26C143.652 119.864 144.019 119.287 144.011 118.553L144.01 118.524C143.86 112.503 118.826 96.0793 125.926 82.6436C133.908 67.5392 133.725 51.8327 110.499 47.077C87.2725 42.3216 100.402 33.1103 74.8167 29.6481C73.8144 29.5126 72.8058 29.4634 71.7928 29.4811C68.3847 29.5406 64.9253 30.3556 61.4773 31.17Z" fill="white"/>
</mask>
<g mask="url(#mask9_1483_87156)">
<path d="M62.9594 46.1949C63.0244 46.5112 63.3251 46.7216 63.6443 46.6741C63.7995 46.6517 63.938 46.5661 64.0282 46.438C64.1188 46.3098 64.1532 46.1503 64.123 45.9965C64.0996 45.8443 64.0162 45.7081 63.8914 45.6182C63.7669 45.5283 63.6114 45.4917 63.4596 45.5166C63.1368 45.5694 62.9151 45.8698 62.9594 46.1935" fill="#DEEDF2"/>
</g>
<mask id="mask10_1483_87156" style="mask-type:luminance" maskUnits="userSpaceOnUse" x="0" y="29" width="145" height="93">
<path fill-rule="evenodd" clip-rule="evenodd" d="M61.4773 31.17C55.6505 32.5467 49.8579 33.9228 44.4037 31.651C34.7625 27.6369 26.3185 39.5981 20.7239 51.7485C15.129 63.899 -0.924295 65.4887 0.976382 78.4808C3.72247 97.2548 0.108028 107.527 24.9156 116.771C49.7231 126.015 75.26 115.222 100.298 113.071C111.998 112.067 120.182 114.442 126.453 116.851C133.601 119.597 138.262 122.386 142.806 120.26C143.652 119.864 144.019 119.287 144.011 118.553L144.01 118.524C143.86 112.503 118.826 96.0793 125.926 82.6436C133.908 67.5392 133.725 51.8327 110.499 47.077C87.2725 42.3216 100.402 33.1103 74.8167 29.6481C73.8144 29.5126 72.8058 29.4634 71.7928 29.4811C68.3847 29.5406 64.9253 30.3556 61.4773 31.17Z" fill="white"/>
</mask>
<g mask="url(#mask10_1483_87156)">
<path d="M34.3052 58.7709L36.5186 71.7683L83.0504 63.8199L80.8184 50.8231C80.3898 48.2881 77.9866 46.5799 75.4505 47.0084L75.4475 47.0088L38.8997 53.2537C36.3471 53.6873 33.8721 56.2322 34.3059 58.7709" fill="#2A8FEC"/>
</g>
<mask id="mask11_1483_87156" style="mask-type:luminance" maskUnits="userSpaceOnUse" x="0" y="29" width="145" height="93">
<path fill-rule="evenodd" clip-rule="evenodd" d="M61.4773 31.17C55.6505 32.5467 49.8579 33.9228 44.4037 31.651C34.7625 27.6369 26.3185 39.5981 20.7239 51.7485C15.129 63.899 -0.924295 65.4887 0.976382 78.4808C3.72247 97.2548 0.108028 107.527 24.9156 116.771C49.7231 126.015 75.26 115.222 100.298 113.071C111.998 112.067 120.182 114.442 126.453 116.851C133.601 119.597 138.262 122.386 142.806 120.26C143.652 119.864 144.019 119.287 144.011 118.553L144.01 118.524C143.86 112.503 118.826 96.0793 125.926 82.6436C133.908 67.5392 133.725 51.8327 110.499 47.077C87.2725 42.3216 100.402 33.1103 74.8167 29.6481C73.8144 29.5126 72.8058 29.4634 71.7928 29.4811C68.3847 29.5406 64.9253 30.3556 61.4773 31.17Z" fill="white"/>
</mask>
<g mask="url(#mask11_1483_87156)">
<path d="M77.3884 86.7662L51.6412 91.1649" stroke="#CEDEE7" stroke-width="1.046"/>
</g>
<mask id="mask12_1483_87156" style="mask-type:luminance" maskUnits="userSpaceOnUse" x="0" y="29" width="145" height="93">
<path fill-rule="evenodd" clip-rule="evenodd" d="M61.4773 31.17C55.6505 32.5467 49.8579 33.9228 44.4037 31.651C34.7625 27.6369 26.3185 39.5981 20.7239 51.7485C15.129 63.899 -0.924295 65.4887 0.976382 78.4808C3.72247 97.2548 0.108028 107.527 24.9156 116.771C49.7231 126.015 75.26 115.222 100.298 113.071C111.998 112.067 120.182 114.442 126.453 116.851C133.601 119.597 138.262 122.386 142.806 120.26C143.652 119.864 144.019 119.287 144.011 118.553L144.01 118.524C143.86 112.503 118.826 96.0793 125.926 82.6436C133.908 67.5392 133.725 51.8327 110.499 47.077C87.2725 42.3216 100.402 33.1103 74.8167 29.6481C73.8144 29.5126 72.8058 29.4634 71.7928 29.4811C68.3847 29.5406 64.9253 30.3556 61.4773 31.17Z" fill="white"/>
</mask>
<g mask="url(#mask12_1483_87156)">
<path d="M78.0887 61.2531L53.1585 65.5114L53.3184 66.4365L78.2485 62.1783L78.0887 61.2531Z" fill="#2A8FEC"/>
</g>
<mask id="mask13_1483_87156" style="mask-type:luminance" maskUnits="userSpaceOnUse" x="0" y="29" width="145" height="93">
<path fill-rule="evenodd" clip-rule="evenodd" d="M61.4773 31.17C55.6505 32.5467 49.8579 33.9228 44.4037 31.651C34.7625 27.6369 26.3185 39.5981 20.7239 51.7485C15.129 63.899 -0.924295 65.4887 0.976382 78.4808C3.72247 97.2548 0.108028 107.527 24.9156 116.771C49.7231 126.015 75.26 115.222 100.298 113.071C111.998 112.067 120.182 114.442 126.453 116.851C133.601 119.597 138.262 122.386 142.806 120.26C143.652 119.864 144.019 119.287 144.011 118.553L144.01 118.524C143.86 112.503 118.826 96.0793 125.926 82.6436C133.908 67.5392 133.725 51.8327 110.499 47.077C87.2725 42.3216 100.402 33.1103 74.8167 29.6481C73.8144 29.5126 72.8058 29.4634 71.7928 29.4811C68.3847 29.5406 64.9253 30.3556 61.4773 31.17Z" fill="white"/>
</mask>
<g mask="url(#mask13_1483_87156)">
<path d="M77.8159 59.6758L69.1384 61.1557L69.2979 62.0808L77.9757 60.5987L77.8159 59.6758Z" fill="#2A8FEC"/>
</g>
<mask id="mask14_1483_87156" style="mask-type:luminance" maskUnits="userSpaceOnUse" x="0" y="29" width="145" height="93">
<path fill-rule="evenodd" clip-rule="evenodd" d="M61.4773 31.17C55.6505 32.5467 49.8579 33.9228 44.4037 31.651C34.7625 27.6369 26.3185 39.5981 20.7239 51.7485C15.129 63.899 -0.924295 65.4887 0.976382 78.4808C3.72247 97.2548 0.108028 107.527 24.9156 116.771C49.7231 126.015 75.26 115.222 100.298 113.071C111.998 112.067 120.182 114.442 126.453 116.851C133.601 119.597 138.262 122.386 142.806 120.26C143.652 119.864 144.019 119.287 144.011 118.553L144.01 118.524C143.86 112.503 118.826 96.0793 125.926 82.6436C133.908 67.5392 133.725 51.8327 110.499 47.077C87.2725 42.3216 100.402 33.1103 74.8167 29.6481C73.8144 29.5126 72.8058 29.4634 71.7928 29.4811C68.3847 29.5406 64.9253 30.3556 61.4773 31.17Z" fill="white"/>
</mask>
<g mask="url(#mask14_1483_87156)">
<path d="M87.3006 108.379L75.1517 110.456L77.2274 122.608L89.376 120.531L87.3006 108.379Z" fill="#DEEDF2"/>
</g>
<mask id="mask15_1483_87156" style="mask-type:luminance" maskUnits="userSpaceOnUse" x="0" y="29" width="145" height="93">
<path fill-rule="evenodd" clip-rule="evenodd" d="M61.4773 31.17C55.6505 32.5467 49.8579 33.9228 44.4037 31.651C34.7625 27.6369 26.3185 39.5981 20.7239 51.7485C15.129 63.899 -0.924295 65.4887 0.976382 78.4808C3.72247 97.2548 0.108028 107.527 24.9156 116.771C49.7231 126.015 75.26 115.222 100.298 113.071C111.998 112.067 120.182 114.442 126.453 116.851C133.601 119.597 138.262 122.386 142.806 120.26C143.652 119.864 144.019 119.287 144.011 118.553L144.01 118.524C143.86 112.503 118.826 96.0793 125.926 82.6436C133.908 67.5392 133.725 51.8327 110.499 47.077C87.2725 42.3216 100.402 33.1103 74.8167 29.6481C73.8144 29.5126 72.8058 29.4634 71.7928 29.4811C68.3847 29.5406 64.9253 30.3556 61.4773 31.17Z" fill="white"/>
</mask>
<g mask="url(#mask15_1483_87156)">
<path d="M73.3562 110.764L61.1868 112.841L63.283 124.991L75.4315 122.914L73.3562 110.764Z" fill="#DEEDF2"/>
</g>
<mask id="mask16_1483_87156" style="mask-type:luminance" maskUnits="userSpaceOnUse" x="0" y="29" width="145" height="93">
<path fill-rule="evenodd" clip-rule="evenodd" d="M61.4773 31.17C55.6505 32.5467 49.8579 33.9228 44.4037 31.651C34.7625 27.6369 26.3185 39.5981 20.7239 51.7485C15.129 63.899 -0.924295 65.4887 0.976382 78.4808C3.72247 97.2548 0.108028 107.527 24.9156 116.771C49.7231 126.015 75.26 115.222 100.298 113.071C111.998 112.067 120.182 114.442 126.453 116.851C133.601 119.597 138.262 122.386 142.806 120.26C143.652 119.864 144.019 119.287 144.011 118.553L144.01 118.524C143.86 112.503 118.826 96.0793 125.926 82.6436C133.908 67.5392 133.725 51.8327 110.499 47.077C87.2725 42.3216 100.402 33.1103 74.8167 29.6481C73.8144 29.5126 72.8058 29.4634 71.7928 29.4811C68.3847 29.5406 64.9253 30.3556 61.4773 31.17Z" fill="white"/>
</mask>
<g mask="url(#mask16_1483_87156)">
<path d="M59.3904 113.146L47.2416 115.225L49.3173 127.377L61.4859 125.3L59.3904 113.146Z" fill="#DEEDF2"/>
</g>
<mask id="mask17_1483_87156" style="mask-type:luminance" maskUnits="userSpaceOnUse" x="0" y="29" width="145" height="93">
<path fill-rule="evenodd" clip-rule="evenodd" d="M61.4773 31.17C55.6505 32.5467 49.8579 33.9228 44.4037 31.651C34.7625 27.6369 26.3185 39.5981 20.7239 51.7485C15.129 63.899 -0.924295 65.4887 0.976382 78.4808C3.72247 97.2548 0.108028 107.527 24.9156 116.771C49.7231 126.015 75.26 115.222 100.298 113.071C111.998 112.067 120.182 114.442 126.453 116.851C133.601 119.597 138.262 122.386 142.806 120.26C143.652 119.864 144.019 119.287 144.011 118.553L144.01 118.524C143.86 112.503 118.826 96.0793 125.926 82.6436C133.908 67.5392 133.725 51.8327 110.499 47.077C87.2725 42.3216 100.402 33.1103 74.8167 29.6481C73.8144 29.5126 72.8058 29.4634 71.7928 29.4811C68.3847 29.5406 64.9253 30.3556 61.4773 31.17Z" fill="white"/>
</mask>
<g mask="url(#mask17_1483_87156)">
<path d="M83.0496 63.8199L36.5171 71.7683L39.7106 90.4569L86.2435 82.5085L83.0496 63.8199Z" fill="#DEEDF2"/>
</g>
<mask id="mask18_1483_87156" style="mask-type:luminance" maskUnits="userSpaceOnUse" x="0" y="29" width="145" height="93">
<path fill-rule="evenodd" clip-rule="evenodd" d="M61.4773 31.17C55.6505 32.5467 49.8579 33.9228 44.4037 31.651C34.7625 27.6369 26.3185 39.5981 20.7239 51.7485C15.129 63.899 -0.924295 65.4887 0.976382 78.4808C3.72247 97.2548 0.108028 107.527 24.9156 116.771C49.7231 126.015 75.26 115.222 100.298 113.071C111.998 112.067 120.182 114.442 126.453 116.851C133.601 119.597 138.262 122.386 142.806 120.26C143.652 119.864 144.019 119.287 144.011 118.553L144.01 118.524C143.86 112.503 118.826 96.0793 125.926 82.6436C133.908 67.5392 133.725 51.8327 110.499 47.077C87.2725 42.3216 100.402 33.1103 74.8167 29.6481C73.8144 29.5126 72.8058 29.4634 71.7928 29.4811C68.3847 29.5406 64.9253 30.3556 61.4773 31.17Z" fill="white"/>
</mask>
<g mask="url(#mask18_1483_87156)">
<path fill-rule="evenodd" clip-rule="evenodd" d="M39.7124 90.4555L42.9063 109.144L89.4388 101.194L88.0006 92.719L87.5226 89.9698L86.2449 82.5059L78.65 83.8032L77.7315 83.9629L75.812 84.2911L75.7098 84.3055L39.7124 90.4555Z" fill="#9BC3D3"/>
</g>
<mask id="mask19_1483_87156" style="mask-type:luminance" maskUnits="userSpaceOnUse" x="0" y="29" width="145" height="93">
<path fill-rule="evenodd" clip-rule="evenodd" d="M61.4773 31.17C55.6505 32.5467 49.8579 33.9228 44.4037 31.651C34.7625 27.6369 26.3185 39.5981 20.7239 51.7485C15.129 63.899 -0.924295 65.4887 0.976382 78.4808C3.72247 97.2548 0.108028 107.527 24.9156 116.771C49.7231 126.015 75.26 115.222 100.298 113.071C111.998 112.067 120.182 114.442 126.453 116.851C133.601 119.597 138.262 122.386 142.806 120.26C143.652 119.864 144.019 119.287 144.011 118.553L144.01 118.524C143.86 112.503 118.826 96.0793 125.926 82.6436C133.908 67.5392 133.725 51.8327 110.499 47.077C87.2725 42.3216 100.402 33.1103 74.8167 29.6481C73.8144 29.5126 72.8058 29.4634 71.7928 29.4811C68.3847 29.5406 64.9253 30.3556 61.4773 31.17Z" fill="white"/>
</mask>
<g mask="url(#mask19_1483_87156)">
<path fill-rule="evenodd" clip-rule="evenodd" d="M72.2216 85.266C72.795 86.0544 73.4313 86.7953 74.1243 87.481C74.8446 88.1978 75.6228 88.8542 76.4514 89.4425C79.6654 91.7074 84.1688 92.7794 87.9972 92.7185L87.5192 89.9694L86.2423 82.5055L78.647 83.8028L74.7539 84.8358L72.2216 85.266Z" fill="#1BB3BC"/>
</g>
<mask id="mask20_1483_87156" style="mask-type:luminance" maskUnits="userSpaceOnUse" x="0" y="29" width="145" height="93">
<path fill-rule="evenodd" clip-rule="evenodd" d="M61.4773 31.17C55.6505 32.5467 49.8579 33.9228 44.4037 31.651C34.7625 27.6369 26.3185 39.5981 20.7239 51.7485C15.129 63.899 -0.924295 65.4887 0.976382 78.4808C3.72247 97.2548 0.108028 107.527 24.9156 116.771C49.7231 126.015 75.26 115.222 100.298 113.071C111.998 112.067 120.182 114.442 126.453 116.851C133.601 119.597 138.262 122.386 142.806 120.26C143.652 119.864 144.019 119.287 144.011 118.553L144.01 118.524C143.86 112.503 118.826 96.0793 125.926 82.6436C133.908 67.5392 133.725 51.8327 110.499 47.077C87.2725 42.3216 100.402 33.1103 74.8167 29.6481C73.8144 29.5126 72.8058 29.4634 71.7928 29.4811C68.3847 29.5406 64.9253 30.3556 61.4773 31.17Z" fill="white"/>
</mask>
<g mask="url(#mask20_1483_87156)">
<path fill-rule="evenodd" clip-rule="evenodd" d="M70.5816 91.0406L76.4529 89.4438L78.756 88.8179L74.7542 84.8345L72.2212 85.2658C72.2012 85.2291 72.1598 85.1927 72.1383 85.1559L72.0997 85.2854L70.5816 91.0406Z" fill="#1BB3BC"/>
</g>
<mask id="mask21_1483_87156" style="mask-type:luminance" maskUnits="userSpaceOnUse" x="0" y="29" width="145" height="93">
<path fill-rule="evenodd" clip-rule="evenodd" d="M61.4773 31.17C55.6505 32.5467 49.8579 33.9228 44.4037 31.651C34.7625 27.6369 26.3185 39.5981 20.7239 51.7485C15.129 63.899 -0.924295 65.4887 0.976382 78.4808C3.72247 97.2548 0.108028 107.527 24.9156 116.771C49.7231 126.015 75.26 115.222 100.298 113.071C111.998 112.067 120.182 114.442 126.453 116.851C133.601 119.597 138.262 122.386 142.806 120.26C143.652 119.864 144.019 119.287 144.011 118.553L144.01 118.524C143.86 112.503 118.826 96.0793 125.926 82.6436C133.908 67.5392 133.725 51.8327 110.499 47.077C87.2725 42.3216 100.402 33.1103 74.8167 29.6481C73.8144 29.5126 72.8058 29.4634 71.7928 29.4811C68.3847 29.5406 64.9253 30.3556 61.4773 31.17Z" fill="white"/>
</mask>
<g mask="url(#mask21_1483_87156)">
<path fill-rule="evenodd" clip-rule="evenodd" d="M41.9942 80.451C42.5125 83.4492 45.3597 85.4629 48.3607 84.954C49.802 84.7091 51.0863 83.9005 51.9299 82.7069C52.7743 81.5133 53.1079 80.0328 52.857 78.5926C52.6168 77.1525 51.812 75.8675 50.621 75.0227C49.4299 74.1775 47.9514 73.8414 46.5116 74.0893C43.51 74.6038 41.4906 77.4485 41.9949 80.4506" fill="white"/>
</g>
<mask id="mask22_1483_87156" style="mask-type:luminance" maskUnits="userSpaceOnUse" x="0" y="29" width="145" height="93">
<path fill-rule="evenodd" clip-rule="evenodd" d="M61.4773 31.17C55.6505 32.5467 49.8579 33.9228 44.4037 31.651C34.7625 27.6369 26.3185 39.5981 20.7239 51.7485C15.129 63.899 -0.924295 65.4887 0.976382 78.4808C3.72247 97.2548 0.108028 107.527 24.9156 116.771C49.7231 126.015 75.26 115.222 100.298 113.071C111.998 112.067 120.182 114.442 126.453 116.851C133.601 119.597 138.262 122.386 142.806 120.26C143.652 119.864 144.019 119.287 144.011 118.553L144.01 118.524C143.86 112.503 118.826 96.0793 125.926 82.6436C133.908 67.5392 133.725 51.8327 110.499 47.077C87.2725 42.3216 100.402 33.1103 74.8167 29.6481C73.8144 29.5126 72.8058 29.4634 71.7928 29.4811C68.3847 29.5406 64.9253 30.3556 61.4773 31.17Z" fill="white"/>
</mask>
<g mask="url(#mask22_1483_87156)">
<path d="M45.2551 99.5179C45.7723 102.516 48.6195 104.531 51.6208 104.021C53.0625 103.776 54.3472 102.967 55.1916 101.774C56.0348 100.58 56.3684 99.0997 56.1186 97.6598C55.8729 96.218 55.0636 94.933 53.8696 94.0883C52.6748 93.2439 51.1941 92.9093 49.7521 93.158C46.7546 93.6754 44.7423 96.5214 45.2551 99.5186" fill="#DEEDF2"/>
</g>
<mask id="mask23_1483_87156" style="mask-type:luminance" maskUnits="userSpaceOnUse" x="0" y="29" width="145" height="93">
<path fill-rule="evenodd" clip-rule="evenodd" d="M61.4773 31.17C55.6505 32.5467 49.8579 33.9228 44.4037 31.651C34.7625 27.6369 26.3185 39.5981 20.7239 51.7485C15.129 63.899 -0.924295 65.4887 0.976382 78.4808C3.72247 97.2548 0.108028 107.527 24.9156 116.771C49.7231 126.015 75.26 115.222 100.298 113.071C111.998 112.067 120.182 114.442 126.453 116.851C133.601 119.597 138.262 122.386 142.806 120.26C143.652 119.864 144.019 119.287 144.011 118.553L144.01 118.524C143.86 112.503 118.826 96.0793 125.926 82.6436C133.908 67.5392 133.725 51.8327 110.499 47.077C87.2725 42.3216 100.402 33.1103 74.8167 29.6481C73.8144 29.5126 72.8058 29.4634 71.7928 29.4811C68.3847 29.5406 64.9253 30.3556 61.4773 31.17Z" fill="white"/>
</mask>
<g mask="url(#mask23_1483_87156)">
<path fill-rule="evenodd" clip-rule="evenodd" d="M80.1659 73.4503L55.2562 77.7082L55.3949 78.6337L80.3258 74.3754L80.1659 73.4503Z" fill="white"/>
</g>
<mask id="mask24_1483_87156" style="mask-type:luminance" maskUnits="userSpaceOnUse" x="0" y="29" width="145" height="93">
<path fill-rule="evenodd" clip-rule="evenodd" d="M61.4773 31.17C55.6505 32.5467 49.8579 33.9228 44.4037 31.651C34.7625 27.6369 26.3185 39.5981 20.7239 51.7485C15.129 63.899 -0.924295 65.4887 0.976382 78.4808C3.72247 97.2548 0.108028 107.527 24.9156 116.771C49.7231 126.015 75.26 115.222 100.298 113.071C111.998 112.067 120.182 114.442 126.453 116.851C133.601 119.597 138.262 122.386 142.806 120.26C143.652 119.864 144.019 119.287 144.011 118.553L144.01 118.524C143.86 112.503 118.826 96.0793 125.926 82.6436C133.908 67.5392 133.725 51.8327 110.499 47.077C87.2725 42.3216 100.402 33.1103 74.8167 29.6481C73.8144 29.5126 72.8058 29.4634 71.7928 29.4811C68.3847 29.5406 64.9253 30.3556 61.4773 31.17Z" fill="white"/>
</mask>
<g mask="url(#mask24_1483_87156)">
<path fill-rule="evenodd" clip-rule="evenodd" d="M80.5125 93.1706L63.4227 96.0917L63.5826 97.0168L80.6723 94.0961L80.5125 93.1706Z" fill="white"/>
</g>
<mask id="mask25_1483_87156" style="mask-type:luminance" maskUnits="userSpaceOnUse" x="0" y="29" width="145" height="93">
<path fill-rule="evenodd" clip-rule="evenodd" d="M61.4773 31.17C55.6505 32.5467 49.8579 33.9228 44.4037 31.651C34.7625 27.6369 26.3185 39.5981 20.7239 51.7485C15.129 63.899 -0.924295 65.4887 0.976382 78.4808C3.72247 97.2548 0.108028 107.527 24.9156 116.771C49.7231 126.015 75.26 115.222 100.298 113.071C111.998 112.067 120.182 114.442 126.453 116.851C133.601 119.597 138.262 122.386 142.806 120.26C143.652 119.864 144.019 119.287 144.011 118.553L144.01 118.524C143.86 112.503 118.826 96.0793 125.926 82.6436C133.908 67.5392 133.725 51.8327 110.499 47.077C87.2725 42.3216 100.402 33.1103 74.8167 29.6481C73.8144 29.5126 72.8058 29.4634 71.7928 29.4811C68.3847 29.5406 64.9253 30.3556 61.4773 31.17Z" fill="white"/>
</mask>
<g mask="url(#mask25_1483_87156)">
<path fill-rule="evenodd" clip-rule="evenodd" d="M66.6402 66.2096C62.5118 73.6944 65.2118 83.1067 72.6803 87.2671C80.1672 91.4131 89.5983 88.7104 93.7512 81.2292C97.9004 73.7478 95.1971 64.3203 87.7129 60.1728C87.7121 60.1725 87.7114 60.1717 87.7106 60.1714C80.2245 56.0235 70.7912 58.7266 66.6402 66.2096Z" fill="white"/>
</g>
<mask id="mask26_1483_87156" style="mask-type:luminance" maskUnits="userSpaceOnUse" x="0" y="29" width="145" height="93">
<path fill-rule="evenodd" clip-rule="evenodd" d="M44.4037 31.651C34.7625 27.6369 26.3185 39.5981 20.7239 51.7485C15.129 63.899 -0.924295 65.4887 0.976382 78.4808C3.72247 97.2548 0.108028 107.527 24.9156 116.771C49.7231 126.015 75.26 115.222 100.298 113.071C111.998 112.067 120.182 114.442 126.453 116.851C133.601 119.597 138.262 122.386 142.806 120.26C143.652 119.864 144.019 119.287 144.011 118.553L144.01 118.524C143.86 112.503 118.826 96.0793 125.926 82.6436C133.908 67.5392 133.725 51.8327 110.499 47.077C87.2725 42.3216 100.402 33.1103 74.8167 29.6481C73.8144 29.5126 72.8058 29.4634 71.7928 29.4811C68.3847 29.5406 64.9253 30.3556 61.4773 31.17C55.6505 32.5467 49.8579 33.9228 44.4037 31.651Z" fill="white"/>
</mask>
<g mask="url(#mask26_1483_87156)">
<path fill-rule="evenodd" clip-rule="evenodd" d="M70.6049 91.0561L76.8064 87.3226L70.4785 83.8159L70.6049 91.0561Z" fill="white"/>
</g>
<path fill-rule="evenodd" clip-rule="evenodd" d="M127.91 88.5066C126.396 87.4287 124.544 86.9329 122.694 87.1096C120.43 87.3189 118.37 88.5074 117.055 90.3631C116.673 90.9011 116.36 91.4853 116.123 92.1016C115.643 93.3715 114.48 94.2558 113.127 94.3785L113.102 94.378C110.14 94.6519 107.446 96.2064 105.727 98.6337C103.103 102.32 103.222 107.294 106.018 110.85C106.617 111.61 107.321 112.279 108.11 112.838C112.7 116.088 119.056 115.002 122.306 110.412C122.306 110.412 122.306 110.411 122.307 110.411C122.846 109.655 123.279 108.828 123.593 107.955C123.687 107.694 123.771 107.43 123.843 107.167C124.242 105.686 124.304 104.135 124.022 102.627C126.314 102.436 128.404 101.243 129.733 99.3666C130.145 98.7881 130.477 98.1558 130.718 97.4875C130.788 97.2883 130.852 97.0891 130.909 96.8861C131.763 93.74 130.566 90.3959 127.911 88.5053" fill="#CEDEE7"/>
<path fill-rule="evenodd" clip-rule="evenodd" d="M121.539 78.6662C119.673 82.7879 120.745 87.6466 124.173 90.5998C124.906 91.2307 125.727 91.7526 126.609 92.1494C131.737 94.4568 137.766 92.1695 140.073 87.0406C140.073 87.0403 140.073 87.0399 140.073 87.0396C140.457 86.1941 140.724 85.2998 140.864 84.382C140.906 84.1076 140.937 83.8333 140.958 83.5618C141.264 79.3096 138.888 75.3175 135.004 73.5597C132.791 72.5561 130.291 72.3838 127.961 73.0748C125.107 73.9119 122.761 75.9553 121.539 78.6678" fill="#CEDEE7"/>
<path fill-rule="evenodd" clip-rule="evenodd" d="M120.89 91.569L121.044 93.6353L121.517 100.227C121.542 100.54 121.631 100.844 121.78 101.119C121.929 101.394 122.137 101.633 122.39 101.817C123.692 102.748 125.249 103.256 126.849 103.273C128.195 103.302 129.525 102.988 130.715 102.36C131.66 101.847 132.087 100.721 131.722 99.7105C130.708 96.8765 128.435 88.1995 128.435 88.1995L121.604 91.2505L121.265 91.4019L120.89 91.569Z" fill="#FFC4B8"/>
<path fill-rule="evenodd" clip-rule="evenodd" d="M127.025 75.1926L122.76 76.7571L119.761 81.3192C118.72 82.9052 118.05 84.7058 117.802 86.5864L117.571 88.3435C117.498 88.8285 117.556 89.324 117.737 89.7796C117.971 90.3424 118.384 90.8134 118.91 91.1208L119.604 91.5206C120.668 92.1352 121.896 92.4071 123.12 92.2992L130.003 91.6847L133.093 78.8492L127.025 75.1926Z" fill="#FFC4B8"/>
<path fill-rule="evenodd" clip-rule="evenodd" d="M121.276 79.0395C119.633 82.669 120.577 86.947 123.595 89.5476C124.241 90.1028 124.964 90.5625 125.74 90.912C130.257 92.944 135.566 90.9296 137.598 86.4127C137.598 86.412 137.599 86.4113 137.599 86.4107C137.936 85.6662 138.17 84.8792 138.294 84.0713C138.332 83.8292 138.359 83.5882 138.376 83.3491C138.646 79.6049 136.555 76.0889 133.135 74.5399C131.186 73.6567 128.983 73.505 126.931 74.113C124.417 74.8502 122.352 76.6497 121.277 79.0389" fill="#FFC4B8"/>
<path fill-rule="evenodd" clip-rule="evenodd" d="M148.82 126.808L107.382 126.084L108.702 118.847L109.762 113.017C110.536 108.768 113.127 105.069 116.855 102.89C117.537 102.492 118.248 102.149 118.984 101.864L133.02 96.4342C133.398 96.2882 133.784 96.1647 134.177 96.065C138.501 94.9815 143.013 96.9412 145.172 100.841L152.902 114.786C155.198 118.928 153.701 124.148 149.558 126.445C149.318 126.578 149.072 126.699 148.82 126.808" fill="#F6C854"/>
<path fill-rule="evenodd" clip-rule="evenodd" d="M116.855 102.891C118.319 107.525 122.945 110.42 127.649 109.457C132.687 108.426 135.909 103.357 134.84 98.1372C134.695 97.4244 134.472 96.7296 134.175 96.0653C133.783 96.164 133.397 96.2875 133.02 96.4345L118.984 101.864C118.248 102.149 117.536 102.492 116.854 102.89" fill="#FFC4B8"/>
<path fill-rule="evenodd" clip-rule="evenodd" d="M117.679 103.96C120.135 102.879 121.613 100.336 121.334 97.6674L130.824 97.1091C130.824 97.1091 130.547 98.1241 133.13 97.8733C133.13 97.8733 133.546 106.014 127.059 105.94C120.572 105.865 117.68 103.96 117.68 103.96" fill="#FFC4B8"/>
<path fill-rule="evenodd" clip-rule="evenodd" d="M147.957 126.579L146.448 130.301C146.361 130.514 146.153 130.652 145.923 130.648L145.712 130.644C145.448 130.64 145.223 130.451 145.175 130.191L145.091 129.747L145 130.181C144.944 130.442 144.712 130.627 144.445 130.622L143.878 130.612C143.6 130.608 143.369 130.4 143.336 130.125L143.265 129.569L143.169 130.128C143.122 130.399 142.885 130.595 142.611 130.59L142.264 130.584C142.023 130.58 141.813 130.423 141.741 130.193L140.626 126.606L140.596 126.676L138.885 126.647L139.091 125.862C139.356 124.847 140.253 124.122 141.302 124.075L145.232 123.901C145.63 123.884 146.029 123.902 146.424 123.955C147.476 124.09 148.218 125.053 148.083 126.104C148.062 126.267 148.02 126.427 147.958 126.579" fill="#FFC4B8"/>
<path fill-rule="evenodd" clip-rule="evenodd" d="M119.431 83.5977L118.132 82.4063L122.759 76.7563L125.71 78.7749L119.431 83.5977Z" fill="#FFC4B8"/>
<path fill-rule="evenodd" clip-rule="evenodd" d="M127.821 78.785C128.95 78.8121 129.98 79.4368 130.525 80.426C130.525 80.426 132.166 84.4451 133.134 85.398C135.623 87.8493 139.861 87.1182 139.939 82.654C139.917 80.8751 139.546 79.1179 138.849 77.4815C138.764 77.2643 138.646 76.9811 138.506 76.6504C136.666 72.2996 131.95 69.9176 127.357 71.0192C127.357 71.0192 122.87 72.2261 123.847 76.3428C124.165 77.6783 125.351 78.7399 127.821 78.783" fill="#CEDEE7"/>
<path fill-rule="evenodd" clip-rule="evenodd" d="M118.553 84.917L120.958 85.2805C120.958 85.2805 120.019 86.708 119.418 86.6174C118.817 86.5268 118.553 84.917 118.553 84.917Z" fill="#F4A48D"/>
<path fill-rule="evenodd" clip-rule="evenodd" d="M120.924 92.0884C121.452 92.2929 122.015 92.3936 122.582 92.3845C123.458 92.3523 124.596 92.1785 124.596 92.1785C123.89 92.5996 123.16 92.9772 122.409 93.3091C121.979 93.5093 121.512 93.6143 121.038 93.6171L120.924 92.0884Z" fill="#F4A48D"/>
<path fill-rule="evenodd" clip-rule="evenodd" d="M83.9019 65.9214C82.2467 65.9227 80.2682 67.0149 79.9151 68.5206C79.2822 67.0995 76.677 66.415 75.0485 66.6956C70.7508 67.4359 69.7666 72.6059 71.9282 75.8404C73.0915 77.5812 74.6651 79.0555 76.3524 80.3558C77.7653 81.4447 81.3571 83.7031 81.3665 83.6935C81.3776 83.7013 84.4823 80.8682 85.6657 79.5566C87.0787 77.9902 88.3469 76.272 89.161 74.3614C90.6736 70.8117 88.27 65.918 83.9019 65.9214Z" fill="#2A8FEC"/>
<path fill-rule="evenodd" clip-rule="evenodd" d="M84.7697 73.9523C84.2224 72.4137 83.6752 70.8751 83.1279 69.3365C83.0488 69.114 82.7334 69.1604 82.6853 69.3773C82.0598 72.2012 81.4343 75.0249 80.8088 77.8488C80.7725 78.0124 80.7363 78.1759 80.7001 78.3395C79.9473 76.588 79.1946 74.8365 78.4419 73.085C78.3212 72.8041 78.2004 72.5232 78.0797 72.2423C78.007 72.0729 77.731 72.0286 77.6553 72.2258C77.3035 73.143 76.9517 74.0601 76.5998 74.9772C75.342 75.0932 72.511 75.3952 71.2532 75.5112C70.9578 75.5384 70.9985 75.9999 71.2943 75.9726C72.5995 75.8523 75.4779 75.546 76.7831 75.4256C76.8594 75.4186 76.9424 75.3677 76.9711 75.2931C77.2726 74.5071 77.5741 73.7212 77.8756 72.9352C78.6479 74.7321 79.4202 76.5291 80.1924 78.3259C80.3131 78.6069 80.4338 78.8877 80.5545 79.1687C80.6451 79.3794 80.9468 79.3551 80.9971 79.1279C81.6226 76.304 82.2481 73.4802 82.8736 70.6563C82.9036 70.5213 82.9335 70.3862 82.9634 70.2511C83.4418 71.596 83.9202 72.9409 84.3985 74.2859C84.4318 74.3793 84.5359 74.4467 84.6349 74.4349C85.8147 74.2938 89.3792 73.8824 90.559 73.7413C90.853 73.7061 90.8131 73.2445 90.5179 73.2797C87.4332 73.6387 85.5171 73.8629 84.7697 73.9523Z" fill="white"/>
</svg>
