<svg width="160" height="160" viewBox="0 0 160 160" fill="none" xmlns="http://www.w3.org/2000/svg">
<path fill-rule="evenodd" clip-rule="evenodd" d="M99.1795 123.838C107.327 115.172 118.122 109.515 129.82 107.389C136.921 106.099 143.715 102.707 149.205 97.2145C163.584 82.828 163.601 59.6276 149.241 45.2213C142.906 38.8664 134.828 35.3152 126.546 34.5669C119.455 33.9261 112.792 30.8301 107.873 25.6791C107.809 25.6128 107.746 25.547 107.682 25.4816C99.2892 16.9135 85.7133 16.8287 77.2191 25.295C77.1704 25.3433 77.1221 25.3921 77.0743 25.4409C74.8053 27.7455 71.5302 28.7519 68.3568 28.1353C50.264 24.6192 30.8065 29.8729 16.7932 43.8975C-5.59775 66.307 -5.59775 102.706 16.7932 125.115C39.2022 147.543 75.5331 147.543 97.9415 125.115C98.3622 124.694 98.7749 124.269 99.1795 123.838Z" fill="#EAF7FE"/>
<path fill-rule="evenodd" clip-rule="evenodd" d="M102.601 96.9724L81.4866 90.2766C80.33 89.9097 79.6897 88.6744 80.0565 87.5174L84.0155 75.0334C84.3824 73.8764 85.6173 73.236 86.7743 73.6029L107.888 80.2987C109.046 80.6656 109.686 81.9009 109.319 83.0576L105.36 95.5419C104.993 96.6989 103.758 97.3393 102.601 96.9724Z" fill="#EC0000"/>
<path fill-rule="evenodd" clip-rule="evenodd" d="M82.3945 80.1442L107.698 88.1687L108.907 84.3566L83.6035 76.332L82.3945 80.1442Z" fill="#990000"/>
<path fill-rule="evenodd" clip-rule="evenodd" d="M87.6893 87.8635L83.4327 86.5135C83.1181 86.4139 82.9439 86.0782 83.0438 85.7633L83.7852 83.4252C83.8852 83.1107 84.2209 82.9368 84.5354 83.0364L87.7204 84.0462C87.8694 84.0937 87.9936 84.1974 88.0675 84.335L88.8064 85.7238C88.8818 85.8658 88.8968 86.0321 88.8481 86.1855L88.4395 87.4743C88.3399 87.7891 88.0038 87.963 87.6893 87.8635Z" fill="#DEEDF2"/>
<path fill-rule="evenodd" clip-rule="evenodd" d="M104.53 90.4897L93.8672 87.1077L94.14 86.248L104.804 89.6296L104.53 90.4897Z" fill="#990000"/>
<path fill-rule="evenodd" clip-rule="evenodd" d="M103.781 92.8544L93.1172 89.4725L93.39 88.6128L104.054 91.9944L103.781 92.8544Z" fill="#990000"/>
<path fill-rule="evenodd" clip-rule="evenodd" d="M49.9294 135.669C42.2904 135.669 36.0977 135.047 36.0977 134.28C36.0977 133.513 42.2904 132.891 49.9294 132.891C57.5684 132.891 63.7608 133.513 63.7608 134.28C63.7608 135.047 57.5684 135.669 49.9294 135.669Z" fill="#CEDEE7"/>
<path fill-rule="evenodd" clip-rule="evenodd" d="M60.0658 67.1009L38.8913 73.6038C37.7314 73.96 36.5023 73.3083 36.1456 72.148L32.3005 59.6281C31.9443 58.4682 32.596 57.2391 33.7563 56.8825L54.9308 50.3796C56.0911 50.0234 57.3202 50.6751 57.6764 51.835L61.5216 64.3549C61.8778 65.5152 61.2261 66.7443 60.0658 67.1009Z" fill="#EC0000"/>
<path fill-rule="evenodd" clip-rule="evenodd" d="M40.3595 65.5339L37.3612 66.4547C36.9746 66.5733 36.5645 66.3558 36.4452 65.9688L35.431 62.6652C35.312 62.2782 35.5295 61.8681 35.9165 61.7491L38.9147 60.8283C39.3014 60.7097 39.7114 60.9268 39.8308 61.3138L40.845 64.6178C40.964 65.0048 40.7469 65.4149 40.3595 65.5339Z" fill="#DEEDF2"/>
<path fill-rule="evenodd" clip-rule="evenodd" d="M42.3045 69.0558L37.7271 70.4614L37.2148 68.7936L41.7926 67.3877L42.3045 69.0558Z" fill="#990000"/>
<path fill-rule="evenodd" clip-rule="evenodd" d="M47.9575 67.3195L43.3798 68.7254L42.8672 67.0573L47.4449 65.6514L47.9575 67.3195Z" fill="#990000"/>
<path fill-rule="evenodd" clip-rule="evenodd" d="M53.6134 65.5828L49.0357 66.9887L48.5234 65.3206L53.1012 63.915L53.6134 65.5828Z" fill="#990000"/>
<path fill-rule="evenodd" clip-rule="evenodd" d="M59.2658 63.846L54.6884 65.2519L54.1758 63.5842L58.7535 62.1782L59.2658 63.846Z" fill="#990000"/>
<path fill-rule="evenodd" clip-rule="evenodd" d="M118.027 56.7974C125.996 63.1714 135.333 68.6736 145.85 72.8442C143.343 77.4535 140.528 81.9884 137.408 86.4179C126.178 81.5461 116.192 75.3065 107.641 68.1577C111.385 64.5253 114.851 60.7282 118.027 56.7974Z" fill="#008437"/>
<path fill-rule="evenodd" clip-rule="evenodd" d="M111.934 65.8184C113.414 64.2536 114.844 62.6624 116.226 61.0466C117.826 62.3116 120.209 62.0432 121.412 60.4692C127.158 64.641 133.527 68.3737 140.459 71.521C139.421 73.2641 140.144 75.4236 142.204 76.2939C141.073 78.1805 139.89 80.0526 138.653 81.9074C136.547 80.9924 133.933 81.5717 132.683 83.2471C125.333 79.6692 118.573 75.4917 112.463 70.8597C113.869 69.3813 113.571 67.1321 111.934 65.8184Z" fill="#63BA68"/>
<path fill-rule="evenodd" clip-rule="evenodd" d="M123.523 75.739C121.064 74.2393 120.581 71.341 122.22 69.3156C123.865 67.2879 126.918 66.7937 129.261 68.1608C131.598 69.5294 132.434 72.3384 130.906 74.4975C129.383 76.6562 125.977 77.2402 123.523 75.739Z" fill="#008437"/>
<path fill-rule="evenodd" clip-rule="evenodd" d="M103.082 50.7969C103.083 53.1753 101.157 55.1045 98.7778 55.106C96.399 55.1074 94.4698 53.1805 94.4688 50.8017C94.4673 48.4233 96.3942 46.4938 98.773 46.4927C101.151 46.4912 103.081 48.4182 103.082 50.7969Z" fill="#D39E00"/>
<path fill-rule="evenodd" clip-rule="evenodd" d="M98.7701 47.6566H98.7679C97.9309 47.6573 97.1437 47.9836 96.552 48.576C95.9604 49.1684 95.6349 49.9555 95.6352 50.7929C95.636 52.5207 97.0423 53.9259 98.7697 53.9259H98.7719C100.5 53.9248 101.905 52.5181 101.904 50.7896C101.904 49.9522 101.577 49.1651 100.985 48.5738C100.393 47.9821 99.6063 47.6566 98.7701 47.6566ZM98.7701 54.4912C96.7311 54.4912 95.0714 52.8326 95.0703 50.7933C95.0699 49.8051 95.454 48.8758 96.1526 48.1765C96.8508 47.4772 97.7797 47.092 98.7683 47.0913H98.7705C99.7575 47.0913 100.686 47.4757 101.385 48.1736C102.084 48.8722 102.469 49.8011 102.47 50.7892C102.471 52.8293 100.812 54.4901 98.7723 54.4912H98.7701Z" fill="#F6C854"/>
<path d="M57.7152 95.607C57.7167 97.9854 55.7897 99.9149 53.4106 99.9164C51.0322 99.9175 49.103 97.9905 49.1016 95.6121C49.1005 93.2334 51.0274 91.3042 53.4062 91.3027C55.7846 91.3013 57.7137 93.2286 57.7152 95.607Z" fill="#F6C854"/>
<path fill-rule="evenodd" clip-rule="evenodd" d="M49.6992 95.6033C49.7003 97.6431 51.3596 99.3013 53.3986 99.3013H53.4008C54.3894 99.3005 55.3183 98.915 56.0165 98.2161C56.7151 97.5171 57.0991 96.5875 57.0991 95.5997C57.0977 93.5596 55.4384 91.9014 53.3994 91.9014H53.3972C52.4086 91.9021 51.4797 92.2876 50.7815 92.9869C50.0829 93.6859 49.6989 94.6151 49.6992 95.6033ZM53.3968 92.467H53.399C55.1264 92.467 56.5323 93.8719 56.5331 95.5996C56.5338 96.437 56.208 97.2242 55.6163 97.8162C55.0246 98.4086 54.2374 98.7352 53.4004 98.7356H53.3982C52.562 98.7356 51.7752 98.4101 51.1835 97.8191C50.5911 97.2275 50.2645 96.4403 50.2642 95.6033C50.2638 94.766 50.5893 93.9788 51.1809 93.3864C51.773 92.7936 52.5598 92.4674 53.3968 92.467Z" fill="#F6C854"/>
<path fill-rule="evenodd" clip-rule="evenodd" d="M74.6254 87.8101C74.6268 90.1889 72.6995 92.1184 70.3211 92.1195C67.9427 92.121 66.0132 90.194 66.0117 87.8152C66.0103 85.4368 67.9376 83.5073 70.316 83.5059C72.6947 83.5048 74.6239 85.4317 74.6254 87.8101Z" fill="#D39E00"/>
<path fill-rule="evenodd" clip-rule="evenodd" d="M70.3141 84.6703H70.3123C68.5838 84.6714 67.1785 86.0784 67.1796 87.8066C67.1804 89.5343 68.5867 90.9392 70.3137 90.9392H70.3159C72.0444 90.9385 73.4497 89.5314 73.4486 87.8029C73.4478 86.0751 72.0415 84.6703 70.3141 84.6703ZM70.3131 91.5049C68.2741 91.5049 66.6147 89.8467 66.6133 87.8066C66.6122 85.7669 68.2711 84.1061 70.3112 84.105H70.3131C72.3528 84.105 74.0121 85.7632 74.0136 87.8029C74.0147 89.843 72.3557 91.5034 70.3153 91.5049H70.3131Z" fill="#F6C854"/>
<path fill-rule="evenodd" clip-rule="evenodd" d="M78.0508 122.54C78.0522 124.918 76.1249 126.848 73.7465 126.849C71.3678 126.85 69.4386 124.923 69.4375 122.544C69.436 120.166 71.363 118.237 73.7418 118.235C76.1202 118.234 78.0493 120.161 78.0508 122.54Z" fill="#D39E00"/>
<path fill-rule="evenodd" clip-rule="evenodd" d="M73.7349 119.4H73.7327C72.8957 119.4 72.1086 119.727 71.5169 120.319C70.9252 120.911 70.5997 121.699 70.6001 122.536C70.6008 124.264 72.0071 125.669 73.7345 125.669H73.7367C75.4649 125.668 76.8697 124.261 76.869 122.532C76.8686 121.695 76.5421 120.908 75.9497 120.316C75.358 119.725 74.5712 119.4 73.7349 119.4ZM73.7349 126.234C71.6959 126.234 70.0363 124.576 70.0352 122.536C70.0348 121.548 70.4189 120.619 71.1174 119.919C71.8157 119.22 72.7445 118.835 73.7331 118.834H73.7353C75.7743 118.834 77.4336 120.493 77.4347 122.532C77.4358 124.572 75.7772 126.233 73.7371 126.234H73.7349Z" fill="#F6C854"/>
<path fill-rule="evenodd" clip-rule="evenodd" d="M72.8955 61.1345C70.2872 56.6157 67.4508 52.3279 64.4141 48.2888C72.5407 42.1165 80.1559 34.4047 86.7679 25.2246C90.6255 28.7805 94.3363 32.6179 97.8698 36.7248C90.404 46.4259 81.9156 54.5859 72.8955 61.1345Z" fill="#008437"/>
<path fill-rule="evenodd" clip-rule="evenodd" d="M71.6731 56.3992C70.5172 54.5821 69.3232 52.806 68.0938 51.0723C69.711 49.8293 70.0324 47.4531 68.8 45.9018C74.2481 41.3482 79.4223 36.0832 84.167 30.1292C85.604 31.5611 87.8741 31.3876 89.2211 29.6016C90.7749 31.1591 92.3013 32.7639 93.7981 34.4162C92.3969 36.2344 92.3204 38.9109 93.6396 40.5328C88.3757 46.7871 82.6746 52.3227 76.6909 57.1172C75.6009 55.3927 73.347 55.132 71.6731 56.3992Z" fill="#63BA68"/>
<path fill-rule="evenodd" clip-rule="evenodd" d="M84.1248 47.582C82.0704 49.6009 79.1417 49.3614 77.5776 47.2778C76.0131 45.1879 76.2789 42.1061 78.1766 40.1675C80.0746 38.235 83.0026 38.1102 84.7234 40.1191C86.445 42.1226 86.1795 45.5686 84.1248 47.582Z" fill="#008437"/>
<path fill-rule="evenodd" clip-rule="evenodd" d="M73.2202 108.103L50.8853 130.437C49.1883 132.134 46.4368 132.134 44.7398 130.437L29.6808 115.278C27.9837 113.581 28.489 111.435 30.186 109.738L52.5208 87.4036C54.2175 85.7066 56.969 85.7066 58.666 87.4036L73.2202 101.957C74.9172 103.654 74.9172 106.406 73.2202 108.103Z" fill="#9BC3D3"/>
<path fill-rule="evenodd" clip-rule="evenodd" d="M30.5986 112.005C30.2796 112.324 30.2796 112.841 30.5986 113.16C30.9178 113.48 31.4348 113.48 31.7541 113.16L53.4771 91.4373C55.125 89.7893 57.041 89.034 59.3012 91.2941L71.3048 103.298C71.6157 103.609 72.1195 103.609 72.4303 103.298C72.7408 102.987 72.7408 102.483 72.4303 102.173L59.5033 89.2456C57.8062 87.5486 55.5227 87.081 53.2146 89.3891L30.5986 112.005Z" fill="#34466B"/>
<path d="M69.6773 98.4149L69.3511 101.343L64.3164 96.3075L64.6426 93.3799L69.6773 98.4149Z" fill="#34466B"/>
<path fill-rule="evenodd" clip-rule="evenodd" d="M74.1985 112.158L53.3128 133.044C51.6649 134.692 48.9932 134.692 47.3452 133.044L29.6797 115.279L54.0938 90.8642C55.4133 89.5446 57.5523 89.5446 58.8715 90.8642L74.1985 106.191C75.8465 107.839 75.8465 110.51 74.1985 112.158Z" fill="#9BC3D3"/>
<path fill-rule="evenodd" clip-rule="evenodd" d="M54.9877 92.2509C54.9174 92.2509 54.8489 92.2142 54.8116 92.1494C54.7555 92.052 54.7892 91.9283 54.8862 91.8723C55.2593 91.6577 55.6852 91.5376 56.1172 91.5255C56.2193 91.5212 56.3226 91.6105 56.3255 91.7225C56.3288 91.8342 56.2406 91.9276 56.1285 91.9309C55.7635 91.9411 55.404 92.0425 55.0884 92.2241C55.0565 92.2424 55.0217 92.2509 54.9877 92.2509ZM58.7574 93.4916C58.7054 93.4916 58.6538 93.4718 58.6139 93.4323L57.7714 92.5894C57.6923 92.5104 57.6923 92.3815 57.7714 92.3028C57.8505 92.2233 57.9786 92.2233 58.0581 92.3028L58.9006 93.1452C58.9796 93.2243 58.9796 93.3532 58.9006 93.4323C58.861 93.4718 58.809 93.4916 58.7574 93.4916ZM52.6861 94.4341C52.6341 94.4341 52.5825 94.4143 52.5426 94.3748C52.4635 94.2957 52.4635 94.1668 52.5426 94.0881L53.3854 93.2453C53.4649 93.1658 53.5926 93.1658 53.6721 93.2453C53.7512 93.3244 53.7512 93.4529 53.6721 93.532L52.8293 94.3748C52.7897 94.4143 52.7377 94.4341 52.6861 94.4341ZM61.006 95.7391C60.9541 95.7391 60.9021 95.7197 60.8625 95.6798L60.0197 94.8373C59.9406 94.7582 59.9406 94.6293 60.0197 94.5502C60.0991 94.4711 60.2273 94.4711 60.3064 94.5502L61.1492 95.3931C61.2283 95.4722 61.2283 95.6007 61.1492 95.6798C61.1097 95.7197 61.0577 95.7391 61.006 95.7391ZM50.4389 96.6819C50.3873 96.6819 50.3353 96.6621 50.2957 96.6225C50.2166 96.5435 50.2166 96.4146 50.2957 96.3355L51.1382 95.493C51.2176 95.4136 51.3458 95.4136 51.4252 95.493C51.504 95.5717 51.504 95.7006 51.4252 95.7797L50.5824 96.6225C50.5425 96.6621 50.4909 96.6819 50.4389 96.6819ZM63.2525 97.9867C63.2009 97.9867 63.1489 97.967 63.1094 97.9274L62.2665 97.0842C62.1875 97.0048 62.1875 96.8766 62.2665 96.7975C62.346 96.7181 62.4738 96.7181 62.5532 96.7975L63.3961 97.6407C63.4751 97.7202 63.4751 97.8483 63.3961 97.9274C63.3561 97.967 63.3045 97.9867 63.2525 97.9867ZM48.192 98.9287C48.1404 98.9287 48.0884 98.9093 48.0489 98.8694C47.9698 98.7903 47.9698 98.6618 48.0489 98.5827L48.8917 97.7399C48.9708 97.6604 49.0989 97.6604 49.1784 97.7399C49.2575 97.819 49.2575 97.9478 49.1784 98.0266L48.3355 98.8694C48.296 98.9093 48.244 98.9287 48.192 98.9287ZM65.5008 100.234C65.4488 100.234 65.3972 100.214 65.3573 100.175L64.5148 99.3318C64.4357 99.2527 64.4357 99.1238 64.5148 99.0451C64.5939 98.9657 64.7221 98.9657 64.8015 99.0451L65.6443 99.8876C65.7231 99.9667 65.7231 100.096 65.6443 100.175C65.6044 100.214 65.5528 100.234 65.5008 100.234ZM45.9441 101.176C45.8921 101.176 45.8405 101.157 45.8006 101.117C45.7215 101.038 45.7215 100.909 45.8006 100.83L46.6434 99.9876C46.7229 99.9082 46.8506 99.9082 46.9301 99.9876C47.0092 100.067 47.0092 100.195 46.9301 100.274L46.0873 101.117C46.0477 101.157 45.9957 101.176 45.9441 101.176ZM67.748 102.481C67.696 102.481 67.6441 102.462 67.6045 102.422L66.7617 101.58C66.6826 101.501 66.6826 101.372 66.7617 101.293C66.8411 101.214 66.9693 101.214 67.0484 101.293L67.8912 102.135C67.9703 102.215 67.9703 102.343 67.8912 102.422C67.8517 102.462 67.7997 102.481 67.748 102.481ZM43.6969 103.424C43.6453 103.424 43.5933 103.404 43.5537 103.365C43.4746 103.285 43.4746 103.157 43.5537 103.077L44.3962 102.235C44.4756 102.156 44.6038 102.156 44.6829 102.235C44.762 102.314 44.762 102.443 44.6829 102.522L43.8404 103.365C43.8005 103.404 43.7489 103.424 43.6969 103.424ZM69.9945 104.729C69.9429 104.729 69.8909 104.709 69.8514 104.669L69.0085 103.827C68.9294 103.747 68.9294 103.619 69.0085 103.54C69.088 103.46 69.2158 103.46 69.2952 103.54L70.1381 104.383C70.2171 104.462 70.2171 104.59 70.1381 104.669C70.0985 104.709 70.0465 104.729 69.9945 104.729ZM41.4486 105.671C41.397 105.671 41.345 105.652 41.3054 105.612C41.2264 105.533 41.2264 105.404 41.3054 105.325L42.1483 104.482C42.2274 104.403 42.3555 104.403 42.435 104.482C42.514 104.561 42.514 104.69 42.435 104.769L41.5921 105.612C41.5526 105.652 41.5006 105.671 41.4486 105.671ZM72.2428 106.976C72.1908 106.976 72.1392 106.957 72.0993 106.917L71.2568 106.074C71.1777 105.995 71.1777 105.867 71.2568 105.787C71.3359 105.708 71.464 105.708 71.5435 105.787L72.3863 106.63C72.4651 106.709 72.4651 106.838 72.3863 106.917C72.3464 106.957 72.2948 106.976 72.2428 106.976ZM39.2021 107.918C39.1501 107.918 39.0985 107.899 39.0586 107.859C38.9795 107.78 38.9795 107.652 39.0586 107.572L39.9014 106.73C39.9809 106.65 40.1087 106.65 40.1881 106.73C40.2672 106.809 40.2672 106.937 40.1881 107.016L39.3453 107.859C39.3057 107.899 39.2537 107.918 39.2021 107.918ZM73.9293 109.559C73.8213 109.559 73.7316 109.474 73.7272 109.365C73.7103 108.999 73.6031 108.641 73.4171 108.33C73.3599 108.233 73.3914 108.109 73.4874 108.051C73.5844 107.993 73.7085 108.026 73.7653 108.122C73.9857 108.491 74.112 108.914 74.1317 109.346C74.1372 109.458 74.0505 109.553 73.9388 109.558L73.9293 109.559ZM36.8115 110.107C36.7327 110.028 36.7327 109.899 36.8115 109.82L37.6547 108.977C37.7341 108.897 37.8623 108.897 37.9413 108.977C38.0204 109.056 38.0204 109.184 37.9413 109.264L37.0985 110.107C37.0586 110.146 36.8514 110.146 36.8115 110.107ZM72.3798 112.223C72.3278 112.223 72.2761 112.203 72.2362 112.164C72.1575 112.085 72.1575 111.956 72.2362 111.877L73.0791 111.034C73.1574 110.955 73.2933 110.946 73.3723 111.023C73.4522 111.1 73.4635 111.218 73.3877 111.298L73.3617 111.325L72.5233 112.164C72.4834 112.203 72.4317 112.223 72.3798 112.223ZM34.7066 112.413C34.655 112.413 34.603 112.394 34.5635 112.354C34.4844 112.275 34.4844 112.146 34.5635 112.067L35.4063 111.224C35.4854 111.145 35.6135 111.145 35.693 111.224C35.7721 111.303 35.7721 111.432 35.693 111.511L34.8501 112.354C34.8106 112.394 34.7586 112.413 34.7066 112.413ZM70.1328 114.471C70.0812 114.471 70.0292 114.451 69.9897 114.411C69.9106 114.332 69.9106 114.203 69.9897 114.124L70.8321 113.281C70.9116 113.202 71.0397 113.202 71.1192 113.281C71.1979 113.361 71.1979 113.489 71.1192 113.569L70.2763 114.411C70.2364 114.451 70.1848 114.471 70.1328 114.471ZM32.9025 114.941L32.8768 114.939C32.7659 114.925 32.6872 114.824 32.7007 114.713C32.7542 114.284 32.9142 113.871 33.1635 113.521C33.2283 113.429 33.3554 113.408 33.4462 113.473C33.5373 113.538 33.559 113.664 33.4938 113.756C33.2836 114.052 33.1485 114.4 33.1035 114.763C33.0903 114.866 33.0032 114.941 32.9025 114.941ZM67.8849 116.718C67.8329 116.718 67.7809 116.698 67.7414 116.658C67.6623 116.579 67.6623 116.451 67.7414 116.372L68.5842 115.529C68.6637 115.449 68.7914 115.449 68.8709 115.529C68.95 115.608 68.95 115.737 68.8709 115.815L68.0281 116.658C67.9885 116.698 67.9365 116.718 67.8849 116.718ZM34.2832 117.642C34.2315 117.642 34.1795 117.623 34.14 117.583L33.4495 116.893C33.3938 116.837 33.3411 116.779 33.2913 116.72C33.2195 116.634 33.2309 116.506 33.3169 116.435C33.4026 116.363 33.5308 116.374 33.6025 116.46C33.6443 116.51 33.6889 116.559 33.7362 116.606L34.4267 117.296C34.5058 117.375 34.5058 117.504 34.4267 117.583C34.3868 117.623 34.3351 117.642 34.2832 117.642ZM65.638 118.965C65.5861 118.965 65.5344 118.946 65.4945 118.906C65.4154 118.827 65.4154 118.698 65.4945 118.619L66.3374 117.777C66.4168 117.697 66.5446 117.697 66.624 117.777C66.7031 117.856 66.7031 117.984 66.624 118.063L65.7816 118.906C65.7417 118.946 65.69 118.965 65.638 118.965ZM36.5306 119.889C36.4786 119.889 36.427 119.87 36.387 119.83L35.5446 118.987C35.4655 118.909 35.4655 118.78 35.5446 118.701C35.6237 118.621 35.7518 118.621 35.8313 118.701L36.6741 119.543C36.7528 119.623 36.7528 119.751 36.6741 119.83C36.6342 119.87 36.5826 119.889 36.5306 119.889ZM63.3894 121.213C63.3378 121.213 63.2858 121.193 63.2462 121.153C63.1671 121.074 63.1671 120.945 63.2462 120.866L64.0887 120.024C64.1682 119.944 64.2963 119.944 64.3757 120.024C64.4545 120.103 64.4545 120.232 64.3757 120.311L63.5329 121.153C63.493 121.193 63.4414 121.213 63.3894 121.213ZM38.7778 122.137C38.7258 122.137 38.6738 122.117 38.6343 122.078L37.7914 121.235C37.7123 121.156 37.7123 121.027 37.7914 120.948C37.8709 120.869 37.999 120.869 38.0781 120.948L38.9209 121.791C39 121.87 39 121.998 38.9209 122.078C38.8814 122.117 38.8294 122.137 38.7778 122.137ZM61.1429 123.46C61.0909 123.46 61.0389 123.441 60.9994 123.401C60.9203 123.322 60.9203 123.193 60.9994 123.114L61.8422 122.271C61.9213 122.192 62.0494 122.192 62.1289 122.271C62.208 122.35 62.208 122.479 62.1289 122.558L61.2861 123.401C61.2465 123.441 61.1945 123.46 61.1429 123.46ZM41.0243 124.385C40.9726 124.385 40.9207 124.365 40.8811 124.325L40.0383 123.482C39.9592 123.403 39.9592 123.274 40.0383 123.196C40.1177 123.116 40.2455 123.116 40.325 123.196L41.1678 124.038C41.2469 124.117 41.2469 124.246 41.1678 124.325C41.1279 124.365 41.0763 124.385 41.0243 124.385ZM58.8946 125.707C58.8426 125.707 58.791 125.688 58.7511 125.648C58.672 125.569 58.672 125.44 58.7511 125.361L59.5939 124.519C59.6734 124.439 59.8012 124.439 59.8806 124.519C59.9597 124.598 59.9597 124.726 59.8806 124.805L59.0378 125.648C58.9982 125.688 58.9462 125.707 58.8946 125.707ZM43.2726 126.632C43.2206 126.632 43.1689 126.612 43.129 126.572L42.2866 125.73C42.2075 125.651 42.2075 125.522 42.2866 125.443C42.3656 125.364 42.4938 125.364 42.5732 125.443L43.4161 126.286C43.4948 126.365 43.4948 126.493 43.4161 126.572C43.3762 126.612 43.3246 126.632 43.2726 126.632ZM56.6474 127.955C56.5958 127.955 56.5438 127.935 56.5042 127.896C56.4252 127.817 56.4252 127.688 56.5042 127.609L57.3467 126.766C57.4262 126.687 57.5543 126.687 57.6338 126.766C57.7125 126.845 57.7125 126.974 57.6338 127.053L56.7909 127.896C56.751 127.935 56.6994 127.955 56.6474 127.955ZM45.5198 128.879C45.4678 128.879 45.4158 128.859 45.3763 128.82L44.5334 127.977C44.4543 127.898 44.4543 127.769 44.5334 127.69C44.6129 127.611 44.741 127.611 44.8201 127.69L45.6629 128.533C45.742 128.612 45.742 128.741 45.6629 128.82C45.6234 128.859 45.5714 128.879 45.5198 128.879ZM54.4005 130.202C54.3489 130.202 54.2969 130.183 54.2574 130.143C54.1783 130.064 54.1783 129.935 54.2574 129.856L55.1002 129.013C55.1793 128.934 55.3075 128.934 55.3869 129.013C55.466 129.092 55.466 129.221 55.3869 129.3L54.5441 130.143C54.5045 130.183 54.4525 130.202 54.4005 130.202ZM47.7663 131.126C47.7146 131.126 47.6627 131.107 47.6231 131.067L46.7803 130.224C46.7012 130.145 46.7012 130.016 46.7803 129.938C46.8597 129.858 46.9875 129.858 47.067 129.938L47.9098 130.78C47.9889 130.859 47.9889 130.988 47.9098 131.067C47.8702 131.107 47.8183 131.126 47.7663 131.126ZM52.1439 132.44C52.0854 132.44 52.0271 132.415 51.9872 132.366C51.9162 132.279 51.9287 132.152 52.0158 132.08C52.0755 132.031 52.1337 131.979 52.1897 131.923L52.852 131.261C52.9315 131.181 53.0593 131.181 53.1387 131.261C53.2178 131.34 53.2178 131.468 53.1387 131.548L52.4768 132.21C52.4112 132.275 52.3428 132.337 52.2725 132.394C52.2347 132.425 52.1893 132.44 52.1439 132.44ZM50.2834 132.955L50.2548 132.953C49.8268 132.893 49.4171 132.726 49.0704 132.471C48.9803 132.405 48.9609 132.278 49.0272 132.188C49.0935 132.097 49.2209 132.078 49.3106 132.144C49.6035 132.36 49.9495 132.5 50.3116 132.551C50.4222 132.567 50.4994 132.669 50.484 132.78C50.4698 132.881 50.383 132.955 50.2834 132.955Z" fill="#34466B"/>
<path fill-rule="evenodd" clip-rule="evenodd" d="M69.3522 101.343L61.7758 108.919C61.4288 109.267 60.866 109.267 60.5189 108.919L56.7408 105.141C56.3937 104.794 56.3937 104.231 56.7408 103.884L64.3175 96.3076L69.3522 101.343Z" fill="#34466B"/>
<path fill-rule="evenodd" clip-rule="evenodd" d="M62.4878 103.17C63.2061 103.888 63.2061 105.053 62.4878 105.771C61.7694 106.49 60.6048 106.49 59.8864 105.771C59.1681 105.053 59.1681 103.888 59.8864 103.17C60.6048 102.451 61.7694 102.451 62.4878 103.17Z" fill="#CEDEE7"/>
<path fill-rule="evenodd" clip-rule="evenodd" d="M110.637 99.0079C110.638 101.386 108.711 103.316 106.332 103.317C103.954 103.319 102.025 101.391 102.023 99.013C102.022 96.6342 103.949 94.7051 106.328 94.7036C108.706 94.7022 110.635 96.6295 110.637 99.0079Z" fill="#D39E00"/>
<path fill-rule="evenodd" clip-rule="evenodd" d="M106.321 95.8679H106.319C104.59 95.8686 103.185 97.2757 103.186 99.0042C103.186 99.8412 103.513 100.628 104.105 101.22C104.697 101.811 105.484 102.136 106.32 102.136H106.322C108.051 102.136 109.456 100.729 109.455 99.0005C109.455 98.1632 109.128 97.3764 108.536 96.7847C107.944 96.1934 107.157 95.8679 106.321 95.8679ZM106.32 102.702C105.333 102.702 104.405 102.318 103.706 101.62C103.007 100.922 102.621 99.9928 102.621 99.0042C102.62 96.9641 104.279 95.3037 106.319 95.3022H106.321C108.36 95.3022 110.02 96.9605 110.021 99.0006C110.022 101.04 108.363 102.701 106.323 102.702H106.32Z" fill="#F6C854"/>
<path d="M85.3629 101.461C87.5194 102.093 89.4756 101.895 89.7927 100.814L89.949 100.252C90.1753 99.1824 88.5669 98.3297 86.4613 97.7128C84.4124 97.1119 82.6077 97.0237 82.1504 97.9822C82.1259 98.0324 81.9985 98.4714 81.9827 98.5256C81.666 99.6064 83.206 100.829 85.3629 101.461Z" fill="#D39E00"/>
<path d="M85.5728 100.776C87.7297 101.408 89.6962 101.176 89.9653 100.257C90.2348 99.3385 88.7043 98.0819 86.5478 97.4496C84.3917 96.8177 82.4252 97.0498 82.1557 97.9684C81.8866 98.887 83.4167 100.144 85.5728 100.776Z" fill="#D39E00"/>
<path fill-rule="evenodd" clip-rule="evenodd" d="M85.7404 100.17C86.5617 100.411 87.4045 100.526 88.0467 100.486C88.66 100.448 89.0561 100.275 89.1334 100.011C89.211 99.7472 88.9708 99.3877 88.4754 99.0249C87.9541 98.6433 87.1841 98.2867 86.3628 98.0462C85.5372 97.8042 84.6838 97.6852 84.0251 97.7211C83.3928 97.7551 82.9867 97.925 82.9099 98.1871C82.7444 98.7528 84.0668 99.6795 85.7404 100.17ZM87.7787 100.843C87.142 100.843 86.3958 100.726 85.6427 100.505C83.9574 100.011 82.3094 98.9964 82.5752 98.0891C82.6993 97.6644 83.1944 97.4169 84.0061 97.373C84.7043 97.3367 85.5988 97.459 86.461 97.7116C87.3324 97.9668 88.1207 98.3333 88.6809 98.7434C89.3205 99.2117 89.5929 99.684 89.468 100.109C89.3432 100.535 88.8595 100.786 88.0687 100.834C87.975 100.84 87.8779 100.843 87.7787 100.843Z" fill="#F6C854"/>
<path d="M133.93 102.813C135.799 104.061 137.725 104.457 138.35 103.52L138.668 103.029C139.204 102.077 137.923 100.783 136.099 99.5644C134.323 98.3788 132.627 97.7549 131.904 98.533C131.866 98.574 131.613 98.9548 131.582 99.0016C130.957 99.9382 132.061 101.565 133.93 102.813Z" fill="#D39E00"/>
<path fill-rule="evenodd" clip-rule="evenodd" d="M134.334 102.222C136.203 103.47 138.15 103.836 138.681 103.04C139.212 102.244 138.128 100.587 136.259 99.3386C134.39 98.0912 132.444 97.7251 131.912 98.521C131.381 99.3174 132.465 100.974 134.334 102.222Z" fill="#D39E00"/>
<path fill-rule="evenodd" clip-rule="evenodd" d="M134.68 101.695C136.128 102.661 137.631 103.056 137.966 102.557C138.118 102.328 137.997 101.914 137.632 101.419C137.249 100.9 136.621 100.329 135.909 99.8543C135.194 99.3761 134.416 99.0085 133.775 98.8448C133.162 98.6889 132.723 98.7288 132.572 98.9565C132.42 99.1835 132.551 99.6042 132.93 100.111C133.327 100.64 133.965 101.217 134.68 101.695ZM137.4 103.115C136.601 103.115 135.458 102.633 134.487 101.984C133.74 101.486 133.071 100.879 132.651 100.32C132.164 99.6694 132.036 99.1308 132.282 98.7625C132.528 98.3941 133.075 98.3059 133.862 98.5073C134.539 98.6801 135.356 99.0649 136.103 99.5643C136.858 100.068 137.5 100.653 137.913 101.213C138.384 101.85 138.502 102.382 138.255 102.751C138.086 103.005 137.782 103.115 137.4 103.115Z" fill="#F6C854"/>
<path d="M134.139 124.135C136.271 123.427 137.767 122.15 137.412 121.081L137.22 120.529C136.798 119.521 134.99 119.736 132.907 120.428C130.881 121.101 129.347 122.056 129.517 123.104C129.526 123.159 129.671 123.593 129.688 123.646C130.044 124.715 132.006 124.843 134.139 124.135Z" fill="#D39E00"/>
<path fill-rule="evenodd" clip-rule="evenodd" d="M133.919 123.453C136.052 122.745 137.536 121.434 137.235 120.526C136.933 119.617 134.96 119.455 132.827 120.163C130.694 120.871 129.21 122.182 129.512 123.091C129.813 123.999 131.787 124.161 133.919 123.453Z" fill="#D39E00"/>
<path fill-rule="evenodd" clip-rule="evenodd" d="M135.216 120.357C134.604 120.357 133.821 120.49 133.016 120.757C131.361 121.307 130.071 122.281 130.257 122.84C130.444 123.399 132.059 123.408 133.713 122.858C135.365 122.309 136.601 121.365 136.413 120.796C136.315 120.504 135.86 120.357 135.216 120.357ZM131.466 123.614C130.686 123.614 130.082 123.419 129.926 122.95C129.629 122.053 131.239 120.98 132.906 120.426C134.544 119.883 136.445 119.789 136.743 120.686C137.041 121.583 135.461 122.645 133.823 123.189C133.029 123.453 132.174 123.614 131.466 123.614Z" fill="#F6C854"/>
<path d="M30.6971 103.078C32.5516 101.809 33.6368 100.169 33.0001 99.239L32.6633 98.7616C31.979 97.9096 30.301 98.6155 28.4904 99.8552C26.7286 101.061 25.5178 102.403 25.9704 103.363C25.9942 103.414 26.2537 103.79 26.2849 103.837C26.9216 104.766 28.843 104.348 30.6971 103.078Z" fill="#D39E00"/>
<path fill-rule="evenodd" clip-rule="evenodd" d="M30.2976 102.483C32.152 101.214 33.2167 99.5439 32.676 98.7542C32.1352 97.9644 30.1936 98.3529 28.3395 99.6227C26.485 100.892 25.4203 102.562 25.9611 103.351C26.5019 104.141 28.4435 103.752 30.2976 102.483Z" fill="#D39E00"/>
<path fill-rule="evenodd" clip-rule="evenodd" d="M31.4044 99.0344C31.2265 99.0344 31.016 99.0648 30.7798 99.1263C30.1548 99.2885 29.3911 99.6586 28.6848 100.142C27.2459 101.128 26.2756 102.419 26.6085 102.905C26.7633 103.131 27.2023 103.166 27.8134 103.002C28.4519 102.832 29.2256 102.454 29.9355 101.969C31.3715 100.985 32.2985 99.7359 31.9599 99.2409C31.8661 99.1043 31.6728 99.0344 31.4044 99.0344ZM27.1478 103.453C26.7611 103.453 26.4807 103.335 26.321 103.102C25.7869 102.322 27.039 100.847 28.4882 99.8549C29.2369 99.3416 30.0201 98.9634 30.6919 98.7887C31.4594 98.5899 31.9976 98.6781 32.2476 99.0443C32.7815 99.8241 31.5564 101.281 30.1321 102.256C29.3911 102.764 28.5786 103.158 27.9035 103.339C27.6197 103.415 27.3664 103.453 27.1478 103.453Z" fill="#F6C854"/>
<path d="M74.0867 78.3887C75.8225 79.8159 77.7001 80.4006 78.4155 79.5303L78.7802 79.0741C79.4073 78.1793 78.2621 76.7642 76.5669 75.371C74.9175 74.0153 73.2918 73.2262 72.4951 73.9288C72.4534 73.9655 72.1641 74.3195 72.1283 74.3631C71.4132 75.233 72.3505 76.9619 74.0867 78.3887Z" fill="#D39E00"/>
<path fill-rule="evenodd" clip-rule="evenodd" d="M74.5511 77.8403C76.2873 79.2675 78.1872 79.8248 78.7953 79.0852C79.4031 78.3456 78.4885 76.5896 76.752 75.1624C75.0161 73.7356 73.1159 73.1784 72.5085 73.9176C71.9003 74.6572 72.8149 76.4135 74.5511 77.8403Z" fill="#D39E00"/>
<path fill-rule="evenodd" clip-rule="evenodd" d="M73.555 74.2595C73.3529 74.2595 73.2028 74.3115 73.1175 74.4155C72.9436 74.6267 73.0318 75.0584 73.3595 75.5999C73.7014 76.1652 74.2788 76.803 74.9441 77.3493C76.2882 78.4543 77.7465 78.9969 78.1273 78.5337C78.508 78.0702 77.6941 76.7448 76.349 75.6394C75.6844 75.0932 74.947 74.6501 74.3257 74.4242C74.0244 74.3144 73.7622 74.2595 73.555 74.2595ZM77.6833 79.0411C76.8778 79.0415 75.6922 78.4161 74.7216 77.6187C74.0278 77.0483 73.4226 76.3782 73.0605 75.78C72.6398 75.0843 72.5662 74.5362 72.847 74.1942C73.1282 73.8523 73.6803 73.8182 74.4445 74.0965C75.1013 74.3356 75.876 74.7998 76.5699 75.3703C77.903 76.4657 78.9962 78.0244 78.3965 78.7548C78.2328 78.9536 77.9846 79.0411 77.6833 79.0411Z" fill="#F6C854"/>
<path fill-rule="evenodd" clip-rule="evenodd" d="M48.7502 84.5889C45.4751 88.6501 42.4974 92.8408 39.8235 97.1294C31.1374 91.7725 21.2002 87.4481 10.2539 84.5882C12.1809 79.7084 14.4234 74.8645 16.9812 70.0879C28.7209 73.5566 39.3915 78.5346 48.7502 84.5889Z" fill="#008437"/>
<path fill-rule="evenodd" clip-rule="evenodd" d="M44.7736 87.4341C43.4947 89.1674 42.2685 90.9208 41.0947 92.6925C39.3523 91.6322 37.0196 92.188 36.0168 93.8971C29.8057 90.4558 23.0301 87.5264 15.7664 85.2457C16.5839 83.3894 15.6042 81.334 13.4531 80.7211C14.3458 78.7106 15.2929 76.7082 16.2947 74.7168C18.4959 75.3689 21.0204 74.4759 22.0576 72.6606C29.7885 75.3173 37.0068 78.6407 43.6349 82.4946C42.4193 84.133 42.9887 86.3295 44.7736 87.4341Z" fill="#63BA68"/>
<path fill-rule="evenodd" clip-rule="evenodd" d="M32.0635 78.9969C34.6872 80.1861 35.519 83.0042 34.1391 85.2134C32.7533 87.4264 29.7825 88.289 27.2906 87.2173C24.8042 86.1431 23.6322 83.4567 24.8862 81.1278C26.1347 78.7999 29.4449 77.8059 32.0635 78.9969Z" fill="#008437"/>
<path fill-rule="evenodd" clip-rule="evenodd" d="M59.1055 83.606C59.1069 85.9848 57.1796 87.9139 54.8012 87.915C52.4224 87.9165 50.4933 85.9895 50.4922 83.6108C50.4907 81.2324 52.4173 79.3032 54.7964 79.3018C57.1748 79.3003 59.104 81.2276 59.1055 83.606Z" fill="#D39E00"/>
<path fill-rule="evenodd" clip-rule="evenodd" d="M54.7949 80.4661H54.7927C53.9557 80.4665 53.1682 80.793 52.5769 81.3854C51.9852 81.9775 51.6594 82.765 51.6601 83.602C51.6608 85.3302 53.0671 86.735 54.7945 86.735H54.7967C56.5245 86.7343 57.9297 85.3272 57.9286 83.5987C57.9283 82.7614 57.6021 81.9746 57.0097 81.3829C56.4176 80.7916 55.6312 80.4661 54.7949 80.4661ZM54.7939 87.3008C52.7549 87.3008 51.0952 85.6422 51.0938 83.6025C51.0934 82.6143 51.4778 81.685 52.176 80.9857C52.8746 80.2868 53.8035 79.9012 54.7921 79.9009H54.7943C55.7813 79.9009 56.7099 80.285 57.4084 80.9828C58.1078 81.6814 58.4929 82.6103 58.4937 83.5985C58.4948 85.6385 56.8362 87.2993 54.7961 87.3008H54.7939Z" fill="#F6C854"/>
<path fill-rule="evenodd" clip-rule="evenodd" d="M67.0124 64.7427C67.0139 67.1211 65.0866 69.0507 62.7078 69.0521C60.3294 69.0532 58.3999 67.1263 58.3984 64.7475C58.3977 62.3691 60.3243 60.4399 62.7031 60.4385C65.0815 60.437 67.011 62.3643 67.0124 64.7427Z" fill="#D39E00"/>
<path fill-rule="evenodd" clip-rule="evenodd" d="M62.7011 61.6029H62.6989C61.8619 61.6033 61.0744 61.9299 60.4831 62.5223C59.8914 63.1143 59.5655 63.9019 59.5663 64.7389C59.5666 65.5766 59.8932 66.3634 60.4856 66.9551C61.0773 67.546 61.8637 67.8719 62.7004 67.8719H62.7022C63.5399 67.8711 64.3267 67.5449 64.918 66.9525C65.5097 66.3601 65.8356 65.5725 65.8348 64.7356C65.8341 63.0078 64.4281 61.6029 62.7011 61.6029ZM62.6998 68.4371C61.7123 68.4371 60.7838 68.0527 60.0852 67.3549C59.3863 66.6566 59.0007 65.7278 59 64.7392C58.9996 63.751 59.3841 62.8218 60.0823 62.1224C60.7805 61.4235 61.7094 61.038 62.6983 61.0376H62.7005C63.6876 61.0376 64.6161 61.4217 65.3147 62.1195C66.0136 62.8181 66.3992 63.747 66.3999 64.7352C66.4003 65.7234 66.0158 66.653 65.3176 67.3519C64.6194 68.0512 63.6905 68.4364 62.7016 68.4371H62.6998Z" fill="#F6C854"/>
<path fill-rule="evenodd" clip-rule="evenodd" d="M85.2117 57.9205C85.2128 60.2989 83.2858 62.2284 80.907 62.2295C78.5286 62.2309 76.5991 60.304 76.5977 57.9252C76.5966 55.5468 78.5235 53.6173 80.9023 53.6162C83.2807 53.6147 85.2102 55.5417 85.2117 57.9205Z" fill="#D39E00"/>
<path fill-rule="evenodd" clip-rule="evenodd" d="M80.9 54.7801H80.8982C80.0609 54.7809 79.2737 55.1071 78.6824 55.6995C78.0907 56.2919 77.7648 57.0794 77.7656 57.9168C77.7663 59.6442 79.1723 61.0494 80.8997 61.0494H80.9015C81.7389 61.0487 82.526 60.7225 83.1173 60.1301C83.709 59.5377 84.0349 58.7505 84.0341 57.9131C84.0338 57.0758 83.7072 56.2886 83.1148 55.6973C82.5231 55.1056 81.7367 54.7801 80.9 54.7801ZM80.899 61.6148C79.9115 61.6148 78.983 61.2303 78.2844 60.5325C77.5855 59.8339 77.2 58.9054 77.1992 57.9172C77.1989 56.9286 77.5833 55.9994 78.2815 55.3001C78.9797 54.6011 79.9086 54.2156 80.8975 54.2148H80.8994C81.8868 54.2148 82.8153 54.5993 83.5139 55.2971C84.2129 55.9957 84.5984 56.9246 84.5991 57.9128C84.5995 58.901 84.2151 59.8302 83.5168 60.5295C82.8186 61.2288 81.8897 61.614 80.9008 61.6148H80.899Z" fill="#F6C854"/>
<path d="M102.777 67.1856C102.779 69.5644 100.852 71.4935 98.4734 71.495C96.0947 71.4965 94.1655 69.5691 94.1641 67.1907C94.1626 64.812 96.0899 62.8828 98.4683 62.8813C100.847 62.8799 102.776 64.8072 102.777 67.1856Z" fill="#D39E00"/>
<path fill-rule="evenodd" clip-rule="evenodd" d="M98.4661 64.0458H98.4639C97.6269 64.0461 96.8401 64.3727 96.2481 64.9651C95.6564 65.5575 95.3313 66.3447 95.332 67.182C95.3327 68.9098 96.7383 70.3147 98.4657 70.3147H98.4679C100.196 70.3136 101.602 68.9069 101.601 67.1784C101.6 65.4506 100.193 64.0458 98.4661 64.0458ZM98.465 70.88C97.4779 70.88 96.5494 70.4959 95.8508 69.7977C95.1515 69.0995 94.7664 68.1706 94.7656 67.1824C94.7649 66.1942 95.149 65.265 95.8475 64.5657C96.5461 63.8664 97.475 63.4808 98.4632 63.4805H98.4654C99.4525 63.4805 100.381 63.8645 101.08 64.5628C101.779 65.261 102.165 66.1899 102.166 67.178C102.167 69.2181 100.507 70.8789 98.4672 70.88H98.465Z" fill="#F6C854"/>
<path fill-rule="evenodd" clip-rule="evenodd" d="M112.711 83.0811C112.712 85.4595 110.785 87.389 108.407 87.3905C106.028 87.392 104.099 85.4646 104.098 83.0859C104.097 80.7075 106.024 78.7783 108.402 78.7769C110.781 78.7754 112.71 80.7027 112.711 83.0811L114.602 87.8332Z" fill="#D39E00"/>
<path fill-rule="evenodd" clip-rule="evenodd" d="M108.399 79.9414H108.396C106.668 79.9425 105.263 81.3492 105.264 83.0777C105.265 83.9147 105.591 84.7018 106.184 85.2935C106.775 85.8844 107.562 86.2099 108.398 86.2099H108.401C109.237 86.2096 110.025 85.883 110.616 85.2906C111.208 84.6985 111.533 83.9114 111.533 83.074C111.532 81.3462 110.126 79.9414 108.399 79.9414ZM108.399 86.7755C106.36 86.7755 104.7 85.1173 104.699 83.0779C104.698 81.0379 106.357 79.3771 108.397 79.376H108.399C110.438 79.376 112.098 81.0342 112.099 83.0736C112.099 84.0617 111.715 84.991 111.016 85.6903C110.318 86.3892 109.389 86.7748 108.401 86.7755H108.399Z" fill="#F6C854"/>
<path fill-rule="evenodd" clip-rule="evenodd" d="M54.5423 55.2669C54.5136 55.0676 54.4228 54.8788 54.2769 54.7301L54.0815 54.531L53.3001 53.7344C53.2256 53.6585 53.1655 53.5721 53.1207 53.4792L53.1048 53.5353C53.0108 53.8674 53.1018 54.2238 53.3435 54.4702L53.3436 54.4704L54.1544 55.2969C54.154 55.2969 54.1536 55.297 54.1532 55.2971C54.3737 55.5419 54.4541 55.8831 54.3639 56.202L54.348 56.2581C54.3031 56.1652 54.243 56.0789 54.1686 56.0029L54.2418 56.0776L53.5824 55.4055L52.9787 54.7901L52.9964 54.8081C52.9219 54.7321 52.8618 54.6457 52.8169 54.5528L52.801 54.6089C52.7071 54.941 52.7981 55.2974 53.0397 55.5439L53.0399 55.544L53.0653 55.57L53.6259 56.1414L53.626 56.1415L53.8213 56.3405C54.0631 56.587 54.1541 56.9435 54.0601 57.2756L54.0443 57.3318C53.9994 57.2389 53.9393 57.1525 53.8648 57.0765L53.9381 57.1512L52.888 56.0808L52.8879 56.0807C52.792 55.9829 52.72 55.8679 52.6737 55.744C51.9121 56.132 51.4533 56.6862 51.5751 57.1632C51.74 57.8087 52.9061 58.0684 54.1796 57.7432C55.4531 57.418 56.3518 56.631 56.1869 55.9855C56.0651 55.5086 55.3967 55.2423 54.5423 55.2669Z" fill="white"/>
</svg>
