<svg width="160" height="160" viewBox="0 0 160 160" fill="none" xmlns="http://www.w3.org/2000/svg">
<path fill-rule="evenodd" clip-rule="evenodd" d="M67.264 120.164C66.8689 119.769 66.481 119.37 66.101 118.966C58.447 110.831 48.306 105.522 37.3166 103.526C30.646 102.315 24.2635 99.1316 19.1061 93.9761C5.59772 80.4723 5.58236 58.6956 19.0725 45.1736C25.0235 39.2087 32.6117 35.8755 40.3927 35.1731C47.0542 34.5716 53.3126 31.6656 57.9341 26.8308C57.9938 26.7685 58.0539 26.7067 58.114 26.6454C65.9976 18.6031 78.7512 18.5235 86.7312 26.4702C86.7767 26.5155 86.8223 26.5613 86.8669 26.6071C88.9985 28.7703 92.0755 29.715 95.0563 29.1361C112.053 25.8359 130.332 30.7672 143.497 43.9311C164.531 64.9653 164.531 99.1302 143.497 120.164C122.445 141.215 88.315 141.215 67.264 120.164Z" fill="#EAF7FE"/>
<path d="M37.7102 119.467C43.5408 119.467 48.3515 123.832 49.0462 129.471C49.6846 129.255 50.3685 129.137 51.0796 129.137C54.5762 129.137 57.4109 131.97 57.4109 135.464C57.4109 135.792 57.386 136.114 57.3376 136.428L67.8737 137.296V137.297C70.3312 137.297 72.3406 139.216 72.4815 141.637H20.6028C20.4947 141.174 20.4375 140.691 20.4375 140.195C20.4375 136.863 23.0163 134.132 26.2878 133.886V133.87L26.3953 133.879C26.4909 133.874 26.5871 133.87 26.684 133.869C26.4259 132.917 26.2883 131.914 26.2883 130.88C26.2883 124.577 31.4022 119.467 37.7102 119.467Z" fill="#9BC3D3"/>
<path d="M39.5195 98.7744L52.717 76.1574C57.199 68.4762 68.3011 68.4762 72.7831 76.1574L85.9805 98.7744V141.637C70.4937 141.637 55.0064 141.637 39.5195 141.637V98.7744Z" fill="#FFE99F"/>
<path d="M85.9805 102.37H119.598L123.557 109.115V141.638H85.9805V102.37Z" fill="#FFE99F"/>
<path fill-rule="evenodd" clip-rule="evenodd" d="M52.717 76.1563L39.5195 98.7734V108.884L56.0604 80.5378C59.2366 75.0943 65.0446 72.7039 70.5317 73.3672C65.3043 68.6278 56.5677 69.5573 52.717 76.1563Z" fill="#FFE99F"/>
<path fill-rule="evenodd" clip-rule="evenodd" d="M71.3775 77.2288C67.5479 70.573 57.9508 70.573 54.1212 77.2288L32.6601 114.53C32.2029 115.325 31.1883 115.598 30.3942 115.14C29.6 114.683 29.3268 113.668 29.7841 112.873L51.2452 75.5717C56.351 66.6975 69.1478 66.6975 74.2535 75.5717L95.7146 112.873C96.1721 113.668 95.8988 114.683 95.1045 115.14C94.3102 115.598 93.2961 115.325 92.8386 114.53L71.3775 77.2288Z" fill="#F4A48D"/>
<path d="M62.62 68.917C62.6632 68.9165 62.7064 68.916 62.7491 68.916H62.619L62.62 68.917Z" fill="#EC0000"/>
<path d="M94.3185 115.362H127.427C127.452 115.362 127.478 115.362 127.504 115.362H127.518L127.518 115.362C127.782 115.353 128.047 115.281 128.292 115.14C129.086 114.683 129.359 113.668 128.901 112.873L107.44 75.5718C104.887 71.1345 100.412 68.916 95.9362 68.916V68.932L95.9085 68.916H62.7539C67.2284 68.917 71.7028 71.1354 74.2553 75.5718L95.7164 112.873C96.1739 113.668 95.9005 114.683 95.1062 115.14C94.8573 115.284 94.5872 115.355 94.3185 115.362Z" fill="#EC0000"/>
<path d="M71.073 141.638V116.742C71.073 115.834 70.3299 115.097 69.4135 115.097H54.3236C53.4071 115.097 52.6641 115.834 52.6641 116.742V141.638H71.073Z" fill="#A66555"/>
<path d="M140.62 141.637H16.8047V143.892H140.62V141.637Z" fill="#DEEDF2"/>
<path d="M34.8585 133.648C33.8713 132.838 33.2441 131.626 33.2441 130.271C33.2441 127.832 35.2751 125.855 37.7803 125.855C40.2857 125.855 42.3168 127.832 42.3168 130.271C42.3168 131.156 42.0486 131.981 41.5878 132.672C44.2679 133.642 46.1773 136.155 46.1773 139.101C46.1773 139.997 46.0007 140.853 45.6794 141.638H32.5836C32.2625 140.853 32.0859 139.997 32.0859 139.101C32.0859 136.878 33.1732 134.901 34.8585 133.648Z" fill="#9BC3D3"/>
<path d="M119.791 119.468C113.935 119.468 109.104 123.833 108.406 129.472C107.765 129.256 107.079 129.138 106.364 129.138C102.853 129.138 100.006 131.971 100.006 135.465C100.006 135.793 100.031 136.115 100.079 136.429L99.3114 136.733V136.734C96.7514 136.734 94.6758 138.799 94.6758 141.346C94.6758 141.444 94.6791 141.542 94.6852 141.638H136.972C137.08 141.175 137.138 140.692 137.138 140.196C137.138 136.864 134.548 134.133 131.263 133.887V133.871L131.154 133.88C131.058 133.875 130.962 133.871 130.864 133.87C131.123 132.917 131.262 131.915 131.262 130.881C131.262 124.578 126.126 119.468 119.791 119.468Z" fill="#9BC3D3"/>
<path fill-rule="evenodd" clip-rule="evenodd" d="M102.539 22.4333L104.924 20.9673C106.832 22.4304 107.929 24.1484 108.216 26.1211C108.503 28.0939 108.216 30.4002 107.356 33.04C106.955 33.6267 106.754 34.4319 106.754 35.4557C106.754 36.4795 107.511 37.6519 109.024 38.9729H104.924C104.275 38.3157 103.95 37.1433 103.95 35.4557C103.95 32.9242 106.255 30.3897 105.355 26.9902C104.755 24.7239 103.816 23.2049 102.539 22.4333Z" fill="#1BB3BC"/>
<path fill-rule="evenodd" clip-rule="evenodd" d="M72.8555 32.5396L75.2407 34.0056C77.1486 32.5425 78.2454 30.8245 78.5324 28.8518C78.8189 26.879 78.5324 24.5727 77.6724 21.9329C77.2708 21.3463 77.0702 20.541 77.0702 19.5172C77.0702 18.4934 77.8269 17.321 79.3408 16H75.2407C74.5911 16.6572 74.2665 17.8296 74.2665 19.5172C74.2665 22.0487 76.5714 24.5832 75.6709 27.9827C75.0706 30.249 74.1321 31.768 72.8555 32.5396Z" fill="#63BA68"/>
<path fill-rule="evenodd" clip-rule="evenodd" d="M116.386 39.4899L118.985 38.7427C120.358 40.6459 120.915 42.5721 120.652 44.5213C120.389 46.4705 119.507 48.5815 118.006 50.8542C117.477 51.3025 117.076 52.0123 116.802 52.9838C116.528 53.9553 116.915 55.2719 117.962 56.9337L114.169 55.8275C113.744 55.0285 113.757 53.8284 114.208 52.227C114.885 49.8251 117.696 48.0423 117.772 44.5737C117.823 42.2613 117.361 40.5667 116.386 39.4899Z" fill="#EC0000"/>
<path fill-rule="evenodd" clip-rule="evenodd" d="M34.5867 23.0315L37.2563 22.2842C38.6673 24.1874 39.238 26.1136 38.9684 28.0628C38.6988 30.0121 37.7927 32.123 36.2507 34.3957C35.708 34.844 35.296 35.5538 35.0148 36.5253C34.7336 37.4967 35.1307 38.8135 36.2063 40.4754L32.3099 39.3688C31.8732 38.57 31.8867 37.3699 32.3503 35.7686C33.0457 33.3666 35.9324 31.5838 36.0106 28.1152C36.0627 25.8028 35.5881 24.1082 34.5867 23.0315Z" fill="#EC0000"/>
<path fill-rule="evenodd" clip-rule="evenodd" d="M129.76 80.6167L132.528 80.7712C133.249 83.0282 133.167 85.0353 132.282 86.7934C131.398 88.5511 129.859 90.2561 127.665 91.9095C127.007 92.1584 126.388 92.6972 125.808 93.5258C125.228 94.3543 125.179 95.7287 125.66 97.6489L122.329 95.3436C122.174 94.4464 122.575 93.3149 123.53 91.9489C124.964 89.9005 128.272 89.1452 129.466 85.8878C130.262 83.7159 130.36 81.9591 129.76 80.6167Z" fill="#EC0000"/>
<path fill-rule="evenodd" clip-rule="evenodd" d="M83.1142 54.5705L79.798 52.355L76.6289 57.0078L79.9451 59.223L83.1142 54.5705Z" fill="#F6C854"/>
<path fill-rule="evenodd" clip-rule="evenodd" d="M22.6406 49.8098L26.2351 47.9111L28.1994 51.5812L24.6049 53.4798L22.6406 49.8098Z" fill="#63BA68"/>
<path fill-rule="evenodd" clip-rule="evenodd" d="M141.938 102.456L145.532 100.557L147.496 104.227L143.902 106.126L141.938 102.456Z" fill="#63BA68"/>
<path fill-rule="evenodd" clip-rule="evenodd" d="M45.9416 48.9009C47.269 49.5243 48.781 49.1699 49.3184 48.1095C49.8557 47.0491 49.2151 45.6842 47.8872 45.0609C46.5598 44.4376 45.0478 44.792 44.5104 45.8523C43.9731 46.9128 44.6138 48.2776 45.9416 48.9009Z" fill="#EC0000"/>
<path fill-rule="evenodd" clip-rule="evenodd" d="M144.6 29.0143C144.223 30.4151 144.864 31.8031 146.032 32.1145C147.201 32.4259 148.454 31.5429 148.831 30.1422C149.208 28.7414 148.567 27.3534 147.399 27.042C146.231 26.7306 144.977 27.6136 144.6 29.0143Z" fill="#EC0000"/>
<path fill-rule="evenodd" clip-rule="evenodd" d="M50.3988 27.5403C49.8798 29.4913 50.7619 31.4246 52.3683 31.8584C53.9743 32.2922 55.6972 31.0622 56.2157 29.1112C56.7348 27.1602 55.8531 25.2269 54.2467 24.7931C52.6403 24.3593 50.9174 25.5893 50.3988 27.5403Z" fill="#1BB3BC"/>
<path fill-rule="evenodd" clip-rule="evenodd" d="M6.5823 96.6522C6.06359 98.6029 6.94529 100.536 8.5517 100.97C10.1581 101.404 11.8808 100.174 12.3995 98.2229C12.9182 96.2717 12.0365 94.3388 10.4301 93.9048C8.82376 93.4713 7.10105 94.701 6.5823 96.6522Z" fill="#1BB3BC"/>
<path fill-rule="evenodd" clip-rule="evenodd" d="M153.195 60.6881C154.238 62.4166 156.241 63.1254 157.669 62.2715C159.097 61.4171 159.409 59.3236 158.365 57.595C157.323 55.8665 155.319 55.1577 153.891 56.0121C152.464 56.8661 152.152 58.96 153.195 60.6881Z" fill="#1BB3BC"/>
<path fill-rule="evenodd" clip-rule="evenodd" d="M63.3127 39.7913C62.7941 41.7423 63.6758 43.6755 65.2822 44.1094C66.8886 44.5431 68.6115 43.3132 69.1301 41.3622C69.6486 39.4111 68.767 37.4778 67.1606 37.0441C65.5542 36.6103 63.8317 37.8402 63.3127 39.7913Z" fill="#F6C854"/>
<path fill-rule="evenodd" clip-rule="evenodd" d="M123.966 45.66C123.431 47.561 124.34 49.4447 125.995 49.8674C127.65 50.29 129.425 49.0916 129.959 47.1906C130.494 45.2896 129.585 43.4059 127.93 42.9833C126.275 42.5606 124.5 43.759 123.966 45.66Z" fill="#F6C854"/>
<path fill-rule="evenodd" clip-rule="evenodd" d="M30.3464 88.1085C29.9692 89.4594 30.6104 90.7976 31.7787 91.0983C32.947 91.3984 34.1999 90.5468 34.5771 89.1959C34.9544 87.8455 34.3132 86.5068 33.1448 86.2067C31.9766 85.9065 30.7237 86.7581 30.3464 88.1085Z" fill="#63BA68"/>
<path fill-rule="evenodd" clip-rule="evenodd" d="M32.1135 72L34.4721 67.0479L30.1818 69.0963L24.6897 64.6152V72L20.0508 74.2443L25.851 75.5027V81.507L30.1818 76.126H35.43L32.1135 72Z" fill="#F6C854"/>
<path fill-rule="evenodd" clip-rule="evenodd" d="M154.705 84.4562L159.999 83.0161L155.648 81.0983L155.466 74.0122L149.866 78.8267L145.14 76.7722L147.967 81.9907L143.414 85.9053L150.318 85.6812L153.739 89.6606L154.705 84.4562Z" fill="#1BB3BC"/>
<path fill-rule="evenodd" clip-rule="evenodd" d="M89.3333 38.5984L92.7613 33.4839L94.2249 40.0622L99.139 41.2411L94.2249 43.6177V49.262L89.8016 45.1184L84.1238 47.1181L87.8209 42.377L82.2773 37.0553L89.3333 38.5984Z" fill="#63BA68"/>
<path fill-rule="evenodd" clip-rule="evenodd" d="M42.6523 68.7218L45.7872 69.9994C46.0686 68.4921 46.8572 67.0665 48.1531 65.7231C50.0973 63.7085 53.9245 63.5967 57.0227 61.0227C59.0875 59.3064 60.1651 58.0025 60.2552 57.11L57.0227 55.7061C55.9052 57.5962 54.6323 59.0753 53.203 60.1429C51.0597 61.7451 48.0211 61.9246 45.7872 63.8241C44.2982 65.0899 43.2531 66.7227 42.6523 68.7218Z" fill="#EC0000"/>
<path fill-rule="evenodd" clip-rule="evenodd" d="M146.601 54.5696L143.499 53.292C143.22 54.7993 142.44 56.2244 141.158 57.5678C139.234 59.5828 135.447 59.6946 132.382 62.2686C130.339 63.9845 129.272 65.2884 129.184 66.1809L132.382 67.5848C133.488 65.6947 134.747 64.2161 136.161 63.1479C138.282 61.5458 141.289 61.3668 143.499 59.4673C144.972 58.2009 146.006 56.5682 146.601 54.5696Z" fill="#EC0000"/>
<path fill-rule="evenodd" clip-rule="evenodd" d="M116.473 18.2589L119.41 16.6162C119.673 18.5541 120.412 20.3867 121.626 22.1138C123.447 24.7044 127.033 24.8481 129.935 28.1577C131.87 30.364 132.88 32.0407 132.964 33.1879L129.935 34.993C128.889 32.563 127.696 30.6614 126.357 29.2883C124.349 27.2285 121.502 26.9981 119.41 24.556C118.014 22.9279 117.035 20.8288 116.473 18.2589Z" fill="#63BA68"/>
<path fill-rule="evenodd" clip-rule="evenodd" d="M0 61.2289L3.16214 60.0781C3.11174 62.0331 3.5474 63.9603 4.46911 65.8598C5.85166 68.7086 9.36787 69.4254 11.7022 73.1572C13.2585 75.6448 13.9862 77.4617 13.8854 78.6078L10.6068 79.9042C9.96314 77.3377 9.0906 75.2695 7.98918 73.6997C6.33701 71.3446 3.56407 70.6612 1.88974 67.9153C0.773567 66.0843 0.143638 63.8555 0 61.2289Z" fill="#63BA68"/>
<path fill-rule="evenodd" clip-rule="evenodd" d="M121.929 73.0862L118.827 74.3807C118.549 72.8537 117.768 71.4098 116.486 70.049C114.563 68.0081 110.775 67.8949 107.71 65.2871C105.667 63.5487 104.6 62.2279 104.512 61.3241L107.71 59.9019C108.816 61.8164 110.075 63.3143 111.489 64.3965C113.61 66.0194 116.617 66.2007 118.827 68.1251C120.301 69.4079 121.335 71.0613 121.929 73.0862Z" fill="#1BB3BC"/>
</svg>
