<svg width="160" height="160" viewBox="0 0 160 160" fill="none" xmlns="http://www.w3.org/2000/svg">
<path fill-rule="evenodd" clip-rule="evenodd" d="M71.7094 145.088C71.1363 145.015 70.5648 144.936 69.9939 144.851L69.8802 144.834L69.9694 144.244C70.4968 144.324 71.0265 144.398 71.5566 144.467L71.7839 144.495C71.7583 144.693 71.7339 144.89 71.7094 145.088ZM75.3799 145.458C74.8041 145.414 74.2282 145.363 73.6535 145.307L73.542 145.295L73.6013 144.702C74.1907 144.761 74.7818 144.813 75.3734 144.859L75.4245 144.863C75.4093 145.061 75.3946 145.259 75.3799 145.458ZM66.4386 143.622C66.9835 143.731 67.5294 143.835 68.0764 143.933L68.158 143.947L68.0536 144.535C67.4745 144.432 66.897 144.322 66.3206 144.206L66.2418 144.191L66.3603 143.605C66.3864 143.611 66.4125 143.616 66.4386 143.622ZM79.0647 145.642C78.4867 145.628 77.9081 145.606 77.3307 145.579L77.2208 145.573L77.2502 144.977C77.8358 145.006 78.422 145.028 79.0087 145.044L79.0799 145.046C79.0745 145.245 79.0701 145.444 79.0647 145.642ZM62.89 142.812C63.4229 142.948 63.9584 143.078 64.494 143.202L64.5723 143.219L64.4386 143.801C63.8714 143.67 63.3059 143.534 62.7426 143.391L62.6458 143.366L62.7937 142.788C62.8258 142.796 62.8579 142.804 62.89 142.812ZM82.7557 145.641C82.1641 145.656 81.5725 145.664 80.9809 145.665H80.9102V145.069C81.516 145.068 82.1201 145.06 82.7253 145.045C82.7253 145.045 82.7492 145.404 82.7557 145.641ZM59.3131 141.804C59.8688 141.975 60.4261 142.141 60.9856 142.3L61.0259 142.311L60.8638 142.886C60.3201 142.732 59.7801 142.571 59.2413 142.406L59.0945 142.36L59.2717 141.79C59.2853 141.795 59.2995 141.799 59.3131 141.804ZM86.4394 145.453C85.8266 145.499 85.2132 145.539 84.5993 145.571L84.5678 144.975C85.1436 144.946 85.72 144.908 86.2964 144.865L86.3942 144.858C86.4095 145.056 86.4247 145.255 86.4394 145.453ZM55.823 140.622C56.3646 140.821 56.9083 141.013 57.4543 141.199L57.5315 141.225L57.3401 141.79C56.7626 141.595 56.1889 141.392 55.6175 141.182L55.8061 140.616C55.8116 140.618 55.8176 140.62 55.823 140.622ZM52.4231 139.275C52.95 139.499 53.4796 139.717 54.0114 139.929L54.0968 139.963L53.8766 140.518C53.3121 140.293 52.7488 140.061 52.1893 139.823L52.4046 139.266C52.4106 139.269 52.4171 139.272 52.4231 139.275ZM90.1107 145.076C89.5045 145.154 88.8971 145.224 88.2892 145.287L88.2169 144.694C88.7916 144.636 89.3636 144.57 89.9356 144.497L90.0351 144.485C90.0602 144.682 90.0852 144.879 90.1107 145.076ZM93.7581 144.513C93.1871 144.617 92.6157 144.712 92.042 144.802L91.9381 144.818L91.8468 144.229C92.4427 144.136 93.0398 144.036 93.6346 143.93C93.6346 143.93 93.7157 144.281 93.7581 144.513ZM49.1171 137.765C49.6288 138.014 50.1437 138.257 50.6608 138.495L50.731 138.527L50.4825 139.069C49.9703 138.835 49.4597 138.594 48.9524 138.348L48.8142 138.281L49.0763 137.745C49.0899 137.752 49.1035 137.758 49.1171 137.765ZM97.3697 143.765C96.8281 143.892 96.2849 144.012 95.7406 144.126L95.5683 144.162L95.447 143.578C95.988 143.466 96.5296 143.347 97.069 143.222L97.2343 143.184C97.2794 143.377 97.3246 143.571 97.3697 143.765ZM45.9093 136.099C46.4052 136.372 46.9043 136.64 47.4062 136.902L47.4421 136.92L47.1669 137.45C47.0593 137.394 46.9527 137.338 46.8456 137.282C46.4671 137.082 46.0903 136.879 45.7146 136.673L45.5411 136.577L45.8293 136.055C45.856 136.07 45.8826 136.085 45.9093 136.099ZM42.7128 134.227C43.1919 134.525 43.6742 134.816 44.1598 135.103L44.2386 135.149L43.9363 135.663C43.4197 135.36 42.9075 135.05 42.3986 134.734L42.3572 134.709L42.6726 134.202C42.6862 134.211 42.6993 134.219 42.7128 134.227ZM100.941 142.833C100.355 143.003 99.7653 143.163 99.1742 143.318L99.0111 142.744C99.1519 142.708 99.2922 142.67 99.4331 142.633C99.8746 142.514 100.316 142.392 100.757 142.265C100.757 142.265 100.876 142.606 100.941 142.833ZM104.46 141.72C103.927 141.904 103.392 142.081 102.855 142.252L102.708 142.299L102.528 141.73C103.044 141.567 103.56 141.397 104.074 141.222L104.266 141.156C104.331 141.345 104.396 141.532 104.46 141.72ZM39.6327 132.202C40.1226 132.543 40.6169 132.877 41.1149 133.205L40.8045 133.715C40.6805 133.633 40.5565 133.551 40.4331 133.469C40.0503 133.213 39.6702 132.954 39.2923 132.692L39.6164 132.192C39.6218 132.195 39.6272 132.199 39.6327 132.202ZM107.918 140.431C107.401 140.638 106.882 140.839 106.362 141.036L106.197 141.097L105.988 140.538C106.108 140.494 106.228 140.449 106.348 140.403C106.741 140.254 107.131 140.102 107.521 139.946L107.695 139.877C107.769 140.061 107.843 140.246 107.918 140.431ZM36.6687 130.03C37.1395 130.393 37.6148 130.751 38.0938 131.104L38.1275 131.128L37.7746 131.609C37.6496 131.517 37.5245 131.425 37.4 131.333C37.0324 131.059 36.667 130.782 36.3038 130.502C36.3038 130.502 36.6355 130.004 36.6687 130.03ZM111.303 138.967C110.801 139.198 110.296 139.425 109.789 139.646L109.619 139.72L109.383 139.172C109.888 138.954 110.389 138.73 110.889 138.501L111.053 138.425C111.137 138.606 111.22 138.786 111.303 138.967ZM33.9056 127.783C34.3297 128.146 34.7587 128.503 35.191 128.857L35.2312 128.889L34.8544 129.352C34.4325 129.008 34.0132 128.659 33.5978 128.305L33.4385 128.169L33.8267 127.716C33.8528 127.738 33.8789 127.761 33.9056 127.783ZM114.613 137.334C114.123 137.591 113.631 137.842 113.136 138.089L112.969 138.171L112.705 137.636C112.822 137.578 112.94 137.52 113.058 137.461C113.432 137.274 113.803 137.084 114.174 136.891L114.336 136.805C114.428 136.982 114.52 137.158 114.613 137.334ZM31.1112 125.265C31.5413 125.673 31.9752 126.075 32.4145 126.472L32.4537 126.507L32.054 126.951C31.5967 126.538 31.1465 126.12 30.7006 125.698C30.7006 125.698 31.097 125.251 31.1112 125.265ZM117.834 135.536C117.356 135.818 116.876 136.095 116.392 136.366L116.234 136.455L115.944 135.934C116.056 135.871 116.169 135.808 116.282 135.744C116.645 135.538 117.007 135.33 117.366 135.119L117.53 135.022C117.632 135.193 117.733 135.364 117.834 135.536ZM28.5264 122.685C28.9345 123.113 29.3472 123.536 29.7648 123.955L29.7985 123.988L29.3771 124.41C28.9438 123.977 28.5168 123.54 28.0945 123.097C28.0945 123.097 28.4819 122.639 28.5264 122.685ZM120.961 133.578C120.495 133.885 120.026 134.188 119.554 134.486L119.41 134.576L119.094 134.071C119.2 134.004 119.306 133.937 119.412 133.87C119.765 133.646 120.115 133.42 120.463 133.192L120.632 133.08C120.742 133.246 120.852 133.412 120.961 133.578ZM26.0763 119.982C26.4619 120.429 26.8526 120.872 27.2485 121.31L27.2734 121.337L26.8312 121.738C26.7288 121.625 26.6268 121.511 26.525 121.398C26.2218 121.058 25.9216 120.716 25.6242 120.371L26.0625 119.965C26.0671 119.971 26.0717 119.976 26.0763 119.982ZM123.987 131.464C123.506 131.819 123.02 132.167 122.53 132.51L122.488 132.54L122.146 132.051C122.643 131.703 123.137 131.349 123.627 130.989C123.627 130.989 123.846 131.272 123.987 131.464ZM23.7682 117.16C24.1308 117.626 24.4986 118.088 24.8717 118.545L24.425 118.941C24.0424 118.473 23.6674 118.002 23.2972 117.526L23.2751 117.498L23.7464 117.132C23.7536 117.142 23.7609 117.151 23.7682 117.16ZM126.903 129.201C126.436 129.583 125.964 129.959 125.489 130.329L125.459 130.351L125.094 129.88C125.569 129.511 126.04 129.135 126.507 128.754L126.525 128.739C126.65 128.893 126.776 129.047 126.903 129.201ZM21.6052 114.227C21.944 114.71 22.2882 115.19 22.6379 115.666L22.1632 116.027C21.8076 115.545 21.4596 115.059 21.1164 114.569L21.0874 114.527L21.5763 114.185C21.586 114.2 21.5956 114.213 21.6052 114.227ZM19.5899 111.188C19.8857 111.658 20.1864 112.126 20.4922 112.59L20.5469 112.673L20.0492 113.002C19.7418 112.536 19.4385 112.066 19.1405 111.594L19.0504 111.45L19.556 111.134C19.5673 111.152 19.5786 111.17 19.5899 111.188ZM129.698 126.794C129.247 127.202 128.792 127.604 128.331 128.001L127.925 127.563C128.378 127.174 128.826 126.778 129.27 126.377L129.297 126.352C129.431 126.5 129.564 126.647 129.698 126.794ZM17.7277 108.049C17.9997 108.534 18.2768 109.016 18.5591 109.496L18.6034 109.571L18.0899 109.874C17.8075 109.397 17.5305 108.916 17.2585 108.432L17.1707 108.275L17.6915 107.984C17.7035 108.006 17.7157 108.027 17.7277 108.049ZM132.371 124.25C131.939 124.682 131.501 125.11 131.059 125.532L130.64 125.107C131.072 124.697 131.496 124.281 131.916 123.861L131.949 123.828C132.089 123.969 132.23 124.109 132.371 124.25ZM134.91 121.573C134.499 122.03 134.082 122.48 133.659 122.926L133.225 122.517C133.633 122.088 134.035 121.652 134.432 121.213L134.468 121.174C134.616 121.307 134.763 121.44 134.91 121.573ZM16.0246 104.815C16.2722 105.315 16.5251 105.811 16.7833 106.305L16.82 106.375L16.2918 106.652C16.0344 106.162 15.7832 105.67 15.5368 105.174L15.4545 105.008L15.9893 104.744C16.0011 104.768 16.0129 104.792 16.0246 104.815ZM137.313 118.772C136.946 119.222 136.574 119.667 136.197 120.109L136.129 120.188L135.676 119.8C136.061 119.35 136.442 118.894 136.817 118.435L136.849 118.396C137.003 118.521 137.158 118.646 137.313 118.772ZM14.4848 101.494C14.7072 102.007 14.935 102.516 15.1685 103.023L15.2008 103.093L14.6593 103.343C14.427 102.841 14.2007 102.335 13.9795 101.829L13.9061 101.659L14.4536 101.422C14.4639 101.446 14.4744 101.47 14.4848 101.494ZM139.571 115.853C139.208 116.347 138.838 116.837 138.464 117.323L137.989 116.962C138.075 116.85 138.161 116.738 138.247 116.625C138.523 116.264 138.795 115.9 139.065 115.533L139.089 115.5C139.25 115.618 139.41 115.735 139.571 115.853ZM13.1126 98.0915C13.3091 98.6156 13.5114 99.1371 13.7193 99.6569L13.75 99.7336L13.1965 99.956C12.9893 99.44 12.7874 98.9207 12.591 98.3998L12.5297 98.2356L13.0885 98.0268C13.0965 98.0485 13.1046 98.0697 13.1126 98.0915ZM11.9107 94.6127C12.0807 95.1477 12.2566 95.6806 12.4383 96.2124L12.4703 96.3054L11.9062 96.4989C11.7113 95.9323 11.5234 95.3636 11.342 94.7926L11.3275 94.747L11.8964 94.5675C11.9011 94.5822 11.9059 94.5974 11.9107 94.6127ZM141.676 112.822C141.342 113.331 141.001 113.834 140.655 114.334L140.153 114.01C140.497 113.516 140.835 113.015 141.167 112.511C141.167 112.511 141.479 112.693 141.676 112.822ZM143.624 109.689C143.32 110.206 143.01 110.718 142.695 111.227L142.669 111.268L142.163 110.953C142.45 110.492 142.732 110.026 143.009 109.556L143.109 109.387C143.281 109.488 143.452 109.589 143.624 109.689ZM10.8852 91.0632C11.0369 91.6423 11.1954 92.2197 11.3608 92.7956L10.7935 92.981C10.7521 92.838 10.7114 92.6944 10.6709 92.5509C10.546 92.1066 10.425 91.6608 10.308 91.2138L10.882 91.0512C10.883 91.055 10.8841 91.0588 10.8852 91.0632ZM145.411 106.461C145.158 106.947 144.899 107.431 144.635 107.912L144.539 108.086L144.017 107.798C144.083 107.678 144.148 107.558 144.214 107.439C144.434 107.034 144.651 106.628 144.863 106.221L144.882 106.185C145.059 106.277 145.235 106.369 145.411 106.461ZM10.0626 87.5537C10.1784 88.1078 10.3004 88.6608 10.4285 89.2122L10.443 89.2747L9.86211 89.4101C9.73558 88.8691 9.61525 88.3253 9.50052 87.7799L9.46474 87.6087L10.0488 87.4874C10.0535 87.5097 10.0581 87.5314 10.0626 87.5537ZM147.03 103.145C146.796 103.658 146.555 104.167 146.308 104.675L146.242 104.813L145.705 104.551C145.946 104.059 146.182 103.562 146.411 103.064L146.488 102.897C146.668 102.979 146.849 103.062 147.03 103.145ZM9.41394 83.9889C9.50203 84.5517 9.59637 85.1128 9.69701 85.6729L9.11325 85.7969C9.00999 85.227 8.91434 84.6545 8.82446 84.0808L8.80842 83.9775L9.3979 83.8856C9.40323 83.9204 9.40856 83.9547 9.41394 83.9889ZM8.9324 80.2676C8.99135 80.8374 9.0567 81.4067 9.12843 81.9749L9.14104 82.0744L8.54928 82.15C8.47196 81.5443 8.40187 80.9369 8.33901 80.3285C8.33901 80.3285 8.92495 80.1947 8.9324 80.2676ZM148.479 99.7511C148.254 100.316 148.023 100.878 147.785 101.438L147.228 101.223C147.455 100.691 147.676 100.154 147.891 99.6157L147.924 99.5303C148.109 99.6037 148.294 99.6777 148.479 99.7511ZM8.6523 76.6081C8.68232 77.1851 8.7188 77.7604 8.76165 78.3351L8.76915 78.4335L8.17435 78.4792C8.12764 77.8664 8.08844 77.2525 8.05652 76.6386C8.05652 76.6386 8.64083 76.3809 8.6523 76.6081ZM149.751 96.2874C149.555 96.8638 149.353 97.438 149.143 98.0095L148.577 97.8208C148.778 97.2749 148.972 96.7246 149.16 96.1722L149.186 96.0955C149.375 96.1597 149.563 96.2233 149.751 96.2874ZM150.846 92.7633C150.692 93.3054 150.532 93.8464 150.366 94.3853L150.321 94.5321L149.752 94.3548C149.788 94.2368 149.824 94.1188 149.86 94.0014C149.987 93.5838 150.111 93.1656 150.231 92.7459L150.272 92.6007C150.463 92.6551 150.654 92.7089 150.846 92.7633ZM8.55754 73.0189C8.55873 73.6007 8.56656 74.182 8.58092 74.7633L7.98497 74.7943C7.981 74.6425 7.97779 74.4914 7.97469 74.3397C7.96648 73.8998 7.96186 73.4599 7.96094 73.02V72.9493L8.55754 72.9488C8.55748 72.9722 8.55754 72.9955 8.55754 73.0189ZM151.762 89.1887C151.633 89.7553 151.496 90.3208 151.352 90.8841L151.327 90.9814L150.75 90.8341C150.894 90.268 151.032 89.7009 151.163 89.1332L151.182 89.0549C151.375 89.1 151.569 89.1446 151.762 89.1887ZM8.64398 69.3985C8.61761 69.9483 8.59716 70.498 8.58243 71.0477L8.58058 71.1195L7.9843 71.1037C7.99877 70.5268 8.02046 69.9477 8.04825 69.3692L8.05358 69.2604L8.64947 69.2898C8.64767 69.3257 8.64583 69.3626 8.64398 69.3985ZM152.496 85.5729C152.394 86.1515 152.284 86.7289 152.168 87.3058L152.152 87.3852L151.568 87.2672C151.684 86.6968 151.792 86.1237 151.895 85.5501L151.909 85.4685C152.105 85.5033 152.301 85.5387 152.496 85.5729ZM8.91348 65.7516C8.85905 66.3045 8.81039 66.8581 8.76781 67.4122L8.76384 67.4638L8.16909 67.4187C8.21243 66.8439 8.26327 66.2676 8.31976 65.6928L8.33096 65.5814L8.92457 65.6406C8.92082 65.6776 8.91707 65.7146 8.91348 65.7516ZM9.38191 62.0095C9.30231 62.5364 9.22798 63.0655 9.15941 63.5951L9.13054 63.8224L8.53867 63.7479C8.61093 63.1753 8.68961 62.6038 8.77487 62.034L8.792 61.9204C8.98868 61.9497 9.18529 61.9796 9.38191 62.0095ZM153.034 82.032C152.96 82.604 152.88 83.175 152.794 83.7459L152.205 83.6567C152.284 83.1282 152.359 82.6002 152.427 82.0706L152.456 81.8439L153.048 81.9184C153.043 81.9559 153.038 81.9945 153.034 82.032ZM153.415 78.2985C153.372 78.8569 153.323 79.4148 153.269 79.9722L153.257 80.0836L152.664 80.0244C152.722 79.4355 152.775 78.845 152.821 78.2528L152.825 78.2017L153.419 78.2463C153.418 78.2637 153.416 78.2811 153.415 78.2985ZM10.0199 58.3991C9.90436 58.9695 9.79556 59.5415 9.69284 60.1157L9.67822 60.1978L9.09092 60.0934C9.19379 59.5133 9.30341 58.9358 9.41918 58.36L9.43522 58.2806C9.6301 58.3203 9.82492 58.36 10.0199 58.3991ZM153.601 74.6328C153.586 75.1874 153.566 75.7415 153.539 76.2955L153.534 76.4048L152.938 76.3749C152.967 75.7904 152.989 75.2042 153.005 74.6175L153.007 74.5463L153.603 74.561C153.603 74.5854 153.602 74.6094 153.601 74.6328ZM10.8388 54.832C10.6947 55.3959 10.5569 55.963 10.4254 56.5323L10.4074 56.6106L9.82582 56.4774C9.95627 55.9092 10.0931 55.3447 10.2361 54.7814L10.2608 54.6846C10.4535 54.7336 10.6461 54.7831 10.8388 54.832ZM153.602 70.8867C153.617 71.4729 153.624 72.0585 153.626 72.6447V72.7164H153.029C153.029 72.1107 153.021 71.5061 153.006 70.9014L153.602 70.871C153.602 70.8758 153.602 70.8813 153.602 70.8867ZM11.8361 51.3108C11.7996 51.4283 11.7634 51.5462 11.7274 51.6637C11.6003 52.0813 11.4767 52.5 11.3567 52.9192L11.3153 53.0649L10.7413 52.9024C10.8948 52.3597 11.0553 51.8187 11.2212 51.2798L11.2665 51.1335C11.4563 51.1928 11.6463 51.2515 11.8361 51.3108ZM153.421 67.285C153.464 67.8652 153.502 68.4459 153.532 69.0266L152.936 69.0576C152.907 68.4824 152.869 67.906 152.826 67.3302L152.819 67.2312L153.414 67.1861C153.416 67.2192 153.419 67.2519 153.421 67.285ZM13.0095 47.845C12.9577 47.9858 12.9065 48.1266 12.8556 48.2675C12.7091 48.6753 12.5661 49.0836 12.4264 49.4931L12.4001 49.5703L11.8351 49.3789C12.0311 48.8014 12.2338 48.2278 12.4434 47.6557C12.4434 47.6557 12.7875 47.7634 13.0095 47.845ZM153.05 63.6147C153.122 64.1878 153.188 64.762 153.246 65.3368L152.655 65.4085C152.596 64.8343 152.53 64.2623 152.457 63.6903L152.445 63.5908L153.037 63.5158C153.041 63.5484 153.045 63.5821 153.05 63.6147ZM14.3605 44.4432C14.3017 44.5807 14.2435 44.7189 14.1857 44.8564C14.0198 45.2534 13.8571 45.6514 13.6979 46.05L13.6638 46.1359L13.1096 45.9151C13.3341 45.3502 13.5658 44.7874 13.804 44.2273C13.804 44.2273 14.1435 44.3507 14.3605 44.4432ZM152.478 59.8862C152.58 60.4512 152.675 61.0172 152.763 61.5844L152.78 61.6877L152.19 61.7796C152.098 61.1836 151.998 60.5866 151.891 59.9917L152.475 59.8683C152.476 59.8737 152.477 59.8803 152.478 59.8862ZM15.8805 41.1147C15.8271 41.2244 15.774 41.3341 15.7212 41.4432C15.536 41.828 15.354 42.2146 15.1752 42.6022L15.0985 42.7691L14.556 42.5211C14.7907 42.0086 15.0314 41.4983 15.2775 40.9907L15.3445 40.8533C15.5231 40.9407 15.7019 41.0274 15.8805 41.1147ZM151.741 56.3171C151.87 56.8733 151.993 57.4307 152.11 57.9902L152.123 58.0565L151.539 58.1783C151.427 57.6362 151.309 57.0957 151.184 56.5563L151.145 56.391L151.726 56.2545C151.731 56.2758 151.736 56.2964 151.741 56.3171ZM17.5713 37.8689C17.2831 38.3901 17.0007 38.9162 16.7246 39.4452L16.7059 39.481L16.1766 39.2057C16.2325 39.0984 16.2885 38.9918 16.3448 38.8845C16.5446 38.5058 16.7475 38.1288 16.9535 37.7536L17.0492 37.5805C17.2232 37.6766 17.3973 37.7727 17.5713 37.8689ZM150.799 52.705C150.965 53.2852 151.125 53.8675 151.279 54.4515L150.704 54.6141C150.668 54.4738 150.63 54.3335 150.593 54.1932C150.474 53.7512 150.352 53.3097 150.225 52.8703L150.793 52.6843C150.795 52.6914 150.797 52.6979 150.799 52.705ZM19.4239 34.7125C19.1184 35.2038 18.8184 35.7005 18.5237 36.2L18.4772 36.2791L17.9629 35.977C18.2482 35.4916 18.5395 35.0085 18.8359 34.5287L18.9174 34.3974C19.0861 34.5029 19.255 34.6077 19.4239 34.7125ZM149.713 49.2597C149.896 49.7958 150.073 50.3331 150.245 50.873L150.259 50.9187L149.69 51.0981C149.526 50.5805 149.357 50.0655 149.182 49.5528L149.117 49.3608L149.68 49.1662C149.691 49.1972 149.702 49.2287 149.713 49.2597ZM21.4341 31.6549C21.3503 31.7759 21.2669 31.8969 21.184 32.0173C20.9265 32.3934 20.6718 32.7726 20.4205 33.1536L19.9106 32.8434C20.2453 32.334 20.5863 31.8308 20.9329 31.3311C20.9329 31.3311 21.2405 31.5204 21.4341 31.6549ZM148.422 45.7857C148.632 46.3105 148.835 46.8357 149.034 47.3648L149.058 47.4295L148.5 47.6377C148.308 47.1261 148.11 46.6144 147.907 46.1055L147.838 45.932L148.391 45.7091C148.401 45.7346 148.412 45.7602 148.422 45.7857ZM23.5994 28.7042C23.5131 28.8153 23.4271 28.9279 23.3414 29.0398C23.0661 29.4007 22.7933 29.7653 22.5237 30.1316L22.4988 30.1659L22.0177 29.8132C22.1095 29.688 22.2018 29.5629 22.2943 29.4384C22.5681 29.0706 22.845 28.7052 23.125 28.3423C23.125 28.3423 23.4109 28.5582 23.5994 28.7042ZM146.959 42.3918C147.195 42.9039 147.424 43.4172 147.648 43.9332L147.68 44.0066L147.132 44.2426C146.914 43.738 146.69 43.2361 146.461 42.7364L146.385 42.5722L146.927 42.3221C146.938 42.3451 146.948 42.3688 146.959 42.3918ZM25.9095 25.8659C25.5237 26.3164 25.1437 26.7711 24.7688 27.2299L24.7359 27.2704L24.2734 26.8934C24.3511 26.7979 24.4291 26.703 24.5072 26.6075C24.7757 26.2821 25.0467 25.9583 25.3203 25.6369L25.4563 25.4781C25.6074 25.6073 25.7585 25.7366 25.9095 25.8659ZM145.33 39.0832C145.59 39.581 145.845 40.0813 146.095 40.5848L146.13 40.6571L145.596 40.9208C145.537 40.8037 145.479 40.6859 145.421 40.5688C145.234 40.195 145.043 39.8234 144.85 39.4527L144.765 39.2902L145.293 39.0129C145.306 39.0361 145.318 39.06 145.33 39.0832ZM28.3614 23.1488C27.9525 23.5794 27.5511 24.0136 27.1542 24.4525L27.1186 24.492L26.6756 24.0927C27.087 23.6364 27.5051 23.1856 27.9282 22.7389C27.9282 22.7389 28.1883 22.9849 28.3614 23.1488ZM143.54 35.866C143.826 36.3489 144.105 36.8358 144.379 37.3246L144.415 37.3902L143.895 37.6807C143.628 37.203 143.356 36.73 143.08 36.2589L142.982 36.0941L143.496 35.7905C143.51 35.8154 143.526 35.841 143.54 35.866ZM30.9473 20.5595C30.8445 20.657 30.7417 20.7558 30.6395 20.854C30.3143 21.1676 29.9919 21.4842 29.6716 21.8039L29.6379 21.8376L29.216 21.4164C29.6488 20.9825 30.0865 20.556 30.5291 20.1335C30.5291 20.1335 30.783 20.3867 30.9473 20.5595ZM141.593 32.7466C141.902 33.2146 142.205 33.686 142.504 34.16L142.538 34.2145L142.031 34.5313C141.744 34.0708 141.451 33.615 141.153 33.1619L141.041 32.9923L141.539 32.6636C141.557 32.6911 141.576 32.7192 141.593 32.7466ZM33.66 18.1022C33.5497 18.1973 33.4393 18.293 33.3294 18.3888C32.9896 18.6855 32.6514 18.9852 32.3159 19.2886L32.2887 19.313L31.888 18.8713C32.0011 18.7685 32.1147 18.6665 32.2284 18.5646C32.5682 18.2617 32.9102 17.9613 33.255 17.6638C33.255 17.6638 33.5067 17.9235 33.66 18.1022ZM139.43 29.6462C139.782 30.1258 140.129 30.6086 140.471 31.096L140.5 31.1377L140.011 31.4798C139.663 30.9814 139.308 30.4888 138.949 30.0002C138.949 30.0002 139.392 29.5946 139.43 29.6462ZM36.4938 15.7859C36.018 16.1554 35.5477 16.5303 35.0812 16.9111L34.6853 16.4645C35.1513 16.0829 35.6238 15.707 36.1001 15.3364L36.1284 15.3147C36.2502 15.4716 36.372 15.6284 36.4938 15.7859ZM137.177 26.7427C137.552 27.2039 137.923 27.6692 138.289 28.1391L138.311 28.1677L137.84 28.5331C137.47 28.0565 137.095 27.5867 136.714 27.12L137.161 26.7244C137.166 26.7305 137.171 26.7366 137.177 26.7427ZM39.4406 13.6147C39.1992 13.7838 38.9588 13.9543 38.7196 14.1251C38.4656 14.3079 38.2128 14.4915 37.961 14.6767L37.5994 14.202C38.0818 13.8462 38.5679 13.4984 39.0572 13.1551L39.0991 13.1259C39.2127 13.2891 39.3269 13.4522 39.4406 13.6147ZM134.78 23.9547C135.179 24.3969 135.573 24.8431 135.961 25.2941L135.523 25.6996C135.133 25.2459 134.737 24.7987 134.337 24.355L134.312 24.328L134.755 23.927C134.763 23.9362 134.771 23.9454 134.78 23.9547ZM42.4918 11.5953C42.0313 11.8834 41.5756 12.1769 41.1227 12.4741L40.953 12.5858L40.624 12.0887C41.09 11.7805 41.5593 11.4774 42.0318 11.1796L42.1748 11.0897C42.2803 11.2585 42.3863 11.4265 42.4918 11.5953ZM132.245 21.289C132.666 21.7108 133.082 22.1372 133.493 22.5683L133.068 22.9865C132.658 22.5555 132.242 22.1312 131.823 21.7109L131.789 21.6773L132.21 21.2553C132.222 21.2664 132.233 21.2774 132.245 21.289ZM45.6412 9.73198C45.5287 9.7944 45.4161 9.85753 45.3035 9.92137C44.9403 10.1267 44.5787 10.335 44.2193 10.5462L44.054 10.6438L43.7506 10.1301C44.2285 9.84769 44.7098 9.57054 45.1932 9.29845L45.3503 9.21053C45.4471 9.38415 45.5439 9.55836 45.6412 9.73198ZM129.573 18.7507C130.016 19.1513 130.454 19.5565 130.887 19.9671L130.477 20.4008C130.048 19.9928 129.613 19.5906 129.174 19.1932L129.134 19.1575L129.534 18.715C129.547 18.7269 129.56 18.7388 129.573 18.7507ZM48.8807 8.0292C48.7633 8.0876 48.6458 8.146 48.5289 8.20445C48.1548 8.39215 47.7829 8.58219 47.4126 8.77511L47.25 8.86021L46.9727 8.33191C47.4626 8.07482 47.9553 7.82345 48.4501 7.57718L48.6165 7.49459C48.7046 7.67299 48.7926 7.85145 48.8807 8.0292ZM126.773 16.3461C127.208 16.7026 127.641 17.0633 128.068 17.4287L128.148 17.4963L127.76 17.9492C127.31 17.5644 126.855 17.1838 126.396 16.8085L126.356 16.7761L126.732 16.3135C126.746 16.3242 126.759 16.3355 126.773 16.3461ZM52.203 6.49273C52.0828 6.54471 51.9627 6.59734 51.843 6.64938C51.4592 6.81827 51.0774 6.98939 50.6974 7.16415L50.5321 7.24016L50.2819 6.69816C50.7844 6.4663 51.2895 6.23956 51.7968 6.01852L51.9665 5.94512C52.0453 6.12766 52.1242 6.31019 52.203 6.49273ZM123.847 14.0811C124.33 14.4367 124.809 14.7971 125.284 15.1637L124.923 15.6379C124.451 15.2731 123.974 14.9149 123.494 14.5624L123.461 14.5376L123.814 14.0562C123.824 14.0645 123.836 14.0728 123.847 14.0811ZM55.5984 5.12742C55.0851 5.31865 54.5745 5.51641 54.0661 5.71907L53.8921 5.78851L53.6697 5.23546C54.1863 5.02786 54.705 4.82591 55.226 4.62961L55.3896 4.56823C55.4592 4.75484 55.5288 4.9408 55.5984 5.12742ZM120.801 11.9621C121.302 12.2927 121.801 12.6297 122.295 12.9727L121.971 13.4735C121.477 13.1298 120.976 12.7926 120.472 12.4603L120.783 11.9502C120.789 11.9544 120.794 11.9579 120.801 11.9621ZM59.059 3.93543C58.9438 3.97191 58.8285 4.0084 58.7132 4.04559C58.3119 4.175 57.9123 4.3074 57.5143 4.44329L57.3212 4.50941L57.1276 3.94489C57.6942 3.75023 58.263 3.56263 58.8339 3.3807L58.8796 3.36683C58.9394 3.55611 58.9992 3.74544 59.059 3.93543ZM117.729 10.0486C118.218 10.3372 118.704 10.6314 119.188 10.9305L119.229 10.9564L118.914 11.4631C118.451 11.1749 117.986 10.8931 117.517 10.6162L117.348 10.5159L117.65 10.002C117.676 10.017 117.703 10.0329 117.729 10.0486ZM62.5748 2.92096C62.4345 2.95799 62.2942 2.99507 62.1539 3.03215C61.7118 3.15123 61.2703 3.27374 60.8304 3.39984L60.645 2.83243C60.788 2.79106 60.9316 2.75033 61.0746 2.71031C61.5194 2.58492 61.9652 2.46432 62.4122 2.3473C62.4122 2.3473 62.515 2.69128 62.5748 2.92096ZM114.456 8.23365C114.962 8.49824 115.465 8.76788 115.966 9.04313L116.046 9.08788L115.757 9.60977C115.235 9.32142 114.709 9.03921 114.18 8.76266L114.145 8.74428L114.42 8.21516C114.432 8.22152 114.444 8.22794 114.456 8.23365ZM66.1387 2.08731C65.5955 2.19981 65.0556 2.31873 64.5173 2.44325L64.3514 2.48153L64.2155 1.90086C64.7576 1.77411 65.3013 1.65362 65.8462 1.53938L66.0175 1.50327C66.0577 1.69799 66.0985 1.89265 66.1387 2.08731ZM111.175 6.6279C111.697 6.86715 112.215 7.11266 112.732 7.36387L112.773 7.38442L112.511 7.92007C112.402 7.86651 112.292 7.81371 112.182 7.7608C111.798 7.5756 111.411 7.3935 111.024 7.21455L110.857 7.13827L111.105 6.59533C111.128 6.60664 111.151 6.61725 111.175 6.6279ZM69.7397 1.43658C69.1432 1.52946 68.5467 1.62918 67.9529 1.73586L67.8284 1.1521C68.3988 1.04878 68.9714 0.953193 69.545 0.863148L69.6484 0.847217C69.6788 1.04389 69.7093 1.23991 69.7397 1.43658ZM107.796 5.18186C108.333 5.3956 108.866 5.61555 109.398 5.84202L109.182 6.39887C108.649 6.17082 108.113 5.95055 107.575 5.73599L107.49 5.70206L107.71 5.14782C107.739 5.15918 107.768 5.17055 107.796 5.18186ZM73.3687 0.970693C73.2224 0.985374 73.0762 1.00141 72.9293 1.01746C72.5031 1.064 72.0762 1.11386 71.6499 1.1678L71.5509 1.18025L71.4754 0.589091C72.0811 0.511552 72.6885 0.441681 73.2964 0.378606C73.2964 0.378606 73.3448 0.734489 73.3687 0.970693ZM104.325 3.90128C104.875 4.08865 105.424 4.28244 105.97 4.48265L105.781 5.04929C105.233 4.84751 104.684 4.65361 104.133 4.46547L104.056 4.43931L104.248 3.87447C104.273 3.88339 104.299 3.89236 104.325 3.90128ZM77.0194 0.690569C76.7306 0.705141 76.4425 0.722324 76.1537 0.740213C75.7481 0.766041 75.1929 0.807529 75.1929 0.807529L75.1478 0.212451C75.76 0.166178 76.3739 0.126757 76.9878 0.0947843C76.9878 0.0947843 77.0074 0.452081 77.0194 0.690569ZM100.765 2.7915C101.329 2.95174 101.891 3.11856 102.451 3.29174L102.493 3.30496L102.316 3.87453C101.781 3.70825 101.245 3.54915 100.707 3.39522L100.562 3.35351L100.724 2.77981C100.738 2.78372 100.751 2.78758 100.765 2.7915ZM80.6758 0.596274C80.5431 0.596709 80.411 0.597144 80.2783 0.597633C79.8058 0.600787 79.3333 0.607965 78.8613 0.619927L78.8308 0.0241424C78.982 0.0202818 79.1337 0.0170193 79.2849 0.0138112C79.7248 0.00549185 80.1652 0.00119625 80.6051 0.000271874L80.6758 0C80.6758 0.198522 80.6758 0.397752 80.6758 0.596274ZM97.2266 1.88236C97.7671 2.00709 98.3065 2.13765 98.8442 2.27408L98.9416 2.29903L98.7931 2.87736C98.2271 2.73229 97.661 2.59521 97.0928 2.46335L97.0145 2.44579L97.1483 1.86409C97.1744 1.8704 97.2005 1.87605 97.2266 1.88236ZM84.3345 0.687402C83.7484 0.658638 83.1628 0.636018 82.5766 0.620739L82.5054 0.618944L82.5206 0.0228333C83.0981 0.0369708 83.6772 0.0586663 84.2552 0.0862887L84.3645 0.0920525C84.3547 0.290466 84.3443 0.488934 84.3345 0.687402ZM93.6152 1.14492C94.1665 1.24356 94.7173 1.34818 95.2665 1.45867L95.3459 1.47503L95.2274 2.05945C94.6553 1.9438 94.0839 1.83505 93.5108 1.73271L93.4292 1.71803L93.5336 1.13024C93.5608 1.13535 93.588 1.14052 93.6152 1.14492ZM87.9861 0.96342C87.3951 0.904314 86.8046 0.852114 86.214 0.806603L86.1629 0.802851L86.2075 0.208154C86.7828 0.251545 87.3586 0.301787 87.9345 0.358663L88.0459 0.370082C88.0258 0.567843 88.0057 0.765604 87.9861 0.96342ZM90.9084 0.714974C91.1748 0.752601 91.4407 0.790827 91.7072 0.831064L91.6191 1.42114C91.4685 1.39819 91.3167 1.37585 91.1656 1.3542C90.7126 1.28874 90.2581 1.22708 89.8035 1.16949L89.8796 0.577732C90.2222 0.621178 90.5658 0.666798 90.9084 0.714974Z" fill="#9BC3D3"/>
<path fill-rule="evenodd" clip-rule="evenodd" d="M61.1606 5.72354C62.5619 5.9374 63.8642 4.96382 64.0583 3.5635C64.2502 2.17504 63.2813 0.894083 61.8931 0.701596C60.4929 0.507478 59.2015 1.49536 59.0264 2.90231C58.86 4.23987 59.8279 5.52002 61.1606 5.72354ZM68.8101 144.994L71.7551 148.186L74.9458 145.242L72.0009 142.05L68.8101 144.994Z" fill="#F6C854"/>
<path fill-rule="evenodd" clip-rule="evenodd" d="M123.975 17.3093C125.344 17.499 126.607 16.5504 126.796 15.1903C126.984 13.8303 126.026 12.5738 124.658 12.384C123.288 12.1942 122.025 13.1428 121.837 14.5029C121.648 15.8629 122.605 17.1194 123.975 17.3093ZM16.7373 100.536L13.7926 97.3444L10.6016 100.289L13.5463 103.48L16.7373 100.536Z" fill="#1BB3BC"/>
<path fill-rule="evenodd" clip-rule="evenodd" d="M13.082 43.0833L17.2222 43.6575L17.7962 39.5173L13.656 38.9434L13.082 43.0833Z" fill="#EC0000"/>
<path fill-rule="evenodd" clip-rule="evenodd" d="M140.324 112.162L144.465 112.736L145.039 108.596L140.898 108.021L140.324 112.162Z" fill="#9E3667"/>
<path fill-rule="evenodd" clip-rule="evenodd" d="M150.011 48.2871L152.956 51.4795L149.765 54.4233L146.82 51.232L150.011 48.2871Z" fill="#444444"/>
<path fill-rule="evenodd" clip-rule="evenodd" d="M10.9819 68.0448C10.7934 69.4047 9.53071 70.3536 8.16144 70.1638C6.79212 69.974 5.83518 68.7174 6.02369 67.3575C6.21227 65.9971 7.4749 65.0488 8.84417 65.2385C10.2135 65.4283 11.1705 66.6849 10.9819 68.0448Z" fill="#A66555"/>
<path fill-rule="evenodd" clip-rule="evenodd" d="M30.8672 82.108V30.9111C30.8672 28.9502 32.4098 27.3509 34.3445 27.2681L34.5027 27.2651L35.9572 27.2653C54.9095 27.2653 67.9285 22.9169 79.5837 14.6274L79.9763 14.9054C91.4005 22.9219 104.176 27.1682 122.572 27.2637L124.664 27.2651L124.821 27.2681C126.703 27.3485 128.213 28.8625 128.295 30.7485L128.299 30.9111V82.108C128.299 109.814 107.046 132.709 80.3923 136.314L79.5832 136.417C52.5519 133.171 30.8672 110.094 30.8672 82.108Z" fill="#CEDEE7"/>
<path d="M107.962 26.1554L51.2572 124.368C38.8891 114.336 30.8672 99.13 30.8672 82.108V30.9111C30.8672 28.9502 32.4098 27.3509 34.3445 27.2681L34.5027 27.2651L35.9572 27.2653C54.9095 27.2653 67.9285 22.9169 79.5837 14.6274L79.9763 14.9054C88.1075 20.611 96.9228 24.4067 107.962 26.1554Z" fill="#DEEDF2"/>
<mask id="mask0_1557_5764" style="mask-type:luminance" maskUnits="userSpaceOnUse" x="30" y="14" width="117" height="146">
<path fill-rule="evenodd" clip-rule="evenodd" d="M30.8672 160V30.9125C30.8672 28.9517 32.4103 27.3523 34.345 27.2695L34.5027 27.2666L35.9572 27.2667C54.9095 27.2667 67.9285 22.9183 79.5837 14.6289L79.9769 14.9068C91.4005 22.9233 122.543 27.1696 140.939 27.2651L143.03 27.2666L143.188 27.2695C145.069 27.35 146.579 28.864 146.662 30.7499L146.665 30.9125V160H30.8672Z" fill="white"/>
</mask>
<g mask="url(#mask0_1557_5764)">
<path fill-rule="evenodd" clip-rule="evenodd" d="M104.409 87.9645C102.502 87.834 100.539 88.1913 98.6992 89.0928L99.9047 91.5342C101.844 90.5827 103.961 90.4315 105.888 90.96C108.161 91.5712 110.169 93.1171 111.289 95.3851C111.974 96.77 112.24 98.2571 112.148 99.6921C113.141 99.2043 113.793 98.7802 114.895 98.8939C114.859 97.3088 114.489 95.6945 113.742 94.1817C111.91 90.4712 108.278 88.2206 104.409 87.9645Z" fill="#9BC3D3"/>
<path fill-rule="evenodd" clip-rule="evenodd" d="M110.581 119.793L106.016 122.032C104.44 122.805 102.525 122.158 101.749 120.585L96.8777 110.724C96.4432 109.843 96.4487 108.849 96.8238 108.009C98.3072 109.147 100.065 109.889 101.89 110.177C101.961 110.42 102.554 111.582 102.677 111.83C103.061 112.608 103.998 112.933 104.774 112.553L114.033 108.011C114.81 107.629 115.135 106.685 114.751 105.909L114.05 104.487C113.675 103.729 112.725 103.39 111.94 103.774L104.155 107.593C102.304 107.698 100.475 107.195 98.9434 106.169L113.138 99.2065C114.758 98.4121 116.634 99.1151 117.397 100.66L122.267 110.521C123.044 112.093 122.403 113.995 120.824 114.769L116.608 116.838L123.035 129.851C121.675 131.68 122.994 134.36 125.285 134.405L129.656 143.257C129.977 143.907 129.709 144.69 129.058 145.009L125.721 146.646C125.072 146.965 124.283 146.699 123.962 146.05L116.57 131.083L117.525 128.187L114.305 127.334L110.581 119.793Z" fill="#F6C854"/>
<path fill-rule="evenodd" clip-rule="evenodd" d="M111.886 122.452L117.93 119.488L116.626 116.829L110.582 119.793L111.886 122.452Z" fill="#D39E00"/>
<path fill-rule="evenodd" clip-rule="evenodd" d="M113.741 104.07C112.656 106.292 110.99 107.929 109.051 108.967C105.592 110.821 101.264 110.767 97.8438 108.715C97.8481 108.715 97.8546 108.712 97.8584 108.712C98.9476 108.588 99.9094 107.924 100.413 106.955C103.31 108.156 106.224 107.6 108.355 106.199H108.357C109.019 105.764 109.603 105.248 110.089 104.679C111.468 104.003 112.709 103.042 113.741 104.07Z" fill="#9BC3D3"/>
<path fill-rule="evenodd" clip-rule="evenodd" d="M89.7297 120.778C86.273 117.989 84.4026 113.46 85.2426 108.788C86.0784 104.148 89.3724 100.561 93.5489 99.1259C93.4674 101.303 94.0155 103.509 95.2911 105.534C95.1307 107.222 96.2938 108.783 98.0001 109.086C99.8205 109.419 101.527 108.182 101.838 106.423C102.162 104.635 100.967 102.921 99.1675 102.598C98.3937 102.46 97.6347 102.603 96.9958 102.953C96.3552 101.511 96.1546 99.9796 96.3384 98.5088C97.4922 98.3892 98.6808 98.4261 99.8803 98.6414C104.42 99.4533 107.953 102.592 109.463 106.602H109.465C109.797 107.486 110.03 108.409 110.157 109.359C110.157 109.363 110.159 109.367 110.159 109.371C110.322 110.622 110.3 111.919 110.064 113.228C109.192 118.057 105.659 121.744 101.238 123.054L100.09 122.848L99.4573 126.364L96.1366 125.766L91.3582 152.3L88.7873 154.041L93.9497 125.373L91.7633 124.98L86.9837 151.518L88.7868 154.04L86.9837 151.518L85.1796 148.994L89.5747 124.586L88.3116 124.359L88.9798 120.643L89.7297 120.778ZM91.9186 110.903C91.7642 111.76 90.9415 112.33 90.0829 112.176C89.2222 112.022 88.6513 111.203 88.8068 110.347C88.9606 109.489 89.7806 108.921 90.6408 109.074C91.5016 109.228 92.0725 110.046 91.9186 110.903Z" fill="#D39E00"/>
<path fill-rule="evenodd" clip-rule="evenodd" d="M91.7693 124.981L93.9557 125.374L88.7928 154.041L86.9897 151.519L91.7693 124.981ZM96.1431 125.767L98.3311 126.161L97.6476 129.959L98.9129 133.467L96.5025 136.317L97.7684 139.825L95.3574 142.675L96.6232 146.182L94.2128 149.031L93.9382 150.559L91.3652 152.301L96.1431 125.767ZM109.053 108.968C109.053 108.964 109.051 108.959 109.051 108.956C108.925 108.006 108.691 107.082 108.36 106.199H108.357C106.848 102.189 103.314 99.0496 98.7744 98.2384C97.5754 98.023 96.3868 97.9855 95.2324 98.1057C95.0491 99.576 95.2492 101.108 95.8903 102.55C96.5292 102.2 97.2883 102.057 98.0621 102.195C99.8613 102.518 101.056 104.232 100.732 106.02C100.421 107.778 98.7151 109.015 96.8941 108.683C95.1878 108.38 94.0253 106.819 94.1857 105.131C92.91 103.106 92.3619 100.899 92.4435 98.7228C88.267 100.158 84.973 103.745 84.1372 108.385C83.2683 113.216 85.2987 117.896 88.9842 120.655L100.132 122.65C104.553 121.34 108.087 117.654 108.958 112.824C109.195 111.515 109.216 110.219 109.053 108.968ZM90.8132 110.5C90.6587 111.357 89.8361 111.926 88.9775 111.773C88.1167 111.618 87.5458 110.799 87.7013 109.944C87.8552 109.086 88.6746 108.517 89.5354 108.671C90.3961 108.825 90.967 109.642 90.8132 110.5Z" fill="#F6C854"/>
<path fill-rule="evenodd" clip-rule="evenodd" d="M95.8678 102.498C95.2446 101.072 95.0484 99.5583 95.231 98.1049C95.5693 95.3649 97.2418 92.8403 99.9084 91.5326L98.7029 89.0928C94.8689 90.972 92.5922 94.7456 92.4416 98.7215C92.3606 100.862 92.8908 103.031 94.1234 105.03C94.1234 105.031 94.1223 105.031 94.1223 105.032C95.1582 106.648 96.4964 107.906 97.8443 108.714C97.8481 108.714 97.8546 108.712 97.859 108.712C98.9481 108.588 99.91 107.924 100.413 106.955C98.3424 106.102 96.6975 104.376 95.8678 102.498Z" fill="#DEEDF2"/>
<path fill-rule="evenodd" clip-rule="evenodd" d="M31.0213 -3.67285L54.9108 37.6351L95.4336 39.1263L104.266 35.5794L115.646 33.3059C116.908 33.0534 118.174 33.7263 118.669 34.9131C118.81 35.2536 118.877 35.6045 118.877 35.9484C118.877 37.1395 118.079 38.2486 116.84 38.5618L108.537 40.6631L104.473 42.8517L113.666 44.3547L133.236 48.5279C134.928 48.8884 136.065 50.4794 135.856 52.1944C135.636 54.0094 133.994 55.3096 132.173 55.1105L119.058 53.6772L135.563 62.3935C137.494 63.4119 138.008 65.9382 136.632 67.6292C135.959 68.4552 134.964 68.9071 133.942 68.9071C133.509 68.9071 133.07 68.8255 132.65 68.6564L111.138 60.007L103.425 56.906L105.556 61.6458C106.608 63.3945 106.977 65.4695 106.594 67.4732L103.471 83.8025C103.066 85.9188 100.923 87.2259 98.8533 86.6202C98.8533 86.6207 98.8533 86.6207 98.8533 86.6207C98.9136 87.7158 98.4558 88.8093 97.5592 89.5347C96.9132 90.0556 96.1329 90.3133 95.3542 90.3133C94.4772 90.3133 93.6034 89.9871 92.9275 89.3411L87.2736 83.9314C86.6597 83.7666 83.9562 82.6786 80.4882 81.2431C77.0191 79.8087 72.7844 78.0268 69.107 76.47C63.4401 74.0716 58.3315 70.5296 54.1023 66.0654L49.3815 61.082L18.9375 33.3128L23.0647 17.5398L25.4968 8.2429L25.4965 8.2424L31.0213 -3.67285ZM96.3498 81.1746L97.3486 66.5484L93.0775 59.8793L85.85 56.818L85.7956 56.8093V56.8098L80.1559 66.5484L89.2604 73.3305C92.1194 75.4598 94.5255 78.1264 96.3487 81.173C96.3492 81.1735 96.3492 81.1741 96.3498 81.1746Z" fill="#F4A48D"/>
<path fill-rule="evenodd" clip-rule="evenodd" d="M95.8756 102.467C95.2524 101.04 95.0567 99.527 95.2389 98.0736C95.5771 95.3342 97.2496 92.809 99.9162 91.5013L98.7112 89.0615C94.8767 90.9407 92.6 94.7143 92.4494 98.6908C92.3684 100.83 92.8991 103 94.1312 104.999C94.1312 105 94.1307 105 94.1307 105.001C95.1665 106.616 96.5042 107.875 97.8521 108.683C97.8565 108.683 97.863 108.681 97.8673 108.681C98.9559 108.557 99.9183 107.894 100.421 106.924C98.3502 106.072 96.7053 104.345 95.8756 102.467Z" fill="#DEEDF2"/>
</g>
</svg>
