<svg width="160" height="160" viewBox="0 0 160 160" fill="none" xmlns="http://www.w3.org/2000/svg">
<path fill-rule="evenodd" clip-rule="evenodd" d="M73.9394 127.732C73.5177 127.679 73.0974 127.621 72.6774 127.558L72.5938 127.545L72.6594 127.111C73.0474 127.17 73.437 127.225 73.827 127.275L73.9942 127.296C73.9754 127.441 73.9574 127.587 73.9394 127.732ZM76.6372 128.004C76.2136 127.972 75.79 127.935 75.3672 127.893L75.2852 127.885L75.3288 127.448C75.7624 127.491 76.1972 127.53 76.6324 127.563L76.67 127.566C76.6588 127.712 76.648 127.858 76.6372 128.004ZM70.0628 126.653C70.4636 126.734 70.8652 126.81 71.2676 126.882L71.3276 126.892L71.2508 127.325C70.8248 127.249 70.4 127.168 69.976 127.083L69.918 127.072L70.0052 126.641C70.0244 126.645 70.0436 126.649 70.0628 126.653ZM79.3486 128.14C78.9234 128.129 78.4978 128.113 78.073 128.093L77.9922 128.089L78.0138 127.65C78.4446 127.672 78.8758 127.688 79.3074 127.7L79.3598 127.701C79.3558 127.847 79.3526 127.994 79.3486 128.14ZM67.4491 126.058C67.8411 126.157 68.2351 126.253 68.6291 126.344L68.6867 126.357L68.5883 126.785C68.1711 126.689 67.7551 126.588 67.3407 126.483L67.2695 126.465L67.3783 126.04C67.4019 126.046 67.4255 126.052 67.4491 126.058ZM82.0646 128.139C81.6294 128.15 81.1942 128.156 80.759 128.156H80.707V127.718C81.1526 127.717 81.597 127.711 82.0422 127.7C82.0422 127.7 82.0598 127.964 82.0646 128.139ZM64.821 125.316C65.2298 125.442 65.6398 125.564 66.0514 125.681L66.081 125.689L65.9618 126.112C65.5618 125.999 65.1646 125.881 64.7682 125.759L64.6602 125.725L64.7906 125.306C64.8006 125.309 64.811 125.313 64.821 125.316ZM84.7752 128C84.3244 128.035 83.8732 128.063 83.4216 128.087L83.3984 127.648C83.822 127.627 84.246 127.6 84.67 127.568L84.742 127.562C84.7532 127.709 84.7644 127.854 84.7752 128ZM62.2528 124.447C62.6512 124.593 63.0512 124.734 63.4528 124.871L63.5096 124.89L63.3688 125.306C62.944 125.162 62.522 125.013 62.1016 124.858L62.2404 124.442C62.2444 124.443 62.2488 124.445 62.2528 124.447ZM59.7501 123.455C60.1377 123.62 60.5273 123.78 60.9185 123.937L60.9813 123.962L60.8193 124.37C60.4041 124.204 59.9897 124.034 59.5781 123.859L59.7365 123.449C59.7409 123.451 59.7457 123.453 59.7501 123.455ZM87.4752 127.723C87.0292 127.78 86.5824 127.832 86.1352 127.878L86.082 127.442C86.5048 127.399 86.9256 127.35 87.3464 127.297L87.4196 127.288C87.438 127.433 87.4564 127.578 87.4752 127.723ZM90.1599 127.309C89.7399 127.385 89.3195 127.455 88.8975 127.521L88.8211 127.533L88.7539 127.1C89.1923 127.032 89.6315 126.958 90.0691 126.88C90.0691 126.88 90.1287 127.138 90.1599 127.309ZM57.3205 122.344C57.6969 122.528 58.0757 122.707 58.4561 122.882L58.5077 122.905L58.3249 123.304C57.9481 123.132 57.5725 122.954 57.1993 122.774L57.0977 122.724L57.2905 122.33C57.3005 122.335 57.3105 122.34 57.3205 122.344ZM92.8167 126.759C92.4183 126.852 92.0187 126.94 91.6183 127.025L91.4915 127.051L91.4023 126.621C91.8003 126.539 92.1987 126.451 92.5955 126.359L92.7171 126.331C92.7503 126.473 92.7835 126.616 92.8167 126.759ZM54.9583 121.119C55.3231 121.32 55.6903 121.517 56.0595 121.71L56.0859 121.723L55.8835 122.113C55.8043 122.072 55.7259 122.031 55.6471 121.989C55.3687 121.842 55.0915 121.693 54.8151 121.541L54.6875 121.471L54.8995 121.087C54.9191 121.098 54.9387 121.109 54.9583 121.119ZM52.6093 119.743C52.9617 119.961 53.3165 120.176 53.6737 120.387L53.7317 120.421L53.5093 120.799C53.1293 120.575 52.7525 120.348 52.3781 120.115L52.3477 120.097L52.5797 119.724C52.5897 119.73 52.5993 119.737 52.6093 119.743ZM95.4434 126.073C95.0118 126.198 94.5782 126.316 94.1434 126.43L94.0234 126.008C94.127 125.981 94.2302 125.953 94.3338 125.926C94.6586 125.838 94.9834 125.748 95.3074 125.655C95.3074 125.655 95.3954 125.906 95.4434 126.073ZM98.0302 125.255C97.6382 125.389 97.245 125.52 96.8498 125.646L96.7414 125.68L96.6094 125.262C96.989 125.142 97.3682 125.017 97.7462 124.888L97.8878 124.84C97.9354 124.978 97.983 125.116 98.0302 125.255ZM50.3402 118.253C50.7006 118.503 51.0642 118.749 51.4306 118.99L51.2022 119.365C51.111 119.305 51.0198 119.245 50.929 119.184C50.6474 118.996 50.3678 118.806 50.0898 118.613L50.3282 118.245C50.3322 118.247 50.3362 118.25 50.3402 118.253ZM100.575 124.306C100.195 124.458 99.8139 124.606 99.4306 124.751L99.3094 124.796L99.1562 124.385C99.2443 124.352 99.3326 124.319 99.4211 124.285C99.7099 124.176 99.9971 124.064 100.284 123.949L100.412 123.898C100.466 124.034 100.521 124.17 100.575 124.306ZM48.1629 116.655C48.5093 116.922 48.8589 117.185 49.2113 117.445L49.2361 117.463L48.9765 117.817C48.8845 117.749 48.7925 117.681 48.7009 117.613C48.4305 117.412 48.1617 117.208 47.8945 117.002C47.8945 117.002 48.1385 116.636 48.1629 116.655ZM103.065 123.229C102.696 123.399 102.324 123.566 101.952 123.728L101.826 123.783L101.652 123.38C102.024 123.219 102.393 123.054 102.76 122.886L102.881 122.83C102.943 122.963 103.004 123.096 103.065 123.229ZM46.1288 115.002C46.4408 115.268 46.7564 115.532 47.0744 115.792L47.104 115.816L46.8268 116.156C46.5164 115.903 46.208 115.646 45.9024 115.386L45.7852 115.286L46.0708 114.952C46.09 114.969 46.1092 114.985 46.1288 115.002ZM105.502 122.027C105.141 122.216 104.779 122.401 104.415 122.583L104.292 122.643L104.098 122.25C104.184 122.207 104.271 122.164 104.358 122.121C104.632 121.983 104.906 121.843 105.178 121.701L105.298 121.639C105.366 121.768 105.433 121.898 105.502 122.027ZM44.0715 113.15C44.3879 113.449 44.7071 113.745 45.0303 114.037L45.0591 114.063L44.7651 114.389C44.4287 114.086 44.0975 113.778 43.7695 113.468C43.7695 113.468 44.0611 113.139 44.0715 113.15ZM107.871 120.705C107.52 120.912 107.166 121.116 106.81 121.316L106.694 121.381L106.48 120.997C106.563 120.951 106.646 120.905 106.729 120.858C106.996 120.707 107.262 120.553 107.527 120.398L107.648 120.327C107.722 120.453 107.796 120.579 107.871 120.705ZM42.1732 111.251C42.4734 111.566 42.777 111.877 43.0842 112.185L43.109 112.21L42.799 112.52C42.4802 112.202 42.1661 111.88 41.8555 111.554C41.8555 111.554 42.1405 111.217 42.1732 111.251ZM110.171 119.264C109.828 119.491 109.483 119.714 109.136 119.932L109.029 119.999L108.797 119.627C108.875 119.578 108.953 119.529 109.031 119.479C109.29 119.315 109.548 119.148 109.804 118.98L109.929 118.898C110.01 119.02 110.09 119.142 110.171 119.264ZM40.3677 109.263C40.6514 109.592 40.9388 109.918 41.23 110.24L41.2483 110.26L40.923 110.555C40.8477 110.472 40.7726 110.388 40.6978 110.305C40.4748 110.055 40.2539 109.803 40.0352 109.549L40.3575 109.251C40.3609 109.255 40.3643 109.259 40.3677 109.263ZM112.397 117.709C112.043 117.971 111.686 118.227 111.325 118.479L111.295 118.501L111.043 118.141C111.409 117.885 111.772 117.625 112.132 117.36C112.132 117.36 112.293 117.568 112.397 117.709ZM38.6714 107.187C38.9381 107.53 39.2086 107.87 39.4832 108.206L39.1545 108.497C38.873 108.153 38.5972 107.806 38.3248 107.456L38.3086 107.436L38.6553 107.166C38.6606 107.174 38.666 107.18 38.6714 107.187ZM114.541 116.045C114.198 116.326 113.851 116.602 113.501 116.874L113.48 116.891L113.211 116.544C113.56 116.273 113.907 115.996 114.25 115.716L114.264 115.705C114.356 115.818 114.449 115.931 114.541 116.045ZM37.0802 105.029C37.3294 105.385 37.5826 105.738 37.8399 106.088L37.4906 106.353C37.2291 105.999 36.9731 105.641 36.7206 105.281L36.6992 105.25L37.0589 104.999C37.066 105.009 37.0731 105.019 37.0802 105.029ZM35.5961 102.794C35.8137 103.14 36.0349 103.484 36.2598 103.825L36.3001 103.886L35.9339 104.128C35.7078 103.786 35.4847 103.44 35.2655 103.092L35.1992 102.987L35.5711 102.754C35.5795 102.767 35.5878 102.78 35.5961 102.794ZM116.597 114.274C116.265 114.574 115.93 114.87 115.591 115.162L115.293 114.84C115.626 114.554 115.956 114.262 116.282 113.967L116.302 113.949C116.401 114.058 116.499 114.166 116.597 114.274ZM34.2262 100.485C34.4262 100.841 34.6301 101.196 34.8378 101.549L34.8704 101.604L34.4926 101.827C34.2849 101.476 34.0811 101.122 33.881 100.766L33.8164 100.651L34.1995 100.437C34.2084 100.453 34.2173 100.469 34.2262 100.485ZM118.562 112.402C118.245 112.721 117.922 113.035 117.597 113.346L117.289 113.033C117.607 112.731 117.919 112.425 118.228 112.117L118.252 112.092C118.355 112.195 118.459 112.299 118.562 112.402ZM120.431 110.434C120.129 110.769 119.822 111.101 119.511 111.429L119.191 111.128C119.492 110.812 119.787 110.492 120.08 110.168L120.106 110.14C120.215 110.238 120.323 110.336 120.431 110.434ZM32.9741 98.106C33.1562 98.4732 33.3423 98.8384 33.5322 99.2016L33.5592 99.2532L33.1707 99.4572C32.9813 99.0964 32.7965 98.7344 32.6153 98.37L32.5547 98.2476L32.9481 98.0532C32.9568 98.0708 32.9655 98.0884 32.9741 98.106ZM122.2 108.373C121.93 108.704 121.657 109.031 121.38 109.356L121.329 109.415L120.996 109.129C121.28 108.798 121.56 108.463 121.836 108.125L121.859 108.096C121.972 108.189 122.086 108.281 122.2 108.373ZM31.8437 95.6626C32.0073 96.0394 32.1749 96.4142 32.3467 96.7874L32.3704 96.8386L31.9721 97.0226C31.8012 96.653 31.6347 96.2814 31.472 95.9086L31.418 95.7838L31.8208 95.6094C31.8284 95.6274 31.8361 95.645 31.8437 95.6626ZM123.859 106.225C123.592 106.589 123.32 106.949 123.045 107.307L122.695 107.041C122.759 106.959 122.822 106.876 122.885 106.793C123.088 106.527 123.289 106.26 123.487 105.99L123.505 105.966C123.623 106.052 123.741 106.139 123.859 106.225ZM30.8311 93.1594C30.9757 93.545 31.1245 93.9286 31.2774 94.311L31.3001 94.3674L30.8929 94.531C30.7404 94.1514 30.5919 93.7694 30.4475 93.3862L30.4023 93.2654L30.8134 93.1118C30.8193 93.1278 30.8253 93.1434 30.8311 93.1594ZM29.9484 90.6004C30.0735 90.994 30.2029 91.386 30.3366 91.7772L30.3601 91.8456L29.9451 91.988C29.8018 91.5712 29.6636 91.1528 29.5301 90.7328L29.5194 90.6992L29.9379 90.5672C29.9414 90.578 29.9449 90.5892 29.9484 90.6004ZM125.409 103.996C125.163 104.37 124.913 104.74 124.658 105.108L124.289 104.87C124.542 104.506 124.79 104.138 125.035 103.767C125.035 103.767 125.264 103.901 125.409 103.996ZM126.841 101.691C126.617 102.071 126.389 102.448 126.157 102.822L126.138 102.853L125.766 102.621C125.977 102.282 126.185 101.939 126.388 101.594L126.462 101.469C126.588 101.543 126.714 101.617 126.841 101.691ZM29.1942 87.9892C29.3058 88.4152 29.4224 88.84 29.5441 89.2636L29.1268 89.4C29.0963 89.2948 29.0664 89.1892 29.0366 89.0836C28.9447 88.7568 28.8557 88.4288 28.7696 88.1L29.1918 87.9804C29.1926 87.9832 29.1934 87.986 29.1942 87.9892ZM128.155 99.3162C127.969 99.6742 127.778 100.03 127.583 100.384L127.513 100.512L127.129 100.3C127.178 100.212 127.226 100.124 127.274 100.036C127.436 99.7378 127.595 99.4394 127.752 99.1398L127.765 99.1138C127.895 99.181 128.025 99.2486 128.155 99.3162ZM28.5882 85.4077C28.6734 85.8153 28.7632 86.2221 28.8574 86.6277L28.8681 86.6737L28.4408 86.7733C28.3477 86.3753 28.2592 85.9753 28.1748 85.5741L28.1484 85.4481L28.5781 85.3589C28.5815 85.3753 28.5849 85.3913 28.5882 85.4077ZM129.345 96.8771C129.173 97.2543 128.996 97.6291 128.815 98.0023L128.765 98.1043L128.371 97.9115C128.548 97.5491 128.721 97.1835 128.89 96.8171L128.947 96.6943C129.079 96.7551 129.212 96.8163 129.345 96.8771ZM28.1134 82.785C28.1782 83.199 28.2476 83.6118 28.3217 84.0238L27.8922 84.115C27.8163 83.6958 27.7459 83.2746 27.6798 82.8526L27.668 82.7766L28.1016 82.709C28.1055 82.7346 28.1095 82.7598 28.1134 82.785ZM27.7568 80.0477C27.8002 80.4669 27.8483 80.8857 27.901 81.3037L27.9103 81.3769L27.475 81.4325C27.4181 80.9869 27.3666 80.5401 27.3203 80.0925C27.3203 80.0925 27.7514 79.9941 27.7568 80.0477ZM130.412 94.3802C130.247 94.7958 130.077 95.2094 129.902 95.621L129.492 95.463C129.659 95.0714 129.821 94.6766 129.98 94.2806L130.004 94.2178C130.14 94.2718 130.276 94.3262 130.412 94.3802ZM27.5516 77.3556C27.5736 77.78 27.6005 78.2032 27.632 78.626L27.6375 78.6984L27.2 78.732C27.1656 78.2812 27.1368 77.8296 27.1133 77.378C27.1133 77.378 27.5431 77.1884 27.5516 77.3556ZM131.348 91.8326C131.204 92.2566 131.055 92.679 130.901 93.0994L130.484 92.9606C130.632 92.559 130.775 92.1542 130.913 91.7478L130.932 91.6914C131.071 91.7386 131.21 91.7854 131.348 91.8326ZM132.153 89.2397C132.04 89.6385 131.922 90.0365 131.8 90.4329L131.766 90.5409L131.348 90.4105C131.374 90.3237 131.401 90.2369 131.428 90.1505C131.521 89.8433 131.612 89.5357 131.7 89.2269L131.73 89.1201C131.871 89.1601 132.012 89.1997 132.153 89.2397ZM27.4818 74.7152C27.4827 75.1432 27.4885 75.5708 27.499 75.9984L27.0606 76.0212C27.0577 75.9096 27.0554 75.7984 27.0531 75.6868C27.047 75.3632 27.0436 75.0396 27.043 74.716V74.664L27.4818 74.6636C27.4818 74.6808 27.4818 74.698 27.4818 74.7152ZM132.827 86.6101C132.732 87.0269 132.631 87.4429 132.525 87.8573L132.507 87.9289L132.082 87.8205C132.188 87.4041 132.29 86.9869 132.386 86.5693L132.4 86.5117C132.542 86.5449 132.684 86.5777 132.827 86.6101ZM27.5439 72.0518C27.5245 72.4562 27.5094 72.8606 27.4986 73.265L27.4972 73.3178L27.0586 73.3062C27.0692 72.8818 27.0852 72.4558 27.1056 72.0302L27.1096 71.9502L27.5479 71.9718C27.5466 71.9982 27.5452 72.0254 27.5439 72.0518ZM133.367 83.9503C133.292 84.3759 133.211 84.8007 133.125 85.2251L133.114 85.2835L132.684 85.1967C132.769 84.7771 132.849 84.3555 132.924 83.9335L132.935 83.8735C133.079 83.8991 133.223 83.9251 133.367 83.9503ZM27.7429 69.3693C27.7029 69.7761 27.6671 70.1833 27.6358 70.5909L27.6328 70.6289L27.1953 70.5957C27.2272 70.1729 27.2646 69.7489 27.3062 69.3261L27.3144 69.2441L27.7511 69.2877C27.7483 69.3149 27.7456 69.3421 27.7429 69.3693ZM28.0891 66.6164C28.0305 67.004 27.9758 67.3932 27.9254 67.7828L27.9042 67.95L27.4688 67.8952C27.5219 67.474 27.5798 67.0536 27.6425 66.6344L27.6551 66.5508C27.7998 66.5724 27.9444 66.5944 28.0891 66.6164ZM133.762 81.3454C133.708 81.7662 133.649 82.1862 133.586 82.6062L133.152 82.5406C133.211 82.1518 133.266 81.7634 133.316 81.3738L133.337 81.207L133.772 81.2618C133.769 81.2894 133.765 81.3178 133.762 81.3454ZM134.045 78.599C134.013 79.0098 133.977 79.4202 133.937 79.8302L133.929 79.9122L133.492 79.8686C133.535 79.4354 133.574 79.001 133.608 78.5654L133.611 78.5278L134.048 78.5606C134.047 78.5734 134.046 78.5862 134.045 78.599ZM28.5584 63.9602C28.4734 64.3798 28.3934 64.8006 28.3178 65.223L28.307 65.2834L27.875 65.2066C27.9507 64.7798 28.0313 64.355 28.1165 63.9314L28.1283 63.873C28.2716 63.9022 28.415 63.9314 28.5584 63.9602ZM134.179 75.9025C134.169 76.3105 134.154 76.7181 134.134 77.1257L134.13 77.2061L133.691 77.1841C133.713 76.7541 133.729 76.3229 133.741 75.8913L133.743 75.8389L134.181 75.8497C134.181 75.8677 134.18 75.8853 134.179 75.9025ZM29.1593 61.3364C29.0533 61.7512 28.9519 62.1684 28.8551 62.5872L28.8419 62.6448L28.4141 62.5468C28.51 62.1288 28.6107 61.7136 28.7159 61.2992L28.734 61.228C28.8758 61.264 29.0175 61.3004 29.1593 61.3364ZM134.181 73.1469C134.192 73.5781 134.197 74.0089 134.199 74.4401V74.4929H133.759C133.759 74.0473 133.753 73.6025 133.742 73.1577L134.181 73.1353C134.181 73.1389 134.181 73.1429 134.181 73.1469ZM29.8952 58.7461C29.8684 58.8325 29.8417 58.9193 29.8152 59.0057C29.7218 59.3129 29.6309 59.6209 29.5426 59.9293L29.5121 60.0365L29.0898 59.9169C29.2028 59.5177 29.3209 59.1197 29.4429 58.7233L29.4762 58.6157C29.6158 58.6593 29.7556 58.7025 29.8952 58.7461ZM134.049 70.4972C134.08 70.924 134.108 71.3512 134.13 71.7784L133.691 71.8012C133.67 71.378 133.643 70.954 133.611 70.5304L133.605 70.4576L134.043 70.4244C134.045 70.4488 134.047 70.4728 134.049 70.4972ZM30.7584 56.1963C30.7203 56.2999 30.6827 56.4035 30.6452 56.5071C30.5375 56.8071 30.4322 57.1075 30.3295 57.4087L30.3101 57.4655L29.8945 57.3247C30.0387 56.8999 30.1878 56.4779 30.342 56.0571C30.342 56.0571 30.5951 56.1363 30.7584 56.1963ZM133.777 67.7974C133.83 68.219 133.878 68.6414 133.922 69.0642L133.486 69.117C133.443 68.6946 133.394 68.2738 133.341 67.853L133.332 67.7798L133.768 67.7246C133.77 67.7486 133.774 67.7734 133.777 67.7974ZM31.7523 53.694C31.709 53.7952 31.6662 53.8968 31.6237 53.998C31.5016 54.29 31.382 54.5828 31.2649 54.876L31.2398 54.9392L30.832 54.7768C30.9972 54.3612 31.1676 53.9472 31.3429 53.5352C31.3429 53.5352 31.5927 53.626 31.7523 53.694ZM133.354 65.0542C133.429 65.4698 133.499 65.8862 133.564 66.3034L133.576 66.3794L133.142 66.447C133.074 66.0086 133.001 65.5694 132.922 65.1318L133.351 65.041C133.352 65.045 133.353 65.0498 133.354 65.0542ZM32.8689 51.2454C32.8296 51.3261 32.7905 51.4068 32.7517 51.487C32.6155 51.7701 32.4815 52.0545 32.35 52.3397L32.2936 52.4625L31.8945 52.28C32.0672 51.903 32.2443 51.5276 32.4253 51.1542L32.4746 51.0531C32.606 51.1174 32.7375 51.1812 32.8689 51.2454ZM132.813 62.4288C132.909 62.838 132.999 63.248 133.085 63.6596L133.095 63.7084L132.665 63.798C132.583 63.3992 132.495 63.0016 132.404 62.6048L132.375 62.4832L132.803 62.3828C132.806 62.3984 132.81 62.4136 132.813 62.4288ZM34.1119 48.8577C33.8999 49.2411 33.6922 49.6281 33.489 50.0173L33.4753 50.0436L33.0859 49.8411C33.127 49.7621 33.1682 49.6837 33.2097 49.6048C33.3567 49.3262 33.5059 49.0489 33.6574 48.7729L33.7279 48.6455C33.8559 48.7162 33.9839 48.7869 34.1119 48.8577ZM132.121 59.7715C132.244 60.1983 132.361 60.6267 132.474 61.0563L132.052 61.1759C132.025 61.0727 131.997 60.9695 131.97 60.8663C131.882 60.5411 131.792 60.2163 131.699 59.8931L132.117 59.7563C132.118 59.7615 132.12 59.7663 132.121 59.7715ZM35.4771 46.5356C35.2524 46.897 35.0317 47.2624 34.8149 47.6298L34.7807 47.688L34.4023 47.4657C34.6122 47.1087 34.8265 46.7533 35.0445 46.4004L35.1045 46.3037C35.2286 46.3813 35.3529 46.4584 35.4771 46.5356ZM131.321 57.2373C131.456 57.6317 131.586 58.0269 131.713 58.4241L131.723 58.4577L131.304 58.5897C131.184 58.2089 131.06 57.8301 130.931 57.4529L130.883 57.3117L131.298 57.1685C131.305 57.1913 131.314 57.2145 131.321 57.2373ZM36.9528 44.2866C36.8911 44.3755 36.8298 44.4646 36.7688 44.5531C36.5793 44.8298 36.392 45.1088 36.2071 45.3891L35.832 45.1609C36.0782 44.7861 36.3291 44.4159 36.5841 44.0483C36.5841 44.0483 36.8103 44.1876 36.9528 44.2866ZM130.371 54.6816C130.525 55.0676 130.675 55.454 130.821 55.8432L130.839 55.8908L130.428 56.044C130.287 55.6676 130.142 55.2912 129.992 54.9168L129.941 54.7892L130.349 54.6252C130.356 54.644 130.364 54.6628 130.371 54.6816ZM38.5464 42.1158C38.4829 42.1976 38.4197 42.2804 38.3566 42.3627C38.1541 42.6282 37.9534 42.8964 37.7551 43.1659L37.7368 43.1911L37.3828 42.9317C37.4503 42.8395 37.5183 42.7475 37.5863 42.6559C37.7877 42.3853 37.9914 42.1166 38.1974 41.8496C38.1974 41.8496 38.4077 42.0084 38.5464 42.1158ZM129.293 52.1851C129.467 52.5618 129.635 52.9394 129.8 53.319L129.823 53.373L129.421 53.5466C129.26 53.1754 129.095 52.8062 128.927 52.4386L128.871 52.3178L129.269 52.1338C129.277 52.1507 129.285 52.1682 129.293 52.1851ZM40.2466 40.0279C39.9628 40.3593 39.6832 40.6938 39.4074 41.0313L39.3832 41.0611L39.043 40.7837C39.1002 40.7135 39.1575 40.6437 39.215 40.5734C39.4125 40.334 39.6119 40.0958 39.8131 39.8594L39.9132 39.7426C40.0243 39.8377 40.1354 39.9328 40.2466 40.0279ZM128.096 49.751C128.287 50.1171 128.475 50.4852 128.658 50.8556L128.684 50.9088L128.291 51.1028C128.248 51.0166 128.205 50.93 128.162 50.8438C128.025 50.5688 127.885 50.2955 127.742 50.0228L127.68 49.9033L128.068 49.6992C128.078 49.7163 128.086 49.7339 128.096 49.751ZM42.0487 38.0291C41.7479 38.3458 41.4526 38.6653 41.1607 38.9881L41.1344 39.0171L40.8086 38.7235C41.1112 38.3877 41.4188 38.0561 41.73 37.7275C41.73 37.7275 41.9214 37.9085 42.0487 38.0291ZM126.781 47.3842C126.991 47.7395 127.197 48.0976 127.398 48.4572L127.425 48.5055L127.042 48.7192C126.846 48.3677 126.646 48.0198 126.443 47.6733L126.371 47.552L126.749 47.3286C126.759 47.3469 126.771 47.3658 126.781 47.3842ZM43.9533 36.1244C43.8777 36.1961 43.8021 36.2688 43.7269 36.341C43.4877 36.5718 43.2505 36.8046 43.0149 37.0398L42.9901 37.0646L42.6797 36.7547C42.9981 36.4356 43.3201 36.1218 43.6457 35.811C43.6457 35.811 43.8325 35.9973 43.9533 36.1244ZM125.347 45.0895C125.575 45.4338 125.798 45.7806 126.017 46.1293L126.042 46.1694L125.67 46.4024C125.458 46.0637 125.243 45.7284 125.023 45.3951L124.941 45.2703L125.307 45.0285C125.321 45.0487 125.335 45.0694 125.347 45.0895ZM45.948 34.3167C45.8668 34.3866 45.7856 34.457 45.7048 34.5275C45.4548 34.7458 45.206 34.9662 44.9592 35.1894L44.9392 35.2074L44.6444 34.8824C44.7276 34.8068 44.8112 34.7318 44.8948 34.6568C45.1448 34.434 45.3964 34.213 45.65 33.9942C45.65 33.9942 45.8352 34.1852 45.948 34.3167ZM123.756 42.8088C124.015 43.1616 124.27 43.5168 124.522 43.8753L124.543 43.906L124.184 44.1577C123.928 43.791 123.667 43.4287 123.402 43.0692C123.402 43.0692 123.728 42.7708 123.756 42.8088ZM48.0335 32.6128C47.6835 32.8846 47.3375 33.1604 46.9943 33.4405L46.7031 33.112C47.0459 32.8313 47.3935 32.5548 47.7439 32.2821L47.7647 32.2661C47.8543 32.3815 47.9439 32.4969 48.0335 32.6128ZM122.098 40.6727C122.374 41.012 122.647 41.3543 122.916 41.6999L122.933 41.721L122.586 41.9897C122.314 41.6392 122.038 41.2935 121.758 40.9503L122.086 40.6592C122.09 40.6637 122.094 40.6682 122.098 40.6727ZM50.2021 31.0154C50.0245 31.1397 49.8477 31.2652 49.6717 31.3908C49.4849 31.5253 49.2989 31.6604 49.1137 31.7966L48.8477 31.4474C49.2025 31.1857 49.5601 30.9298 49.9201 30.6773L49.9509 30.6558C50.0345 30.7758 50.1185 30.8958 50.2021 31.0154ZM120.336 38.6219C120.63 38.9472 120.919 39.2755 121.205 39.6072L120.883 39.9056C120.596 39.5718 120.305 39.2428 120.011 38.9164L119.992 38.8965L120.318 38.6016C120.324 38.6083 120.33 38.6151 120.336 38.6219ZM52.4443 29.5301C52.1055 29.742 51.7703 29.9579 51.4371 30.1766L51.3123 30.2588L51.0703 29.893C51.4131 29.6663 51.7583 29.4434 52.1059 29.2243L52.2111 29.1582C52.2887 29.2823 52.3667 29.406 52.4443 29.5301ZM118.472 36.661C118.782 36.9713 119.088 37.285 119.39 37.6021L119.078 37.9097C118.776 37.5927 118.47 37.2806 118.162 36.9714L118.137 36.9467L118.447 36.6362C118.456 36.6444 118.464 36.6525 118.472 36.661ZM54.7619 28.1592C54.6791 28.2051 54.5963 28.2515 54.5135 28.2985C54.2463 28.4495 53.9803 28.6028 53.7159 28.7582L53.5943 28.8299L53.3711 28.452C53.7227 28.2443 54.0767 28.0404 54.4323 27.8403L54.5479 27.7756C54.6191 27.9033 54.6903 28.0315 54.7619 28.1592ZM116.507 34.7939C116.833 35.0886 117.155 35.3867 117.473 35.6887L117.172 36.0077C116.856 35.7076 116.536 35.4117 116.213 35.1194L116.184 35.0931L116.478 34.7676C116.488 34.7763 116.497 34.7851 116.507 34.7939ZM57.1458 26.9065C57.0594 26.9494 56.973 26.9924 56.887 27.0354C56.6118 27.1735 56.3382 27.3133 56.0658 27.4552L55.9462 27.5178L55.7422 27.1291C56.1026 26.94 56.465 26.7551 56.829 26.5739L56.9514 26.5132C57.0162 26.6444 57.081 26.7757 57.1458 26.9065ZM114.444 33.0249C114.764 33.2872 115.082 33.5525 115.397 33.8214L115.456 33.8711L115.17 34.2043C114.839 33.9212 114.504 33.6412 114.166 33.3651L114.137 33.3413L114.414 33.001C114.424 33.0089 114.434 33.0171 114.444 33.0249ZM59.589 25.7763C59.5006 25.8145 59.4122 25.8532 59.3242 25.8915C59.0418 26.0158 58.761 26.1416 58.4814 26.2702L58.3598 26.3261L58.1758 25.9274C58.5454 25.7568 58.917 25.59 59.2902 25.4274L59.415 25.3734C59.473 25.5077 59.531 25.642 59.589 25.7763ZM112.292 31.3586C112.647 31.6202 113 31.8854 113.349 32.1551L113.083 32.5039C112.736 32.2355 112.386 31.9721 112.033 31.7127L112.008 31.6945L112.267 31.3403C112.275 31.3464 112.284 31.3525 112.292 31.3586ZM62.0868 24.7718C61.7092 24.9125 61.3336 25.058 60.9596 25.2071L60.8316 25.2582L60.668 24.8513C61.048 24.6986 61.4296 24.55 61.8128 24.4056L61.9332 24.3605C61.9844 24.4978 62.0356 24.6346 62.0868 24.7718ZM110.05 29.7997C110.419 30.043 110.786 30.2908 111.149 30.5432L110.911 30.9116C110.548 30.6587 110.179 30.4107 109.809 30.1662L110.037 29.791C110.041 29.7941 110.045 29.7966 110.05 29.7997ZM64.6317 23.8948C64.5469 23.9217 64.4621 23.9485 64.3773 23.9759C64.0821 24.0711 63.7881 24.1685 63.4953 24.2684L63.3533 24.3171L63.2109 23.9018C63.6277 23.7586 64.0461 23.6206 64.4661 23.4868L64.4997 23.4766C64.5437 23.6158 64.5877 23.7551 64.6317 23.8948ZM107.792 28.3922C108.152 28.6045 108.51 28.8209 108.865 29.0409L108.895 29.06L108.664 29.4327C108.323 29.2207 107.981 29.0134 107.636 28.8097L107.512 28.736L107.734 28.3579C107.753 28.369 107.773 28.3806 107.792 28.3922ZM67.2204 23.1486C67.1172 23.1758 67.014 23.2031 66.9108 23.2304C66.5856 23.318 66.2608 23.4081 65.9372 23.5008L65.8008 23.0834C65.906 23.053 66.0116 23.023 66.1168 22.9936C66.444 22.9014 66.772 22.8126 67.1008 22.7266C67.1008 22.7266 67.1764 22.9796 67.2204 23.1486ZM105.385 27.0571C105.757 27.2517 106.128 27.4501 106.496 27.6525L106.555 27.6855L106.343 28.0694C105.959 27.8573 105.571 27.6497 105.182 27.4462L105.156 27.4327L105.359 27.0435C105.367 27.0481 105.377 27.0529 105.385 27.0571ZM69.8406 22.5355C69.441 22.6183 69.0438 22.7057 68.6478 22.7973L68.5258 22.8255L68.4258 22.3983C68.8246 22.3051 69.2246 22.2165 69.6254 22.1324L69.7514 22.1059C69.781 22.2491 69.811 22.3923 69.8406 22.5355ZM102.972 25.8755C103.356 26.0515 103.737 26.2321 104.117 26.4169L104.148 26.432L103.955 26.8261C103.875 26.7867 103.794 26.7478 103.713 26.7089C103.431 26.5727 103.146 26.4387 102.861 26.3071L102.738 26.251L102.921 25.8516C102.938 25.8599 102.955 25.8677 102.972 25.8755ZM72.488 22.0566C72.0492 22.1249 71.6104 22.1983 71.1736 22.2768L71.082 21.8473C71.5016 21.7713 71.9228 21.701 72.3448 21.6348L72.4208 21.623C72.4432 21.7677 72.4656 21.9119 72.488 22.0566ZM100.487 24.8121C100.882 24.9694 101.274 25.1312 101.665 25.2978L101.507 25.7074C101.114 25.5397 100.72 25.3776 100.324 25.2198L100.262 25.1948L100.424 24.7871C100.445 24.7955 100.466 24.8038 100.487 24.8121ZM75.1584 21.7139C75.0508 21.7247 74.9432 21.7365 74.8352 21.7483C74.5216 21.7825 74.2076 21.8192 73.894 21.8589L73.8212 21.868L73.7656 21.4332C74.2112 21.3761 74.658 21.3247 75.1052 21.2783C75.1052 21.2783 75.1408 21.5401 75.1584 21.7139ZM97.9324 23.8698C98.3372 24.0077 98.7408 24.1502 99.1428 24.2975L99.0036 24.7143C98.6004 24.5659 98.1968 24.4233 97.7912 24.2849L97.7344 24.2656L97.8756 23.8501C97.8944 23.8567 97.9132 23.8633 97.9324 23.8698ZM77.8456 21.5081C77.6332 21.5188 77.4212 21.5315 77.2088 21.5446C76.9104 21.5636 76.502 21.5941 76.502 21.5941L76.4688 21.1564C76.9192 21.1223 77.3708 21.0933 77.8224 21.0698C77.8224 21.0698 77.8368 21.3327 77.8456 21.5081ZM95.3137 23.0535C95.7285 23.1714 96.1421 23.2941 96.5541 23.4215L96.5849 23.4312L96.4545 23.8502C96.0609 23.7279 95.6669 23.6109 95.2713 23.4976L95.1641 23.467L95.2837 23.0449C95.2937 23.0478 95.3037 23.0506 95.3137 23.0535ZM80.533 21.4386C80.4354 21.439 80.3382 21.4393 80.2406 21.4396C79.893 21.442 79.5454 21.4472 79.1982 21.456L79.1758 21.0178C79.287 21.0149 79.3986 21.0125 79.5098 21.0102C79.8334 21.004 80.1574 21.0009 80.481 21.0002L80.533 21C80.533 21.146 80.533 21.2926 80.533 21.4386ZM92.7107 22.3845C93.1083 22.4763 93.5051 22.5723 93.9007 22.6727L93.9723 22.6911L93.8631 23.1165C93.4467 23.0098 93.0303 22.9089 92.6123 22.8119L92.5547 22.799L92.6531 22.3711C92.6723 22.3757 92.6915 22.3799 92.7107 22.3845ZM83.2245 21.5055C82.7933 21.4843 82.3625 21.4677 81.9313 21.4564L81.8789 21.4551L81.8901 21.0166C82.3149 21.027 82.7409 21.043 83.1661 21.0633L83.2465 21.0675C83.2393 21.2135 83.2317 21.3595 83.2245 21.5055ZM90.0548 21.8423C90.4604 21.9149 90.8656 21.9919 91.2696 22.0731L91.328 22.0852L91.2408 22.5151C90.82 22.43 90.3996 22.35 89.978 22.2747L89.918 22.2639L89.9948 21.8315C90.0148 21.8353 90.0348 21.8391 90.0548 21.8423ZM85.9115 21.7089C85.4767 21.6654 85.0423 21.627 84.6079 21.5936L84.5703 21.5908L84.6031 21.1533C85.0263 21.1852 85.4499 21.2222 85.8735 21.264L85.9555 21.2724C85.9407 21.4179 85.9259 21.5634 85.9115 21.7089ZM88.0628 21.5258C88.2588 21.5534 88.4544 21.5816 88.6504 21.6112L88.5856 22.0452C88.4748 22.0284 88.3632 22.0119 88.252 21.996C87.9188 21.9478 87.5844 21.9025 87.25 21.8601L87.306 21.4248C87.558 21.4568 87.8108 21.4903 88.0628 21.5258Z" fill="#9BC3D3"/>
<path fill-rule="evenodd" clip-rule="evenodd" d="M66.1774 25.2103C67.2082 25.3676 68.1662 24.6514 68.309 23.6213C68.4502 22.5999 67.7374 21.6576 66.7162 21.516C65.6862 21.3732 64.7362 22.0999 64.6074 23.1349C64.485 24.1188 65.197 25.0606 66.1774 25.2103ZM71.8047 127.663L73.9711 130.011L76.3183 127.845L74.1519 125.497L71.8047 127.663Z" fill="#F6C854"/>
<path fill-rule="evenodd" clip-rule="evenodd" d="M112.388 33.7332C113.394 33.8728 114.324 33.175 114.462 32.1745C114.601 31.174 113.896 30.2497 112.89 30.1101C111.882 29.9704 110.953 30.6683 110.814 31.6688C110.676 32.6693 111.38 33.5936 112.388 33.7332ZM33.498 94.9575L31.3318 92.6099L28.9844 94.7763L31.1506 97.1235L33.498 94.9575Z" fill="#1BB3BC"/>
<path fill-rule="evenodd" clip-rule="evenodd" d="M30.8125 52.6935L33.8582 53.1159L34.2804 50.0701L31.2347 49.6479L30.8125 52.6935Z" fill="#2A8FEC"/>
<path fill-rule="evenodd" clip-rule="evenodd" d="M124.414 103.51L127.46 103.932L127.882 100.887L124.836 100.464L124.414 103.51Z" fill="#9E3667"/>
<path fill-rule="evenodd" clip-rule="evenodd" d="M131.543 56.5215L133.709 58.8699L131.361 61.0355L129.195 58.6879L131.543 56.5215Z" fill="#444444"/>
<path fill-rule="evenodd" clip-rule="evenodd" d="M29.2664 71.0558C29.1278 72.0562 28.1989 72.7542 27.1916 72.6146C26.1843 72.475 25.4803 71.5506 25.619 70.5502C25.7577 69.5494 26.6866 68.8518 27.6938 68.9914C28.7012 69.131 29.4052 70.0554 29.2664 71.0558Z" fill="#A66555"/>
<path fill-rule="evenodd" clip-rule="evenodd" d="M43.8945 81.4018V43.7395C43.8945 42.2971 45.0293 41.1205 46.4525 41.0596L46.5689 41.0575L47.6389 41.0576C61.5809 41.0576 71.1581 37.8587 79.7321 31.7607L80.0209 31.9652C88.4249 37.8624 97.8233 40.9861 111.356 41.0564L112.895 41.0575L113.011 41.0596C114.395 41.1188 115.505 42.2325 115.566 43.6199L115.569 43.7395V81.4018C115.569 101.783 99.9345 118.626 80.3269 121.277L79.7317 121.353C59.8465 118.966 43.8945 101.989 43.8945 81.4018Z" fill="#CEDEE7"/>
<path d="M100.608 40.2411L58.8941 112.49C49.7957 105.11 43.8945 93.9238 43.8945 81.4018V43.7395C43.8945 42.2971 45.0293 41.1205 46.4525 41.0596L46.5689 41.0575L47.6389 41.0576C61.5809 41.0576 71.1581 37.8587 79.7321 31.7607L80.0209 31.9652C86.0025 36.1624 92.4873 38.9547 100.608 40.2411Z" fill="#DEEDF2"/>
<mask id="mask0_1483_87242" style="mask-type:luminance" maskUnits="userSpaceOnUse" x="43" y="31" width="87" height="108">
<path fill-rule="evenodd" clip-rule="evenodd" d="M43.8945 138.701V43.74C43.8945 42.2975 45.0297 41.121 46.4529 41.0601L46.5689 41.058L47.6389 41.0581C61.5809 41.0581 71.1581 37.8592 79.7321 31.7612L80.0213 31.9657C88.4249 37.8629 111.334 40.9866 124.867 41.0569L126.405 41.058L126.522 41.0601C127.905 41.1193 129.017 42.233 129.077 43.6204L129.08 43.74V138.701H43.8945Z" fill="white"/>
</mask>
<g mask="url(#mask0_1483_87242)">
<path fill-rule="evenodd" clip-rule="evenodd" d="M97.9973 85.7096C96.5945 85.6136 95.1501 85.8764 93.7969 86.5396L94.6837 88.3356C96.1101 87.6356 97.6673 87.5244 99.0853 87.9132C100.757 88.3628 102.234 89.5 103.058 91.1684C103.562 92.1872 103.758 93.2812 103.69 94.3368C104.42 93.978 104.9 93.666 105.711 93.7496C105.684 92.5836 105.412 91.396 104.863 90.2832C103.515 87.5536 100.844 85.898 97.9973 85.7096Z" fill="#9BC3D3"/>
<path fill-rule="evenodd" clip-rule="evenodd" d="M102.535 109.124L99.1771 110.77C98.0171 111.339 96.6087 110.863 96.0375 109.706L92.4543 102.452C92.1347 101.804 92.1387 101.073 92.4147 100.454C93.5059 101.292 94.7987 101.838 96.1415 102.049C96.1935 102.228 96.6299 103.083 96.7203 103.266C97.0027 103.838 97.6923 104.077 98.2631 103.797L105.074 100.456C105.646 100.175 105.885 99.4808 105.603 98.9096L105.087 97.864C104.811 97.3064 104.112 97.0568 103.535 97.3392L97.8079 100.148C96.4463 100.226 95.1007 99.8556 93.9739 99.1012L104.416 93.9792C105.608 93.3948 106.988 93.912 107.549 95.0484L111.132 102.302C111.703 103.459 111.232 104.858 110.07 105.428L106.968 106.949L111.697 116.522C110.696 117.868 111.666 119.839 113.351 119.872L116.567 126.384C116.803 126.862 116.606 127.438 116.127 127.673L113.672 128.877C113.195 129.112 112.615 128.916 112.379 128.439L106.94 117.428L107.643 115.298L105.274 114.671L102.535 109.124Z" fill="#F6C854"/>
<path fill-rule="evenodd" clip-rule="evenodd" d="M103.494 111.079L107.94 108.899L106.981 106.943L102.535 109.123L103.494 111.079Z" fill="#D39E00"/>
<path fill-rule="evenodd" clip-rule="evenodd" d="M104.859 97.5571C104.06 99.1911 102.835 100.396 101.408 101.16C98.8637 102.524 95.6805 102.484 93.1641 100.974C93.1673 100.974 93.1721 100.972 93.1749 100.972C93.9761 100.88 94.6837 100.392 95.0541 99.6795C97.1853 100.563 99.3289 100.154 100.896 99.1227H100.898C101.385 98.8031 101.814 98.4235 102.172 98.0047C103.186 97.5075 104.099 96.8007 104.859 97.5571Z" fill="#9BC3D3"/>
<path fill-rule="evenodd" clip-rule="evenodd" d="M87.1977 109.848C84.6549 107.796 83.2789 104.464 83.8969 101.028C84.5117 97.6145 86.9349 94.9761 90.0073 93.9201C89.9473 95.5213 90.3505 97.1445 91.2889 98.6341C91.1709 99.8761 92.0265 101.024 93.2817 101.247C94.6209 101.492 95.8761 100.582 96.1049 99.2881C96.3433 97.9725 95.4645 96.7121 94.1405 96.4745C93.5713 96.3725 93.0129 96.4777 92.5429 96.7353C92.0717 95.6749 91.9241 94.5481 92.0593 93.4661C92.9081 93.3781 93.7825 93.4053 94.6649 93.5637C98.0045 94.1609 100.604 96.4697 101.714 99.4201H101.716C101.96 100.07 102.131 100.749 102.224 101.448C102.224 101.45 102.226 101.454 102.226 101.457C102.346 102.377 102.33 103.331 102.156 104.294C101.515 107.846 98.9157 110.558 95.6633 111.522L94.8189 111.371L94.3537 113.957L91.9109 113.518L88.3957 133.037L86.5045 134.317L90.3021 113.228L88.6937 112.939L85.1777 132.462L86.5041 134.317L85.1777 132.462L83.8505 130.604L87.0837 112.649L86.1545 112.482L86.6461 109.749L87.1977 109.848ZM88.808 102.584C88.6944 103.214 88.0892 103.633 87.4576 103.52C86.8244 103.407 86.4044 102.804 86.5188 102.175C86.632 101.544 87.2352 101.126 87.868 101.238C88.5012 101.352 88.9212 101.953 88.808 102.584Z" fill="#D39E00"/>
<path fill-rule="evenodd" clip-rule="evenodd" d="M88.6957 112.94L90.3041 113.229L86.5061 134.318L85.1797 132.462L88.6957 112.94ZM91.9132 113.518L93.5228 113.808L93.02 116.602L93.9508 119.182L92.1776 121.279L93.1088 123.86L91.3352 125.956L92.2664 128.536L90.4932 130.632L90.2912 131.756L88.3984 133.038L91.9132 113.518ZM101.41 101.16C101.41 101.157 101.408 101.154 101.408 101.151C101.315 100.452 101.143 99.7726 100.899 99.1234H100.898C99.7873 96.173 97.1877 93.8638 93.8481 93.267C92.9661 93.1086 92.0917 93.081 91.2425 93.1694C91.1077 94.251 91.2549 95.3782 91.7265 96.4386C92.1965 96.181 92.7549 96.0758 93.3241 96.1778C94.6477 96.4154 95.5269 97.6758 95.2885 98.9914C95.0597 100.285 93.8045 101.195 92.4649 100.95C91.2097 100.728 90.3545 99.5794 90.4725 98.3374C89.5341 96.8478 89.1309 95.2246 89.1909 93.6234C86.1185 94.679 83.6953 97.3178 83.0805 100.731C82.4413 104.285 83.9349 107.728 86.6461 109.757L94.8465 111.225C98.0993 110.261 100.699 107.55 101.34 103.997C101.514 103.034 101.53 102.081 101.41 101.16ZM87.9916 102.287C87.878 102.918 87.2728 103.336 86.6412 103.223C86.008 103.11 85.588 102.507 85.7024 101.878C85.8156 101.247 86.4184 100.829 87.0516 100.941C87.6848 101.055 88.1048 101.656 87.9916 102.287Z" fill="#F6C854"/>
<path fill-rule="evenodd" clip-rule="evenodd" d="M91.7099 96.4008C91.2515 95.3516 91.1071 94.2384 91.2415 93.1692C91.4903 91.1536 92.7207 89.2964 94.6823 88.3344L93.7955 86.5396C90.9751 87.922 89.3003 90.698 89.1895 93.6228C89.1299 95.1972 89.5199 96.7932 90.4267 98.2636C90.4267 98.2644 90.4259 98.2644 90.4259 98.2652C91.1879 99.4536 92.1723 100.379 93.1639 100.974C93.1667 100.974 93.1715 100.972 93.1747 100.972C93.9759 100.881 94.6835 100.393 95.0535 99.6796C93.5303 99.0524 92.3203 97.7828 91.7099 96.4008Z" fill="#DEEDF2"/>
<path fill-rule="evenodd" clip-rule="evenodd" d="M44.0064 18.2979L61.5804 48.6855L91.3904 49.7824L97.888 47.1732L106.259 45.5007C107.188 45.3149 108.119 45.81 108.483 46.683C108.587 46.9335 108.636 47.1917 108.636 47.4447C108.636 48.3209 108.049 49.1367 107.138 49.3672L101.03 50.9129L98.0404 52.523L104.802 53.6286L119.199 56.6986C120.444 56.9638 121.28 58.1342 121.126 59.3958C120.964 60.731 119.757 61.6874 118.417 61.541L108.769 60.4866L120.911 66.8986C122.331 67.6478 122.71 69.5062 121.697 70.7502C121.202 71.3578 120.47 71.6902 119.719 71.6902C119.4 71.6902 119.077 71.6302 118.768 71.5058L102.943 65.143L97.2692 62.8618L98.8364 66.3486C99.6104 67.635 99.8824 69.1614 99.6004 70.6354L97.3028 82.6478C97.0052 84.2046 95.4284 85.1662 93.906 84.7206C93.906 84.721 93.906 84.721 93.906 84.721C93.9504 85.5266 93.6136 86.331 92.954 86.8646C92.4788 87.2478 91.9048 87.4374 91.332 87.4374C90.6868 87.4374 90.044 87.1974 89.5468 86.7222L85.3876 82.7426C84.936 82.6214 82.9472 81.821 80.396 80.765C77.844 79.7098 74.7288 78.399 72.0236 77.2538C67.8548 75.4894 64.0968 72.8838 60.9856 69.5998L57.5128 65.9338L35.1172 45.5058L38.1533 33.9027L39.9425 27.0635L39.9422 27.0631L44.0064 18.2979ZM92.0651 80.7145L92.7999 69.9549L89.6579 65.0489L84.3411 62.7969L84.3011 62.7905V62.7909L80.1523 69.9549L86.8499 74.9441C88.9531 76.5105 90.7231 78.4721 92.0643 80.7133C92.0647 80.7137 92.0647 80.7141 92.0651 80.7145Z" fill="#F4A48D"/>
<path fill-rule="evenodd" clip-rule="evenodd" d="M91.7138 96.3778C91.2554 95.3286 91.1114 94.2154 91.2454 93.1462C91.4942 91.131 92.7246 89.2734 94.6862 88.3114L93.7998 86.5166C90.979 87.899 89.3042 90.675 89.1934 93.6002C89.1338 95.1742 89.5242 96.7702 90.4306 98.2406C90.4306 98.2414 90.4302 98.2414 90.4302 98.2422C91.1922 99.4306 92.1762 100.356 93.1678 100.951C93.171 100.951 93.1758 100.949 93.179 100.949C93.9798 100.858 94.6878 100.37 95.0578 99.657C93.5342 99.0298 92.3242 97.7598 91.7138 96.3778Z" fill="#DEEDF2"/>
</g>
</svg>
