<svg width="160" height="160" viewBox="0 0 160 160" fill="none" xmlns="http://www.w3.org/2000/svg">
<path fill-rule="evenodd" clip-rule="evenodd" d="M147.926 152.89C147.926 156.732 116.944 159.847 78.7264 159.847C40.5088 159.847 9.52734 156.732 9.52734 152.89C9.52734 149.048 40.5088 145.934 78.7264 145.934C116.944 145.934 147.926 149.048 147.926 152.89Z" fill="#9BC3D3"/>
<path fill-rule="evenodd" clip-rule="evenodd" d="M99.1873 39.5463C107.335 48.2128 118.13 53.8691 129.828 55.995C136.929 57.2854 143.723 60.6769 149.213 66.1697C163.592 80.5563 163.608 103.757 149.248 118.163C142.914 124.518 134.836 128.069 126.553 128.817C119.462 129.458 112.8 132.554 107.881 137.705C107.817 137.771 107.753 137.837 107.689 137.903C99.2971 146.471 85.7211 146.556 77.2269 138.089C77.1782 138.041 77.1299 137.992 77.0821 137.943C74.8131 135.639 71.538 134.632 68.3646 135.249C50.2718 138.765 30.8143 133.511 16.801 119.487C-5.58994 97.0773 -5.58994 60.6785 16.801 38.2688C39.21 15.8416 75.5409 15.8418 97.9494 38.2691C98.37 38.69 98.7827 39.1158 99.1873 39.5463Z" fill="#DEEDF2"/>
<path fill-rule="evenodd" clip-rule="evenodd" d="M46.0878 58.5812C44.6208 57.4884 43.668 55.7268 43.668 53.7414C43.668 50.4288 46.3206 47.7393 49.5879 47.7393C52.6047 47.7393 55.0975 50.0322 55.4619 52.9915C55.5257 53.2998 55.572 53.6115 55.6039 53.9232L55.604 53.9237L55.605 53.9306L55.6052 53.933C55.6146 54.0263 55.6228 54.1194 55.6298 54.2125L56.0375 58.8441L55.1095 59.159L55.0998 59.1612L55.0997 59.1612C55.0767 59.2419 55.0639 59.2856 55.0639 59.2856L55.0387 59.9121L54.9931 61.0831C54.9774 61.4706 54.8974 61.8504 54.7583 62.2074C54.661 62.4594 54.5325 62.7007 54.3755 62.9247C54.1911 63.1876 53.9708 63.4235 53.7249 63.6226C53.5968 63.7272 53.4607 63.8204 53.3184 63.9035C53.2431 63.9476 53.168 63.9881 53.09 64.0261L53.0895 64.0263L53.4881 71.3421C53.4881 71.3421 51.3817 71.9856 49.0751 71.475C47.6809 71.169 46.2121 70.4383 45.0917 68.8915C45.0917 68.8915 46.4179 63.0636 46.0878 58.5812Z" fill="#FFC4B8"/>
<path fill-rule="evenodd" clip-rule="evenodd" d="M49.0967 71.3883C47.7024 71.0823 46.2337 70.3515 45.1133 68.8048C45.1133 68.8048 46.5477 62.5601 46.0615 58.0219C46.0615 58.0219 49.3245 66.0875 49.0967 71.3883ZM55.1089 59.1851C54.784 59.2817 54.4642 59.0229 54.4854 58.6807L54.622 56.4746L55.1089 59.1851Z" fill="#F4A48D"/>
<path fill-rule="evenodd" clip-rule="evenodd" d="M50.3375 77.0216C43.688 77.1835 36.2821 75.4604 36.2541 69.1513C36.2218 61.7706 40.2685 53.6282 41.8408 50.0111C42.9335 47.4973 46.194 43.9344 51.3222 45.1133C52.1414 45.3017 53.3309 45.9771 53.8883 46.5978C53.9218 46.635 53.9554 46.6713 53.9892 46.7066C56.4087 47.0949 58.3507 49.2448 58.5513 51.9918C58.5727 52.2852 58.5734 52.5755 58.5549 52.8608C58.6001 56.719 58.7249 72.2704 57.8509 75.8068C57.3905 77.6697 53.241 76.9509 50.3375 77.0216ZM51.4095 71.9643C52.1185 71.8836 52.7545 71.7714 53.295 71.618L52.911 64.0217L52.9115 64.0215C52.9865 63.982 53.059 63.9399 53.1315 63.8941C53.2685 63.8079 53.3997 63.7111 53.5231 63.6025C53.7601 63.3957 53.9723 63.1508 54.1501 62.8779C54.3013 62.6453 54.4251 62.3947 54.5188 62.133C54.6529 61.7623 54.73 61.3679 54.7451 60.9656L54.789 59.7498L54.8133 59.0991C54.8133 59.0991 54.8257 59.0538 54.8478 58.9702L54.8573 58.9677L55.7514 58.6407L55.3586 53.8315C55.3518 53.735 55.344 53.6382 55.3348 53.5414L55.3347 53.5388L55.3336 53.5317V53.5312C55.3029 53.2075 55.2583 52.8838 55.1968 52.5637C55.127 51.9534 54.9765 51.3704 54.7571 50.8281C54.2545 49.9889 53.6364 49.2605 51.4373 49.2746C48.7315 49.2924 47.7257 50.8719 47.2841 51.9241C46.8791 52.8888 46.7338 54.0273 46.7338 54.0273L46.733 54.0297L46.7054 54.2032L46.7011 54.2304L46.6968 54.2566C46.2224 53.5614 45.5739 53.2207 45.1447 53.4844C44.7355 53.7361 44.6527 54.4588 44.9035 55.2222C44.9396 55.3664 44.9886 55.5121 45.0509 55.6568L45.0618 55.6819L45.065 55.6889L45.0736 55.708L45.0765 55.7145L45.0877 55.7388L45.0899 55.7433L45.0994 55.7635L45.103 55.7709L45.1124 55.79L45.1149 55.7952C45.3572 56.2841 45.7084 56.6358 46.0566 56.7733C46.0794 56.7861 46.1022 56.7979 46.125 56.8091C46.125 56.8091 46.1697 58.3 46.1821 58.4057C46.6607 62.4889 45.3227 68.5048 45.2239 69.0956C46.1953 70.4855 47.463 71.4836 49.6293 71.8855C50.2809 71.9799 50.9103 71.9864 51.4095 71.9643Z" fill="#34466B"/>
<path d="M70.8815 52.57C70.8815 52.57 70.8735 52.5356 70.8604 52.5498C70.847 52.5363 70.8407 52.5711 70.8407 52.5711C70.5053 52.9277 68.0107 55.3488 62.96 54.3979C62.96 54.3979 62.4052 63.5136 65.4221 67.1398C68.6438 71.0127 71.3126 72.1354 71.3254 72.1246C71.3392 72.1346 73.9743 70.8836 76.9846 66.8097C79.8016 62.9985 78.8379 53.9449 78.8379 53.9449C73.8393 55.1823 71.2332 52.9068 70.8815 52.57Z" fill="#137E84"/>
<path d="M70.9066 53.6809C70.9066 53.6809 70.8995 53.6503 70.8876 53.6629C70.8751 53.6509 70.8693 53.6819 70.8693 53.6819C70.565 53.9995 68.3006 56.1563 63.7182 55.3123C63.7182 55.3123 63.2104 63.428 65.9465 66.6549C68.8691 70.1015 71.2927 71.3162 71.3044 71.3067C71.3164 71.3154 73.7057 69.9838 76.4391 66.3554C78.9963 62.9609 78.1261 54.9012 78.1261 54.9012C73.5899 56.0053 71.2262 53.9808 70.9066 53.6809Z" fill="#1BB3BC"/>
<path fill-rule="evenodd" clip-rule="evenodd" d="M70.905 54.4602C70.9178 54.447 70.9252 54.4791 70.9252 54.4791C71.2529 54.7869 73.64 56.8312 78.2119 55.8205C78.17 54.996 78.1143 54.4808 78.1143 54.4808C73.5782 55.5849 71.2144 53.5604 70.8948 53.2605C70.8948 53.2605 70.8877 53.2299 70.8758 53.2425C70.8634 53.2305 70.8582 53.2617 70.8582 53.2617C70.5533 53.5791 68.2888 55.7359 63.7065 54.8919C63.7065 54.8919 63.674 55.4095 63.6701 56.2349C68.2851 56.9849 70.5731 54.8062 70.8864 54.4802C70.8864 54.4802 70.892 54.4476 70.905 54.4602Z" fill="#1BB3BC"/>
<path fill-rule="evenodd" clip-rule="evenodd" d="M76.8274 57.1896C73.4008 58.0381 71.2014 56.4066 70.9603 56.1758C70.9603 56.1758 70.9551 56.1522 70.9463 56.162C70.9365 56.1526 70.9323 56.1765 70.9323 56.1765C70.7023 56.421 68.6057 58.1704 65.143 57.5186C65.143 57.5186 65.1492 63.6787 67.2173 66.1648C69.4266 68.82 71.2559 69.5897 71.2648 69.5823C71.2739 69.5891 73.0808 68.7314 75.1448 65.9385C77.0759 63.3255 76.8274 57.1896 76.8274 57.1896Z" fill="#DEEDF2"/>
<path fill-rule="evenodd" clip-rule="evenodd" d="M108.084 53.9807C109.548 52.9043 110.5 51.1693 110.5 49.2139C110.5 45.9512 107.851 43.3022 104.588 43.3022C101.576 43.3022 99.0865 45.5606 98.7226 48.4753C98.6589 48.7789 98.6127 49.086 98.5808 49.3929L98.5808 49.3934L98.5798 49.4002L98.5795 49.4026C98.5701 49.4944 98.5619 49.5862 98.555 49.6778L98.1478 54.2395L99.0746 54.5497L99.0842 54.5519L99.0843 54.5519C99.1073 54.6314 99.12 54.6744 99.12 54.6744L99.1452 55.2915L99.1907 56.4448C99.2065 56.8265 99.2863 57.2005 99.4253 57.5521C99.5224 57.8003 99.6507 58.038 99.8075 58.2587C99.9916 58.5175 100.212 58.7499 100.457 58.946C100.585 59.049 100.721 59.1408 100.863 59.2226C100.938 59.2661 101.013 59.306 101.091 59.3434L101.092 59.3437L100.694 66.5491C100.694 66.5491 102.797 67.1829 105.1 66.68C106.493 66.3786 107.959 65.6589 109.078 64.1354C109.078 64.1354 107.754 58.3954 108.084 53.9807Z" fill="#FFC4B8"/>
<path fill-rule="evenodd" clip-rule="evenodd" d="M105.081 66.595C106.473 66.2936 107.94 65.5739 109.059 64.0504C109.059 64.0504 107.626 57.8999 108.112 53.4302C108.112 53.4302 104.853 61.3741 105.081 66.595ZM99.0795 54.5758C99.4039 54.671 99.7233 54.4161 99.7021 54.0791L99.5657 51.9062L99.0795 54.5758Z" fill="#F4A48D"/>
<path fill-rule="evenodd" clip-rule="evenodd" d="M106.539 42.7771C103.972 42.6872 104.287 40.4873 104.287 40.4873C101.54 40.5772 100.369 41.6098 100.369 41.6098C98.1622 43.3604 99.0373 46.8726 99.0373 46.8726C99.374 44.2223 103.442 45.3522 105.035 45.6183C105.686 46.2551 105.435 47.8096 105.765 49.1198C105.77 49.1436 106.478 50.9169 106.478 50.9169L106.479 50.919L106.519 51.1033C106.531 51.0731 106.543 51.0429 106.556 51.0128C106.984 50.0015 107.856 49.4034 108.503 49.6754C109.15 49.9478 109.328 50.9881 108.9 51.9994C108.751 52.3516 108.374 52.6538 108.145 52.8866C107.968 54.3714 108.001 55.7506 108.126 56.9346L108.79 56.9633L112.033 46.0348C112.21 44.5204 110.679 43.4447 109.596 43.1135C108.753 42.8555 107.663 42.8164 106.539 42.7771Z" fill="#CEDEE7"/>
<path d="M85.3255 45.2469L85.3062 45.2261V41.9517H85.3255V45.2469Z" fill="#9BC3D3"/>
<path fill-rule="evenodd" clip-rule="evenodd" d="M72.832 51.4361L72.8206 51.5062C72.8536 51.4913 72.8874 51.4767 72.9206 51.462C72.8911 51.4533 72.8616 51.4446 72.832 51.4361Z" fill="white"/>
<path fill-rule="evenodd" clip-rule="evenodd" d="M30.9831 26.8176C30.3819 21.9341 26.2198 18.1533 21.1753 18.1533C15.7178 18.1533 11.2934 22.5789 11.2934 28.0383C11.2934 28.9339 11.4124 29.8018 11.6357 30.6268C11.5518 30.6279 11.4686 30.6309 11.3859 30.6357L11.2929 30.628V30.6419C8.4624 30.8546 6.2313 33.2196 6.2313 36.1057C6.2313 38.9917 8.4624 41.3567 11.2929 41.5695V41.5858H47.2721V41.5853H47.2722C49.4776 41.5853 51.2656 39.7965 51.2656 37.5902C51.2656 35.3839 49.4776 33.5954 47.2722 33.5954H47.2721V33.5952L38.1566 32.8435C38.1983 32.5711 38.2198 32.2922 38.2198 32.0083C38.2198 28.9822 35.7676 26.5289 32.7423 26.5289C32.127 26.5289 31.5353 26.6304 30.9831 26.8176Z" fill="#DEEDF2"/>
<path fill-rule="evenodd" clip-rule="evenodd" d="M45.4984 153.157C45.6699 153.05 45.872 152.998 46.0741 153.015L47.2391 152.9L46.1732 151.289L46.3527 144.469H42.1133C42.2666 150.127 42.359 151.717 42.4002 153.238H42.4037L43.8534 153.593C44.1138 153.659 44.3914 153.614 44.6209 153.472L45.4984 153.157Z" fill="#FFC4B8"/>
<path fill-rule="evenodd" clip-rule="evenodd" d="M54.086 152.927L57.6571 153.595C58.2931 153.711 58.9397 153.453 59.3166 152.927L59.3201 152.923L57.6365 151.609C57.74 150.518 57.9812 145.201 57.9812 145.201H53.8281L54.086 152.927Z" fill="#FFC4B8"/>
<path d="M43.8346 96.1396L41.8401 97.6107C41.8401 97.6107 41.4734 98.0552 41.6338 98.838C41.7946 99.6165 42.495 100.355 42.495 100.355C42.495 100.355 40.9831 100.387 41.0162 100.811C41.0488 101.243 43.0287 101.738 44.5242 101.612C44.7592 99.8989 45.0589 98.6332 45.4092 97.361L43.8346 96.1396Z" fill="#FFC4B8"/>
<path fill-rule="evenodd" clip-rule="evenodd" d="M70.1029 78.6137C70.1029 78.6137 65.4608 94.5259 62.5932 94.3064C62.5471 94.301 62.501 94.2958 62.4597 94.2859C60.0745 93.9485 58.1459 89.4092 57.125 86.3987C57.2069 85.8977 57.3149 85.3965 57.4533 84.8955C58.4638 81.2511 59.1562 79.2422 57.4533 75.848L60.1619 74.1765L60.1667 74.1714L63.0086 87.6917C63.0086 87.6917 67.9486 76.8143 68.5129 76.1752C69.3593 75.2041 70.6318 75.6241 71.5195 75.3995C72.4017 75.1643 74.5606 74.243 75.0275 74.8513C75.5712 75.5618 70.1029 78.6137 70.1029 78.6137Z" fill="#FFC4B8"/>
<path fill-rule="evenodd" clip-rule="evenodd" d="M57.8144 76.024C59.514 79.4034 58.823 81.4036 57.8144 85.0322C57.676 85.531 57.5685 86.0301 57.4867 86.5289C56.9441 89.6382 57.3384 92.4782 57.3384 92.4782H43.4893L40.3202 78.7012L37.4224 80.6198L37.1868 80.218L36.9718 79.8565L34.2688 75.2607L34.0586 74.8992C34.0586 74.8992 36.639 72.2425 40.2281 70.3034C42.199 69.24 42.9014 68.3899 45.2256 68.3135C45.5996 69.6213 48.3888 70.5734 49.8223 70.5734C51.2609 70.5734 52.4745 69.6165 52.8482 68.3135C56.0736 68.3899 58.1166 69.6978 59.3656 71.0313C60.7224 72.4818 61.1524 73.9628 61.1524 73.9628L60.5226 74.3547L57.8144 76.024Z" fill="#1B4872"/>
<path fill-rule="evenodd" clip-rule="evenodd" d="M60.4214 108.709C60.4214 117.018 58.8235 134.008 58.3907 145.934H53.536L51.5302 105.682H49.4694L46.8085 145.934H41.9484C41.521 134.008 39.918 117.018 39.918 108.709C39.918 106.673 40.0706 104.754 40.3098 102.989C40.5997 100.84 41.0274 98.9271 41.4599 97.3307C42.3505 94.0667 43.2919 92.1123 43.2919 92.1123H57.0577C57.0577 92.1123 60.4214 99.1114 60.4214 108.709Z" fill="#34466B"/>
<path fill-rule="evenodd" clip-rule="evenodd" d="M31.0219 87.5027C30.774 87.2721 30.6446 86.9749 30.629 86.6676C30.6086 86.3346 30.7223 85.9964 30.9754 85.74L37.0025 79.5304L34.2783 74.9141L34.2734 74.9038C32.216 77.0095 24.783 84.8128 25.2947 87.0824C25.8997 89.7212 38.191 97.9702 38.191 97.9702L40.281 96.1218L31.0219 87.5027Z" fill="#FFC4B8"/>
<path fill-rule="evenodd" clip-rule="evenodd" d="M110.69 79.3097C110.317 80.0736 109.747 81.2249 108.786 81.121C108.751 81.1175 108.716 81.0997 108.677 81.0709C107.555 80.217 105.328 68.6302 104.723 65.3728C105.381 65.6384 106.264 65.764 107.344 65.4016C108.195 65.1181 108.754 64.5942 109.116 63.9199H113.466C116.878 64.1461 118.493 64.6842 119.278 66.5315C120.393 69.1647 119.457 74.6066 116.551 81.1282L110.69 79.3097Z" fill="#34466B"/>
<path fill-rule="evenodd" clip-rule="evenodd" d="M115.34 104.561H93.3824L94.1927 77.1648L90.2086 80.1101L89.5225 79.4871L89.4022 79.3773L84.4524 74.8919L84.2188 74.6122L90.1346 67.9713C93.2905 65.1534 96.5524 64.4879 100.756 64.2861C100.968 64.9516 101.287 65.5784 101.654 65.9922C102.518 66.9696 102.5 74.6017 102.826 77.1114C103.448 81.8694 105.515 87.229 108.331 87.5688C108.833 87.6323 109.357 87.5333 109.898 87.2466C111.448 86.4288 112.654 82.6942 115.34 81.7136V104.561Z" fill="#34466B"/>
<path fill-rule="evenodd" clip-rule="evenodd" d="M93.7368 89.9839L93.5716 95.6298C92.1632 96.0091 90.7088 95.5525 90.6174 95.2244C90.5209 94.8963 92.3409 94.4705 92.2441 94.0503C92.1936 93.8143 91.3748 93.8401 90.6529 93.9065C90.0125 93.9681 89.3973 93.6658 89.0668 93.1224L89.0211 93.0505L88.66 92.4046C88.66 92.4046 88.1059 91.9586 87.2619 91.2457C85.996 90.1795 84.0744 88.513 82.3867 86.8673C82.4171 85.7854 82.9153 84.7757 83.7593 84.0937C84.2981 83.6628 84.9184 83.4014 85.5793 83.3247C86.2881 84.2552 87.7224 86.9276 89.3871 88.5026C89.6974 88.7489 90.0377 89.0106 90.3988 89.272C90.3988 89.272 91.0952 89.0051 91.8833 89.0873C92.3713 89.1385 93.3252 89.5172 93.7368 89.9839Z" fill="#FFC4B8"/>
<path fill-rule="evenodd" clip-rule="evenodd" d="M88.6121 78.7445L87.9092 79.3972L86.6011 80.6173C84.9521 80.4567 83.318 80.9086 82.0259 81.9129C81.1519 82.5905 80.5003 83.454 80.0973 84.4233C79.5234 83.7804 79.0837 83.193 78.8461 82.7212C77.8484 80.7278 83.4009 75.6619 84.1555 74.9789C84.2127 74.9287 84.2436 74.9038 84.2436 74.9038L88.6121 78.7445Z" fill="#FFC4B8"/>
<path fill-rule="evenodd" clip-rule="evenodd" d="M86.2423 101.816C85.4873 101.816 84.875 102.432 84.875 103.191C84.875 103.95 85.4873 104.561 86.2423 104.561C86.9977 104.561 87.6048 103.95 87.6048 103.191C87.6048 102.432 86.9977 101.816 86.2423 101.816ZM92.1105 85.1992C91.6006 82.9521 89.8503 81.1564 87.6359 80.5972C87.59 80.5818 87.5441 80.5718 87.4983 80.5614C85.6053 80.1251 83.6612 80.5614 82.1711 81.7569C81.3089 82.4493 80.6658 83.3317 80.2681 84.322C79.9772 85.0557 79.8242 85.8455 79.8242 86.6562C79.8242 87.3641 80.3958 87.9385 81.0998 87.9385C81.8038 87.9385 82.3754 87.3641 82.3754 86.6562C82.3754 86.6153 82.3754 86.5792 82.3805 86.5382C82.411 85.4556 82.911 84.4452 83.7581 83.7628C84.2989 83.3317 84.9214 83.0701 85.5847 82.9934C86.0184 82.9318 86.4725 82.9572 86.9318 83.0598C88.2636 83.3678 89.3198 84.4297 89.6258 85.7684C89.8147 86.6098 89.7329 87.4464 89.4064 88.1745C89.7178 88.4209 90.0594 88.6828 90.4218 88.9443C90.4218 88.9443 91.1207 88.6773 91.9117 88.7595C92.3046 87.6411 92.386 86.4099 92.1105 85.1992ZM88.6765 92.0788C88.6765 92.0788 88.1204 91.6328 87.2733 90.9194C85.651 93.182 84.7734 95.7881 84.7734 98.4355V99.3023C84.7734 100.011 85.3447 100.585 86.049 100.585C86.7531 100.585 87.3246 100.011 87.3246 99.3023V98.4355C87.3246 96.4757 87.9417 94.531 89.0848 92.7973L89.039 92.7254L88.6765 92.0788Z" fill="#2A8FEC"/>
<path d="M86.4145 83.0109C86.2115 82.9774 86.01 82.9598 85.8113 82.9598C85.6614 82.9598 85.513 82.9697 85.3672 82.9906C85.5168 82.9694 85.6693 82.9588 85.8233 82.9588C86.0153 82.9588 86.2099 82.975 86.406 83.0069C86.4088 83.0082 86.4117 83.0096 86.4145 83.0109Z" fill="#CCCCCC"/>
<path d="M90.2654 89.0029C90.265 89.0029 90.265 89.0029 90.265 89.0029C90.2625 89.0011 90.2599 88.9992 90.2573 88.9974C90.2573 88.997 90.257 88.997 90.257 88.997C90.2595 88.9989 90.2625 89.0011 90.2654 89.0029Z" fill="#CCCCCC"/>
<path d="M90.265 89.0027C90.2625 89.0009 90.2599 88.999 90.2573 88.9972C90.2599 88.999 90.2625 89.0009 90.265 89.0027Z" fill="#F4A48D"/>
<path d="M90.2641 89.002C90.2638 89.002 90.2638 89.0016 90.2638 89.0016C90.2619 89.0005 90.2605 88.999 90.2586 88.9979C90.2586 88.9979 90.2586 88.9979 90.2583 88.9979C90.2601 88.999 90.2623 89.0005 90.2641 89.002Z" fill="#CCCCCC"/>
<path d="M90.2638 89.0018C90.2619 89.0007 90.2605 88.9996 90.2586 88.9981C90.2605 88.9992 90.2619 89.0007 90.2638 89.0018Z" fill="#F4A48D"/>
<path d="M87.3342 80.9458C87.3324 80.9455 87.3306 80.9451 87.3288 80.9447C87.3306 80.9451 87.3324 80.9455 87.3342 80.9458Z" fill="#CCCCCC"/>
<path fill-rule="evenodd" clip-rule="evenodd" d="M102.111 65.4108C101.742 64.9977 101.423 64.372 101.211 63.7078C100.917 62.8243 100.814 61.8738 101.034 61.2625C101.214 60.7678 101.76 59.7322 101.214 59.5203C100.942 59.4138 100.534 59.3563 100.33 59.7095C100.127 60.0588 100.128 60.8185 99.7511 60.7219C99.3788 60.6298 99.5737 57.8067 101.586 57.386C101.749 57.3506 101.923 57.3296 102.111 57.3296C104.616 57.3296 105.583 59.3332 105.583 59.4957C105.583 59.6618 104.725 63.9106 104.357 64.2861C103.99 64.6616 102.975 66.3864 102.111 65.4108Z" fill="#F4A48D"/>
<path fill-rule="evenodd" clip-rule="evenodd" d="M115.764 81.3784C115.346 82.1379 114.68 83.1592 113.685 84.2053C112.76 85.1841 111.4 86.7193 109.848 87.5356C106.237 89.4369 103.069 82.8978 102.335 77.3075C102.009 74.802 102.608 66.7526 101.744 65.777C101.375 65.3639 101.056 64.7382 100.844 64.074C100.55 63.1905 100.447 62.24 100.666 61.6287C100.847 61.134 101.393 60.0984 100.847 59.8865C100.575 59.78 100.398 60.1328 100.193 60.486C99.9908 60.8353 99.761 61.1847 99.3839 61.0881C99.0116 60.996 99.2065 58.1729 101.219 57.7522C101.382 57.7168 101.556 57.6958 101.744 57.6958C104.249 57.6958 105.216 59.6994 105.216 59.8619C105.216 60.028 104.724 64.6429 104.724 64.6429C104.724 64.6429 104.777 64.9467 104.879 65.4802C105.51 68.7951 108.972 80.9931 108.972 80.9931C108.972 80.9931 109.861 80.2721 110.527 79.5868C110.659 79.4488 110.779 79.3146 110.885 79.1839L110.889 79.2088L116.073 80.7811C115.991 80.9542 115.888 81.1521 115.764 81.3784Z" fill="#FFC4B8"/>
<path fill-rule="evenodd" clip-rule="evenodd" d="M46.1418 149.961L42.1143 151.059V153.066V153.805L47.0982 153.868L49.0109 154.092L49.2539 151.792L48.7374 151.393L46.1418 149.961Z" fill="#CEDEE7"/>
<path fill-rule="evenodd" clip-rule="evenodd" d="M57.1713 150.878L60.8412 152.932L60.6911 155.036L53.318 154.751L53.982 150.695L57.1713 150.878Z" fill="#CEDEE7"/>
<path fill-rule="evenodd" clip-rule="evenodd" d="M97.8203 149.595H102.158V152.897V153.684L96.7903 153.751L94.7304 153.988L94.4688 151.542L95.025 151.118L97.8203 149.595Z" fill="#CEDEE7"/>
<path fill-rule="evenodd" clip-rule="evenodd" d="M109.825 149.758L106.155 151.813L106.305 153.916L113.678 153.632L113.014 149.576L109.825 149.758Z" fill="#CEDEE7"/>
<path fill-rule="evenodd" clip-rule="evenodd" d="M113.508 104.561V150.327H107.543C107.543 150.327 104.784 114.476 104.149 106.24C103.602 106.24 102.857 106.24 102.857 106.24V150.327H96.8956L93.3711 104.561H113.508Z" fill="#34466B"/>
</svg>
