<svg width="161" height="160" viewBox="0 0 161 160" fill="none" xmlns="http://www.w3.org/2000/svg">
<mask id="mask0_1483_87158" style="mask-type:luminance" maskUnits="userSpaceOnUse" x="0" y="20" width="161" height="120">
<rect x="0.0136719" y="20" width="160" height="119.04" fill="white"/>
</mask>
<g mask="url(#mask0_1483_87158)">
<rect x="0.0136719" y="20" width="160" height="119.04" fill="white"/>
<mask id="mask1_1483_87158" style="mask-type:luminance" maskUnits="userSpaceOnUse" x="16" y="32" width="131" height="92">
<path fill-rule="evenodd" clip-rule="evenodd" d="M66.9294 110.832C66.588 110.522 66.2524 110.208 65.9224 109.891C59.2946 103.506 50.5138 99.3383 40.9974 97.7737C35.1295 96.8437 29.6544 94.2408 25.2287 90.2772C13.5316 79.6775 13.5184 62.5839 25.1996 51.9698C30.3201 47.3898 36.8102 44.6299 43.6611 44.1191C49.4292 43.6468 54.8487 41.3658 58.8504 37.5706C58.9019 37.5217 58.9537 37.4732 59.0057 37.4251C65.8324 31.1104 76.8762 31.0499 83.7857 37.2877C83.8252 37.3233 83.8645 37.3591 83.9034 37.3952C85.8345 39.1152 88.4512 39.8478 90.9946 39.3805C105.712 36.7898 121.54 40.6605 132.939 50.994C151.153 67.506 151.153 94.3224 132.939 110.834C114.71 127.357 85.157 127.357 66.9285 110.834" fill="white"/>
</mask>
<g mask="url(#mask1_1483_87158)">
<path d="M15.6348 31.9116H147.415V123.962H15.6348V31.9116Z" fill="#DEEDF2"/>
</g>
<path fill-rule="evenodd" clip-rule="evenodd" d="M89.4002 104.005C115.224 105.873 138.412 110.405 138.762 114.373C139.112 118.341 131.104 127.776 75.3133 125.777C19.5224 123.779 14.7228 112.046 22.876 108.91C31.0292 105.774 44.5848 104.959 44.5848 104.959C44.5848 104.959 63.5766 102.138 89.4002 104.005Z" fill="#CEDEE7"/>
<path fill-rule="evenodd" clip-rule="evenodd" d="M37.2717 73.6764C37.2717 73.6764 34.7164 74.6837 35.4336 76.1809C36.1508 77.6781 37.2717 77.9 37.2717 77.9C37.2717 77.9 38.0252 87.7602 38.6439 90.2878C39.2625 92.8154 41.8776 103.685 41.8776 103.685L43.5155 111.347C43.5155 111.347 43.9029 113.132 47.309 114.217C53.4749 116.127 60.0021 116.569 66.3691 115.506C75.196 114.098 75.6917 111.782 76.0028 110.932C76.3138 110.082 81.3259 64.4352 81.3259 64.4352L78.0764 62.8036C78.0764 62.8036 78.9267 62.1005 77.3084 62.0041C75.69 61.9076 65.7743 61.2207 65.7743 61.2207L63.917 62.8036C63.917 62.8036 52.4491 64.3396 47.356 66.4934C42.2628 68.6473 37.2717 73.6764 37.2717 73.6764Z" fill="#9BC3D3"/>
<path d="M37.196 74.3278C37.196 74.3278 35.2367 75.5344 38.444 77.0431C41.6512 78.5518 50.7661 79.4192 59.4957 77.6784C68.2253 75.9376 67.7466 74.757 67.7466 74.757L66.9786 72.9377L44.1767 69.4126L37.196 74.3278Z" fill="#137E84"/>
<path d="M45.6693 62.904C45.6693 62.904 42.9907 62.6352 41.872 62.904C40.7533 63.1728 38.1348 64.0734 38.1348 64.0734C38.1348 64.0734 37.9765 62.3732 38.1348 61.9828C38.2931 61.5924 39.3508 60.8308 39.3508 60.8308L38.5034 57.3428C38.5034 57.3428 40.2489 56.4493 41.0681 56.4656C41.8873 56.4818 43.5496 56.4656 43.5496 56.4656L44.1628 59.9344C44.1628 59.9344 45.5153 60.745 45.6706 60.8303C45.8259 60.9157 45.6693 62.904 45.6693 62.904Z" fill="#2A8FEC"/>
<path d="M38.0616 64.0732C38.0616 64.0732 36.09 67.6896 36.7138 70.8401C37.3376 73.9906 37.6926 75.4174 37.6926 75.4174C37.8456 75.8155 38.1017 76.1658 38.4345 76.4324C38.9226 76.8403 39.7999 77.1241 40.7279 77.4803C42.0842 78.0013 44.1122 78.2364 46.7622 78.367C48.3753 78.4325 49.9683 77.9895 51.316 77.1006C51.316 77.1006 52.6587 73.2721 51.316 69.7828C49.9733 66.2936 50.292 64.9956 48.3025 64.0728C47.2076 63.565 45.8146 62.6648 43.3672 62.7582C41.5987 62.8243 38.6948 63.8108 38.0612 64.0728" fill="#2A8FEC"/>
<path fill-rule="evenodd" clip-rule="evenodd" d="M66.1353 32.2808H62.7949L99.7583 103.636L102.873 102.313L66.1353 32.2808Z" fill="#34466B"/>
<path fill-rule="evenodd" clip-rule="evenodd" d="M99.6675 103.787C99.6675 103.787 100.405 102.644 101.338 102.289C102.008 102.088 102.721 102.088 103.391 102.289L105.007 105.412C105.007 105.412 107.028 104.9 107.138 105.412C107.249 105.924 106.114 106.862 104.463 107.75C102.812 108.637 100.089 109.325 99.6675 108.662C99.2456 107.999 101.338 106.749 101.338 106.749L99.6675 103.787Z" fill="#1BB3BC"/>
<path d="M38.7081 68.4796L39.0691 71.5627L41.3057 76.3781C41.3057 76.3781 43.4083 77.9192 43.2884 77.0769C43.1685 76.2347 41.0484 71.1668 41.3057 69.5143C41.5629 67.8618 43.9429 67.5811 43.9429 67.5811L47.5354 78.3702C47.5354 78.3702 45.1295 78.2597 43.2884 77.9789C42.1791 77.8095 41.0943 77.5067 40.0577 77.0769L37.5762 71.5627L38.7081 68.4796Z" fill="#34466B"/>
<path fill-rule="evenodd" clip-rule="evenodd" d="M99.6133 108.927C99.6133 108.927 98.0773 108.885 96.7739 108.927C94.802 109.073 92.8604 109.496 91.0066 110.184C89.201 110.898 85.1212 113.433 83.9474 113.633C82.7737 113.834 77.8559 114.931 76.834 114.572C76.0576 114.372 75.2429 114.372 74.4665 114.572L73.7168 116.371C73.7168 116.371 76.6412 116.439 78.6256 116.371C79.0186 116.358 79.4277 116.331 79.9611 116.286C81.4651 116.158 83.0062 115.894 83.0062 115.894C84.2259 115.543 85.4176 115.101 86.5714 114.572C88.0034 113.692 89.485 112.895 91.0087 112.186C92.9057 111.352 96.0554 110.184 96.0554 110.184C96.0554 110.184 91.9743 112.556 91.0087 113.069C90.0432 113.582 86.8458 115.917 85.7023 115.893C84.5588 115.869 79.9632 117.334 79.9632 117.334C79.9632 117.334 79.7324 118.93 80.6591 119.025C81.5858 119.12 84.9108 117.334 84.9108 117.334L83.9495 119.025C83.9495 119.025 84.817 120.654 85.7019 120.26C86.5868 119.865 88.5435 119.025 88.5435 119.025C88.5435 119.025 89.4646 120.7 90.2808 120.26C91.0971 119.819 92.0012 117.789 92.0012 117.789C92.0012 117.789 92.4044 118.48 92.9066 118.6C93.4087 118.72 93.7693 120.807 94.6341 120.26C95.499 119.713 95.8745 120.419 96.7756 120.26C97.5614 120.084 98.1322 119.404 98.1686 118.6C98.1281 118.057 98.6939 115.893 98.6939 115.893C98.6939 115.893 99.7678 118.203 99.615 118.6C99.4623 118.997 98.5701 120.171 99.615 120.26C100.66 120.349 101.777 121.001 101.999 120.26C102.202 119.751 102.56 119.318 103.023 119.025C103.311 119.662 103.887 120.122 104.572 120.26C105.678 120.431 106.467 119.791 106.617 119.025C106.768 118.26 107.426 115.151 107.426 115.151C107.75 115.992 107.902 116.889 107.872 117.79C107.816 119.263 108.197 120.333 109.416 120.752C110.062 121.013 110.784 121.013 111.429 120.752C111.429 120.752 111.543 120.726 110.61 119.678C109.677 118.629 109.372 118.205 109.415 117.334C109.458 116.464 109.415 114.572 109.415 114.572C109.415 114.572 110.684 116.55 110.61 117.334C110.536 118.119 112.299 120.274 113.476 120.752C114.548 121.116 115.651 121.383 116.771 121.551L116.113 120.26C116.113 120.26 117.274 121.198 117.742 120.26C118.21 119.321 119.559 120.729 120.156 120.752C120.714 120.691 121.255 120.524 121.75 120.26V117.789C121.75 117.789 120.675 119.215 120.156 118.6C119.638 117.985 117.742 117.335 117.742 117.335C118.545 117.408 119.353 117.408 120.156 117.335C120.762 117.194 123.545 116.524 123.982 117.335C124.419 118.145 126.061 120.065 126.705 119.678C127.35 119.291 127.834 117.335 127.834 117.335C127.834 117.335 126.113 117.83 125.487 116.808C124.861 115.787 124.025 114.32 123.053 113.634C122.081 112.947 116.114 110.184 116.114 110.184C116.114 110.184 112.625 108.544 111.43 107.644C110.236 106.744 109.857 105.758 108.81 105.262C107.762 104.766 104.573 106.227 104.573 106.227L99.6133 108.927Z" fill="#FFE99F"/>
<path fill-rule="evenodd" clip-rule="evenodd" d="M63.6612 76.4542C63.6612 76.4542 56.6925 73.6715 56.6968 71.3948C56.701 69.1181 55.7837 64.1569 54.2106 63.3014C52.6375 62.4459 49.0338 60.0664 49.0338 60.0664C48.1938 60.5783 47.314 61.0219 46.403 61.3929C45.6723 61.5749 44.9082 61.5749 44.1775 61.3929C43.3428 62.3986 42.7009 63.5497 42.284 64.7883C41.6913 66.6938 41.2105 68.9697 41.6683 70.0252C42.1261 71.0808 45.062 78.2637 45.062 78.2637C46.947 78.4191 48.8402 78.451 50.7294 78.3593C53.8829 78.2083 55.4014 77.9975 57.5527 77.7257C59.6149 77.4386 61.6557 77.0138 63.6612 76.4542Z" fill="#F6C854"/>
<path d="M48.1432 57.0935L49.0273 59.9782C49.0273 59.9782 48.991 61.2949 46.9976 61.7502C45.0042 62.2054 44.0011 61.0159 44.0011 61.0159L42.998 58.5267C43.7745 57.9125 44.6456 57.4286 45.5772 57.094C46.4175 56.8673 47.3029 56.8671 48.1432 57.0935Z" fill="#2274C0"/>
<path d="M41.0705 77.6133L40.2739 76.3372C40.2739 76.3372 37.9699 71.5312 38.2878 70.7376C38.6057 69.944 38.3838 68.1981 38.3838 68.1981L38.2878 67.861C38.2878 67.861 36.2974 65.5707 34.8194 65.499C33.3414 65.4273 30.3761 66.1002 30.3761 66.1002C30.3761 66.1002 29.3133 67.8218 30.4892 69.2686C31.5889 70.5413 33.1433 71.3327 34.8194 71.4732C36.2556 71.6306 36.7842 72.0936 36.7842 72.0936L37.6986 75.4856C37.8814 75.8705 38.1444 76.212 38.47 76.4869C38.7864 76.7094 39.1262 76.8967 39.4833 77.0455C39.9964 77.2767 40.5272 77.4666 41.0705 77.6133Z" fill="#9E3667"/>
<path fill-rule="evenodd" clip-rule="evenodd" d="M41.1539 65.8434C41.1539 65.8434 40.7699 61.616 36.9248 60.8667C33.0797 60.1175 30.9941 60.0266 30.2752 61.4957C29.5562 62.9647 30.9425 67.2719 30.9425 67.2719C30.9425 67.2719 31.6891 68.9585 33.2781 69.5161C34.43 69.8628 35.6485 69.927 36.8305 69.7034C37.5785 69.4965 38.2707 69.1248 38.8563 68.6154C40.0394 67.7531 41.1539 65.8434 41.1539 65.8434Z" fill="#F6C854"/>
<path d="M63.7527 76.4316C63.7527 76.4316 63.8854 70.4959 63.2028 69.1604C62.5201 67.8249 63.5138 68.0353 63.2028 65.8597C62.8917 63.6841 61.4641 58.76 61.2009 57.6677C60.9376 56.5754 60.1065 53.2649 60.1065 53.2649C59.2525 52.9859 58.3756 52.7829 57.4859 52.6582C56.8631 52.6906 56.2627 52.9012 55.7562 53.2649L54.3145 56.8097C54.6939 57.6952 54.9185 58.6394 54.9783 59.6009C54.845 61.0514 54.6233 62.4923 54.3145 63.9158L54.3213 78.1238C54.3213 78.1238 55.0931 78.0491 57.5669 77.7236C58.6703 77.5785 60.0527 77.3306 61.3382 77.0443C62.646 76.7533 63.7527 76.4316 63.7527 76.4316Z" fill="#2A8FEC"/>
<path fill-rule="evenodd" clip-rule="evenodd" d="M60.1794 53.3394V51.1135H63.3043V49.3369C63.3043 49.3369 62.6524 47.1272 61.8537 46.7833C61.0549 46.4394 53.5136 45.7205 53.5136 45.7205C53.5136 45.7205 53.4023 44.644 51.5305 45.2388C49.6587 45.8335 49.334 46.7833 49.334 46.7833C49.6573 47.2316 50.0787 47.6001 50.5662 47.8606C51.1168 48.0959 51.65 48.3702 52.1615 48.6815C52.1615 48.6815 52.557 49.4069 51.5305 50.6523C50.8805 51.4308 50.1436 52.1322 49.334 52.743C49.334 52.743 49.392 53.9056 50.5662 53.3403C51.7404 52.775 54.3076 49.9607 54.3076 49.9607L55.673 51.1127V53.3386C56.4409 53.6757 57.2666 53.8617 58.105 53.8864C59.6649 53.9807 60.1794 53.3394 60.1794 53.3394Z" fill="white"/>
<path d="M60.2058 50.6968C60.2058 50.6968 58.8682 48.2093 60.2058 48.1466C61.5434 48.0839 62.7957 50.6968 62.7957 50.6968H60.2058Z" fill="#CCCCCC"/>
<path fill-rule="evenodd" clip-rule="evenodd" d="M61.8177 70.9979C61.8177 70.9979 62.7807 60.4856 65.2238 60.0065C67.6669 59.5274 69.7614 61.3778 71.0879 61.0471C72.4144 60.7165 77.4751 59.5235 78.4112 61.0471C79.2621 62.2741 80.2394 63.4085 81.3271 64.4315C81.3271 64.4315 79.882 64.5923 78.616 64.5923C77.9334 64.1755 77.4619 63.404 75.2057 64.1755C73.2272 64.8522 65.7601 74.11 63.7284 76.4357C63.2223 76.5787 63.0431 76.6299 62.4791 76.7792C61.915 76.9285 61.4551 77.0309 61.4551 77.0309L61.8177 70.9979Z" fill="#1BB3BC"/>
<path d="M64.8848 76.0577C64.8848 76.0577 65.4706 75.8444 65.9813 75.6464C66.492 75.4485 66.9281 75.2744 66.9281 75.2744L67.4115 74.529L67.1807 73.6757C67.0109 73.5868 66.8338 73.513 66.6512 73.4551C66.342 73.546 66.0381 73.6536 65.7407 73.7776C65.7108 73.7951 65.1203 74.5354 65.1062 74.564C65.0921 74.5926 64.8848 76.0577 64.8848 76.0577Z" fill="#34466B"/>
<path fill-rule="evenodd" clip-rule="evenodd" d="M80.1693 92.7738C80.1693 92.7738 85.6033 87.5425 86.2707 86.4092C86.938 85.276 89.6324 79.6833 89.6324 79.6833C89.6324 79.6833 88.8925 75.0292 88.2909 73.0665C87.6893 71.1039 86.6064 64.9027 83.6714 64.5759C81.9672 64.3745 80.2453 64.3745 78.5412 64.5759C77.851 63.9472 76.9147 63.6623 75.9914 63.8002C74.2707 63.9508 71.2042 65.6395 68.2487 67.9563C65.2932 70.2731 65.4327 72.8686 65.4327 72.8686C65.4327 72.8686 67.3864 70.6281 68.8383 70.2399C70.2903 69.8516 71.5528 69.221 72.3507 70.1422C73.1485 71.0633 78.324 73.9659 78.5399 76.7329C78.7558 79.4998 76.7671 90.1025 77.7894 91.0386C78.5298 91.6862 79.3263 92.2669 80.1693 92.7738Z" fill="#2A8FEC"/>
<path d="M67.5294 96.4484C67.0243 96.7043 66.4528 96.7987 65.8922 96.7189C65.0223 96.5657 64.4471 96.4304 64.5444 94.8027C64.6417 93.175 65.8922 78.4358 65.8922 78.4358C65.8922 78.4358 67.3723 73.5492 66.7707 73.7198C66.1691 73.8905 65.9464 74.3091 65.6141 74.7925C65.3529 75.1969 65.1157 75.6164 64.9037 76.0486L63.709 76.4505C63.709 76.4505 64.465 73.7625 65.8939 72.2888C67.3229 70.8151 69.4024 69.4135 70.5489 69.3729C71.6953 69.3324 73.1789 70.7063 73.1789 70.7063C73.1789 70.7063 74.3505 83.3962 73.6717 88.3839C72.9928 93.3717 71.9087 95.4517 71.9087 95.4517L67.5294 96.4484Z" fill="#34466B"/>
<path fill-rule="evenodd" clip-rule="evenodd" d="M74.0468 97.6283C74.1928 97.5671 74.2984 97.4367 74.3281 97.2811C74.3577 97.1255 74.3073 96.9654 74.194 96.8548L73.4021 96.6675L74.194 96.3782L74.1513 96.0369C74.0438 95.9515 73.3257 95.9417 73.4004 95.6955C73.5134 95.3201 74.0225 95.5556 74.662 95.4357C74.8498 95.2889 74.5963 94.5849 74.662 94.3264C74.7277 94.0678 74.3433 94.497 74.1927 93.8916C74.1377 93.6701 74.5908 93.9445 74.5767 93.4803C74.5694 93.2861 74.8097 93.3472 74.5767 92.8829L74.1927 92.3223H74.8161C74.8745 92.0663 74.7119 92.2711 74.9278 91.7612C74.9654 91.6721 74.5716 91.5697 74.6689 91.3376C74.7576 91.1264 75.0008 91.268 75.2385 90.8682C75.3195 90.7325 75.0017 90.401 75.1386 90.0891C75.1813 89.8169 74.4918 89.7516 74.6428 89.4223C74.6979 89.2977 75.3037 89.0946 75.3349 88.9363C75.3609 88.8053 75.5704 88.4315 75.3349 88.1205C75.1527 87.876 74.7666 87.8615 74.8161 87.5773L75.6323 87.4118L75.8187 86.7142C75.8281 86.6097 75.5905 86.6408 75.139 86.3929C74.9223 86.2769 75.9497 86.4467 75.9642 86.1898C75.9779 85.9407 75.7082 85.415 76.2488 84.874C76.5048 84.6223 75.6186 84.6675 75.6323 84.2767C75.6391 84.0842 76.1985 84.6077 76.4003 84.2767L76.2543 83.6025L75.8183 83.2087L76.4003 83.0112C76.4506 82.9455 76.7548 82.5845 76.4003 82.3328L75.9284 82.1561L76.6721 81.8421L76.4532 81.2921L75.9284 81.0387L76.2185 80.7012C76.2211 80.5834 76.6315 80.2408 76.2475 80.0893L75.9284 79.8504L76.4532 79.626V79.1567L75.8183 78.8823L76.4003 78.5917L76.4532 78C76.4532 77.8813 76.1643 77.8818 75.8183 77.7832C75.5589 77.7064 76.4527 77.6552 76.4532 77.3301C76.4532 77.1513 76.3457 77.101 76.2543 76.7575C76.2484 76.7481 75.634 76.5258 75.6323 76.353C75.6323 76.2604 76.2556 76.1845 76.2189 75.9669C76.1921 75.7783 76.5057 75.5611 76.2189 75.2578L75.3353 75.0355L76.2548 74.6173C76.2589 74.3523 76.2469 74.0873 76.2189 73.8237H75.6323L76.2189 73.2337C76.1835 73.1654 76.4284 72.7255 75.9629 72.5015C75.8115 72.4285 75.5183 72.5868 75.1378 72.5015C74.9445 72.4588 76.1332 72.19 75.8174 72.0168L75.631 71.495H74.6415C74.5562 71.2249 75.3703 70.9915 75.1373 70.7069C74.6027 70.0512 73.6905 69.9893 73.1994 69.9389C72.393 69.8583 68.8867 71.8163 68.8867 71.8163C68.8867 71.8163 66.9005 92.5476 66.9522 95.4656C66.9496 96.0957 66.9586 95.9993 67.599 96.4076C68.2526 96.8573 73.4554 97.8455 74.0468 97.6283Z" fill="#CEDEE7"/>
<ellipse cx="35.767" cy="63.5497" rx="5.91445" ry="3.16843" transform="rotate(21 35.767 63.5497)" fill="#FFE99F"/>
<path d="M39.3544 76.9712C38.99 76.2233 38.6691 75.4551 38.3932 74.6702C37.8918 73.2712 37.2911 72.0466 37.4442 71.5743C37.5974 71.102 38.0126 71.3405 38.1316 71.678C38.2506 72.0155 39.1526 74.11 39.5366 75.1417C39.8706 75.9527 40.2659 76.7372 40.7189 77.4883C40.4033 77.4008 40.0924 77.2972 39.7875 77.1777C39.526 77.0591 39.3544 76.9712 39.3544 76.9712Z" fill="#723846"/>
</g>
</svg>
