<svg width="161" height="161" viewBox="0 0 161 161" fill="none" xmlns="http://www.w3.org/2000/svg">
<path fill-rule="evenodd" clip-rule="evenodd" d="M60.9846 121.986C60.9846 121.986 8.90311 104.405 7.34517 93.6016C4.9003 76.6269 30.2177 81.6893 40.1572 63.8975C50.0968 46.1058 38.9554 33.6678 46.5058 23.0596C54.0562 12.4514 67.6843 16.3578 78.5856 24.3141C89.4868 32.2705 85.4688 37.8732 101.337 45.5237C117.205 53.1742 124.44 42.9688 137.324 52.8488C150.207 62.7289 145.08 74.6377 142.204 86.165C139.327 97.6922 138.855 99.9034 134.479 106.313C126.713 117.686 109.17 116.533 109.17 116.533L60.9846 121.986Z" fill="#DEEDF2"/>
<path fill-rule="evenodd" clip-rule="evenodd" d="M78.815 136.154C41.7867 136.154 11.7695 133.57 11.7695 130.383C11.7695 127.195 41.7867 124.612 78.815 124.612C115.843 124.612 145.86 127.195 145.86 130.383C145.86 133.57 115.843 136.154 78.815 136.154Z" fill="#DEEDF2"/>
<path fill-rule="evenodd" clip-rule="evenodd" d="M142.427 86.7599C142.427 61.5432 121.985 41.1011 96.7679 41.1011C71.5516 41.1011 51.1094 61.5432 51.1094 86.7599C51.1094 111.977 71.5516 132.419 96.7679 132.419C121.985 132.419 142.427 111.977 142.427 86.7599Z" fill="#34466B"/>
<path fill-rule="evenodd" clip-rule="evenodd" d="M133.898 59.6482C132.223 60.3538 129.938 62.0594 130.117 64.1272C130.416 67.5727 132.608 66.8635 132.21 68.7888C131.811 70.7144 129.419 70.7144 128.822 72.7413C128.223 74.7681 126.928 79.2275 128.722 81.3556C130.515 83.4841 132.907 81.6597 134.003 83.2812C135.1 84.9027 135.498 86.9296 137.492 86.6255C138.419 86.4842 140.815 86.2231 142.764 85.1373C142.817 76.1276 138.82 66.5853 133.898 59.6482ZM87.0773 72.9818C85.9414 73.3581 85.7122 74.5474 87.0773 74.9649C88.4425 75.3821 90.2278 74.9649 90.1228 74.2343C90.0179 73.5036 88.0224 72.6686 87.0773 72.9818ZM76.8293 71.1332C76.7302 72.2041 84.3645 74.6669 84.3645 73.489C84.3645 72.3111 80.002 70.4909 79.1097 70.3839C77.5208 70.1931 76.9283 70.0626 76.8293 71.1332ZM101.635 53.0151C101.838 52.329 100.319 51.5447 99.9141 51.3484C98.4542 50.6415 98.1929 52.5252 99.0031 53.4075C99.8129 54.2898 101.433 53.7017 101.635 53.0151ZM111.336 92.7387C111.336 92.7387 109.626 87.6085 105.704 87.0049C101.781 86.4015 100.675 87.4072 100.675 87.4072L93.3323 80.9695C93.3323 80.9695 82.0677 83.4842 80.6594 83.1823C79.2512 82.8808 75.6304 82.6794 75.5299 80.6677C75.4291 78.6559 77.3404 76.5436 74.8258 74.9338C72.3114 73.3244 66.7796 74.5315 66.0755 73.5258C65.3714 72.5197 65.5727 67.3896 67.886 65.5792C70.1991 63.7684 74.9263 63.0642 76.3345 64.3721C77.7424 65.6797 76.5355 68.3956 78.0442 68.5967C79.553 68.798 78.1451 63.2655 79.9553 61.958C81.7658 60.6501 82.8723 60.9519 83.9784 59.8453C85.0848 58.7391 84.2802 57.2302 85.9899 56.5257C87.7 55.8218 94.841 55.6204 95.3441 53.7095C95.847 51.7982 90.9184 51.5969 91.2202 50.7922C91.5221 49.9875 97.8585 52.0997 98.16 49.7864C98.4621 47.4728 91.4216 43.5498 89.0074 44.3545C86.5935 45.1592 84.9843 50.5908 83.0733 49.9875C81.1622 49.3838 77.7424 46.2657 79.553 44.9578C81.3635 43.6503 84.9843 45.461 85.6884 43.8513C86.0174 43.0991 85.5553 42.1926 84.9693 41.4407C73.6659 43.8359 63.8418 50.233 57.0468 59.0803C56.8816 62.963 56.5891 72.3363 57.6267 72.0169C58.9341 71.6145 58.6326 62.2595 59.6382 63.7684C60.6442 65.2773 59.4372 70.8098 60.6442 72.9221C61.8511 75.0347 62.857 74.431 62.857 74.431C62.857 74.431 65.0696 76.8451 66.4778 75.9399C66.0755 76.7446 68.6903 80.5672 71.205 81.7742C73.7194 82.9813 77.5414 82.2771 79.2512 84.5907C80.9612 86.9043 80.2571 89.1175 80.2571 89.1175C80.2571 89.1175 77.4409 91.934 77.9438 95.4547C77.8429 95.5552 75.9322 94.5494 76.435 97.768C76.9378 100.987 86.1912 105.715 86.694 108.531C87.1968 111.348 86.1912 125.531 86.694 128.046C87.1968 130.561 88.6051 133.277 90.5161 132.673C92.4272 132.07 91.7231 129.555 91.7231 129.555L99.1659 121.608C99.1659 121.608 103.189 120.703 106.407 117.383C109.626 114.064 120.388 100.685 118.779 96.5612C117.17 92.4368 111.336 92.7387 111.336 92.7387Z" fill="#DEEDF2"/>
<path fill-rule="evenodd" clip-rule="evenodd" d="M111.389 92.5151C111.389 92.5151 109.678 87.3623 105.751 86.7559C101.825 86.1499 100.717 87.16 100.717 87.16L93.368 80.6938C93.368 80.6938 82.0923 83.2196 80.6827 82.9164C79.2731 82.6136 75.6488 82.4113 75.5482 80.3906C75.4473 78.3699 77.3605 76.2483 74.8434 74.6314C72.3266 73.0149 66.7894 74.2273 66.0846 73.2171C65.3798 72.2066 65.5813 67.0537 67.8969 65.2353C70.2122 63.4165 74.944 62.7092 76.3536 64.0229C77.7629 65.3362 76.5548 68.0643 78.065 68.2662C79.5752 68.4684 78.1659 62.9114 79.9779 61.598C81.7902 60.2843 82.8977 60.5875 84.0049 59.4761C85.1124 58.3649 84.307 56.8493 86.0184 56.1417C87.7302 55.4347 94.8782 55.2324 95.3818 53.313C95.8851 51.3933 90.9518 51.1911 91.2539 50.3828C91.556 49.5745 97.8986 51.6962 98.2004 49.3726C98.4692 47.3046 92.9214 43.96 89.9926 43.8169C89.6517 43.8548 89.3121 43.8966 88.9735 43.9426C86.5938 44.8264 84.9945 50.1751 83.0989 49.5745C81.8594 49.1816 79.9869 47.7281 79.3148 46.3957C69.8617 49.9854 61.9576 56.7339 56.8793 65.3591C56.8696 68.7674 57.0221 71.8886 57.6276 71.7015C58.9362 71.2974 58.6345 61.9009 59.6411 63.4165C60.648 64.9321 59.4399 70.4891 60.648 72.6107C61.8561 74.7327 62.863 74.1263 62.863 74.1263C62.863 74.1263 65.0777 76.5512 66.4873 75.6419C66.0846 76.4502 68.702 80.2897 71.2191 81.5021C73.7359 82.7145 77.5617 82.0072 79.2731 84.3311C80.9848 86.655 80.28 88.8779 80.28 88.8779C80.28 88.8779 77.4611 91.7068 77.9644 95.2431C77.8635 95.3441 75.9509 94.3339 76.4542 97.5667C76.9575 100.8 86.2199 105.549 86.7232 108.378C87.2265 111.207 86.2199 125.453 86.7232 127.979C86.9984 129.359 87.5443 130.798 88.2943 131.722C89.3172 131.877 90.3514 131.996 91.3958 132.079C92.2095 131.124 91.7572 129.495 91.7572 129.495L99.2073 121.513C99.2073 121.513 103.234 120.603 106.456 117.269C109.678 113.935 120.45 100.497 118.839 96.3546C117.229 92.2119 111.389 92.5151 111.389 92.5151Z" fill="#DEEDF2"/>
<path fill-rule="evenodd" clip-rule="evenodd" d="M78.8078 12.8112C78.2504 8.28333 74.3914 4.77783 69.7142 4.77783C64.6541 4.77783 60.5518 8.8811 60.5518 13.9429C60.5518 14.7734 60.6622 15.578 60.8693 16.343C60.7915 16.344 60.7143 16.3468 60.6376 16.3512L60.5514 16.3441V16.357C57.927 16.5542 55.8584 18.747 55.8584 21.4229C55.8584 24.0988 57.927 26.2916 60.5514 26.4888V26.5039H93.9106V26.5034H93.9107C95.9555 26.5034 97.6133 24.8449 97.6133 22.7993C97.6133 20.7537 95.9555 19.0954 93.9107 19.0954H93.9106V19.0952L85.4589 18.3982C85.4975 18.1457 85.5175 17.8871 85.5175 17.6238C85.5175 14.8181 83.2438 12.5435 80.4389 12.5435C79.8683 12.5435 79.3197 12.6376 78.8078 12.8112Z" fill="#DEEDF2"/>
<path fill-rule="evenodd" clip-rule="evenodd" d="M39.0687 24.595C39.4766 21.2699 42.3002 18.6956 45.7226 18.6956C49.4251 18.6956 52.4267 21.7089 52.4267 25.4262C52.4267 26.036 52.346 26.627 52.1945 27.1887C52.2514 27.1895 52.3078 27.1915 52.3639 27.1948L52.4271 27.1896V27.199C54.3473 27.3438 55.8609 28.9542 55.8609 30.9193C55.8609 32.8844 54.3473 34.4947 52.4271 34.6395V34.6507H28.0179V34.6503H28.0178C26.5216 34.6503 25.3086 33.4323 25.3086 31.9301C25.3086 30.4278 26.5216 29.21 28.0178 29.21H28.0179V29.2099L34.2021 28.698C34.1738 28.5126 34.1592 28.3227 34.1592 28.1293C34.1592 26.0689 35.8228 24.3985 37.8752 24.3985C38.2927 24.3985 38.6941 24.4676 39.0687 24.595Z" fill="#EAF7FE"/>
<path fill-rule="evenodd" clip-rule="evenodd" d="M69.6109 54.0007C68.0172 54.0007 66.7253 52.8608 66.7253 51.4547C66.7253 50.0486 68.0172 48.9087 69.6109 48.9087C71.2043 48.9087 72.4963 50.0486 72.4963 51.4547C72.4963 52.8608 71.2043 54.0007 69.6109 54.0007ZM73.854 51.3824C73.854 49.0788 71.9542 47.2114 69.6107 47.2114C67.2671 47.2114 65.3672 49.0788 65.3672 51.3824C65.3672 51.462 65.37 51.541 65.3745 51.6194H65.3672C65.3672 54.7952 69.6107 59.7718 69.6107 59.7718C69.6107 59.7718 73.854 54.7952 73.854 51.6194H73.8467C73.8512 51.541 73.854 51.462 73.854 51.3824Z" fill="#EC0000"/>
<path fill-rule="evenodd" clip-rule="evenodd" d="M88.1095 90.6632C86.7971 90.6632 85.7331 89.6752 85.7331 88.4566C85.7331 87.238 86.7971 86.2501 88.1095 86.2501C89.4217 86.2501 90.4857 87.238 90.4857 88.4566C90.4857 89.6752 89.4217 90.6632 88.1095 90.6632ZM91.5039 88.3869C91.5039 86.4569 89.9081 84.8923 87.9395 84.8923C85.9709 84.8923 84.375 86.4569 84.375 88.3869C84.375 88.4536 84.3774 88.5198 84.3811 88.5855H84.375C84.375 91.2463 87.9395 95.4159 87.9395 95.4159C87.9395 95.4159 91.5039 91.2463 91.5039 88.5855H91.4978C91.5016 88.5198 91.5039 88.4536 91.5039 88.3869Z" fill="#EC0000"/>
<path fill-rule="evenodd" clip-rule="evenodd" d="M104.746 105.261C103.434 105.261 102.37 104.273 102.37 103.054C102.37 101.836 103.434 100.848 104.746 100.848C106.058 100.848 107.122 101.836 107.122 103.054C107.122 104.273 106.058 105.261 104.746 105.261ZM108.141 102.985C108.141 101.055 106.545 99.49 104.576 99.49C102.608 99.49 101.012 101.055 101.012 102.985C101.012 103.051 101.014 103.117 101.018 103.183H101.012C101.012 105.844 104.576 110.014 104.576 110.014C104.576 110.014 108.141 105.844 108.141 103.183H108.134C108.138 103.117 108.141 103.051 108.141 102.985Z" fill="#EC0000"/>
<path fill-rule="evenodd" clip-rule="evenodd" d="M139.031 71.6532C137.719 71.6532 136.655 70.6652 136.655 69.4466C136.655 68.228 137.719 67.24 139.031 67.24C140.344 67.24 141.408 68.228 141.408 69.4466C141.408 70.6652 140.344 71.6532 139.031 71.6532ZM142.426 69.3769C142.426 67.4469 140.83 65.8823 138.861 65.8823C136.893 65.8823 135.297 67.4469 135.297 69.3769C135.297 69.4436 135.299 69.5098 135.303 69.5755H135.297C135.297 72.2363 138.861 76.4059 138.861 76.4059C138.861 76.4059 142.426 72.2363 142.426 69.5755H142.42C142.423 69.5098 142.426 69.4436 142.426 69.3769Z" fill="#EC0000"/>
<path fill-rule="evenodd" clip-rule="evenodd" d="M63.5641 44.5697C58.438 47.8363 56.7357 54.4192 59.5151 59.619L37.8174 72.7943C37.0321 73.271 36.7782 74.2976 37.2502 75.0875C37.7219 75.8771 38.7409 76.131 39.5262 75.6542C39.5515 75.6387 39.5808 75.6197 39.6052 75.6031L60.5423 61.2079C64.1442 65.8792 70.875 67.0835 75.9989 63.8183C81.3958 60.3791 82.9976 53.2636 79.5694 47.9566C76.141 42.6497 68.961 41.1304 63.5641 44.5697ZM77.9739 48.9521C80.8603 53.4097 79.5134 59.388 74.9715 62.2786C70.4295 65.1694 64.3858 63.8944 61.4996 59.4367C58.6131 54.9791 59.9601 49.0008 64.5021 46.1102C69.044 43.2195 75.0875 44.4943 77.9739 48.9521Z" fill="#723846"/>
<path fill-rule="evenodd" clip-rule="evenodd" d="M25.8612 58.9849C24.5262 58.0739 23.6269 56.5618 23.5662 54.8243C23.465 51.9253 25.7365 49.4893 28.6356 49.3881C31.3124 49.2946 33.5944 51.2241 34.0082 53.8026C34.0741 54.0704 34.1248 54.3418 34.1626 54.6136L34.1627 54.614L34.1638 54.62L34.164 54.6221C34.1753 54.7034 34.1854 54.7847 34.1944 54.8659L34.6977 58.9066L33.8839 59.211L33.8754 59.2132L33.8753 59.2132C33.8573 59.2846 33.8474 59.3231 33.8474 59.3231L33.8441 59.8722L33.8395 60.8985C33.8373 61.2381 33.778 61.5729 33.6654 61.8896C33.5869 62.1132 33.4802 62.3284 33.3477 62.5293C33.1921 62.765 33.0039 62.9783 32.7918 63.1602C32.6813 63.2557 32.5633 63.3415 32.4396 63.4186C32.3742 63.4595 32.3088 63.4973 32.2407 63.533L32.2403 63.5332L32.8176 69.9233C32.8176 69.9233 30.9683 70.5517 28.906 70.1763C27.6595 69.9517 26.334 69.3577 25.2925 68.0388C25.2925 68.0388 26.2912 62.8974 25.8612 58.9849Z" fill="#FFC4B8"/>
<path fill-rule="evenodd" clip-rule="evenodd" d="M28.9233 70.0984C27.6742 69.8743 26.3463 69.2811 25.3036 67.9628C25.3036 67.9628 26.3919 62.4535 25.8235 58.4977C25.8235 58.4977 28.967 65.4529 28.9233 70.0984ZM33.884 59.2336C33.5978 59.3284 33.3054 59.112 33.314 58.8119L33.3695 56.8771L33.884 59.2336Z" fill="#F4A48D"/>
<path fill-rule="evenodd" clip-rule="evenodd" d="M26.9457 49.7917C29.2519 49.6301 28.8992 47.6569 28.8992 47.6569C31.373 47.6517 32.4588 48.5457 32.4588 48.5457C34.499 50.0544 33.8224 53.2478 33.8224 53.2478C33.4361 50.8693 29.8122 52.0157 28.388 52.3056C27.8227 52.9001 28.0975 54.2934 27.842 55.4848C27.8374 55.5064 27.2566 57.1271 27.2566 57.1271L27.2559 57.129L27.2258 57.2964C27.2143 57.2696 27.2024 57.2428 27.19 57.216C26.7731 56.3179 25.9698 55.8061 25.3963 56.0716C24.8224 56.3375 24.6955 57.2808 25.1125 58.1789C25.2577 58.4918 25.6061 58.7523 25.819 58.955C26.0254 60.2879 26.0389 61.5321 25.9635 62.6033L25.3672 62.65L22.8637 52.5273C22.6563 51.1678 23.2432 50.5236 24.2068 50.191C24.957 49.9319 25.9356 49.8625 26.9457 49.7917Z" fill="#DEEDF2"/>
<path fill-rule="evenodd" clip-rule="evenodd" d="M36.3958 78.8824L39.2764 73.9687L41.5312 73.303L38.7873 83.4946L36.0388 85.4688L32.4599 83.8329L30.9598 74.4939L34.5659 73.5462L36.3958 78.8824Z" fill="#CC0000"/>
<path fill-rule="evenodd" clip-rule="evenodd" d="M35.302 88.3396L36.1763 106.214L33.7519 128.933L31.2271 129.142L29.2328 108.248L24.056 87.8066L35.302 88.3396Z" fill="#34466B"/>
<path fill-rule="evenodd" clip-rule="evenodd" d="M29.6675 89.4412L27.8379 107.243L22.7206 129.318L20.1931 129.144L20.6749 108.141L18.6385 87.1519L29.6675 89.4412Z" fill="#34466B"/>
<path fill-rule="evenodd" clip-rule="evenodd" d="M19.0711 76.9728C19.6017 75.5635 21.1739 72.0934 22.0652 70.8628C24.2812 67.8024 23.8553 67.3986 30.9493 67.7243C31.5462 67.7517 32.0409 67.849 32.4663 68.0061C33.02 68.3689 33.9567 69.6131 34.6593 73.7882C34.6282 74.686 34.5501 77.3526 34.5777 80.8584C34.6005 83.7533 35.6405 88.876 37.6975 96.2265C34.0871 96.1301 32.1785 96.0785 31.9715 96.0716C21.915 95.3025 16.8653 94.8671 16.8222 94.7657C16.4558 94.0624 16.4211 93.3638 16.4211 93.3636C15.5585 88.6304 17.8771 80.3362 17.8774 80.335C18.3446 78.9834 18.7943 77.7083 19.0711 76.9728Z" fill="#EC0000"/>
<path fill-rule="evenodd" clip-rule="evenodd" d="M23.4567 68.8468L30.4998 81.705L36.0239 75.1729L38.2122 77.327C35.3777 82.4394 33.5259 85.4389 32.6568 86.3254C31.3531 87.6552 31.2757 87.9497 27.3807 84.1013C24.784 81.5356 22.6515 77.7405 20.9831 72.7159C21.3861 71.8152 21.7527 71.1068 22.0828 70.5905C22.4128 70.0742 22.8708 69.493 23.4567 68.8468Z" fill="#EC0000"/>
<path fill-rule="evenodd" clip-rule="evenodd" d="M36.4473 75.5896L36.3147 73.4022L38.0284 72.051L38.7207 72.2926L37.7742 73.3563L42.1077 73.2049L41.9795 74.2609L37.7535 76.8753L36.4473 75.5896Z" fill="#FFC4B8"/>
<path fill-rule="evenodd" clip-rule="evenodd" d="M33.8021 128.51L31.1383 128.188L31.1218 131.45L34.9083 131.66L36.4615 131.43L35.8953 129.938L35.324 129.58L33.8021 128.51Z" fill="#1BB3BC"/>
<path fill-rule="evenodd" clip-rule="evenodd" d="M22.9261 128.344L24.8187 130.248L24.5936 131.678L19.6289 131.04L20.1948 128.57L22.9261 128.344Z" fill="#1BB3BC"/>
</svg>
