<svg width="197" height="193" viewBox="0 0 197 193" fill="none" xmlns="http://www.w3.org/2000/svg">
<path fill-rule="evenodd" clip-rule="evenodd" d="M74.4929 147.771C74.4929 147.771 10.6791 126.23 8.77021 112.993C5.77458 92.1942 36.7952 98.397 48.9738 76.5973C61.1524 54.7977 47.5013 39.5578 56.7525 26.5599C66.0038 13.562 82.7019 18.3484 96.0588 28.097C109.416 37.8457 104.493 44.7105 123.935 54.0844C143.378 63.4584 152.243 50.954 168.029 63.0597C183.815 75.1654 177.532 89.7569 174.008 103.881C170.484 118.005 169.905 120.714 164.543 128.567C155.028 142.502 133.533 141.09 133.533 141.09L74.4929 147.771Z" fill="#DEEDF2"/>
<path fill-rule="evenodd" clip-rule="evenodd" d="M96.3362 165.13C50.9666 165.13 14.1875 161.965 14.1875 158.06C14.1875 154.154 50.9666 150.988 96.3362 150.988C141.706 150.988 178.485 154.154 178.485 158.06C178.485 161.965 141.706 165.13 96.3362 165.13Z" fill="#DEEDF2"/>
<path fill-rule="evenodd" clip-rule="evenodd" d="M174.279 104.61C174.279 73.7126 149.232 48.6655 118.335 48.6655C87.4379 48.6655 62.3906 73.7126 62.3906 104.61C62.3906 135.507 87.4379 160.554 118.335 160.554C149.232 160.554 174.279 135.507 174.279 104.61Z" fill="#34466B"/>
<path fill-rule="evenodd" clip-rule="evenodd" d="M163.83 71.3906C161.777 72.2552 158.977 74.345 159.197 76.8786C159.564 81.1003 162.25 80.2314 161.761 82.5904C161.273 84.9497 158.342 84.9497 157.61 87.4332C156.877 89.9166 155.29 95.3806 157.488 97.9881C159.685 100.596 162.616 98.3607 163.959 100.347C165.303 102.334 165.791 104.818 168.233 104.445C169.369 104.272 172.306 103.952 174.693 102.622C174.758 91.5824 169.86 79.8904 163.83 71.3906ZM106.464 87.7279C105.072 88.189 104.791 89.6462 106.464 90.1577C108.137 90.6688 110.324 90.1577 110.196 89.2625C110.067 88.3672 107.622 87.3442 106.464 87.7279ZM93.9074 85.4628C93.786 86.775 103.14 89.7926 103.14 88.3494C103.14 86.9061 97.7949 84.6759 96.7016 84.5448C94.7548 84.311 94.0288 84.1511 93.9074 85.4628ZM124.299 63.2633C124.547 62.4227 122.687 61.4616 122.191 61.2212C120.402 60.355 120.082 62.6631 121.074 63.7442C122.067 64.8252 124.051 64.1046 124.299 63.2633ZM136.185 111.935C136.185 111.935 134.091 105.65 129.284 104.91C124.478 104.171 123.122 105.403 123.122 105.403L114.126 97.515C114.126 97.515 100.324 100.596 98.5984 100.226C96.873 99.8568 92.4366 99.6101 92.3134 97.1451C92.1899 94.6802 94.5318 92.092 91.4507 90.1197C88.3699 88.1477 81.592 89.6267 80.7292 88.3944C79.8665 87.1617 80.1132 80.8759 82.9476 78.6577C85.7817 76.439 91.5738 75.5762 93.2993 77.1787C95.0244 78.7808 93.5456 82.1086 95.3942 82.3549C97.2428 82.6016 95.5177 75.8228 97.7357 74.2207C99.9541 72.6182 101.31 72.988 102.665 71.6322C104.021 70.2768 103.035 68.4279 105.13 67.5647C107.225 66.7023 115.975 66.4556 116.591 64.1141C117.207 61.7723 111.168 61.5256 111.538 60.5396C111.908 59.5536 119.672 62.1418 120.041 59.3073C120.412 56.4725 111.785 51.6657 108.827 52.6517C105.869 53.6377 103.898 60.2929 101.556 59.5536C99.2145 58.814 95.0244 54.9936 97.2428 53.391C99.4612 51.7889 103.898 54.0076 104.76 52.0352C105.163 51.1135 104.597 50.0028 103.879 49.0815C90.0295 52.0164 77.9924 59.8545 69.6666 70.6948C69.4643 75.4522 69.1058 86.937 70.3772 86.5456C71.9791 86.0526 71.6097 74.5902 72.8419 76.439C74.0744 78.2878 72.5956 85.0666 74.0744 87.6547C75.5532 90.2432 76.7857 89.5035 76.7857 89.5035C76.7857 89.5035 79.4967 92.4615 81.2222 91.3524C80.7292 92.3384 83.9331 97.022 87.0143 98.501C90.095 99.98 94.7781 99.1171 96.873 101.952C98.9682 104.787 98.1055 107.498 98.1055 107.498C98.1055 107.498 94.655 110.949 95.271 115.263C95.1475 115.386 92.8064 114.154 93.4224 118.098C94.0385 122.042 105.376 127.835 105.992 131.286C106.609 134.737 105.376 152.115 105.992 155.196C106.609 158.278 108.334 161.605 110.676 160.866C113.017 160.126 112.154 157.045 112.154 157.045L121.274 147.309C121.274 147.309 126.203 146.199 130.147 142.132C134.091 138.064 147.277 121.672 145.305 116.619C143.333 111.566 136.185 111.935 136.185 111.935Z" fill="#CEDEE7"/>
<path fill-rule="evenodd" clip-rule="evenodd" d="M136.251 111.662C136.251 111.662 134.154 105.348 129.343 104.605C124.532 103.862 123.175 105.1 123.175 105.1L114.17 97.1773C114.17 97.1773 100.354 100.272 98.627 99.9006C96.8999 99.5295 92.4591 99.2817 92.3359 96.8058C92.2122 94.3299 94.5564 91.7304 91.4723 89.7492C88.3885 87.7685 81.6039 89.2541 80.7404 88.0163C79.8768 86.7782 80.1237 80.4645 82.9609 78.2364C85.7978 76.0079 91.5955 75.1413 93.3227 76.7509C95.0494 78.3601 93.5692 81.7027 95.4196 81.9501C97.27 82.1979 95.5433 75.3891 97.7634 73.7798C99.984 72.1702 101.341 72.5417 102.698 71.1799C104.055 69.8184 103.068 67.9614 105.165 67.0943C107.262 66.2281 116.02 65.9803 116.637 63.6285C117.254 61.2763 111.209 61.0285 111.579 60.0381C111.95 59.0478 119.721 61.6474 120.091 58.8004C120.42 56.2666 113.623 52.1685 110.034 51.9932C109.616 52.0396 109.2 52.0909 108.785 52.1472C105.87 53.2301 103.91 59.7837 101.588 59.0478C100.069 58.5664 97.7744 56.7854 96.9509 55.1529C85.3684 59.5512 75.6837 67.82 69.4615 78.3881C69.4495 82.5642 69.6363 86.3886 70.3782 86.1593C71.9817 85.6641 71.612 74.1509 72.8453 76.0079C74.079 77.865 72.5988 84.6738 74.079 87.2733C75.5593 89.8733 76.793 89.1304 76.793 89.1304C76.793 89.1304 79.5066 92.1014 81.2338 90.9874C80.7404 91.9777 83.9474 96.6821 87.0315 98.1677C90.1153 99.6532 94.8029 98.7865 96.8999 101.634C98.9972 104.481 98.1336 107.205 98.1336 107.205C98.1336 107.205 94.6797 110.671 95.2964 115.004C95.1727 115.128 92.8293 113.89 93.4459 117.851C94.0626 121.813 105.412 127.631 106.028 131.098C106.645 134.564 105.412 152.02 106.028 155.114C106.365 156.805 107.034 158.568 107.953 159.701C109.207 159.89 110.474 160.036 111.753 160.138C112.75 158.967 112.196 156.971 112.196 156.971L121.325 147.192C121.325 147.192 126.259 146.077 130.206 141.992C134.154 137.906 147.353 121.441 145.379 116.366C143.405 111.29 136.251 111.662 136.251 111.662Z" fill="#DEEDF2"/>
<path fill-rule="evenodd" clip-rule="evenodd" d="M96.3332 14.0027C95.6502 8.45485 90.9219 4.15967 85.1911 4.15967C78.9911 4.15967 73.9648 9.18727 73.9648 15.3894C73.9648 16.4069 74.1 17.3928 74.3537 18.3301C74.2584 18.3313 74.1639 18.3347 74.0699 18.3402L73.9642 18.3315V18.3472C70.7487 18.5889 68.2141 21.2756 68.2141 24.5543C68.2141 27.833 70.7487 30.5198 73.9642 30.7614V30.78H114.838V30.7794H114.838C117.344 30.7794 119.375 28.7472 119.375 26.2408C119.375 23.7344 117.344 21.7025 114.838 21.7025H114.838V21.7023L104.483 20.8483C104.53 20.5389 104.554 20.2221 104.554 19.8995C104.554 16.4617 101.769 13.6747 98.3318 13.6747C97.6327 13.6747 96.9605 13.79 96.3332 14.0027Z" fill="#DEEDF2"/>
<path fill-rule="evenodd" clip-rule="evenodd" d="M47.6411 28.4413C48.1408 24.3672 51.6006 21.2129 55.7938 21.2129C60.3304 21.2129 64.0083 24.905 64.0083 29.4597C64.0083 30.207 63.9093 30.931 63.7237 31.6193C63.7934 31.6202 63.8626 31.6227 63.9313 31.6267L64.0087 31.6203V31.6319C66.3615 31.8093 68.2161 33.7824 68.2161 36.1902C68.2161 38.598 66.3615 40.5711 64.0087 40.7486V40.7622H34.1009V40.7617H34.1008C32.2675 40.7617 30.7812 39.2694 30.7812 37.4287C30.7812 35.5881 32.2675 34.0959 34.1008 34.0959H34.1009V34.0958L41.6781 33.4686C41.6435 33.2414 41.6256 33.0087 41.6256 32.7718C41.6256 30.2472 43.664 28.2005 46.1787 28.2005C46.6903 28.2005 47.1821 28.2852 47.6411 28.4413Z" fill="#EAF7FE"/>
<path fill-rule="evenodd" clip-rule="evenodd" d="M85.059 64.4711C83.1064 64.4711 81.5234 63.0743 81.5234 61.3515C81.5234 59.6287 83.1064 58.2319 85.059 58.2319C87.0114 58.2319 88.5945 59.6287 88.5945 61.3515C88.5945 63.0743 87.0114 64.4711 85.059 64.4711ZM90.2579 61.2629C90.2579 58.4404 87.9302 56.1523 85.0588 56.1523C82.1873 56.1523 79.8594 58.4404 79.8594 61.2629C79.8594 61.3604 79.8629 61.4572 79.8683 61.5533H79.8594C79.8594 65.4445 85.0588 71.5422 85.0588 71.5422C85.0588 71.5422 90.2579 65.4445 90.2579 61.5533H90.249C90.2546 61.4572 90.2579 61.3604 90.2579 61.2629Z" fill="#2A8FEC"/>
<path fill-rule="evenodd" clip-rule="evenodd" d="M107.732 109.393C106.124 109.393 104.82 108.182 104.82 106.689C104.82 105.196 106.124 103.985 107.732 103.985C109.34 103.985 110.644 105.196 110.644 106.689C110.644 108.182 109.34 109.393 107.732 109.393ZM111.891 106.604C111.891 104.239 109.936 102.322 107.524 102.322C105.112 102.322 103.156 104.239 103.156 106.604C103.156 106.685 103.159 106.766 103.164 106.847H103.156C103.156 110.107 107.524 115.216 107.524 115.216C107.524 115.216 111.891 110.107 111.891 106.847H111.884C111.888 106.766 111.891 106.685 111.891 106.604Z" fill="#2A8FEC"/>
<path fill-rule="evenodd" clip-rule="evenodd" d="M128.111 127.278C126.503 127.278 125.199 126.068 125.199 124.575C125.199 123.082 126.503 121.871 128.111 121.871C129.719 121.871 131.022 123.082 131.022 124.575C131.022 126.068 129.719 127.278 128.111 127.278ZM132.27 124.489C132.27 122.125 130.315 120.208 127.903 120.208C125.491 120.208 123.535 122.125 123.535 124.489C123.535 124.571 123.538 124.652 123.543 124.733H123.535C123.535 127.993 127.903 133.102 127.903 133.102C127.903 133.102 132.27 127.993 132.27 124.733H132.262C132.267 124.652 132.27 124.571 132.27 124.489Z" fill="#2A8FEC"/>
<path fill-rule="evenodd" clip-rule="evenodd" d="M170.123 86.1001C168.515 86.1001 167.211 84.8896 167.211 83.3965C167.211 81.9034 168.515 80.6929 170.123 80.6929C171.73 80.6929 173.034 81.9034 173.034 83.3965C173.034 84.8896 171.73 86.1001 170.123 86.1001ZM174.282 83.3111C174.282 80.9463 172.326 79.0293 169.914 79.0293C167.502 79.0293 165.547 80.9463 165.547 83.3111C165.547 83.3928 165.55 83.4739 165.554 83.5544H165.547C165.547 86.8146 169.914 91.9235 169.914 91.9235C169.914 91.9235 174.282 86.8146 174.282 83.5544H174.274C174.279 83.4739 174.282 83.3928 174.282 83.3111Z" fill="#2A8FEC"/>
<path fill-rule="evenodd" clip-rule="evenodd" d="M77.5512 52.9147C71.3035 56.9171 69.2654 64.9833 72.6994 71.3549L46.2501 87.4979C45.2928 88.0819 44.9891 89.3399 45.5717 90.3078C46.1539 91.2754 47.4019 91.5865 48.3591 91.0022C48.39 90.9832 48.4257 90.96 48.4553 90.9396L73.9662 73.3019C78.4026 79.026 86.6426 80.5021 92.8876 76.5014C99.4653 72.2874 101.377 63.5687 97.1487 57.0657C92.9204 50.5628 84.1288 48.7008 77.5512 52.9147ZM95.2425 58.2868C98.7954 63.7509 97.1894 71.0769 91.6622 74.6177C86.1352 78.1588 78.7478 76.5938 75.1951 71.1296C71.642 65.6655 73.2483 58.3394 78.7754 54.7986C84.3025 51.2578 91.6896 52.8224 95.2425 58.2868Z" fill="#732645"/>
<path fill-rule="evenodd" clip-rule="evenodd" d="M31.4625 70.5773C29.8268 69.4612 28.7249 67.6085 28.6505 65.4795C28.5265 61.9274 31.3097 58.9427 34.8618 58.8187C38.1417 58.7042 40.9377 61.0683 41.4447 64.2276C41.5255 64.5558 41.5876 64.8883 41.6339 65.2213L41.634 65.2219L41.6354 65.2292L41.6357 65.2318C41.6494 65.3314 41.6618 65.431 41.6729 65.5305L42.2896 70.4814L41.2924 70.8544L41.282 70.8571L41.2819 70.8571C41.2599 70.9445 41.2477 70.9918 41.2477 70.9918L41.2437 71.6646L41.238 72.922C41.2354 73.3381 41.1627 73.7483 41.0247 74.1365C40.9285 74.4104 40.7978 74.674 40.6355 74.9202C40.4449 75.2091 40.2142 75.4703 39.9543 75.6933C39.8189 75.8102 39.6744 75.9154 39.5228 76.0098C39.4426 76.06 39.3625 76.1063 39.2791 76.15L39.2786 76.1503L39.9859 83.9798C39.9859 83.9798 37.72 84.7498 35.1932 84.2898C33.6659 84.0146 32.0417 83.2868 30.7657 81.6708C30.7657 81.6708 31.9893 75.3712 31.4625 70.5773Z" fill="#FFC4B8"/>
<path fill-rule="evenodd" clip-rule="evenodd" d="M35.2134 84.1961C33.6861 83.9209 32.062 83.1931 30.7859 81.5771C30.7859 81.5771 32.1116 74.8264 31.413 69.9786C31.413 69.9786 35.2625 78.5035 35.2134 84.1961ZM41.2915 70.8822C40.942 70.9981 40.5845 70.7328 40.5948 70.3651L40.6607 67.9943L41.2915 70.8822Z" fill="#F4A48D"/>
<path fill-rule="evenodd" clip-rule="evenodd" d="M32.7905 59.3133C35.6161 59.1152 35.1839 56.6976 35.1839 56.6976C38.215 56.6911 39.5454 57.7865 39.5454 57.7865C42.0452 59.6351 41.2162 63.5479 41.2162 63.5479C40.7429 60.6336 36.3026 62.0382 34.5576 62.3934C33.8649 63.1218 34.2017 64.829 33.8886 66.2888C33.8829 66.3153 33.1713 68.3011 33.1713 68.3011L33.1705 68.3034L33.1336 68.5085C33.1196 68.4756 33.1049 68.4428 33.0897 68.41C32.5789 67.3095 31.5947 66.6825 30.892 67.0078C30.1888 67.3336 30.0333 68.4894 30.5442 69.5898C30.7221 69.9732 31.149 70.2924 31.4099 70.5407C31.6628 72.1738 31.6794 73.6984 31.587 75.0109L30.8563 75.0681L27.7888 62.6651C27.5348 60.9994 28.2538 60.21 29.4345 59.8025C30.3537 59.4851 31.5528 59.3999 32.7905 59.3133Z" fill="#CEDEE7"/>
<path fill-rule="evenodd" clip-rule="evenodd" d="M44.3639 94.9573L47.8934 88.9368L50.6562 88.1211L47.2942 100.609L43.9265 103.028L39.5414 101.023L37.7034 89.5803L42.1219 88.4191L44.3639 94.9573Z" fill="#2274C0"/>
<path fill-rule="evenodd" clip-rule="evenodd" d="M43.0303 106.545L44.1016 128.446L41.1311 156.282L38.0375 156.539L35.5939 130.939L29.251 105.892L43.0303 106.545Z" fill="#34466B"/>
<path fill-rule="evenodd" clip-rule="evenodd" d="M36.1221 107.895L33.8803 129.707L27.6102 156.754L24.5135 156.542L25.1038 130.807L22.6086 105.09L36.1221 107.895Z" fill="#34466B"/>
<path fill-rule="evenodd" clip-rule="evenodd" d="M23.1418 92.6176C23.7919 90.8909 25.7183 86.6391 26.8103 85.1312C29.5256 81.3815 29.0037 80.8866 37.6958 81.2857C38.4271 81.3193 39.0332 81.4385 39.5544 81.6311C40.2329 82.0756 41.3806 83.6 42.2415 88.7156C42.2033 89.8157 42.1077 93.083 42.1415 97.3785C42.1695 100.926 43.4437 107.202 45.9641 116.209C41.5404 116.09 39.2018 116.027 38.9482 116.019C26.6263 115.076 20.439 114.543 20.3863 114.419C19.9373 113.557 19.8948 112.701 19.8947 112.701C18.8378 106.901 21.6787 96.7387 21.6791 96.7373C22.2516 95.0811 22.8026 93.5188 23.1418 92.6176Z" fill="#2A8FEC"/>
<path fill-rule="evenodd" clip-rule="evenodd" d="M28.512 82.6614L37.1417 98.4161L43.9102 90.4125L46.5915 93.0518C43.1185 99.3159 40.8495 102.991 39.7846 104.077C38.1872 105.707 38.0924 106.068 33.32 101.352C30.1384 98.2086 27.5254 93.5585 25.4812 87.402C25.975 86.2984 26.4242 85.4304 26.8286 84.7978C27.233 84.1653 27.7941 83.4531 28.512 82.6614Z" fill="#2A8FEC"/>
<path fill-rule="evenodd" clip-rule="evenodd" d="M44.4285 90.9229L44.266 88.2427L46.3658 86.5872L47.2139 86.8832L46.0542 88.1864L51.364 88.001L51.2069 89.2948L46.0289 92.4981L44.4285 90.9229Z" fill="#FFC4B8"/>
<path fill-rule="evenodd" clip-rule="evenodd" d="M41.1875 155.765L37.9236 155.37L37.9033 159.367L42.5428 159.624L44.4459 159.343L43.7522 157.514L43.0522 157.075L41.1875 155.765Z" fill="#1BB3BC"/>
<path fill-rule="evenodd" clip-rule="evenodd" d="M27.8629 155.562L30.1818 157.894L29.906 159.646L23.8229 158.864L24.5164 155.839L27.8629 155.562Z" fill="#1BB3BC"/>
</svg>
