<svg width="160" height="160" viewBox="0 0 160 160" fill="none" xmlns="http://www.w3.org/2000/svg">
<path fill-rule="evenodd" clip-rule="evenodd" d="M140.358 153.19C140.358 156.778 111.428 159.686 75.7414 159.686C40.0547 159.686 11.125 156.778 11.125 153.19C11.125 149.603 40.0547 146.694 75.7414 146.694C111.428 146.694 140.358 149.603 140.358 153.19Z" fill="#DEEDF2"/>
<path fill-rule="evenodd" clip-rule="evenodd" d="M138.055 88.1804C136.136 81.2945 142.237 81.0288 142.372 72.1562C142.426 68.5274 140.439 64.8316 135.655 63.1362C133.305 62.3034 130.962 61.7307 128.87 60.4059C124.103 57.3871 124.19 51.6427 122.889 46.7459C120.034 35.9908 109.043 27.4464 97.9187 27.7244C89.8991 27.9244 82.6487 28.1702 75.3375 34.9771C70.3347 39.635 67.0833 45.366 62.4388 50.1678C57.5201 55.2527 51.5265 57.6924 44.7965 59.3262C38.4316 60.8712 31.5077 62.7095 26.6362 67.3428C22.058 71.6967 22.7254 76.2506 24.6881 81.5967C26.8529 87.4918 22.1592 91.5025 17.2651 93.7983C13.1444 95.7309 6.24646 99.6623 6.02082 106.911C5.32303 129.364 19.5848 129.454 24.9021 131.588C73.8171 151.22 92.5891 136.078 113.33 136.384C134.006 136.689 145.858 111.685 145.14 104.322C144.228 94.972 139.396 92.9887 138.055 88.1804Z" fill="#DEEDF2"/>
<mask id="mask0_1483_87253" style="mask-type:luminance" maskUnits="userSpaceOnUse" x="0" y="-1" width="114" height="110">
<path fill-rule="evenodd" clip-rule="evenodd" d="M0 49.5488L38.957 -0.313799L113.784 58.1474L74.8269 108.01L0 49.5488Z" fill="white"/>
</mask>
<g mask="url(#mask0_1483_87253)">
<path fill-rule="evenodd" clip-rule="evenodd" d="M13.9665 60.0026C20.3287 66.3742 32.0988 74.3387 53.0939 78.5448C74.0889 82.7513 88.0188 79.9358 96.3442 76.5067C102.295 74.0562 106.697 68.5329 108.022 61.9151L108.763 58.2189C109.364 55.217 107.577 52.328 104.771 51.7656L87.1904 48.2437C84.3841 47.6813 81.6218 49.6591 81.0203 52.6609L79.986 57.8253C79.6447 59.5271 78.5174 60.9584 76.9857 61.5844C69.1791 64.7732 56.3935 62.0746 56.3935 62.0746C56.3935 62.0746 43.5553 59.6394 37.5801 53.6894C36.4071 52.5218 35.9181 50.7666 36.2594 49.0648L37.2941 43.9003C37.8954 40.8984 36.1081 38.0094 33.3021 37.4472L15.7214 33.9246C12.9152 33.3627 10.1531 35.3403 9.55156 38.342L8.81122 42.0384C7.48528 48.6562 9.41921 55.4485 13.9665 60.0026Z" fill="#9BC3D3"/>
</g>
<mask id="mask1_1483_87253" style="mask-type:luminance" maskUnits="userSpaceOnUse" x="44" y="32" width="70" height="71">
<path fill-rule="evenodd" clip-rule="evenodd" d="M44.957 76.603L79.3435 32.5904L113.128 58.986L78.742 102.999L44.957 76.603Z" fill="white"/>
</mask>
<g mask="url(#mask1_1483_87253)">
<path fill-rule="evenodd" clip-rule="evenodd" d="M53.0935 78.5446C74.0887 82.7507 88.0186 79.9353 96.3443 76.5063C102.295 74.0559 106.697 68.5325 108.022 61.915L108.763 58.2186C108.954 57.2662 108.881 56.3345 108.635 55.4752C94.1093 82.3796 45.8639 76.7124 44.957 76.603C47.5066 77.3103 50.2046 77.9657 53.0935 78.5446Z" fill="#CEDEE7"/>
</g>
<path fill-rule="evenodd" clip-rule="evenodd" d="M45.9263 74.1606L40.7062 76.2166L32.1721 83.2878L28.2704 70.6084L23.5156 71.4618L26.5638 86.9453L31.5623 91.4565L45.9488 83.5317L45.9263 74.1606Z" fill="#34466B"/>
<path fill-rule="evenodd" clip-rule="evenodd" d="M74.2539 82.1913L76.2675 80.209L79.4428 80.2841L79.8052 81.8945L75.007 83.9673L74.2539 82.1913Z" fill="#FFC4B8"/>
<path fill-rule="evenodd" clip-rule="evenodd" d="M41.0716 110.871L40.6523 115.015L44.364 129.252L40.9175 152.131L43.4543 153.006L50.1438 130.67L51.2054 124.172L51.1666 110.417L41.0716 110.871Z" fill="#FFC4B8"/>
<path fill-rule="evenodd" clip-rule="evenodd" d="M60.5809 115.49L55.245 153.826H52.8195L52.383 129.252L47.9688 112.005L60.5809 115.49Z" fill="#FFC4B8"/>
<path fill-rule="evenodd" clip-rule="evenodd" d="M41.2042 105.788C43.2758 91.842 42.5358 81.686 42.6433 78.8972C42.7507 76.1086 44.6612 74.6615 44.6612 74.6615C45.5005 74.4695 46.2302 73.9165 47.0769 73.6982C52.8043 72.2221 55.9284 76.7021 58.0722 81.5345C60.7139 87.4883 62.9333 93.6405 64.7275 99.9167C66.3022 105.425 67.8803 110.983 68.5408 116.699C68.9812 120.51 68.3075 122.389 66.5198 122.335C60.8327 123.416 56.575 124.134 53.7465 124.489C48.873 125.099 43.9928 125.545 39.0872 125.754C36.5263 125.864 39.1327 119.734 41.2042 105.788Z" fill="#34466B"/>
<path fill-rule="evenodd" clip-rule="evenodd" d="M24.4443 71.2951L22.2969 69.1453L23.0285 65.3657H25.101L25.7105 68.6576L26.7626 69.2896V70.8789L24.4443 71.2951Z" fill="#FFC4B8"/>
<path fill-rule="evenodd" clip-rule="evenodd" d="M49.8516 73.4126L55.338 74.3878L65.2406 83.9676L74.1174 80.8516L76.9716 84.4907L65.0915 91.4566L52.5339 83.41L49.8516 73.4126Z" fill="#34466B"/>
<path fill-rule="evenodd" clip-rule="evenodd" d="M44.0721 69.5536C42.2998 68.6579 40.9996 66.8912 40.7745 64.7495C40.4247 61.4208 42.8034 58.4384 46.0831 58.0937C49.2751 57.7582 52.1517 60.0439 52.6259 63.2351C52.671 63.428 52.7046 63.6259 52.7259 63.8282L52.7259 63.8288C52.743 63.9908 52.7516 64.1516 52.7524 64.311L53.0314 69.4106L50.9042 70.5822L51.3153 74.4939C49.3458 76.253 47.2237 76.424 44.9627 75.1491L44.0721 69.5536Z" fill="#FFC4B8"/>
<path fill-rule="evenodd" clip-rule="evenodd" d="M50.7636 70.5678C50.7636 70.5678 44.423 71.4068 44.0347 69.4669L44.3051 71.0472C44.3051 71.0472 44.5452 72.1273 50.7636 70.5678ZM52.388 68.0722L51.3713 65.6003L51.1818 67.2923C51.1175 67.8656 51.7633 68.2831 52.388 68.0722Z" fill="#F4A48D"/>
<path fill-rule="evenodd" clip-rule="evenodd" d="M42.7017 75.8021C40.5228 75.2578 38.8226 73.3739 38.5714 70.9652C38.4061 69.3818 38.9091 67.8856 39.8491 66.7683C39.9945 66.5952 40.0478 66.3623 39.9941 66.1404L39.9969 66.1421L39.9933 66.1365L39.9803 66.0818C39.9505 65.9542 39.9245 65.8263 39.9016 65.6988C39.8955 65.6641 39.8896 65.6297 39.884 65.5953C39.4488 62.855 40.6873 60.0173 43.1877 58.589C43.6012 58.3529 44.0289 58.1669 44.4643 58.0289C44.5062 58.0036 44.5486 57.9788 44.5913 57.9544C46.0363 57.1293 47.6551 56.9153 49.1655 57.2303C49.7673 57.355 50.3512 57.5641 50.9001 57.8516C50.8652 58.3357 50.7876 58.8097 50.6708 59.2689C51.3065 59.7973 51.858 60.4541 52.2847 61.2274C52.5687 61.7422 52.7807 62.2781 52.9238 62.8228L50.8131 60.618L50.359 60.2361C49.4305 62.5961 47.4256 64.4319 44.8979 65.0451C44.9646 65.4354 45.0111 65.8488 45.0201 66.2667C44.6814 65.9457 44.2853 65.8242 44.0248 65.9973C43.7084 66.2076 43.7026 66.7797 43.9934 67.3222L44.0023 67.3387L44.0114 67.3552L44.0135 67.3589L44.0207 67.3716L44.0237 67.3767L44.0308 67.3889L44.0333 67.3932L44.0429 67.4094L44.0445 67.4122L44.0527 67.4256L44.0558 67.4307L44.0631 67.4424L44.0661 67.4473L44.0763 67.4634L44.0849 67.4767L44.0878 67.4811L44.0937 67.4899L44.0971 67.4951L44.1024 67.5031L44.1061 67.5085L44.1113 67.5162L44.1151 67.5217L44.1203 67.5291L44.1241 67.5346L44.1294 67.5421L44.1331 67.5474L44.1386 67.555L44.1422 67.5601L44.1481 67.5682L44.1514 67.5727L44.1606 67.5851L44.1698 67.5974L44.1792 67.6096L44.1827 67.6143L44.1885 67.6217L44.1924 67.6267L44.198 67.6338L44.202 67.6388L44.2076 67.6457L44.2116 67.6507L44.2213 67.6625L44.227 67.6694L44.2309 67.6741L44.237 67.6814L44.2406 67.6856L44.2504 67.697L44.2601 67.7082L44.27 67.7194L44.2736 67.7235L44.2799 67.7304L44.2899 67.7413L44.2999 67.7522L44.3042 67.7567L44.3143 67.7674L44.3202 67.7736L44.3244 67.7779L44.3306 67.7843L44.3345 67.7883L44.3447 67.7986L44.3549 67.8087L44.3652 67.8187L44.3688 67.8222L44.3755 67.8286L44.3796 67.8325L44.3858 67.8383L44.3902 67.8424L44.3962 67.848L44.4007 67.8521L44.4067 67.8576L44.4111 67.8616L44.4172 67.8671L44.4216 67.871L44.4279 67.8765L44.4321 67.8802L44.4426 67.8893L44.4531 67.8982L44.4636 67.907L44.4742 67.9157L44.4784 67.9191L44.4849 67.9243L44.4893 67.9278L44.4955 67.9328L44.5001 67.9363L44.5062 67.9411L44.5108 67.9446L44.517 67.9494L44.5215 67.9528L44.5279 67.9576L44.5322 67.9608L44.5391 67.9659L44.543 67.9686L44.5537 67.9764L44.5644 67.9839L44.5752 67.9914L44.586 67.9987L44.5904 68.0017L44.5968 68.0059L44.6014 68.0089L44.6077 68.013L44.6186 68.02L44.6231 68.0228L44.6296 68.0269L44.634 68.0296L44.6448 68.0362L44.6556 68.0426L44.6665 68.0489L44.6773 68.0551L44.6882 68.0611L44.6925 68.0634L44.6991 68.067L44.7035 68.0694L44.71 68.0728L44.7145 68.0751L44.7209 68.0784L44.7254 68.0807L44.7319 68.0839L44.7362 68.0861L44.7471 68.0913L44.755 68.0951C44.9505 68.1867 45.1426 68.2074 45.2988 68.1415C46.4126 69.3044 48.0572 71.3461 47.4666 72.7568C47.4658 72.7588 47.4649 72.7608 47.4639 72.7628C47.3421 73.051 47.0424 73.2099 46.7441 73.1637L46.7429 73.1701L45.1682 72.7021C44.9093 72.6249 44.8022 72.6138 44.6044 72.5698C44.5011 72.8114 44.4151 72.9518 44.2902 73.1873C43.7655 74.1759 43.1513 75.1332 42.7017 75.8021Z" fill="#9E3667"/>
<path fill-rule="evenodd" clip-rule="evenodd" d="M50.9558 71.6506C50.9558 71.6506 51.7796 71.7224 51.8677 71.7262C54.653 71.847 57.2394 73.1205 57.7333 75.9218C57.8582 76.6299 57.0309 77.9342 55.6998 77.4524C54.4379 76.9957 54.0372 75.2621 52.269 74.7218C51.8683 74.5993 51.4615 74.5229 51.0718 74.4715L51.0502 72.883C50.976 72.1292 50.9445 71.7184 50.9558 71.6506Z" fill="#9E3667"/>
<path d="M51.8677 88.5337L44.6289 74.7275L46.8242 73.9561L48.408 73.4907L51.2002 73.6794L51.8677 88.5337Z" fill="#EAF7FE"/>
<path fill-rule="evenodd" clip-rule="evenodd" d="M55.4354 152.825L52.8376 153.19L52.5196 155.728L52.5787 155.738L52.5643 155.742L56.5692 157.536L58.3666 157.519L58.3382 155.426L57.8156 155.128L55.4354 152.825Z" fill="#CEDEE7"/>
<path fill-rule="evenodd" clip-rule="evenodd" d="M43.9465 151.652L47.0234 154.062L46.663 155.925L40.1857 154.862L41.0404 151.652H43.9465Z" fill="#CEDEE7"/>
<path d="M49.2855 70.2127C47.7344 70.4862 46.2775 69.5763 46.0313 68.1803L45.4729 68.2787C45.768 69.9522 47.5146 71.0432 49.3742 70.7153L49.2855 70.2127Z" fill="#767676"/>
<mask id="mask2_1483_87253" style="mask-type:luminance" maskUnits="userSpaceOnUse" x="48" y="69" width="4" height="2">
<path fill-rule="evenodd" clip-rule="evenodd" d="M50.9297 69.4844L48.8407 69.8527L49.0384 70.9742L51.1274 70.6059L50.9297 69.4844Z" fill="white"/>
</mask>
<g mask="url(#mask2_1483_87253)">
<path d="M50.4273 69.573L49.3432 69.7641C49.0656 69.8131 48.8803 70.0776 48.9293 70.3551L48.9498 70.4717C48.9988 70.7493 49.2633 70.9346 49.5409 70.8856L50.6251 70.6945C50.9025 70.6456 51.0878 70.381 51.0388 70.1034L51.0183 69.9867C50.9693 69.7093 50.7048 69.524 50.4273 69.573Z" fill="#444444"/>
</g>
<mask id="mask3_1483_87253" style="mask-type:luminance" maskUnits="userSpaceOnUse" x="43" y="57" width="12" height="10">
<path fill-rule="evenodd" clip-rule="evenodd" d="M53.207 57.4556L43.0475 59.247L44.3362 66.5553L54.4957 64.7639L53.207 57.4556Z" fill="white"/>
</mask>
<g mask="url(#mask3_1483_87253)">
<path d="M45.2517 66.3941L44.872 64.2409C44.4617 61.914 45.9937 59.6987 48.2938 59.2931C48.7365 59.2151 49.5677 59.1747 50.7875 59.1719L50.9584 58.3172C49.7932 58.2127 48.8496 58.224 48.1277 58.3513C45.3224 58.846 43.4537 61.548 43.9541 64.3861L44.3366 66.5554L45.2517 66.3941Z" fill="#767676"/>
</g>
<mask id="mask4_1483_87253" style="mask-type:luminance" maskUnits="userSpaceOnUse" x="43" y="65" width="2" height="4">
<path fill-rule="evenodd" clip-rule="evenodd" d="M43.6055 65.9907L43.1582 66.0696L43.5947 68.5451L44.042 68.4662L43.6055 65.9907Z" fill="white"/>
</mask>
<g mask="url(#mask4_1483_87253)">
<path d="M43.3792 66.3286C43.2493 66.5862 43.2766 66.7412 43.3106 66.9338L43.3764 67.3074L43.4423 67.6809C43.4763 67.8737 43.5036 68.0287 43.7138 68.2263L44.042 68.4662L43.8237 67.2286L43.6055 65.9907L43.3792 66.3286Z" fill="#767676"/>
</g>
<path d="M45.6532 68.986L45.0789 69.0873C44.5867 69.1741 44.1158 68.8373 44.0273 68.3354L43.6355 66.1132C43.5469 65.6111 43.8743 65.1338 44.3665 65.047L44.9408 64.9457C45.4331 64.8589 45.9038 65.1955 45.9923 65.6977L46.3842 67.9198C46.4727 68.4218 46.1455 68.8992 45.6532 68.986Z" fill="#444444"/>
<mask id="mask5_1483_87253" style="mask-type:luminance" maskUnits="userSpaceOnUse" x="90" y="142" width="16" height="15">
<path fill-rule="evenodd" clip-rule="evenodd" d="M91.1992 142.054L105.13 143.028L104.156 156.958L90.2251 155.984L91.1992 142.054Z" fill="white"/>
</mask>
<g mask="url(#mask5_1483_87253)">
<path fill-rule="evenodd" clip-rule="evenodd" d="M99.7774 142.866C97.935 142.284 96.145 142.433 94.4582 143.309C92.7711 144.185 91.6202 145.564 91.0377 147.407C90.4542 149.251 90.6035 151.041 91.4805 152.726C92.3569 154.413 93.7354 155.564 95.5782 156.146C96.3088 156.377 97.0311 156.493 97.7424 156.494C98.8234 156.496 99.8788 156.232 100.897 155.704C102.585 154.827 103.735 153.449 104.318 151.606C104.9 149.765 104.751 147.976 103.875 146.286C102.997 144.599 101.618 143.448 99.7774 142.866Z" fill="#2A8FEC"/>
</g>
<path fill-rule="evenodd" clip-rule="evenodd" d="M141.561 93.8838C138.526 88.6202 133.42 84.8319 126.386 82.6241C119.353 80.4173 112.948 80.5915 107.35 83.1419C102.483 85.3593 98.9141 89.1301 96.743 94.35C96.377 95.2296 96.4008 96.2294 96.8076 97.0923C97.2146 97.9555 97.9734 98.6154 98.8895 98.9028L103.078 100.217C104.75 100.741 106.548 99.9387 107.26 98.3487C108.522 95.5291 110.311 93.618 112.728 92.5063C115.654 91.1607 119.184 91.1206 123.218 92.3865C127.24 93.6488 130.066 95.7335 131.616 98.5828C133.16 101.423 133.311 104.843 132.067 108.748C130.353 114.13 127.64 117.267 124.006 118.072C120.18 118.92 114.806 118.234 108.025 116.032L106.212 115.463C104.403 114.895 102.467 115.891 101.896 117.682L96.9162 133.313C96.6395 134.181 96.7209 135.104 97.1452 135.912C97.5696 136.721 98.2857 137.317 99.1623 137.592L103.411 138.925C103.753 139.033 104.1 139.084 104.441 139.085C105.904 139.088 107.264 138.158 107.727 136.706L110.952 126.583C110.992 126.458 111.128 126.386 111.254 126.421C119.238 128.696 125.875 128.864 130.98 126.92C136.409 124.853 140.341 120.106 142.665 112.809C144.981 105.542 144.609 99.1747 141.561 93.8838Z" fill="#2A8FEC"/>
</svg>
