<svg width="160" height="160" viewBox="0 0 160 160" fill="none" xmlns="http://www.w3.org/2000/svg">
<mask id="mask0_1487_15741" style="mask-type:luminance" maskUnits="userSpaceOnUse" x="13" y="0" width="134" height="160">
<rect x="13" width="133.612" height="160" fill="white"/>
</mask>
<g mask="url(#mask0_1487_15741)">
<rect x="13" width="133.612" height="160" fill="white"/>
<path fill-rule="evenodd" clip-rule="evenodd" d="M105.823 43.3422C105.823 43.3422 139.766 41.2241 145.435 55.3432C151.103 69.4623 134.836 84.3369 128.499 99.8192C122.163 115.301 136.663 129.727 126.044 135.522C115.425 141.318 107.174 134.162 96.9696 128.171C86.7657 122.179 49.013 146.259 34.6267 140.822C20.2404 135.385 5.40449 117.589 17.3975 102.375C29.3905 87.1615 24.2234 94.4056 42.8786 66.6341C61.5338 38.8625 105.823 43.3422 105.823 43.3422Z" fill="#CEDEE7"/>
<path fill-rule="evenodd" clip-rule="evenodd" d="M81.6718 119.822C81.6718 119.822 31.7762 131.98 24.7438 124.787C13.6965 113.484 36.0735 105.013 34.1969 87.1423C32.3203 69.2718 10.1077 64.1137 17.2382 53.3092C24.3687 42.5047 29.9343 38.9282 42.6832 39.5275C55.4321 40.1267 55.3339 46.1817 71.7725 44.1655C88.2111 42.1493 93.114 30.4055 108.438 31.466C123.762 32.5266 117.07 38.6283 122.526 48.9862C127.981 59.3441 130.202 66.0775 130.26 72.898C130.364 85.0009 122.526 111.132 122.526 111.132L81.6718 119.822Z" fill="#EAF7FE"/>
<circle cx="130.763" cy="77.3443" r="0.0167015" stroke="#CCCCCC"/>
<path fill-rule="evenodd" clip-rule="evenodd" d="M59.0488 137.286L62.4428 136.096L62.517 55.249H59L59.0488 137.286Z" fill="#9E3667"/>
<path fill-rule="evenodd" clip-rule="evenodd" d="M35.0196 52.9256C35.7879 38.9362 39.3349 34.5771 30.9922 21.9033C24.802 12.5131 28.5187 8.56655 32.4599 5.6301C38.3408 0.929644 52.2819 -2.6605 67.4248 2.60847C77.8154 10.8179 60.0197 11.1112 90.2483 24.3227C102.34 29.6037 103.743 44.9079 86.2216 50.5153C78.9648 52.8388 68.0267 54.6826 61.0672 85.0612C56.6246 104.504 33.5585 79.4636 35.0196 52.9253" fill="#008437"/>
<path fill-rule="evenodd" clip-rule="evenodd" d="M40.18 46.2987C40.9483 32.3095 44.4954 27.9501 36.1526 15.2764C29.9624 5.88613 47.2464 -2.24247 61.4276 0.774146C75.6088 3.79076 65.1798 4.48454 95.4081 17.6957C107.5 22.9767 108.903 38.2809 91.3814 43.8883C84.1243 46.2118 73.1861 48.0553 66.227 78.4343C61.7844 97.8771 38.7183 72.8366 40.1794 46.2983" fill="#63BA68"/>
</g>
</svg>
