<svg width="160" height="160" viewBox="0 0 160 160" fill="none" xmlns="http://www.w3.org/2000/svg">
<mask id="mask0_1483_87205" style="mask-type:luminance" maskUnits="userSpaceOnUse" x="0" y="14" width="160" height="146">
<rect y="14.2002" width="160" height="145.6" fill="white"/>
</mask>
<g mask="url(#mask0_1483_87205)">
<rect y="14.2002" width="160" height="145.6" fill="white"/>
<path fill-rule="evenodd" clip-rule="evenodd" d="M150.847 71.7585C150.88 91.1616 142.806 109.696 128.575 122.885C123.19 127.906 117.043 132.041 110.364 135.139C102.822 138.639 94.711 140.754 86.4196 141.382C84.6197 141.519 82.8493 141.588 81.0149 141.588C79.868 141.588 78.6893 141.558 77.5452 141.503C71.4332 141.203 65.387 140.102 59.5616 138.227C30.7315 128.907 11.2021 102.057 11.2149 71.7581C11.2149 33.1921 42.4616 1.93213 81.0149 1.93213C119.319 1.9229 150.479 32.7768 150.847 71.0793V71.7593" fill="#DEEDF2"/>
<path fill-rule="evenodd" clip-rule="evenodd" d="M148.82 65.866C148.837 85.266 140.765 103.795 126.546 116.993C121.155 122.007 115.01 126.143 108.335 129.25C100.78 132.748 92.659 134.863 84.3571 135.493C82.5915 135.626 80.7883 135.696 78.9867 135.696C77.8071 135.696 76.6603 135.67 75.5147 135.611C69.4027 135.317 63.3564 134.216 57.5335 132.335C28.6958 123.018 9.15423 96.1708 9.15234 65.8656C9.15118 47.3447 16.5086 29.5823 29.6056 16.4869C42.7026 3.39144 60.4659 -3.96384 78.9867 -3.96045C117.28 -3.95538 148.423 26.896 148.787 65.188C148.813 65.413 148.823 65.6395 148.818 65.866" fill="white"/>
<path fill-rule="evenodd" clip-rule="evenodd" d="M55.0056 100.853L48.6532 111.891C48.0056 112.998 46.5868 113.377 45.4736 112.74L26.0844 101.54C24.9804 100.899 24.5991 99.4888 25.2304 98.3796L31.6212 87.3396C31.9243 86.8097 32.4263 86.4225 33.0158 86.2638C33.6054 86.1052 34.2338 86.1882 34.762 86.4944L54.1872 97.6904C55.2841 98.3383 55.6503 99.7514 55.006 100.85" fill="#CEDEE7"/>
<path fill-rule="evenodd" clip-rule="evenodd" d="M55.4666 98.3082L49.1142 109.346C48.4652 110.452 47.0469 110.829 45.9346 110.191L26.5446 98.9958C25.441 98.3552 25.0602 96.9448 25.6914 95.8358L32.0798 84.7958C32.3813 84.2636 32.8834 83.8744 33.4739 83.7149C34.0644 83.5554 34.6941 83.639 35.2226 83.947L54.6126 95.147C55.149 95.4489 55.5416 95.9537 55.7022 96.5479C55.8628 97.1422 55.7779 97.776 55.4666 98.307" fill="#DEEDF2"/>
<path fill-rule="evenodd" clip-rule="evenodd" d="M47.8992 108.491L27.0352 96.4343L33.8788 84.5347L54.778 96.5947L47.8992 108.491Z" fill="white"/>
<path fill-rule="evenodd" clip-rule="evenodd" d="M46.6907 105.202L37.3203 99.7937L40.3967 94.4585L49.7639 99.8661L46.6907 105.202Z" fill="#DEEDF2"/>
<path fill-rule="evenodd" clip-rule="evenodd" d="M39.3521 90.8787C39.3451 92.2836 38.2023 93.4178 36.7973 93.4143C35.4037 93.4042 34.2788 92.2724 34.2773 90.8787C34.2802 89.4862 35.4048 88.3561 36.7973 88.3467C38.2012 88.3425 39.3438 89.4749 39.3521 90.8787Z" fill="#DEEDF2"/>
<path fill-rule="evenodd" clip-rule="evenodd" d="M62.9383 117.75L58.9727 102.336L77.1211 97.6885L81.0491 113.106L62.9383 117.75Z" fill="#DEEDF2"/>
<path fill-rule="evenodd" clip-rule="evenodd" d="M61.6234 121.196L57.6602 105.778L75.7726 101.133L79.739 116.547L61.6234 121.196Z" fill="#CEDEE7"/>
<path fill-rule="evenodd" clip-rule="evenodd" d="M109.413 144.737C114.444 142.84 119.142 140.158 123.333 136.791L126.221 142.774C121.916 146.328 117.056 149.149 111.835 151.124C104.776 153.74 97.2349 154.802 89.7273 154.239L87.9609 147.891C95.2537 148.357 102.563 147.282 109.413 144.737" fill="#34466B"/>
<path fill-rule="evenodd" clip-rule="evenodd" d="M85.0111 89.6183L79.7031 68.9783L103.972 62.7583L109.28 83.3983L85.0111 89.6183Z" fill="#DEEDF2"/>
<path fill-rule="evenodd" clip-rule="evenodd" d="M100.339 88.137L96.4099 81.4486C96.2348 81.116 95.9425 80.8602 95.5895 80.731L92.2815 79.4014C91.4489 79.072 90.5035 79.4443 90.1191 80.253L87.2391 86.3354C86.9683 86.9048 87.1464 87.5865 87.6611 87.9506C87.8105 88.0532 87.978 88.1265 88.1547 88.1666C88.6909 88.2721 89.2369 88.0379 89.5299 87.5766L90.1511 86.5486L92.8051 89.5586C93.8889 90.7644 95.2177 91.7247 96.7027 92.3754L100.569 94.069L103.42 91.763L100.339 88.137Z" fill="#CEDEE7"/>
<path fill-rule="evenodd" clip-rule="evenodd" d="M103.551 91.0549L98.375 94.6481L112.067 124.008C112.067 124.008 128.181 110.595 128.248 110.297C128.281 109.995 103.551 91.0537 103.551 91.0537" fill="#CEDEE7"/>
<path fill-rule="evenodd" clip-rule="evenodd" d="M69.3831 108.966L68.8251 103.817L66.6651 100.312C66.1961 99.5217 65.8526 98.6631 65.6471 97.7671L64.7671 93.9087C64.7335 93.8563 64.7671 93.8003 64.8311 93.7711C65.1691 93.5692 65.6064 93.6761 65.8131 94.0111L67.9731 97.5487L68.5311 90.9615C68.5943 90.1716 69.1232 89.4958 69.8747 89.2447C70.1043 89.1695 70.4279 89.0711 70.7263 88.9699C71.4875 88.7344 72.3043 89.1059 72.6271 89.8343C72.6271 89.8343 76.2927 99.3403 74.9871 103.601L74.7247 104.404L74.5599 110.761L69.3831 108.966Z" fill="#F4A48D"/>
<path fill-rule="evenodd" clip-rule="evenodd" d="M131.981 128.993C130.319 131.332 128.536 133.583 126.64 135.736C117.09 146.501 102.496 151.31 88.4179 148.331C88.3147 148.311 88.2227 148.289 88.1179 148.265C87.0071 148.029 85.8943 147.734 84.7803 147.394C83.313 146.94 81.9907 146.109 80.9459 144.983C79.8859 143.862 79.1408 142.482 78.7859 140.981H78.7531C78.0951 140.896 67.4219 139.375 67.4219 129.181L68.1719 104.218L75.4783 103.796L77.5767 122.973C77.6591 123.772 78.0999 124.489 78.7747 124.923C79.4496 125.357 80.2851 125.46 81.0455 125.204L101.125 118.47L115.013 113.321L127.527 108.696C127.527 108.696 139.582 118.352 131.983 128.994" fill="#9BC3D3"/>
<path fill-rule="evenodd" clip-rule="evenodd" d="M88.1239 148.264C87.0083 148.029 85.8975 147.733 84.7811 147.397C83.3163 146.939 81.9962 146.107 80.9515 144.983C79.8894 143.864 79.1432 142.484 78.7891 140.983C81.2444 141.141 83.7082 140.857 86.0627 140.143L88.1239 148.264Z" fill="#34466B"/>
<path fill-rule="evenodd" clip-rule="evenodd" d="M92.4102 79.3391L93.5922 77.4951L94.4438 77.7571L94.6086 79.2871L92.4102 79.3391ZM101.453 84.3829L98.1102 77.4089C97.93 77.0768 97.6576 76.804 97.3258 76.6233L94.1502 75.0385C93.3346 74.6389 92.3489 74.9341 91.887 75.7161L88.547 81.5497C88.2217 82.0951 88.348 82.7968 88.843 83.1945C88.9862 83.3138 89.1541 83.3999 89.3346 83.4465C89.8479 83.5908 90.3966 83.399 90.7082 82.9665L91.4282 81.9905L93.8534 85.2037C94.8296 86.49 96.0685 87.5536 97.4878 88.3237L101.222 90.3185L104.236 88.2449L101.453 84.3829Z" fill="#F4A48D"/>
<path fill-rule="evenodd" clip-rule="evenodd" d="M119.144 120.64C117.766 124.098 112.687 126.116 107.812 125.15C103.553 124.305 100.832 121.475 101.127 118.47L110.264 115.076L115.017 113.321C118.489 114.791 120.257 117.758 119.144 120.641" fill="#F4A48D"/>
<path fill-rule="evenodd" clip-rule="evenodd" d="M104.438 87.5537L99 90.7241L110.333 121.078C110.333 121.078 127.431 108.989 127.528 108.694C127.594 108.399 104.437 87.5541 104.437 87.5541" fill="#9BC3D3"/>
<path fill-rule="evenodd" clip-rule="evenodd" d="M103.418 109.218L102.924 105.442L101.68 104.44C101.053 103.945 100.674 103.202 100.643 102.404C100.611 101.606 100.93 100.835 101.516 100.293C104.727 97.3973 110.001 96.1465 113.93 97.0177C114.948 97.2252 115.916 97.6276 116.781 98.2029C117.222 98.4898 117.564 98.9048 117.763 99.3921L103.418 109.218Z" fill="#2A8FEC"/>
<path fill-rule="evenodd" clip-rule="evenodd" d="M90.6477 79.3877L87.7969 79.7541L87.8633 80.2981L89.6633 80.5829L99.9157 80.2813C99.9157 80.2813 99.7853 79.1581 99.6533 79.1553C99.5213 79.1525 90.6485 79.3881 90.6485 79.3881" fill="#D39E00"/>
<path d="M94.6727 83.3482L90.6135 81.4942C90.3159 81.3544 90.0919 81.0944 89.9977 80.7793C89.9035 80.4643 89.9479 80.124 90.1199 79.8438C90.4147 79.385 90.9872 79.1908 91.5003 79.3754L96.0183 81.0094L94.6727 83.3482Z" fill="#F4A48D"/>
<path d="M124.251 113.118C122.396 119.714 115.553 123.564 108.953 121.726C108.61 121.632 108.273 121.521 107.942 121.392C107.261 121.143 106.604 120.834 105.978 120.469V120.465C105.715 120.305 105.453 120.132 105.19 119.955V119.945C104.877 119.745 104.581 119.52 104.306 119.27C104.204 119.19 104.109 119.113 104.013 119.03C102.728 117.877 101.701 116.467 100.999 114.89C100.895 114.701 100.807 114.504 100.736 114.3C100.67 114.12 100.604 113.937 100.54 113.75C100.441 113.491 100.375 113.233 100.278 112.964C100.179 112.499 100.078 112.024 100.013 111.542C99.9874 111.475 99.9767 111.402 99.982 111.33C99.9163 110.97 99.8831 110.605 99.8828 110.239V109.399C99.8828 109.173 99.9164 108.947 99.9164 108.724C99.9783 107.948 100.121 107.181 100.342 106.435C101.226 103.262 103.335 100.571 106.204 98.9551C109.074 97.3392 112.469 96.9309 115.64 97.8202C122.232 99.679 126.081 106.517 124.251 113.117" fill="#F4A48D"/>
<path fill-rule="evenodd" clip-rule="evenodd" d="M124.676 110.254C124.647 111.222 124.504 112.184 124.251 113.119C123.844 114.544 123.19 115.885 122.32 117.083C117.08 124.269 105.942 123.041 102.306 114.928C102.11 114.478 102.014 114.204 102.014 114.204V114.2L101.552 112.026L100.736 114.302C100.67 114.122 100.604 113.938 100.54 113.752C100.447 113.495 100.37 113.232 100.309 112.966C100.212 112.615 100.112 112.258 100.047 111.895C100.047 111.78 100.013 111.662 100.013 111.544C99.9874 111.476 99.9767 111.404 99.982 111.331C99.9163 110.971 99.8831 110.606 99.8828 110.24V109.4C99.8828 109.174 99.9164 108.948 99.9164 108.726C99.9719 108.158 100.06 107.593 100.179 107.035C100.244 106.835 100.278 106.635 100.342 106.435C100.564 105.642 100.86 104.871 101.226 104.132C103.916 98.8663 109.945 96.2261 115.64 97.8205C121.167 99.3716 124.906 104.515 124.677 110.251" fill="#2A8FEC"/>
<path fill-rule="evenodd" clip-rule="evenodd" d="M102.338 113.617C102.25 113.822 102.142 114.017 102.014 114.2V114.203C101.978 114.239 101.944 114.272 101.913 114.305C101.917 114.328 101.903 114.35 101.88 114.357C101.839 114.414 101.795 114.47 101.748 114.523C101.715 114.543 101.715 114.557 101.686 114.576C101.493 114.76 101.271 114.911 101.028 115.021C101.028 114.979 100.999 114.933 100.999 114.891C100.895 114.702 100.807 114.504 100.736 114.301C100.67 114.12 100.604 113.937 100.54 113.751C100.441 113.492 100.375 113.233 100.278 112.965C100.179 112.499 100.078 112.025 100.013 111.543C99.9876 111.475 99.977 111.402 99.982 111.329C99.9163 110.97 99.8831 110.605 99.8828 110.239V110.033C100.382 109.826 100.948 109.86 101.42 110.125C102.472 110.711 102.9 112.276 102.34 113.616" fill="#F4A48D"/>
<path fill-rule="evenodd" clip-rule="evenodd" d="M75.0888 101.256L70.9568 102.939C70.4958 103.122 69.9732 102.902 69.782 102.445L65.2912 91.4389C65.1155 90.9798 65.3333 90.4638 65.7848 90.2693L69.91 88.5893C70.3711 88.404 70.8957 88.6226 71.0888 89.0805L75.5756 100.086C75.6678 100.306 75.6682 100.553 75.5767 100.773C75.4852 100.992 75.3095 101.166 75.0888 101.256Z" fill="#DEEDF2"/>
<path fill-rule="evenodd" clip-rule="evenodd" d="M85.8281 83.3447L94.0805 69.0083L85.8281 83.3447Z" fill="#1BB3BC"/>
<path fill-rule="evenodd" clip-rule="evenodd" d="M71.9091 93.519C71.913 94.1126 71.6801 94.6832 71.2618 95.1044C70.8436 95.5257 70.2747 95.7627 69.6811 95.763C68.4383 95.7654 67.4278 94.7618 67.4219 93.519C67.428 92.2764 68.4384 91.273 69.6811 91.2754C70.2746 91.2757 70.8435 91.5127 71.2617 91.9338C71.6799 92.355 71.9129 92.9255 71.9091 93.519Z" fill="white"/>
<path fill-rule="evenodd" clip-rule="evenodd" d="M73.8763 84.7073C73.8687 85.3708 73.3298 85.9052 72.6663 85.9073C72.002 85.9059 71.4619 85.3716 71.4531 84.7073C71.4623 84.0433 72.0022 83.5092 72.6663 83.5073C73.3297 83.5097 73.8685 84.044 73.8763 84.7073Z" fill="#CEDEE7"/>
<path fill-rule="evenodd" clip-rule="evenodd" d="M61.8555 72.0668H64.9135V69.0068H61.8555V72.0668Z" fill="#DEEDF2"/>
<path fill-rule="evenodd" clip-rule="evenodd" d="M127.199 55.2645H130.265V52.2041H127.199V55.2645Z" fill="#DEEDF2"/>
<path fill-rule="evenodd" clip-rule="evenodd" d="M38.0366 63.2598C37.6243 63.1987 37.2082 63.1669 36.7914 63.1646C36.3866 63.1684 35.9826 63.2002 35.5822 63.2598C33.3944 63.5847 31.4259 64.767 30.1111 66.5455C28.7962 68.3241 28.2433 70.5528 28.5742 72.7398C28.5731 72.9724 28.6052 73.2041 28.6694 73.4278C28.6639 73.5034 28.6757 73.5793 28.7038 73.6498C28.7318 73.801 28.7678 73.9514 28.8006 74.0986C28.8302 74.1838 28.8302 74.269 28.8662 74.351C28.8926 74.4903 28.9367 74.6256 28.9974 74.7538C29.0302 74.8426 29.0302 74.9278 29.0614 75.0094C29.1254 75.1438 29.1582 75.2746 29.2238 75.4022C29.2566 75.4822 29.291 75.5662 29.3238 75.6478C29.3649 75.7966 29.4192 75.9414 29.4862 76.0806C29.5554 76.1912 29.611 76.3098 29.6518 76.4338C29.7158 76.565 29.7814 76.6959 29.8486 76.8266C29.9142 76.9382 29.9782 77.0466 30.0438 77.1574C30.0782 77.2394 30.1438 77.3218 30.1766 77.3998C30.2398 77.5321 30.3167 77.6575 30.4062 77.7738C30.439 77.829 30.4718 77.8886 30.5014 77.9478C30.5998 78.0886 30.6654 78.2322 30.767 78.373C30.767 78.3898 30.7982 78.4026 30.7982 78.419C31.8122 79.9974 33.0246 81.5206 34.0718 83.145C35.1872 84.8588 35.7801 86.8601 35.7782 88.905V90.2346C35.7858 90.7719 36.222 91.2044 36.7594 91.2074C37.2966 91.2033 37.7327 90.7717 37.7422 90.2346V89.0322C37.7465 87.0061 38.3251 85.0227 39.411 83.3122C41.6702 79.8142 44.619 76.8234 45.047 72.7362C45.3772 70.5489 44.8236 68.3202 43.5084 66.5417C42.1931 64.7632 40.2242 63.581 38.0362 63.2562" fill="#1BB3BC"/>
<path fill-rule="evenodd" clip-rule="evenodd" d="M36.7961 68.897C37.5872 68.8927 38.3471 69.2049 38.9068 69.764C39.4664 70.3231 39.7793 71.0828 39.7757 71.8738C39.7794 72.6649 39.4666 73.4247 38.9069 73.9839C38.3473 74.5431 37.5873 74.8553 36.7961 74.851C36.0097 74.8494 35.2563 74.5343 34.7029 73.9755C34.1494 73.4167 33.8417 72.6603 33.8477 71.8738C33.8418 71.0874 34.1496 70.3311 34.703 69.7724C35.2564 69.2136 36.0097 68.8986 36.7961 68.897Z" fill="white"/>
</g>
</svg>
