<svg width="160" height="161" viewBox="0 0 160 161" fill="none" xmlns="http://www.w3.org/2000/svg">
<path fill-rule="evenodd" clip-rule="evenodd" d="M103.906 27.2122C103.906 27.2122 110.977 47.6869 115.711 49.0368C115.711 49.0368 115.871 41.1571 111.809 34.4285C107.748 27.7 103.906 27.2122 103.906 27.2122Z" fill="#34466B"/>
<path fill-rule="evenodd" clip-rule="evenodd" d="M111.72 47.0834L120.818 42.272L113.496 32.6285L111.973 30.6223L108.982 26.6821L105.743 28.7823L105.028 29.2464L104.889 29.3358L104.585 29.5328L100.254 32.3418C99.7395 32.6746 99.1889 32.9497 98.614 33.1596L80.9957 39.6C78.1678 40.6337 75.8126 42.6603 74.3674 45.3011L67.6914 57.5072L78.1142 64.2539L80.5939 61.8387L77.5724 68.3704L84.5574 72.0338L87.8852 68.5711C90.1735 66.1899 92.052 63.452 93.4488 60.4687L97.3296 58.862C99.6167 57.9147 101.694 56.5205 103.439 54.7628L110.321 47.8248L111.425 47.2404L111.72 47.0834Z" fill="#732645"/>
<path fill-rule="evenodd" clip-rule="evenodd" d="M145.143 0.382812L103.906 27.2121C103.906 27.2121 112.854 39.6803 115.711 49.0367L159.99 28.9386L145.143 0.382812Z" fill="#EC0000"/>
<g clip-path="url(#clip0_1487_18524)">
<path fill-rule="evenodd" clip-rule="evenodd" d="M97.5474 73.646L58.8028 94.2328L52.6562 80.9584L59.5346 77.02L65.3391 73.6968L89.889 60.0901L95.2614 69.6002L97.5474 73.646Z" fill="#9E3667"/>
<path fill-rule="evenodd" clip-rule="evenodd" d="M79.043 73.836C80.7674 77.1521 79.4764 81.2381 76.161 82.9624C72.8447 84.6868 68.7585 83.3963 67.0341 80.0802C65.3098 76.7641 66.6003 72.6781 69.9164 70.9538C73.2327 69.2295 77.3185 70.5199 79.043 73.836Z" fill="#732645"/>
<path fill-rule="evenodd" clip-rule="evenodd" d="M95.2619 69.6001L93.1277 74.6191C80.2323 79.2894 67.4059 78.3809 59.5352 77.02L65.3396 73.6969L89.8895 60.0901L95.2619 69.6001Z" fill="#732645"/>
<path fill-rule="evenodd" clip-rule="evenodd" d="M96.481 59.7977L90.2419 74.47C69.4738 81.9925 48.8867 75.0425 48.8867 75.0425L53.8014 53.929L81.058 57.6769L90.777 59.0132L96.481 59.7977Z" fill="#CEDEE7"/>
<path fill-rule="evenodd" clip-rule="evenodd" d="M95.9652 58.8055L89.7261 73.4778C68.9586 81.0004 48.3711 74.0503 48.3711 74.0503L53.2857 52.9368L80.5422 56.6847L90.2612 58.021L95.9652 58.8055Z" fill="#DEEDF2"/>
<path fill-rule="evenodd" clip-rule="evenodd" d="M61.7079 59.2488C62.461 60.6972 61.8974 62.482 60.449 63.2351C59.0006 63.9882 57.216 63.4246 56.4629 61.9762C55.7097 60.5277 56.2733 58.7431 57.7217 57.99C59.17 57.2368 60.9548 57.8005 61.7079 59.2488Z" fill="#9BC3D3"/>
<path fill-rule="evenodd" clip-rule="evenodd" d="M77.6655 63.4012C79.5235 66.9743 78.1334 71.3772 74.56 73.2351C70.9875 75.0931 66.5842 73.7027 64.7262 70.1295C62.8683 66.5564 64.2587 62.1535 67.8319 60.2956C71.4054 58.4376 75.8083 59.828 77.6655 63.4012Z" fill="#9BC3D3"/>
</g>
<path fill-rule="evenodd" clip-rule="evenodd" d="M74.4326 64.1936L77.3512 58.7923C77.6484 58.2411 78.0528 57.7542 78.54 57.3598L82.3414 54.2809C83.0342 53.7197 83.9258 53.4651 84.8107 53.5761C90.1546 54.2463 95.5083 52.4179 99.3262 48.6196L103.867 44.1011L98.4463 36.6104L84.6684 41.5728C81.3825 42.7564 78.6482 45.11 76.9887 48.1834L76.4693 49.144L73.8178 51.8272C73.2097 52.4422 72.7361 53.1767 72.4272 53.9842L69.3294 62.0772C68.8383 63.861 70.1674 65.6265 72.017 65.6488C72.0618 65.6494 72.1076 65.6488 72.1524 65.6473C73.1142 65.6128 73.9756 65.0401 74.4326 64.1936Z" fill="#732645"/>
<path fill-rule="evenodd" clip-rule="evenodd" d="M40.5393 124.587H44.677C44.677 124.587 49.3032 112.584 48.2094 107.353L44.458 105.825L37.1875 121.727L40.5393 124.587Z" fill="#34466B"/>
<path fill-rule="evenodd" clip-rule="evenodd" d="M89.2054 106.496C89.5142 106.283 89.8985 106.211 90.2635 106.297C91.2704 106.533 91.6322 107.78 90.9087 108.519C89.2531 110.21 86.9224 112.571 86.7876 112.598C86.5772 112.64 81.0241 112.135 81.0241 112.135L82.7623 110.937L82.7622 110.937L75.8075 112.724L74.6169 111.743L72.9881 110.4L72.9022 110.33L72.1055 109.673L76.1995 108.747L78.9626 108.122L82.6916 107.279C83.8341 107.021 84.9994 107.604 85.4773 108.673C85.5252 108.78 85.5572 108.889 85.5749 108.998C85.5749 108.998 85.575 108.998 85.575 108.998L89.2054 106.496Z" fill="#F4A48D"/>
<path fill-rule="evenodd" clip-rule="evenodd" d="M76.5037 107.488C76.5037 107.938 76.3943 108.368 76.1983 108.747C75.7801 109.56 74.9665 110.148 73.9871 110.234L72.9009 110.33L72.3049 110.382L76.8271 110.501L81.4429 110.621L88.4828 108.405L92.861 105.327C93.5776 104.823 94.5394 104.846 95.2306 105.385C96.204 106.143 96.2614 107.594 95.3507 108.427L94.7317 108.993C94.9379 109.656 94.6353 110.4 93.9768 110.713L91.6292 111.828L86.744 116.293C85.5207 117.411 84.0077 118.162 82.3778 118.461L71.013 120.547C70.3962 120.66 69.7688 120.704 69.1423 120.679L56.0363 120.148L56.0359 120.148L44.6396 119.759L33.3164 119.371L36.9798 111.932L39.1219 107.583L50.2266 104.386C53.6989 103.166 57.4985 103.096 61.0502 104.228L63.0485 104.865C63.9866 105.164 64.9719 105.285 65.9538 105.222L73.5673 104.732C73.6767 104.725 73.7844 104.724 73.8912 104.73C75.2256 104.8 76.3405 105.83 76.4877 107.19C76.4986 107.29 76.5037 107.389 76.5037 107.488Z" fill="#FFC4B8"/>
<path fill-rule="evenodd" clip-rule="evenodd" d="M23.6722 125.221L21.1411 125.081L0 123.914L1.43033 97.1143L26.1548 103.366L26.3564 103.417C26.536 103.222 26.7251 103.043 26.9242 102.88L45.9392 105.442C45.9392 105.442 42.8553 113.389 42.3414 119.525C42.1036 122.365 41.2481 125.119 39.8228 127.588H23.9672C23.9672 127.588 23.8301 126.687 23.6722 125.221Z" fill="#9BC3D3"/>
<defs>
<clipPath id="clip0_1487_18524">
<rect width="49.1751" height="41.296" fill="white" transform="translate(48.3711 52.9368)"/>
</clipPath>
</defs>
</svg>
