<svg width="160" height="164" viewBox="0 0 160 164" fill="none" xmlns="http://www.w3.org/2000/svg">
<path fill-rule="evenodd" clip-rule="evenodd" d="M157.556 117.346L130.441 37.1593C122.784 14.5136 108.632 0.563477 93.3171 0.563477H0L12.4401 37.3542H80.1774V76.8643C80.1774 124.747 102.911 163.563 130.955 163.563H141.927C155.819 163.563 164.501 137.887 157.556 117.346Z" fill="#DEEDF2"/>
<path fill-rule="evenodd" clip-rule="evenodd" d="M103.902 28.3928C103.902 28.3928 110.973 48.8675 115.707 50.2174C115.707 50.2174 115.867 42.3378 111.805 35.6092C107.744 28.8806 103.902 28.3928 103.902 28.3928Z" fill="#34466B"/>
<path fill-rule="evenodd" clip-rule="evenodd" d="M111.72 48.264L120.818 43.4527L113.496 33.8092L111.973 31.8029L108.982 27.8628L105.743 29.963L105.028 30.4271L104.889 30.5164L104.585 30.7135L100.254 33.5225C99.7395 33.8552 99.1889 34.1303 98.614 34.3402L80.9957 40.7806C78.1678 41.8143 75.8126 43.8409 74.3674 46.4817L67.6914 58.6878L78.1142 65.4346L80.5939 63.0193L77.5724 69.551L84.5574 73.2145L87.8852 69.7518C90.1735 67.3706 92.052 64.6326 93.4488 61.6494L97.3296 60.0426C99.6167 59.0953 101.694 57.7012 103.439 55.9435L110.321 49.0055L111.425 48.4211L111.72 48.264Z" fill="#732645"/>
<path fill-rule="evenodd" clip-rule="evenodd" d="M145.139 1.56348L103.902 28.3927C103.902 28.3927 112.85 40.861 115.707 50.2173L159.986 30.1193L145.139 1.56348Z" fill="#2A8FEC"/>
<g clip-path="url(#clip0_1483_32113)">
<path fill-rule="evenodd" clip-rule="evenodd" d="M97.401 74.0907L59.5076 34.2391L53.4961 59.9354L60.2233 67.5592L65.9003 73.9922L89.9109 100.332L95.1652 81.9224L97.401 74.0907Z" fill="#9E3667"/>
<path fill-rule="evenodd" clip-rule="evenodd" d="M79.3034 73.7226C80.9899 67.3034 79.7272 59.3938 76.4847 56.056C73.2413 52.7179 69.2448 55.216 67.5583 61.6352C65.8719 68.0544 67.134 75.964 70.3773 79.3019C73.6207 82.6397 77.6168 80.1419 79.3034 73.7226Z" fill="#732645"/>
<path fill-rule="evenodd" clip-rule="evenodd" d="M95.1645 81.9223L93.0771 72.2066C80.4651 63.166 67.9205 64.9247 60.2227 67.559L65.8995 73.9919L89.9101 100.332L95.1645 81.9223Z" fill="#732645"/>
<path fill-rule="evenodd" clip-rule="evenodd" d="M96.3592 100.898L90.2571 72.4957C69.9453 57.9338 49.8105 71.3875 49.8105 71.3875L54.6172 112.259L81.2751 105.003L90.7805 102.417L96.3592 100.898Z" fill="#CEDEE7"/>
<path fill-rule="evenodd" clip-rule="evenodd" d="M95.8551 102.818L89.753 74.4161C69.4418 59.8542 49.3066 73.3079 49.3066 73.3079L54.1133 114.179L80.771 106.924L90.2764 104.337L95.8551 102.818Z" fill="#DEEDF2"/>
<path fill-rule="evenodd" clip-rule="evenodd" d="M62.3509 101.96C63.0875 99.1564 62.5363 95.7015 61.1198 94.2436C59.7031 92.7857 57.9577 93.8767 57.2212 96.6806C56.4846 99.4844 57.0358 102.939 58.4523 104.397C59.8689 105.855 61.6143 104.764 62.3509 101.96Z" fill="#9BC3D3"/>
<path fill-rule="evenodd" clip-rule="evenodd" d="M77.9588 93.9219C79.776 87.0052 78.4164 78.4822 74.9215 74.8857C71.4275 71.289 67.1209 73.9806 65.3038 80.8974C63.4867 87.8142 64.8465 96.3371 68.3413 99.9337C71.8363 103.53 76.1425 100.839 77.9588 93.9219Z" fill="#9BC3D3"/>
</g>
<path fill-rule="evenodd" clip-rule="evenodd" d="M74.4307 65.3742L77.3492 59.973C77.6464 59.4217 78.0508 58.9349 78.538 58.5405L82.3394 55.4616C83.0323 54.9003 83.9239 54.6458 84.8087 54.7568C90.1526 55.4269 95.5063 53.5985 99.3243 49.8003L103.865 45.2818L98.4443 37.791L84.6664 42.7535C81.3805 43.937 78.6462 46.2907 76.9867 49.3641L76.4673 50.3246L73.8158 53.0079C73.2077 53.6229 72.7342 54.3573 72.4253 55.1649L69.3274 63.2579C68.8363 65.0416 70.1655 66.8072 72.015 66.8295C72.0598 66.8301 72.1056 66.8295 72.1505 66.8279C73.1122 66.7934 73.9737 66.2207 74.4307 65.3742Z" fill="#732645"/>
<path fill-rule="evenodd" clip-rule="evenodd" d="M40.5073 125.746H44.6415C44.6415 125.746 49.2638 113.752 48.171 108.526L44.4227 106.999L37.1582 122.887L40.5073 125.746Z" fill="#34466B"/>
<path fill-rule="evenodd" clip-rule="evenodd" d="M89.1307 107.669C89.4392 107.456 89.8232 107.384 90.1879 107.47C91.1939 107.706 91.5555 108.951 90.8325 109.69C89.1783 111.38 86.8496 113.739 86.7148 113.766C86.5047 113.808 80.9562 113.304 80.9562 113.304L82.693 112.106L82.6928 112.106L75.7439 113.892L74.5543 112.912L72.9268 111.57L72.841 111.5L72.0449 110.843L76.1356 109.918L78.8963 109.294L82.6222 108.451C83.7638 108.193 84.9282 108.776 85.4057 109.844C85.4536 109.951 85.4855 110.059 85.5032 110.169C85.5032 110.169 85.5032 110.169 85.5033 110.169L89.1307 107.669Z" fill="#F4A48D"/>
<path fill-rule="evenodd" clip-rule="evenodd" d="M76.4405 108.661C76.4405 109.11 76.3312 109.539 76.1354 109.918C75.7175 110.73 74.9045 111.318 73.926 111.404L72.8407 111.499L72.2451 111.552L76.7638 111.67L81.3757 111.79L88.4096 109.577L92.7842 106.501C93.5003 105.997 94.4612 106.021 95.1518 106.558C96.1245 107.316 96.1818 108.767 95.2719 109.598L94.6535 110.163C94.8596 110.827 94.5572 111.569 93.8993 111.882L91.5533 112.997L86.6723 117.458C85.4501 118.575 83.9383 119.326 82.3098 119.625L70.9544 121.708C70.3381 121.821 69.7112 121.866 69.0852 121.84L55.9901 121.31L55.9897 121.31L44.6029 120.921L33.2891 120.533L36.9494 113.101L39.0897 108.756L50.1851 105.561C53.6545 104.342 57.451 104.272 60.9999 105.403L62.9965 106.039C63.9338 106.338 64.9183 106.459 65.8993 106.396L73.5066 105.906C73.6159 105.9 73.7235 105.899 73.8302 105.905C75.1635 105.975 76.2775 107.004 76.4245 108.362C76.4354 108.462 76.4405 108.561 76.4405 108.661Z" fill="#FFC4B8"/>
<path fill-rule="evenodd" clip-rule="evenodd" d="M23.6525 126.378L21.1236 126.239L0 125.073L1.42915 98.2949L26.1331 104.541L26.3346 104.592C26.514 104.398 26.7029 104.219 26.9019 104.056L45.9011 106.616C45.9011 106.616 42.8198 114.556 42.3063 120.687C42.0686 123.525 41.2138 126.277 39.7897 128.743H23.9473C23.9473 128.743 23.8103 127.843 23.6525 126.378Z" fill="#9BC3D3"/>
<defs>
<clipPath id="clip0_1483_32113">
<rect width="48.0947" height="79.9398" fill="white" transform="matrix(1 0 0 -1 49.3066 114.179)"/>
</clipPath>
</defs>
</svg>
