<svg width="160" height="160" viewBox="0 0 160 160" fill="none" xmlns="http://www.w3.org/2000/svg">
<path fill-rule="evenodd" clip-rule="evenodd" d="M99.1795 29.0975C107.327 37.764 118.122 43.4203 129.82 45.5463C136.921 46.8366 143.715 50.2281 149.205 55.721C163.584 70.1075 163.601 93.3079 149.241 107.714C142.906 114.069 134.828 117.62 126.546 118.369C119.455 119.009 112.792 122.105 107.873 127.256C107.809 127.323 107.746 127.389 107.682 127.454C99.2892 136.022 85.7133 136.107 77.2191 127.641C77.1704 127.592 77.1221 127.543 77.0743 127.495C74.8053 125.19 71.5302 124.184 68.3568 124.8C50.264 128.316 30.8065 123.063 16.7932 109.038C-5.59775 86.6286 -5.59775 50.2298 16.7932 27.8201C39.2022 5.39287 75.5331 5.39301 97.9415 27.8204C98.3622 28.2413 98.7749 28.667 99.1795 29.0975Z" fill="#EAF7FE"/>
<path fill-rule="evenodd" clip-rule="evenodd" d="M82.1795 148.53C47.7023 148.53 19.7539 145.959 19.7539 142.787C19.7539 139.617 47.7023 137.045 82.1795 137.045C116.657 137.045 144.605 139.617 144.605 142.787C144.605 145.959 116.657 148.53 82.1795 148.53Z" fill="#CEDEE7"/>
<path fill-rule="evenodd" clip-rule="evenodd" d="M112.383 142.538V144.734L107.99 146.931L105.793 144.734L107.99 142.538H112.383Z" fill="#34466B"/>
<path fill-rule="evenodd" clip-rule="evenodd" d="M132.574 138.755L133.77 140.598L131.282 144.833L128.243 144.187L128.889 141.148L132.574 138.755Z" fill="#34466B"/>
<path d="M116.676 65.888C117.848 65.052 118.609 63.7046 118.609 62.1859C118.609 59.652 116.489 57.5947 113.878 57.5947C111.467 57.5947 109.475 59.3487 109.184 61.6123C109.133 61.8481 109.096 62.0866 109.07 62.325L109.07 62.3254L109.069 62.3306L109.069 62.3325C109.062 62.4038 109.055 62.4751 109.05 62.5462L108.724 66.089L109.465 66.3299L109.473 66.3316L109.473 66.3316C109.492 66.3934 109.502 66.4267 109.502 66.4267L109.522 66.906L109.558 67.8017C109.571 68.0981 109.635 68.3886 109.746 68.6617C109.824 68.8545 109.927 69.0391 110.052 69.2104C110.199 69.4115 110.375 69.5919 110.572 69.7443C110.674 69.8242 110.783 69.8955 110.897 69.9591C110.957 69.9928 111.017 70.0238 111.079 70.0529L111.08 70.0531L110.761 75.6491C110.761 75.6491 112.445 76.1413 114.288 75.7507C115.402 75.5166 116.576 74.9577 117.472 73.7745C117.472 73.7745 116.412 69.3166 116.676 65.888Z" fill="#FFC4B8"/>
<path fill-rule="evenodd" clip-rule="evenodd" d="M109.959 65.864C109.977 66.1245 109.719 66.3214 109.457 66.2479L109.849 64.1851L109.959 65.864ZM117.512 73.569C116.609 74.7462 115.425 75.3023 114.301 75.5352C114.118 71.501 116.748 65.3627 116.748 65.3627C116.356 68.8165 117.512 73.569 117.512 73.569Z" fill="#F4A48D"/>
<path fill-rule="evenodd" clip-rule="evenodd" d="M115.686 72.9412C115.686 72.9412 107.124 74.406 105.041 73.0723C102.514 71.4548 98.8635 63.0864 98.8635 63.0864L94.8086 65.0145C94.8086 65.0145 97.1032 75.8898 100.609 78.6806C103.328 80.8457 112.156 82.6079 114.912 82.8485C118.966 83.2029 122.064 73.1343 115.686 72.9412Z" fill="#008437"/>
<path fill-rule="evenodd" clip-rule="evenodd" d="M75.5952 100.576L29.5848 56.1444C28.2742 54.8788 28.2377 52.7908 29.503 51.4806L55.4712 24.5897C56.7364 23.2795 58.824 23.2436 60.1346 24.5092L106.145 68.9409C107.456 70.2065 107.493 72.2941 106.227 73.6043L80.2591 100.495C78.9938 101.805 76.9057 101.842 75.5952 100.576Z" fill="#EC0000"/>
<path fill-rule="evenodd" clip-rule="evenodd" d="M52.6109 43.2594L49.7238 40.4714C49.2054 39.9708 48.3793 39.9852 47.8787 40.5036L45.0907 43.3907C44.5901 43.909 44.6045 44.7351 45.1229 45.2357L48.01 48.0237C48.5284 48.5243 49.3544 48.5099 49.855 47.9915L52.6431 45.1044C53.1437 44.586 53.1293 43.76 52.6109 43.2594Z" fill="#DEEDF2"/>
<path fill-rule="evenodd" clip-rule="evenodd" d="M73.3433 80.2156L83.0855 89.5602L81.6975 91.0624L71.9553 81.7179L73.3433 80.2156ZM62.3536 69.6029L72.0958 78.9475L70.7078 80.4498L60.9656 71.1052L62.3536 69.6029ZM51.3639 58.9903L61.1061 68.3348L59.7181 69.8371L49.9759 60.4925L51.3639 58.9903ZM40.3105 48.3163L50.0528 57.6608L48.6648 59.1631L38.9226 49.8185L40.3105 48.3163ZM41.0909 57.2336L44.862 60.8125L43.0447 62.7586L39.2737 59.1797L41.0909 57.2336ZM36.2626 52.5714L40.0336 56.1504L38.2163 58.0965L34.4453 54.5176L36.2626 52.5714Z" fill="#CC0000"/>
<path fill-rule="evenodd" clip-rule="evenodd" d="M95.3899 71.0615C95.8319 70.6879 96.1542 70.1793 96.2957 69.5985L96.4852 68.8208L97.2435 65.7094C97.3159 65.4129 97.4354 65.1352 97.5938 64.8846L97.4331 64.9317C96.4827 65.2106 95.7525 65.9751 95.5179 66.9374L95.5175 66.938L94.7308 70.1663C94.7301 70.1653 94.7293 70.1644 94.7285 70.1636C94.4657 71.0721 93.7565 71.7878 92.8438 72.0557L92.6832 72.1028C92.8415 71.8522 92.961 71.5745 93.0334 71.278L92.9622 71.5696L93.6021 68.9443L94.1878 66.5407L94.1709 66.611C94.2431 66.3143 94.3626 66.0366 94.521 65.786L94.3603 65.8331C93.4099 66.112 92.6798 66.8766 92.4449 67.839L92.4448 67.8396L92.4202 67.9408L91.8761 70.1729L91.8761 70.1732L91.6866 70.9508C91.4519 71.9135 90.7217 72.6782 89.771 72.9571L89.6103 73.0044C89.7688 72.7537 89.8882 72.4759 89.9606 72.1794L89.8895 72.4711L90.9085 68.2903L90.9086 68.2897C91.0017 67.908 91.1729 67.5578 91.4046 67.2564C89.3089 66.0009 87.2664 65.7333 86.2893 66.7566C84.9669 68.1418 86.097 71.367 88.8132 73.9604C91.5296 76.5537 94.8035 77.5331 96.1259 76.148C97.103 75.1246 96.7411 73.0968 95.3899 71.0615Z" fill="white"/>
<path fill-rule="evenodd" clip-rule="evenodd" d="M105.823 97.2139C105.823 97.2139 103.477 114.373 103.681 120.122C103.879 125.755 107.651 142.614 107.651 142.614L112.421 142.573C112.421 142.573 115.557 126.39 112.939 120.747C111.12 116.826 116.023 109.168 116.009 102.482C116.002 99.0447 115.513 97.8002 115.513 97.8002L105.823 97.2139Z" fill="#F6C854"/>
<path fill-rule="evenodd" clip-rule="evenodd" d="M111.629 96.3093C111.629 96.3093 112.528 106.628 113.167 111.442C113.763 115.923 114.779 117.79 115.273 119.599C115.538 120.569 115.946 121.491 116.483 122.339L128.471 141.42L132.728 138.717C132.728 138.717 129.219 124.571 126.155 121.391C123.684 118.825 122.65 117.884 122.65 114.258C122.65 109.935 123.495 99.0316 121.281 97.1474C119.067 95.2627 111.629 96.3093 111.629 96.3093Z" fill="#F6C854"/>
<path fill-rule="evenodd" clip-rule="evenodd" d="M112.757 73.3437C113.145 73.3103 113.401 73.2783 113.696 73.2211C114.248 73.114 115.105 72.881 117.011 70.8979C117.011 70.8979 118.21 71.09 120.125 76.3539C121.701 80.6864 122.438 99.3618 122.438 99.3618C122.438 99.3618 109.58 104.104 104.863 100.037C104.863 100.037 107.503 81.7761 107.726 80.8699C108.226 78.8387 109.692 75.2214 110.886 73.4152C111.388 73.4318 112.012 73.408 112.757 73.3437Z" fill="#63BA68"/>
<path fill-rule="evenodd" clip-rule="evenodd" d="M96.7731 78.6081C93.9619 77.6665 92.0085 76.6528 91.9028 76.138C91.7343 75.3206 90.2983 73.8366 89.6002 73.2232C89.3939 73.0422 88.9429 72.6292 88.7484 72.0766C88.5809 71.6017 88.2112 71.3793 88.182 71.9079C88.1524 72.4365 88.2918 72.7263 88.7841 73.4149C89.0236 73.7492 88.9767 73.8509 88.9087 73.9235C88.7882 74.0513 88.0717 73.4747 87.3307 72.6793C86.5658 71.8578 86.1016 71.4008 85.7032 71.3466C85.3948 71.3052 85.1456 71.2802 85.6128 71.8507C86.0806 72.4206 87.3139 73.306 87.2056 73.6204C87.0963 73.9353 86.2772 73.1378 85.8324 72.6333C85.3871 72.1282 85.0399 71.3604 84.6982 71.5465C84.4643 71.6743 84.4945 72.005 85.0189 72.7243C85.5439 73.443 86.8762 74.243 86.72 74.4552C86.5642 74.6673 85.3366 73.5606 85.0792 73.2334C84.8121 72.895 84.4602 72.9528 84.7809 73.6209C85.1011 74.2901 85.6082 74.5329 86.2205 75.0323C86.8323 75.5323 87.222 75.6503 87.1535 75.8523C87.0861 76.0486 86.6485 75.8942 86.1501 75.3728C85.6516 74.8519 85.2222 74.3764 85.165 74.7363C85.1078 75.0962 85.595 75.8809 86.6163 76.6415C87.6382 77.4017 88.9455 78.4374 90.1027 78.3832C90.1027 78.3832 90.7094 79.0784 93.5033 82.0321C100.191 89.1034 96.934 82.6393 97.1138 80.8456C100.874 81.0235 97.628 78.8944 96.7731 78.6081Z" fill="#FFC4B8"/>
<path fill-rule="evenodd" clip-rule="evenodd" d="M112.487 75.1466C112.487 75.1466 106.023 80.9457 103.538 80.9316C100.527 80.9145 92.9283 75.804 92.9283 75.804L90.5312 79.5911C90.5312 79.5911 98.3309 87.5386 102.803 88.0239C106.273 88.3994 114.701 85.1797 117.165 83.9137C120.791 82.0511 117.995 71.9093 112.487 75.1466Z" fill="#63BA68"/>
<path fill-rule="evenodd" clip-rule="evenodd" d="M93.5087 58.5759C93.5087 58.5759 93.6553 58.8855 94.2947 58.968C94.9342 59.0505 96.1628 59.0378 96.6361 60.0341L96.7691 60.1449C96.7691 60.1449 96.9987 59.6365 96.9151 59.3543L96.9141 59.3528C96.898 59.2083 96.8391 59.0452 96.7076 58.8654C96.6417 58.7751 96.5415 58.6916 96.4186 58.6159C96.4126 58.4362 96.3547 58.2316 96.1855 58.0001C96.0818 57.8585 95.9035 57.732 95.6845 57.6221C95.6266 57.3438 95.4609 56.9584 94.9836 56.6444C94.9362 56.6132 94.8793 56.5854 94.8179 56.559C94.8244 56.4579 94.7499 56.3046 94.4634 56.0662C94.0118 55.6917 92.3899 55.638 92.4342 56.0614C92.4342 56.0614 92.5812 56.2318 92.9911 56.2469C93.2096 56.2547 93.4775 56.2845 93.7766 56.3666C92.9871 56.3363 92.1557 56.5062 92.1563 56.9106C92.1563 56.9106 92.3365 57.1557 92.906 57.124C93.1668 57.1093 93.6548 57.1284 94.1628 57.2241C93.3713 57.1499 92.6427 57.27 92.5636 57.6719C92.5636 57.6719 92.7293 58.023 93.4533 58.1163C93.6442 58.1407 93.8823 58.1588 94.1371 58.1915C93.7988 58.2428 93.5505 58.3644 93.5087 58.5759Z" fill="#FFC4B8"/>
<path fill-rule="evenodd" clip-rule="evenodd" d="M118.372 63.7133C118.687 63.1381 119.546 62.0804 119.673 61.1492C119.958 59.0743 118.36 57.6525 117.651 57.2208C117.42 57.0727 117.135 56.9356 116.747 56.7881C115.923 55.795 114.087 55.6747 114.466 55.8302C109.733 55.3183 108.242 59.0952 106.892 58.8606C107.992 60.3309 109.233 60.1309 110.847 59.7509C111.526 60.339 111.849 61.0973 111.892 61.825C111.885 62.0594 111.857 62.5786 111.745 63.0407C111.594 63.6598 112.12 63.9022 112.352 63.8355C112.585 63.7694 112.518 63.84 112.979 63.3454C113.335 62.9644 113.441 62.6729 113.663 62.3945C114.083 61.9826 114.59 61.6287 115.04 61.7274C115.636 61.8594 115.488 62.8125 115.131 63.5006C114.94 63.8685 114.972 64.2353 115.102 64.4617C115.388 64.9617 115.91 64.662 116.532 65.1177C117.04 65.4896 117.372 66.1263 117.621 66.3918C117.83 65.0426 117.901 64.5739 118.372 63.7133Z" fill="black"/>
<path fill-rule="evenodd" clip-rule="evenodd" d="M69.5312 84.796C69.5312 84.796 72.732 82.8098 73.1283 83.1804C73.5245 83.5506 72.1856 84.6137 72.1856 84.6137C72.1856 84.6137 76.0948 88.1392 75.9551 88.6638C75.8154 89.1883 69.6866 86.6887 69.6866 86.6887L69.5312 84.796Z" fill="#F4A48D"/>
<path fill-rule="evenodd" clip-rule="evenodd" d="M56.254 102.547L56.5273 120.506L53.0108 143.209L50.2436 143.331L48.8615 122.304L43.9841 101.619L56.254 102.547Z" fill="#444444"/>
<path fill-rule="evenodd" clip-rule="evenodd" d="M49.4023 103.435L46.7218 121.162L40.283 143.045L37.5258 142.783L38.8547 121.809L37.4293 100.762L49.4023 103.435Z" fill="#444444"/>
<path fill-rule="evenodd" clip-rule="evenodd" d="M43.8572 68.2196C41.6598 67.3667 40.0938 65.1685 40.0938 62.594C40.0938 59.28 42.6887 56.5894 45.885 56.5894C48.4141 56.5894 50.5668 58.2742 51.3552 60.6193L51.365 60.6217L52.8778 65.301L52.7387 65.357L52.666 65.3862L51.7718 65.567L51.7679 68.0247L51.7242 68.1736C51.6535 68.3801 51.5557 68.5804 51.4308 68.7686C51.2852 68.9887 51.1048 69.1897 50.9003 69.3632C50.7937 69.4542 50.6793 69.5366 50.5587 69.6108C50.4947 69.6509 50.4308 69.6875 50.3652 69.7221C50.3139 69.7497 50.2623 69.7754 50.2094 69.7991L50.048 69.8731L50.562 75.2922C50.562 75.2922 47.922 75.8802 46.6998 75.6438L46.5366 75.6098L46.5332 75.6092C45.3667 75.3739 44.2081 75.0035 43.2289 73.8741C43.2289 73.8741 43.2316 73.8615 43.2367 73.8372L43.2289 73.8286C43.2289 73.8286 43.3206 73.4181 43.435 72.7479C43.6097 71.6786 43.8354 69.9776 43.8572 68.2196Z" fill="#F4A48D"/>
<path fill-rule="evenodd" clip-rule="evenodd" d="M49.8645 71.6277C48.939 71.3834 46.9862 70.4228 45.5195 68.8601L49.7054 70.1677C49.7054 70.1677 49.7855 70.9139 49.8645 71.6277ZM52.0888 65.139C51.7111 65.2493 51.324 64.9993 51.3342 64.6518L51.4 62.4116L52.0888 65.139Z" fill="#A66555"/>
<path fill-rule="evenodd" clip-rule="evenodd" d="M43.9838 69.2514L43.076 68.7532C41.9891 68.1287 41.0686 67.1976 40.4656 66.0099C38.8141 62.7563 40.1679 58.8071 43.4893 57.1889C46.4795 55.7322 50.0479 56.6625 51.932 59.2406L51.1854 59.8341C51.0159 59.7856 50.7353 59.7081 50.3916 59.621C49.1568 59.3019 47.1091 58.8506 46.4681 59.1573C45.5294 59.6067 45.5732 61.2987 45.7157 62.6412C45.8551 63.9543 45.9809 64.5245 45.374 64.7824C45.1515 64.8769 45.014 63.7679 44.5036 63.4346C43.9645 63.0825 43.276 63.441 43.3768 64.6467C43.5436 65.1946 43.672 65.7346 43.7683 66.262C43.9296 67.2052 43.9887 68.2339 43.9838 69.2514Z" fill="#767676"/>
<path fill-rule="evenodd" clip-rule="evenodd" d="M40.423 142.474H37.549L37.4297 145.318L40.888 145.616H43.4162L42.9458 144.297L42.4345 143.968L40.423 142.474Z" fill="black"/>
<path fill-rule="evenodd" clip-rule="evenodd" d="M53.251 141.616L56.6719 144.045L56.4014 145.482L49.6876 144.796L50.2577 141.616H53.251Z" fill="black"/>
<path fill-rule="evenodd" clip-rule="evenodd" d="M54.1765 76.9224C54.1765 76.9224 54.7258 86.9695 70.3139 84.1988L69.8056 87.0098C69.8056 87.0098 54.5813 93.9046 47.4576 77.7929C47.3872 77.6335 46.8398 78.1123 46.8398 78.1123C47.6543 77.7269 51.9808 78.1243 54.1765 76.9224Z" fill="#767676"/>
<path fill-rule="evenodd" clip-rule="evenodd" d="M37.5965 81.6155C36.4299 88.3808 35.6657 102.562 36.1534 106.625C36.1534 106.625 49.7485 109.212 57.533 105.724C57.533 105.724 56.9717 86.2846 54.1749 76.9971C53.5483 74.916 51.7475 73.3921 49.592 73.1097C49.2146 73.0604 48.801 73.0211 48.3483 72.9951C43.1055 72.697 38.4887 76.4419 37.5965 81.6155Z" fill="#767676"/>
<path fill-rule="evenodd" clip-rule="evenodd" d="M49.0981 96.9067C53.3931 100.404 66.2781 89.9122 66.2781 89.9122L65.2042 87.76L53.6616 90.9884L47.3621 80.8818C47.3621 80.8818 44.409 77.6537 41.4565 79.2679C38.5037 80.8818 40.1141 84.1102 40.1141 84.1102C40.1141 84.1102 44.8032 93.4094 49.0981 96.9067Z" fill="#767676"/>
<path fill-rule="evenodd" clip-rule="evenodd" d="M43.5195 72.8428L54.7106 87.6991L49.9616 73.054L43.5195 72.8428Z" fill="white"/>
<path fill-rule="evenodd" clip-rule="evenodd" d="M42.5625 74.3747L48.0333 76.3635L49.2959 73.8519L50.4144 74.807L50.8296 73.1505L49.7415 72.1914C49.7415 72.1914 49.0119 73.3371 46.6961 72.9057C44.4545 72.488 43.5216 72.29 43.5216 72.29L42.5625 74.3747Z" fill="white"/>
<path fill-rule="evenodd" clip-rule="evenodd" d="M48.4062 75.3343L49.666 76.4674L49.9707 81.62L54.7198 87.6485L52.3804 80.5452L50.2361 76.3723L50.2869 74.5752L49.227 73.6201L48.4062 75.3343Z" fill="#EC0000"/>
<path fill-rule="evenodd" clip-rule="evenodd" d="M65.293 87.93C65.293 87.93 65.3788 86.4029 65.5886 85.9352C65.8357 85.3844 66.9022 83.6759 66.9983 84.2228C67.0941 84.7699 66.6645 85.6247 66.6645 85.6247C66.6645 85.6247 69.3245 83.9959 69.9662 84.447C70.6076 84.8979 68.5012 88.27 67.9285 88.9676C67.3558 89.6653 66.1858 89.9293 66.1858 89.9293L65.293 87.93Z" fill="#F4A48D"/>
</svg>
