<svg width="160" height="161" viewBox="0 0 160 161" fill="none" xmlns="http://www.w3.org/2000/svg">
<path fill-rule="evenodd" clip-rule="evenodd" d="M113.304 115.33L98.6964 140.63H16.7945C5.42274 140.63 -1.68466 128.32 4.00106 118.472L24.0306 83.7781C33.2995 67.7191 52.1675 59.8467 70.1033 64.5559L94.829 71.0472C114.083 76.0988 123.258 98.0865 113.304 115.33Z" fill="#2A8FEC"/>
<path fill-rule="evenodd" clip-rule="evenodd" d="M105.93 116.414H81.0302C80.321 116.414 79.7461 115.839 79.7461 115.13V100.577C79.7461 99.8681 80.321 99.2935 81.0302 99.2935H105.93C106.639 99.2935 107.214 99.8681 107.214 100.577V115.13C107.214 115.839 106.639 116.414 105.93 116.414Z" fill="white"/>
<path fill-rule="evenodd" clip-rule="evenodd" d="M83.9942 106.578H82.4318C82.1513 106.578 81.9238 106.806 81.9238 107.086V108.649C81.9238 108.929 82.1513 109.156 82.4318 109.156H83.9942C84.2748 109.156 84.5022 108.929 84.5022 108.649V107.086C84.5022 106.806 84.2748 106.578 83.9942 106.578Z" fill="#CEDEE7"/>
<path fill-rule="evenodd" clip-rule="evenodd" d="M81.9238 112.105H87.1837V111.314H81.9238V112.105ZM83.9694 114.632H81.941V113.6H83.9694V114.632ZM86.582 114.632H84.5537V113.6H86.582V114.632ZM93.1656 112.105H87.9057V111.314H93.1656V112.105ZM93.8531 112.105H99.113V111.314H93.8531V112.105ZM105.06 112.105H99.8005V111.314H105.06V112.105Z" fill="#CEDEE7"/>
<path fill-rule="evenodd" clip-rule="evenodd" d="M103.492 102.796C103.515 102.572 103.467 102.342 103.35 102.141L103.193 101.872L102.564 100.796C102.504 100.693 102.462 100.583 102.439 100.47L102.406 100.527C102.216 100.862 102.218 101.273 102.412 101.606L102.413 101.606L103.065 102.723C103.065 102.723 103.064 102.723 103.064 102.723C103.236 103.049 103.231 103.441 103.048 103.763L103.016 103.819C102.992 103.706 102.95 103.596 102.891 103.494L102.949 103.594L102.419 102.686L101.933 101.855L101.947 101.879C101.887 101.776 101.845 101.666 101.822 101.553L101.79 101.61C101.599 101.945 101.601 102.357 101.796 102.69L101.796 102.69L101.816 102.725L102.268 103.497L102.268 103.497L102.425 103.766C102.62 104.099 102.622 104.511 102.431 104.846L102.399 104.903C102.375 104.79 102.334 104.68 102.274 104.577L102.333 104.678L101.488 103.232L101.487 103.231C101.41 103.099 101.364 102.955 101.347 102.808C100.421 103.023 99.7762 103.5 99.7793 104.051C99.7836 104.797 100.972 105.394 102.434 105.386C103.896 105.378 105.078 104.767 105.074 104.021C105.07 103.47 104.421 103 103.492 102.796Z" fill="#2A8FEC"/>
<path fill-rule="evenodd" clip-rule="evenodd" d="M83.4664 111.674L87.236 115.343C88.0245 116.11 89.2752 116.127 90.0848 115.382C90.9158 114.618 90.9822 113.329 90.2339 112.483L81.6457 102.775L86.8073 107.032C87.6741 107.747 88.9467 107.667 89.7177 106.85C90.5663 105.95 90.4751 104.519 89.5192 103.735L82.2361 97.7567C81.1225 96.8428 79.6474 96.4985 78.2445 96.8251L69.6884 100.499C67.2638 101.54 65.3097 103.441 64.2022 105.837L59.365 116.297C59.3641 116.298 59.3637 116.298 59.3637 116.298L54.5316 117.678C45.6107 120.223 36.279 121.005 27.0584 119.98L24.6195 119.71C24.6195 119.71 14.742 120.121 13.9785 133.174L23.0368 134.446C35.7027 136.228 48.6137 134.348 60.247 129.031L67.251 125.704C68.3718 125.172 69.4611 124.575 70.5122 123.918C71.3673 123.384 72.1984 122.81 73.0012 122.197L75.4139 120.356L75.5816 120.175L76.7865 121.342C77.2651 121.806 77.9878 121.909 78.5767 121.597C79.177 121.279 79.4978 120.605 79.3661 119.939L78.7398 116.77L79.7366 115.695C80.8271 117.082 82.0107 118.602 82.8627 119.699C83.5099 120.532 84.7259 120.646 85.5164 119.947C86.1441 119.392 86.3144 118.482 85.9296 117.738L83.0354 112.139L83.4664 111.674Z" fill="#723846"/>
<path fill-rule="evenodd" clip-rule="evenodd" d="M142.767 144.07C142.623 144.07 142.479 144.068 142.336 144.063L134.072 143.761L138.969 137.389L150.414 139.395L149.258 142.21L148.132 142.783C146.468 143.63 144.63 144.07 142.767 144.07Z" fill="#3B101C"/>
<path fill-rule="evenodd" clip-rule="evenodd" d="M138.137 145.046L157.518 111.478C158.433 109.893 157.289 107.912 155.46 107.912H112.635C111.785 107.912 111.001 108.365 110.576 109.101L91.195 142.67C90.2802 144.254 91.4238 146.235 93.2536 146.235H136.079C136.928 146.235 137.713 145.782 138.137 145.046Z" fill="#DEEDF2"/>
<path fill-rule="evenodd" clip-rule="evenodd" d="M136.845 137.004V136.741L135.507 136.762C134.187 136.783 133.081 135.771 132.984 134.456L132.962 134.161C132.87 132.932 133.694 131.82 134.897 131.549L134.882 130.397C134.858 128.599 136.183 127.066 137.967 126.832L143.835 126.062L143.739 125.718C143.186 123.744 144.31 121.69 146.27 121.091L152.183 119.283C153.088 119.007 154.061 119.419 154.491 120.262L154.93 121.12C155.418 122.075 155.044 123.246 154.092 123.74L152.006 124.823L152.482 125.741C153.28 127.283 153.32 129.108 152.592 130.685L152.301 131.313C153.192 132.621 153.292 134.312 152.562 135.716L152.242 136.328L152.092 138.421C151.968 140.13 150.861 141.61 149.257 142.21L137.939 138.514C137.286 138.301 136.845 137.692 136.845 137.004Z" fill="#723846"/>
<path fill-rule="evenodd" clip-rule="evenodd" d="M76.076 42.3203C74.7728 39.8492 73.9314 37.0824 73.6762 34.1246C73.4597 31.615 73.6826 29.1616 74.2821 26.8551C75.5924 21.8018 78.7078 17.4186 82.9498 14.5026C85.9234 12.4555 89.4503 11.1292 93.3016 10.7978C105.166 9.77345 115.61 18.5574 116.632 30.4179C116.71 31.3058 116.072 36.9977 115.977 37.8395L115.746 39.8694L115.18 58.1715L112.473 57.5123C112.369 57.7013 112.261 57.8888 112.149 58.0747C111.374 59.375 110.416 60.5689 109.297 61.6191L107.197 63.6071L105.873 64.8564L105.745 64.9741L105.68 65.0377C104.247 66.3911 102.541 67.8702 100.701 69.2225C98.3819 70.9266 95.5535 71.332 93.0312 70.6277C92.6561 71.3868 92.2816 72.2281 91.9453 73.1281C91.4838 74.3592 91.1939 75.6475 91.0258 76.9505C91.0258 76.9505 90.6183 78.8835 90.552 78.9084C87.8656 83.4412 82.5687 86.0682 77.0804 85.1005C70.6223 83.9618 66.1156 78.2361 66.3232 71.8639C66.2958 71.8429 66.2821 71.8258 66.2858 71.8137C68.0411 66.2646 67.133 69.3807 70.141 63.1402C71.4199 60.4829 73.1771 58.6665 75.4615 50.9613C75.8566 49.6232 76.7392 45.2854 76.9668 44.4333C76.9789 44.3883 76.9923 44.3275 77.0068 44.2527L76.076 42.3203Z" fill="#732645"/>
<path fill-rule="evenodd" clip-rule="evenodd" d="M82.6832 56.0438L87.4985 66.0485C88.6671 68.4044 90.7147 69.9778 93.0191 70.6245C93.0232 70.6276 93.0257 70.6283 93.0267 70.6266C92.1496 72.3974 91.7157 73.7835 91.7157 73.7835C87.7255 71.1953 85.5338 67.0307 82.6832 56.0438ZM111.893 57.3858L109.605 56.8242C108.974 56.0494 108.706 54.9857 109.001 53.9225L111.225 45.8613L111.893 57.3858Z" fill="#3B101C"/>
<g clip-path="url(#clip0_1481_42749)">
<path fill-rule="evenodd" clip-rule="evenodd" d="M79.1245 32.3602C77.6338 32.9084 76.756 35.3329 77.1332 38.0706C77.1849 38.4465 77.2578 38.8103 77.3493 39.1587C76.533 39.6934 75.2627 41.0402 75.2627 41.0402L75.2641 41.0427C73.8086 38.6102 72.809 35.8571 72.3968 32.8819C72.0458 30.3495 72.1482 27.8531 72.6452 25.4851C73.7285 20.2981 76.696 15.6978 80.8926 12.5272C83.8348 10.3022 87.3815 8.77994 91.3115 8.24789C98.5486 7.26764 105.445 9.86401 110.176 14.6677L116.859 14.8073C118.201 14.8355 118.843 16.451 117.878 17.3738L118.561 17.9358C120.042 19.1524 120.579 21.1646 119.897 22.9453L115.904 33.1505C115.859 32.7523 115.782 32.3602 115.676 31.9777H115.675C115.473 31.2476 115.162 30.5518 114.755 29.913L114.755 29.9122L114.709 29.8419L114.664 29.7726L114.662 29.771L114.616 29.7027L114.615 29.7005L114.568 29.6325L114.521 29.5665L114.517 29.5614L114.47 29.4963L114.468 29.4937L114.419 29.4276L114.371 29.3639L114.365 29.3567L114.316 29.2939L114.315 29.2924L114.266 29.2306L114.262 29.2256L114.213 29.1653L114.206 29.157L114.156 29.0964L114.105 29.0367L114.098 29.0288L114.048 28.9711L114.041 28.9627L113.989 28.9043L113.936 28.8467L113.928 28.8372L113.876 28.7817L113.869 28.774L113.818 28.7206L113.814 28.7161L113.761 28.6614L113.751 28.6512L113.697 28.5974L113.691 28.5913L113.64 28.5408L113.632 28.5332L113.578 28.4811L113.567 28.4708L113.511 28.4184L113.508 28.4152L113.454 28.3652L113.444 28.3562L113.388 28.306L113.377 28.2963L113.32 28.2458L113.319 28.2451L113.261 28.1948L113.249 28.1849L113.192 28.1366L113.182 28.1281L113.126 28.0823L113.12 28.0775L113.061 28.0298L113.048 28.0198L112.989 27.9731L112.98 27.9664L112.924 27.9231L112.915 27.9161L112.854 27.8706L112.842 27.861L112.78 27.8157L112.774 27.8116L112.715 27.7691L112.703 27.761L112.642 27.7176L112.629 27.7088L112.564 27.6646L112.447 27.5857L112.429 27.574L112.317 27.4997L112.296 27.4858L112.183 27.412L112.166 27.4011L112.049 27.3256L112.047 27.3242L111.929 27.2491L111.91 27.2375L111.797 27.1664L111.775 27.153L111.66 27.0823L111.644 27.0723L111.526 27.0008L111.522 26.9983L111.403 26.9267L111.384 26.9154L111.269 26.8475L111.247 26.8348L111.13 26.7671L111.115 26.758L110.996 26.6903L110.99 26.6868L110.87 26.6188L110.85 26.6078L110.733 26.543L110.712 26.531L110.593 26.4664L110.578 26.4582L110.459 26.394L110.451 26.3898L110.33 26.3254L110.31 26.3148L110.191 26.2531L110.17 26.2419L110.05 26.1801L110.035 26.173L109.915 26.1121L109.906 26.1075L109.783 26.0465L109.763 26.0363L109.643 25.9777L109.621 25.9674L109.499 25.9086L109.486 25.9024L109.364 25.8447L109.354 25.8398L109.23 25.7822L109.209 25.7725L109.088 25.7171L109.067 25.7075L108.943 25.6516L108.932 25.6466L108.808 25.5918L108.797 25.5869L108.671 25.5325L108.65 25.5235L108.527 25.4711L108.507 25.4624L108.38 25.4093L108.371 25.4055L108.245 25.3535L108.233 25.3488L108.106 25.2975L108.086 25.2893L107.961 25.2398L107.942 25.2321L107.812 25.1819L107.806 25.1793L107.676 25.1299L107.664 25.1254L107.536 25.0773L107.516 25.0699L107.389 25.0233L107.371 25.0167L107.239 24.9693L107.236 24.968L107.102 24.921L107.091 24.9169L106.961 24.8719L106.941 24.8654L106.812 24.8217L106.796 24.8162L106.661 24.7715L106.524 24.727L106.512 24.7234L106.38 24.6815L106.362 24.6759L106.231 24.6351L106.216 24.6307L106.079 24.5891L105.94 24.5478L105.93 24.5449L105.795 24.5059L105.779 24.5014L105.644 24.4634L105.633 24.4602L105.493 24.4217L105.351 24.3837L105.343 24.3815L105.205 24.3455L105.192 24.3419L105.054 24.3067L105.046 24.3048L104.903 24.2694L104.759 24.2346L104.753 24.2331L104.612 24.2001L104.601 24.1976L104.459 24.1653L104.456 24.1645L104.309 24.1321L104.162 24.1007L104.159 24.0999L104.014 24.0699L104.007 24.0684C103.859 24.0382 103.711 24.0093 103.562 23.9819C103.095 29.1493 99.0044 33.3958 93.6723 33.9425C87.3762 34.5881 81.9884 33.3885 81.788 33.3431L81.7693 33.3216L81.7564 33.3069L81.7388 33.2873L81.7247 33.2715L81.7081 33.2533L81.6928 33.2366L81.6772 33.2198L81.6607 33.2022L81.646 33.1867L81.6285 33.1683L81.6146 33.1541L81.5961 33.135L81.5829 33.1218L81.5635 33.1022L81.5511 33.09L81.5307 33.07L81.519 33.0588L81.4979 33.0384L81.4867 33.0279L81.4648 33.0073L81.4542 32.9976L81.4315 32.9768L81.4215 32.9678L81.3981 32.9468L81.3886 32.9384L81.3646 32.9174L81.3555 32.9095L81.3309 32.8886L81.3221 32.8812L81.2971 32.8603L81.2886 32.8534L81.2631 32.8327L81.2548 32.8262L81.2289 32.8055L81.221 32.7994L81.1947 32.7791L81.1868 32.7732L81.1603 32.7531L81.1526 32.7475L81.1258 32.7278L81.1182 32.7224L81.0911 32.7031L81.0835 32.6979L81.0564 32.679L81.0487 32.6739L81.0214 32.6555L81.0138 32.6505L80.9864 32.6326L80.9787 32.6277L80.9512 32.6103L80.9434 32.6055L80.916 32.5887L80.908 32.5839L80.8806 32.5677L80.8724 32.563L80.8451 32.5473L80.8367 32.5426L80.8095 32.5274L80.8009 32.5228L80.7738 32.5083L80.765 32.5037L80.738 32.4898L80.7289 32.4853L80.7022 32.472L80.6927 32.4673L80.6661 32.4547L80.6564 32.4502L80.6301 32.4381L80.6199 32.4336L80.5939 32.4222L80.5833 32.4177L80.5577 32.4069L80.5468 32.4026L80.5214 32.3923L80.51 32.388L80.4849 32.3784L80.4732 32.3741L80.4484 32.3651L80.4363 32.3609L80.4119 32.3525L80.3993 32.3484L80.3752 32.3405L80.3623 32.3366L80.3386 32.3293L80.3251 32.3255L80.3018 32.3188L80.288 32.315L80.265 32.3088L80.2507 32.3053L80.2281 32.2997L80.2134 32.2963L80.1911 32.2912L80.176 32.288L80.1542 32.2834L80.1386 32.2804L80.1171 32.2763L80.1012 32.2735L80.08 32.27L80.0637 32.2675L80.0429 32.2643L80.0261 32.2621L80.0058 32.2593L79.9886 32.2573L79.9686 32.2551L79.951 32.2535L79.9314 32.2516L79.9134 32.2502L79.8941 32.2488L79.8757 32.2477L79.8567 32.2467L79.8381 32.2461L79.8194 32.2454L79.8004 32.2451L79.7821 32.2448L79.7626 32.2449L79.7448 32.2449L79.7248 32.2454L79.7074 32.2458L79.6869 32.2467L79.67 32.2475L79.6488 32.2488L79.6326 32.2499L79.6102 32.2518L79.5952 32.2531L79.5703 32.2557L79.5577 32.257L79.5204 32.2616L79.4845 32.2669L79.4752 32.2684L79.4421 32.274L79.4394 32.2744L79.4041 32.2812L79.395 32.283L79.3641 32.2897L79.3594 32.2907L79.3249 32.2989L79.3157 32.3012L79.2868 32.3087L79.2802 32.3105L79.2467 32.32L79.2373 32.3228L79.2105 32.3309L79.2019 32.3336L79.1697 32.3442L79.1593 32.3478L79.1353 32.3563L79.1245 32.3602Z" fill="#3B101C"/>
</g>
<path fill-rule="evenodd" clip-rule="evenodd" d="M81.9059 89.2515C81.9059 89.2515 75.9861 64.2575 68.9352 60.8826L62.125 64.619L64.8973 83.0207L81.9059 89.2515Z" fill="#2A8FEC"/>
<defs>
<clipPath id="clip0_1481_42749">
<rect width="48.4902" height="33.4415" fill="white" transform="translate(72.1895 8.04272)"/>
</clipPath>
</defs>
</svg>
