<svg width="160" height="160" viewBox="0 0 160 160" fill="none" xmlns="http://www.w3.org/2000/svg">
<path fill-rule="evenodd" clip-rule="evenodd" d="M148.648 143.273C148.648 147.115 117.667 150.229 79.4491 150.229C41.2314 150.229 10.25 147.115 10.25 143.273C10.25 139.43 41.2314 136.316 79.4491 136.316C117.667 136.316 148.648 139.43 148.648 143.273Z" fill="#CEDEE7"/>
<path fill-rule="evenodd" clip-rule="evenodd" d="M99.1795 29.5624C107.327 38.2289 118.122 43.8852 129.82 46.0111C136.921 47.3015 143.715 50.693 149.205 56.1858C163.584 70.5724 163.601 93.7728 149.241 108.179C142.906 114.534 134.828 118.085 126.546 118.833C119.455 119.474 112.792 122.57 107.873 127.721C107.809 127.788 107.746 127.853 107.682 127.919C99.2892 136.487 85.7133 136.572 77.2191 128.105C77.1704 128.057 77.1221 128.008 77.0743 127.96C74.8053 125.655 71.5302 124.648 68.3568 125.265C50.264 128.781 30.8065 123.527 16.7932 109.503C-5.59775 87.0934 -5.59775 50.6946 16.7932 28.2849C39.2022 5.85771 75.5331 5.85785 97.9415 28.2852C98.3622 28.7061 98.7749 29.1319 99.1795 29.5624Z" fill="#EAF7FE"/>
<path fill-rule="evenodd" clip-rule="evenodd" d="M90.2878 18.6643C89.6866 13.7808 85.5245 10 80.48 10C75.0225 10 70.598 14.4255 70.598 19.8849C70.598 20.7806 70.717 21.6485 70.9404 22.4735C70.8565 22.4746 70.7733 22.4775 70.6906 22.4824L70.5976 22.4747V22.4886C67.7671 22.7013 65.536 25.0663 65.536 27.9524C65.536 30.8384 67.7671 33.2034 70.5976 33.4161V33.4325H106.577V33.4319H106.577C108.782 33.4319 110.57 31.6432 110.57 29.4369C110.57 27.2306 108.782 25.4421 106.577 25.4421H106.577V25.4419L97.4613 24.6901C97.5029 24.4178 97.5245 24.1389 97.5245 23.8549C97.5245 20.8288 95.0722 18.3756 92.047 18.3756C91.4317 18.3756 90.84 18.4771 90.2878 18.6643Z" fill="#9BC3D3"/>
<path fill-rule="evenodd" clip-rule="evenodd" d="M32.4151 39.7954C32.855 36.2092 35.9004 33.4326 39.5915 33.4326C43.5848 33.4326 46.8222 36.6826 46.8222 40.6919C46.8222 41.3496 46.7351 41.9869 46.5717 42.5928C46.6331 42.5936 46.694 42.5958 46.7545 42.5994L46.8226 42.5937V42.6039C48.8937 42.7601 50.5262 44.4969 50.5262 46.6164C50.5262 48.7358 48.8937 50.4726 46.8226 50.6288V50.6409H20.4963V50.6404H20.4962C18.8825 50.6404 17.5742 49.3268 17.5742 47.7066C17.5742 46.0863 18.8825 44.7729 20.4962 44.7729H20.4963V44.7728L27.1662 44.2207C27.1357 44.0207 27.1199 43.8159 27.1199 43.6073C27.1199 41.385 28.9143 39.5834 31.1278 39.5834C31.5781 39.5834 32.011 39.658 32.4151 39.7954Z" fill="#CEDEE7"/>
<path fill-rule="evenodd" clip-rule="evenodd" d="M92.6127 62.8726C92.5999 62.8578 96.9561 60.0425 97.5516 58.195C97.2048 57.8857 96.8942 57.5268 96.6318 57.1211C95.0642 54.6974 95.8056 51.5144 98.2864 50.0175C100.767 48.5206 104.054 49.2731 105.622 51.6968C106.258 52.681 106.514 53.7904 106.427 54.8614L106.428 54.862L106.665 58.4241L105.704 58.4045L105.113 60.9488C104.959 61.6118 104.392 62.1059 103.696 62.1846L102.126 62.3621L102.126 62.3622L102.126 62.3623C102.126 62.3623 102 62.5611 101.785 62.8769L98.9517 66.7848L98.9486 66.7839C98.2151 67.377 96.9611 67.7289 95.9115 67.4866C93.4699 66.9229 92.4776 64.8354 92.6127 62.8726Z" fill="#FFC4B8"/>
<path fill-rule="evenodd" clip-rule="evenodd" d="M101.401 63.4885C100.67 63.1467 99.6503 62.3649 98.6854 60.5784L101.958 62.3392C101.958 62.3392 101.746 62.8021 101.401 63.4885ZM105.92 58.2805C105.544 58.3534 105.226 58.1 105.299 57.7865L105.775 55.7654L105.92 58.2805Z" fill="#F4A48D"/>
<path fill-rule="evenodd" clip-rule="evenodd" d="M96.1411 56.9734C95.9774 56.2558 95.3979 54.872 95.5121 53.7979C95.7665 51.4044 97.7235 50.1758 98.54 49.8541C98.8084 49.741 99.1263 49.6523 99.5508 49.5761C100.627 48.6508 102.483 48.9372 102.066 49.0247C106.903 49.5363 107.407 54.1164 108.809 54.1628C107.335 55.5601 106.153 55.051 104.648 54.2543C103.82 54.7584 103.302 55.535 103.072 56.3419C103.018 56.6064 102.911 57.1954 102.903 57.7397C102.893 58.4689 102.307 58.6202 102.093 58.492C101.879 58.3644 101.928 58.4591 101.597 57.7982C101.342 57.2891 101.312 56.9377 101.163 56.5743C100.852 56.0157 100.441 55.5024 99.9679 55.5099C99.3414 55.5213 99.2409 56.6244 99.4177 57.4785C99.5128 57.9352 99.3854 58.3394 99.1977 58.5636C98.7837 59.0589 98.343 58.603 97.6063 58.9715C97.0054 59.2722 96.5104 59.9105 96.1944 60.1513C96.3357 58.5894 96.3865 58.0472 96.1411 56.9734Z" fill="black"/>
<path fill-rule="evenodd" clip-rule="evenodd" d="M102.618 93.1118L88.9492 96.5619C88.9492 96.5619 92.4808 111.885 93.8544 117.499C95.2617 123.25 94.4822 141.742 94.4822 141.742H98.39L102.618 93.1118Z" fill="#34466B"/>
<path fill-rule="evenodd" clip-rule="evenodd" d="M99.6433 68.2117C99.6433 68.2117 101.039 73.0216 103.289 81.1806C103.289 81.1806 106.19 82.2359 114.039 82.79L113.792 85.3993C113.792 85.3993 105.138 86.9652 100.365 84.996C95.5912 83.0263 91.5906 65.5713 99.6433 68.2117Z" fill="#FFC4B8"/>
<path fill-rule="evenodd" clip-rule="evenodd" d="M117.529 80.7125C117.752 80.7393 117.845 81.0663 117.678 81.239L113.696 86.8705C113.566 87.0044 112.408 86.5777 112.235 86.5591L109.89 86.3082C109.626 86.28 109.495 85.9119 109.666 85.677L113.401 80.5497C113.54 80.3588 113.751 80.2607 113.966 80.2863L117.529 80.7125Z" fill="#34466B"/>
<path d="M96.8877 82.1245C96.8877 82.1245 100.363 81.6115 103.213 79.1549C103.213 79.1549 102.204 73.7312 100.802 70.46C99.3991 67.1894 97.1857 64.3256 93.5859 66.4549C89.9865 68.5838 91.0334 73.4707 96.8877 82.1245Z" fill="#CC0000"/>
<path fill-rule="evenodd" clip-rule="evenodd" d="M116.429 82.9567C116.19 83.1099 115.907 83.4633 115.232 83.4841C114.56 83.5043 113.678 83.0358 113.389 83.3398C113.389 83.3398 111.937 85.1933 113.41 87.0266C113.41 87.0266 117.868 88.1901 116.766 83.0733C116.734 82.9305 116.552 82.8776 116.429 82.9567Z" fill="#FFC4B8"/>
<path d="M85.2812 79.9385C85.2812 79.9385 88.2489 81.8192 92.0109 81.8192C92.0109 81.8192 94.7882 77.0524 95.8618 73.6596C96.9354 70.2664 97.1281 66.6517 93.0118 65.9143C88.8954 65.1768 86.4982 69.5616 85.2812 79.9385Z" fill="#0032E6"/>
<path fill-rule="evenodd" clip-rule="evenodd" d="M100.732 94.5847C100.732 94.5847 92.2867 91.7313 87.0498 96.4516C87.0498 96.4516 88.0102 100.885 90.8988 106.189C95.7832 115.159 98.2813 118.063 98.2813 118.063C98.2813 118.063 92.9604 122.8 82.7031 134.637C82.7031 134.637 83.3447 137.06 85.4098 137.834C85.4098 137.834 100.44 123.657 104.975 119.878C106.458 118.642 106.156 117.711 105.572 114.976C104.583 110.342 101.311 96.6978 100.732 94.5847Z" fill="#34466B"/>
<path fill-rule="evenodd" clip-rule="evenodd" d="M88.9813 109.891L82.0827 104.652C81.6952 104.358 81.6196 103.805 81.9136 103.418C82.2082 103.03 82.7608 102.955 83.1484 103.249L90.0465 108.488C90.434 108.782 90.5097 109.335 90.2156 109.722C89.921 110.109 89.3684 110.186 88.9813 109.891Z" fill="black"/>
<path fill-rule="evenodd" clip-rule="evenodd" d="M83.0561 105.098L67.8867 125.072L68.2574 125.354L83.4269 105.379" fill="black"/>
<path fill-rule="evenodd" clip-rule="evenodd" d="M87.9155 108.798L72.7461 128.773L73.1173 129.055L88.2862 109.08" fill="black"/>
<path fill-rule="evenodd" clip-rule="evenodd" d="M87.494 68.8647C87.494 68.8647 80.1085 69.2359 78.9242 73.4027C77.7399 77.569 77.8976 93.944 77.8976 93.944C77.8976 93.944 79.4556 97.6654 84.4493 98.1454C84.4493 98.1454 87.0541 98.7464 86.9034 93.2826C86.7531 87.8194 87.494 68.8647 87.494 68.8647Z" fill="#34466B"/>
<path fill-rule="evenodd" clip-rule="evenodd" d="M83.3386 69.6729C83.3386 69.6729 82.5987 70.3218 82.2042 71.17C80.7545 74.2855 81.2018 82.6838 80.5855 83.3589C80.0724 83.9214 79.2015 84.0272 78.3409 84.2635C77.9732 84.3638 77.5466 84.1315 77.563 83.7736C77.8921 76.5913 77.3361 70.6169 83.3386 69.6729Z" fill="#9BC3D3"/>
<path fill-rule="evenodd" clip-rule="evenodd" d="M77.964 85.277C77.964 85.277 79.951 84.8208 80.2965 85.2948C80.7888 85.9719 80.5966 93.6792 80.0459 93.8898C79.4958 94.1008 77.5597 93.9323 77.4495 93.7692C77.0377 93.1602 76.7832 85.5261 77.964 85.277L78.9001 79.5654Z" fill="#9BC3D3"/>
<path fill-rule="evenodd" clip-rule="evenodd" d="M68.4805 145.774C68.4805 146.996 67.4894 147.987 66.2676 147.987C65.0457 147.987 64.0547 146.996 64.0547 145.774C64.0547 144.553 65.0457 143.562 66.2676 143.562C67.4894 143.562 68.4805 144.553 68.4805 145.774Z" fill="black"/>
<path fill-rule="evenodd" clip-rule="evenodd" d="M60.2383 141.865C60.2383 143.087 59.2472 144.078 58.0254 144.078C56.803 144.078 55.8125 143.087 55.8125 141.865C55.8125 140.643 56.803 139.652 58.0254 139.652C59.2472 139.652 60.2383 140.643 60.2383 141.865Z" fill="black"/>
<path fill-rule="evenodd" clip-rule="evenodd" d="M78.1799 124.789C78.1799 124.789 78.8615 134.673 75.3209 140.131C71.7804 145.59 66.6172 144.705 66.6172 144.705L67.6819 143.032C67.6819 143.032 71.4117 144.558 73.6251 138.73C75.8375 132.903 75.3951 126.855 75.3951 126.855L78.1799 124.789Z" fill="#9BC3D3"/>
<path fill-rule="evenodd" clip-rule="evenodd" d="M78.0574 124.312C79.4107 125.936 69.2735 141.613 66.9939 145.093C66.722 145.507 66.2174 145.702 65.7379 145.573C64.1058 145.136 60.3365 143.968 57.5977 141.9C57.5977 141.9 68.064 123.535 74.0883 121.995C74.0883 121.995 76.3046 122.208 78.0574 124.312Z" fill="#34466B"/>
<path d="M62.0822 121.323C59.118 124.08 53.4017 131.853 51.1873 134.917C50.6515 135.658 50.736 136.677 51.3894 137.318C52.8164 138.716 55.8118 140.93 57.9243 142.082C58.2372 142.253 58.6252 142.153 58.8214 141.857C60.6305 139.115 69.2863 126.23 74.8751 122.171C74.8751 122.171 66.5529 117.163 62.0822 121.323Z" fill="#34466B"/>
<path fill-rule="evenodd" clip-rule="evenodd" d="M56.4402 128.434C56.1135 128.179 55.6261 128.316 55.374 128.646C54.3143 130.036 51.6719 133.511 51.2804 134.168C50.5133 135.455 53.649 138.174 57.4796 140.192C58.6773 140.824 60.1389 138.082 61.681 135.98C62.7002 134.59 63.5805 133.37 63.4634 132.919C63.3369 132.434 61.341 131.813 59.5185 130.682C58.3254 129.942 57.3106 129.114 56.4402 128.434Z" fill="#9BC3D3"/>
<path fill-rule="evenodd" clip-rule="evenodd" d="M74.8729 122.172C74.8729 122.172 71.1119 119.505 65.7776 119.422C61.2476 119.352 56.2682 127.197 56.2682 127.197C55.6256 128.025 63.3888 132.727 64.2538 131.656C67.6856 127.431 71.0392 124.223 72.748 122.674C72.8651 122.574 73.7865 121.832 74.8729 122.172Z" fill="#9BC3D3"/>
<path fill-rule="evenodd" clip-rule="evenodd" d="M60.7685 141.066L65.4048 134.074C65.5729 133.821 65.9016 133.729 66.1764 133.859L70.7139 136.011C71.0011 136.147 71.1014 136.506 70.9264 136.772L66.4329 143.582C66.1734 143.975 65.6718 144.128 65.2373 143.948L61.1234 142.233C60.6652 142.042 60.4942 141.481 60.7685 141.066Z" fill="#9BC3D3"/>
<path fill-rule="evenodd" clip-rule="evenodd" d="M92.3249 63.6187C92.3249 63.6187 87.7884 64.4392 87.0504 71.2256C86.313 78.0116 87.0504 97.2207 87.0504 97.2207C87.0504 97.2207 91.3002 98.8687 96.1195 96.5208C99.2215 95.0093 101.208 94.9263 102.045 94.7345C102.384 94.6564 102.622 94.3613 102.626 94.0129C102.636 93.2739 102.647 91.8489 102.642 89.7018C102.627 83.7052 101.981 73.5057 99.3975 66.5047C99.3975 66.5047 95.0167 63.8307 92.3249 63.6187Z" fill="#EC0000"/>
<path fill-rule="evenodd" clip-rule="evenodd" d="M87.0508 71.2253C87.0508 71.2253 90.6511 65.3671 93.2826 66.3571C96.5187 67.5741 97.1756 73.8326 92.3252 80.3843L89.7421 83.1191L89.0778 85.5535C89.0778 85.5535 95.6616 79.7447 97.2102 74.102C98.7593 68.4593 96.7248 66.2173 93.8911 65.2505C90.4059 64.0612 88.7358 66.1841 86.6094 69.1231L87.0508 71.2253Z" fill="#34466B"/>
<path fill-rule="evenodd" clip-rule="evenodd" d="M86.4622 77.2739C86.4622 77.2739 85.356 82.0684 84.9873 88.1169C84.6769 93.205 84.6274 99.468 84.62 101.329C84.6185 101.649 84.4955 101.955 84.2671 102.18C83.6611 102.775 82.504 104.239 82.6973 106.595C82.7655 107.421 83.1258 108.56 85.1796 109.217C85.4623 109.308 86.2042 109.619 86.2042 108.18C86.2042 106.742 86.7855 105.773 87.3756 105.294C87.9653 104.815 88.5644 106.078 88.5644 107.111C88.5644 108.143 89.2564 107.488 89.3943 106.756C89.5327 106.023 89.4224 104.058 87.8734 102.012C87.8734 102.012 87.8452 101.652 88.039 99.1903C88.2322 96.7288 88.6459 88.3942 89.5312 86.2644C90.4164 84.134 92.963 78.0574 92.963 78.0574L86.4622 77.2739Z" fill="#FFC4B8"/>
<path d="M85.2812 80.4124C85.2812 80.4124 88.2489 81.8191 92.0109 81.8191C92.0109 81.8191 94.7882 77.0523 95.8618 73.6596C96.9354 70.2663 97.1281 66.6517 93.0118 65.9142C88.8954 65.1768 86.4982 70.0355 85.2812 80.4124Z" fill="#EC0000"/>
<path fill-rule="evenodd" clip-rule="evenodd" d="M91.6729 63.7675C91.6729 63.7675 93.0621 65.0724 96.549 66.7102C98.1637 67.4681 98.9309 68.4331 99.2737 69.028C99.3771 69.2077 99.6348 69.1597 99.6757 68.9528C99.8388 68.1187 100.424 66.8168 99.7064 65.9068C99.8945 66.0823 94.4378 63.9608 93.0587 62.2507C92.5622 62.2371 91.6729 63.7675 91.6729 63.7675Z" fill="#9BC3D3"/>
<path d="M87.612 106.639L89.4591 108.042L89.3079 108.864L87.1523 107.786L87.612 106.639Z" fill="black"/>
<path d="M85.8587 137.231L82.7032 134.599L80.6136 137.066L83.0615 141.823L84.5032 142.942L85.8482 141.15L85.6274 140.568L85.8587 137.231Z" fill="black"/>
<path d="M98.306 141.258L100.748 144.008L100.554 145.903C97.3078 145.631 94.9605 145.434 93.5118 145.313L94.4616 140.709L98.306 141.258Z" fill="black"/>
</svg>
