<svg width="160" height="160" viewBox="0 0 160 160" fill="none" xmlns="http://www.w3.org/2000/svg">
<rect y="32.0005" width="160" height="95.7862" fill="white"/>
<path fill-rule="evenodd" clip-rule="evenodd" d="M13.1771 48.5515C17.892 41.4117 28.8655 44.8282 32.9728 47.91C36.6311 50.6541 43.4881 68.8609 56.217 70.0406C64.7199 70.8288 66.8176 54.3869 72.5672 47.91C75.3803 44.7412 79.1337 44.2143 92.0534 48.5515C104.973 52.8886 113.035 60.9231 126.238 65.7595C134.9 68.9339 143.227 50.7219 149.494 60.3358C155.76 69.9497 154.92 91.5144 151.304 104.217C147.687 116.919 140.765 108.71 135.028 111.146C127.895 114.174 125.261 126.603 117.968 127.246C107.03 128.211 92.1143 103.108 83.6899 106.633C75.2655 110.158 65.6739 116.932 62.7183 121.92C57.4026 130.893 50.2844 123.152 46.0205 123.628C33.5011 125.025 20.6945 129.553 11.4438 123.628C8.86871 121.979 5.96912 122.038 4.13296 119.456C2.53988 117.216 0.163595 111.091 0.0218142 108.494C-0.559471 97.8655 10.6537 85.2874 12.4839 76.4684C14.742 65.5805 8.46236 55.6913 13.1771 48.5515Z" fill="#EAF7FE"/>
<path fill-rule="evenodd" clip-rule="evenodd" d="M129.403 107.193L117.509 86.6313C112.818 78.4424 104.49 72.9936 95.1078 71.9738C94.8604 71.9492 94.6289 71.9262 94.3987 71.9064L90.4893 71.5737L82.0094 73.7998L78.5783 76.5099C75.9888 78.5565 74.7548 81.8751 75.3781 85.1163C75.9271 87.9935 76.9591 90.7571 78.4302 93.2901L86.8594 107.885L88.9702 108.516L89.3667 103.638L90.4887 107.192L129.403 107.193Z" fill="#EC0000"/>
<path fill-rule="evenodd" clip-rule="evenodd" d="M126.336 80.5788C126.045 80.6004 125.758 80.6511 125.478 80.7302C123.164 81.3686 121.805 83.7607 122.442 86.0747C122.875 87.6463 124.147 88.8461 125.741 89.1868C126.133 89.2675 126.486 89.4753 126.747 89.7778C127.874 91.1069 129.684 91.6367 131.35 91.1249C133.627 90.4287 134.926 88.0359 134.269 85.7471C134.253 85.7241 134.253 85.7027 134.237 85.6798C134.026 84.9447 134.288 84.1551 134.897 83.6925C136.314 82.6004 136.921 80.7545 136.43 79.0344C135.748 76.7261 133.335 75.397 131.019 76.0542C129.518 76.4851 128.361 77.6839 127.983 79.1992C127.794 79.9697 127.127 80.5283 126.335 80.5788" fill="#1BB3BC"/>
<path fill-rule="evenodd" clip-rule="evenodd" d="M133.048 85.8456C132.783 85.7228 132.507 85.6247 132.223 85.5525C129.895 84.9595 127.526 86.3626 126.928 88.6891C126.527 90.2667 127.035 91.9363 128.247 93.0228C128.543 93.289 128.745 93.6428 128.825 94.0324C129.141 95.749 130.453 97.1098 132.158 97.4868C134.478 98.0037 136.787 96.571 137.353 94.262C137.353 94.2406 137.37 94.2176 137.37 94.1946C137.542 93.4484 138.161 92.8884 138.92 92.7917C140.697 92.5541 142.145 91.2493 142.566 89.5068C143.132 87.1702 141.701 84.816 139.366 84.2431C137.85 83.8724 136.252 84.3401 135.176 85.4695C134.621 86.0395 133.765 86.1914 133.048 85.8465" fill="#9BC3D3"/>
<path fill-rule="evenodd" clip-rule="evenodd" d="M142.566 89.5069C142.146 91.2492 140.697 92.5537 138.921 92.7901C138.161 92.8881 137.543 93.4485 137.371 94.195C137.371 94.2163 137.354 94.2393 137.354 94.2642C137.192 94.9547 136.857 95.5927 136.381 96.1183C136.194 96.3352 135.983 96.5308 135.753 96.7014C134.749 97.4676 133.461 97.7595 132.224 97.5015C132.201 97.4985 132.179 97.4936 132.158 97.4868C130.504 97.1142 129.214 95.8226 128.842 94.1691C128.842 94.1231 128.825 94.08 128.825 94.0344C128.745 93.6448 128.543 93.291 128.247 93.0248C127.035 91.9382 126.527 90.2687 126.928 88.6911C127.526 86.3645 129.895 84.9614 132.223 85.5544C132.507 85.6259 132.783 85.7241 133.048 85.8475C133.764 86.1932 134.622 86.0413 135.176 85.4704C136.252 84.3411 137.85 83.8733 139.366 84.244C141.701 84.817 143.132 87.1711 142.566 89.5078" fill="#1BB3BC"/>
<path d="M137.288 96.3516L135.755 96.6989L132.226 97.4994C132.203 97.4964 132.181 97.4914 132.16 97.4847C130.506 97.1123 129.215 95.8206 128.844 94.167L136.382 96.1146L137.288 96.3516Z" fill="#1BB3BC"/>
<path fill-rule="evenodd" clip-rule="evenodd" d="M127.637 96.1333L130.771 107.193H135.39L138.524 96.1333H127.637Z" fill="#DEEDF2"/>
<path fill-rule="evenodd" clip-rule="evenodd" d="M66.7171 91.4456L66.008 91.2447L65.9917 91.2332C65.9737 91.2267 65.9569 91.2173 65.9419 91.2055L63.5826 89.9261C63.275 89.7642 63.1341 89.4 63.2528 89.0733C63.3541 88.7778 63.634 88.5812 63.9463 88.586C64.0135 88.5862 64.0802 88.597 64.144 88.618L64.9358 88.8485L65.6449 89.0592L66.5686 89.3293L66.7171 91.4456Z" fill="#FFC4B8"/>
<path fill-rule="evenodd" clip-rule="evenodd" d="M59.4102 117.607H137.891V106.68H59.4102V117.607Z" fill="#DEEDF2"/>
<path fill-rule="evenodd" clip-rule="evenodd" d="M57.1016 110.504C57.1016 109.979 63.9637 109.554 72.4098 109.554C80.8709 109.554 87.718 109.979 87.718 110.504C87.718 111.03 80.8722 111.454 72.4098 111.454C63.9637 111.454 57.1016 111.029 57.1016 110.504Z" fill="#9BC3D3"/>
<path fill-rule="evenodd" clip-rule="evenodd" d="M146.887 110.453H118.183L114.703 114.386V115.032H143.407L146.887 111.097V110.453Z" fill="#CEDEE7"/>
<path fill-rule="evenodd" clip-rule="evenodd" d="M86.0986 81.7508C86 81.4711 85.8841 81.208 85.7857 80.9459C85.7196 80.7729 85.6698 80.6049 85.6037 80.4405C85.0102 78.7163 84.6641 77.3913 84.6641 77.3913L88.3589 71.617L89.0025 70.5879L89.0849 70.4679L89.1673 70.3328L90.1571 68.7951L90.4869 68.2715C90.4869 68.2715 90.5361 68.4656 90.6517 68.7823C90.7669 69.0834 90.9317 69.4953 91.1462 69.9513C91.4296 70.5407 91.7665 71.1028 92.1526 71.6307C93.6292 73.6701 94.5604 76.0527 94.858 78.5529C96.046 86.9667 87.7975 86.8792 86.0986 81.7521" fill="#FFC4B8"/>
<path fill-rule="evenodd" clip-rule="evenodd" d="M144.02 113.588H115.316L118.797 109.653H147.501L144.02 113.588Z" fill="white"/>
<path fill-rule="evenodd" clip-rule="evenodd" d="M91.8243 63.2575C91.8225 65.5524 90.9091 67.7526 89.285 69.3741C87.6609 70.9956 85.4592 71.9054 83.1643 71.9034C81.3896 71.9046 79.657 71.3635 78.1984 70.3527L80.8376 69.9804L79.8319 65.5302L79.5349 64.1534L76.1862 64.9197L74.7344 65.2556C74.6853 65.0512 74.6351 64.8437 74.6029 64.6314C74.586 64.526 74.571 64.419 74.5531 64.3121C74.5201 63.9662 74.5037 63.6144 74.5039 63.2568C74.5057 60.9618 75.4192 58.7614 77.0434 57.14C78.6676 55.5185 80.8695 54.6087 83.1646 54.6108C84.6617 54.6103 86.1336 54.9971 87.437 55.7338C89.2513 56.7601 90.6338 58.4073 91.33 60.3721C91.655 61.2992 91.8222 62.2744 91.8246 63.2568" fill="#723846"/>
<path fill-rule="evenodd" clip-rule="evenodd" d="M90.6537 68.7813L87.404 76.1C87.0449 76.9994 86.3076 77.6948 85.3888 78.0007C84.4699 78.3067 83.463 78.1921 82.6364 77.6875C81.9497 77.2667 81.2887 76.8054 80.6568 76.306L79.2219 75.1633C78.778 74.8142 78.384 74.4059 78.0508 73.95C77.5343 73.2284 77.1746 72.4067 76.9949 71.5377L76.0051 66.6246C75.8094 65.6576 76.1352 64.6589 76.8634 63.9933C78.5612 62.4628 80.8006 61.6748 83.0828 61.8049L86.563 62.0041L89.6144 66.8829L89.8453 66.364C90.0767 66.364 90.654 68.781 90.654 68.781" fill="#FFC4B8"/>
<path fill-rule="evenodd" clip-rule="evenodd" d="M76.1523 67.3553L77.5381 67.1807L80.8369 73.5479L77.3398 74.0268L76.1523 67.3553Z" fill="#FFC4B8"/>
<path fill-rule="evenodd" clip-rule="evenodd" d="M81.9426 100.388C83.5595 99.4558 86.1825 100.974 87.799 103.776C89.4156 106.578 89.4322 109.607 87.8153 110.537C86.1984 111.467 83.5761 109.95 81.9426 107.148C80.3264 104.346 80.3264 101.319 81.9426 100.387" fill="#FFC4B8"/>
<path fill-rule="evenodd" clip-rule="evenodd" d="M82.2396 107.621L74.2227 95.8205L76.2188 92.2886L86.4791 101.995L82.2396 107.621Z" fill="#FFC4B8"/>
<path fill-rule="evenodd" clip-rule="evenodd" d="M113.667 87.8823L125.198 108.034L130.444 108.162L136.465 109.187C136.795 109.243 137.022 109.551 136.976 109.883C136.924 110.201 136.638 110.427 136.316 110.405L132.522 110.085L128.728 110.736C128.684 110.735 128.648 110.768 128.643 110.811C128.639 110.854 128.668 110.894 128.711 110.902L131.417 111.292C131.586 111.309 131.744 111.386 131.862 111.51C131.989 111.631 132.066 111.796 132.077 111.971C132.099 112.175 132.035 112.378 131.9 112.533C131.765 112.687 131.572 112.778 131.367 112.784C129.816 112.844 127.342 112.837 125.627 112.747C123.367 112.626 122.047 110.802 122.047 110.802L105.551 89.5691L113.667 87.8823Z" fill="#FFC4B8"/>
<path fill-rule="evenodd" clip-rule="evenodd" d="M76.482 91.474C76.0119 90.7683 75.2478 90.3132 74.4035 90.2358L72.9188 90.1081L72.5066 89.3029L72.8029 89.4363C73.0087 89.5296 73.2518 89.4624 73.3805 89.2767L73.414 89.2419C73.4851 89.1321 73.5093 88.9985 73.4813 88.8707C73.4533 88.743 73.3754 88.6318 73.2649 88.5618L72.5557 88.1288L72.9842 87.7355C73.1236 87.6131 73.1582 87.4099 73.0672 87.2483C72.9901 87.1317 72.8603 87.0608 72.7205 87.0589C72.6815 87.0585 72.6428 87.0646 72.6059 87.0771L71.4833 87.4526L69.9992 87.8543C69.7523 87.9193 69.5695 88.1278 69.5372 88.3811L69.2237 90.4804V88.3038C69.2234 88.2233 69.2404 88.1436 69.2735 88.0701L70.4446 85.3945C70.5081 85.241 70.5008 85.0673 70.4246 84.9197C70.3485 84.7721 70.2112 84.6654 70.0493 84.6282C69.7966 84.5821 69.543 84.7045 69.4219 84.9312L67.6732 88.1502C67.6087 88.2413 67.5741 88.35 67.5739 88.4615L67.4586 90.375L67.0627 88.4568C67.0459 88.3592 67.0459 88.2596 67.0627 88.1621L67.7719 85.0484C67.805 84.9026 67.7758 84.7497 67.6912 84.6264C67.6066 84.5032 67.4744 84.421 67.3265 84.3996C67.0733 84.3646 66.831 84.5146 66.7495 84.7569L65.8252 87.4903L65.5943 88.1927C65.5506 88.299 65.5395 88.4159 65.5624 88.5286L65.6448 89.057L66.0078 91.2454L66.14 92.0012L66.3383 93.2231C66.3916 93.5451 66.6313 93.8047 66.9481 93.8834L74.2231 95.8211L78.3802 94.3492L76.482 91.474Z" fill="#FFC4B8"/>
<path fill-rule="evenodd" clip-rule="evenodd" d="M90.2583 65.5406C90.2583 64.3535 89.714 63.3921 89.0211 63.3921C88.3452 63.3921 87.8008 64.3538 87.8008 65.5406C87.8008 66.7274 88.3452 67.6894 89.0211 67.6894C89.714 67.6894 90.2583 66.7261 90.2583 65.5406Z" fill="#FFC4B8"/>
<path fill-rule="evenodd" clip-rule="evenodd" d="M78.0156 67.1808L78.4946 63.3921L79.4674 67.1808H78.0156Z" fill="#FFC4B8"/>
<path fill-rule="evenodd" clip-rule="evenodd" d="M93.9708 58.7506C93.9686 59.6279 93.6179 60.4684 92.996 61.0872C92.374 61.706 91.5317 62.0524 90.6543 62.0501C88.8333 62.0473 87.3579 60.5716 87.3555 58.7506C87.3586 56.9301 88.8339 55.4553 90.6543 55.4526C91.5315 55.4502 92.3736 55.7963 92.9956 56.4147C93.6175 57.0332 93.9683 57.8734 93.9708 58.7506Z" fill="#723846"/>
<path fill-rule="evenodd" clip-rule="evenodd" d="M91.4931 61.316C88.794 64.5928 84.7693 66.4886 80.524 66.483C80.342 66.483 80.1772 66.4798 80.0131 66.4731C79.7655 66.4648 79.5182 66.45 79.2711 66.4287L78.4952 63.3926L78.1322 66.2837C77.535 66.1847 76.9453 66.0444 76.3675 65.8639C75.8106 65.6971 75.2651 65.4945 74.7343 65.2572C74.6874 64.9069 74.6653 64.5536 74.6682 64.2001C74.6728 59.4217 78.5499 55.5516 83.3283 55.5557C84.826 55.5519 86.2989 55.939 87.6013 56.6786C89.4158 57.7046 90.7982 59.3519 91.4937 61.3169" fill="#723846"/>
<path fill-rule="evenodd" clip-rule="evenodd" d="M110.877 80.7577L114.704 87.8574L104.444 92.3954L98.2578 83.2603L104.228 79.1539C105.304 78.4156 106.642 78.1686 107.91 78.4745C109.178 78.7803 110.256 79.6103 110.876 80.7577" fill="#EC0000"/>
<path fill-rule="evenodd" clip-rule="evenodd" d="M70.3147 127.786H27.474C25.4888 127.788 23.6536 126.73 22.66 125.011C21.6664 123.292 21.6653 121.174 22.6573 119.455L31.9291 103.436C34.3284 99.2867 38.2327 96.2207 42.8321 94.8736L48.9024 93.0903L54.9739 94.8736C59.5667 96.226 63.4644 99.2912 65.8616 103.436L75.1328 119.455C76.1277 121.174 76.1281 123.294 75.1337 125.014C74.1394 126.733 72.3019 127.791 70.3154 127.786" fill="#F6C854"/>
<path fill-rule="evenodd" clip-rule="evenodd" d="M37.9 127.786H27.474C25.4888 127.788 23.6536 126.73 22.66 125.011C21.6664 123.293 21.6653 121.174 22.6573 119.455L27.8706 110.451L37.9 127.786Z" fill="#723846"/>
<path fill-rule="evenodd" clip-rule="evenodd" d="M70.3124 127.786H58.3359L69.1406 109.097L75.1285 119.455C76.1239 121.174 76.1245 123.294 75.1302 125.014C74.1359 126.734 72.2983 127.791 70.3118 127.786" fill="#723846"/>
<path fill-rule="evenodd" clip-rule="evenodd" d="M55.7471 91.8208L55.5658 93.846C53.7098 93.6399 52.0357 92.6354 50.9805 91.0947C52.1024 91.6694 53.9157 91.7253 55.3844 91.6496L55.7471 91.8208Z" fill="#F4A48D"/>
<path fill-rule="evenodd" clip-rule="evenodd" d="M66.3064 127.721H30.1311C29.6731 127.725 29.2776 127.401 29.1914 126.952L25.6276 110.17C25.5655 109.885 25.6357 109.587 25.8184 109.36C26.0011 109.133 26.2768 109 26.5685 108.999H62.7438C63.2036 108.997 63.6024 109.317 63.7016 109.766L67.2486 126.549C67.3106 126.833 67.2405 127.131 67.0579 127.358C66.8754 127.586 66.5998 127.718 66.3083 127.719" fill="#9BC3D3"/>
<path fill-rule="evenodd" clip-rule="evenodd" d="M67.4443 127.721H31.2691C30.8147 127.715 30.4246 127.396 30.3288 126.952L26.7655 110.17C26.7074 109.883 26.7813 109.585 26.9669 109.358C27.1525 109.131 27.4302 108.999 27.7234 108.999H63.8827C64.3422 108.998 64.7407 109.317 64.8405 109.766L68.3862 126.549C68.4485 126.834 68.3785 127.131 68.1959 127.359C68.0132 127.586 67.7376 127.719 67.4459 127.719" fill="#DEEDF2"/>
<path d="M48.5063 84.8646C48.7372 85.7962 48.4565 86.6609 47.8958 86.7975C47.3352 86.9342 46.6918 86.2867 46.461 85.355C46.2464 84.423 46.5095 83.5587 47.0877 83.4236C47.6484 83.2886 48.2918 83.9345 48.5063 84.8642" fill="#FFC4B8"/>
<path fill-rule="evenodd" clip-rule="evenodd" d="M55.7472 91.8204L55.5665 93.8457L55.2197 97.4616C55.1997 97.7683 55.1094 98.0663 54.956 98.3326C54.8038 98.5988 54.5955 98.8285 54.3455 99.006C53.0442 99.897 51.5017 100.369 49.9247 100.359C48.6041 100.366 47.3037 100.035 46.1469 99.3981C45.225 98.8806 44.8242 97.7639 45.2065 96.7783C46.2461 94.0155 48.3739 88.3843 48.3739 88.3843L55.0384 91.4945L55.3845 91.6493L55.7472 91.8204Z" fill="#723846"/>
<path fill-rule="evenodd" clip-rule="evenodd" d="M49.9892 75.6406L54.1636 77.2495L57.0333 81.7792C58.0243 83.3557 58.6501 85.134 58.8648 86.9836L59.0624 88.7126C59.1188 89.1886 59.0565 89.6713 58.8811 90.1174C58.6317 90.6639 58.2158 91.1174 57.693 91.4131L57.0171 91.7934C55.957 92.3804 54.7418 92.6266 53.5368 92.4984L46.7731 91.779L43.9688 79.1253L49.9892 75.6406Z" fill="#723846"/>
<path fill-rule="evenodd" clip-rule="evenodd" d="M57.3131 84.0211L58.6165 82.8733L54.164 77.249L51.2266 79.1804L57.3131 84.0211Z" fill="#723846"/>
<path fill-rule="evenodd" clip-rule="evenodd" d="M50.9642 74.9012C50.6842 74.7811 50.3872 74.6741 50.1072 74.5819C48.0956 73.9494 45.9238 74.0604 43.9871 74.8945C42.2603 75.6305 40.8187 76.9068 39.8789 78.5318C39.8661 78.5504 39.8554 78.5703 39.8469 78.5912C39.8306 78.6231 39.7971 78.6589 39.7808 78.6933C39.2364 79.6336 36.1515 84.5417 29.207 88.6612C25.8583 90.6471 23.9611 93.764 23.9611 97.136C23.9581 97.6482 23.9964 98.1597 24.0757 98.6657V98.6689C24.5357 101.526 26.2896 104.009 28.8277 105.399C29.7241 105.904 30.7362 106.168 31.7651 106.165C33.916 106.168 35.9044 105.02 36.9778 103.156L38.6605 100.27C41.2834 96.2972 43.8731 94.7905 45.0443 94.2701C45.3482 94.1442 45.6629 94.0461 45.9846 93.977C46.3683 93.9238 46.7256 93.7516 47.0063 93.4846C48.9201 91.984 48.475 87.1851 47.9798 84.2065L50.9987 78.9983C52.3348 78.8842 53.5215 78.0991 54.1491 76.9139L55.0565 75.2064C53.7186 74.8817 52.3365 74.7783 50.9651 74.9002" fill="#444444"/>
<path fill-rule="evenodd" clip-rule="evenodd" d="M48.5063 84.8646C48.7372 85.7962 48.4565 86.6609 47.8958 86.7975C47.3352 86.9342 46.6918 86.2867 46.461 85.355C46.2464 84.423 46.5095 83.5587 47.0877 83.4236C47.6484 83.2886 48.2918 83.9345 48.5063 84.8642" fill="#723846"/>
<path d="M70.6645 43.467C75.3876 51.6898 72.576 62.1836 64.3745 66.9435C56.153 71.6878 45.6423 68.8723 40.8932 60.6536C38.6136 56.7063 37.9957 52.0152 39.1753 47.6123C40.355 43.2094 43.2355 39.4555 47.1831 37.1767C55.4043 32.43 65.9169 35.246 70.6645 43.4666" fill="#CEDEE7"/>
<path d="M70.0169 68.2361L63.4766 66.5781L60.9102 65.9287L65.2703 61.4321L68.0865 61.8613C68.1088 61.8204 68.1541 61.7795 68.1768 61.7364L68.2228 61.8795L70.0169 68.2361Z" fill="#CEDEE7"/>
<path fill-rule="evenodd" clip-rule="evenodd" d="M73.9067 40.5964C78.6298 48.8192 75.8182 59.313 67.6167 64.0729C59.3952 68.8172 48.8845 66.0017 44.1353 57.783C41.8558 53.8357 41.2379 49.1446 42.4175 44.7417C43.5971 40.3388 46.4777 36.5849 50.4253 34.3061C58.6465 29.5594 69.159 32.3754 73.9067 40.596" fill="white"/>
<path fill-rule="evenodd" clip-rule="evenodd" d="M69.9923 68.2546L63.043 64.2316L69.9923 60.2188V68.2546Z" fill="white"/>
<path fill-rule="evenodd" clip-rule="evenodd" d="M64.1329 49.1284V43.9215C64.1093 41.0502 61.7871 38.7285 58.9158 38.7056C57.5304 38.6989 56.1999 39.2464 55.2204 40.2261C54.2406 41.2056 53.693 42.5361 53.6993 43.9215V49.1278H55.2638V44.0582C55.2557 43.0899 55.6392 42.1595 56.327 41.478C57.0145 40.7964 57.9481 40.4213 58.9161 40.4378C59.8677 40.4432 60.7778 40.8287 61.4436 41.5087C62.11 42.1883 62.4767 43.1064 62.4618 44.0582V49.1288L64.1329 49.1284Z" fill="#EC0000"/>
<path fill-rule="evenodd" clip-rule="evenodd" d="M66.2198 49.1284H51.5083C51.2613 49.1628 51.0806 49.3789 51.0904 49.6281V57.5985C51.0785 58.1079 51.2699 58.6011 51.6223 58.9692C51.9747 59.3373 52.4592 59.5499 52.9687 59.5599H64.7575C65.8391 59.5477 66.7161 58.6796 66.7393 57.5982V49.6297C66.7051 49.3618 66.4889 49.1538 66.2198 49.13V49.1284Z" stroke="#EC0000" stroke-width="5" stroke-linejoin="round"/>
<path fill-rule="evenodd" clip-rule="evenodd" d="M60.3025 53.8266C60.3355 53.5353 60.2751 53.241 60.1298 52.9863L59.9299 52.6408L59.1298 51.2573C59.0563 51.127 59.0025 50.9864 58.9701 50.8403L58.9286 50.9119C58.6876 51.3412 58.6876 51.865 58.9286 52.2944L59.7572 53.7292C59.9763 54.1485 59.966 54.6508 59.7297 55.0607L59.6882 55.1332C59.6588 54.9859 59.6048 54.8446 59.5286 54.7152L59.6045 54.8448L58.928 53.6772L58.3146 52.6098L58.3354 52.6418C58.259 52.5124 58.2051 52.3711 58.1757 52.2238L58.1342 52.2963C57.8857 52.7236 57.8857 53.2515 58.1342 53.6788L58.1617 53.7245L58.7275 54.7165L58.9273 55.0623C59.1759 55.4896 59.1759 56.0175 58.9273 56.4448L58.8862 56.5173C58.8567 56.3699 58.8028 56.2285 58.7265 56.099L58.8025 56.2286L57.7332 54.3701C57.6364 54.2035 57.5752 54.0187 57.5534 53.8273C56.367 54.0955 55.5391 54.7021 55.5391 55.4077C55.5391 56.3614 57.0563 57.1367 58.9264 57.1367C60.8028 57.1367 62.3137 56.3624 62.3137 55.4077C62.3137 54.7037 61.4855 54.0955 60.299 53.8273" fill="#EC0000"/>
<path d="M55.5312 80.6992L57.8726 83.659C57.2538 83.6587 56.6637 83.3978 56.2471 82.9403C55.6618 82.2005 55.5312 80.6992 55.5312 80.6992Z" fill="#723846"/>
<path d="M77.8477 69.5791L77.999 73.8841C77.999 73.8841 79.3196 73.347 79.1398 72.6497C78.9601 71.9524 77.8477 69.5791 77.8477 69.5791Z" fill="#F4A48D"/>
<path d="M66.0228 91.2482L65.6379 89.0606C65.6379 89.0606 64.7909 89.5304 65.0106 90.1254C65.2303 90.7204 66.0228 91.2482 66.0228 91.2482Z" fill="#F4A48D"/>
<path d="M88.9795 72.5988C88.9795 72.5988 88.1437 75.2726 87.1012 76.6759C86.0587 78.0793 84.8695 78.1231 84.8695 78.1231L85.4466 80.0047C85.4466 80.0047 86.7023 79.985 87.5885 78.123C88.4747 76.2611 88.9795 72.5988 88.9795 72.5988Z" fill="#F4A48D"/>
<path d="M51.9828 92.3405C51.9828 92.3405 52.8889 92.4507 53.9754 92.5323C54.5595 92.597 55.1506 92.5234 55.701 92.3175L55.5681 93.7852C55.0211 93.7896 54.479 93.6819 53.9753 93.4687C53.2778 93.1549 52.6108 92.7772 51.9828 92.3405H51.9828Z" fill="#723846"/>
</svg>
