<svg width="160" height="160" viewBox="0 0 160 160" fill="none" xmlns="http://www.w3.org/2000/svg">
<path fill-rule="evenodd" clip-rule="evenodd" d="M82.2156 150.408C42.6599 150.408 10.5938 147.648 10.5938 144.244C10.5938 140.839 42.6599 138.079 82.2156 138.079C121.771 138.079 153.838 140.839 153.838 144.244C153.838 147.648 121.771 150.408 82.2156 150.408Z" fill="#DEEDF2"/>
<path fill-rule="evenodd" clip-rule="evenodd" d="M60.8205 29.8632C52.6728 38.5297 41.8782 44.186 30.1798 46.3119C23.0793 47.6023 16.2852 50.9938 10.7952 56.4866C-3.58427 70.8732 -3.60059 94.0735 10.7595 108.48C17.0942 114.835 25.1717 118.386 33.4544 119.134C40.5453 119.775 47.2075 122.871 52.1272 128.022C52.1906 128.088 52.2544 128.154 52.3183 128.22C60.7108 136.788 74.2867 136.872 82.7809 128.406C82.8296 128.358 82.8779 128.309 82.9257 128.26C85.1947 125.956 88.4698 124.949 91.6432 125.566C109.736 129.082 129.194 123.828 143.207 109.804C165.598 87.3942 165.598 50.9954 143.207 28.5857C120.798 6.15849 84.4669 6.15863 62.0585 28.586C61.6378 29.0069 61.2251 29.4327 60.8205 29.8632Z" fill="#DEEDF2"/>
<path fill-rule="evenodd" clip-rule="evenodd" d="M148.252 74.4097C148.019 74.4274 147.798 74.2897 147.75 74.0897C147.549 73.2573 147.324 72.4119 147.081 71.5768C147.02 71.3683 147.168 71.1633 147.412 71.1189C147.43 71.1155 147.449 71.1132 147.467 71.1118C147.689 71.0949 147.908 71.2249 147.964 71.4178C148.21 72.2626 148.438 73.1183 148.642 73.9608C148.692 74.1711 148.534 74.3704 148.288 74.406L148.252 74.4097ZM146.514 69.6897C146.332 69.7035 146.152 69.5798 146.094 69.3912C145.838 68.556 145.562 67.7167 145.277 66.8962C145.204 66.6887 145.306 66.474 145.503 66.4164C145.528 66.4095 145.552 66.4051 145.577 66.4033C145.753 66.3899 145.929 66.5043 145.992 66.6865C146.282 67.5167 146.56 68.3663 146.82 69.2118C146.884 69.4204 146.774 69.6308 146.573 69.6801L146.514 69.6897ZM9.32243 83.5369C9.28137 83.5405 9.23866 83.5357 9.19547 83.5214C9.00314 83.4571 8.87788 83.2287 8.91507 83.0111C9.06485 82.1386 9.23343 81.2587 9.4147 80.3946C9.44912 80.2328 9.56552 80.1285 9.70164 80.1168C9.74716 80.1128 9.79465 80.1193 9.84201 80.1374C10.0324 80.2104 10.1506 80.4431 10.1054 80.6582C9.92574 81.5116 9.75973 82.3813 9.61164 83.2436C9.58275 83.4123 9.46391 83.5247 9.32243 83.5369ZM10.1549 78.516C10.0896 78.5221 10.0206 78.5154 9.95313 78.4935C9.70832 78.4148 9.57381 78.1688 9.65302 77.9452C9.9701 77.044 10.3103 76.138 10.6649 75.2532C10.727 75.0992 10.8753 74.9996 11.0426 74.9838C11.1138 74.9771 11.189 74.9861 11.2619 75.0124C11.5032 75.1002 11.6269 75.3501 11.5389 75.5706C11.1883 76.4451 10.8519 77.3403 10.5387 78.2305C10.4814 78.3929 10.3286 78.4996 10.1549 78.516ZM11.5662 73.08C11.4956 73.0867 11.4208 73.0749 11.349 73.0417C11.1301 72.9403 11.022 72.6777 11.1078 72.4552C11.4521 71.5636 11.8211 70.6646 12.2028 69.7826C12.2643 69.6405 12.3915 69.5538 12.5327 69.5405C12.6087 69.5333 12.6888 69.5474 12.7647 69.5865C12.9805 69.6968 13.0788 69.9631 12.9847 70.1814C12.6076 71.0532 12.2432 71.9421 11.9023 72.8231C11.8446 72.9728 11.7129 73.0662 11.5662 73.08ZM13.4095 68.3971C13.3223 68.4054 13.2309 68.3878 13.1456 68.3415C12.9186 68.2178 12.8255 67.9356 12.9371 67.7111C13.383 66.8121 13.8549 65.9058 14.3402 65.0168C14.4124 64.8857 14.5405 64.8078 14.6797 64.7946C14.7728 64.7858 14.8703 64.8058 14.9594 64.8583C15.1817 64.9902 15.2647 65.2757 15.1443 65.4957C14.6645 66.374 14.1983 67.2702 13.7573 68.1586C13.6875 68.2985 13.5546 68.3834 13.4095 68.3971ZM129.727 43.9391C129.593 43.9518 129.453 43.9043 129.353 43.7994C128.69 43.109 128.001 42.4161 127.303 41.74C127.129 41.571 127.125 41.3017 127.293 41.1386C127.365 41.0694 127.457 41.0301 127.552 41.0212C127.68 41.0091 127.814 41.0522 127.914 41.1484C128.619 41.8326 129.317 42.5328 129.987 43.2318C130.154 43.4064 130.148 43.6757 129.973 43.8323C129.903 43.8952 129.817 43.9307 129.727 43.9391ZM15.5327 64.0519C15.4408 64.0606 15.3442 64.0384 15.2584 63.9828C15.0567 63.851 14.9894 63.5819 15.1095 63.3817C15.5892 62.5778 16.0934 61.7698 16.6077 60.9799C16.6776 60.8722 16.7885 60.8103 16.9073 60.7991C17.0046 60.7899 17.1071 60.8155 17.1955 60.8781C17.3927 61.017 17.4493 61.2882 17.3226 61.4834C16.8136 62.2639 16.3153 63.063 15.8408 63.8575C15.7719 63.9724 15.6569 64.0402 15.5327 64.0519ZM125.038 40.673C124.924 40.6838 124.802 40.642 124.708 40.5478C124.026 39.869 123.321 39.1912 122.611 38.5328C122.434 38.3674 122.406 38.0861 122.549 37.9042C122.617 37.8177 122.712 37.7692 122.811 37.7599C122.921 37.7495 123.037 37.7867 123.131 37.8734C123.848 38.5398 124.561 39.2254 125.25 39.9121C125.422 40.0837 125.441 40.3653 125.291 40.5409C125.224 40.62 125.133 40.664 125.038 40.673ZM18.1016 59.3698C17.9915 59.38 17.8761 59.3492 17.7783 59.2759C17.5729 59.12 17.5231 58.8304 17.6687 58.6288C18.2489 57.8215 18.8572 57.0099 19.4754 56.2163C19.5517 56.1184 19.6617 56.0631 19.7769 56.0524C19.8927 56.0416 20.0138 56.0755 20.1138 56.1569C20.3143 56.3198 20.3526 56.6105 20.1998 56.8062C19.588 57.5903 18.9874 58.3935 18.413 59.192C18.337 59.2975 18.2226 59.3586 18.1016 59.3698ZM121.013 37.7789C120.901 37.7894 120.782 37.7535 120.684 37.6693C119.906 37.0017 119.104 36.338 118.302 35.6971C118.1 35.5359 118.05 35.238 118.191 35.0316C118.265 34.9234 118.376 34.8624 118.494 34.8514C118.602 34.8415 118.715 34.873 118.811 34.9495C119.622 35.5975 120.433 36.2688 121.219 36.9436C121.416 37.112 121.455 37.4115 121.307 37.6114C121.233 37.7116 121.127 37.7684 121.013 37.7789ZM20.9585 54.6621C20.8441 54.6725 20.7242 54.6361 20.628 54.5526C20.4449 54.3929 20.4203 54.1194 20.5723 53.9422C21.1863 53.225 21.8213 52.5125 22.4583 51.8238C22.5305 51.7467 22.6253 51.7031 22.7239 51.6941C22.8438 51.6833 22.9696 51.723 23.0667 51.8143C23.2435 51.9806 23.2588 52.2539 23.1 52.4256C22.4698 53.1064 21.842 53.8116 21.2347 54.5204C21.1618 54.6054 21.0631 54.6527 20.9585 54.6621ZM116.651 34.8864C116.554 34.8952 116.451 34.8689 116.364 34.8034C115.587 34.2303 114.791 33.6635 113.995 33.1196C113.795 32.9823 113.73 32.7054 113.85 32.5007C113.918 32.3839 114.032 32.3156 114.155 32.3045C114.246 32.2962 114.343 32.3196 114.429 32.3783C115.233 32.9289 116.039 33.5017 116.824 34.081C117.02 34.2255 117.075 34.5044 116.948 34.7041C116.878 34.813 116.768 34.8758 116.651 34.8864ZM24.5667 51.0374C24.4468 51.0482 24.3203 51.0001 24.2251 50.8947C24.0595 50.7102 24.0507 50.4199 24.2067 50.2464C24.8356 49.5464 25.4845 48.8505 26.137 48.1779C26.2027 48.1106 26.2845 48.0737 26.3689 48.066C26.494 48.0547 26.6252 48.1071 26.7205 48.2207C26.881 48.4116 26.8803 48.7016 26.7182 48.868C26.0727 49.5335 25.4296 50.2217 24.8087 50.9139C24.7418 50.9884 24.6558 51.0293 24.5667 51.0374ZM111.953 32.3464C111.869 32.354 111.781 32.3308 111.702 32.2745C110.917 31.7216 110.111 31.1756 109.308 30.6519C109.105 30.5199 109.022 30.2299 109.12 30.0028C109.181 29.8623 109.297 29.779 109.424 29.7675C109.503 29.7603 109.586 29.7803 109.663 29.8307C110.476 30.3603 111.29 30.9117 112.083 31.4711C112.281 31.6108 112.356 31.9035 112.251 32.1257C112.188 32.2579 112.076 32.3353 111.953 32.3464ZM27.8628 47.4439C27.7222 47.4562 27.575 47.3928 27.472 47.26C27.3059 47.0456 27.3178 46.7321 27.4995 46.5583C28.226 45.8639 28.979 45.173 29.7359 44.5048C29.803 44.4457 29.882 44.4137 29.9624 44.4067C30.1086 44.3938 30.261 44.4632 30.3635 44.605C30.523 44.8258 30.5002 45.1383 30.3133 45.3029C29.564 45.964 28.8192 46.6478 28.1003 47.3345C28.0312 47.4002 27.9482 47.4364 27.8628 47.4439ZM107.532 30.2027C107.453 30.2093 107.369 30.1927 107.291 30.1505C106.43 29.685 105.546 29.2261 104.662 28.7875C104.441 28.6781 104.338 28.4047 104.433 28.1782C104.496 28.0277 104.631 27.9344 104.78 27.9221C104.854 27.9159 104.932 27.93 105.006 27.9673C105.898 28.4103 106.792 28.8737 107.663 29.3443C107.882 29.4628 107.975 29.7387 107.872 29.9611C107.806 30.1044 107.675 30.1908 107.532 30.2027ZM31.4542 43.4616C31.308 43.4737 31.1566 43.4018 31.059 43.2584C30.9138 43.043 30.9472 42.7483 31.1334 42.6004C31.884 42.0037 32.6573 41.4136 33.4317 40.8466C33.4904 40.8028 33.557 40.779 33.6246 40.7734C33.7757 40.7609 33.9333 40.8391 34.0293 40.9917C34.168 41.2119 34.1245 41.5043 33.933 41.6448C33.1671 42.2051 32.4024 42.789 31.6598 43.3795C31.5979 43.4285 31.5268 43.4556 31.4542 43.4616ZM102.469 29.1136C102.402 29.1192 102.332 29.106 102.264 29.0717C101.392 28.6275 100.501 28.1937 99.6155 27.7836C99.3939 27.6803 99.2728 27.3932 99.3457 27.1406C99.3976 26.9615 99.5342 26.8481 99.6888 26.8353C99.7514 26.8302 99.8165 26.8412 99.8806 26.8708C100.775 27.2858 101.676 27.7238 102.556 28.173C102.776 28.2847 102.888 28.5764 102.807 28.8246C102.751 28.9958 102.618 29.1013 102.469 29.1136ZM35.7943 40.1988C35.6416 40.2115 35.482 40.1181 35.3891 39.9424C35.2573 39.6964 35.305 39.3813 35.4942 39.2392C36.2605 38.6647 37.0452 38.1025 37.8257 37.5665C37.8769 37.5324 37.9326 37.5133 37.9889 37.5086C38.1464 37.4956 38.3105 37.5952 38.402 37.7809C38.5264 38.0321 38.4697 38.3433 38.2757 38.4766C37.5035 39.006 36.7271 39.5628 35.9692 40.1314C35.915 40.1716 35.8549 40.1938 35.7943 40.1988ZM40.0947 36.9507C39.9364 36.9607 39.7764 36.8712 39.696 36.7121C39.5908 36.5028 39.6638 36.2522 39.86 36.1526C40.6511 35.7497 41.4572 35.3582 42.2543 34.9888C42.2984 34.9682 42.3441 34.9573 42.3895 34.9544C42.5534 34.9441 42.7167 35.0404 42.7938 35.2068C42.8926 35.4191 42.8106 35.6665 42.6115 35.7587C41.8217 36.1245 41.0244 36.5122 40.2417 36.9108C40.1943 36.9348 40.1443 36.9476 40.0947 36.9507ZM44.4392 34.4127C44.2732 34.4232 44.1061 34.3077 44.0313 34.1139C43.9389 33.8727 44.0242 33.6022 44.222 33.51C45.0125 33.14 45.8263 32.78 46.6422 32.4396C46.6766 32.4254 46.7116 32.4178 46.7472 32.4156C46.9177 32.4048 47.0906 32.5277 47.1612 32.7295C47.2468 32.9736 47.1531 33.2398 46.9519 33.3238C46.1452 33.6607 45.3401 34.0166 44.5582 34.3824L44.4392 34.4127ZM49.1287 31.8865C48.9557 31.8936 48.7866 31.7644 48.7244 31.5628C48.6521 31.3256 48.7556 31.0784 48.9567 31.0106C49.7645 30.7384 50.5898 30.4793 51.41 30.2397C51.4355 30.2324 51.4618 30.2285 51.4874 30.2274C51.6649 30.2201 51.8396 30.3571 51.897 30.5657C51.9631 30.8054 51.8513 31.0473 51.6479 31.1071C50.8359 31.3435 50.0192 31.6006 49.2205 31.8695L49.1287 31.8865ZM53.8392 29.7108C53.6572 29.7182 53.4807 29.5493 53.4255 29.301C53.3638 29.0235 53.4789 28.7518 53.6817 28.6942C54.4976 28.4641 55.3292 28.2511 56.1549 28.0594C56.1735 28.0547 56.1923 28.0519 56.2108 28.0512C56.3943 28.0437 56.5749 28.2256 56.6243 28.48C56.6789 28.7592 56.5564 29.0246 56.3516 29.0718C55.5345 29.2611 54.7115 29.4724 53.9047 29.7002L53.8392 29.7108ZM58.9139 28.2603C58.7219 28.2682 58.537 28.0429 58.488 27.7322C58.4365 27.3998 58.561 27.0959 58.7658 27.0534C59.5884 26.8807 60.428 26.729 61.2601 26.6025C61.2668 26.6015 61.2736 26.6012 61.2803 26.6009C61.4757 26.5929 61.6725 26.8262 61.7148 27.1488C61.7601 27.4822 61.6281 27.7779 61.4217 27.8089C60.5978 27.9343 59.7673 28.0848 58.9532 28.2548L58.9139 28.2603ZM71.5823 26.3438L71.5552 26.3441C70.7152 26.276 69.8663 26.2329 69.0323 26.2146C68.8226 26.2096 68.6317 25.9098 68.6063 25.5446C68.5813 25.1871 68.7238 24.899 68.9265 24.8907L68.9401 24.891C69.7823 24.9089 70.6399 24.9526 71.4882 25.0211C71.699 25.0379 71.8845 25.3482 71.903 25.7127C71.9211 26.0621 71.7787 26.3358 71.5823 26.3438ZM63.5548 26.2016C63.5242 25.8614 63.6611 25.5772 63.8606 25.5673C64.66 25.5285 65.4744 25.5126 66.2808 25.5203L66.3946 25.5214C66.5949 25.5233 66.776 25.8012 66.7997 26.1421C66.8234 26.4822 66.6807 26.757 66.4804 26.755L66.3666 26.754C65.5686 26.7463 64.7625 26.7623 63.9705 26.8011L63.9585 26.801C63.7637 26.7992 63.5845 26.5355 63.5548 26.2016Z" fill="#34466B"/>
<path fill-rule="evenodd" clip-rule="evenodd" d="M143.84 100.28L93.3624 135.625C91.9246 136.632 89.9431 136.282 88.9366 134.845L68.2792 105.343C67.2727 103.906 67.6225 101.925 69.0603 100.918L119.538 65.5728C120.976 64.566 122.957 64.9148 123.964 66.3523L144.621 95.8542C145.628 97.2916 145.278 99.273 143.84 100.28Z" fill="white"/>
<path fill-rule="evenodd" clip-rule="evenodd" d="M85.4081 111.478L82.2407 113.696C81.672 114.094 81.5338 114.878 81.932 115.447L84.1498 118.614C84.5481 119.183 85.3319 119.321 85.9007 118.923L89.0681 116.705C89.6368 116.307 89.775 115.523 89.3768 114.954L87.1589 111.787C86.7607 111.218 85.9769 111.08 85.4081 111.478Z" fill="#DEEDF2"/>
<path fill-rule="evenodd" clip-rule="evenodd" d="M124.173 98.0672L135.011 91.176L135.959 93.354L125.121 100.245L124.173 98.0672ZM112.117 106.509L122.955 99.6182L123.902 101.796L113.064 108.687L112.117 106.509ZM100.059 114.952L110.897 108.061L111.844 110.239L101.006 117.13L100.059 114.952ZM87.9331 123.443L98.7711 116.552L99.7185 118.73L88.8806 125.621L87.9331 123.443ZM96.5103 124.462L100.812 122.04L102.086 124.588L97.7844 127.01L96.5103 124.462ZM91.2137 128.171L95.5154 125.749L96.7896 128.297L92.4879 130.719L91.2137 128.171Z" fill="#CEDEE7"/>
<path fill-rule="evenodd" clip-rule="evenodd" d="M119.566 76.1337C119.294 75.647 118.872 75.2488 118.349 75.0082L117.648 74.6859L114.845 73.3968C114.578 73.2738 114.337 73.1098 114.13 72.914L114.145 73.0746C114.234 74.0247 114.822 74.8558 115.689 75.2546L115.69 75.255L118.598 76.5924C118.597 76.593 118.596 76.5935 118.595 76.5942C119.406 77.0097 119.953 77.8119 120.038 78.7244L120.053 78.8849C119.845 78.6891 119.605 78.5251 119.337 78.4021L119.6 78.523L117.235 77.4353L115.07 76.4395L115.133 76.4684C114.866 76.3456 114.625 76.1815 114.417 75.9857L114.432 76.1463C114.521 77.0964 115.11 77.9274 115.977 78.3264L115.978 78.3267L116.069 78.3686L118.08 79.2935L118.08 79.2935L118.78 79.6156C119.648 80.0146 120.237 80.8457 120.326 81.7961L120.341 81.9567C120.133 81.7607 119.892 81.5968 119.625 81.4738L119.888 81.5946L116.121 79.8625L116.121 79.8623C115.777 79.704 115.477 79.4777 115.235 79.2032C113.662 80.9543 113.034 82.8368 113.822 83.949C114.889 85.4542 118.147 84.9784 121.099 82.8863C124.05 80.7941 125.578 77.8779 124.512 76.3727C123.723 75.2605 121.739 75.23 119.566 76.1337Z" fill="#EC0000"/>
<path fill-rule="evenodd" clip-rule="evenodd" d="M46.6337 142.459C45.3627 142.459 44.332 141.432 44.332 140.166V50.341C44.332 49.0748 45.3627 48.0483 46.6337 48.0483H108.413C109.684 48.0483 110.715 49.0748 110.715 50.341V140.166C110.715 141.432 109.684 142.459 108.413 142.459H46.6337Z" fill="#CC0000"/>
<path fill-rule="evenodd" clip-rule="evenodd" d="M103.664 136.984H51.3834C50.1124 136.984 49.082 135.958 49.082 134.691V42.2287C49.082 40.9625 50.1124 39.936 51.3834 39.936H103.664C104.935 39.936 105.966 40.9625 105.966 42.2287V134.692C105.966 135.958 104.935 136.984 103.664 136.984Z" fill="#EC0000"/>
<path fill-rule="evenodd" clip-rule="evenodd" d="M96.6189 133.109H58.4248C58.1856 133.109 57.9922 132.916 57.9922 132.678V132.179C57.9922 131.941 58.1856 131.748 58.4248 131.748H96.6189C96.8577 131.748 97.0515 131.941 97.0515 132.179V132.678C97.0515 132.916 96.8577 133.109 96.6189 133.109Z" fill="#34466B"/>
<path fill-rule="evenodd" clip-rule="evenodd" d="M100.16 49.9127V73.9666C100.16 75.0206 99.3022 75.8753 98.2442 75.8753H56.8026C56.5932 75.8753 56.3923 75.8424 56.2035 75.7805C55.4383 75.5295 54.8867 74.8117 54.8867 73.9666V49.9127C54.8867 48.86 55.7446 48.0054 56.8026 48.0054H98.2442C99.3022 48.0054 100.16 48.86 100.16 49.9127Z" fill="white"/>
<path fill-rule="evenodd" clip-rule="evenodd" d="M65.6882 82.4873H56.5463C55.5802 82.4873 54.7969 81.7069 54.7969 80.7448C54.7969 79.782 55.5802 79.002 56.5463 79.002H65.6882C66.6543 79.002 67.4376 79.782 67.4376 80.7448C67.4376 81.7069 66.6543 82.4873 65.6882 82.4873Z" fill="#DEEDF2"/>
<path fill-rule="evenodd" clip-rule="evenodd" d="M82.0944 82.4873H72.9526C71.9864 82.4873 71.2031 81.7069 71.2031 80.7448C71.2031 79.782 71.9864 79.002 72.9526 79.002H82.0944C83.0605 79.002 83.8438 79.782 83.8438 80.7448C83.8438 81.7069 83.0605 82.4873 82.0944 82.4873Z" fill="#DEEDF2"/>
<path fill-rule="evenodd" clip-rule="evenodd" d="M98.5003 82.4873H89.3588C88.3923 82.4873 87.6094 81.7069 87.6094 80.7448C87.6094 79.782 88.3923 79.002 89.3588 79.002H98.5003C99.4668 79.002 100.25 79.782 100.25 80.7448C100.25 81.7069 99.4668 82.4873 98.5003 82.4873Z" fill="#DEEDF2"/>
<path fill-rule="evenodd" clip-rule="evenodd" d="M66.3463 93.5349H55.3599C54.818 93.5349 54.3789 93.0505 54.3789 92.454V87.1932C54.3789 86.5964 54.818 86.1123 55.3599 86.1123H66.3463C66.8879 86.1123 67.3273 86.5964 67.3273 87.1932V92.454C67.3273 93.0505 66.8879 93.5349 66.3463 93.5349Z" fill="#DEEDF2"/>
<path fill-rule="evenodd" clip-rule="evenodd" d="M83.0143 93.5349H72.0282C71.4863 93.5349 71.0469 93.0505 71.0469 92.454V87.1932C71.0469 86.5964 71.4863 86.1123 72.0282 86.1123H83.0143C83.5563 86.1123 83.9957 86.5964 83.9957 87.1932V92.454C83.9957 93.0505 83.5563 93.5349 83.0143 93.5349Z" fill="#DEEDF2"/>
<path fill-rule="evenodd" clip-rule="evenodd" d="M99.6862 93.5349H88.7001C88.1581 93.5349 87.7188 93.0505 87.7188 92.454V87.1932C87.7188 86.5964 88.1581 86.1123 88.7001 86.1123H99.6862C100.228 86.1123 100.668 86.5964 100.668 87.1932V92.454C100.668 93.0505 100.228 93.5349 99.6862 93.5349Z" fill="#DEEDF2"/>
<path fill-rule="evenodd" clip-rule="evenodd" d="M66.3463 105.201H55.3599C54.818 105.201 54.3789 104.717 54.3789 104.12V98.859C54.3789 98.2625 54.818 97.7788 55.3599 97.7788H66.3463C66.8879 97.7788 67.3273 98.2625 67.3273 98.859V104.12C67.3273 104.717 66.8879 105.201 66.3463 105.201Z" fill="#DEEDF2"/>
<path fill-rule="evenodd" clip-rule="evenodd" d="M83.0143 105.201H72.0282C71.4863 105.201 71.0469 104.717 71.0469 104.12V98.859C71.0469 98.2625 71.4863 97.7788 72.0282 97.7788H83.0143C83.5563 97.7788 83.9957 98.2625 83.9957 98.859V104.12C83.9957 104.717 83.5563 105.201 83.0143 105.201Z" fill="#DEEDF2"/>
<path fill-rule="evenodd" clip-rule="evenodd" d="M99.6862 105.201H88.7001C88.1581 105.201 87.7188 104.717 87.7188 104.12V98.859C87.7188 98.2625 88.1581 97.7788 88.7001 97.7788H99.6862C100.228 97.7788 100.668 98.2625 100.668 98.859V104.12C100.668 104.717 100.228 105.201 99.6862 105.201Z" fill="#DEEDF2"/>
<path fill-rule="evenodd" clip-rule="evenodd" d="M66.3463 116.867H55.3599C54.818 116.867 54.3789 116.383 54.3789 115.786V110.525C54.3789 109.929 54.818 109.445 55.3599 109.445H66.3463C66.8879 109.445 67.3273 109.929 67.3273 110.525V115.786C67.3273 116.383 66.8879 116.867 66.3463 116.867Z" fill="#DEEDF2"/>
<path fill-rule="evenodd" clip-rule="evenodd" d="M83.0143 116.867H72.0282C71.4863 116.867 71.0469 116.383 71.0469 115.786V110.525C71.0469 109.929 71.4863 109.445 72.0282 109.445H83.0143C83.5563 109.445 83.9957 109.929 83.9957 110.525V115.786C83.9957 116.383 83.5563 116.867 83.0143 116.867Z" fill="#DEEDF2"/>
<path fill-rule="evenodd" clip-rule="evenodd" d="M99.6862 116.867H88.7001C88.1581 116.867 87.7188 116.383 87.7188 115.786V110.525C87.7188 109.929 88.1581 109.445 88.7001 109.445H99.6862C100.228 109.445 100.668 109.929 100.668 110.525V115.786C100.668 116.383 100.228 116.867 99.6862 116.867Z" fill="#DEEDF2"/>
<path fill-rule="evenodd" clip-rule="evenodd" d="M66.3463 128.304H55.3599C54.818 128.304 54.3789 127.82 54.3789 127.224V121.963C54.3789 121.366 54.818 120.882 55.3599 120.882H66.3463C66.8879 120.882 67.3273 121.366 67.3273 121.963V127.224C67.3273 127.82 66.8879 128.304 66.3463 128.304Z" fill="#990000"/>
<path fill-rule="evenodd" clip-rule="evenodd" d="M83.0143 128.304H72.0282C71.4863 128.304 71.0469 127.82 71.0469 127.224V121.963C71.0469 121.366 71.4863 120.882 72.0282 120.882H83.0143C83.5563 120.882 83.9957 121.366 83.9957 121.963V127.224C83.9957 127.82 83.5563 128.304 83.0143 128.304Z" fill="#F6C854"/>
<path fill-rule="evenodd" clip-rule="evenodd" d="M99.6862 128.304H88.7001C88.1581 128.304 87.7188 127.82 87.7188 127.224V121.963C87.7188 121.366 88.1581 120.882 88.7001 120.882H99.6862C100.228 120.882 100.668 121.366 100.668 121.963V127.224C100.668 127.82 100.228 128.304 99.6862 128.304Z" fill="#63BA68"/>
<path fill-rule="evenodd" clip-rule="evenodd" d="M56.6016 39.9361H98.7848C98.7848 39.0875 98.157 38.3999 97.3823 38.3999H58.0037C57.2294 38.3999 56.6016 39.0875 56.6016 39.9361Z" fill="#34466B"/>
<path fill-rule="evenodd" clip-rule="evenodd" d="M97.6374 38.4V22.0811L96.6774 23.4919L95.7819 22.1762L94.8865 23.4919L93.9912 22.1762L93.0956 23.4919L92.2003 22.1762L91.3047 23.4919L90.4094 22.1762L89.5139 23.4919L88.6185 22.1762L87.7232 23.4919L86.8276 22.1762L85.9323 23.4919L85.0366 22.1762L84.1414 23.4919L83.2461 22.1762L82.3505 23.4919L81.4552 22.1762L80.5596 23.4919L79.6643 22.1762L78.7686 23.4919L77.8734 22.1762L76.9779 23.4919L76.0825 22.1762L75.1872 23.4919L74.2918 22.1762L73.3963 23.4919L72.5008 22.1762L71.6054 23.4919L70.7099 22.1762L69.8145 23.4919L68.9192 22.1762L68.0238 23.4919L67.1283 22.1762L66.2328 23.4919L65.3374 22.1762L64.4419 23.4919L63.5467 22.1762L62.6512 23.4919L61.7557 22.1762L60.8603 23.4919L59.9648 22.1762L59.0694 23.4919L58.1094 22.0811V38.4H97.6374Z" fill="white"/>
<path fill-rule="evenodd" clip-rule="evenodd" d="M93.4248 30.3729H62.9466C62.9072 30.3729 62.8707 30.3591 62.8414 30.3358C62.8 30.3025 62.7734 30.2504 62.7734 30.1916C62.7734 30.149 62.7875 30.1098 62.8109 30.079C62.8425 30.0371 62.8917 30.0103 62.9466 30.0103H93.4248C93.4728 30.0103 93.516 30.0305 93.5474 30.0632C93.5787 30.0962 93.598 30.1414 93.598 30.1916C93.598 30.2372 93.582 30.2788 93.5554 30.3108C93.5236 30.3489 93.4769 30.3729 93.4248 30.3729Z" fill="#DEEDF2"/>
<path fill-rule="evenodd" clip-rule="evenodd" d="M76.1975 33.2741H63.8577C63.7693 33.2741 63.6885 33.2417 63.6261 33.1878C63.5488 33.1214 63.5 33.0223 63.5 32.9115C63.5 32.8114 63.5401 32.7207 63.6048 32.6551C63.6695 32.5894 63.759 32.5488 63.8577 32.5488H76.1975C76.2962 32.5488 76.3856 32.5894 76.4503 32.6551C76.5151 32.7207 76.5551 32.8114 76.5551 32.9115C76.5551 33.0117 76.5151 33.1024 76.4503 33.168C76.3856 33.2335 76.2962 33.2741 76.1975 33.2741Z" fill="#DEEDF2"/>
<path fill-rule="evenodd" clip-rule="evenodd" d="M91.783 33.2741H87.7985C87.7084 33.2741 87.6259 33.2417 87.5622 33.1878C87.4836 33.1214 87.4336 33.0223 87.4336 32.9115C87.4336 32.8114 87.4746 32.7207 87.5405 32.6551C87.6066 32.5894 87.6978 32.5488 87.7985 32.5488H91.783C91.8839 32.5488 91.9752 32.5894 92.041 32.6551C92.1071 32.7207 92.1479 32.8114 92.1479 32.9115C92.1479 33.0117 92.1071 33.1024 92.0412 33.168C91.9752 33.2335 91.8839 33.2741 91.783 33.2741Z" fill="#DEEDF2"/>
<path fill-rule="evenodd" clip-rule="evenodd" d="M78.186 33.0923C78.186 33.1924 78.1455 33.2738 78.0954 33.2738C78.0454 33.2738 78.0047 33.1924 78.0047 33.0923C78.0047 32.9923 78.0454 32.9111 78.0954 32.9111C78.1455 32.9111 78.186 32.9923 78.186 33.0923Z" fill="#DEEDF2"/>
<path fill-rule="evenodd" clip-rule="evenodd" d="M79.0931 33.0923C79.0931 33.1924 79.012 33.2738 78.9119 33.2738C78.8116 33.2738 78.7305 33.1924 78.7305 33.0923C78.7305 32.9923 78.8116 32.9111 78.9119 32.9111C79.012 32.9111 79.0931 32.9923 79.0931 33.0923Z" fill="#DEEDF2"/>
<path fill-rule="evenodd" clip-rule="evenodd" d="M80.183 33.0923C80.183 33.1924 80.1018 33.2738 80.0017 33.2738C79.9015 33.2738 79.8203 33.1924 79.8203 33.0923C79.8203 32.9923 79.9015 32.9111 80.0017 32.9111C80.1018 32.9111 80.183 32.9923 80.183 33.0923Z" fill="#DEEDF2"/>
<path fill-rule="evenodd" clip-rule="evenodd" d="M81.2689 33.0923C81.2689 33.1924 81.1877 33.2738 81.0877 33.2738C80.9874 33.2738 80.9062 33.1924 80.9062 33.0923C80.9062 32.9923 80.9874 32.9111 81.0877 32.9111C81.1877 32.9111 81.2689 32.9923 81.2689 33.0923Z" fill="#DEEDF2"/>
<path fill-rule="evenodd" clip-rule="evenodd" d="M82.3587 33.0923C82.3587 33.1924 82.2776 33.2738 82.1775 33.2738C82.0772 33.2738 81.9961 33.1924 81.9961 33.0923C81.9961 32.9923 82.0772 32.9111 82.1775 32.9111C82.2776 32.9111 82.3587 32.9923 82.3587 33.0923Z" fill="#DEEDF2"/>
<path fill-rule="evenodd" clip-rule="evenodd" d="M83.4447 33.0923C83.4447 33.1924 83.3635 33.2738 83.2635 33.2738C83.1632 33.2738 83.082 33.1924 83.082 33.0923C83.082 32.9923 83.1632 32.9111 83.2635 32.9111C83.3635 32.9111 83.4447 32.9923 83.4447 33.0923Z" fill="#DEEDF2"/>
<path fill-rule="evenodd" clip-rule="evenodd" d="M84.1712 33.0923C84.1712 33.1924 84.0901 33.2738 83.99 33.2738C83.8897 33.2738 83.8086 33.1924 83.8086 33.0923C83.8086 32.9923 83.8897 32.9111 83.99 32.9111C84.0901 32.9111 84.1712 32.9923 84.1712 33.0923Z" fill="#DEEDF2"/>
<path fill-rule="evenodd" clip-rule="evenodd" d="M85.6205 33.0923C85.6205 33.1924 85.5393 33.2738 85.4392 33.2738C85.339 33.2738 85.2578 33.1924 85.2578 33.0923C85.2578 32.9923 85.339 32.9111 85.4392 32.9111C85.5393 32.9111 85.6205 32.9923 85.6205 33.0923Z" fill="#DEEDF2"/>
<path fill-rule="evenodd" clip-rule="evenodd" d="M86.7103 33.0923C86.7103 33.1924 86.6292 33.2738 86.5291 33.2738C86.4288 33.2738 86.3477 33.1924 86.3477 33.0923C86.3477 32.9923 86.4288 32.9111 86.5291 32.9111C86.6292 32.9111 86.7103 32.9923 86.7103 33.0923Z" fill="#DEEDF2"/>
<path fill-rule="evenodd" clip-rule="evenodd" d="M33.7656 104.64C33.7656 104.64 33.8596 102.035 36.5064 102.182C39.1534 102.33 41.975 104.148 44.451 104.333C47.9985 104.598 51.1725 102.93 51.1725 102.93L46.8876 113.056H37.8657L33.7656 104.64Z" fill="#9BC3D3"/>
<path fill-rule="evenodd" clip-rule="evenodd" d="M46.8188 113.781H38.1154C34.9215 118.643 29.5779 121.585 27.0548 126.655C21.6724 137.471 23.3398 142.804 29.6562 145.36C34.3416 147.255 50.5186 147.255 55.204 145.36C61.5213 142.804 63.1141 137.236 59.206 128.423C56.9279 123.286 50.0482 118.643 46.8188 113.781Z" fill="#9BC3D3"/>
<path d="M47.1667 114.144H37.769C37.5597 114.144 37.3906 113.971 37.3906 113.758V113.441C37.3906 113.228 37.5597 113.056 37.769 113.056H47.1667C47.3752 113.056 47.5446 113.228 47.5446 113.441V113.758C47.5446 113.971 47.3752 114.144 47.1667 114.144Z" fill="#DEEDF2"/>
<path fill-rule="evenodd" clip-rule="evenodd" d="M47.9073 139.143C47.0979 139.698 45.74 140.254 44.0161 140.254C41.9006 140.254 40.0202 139.434 38.7145 137.9C37.7219 136.789 37.069 135.256 36.8337 133.352H35.2148V132.056H36.703V131.66C36.703 131.237 36.7296 130.84 36.7556 130.47H35.2148V129.148H36.9384C37.2519 127.297 38.035 125.763 39.0801 124.679C40.4121 123.277 42.1094 122.484 44.2511 122.484C45.7922 122.484 46.9932 122.933 47.7245 123.331L47.2023 125.075C46.5491 124.679 45.4525 124.335 44.2771 124.335C42.8666 124.335 41.7175 124.838 40.8296 125.789C40.0461 126.556 39.5239 127.746 39.2626 129.148H46.5491V130.47H39.0276C39.0017 130.814 38.9754 131.21 38.9754 131.58V132.056H46.5491V133.352H39.1582C39.367 134.886 39.8899 136.023 40.5946 136.816C41.5613 137.847 42.8666 138.349 44.2771 138.349C45.6612 138.349 46.8625 137.821 47.4636 137.477L47.9073 139.143Z" fill="#DEEDF2"/>
<path fill-rule="evenodd" clip-rule="evenodd" d="M133.129 54.1092C133.129 57.2944 135.796 59.8766 139.087 59.8766C142.377 59.8766 145.044 57.2944 145.044 54.1092C145.044 50.9239 142.377 48.3418 139.087 48.3418C135.796 48.3418 133.129 50.9239 133.129 54.1092Z" fill="#D39E00"/>
<path fill-rule="evenodd" clip-rule="evenodd" d="M133.863 54.1091C133.863 57.294 136.531 59.8765 139.821 59.8765C140.363 59.8765 140.889 59.8063 141.388 59.6741C143.919 59.0082 145.778 56.7688 145.778 54.1091C145.778 50.9238 143.111 48.3413 139.821 48.3413C138.185 48.3413 136.703 48.98 135.626 50.0142C134.538 51.059 133.863 52.5079 133.863 54.1091Z" fill="#FFE99F"/>
<path fill-rule="evenodd" clip-rule="evenodd" d="M133.863 54.1091C133.863 57.2939 136.531 59.8764 139.821 59.8764C140.363 59.8764 140.889 59.8063 141.388 59.6741L135.626 50.0142C134.538 51.0589 133.863 52.5078 133.863 54.1091Z" fill="#F6C854"/>
</svg>
