<svg width="160" height="160" viewBox="0 0 160 160" fill="none" xmlns="http://www.w3.org/2000/svg">
<path fill-rule="evenodd" clip-rule="evenodd" d="M99.1795 35.6371C107.327 44.3036 118.122 49.9599 129.82 52.0858C136.921 53.3762 143.715 56.7677 149.205 62.2606C163.584 76.6471 163.601 99.8475 149.241 114.254C142.906 120.609 134.828 124.16 126.546 124.908C119.455 125.549 112.792 128.645 107.873 133.796C107.809 133.862 107.746 133.928 107.682 133.993C99.2892 142.562 85.7133 142.646 77.2191 134.18C77.1704 134.132 77.1221 134.083 77.0743 134.034C74.8053 131.73 71.5302 130.723 68.3568 131.34C50.264 134.856 30.8065 129.602 16.7932 115.578C-5.59775 93.1681 -5.59775 56.7693 16.7932 34.3596C39.2022 11.9324 75.5331 11.9326 97.9415 34.36C98.3622 34.7809 98.7749 35.2066 99.1795 35.6371Z" fill="#EAF7FE"/>
<path fill-rule="evenodd" clip-rule="evenodd" d="M82.237 159.347C42.3005 159.347 9.92578 156.561 9.92578 153.123C9.92578 149.686 42.3005 146.899 82.237 146.899C122.173 146.899 154.548 149.686 154.548 153.123C154.548 156.561 122.173 159.347 82.237 159.347Z" fill="#CEDEE7"/>
<path fill-rule="evenodd" clip-rule="evenodd" d="M85.1436 152.581H21.4134C20.1023 152.581 19.0391 151.519 19.0391 150.207V57.1972C19.0391 55.8861 20.1023 54.8232 21.4134 54.8232H85.1436C86.4547 54.8232 87.5176 55.8861 87.5176 57.1972V150.207C87.5176 151.519 86.4547 152.581 85.1436 152.581Z" fill="#34466B"/>
<path fill-rule="evenodd" clip-rule="evenodd" d="M80.2429 146.913H26.3115C25.0004 146.913 23.9375 145.85 23.9375 144.539V48.7973C23.9375 47.4862 25.0004 46.4233 26.3115 46.4233H80.2429C81.554 46.4233 82.6172 47.4862 82.6172 48.7973V144.539C82.6172 145.85 81.554 146.913 80.2429 146.913Z" fill="#9BC3D3"/>
<path fill-rule="evenodd" clip-rule="evenodd" d="M31.5195 46.4235H75.0399C75.0399 45.6243 74.3922 44.9766 73.5929 44.9766H32.9661C32.1672 44.9766 31.5195 45.6243 31.5195 46.4235Z" fill="#34466B"/>
<path fill-rule="evenodd" clip-rule="evenodd" d="M72.979 142.9H33.5791C33.3324 142.9 33.1328 142.701 33.1328 142.454V141.938C33.1328 141.691 33.3324 141.491 33.5791 141.491H72.979C73.2254 141.491 73.4254 141.691 73.4254 141.938V142.454C73.4254 142.701 73.2254 142.9 72.979 142.9Z" fill="#34466B"/>
<path fill-rule="evenodd" clip-rule="evenodd" d="M76.6286 56.7542V81.6611C76.6286 82.7526 75.7436 83.6375 74.6522 83.6375H31.9022C31.6861 83.6375 31.4789 83.6035 31.2841 83.5394C30.4948 83.2794 29.9258 82.5362 29.9258 81.6611V56.7542C29.9258 55.6642 30.8107 54.7793 31.9022 54.7793H74.6522C75.7436 54.7793 76.6286 55.6642 76.6286 56.7542Z" fill="#EAF7FE"/>
<path fill-rule="evenodd" clip-rule="evenodd" d="M41.0711 90.4835H31.6406C30.644 90.4835 29.8359 89.6754 29.8359 88.6792C29.8359 87.6822 30.644 86.8745 31.6406 86.8745H41.0711C42.0677 86.8745 42.8758 87.6822 42.8758 88.6792C42.8758 89.6754 42.0677 90.4835 41.0711 90.4835Z" fill="#EAF7FE"/>
<path fill-rule="evenodd" clip-rule="evenodd" d="M57.993 90.4835H48.5625C47.5659 90.4835 46.7578 89.6754 46.7578 88.6792C46.7578 87.6822 47.5659 86.8745 48.5625 86.8745H57.993C58.9896 86.8745 59.7976 87.6822 59.7976 88.6792C59.7976 89.6754 58.9896 90.4835 57.993 90.4835Z" fill="#EAF7FE"/>
<path fill-rule="evenodd" clip-rule="evenodd" d="M74.9184 90.4835H65.4883C64.4913 90.4835 63.6836 89.6754 63.6836 88.6792C63.6836 87.6822 64.4913 86.8745 65.4883 86.8745H74.9184C75.9154 86.8745 76.7234 87.6822 76.7234 88.6792C76.7234 89.6754 75.9154 90.4835 74.9184 90.4835Z" fill="#EAF7FE"/>
<path fill-rule="evenodd" clip-rule="evenodd" d="M41.7476 101.923H30.4143C29.8552 101.923 29.4023 101.422 29.4023 100.804V95.3566C29.4023 94.7385 29.8552 94.2373 30.4143 94.2373H41.7476C42.3063 94.2373 42.7596 94.7385 42.7596 95.3566V100.804C42.7596 101.422 42.3063 101.923 41.7476 101.923Z" fill="#EAF7FE"/>
<path fill-rule="evenodd" clip-rule="evenodd" d="M58.9429 101.923H47.61C47.0509 101.923 46.5977 101.422 46.5977 100.804V95.3566C46.5977 94.7385 47.0509 94.2373 47.61 94.2373H58.9429C59.502 94.2373 59.9553 94.7385 59.9553 95.3566V100.804C59.9553 101.422 59.502 101.923 58.9429 101.923Z" fill="#EAF7FE"/>
<path fill-rule="evenodd" clip-rule="evenodd" d="M76.1421 101.923H64.8092C64.2501 101.923 63.7969 101.422 63.7969 100.804V95.3566C63.7969 94.7385 64.2501 94.2373 64.8092 94.2373H76.1421C76.7012 94.2373 77.1545 94.7385 77.1545 95.3566V100.804C77.1545 101.422 76.7012 101.923 76.1421 101.923Z" fill="#EAF7FE"/>
<path fill-rule="evenodd" clip-rule="evenodd" d="M41.7476 114.003H30.4143C29.8552 114.003 29.4023 113.502 29.4023 112.884V107.436C29.4023 106.818 29.8552 106.317 30.4143 106.317H41.7476C42.3063 106.317 42.7596 106.818 42.7596 107.436V112.884C42.7596 113.502 42.3063 114.003 41.7476 114.003Z" fill="#EAF7FE"/>
<path fill-rule="evenodd" clip-rule="evenodd" d="M58.9429 114.003H47.61C47.0509 114.003 46.5977 113.502 46.5977 112.884V107.436C46.5977 106.818 47.0509 106.317 47.61 106.317H58.9429C59.502 106.317 59.9553 106.818 59.9553 107.436V112.884C59.9553 113.502 59.502 114.003 58.9429 114.003Z" fill="#EAF7FE"/>
<path fill-rule="evenodd" clip-rule="evenodd" d="M76.1421 114.003H64.8092C64.2501 114.003 63.7969 113.502 63.7969 112.884V107.436C63.7969 106.818 64.2501 106.317 64.8092 106.317H76.1421C76.7012 106.317 77.1545 106.818 77.1545 107.436V112.884C77.1545 113.502 76.7012 114.003 76.1421 114.003Z" fill="#EAF7FE"/>
<path fill-rule="evenodd" clip-rule="evenodd" d="M41.7476 126.082H30.4143C29.8552 126.082 29.4023 125.581 29.4023 124.963V119.516C29.4023 118.898 29.8552 118.397 30.4143 118.397H41.7476C42.3063 118.397 42.7596 118.898 42.7596 119.516V124.963C42.7596 125.581 42.3063 126.082 41.7476 126.082Z" fill="#EAF7FE"/>
<path fill-rule="evenodd" clip-rule="evenodd" d="M58.9429 126.082H47.61C47.0509 126.082 46.5977 125.581 46.5977 124.963V119.516C46.5977 118.898 47.0509 118.397 47.61 118.397H58.9429C59.502 118.397 59.9553 118.898 59.9553 119.516V124.963C59.9553 125.581 59.502 126.082 58.9429 126.082Z" fill="#EAF7FE"/>
<path fill-rule="evenodd" clip-rule="evenodd" d="M76.1421 126.082H64.8092C64.2501 126.082 63.7969 125.581 63.7969 124.963V119.516C63.7969 118.898 64.2501 118.397 64.8092 118.397H76.1421C76.7012 118.397 77.1545 118.898 77.1545 119.516V124.963C77.1545 125.581 76.7012 126.082 76.1421 126.082Z" fill="#EAF7FE"/>
<path fill-rule="evenodd" clip-rule="evenodd" d="M41.7476 137.926H30.4143C29.8552 137.926 29.4023 137.424 29.4023 136.807V131.359C29.4023 130.741 29.8552 130.24 30.4143 130.24H41.7476C42.3063 130.24 42.7596 130.741 42.7596 131.359V136.807C42.7596 137.424 42.3063 137.926 41.7476 137.926Z" fill="#CEDEE7"/>
<path fill-rule="evenodd" clip-rule="evenodd" d="M58.9429 137.926H47.61C47.0509 137.926 46.5977 137.424 46.5977 136.807V131.359C46.5977 130.741 47.0509 130.24 47.61 130.24H58.9429C59.502 130.24 59.9553 130.741 59.9553 131.359V136.807C59.9553 137.424 59.502 137.926 58.9429 137.926Z" fill="#DEEDF2"/>
<path fill-rule="evenodd" clip-rule="evenodd" d="M76.1421 137.926H64.8092C64.2501 137.926 63.7969 137.424 63.7969 136.807V131.359C63.7969 130.741 64.2501 130.24 64.8092 130.24H76.1421C76.7012 130.24 77.1545 130.741 77.1545 131.359V136.807C77.1545 137.424 76.7012 137.926 76.1421 137.926Z" fill="#CEDEE7"/>
<path fill-rule="evenodd" clip-rule="evenodd" d="M134.639 140.073L137.058 143.337C137.058 143.337 136.57 144.76 134.699 145.822L131.801 142.064L134.639 140.073Z" fill="#FFC4B8"/>
<path d="M119.88 96.1713L121.641 117.6C121.641 117.6 124.512 121.186 126.576 125.158C128.308 128.492 135.734 140.44 135.734 140.44L131.983 143.367L113.271 121.371L109.609 95.7173L119.88 96.1713Z" fill="#444444"/>
<path fill-rule="evenodd" clip-rule="evenodd" d="M115.032 145.523L114.738 149.678C114.738 149.678 113.419 150.508 111.27 150.171L111.522 145.315L115.032 145.523Z" fill="#FFC4B8"/>
<path d="M131.565 97.0566C131.565 97.0566 126.708 112.924 120.669 121.406C120.669 121.406 119.604 129.77 118.013 134.201C117.314 136.139 115.391 147.736 115.391 147.736L114.676 147.616L114.251 147.542L111.074 147.008L113.142 119.349L120.663 97.6414L129.742 97.1522L130.225 97.1291L131.565 97.0566Z" fill="#444444"/>
<path d="M107.571 60.7871L102.711 70.3845L107.85 69.9382C107.85 69.9382 108.339 64.1292 107.571 60.7871Z" fill="#CCCCCC"/>
<path fill-rule="evenodd" clip-rule="evenodd" d="M132.022 97.6048C129.463 98.5421 126.882 99.2304 124.278 99.6697C124.158 99.688 124.04 99.71 123.923 99.7283C123.861 99.7393 123.795 99.7466 123.733 99.7576C123.594 99.7796 123.451 99.8015 123.315 99.8199C123.158 99.8418 123.004 99.8638 122.847 99.8858C121.071 100.124 119.284 100.245 117.487 100.256C117.12 100.256 116.762 100.252 116.396 100.245H116.326C116.234 100.241 116.143 100.241 116.048 100.237C115.993 100.234 115.938 100.234 115.883 100.23C113.785 100.164 111.672 99.937 109.549 99.5599C109.501 99.0913 109.439 98.3956 109.362 97.5205C109.347 97.3558 109.333 97.1874 109.322 97.0116C109.212 95.7594 109.084 94.1961 108.945 92.4313C108.934 92.2812 108.923 92.1274 108.908 91.9736C108.817 90.7983 108.718 89.5425 108.623 88.2281C108.612 88.0743 108.597 87.9242 108.586 87.7704C108.487 86.4231 108.385 85.0244 108.286 83.6038C108.223 82.7361 108.165 81.861 108.106 80.986C108.048 80.0963 107.989 79.2066 107.934 78.3242C107.923 78.1302 107.909 77.9398 107.898 77.7457C107.378 69.3869 107.063 61.6908 107.568 60.7864C107.92 60.1604 108.784 59.3842 109.809 58.5897C109.937 58.4908 110.061 58.3956 110.193 58.2967C110.633 57.9672 114.298 56.3562 114.755 56.0304L118.724 55.4043L122.708 56.3855C122.88 56.4661 123.052 56.543 123.224 56.6272C124.71 57.3192 126.179 58.0551 127.05 58.7288C127.174 58.824 127.288 58.9192 127.387 59.0144C127.467 59.0913 127.537 59.1645 127.596 59.2377C127.647 59.3036 127.705 59.4171 127.764 59.5782C128.401 61.2917 129.254 68.1677 130.034 75.6661C130.052 75.8455 130.067 76.0249 130.089 76.2043C130.107 76.3837 130.125 76.5631 130.144 76.7425C130.162 76.9256 130.18 77.105 130.199 77.2844C130.221 77.5224 130.246 77.7604 130.272 78.002C130.287 78.1631 130.305 78.3315 130.32 78.4926C130.327 78.5768 130.334 78.6574 130.345 78.7379C130.352 78.7965 130.356 78.8588 130.363 78.9173C130.396 79.2652 130.429 79.613 130.462 79.9608C130.495 80.261 130.525 80.5576 130.554 80.8578C130.836 83.8052 131.099 86.6867 131.323 89.2313C131.389 89.9526 131.451 90.6446 131.506 91.3036C131.517 91.4537 131.531 91.6075 131.542 91.754C131.773 94.467 131.945 96.5723 132.022 97.6048C133.728 96.9799 133.728 96.9799 132.022 97.6048Z" fill="#767676"/>
<path fill-rule="evenodd" clip-rule="evenodd" d="M120.872 47.8032C122.397 46.6833 123.387 44.8781 123.387 42.8434C123.387 39.4486 120.631 36.6924 117.236 36.6924C114.101 36.6924 111.511 39.0422 111.132 42.0749C111.066 42.3909 111.018 42.7103 110.985 43.0297L110.985 43.0303L110.984 43.0373L110.984 43.0398C110.974 43.1353 110.965 43.2308 110.958 43.3262L110.534 48.0726L111.499 48.3954L111.509 48.3976L111.509 48.3977C111.533 48.4804 111.546 48.5251 111.546 48.5251L111.572 49.1671L111.619 50.3672C111.636 50.7643 111.719 51.1535 111.863 51.5193C111.965 51.7776 112.098 52.0249 112.261 52.2545C112.453 52.5239 112.682 52.7656 112.937 52.9697C113.07 53.0768 113.212 53.1724 113.36 53.2575C113.438 53.3027 113.516 53.3442 113.597 53.3832L113.597 53.3834L113.183 60.8807C113.183 60.8807 115.372 61.5401 117.768 61.0169C119.217 60.7032 120.743 59.9544 121.907 58.3693C121.907 58.3693 120.529 52.3968 120.872 47.8032Z" fill="#FFC4B8"/>
<path fill-rule="evenodd" clip-rule="evenodd" d="M117.748 60.9281C119.197 60.6145 120.723 59.8657 121.887 58.2805C121.887 58.2805 120.396 51.8809 120.902 47.2302C120.902 47.2302 117.511 55.4958 117.748 60.9281ZM111.503 48.4222C111.841 48.5212 112.173 48.2561 112.151 47.9054L112.009 45.6445L111.503 48.4222Z" fill="#F4A48D"/>
<path fill-rule="evenodd" clip-rule="evenodd" d="M119.303 44.2749C119.73 43.7227 120.304 43.441 120.794 43.609C121.493 43.848 121.76 44.9073 121.391 45.973C121.262 46.3442 121.073 46.6676 120.852 46.9213C120.838 47.2397 120.832 47.5529 120.835 47.8602C121.712 47.1326 122.555 46.1701 122.952 45.0253C124.189 41.4557 122.801 38.1314 118.609 36.6971C115.462 35.6204 112.074 36.9649 110.572 39.7307L110.911 40.2681L110.912 40.2631L110.966 40.2486L116.608 38.6842L118.046 42.6414L117.52 43.6014L115.19 47.8523C115.029 48.15 114.79 48.392 114.506 48.5595C114.289 48.6876 114.048 48.7742 113.792 48.8098L113.791 48.8092C113.709 48.8201 113.628 48.827 113.544 48.828C113.411 48.8302 113.28 48.8182 113.15 48.7942L112.083 48.589C111.982 48.5693 111.879 48.5561 111.777 48.5467C111.59 48.5306 111.403 48.5326 111.217 48.5517C111.213 48.5523 111.209 48.5511 111.206 48.5538L111.217 48.5556C111.247 48.6375 111.264 48.6819 111.264 48.6819L111.333 49.327L112.776 49.5484C112.813 49.554 112.848 49.5622 112.884 49.5743C113.068 49.6373 113.213 49.7845 113.27 49.9731C113.338 50.1967 113.266 50.4369 113.088 50.5872L111.913 51.5735L111.788 51.6795C111.909 51.9342 112.063 52.1762 112.247 52.3989C112.462 52.66 112.714 52.8915 112.991 53.0837C113.135 53.1846 113.287 53.2734 113.445 53.3513L113.511 53.3188C113.575 53.2873 113.641 53.2547 113.704 53.221C115.495 52.2991 116.971 50.9176 117.988 49.2398C118.356 48.6342 118.665 47.9897 118.904 47.3142C118.931 47.2441 118.955 47.1735 118.979 47.1006L118.979 47.1C118.658 46.6437 118.593 45.8771 118.86 45.107L118.869 45.0796L118.873 45.0704L118.879 45.0522L118.883 45.0416L118.89 45.0248L118.894 45.0139L118.9 44.9971L118.904 44.9869L118.912 44.9669L118.915 44.9601L118.925 44.9343L118.929 44.9246L118.936 44.908L118.941 44.8969L118.948 44.8818L118.953 44.8704L118.959 44.8555L118.964 44.8444L118.972 44.8282L118.976 44.8188L118.987 44.7944L118.992 44.7847L118.999 44.7692L119.005 44.758L119.012 44.7441L119.017 44.7327L119.024 44.7191L119.03 44.7078L119.037 44.6936L119.043 44.6833L119.055 44.6602L119.06 44.6512L119.068 44.6361L119.074 44.6253L119.081 44.6122L119.088 44.6011L119.095 44.5884L119.101 44.5774L119.109 44.5644L119.115 44.554L119.125 44.5376L119.128 44.5315L119.132 44.5251L119.142 44.5092L119.148 44.4991L119.156 44.4864L119.163 44.476L119.17 44.4638L119.177 44.4535L119.185 44.441L119.192 44.4313L119.201 44.4168L119.206 44.4094L119.22 44.3886L119.227 44.3799L119.235 44.3671L119.242 44.3577L119.251 44.3457L119.257 44.3364L119.266 44.3242L119.273 44.3154L119.283 44.3016L119.288 44.2948L119.303 44.2749Z" fill="black"/>
<path fill-rule="evenodd" clip-rule="evenodd" d="M118.127 92.9702L120.395 87.3025L117.681 63.6485L117.578 62.7577L116.498 62.7002L115.633 87.0755L118.127 92.9702Z" fill="#2A8FEC"/>
<path fill-rule="evenodd" clip-rule="evenodd" d="M118.449 61.998L116.537 64.2255L114.965 61.8167L116.117 59.3926L118.449 61.998Z" fill="#767676"/>
<path fill-rule="evenodd" clip-rule="evenodd" d="M122.747 56.4732C123.07 56.5764 123.385 56.6859 123.687 56.8071C124.291 57.0505 124.312 57.0579 123.751 56.8294C122.989 57.926 122.257 58.7803 121.554 59.3924C120.852 60.0044 119.692 60.7977 118.076 61.7722L116.062 59.3924C116.062 59.3924 120.901 58.6271 121.573 56.0972L122.747 56.4732Z" fill="#767676"/>
<path fill-rule="evenodd" clip-rule="evenodd" d="M111.303 57.7449C111.099 58.8839 111.283 59.7382 111.852 60.3079C112.422 60.8776 113.581 61.3657 115.33 61.7724L116.063 59.3728C116.063 59.3728 113.986 58.6764 113.492 56.3496C113.492 56.3496 112.762 56.8147 111.303 57.7449Z" fill="#767676"/>
<path d="M109.407 65.7104L107.328 65.5581L109.407 65.7104" fill="#137E84"/>
<path d="M125.475 66.8854L119.742 66.4658L125.475 66.8854Z" fill="#137E84"/>
<path fill-rule="evenodd" clip-rule="evenodd" d="M94.9267 94.6533L94.3413 95.3335C94.3413 95.3335 92.6629 95.2116 92.5051 94.5083C92.4473 94.2505 92.5081 93.9704 92.716 93.8525L94.9267 94.6533Z" fill="#F4A48D"/>
<path d="M122.02 97.4399L69.6892 95.6125C68.1986 95.5605 67.0328 94.3033 67.0851 92.8048L68.1592 62.0479C68.2115 60.5493 69.4621 59.3772 70.9527 59.4292L123.283 61.2566C124.774 61.3087 125.94 62.5653 125.887 64.0638L124.813 94.8207C124.761 96.3192 123.51 97.492 122.02 97.4399Z" fill="#2A8FEC"/>
<path d="M76.6481 75.0426L73.3644 74.9279C72.7748 74.9073 72.2801 75.3713 72.2594 75.9642L72.1441 79.2664C72.1234 79.8593 72.5845 80.3566 73.1741 80.3772L76.4578 80.4919C77.0474 80.5125 77.5422 80.0485 77.5629 79.4556L77.6782 76.1534C77.6989 75.5605 77.2377 75.0632 76.6481 75.0426Z" fill="#CEDEE7"/>
<path fill-rule="evenodd" clip-rule="evenodd" d="M83.0063 85.285L71.9519 84.8989L71.8935 86.57L82.9479 86.9561L83.0063 85.285ZM84.5222 85.3379L95.5766 85.7239L95.5182 87.395L84.4638 87.009L84.5222 85.3379ZM108.077 86.1604L97.0222 85.7744L96.9638 87.4455L108.018 87.8316L108.077 86.1604ZM120.577 86.597L109.522 86.2109L109.464 87.8821L120.518 88.2681L120.577 86.597ZM77.3095 89.9235L81.5723 90.0724L81.4962 92.2521L77.2334 92.1032L77.3095 89.9235ZM76.0801 89.881L71.8173 89.7321L71.7412 91.9118L76.0039 92.0607L76.0801 89.881Z" fill="#2274C0"/>
<path d="M117.904 68.4798C117.969 68.0078 117.886 67.5191 117.654 67.0858L117.344 66.5056L116.101 64.1847C115.983 63.9634 115.903 63.7277 115.863 63.4872L115.791 63.6045C115.365 64.2988 115.339 65.1687 115.724 65.8866L115.724 65.8872L117.013 68.2953C117.012 68.2952 117.011 68.295 117.01 68.2949C117.348 68.9955 117.308 69.824 116.9 70.4908L116.828 70.6081C116.787 70.3676 116.707 70.1319 116.589 69.9106L116.705 70.1282L115.657 68.1698L114.697 66.3768L114.725 66.4291C114.607 66.2078 114.527 65.9721 114.486 65.7316L114.414 65.8489C113.989 66.5432 113.963 67.4132 114.348 68.1312L114.348 68.1317L114.388 68.2072L115.28 69.8723L115.28 69.8725L115.59 70.4525C115.975 71.1707 115.949 72.0408 115.524 72.7352L115.452 72.8527C115.411 72.612 115.331 72.3763 115.213 72.155L115.329 72.3726L113.66 69.2539L113.66 69.2534C113.507 68.9687 113.42 68.6601 113.395 68.348C111.433 68.7348 110.043 69.6965 110.009 70.8608C109.963 72.4367 112.417 73.7869 115.49 73.8766C118.563 73.9662 121.092 72.7615 121.138 71.1856C121.172 70.0213 119.841 68.9803 117.904 68.4798Z" fill="white"/>
<path fill-rule="evenodd" clip-rule="evenodd" d="M95.5233 98.4267C94.6992 98.5314 93.8757 98.129 93.5016 97.3876C93.3031 96.9933 93.2171 96.4887 93.406 95.8608C93.9731 93.9771 95.0261 92.652 95.754 93.0442C96.0271 93.1914 95.973 94.3044 95.6006 95.1088C95.6006 95.1088 96.1366 94.2389 96.3958 93.232C96.6551 92.2248 97.9014 92.7128 97.5839 93.9818C97.2665 95.2508 97.1281 95.4354 97.1281 95.4354C97.1281 95.4354 97.7084 94.4728 97.789 93.8456C97.8695 93.2184 98.8548 93.3924 98.6388 94.616C98.5388 95.1827 98.4198 95.833 98.4198 95.833C98.4198 95.833 98.705 95.0257 98.8566 94.6072C99.0086 94.1894 99.5852 93.9284 99.6691 94.8455C99.735 95.5668 99.7778 97.5293 98.8068 97.8515C98.1463 98.0712 96.5046 98.3018 95.5233 98.4267Z" fill="#FFC4B8"/>
<path fill-rule="evenodd" clip-rule="evenodd" d="M112.329 97.1709C112.287 96.5148 113.711 96.5551 114.41 96.1677C115.108 95.7785 116.735 94.4875 116.428 94.1554C116.12 93.8233 115.651 93.578 115.338 93.3686C115.026 93.1606 114.792 92.5532 115.133 92.4822C115.476 92.413 116.574 92.9021 117.023 93.2489C117.183 93.3737 117.478 93.7805 117.67 93.9936C117.973 94.3308 118.345 94.5483 118.753 94.5911C119.13 94.2019 119.537 93.7618 119.8 93.5509C120.383 93.5865 122.367 94.9701 121.91 96.1205C121.401 96.8194 120.632 97.6187 120.632 97.6187C117.881 100.118 116.266 99.9956 115.602 99.9821C114.937 99.9685 114.808 99.2571 114.808 99.2571C114.198 99.1107 114.193 98.5241 114.193 98.5241C113.248 98.285 113.382 97.6472 113.382 97.6472C113.382 97.6472 112.372 97.827 112.329 97.1709Z" fill="#FFC4B8"/>
<path fill-rule="evenodd" clip-rule="evenodd" d="M122.321 96.2065L119.586 93.79C119.586 93.79 125.129 89.4184 127.67 82.9122C127.688 82.8646 127.71 82.8133 127.729 82.7621L127.696 82.5387L126.133 62.6879C126.133 62.6879 125.144 62.2147 127.626 59.2563C127.626 59.2563 133.737 69.0101 132.635 84.5744C132.635 84.5744 130.226 91.8898 122.321 96.2065Z" fill="#767676"/>
<path d="M111.303 149.278L114.781 149.095V153.122H110.363L106.727 153.305L107.502 151.154L109.626 150.184L111.303 149.278Z" fill="black"/>
<path d="M134.188 145.068L132.413 149.931L133.994 151.448L140.058 145.687L136.751 142.871L134.188 145.068Z" fill="black"/>
</svg>
