<svg width="160" height="160" viewBox="0 0 160 160" fill="none" xmlns="http://www.w3.org/2000/svg">
<path fill-rule="evenodd" clip-rule="evenodd" d="M99.1795 34.0976C107.327 42.764 118.122 48.4203 129.82 50.5463C136.921 51.8366 143.715 55.2281 149.205 60.721C163.584 75.1075 163.601 98.3079 149.241 112.714C142.906 119.069 134.828 122.62 126.546 123.369C119.455 124.009 112.792 127.105 107.873 132.256C107.809 132.323 107.746 132.389 107.682 132.454C99.2892 141.022 85.7133 141.107 77.2191 132.641C77.1704 132.592 77.1221 132.543 77.0743 132.495C74.8053 130.19 71.5302 129.184 68.3568 129.8C50.264 133.316 30.8065 128.063 16.7932 114.038C-5.59775 91.6286 -5.59775 55.2298 16.7932 32.8201C39.2022 10.3929 75.5331 10.393 97.9415 32.8204C98.3622 33.2413 98.7749 33.667 99.1795 34.0976Z" fill="#EAF7FE"/>
<path d="M109.774 54.6513L107.695 54.499L109.775 54.6513" fill="#137E84"/>
<path d="M125.838 55.8268L120.105 55.4072L125.838 55.8268Z" fill="#137E84"/>
<path fill-rule="evenodd" clip-rule="evenodd" d="M61.3722 112.022C55.7403 113.959 54.1932 117.516 48.302 118.479C36.4701 120.412 8.6877 120.984 8.13835 123.833C7.05686 129.441 16.43 132.439 38.0483 135.032C37.5815 135.416 40.6813 142.434 58.1103 144.018C65.0067 144.645 76.5744 144.02 81.0107 142.65C87.8296 140.544 94.9124 139.412 102.047 139.25C127.425 138.675 147.324 135.794 147.558 131.437C147.636 129.981 146.171 127.962 143.875 126.789C142.445 126.057 144.545 125.441 145.033 125.265C151.021 123.11 154.38 120.703 154.503 118.793C154.887 112.797 132.783 106.854 106.929 105.47C89.3153 104.527 70.7727 108.787 61.3722 112.022Z" fill="#CEDEE7"/>
<path d="M126.642 119.991L123.396 123.631L43.2383 121.298L65.8713 112.798L126.642 119.991Z" fill="#DEEDF2"/>
<path d="M149.963 86.0415C149.963 86.0415 145.623 86.786 144.566 86.1081C143.285 85.2859 141.435 81.0322 141.435 81.0322L139.379 82.0123C139.379 82.0123 140.542 87.5403 142.32 88.9589C143.698 90.0594 148.174 90.9551 149.571 91.0774C151.626 91.2575 153.197 86.1396 149.963 86.0415Z" fill="#137E84"/>
<path d="M149.963 86.0415C149.963 86.0415 145.623 86.786 144.566 86.1081C143.285 85.2859 141.435 81.0322 141.435 81.0322L139.379 82.0123C139.379 82.0123 140.542 87.5403 142.32 88.9589C143.698 90.0594 148.174 90.9551 149.571 91.0774C151.626 91.2575 153.197 86.1396 149.963 86.0415Z" fill="#137E84"/>
<path fill-rule="evenodd" clip-rule="evenodd" d="M121.866 105.793L93.4381 70.6876C92.6284 69.6876 92.7825 68.2208 93.7822 67.4113L114.3 50.7966C115.299 49.9871 116.766 50.1416 117.575 51.1415L146.003 86.247C146.813 87.247 146.659 88.7135 145.66 89.523L125.142 106.138C124.143 106.947 122.676 106.793 121.866 105.793Z" fill="white"/>
<path fill-rule="evenodd" clip-rule="evenodd" d="M110.692 63.6373L108.908 61.4344C108.588 61.0389 108.007 60.9779 107.612 61.2982L105.409 63.082C105.014 63.4023 104.953 63.9826 105.273 64.3781L107.057 66.5809C107.377 66.9765 107.957 67.0374 108.353 66.7172L110.556 64.9333C110.951 64.6131 111.012 64.0328 110.692 63.6373Z" fill="#CEDEE7"/>
<path fill-rule="evenodd" clip-rule="evenodd" d="M122.173 91.3292L128.064 98.8666L126.834 99.6477L120.944 92.1104L122.173 91.3292ZM115.383 82.9441L121.274 90.4814L120.044 91.2626L114.154 83.7253L115.383 82.9441ZM108.594 74.5591L114.484 82.0964L113.254 82.8775L107.364 75.3402L108.594 74.5591ZM101.764 66.1255L107.655 73.6628L106.425 74.444L100.535 66.9066L101.764 66.1255ZM101.535 72.4434L103.745 75.4308L102.185 76.4805L99.9749 73.4932L101.535 72.4434ZM98.552 68.7598L100.762 71.7472L99.2021 72.7969L96.9922 69.8096L98.552 68.7598Z" fill="#CEDEE7"/>
<path fill-rule="evenodd" clip-rule="evenodd" d="M138.284 86.808C138.626 86.5842 138.896 86.2554 139.045 85.8604L139.245 85.3316L140.044 83.2159C140.12 83.0142 140.228 82.8299 140.36 82.6679L140.244 82.687C139.554 82.8007 138.976 83.2738 138.729 83.9281L138.728 83.9285L137.899 86.1237C137.899 86.123 137.898 86.1223 137.898 86.1216C137.635 86.7359 137.076 87.1766 136.414 87.2857L136.297 87.3049C136.43 87.1429 136.537 86.9585 136.613 86.7569L136.538 86.9552L137.213 85.17L137.83 83.5356L137.812 83.5834C137.889 83.3816 137.996 83.1973 138.129 83.0352L138.012 83.0544C137.322 83.1681 136.744 83.6413 136.497 84.2956L136.497 84.296L136.471 84.3649L135.897 85.8827L135.897 85.8829L135.698 86.4116C135.45 87.0662 134.872 87.5395 134.182 87.6531L134.065 87.6725C134.198 87.5104 134.306 87.3259 134.382 87.1243L134.307 87.3227L135.381 84.4798L135.381 84.4793C135.479 84.2198 135.629 83.9891 135.818 83.7977C134.457 82.7372 133.048 82.3739 132.275 83.0071C131.229 83.8642 131.744 86.2223 133.424 88.274C135.105 90.3256 137.316 91.2939 138.362 90.4368C139.135 89.8036 139.056 88.351 138.284 86.808Z" fill="#EC0000"/>
<path fill-rule="evenodd" clip-rule="evenodd" d="M138.853 78.6732C138.853 78.6732 138.927 78.836 139.253 78.879C139.578 78.9224 140.204 78.916 140.445 79.4388L140.512 79.4967C140.512 79.4967 140.629 79.2302 140.587 79.0818C140.586 79.0815 140.586 79.0813 140.586 79.081C140.578 79.0051 140.548 78.9195 140.481 78.8252C140.447 78.7781 140.396 78.7342 140.334 78.6943C140.331 78.6002 140.301 78.4926 140.215 78.3711C140.162 78.2967 140.072 78.2304 139.96 78.173C139.931 78.0266 139.846 77.8244 139.603 77.6596C139.579 77.6432 139.55 77.6286 139.519 77.615C139.522 77.5617 139.484 77.4812 139.339 77.3562C139.109 77.1596 138.283 77.1316 138.306 77.3538C138.306 77.3538 138.38 77.443 138.589 77.451C138.7 77.4551 138.837 77.4707 138.989 77.514C138.587 77.4981 138.164 77.5873 138.164 77.7993C138.164 77.7993 138.256 77.9282 138.546 77.9113C138.678 77.9036 138.927 77.9136 139.186 77.9638C138.783 77.9251 138.412 77.9879 138.372 78.1988C138.372 78.1988 138.456 78.3831 138.825 78.4321C138.922 78.4449 139.043 78.4544 139.173 78.4715C139 78.4985 138.874 78.5623 138.853 78.6732Z" fill="#FFC4B8"/>
<path d="M115.357 57.1508L115.642 54.1807L115.357 57.1508Z" fill="#34466B"/>
<path fill-rule="evenodd" clip-rule="evenodd" d="M39.5541 93.5713L73.2354 90.1565C76.3837 90.0386 79.5317 90.381 82.5803 91.1752C96.8863 94.9027 138.041 106.11 138.041 106.11C147.138 109.143 148.667 114.213 148.667 118.448L123.485 123.619C120.244 123.495 101.578 117.113 98.795 115.448C98.7001 115.392 98.6056 115.336 98.5115 115.281C94.0989 112.698 88.6204 112.855 84.3421 115.654C82.1449 117.092 79.5187 117.928 76.6964 117.928C70.3828 117.928 65.0496 113.745 63.3068 108.001L38.9531 103.607L39.5541 93.5713Z" fill="#9BC3D3"/>
<path fill-rule="evenodd" clip-rule="evenodd" d="M43.1187 93.3221C45.2964 93.2486 47.3588 93.6743 49.2113 94.4844L49.211 94.4819C49.211 94.4819 108.447 111.697 110.355 112.257C117.017 114.213 121.386 117.788 123.399 123.631L74.5204 122.349C71.2842 122.14 68.1354 121.136 65.3967 119.398C65.2424 119.3 65.0889 119.205 64.9356 119.111C60.6194 116.468 55.2034 116.625 50.8836 119.262C48.662 120.619 46.0371 121.371 43.2412 121.298C35.3125 121.09 29.0974 114.327 29.6471 106.332C30.1364 99.2241 35.9983 93.5625 43.1187 93.3221Z" fill="#9BC3D3"/>
<path d="M106.887 102.557L112.813 101.644V101.305L100.98 100.278V100.618L106.887 102.557Z" fill="#9BC3D3"/>
<path fill-rule="evenodd" clip-rule="evenodd" d="M106.887 102.217L112.813 101.305L106.906 99.4302L100.98 100.279L106.887 102.217Z" fill="#EAF7FE"/>
<path d="M98.9813 103.781L104.907 102.868V102.529L93.0742 101.502V101.842L98.9813 103.781Z" fill="#9BC3D3"/>
<path fill-rule="evenodd" clip-rule="evenodd" d="M98.9813 103.441L104.907 102.529L99.0002 100.654L93.0742 101.502L98.9813 103.441Z" fill="#EAF7FE"/>
<path d="M90.8677 104.792L96.7935 103.88V103.541L84.9609 102.514V102.854L90.8677 104.792Z" fill="#9BC3D3"/>
<path fill-rule="evenodd" clip-rule="evenodd" d="M90.8677 104.453L96.7935 103.541L90.8867 101.666L84.9609 102.514L90.8677 104.453Z" fill="#EAF7FE"/>
<path d="M117.755 105.238L123.68 104.326V103.986L111.848 102.959V103.299L117.755 105.238Z" fill="#9BC3D3"/>
<path fill-rule="evenodd" clip-rule="evenodd" d="M117.755 104.899L123.68 103.986L117.774 102.111L111.848 102.96L117.755 104.899Z" fill="#EAF7FE"/>
<path d="M109.848 106.462L115.774 105.549V105.21L103.941 104.184V104.523L109.848 106.462Z" fill="#9BC3D3"/>
<path fill-rule="evenodd" clip-rule="evenodd" d="M109.848 106.122L115.774 105.21L109.867 103.335L103.941 104.184L109.848 106.122Z" fill="#EAF7FE"/>
<path d="M101.735 107.474L107.661 106.561V106.222L95.8281 105.195V105.535L101.735 107.474Z" fill="#9BC3D3"/>
<path fill-rule="evenodd" clip-rule="evenodd" d="M101.735 107.134L107.661 106.222L101.754 104.347L95.8281 105.195L101.735 107.134Z" fill="#EAF7FE"/>
<path d="M128.622 107.919L134.548 107.007V106.667L122.715 105.641V105.98L128.622 107.919Z" fill="#9BC3D3"/>
<path fill-rule="evenodd" clip-rule="evenodd" d="M128.622 107.579L134.548 106.667L128.641 104.792L122.715 105.641L128.622 107.579Z" fill="#CEDEE7"/>
<path d="M120.719 109.142L126.645 108.23V107.891L114.812 106.864V107.204L120.719 109.142Z" fill="#9BC3D3"/>
<path fill-rule="evenodd" clip-rule="evenodd" d="M120.719 108.803L126.645 107.891L120.738 106.016L114.812 106.865L120.719 108.803Z" fill="#DEEDF2"/>
<path d="M112.602 110.154L118.528 109.242V108.903L106.695 107.876V108.216L112.602 110.154Z" fill="#9BC3D3"/>
<path fill-rule="evenodd" clip-rule="evenodd" d="M112.602 109.815L118.528 108.903L112.621 107.028L106.695 107.877L112.602 109.815Z" fill="#CEDEE7"/>
<path fill-rule="evenodd" clip-rule="evenodd" d="M43.7222 55.9449C39.1381 55.9449 35.4219 59.6611 35.4219 64.2452V68.0178C35.4219 75.317 38.2214 81.9435 44.1612 83.9492C49.3911 85.7151 50.8171 90.0964 50.8171 93.6112V94.0526L74.3669 91.6521V90.7864C74.3669 85.1833 72.0272 82.973 68.2748 81.8979C62.6825 80.2955 58.123 74.1663 58.123 68.3489V61.8783C58.123 57.8614 61.3797 54.605 65.3966 54.605H66.4233C70.4405 54.605 47.7391 55.9449 43.7222 55.9449Z" fill="white"/>
<path fill-rule="evenodd" clip-rule="evenodd" d="M43.0642 55.933L42.1836 55.8776L65.3138 55.1621C66.6573 55.0878 68.0074 55.3525 69.1925 55.9899C71.2423 57.0922 73.4859 58.5621 73.0343 64.2079L49.2442 66.9175C49.2442 66.9175 50.0528 56.4479 43.0642 55.933Z" fill="#DEEDF2"/>
<path d="M43.5759 55.9842L42.6953 55.9291L65.8255 54.6494C67.169 54.5751 68.5191 54.8398 69.7042 55.4772C71.7541 56.5798 73.9976 59.0745 73.5461 64.7204L50.7811 65.6359C50.7811 65.6359 51.6269 56.4755 43.5759 55.9842Z" fill="#EAF7FE"/>
<path fill-rule="evenodd" clip-rule="evenodd" d="M29.6471 106.332C30.1361 99.2243 35.9983 93.5628 43.1186 93.3221C45.2964 93.2486 47.3588 93.6743 49.211 94.4844V94.4821C49.211 94.4821 108.447 111.697 110.355 112.257C117.017 114.213 121.386 117.788 123.398 123.631L112.902 123.356C101.02 119.899 54.4453 106.363 54.4453 106.363V106.366C52.593 105.556 50.5304 105.13 48.3529 105.204C41.2326 105.444 35.3704 111.106 34.8814 118.213C34.8806 118.224 34.8806 118.234 34.8801 118.245C31.4268 115.485 29.317 111.132 29.6471 106.332Z" fill="#34466B"/>
<path fill-rule="evenodd" clip-rule="evenodd" d="M79.1569 91.9785L101.961 98.1047L79.3889 101.127L54.7109 94.4476L79.1569 91.9785Z" fill="#EAF7FE"/>
<path fill-rule="evenodd" clip-rule="evenodd" d="M66.8164 39.5046C66.8164 43.3025 70.0572 46.3812 74.055 46.3812C78.0527 46.3812 81.2936 43.3025 81.2936 39.5046C81.2936 35.7067 78.0527 32.6279 74.055 32.6279C70.0572 32.6279 66.8164 35.7067 66.8164 39.5046Z" fill="#D39E00"/>
<path fill-rule="evenodd" clip-rule="evenodd" d="M67.707 39.5051C67.707 43.3025 70.9483 46.3817 74.9456 46.3817C75.6047 46.3817 76.2436 46.2981 76.8501 46.1405C79.9242 45.3464 82.184 42.6763 82.184 39.5051C82.184 35.7071 78.9435 32.6279 74.9456 32.6279C72.958 32.6279 71.1572 33.3895 69.8491 34.6226C68.5264 35.8683 67.707 37.5959 67.707 39.5051Z" fill="#FFE99F"/>
<path fill-rule="evenodd" clip-rule="evenodd" d="M67.707 39.5051C67.707 43.3025 70.9483 46.3817 74.9456 46.3817C75.6047 46.3817 76.2436 46.298 76.8502 46.1404L69.8491 34.6226C68.5264 35.8683 67.707 37.5959 67.707 39.5051Z" fill="#F6C854"/>
<path fill-rule="evenodd" clip-rule="evenodd" d="M135.508 64.6218C135.508 68.4197 138.749 71.4984 142.746 71.4984C146.744 71.4984 149.985 68.4197 149.985 64.6218C149.985 60.8239 146.744 57.7451 142.746 57.7451C138.749 57.7451 135.508 60.8239 135.508 64.6218Z" fill="#D39E00"/>
<path fill-rule="evenodd" clip-rule="evenodd" d="M143.641 71.4984C144.3 71.4984 144.939 71.4148 145.545 71.2572C148.62 70.4631 150.879 67.793 150.879 64.6218C150.879 60.8238 147.639 57.7446 143.641 57.7446C141.653 57.7446 139.853 58.5062 138.544 59.7393C137.222 60.985 136.402 62.7126 136.402 64.6218C136.402 68.4192 139.644 71.4984 143.641 71.4984Z" fill="#FFE99F"/>
<path fill-rule="evenodd" clip-rule="evenodd" d="M136.402 64.6218C136.402 68.4192 139.644 71.4984 143.641 71.4984C144.3 71.4984 144.939 71.4147 145.545 71.2571L138.544 59.7393C137.222 60.985 136.402 62.7126 136.402 64.6218Z" fill="#F6C854"/>
<path fill-rule="evenodd" clip-rule="evenodd" d="M80.4023 54.3698C80.4023 58.1677 83.6432 61.2465 87.6409 61.2465C91.6387 61.2465 94.8795 58.1677 94.8795 54.3698C94.8795 50.5719 91.6387 47.4932 87.6409 47.4932C83.6432 47.4932 80.4023 50.5719 80.4023 54.3698Z" fill="#D39E00"/>
<path fill-rule="evenodd" clip-rule="evenodd" d="M81.293 54.3699C81.293 58.1672 84.5342 61.2465 88.5315 61.2465C89.1906 61.2465 89.8295 61.1628 90.4361 61.0052C93.5102 60.2112 95.77 57.5411 95.77 54.3699C95.77 50.5719 92.5294 47.4927 88.5315 47.4927C86.5439 47.4927 84.7432 48.2542 83.435 49.4873C82.1123 50.7331 81.293 52.4606 81.293 54.3699Z" fill="#FFE99F"/>
<path fill-rule="evenodd" clip-rule="evenodd" d="M81.293 54.3698C81.293 58.1672 84.5342 61.2464 88.5315 61.2464C89.1906 61.2464 89.8295 61.1628 90.4361 61.0052L83.435 49.4873C82.1123 50.733 81.293 52.4606 81.293 54.3698Z" fill="#F6C854"/>
<path fill-rule="evenodd" clip-rule="evenodd" d="M51.4375 52.5759C51.4375 56.3738 54.6783 59.4525 58.6761 59.4525C62.6738 59.4525 65.9147 56.3738 65.9147 52.5759C65.9147 48.778 62.6738 45.6992 58.6761 45.6992C54.6783 45.6992 51.4375 48.778 51.4375 52.5759Z" fill="#D39E00"/>
<path fill-rule="evenodd" clip-rule="evenodd" d="M52.332 52.5759C52.332 56.3733 55.5733 59.4525 59.5706 59.4525C60.2297 59.4525 60.8686 59.3689 61.4751 59.2113C64.5492 58.4172 66.809 55.7471 66.809 52.5759C66.809 48.7779 63.5685 45.6987 59.5706 45.6987C57.583 45.6987 55.7822 46.4603 54.4741 47.6934C53.1514 48.9391 52.332 50.6667 52.332 52.5759Z" fill="#FFE99F"/>
<path fill-rule="evenodd" clip-rule="evenodd" d="M52.332 52.5759C52.332 56.3733 55.5733 59.4525 59.5706 59.4525C60.2297 59.4525 60.8686 59.3688 61.4752 59.2112L54.4741 47.6934C53.1514 48.9391 52.332 50.6667 52.332 52.5759Z" fill="#F6C854"/>
<path d="M150.333 82.6694C150.333 82.6694 150.077 84.7449 150.828 85.5766C151.587 86.418 147.578 88.15 147.578 88.15C147.578 88.15 148.111 86.7955 148.019 84.4135C147.985 83.547 150.333 82.6694 150.333 82.6694Z" fill="#F4A48D"/>
<path fill-rule="evenodd" clip-rule="evenodd" d="M150.333 82.6694C150.333 82.6694 150.077 84.7449 150.828 85.5766C151.587 86.418 147.578 88.15 147.578 88.15C147.578 88.15 148.111 86.7955 148.019 84.4135C147.985 83.547 150.333 82.6694 150.333 82.6694Z" fill="#FFC4B8"/>
<path fill-rule="evenodd" clip-rule="evenodd" d="M149.879 79.4335C148.902 79.035 147.995 79.2323 147.129 80.3431C146.611 81.0069 146.73 81.8519 146.345 82.1769C146.092 82.3911 145.967 82.3099 146.02 82.4824C146.09 82.7128 146.338 82.7997 146.338 82.7997C146.338 82.7997 146.271 84.3782 147.115 84.8892C147.875 85.349 149.584 85.1512 150.366 84.0435C150.847 83.363 152.12 80.347 149.879 79.4335Z" fill="#FFC4B8"/>
<path fill-rule="evenodd" clip-rule="evenodd" d="M149.877 79.4336C149.605 79.3226 149.339 79.2598 149.077 79.248C150.418 80.264 149.903 82.8597 149.533 83.4782C148.915 84.5115 147.86 85.04 147.055 84.8468C147.074 84.8606 147.092 84.8768 147.113 84.8893C147.873 85.3491 149.4 85.1892 150.302 84.1163C150.839 83.4787 152.118 80.347 149.877 79.4336Z" fill="#F4A48D"/>
<path fill-rule="evenodd" clip-rule="evenodd" d="M147.443 77.8341C147.443 77.8341 147.97 78.2891 148.221 78.1491C148.472 78.0094 149.273 77.8329 149.835 78.0966C150.596 78.4533 150.423 78.7717 150.628 78.7763C151.513 78.7968 152.411 79.4309 152.543 80.4219C152.723 81.7682 151.8 83.0953 151.209 83.8276C150.866 84.2527 150.681 84.8338 150.681 84.8338C150.681 84.8338 149.523 84.1838 150.239 82.1442C150.436 81.5829 150.312 81.4312 150.205 81.6849C150.048 82.0584 149.903 82.0658 149.903 82.0658C149.918 82.0025 149.762 80.4381 148.807 80.4665C148.56 80.474 148.285 80.5009 147.992 80.4573C147.087 80.3233 146.21 79.873 146.509 79.4337C146.521 79.417 146.537 79.4032 146.552 79.3886C146.448 79.2699 146.366 79.1407 146.318 78.9972C146.036 78.1612 146.621 77.2741 147.443 77.8341Z" fill="#137E84"/>
<path fill-rule="evenodd" clip-rule="evenodd" d="M148.163 119.991L148.104 120.79C148.085 121.039 148.136 121.287 148.252 121.509C148.438 121.868 148.691 122.626 148.575 122.878C148.398 123.261 143.371 123.247 143.224 123.011C143.076 122.775 143.458 122.723 145.493 121.909C146.144 121.648 146.1 120.462 146.1 120.462L148.163 119.991Z" fill="black"/>
<path d="M148.251 121.509C148.136 121.287 148.085 121.039 148.104 120.79L148.162 119.991L147.679 120.101L147.65 120.488C147.632 120.737 147.683 120.985 147.798 121.207C147.985 121.566 147.944 122.147 147.828 122.399C147.683 122.712 144.584 122.937 143.276 122.814C143.183 122.881 143.177 122.937 143.224 123.011C143.371 123.247 148.398 123.261 148.575 122.878C148.691 122.626 148.438 121.868 148.251 121.509Z" fill="#34466B"/>
<path fill-rule="evenodd" clip-rule="evenodd" d="M157.72 118.645L158.405 119.599C158.405 119.599 159.505 120.143 159.616 120.53C159.721 120.897 158.706 121.799 157.991 122.56C157.672 122.901 157.234 123.102 156.768 123.125C156.031 123.16 155.234 123.196 155.135 123.083C155.009 122.939 155.579 122.688 156.115 122.352C156.609 122.042 156.84 121.444 156.675 120.884L156.297 119.599L157.72 118.645Z" fill="black"/>
<path d="M159.614 120.53C159.503 120.143 158.403 119.599 158.403 119.599L157.719 118.645L157.319 118.913L157.724 119.478C157.724 119.478 158.825 120.022 158.935 120.409C159.04 120.775 158.025 121.678 157.311 122.439C156.991 122.779 156.553 122.981 156.087 123.003C155.753 123.019 155.406 123.035 155.117 123.038C155.117 123.054 155.121 123.069 155.133 123.083C155.232 123.196 156.03 123.16 156.766 123.125C157.232 123.102 157.67 122.9 157.989 122.56C158.704 121.799 159.719 120.897 159.614 120.53Z" fill="#34466B"/>
<path d="M144.935 98.3608C144.935 98.3608 143.743 107.032 143.846 109.938C143.947 112.784 145.864 121.304 145.864 121.304L148.29 121.283C148.29 121.283 149.884 113.105 148.553 110.253C147.628 108.272 150.12 104.402 150.114 101.023C150.11 99.2861 149.862 98.6571 149.862 98.6571L144.935 98.3608Z" fill="#F6C854"/>
<path fill-rule="evenodd" clip-rule="evenodd" d="M144.935 98.3608C144.935 98.3608 143.743 107.032 143.846 109.938C143.947 112.784 145.864 121.262 145.864 121.262L148.29 121.24C148.29 121.24 149.884 113.105 148.553 110.253C147.628 108.272 150.12 104.402 150.114 101.023C150.11 99.2861 149.862 98.6571 149.862 98.6571L144.935 98.3608Z" fill="#F6C854"/>
<path d="M148.142 101.308C148.142 101.308 147.856 105.095 147.213 107.42C146.697 109.285 148.21 110.968 147.828 111.843C147.487 112.624 146.677 114.047 146.975 113.851C147.273 113.655 147.648 112.872 147.828 113.263C148.007 113.655 146.734 116.005 147.224 115.663C147.713 115.32 147.991 115.075 147.828 116.495C147.664 117.915 147.273 121.164 147.273 121.164V121.291L148.287 121.283C148.287 121.283 149.882 113.104 148.551 110.253C147.93 108.922 148.851 106.738 149.52 104.424L148.142 101.308Z" fill="#F6C854"/>
<path fill-rule="evenodd" clip-rule="evenodd" d="M147.828 97.9363C147.828 97.9363 148.286 103.162 148.612 105.6C148.915 107.869 149.433 108.814 149.684 109.731C149.82 110.222 150.027 110.689 150.301 111.118L156.408 120.781L158.577 119.412C158.577 119.412 156.789 112.249 155.228 110.638C153.969 109.338 153.442 108.862 153.442 107.026C153.442 104.837 153.873 99.3149 152.745 98.3605C151.617 97.4063 147.828 97.9363 147.828 97.9363Z" fill="#F6C854"/>
<path d="M150.662 99.2097C151.858 100.076 152.06 105.614 152.226 107.797C152.365 109.628 153.138 110.063 154.492 111.264C156.136 112.722 158.125 119.361 158.197 119.589L158.578 119.412C158.578 119.412 156.79 112.249 155.23 110.638C153.971 109.338 153.444 108.862 153.444 107.026C153.444 104.837 153.874 99.3147 152.747 98.3606C151.619 97.4061 150.094 98.7986 150.662 99.2097Z" fill="#F6C854"/>
<path fill-rule="evenodd" clip-rule="evenodd" d="M147.905 86.2626C147.905 86.2626 149.057 86.5771 150.489 85.0391C150.489 85.0391 151.156 85.1203 152.096 87.7883C152.87 89.9842 153.232 99.4494 153.232 99.4494C153.232 99.4494 146.918 101.854 144.602 99.7921C144.602 99.7921 145.898 90.5365 146.008 90.0773C146.254 89.0475 147.319 87.1778 147.905 86.2626Z" fill="#008437"/>
<path d="M150.143 89.6587L150.876 91.5647C150.876 91.5647 147.835 94.5275 145.504 94.7902L145.988 91.5368L150.143 89.6587Z" fill="#137E84"/>
<path fill-rule="evenodd" clip-rule="evenodd" d="M140.606 89.9809C142.493 90.0701 140.864 89.0027 140.435 88.8591C139.024 88.3871 138.044 87.8788 137.991 87.6207C137.906 87.2107 137.185 86.4669 136.835 86.1594C136.731 86.0684 136.505 85.8615 136.407 85.5845C136.323 85.3464 136.138 85.2347 136.123 85.4999C136.109 85.7649 136.178 85.9102 136.425 86.2555C136.546 86.4231 136.522 86.4738 136.488 86.5105C136.427 86.5745 136.068 86.2855 135.696 85.8864C135.312 85.4748 135.079 85.2454 134.879 85.2185C134.724 85.1977 134.599 85.1852 134.834 85.471C135.069 85.757 135.688 86.2009 135.633 86.3585C135.578 86.5161 135.167 86.1166 134.944 85.8636C134.72 85.6104 134.546 85.2252 134.375 85.3187C134.257 85.3828 134.272 85.5486 134.536 85.909C134.799 86.2696 135.468 86.6707 135.389 86.777C135.311 86.8834 134.695 86.3285 134.566 86.1642C134.432 85.9946 134.255 86.0238 134.416 86.3588C134.577 86.6942 134.831 86.8157 135.139 87.0664C135.446 87.3168 135.641 87.3762 135.607 87.4772C135.573 87.5759 135.354 87.4982 135.103 87.2371C134.853 86.9756 134.638 86.7376 134.609 86.918C134.58 87.0984 134.825 87.4918 135.337 87.8729C135.85 88.2543 136.506 88.7735 137.087 88.7464C137.087 88.7464 137.392 89.0949 138.794 90.5755C142.15 94.1208 140.515 90.8803 140.606 89.9809Z" fill="#FFC4B8"/>
<path fill-rule="evenodd" clip-rule="evenodd" d="M148.276 87.0962C148.276 87.0962 145.009 90.0487 143.754 90.0413C142.232 90.0328 138.391 87.431 138.391 87.431L137.18 89.3591C137.18 89.3591 141.122 93.4054 143.382 93.6522C145.136 93.8437 149.396 92.2044 150.641 91.5598C152.473 90.6116 151.06 85.4478 148.276 87.0962Z" fill="#008437"/>
<path d="M148.359 87.0298L146.676 88.4261L147.804 87.1543L148.359 87.0298Z" fill="#137E84"/>
<path d="M149.754 81.7101C149.754 81.7101 149.965 81.1486 150.485 81.4846C150.918 81.764 150.436 83.0265 149.617 82.6692" fill="#F4A48D"/>
<path fill-rule="evenodd" clip-rule="evenodd" d="M60.514 80.7143L26.4712 113.589C25.5015 114.525 23.9512 114.493 23.0085 113.517L3.6598 93.4807C2.71708 92.5045 2.73911 90.9544 3.70879 90.018L37.7516 57.1432C38.7213 56.2068 40.2712 56.2388 41.214 57.2151L60.5626 77.2512C61.5054 78.2274 61.4837 79.7779 60.514 80.7143Z" fill="#EC0000"/>
<path fill-rule="evenodd" clip-rule="evenodd" d="M17.4478 96.1342L15.3117 98.197C14.9281 98.5674 14.9196 99.1808 15.2925 99.567L17.3699 101.718C17.7429 102.104 18.3562 102.117 18.7397 101.747L20.8759 99.684C21.2594 99.3136 21.268 98.7003 20.895 98.314L18.8177 96.1629C18.4447 95.7766 17.8314 95.7638 17.4478 96.1342Z" fill="#CEDEE7"/>
<path fill-rule="evenodd" clip-rule="evenodd" d="M45.3551 81.7615L52.5642 74.8413L53.5976 75.9543L46.3884 82.8744L45.3551 81.7615ZM37.2243 89.6138L44.4335 82.6936L45.4668 83.8065L38.2577 90.7267L37.2243 89.6138ZM29.0922 97.466L36.3013 90.5459L37.3347 91.6588L30.1256 98.579L29.0922 97.466ZM20.9143 105.364L28.1234 98.4435L29.1568 99.5565L21.9476 106.477L20.9143 105.364ZM27.5494 105.039L30.3405 102.385L31.6937 103.829L28.9027 106.483L27.5494 105.039ZM23.9767 108.489L26.7678 105.835L28.121 107.279L25.33 109.933L23.9767 108.489Z" fill="#CC0000"/>
<path fill-rule="evenodd" clip-rule="evenodd" d="M39.0743 65.1846C38.8074 64.846 38.4375 64.5923 38.0098 64.4708L37.4371 64.3079L35.146 63.6565C34.9277 63.5943 34.7244 63.4978 34.5422 63.3731L34.5734 63.4937C34.7581 64.2069 35.3084 64.7705 36.017 64.9721L36.0175 64.9723L38.3946 65.6481C38.3939 65.6486 38.3932 65.6492 38.3925 65.6498C39.0606 65.8706 39.5752 66.4173 39.7526 67.1022L39.7838 67.2228C39.6016 67.0981 39.3983 67.0016 39.1799 66.9394L39.3947 67.0005L37.4616 66.4508L35.6916 65.9477L35.7434 65.9623C35.5249 65.9002 35.3216 65.8036 35.1394 65.679L35.1706 65.7995C35.3554 66.5127 35.9057 67.0763 36.6143 67.278L36.6148 67.2781L36.6894 67.2993L38.333 67.7666L38.3332 67.7667L38.9058 67.9294C39.6146 68.131 40.1651 68.6947 40.3499 69.4081L40.3812 69.5286C40.1989 69.4039 39.9956 69.3074 39.7772 69.2452L39.992 69.3063L36.9134 68.431L36.913 68.4309C36.6319 68.3509 36.3761 68.2139 36.1578 68.0333C35.1773 69.5526 34.9311 71.0606 35.6677 71.8149C36.6647 72.8356 39.0843 72.089 41.072 70.1474C43.0597 68.2056 43.8628 65.8042 42.8658 64.7834C42.1292 64.0292 40.6161 64.24 39.0743 65.1846Z" fill="white"/>
<path fill-rule="evenodd" clip-rule="evenodd" d="M36.5781 97.1706C36.5781 100.968 39.8189 104.047 43.8167 104.047C47.8145 104.047 51.0553 100.968 51.0553 97.1706C51.0553 93.3727 47.8145 90.2939 43.8167 90.2939C39.8189 90.2939 36.5781 93.3727 36.5781 97.1706Z" fill="#D39E00"/>
<path fill-rule="evenodd" clip-rule="evenodd" d="M37.4688 97.1706C37.4688 100.968 40.71 104.047 44.7073 104.047C45.3664 104.047 46.0053 103.964 46.6119 103.806C49.686 103.012 51.9458 100.342 51.9458 97.1706C51.9458 93.3726 48.7052 90.2935 44.7073 90.2935C42.7197 90.2935 40.919 91.055 39.6108 92.2881C38.2881 93.5338 37.4688 95.2614 37.4688 97.1706Z" fill="#FFE99F"/>
<path fill-rule="evenodd" clip-rule="evenodd" d="M37.4688 97.1706C37.4688 100.968 40.71 104.047 44.7073 104.047C45.3664 104.047 46.0053 103.964 46.6119 103.806L39.6108 92.2881C38.2881 93.5338 37.4688 95.2614 37.4688 97.1706Z" fill="#F6C854"/>
<path fill-rule="evenodd" clip-rule="evenodd" d="M14.0195 57.9582C14.0195 61.7561 17.2603 64.8349 21.2581 64.8349C25.2559 64.8349 28.4967 61.7561 28.4967 57.9582C28.4967 54.1603 25.2559 51.0815 21.2581 51.0815C17.2603 51.0815 14.0195 54.1603 14.0195 57.9582Z" fill="#D39E00"/>
<path fill-rule="evenodd" clip-rule="evenodd" d="M14.9102 57.9582C14.9102 61.7556 18.1514 64.8348 22.1487 64.8348C22.8078 64.8348 23.4467 64.7512 24.0533 64.5936C27.1274 63.7996 29.3872 61.1294 29.3872 57.9582C29.3872 54.1602 26.1466 51.0811 22.1487 51.0811C20.1611 51.0811 18.3604 51.8426 17.0522 53.0757C15.7295 54.3214 14.9102 56.049 14.9102 57.9582Z" fill="#FFE99F"/>
<path fill-rule="evenodd" clip-rule="evenodd" d="M14.9102 57.9582C14.9102 61.7556 18.1514 64.8348 22.1487 64.8348C22.8078 64.8348 23.4467 64.7512 24.0533 64.5936L17.0522 53.0757C15.7295 54.3214 14.9102 56.049 14.9102 57.9582Z" fill="#F6C854"/>
</svg>
