<svg width="160" height="160" viewBox="0 0 160 160" fill="none" xmlns="http://www.w3.org/2000/svg">
<path fill-rule="evenodd" clip-rule="evenodd" d="M58.7934 139.662C59.4351 139.665 60.0749 139.656 60.7126 139.636C73.5538 139.241 85.8971 143.711 96.0647 151.987C102.236 157.011 109.87 159.969 118.244 160C140.179 160.082 158.786 140.21 159.944 115.466C160.454 104.551 157.457 94.5348 152.064 86.7436C147.448 80.0733 145.109 71.6687 145.679 63.007C145.686 62.8954 145.692 62.7839 145.699 62.6727C146.494 48.0843 136.74 36.2925 123.809 36.2168C123.735 36.2161 123.661 36.2163 123.587 36.2168C120.099 36.2334 116.922 34.2689 115.121 31.0011C104.849 12.3693 86.561 0.076185 65.1817 0.000350368C31.0206 -0.120578 1.84615 31.0774 0.0837855 69.6134C-1.67961 108.18 24.6052 139.542 58.7934 139.662Z" fill="#EAF7FE"/>
<path fill-rule="evenodd" clip-rule="evenodd" d="M113.555 135.543C113.434 137.11 112.164 138.257 110.719 138.105L39.3818 130.611C37.9359 130.459 36.8619 129.065 36.9827 127.499L44.6992 27.446C44.82 25.8792 46.0899 24.732 47.5359 24.8839L118.873 32.3782C120.318 32.53 121.393 33.9235 121.272 35.4903L113.555 135.543Z" fill="#DEEDF2"/>
<path fill-rule="evenodd" clip-rule="evenodd" d="M113.829 131.976C113.712 133.49 112.445 134.594 111 134.442L39.663 126.948C38.217 126.796 37.1397 125.446 37.2564 123.932L44.7105 27.2807C44.8272 25.767 46.0938 24.6632 47.5398 24.8151L118.877 32.3093C120.322 32.4612 121.4 33.8113 121.283 35.325L113.829 131.976Z" fill="#34466B"/>
<path fill-rule="evenodd" clip-rule="evenodd" d="M41.8955 121.083L109.575 128.193L116.508 38.3029L48.8281 31.1929L41.8955 121.083Z" fill="white"/>
<path fill-rule="evenodd" clip-rule="evenodd" d="M89.0925 25.9097L101.133 27.1746C103.274 27.3995 104.864 29.4625 104.686 31.7825L104.115 39.1763L61.009 34.6478L61.5792 27.254C61.7581 24.934 63.6387 23.2356 65.7793 23.4605L77.8242 24.7259C78.865 22.337 81.2031 20.8027 83.7855 21.074C86.3681 21.3453 88.434 23.3422 89.0925 25.9097Z" fill="#DEEDF2"/>
<path fill-rule="evenodd" clip-rule="evenodd" d="M61.0093 34.6478L104.116 39.1763L104.513 34.03L61.4062 29.5015L61.0093 34.6478Z" fill="#9BC3D3"/>
<path fill-rule="evenodd" clip-rule="evenodd" d="M85.2773 25.7844C85.1924 26.886 84.2996 27.6927 83.2827 27.5859C82.2663 27.4791 81.5112 26.4993 81.5961 25.3977C81.6811 24.2961 82.574 23.4894 83.5904 23.5962C84.6073 23.703 85.3623 24.6828 85.2773 25.7844Z" fill="#EC0000"/>
<path fill-rule="evenodd" clip-rule="evenodd" d="M55.8684 79.7832C54.9011 92.325 64.266 103.558 76.7855 104.874C89.3051 106.189 100.238 97.0879 101.206 84.5461L101.492 80.8312C102.459 68.2894 93.0943 57.056 80.5748 55.7408C68.0553 54.4256 57.1221 63.5265 56.1549 76.0684L55.8684 79.7832Z" fill="#DEEDF2"/>
<path fill-rule="evenodd" clip-rule="evenodd" d="M107.101 65.762L71.6927 97.2468L54.007 74.7209L61.222 68.3308L72.7954 83.0715L100.986 58.0042L107.101 65.762Z" fill="#008437"/>
</svg>
