<svg width="160" height="160" viewBox="0 0 160 160" fill="none" xmlns="http://www.w3.org/2000/svg">
<circle cx="80" cy="80" r="80" fill="#EAF7FE"/>
<path fill-rule="evenodd" clip-rule="evenodd" d="M80.4782 41.6766C80.4782 44.0578 78.548 45.988 76.1668 45.988C73.7857 45.988 71.8555 44.0578 71.8555 41.6766C71.8555 39.2954 73.7857 37.3652 76.1668 37.3652C78.548 37.3652 80.4782 39.2954 80.4782 41.6766Z" fill="#CEDEE7"/>
<path fill-rule="evenodd" clip-rule="evenodd" d="M143.712 24.5577C143.712 19.1804 139.341 14.8211 133.95 14.8211C133.815 14.8211 133.68 14.8256 133.546 14.8314C133.807 14.0396 133.95 13.1949 133.95 12.316C133.95 7.86678 130.334 4.25996 125.873 4.25996C123.653 4.25996 121.642 5.15453 120.182 6.60091C119.857 4.49151 118.034 2.87451 115.829 2.87451C113.775 2.87451 112.055 4.27596 111.563 6.17096C110.094 4.17275 107.724 2.87451 105.048 2.87451C101.555 2.87451 98.5803 5.08674 97.4539 8.18325C96.5475 7.90601 95.5854 7.75596 94.5878 7.75596C89.1967 7.75596 84.8262 12.1153 84.8262 17.493C84.8262 19.2771 85.3096 20.9478 86.1496 22.3858C84.0252 22.7023 82.3945 24.5242 82.3945 26.7311C82.3945 28.4852 83.4262 29.9948 84.9148 30.7012C83.3487 32.4283 82.3945 34.7178 82.3945 37.2301C82.3945 42.6078 86.765 46.9671 92.1561 46.9671C92.4997 46.9671 92.8387 46.9489 93.1728 46.9142C93.0976 47.3563 93.0563 47.8103 93.0563 48.2738C93.0563 52.723 96.6724 56.3298 101.133 56.3298C103.455 56.3298 105.548 55.3507 107.021 53.7851C107.016 53.8712 107.008 53.9568 107.008 54.0444C107.008 56.4737 108.982 58.4434 111.418 58.4434C113.854 58.4434 115.829 56.4737 115.829 54.0444C115.829 53.9846 115.822 53.9264 115.819 53.867L115.856 53.8624C115.994 56.1672 117.907 57.9948 120.252 57.9948C122.688 57.9948 124.662 56.0255 124.662 53.5958C124.662 52.913 124.502 52.269 124.224 51.6924C125.582 52.7268 127.278 53.3426 129.119 53.3426C133.58 53.3426 137.196 49.7357 137.196 45.2862C137.196 43.8101 136.796 42.4277 136.101 41.238C136.202 41.2448 136.303 41.2532 136.406 41.2532C138.841 41.2532 140.816 39.2836 140.816 36.8543C140.816 35.2506 139.953 33.8514 138.667 33.0829C141.675 31.4236 143.712 28.2285 143.712 24.5577Z" fill="#CEDEE7"/>
<path fill-rule="evenodd" clip-rule="evenodd" d="M71.854 49.8205C71.854 51.4079 70.5671 52.6948 68.9797 52.6948C67.3923 52.6948 66.1055 51.4079 66.1055 49.8205C66.1055 48.2332 67.3923 46.9463 68.9797 46.9463C70.5671 46.9463 71.854 48.2332 71.854 49.8205Z" fill="#CEDEE7"/>
<path d="M39.6496 54.7751C38.8499 57.1855 37.78 59.4973 36.4609 61.6675C39.521 58.2221 41.8493 54.1908 43.3049 49.8184C43.7206 48.5613 44.2441 47.3422 44.8702 46.1753C42.4888 48.6001 40.7022 51.5438 39.6496 54.7751Z" fill="#9BC3D3"/>
<path fill-rule="evenodd" clip-rule="evenodd" d="M39.6875 70.5659L47.2494 72.0304C49.4794 72.4612 51.3975 73.8713 52.4737 75.8712L64.967 99.0817L58.0252 104.654L48.2544 86.8557L39.6875 70.5659Z" fill="#EC0000"/>
<path d="M46.7997 67.0947L48.1065 69.1701L46.0581 74.9142L41.832 70.3917L45.172 67.1082L46.7997 67.0947Z" fill="#990000"/>
<path d="M49.7293 75.2688L30.457 75.0298L36.0637 100.707L46.3674 106.408L58.9024 101.445L52.7523 78.3786L49.7293 75.2688Z" fill="#CC0000"/>
<path fill-rule="evenodd" clip-rule="evenodd" d="M34.3932 55.2147C35.7721 60.3577 41.0547 63.4131 46.2002 62.0439C51.339 60.6886 54.4062 55.4242 53.0509 50.285C53.0492 50.2799 53.048 50.2749 53.0467 50.2698C51.669 45.1277 46.3878 42.0718 41.2431 43.4406C36.1043 44.7946 33.0362 50.0578 34.3903 55.1965C34.3915 55.2024 34.3932 55.2088 34.3949 55.2147" fill="#767676"/>
<path fill-rule="evenodd" clip-rule="evenodd" d="M33.1484 67.1746C33.1484 67.1746 39.7724 75.7461 46.2213 78.8559L47.0265 73.7226C46.5114 73.2273 46.0877 72.6451 45.7758 72.0022C45.6965 71.8441 45.6261 71.6818 45.565 71.5162C45.4895 71.3206 45.425 71.1208 45.3711 70.9184C45.1299 70.0129 45.1025 69.0644 45.2914 68.1467L45.9532 64.9007L46.0047 64.6477L45.4035 64.0799L37.0824 56.1938C37.0824 56.1938 37.6751 63.8067 33.1497 67.1725" fill="#FFC4B8"/>
<path fill-rule="evenodd" clip-rule="evenodd" d="M46.3538 70.376C46.3538 70.376 44.4847 75.1067 38.0977 70.9759C38.0977 70.9759 39.055 83.3005 39.34 83.3587C39.625 83.4168 48.0401 83.2423 48.0401 83.2423L49.0059 77.0593L46.3538 70.376Z" fill="white"/>
<path fill-rule="evenodd" clip-rule="evenodd" d="M43.4016 125.249C44.7966 125.728 46.256 125.991 47.7306 126.029L55.5699 126.223C62.5361 126.399 69.4855 125.461 76.1558 123.444L78.1936 122.829L76.238 105.884L35.3524 99.3096C35.3524 99.3096 27.4486 118.821 43.4016 125.249Z" fill="#34466B"/>
<path fill-rule="evenodd" clip-rule="evenodd" d="M37.4482 59.4877L43.0498 66.4148C44.2513 68.0348 46.5386 68.3737 48.1587 67.1723C48.3252 67.0488 48.4812 66.9109 48.6245 66.7609C49.237 66.1138 49.8116 65.4317 50.3449 64.718L51.5674 63.079C51.6492 62.9694 51.7272 62.8577 51.8022 62.7455C52.0711 62.3375 52.2946 61.9012 52.4687 61.4446C52.8262 60.5244 52.9796 59.5375 52.9189 58.5519L52.5816 52.9953C52.5146 51.8993 51.8747 50.9192 50.898 50.4167C48.8075 49.3404 46.3911 49.0791 44.1185 49.6832C43.9439 49.7283 43.7694 49.7797 43.5962 49.8358L42.3188 50.173C41.3897 50.4146 40.534 50.8796 39.8262 51.5275C39.2554 52.0468 38.7917 52.6729 38.4616 53.3705C38.2238 53.8726 38.0582 54.4055 37.9696 54.9535C37.8516 55.6823 37.871 56.4272 38.0278 57.1489L37.6332 56.6587C37.3803 56.7274 37.4503 59.4865 37.4503 59.4865" fill="#FFC4B8"/>
<path d="M52.6364 53.8413L50.9439 54.0715L49.0469 62.6219L53.3328 62.0886L52.6364 53.8413Z" fill="#FFC4B8"/>
<path fill-rule="evenodd" clip-rule="evenodd" d="M47.3898 68.0693C47.3898 68.0693 48.4231 68.6072 46.5231 71.4717C44.6232 74.3362 44.4727 79.319 44.4727 79.319L47.7157 84.951L52.7525 78.3794L50.1675 71.5194C49.6321 70.1033 48.6591 68.8952 47.3898 68.0698" fill="#EC0000"/>
<path fill-rule="evenodd" clip-rule="evenodd" d="M36.1533 55.9401C35.7997 54.6177 36.1314 53.3834 36.8927 53.181C37.6541 52.9787 38.5575 53.8867 38.9086 55.2091C39.2598 56.5316 38.9301 57.7663 38.1696 57.9682C37.4092 58.1702 36.5045 57.263 36.1533 55.9401Z" fill="#FFC4B8"/>
<path fill-rule="evenodd" clip-rule="evenodd" d="M77.3496 152.754L71.8896 114.692L58.2383 105.422L72.3769 103.599C78.0725 102.858 83.3091 106.825 84.1375 112.509L89.3631 148.697L77.3496 152.754Z" fill="#34466B"/>
<path fill-rule="evenodd" clip-rule="evenodd" d="M86.1942 154.482L80.7333 116.421L67.082 107.151L81.2202 105.327C86.9159 104.587 92.1512 108.553 92.9812 114.236L98.2085 150.425L86.1942 154.482Z" fill="#34466B"/>
<path fill-rule="evenodd" clip-rule="evenodd" d="M37.4956 57.1324C37.3552 58.5155 37.77 59.8983 38.6489 60.9753L43.05 66.4159C44.2506 68.0356 46.5371 68.3753 48.1567 67.1747C48.3237 67.0508 48.4801 66.913 48.6234 66.7625C48.9746 66.3966 49.3072 66.0159 49.6157 65.6441C49.8784 65.3283 50.1216 65.0164 50.3446 64.7192L50.7063 64.2314L50.7303 64.1994L51.194 63.5759L51.5646 63.081C51.6489 62.9714 51.7252 62.8597 51.8002 62.748C50.5933 62.1675 49.1765 62.2257 48.021 62.9027L41.9898 59.6643L39.4566 50.1611L38.2662 52.8169C38.2662 52.8169 37.5204 55.3159 38.0242 57.1522L37.63 56.662C37.5655 56.6792 37.5221 56.8639 37.4943 57.1328" fill="#767676"/>
<path d="M49.6168 65.6426C49.8799 65.3265 50.1227 65.0145 50.3457 64.7182L50.7078 64.23L48.5195 63.7119C48.5195 63.7119 48.8568 65.0432 49.6156 65.6431" fill="#FFC4B8"/>
<path fill-rule="evenodd" clip-rule="evenodd" d="M83.3047 150.338C83.6419 152.387 87.4515 156.981 87.4515 156.981H107.549C107.549 156.981 93.0401 147.316 89.8704 147.142L83.3047 150.338Z" fill="#34466B"/>
<path d="M62.6056 103.593L52.1641 103.247" stroke="#EC0000" stroke-width="3.7928"/>
<path fill-rule="evenodd" clip-rule="evenodd" d="M48.4433 99.2189L52.4902 99.0313L56.6362 95.505C56.9992 95.1952 57.4448 94.997 57.9178 94.9351L61.8307 94.4102C62.4305 94.3297 63.0241 94.5953 63.3639 95.0965L64.4076 96.6424C64.4502 96.7043 64.4582 96.784 64.4283 96.8531L64.3233 97.1158C64.2744 97.2334 64.1395 97.289 64.0223 97.2401C64.0038 97.2325 63.9861 97.2224 63.9705 97.2102L63.8364 97.1027L63.9979 97.4231C64.0864 97.5955 64.0582 97.805 63.9267 97.9479L63.5477 98.3632C63.3791 98.5436 63.0991 98.5621 62.9082 98.4053L61.1642 96.9691C61.133 96.9429 61.0913 96.9328 61.0516 96.9413L60.1529 97.1288C60.0816 97.1432 60.0357 97.2132 60.0504 97.2844C60.0584 97.3223 60.0825 97.3548 60.1162 97.3738L61.2864 98.0293C61.4378 98.114 61.4922 98.305 61.4074 98.4563C61.3691 98.525 61.3063 98.5769 61.2308 98.6013L60.351 98.8964C60.2949 98.9133 60.2359 98.9162 60.1782 98.9053L59.5619 98.7632C59.3894 98.7244 59.2086 98.7464 59.0509 98.8256L58.1863 99.264C58.0156 99.35 57.871 99.4803 57.7677 99.6405L57.2332 100.458C56.9836 100.842 56.6219 101.14 56.1978 101.311L47.7734 104.737L48.4433 99.2189Z" fill="#FFC4B8"/>
<path fill-rule="evenodd" clip-rule="evenodd" d="M62.2291 105.262L86.2928 102.785C86.7506 102.739 87.1136 102.379 87.1633 101.922L88.9815 84.7832C89.0418 84.2512 88.6586 83.7715 88.1266 83.7116C88.0558 83.7036 87.9845 83.7036 87.9137 83.7112L63.8517 86.187C63.3934 86.2321 63.0305 86.5934 62.9828 87.0512L61.1617 104.189C61.1052 104.725 61.4943 105.205 62.0305 105.261C62.0967 105.268 62.1633 105.268 62.2295 105.262" fill="white"/>
<path fill-rule="evenodd" clip-rule="evenodd" d="M63.7688 86.9715L61.9469 104.108C61.8904 104.644 62.279 105.124 62.8148 105.181C62.8815 105.187 62.9485 105.188 63.0147 105.181L73.0903 104.142L85.8689 102.83L87.0784 102.705C87.5371 102.659 87.9004 102.297 87.9468 101.838L89.7671 84.7027C89.8244 84.1681 89.4374 83.688 88.9025 83.6311C88.8346 83.6239 88.7667 83.6235 88.6993 83.6307L78.8677 84.6403L64.6364 86.1048C64.1786 86.1524 63.8165 86.5133 63.7676 86.9711" fill="#EC0000"/>
<path fill-rule="evenodd" clip-rule="evenodd" d="M78.8672 84.6405L85.8671 102.829L87.077 102.705C87.5352 102.657 87.8982 102.296 87.9475 101.838L89.7653 84.7025C89.823 84.1684 89.4365 83.6887 88.9023 83.6309C88.8341 83.6238 88.7653 83.6238 88.6975 83.6305L78.8672 84.6405Z" fill="#CC0000"/>
<path fill-rule="evenodd" clip-rule="evenodd" d="M77.7891 153.954C78.1238 156.005 78.3586 158.797 78.3586 158.797H98.4567C98.4567 158.797 83.9493 149.131 80.7775 148.957L77.7891 153.954Z" fill="#34466B"/>
<mask id="mask0_1557_4600" style="mask-type:luminance" maskUnits="userSpaceOnUse" x="29" y="127" width="35" height="7">
<path fill-rule="evenodd" clip-rule="evenodd" d="M31.5418 127.877L29.7422 133.174H63.8495L62.0495 127.877H31.5418Z" fill="white"/>
</mask>
<g mask="url(#mask0_1557_4600)">
<path d="M64.3285 127.398H29.2617V133.653H64.3289L64.3285 127.398Z" fill="#D39E00"/>
</g>
<mask id="mask1_1557_4600" style="mask-type:luminance" maskUnits="userSpaceOnUse" x="60" y="130" width="14" height="30">
<path fill-rule="evenodd" clip-rule="evenodd" d="M60.4336 130.761L71.534 159.028H73.149L63.0283 130.761H60.4336Z" fill="white"/>
</mask>
<g mask="url(#mask1_1557_4600)">
<path d="M59.9531 159.507H73.6293V130.282H59.9531V159.507Z" fill="#D39E00"/>
</g>
<mask id="mask2_1557_4600" style="mask-type:luminance" maskUnits="userSpaceOnUse" x="10" y="83" width="51" height="46">
<path fill-rule="evenodd" clip-rule="evenodd" d="M25.5993 83.1475C14.0954 83.1475 6.90492 95.5632 12.6575 105.496H12.6571L21.3985 120.588C24.3447 125.666 29.7735 128.791 35.645 128.787H60.6598L38.5419 90.5943C35.8659 85.9845 30.9387 83.1475 25.609 83.1475C25.6056 83.1475 25.6027 83.1475 25.5993 83.1475Z" fill="white"/>
</mask>
<g mask="url(#mask2_1557_4600)">
<path d="M10.1523 129.268H61.1392V82.6685H10.1523V129.268Z" fill="#CEDEE7"/>
</g>
<mask id="mask3_1557_4600" style="mask-type:luminance" maskUnits="userSpaceOnUse" x="35" y="109" width="32" height="20">
<path fill-rule="evenodd" clip-rule="evenodd" d="M54.1858 109.038H35.0117L46.4511 128.789H61.9648C62.829 128.791 63.6789 128.565 64.4275 128.133C66.7781 126.777 67.5846 123.774 66.2293 121.423L61.4948 113.245C59.9839 110.641 57.2016 109.038 54.1909 109.038C54.1896 109.038 54.1875 109.038 54.1858 109.038Z" fill="white"/>
</mask>
<g mask="url(#mask3_1557_4600)">
<path d="M34.5352 129.268H67.3816V108.559H34.5352V129.268Z" fill="#DEEDF2"/>
</g>
<mask id="mask4_1557_4600" style="mask-type:luminance" maskUnits="userSpaceOnUse" x="14" y="109" width="37" height="20">
<path fill-rule="evenodd" clip-rule="evenodd" d="M33.8698 109.04H14.6953L21.3858 120.59C24.3325 125.668 29.7613 128.793 35.6324 128.789H50.1803L41.1779 113.246C39.6675 110.642 36.8856 109.04 33.8753 109.04C33.8736 109.04 33.8715 109.04 33.8698 109.04Z" fill="white"/>
</mask>
<g mask="url(#mask4_1557_4600)">
<path d="M14.2148 129.269H50.6601V108.56H14.2148V129.269Z" fill="#CEDEE7"/>
</g>
<path d="M31.2498 68.2925L27.2931 70.3581C22.8056 72.7003 20.149 77.4942 20.5423 82.5411L22.0839 102.101C22.4106 106.169 25.9197 109.236 29.9953 109.015L50.0112 107.955C50.0112 107.955 47.5793 100.404 50.0154 98.7226L32.3003 99.1441L32.0567 79.3634L31.2498 68.2925Z" fill="#CC0000"/>
<path d="M40.8411 71.5907L47.7365 81.2081L48.8157 96.8875L31.9576 105.261L27.5312 72.2037L35.3676 68.1567C37.5702 68.5412 39.5347 69.773 40.8398 71.5891" fill="#CC0000"/>
<mask id="mask5_1557_4600" style="mask-type:luminance" maskUnits="userSpaceOnUse" x="85" y="0" width="52" height="53">
<circle cx="110.87" cy="26.558" r="25.6" fill="white"/>
</mask>
<g mask="url(#mask5_1557_4600)">
<path fill-rule="evenodd" clip-rule="evenodd" d="M89.4348 12.8447L96.5904 25.2389C100.956 32.8002 109.024 37.4581 117.755 37.4581H134.086L126.93 25.064C122.565 17.5027 114.497 12.8447 105.766 12.8447H89.4348Z" fill="#EAF7FE"/>
<path d="M104.02 33.0915C102.039 33.5188 101.495 34.3032 99.423 34.5155C95.2619 34.9419 88.8148 35.7794 88.6216 36.4076C88.2606 37.5816 87.5668 39.2083 94.3701 39.7609C94.7341 39.7905 108.262 44.0723 95.8169 38.166C103.472 43.1142 133.271 36.0508 133.443 36.0121C135.549 35.5368 129.134 31.9519 120.042 31.6466C113.847 31.4386 107.326 32.3783 104.02 33.0915Z" fill="#9BC3D3"/>
<circle cx="119.056" cy="16.3423" r="9.07907" fill="#DEEDF2"/>
<path fill-rule="evenodd" clip-rule="evenodd" d="M112.66 16.1234C112.818 14.8206 113.919 13.812 115.253 13.812C116.696 13.812 117.865 14.9926 117.865 16.4491C117.865 16.688 117.834 16.9195 117.775 17.1396C117.797 17.1399 117.819 17.1407 117.841 17.142L117.866 17.1399V17.1436C118.614 17.2004 119.204 17.8313 119.204 18.6012C119.204 19.3711 118.614 20.0021 117.866 20.0588L108.353 20.0632C107.77 20.063 107.297 19.5858 107.297 18.9973C107.297 18.4087 107.77 17.9315 108.353 17.9315L110.763 17.731C110.752 17.6583 110.746 17.5839 110.746 17.5081C110.746 16.7009 111.395 16.0464 112.194 16.0464C112.357 16.0464 112.514 16.0735 112.66 16.1234Z" fill="white"/>
<path fill-rule="evenodd" clip-rule="evenodd" d="M125.522 43.8788C125.669 41.0973 117.843 38.4233 108.042 37.9062C98.2405 37.3891 93.0784 38.8963 92.9317 41.6778C92.7849 44.4593 97.7091 47.4617 107.51 47.9788C117.311 48.4959 125.375 46.6602 125.522 43.8788Z" fill="#EAF7FE"/>
<rect x="102.996" y="38.6587" width="18.9619" height="0.958084" transform="rotate(-99.39 102.996 38.6587)" fill="#767676"/>
<path fill-rule="evenodd" clip-rule="evenodd" d="M115.43 22.6761C97.2778 15.1776 88.0981 28.3097 88.0981 28.3097L115.43 22.6761Z" fill="#34466B"/>
<mask id="mask6_1557_4600" style="mask-type:luminance" maskUnits="userSpaceOnUse" x="87" y="20" width="29" height="8">
<path fill-rule="evenodd" clip-rule="evenodd" d="M115.09 27.1224C100.144 14.3817 87.3555 24.0343 87.3555 24.0343L115.09 27.1224Z" fill="white"/>
</mask>
<g mask="url(#mask6_1557_4600)">
<path d="M90.777 26.1678C91.0653 24.6609 93.4076 21.2469 92.914 24.2094C92.585 26.1844 92.9919 27.4917 94.1348 28.1312L91.8054 28.6264C90.9275 27.9919 90.5847 27.1723 90.777 26.1678Z" fill="white"/>
</g>
<mask id="mask7_1557_4600" style="mask-type:luminance" maskUnits="userSpaceOnUse" x="87" y="20" width="29" height="8">
<path fill-rule="evenodd" clip-rule="evenodd" d="M115.09 27.1224C100.144 14.3817 87.3555 24.0343 87.3555 24.0343L115.09 27.1224Z" fill="white"/>
</mask>
<g mask="url(#mask7_1557_4600)">
<path d="M96.1955 21.2168C96.6585 18.2804 99.1178 18.5857 98.5249 20.7216C98.1296 22.1456 98.452 24.02 99.4923 26.3448L97.1629 26.8399C96.2093 25.0487 95.8868 23.1743 96.1955 21.2168Z" fill="white"/>
</g>
<mask id="mask8_1557_4600" style="mask-type:luminance" maskUnits="userSpaceOnUse" x="87" y="20" width="29" height="8">
<path fill-rule="evenodd" clip-rule="evenodd" d="M115.09 27.1224C100.144 14.3817 87.3555 24.0343 87.3555 24.0343L115.09 27.1224Z" fill="white"/>
</mask>
<g mask="url(#mask8_1557_4600)">
<path d="M102.153 21.2168C102.616 18.2804 105.075 18.5857 104.482 20.7216C104.087 22.1456 104.409 24.02 105.449 26.3448L103.12 26.8399C102.166 25.0487 101.844 23.1743 102.153 21.2168Z" fill="white"/>
</g>
<mask id="mask9_1557_4600" style="mask-type:luminance" maskUnits="userSpaceOnUse" x="87" y="20" width="29" height="8">
<path fill-rule="evenodd" clip-rule="evenodd" d="M115.09 27.1224C100.144 14.3817 87.3555 24.0343 87.3555 24.0343L115.09 27.1224Z" fill="white"/>
</mask>
<g mask="url(#mask9_1557_4600)">
<path d="M108.106 21.2168C108.569 18.2804 111.028 18.5857 110.435 20.7216C110.04 22.1456 110.362 24.02 111.402 26.3448L109.073 26.8399C108.119 25.0487 107.797 23.1743 108.106 21.2168Z" fill="white"/>
</g>
<path d="M107.82 17.9982L108.2 15.3008L107.82 17.9982Z" fill="#444444"/>
</g>
<path fill-rule="evenodd" clip-rule="evenodd" d="M126.275 7.26346C126.009 5.09217 124.166 3.41113 121.932 3.41113C119.515 3.41113 117.555 5.37882 117.555 7.8062C117.555 8.20443 117.608 8.59029 117.707 8.95711C117.67 8.9576 117.633 8.95893 117.596 8.96108L117.555 8.95767V8.96382C116.302 9.0584 115.314 10.1099 115.314 11.3931C115.314 12.6763 116.302 13.7279 117.555 13.8225V13.8297H133.489V13.8295H133.489C134.466 13.8295 135.258 13.0342 135.258 12.0532C135.258 11.0722 134.466 10.277 133.489 10.277H133.489V10.2769L129.452 9.9427C129.471 9.82161 129.48 9.6976 129.48 9.57135C129.48 8.22587 128.394 7.1351 127.054 7.1351C126.782 7.1351 126.52 7.18023 126.275 7.26346Z" fill="#9BC3D3"/>
</svg>
