<svg width="161" height="161" viewBox="0 0 161 161" fill="none" xmlns="http://www.w3.org/2000/svg">
<path fill-rule="evenodd" clip-rule="evenodd" d="M60.8987 37.3478C52.7509 46.0143 41.9563 51.6706 30.2579 53.7965C23.1574 55.0869 16.3633 58.4784 10.8733 63.9712C-3.50614 78.3578 -3.52247 101.558 10.8376 115.964C17.1723 122.319 25.2498 125.871 33.5326 126.619C40.6235 127.26 47.2857 130.356 52.2053 135.507C52.2687 135.573 52.3326 135.639 52.3965 135.704C60.7889 144.272 74.3649 144.357 82.859 135.891C82.9078 135.842 82.956 135.794 83.0038 135.745C85.2729 133.44 88.548 132.434 91.7213 133.051C109.814 136.567 129.272 131.313 143.285 117.288C165.676 94.8788 165.676 58.48 143.285 36.0703C120.876 13.6431 84.5451 13.6432 62.1366 36.0706C61.7159 36.4915 61.3033 36.9173 60.8987 37.3478Z" fill="#DEEDF2"/>
<path fill-rule="evenodd" clip-rule="evenodd" d="M153.111 100.692L108.295 103.383L105.242 52.0408L150.059 49.3496L153.111 100.692Z" fill="#EAF7FE"/>
<path fill-rule="evenodd" clip-rule="evenodd" d="M149.695 91.6167L110.665 93.9537C110.363 93.9717 110.104 93.741 110.086 93.4381L107.782 54.8071C107.764 54.5045 107.995 54.2442 108.297 54.2262L147.326 51.8892C147.628 51.8712 147.888 52.1019 147.906 52.4048L150.209 91.0358C150.228 91.3384 149.997 91.5987 149.695 91.6167Z" fill="#9BC3D3"/>
<path fill-rule="evenodd" clip-rule="evenodd" d="M56.2868 122.088L100.764 124.779L103.793 73.4365L59.3161 70.7454L56.2868 122.088Z" fill="#EAF7FE"/>
<path fill-rule="evenodd" clip-rule="evenodd" d="M98.3944 114.987C98.6939 115.005 98.9512 114.774 98.9692 114.472L101.253 75.8405C101.271 75.5379 101.042 75.2776 100.743 75.2596L62.0469 72.9226C61.7474 72.9046 61.4899 73.1353 61.4721 73.4382L59.1884 112.069C59.1703 112.372 59.3988 112.632 59.6983 112.65L98.3944 114.987Z" fill="#9BC3D3"/>
<mask id="mask0_1487_26460" style="mask-type:luminance" maskUnits="userSpaceOnUse" x="59" y="72" width="43" height="43">
<path fill-rule="evenodd" clip-rule="evenodd" d="M98.3944 114.987C98.6939 115.005 98.9512 114.774 98.9692 114.472L101.253 75.8405C101.271 75.5379 101.042 75.2776 100.743 75.2596L62.0469 72.9226C61.7474 72.9046 61.4899 73.1353 61.4721 73.4382L59.1884 112.069C59.1703 112.372 59.3988 112.632 59.6983 112.65L98.3944 114.987Z" fill="white"/>
</mask>
<g mask="url(#mask0_1487_26460)">
<path fill-rule="evenodd" clip-rule="evenodd" d="M68.241 83.1869C68.241 83.1869 69.6414 87.0353 69.8472 87.9509C70.0425 88.8208 70.9998 91.1899 71.1989 91.6567C71.4446 92.2349 73.9274 96.7359 74.4812 96.7941C74.8271 96.8305 75.83 96.5785 76.644 96.3482C77.136 96.2079 77.5596 96.0756 77.7263 96.0191C78.1707 95.8693 80.545 95.4909 81.34 95.6583C81.34 95.6583 81.5286 95.7046 81.816 95.7635C82.4733 95.8976 83.6486 96.099 84.274 95.9667C85.1733 95.7764 85.7023 95.1322 86.283 94.6242C86.8637 94.1162 88.7884 92.3198 88.9614 91.9224C89.1353 91.5243 89.6115 87.8814 89.7686 86.8558C89.9287 85.8155 90.0173 84.6769 90.0092 84.5446C90.001 84.413 93.5683 84.7962 93.4861 85.1594C93.404 85.5225 92.6671 88.5131 92.3775 89.954C92.1205 91.2305 91.6693 92.4987 91.3693 93.0573C91.0685 93.6166 88.1258 97.159 87.7483 97.8198C87.3715 98.4807 85.9438 100.125 85.8092 100.373C85.6746 100.622 85.0167 103.482 84.6023 104.292C84.1871 105.102 83.8915 110.896 83.9243 111.84C83.9562 112.785 84.244 113.699 84.244 113.699C84.244 113.699 78.9617 114.272 73.8136 114.125C73.8136 114.125 74.4032 111.72 74.4358 110.782C74.4683 109.845 73.9485 103.898 73.566 102.938C73.1836 101.979 69.4671 95.111 69.3204 94.8326C69.1743 94.555 67.9356 92.6611 67.6942 91.9624C67.6942 91.9624 64.4842 84.5346 64.4368 84.0037L68.241 83.1869Z" fill="#34466B"/>
<path fill-rule="evenodd" clip-rule="evenodd" d="M91.495 118.795C90.9364 119.106 90.4667 119.227 89.6497 119.437C87.8138 119.714 76.2566 121.848 76.2566 121.848C76.2385 121.732 76.233 121.633 76.1803 121.5C75.7448 121.621 75.3025 121.682 75.02 121.738C74.5897 121.823 72.8668 119.397 73.3677 119.397C73.8686 119.398 74.5397 119.285 74.8422 119.421C74.9377 119.464 75.388 119.383 75.9595 119.253C75.9672 119.05 75.9768 118.923 75.9768 118.923L79.0087 118.392L79.0062 113.173C79.0062 113.173 79.6817 107.987 84.1748 111.687C84.28 111.774 84.7097 111.91 84.8179 112.006C84.8179 112.006 86.628 113.165 87.0085 113.309C87.0354 113.319 87.0796 113.325 87.1392 113.326C87.9257 113.35 91.3849 112.698 92.5969 112.825C93.9012 112.962 94.3268 112.929 94.7716 113.211C95.2164 113.492 95.9918 115.402 95.8568 115.937C95.7725 116.268 95.0644 117.684 94.3256 118.115C93.5868 118.546 91.7586 118.648 91.495 118.795Z" fill="#DEEDF2"/>
<path fill-rule="evenodd" clip-rule="evenodd" d="M82.7947 122.555C82.3907 122.382 81.6271 122.119 81.1179 121.7C81.0768 121.666 80.9802 121.612 80.8383 121.542L80.8375 121.543L79.947 122.047L68.8115 117.206C68.1415 116.946 67.6236 116.604 67.2923 116.251C66.7462 115.671 63.6411 113.099 63.6201 112.549C63.5992 111.998 64.754 110.291 65.2476 110.108C65.742 109.925 66.1507 110.046 67.4549 110.183C68.7592 110.32 72.4193 111.88 72.8215 111.818C73.004 111.79 73.3916 111.642 73.7608 111.49C74.2028 111.308 74.6175 111.119 74.6175 111.119C80.4794 109.231 80.6771 113.348 80.6771 113.348L79.8193 118.316C79.8193 118.316 80.2621 118.595 80.8392 118.944L83.5347 120.013C83.3106 121.823 83.0639 122.671 82.7947 122.555Z" fill="#DEEDF2"/>
<path fill-rule="evenodd" clip-rule="evenodd" d="M68.7228 81.7703C68.7854 81.6 68.6768 81.1066 68.5044 80.5513C68.3319 79.996 67.8592 79.3283 67.7653 79.3017C67.6721 79.2752 65.6796 80.1365 65.5933 80.3927C65.5933 80.3927 65.7017 80.8877 65.6907 81.0834C65.6797 81.2789 66.1128 82.5325 66.538 83.4575C66.538 83.4575 67.0864 83.9481 68.2156 83.0409C68.2156 83.0409 68.6602 81.9405 68.7228 81.7703Z" fill="#F4A48D"/>
<path fill-rule="evenodd" clip-rule="evenodd" d="M89.7851 83.2475C89.7226 83.0725 89.8259 82.5532 89.9913 81.9674C90.1567 81.3815 90.6157 80.6665 90.7071 80.6352C90.7675 80.6142 91.0288 80.7021 91.4908 80.8987C92.0313 81.0298 92.35 81.2115 92.4469 81.4439C92.6387 81.9532 92.7387 82.2757 92.7469 82.4115C92.7585 82.6151 92.3429 83.9392 91.9317 84.9208C91.9317 84.9208 91.3987 85.4543 90.2882 84.5523C90.2882 84.5523 89.8477 83.4225 89.7851 83.2475Z" fill="#F4A48D"/>
<path fill-rule="evenodd" clip-rule="evenodd" d="M78.0742 92.7686C76.9422 92.1602 76.2304 90.8239 76.384 89.3626C76.5817 87.4816 78.139 86.1012 79.8596 86.282C81.221 86.4251 82.2793 87.5032 82.5638 88.8789L82.5689 88.8808L83.1041 91.6224L83.0259 91.6463L82.985 91.6588L82.4929 91.7108L82.3441 93.1055L82.3118 93.1876C82.2614 93.3008 82.1968 93.409 82.1183 93.5087C82.0268 93.6254 81.9177 93.7293 81.7973 93.8162C81.7344 93.8618 81.668 93.9021 81.5986 93.9374C81.5618 93.9566 81.5252 93.9737 81.4878 93.9896C81.4586 94.0024 81.4292 94.014 81.3993 94.0245L81.3081 94.0574L81.5928 96.2345C81.5928 96.2345 79.8053 97.3468 79.1615 97.1434L79.0757 97.1149L79.0739 97.1143C78.46 96.9148 77.8584 96.6391 77.3987 95.9426C77.3987 95.9426 77.4009 95.9356 77.4051 95.922L77.4014 95.9167C77.4014 95.9167 77.4752 95.689 77.5768 95.315C77.7346 94.718 77.9576 93.7652 78.0742 92.7686Z" fill="#F4A48D"/>
<path fill-rule="evenodd" clip-rule="evenodd" d="M81.3825 94.591C81.0114 94.4466 80.2425 93.9414 79.6922 93.1828L81.3644 93.927C81.3644 93.927 81.3732 94.2663 81.3825 94.591ZM82.5672 91.8117C82.3984 91.8466 82.2378 91.7211 82.2542 91.5671L82.3603 90.5742L82.5672 91.8117Z" fill="#A66555"/>
<path fill-rule="evenodd" clip-rule="evenodd" d="M78.0129 92.991L77.5591 92.6723C77.0173 92.2757 76.5812 91.7235 76.3282 91.0509C75.6353 89.2086 76.5774 87.1598 78.4324 86.4746C80.1023 85.8579 81.9444 86.5574 82.799 88.0494L82.369 88.327C82.2818 88.2915 82.1372 88.2341 81.9596 88.1681C81.3221 87.9275 80.2604 87.5705 79.9027 87.6997C79.3789 87.889 79.3064 88.8017 79.3062 89.5318C79.306 90.246 79.3405 90.5597 79.0037 90.6645C78.8802 90.703 78.8699 90.0987 78.6178 89.891C78.3514 89.6715 77.9656 89.8259 77.951 90.4801C78.0086 90.7841 78.0462 91.0818 78.0675 91.3709C78.0998 91.8872 78.073 92.4439 78.0129 92.991Z" fill="#DEEDF2"/>
<path fill-rule="evenodd" clip-rule="evenodd" d="M76.3007 88.0326L72.9731 86.7817L79.6027 83.2746L85.0979 85.9099L82.2384 87.4524L76.3007 88.0326Z" fill="#34466B"/>
<path fill-rule="evenodd" clip-rule="evenodd" d="M73.5319 113.41L73.15 107.917L85.442 108.923L84.0947 114.147C84.0947 114.147 80.0298 115.167 78.614 115.863C78.614 115.863 75.4015 114.131 73.5319 113.41Z" fill="#EAF7FE"/>
</g>
<path fill-rule="evenodd" clip-rule="evenodd" d="M89.7208 77.273L72.9688 75.3003L73.9861 66.7563L90.7382 68.7281L89.7208 77.273Z" fill="#EAF7FE"/>
<path fill-rule="evenodd" clip-rule="evenodd" d="M138.019 55.5187L121.179 56.4849L120.697 47.8941L137.537 46.927L138.019 55.5187Z" fill="#EAF7FE"/>
<path fill-rule="evenodd" clip-rule="evenodd" d="M93.0371 44.7339L79.7213 46.4414L78.8677 39.6706L92.1833 37.9623L93.0371 44.7339Z" fill="#EAF7FE"/>
<path fill-rule="evenodd" clip-rule="evenodd" d="M42.1582 116.613L28.8424 118.32L27.9888 111.549L41.3044 109.841L42.1582 116.613Z" fill="#EAF7FE"/>
<path fill-rule="evenodd" clip-rule="evenodd" d="M55.3535 93.9659L10.7395 98.9991L5.00413 47.8867L49.6182 42.8537L55.3535 93.9659Z" fill="#EAF7FE"/>
<path fill-rule="evenodd" clip-rule="evenodd" d="M51.4708 85.0821L12.6169 89.4585C12.3162 89.4923 12.045 89.2755 12.0109 88.974L7.68893 50.5164C7.6549 50.2152 7.87143 49.9431 8.17209 49.9094L47.0261 45.5329C47.3267 45.4991 47.5982 45.7159 47.632 46.0175L51.954 84.475C51.988 84.7763 51.7715 85.0483 51.4708 85.0821Z" fill="#9BC3D3"/>
<mask id="mask1_1487_26460" style="mask-type:luminance" maskUnits="userSpaceOnUse" x="7" y="45" width="45" height="45">
<path fill-rule="evenodd" clip-rule="evenodd" d="M51.4708 85.0821L12.6169 89.4585C12.3162 89.4923 12.045 89.2755 12.0109 88.974L7.68893 50.5164C7.6549 50.2152 7.87143 49.9431 8.17209 49.9094L47.0261 45.5329C47.3267 45.4991 47.5982 45.7159 47.632 46.0175L51.954 84.475C51.988 84.7763 51.7715 85.0483 51.4708 85.0821Z" fill="white"/>
</mask>
<g mask="url(#mask1_1487_26460)">
<path fill-rule="evenodd" clip-rule="evenodd" d="M26.0578 65.1897C24.6316 64.2166 23.6709 62.6012 23.6061 60.7451C23.498 57.6482 25.9245 55.046 29.0215 54.9378C31.881 54.838 34.3188 56.8991 34.7608 59.6537C34.8313 59.9398 34.8853 60.2297 34.9257 60.52L34.9258 60.5205L34.927 60.5269L34.9273 60.5291C34.9393 60.616 34.9501 60.7028 34.9597 60.7896L35.4974 65.1061L34.628 65.4312L34.6189 65.4336L34.6189 65.4336C34.5997 65.5098 34.589 65.551 34.589 65.551L34.5855 66.1376L34.5806 67.2339C34.5783 67.5967 34.5149 67.9543 34.3947 68.2927C34.3107 68.5315 34.1968 68.7614 34.0553 68.976C33.8891 69.2279 33.688 69.4557 33.4614 69.65C33.3434 69.752 33.2173 69.8437 33.0852 69.926C33.0153 69.9698 32.9454 70.0101 32.8727 70.0482L32.8722 70.0485L33.4889 76.8747C33.4889 76.8747 31.5134 77.546 29.3103 77.145C27.9788 76.9051 26.5627 76.2706 25.4502 74.8616C25.4502 74.8616 26.517 69.3693 26.0578 65.1897Z" fill="#FFC4B8"/>
<path fill-rule="evenodd" clip-rule="evenodd" d="M29.3273 77.0423C27.9607 76.8103 26.5112 76.1848 25.381 74.7843C25.381 74.7843 26.6253 68.9011 26.0396 64.6843C26.0396 64.6843 29.4187 72.0864 29.3273 77.0423ZM34.6276 65.453C34.3107 65.5554 33.99 65.3259 34.0024 65.0055L34.0823 62.9402L34.6276 65.453Z" fill="#F4A48D"/>
<path fill-rule="evenodd" clip-rule="evenodd" d="M27.2177 55.3696C29.6813 55.1969 29.3044 53.0891 29.3044 53.0891C31.9471 53.0835 33.107 54.0385 33.107 54.0385C35.2865 55.6502 34.5638 59.0616 34.5638 59.0616C34.1511 56.5208 30.2798 57.7454 28.7583 58.0551C28.1545 58.6901 28.4481 60.1786 28.1751 61.4513C28.1702 61.4744 27.5497 63.2057 27.5497 63.2057L27.549 63.2078L27.5168 63.3865C27.5046 63.3579 27.4919 63.3293 27.4786 63.3007C27.0332 62.3412 26.1751 61.7945 25.5625 62.0781C24.9494 62.3622 24.8139 63.3699 25.2593 64.3293C25.4144 64.6635 25.7866 64.9419 26.014 65.1583C26.2345 66.5822 26.249 67.9114 26.1684 69.0557L25.5314 69.1056L22.8569 58.292C22.6355 56.8397 23.2624 56.1514 24.2918 55.7961C25.0932 55.5194 26.1386 55.4452 27.2177 55.3696Z" fill="#DEEDF2"/>
<path fill-rule="evenodd" clip-rule="evenodd" d="M37.3147 86.4461L40.392 81.197L42.8008 80.4858L39.8695 91.3731L36.9334 93.4821L33.1102 91.7345L31.5078 81.758L35.36 80.7457L37.3147 86.4461Z" fill="#CC0000"/>
<path fill-rule="evenodd" clip-rule="evenodd" d="M40.0797 80.7348L39.938 78.3981L41.7687 76.9547L42.5082 77.2128L41.4971 78.349L46.1264 78.1874L45.9895 79.3154L41.475 82.1082L40.0797 80.7348Z" fill="#FFC4B8"/>
<path fill-rule="evenodd" clip-rule="evenodd" d="M18.8101 84.4067C19.3769 82.9012 21.0564 79.1942 22.0085 77.8796C24.3758 74.6104 23.9208 74.1789 31.4991 74.5269C32.1367 74.5562 32.6651 74.6601 33.1195 74.828C33.7111 75.2155 34.7117 76.5446 35.4622 81.0047C35.429 81.9638 35.3457 84.8124 35.3751 88.5575C35.3995 91.65 36.5104 97.1224 38.7078 104.975C34.8511 104.872 32.8121 104.817 32.591 104.809C21.8481 103.987 16.4536 103.522 16.4076 103.414C16.0162 102.663 15.9791 101.916 15.9791 101.916C15.0576 96.8601 17.5345 87.9997 17.5348 87.9984C18.0339 86.5545 18.5143 85.1924 18.8101 84.4067Z" fill="#EC0000"/>
<path fill-rule="evenodd" clip-rule="evenodd" d="M23.4943 75.7258L31.0182 89.4616L36.9194 82.4836L39.257 84.7847C36.2291 90.2461 34.2509 93.4503 33.3224 94.3974C31.9297 95.818 31.8471 96.1326 27.6862 92.0214C24.9123 89.2807 22.6342 85.2265 20.8519 79.8589C21.2825 78.8967 21.6741 78.1399 22.0267 77.5884C22.3792 77.0369 22.8685 76.416 23.4943 75.7258Z" fill="#EC0000"/>
<path fill-rule="evenodd" clip-rule="evenodd" d="M37.3726 82.9287L37.231 80.5919L39.0616 79.1485L39.8011 79.4066L38.79 80.5429L43.4194 80.3812L43.2825 81.5093L38.768 84.3021L37.3726 82.9287Z" fill="#FFC4B8"/>
</g>
<path fill-rule="evenodd" clip-rule="evenodd" d="M36.1574 49.358L19.5605 52.3693L18.0354 43.9013L34.632 40.889L36.1574 49.358Z" fill="#EAF7FE"/>
<path fill-rule="evenodd" clip-rule="evenodd" d="M128.363 69.7121C127.39 69.1176 126.234 68.8937 125.109 69.081C123.731 69.3059 122.521 70.121 121.795 71.3122C121.584 71.6576 121.417 72.0284 121.299 72.4154C121.059 73.2126 120.384 73.8033 119.561 73.9362L119.545 73.937C117.743 74.2313 116.16 75.2974 115.211 76.8556C113.762 79.2221 114.048 82.2593 115.912 84.3147C116.311 84.7536 116.771 85.1329 117.278 85.4408C120.228 87.2321 124.074 86.2959 125.868 83.3496C125.868 83.3494 125.868 83.3489 125.869 83.3487C126.167 82.8633 126.396 82.3392 126.551 81.7914C126.598 81.628 126.638 81.463 126.671 81.2993C126.852 80.3764 126.823 79.4248 126.586 78.5146C127.981 78.2998 129.21 77.4805 129.944 76.2761C130.172 75.9047 130.348 75.5037 130.467 75.0846C130.501 74.9598 130.532 74.8353 130.558 74.7086C130.946 72.748 130.07 70.7539 128.363 69.7113" fill="#DEEDF2"/>
<path fill-rule="evenodd" clip-rule="evenodd" d="M123.92 63.9966C122.966 66.5617 123.819 69.447 126.016 71.0836C126.485 71.4332 127.003 71.7133 127.553 71.9154C130.75 73.0906 134.296 71.4562 135.474 68.2651C135.474 68.2649 135.474 68.2647 135.474 68.2645C135.671 67.7383 135.794 67.1876 135.84 66.6281C135.854 66.4608 135.861 66.294 135.862 66.1294C135.868 63.5516 134.263 61.244 131.842 60.3478C130.462 59.8358 128.944 59.8376 127.565 60.3527C125.875 60.9782 124.544 62.3099 123.92 63.9976" fill="#DEEDF2"/>
<path fill-rule="evenodd" clip-rule="evenodd" d="M124.329 71.9091L124.514 73.1896L125.094 77.2752C125.122 77.4689 125.191 77.6544 125.295 77.8197C125.399 77.9846 125.538 78.1241 125.702 78.2278C126.548 78.7514 127.533 79.0006 128.523 78.9418C129.356 78.9017 130.166 78.6482 130.874 78.2052C131.436 77.8447 131.651 77.125 131.381 76.5114C130.631 74.7899 128.849 69.4832 128.849 69.4832L124.757 71.6798L124.554 71.7887L124.329 71.9091Z" fill="#FFC4B8"/>
<path fill-rule="evenodd" clip-rule="evenodd" d="M127.158 61.5998L124.616 62.736L122.976 65.6459C122.407 66.6575 122.075 67.784 122.003 68.9413L121.936 70.0226C121.913 70.3214 121.969 70.6211 122.099 70.8912C122.267 71.2243 122.539 71.4939 122.874 71.6588L123.316 71.8729C123.993 72.2022 124.755 72.3155 125.499 72.1975L129.683 71.5286L131.025 63.57L127.158 61.5998Z" fill="#FFC4B8"/>
<path fill-rule="evenodd" clip-rule="evenodd" d="M123.877 64.2994C123.035 66.5623 123.788 69.1077 125.725 70.5516C126.14 70.8598 126.597 71.107 127.082 71.2854C129.903 72.3222 133.033 70.8801 134.072 68.0644C134.072 68.064 134.072 68.0636 134.072 68.0632C134.245 67.599 134.354 67.1135 134.395 66.62C134.407 66.4721 134.413 66.3253 134.414 66.1801C134.419 63.9059 133.004 61.8696 130.867 61.0782C129.65 60.6269 128.31 60.6285 127.093 61.0828C125.602 61.6347 124.427 62.8096 123.877 64.299" fill="#FFC4B8"/>
<path fill-rule="evenodd" clip-rule="evenodd" d="M142.801 92.3102L117.284 93.6476L117.786 89.1739L118.189 85.5703C118.483 82.9439 119.918 80.575 122.119 79.0847C122.521 78.8129 122.944 78.5729 123.384 78.3672L131.785 74.451C132.011 74.3456 132.243 74.2537 132.48 74.176C135.094 73.3291 137.952 74.3315 139.447 76.6189L144.798 84.7979C146.387 87.2277 145.69 90.4777 143.24 92.0569C143.098 92.1484 142.952 92.233 142.802 92.3106" fill="#F6C854"/>
<path fill-rule="evenodd" clip-rule="evenodd" d="M122.228 78.8985C123.299 81.6469 126.189 83.2084 128.962 82.4272C131.932 81.5901 133.645 78.3814 132.785 75.2609C132.668 74.8348 132.506 74.4229 132.3 74.0325C132.069 74.1088 131.844 74.1998 131.625 74.3048L123.457 78.1863C123.029 78.39 122.618 78.6281 122.227 78.8979" fill="#FFC4B8"/>
<path fill-rule="evenodd" clip-rule="evenodd" d="M122.617 79.6073C124.076 78.8429 124.872 77.2284 124.587 75.6123L130.377 74.8656C130.377 74.8656 130.251 75.4966 131.822 75.2331C131.822 75.2331 132.425 80.1813 128.448 80.4135C124.471 80.6456 122.617 79.6073 122.617 79.6073" fill="#FFC4B8"/>
<path fill-rule="evenodd" clip-rule="evenodd" d="M142.361 92.3075L141.568 94.5688C141.522 94.6979 141.396 94.7881 141.251 94.7959L141.119 94.8028C140.952 94.812 140.803 94.7099 140.761 94.5588L140.69 94.3006L140.651 94.5607C140.627 94.7169 140.488 94.8359 140.32 94.8447L139.963 94.8634C139.788 94.8732 139.634 94.7603 139.602 94.5994L139.534 94.2744L139.497 94.6087C139.479 94.7702 139.338 94.8962 139.165 94.905L138.946 94.9165C138.795 94.9248 138.655 94.841 138.601 94.7088L137.749 92.6415L137.733 92.6841L136.655 92.7405L136.751 92.2689C136.876 91.6585 137.41 91.1924 138.068 91.1192L140.534 90.846C140.784 90.8191 141.036 90.8124 141.286 90.8263C141.954 90.8607 142.461 91.3962 142.42 92.0223C142.414 92.1193 142.394 92.2154 142.362 92.3078" fill="#FFC4B8"/>
<path fill-rule="evenodd" clip-rule="evenodd" d="M122.937 67.3034L122.072 66.6106L124.719 62.8523L126.656 63.9933L122.937 67.3034Z" fill="#FFC4B8"/>
<path fill-rule="evenodd" clip-rule="evenodd" d="M127.777 63.9249C128.478 63.8927 129.142 64.2316 129.522 64.8152C129.522 64.8152 130.711 67.2109 131.352 67.754C132.998 69.1509 135.591 68.5191 135.447 65.7759C135.357 64.6851 135.052 63.6226 134.55 62.6485C134.488 62.5188 134.403 62.3501 134.302 62.1532C132.975 59.5625 129.953 58.3043 127.156 59.1788C127.156 59.1788 124.43 60.1134 125.212 62.5977C125.466 63.4036 126.246 64.0039 127.777 63.9237" fill="#DEEDF2"/>
<path fill-rule="evenodd" clip-rule="evenodd" d="M122.547 67.7085L124.006 67.8395C124.006 67.8395 123.506 68.7973 123.141 68.7647C122.777 68.7321 122.547 67.7085 122.547 67.7085Z" fill="#F4A48D"/>
<path fill-rule="evenodd" clip-rule="evenodd" d="M124.297 71.9424C124.619 72.0649 124.956 72.112 125.291 72.0809C125.807 72.02 126.471 71.847 126.471 71.847C126.074 72.1771 125.66 72.4773 125.232 72.7459C124.988 72.9069 124.717 73.0019 124.437 73.0244L124.297 71.9424Z" fill="#F4A48D"/>
</svg>
