<svg width="160" height="160" viewBox="0 0 160 160" fill="none" xmlns="http://www.w3.org/2000/svg">
<path fill-rule="evenodd" clip-rule="evenodd" d="M86.7617 43.7041L89.8826 27.6567L93.3309 27.6748C93.3309 27.6748 95.2471 35.9303 95.7404 42.8034L86.7617 43.7041Z" fill="#34466B"/>
<path fill-rule="evenodd" clip-rule="evenodd" d="M103.299 42.4267L106.42 26.3794L109.87 26.3967C109.87 26.3967 111.785 34.655 112.278 41.5261L103.299 42.4267Z" fill="#34466B"/>
<path fill-rule="evenodd" clip-rule="evenodd" d="M53.5745 158.137C50.9966 161.645 44.1537 156.403 41.7734 154.859L41.701 154.813C39.6368 153.478 38.3958 151.185 38.4123 148.729L38.4336 144.385L38.4741 137.321L38.8173 74.5308L38.8254 73.2065L40.2937 73.2905L40.3202 74.6155L41.6245 137.284L41.771 144.344L41.871 149.092C47.0026 147.896 50.5876 147.922 52.4168 148.075C53.4857 148.165 54.4336 148.825 54.8505 149.818C55.878 152.241 55.4662 155.56 53.5745 158.137Z" fill="#34466B"/>
<path fill-rule="evenodd" clip-rule="evenodd" d="M41.8187 43.2386C41.7738 42.7596 41.4634 42.3519 41.016 42.1761C40.438 41.948 39.605 41.8494 38.9311 42.6712C37.7652 44.0866 38.4451 74.5084 38.4451 74.5084L40.6665 74.6356C40.6665 74.6356 42.3114 48.665 41.8187 43.2386Z" fill="#DEEDF2"/>
<path fill-rule="evenodd" clip-rule="evenodd" d="M84.1432 89.9999C84.1432 89.9999 59.6438 90.1006 56.7895 87.6662C54.6091 85.8026 47.23 72.4019 43.9756 65.5434C42.9739 63.4282 42.8094 59.644 42.8094 59.644L37.5742 62.904L38.3003 65.6131C40.8159 75.0124 45.9625 95.7146 49.8263 98.1324C54.8083 101.248 84.3536 107.296 84.3536 107.296L84.1432 89.9999Z" fill="#732645"/>
<path fill-rule="evenodd" clip-rule="evenodd" d="M101.987 36.8618C101.987 36.8618 42.99 47.2978 42.5817 47.359C39.2466 47.8598 36.6364 46.7177 36.3342 49.8481C36.1986 51.255 36.471 52.1829 36.8449 52.7905C37.3038 53.5334 37.6617 53.9043 38.5188 53.7459L42.9125 53.0652C42.9125 53.0652 63.1245 53.3171 70.3189 52.6082C75.2179 52.1248 108.112 48.8329 108.112 48.8329L101.987 36.8618Z" fill="#732645"/>
<path fill-rule="evenodd" clip-rule="evenodd" d="M38.3482 56.7051C40.6636 56.8686 42.2908 56.6014 42.758 59.5669C43.37 63.4249 41.536 63.9797 38.6587 63.5881C35.4522 63.1501 37.4157 56.6388 38.3482 56.7051Z" fill="#732645"/>
<path fill-rule="evenodd" clip-rule="evenodd" d="M92.4999 60.7927L92.2058 36.8486L101.161 34.3094C113.042 30.9465 124.5 40.8225 122.901 53.0689C121.244 65.7605 119.104 79.796 117.016 86.7344C111.93 103.637 94.5076 113.821 77.3757 109.576C75.4275 109.09 74.094 108.539 73.737 107.906C71.5362 104.015 69.8573 92.5443 76.1456 87.1301C76.9106 86.4699 84.1822 85.2567 84.1822 85.2567C84.1822 85.2567 87.2792 75.4117 88.4305 73.7542C89.5855 72.095 100.82 69.1418 100.82 69.1418L92.4999 60.7927Z" fill="#F6C854"/>
<path fill-rule="evenodd" clip-rule="evenodd" d="M104.436 5.51768C104.461 7.65118 102.752 9.4032 100.619 9.42836C98.4844 9.4559 96.7341 7.74638 96.7093 5.61288C96.6824 3.4804 98.3913 1.72804 100.525 1.7005C102.658 1.67398 104.409 3.3852 104.436 5.51768Z" fill="#CEDEE7"/>
<path fill-rule="evenodd" clip-rule="evenodd" d="M101.378 44.8806C94.5716 44.8033 88.9729 50.7902 88.8737 58.2533C88.7745 65.7154 94.2125 71.8294 101.022 71.9048C107.828 71.9818 113.427 65.9952 113.526 58.5331C113.625 51.0691 108.187 44.9586 101.378 44.8806Z" fill="#137E84"/>
<path fill-rule="evenodd" clip-rule="evenodd" d="M99.8649 49.9785C91.1367 49.8805 83.9579 57.555 83.8313 67.1258C83.7048 76.6937 90.6784 84.5323 99.41 84.6302C108.138 84.73 115.317 77.0515 115.444 67.4845C115.57 57.9153 108.597 50.0783 99.8649 49.9785Z" fill="#1BB3BC"/>
</svg>
