<svg width="160" height="161" viewBox="0 0 160 161" fill="none" xmlns="http://www.w3.org/2000/svg">
<path fill-rule="evenodd" clip-rule="evenodd" d="M99.1016 18.9279C107.216 27.5593 117.967 33.1927 129.618 35.31C136.69 36.5951 143.457 39.9729 148.924 45.4435C163.246 59.7718 163.262 82.8782 148.96 97.2262C142.651 103.555 134.606 107.092 126.357 107.837C119.295 108.476 112.659 111.559 107.76 116.689C107.697 116.755 107.633 116.821 107.569 116.886C99.2109 125.419 85.6899 125.504 77.2301 117.072C77.1816 117.024 77.1335 116.975 77.0859 116.927C74.8261 114.631 71.5642 113.629 68.4037 114.243C50.3842 117.745 31.0054 112.512 17.049 98.5446C-5.25134 76.2259 -5.25134 39.9745 17.049 17.6556C39.3672 -4.6808 75.5509 -4.68066 97.8686 17.6559C98.2876 18.0751 98.6986 18.4991 99.1016 18.9279Z" fill="#EAF7FE"/>
<path fill-rule="evenodd" clip-rule="evenodd" d="M82.2068 138.985C42.8113 138.985 10.875 136.236 10.875 132.845C10.875 129.454 42.8113 126.705 82.2068 126.705C121.602 126.705 153.539 129.454 153.539 132.845C153.539 136.236 121.602 138.985 82.2068 138.985Z" fill="#CEDEE7"/>
<path fill-rule="evenodd" clip-rule="evenodd" d="M24.3744 133.595C23.1086 133.595 22.082 132.573 22.082 131.312V41.8508C22.082 40.5897 23.1086 39.5674 24.3744 39.5674H85.9038C87.1697 39.5674 88.1958 40.5897 88.1958 41.8508V131.312C88.1958 132.573 87.1697 133.595 85.9038 133.595H24.3744Z" fill="#2274C0"/>
<path fill-rule="evenodd" clip-rule="evenodd" d="M81.1735 128.143H29.1045C27.8387 128.143 26.8125 127.121 26.8125 125.86V33.7717C26.8125 32.5106 27.8387 31.4883 29.1045 31.4883H81.1735C82.4393 31.4883 83.4659 32.5106 83.4659 33.7717V125.86C83.4659 127.121 82.4393 128.143 81.1735 128.143Z" fill="#2A8FEC"/>
<path fill-rule="evenodd" clip-rule="evenodd" d="M74.1577 124.283H36.1184C35.8802 124.283 35.6875 124.092 35.6875 123.854V123.358C35.6875 123.121 35.8802 122.928 36.1184 122.928H74.1577C74.3956 122.928 74.5886 123.121 74.5886 123.358V123.854C74.5886 124.092 74.3956 124.283 74.1577 124.283Z" fill="#34466B"/>
<path fill-rule="evenodd" clip-rule="evenodd" d="M77.6838 41.4245V65.381C77.6838 66.4308 76.8294 67.2819 75.7756 67.2819H34.5019C34.2933 67.2819 34.0933 67.2492 33.9052 67.1876C33.1431 66.9375 32.5938 66.2226 32.5938 65.381V41.4245C32.5938 40.3761 33.4481 39.5249 34.5019 39.5249H75.7756C76.8294 39.5249 77.6838 40.3761 77.6838 41.4245Z" fill="#EAF7FE"/>
<path fill-rule="evenodd" clip-rule="evenodd" d="M43.3511 73.8673H34.2463C33.2841 73.8673 32.5039 73.09 32.5039 72.1318C32.5039 71.1729 33.2841 70.396 34.2463 70.396H43.3511C44.3133 70.396 45.0934 71.1729 45.0934 72.1318C45.0934 73.09 44.3133 73.8673 43.3511 73.8673Z" fill="#DEEDF2"/>
<path fill-rule="evenodd" clip-rule="evenodd" d="M59.6909 73.8673H50.5861C49.6239 73.8673 48.8438 73.09 48.8438 72.1318C48.8438 71.1729 49.6239 70.396 50.5861 70.396H59.6909C60.6531 70.396 61.4333 71.1729 61.4333 72.1318C61.4333 73.09 60.6531 73.8673 59.6909 73.8673Z" fill="#DEEDF2"/>
<path fill-rule="evenodd" clip-rule="evenodd" d="M76.0304 73.8673H66.9259C65.9634 73.8673 65.1836 73.09 65.1836 72.1318C65.1836 71.1729 65.9634 70.396 66.9259 70.396H76.0304C76.993 70.396 77.7731 71.1729 77.7731 72.1318C77.7731 73.09 76.993 73.8673 76.0304 73.8673Z" fill="#DEEDF2"/>
<path fill-rule="evenodd" clip-rule="evenodd" d="M44.0049 84.8701H33.063C32.5232 84.8701 32.0859 84.3877 32.0859 83.7936V78.5541C32.0859 77.9596 32.5232 77.4775 33.063 77.4775H44.0049C44.5443 77.4775 44.9819 77.9596 44.9819 78.5541V83.7936C44.9819 84.3877 44.5443 84.8701 44.0049 84.8701Z" fill="#DEEDF2"/>
<path fill-rule="evenodd" clip-rule="evenodd" d="M60.6104 84.8701H49.6688C49.129 84.8701 48.6914 84.3877 48.6914 83.7936V78.5541C48.6914 77.9596 49.129 77.4775 49.6688 77.4775H60.6104C61.1501 77.4775 61.5878 77.9596 61.5878 78.5541V83.7936C61.5878 84.3877 61.1501 84.8701 60.6104 84.8701Z" fill="#DEEDF2"/>
<path fill-rule="evenodd" clip-rule="evenodd" d="M77.2119 84.8701H66.2704C65.7306 84.8701 65.293 84.3877 65.293 83.7936V78.5541C65.293 77.9596 65.7306 77.4775 66.2704 77.4775H77.2119C77.7517 77.4775 78.1893 77.9596 78.1893 78.5541V83.7936C78.1893 84.3877 77.7517 84.8701 77.2119 84.8701Z" fill="#DEEDF2"/>
<path fill-rule="evenodd" clip-rule="evenodd" d="M44.0049 96.4886H33.063C32.5232 96.4886 32.0859 96.0071 32.0859 95.4123V90.1725C32.0859 89.5784 32.5232 89.0967 33.063 89.0967H44.0049C44.5443 89.0967 44.9819 89.5784 44.9819 90.1725V95.4123C44.9819 96.0071 44.5443 96.4886 44.0049 96.4886Z" fill="#DEEDF2"/>
<path fill-rule="evenodd" clip-rule="evenodd" d="M60.6104 96.4886H49.6688C49.129 96.4886 48.6914 96.0071 48.6914 95.4123V90.1725C48.6914 89.5784 49.129 89.0967 49.6688 89.0967H60.6104C61.1501 89.0967 61.5878 89.5784 61.5878 90.1725V95.4123C61.5878 96.0071 61.1501 96.4886 60.6104 96.4886Z" fill="#DEEDF2"/>
<path fill-rule="evenodd" clip-rule="evenodd" d="M77.2119 96.4886H66.2704C65.7306 96.4886 65.293 96.0071 65.293 95.4123V90.1725C65.293 89.5784 65.7306 89.0967 66.2704 89.0967H77.2119C77.7517 89.0967 78.1893 89.5784 78.1893 90.1725V95.4123C78.1893 96.0071 77.7517 96.4886 77.2119 96.4886Z" fill="#DEEDF2"/>
<path fill-rule="evenodd" clip-rule="evenodd" d="M44.0049 108.107H33.063C32.5232 108.107 32.0859 107.625 32.0859 107.031V101.791C32.0859 101.197 32.5232 100.715 33.063 100.715H44.0049C44.5443 100.715 44.9819 101.197 44.9819 101.791V107.031C44.9819 107.625 44.5443 108.107 44.0049 108.107Z" fill="#DEEDF2"/>
<path fill-rule="evenodd" clip-rule="evenodd" d="M60.6104 108.107H49.6688C49.129 108.107 48.6914 107.625 48.6914 107.031V101.791C48.6914 101.197 49.129 100.715 49.6688 100.715H60.6104C61.1501 100.715 61.5878 101.197 61.5878 101.791V107.031C61.5878 107.625 61.1501 108.107 60.6104 108.107Z" fill="#DEEDF2"/>
<path fill-rule="evenodd" clip-rule="evenodd" d="M77.2119 108.107H66.2704C65.7306 108.107 65.293 107.625 65.293 107.031V101.791C65.293 101.197 65.7306 100.715 66.2704 100.715H77.2119C77.7517 100.715 78.1893 101.197 78.1893 101.791V107.031C78.1893 107.625 77.7517 108.107 77.2119 108.107Z" fill="#DEEDF2"/>
<path fill-rule="evenodd" clip-rule="evenodd" d="M44.0049 119.499H33.063C32.5232 119.499 32.0859 119.017 32.0859 118.422V113.183C32.0859 112.589 32.5232 112.106 33.063 112.106H44.0049C44.5443 112.106 44.9819 112.589 44.9819 113.183V118.422C44.9819 119.017 44.5443 119.499 44.0049 119.499Z" fill="#1B4872"/>
<path fill-rule="evenodd" clip-rule="evenodd" d="M60.6104 119.499H49.6688C49.129 119.499 48.6914 119.017 48.6914 118.422V113.183C48.6914 112.589 49.129 112.106 49.6688 112.106H60.6104C61.1501 112.106 61.5878 112.589 61.5878 113.183V118.422C61.5878 119.017 61.1501 119.499 60.6104 119.499Z" fill="#F6C854"/>
<path fill-rule="evenodd" clip-rule="evenodd" d="M77.2119 119.499H66.2704C65.7306 119.499 65.293 119.017 65.293 118.422V113.183C65.293 112.589 65.7306 112.106 66.2704 112.106H77.2119C77.7517 112.106 78.1893 112.589 78.1893 113.183V118.422C78.1893 119.017 77.7517 119.499 77.2119 119.499Z" fill="#8AD7C4"/>
<path fill-rule="evenodd" clip-rule="evenodd" d="M34.3047 31.4885H76.3171C76.3171 30.6434 75.6918 29.9585 74.9203 29.9585H35.7012C34.9299 29.9585 34.3047 30.6434 34.3047 31.4885Z" fill="#34466B"/>
<path fill-rule="evenodd" clip-rule="evenodd" d="M75.1726 29.9584V13.7056L74.2165 15.1107L73.3247 13.8003L72.4329 15.1107L71.5412 13.8003L70.6492 15.1107L69.7576 13.8003L68.8655 15.1107L67.9739 13.8003L67.0821 15.1107L66.1902 13.8003L65.2986 15.1107L64.4066 13.8003L63.515 15.1107L62.6229 13.8003L61.7313 15.1107L60.8397 13.8003L59.9476 15.1107L59.056 13.8003L58.1639 15.1107L57.2723 13.8003L56.3803 15.1107L55.4887 13.8003L54.5968 15.1107L53.705 13.8003L52.8134 15.1107L51.9215 13.8003L51.0297 15.1107L50.1379 13.8003L49.246 15.1107L48.3542 13.8003L47.4624 15.1107L46.5707 13.8003L45.6789 15.1107L44.7871 13.8003L43.8952 15.1107L43.0034 13.8003L42.1116 15.1107L41.22 13.8003L40.3281 15.1107L39.4363 13.8003L38.5445 15.1107L37.6526 13.8003L36.7608 15.1107L35.8047 13.7056V29.9584H75.1726Z" fill="white"/>
<path fill-rule="evenodd" clip-rule="evenodd" d="M113.258 132.086L88.9592 77.5103C88.2671 75.9558 88.9661 74.1347 90.5202 73.4428L122.417 59.2414C123.971 58.5495 125.791 59.2488 126.484 60.8034L150.782 115.379C151.474 116.934 150.776 118.754 149.222 119.446L117.325 133.648C115.771 134.34 113.95 133.64 113.258 132.086Z" fill="white"/>
<path fill-rule="evenodd" clip-rule="evenodd" d="M113.411 74.4095L111.886 70.9849C111.613 70.37 110.892 70.0935 110.277 70.3673L106.853 71.892C106.238 72.1658 105.961 72.8862 106.235 73.501L107.76 76.9256C108.034 77.5405 108.754 77.817 109.369 77.5433L112.793 76.0185C113.408 75.7448 113.685 75.0244 113.411 74.4095Z" fill="#CEDEE7"/>
<path fill-rule="evenodd" clip-rule="evenodd" d="M118.457 113.675L123.59 125.204L121.857 125.976L116.724 114.447L118.457 113.675ZM112.652 100.64L117.785 112.168L116.052 112.94L110.919 101.411L112.652 100.64ZM106.847 87.6046L111.98 99.1332L110.247 99.9048L105.114 88.3762L106.847 87.6046ZM101.011 74.4932L106.144 86.0218L104.411 86.7934L99.2783 75.2649L101.011 74.4932ZM98.5662 82.4889L100.546 86.9345L98.285 87.941L96.3057 83.4953L98.5662 82.4889ZM96.0154 76.7623L97.9947 81.208L95.7342 82.2144L93.7549 77.7688L96.0154 76.7623Z" fill="#CEDEE7"/>
<path fill-rule="evenodd" clip-rule="evenodd" d="M140.729 113.452C141.242 113.283 141.699 112.956 142.025 112.502L142.461 111.895L144.206 109.466C144.373 109.235 144.574 109.036 144.798 108.874L144.643 108.859C143.722 108.768 142.822 109.174 142.282 109.926L142.282 109.926L140.471 112.446C140.471 112.445 140.47 112.444 140.47 112.443C139.925 113.138 139.06 113.51 138.176 113.422L138.02 113.407C138.245 113.245 138.446 113.047 138.612 112.815L138.449 113.043L139.921 110.993L141.269 109.117L141.23 109.172C141.396 108.94 141.597 108.741 141.822 108.58L141.666 108.564C140.746 108.473 139.846 108.88 139.306 109.631L139.305 109.632L139.249 109.711L137.997 111.453L137.996 111.454L137.56 112.061C137.02 112.812 136.12 113.219 135.199 113.128L135.044 113.113C135.269 112.951 135.469 112.752 135.636 112.521L135.472 112.748L137.817 109.485L137.818 109.484C138.032 109.186 138.303 108.943 138.609 108.763C137.233 106.942 135.558 105.996 134.354 106.54C132.724 107.277 132.574 110.465 134.019 113.662C135.464 116.858 137.957 118.851 139.586 118.115C140.791 117.57 141.187 115.688 140.729 113.452Z" fill="#2A8FEC"/>
<path fill-rule="evenodd" clip-rule="evenodd" d="M70.9765 21.9637H40.6217C40.5825 21.9637 40.5461 21.95 40.5169 21.9268C40.4757 21.8936 40.4492 21.8418 40.4492 21.7831C40.4492 21.7407 40.4633 21.7017 40.4865 21.671C40.518 21.6293 40.567 21.6025 40.6217 21.6025H70.9765C71.0242 21.6025 71.0672 21.6227 71.0986 21.6553C71.1297 21.6881 71.149 21.7332 71.149 21.7831C71.149 21.8286 71.133 21.87 71.1065 21.9019C71.0748 21.9398 71.0284 21.9637 70.9765 21.9637Z" fill="#CEDEE7"/>
<path fill-rule="evenodd" clip-rule="evenodd" d="M53.8179 24.8527H41.5281C41.4401 24.8527 41.3596 24.8204 41.2974 24.7668C41.2205 24.7007 41.1719 24.6019 41.1719 24.4915C41.1719 24.3919 41.2118 24.3016 41.2762 24.2362C41.3407 24.1708 41.4298 24.1304 41.5281 24.1304H53.8179C53.9162 24.1304 54.0053 24.1708 54.0698 24.2362C54.1342 24.3016 54.1741 24.3919 54.1741 24.4915C54.1741 24.5914 54.1342 24.6817 54.0698 24.7471C54.0053 24.8123 53.9162 24.8527 53.8179 24.8527Z" fill="#CEDEE7"/>
<path fill-rule="evenodd" clip-rule="evenodd" d="M69.3435 24.8527H65.3752C65.2854 24.8527 65.2033 24.8204 65.1398 24.7668C65.0615 24.7007 65.0117 24.6019 65.0117 24.4915C65.0117 24.3919 65.0526 24.3016 65.1182 24.2362C65.184 24.1708 65.2749 24.1304 65.3752 24.1304H69.3435C69.444 24.1304 69.5349 24.1708 69.6005 24.2362C69.6663 24.3016 69.707 24.3919 69.707 24.4915C69.707 24.5914 69.6663 24.6817 69.6007 24.7471C69.5349 24.8123 69.444 24.8527 69.3435 24.8527Z" fill="#CEDEE7"/>
<path d="M55.8021 24.6722C55.8021 24.7718 55.7617 24.8529 55.7119 24.8529C55.6621 24.8529 55.6215 24.7718 55.6215 24.6722C55.6215 24.5725 55.6621 24.4917 55.7119 24.4917C55.7617 24.4917 55.8021 24.5725 55.8021 24.6722Z" fill="#CEDEE7"/>
<path d="M56.7049 24.6722C56.7049 24.7718 56.6241 24.8529 56.5244 24.8529C56.4246 24.8529 56.3438 24.7718 56.3438 24.6722C56.3438 24.5725 56.4246 24.4917 56.5244 24.4917C56.6241 24.4917 56.7049 24.5725 56.7049 24.6722Z" fill="#CEDEE7"/>
<path d="M57.787 24.6722C57.787 24.7718 57.7061 24.8529 57.6065 24.8529C57.5066 24.8529 57.4258 24.7718 57.4258 24.6722C57.4258 24.5725 57.5066 24.4917 57.6065 24.4917C57.7061 24.4917 57.787 24.5725 57.787 24.6722Z" fill="#CEDEE7"/>
<path d="M58.869 24.6722C58.869 24.7718 58.7882 24.8529 58.6885 24.8529C58.5886 24.8529 58.5078 24.7718 58.5078 24.6722C58.5078 24.5725 58.5886 24.4917 58.6885 24.4917C58.7882 24.4917 58.869 24.5725 58.869 24.6722Z" fill="#CEDEE7"/>
<path d="M59.9549 24.6722C59.9549 24.7718 59.8741 24.8529 59.7744 24.8529C59.6746 24.8529 59.5938 24.7718 59.5938 24.6722C59.5938 24.5725 59.6746 24.4917 59.7744 24.4917C59.8741 24.4917 59.9549 24.5725 59.9549 24.6722Z" fill="#CEDEE7"/>
<path d="M61.037 24.6722C61.037 24.7718 60.9561 24.8529 60.8565 24.8529C60.7566 24.8529 60.6758 24.7718 60.6758 24.6722C60.6758 24.5725 60.7566 24.4917 60.8565 24.4917C60.9561 24.4917 61.037 24.5725 61.037 24.6722Z" fill="#CEDEE7"/>
<path d="M61.7596 24.6722C61.7596 24.7718 61.6788 24.8529 61.5791 24.8529C61.4793 24.8529 61.3984 24.7718 61.3984 24.6722C61.3984 24.5725 61.4793 24.4917 61.5791 24.4917C61.6788 24.4917 61.7596 24.5725 61.7596 24.6722Z" fill="#CEDEE7"/>
<path d="M63.2049 24.6722C63.2049 24.7718 63.1241 24.8529 63.0244 24.8529C62.9246 24.8529 62.8438 24.7718 62.8438 24.6722C62.8438 24.5725 62.9246 24.4917 63.0244 24.4917C63.1241 24.4917 63.2049 24.5725 63.2049 24.6722Z" fill="#CEDEE7"/>
<path d="M64.287 24.6722C64.287 24.7718 64.2061 24.8529 64.1065 24.8529C64.0066 24.8529 63.9258 24.7718 63.9258 24.6722C63.9258 24.5725 64.0066 24.4917 64.1065 24.4917C64.2061 24.4917 64.287 24.5725 64.287 24.6722Z" fill="#CEDEE7"/>
<path fill-rule="evenodd" clip-rule="evenodd" d="M56.6953 44.4874C56.5155 44.3118 56.2253 44.313 56.047 44.49C55.8687 44.667 55.8699 44.9529 56.0497 45.1285C58.07 47.1017 59.7621 50.4681 59.7621 53.3822C59.7621 56.2974 58.0701 59.6631 56.0491 61.6436C55.8697 61.8195 55.869 62.1054 56.0475 62.2821C56.2261 62.4589 56.5164 62.4596 56.6958 62.2837C58.8772 60.1459 60.6789 56.562 60.6789 53.3822C60.6789 50.2034 58.8767 46.618 56.6953 44.4874ZM57.3725 53.3831C57.3725 50.8781 56.1574 48.2567 54.4877 46.6309C54.3077 46.4556 54.0175 46.4572 53.8395 46.6345C53.6615 46.8118 53.6631 47.0977 53.8431 47.273C55.3456 48.736 56.4556 51.1308 56.4556 53.3831C56.4556 55.6392 55.345 58.0373 53.8434 59.4975C53.6632 59.6727 53.6614 59.9585 53.8392 60.136C54.0171 60.3134 54.3074 60.3152 54.4875 60.14C56.1567 58.5169 57.3725 55.8919 57.3725 53.3831ZM52.3359 48.8255C53.4369 50.2602 54.0759 51.7457 54.0759 53.384C54.0759 55.0255 53.4346 56.5195 52.3355 57.9474C52.1826 58.1462 51.8951 58.1851 51.6933 58.0345C51.4915 57.8839 51.4519 57.6007 51.6049 57.402C52.5936 56.1174 53.1591 54.8001 53.1591 53.384C53.1591 51.9713 52.5957 50.6615 51.6045 49.37C51.4518 49.1711 51.4918 48.8879 51.6938 48.7376C51.8958 48.5873 52.1832 48.6266 52.3359 48.8255ZM50.7769 53.3858C50.7769 52.3864 50.2943 51.4655 49.4914 50.8784C49.2881 50.7298 49.001 50.7715 48.8501 50.9717C48.6991 51.1719 48.7416 51.4547 48.9448 51.6033C49.5176 52.0222 49.8601 52.6757 49.8601 53.3858C49.8601 54.0971 49.5171 54.7508 48.9432 55.1699C48.7398 55.3184 48.6972 55.6011 48.848 55.8014C48.9988 56.0017 49.2859 56.0437 49.4893 55.8952C50.2936 55.3078 50.7769 54.3867 50.7769 53.3858Z" fill="#DEEDF2"/>
</svg>
