<svg width="161" height="160" viewBox="0 0 161 160" fill="none" xmlns="http://www.w3.org/2000/svg">
<path fill-rule="evenodd" clip-rule="evenodd" d="M100.078 24.0975C108.226 32.764 119.02 38.4203 130.719 40.5463C137.819 41.8366 144.613 45.2281 150.103 50.721C164.483 65.1075 164.499 88.3079 150.139 102.714C143.804 109.069 135.727 112.62 127.444 113.369C120.353 114.009 113.691 117.105 108.771 122.256C108.708 122.323 108.644 122.389 108.58 122.454C100.188 131.022 86.6117 131.107 78.1175 122.641C78.0688 122.592 78.0205 122.543 77.9727 122.495C75.7037 120.19 72.4286 119.184 69.2552 119.8C51.1624 123.316 31.7049 118.063 17.6917 104.038C-4.69933 81.6286 -4.69933 45.2297 17.6917 22.8201C40.1006 0.392868 76.4315 0.393005 98.84 22.8204C99.2607 23.2413 99.6733 23.667 100.078 24.0975Z" fill="#EAF7FE"/>
<path fill-rule="evenodd" clip-rule="evenodd" d="M83.1141 144.643C43.5583 144.643 11.4922 141.883 11.4922 138.478C11.4922 135.073 43.5583 132.313 83.1141 132.313C122.67 132.313 154.736 135.073 154.736 138.478C154.736 141.883 122.67 144.643 83.1141 144.643Z" fill="#CEDEE7"/>
<path fill-rule="evenodd" clip-rule="evenodd" d="M25.0478 139.232C23.7768 139.232 22.7461 138.206 22.7461 136.939V47.1145C22.7461 45.8483 23.7768 44.8218 25.0478 44.8218H86.8274C88.0984 44.8218 89.1287 45.8483 89.1287 47.1145V136.939C89.1287 138.206 88.0984 139.232 86.8274 139.232H25.0478Z" fill="#CC0000"/>
<path fill-rule="evenodd" clip-rule="evenodd" d="M82.0781 133.758H29.7974C28.5264 133.758 27.4961 132.731 27.4961 131.465V39.0022C27.4961 37.736 28.5264 36.7095 29.7974 36.7095H82.0781C83.3491 36.7095 84.3798 37.736 84.3798 39.0022V131.465C84.3798 132.731 83.3491 133.758 82.0781 133.758Z" fill="#EC0000"/>
<path fill-rule="evenodd" clip-rule="evenodd" d="M75.0329 129.882H36.8389C36.5997 129.882 36.4062 129.69 36.4062 129.451V128.953C36.4062 128.715 36.5997 128.521 36.8389 128.521H75.0329C75.2718 128.521 75.4656 128.715 75.4656 128.953V129.451C75.4656 129.69 75.2718 129.882 75.0329 129.882Z" fill="#34466B"/>
<path fill-rule="evenodd" clip-rule="evenodd" d="M78.5742 46.6861V70.74C78.5742 71.7941 77.7163 72.6487 76.6583 72.6487H35.2167C35.0073 72.6487 34.8064 72.6158 34.6176 72.5539C33.8523 72.3029 33.3008 71.5851 33.3008 70.74V46.6861C33.3008 45.6334 34.1586 44.7788 35.2167 44.7788H76.6583C77.7163 44.7788 78.5742 45.6334 78.5742 46.6861Z" fill="#EAF7FE"/>
<path fill-rule="evenodd" clip-rule="evenodd" d="M44.1022 79.2608H34.9604C33.9943 79.2608 33.2109 78.4804 33.2109 77.5183C33.2109 76.5554 33.9943 75.7754 34.9604 75.7754H44.1022C45.0683 75.7754 45.8516 76.5554 45.8516 77.5183C45.8516 78.4804 45.0683 79.2608 44.1022 79.2608Z" fill="#DEEDF2"/>
<path fill-rule="evenodd" clip-rule="evenodd" d="M60.5085 79.2608H51.3666C50.4005 79.2608 49.6172 78.4804 49.6172 77.5183C49.6172 76.5554 50.4005 75.7754 51.3666 75.7754H60.5085C61.4746 75.7754 62.2579 76.5554 62.2579 77.5183C62.2579 78.4804 61.4746 79.2608 60.5085 79.2608Z" fill="#DEEDF2"/>
<path fill-rule="evenodd" clip-rule="evenodd" d="M76.9144 79.2608H67.7729C66.8064 79.2608 66.0234 78.4804 66.0234 77.5183C66.0234 76.5554 66.8064 75.7754 67.7729 75.7754H76.9144C77.8808 75.7754 78.6641 76.5554 78.6641 77.5183C78.6641 78.4804 77.8808 79.2608 76.9144 79.2608Z" fill="#DEEDF2"/>
<path fill-rule="evenodd" clip-rule="evenodd" d="M44.7604 90.3084H33.774C33.232 90.3084 32.793 89.824 32.793 89.2274V83.9667C32.793 83.3698 33.232 82.8857 33.774 82.8857H44.7604C45.302 82.8857 45.7414 83.3698 45.7414 83.9667V89.2274C45.7414 89.824 45.302 90.3084 44.7604 90.3084Z" fill="#DEEDF2"/>
<path fill-rule="evenodd" clip-rule="evenodd" d="M61.4284 90.3084H50.4423C49.9003 90.3084 49.4609 89.824 49.4609 89.2274V83.9667C49.4609 83.3698 49.9003 82.8857 50.4423 82.8857H61.4284C61.9703 82.8857 62.4097 83.3698 62.4097 83.9667V89.2274C62.4097 89.824 61.9703 90.3084 61.4284 90.3084Z" fill="#DEEDF2"/>
<path fill-rule="evenodd" clip-rule="evenodd" d="M78.1002 90.3084H67.1142C66.5722 90.3084 66.1328 89.824 66.1328 89.2274V83.9667C66.1328 83.3698 66.5722 82.8857 67.1142 82.8857H78.1002C78.6422 82.8857 79.0816 83.3698 79.0816 83.9667V89.2274C79.0816 89.824 78.6422 90.3084 78.1002 90.3084Z" fill="#DEEDF2"/>
<path fill-rule="evenodd" clip-rule="evenodd" d="M44.7604 101.974H33.774C33.232 101.974 32.793 101.491 32.793 100.894V95.6325C32.793 95.036 33.232 94.5522 33.774 94.5522H44.7604C45.302 94.5522 45.7414 95.036 45.7414 95.6325V100.894C45.7414 101.491 45.302 101.974 44.7604 101.974Z" fill="#DEEDF2"/>
<path fill-rule="evenodd" clip-rule="evenodd" d="M61.4284 101.974H50.4423C49.9003 101.974 49.4609 101.491 49.4609 100.894V95.6325C49.4609 95.036 49.9003 94.5522 50.4423 94.5522H61.4284C61.9703 94.5522 62.4097 95.036 62.4097 95.6325V100.894C62.4097 101.491 61.9703 101.974 61.4284 101.974Z" fill="#DEEDF2"/>
<path fill-rule="evenodd" clip-rule="evenodd" d="M78.1002 101.974H67.1142C66.5722 101.974 66.1328 101.491 66.1328 100.894V95.6325C66.1328 95.036 66.5722 94.5522 67.1142 94.5522H78.1002C78.6422 94.5522 79.0816 95.036 79.0816 95.6325V100.894C79.0816 101.491 78.6422 101.974 78.1002 101.974Z" fill="#DEEDF2"/>
<path fill-rule="evenodd" clip-rule="evenodd" d="M44.7604 113.64H33.774C33.232 113.64 32.793 113.156 32.793 112.56V107.298C32.793 106.702 33.232 106.218 33.774 106.218H44.7604C45.302 106.218 45.7414 106.702 45.7414 107.298V112.56C45.7414 113.156 45.302 113.64 44.7604 113.64Z" fill="#DEEDF2"/>
<path fill-rule="evenodd" clip-rule="evenodd" d="M61.4284 113.64H50.4423C49.9003 113.64 49.4609 113.156 49.4609 112.56V107.298C49.4609 106.702 49.9003 106.218 50.4423 106.218H61.4284C61.9703 106.218 62.4097 106.702 62.4097 107.298V112.56C62.4097 113.156 61.9703 113.64 61.4284 113.64Z" fill="#DEEDF2"/>
<path fill-rule="evenodd" clip-rule="evenodd" d="M78.1002 113.64H67.1142C66.5722 113.64 66.1328 113.156 66.1328 112.56V107.298C66.1328 106.702 66.5722 106.218 67.1142 106.218H78.1002C78.6422 106.218 79.0816 106.702 79.0816 107.298V112.56C79.0816 113.156 78.6422 113.64 78.1002 113.64Z" fill="#DEEDF2"/>
<path fill-rule="evenodd" clip-rule="evenodd" d="M44.7604 125.078H33.774C33.232 125.078 32.793 124.594 32.793 123.997V118.736C32.793 118.14 33.232 117.656 33.774 117.656H44.7604C45.302 117.656 45.7414 118.14 45.7414 118.736V123.997C45.7414 124.594 45.302 125.078 44.7604 125.078Z" fill="#990000"/>
<path fill-rule="evenodd" clip-rule="evenodd" d="M61.4284 125.078H50.4423C49.9003 125.078 49.4609 124.594 49.4609 123.997V118.736C49.4609 118.14 49.9003 117.656 50.4423 117.656H61.4284C61.9703 117.656 62.4097 118.14 62.4097 118.736V123.997C62.4097 124.594 61.9703 125.078 61.4284 125.078Z" fill="#F6C854"/>
<path fill-rule="evenodd" clip-rule="evenodd" d="M78.1002 125.078H67.1142C66.5722 125.078 66.1328 124.594 66.1328 123.997V118.736C66.1328 118.14 66.5722 117.656 67.1142 117.656H78.1002C78.6422 117.656 79.0816 118.14 79.0816 118.736V123.997C79.0816 124.594 78.6422 125.078 78.1002 125.078Z" fill="#63BA68"/>
<path fill-rule="evenodd" clip-rule="evenodd" d="M35.0156 36.7096H77.1989C77.1989 35.861 76.5711 35.1733 75.7964 35.1733H36.4178C35.6434 35.1733 35.0156 35.861 35.0156 36.7096Z" fill="#34466B"/>
<path fill-rule="evenodd" clip-rule="evenodd" d="M76.0515 35.1734V18.8545L75.0915 20.2653L74.196 18.9496L73.3006 20.2653L72.4053 18.9496L71.5096 20.2653L70.6144 18.9496L69.7187 20.2653L68.8235 18.9496L67.928 20.2653L67.0325 18.9496L66.1373 20.2653L65.2416 18.9496L64.3464 20.2653L63.4507 18.9496L62.5555 20.2653L61.6602 18.9496L60.7645 20.2653L59.8693 18.9496L58.9736 20.2653L58.0784 18.9496L57.1827 20.2653L56.2874 18.9496L55.392 20.2653L54.4965 18.9496L53.6013 20.2653L52.7058 18.9496L51.8104 20.2653L50.9149 18.9496L50.0194 20.2653L49.124 18.9496L48.2285 20.2653L47.3333 18.9496L46.4378 20.2653L45.5424 18.9496L44.6469 20.2653L43.7514 18.9496L42.856 20.2653L41.9607 18.9496L41.0653 20.2653L40.1698 18.9496L39.2743 20.2653L38.3789 18.9496L37.4834 20.2653L36.5234 18.8545V35.1734H76.0515Z" fill="white"/>
<path fill-rule="evenodd" clip-rule="evenodd" d="M114.291 137.716L89.8938 82.9183C89.1988 81.3574 89.9006 79.529 91.4611 78.8342L123.488 64.5751C125.048 63.8804 126.876 64.5826 127.571 66.1434L151.968 120.941C152.663 122.502 151.962 124.33 150.401 125.025L118.375 139.284C116.815 139.979 114.986 139.277 114.291 137.716Z" fill="white"/>
<path fill-rule="evenodd" clip-rule="evenodd" d="M114.447 79.8049L112.916 76.3664C112.641 75.749 111.917 75.4714 111.3 75.7462L107.862 77.2772C107.244 77.552 106.967 78.2754 107.241 78.8927L108.772 82.3312C109.047 82.9486 109.771 83.2263 110.388 82.9514L113.826 81.4205C114.444 81.1456 114.721 80.4223 114.447 79.8049Z" fill="#CEDEE7"/>
<path fill-rule="evenodd" clip-rule="evenodd" d="M120.015 119.23L124.664 131.354L122.42 131.58L117.771 119.456L120.015 119.23ZM114.187 106.142L118.837 118.266L116.592 118.492L111.943 106.368L114.187 106.142ZM108.36 93.0532L113.009 105.177L110.764 105.403L106.115 93.2792L108.36 93.0532ZM102.499 79.8889L107.148 92.013L104.904 92.2391L100.255 80.115L102.499 79.8889ZM99.8937 87.9167L101.527 92.9587L98.9031 93.3909L97.2699 88.3489L99.8937 87.9167ZM97.3339 82.1667L98.9672 87.2088L96.3434 87.641L94.7101 82.5989L97.3339 82.1667Z" fill="#CEDEE7"/>
<path fill-rule="evenodd" clip-rule="evenodd" d="M141.875 119.007C142.39 118.837 142.849 118.508 143.176 118.053L143.615 117.443L145.367 115.004C145.534 114.772 145.735 114.572 145.961 114.41L145.805 114.395C144.881 114.303 143.977 114.712 143.435 115.466L143.434 115.466L141.616 117.997C141.616 117.996 141.616 117.995 141.615 117.994C141.068 118.691 140.2 119.065 139.312 118.977L139.156 118.961C139.381 118.799 139.583 118.6 139.75 118.367L139.586 118.596L141.064 116.538L142.418 114.654L142.378 114.709C142.546 114.476 142.747 114.277 142.973 114.114L142.816 114.099C141.892 114.008 140.989 114.416 140.446 115.17L140.446 115.171L140.389 115.25L139.132 117L139.132 117L138.694 117.61C138.152 118.364 137.248 118.773 136.323 118.681L136.167 118.666C136.393 118.504 136.594 118.304 136.761 118.071L136.597 118.3L138.952 115.023L138.952 115.022C139.167 114.723 139.439 114.479 139.746 114.298C138.365 112.47 136.683 111.52 135.474 112.067C133.838 112.806 133.687 116.008 135.138 119.217C136.589 122.426 139.092 124.428 140.728 123.688C141.937 123.142 142.335 121.251 141.875 119.007Z" fill="#EC0000"/>
<path fill-rule="evenodd" clip-rule="evenodd" d="M71.8389 27.1458H41.3607C41.3213 27.1458 41.2848 27.132 41.2555 27.1087C41.2141 27.0754 41.1875 27.0234 41.1875 26.9645C41.1875 26.9219 41.2016 26.8828 41.2249 26.8519C41.2566 26.8101 41.3057 26.7832 41.3607 26.7832H71.8389C71.8868 26.7832 71.93 26.8035 71.9615 26.8362C71.9928 26.8691 72.0121 26.9144 72.0121 26.9645C72.0121 27.0101 71.996 27.0518 71.9694 27.0838C71.9376 27.1218 71.891 27.1458 71.8389 27.1458Z" fill="#CEDEE7"/>
<path fill-rule="evenodd" clip-rule="evenodd" d="M54.6115 30.0471H42.2717C42.1834 30.0471 42.1026 30.0146 42.0401 29.9608C41.9629 29.8944 41.9141 29.7952 41.9141 29.6844C41.9141 29.5843 41.9541 29.4937 42.0189 29.428C42.0836 29.3624 42.173 29.3218 42.2717 29.3218H54.6115C54.7102 29.3218 54.7997 29.3624 54.8644 29.428C54.9291 29.4937 54.9692 29.5843 54.9692 29.6844C54.9692 29.7847 54.9291 29.8754 54.8644 29.941C54.7997 30.0064 54.7102 30.0471 54.6115 30.0471Z" fill="#CEDEE7"/>
<path fill-rule="evenodd" clip-rule="evenodd" d="M70.1971 30.0471H66.2126C66.1224 30.0471 66.04 30.0146 65.9763 29.9608C65.8977 29.8944 65.8477 29.7952 65.8477 29.6844C65.8477 29.5843 65.8887 29.4937 65.9546 29.428C66.0206 29.3624 66.1119 29.3218 66.2126 29.3218H70.1971C70.298 29.3218 70.3892 29.3624 70.4551 29.428C70.5211 29.4937 70.562 29.5843 70.562 29.6844C70.562 29.7847 70.5211 29.8754 70.4553 29.941C70.3892 30.0064 70.298 30.0471 70.1971 30.0471Z" fill="#CEDEE7"/>
<path d="M56.6001 29.8658C56.6001 29.9659 56.5595 30.0472 56.5095 30.0472C56.4595 30.0472 56.4188 29.9659 56.4188 29.8658C56.4188 29.7657 56.4595 29.6846 56.5095 29.6846C56.5595 29.6846 56.6001 29.7657 56.6001 29.8658Z" fill="#CEDEE7"/>
<path d="M57.5072 29.8658C57.5072 29.9659 57.426 30.0472 57.326 30.0472C57.2257 30.0472 57.1445 29.9659 57.1445 29.8658C57.1445 29.7657 57.2257 29.6846 57.326 29.6846C57.426 29.6846 57.5072 29.7657 57.5072 29.8658Z" fill="#CEDEE7"/>
<path d="M58.5931 29.8658C58.5931 29.9659 58.512 30.0472 58.4119 30.0472C58.3116 30.0472 58.2305 29.9659 58.2305 29.8658C58.2305 29.7657 58.3116 29.6846 58.4119 29.6846C58.512 29.6846 58.5931 29.7657 58.5931 29.8658Z" fill="#CEDEE7"/>
<path d="M59.683 29.8658C59.683 29.9659 59.6018 30.0472 59.5017 30.0472C59.4015 30.0472 59.3203 29.9659 59.3203 29.8658C59.3203 29.7657 59.4015 29.6846 59.5017 29.6846C59.6018 29.6846 59.683 29.7657 59.683 29.8658Z" fill="#CEDEE7"/>
<path d="M60.7728 29.8658C60.7728 29.9659 60.6917 30.0472 60.5916 30.0472C60.4913 30.0472 60.4102 29.9659 60.4102 29.8658C60.4102 29.7657 60.4913 29.6846 60.5916 29.6846C60.6917 29.6846 60.7728 29.7657 60.7728 29.8658Z" fill="#CEDEE7"/>
<path d="M61.8587 29.8658C61.8587 29.9659 61.7776 30.0472 61.6775 30.0472C61.5772 30.0472 61.4961 29.9659 61.4961 29.8658C61.4961 29.7657 61.5772 29.6846 61.6775 29.6846C61.7776 29.6846 61.8587 29.7657 61.8587 29.8658Z" fill="#CEDEE7"/>
<path d="M62.5853 29.8658C62.5853 29.9659 62.5042 30.0472 62.4041 30.0472C62.3038 30.0472 62.2227 29.9659 62.2227 29.8658C62.2227 29.7657 62.3038 29.6846 62.4041 29.6846C62.5042 29.6846 62.5853 29.7657 62.5853 29.8658Z" fill="#CEDEE7"/>
<path d="M64.0345 29.8658C64.0345 29.9659 63.9534 30.0472 63.8533 30.0472C63.753 30.0472 63.6719 29.9659 63.6719 29.8658C63.6719 29.7657 63.753 29.6846 63.8533 29.6846C63.9534 29.6846 64.0345 29.7657 64.0345 29.8658Z" fill="#CEDEE7"/>
<path d="M65.1244 29.8658C65.1244 29.9659 65.0432 30.0472 64.9431 30.0472C64.8429 30.0472 64.7617 29.9659 64.7617 29.8658C64.7617 29.7657 64.8429 29.6846 64.9431 29.6846C65.0432 29.6846 65.1244 29.7657 65.1244 29.8658Z" fill="#CEDEE7"/>
<path fill-rule="evenodd" clip-rule="evenodd" d="M57.4913 49.7608C57.3108 49.5845 57.0193 49.5857 56.8403 49.7635C56.6613 49.9413 56.6625 50.2283 56.843 50.4046C58.8715 52.3858 60.5706 55.7659 60.5706 58.6918C60.5706 61.6189 58.8717 64.9983 56.8425 66.9869C56.6623 67.1635 56.6616 67.4505 56.8409 67.628C57.0202 67.8054 57.3116 67.8061 57.4918 67.6295C59.6821 65.4831 61.4911 61.8846 61.4911 58.6918C61.4911 55.5001 59.6816 51.9001 57.4913 49.7608ZM58.1745 58.6927C58.1745 56.1776 56.9545 53.5455 55.2781 51.9131C55.0973 51.7371 54.8059 51.7387 54.6272 51.9167C54.4484 52.0948 54.4501 52.3818 54.6309 52.5578C56.1394 54.0267 57.254 56.4312 57.254 58.6927C57.254 60.958 56.1388 63.3659 54.6311 64.832C54.4502 65.0079 54.4483 65.2949 54.6269 65.4731C54.8055 65.6512 55.097 65.653 55.2779 65.4771C56.9538 63.8474 58.1745 61.2117 58.1745 58.6927ZM53.1161 54.1167C54.2216 55.5571 54.8632 57.0487 54.8632 58.6936C54.8632 60.3418 54.2192 61.8419 53.1157 63.2757C52.9621 63.4752 52.6734 63.5143 52.4709 63.3631C52.2683 63.2119 52.2285 62.9275 52.3821 62.728C53.3748 61.4382 53.9426 60.1155 53.9426 58.6936C53.9426 57.2752 53.377 55.9601 52.3817 54.6633C52.2284 54.4636 52.2686 54.1793 52.4714 54.0284C52.6741 53.8774 52.9628 53.9169 53.1161 54.1167ZM51.5507 58.6955C51.5507 57.6921 51.0662 56.7674 50.26 56.1779C50.0559 56.0287 49.7676 56.0706 49.6161 56.2716C49.4645 56.4726 49.5071 56.7565 49.7112 56.9058C50.2863 57.3263 50.6302 57.9825 50.6302 58.6955C50.6302 59.4097 50.2858 60.066 49.7096 60.4868C49.5054 60.636 49.4626 60.9199 49.614 61.121C49.7654 61.3221 50.0537 61.3642 50.2579 61.2151C51.0655 60.6253 51.5507 59.7005 51.5507 58.6955Z" fill="#DEEDF2"/>
</svg>
