<svg width="160" height="160" viewBox="0 0 160 160" fill="none" xmlns="http://www.w3.org/2000/svg">
<path fill-rule="evenodd" clip-rule="evenodd" d="M58.7934 133.608C59.4349 133.61 60.0747 133.603 60.7127 133.585C73.5538 133.233 85.8971 137.221 96.0647 144.605C102.236 149.087 109.87 151.726 118.244 151.754C140.179 151.827 158.786 134.097 159.944 112.021C160.455 102.282 157.457 93.345 152.064 86.3938C147.448 80.4426 145.109 72.9436 145.679 65.2156C145.686 65.116 145.692 65.0163 145.699 64.9171C146.494 51.9016 136.74 41.3807 123.809 41.3131C123.735 41.3124 123.661 41.3126 123.587 41.3131C120.099 41.3279 116.922 39.5751 115.121 36.6595C104.849 20.036 86.5612 9.06799 65.1819 9.00031C31.0206 8.89242 1.84615 36.7276 0.0837856 71.11C-1.67961 105.52 24.6052 133.501 58.7934 133.608Z" fill="#EAF7FE"/>
<mask id="mask0_1557_4887" style="mask-type:luminance" maskUnits="userSpaceOnUse" x="0" y="9" width="160" height="143">
<path fill-rule="evenodd" clip-rule="evenodd" d="M58.7934 133.608C59.4349 133.61 60.0747 133.603 60.7127 133.585C73.5538 133.233 85.8971 137.221 96.0647 144.605C102.236 149.087 109.87 151.726 118.244 151.753C140.179 151.827 158.786 134.097 159.944 112.021C160.455 102.282 157.457 93.345 152.064 86.3938C147.448 80.4426 145.109 72.9436 145.679 65.2156C145.686 65.116 145.692 65.0163 145.699 64.9171C152.064 21.4669 120.624 9.17578 65.1819 9.00031C31.0206 8.89242 1.84615 36.7276 0.0837856 71.11C-1.67961 105.52 24.6052 133.5 58.7934 133.608Z" fill="white"/>
</mask>
<g mask="url(#mask0_1557_4887)">
<path d="M99.6003 197.165L44.2161 188.699C38.0655 187.756 33.8423 182.013 34.7836 175.868L57.3652 28.4902C58.3065 22.3458 64.0558 18.1267 70.2081 19.0672L125.59 27.5354C131.743 28.4767 135.965 34.22 135.023 40.3643L112.442 187.743C111.501 193.888 105.752 198.106 99.6003 197.165Z" fill="#9E3667"/>
<path d="M130.667 46.1062L109.792 182.343C109.144 186.578 103.875 189.285 99.638 188.637L38.6307 179.309C34.3914 178.66 31.4847 174.704 32.1335 170.468L53.0079 34.2323C53.6567 29.9964 57.6156 27.0862 61.8558 27.7344L122.861 37.0628C127.098 37.7105 131.316 41.8707 130.667 46.1062Z" fill="white"/>
<path fill-rule="evenodd" clip-rule="evenodd" d="M108.746 31.9145C109.77 32.0714 110.728 31.3682 110.884 30.3448C111.042 29.3204 110.338 28.364 109.314 28.2072C108.29 28.0511 107.332 28.7535 107.174 29.7778C107.018 30.8013 107.72 31.7586 108.746 31.9145ZM81.4748 26.8374C82.0081 26.9191 82.5072 26.5529 82.5893 26.0191C82.6709 25.4852 82.3043 24.9866 81.7705 24.9048C81.2363 24.8232 80.7367 25.1895 80.6556 25.7233C80.5731 26.2571 80.9401 26.7558 81.4748 26.8374ZM78.8393 25.4447C78.7572 25.9778 78.2581 26.345 77.7248 26.2633C77.1905 26.1806 76.824 25.6829 76.906 25.1491C76.9881 24.6151 77.4872 24.249 78.0205 24.3307C78.5548 24.4123 78.9213 24.9111 78.8393 25.4447ZM89.1793 27.553L98.1471 28.9238C98.4316 28.9679 98.6976 28.7726 98.7413 28.4878C98.7846 28.2032 98.589 27.9375 98.304 27.8942L89.3366 26.5232C89.0526 26.4801 88.7866 26.6746 88.7424 26.9593C88.6991 27.2439 88.8939 27.5098 89.1793 27.553Z" fill="#DEEDF2"/>
<path fill-rule="evenodd" clip-rule="evenodd" d="M99.5926 197.132L44.2084 188.666C38.0577 187.723 33.8345 181.98 34.7758 175.835L57.3574 28.4571C58.2988 22.3127 64.0476 18.0935 70.2003 19.034L125.583 27.5022C131.735 28.4436 135.958 34.1868 135.015 40.3312L112.435 187.71C111.493 193.855 105.744 198.073 99.5926 197.132Z" fill="#9E3667"/>
<path fill-rule="evenodd" clip-rule="evenodd" d="M96.1824 196.646L40.7981 188.177C34.6474 187.237 30.4244 181.491 31.3656 175.346L53.9508 27.9378C54.8936 21.7923 60.6428 17.5721 66.7942 18.5124L122.177 26.9814C128.329 27.9212 132.552 33.6662 131.61 39.812L109.024 187.22C108.083 193.366 102.333 197.586 96.1824 196.646Z" fill="white"/>
<path fill-rule="evenodd" clip-rule="evenodd" d="M88.6071 148.959L108.894 152.058L105.786 172.329L85.4985 169.23L88.6071 148.959ZM65.3183 145.398L85.6048 148.498L82.4966 168.768L62.2111 165.67L65.3183 145.398ZM42.0301 141.836L62.3166 144.936L59.2093 165.207L38.9219 162.108L42.0301 141.836Z" fill="#CEDEE7"/>
<path fill-rule="evenodd" clip-rule="evenodd" d="M108.732 31.8803C109.756 32.0372 110.715 31.334 110.871 30.3106C111.029 29.2862 110.325 28.3298 109.301 28.173C108.277 28.0169 107.319 28.7193 107.161 29.7436C107.004 30.7671 107.707 31.7244 108.732 31.8803ZM81.4627 26.8032C81.9961 26.8849 82.4951 26.5187 82.5772 25.9849C82.6588 25.451 82.2923 24.9525 81.7585 24.8707C81.2242 24.789 80.7247 25.1553 80.644 25.6891C80.561 26.2229 80.9284 26.7216 81.4627 26.8032ZM78.8271 25.4106C78.7455 25.9437 78.2464 26.3109 77.713 26.2292C77.1788 26.1465 76.8122 25.6488 76.8943 25.1149C76.9759 24.581 77.4754 24.2149 78.0083 24.2965C78.5431 24.3782 78.9091 24.8769 78.8271 25.4106ZM89.1676 27.5188L98.1354 28.8896C98.4199 28.9337 98.6859 28.7384 98.7296 28.4537C98.7729 28.1689 98.5772 27.9033 98.2923 27.86L89.3249 26.489C89.0409 26.4459 88.7749 26.6404 88.7307 26.9251C88.6874 27.2097 88.8822 27.4756 89.1676 27.5188Z" fill="#DEEDF2"/>
<path d="M130.657 46.0736L127.335 67.7545L49.6758 55.8805L52.9976 34.1997C53.6464 29.9638 57.6053 27.0532 61.8456 27.7017L122.851 37.0302C127.088 37.6779 131.305 41.8379 130.657 46.0736Z" fill="#EC0000"/>
<path fill-rule="evenodd" clip-rule="evenodd" d="M122.37 100.2L44.7109 88.3372L49.6707 55.9531L127.329 67.8154L122.37 100.2Z" fill="#DEEDF2"/>
<path fill-rule="evenodd" clip-rule="evenodd" d="M81.7131 74.8584L56.8005 71.0474L56.1562 75.2529L81.0684 79.0662L81.7131 74.8584Z" fill="white"/>
<path d="M115.898 82.3417C116.44 78.7971 114.007 75.4842 110.463 74.9419L97.6277 72.978C94.0832 72.4356 90.7703 74.8693 90.228 78.4134C89.6856 81.958 92.1193 85.2708 95.6634 85.8132L108.499 87.7771C112.043 88.3195 115.356 85.8858 115.898 82.3417Z" fill="white"/>
<path fill-rule="evenodd" clip-rule="evenodd" d="M110.626 73.8719L97.7914 71.908C93.6563 71.2754 89.7911 74.1144 89.1586 78.2496C88.5256 82.3844 91.365 86.2495 95.4998 86.8825L108.335 88.8464C112.47 89.479 116.335 86.64 116.968 82.5048C117.6 78.37 114.761 74.5049 110.626 73.8719ZM110.462 74.9418C114.006 75.4842 116.44 78.797 115.898 82.3411C115.355 85.8857 112.042 88.3194 108.498 87.777L95.6627 85.8127C92.1186 85.2703 89.6849 81.9575 90.2273 78.4133C90.7696 74.8687 94.0825 72.4355 97.6271 72.9779L110.462 74.9418Z" fill="white"/>
<rect width="12.9845" height="12.9845" rx="6.49226" transform="matrix(-0.988494 -0.151258 -0.151258 0.988494 116.879 75.9258)" fill="#008437"/>
<path fill-rule="evenodd" clip-rule="evenodd" d="M122.462 99.6247L117.893 129.425L40.2383 117.546L42.3089 104.033L42.9798 99.6486L44.8067 87.7471L57.4706 89.6848L59.0242 89.9238L62.2324 90.412L62.3799 90.4341L122.462 99.6247Z" fill="#9BC3D3"/>
<path fill-rule="evenodd" clip-rule="evenodd" d="M76.9592 105.565L52.0466 101.754L51.4023 105.96L76.3149 109.773L76.9592 105.565Z" fill="#DEEDF2"/>
<path d="M111.39 113.008C111.933 109.464 109.499 106.151 105.955 105.609L93.1195 103.644C89.5754 103.102 86.2625 105.536 85.7202 109.08C85.1778 112.624 87.611 115.937 91.1556 116.48L103.991 118.444C107.535 118.986 110.848 116.553 111.39 113.008Z" fill="white"/>
<path fill-rule="evenodd" clip-rule="evenodd" d="M106.119 104.538L93.2835 102.575C89.1483 101.942 85.2837 104.781 84.6507 108.916C84.0181 113.051 86.8571 116.916 90.9923 117.549L103.827 119.513C107.962 120.146 111.827 117.307 112.46 113.171C113.093 109.036 110.254 105.171 106.119 104.538ZM105.956 105.608C109.5 106.15 111.934 109.463 111.391 113.008C110.849 116.552 107.536 118.985 103.992 118.443L91.1567 116.479C87.6121 115.937 85.1788 112.624 85.7212 109.079C86.2636 105.535 89.5764 103.102 93.1206 103.644L105.956 105.608Z" fill="white"/>
<rect width="12.9845" height="12.9845" rx="6.49226" transform="matrix(-0.988494 -0.151261 -0.151261 0.988494 99.8906 104.683)" fill="#CEDEE7"/>
<path fill-rule="evenodd" clip-rule="evenodd" d="M112.972 161.538L117.893 129.424L40.2361 117.553L38.0042 132.115L37.2791 136.84L35.3164 149.666L47.9807 151.601L49.5348 151.838L52.7421 152.33L52.8895 152.353L112.972 161.538Z" fill="#DEEDF2"/>
<path d="M106.879 144.567C107.421 141.023 104.988 137.71 101.443 137.168L88.6082 135.204C85.0636 134.662 81.7508 137.095 81.2084 140.639C80.666 144.184 83.0997 147.496 86.6439 148.039L99.4791 150.003C103.024 150.545 106.337 148.112 106.879 144.567Z" fill="white"/>
<path fill-rule="evenodd" clip-rule="evenodd" d="M101.607 136.099L88.7719 134.135C84.6367 133.502 80.7716 136.341 80.139 140.476C79.5061 144.611 82.3455 148.476 86.4802 149.109L99.3155 151.073C103.451 151.706 107.316 148.867 107.948 144.731C108.581 140.596 105.742 136.731 101.607 136.099ZM101.442 137.168C104.987 137.71 107.421 141.023 106.878 144.568C106.336 148.112 103.023 150.546 99.4784 150.003L86.6432 148.039C83.099 147.497 80.6654 144.184 81.2077 140.639C81.7501 137.095 85.0629 134.662 88.6075 135.204L101.442 137.168Z" fill="white"/>
<rect width="12.9845" height="12.9845" rx="6.49226" transform="matrix(-0.988494 -0.151258 -0.151258 0.988494 107.863 138.152)" fill="#008437"/>
</g>
</svg>
