<svg width="160" height="160" viewBox="0 0 160 160" fill="none" xmlns="http://www.w3.org/2000/svg">
<path fill-rule="evenodd" clip-rule="evenodd" d="M59.0511 130.129C59.6717 130.132 60.2905 130.124 60.9076 130.107C73.3289 129.766 85.2688 133.624 95.1039 140.767C101.073 145.102 108.458 147.655 116.558 147.682C137.776 147.752 155.775 130.603 156.895 109.247C157.389 99.827 154.489 91.1824 149.273 84.4585C144.807 78.7018 142.545 71.448 143.096 63.9726C143.103 63.8762 143.109 63.7798 143.115 63.6839C143.885 51.0938 134.45 40.9168 121.941 40.8515C121.87 40.8508 121.798 40.851 121.727 40.8515C118.352 40.8658 115.28 39.1703 113.537 36.3501C103.602 20.27 85.9112 9.66049 65.2308 9.59503C32.1862 9.49067 3.96548 36.4159 2.26073 69.6743C0.554981 102.959 25.9805 130.026 59.0511 130.129Z" fill="#EAF7FE"/>
<mask id="mask0_1483_87262" style="mask-type:luminance" maskUnits="userSpaceOnUse" x="2" y="9" width="155" height="139">
<path fill-rule="evenodd" clip-rule="evenodd" d="M59.0511 130.129C59.6717 130.132 60.2905 130.124 60.9076 130.107C73.3289 129.766 85.2688 133.624 95.1039 140.767C101.073 145.102 108.458 147.655 116.558 147.681C137.776 147.752 155.775 130.603 156.895 109.247C157.389 99.827 154.489 91.1824 149.273 84.4585C144.807 78.7018 142.545 71.448 143.096 63.9726C143.103 63.8762 143.109 63.7798 143.115 63.6839C149.273 21.6541 118.86 9.76476 65.2308 9.59503C32.1862 9.49067 3.96548 36.4159 2.26073 69.6743C0.554981 102.959 25.9805 130.025 59.0511 130.129Z" fill="white"/>
</mask>
<g mask="url(#mask0_1483_87262)">
<path d="M98.5201 191.609L44.9464 183.419C38.9969 182.508 34.9117 176.952 35.8223 171.008L57.6656 28.4479C58.5762 22.5044 64.1375 18.4231 70.0887 19.3329L123.661 27.5243C129.612 28.4349 133.696 33.9904 132.785 39.9338L110.942 182.495C110.032 188.439 104.471 192.519 98.5201 191.609Z" fill="#9E3667"/>
<path d="M128.572 45.4875L108.38 177.271C107.752 181.367 102.655 183.986 98.5571 183.359L39.5442 174.336C35.4436 173.708 32.6319 169.881 33.2595 165.784L53.4515 34.0018C54.079 29.9043 57.9085 27.0893 62.0101 27.7163L121.021 36.7398C125.119 37.3663 129.199 41.3905 128.572 45.4875Z" fill="white"/>
<path fill-rule="evenodd" clip-rule="evenodd" d="M107.365 31.7605C108.356 31.9122 109.283 31.232 109.434 30.242C109.586 29.2512 108.906 28.326 107.915 28.1743C106.924 28.0233 105.998 28.7028 105.845 29.6936C105.694 30.6836 106.373 31.6096 107.365 31.7605ZM80.9833 26.8491C81.4992 26.9281 81.982 26.574 82.0614 26.0576C82.1403 25.5411 81.7858 25.0589 81.2694 24.9798C80.7526 24.9008 80.2694 25.2551 80.1909 25.7715C80.1111 26.2878 80.4661 26.7702 80.9833 26.8491ZM78.4358 25.5022C78.3565 26.0178 77.8737 26.373 77.3578 26.294C76.841 26.214 76.4864 25.7326 76.5658 25.2162C76.6452 24.6997 77.1279 24.3456 77.6439 24.4246C78.1607 24.5035 78.5152 24.986 78.4358 25.5022ZM88.4362 27.5415L97.1109 28.8674C97.3861 28.9101 97.6434 28.7211 97.6857 28.4457C97.7276 28.1704 97.5383 27.9134 97.2627 27.8715L88.5884 26.5453C88.3137 26.5036 88.0564 26.6917 88.0136 26.9672C87.9718 27.2424 88.1602 27.4996 88.4362 27.5415Z" fill="#DEEDF2"/>
<path fill-rule="evenodd" clip-rule="evenodd" d="M98.5123 191.577L44.9387 183.387C38.9891 182.475 34.9039 176.92 35.8144 170.976L57.6579 28.4157C58.5685 22.4722 64.1293 18.3909 70.081 19.3007L123.653 27.4921C129.604 28.4027 133.689 33.9582 132.777 39.9016L110.935 182.462C110.024 188.407 104.463 192.486 98.5123 191.577Z" fill="#9E3667"/>
<path fill-rule="evenodd" clip-rule="evenodd" d="M95.2154 191.106L41.6417 182.914C35.6921 182.005 31.6071 176.447 32.5176 170.503L54.3645 27.9135C55.2764 21.9688 60.8377 17.8866 66.788 18.7962L120.361 26.9884C126.311 27.8974 130.396 33.4547 129.485 39.3995L107.638 181.988C106.727 187.934 101.165 192.016 95.2154 191.106Z" fill="white"/>
<path fill-rule="evenodd" clip-rule="evenodd" d="M87.8859 144.979L107.51 147.977L104.503 167.585L84.8789 164.588L87.8859 144.979ZM65.3572 141.534L84.9805 144.533L81.9739 164.141L62.3516 161.143L65.3572 141.534ZM42.8309 138.089L62.4542 141.088L59.4485 160.696L39.8242 157.699L42.8309 138.089Z" fill="#CEDEE7"/>
<path fill-rule="evenodd" clip-rule="evenodd" d="M107.353 31.7273C108.344 31.879 109.271 31.1988 109.423 30.2088C109.575 29.218 108.894 28.2928 107.904 28.1411C106.913 27.9901 105.986 28.6695 105.834 29.6604C105.682 30.6504 106.362 31.5764 107.353 31.7273ZM80.9752 26.8159C81.4911 26.8949 81.9739 26.5408 82.0532 26.0244C82.1322 25.5079 81.7776 25.0257 81.2613 24.9466C80.7445 24.8676 80.2612 25.2219 80.1832 25.7383C80.1029 26.2546 80.4584 26.737 80.9752 26.8159ZM78.4276 25.469C78.3487 25.9847 77.8659 26.3398 77.35 26.2608C76.8332 26.1808 76.4786 25.6994 76.558 25.183C76.6369 24.6665 77.1201 24.3124 77.6356 24.3914C78.1528 24.4704 78.507 24.9528 78.4276 25.469ZM88.4284 27.5083L97.1031 28.8342C97.3783 28.8769 97.6356 28.6879 97.6779 28.4125C97.7198 28.1371 97.5305 27.8802 97.2549 27.8383L88.5806 26.5121C88.3059 26.4704 88.0486 26.6585 88.0058 26.934C87.964 27.2092 88.1524 27.4664 88.4284 27.5083Z" fill="#DEEDF2"/>
<path d="M128.564 45.4564L125.351 66.4285L50.2305 54.9427L53.4437 33.9706C54.0713 29.8732 57.9008 27.0578 62.0024 27.6851L121.013 36.7086C125.112 37.3351 129.191 41.3591 128.564 45.4564Z" fill="#2A8FEC"/>
<path fill-rule="evenodd" clip-rule="evenodd" d="M120.55 97.8126L45.4297 86.3381L50.2273 55.0127L125.347 66.4872L120.55 97.8126Z" fill="#DEEDF2"/>
<path fill-rule="evenodd" clip-rule="evenodd" d="M81.2214 73.3002L57.1232 69.6138L56.5 73.6818L80.5978 77.3704L81.2214 73.3002Z" fill="white"/>
<path d="M114.287 80.5389C114.811 77.1102 112.458 73.9057 109.029 73.381L96.6138 71.4813C93.1851 70.9567 89.9806 73.3108 89.456 76.7391C88.9313 80.1678 91.2854 83.3723 94.7137 83.897L107.129 85.7967C110.558 86.3213 113.763 83.9672 114.287 80.5389Z" fill="white"/>
<path fill-rule="evenodd" clip-rule="evenodd" d="M109.187 72.3458L96.772 70.4461C92.772 69.8343 89.0332 72.5804 88.4213 76.5805C87.809 80.58 90.5556 84.3188 94.5552 84.9311L106.971 86.8308C110.971 87.4427 114.71 84.6965 115.322 80.6965C115.933 76.6969 113.187 72.9581 109.187 72.3458ZM109.029 73.3806C112.458 73.9052 114.811 77.1097 114.287 80.538C113.763 83.9667 110.558 86.3209 107.129 85.7962L94.7137 83.8961C91.2854 83.3714 88.9313 80.1669 89.456 76.7386C89.9806 73.3099 93.1851 70.9562 96.6138 71.4809L109.029 73.3806Z" fill="white"/>
<rect width="12.56" height="12.56" rx="6.28002" transform="matrix(-0.988494 -0.151258 -0.151258 0.988494 115.238 74.3325)" fill="#2C9891"/>
<path fill-rule="evenodd" clip-rule="evenodd" d="M120.633 97.2564L116.214 126.083L41.0977 114.592L43.1006 101.521L43.7496 97.2796L45.5167 85.7671L57.7666 87.6415L59.2694 87.8726L62.3728 88.3449L62.5154 88.3663L120.633 97.2564Z" fill="#9BC3D3"/>
<path fill-rule="evenodd" clip-rule="evenodd" d="M76.6198 103.003L52.5216 99.3169L51.8984 103.385L75.9966 107.074L76.6198 103.003Z" fill="#DEEDF2"/>
<path d="M109.927 110.203C110.452 106.774 108.098 103.57 104.67 103.045L92.254 101.145C88.8258 100.62 85.6212 102.974 85.0966 106.403C84.5719 109.831 86.9256 113.036 90.3543 113.561L102.77 115.46C106.198 115.985 109.403 113.631 109.927 110.203Z" fill="white"/>
<path fill-rule="evenodd" clip-rule="evenodd" d="M104.824 102.01L92.4086 100.111C88.4086 99.4985 84.6702 102.245 84.0579 106.245C83.4461 110.245 86.1923 113.983 90.1923 114.595L102.607 116.495C106.607 117.107 110.346 114.361 110.958 110.361C111.57 106.361 108.824 102.622 104.824 102.01ZM104.666 103.045C108.094 103.569 110.448 106.774 109.924 110.203C109.399 113.631 106.194 115.985 102.766 115.46L90.3504 113.561C86.9217 113.036 84.568 109.831 85.0927 106.403C85.6173 102.974 88.8219 100.62 92.2501 101.145L104.666 103.045Z" fill="white"/>
<rect width="12.56" height="12.56" rx="6.28002" transform="matrix(-0.988494 -0.151261 -0.151261 0.988494 98.8047 102.15)" fill="#CEDEE7"/>
<path fill-rule="evenodd" clip-rule="evenodd" d="M111.457 157.146L116.217 126.082L41.0987 114.6L38.9398 128.686L38.2384 133.256L36.3398 145.663L48.5901 147.535L50.0934 147.763L53.1959 148.24L53.3385 148.262L111.457 157.146Z" fill="#DEEDF2"/>
<path d="M105.565 140.73C106.089 137.302 103.735 134.098 100.306 133.573L87.8912 131.673C84.4625 131.149 81.2579 133.502 80.7333 136.931C80.2087 140.359 82.5628 143.564 85.991 144.088L98.4067 145.988C101.835 146.513 105.04 144.159 105.565 140.73Z" fill="white"/>
<path fill-rule="evenodd" clip-rule="evenodd" d="M100.465 132.538L88.0493 130.638C84.0493 130.026 80.3105 132.772 79.6987 136.772C79.0864 140.772 81.833 144.511 85.8326 145.123L98.2482 147.023C102.248 147.635 105.987 144.888 106.599 140.888C107.211 136.888 104.465 133.15 100.465 132.538ZM100.306 133.572C103.735 134.097 106.089 137.301 105.565 140.73C105.04 144.158 101.835 146.512 98.4067 145.988L85.991 144.088C82.5628 143.563 80.2087 140.359 80.7333 136.93C81.2579 133.502 84.4625 131.148 87.8912 131.672L100.306 133.572Z" fill="white"/>
<rect width="12.56" height="12.56" rx="6.28002" transform="matrix(-0.988494 -0.151258 -0.151258 0.988494 106.516 134.524)" fill="#2C9891"/>
</g>
</svg>
