<svg width="161" height="161" viewBox="0 0 161 161" fill="none" xmlns="http://www.w3.org/2000/svg">
<path fill-rule="evenodd" clip-rule="evenodd" d="M9.01749 74.8753C11.2073 67.0192 4.24593 66.7161 4.09264 56.5933C4.03023 52.4533 6.29802 48.2368 11.7553 46.3025C14.4373 45.3523 17.1104 44.6989 19.4968 43.1875C24.935 39.7433 24.8367 33.1895 26.3204 27.6027C29.5782 15.3323 42.117 5.58396 54.8091 5.90108C63.9587 6.12926 72.2306 6.40971 80.572 14.1758C86.2797 19.4899 89.9892 26.0284 95.2881 31.5068C100.9 37.3081 107.738 40.0916 115.416 41.9557C122.678 43.7183 130.577 45.8157 136.135 51.1017C141.359 56.0691 140.597 61.2647 138.358 67.364C135.888 74.0898 141.243 78.6655 146.827 81.2848C151.528 83.4898 159.398 87.975 159.655 96.2454C160.451 121.862 144.18 121.965 138.114 124.399C82.3066 146.797 60.8897 129.522 37.2265 129.871C13.6373 130.219 0.115219 101.692 0.934723 93.2907C1.97461 82.6238 7.48807 80.3611 9.01749 74.8753Z" fill="#DEEDF2"/>
<path fill-rule="evenodd" clip-rule="evenodd" d="M52.9356 113.697C71.584 111.386 91.6068 114.537 101.838 117.275C107.967 118.916 109.875 122.581 116.208 123.166C128.926 124.341 158.494 122.885 159.29 125.872C160.856 131.751 151.117 135.633 128.335 139.996C128.86 140.369 126.087 148.058 107.682 151.037C100.399 152.216 88.0594 152.411 83.2429 151.285C75.8396 149.553 68.2282 148.876 60.6335 149.235C33.6212 150.51 12.2584 148.926 11.6869 144.314C11.4956 142.772 12.9027 140.518 15.2547 139.1C16.7202 138.216 14.4429 137.717 13.9116 137.567C7.38708 135.721 3.63824 133.413 3.36616 131.392C2.51276 125.048 25.5622 117.09 52.9356 113.697Z" fill="#DEEDF2"/>
<path fill-rule="evenodd" clip-rule="evenodd" d="M114.252 11.6133C113.611 6.41069 109.177 2.38281 103.803 2.38281C97.9887 2.38281 93.2751 7.09753 93.2751 12.9137C93.2751 13.8679 93.4019 14.7924 93.6399 15.6713C93.5505 15.6725 93.4618 15.6757 93.3737 15.6809L93.2746 15.6727V15.6874C90.2592 15.9141 87.8823 18.4336 87.8823 21.5083C87.8823 24.5829 90.2592 27.1025 93.2746 27.3291V27.3465H131.605V27.3459H131.605C133.955 27.3459 135.859 25.4402 135.859 23.0898C135.859 20.7394 133.955 18.8339 131.605 18.8339H131.605V18.8338L121.894 18.0329C121.938 17.7428 121.961 17.4456 121.961 17.1431C121.961 13.9193 119.349 11.3057 116.126 11.3057C115.47 11.3057 114.84 11.4138 114.252 11.6133Z" fill="#DEEDF2"/>
<path fill-rule="evenodd" clip-rule="evenodd" d="M94.5794 24.331C94.1419 20.7543 91.1138 17.9851 87.4437 17.9851C83.473 17.9851 80.254 21.2265 80.254 25.2251C80.254 25.8811 80.3406 26.5167 80.5031 27.121C80.442 27.1218 80.3815 27.124 80.3214 27.1275L80.2537 27.1219V27.132C78.1943 27.2878 76.5711 29.02 76.5711 31.1338C76.5711 33.2477 78.1943 34.9799 80.2537 35.1357V35.1476H106.43V35.1472H106.431C108.035 35.1472 109.336 33.8371 109.336 32.2212C109.336 30.6052 108.035 29.2953 106.431 29.2953H106.43V29.2951L99.7984 28.7445C99.8287 28.5451 99.8444 28.3408 99.8444 28.1328C99.8444 25.9164 98.0603 24.1196 95.8593 24.1196C95.4116 24.1196 94.9811 24.1939 94.5794 24.331Z" fill="#EAF7FE"/>
<path fill-rule="evenodd" clip-rule="evenodd" d="M16.8847 24.1277C17.3586 20.2257 20.6391 17.2048 24.6151 17.2048C28.9166 17.2048 32.4039 20.7409 32.4039 25.103C32.4039 25.8186 32.3101 26.512 32.134 27.1712C32.2002 27.1721 32.2657 27.1745 32.3309 27.1784L32.4042 27.1722V27.1833C34.6352 27.3533 36.3937 29.2429 36.3937 31.5489C36.3937 33.8549 34.6352 35.7446 32.4042 35.9145V35.9276H4.04604V35.9272H4.04595C2.30771 35.9272 0.898438 34.4979 0.898438 32.7351C0.898438 30.9722 2.30771 29.5432 4.04595 29.5432H4.04604V29.543L11.2307 28.9424C11.1979 28.7248 11.1809 28.5019 11.1809 28.2751C11.1809 25.8572 13.1137 23.897 15.4981 23.897C15.9832 23.897 16.4495 23.9781 16.8847 24.1277Z" fill="#EAF7FE"/>
<path fill-rule="evenodd" clip-rule="evenodd" d="M58.5173 57.5557C58.5173 57.5557 33.7137 43.2818 3.47266 40.84C7.41692 66.7586 9.29481 85.4489 9.29481 85.4489L9.81967 127.799L58.5173 125.983L108.11 128.107L106.959 83.2608L110.167 36.3179C110.167 36.3179 76.1719 42.9061 58.5173 57.5557Z" fill="#EAF7FE"/>
<path fill-rule="evenodd" clip-rule="evenodd" d="M73.8284 80.7855C73.7575 80.7855 73.6936 80.7355 73.6789 80.6628C73.662 80.5801 73.7154 80.4993 73.7984 80.4825L103.991 74.348C104.073 74.3333 104.155 74.3845 104.171 74.4675C104.188 74.5502 104.135 74.631 104.052 74.6478L73.8593 80.7823C73.849 80.7842 73.8387 80.7855 73.8284 80.7855Z" fill="#767676"/>
<path fill-rule="evenodd" clip-rule="evenodd" d="M73.8284 81.9139C73.757 81.9139 73.693 81.8634 73.6786 81.7903C73.6624 81.7073 73.7167 81.6271 73.7994 81.6109L103.992 75.7207C104.073 75.7042 104.156 75.7585 104.172 75.8418C104.188 75.9245 104.134 76.0047 104.051 76.0209L73.8581 81.9111C73.8484 81.9133 73.8381 81.9139 73.8284 81.9139Z" fill="#767676"/>
<path fill-rule="evenodd" clip-rule="evenodd" d="M73.6764 83.257C73.604 83.257 73.5394 83.2052 73.526 83.1313C73.5107 83.0483 73.5659 82.9687 73.6492 82.9534L103.993 77.4149C104.074 77.3987 104.155 77.4545 104.17 77.5379C104.186 77.6209 104.131 77.7008 104.048 77.7157L73.7042 83.2545C73.6948 83.2561 73.6854 83.257 73.6764 83.257Z" fill="#767676"/>
<path fill-rule="evenodd" clip-rule="evenodd" d="M73.649 84.5251C73.5766 84.5251 73.5123 84.4733 73.4986 84.3993C73.4836 84.3163 73.5385 84.2364 73.6218 84.2215L103.992 78.6655C104.073 78.649 104.154 78.7051 104.17 78.7884C104.185 78.8714 104.13 78.9513 104.047 78.9666L73.6767 84.5223C73.6674 84.5242 73.658 84.5251 73.649 84.5251Z" fill="#767676"/>
<path fill-rule="evenodd" clip-rule="evenodd" d="M73.8283 85.9017C73.7559 85.9017 73.6913 85.8499 73.6782 85.7756C73.6632 85.6926 73.7188 85.613 73.8015 85.598L103.994 80.1843C104.076 80.1694 104.158 80.2243 104.172 80.3079C104.187 80.3909 104.132 80.4705 104.049 80.4852L73.8558 85.8992C73.8467 85.9007 73.8374 85.9017 73.8283 85.9017Z" fill="#767676"/>
<path fill-rule="evenodd" clip-rule="evenodd" d="M73.8283 87.1804C73.7553 87.1804 73.6907 87.1277 73.6779 87.0531C73.6639 86.9701 73.7201 86.8908 73.8031 86.8768L103.996 81.7608C104.079 81.7474 104.158 81.8026 104.172 81.8859C104.186 81.9692 104.131 82.0482 104.047 82.0625L73.8542 87.1785C73.8455 87.1798 73.8371 87.1804 73.8283 87.1804Z" fill="#767676"/>
<path fill-rule="evenodd" clip-rule="evenodd" d="M73.168 52.0712C73.168 52.0712 89.9108 44.569 105.536 40.8369C105.286 50.764 104.301 72.9592 104.301 72.9592L73.6601 79.4901L73.168 52.0712Z" fill="#CCCCCC"/>
<path fill-rule="evenodd" clip-rule="evenodd" d="M106.958 83.2607L59.7722 91.0631L59.1641 126.011L108.109 128.107L106.958 83.2607Z" fill="#EAF7FE"/>
<path fill-rule="evenodd" clip-rule="evenodd" d="M88.7207 88.3064L61.1071 92.0375L60.6172 104.388L88.926 102.166L88.7207 88.3064Z" fill="#CCCCCC"/>
<path fill-rule="evenodd" clip-rule="evenodd" d="M9.29688 85.449L9.82174 127.799L59.1678 126.011L59.7759 91.0633L9.29688 85.449Z" fill="#EAF7FE"/>
<path fill-rule="evenodd" clip-rule="evenodd" d="M55.64 92.9573C55.635 92.9573 55.6304 92.9569 55.6254 92.9566L44.9316 91.949C44.8476 91.9409 44.7858 91.8663 44.7936 91.7821C44.8014 91.6981 44.8741 91.6385 44.9603 91.6442L55.6541 92.6521C55.7383 92.6599 55.7998 92.7345 55.792 92.8187C55.7845 92.898 55.7181 92.9573 55.64 92.9573Z" fill="#767676"/>
<path fill-rule="evenodd" clip-rule="evenodd" d="M55.6386 94.377C55.6339 94.377 55.6295 94.3767 55.6249 94.3764L44.9367 93.4349C44.8524 93.4278 44.79 93.3535 44.7975 93.2693C44.805 93.1853 44.8758 93.122 44.9635 93.1304L55.6517 94.0715C55.7359 94.079 55.798 94.1533 55.7906 94.2375C55.7837 94.3171 55.7169 94.377 55.6386 94.377Z" fill="#767676"/>
<path fill-rule="evenodd" clip-rule="evenodd" d="M55.6407 95.7952C55.6363 95.7952 55.6323 95.7948 55.6279 95.7945L44.9453 94.9196C44.8611 94.913 44.7983 94.8387 44.8052 94.7548C44.8121 94.6705 44.8854 94.6103 44.9703 94.615L55.6529 95.4897C55.7371 95.4965 55.7998 95.5705 55.793 95.6547C55.7864 95.7346 55.7193 95.7952 55.6407 95.7952Z" fill="#767676"/>
<path fill-rule="evenodd" clip-rule="evenodd" d="M55.6389 97.2118C55.6349 97.2118 55.6311 97.2115 55.6271 97.2115L44.9498 96.4027C44.8655 96.3964 44.8025 96.3228 44.8091 96.2385C44.8153 96.1543 44.8852 96.0953 44.9729 96.0975L55.6502 96.906C55.7344 96.9125 55.7975 96.9859 55.7912 97.0704C55.785 97.1506 55.7179 97.2118 55.6389 97.2118Z" fill="#767676"/>
<path fill-rule="evenodd" clip-rule="evenodd" d="M55.6414 98.6269C55.6376 98.6269 55.6342 98.6269 55.6304 98.6266L44.9588 97.8839C44.8745 97.878 44.8109 97.8049 44.8168 97.7207C44.8227 97.6361 44.8917 97.5712 44.98 97.5787L55.6517 98.3214C55.7359 98.3273 55.7996 98.4 55.7936 98.4846C55.788 98.5654 55.7209 98.6269 55.6414 98.6269Z" fill="#767676"/>
<path fill-rule="evenodd" clip-rule="evenodd" d="M55.6396 100.041C55.6361 100.041 55.633 100.041 55.6296 100.041L44.9635 99.3637C44.8793 99.3584 44.8153 99.2857 44.8206 99.2014C44.8259 99.1169 44.8968 99.0523 44.9829 99.0585L55.6489 99.7354C55.7332 99.7407 55.7972 99.8134 55.7918 99.8976C55.7869 99.9787 55.7195 100.041 55.6396 100.041Z" fill="#767676"/>
<path fill-rule="evenodd" clip-rule="evenodd" d="M55.6381 101.453C55.635 101.453 55.6322 101.453 55.6291 101.453L44.9686 100.842C44.8841 100.837 44.8198 100.765 44.8245 100.681C44.8291 100.596 44.9037 100.529 44.9858 100.537L55.6465 101.148C55.7308 101.153 55.7954 101.225 55.7904 101.309C55.786 101.39 55.7183 101.453 55.6381 101.453Z" fill="#767676"/>
<path fill-rule="evenodd" clip-rule="evenodd" d="M55.6406 102.864C55.6377 102.864 55.6349 102.864 55.6324 102.864L44.9773 102.319C44.8931 102.314 44.8282 102.243 44.8322 102.158C44.8369 102.074 44.9084 102.006 44.9929 102.014L55.648 102.559C55.7326 102.563 55.7975 102.635 55.7931 102.719C55.7888 102.801 55.7214 102.864 55.6406 102.864Z" fill="#767676"/>
<path fill-rule="evenodd" clip-rule="evenodd" d="M55.6388 104.274C55.6363 104.274 55.6338 104.274 55.6316 104.274L44.9821 103.794C44.8976 103.791 44.8323 103.719 44.8361 103.635C44.8401 103.55 44.9172 103.478 44.9959 103.489L55.6454 103.968C55.7299 103.972 55.7951 104.044 55.7914 104.128C55.7877 104.21 55.7199 104.274 55.6388 104.274Z" fill="#767676"/>
<path fill-rule="evenodd" clip-rule="evenodd" d="M55.641 105.682C55.6388 105.682 55.6366 105.682 55.6347 105.682L44.9909 105.268C44.9063 105.265 44.8404 105.193 44.8439 105.109C44.847 105.025 44.921 104.962 45.0027 104.962L55.6466 105.376C55.7312 105.38 55.797 105.451 55.7936 105.535C55.7905 105.617 55.7224 105.682 55.641 105.682Z" fill="#767676"/>
<path fill-rule="evenodd" clip-rule="evenodd" d="M55.6393 107.089C55.6375 107.089 55.6356 107.089 55.634 107.089L44.9955 106.74C44.9112 106.737 44.8447 106.667 44.8478 106.582C44.8504 106.498 44.9277 106.438 45.0054 106.434L55.644 106.783C55.7286 106.786 55.7947 106.857 55.792 106.941C55.7894 107.024 55.7214 107.089 55.6393 107.089Z" fill="#767676"/>
<path fill-rule="evenodd" clip-rule="evenodd" d="M55.6375 108.494C55.6363 108.494 55.6347 108.494 55.6335 108.494L45.0005 108.211C44.9159 108.208 44.8495 108.138 44.8516 108.054C44.8538 107.969 44.9169 107.904 45.0086 107.905L55.6416 108.189C55.7262 108.191 55.7926 108.261 55.7905 108.345C55.7883 108.428 55.7202 108.494 55.6375 108.494Z" fill="#767676"/>
<path fill-rule="evenodd" clip-rule="evenodd" d="M55.64 109.898C55.6391 109.898 55.6378 109.898 55.6369 109.898L45.0092 109.68C44.925 109.678 44.8579 109.608 44.8594 109.524C44.8613 109.439 44.9312 109.363 45.0158 109.374L55.6431 109.593C55.7277 109.594 55.7948 109.664 55.7929 109.749C55.791 109.832 55.723 109.898 55.64 109.898Z" fill="#767676"/>
<path fill-rule="evenodd" clip-rule="evenodd" d="M55.6383 111.301C55.6376 111.301 55.6367 111.301 55.6361 111.301L45.014 111.147C44.9295 111.146 44.8621 111.077 44.8633 110.992C44.8646 110.908 44.9326 110.842 45.0162 110.842C45.0168 110.842 45.0178 110.842 45.0184 110.842L55.6404 110.995C55.725 110.997 55.7924 111.066 55.7912 111.15C55.7899 111.234 55.7219 111.301 55.6383 111.301Z" fill="#767676"/>
<path fill-rule="evenodd" clip-rule="evenodd" d="M55.6407 112.702C55.6404 112.702 55.6398 112.702 55.6395 112.702L45.0231 112.613C44.9385 112.613 44.8705 112.544 44.8711 112.459C44.872 112.375 44.9404 112.308 45.0243 112.308C45.0246 112.308 45.0253 112.308 45.0256 112.308L55.642 112.397C55.7266 112.397 55.7946 112.466 55.7937 112.551C55.793 112.635 55.7247 112.702 55.6407 112.702Z" fill="#767676"/>
<path fill-rule="evenodd" clip-rule="evenodd" d="M55.639 114.103C55.639 114.103 55.639 114.103 55.6387 114.103L45.0276 114.078C44.943 114.078 44.8747 114.01 44.875 113.925C44.8753 113.841 44.9296 113.767 45.0282 113.772L55.6393 113.797C55.7239 113.797 55.7922 113.866 55.7919 113.95C55.7919 114.034 55.7233 114.103 55.639 114.103Z" fill="#767676"/>
<path fill-rule="evenodd" clip-rule="evenodd" d="M45.0357 115.541C44.9515 115.541 44.8831 115.473 44.8828 115.389C44.8825 115.304 44.9505 115.236 45.0351 115.235L55.6406 115.195C55.6409 115.195 55.6412 115.195 55.6412 115.195C55.7255 115.195 55.7938 115.264 55.7941 115.348C55.7944 115.432 55.7264 115.501 55.6419 115.501L45.0363 115.541C45.036 115.541 45.0357 115.541 45.0357 115.541Z" fill="#767676"/>
<path fill-rule="evenodd" clip-rule="evenodd" d="M45.0396 117.003C44.956 117.003 44.8877 116.935 44.8867 116.851C44.8861 116.767 44.9538 116.697 45.0381 116.697L55.6383 116.592C55.6389 116.592 55.6395 116.592 55.6398 116.592C55.7238 116.592 55.7918 116.66 55.7927 116.744C55.7937 116.828 55.7256 116.897 55.6414 116.898L45.0412 117.003C45.0409 117.003 45.0403 117.003 45.0396 117.003Z" fill="#767676"/>
<path fill-rule="evenodd" clip-rule="evenodd" d="M45.0436 118.462C44.9603 118.462 44.8919 118.396 44.8907 118.312C44.8891 118.227 44.9568 118.158 45.0411 118.157L55.6357 117.988C55.7327 117.994 55.7898 118.054 55.7911 118.138C55.7926 118.223 55.7249 118.292 55.6407 118.294L45.0461 118.462C45.0451 118.462 45.0442 118.462 45.0436 118.462Z" fill="#767676"/>
<path fill-rule="evenodd" clip-rule="evenodd" d="M45.0514 119.921C44.9684 119.921 44.9004 119.855 44.8985 119.772C44.8966 119.687 44.9637 119.617 45.048 119.615L55.6373 119.383C55.7328 119.383 55.7917 119.448 55.7936 119.532C55.7955 119.617 55.7284 119.687 55.6441 119.688L45.0548 119.921C45.0536 119.921 45.0524 119.921 45.0514 119.921Z" fill="#767676"/>
<path fill-rule="evenodd" clip-rule="evenodd" d="M45.0553 121.378C44.973 121.378 44.9049 121.312 44.9024 121.23C44.9003 121.145 44.9667 121.075 45.0513 121.072L55.635 120.776C55.7145 120.774 55.79 120.84 55.7923 120.924C55.7947 121.009 55.7279 121.079 55.6437 121.081L45.0597 121.378C45.0585 121.378 45.0569 121.378 45.0553 121.378Z" fill="#767676"/>
<path fill-rule="evenodd" clip-rule="evenodd" d="M45.0632 122.834C44.9812 122.834 44.9131 122.769 44.9102 122.686C44.9075 122.602 44.9737 122.531 45.0582 122.528L55.6363 122.167C55.7102 122.163 55.7917 122.231 55.7946 122.315C55.7973 122.399 55.7311 122.47 55.6469 122.473L45.0685 122.834C45.0667 122.834 45.0651 122.834 45.0632 122.834Z" fill="#767676"/>
<path fill-rule="evenodd" clip-rule="evenodd" d="M45.0668 124.288C44.9853 124.288 44.9176 124.223 44.9142 124.141C44.9108 124.057 44.9766 123.986 45.0609 123.982L55.6339 123.558C55.7116 123.553 55.7893 123.62 55.7927 123.705C55.7962 123.789 55.7303 123.86 55.6461 123.864L45.073 124.288C45.0712 124.288 45.069 124.288 45.0668 124.288Z" fill="#767676"/>
<path fill-rule="evenodd" clip-rule="evenodd" d="M42.7545 91.7431C42.7498 91.7431 42.7448 91.7428 42.7398 91.7425L30.7831 90.6157C30.6989 90.6079 30.6374 90.5333 30.6452 90.449C30.653 90.3651 30.7248 90.3039 30.8118 90.3111L42.7685 91.4376C42.8528 91.4454 42.9142 91.5203 42.9064 91.6042C42.8989 91.6835 42.8325 91.7431 42.7545 91.7431Z" fill="#767676"/>
<path fill-rule="evenodd" clip-rule="evenodd" d="M42.7593 93.2426C42.7549 93.2426 42.7502 93.2423 42.7458 93.242L30.7957 92.1898C30.7118 92.1826 30.6494 92.108 30.6569 92.0241C30.664 91.9398 30.7342 91.879 30.8226 91.8852L42.7727 92.9374C42.8566 92.9446 42.919 93.0189 42.9115 93.1031C42.9047 93.1827 42.8379 93.2426 42.7593 93.2426Z" fill="#767676"/>
<path fill-rule="evenodd" clip-rule="evenodd" d="M42.7643 94.7404C42.7603 94.7404 42.7559 94.7401 42.7518 94.7398L30.8086 93.7618C30.7243 93.7553 30.6616 93.681 30.6685 93.5971C30.6757 93.5128 30.7484 93.4526 30.8336 93.4573L42.7768 94.4349C42.8611 94.4418 42.9235 94.5157 42.9166 94.6C42.91 94.6799 42.8433 94.7404 42.7643 94.7404Z" fill="#767676"/>
<path fill-rule="evenodd" clip-rule="evenodd" d="M42.773 96.2372C42.769 96.2372 42.7652 96.2369 42.7612 96.2369L30.8251 95.3326C30.7409 95.3263 30.6775 95.253 30.6841 95.1684C30.6903 95.0845 30.7621 95.0255 30.8482 95.0274L42.7843 95.9314C42.8685 95.9379 42.9316 96.0113 42.9253 96.0958C42.9191 96.176 42.8523 96.2372 42.773 96.2372Z" fill="#767676"/>
<path fill-rule="evenodd" clip-rule="evenodd" d="M42.7775 97.7321C42.7741 97.7321 42.7703 97.7321 42.7666 97.7318L30.8374 96.9018C30.7531 96.8955 30.6898 96.8228 30.6957 96.7383C30.7013 96.654 30.7703 96.5872 30.8589 96.5963L42.7881 97.4263C42.8724 97.4326 42.9357 97.5053 42.9298 97.5898C42.9245 97.6707 42.8574 97.7321 42.7775 97.7321Z" fill="#767676"/>
<path fill-rule="evenodd" clip-rule="evenodd" d="M42.7865 99.2252C42.7831 99.2252 42.7799 99.2252 42.7765 99.2249L30.8542 98.4685C30.7699 98.4632 30.7059 98.3905 30.7112 98.3062C30.7165 98.2217 30.7858 98.1567 30.8735 98.1633L42.7959 98.9197C42.8801 98.925 42.9441 98.9977 42.9388 99.082C42.9338 99.1631 42.8664 99.2252 42.7865 99.2252Z" fill="#767676"/>
<path fill-rule="evenodd" clip-rule="evenodd" d="M42.7952 100.717C42.7924 100.717 42.7893 100.717 42.7864 100.717L30.871 100.034C30.7864 100.029 30.7221 99.9574 30.7268 99.8728C30.7318 99.7889 30.8042 99.7224 30.8881 99.729L42.8036 100.412C42.8882 100.416 42.9525 100.489 42.9478 100.573C42.9431 100.654 42.8757 100.717 42.7952 100.717Z" fill="#767676"/>
<path fill-rule="evenodd" clip-rule="evenodd" d="M42.8 102.208C42.7972 102.208 42.7944 102.208 42.7919 102.207L30.8836 101.598C30.799 101.594 30.7341 101.521 30.7385 101.437C30.7429 101.353 30.8162 101.284 30.8989 101.292L42.8075 101.902C42.8921 101.906 42.957 101.978 42.9526 102.063C42.9482 102.144 42.8808 102.208 42.8 102.208Z" fill="#767676"/>
<path fill-rule="evenodd" clip-rule="evenodd" d="M42.8087 103.696C42.8065 103.696 42.804 103.696 42.8018 103.696L30.8998 103.16C30.8155 103.156 30.7503 103.085 30.7541 103C30.7578 102.916 30.8311 102.844 30.9135 102.855L42.8156 103.391C42.8998 103.394 42.9654 103.466 42.9613 103.55C42.9579 103.632 42.8898 103.696 42.8087 103.696Z" fill="#767676"/>
<path fill-rule="evenodd" clip-rule="evenodd" d="M42.8135 105.183C42.8114 105.183 42.8092 105.183 42.8073 105.183L30.9124 104.72C30.8282 104.717 30.7623 104.645 30.7658 104.561C30.7689 104.477 30.8466 104.41 30.9243 104.414L42.8192 104.877C42.9037 104.88 42.9696 104.952 42.9661 105.036C42.963 105.119 42.895 105.183 42.8135 105.183Z" fill="#767676"/>
<path fill-rule="evenodd" clip-rule="evenodd" d="M42.8224 106.669C42.8205 106.669 42.8189 106.669 42.8171 106.669L30.9291 106.279C30.8448 106.276 30.7783 106.205 30.7813 106.121C30.784 106.036 30.861 105.976 30.939 105.973L42.8274 106.362C42.9116 106.365 42.9781 106.436 42.9751 106.52C42.9725 106.603 42.9044 106.669 42.8224 106.669Z" fill="#767676"/>
<path fill-rule="evenodd" clip-rule="evenodd" d="M42.8274 108.152C42.8259 108.152 42.8243 108.152 42.8231 108.152L30.9419 107.836C30.8574 107.833 30.7909 107.763 30.793 107.679C30.7953 107.594 30.8726 107.532 30.95 107.53L42.8312 107.847C42.9157 107.849 42.9822 107.919 42.9801 108.004C42.9778 108.087 42.9098 108.152 42.8274 108.152Z" fill="#767676"/>
<path fill-rule="evenodd" clip-rule="evenodd" d="M42.8362 109.635C42.8349 109.635 42.834 109.635 42.8327 109.635L30.9584 109.391C30.8742 109.389 30.8071 109.319 30.8086 109.235C30.8105 109.15 30.8751 109.075 30.965 109.085L42.8393 109.329C42.9235 109.331 42.9906 109.401 42.9891 109.485C42.9872 109.569 42.9192 109.635 42.8362 109.635Z" fill="#767676"/>
<path fill-rule="evenodd" clip-rule="evenodd" d="M42.841 111.116C42.8404 111.116 42.8394 111.116 42.8388 111.116L30.9711 110.944C30.8865 110.943 30.8191 110.873 30.8203 110.789C30.8216 110.705 30.8899 110.638 30.9732 110.638C30.9742 110.638 30.9748 110.638 30.9757 110.638L42.8432 110.81C42.9277 110.811 42.9951 110.881 42.9939 110.965C42.9926 111.049 42.9246 111.116 42.841 111.116Z" fill="#767676"/>
<path fill-rule="evenodd" clip-rule="evenodd" d="M42.8458 112.595C42.8455 112.595 42.8452 112.595 42.8449 112.595L30.984 112.496C30.8994 112.495 30.8314 112.426 30.832 112.342C30.833 112.257 30.9172 112.192 30.9865 112.19L42.8471 112.289C42.9316 112.29 42.9997 112.359 42.999 112.443C42.9981 112.528 42.9301 112.595 42.8458 112.595Z" fill="#767676"/>
<path fill-rule="evenodd" clip-rule="evenodd" d="M42.8546 114.073L31.0006 114.046C30.916 114.046 30.8477 113.977 30.8477 113.893C30.848 113.808 30.9166 113.74 31.0009 113.74H31.0012L42.8549 113.768C42.9394 113.768 43.0078 113.836 43.0078 113.921C43.0075 114.005 42.9391 114.073 42.8546 114.073Z" fill="#767676"/>
<path fill-rule="evenodd" clip-rule="evenodd" d="M31.0126 115.594C30.9283 115.594 30.8597 115.526 30.8594 115.442C30.8591 115.357 30.9274 115.289 31.012 115.288L42.8591 115.243C42.8594 115.243 42.8594 115.243 42.8597 115.243C42.944 115.243 43.0123 115.312 43.0126 115.396C43.0129 115.48 42.9446 115.549 42.8604 115.549L31.0132 115.594C31.0129 115.594 31.0126 115.594 31.0126 115.594Z" fill="#767676"/>
<path fill-rule="evenodd" clip-rule="evenodd" d="M31.0282 117.141C30.9443 117.141 30.8759 117.074 30.875 116.99C30.8744 116.905 30.9421 116.836 31.0267 116.835L42.8673 116.719C42.8676 116.719 42.8682 116.719 42.8685 116.719C42.9524 116.719 43.0208 116.786 43.0217 116.87C43.0223 116.954 42.9546 117.024 42.8701 117.025L31.0298 117.141C31.0292 117.141 31.0285 117.141 31.0282 117.141Z" fill="#767676"/>
<path fill-rule="evenodd" clip-rule="evenodd" d="M31.04 118.686C30.9567 118.686 30.8883 118.619 30.8867 118.535C30.8855 118.451 30.9529 118.382 31.0375 118.38L42.8712 118.191C42.9667 118.196 43.025 118.258 43.0266 118.342C43.0278 118.426 42.9604 118.496 42.8759 118.497L31.0422 118.686C31.0415 118.686 31.0406 118.686 31.04 118.686Z" fill="#767676"/>
<path fill-rule="evenodd" clip-rule="evenodd" d="M31.0556 120.229C30.9723 120.229 30.9043 120.163 30.9024 120.08C30.9005 119.995 30.9676 119.925 31.0522 119.923L42.8791 119.663C42.9736 119.672 43.0335 119.729 43.0354 119.813C43.0373 119.897 42.9702 119.968 42.8859 119.969L31.0588 120.229C31.0578 120.229 31.0566 120.229 31.0556 120.229Z" fill="#767676"/>
<path fill-rule="evenodd" clip-rule="evenodd" d="M31.0668 121.771C30.9844 121.771 30.9164 121.705 30.9141 121.622C30.9117 121.538 30.9782 121.467 31.0627 121.465L42.8827 121.133C42.9623 121.135 43.0375 121.198 43.04 121.282C43.0422 121.366 42.9757 121.437 42.8915 121.439L31.0712 121.771C31.0699 121.771 31.0683 121.771 31.0668 121.771Z" fill="#767676"/>
<path fill-rule="evenodd" clip-rule="evenodd" d="M31.0825 123.311C31.0004 123.311 30.9327 123.245 30.9298 123.163C30.9268 123.078 30.9929 123.008 31.0775 123.004L42.8909 122.602C42.9661 122.602 43.046 122.665 43.0489 122.749C43.0516 122.834 42.9858 122.905 42.9012 122.908L31.0878 123.311C31.0862 123.311 31.0844 123.311 31.0825 123.311Z" fill="#767676"/>
<path fill-rule="evenodd" clip-rule="evenodd" d="M31.0941 124.849C31.0124 124.849 30.9447 124.784 30.9415 124.702C30.9381 124.617 31.0036 124.547 31.0882 124.543L42.8948 124.069C42.9681 124.067 43.0502 124.131 43.0536 124.216C43.057 124.3 42.9912 124.371 42.9069 124.375L31.1004 124.849C31.0985 124.849 31.0963 124.849 31.0941 124.849Z" fill="#767676"/>
<path fill-rule="evenodd" clip-rule="evenodd" d="M28.3372 90.3847C28.3325 90.3847 28.3278 90.3843 28.3228 90.384L14.8652 89.1162C14.781 89.1081 14.7192 89.0335 14.7273 88.9492C14.7351 88.8653 14.8069 88.8045 14.8936 88.8113L28.3515 90.0792C28.4355 90.0873 28.4972 90.1619 28.4894 90.2461C28.482 90.3254 28.4152 90.3847 28.3372 90.3847Z" fill="#767676"/>
<path fill-rule="evenodd" clip-rule="evenodd" d="M28.3521 91.974C28.3477 91.974 28.3433 91.9737 28.3387 91.9734L14.8895 90.7889C14.8055 90.7814 14.7431 90.7071 14.7506 90.6232C14.7578 90.5389 14.8289 90.4784 14.9163 90.484L28.3655 91.6685C28.4494 91.676 28.5118 91.7503 28.5044 91.8342C28.4975 91.9138 28.4307 91.974 28.3521 91.974Z" fill="#767676"/>
<path fill-rule="evenodd" clip-rule="evenodd" d="M28.367 93.5615C28.3626 93.5615 28.3586 93.5612 28.3542 93.5609L14.9138 92.46C14.8295 92.4535 14.7671 92.3795 14.774 92.2953C14.7808 92.2113 14.8545 92.1514 14.9387 92.1555L28.3792 93.2561C28.4634 93.2629 28.5261 93.3369 28.5193 93.4208C28.5127 93.5007 28.4456 93.5615 28.367 93.5615Z" fill="#767676"/>
<path fill-rule="evenodd" clip-rule="evenodd" d="M28.3816 95.1476C28.3779 95.1476 28.3742 95.1472 28.3701 95.1472L14.9381 94.13C14.8538 94.1234 14.7908 94.0501 14.7973 93.9658C14.8036 93.8816 14.8747 93.8235 14.9615 93.8245L28.3932 94.8418C28.4774 94.8483 28.5405 94.9216 28.5342 95.0062C28.528 95.0861 28.4609 95.1476 28.3816 95.1476Z" fill="#767676"/>
<path fill-rule="evenodd" clip-rule="evenodd" d="M28.3966 96.7315C28.3931 96.7315 28.3894 96.7315 28.3856 96.7312L14.9627 95.7972C14.8784 95.791 14.8148 95.7183 14.8207 95.6337C14.8263 95.5495 14.8965 95.4846 14.9839 95.4918L28.4072 96.4257C28.4914 96.4319 28.5548 96.5047 28.5488 96.5892C28.5435 96.67 28.4761 96.7315 28.3966 96.7315Z" fill="#767676"/>
<path fill-rule="evenodd" clip-rule="evenodd" d="M28.4112 98.3136C28.4081 98.3136 28.4046 98.3136 28.4012 98.3133L14.987 97.4624C14.9027 97.4567 14.8388 97.3844 14.8441 97.2998C14.8494 97.2155 14.9189 97.1509 15.0063 97.1569L28.4209 98.0081C28.5051 98.0134 28.5691 98.0861 28.5638 98.1704C28.5585 98.2515 28.4914 98.3136 28.4112 98.3136Z" fill="#767676"/>
<path fill-rule="evenodd" clip-rule="evenodd" d="M28.4265 99.8942C28.4233 99.8942 28.4202 99.8942 28.4174 99.8939L15.0116 99.126C14.927 99.121 14.8627 99.0489 14.8674 98.9643C14.8721 98.8804 14.9439 98.8142 15.0288 98.8205L28.4349 99.5884C28.5191 99.5934 28.5837 99.6655 28.5787 99.7501C28.5744 99.8312 28.5066 99.8942 28.4265 99.8942Z" fill="#767676"/>
<path fill-rule="evenodd" clip-rule="evenodd" d="M28.4411 101.473C28.4386 101.473 28.4358 101.473 28.433 101.473L15.0356 100.787C14.9514 100.783 14.8865 100.711 14.8908 100.627C14.8952 100.543 14.9701 100.474 15.0512 100.482L28.4486 101.167C28.5332 101.171 28.5981 101.244 28.5937 101.328C28.5893 101.41 28.5219 101.473 28.4411 101.473Z" fill="#767676"/>
<path fill-rule="evenodd" clip-rule="evenodd" d="M28.46 103.05C28.4578 103.05 28.4553 103.05 28.4531 103.05L15.0642 102.447C14.9796 102.443 14.9144 102.372 14.9181 102.287C14.9219 102.203 14.9952 102.132 15.0779 102.142L28.4669 102.744C28.5511 102.748 28.6166 102.82 28.6126 102.904C28.6091 102.986 28.5411 103.05 28.46 103.05Z" fill="#767676"/>
<path fill-rule="evenodd" clip-rule="evenodd" d="M28.4747 104.625C28.4726 104.625 28.4707 104.625 28.4688 104.625L15.0886 104.105C15.0043 104.101 14.9385 104.03 14.9415 103.945C14.945 103.861 15.0224 103.794 15.1004 103.799L28.4807 104.319C28.5649 104.323 28.6308 104.394 28.6275 104.478C28.6242 104.561 28.5565 104.625 28.4747 104.625Z" fill="#767676"/>
<path fill-rule="evenodd" clip-rule="evenodd" d="M28.4894 106.198C28.4879 106.198 28.486 106.198 28.4844 106.198L15.1126 105.76C15.0284 105.757 14.9619 105.686 14.9649 105.602C14.9675 105.517 15.0493 105.459 15.1226 105.454L28.4944 105.892C28.579 105.895 28.6451 105.966 28.6424 106.05C28.6395 106.133 28.5718 106.198 28.4894 106.198Z" fill="#767676"/>
<path fill-rule="evenodd" clip-rule="evenodd" d="M28.5004 107.77C28.4989 107.77 28.4976 107.77 28.4964 107.77L15.1333 107.414C15.0488 107.411 14.9823 107.341 14.9844 107.257C14.9867 107.172 15.0665 107.111 15.1414 107.108L28.5045 107.464C28.5887 107.467 28.6555 107.537 28.6534 107.621C28.6512 107.705 28.5828 107.77 28.5004 107.77Z" fill="#767676"/>
<path fill-rule="evenodd" clip-rule="evenodd" d="M28.5154 109.34C28.5145 109.34 28.5132 109.34 28.5123 109.34L15.1576 109.066C15.0731 109.064 15.0063 108.994 15.0078 108.91C15.0094 108.825 15.0706 108.75 15.1639 108.76L28.5185 109.034C28.6031 109.036 28.6702 109.106 28.6683 109.191C28.6664 109.274 28.5984 109.34 28.5154 109.34Z" fill="#767676"/>
<path fill-rule="evenodd" clip-rule="evenodd" d="M28.5343 110.909C28.5334 110.909 28.5327 110.909 28.5321 110.909L15.1859 110.715C15.1017 110.714 15.0339 110.645 15.0352 110.56C15.0364 110.476 15.1163 110.417 15.1906 110.41L28.5365 110.603C28.6211 110.604 28.6885 110.674 28.6872 110.758C28.686 110.842 28.6179 110.909 28.5343 110.909Z" fill="#767676"/>
<path fill-rule="evenodd" clip-rule="evenodd" d="M28.5493 112.475C28.5487 112.475 28.5484 112.475 28.548 112.475L15.2106 112.364C15.126 112.363 15.058 112.294 15.0586 112.209C15.0595 112.125 15.1279 112.058 15.2118 112.058C15.2121 112.058 15.2128 112.058 15.2131 112.058L28.5505 112.169C28.6351 112.17 28.7028 112.239 28.7022 112.324C28.7016 112.408 28.6332 112.475 28.5493 112.475Z" fill="#767676"/>
<path fill-rule="evenodd" clip-rule="evenodd" d="M28.564 114.04C28.5637 114.04 28.5637 114.04 28.5637 114.04L15.2346 114.009C15.1501 114.009 15.0817 113.94 15.082 113.856C15.082 113.772 15.1507 113.703 15.2349 113.703H15.2352L28.5643 113.734C28.6489 113.734 28.7169 113.803 28.7169 113.887C28.7166 113.972 28.6482 114.04 28.564 114.04Z" fill="#767676"/>
<path fill-rule="evenodd" clip-rule="evenodd" d="M15.2584 115.654C15.1741 115.654 15.1058 115.586 15.1055 115.502C15.1052 115.417 15.1735 115.348 15.2577 115.348L28.5784 115.298H28.5787C28.6632 115.298 28.7316 115.366 28.7319 115.45C28.7322 115.535 28.6639 115.603 28.5793 115.604L15.259 115.654C15.2587 115.654 15.2584 115.654 15.2584 115.654Z" fill="#767676"/>
<path fill-rule="evenodd" clip-rule="evenodd" d="M15.2821 117.296C15.1982 117.296 15.1299 117.228 15.1289 117.145C15.1283 117.06 15.196 116.991 15.2806 116.99L28.5925 116.859C28.6883 116.855 28.7463 116.926 28.7472 117.01C28.7479 117.095 28.6801 117.164 28.5956 117.165L15.2837 117.296C15.2831 117.296 15.2824 117.296 15.2821 117.296Z" fill="#767676"/>
<path fill-rule="evenodd" clip-rule="evenodd" d="M15.3053 118.936C15.222 118.936 15.1536 118.869 15.1524 118.786C15.1508 118.701 15.2185 118.632 15.3028 118.631L28.6063 118.419C28.6069 118.419 28.6078 118.419 28.6088 118.419C28.6921 118.419 28.7604 118.486 28.7617 118.569C28.7629 118.654 28.6955 118.723 28.6113 118.725L15.3078 118.936C15.3069 118.936 15.3059 118.936 15.3053 118.936Z" fill="#767676"/>
<path fill-rule="evenodd" clip-rule="evenodd" d="M15.329 120.575C15.2457 120.575 15.1777 120.509 15.1758 120.425C15.1743 120.341 15.2411 120.271 15.3256 120.269L28.6207 119.977C28.7111 119.984 28.7751 120.042 28.777 120.126C28.7789 120.211 28.7118 120.281 28.6272 120.282L15.3322 120.575C15.3312 120.575 15.33 120.575 15.329 120.575Z" fill="#767676"/>
<path fill-rule="evenodd" clip-rule="evenodd" d="M15.3519 122.211C15.2696 122.211 15.2015 122.145 15.1993 122.063C15.1969 121.978 15.2633 121.908 15.3479 121.905L28.6345 121.532C28.7166 121.538 28.7893 121.597 28.7915 121.681C28.794 121.766 28.7275 121.836 28.6429 121.839L15.3563 122.211C15.3551 122.211 15.3535 122.211 15.3519 122.211Z" fill="#767676"/>
<path fill-rule="evenodd" clip-rule="evenodd" d="M15.3718 123.846C15.2898 123.846 15.2217 123.781 15.2188 123.698C15.2161 123.614 15.2823 123.543 15.3665 123.54L28.6447 123.088C28.7224 123.084 28.7998 123.151 28.803 123.235C28.8057 123.32 28.7396 123.39 28.655 123.393L15.3771 123.846C15.3753 123.846 15.3734 123.846 15.3718 123.846Z" fill="#767676"/>
<path fill-rule="evenodd" clip-rule="evenodd" d="M15.3992 125.479C15.3174 125.479 15.2497 125.415 15.2462 125.332C15.2432 125.248 15.3087 125.177 15.3933 125.173L28.663 124.64C28.7354 124.636 28.8184 124.703 28.822 124.787C28.8253 124.872 28.7595 124.943 28.6752 124.946L15.4054 125.479C15.4033 125.479 15.4014 125.479 15.3992 125.479Z" fill="#767676"/>
<path fill-rule="evenodd" clip-rule="evenodd" d="M58.5088 65.7917L58.8608 74.0294L59.2112 90.5361L59.2296 91.0509L59.2215 91.5661L59.3776 98.751L59.2012 106.994L59.0034 115.238L58.7734 123.479L58.8527 115.236L58.9641 106.994L59.097 98.7516L58.9167 91.5689L58.9229 91.0537L58.9032 90.5389L58.6249 74.0351L58.359 65.7964L58.125 57.5559L58.5088 65.7917Z" fill="#767676"/>
<path fill-rule="evenodd" clip-rule="evenodd" d="M60.6156 106.281C60.5329 106.281 60.463 106.217 60.4574 106.133C60.4515 106.045 60.5176 105.969 60.6053 105.964L71.5594 105.22C71.6443 105.212 71.7226 105.28 71.7288 105.368C71.7344 105.455 71.6683 105.531 71.5806 105.537L60.6268 106.281C60.6231 106.281 60.6194 106.281 60.6156 106.281Z" fill="#767676"/>
<path fill-rule="evenodd" clip-rule="evenodd" d="M60.6158 107.464C60.5325 107.464 60.4623 107.398 60.4573 107.314C60.452 107.227 60.5188 107.151 60.6065 107.146L71.573 106.487C71.6579 106.476 71.7356 106.548 71.7412 106.636C71.7462 106.723 71.6794 106.799 71.5918 106.804L60.6255 107.463C60.6224 107.464 60.619 107.464 60.6158 107.464Z" fill="#767676"/>
<path fill-rule="evenodd" clip-rule="evenodd" d="M60.6158 108.649C60.5318 108.649 60.4613 108.583 60.4573 108.498C60.4526 108.411 60.52 108.336 60.6077 108.331L71.587 107.756C71.6769 107.746 71.7496 107.819 71.754 107.907C71.7583 107.995 71.6912 108.069 71.6032 108.074L60.6242 108.649C60.6214 108.649 60.6186 108.649 60.6158 108.649Z" fill="#767676"/>
<path fill-rule="evenodd" clip-rule="evenodd" d="M60.6157 109.837C60.5312 109.837 60.4606 109.77 60.4572 109.685C60.4531 109.597 60.5212 109.523 60.6089 109.519L71.6007 109.029C71.7002 109.018 71.7629 109.094 71.7667 109.181C71.7704 109.269 71.7027 109.343 71.6147 109.347L60.6229 109.837C60.6204 109.837 60.6179 109.837 60.6157 109.837Z" fill="#767676"/>
<path fill-rule="evenodd" clip-rule="evenodd" d="M60.6161 111.027C60.5309 111.027 60.4603 110.96 60.4571 110.874C60.4541 110.786 60.5228 110.713 60.6104 110.709L71.6151 110.304C71.7037 110.309 71.7767 110.37 71.7802 110.458C71.7829 110.545 71.7146 110.619 71.6266 110.622L60.622 111.027C60.6201 111.027 60.6179 111.027 60.6161 111.027Z" fill="#767676"/>
<path fill-rule="evenodd" clip-rule="evenodd" d="M60.616 112.22C60.5302 112.22 60.4593 112.152 60.4571 112.065C60.4547 111.978 60.5236 111.905 60.6116 111.902L71.6293 111.583C71.7142 111.586 71.7907 111.65 71.7932 111.738C71.7957 111.825 71.7264 111.898 71.6387 111.901L60.6207 112.22C60.6191 112.22 60.6176 112.22 60.616 112.22Z" fill="#767676"/>
<path fill-rule="evenodd" clip-rule="evenodd" d="M60.6159 113.416C60.5298 113.416 60.4587 113.346 60.4571 113.26C60.4552 113.172 60.5248 113.099 60.6128 113.097L71.6433 112.865C71.7385 112.87 71.804 112.933 71.8059 113.021C71.8078 113.108 71.7379 113.181 71.6502 113.183L60.6194 113.416C60.6181 113.416 60.6172 113.416 60.6159 113.416Z" fill="#767676"/>
<path fill-rule="evenodd" clip-rule="evenodd" d="M60.6159 114.614C60.5291 114.614 60.458 114.544 60.457 114.457C60.4558 114.369 60.526 114.297 60.614 114.296L71.6573 114.15C71.658 114.15 71.6589 114.15 71.6595 114.15C71.7463 114.15 71.8174 114.22 71.8187 114.307C71.8199 114.395 71.7494 114.467 71.6617 114.468L60.6181 114.614C60.6175 114.614 60.6165 114.614 60.6159 114.614Z" fill="#767676"/>
<path fill-rule="evenodd" clip-rule="evenodd" d="M60.6159 115.815C60.5285 115.815 60.4577 115.744 60.457 115.657C60.4564 115.569 60.5272 115.497 60.6149 115.497L71.6717 115.438C71.672 115.438 71.6723 115.438 71.6726 115.438C71.76 115.438 71.8311 115.508 71.8317 115.596C71.8324 115.683 71.7612 115.755 71.6735 115.756L60.6168 115.815C60.6165 115.815 60.6162 115.815 60.6159 115.815Z" fill="#767676"/>
<path fill-rule="evenodd" clip-rule="evenodd" d="M71.6857 117.046H71.6854L60.6156 117.018C60.5276 117.018 60.4567 116.946 60.457 116.858C60.4573 116.771 60.5282 116.7 60.6159 116.7H60.6162L71.686 116.728C71.774 116.729 71.8452 116.8 71.8448 116.888C71.8445 116.976 71.7734 117.046 71.6857 117.046Z" fill="#767676"/>
<path fill-rule="evenodd" clip-rule="evenodd" d="M71.6985 118.34C71.6979 118.34 71.6973 118.34 71.6969 118.34L60.6143 118.224C60.5263 118.223 60.4561 118.151 60.457 118.064C60.458 117.976 60.5288 117.906 60.6159 117.906C60.6165 117.906 60.6171 117.906 60.6174 117.906L71.7001 118.022C71.7881 118.023 71.8586 118.095 71.8577 118.183C71.8567 118.27 71.7856 118.34 71.6985 118.34Z" fill="#767676"/>
<path fill-rule="evenodd" clip-rule="evenodd" d="M71.7116 119.637C71.7107 119.637 71.7098 119.637 71.7085 119.637L60.6131 119.433C60.5251 119.431 60.4555 119.359 60.4571 119.271C60.4583 119.184 60.5295 119.115 60.6159 119.115C60.6168 119.115 60.6178 119.115 60.619 119.115L71.7148 119.319C71.8025 119.32 71.8724 119.393 71.8708 119.481C71.8692 119.568 71.7981 119.637 71.7116 119.637Z" fill="#767676"/>
<path fill-rule="evenodd" clip-rule="evenodd" d="M71.7248 120.937C71.7236 120.937 71.722 120.937 71.7204 120.937L60.6119 120.644C60.5239 120.642 60.4549 120.568 60.4571 120.481C60.4593 120.395 60.5301 120.326 60.616 120.326C60.6172 120.326 60.6188 120.326 60.6203 120.326L71.7292 120.619C71.8169 120.621 71.8861 120.694 71.884 120.782C71.8814 120.868 71.8106 120.937 71.7248 120.937Z" fill="#767676"/>
<path fill-rule="evenodd" clip-rule="evenodd" d="M71.738 122.24C71.7361 122.24 71.7343 122.24 71.7324 122.24L60.6108 121.858C60.5231 121.855 60.4541 121.781 60.4571 121.693C60.46 121.606 60.5337 121.538 60.6217 121.54L71.7436 121.921C71.8313 121.925 71.9 121.998 71.8972 122.086C71.894 122.172 71.8232 122.24 71.738 122.24Z" fill="#767676"/>
<path fill-rule="evenodd" clip-rule="evenodd" d="M71.7511 123.546C71.7489 123.546 71.7464 123.546 71.7442 123.546L60.6095 123.075C60.5218 123.071 60.4534 122.997 60.4572 122.909C60.4606 122.821 60.5339 122.758 60.6229 122.756L71.7576 123.228C71.8456 123.232 71.9136 123.306 71.9102 123.393C71.9065 123.479 71.8356 123.546 71.7511 123.546Z" fill="#767676"/>
<path fill-rule="evenodd" clip-rule="evenodd" d="M71.7639 124.855C71.7614 124.855 71.7586 124.855 71.7561 124.854L60.608 124.293C60.5203 124.289 60.4526 124.214 60.4573 124.127C60.4613 124.039 60.5228 123.963 60.6239 123.976L71.7717 124.537C71.8597 124.541 71.9271 124.616 71.9228 124.703C71.9184 124.789 71.8482 124.855 71.7639 124.855Z" fill="#767676"/>
<path fill-rule="evenodd" clip-rule="evenodd" d="M74.6276 105.626C74.5446 105.626 74.4747 105.562 74.4691 105.478C74.4632 105.39 74.5293 105.315 74.6173 105.308L85.5711 104.564C85.656 104.556 85.7343 104.625 85.7405 104.713C85.7465 104.8 85.6803 104.876 85.5923 104.882L74.6386 105.626C74.6348 105.626 74.6311 105.626 74.6276 105.626Z" fill="#767676"/>
<path fill-rule="evenodd" clip-rule="evenodd" d="M74.6279 106.809C74.5442 106.809 74.474 106.743 74.469 106.659C74.4637 106.571 74.5305 106.496 74.6182 106.491L85.5848 105.831C85.6696 105.821 85.7473 105.893 85.7529 105.98C85.7582 106.068 85.6915 106.144 85.6038 106.149L74.6372 106.808C74.6341 106.809 74.6307 106.809 74.6279 106.809Z" fill="#767676"/>
<path fill-rule="evenodd" clip-rule="evenodd" d="M74.6278 107.994C74.5436 107.994 74.4733 107.928 74.469 107.843C74.4643 107.755 74.5317 107.681 74.6194 107.676L85.5987 107.101C85.6886 107.091 85.7613 107.164 85.7657 107.252C85.7704 107.34 85.703 107.414 85.6153 107.419L74.6359 107.994C74.6331 107.994 74.6303 107.994 74.6278 107.994Z" fill="#767676"/>
<path fill-rule="evenodd" clip-rule="evenodd" d="M74.6278 109.182C74.5429 109.182 74.4727 109.115 74.4689 109.03C74.4649 108.942 74.5329 108.868 74.6206 108.864L85.6127 108.374C85.7119 108.363 85.7747 108.438 85.7784 108.526C85.7825 108.614 85.7144 108.688 85.6268 108.692L74.6346 109.181C74.6321 109.182 74.6299 109.182 74.6278 109.182Z" fill="#767676"/>
<path fill-rule="evenodd" clip-rule="evenodd" d="M74.6281 110.372C74.5426 110.372 74.4724 110.305 74.4688 110.219C74.4658 110.131 74.5345 110.057 74.6222 110.054L85.6271 109.649C85.7154 109.654 85.7884 109.715 85.792 109.802C85.795 109.89 85.7263 109.964 85.6386 109.967L74.6337 110.372C74.6318 110.372 74.63 110.372 74.6281 110.372Z" fill="#767676"/>
<path fill-rule="evenodd" clip-rule="evenodd" d="M74.628 111.565C74.5419 111.565 74.4714 111.497 74.4688 111.411C74.4664 111.323 74.5357 111.25 74.6233 111.247L85.6414 110.928C85.7259 110.931 85.8024 110.995 85.805 111.083C85.8074 111.17 85.7381 111.244 85.6504 111.246L74.6324 111.565C74.6308 111.565 74.6296 111.565 74.628 111.565Z" fill="#767676"/>
<path fill-rule="evenodd" clip-rule="evenodd" d="M74.628 112.76C74.5415 112.76 74.4707 112.691 74.4688 112.605C74.4669 112.517 74.5368 112.444 74.6245 112.442L85.6554 112.21C85.7502 112.214 85.8158 112.278 85.8177 112.365C85.8195 112.453 85.7496 112.526 85.6619 112.528L74.6311 112.76C74.6301 112.76 74.6292 112.76 74.628 112.76Z" fill="#767676"/>
<path fill-rule="evenodd" clip-rule="evenodd" d="M74.6279 113.959C74.5409 113.959 74.47 113.889 74.4688 113.802C74.4675 113.714 74.5381 113.642 74.6257 113.64L85.6691 113.495C85.6697 113.495 85.6706 113.495 85.6712 113.495C85.7583 113.495 85.8291 113.564 85.8304 113.651C85.8316 113.739 85.7611 113.811 85.6734 113.813L74.6301 113.959C74.6295 113.959 74.6285 113.959 74.6279 113.959Z" fill="#767676"/>
<path fill-rule="evenodd" clip-rule="evenodd" d="M74.6279 115.16C74.5402 115.16 74.4694 115.089 74.4688 115.002C74.4681 114.914 74.5393 114.842 74.627 114.842L85.6834 114.782C85.6837 114.782 85.684 114.782 85.6843 114.782C85.772 114.782 85.8428 114.853 85.8435 114.94C85.8441 115.028 85.7729 115.1 85.6853 115.101L74.6288 115.16C74.6285 115.16 74.6282 115.16 74.6279 115.16Z" fill="#767676"/>
<path fill-rule="evenodd" clip-rule="evenodd" d="M85.6974 116.391H85.6971L74.6276 116.363C74.5393 116.362 74.4684 116.291 74.4688 116.203C74.4691 116.115 74.5399 116.044 74.6279 116.044H74.6282L85.6977 116.073C85.7857 116.073 85.8569 116.145 85.8566 116.232C85.8562 116.32 85.7854 116.391 85.6974 116.391Z" fill="#767676"/>
<path fill-rule="evenodd" clip-rule="evenodd" d="M85.7102 117.685C85.7096 117.685 85.709 117.685 85.7087 117.685L74.6264 117.569C74.5384 117.568 74.4678 117.496 74.4688 117.408C74.4697 117.321 74.5405 117.251 74.6279 117.251C74.6285 117.251 74.6292 117.251 74.6295 117.251L85.7118 117.367C85.7998 117.368 85.8703 117.44 85.8694 117.527C85.8684 117.615 85.7976 117.685 85.7102 117.685Z" fill="#767676"/>
<path fill-rule="evenodd" clip-rule="evenodd" d="M85.7234 118.982C85.7224 118.982 85.7215 118.982 85.7206 118.982L74.6248 118.777C74.5371 118.776 74.4672 118.703 74.4688 118.615C74.4704 118.528 74.5412 118.459 74.6279 118.459C74.6289 118.459 74.6298 118.459 74.6308 118.459L85.7265 118.664C85.8142 118.665 85.8841 118.738 85.8825 118.826C85.8809 118.913 85.8101 118.982 85.7234 118.982Z" fill="#767676"/>
<path fill-rule="evenodd" clip-rule="evenodd" d="M85.7365 120.282C85.7353 120.282 85.734 120.282 85.7325 120.282L74.6236 119.989C74.5359 119.987 74.4667 119.914 74.4688 119.826C74.4713 119.739 74.5419 119.671 74.628 119.671C74.6292 119.671 74.6305 119.671 74.632 119.671L85.7409 119.964C85.8286 119.966 85.8978 120.039 85.8957 120.127C85.8932 120.213 85.8226 120.282 85.7365 120.282Z" fill="#767676"/>
<path fill-rule="evenodd" clip-rule="evenodd" d="M85.7497 121.584C85.7479 121.584 85.7463 121.584 85.7444 121.584L74.6225 121.203C74.5348 121.2 74.4658 121.126 74.4688 121.038C74.4721 120.95 74.5454 120.882 74.6334 120.885L85.7553 121.267C85.843 121.27 85.912 121.343 85.909 121.431C85.9057 121.517 85.8352 121.584 85.7497 121.584Z" fill="#767676"/>
<path fill-rule="evenodd" clip-rule="evenodd" d="M85.7628 122.891C85.7606 122.891 85.7584 122.891 85.7562 122.891L74.6212 122.42C74.5335 122.415 74.4652 122.342 74.4689 122.254C74.4726 122.166 74.5457 122.103 74.6346 122.102L85.7696 122.572C85.8573 122.576 85.9257 122.65 85.9219 122.738C85.9182 122.824 85.8477 122.891 85.7628 122.891Z" fill="#767676"/>
<path fill-rule="evenodd" clip-rule="evenodd" d="M85.7757 124.2C85.7732 124.2 85.7707 124.2 85.7679 124.199L74.6197 123.638C74.532 123.634 74.4643 123.559 74.469 123.472C74.4733 123.384 74.5348 123.308 74.6356 123.321L85.7838 123.882C85.8715 123.886 85.9392 123.961 85.9345 124.049C85.9301 124.133 85.8602 124.2 85.7757 124.2Z" fill="#767676"/>
<path fill-rule="evenodd" clip-rule="evenodd" d="M89.9258 88.3063L104.022 86.3647L105.121 123.923L90.6759 122.501L89.9258 88.3063Z" fill="#CCCCCC"/>
<path fill-rule="evenodd" clip-rule="evenodd" d="M54.2215 61.8568C54.2027 61.8568 54.184 61.853 54.1659 61.8455C51.2995 60.6423 47.9715 59.4225 44.2747 58.2205C44.1995 58.1962 44.1583 58.1153 44.1829 58.0405C44.2073 57.9653 44.2881 57.9241 44.363 57.9484C48.0676 59.1529 51.403 60.3752 54.2767 61.5816C54.3497 61.6121 54.384 61.6961 54.3531 61.7691C54.3304 61.8237 54.2773 61.8568 54.2215 61.8568Z" fill="#767676"/>
<path fill-rule="evenodd" clip-rule="evenodd" d="M26.3743 53.2102C26.3631 53.2102 26.3516 53.2086 26.3403 53.2058C17.526 51.0586 10.7084 49.7902 10.6407 49.7777C10.563 49.763 10.5115 49.6884 10.5258 49.6107C10.5405 49.533 10.6145 49.4831 10.6928 49.4959C10.7608 49.5087 17.5862 50.7787 26.408 52.9278C26.4848 52.9465 26.5319 53.0239 26.5132 53.1006C26.4973 53.1662 26.4386 53.2102 26.3743 53.2102Z" fill="#767676"/>
<path fill-rule="evenodd" clip-rule="evenodd" d="M54.2215 60.8481C54.2027 60.8481 54.184 60.8444 54.1659 60.8369C51.2976 59.6327 47.9699 58.4129 44.2747 57.2118C44.1995 57.1875 44.1583 57.1067 44.1829 57.0315C44.2073 56.9566 44.2881 56.9151 44.363 56.9397C48.0657 58.1433 51.4012 59.3656 54.2767 60.5729C54.3497 60.6035 54.384 60.6874 54.3531 60.7601C54.3304 60.815 54.2773 60.8481 54.2215 60.8481Z" fill="#767676"/>
<path fill-rule="evenodd" clip-rule="evenodd" d="M26.4293 52.2142C26.418 52.2142 26.4065 52.2127 26.3953 52.2102C17.5541 50.0546 10.7087 48.7808 10.6407 48.7683C10.563 48.754 10.5115 48.6794 10.5258 48.6017C10.5405 48.524 10.6145 48.4731 10.6928 48.4869C10.7611 48.4993 17.6143 49.7747 26.463 51.9318C26.5397 51.9506 26.5868 52.028 26.5681 52.1047C26.5522 52.1702 26.4935 52.2142 26.4293 52.2142Z" fill="#767676"/>
<path fill-rule="evenodd" clip-rule="evenodd" d="M54.8412 65.5724C54.8412 65.5724 30.5169 56.9403 11.2852 54.5032C12.9153 66.9098 13.5837 82.8513 13.5837 82.8513L56.3774 88.3065L54.8412 65.5724Z" fill="#CCCCCC"/>
<path fill-rule="evenodd" clip-rule="evenodd" d="M61.1062 59.0433C61.0541 59.0433 61.0032 59.0165 60.9745 58.9684C60.9314 58.8957 60.9555 58.8018 61.0282 58.7587L70.5674 53.107C70.6392 53.0636 70.7337 53.0879 70.7771 53.1606C70.8202 53.2333 70.7958 53.3273 70.7235 53.3703L61.1842 59.0221C61.1599 59.0365 61.1327 59.0433 61.1062 59.0433Z" fill="#767676"/>
<path fill-rule="evenodd" clip-rule="evenodd" d="M61.1061 60.3224C61.0534 60.3224 61.0016 60.2946 60.9735 60.2456C60.9314 60.1723 60.9567 60.0787 61.03 60.0365L70.5692 54.5642C70.6419 54.5224 70.7359 54.5473 70.778 54.621C70.8201 54.6943 70.7948 54.7876 70.7215 54.8297L61.1823 60.3021C61.1582 60.3158 61.132 60.3224 61.1061 60.3224Z" fill="#767676"/>
<path fill-rule="evenodd" clip-rule="evenodd" d="M61.1062 61.6008C61.0525 61.6008 61.0004 61.5724 60.9723 61.5222C60.9314 61.4482 60.958 61.3553 61.0316 61.3141L70.5712 56.0215C70.6451 55.9806 70.7378 56.0068 70.7793 56.0811C70.8202 56.155 70.7937 56.248 70.7197 56.2889L61.1805 61.5818C61.1567 61.5946 61.1315 61.6008 61.1062 61.6008Z" fill="#767676"/>
<path fill-rule="evenodd" clip-rule="evenodd" d="M61.1061 62.8801C61.0515 62.8801 60.9988 62.8507 60.9713 62.7993C60.9314 62.725 60.9595 62.632 61.0337 62.5924L70.5733 57.4789C70.6475 57.4389 70.7405 57.467 70.7802 57.5416C70.8201 57.6159 70.792 57.7085 70.7174 57.7485L61.1782 62.862C61.1554 62.8741 61.1305 62.8801 61.1061 62.8801Z" fill="#767676"/>
<path fill-rule="evenodd" clip-rule="evenodd" d="M61.1062 64.1592C61.051 64.1592 60.9973 64.1289 60.9702 64.0762C60.9315 64.0013 60.9608 63.9089 61.0357 63.8702L70.575 58.9362C70.6502 58.8978 70.7428 58.9265 70.7815 59.002C70.8202 59.0769 70.7909 59.1693 70.716 59.208L61.1765 64.142C61.154 64.1536 61.13 64.1592 61.1062 64.1592Z" fill="#767676"/>
<path fill-rule="evenodd" clip-rule="evenodd" d="M61.1062 65.4378C61.0501 65.4378 60.9961 65.4069 60.9692 65.3533C60.9315 65.2778 60.9624 65.1857 61.0379 65.1479L70.5771 60.3936C70.6517 60.3559 70.7441 60.3864 70.7822 60.4623C70.8202 60.5378 70.7893 60.6295 70.7138 60.6673L61.1743 65.4216C61.1524 65.4328 61.1293 65.4378 61.1062 65.4378Z" fill="#767676"/>
<path fill-rule="evenodd" clip-rule="evenodd" d="M61.1062 66.717C61.0491 66.717 60.9945 66.6848 60.968 66.6299C60.9318 66.5538 60.9639 66.4626 61.0401 66.4261L70.5793 61.8509C70.6552 61.8147 70.7466 61.8462 70.7834 61.9227C70.8199 61.9988 70.7878 62.0903 70.7116 62.1268L61.1724 66.7017C61.1509 66.712 61.1284 66.717 61.1062 66.717Z" fill="#767676"/>
<path fill-rule="evenodd" clip-rule="evenodd" d="M61.1063 67.9959C61.0482 67.9959 60.993 67.9631 60.9671 67.9069C60.9319 67.8305 60.9656 67.7394 61.0423 67.7041L70.5816 63.3083C70.6577 63.274 70.7488 63.3064 70.7844 63.3835C70.82 63.46 70.7863 63.5511 70.7095 63.5863L61.1703 67.9821C61.1493 67.9915 61.1278 67.9959 61.1063 67.9959Z" fill="#767676"/>
<path fill-rule="evenodd" clip-rule="evenodd" d="M61.1063 69.2749C61.0476 69.2749 60.9914 69.2409 60.9661 69.1838C60.9321 69.1067 60.9671 69.0162 61.0442 68.9822L70.5837 64.7658C70.6605 64.7315 70.7513 64.7668 70.7853 64.8438C70.8196 64.9212 70.7844 65.0114 70.7073 65.0457L61.168 69.2618C61.1478 69.2708 61.1268 69.2749 61.1063 69.2749Z" fill="#767676"/>
<path fill-rule="evenodd" clip-rule="evenodd" d="M61.1061 70.554C61.0465 70.554 60.99 70.5187 60.9654 70.4604C60.9323 70.3827 60.9685 70.2931 61.0462 70.26L70.5858 66.2231C70.6638 66.19 70.7533 66.2268 70.7861 66.3045C70.8192 66.3822 70.7827 66.4721 70.705 66.5052L61.1657 70.5418C61.1464 70.5502 61.1258 70.554 61.1061 70.554Z" fill="#767676"/>
<path fill-rule="evenodd" clip-rule="evenodd" d="M61.1061 71.8325C61.0456 71.8325 60.9884 71.7967 60.9644 71.7371C60.9326 71.6587 60.9703 71.5695 61.0487 71.538L70.5879 67.6805C70.6653 67.6493 70.7555 67.6864 70.787 67.765C70.8188 67.8434 70.7811 67.9326 70.7028 67.9641L61.1632 71.8216C61.1448 71.8291 61.1251 71.8325 61.1061 71.8325Z" fill="#767676"/>
<path fill-rule="evenodd" clip-rule="evenodd" d="M61.1061 73.1118C61.0446 73.1118 60.9866 73.0746 60.9635 73.0138C60.9329 72.9352 60.9722 72.8465 61.0509 72.816L70.5901 69.1382C70.6694 69.1079 70.7577 69.1469 70.788 69.2259C70.8185 69.3048 70.7792 69.3931 70.7006 69.4237L61.161 73.1015C61.1429 73.1083 61.1242 73.1118 61.1061 73.1118Z" fill="#767676"/>
<path fill-rule="evenodd" clip-rule="evenodd" d="M61.1062 74.3908C61.0434 74.3908 60.9851 74.3524 60.9626 74.2903C60.9333 74.211 60.9742 74.123 61.0534 74.094L70.5927 70.5954C70.6723 70.5667 70.7599 70.6075 70.789 70.6865C70.8183 70.7657 70.7774 70.8537 70.6982 70.8828L61.1589 74.3814C61.1414 74.3877 61.1233 74.3908 61.1062 74.3908Z" fill="#767676"/>
<path fill-rule="evenodd" clip-rule="evenodd" d="M61.1061 75.6699C61.0428 75.6699 60.9835 75.6303 60.9617 75.5672C60.9339 75.4873 60.976 75.4003 61.0559 75.3725L70.5952 72.0536C70.6754 72.0261 70.7621 72.0679 70.7899 72.1478C70.8176 72.2277 70.7755 72.3148 70.6956 72.3425L61.1564 75.6615C61.1395 75.6671 61.1227 75.6699 61.1061 75.6699Z" fill="#767676"/>
<path fill-rule="evenodd" clip-rule="evenodd" d="M61.1061 76.9485C61.0419 76.9485 60.982 76.9077 60.9607 76.8434C60.9345 76.7632 60.9782 76.6768 61.0581 76.6502L70.5977 73.5104C70.6775 73.4845 70.7643 73.5279 70.7908 73.6081C70.817 73.6883 70.7733 73.7747 70.6931 73.8012L61.1539 76.9407C61.138 76.946 61.1218 76.9485 61.1061 76.9485Z" fill="#767676"/>
<path fill-rule="evenodd" clip-rule="evenodd" d="M61.1062 78.2278C61.041 78.2278 60.9801 78.1856 60.9602 78.1201C60.9349 78.0393 60.9798 77.9538 61.0606 77.9285L70.5999 74.9684C70.6813 74.9432 70.7665 74.9884 70.7915 75.0689C70.8168 75.1497 70.7715 75.2355 70.6907 75.2605L61.1514 78.2209C61.1362 78.2256 61.1212 78.2278 61.1062 78.2278Z" fill="#767676"/>
<path fill-rule="evenodd" clip-rule="evenodd" d="M61.1062 79.5066C61.0397 79.5066 60.9785 79.4632 60.9592 79.3965C60.9358 79.3153 60.982 79.2304 61.0634 79.2067L70.6027 76.4261C70.6835 76.403 70.7687 76.4495 70.7924 76.5303C70.8158 76.6111 70.7693 76.6963 70.6882 76.7197L61.1486 79.5007C61.1346 79.5047 61.1202 79.5066 61.1062 79.5066Z" fill="#767676"/>
<path fill-rule="evenodd" clip-rule="evenodd" d="M61.1061 80.7856C61.0387 80.7856 60.9773 80.741 60.9585 80.6726C60.9364 80.5912 60.9841 80.5072 61.0659 80.4848L70.6051 77.8836C70.6878 77.8614 70.7708 77.9098 70.793 77.9909C70.8151 78.0723 70.7674 78.1566 70.6856 78.1787L61.1464 80.7803C61.133 80.7837 61.1192 80.7856 61.1061 80.7856Z" fill="#767676"/>
<path fill-rule="evenodd" clip-rule="evenodd" d="M61.1063 82.0644C61.0377 82.0644 60.9756 82.0185 60.9578 81.9492C60.9372 81.8675 60.9868 81.7838 61.0686 81.7632L70.6078 79.3415C70.6914 79.3205 70.7729 79.3702 70.7941 79.4519C70.8147 79.534 70.7651 79.6173 70.6833 79.6379L61.1441 82.0597C61.1313 82.0631 61.1188 82.0644 61.1063 82.0644Z" fill="#767676"/>
<path fill-rule="evenodd" clip-rule="evenodd" d="M61.1063 83.3436C61.0367 83.3436 60.974 83.2962 60.9571 83.2257C60.9381 83.1433 60.9889 83.0612 61.071 83.0419L70.6106 80.7995C70.6939 80.7802 70.775 80.831 70.7947 80.9131C70.8137 80.9955 70.7629 81.0779 70.6805 81.0972L61.1412 83.3396C61.1294 83.3424 61.1178 83.3436 61.1063 83.3436Z" fill="#767676"/>
<path fill-rule="evenodd" clip-rule="evenodd" d="M61.106 84.6224C61.0354 84.6224 60.9721 84.5734 60.9565 84.5016C60.939 84.4193 60.9914 84.3378 61.0738 84.32L70.6131 82.2571C70.6961 82.2387 70.7772 82.2914 70.795 82.3744C70.8128 82.4568 70.7603 82.5382 70.678 82.556L61.1384 84.619C61.1275 84.6211 61.1169 84.6224 61.106 84.6224Z" fill="#767676"/>
<path fill-rule="evenodd" clip-rule="evenodd" d="M61.1059 85.9017C61.0344 85.9017 60.9705 85.8511 60.9561 85.7781C60.9396 85.6954 60.9936 85.6149 61.0766 85.5987L70.6158 83.7148C70.6966 83.6977 70.779 83.752 70.7952 83.8353C70.8118 83.918 70.7578 83.9985 70.6751 84.015L61.1355 85.8985C61.1255 85.9007 61.1159 85.9017 61.1059 85.9017Z" fill="#767676"/>
<path fill-rule="evenodd" clip-rule="evenodd" d="M61.106 87.1803C61.0333 87.1803 60.9687 87.1282 60.9556 87.0543C60.9406 86.9713 60.9961 86.892 61.0794 86.877L70.6187 85.1726C70.7014 85.1595 70.7816 85.2129 70.7959 85.2962C70.8109 85.3795 70.7557 85.4588 70.6724 85.4738L61.1331 87.1781C61.1238 87.1794 61.115 87.1803 61.106 87.1803Z" fill="#767676"/>
<path fill-rule="evenodd" clip-rule="evenodd" d="M61.106 88.459C61.0321 88.459 60.9672 88.4054 60.955 88.3302C60.9419 88.2465 60.9987 88.1682 61.0823 88.1548L70.6216 86.6304C70.7043 86.6189 70.7832 86.6738 70.7966 86.7574C70.8097 86.8411 70.7533 86.9194 70.6696 86.9325L61.1304 88.4572C61.1219 88.4584 61.1141 88.459 61.106 88.459Z" fill="#767676"/>
<path fill-rule="evenodd" clip-rule="evenodd" d="M49.5859 126.03C50.4037 129.878 54.1861 132.334 58.0337 131.516C61.8816 130.698 64.3378 126.916 63.52 123.068C62.7021 119.221 58.9197 116.764 55.0719 117.582C51.2243 118.4 48.768 122.182 49.5859 126.03Z" fill="#DEEDF2"/>
<path fill-rule="evenodd" clip-rule="evenodd" d="M24.6246 136.967L46.0335 125.458L49.0916 132.02L26.5125 141.017L24.6246 136.967L38.6928 131.279Z" fill="#DEEDF2"/>
<path fill-rule="evenodd" clip-rule="evenodd" d="M37.571 122.643L47.4522 118.037L55.6875 135.706L45.8063 140.311L37.571 122.643Z" fill="#EC0000"/>
<path fill-rule="evenodd" clip-rule="evenodd" d="M112.453 69.8058L117.816 64.792C117.816 64.792 125.985 84.0097 127.17 86.132C128.356 88.2543 119 90.6969 119 90.6969L112.453 69.8058Z" fill="#CCCCCC"/>
<path fill-rule="evenodd" clip-rule="evenodd" d="M132.192 79.3291L130.682 84.2899L127.878 79.8683L125.785 79.3291L128.633 88.6036L131.221 90.3291L134.456 88.7115L135.535 80.084L132.192 79.3291Z" fill="#9BC3D3"/>
<path fill-rule="evenodd" clip-rule="evenodd" d="M112.453 69.9784C112.453 69.9784 119.429 69.978 126.209 68.6924L132.209 89.6412L119 90.8695L112.453 69.9784Z" fill="#CCCCCC"/>
<path fill-rule="evenodd" clip-rule="evenodd" d="M140.187 66.168C141.414 65.3307 142.24 63.9407 142.296 62.3436C142.389 59.6787 140.301 57.4396 137.636 57.3465C135.176 57.2606 133.078 59.0342 132.698 61.4044C132.637 61.6506 132.591 61.9 132.556 62.1499L132.556 62.1503L132.555 62.1558L132.555 62.1577C132.544 62.2324 132.535 62.3072 132.527 62.3818L132.064 66.0961L132.812 66.3758L132.82 66.3779L132.82 66.3779C132.837 66.4435 132.846 66.479 132.846 66.479L132.849 66.9837L132.853 67.927C132.855 68.2392 132.909 68.5469 133.013 68.8381C133.085 69.0436 133.183 69.2414 133.305 69.4261C133.448 69.6428 133.621 69.8388 133.816 70.0061C133.918 70.0938 134.026 70.1727 134.14 70.2435C134.2 70.2812 134.26 70.3159 134.323 70.3487L134.323 70.3489L133.792 76.2227C133.792 76.2227 135.492 76.8004 137.388 76.4553C138.534 76.2489 139.752 75.7029 140.709 74.4905C140.709 74.4905 139.791 69.7645 140.187 66.168Z" fill="#FFC4B8"/>
<path fill-rule="evenodd" clip-rule="evenodd" d="M137.373 76.382C138.522 76.1765 139.743 75.6317 140.701 74.4204C140.701 74.4204 139.7 69.3563 140.222 65.7207C140.222 65.7207 137.332 72.1122 137.373 76.382ZM132.813 66.3963C133.076 66.4835 133.345 66.2847 133.337 66.0088L133.286 64.2305L132.813 66.3963Z" fill="#F4A48D"/>
<path fill-rule="evenodd" clip-rule="evenodd" d="M139.188 57.7176C137.068 57.569 137.393 55.7553 137.393 55.7553C135.119 55.7505 134.121 56.5722 134.121 56.5722C132.245 57.9591 132.867 60.8945 132.867 60.8945C133.222 58.7082 136.553 59.7619 137.863 60.0284C138.382 60.5748 138.13 61.8556 138.364 62.9508C138.369 62.9706 138.903 64.4604 138.903 64.4604L138.903 64.4622L138.931 64.616C138.941 64.5914 138.952 64.5667 138.964 64.5421C139.347 63.7165 140.085 63.2461 140.613 63.4902C141.14 63.7346 141.257 64.6017 140.873 65.4273C140.74 65.7148 140.42 65.9544 140.224 66.1406C140.034 67.3658 140.022 68.5095 140.091 69.4942L140.639 69.5371L142.941 60.2322C143.131 58.9826 142.592 58.3903 141.706 58.0846C141.016 57.8465 140.117 57.7827 139.188 57.7176Z" fill="#DEEDF2"/>
<path fill-rule="evenodd" clip-rule="evenodd" d="M131.505 93.1514L130.701 109.582L132.929 130.465L135.25 130.657L137.084 111.452L141.842 92.6614L131.505 93.1514Z" fill="#34466B"/>
<path fill-rule="evenodd" clip-rule="evenodd" d="M136.688 94.1641L138.37 110.528L143.073 130.819L145.397 130.66L144.954 111.353L146.826 92.0598L136.688 94.1641Z" fill="#34466B"/>
<path fill-rule="evenodd" clip-rule="evenodd" d="M146.424 82.7029C145.936 81.4075 144.491 78.2177 143.672 77.0865C141.634 74.2734 142.026 73.9022 135.505 74.2016C134.956 74.2268 134.502 74.3162 134.111 74.4607C133.602 74.7941 132.741 75.9378 132.095 79.7756C132.123 80.6009 132.195 83.0521 132.17 86.2746C132.149 88.9356 131.193 93.6445 129.302 100.401C132.621 100.313 134.375 100.265 134.566 100.259C143.81 99.5518 148.451 99.1517 148.491 99.0585C148.828 98.412 148.86 97.7697 148.86 97.7696C149.653 93.4188 147.521 85.7946 147.521 85.7936C147.092 84.5511 146.678 83.379 146.424 82.7029Z" fill="#9BC3D3"/>
<path fill-rule="evenodd" clip-rule="evenodd" d="M142.396 75.2338L135.922 87.0533L130.844 81.0489L128.833 83.0289C131.438 87.7283 133.14 90.4854 133.939 91.3004C135.138 92.5228 135.209 92.7935 138.789 89.2559C141.176 86.8976 143.136 83.409 144.67 78.7903C144.299 77.9624 143.962 77.3112 143.659 76.8366C143.356 76.3621 142.935 75.8278 142.396 75.2338Z" fill="#DEEDF2"/>
<path fill-rule="evenodd" clip-rule="evenodd" d="M130.455 81.4313L130.576 79.4206L129.001 78.1786L128.365 78.4006L129.235 79.3784L125.251 79.2393L125.369 80.2099L129.254 82.6131L130.455 81.4313Z" fill="#FFC4B8"/>
<path fill-rule="evenodd" clip-rule="evenodd" d="M132.888 130.077L135.336 129.781L135.352 132.779L131.871 132.972L130.443 132.761L130.964 131.389L131.489 131.06L132.888 130.077Z" fill="#1BB3BC"/>
<path fill-rule="evenodd" clip-rule="evenodd" d="M142.884 129.924L141.144 131.674L141.351 132.988L145.914 132.402L145.394 130.132L142.884 129.924Z" fill="#1BB3BC"/>
</svg>
