<svg width="161" height="160" viewBox="0 0 161 160" fill="none" xmlns="http://www.w3.org/2000/svg">
<path fill-rule="evenodd" clip-rule="evenodd" d="M8.73015 74.4302C10.9199 66.5742 3.95865 66.2711 3.80536 56.1484C3.74295 52.0084 6.01071 47.7919 11.4679 45.8577C14.1499 44.9075 16.823 44.2542 19.2093 42.7427C24.6474 39.2985 24.5491 32.7449 26.0329 27.1581C29.2906 14.8878 41.8293 5.13963 54.5212 5.45674C63.6707 5.68492 71.9426 5.96537 80.2838 13.7313C85.9915 19.0454 89.7009 25.5839 94.9998 31.0622C100.611 36.8634 107.449 39.6468 115.128 41.5109C122.389 43.2736 130.289 45.3709 135.847 50.6569C141.07 55.6242 140.308 60.8197 138.069 66.919C135.599 73.6447 140.954 78.2204 146.538 80.8396C151.239 83.0445 159.109 87.5298 159.366 95.8001C160.162 121.416 143.891 121.519 137.825 123.954C82.0184 146.351 60.6018 129.076 36.9388 129.425C13.3499 129.773 -0.172028 101.246 0.647476 92.8454C1.68736 82.1786 7.20074 79.9159 8.73015 74.4302Z" fill="#DEEDF2"/>
<path fill-rule="evenodd" clip-rule="evenodd" d="M52.6517 113.251C71.2999 110.94 91.3224 114.091 101.553 116.829C107.682 118.47 109.591 122.135 115.923 122.72C128.641 123.895 158.209 122.439 159.004 125.426C160.571 131.305 150.832 135.187 128.05 139.55C128.575 139.923 125.802 147.611 107.397 150.59C100.115 151.769 87.7751 151.965 82.9586 150.838C75.5554 149.107 67.9441 148.43 60.3494 148.789C33.3375 150.064 11.975 148.48 11.4034 143.867C11.2121 142.326 12.6192 140.072 14.9712 138.654C16.4367 137.77 14.1593 137.271 13.6281 137.12C7.10365 135.275 3.35485 132.967 3.08278 130.946C2.22938 124.602 25.2786 116.644 52.6517 113.251Z" fill="#DEEDF2"/>
<path fill-rule="evenodd" clip-rule="evenodd" d="M113.963 11.1688C113.322 5.96631 108.888 1.93848 103.514 1.93848C97.7001 1.93848 92.9865 6.65314 92.9865 12.4692C92.9865 13.4234 93.1133 14.348 93.3513 15.2269C93.2619 15.228 93.1733 15.2312 93.0852 15.2364L92.986 15.2282V15.2429C89.9706 15.4696 87.5938 17.9891 87.5938 21.0637C87.5938 24.1383 89.9706 26.6578 92.986 26.8845V26.9019H131.316V26.9013H131.316C133.665 26.9013 135.57 24.9956 135.57 22.6452C135.57 20.2948 133.665 18.3894 131.316 18.3894H131.316V18.3892L121.605 17.5884C121.649 17.2982 121.672 17.0011 121.672 16.6986C121.672 13.4748 119.06 10.8612 115.837 10.8612C115.181 10.8612 114.551 10.9694 113.963 11.1688Z" fill="#DEEDF2"/>
<path fill-rule="evenodd" clip-rule="evenodd" d="M94.2885 23.8864C93.8511 20.3097 90.823 17.5405 87.1529 17.5405C83.1823 17.5405 79.9633 20.7819 79.9633 24.7804C79.9633 25.4364 80.0499 26.072 80.2124 26.6763C80.1514 26.6771 80.0908 26.6793 80.0307 26.6828L79.963 26.6772V26.6874C77.9037 26.8431 76.2805 28.5753 76.2805 30.6891C76.2805 32.8029 77.9037 34.5351 79.963 34.6909V34.7029H106.139V34.7025H106.14C107.744 34.7025 109.045 33.3923 109.045 31.7764C109.045 30.1605 107.744 28.8505 106.14 28.8505H106.139V28.8504L99.5075 28.2998C99.5378 28.1004 99.5535 27.8961 99.5535 27.6881C99.5535 25.4717 97.7694 23.6749 95.5684 23.6749C95.1207 23.6749 94.6902 23.7493 94.2885 23.8864Z" fill="#EAF7FE"/>
<path fill-rule="evenodd" clip-rule="evenodd" d="M16.5955 23.683C17.0693 19.7811 20.3498 16.7603 24.3257 16.7603C28.6272 16.7603 32.1144 20.2963 32.1144 24.6583C32.1144 25.374 32.0206 26.0674 31.8446 26.7265C31.9107 26.7274 31.9763 26.7298 32.0415 26.7337L32.1148 26.7275V26.7386C34.3457 26.9086 36.1042 28.7982 36.1042 31.1042C36.1042 33.4101 34.3457 35.2998 32.1148 35.4697V35.4828H3.75694V35.4824H3.75685C2.01863 35.4824 0.609375 34.0531 0.609375 32.2903C0.609375 30.5275 2.01863 29.0985 3.75685 29.0985H3.75694V29.0983L10.9415 28.4977C10.9087 28.2801 10.8917 28.0572 10.8917 27.8303C10.8917 25.4125 12.8245 23.4523 15.2089 23.4523C15.6939 23.4523 16.1603 23.5334 16.5955 23.683Z" fill="#EAF7FE"/>
<path fill-rule="evenodd" clip-rule="evenodd" d="M58.2295 57.1107C58.2295 57.1107 33.4262 42.8369 3.18555 40.3952C7.12976 66.3134 9.00764 85.0035 9.00764 85.0035L9.53249 127.353L58.2295 125.537L107.822 127.661L106.671 82.8155L109.878 35.873C109.878 35.873 75.884 42.4612 58.2295 57.1107Z" fill="#EAF7FE"/>
<path fill-rule="evenodd" clip-rule="evenodd" d="M73.5373 80.3403C73.4665 80.3403 73.4025 80.2904 73.3879 80.2177C73.371 80.135 73.4244 80.0542 73.5074 80.0373L103.7 73.9029C103.781 73.8882 103.864 73.9394 103.88 74.0224C103.897 74.1051 103.844 74.1859 103.761 74.2028L73.5682 80.3372C73.5579 80.3391 73.5476 80.3403 73.5373 80.3403Z" fill="#767676"/>
<path fill-rule="evenodd" clip-rule="evenodd" d="M73.5374 81.4685C73.466 81.4685 73.402 81.418 73.3876 81.345C73.3714 81.262 73.4257 81.1818 73.5084 81.1655L103.701 75.2754C103.782 75.2589 103.865 75.3132 103.88 75.3965C103.897 75.4792 103.842 75.5594 103.76 75.5756L73.5671 81.4657C73.5574 81.4679 73.5471 81.4685 73.5374 81.4685Z" fill="#767676"/>
<path fill-rule="evenodd" clip-rule="evenodd" d="M73.3912 82.8117C73.3188 82.8117 73.2542 82.7599 73.2408 82.6859C73.2255 82.6029 73.2808 82.5233 73.3641 82.508L103.707 76.9696C103.788 76.9534 103.87 77.0092 103.885 77.0925C103.9 77.1756 103.845 77.2554 103.762 77.2704L73.419 82.8092C73.4096 82.8107 73.4003 82.8117 73.3912 82.8117Z" fill="#767676"/>
<path fill-rule="evenodd" clip-rule="evenodd" d="M73.3618 84.0797C73.2895 84.0797 73.2252 84.0279 73.2114 83.954C73.1965 83.871 73.2514 83.7911 73.3347 83.7761L103.704 78.2202C103.785 78.2036 103.867 78.2598 103.882 78.3431C103.897 78.4261 103.842 78.506 103.759 78.5213L73.3896 84.0769C73.3803 84.0788 73.3709 84.0797 73.3618 84.0797Z" fill="#767676"/>
<path fill-rule="evenodd" clip-rule="evenodd" d="M73.5373 85.456C73.4649 85.456 73.4003 85.4042 73.3872 85.33C73.3722 85.247 73.4278 85.1674 73.5105 85.1524L103.703 79.7388C103.785 79.7238 103.866 79.7787 103.881 79.8624C103.896 79.9454 103.84 80.0249 103.757 80.0396L73.5648 85.4535C73.5557 85.4551 73.5463 85.456 73.5373 85.456Z" fill="#767676"/>
<path fill-rule="evenodd" clip-rule="evenodd" d="M73.5373 86.735C73.4643 86.735 73.3997 86.6823 73.3869 86.6077C73.3729 86.5247 73.429 86.4455 73.512 86.4314L103.705 81.3155C103.788 81.3021 103.867 81.3573 103.881 81.4406C103.895 81.5239 103.839 81.6029 103.756 81.6172L73.5632 86.7332C73.5545 86.7344 73.5461 86.735 73.5373 86.735Z" fill="#767676"/>
<path fill-rule="evenodd" clip-rule="evenodd" d="M72.8809 51.6262C72.8809 51.6262 89.6235 44.1241 105.248 40.3921C104.998 50.3191 104.014 72.5141 104.014 72.5141L73.373 79.0448L72.8809 51.6262Z" fill="#CCCCCC"/>
<path fill-rule="evenodd" clip-rule="evenodd" d="M106.672 82.8154L59.4871 90.6177L58.8789 125.565L107.823 127.661L106.672 82.8154Z" fill="#EAF7FE"/>
<path fill-rule="evenodd" clip-rule="evenodd" d="M88.4332 87.8608L60.82 91.5919L60.3301 103.943L88.6386 101.721L88.4332 87.8608Z" fill="#CCCCCC"/>
<path fill-rule="evenodd" clip-rule="evenodd" d="M9.00977 85.0034L9.53462 127.353L58.8801 125.565L59.4883 90.6177L9.00977 85.0034Z" fill="#EAF7FE"/>
<path fill-rule="evenodd" clip-rule="evenodd" d="M55.3528 92.5117C55.3478 92.5117 55.3431 92.5114 55.3381 92.5111L44.6444 91.5035C44.5605 91.4954 44.4987 91.4208 44.5065 91.3365C44.5143 91.2526 44.587 91.193 44.6732 91.1986L55.3669 92.2065C55.4511 92.2143 55.5126 92.2889 55.5048 92.3731C55.4973 92.4524 55.4308 92.5117 55.3528 92.5117Z" fill="#767676"/>
<path fill-rule="evenodd" clip-rule="evenodd" d="M55.3553 93.9314C55.3506 93.9314 55.3462 93.9311 55.3415 93.9308L44.6535 92.9894C44.5692 92.9822 44.5068 92.9079 44.5143 92.8237C44.5218 92.7398 44.5926 92.6764 44.6803 92.6848L55.3684 93.626C55.4526 93.6334 55.5147 93.7077 55.5072 93.792C55.5004 93.8715 55.4336 93.9314 55.3553 93.9314Z" fill="#767676"/>
<path fill-rule="evenodd" clip-rule="evenodd" d="M55.3515 95.3498C55.3471 95.3498 55.3431 95.3495 55.3387 95.3492L44.6562 94.4742C44.572 94.4677 44.5093 94.3934 44.5161 94.3095C44.523 94.2252 44.5963 94.165 44.6812 94.1697L55.3637 95.0443C55.4479 95.0512 55.5106 95.1252 55.5038 95.2094C55.4972 95.2893 55.4301 95.3498 55.3515 95.3498Z" fill="#767676"/>
<path fill-rule="evenodd" clip-rule="evenodd" d="M55.3537 96.7662C55.3496 96.7662 55.3459 96.7659 55.3418 96.7659L44.6646 95.9571C44.5804 95.9509 44.5174 95.8772 44.5239 95.793C44.5301 95.7087 44.6 95.6497 44.6877 95.6519L55.3649 96.4604C55.4491 96.467 55.5122 96.5403 55.5059 96.6249C55.4997 96.7051 55.4326 96.7662 55.3537 96.7662Z" fill="#767676"/>
<path fill-rule="evenodd" clip-rule="evenodd" d="M55.3522 98.1816C55.3484 98.1816 55.345 98.1816 55.3412 98.1812L44.6697 97.4386C44.5855 97.4326 44.5218 97.3596 44.5277 97.2754C44.5337 97.1908 44.6026 97.1259 44.6909 97.1334L55.3625 97.8761C55.4467 97.882 55.5104 97.9547 55.5044 98.0393C55.4988 98.1201 55.4317 98.1816 55.3522 98.1816Z" fill="#767676"/>
<path fill-rule="evenodd" clip-rule="evenodd" d="M55.3543 99.5955C55.3509 99.5955 55.3477 99.5955 55.3443 99.5952L44.6784 98.9184C44.5941 98.9131 44.5302 98.8404 44.5355 98.7561C44.5408 98.6716 44.6116 98.607 44.6977 98.6132L55.3637 99.29C55.4479 99.2953 55.5119 99.368 55.5066 99.4523C55.5016 99.5334 55.4342 99.5955 55.3543 99.5955Z" fill="#767676"/>
<path fill-rule="evenodd" clip-rule="evenodd" d="M55.3528 101.008C55.3497 101.008 55.3469 101.008 55.3438 101.008L44.6835 100.397C44.5989 100.392 44.5346 100.32 44.5393 100.235C44.544 100.151 44.6186 100.084 44.7006 100.091L55.3612 100.702C55.4455 100.707 55.5101 100.779 55.5051 100.864C55.5007 100.945 55.433 101.008 55.3528 101.008Z" fill="#767676"/>
<path fill-rule="evenodd" clip-rule="evenodd" d="M55.3514 102.419C55.3486 102.419 55.3457 102.419 55.3433 102.418L44.6882 101.873C44.604 101.869 44.5391 101.797 44.5431 101.712C44.5478 101.628 44.6193 101.56 44.7039 101.568L55.3589 102.113C55.4434 102.117 55.5083 102.189 55.504 102.273C55.4996 102.355 55.4322 102.419 55.3514 102.419Z" fill="#767676"/>
<path fill-rule="evenodd" clip-rule="evenodd" d="M55.3516 103.828C55.3491 103.828 55.3466 103.828 55.3444 103.828L44.695 103.348C44.6105 103.345 44.5452 103.273 44.549 103.189C44.553 103.104 44.6301 103.033 44.7087 103.043L55.3581 103.523C55.4427 103.526 55.5079 103.598 55.5042 103.682C55.5004 103.764 55.4327 103.828 55.3516 103.828Z" fill="#767676"/>
<path fill-rule="evenodd" clip-rule="evenodd" d="M55.3538 105.236C55.3516 105.236 55.3494 105.236 55.3475 105.236L44.7037 104.822C44.6192 104.819 44.5533 104.748 44.5568 104.663C44.5599 104.579 44.6338 104.516 44.7156 104.517L55.3594 104.931C55.4439 104.934 55.5098 105.005 55.5063 105.09C55.5032 105.172 55.4352 105.236 55.3538 105.236Z" fill="#767676"/>
<path fill-rule="evenodd" clip-rule="evenodd" d="M55.3521 106.643C55.3502 106.643 55.3484 106.643 55.3468 106.643L44.7083 106.295C44.6241 106.292 44.5576 106.221 44.5606 106.137C44.5632 106.052 44.6406 105.993 44.7183 105.989L55.3568 106.338C55.4414 106.34 55.5075 106.411 55.5048 106.496C55.5022 106.578 55.4342 106.643 55.3521 106.643Z" fill="#767676"/>
<path fill-rule="evenodd" clip-rule="evenodd" d="M55.3542 108.049C55.353 108.049 55.3514 108.049 55.3502 108.049L44.7173 107.765C44.6327 107.763 44.5663 107.693 44.5684 107.608C44.5706 107.524 44.6337 107.459 44.7254 107.459L55.3583 107.743C55.4428 107.745 55.5093 107.815 55.5072 107.9C55.5049 107.983 55.4369 108.049 55.3542 108.049Z" fill="#767676"/>
<path fill-rule="evenodd" clip-rule="evenodd" d="M55.3528 109.453C55.3518 109.453 55.3506 109.453 55.3496 109.453L44.7221 109.234C44.6378 109.232 44.5708 109.162 44.5723 109.078C44.5742 108.993 44.6441 108.917 44.7287 108.928L55.3559 109.147C55.4404 109.148 55.5075 109.218 55.5057 109.303C55.5038 109.386 55.4358 109.453 55.3528 109.453Z" fill="#767676"/>
<path fill-rule="evenodd" clip-rule="evenodd" d="M55.353 110.856C55.3524 110.856 55.3514 110.856 55.3508 110.856L44.7289 110.702C44.6443 110.701 44.5769 110.631 44.5781 110.547C44.5794 110.463 44.6474 110.396 44.7311 110.396C44.7317 110.396 44.7326 110.396 44.7332 110.396L55.3552 110.55C55.4397 110.551 55.5071 110.62 55.5059 110.705C55.5046 110.789 55.4366 110.856 55.353 110.856Z" fill="#767676"/>
<path fill-rule="evenodd" clip-rule="evenodd" d="M55.3516 112.257C55.3513 112.257 55.3506 112.257 55.3503 112.257L44.734 112.168C44.6494 112.167 44.5814 112.098 44.582 112.013C44.583 111.93 44.6513 111.862 44.7353 111.862C44.7356 111.862 44.7362 111.862 44.7365 111.862L55.3528 111.951C55.4374 111.951 55.5054 112.021 55.5045 112.105C55.5038 112.189 55.4355 112.257 55.3516 112.257Z" fill="#767676"/>
<path fill-rule="evenodd" clip-rule="evenodd" d="M55.3538 113.657C55.3538 113.657 55.3538 113.657 55.3534 113.657L44.7424 113.632C44.6579 113.632 44.5895 113.563 44.5898 113.479C44.5902 113.395 44.6445 113.321 44.7431 113.326L55.3541 113.351C55.4386 113.351 55.507 113.42 55.5067 113.504C55.5067 113.588 55.438 113.657 55.3538 113.657Z" fill="#767676"/>
<path fill-rule="evenodd" clip-rule="evenodd" d="M44.7467 115.095C44.6624 115.095 44.5941 115.027 44.5938 114.943C44.5934 114.859 44.6615 114.79 44.746 114.79L55.3514 114.75C55.3517 114.75 55.352 114.75 55.352 114.75C55.4363 114.75 55.5046 114.818 55.5049 114.902C55.5053 114.987 55.4372 115.055 55.3527 115.055L44.7473 115.095C44.747 115.095 44.7467 115.095 44.7467 115.095Z" fill="#767676"/>
<path fill-rule="evenodd" clip-rule="evenodd" d="M44.7545 116.557C44.6708 116.557 44.6025 116.489 44.6016 116.405C44.6009 116.321 44.6687 116.252 44.7529 116.251L55.353 116.146C55.3536 116.146 55.3542 116.146 55.3546 116.146C55.4385 116.146 55.5065 116.214 55.5075 116.298C55.5084 116.382 55.4404 116.452 55.3561 116.453L44.756 116.557C44.7557 116.557 44.7551 116.557 44.7545 116.557Z" fill="#767676"/>
<path fill-rule="evenodd" clip-rule="evenodd" d="M44.7565 118.017C44.6732 118.017 44.6048 117.95 44.6035 117.866C44.602 117.782 44.6697 117.712 44.754 117.711L55.3484 117.542C55.4455 117.548 55.5026 117.608 55.5039 117.692C55.5054 117.777 55.4377 117.847 55.3534 117.848L44.759 118.017C44.758 118.017 44.7571 118.017 44.7565 118.017Z" fill="#767676"/>
<path fill-rule="evenodd" clip-rule="evenodd" d="M44.7604 119.476C44.6774 119.476 44.6094 119.409 44.6075 119.326C44.6056 119.242 44.6727 119.172 44.757 119.17L55.3461 118.937C55.4416 118.938 55.5006 119.003 55.5025 119.086C55.5043 119.171 55.4372 119.241 55.353 119.243L44.7638 119.476C44.7626 119.476 44.7613 119.476 44.7604 119.476Z" fill="#767676"/>
<path fill-rule="evenodd" clip-rule="evenodd" d="M44.7682 120.932C44.6859 120.932 44.6178 120.866 44.6153 120.784C44.6132 120.699 44.6796 120.629 44.7642 120.626L55.3477 120.33C55.4273 120.328 55.5028 120.394 55.5051 120.478C55.5075 120.563 55.4407 120.633 55.3565 120.635L44.7726 120.932C44.7714 120.932 44.7698 120.932 44.7682 120.932Z" fill="#767676"/>
<path fill-rule="evenodd" clip-rule="evenodd" d="M44.7761 122.388C44.694 122.388 44.626 122.323 44.6231 122.24C44.6204 122.156 44.6866 122.085 44.7711 122.082L55.3491 121.721C55.423 121.717 55.5044 121.785 55.5073 121.869C55.5101 121.954 55.4439 122.024 55.3597 122.027L44.7814 122.388C44.7795 122.388 44.778 122.388 44.7761 122.388Z" fill="#767676"/>
<path fill-rule="evenodd" clip-rule="evenodd" d="M44.7797 123.842C44.6982 123.842 44.6305 123.777 44.6271 123.695C44.6236 123.611 44.6895 123.54 44.7737 123.536L55.3467 123.112C55.4244 123.107 55.5021 123.175 55.5055 123.259C55.5089 123.343 55.4431 123.414 55.3588 123.418L44.7859 123.842C44.784 123.842 44.7819 123.842 44.7797 123.842Z" fill="#767676"/>
<path fill-rule="evenodd" clip-rule="evenodd" d="M42.4692 91.2978C42.4645 91.2978 42.4595 91.2975 42.4545 91.2971L30.498 90.1704C30.4137 90.1626 30.3522 90.088 30.36 90.0037C30.3678 89.9198 30.4396 89.8586 30.5267 89.8658L42.4832 90.9923C42.5675 91.0001 42.6289 91.075 42.6211 91.1589C42.6136 91.2382 42.5472 91.2978 42.4692 91.2978Z" fill="#767676"/>
<path fill-rule="evenodd" clip-rule="evenodd" d="M42.472 92.7973C42.4676 92.7973 42.463 92.797 42.4586 92.7967L30.5086 91.7444C30.4247 91.7373 30.3623 91.6627 30.3698 91.5788C30.3769 91.4945 30.4471 91.4337 30.5354 91.4399L42.4854 92.4921C42.5694 92.4993 42.6318 92.5735 42.6243 92.6578C42.6174 92.7374 42.5506 92.7973 42.472 92.7973Z" fill="#767676"/>
<path fill-rule="evenodd" clip-rule="evenodd" d="M42.4771 94.2951C42.473 94.2951 42.4687 94.2948 42.4646 94.2945L30.5215 93.3165C30.4372 93.31 30.3745 93.2357 30.3814 93.1518C30.3886 93.0675 30.4613 93.0073 30.5464 93.012L42.4896 93.9896C42.5738 93.9965 42.6362 94.0704 42.6294 94.1547C42.6228 94.2346 42.556 94.2951 42.4771 94.2951Z" fill="#767676"/>
<path fill-rule="evenodd" clip-rule="evenodd" d="M42.4838 95.7914C42.4798 95.7914 42.476 95.7911 42.472 95.7911L30.536 94.8868C30.4518 94.8805 30.3884 94.8072 30.395 94.7226C30.4012 94.6387 30.473 94.5797 30.5591 94.5816L42.4951 95.4856C42.5793 95.4921 42.6424 95.5655 42.6361 95.65C42.6299 95.7302 42.5631 95.7914 42.4838 95.7914Z" fill="#767676"/>
<path fill-rule="evenodd" clip-rule="evenodd" d="M42.4922 97.2866C42.4888 97.2866 42.485 97.2866 42.4813 97.2862L30.5522 96.4562C30.468 96.45 30.4046 96.3773 30.4105 96.2927C30.4162 96.2085 30.4851 96.1417 30.5737 96.1507L42.5028 96.9808C42.5871 96.987 42.6504 97.0597 42.6445 97.1443C42.6392 97.2251 42.5721 97.2866 42.4922 97.2866Z" fill="#767676"/>
<path fill-rule="evenodd" clip-rule="evenodd" d="M42.4992 98.7796C42.4958 98.7796 42.4927 98.7796 42.4893 98.7793L30.5671 98.0229C30.4828 98.0176 30.4188 97.9449 30.4241 97.8607C30.4294 97.7761 30.4987 97.7112 30.5864 97.7177L42.5086 98.4741C42.5929 98.4794 42.6568 98.5521 42.6515 98.6364C42.6465 98.7175 42.5791 98.7796 42.4992 98.7796Z" fill="#767676"/>
<path fill-rule="evenodd" clip-rule="evenodd" d="M42.5079 100.271C42.5051 100.271 42.502 100.271 42.4992 100.271L30.5839 99.5887C30.4993 99.5837 30.435 99.5116 30.4397 99.427C30.4447 99.3431 30.5171 99.2766 30.601 99.2832L42.5164 99.9659C42.6009 99.9706 42.6652 100.043 42.6605 100.127C42.6558 100.209 42.5884 100.271 42.5079 100.271Z" fill="#767676"/>
<path fill-rule="evenodd" clip-rule="evenodd" d="M42.5147 101.762C42.5119 101.762 42.5091 101.762 42.5066 101.762L30.5984 101.152C30.5139 101.148 30.449 101.076 30.4533 100.992C30.4577 100.907 30.531 100.838 30.6137 100.847L42.5222 101.456C42.6068 101.461 42.6717 101.532 42.6673 101.617C42.6629 101.699 42.5955 101.762 42.5147 101.762Z" fill="#767676"/>
<path fill-rule="evenodd" clip-rule="evenodd" d="M42.5195 103.251C42.5173 103.251 42.5148 103.251 42.5126 103.251L30.6107 102.714C30.5265 102.711 30.4613 102.639 30.465 102.555C30.4687 102.471 30.5421 102.399 30.6245 102.409L42.5264 102.945C42.6106 102.949 42.6762 103.021 42.6721 103.105C42.6687 103.187 42.6006 103.251 42.5195 103.251Z" fill="#767676"/>
<path fill-rule="evenodd" clip-rule="evenodd" d="M42.5263 104.737C42.5241 104.737 42.5219 104.737 42.5201 104.737L30.6253 104.274C30.5411 104.271 30.4752 104.2 30.4786 104.115C30.4818 104.031 30.5595 103.965 30.6372 103.968L42.5319 104.431C42.6165 104.435 42.6823 104.506 42.6789 104.59C42.6758 104.673 42.6077 104.737 42.5263 104.737Z" fill="#767676"/>
<path fill-rule="evenodd" clip-rule="evenodd" d="M42.5312 106.223C42.5293 106.223 42.5278 106.223 42.5259 106.223L30.638 105.833C30.5538 105.831 30.4873 105.76 30.4903 105.676C30.4929 105.591 30.57 105.531 30.648 105.527L42.5362 105.917C42.6205 105.92 42.6869 105.99 42.6839 106.075C42.6813 106.158 42.6133 106.223 42.5312 106.223Z" fill="#767676"/>
<path fill-rule="evenodd" clip-rule="evenodd" d="M42.5402 107.707C42.5386 107.707 42.5371 107.707 42.5358 107.707L30.6548 107.39C30.5702 107.388 30.5038 107.317 30.5059 107.233C30.5081 107.148 30.5855 107.086 30.6629 107.084L42.5439 107.401C42.6285 107.404 42.695 107.473 42.6928 107.558C42.6906 107.641 42.6226 107.707 42.5402 107.707Z" fill="#767676"/>
<path fill-rule="evenodd" clip-rule="evenodd" d="M42.5469 109.19C42.5457 109.19 42.5448 109.19 42.5435 109.19L30.6694 108.945C30.5851 108.943 30.518 108.874 30.5196 108.789C30.5215 108.705 30.586 108.63 30.6759 108.64L42.5501 108.884C42.6343 108.886 42.7014 108.955 42.6999 109.04C42.698 109.123 42.63 109.19 42.5469 109.19Z" fill="#767676"/>
<path fill-rule="evenodd" clip-rule="evenodd" d="M42.5518 110.67C42.5512 110.67 42.5502 110.67 42.5496 110.67L30.682 110.498C30.5974 110.497 30.53 110.428 30.5313 110.343C30.5325 110.259 30.6009 110.192 30.6842 110.192C30.6851 110.192 30.6857 110.192 30.6867 110.192L42.554 110.364C42.6385 110.366 42.7059 110.435 42.7047 110.519C42.7034 110.603 42.6354 110.67 42.5518 110.67Z" fill="#767676"/>
<path fill-rule="evenodd" clip-rule="evenodd" d="M42.5586 112.149C42.5583 112.149 42.5579 112.149 42.5576 112.149L30.6969 112.05C30.6123 112.049 30.5443 111.98 30.5449 111.896C30.5459 111.811 30.6301 111.746 30.6994 111.744L42.5598 111.843C42.6444 111.844 42.7124 111.913 42.7118 111.998C42.7108 112.082 42.6428 112.149 42.5586 112.149Z" fill="#767676"/>
<path fill-rule="evenodd" clip-rule="evenodd" d="M42.5673 113.628L30.7134 113.6C30.6289 113.6 30.5605 113.531 30.5605 113.447C30.5609 113.363 30.6295 113.295 30.7138 113.295H30.7141L42.5676 113.322C42.6522 113.322 42.7205 113.391 42.7205 113.475C42.7202 113.559 42.6519 113.628 42.5673 113.628Z" fill="#767676"/>
<path fill-rule="evenodd" clip-rule="evenodd" d="M30.7235 115.148C30.6393 115.148 30.5706 115.08 30.5703 114.996C30.57 114.911 30.6383 114.843 30.7229 114.842L42.5699 114.797C42.5702 114.797 42.5702 114.797 42.5705 114.797C42.6548 114.797 42.7231 114.866 42.7234 114.95C42.7237 115.034 42.6554 115.103 42.5712 115.104L30.7242 115.148C30.7238 115.148 30.7235 115.148 30.7235 115.148Z" fill="#767676"/>
<path fill-rule="evenodd" clip-rule="evenodd" d="M30.7392 116.695C30.6552 116.695 30.5869 116.628 30.5859 116.544C30.5853 116.46 30.653 116.391 30.7376 116.39L42.5781 116.273C42.5784 116.273 42.579 116.273 42.5793 116.273C42.6632 116.273 42.7316 116.34 42.7325 116.424C42.7331 116.509 42.6654 116.578 42.5809 116.579L30.7407 116.695C30.7401 116.695 30.7395 116.695 30.7392 116.695Z" fill="#767676"/>
<path fill-rule="evenodd" clip-rule="evenodd" d="M30.7529 118.24C30.6695 118.24 30.6012 118.173 30.5996 118.09C30.5984 118.005 30.6658 117.936 30.7504 117.934L42.5839 117.746C42.6794 117.751 42.7378 117.812 42.7394 117.896C42.7406 117.981 42.6732 118.05 42.5886 118.052L30.755 118.24C30.7544 118.24 30.7535 118.24 30.7529 118.24Z" fill="#767676"/>
<path fill-rule="evenodd" clip-rule="evenodd" d="M30.7685 119.784C30.6852 119.784 30.6172 119.717 30.6153 119.634C30.6134 119.55 30.6805 119.48 30.7651 119.478L42.5918 119.218C42.6864 119.226 42.7463 119.283 42.7482 119.368C42.75 119.452 42.6829 119.522 42.5987 119.524L30.7716 119.784C30.7707 119.784 30.7695 119.784 30.7685 119.784Z" fill="#767676"/>
<path fill-rule="evenodd" clip-rule="evenodd" d="M30.7777 121.325C30.6953 121.325 30.6273 121.259 30.6251 121.176C30.6226 121.092 30.6891 121.021 30.7737 121.019L42.5935 120.688C42.6731 120.69 42.7483 120.752 42.7508 120.836C42.753 120.921 42.6865 120.991 42.6023 120.994L30.7821 121.325C30.7808 121.325 30.7793 121.325 30.7777 121.325Z" fill="#767676"/>
<path fill-rule="evenodd" clip-rule="evenodd" d="M30.7934 122.865C30.7114 122.865 30.6436 122.8 30.6407 122.717C30.6377 122.632 30.7039 122.562 30.7884 122.559L42.6017 122.156C42.6769 122.157 42.7568 122.219 42.7597 122.304C42.7624 122.388 42.6966 122.459 42.612 122.462L30.7987 122.865C30.7972 122.865 30.7953 122.865 30.7934 122.865Z" fill="#767676"/>
<path fill-rule="evenodd" clip-rule="evenodd" d="M30.8051 124.403C30.7233 124.403 30.6556 124.338 30.6525 124.256C30.649 124.172 30.7146 124.101 30.7991 124.097L42.6056 123.623C42.6789 123.621 42.761 123.685 42.7644 123.77C42.7678 123.854 42.702 123.925 42.6177 123.929L30.8113 124.403C30.8094 124.403 30.8072 124.403 30.8051 124.403Z" fill="#767676"/>
<path fill-rule="evenodd" clip-rule="evenodd" d="M28.0499 89.9391C28.0452 89.9391 28.0405 89.9388 28.0355 89.9385L14.5781 88.6706C14.4938 88.6625 14.4321 88.5879 14.4402 88.5037C14.448 88.4197 14.5197 88.3589 14.6065 88.3658L28.0643 89.6336C28.1482 89.6417 28.21 89.7163 28.2022 89.8005C28.1947 89.8798 28.1279 89.9391 28.0499 89.9391Z" fill="#767676"/>
<path fill-rule="evenodd" clip-rule="evenodd" d="M28.0629 91.5284C28.0585 91.5284 28.0541 91.5281 28.0494 91.5278L14.6004 90.3433C14.5165 90.3358 14.4541 90.2616 14.4615 90.1776C14.4687 90.0934 14.5399 90.0328 14.6272 90.0384L28.0763 91.223C28.1602 91.2304 28.2226 91.3047 28.2151 91.3887C28.2083 91.4682 28.1415 91.5284 28.0629 91.5284Z" fill="#767676"/>
<path fill-rule="evenodd" clip-rule="evenodd" d="M28.0797 93.1162C28.0754 93.1162 28.0713 93.1159 28.0669 93.1156L14.6266 92.0147C14.5424 92.0082 14.48 91.9342 14.4868 91.85C14.4937 91.766 14.5674 91.7061 14.6516 91.7102L28.0919 92.8107C28.1761 92.8176 28.2389 92.8915 28.232 92.9755C28.2255 93.0554 28.1584 93.1162 28.0797 93.1162Z" fill="#767676"/>
<path fill-rule="evenodd" clip-rule="evenodd" d="M28.0963 94.702C28.0926 94.702 28.0888 94.7017 28.0848 94.7017L14.6529 93.6844C14.5687 93.6779 14.5056 93.6045 14.5122 93.5203C14.5184 93.436 14.5896 93.378 14.6763 93.3789L28.1079 94.3962C28.1921 94.4027 28.2552 94.4761 28.2489 94.5606C28.2427 94.6405 28.1756 94.702 28.0963 94.702Z" fill="#767676"/>
<path fill-rule="evenodd" clip-rule="evenodd" d="M28.1093 96.2857C28.1059 96.2857 28.1021 96.2857 28.0984 96.2854L14.6756 95.3514C14.5913 95.3452 14.5277 95.2725 14.5336 95.1879C14.5392 95.1037 14.6094 95.0388 14.6968 95.046L28.1199 95.9799C28.2042 95.9861 28.2675 96.0588 28.2616 96.1434C28.2563 96.2242 28.1889 96.2857 28.1093 96.2857Z" fill="#767676"/>
<path fill-rule="evenodd" clip-rule="evenodd" d="M28.1239 97.8681C28.1208 97.8681 28.1174 97.8681 28.1139 97.8677L14.6999 97.0168C14.6156 97.0112 14.5516 96.9388 14.5569 96.8542C14.5623 96.77 14.6318 96.7054 14.7192 96.7113L28.1336 97.5626C28.2179 97.5679 28.2818 97.6406 28.2765 97.7248C28.2712 97.806 28.2041 97.8681 28.1239 97.8681Z" fill="#767676"/>
<path fill-rule="evenodd" clip-rule="evenodd" d="M28.1411 99.4487C28.138 99.4487 28.1349 99.4487 28.1321 99.4483L14.7264 98.6804C14.6419 98.6754 14.5776 98.6033 14.5823 98.5188C14.587 98.4348 14.6587 98.3687 14.7436 98.3749L28.1496 99.1429C28.2338 99.1478 28.2984 99.2199 28.2934 99.3045C28.2891 99.3856 28.2213 99.4487 28.1411 99.4487Z" fill="#767676"/>
<path fill-rule="evenodd" clip-rule="evenodd" d="M28.1539 101.027C28.1514 101.027 28.1486 101.027 28.1457 101.027L14.7485 100.342C14.6643 100.337 14.5994 100.266 14.6037 100.181C14.6081 100.097 14.683 100.028 14.7641 100.036L28.1613 100.722C28.2459 100.726 28.3108 100.798 28.3064 100.882C28.3021 100.964 28.2347 101.027 28.1539 101.027Z" fill="#767676"/>
<path fill-rule="evenodd" clip-rule="evenodd" d="M28.1708 102.605C28.1686 102.605 28.1661 102.605 28.1639 102.604L14.7751 102.001C14.6905 101.998 14.6253 101.926 14.6291 101.842C14.6328 101.758 14.7061 101.686 14.7888 101.696L28.1776 102.299C28.2619 102.303 28.3274 102.374 28.3234 102.459C28.3199 102.541 28.2519 102.605 28.1708 102.605Z" fill="#767676"/>
<path fill-rule="evenodd" clip-rule="evenodd" d="M28.1836 104.18C28.1814 104.18 28.1795 104.18 28.1776 104.18L14.7976 103.659C14.7133 103.655 14.6475 103.584 14.6505 103.5C14.654 103.415 14.7314 103.349 14.8094 103.353L28.1895 103.874C28.2737 103.877 28.3396 103.948 28.3363 104.033C28.333 104.115 28.2653 104.18 28.1836 104.18Z" fill="#767676"/>
<path fill-rule="evenodd" clip-rule="evenodd" d="M28.2002 105.753C28.1987 105.753 28.1968 105.753 28.1952 105.753L14.8236 105.314C14.7393 105.312 14.6729 105.241 14.6759 105.157C14.6785 105.072 14.7602 105.013 14.8336 105.008L28.2052 105.447C28.2898 105.45 28.3559 105.52 28.3532 105.605C28.3503 105.688 28.2826 105.753 28.2002 105.753Z" fill="#767676"/>
<path fill-rule="evenodd" clip-rule="evenodd" d="M28.2151 107.325C28.2136 107.325 28.2123 107.325 28.2111 107.325L14.8482 106.968C14.7636 106.965 14.6971 106.896 14.6993 106.811C14.7015 106.726 14.7814 106.665 14.8563 106.662L28.2192 107.018C28.3034 107.021 28.3702 107.091 28.3681 107.175C28.3658 107.259 28.2975 107.325 28.2151 107.325Z" fill="#767676"/>
<path fill-rule="evenodd" clip-rule="evenodd" d="M28.232 108.895C28.2311 108.895 28.2299 108.895 28.2289 108.895L14.8744 108.62C14.7899 108.618 14.7231 108.549 14.7246 108.464C14.7262 108.38 14.7874 108.305 14.8807 108.314L28.2352 108.589C28.3197 108.59 28.3868 108.66 28.385 108.745C28.3831 108.828 28.315 108.895 28.232 108.895Z" fill="#767676"/>
<path fill-rule="evenodd" clip-rule="evenodd" d="M28.2451 110.463C28.2441 110.463 28.2435 110.463 28.2429 110.463L14.8968 110.27C14.8126 110.268 14.7449 110.199 14.7461 110.115C14.7474 110.03 14.8273 109.971 14.9015 109.964L28.2473 110.157C28.3318 110.158 28.3992 110.228 28.398 110.312C28.3967 110.396 28.3287 110.463 28.2451 110.463Z" fill="#767676"/>
<path fill-rule="evenodd" clip-rule="evenodd" d="M28.2581 112.03C28.2575 112.03 28.2572 112.03 28.2569 112.03L14.9196 111.918C14.835 111.917 14.767 111.848 14.7676 111.763C14.7685 111.68 14.8369 111.612 14.9208 111.612C14.9211 111.612 14.9217 111.612 14.922 111.612L28.2594 111.724C28.3439 111.724 28.4116 111.793 28.411 111.878C28.4104 111.962 28.3421 112.03 28.2581 112.03Z" fill="#767676"/>
<path fill-rule="evenodd" clip-rule="evenodd" d="M28.2767 113.594C28.2764 113.594 28.2764 113.594 28.2764 113.594L14.9475 113.564C14.8629 113.563 14.7946 113.495 14.7949 113.41C14.7949 113.326 14.8636 113.257 14.9478 113.257H14.9481L28.277 113.288C28.3616 113.289 28.4296 113.357 28.4296 113.442C28.4293 113.526 28.361 113.594 28.2767 113.594Z" fill="#767676"/>
<path fill-rule="evenodd" clip-rule="evenodd" d="M14.9732 115.208C14.889 115.208 14.8206 115.14 14.8203 115.056C14.82 114.971 14.8883 114.903 14.9726 114.902L28.2931 114.852H28.2934C28.3779 114.852 28.4463 114.92 28.4466 115.004C28.4469 115.089 28.3786 115.157 28.294 115.158L14.9738 115.208C14.9735 115.208 14.9732 115.208 14.9732 115.208Z" fill="#767676"/>
<path fill-rule="evenodd" clip-rule="evenodd" d="M14.995 116.85C14.9111 116.85 14.8427 116.783 14.8418 116.699C14.8412 116.614 14.9089 116.546 14.9935 116.545L28.3052 116.413C28.401 116.41 28.459 116.48 28.46 116.565C28.4606 116.649 28.3929 116.718 28.3083 116.719L14.9966 116.85C14.996 116.85 14.9953 116.85 14.995 116.85Z" fill="#767676"/>
<path fill-rule="evenodd" clip-rule="evenodd" d="M15.0162 118.491C14.9329 118.491 14.8646 118.424 14.8633 118.34C14.8618 118.256 14.9295 118.186 15.0137 118.185L28.317 117.973C28.3177 117.973 28.3186 117.973 28.3195 117.973C28.4029 117.973 28.4712 118.04 28.4725 118.124C28.4737 118.208 28.4063 118.277 28.322 118.279L15.0187 118.491C15.0178 118.491 15.0169 118.491 15.0162 118.491Z" fill="#767676"/>
<path fill-rule="evenodd" clip-rule="evenodd" d="M15.038 120.129C14.9547 120.129 14.8867 120.063 14.8848 119.979C14.8833 119.895 14.95 119.825 15.0346 119.823L28.3295 119.531C28.42 119.538 28.4839 119.596 28.4859 119.68C28.4877 119.765 28.4206 119.835 28.336 119.837L15.0412 120.129C15.0402 120.129 15.039 120.129 15.038 120.129Z" fill="#767676"/>
<path fill-rule="evenodd" clip-rule="evenodd" d="M15.0648 121.766C14.9825 121.766 14.9144 121.7 14.9122 121.617C14.9097 121.533 14.9762 121.462 15.0608 121.46L28.3472 121.087C28.4293 121.093 28.502 121.151 28.5043 121.236C28.5067 121.32 28.4402 121.391 28.3557 121.393L15.0692 121.766C15.068 121.766 15.0664 121.766 15.0648 121.766Z" fill="#767676"/>
<path fill-rule="evenodd" clip-rule="evenodd" d="M15.0867 123.4C15.0046 123.4 14.9366 123.335 14.9337 123.253C14.931 123.168 14.9971 123.098 15.0814 123.094L28.3594 122.642C28.4371 122.639 28.5145 122.705 28.5177 122.789C28.5204 122.874 28.4542 122.944 28.3697 122.948L15.092 123.4C15.0901 123.4 15.0882 123.4 15.0867 123.4Z" fill="#767676"/>
<path fill-rule="evenodd" clip-rule="evenodd" d="M15.1121 125.033C15.0303 125.033 14.9626 124.969 14.9591 124.886C14.9561 124.802 15.0216 124.731 15.1062 124.727L28.3758 124.195C28.4482 124.19 28.5312 124.257 28.5347 124.342C28.538 124.426 28.4722 124.497 28.3879 124.501L15.1183 125.033C15.1161 125.033 15.1143 125.033 15.1121 125.033Z" fill="#767676"/>
<path fill-rule="evenodd" clip-rule="evenodd" d="M58.2237 65.3466L58.5756 73.5842L58.9261 90.0906L58.9445 90.6055L58.9364 91.1207L59.0924 98.3054L58.9161 106.549L58.7182 114.792L58.4883 123.034L58.5675 114.79L58.6789 106.548L58.8119 98.3061L58.6315 91.1235L58.6377 90.6083L58.6181 90.0934L58.3397 73.5898L58.0739 65.3513L57.8398 57.1108L58.2237 65.3466Z" fill="#767676"/>
<path fill-rule="evenodd" clip-rule="evenodd" d="M60.3265 105.836C60.2439 105.836 60.174 105.771 60.1683 105.687C60.1624 105.6 60.2286 105.524 60.3162 105.518L71.2702 104.774C71.3551 104.766 71.4334 104.834 71.4396 104.922C71.4452 105.01 71.3791 105.086 71.2914 105.092L60.3378 105.835C60.334 105.836 60.3303 105.836 60.3265 105.836Z" fill="#767676"/>
<path fill-rule="evenodd" clip-rule="evenodd" d="M60.3268 107.018C60.2435 107.018 60.1733 106.953 60.1683 106.869C60.163 106.781 60.2297 106.705 60.3174 106.7L71.2838 106.041C71.3687 106.031 71.4464 106.103 71.452 106.19C71.457 106.278 71.3902 106.353 71.3026 106.358L60.3365 107.018C60.3333 107.018 60.3299 107.018 60.3268 107.018Z" fill="#767676"/>
<path fill-rule="evenodd" clip-rule="evenodd" d="M60.3267 108.203C60.2428 108.203 60.1723 108.138 60.1682 108.053C60.1635 107.965 60.2309 107.89 60.3186 107.886L71.2978 107.311C71.3877 107.3 71.4604 107.373 71.4648 107.461C71.4691 107.549 71.402 107.624 71.314 107.628L60.3351 108.203C60.3323 108.203 60.3295 108.203 60.3267 108.203Z" fill="#767676"/>
<path fill-rule="evenodd" clip-rule="evenodd" d="M60.3267 109.391C60.2421 109.391 60.1716 109.324 60.1681 109.239C60.1641 109.151 60.2321 109.077 60.3198 109.073L71.3115 108.584C71.411 108.572 71.4738 108.648 71.4775 108.735C71.4812 108.823 71.4135 108.898 71.3255 108.901L60.3338 109.391C60.3313 109.391 60.3288 109.391 60.3267 109.391Z" fill="#767676"/>
<path fill-rule="evenodd" clip-rule="evenodd" d="M60.327 110.582C60.2418 110.582 60.1713 110.514 60.1681 110.428C60.165 110.341 60.2337 110.267 60.3214 110.264L71.3259 109.859C71.4145 109.863 71.4875 109.924 71.491 110.012C71.4937 110.1 71.4254 110.174 71.3374 110.177L60.3329 110.582C60.3311 110.582 60.3289 110.582 60.327 110.582Z" fill="#767676"/>
<path fill-rule="evenodd" clip-rule="evenodd" d="M60.3269 111.775C60.2411 111.775 60.1703 111.706 60.168 111.62C60.1656 111.532 60.2346 111.459 60.3226 111.456L71.3402 111.138C71.425 111.14 71.5015 111.204 71.504 111.292C71.5065 111.38 71.4372 111.453 71.3495 111.456L60.3316 111.775C60.33 111.775 60.3285 111.775 60.3269 111.775Z" fill="#767676"/>
<path fill-rule="evenodd" clip-rule="evenodd" d="M60.3269 112.97C60.2407 112.97 60.1696 112.901 60.168 112.814C60.1662 112.726 60.2358 112.654 60.3238 112.652L71.3541 112.419C71.4493 112.424 71.5148 112.487 71.5168 112.575C71.5186 112.663 71.4487 112.736 71.361 112.737L60.3303 112.97C60.3291 112.97 60.3281 112.97 60.3269 112.97Z" fill="#767676"/>
<path fill-rule="evenodd" clip-rule="evenodd" d="M60.3268 114.168C60.2401 114.168 60.1689 114.099 60.168 114.011C60.1668 113.923 60.237 113.851 60.325 113.85L71.3681 113.704C71.3688 113.704 71.3697 113.704 71.3703 113.704C71.4571 113.704 71.5282 113.774 71.5295 113.861C71.5307 113.949 71.4602 114.021 71.3725 114.022L60.329 114.168C60.3284 114.168 60.3275 114.168 60.3268 114.168Z" fill="#767676"/>
<path fill-rule="evenodd" clip-rule="evenodd" d="M60.3268 115.369C60.2394 115.369 60.1686 115.298 60.168 115.211C60.1674 115.123 60.2382 115.052 60.3259 115.051L71.3825 114.992C71.3828 114.992 71.3831 114.992 71.3834 114.992C71.4708 114.992 71.5419 115.063 71.5426 115.15C71.5432 115.238 71.472 115.309 71.3843 115.31L60.3277 115.369C60.3274 115.369 60.3271 115.369 60.3268 115.369Z" fill="#767676"/>
<path fill-rule="evenodd" clip-rule="evenodd" d="M71.3965 116.6H71.3962L60.3265 116.572C60.2385 116.572 60.1677 116.5 60.168 116.412C60.1683 116.325 60.2391 116.254 60.3268 116.254H60.3271L71.3968 116.282C71.4848 116.283 71.556 116.354 71.5557 116.442C71.5553 116.529 71.4842 116.6 71.3965 116.6Z" fill="#767676"/>
<path fill-rule="evenodd" clip-rule="evenodd" d="M71.4093 117.894C71.4087 117.894 71.4081 117.894 71.4078 117.894L60.3253 117.778C60.2373 117.777 60.1671 117.705 60.168 117.618C60.1689 117.53 60.2398 117.46 60.3268 117.46C60.3274 117.46 60.3281 117.46 60.3284 117.46L71.4109 117.576C71.4989 117.577 71.5694 117.649 71.5685 117.737C71.5675 117.824 71.4964 117.894 71.4093 117.894Z" fill="#767676"/>
<path fill-rule="evenodd" clip-rule="evenodd" d="M71.4225 119.191C71.4215 119.191 71.4206 119.191 71.4193 119.191L60.324 118.987C60.236 118.986 60.1665 118.913 60.168 118.825C60.1693 118.738 60.2404 118.669 60.3268 118.669C60.3278 118.669 60.3287 118.669 60.33 118.669L71.4256 118.873C71.5133 118.875 71.5832 118.947 71.5816 119.035C71.58 119.122 71.5089 119.191 71.4225 119.191Z" fill="#767676"/>
<path fill-rule="evenodd" clip-rule="evenodd" d="M71.4356 120.491C71.4344 120.491 71.4328 120.491 71.4312 120.491L60.3228 120.199C60.2348 120.196 60.1659 120.123 60.168 120.035C60.1703 119.949 60.2411 119.88 60.3269 119.88C60.3281 119.88 60.3297 119.88 60.3313 119.88L71.44 120.173C71.5277 120.175 71.5969 120.249 71.5948 120.336C71.5923 120.422 71.5214 120.491 71.4356 120.491Z" fill="#767676"/>
<path fill-rule="evenodd" clip-rule="evenodd" d="M71.4488 121.794C71.4469 121.794 71.4451 121.794 71.4432 121.794L60.3217 121.412C60.234 121.409 60.165 121.335 60.1681 121.248C60.171 121.16 60.2446 121.092 60.3326 121.094L71.4544 121.476C71.5421 121.479 71.6108 121.553 71.608 121.641C71.6048 121.726 71.534 121.794 71.4488 121.794Z" fill="#767676"/>
<path fill-rule="evenodd" clip-rule="evenodd" d="M71.4619 123.1C71.4597 123.1 71.4572 123.1 71.455 123.1L60.3204 122.629C60.2327 122.625 60.1644 122.551 60.1681 122.463C60.1715 122.375 60.2449 122.312 60.3338 122.311L71.4684 122.782C71.5564 122.786 71.6244 122.86 71.621 122.947C71.6173 123.033 71.5464 123.1 71.4619 123.1Z" fill="#767676"/>
<path fill-rule="evenodd" clip-rule="evenodd" d="M71.4747 124.409C71.4722 124.409 71.4694 124.409 71.4669 124.409L60.3189 123.848C60.2312 123.843 60.1635 123.769 60.1682 123.681C60.1723 123.594 60.2337 123.518 60.3348 123.53L71.4825 124.091C71.5705 124.096 71.6379 124.17 71.6336 124.258C71.6292 124.343 71.559 124.409 71.4747 124.409Z" fill="#767676"/>
<path fill-rule="evenodd" clip-rule="evenodd" d="M74.3386 105.181C74.2556 105.181 74.1857 105.116 74.1801 105.032C74.1741 104.945 74.2403 104.869 74.3283 104.863L85.2819 104.119C85.3668 104.111 85.4451 104.179 85.4513 104.267C85.4573 104.354 85.3911 104.43 85.3031 104.436L74.3495 105.18C74.3458 105.181 74.342 105.181 74.3386 105.181Z" fill="#767676"/>
<path fill-rule="evenodd" clip-rule="evenodd" d="M74.3388 106.363C74.2552 106.363 74.185 106.298 74.18 106.213C74.1747 106.126 74.2415 106.05 74.3291 106.045L85.2956 105.386C85.3804 105.376 85.4581 105.447 85.4638 105.535C85.4691 105.623 85.4023 105.698 85.3146 105.703L74.3482 106.363C74.3451 106.363 74.3416 106.363 74.3388 106.363Z" fill="#767676"/>
<path fill-rule="evenodd" clip-rule="evenodd" d="M74.3387 107.548C74.2545 107.548 74.1843 107.483 74.1799 107.397C74.1752 107.31 74.2426 107.235 74.3303 107.23L85.3095 106.655C85.3994 106.645 85.4721 106.718 85.4765 106.806C85.4812 106.894 85.4138 106.968 85.3261 106.973L74.3469 107.548C74.3441 107.548 74.3412 107.548 74.3387 107.548Z" fill="#767676"/>
<path fill-rule="evenodd" clip-rule="evenodd" d="M74.3387 108.736C74.2538 108.736 74.1836 108.669 74.1799 108.584C74.1758 108.496 74.2438 108.422 74.3315 108.418L85.3235 107.928C85.4228 107.917 85.4855 107.993 85.4892 108.08C85.4933 108.168 85.4252 108.242 85.3376 108.246L74.3456 108.736C74.3431 108.736 74.3409 108.736 74.3387 108.736Z" fill="#767676"/>
<path fill-rule="evenodd" clip-rule="evenodd" d="M74.339 109.927C74.2535 109.927 74.1833 109.859 74.1798 109.773C74.1768 109.685 74.2454 109.612 74.3331 109.608L85.3379 109.204C85.4262 109.208 85.4992 109.269 85.5028 109.357C85.5058 109.445 85.4371 109.518 85.3494 109.522L74.3446 109.927C74.3428 109.927 74.3409 109.927 74.339 109.927Z" fill="#767676"/>
<path fill-rule="evenodd" clip-rule="evenodd" d="M74.339 111.119C74.2528 111.119 74.1823 111.051 74.1797 110.965C74.1773 110.877 74.2466 110.804 74.3343 110.801L85.3522 110.482C85.4367 110.485 85.5132 110.549 85.5158 110.637C85.5182 110.725 85.4489 110.798 85.3612 110.8L74.3433 111.119C74.3418 111.119 74.3405 111.119 74.339 111.119Z" fill="#767676"/>
<path fill-rule="evenodd" clip-rule="evenodd" d="M74.3389 112.315C74.2525 112.315 74.1816 112.246 74.1797 112.159C74.1779 112.072 74.2478 111.999 74.3355 111.997L85.3662 111.764C85.461 111.769 85.5266 111.832 85.5285 111.92C85.5303 112.008 85.4604 112.081 85.3727 112.082L74.342 112.315C74.3411 112.315 74.3401 112.315 74.3389 112.315Z" fill="#767676"/>
<path fill-rule="evenodd" clip-rule="evenodd" d="M74.3389 113.513C74.2518 113.513 74.181 113.443 74.1797 113.356C74.1785 113.268 74.249 113.196 74.3367 113.195L85.3799 113.049C85.3805 113.049 85.3814 113.049 85.382 113.049C85.4691 113.049 85.5399 113.118 85.5412 113.205C85.5424 113.293 85.4719 113.366 85.3842 113.367L74.341 113.513C74.3404 113.513 74.3395 113.513 74.3389 113.513Z" fill="#767676"/>
<path fill-rule="evenodd" clip-rule="evenodd" d="M74.3388 114.714C74.2512 114.714 74.1803 114.643 74.1797 114.556C74.1791 114.468 74.2502 114.396 74.3379 114.396L85.3942 114.336C85.3945 114.336 85.3948 114.336 85.3951 114.336C85.4828 114.336 85.5536 114.407 85.5543 114.495C85.5549 114.583 85.4837 114.654 85.3961 114.655L74.3398 114.714C74.3395 114.714 74.3391 114.714 74.3388 114.714Z" fill="#767676"/>
<path fill-rule="evenodd" clip-rule="evenodd" d="M85.4082 115.945H85.4079L74.3385 115.916C74.2502 115.916 74.1794 115.845 74.1797 115.757C74.18 115.669 74.2508 115.598 74.3388 115.598H74.3391L85.4085 115.627C85.4965 115.627 85.5677 115.699 85.5674 115.786C85.5671 115.874 85.4962 115.945 85.4082 115.945Z" fill="#767676"/>
<path fill-rule="evenodd" clip-rule="evenodd" d="M85.421 117.239C85.4204 117.239 85.4198 117.239 85.4195 117.239L74.3373 117.123C74.2493 117.122 74.1788 117.05 74.1797 116.963C74.1806 116.875 74.2515 116.805 74.3388 116.805C74.3395 116.805 74.3401 116.805 74.3404 116.805L85.4226 116.921C85.5106 116.922 85.5811 116.994 85.5802 117.082C85.5792 117.169 85.5084 117.239 85.421 117.239Z" fill="#767676"/>
<path fill-rule="evenodd" clip-rule="evenodd" d="M85.4342 118.536C85.4332 118.536 85.4323 118.536 85.4314 118.536L74.3358 118.332C74.2481 118.33 74.1782 118.258 74.1797 118.17C74.1813 118.083 74.2521 118.014 74.3389 118.014C74.3398 118.014 74.3408 118.014 74.3417 118.014L85.4373 118.218C85.525 118.219 85.5949 118.292 85.5933 118.38C85.5918 118.467 85.5209 118.536 85.4342 118.536Z" fill="#767676"/>
<path fill-rule="evenodd" clip-rule="evenodd" d="M85.4473 119.836C85.4461 119.836 85.4448 119.836 85.4433 119.836L74.3346 119.544C74.2469 119.541 74.1776 119.468 74.1797 119.38C74.1823 119.294 74.2528 119.226 74.3389 119.226C74.3402 119.226 74.3414 119.226 74.343 119.226L85.4517 119.518C85.5394 119.52 85.6087 119.593 85.6065 119.681C85.604 119.768 85.5335 119.836 85.4473 119.836Z" fill="#767676"/>
<path fill-rule="evenodd" clip-rule="evenodd" d="M85.4605 121.139C85.4587 121.139 85.4571 121.139 85.4552 121.139L74.3334 120.757C74.2457 120.754 74.1768 120.681 74.1798 120.593C74.183 120.505 74.2563 120.437 74.3443 120.439L85.4661 120.821C85.5538 120.824 85.6228 120.898 85.6198 120.985C85.6166 121.072 85.546 121.139 85.4605 121.139Z" fill="#767676"/>
<path fill-rule="evenodd" clip-rule="evenodd" d="M85.4736 122.445C85.4714 122.445 85.4692 122.445 85.467 122.445L74.3321 121.974C74.2444 121.97 74.1761 121.896 74.1798 121.808C74.1836 121.72 74.2566 121.657 74.3455 121.656L85.4805 122.127C85.5681 122.131 85.6365 122.205 85.6327 122.293C85.629 122.378 85.5585 122.445 85.4736 122.445Z" fill="#767676"/>
<path fill-rule="evenodd" clip-rule="evenodd" d="M85.4865 123.754C85.484 123.754 85.4815 123.754 85.4787 123.754L74.3306 123.193C74.2429 123.189 74.1752 123.114 74.1799 123.026C74.1843 122.939 74.2458 122.863 74.3465 122.875L85.4946 123.436C85.5823 123.44 85.65 123.515 85.6453 123.603C85.6409 123.688 85.571 123.754 85.4865 123.754Z" fill="#767676"/>
<path fill-rule="evenodd" clip-rule="evenodd" d="M89.6348 87.861L103.731 85.9194L104.829 123.477L90.3849 122.055L89.6348 87.861Z" fill="#CCCCCC"/>
<path fill-rule="evenodd" clip-rule="evenodd" d="M53.9362 61.4119C53.9175 61.4119 53.8987 61.4082 53.8806 61.4007C51.0142 60.1974 47.6863 58.9777 43.9895 57.7757C43.9143 57.7513 43.8731 57.6705 43.8978 57.5956C43.9221 57.5204 44.0029 57.4792 44.0778 57.5036C47.7824 58.7081 51.1178 59.9303 53.9914 61.1367C54.0644 61.1673 54.0988 61.2512 54.0679 61.3242C54.0451 61.3788 53.992 61.4119 53.9362 61.4119Z" fill="#767676"/>
<path fill-rule="evenodd" clip-rule="evenodd" d="M26.0871 52.7651C26.0758 52.7651 26.0643 52.7635 26.053 52.7607C17.2388 50.6135 10.4213 49.3451 10.3536 49.3326C10.2759 49.3179 10.2244 49.2434 10.2387 49.1657C10.2534 49.088 10.3273 49.038 10.4057 49.0508C10.4737 49.0636 17.299 50.3336 26.1208 52.4827C26.1975 52.5014 26.2446 52.5788 26.2259 52.6555C26.21 52.7211 26.1513 52.7651 26.0871 52.7651Z" fill="#767676"/>
<path fill-rule="evenodd" clip-rule="evenodd" d="M53.9362 60.4032C53.9175 60.4032 53.8987 60.3995 53.8806 60.392C51.0123 59.1878 47.6847 57.9681 43.9895 56.767C43.9143 56.7427 43.8731 56.6619 43.8978 56.5867C43.9221 56.5118 44.0029 56.4703 44.0778 56.4949C47.7805 57.6985 51.1159 58.9207 53.9914 60.128C54.0644 60.1586 54.0988 60.2425 54.0679 60.3152C54.0451 60.3702 53.992 60.4032 53.9362 60.4032Z" fill="#767676"/>
<path fill-rule="evenodd" clip-rule="evenodd" d="M26.142 51.7691C26.1307 51.7691 26.1192 51.7676 26.108 51.7651C17.2669 49.6095 10.4216 48.3357 10.3536 48.3232C10.2759 48.3089 10.2244 48.2343 10.2387 48.1566C10.2534 48.0789 10.3273 48.0281 10.4057 48.0418C10.474 48.0543 17.3271 49.3296 26.1757 51.4867C26.2524 51.5055 26.2996 51.5828 26.2808 51.6596C26.2649 51.7251 26.2063 51.7691 26.142 51.7691Z" fill="#767676"/>
<path fill-rule="evenodd" clip-rule="evenodd" d="M54.5516 65.1272C54.5516 65.1272 30.2276 56.4952 10.9961 54.0581C12.6262 66.4646 13.2946 82.4059 13.2946 82.4059L56.0878 87.861L54.5516 65.1272Z" fill="#CCCCCC"/>
<path fill-rule="evenodd" clip-rule="evenodd" d="M60.8171 58.5984C60.765 58.5984 60.7142 58.5716 60.6854 58.5236C60.6424 58.4508 60.6664 58.3569 60.7391 58.3139L70.2783 52.6621C70.35 52.6188 70.4446 52.6431 70.4879 52.7158C70.531 52.7885 70.5067 52.8824 70.4343 52.9255L60.8951 58.5772C60.8708 58.5916 60.8437 58.5984 60.8171 58.5984Z" fill="#767676"/>
<path fill-rule="evenodd" clip-rule="evenodd" d="M60.8171 59.877C60.7643 59.877 60.7125 59.8492 60.6844 59.8002C60.6423 59.7269 60.6676 59.6333 60.7409 59.5912L70.2801 54.1189C70.3528 54.0771 70.4467 54.102 70.4888 54.1757C70.5309 54.249 70.5057 54.3423 70.4323 54.3844L60.8932 59.8567C60.8692 59.8704 60.843 59.877 60.8171 59.877Z" fill="#767676"/>
<path fill-rule="evenodd" clip-rule="evenodd" d="M60.8171 61.1557C60.7635 61.1557 60.7113 61.1273 60.6833 61.0771C60.6424 61.0031 60.6689 60.9101 60.7426 60.8689L70.282 55.5764C70.356 55.5355 70.4486 55.5617 70.4901 55.636C70.531 55.7099 70.5045 55.8029 70.4305 55.8438L60.8914 61.1367C60.8677 61.1495 60.8424 61.1557 60.8171 61.1557Z" fill="#767676"/>
<path fill-rule="evenodd" clip-rule="evenodd" d="M60.817 62.4349C60.7624 62.4349 60.7097 62.4056 60.6822 62.3541C60.6423 62.2799 60.6704 62.1869 60.7447 62.1472L70.2841 57.0338C70.3584 56.9939 70.4514 57.0219 70.491 57.0965C70.5309 57.1708 70.5028 57.2635 70.4283 57.3034L60.8891 62.4168C60.8664 62.429 60.8414 62.4349 60.817 62.4349Z" fill="#767676"/>
<path fill-rule="evenodd" clip-rule="evenodd" d="M60.8172 63.7141C60.7619 63.7141 60.7083 63.6838 60.6811 63.6311C60.6424 63.5562 60.6718 63.4638 60.7467 63.4251L70.2858 58.4911C70.361 58.4527 70.4537 58.4814 70.4924 58.5569C70.5311 58.6318 70.5017 58.7242 70.4268 58.7629L60.8874 63.6969C60.8649 63.7084 60.8409 63.7141 60.8172 63.7141Z" fill="#767676"/>
<path fill-rule="evenodd" clip-rule="evenodd" d="M60.8172 64.993C60.761 64.993 60.707 64.9621 60.6802 64.9084C60.6424 64.8329 60.6733 64.7408 60.7488 64.7031L70.288 59.9488C70.3625 59.911 70.4549 59.9416 70.493 60.0174C70.531 60.093 70.5002 60.1847 70.4246 60.2224L60.8852 64.9767C60.8633 64.988 60.8403 64.993 60.8172 64.993Z" fill="#767676"/>
<path fill-rule="evenodd" clip-rule="evenodd" d="M60.8172 66.2716C60.7601 66.2716 60.7055 66.2395 60.6789 66.1845C60.6427 66.1084 60.6749 66.0173 60.751 65.9808L70.2902 61.4056C70.366 61.3694 70.4574 61.4009 70.4942 61.4774C70.5307 61.5535 70.4986 61.6449 70.4225 61.6814L60.8833 66.2563C60.8618 66.2666 60.8393 66.2716 60.8172 66.2716Z" fill="#767676"/>
<path fill-rule="evenodd" clip-rule="evenodd" d="M60.8172 67.5507C60.7592 67.5507 60.704 67.518 60.6781 67.4618C60.6428 67.3854 60.6765 67.2942 60.7533 67.259L70.2924 62.8632C70.3685 62.8289 70.4596 62.8614 70.4952 62.9384C70.5308 63.0149 70.4971 63.106 70.4203 63.1413L60.8812 67.537C60.8603 67.5464 60.8388 67.5507 60.8172 67.5507Z" fill="#767676"/>
<path fill-rule="evenodd" clip-rule="evenodd" d="M60.8172 68.8298C60.7585 68.8298 60.7024 68.7958 60.6771 68.7387C60.6431 68.6616 60.678 68.5711 60.7551 68.5371L70.2945 64.3208C70.3713 64.2864 70.4621 64.3217 70.4961 64.3988C70.5304 64.4762 70.4952 64.5663 70.4181 64.6007L60.879 68.8167C60.8587 68.8257 60.8378 68.8298 60.8172 68.8298Z" fill="#767676"/>
<path fill-rule="evenodd" clip-rule="evenodd" d="M60.817 70.1091C60.7574 70.1091 60.701 70.0738 60.6763 70.0155C60.6432 69.9378 60.6794 69.8482 60.7571 69.8152L70.2966 65.7783C70.3746 65.7452 70.4642 65.782 70.4969 65.8597C70.53 65.9374 70.4935 66.0273 70.4158 66.0604L60.8766 70.0969C60.8573 70.1054 60.8367 70.1091 60.817 70.1091Z" fill="#767676"/>
<path fill-rule="evenodd" clip-rule="evenodd" d="M60.817 71.3872C60.7565 71.3872 60.6994 71.3513 60.6754 71.2917C60.6435 71.2134 60.6813 71.1241 60.7596 71.0926L70.2987 67.2352C70.3761 67.2039 70.4663 67.2411 70.4978 67.3197C70.5297 67.398 70.4919 67.4873 70.4136 67.5188L60.8741 71.3763C60.8557 71.3838 60.8361 71.3872 60.817 71.3872Z" fill="#767676"/>
<path fill-rule="evenodd" clip-rule="evenodd" d="M60.817 72.6664C60.7556 72.6664 60.6975 72.6293 60.6744 72.5684C60.6439 72.4898 60.6832 72.4012 60.7618 72.3706L70.301 68.6929C70.3802 68.6626 70.4685 68.7016 70.4988 68.7805C70.5294 68.8595 70.4901 68.9478 70.4114 68.9784L60.872 72.6561C60.8539 72.663 60.8351 72.6664 60.817 72.6664Z" fill="#767676"/>
<path fill-rule="evenodd" clip-rule="evenodd" d="M60.8171 73.9457C60.7544 73.9457 60.696 73.9073 60.6736 73.8452C60.6442 73.7659 60.6851 73.6779 60.7644 73.6489L70.3035 70.1503C70.3831 70.1216 70.4708 70.1625 70.4998 70.2414C70.5291 70.3207 70.4882 70.4087 70.409 70.4377L60.8698 73.9363C60.8524 73.9425 60.8343 73.9457 60.8171 73.9457Z" fill="#767676"/>
<path fill-rule="evenodd" clip-rule="evenodd" d="M60.8171 75.2243C60.7537 75.2243 60.6945 75.1847 60.6726 75.1216C60.6448 75.0417 60.687 74.9547 60.7668 74.9269L70.306 71.608C70.3862 71.5806 70.4729 71.6224 70.5007 71.7023C70.5285 71.7822 70.4863 71.8692 70.4065 71.897L60.8673 75.2159C60.8505 75.2215 60.8336 75.2243 60.8171 75.2243Z" fill="#767676"/>
<path fill-rule="evenodd" clip-rule="evenodd" d="M60.8171 76.5032C60.7528 76.5032 60.6929 76.4623 60.6717 76.398C60.6455 76.3178 60.6891 76.2314 60.769 76.2049L70.3085 73.0651C70.3884 73.0392 70.4751 73.0826 70.5016 73.1628C70.5278 73.243 70.4842 73.3294 70.404 73.3559L60.8648 76.4954C60.8489 76.5007 60.8327 76.5032 60.8171 76.5032Z" fill="#767676"/>
<path fill-rule="evenodd" clip-rule="evenodd" d="M60.8171 77.7824C60.7519 77.7824 60.6911 77.7403 60.6711 77.6748C60.6458 77.5939 60.6908 77.5084 60.7716 77.4832L70.3107 74.5231C70.3922 74.4978 70.4773 74.5431 70.5023 74.6236C70.5276 74.7044 70.4823 74.7902 70.4015 74.8152L60.8624 77.7755C60.8471 77.7802 60.8321 77.7824 60.8171 77.7824Z" fill="#767676"/>
<path fill-rule="evenodd" clip-rule="evenodd" d="M60.8171 79.0615C60.7506 79.0615 60.6895 79.0181 60.6701 78.9513C60.6467 78.8702 60.6929 78.7853 60.7744 78.7616L70.3135 75.981C70.3943 75.9579 70.4795 76.0044 70.5032 76.0852C70.5266 76.1661 70.4801 76.2512 70.399 76.2746L60.8595 79.0556C60.8455 79.0596 60.8312 79.0615 60.8171 79.0615Z" fill="#767676"/>
<path fill-rule="evenodd" clip-rule="evenodd" d="M60.8171 80.3405C60.7497 80.3405 60.6882 80.2959 60.6695 80.2275C60.6473 80.1461 60.6951 80.0621 60.7768 80.0397L70.316 77.4385C70.3987 77.4163 70.4817 77.4647 70.5038 77.5458C70.526 77.6273 70.4782 77.7115 70.3965 77.7337L60.8573 80.3352C60.8439 80.3386 60.8302 80.3405 60.8171 80.3405Z" fill="#767676"/>
<path fill-rule="evenodd" clip-rule="evenodd" d="M60.8212 81.6188C60.7525 81.6188 60.6904 81.5729 60.6726 81.5036C60.652 81.4219 60.7016 81.3383 60.7834 81.3177L70.3225 78.8959C70.4062 78.875 70.4876 78.9246 70.5088 79.0064C70.5294 79.0884 70.4798 79.1717 70.3981 79.1923L60.8589 81.6141C60.8461 81.6175 60.8336 81.6188 60.8212 81.6188Z" fill="#767676"/>
<path fill-rule="evenodd" clip-rule="evenodd" d="M60.8172 82.8983C60.7476 82.8983 60.6849 82.8509 60.6681 82.7803C60.649 82.698 60.6999 82.6159 60.7819 82.5965L70.3214 80.3542C70.4047 80.3349 70.4858 80.3857 70.5055 80.4678C70.5245 80.5502 70.4737 80.6325 70.3913 80.6519L60.8522 82.8942C60.8403 82.897 60.8288 82.8983 60.8172 82.8983Z" fill="#767676"/>
<path fill-rule="evenodd" clip-rule="evenodd" d="M60.8169 84.1771C60.7464 84.1771 60.683 84.1281 60.6674 84.0563C60.6499 83.9739 60.7024 83.8925 60.7847 83.8747L70.3239 81.8118C70.4069 81.7934 70.488 81.8461 70.5058 81.9291C70.5236 82.0115 70.4712 82.0929 70.3888 82.1107L60.8493 84.1736C60.8384 84.1758 60.8278 84.1771 60.8169 84.1771Z" fill="#767676"/>
<path fill-rule="evenodd" clip-rule="evenodd" d="M60.8168 85.4566C60.7454 85.4566 60.6814 85.406 60.667 85.333C60.6505 85.2503 60.7045 85.1698 60.7875 85.1536L70.3266 83.2698C70.4074 83.2526 70.4898 83.3069 70.5061 83.3902C70.5226 83.4729 70.4686 83.5534 70.3859 83.57L60.8465 85.4534C60.8365 85.4556 60.8268 85.4566 60.8168 85.4566Z" fill="#767676"/>
<path fill-rule="evenodd" clip-rule="evenodd" d="M60.8169 86.7348C60.7442 86.7348 60.6796 86.6826 60.6665 86.6087C60.6515 86.5257 60.7071 86.4464 60.7904 86.4314L70.3295 84.7271C70.4122 84.714 70.4924 84.7673 70.5068 84.8506C70.5217 84.934 70.4665 85.0132 70.3832 85.0282L60.8441 86.7326C60.8347 86.7338 60.826 86.7348 60.8169 86.7348Z" fill="#767676"/>
<path fill-rule="evenodd" clip-rule="evenodd" d="M60.8209 88.0137C60.7469 88.0137 60.682 87.96 60.6698 87.8848C60.6567 87.8012 60.7135 87.7229 60.7972 87.7095L70.3363 86.1851C70.419 86.1736 70.4979 86.2285 70.5114 86.3121C70.5245 86.3958 70.468 86.4741 70.3844 86.4872L60.8452 88.0118C60.8368 88.0131 60.829 88.0137 60.8209 88.0137Z" fill="#767676"/>
<path fill-rule="evenodd" clip-rule="evenodd" d="M49.295 125.584C50.1128 129.432 53.8952 131.888 57.7428 131.07C61.5906 130.252 64.0468 126.47 63.2289 122.622C62.4111 118.775 58.6288 116.318 54.781 117.136C50.9334 117.954 48.4772 121.737 49.295 125.584Z" fill="#CEDEE7"/>
<path fill-rule="evenodd" clip-rule="evenodd" d="M24.3339 136.521L45.7425 125.012L48.8006 131.574L26.2217 140.571L24.3339 136.521L38.4019 130.834Z" fill="#CEDEE7"/>
<path fill-rule="evenodd" clip-rule="evenodd" d="M37.2802 122.197L47.1613 117.592L55.3965 135.26L45.5154 139.865L37.2802 122.197Z" fill="#2A8FEC"/>
<path fill-rule="evenodd" clip-rule="evenodd" d="M112.16 69.3609L117.523 64.3472C117.523 64.3472 125.691 83.5647 126.877 85.687C128.063 87.8093 118.707 90.2518 118.707 90.2518L112.16 69.3609Z" fill="#CCCCCC"/>
<path fill-rule="evenodd" clip-rule="evenodd" d="M131.897 78.8843L130.387 83.845L127.583 79.4235L125.49 78.8843L128.338 88.1587L130.926 89.8841L134.161 88.2665L135.24 79.6392L131.897 78.8843Z" fill="#9BC3D3"/>
<path fill-rule="evenodd" clip-rule="evenodd" d="M112.16 69.5336C112.16 69.5336 119.136 69.5332 125.915 68.2476L131.916 89.1961L118.707 90.4244L112.16 69.5336Z" fill="#CCCCCC"/>
<path fill-rule="evenodd" clip-rule="evenodd" d="M139.888 65.7241C141.115 64.8867 141.942 63.4968 141.997 61.8997C142.09 59.2349 140.003 56.9957 137.338 56.9027C134.877 56.8168 132.78 58.5903 132.399 60.9605C132.339 61.2067 132.292 61.4561 132.257 61.706L132.257 61.7064L132.256 61.7119L132.256 61.7138C132.246 61.7885 132.236 61.8633 132.228 61.9379L131.765 65.6521L132.513 65.9319L132.521 65.934L132.521 65.934C132.538 65.9996 132.547 66.035 132.547 66.035L132.55 66.5397L132.554 67.4831C132.556 67.7952 132.611 68.103 132.714 68.3941C132.786 68.5996 132.884 68.7974 133.006 68.9821C133.149 69.1988 133.322 69.3948 133.517 69.5621C133.619 69.6498 133.727 69.7287 133.841 69.7996C133.901 69.8372 133.961 69.8719 134.024 69.9047L134.024 69.9049L133.494 75.7787C133.494 75.7787 135.193 76.3563 137.089 76.0113C138.235 75.8048 139.453 75.2588 140.411 74.0464C140.411 74.0464 139.493 69.3205 139.888 65.7241Z" fill="#FFC4B8"/>
<path fill-rule="evenodd" clip-rule="evenodd" d="M137.072 75.9378C138.221 75.7324 139.442 75.1876 140.401 73.9763C140.401 73.9763 139.399 68.9122 139.921 65.2767C139.921 65.2767 137.032 71.6681 137.072 75.9378ZM132.514 65.9522C132.777 66.0394 133.046 65.8406 133.038 65.5648L132.987 63.7865L132.514 65.9522Z" fill="#F4A48D"/>
<path fill-rule="evenodd" clip-rule="evenodd" d="M138.889 57.2738C136.77 57.1252 137.094 55.3115 137.094 55.3115C134.82 55.3066 133.822 56.1284 133.822 56.1284C131.947 57.5152 132.568 60.4506 132.568 60.4506C132.924 58.2643 136.255 59.318 137.564 59.5845C138.083 60.1309 137.831 61.4117 138.066 62.5069C138.07 62.5267 138.604 64.0165 138.604 64.0165L138.604 64.0182L138.632 64.1721C138.643 64.1474 138.654 64.1228 138.665 64.0982C139.048 63.2726 139.787 62.8022 140.314 63.0462C140.841 63.2907 140.958 64.1577 140.575 64.9833C140.441 65.2709 140.121 65.5104 139.925 65.6966C139.735 66.9218 139.723 68.0655 139.792 69.0502L140.34 69.0931L142.642 59.7883C142.832 58.5387 142.293 57.9465 141.407 57.6408C140.718 57.4026 139.818 57.3388 138.889 57.2738Z" fill="#CEDEE7"/>
<path fill-rule="evenodd" clip-rule="evenodd" d="M131.212 92.7076L130.408 109.138L132.636 130.021L134.957 130.213L136.791 111.008L141.549 92.2176L131.212 92.7076Z" fill="#34466B"/>
<path fill-rule="evenodd" clip-rule="evenodd" d="M136.395 93.7205L138.077 110.084L142.78 130.375L145.104 130.216L144.661 110.909L146.533 91.6162L136.395 93.7205Z" fill="#34466B"/>
<path fill-rule="evenodd" clip-rule="evenodd" d="M146.132 82.2595C145.645 80.9641 144.2 77.7743 143.38 76.6431C141.343 73.8301 141.735 73.4588 135.214 73.7582C134.665 73.7834 134.211 73.8729 133.82 74.0173C133.311 74.3508 132.45 75.4944 131.804 79.3321C131.832 80.1574 131.904 82.6086 131.879 85.8311C131.858 88.4921 130.902 93.2009 129.011 99.9575C132.33 99.8689 134.084 99.8215 134.274 99.8152C143.518 99.1082 148.16 98.708 148.2 98.6148C148.536 97.9683 148.568 97.3261 148.568 97.326C149.361 92.9752 147.23 85.3511 147.23 85.3501C146.8 84.1076 146.387 82.9355 146.132 82.2595Z" fill="#9BC3D3"/>
<path fill-rule="evenodd" clip-rule="evenodd" d="M142.103 74.7902L135.629 86.6095L130.551 80.6052L128.54 82.5852C131.145 87.2845 132.847 90.0417 133.646 90.8566C134.845 92.079 134.916 92.3497 138.496 88.8122C140.883 86.4538 142.843 82.9653 144.377 78.3467C144.006 77.5188 143.669 76.8675 143.366 76.393C143.063 75.9184 142.642 75.3842 142.103 74.7902Z" fill="#CEDEE7"/>
<path fill-rule="evenodd" clip-rule="evenodd" d="M130.161 80.9881L130.283 78.9774L128.708 77.7354L128.072 77.9575L128.942 78.9352L124.958 78.7961L125.076 79.7668L128.961 82.1699L130.161 80.9881Z" fill="#FFC4B8"/>
<path fill-rule="evenodd" clip-rule="evenodd" d="M132.593 129.633L135.041 129.337L135.057 132.335L131.576 132.528L130.148 132.317L130.669 130.945L131.194 130.616L132.593 129.633Z" fill="#1BB3BC"/>
<path fill-rule="evenodd" clip-rule="evenodd" d="M142.591 129.48L140.851 131.229L141.058 132.544L145.621 131.957L145.101 129.688L142.591 129.48Z" fill="#1BB3BC"/>
</svg>
