<svg width="160" height="160" viewBox="0 0 160 160" fill="none" xmlns="http://www.w3.org/2000/svg">
<path fill-rule="evenodd" clip-rule="evenodd" d="M0 32.7998L25.6411 77.2123C41.2845 104.307 70.1943 120.998 101.481 120.998H160L134.358 76.5854C118.715 49.4908 89.8052 32.7998 58.519 32.7998H0Z" fill="#DEEDF2"/>
<g opacity="0.05">
<path fill-rule="evenodd" clip-rule="evenodd" d="M89.4805 108.055C89.8055 108.543 90.0129 108.875 90.0129 108.875C89.8384 108.09 91.2632 107.952 92.9251 108.045C91.6212 107.907 90.2676 107.847 89.4805 108.055Z" fill="#CEDEE7"/>
</g>
<path fill-rule="evenodd" clip-rule="evenodd" d="M138.154 135.894C138.154 138.518 111.346 140.646 78.278 140.646C45.2095 140.646 18.4023 138.518 18.4023 135.894C18.4023 133.27 45.2095 131.143 78.278 131.143C111.346 131.143 138.154 133.27 138.154 135.894Z" fill="#DEEDF2"/>
<path fill-rule="evenodd" clip-rule="evenodd" d="M27.379 93.1267C27.379 93.1267 27.2066 90.1654 26.4149 89.4457C25.4508 88.5694 20.1048 89.4457 18.8781 90.9356C17.6511 92.4255 19.2285 94.7917 20.1924 95.23C21.1564 95.6682 24.5745 95.8436 24.5745 95.8436L29.2196 96.895L29.6576 93.6525C29.3947 93.6525 27.379 93.1267 27.379 93.1267Z" fill="#EC0000"/>
<path fill-rule="evenodd" clip-rule="evenodd" d="M102.014 90.9357C100.787 89.4458 95.4409 88.5693 94.4768 89.4458C93.6854 90.1653 93.5127 93.1268 93.5127 93.1268C93.5127 93.1268 91.497 93.6523 91.2344 93.6523L91.6724 96.8951L96.3172 95.8437C96.3172 95.8437 99.7356 95.6683 100.699 95.2301C101.663 94.7918 103.241 92.4256 102.014 90.9357Z" fill="#EC0000"/>
<path fill-rule="evenodd" clip-rule="evenodd" d="M30.7911 135.758H25.0712C23.6014 135.758 22.4102 134.566 22.4102 133.096V119.836H33.4521V133.096C33.4521 134.566 32.2608 135.758 30.7911 135.758Z" fill="#34466B"/>
<path fill-rule="evenodd" clip-rule="evenodd" d="M96.1465 135.758H90.4266C88.9572 135.758 87.7656 134.566 87.7656 133.096V119.836H98.8078V133.096C98.8078 134.566 97.6163 135.758 96.1465 135.758Z" fill="#34466B"/>
<path fill-rule="evenodd" clip-rule="evenodd" d="M41.582 127.926L44.1072 129.209H74.6658L79.5023 127.926C79.5023 127.926 78.7744 124.33 78.3893 124.202C78.0039 124.074 69.6582 122.661 69.6582 122.661C69.6582 122.661 63.3667 122.79 62.5965 122.79C61.826 122.79 49.8849 124.459 49.8849 124.459L43.9788 126.385L41.582 127.926Z" fill="#CEDEE7"/>
<path fill-rule="evenodd" clip-rule="evenodd" d="M99.364 104.985C99.364 103.86 98.6309 102.002 98.0407 100.689C97.6074 99.7236 96.9084 98.9027 96.0223 98.3248L93.3722 96.5965C93.3722 96.5965 86.8668 78.6211 82.9292 77.5937C81.3845 77.1906 75.1368 76.5481 69.5634 76.0299C63.2266 75.4403 56.8488 75.458 50.515 76.079C45.3206 76.5884 39.6572 77.2034 38.161 77.5937C34.2234 78.6211 27.718 96.5965 27.718 96.5965L25.0679 98.3248C24.1821 98.9027 23.4834 99.7231 23.05 100.688C22.4596 102.002 21.7262 103.86 21.7262 104.985C21.7262 106.868 21.3839 115.942 22.0685 121.078C22.4252 123.752 22.9674 125.498 23.4054 126.558C23.7474 127.385 24.5516 127.926 25.447 127.926H41.5851L45.1802 127.07H58.2766H59.2183H75.91L79.5054 127.926H95.6429C96.5388 127.926 97.3428 127.385 97.6848 126.558C98.1226 125.498 98.665 123.752 99.0215 121.078C99.7066 115.942 99.364 106.868 99.364 104.985Z" fill="#EC0000"/>
<path fill-rule="evenodd" clip-rule="evenodd" d="M60.6712 94.7124L30.8828 94.542C30.8828 94.542 34.6492 98.1374 37.2172 100.534C39.7852 102.931 42.1819 104.814 49.3721 104.985C55.7334 105.137 59.814 105.02 60.6712 104.991C61.5284 105.02 65.6089 105.137 71.97 104.985C79.1604 104.814 81.5572 102.931 84.1249 100.534C86.6929 98.1374 90.4593 94.542 90.4593 94.542L60.6712 94.7124Z" fill="#CC0000"/>
<path fill-rule="evenodd" clip-rule="evenodd" d="M87.6876 86.0277C86.6674 83.8671 84.9484 81.5421 83.966 80.2911C83.5002 79.6977 82.826 79.3025 82.0798 79.1871C71.0761 77.4883 63.1422 77.3983 60.6017 77.4223C58.0613 77.3983 50.1271 77.4883 39.1234 79.1871C38.3775 79.3025 37.7033 79.6977 37.2372 80.2911C36.2551 81.5421 34.5361 83.8671 33.5158 86.0277C32.0259 89.1826 28.6081 94.1781 33.6034 94.1781H59.7304H61.4731H87.5998C92.5954 94.1781 89.1776 89.1826 87.6876 86.0277Z" fill="#DEEDF2"/>
<path d="M41.3164 107.938H79.1769V107.236H41.3164V107.938Z" fill="#990000"/>
<path d="M41.3164 109.34H79.1769V108.639H41.3164V109.34Z" fill="#990000"/>
<path d="M41.3164 110.742H79.1769V110.041H41.3164V110.742Z" fill="#990000"/>
<path fill-rule="evenodd" clip-rule="evenodd" d="M44.2225 116.264H78.1211C79.0569 116.264 79.5644 117.358 78.9609 118.072L75.5599 122.096C75.351 122.344 75.0439 122.486 74.7205 122.486H47.85C47.5389 122.486 47.2421 122.354 47.0338 122.123L43.4059 118.099C42.7686 117.391 43.2704 116.264 44.2225 116.264Z" fill="#34466B"/>
<path fill-rule="evenodd" clip-rule="evenodd" d="M70.8113 117.929H49.6922C49.2561 117.929 48.9023 117.575 48.9023 117.139V113.197C48.9023 112.761 49.2561 112.407 49.6922 112.407H70.8113C71.2477 112.407 71.6012 112.761 71.6012 113.197V117.139C71.6012 117.575 71.2477 117.929 70.8113 117.929Z" fill="white"/>
<path fill-rule="evenodd" clip-rule="evenodd" d="M25.4984 113.842L27.0008 119.274C27.3352 120.483 28.3282 121.396 29.5609 121.629L38.6296 123.337C39.0562 123.417 39.4814 123.19 39.6524 122.791C39.7882 122.475 39.7369 122.109 39.5187 121.842L36.9335 118.672C35.3932 116.784 33.3055 115.42 30.9578 114.768L25.9604 113.38C25.6795 113.302 25.4206 113.56 25.4984 113.842Z" fill="#723846"/>
<path fill-rule="evenodd" clip-rule="evenodd" d="M29.7485 120.619C28.9074 120.461 28.2163 119.825 27.9883 119L26.793 114.678L30.6804 115.758C32.8352 116.357 34.7214 117.589 36.135 119.322L38.5451 122.276L29.7485 120.619Z" fill="white"/>
<path fill-rule="evenodd" clip-rule="evenodd" d="M38.9737 107.253C38.9737 107.253 37.1762 109.179 34.3516 109.436L38.3317 112.133L38.9737 107.253Z" fill="#CC0000"/>
<path fill-rule="evenodd" clip-rule="evenodd" d="M31.0276 100.072L37.9677 104.396C38.502 104.728 38.4651 105.518 37.9022 105.799L33.5874 107.957C33.2236 108.139 32.8085 108.192 32.4106 108.107L26.3004 106.807C25.518 106.641 24.9398 105.976 24.8828 105.178L24.5828 100.977C24.5162 100.048 25.1708 99.2229 26.0904 99.0756C27.8026 98.8018 29.556 99.1558 31.0276 100.072Z" fill="white"/>
<path fill-rule="evenodd" clip-rule="evenodd" d="M95.7172 113.842L94.2145 119.274C93.8804 120.483 92.8871 121.396 91.6547 121.629L82.586 123.337C82.1591 123.417 81.7342 123.19 81.5632 122.791C81.4274 122.475 81.4787 122.109 81.6969 121.842L84.2818 118.672C85.8221 116.784 87.9099 115.42 90.2575 114.768L95.2552 113.38C95.5361 113.302 95.795 113.56 95.7172 113.842Z" fill="#723846"/>
<path fill-rule="evenodd" clip-rule="evenodd" d="M91.4645 120.619C92.3056 120.461 92.9964 119.825 93.2247 119L94.4201 114.678L90.5326 115.758C88.3781 116.357 86.4916 117.589 85.0781 119.322L82.668 122.276L91.4645 120.619Z" fill="white"/>
<path fill-rule="evenodd" clip-rule="evenodd" d="M82.2383 107.253C82.2383 107.253 84.0358 109.179 86.8605 109.436L82.8803 112.133L82.2383 107.253Z" fill="#CC0000"/>
<path fill-rule="evenodd" clip-rule="evenodd" d="M90.1869 100.072L83.2468 104.396C82.7125 104.728 82.7493 105.518 83.3123 105.799L87.6268 107.957C87.9909 108.139 88.406 108.192 88.8039 108.107L94.9138 106.807C95.6965 106.641 96.2744 105.976 96.3314 105.178L96.6317 100.977C96.698 100.048 96.0434 99.2229 95.1241 99.0756C93.4119 98.8018 91.6585 99.1558 90.1869 100.072Z" fill="white"/>
<mask id="mask0_1487_20292" style="mask-type:luminance" maskUnits="userSpaceOnUse" x="72" y="36" width="70" height="81">
<path fill-rule="evenodd" clip-rule="evenodd" d="M72.4023 36.7998H141.338V116.748H72.4023V36.7998Z" fill="white"/>
</mask>
<g mask="url(#mask0_1487_20292)">
<path fill-rule="evenodd" clip-rule="evenodd" d="M130.179 42.4938C130.179 41.3814 130.326 40.3022 130.598 39.2746C122.86 37.955 112.553 36.7998 106.869 36.7998C101.362 36.7998 91.5163 37.8842 83.8711 39.1518C84.1643 40.2158 84.3243 41.3358 84.3243 42.4938C84.3243 49.2146 79.0415 54.7006 72.4023 55.0274C73.2199 66.1134 76.0771 81.1878 79.4443 89.323C85.0219 102.803 104.312 114.656 106.869 116.748C109.424 114.656 128.715 102.803 134.292 89.323C137.665 81.173 140.527 66.0558 141.338 54.9654C135.062 54.2722 130.179 48.9534 130.179 42.4938Z" fill="#34466B"/>
</g>
<mask id="mask1_1487_20292" style="mask-type:luminance" maskUnits="userSpaceOnUse" x="72" y="36" width="70" height="81">
<path fill-rule="evenodd" clip-rule="evenodd" d="M72.4023 36.7998H141.338V116.748H72.4023V36.7998Z" fill="white"/>
</mask>
<g mask="url(#mask1_1487_20292)">
<path fill-rule="evenodd" clip-rule="evenodd" d="M124.021 44.6092C117.471 43.696 110.736 43.0776 106.886 43.0752H106.868C103.165 43.0752 96.8304 43.6408 90.4932 44.5012C89.7648 51.3912 85.3272 57.192 79.168 59.8164C79.7568 64.8116 80.6548 70.0576 81.7052 74.798C82.7796 79.6424 84.0132 83.956 85.2412 86.924C88.9556 95.9012 100.915 104.814 106.868 109.033C106.873 109.028 106.881 109.024 106.886 109.019C112.845 104.794 124.782 95.8904 128.492 86.924C129.722 83.952 130.956 79.64 132.03 74.798C133.104 69.954 134.017 64.5792 134.605 59.486C128.834 56.734 124.753 51.1552 124.021 44.6092Z" fill="#9BC3D3"/>
</g>
<mask id="mask2_1487_20292" style="mask-type:luminance" maskUnits="userSpaceOnUse" x="72" y="36" width="70" height="81">
<path fill-rule="evenodd" clip-rule="evenodd" d="M72.4023 36.7998H141.338V116.748H72.4023V36.7998Z" fill="white"/>
</mask>
<g mask="url(#mask2_1487_20292)">
<path fill-rule="evenodd" clip-rule="evenodd" d="M106.842 82.8942C106.243 82.8942 105.678 82.617 105.311 82.143L98.0845 72.8046C97.4305 71.959 97.5853 70.7438 98.4305 70.0894C99.2761 69.4358 100.492 69.5902 101.146 70.4358L106.842 77.7966L117.98 63.4046C118.634 62.5594 119.85 62.4046 120.695 63.0586C121.54 63.7126 121.695 64.9282 121.041 65.7738L108.373 82.143C108.006 82.617 107.441 82.8942 106.842 82.8942Z" fill="white"/>
</g>
<path fill-rule="evenodd" clip-rule="evenodd" d="M46.7619 28.4304C46.1799 23.6788 42.1504 20 37.2665 20C31.9828 20 27.6993 24.3061 27.6993 29.6181C27.6993 30.4896 27.8145 31.334 28.0307 32.1368C27.9495 32.1379 27.8689 32.1408 27.7889 32.1455L27.6988 32.138V32.1515C24.9585 32.3584 22.7984 34.6596 22.7984 37.4678C22.7984 40.2759 24.9585 42.5771 27.6988 42.7841V42.8H62.5321V42.7995H62.5322C64.6674 42.7995 66.3984 41.059 66.3984 38.9122C66.3984 36.7655 64.6674 35.0253 62.5322 35.0253H62.5321V35.0251L53.7069 34.2936C53.7473 34.0286 53.7682 33.7573 53.7682 33.481C53.7682 30.5365 51.394 28.1495 48.4651 28.1495C47.8693 28.1495 47.2965 28.2483 46.7619 28.4304Z" fill="#9BC3D3"/>
<path fill-rule="evenodd" clip-rule="evenodd" d="M28.0467 31.6471C27.5501 27.5624 24.112 24.3999 19.9451 24.3999C15.437 24.3999 11.7822 28.1016 11.7822 32.6681C11.7822 33.4173 11.8805 34.1432 12.065 34.8333C11.9957 34.8342 11.927 34.8367 11.8587 34.8407L11.7818 34.8343V34.8459C9.44375 35.0238 7.60078 37.002 7.60078 39.4161C7.60078 41.8301 9.44375 43.8083 11.7818 43.9862V43.9999H41.502V43.9994H41.5021C43.3238 43.9994 44.8008 42.5032 44.8008 40.6578C44.8008 38.8124 43.3238 37.3163 41.5021 37.3163H41.502V37.3162L33.9723 36.6874C34.0067 36.4596 34.0245 36.2263 34.0245 35.9888C34.0245 33.4576 31.9988 31.4056 29.4999 31.4056C28.9916 31.4056 28.5028 31.4905 28.0467 31.6471Z" fill="#DEEDF2"/>
</svg>
