<svg width="160" height="160" viewBox="0 0 160 160" fill="none" xmlns="http://www.w3.org/2000/svg">
<path fill-rule="evenodd" clip-rule="evenodd" d="M0 32.7998L25.6411 77.2123C41.2845 104.307 70.1943 120.998 101.481 120.998H160L134.358 76.5854C118.715 49.4908 89.8052 32.7998 58.519 32.7998H0Z" fill="#DEEDF2"/>
<g opacity="0.05">
<path fill-rule="evenodd" clip-rule="evenodd" d="M89.4766 108.055C89.8016 108.543 90.009 108.875 90.009 108.875C89.8345 108.089 91.2593 107.951 92.9211 108.045C91.6173 107.907 90.2637 107.847 89.4766 108.055Z" fill="#CEDEE7"/>
</g>
<path fill-rule="evenodd" clip-rule="evenodd" d="M138.15 135.894C138.15 138.518 111.343 140.646 78.2741 140.646C45.2056 140.646 18.3984 138.518 18.3984 135.894C18.3984 133.27 45.2056 131.143 78.2741 131.143C111.343 131.143 138.15 133.27 138.15 135.894Z" fill="#DEEDF2"/>
<path fill-rule="evenodd" clip-rule="evenodd" d="M27.3751 93.1262C27.3751 93.1262 27.2027 90.1649 26.411 89.4452C25.4469 88.5689 20.1009 89.4452 18.8742 90.9351C17.6472 92.425 19.2246 94.7912 20.1884 95.2295C21.1525 95.6677 24.5706 95.8431 24.5706 95.8431L29.2157 96.8945L29.6537 93.652C29.3908 93.652 27.3751 93.1262 27.3751 93.1262Z" fill="#2A8FEC"/>
<path fill-rule="evenodd" clip-rule="evenodd" d="M102.01 90.9352C100.783 89.4453 95.437 88.5688 94.4729 89.4453C93.6815 90.1648 93.5088 93.1263 93.5088 93.1263C93.5088 93.1263 91.4931 93.6519 91.2305 93.6519L91.6685 96.8946L96.3133 95.8432C96.3133 95.8432 99.7317 95.6679 100.695 95.2296C101.66 94.7913 103.237 92.4251 102.01 90.9352Z" fill="#2A8FEC"/>
<path fill-rule="evenodd" clip-rule="evenodd" d="M30.7872 135.758H25.0673C23.5975 135.758 22.4062 134.566 22.4062 133.096V119.836H33.4482V133.096C33.4482 134.566 32.2569 135.758 30.7872 135.758Z" fill="#34466B"/>
<path fill-rule="evenodd" clip-rule="evenodd" d="M96.1426 135.758H90.4227C88.9533 135.758 87.7617 134.566 87.7617 133.096V119.836H98.8039V133.096C98.8039 134.566 97.6124 135.758 96.1426 135.758Z" fill="#34466B"/>
<path fill-rule="evenodd" clip-rule="evenodd" d="M41.5781 127.926L44.1033 129.209H74.6619L79.4984 127.926C79.4984 127.926 78.7705 124.33 78.3854 124.202C78 124.074 69.6543 122.661 69.6543 122.661C69.6543 122.661 63.3628 122.79 62.5926 122.79C61.8221 122.79 49.881 124.459 49.881 124.459L43.9749 126.385L41.5781 127.926Z" fill="#CEDEE7"/>
<path fill-rule="evenodd" clip-rule="evenodd" d="M99.3601 104.985C99.3601 103.86 98.627 102.002 98.0368 100.689C97.6035 99.7236 96.9045 98.9027 96.0184 98.3248L93.3683 96.5965C93.3683 96.5965 86.8629 78.6211 82.9253 77.5937C81.3806 77.1906 75.1329 76.5481 69.5595 76.0299C63.2227 75.4403 56.8449 75.458 50.5111 76.079C45.3167 76.5884 39.6533 77.2034 38.1571 77.5937C34.2195 78.6211 27.7141 96.5965 27.7141 96.5965L25.064 98.3248C24.1782 98.9027 23.4795 99.7231 23.0461 100.688C22.4557 102.002 21.7223 103.86 21.7223 104.985C21.7223 106.868 21.38 115.942 22.0646 121.078C22.4213 123.752 22.9635 125.498 23.4015 126.558C23.7435 127.385 24.5477 127.926 25.4431 127.926H41.5812L45.1763 127.07H58.2727H59.2144H75.9061L79.5015 127.926H95.639C96.5349 127.926 97.3389 127.385 97.6809 126.558C98.1187 125.498 98.6611 123.752 99.0176 121.078C99.7027 115.942 99.3601 106.868 99.3601 104.985Z" fill="#2A8FEC"/>
<path fill-rule="evenodd" clip-rule="evenodd" d="M60.6673 94.7124L30.8789 94.542C30.8789 94.542 34.6453 98.1374 37.2133 100.534C39.7813 102.931 42.178 104.814 49.3682 104.985C55.7295 105.137 59.8101 105.02 60.6673 104.991C61.5245 105.02 65.605 105.137 71.9661 104.985C79.1565 104.814 81.5533 102.931 84.121 100.534C86.689 98.1374 90.4554 94.542 90.4554 94.542L60.6673 94.7124Z" fill="#2274C0"/>
<path fill-rule="evenodd" clip-rule="evenodd" d="M87.6837 86.0277C86.6635 83.8671 84.9445 81.5421 83.9621 80.2911C83.4963 79.6977 82.8221 79.3025 82.0759 79.1871C71.0722 77.4883 63.1383 77.3983 60.5978 77.4223C58.0574 77.3983 50.1232 77.4883 39.1195 79.1871C38.3736 79.3025 37.6994 79.6977 37.2333 80.2911C36.2512 81.5421 34.5322 83.8671 33.5119 86.0277C32.022 89.1826 28.6042 94.1781 33.5995 94.1781H59.7265H61.4692H87.5959C92.5915 94.1781 89.1736 89.1826 87.6837 86.0277Z" fill="#DEEDF2"/>
<path d="M41.3125 107.938H79.173V107.236H41.3125V107.938Z" fill="#1B4872"/>
<path d="M41.3125 109.34H79.173V108.639H41.3125V109.34Z" fill="#1B4872"/>
<path d="M41.3125 110.742H79.173V110.041H41.3125V110.742Z" fill="#1B4872"/>
<path fill-rule="evenodd" clip-rule="evenodd" d="M44.2186 116.264H78.1172C79.0529 116.264 79.5605 117.358 78.957 118.072L75.556 122.096C75.3471 122.344 75.04 122.486 74.7166 122.486H47.8461C47.5349 122.486 47.2382 122.354 47.0299 122.123L43.402 118.099C42.7647 117.391 43.2665 116.264 44.2186 116.264Z" fill="#34466B"/>
<path fill-rule="evenodd" clip-rule="evenodd" d="M70.8074 117.929H49.6883C49.2522 117.929 48.8984 117.575 48.8984 117.139V113.197C48.8984 112.761 49.2522 112.407 49.6883 112.407H70.8074C71.2438 112.407 71.5973 112.761 71.5973 113.197V117.139C71.5973 117.575 71.2438 117.929 70.8074 117.929Z" fill="white"/>
<path fill-rule="evenodd" clip-rule="evenodd" d="M25.4945 113.841L26.9969 119.274C27.3313 120.483 28.3243 121.396 29.557 121.628L38.6257 123.337C39.0523 123.417 39.4775 123.19 39.6485 122.791C39.7843 122.474 39.733 122.108 39.5148 121.841L36.9296 118.672C35.3893 116.784 33.3016 115.42 30.9539 114.768L25.9565 113.38C25.6756 113.302 25.4167 113.56 25.4945 113.841Z" fill="#723846"/>
<path fill-rule="evenodd" clip-rule="evenodd" d="M29.7446 120.619C28.9035 120.461 28.2124 119.825 27.9844 119L26.7891 114.678L30.6765 115.758C32.8313 116.357 34.7175 117.589 36.1311 119.322L38.5412 122.276L29.7446 120.619Z" fill="white"/>
<path fill-rule="evenodd" clip-rule="evenodd" d="M38.9698 107.253C38.9698 107.253 37.1723 109.179 34.3477 109.436L38.3278 112.133L38.9698 107.253Z" fill="#2274C0"/>
<path fill-rule="evenodd" clip-rule="evenodd" d="M31.0237 100.072L37.9638 104.396C38.4981 104.728 38.4612 105.518 37.8983 105.799L33.5835 107.957C33.2197 108.139 32.8046 108.192 32.4067 108.107L26.2965 106.807C25.5141 106.641 24.9359 105.976 24.8789 105.178L24.5789 100.977C24.5123 100.048 25.1669 99.2229 26.0865 99.0756C27.7987 98.8018 29.5521 99.1558 31.0237 100.072Z" fill="white"/>
<path fill-rule="evenodd" clip-rule="evenodd" d="M95.7133 113.841L94.2106 119.274C93.8765 120.483 92.8832 121.396 91.6508 121.628L82.582 123.337C82.1552 123.417 81.7303 123.19 81.5593 122.791C81.4235 122.474 81.4748 122.108 81.693 121.841L84.2779 118.672C85.8182 116.784 87.906 115.42 90.2536 114.768L95.2513 113.38C95.5322 113.302 95.791 113.56 95.7133 113.841Z" fill="#723846"/>
<path fill-rule="evenodd" clip-rule="evenodd" d="M91.4606 120.619C92.3017 120.461 92.9925 119.825 93.2208 119L94.4162 114.678L90.5287 115.758C88.3742 116.357 86.4877 117.589 85.0742 119.322L82.6641 122.276L91.4606 120.619Z" fill="white"/>
<path fill-rule="evenodd" clip-rule="evenodd" d="M82.2344 107.253C82.2344 107.253 84.0319 109.179 86.8566 109.436L82.8764 112.133L82.2344 107.253Z" fill="#2274C0"/>
<path fill-rule="evenodd" clip-rule="evenodd" d="M90.183 100.072L83.2429 104.396C82.7086 104.728 82.7454 105.518 83.3083 105.799L87.6229 107.957C87.987 108.139 88.4021 108.192 88.8 108.107L94.9099 106.807C95.6926 106.641 96.2705 105.976 96.3275 105.178L96.6278 100.977C96.6941 100.048 96.0395 99.2229 95.1202 99.0756C93.408 98.8018 91.6546 99.1558 90.183 100.072Z" fill="white"/>
<mask id="mask0_1483_87152" style="mask-type:luminance" maskUnits="userSpaceOnUse" x="72" y="36" width="70" height="81">
<path fill-rule="evenodd" clip-rule="evenodd" d="M72.3984 36.8003H141.334V116.749H72.3984V36.8003Z" fill="white"/>
</mask>
<g mask="url(#mask0_1483_87152)">
<path fill-rule="evenodd" clip-rule="evenodd" d="M130.175 42.4943C130.175 41.3819 130.322 40.3027 130.594 39.2751C122.856 37.9555 112.549 36.8003 106.865 36.8003C101.358 36.8003 91.5124 37.8847 83.8672 39.1523C84.1604 40.2163 84.3204 41.3363 84.3204 42.4943C84.3204 49.2151 79.0376 54.7011 72.3984 55.0279C73.216 66.1139 76.0732 81.1883 79.4404 89.3235C85.018 102.804 104.308 114.656 106.865 116.749C109.42 114.656 128.711 102.804 134.288 89.3235C137.661 81.1735 140.523 66.0563 141.334 54.9659C135.058 54.2727 130.175 48.9539 130.175 42.4943Z" fill="#34466B"/>
</g>
<mask id="mask1_1483_87152" style="mask-type:luminance" maskUnits="userSpaceOnUse" x="72" y="36" width="70" height="81">
<path fill-rule="evenodd" clip-rule="evenodd" d="M72.3984 36.8003H141.334V116.749H72.3984V36.8003Z" fill="white"/>
</mask>
<g mask="url(#mask1_1483_87152)">
<path fill-rule="evenodd" clip-rule="evenodd" d="M124.017 44.6097C117.467 43.6965 110.732 43.0781 106.882 43.0757H106.864C103.161 43.0757 96.8265 43.6413 90.4893 44.5017C89.7609 51.3917 85.3233 57.1925 79.1641 59.8169C79.7529 64.8121 80.6509 70.0581 81.7013 74.7985C82.7757 79.6429 84.0093 83.9565 85.2373 86.9245C88.9517 95.9017 100.911 104.814 106.864 109.033C106.869 109.028 106.877 109.024 106.882 109.02C112.841 104.794 124.778 95.8909 128.488 86.9245C129.718 83.9525 130.952 79.6405 132.026 74.7985C133.1 69.9545 134.013 64.5797 134.601 59.4865C128.83 56.7345 124.749 51.1557 124.017 44.6097Z" fill="#9BC3D3"/>
</g>
<mask id="mask2_1483_87152" style="mask-type:luminance" maskUnits="userSpaceOnUse" x="72" y="36" width="70" height="81">
<path fill-rule="evenodd" clip-rule="evenodd" d="M72.3984 36.8003H141.334V116.749H72.3984V36.8003Z" fill="white"/>
</mask>
<g mask="url(#mask2_1483_87152)">
<path fill-rule="evenodd" clip-rule="evenodd" d="M106.838 82.8947C106.239 82.8947 105.674 82.6175 105.307 82.1435L98.0806 72.8051C97.4266 71.9595 97.5814 70.7443 98.4266 70.0899C99.2722 69.4363 100.488 69.5907 101.142 70.4363L106.838 77.7971L117.976 63.4051C118.63 62.5599 119.846 62.4051 120.691 63.0591C121.536 63.7131 121.691 64.9287 121.037 65.7743L108.369 82.1435C108.002 82.6175 107.437 82.8947 106.838 82.8947Z" fill="white"/>
</g>
<path fill-rule="evenodd" clip-rule="evenodd" d="M46.7619 28.4304C46.1799 23.6788 42.1504 20 37.2665 20C31.9828 20 27.6993 24.3061 27.6993 29.6181C27.6993 30.4896 27.8145 31.334 28.0307 32.1368C27.9495 32.1379 27.8689 32.1408 27.7889 32.1455L27.6988 32.138V32.1515C24.9585 32.3584 22.7984 34.6596 22.7984 37.4678C22.7984 40.2759 24.9585 42.5771 27.6988 42.7841V42.8H62.5321V42.7995H62.5322C64.6674 42.7995 66.3984 41.059 66.3984 38.9122C66.3984 36.7655 64.6674 35.0253 62.5322 35.0253H62.5321V35.0251L53.7069 34.2936C53.7473 34.0286 53.7682 33.7573 53.7682 33.481C53.7682 30.5365 51.394 28.1495 48.4651 28.1495C47.8693 28.1495 47.2965 28.2483 46.7619 28.4304Z" fill="#9BC3D3"/>
<path fill-rule="evenodd" clip-rule="evenodd" d="M28.0467 31.6471C27.5501 27.5624 24.112 24.3999 19.9451 24.3999C15.437 24.3999 11.7822 28.1016 11.7822 32.6681C11.7822 33.4173 11.8805 34.1432 12.065 34.8333C11.9957 34.8342 11.927 34.8367 11.8587 34.8407L11.7818 34.8343V34.8459C9.44375 35.0238 7.60078 37.002 7.60078 39.4161C7.60078 41.8301 9.44375 43.8083 11.7818 43.9862V43.9999H41.502V43.9994H41.5021C43.3238 43.9994 44.8008 42.5032 44.8008 40.6578C44.8008 38.8124 43.3238 37.3163 41.5021 37.3163H41.502V37.3162L33.9723 36.6874C34.0067 36.4596 34.0245 36.2263 34.0245 35.9888C34.0245 33.4576 31.9988 31.4056 29.4999 31.4056C28.9916 31.4056 28.5028 31.4905 28.0467 31.6471Z" fill="#DEEDF2"/>
</svg>
