<svg width="160" height="160" viewBox="0 0 160 160" fill="none" xmlns="http://www.w3.org/2000/svg">
<path fill-rule="evenodd" clip-rule="evenodd" d="M55.8709 124.01C30.6828 118.333 8.3265 110.569 6.93888 100.962C4.76129 85.8695 27.2766 90.3756 36.112 74.5587C44.9475 58.7417 35.0372 47.6807 41.7495 38.2503C48.4618 28.8199 60.5818 32.2958 70.2776 39.3721C79.9734 46.4484 76.4014 51.4291 90.514 58.2345C104.627 65.0399 111.059 55.9675 122.518 64.7546C133.977 73.5417 129.42 84.1291 126.864 94.3776C124.309 104.626 123.889 106.592 119.999 112.29C113.095 122.4 81.059 129.687 55.8709 124.01Z" fill="#EAF7FE"/>
<path fill-rule="evenodd" clip-rule="evenodd" d="M108.129 29.0103C108.129 29.0103 114.635 47.8499 118.991 49.0921C118.991 49.0921 119.138 41.8416 115.401 35.6504C111.663 29.4591 108.129 29.0103 108.129 29.0103Z" fill="#34466B"/>
<path fill-rule="evenodd" clip-rule="evenodd" d="M112.802 28.5225L115.554 32.148L116.955 33.994L123.693 42.8674L115.322 47.2945L115.05 47.4391L114.034 47.9768L107.701 54.3607C106.096 55.9781 104.185 57.2609 102.08 58.1326L98.5091 59.6111C97.2238 62.3561 95.4954 64.8754 93.3898 67.0664L90.3277 70.2526L83.9006 66.8817L86.6805 60.8715L84.3991 63.094L74.8086 56.886L80.9515 45.6546C82.2812 43.2247 84.4484 41.3599 87.0505 40.4088L103.262 34.4826C103.791 34.2895 104.297 34.0364 104.771 33.7302L108.757 31.1455L109.035 30.9642L109.164 30.882L109.822 30.4549L112.802 28.5225Z" fill="#F4A48D"/>
<path fill-rule="evenodd" clip-rule="evenodd" d="M146.072 4.32324L108.129 29.01C108.129 29.01 116.362 40.4826 118.991 49.0919L159.734 30.5987L146.072 4.32324Z" fill="#2A8FEC"/>
<path fill-rule="evenodd" clip-rule="evenodd" d="M102.22 71.7214L66.5698 90.6643L60.9141 78.4499L67.2431 74.8261L72.5841 71.7682L95.1736 59.248L100.117 67.9987L102.22 71.7214Z" fill="#9E3667"/>
<path fill-rule="evenodd" clip-rule="evenodd" d="M95.1726 59.248L100.116 67.9986L98.1522 72.6169C93.9813 74.1274 89.8182 75.0037 85.8582 75.4506C85.637 77.4459 84.456 79.298 82.5412 80.2939C79.4898 81.8805 75.7299 80.6931 74.1432 77.6419C73.8041 76.9898 73.5917 76.3053 73.4972 75.6167C71.1717 75.4293 69.0629 75.1409 67.2422 74.8261L72.5831 71.7682L75.4688 70.1688C75.86 69.8122 76.3034 69.5 76.7953 69.2442C77.1841 69.042 77.5845 68.8849 77.9903 68.7709L95.1726 59.248Z" fill="#723846"/>
<path fill-rule="evenodd" clip-rule="evenodd" d="M101.239 58.9787L95.4981 72.4794C76.3884 79.4012 57.4453 73.0062 57.4453 73.0062L61.9675 53.5786L87.0476 57.0273L95.9905 58.2569L101.239 58.9787Z" fill="#9BC3D3"/>
<path fill-rule="evenodd" clip-rule="evenodd" d="M100.766 58.0661L95.0252 71.5668C75.9161 78.4886 56.9727 72.0936 56.9727 72.0936L61.4948 52.666L86.5748 56.1147L95.5177 57.3443L100.766 58.0661Z" fill="#CEDEE7"/>
<path fill-rule="evenodd" clip-rule="evenodd" d="M83.9297 62.2949C85.6393 65.5827 84.3602 69.634 81.0722 71.3435C77.785 73.0532 73.7333 71.7738 72.0237 68.486C70.3141 65.1981 71.5935 61.1469 74.8814 59.4373C78.1695 57.7277 82.2209 59.0071 83.9297 62.2949ZM69.2467 58.4739C69.9397 59.8066 69.4211 61.4489 68.0884 62.1419C66.7557 62.8348 65.1135 62.3163 64.4206 60.9835C63.7276 59.6507 64.2462 58.0086 65.5789 57.3156C66.9116 56.6226 68.5538 57.1412 69.2467 58.4739Z" fill="#9BC3D3"/>
<path fill-rule="evenodd" clip-rule="evenodd" d="M81.0091 63.0383L83.6946 58.0683C83.968 57.5611 84.3401 57.1131 84.7885 56.7503L88.2863 53.9172C88.9238 53.4008 89.7442 53.1665 90.5584 53.2687C95.4756 53.8853 100.402 52.2029 103.915 48.708L108.093 44.5503L103.105 37.6577L90.4275 42.2239C87.404 43.3129 84.888 45.4786 83.361 48.3066L82.8831 49.1905L80.4433 51.6595C79.8838 52.2253 79.448 52.9011 79.1638 53.6442L76.3134 61.0909C75.8615 62.7322 77.0845 64.3568 78.7863 64.3775C78.8276 64.3778 78.8697 64.3775 78.911 64.3759C79.7959 64.3441 80.5886 63.8172 81.0091 63.0383Z" fill="#F4A48D"/>
<path fill-rule="evenodd" clip-rule="evenodd" d="M23.6567 63.8251C22.053 63.16 20.9102 61.4455 20.9102 59.4376C20.9102 56.8529 22.8039 54.7544 25.1366 54.7544C26.9824 54.7544 28.5534 56.0684 29.1287 57.8975L29.1359 57.8993L30.2399 61.5488L30.1384 61.5925L30.0854 61.6153L29.4328 61.7563L29.4299 63.6731L29.398 63.7893C29.3464 63.9503 29.2751 64.1065 29.1839 64.2533C29.0776 64.425 28.946 64.5818 28.7968 64.717C28.7189 64.788 28.6355 64.8523 28.5474 64.9102C28.5007 64.9415 28.4541 64.97 28.4062 64.997C28.3688 65.0185 28.3311 65.0385 28.2925 65.057L28.1747 65.1147L28.5499 69.3413C28.5499 69.3413 26.6232 69.7998 25.7312 69.6155L25.6121 69.589L25.6096 69.5885C24.7584 69.4049 23.9128 69.1161 23.1982 68.2352C23.1982 68.2352 23.2002 68.2254 23.2039 68.2064L23.1982 68.1997C23.1982 68.1997 23.2651 67.8796 23.3486 67.3569C23.4761 66.5229 23.6408 65.1963 23.6567 63.8251Z" fill="#F4A48D"/>
<path fill-rule="evenodd" clip-rule="evenodd" d="M28.2399 66.0709C27.697 65.9069 26.5516 65.2621 25.6914 64.2133L28.1466 65.091C28.1466 65.091 28.1936 65.5918 28.2399 66.0709ZM29.5442 61.7158C29.3227 61.7898 29.0957 61.622 29.1017 61.3888L29.1402 59.8853L29.5442 61.7158Z" fill="#A66555"/>
<path fill-rule="evenodd" clip-rule="evenodd" d="M23.6662 63.9767L23.0107 63.6133C22.2257 63.1578 21.5609 62.4786 21.1255 61.6123C19.9328 59.2391 20.9105 56.3585 23.3091 55.1782C25.4685 54.1156 28.0455 54.7942 29.4061 56.6747L28.8669 57.1076C28.7445 57.0723 28.5419 57.0157 28.2937 56.9521C27.402 56.7194 25.9232 56.3902 25.4603 56.6139C24.7824 56.9417 24.814 58.1759 24.9169 59.1552C25.0176 60.1129 25.1085 60.5289 24.6702 60.7169C24.5095 60.7859 24.4102 59.977 24.0416 59.7338C23.6523 59.4771 23.155 59.7385 23.2278 60.618C23.3483 61.0176 23.441 61.4115 23.5106 61.7962C23.6271 62.4842 23.6697 63.2345 23.6662 63.9767Z" fill="#767676"/>
<path fill-rule="evenodd" clip-rule="evenodd" d="M30.119 68.0929C30.119 68.0929 38.0638 67.9716 39.8461 67.5942C39.8461 67.5942 41.3033 69.5206 40.7092 70.61C40.1151 71.6987 30.9426 73.9888 30.9426 73.9888L30.119 68.0929Z" fill="#CEDEE7"/>
<path fill-rule="evenodd" clip-rule="evenodd" d="M40.1452 66.7896C40.1452 66.7896 38.7416 67.3326 38.5884 67.8961C38.4352 68.4591 38.7416 70.9612 39.8535 71.3015C40.9648 71.6417 42.9907 70.0948 42.4875 68.5935C41.9838 67.092 40.1452 66.7896 40.1452 66.7896Z" fill="#9BC3D3"/>
<path d="M28.3867 69.3377C28.3867 69.3377 28.0843 71.0751 27.8963 71.3965C27.8963 71.3965 27.2768 71.596 27.0433 71.5556L25.914 69.4329L26.9469 68.9688L27.3751 69.0189L28.3867 69.3377Z" fill="black"/>
<path fill-rule="evenodd" clip-rule="evenodd" d="M38.2946 55.5108C38.29 55.0074 38.6673 55.1946 38.7697 55.1802C38.872 55.1659 40.7099 55.3817 41.1414 56.8908C41.4806 58.078 40.9668 58.7665 40.7313 59.007C40.9848 59.8793 42.5925 65.4799 42.6842 67.4526C42.7852 69.5949 40.5292 70.265 40.5292 70.265C38.6566 67.4116 39.5036 59.8115 39.5986 59.0129C39.4106 58.7912 39.048 58.1674 39.6896 57.121C39.6896 57.121 38.3007 56.1228 38.2946 55.5108Z" fill="#F4A48D"/>
<path d="M40.4531 55.8471C39.7587 55.2722 38.8421 55.17 38.7712 55.1802C38.6688 55.1946 38.2915 55.0074 38.2961 55.5108C38.3022 56.1228 39.6911 57.121 39.6911 57.121L40.4531 55.8471Z" fill="#F4A48D"/>
<path d="M25.7003 80.0239C26.372 80.0239 26.918 79.3194 26.918 78.4543C26.918 77.5893 26.372 76.8848 25.7003 76.8848C25.0286 76.8848 24.4827 77.5893 24.4827 78.4543C24.4827 79.3194 25.0286 80.0239 25.7003 80.0239Z" fill="#137E84"/>
<path fill-rule="evenodd" clip-rule="evenodd" d="M27.0039 78.4547C27.0039 77.5415 26.4192 76.7988 25.7 76.7988C24.9807 76.7988 24.396 77.5415 24.396 78.4547C24.396 79.3679 24.9807 80.1106 25.7 80.1106C26.4192 80.1106 27.0039 79.3679 27.0039 78.4547ZM24.5693 78.4549C24.5693 77.636 25.0765 76.9717 25.7007 76.9717C26.3256 76.9717 26.832 77.636 26.832 78.4549C26.832 79.2738 26.3256 79.9382 25.7007 79.9382C25.0765 79.9382 24.5693 79.2738 24.5693 78.4549Z" fill="#1BB3BC"/>
<path d="M25.7013 79.4482C26.1268 79.4482 26.4727 79.0026 26.4727 78.4546C26.4727 77.906 26.1268 77.4604 25.7013 77.4604C25.2757 77.4604 24.9299 77.906 24.9299 78.4546C24.9299 79.0026 25.2757 79.4482 25.7013 79.4482Z" fill="#137E84"/>
<path fill-rule="evenodd" clip-rule="evenodd" d="M26.5273 78.4543C26.5273 77.8763 26.1567 77.4053 25.7011 77.4053C25.2455 77.4053 24.8748 77.8763 24.8748 78.4543C24.8748 79.0324 25.2455 79.5027 25.7011 79.5027C26.1567 79.5027 26.5273 79.0324 26.5273 78.4543ZM24.9849 78.4545C24.9849 77.9353 25.306 77.5151 25.7014 77.5151C26.0968 77.5151 26.418 77.9353 26.418 78.4545C26.418 78.973 26.0968 79.3938 25.7014 79.3938C25.306 79.3938 24.9849 78.973 24.9849 78.4545Z" fill="#1BB3BC"/>
<path d="M26.8317 89.4653C26.8798 89.4653 26.918 89.4265 26.918 89.379V81.6014C26.918 81.5539 26.8798 81.5151 26.8317 81.5151H24.569C24.5208 81.5151 24.4827 81.5539 24.4827 81.6014V89.379C24.4827 89.4265 24.5208 89.4653 24.569 89.4653H26.8317Z" fill="#137E84"/>
<path fill-rule="evenodd" clip-rule="evenodd" d="M26.8313 81.4292H24.5686C24.4729 81.4292 24.396 81.5061 24.396 81.6018V89.3794C24.396 89.4744 24.4729 89.552 24.5686 89.552H26.8313C26.927 89.552 27.0039 89.4744 27.0039 89.3794V81.6018C27.0039 81.5061 26.927 81.4292 26.8313 81.4292ZM24.5693 89.3796H26.832V81.6021H24.5693V89.3796Z" fill="#1BB3BC"/>
<path d="M24.9849 83.101C24.9849 83.6201 25.306 84.0403 25.7014 84.0403C26.0968 84.0403 26.418 83.6201 26.418 83.101C26.418 82.5824 26.0968 82.1616 25.7014 82.1616C25.306 82.1616 24.9849 82.5824 24.9849 83.101Z" fill="#137E84"/>
<path fill-rule="evenodd" clip-rule="evenodd" d="M24.9849 83.101C24.9849 83.6201 25.306 84.0403 25.7014 84.0403C26.0968 84.0403 26.418 83.6201 26.418 83.101C26.418 82.5824 26.0968 82.1616 25.7014 82.1616C25.306 82.1616 24.9849 82.5824 24.9849 83.101Z" stroke="#1BB3BC" stroke-width="0.594893" stroke-linejoin="round"/>
<path d="M25.2944 83.101C25.2944 83.3974 25.4777 83.6376 25.7038 83.6376C25.9306 83.6376 26.1133 83.3974 26.1133 83.101C26.1133 82.8046 25.9306 82.5645 25.7038 82.5645C25.4777 82.5645 25.2944 82.8046 25.2944 83.101Z" fill="#137E84"/>
<path fill-rule="evenodd" clip-rule="evenodd" d="M25.2944 83.101C25.2944 83.3974 25.4777 83.6376 25.7038 83.6376C25.9306 83.6376 26.1133 83.3974 26.1133 83.101C26.1133 82.8046 25.9306 82.5645 25.7038 82.5645C25.4777 82.5645 25.2944 82.8046 25.2944 83.101Z" stroke="#1BB3BC" stroke-width="0.5" stroke-linejoin="round"/>
<path d="M26.4169 88.7731C26.4651 88.7731 26.5039 88.7343 26.5039 88.6868V85.078C26.5039 85.0305 26.4651 84.9917 26.4169 84.9917H24.9839C24.9357 84.9917 24.8975 85.0305 24.8975 85.078V88.6868C24.8975 88.7343 24.9357 88.7731 24.9839 88.7731H26.4169Z" fill="#137E84"/>
<path fill-rule="evenodd" clip-rule="evenodd" d="M26.4205 84.9053H24.9874C24.8917 84.9053 24.8141 84.9829 24.8141 85.0779V88.6867C24.8141 88.7823 24.8917 88.8593 24.9874 88.8593H26.4205C26.5161 88.8593 26.5938 88.7823 26.5938 88.6867V85.0779C26.5938 84.9829 26.5161 84.9053 26.4205 84.9053ZM24.9888 88.6869H26.4219V85.0781H24.9888V88.6869Z" fill="#1BB3BC"/>
<path fill-rule="evenodd" clip-rule="evenodd" d="M23.7694 86.7306L23.4697 84.8125L31.8434 85.0239L33.5391 107.371L33.4531 128.651C33.4531 128.651 32.6475 129.705 30.3006 128.459L26.188 102.183C25.571 106.15 24.8517 109.76 24.0299 113.013C23.2081 116.266 21.6851 121.533 19.4608 128.813C17.4363 129.378 16.0046 128.41 16.0046 128.41L20.6015 87.1321L23.7694 86.7306Z" fill="#34466B"/>
<path fill-rule="evenodd" clip-rule="evenodd" d="M28.4299 67.5952C28.0245 68.2895 27.6819 68.9527 27.3735 69.019C27.1116 69.0762 23.2315 67.6258 23.2315 67.6258C23.2315 67.6258 18.4539 69.4936 17.8243 69.8372L18.3341 73.3469L20.4275 88.7147C27.1005 90.8402 31.9959 88.2999 31.9959 88.2999C31.9959 88.2999 33.7956 72.4964 32.1986 69.8117C31.2807 68.2679 30.5862 68.188 29.6288 67.8977L28.4299 67.5952Z" fill="#CEDEE7"/>
<path fill-rule="evenodd" clip-rule="evenodd" d="M27.6475 68.9785L26.6727 69.0281C26.6727 69.0281 26.2526 75.8245 28.0001 82.1924C28.514 84.0624 28.9281 85.2185 28.9281 85.2185C28.9281 85.2185 30.0849 84.1728 29.8775 81.6124" fill="#2A8FEC"/>
<path fill-rule="evenodd" clip-rule="evenodd" d="M19.5321 87.7548C19.5321 87.7541 20.7478 87.3942 20.9839 87.3219C21.2194 87.249 21.9888 87.3386 22.5615 87.5213C23.3597 87.7749 23.4674 88.0184 23.4687 88.2646C23.4701 88.6459 22.4605 88.6988 21.6617 88.9644C21.2161 89.1129 20.8347 89.3337 20.3557 89.3337C19.3562 89.3337 19.2745 88.6667 19.2745 88.6667C16.9577 88.4753 10.747 87.2222 10.5322 86.7559C10.2345 86.109 10.662 84.1995 10.662 84.1995C11.2789 83.8429 17.9144 86.98 19.5321 87.7548Z" fill="#F4A48D"/>
<path fill-rule="evenodd" clip-rule="evenodd" d="M29.5703 70.1687L29.0143 67.743L28.4581 67.481L27.3732 69.0193L29.5703 70.1687Z" fill="#9BC3D3"/>
<path fill-rule="evenodd" clip-rule="evenodd" d="M23.7927 70.6457L23.2334 67.626C23.2334 67.626 25.0859 68.2512 27.0469 68.9618L23.7927 70.6457Z" fill="#9BC3D3"/>
<path d="M10.4966 85.3467C10.5722 84.3244 10.9201 82.8405 11.7851 80.7651L14.2305 82.3374C14.2305 82.3374 13.6317 83.9631 12.8556 85.3467H10.4966Z" fill="#F4A48D"/>
<path fill-rule="evenodd" clip-rule="evenodd" d="M19.7578 76.0119L14.0837 83.6028C14.0837 83.6028 11.8257 83.3619 10.982 82.5952C10.1384 81.8285 17.0395 69.5661 17.8243 69.8374" fill="#CEDEE7"/>
<path fill-rule="evenodd" clip-rule="evenodd" d="M14.2237 83.418C14.2237 83.418 11.6901 82.4914 10.9996 81.8297C10.9996 81.8297 10.5681 81.7408 10.4912 81.9321C10.4149 82.1241 10.1754 83.3337 10.2516 83.6027C10.3286 83.871 12.5137 84.8678 13.2998 84.8096C13.2998 84.8096 14.3227 83.9238 14.2237 83.418Z" fill="#9BC3D3"/>
<path fill-rule="evenodd" clip-rule="evenodd" d="M33.4102 128.316H30.3305L30.2028 131.207L33.9017 131.51L35.4297 131.355L34.9266 130.014L34.3797 129.679L33.4102 128.316Z" fill="black"/>
<path fill-rule="evenodd" clip-rule="evenodd" d="M19.4002 128.606L20.9102 130.412L20.6407 131.801L15.3929 130.999L15.9737 128.171L19.4002 128.606Z" fill="black"/>
</svg>
