<svg width="160" height="160" viewBox="0 0 160 160" fill="none" xmlns="http://www.w3.org/2000/svg">
<path d="M60.7113 28.6062C52.5781 37.2571 41.803 42.9033 30.1256 45.0254C23.0378 46.3134 16.2559 49.6988 10.7758 55.1818C-3.57783 69.5425 -3.59413 92.7012 10.7401 107.082C17.0635 113.425 25.1265 116.97 33.3943 117.717C40.4725 118.357 47.1227 121.447 52.0335 126.589C52.0968 126.655 52.1606 126.721 52.2243 126.786C60.6017 135.339 74.1533 135.423 82.6322 126.972C82.6808 126.924 82.729 126.875 82.7767 126.827C85.0417 124.526 88.3109 123.521 91.4786 124.137C109.539 127.647 128.961 122.402 142.95 108.403C165.3 86.0339 165.3 49.7004 142.95 27.331C120.581 4.94412 84.3152 4.94426 61.947 27.3314C61.527 27.7515 61.1151 28.1765 60.7113 28.6062Z" fill="#DEEDF2"/>
<path d="M67.4762 86.7066C67.4762 86.7066 78.1679 94.5566 83.2401 96.7264C91.8638 100.415 87.7992 94.238 87.7992 94.238L94.3966 90.3473L98.4288 97.3009C99.9483 99.6852 100.281 102.183 99.5431 104.69L97.2163 112.473C96.8542 113.684 96.794 114.966 97.041 116.205L98.0935 121.488L78.0199 125.63L76.813 120.01C76.4667 118.397 75.345 117.062 73.8201 116.449L65.3368 113.035L67.4762 86.7066Z" fill="#FFC4B8"/>
<path d="M88.9445 96.8563C88.9437 96.8562 88.943 96.856 88.9423 96.856C89.0058 96.7446 89.0163 96.6225 88.9877 96.495C88.9884 96.495 88.9892 96.4951 88.9895 96.4952C89.0184 96.6228 89.0076 96.7449 88.9445 96.8563Z" fill="#2C9891"/>
<path d="M90.733 97.2495C90.0482 97.2375 89.3941 97.1113 88.7868 96.8926C88.8221 96.7452 88.8295 96.5845 88.8158 96.417C89.3137 96.5593 89.8396 96.6401 90.384 96.6496C93.0696 96.6965 95.3638 94.9972 96.1012 92.6366L96.4539 93.2196C95.7221 95.5886 93.4248 97.2965 90.733 97.2495Z" fill="#F4A48D"/>
<path fill-rule="evenodd" clip-rule="evenodd" d="M84.9138 90.812C84.9679 87.7137 87.5235 85.246 90.6218 85.3001C93.7202 85.3542 96.1879 87.9095 96.1338 91.0078C96.0797 94.1061 93.5243 96.5742 90.426 96.5201C87.3276 96.466 84.8597 93.9103 84.9138 90.812ZM86.5597 90.8407C86.5215 93.0294 88.2649 94.8347 90.4536 94.8729C92.6422 94.9111 94.4474 93.1678 94.4857 90.9791C94.5239 88.7906 92.7805 86.9853 90.592 86.9471C88.4032 86.9089 86.5979 88.6522 86.5597 90.8407Z" fill="#CCCCCC"/>
<path d="M72.7599 82.9393C72.5789 83.3013 87.9726 79.7272 91.7447 67.4675C96.0624 53.4344 90.9383 43.6705 90.9383 43.6705L72.7599 82.9393Z" fill="#CCCCCC"/>
<path d="M121.102 70.9881C95.0136 67.2062 67.4464 67.1885 38.943 69.554C40.3097 51.2301 41.0144 33.6149 39.8566 17.2149C65.8561 15.103 93.2322 15.5077 122.016 18.649C120.097 36.2878 119.841 53.6865 121.102 70.9881Z" fill="#EAF7FE"/>
<path d="M72.1674 115.752C72.1674 115.752 72.1672 115.752 72.1671 115.752L65.7031 112.743L72.1674 115.752Z" fill="#2C9891"/>
<path d="M73.1603 115.407C72.8329 115.401 72.4832 115.37 72.1178 115.317L65.7014 112.774L66.5358 102.634C68.8901 104.513 72.3767 106.913 74.569 106.952C75.0848 106.961 75.5292 106.839 75.87 106.549C77.817 104.893 74.4046 100.795 71.5021 98C71.5937 98.0196 71.6841 98.0352 71.7735 98.0469C74.7923 100.76 79.3788 105.709 77.1896 107.572C76.8488 107.861 76.4049 107.983 75.8894 107.974C75.6955 107.971 75.4917 107.949 75.2796 107.911C75.8804 108.95 76.0333 109.894 75.3865 110.562C75.0391 110.921 74.5302 111.066 73.9188 111.055C73.8749 111.054 73.8306 111.053 73.7858 111.05C75.2025 112.302 76.023 113.593 75.314 114.63C74.919 115.208 74.1401 115.424 73.1603 115.407Z" fill="#F4A48D"/>
<path d="M73.0095 82.5326L70.8466 87.7828L71.533 90.3137L72.0913 92.9417L77.1373 79.9961L73.0095 82.5326Z" fill="#CCCCCC"/>
<path d="M69.0238 95.6991C67.9618 94.7021 65.9175 95.0039 65.169 95.3876C63.3103 96.3401 62.7896 99.0094 64.2966 100.73C66.3468 102.596 73.4236 108.299 75.7528 106.335C78.3044 104.184 71.7935 97.9398 69.0238 95.6991Z" fill="#FFC4B8"/>
<path d="M67.0627 100.516C66.0204 99.7126 64.2113 100.157 63.5734 100.565C61.9891 101.578 61.7589 104.016 63.2651 105.431C65.2719 106.93 72.1339 111.442 74.0509 109.482C76.1508 107.335 69.749 102.29 67.0627 100.516Z" fill="#FFC4B8"/>
<path d="M65.1512 105.724C63.9605 105.069 62.2159 105.848 61.6447 106.385C60.2261 107.717 60.4212 110.299 62.1863 111.51C64.4708 112.721 72.1737 116.225 73.7616 113.848C75.5008 111.243 68.168 107.103 65.1512 105.724Z" fill="#FFC4B8"/>
<path fill-rule="evenodd" clip-rule="evenodd" d="M61.924 29.8388C63.7549 25.9709 68.3832 24.2862 72.2842 26.1324C76.1699 27.9685 77.8305 32.6082 75.9919 36.4914C74.1635 40.3567 69.5288 42.044 65.6304 40.1991C61.7472 38.363 60.0879 33.7233 61.924 29.8388ZM67.4771 36.2967C69.2114 37.1168 71.2751 36.3743 72.0901 34.6463C72.9102 32.9171 72.1715 30.8509 70.4397 30.0333C68.7117 29.2132 66.643 29.9557 65.8267 31.6837C65.0066 33.4142 65.7466 35.4804 67.4771 36.2967Z" fill="#2274C0"/>
<path fill-rule="evenodd" clip-rule="evenodd" d="M83.6435 45.4055C85.4733 41.5378 90.1019 39.8519 94.0044 41.698C97.8892 43.5352 99.5486 48.1734 97.7111 52.0576C95.8826 55.9227 91.2489 57.6099 87.3515 55.765C83.4655 53.9278 81.8061 49.2897 83.6435 45.4055ZM89.1962 51.8632C90.9307 52.6833 92.9944 51.9408 93.8095 50.2129C94.6284 48.4825 93.8884 46.4178 92.159 45.6002C90.4296 44.7789 88.3608 45.5227 87.5457 47.2505C86.7255 48.9797 87.4643 51.0457 89.1962 51.8632Z" fill="#2274C0"/>
<path d="M72.6583 60.4956L68.7773 58.6634L86.6159 21.0386L90.4968 22.8695L72.6583 60.4956Z" fill="#2274C0"/>
<path fill-rule="evenodd" clip-rule="evenodd" d="M69.3769 68.141L69.3777 68.144C72.7743 68.0796 76.1535 68.0608 79.5139 68.0924L79.5151 68.09C76.153 68.0583 72.7749 68.0764 69.3769 68.141Z" fill="#2C9891"/>
<path d="M84.6916 82.6626C84.6916 82.6626 69.5718 79.4064 66.2298 67.0223C62.4045 52.847 67.8664 43.2679 67.8664 43.2679L84.6916 82.6626Z" fill="#CCCCCC"/>
<path d="M84.8195 82.729L86.7715 87.9215L86.0191 89.9991L85.2985 93.1726L80.7539 80.0596L84.8195 82.729Z" fill="#CCCCCC"/>
<path fill-rule="evenodd" clip-rule="evenodd" d="M61.7719 92.5414C60.6442 89.6561 62.0691 86.4027 64.9545 85.2749C67.8397 84.1472 71.0931 85.5719 72.2209 88.4573C73.3488 91.3429 71.9239 94.5961 69.0385 95.724C66.1531 96.8517 62.8997 95.4266 61.7719 92.5414ZM63.3048 91.9417C64.1015 93.9801 66.3997 94.9865 68.4379 94.1898C70.4759 93.3932 71.4825 91.0953 70.6857 89.0569C69.8892 87.0186 67.591 86.0121 65.5528 86.8088C63.5146 87.6054 62.508 89.9035 63.3048 91.9417Z" fill="#CCCCCC"/>
<path d="M80.4516 76.6149C80.4359 77.5142 79.694 78.2308 78.7944 78.215C77.8949 78.1993 77.1785 77.4574 77.1942 76.558C77.2099 75.6584 77.9517 74.9419 78.8513 74.9576C79.7508 74.9733 80.4673 75.7153 80.4516 76.6149Z" fill="#CCCCCC"/>
<path fill-rule="evenodd" clip-rule="evenodd" d="M85.7539 84.1289L86.7634 86.8155L86.7634 86.8153L85.7541 84.1289L85.7539 84.1289ZM92.2215 86.9212C91.8479 86.7985 91.4507 86.7277 91.0375 86.7193C91.4498 86.7276 91.8466 86.7973 92.2196 86.9196C92.2204 86.92 92.221 86.9206 92.2215 86.9212ZM87.187 92.4687L87.1959 92.4812C86.9754 91.962 86.8539 91.39 86.8633 90.7886C86.854 91.3848 86.97 91.9532 87.187 92.4687Z" fill="#2C9891"/>
<path d="M87.9333 94.1269L87.9283 94.1203L87.9351 94.1254L87.9333 94.1269Z" fill="#2C9891"/>
<path d="M87.941 94.1304L87.9224 94.1182L87.9242 94.1168L87.941 94.1304Z" fill="#FFE99F"/>
<path d="M78.0344 72.348L81.2393 73.1887L68.2586 43.2744C68.2586 43.2744 67.5764 44.4542 66.8596 46.5957L78.0344 72.348Z" fill="#CCCCCC"/>
<path d="M93.478 93.9872C94.6003 92.9194 94.9361 91.355 94.4831 89.9849C94.2774 89.6872 88.3666 82.6058 86.11 85.0191C83.806 87.4833 87.3787 92.8382 87.3787 92.8382L88.2136 94.1758C89.7409 95.4329 92.015 95.3796 93.478 93.9872Z" fill="#FFC4B8"/>
<path d="M72.0131 97.6469C71.912 97.6451 71.8092 97.6368 71.7049 97.6225C71.2812 97.2203 70.8901 96.8669 70.5568 96.5793C70.4008 96.4233 70.2222 96.2992 70.0295 96.2023C69.7659 95.9595 69.5202 95.7407 69.2999 95.5506C69.287 95.5377 69.2742 95.5252 69.261 95.5127C70.6604 94.8757 71.6793 93.6854 72.1733 92.2862L72.473 91.5001C73.8616 93.8368 74.6512 96.2387 73.1666 97.3031C72.8229 97.5496 72.4334 97.6542 72.0131 97.6469Z" fill="#F4A48D"/>
<path d="M71.7596 97.6424C71.6506 97.6298 71.5406 97.6132 71.429 97.5925C70.7894 97.0616 70.17 96.5752 69.6133 96.1567C69.8599 96.2585 70.0886 96.3884 70.2885 96.5515C70.7155 96.8522 71.2166 97.2219 71.7596 97.6424Z" fill="#CCCCCC"/>
<path d="M72.2076 92.5819C72.3364 92.2311 72.4369 91.8699 72.5074 91.501C72.5339 91.543 72.5602 91.5853 72.5863 91.6273L72.2076 92.5819Z" fill="#CCCCCC"/>
<path d="M71.3953 97.6362C70.3838 97.4043 69.2538 96.6712 68.1696 95.7603C68.4147 95.6963 68.6589 95.6142 68.9005 95.5132C68.9685 95.4846 69.0359 95.4549 69.1023 95.4239C69.116 95.4373 69.1295 95.4507 69.143 95.4645C69.3743 95.6684 69.632 95.903 69.9086 96.1634C70.3645 96.5925 70.8717 97.0915 71.3953 97.6362Z" fill="#F4A48D"/>
<path fill-rule="evenodd" clip-rule="evenodd" d="M67.4544 86.7063L66.7438 94.6589L66.744 94.6589L67.4544 86.7063ZM68.5 87.3794C68.8466 87.6011 69.2696 87.8701 69.7542 88.1759L69.7538 88.1755C69.2696 87.87 68.8466 87.6011 68.5 87.3794Z" fill="#2C9891"/>
<path d="M67.4665 94.6711L68.0518 86.7163C68.052 86.7165 68.0521 86.7165 68.0523 86.7167L68.0524 86.7169C68.0692 86.7307 68.365 86.9773 68.8653 87.3856C69.1352 87.6059 69.4646 87.8734 69.842 88.1772C70.0674 88.4707 70.3004 88.7856 70.5351 89.1167C70.5417 89.1354 70.5483 89.1544 70.5547 89.1733C71.26 91.2444 70.3583 93.5835 68.5409 94.398C68.1874 94.5565 67.8254 94.6456 67.4665 94.6711Z" fill="#F4A48D"/>
<path d="M68.5413 96.1383C68.1718 95.8263 67.8081 95.4927 67.4569 95.1515L67.5001 94.5899L67.5003 94.5899C67.8887 94.5643 68.2803 94.474 68.6627 94.3131C70.6286 93.4856 71.6019 91.1047 70.8363 88.9947C70.8293 88.9755 70.8221 88.9562 70.815 88.9371C71.4274 89.7494 72.0499 90.6557 72.588 91.575C72.5319 91.8878 72.452 92.1941 72.3498 92.4916C71.8543 93.9325 70.8332 95.1587 69.4312 95.8153C69.3679 95.845 69.3036 95.8736 69.2387 95.901C69.0082 95.998 68.7751 96.0769 68.5413 96.1383Z" fill="#CCCCCC"/>
<path d="M67.529 86.7896C66.8037 86.6232 66.0233 86.6666 65.2782 86.9609C63.4283 87.6917 62.4539 89.7091 62.9652 91.6025C64.6965 93.6267 69.317 98.588 71.7172 96.9244C74.3466 95.1025 69.8975 89.2521 67.529 86.7896Z" fill="#FFC4B8"/>
<path d="M77.2926 128.151L76.7029 125.558L99.2715 120.57L99.9128 123.332L77.2926 128.151Z" fill="white"/>
<path d="M79.3768 147.738L75.2025 128.538L101.211 123.138L108.529 148.247L79.3768 147.738Z" fill="#34466B"/>
<path d="M82.7428 132.229C82.7219 133.428 81.7326 134.384 80.5334 134.363C79.334 134.342 78.3787 133.352 78.3996 132.153C78.4205 130.954 79.4098 129.998 80.6092 130.019C81.8084 130.04 82.7638 131.03 82.7428 132.229Z" fill="black"/>
<path d="M84.0749 138.769C84.0539 139.968 83.0648 140.924 81.8653 140.903C80.6659 140.882 79.7107 139.892 79.7316 138.693C79.7526 137.494 80.7417 136.538 81.9411 136.559C83.1406 136.58 84.0958 137.57 84.0749 138.769Z" fill="black"/>
</svg>
