<svg width="161" height="160" viewBox="0 0 161 160" fill="none" xmlns="http://www.w3.org/2000/svg">
<path fill-rule="evenodd" clip-rule="evenodd" d="M79.6576 14.6132C61.0587 28.0228 45.8888 24.1369 35.7431 22.4702C15.4992 19.1434 7.95355 38.1111 15.3381 52.5103C22.7231 66.9092 28.9094 84.4288 11.1366 98.3202C-6.63576 112.211 13.3687 147.354 42.0129 137.66C70.6568 127.965 102.994 129.336 117.731 139.818C132.468 150.3 164.976 125.796 139.255 101.118C113.534 76.4409 130.323 65.9308 139.105 54.7042C147.887 43.4773 144.292 22.7887 119.72 12.7093C119.72 12.7093 98.2569 1.20397 79.6576 14.6132Z" fill="#EAF7FE"/>
<path fill-rule="evenodd" clip-rule="evenodd" d="M156.283 74.4992C156.283 77.8472 122.225 80.5612 80.2117 80.5612C38.1988 80.5612 4.14062 77.8472 4.14062 74.4992C4.14062 71.1508 38.1988 68.4368 80.2117 68.4368C122.225 68.4368 156.283 71.1508 156.283 74.4992Z" fill="#DEEDF2"/>
<path fill-rule="evenodd" clip-rule="evenodd" d="M51.016 63.8599C51.016 63.8599 50.8643 61.254 50.1676 60.6206C49.3192 59.8495 44.6147 60.6206 43.5352 61.9317C42.4555 63.2428 43.8436 65.3251 44.6918 65.7108C45.5402 66.0964 48.5481 66.2508 48.5481 66.2508L52.6358 67.176L53.0212 64.3226C52.7899 64.3226 51.016 63.8599 51.016 63.8599Z" fill="#EC0000"/>
<path fill-rule="evenodd" clip-rule="evenodd" d="M116.693 61.9321C115.613 60.6209 110.909 59.8496 110.06 60.6209C109.364 61.2541 109.212 63.8602 109.212 63.8602C109.212 63.8602 107.438 64.3227 107.207 64.3227L107.592 67.1763L111.68 66.2511C111.68 66.2511 114.688 66.0968 115.536 65.7111C116.385 65.3254 117.773 63.2432 116.693 61.9321Z" fill="#EC0000"/>
<path fill-rule="evenodd" clip-rule="evenodd" d="M54.0197 101.375H48.9862C47.6929 101.375 46.6445 100.327 46.6445 99.0335V87.3647H56.3614V99.0335C56.3614 100.327 55.3131 101.375 54.0197 101.375Z" fill="#34466B"/>
<path fill-rule="evenodd" clip-rule="evenodd" d="M111.531 101.375H106.498C105.205 101.375 104.156 100.327 104.156 99.0335V87.3647H113.873V99.0335C113.873 100.327 112.825 101.375 111.531 101.375Z" fill="#34466B"/>
<path d="M63.5156 94.4831L65.7378 95.6127H92.6293L96.8855 94.4831C96.8855 94.4831 96.2449 91.3191 95.906 91.2063C95.5669 91.0933 88.2227 89.8503 88.2227 89.8503C88.2227 89.8503 82.6861 89.9634 82.0083 89.9634C81.3303 89.9634 70.8222 91.4322 70.8222 91.4322L65.6247 93.1271L63.5156 94.4831Z" fill="black"/>
<path fill-rule="evenodd" clip-rule="evenodd" d="M114.361 74.2955C114.361 73.3058 113.716 71.6707 113.197 70.5148C112.816 69.6655 112.2 68.9431 111.421 68.4345L109.089 66.9136C109.089 66.9136 103.364 51.0952 99.8988 50.1911C98.5394 49.8364 93.0415 49.271 88.1369 48.815C82.5605 48.2961 76.9481 48.3117 71.3743 48.8582C66.8033 49.3065 61.8194 49.8477 60.5028 50.1911C57.0377 51.0952 51.3129 66.9136 51.3129 66.9136L48.9809 68.4345C48.2013 68.9431 47.5865 69.665 47.2051 70.5139C46.6855 71.6702 46.0401 73.3055 46.0401 74.2955C46.0401 75.9527 45.7389 83.9375 46.3413 88.457C46.6553 90.8107 47.1324 92.3471 47.5178 93.2793C47.8188 94.0075 48.5265 94.4831 49.3145 94.4831H63.516L66.6797 93.73H78.2045H79.0332H93.7219L96.8858 94.4831H111.087C111.875 94.4831 112.583 94.0075 112.884 93.2793C113.269 92.3471 113.746 90.8107 114.06 88.457C114.663 83.9375 114.361 75.9527 114.361 74.2955Z" fill="#EC0000"/>
<path fill-rule="evenodd" clip-rule="evenodd" d="M80.3153 65.2557L54.1016 65.1057C54.1016 65.1057 57.416 68.2696 59.6758 70.3788C61.9356 72.4879 64.0448 74.1451 70.3721 74.2956C75.9701 74.429 79.561 74.3265 80.3153 74.3008C81.0696 74.3265 84.6605 74.429 90.2583 74.2956C96.5859 74.1451 98.695 72.4879 100.955 70.3788C103.214 68.2696 106.529 65.1057 106.529 65.1057L80.3153 65.2557Z" fill="#CC0000"/>
<path fill-rule="evenodd" clip-rule="evenodd" d="M104.086 57.6131C103.189 55.7118 101.676 53.6658 100.811 52.5649C100.401 52.0427 99.8081 51.6949 99.1515 51.5934C89.4682 50.0984 82.4864 50.0192 80.2508 50.0404C78.0152 50.0192 71.0331 50.0984 61.3498 51.5934C60.6934 51.6949 60.1001 52.0427 59.69 52.5649C58.8257 53.6658 57.313 55.7118 56.4152 57.6131C55.1041 60.3894 52.0964 64.7855 56.4922 64.7855H79.484H81.0176H104.009C108.405 64.7855 105.397 60.3894 104.086 57.6131Z" fill="#DEEDF2"/>
<path fill-rule="evenodd" clip-rule="evenodd" d="M63.2812 76.8937H96.5985V76.2766H63.2812V76.8937Z" fill="#CC0000"/>
<path fill-rule="evenodd" clip-rule="evenodd" d="M63.2812 78.128H96.5985V77.511H63.2812V78.128Z" fill="#CC0000"/>
<path fill-rule="evenodd" clip-rule="evenodd" d="M63.2812 79.3614H96.5985V78.7444H63.2812V79.3614Z" fill="#CC0000"/>
<path fill-rule="evenodd" clip-rule="evenodd" d="M65.8364 84.2207H95.6672C96.4907 84.2207 96.9373 85.1833 96.4062 85.8121L93.4134 89.3536C93.2295 89.571 92.9593 89.6963 92.6747 89.6963H69.0287C68.7548 89.6963 68.4937 89.5801 68.3103 89.3766L65.1179 85.8354C64.557 85.2131 64.9986 84.2207 65.8364 84.2207Z" fill="#34466B"/>
<path fill-rule="evenodd" clip-rule="evenodd" d="M89.237 85.6857H70.6521C70.2683 85.6857 69.957 85.3744 69.957 84.9907V81.5219C69.957 81.1382 70.2683 80.8269 70.6521 80.8269H89.237C89.621 80.8269 89.932 81.1382 89.932 81.5219V84.9907C89.932 85.3744 89.621 85.6857 89.237 85.6857Z" fill="white"/>
<path fill-rule="evenodd" clip-rule="evenodd" d="M49.36 82.0892L50.6821 86.8695C50.9764 87.9335 51.8502 88.7372 52.935 88.9417L60.9155 90.4451C61.2908 90.5156 61.665 90.3162 61.8155 89.9651C61.935 89.6862 61.8899 89.3641 61.6979 89.1291L59.4229 86.3403C58.0674 84.6788 56.2302 83.4786 54.1643 82.9045L49.7665 81.6831C49.5193 81.6143 49.2916 81.8418 49.36 82.0892Z" fill="#723846"/>
<path fill-rule="evenodd" clip-rule="evenodd" d="M53.1009 88.0534C52.3607 87.9139 51.7526 87.3547 51.5519 86.6285L50.5 82.8254L53.921 83.7758C55.8172 84.3024 57.477 85.387 58.721 86.9117L60.8418 89.5116L53.1009 88.0534Z" fill="white"/>
<path fill-rule="evenodd" clip-rule="evenodd" d="M61.216 76.2917C61.216 76.2917 59.6341 77.9866 57.1484 78.2127L60.651 80.5856L61.216 76.2917Z" fill="#CC0000"/>
<path fill-rule="evenodd" clip-rule="evenodd" d="M54.2224 69.9725L60.3297 73.7772C60.7998 74.0698 60.7674 74.7646 60.2721 75.0123L56.475 76.9107C56.1549 77.0707 55.7896 77.1175 55.4394 77.0429L50.0625 75.8988C49.3739 75.7524 48.8651 75.1678 48.815 74.4658L48.551 70.7683C48.4924 69.9511 49.0684 69.2249 49.8777 69.0953C51.3844 68.8543 52.9274 69.1659 54.2224 69.9725Z" fill="white"/>
<path fill-rule="evenodd" clip-rule="evenodd" d="M111.154 82.0892L109.832 86.8695C109.538 87.9335 108.664 88.7372 107.579 88.9417L99.5988 90.4451C99.2232 90.5156 98.8492 90.3162 98.6988 89.9651C98.5792 89.6862 98.6244 89.3641 98.8164 89.1291L101.091 86.3403C102.447 84.6788 104.284 83.4786 106.35 82.9045L110.748 81.6831C110.995 81.6143 111.223 81.8418 111.154 82.0892Z" fill="#723846"/>
<path fill-rule="evenodd" clip-rule="evenodd" d="M107.409 88.0534C108.149 87.9139 108.757 87.3547 108.958 86.6285L110.01 82.8254L106.589 83.7758C104.693 84.3024 103.033 85.387 101.789 86.9117L99.668 89.5116L107.409 88.0534Z" fill="white"/>
<path fill-rule="evenodd" clip-rule="evenodd" d="M99.293 76.2917C99.293 76.2917 100.875 77.9866 103.36 78.2127L99.8579 80.5856L99.293 76.2917Z" fill="#CC0000"/>
<path fill-rule="evenodd" clip-rule="evenodd" d="M106.285 69.9725L100.178 73.7772C99.7076 74.0698 99.74 74.7646 100.235 75.0123L104.032 76.9107C104.353 77.0707 104.718 77.1175 105.068 77.0429L110.445 75.8988C111.134 75.7524 111.642 75.1678 111.692 74.4658L111.957 70.7683C112.015 69.9511 111.439 69.2249 110.63 69.0953C109.123 68.8543 107.58 69.1659 106.285 69.9725Z" fill="white"/>
<path d="M90.219 114.018C90.1963 114.017 90.1741 114.017 90.1517 114.017C90.2621 114.017 90.3709 114.017 90.4773 114.017C90.4213 114.017 90.3333 114.017 90.219 114.018Z" fill="#767676"/>
<path fill-rule="evenodd" clip-rule="evenodd" d="M108.654 77.3074C100.46 76.304 98.5812 83.1442 89.5801 85.1371C89.5801 85.1371 78.3565 85.4306 80.1872 88.898C80.664 89.8009 82.0841 90.5149 83.2373 90.7426C80.7943 91.0733 79.0018 91.4262 79.0018 91.4262C65.9335 84.3808 63.1367 87.9767 63.1367 87.9767L79.4405 95.4702C79.4405 95.4702 100.695 94.768 101.117 94.7406C101.539 94.7134 108.062 85.1982 108.062 85.1982L149.942 100.339L152.862 89.8665C152.862 89.8665 111.124 77.61 108.654 77.3074Z" fill="#A66555"/>
<path fill-rule="evenodd" clip-rule="evenodd" d="M60.4076 87.998C62.2949 86.6569 67.3427 85.965 76.3144 92.859C76.3144 92.859 83.4355 91.7609 89.9649 94.928C89.9649 94.928 106.933 78.5915 111.445 78.3378C115.957 78.0844 152.864 89.8668 152.864 89.8668L155.671 102.964L143.503 105.572L115.441 90.3243C115.441 90.3243 97.9475 102.1 95.4835 103.734C92.3039 105.842 82.2412 99.0853 75.7261 97.9799C73.5021 97.6027 63.6108 91.6563 60.4899 89.7554C59.8474 89.3641 59.7946 88.4338 60.4076 87.998Z" fill="#F4A48D"/>
<path fill-rule="evenodd" clip-rule="evenodd" d="M117.07 99.9918L123.9 80.6414L156.094 90.1221L160.14 105.096L142.397 108.683L117.07 99.9918Z" fill="white"/>
<path fill-rule="evenodd" clip-rule="evenodd" d="M117.07 99.9916L127.186 81.6089L160.14 105.096L142.397 108.683L117.07 99.9916Z" fill="#767676"/>
<path fill-rule="evenodd" clip-rule="evenodd" d="M119.82 102.48L127.487 80.7583L160.141 91.2518V119.102L119.82 102.48Z" fill="#444444"/>
<path fill-rule="evenodd" clip-rule="evenodd" d="M126.472 100.265C126.59 101.077 126.022 101.867 125.204 102.029C124.385 102.191 123.626 101.664 123.508 100.852C123.39 100.039 123.958 99.2496 124.776 99.0876C125.595 98.9255 126.354 99.4528 126.472 100.265Z" fill="#767676"/>
<path fill-rule="evenodd" clip-rule="evenodd" d="M129.809 103.774C128.99 103.936 128.231 103.409 128.113 102.597C127.995 101.784 128.563 100.995 129.382 100.833C130.2 100.671 130.96 101.198 131.078 102.01C131.195 102.822 130.628 103.612 129.809 103.774Z" fill="#767676"/>
<path fill-rule="evenodd" clip-rule="evenodd" d="M54.9766 45.7217C54.9766 45.7217 68.6166 50.1674 74.464 43.2634L82.2345 44.2111C82.2345 44.2111 86.7515 55.7697 91.3449 54.3727C93.32 53.7722 90.9111 51.4282 85.522 41.2285C85.522 41.2285 78.0905 35.7711 66.1647 35.2998L54.9766 45.7217Z" fill="#F4A48D"/>
<path fill-rule="evenodd" clip-rule="evenodd" d="M0.140625 62.4026L30.5392 42.8209C31.2692 42.3507 31.9557 41.8189 32.6167 41.2561C34.0283 40.0538 35.7655 39.1443 37.69 38.6085C46.424 36.1766 68.5463 30.4607 71.2793 30.4365C72.6338 30.4245 81.8626 40.3765 84.1721 43.2122C84.5876 43.7221 84.8569 44.3014 84.9634 44.9116C85.4992 47.9821 87.1269 57.7037 86.3804 58.3864C85.4928 59.198 81.5908 59.4956 78.923 45.6141L69.2718 42.0735L66.3847 46.4842C66.3847 46.4842 55.8404 56.4513 42.3671 50.5157L0.140625 90.4067V62.4026Z" fill="#F4A48D"/>
<path fill-rule="evenodd" clip-rule="evenodd" d="M31.5324 42.2715C31.5324 42.2715 35.618 48.6989 41.9727 50.8878L38.8893 54.0148L30.3555 43.3828L31.5324 42.2715Z" fill="#A66555"/>
<path fill-rule="evenodd" clip-rule="evenodd" d="M44.8599 60.967L31.3698 42.146L3.29297 61.2758L3.79252 82.1842L20.0443 80.0034L44.8599 60.967Z" fill="white"/>
<path fill-rule="evenodd" clip-rule="evenodd" d="M44.8567 60.9666L28.0967 44.439L1.72656 82.4607L20.041 80.0031L44.8567 60.9666Z" fill="#767676"/>
<path fill-rule="evenodd" clip-rule="evenodd" d="M43.0617 64.5846L27.918 43.4568L0.140625 61.05V97.0481L43.0617 64.5846Z" fill="#34466B"/>
<path fill-rule="evenodd" clip-rule="evenodd" d="M36.3893 64.7543C36.4747 65.3917 37.0605 65.839 37.6978 65.7534C38.3349 65.6679 38.7824 65.082 38.6971 64.4446C38.6117 63.8073 38.026 63.36 37.3886 63.4455C36.7515 63.531 36.304 64.117 36.3893 64.7543Z" fill="#767676"/>
<path fill-rule="evenodd" clip-rule="evenodd" d="M33.3698 67.2214C33.4551 67.8587 34.0409 68.3062 34.6781 68.2205C35.3154 68.1352 35.7629 67.549 35.6775 66.9117C35.5922 66.2744 35.0064 65.8271 34.3691 65.9126C33.7319 65.9981 33.2845 66.584 33.3698 67.2214Z" fill="#767676"/>
<path fill-rule="evenodd" clip-rule="evenodd" d="M67.302 46.6696L65.7007 44.3564C65.5907 44.2556 65.5912 43.6714 66.0558 43.8684C67.0887 44.3063 66.9976 45.7232 69.2705 42.251L67.302 46.6696Z" fill="#A66555"/>
<path d="M87.2983 61.829C87.3207 60.9517 87.091 60.0587 86.584 59.2637C85.2332 57.1453 82.4258 56.5262 80.3134 57.8809C78.201 59.2356 77.5836 62.051 78.9346 64.1694C79.8986 65.6813 81.6048 66.4293 83.2706 66.2414" stroke="#DEEDF2" stroke-width="1.536"/>
<path fill-rule="evenodd" clip-rule="evenodd" d="M82.5974 65.6846C83.7995 65.8423 83.7069 67.3796 82.5049 67.2217C81.3028 67.0642 81.3954 65.5269 82.5974 65.6846ZM78.489 67.6837L78.3964 69.222C78.289 71.0054 79.6855 72.6456 81.5154 72.8856L82.6679 73.0369C84.4978 73.2769 86.0682 72.0259 86.1756 70.2426L86.2682 68.7039C86.3754 66.9206 84.9792 65.2805 83.1493 65.0403L81.9621 64.363C80.1322 64.1228 78.5964 65.9002 78.489 67.6837Z" fill="black"/>
<path fill-rule="evenodd" clip-rule="evenodd" d="M84.131 69.3457L83.6734 76.9469L84.6864 77.0597L84.3912 77.6559L83.6 78.1669L83.5893 78.3443L84.5653 78.4095L84.3072 79.0533L83.5159 79.5642L83.5052 79.7418L84.4812 79.8069L84.2231 80.4508L83.6686 80.8076L83.4053 81.4017L81.5089 82.9066L79.8906 80.9407L80.4135 72.2549L80.8108 71.5935L84.131 69.3457Z" fill="#767676"/>
<path fill-rule="evenodd" clip-rule="evenodd" d="M83.7136 80.3408L83.686 80.7822L81.7889 82.2859L80.1719 80.3204L80.8977 68.2649L84.4117 68.7243L84.0421 74.8812L83.9772 75.9438L83.9552 76.3264L84.6716 77.0348L83.8801 77.5461L83.87 77.7234L84.5879 78.4329L83.7962 78.9442L83.7861 79.1214L84.504 79.8309L83.7136 80.3408Z" fill="#CCCCCC"/>
<path fill-rule="evenodd" clip-rule="evenodd" d="M81.6214 81.2064L80.9688 80.0418L81.6527 68.6821L82.3696 68.7762L81.6214 81.2064Z" fill="#767676"/>
<path fill-rule="evenodd" clip-rule="evenodd" d="M82.8925 67.1113C81.6895 66.9545 81.7986 65.1382 83.0017 65.295C84.2034 65.4532 84.0945 67.2696 82.8925 67.1113ZM86.598 69.5354L86.6903 67.9971C86.7984 66.2138 85.4019 64.5747 83.5719 64.3329L82.419 64.1815C80.651 63.95 79.1241 65.1112 78.9273 66.8003C78.9203 66.8581 78.9148 66.9169 78.9107 66.977L78.8185 68.5153C78.765 69.3904 79.0746 70.2318 79.6215 70.8885C80.1866 71.571 81.0053 72.0568 81.9369 72.1793L83.0899 72.331C84.9194 72.5701 86.4899 71.3187 86.598 69.5354Z" fill="#444444"/>
<path d="M82.9102 67.329C83.5411 67.4119 84.0826 66.9806 84.1196 66.3657C84.1566 65.7509 83.6751 65.1852 83.0442 65.1025" stroke="#444444" stroke-width="1.4475"/>
<path d="M79.9805 71.3765C80.5156 71.7889 81.1958 72.0814 81.9463 72.1798L83.0989 72.331C83.7979 72.4227 84.4569 72.3329 85.0094 72.1045" stroke="#444444" stroke-width="0.5885"/>
<path fill-rule="evenodd" clip-rule="evenodd" d="M83.0472 65.1025C82.4163 65.0196 81.8749 65.4511 81.838 66.0659C81.8008 66.6808 82.2822 67.2463 82.9132 67.329" fill="black"/>
<path fill-rule="evenodd" clip-rule="evenodd" d="M85.5714 64.926C86.7718 64.7558 87.0944 66.2616 85.8941 66.4318C84.6937 66.6019 84.3711 65.0961 85.5714 64.926ZM82.1481 67.952L82.4711 69.4591C82.8453 71.2061 84.63 72.4123 86.4574 72.1533L87.6083 71.9901C89.4355 71.7312 91.0085 69.9844 90.6085 67.8511L89.9161 66.8511C89.5418 65.1042 87.7569 63.898 85.9297 64.157L84.6046 63.8223C82.7772 64.0813 81.7737 66.2052 82.1481 67.952Z" fill="black"/>
<path fill-rule="evenodd" clip-rule="evenodd" d="M88.1459 67.9229L89.7416 75.3689L90.7477 75.2061L90.623 75.8596L89.9976 76.5637L90.0348 76.7378L90.9926 76.539L90.9164 77.2285L90.2909 77.9326L90.3281 78.1067L91.286 77.9079L91.2097 78.5973L90.7711 79.0898L90.6767 79.7326L89.2527 81.6905L87.167 80.2301L85.3438 71.7216L85.5494 70.978L88.1459 67.9229Z" fill="#767676"/>
<path fill-rule="evenodd" clip-rule="evenodd" d="M90.6901 78.6285L90.7818 79.061L89.3571 81.018L87.2725 79.5575L86.3705 75.3465L86.1466 74.3046L84.7422 67.7481L88.2506 67.2493L89.5441 73.2804L89.7662 74.3216L89.8476 74.696L90.7276 75.1867L90.102 75.8912L90.1397 76.0647L91.0213 76.5559L90.3957 77.2606L90.4334 77.4342L91.3152 77.9254L90.6901 78.6285Z" fill="#CCCCCC"/>
<path fill-rule="evenodd" clip-rule="evenodd" d="M88.9033 80.0235L87.9627 79.0763L85.5781 67.9485L86.294 67.8472L88.9033 80.0235Z" fill="#767676"/>
<path fill-rule="evenodd" clip-rule="evenodd" d="M86.6051 65.9936C85.4976 66.4885 84.6414 64.8828 85.7488 64.3879C86.8561 63.8948 87.7125 65.5003 86.6051 65.9936ZM90.5742 67.4446L90.2508 65.9377C89.8773 64.1907 88.0928 62.9857 86.265 63.2431L85.1136 63.406C83.3482 63.6565 82.1882 65.1845 82.4512 66.8645C82.4601 66.9221 82.4704 66.9804 82.4826 67.0392L82.8058 68.5461C82.9888 69.4035 83.5125 70.131 84.2153 70.6174C84.9426 71.1235 85.8615 71.3722 86.7918 71.2406L87.9433 71.0778C89.7701 70.8181 90.9479 69.1916 90.5742 67.4446Z" fill="#444444"/>
<path fill-rule="evenodd" clip-rule="evenodd" d="M86.4283 66.307C87.0582 66.2177 87.4644 65.6572 87.3353 65.0549C87.2063 64.4526 86.5908 64.0366 85.9609 64.1258" fill="black"/>
<path d="M84.6914 70.9922C85.3175 71.2466 86.0511 71.346 86.8006 71.2398L87.9515 71.0766C88.6495 70.9776 89.2605 70.7147 89.7316 70.3467" stroke="#444444" stroke-width="0.5885"/>
<path d="M84.9766 65.4953C86.3711 65.1175 87.2635 63.1195 87.2964 61.8286" stroke="#DEEDF2" stroke-width="1.536"/>
<path fill-rule="evenodd" clip-rule="evenodd" d="M85.9622 64.126C85.3322 64.2154 84.9261 64.7761 85.0552 65.3782C85.1842 65.9807 85.7995 66.3966 86.4296 66.3071" fill="black"/>
<path fill-rule="evenodd" clip-rule="evenodd" d="M39.7773 49.9544C39.7773 49.9544 47.7181 52.8584 57.0945 53.2977C62.375 53.545 67.5405 54.8195 72.3036 56.9438C73.4849 57.4707 74.6218 57.9795 75.5861 58.414C79.8357 60.329 82.5158 63.9727 84.3277 60.809C86.1395 57.6453 79.6284 53.3116 74.0257 51.279C68.4232 49.2463 65.3279 40.4478 65.3279 40.4478L39.7773 49.9544Z" fill="#F4A48D"/>
</svg>
