<svg width="160" height="161" viewBox="0 0 160 161" fill="none" xmlns="http://www.w3.org/2000/svg">
<g clip-path="url(#clip0_1483_70248)">
<path fill-rule="evenodd" clip-rule="evenodd" d="M91.5977 160.574V153.071L87.2719 150.347L79.8555 164.643C79.8555 164.643 80.3617 165.207 82.2048 166.359C84.0474 167.509 86.8607 167.174 89.171 165.503C91.481 163.829 91.5977 160.574 91.5977 160.574ZM65.2098 176.683C65.9701 175.925 65.2098 174.532 65.2098 174.532L61.7541 166.096L59.7951 162.804L56.6002 165.731L53.5254 177.442H63.3282C63.3282 177.442 64.45 177.442 65.2098 176.683Z" fill="#34466B"/>
<path fill-rule="evenodd" clip-rule="evenodd" d="M106.726 118.721L97.377 94.7168L83.9974 102.179L95.6768 126.17C95.6768 126.17 93.7701 128.196 92.1543 131.844C91.2432 133.901 90.8881 136.148 90.5633 138.203C90.312 139.794 90.0789 141.269 89.6204 142.453C88.5702 145.166 87.025 150.347 87.025 150.347C87.025 150.347 86.6757 153.167 88.385 154.417C90.0944 155.667 91.3511 154.417 91.3511 154.417C91.3511 154.417 103.463 132.77 104.39 131.104C104.652 130.633 105.031 130.207 105.44 129.747C106.476 128.581 107.702 127.2 107.702 124.34C107.702 120.349 106.726 118.721 106.726 118.721ZM61.5085 166.096L81.9585 103.66L67.5205 100.042L56.1934 166.589C56.1934 166.589 57.5975 165.292 58.9748 164.924C60.3511 164.556 61.5085 166.096 61.5085 166.096Z" fill="#F6C854"/>
<path fill-rule="evenodd" clip-rule="evenodd" d="M92.7086 82.7114L107.627 119.434C107.627 119.434 109.058 125.213 105.427 130.164C104.889 130.899 94.4796 151.011 93.541 151.011C90.6251 151.011 87.9385 150.188 86.6199 146.817C86.1766 145.683 94.0563 124.152 94.0563 124.152L83.2423 100.499L64.9944 161.472C64.9944 161.472 64.244 162.41 62.7952 162.807C62.0307 163.018 61.0704 163.078 59.9237 162.77C57.9772 162.248 56.9896 161.473 56.5206 160.698C55.701 159.347 56.4626 157.998 56.4626 157.998L69.4916 82.7114H92.7086Z" fill="#137E84"/>
<path fill-rule="evenodd" clip-rule="evenodd" d="M86.1 24.2143C84.5709 22.0054 84.076 19.1232 85.0169 16.3906C86.5868 11.8315 91.5628 9.40441 96.1221 10.9743C100.332 12.4238 102.724 16.7774 101.83 21.0253C101.773 21.4803 101.69 21.9316 101.586 22.3758L101.586 22.3766L101.584 22.3865L101.583 22.3899C101.552 22.5228 101.52 22.655 101.485 22.7864L99.8594 29.3567L98.4152 29.3443L98.4006 29.3427L98.4005 29.3427C98.3301 29.4427 98.2917 29.4966 98.2917 29.4966L97.9595 30.3467L97.341 31.9365C97.1353 32.4623 96.8439 32.9465 96.4805 33.371C96.2254 33.6711 95.9317 33.9415 95.6064 34.1744C95.2245 34.4476 94.8054 34.6663 94.3679 34.8223C94.1395 34.9046 93.9054 34.9675 93.6675 35.0135C93.5415 35.038 93.4175 35.0577 93.2907 35.0725L93.2898 35.0726L90.3792 45.3329C90.3792 45.3329 87.1349 45.2064 84.1582 43.3954C82.3577 42.3043 80.6545 40.5929 79.824 37.9258C79.824 37.9258 84.4365 30.542 86.1 24.2143Z" fill="#FFC4B8"/>
<path fill-rule="evenodd" clip-rule="evenodd" d="M84.2312 43.2868C82.4306 42.1957 80.7275 40.4843 79.897 37.8172C79.897 37.8172 84.858 29.9118 86.3301 23.4322C86.3301 23.4322 87.0611 36.1008 84.2312 43.2868ZM98.4027 29.3799C97.9036 29.3568 97.5799 28.847 97.7717 28.3862L99.0078 25.4155L98.4027 29.3799Z" fill="#F4A48D"/>
<g clip-path="url(#clip1_1483_70248)">
<path fill-rule="evenodd" clip-rule="evenodd" d="M86.1254 24.4675L85.801 25.6226L85.7429 25.7851C84.7593 24.3395 84.1425 22.616 84.0356 20.742C83.7213 15.2338 87.9259 10.5078 93.4262 10.1869C97.4377 9.95256 101.033 12.1266 102.805 15.4584C103.375 16.282 104.753 16.6984 106.12 16.9068C107.484 17.1149 107.722 18.9936 106.439 19.5052C105.557 19.8571 104.466 20.1156 103.14 20.1541L103.14 20.1409C103.103 20.1467 103.065 20.152 103.028 20.1568C102.853 20.1602 102.674 20.1598 102.491 20.1553C101.724 20.1364 101.031 19.9883 100.407 19.7493C98.3561 18.8788 96.4703 16.7897 95.575 14.068C95.454 13.7003 93.6215 16.6011 92.6086 18.2787C92.0152 19.2616 91.1846 22.962 90.8494 24.5354L90.5852 25.2933L89.428 25.8455L89.4525 25.4904L89.4341 25.4936C89.4823 25.2588 89.717 23.4009 89.6631 22.4896C89.5611 20.765 88.584 19.4171 87.4826 19.4814C86.3811 19.5457 85.5698 20.9981 85.6718 22.7226C85.7028 23.2452 85.814 23.7331 85.9847 24.1577C85.9922 24.194 86.0088 24.2342 86.0356 24.2784C86.0642 24.3431 86.0941 24.4062 86.1254 24.4675Z" fill="#9BC3D3"/>
</g>
<path fill-rule="evenodd" clip-rule="evenodd" d="M48.0242 48.6013L68.6773 39.2322L67.0727 50.0684L48.621 57.1823L35.2695 72.6773L36.7598 76.5385C37.1823 77.6333 37.2104 78.8409 36.8394 79.9541L35.8353 82.9662C35.6719 83.4563 35.2134 83.7868 34.6968 83.7868C33.9053 83.7868 33.3306 83.0344 33.5388 82.271L33.7101 81.6428L32.2483 82.7149C28.3501 83.3969 25.7188 77.4525 25.7188 77.4525L29.6494 72.8721L38.0729 58.8933C40.5675 54.7534 43.9704 51.234 48.0242 48.6013ZM108.065 67.7429L106.023 63.2244L112.065 57.4748L114.112 64.1987L126.586 78.6218L130.584 84.2979C131.106 85.0397 131.093 86.033 130.552 86.7611L129.877 87.6689C129.217 88.5563 127.928 88.6628 127.131 87.8957L124.093 84.9703C123.445 84.3455 123.078 83.4836 123.078 82.5831V81.0582L115.849 76.5967C112.43 74.4867 109.72 71.4035 108.065 67.7429Z" fill="#FFC4B8"/>
<path fill-rule="evenodd" clip-rule="evenodd" d="M71.3952 35.4714L79.2884 34.086L81.1713 31.7471L86.4341 36.2299L87.4084 45.5852L93.2561 36.2299L98.6133 39.3701C102.518 41.6591 105.799 44.8748 108.167 48.7328L115.086 60.0084L105.73 66.0503L100.468 60.0084L96.7643 83.7867L99.6123 93.184C100.13 94.8925 98.8263 96.6078 97.0412 96.5663L67.0726 95.8709L65.9683 56.3051L62.6548 53.7712L58.5615 56.1104L50.9805 46.6809L63.3922 38.6202C65.8208 37.0429 68.543 35.9719 71.3952 35.4714Z" fill="#2A8FEC"/>
</g>
<defs>
<clipPath id="clip0_1483_70248">
<rect width="80.607" height="160" fill="white" transform="translate(39.5 0.718262)"/>
</clipPath>
<clipPath id="clip1_1483_70248">
<rect width="21.5819" height="17.6815" fill="white" transform="translate(87.8164 7.46191) rotate(19)"/>
</clipPath>
</defs>
</svg>
