<svg width="160" height="160" viewBox="0 0 160 160" fill="none" xmlns="http://www.w3.org/2000/svg">
<path fill-rule="evenodd" clip-rule="evenodd" d="M60.8205 24.5975C52.6728 33.264 41.8782 38.9203 30.1798 41.0463C23.0793 42.3366 16.2852 45.7281 10.7952 51.221C-3.58427 65.6075 -3.60059 88.8079 10.7595 103.214C17.0942 109.569 25.1717 113.12 33.4544 113.869C40.5453 114.509 47.2075 117.605 52.1272 122.756C52.1906 122.823 52.2544 122.889 52.3183 122.954C60.7107 131.522 74.2867 131.607 82.7809 123.141C82.8296 123.092 82.8779 123.043 82.9257 122.995C85.1947 120.69 88.4698 119.684 91.6432 120.3C109.736 123.816 129.194 118.563 143.207 104.538C165.598 82.1286 165.598 45.7297 143.207 23.3201C120.798 0.892868 84.4669 0.893021 62.0585 23.3204C61.6378 23.7413 61.2251 24.167 60.8205 24.5975Z" fill="#DEEDF2"/>
<path fill-rule="evenodd" clip-rule="evenodd" d="M78.8579 46.8813C79.3137 47.2554 79.7639 47.6074 80.2079 47.9382L80.4998 47.4097C80.063 47.0846 79.6195 46.738 79.1701 46.3691L78.8579 46.8813ZM82.0061 48.961C82.4801 49.2521 82.9464 49.5193 83.4052 49.7638L83.6397 49.2542C83.1904 49.0151 82.7332 48.7529 82.2681 48.4671L82.0061 48.961ZM85.4446 50.9634C85.9444 51.2255 86.4341 51.4551 86.9138 51.653L87.0711 51.0331C86.6049 50.8406 86.1278 50.6175 85.6401 50.3614L85.4446 50.9634ZM88.8397 52.0722C89.3727 52.2317 89.8915 52.3505 90.3959 52.4306L90.4533 51.7603C89.9677 51.6832 89.467 51.5688 88.9514 51.4141L88.8397 52.0722ZM92.6786 52.5376C92.8033 52.5379 92.9269 52.5358 93.0496 52.5313C93.4777 52.5153 93.8936 52.4696 94.2967 52.3961L94.2174 51.6856C93.8332 51.7559 93.4365 51.7994 93.027 51.8147C92.9097 51.8191 92.7915 51.8214 92.6721 51.8208L92.6786 52.5376ZM96.6302 51.7581C97.1473 51.5905 97.6383 51.383 98.1018 51.1406L97.8755 50.6409C97.4367 50.8701 96.9721 51.0669 96.4811 51.2257L96.6302 51.7581ZM99.7158 50.2086C100.179 49.8419 100.607 49.4378 101 49.0034L100.612 48.5671C100.241 48.9784 99.8352 49.3611 99.3971 49.7078L99.7158 50.2086ZM102.42 47.4517C102.753 47.0093 103.047 46.5461 103.301 46.0682L102.814 45.8283C102.573 46.2818 102.295 46.7213 101.979 47.1408L102.42 47.4517ZM104.018 43.8749C104.216 43.2041 104.364 42.5231 104.46 41.8409L103.849 41.7344C103.758 42.3793 103.618 43.025 103.43 43.6609L104.018 43.8749ZM104.771 40.1009C104.77 40.0531 104.769 40.0052 104.767 39.9576C104.752 39.461 104.683 38.9726 104.56 38.4986L103.91 38.616C104.025 39.0579 104.089 39.5156 104.104 39.9823C104.105 40.027 104.106 40.0719 104.107 40.1169L104.771 40.1009ZM103.861 36.5846C103.613 36.0954 103.301 35.6351 102.924 35.2153L102.474 35.5496C102.819 35.9344 103.106 36.3568 103.335 36.8086L103.861 36.5846ZM101.359 33.809C100.931 33.4797 100.453 33.197 99.9243 32.9695L99.7247 33.4932C100.215 33.704 100.655 33.9644 101.047 34.2668L101.359 33.809ZM97.9252 32.6318C97.4247 32.5304 96.8915 32.4713 96.3252 32.4592L96.3156 33.0418C96.8553 33.0534 97.3602 33.1095 97.8308 33.205L97.9252 32.6318ZM94.2829 32.4019C93.7798 32.4625 93.255 32.5558 92.7084 32.6841L92.818 33.2587C93.3484 33.134 93.8559 33.044 94.3404 32.9859L94.2829 32.4019ZM90.7602 33.3081C90.2217 33.5797 89.7697 33.9296 89.4047 34.3436L89.8209 34.6826C90.1399 34.3211 90.5327 34.0162 91.0111 33.7745L90.7602 33.3081ZM88.0385 36.1669C87.8158 36.6522 87.678 37.1777 87.6155 37.7344L88.2705 37.7676C88.3286 37.249 88.4566 36.7677 88.6568 36.3313L88.0385 36.1669ZM87.7705 40.0865C87.8225 40.5932 87.9162 41.1171 88.0488 41.6538L88.6316 41.5358C88.5038 41.0175 88.4137 40.5146 88.3643 40.0319L87.7705 40.0865ZM88.6699 43.2497C88.8459 43.887 89.0482 44.5339 89.275 45.186L89.8101 44.9292C89.5881 44.2919 89.3909 43.6612 89.2198 43.0412L88.6699 43.2497ZM89.8514 46.8761C90.1138 47.3317 90.397 47.7884 90.6993 48.2435L91.2417 47.9874C90.9453 47.5406 90.6673 47.0925 90.4102 46.6457L89.8514 46.8761ZM91.8748 50.1516C92.1695 50.5922 92.4787 51.0291 92.8014 51.4608L93.2617 51.1563C92.9445 50.7317 92.6403 50.302 92.3507 49.869L91.8748 50.1516ZM94.1545 53.521C94.5348 53.9447 94.9282 54.3608 95.3332 54.767L95.8078 54.4098C95.4095 54.0104 95.0229 53.6013 94.6487 53.1847L94.1545 53.521ZM96.3629 56.0157C96.7698 56.4237 97.1869 56.8189 97.6129 57.1996L98.0123 56.784C97.5948 56.4109 97.1855 56.023 96.7861 55.6226L96.3629 56.0157ZM99.359 58.7097C99.7935 59.0981 100.236 59.4668 100.684 59.8132L101.003 59.3195C100.566 58.9818 100.134 58.6217 99.709 58.2418L99.359 58.7097ZM102.043 60.4493C102.508 60.7458 102.978 61.0158 103.452 61.2559L103.677 60.7405C103.219 60.5087 102.764 60.2471 102.312 59.9593L102.043 60.4493ZM106.041 62.5363C106.547 62.7312 107.055 62.8865 107.564 62.9986L107.661 62.4206C107.177 62.3141 106.691 62.1656 106.206 61.9787L106.041 62.5363ZM109.358 62.9652C109.554 62.975 109.749 62.9763 109.944 62.969C110.29 62.9561 110.634 62.9161 110.977 62.8476L110.892 62.1316C110.57 62.1961 110.247 62.2336 109.922 62.2457C109.738 62.2526 109.554 62.2515 109.369 62.2421L109.358 62.9652ZM113.046 62.4079C113.534 62.1942 114.015 61.92 114.486 61.5823L114.223 61.0246C113.778 61.3436 113.326 61.6006 112.869 61.8013L113.046 62.4079ZM116.173 60.5926C116.596 60.226 117.011 59.8142 117.417 59.3545L117.004 58.9536C116.615 59.3946 116.219 59.7879 115.816 60.1366L116.173 60.5926ZM118.689 57.5131C119.045 57.043 119.315 56.5582 119.513 56.0598L118.952 55.8946C118.77 56.3529 118.523 56.7962 118.195 57.229L118.689 57.5131ZM120.004 53.8322C120.08 53.3407 120.103 52.8381 120.087 52.3236C120.086 52.2889 120.084 52.254 120.083 52.2191L119.391 52.2488C119.392 52.2824 119.393 52.316 119.395 52.3493C119.41 52.844 119.388 53.3215 119.317 53.7829L120.004 53.8322ZM120.073 50.4595C120.003 49.9542 119.916 49.4366 119.821 48.9057L119.211 48.9933C119.305 49.5216 119.392 50.0334 119.46 50.5293L120.073 50.4595ZM119.023 46.6176C118.934 46.1179 118.847 45.6063 118.769 45.0817L118.161 45.1566C118.24 45.6871 118.328 46.2029 118.417 46.705L119.023 46.6176ZM119.286 43.1289C119.229 42.6157 119.188 42.0908 119.17 41.5536L118.422 41.582C118.44 42.1305 118.482 42.6654 118.54 43.1872L119.286 43.1289ZM118.644 39.2013C118.667 38.6973 118.711 38.1828 118.78 37.6571L118.152 37.6095C118.081 38.1481 118.036 38.6753 118.012 39.1908L118.644 39.2013Z" fill="#34466B"/>
<path fill-rule="evenodd" clip-rule="evenodd" d="M122.423 20.5375L144.959 18.2143L116.048 16.901L122.423 20.5375Z" fill="#EC0000"/>
<path fill-rule="evenodd" clip-rule="evenodd" d="M121.145 31.7597L144.882 18.2049L121.307 28.6901L121.145 31.7597Z" fill="#990000"/>
<path fill-rule="evenodd" clip-rule="evenodd" d="M116.126 16.8998L121.321 21.4286L121.215 23.43L122.451 21.4873L145.037 18.2158L122.503 20.4907L116.126 16.8998Z" fill="#990000"/>
<path fill-rule="evenodd" clip-rule="evenodd" d="M129.908 16.8022C129.884 16.6944 129.815 16.6138 129.7 16.5606C129.586 16.5075 129.429 16.4604 129.239 16.4192C129.303 16.7103 129.334 16.8558 129.398 17.147C129.583 17.1419 129.722 17.1098 129.811 17.0516C129.9 16.9933 129.932 16.9101 129.908 16.8022ZM128.374 15.6034C128.395 15.7063 128.454 15.7825 128.551 15.8327C128.647 15.8826 128.789 15.9261 128.969 15.9627C128.906 15.6731 128.875 15.5283 128.812 15.2386C128.64 15.2488 128.517 15.2858 128.446 15.3497C128.376 15.4135 128.352 15.4981 128.374 15.6034ZM129.794 15.4818C129.762 15.458 129.717 15.4325 129.66 15.4054C129.602 15.3783 129.537 15.3526 129.465 15.3282C129.392 15.3038 129.313 15.2832 129.229 15.2664C129.145 15.2495 129.06 15.2395 128.977 15.2359L129.143 15.9968C129.177 16.0022 129.194 16.0048 129.228 16.0102C129.39 16.0395 129.544 16.0724 129.68 16.1091C129.817 16.1458 129.935 16.1912 130.035 16.2455C130.136 16.2997 130.22 16.3673 130.287 16.4481C130.354 16.5289 130.401 16.6283 130.427 16.746C130.457 16.876 130.454 16.9879 130.419 17.0814C130.384 17.1747 130.324 17.2535 130.238 17.317C130.153 17.3805 130.048 17.4289 129.923 17.462C129.799 17.4949 129.66 17.5138 129.511 17.5183C129.545 17.6728 129.562 17.7499 129.596 17.9044C129.504 17.9056 129.459 17.9062 129.367 17.9073C129.333 17.7499 129.316 17.6712 129.282 17.5139C129.069 17.5041 128.854 17.4718 128.648 17.4174C128.443 17.363 128.25 17.2863 128.07 17.1873C128.132 17.0443 128.163 16.9728 128.225 16.83C128.263 16.8587 128.317 16.8896 128.386 16.9227C128.455 16.9558 128.534 16.9876 128.623 17.018C128.713 17.0484 128.81 17.0755 128.914 17.0986C129.019 17.1217 129.126 17.1377 129.233 17.146C129.167 16.8418 129.134 16.6896 129.068 16.3852C129.05 16.3805 129.031 16.3766 129.011 16.3732C128.992 16.3698 128.972 16.3658 128.954 16.361C128.791 16.329 128.648 16.2948 128.525 16.2588C128.401 16.2227 128.296 16.1785 128.209 16.1262C128.123 16.0739 128.052 16.0122 127.999 15.941C127.945 15.8696 127.908 15.7826 127.887 15.6798C127.863 15.56 127.866 15.453 127.896 15.3588C127.926 15.2646 127.979 15.1829 128.054 15.1137C128.129 15.0447 128.222 14.99 128.333 14.9499C128.444 14.9098 128.57 14.8838 128.71 14.8715C128.678 14.7231 128.661 14.6489 128.629 14.5004C128.717 14.4988 128.761 14.498 128.849 14.4963C128.881 14.6448 128.898 14.7191 128.93 14.8677C129.116 14.8741 129.301 14.9026 129.473 14.953C129.645 15.0035 129.801 15.0651 129.94 15.138C129.882 15.2757 129.852 15.3444 129.794 15.4818Z" fill="white"/>
<path fill-rule="evenodd" clip-rule="evenodd" d="M133.189 15.9133C133.282 16.2397 133.646 16.4545 133.995 16.3705C134.343 16.2867 134.543 15.935 134.449 15.6097C134.355 15.2843 134.003 15.1077 133.655 15.1906C133.308 15.2735 133.095 15.5869 133.189 15.9133Z" fill="white"/>
<path fill-rule="evenodd" clip-rule="evenodd" d="M125 16.4824C125.069 16.8095 124.838 17.124 124.492 17.2086C124.147 17.2933 123.819 17.1178 123.749 16.7906C123.68 16.4637 123.897 16.109 124.243 16.0244C124.588 15.9398 124.931 16.1553 125 16.4824Z" fill="white"/>
<path fill-rule="evenodd" clip-rule="evenodd" d="M124.358 23.9685C128.94 19.9354 135.713 23.3073 140.626 19.6095L138.61 12.0859C133.629 15.6232 127.365 12.8988 122.342 16.4449L124.358 23.9685Z" fill="#63BA68"/>
<path fill-rule="evenodd" clip-rule="evenodd" d="M124.506 18.3922C125.133 18.049 125.579 17.0114 125.463 16.3453C126.905 15.868 128.358 15.7882 129.848 15.7371C129.159 16.2487 128.815 17.2505 128.994 18.3307C129.145 19.2434 129.864 20.301 130.689 20.7384C129.211 20.7879 127.762 20.8567 126.333 21.3403C126.217 20.6744 125.566 20.4914 124.964 20.834C124.781 19.8573 124.689 19.369 124.506 18.3922ZM137.788 20.1603C136.284 20.5604 134.883 20.7122 133.341 20.7674C133.965 20.266 134.213 19.3212 133.995 18.3222C133.786 17.3697 132.977 16.304 132.098 15.8654C133.655 15.822 135.072 15.6857 136.594 15.2966C136.754 15.9451 137.561 16.5757 138.181 16.2518C138.411 17.2021 138.526 17.6773 138.756 18.6275C138.145 18.951 137.629 19.5118 137.788 20.1603ZM124.552 23.1607C129.318 20.0827 135.044 22.8167 139.954 19.9554C139.446 17.7552 138.938 15.5551 138.43 13.3549C133.56 16.0562 128.098 13.7906 123.233 16.5375C123.819 19.4811 124.259 21.6889 124.552 23.1607Z" fill="#008437"/>
<path fill-rule="evenodd" clip-rule="evenodd" d="M144.986 18.2004L116.131 31.22L122.285 21.5061L144.986 18.2004Z" fill="#EC0000"/>
<path fill-rule="evenodd" clip-rule="evenodd" d="M42.6059 54.8606L38.2253 47.4323C37.1298 45.1664 36.1506 42.8454 35.3171 40.4705C34.9093 39.308 34.536 38.1353 34.3329 37.2304C34.0546 35.9864 33.8478 34.7415 33.8466 33.7714L33.8462 32.9316C33.8446 32.7361 33.8597 32.5447 33.8888 32.3564C34.1295 30.801 35.3441 29.5438 36.9402 29.2781C38.4791 29.0236 40.013 29.7647 40.772 31.1267L41.8978 33.2156L51.7115 51.4117C62.0407 65.2059 72.5592 76.616 84.0319 86.9117L86.518 121.208L56.1748 138.219L48.3987 125.209C46.0145 121.221 44.0131 117.016 42.421 112.65L38.2211 101.132L32.3352 89.6297L34.3149 72.5939C33.4575 72.3572 32.6802 71.7936 32.196 70.9199C31.6884 70.0037 31.618 68.9082 32.0048 67.9351L33.7553 63.5253C34.2441 62.2943 34.9229 61.1564 35.7609 60.1501L35.7748 60.0313C37.8182 58.0741 40.2915 56.5694 42.6059 54.8606Z" fill="#FFC4B8"/>
<path fill-rule="evenodd" clip-rule="evenodd" d="M34.3079 92.5091L34.2547 92.5391C32.7883 93.3848 30.915 92.9455 29.9767 91.5336L25.124 84.2266C24.1722 82.7943 24.3532 80.8915 25.5551 79.6621L26.1798 79.0247C26.33 78.8712 26.4897 78.7361 26.6571 78.619C28.2922 77.4712 30.651 78.0213 31.5594 79.9122L34.8586 86.7934L35.5999 88.3368C36.3266 89.8519 35.7633 91.6703 34.3079 92.5091Z" fill="#FFC4B8"/>
<path fill-rule="evenodd" clip-rule="evenodd" d="M64.2587 114.271C63.657 115.312 63.1368 116.476 62.7593 117.763C62.6954 117.981 62.5129 118.086 62.3311 118.086C62.1317 118.086 61.934 117.96 61.8939 117.715L61.1402 113.118C61.1402 113.118 59.8073 113.274 57.8849 113.274C52.9093 113.274 43.9808 112.229 43.966 104.731C43.9645 103.956 39.4179 104.411 38.2218 101.127L34.2139 93.295L33.9139 92.7089L34.259 92.5361L34.3123 92.5062C35.7676 91.6674 36.3309 89.8489 35.6042 88.3338L34.8629 86.7905L33.0948 83.1028L33.3256 81.1161L34.3163 72.5905L34.4386 72.6197L34.5689 72.6537L34.6988 72.6716L34.7875 72.6866L34.8619 72.694L34.9821 72.7106L35.1047 72.7131L35.2596 72.7182L35.2887 72.7166L35.3991 72.7188L35.5806 72.7008L35.642 72.6975L35.684 72.6907L35.8151 72.6776L35.9651 72.6445L36.021 72.6353L36.0755 72.62L36.225 72.5869L36.3455 72.5444L36.3929 72.5312L36.4585 72.5046L36.624 72.4462L36.717 72.3998L36.7538 72.3849L36.828 72.3444L37.0071 72.2551L37.0749 72.2098L37.0999 72.1961L37.1786 72.1406L37.3694 72.0132L37.4147 71.9738L37.4276 71.9647L37.5016 71.8981L37.706 71.7201L37.7318 71.6911L37.7329 71.6901L37.755 71.665L38.012 71.3756L42.8398 65.1874L46.8958 63.9261L46.8934 63.9208L46.896 63.9227L43.7013 56.9899C44.8867 53.6381 47.534 51.7482 51.6912 51.3682L51.7129 51.4084C59.4035 61.679 67.1992 70.628 75.4154 78.777L78.9508 85.9647C71.4522 93.0174 66.1168 102.95 64.2587 114.271ZM34.512 86.8128H34.4494C33.2564 86.803 32.0885 86.2393 31.3479 85.2003L26.6602 78.6192H26.6606C27.0327 78.358 27.4421 78.1848 27.8637 78.0951C28.0877 78.0477 28.3149 78.0236 28.5417 78.0228H28.5691C29.7817 78.0277 30.9754 78.69 31.5628 79.9124L34.862 86.794C34.7454 86.8055 34.6287 86.8116 34.512 86.8128Z" fill="#F4A48D"/>
<path fill-rule="evenodd" clip-rule="evenodd" d="M62.3319 112.667L33.518 108.258C30.3181 107.767 28.1209 104.776 28.6107 101.576L40.3588 24.823C40.8486 21.6231 43.8396 19.4258 47.0404 19.9156L75.8533 24.3257C79.0542 24.816 81.251 27.807 80.7608 31.0069L69.013 107.76C68.5233 110.96 65.5324 113.157 62.3319 112.667Z" fill="#9E3667"/>
<path fill-rule="evenodd" clip-rule="evenodd" d="M60.5585 112.397L31.7446 107.986C28.5447 107.497 26.3476 104.505 26.8372 101.306L38.5849 24.5524C39.0751 21.3526 42.0661 19.1553 45.2665 19.645L74.0799 24.0556C77.2803 24.545 79.4776 27.5364 78.9874 30.7364L67.2396 107.489C66.7499 110.689 63.7583 112.887 60.5585 112.397Z" fill="white"/>
<path fill-rule="evenodd" clip-rule="evenodd" d="M78.4894 33.997L67.6295 104.948C67.2918 107.153 64.5506 108.563 62.3465 108.226L30.6072 103.367C28.4017 103.03 26.8895 100.969 27.227 98.7633L38.0869 27.8132C38.4246 25.6072 40.4842 24.0916 42.6901 24.4292L74.4285 29.2873C76.6328 29.6246 78.8269 31.7912 78.4894 33.997Z" fill="white"/>
<path fill-rule="evenodd" clip-rule="evenodd" d="M68.218 25.794C68.1482 26.3245 67.6497 26.6865 67.1052 26.6022C66.5603 26.5184 66.176 26.0199 66.2459 25.4894C66.3162 24.9585 66.8147 24.5969 67.3592 24.6808C67.9036 24.765 68.2884 25.2631 68.218 25.794ZM53.4871 23.5384C53.4504 23.8151 53.1908 24.0036 52.9072 23.9597C52.6232 23.9159 52.4223 23.6562 52.4594 23.3796C52.4955 23.1029 52.7553 22.9143 53.0393 22.9582C53.3232 23.0021 53.5236 23.2617 53.4871 23.5384ZM51.5369 23.2401C51.5003 23.5164 51.2407 23.7055 50.9571 23.6616C50.6731 23.6172 50.4727 23.358 50.5094 23.0813C50.5459 22.8046 50.8056 22.6161 51.0891 22.66C51.3731 22.7038 51.5735 22.9636 51.5369 23.2401ZM61.59 25.0497L56.9069 24.3373C56.7577 24.3148 56.6516 24.176 56.6688 24.0274C56.6864 23.8786 56.8209 23.7769 56.9691 23.7994L61.6522 24.5119C61.8009 24.5344 61.9075 24.6731 61.8903 24.8218C61.8732 24.9705 61.7387 25.0726 61.59 25.0497Z" fill="#DEEDF2"/>
<path fill-rule="evenodd" clip-rule="evenodd" d="M62.324 112.65L33.5102 108.241C30.3103 107.75 28.1131 104.759 28.6028 101.559L40.351 24.8059C40.8407 21.606 43.8317 19.4087 47.0326 19.8985L75.8455 24.3087C79.0463 24.7989 81.2432 27.7899 80.753 30.9898L69.0052 107.743C68.5155 110.943 65.5245 113.14 62.324 112.65Z" fill="#9E3667"/>
<path fill-rule="evenodd" clip-rule="evenodd" d="M60.5507 112.38L31.7368 107.969C28.5369 107.48 26.3398 104.488 26.8294 101.288L38.5771 24.5354C39.0673 21.3355 42.0583 19.1382 45.2587 19.6279L74.0721 24.0385C77.2724 24.5279 79.4698 27.5193 78.9796 30.7193L67.2318 107.472C66.742 110.672 63.7505 112.87 60.5507 112.38Z" fill="white"/>
<path fill-rule="evenodd" clip-rule="evenodd" d="M78.4816 33.98L67.6217 104.931C67.284 107.136 64.5428 108.546 62.3386 108.209L30.5994 103.35C28.3939 103.013 26.8817 100.952 27.2192 98.7462L38.0791 27.7961C38.4168 25.5901 40.4764 24.0745 42.6823 24.4121L74.4207 29.2702C76.6249 29.6075 78.8191 31.7741 78.4816 33.98Z" fill="white"/>
<path fill-rule="evenodd" clip-rule="evenodd" d="M67.9806 102.582L67.6208 104.93C67.6021 105.049 67.5778 105.164 67.5459 105.276C66.992 107.281 64.4236 108.529 62.3381 108.209L30.599 103.35C28.6548 103.053 27.2476 101.416 27.1754 99.5208C27.1656 99.2658 27.1783 99.007 27.2188 98.746L27.5781 96.3975L67.9806 102.582Z" fill="#DEEDF2"/>
<path fill-rule="evenodd" clip-rule="evenodd" d="M67.9805 102.582L67.6207 104.93C67.602 105.049 67.5777 105.164 67.5458 105.276L67.5245 105.273L67.6194 104.654L27.2604 98.4774L27.5781 96.3975L67.9805 102.582Z" fill="#EC0000"/>
<path fill-rule="evenodd" clip-rule="evenodd" d="M56.3797 87.5633L67.1632 89.2286L65.7751 99.7344L54.9916 98.0695L56.3797 87.5633ZM44.2674 85.7085L55.0505 87.3739L53.6625 97.8798L42.8797 96.215L44.2674 85.7085ZM32.15 83.854L42.9331 85.5194L41.5455 96.0252L30.7619 94.3602L32.15 83.854Z" fill="#DEEDF2"/>
<path fill-rule="evenodd" clip-rule="evenodd" d="M68.2102 25.7769C68.1404 26.3074 67.6419 26.6694 67.0974 26.5851C66.5525 26.5013 66.1682 26.0028 66.2381 25.4723C66.3084 24.9414 66.8068 24.5798 67.3514 24.6637C67.8958 24.748 68.2806 25.246 68.2102 25.7769ZM53.4792 23.5213C53.4426 23.798 53.183 23.9865 52.8994 23.9426C52.6154 23.8988 52.4145 23.6391 52.4516 23.3625C52.4877 23.0858 52.7474 22.8972 53.0315 22.9411C53.3154 22.985 53.5158 23.2446 53.4792 23.5213ZM51.5291 23.2231C51.4925 23.4993 51.2329 23.6884 50.9493 23.6445C50.6653 23.6001 50.4649 23.3409 50.5016 23.0642C50.5381 22.7875 50.7978 22.599 51.0813 22.6429C51.3653 22.6867 51.5657 22.9465 51.5291 23.2231ZM61.5822 25.0326L56.8991 24.3202C56.7499 24.2978 56.6438 24.1589 56.6609 24.0103C56.6785 23.8616 56.8131 23.7599 56.9613 23.7823L61.6444 24.4948C61.7931 24.5173 61.8997 24.656 61.8825 24.8047C61.8653 24.9534 61.7309 25.0556 61.5822 25.0326Z" fill="#DEEDF2"/>
<path fill-rule="evenodd" clip-rule="evenodd" d="M78.483 33.9805L76.7548 45.2716L36.3523 39.0878L38.0805 27.7967C38.4182 25.5907 40.4778 24.0749 42.6837 24.4127L74.4221 29.2708C76.6263 29.6081 78.8205 31.7746 78.483 33.9805Z" fill="#EC0000"/>
<path fill-rule="evenodd" clip-rule="evenodd" d="M40.5692 36.7896L62.2519 40.0811L62.1662 40.9073L40.4835 37.6158L40.5692 36.7896ZM40.7903 35.4196L48.3473 36.5696L48.2528 37.3765L40.6958 36.2265L40.7903 35.4196Z" fill="#CC0000"/>
<path fill-rule="evenodd" clip-rule="evenodd" d="M74.2651 61.5359L33.8635 55.352L36.3485 39.1183L76.7497 45.3021L74.2651 61.5359Z" fill="#DEEDF2"/>
<path fill-rule="evenodd" clip-rule="evenodd" d="M60.5871 50.6424L38.9415 47.3296L38.8184 48.1337L60.464 51.4469L60.5871 50.6424Z" fill="white"/>
<path fill-rule="evenodd" clip-rule="evenodd" d="M74.2811 61.4576L71.7962 77.6914L31.3955 71.507L32.5218 64.1456L32.8868 61.757L33.8804 55.2737L40.4688 56.2826L41.2772 56.4069L42.9463 56.6612L43.0229 56.6727L74.2811 61.4576Z" fill="#9BC3D3"/>
<path fill-rule="evenodd" clip-rule="evenodd" d="M53.957 66.2733L39.1094 64.001L38.9863 64.8055L53.834 67.0779L53.957 66.2733Z" fill="white"/>
<path fill-rule="evenodd" clip-rule="evenodd" d="M41.7065 60.7619C39.2054 62.5772 35.6611 63.4638 32.6569 63.4534L33.0005 61.2826L33.9344 55.3912L39.9209 56.3409L43.0057 57.1156L45.0001 57.4307L45.0632 57.3432L45.0913 57.4455L46.3523 61.9638L41.7069 60.7619L41.7065 60.7619Z" fill="#34466B"/>
<path fill-rule="evenodd" clip-rule="evenodd" d="M42.7983 59.9073C37.3086 61.9173 31.0097 59.7351 28.0163 54.4874C24.6782 48.6335 26.7171 41.1814 32.5711 37.8432C38.425 34.5047 45.8768 36.5436 49.2152 42.3972C52.2079 47.6456 50.8792 54.1777 46.3541 57.8793L46.3351 61.9777L42.7983 59.9073Z" fill="white"/>
<path fill-rule="evenodd" clip-rule="evenodd" d="M28.5746 68.1215L27.7375 68.7811C26.1229 70.0538 25.6185 72.282 26.5265 74.1258L31.1562 83.528C32.0507 85.3452 34.2032 86.1542 36.0732 85.3768L36.1395 85.3493C37.9932 84.5785 38.9401 82.5091 38.3108 80.6026L34.8131 69.999C33.9485 67.3781 30.7423 66.4132 28.5746 68.1215Z" fill="#FFC4B8"/>
<path fill-rule="evenodd" clip-rule="evenodd" d="M64.1586 131.367L63.616 130.247C63.0162 129.01 62.5921 127.703 62.3538 126.362C62.1111 125.023 62.0541 123.651 62.1864 122.281C62.7767 116.145 64.2369 110.151 66.4992 104.473C68.4327 99.6238 70.95 95.0056 74.0166 90.7247L74.6396 89.8536C76.07 87.8542 76.6619 85.3755 76.2894 82.945L75.928 80.6071C75.4768 77.6665 75.415 74.6805 75.7486 71.7244C75.7486 71.7244 76.3648 62.5278 79.9411 56.3674C80.4376 55.5126 81.2211 54.8933 82.085 54.5015C82.9495 54.1094 83.9247 53.964 84.9023 54.1155C85.2866 54.1748 85.6335 54.3255 85.9253 54.5449C86.5439 55.0042 86.9144 55.7641 86.8443 56.5824L86.1705 64.6176L86.1533 64.8256L89.9544 89.7132C90.4002 92.6345 90.3732 95.6061 89.8762 98.5181L88.0119 113.918L86.4421 126.868L86.4427 126.869L95.393 142.372L101.573 153.078H64.7559L56.2619 138.367L56.1207 138.122L55.7969 137.56L63.9176 131.546L64.158 131.368L64.1586 131.367Z" fill="#FFC4B8"/>
<path fill-rule="evenodd" clip-rule="evenodd" d="M41.2703 47.2958C41.338 46.6513 41.209 45.9904 40.8821 45.4103L40.4449 44.6336L38.6955 41.5267C38.529 41.2305 38.4138 40.9135 38.3501 40.5879L38.2586 40.7505V40.7501C37.7173 41.7113 37.717 42.8951 38.2582 43.8563L38.2586 43.857L40.073 47.0804L40.0698 47.08C40.5478 48.0193 40.527 49.1475 40.0072 50.0704L39.9157 50.233C39.8521 49.9074 39.7372 49.59 39.5704 49.2942L39.7339 49.5852L38.2586 46.9635L36.9068 44.5637L36.9464 44.6336C36.7799 44.3374 36.6647 44.02 36.6007 43.6944L36.5091 43.857C35.9679 44.8179 35.9679 46.002 36.5087 46.9632L36.5091 46.9635L36.5658 47.0648L37.8209 49.2938L37.8213 49.2942L38.2586 50.0704C38.7994 51.0316 38.7994 52.2161 38.2586 53.1773L38.167 53.3399C38.103 53.0143 37.9878 52.6969 37.8209 52.4007L37.9852 52.6917L35.6346 48.5172L35.6338 48.5168C35.4197 48.1354 35.2907 47.7193 35.2464 47.2958C32.6413 47.8994 30.8242 49.2625 30.8242 50.8471C30.8242 52.992 34.1523 54.7309 38.2586 54.7309C42.3641 54.7309 45.6926 52.992 45.6926 50.8471C45.6926 49.2625 43.8755 47.8998 41.2703 47.2958Z" fill="#EC0000"/>
</svg>
