<svg width="160" height="160" viewBox="0 0 160 160" fill="none" xmlns="http://www.w3.org/2000/svg">
<path fill-rule="evenodd" clip-rule="evenodd" d="M60.8205 31.3085C52.6728 39.975 41.8782 45.6313 30.1798 47.7572C23.0793 49.0476 16.2852 52.4391 10.7952 57.9319C-3.58427 72.3185 -3.60059 95.5188 10.7595 109.925C17.0942 116.28 25.1717 119.831 33.4544 120.58C40.5453 121.22 47.2075 124.316 52.1272 129.467C52.1906 129.534 52.2544 129.6 52.3183 129.665C60.7107 138.233 74.2867 138.318 82.7809 129.851C82.8296 129.803 82.8779 129.754 82.9257 129.706C85.1947 127.401 88.4698 126.395 91.6432 127.011C109.736 130.527 129.194 125.274 143.207 111.249C165.598 88.8395 165.598 52.4407 143.207 30.031C120.798 7.60381 84.4669 7.60396 62.0585 30.0313C61.6378 30.4522 61.2251 30.878 60.8205 31.3085Z" fill="#DEEDF2"/>
<path fill-rule="evenodd" clip-rule="evenodd" d="M78.8572 53.5849C79.3128 53.9612 79.7628 54.3153 80.2065 54.6482L80.4956 54.1192C80.059 53.792 79.6157 53.4434 79.1666 53.0722L78.8572 53.5849ZM82.0051 55.6653C82.4788 55.9587 82.9448 56.228 83.4031 56.4745L83.6352 55.9639C83.1863 55.7228 82.7294 55.4586 82.2646 55.1707L82.0051 55.6653ZM85.4426 57.6678C85.9419 57.9321 86.4311 58.1637 86.9101 58.3635L87.0648 57.7422C86.5992 57.5478 86.1227 57.3226 85.6354 57.0645L85.4426 57.6678ZM88.8392 58.7794C89.3715 58.941 89.8897 59.0616 90.3933 59.1435L90.4481 58.4708C89.9634 58.392 89.4633 58.2758 88.9483 58.1191L88.8392 58.7794ZM92.6762 59.2455C92.8007 59.2462 92.924 59.2444 93.0465 59.2401C93.4738 59.2252 93.8889 59.1804 94.291 59.1076L94.2093 58.3934C93.826 58.463 93.4301 58.5057 93.0214 58.52C92.9042 58.524 92.7862 58.526 92.667 58.5251L92.6762 59.2455ZM96.6263 58.4661C97.1417 58.2992 97.6308 58.0922 98.0924 57.8502L97.8648 57.348C97.4278 57.5768 96.9649 57.7731 96.4756 57.9312L96.6263 58.4661ZM99.7171 56.9168C100.177 56.5504 100.603 56.1464 100.993 55.7119L100.605 55.2735C100.236 55.6848 99.833 56.0674 99.3975 56.4138L99.7171 56.9168ZM102.415 54.1604C102.745 53.718 103.036 53.2546 103.287 52.7764L102.801 52.5346C102.563 52.9885 102.287 53.4282 101.974 53.8476L102.415 54.1604ZM104.015 50.5836C104.209 49.9125 104.353 49.231 104.446 48.5483L103.839 48.4401C103.751 49.0856 103.614 49.7317 103.43 50.3678L104.015 50.5836ZM104.766 46.8113C104.765 46.7633 104.764 46.7154 104.762 46.6677C104.745 46.1705 104.675 45.6813 104.551 45.2065L103.905 45.3223C104.022 45.765 104.087 46.2235 104.104 46.6907C104.105 46.7355 104.106 46.7805 104.107 46.8256L104.766 46.8113ZM103.858 43.2958C103.609 42.805 103.297 42.3428 102.919 41.9211L102.472 42.2549C102.817 42.6414 103.105 43.0655 103.334 43.5189L103.858 43.2958ZM101.356 40.5197C100.928 40.1883 100.45 39.9034 99.9222 39.6738L99.725 40.1985C100.215 40.4113 100.654 40.6737 101.047 40.9781L101.356 40.5197ZM97.9226 39.3405C97.4225 39.2372 96.89 39.1764 96.3246 39.1627L96.3172 39.7482C96.8559 39.7613 97.3602 39.819 97.8304 39.9163L97.9226 39.3405ZM94.2779 39.1086C93.7758 39.168 93.2522 39.2605 92.7069 39.3879L92.8185 39.9657C93.3476 39.8418 93.8539 39.7527 94.3374 39.6956L94.2779 39.1086ZM90.7535 40.0168C90.2174 40.2878 89.7679 40.6375 89.4054 41.0518L89.8216 41.3929C90.1385 41.0312 90.5291 40.7264 91.0053 40.4853L90.7535 40.0168ZM88.0355 42.8729C87.8158 43.3585 87.6806 43.8845 87.6205 44.4419L88.2723 44.4769C88.3281 43.9576 88.4537 43.4758 88.6513 43.0393L88.0355 42.8729ZM87.7666 46.7919C87.8202 47.2993 87.9152 47.8241 88.0489 48.3618L88.6272 48.2451C88.4983 47.7259 88.407 47.2222 88.356 46.7388L87.7666 46.7919ZM88.6705 49.9553C88.8477 50.5938 89.051 51.242 89.2787 51.8955L89.8091 51.6397C89.5863 51.0011 89.3881 50.3692 89.2158 49.748L88.6705 49.9553ZM89.847 53.5795C90.11 54.0368 90.3937 54.4952 90.6964 54.9521L91.2358 54.6969C90.9389 54.2483 90.6605 53.7985 90.4027 53.3501L89.847 53.5795ZM91.8724 56.8555C92.1675 57.2979 92.477 57.7365 92.8001 58.17L93.2574 57.8661C92.94 57.4398 92.6355 57.0083 92.3454 56.5736L91.8724 56.8555ZM94.1516 60.2252C94.5321 60.6509 94.9258 61.0692 95.3309 61.4776L95.8026 61.1208C95.4042 60.7192 95.0174 60.308 94.643 59.8893L94.1516 60.2252ZM96.3607 62.7202C96.7678 63.1304 97.1849 63.5277 97.6109 63.9106L98.0075 63.495C97.59 63.1198 97.1807 62.7298 96.7812 62.3273L96.3607 62.7202ZM99.3517 65.4141C99.7862 65.8047 100.228 66.1756 100.676 66.5241L100.993 66.03C100.556 65.6902 100.124 65.328 99.6989 64.946L99.3517 65.4141ZM102.036 67.1544C102.501 67.453 102.97 67.7252 103.444 67.9673L103.666 67.4509C103.209 67.2171 102.754 66.9536 102.303 66.6636L102.036 67.1544ZM106.043 69.243C106.548 69.44 107.055 69.5973 107.564 69.7111L107.658 69.1312C107.175 69.023 106.69 68.8726 106.205 68.6837L106.043 69.243ZM109.359 69.6726C109.554 69.6828 109.75 69.6848 109.945 69.678C110.29 69.6659 110.633 69.6266 110.975 69.5586L110.887 68.8389C110.567 68.9029 110.244 68.9396 109.919 68.9509C109.736 68.9574 109.552 68.9558 109.367 68.9458L109.359 69.6726ZM113.044 69.1163C113.53 68.9034 114.008 68.6296 114.477 68.2921L114.212 67.732C113.77 68.0507 113.321 68.3073 112.865 68.5073L113.044 69.1163ZM116.175 67.3012C116.595 66.9348 117.007 66.523 117.409 66.0633L116.997 65.6602C116.611 66.1013 116.217 66.4946 115.817 66.8431L116.175 67.3012ZM118.687 64.222C119.04 63.7519 119.307 63.2668 119.503 62.7679L118.943 62.6008C118.763 63.0596 118.519 63.5032 118.194 63.936L118.687 64.222ZM120.002 60.5413C120.076 60.0494 120.096 59.5462 120.078 59.0311C120.077 58.9964 120.076 58.9614 120.074 58.9265L119.387 58.9545C119.388 58.9881 119.39 59.0217 119.391 59.0551C119.408 59.5503 119.388 60.0284 119.319 60.4901L120.002 60.5413ZM120.07 57.1685C119.999 56.6624 119.911 56.144 119.815 55.6122L119.209 55.6984C119.305 56.2275 119.393 56.7401 119.462 57.2368L120.07 57.1685ZM119.023 53.3265C118.933 52.8259 118.844 52.3135 118.765 51.7881L118.162 51.8614C118.242 52.3928 118.331 52.9095 118.422 53.4124L119.023 53.3265ZM119.282 49.8383C119.223 49.3243 119.181 48.7987 119.161 48.2608L118.418 48.2873C118.438 48.8365 118.481 49.3722 118.541 49.8947L119.282 49.8383ZM118.635 45.9113C118.656 45.4068 118.698 44.8918 118.764 44.3657L118.141 44.3163C118.072 44.8555 118.03 45.3831 118.008 45.8993L118.635 45.9113Z" fill="#34466B"/>
<path fill-rule="evenodd" clip-rule="evenodd" d="M122.427 27.2479L144.963 24.9247L116.052 23.6114L122.427 27.2479Z" fill="#2A8FEC"/>
<path fill-rule="evenodd" clip-rule="evenodd" d="M121.145 38.4702L144.882 24.9154L121.307 35.4006L121.145 38.4702Z" fill="#1B4872"/>
<path fill-rule="evenodd" clip-rule="evenodd" d="M116.126 23.6097L121.321 28.1385L121.215 30.14L122.451 28.1973L145.037 24.9257L122.503 27.2007L116.126 23.6097Z" fill="#1B4872"/>
<path fill-rule="evenodd" clip-rule="evenodd" d="M129.896 23.5171C129.868 23.4092 129.797 23.3287 129.685 23.2755C129.572 23.2224 129.421 23.1754 129.236 23.1342C129.312 23.4252 129.349 23.5708 129.425 23.8619C129.602 23.8568 129.734 23.8247 129.816 23.7665C129.898 23.7082 129.925 23.6249 129.896 23.5171ZM128.382 22.318C128.408 22.4209 128.468 22.4971 128.563 22.5472C128.657 22.5971 128.794 22.6405 128.968 22.677C128.893 22.3875 128.856 22.2427 128.781 21.9531C128.618 21.9634 128.503 22.0004 128.439 22.0643C128.375 22.1281 128.356 22.2128 128.382 22.318ZM129.722 22.1957C129.69 22.1719 129.646 22.1464 129.59 22.1193C129.534 22.0923 129.471 22.0666 129.4 22.0422C129.33 22.0179 129.254 21.9973 129.172 21.9805C129.091 21.9636 129.01 21.9536 128.93 21.9501L129.128 22.7109C129.16 22.7162 129.177 22.7188 129.209 22.7242C129.365 22.7534 129.514 22.7862 129.645 22.823C129.777 22.8595 129.892 22.9049 129.991 22.9591C130.089 23.0134 130.173 23.0809 130.241 23.1617C130.309 23.2425 130.358 23.3418 130.39 23.4595C130.424 23.5894 130.427 23.7014 130.399 23.7948C130.37 23.8881 130.317 23.967 130.239 24.0305C130.161 24.094 130.063 24.1424 129.946 24.1756C129.828 24.2085 129.697 24.2274 129.556 24.232C129.596 24.3865 129.616 24.4636 129.656 24.6181C129.568 24.6192 129.525 24.6199 129.437 24.6209C129.397 24.4636 129.377 24.385 129.336 24.2277C129.133 24.218 128.926 24.1857 128.728 24.1314C128.529 24.0771 128.341 24.0004 128.165 23.9016C128.217 23.7585 128.243 23.687 128.294 23.5442C128.332 23.5729 128.385 23.6038 128.452 23.6369C128.52 23.6699 128.597 23.7017 128.684 23.7321C128.77 23.7624 128.864 23.7895 128.965 23.8125C129.066 23.8356 129.169 23.8515 129.271 23.8598C129.193 23.5557 129.154 23.4035 129.075 23.0992C129.058 23.0945 129.039 23.0906 129.021 23.0873C129.002 23.0838 128.983 23.0798 128.966 23.0751C128.809 23.0431 128.671 23.009 128.551 22.973C128.432 22.9369 128.329 22.8928 128.244 22.8406C128.159 22.7883 128.088 22.7266 128.033 22.6554C127.978 22.5841 127.939 22.4971 127.914 22.3943C127.885 22.2745 127.882 22.1675 127.906 22.0733C127.93 21.9792 127.976 21.8975 128.044 21.8282C128.113 21.7592 128.198 21.7045 128.302 21.6644C128.406 21.6242 128.525 21.5982 128.657 21.5859C128.619 21.4375 128.6 21.3633 128.562 21.2148C128.646 21.2132 128.688 21.2124 128.771 21.2107C128.81 21.3591 128.829 21.4334 128.868 21.582C129.045 21.5883 129.223 21.6167 129.389 21.6671C129.556 21.7175 129.707 21.7791 129.844 21.8518C129.795 21.9895 129.771 22.0583 129.722 22.1957Z" fill="white"/>
<path fill-rule="evenodd" clip-rule="evenodd" d="M133.185 22.6252C133.278 22.9516 133.642 23.1664 133.991 23.0824C134.339 22.9986 134.539 22.647 134.445 22.3216C134.351 21.9962 133.999 21.8196 133.651 21.9026C133.304 21.9854 133.092 22.2989 133.185 22.6252Z" fill="white"/>
<path fill-rule="evenodd" clip-rule="evenodd" d="M125 23.1943C125.069 23.5214 124.838 23.8359 124.492 23.9205C124.147 24.0052 123.819 23.8297 123.749 23.5025C123.68 23.1756 123.897 22.8209 124.243 22.7363C124.588 22.6517 124.931 22.8672 125 23.1943Z" fill="white"/>
<path fill-rule="evenodd" clip-rule="evenodd" d="M124.358 30.6814C128.94 26.6483 135.713 30.0202 140.626 26.3224L138.61 18.7988C133.629 22.3361 127.365 19.6117 122.342 23.1578L124.358 30.6814Z" fill="#8AD7C4"/>
<path fill-rule="evenodd" clip-rule="evenodd" d="M124.566 25.1026C125.158 24.7597 125.542 23.7219 125.397 23.0555C126.775 22.5789 128.184 22.4998 129.63 22.4496C128.985 22.961 128.699 23.963 128.925 25.0437C129.116 25.9568 129.868 27.0152 130.691 27.4533C129.256 27.502 127.851 27.5699 126.486 28.0529C126.34 27.3866 125.698 27.2032 125.13 27.5456C124.904 26.5684 124.791 26.0798 124.566 25.1026ZM137.83 26.874C136.388 27.2734 135.033 27.4244 133.537 27.4787C134.119 26.9776 134.315 26.0326 134.053 25.0331C133.805 24.0801 132.966 23.0135 132.09 22.5742C133.601 22.5317 134.972 22.3962 136.434 22.0078C136.62 22.6566 137.436 23.288 138.022 22.9643C138.292 23.9151 138.427 24.3905 138.697 25.3412C138.118 25.6645 137.644 26.2252 137.83 26.874ZM124.875 29.8735C129.432 26.7957 135.226 29.5313 139.937 26.6703C139.326 24.4696 138.715 22.2689 138.104 20.0682C133.425 22.7691 127.916 20.5021 123.243 23.2487C123.968 26.193 124.512 28.4013 124.875 29.8735Z" fill="#2C9891"/>
<path fill-rule="evenodd" clip-rule="evenodd" d="M144.986 24.9109L116.131 37.9305L122.285 28.2165L144.986 24.9109Z" fill="#2A8FEC"/>
<path fill-rule="evenodd" clip-rule="evenodd" d="M42.6059 61.5715L38.2253 54.1433C37.1298 51.8773 36.1506 49.5564 35.3171 47.1815C34.9093 46.019 34.536 44.8463 34.3329 43.9413C34.0546 42.6974 33.8478 41.4524 33.8466 40.4823L33.8462 39.6425C33.8446 39.4471 33.8597 39.2557 33.8888 39.0674C34.1295 37.5119 35.3441 36.2547 36.9402 35.9891C38.4791 35.7346 40.013 36.4756 40.772 37.8377L41.8978 39.9265L51.7115 58.1227C62.0407 71.9169 72.5592 83.3269 84.0319 93.6227L86.518 127.919L56.1748 144.929L48.3987 131.92C46.0145 127.932 44.0131 123.727 42.421 119.361L38.2211 107.843L32.3352 96.3406L34.3149 79.3048C33.4575 79.0681 32.6802 78.5046 32.196 77.6309C31.6884 76.7146 31.618 75.6192 32.0048 74.646L33.7553 70.2362C34.2441 69.0052 34.9229 67.8674 35.7609 66.861L35.7748 66.7422C37.8182 64.7851 40.2915 63.2803 42.6059 61.5715Z" fill="#FFC4B8"/>
<path fill-rule="evenodd" clip-rule="evenodd" d="M34.3079 99.221L34.2547 99.251C32.7883 100.097 30.915 99.6574 29.9767 98.2455L25.124 90.9385C24.1722 89.5062 24.3532 87.6034 25.5551 86.374L26.1798 85.7366C26.33 85.5831 26.4897 85.448 26.6571 85.3309C28.2922 84.1831 30.651 84.7332 31.5594 86.6241L34.8586 93.5053L35.5999 95.0487C36.3266 96.5638 35.7633 98.3822 34.3079 99.221Z" fill="#FFC4B8"/>
<path fill-rule="evenodd" clip-rule="evenodd" d="M64.2537 120.981C63.652 122.022 63.1319 123.186 62.7544 124.473C62.6905 124.69 62.508 124.796 62.3261 124.796C62.1267 124.796 61.929 124.67 61.8889 124.425L61.1352 119.828C61.1352 119.828 59.8023 119.984 57.8799 119.984C52.9044 119.984 43.9759 118.939 43.9611 111.441C43.9596 110.666 39.413 111.121 38.2169 107.837L34.209 100.005L33.909 99.4188L34.2541 99.2461L34.3073 99.2162C35.7627 98.3774 36.3259 96.5589 35.5993 95.0438L34.8579 93.5004L33.0898 89.8128L33.3206 87.826L34.3114 79.3005L34.4336 79.3297L34.5639 79.3637L34.6939 79.3816L34.7826 79.3966L34.8569 79.404L34.9771 79.4206L35.0998 79.423L35.2546 79.4281L35.2838 79.4266L35.3942 79.4287L35.5757 79.4108L35.6371 79.4075L35.679 79.4006L35.8101 79.3876L35.9602 79.3544L36.0161 79.3453L36.0705 79.33L36.2201 79.2969L36.3406 79.2543L36.3879 79.2411L36.4536 79.2145L36.6191 79.1561L36.712 79.1098L36.7489 79.0948L36.8231 79.0543L37.0022 78.965L37.07 78.9197L37.095 78.9061L37.1737 78.8505L37.3645 78.7232L37.4098 78.6838L37.4227 78.6746L37.4967 78.6081L37.7011 78.4301L37.7268 78.4011L37.728 78.4001L37.7501 78.3749L38.0071 78.0855L42.8348 71.8974L46.8909 70.636L46.8884 70.6307L46.8911 70.6327L43.6963 63.6999C44.8818 60.3481 47.529 58.4581 51.6863 58.0781L51.708 58.1183C59.3986 68.389 67.1943 77.3379 75.4104 85.487L78.9459 92.6747C71.4472 99.7274 66.1118 109.66 64.2537 120.981ZM34.5081 93.5234H34.4455C33.2525 93.5137 32.0846 92.9499 31.344 91.9109L26.6562 85.3298H26.6567C27.0288 85.0686 27.4382 84.8955 27.8598 84.8058C28.0837 84.7583 28.311 84.7342 28.5377 84.7334H28.5652C29.7778 84.7383 30.9715 85.4007 31.5589 86.623L34.8581 93.5046C34.7415 93.5161 34.6248 93.5222 34.5081 93.5234Z" fill="#F4A48D"/>
<path fill-rule="evenodd" clip-rule="evenodd" d="M62.3162 119.381L33.5024 114.972C30.3025 114.481 28.1053 111.49 28.595 108.29L40.3432 31.5369C40.8329 28.3369 43.8239 26.1396 47.0247 26.6294L75.8377 31.0396C79.0385 31.5298 81.2354 34.5209 80.7452 37.7208L68.9974 114.474C68.5077 117.674 65.5167 119.871 62.3162 119.381Z" fill="#9E3667"/>
<path fill-rule="evenodd" clip-rule="evenodd" d="M60.5468 119.11L31.7329 114.699C28.533 114.21 26.3358 111.218 26.8255 108.018L38.5732 31.2653C39.0634 28.0654 42.0544 25.8682 45.2548 26.3579L74.0682 30.7685C77.2685 31.2579 79.4659 34.2493 78.9757 37.4493L67.2279 114.202C66.7381 117.402 63.7466 119.6 60.5468 119.11Z" fill="white"/>
<path fill-rule="evenodd" clip-rule="evenodd" d="M78.4777 40.7104L67.6178 111.661C67.2801 113.867 64.5389 115.276 62.3347 114.939L30.5955 110.081C28.39 109.743 26.8778 107.683 27.2153 105.477L38.0752 34.5266C38.4129 32.3206 40.4724 30.805 42.6784 31.1425L74.4168 36.0007C76.621 36.338 78.8152 38.5046 78.4777 40.7104Z" fill="white"/>
<path fill-rule="evenodd" clip-rule="evenodd" d="M68.1885 32.5024C68.1071 33.0354 67.6086 33.4015 67.0757 33.3197C66.5423 33.2384 66.1766 32.7399 66.258 32.2069C66.3398 31.6735 66.8382 31.3078 67.3713 31.3892C67.9042 31.4709 68.2703 31.969 68.1885 32.5024ZM53.4675 30.2502C53.4248 30.5282 53.1652 30.7188 52.8876 30.6763C52.6096 30.6337 52.4185 30.374 52.4615 30.0961C52.5036 29.8181 52.7634 29.6274 53.0414 29.67C53.3193 29.7126 53.51 29.9722 53.4675 30.2502ZM51.5182 29.9523C51.4756 30.2298 51.216 30.421 50.9384 30.3784C50.6604 30.3353 50.4697 30.0761 50.5123 29.7981C50.5549 29.5201 50.8146 29.3295 51.0921 29.3721C51.3701 29.4146 51.5608 29.6744 51.5182 29.9523ZM61.5662 31.7631L56.9007 31.0489C56.7521 31.0264 56.6507 30.888 56.6733 30.7399C56.6963 30.5917 56.8347 30.4904 56.9824 30.5129L61.6479 31.2272C61.7961 31.2497 61.8979 31.388 61.8753 31.5362C61.8527 31.6844 61.7144 31.7861 61.5662 31.7631Z" fill="#DEEDF2"/>
<path fill-rule="evenodd" clip-rule="evenodd" d="M62.3162 119.363L33.5024 114.954C30.3025 114.463 28.1053 111.472 28.595 108.272L40.3432 31.5193C40.8329 28.3194 43.8239 26.1221 47.0247 26.6119L75.8377 31.022C79.0385 31.5123 81.2354 34.5033 80.7452 37.7032L68.9974 114.456C68.5077 117.657 65.5167 119.853 62.3162 119.363Z" fill="#9E3667"/>
<path fill-rule="evenodd" clip-rule="evenodd" d="M60.5468 119.092L31.7329 114.682C28.533 114.192 26.3358 111.2 26.8255 108.001L38.5732 31.2478C39.0634 28.0479 42.0544 25.8506 45.2548 26.3403L74.0682 30.7509C77.2685 31.2403 79.4659 34.2317 78.9757 37.4317L67.2279 114.184C66.7381 117.385 63.7466 119.582 60.5468 119.092Z" fill="white"/>
<path fill-rule="evenodd" clip-rule="evenodd" d="M78.4777 40.6928L67.6178 111.643C67.2801 113.849 64.5389 115.259 62.3347 114.921L30.5955 110.063C28.39 109.725 26.8778 107.665 27.2153 105.459L38.0752 34.509C38.4129 32.303 40.4724 30.7874 42.6784 31.125L74.4168 35.9831C76.621 36.3204 78.8152 38.487 78.4777 40.6928Z" fill="white"/>
<path fill-rule="evenodd" clip-rule="evenodd" d="M67.9767 109.294L67.6169 111.642C67.5982 111.761 67.5739 111.876 67.542 111.988C66.988 113.993 64.4197 115.241 62.3342 114.921L30.5951 110.062C28.6509 109.765 27.2437 108.128 27.1715 106.233C27.1617 105.978 27.1744 105.719 27.2148 105.458L27.5742 103.109L67.9767 109.294Z" fill="#DEEDF2"/>
<path fill-rule="evenodd" clip-rule="evenodd" d="M67.9766 109.294L67.6168 111.642C67.5981 111.761 67.5738 111.876 67.5419 111.988L67.5206 111.985L67.6155 111.366L27.2565 105.189L27.5742 103.109L67.9766 109.294Z" fill="#2A8FEC"/>
<path fill-rule="evenodd" clip-rule="evenodd" d="M56.6039 94.2748L67.1598 95.8905L65.544 106.446L54.9882 104.831L56.6039 94.2748ZM44.4941 92.4202L55.0496 94.036L53.4339 104.591L42.8788 102.976L44.4941 92.4202ZM32.3734 90.5658L42.9289 92.1815L41.3137 102.737L30.7577 101.122L32.3734 90.5658Z" fill="#DEEDF2"/>
<path fill-rule="evenodd" clip-rule="evenodd" d="M68.1846 32.4849C68.1032 33.0178 67.6047 33.3839 67.0717 33.3021C66.5384 33.2208 66.1727 32.7223 66.2541 32.1893C66.3359 31.6559 66.8343 31.2903 67.3674 31.3716C67.9002 31.4534 68.2664 31.9514 68.1846 32.4849ZM53.4636 30.2327C53.4209 30.5107 53.1613 30.7013 52.8837 30.6587C52.6057 30.6161 52.4146 30.3564 52.4576 30.0785C52.4997 29.8005 52.7595 29.6098 53.0375 29.6524C53.3154 29.695 53.5061 29.9546 53.4636 30.2327ZM51.5142 29.9347C51.4717 30.2123 51.2121 30.4034 50.9345 30.3608C50.6564 30.3178 50.4658 30.0586 50.5084 29.7806C50.551 29.5025 50.8107 29.3119 51.0882 29.3545C51.3662 29.397 51.5569 29.6568 51.5142 29.9347ZM61.5623 31.7455L56.8968 31.0313C56.7481 31.0088 56.6468 30.8704 56.6694 30.7223C56.6924 30.5741 56.8308 30.4729 56.9785 30.4953L61.644 31.2096C61.7922 31.2322 61.894 31.3705 61.8714 31.5186C61.8488 31.6668 61.7104 31.7685 61.5623 31.7455Z" fill="#DEEDF2"/>
<path fill-rule="evenodd" clip-rule="evenodd" d="M78.483 40.6915L76.7548 51.9826L36.3523 45.7987L38.0805 34.5076C38.4182 32.3016 40.4778 30.7858 42.6837 31.1236L74.4221 35.9818C76.6263 36.3191 78.8205 38.4856 78.483 40.6915Z" fill="#2A8FEC"/>
<path fill-rule="evenodd" clip-rule="evenodd" d="M40.6094 43.501L62.2546 46.8141L62.1315 47.6187L40.4863 44.3055L40.6094 43.501ZM40.8168 42.1309L48.3448 43.2833L48.2212 44.0879L40.6933 42.9355L40.8168 42.1309Z" fill="#2274C0"/>
<path fill-rule="evenodd" clip-rule="evenodd" d="M74.2651 68.2478L33.8635 62.0639L36.3485 45.8302L76.7497 52.0141L74.2651 68.2478Z" fill="#DEEDF2"/>
<path fill-rule="evenodd" clip-rule="evenodd" d="M60.5871 57.3528L38.9415 54.0401L38.8184 54.8442L60.464 58.1574L60.5871 57.3528Z" fill="white"/>
<path fill-rule="evenodd" clip-rule="evenodd" d="M74.2772 68.1695L71.7923 84.4033L31.3916 78.2189L32.5179 70.8575L32.8829 68.4689L33.8765 61.9856L40.4648 62.9945L41.2733 63.1188L42.9424 63.3731L43.019 63.3846L74.2772 68.1695Z" fill="#9BC3D3"/>
<path fill-rule="evenodd" clip-rule="evenodd" d="M53.9492 72.9852L39.1016 70.7129L38.9784 71.5174L53.8262 73.7898L53.9492 72.9852Z" fill="white"/>
<path fill-rule="evenodd" clip-rule="evenodd" d="M41.7065 67.4743C39.2054 69.2896 35.6611 70.1762 32.6569 70.1658L33.0005 67.995L33.9344 62.1037L39.9209 63.0533L43.0057 63.828L45.0001 64.1431L45.0632 64.0556L45.0913 64.1579L46.3523 68.6762L41.7069 67.4743L41.7065 67.4743Z" fill="#34466B"/>
<path fill-rule="evenodd" clip-rule="evenodd" d="M42.7983 66.6202C37.3086 68.6302 31.0097 66.448 28.0163 61.2003C24.6782 55.3464 26.7171 47.8943 32.5711 44.5561C38.425 41.2176 45.8768 43.2565 49.2152 49.1101C52.2079 54.3585 50.8792 60.8906 46.3541 64.5922L46.3351 68.6905L42.7983 66.6202Z" fill="white"/>
<path fill-rule="evenodd" clip-rule="evenodd" d="M28.5746 74.8339L27.7375 75.4935C26.1229 76.7662 25.6185 78.9944 26.5265 80.8382L31.1562 90.2404C32.0507 92.0576 34.2032 92.8666 36.0732 92.0892L36.1395 92.0617C37.9932 91.2909 38.9401 89.2215 38.3108 87.315L34.8131 76.7114C33.9485 74.0905 30.7423 73.1256 28.5746 74.8339Z" fill="#FFC4B8"/>
<path fill-rule="evenodd" clip-rule="evenodd" d="M64.1547 138.079L63.6121 136.959C63.0123 135.722 62.5882 134.415 62.3499 133.074C62.1071 131.735 62.0502 130.363 62.1825 128.993C62.7728 122.857 64.233 116.863 66.4952 111.185C68.4288 106.336 70.9461 101.718 74.0126 97.4366L74.6357 96.5655C76.0661 94.5661 76.658 92.0874 76.2855 89.6569L75.9241 87.319C75.4729 84.3784 75.4111 81.3924 75.7447 78.4363C75.7447 78.4363 76.3609 69.2397 79.9371 63.0793C80.4337 62.2245 81.2172 61.6052 82.0811 61.2134C82.9456 60.8213 83.9208 60.6759 84.8984 60.8274C85.2827 60.8867 85.6296 61.0374 85.9214 61.2569C86.54 61.7162 86.9104 62.476 86.8404 63.2943L86.1666 71.3295L86.1494 71.5375L89.9505 96.4251C90.3963 99.3464 90.3693 102.318 89.8723 105.23L88.008 120.63L86.4382 133.58L86.4388 133.581L95.3891 149.084L101.569 159.79H64.752L56.258 145.079L56.1168 144.834L55.793 144.272L63.9137 138.258L64.154 138.08L64.1547 138.079Z" fill="#FFC4B8"/>
<path fill-rule="evenodd" clip-rule="evenodd" d="M41.2703 54.0078C41.338 53.3632 41.209 52.7023 40.8821 52.1222L40.4449 51.3455L38.6955 48.2386C38.529 47.9424 38.4138 47.6254 38.3501 47.2998L38.2586 47.4624V47.462C37.7173 48.4233 37.717 49.607 38.2582 50.5682L38.2586 50.5689L40.073 53.7923L40.0698 53.7919C40.5478 54.7312 40.527 55.8595 40.0072 56.7823L39.9157 56.945C39.8521 56.6194 39.7372 56.3019 39.5704 56.0061L39.7339 56.2971L38.2586 53.6754L36.9068 51.2756L36.9464 51.3455C36.7799 51.0493 36.6647 50.732 36.6007 50.4063L36.5091 50.5689C35.9679 51.5298 35.9679 52.7139 36.5087 53.6751L36.5091 53.6754L36.5658 53.7767L37.8209 56.0057L37.8213 56.0061L38.2586 56.7823C38.7994 57.7435 38.7994 58.928 38.2586 59.8892L38.167 60.0519C38.103 59.7262 37.9878 59.4088 37.8209 59.1126L37.9852 59.4036L35.6346 55.2291L35.6338 55.2287C35.4197 54.8473 35.2907 54.4312 35.2464 54.0078C32.6413 54.6113 30.8242 55.9745 30.8242 57.559C30.8242 59.7039 34.1523 61.4429 38.2586 61.4429C42.3641 61.4429 45.6926 59.7039 45.6926 57.559C45.6926 55.9745 43.8755 54.6117 41.2703 54.0078Z" fill="#2A8FEC"/>
</svg>
