<svg width="160" height="160" viewBox="0 0 160 160" fill="none" xmlns="http://www.w3.org/2000/svg">
<path fill-rule="evenodd" clip-rule="evenodd" d="M145.977 93.903C143.945 86.6121 150.405 86.3308 150.548 76.9365C150.606 73.0943 148.501 69.1812 143.436 67.386C140.947 66.5042 138.467 65.8979 136.252 64.4952C131.205 61.2988 131.296 55.2166 129.919 50.0318C126.896 38.6443 115.259 29.5974 103.481 29.8917C94.9894 30.1035 87.3126 30.3638 79.5715 37.571C74.2745 42.5028 70.8319 48.5708 65.9143 53.655C60.7063 59.0389 54.3602 61.6221 47.2344 63.352C40.4953 64.9879 33.1642 66.9343 28.0062 71.84C23.1588 76.4499 23.8654 81.2717 25.9436 86.9321C28.2357 93.1739 23.2659 97.4204 18.084 99.8512C13.721 101.898 6.41744 106.06 6.17852 113.735C5.4397 137.509 20.5402 137.604 26.1702 139.864C77.9617 160.65 97.8375 144.617 119.798 144.942C141.69 145.264 154.239 118.79 153.478 110.993C152.513 101.094 147.397 98.994 145.977 93.903Z" fill="#DEEDF2"/>
<path fill-rule="evenodd" clip-rule="evenodd" d="M125.466 38.451C124.872 33.6228 120.757 29.8848 115.77 29.8848C110.374 29.8848 105.999 34.2602 105.999 39.6579C105.999 40.5434 106.117 41.4014 106.338 42.2171C106.255 42.2182 106.173 42.2212 106.091 42.2259L105.999 42.2184V42.2321C103.201 42.4424 100.995 44.7806 100.995 47.634C100.995 50.4874 103.201 52.8257 105.999 53.036V53.0522H141.571V53.0516H141.571C143.752 53.0516 145.52 51.2831 145.52 49.1018C145.52 46.9205 143.752 45.1522 141.571 45.1522H141.571V45.152L132.559 44.4087C132.6 44.1395 132.621 43.8637 132.621 43.583C132.621 40.5911 130.197 38.1656 127.206 38.1656C126.597 38.1656 126.012 38.266 125.466 38.451Z" fill="#CEDEE7"/>
<path fill-rule="evenodd" clip-rule="evenodd" d="M57.9141 42.1015C58.3539 38.4803 61.3983 35.6768 65.0882 35.6768C69.0802 35.6768 72.3166 38.9584 72.3166 43.0066C72.3166 43.6708 72.2295 44.3143 72.0661 44.926C72.1275 44.9268 72.1884 44.9291 72.2489 44.9326L72.3169 44.927V44.9372C74.3873 45.095 76.0193 46.8487 76.0193 48.9887C76.0193 51.1288 74.3873 52.8825 72.3169 53.0402V53.0523H45.9992V53.0519H45.9992C44.386 53.0519 43.0781 51.7255 43.0781 50.0895C43.0781 48.4535 44.386 47.1273 45.9992 47.1273H45.9992V47.1272L52.667 46.5697C52.6365 46.3678 52.6207 46.161 52.6207 45.9504C52.6207 43.7065 54.4145 41.8874 56.6273 41.8874C57.0774 41.8874 57.5102 41.9626 57.9141 42.1015Z" fill="#9BC3D3"/>
<path fill-rule="evenodd" clip-rule="evenodd" d="M55.7022 53.4324C56.055 50.5657 58.4972 48.3462 61.4572 48.3462C64.6596 48.3462 67.2558 50.9441 67.2558 54.149C67.2558 54.6748 67.186 55.1842 67.0549 55.6685C67.1041 55.6692 67.153 55.6709 67.2015 55.6738L67.2561 55.6693V55.6774C68.917 55.8023 70.2261 57.1906 70.2261 58.8848C70.2261 60.579 68.917 61.9674 67.2561 62.0922V62.1018H46.1441C44.85 62.1015 43.8008 61.0514 43.8008 59.7563C43.8008 58.4611 44.85 57.4112 46.144 57.4112L51.4929 56.9698C51.4685 56.8099 51.4558 56.6462 51.4558 56.4795C51.4558 54.7031 52.8948 53.2629 54.6699 53.2629C55.031 53.2629 55.3782 53.3225 55.7022 53.4324Z" fill="#CEDEE7"/>
<path fill-rule="evenodd" clip-rule="evenodd" d="M79.9072 158.886C35.775 158.886 0 156.344 0 153.209C0 150.074 35.775 147.532 79.9072 147.532C124.039 147.532 159.814 150.074 159.814 153.209C159.814 156.344 124.039 158.886 79.9072 158.886Z" fill="#CEDEE7"/>
<path fill-rule="evenodd" clip-rule="evenodd" d="M18.6406 154.444H141.089V70.8242H18.6406V154.444Z" fill="#9BC3D3"/>
<path fill-rule="evenodd" clip-rule="evenodd" d="M18.6406 80.5125H141.089V70.7388H18.6406V80.5125Z" fill="#34466B"/>
<path fill-rule="evenodd" clip-rule="evenodd" d="M118.374 75.3156C118.374 76.6141 117.319 77.6678 116.02 77.6678C114.721 77.6678 113.668 76.6141 113.668 75.3156C113.668 74.0164 114.721 72.9619 116.02 72.9619C117.319 72.9619 118.374 74.0164 118.374 75.3156Z" fill="white"/>
<path fill-rule="evenodd" clip-rule="evenodd" d="M125.612 75.3156C125.612 76.6141 124.559 77.6678 123.259 77.6678C121.959 77.6678 120.906 76.6141 120.906 75.3156C120.906 74.0164 121.959 72.9619 123.259 72.9619C124.559 72.9619 125.612 74.0164 125.612 75.3156Z" fill="white"/>
<path fill-rule="evenodd" clip-rule="evenodd" d="M132.85 75.3156C132.85 76.6141 131.796 77.6678 130.498 77.6678C129.198 77.6678 128.145 76.6141 128.145 75.3156C128.145 74.0164 129.198 72.9619 130.498 72.9619C131.796 72.9619 132.85 74.0164 132.85 75.3156Z" fill="white"/>
<path fill-rule="evenodd" clip-rule="evenodd" d="M37.5781 140.908H122.483V129.394H37.5781V140.908Z" fill="white"/>
<path fill-rule="evenodd" clip-rule="evenodd" d="M37.5781 148.531H122.483V144.174H37.5781V148.531Z" fill="white"/>
<path fill-rule="evenodd" clip-rule="evenodd" d="M98.6866 133.561C98.6439 133.713 98.7318 133.871 98.8838 133.913C99.0357 133.957 99.1938 133.868 99.237 133.716L99.764 131.85C99.8067 131.698 99.7183 131.54 99.5663 131.497C99.4143 131.454 99.2568 131.543 99.2136 131.694L98.6866 133.561Z" fill="#2A8FEC"/>
<path fill-rule="evenodd" clip-rule="evenodd" d="M91.9376 139.418L93.7602 138.759C93.9091 138.705 93.9853 138.541 93.9319 138.392C93.8781 138.244 93.7144 138.167 93.566 138.221L91.7435 138.88C91.5946 138.933 91.5183 139.098 91.5717 139.246C91.6256 139.394 91.7892 139.471 91.9376 139.418Z" fill="#2A8FEC"/>
<path fill-rule="evenodd" clip-rule="evenodd" d="M91.7822 136.299H93.7217C93.8792 136.299 94.0073 136.171 94.0073 136.014C94.0073 135.856 93.8792 135.728 93.7217 135.728H91.7822C91.6242 135.728 91.4961 135.856 91.4961 136.014C91.4961 136.171 91.6242 136.299 91.7822 136.299Z" fill="#2A8FEC"/>
<path fill-rule="evenodd" clip-rule="evenodd" d="M96.1016 131.208V133.146C96.1016 133.305 96.2296 133.433 96.3882 133.433C96.5458 133.433 96.6738 133.305 96.6738 133.146V131.208C96.6738 131.049 96.5458 130.921 96.3882 130.921C96.2296 130.921 96.1016 131.049 96.1016 131.208Z" fill="#2A8FEC"/>
<path fill-rule="evenodd" clip-rule="evenodd" d="M92.5643 132.73L94.0331 133.996C94.1525 134.099 94.3335 134.085 94.4366 133.966C94.5398 133.846 94.5266 133.666 94.4066 133.563L92.9378 132.297C92.8184 132.193 92.6375 132.207 92.5343 132.326C92.4311 132.446 92.4443 132.626 92.5643 132.73Z" fill="#2A8FEC"/>
<path fill-rule="evenodd" clip-rule="evenodd" d="M101.202 143.796L103.937 141.294L99.6199 136.575L101.469 134.883L95.0489 134.323L95.0352 140.767L96.8841 139.076L101.202 143.796Z" fill="#2A8FEC"/>
<path fill-rule="evenodd" clip-rule="evenodd" d="M37.2227 102.287H59.4696V85.9507H37.2227V102.287Z" fill="white"/>
<path fill-rule="evenodd" clip-rule="evenodd" d="M68.2578 102.287H90.5058V85.9507H68.2578V102.287Z" fill="white"/>
<path fill-rule="evenodd" clip-rule="evenodd" d="M100.258 102.287H122.506V85.9507H100.258V102.287Z" fill="white"/>
<path fill-rule="evenodd" clip-rule="evenodd" d="M41.5663 94.553C41.9647 94.4716 42.505 94.3842 43.1301 94.2836C45.0217 93.9776 47.3505 93.5995 48.369 92.9927C49.3855 93.5995 51.7152 93.9776 53.6064 94.2836C54.231 94.3842 54.7712 94.4716 55.1692 94.553C56.1978 94.7639 56.4077 95.4688 56.4459 95.8357H40.2891C40.3236 95.4693 40.5289 94.7649 41.5663 94.553ZM56.9505 95.8357H56.9489C56.9052 95.2207 56.5276 94.3206 55.2682 94.0635C54.8606 93.9801 54.3163 93.8917 53.685 93.7901C51.9352 93.507 49.5673 93.1232 48.6347 92.5723V92.3726C49.178 92.2521 49.5882 91.7637 49.5882 91.1864C49.5882 90.5165 49.0433 89.9717 48.3725 89.9717C48.0086 89.9717 47.668 90.1328 47.4358 90.4138L47.8205 90.732C47.9572 90.5668 48.158 90.4718 48.3725 90.4718C48.7674 90.4718 49.0875 90.7925 49.0875 91.1864C49.0875 91.5762 48.7714 91.8969 48.3816 91.902L48.1351 91.905V92.552C47.2279 93.1136 44.8214 93.5034 43.0492 93.7901C42.4185 93.8917 41.8726 93.9801 41.4655 94.0635C40.2066 94.3206 39.828 95.2207 39.7843 95.8357L39.7812 96.3353H56.9505V95.8357Z" fill="#767676"/>
<path fill-rule="evenodd" clip-rule="evenodd" d="M119.756 99.0603L119.754 99.0608C119.747 98.9272 119.529 95.7598 113.681 95.7456C113.681 95.7456 109.367 95.401 108.417 88.5673C108.417 88.5673 104.869 88.2369 104.257 91.6492C104.091 92.5696 104.121 93.0916 104.563 94.3429C104.996 95.5703 104.903 99.5879 104.903 99.5879H105.863L105.867 94.8648C105.867 94.8648 109.17 96.2864 111.302 99.6265C111.812 100.425 117.255 100.206 119.74 99.412C119.74 99.412 119.79 99.29 119.756 99.0603Z" fill="#2A8FEC"/>
<path fill-rule="evenodd" clip-rule="evenodd" d="M108.415 88.5672C108.415 88.5672 108.584 88.523 109.085 89.4277C110.313 91.6365 111.349 94.474 115.146 95.8243C115.146 95.8243 113.177 96.5943 111.113 94.8262C109.846 93.7396 108.166 91.1598 108.415 88.5672Z" fill="#1B4872"/>
<path fill-rule="evenodd" clip-rule="evenodd" d="M104.902 99.9331H105.866V99.5591H104.902V99.9331Z" fill="#1B4872"/>
<path fill-rule="evenodd" clip-rule="evenodd" d="M78.8984 92.7152C78.8984 92.7152 80.4846 87.6938 82.4673 87.951C83.3699 88.0684 84.8915 88.9837 84.4499 91.0049C84.2232 92.0367 82.9796 92.8102 79.6252 93.5781L78.8984 92.7152Z" fill="#34466B"/>
<path fill-rule="evenodd" clip-rule="evenodd" d="M79.375 92.5404C79.375 92.5404 80.9195 87.9933 82.4539 88.7668C82.8559 88.9686 82.8681 89.7507 81.6905 91.0859C80.1912 92.7875 79.375 92.5404 79.375 92.5404Z" fill="#137E84"/>
<path fill-rule="evenodd" clip-rule="evenodd" d="M79.1802 92.7371C79.1802 92.7371 77.6454 87.6995 75.6622 87.9358C74.7576 88.043 73.2258 88.9426 73.6456 90.9689C73.86 92.0027 75.0961 92.7894 78.4418 93.593L79.1802 92.7371Z" fill="#34466B"/>
<path fill-rule="evenodd" clip-rule="evenodd" d="M78.7034 92.5574C78.7034 92.5574 77.2072 87.9944 75.6637 88.7512C75.2606 88.9484 75.2408 89.7306 76.4036 91.0784C77.8852 92.7957 78.7034 92.5574 78.7034 92.5574Z" fill="#137E84"/>
<path fill-rule="evenodd" clip-rule="evenodd" d="M72.0742 100.64H86.0954V94.3428H72.0742V100.64Z" fill="#137E84"/>
<path fill-rule="evenodd" clip-rule="evenodd" d="M71.6758 94.8354H86.4959V92.8213H71.6758V94.8354Z" fill="#34466B"/>
<path fill-rule="evenodd" clip-rule="evenodd" d="M79.386 95.1724C79.231 95.1724 79.1055 95.0469 79.1055 94.8919C79.1055 94.7374 79.231 94.6118 79.386 94.6118C79.5405 94.6118 79.6666 94.7374 79.6666 94.8919C79.6666 95.0469 79.5405 95.1724 79.386 95.1724ZM80.1731 94.2637H78.6037L77.4922 95.0281V99.5432H81.2628V95.023L80.1731 94.2637Z" fill="#F6C854"/>
<path fill-rule="evenodd" clip-rule="evenodd" d="M79.38 95.1737C79.3139 95.1737 79.2615 95.1437 79.2615 95.1437V92.6712C79.2615 92.6056 79.3139 92.5527 79.38 92.5527C79.4455 92.5527 79.4989 92.6056 79.4989 92.6712V95.1498C79.4648 95.1671 79.4455 95.1737 79.38 95.1737Z" fill="white"/>
<path fill-rule="evenodd" clip-rule="evenodd" d="M108.281 95.8116C108.126 95.8116 108 95.686 108 95.531C108 95.3765 108.126 95.251 108.281 95.251C108.436 95.251 108.561 95.3765 108.561 95.531C108.561 95.686 108.436 95.8116 108.281 95.8116ZM110.157 95.6621L109.067 94.9028H107.498L106.387 95.6667V100.182H110.157V95.6621Z" fill="#F6C854"/>
<path fill-rule="evenodd" clip-rule="evenodd" d="M108.276 95.8124C108.209 95.8124 108.156 95.7814 108.156 95.7814V93.3098C108.156 93.2443 108.209 93.1914 108.276 93.1914C108.341 93.1914 108.393 93.2443 108.393 93.3098V95.7885C108.36 95.8058 108.341 95.8124 108.276 95.8124Z" fill="white"/>
<path fill-rule="evenodd" clip-rule="evenodd" d="M37.6016 125.143H59.8491V108.807H37.6016V125.143Z" fill="white"/>
<path fill-rule="evenodd" clip-rule="evenodd" d="M68.1367 125.143H90.3837V108.807H68.1367V125.143Z" fill="white"/>
<path fill-rule="evenodd" clip-rule="evenodd" d="M100.176 125.143H122.423V108.807H100.176V125.143Z" fill="white"/>
<path fill-rule="evenodd" clip-rule="evenodd" d="M56.4198 114.107L54.2004 116.848L50.8633 114.145L53.0817 111.404L56.4198 114.107Z" fill="#F6C854"/>
<path fill-rule="evenodd" clip-rule="evenodd" d="M40.2734 114.107L42.4934 116.848L45.83 114.145L43.6105 111.404L40.2734 114.107Z" fill="#F6C854"/>
<path fill-rule="evenodd" clip-rule="evenodd" d="M43.5938 123.64H53.0774V111.404H43.5938V123.64Z" fill="#F6C854"/>
<path fill-rule="evenodd" clip-rule="evenodd" d="M46.1094 111.404L48.3934 113.258L50.6794 111.404H46.1094Z" fill="#FFE99F"/>
<path fill-rule="evenodd" clip-rule="evenodd" d="M74.9331 123.869H83.3256C83.1996 122.897 83.2087 120.863 84.1876 116.974C85.043 114.872 84.9306 110.559 84.9306 110.559H84.0428C84.2115 112.272 83.8816 113.907 83.7551 114.451C83.258 113.813 82.484 113.462 81.6154 113.402C80.7301 113.342 79.5266 113.491 79.1129 114.458C78.6981 113.491 77.4819 113.358 76.6291 113.402C75.6747 113.451 74.8366 113.897 74.3532 114.643L74.3522 114.642C74.3522 114.642 73.811 112.659 74.0173 110.559H73.1289C73.1289 110.559 73.1269 114.628 73.9873 116.726C73.9888 116.729 75.2686 121.258 74.9331 123.869Z" fill="#2A8FEC"/>
<path fill-rule="evenodd" clip-rule="evenodd" d="M110.903 114.531C110.903 114.531 109.102 111.232 110.214 110.339C110.722 109.932 111.946 109.602 112.768 110.829C113.188 111.455 112.97 112.478 111.706 114.584L110.903 114.531Z" fill="#F6C854"/>
<path fill-rule="evenodd" clip-rule="evenodd" d="M111.047 114.202C111.047 114.202 109.47 111.158 110.628 110.749C110.929 110.643 111.338 111.024 111.442 112.29C111.578 113.903 111.047 114.202 111.047 114.202Z" fill="#D39E00"/>
<path fill-rule="evenodd" clip-rule="evenodd" d="M111.406 114.178C111.406 114.178 112.538 110.594 113.954 110.777C114.597 110.86 115.684 111.515 115.368 112.957C115.207 113.694 114.319 114.246 111.925 114.794L111.406 114.178Z" fill="#F6C854"/>
<path fill-rule="evenodd" clip-rule="evenodd" d="M113.944 111.359C114.23 111.503 114.238 112.062 113.399 113.015C112.329 114.229 111.746 114.054 111.746 114.054C111.746 114.054 112.848 110.808 113.944 111.359Z" fill="#D39E00"/>
<path fill-rule="evenodd" clip-rule="evenodd" d="M111.188 114.279C111.188 114.279 110.092 110.683 108.676 110.851C108.031 110.928 106.938 111.571 107.239 113.017C107.391 113.755 108.273 114.316 110.661 114.89L111.188 114.279Z" fill="#F6C854"/>
<path fill-rule="evenodd" clip-rule="evenodd" d="M110.853 114.151C110.853 114.151 109.784 110.893 108.682 111.434C108.394 111.575 108.381 112.132 109.21 113.095C110.268 114.321 110.853 114.151 110.853 114.151Z" fill="#D39E00"/>
<path fill-rule="evenodd" clip-rule="evenodd" d="M106.945 123.245H115.543V115.083H106.945V123.245Z" fill="#2A8FEC"/>
<path fill-rule="evenodd" clip-rule="evenodd" d="M106.574 115.822H115.922V114.346H106.574V115.822Z" fill="#F6C854"/>
<path fill-rule="evenodd" clip-rule="evenodd" d="M50.6907 114.024C50.5357 114.024 50.4102 113.899 50.4102 113.744C50.4102 113.589 50.5357 113.463 50.6907 113.463C50.8457 113.463 50.9712 113.589 50.9712 113.744C50.9712 113.899 50.8457 114.024 50.6907 114.024ZM52.567 113.875L51.4783 113.115H49.9089L48.7969 113.88V118.395H52.567V113.875Z" fill="#2A8FEC"/>
<path fill-rule="evenodd" clip-rule="evenodd" d="M50.6805 114.025C50.6149 114.025 50.5626 113.995 50.5626 113.995V111.523C50.5626 111.457 50.6149 111.404 50.6805 111.404C50.746 111.404 50.7994 111.457 50.7994 111.523V114.001C50.7654 114.019 50.746 114.025 50.6805 114.025Z" fill="white"/>
<path fill-rule="evenodd" clip-rule="evenodd" d="M83.5425 117.21C83.3697 117.21 83.2305 117.07 83.2305 116.898C83.2305 116.725 83.3697 116.585 83.5425 116.585C83.7148 116.585 83.8546 116.725 83.8546 116.898C83.8546 117.07 83.7148 117.21 83.5425 117.21ZM85.6309 117.043L84.4193 116.199H82.674L81.4375 117.048V122.071H85.6309V117.043Z" fill="#F6C854"/>
<path fill-rule="evenodd" clip-rule="evenodd" d="M83.5365 117.211C83.4633 117.211 83.4043 117.177 83.4043 117.177V114.427C83.4043 114.354 83.4633 114.295 83.5365 114.295C83.6091 114.295 83.6686 114.354 83.6686 114.427V117.184C83.6305 117.204 83.6091 117.211 83.5365 117.211Z" fill="white"/>
<path fill-rule="evenodd" clip-rule="evenodd" d="M112.474 116.592C112.342 116.592 112.234 116.484 112.234 116.351C112.234 116.218 112.342 116.11 112.474 116.11C112.607 116.11 112.715 116.218 112.715 116.351C112.715 116.484 112.607 116.592 112.474 116.592ZM114.082 116.464L113.149 115.813H111.805L110.852 116.468V120.338H114.082V116.464Z" fill="#F6C854"/>
<path fill-rule="evenodd" clip-rule="evenodd" d="M112.467 116.592C112.41 116.592 112.365 116.566 112.365 116.566V114.447C112.365 114.391 112.41 114.346 112.467 114.346C112.523 114.346 112.568 114.391 112.568 114.447V116.572C112.539 116.587 112.523 116.592 112.467 116.592Z" fill="white"/>
<path fill-rule="evenodd" clip-rule="evenodd" d="M102.109 42.5083C102.772 42.0211 103.203 41.2358 103.203 40.3506C103.203 38.8738 102.004 37.6748 100.527 37.6748C99.1637 37.6748 98.0369 38.697 97.8722 40.0163C97.8434 40.1538 97.8224 40.2927 97.808 40.4317L97.808 40.4319L97.8075 40.435L97.8075 40.4361C97.8032 40.4776 97.7995 40.5192 97.7963 40.5606L97.612 42.6255L98.0315 42.7659L98.0359 42.7669L98.0359 42.7669C98.0463 42.8028 98.0521 42.8223 98.0521 42.8223L98.0635 43.1016L98.0841 43.6237C98.0912 43.7964 98.1274 43.9657 98.1903 44.1249C98.2342 44.2372 98.2923 44.3448 98.3633 44.4447C98.4466 44.5619 98.5462 44.667 98.6573 44.7558C98.7152 44.8024 98.7768 44.844 98.8411 44.881C98.8751 44.9007 98.9091 44.9187 98.9443 44.9357L98.9446 44.9358L98.7644 48.1973C98.7644 48.1973 99.7165 48.4841 100.759 48.2565C101.389 48.1201 102.053 47.7943 102.56 47.1047C102.56 47.1047 101.96 44.5066 102.109 42.5083Z" fill="#FFC4B8"/>
<path fill-rule="evenodd" clip-rule="evenodd" d="M100.75 48.218C101.38 48.0816 102.044 47.7558 102.551 47.0663C102.551 47.0663 101.902 44.2823 102.122 42.2591C102.122 42.2591 100.647 45.8549 100.75 48.218ZM98.0332 42.7777C98.1801 42.8208 98.3246 42.7054 98.3151 42.5528L98.2533 41.5693L98.0332 42.7777Z" fill="#F4A48D"/>
<path fill-rule="evenodd" clip-rule="evenodd" d="M101.393 37.8503C100.217 37.809 100.361 36.7988 100.361 36.7988C99.1022 36.8401 98.5657 37.3143 98.5657 37.3143C97.5544 38.1181 97.9554 39.7309 97.9554 39.7309C98.1097 38.5139 99.9739 39.0327 100.704 39.1549C101.002 39.4474 100.887 40.1612 101.038 40.7628C101.041 40.7737 101.365 41.588 101.365 41.588L101.365 41.589L101.384 41.6736C101.389 41.6597 101.395 41.6459 101.4 41.632C101.597 41.1677 101.996 40.893 102.293 41.0179C102.589 41.143 102.671 41.6207 102.475 42.0851C102.406 42.2468 102.234 42.3856 102.129 42.4925C102.048 43.1743 102.063 43.8076 102.12 44.3513L102.424 44.3644L103.518 39.1696C103.6 38.4742 103.29 38.1568 102.793 38.0048C102.407 37.8863 101.908 37.8683 101.393 37.8503Z" fill="#444444"/>
<path fill-rule="evenodd" clip-rule="evenodd" d="M104.073 46.5366C103.707 46.5366 100.634 47.2606 100.634 47.2606C98.7062 46.7779 97.6202 46.5366 97.3764 46.5366C96.3538 46.5366 96.2938 46.9347 95.9633 48.3101L95.5664 66.0841H106.064V48.4006C106.064 47.0004 106.416 46.5366 104.073 46.5366Z" fill="#34466B"/>
<path fill-rule="evenodd" clip-rule="evenodd" d="M108.341 47.9264C108.053 47.037 107.122 46.7688 106.444 46.9537C105.768 47.1385 105.134 47.9524 105.403 48.7882L108.522 57.0342H111.132L108.341 47.9264Z" fill="#FFC4B8"/>
<path fill-rule="evenodd" clip-rule="evenodd" d="M108.234 47.6695C107.945 46.8054 105.703 46.5366 104.617 46.5366C103.531 46.5366 104.776 47.8351 105.062 48.6991L106.151 51.9665L109.323 50.9374L108.234 47.6695Z" fill="#34466B"/>
<path fill-rule="evenodd" clip-rule="evenodd" d="M102.805 60.0309L103.292 62.1022C103.292 62.1022 111.781 59.7375 111.13 57.0344L109.761 56.6724L108.527 56.8349L102.805 60.0309Z" fill="#FFC4B8"/>
<path fill-rule="evenodd" clip-rule="evenodd" d="M91.2578 57.4712L94.0486 48.3634C94.3366 47.474 95.2678 47.2058 95.9457 47.3907C96.6227 47.5755 97.2561 48.3895 96.9858 49.2252L93.8678 57.4712H91.2578Z" fill="#FFC4B8"/>
<path fill-rule="evenodd" clip-rule="evenodd" d="M94.1558 47.7444C94.443 46.8804 96.4983 46.2524 97.3748 46.5364C98.2497 46.82 97.6133 47.91 97.3271 48.774L96.2362 52.0414L93.0664 51.0123L94.1558 47.7444Z" fill="#34466B"/>
<path fill-rule="evenodd" clip-rule="evenodd" d="M99.5839 60.4679L99.0967 62.5392C99.0967 62.5392 90.6084 60.1745 91.2581 57.4714L92.6276 57.1094L93.8622 57.2719L99.5839 60.4679Z" fill="#FFC4B8"/>
<path fill-rule="evenodd" clip-rule="evenodd" d="M107.151 65.5383C107.151 65.8394 106.906 66.0841 106.606 66.0841H95.3896C95.0877 66.0841 94.8438 65.8394 94.8438 65.5383V57.2187C94.8438 56.9171 95.0877 56.6724 95.3896 56.6724H106.606C106.906 56.6724 107.151 56.9171 107.151 57.2187V65.5383Z" fill="black"/>
<path fill-rule="evenodd" clip-rule="evenodd" d="M108.235 66.7143C108.235 66.9664 108.041 67.1701 107.803 67.1701H94.5484C94.3107 67.1701 94.1172 66.9664 94.1172 66.7143V66.1785C94.1172 65.9265 94.3107 65.7222 94.5484 65.7222H107.803C108.041 65.7222 108.235 65.9265 108.235 66.1785V66.7143Z" fill="#444444"/>
<path fill-rule="evenodd" clip-rule="evenodd" d="M92.3086 68.0747L92.8386 70.7896H97.3765V68.1095C97.3765 68.1095 95.6872 68.0979 92.3086 68.0747Z" fill="black"/>
<path fill-rule="evenodd" clip-rule="evenodd" d="M104.978 67.8971L94.0111 63.2031C92.9403 62.8728 91.397 62.2635 90.4716 64.0121C89.9519 64.9899 89.7854 66.5932 91.886 67.2412L101.426 70.428H104.427L104.978 67.8971Z" fill="#767676"/>
<path fill-rule="evenodd" clip-rule="evenodd" d="M108.682 66.0858L96.6523 67.9562V70.7899H109.484C111.678 70.7899 112.005 69.1313 111.806 67.9903C111.452 65.9519 109.799 66.0858 108.682 66.0858Z" fill="#767676"/>
</svg>
