<svg width="164" height="171" viewBox="0 0 164 171" fill="none" xmlns="http://www.w3.org/2000/svg">
<path fill-rule="evenodd" clip-rule="evenodd" d="M129.935 131.08C130.4 134.011 135.69 143.535 135.69 143.535H163.594C163.594 143.535 143.45 126.76 139.048 126.512L129.935 131.08Z" fill="#34466B"/>
<path fill-rule="evenodd" clip-rule="evenodd" d="M135.921 143.535L109.025 94.5425L86.6037 89.695L103.864 80.0232C110.827 76.1223 119.644 78.5107 123.662 85.3856L149.279 129.22L135.921 143.535Z" fill="#9BC3D3"/>
<path fill-rule="evenodd" clip-rule="evenodd" d="M124.13 141.414C124.601 144.278 124.931 148.177 124.931 148.177H153.146C153.146 148.177 132.779 131.785 128.327 131.541L124.13 141.414Z" fill="#34466B"/>
<path fill-rule="evenodd" clip-rule="evenodd" d="M111.228 87.7074C107.201 80.8322 98.3652 78.4435 91.3886 82.3444L83.7774 86.6005L41.3376 96.2217C41.3376 96.2217 41.3376 125.403 65.27 125.403C67.3184 125.295 69.3371 124.876 71.2575 124.159L81.4702 120.35C89.1819 117.474 96.4577 113.571 103.101 108.753L123.512 145.856L136.898 131.542L111.228 87.7074Z" fill="#CEDEE7"/>
<g clip-path="url(#clip0_1483_32347)">
<path fill-rule="evenodd" clip-rule="evenodd" d="M40.2267 47.1522C40.1862 47.1229 49.3764 37.6373 49.7955 32.7097C48.7583 32.1406 47.7828 31.4277 46.8999 30.571C41.6253 25.4526 41.6415 17.126 46.9361 11.9882C52.2307 6.85031 60.8116 6.83469 66.0863 11.9531C68.2282 14.0313 69.4977 16.6389 69.8955 19.3473L69.8981 19.3484L72.5257 28.0551L70.131 28.5573L70.1207 35.2124C70.118 36.9467 68.9964 38.4978 67.3151 39.0923L63.525 40.4325L63.5237 40.4329L63.524 40.4331C63.524 40.4331 63.3244 40.9992 62.9725 41.9062L58.1846 53.2311L58.1763 53.2306C56.697 55.1234 53.7889 56.7157 51.0477 56.7157C44.6707 56.7157 41.0151 52.1023 40.2267 47.1522Z" fill="#FFC4B8"/>
</g>
<g clip-path="url(#clip1_1483_32347)">
<path fill-rule="evenodd" clip-rule="evenodd" d="M62.3101 43.3284C60.5933 42.7713 58.1068 41.3871 55.4375 37.9932L63.1935 40.9462C63.1935 40.9462 62.8659 41.9035 62.3101 43.3284ZM69.7064 28.8819C68.9966 29.103 68.285 28.5543 68.3193 27.8125L68.5398 23.0303L69.7064 28.8819Z" fill="#F4A48D"/>
</g>
<path fill-rule="evenodd" clip-rule="evenodd" d="M53.3803 16.4085C51.9504 17.4427 52.399 18.9532 54.2582 22.5739L57.5161 27.753C57.5161 27.753 63.2872 30.5863 63.8935 30.9408C64.3545 31.212 65.1349 30.1436 66.6323 29.4915C68.5308 28.6647 69.6114 29.301 69.6114 29.301L69.568 31.5472L68.3929 31.6178C67.7139 31.8116 67.6356 31.8028 67.0148 32.2554C66.5054 32.6266 67.0788 32.8887 67.4594 33.207L69.5644 34.3019C69.7724 35.1328 69.8615 35.946 69.7001 36.7848C69.284 38.9473 66.6066 41.4853 62.782 39.8103C60.2334 38.6941 54.0949 33.303 53.5838 31.873C53.5281 31.7247 53.4759 31.5751 53.426 31.4208L53.4255 31.4196C54.1084 30.4535 54.248 28.8305 53.6791 27.2003L53.6585 27.1422L53.6514 27.1227L53.6373 27.0842L53.6289 27.0616L53.6156 27.0263L53.6068 27.0032L53.5929 26.9675L53.5844 26.9459L53.5675 26.9036L53.5618 26.8892L53.5392 26.8345L53.5307 26.8141L53.5157 26.7789L53.5056 26.7554L53.4917 26.7235L53.4811 26.6993L53.4669 26.6677L53.4564 26.6443L53.4406 26.6099L53.4314 26.59L53.4071 26.5383L53.3973 26.518L53.3814 26.485L53.3698 26.4614L53.3552 26.4319L53.343 26.4077L53.3284 26.3789L53.3162 26.3551L53.3005 26.325L53.2891 26.3032L53.2629 26.2542L53.2526 26.2353L53.2351 26.2033L53.2224 26.1804L53.2068 26.1527L53.1935 26.1292L53.1781 26.1022L53.1646 26.079L53.1484 26.0514L53.1355 26.0295L53.1146 25.9948L53.1069 25.9819L53.0984 25.9682L53.0778 25.9345L53.0645 25.9133L53.0476 25.8864L53.0335 25.8644L53.0169 25.8385L53.0027 25.8166L52.9853 25.7903L52.9717 25.7697L52.9511 25.7391L52.9405 25.7233L52.9101 25.6793L52.8973 25.6609L52.8781 25.6337L52.864 25.614L52.8456 25.5884L52.8313 25.5687L52.8123 25.543L52.7985 25.5244L52.7766 25.4952L52.7656 25.4806L52.7332 25.4385C51.8248 24.2694 50.6009 23.6732 49.5544 24.0288C48.0653 24.5348 47.4955 26.7774 48.2829 29.0337C48.5571 29.8195 48.96 30.5041 49.4316 31.0412C49.4627 31.7154 49.4743 32.3784 49.469 33.0288C47.5992 31.4886 44.8702 29.5102 43.9341 27.12C40.9423 19.4806 43.0695 10.0392 52.0069 7.00267C55.1531 5.9337 58.0842 5.98419 60.7015 6.75389C61.7121 6.93478 62.7223 7.11953 63.7443 7.2049C65.6099 7.36169 68.0651 7.6092 68.4374 9.44448C68.5943 10.2156 68.2854 11.0961 68.7085 11.7607C69.069 12.3265 69.8063 12.4876 70.3745 12.8448C72.1954 13.9911 71.7417 17.0225 70.0351 18.3342C69.8183 18.501 69.5913 18.6475 69.3558 18.7758C69.0049 17.6725 68.2276 16.7355 67.1725 16.1911C64.2117 14.6622 60.7956 14.299 57.5916 15.1509C57.345 15.2167 57.0992 15.2893 56.8546 15.3698L55.0476 15.8478C54.4881 15.9946 53.9565 16.1948 53.4569 16.4419L53.3803 16.4085Z" fill="#1BB3BC"/>
<path fill-rule="evenodd" clip-rule="evenodd" d="M49.088 36.3674C47.2831 36.6824 44.5719 37.2769 43.0446 38.1935H43.0441L41.3255 42.7196L37.9732 44.4859C31.8651 47.7046 28.255 54.275 28.7948 61.1874L30.8906 88.0014C31.3262 93.5713 36.0981 97.7765 41.6479 97.4807L68.8686 96.0279C68.8686 96.0279 68.3499 94.4051 67.9289 92.3017L80.2453 88.416L88.709 83.6976L72.218 52.0406C71.7287 51.1237 71.1106 50.297 70.3909 49.5808L69.0791 46.0729C68.3603 44.1504 67.0547 42.5061 65.3506 41.3758L64.4981 40.0099L62.7356 40.0238L62.4464 41.4515C62.1876 42.7309 62.234 44.0294 62.557 45.2502C62.6297 45.5271 62.7174 45.8031 62.8199 46.0715L62.8216 46.0757C61.8412 47.0808 60.1084 48.0885 57.3061 47.4525L56.3967 46.1745C56.0656 45.7087 55.7025 45.271 55.3116 44.8635L55.2507 44.8L55.2488 44.7983L55.1879 44.7363L55.1848 44.7329L55.1237 44.6717L55.0622 44.6114L55.0569 44.606L54.996 44.5465L54.9349 44.4879L54.9281 44.4813L54.8667 44.4235L54.8052 44.3666L54.7353 44.3026L54.6736 44.2471L54.6663 44.2403L54.6037 44.1848L54.5998 44.1814L54.5398 44.129L54.533 44.123L54.4707 44.0693L54.4631 44.0633L54.4036 44.0123L54.3985 44.0084L54.3354 43.9557L54.3261 43.948L54.2638 43.8968L54.2627 43.8957L54.1987 43.8442L54.188 43.8356L54.124 43.785L54.06 43.7346L54.0487 43.7258L53.9842 43.676L53.9825 43.6746L53.9196 43.6268L53.908 43.6182L53.8435 43.5701L53.8367 43.5653L53.7767 43.5212L53.7659 43.5132L53.7014 43.4665L53.6915 43.4591L53.6318 43.417L53.623 43.4108L53.5579 43.365L53.5457 43.3567L53.4843 43.3143L53.4784 43.3103L53.4124 43.2656L53.3989 43.2565L53.3323 43.2121L53.2653 43.1683L53.2511 43.1589L53.1843 43.116L53.1812 43.1137L53.1167 43.073L53.1025 43.0642L53.0354 43.0226L53.0269 43.0169L52.9658 42.9796L52.9525 42.9714L52.8854 42.9313L52.8735 42.9242L52.813 42.8883L52.8014 42.8815L52.7337 42.8422L52.7196 42.8342L52.6579 42.7987L52.6491 42.7935L52.5806 42.7554L52.5653 42.7469L52.4991 42.7102L52.4954 42.7082L52.4258 42.6706L52.4099 42.6621L52.3403 42.6251L52.3372 42.6234L52.2696 42.5881L52.2537 42.5801L52.1844 42.5443L52.175 42.5397L52.1116 42.5081L52.0966 42.5004L52.0267 42.466L52.014 42.4597L51.952 42.4296L51.9381 42.423L51.8682 42.39L51.8529 42.3829L51.7898 42.3536L51.7788 42.3485L51.708 42.3163L51.6916 42.3089L51.6245 42.279L51.6183 42.2762L51.5464 42.2449L51.5294 42.2375L51.4567 42.2065L51.4547 42.2056L51.3834 42.176L51.3664 42.1686L51.2939 42.139L51.2852 42.1356L51.2189 42.1092L51.2025 42.1026L51.1301 42.0742L51.1173 42.069L51.0528 42.0446L51.0378 42.0389L50.965 42.0118L50.9498 42.0061L50.8847 41.9822L50.8722 41.978L50.7989 41.9515L50.7819 41.9458L50.7134 41.9219L50.7058 41.9191L50.6314 41.894L50.6135 41.888L50.538 41.8633L50.5391 41.8439L50.5394 41.8377L50.5399 41.8249V41.8175L50.5402 41.8058V41.7867L50.5399 41.7785V41.7677L50.5396 41.7591L50.5394 41.7489L50.5391 41.7401L50.5382 41.7298L50.5377 41.721L50.5371 41.7108L50.5363 41.7019L50.5351 41.6917L50.5343 41.6829L50.5331 41.6726L50.5323 41.6638L50.5309 41.6538L50.5297 41.645L50.5283 41.6348L50.5266 41.6262L50.5252 41.616L50.5238 41.6075L50.5218 41.5972L50.5201 41.5887L50.5181 41.5782L50.5164 41.5699L50.5139 41.5594L50.5119 41.5514L50.5094 41.5403L50.5074 41.5329L50.5046 41.5212L50.5026 41.5144L50.4975 41.4959L50.4918 41.4777L50.4859 41.4595L50.4836 41.4529L50.4796 41.4416L50.4768 41.4342L50.4731 41.4236L50.47 41.4159L50.4661 41.4057L50.4627 41.3977L50.459 41.3878L50.4553 41.3801L50.4511 41.3704L50.4477 41.3624L50.4431 41.3528L50.4392 41.3451L50.4349 41.3357L50.4307 41.3274L50.4262 41.3183L50.4222 41.3104L50.4171 41.3013L50.4129 41.2933L50.4078 41.2845L50.4032 41.2765L50.3981 41.2677L50.3936 41.26L50.3882 41.2509L50.3834 41.2435L50.3778 41.2344L50.3729 41.227L50.3667 41.2182L50.3619 41.2108L50.3557 41.202L50.3506 41.1948L50.3441 41.1857L50.3393 41.1792L50.3316 41.1695L50.3274 41.1635L50.3149 41.1482L50.3025 41.1331L50.2979 41.128L50.2897 41.1183L50.2841 41.1123L50.2764 41.1035L50.2705 41.0969L50.2628 41.089L50.2563 41.0824L50.249 41.0748L50.2422 41.0682L50.2345 41.0608L50.2277 41.0543L50.2201 41.0469L50.213 41.0403L50.2051 41.0335L50.1977 41.0269L50.1898 41.0201L50.1822 41.0136L50.1663 41.0005L50.1584 40.9942L50.1502 40.988L50.142 40.9817L50.1338 40.9754L50.1253 40.9695L50.1168 40.9635L50.1083 40.9575L50.0995 40.9515L50.091 40.9458L50.082 40.9399L50.0642 40.9285L50.0557 40.9234L50.046 40.9177L50.0375 40.9128L50.0274 40.9069L50.0197 40.9026L50.0087 40.8966L49.9897 40.8869L49.9705 40.8773L49.9577 40.8713C49.9345 40.8602 49.9105 40.8499 49.8856 40.8403L46.6035 39.5705C47.6411 38.6451 48.4534 37.5438 49.088 36.3674ZM65.3522 41.3792C65.4192 41.4333 65.5406 41.5593 65.6164 41.8023L65.3522 41.3792Z" fill="#2A8FEC"/>
<path fill-rule="evenodd" clip-rule="evenodd" d="M67.7022 90.1445L77.2155 86.1707C77.7863 85.9318 78.2731 85.5202 78.6098 84.9905L79.3287 83.8579C79.4686 83.6376 79.6625 83.4587 79.8912 83.3398L81.0553 82.7322C81.2681 82.621 81.5123 82.5905 81.7444 82.6455L82.5762 82.8406C82.6525 82.8581 82.7319 82.8546 82.8055 82.8291L83.9928 82.4237C84.3425 82.3045 84.3881 81.8154 84.0661 81.6311L82.4893 80.7248C82.3456 80.6412 82.3789 80.4206 82.5399 80.3857L83.7518 80.126C83.8048 80.1143 83.8597 80.1283 83.9016 80.1635L86.2503 82.1516C86.5069 82.369 86.8845 82.3423 87.1101 82.0909L87.6245 81.5176C87.8007 81.3206 87.8398 81.0314 87.721 80.7924L87.501 80.3514L87.6825 80.4969C87.8438 80.6275 88.0824 80.562 88.1594 80.3672L88.3018 80.005C88.3402 79.9074 88.3288 79.7971 88.2711 79.7104L86.8652 77.5729C86.4101 76.8801 85.6099 76.5121 84.802 76.623L79.5316 77.3476C78.8946 77.4356 78.2955 77.7092 77.8059 78.1367L72.2224 83.0154L68.2925 83.2021C67.2182 84.7092 67.3133 87.5741 67.7022 90.1445Z" fill="#FFC4B8"/>
<path fill-rule="evenodd" clip-rule="evenodd" d="M64.3359 45.2878L63.8375 44.1052C63.8375 44.1052 62.0806 48.2874 56.5982 47.1259L61.3717 53.3905C61.746 51.0271 62.5164 47.8786 64.0896 45.6455C64.1757 45.5231 64.2577 45.404 64.3359 45.2878Z" fill="white"/>
<defs>
<clipPath id="clip0_1483_32347">
<rect width="31.8404" height="49.3633" fill="white" transform="translate(40.2266 8.12451)"/>
</clipPath>
<clipPath id="clip1_1483_32347">
<rect width="14.2689" height="20.2982" fill="white" transform="translate(55.4375 23.0303)"/>
</clipPath>
</defs>
</svg>
