<svg width="160" height="160" viewBox="0 0 160 160" fill="none" xmlns="http://www.w3.org/2000/svg">
<path fill-rule="evenodd" clip-rule="evenodd" d="M8.08351 69.1167C10.2637 61.295 3.33284 60.9932 3.18022 50.9148C3.11807 46.7929 5.37595 42.5948 10.8093 40.669C13.4796 39.7229 16.141 39.0725 18.5169 37.5676C23.9313 34.1385 23.8334 27.6134 25.3107 22.0511C28.5542 9.83441 41.0381 0.128774 53.6746 0.444502C62.7841 0.671686 71.0198 0.950909 79.3247 8.68295C85.0074 13.9738 88.7006 20.4837 93.9763 25.9381C99.5635 31.714 106.372 34.4853 114.016 36.3412C121.246 38.0962 129.111 40.1843 134.645 45.4472C139.845 50.3929 139.087 55.5657 136.857 61.6383C134.398 68.3346 139.73 72.8903 145.289 75.4981C149.97 77.6934 157.805 82.1591 158.062 90.3932C158.854 115.898 142.654 116 136.614 118.424C81.0517 140.724 59.7286 123.524 36.1689 123.872C12.6831 124.218 -0.779785 95.8158 0.0361328 87.4515C1.07147 76.8313 6.56079 74.5785 8.08351 69.1167Z" fill="#EAF7FE"/>
<path d="M111.07 141.408C117.006 139.249 123.675 134.577 129.905 133.447C142.417 131.178 159.003 129.68 159.533 126.648C160.576 120.681 150.58 117.676 127.606 115.326C128.094 114.91 124.676 107.525 106.163 106.167C98.8377 105.63 86.5815 106.506 81.9021 108.042C74.7095 110.402 67.2191 111.733 59.6552 112.037C32.753 113.116 11.7021 116.54 11.5355 121.165C11.4795 122.711 13.0708 124.824 15.5266 126.027C17.0568 126.776 14.8414 127.469 14.3275 127.664C8.01639 130.061 4.49843 132.675 4.404 134.704C4.10799 141.069 27.6598 146.962 55.104 147.952C73.8006 148.626 101.16 145.012 111.07 141.408Z" fill="#CEDEE7"/>
<path fill-rule="evenodd" clip-rule="evenodd" d="M141.62 39.2705L96.0046 49.0873L101.267 73.5115L146.88 63.6958L141.62 39.2705Z" fill="#2C9891"/>
<path fill-rule="evenodd" clip-rule="evenodd" d="M140.59 46.5605L143.073 58.0843C140.693 58.5961 139.166 60.8728 139.661 63.1705L107.001 70.1988C106.506 67.9022 104.177 66.456 101.798 66.9671L99.3151 55.4421C101.695 54.9309 103.22 52.6545 102.726 50.3573L135.387 43.3293C135.883 45.6246 138.212 47.0725 140.59 46.5605Z" fill="#8AD7C4"/>
<path fill-rule="evenodd" clip-rule="evenodd" d="M101.376 74.2506L147.106 64.5303C147.478 64.4512 147.726 64.0875 147.649 63.7285L142.399 39.0288C142.323 38.6715 141.949 38.4381 141.577 38.5173L95.7785 48.252C95.4067 48.331 95.1579 48.695 95.2353 49.0538C97.0085 57.2825 98.7809 65.5108 100.553 73.7392C100.591 73.9186 100.689 74.0361 100.808 74.1195C100.813 74.1237 100.818 74.1279 100.822 74.1321C100.833 74.1413 100.843 74.1504 100.855 74.1588C100.867 74.1655 100.879 74.1704 100.892 74.1754C100.897 74.1774 100.902 74.1794 100.907 74.1816C101.035 74.2529 101.188 74.2905 101.376 74.2506ZM146.143 63.3603L101.776 72.7908C101.216 70.192 100.656 67.5933 100.096 64.9946C98.9777 59.8039 97.859 54.6132 96.7407 49.4216L141.173 39.9773L146.143 63.3603Z" fill="#2C9891"/>
<mask id="mask0_1483_87222" style="mask-type:luminance" maskUnits="userSpaceOnUse" x="114" y="46" width="14" height="21">
<path fill-rule="evenodd" clip-rule="evenodd" d="M114.613 48.7676L124.128 46.918L127.496 64.2404L117.98 66.09L114.613 48.7676Z" fill="white"/>
</mask>
<g mask="url(#mask0_1483_87222)">
<path fill-rule="evenodd" clip-rule="evenodd" d="M121.445 50.7991C121.824 51.0256 122.077 51.4063 122.203 51.941L122.291 52.316C122.486 52.2988 122.672 52.2685 122.852 52.2266C123.04 52.1822 123.218 52.1174 123.387 52.0302C123.557 51.944 123.702 51.8366 123.823 51.7095C123.944 51.582 124.034 51.4369 124.09 51.2723C124.146 51.1094 124.149 50.9248 124.101 50.7196C123.999 50.2824 123.784 49.9613 123.456 49.7554C123.129 49.5499 122.755 49.4193 122.335 49.362C121.915 49.3053 121.483 49.3029 121.041 49.355C120.599 49.4073 120.216 49.4664 119.891 49.5332L119.502 47.8173L118.467 48.187L118.851 49.8193C118.326 49.9988 117.84 50.228 117.394 50.5069C116.949 50.786 116.578 51.1141 116.285 51.494C115.991 51.8734 115.787 52.3073 115.674 52.7945C115.562 53.2822 115.575 53.8207 115.714 54.4092C115.852 54.9978 116.084 55.4801 116.408 55.8552C116.733 56.2307 117.119 56.5358 117.567 56.7692C118.014 57.0033 118.508 57.1793 119.047 57.2975C119.586 57.4162 120.139 57.5127 120.705 57.5865L121.874 62.5632C121.191 62.6765 120.637 62.6067 120.213 62.3527C119.79 62.0993 119.499 61.6384 119.342 60.9696L119.251 60.5817C119.056 60.5983 118.864 60.6296 118.676 60.6739C118.478 60.72 118.294 60.7895 118.122 60.8816C117.949 60.9736 117.803 61.0855 117.682 61.2177C117.561 61.3493 117.477 61.5006 117.427 61.6723C117.378 61.8444 117.377 62.0325 117.426 62.2377C117.541 62.728 117.782 63.0879 118.148 63.3176C118.514 63.5468 118.926 63.6925 119.385 63.7541C119.845 63.8161 120.312 63.8192 120.786 63.7644C121.261 63.7094 121.664 63.6434 121.996 63.5653L122.103 63.5403L122.51 65.2095L123.432 64.7814L123.07 63.2425C123.618 63.0389 124.126 62.7835 124.593 62.4758C125.061 62.1691 125.447 61.8101 125.753 61.3996C126.058 60.989 126.268 60.526 126.384 60.0092C126.499 59.4932 126.482 58.9182 126.334 58.2849C126.197 57.7049 125.966 57.2324 125.638 56.8665C125.311 56.5013 124.918 56.21 124.46 55.9927C124.003 55.7754 123.496 55.612 122.94 55.5025C122.384 55.3923 121.81 55.3042 121.217 55.2361L120.12 50.5102C120.623 50.4763 121.065 50.5726 121.445 50.7991ZM117.509 53.2257C117.589 53.5649 117.714 53.8463 117.885 54.0696C118.055 54.2931 118.257 54.4763 118.49 54.6196C118.722 54.7624 118.978 54.8748 119.257 54.9547C119.537 55.0351 119.824 55.1016 120.12 55.1547L119.072 50.7556C118.793 50.8589 118.543 50.9909 118.321 51.1512C118.098 51.3116 117.917 51.4975 117.777 51.7086C117.638 51.9207 117.541 52.153 117.486 52.4054C117.433 52.6582 117.44 52.9317 117.509 53.2257ZM124.497 59.4642C124.422 59.1431 124.295 58.8761 124.117 58.6636C123.939 58.4516 123.729 58.2773 123.484 58.1423C123.239 58.0066 122.968 57.9025 122.673 57.8311C122.376 57.7592 122.077 57.7027 121.773 57.6606L122.848 62.2933C123.141 62.1679 123.406 62.0092 123.645 61.8173C123.884 61.6249 124.078 61.4068 124.23 61.1644C124.38 60.9224 124.482 60.6585 124.534 60.3735C124.585 60.088 124.572 59.7855 124.497 59.4642Z" fill="#2C9891"/>
</g>
<path fill-rule="evenodd" clip-rule="evenodd" d="M127.606 68.9857L131.401 70.4804L137.605 75.621L140.442 66.4033L143.898 67.0237L141.682 78.2799L138.049 81.5595L127.59 75.7983L127.606 68.9857Z" fill="#2A8FEC"/>
<path fill-rule="evenodd" clip-rule="evenodd" d="M105.552 73.3833L102.991 73.8354L102.98 74.6086L106.468 76.1155L107.016 74.8244L105.552 73.3833Z" fill="#FFC4B8"/>
<path fill-rule="evenodd" clip-rule="evenodd" d="M131.317 96.4366L131.411 99.463L127.998 109.6L129.337 126.366L127.453 126.872L123.734 110.335L123.294 105.569L124.019 95.5947L131.317 96.4366Z" fill="#FFC4B8"/>
<path fill-rule="evenodd" clip-rule="evenodd" d="M116.931 98.7964L118.856 126.869L120.615 126.992L122.178 109.193L126.254 96.9087L116.931 98.7964Z" fill="#FFC4B8"/>
<path fill-rule="evenodd" clip-rule="evenodd" d="M131.039 91.9784C129.533 81.84 130.071 74.4568 129.993 72.4294C129.915 70.4022 128.526 69.3501 128.526 69.3501C127.916 69.2106 127.385 68.8085 126.77 68.6499C122.606 67.5768 120.335 70.8337 118.777 74.3467C116.856 78.675 115.243 83.1475 113.938 87.7101C112.793 91.7145 111.646 95.7548 111.166 99.9105C110.846 102.681 111.336 104.047 112.635 104.008C116.77 104.794 119.865 105.316 121.921 105.573C125.464 106.017 129.012 106.342 132.578 106.494C134.44 106.573 132.545 102.117 131.039 91.9784Z" fill="#2A8FEC"/>
<path fill-rule="evenodd" clip-rule="evenodd" d="M143.224 66.9028L144.785 65.34L144.253 62.5923H142.747L142.303 64.9854L141.539 65.4449V66.6003L143.224 66.9028Z" fill="#FFC4B8"/>
<path fill-rule="evenodd" clip-rule="evenodd" d="M124.754 68.4419L120.765 69.1509L113.566 76.1151L107.113 73.8499L105.038 76.4955L113.675 81.5595L122.804 75.7098L124.754 68.4419Z" fill="#2A8FEC"/>
<path fill-rule="evenodd" clip-rule="evenodd" d="M126.185 65.4225C127.473 64.7713 128.418 63.487 128.582 61.93C128.836 59.5101 127.107 57.342 124.723 57.0914C122.402 56.8475 120.311 58.5091 119.966 60.829C119.934 60.9693 119.909 61.1132 119.894 61.2602C119.881 61.3784 119.875 61.4954 119.874 61.6112C119.874 61.6112 119.8 62.964 119.763 63.6404C119.733 64.1997 119.672 65.3185 119.672 65.3185L121.218 66.1703L120.919 69.014C122.351 70.2928 123.894 70.4171 125.537 69.4903L126.185 65.4225Z" fill="#FFC4B8"/>
<path fill-rule="evenodd" clip-rule="evenodd" d="M121.323 66.16C121.323 66.16 125.933 66.7699 126.215 65.3597L126.019 66.5085C126.019 66.5085 125.844 67.2937 121.323 66.16ZM120.145 64.3454L120.885 62.5484L121.022 63.7785C121.069 64.1953 120.6 64.4988 120.145 64.3454Z" fill="#F4A48D"/>
<path fill-rule="evenodd" clip-rule="evenodd" d="M127.184 69.9652C128.768 69.5695 130.004 68.1999 130.186 66.4489C130.307 65.2978 129.941 64.2101 129.258 63.3978C129.152 63.2719 129.113 63.1027 129.152 62.9413L129.15 62.9426L129.153 62.9385L129.162 62.8988C129.184 62.806 129.203 62.713 129.219 62.6203C129.224 62.595 129.228 62.5701 129.232 62.5451C129.549 60.5529 128.648 58.49 126.83 57.4516C126.53 57.28 126.219 57.1448 125.902 57.0445C125.872 57.0261 125.841 57.008 125.81 56.9903C124.76 56.3904 123.583 56.2349 122.485 56.4639C122.047 56.5545 121.623 56.7065 121.224 56.9155C121.249 57.2675 121.305 57.6121 121.39 57.9459C120.928 58.3301 120.527 58.8075 120.217 59.3697C120.011 59.7439 119.857 60.1335 119.752 60.5295L121.287 58.9267L121.617 58.649C122.292 60.3647 123.75 61.6993 125.587 62.1451C125.539 62.4288 125.505 62.7294 125.498 63.0332C125.745 62.7998 126.033 62.7115 126.222 62.8373C126.452 62.9902 126.456 63.4061 126.245 63.8005L126.238 63.8125L126.232 63.8245L126.23 63.8272L126.225 63.8364L126.223 63.8401L126.218 63.849L126.216 63.8521L126.209 63.8639L126.208 63.8659L126.202 63.8757L126.199 63.8794L126.194 63.8879L126.192 63.8914L126.184 63.9031L126.178 63.9128L126.176 63.916L126.172 63.9224L126.169 63.9262L126.165 63.932L126.163 63.9359L126.159 63.9415L126.156 63.9455L126.152 63.9509L126.15 63.9549L126.146 63.9603L126.143 63.9642L126.139 63.9698L126.137 63.9734L126.132 63.9793L126.13 63.9826L126.123 63.9916L126.116 64.0006L126.11 64.0094L126.107 64.0128L126.103 64.0182L126.1 64.0218L126.096 64.027L126.093 64.0306L126.089 64.0357L126.086 64.0393L126.079 64.0479L126.075 64.0529L126.072 64.0563L126.068 64.0616L126.065 64.0647L126.058 64.073L126.051 64.0811L126.044 64.0892L126.041 64.0922L126.036 64.0972L126.029 64.1052L126.022 64.1131L126.019 64.1164L126.011 64.1241L126.007 64.1286L126.004 64.1318L126 64.1364L125.997 64.1393L125.989 64.1468L125.982 64.1541L125.974 64.1614L125.972 64.1639L125.967 64.1686L125.964 64.1715L125.959 64.1757L125.956 64.1787L125.952 64.1827L125.949 64.1857L125.944 64.1897L125.941 64.1926L125.937 64.1966L125.933 64.1994L125.929 64.2035L125.926 64.2061L125.918 64.2127L125.911 64.2192L125.903 64.2257L125.895 64.232L125.892 64.2344L125.887 64.2382L125.884 64.2408L125.88 64.2443L125.876 64.2469L125.872 64.2504L125.869 64.253L125.864 64.2564L125.861 64.2589L125.856 64.2624L125.853 64.2647L125.848 64.2684L125.845 64.2704L125.837 64.2761L125.83 64.2816L125.822 64.287L125.814 64.2923L125.811 64.2945L125.806 64.2975L125.803 64.2997L125.798 64.3027L125.79 64.3078L125.787 64.3098L125.782 64.3128L125.779 64.3147L125.771 64.3195L125.763 64.3242L125.755 64.3288L125.748 64.3333L125.74 64.3376L125.737 64.3393L125.732 64.3419L125.728 64.3436L125.724 64.3461L125.721 64.3478L125.716 64.3502L125.713 64.3519L125.708 64.3543L125.705 64.3558L125.697 64.3596L125.691 64.3623C125.549 64.4289 125.409 64.444 125.296 64.3961C124.486 65.2415 123.29 66.7258 123.72 67.7513C123.72 67.7528 123.721 67.7542 123.722 67.7557C123.81 67.9652 124.028 68.0807 124.245 68.0472L124.246 68.0518L125.391 67.7116C125.579 67.6554 125.657 67.6473 125.801 67.6153C125.876 67.791 125.938 67.8931 126.029 68.0643C126.41 68.783 126.857 69.4789 127.184 69.9652Z" fill="black"/>
<path fill-rule="evenodd" clip-rule="evenodd" d="M121.063 68.2973C121.063 68.2973 120.464 68.3495 120.4 68.3523C118.375 68.4401 116.495 69.3659 116.136 71.4024C116.045 71.9171 116.647 72.8654 117.614 72.5151C118.532 72.1831 118.823 70.9228 120.109 70.53C120.4 70.441 120.695 70.3854 120.979 70.3481L120.995 69.1933C121.048 68.6452 121.071 68.3466 121.063 68.2973Z" fill="black"/>
<path fill-rule="evenodd" clip-rule="evenodd" d="M120.331 79.3422L125.594 69.3053L123.998 68.7445L122.846 68.4062L120.817 68.5434L120.331 79.3422Z" fill="white"/>
<path fill-rule="evenodd" clip-rule="evenodd" d="M127.521 125.557L129.387 125.954L129.489 127.81L129.445 127.815L129.455 127.818L126.46 128.916L125.158 128.813L125.284 127.297L125.678 127.106L127.521 125.557Z" fill="black"/>
<path fill-rule="evenodd" clip-rule="evenodd" d="M118.802 125.976L116.448 127.568L116.615 128.937L121.366 128.495L120.909 126.123L118.802 125.976Z" fill="black"/>
<path d="M17.8633 50.9898C17.8633 50.9898 18.2009 47.8336 27.7081 48.1379C37.2159 48.4425 50.983 46.0783 59.8841 45.8921C70.1773 45.6771 80.3876 47.4528 80.3876 47.4528L64.9967 68.3983H32.5904L17.8633 50.9898Z" fill="#767676"/>
<path fill-rule="evenodd" clip-rule="evenodd" d="M80.0014 25.8765C70.7933 40.559 61.827 55.4155 56.8078 71.1165C48.6352 68.8731 40.4754 66.6292 32.2344 64.3774C36.4683 48.5154 37.76 32.4503 41.4098 15.5825C54.8915 17.5638 67.5331 21.0828 80.0014 25.8765Z" fill="#8AD7C4"/>
<path fill-rule="evenodd" clip-rule="evenodd" d="M78.98 24.8721C69.6934 39.5551 60.5838 54.489 55.4513 70.3928L57.0086 70.816L57.4698 69.3865C49.2335 67.145 41.009 64.9033 32.7021 62.6535L32.2426 64.0836L33.819 64.4417C35.9739 56.4387 37.3724 48.4173 38.6929 40.3081C40.013 32.1982 41.2551 23.9997 43.0819 15.6309L41.4899 15.3376L41.2354 16.8105C54.6837 18.7699 67.2941 22.2476 79.7616 26.9988L80.384 25.6213L78.98 24.8721L80.384 25.6213L81.0064 24.2438C68.342 19.4172 55.471 15.864 41.7444 13.8647L40.2041 13.6406L39.8976 15.0446C38.0464 23.5263 36.7982 31.778 35.4812 39.8668C34.1644 47.9564 32.7785 55.8824 30.6663 63.7259L30.293 65.1105L31.7831 65.5141C40.087 67.763 48.3101 70.0045 56.5471 72.2459L58.1041 72.6698L58.5653 71.2396C61.9964 60.5939 67.3124 50.2881 73.3172 40.1198C76.0367 35.5148 78.8974 30.938 81.7883 26.3705L82.7202 24.897L81.0064 24.2438L80.384 25.6213L78.98 24.8721Z" fill="#2C9891"/>
<path d="M55.4816 34.4126C62.8494 36.384 66.5937 42.2583 64.0684 47.1441C61.5248 52.0554 55.0506 54.7705 49.1974 53.1912C43.3738 51.5945 39.2368 46.1057 40.1185 40.8289C41.0206 35.5775 48.1084 32.484 55.4816 34.4126Z" fill="#2C9891"/>
<path d="M32.2344 63.9092C34.4869 64.5005 36.7284 65.0889 38.9674 65.6796C40.0262 62.388 37.7218 58.9084 33.7967 57.9126C33.3292 59.9193 32.8146 61.9185 32.2344 63.9092Z" fill="#2C9891"/>
<path d="M49.4496 41.0652C48.5107 40.8893 47.8615 41.4414 47.5092 42.7065C47.1502 43.9798 47.3956 44.722 48.2272 44.9394C48.7376 45.0703 49.1678 44.9657 49.5167 44.6174C49.8753 44.2701 50.3871 43.5206 51.0802 42.3661C51.7702 41.2126 52.5739 40.4383 53.4945 40.053C54.4111 39.6692 55.4639 39.6328 56.6296 39.9535C57.9844 40.3277 58.8525 41.0823 59.202 42.1937C59.558 43.3041 59.4714 44.4377 58.986 45.6017C57.8078 48.407 55.8596 49.635 53.1163 49.321C53.3138 48.5129 53.5144 47.7063 53.714 46.8988C55.1797 47.1093 56.1954 46.4678 56.7843 44.9673C57.3365 43.5615 56.997 42.6805 55.7524 42.3388C55.2033 42.1889 54.732 42.2488 54.3413 42.5233C53.9523 42.7958 53.3705 43.5288 52.6302 44.722C51.8879 45.9126 51.1186 46.7081 50.3193 47.1102C49.518 47.5108 48.6672 47.5897 47.7411 47.3482C46.7564 47.0868 46.0108 46.5011 45.5055 45.5856C44.9991 44.6716 44.9098 43.5098 45.2671 42.1002C45.9632 39.3022 47.5871 38.117 50.0638 38.6003C49.8578 39.4223 49.6542 40.2438 49.4496 41.0652Z" fill="#8AD7C4"/>
<path d="M45.8255 41.0446C45.6353 41.7493 45.4441 42.4537 45.2575 43.1555C44.4155 42.9542 43.5699 42.7544 42.7188 42.5569C42.8875 41.8511 43.0563 41.1455 43.2216 40.437C44.0983 40.6389 44.9663 40.841 45.8255 41.0446Z" fill="#8AD7C4"/>
<path d="M61.3584 45.0104C61.0333 45.6867 60.7111 46.3624 60.3923 47.0388C59.5465 46.8129 58.7047 46.5915 57.8633 46.3724C58.1594 45.6882 58.4603 45.0045 58.7654 44.3203C59.6269 44.5485 60.491 44.7775 61.3584 45.0104Z" fill="#8AD7C4"/>
<path d="M56.4395 71.1166C57.1257 69.0002 57.8612 66.8971 58.643 64.8067C54.8269 63.7332 50.812 65.7112 49.7109 69.2265C51.9519 69.8567 54.1954 70.4871 56.4395 71.1166Z" fill="#2C9891"/>
<path fill-rule="evenodd" clip-rule="evenodd" d="M80.7771 25.3658C76.947 24.0812 73.1146 22.8913 69.2539 21.7964C67.3887 25.2515 70.7384 29.2803 76.8038 31.1168C78.1296 29.1977 79.4634 27.2808 80.7771 25.3658Z" fill="#2C9891"/>
<path d="M41.2838 15.1943C40.8337 17.4577 40.4059 19.7033 40 21.9352C45.6536 22.9144 50.8711 20.9443 52.0388 17.1827C48.5014 16.4079 44.915 15.7426 41.2838 15.1943Z" fill="#2C9891"/>
<path d="M47.6175 57.2298C48.8765 57.5783 49.59 58.7707 49.2249 59.8951C48.8569 61.0183 47.5782 61.6562 46.3559 61.3161C45.1333 60.9768 44.4126 59.7866 44.7384 58.6532C45.0701 57.5214 46.3586 56.884 47.6175 57.2298Z" fill="#2C9891"/>
<path d="M58.4812 26.6068C60.297 27.0505 61.3435 28.3132 60.8518 29.3983C60.3539 30.4813 58.5759 30.9995 56.8579 30.587C55.1463 30.1722 54.0582 28.9578 54.4516 27.8445C54.8561 26.7361 56.6658 26.1641 58.4812 26.6068Z" fill="#2C9891"/>
<path fill-rule="evenodd" clip-rule="evenodd" d="M74.1745 17.5679C67.2964 33.4065 60.6807 49.3857 58.1255 65.6795C49.6433 64.5359 41.1717 63.3905 32.6211 62.251C34.3684 45.904 33.1561 29.7454 34.1676 12.4756C47.8916 12.6465 61.0207 14.4638 74.1745 17.5679Z" fill="#8AD7C4"/>
<path fill-rule="evenodd" clip-rule="evenodd" d="M72.816 16.9205C65.9454 32.6338 59.2833 48.5709 56.6935 64.9445L58.2945 65.1583L58.5274 63.6862C50.0599 62.5531 41.6017 61.4179 33.0631 60.2883L32.8329 61.7605L34.4427 61.9072C35.3234 53.7248 35.4559 45.6229 35.4978 37.4445C35.5394 29.2658 35.4904 21.01 35.992 12.5092L34.3768 12.4287L34.3549 13.9161C43.3951 14.028 56.2155 15.0295 72.816 16.9205L74.3166 17.4756L74.7159 16.0342C61.4814 12.9332 48.2404 11.1123 34.3985 10.9416L32.8451 10.9224L32.7613 12.3482C32.2535 20.9637 32.3045 29.2729 32.2626 37.4305C32.2214 45.589 32.0868 53.5948 31.2231 61.6141L31.0703 63.0303L32.6027 63.233C41.1366 64.362 49.593 65.4969 58.0613 66.6302L59.6626 66.8447L59.8952 65.3719C62.4073 49.4488 68.9544 33.7127 75.8172 18.0305L76.5072 16.4536L74.7159 16.0342L74.3166 17.4756L72.816 16.9205Z" fill="#2C9891"/>
<path d="M32.6211 62.0726C34.9366 62.3688 37.2449 62.6648 39.5508 62.961C40.0668 59.5886 37.2325 56.4548 33.1992 55.9707C33.0598 58.004 32.8739 60.0378 32.6211 62.0726Z" fill="#2C9891"/>
<path d="M57.4138 65.6796C57.7751 63.4974 58.1823 61.3212 58.6397 59.1521C54.7083 58.608 51.0404 61.1033 50.4844 64.7237C52.7935 65.0418 55.1064 65.3595 57.4138 65.6796Z" fill="#2C9891"/>
<path fill-rule="evenodd" clip-rule="evenodd" d="M73.7878 16.7581C70.2246 15.8765 66.6734 15.0943 63.1133 14.4175C62.0121 18.3155 65.5822 22.1638 71.195 23.3495C72.0606 21.1489 72.9318 18.951 73.7878 16.7581Z" fill="#2C9891"/>
<path fill-rule="evenodd" clip-rule="evenodd" d="M34.0487 12.0874C33.9376 14.4342 33.8512 16.7593 33.7852 19.0674C39.5585 19.2667 44.4504 16.5526 45.0473 12.5947C41.4111 12.306 37.7426 12.1331 34.0487 12.0874Z" fill="#2C9891"/>
<path d="M46.9179 52.8871C48.2142 53.062 49.0998 54.1485 48.9074 55.3142C48.714 56.4774 47.5504 57.2849 46.2891 57.1131C45.0327 56.9434 44.1402 55.8597 44.2898 54.6906C44.4466 53.5234 45.622 52.7162 46.9179 52.8871Z" fill="#2C9891"/>
<path fill-rule="evenodd" clip-rule="evenodd" d="M17.8633 50.9746C17.8633 50.9746 18.2009 45.5819 27.7081 45.8865C37.2159 46.1916 47.3507 49.9568 56.2444 50.3395C68.987 50.8873 80.3876 47.4345 80.3876 47.4345L64.9967 68.3983H32.5904L17.8633 50.9746Z" fill="#9BC3D3"/>
<path fill-rule="evenodd" clip-rule="evenodd" d="M83.7669 100.427C79.0488 89.7199 71.7939 78.531 65.1056 68.3979H32.7941C26.1793 78.531 19.5062 89.8612 14.2808 100.427C3.13349 122.971 9.48614 130.401 22.5677 135.726C32.2714 139.677 65.7749 139.677 75.4786 135.726C88.5622 130.401 91.8608 118.795 83.7669 100.427Z" fill="#9BC3D3"/>
<path fill-rule="evenodd" clip-rule="evenodd" d="M67.96 68.988C67.96 69.5197 67.3121 69.9514 66.5146 69.9514H30.572C29.7718 69.9514 29.125 69.5197 29.125 68.988V68.1962C29.125 67.6646 29.7718 67.2329 30.572 67.2329H66.5146C67.3121 67.2329 67.96 67.6646 67.96 68.1962V68.988Z" fill="#DEEDF2"/>
<path d="M5.24354 121.602C5.24354 120.477 5.78898 118.764 6.19506 118.393C6.59393 118.029 8.47741 117.524 9.70938 117.524C8.47741 117.524 6.66396 117.083 6.19506 116.656C5.70385 116.208 5.24354 114.573 5.24354 113.447C5.24354 114.601 4.76674 116.221 4.23091 116.71C3.67654 117.216 1.97876 117.524 0.777344 117.524C2.01034 117.524 3.82929 117.97 4.29167 118.393C4.76159 118.821 5.24354 120.477 5.24354 121.602Z" fill="white"/>
<path d="M8.15513 121.99C8.15513 121.615 8.34463 121.044 8.48617 120.921C8.62435 120.799 9.27938 120.631 9.70836 120.631C9.27938 120.631 8.64917 120.484 8.48617 120.341C8.31578 120.192 8.15513 119.648 8.15513 119.272C8.15513 119.656 7.98877 120.197 7.80296 120.36C7.61078 120.528 7.01947 120.631 6.60156 120.631C7.03054 120.631 7.6641 120.78 7.82375 120.921C7.98709 121.063 8.15513 121.615 8.15513 121.99Z" fill="white"/>
<mask id="mask1_1483_87222" style="mask-type:luminance" maskUnits="userSpaceOnUse" x="35" y="85" width="25" height="39">
<path fill-rule="evenodd" clip-rule="evenodd" d="M36.5234 85.7148L59.0693 86.1084L58.4146 123.616L35.8687 123.222L36.5234 85.7148Z" fill="white"/>
</mask>
<g mask="url(#mask1_1483_87222)">
<path fill-rule="evenodd" clip-rule="evenodd" d="M51.0968 92.9804C51.8527 93.6204 52.2442 94.5243 52.2754 95.6921L52.2951 96.5106C52.7463 96.5616 53.1859 96.5817 53.6137 96.5743C54.0645 96.5661 54.5013 96.5108 54.9268 96.4047C55.3549 96.3012 55.7365 96.1425 56.0741 95.9324C56.4104 95.7211 56.6838 95.4594 56.8903 95.1422C57.0967 94.8286 57.193 94.4466 57.1818 93.9985C57.1591 93.0442 56.8235 92.2808 56.1764 91.7068C55.5306 91.1341 54.7413 90.6958 53.8126 90.3897C52.8838 90.0847 51.9029 89.8874 50.8726 89.7991C49.841 89.7108 48.9403 89.663 48.1679 89.6569L48.1069 85.917L45.5736 86.2245L45.6634 89.7884C44.3821 89.9277 43.1665 90.1878 42.0166 90.5687C40.8709 90.951 39.8694 91.4678 39.0189 92.1267C38.167 92.7843 37.4957 93.5956 37.0051 94.5581C36.5158 95.5219 36.2857 96.647 36.3189 97.9321C36.3508 99.2171 36.6465 100.323 37.2046 101.247C37.7642 102.172 38.4968 102.979 39.404 103.663C40.3098 104.349 41.3491 104.935 42.5177 105.42C43.6877 105.907 44.9004 106.354 46.1533 106.76L46.4252 117.625C44.8149 117.557 43.5889 117.165 42.7461 116.448C41.9033 115.733 41.4633 114.645 41.4264 113.185L41.4059 112.338C40.9533 112.286 40.5029 112.266 40.0534 112.274C39.5808 112.282 39.1289 112.344 38.6911 112.459C38.2547 112.573 37.8675 112.74 37.5297 112.961C37.1918 113.181 36.9263 113.458 36.7304 113.793C36.5358 114.129 36.4448 114.519 36.456 114.968C36.4821 116.038 36.8582 116.893 37.5815 117.534C38.3049 118.173 39.1735 118.66 40.1886 118.992C41.2051 119.326 42.2672 119.541 43.372 119.638C44.4782 119.735 45.4278 119.777 46.2209 119.763L46.4776 119.759L46.6012 123.409L48.9054 122.93L48.8202 119.57C50.166 119.391 51.4449 119.086 52.6553 118.655C53.8671 118.225 54.9198 117.652 55.8121 116.934C56.7044 116.217 57.4052 115.348 57.9172 114.325C58.4265 113.304 58.6647 112.101 58.6305 110.719C58.5983 109.452 58.2995 108.367 57.7275 107.46C57.1595 106.556 56.4046 105.775 55.4671 105.12C54.5295 104.464 53.4546 103.899 52.2423 103.423C51.0301 102.947 49.7642 102.508 48.4489 102.102L48.2216 91.79C49.3825 91.9436 50.3409 92.3404 51.0968 92.9804ZM40.9722 96.2708C40.9918 97.0115 41.1409 97.652 41.4233 98.1925C41.7031 98.7329 42.0737 99.2033 42.5351 99.605C42.9951 100.005 43.5226 100.353 44.1203 100.643C44.7181 100.935 45.3407 101.201 45.9881 101.443L45.716 91.8325C45.0315 91.9229 44.3987 92.0859 43.8162 92.32C43.2311 92.5541 42.7302 92.86 42.3109 93.2365C41.8915 93.6154 41.5594 94.055 41.3144 94.5554C41.0708 95.0571 40.9562 95.6289 40.9722 96.2708ZM53.8803 112.351C53.8627 111.65 53.7037 111.039 53.4005 110.518C53.0973 109.998 52.702 109.542 52.2092 109.152C51.7164 108.761 51.1507 108.424 50.5121 108.144C49.8721 107.862 49.218 107.612 48.5471 107.389L48.7685 117.497C49.4944 117.367 50.1756 117.155 50.812 116.863C51.4471 116.569 51.9938 116.202 52.4563 115.766C52.9146 115.33 53.2723 114.827 53.5267 114.257C53.781 113.687 53.8966 113.052 53.8803 112.351Z" fill="#DEEDF2"/>
</g>
<path fill-rule="evenodd" clip-rule="evenodd" d="M17.0874 139.66C17.0874 140.625 13.2612 141.408 8.54353 141.408C3.82428 141.408 0 140.625 0 139.66C0 138.696 3.82428 137.913 8.54353 137.913C13.2612 137.913 17.0874 138.696 17.0874 139.66Z" fill="#D39E00"/>
<path fill-rule="evenodd" clip-rule="evenodd" d="M37.6694 139.66C37.6694 140.625 33.8433 141.408 29.1256 141.408C24.4063 141.408 20.582 140.625 20.582 139.66C20.582 138.696 24.4063 137.913 29.1256 137.913C33.8433 137.913 37.6694 138.696 37.6694 139.66Z" fill="#D39E00"/>
<path fill-rule="evenodd" clip-rule="evenodd" d="M0 139.466H17.0874V137.136H0V139.466Z" fill="#D39E00"/>
<path fill-rule="evenodd" clip-rule="evenodd" d="M20.582 139.466H37.6694V137.136H20.582V139.466Z" fill="#D39E00"/>
<path fill-rule="evenodd" clip-rule="evenodd" d="M17.0874 137.329C17.0874 138.295 13.2612 139.078 8.54353 139.078C3.82428 139.078 0 138.295 0 137.329C0 136.365 3.82428 135.583 8.54353 135.583C13.2612 135.583 17.0874 136.365 17.0874 137.329Z" fill="#F6C854"/>
<path fill-rule="evenodd" clip-rule="evenodd" d="M37.6694 137.329C37.6694 138.295 33.8433 139.078 29.1256 139.078C24.4063 139.078 20.582 138.295 20.582 137.329C20.582 136.365 24.4063 135.583 29.1256 135.583C33.8433 135.583 37.6694 136.365 37.6694 137.329Z" fill="#F6C854"/>
<path fill-rule="evenodd" clip-rule="evenodd" d="M17.0874 135.777C17.0874 136.742 13.2612 137.524 8.54353 137.524C3.82428 137.524 0 136.742 0 135.777C0 134.813 3.82428 134.029 8.54353 134.029C13.2612 134.029 17.0874 134.813 17.0874 135.777Z" fill="#D39E00"/>
<path fill-rule="evenodd" clip-rule="evenodd" d="M37.6694 135.777C37.6694 136.742 33.8433 137.524 29.1256 137.524C24.4063 137.524 20.582 136.742 20.582 135.777C20.582 134.813 24.4063 134.029 29.1256 134.029C33.8433 134.029 37.6694 134.813 37.6694 135.777Z" fill="#D39E00"/>
<path fill-rule="evenodd" clip-rule="evenodd" d="M0 135.971H17.0874V133.641H0V135.971Z" fill="#D39E00"/>
<path fill-rule="evenodd" clip-rule="evenodd" d="M20.582 135.971H37.6694V133.641H20.582V135.971Z" fill="#D39E00"/>
<path fill-rule="evenodd" clip-rule="evenodd" d="M17.0874 133.446C17.0874 134.412 13.2612 135.194 8.54353 135.194C3.82428 135.194 0 134.412 0 133.446C0 132.482 3.82428 131.699 8.54353 131.699C13.2612 131.699 17.0874 132.482 17.0874 133.446Z" fill="#F6C854"/>
<path fill-rule="evenodd" clip-rule="evenodd" d="M37.6694 133.446C37.6694 134.412 33.8433 135.194 29.1256 135.194C24.4063 135.194 20.582 134.412 20.582 133.446C20.582 132.482 24.4063 131.699 29.1256 131.699C33.8433 131.699 37.6694 132.482 37.6694 133.446Z" fill="#F6C854"/>
<path fill-rule="evenodd" clip-rule="evenodd" d="M17.0874 132.281C17.0874 133.247 13.2612 134.029 8.54353 134.029C3.82428 134.029 0 133.247 0 132.281C0 131.317 3.82428 130.534 8.54353 130.534C13.2612 130.534 17.0874 131.317 17.0874 132.281Z" fill="#D39E00"/>
<path fill-rule="evenodd" clip-rule="evenodd" d="M37.6694 132.281C37.6694 133.247 33.8433 134.029 29.1256 134.029C24.4063 134.029 20.582 133.247 20.582 132.281C20.582 131.317 24.4063 130.534 29.1256 130.534C33.8433 130.534 37.6694 131.317 37.6694 132.281Z" fill="#D39E00"/>
<path fill-rule="evenodd" clip-rule="evenodd" d="M0 132.087H17.0874V129.757H0V132.087Z" fill="#D39E00"/>
<path fill-rule="evenodd" clip-rule="evenodd" d="M20.582 132.087H37.6694V129.757H20.582V132.087Z" fill="#D39E00"/>
<path fill-rule="evenodd" clip-rule="evenodd" d="M17.0874 129.951C17.0874 130.916 13.2612 131.699 8.54353 131.699C3.82428 131.699 0 130.916 0 129.951C0 128.987 3.82428 128.204 8.54353 128.204C13.2612 128.204 17.0874 128.987 17.0874 129.951Z" fill="#F6C854"/>
<path fill-rule="evenodd" clip-rule="evenodd" d="M37.6694 129.951C37.6694 130.916 33.8433 131.699 29.1256 131.699C24.4063 131.699 20.582 130.916 20.582 129.951C20.582 128.987 24.4063 128.204 29.1256 128.204C33.8433 128.204 37.6694 128.987 37.6694 129.951Z" fill="#F6C854"/>
<path fill-rule="evenodd" clip-rule="evenodd" d="M17.0874 128.398C17.0874 129.363 13.2612 130.146 8.54353 130.146C3.82428 130.146 0 129.363 0 128.398C0 127.434 3.82428 126.65 8.54353 126.65C13.2612 126.65 17.0874 127.434 17.0874 128.398Z" fill="#D39E00"/>
<path fill-rule="evenodd" clip-rule="evenodd" d="M37.6694 128.398C37.6694 129.363 33.8433 130.146 29.1256 130.146C24.4063 130.146 20.582 129.363 20.582 128.398C20.582 127.434 24.4063 126.65 29.1256 126.65C33.8433 126.65 37.6694 127.434 37.6694 128.398Z" fill="#D39E00"/>
<path fill-rule="evenodd" clip-rule="evenodd" d="M0 128.592H17.0874V126.262H0V128.592Z" fill="#D39E00"/>
<path fill-rule="evenodd" clip-rule="evenodd" d="M20.582 128.592H37.6694V126.262H20.582V128.592Z" fill="#D39E00"/>
<path fill-rule="evenodd" clip-rule="evenodd" d="M17.0874 126.067C17.0874 127.033 13.2612 127.815 8.54353 127.815C3.82428 127.815 0 127.033 0 126.067C0 125.103 3.82428 124.32 8.54353 124.32C13.2612 124.32 17.0874 125.103 17.0874 126.067Z" fill="#F6C854"/>
<path fill-rule="evenodd" clip-rule="evenodd" d="M37.6694 126.067C37.6694 127.033 33.8433 127.815 29.1256 127.815C24.4063 127.815 20.582 127.033 20.582 126.067C20.582 125.103 24.4063 124.32 29.1256 124.32C33.8433 124.32 37.6694 125.103 37.6694 126.067Z" fill="#F6C854"/>
<path fill-rule="evenodd" clip-rule="evenodd" d="M17.0874 124.903C17.0874 125.868 13.2612 126.65 8.54353 126.65C3.82428 126.65 0 125.868 0 124.903C0 123.939 3.82428 123.155 8.54353 123.155C13.2612 123.155 17.0874 123.939 17.0874 124.903Z" fill="#D39E00"/>
<path fill-rule="evenodd" clip-rule="evenodd" d="M37.6694 124.903C37.6694 125.868 33.8433 126.65 29.1256 126.65C24.4063 126.65 20.582 125.868 20.582 124.903C20.582 123.939 24.4063 123.155 29.1256 123.155C33.8433 123.155 37.6694 123.939 37.6694 124.903Z" fill="#D39E00"/>
<path fill-rule="evenodd" clip-rule="evenodd" d="M0 124.709H17.0874V122.378H0V124.709Z" fill="#D39E00"/>
<path d="M20.582 124.709H37.6694V122.378H20.582V124.709Z" fill="#D39E00"/>
<path fill-rule="evenodd" clip-rule="evenodd" d="M17.0874 122.184C17.0874 123.149 13.2612 123.932 8.54353 123.932C3.82428 123.932 0 123.149 0 122.184C0 121.219 3.82428 120.437 8.54353 120.437C13.2612 120.437 17.0874 121.219 17.0874 122.184Z" fill="#F6C854"/>
<path fill-rule="evenodd" clip-rule="evenodd" d="M37.6694 122.184C37.6694 123.149 33.8433 123.932 29.1256 123.932C24.4063 123.932 20.582 123.149 20.582 122.184C20.582 121.219 24.4063 120.437 29.1256 120.437C33.8433 120.437 37.6694 121.219 37.6694 122.184Z" fill="#F6C854"/>
<path fill-rule="evenodd" clip-rule="evenodd" d="M17.0874 121.019C17.0874 121.984 13.2612 122.767 8.54353 122.767C3.82428 122.767 0 121.984 0 121.019C0 120.055 3.82428 119.272 8.54353 119.272C13.2612 119.272 17.0874 120.055 17.0874 121.019Z" fill="#D39E00"/>
<path fill-rule="evenodd" clip-rule="evenodd" d="M37.6694 121.019C37.6694 121.984 33.8433 122.767 29.1256 122.767C24.4063 122.767 20.582 121.984 20.582 121.019C20.582 120.055 24.4063 119.272 29.1256 119.272C33.8433 119.272 37.6694 120.055 37.6694 121.019Z" fill="#D39E00"/>
<path fill-rule="evenodd" clip-rule="evenodd" d="M0 121.213H17.0874V118.883H0V121.213Z" fill="#D39E00"/>
<path fill-rule="evenodd" clip-rule="evenodd" d="M20.582 121.213H37.6694V118.883H20.582V121.213Z" fill="#D39E00"/>
<path fill-rule="evenodd" clip-rule="evenodd" d="M17.0874 118.688C17.0874 119.654 13.2612 120.437 8.54353 120.437C3.82428 120.437 0 119.654 0 118.688C0 117.724 3.82428 116.942 8.54353 116.942C13.2612 116.942 17.0874 117.724 17.0874 118.688Z" fill="#F6C854"/>
<path fill-rule="evenodd" clip-rule="evenodd" d="M37.6694 118.688C37.6694 119.654 33.8433 120.437 29.1256 120.437C24.4063 120.437 20.582 119.654 20.582 118.688C20.582 117.724 24.4063 116.942 29.1256 116.942C33.8433 116.942 37.6694 117.724 37.6694 118.688Z" fill="#F6C854"/>
<path fill-rule="evenodd" clip-rule="evenodd" d="M17.0874 117.135C17.0874 118.101 13.2612 118.883 8.54353 118.883C3.82428 118.883 0 118.101 0 117.135C0 116.171 3.82428 115.388 8.54353 115.388C13.2612 115.388 17.0874 116.171 17.0874 117.135Z" fill="#D39E00"/>
<path fill-rule="evenodd" clip-rule="evenodd" d="M37.6694 117.135C37.6694 118.101 33.8433 118.883 29.1256 118.883C24.4063 118.883 20.582 118.101 20.582 117.135C20.582 116.171 24.4063 115.388 29.1256 115.388C33.8433 115.388 37.6694 116.171 37.6694 117.135Z" fill="#D39E00"/>
<path fill-rule="evenodd" clip-rule="evenodd" d="M0 117.33H17.0874V115H0V117.33Z" fill="#D39E00"/>
<path fill-rule="evenodd" clip-rule="evenodd" d="M20.582 117.33H37.6694V115H20.582V117.33Z" fill="#D39E00"/>
<path fill-rule="evenodd" clip-rule="evenodd" d="M17.0874 115.193C17.0874 116.159 13.2612 116.942 8.54353 116.942C3.82428 116.942 0 116.159 0 115.193C0 114.229 3.82428 113.447 8.54353 113.447C13.2612 113.447 17.0874 114.229 17.0874 115.193Z" fill="#F6C854"/>
<path fill-rule="evenodd" clip-rule="evenodd" d="M37.6694 115.193C37.6694 116.159 33.8433 116.942 29.1256 116.942C24.4063 116.942 20.582 116.159 20.582 115.193C20.582 114.229 24.4063 113.447 29.1256 113.447C33.8433 113.447 37.6694 114.229 37.6694 115.193Z" fill="#F6C854"/>
<path fill-rule="evenodd" clip-rule="evenodd" d="M17.0874 113.64C17.0874 114.606 13.2612 115.388 8.54353 115.388C3.82428 115.388 0 114.606 0 113.64C0 112.676 3.82428 111.893 8.54353 111.893C13.2612 111.893 17.0874 112.676 17.0874 113.64Z" fill="#D39E00"/>
<path fill-rule="evenodd" clip-rule="evenodd" d="M0 113.447H17.0874V111.117H0V113.447Z" fill="#D39E00"/>
<path fill-rule="evenodd" clip-rule="evenodd" d="M17.0874 110.921C17.0874 111.887 13.2612 112.67 8.54353 112.67C3.82428 112.67 0 111.887 0 110.921C0 109.957 3.82428 109.175 8.54353 109.175C13.2612 109.175 17.0874 109.957 17.0874 110.921Z" fill="#F6C854"/>
<path fill-rule="evenodd" clip-rule="evenodd" d="M17.0874 110.145C17.0874 111.11 13.2612 111.893 8.54353 111.893C3.82428 111.893 0 111.11 0 110.145C0 109.181 3.82428 108.398 8.54353 108.398C13.2612 108.398 17.0874 109.181 17.0874 110.145Z" fill="#D39E00"/>
<path fill-rule="evenodd" clip-rule="evenodd" d="M0 109.563H17.0874V107.233H0V109.563Z" fill="#D39E00"/>
<path fill-rule="evenodd" clip-rule="evenodd" d="M17.0874 107.426C17.0874 108.392 13.2612 109.175 8.54353 109.175C3.82428 109.175 0 108.392 0 107.426C0 106.462 3.82428 105.68 8.54353 105.68C13.2612 105.68 17.0874 106.462 17.0874 107.426Z" fill="#F6C854"/>
<path fill-rule="evenodd" clip-rule="evenodd" d="M17.0874 106.262C17.0874 107.227 13.2612 108.01 8.54353 108.01C3.82428 108.01 0 107.227 0 106.262C0 105.298 3.82428 104.515 8.54353 104.515C13.2612 104.515 17.0874 105.298 17.0874 106.262Z" fill="#D39E00"/>
<path fill-rule="evenodd" clip-rule="evenodd" d="M0 106.456H17.0874V104.126H0V106.456Z" fill="#D39E00"/>
<path fill-rule="evenodd" clip-rule="evenodd" d="M17.0874 103.542C17.0874 104.508 13.2612 105.291 8.54353 105.291C3.82428 105.291 0 104.508 0 103.542C0 102.578 3.82428 101.796 8.54353 101.796C13.2612 101.796 17.0874 102.578 17.0874 103.542Z" fill="#F6C854"/>
<path fill-rule="evenodd" clip-rule="evenodd" d="M17.0874 102.378C17.0874 103.343 13.2612 104.126 8.54353 104.126C3.82428 104.126 0 103.343 0 102.378C0 101.414 3.82428 100.631 8.54353 100.631C13.2612 100.631 17.0874 101.414 17.0874 102.378Z" fill="#D39E00"/>
<path fill-rule="evenodd" clip-rule="evenodd" d="M0 102.185H17.0874V99.8545H0V102.185Z" fill="#D39E00"/>
<path fill-rule="evenodd" clip-rule="evenodd" d="M17.0874 100.047C17.0874 101.013 13.2612 101.796 8.54353 101.796C3.82428 101.796 0 101.013 0 100.047C0 99.0832 3.82428 98.3008 8.54353 98.3008C13.2612 98.3008 17.0874 99.0832 17.0874 100.047Z" fill="#F6C854"/>
<path fill-rule="evenodd" clip-rule="evenodd" d="M17.0874 98.4948C17.0874 99.46 13.2612 100.243 8.54353 100.243C3.82428 100.243 0 99.46 0 98.4948C0 97.5308 3.82428 96.7476 8.54353 96.7476C13.2612 96.7476 17.0874 97.5308 17.0874 98.4948Z" fill="#D39E00"/>
<path fill-rule="evenodd" clip-rule="evenodd" d="M0 98.6895H17.0874V96.3594H0V98.6895Z" fill="#D39E00"/>
<path fill-rule="evenodd" clip-rule="evenodd" d="M17.0874 96.164C17.0874 97.1299 13.2612 97.9126 8.54353 97.9126C3.82428 97.9126 0 97.1299 0 96.164C0 95.1999 3.82428 94.4175 8.54353 94.4175C13.2612 94.4175 17.0874 95.1999 17.0874 96.164Z" fill="#F6C854"/>
</svg>
