<svg width="160" height="160" viewBox="0 0 160 160" fill="none" xmlns="http://www.w3.org/2000/svg">
<path fill-rule="evenodd" clip-rule="evenodd" d="M8.08418 74.6955C10.2649 66.872 3.33243 66.5701 3.17976 56.4894C3.11761 52.3665 5.37599 48.1675 10.8106 46.2412C13.4816 45.295 16.1435 44.6443 18.52 43.1391C23.9356 39.7092 23.8377 33.1827 25.3153 27.6191C28.5596 15.3996 41.0463 5.69169 53.6857 6.00749C62.7973 6.23473 71.035 6.51402 79.3417 14.2478C85.0258 19.5399 88.7198 26.0513 93.9967 31.5069C99.5852 37.2842 106.395 40.0561 114.041 41.9124C121.273 43.6678 129.14 45.7564 134.674 51.0205C139.876 55.9673 139.118 61.1413 136.888 67.2153C134.428 73.9132 139.761 78.47 145.322 81.0783C150.003 83.2742 157.841 87.7408 158.097 95.9769C158.89 121.487 142.686 121.589 136.645 124.014C81.0691 146.319 59.7411 129.115 36.1761 129.463C12.6849 129.81 -0.781143 101.401 0.0349579 93.0345C1.07054 82.4118 6.56111 80.1585 8.08418 74.6955Z" fill="#EAF7FE"/>
<path d="M111.093 147.004C117.032 144.844 123.701 140.171 129.933 139.041C142.448 136.771 159.038 135.273 159.568 132.241C160.611 126.271 150.613 123.266 127.633 120.915C128.121 120.499 124.703 113.113 106.186 111.755C98.8588 111.217 86.5998 112.094 81.9193 113.63C74.7251 115.99 67.2329 117.322 59.6674 117.626C32.7589 118.705 11.7032 122.13 11.5366 126.756C11.4806 128.302 13.0722 130.416 15.5286 131.619C17.0591 132.368 14.8432 133.061 14.3292 133.256C8.01664 135.654 4.49788 138.268 4.40341 140.298C4.10734 146.665 27.6646 152.559 55.1151 153.549C73.816 154.223 101.182 150.608 111.093 147.004Z" fill="#CEDEE7"/>
<path fill-rule="evenodd" clip-rule="evenodd" d="M141.653 44.8427L96.0269 54.6617L101.29 79.0916L146.914 69.2736L141.653 44.8427Z" fill="#008437"/>
<path fill-rule="evenodd" clip-rule="evenodd" d="M140.623 52.1344L143.106 63.6609C140.725 64.1728 139.198 66.45 139.693 68.7482L107.026 75.7782C106.531 73.4811 104.201 72.0345 101.821 72.5458L99.3378 61.018C101.718 60.5068 103.244 58.2299 102.749 55.9321L135.418 48.9025C135.914 51.1983 138.244 52.6466 140.623 52.1344Z" fill="#63BA68"/>
<path fill-rule="evenodd" clip-rule="evenodd" d="M100.094 79.9247L147.119 75.9203C147.502 75.8877 147.773 75.4953 147.715 75.0548L143.721 44.7498C143.663 44.3114 143.295 43.9713 142.912 44.0039L95.8177 48.0142C95.4354 48.0468 95.1626 48.4393 95.2218 48.8797C96.5769 58.9798 97.9313 69.0793 99.2851 79.1788C99.3147 79.399 99.4077 79.5553 99.524 79.6744C99.5288 79.6802 99.5334 79.686 99.538 79.6918C99.5479 79.7044 99.5578 79.7169 99.5699 79.729C99.5817 79.739 99.5938 79.7468 99.6061 79.7548C99.6111 79.7581 99.6162 79.7613 99.6212 79.7648C99.7475 79.871 99.901 79.9411 100.094 79.9247ZM146.177 74.5849L100.598 78.3789C100.171 75.1507 99.7447 71.9228 99.3182 68.6948C98.4663 62.2465 97.6143 55.7983 96.7627 49.3491L142.409 45.5495L146.177 74.5849Z" fill="#008437"/>
<mask id="mask0_1487_18187" style="mask-type:luminance" maskUnits="userSpaceOnUse" x="114" y="52" width="14" height="20">
<path fill-rule="evenodd" clip-rule="evenodd" d="M114.641 54.3428L124.158 52.4928L127.526 69.8192L118.009 71.6691L114.641 54.3428Z" fill="white"/>
</mask>
<g mask="url(#mask0_1487_18187)">
<path fill-rule="evenodd" clip-rule="evenodd" d="M121.755 56.2321C122.145 56.5036 122.394 56.9217 122.503 57.4862L122.579 57.8819C122.785 57.8835 122.983 57.8707 123.174 57.8453C123.375 57.8182 123.566 57.7691 123.748 57.6959C123.931 57.6238 124.089 57.5273 124.223 57.4083C124.357 57.2886 124.458 57.1478 124.524 56.9834C124.591 56.8209 124.603 56.6308 124.562 56.4142C124.474 55.9528 124.262 55.5999 123.925 55.3548C123.59 55.1103 123.2 54.9382 122.76 54.8374C122.319 54.7371 121.864 54.6916 121.396 54.7015C120.926 54.7115 120.519 54.7344 120.173 54.771L119.841 52.9614L118.732 53.24L119.063 54.9629C118.5 55.096 117.977 55.2842 117.493 55.5277C117.012 55.7716 116.605 56.0734 116.278 56.4363C115.95 56.7986 115.716 57.2262 115.574 57.7178C115.434 58.21 115.422 58.7671 115.542 59.3883C115.661 60.0096 115.883 60.5304 116.208 60.9498C116.534 61.3697 116.928 61.7229 117.389 62.0084C117.851 62.2944 118.364 62.5252 118.926 62.7008C119.49 62.8769 120.069 63.0314 120.663 63.1639L121.669 68.4167C120.943 68.4657 120.362 68.3387 119.926 68.0343C119.491 67.7306 119.205 67.2261 119.07 66.5201L118.992 66.1107C118.785 66.1085 118.582 66.1217 118.381 66.1487C118.17 66.1767 117.973 66.2301 117.786 66.308C117.6 66.3858 117.44 66.4867 117.307 66.6112C117.174 66.735 117.077 66.8827 117.017 67.055C116.957 67.2278 116.948 67.4219 116.99 67.6385C117.089 68.1559 117.327 68.5513 117.703 68.8249C118.078 69.0978 118.507 69.2892 118.988 69.3983C119.471 69.508 119.964 69.5578 120.466 69.5483C120.969 69.5387 121.398 69.5107 121.752 69.4631L121.866 69.448L122.219 71.2112L123.211 70.861L122.9 69.2367C123.488 69.0811 124.035 68.868 124.542 68.5968C125.05 68.3267 125.474 67.9947 125.815 67.6013C126.156 67.208 126.399 66.751 126.545 66.2291C126.69 65.708 126.699 65.1129 126.571 64.4445C126.454 63.8322 126.232 63.3216 125.902 62.9112C125.574 62.5019 125.172 62.1621 124.699 61.8923C124.226 61.6226 123.699 61.4035 123.118 61.2352C122.536 61.0663 121.934 60.9182 121.312 60.7889L120.371 55.8022C120.903 55.8172 121.364 55.9605 121.755 56.2321ZM117.462 58.6937C117.531 59.0501 117.651 59.3517 117.822 59.5982C117.993 59.8449 118.198 60.0532 118.439 60.2238C118.679 60.3939 118.945 60.5349 119.238 60.6451C119.531 60.7558 119.833 60.853 120.145 60.9372L119.236 56.314C118.935 56.3921 118.664 56.5025 118.42 56.6447C118.176 56.7871 117.975 56.9598 117.817 57.1625C117.659 57.3664 117.545 57.5952 117.476 57.849C117.407 58.1032 117.402 58.3848 117.462 58.6937ZM124.607 65.1469C124.542 64.8094 124.42 64.5225 124.241 64.2863C124.062 64.0506 123.847 63.8504 123.593 63.6871C123.339 63.5231 123.057 63.389 122.746 63.286C122.435 63.1824 122.12 63.0943 121.799 63.0205L122.725 67.8879C123.042 67.7884 123.331 67.6521 123.594 67.4789C123.856 67.3052 124.072 67.1007 124.245 66.8669C124.415 66.6333 124.535 66.3724 124.603 66.0848C124.671 65.7966 124.671 65.4845 124.607 65.1469Z" fill="#008437"/>
</g>
<path fill-rule="evenodd" clip-rule="evenodd" d="M127.634 74.5644L131.43 76.0594L137.635 81.2012L140.472 71.9814L143.93 72.602L141.713 83.8608L138.079 87.1411L127.618 81.3786L127.634 74.5644Z" fill="#EC0000"/>
<path fill-rule="evenodd" clip-rule="evenodd" d="M105.575 78.9624L103.013 79.4147L103.002 80.188L106.491 81.6952L107.039 80.4038L105.575 78.9624Z" fill="#FFC4B8"/>
<path fill-rule="evenodd" clip-rule="evenodd" d="M131.345 102.022L131.439 105.049L128.024 115.188L129.364 131.958L127.479 132.464L123.76 115.923L123.319 111.156L124.045 101.18L131.345 102.022Z" fill="#FFC4B8"/>
<path fill-rule="evenodd" clip-rule="evenodd" d="M116.956 104.382L118.882 132.46L120.641 132.583L122.204 114.781L126.281 102.494L116.956 104.382Z" fill="#FFC4B8"/>
<path fill-rule="evenodd" clip-rule="evenodd" d="M131.07 97.5624C129.564 87.4217 130.102 80.0368 130.024 78.009C129.945 75.9813 128.556 74.929 128.556 74.929C127.946 74.7894 127.415 74.3872 126.8 74.2285C122.635 73.1552 120.363 76.4128 118.804 79.9267C116.884 84.2559 115.27 88.7295 113.965 93.2932C112.82 97.2984 111.673 101.34 111.192 105.496C110.872 108.267 111.362 109.634 112.662 109.595C116.797 110.381 119.893 110.903 121.95 111.161C125.494 111.605 129.042 111.929 132.609 112.081C134.471 112.16 132.576 107.703 131.07 97.5624Z" fill="#EC0000"/>
<path fill-rule="evenodd" clip-rule="evenodd" d="M143.255 72.481L144.816 70.9177L144.284 68.1694H142.777L142.334 70.5631L141.569 71.0227V72.1783L143.255 72.481Z" fill="#FFC4B8"/>
<path fill-rule="evenodd" clip-rule="evenodd" d="M124.781 74.0205L120.792 74.7296L113.591 81.6955L107.136 79.4298L105.061 82.0759L113.7 87.1411L122.831 81.29L124.781 74.0205Z" fill="#EC0000"/>
<path fill-rule="evenodd" clip-rule="evenodd" d="M126.212 71.0009C127.5 70.3496 128.446 69.065 128.609 67.5077C128.864 65.0872 127.134 62.9186 124.749 62.6679C122.428 62.424 120.337 64.086 119.992 66.4064C119.959 66.5467 119.934 66.6907 119.919 66.8377C119.907 66.9559 119.9 67.0729 119.9 67.1888C119.9 67.1888 119.826 68.5419 119.789 69.2184C119.758 69.7779 119.697 70.897 119.697 70.897L121.244 71.7489L120.945 74.5933C122.377 75.8724 123.92 75.9967 125.564 75.0697L126.212 71.0009Z" fill="#FFC4B8"/>
<path fill-rule="evenodd" clip-rule="evenodd" d="M121.342 71.936C121.342 71.936 125.991 72.3346 126.241 70.7006L126.071 72.0295C126.071 72.0295 125.914 72.9404 121.342 71.936ZM120.168 69.9462L120.898 68.1106L121.063 69.3483C121.119 69.7677 120.64 70.0878 120.168 69.9462Z" fill="#F4A48D"/>
<path fill-rule="evenodd" clip-rule="evenodd" d="M127.21 75.5443C128.795 75.1485 130.031 73.7786 130.214 72.0272C130.334 70.8758 129.968 69.7879 129.284 68.9754C129.179 68.8495 129.14 68.6802 129.179 68.5188L129.177 68.5201L129.18 68.516L129.189 68.4763C129.211 68.3835 129.23 68.2905 129.246 68.1977C129.251 68.1725 129.255 68.1475 129.259 68.1225C129.576 66.1299 128.675 64.0664 126.857 63.0279C126.556 62.8562 126.245 62.721 125.929 62.6206C125.898 62.6022 125.867 62.5842 125.836 62.5665C124.785 61.9664 123.608 61.8109 122.51 62.0399C122.072 62.1305 121.648 62.2826 121.249 62.4916C121.274 62.8437 121.331 63.1883 121.415 63.5222C120.953 63.9065 120.552 64.3841 120.242 64.9464C120.035 65.3207 119.881 65.7104 119.777 66.1064L121.312 64.5033L121.642 64.2255C122.317 65.9417 123.775 67.2765 125.613 67.7224C125.565 68.0062 125.531 68.3068 125.524 68.6107C125.771 68.3772 126.059 68.2889 126.248 68.4148C126.478 68.5677 126.482 68.9837 126.271 69.3782L126.264 69.3902L126.258 69.4022L126.256 69.4049L126.251 69.4141L126.249 69.4178L126.244 69.4267L126.242 69.4298L126.235 69.4416L126.234 69.4436L126.228 69.4534L126.226 69.4571L126.22 69.4656L126.218 69.4691L126.211 69.4808L126.204 69.4905L126.202 69.4937L126.198 69.5002L126.196 69.5039L126.192 69.5097L126.189 69.5137L126.185 69.5192L126.182 69.5232L126.179 69.5287L126.176 69.5326L126.172 69.5381L126.169 69.542L126.165 69.5475L126.163 69.5512L126.158 69.5571L126.156 69.5603L126.149 69.5693L126.143 69.5783L126.136 69.5872L126.133 69.5905L126.129 69.596L126.126 69.5996L126.122 69.6047L126.119 69.6084L126.115 69.6134L126.112 69.6171L126.105 69.6256L126.101 69.6307L126.098 69.6341L126.094 69.6394L126.091 69.6424L126.084 69.6507L126.077 69.6589L126.07 69.667L126.067 69.67L126.063 69.675L126.055 69.683L126.048 69.6908L126.045 69.6942L126.038 69.7019L126.033 69.7064L126.03 69.7096L126.026 69.7142L126.023 69.7171L126.015 69.7246L126.008 69.7319L126.001 69.7392L125.998 69.7417L125.993 69.7464L125.99 69.7492L125.986 69.7535L125.982 69.7564L125.978 69.7605L125.975 69.7635L125.97 69.7675L125.967 69.7704L125.963 69.7744L125.96 69.7772L125.955 69.7813L125.952 69.7839L125.944 69.7905L125.937 69.797L125.929 69.8034L125.921 69.8098L125.918 69.8122L125.914 69.816L125.91 69.8186L125.906 69.8222L125.903 69.8247L125.898 69.8282L125.895 69.8308L125.89 69.8342L125.887 69.8367L125.882 69.8402L125.879 69.8425L125.874 69.8462L125.871 69.8482L125.864 69.8539L125.856 69.8594L125.848 69.8648L125.84 69.8701L125.837 69.8723L125.832 69.8753L125.829 69.8775L125.824 69.8805L125.816 69.8856L125.813 69.8876L125.808 69.8906L125.805 69.8926L125.797 69.8973L125.789 69.902L125.781 69.9066L125.774 69.9111L125.766 69.9155L125.763 69.9172L125.758 69.9197L125.755 69.9215L125.75 69.9239L125.747 69.9256L125.742 69.9281L125.739 69.9297L125.734 69.9321L125.731 69.9336L125.723 69.9374L125.717 69.9402C125.575 70.0068 125.435 70.0219 125.322 69.9739C124.512 70.8195 123.316 72.3042 123.745 73.3299C123.746 73.3314 123.747 73.3328 123.747 73.3343C123.836 73.5439 124.054 73.6594 124.271 73.6258L124.272 73.6304L125.417 73.2902C125.605 73.234 125.683 73.2259 125.827 73.1939C125.902 73.3696 125.964 73.4717 126.055 73.6429C126.437 74.3618 126.883 75.0579 127.21 75.5443Z" fill="black"/>
<path fill-rule="evenodd" clip-rule="evenodd" d="M121.09 73.8764C121.09 73.8764 120.491 73.9286 120.427 73.9314C118.402 74.0192 116.521 74.9453 116.162 76.9822C116.071 77.4971 116.673 78.4455 117.641 78.0952C118.558 77.7631 118.85 76.5025 120.136 76.1096C120.427 76.0206 120.723 75.965 121.006 75.9276L121.022 74.7726C121.076 74.2244 121.099 73.9257 121.09 73.8764Z" fill="black"/>
<path fill-rule="evenodd" clip-rule="evenodd" d="M120.357 84.9238L125.621 74.8847L124.025 74.3237L122.873 73.9854L120.843 74.1226L120.357 84.9238Z" fill="white"/>
<path fill-rule="evenodd" clip-rule="evenodd" d="M127.549 131.15L129.415 131.546L129.517 133.403L129.473 133.408L129.484 133.411L126.488 134.509L125.185 134.406L125.311 132.889L125.706 132.699L127.549 131.15Z" fill="black"/>
<path fill-rule="evenodd" clip-rule="evenodd" d="M118.83 131.568L116.475 133.16L116.642 134.53L121.395 134.088L120.938 131.716L118.83 131.568Z" fill="black"/>
<path d="M17.8672 56.5642C17.8672 56.5642 18.2049 53.4073 27.7142 53.7117C37.2242 54.0163 50.9945 51.6516 59.8977 51.4653C70.1932 51.2503 80.4058 53.0264 80.4058 53.0264L65.0115 73.9767H32.5977L17.8672 56.5642Z" fill="#767676"/>
<path fill-rule="evenodd" clip-rule="evenodd" d="M80.0202 31.4453C70.81 46.1311 61.8416 60.991 56.8213 76.6957C48.6468 74.4518 40.4851 72.2073 32.2422 69.955C36.4771 54.0894 37.7691 38.0206 41.4197 21.1489C54.9045 23.1307 67.5491 26.6505 80.0202 31.4453Z" fill="#63BA68"/>
<path fill-rule="evenodd" clip-rule="evenodd" d="M78.9951 30.4411C69.7063 45.1275 60.5947 60.0648 55.461 75.9722L57.0187 76.3956L57.48 74.9657C49.2418 72.7237 41.0154 70.4815 32.7066 68.2311L32.247 69.6616L33.8237 70.0198C35.9791 62.015 37.378 53.9917 38.6987 45.8806C40.0191 37.7688 41.2615 29.5685 43.0887 21.1977L41.4964 20.9044L41.2418 22.3776C54.6932 24.3374 67.3065 27.816 79.7769 32.5683L80.3994 31.1904L78.9951 30.4411L80.3994 31.1904L81.0219 29.8126C68.3547 24.9849 55.4807 21.4309 41.751 19.4312L40.2102 19.207L39.9037 20.6114C38.0521 29.095 36.8036 37.3486 35.4862 45.4392C34.1692 53.5307 32.7829 61.4585 30.6703 69.3038L30.2969 70.6888L31.7874 71.0925C40.0931 73.3419 48.3181 75.5838 56.5571 77.8258L58.1144 78.2497L58.5757 76.8192C62.0075 66.1711 67.3249 55.863 73.331 45.6923C76.0511 41.0862 78.9125 36.5083 81.804 31.9398L82.7361 30.466L81.0219 29.8126L80.3994 31.1904L78.9951 30.4411Z" fill="#008437"/>
<path d="M55.493 39.9835C62.8624 41.9554 66.6076 47.831 64.0817 52.718C61.5376 57.6304 55.0619 60.3461 49.2074 58.7664C43.3824 57.1693 39.2445 51.6793 40.1264 46.4013C41.0286 41.1487 48.1181 38.0545 55.493 39.9835Z" fill="#008437"/>
<path d="M32.2422 69.4867C34.4952 70.0781 36.7372 70.6668 38.9768 71.2575C40.0358 67.9652 37.7309 64.4848 33.8049 63.4888C33.3372 65.4959 32.8226 67.4956 32.2422 69.4867Z" fill="#008437"/>
<path d="M49.4584 46.6376C48.5194 46.4616 47.8699 47.0138 47.5176 48.2792C47.1585 49.5528 47.404 50.2952 48.2358 50.5127C48.7463 50.6436 49.1765 50.539 49.5255 50.1906C49.8843 49.8432 50.3961 49.0935 51.0894 47.9388C51.7796 46.785 52.5834 46.0106 53.5043 45.6251C54.4211 45.2413 55.4741 45.2048 56.6401 45.5256C57.9952 45.8999 58.8635 46.6547 59.2131 47.7663C59.5692 48.877 59.4825 50.0109 58.997 51.1751C57.8185 53.9811 55.8699 55.2094 53.1259 54.8952C53.3235 54.0869 53.5242 53.2802 53.7238 52.4725C55.1898 52.683 56.2058 52.0415 56.7948 50.5405C57.3471 49.1344 57.0076 48.2532 55.7627 47.9115C55.2134 47.7616 54.7421 47.8215 54.3513 48.096C53.9622 48.3686 53.3802 49.1018 52.6397 50.2952C51.8973 51.4861 51.1278 52.2817 50.3283 52.684C49.5269 53.0846 48.6758 53.1636 47.7496 52.922C46.7647 52.6605 46.0188 52.0747 45.5134 51.159C45.0069 50.2448 44.9176 49.0827 45.275 47.6728C45.9713 44.8742 47.5955 43.6887 50.0728 44.1721C49.8667 44.9943 49.6631 45.8159 49.4584 46.6376Z" fill="#63BA68"/>
<path d="M45.838 46.617C45.6477 47.3218 45.4565 48.0264 45.2698 48.7283C44.4276 48.527 43.5818 48.3272 42.7305 48.1297C42.8993 47.4237 43.0681 46.7179 43.2334 46.0093C44.1104 46.2112 44.9786 46.4133 45.838 46.617Z" fill="#63BA68"/>
<path d="M61.3749 50.5838C61.0496 51.2603 60.7274 51.9361 60.4085 52.6126C59.5625 52.3867 58.7205 52.1653 57.8789 51.9461C58.1751 51.2617 58.476 50.5779 58.7812 49.8936C59.6429 50.1218 60.5072 50.3509 61.3749 50.5838Z" fill="#63BA68"/>
<path d="M56.4489 76.6957C57.1352 74.5789 57.8709 72.4752 58.6528 70.3844C54.8359 69.3107 50.82 71.2891 49.7188 74.8052C51.9603 75.4355 54.2042 76.0661 56.4489 76.6957Z" fill="#008437"/>
<path fill-rule="evenodd" clip-rule="evenodd" d="M80.7955 30.9345C76.9646 29.6496 73.1313 28.4594 69.2697 27.3643C67.4041 30.8201 70.7544 34.8499 76.8213 36.6868C78.1473 34.7672 79.4815 32.8499 80.7955 30.9345Z" fill="#008437"/>
<path d="M41.2919 20.7607C40.8417 23.0246 40.4138 25.2708 40.0078 27.5032C45.6627 28.4826 50.8814 26.5121 52.0494 22.7496C48.5111 21.9746 44.9239 21.3091 41.2919 20.7607Z" fill="#008437"/>
<path d="M47.6299 62.806C48.8892 63.1546 49.6028 64.3473 49.2377 65.4719C48.8696 66.5953 47.5906 67.2335 46.368 66.8932C45.1451 66.5539 44.4243 65.3634 44.7502 64.2297C45.0819 63.0977 46.3707 62.4602 47.6299 62.806Z" fill="#008437"/>
<path d="M58.4939 32.1757C60.3101 32.6194 61.3569 33.8825 60.865 34.9678C60.367 36.0511 58.5886 36.5694 56.8701 36.1568C55.1582 35.7419 54.0699 34.5272 54.4633 33.4137C54.868 32.3051 56.678 31.7328 58.4939 32.1757Z" fill="#008437"/>
<path fill-rule="evenodd" clip-rule="evenodd" d="M74.1919 23.135C67.3122 38.9773 60.695 54.9601 58.1391 71.2576C49.655 70.1138 41.1814 68.9681 32.6289 67.8284C34.3766 51.4776 33.1641 35.3153 34.1758 18.0415C47.9029 18.2125 61.035 20.0301 74.1919 23.135Z" fill="#63BA68"/>
<path fill-rule="evenodd" clip-rule="evenodd" d="M72.8295 22.4873C65.9573 38.2042 59.2937 54.145 56.7033 70.5223L58.3047 70.7362L58.5377 69.2637C50.0681 68.1304 41.6081 66.995 33.0675 65.8651L32.8372 67.3376L34.4474 67.4843C35.3283 59.3 35.4608 51.1963 35.5027 43.016C35.5443 34.8354 35.4953 26.5777 35.9971 18.075L34.3815 17.9945L34.3595 19.4822C43.4018 19.5942 56.2252 20.5959 72.8295 22.4873L74.3305 23.0426L74.7298 21.6008C61.4923 18.4991 48.2483 16.6778 34.4031 16.5071L32.8494 16.4878L32.7656 17.914C32.2577 26.5314 32.3087 34.8426 32.2668 43.002C32.2256 51.1624 32.091 59.1701 31.2271 67.1911L31.0742 68.6077L32.607 68.8104C41.1428 69.9397 49.6012 71.0748 58.0714 72.2084L59.6731 72.423L59.9057 70.9498C62.4184 55.023 68.967 39.2834 75.8314 23.5976L76.5215 22.0203L74.7298 21.6008L74.3305 23.0426L72.8295 22.4873Z" fill="#008437"/>
<path d="M32.6289 67.6502C34.945 67.9465 37.2538 68.2425 39.5602 68.5388C40.0763 65.1656 37.2413 62.0311 33.2071 61.5469C33.0678 63.5806 32.8818 65.6149 32.6289 67.6502Z" fill="#008437"/>
<path d="M57.4271 71.2578C57.7885 69.0751 58.1958 66.8983 58.6533 64.7288C54.721 64.1845 51.0522 66.6804 50.4961 70.3017C52.8057 70.6198 55.1192 70.9376 57.4271 71.2578Z" fill="#008437"/>
<path fill-rule="evenodd" clip-rule="evenodd" d="M73.8021 22.3251C70.238 21.4433 66.686 20.6608 63.1251 19.9839C62.0236 23.8828 65.5945 27.7319 71.2086 28.918C72.0745 26.7168 72.9458 24.5184 73.8021 22.3251Z" fill="#008437"/>
<path fill-rule="evenodd" clip-rule="evenodd" d="M34.0566 17.6533C33.9454 20.0006 33.859 22.3263 33.793 24.6349C39.5676 24.8343 44.4606 22.1196 45.0577 18.1607C41.4207 17.872 37.7514 17.699 34.0566 17.6533Z" fill="#008437"/>
<path d="M46.9263 58.4618C48.2229 58.6367 49.1087 59.7235 48.9163 60.8895C48.7228 62.0529 47.5589 62.8606 46.2973 62.6887C45.0407 62.5191 44.148 61.435 44.2976 60.2657C44.4545 59.0982 45.6301 58.2909 46.9263 58.4618Z" fill="#008437"/>
<path fill-rule="evenodd" clip-rule="evenodd" d="M17.8672 56.549C17.8672 56.549 18.2049 51.1551 27.7142 51.4597C37.2242 51.7649 47.3614 55.531 56.2571 55.9138C69.0027 56.4617 80.4058 53.0081 80.4058 53.0081L65.0115 73.9767H32.5977L17.8672 56.549Z" fill="#9BC3D3"/>
<path fill-rule="evenodd" clip-rule="evenodd" d="M83.7881 106.013C79.069 95.3034 71.8124 84.112 65.1225 73.9766H32.8035C26.1872 84.112 19.5126 95.4447 14.286 106.013C3.13616 128.562 9.49026 135.994 22.5748 141.32C32.2808 145.272 65.7919 145.272 75.4979 141.32C88.5845 135.994 91.8839 124.385 83.7881 106.013Z" fill="#9BC3D3"/>
<path fill-rule="evenodd" clip-rule="evenodd" d="M67.9767 74.567C67.9767 75.0988 67.3287 75.5306 66.531 75.5306H30.5802C29.7798 75.5306 29.1328 75.0988 29.1328 74.567V73.7751C29.1328 73.2433 29.7798 72.8115 30.5802 72.8115H66.531C67.3287 72.8115 67.9767 73.2433 67.9767 73.7751V74.567Z" fill="#DEEDF2"/>
<path d="M5.24456 127.193C5.24456 126.067 5.79013 124.354 6.1963 123.983C6.59527 123.619 8.47918 123.114 9.71143 123.114C8.47918 123.114 6.66531 122.673 6.1963 122.246C5.70498 121.797 5.24456 120.162 5.24456 119.036C5.24456 120.19 4.76766 121.81 4.2317 122.3C3.67721 122.806 1.97904 123.114 0.777344 123.114C2.01063 123.114 3.82999 123.56 4.29247 123.983C4.76251 124.411 5.24456 126.067 5.24456 127.193Z" fill="white"/>
<path d="M8.15939 127.581C8.15939 127.206 8.34894 126.635 8.49051 126.511C8.62872 126.39 9.28391 126.222 9.71298 126.222C9.28391 126.222 8.65355 126.075 8.49051 125.932C8.32008 125.783 8.15939 125.238 8.15939 124.862C8.15939 125.247 7.993 125.787 7.80714 125.951C7.61491 126.119 7.02347 126.222 6.60547 126.222C7.03454 126.222 7.66826 126.37 7.82794 126.511C7.99132 126.654 8.15939 127.206 8.15939 127.581Z" fill="white"/>
<mask id="mask1_1487_18187" style="mask-type:luminance" maskUnits="userSpaceOnUse" x="35" y="91" width="25" height="39">
<path fill-rule="evenodd" clip-rule="evenodd" d="M36.5352 91.2974L59.0862 91.691L58.4314 129.207L35.8803 128.813L36.5352 91.2974Z" fill="white"/>
</mask>
<g mask="url(#mask1_1487_18187)">
<path fill-rule="evenodd" clip-rule="evenodd" d="M51.1038 98.5682C51.8627 99.2085 52.2566 100.113 52.2897 101.28L52.3106 102.099C52.7631 102.15 53.2039 102.17 53.6328 102.163C54.0848 102.155 54.5227 102.1 54.9491 101.994C55.3782 101.891 55.7605 101.732 56.0988 101.522C56.4357 101.311 56.7094 101.049 56.9159 100.732C57.1224 100.419 57.2184 100.037 57.2065 99.5884C57.1822 98.6342 56.8446 97.8705 56.1949 97.2963C55.5466 96.7234 54.7545 96.2848 53.8229 95.9783C52.8912 95.673 51.9074 95.4754 50.8743 95.3867C49.8397 95.298 48.9366 95.2499 48.1622 95.2436L48.0954 91.5036L45.5558 91.8101L45.6512 95.3742C44.3667 95.513 43.1483 95.7727 41.996 96.1533C40.8478 96.5351 39.8444 97.0516 38.9926 97.7102C38.1395 98.3675 37.4676 99.1786 36.9772 100.141C36.488 101.105 36.259 102.23 36.2943 103.515C36.3282 104.8 36.6263 105.906 37.1874 106.83C37.7498 107.756 38.4856 108.562 39.3962 109.247C40.3055 109.933 41.3484 110.519 42.5208 111.005C43.6946 111.493 44.9113 111.94 46.168 112.346L46.4571 123.212C44.8424 123.143 43.6126 122.751 42.7665 122.034C41.9203 121.318 41.4776 120.23 41.4383 118.77L41.4165 117.923C40.9627 117.871 40.511 117.85 40.0603 117.858C39.5865 117.866 39.1335 117.928 38.6947 118.042C38.2573 118.157 37.8694 118.324 37.531 118.545C37.1926 118.765 36.9268 119.041 36.7309 119.376C36.5363 119.712 36.4456 120.103 36.4575 120.551C36.4853 121.621 36.8637 122.477 37.5899 123.118C38.3161 123.757 39.1877 124.244 40.2061 124.577C41.2258 124.911 42.291 125.126 43.3988 125.224C44.5081 125.321 45.4603 125.364 46.2555 125.35L46.5129 125.345L46.6423 128.996L48.9519 128.518L48.8614 125.158C50.2105 124.979 51.4923 124.675 52.7053 124.244C53.9196 123.815 54.9742 123.241 55.8678 122.524C56.7614 121.807 57.4627 120.939 57.9745 119.916C58.4837 118.895 58.7207 117.692 58.6843 116.31C58.6501 115.043 58.3489 113.958 57.7739 113.051C57.2031 112.146 56.4451 111.365 55.504 110.709C54.563 110.053 53.4844 109.487 52.2682 109.012C51.052 108.535 49.7821 108.095 48.4627 107.689L48.2193 97.3768C49.3834 97.5307 50.3449 97.9279 51.1038 98.5682ZM40.977 101.855C40.9979 102.596 41.1483 103.236 41.4324 103.777C41.7138 104.318 42.0862 104.788 42.5496 105.19C43.0116 105.591 43.5412 105.938 44.1412 106.229C44.7411 106.521 45.3659 106.787 46.0157 107.03L45.7282 97.4181C45.0418 97.5083 44.4074 97.6711 43.8235 97.905C43.237 98.139 42.7351 98.4447 42.3151 98.821C41.8951 99.1998 41.5626 99.6394 41.3177 100.14C41.0741 100.641 40.9601 101.213 40.977 101.855ZM53.904 117.941C53.8853 117.239 53.7248 116.628 53.42 116.107C53.1151 115.587 52.718 115.131 52.2231 114.741C51.7283 114.349 51.1604 114.012 50.5195 113.732C49.8772 113.45 49.2208 113.199 48.5476 112.976L48.7849 123.085C49.5128 122.955 50.1956 122.744 50.8335 122.452C51.47 122.158 52.0178 121.792 52.4809 121.356C52.94 120.919 53.298 120.416 53.5522 119.847C53.8064 119.276 53.9214 118.642 53.904 117.941Z" fill="#DEEDF2"/>
</g>
<path fill-rule="evenodd" clip-rule="evenodd" d="M17.0913 145.255C17.0913 146.22 13.2643 147.003 8.5455 147.003C3.82516 147.003 0 146.22 0 145.255C0 144.291 3.82516 143.507 8.5455 143.507C13.2643 143.507 17.0913 144.291 17.0913 145.255Z" fill="#D39E00"/>
<path fill-rule="evenodd" clip-rule="evenodd" d="M37.6772 145.255C37.6772 146.22 33.8502 147.003 29.1314 147.003C24.4111 147.003 20.5859 146.22 20.5859 145.255C20.5859 144.291 24.4111 143.507 29.1314 143.507C33.8502 143.507 37.6772 144.291 37.6772 145.255Z" fill="#D39E00"/>
<path fill-rule="evenodd" clip-rule="evenodd" d="M0 145.061H17.0913V142.73H0V145.061Z" fill="#D39E00"/>
<path fill-rule="evenodd" clip-rule="evenodd" d="M20.5859 145.061H37.6772V142.73H20.5859V145.061Z" fill="#D39E00"/>
<path fill-rule="evenodd" clip-rule="evenodd" d="M17.0913 142.924C17.0913 143.89 13.2643 144.673 8.5455 144.673C3.82516 144.673 0 143.89 0 142.924C0 141.959 3.82516 141.177 8.5455 141.177C13.2643 141.177 17.0913 141.959 17.0913 142.924Z" fill="#F6C854"/>
<path fill-rule="evenodd" clip-rule="evenodd" d="M37.6772 142.924C37.6772 143.89 33.8502 144.673 29.1314 144.673C24.4111 144.673 20.5859 143.89 20.5859 142.924C20.5859 141.959 24.4111 141.177 29.1314 141.177C33.8502 141.177 37.6772 141.959 37.6772 142.924Z" fill="#F6C854"/>
<path fill-rule="evenodd" clip-rule="evenodd" d="M17.0913 141.371C17.0913 142.336 13.2643 143.119 8.5455 143.119C3.82516 143.119 0 142.336 0 141.371C0 140.406 3.82516 139.623 8.5455 139.623C13.2643 139.623 17.0913 140.406 17.0913 141.371Z" fill="#D39E00"/>
<path fill-rule="evenodd" clip-rule="evenodd" d="M37.6772 141.371C37.6772 142.336 33.8502 143.119 29.1314 143.119C24.4111 143.119 20.5859 142.336 20.5859 141.371C20.5859 140.406 24.4111 139.623 29.1314 139.623C33.8502 139.623 37.6772 140.406 37.6772 141.371Z" fill="#D39E00"/>
<path fill-rule="evenodd" clip-rule="evenodd" d="M0 141.565H17.0913V139.234H0V141.565Z" fill="#D39E00"/>
<path fill-rule="evenodd" clip-rule="evenodd" d="M20.5859 141.565H37.6772V139.234H20.5859V141.565Z" fill="#D39E00"/>
<path fill-rule="evenodd" clip-rule="evenodd" d="M17.0913 139.039C17.0913 140.005 13.2643 140.788 8.5455 140.788C3.82516 140.788 0 140.005 0 139.039C0 138.075 3.82516 137.292 8.5455 137.292C13.2643 137.292 17.0913 138.075 17.0913 139.039Z" fill="#F6C854"/>
<path fill-rule="evenodd" clip-rule="evenodd" d="M37.6772 139.039C37.6772 140.005 33.8502 140.788 29.1314 140.788C24.4111 140.788 20.5859 140.005 20.5859 139.039C20.5859 138.075 24.4111 137.292 29.1314 137.292C33.8502 137.292 37.6772 138.075 37.6772 139.039Z" fill="#F6C854"/>
<path fill-rule="evenodd" clip-rule="evenodd" d="M17.0913 137.875C17.0913 138.84 13.2643 139.623 8.5455 139.623C3.82516 139.623 0 138.84 0 137.875C0 136.91 3.82516 136.127 8.5455 136.127C13.2643 136.127 17.0913 136.91 17.0913 137.875Z" fill="#D39E00"/>
<path fill-rule="evenodd" clip-rule="evenodd" d="M37.6772 137.875C37.6772 138.84 33.8502 139.623 29.1314 139.623C24.4111 139.623 20.5859 138.84 20.5859 137.875C20.5859 136.91 24.4111 136.127 29.1314 136.127C33.8502 136.127 37.6772 136.91 37.6772 137.875Z" fill="#D39E00"/>
<path fill-rule="evenodd" clip-rule="evenodd" d="M0 137.681H17.0913V135.35H0V137.681Z" fill="#D39E00"/>
<path fill-rule="evenodd" clip-rule="evenodd" d="M20.5859 137.681H37.6772V135.35H20.5859V137.681Z" fill="#D39E00"/>
<path fill-rule="evenodd" clip-rule="evenodd" d="M17.0913 135.543C17.0913 136.509 13.2643 137.292 8.5455 137.292C3.82516 137.292 0 136.509 0 135.543C0 134.579 3.82516 133.796 8.5455 133.796C13.2643 133.796 17.0913 134.579 17.0913 135.543Z" fill="#F6C854"/>
<path fill-rule="evenodd" clip-rule="evenodd" d="M37.6772 135.543C37.6772 136.509 33.8502 137.292 29.1314 137.292C24.4111 137.292 20.5859 136.509 20.5859 135.543C20.5859 134.579 24.4111 133.796 29.1314 133.796C33.8502 133.796 37.6772 134.579 37.6772 135.543Z" fill="#F6C854"/>
<path fill-rule="evenodd" clip-rule="evenodd" d="M17.0913 133.99C17.0913 134.956 13.2643 135.739 8.5455 135.739C3.82516 135.739 0 134.956 0 133.99C0 133.026 3.82516 132.243 8.5455 132.243C13.2643 132.243 17.0913 133.026 17.0913 133.99Z" fill="#D39E00"/>
<path fill-rule="evenodd" clip-rule="evenodd" d="M37.6772 133.99C37.6772 134.956 33.8502 135.739 29.1314 135.739C24.4111 135.739 20.5859 134.956 20.5859 133.99C20.5859 133.026 24.4111 132.243 29.1314 132.243C33.8502 132.243 37.6772 133.026 37.6772 133.99Z" fill="#D39E00"/>
<path fill-rule="evenodd" clip-rule="evenodd" d="M0 134.185H17.0913V131.854H0V134.185Z" fill="#D39E00"/>
<path fill-rule="evenodd" clip-rule="evenodd" d="M20.5859 134.185H37.6772V131.854H20.5859V134.185Z" fill="#D39E00"/>
<path fill-rule="evenodd" clip-rule="evenodd" d="M17.0913 131.659C17.0913 132.625 13.2643 133.408 8.5455 133.408C3.82516 133.408 0 132.625 0 131.659C0 130.695 3.82516 129.912 8.5455 129.912C13.2643 129.912 17.0913 130.695 17.0913 131.659Z" fill="#F6C854"/>
<path fill-rule="evenodd" clip-rule="evenodd" d="M37.6772 131.659C37.6772 132.625 33.8502 133.408 29.1314 133.408C24.4111 133.408 20.5859 132.625 20.5859 131.659C20.5859 130.695 24.4111 129.912 29.1314 129.912C33.8502 129.912 37.6772 130.695 37.6772 131.659Z" fill="#F6C854"/>
<path fill-rule="evenodd" clip-rule="evenodd" d="M17.0913 130.494C17.0913 131.46 13.2643 132.243 8.5455 132.243C3.82516 132.243 0 131.46 0 130.494C0 129.53 3.82516 128.747 8.5455 128.747C13.2643 128.747 17.0913 129.53 17.0913 130.494Z" fill="#D39E00"/>
<path fill-rule="evenodd" clip-rule="evenodd" d="M37.6772 130.494C37.6772 131.46 33.8502 132.243 29.1314 132.243C24.4111 132.243 20.5859 131.46 20.5859 130.494C20.5859 129.53 24.4111 128.747 29.1314 128.747C33.8502 128.747 37.6772 129.53 37.6772 130.494Z" fill="#D39E00"/>
<path fill-rule="evenodd" clip-rule="evenodd" d="M0 130.3H17.0913V127.97H0V130.3Z" fill="#D39E00"/>
<path d="M20.5859 130.3H37.6772V127.97H20.5859V130.3Z" fill="#D39E00"/>
<path fill-rule="evenodd" clip-rule="evenodd" d="M17.0913 127.774C17.0913 128.74 13.2643 129.523 8.5455 129.523C3.82516 129.523 0 128.74 0 127.774C0 126.81 3.82516 126.027 8.5455 126.027C13.2643 126.027 17.0913 126.81 17.0913 127.774Z" fill="#F6C854"/>
<path fill-rule="evenodd" clip-rule="evenodd" d="M37.6772 127.774C37.6772 128.74 33.8502 129.523 29.1314 129.523C24.4111 129.523 20.5859 128.74 20.5859 127.774C20.5859 126.81 24.4111 126.027 29.1314 126.027C33.8502 126.027 37.6772 126.81 37.6772 127.774Z" fill="#F6C854"/>
<path fill-rule="evenodd" clip-rule="evenodd" d="M17.0913 126.61C17.0913 127.575 13.2643 128.358 8.5455 128.358C3.82516 128.358 0 127.575 0 126.61C0 125.646 3.82516 124.862 8.5455 124.862C13.2643 124.862 17.0913 125.646 17.0913 126.61Z" fill="#D39E00"/>
<path fill-rule="evenodd" clip-rule="evenodd" d="M37.6772 126.61C37.6772 127.575 33.8502 128.358 29.1314 128.358C24.4111 128.358 20.5859 127.575 20.5859 126.61C20.5859 125.646 24.4111 124.862 29.1314 124.862C33.8502 124.862 37.6772 125.646 37.6772 126.61Z" fill="#D39E00"/>
<path fill-rule="evenodd" clip-rule="evenodd" d="M0 126.804H17.0913V124.474H0V126.804Z" fill="#D39E00"/>
<path fill-rule="evenodd" clip-rule="evenodd" d="M20.5859 126.804H37.6772V124.474H20.5859V126.804Z" fill="#D39E00"/>
<path fill-rule="evenodd" clip-rule="evenodd" d="M17.0913 124.279C17.0913 125.245 13.2643 126.028 8.5455 126.028C3.82516 126.028 0 125.245 0 124.279C0 123.314 3.82516 122.532 8.5455 122.532C13.2643 122.532 17.0913 123.314 17.0913 124.279Z" fill="#F6C854"/>
<path fill-rule="evenodd" clip-rule="evenodd" d="M37.6772 124.279C37.6772 125.245 33.8502 126.028 29.1314 126.028C24.4111 126.028 20.5859 125.245 20.5859 124.279C20.5859 123.314 24.4111 122.532 29.1314 122.532C33.8502 122.532 37.6772 123.314 37.6772 124.279Z" fill="#F6C854"/>
<path fill-rule="evenodd" clip-rule="evenodd" d="M17.0913 122.726C17.0913 123.691 13.2643 124.474 8.5455 124.474C3.82516 124.474 0 123.691 0 122.726C0 121.761 3.82516 120.978 8.5455 120.978C13.2643 120.978 17.0913 121.761 17.0913 122.726Z" fill="#D39E00"/>
<path fill-rule="evenodd" clip-rule="evenodd" d="M37.6772 122.726C37.6772 123.691 33.8502 124.474 29.1314 124.474C24.4111 124.474 20.5859 123.691 20.5859 122.726C20.5859 121.761 24.4111 120.978 29.1314 120.978C33.8502 120.978 37.6772 121.761 37.6772 122.726Z" fill="#D39E00"/>
<path fill-rule="evenodd" clip-rule="evenodd" d="M0 122.92H17.0913V120.589H0V122.92Z" fill="#D39E00"/>
<path fill-rule="evenodd" clip-rule="evenodd" d="M20.5859 122.92H37.6772V120.589H20.5859V122.92Z" fill="#D39E00"/>
<path fill-rule="evenodd" clip-rule="evenodd" d="M17.0913 120.783C17.0913 121.749 13.2643 122.532 8.5455 122.532C3.82516 122.532 0 121.749 0 120.783C0 119.818 3.82516 119.036 8.5455 119.036C13.2643 119.036 17.0913 119.818 17.0913 120.783Z" fill="#F6C854"/>
<path fill-rule="evenodd" clip-rule="evenodd" d="M37.6772 120.783C37.6772 121.749 33.8502 122.532 29.1314 122.532C24.4111 122.532 20.5859 121.749 20.5859 120.783C20.5859 119.818 24.4111 119.036 29.1314 119.036C33.8502 119.036 37.6772 119.818 37.6772 120.783Z" fill="#F6C854"/>
<path fill-rule="evenodd" clip-rule="evenodd" d="M17.0913 119.23C17.0913 120.195 13.2643 120.978 8.5455 120.978C3.82516 120.978 0 120.195 0 119.23C0 118.265 3.82516 117.482 8.5455 117.482C13.2643 117.482 17.0913 118.265 17.0913 119.23Z" fill="#D39E00"/>
<path fill-rule="evenodd" clip-rule="evenodd" d="M0 119.036H17.0913V116.705H0V119.036Z" fill="#D39E00"/>
<path fill-rule="evenodd" clip-rule="evenodd" d="M17.0913 116.51C17.0913 117.476 13.2643 118.259 8.5455 118.259C3.82516 118.259 0 117.476 0 116.51C0 115.545 3.82516 114.763 8.5455 114.763C13.2643 114.763 17.0913 115.545 17.0913 116.51Z" fill="#F6C854"/>
<path fill-rule="evenodd" clip-rule="evenodd" d="M17.0913 115.734C17.0913 116.699 13.2643 117.482 8.5455 117.482C3.82516 117.482 0 116.699 0 115.734C0 114.769 3.82516 113.986 8.5455 113.986C13.2643 113.986 17.0913 114.769 17.0913 115.734Z" fill="#D39E00"/>
<path fill-rule="evenodd" clip-rule="evenodd" d="M0 115.151H17.0913V112.821H0V115.151Z" fill="#D39E00"/>
<path fill-rule="evenodd" clip-rule="evenodd" d="M17.0913 113.014C17.0913 113.98 13.2643 114.763 8.5455 114.763C3.82516 114.763 0 113.98 0 113.014C0 112.05 3.82516 111.267 8.5455 111.267C13.2643 111.267 17.0913 112.05 17.0913 113.014Z" fill="#F6C854"/>
<path fill-rule="evenodd" clip-rule="evenodd" d="M17.0913 111.849C17.0913 112.815 13.2643 113.598 8.5455 113.598C3.82516 113.598 0 112.815 0 111.849C0 110.885 3.82516 110.102 8.5455 110.102C13.2643 110.102 17.0913 110.885 17.0913 111.849Z" fill="#D39E00"/>
<path fill-rule="evenodd" clip-rule="evenodd" d="M0 112.044H17.0913V109.713H0V112.044Z" fill="#D39E00"/>
<path fill-rule="evenodd" clip-rule="evenodd" d="M17.0913 109.129C17.0913 110.095 13.2643 110.878 8.5455 110.878C3.82516 110.878 0 110.095 0 109.129C0 108.165 3.82516 107.382 8.5455 107.382C13.2643 107.382 17.0913 108.165 17.0913 109.129Z" fill="#F6C854"/>
<path fill-rule="evenodd" clip-rule="evenodd" d="M17.0913 107.965C17.0913 108.93 13.2643 109.713 8.5455 109.713C3.82516 109.713 0 108.93 0 107.965C0 107.001 3.82516 106.217 8.5455 106.217C13.2643 106.217 17.0913 107.001 17.0913 107.965Z" fill="#D39E00"/>
<path fill-rule="evenodd" clip-rule="evenodd" d="M0 107.771H17.0913V105.44H0V107.771Z" fill="#D39E00"/>
<path fill-rule="evenodd" clip-rule="evenodd" d="M17.0913 105.634C17.0913 106.6 13.2643 107.383 8.5455 107.383C3.82516 107.383 0 106.6 0 105.634C0 104.669 3.82516 103.887 8.5455 103.887C13.2643 103.887 17.0913 104.669 17.0913 105.634Z" fill="#F6C854"/>
<path fill-rule="evenodd" clip-rule="evenodd" d="M17.0913 104.081C17.0913 105.046 13.2643 105.829 8.5455 105.829C3.82516 105.829 0 105.046 0 104.081C0 103.116 3.82516 102.333 8.5455 102.333C13.2643 102.333 17.0913 103.116 17.0913 104.081Z" fill="#D39E00"/>
<path fill-rule="evenodd" clip-rule="evenodd" d="M0 104.275H17.0913V101.944H0V104.275Z" fill="#D39E00"/>
<path fill-rule="evenodd" clip-rule="evenodd" d="M17.0913 101.749C17.0913 102.715 13.2643 103.498 8.5455 103.498C3.82516 103.498 0 102.715 0 101.749C0 100.785 3.82516 100.002 8.5455 100.002C13.2643 100.002 17.0913 100.785 17.0913 101.749Z" fill="#F6C854"/>
</svg>
