<svg width="161" height="161" viewBox="0 0 161 161" fill="none" xmlns="http://www.w3.org/2000/svg">
<path fill-rule="evenodd" clip-rule="evenodd" d="M75.0784 17.4072C56.1179 33.5984 39.242 30.8433 28.0441 30.0043C5.70045 28.3292 -0.704216 49.464 8.7015 64.273C18.1076 79.0816 26.5066 97.3635 8.49078 113.996C-9.52459 130.627 15.5872 166.584 45.8315 153.447C76.0753 140.31 111.391 138.739 128.424 148.637C145.457 158.536 178.495 129.088 148.16 104.939C117.824 80.7902 135.092 67.8916 143.578 54.9758C152.065 42.0597 146.184 20.1214 118.488 11.583C118.488 11.583 94.0394 1.21636 75.0784 17.4072Z" fill="#DEEDF2"/>
<path fill-rule="evenodd" clip-rule="evenodd" d="M128.112 14.0094C127.474 8.82958 123.059 4.81934 117.709 4.81934C111.92 4.81934 107.227 9.51341 107.227 15.3041C107.227 16.2541 107.353 17.1746 107.59 18.0497C107.501 18.0509 107.413 18.054 107.325 18.0591L107.227 18.051V18.0657C104.224 18.2913 101.858 20.7999 101.858 23.861C101.858 26.9222 104.224 29.4307 107.227 29.6564V29.6737H145.389V29.6731H145.389C147.728 29.6731 149.625 27.7758 149.625 25.4356C149.625 23.0955 147.728 21.1984 145.389 21.1984H145.389V21.1982L135.721 20.4009C135.765 20.112 135.788 19.8162 135.788 19.515C135.788 16.3053 133.187 13.7031 129.978 13.7031C129.325 13.7031 128.697 13.8108 128.112 14.0094Z" fill="#DEEDF2"/>
<path fill-rule="evenodd" clip-rule="evenodd" d="M65.1977 72.2618C64.56 67.082 60.1454 63.0718 54.7948 63.0718C49.0061 63.0718 44.3132 67.7659 44.3132 73.5565C44.3132 74.5066 44.4394 75.4271 44.6763 76.3021C44.5873 76.3033 44.4991 76.3065 44.4113 76.3116L44.3127 76.3035V76.3181C41.3104 76.5438 38.9439 79.0523 38.9439 82.1135C38.9439 85.1746 41.3104 87.6832 44.3127 87.9088V87.9261H82.4751V87.9256H82.4752C84.8144 87.9256 86.7109 86.0282 86.7109 83.6881C86.7109 81.3479 84.8144 79.4509 82.4752 79.4509H82.4751V79.4507L72.8065 78.6533C72.8506 78.3645 72.8735 78.0686 72.8735 77.7674C72.8735 74.5577 70.2725 71.9556 67.0637 71.9556C66.411 71.9556 65.7834 72.0632 65.1977 72.2618Z" fill="#DEEDF2"/>
<path d="M92.3047 62.3276L101.981 101.634" stroke="#34466B" stroke-width="1.909" stroke-linecap="round"/>
<path fill-rule="evenodd" clip-rule="evenodd" d="M129.364 57.3509C129.799 53.7898 132.814 51.0327 136.468 51.0327C140.422 51.0327 143.626 54.2599 143.626 58.241C143.626 58.8941 143.54 59.527 143.378 60.1286C143.439 60.1294 143.499 60.1316 143.559 60.1351L143.627 60.1295V60.1396C145.677 60.2947 147.293 62.0193 147.293 64.1239C147.293 66.2284 145.677 67.9531 143.627 68.1082V68.1201H117.565V68.1197H117.565C115.967 68.1197 114.672 66.8153 114.672 65.2064C114.672 63.5976 115.967 62.2933 117.565 62.2933H117.565V62.2932L124.168 61.745C124.137 61.5464 124.122 61.343 124.122 61.136C124.122 58.9293 125.898 57.1403 128.09 57.1403C128.535 57.1403 128.964 57.2144 129.364 57.3509Z" fill="#EAF7FE"/>
<path fill-rule="evenodd" clip-rule="evenodd" d="M101.809 22.123L49.8035 48.8393C49.8035 48.8393 98.711 57.417 100.504 57.7032C102.296 57.9904 154.802 36.9931 154.763 36.5534C154.725 36.1133 106.194 21.7394 101.809 22.123Z" fill="#34466B"/>
<path fill-rule="evenodd" clip-rule="evenodd" d="M79.291 60.6122C79.291 60.6122 81.4497 65.2112 104.029 62.3654C126.607 59.5192 127.65 56.3813 127.65 56.3813C127.65 56.3813 115.454 47.4376 107.176 48.1618C98.8986 48.886 82.8918 51.5922 79.291 60.6122Z" fill="#DEEDF2"/>
<path d="M127.07 54.2183L128.003 100.527" stroke="#34466B" stroke-width="1.909" stroke-linecap="round"/>
<path d="M80.3945 59.8611L89.3355 108.588" stroke="#34466B" stroke-width="1.909" stroke-linecap="round"/>
<path d="M66.1328 41.7126L69.5419 62.8552" stroke="#34466B" stroke-width="4.773" stroke-linecap="round"/>
<path fill-rule="evenodd" clip-rule="evenodd" d="M69.2216 60.8353C69.2167 60.8363 69.2116 60.8387 69.2064 60.8425L69.1936 60.8407L69.1945 60.8449C67.2956 61.3126 69.5007 71.4627 69.5007 71.4627L72.916 70.7989C72.916 70.7989 71.1542 60.5625 69.2224 60.8394C67.2906 61.1164 69.229 60.8339 69.2216 60.8353Z" fill="#34466B"/>
<path d="M116.288 51.2632L116.335 109.734" stroke="#34466B" stroke-width="1.909" stroke-linecap="round"/>
<path d="M97.0014 93.1813C114.396 89.5403 136.476 91.413 132.612 96.5518C128.748 101.691 112.673 104.511 106.39 104.73C100.108 104.95 85.6807 106.357 85.0688 100.279C85.0688 100.279 83.7605 95.9518 97.0014 93.1813Z" fill="#A66555"/>
<path fill-rule="evenodd" clip-rule="evenodd" d="M101.266 35.8148C120.435 34.1377 126.317 41.1427 126.317 41.1427L127.661 56.5057C127.661 56.5057 106.468 45.0907 79.3017 60.7366L77.8423 44.0562C77.8423 44.0562 85.5582 37.189 101.266 35.8148Z" fill="#34466B"/>
<path fill-rule="evenodd" clip-rule="evenodd" d="M98.7233 100.127C98.8744 99.39 99.5825 98.345 99.6657 97.2797C99.7489 96.2135 101.167 92.0585 101.192 91.4315C101.217 90.8055 101.928 87.9531 102.604 86.7202C103.294 85.4591 105.534 84.6978 105.534 84.6978C105.534 84.6978 104.375 90.8782 104.388 92.1625C104.392 92.5482 104.269 93.251 104.09 94.0608L104.086 94.08C104.049 94.2577 104.048 94.4101 104.064 94.5495C104.121 95.0109 104.384 95.3199 104.223 95.9257L104.226 96.2498C104.21 96.3104 104.194 96.371 104.178 96.4316C103.95 97.306 103.739 98.2379 103.641 98.656C103.62 98.7428 103.605 98.8074 103.595 98.8448C103.444 99.4102 103.628 99.1093 103.361 100.525C103.361 100.525 98.4322 101.55 98.7233 100.127Z" fill="#EC0000"/>
<path fill-rule="evenodd" clip-rule="evenodd" d="M117.37 118.365C117.37 118.365 116.895 104.249 115.32 100.713C113.745 97.1769 103.441 98.7682 103.441 98.7682C103.441 98.7682 99.2578 112.278 99.2578 115.241C99.2578 115.241 106.535 118.365 117.37 118.365Z" fill="#34466B"/>
<path fill-rule="evenodd" clip-rule="evenodd" d="M103.139 93.3947C103.955 95.2849 103.185 95.916 103.558 97.8052C103.932 99.6953 103.931 104.85 103.862 105.9C103.791 106.949 113.724 109.896 115.894 107.983C115.894 107.983 115.704 105.684 114.991 103.574C114.903 103.313 114.813 103.051 114.721 102.789C114.367 101.782 113.991 100.797 113.639 100.034C113.41 99.5388 113.29 97.3387 113.547 96.6854C113.646 96.433 114.138 95.5515 114.704 94.564C114.941 94.153 115.19 93.7219 115.43 93.3119C116.103 92.1558 116.697 91.1542 116.697 91.1542C116.697 91.1542 117.296 86.2884 116.033 85.308C115.602 84.9738 114.819 84.7102 113.994 84.5032C113.685 84.4255 113.368 84.3568 113.063 84.2942C112.115 84.0973 111.271 83.9701 111.024 83.8853C110.488 83.6985 108.926 83.6167 107.829 83.7803C107.829 83.7803 106.149 84.5729 105.566 84.69C104.982 84.8072 102.675 87.6465 102.279 88.7188C101.881 89.7931 101.861 91.809 103.139 93.3947L104.579 92.0032L106.715 94.9158" fill="#EC0000"/>
<path d="M113.617 99.0718C113.617 99.0718 114.446 99.511 114.212 99.827C113.977 100.143 113.626 100.525 113.626 100.525L113.617 99.0718Z" fill="#F4A48D"/>
<path d="M106.794 99.7735L110.735 99.3585C110.375 99.1929 109.791 98.89 109.897 98.7153C110.049 98.4669 111.214 98.8688 111.673 98.8708C112.093 98.8738 112.645 99.1091 112.735 99.1485L113.704 99.0465L113.622 100.525C113.622 100.525 111.555 100.967 110.956 101.068C109.98 101.231 106.864 100.35 106.797 100.177C106.676 99.8664 106.794 99.7735 106.794 99.7735Z" fill="#F4A48D"/>
<path d="M100.945 99.9344C100.945 99.9344 99.8517 99.9182 99.9518 99.5244C100.052 99.1307 100.818 99.3457 100.818 99.3457L100.945 99.9344Z" fill="#F4A48D"/>
<path fill-rule="evenodd" clip-rule="evenodd" d="M117.431 109.518C116.45 110.14 115.692 110.476 115.159 110.528C112.038 110.832 110.601 111.006 110.11 111.033C101.747 111.498 102.024 109.08 102.163 106.384C102.396 101.893 101.845 96.1024 102.222 92.624C102.599 89.1455 115.813 94.183 115.813 94.183C115.813 94.183 116.451 98.6873 117.431 109.518Z" fill="#EC0000"/>
<path fill-rule="evenodd" clip-rule="evenodd" d="M96.6235 94.8993C96.428 94.8236 95.8576 94.9528 95.2155 95.1588C94.5735 95.3648 93.7984 95.9312 93.7669 96.0433C93.7353 96.1544 93.6513 96.2533 93.749 96.535C93.8467 96.8167 94.0842 97.0015 94.0842 97.0015C94.0842 97.0015 94.0412 97.4064 94.3513 97.6114C94.3513 97.6114 94.3283 97.9931 94.7185 98.1687C94.7185 98.1687 94.7061 98.5434 95.0004 98.6463C95.0004 98.6463 95.5723 98.5171 95.7979 98.5312C96.0233 98.5444 97.1456 98.0829 98.2173 97.574C98.2173 97.574 99.4711 97.1712 98.0829 95.5082C98.0829 95.5082 96.819 94.974 96.6235 94.8993Z" fill="#F4A48D"/>
<path fill-rule="evenodd" clip-rule="evenodd" d="M94.7031 92.8027L95.6623 104.881L103.415 104.266L102.758 92.1636" fill="#EAF7FE"/>
<path fill-rule="evenodd" clip-rule="evenodd" d="M104.072 99.6117C103.458 99.4218 102.695 98.8412 102.141 98.9735C101.686 99.082 101.508 99.6732 101.487 100.284C101.483 100.418 101.443 99.9566 101.496 100.684C101.548 101.412 101.646 101.576 101.785 101.715C102.138 102.069 103.49 102.034 105.315 101.417C107.141 100.8 104.889 99.6318 104.889 99.6318C104.889 99.6318 104.427 99.7217 104.072 99.6117Z" fill="#FFC4B8"/>
<path fill-rule="evenodd" clip-rule="evenodd" d="M115.173 84.7703C114.472 84.7117 112.794 85.5255 112.772 87.4702C112.756 88.9252 112.749 90.1783 112.797 90.7538C112.846 91.3293 112.852 95.1814 112.511 95.5408C112.078 95.9952 109.644 97.1786 109.422 97.321C108.658 97.8137 104.887 99.3979 104.887 99.3979L106.662 106.532C106.662 106.532 115.266 100.709 116.127 100.064C116.694 99.6403 117.17 97.9742 117.4 96.1537C117.634 94.3039 117.505 89.8895 117.478 89.5189C117.451 89.1474 117.729 84.9823 115.173 84.7703Z" fill="#EC0000"/>
<path fill-rule="evenodd" clip-rule="evenodd" d="M93.9226 96.0962C93.9226 96.0962 94.7599 96.1945 96.4344 96.391C96.4894 97.5286 96.4404 98.1634 96.2874 98.2953C96.0578 98.4932 94.9652 98.9163 94.9652 98.9163C93.9604 97.4367 93.5575 96.5169 93.7563 96.1568" fill="#FFC4B8"/>
<path d="M96.4336 103.319C96.4336 103.745 96.779 104.091 97.2051 104.091C97.6312 104.091 97.9767 103.745 97.9767 103.319C97.9767 102.893 97.6312 102.548 97.2051 102.548C96.779 102.548 96.4336 102.893 96.4336 103.319Z" fill="#EC0000"/>
<path fill-rule="evenodd" clip-rule="evenodd" d="M112.363 84.1543C112.363 84.1543 106.769 87.4621 106.769 87.4449C106.769 87.2066 106.301 84.4451 106.301 84.4451C106.301 84.4451 107.123 83.9746 107.354 83.9301C107.508 83.8998 108.723 83.8706 111 83.8423L110.615 85.0327" fill="#EAF7FE"/>
<path fill-rule="evenodd" clip-rule="evenodd" d="M106.772 87.445L107.223 83.9736C107.223 83.9736 105.531 84.4199 104.352 85.2257L106.772 87.445Z" fill="#9E3667"/>
<path fill-rule="evenodd" clip-rule="evenodd" d="M111.121 84.023C111.121 83.7706 109.455 81.0567 109.347 79.7502C109.614 79.5993 109.865 79.4103 110.092 79.1832C111.449 77.8261 111.445 75.6185 110.083 74.2563C108.721 72.8941 106.513 72.89 105.156 74.247C104.605 74.798 104.279 75.4894 104.176 76.2074L103.499 78.5161L104.116 78.6493L104.118 80.4138C104.119 80.8736 104.407 81.2848 104.84 81.4424L105.815 81.7978C105.815 81.7979 105.867 81.948 105.957 82.1885L107.335 84.2754C107.715 84.7773 109.859 84.2754 111.121 84.023Z" fill="#FFC4B8"/>
<path fill-rule="evenodd" clip-rule="evenodd" d="M106.046 82.4196C106.494 82.2742 107.143 81.9129 107.84 81.0272L105.816 81.7978C105.816 81.7978 105.901 82.0477 106.046 82.4196ZM104.115 78.6493C104.3 78.707 104.486 78.5638 104.477 78.3702L104.419 77.1221L104.115 78.6493Z" fill="#F4A48D"/>
<path fill-rule="evenodd" clip-rule="evenodd" d="M106.77 87.4449L115.17 84.7702C115.17 84.7702 113.723 83.9049 111 83.8423L106.77 87.4449Z" fill="#9E3667"/>
<path fill-rule="evenodd" clip-rule="evenodd" d="M107.876 72.9663C107.201 72.9663 106.567 73.144 106.019 73.4554C105.47 73.7667 105.007 74.2116 104.674 74.746C104.388 75.2043 104.198 75.7281 104.131 76.2899L104.341 75.5343C104.44 75.3226 104.559 75.1171 104.701 74.9213L104.706 74.9502L104.712 74.9793L104.712 74.9809L104.718 75.0084L104.724 75.0376L104.724 75.0399L104.73 75.0669L104.737 75.0961L104.737 75.0981L104.744 75.1254L104.751 75.1545L104.751 75.1552C104.777 75.2605 104.807 75.3641 104.841 75.4657L104.85 75.4918L104.851 75.495L104.86 75.5185L104.861 75.5232L104.869 75.5457L104.871 75.5514L104.879 75.573L104.882 75.5793L104.89 75.6003L104.892 75.6072L104.9 75.6278L104.903 75.635L104.911 75.6552L104.914 75.6626L104.922 75.6825L104.925 75.6901L104.934 75.7099L104.937 75.7175L104.945 75.7372L104.948 75.7445L104.957 75.7643L104.96 75.7715L104.969 75.7914L104.972 75.7981L104.981 75.8183L104.984 75.8245L104.993 75.8453L104.996 75.8503L105.006 75.8721L105.007 75.875C105.031 75.9255 105.056 75.9753 105.083 76.0244L105.085 76.0284L105.095 76.0479L105.099 76.0545L105.109 76.0726L105.113 76.0805L105.123 76.0976L105.128 76.1064L105.137 76.1228L105.142 76.1321L105.151 76.148L105.157 76.1577L105.166 76.1732L105.172 76.1831L105.181 76.1984L105.187 76.2085L105.196 76.2235L105.203 76.2337L105.212 76.2485L105.218 76.2587L105.227 76.2733L105.234 76.2836L105.243 76.2981L105.25 76.3084L105.259 76.3228L105.266 76.333L105.276 76.3473L105.282 76.3575L105.292 76.3717L105.299 76.3818L105.309 76.396L105.315 76.4059L105.325 76.4202L105.332 76.4298L105.342 76.4442L105.349 76.4533L105.359 76.4681L105.365 76.4758C105.379 76.495 105.393 76.5141 105.408 76.533L105.411 76.5381L105.422 76.5523L105.429 76.5615L105.44 76.5747L105.448 76.5847L105.458 76.5974L105.466 76.6078L105.476 76.6201L105.484 76.6308L105.494 76.6428L105.503 76.6536L105.513 76.6654L105.522 76.6762L105.532 76.6879L105.541 76.6987L105.55 76.7103L105.56 76.7211L105.57 76.7325L105.579 76.7433L105.589 76.7546L105.599 76.7653L105.609 76.7765L105.618 76.7873L105.628 76.7983L105.638 76.809L105.648 76.8199L105.658 76.8306L105.668 76.8414L105.678 76.8521L105.688 76.8627L105.699 76.8734L105.709 76.8839L105.719 76.8946L105.729 76.9049L105.74 76.9157L105.75 76.9258L105.761 76.9367L105.771 76.9465L105.782 76.9577L105.792 76.967L105.805 76.9794L105.813 76.9874L105.834 77.0074L105.842 77.0145L105.856 77.0274L105.865 77.036L105.877 77.0473L105.887 77.0562L105.899 77.0671L105.909 77.0761L105.921 77.0866L105.932 77.0957L105.943 77.106L105.954 77.1151L105.966 77.1252L105.976 77.1343L105.988 77.1443L105.999 77.1533L106.011 77.1632L106.021 77.1721L106.033 77.1819L106.044 77.1907L106.056 77.2004L106.067 77.2092L106.079 77.2188L106.09 77.2275L106.103 77.237L106.114 77.2456L106.126 77.255L106.137 77.2635L106.149 77.2729L106.16 77.2812L106.173 77.2906L106.184 77.2988L106.197 77.3082L106.208 77.3161L106.221 77.3256L106.232 77.3333L106.245 77.3429L106.256 77.3503L106.27 77.3601L106.28 77.3672L106.296 77.3776L106.305 77.3838L106.324 77.3969L106.329 77.4002L106.354 77.4165L106.361 77.4213L106.378 77.4326L106.388 77.4388L106.403 77.4484L106.414 77.4551L106.428 77.4641L106.439 77.471L106.453 77.4796L106.465 77.4866L106.479 77.495L106.49 77.5019L106.504 77.5101L106.516 77.517L106.53 77.525L106.542 77.5319L106.555 77.5398L106.567 77.5465L106.581 77.5543L106.593 77.561L106.607 77.5687L106.619 77.5753L106.633 77.5828L106.646 77.5894L106.66 77.5968L106.672 77.6032L106.686 77.6106L106.698 77.6169L106.712 77.6241L106.725 77.6303L106.739 77.6375L106.751 77.6436L106.766 77.6507L106.778 77.6566L106.793 77.6638L106.805 77.6694L106.82 77.6767L106.832 77.6821L106.848 77.6895L106.859 77.6945L106.877 77.7027L106.886 77.7067L106.913 77.7187C106.926 77.6835 106.94 77.6495 106.954 77.6168C106.973 77.5758 106.993 77.5368 107.014 77.5002C107.028 77.4764 107.042 77.4537 107.056 77.4319C107.076 77.4023 107.097 77.3745 107.119 77.3488C107.129 77.3362 107.14 77.3241 107.151 77.3125C107.157 77.3058 107.163 77.2993 107.17 77.293C107.193 77.27 107.217 77.2494 107.241 77.2314C107.281 77.2013 107.322 77.1783 107.364 77.1632C107.378 77.1581 107.392 77.1539 107.406 77.1507C107.444 77.1418 107.482 77.1397 107.52 77.145L107.525 77.1457L107.531 77.1467L107.536 77.1477C107.552 77.1508 107.567 77.1552 107.582 77.1607L107.589 77.1632C107.592 77.1646 107.596 77.1661 107.599 77.1676C107.611 77.1725 107.621 77.1781 107.632 77.1844L107.638 77.188C107.655 77.1985 107.671 77.2109 107.687 77.2248C107.7 77.2364 107.713 77.2492 107.725 77.2631C107.726 77.265 107.728 77.2669 107.73 77.2688L107.735 77.2747C107.763 77.3101 107.789 77.3518 107.811 77.3988C107.825 77.4303 107.838 77.4642 107.849 77.5002L107.85 77.5025L107.854 77.5162L107.854 77.5181L107.858 77.5326L107.862 77.5478L107.866 77.5638L107.87 77.5805L107.871 77.5831L107.874 77.5976L107.877 77.6151L107.877 77.6168L107.88 77.6328L107.883 77.6491L107.885 77.6666L107.886 77.6691L107.888 77.6846L107.888 77.6873L107.89 77.703L107.892 77.7218L107.893 77.74L107.895 77.7578L107.896 77.7764L107.896 77.7956L107.897 77.8151L107.897 77.835V77.8536V77.8549L107.897 77.8725L107.897 77.875L107.897 77.8922L107.897 77.8951L107.896 77.9123L107.895 77.9327L107.894 77.9534L107.893 77.9723L107.892 77.9742L107.891 77.9922C107.886 78.0423 107.879 78.0933 107.869 78.1449L107.867 78.1559C107.864 78.1701 107.861 78.1841 107.858 78.198C107.854 78.2169 107.849 78.2355 107.845 78.2539L107.841 78.2676C107.836 78.2852 107.831 78.3027 107.826 78.3199C107.805 78.3877 107.78 78.4518 107.752 78.5115C107.712 78.5986 107.665 78.6762 107.613 78.7416C107.585 78.777 107.556 78.8088 107.526 78.8367C107.52 78.8422 107.514 78.8475 107.508 78.8527C107.504 78.9009 107.501 78.9492 107.499 78.9978L107.498 79.0238L107.498 79.0322L107.498 79.0499L107.497 79.0597L107.497 79.076L107.497 79.0861L107.496 79.1025L107.496 79.1122L107.496 79.1303L107.496 79.1381L107.496 79.1639V79.1674L107.496 79.1896V79.1984L107.496 79.2154L107.496 79.2253L107.496 79.2414L107.497 79.2514L107.497 79.2678L107.497 79.2772L107.498 79.296L107.498 79.3028L107.499 79.3284L107.499 79.3338L107.5 79.3539L107.5 79.3629L107.501 79.3795L107.501 79.3893L107.502 79.4053L107.503 79.4151L107.504 79.4316L107.504 79.4406L107.506 79.4603L107.506 79.466L107.508 79.4913L107.508 79.4979L107.51 79.5166L107.511 79.5258L107.512 79.5419L107.513 79.5517L107.514 79.5675L107.515 79.5772L107.517 79.5938L107.518 79.6024L107.52 79.6236L107.521 79.6275L107.523 79.6524L107.524 79.6599L107.526 79.6775L107.527 79.6868L107.529 79.7026L107.531 79.7123L107.533 79.728L107.534 79.7374L107.536 79.7542L107.537 79.7623L107.541 79.7863L107.545 79.8118L107.546 79.8197L107.549 79.8365L107.55 79.8459L107.553 79.8614L107.554 79.871L107.557 79.8865L107.559 79.8957L107.562 79.9128L107.563 79.9203L107.567 79.9447L107.568 79.9478L107.572 79.9691L107.574 79.9774L107.577 79.9936L107.579 80.0029L107.582 80.0182L107.584 80.0276L107.587 80.0431L107.589 80.052L107.593 80.0695L107.594 80.0763L107.6 80.1003L107.601 80.1054L107.605 80.1244L107.607 80.133L107.611 80.1485L107.613 80.1579L107.617 80.1728L107.619 80.1822L107.623 80.1975L107.625 80.2062L107.63 80.2243L107.632 80.23L107.638 80.2537L107.64 80.26L107.644 80.2775L107.647 80.2862L107.651 80.3013L107.654 80.3106L107.658 80.3252L107.66 80.3344L107.665 80.3498L107.667 80.3581L107.673 80.3773L107.674 80.3815L107.681 80.4049L107.684 80.4119L107.689 80.4282L107.692 80.4371L107.696 80.4517L107.699 80.4609L107.704 80.4753L107.707 80.4843L107.712 80.4997L107.715 80.5076L107.722 80.5287L107.723 80.5306L107.731 80.5535L107.733 80.5612L107.739 80.5765L107.742 80.5854L107.747 80.5996L107.751 80.6088L107.756 80.6229L107.759 80.6318L107.765 80.6471L107.768 80.6546L107.776 80.6771L107.785 80.6997L107.788 80.7077L107.794 80.7223L107.798 80.7312L107.803 80.745L107.807 80.7541L107.813 80.7679L107.816 80.7766L107.823 80.7921L107.826 80.7989L107.835 80.821L107.837 80.8262L107.845 80.8432L107.849 80.8514L107.855 80.8654L107.859 80.8743L107.865 80.8876L107.869 80.8966L107.875 80.9103L107.879 80.9187L107.886 80.9344L107.889 80.9406L107.899 80.9621L107.902 80.9685L107.91 80.9839L107.914 80.9923L107.92 81.0056L107.925 81.0145L107.931 81.0275L107.936 81.0364L107.942 81.0497L107.947 81.0579L107.955 81.0741L107.958 81.0794L107.969 81.1004L107.972 81.1075L107.98 81.1217L107.984 81.1302L107.991 81.143L107.996 81.1519L108.003 81.1644L108.008 81.1732L108.015 81.1863L108.019 81.1942L108.029 81.2113L108.031 81.2151L108.043 81.2356L108.047 81.2433L108.055 81.2564L108.06 81.2651L108.067 81.2773L108.072 81.2861L108.079 81.2982L108.084 81.3069L108.092 81.3197L108.097 81.3275L108.108 81.3465L108.112 81.3519L108.121 81.3678L108.126 81.3758L108.134 81.3881L108.14 81.3968L108.147 81.4084L108.153 81.4173L108.16 81.4289L108.166 81.4375L108.174 81.45L108.179 81.4575L108.192 81.4768L108.196 81.4831L108.205 81.4967L108.211 81.505L108.218 81.5165L108.224 81.5252L108.232 81.5363L108.238 81.5451L108.246 81.5562L108.252 81.5647L108.261 81.577L108.266 81.5842L108.279 81.6029L108.284 81.6102L108.293 81.6222L108.299 81.6307L108.307 81.6415L108.314 81.6503L108.321 81.6607L108.328 81.6695L108.336 81.6802L108.342 81.6886L108.352 81.7006L108.357 81.7075L108.371 81.7256L108.377 81.7334L108.386 81.7443L108.392 81.7529L108.4 81.763L108.407 81.7718L108.415 81.7817L108.422 81.7904L108.431 81.8005L108.437 81.8089L108.447 81.8206L108.452 81.827L108.456 81.8313L108.467 81.8446L108.474 81.8529L108.482 81.8619L108.507 81.8915L108.511 81.8961L108.537 81.9259L108.539 81.9278L108.565 81.9574L108.567 81.9596L108.594 81.9889L108.598 81.9932L108.625 82.022L108.628 82.0252L108.656 82.0547L108.684 82.0838L108.687 82.0875L108.715 82.1154L108.719 82.1191L108.748 82.1476L108.777 82.1764L108.78 82.1788L108.809 82.2061L108.813 82.2098L108.842 82.237L108.844 82.239L108.875 82.2667L108.905 82.2941L108.909 82.2973L108.939 82.3235L108.942 82.3263L108.974 82.3529L108.986 82.3629L108.991 82.3672L109.001 82.3763L109.009 82.3823L109.019 82.3911L109.027 82.3972L109.038 82.4059L109.045 82.412L109.056 82.4208L109.063 82.4265L109.075 82.4355L109.079 82.4392L109.092 82.4493L109.105 82.4593L109.11 82.4631L109.122 82.4721L109.128 82.4775L109.14 82.4862L109.147 82.4917L109.159 82.5003L109.166 82.5057L109.177 82.5145L109.184 82.5192C109.198 82.5299 109.213 82.5406 109.228 82.5512L109.232 82.5546L109.245 82.5635L109.252 82.5682L109.264 82.5769L109.271 82.5817L109.283 82.5903L109.29 82.5949L109.302 82.6037L109.308 82.6074C109.323 82.6179 109.339 82.6283 109.354 82.6386L109.359 82.6416L109.372 82.6504L109.378 82.6545L109.391 82.663L109.398 82.6672L109.411 82.6757L109.417 82.6796L109.431 82.6884L109.434 82.6907C109.451 82.701 109.467 82.7113 109.484 82.7214L109.488 82.724L109.502 82.7326L109.508 82.7361L109.522 82.7445L109.528 82.7481L109.542 82.7565L109.547 82.7595L109.562 82.7684L109.563 82.7689C109.581 82.7792 109.598 82.7894 109.616 82.7994L109.62 82.8017L109.635 82.8101L109.641 82.8131L109.655 82.8212L109.661 82.8242L109.676 82.8324L109.68 82.8346C109.704 82.8475 109.728 82.8602 109.752 82.8726L109.756 82.8745L109.772 82.8826L109.777 82.8851L109.792 82.893L109.797 82.8954L109.813 82.9035L109.816 82.9047C109.841 82.917 109.866 82.9291 109.891 82.9408L109.894 82.9424L109.911 82.9502L109.915 82.9522L109.932 82.9598L109.936 82.9615L109.953 82.9695C109.98 82.9814 110.006 82.9928 110.033 83.004L110.053 83.0126L110.057 83.0142L110.074 83.0215L110.077 83.0226C110.11 83.0361 110.143 83.0493 110.177 83.062L110.198 83.0698L110.201 83.071L110.22 83.0779C110.255 83.0909 110.289 83.103 110.324 83.1146L110.345 83.1217L110.347 83.1224C110.389 83.1362 110.431 83.1493 110.473 83.1618L110.495 83.1682C110.539 83.1808 110.582 83.1925 110.625 83.2034L110.647 83.209C110.968 83.2887 111.304 83.3309 111.649 83.3309C111.743 83.3309 111.836 83.3277 111.927 83.3214C112.163 83.3054 112.381 83.4351 112.479 83.6497C113.103 85.007 114.472 85.9495 116.062 85.9495C116.783 85.9495 117.459 85.7552 118.04 85.4164C118.472 85.1647 119.002 85.1845 119.433 85.4372C119.742 85.6186 120.102 85.7226 120.487 85.7226C121.711 85.7226 122.689 84.67 122.568 83.4196C122.479 82.502 121.783 81.7389 120.878 81.5703C120.871 81.5691 120.864 81.5679 120.857 81.5666C120.361 81.479 119.945 81.1414 119.774 80.6661C119.228 79.1418 117.772 78.0516 116.062 78.0516H116.058C115.822 78.0517 115.613 77.9049 115.528 77.6844C114.906 76.0579 113.295 74.9219 111.431 75.0175C111.367 75.0208 111.303 75.0255 111.24 75.0318C111.236 75.0227 111.231 75.0142 111.227 75.0056L111.225 75.0031L111.224 75.0001L111.22 74.9927L111.21 74.9745C111.206 74.966 111.201 74.9575 111.197 74.949L111.195 74.9461L111.194 74.9435C111.189 74.935 111.184 74.9266 111.18 74.9181L111.17 74.9003L111.166 74.8927L111.164 74.8899C111.158 74.8791 111.153 74.8708 111.149 74.8624L111.139 74.8457L111.134 74.8371L111.132 74.8342L111.131 74.8321C111.126 74.8239 111.121 74.8157 111.116 74.8074L111.116 74.8065L111.114 74.8043L111.107 74.7916L111.101 74.7819L111.099 74.779L111.098 74.7774C111.093 74.7692 111.088 74.7611 111.083 74.753L111.081 74.7492L111.074 74.738L111.067 74.7271L111.065 74.7245L111.064 74.7233C111.059 74.7152 111.054 74.7071 111.049 74.6992L111.046 74.6948L111.04 74.6851L111.032 74.6728L111.03 74.6707C111.025 74.6618 111.019 74.6538 111.014 74.6459L111.011 74.6413L111.005 74.6328L110.996 74.6189L110.995 74.617C110.989 74.609 110.984 74.6011 110.978 74.5932L110.977 74.591L110.975 74.5885L110.97 74.5811L110.958 74.5648C110.953 74.5569 110.947 74.549 110.941 74.5412L110.94 74.5388L110.938 74.5364C110.927 74.5208 110.915 74.5051 110.904 74.4897L110.902 74.4871L110.9 74.485C110.895 74.4772 110.889 74.4696 110.883 74.4619L110.871 74.4463L110.865 74.4388L110.863 74.4362L110.862 74.4343C110.856 74.4268 110.85 74.4192 110.844 74.4117L110.833 74.3971L110.826 74.3885L110.824 74.386L110.823 74.3843C110.817 74.377 110.811 74.3695 110.805 74.3621L110.793 74.3483L110.786 74.3388L110.783 74.3352C110.776 74.3278 110.77 74.3205 110.764 74.3132L110.763 74.3118L110.761 74.3094L110.753 74.3003L110.744 74.2896L110.742 74.2875C110.735 74.2793 110.729 74.2722 110.723 74.265L110.719 74.2609L110.713 74.253L110.702 74.241L110.7 74.2387C110.694 74.2317 110.687 74.2245 110.681 74.2174L110.677 74.2131L110.671 74.2062L110.659 74.1926L110.658 74.1917C110.651 74.1846 110.645 74.1776 110.638 74.1706L110.634 74.1661C110.621 74.1521 110.608 74.1382 110.594 74.1243L110.59 74.12C110.584 74.1131 110.577 74.1063 110.57 74.0994L110.556 74.0853L110.55 74.0789L110.548 74.0765L110.546 74.0747C110.539 74.0679 110.532 74.0612 110.526 74.0546L110.512 74.0412L110.505 74.0341L110.502 74.0317C110.494 74.0235 110.487 74.0169 110.48 74.0104L110.477 74.0075L110.467 73.9979L110.458 73.99L110.456 73.9876L110.455 73.9863C110.448 73.9799 110.441 73.9734 110.434 73.967L110.433 73.9658L110.43 73.9636L110.421 73.9553L110.411 73.9464L110.409 73.9443C110.401 73.937 110.394 73.9307 110.387 73.9244L110.385 73.923L110.375 73.9135L110.363 73.9036L110.361 73.9018C110.354 73.8949 110.347 73.8887 110.339 73.8825L110.337 73.8809L110.335 73.8786L110.328 73.8724L110.315 73.8613C110.306 73.8536 110.298 73.8475 110.291 73.8414L110.289 73.8396L110.286 73.8374L110.28 73.8321L110.264 73.8192C110.257 73.8132 110.249 73.8071 110.242 73.8011L110.239 73.7991L110.237 73.7971C110.229 73.7911 110.222 73.7852 110.215 73.7792L110.199 73.7668L110.192 73.7616L110.189 73.7594L110.187 73.7577C110.18 73.7519 110.172 73.7461 110.164 73.7404L110.149 73.7286L110.141 73.7228L110.139 73.7206L110.136 73.7191C110.129 73.7135 110.121 73.7078 110.114 73.7022L110.099 73.6912L110.09 73.6847L110.087 73.6826L110.085 73.6814C110.078 73.6758 110.07 73.6704 110.062 73.6649L110.058 73.662L110.048 73.6547L110.038 73.6475L110.035 73.6455C110.026 73.6392 110.018 73.6338 110.01 73.6285L110.009 73.6273L109.997 73.619L109.985 73.611L109.981 73.6086C109.973 73.6033 109.966 73.5981 109.958 73.5928L109.953 73.5894L109.944 73.584L109.931 73.5752L109.928 73.5734C109.92 73.5683 109.912 73.5631 109.904 73.5581L109.899 73.5547L109.892 73.55L109.876 73.5399C109.866 73.5342 109.858 73.5291 109.85 73.5242L109.848 73.5225L109.845 73.5207C109.837 73.5158 109.828 73.5107 109.82 73.5058L109.803 73.4952L109.796 73.4911L109.793 73.4893L109.79 73.4878C109.782 73.483 109.774 73.4781 109.765 73.4734L109.748 73.4635L109.74 73.4589L109.737 73.4571C109.727 73.4511 109.718 73.4465 109.71 73.4419L109.693 73.4327L109.684 73.4275L109.681 73.4258L109.679 73.4247C109.671 73.4202 109.662 73.4157 109.654 73.4112L109.653 73.4105L109.65 73.4089L109.638 73.4027L109.627 73.3971L109.624 73.3954L109.623 73.3945C109.614 73.3902 109.606 73.3858 109.597 73.3815L109.592 73.379L109.582 73.3736L109.57 73.3675L109.566 73.3653C109.557 73.3611 109.549 73.3569 109.54 73.3527L109.538 73.3516L109.535 73.3501L109.526 73.3456L109.511 73.3387L109.508 73.3372C109.5 73.333 109.491 73.3289 109.482 73.3249L109.48 73.3236L109.477 73.3221L109.469 73.3183L109.452 73.3106L109.45 73.3099C109.442 73.3059 109.433 73.3018 109.424 73.2979L109.421 73.2967L109.418 73.2953C109.401 73.2874 109.383 73.2796 109.365 73.2719L109.362 73.2706L109.359 73.2694C109.35 73.2656 109.342 73.2619 109.333 73.2581L109.314 73.2503L109.306 73.2469L109.302 73.2456C109.291 73.2409 109.282 73.2373 109.273 73.2337L109.255 73.2266L109.245 73.2228L109.242 73.2215L109.24 73.2207C109.231 73.2172 109.222 73.2138 109.213 73.2104L109.209 73.2087L109.196 73.2038L109.185 73.1998L109.181 73.1984C109.171 73.1945 109.162 73.1912 109.152 73.1879L109.151 73.1873L109.136 73.182L109.123 73.1775L109.119 73.176C109.11 73.1728 109.101 73.1697 109.091 73.1665L109.089 73.1658L109.086 73.1647L109.076 73.1612L109.061 73.1563L109.057 73.1552C109.048 73.1522 109.039 73.1492 109.03 73.1461L109.024 73.1443L109.015 73.1414L108.998 73.136C108.986 73.1325 108.977 73.1297 108.968 73.1269L108.962 73.125C108.943 73.1194 108.924 73.1138 108.905 73.1085L108.902 73.1077C108.89 73.1041 108.88 73.1015 108.871 73.0989L108.851 73.0935L108.842 73.0912L108.839 73.0904L108.836 73.0897C108.826 73.0872 108.817 73.0847 108.807 73.0822L108.788 73.0775L108.778 73.075L108.775 73.0741L108.773 73.0736C108.763 73.0712 108.753 73.069 108.744 73.0667L108.743 73.0665L108.725 73.0624L108.714 73.0598L108.711 73.059C108.699 73.0565 108.69 73.0544 108.68 73.0522L108.675 73.0512L108.662 73.0484L108.649 73.0457L108.646 73.0451C108.635 73.0427 108.625 73.0407 108.616 73.0388L108.614 73.0384L108.61 73.0378L108.599 73.0355L108.584 73.0326L108.58 73.0319C108.57 73.0301 108.561 73.0283 108.551 73.0265L108.548 73.0261L108.545 73.0255L108.535 73.0237L108.518 73.0206C108.505 73.0186 108.495 73.0169 108.486 73.0154L108.483 73.0149L108.479 73.0144L108.47 73.0129L108.45 73.0097C108.44 73.0082 108.43 73.0067 108.42 73.0053L108.417 73.0048C108.394 73.0015 108.374 72.9988 108.354 72.9963L108.35 72.9959C108.338 72.9943 108.328 72.9931 108.318 72.9919L108.297 72.9895L108.287 72.9885L108.284 72.9881C108.271 72.9868 108.261 72.9857 108.251 72.9848L108.248 72.9844L108.232 72.9829L108.22 72.9819L108.217 72.9815L108.214 72.9813C108.204 72.9804 108.195 72.9795 108.185 72.9787L108.183 72.9786L108.18 72.9783L108.166 72.9773L108.153 72.9763L108.147 72.9759C108.137 72.9752 108.127 72.9746 108.117 72.9739L108.112 72.9736L108.099 72.9728L108.085 72.972L108.081 72.9719C108.07 72.9713 108.06 72.9708 108.05 72.9702L108.048 72.9701L108.044 72.9699L108.033 72.9695L108.016 72.9689L108.012 72.9687C108.002 72.9684 107.992 72.968 107.982 72.9678L107.979 72.9677L107.975 72.9676L107.966 72.9674L107.947 72.967C107.934 72.9667 107.924 72.9666 107.914 72.9665H107.911H107.907C107.897 72.9663 107.887 72.9663 107.876 72.9663Z" fill="#DEEDF2"/>
<path d="M114.534 77.1521L114.692 77.1466L114.554 73.2131L114.396 73.2186L114.534 77.1521Z" fill="#444444"/>
<path fill-rule="evenodd" clip-rule="evenodd" d="M114.609 77.0253L114.609 77.0243L114.611 77.0252L114.614 77.0241L114.614 77.0251C114.987 77.0293 115.011 78.9501 115.011 78.9501L114.347 78.9733C114.347 78.9733 114.236 77.0555 114.609 77.0253L117.98 79.188Z" fill="#444444"/>
<path fill-rule="evenodd" clip-rule="evenodd" d="M104.664 73.5375L100.705 72.0946L107.801 68.6673L117.182 73.1003L112.844 74.8896L104.664 73.5375Z" fill="#34466B"/>
<path fill-rule="evenodd" clip-rule="evenodd" d="M104.734 74.3241C104.734 74.3241 108.317 73.7918 112.602 75.58L113.076 74.2228C113.076 74.2228 108.26 72.6027 104.596 73.1741L104.734 74.3241Z" fill="#34466B"/>
<path fill-rule="evenodd" clip-rule="evenodd" d="M115.927 107.414C101.468 109.827 91.2184 108.873 86.4201 106.184L91.3027 126.214C91.3027 126.214 94.5238 136.717 114.395 134.211C134.267 131.705 133.374 124.383 133.374 124.383L133.623 100.329C130.747 103.163 124.778 105.936 115.927 107.414Z" fill="#F6C854"/>
<path fill-rule="evenodd" clip-rule="evenodd" d="M51.6079 113.815C50.9702 108.635 46.5555 104.625 41.2049 104.625C35.4162 104.625 30.7233 109.319 30.7233 115.11C30.7233 116.06 30.8495 116.98 31.0864 117.855C30.9975 117.857 30.9092 117.86 30.8215 117.865L30.7228 117.857V117.871C27.7206 118.097 25.3541 120.606 25.3541 123.667C25.3541 126.728 27.7206 129.236 30.7228 129.462V129.479H68.8853V129.479H68.8854C71.2246 129.479 73.1211 127.581 73.1211 125.241C73.1211 122.901 71.2246 121.004 68.8854 121.004H68.8853V121.004L59.2166 120.207C59.2608 119.918 59.2837 119.622 59.2837 119.321C59.2837 116.111 56.6826 113.509 53.4738 113.509C52.8211 113.509 52.1935 113.616 51.6079 113.815Z" fill="#DEEDF2"/>
<path fill-rule="evenodd" clip-rule="evenodd" d="M36.4634 118.475C35.8256 113.295 31.411 109.285 26.0604 109.285C20.2717 109.285 15.5788 113.979 15.5788 119.77C15.5788 120.72 15.705 121.64 15.9419 122.516C15.8529 122.517 15.7647 122.52 15.677 122.525L15.5783 122.517V122.532C12.5761 122.757 10.2096 125.266 10.2096 128.327C10.2096 131.388 12.5761 133.897 15.5783 134.122V134.14H53.7407V134.139H53.7409C56.0801 134.139 57.9766 132.242 57.9766 129.901C57.9766 127.561 56.0801 125.664 53.7409 125.664H53.7407V125.664L44.0721 124.867C44.1163 124.578 44.1392 124.282 44.1392 123.981C44.1392 120.771 41.5381 118.169 38.3293 118.169C37.6766 118.169 37.049 118.277 36.4634 118.475Z" fill="#DEEDF2"/>
<path fill-rule="evenodd" clip-rule="evenodd" d="M58.9628 121.541C59.6908 116.373 64.1748 112.441 69.5246 112.534C75.3124 112.635 79.9227 117.41 79.8216 123.2C79.805 124.15 79.6628 125.068 79.4106 125.939C79.4996 125.942 79.5878 125.946 79.6754 125.953L79.7742 125.947L79.7739 125.961C82.7718 126.239 85.0941 128.789 85.0407 131.849C84.9872 134.91 82.5773 137.377 79.5716 137.55L79.5713 137.568L41.4147 136.902L41.4147 136.901L41.4146 136.901C39.0757 136.86 37.2126 134.93 37.2535 132.59C37.2943 130.25 39.2236 128.387 41.5625 128.428L41.5626 128.428L41.5626 128.427L51.2437 127.799C51.2046 127.509 51.1868 127.213 51.1921 126.912C51.2481 123.703 53.8942 121.146 57.1025 121.202C57.7551 121.214 58.3807 121.332 58.9628 121.541Z" fill="#DEEDF2"/>
<path fill-rule="evenodd" clip-rule="evenodd" d="M129.503 92.7018C132.203 93.5636 133.406 94.7801 132.26 96.2901C128.502 101.243 112.871 103.965 106.762 104.179C100.655 104.392 86.6265 105.752 86.0335 99.896C86.0335 99.896 85.6108 98.4892 87.7729 96.7867C87.7718 96.7868 87.7669 96.788 87.7669 96.788C87.7669 96.788 83.3958 98.029 84.0141 103.231C84.6329 108.434 96.4018 111.524 116.077 108.207C135.619 104.912 140.933 95.1149 129.503 92.7018L85.181 103.101Z" fill="#D39E00"/>
<path fill-rule="evenodd" clip-rule="evenodd" d="M28.8352 89.4741C28.8352 89.4741 30.9017 93.7369 31.2474 94.7665C31.5757 95.7447 32.9568 98.3574 33.2409 98.8708C33.5918 99.507 36.9759 104.39 37.617 104.39C38.0174 104.39 39.1353 103.979 40.0396 103.615C40.5859 103.394 41.055 103.19 41.2391 103.105C41.7299 102.879 44.4027 102.155 45.333 102.252C45.333 102.252 45.5544 102.282 45.8906 102.316C46.6593 102.39 48.0292 102.48 48.7293 102.252C49.736 101.924 50.2641 101.118 50.8678 100.463C51.4715 99.8073 53.4589 97.5053 53.6092 97.0266C53.7603 96.5471 53.8671 92.2939 53.9236 91.0937C53.9818 89.8762 53.9462 88.5542 53.921 88.4027C53.8958 88.2522 58.0261 88.2618 57.9757 88.69C57.9254 89.1181 57.4415 92.6516 57.2834 94.3461C57.1427 95.8474 56.7788 97.3626 56.5025 98.0423C56.2255 98.7229 53.2826 103.159 52.9299 103.966C52.5781 104.772 51.1414 106.839 51.0172 107.141C50.893 107.444 50.4839 110.818 50.1069 111.8C49.729 112.784 50.0878 119.492 50.2389 120.575C50.3892 121.66 50.8287 122.678 50.8287 122.678C50.8287 122.678 44.85 123.978 38.9382 124.431C38.9382 124.431 39.3238 121.59 39.2483 120.506C39.1727 119.422 37.8619 112.637 37.3086 111.577C36.7553 110.519 31.6739 103.059 31.4724 102.756C31.2717 102.454 29.6257 100.423 29.2652 99.6472C29.2652 99.6472 24.6963 91.481 24.5781 90.8753L28.8352 89.4741Z" fill="#34466B"/>
<path fill-rule="evenodd" clip-rule="evenodd" d="M59.6636 127.7C59.0599 128.129 58.5353 128.325 57.6228 128.668C55.5489 129.213 42.5404 133.095 42.5404 133.095C42.5056 132.963 42.4873 132.848 42.4108 132.7C41.9254 132.893 41.4252 133.018 41.1077 133.117C40.624 133.269 38.3536 130.666 38.9286 130.605C39.5036 130.545 40.2604 130.333 40.624 130.454C40.7388 130.492 41.246 130.343 41.8862 130.122C41.8706 129.887 41.8662 129.738 41.8662 129.738L45.2823 128.753L44.6499 122.705C44.6499 122.705 44.7996 116.612 50.4035 120.353C50.5346 120.441 51.0443 120.547 51.1801 120.644C51.1801 120.644 53.3977 121.767 53.8518 121.888C53.8839 121.897 53.9353 121.897 54.004 121.892C54.9096 121.823 58.8015 120.646 60.2081 120.646C61.7218 120.646 62.2063 120.556 62.7509 120.828C63.2954 121.101 64.4159 123.22 64.3254 123.856C64.2687 124.25 63.6267 125.977 62.8306 126.567C62.0346 127.156 59.9484 127.497 59.6636 127.7Z" fill="#DEEDF2"/>
<path fill-rule="evenodd" clip-rule="evenodd" d="M50.1283 133.118C49.6437 132.966 48.7355 132.755 48.1005 132.331C48.0492 132.296 47.9318 132.246 47.7604 132.182L47.7595 132.182L46.7983 132.876L33.4322 128.621C32.6319 128.402 31.996 128.068 31.5732 127.7C30.8764 127.094 27.0019 124.491 26.9114 123.856C26.821 123.22 27.9405 121.101 28.4851 120.828C29.0305 120.556 29.5142 120.647 31.0278 120.647C32.5414 120.647 36.931 122.009 37.3851 121.888C37.5912 121.833 38.0183 121.615 38.4237 121.394C38.9091 121.129 39.3623 120.859 39.3623 120.859C45.8631 117.957 46.5869 122.705 46.5869 122.705L46.2015 128.567C46.2015 128.567 46.7435 128.836 47.4481 129.171L50.6711 130.082C50.6322 132.206 50.4513 133.218 50.1283 133.118Z" fill="#DEEDF2"/>
<path d="M45.0977 132.334L52.3266 130.195L50.8964 129.758C50.8964 129.758 45.1203 131.852 45.0977 132.334Z" fill="#767676"/>
<path fill-rule="evenodd" clip-rule="evenodd" d="M45.0977 132.333L48.4807 131.302L46.1346 132.664L45.0977 132.333Z" fill="#444444"/>
<path fill-rule="evenodd" clip-rule="evenodd" d="M29.2262 87.957C29.2791 87.7545 29.0892 87.2026 28.8161 86.5874C28.543 85.9722 27.9006 85.2645 27.7861 85.2453C27.6725 85.2262 25.4218 86.4524 25.3516 86.7561C25.3516 86.7561 25.5414 87.3099 25.5527 87.5354C25.564 87.7606 26.2324 89.1441 26.8506 90.1522C26.8506 90.1522 27.5607 90.648 28.784 89.4731C28.784 89.4731 29.1733 88.1595 29.2262 87.957Z" fill="#F4A48D"/>
<path fill-rule="evenodd" clip-rule="evenodd" d="M53.3648 87.2115C53.2682 87.0208 53.3263 86.4206 53.4502 85.7375C53.5741 85.0545 54.0321 84.1902 54.1372 84.1439C54.2067 84.113 54.5294 84.1814 55.1052 84.3491C55.7666 84.4331 56.1696 84.6009 56.3143 84.8526C56.6071 85.4064 56.7668 85.7597 56.7936 85.9125C56.8329 86.1415 56.5031 87.6903 56.1357 88.8507C56.1357 88.8507 55.5666 89.5182 54.1286 88.6291C54.1286 88.6291 53.4613 87.4022 53.3648 87.2115Z" fill="#F4A48D"/>
<path fill-rule="evenodd" clip-rule="evenodd" d="M46.9226 132.027C47.6506 126.859 52.1346 122.926 57.4844 123.02C63.2722 123.121 67.8825 127.896 67.7814 133.686C67.7649 134.636 67.6226 135.554 67.3704 136.425C67.4594 136.427 67.5476 136.432 67.6352 136.439L67.734 136.432L67.7337 136.447C70.7316 136.725 41.854 131.632 45.0623 131.688C45.7149 131.699 46.3405 131.818 46.9226 132.027Z" fill="#DEEDF2"/>
<path fill-rule="evenodd" clip-rule="evenodd" d="M41.0027 99.5545C39.6623 98.9985 38.707 97.5655 38.707 95.8872C38.707 93.7267 40.29 91.9727 42.2397 91.9727C43.7825 91.9727 45.0957 93.071 45.5766 94.5998L45.5826 94.6014L46.5054 97.6519L46.4206 97.6884L46.3762 97.7074L45.8308 97.8253L45.8284 99.4275L45.8017 99.5246C45.7586 99.6592 45.6989 99.7897 45.6227 99.9124C45.5339 100.056 45.4239 100.187 45.2991 100.3C45.2341 100.359 45.1643 100.413 45.0907 100.462C45.0517 100.488 45.0127 100.511 44.9727 100.534C44.9414 100.552 44.9099 100.569 44.8777 100.584L44.7792 100.632L45.3548 103.072C45.3548 103.072 43.4823 104.549 42.7368 104.394L42.6372 104.372L42.6352 104.372C41.9236 104.218 41.2168 103.977 40.6195 103.241C40.6195 103.241 40.6212 103.233 40.6242 103.217L40.6195 103.211C40.6195 103.211 40.6754 102.944 40.7452 102.507C40.8518 101.81 40.9895 100.701 41.0027 99.5545Z" fill="#F4A48D"/>
<path fill-rule="evenodd" clip-rule="evenodd" d="M44.8333 101.432C44.3796 101.295 43.4222 100.756 42.7031 99.8794L44.7553 100.613C44.7553 100.613 44.7946 101.032 44.8333 101.432ZM45.9241 97.7918C45.739 97.8537 45.5492 97.7134 45.5542 97.5185L45.5864 96.2617L45.9241 97.7918Z" fill="#A66555"/>
<path fill-rule="evenodd" clip-rule="evenodd" d="M20.4975 137.246C17.3907 137.246 20.369 134.83 20.4224 131.769C20.4758 128.709 22.8857 126.242 25.8914 126.069L25.8917 126.051L64.0484 126.717C66.3873 126.759 68.2504 128.689 68.2096 131.029C68.1823 132.589 71.6311 134.532 78.5557 136.858L55.0606 136.858C55.0867 137.051 43.5656 137.181 20.4975 137.246Z" fill="#DEEDF2"/>
<path fill-rule="evenodd" clip-rule="evenodd" d="M41.2048 99.6815L40.6569 99.3777C40.0008 98.9969 39.4451 98.4293 39.0811 97.7051C38.0842 95.7214 38.9015 93.3137 40.9063 92.3271C42.7113 91.4389 44.8653 92.0061 46.0026 93.5779L45.5519 93.9398C45.4496 93.9103 45.2802 93.863 45.0728 93.8099C44.3274 93.6153 43.0913 93.3402 42.7044 93.5272C42.1378 93.8011 42.1642 94.8328 42.2502 95.6513C42.3344 96.4519 42.4103 96.7995 42.044 96.9567C41.9097 97.0144 41.8267 96.3382 41.5186 96.135C41.1932 95.9204 40.7775 96.1389 40.8384 96.874C40.9391 97.208 41.0166 97.5373 41.0747 97.8588C41.1721 98.4339 41.2078 99.0611 41.2048 99.6815Z" fill="#DEEDF2"/>
<path fill-rule="evenodd" clip-rule="evenodd" d="M38.6225 94.2924L34.6758 93.2372L41.8194 88.3145L48.4055 90.7241L45.3277 92.8823L38.6225 94.2924Z" fill="#34466B"/>
<path fill-rule="evenodd" clip-rule="evenodd" d="M38.7489 94.6359C38.7489 94.6359 42.4651 93.1049 45.3853 93.2484L45.2627 92.4542C45.2627 92.4542 42.2215 92.1967 38.4688 93.8687L38.7489 94.6359Z" fill="#34466B"/>
<path d="M37.5976 97.6396H37.7751V93.2388H37.5976V97.6396Z" fill="#444444"/>
<path d="M37.6931 97.5009V97.5L37.6896 97.5009L37.687 97.5V97.5009C37.2694 97.5209 37.3181 99.6678 37.3181 99.6678H38.0619C38.0619 99.6678 38.1098 97.5209 37.6931 97.5009Z" fill="#444444"/>
<path fill-rule="evenodd" clip-rule="evenodd" d="M44.0379 104.464C45.999 103.855 45.4888 102.404 45.4888 102.404C45.4888 102.404 44.0814 101.815 40.5 103.381C41.5507 104.509 42.73 104.87 44.0379 104.464Z" fill="#EAF7FE"/>
<path fill-rule="evenodd" clip-rule="evenodd" d="M42.8278 103.521L42.3063 105.014L40.1094 103.375L40.2941 102.684C40.2941 102.684 42.1023 103.231 42.8278 103.521Z" fill="#DEEDF2"/>
<path fill-rule="evenodd" clip-rule="evenodd" d="M45.4508 101.907L45.9362 102.323L45.6449 104.625L44.3828 103.547C44.3828 103.547 45.1444 102.607 45.4508 101.907Z" fill="#DEEDF2"/>
<path fill-rule="evenodd" clip-rule="evenodd" d="M54.0925 121.976C54.0925 121.976 48.8402 123.433 47.8789 124.043C47.9227 124.007 50.6464 121.64 52.077 121.324C52.077 121.324 53.4823 121.832 53.9393 121.971C53.9717 121.981 54.0233 121.982 54.0925 121.976Z" fill="#DEEDF2"/>
<path d="M40.0102 122.936C40.0412 123.006 40.0335 123.061 39.9907 123.096C39.7189 123.298 39.7616 123.212 40.0102 122.936Z" fill="#EC0000"/>
<path d="M42.8298 124.043C42.812 124.024 42.6744 123.888 42.4414 123.654C42.5945 123.79 42.7255 123.922 42.8298 124.043Z" fill="#767676"/>
<path fill-rule="evenodd" clip-rule="evenodd" d="M38.5024 123.746L37.3906 117.386L51.7596 117.052L50.8344 123.311C50.8344 123.311 46.2475 124.999 44.6914 125.984C44.6914 125.984 40.7572 124.359 38.5024 123.746Z" fill="#EAF7FE"/>
<path fill-rule="evenodd" clip-rule="evenodd" d="M27.8776 121.256C27.2127 115.855 22.6093 111.674 17.0301 111.674C10.994 111.674 6.10046 116.568 6.10046 122.606C6.10046 123.597 6.23209 124.557 6.47912 125.469C6.38632 125.471 6.29431 125.474 6.20284 125.479L6.09993 125.471V125.486C2.9694 125.721 0.501778 128.337 0.501778 131.529C0.501778 134.721 2.9694 137.337 6.09993 137.572V137.59C38.4081 137.32 56.452 137.185 60.2315 137.185C65.9007 137.185 50.3103 135.611 50.3103 133.171C50.3103 130.731 48.3327 128.753 45.8935 128.753L35.8115 127.921C35.8576 127.62 35.8815 127.311 35.8815 126.997C35.8815 123.65 33.1692 120.937 29.8233 120.937C29.1427 120.937 28.4883 121.049 27.8776 121.256Z" fill="#DEEDF2"/>
<path fill-rule="evenodd" clip-rule="evenodd" d="M24.9592 41.2265C25.431 37.3417 28.6972 34.334 32.6557 34.334C36.9384 34.334 40.4104 37.8545 40.4104 42.1976C40.4104 42.9101 40.317 43.6004 40.1418 44.2567C40.2076 44.2576 40.2729 44.26 40.3378 44.2638L40.4108 44.2577V44.2688C42.632 44.438 44.3828 46.3194 44.3828 48.6153C44.3828 50.9111 42.632 52.7925 40.4108 52.9618V52.9748H12.1768V52.9743H12.1767C10.4461 52.9743 9.04297 51.5513 9.04297 49.7962C9.04297 48.0411 10.4461 46.6183 12.1767 46.6183H12.1768V46.6182L19.33 46.0201C19.2973 45.8035 19.2804 45.5816 19.2804 45.3557C19.2804 42.9484 21.2048 40.9968 23.5787 40.9968C24.0617 40.9968 24.526 41.0776 24.9592 41.2265Z" fill="#EAF7FE"/>
<path fill-rule="evenodd" clip-rule="evenodd" d="M95.2522 142.197C95.724 138.312 98.9901 135.305 102.949 135.305C107.231 135.305 110.703 138.825 110.703 143.168C110.703 143.881 110.61 144.571 110.435 145.227C110.501 145.228 110.566 145.231 110.631 145.235L110.704 145.228V145.239C112.925 145.409 114.676 147.29 114.676 149.586C114.676 151.882 112.925 153.763 110.704 153.932V153.945H82.4698V153.945H82.4697C80.739 153.945 79.3359 152.522 79.3359 150.767C79.3359 149.012 80.739 147.589 82.4697 147.589H82.4698V147.589L89.623 146.991C89.5903 146.774 89.5734 146.552 89.5734 146.326C89.5734 143.919 91.4977 141.968 93.8717 141.968C94.3546 141.968 94.8189 142.048 95.2522 142.197Z" fill="#EAF7FE"/>
</svg>
