<svg width="161" height="160" viewBox="0 0 161 160" fill="none" xmlns="http://www.w3.org/2000/svg">
<path fill-rule="evenodd" clip-rule="evenodd" d="M74.7854 17.0244C55.8249 33.2156 38.949 30.4604 27.7511 29.6215C5.40748 27.9464 -0.997185 49.0812 8.40853 63.8902C17.8147 78.6988 26.2136 96.9807 8.19781 113.613C-9.81756 130.244 15.2942 166.201 45.5385 153.064C75.7824 139.927 111.098 138.356 128.131 148.255C145.164 158.153 178.202 128.705 147.867 104.556C117.531 80.4074 134.799 67.5088 143.285 54.593C151.772 41.6769 145.891 19.7386 118.195 11.2002C118.195 11.2002 93.7464 0.833547 74.7854 17.0244Z" fill="#DEEDF2"/>
<path fill-rule="evenodd" clip-rule="evenodd" d="M127.821 13.6266C127.183 8.44677 122.768 4.43652 117.418 4.43652C111.629 4.43652 106.936 9.1306 106.936 14.9213C106.936 15.8713 107.062 16.7918 107.299 17.6669C107.21 17.668 107.122 17.6712 107.034 17.6763L106.936 17.6682V17.6829C103.933 17.9085 101.567 20.417 101.567 23.4782C101.567 26.5394 103.933 29.0479 106.936 29.2735V29.2909H145.098V29.2903H145.098C147.437 29.2903 149.334 27.393 149.334 25.0528C149.334 22.7127 147.437 20.8156 145.098 20.8156H145.098V20.8154L135.43 20.0181C135.474 19.7292 135.497 19.4334 135.497 19.1322C135.497 15.9224 132.895 13.3203 129.687 13.3203C129.034 13.3203 128.406 13.428 127.821 13.6266Z" fill="#DEEDF2"/>
<path fill-rule="evenodd" clip-rule="evenodd" d="M64.9067 71.879C64.269 66.6992 59.8544 62.689 54.5038 62.689C48.7151 62.689 44.0221 67.383 44.0221 73.1737C44.0221 74.1237 44.1484 75.0442 44.3853 75.9193C44.2963 75.9205 44.208 75.9236 44.1203 75.9288L44.0216 75.9206V75.9353C41.0194 76.161 38.6529 78.6695 38.6529 81.7307C38.6529 84.7918 41.0194 87.3004 44.0216 87.526V87.5433H82.1841V87.5427H82.1842C84.5234 87.5427 86.4199 85.6454 86.4199 83.3053C86.4199 80.9651 84.5234 79.0681 82.1842 79.0681H82.1841V79.0679L72.5155 78.2705C72.5596 77.9816 72.5825 77.6858 72.5825 77.3846C72.5825 74.1749 69.9814 71.5728 66.7727 71.5728C66.1199 71.5728 65.4924 71.6804 64.9067 71.879Z" fill="#DEEDF2"/>
<path d="M92.0117 61.9448L101.688 101.251" stroke="#34466B" stroke-width="1.909" stroke-linecap="round"/>
<path fill-rule="evenodd" clip-rule="evenodd" d="M129.073 56.968C129.508 53.4069 132.523 50.6499 136.177 50.6499C140.131 50.6499 143.335 53.8771 143.335 57.8582C143.335 58.5113 143.249 59.1442 143.087 59.7458C143.148 59.7466 143.208 59.7487 143.268 59.7523L143.336 59.7467V59.7568C145.386 59.9119 147.002 61.6365 147.002 63.7411C147.002 65.8456 145.386 67.5702 143.336 67.7254V67.7373H117.274V67.7369H117.274C115.676 67.7369 114.381 66.4325 114.381 64.8236C114.381 63.2148 115.676 61.9105 117.274 61.9105H117.274V61.9104L123.877 61.3622C123.846 61.1636 123.831 60.9602 123.831 60.7532C123.831 58.5465 125.607 56.7575 127.799 56.7575C128.244 56.7575 128.673 56.8315 129.073 56.968Z" fill="#EAF7FE"/>
<path fill-rule="evenodd" clip-rule="evenodd" d="M101.516 21.7402L49.5105 48.4565C49.5105 48.4565 98.418 57.0342 100.211 57.3204C102.003 57.6076 154.509 36.6103 154.47 36.1706C154.432 35.7305 105.901 21.3566 101.516 21.7402Z" fill="#34466B"/>
<path fill-rule="evenodd" clip-rule="evenodd" d="M78.9981 60.2296C78.9981 60.2296 81.1567 64.8286 103.736 61.9828C126.315 59.1366 127.357 55.9988 127.357 55.9988C127.357 55.9988 115.161 47.0551 106.883 47.7793C98.6056 48.5034 82.5988 51.2097 78.9981 60.2296Z" fill="#CEDEE7"/>
<path d="M126.779 53.8354L127.712 100.144" stroke="#34466B" stroke-width="1.909" stroke-linecap="round"/>
<path d="M80.1016 59.478L89.0426 108.205" stroke="#34466B" stroke-width="1.909" stroke-linecap="round"/>
<path d="M65.8379 41.3296L69.247 62.4721" stroke="#34466B" stroke-width="4.773" stroke-linecap="round"/>
<path fill-rule="evenodd" clip-rule="evenodd" d="M68.9286 60.4525C68.9237 60.4535 68.9187 60.4559 68.9135 60.4597L68.9007 60.4579L68.9015 60.4621C67.0026 60.9298 69.2077 71.0799 69.2077 71.0799L72.623 70.4161C72.623 70.4161 70.8613 60.1797 68.9294 60.4566C66.9976 60.7335 68.936 60.4511 68.9286 60.4525Z" fill="#34466B"/>
<path d="M115.993 50.8804L116.04 109.351" stroke="#34466B" stroke-width="1.909" stroke-linecap="round"/>
<path d="M96.7104 92.7985C114.105 89.1575 136.185 91.0302 132.321 96.169C128.457 101.308 112.382 104.128 106.099 104.348C99.8171 104.567 85.3896 105.974 84.7778 99.8962C84.7778 99.8962 83.4695 95.569 96.7104 92.7985Z" fill="#A66555"/>
<path fill-rule="evenodd" clip-rule="evenodd" d="M100.973 35.432C120.142 33.7549 126.024 40.7599 126.024 40.7599L127.368 56.1229C127.368 56.1229 106.175 44.7079 79.0087 60.3538L77.5493 43.6733C77.5493 43.6733 85.2653 36.8062 100.973 35.432Z" fill="#34466B"/>
<path fill-rule="evenodd" clip-rule="evenodd" d="M98.4343 99.7443C98.5853 99.0072 99.2934 97.9622 99.3766 96.8969C99.4598 95.8307 100.878 91.6757 100.903 91.0487C100.928 90.4227 101.639 87.5702 102.315 86.3374C103.005 85.0763 105.245 84.3149 105.245 84.3149C105.245 84.3149 104.086 90.4954 104.099 91.7797C104.103 92.1654 103.98 92.8682 103.801 93.678L103.797 93.6972C103.76 93.8749 103.758 94.0273 103.775 94.1667C103.832 94.6281 104.095 94.9371 103.934 95.5429L103.937 95.867C103.921 95.9276 103.905 95.9882 103.889 96.0488C103.661 96.9232 103.45 97.8551 103.352 98.2732C103.331 98.36 103.316 98.4246 103.306 98.462C103.155 99.0274 103.339 98.7265 103.071 100.142C103.071 100.142 98.1432 101.167 98.4343 99.7443Z" fill="#2A8FEC"/>
<path fill-rule="evenodd" clip-rule="evenodd" d="M117.078 117.982C117.078 117.982 116.602 103.866 115.027 100.33C113.452 96.7941 103.148 98.3854 103.148 98.3854C103.148 98.3854 98.9648 111.895 98.9648 114.858C98.9648 114.858 106.242 117.982 117.078 117.982Z" fill="#34466B"/>
<path fill-rule="evenodd" clip-rule="evenodd" d="M102.846 93.0124C103.662 94.9026 102.892 95.5337 103.265 97.4228C103.639 99.313 103.638 104.468 103.569 105.518C103.498 106.567 113.431 109.514 115.601 107.601C115.601 107.601 115.411 105.302 114.698 103.191C114.61 102.931 114.52 102.668 114.428 102.407C114.074 101.4 113.698 100.415 113.346 99.6513C113.117 99.1565 112.997 96.9563 113.254 96.3031C113.353 96.0506 113.845 95.1692 114.411 94.1817C114.648 93.7707 114.897 93.3396 115.137 92.9296C115.81 91.7735 116.404 90.7719 116.404 90.7719C116.404 90.7719 117.003 85.9061 115.74 84.9257C115.309 84.5914 114.526 84.3279 113.701 84.1209C113.392 84.0432 113.075 83.9745 112.77 83.9119C111.822 83.715 110.978 83.5878 110.731 83.503C110.195 83.3162 108.633 83.2344 107.536 83.398C107.536 83.398 105.856 84.1906 105.273 84.3077C104.689 84.4248 102.382 87.2641 101.986 88.3365C101.588 89.4108 101.568 91.4267 102.846 93.0124L104.286 91.6209L106.422 94.5335" fill="#2A8FEC"/>
<path d="M113.324 98.689C113.324 98.689 114.153 99.1282 113.919 99.4442C113.684 99.7603 113.334 100.142 113.334 100.142L113.324 98.689Z" fill="#F4A48D"/>
<path d="M106.505 99.3907L110.446 98.9757C110.086 98.8101 109.502 98.5072 109.608 98.3325C109.76 98.0841 110.925 98.486 111.384 98.488C111.804 98.491 112.356 98.7263 112.445 98.7656L113.414 98.6637L113.333 100.142C113.333 100.142 111.266 100.584 110.666 100.685C109.691 100.849 106.575 99.9672 106.508 99.7945C106.387 99.4835 106.505 99.3907 106.505 99.3907Z" fill="#F4A48D"/>
<path d="M100.652 99.5516C100.652 99.5516 99.5588 99.5354 99.6588 99.1416C99.7589 98.7478 100.525 98.9629 100.525 98.9629L100.652 99.5516Z" fill="#F4A48D"/>
<path fill-rule="evenodd" clip-rule="evenodd" d="M117.14 109.136C116.158 109.757 115.401 110.093 114.868 110.145C111.747 110.449 110.31 110.623 109.819 110.65C101.456 111.115 101.733 108.697 101.872 106.001C102.105 101.51 101.554 95.7196 101.931 92.2412C102.308 88.7627 115.522 93.8001 115.522 93.8001C115.522 93.8001 116.16 98.3045 117.14 109.136Z" fill="#2A8FEC"/>
<path fill-rule="evenodd" clip-rule="evenodd" d="M96.3325 94.5165C96.1369 94.4408 95.5666 94.57 94.9245 94.776C94.2825 94.982 93.5074 95.5484 93.4759 95.6605C93.4443 95.7716 93.3602 95.8705 93.458 96.1522C93.5557 96.4339 93.7932 96.6187 93.7932 96.6187C93.7932 96.6187 93.7502 97.0236 94.0603 97.2286C94.0603 97.2286 94.0373 97.6102 94.4275 97.7859C94.4275 97.7859 94.4151 98.1605 94.7094 98.2635C94.7094 98.2635 95.2813 98.1343 95.5069 98.1484C95.7323 98.1615 96.8545 97.7001 97.9263 97.1912C97.9263 97.1912 99.1801 96.7883 97.7919 95.1254C97.7919 95.1254 96.528 94.5912 96.3325 94.5165Z" fill="#F4A48D"/>
<path fill-rule="evenodd" clip-rule="evenodd" d="M94.4141 92.4199L95.3733 104.498L103.126 103.883L102.469 91.7808" fill="#EAF7FE"/>
<path fill-rule="evenodd" clip-rule="evenodd" d="M103.783 99.2288C103.169 99.039 102.406 98.4584 101.851 98.5907C101.397 98.6992 101.219 99.2904 101.198 99.9009C101.194 100.035 101.154 99.5738 101.207 100.301C101.259 101.029 101.357 101.193 101.496 101.332C101.849 101.686 103.201 101.651 105.026 101.034C106.852 100.417 104.6 99.249 104.6 99.249C104.6 99.249 104.138 99.3389 103.783 99.2288Z" fill="#FFC4B8"/>
<path fill-rule="evenodd" clip-rule="evenodd" d="M114.88 84.3877C114.18 84.3291 112.501 85.143 112.479 87.0877C112.463 88.5427 112.456 89.7957 112.504 90.3712C112.553 90.9468 112.559 94.7988 112.218 95.1583C111.785 95.6126 109.351 96.796 109.129 96.9384C108.365 97.4311 104.594 99.0154 104.594 99.0154L106.37 106.149C106.37 106.149 114.973 100.326 115.834 99.6818C116.401 99.2577 116.877 97.5917 117.107 95.7712C117.341 93.9214 117.212 89.5069 117.185 89.1364C117.158 88.7648 117.436 84.5997 114.88 84.3877Z" fill="#2A8FEC"/>
<path fill-rule="evenodd" clip-rule="evenodd" d="M93.6316 95.7134C93.6316 95.7134 94.4688 95.8117 96.1433 96.0082C96.1984 97.1458 96.1494 97.7806 95.9964 97.9125C95.7668 98.1104 94.6742 98.5335 94.6742 98.5335C93.6694 97.0539 93.2664 96.1341 93.4653 95.774" fill="#FFC4B8"/>
<path d="M96.1426 102.936C96.1426 103.363 96.488 103.708 96.9141 103.708C97.3402 103.708 97.6857 103.363 97.6857 102.936C97.6857 102.51 97.3402 102.165 96.9141 102.165C96.488 102.165 96.1426 102.51 96.1426 102.936Z" fill="#2A8FEC"/>
<path fill-rule="evenodd" clip-rule="evenodd" d="M112.072 83.7715C112.072 83.7715 106.478 87.0793 106.478 87.0621C106.478 86.8238 106.01 84.0623 106.01 84.0623C106.01 84.0623 106.832 83.5917 107.063 83.5473C107.217 83.517 108.432 83.4877 110.709 83.4595L110.324 84.6499" fill="#EAF7FE"/>
<path fill-rule="evenodd" clip-rule="evenodd" d="M106.479 87.0622L106.93 83.5908C106.93 83.5908 105.238 84.0371 104.059 84.8429L106.479 87.0622Z" fill="#9E3667"/>
<path fill-rule="evenodd" clip-rule="evenodd" d="M110.832 83.6397C110.832 83.3873 109.166 80.6734 109.058 79.3669C109.325 79.216 109.576 79.027 109.803 78.7999C111.16 77.4428 111.156 75.2352 109.794 73.873C108.432 72.5108 106.224 72.5067 104.867 73.8637C104.316 74.4147 103.989 75.1061 103.887 75.8241L103.21 78.1328L103.827 78.266L103.829 80.0305C103.83 80.4903 104.118 80.9015 104.551 81.0591L105.526 81.4145C105.526 81.4146 105.578 81.5647 105.668 81.8052L107.046 83.8921C107.426 84.394 109.57 83.8921 110.832 83.6397Z" fill="#FFC4B8"/>
<path fill-rule="evenodd" clip-rule="evenodd" d="M105.757 82.0363C106.205 81.8909 106.854 81.5296 107.551 80.6439L105.527 81.4145C105.527 81.4145 105.612 81.6644 105.757 82.0363ZM103.827 78.266C104.013 78.3237 104.198 78.1805 104.189 77.9869L104.132 76.7388L103.827 78.266Z" fill="#F4A48D"/>
<path fill-rule="evenodd" clip-rule="evenodd" d="M106.479 87.0621L114.879 84.3874C114.879 84.3874 113.432 83.5221 110.709 83.4595L106.479 87.0621Z" fill="#9E3667"/>
<path fill-rule="evenodd" clip-rule="evenodd" d="M107.587 72.584C106.912 72.584 106.278 72.7617 105.73 73.0731C105.181 73.3844 104.718 73.8293 104.385 74.3637C104.099 74.822 103.909 75.3457 103.841 75.9076L104.052 75.152C104.15 74.9402 104.27 74.7348 104.412 74.539L104.417 74.5679L104.423 74.5969L104.423 74.5986L104.429 74.6261L104.435 74.6553L104.435 74.6576L104.441 74.6846L104.448 74.7138L104.448 74.7158L104.454 74.743L104.461 74.7722L104.462 74.7728C104.487 74.8781 104.518 74.9817 104.552 75.0834L104.561 75.1095L104.562 75.1127L104.571 75.1362L104.572 75.1409L104.58 75.1634L104.582 75.169L104.59 75.1906L104.593 75.197L104.601 75.218L104.603 75.2249L104.611 75.2455L104.614 75.2526L104.622 75.2728L104.625 75.2803L104.633 75.3002L104.636 75.3078L104.645 75.3276L104.648 75.3351L104.656 75.3548L104.659 75.3622L104.668 75.382L104.671 75.3892L104.68 75.409L104.683 75.4158L104.692 75.436L104.695 75.4422L104.704 75.463L104.707 75.468L104.717 75.4897L104.718 75.4927C104.742 75.5431 104.767 75.5929 104.794 75.6421L104.796 75.6461L104.806 75.6656L104.81 75.6722L104.82 75.6902L104.824 75.6982L104.834 75.7153L104.838 75.724L104.848 75.7405L104.853 75.7497L104.862 75.7657L104.868 75.7753L104.877 75.7909L104.883 75.8008L104.892 75.8161L104.898 75.8261L104.907 75.8411L104.914 75.8513L104.923 75.8661L104.929 75.8764L104.938 75.891L104.945 75.9013L104.954 75.9158L104.961 75.9261L104.97 75.9404L104.977 75.9507L104.986 75.965L104.993 75.9752L105.003 75.9894L105.01 75.9995L105.02 76.0137L105.026 76.0236L105.036 76.0378L105.043 76.0475L105.053 76.0619L105.06 76.071L105.07 76.0858L105.076 76.0935C105.09 76.1127 105.104 76.1318 105.119 76.1507L105.122 76.1558L105.133 76.17L105.14 76.1791L105.151 76.1923L105.158 76.2024L105.168 76.215L105.177 76.2255L105.187 76.2378L105.195 76.2484L105.205 76.2605L105.214 76.2712L105.224 76.2831L105.233 76.2939L105.242 76.3056L105.252 76.3164L105.261 76.328L105.271 76.3388L105.281 76.3502L105.29 76.361L105.3 76.3723L105.309 76.383L105.319 76.3942L105.329 76.4049L105.339 76.416L105.349 76.4267L105.359 76.4376L105.369 76.4483L105.379 76.4591L105.389 76.4698L105.399 76.4804L105.41 76.4911L105.42 76.5016L105.43 76.5123L105.44 76.5226L105.451 76.5334L105.461 76.5435L105.472 76.5544L105.482 76.5642L105.493 76.5754L105.503 76.5847L105.516 76.597L105.524 76.6051L105.545 76.6251L105.553 76.6322L105.567 76.6451L105.576 76.6536L105.588 76.665L105.598 76.6739L105.61 76.6847L105.62 76.6938L105.632 76.7043L105.642 76.7134L105.654 76.7237L105.665 76.7328L105.677 76.7429L105.687 76.7519L105.699 76.762L105.71 76.7709L105.722 76.7808L105.732 76.7898L105.744 76.7996L105.755 76.8084L105.767 76.8181L105.778 76.8269L105.79 76.8365L105.801 76.8451L105.814 76.8547L105.825 76.8632L105.837 76.8727L105.848 76.8812L105.86 76.8906L105.871 76.8989L105.884 76.9083L105.895 76.9164L105.908 76.9258L105.919 76.9338L105.932 76.9433L105.943 76.951L105.956 76.9606L105.967 76.968L105.981 76.9778L105.991 76.9848L106.007 76.9953L106.015 77.0015L106.035 77.0146L106.04 77.0179L106.065 77.0342L106.072 77.039L106.089 77.0502L106.099 77.0564L106.114 77.0661L106.125 77.0728L106.139 77.0818L106.15 77.0886L106.164 77.0973L106.176 77.1042L106.19 77.1126L106.201 77.1196L106.215 77.1278L106.227 77.1347L106.241 77.1427L106.253 77.1495L106.266 77.1574L106.278 77.1642L106.292 77.172L106.304 77.1787L106.318 77.1863L106.33 77.193L106.344 77.2005L106.356 77.207L106.371 77.2145L106.383 77.2209L106.397 77.2282L106.409 77.2345L106.423 77.2418L106.436 77.248L106.45 77.2552L106.462 77.2612L106.477 77.2684L106.489 77.2743L106.504 77.2815L106.516 77.2871L106.531 77.2944L106.543 77.2997L106.559 77.3072L106.57 77.3122L106.588 77.3203L106.597 77.3244L106.624 77.3364C106.637 77.3012 106.651 77.2672 106.665 77.2345C106.684 77.1935 106.704 77.1545 106.725 77.1178C106.738 77.0941 106.753 77.0713 106.767 77.0496C106.787 77.02 106.808 76.9922 106.83 76.9665C106.84 76.9539 106.851 76.9418 106.862 76.9302C106.868 76.9235 106.874 76.917 106.881 76.9107C106.904 76.8877 106.927 76.8671 106.952 76.849C106.992 76.819 107.033 76.796 107.075 76.7809C107.089 76.7758 107.103 76.7716 107.117 76.7683C107.155 76.7595 107.193 76.7574 107.231 76.7626L107.236 76.7634L107.241 76.7644L107.247 76.7654C107.263 76.7685 107.278 76.7729 107.293 76.7784L107.3 76.7809C107.303 76.7823 107.307 76.7837 107.31 76.7853C107.321 76.7902 107.332 76.7958 107.343 76.802L107.349 76.8056C107.366 76.8162 107.382 76.8285 107.398 76.8424C107.411 76.8541 107.424 76.8669 107.436 76.8807C107.437 76.8826 107.439 76.8846 107.441 76.8865L107.446 76.8924C107.474 76.9278 107.5 76.9695 107.521 77.0165C107.536 77.048 107.549 77.0819 107.56 77.1178L107.561 77.1202L107.565 77.1339L107.565 77.1357L107.569 77.1502L107.573 77.1655L107.577 77.1815L107.581 77.1982L107.582 77.2007L107.585 77.2153L107.588 77.2328L107.588 77.2345L107.591 77.2504L107.594 77.2668L107.596 77.2843L107.597 77.2868L107.599 77.3023L107.599 77.305L107.601 77.3207L107.603 77.3395L107.604 77.3577L107.605 77.3755L107.607 77.3941L107.607 77.4133L107.608 77.4328L107.608 77.4526V77.4713V77.4726L107.608 77.4902L107.608 77.4927L107.608 77.5099L107.608 77.5128L107.607 77.53L107.606 77.5504L107.605 77.5711L107.603 77.59L107.603 77.5918L107.602 77.6099C107.597 77.66 107.59 77.711 107.58 77.7625L107.578 77.7736C107.575 77.7877 107.572 77.8018 107.569 77.8157C107.565 77.8345 107.56 77.8532 107.555 77.8716L107.552 77.8852C107.547 77.9029 107.542 77.9204 107.537 77.9376C107.516 78.0054 107.491 78.0695 107.463 78.1292C107.423 78.2163 107.376 78.2939 107.324 78.3593C107.296 78.3947 107.267 78.4265 107.237 78.4544C107.231 78.4599 107.225 78.4652 107.219 78.4704C107.215 78.5185 107.212 78.5669 107.21 78.6155L107.209 78.6415L107.209 78.6499L107.208 78.6675L107.208 78.6773L107.208 78.6937L107.208 78.7038L107.207 78.7202L107.207 78.7299L107.207 78.748L107.207 78.7557L107.207 78.7815V78.7851L107.207 78.8073V78.8161L107.207 78.8331L107.207 78.843L107.207 78.8591L107.208 78.8691L107.208 78.8855L107.208 78.8949L107.209 78.9136L107.209 78.9205L107.21 78.946L107.21 78.9515L107.211 78.9716L107.211 78.9806L107.212 78.9972L107.212 79.007L107.213 79.023L107.214 79.0328L107.215 79.0493L107.215 79.0583L107.217 79.078L107.217 79.0837L107.219 79.1089L107.219 79.1156L107.221 79.1342L107.222 79.1434L107.223 79.1596L107.224 79.1694L107.225 79.1852L107.226 79.1949L107.228 79.2115L107.229 79.2201L107.231 79.2413L107.231 79.2451L107.234 79.2701L107.235 79.2775L107.237 79.2951L107.238 79.3044L107.24 79.3203L107.242 79.33L107.244 79.3456L107.245 79.3551L107.247 79.3719L107.248 79.38L107.252 79.404L107.256 79.4295L107.257 79.4374L107.26 79.4542L107.261 79.4635L107.264 79.4791L107.265 79.4887L107.268 79.5042L107.27 79.5134L107.273 79.5305L107.274 79.538L107.278 79.5624L107.279 79.5655L107.283 79.5868L107.285 79.5951L107.288 79.6113L107.29 79.6206L107.293 79.6358L107.295 79.6453L107.298 79.6608L107.3 79.6697L107.304 79.6872L107.305 79.6939L107.311 79.718L107.312 79.7231L107.316 79.7421L107.318 79.7506L107.322 79.7662L107.324 79.7756L107.328 79.7905L107.33 79.7998L107.334 79.8152L107.336 79.8239L107.341 79.842L107.342 79.8477L107.349 79.8714L107.351 79.8777L107.355 79.8952L107.358 79.9039L107.362 79.919L107.364 79.9283L107.369 79.9429L107.371 79.9521L107.376 79.9674L107.378 79.9757L107.384 79.995L107.385 79.9992L107.392 80.0225L107.395 80.0296L107.4 80.0459L107.403 80.0547L107.407 80.0694L107.41 80.0786L107.415 80.093L107.418 80.102L107.423 80.1173L107.426 80.1252L107.433 80.1464L107.434 80.1483L107.442 80.1712L107.444 80.1788L107.45 80.1942L107.453 80.2031L107.458 80.2173L107.461 80.2264L107.467 80.2406L107.47 80.2494L107.476 80.2648L107.479 80.2722L107.487 80.2947L107.496 80.3174L107.499 80.3253L107.505 80.34L107.509 80.3489L107.514 80.3627L107.518 80.3717L107.524 80.3856L107.527 80.3943L107.534 80.4097L107.537 80.4166L107.546 80.4387L107.548 80.4439L107.556 80.4608L107.56 80.4691L107.566 80.483L107.57 80.492L107.576 80.5053L107.58 80.5143L107.586 80.5279L107.59 80.5364L107.597 80.5521L107.6 80.5582L107.61 80.5798L107.613 80.5862L107.621 80.6015L107.625 80.61L107.631 80.6233L107.636 80.6322L107.642 80.6452L107.647 80.654L107.653 80.6674L107.658 80.6756L107.666 80.6918L107.668 80.697L107.679 80.718L107.683 80.7252L107.691 80.7393L107.695 80.7479L107.702 80.7606L107.707 80.7696L107.714 80.7821L107.718 80.7908L107.726 80.8039L107.73 80.8119L107.74 80.829L107.742 80.8328L107.753 80.8533L107.758 80.861L107.766 80.8741L107.771 80.8828L107.778 80.8949L107.783 80.9038L107.79 80.9159L107.795 80.9246L107.803 80.9374L107.808 80.9451L107.819 80.9641L107.823 80.9696L107.832 80.9854L107.837 80.9935L107.845 81.0058L107.851 81.0145L107.858 81.0261L107.864 81.0349L107.871 81.0466L107.877 81.0551L107.885 81.0677L107.89 81.0752L107.903 81.0945L107.907 81.1008L107.916 81.1144L107.922 81.1227L107.929 81.1342L107.935 81.1429L107.943 81.154L107.949 81.1628L107.957 81.1739L107.963 81.1824L107.971 81.1947L107.977 81.2019L107.99 81.2206L107.995 81.2278L108.004 81.2399L108.01 81.2484L108.018 81.2592L108.025 81.268L108.032 81.2784L108.039 81.2872L108.047 81.2978L108.053 81.3063L108.063 81.3182L108.068 81.3252L108.082 81.3432L108.088 81.3511L108.096 81.362L108.103 81.3706L108.111 81.3807L108.118 81.3895L108.126 81.3994L108.133 81.4081L108.142 81.4182L108.148 81.4266L108.158 81.4383L108.163 81.4447L108.167 81.449L108.178 81.4623L108.185 81.4706L108.193 81.4795L108.218 81.5092L108.222 81.5137L108.248 81.5436L108.25 81.5455L108.276 81.5751L108.278 81.5773L108.305 81.6066L108.309 81.6109L108.335 81.6397L108.339 81.6429L108.367 81.6724L108.395 81.7015L108.398 81.7052L108.426 81.7331L108.43 81.7368L108.459 81.7653L108.488 81.794L108.491 81.7964L108.52 81.8238L108.524 81.8275L108.553 81.8546L108.555 81.8567L108.586 81.8844L108.616 81.9118L108.62 81.915L108.65 81.9412L108.653 81.944L108.685 81.9706L108.696 81.9806L108.702 81.9849L108.712 81.9939L108.72 82L108.73 82.0087L108.738 82.0149L108.749 82.0236L108.756 82.0297L108.767 82.0384L108.774 82.0441L108.786 82.0532L108.79 82.0569L108.803 82.067L108.816 82.0769L108.821 82.0807L108.832 82.0898L108.839 82.0951L108.851 82.1039L108.858 82.1094L108.87 82.118L108.877 82.1234L108.888 82.1321L108.895 82.1369C108.909 82.1476 108.924 82.1583 108.939 82.1688L108.943 82.1722L108.956 82.1812L108.963 82.1859L108.975 82.1945L108.982 82.1994L108.994 82.208L109.001 82.2126L109.013 82.2214L109.019 82.225C109.034 82.2355 109.049 82.2459 109.065 82.2562L109.069 82.2593L109.083 82.2681L109.089 82.2722L109.102 82.2807L109.109 82.2849L109.122 82.2934L109.128 82.2973L109.142 82.3061L109.145 82.3084C109.162 82.3187 109.178 82.3289 109.194 82.339L109.199 82.3417L109.213 82.3503L109.219 82.3538L109.233 82.3622L109.239 82.3658L109.253 82.3741L109.258 82.3772L109.273 82.3861L109.274 82.3866C109.292 82.3969 109.309 82.407 109.327 82.4171L109.331 82.4193L109.346 82.4277L109.352 82.4307L109.366 82.4389L109.372 82.4418L109.387 82.4501L109.391 82.4523C109.415 82.4652 109.439 82.4779 109.463 82.4903L109.467 82.4922L109.483 82.5003L109.488 82.5028L109.503 82.5107L109.508 82.513L109.524 82.5211L109.527 82.5224C109.552 82.5347 109.577 82.5467 109.602 82.5585L109.605 82.5601L109.622 82.5678L109.626 82.5699L109.643 82.5775L109.647 82.5792L109.664 82.5872C109.691 82.5991 109.717 82.6105 109.744 82.6217L109.764 82.6303L109.768 82.6318L109.785 82.6392L109.788 82.6403C109.821 82.6538 109.854 82.6669 109.888 82.6796L109.909 82.6875L109.912 82.6886L109.931 82.6956C109.966 82.7086 110 82.7207 110.035 82.7323L110.056 82.7394L110.058 82.7401C110.1 82.7539 110.142 82.767 110.184 82.7795L110.206 82.7858C110.25 82.7985 110.293 82.8101 110.336 82.8211L110.358 82.8267C110.679 82.9063 111.015 82.9486 111.36 82.9486C111.454 82.9486 111.546 82.9454 111.638 82.9391C111.874 82.923 112.092 83.0527 112.19 83.2673C112.814 84.6246 114.183 85.5672 115.773 85.5672C116.494 85.5672 117.17 85.3729 117.751 85.034C118.183 84.7824 118.713 84.8021 119.144 85.0549C119.453 85.2363 119.813 85.3403 120.198 85.3403C121.421 85.3403 122.4 84.2877 122.279 83.0372C122.19 82.1197 121.494 81.3566 120.589 81.188C120.582 81.1868 120.575 81.1855 120.568 81.1843C120.072 81.0967 119.656 80.7591 119.485 80.2837C118.939 78.7595 117.483 77.6693 115.773 77.6693H115.769C115.533 77.6694 115.324 77.5225 115.239 77.3021C114.617 75.6756 113.006 74.5396 111.142 74.6352C111.078 74.6384 111.014 74.6432 110.951 74.6494C110.947 74.6404 110.942 74.6319 110.938 74.6233L110.936 74.6208L110.935 74.6177L110.931 74.6104L110.921 74.5922C110.917 74.5837 110.912 74.5751 110.908 74.5666L110.906 74.5638L110.905 74.5612C110.9 74.5527 110.895 74.5442 110.891 74.5358L110.881 74.518L110.877 74.5104L110.875 74.5076C110.869 74.4968 110.864 74.4885 110.859 74.4801L110.85 74.4634L110.845 74.4548L110.843 74.4518L110.842 74.4498C110.837 74.4415 110.832 74.4334 110.827 74.4251L110.827 74.4242L110.825 74.422L110.818 74.4092L110.812 74.3995L110.81 74.3967L110.809 74.3951C110.804 74.3869 110.799 74.3787 110.794 74.3707L110.792 74.3668L110.785 74.3557L110.778 74.3448L110.776 74.3422L110.775 74.341C110.77 74.3329 110.765 74.3248 110.76 74.3168L110.757 74.3125L110.751 74.3028L110.743 74.2905L110.741 74.2884C110.736 74.2795 110.73 74.2715 110.725 74.2635L110.722 74.259L110.716 74.2505L110.707 74.2366L110.705 74.2347C110.7 74.2267 110.695 74.2188 110.689 74.2108L110.688 74.2087L110.686 74.2062L110.681 74.1988L110.669 74.1825C110.664 74.1746 110.658 74.1667 110.652 74.1588L110.651 74.1565L110.649 74.1541C110.638 74.1384 110.626 74.1228 110.615 74.1073L110.613 74.1048L110.611 74.1027C110.606 74.0949 110.6 74.0872 110.594 74.0796L110.582 74.064L110.576 74.0564L110.574 74.0539L110.573 74.052C110.567 74.0444 110.561 74.0369 110.555 74.0294L110.544 74.0147L110.537 74.0062L110.535 74.0036L110.534 74.002C110.528 73.9946 110.522 73.9872 110.516 73.9798L110.504 73.966L110.496 73.9565L110.493 73.9528C110.487 73.9455 110.481 73.9382 110.475 73.9308L110.474 73.9295L110.472 73.9271L110.464 73.918L110.455 73.9073L110.453 73.9052C110.446 73.897 110.44 73.8898 110.434 73.8827L110.43 73.8785L110.423 73.8707L110.413 73.8586L110.411 73.8564C110.405 73.8494 110.398 73.8422 110.392 73.8351L110.388 73.8308L110.382 73.8239L110.369 73.8103L110.369 73.8094C110.362 73.8023 110.356 73.7952 110.349 73.7883L110.345 73.7838C110.332 73.7698 110.319 73.7559 110.305 73.742L110.301 73.7377C110.295 73.7308 110.288 73.7239 110.281 73.7171L110.267 73.7029L110.261 73.6966L110.258 73.6942L110.257 73.6923C110.25 73.6856 110.243 73.6789 110.236 73.6722L110.223 73.6589L110.216 73.6518L110.213 73.6493C110.205 73.6411 110.198 73.6346 110.191 73.6281L110.188 73.6252L110.178 73.6156L110.169 73.6076L110.167 73.6053L110.166 73.604C110.159 73.5975 110.152 73.5911 110.145 73.5847L110.144 73.5835L110.141 73.5813L110.132 73.573L110.122 73.5641L110.12 73.562C110.112 73.5547 110.105 73.5484 110.098 73.5421L110.096 73.5407L110.086 73.5312L110.074 73.5213L110.072 73.5195C110.065 73.5126 110.057 73.5064 110.05 73.5002L110.048 73.4986L110.046 73.4963L110.039 73.4901L110.025 73.479C110.016 73.4713 110.009 73.4652 110.002 73.4591L110 73.4573L109.997 73.4551L109.991 73.4498L109.975 73.4369C109.968 73.4308 109.96 73.4248 109.953 73.4188L109.95 73.4168L109.948 73.4148C109.94 73.4088 109.933 73.4029 109.925 73.3969L109.91 73.3845L109.903 73.3792L109.9 73.3771L109.898 73.3754C109.89 73.3695 109.883 73.3638 109.875 73.358L109.86 73.3463L109.852 73.3405L109.849 73.3382L109.847 73.3368C109.84 73.3312 109.832 73.3255 109.825 73.3199L109.81 73.3089L109.801 73.3024L109.798 73.3003L109.796 73.2991C109.789 73.2935 109.781 73.2881 109.773 73.2826L109.769 73.2797L109.759 73.2724L109.749 73.2651L109.746 73.2632C109.737 73.2569 109.729 73.2515 109.721 73.2462L109.72 73.2449L109.707 73.2367L109.696 73.2287L109.692 73.2263C109.684 73.221 109.676 73.2158 109.669 73.2105L109.663 73.2071L109.655 73.2017L109.642 73.1928L109.639 73.1911C109.631 73.186 109.623 73.1808 109.615 73.1758L109.61 73.1723L109.603 73.1677L109.587 73.1576C109.577 73.1518 109.569 73.1468 109.561 73.1418L109.558 73.1401L109.556 73.1384C109.548 73.1335 109.539 73.1284 109.531 73.1235L109.514 73.1129L109.507 73.1087L109.504 73.107L109.501 73.1055C109.493 73.1007 109.485 73.0958 109.476 73.0911L109.459 73.0812L109.451 73.0766L109.448 73.0748C109.437 73.0687 109.429 73.0642 109.421 73.0596L109.404 73.0504L109.395 73.0452L109.392 73.0435L109.39 73.0424C109.382 73.0378 109.373 73.0334 109.365 73.0289L109.364 73.0282L109.361 73.0265L109.349 73.0204L109.338 73.0147L109.335 73.0131L109.333 73.0122C109.325 73.0079 109.317 73.0035 109.308 72.9992L109.303 72.9967L109.293 72.9913L109.281 72.9851L109.277 72.983C109.268 72.9788 109.26 72.9745 109.251 72.9704L109.249 72.9693L109.246 72.9678L109.237 72.9632L109.222 72.9564L109.219 72.9549C109.211 72.9507 109.202 72.9466 109.193 72.9425L109.191 72.9413L109.188 72.9398L109.18 72.936L109.163 72.9283L109.161 72.9276C109.153 72.9235 109.144 72.9195 109.135 72.9156L109.132 72.9144L109.129 72.9129C109.112 72.9051 109.094 72.8973 109.076 72.8896L109.073 72.8883L109.07 72.8871C109.061 72.8833 109.052 72.8795 109.044 72.8758L109.025 72.868L109.017 72.8646L109.013 72.8633C109.002 72.8586 108.993 72.855 108.984 72.8514L108.966 72.8443L108.956 72.8405L108.953 72.8391L108.951 72.8383C108.942 72.8349 108.933 72.8315 108.924 72.828L108.92 72.8264L108.907 72.8215L108.896 72.8174L108.892 72.8161C108.881 72.8122 108.872 72.8088 108.863 72.8056L108.862 72.805L108.847 72.7997L108.834 72.7952L108.83 72.7937C108.821 72.7905 108.811 72.7873 108.802 72.7842L108.8 72.7835L108.797 72.7824L108.787 72.7789L108.772 72.774L108.768 72.7729C108.759 72.7699 108.75 72.7668 108.741 72.7638L108.735 72.762L108.726 72.7591L108.709 72.7537C108.697 72.7502 108.688 72.7474 108.679 72.7445L108.673 72.7427C108.654 72.7371 108.635 72.7315 108.616 72.7262L108.613 72.7253C108.601 72.7218 108.591 72.7192 108.581 72.7166L108.562 72.7112L108.553 72.7089L108.55 72.7081L108.547 72.7074C108.537 72.7048 108.528 72.7024 108.518 72.6999L108.499 72.6952L108.489 72.6926L108.486 72.6918L108.484 72.6913C108.474 72.6889 108.464 72.6867 108.455 72.6843L108.454 72.6841L108.436 72.6801L108.425 72.6775L108.422 72.6767C108.41 72.6742 108.401 72.672 108.391 72.6699L108.386 72.6689L108.373 72.6661L108.36 72.6633L108.357 72.6627C108.346 72.6604 108.336 72.6584 108.327 72.6565L108.325 72.6561L108.321 72.6555L108.31 72.6531L108.295 72.6503L108.291 72.6496C108.281 72.6478 108.271 72.646 108.262 72.6442L108.259 72.6438L108.256 72.6432L108.246 72.6413L108.228 72.6383C108.216 72.6363 108.206 72.6346 108.196 72.6331L108.194 72.6326L108.19 72.632L108.181 72.6305L108.161 72.6274C108.151 72.6259 108.141 72.6244 108.131 72.623L108.128 72.6225C108.105 72.6192 108.085 72.6165 108.065 72.614L108.061 72.6136C108.049 72.612 108.039 72.6107 108.029 72.6095L108.008 72.6072L107.998 72.6062L107.995 72.6058C107.982 72.6045 107.972 72.6034 107.962 72.6025L107.958 72.6021L107.943 72.6005L107.931 72.5995L107.928 72.5991L107.925 72.5989C107.915 72.5981 107.905 72.5972 107.895 72.5964L107.894 72.5963L107.891 72.596L107.877 72.595L107.864 72.594L107.858 72.5936C107.848 72.5929 107.838 72.5923 107.828 72.5916L107.823 72.5913L107.81 72.5904L107.796 72.5896L107.792 72.5895C107.781 72.5889 107.771 72.5884 107.761 72.5879L107.758 72.5878L107.755 72.5876L107.744 72.5872L107.727 72.5866L107.723 72.5864C107.713 72.5861 107.703 72.5857 107.693 72.5855L107.69 72.5854L107.686 72.5853L107.677 72.5851L107.658 72.5847C107.645 72.5844 107.635 72.5843 107.625 72.5842H107.622H107.618C107.608 72.584 107.598 72.584 107.587 72.584Z" fill="#CEDEE7"/>
<path d="M114.242 76.7693L114.401 76.7637L114.263 72.8303L114.105 72.8358L114.242 76.7693Z" fill="#444444"/>
<path fill-rule="evenodd" clip-rule="evenodd" d="M114.314 76.6428L114.314 76.6417L114.316 76.6427L114.319 76.6416L114.319 76.6426C114.692 76.6467 114.716 78.5675 114.716 78.5675L114.052 78.5907C114.052 78.5907 113.941 76.6729 114.314 76.6428L117.685 78.8054Z" fill="#444444"/>
<path fill-rule="evenodd" clip-rule="evenodd" d="M104.371 73.1547L100.412 71.7118L107.508 68.2845L116.889 72.7175L112.551 74.5067L104.371 73.1547Z" fill="#34466B"/>
<path fill-rule="evenodd" clip-rule="evenodd" d="M104.439 73.9413C104.439 73.9413 108.022 73.409 112.307 75.1972L112.781 73.8399C112.781 73.8399 107.965 72.2198 104.301 72.7913L104.439 73.9413Z" fill="#34466B"/>
<path fill-rule="evenodd" clip-rule="evenodd" d="M115.633 107.031C101.173 109.445 90.9234 108.49 86.1252 105.801L91.0078 125.832C91.0078 125.832 94.2289 136.335 114.1 133.828C133.972 131.322 133.079 124 133.079 124L133.328 99.9466C130.452 102.78 124.484 105.554 115.633 107.031Z" fill="#F6C854"/>
<path fill-rule="evenodd" clip-rule="evenodd" d="M51.3149 113.432C50.6772 108.252 46.2626 104.242 40.912 104.242C35.1233 104.242 30.4303 108.936 30.4303 114.727C30.4303 115.677 30.5566 116.597 30.7935 117.473C30.7045 117.474 30.6162 117.477 30.5285 117.482L30.4298 117.474V117.489C27.4276 117.714 25.0611 120.223 25.0611 123.284C25.0611 126.345 27.4276 128.854 30.4298 129.079V129.097H68.5923V129.096H68.5924C70.9316 129.096 72.8281 127.199 72.8281 124.858C72.8281 122.518 70.9316 120.621 68.5924 120.621H68.5923V120.621L58.9237 119.824C58.9678 119.535 58.9907 119.239 58.9907 118.938C58.9907 115.728 56.3896 113.126 53.1809 113.126C52.5281 113.126 51.9006 113.234 51.3149 113.432Z" fill="#DEEDF2"/>
<path fill-rule="evenodd" clip-rule="evenodd" d="M36.1704 118.092C35.5327 112.913 31.118 108.902 25.7674 108.902C19.9787 108.902 15.2858 113.596 15.2858 119.387C15.2858 120.337 15.412 121.258 15.6489 122.133C15.56 122.134 15.4717 122.137 15.384 122.142L15.2853 122.134V122.149C12.2831 122.374 9.9166 124.883 9.9166 127.944C9.9166 131.005 12.2831 133.514 15.2853 133.739V133.757H53.4478V133.756H53.4479C55.7871 133.756 57.6836 131.859 57.6836 129.519C57.6836 127.179 55.7871 125.281 53.4479 125.281H53.4478V125.281L43.7791 124.484C43.8233 124.195 43.8462 123.899 43.8462 123.598C43.8462 120.388 41.2451 117.786 38.0363 117.786C37.3836 117.786 36.756 117.894 36.1704 118.092Z" fill="#DEEDF2"/>
<path fill-rule="evenodd" clip-rule="evenodd" d="M58.6718 121.158C59.3998 115.99 63.8838 112.058 69.2336 112.151C75.0214 112.252 79.6317 117.028 79.5306 122.817C79.514 123.767 79.3717 124.685 79.1196 125.556C79.2086 125.559 79.2967 125.564 79.3844 125.57L79.4832 125.564L79.4829 125.579C82.4807 125.857 84.8031 128.406 84.7497 131.467C84.6962 134.527 82.2863 136.994 79.2806 137.167L79.2803 137.185L41.1237 136.519L41.1237 136.518L41.1236 136.518C38.7847 136.477 36.9216 134.547 36.9625 132.207C37.0033 129.868 38.9326 128.004 41.2715 128.045L41.2716 128.045L41.2716 128.045L50.9527 127.416C50.9136 127.126 50.8958 126.83 50.9011 126.529C50.9571 123.32 53.6032 120.764 56.8115 120.82C57.4641 120.831 58.0897 120.95 58.6718 121.158Z" fill="#DEEDF2"/>
<path fill-rule="evenodd" clip-rule="evenodd" d="M129.208 92.319C131.908 93.1808 133.111 94.3973 131.965 95.9073C128.207 100.86 112.576 103.582 106.468 103.796C100.36 104.009 86.3316 105.37 85.7386 99.5131C85.7386 99.5131 85.3159 98.1064 87.478 96.4039C87.4769 96.404 87.472 96.4052 87.472 96.4052C87.472 96.4052 83.1009 97.6462 83.7191 102.849C84.338 108.052 96.1069 111.141 115.782 107.824C135.324 104.53 140.638 94.732 129.208 92.319L84.8861 102.718Z" fill="#D39E00"/>
<path fill-rule="evenodd" clip-rule="evenodd" d="M28.5423 89.0913C28.5423 89.0913 30.6087 93.3541 30.9544 94.3836C31.2828 95.3619 32.6639 97.9745 32.9479 98.488C33.2988 99.1242 36.683 104.008 37.324 104.008C37.7245 104.008 38.8424 103.596 39.7466 103.232C40.293 103.011 40.762 102.807 40.9462 102.722C41.4369 102.496 44.1097 101.773 45.04 101.869C45.04 101.869 45.2615 101.9 45.5976 101.933C46.3664 102.008 47.7362 102.097 48.4363 101.869C49.443 101.541 49.9711 100.735 50.5748 100.08C51.1785 99.4245 53.1659 97.1225 53.3162 96.6438C53.4673 96.1643 53.5742 91.9111 53.6306 90.7109C53.6888 89.4934 53.6532 88.1714 53.628 88.0199C53.6028 87.8694 57.7331 87.8789 57.6828 88.3071C57.6324 88.7353 57.1486 92.2688 56.9905 93.9633C56.8498 95.4646 56.4858 96.9798 56.2096 97.6595C55.9325 98.3401 52.9896 102.776 52.6369 103.583C52.2852 104.39 50.8484 106.457 50.7242 106.759C50.6 107.061 50.1909 110.435 49.8139 111.417C49.4361 112.401 49.7948 119.109 49.946 120.193C50.0962 121.277 50.5357 122.295 50.5357 122.295C50.5357 122.295 44.557 123.595 38.6452 124.048C38.6452 124.048 39.0309 121.207 38.9553 120.123C38.8797 119.04 37.569 112.254 37.0157 111.195C36.4624 110.136 31.3809 102.676 31.1794 102.373C30.9787 102.071 29.3327 100.04 28.9722 99.2643C28.9722 99.2643 24.4033 91.0982 24.2852 90.4925L28.5423 89.0913Z" fill="#34466B"/>
<path fill-rule="evenodd" clip-rule="evenodd" d="M59.3706 127.317C58.7669 127.746 58.2423 127.942 57.3298 128.285C55.256 128.83 42.2474 132.712 42.2474 132.712C42.2126 132.58 42.1944 132.465 42.1178 132.317C41.6324 132.51 41.1322 132.635 40.8147 132.735C40.331 132.886 38.0606 130.283 38.6356 130.222C39.2106 130.162 39.9674 129.95 40.331 130.071C40.4459 130.109 40.953 129.96 41.5933 129.74C41.5776 129.504 41.5733 129.355 41.5733 129.355L44.9894 128.37L44.357 122.322C44.357 122.322 44.5067 116.229 50.1105 119.97C50.2417 120.058 50.7514 120.164 50.8872 120.262C50.8872 120.262 53.1047 121.384 53.5588 121.505C53.591 121.514 53.6423 121.515 53.711 121.509C54.6166 121.441 58.5085 120.264 59.9152 120.264C61.4288 120.264 61.9133 120.173 62.4579 120.445C63.0025 120.718 64.1229 122.837 64.0324 123.473C63.9757 123.867 63.3337 125.594 62.5377 126.184C61.7416 126.774 59.6554 127.114 59.3706 127.317Z" fill="#CEDEE7"/>
<path fill-rule="evenodd" clip-rule="evenodd" d="M49.8392 132.735C49.3547 132.583 48.4465 132.372 47.8115 131.948C47.7601 131.914 47.6427 131.863 47.4713 131.799L47.4705 131.8L46.5092 132.493L33.1432 128.238C32.3428 128.019 31.7069 127.685 31.2842 127.317C30.5874 126.712 26.7128 124.108 26.6224 123.473C26.5319 122.837 27.6515 120.718 28.196 120.446C28.7414 120.173 29.2251 120.264 30.7387 120.264C32.2524 120.264 36.6419 121.626 37.096 121.505C37.3022 121.45 37.7293 121.232 38.1347 121.011C38.6201 120.746 39.0733 120.476 39.0733 120.476C45.5741 117.574 46.2978 122.322 46.2978 122.322L45.9125 128.184C45.9125 128.184 46.4544 128.453 47.159 128.788L50.382 129.699C50.3432 131.824 50.1622 132.836 49.8392 132.735Z" fill="#CEDEE7"/>
<path d="M44.8066 131.951L52.0355 129.812L50.6054 129.375C50.6054 129.375 44.8293 131.469 44.8066 131.951Z" fill="#767676"/>
<path fill-rule="evenodd" clip-rule="evenodd" d="M44.8066 131.951L48.1897 130.919L45.8436 132.281L44.8066 131.951Z" fill="#444444"/>
<path fill-rule="evenodd" clip-rule="evenodd" d="M28.9352 87.5742C28.9881 87.3717 28.7982 86.8198 28.5251 86.2046C28.252 85.5894 27.6095 84.8816 27.4951 84.8625C27.3815 84.8434 25.1308 86.0696 25.0605 86.3733C25.0605 86.3733 25.2504 86.9271 25.2617 87.1526C25.273 87.3778 25.9414 88.7613 26.5596 89.7694C26.5596 89.7694 27.2697 90.2651 28.493 89.0903C28.493 89.0903 28.8823 87.7767 28.9352 87.5742Z" fill="#F4A48D"/>
<path fill-rule="evenodd" clip-rule="evenodd" d="M53.0718 86.8287C52.9752 86.638 53.0333 86.0377 53.1572 85.3547C53.2811 84.6716 53.7391 83.8074 53.8442 83.7611C53.9137 83.7302 54.2364 83.7986 54.8123 83.9663C55.4736 84.0503 55.8766 84.2181 56.0213 84.4698C56.3141 85.0236 56.4739 85.3769 56.5006 85.5296C56.5399 85.7587 56.2101 87.3075 55.8427 88.4679C55.8427 88.4679 55.2737 89.1354 53.8357 88.2462C53.8357 88.2462 53.1683 87.0194 53.0718 86.8287Z" fill="#F4A48D"/>
<path fill-rule="evenodd" clip-rule="evenodd" d="M46.6316 131.644C47.3596 126.476 51.8436 122.544 57.1934 122.637C62.9812 122.738 67.5915 127.513 67.4904 133.303C67.4738 134.253 67.3316 135.171 67.0794 136.042C67.1684 136.045 67.2566 136.049 67.3442 136.056L67.443 136.05L67.4427 136.064C70.4406 136.342 41.563 131.249 44.7713 131.305C45.4239 131.317 46.0495 131.435 46.6316 131.644Z" fill="#DEEDF2"/>
<path fill-rule="evenodd" clip-rule="evenodd" d="M40.7098 99.1717C39.3693 98.6157 38.4141 97.1827 38.4141 95.5043C38.4141 93.3439 39.997 91.5898 41.9468 91.5898C43.4896 91.5898 44.8027 92.6882 45.2836 94.217L45.2896 94.2186L46.2124 97.269L46.1276 97.3055L46.0833 97.3246L45.5378 97.4425L45.5354 99.0446L45.5088 99.1418C45.4656 99.2764 45.406 99.4069 45.3298 99.5296C45.2409 99.6731 45.1309 99.8042 45.0062 99.9172C44.9411 99.9766 44.8714 100.03 44.7978 100.079C44.7587 100.105 44.7198 100.129 44.6797 100.151C44.6485 100.169 44.617 100.186 44.5847 100.201L44.4862 100.25L45.0619 102.689C45.0619 102.689 43.1894 104.166 42.4438 104.012L42.3443 103.99L42.3422 103.989C41.6306 103.836 40.9239 103.594 40.3265 102.858C40.3265 102.858 40.3282 102.85 40.3313 102.834L40.3265 102.828C40.3265 102.828 40.3825 102.561 40.4523 102.124C40.5588 101.427 40.6965 100.318 40.7098 99.1717Z" fill="#F4A48D"/>
<path fill-rule="evenodd" clip-rule="evenodd" d="M44.5403 101.049C44.0866 100.912 43.1292 100.373 42.4102 99.4965L44.4623 100.23C44.4623 100.23 44.5016 100.649 44.5403 101.049ZM45.6307 97.409C45.4455 97.4708 45.2557 97.3306 45.2607 97.1357L45.293 95.8789L45.6307 97.409Z" fill="#A66555"/>
<path fill-rule="evenodd" clip-rule="evenodd" d="M20.2065 136.864C17.0997 136.864 20.0779 134.447 20.1314 131.387C20.1848 128.326 22.5947 125.859 25.6004 125.686L25.6007 125.669L63.7573 126.335C66.0963 126.376 67.9594 128.306 67.9186 130.646C67.8913 132.206 71.34 134.149 78.2647 136.475L54.7696 136.475C54.7956 136.668 43.2746 136.798 20.2065 136.864Z" fill="#DEEDF2"/>
<path fill-rule="evenodd" clip-rule="evenodd" d="M40.9099 99.2987L40.3619 98.9949C39.7059 98.6141 39.1502 98.0464 38.7862 97.3223C37.7893 95.3386 38.6065 92.9308 40.6114 91.9442C42.4163 91.0561 44.5703 91.6233 45.7076 93.1951L45.257 93.557C45.1546 93.5275 44.9853 93.4802 44.7778 93.4271C44.0325 93.2325 42.7964 92.9574 42.4095 93.1443C41.8429 93.4183 41.8693 94.45 41.9553 95.2685C42.0394 96.069 42.1154 96.4167 41.7491 96.5739C41.6147 96.6315 41.5317 95.9554 41.2236 95.7522C40.8982 95.5375 40.4826 95.7561 40.5435 96.4912C40.6442 96.8252 40.7217 97.1545 40.7798 97.476C40.8772 98.0511 40.9128 98.6783 40.9099 99.2987Z" fill="#CEDEE7"/>
<path fill-rule="evenodd" clip-rule="evenodd" d="M38.3276 93.9096L34.3809 92.8544L41.5245 87.9316L48.1105 90.3413L45.0328 92.4995L38.3276 93.9096Z" fill="#34466B"/>
<path fill-rule="evenodd" clip-rule="evenodd" d="M38.4539 94.2531C38.4539 94.2531 42.1702 92.7221 45.0904 92.8656L44.9678 92.0714C44.9678 92.0714 41.9266 91.8139 38.1738 93.4859L38.4539 94.2531Z" fill="#34466B"/>
<path d="M37.3047 97.2568H37.4821V92.856H37.3047V97.2568Z" fill="#444444"/>
<path d="M37.3962 97.1181V97.1172L37.3927 97.1181L37.3901 97.1172V97.1181C36.9726 97.1381 37.0213 99.285 37.0213 99.285H37.765C37.765 99.285 37.8129 97.1381 37.3962 97.1181Z" fill="#444444"/>
<path fill-rule="evenodd" clip-rule="evenodd" d="M43.745 104.081C45.7061 103.472 45.1958 102.021 45.1958 102.021C45.1958 102.021 43.7884 101.432 40.207 102.998C41.2577 104.126 42.437 104.487 43.745 104.081Z" fill="#EAF7FE"/>
<path fill-rule="evenodd" clip-rule="evenodd" d="M42.5368 103.138L42.0152 104.631L39.8184 102.992L40.0031 102.301C40.0031 102.301 41.8112 102.848 42.5368 103.138Z" fill="#CEDEE7"/>
<path fill-rule="evenodd" clip-rule="evenodd" d="M45.1578 101.524L45.6432 101.94L45.352 104.242L44.0898 103.164C44.0898 103.164 44.8514 102.225 45.1578 101.524Z" fill="#CEDEE7"/>
<path fill-rule="evenodd" clip-rule="evenodd" d="M53.7995 121.593C53.7995 121.593 48.5473 123.05 47.5859 123.66C47.6297 123.624 50.3535 121.257 51.7841 120.941C51.7841 120.941 53.1893 121.449 53.6463 121.588C53.6787 121.598 53.7304 121.599 53.7995 121.593Z" fill="#CEDEE7"/>
<path d="M39.7172 122.554C39.7483 122.624 39.7405 122.678 39.6978 122.713C39.4259 122.915 39.4686 122.829 39.7172 122.554Z" fill="#2A8FEC"/>
<path d="M42.5368 123.66C42.519 123.641 42.3814 123.505 42.1484 123.271C42.3016 123.407 42.4325 123.539 42.5368 123.66Z" fill="#767676"/>
<path fill-rule="evenodd" clip-rule="evenodd" d="M38.2114 123.364L37.0996 117.003L51.4685 116.669L50.5434 122.928C50.5434 122.928 45.9565 124.617 44.4004 125.601C44.4004 125.601 40.4662 123.976 38.2114 123.364Z" fill="#EAF7FE"/>
<path fill-rule="evenodd" clip-rule="evenodd" d="M27.5827 120.873C26.9177 115.472 22.3144 111.291 16.7351 111.291C10.699 111.291 5.80554 116.185 5.80554 122.223C5.80554 123.214 5.93717 124.174 6.1842 125.086C6.0914 125.088 5.99939 125.091 5.90791 125.096L5.80501 125.088V125.103C2.67448 125.338 0.206856 127.954 0.206856 131.146C0.206856 134.338 2.67448 136.954 5.80501 137.189V137.207C38.1132 136.937 56.157 136.802 59.9365 136.802C65.6058 136.802 50.0153 135.228 50.0153 132.788C50.0153 130.348 48.0378 128.37 45.5986 128.37L35.5166 127.538C35.5627 127.237 35.5866 126.928 35.5866 126.614C35.5866 123.267 32.8743 120.554 29.5284 120.554C28.8478 120.554 28.1934 120.666 27.5827 120.873Z" fill="#DEEDF2"/>
<path fill-rule="evenodd" clip-rule="evenodd" d="M24.6663 40.8437C25.1381 36.9589 28.4042 33.9512 32.3628 33.9512C36.6455 33.9512 40.1175 37.4717 40.1175 41.8147C40.1175 42.5273 40.0241 43.2176 39.8488 43.8739C39.9146 43.8748 39.9799 43.8772 40.0448 43.881L40.1178 43.8749V43.8859C42.339 44.0552 44.0898 45.9366 44.0898 48.2324C44.0898 50.5283 42.339 52.4097 40.1178 52.5789V52.5919H11.8838V52.5915H11.8837C10.1531 52.5915 8.75 51.1685 8.75 49.4134C8.75 47.6583 10.1531 46.2355 11.8837 46.2355H11.8838V46.2354L19.037 45.6373C19.0044 45.4207 18.9874 45.1988 18.9874 44.9729C18.9874 42.5656 20.9118 40.614 23.2858 40.614C23.7687 40.614 24.233 40.6948 24.6663 40.8437Z" fill="#EAF7FE"/>
<path fill-rule="evenodd" clip-rule="evenodd" d="M94.9573 141.814C95.4291 137.93 98.6952 134.922 102.654 134.922C106.936 134.922 110.408 138.442 110.408 142.785C110.408 143.498 110.315 144.188 110.14 144.845C110.206 144.846 110.271 144.848 110.336 144.852L110.409 144.846V144.857C112.63 145.026 114.381 146.907 114.381 149.203C114.381 151.499 112.63 153.38 110.409 153.55V153.563H82.1748V153.562H82.1747C80.4441 153.562 79.041 152.139 79.041 150.384C79.041 148.629 80.4441 147.206 82.1747 147.206H82.1748V147.206L89.3281 146.608C89.2954 146.391 89.2784 146.17 89.2784 145.944C89.2784 143.536 91.2028 141.585 93.5768 141.585C94.0597 141.585 94.524 141.665 94.9573 141.814Z" fill="#EAF7FE"/>
</svg>
