<svg width="160" height="161" viewBox="0 0 160 161" fill="none" xmlns="http://www.w3.org/2000/svg">
<g clip-path="url(#clip0_1483_32363)">
<path fill-rule="evenodd" clip-rule="evenodd" d="M68.0705 64.8508C68.0275 64.8191 77.7867 54.5526 78.2317 49.2193C77.1303 48.6034 76.0945 47.8319 75.1569 46.9046C69.5556 41.3649 69.5728 32.3528 75.1953 26.792C80.8177 21.2313 89.93 21.2144 95.5313 26.7541C97.8058 29.0034 99.1539 31.8257 99.5764 34.757L99.5792 34.7581L102.369 44.1816L99.8264 44.7251L99.8155 51.9281C99.8127 53.8052 98.6216 55.4839 96.8362 56.1274L92.8114 57.5779L92.8101 57.5784L92.8103 57.5785C92.8103 57.5785 92.5984 58.1912 92.2247 59.173L87.1403 71.43L87.1316 71.4296C85.5606 73.4782 82.4725 75.2015 79.5615 75.2015C72.7897 75.2015 68.9077 70.2084 68.0705 64.8508Z" fill="#FFC4B8"/>
</g>
<g clip-path="url(#clip1_1483_32363)">
<path fill-rule="evenodd" clip-rule="evenodd" d="M91.7906 60.4257C89.9464 59.8272 87.2755 58.3403 84.4082 54.6947L92.7395 57.8667C92.7395 57.8667 92.3877 58.8951 91.7906 60.4257ZM99.7355 44.9075C98.9731 45.145 98.2087 44.5557 98.2455 43.7588L98.4824 38.6218L99.7355 44.9075Z" fill="#F4A48D"/>
</g>
<g clip-path="url(#clip2_1483_32363)">
<path fill-rule="evenodd" clip-rule="evenodd" d="M73.9247 46.0503C73.0655 44.2626 70.7201 40.9754 70.3711 38.0813C69.5933 31.6326 73.9587 27.2136 75.8951 25.8719C76.5271 25.4116 77.303 24.9853 78.3646 24.5272C80.6146 21.4404 85.6302 21.0665 84.594 21.55C97.5201 19.9589 101.594 31.6973 105.279 30.9684C102.275 35.5379 98.8858 34.9163 94.4786 33.7353C92.6245 35.5632 91.7406 37.9198 91.6254 40.1817C91.6439 40.9102 91.7203 42.5238 92.0267 43.9601C92.4388 45.884 91.0023 46.6375 90.3678 46.4301C89.7317 46.2247 89.9155 46.4443 88.6548 44.9068C87.6841 43.7227 87.3942 42.8168 86.7858 41.9517C85.6386 40.6715 84.2563 39.5714 83.0265 39.8782C81.399 40.2886 81.8013 43.2506 82.777 45.3892C83.3 46.5326 83.2112 47.6728 82.8565 48.3765C82.0747 49.9302 80.6505 48.9988 78.9507 50.4152C77.5642 51.571 76.6573 53.55 75.9777 54.375C75.4057 50.1819 75.2117 48.7251 73.9247 46.0503Z" fill="#1BB3BC"/>
</g>
<path fill-rule="evenodd" clip-rule="evenodd" d="M52.2857 138.223L49.7232 112.737L43.4042 117.256C43.0984 117.474 42.7856 117.674 42.4659 117.855C37.8812 120.446 31.9826 119.169 28.9084 114.743C27.6784 112.973 27.0586 110.905 27.0586 108.831C27.0586 107.044 27.5193 105.253 28.4491 103.644L37.1111 88.6672C42.8166 78.8025 50.7983 70.4493 60.3886 64.3065L61.2655 63.7442C63.6722 62.2024 66.2662 61.003 68.9707 60.1698C71.9666 59.243 75.0981 58.7664 78.2657 58.7664C78.7236 58.7664 79.1812 58.7763 79.6379 58.7963C80.0946 58.7763 80.5518 58.7664 81.0098 58.7664C84.1773 58.7664 87.3092 59.243 90.3051 60.1698C93.0093 61.003 95.6034 62.2024 98.0101 63.7442L98.887 64.3065C108.477 70.4493 116.459 78.8025 122.165 88.6672L130.826 103.644C131.756 105.253 132.217 107.044 132.217 108.831C132.217 110.905 131.597 112.973 130.367 114.743C127.293 119.169 121.395 120.446 116.81 117.855C116.49 117.674 116.177 117.474 115.871 117.256L109.553 112.737L106.99 138.223H52.2857Z" fill="#767676"/>
<path fill-rule="evenodd" clip-rule="evenodd" d="M42.2852 117.855C42.6049 117.675 42.9176 117.475 43.2234 117.257L49.5015 112.767L47.85 96.6245L42.2852 117.855ZM116.81 117.855C116.49 117.675 116.178 117.475 115.872 117.257L109.594 112.767L111.245 96.6245L116.81 117.855Z" fill="black"/>
<path fill-rule="evenodd" clip-rule="evenodd" d="M52.2857 138.223L49.7232 112.737L43.4042 117.256C43.0984 117.474 42.7856 117.674 42.4659 117.855C37.8812 120.446 31.9826 119.169 28.9084 114.743C27.6784 112.973 27.0586 110.905 27.0586 108.831C27.0586 107.044 27.5193 105.253 28.4491 103.644L37.1111 88.6672C42.8166 78.8025 50.7983 70.4493 60.3886 64.3065L61.2655 63.7442C63.6722 62.2024 66.2662 61.003 68.9707 60.1698C71.9666 59.243 75.0981 58.7664 78.2657 58.7664C78.7236 58.7664 79.1812 58.7763 79.6379 58.7963C80.0946 58.7763 80.5518 58.7664 81.0098 58.7664C84.1773 58.7664 87.3092 59.243 90.3051 60.1698C93.0093 61.003 95.6034 62.2024 98.0101 63.7442L98.887 64.3065C108.477 70.4493 116.459 78.8025 122.165 88.6672L130.826 103.644C131.756 105.253 132.217 107.044 132.217 108.831C132.217 110.905 131.597 112.973 130.367 114.743C127.293 119.169 121.395 120.446 116.81 117.855C116.49 117.674 116.177 117.474 115.871 117.256L109.553 112.737L106.99 138.223H52.2857Z" fill="#767676"/>
<path fill-rule="evenodd" clip-rule="evenodd" d="M42.2852 117.855C42.6049 117.675 42.9176 117.475 43.2234 117.257L49.5015 112.767L47.85 96.6245L42.2852 117.855ZM116.81 117.855C116.49 117.675 116.178 117.475 115.872 117.257L109.594 112.767L111.245 96.6245L116.81 117.855Z" fill="black"/>
<path fill-rule="evenodd" clip-rule="evenodd" d="M55.9461 73.145H59.4227C70.3668 73.145 79.2389 82.017 79.2389 92.961V136.326L109.998 106.597L109.493 113.46L75.2209 150.634C72.1783 154.165 67.6738 156.4 62.6474 156.4H62.6473C55.1525 156.4 48.3839 153.291 43.5611 148.292H39.0887C34.2839 148.292 30.3887 144.397 30.3887 139.592V107.016C30.3887 103.25 32.7816 100.043 36.1298 98.8322V92.961C36.1298 82.017 45.0019 73.145 55.9461 73.145Z" fill="#CEDEE7"/>
<path fill-rule="evenodd" clip-rule="evenodd" d="M80.1548 76.4183C85.1634 70.878 91.4667 66.6877 98.4861 64.209L97.5955 63.6388C95.1508 62.0748 92.516 60.8581 89.7693 60.0129C85.2087 62.4421 81.0993 65.6412 77.6222 69.4756L68.2176 79.8458L74.1707 83.035L80.1548 76.4183ZM63.9644 77.9437C63.9644 77.9437 62.2485 66.0113 66.2433 61.7155L60.7766 63.8142C59.7626 64.2041 58.8183 64.7118 57.9575 65.3187L55.9453 73.145C55.9453 73.145 63.9644 79.8709 63.9644 77.9437Z" fill="#9BC3D3"/>
<path fill-rule="evenodd" clip-rule="evenodd" d="M55.9473 73.1456C55.9473 73.1456 63.9663 79.8714 63.9663 77.9442C63.9663 77.9442 63.3368 73.5667 63.7281 69.1594C61.1445 69.0955 58.6231 69.6401 56.6988 70.2215L55.9473 73.1456ZM80.1563 76.4184C80.8157 75.6895 81.4963 74.9833 82.1997 74.3026C79.7791 72.6378 77.0748 72.3656 74.8116 72.5769L68.2191 79.8458L74.1721 83.035L80.1563 76.4184Z" fill="#CEDEE7"/>
<path fill-rule="evenodd" clip-rule="evenodd" d="M79.2394 92.961V117.443C74.8307 120.552 71.07 121.821 68.3345 122.299V92.961C68.3345 83.2855 61.4016 75.231 52.2324 73.4925C53.435 73.2642 54.6772 73.145 55.9464 73.145H59.4235C70.368 73.145 79.2394 82.0163 79.2394 92.961Z" fill="#9BC3D3"/>
<path fill-rule="evenodd" clip-rule="evenodd" d="M89.525 35.3752C83.1066 36.0606 75.6784 38.0999 70.3538 35.2862C69.9888 29.5236 73.8616 21.8595 80.2822 19.5406C88.2139 16.6785 98.1273 18.7214 101.134 25.6801C101.681 26.9456 101.997 28.2443 102.1 29.5394L108.166 31.1829C109.589 31.568 109.747 33.5202 108.405 34.1297C108.405 34.1297 105.208 35.8342 103.486 36.3613C100.772 37.1925 95.0233 37.1149 90.4799 35.8942L89.525 35.3752Z" fill="#2A8FEC"/>
<defs>
<clipPath id="clip0_1483_32363">
<rect width="34.2022" height="53.0249" fill="white" transform="translate(68.0703 22.6104)"/>
</clipPath>
<clipPath id="clip1_1483_32363">
<rect width="15.3273" height="21.8038" fill="white" transform="translate(84.4082 38.6218)"/>
</clipPath>
<clipPath id="clip2_1483_32363">
<rect width="35.3247" height="32.8312" fill="white" transform="translate(70.2793 21.375)"/>
</clipPath>
</defs>
</svg>
