<svg width="160" height="160" viewBox="0 0 160 160" fill="none" xmlns="http://www.w3.org/2000/svg">
<path d="M160 82.8207H127.549L114.783 104.931L97.9779 134.033H0L27.3652 86.6359C31.5605 79.3701 37.5943 73.3366 44.8602 69.1417C52.1261 64.9468 60.368 62.7382 68.758 62.738H100.263C101.756 62.7389 103.223 62.3462 104.517 61.5997C105.81 60.8532 106.884 59.7791 107.63 58.4856C111.825 51.2197 117.859 45.1861 125.125 40.9911C132.391 36.7962 140.633 34.5878 149.023 34.5879H160L160 82.8207Z" fill="#EAF7FE"/>
<path d="M65.6109 110.108H48.3867V33.9517H65.6109V110.108Z" fill="#9BC3D3"/>
<path d="M62.3013 110.108H48.3867V33.9517H62.3013V110.108Z" fill="#DEEDF2"/>
<path d="M98.2585 110.108H81.7109V67.2061H98.2585V110.108Z" fill="#CEDEE7"/>
<path d="M98.1551 67.2061L84.7578 110.108H98.1551V67.2061Z" fill="#9BC3D3"/>
<path d="M62.2989 47.4014L48.3867 33.9521H65.6118L62.2989 47.4014Z" fill="#CEDEE7"/>
<path d="M95.8089 71.8032H87.5352V75.4809H95.8089V71.8032Z" fill="white"/>
<path d="M92.4339 76.7061H84.1602V80.3835H92.4339V76.7061Z" fill="white"/>
<path d="M86.9182 71.8032H84.1602V75.4809H86.9182V71.8032Z" fill="white"/>
<path d="M26.6746 51.426C26.7257 49.6462 27.4685 47.9565 28.7454 46.7157C30.0223 45.4749 31.7327 44.7808 33.5131 44.7808C35.2936 44.7808 37.0039 45.4749 38.2808 46.7157C39.5577 47.9565 40.3006 49.6462 40.3516 51.426H42.7152V110.109H24.3125V51.426H26.6746Z" fill="#DEEDF2"/>
<path d="M42.7752 52.6123L31.0508 110.108H42.7752V52.6123Z" fill="#9BC3D3"/>
<path d="M31.3809 54.6052C31.327 54.1308 31.4255 53.6516 31.662 53.2369L31.99 52.6746L33.2927 50.4221C33.4116 50.2094 33.4989 49.9806 33.5518 49.7427L33.6193 49.8594C33.8122 50.2032 33.9135 50.5909 33.9135 50.9851C33.9135 51.3794 33.8122 51.767 33.6193 52.1109L32.2712 54.4468C32.0955 54.7828 32.0075 55.1576 32.0153 55.5366C32.0231 55.9156 32.1264 56.2865 32.3157 56.6149L32.3832 56.7326C32.4315 56.4933 32.5189 56.2636 32.6418 56.0526L32.5195 56.2635L33.6212 54.3634L34.6202 52.6249L34.5864 52.6755C34.7102 52.4647 34.7977 52.2346 34.8451 51.9947L34.9121 52.1128C35.1106 52.4543 35.2152 52.8424 35.2152 53.2374C35.2152 53.6324 35.1106 54.0205 34.9121 54.362L34.8681 54.436L33.9459 56.0513L33.6212 56.6135C33.4224 56.955 33.3177 57.343 33.3177 57.7381C33.3177 58.1332 33.4224 58.5213 33.6212 58.8628L33.6872 58.9808C33.7355 58.7408 33.8236 58.5105 33.9478 58.2995L33.8231 58.5104L35.5639 55.4843C35.7221 55.2133 35.8222 54.9123 35.8577 54.6005C37.7901 55.0372 39.1378 56.0245 39.1378 57.1744C39.1378 58.7273 36.6669 59.9896 33.6216 59.9896C30.566 59.9896 28.1055 58.7287 28.1055 57.1744C28.1055 56.0278 29.4541 55.0377 31.3855 54.6005" fill="white"/>
<path d="M38.6579 63.6826H34.9805V70.784H38.6579V63.6826Z" fill="white"/>
<path d="M32.2243 63.6826H28.5469V70.784H32.2243V63.6826Z" fill="white"/>
<path d="M84.8479 102.492C74.876 101.502 64.3783 105.974 59.0561 109.37C55.8698 111.403 54.9917 115.138 51.6568 116.148C44.9562 118.178 29.2292 118.778 28.9185 121.769C28.306 127.656 33.6127 130.802 45.8516 133.525C45.5873 133.928 47.342 141.294 57.2095 142.958C61.1137 143.616 67.6631 142.958 70.1747 141.522C73.7982 139.388 77.8847 138.164 82.0842 137.953C96.4514 137.349 107.716 134.325 107.85 129.753C107.803 127.92 107.057 126.174 105.765 124.872C104.955 124.105 106.144 123.458 106.421 123.273C109.811 121.011 111.713 118.485 111.782 116.479C111.999 110.185 99.4855 103.946 84.8484 102.493" fill="white"/>
<path fill-rule="evenodd" clip-rule="evenodd" d="M64.0938 69.1151C64.5937 70.794 66.0079 98.982 66.0079 98.982L68.3738 117.963H74.2044L73.3759 103.923L73.3089 98.1508L71.1066 69.2787L73.6275 67.3003L64.0938 69.1151Z" fill="#FFC4B8"/>
<path fill-rule="evenodd" clip-rule="evenodd" d="M70.043 72.0239C70.5429 73.7051 74.5882 101.794 74.5882 101.794L76.9569 120.775H82.7842L81.4155 106.933L81.3513 101.172L81.0092 71.2057V70.1177L70.043 72.0239Z" fill="#FFC4B8"/>
<path d="M64.3281 70.1128L65.157 85.1608C65.157 85.1608 82.9721 89.4718 82.042 85.1608C81.9726 84.8328 81.55 70.1128 81.55 70.1128H64.3281Z" fill="#1BB3BC"/>
<path fill-rule="evenodd" clip-rule="evenodd" d="M74.1292 116.638H68.2129L62.1953 118.789V119.258H74.2065V117.958L74.1292 116.638Z" fill="#34466B"/>
<path fill-rule="evenodd" clip-rule="evenodd" d="M82.6793 119.493L82.6339 119.06H76.6965L70.6836 121.211V121.685H82.781V120.375L82.6793 119.493Z" fill="#34466B"/>
<path d="M66.6738 76.1118C66.6738 76.1118 65.7006 78.0555 64.7887 78.4725L64.6875 76.6146L65.2807 75.4487L66.6738 76.1118Z" fill="#1BB3BC"/>
<path d="M71.3653 70.0806C71.3653 70.0806 70.5635 76.5771 72.1005 77.4243C73.8919 78.4191 81.847 78.5957 81.847 78.5957L81.5527 72.0299L71.3653 70.0806Z" fill="#1BB3BC"/>
<path d="M74.3654 30.8677L83.3186 46.3703H71.4062V31.4637L74.3654 30.8677Z" fill="#2A8FEC"/>
<path d="M62.2148 35.5889L69.3317 54.4924L74.0602 53.2732L69.596 35.9928L62.2148 35.5889Z" fill="#2A8FEC"/>
<path d="M76.6839 43.523L75.6572 42.8628L69.3852 44.3679L65.1562 51.5569V70.1128H75.6572L77.6566 49.116L76.6839 43.523Z" fill="white"/>
<path d="M66.9818 39.2864C69.7029 39.2864 71.909 37.0805 71.909 34.3593C71.909 31.6381 69.7029 29.4321 66.9818 29.4321C64.2603 29.4321 62.0547 31.6381 62.0547 34.3593C62.0547 37.0805 64.2603 39.2864 66.9818 39.2864Z" fill="#2A8FEC"/>
<path d="M72.3836 66.4956H65.7109V68.0836H72.3836V66.4956Z" fill="#CEDEE7"/>
<path d="M61.8242 58.5583L62.4901 48.5676C62.528 48.0043 62.7319 47.4646 63.0758 47.0169C63.4197 46.5692 63.8883 46.2334 64.423 46.0518L70.0127 44.1484L68.7274 46.4318C68.4242 46.9711 68.2021 47.5519 68.0671 48.1558L66.6553 54.468C66.5077 55.1227 66.4505 55.7944 66.4843 56.4647L66.8695 63.9315L61.8242 58.5583Z" fill="#1BB3BC"/>
<path d="M58.25 62.1538L59.3437 64.4902C59.48 64.7809 59.6731 65.0414 59.9121 65.2562C60.1506 65.4711 60.4303 65.636 60.7335 65.7411C61.0371 65.8463 61.3586 65.8896 61.6791 65.8685C61.9996 65.8475 62.3126 65.7625 62.5999 65.6185L63.955 64.9395L62.859 62.5334L58.25 62.1538Z" fill="#1BB3BC"/>
<path d="M78.6261 44.1484L77.0675 42.5927C76.9837 42.5091 76.8806 42.4478 76.7667 42.4143C76.6533 42.3808 76.5334 42.3762 76.4176 42.4009C76.3019 42.4255 76.1941 42.4787 76.1041 42.5556C76.0142 42.6325 75.9448 42.7306 75.9022 42.841L71.4244 54.4839C71.1306 55.2511 70.9896 56.0684 71.0097 56.8896L71.5045 75.3551C71.5116 75.6152 71.5706 75.8715 71.6779 76.1086C71.7852 76.3462 71.9384 76.5594 72.1291 76.737C72.3199 76.9145 72.5438 77.0518 72.788 77.1418C73.0321 77.2318 73.2922 77.2721 73.5522 77.2608L82.7458 76.8546C82.9815 76.8443 83.2121 76.7824 83.422 76.6742C83.6315 76.5659 83.8151 76.4132 83.9595 76.2267C84.1043 76.0402 84.2069 75.8246 84.2598 75.5946C84.3128 75.3645 84.3151 75.126 84.2669 74.895L81.5491 61.8781L82.6184 56.7055L78.6261 44.1484Z" fill="#1BB3BC"/>
<path fill-rule="evenodd" clip-rule="evenodd" d="M66.8695 63.9319V75.4061C66.8695 75.6071 66.8246 75.8058 66.7379 75.9876C66.6512 76.1689 66.5256 76.3287 66.3691 76.4557C66.2131 76.5822 66.0308 76.6726 65.8349 76.72C65.6395 76.7673 65.4361 76.7706 65.2389 76.7293L63.2952 76.3231C63.0253 76.2668 62.7704 76.152 62.5492 75.9871C62.3276 75.8222 62.1453 75.6108 62.0136 75.3681C61.8824 75.1254 61.8056 74.8564 61.7887 74.5811C61.7718 74.3055 61.8154 74.0296 61.9157 73.7726L64.8378 66.287L62.6992 57.5024L66.5729 58.4035L66.8695 63.9319Z" fill="#1BB3BC"/>
<path d="M62.7993 67.5222L52.5898 49.8379H59.0436L69.2531 67.5222H62.7993Z" fill="white"/>
<path d="M64.8006 64.9742H67.7976L68.4443 59.5527H64.1562L64.8006 64.9742Z" fill="#34466B"/>
<path d="M68.7434 59.2666H63.8594V59.6864H68.7434V59.2666Z" fill="#CEDEE7"/>
<path d="M68.1763 58.8496H64.4258V59.2694H68.1763V58.8496Z" fill="#CEDEE7"/>
<path fill-rule="evenodd" clip-rule="evenodd" d="M68.8711 41.6838L69.2324 43.0769L70.3228 47.3007C71.1662 47.2443 71.9872 47.0044 72.7289 46.5978C72.952 46.4773 73.1671 46.3426 73.3732 46.1944C73.4534 46.1382 73.5335 46.0768 73.6164 46.0098C74.5569 45.2326 75.2499 44.1976 75.6107 43.0319C74.324 40.5618 73.4763 37.8868 73.1057 35.1265L72.7074 35.768L70.177 39.8184L68.8711 41.6838Z" fill="#FFC4B8"/>
<path fill-rule="evenodd" clip-rule="evenodd" d="M68.8281 41.545L69.232 43.0773C70.1889 42.3177 71.4213 40.9382 71.2638 38.9683L70.173 39.8183L68.8281 41.545Z" fill="#FFC4B8"/>
<path d="M63.7502 31.9876L64.4797 32.7373L68.6075 30.9192L70.353 34.0616L71.0319 36.0765L73.7029 37.1748C74.2464 36.515 74.6353 35.7421 74.842 34.9127C75.0482 34.0833 75.0669 33.2182 74.8963 32.3807C74.7258 31.5432 74.3701 30.7543 73.8556 30.0718C73.3416 29.3892 72.6809 28.8301 71.9227 28.4354C71.1645 28.0406 70.3281 27.8202 69.4739 27.7902C68.6197 27.7601 67.7697 27.9213 66.9857 28.2618C66.2018 28.6023 65.5036 29.1136 64.9422 29.7583C64.3813 30.4031 63.9713 31.165 63.7422 31.9885L63.7502 31.9876Z" fill="#2A8FEC"/>
<path fill-rule="evenodd" clip-rule="evenodd" d="M64.8516 38.5157L64.2317 33.6022C64.2181 33.1952 64.3179 32.7924 64.5194 32.4385C64.7209 32.0846 65.0161 31.7933 65.3732 31.5971C66.2063 31.1389 67.1833 31.0172 68.1036 31.2568C69.0239 31.4965 69.8172 32.0793 70.3214 32.8857V32.9044L70.3561 32.9607L71.3373 34.7305L71.4174 34.8776L71.9385 35.8186L72.1151 36.1391L72.3822 36.639C72.5429 36.9305 72.0509 38.3611 71.6044 39.5185C71.4029 40.0506 71.08 40.5285 70.6621 40.9145C70.2441 41.3006 69.7422 41.5841 69.1959 41.7429L69.126 41.7616C68.7502 41.859 68.3585 41.8761 67.9761 41.8116C67.5938 41.7473 67.2292 41.6028 66.9059 41.3879C66.583 41.1728 66.3094 40.8921 66.1023 40.564C65.8956 40.2359 65.7602 39.8678 65.7054 39.4838C65.6253 38.9215 65.569 38.489 65.5587 38.4703L64.8516 38.5157Z" fill="#FFC4B8"/>
<path d="M73.1984 35.5098C73.2861 34.7173 72.9473 34.0294 72.4407 33.9734C71.9347 33.9173 71.453 34.5143 71.3653 35.3068C71.2777 36.0992 71.617 36.7871 72.123 36.8432C72.6291 36.8993 73.1108 36.3023 73.1984 35.5098Z" fill="#FFC4B8"/>
<path fill-rule="evenodd" clip-rule="evenodd" d="M65.5464 38.4764L65.0117 35.4072L65.9873 37.6396C66.029 37.7232 66.0501 37.8156 66.0487 37.9092C66.0473 38.0027 66.0229 38.0944 65.9784 38.1766C65.9339 38.2587 65.7924 38.3811 65.7924 38.3811C65.7924 38.3811 65.6256 38.466 65.5328 38.4764H65.5464Z" fill="#FFC4B8"/>
<path fill-rule="evenodd" clip-rule="evenodd" d="M80.7565 67.4247L72.5919 65.7059L71.6618 65.8901C70.7659 66.0665 69.8526 66.1392 68.9403 66.1066L65.4085 65.973C65.3003 65.9691 65.1982 65.9234 65.1227 65.8457C65.0477 65.7679 65.0056 65.6641 65.0051 65.556C65.0046 65.4503 65.0445 65.3484 65.1166 65.271C65.1883 65.1935 65.2872 65.1463 65.3926 65.139L66.6812 65.0401L64.454 64.6231C64.3678 64.6073 64.2896 64.5617 64.2338 64.4943C64.1776 64.4269 64.1467 64.342 64.1467 64.2543C64.1471 64.155 64.1869 64.06 64.2572 63.9899C64.3275 63.9197 64.4222 63.88 64.5215 63.8794H64.5534L64.2085 63.7295C64.1307 63.6987 64.0632 63.6454 64.0159 63.5764C63.9681 63.5074 63.9423 63.4258 63.9414 63.3419C63.9409 63.2447 63.9747 63.1503 64.0356 63.0749C64.097 62.9994 64.1827 62.9474 64.2779 62.9277L65.1443 62.7511L64.4358 62.5533C64.335 62.5251 64.2483 62.4606 64.1921 62.3724C64.1359 62.2841 64.1143 62.1781 64.1312 62.0749C64.1438 61.9891 64.1827 61.9094 64.2427 61.8467C64.3022 61.784 64.3805 61.7415 64.4653 61.7249L66.2618 61.35C66.633 61.2745 67.012 61.2484 67.3897 61.2722L69.4833 61.4062L73.2447 62.4371L80.8502 63.2763C80.8502 63.2763 82.4753 65.8315 80.7565 67.4247Z" fill="#FFC4B8"/>
<path fill-rule="evenodd" clip-rule="evenodd" d="M60.2026 63.0231L60.9804 61.8469C61.084 61.6899 61.1323 61.5028 61.1173 61.3153C61.1023 61.1279 61.0249 60.9508 60.8975 60.8123C60.8834 60.7939 60.8666 60.7781 60.8469 60.7654C60.8675 60.6403 60.8581 60.5121 60.8197 60.3913C60.7808 60.2705 60.7143 60.1606 60.6248 60.0705L60.4003 59.8405C60.4477 59.7127 60.4561 59.574 60.4252 59.4415C60.3942 59.309 60.3254 59.1883 60.2265 59.0945L59.9191 58.803C59.9341 58.7131 59.9238 58.621 59.8905 58.5363C59.8572 58.4516 59.8015 58.3775 59.7293 58.3218L59.6464 58.2581C59.5709 58.2008 59.48 58.1663 59.3854 58.1586C59.2907 58.151 59.1961 58.1705 59.1117 58.2149L58.2322 58.6774C57.8948 58.8607 57.631 59.1555 57.4862 59.5115L57.7032 58.2098C57.7294 58.0486 57.7167 57.8836 57.6652 57.7286C57.6141 57.5736 57.526 57.4332 57.4089 57.3195C57.3588 57.271 57.2974 57.2361 57.2299 57.2179C57.1624 57.1997 57.0917 57.1989 57.0237 57.2155C56.923 57.2396 56.8349 57.3008 56.7772 57.387C56.7191 57.473 56.6957 57.5777 56.7112 57.6803L56.7697 58.0627L56.5907 58.5092C56.4385 58.8995 56.3986 59.3247 56.4759 59.7364L56.4998 59.8672C56.5509 60.1378 56.6334 60.4016 56.7458 60.653C57.2332 61.7426 57.8939 62.7458 58.7026 63.6233C58.9112 63.8537 59.182 64.0186 59.4819 64.098C59.6862 64.1585 59.9022 64.1668 60.1103 64.1225C60.3188 64.0781 60.5123 63.9824 60.674 63.844L60.2026 63.0231Z" fill="#FFC4B8"/>
<path d="M78.332 62.2662L80.7541 68.3263L85.7881 67.7144C86.2689 67.6562 86.7318 67.4956 87.1451 67.2435C87.5589 66.9914 87.9136 66.6536 88.1859 66.2528C88.4576 65.852 88.6409 65.3977 88.7224 64.9202C88.8039 64.4427 88.7824 63.9533 88.6591 63.4849L84.6293 48.1829C84.4339 47.4436 84.052 46.7667 83.5202 46.2171C82.9888 45.6674 82.3248 45.2633 81.5924 45.0434L78.6249 44.1475L82.881 62.3852L78.332 62.2662Z" fill="#1BB3BC"/>
</svg>
