<svg width="160" height="160" viewBox="0 0 160 160" fill="none" xmlns="http://www.w3.org/2000/svg">
<path fill-rule="evenodd" clip-rule="evenodd" d="M55.2441 121.944C55.8458 121.97 56.4463 121.986 57.0454 121.993C69.1065 122.131 80.5416 126.323 89.812 133.622C95.4384 138.052 102.504 140.807 110.361 141.139C130.938 142.008 149.043 126.052 150.935 105.382C151.769 96.263 149.283 87.7689 144.477 81.0502C140.363 75.2977 138.443 68.1768 139.259 60.9469C139.27 60.8537 139.279 60.7605 139.288 60.6678C140.51 48.4849 131.743 38.258 119.612 37.7226C119.543 37.7193 119.474 37.7168 119.405 37.7145C116.131 37.6011 113.215 35.8407 111.631 33.0394C102.601 17.0677 85.8419 6.1096 65.7856 5.26582C33.7384 3.91773 5.35 28.9689 2.44156 61.1632C-0.46883 93.383 23.1713 120.595 55.2441 121.944Z" fill="#EAF7FE"/>
<path d="M94.4999 153.395L50.67 146.695C45.8028 145.949 42.4605 141.404 43.2054 136.541L61.0757 19.9096C61.8208 15.0471 66.3707 11.7081 71.2393 12.4524L115.068 19.154C119.937 19.899 123.278 24.4441 122.533 29.3065L104.663 145.939C103.918 150.802 99.3685 154.139 94.4999 153.395Z" fill="#9E3667"/>
<path d="M91.8086 152.985L47.9787 146.283C43.1114 145.539 39.7692 140.993 40.514 136.131L58.3839 19.499C59.1294 14.6365 63.6793 11.2976 68.5475 12.0417L112.376 18.7439C117.245 19.4876 120.587 24.0333 119.842 28.8959L101.972 145.527C101.227 150.39 96.6758 153.729 91.8086 152.985Z" fill="white"/>
<path d="M119.084 33.8508L102.565 141.665C102.051 145.017 97.881 147.159 94.5281 146.646L46.2485 139.264C42.8937 138.751 40.5934 135.62 41.1068 132.268L57.6261 24.454C58.1399 21.1018 61.2727 18.7988 64.6283 19.3117L112.907 26.694C116.259 27.2066 119.597 30.4989 119.084 33.8508Z" fill="white"/>
<path fill-rule="evenodd" clip-rule="evenodd" d="M101.737 22.621C102.548 22.7452 103.306 22.1887 103.43 21.3787C103.555 20.5681 102.998 19.8112 102.187 19.6871C101.376 19.5636 100.618 20.1194 100.494 20.93C100.37 21.74 100.926 22.4976 101.737 22.621ZM80.1571 18.6018C80.5795 18.6665 80.9743 18.3767 81.0393 17.9543C81.1039 17.5317 80.8138 17.1372 80.3914 17.0725C79.9686 17.0079 79.5734 17.2977 79.5092 17.7202C79.4437 18.1426 79.7343 18.5373 80.1571 18.6018ZM78.0704 17.501C78.0053 17.9228 77.6106 18.2134 77.1882 18.1488C76.7653 18.0834 76.4756 17.6895 76.5403 17.267C76.6053 16.8445 77 16.5547 77.4225 16.6194C77.8453 16.6839 78.135 17.0787 78.0704 17.501ZM86.253 19.1689L93.3502 20.2536C93.5752 20.2885 93.7858 20.134 93.8201 19.9086C93.8544 19.6833 93.6996 19.4731 93.4741 19.4388L86.3774 18.3539C86.1528 18.3197 85.9423 18.4736 85.9071 18.699C85.8728 18.9241 86.0271 19.1346 86.253 19.1689Z" fill="#DEEDF2"/>
<path fill-rule="evenodd" clip-rule="evenodd" d="M94.4921 153.371L50.6622 146.671C45.7949 145.926 42.4527 141.38 43.1976 136.517L61.0679 19.8857C61.8129 15.0232 66.3628 11.6842 71.2318 12.4285L115.06 19.1301C119.929 19.875 123.271 24.4201 122.525 29.2826L104.655 145.915C103.91 150.778 99.3606 154.115 94.4921 153.371Z" fill="#9E3667"/>
<path fill-rule="evenodd" clip-rule="evenodd" d="M91.8007 152.96L47.9713 146.257C43.1036 145.514 39.7614 140.968 40.5062 136.105L58.3761 19.4736C59.1216 14.6111 63.6715 11.2722 68.5396 12.0163L112.369 18.7185C117.237 19.4622 120.579 24.0079 119.834 28.8705L101.964 145.502C101.219 150.365 96.6684 153.704 91.8007 152.96Z" fill="white"/>
<path d="M119.08 33.8264L102.561 141.641C102.047 144.992 97.8771 147.135 94.5241 146.622L46.2445 139.24C42.8898 138.726 40.5895 135.596 41.1029 132.243L57.6221 24.4296C58.136 21.0774 61.2687 18.7744 64.6243 19.2873L112.903 26.6696C116.256 27.1822 119.593 30.4745 119.08 33.8264Z" fill="#CEDEE7"/>
<path fill-rule="evenodd" clip-rule="evenodd" d="M103.106 138.072L102.559 141.641C102.53 141.821 102.493 141.996 102.445 142.167C101.602 145.214 97.6957 147.109 94.5233 146.623L46.2438 139.24C43.2865 138.788 41.1459 136.301 41.0361 133.421C41.0211 133.033 41.0405 132.64 41.102 132.243L41.6487 128.674L103.106 138.072Z" fill="#CEDEE7"/>
<path d="M103.109 138.072L102.562 141.641C102.533 141.821 102.496 141.996 102.447 142.167L102.415 142.162L102.559 141.222L41.168 131.835L41.6513 128.674L103.109 138.072Z" fill="#2A8FEC"/>
<path fill-rule="evenodd" clip-rule="evenodd" d="M85.7998 115.25L101.855 117.703L99.395 133.745L83.34 131.293L85.7998 115.25ZM67.3695 112.431L83.4236 114.884L80.9638 130.926L64.9102 128.474L67.3695 112.431ZM48.9407 109.613L64.9948 112.066L62.5354 128.108L46.4805 125.656L48.9407 109.613Z" fill="white"/>
<path fill-rule="evenodd" clip-rule="evenodd" d="M101.73 22.5961C102.54 22.7203 103.298 22.1638 103.422 21.3538C103.547 20.5432 102.99 19.7863 102.18 19.6622C101.369 19.5386 100.61 20.0945 100.486 20.9052C100.362 21.7151 100.918 22.4727 101.73 22.5961ZM80.1497 18.577C80.5717 18.6416 80.9664 18.3519 81.0315 17.9294C81.0966 17.5069 80.8064 17.1123 80.3836 17.0476C79.9607 16.983 79.5656 17.2729 79.5014 17.6954C79.4359 18.1177 79.7269 18.5124 80.1497 18.577ZM78.0622 17.4761C77.9972 17.8979 77.6024 18.1885 77.1805 18.1238C76.7576 18.0584 76.4675 17.6646 76.5326 17.2421C76.5972 16.8195 76.9923 16.5298 77.4143 16.5945C77.8372 16.659 78.1273 17.0537 78.0622 17.4761ZM86.2448 19.1439L93.3419 20.2287C93.567 20.2636 93.7776 20.109 93.8118 19.8837C93.8466 19.6584 93.6918 19.4482 93.4663 19.4139L86.3692 18.329C86.1446 18.2948 85.934 18.4487 85.8993 18.6741C85.865 18.8992 86.0189 19.1097 86.2448 19.1439Z" fill="#DEEDF2"/>
<path d="M119.078 33.826L116.45 50.9838L54.9922 41.5869L57.6208 24.4292C58.1346 21.077 61.2674 18.7736 64.623 19.2869L112.901 26.6692C116.254 27.1817 119.592 30.4739 119.078 33.826Z" fill="#2A8FEC"/>
<path fill-rule="evenodd" clip-rule="evenodd" d="M106.807 113.934L45.3516 104.534L54.988 41.6328L116.443 51.0333L106.807 113.934Z" fill="white"/>
<path fill-rule="evenodd" clip-rule="evenodd" d="M64.1575 53.9819L71.5443 55.112L71.2783 56.8501L65.6295 55.9859L64.7654 61.6342L63.0273 61.3683L64.1575 53.9819Z" fill="#34466B"/>
<path fill-rule="evenodd" clip-rule="evenodd" d="M98.0157 100.074L90.6289 98.9436L90.8948 97.206L96.5436 98.0702L97.4078 92.4214L99.1458 92.6878L98.0157 100.074Z" fill="#34466B"/>
<path fill-rule="evenodd" clip-rule="evenodd" d="M104.133 60.0998L103.003 67.4862L101.265 67.2202L102.129 61.5714L96.4805 60.7073L96.7464 58.9692L104.133 60.0998Z" fill="#34466B"/>
<path fill-rule="evenodd" clip-rule="evenodd" d="M58.0391 93.9562L59.1696 86.5698L60.9076 86.8358L60.043 92.4841L65.6918 93.3483L65.4259 95.0863L58.0391 93.9562Z" fill="#34466B"/>
<ellipse cx="80.9006" cy="77.3376" rx="16.3342" ry="16.3342" fill="#2A8FEC"/>
<path fill-rule="evenodd" clip-rule="evenodd" d="M82.5415 66.4106C86.7591 67.0564 89.6791 71.0313 89.0338 75.2489L88.0954 81.3812C87.4501 85.5988 83.4747 88.5188 79.2571 87.8731C75.0395 87.2278 72.1195 83.2528 72.7652 79.0353L73.7033 72.9029C74.349 68.6854 78.3239 65.7654 82.5415 66.4106ZM82.3066 67.9428C78.9361 67.4272 75.7523 69.7657 75.2363 73.1367L74.2978 79.269C73.7822 82.6395 76.1207 85.8233 79.4917 86.3393C82.8627 86.8549 86.0464 84.5165 86.562 81.1455L87.5005 75.0136C88.0165 71.6426 85.6776 68.4589 82.3066 67.9428ZM85.9699 74.7224C86.2156 72.184 84.5246 69.8521 82.074 69.4772C79.5325 69.0881 77.1413 70.9519 76.7365 73.598L75.8674 79.2776L75.8323 79.5607C75.5866 82.0991 77.2776 84.4323 79.7281 84.8073C80.1514 84.8723 80.547 84.5813 80.6121 84.158C80.6767 83.7347 80.3861 83.3391 79.9628 83.2745C78.2885 83.0182 77.1224 81.3308 77.4006 79.5123L78.2696 73.8323L78.3136 73.5985C78.6885 71.9075 80.2376 70.7651 81.8393 71.0103C83.514 71.2666 84.6802 72.9528 84.402 74.7708L83.6292 79.8191L83.5949 79.9734C83.4327 80.5224 82.885 80.882 82.3035 80.7928C81.6872 80.6987 81.2569 80.1352 81.3211 79.522L82.078 74.5783L82.0864 74.4385C82.0762 74.071 81.805 73.7519 81.4288 73.6943C81.0055 73.6297 80.6094 73.9202 80.5448 74.3435L79.805 79.1778L79.7703 79.4534C79.6714 80.849 80.6617 82.1106 82.0688 82.3259C83.4147 82.5317 84.6815 81.7106 85.0718 80.4477L85.1105 80.3404L85.1369 80.2209L85.9347 75.0055L85.9699 74.7224Z" fill="white"/>
</svg>
