<svg width="161" height="160" viewBox="0 0 161 160" fill="none" xmlns="http://www.w3.org/2000/svg">
<path fill-rule="evenodd" clip-rule="evenodd" d="M61.3205 35.4064C53.1728 44.0729 42.3782 49.7292 30.6798 51.8551C23.5793 53.1455 16.7852 56.537 11.2952 62.0298C-3.08427 76.4164 -3.10059 99.6167 11.2595 114.023C17.5942 120.378 25.6717 123.929 33.9544 124.677C41.0453 125.318 47.7075 128.414 52.6272 133.565C52.6906 133.632 52.7544 133.697 52.8183 133.763C61.2108 142.331 74.7867 142.416 83.2809 133.949C83.3296 133.901 83.3779 133.852 83.4257 133.804C85.6947 131.499 88.9698 130.492 92.1432 131.109C110.236 134.625 129.694 129.371 143.707 115.347C166.098 92.9374 166.098 56.5386 143.707 34.1289C121.298 11.7017 84.9669 11.7018 62.5585 34.1292C62.1378 34.5501 61.7251 34.9759 61.3205 35.4064Z" fill="#DEEDF2"/>
<path fill-rule="evenodd" clip-rule="evenodd" d="M112.689 36.6064C111.499 35.7323 110.727 34.3234 110.727 32.7354C110.727 30.0859 112.878 27.9348 115.527 27.9348C117.974 27.9348 119.995 29.7688 120.291 32.1356C120.342 32.3822 120.38 32.6316 120.406 32.8808L120.406 32.8812L120.407 32.8867L120.407 32.8887C120.414 32.9632 120.421 33.0378 120.427 33.1122L120.757 36.8166L120.005 37.0685L119.997 37.0703L119.997 37.0703C119.978 37.1348 119.968 37.1697 119.968 37.1697L119.947 37.6708L119.91 38.6074C119.898 38.9174 119.833 39.2211 119.72 39.5066C119.641 39.7082 119.537 39.9012 119.41 40.0804C119.26 40.2906 119.081 40.4793 118.882 40.6386C118.778 40.7222 118.668 40.7967 118.552 40.8632C118.491 40.8984 118.43 40.9309 118.367 40.9612L118.367 40.9615L118.69 46.8127C118.69 46.8127 116.982 47.3274 115.111 46.919C113.981 46.6742 112.79 46.0898 111.881 44.8527C111.881 44.8527 112.957 40.1914 112.689 36.6064Z" fill="#FFC4B8"/>
<path fill-rule="evenodd" clip-rule="evenodd" d="M115.129 46.8497C113.998 46.6049 112.807 46.0205 111.898 44.7833C111.898 44.7833 113.062 39.7887 112.667 36.159C112.667 36.159 115.313 42.61 115.129 46.8497ZM120.003 37.0895C119.739 37.1668 119.48 36.9598 119.497 36.6861L119.608 34.9216L120.003 37.0895Z" fill="#F4A48D"/>
<path fill-rule="evenodd" clip-rule="evenodd" d="M113.973 28.2497C116.083 28.1756 115.824 26.3633 115.824 26.3633C118.083 26.4373 119.045 27.288 119.045 27.288C120.859 28.7302 120.14 31.6236 120.14 31.6236C119.863 29.4402 116.519 30.3711 115.21 30.5903C114.675 31.1149 114.881 32.3955 114.61 33.4749C114.605 33.4945 114.023 34.9553 114.023 34.9553L114.022 34.9571L113.99 35.1089C113.98 35.084 113.97 35.0592 113.96 35.0344C113.608 34.2012 112.891 33.7085 112.359 33.9325C111.826 34.157 111.681 35.014 112.032 35.8471C112.155 36.1373 112.465 36.3862 112.653 36.578C112.799 37.8012 112.771 38.9374 112.668 39.9128L112.122 39.9364L110.16 30.6166C110.014 29.369 110.57 28.7997 111.46 28.5268C112.153 28.3142 113.049 28.282 113.973 28.2497Z" fill="#DEEDF2"/>
<mask id="mask0_1487_26712" style="mask-type:luminance" maskUnits="userSpaceOnUse" x="27" y="119" width="109" height="23">
<path fill-rule="evenodd" clip-rule="evenodd" d="M27.3086 141.618V119.199H129.863C132.869 119.199 135.304 121.634 135.304 124.639V136.176C135.304 139.181 132.869 141.618 129.863 141.618H27.3086Z" fill="white"/>
</mask>
<g mask="url(#mask0_1487_26712)">
<path fill-rule="evenodd" clip-rule="evenodd" d="M27.3047 119.199H131.012C133.381 119.199 135.3 121.118 135.3 123.487V137.33C135.3 139.698 133.381 141.618 131.012 141.618H27.3047V119.199Z" fill="#DEEDF2"/>
<path fill-rule="evenodd" clip-rule="evenodd" d="M27.3047 119.199H131.012C133.381 119.199 135.3 121.118 135.3 123.487V137.33C135.3 139.698 133.381 141.618 131.012 141.618H27.3047V119.199Z" fill="#990000"/>
</g>
<mask id="mask1_1487_26712" style="mask-type:luminance" maskUnits="userSpaceOnUse" x="27" y="119" width="109" height="23">
<path fill-rule="evenodd" clip-rule="evenodd" d="M27.3086 141.618V119.199H129.863C132.869 119.199 135.304 121.634 135.304 124.639V136.176C135.304 139.181 132.869 141.618 129.863 141.618H27.3086Z" fill="white"/>
</mask>
<g mask="url(#mask1_1487_26712)">
<path fill-rule="evenodd" clip-rule="evenodd" d="M21.4883 141.618V119.199H124.07C127.06 119.199 129.484 121.622 129.484 124.612V136.204C129.484 139.194 127.06 141.618 124.07 141.618H21.4883Z" fill="white"/>
</g>
<mask id="mask2_1487_26712" style="mask-type:luminance" maskUnits="userSpaceOnUse" x="27" y="119" width="109" height="23">
<path fill-rule="evenodd" clip-rule="evenodd" d="M27.3086 141.618V119.199H129.863C132.869 119.199 135.304 121.634 135.304 124.639V136.176C135.304 139.181 132.869 141.618 129.863 141.618H27.3086Z" fill="white"/>
</mask>
<g mask="url(#mask2_1487_26712)">
<path fill-rule="evenodd" clip-rule="evenodd" d="M15.5469 119.574L118.81 119.199C121.485 119.199 123.652 121.366 123.652 124.041V136.775C123.652 139.449 121.485 141.618 118.81 141.618H15.6569L15.5469 119.574Z" fill="#990000"/>
</g>
<mask id="mask3_1487_26712" style="mask-type:luminance" maskUnits="userSpaceOnUse" x="27" y="119" width="109" height="23">
<path fill-rule="evenodd" clip-rule="evenodd" d="M27.3086 141.618V119.199H129.863C132.869 119.199 135.304 121.634 135.304 124.639V136.176C135.304 139.181 132.869 141.618 129.863 141.618H27.3086Z" fill="white"/>
</mask>
<g mask="url(#mask3_1487_26712)">
<path fill-rule="evenodd" clip-rule="evenodd" d="M15.5625 119.134H89.3596C91.8636 119.134 93.8933 121.564 93.8933 124.563V136.188C93.8933 139.187 91.8636 141.618 89.3592 141.618H15.5625V119.134Z" fill="white"/>
</g>
<mask id="mask4_1487_26712" style="mask-type:luminance" maskUnits="userSpaceOnUse" x="27" y="119" width="109" height="23">
<path fill-rule="evenodd" clip-rule="evenodd" d="M27.3086 141.618V119.199H129.863C132.869 119.199 135.304 121.634 135.304 124.639V136.176C135.304 139.181 132.869 141.618 129.863 141.618H27.3086Z" fill="white"/>
</mask>
<g mask="url(#mask4_1487_26712)">
<path fill-rule="evenodd" clip-rule="evenodd" d="M15.5352 119.561L84.3088 119.199C86.3826 119.199 88.0636 121.366 88.0636 124.041V136.775C88.0636 139.449 86.3826 141.618 84.3088 141.618H15.5352V119.561Z" fill="#990000"/>
</g>
<mask id="mask5_1487_26712" style="mask-type:luminance" maskUnits="userSpaceOnUse" x="9" y="119" width="70" height="24">
<path fill-rule="evenodd" clip-rule="evenodd" d="M9.92969 142.058V119.574H72.8901C76.1716 119.574 78.8317 122.016 78.8317 125.03V136.601C78.8317 139.614 76.1716 142.058 72.8901 142.058H9.92969Z" fill="white"/>
</mask>
<g mask="url(#mask5_1487_26712)">
<path fill-rule="evenodd" clip-rule="evenodd" d="M9.92969 142.058H78.8317V119.574H9.92969V142.058Z" fill="#990000"/>
</g>
<mask id="mask6_1487_26712" style="mask-type:luminance" maskUnits="userSpaceOnUse" x="9" y="122" width="67" height="18">
<path fill-rule="evenodd" clip-rule="evenodd" d="M9.92969 122.112H71.9256C74.1377 122.112 75.9306 123.741 75.9306 125.749V135.882C75.9306 137.891 74.1377 139.519 71.9256 139.519H9.92969V122.112Z" fill="white"/>
</mask>
<g mask="url(#mask6_1487_26712)">
<path fill-rule="evenodd" clip-rule="evenodd" d="M9.92969 139.519H75.9306V122.112H9.92969V139.519Z" fill="white"/>
</g>
<path fill-rule="evenodd" clip-rule="evenodd" d="M56.8902 119.326C56.1139 119.326 55.4844 118.521 55.4844 117.527V100.681C55.4844 99.687 56.1139 98.8813 56.8902 98.8813H121.848V119.326H56.8902Z" fill="#34466B"/>
<path d="M36.9297 100.681V99.9002C36.9297 99.3372 37.3855 98.8813 37.9485 98.8813H38.7286C37.7353 98.8813 36.9297 99.687 36.9297 100.681Z" fill="#9BC3D3"/>
<path fill-rule="evenodd" clip-rule="evenodd" d="M114.327 105.409V104.13H63.4163C62.9154 104.13 62.5086 104.651 62.5086 105.294V105.409H56.267C55.8302 105.409 55.4766 104.955 55.4766 104.394V100.673C55.4766 99.6835 56.1016 98.8813 56.8722 98.8813H73.0686V99.0308H119.664C119.114 99.3255 118.726 100.023 118.726 100.837V105.409H114.327Z" fill="#34466B"/>
<mask id="mask7_1487_26712" style="mask-type:luminance" maskUnits="userSpaceOnUse" x="118" y="98" width="37" height="22">
<path fill-rule="evenodd" clip-rule="evenodd" d="M154.022 119.324V98.8809H120.417C119.333 98.8809 118.453 99.7599 118.453 100.845V117.36C118.453 118.445 119.333 119.324 120.417 119.324H154.022Z" fill="white"/>
</mask>
<g mask="url(#mask7_1487_26712)">
<path fill-rule="evenodd" clip-rule="evenodd" d="M118.453 119.324H154.022V98.8809H118.453V119.324Z" fill="#34466B"/>
</g>
<mask id="mask8_1487_26712" style="mask-type:luminance" maskUnits="userSpaceOnUse" x="120" y="100" width="35" height="18">
<path fill-rule="evenodd" clip-rule="evenodd" d="M154.049 100.514H121.491C120.982 100.514 120.57 100.926 120.57 101.436V116.816C120.57 117.324 120.982 117.737 121.491 117.737H154.049V100.514Z" fill="white"/>
</mask>
<g mask="url(#mask8_1487_26712)">
<path fill-rule="evenodd" clip-rule="evenodd" d="M120.57 117.737H154.049V100.514H120.57V117.737Z" fill="white"/>
</g>
<path d="M42.7473 66.1101C42.4535 65.6831 42.2539 65.4111 42.2539 65.4111C42.2539 65.4111 42.4519 65.6799 42.7478 66.1101C42.7478 66.1101 42.7478 66.1101 42.7473 66.1101Z" fill="#9BC3D3"/>
<path fill-rule="evenodd" clip-rule="evenodd" d="M84.4023 99.0315V80.1968H140.291C145.492 80.1968 149.708 84.4125 149.708 89.6144C149.708 94.8158 145.492 99.0315 140.291 99.0315H84.4023Z" fill="#EC0000"/>
<path fill-rule="evenodd" clip-rule="evenodd" d="M72.4453 97.1276V82.1012C72.4453 81.0492 73.2982 80.1968 74.3497 80.1968H113.489C118.69 80.1968 122.907 84.4125 122.907 89.6144C122.907 94.8158 118.69 99.0315 113.489 99.0315H74.3497C73.2982 99.0315 72.4453 98.1791 72.4453 97.1276Z" fill="#EC0000"/>
<path fill-rule="evenodd" clip-rule="evenodd" d="M62.6172 97.1276V82.1012C62.6172 81.0492 63.4701 80.1968 64.5216 80.1968H104.141C109.077 80.1968 113.079 84.1982 113.079 89.1341V90.0947C113.079 95.0307 109.077 99.0315 104.141 99.0315H64.5216C63.4701 99.0315 62.6172 98.1791 62.6172 97.1276Z" fill="#EC0000"/>
<mask id="mask9_1487_26712" style="mask-type:luminance" maskUnits="userSpaceOnUse" x="59" y="80" width="41" height="20">
<path fill-rule="evenodd" clip-rule="evenodd" d="M59.6016 99.031V80.1963H90.2953C95.4961 80.1963 99.7124 84.412 99.7124 89.6139C99.7124 94.8153 95.4961 99.031 90.2953 99.031H59.6016Z" fill="white"/>
</mask>
<g mask="url(#mask9_1487_26712)">
<path fill-rule="evenodd" clip-rule="evenodd" d="M59.6016 99.031V80.1963H90.2953C95.4961 80.1963 99.7124 84.412 99.7124 89.6139C99.7124 94.8153 95.4961 99.031 90.2953 99.031H59.6016Z" fill="#EC0000"/>
</g>
<mask id="mask10_1487_26712" style="mask-type:luminance" maskUnits="userSpaceOnUse" x="59" y="82" width="38" height="15">
<path fill-rule="evenodd" clip-rule="evenodd" d="M59.6094 82.2214H89.6971C93.7092 82.2214 96.9615 85.4682 96.9615 89.474C96.9615 93.4798 93.7092 96.7271 89.6971 96.7271H59.6094V82.2214Z" fill="white"/>
</mask>
<g mask="url(#mask10_1487_26712)">
<path fill-rule="evenodd" clip-rule="evenodd" d="M59.6094 96.7271H96.9615V82.2214H59.6094V96.7271Z" fill="white"/>
</g>
<path fill-rule="evenodd" clip-rule="evenodd" d="M120.601 48.0881C121.032 47.3918 123.122 45.9971 123.122 45.9971C123.122 45.9971 124.953 47.9624 125.421 50.2171C125.89 52.473 130.127 61.2183 130.31 61.9722C130.493 62.7256 130.057 65.8398 130.057 65.8398L126.399 64.6148C126.399 64.6148 126.184 62.2828 124.914 60.6324C123.645 58.9815 120.632 54.8746 120.196 52.0639C119.76 49.2527 119.554 49.7765 120.601 48.0881Z" fill="white"/>
<path fill-rule="evenodd" clip-rule="evenodd" d="M116.925 46.7182C114.651 47.0968 112.954 46.1179 111.832 43.7814C112.074 43.7814 111.047 44.2649 108.75 45.232L113.733 52.6262L121.255 48.6879L121.08 45.0507L118.36 43.6001C118.834 45.441 118.356 46.4803 116.925 46.7182Z" fill="white"/>
<path fill-rule="evenodd" clip-rule="evenodd" d="M131.923 104.803L133.377 108.576L128.961 106.479L129.141 102.89L132.15 102.373L131.923 104.803Z" fill="#DEEDF2"/>
<path fill-rule="evenodd" clip-rule="evenodd" d="M125.535 69.4665C125.535 69.4665 133.998 76.4374 134.942 78.5964C135.887 80.7548 132.694 104.731 132.694 104.731L128.545 104.484C128.545 104.484 128.152 96.6233 127.788 92.437C127.41 88.0864 127.865 81.7949 127.865 81.7949C127.865 81.7949 123.08 79.8627 120.672 79.2839C110.897 76.9329 112.9 70.8155 113.035 66.9033L125.535 69.4665Z" fill="#444444"/>
<path fill-rule="evenodd" clip-rule="evenodd" d="M118.075 105.371L119.467 110.294L114.477 107.53L115.556 102.763L118.506 103.551L118.075 105.371Z" fill="#DEEDF2"/>
<path fill-rule="evenodd" clip-rule="evenodd" d="M118.153 70.5952C118.153 70.5952 124.723 75.3179 125.668 77.4769C126.612 79.6353 118.506 105.364 118.506 105.364L114.458 105.54C114.458 105.54 116.388 94.7467 116.793 90.5636C117.198 86.3816 117.789 81.2542 117.789 81.2542C117.789 81.2542 112.243 80.4491 110.057 79.2834C106.266 77.2593 107.217 74.5085 107.352 70.5952H118.153Z" fill="#444444"/>
<path fill-rule="evenodd" clip-rule="evenodd" d="M117.392 49.3441C117.392 49.3441 119.428 63.4567 119.264 65.0157C119.099 66.5752 119.551 71.0558 118.472 71.8201C115.808 73.7077 108.714 72.6877 107.305 72.6877C107.305 72.6877 106.832 66.2195 106.668 62.3628C106.504 58.5072 108.145 53.3379 107.981 51.4503C107.817 49.5633 105.766 46.1989 105.766 46.1989L111.469 43.9629C112.25 47.5504 114.224 49.3441 117.392 49.3441Z" fill="#34466B"/>
<path fill-rule="evenodd" clip-rule="evenodd" d="M117.391 49.3438C117.391 49.3438 117.584 69.7391 118.815 71.216C120.046 72.6934 126.113 71.6207 126.441 71.785C126.769 71.9487 124.061 64.1679 124.061 62.2395C124.061 60.3117 123.121 45.9968 123.121 45.9968L118.72 43.7812C120.031 46.5598 119.588 48.414 117.391 49.3438Z" fill="#34466B"/>
<path fill-rule="evenodd" clip-rule="evenodd" d="M117.609 71.3574L118.077 69.8643C118.077 69.8643 121.958 71.111 123.025 71.3574C124.091 71.6033 125.803 72.4236 125.803 72.4236H119.004L117.609 71.3574Z" fill="#FFC4B8"/>
<path fill-rule="evenodd" clip-rule="evenodd" d="M119.415 70.2087L119.005 72.4237C119.005 72.4237 109.099 71.7291 107.342 68.8004C106.496 67.391 106.221 67.1658 105.272 62.417C103.201 52.0653 104.369 46.7731 105.765 46.1987C107.159 45.6243 109.611 48.6601 109.37 51.2042C109.128 53.7478 111.31 65.3506 111.31 65.3506C111.31 65.3506 114.244 67.7658 119.415 70.2087Z" fill="white"/>
<path fill-rule="evenodd" clip-rule="evenodd" d="M122.004 73.1227H126.112L130.22 58.749H127.097L122.004 73.1227Z" fill="#767676"/>
<path fill-rule="evenodd" clip-rule="evenodd" d="M123.184 73.1227H139.217L143.325 58.749H127.292L123.184 73.1227Z" fill="#767676"/>
<path fill-rule="evenodd" clip-rule="evenodd" d="M120.824 73.8693H139.217V72.7971H120.824V73.8693Z" fill="#444444"/>
<path fill-rule="evenodd" clip-rule="evenodd" d="M111.629 73.8695H120.825V72.7974H111.629V73.8695Z" fill="#444444"/>
<path fill-rule="evenodd" clip-rule="evenodd" d="M43.13 119.572C41.0655 119.587 35.7666 119.521 33.0629 118.046C33.0629 118.046 32.5611 116.682 32.8818 115.374C32.8818 115.374 52.8179 113.4 53.2832 115.374C53.673 117.027 53.2373 118.13 53.2373 118.13C51.8391 119.322 45.3517 119.527 43.13 119.572Z" fill="#F6C854"/>
<path fill-rule="evenodd" clip-rule="evenodd" d="M32.8825 115.626C32.8825 115.626 33.0489 115.611 33.3487 115.584C33.2398 116.642 33.618 117.604 33.618 117.604C36.3382 118.992 41.6694 119.053 43.7463 119.039C45.7906 119.001 51.4211 118.836 53.4453 117.951C53.4012 118.123 53.3616 118.217 53.3616 118.217C51.9549 119.337 45.4281 119.53 43.1929 119.572C41.1159 119.586 35.7848 119.524 33.0646 118.137C33.0646 118.137 32.5598 116.856 32.8825 115.626Z" fill="#F6C854"/>
<path d="M33.1538 115.947C33.118 116.249 33.1059 116.551 33.0995 116.853C33.096 117.155 33.0982 117.458 33.1243 117.76C33.1602 117.459 33.1723 117.157 33.1786 116.855C33.1819 116.552 33.1797 116.25 33.1538 115.947Z" fill="#D39E00"/>
<path d="M33.8803 116.31C33.8445 116.612 33.8325 116.914 33.826 117.216C33.8225 117.518 33.8248 117.821 33.8507 118.123C33.8868 117.822 33.8988 117.519 33.9052 117.217C33.9085 116.915 33.9063 116.613 33.8803 116.31Z" fill="#D39E00"/>
<path d="M34.6002 116.673C34.5654 116.974 34.5543 117.277 34.5487 117.579C34.5462 117.881 34.5494 118.183 34.5764 118.486C34.6113 118.184 34.6225 117.882 34.6277 117.58C34.6301 117.277 34.6269 116.975 34.6002 116.673Z" fill="#D39E00"/>
<path d="M35.3249 116.673C35.2895 116.975 35.2776 117.277 35.2714 117.579C35.2681 117.881 35.2705 118.183 35.2969 118.486C35.3325 118.184 35.3444 117.882 35.3504 117.58C35.3536 117.278 35.351 116.975 35.3249 116.673Z" fill="#D39E00"/>
<path d="M36.4148 117.035C36.3793 117.337 36.3675 117.639 36.3611 117.941C36.358 118.243 36.3604 118.546 36.3866 118.848C36.4224 118.547 36.4343 118.245 36.4403 117.942C36.4435 117.64 36.4409 117.338 36.4148 117.035Z" fill="#D39E00"/>
<path fill-rule="evenodd" clip-rule="evenodd" d="M32.778 115.403C32.778 116.305 37.3241 117.035 42.9319 117.035C48.5398 117.035 53.0859 116.305 53.0859 115.403C53.0859 114.502 48.5398 113.771 42.9319 113.771C37.3241 113.771 32.778 114.502 32.778 115.403Z" fill="#D39E00"/>
<path d="M34.2266 115.403C34.2266 115.904 38.2045 116.31 43.1112 116.31C48.0183 116.31 51.9961 115.904 51.9961 115.403C51.9961 114.903 48.0183 114.497 43.1112 114.497C38.2045 114.497 34.2266 114.903 34.2266 115.403Z" fill="#F6C854"/>
<path fill-rule="evenodd" clip-rule="evenodd" d="M42.9297 114.134C38.3381 114.138 34.5997 114.337 34.2263 115.222C34.2263 115.222 34.7407 114.697 42.9297 114.134Z" fill="white"/>
<path d="M51.6328 115.222C51.6328 115.823 47.6966 116.31 42.841 116.31C40.0995 116.31 37.6808 116.158 36.0392 115.912C51.6615 115.987 51.6328 115.222 51.6328 115.222Z" fill="#F6C854"/>
<path fill-rule="evenodd" clip-rule="evenodd" d="M52.5107 115.592C51.1125 116.784 44.6251 116.989 42.4033 117.034C40.339 117.049 35.0401 116.983 32.3364 115.507C32.3364 115.507 31.8344 114.144 32.1553 112.836C32.1553 112.836 52.0914 110.861 52.5567 112.836C52.9465 114.489 52.5107 115.592 52.5107 115.592Z" fill="#F6C854"/>
<path fill-rule="evenodd" clip-rule="evenodd" d="M32.156 113.088C32.156 113.088 32.3224 113.072 32.6222 113.046C32.5131 114.103 32.8915 115.066 32.8915 115.066C35.6117 116.453 40.9429 116.515 43.0198 116.501C45.0639 116.463 50.6945 116.297 52.7188 115.413C52.6744 115.584 52.635 115.679 52.635 115.679C51.2283 116.798 44.7015 116.992 42.4662 117.034C40.3893 117.048 35.0583 116.986 32.3381 115.599C32.3381 115.599 31.8331 114.317 32.156 113.088Z" fill="#F6C854"/>
<path d="M32.4272 113.409C32.3914 113.711 32.3794 114.013 32.3729 114.315C32.3694 114.617 32.3716 114.919 32.3977 115.222C32.4337 114.921 32.4457 114.618 32.452 114.316C32.4554 114.014 32.4532 113.712 32.4272 113.409Z" fill="#D39E00"/>
<path d="M33.1538 113.771C33.118 114.073 33.1059 114.375 33.0995 114.677C33.096 114.98 33.0982 115.282 33.1243 115.585C33.1602 115.283 33.1723 114.981 33.1786 114.679C33.1819 114.376 33.1797 114.074 33.1538 113.771Z" fill="#D39E00"/>
<path d="M33.8775 114.134C33.8426 114.436 33.8316 114.738 33.826 115.04C33.8235 115.343 33.8266 115.645 33.8537 115.947C33.8887 115.646 33.8998 115.344 33.9052 115.041C33.9075 114.739 33.9042 114.437 33.8775 114.134Z" fill="#D39E00"/>
<path d="M34.6023 114.134C34.5668 114.436 34.5549 114.738 34.5488 115.04C34.5454 115.342 34.5478 115.644 34.5742 115.947C34.6099 115.646 34.6217 115.343 34.6278 115.041C34.6309 114.739 34.6284 114.437 34.6023 114.134Z" fill="#D39E00"/>
<path d="M35.3249 114.497C35.2895 114.798 35.2776 115.1 35.2714 115.402C35.2681 115.705 35.2705 116.007 35.2969 116.31C35.3325 116.008 35.3444 115.706 35.3504 115.404C35.3536 115.102 35.351 114.799 35.3249 114.497Z" fill="#D39E00"/>
<path d="M32.0514 112.865C32.0514 113.766 36.5975 114.497 42.2054 114.497C47.8133 114.497 52.3594 113.766 52.3594 112.865C52.3594 111.963 47.8133 111.233 42.2054 111.233C36.5975 111.233 32.0514 111.963 32.0514 112.865Z" fill="#D39E00"/>
<path d="M33.1368 112.865C33.1368 113.366 37.1146 113.772 42.0213 113.772C46.9284 113.772 50.9062 113.366 50.9062 112.865C50.9062 112.365 46.9284 111.958 42.0213 111.958C37.1146 111.958 33.1368 112.365 33.1368 112.865Z" fill="#F6C854"/>
<path fill-rule="evenodd" clip-rule="evenodd" d="M42.2031 111.958C37.6115 111.962 33.8733 112.161 33.4997 113.046C33.4997 113.046 34.0141 112.521 42.2031 111.958Z" fill="white"/>
<path d="M50.9062 112.684C50.9062 113.284 46.97 113.772 42.1144 113.772C39.373 113.772 36.9542 113.619 35.3126 113.373C50.9349 113.449 50.9062 112.684 50.9062 112.684Z" fill="#F6C854"/>
<path fill-rule="evenodd" clip-rule="evenodd" d="M53.2373 113.416C51.8391 114.607 45.3517 114.813 43.13 114.858C41.0655 114.873 35.7666 114.807 33.0629 113.331C33.0629 113.331 32.5611 111.968 32.8818 110.66C32.8818 110.66 52.8179 108.685 53.2832 110.66C53.673 112.313 53.2373 113.416 53.2373 113.416Z" fill="#F6C854"/>
<path fill-rule="evenodd" clip-rule="evenodd" d="M32.8825 110.912C32.8825 110.912 33.0489 110.896 33.3487 110.87C33.2398 111.927 33.618 112.89 33.618 112.89C36.3382 114.277 41.6694 114.339 43.7463 114.325C45.7906 114.287 51.4211 114.121 53.4453 113.237C53.4012 113.408 53.3616 113.503 53.3616 113.503C51.9549 114.622 45.4281 114.816 43.1929 114.858C41.1159 114.872 35.7848 114.81 33.0646 113.423C33.0646 113.423 32.5598 112.141 32.8825 110.912Z" fill="#F6C854"/>
<path d="M33.1538 111.233C33.118 111.535 33.1059 111.837 33.0995 112.139C33.096 112.441 33.0982 112.743 33.1243 113.046C33.1602 112.745 33.1723 112.442 33.1786 112.14C33.1819 111.838 33.1797 111.536 33.1538 111.233Z" fill="#D39E00"/>
<path d="M33.8803 111.596C33.8445 111.897 33.8325 112.199 33.826 112.502C33.8225 112.804 33.8248 113.106 33.8507 113.409C33.8868 113.107 33.8988 112.805 33.9052 112.503C33.9085 112.201 33.9063 111.898 33.8803 111.596Z" fill="#D39E00"/>
<path d="M34.6002 111.958C34.5654 112.26 34.5543 112.562 34.5487 112.864C34.5462 113.167 34.5494 113.469 34.5764 113.771C34.6113 113.47 34.6225 113.168 34.6277 112.865C34.6301 112.563 34.6269 112.261 34.6002 111.958Z" fill="#D39E00"/>
<path d="M35.3249 111.958C35.2895 112.26 35.2776 112.562 35.2714 112.865C35.2681 113.167 35.2705 113.469 35.2969 113.772C35.3325 113.47 35.3444 113.168 35.3504 112.866C35.3536 112.564 35.351 112.261 35.3249 111.958Z" fill="#D39E00"/>
<path d="M36.4148 112.321C36.3793 112.622 36.3675 112.925 36.3611 113.227C36.358 113.529 36.3604 113.831 36.3866 114.134C36.4224 113.832 36.4343 113.53 36.4403 113.228C36.4435 112.926 36.4409 112.624 36.4148 112.321Z" fill="#D39E00"/>
<path fill-rule="evenodd" clip-rule="evenodd" d="M32.778 110.689C32.778 111.59 37.3241 112.321 42.9319 112.321C48.5398 112.321 53.0859 111.59 53.0859 110.689C53.0859 109.787 48.5398 109.057 42.9319 109.057C37.3241 109.057 32.778 109.787 32.778 110.689Z" fill="#D39E00"/>
<path d="M34.2266 110.689C34.2266 111.189 38.2045 111.595 43.1112 111.595C48.0183 111.595 51.9961 111.189 51.9961 110.689C51.9961 110.188 48.0183 109.782 43.1112 109.782C38.2045 109.782 34.2266 110.188 34.2266 110.689Z" fill="#F6C854"/>
<path fill-rule="evenodd" clip-rule="evenodd" d="M42.9297 109.42C38.3381 109.423 34.5997 109.622 34.2263 110.508C34.2263 110.508 34.7407 109.983 42.9297 109.42Z" fill="white"/>
<path d="M51.6328 110.508C51.6328 111.109 47.6966 111.596 42.841 111.596C40.0995 111.596 37.6808 111.444 36.0392 111.197C51.6615 111.273 51.6328 110.508 51.6328 110.508Z" fill="#F6C854"/>
<path fill-rule="evenodd" clip-rule="evenodd" d="M52.1514 110.878C50.7531 112.069 44.2657 112.275 42.0441 112.32C39.9796 112.335 34.6807 112.269 31.9769 110.793C31.9769 110.793 31.4751 109.43 31.7959 108.122C31.7959 108.122 51.732 106.147 52.1973 108.122C52.5871 109.775 52.1514 110.878 52.1514 110.878Z" fill="#F6C854"/>
<path fill-rule="evenodd" clip-rule="evenodd" d="M31.7965 108.374C31.7965 108.374 31.963 108.358 32.2627 108.332C32.1537 109.389 32.5321 110.352 32.5321 110.352C35.2523 111.739 40.5833 111.801 42.6604 111.787C44.7045 111.749 50.3352 111.583 52.3594 110.699C52.3151 110.87 52.2757 110.965 52.2757 110.965C50.869 112.084 44.3421 112.278 42.1068 112.32C40.0299 112.334 34.6987 112.272 31.9787 110.885C31.9787 110.885 31.4738 109.603 31.7965 108.374Z" fill="#F6C854"/>
<path d="M32.0639 108.694C32.0281 108.996 32.0161 109.298 32.0096 109.6C32.0061 109.902 32.0083 110.205 32.0345 110.508C32.0704 110.206 32.0824 109.904 32.0888 109.602C32.0921 109.299 32.0899 108.997 32.0639 108.694Z" fill="#D39E00"/>
<path d="M32.7905 109.057C32.7547 109.359 32.7427 109.661 32.7362 109.963C32.7327 110.265 32.7349 110.568 32.7609 110.87C32.797 110.569 32.809 110.266 32.8153 109.964C32.8187 109.662 32.8164 109.36 32.7905 109.057Z" fill="#D39E00"/>
<path d="M33.5143 109.42C33.4794 109.721 33.4683 110.024 33.4628 110.326C33.4603 110.628 33.4634 110.93 33.4905 111.233C33.5253 110.931 33.5366 110.629 33.5418 110.327C33.5442 110.025 33.541 109.722 33.5143 109.42Z" fill="#D39E00"/>
<path d="M34.2391 109.42C34.2036 109.722 34.1917 110.024 34.1854 110.326C34.1822 110.628 34.1846 110.93 34.2109 111.233C34.2467 110.931 34.2585 110.629 34.2645 110.327C34.2676 110.025 34.2652 109.723 34.2391 109.42Z" fill="#D39E00"/>
<path d="M34.9655 109.782C34.9301 110.084 34.9182 110.386 34.912 110.688C34.9087 110.99 34.9111 111.293 34.9375 111.595C34.9731 111.294 34.985 110.992 34.991 110.689C34.9942 110.387 34.9917 110.085 34.9655 109.782Z" fill="#D39E00"/>
<path fill-rule="evenodd" clip-rule="evenodd" d="M31.6881 108.15C31.6881 109.052 36.2342 109.782 41.8421 109.782C47.45 109.782 51.9961 109.052 51.9961 108.15C51.9961 107.249 47.45 106.519 41.8421 106.519C36.2342 106.519 31.6881 107.249 31.6881 108.15Z" fill="#D39E00"/>
<path d="M33.1368 108.151C33.1368 108.651 37.1147 109.057 42.0214 109.057C46.9285 109.057 50.9062 108.651 50.9062 108.151C50.9062 107.65 46.9285 107.244 42.0214 107.244C37.1147 107.244 33.1368 107.65 33.1368 108.151Z" fill="#F6C854"/>
<path fill-rule="evenodd" clip-rule="evenodd" d="M41.8438 107.244C37.2521 107.247 33.5137 107.446 33.1403 108.332C33.1403 108.332 33.6547 107.807 41.8438 107.244Z" fill="white"/>
<path d="M50.5469 107.969C50.5469 108.57 46.6106 109.057 41.755 109.057C39.0136 109.057 36.5948 108.905 34.9533 108.659C50.5756 108.735 50.5469 107.969 50.5469 107.969Z" fill="#F6C854"/>
<path fill-rule="evenodd" clip-rule="evenodd" d="M53.6006 108.339C52.2024 109.531 45.7151 109.736 43.4933 109.781C41.4288 109.796 36.1299 109.73 33.4261 108.254C33.4261 108.254 32.9244 106.891 33.2451 105.583C33.2451 105.583 53.1812 103.609 53.6465 105.583C54.0363 107.236 53.6006 108.339 53.6006 108.339Z" fill="#F6C854"/>
<path fill-rule="evenodd" clip-rule="evenodd" d="M33.2457 105.835C33.2457 105.835 33.4122 105.82 33.7119 105.793C33.6029 106.85 33.9813 107.813 33.9813 107.813C36.7015 109.201 42.0325 109.262 44.1096 109.248C46.1538 109.21 51.7844 109.044 53.8086 108.16C53.7643 108.332 53.7249 108.426 53.7249 108.426C52.3182 109.546 45.7914 109.739 43.556 109.781C41.4791 109.795 36.1479 109.733 33.4279 108.346C33.4279 108.346 32.9231 107.064 33.2457 105.835Z" fill="#F6C854"/>
<path d="M33.517 106.156C33.4813 106.458 33.4692 106.76 33.4627 107.062C33.4593 107.364 33.4615 107.667 33.4876 107.969C33.5235 107.668 33.5356 107.365 33.5419 107.063C33.5452 106.761 33.543 106.459 33.517 106.156Z" fill="#D39E00"/>
<path d="M34.2397 106.519C34.2039 106.82 34.1919 107.122 34.1854 107.425C34.1819 107.727 34.1841 108.029 34.2102 108.332C34.2462 108.03 34.2582 107.728 34.2645 107.426C34.2679 107.124 34.2657 106.821 34.2397 106.519Z" fill="#D39E00"/>
<path d="M34.9634 106.881C34.9286 107.183 34.9175 107.485 34.912 107.787C34.9094 108.09 34.9126 108.392 34.9397 108.695C34.9747 108.393 34.9858 108.091 34.9911 107.788C34.9934 107.486 34.9902 107.184 34.9634 106.881Z" fill="#D39E00"/>
<path d="M35.6921 106.881C35.6567 107.183 35.6448 107.485 35.6386 107.787C35.6353 108.09 35.6377 108.392 35.6639 108.695C35.6997 108.393 35.7116 108.091 35.7176 107.789C35.7208 107.486 35.7182 107.184 35.6921 106.881Z" fill="#D39E00"/>
<path d="M36.4148 107.244C36.3793 107.546 36.3674 107.848 36.3613 108.15C36.3579 108.452 36.3603 108.755 36.3867 109.057C36.4224 108.756 36.4342 108.454 36.4403 108.151C36.4434 107.849 36.4409 107.547 36.4148 107.244Z" fill="#D39E00"/>
<path fill-rule="evenodd" clip-rule="evenodd" d="M33.1373 105.612C33.1373 106.513 37.6834 107.244 43.2913 107.244C48.8992 107.244 53.4453 106.513 53.4453 105.612C53.4453 104.71 48.8992 103.98 43.2913 103.98C37.6834 103.98 33.1373 104.71 33.1373 105.612Z" fill="#D39E00"/>
<path d="M34.2266 105.612C34.2266 106.113 38.2045 106.519 43.1111 106.519C48.0182 106.519 51.9961 106.113 51.9961 105.612C51.9961 105.112 48.0182 104.706 43.1111 104.706C38.2045 104.706 34.2266 105.112 34.2266 105.612Z" fill="#F6C854"/>
<path fill-rule="evenodd" clip-rule="evenodd" d="M43.2891 104.706C38.6974 104.709 34.9592 104.908 34.5856 105.793C34.5856 105.793 35.1 105.269 43.2891 104.706Z" fill="white"/>
<path d="M51.9961 105.431C51.9961 106.031 48.0598 106.519 43.2043 106.519C40.4628 106.519 38.044 106.366 36.4025 106.12C52.0248 106.196 51.9961 105.431 51.9961 105.431Z" fill="#F6C854"/>
<path fill-rule="evenodd" clip-rule="evenodd" d="M52.5107 106.163C51.1125 107.355 44.6251 107.56 42.4033 107.605C40.339 107.62 35.0401 107.554 32.3364 106.079C32.3364 106.079 31.8344 104.715 32.1553 103.407C32.1553 103.407 52.0914 101.433 52.5567 103.407C52.9465 105.06 52.5107 106.163 52.5107 106.163Z" fill="#F6C854"/>
<path fill-rule="evenodd" clip-rule="evenodd" d="M32.156 103.659C32.156 103.659 32.3224 103.644 32.6222 103.617C32.5131 104.674 32.8915 105.637 32.8915 105.637C35.6117 107.024 40.9429 107.086 43.0198 107.072C45.0639 107.034 50.6945 106.868 52.7188 105.984C52.6744 106.156 52.635 106.25 52.635 106.25C51.2283 107.37 44.7015 107.563 42.4662 107.605C40.3893 107.619 35.0583 107.557 32.3381 106.17C32.3381 106.17 31.8331 104.889 32.156 103.659Z" fill="#F6C854"/>
<path fill-rule="evenodd" clip-rule="evenodd" d="M32.0514 103.436C32.0514 104.337 36.5975 105.068 42.2054 105.068C47.8133 105.068 52.3594 104.337 52.3594 103.436C52.3594 102.535 47.8133 101.804 42.2054 101.804C36.5975 101.804 32.0514 102.535 32.0514 103.436Z" fill="#D39E00"/>
<path d="M33.1368 103.436C33.1368 103.937 37.1146 104.343 42.0213 104.343C46.9284 104.343 50.9062 103.937 50.9062 103.436C50.9062 102.936 46.9284 102.53 42.0213 102.53C37.1146 102.53 33.1368 102.936 33.1368 103.436Z" fill="#F6C854"/>
<path fill-rule="evenodd" clip-rule="evenodd" d="M42.2031 102.53C37.6115 102.533 33.8733 102.732 33.4997 103.618C33.4997 103.618 34.0141 103.093 42.2031 102.53Z" fill="white"/>
<path d="M50.9062 103.255C50.9062 103.856 46.97 104.343 42.1144 104.343C39.373 104.343 36.9542 104.191 35.3126 103.944C50.9349 104.02 50.9062 103.255 50.9062 103.255Z" fill="#F6C854"/>
<path fill-rule="evenodd" clip-rule="evenodd" d="M52.5107 103.625C51.1125 104.816 44.6251 105.022 42.4033 105.066C40.339 105.081 35.0401 105.016 32.3364 103.54C32.3364 103.54 31.8344 102.177 32.1553 100.868C32.1553 100.868 52.0914 98.8941 52.5567 100.868C52.9465 102.522 52.5107 103.625 52.5107 103.625Z" fill="#F6C854"/>
<path fill-rule="evenodd" clip-rule="evenodd" d="M32.156 101.121C32.156 101.121 32.3224 101.105 32.6222 101.079C32.5131 102.136 32.8915 103.099 32.8915 103.099C35.6117 104.486 40.9429 104.548 43.0198 104.534C45.0639 104.496 50.6945 104.33 52.7188 103.446C52.6744 103.617 52.635 103.712 52.635 103.712C51.2283 104.831 44.7015 105.025 42.4662 105.067C40.3893 105.081 35.0583 105.019 32.3381 103.632C32.3381 103.632 31.8331 102.35 32.156 101.121Z" fill="#F6C854"/>
<path fill-rule="evenodd" clip-rule="evenodd" d="M32.0514 100.897C32.0514 101.799 36.5975 102.529 42.2054 102.529C47.8133 102.529 52.3594 101.799 52.3594 100.897C52.3594 99.9961 47.8133 99.2656 42.2054 99.2656C36.5975 99.2656 32.0514 99.9961 32.0514 100.897Z" fill="#D39E00"/>
<path d="M33.1368 100.898C33.1368 101.398 37.1146 101.804 42.0213 101.804C46.9284 101.804 50.9062 101.398 50.9062 100.898C50.9062 100.397 46.9284 99.9912 42.0213 99.9912C37.1146 99.9912 33.1368 100.397 33.1368 100.898Z" fill="#F6C854"/>
<path fill-rule="evenodd" clip-rule="evenodd" d="M42.2031 99.9912C37.6115 99.9945 33.8733 100.193 33.4997 101.079C33.4997 101.079 34.0141 100.554 42.2031 99.9912Z" fill="white"/>
<path d="M50.9062 100.716C50.9062 101.317 46.97 101.804 42.1144 101.804C39.373 101.804 36.9542 101.652 35.3126 101.406C50.9349 101.482 50.9062 100.716 50.9062 100.716Z" fill="#F6C854"/>
<path fill-rule="evenodd" clip-rule="evenodd" d="M53.2373 101.449C51.8391 102.641 45.3517 102.846 43.13 102.891C41.0655 102.906 35.7666 102.84 33.0629 101.364C33.0629 101.364 32.5611 100.001 32.8818 98.6929C32.8818 98.6929 52.8179 96.7186 53.2832 98.6929C53.673 100.346 53.2373 101.449 53.2373 101.449Z" fill="#F6C854"/>
<path fill-rule="evenodd" clip-rule="evenodd" d="M32.8825 98.9449C32.8825 98.9449 33.0489 98.9295 33.3487 98.9033C33.2398 99.9603 33.618 100.923 33.618 100.923C36.3382 102.31 41.6694 102.372 43.7463 102.358C45.7906 102.32 51.4211 102.154 53.4453 101.27C53.4012 101.441 53.3616 101.536 53.3616 101.536C51.9549 102.656 45.4281 102.849 43.1929 102.891C41.1159 102.905 35.7848 102.843 33.0646 101.456C33.0646 101.456 32.5598 100.174 32.8825 98.9449Z" fill="#F6C854"/>
<path fill-rule="evenodd" clip-rule="evenodd" d="M32.778 98.7217C32.778 99.6229 37.3241 100.354 42.9319 100.354C48.5398 100.354 53.0859 99.6229 53.0859 98.7217C53.0859 97.8203 48.5398 97.0898 42.9319 97.0898C37.3241 97.0898 32.778 97.8203 32.778 98.7217Z" fill="#D39E00"/>
<path d="M34.2266 98.7219C34.2266 99.2227 38.2045 99.6286 43.1112 99.6286C48.0183 99.6286 51.9961 99.2227 51.9961 98.7219C51.9961 98.2214 48.0183 97.8154 43.1112 97.8154C38.2045 97.8154 34.2266 98.2214 34.2266 98.7219Z" fill="#F6C854"/>
<path fill-rule="evenodd" clip-rule="evenodd" d="M42.9297 97.8154C38.3381 97.8189 34.5997 98.0177 34.2263 98.9034C34.2263 98.9034 34.7407 98.3785 42.9297 97.8154Z" fill="white"/>
<path d="M51.6328 98.5405C51.6328 99.1414 47.6966 99.6285 42.841 99.6285C40.0995 99.6285 37.6808 99.4764 36.0392 99.2301C51.6615 99.306 51.6328 98.5405 51.6328 98.5405Z" fill="#F6C854"/>
<path fill-rule="evenodd" clip-rule="evenodd" d="M51.7881 99.273C50.3899 100.464 43.9025 100.67 41.6806 100.715C39.6163 100.73 34.3174 100.664 31.6136 99.1881C31.6136 99.1881 31.1119 97.8247 31.4326 96.5166C31.4326 96.5166 51.3687 94.5424 51.834 96.5166C52.2238 98.17 51.7881 99.273 51.7881 99.273Z" fill="#F6C854"/>
<path fill-rule="evenodd" clip-rule="evenodd" d="M31.4332 96.7686C31.4332 96.7686 31.5997 96.7532 31.8994 96.7271C31.7906 97.7841 32.1688 98.747 32.1688 98.747C34.889 100.134 40.2202 100.196 42.2971 100.182C44.3413 100.144 49.9719 99.9781 51.9961 99.0938C51.9518 99.2653 51.9124 99.3596 51.9124 99.3596C50.5057 100.479 43.9789 100.673 41.7435 100.715C39.6666 100.729 34.3356 100.667 31.6154 99.2796C31.6154 99.2796 31.1106 97.9981 31.4332 96.7686Z" fill="#F6C854"/>
<path fill-rule="evenodd" clip-rule="evenodd" d="M31.6881 96.5458C31.6881 97.4472 36.2342 98.1778 41.8421 98.1778C47.45 98.1778 51.9961 97.4472 51.9961 96.5458C51.9961 95.6444 47.45 94.9141 41.8421 94.9141C36.2342 94.9141 31.6881 95.6444 31.6881 96.5458Z" fill="#D39E00"/>
<path d="M32.7774 96.5457C32.7774 97.0463 36.7553 97.4524 41.6619 97.4524C46.569 97.4524 50.5469 97.0463 50.5469 96.5457C50.5469 96.0452 46.569 95.6392 41.6619 95.6392C36.7553 95.6392 32.7774 96.0452 32.7774 96.5457Z" fill="#F6C854"/>
<path fill-rule="evenodd" clip-rule="evenodd" d="M41.4805 95.6394C36.8889 95.6429 33.1506 95.8416 32.7771 96.7273C32.7771 96.7273 33.2915 96.2024 41.4805 95.6394Z" fill="white"/>
<path d="M50.5469 96.3647C50.5469 96.9655 46.6106 97.4527 41.755 97.4527C39.0136 97.4527 36.5948 97.3005 34.9533 97.0542C50.5756 97.13 50.5469 96.3647 50.5469 96.3647Z" fill="#F6C854"/>
<path fill-rule="evenodd" clip-rule="evenodd" d="M52.5107 96.7347C51.1125 97.926 44.6251 98.1317 42.4033 98.1763C40.339 98.1912 35.0401 98.1254 32.3364 96.6498C32.3364 96.6498 31.8344 95.2865 32.1553 93.9782C32.1553 93.9782 52.0914 92.0041 52.5567 93.9782C52.9465 95.6316 52.5107 96.7347 52.5107 96.7347Z" fill="#F6C854"/>
<path fill-rule="evenodd" clip-rule="evenodd" d="M32.156 94.2301C32.156 94.2301 32.3224 94.2148 32.6222 94.1887C32.5131 95.2458 32.8915 96.2085 32.8915 96.2085C35.6117 97.5959 40.9429 97.6577 43.0198 97.6436C45.0639 97.6053 50.6945 97.4396 52.7188 96.5555C52.6744 96.7268 52.635 96.8212 52.635 96.8212C51.2283 97.9409 44.7015 98.1345 42.4662 98.1764C40.3893 98.1904 35.0583 98.1285 32.3381 96.7413C32.3381 96.7413 31.8331 95.4597 32.156 94.2301Z" fill="#F6C854"/>
<path fill-rule="evenodd" clip-rule="evenodd" d="M32.0514 94.0071C32.0514 94.9085 36.5975 95.6393 42.2054 95.6393C47.8133 95.6393 52.3594 94.9085 52.3594 94.0071C52.3594 93.1059 47.8133 92.3755 42.2054 92.3755C36.5975 92.3755 32.0514 93.1059 32.0514 94.0071Z" fill="#D39E00"/>
<path d="M33.1368 94.0075C33.1368 94.5084 37.1146 94.9143 42.0213 94.9143C46.9284 94.9143 50.9062 94.5084 50.9062 94.0075C50.9062 93.507 46.9284 93.1011 42.0213 93.1011C37.1146 93.1011 33.1368 93.507 33.1368 94.0075Z" fill="#F6C854"/>
<path fill-rule="evenodd" clip-rule="evenodd" d="M42.2031 93.1011C37.6115 93.1044 33.8733 93.3032 33.4997 94.189C33.4997 94.189 34.0141 93.6641 42.2031 93.1011Z" fill="white"/>
<path d="M50.9062 93.8262C50.9062 94.4271 46.97 94.9141 42.1144 94.9141C39.373 94.9141 36.9542 94.7621 35.3126 94.5158C50.9349 94.5914 50.9062 93.8262 50.9062 93.8262Z" fill="#F6C854"/>
<path fill-rule="evenodd" clip-rule="evenodd" d="M51.4248 94.5589C50.0266 95.7502 43.5393 95.956 41.3175 96.0005C39.253 96.0154 33.9541 95.9496 31.2504 94.474C31.2504 94.474 30.7486 93.1106 31.0693 91.8026C31.0693 91.8026 51.0054 89.8282 51.4707 91.8026C51.8605 93.4558 51.4248 94.5589 51.4248 94.5589Z" fill="#F6C854"/>
<path fill-rule="evenodd" clip-rule="evenodd" d="M31.07 92.0545C31.07 92.0545 31.2364 92.039 31.5362 92.0129C31.4273 93.07 31.8057 94.0329 31.8057 94.0329C34.5257 95.4201 39.8569 95.482 41.9338 95.4679C43.9781 95.4296 49.6086 95.264 51.6328 94.3797C51.5887 94.551 51.5491 94.6455 51.5491 94.6455C50.1425 95.7651 43.6157 95.9587 41.3804 96.0006C39.3034 96.0146 33.9723 95.9527 31.2521 94.5655C31.2521 94.5655 30.7473 93.284 31.07 92.0545Z" fill="#F6C854"/>
<path fill-rule="evenodd" clip-rule="evenodd" d="M31.3248 91.8315C31.3248 92.7327 35.8709 93.4635 41.4788 93.4635C47.0867 93.4635 51.6328 92.7327 51.6328 91.8315C51.6328 90.9301 47.0867 90.1997 41.4788 90.1997C35.8709 90.1997 31.3248 90.9301 31.3248 91.8315Z" fill="#D39E00"/>
<path d="M32.4102 91.8313C32.4102 92.3321 36.3881 92.738 41.2948 92.738C46.2019 92.738 50.1797 92.3321 50.1797 91.8313C50.1797 91.3307 46.2019 90.9248 41.2948 90.9248C36.3881 90.9248 32.4102 91.3307 32.4102 91.8313Z" fill="#F6C854"/>
<path fill-rule="evenodd" clip-rule="evenodd" d="M41.1172 90.9248C36.5256 90.9281 32.7873 91.1271 32.4138 92.0127C32.4138 92.0127 32.9282 91.4879 41.1172 90.9248Z" fill="white"/>
<path d="M50.1797 91.6504C50.1797 92.2513 46.2434 92.7383 41.3878 92.7383C38.6464 92.7383 36.2276 92.5863 34.5861 92.34C50.2084 92.4158 50.1797 91.6504 50.1797 91.6504Z" fill="#F6C854"/>
<path fill-rule="evenodd" clip-rule="evenodd" d="M52.8779 92.3829C51.4797 93.5743 44.9923 93.7801 42.7706 93.8245C40.7061 93.8395 35.4073 93.7736 32.7035 92.298C32.7035 92.298 32.2017 90.9346 32.5224 89.6265C32.5224 89.6265 52.4586 87.6522 52.9239 89.6265C53.3136 91.2799 52.8779 92.3829 52.8779 92.3829Z" fill="#F6C854"/>
<path fill-rule="evenodd" clip-rule="evenodd" d="M32.1559 89.8787C32.1559 89.8787 32.3224 89.8634 32.6221 89.8372C32.5132 90.8942 32.8915 91.8571 32.8915 91.8571C35.6117 93.2443 40.9429 93.3062 43.0198 93.2921C45.0641 93.2539 50.6945 93.0882 52.7188 92.2039C52.6746 92.3752 52.635 92.4697 52.635 92.4697C51.2283 93.5894 44.7015 93.783 42.4664 93.8248C40.3893 93.8389 35.0582 93.7769 32.338 92.3897C32.338 92.3897 31.8332 91.1082 32.1559 89.8787Z" fill="#F6C854"/>
<path fill-rule="evenodd" clip-rule="evenodd" d="M32.4108 89.6557C32.4108 90.557 36.9569 91.2877 42.5648 91.2877C48.1726 91.2877 52.7188 90.557 52.7188 89.6557C52.7188 88.7544 48.1726 88.0239 42.5648 88.0239C36.9569 88.0239 32.4108 88.7544 32.4108 89.6557Z" fill="#D39E00"/>
<path fill-rule="evenodd" clip-rule="evenodd" d="M37.6436 120.307C36.2453 121.498 29.7579 121.704 27.5361 121.748C25.4717 121.763 20.1729 121.697 17.4691 120.222C17.4691 120.222 16.9673 118.859 17.2881 117.55C17.2881 117.55 37.2242 115.576 37.6895 117.55C38.0793 119.204 37.6436 120.307 37.6436 120.307Z" fill="#F6C854"/>
<path fill-rule="evenodd" clip-rule="evenodd" d="M16.9293 117.802C16.9293 117.802 17.0958 117.787 17.3955 117.761C17.2867 118.818 17.6649 119.781 17.6649 119.781C20.3851 121.168 25.7161 121.23 27.7932 121.216C29.8374 121.177 35.468 121.012 37.4922 120.127C37.448 120.299 37.4085 120.393 37.4085 120.393C36.0018 121.513 29.475 121.706 27.2396 121.748C25.1627 121.762 19.8317 121.701 17.1115 120.313C17.1115 120.313 16.6067 119.032 16.9293 117.802Z" fill="#F6C854"/>
<path fill-rule="evenodd" clip-rule="evenodd" d="M17.1842 117.579C17.1842 118.48 21.7303 119.211 27.3382 119.211C32.9461 119.211 37.4922 118.48 37.4922 117.579C37.4922 116.678 32.9461 115.947 27.3382 115.947C21.7303 115.947 17.1842 116.678 17.1842 117.579Z" fill="#D39E00"/>
<path d="M18.2696 117.579C18.2696 118.08 22.2475 118.486 27.1541 118.486C32.0612 118.486 36.0391 118.08 36.0391 117.579C36.0391 117.079 32.0612 116.673 27.1541 116.673C22.2475 116.673 18.2696 117.079 18.2696 117.579Z" fill="#F6C854"/>
<path fill-rule="evenodd" clip-rule="evenodd" d="M26.9727 116.31C22.381 116.313 18.6428 116.512 18.2692 117.398C18.2692 117.398 18.7836 116.873 26.9727 116.31Z" fill="white"/>
<path d="M36.0391 117.398C36.0391 117.999 32.1028 118.486 27.2472 118.486C24.5058 118.486 22.087 118.334 20.4454 118.088C36.0677 118.163 36.0391 117.398 36.0391 117.398Z" fill="#F6C854"/>
<path fill-rule="evenodd" clip-rule="evenodd" d="M36.1943 118.13C34.7961 119.322 28.3088 119.527 26.0871 119.572C24.0226 119.587 18.7236 119.521 16.02 118.046C16.02 118.046 15.5181 116.682 15.8388 115.374C15.8388 115.374 35.775 113.4 36.2403 115.374C36.63 117.027 36.1943 118.13 36.1943 118.13Z" fill="#F6C854"/>
<path fill-rule="evenodd" clip-rule="evenodd" d="M15.8395 115.626C15.8395 115.626 16.0061 115.611 16.3057 115.584C16.1968 116.642 16.575 117.604 16.575 117.604C19.2954 118.992 24.6264 119.053 26.7033 119.039C28.7476 119.001 34.378 118.836 36.4023 117.951C36.358 118.123 36.3186 118.217 36.3186 118.217C34.9119 119.337 28.385 119.53 26.1499 119.572C24.0728 119.586 18.7418 119.524 16.0216 118.137C16.0216 118.137 15.5168 116.856 15.8395 115.626Z" fill="#F6C854"/>
<path fill-rule="evenodd" clip-rule="evenodd" d="M15.7311 115.403C15.7311 116.305 20.2772 117.035 25.885 117.035C31.4928 117.035 36.0391 116.305 36.0391 115.403C36.0391 114.502 31.4928 113.771 25.885 113.771C20.2772 113.771 15.7311 114.502 15.7311 115.403Z" fill="#D39E00"/>
<path d="M16.8165 115.403C16.8165 115.904 20.7942 116.31 25.701 116.31C30.6082 116.31 34.5859 115.904 34.5859 115.403C34.5859 114.903 30.6082 114.497 25.701 114.497C20.7942 114.497 16.8165 114.903 16.8165 115.403Z" fill="#F6C854"/>
<path fill-rule="evenodd" clip-rule="evenodd" d="M25.8867 114.134C21.295 114.137 17.5567 114.336 17.1833 115.222C17.1833 115.222 17.6977 114.697 25.8867 114.134Z" fill="white"/>
<path d="M34.5859 115.222C34.5859 115.823 30.6497 116.31 25.7941 116.31C23.0527 116.31 20.6337 116.158 18.9923 115.912C34.6146 115.987 34.5859 115.222 34.5859 115.222Z" fill="#F6C854"/>
<path fill-rule="evenodd" clip-rule="evenodd" d="M37.2842 115.592C35.886 116.784 29.3986 116.99 27.1767 117.034C25.1124 117.049 19.8135 116.983 17.1097 115.507C17.1097 115.507 16.608 114.144 16.9287 112.836C16.9287 112.836 36.8648 110.862 37.3301 112.836C37.7199 114.489 37.2842 115.592 37.2842 115.592Z" fill="#F6C854"/>
<path fill-rule="evenodd" clip-rule="evenodd" d="M16.9293 113.088C16.9293 113.088 17.096 113.073 17.3955 113.046C17.2867 114.103 17.6649 115.066 17.6649 115.066C20.3852 116.454 25.7162 116.515 27.7931 116.501C29.8374 116.463 35.4678 116.297 37.4922 115.413C37.4479 115.585 37.4083 115.679 37.4083 115.679C36.0018 116.799 29.4749 116.992 27.2396 117.034C25.1627 117.048 19.8317 116.986 17.1115 115.599C17.1115 115.599 16.6067 114.317 16.9293 113.088Z" fill="#F6C854"/>
<path fill-rule="evenodd" clip-rule="evenodd" d="M16.817 112.865C16.817 113.766 21.3631 114.497 26.971 114.497C32.5789 114.497 37.125 113.766 37.125 112.865C37.125 111.963 32.5789 111.233 26.971 111.233C21.3631 111.233 16.817 111.963 16.817 112.865Z" fill="#D39E00"/>
<path d="M17.9063 112.865C17.9063 113.366 21.8841 113.772 26.7907 113.772C31.698 113.772 35.6758 113.366 35.6758 112.865C35.6758 112.365 31.698 111.958 26.7907 111.958C21.8841 111.958 17.9063 112.365 17.9063 112.865Z" fill="#F6C854"/>
<path fill-rule="evenodd" clip-rule="evenodd" d="M26.9727 111.958C22.381 111.962 18.6426 112.16 18.2692 113.046C18.2692 113.046 18.7836 112.521 26.9727 111.958Z" fill="white"/>
<path d="M35.6758 112.684C35.6758 113.284 31.7397 113.772 26.8839 113.772C24.1425 113.772 21.7237 113.619 20.0822 113.373C35.7045 113.449 35.6758 112.684 35.6758 112.684Z" fill="#F6C854"/>
<path fill-rule="evenodd" clip-rule="evenodd" d="M36.917 113.054C35.5188 114.245 29.0315 114.451 26.8097 114.495C24.7453 114.51 19.4462 114.444 16.7425 112.969C16.7425 112.969 16.2408 111.605 16.5615 110.297C16.5615 110.297 36.4976 108.323 36.9629 110.297C37.3527 111.95 36.917 113.054 36.917 113.054Z" fill="#F6C854"/>
<path fill-rule="evenodd" clip-rule="evenodd" d="M16.5622 110.549C16.5622 110.549 16.7286 110.534 17.0282 110.508C16.9193 111.565 17.2977 112.528 17.2977 112.528C20.0179 113.915 25.349 113.977 27.4259 113.963C29.4702 113.924 35.1008 113.759 37.125 112.875C37.0807 113.046 37.0413 113.14 37.0413 113.14C35.6346 114.26 29.1078 114.454 26.8725 114.495C24.7956 114.509 19.4644 114.448 16.7442 113.06C16.7442 113.06 16.2395 111.779 16.5622 110.549Z" fill="#F6C854"/>
<path fill-rule="evenodd" clip-rule="evenodd" d="M16.4576 110.326C16.4576 111.227 21.0037 111.958 26.6115 111.958C32.2195 111.958 36.7656 111.227 36.7656 110.326C36.7656 109.425 32.2195 108.694 26.6115 108.694C21.0037 108.694 16.4576 109.425 16.4576 110.326Z" fill="#D39E00"/>
<path d="M17.9063 110.326C17.9063 110.827 21.8841 111.233 26.7909 111.233C31.698 111.233 35.6758 110.827 35.6758 110.326C35.6758 109.826 31.698 109.42 26.7909 109.42C21.8841 109.42 17.9063 109.826 17.9063 110.326Z" fill="#F6C854"/>
<path fill-rule="evenodd" clip-rule="evenodd" d="M26.6094 109.42C22.0176 109.423 18.2795 109.622 17.906 110.508C17.906 110.508 18.4204 109.983 26.6094 109.42Z" fill="white"/>
<path d="M35.3125 110.145C35.3125 110.746 31.3762 111.233 26.5206 111.233C23.7793 111.233 21.3603 111.081 19.7189 110.835C35.3412 110.91 35.3125 110.145 35.3125 110.145Z" fill="#F6C854"/>
<path fill-rule="evenodd" clip-rule="evenodd" d="M37.6436 110.515C36.2453 111.707 29.7581 111.912 27.5363 111.957C25.4719 111.972 20.1729 111.906 17.4691 110.43C17.4691 110.43 16.9673 109.067 17.2881 107.759C17.2881 107.759 37.2242 105.784 37.6895 107.759C38.0793 109.412 37.6436 110.515 37.6436 110.515Z" fill="#F6C854"/>
<path fill-rule="evenodd" clip-rule="evenodd" d="M17.2887 108.011C17.2887 108.011 17.4552 107.995 17.7548 107.969C17.6461 109.026 18.0243 109.989 18.0243 109.989C20.7445 111.376 26.0755 111.438 28.1524 111.424C30.1967 111.386 35.8274 111.22 37.8516 110.336C37.8073 110.507 37.7678 110.602 37.7678 110.602C36.3611 111.722 29.8343 111.915 27.599 111.957C25.5221 111.971 20.1911 111.909 17.4707 110.522C17.4707 110.522 16.9661 109.24 17.2887 108.011Z" fill="#F6C854"/>
<path fill-rule="evenodd" clip-rule="evenodd" d="M17.5436 107.788C17.5436 108.689 22.0897 109.42 27.6976 109.42C33.3055 109.42 37.8516 108.689 37.8516 107.788C37.8516 106.886 33.3055 106.156 27.6976 106.156C22.0897 106.156 17.5436 106.886 17.5436 107.788Z" fill="#D39E00"/>
<path fill-rule="evenodd" clip-rule="evenodd" d="M18.6329 107.788C18.6329 108.289 22.6108 108.695 27.5174 108.695C32.4246 108.695 36.4023 108.289 36.4023 107.788C36.4023 107.287 32.4246 106.881 27.5174 106.881C22.6108 106.881 18.6329 107.287 18.6329 107.788Z" fill="#F6C854"/>
<path fill-rule="evenodd" clip-rule="evenodd" d="M33.5001 89.6555C33.5001 90.1563 37.478 90.5622 42.3846 90.5622C47.2918 90.5622 51.2695 90.1563 51.2695 89.6555C51.2695 89.1551 47.2918 88.749 42.3846 88.749C37.478 88.749 33.5001 89.1551 33.5001 89.6555Z" fill="#F6C854"/>
<path fill-rule="evenodd" clip-rule="evenodd" d="M18.6325 107.969C18.6325 107.969 19.1469 107.444 27.3359 106.881C22.7442 106.885 19.0061 107.084 18.6325 107.969Z" fill="#FFE99F"/>
<path fill-rule="evenodd" clip-rule="evenodd" d="M36.4023 107.969C36.4023 108.57 32.4661 109.057 27.6104 109.057C24.8691 109.057 22.4501 108.905 20.8087 108.659C36.431 108.735 36.4023 107.969 36.4023 107.969Z" fill="#FFE99F"/>
<path fill-rule="evenodd" clip-rule="evenodd" d="M33.4997 89.837C33.4997 89.837 34.0141 89.3121 42.2031 88.749C37.6114 88.7525 33.8733 88.9513 33.4997 89.837Z" fill="#FFE99F"/>
<path fill-rule="evenodd" clip-rule="evenodd" d="M50.9062 89.8369C50.9062 90.4378 46.97 90.9248 42.1143 90.9248C39.373 90.9248 36.9541 90.7728 35.3126 90.5265C50.9349 90.6024 50.9062 89.8369 50.9062 89.8369Z" fill="#FFE99F"/>
</svg>
