<svg width="160" height="160" viewBox="0 0 160 160" fill="none" xmlns="http://www.w3.org/2000/svg">
<path fill-rule="evenodd" clip-rule="evenodd" d="M99.1795 33.7758C107.327 42.4423 118.122 48.0986 129.82 50.2245C136.921 51.5149 143.715 54.9064 149.205 60.3992C163.584 74.7858 163.601 97.9861 149.241 112.392C142.906 118.747 134.828 122.299 126.546 123.047C119.455 123.688 112.792 126.784 107.873 131.935C107.809 132.001 107.746 132.067 107.682 132.132C99.2892 140.7 85.7133 140.785 77.2191 132.319C77.1704 132.27 77.1221 132.222 77.0743 132.173C74.8053 129.868 71.5302 128.862 68.3568 129.479C50.264 132.995 30.8065 127.741 16.7932 113.716C-5.59775 91.3068 -5.59775 54.908 16.7932 32.4983C39.2022 10.0711 75.5331 10.0712 97.9415 32.4986C98.3622 32.9195 98.7749 33.3453 99.1795 33.7758Z" fill="#DEEDF2"/>
<path fill-rule="evenodd" clip-rule="evenodd" d="M156.339 149.43C156.339 153.677 122.243 157.119 80.183 157.119C38.1233 157.119 4.02734 153.677 4.02734 149.43C4.02734 145.183 38.1233 141.741 80.183 141.741C122.243 141.741 156.339 145.183 156.339 149.43Z" fill="#9BC3D3"/>
<path fill-rule="evenodd" clip-rule="evenodd" d="M79.4507 151.627C79.4507 152.638 75.9264 153.458 71.5789 153.458C67.2314 153.458 63.707 152.638 63.707 151.627C63.707 150.616 67.2314 149.796 71.5789 149.796C75.9264 149.796 79.4507 150.616 79.4507 151.627Z" fill="#CEDEE7"/>
<path fill-rule="evenodd" clip-rule="evenodd" d="M47.7298 61.3269C45.8319 60.3677 44.4395 58.4758 44.1984 56.1821C43.8237 52.6173 46.3711 49.4234 49.8835 49.0543C53.3018 48.695 56.3824 51.1428 56.8902 54.5603C56.9386 54.7669 56.9746 54.9789 56.9973 55.1955L56.9974 55.1962C57.0156 55.3696 57.0249 55.5419 57.0257 55.7126L57.3245 61.1738L55.0465 62.4285L55.4867 66.6176C53.3776 68.5014 51.105 68.6846 48.6836 67.3193L47.7298 61.3269Z" fill="#FFC4B8"/>
<path fill-rule="evenodd" clip-rule="evenodd" d="M54.8984 62.4135C54.8984 62.4135 48.1081 63.312 47.6923 61.2345L47.9819 62.9269C47.9819 62.9269 48.2391 64.0836 54.8984 62.4135ZM56.6369 59.7408L55.548 57.0937L55.3451 58.9056C55.2763 59.5196 55.9679 59.9667 56.6369 59.7408Z" fill="#F4A48D"/>
<path fill-rule="evenodd" clip-rule="evenodd" d="M50.2196 67.8419C49.8657 70.0071 48.6237 71.6396 46.9896 71.8113C46.2216 71.892 45.471 71.6388 44.8086 71.1352C44.3693 72.0914 43.4603 72.7956 42.3486 72.9124C40.6639 73.0895 39.1522 71.8467 38.9724 70.1356C38.8108 68.5982 39.7811 67.2062 41.2031 66.8124C40.0929 66.1263 39.2985 64.9416 39.1501 63.53C38.9089 61.2346 40.4632 59.1708 42.6676 58.7771C42.6585 58.7257 42.6512 58.6735 42.6456 58.6208C42.5396 57.612 43.1322 56.6929 44.0282 56.3575C44.0227 56.3136 44.0176 56.2697 44.013 56.2255C43.6274 52.5572 46.2489 49.2705 49.8634 48.8906C50.0031 48.8759 50.1422 48.8657 50.2807 48.86C51.9205 48.7385 53.4738 49.3061 54.682 50.3383C56.0025 51.4172 56.9173 53.0072 57.1109 54.8489C57.1601 55.3171 57.1604 55.7791 57.1158 56.2297L57.0808 55.5889C57.08 55.4182 57.0707 55.2459 57.0525 55.0725L57.0524 55.0718C56.762 52.3092 54.3186 50.2993 51.5953 50.5856C48.8719 50.8718 46.8999 53.3457 47.1902 56.1084C47.2028 56.228 47.2194 56.3461 47.2399 56.4628C46.9686 56.2268 46.6065 56.1 46.2244 56.1402C45.485 56.2179 44.9508 56.8875 45.0294 57.638C45.0293 57.638 45.1964 60.3645 47.6109 60.1107L48.7387 67.1956C49.2387 67.4775 49.7323 67.6934 50.2196 67.8419Z" fill="#D39E00"/>
<path fill-rule="evenodd" clip-rule="evenodd" d="M50.0821 66.2602L44.4918 68.462L35.3524 76.0347L31.1741 62.4561L26.082 63.37L29.3464 79.9516L34.6994 84.7828L50.1062 76.2959L50.0821 66.2602Z" fill="#F6C854"/>
<path fill-rule="evenodd" clip-rule="evenodd" d="M80.418 74.8607L82.5744 72.7378L85.9749 72.8183L86.3629 74.5429L81.2245 76.7626L80.418 74.8607Z" fill="#FFC4B8"/>
<path fill-rule="evenodd" clip-rule="evenodd" d="M44.8826 105.575L44.4336 110.013L48.4084 125.26L44.7176 149.761L47.4343 150.698L54.5982 126.778L55.7351 119.819L55.6936 105.088L44.8826 105.575Z" fill="#FFC4B8"/>
<path fill-rule="evenodd" clip-rule="evenodd" d="M65.7762 110.521L60.0619 151.576H57.4643L56.9969 125.26L52.2695 106.789L65.7762 110.521Z" fill="#FFC4B8"/>
<path fill-rule="evenodd" clip-rule="evenodd" d="M45.0236 100.131C47.2421 85.196 46.4496 74.3197 46.5647 71.3331C46.6797 68.3467 48.7257 66.7969 48.7257 66.7969C49.6245 66.5914 50.406 65.9991 51.3128 65.7654C57.4464 64.1846 60.792 68.9824 63.0879 74.1574C65.9168 80.5335 68.2937 87.122 70.2151 93.8433C71.9015 99.7421 73.5915 105.694 74.2989 111.816C74.5906 114.342 74.834 116.737 72.1345 117.852C67.8329 119.627 62.9989 119.588 58.4554 120.158C53.2362 120.812 48.0099 121.29 42.7564 121.513C40.0138 121.63 42.8051 115.066 45.0236 100.131Z" fill="#F6C854"/>
<path fill-rule="evenodd" clip-rule="evenodd" d="M27.0771 63.1917L24.7773 60.8894L25.5608 56.8418H27.7803L28.4331 60.3671L29.5598 61.044V62.746L27.0771 63.1917Z" fill="#FFC4B8"/>
<path d="M54.2852 65.459L60.1607 66.5034L70.7656 76.7625L80.272 73.4256L83.3285 77.3228L70.6059 84.7827L57.1577 76.1654L54.2852 65.459Z" fill="#F6C854"/>
<path d="M56.4482 81.6532L48.6719 66.5558L51.0469 65.7077L52.7431 65.1987L55.7333 65.4052L56.4482 81.6532Z" fill="#EAF7FE"/>
<path fill-rule="evenodd" clip-rule="evenodd" d="M33.0947 78.9475C33.807 77.8567 34.4292 76.6785 35.233 75.6472L31.1741 62.4561L26.082 63.37L29.3464 79.9519L31.3424 81.7531C31.895 80.801 32.4904 79.8732 33.0947 78.9475Z" fill="#F6C854"/>
<path fill-rule="evenodd" clip-rule="evenodd" d="M109.327 22.9914C108.726 18.108 104.564 14.3271 99.5191 14.3271C94.0616 14.3271 89.6371 18.7527 89.6371 24.2121C89.6371 25.1078 89.7561 25.9756 89.9795 26.8006C89.8956 26.8017 89.8124 26.8047 89.7297 26.8095L89.6366 26.8019V26.8157C86.8062 27.0284 84.5751 29.3935 84.5751 32.2795C84.5751 35.1656 86.8062 37.5306 89.6366 37.7433V37.7596H125.616V37.7591H125.616C127.821 37.7591 129.609 35.9703 129.609 33.764C129.609 31.5578 127.821 29.7692 125.616 29.7692H125.616V29.7691L116.5 29.0173C116.542 28.745 116.564 28.466 116.564 28.1821C116.564 25.156 114.111 22.7027 111.086 22.7027C110.471 22.7027 109.879 22.8042 109.327 22.9914Z" fill="#DEEDF2"/>
<path fill-rule="evenodd" clip-rule="evenodd" d="M90.8634 34.9294C90.4528 31.572 87.6104 28.9727 84.1654 28.9727C80.4383 28.9727 77.4167 32.0152 77.4167 35.7686C77.4167 36.3843 77.498 36.981 77.6505 37.5482C77.5932 37.5489 77.5364 37.551 77.4799 37.5543L77.4164 37.549V37.5585C75.4834 37.7048 73.9597 39.3307 73.9597 41.3149C73.9597 43.2991 75.4834 44.925 77.4164 45.0713V45.0825H101.988V45.0821H101.988C103.494 45.0821 104.715 43.8523 104.715 42.3355C104.715 40.8187 103.494 39.5891 101.988 39.5891H101.988V39.589L95.7623 39.0721C95.7908 38.8849 95.8055 38.6931 95.8055 38.4979C95.8055 36.4175 94.1308 34.7309 92.0648 34.7309C91.6445 34.7309 91.2405 34.8007 90.8634 34.9294Z" fill="#EAF7FE"/>
<path fill-rule="evenodd" clip-rule="evenodd" d="M20.8651 27.0495C21.3099 23.3869 24.3892 20.5513 28.1213 20.5513C32.159 20.5513 35.4324 23.8704 35.4324 27.965C35.4324 28.6367 35.3443 29.2876 35.1791 29.9064C35.2411 29.9072 35.3027 29.9094 35.3639 29.9131L35.4327 29.9073V29.9177C37.5268 30.0772 39.1775 31.851 39.1775 34.0155C39.1775 36.1801 37.5268 37.9538 35.4327 38.1134V38.1256H8.81392V38.1252H8.81383C7.18221 38.1252 5.85938 36.7836 5.85938 35.1289C5.85938 33.4742 7.18221 32.1328 8.81383 32.1328H8.81392V32.1327L15.5579 31.5689C15.5271 31.3646 15.5111 31.1554 15.5111 30.9425C15.5111 28.6729 17.3254 26.8329 19.5636 26.8329C20.0189 26.8329 20.4566 26.9091 20.8651 27.0495Z" fill="#EAF7FE"/>
<path fill-rule="evenodd" clip-rule="evenodd" d="M60.2667 149.405L57.4846 149.796L57.144 152.514L57.2073 152.525L57.1919 152.529L61.4809 154.451L63.4057 154.432L63.3753 152.191L62.8156 151.871L60.2667 149.405Z" fill="#CEDEE7"/>
<path fill-rule="evenodd" clip-rule="evenodd" d="M47.9626 148.698L51.2578 151.279L50.8718 153.274L43.9352 152.136L44.8505 148.698H47.9626Z" fill="#CEDEE7"/>
</svg>
