<svg width="161" height="160" viewBox="0 0 161 160" fill="none" xmlns="http://www.w3.org/2000/svg">
<path fill-rule="evenodd" clip-rule="evenodd" d="M149.15 142.244C149.15 146.086 118.169 149.201 79.951 149.201C41.7334 149.201 10.752 146.086 10.752 142.244C10.752 138.402 41.7334 135.288 79.951 135.288C118.169 135.288 149.15 138.402 149.15 142.244Z" fill="#9BC3D3"/>
<path fill-rule="evenodd" clip-rule="evenodd" d="M98.4415 27.2574C98.8622 27.6783 99.2749 28.1041 99.6795 28.5346C107.827 37.2011 118.622 42.8574 130.32 44.9833C137.421 46.2737 144.215 49.6652 149.705 55.158C164.084 69.5446 164.101 92.7449 149.741 107.151C143.406 113.506 135.328 117.057 127.046 117.806C119.955 118.446 113.292 121.542 108.373 126.693C108.309 126.76 108.246 126.826 108.182 126.891C99.7892 135.459 86.2133 135.544 77.7191 127.078C77.6704 127.029 77.6221 126.98 77.5743 126.932C75.3053 124.627 72.0302 123.621 68.8568 124.237C50.764 127.753 31.3065 122.5 17.2932 108.475C-5.09775 86.0656 -5.09775 49.6668 17.2932 27.2571C39.7022 4.8299 76.0331 4.83003 98.4415 27.2574Z" fill="#DEEDF2"/>
<path fill-rule="evenodd" clip-rule="evenodd" d="M64.4411 56.0918C64.4411 56.0918 60.704 56.5303 59.0312 57.5259L63.735 59.5916L64.4411 56.0918Z" fill="#1B4872"/>
<path fill-rule="evenodd" clip-rule="evenodd" d="M67.1426 62.0117L74.2193 63.3815C76.3062 63.7845 78.1012 65.1034 79.1084 66.9739L90.8 88.6835L84.3037 93.8957L75.1598 77.2481L67.1426 62.0117Z" fill="#2274C0"/>
<path fill-rule="evenodd" clip-rule="evenodd" d="M73.7973 58.7651L75.0203 60.7063L73.1034 66.0789L69.1484 61.8489L72.2741 58.7778L73.7973 58.7651Z" fill="#1B4872"/>
<path fill-rule="evenodd" clip-rule="evenodd" d="M62.6794 52.1178C59.1409 50.6501 56.6191 46.8671 56.6191 42.4366C56.6191 36.7335 60.7978 32.103 65.9448 32.103C70.0176 32.103 73.4841 35.0025 74.7536 39.0383L74.7693 39.0424L77.2054 47.0951L76.9815 47.1914L76.8645 47.2418L75.4245 47.5529L75.4181 51.7823L75.3478 52.0387C75.234 52.3941 75.0765 52.7387 74.8753 53.0626C74.6409 53.4414 74.3504 53.7874 74.0211 54.0858C73.8493 54.2424 73.6652 54.3842 73.4709 54.512C73.3679 54.581 73.265 54.6439 73.1594 54.7035C73.0768 54.751 72.9937 54.7951 72.9085 54.836L72.6486 54.9633L73.4763 64.2893C73.4763 64.2893 69.225 65.3011 67.2569 64.8944L66.9942 64.8359L66.9887 64.8347C65.1103 64.4298 63.2445 63.7925 61.6678 61.8488C61.6678 61.8488 61.6721 61.8271 61.6802 61.7852L61.6678 61.7704C61.6678 61.7704 61.8154 61.0641 61.9997 59.9107C62.2809 58.0705 62.6444 55.1432 62.6794 52.1178Z" fill="#F4A48D"/>
<path fill-rule="evenodd" clip-rule="evenodd" d="M72.7893 57.0729C71.5915 56.7112 69.0641 55.2885 67.166 52.9742L72.5834 54.9108C72.5834 54.9108 72.6871 56.0158 72.7893 57.0729ZM75.6685 47.4634C75.1798 47.6267 74.6788 47.2565 74.692 46.7419L74.7771 43.4243L75.6685 47.4634Z" fill="#A66555"/>
<path fill-rule="evenodd" clip-rule="evenodd" d="M62.6984 52.4521L61.252 51.6501C59.52 50.645 58.0531 49.1465 57.0923 47.2349C54.4607 41.9983 56.618 35.6422 61.9105 33.0378C66.6752 30.6932 72.3613 32.1905 75.3636 36.3399L74.1739 37.2951C73.9038 37.2172 73.4566 37.0923 72.9091 36.9522C70.9415 36.4385 67.6785 35.7122 66.6571 36.2058C65.1614 36.9291 65.2311 39.6525 65.4582 41.8132C65.6803 43.9265 65.8808 44.8443 64.9137 45.2592C64.5591 45.4114 64.34 43.6265 63.5267 43.09C62.6677 42.5234 61.5705 43.1003 61.7311 45.0409C61.997 45.9227 62.2016 46.7919 62.355 47.6406C62.6121 49.1587 62.7062 50.8143 62.6984 52.4521Z" fill="#3B101C"/>
<path fill-rule="evenodd" clip-rule="evenodd" d="M76.5396 66.4101L58.5039 66.1865L63.7509 90.2035L73.3934 95.536L85.1241 90.8936L79.3686 69.3188L76.5396 66.4101Z" fill="#2274C0"/>
<path fill-rule="evenodd" clip-rule="evenodd" d="M73.3788 61.834C73.3788 61.834 71.6295 66.2588 65.6523 62.3951C65.6523 62.3951 66.5483 73.9227 66.815 73.9771C67.0816 74.0316 74.9568 73.8683 74.9568 73.8683L75.8606 68.0852L73.3788 61.834Z" fill="white"/>
<path d="M70.6189 113.159C71.9243 113.607 73.2901 113.853 74.6701 113.888L82.0064 114.07C88.5256 114.234 95.0291 113.357 101.271 111.47L103.178 110.895L101.348 95.0455L63.0862 88.8965C63.0862 88.8965 55.6895 107.146 70.6189 113.159Z" fill="#34466B"/>
<path fill-rule="evenodd" clip-rule="evenodd" d="M74.3491 59.6768C74.3491 59.6768 75.3161 60.1799 73.538 62.8591C71.76 65.5384 71.6191 70.199 71.6191 70.199L74.6541 75.4668L79.3677 69.3201L76.9485 62.9037C76.4475 61.5792 75.537 60.4492 74.3491 59.6772" fill="#2274C0"/>
<path fill-rule="evenodd" clip-rule="evenodd" d="M109.422 135.224L118.004 139.656L118.016 144.37L101.851 144.821L102.395 136.59L109.422 135.224Z" fill="#CEDEE7"/>
<path fill-rule="evenodd" clip-rule="evenodd" d="M119.495 136.686L127.917 141.414L127.765 146.126L111.593 146.012L112.425 137.805L119.495 136.686Z" fill="#CEDEE7"/>
<path fill-rule="evenodd" clip-rule="evenodd" d="M59.0332 57.5259L57.7676 60.8285L61.0384 63.6182C61.4906 62.2953 62.4697 61.2185 63.7444 60.6432C64.1061 60.5016 64.2849 60.0935 64.1432 59.7316C64.071 59.5478 63.9247 59.4027 63.7404 59.3318L59.0332 57.5259Z" fill="#2274C0"/>
<path d="M102.389 138.886L97.2793 103.284L84.5039 94.6139L97.7353 92.9089C103.066 92.2158 107.966 95.9265 108.741 101.242L113.632 135.09L102.389 138.886Z" fill="#34466B"/>
<path d="M110.667 140.501L105.557 104.902L92.7812 96.2314L106.012 94.5249C111.342 93.8329 116.242 97.5428 117.019 102.858L121.911 136.707L110.667 140.501Z" fill="#34466B"/>
<path d="M88.588 92.904L78.8164 92.5803" stroke="#2A8FEC" stroke-width="8.62"/>
<path fill-rule="evenodd" clip-rule="evenodd" d="M75.3378 88.8118L79.1251 88.6364L83.0051 85.3381C83.3447 85.0483 83.7617 84.863 84.2044 84.805L87.8662 84.3141C88.4276 84.2388 88.9831 84.4872 89.301 84.956L90.2778 86.4019C90.3177 86.4599 90.3252 86.5344 90.2972 86.599L90.1989 86.8447C90.1532 86.9547 90.0269 87.0067 89.9172 86.961C89.8999 86.9539 89.8833 86.9444 89.8687 86.933L89.7433 86.8325L89.8944 87.1321C89.9772 87.2934 89.9508 87.4894 89.8277 87.623L89.473 88.0114C89.3152 88.1802 89.0533 88.1975 88.8746 88.0508L87.2425 86.7075C87.2133 86.683 87.1742 86.6736 87.1372 86.6814L86.2961 86.8569C86.2294 86.8703 86.1864 86.9358 86.2002 87.0024C86.2077 87.0379 86.2302 87.0683 86.2617 87.086L87.3569 87.6991C87.4985 87.7784 87.5494 87.957 87.4701 88.0985C87.4342 88.1628 87.3754 88.2113 87.3048 88.2342L86.4815 88.5102C86.429 88.526 86.3738 88.5287 86.3197 88.5185L85.743 88.3856C85.5816 88.3493 85.4124 88.3698 85.2648 88.444L84.4557 88.854C84.2959 88.9345 84.1606 89.0563 84.0639 89.2061L83.5637 89.9707C83.3301 90.3299 82.9917 90.6082 82.5948 90.7687L74.7109 93.9732L75.3378 88.8118Z" fill="#F4A48D"/>
<path fill-rule="evenodd" clip-rule="evenodd" d="M88.2384 94.4639L110.758 92.1478C111.187 92.1044 111.526 91.7677 111.573 91.3399L113.274 75.3097C113.331 74.8121 112.972 74.3634 112.474 74.3074C112.408 74.2999 112.341 74.2999 112.275 74.307L89.7568 76.6227C89.328 76.6649 88.9883 77.0028 88.9437 77.431L87.2395 93.4608C87.1866 93.9619 87.5507 94.411 88.0526 94.4635C88.1145 94.4698 88.1768 94.4702 88.2388 94.4639" fill="white"/>
<path fill-rule="evenodd" clip-rule="evenodd" d="M89.3117 77.3567L87.6067 93.3852C87.5538 93.8864 87.9175 94.3355 88.419 94.3883C88.4813 94.3946 88.544 94.395 88.606 94.3887L98.0351 93.4168L109.994 92.1893L111.126 92.0726C111.555 92.03 111.895 91.691 111.938 91.262L113.642 75.2346C113.695 74.7346 113.333 74.2855 112.833 74.2323C112.769 74.2256 112.706 74.2252 112.643 74.2319L103.442 75.1762L90.1236 76.546C89.6952 76.5906 89.3563 76.9281 89.3105 77.3563" fill="#2A8FEC"/>
<mask id="mask0_1483_70205" style="mask-type:luminance" maskUnits="userSpaceOnUse" x="57" y="115" width="33" height="6">
<path fill-rule="evenodd" clip-rule="evenodd" d="M59.4215 115.165L57.7441 120.094H89.5347L87.857 115.165H59.4215Z" fill="white"/>
</mask>
<g mask="url(#mask0_1483_70205)">
<path fill-rule="evenodd" clip-rule="evenodd" d="M89.9818 114.72H57.2969V120.54H89.9822L89.9818 114.72Z" fill="#A66555"/>
</g>
<mask id="mask1_1483_70205" style="mask-type:luminance" maskUnits="userSpaceOnUse" x="48" y="118" width="13" height="27">
<path fill-rule="evenodd" clip-rule="evenodd" d="M58.204 118.398L48.5664 144.754H50.1028L60.6756 118.398H58.204Z" fill="white"/>
</mask>
<g mask="url(#mask1_1483_70205)">
<path fill-rule="evenodd" clip-rule="evenodd" d="M61.133 117.952H48.1074V145.2H61.135L61.133 117.952Z" fill="#A66555"/>
</g>
<mask id="mask2_1483_70205" style="mask-type:luminance" maskUnits="userSpaceOnUse" x="86" y="118" width="13" height="27">
<path fill-rule="evenodd" clip-rule="evenodd" d="M86.2227 118.398L96.7967 144.754H98.3351L88.6943 118.398H86.2227Z" fill="white"/>
</mask>
<g mask="url(#mask2_1483_70205)">
<path fill-rule="evenodd" clip-rule="evenodd" d="M85.7656 145.2H98.7932V117.952H85.7656V145.2Z" fill="#A66555"/>
</g>
<mask id="mask3_1483_70205" style="mask-type:luminance" maskUnits="userSpaceOnUse" x="40" y="73" width="47" height="44">
<path fill-rule="evenodd" clip-rule="evenodd" d="M54.037 73.7539C43.2956 73.7539 36.5817 85.4195 41.953 94.7522H41.9526L50.1146 108.932C52.8656 113.704 57.9346 116.64 63.4169 116.636H86.7737L66.1218 80.7508C63.6232 76.4196 59.0226 73.7539 54.0461 73.7539C54.0429 73.7539 54.0402 73.7539 54.037 73.7539Z" fill="white"/>
</mask>
<g mask="url(#mask3_1483_70205)">
<path fill-rule="evenodd" clip-rule="evenodd" d="M39.6152 117.089H87.2228V73.3042H39.6152V117.089Z" fill="#9BC3D3"/>
</g>
<mask id="mask4_1483_70205" style="mask-type:luminance" maskUnits="userSpaceOnUse" x="63" y="98" width="30" height="19">
<path fill-rule="evenodd" clip-rule="evenodd" d="M81.0211 98.0532H63.0703L73.7799 116.637H88.3039C89.1129 116.639 89.9086 116.426 90.6095 116.019C92.8101 114.744 93.5651 111.918 92.2963 109.706L87.8638 102.011C86.4493 99.5613 83.8446 98.0532 81.0259 98.0532C81.0247 98.0532 81.0227 98.0532 81.0211 98.0532Z" fill="white"/>
</mask>
<g mask="url(#mask4_1483_70205)">
<path fill-rule="evenodd" clip-rule="evenodd" d="M62.623 117.088H93.374V97.6025H62.623V117.088Z" fill="#9BC3D3"/>
</g>
<mask id="mask5_1483_70205" style="mask-type:luminance" maskUnits="userSpaceOnUse" x="43" y="98" width="34" height="19">
<path fill-rule="evenodd" clip-rule="evenodd" d="M61.7842 98.0542H43.9551L50.1762 108.922C52.9161 113.7 57.964 116.64 63.423 116.637H76.9502L68.5795 102.012C67.175 99.5622 64.5884 98.0542 61.7893 98.0542C61.7877 98.0542 61.7857 98.0542 61.7842 98.0542Z" fill="white"/>
</mask>
<g mask="url(#mask5_1483_70205)">
<path fill-rule="evenodd" clip-rule="evenodd" d="M43.5098 117.087H77.3978V97.6021H43.5098V117.087Z" fill="#9BC3D3"/>
</g>
<path fill-rule="evenodd" clip-rule="evenodd" d="M59.3497 60.1094L55.6712 62.0316C51.4993 64.2111 49.0294 68.6722 49.3951 73.3686L50.8283 91.5706C51.132 95.3562 54.3943 98.2101 58.1834 98.0041L76.792 97.0175C76.792 97.0175 74.531 89.9913 76.7959 88.4265L60.3264 88.8188L60.0999 70.4116L59.3497 60.1094Z" fill="#2274C0"/>
<path fill-rule="evenodd" clip-rule="evenodd" d="M68.2666 63.179L74.6771 72.1285L75.6805 86.7192L60.0077 94.5115L55.8926 63.7493L63.1779 59.9834C65.2257 60.3412 67.052 61.4874 68.2654 63.1774" fill="#2274C0"/>
<mask id="mask6_1483_70205" style="mask-type:luminance" maskUnits="userSpaceOnUse" x="82" y="39" width="4" height="3">
<path fill-rule="evenodd" clip-rule="evenodd" d="M82.8926 39.3442L85.0758 39.4969L84.9231 41.68L82.7399 41.5274L82.8926 39.3442Z" fill="white"/>
</mask>
<g mask="url(#mask6_1483_70205)">
<path fill-rule="evenodd" clip-rule="evenodd" d="M84.2369 39.4715C83.9482 39.3802 83.6677 39.4036 83.4033 39.5409C83.1389 39.6782 82.9585 39.8943 82.8673 40.1831C82.7758 40.4722 82.7992 40.7527 82.9367 41.0168C83.074 41.2811 83.29 41.4615 83.5789 41.5528C83.6934 41.589 83.8066 41.6071 83.918 41.6073C84.0874 41.6075 84.2528 41.5662 84.4125 41.4834C84.6769 41.346 84.8572 41.13 84.9485 40.8412C85.0397 40.5527 85.0164 40.2723 84.8791 40.0075C84.7415 39.743 84.5254 39.5627 84.2369 39.4715Z" fill="#2A8FEC"/>
</g>
<path fill-rule="evenodd" clip-rule="evenodd" d="M90.9016 31.5622C90.4183 30.7107 89.6045 30.0983 88.4828 29.7421C87.3613 29.3861 86.3397 29.4153 85.4462 29.8291C84.6695 30.1888 84.0997 30.7998 83.7525 31.6451C83.694 31.7876 83.6976 31.9494 83.7623 32.089C83.8271 32.2287 83.948 32.3354 84.0941 32.3817L84.762 32.5938C85.0286 32.6784 85.3155 32.5482 85.4294 32.2907C85.6312 31.834 85.9168 31.5244 86.3026 31.344C86.7696 31.1257 87.3325 31.1186 87.9759 31.3229C88.6172 31.5266 89.0676 31.8636 89.3145 32.3245C89.5602 32.784 89.5838 33.3376 89.3847 33.9698C89.1103 34.8414 88.6772 35.3496 88.0973 35.4806C87.4868 35.6184 86.6298 35.5083 85.5485 35.153L85.2594 35.0612C84.9709 34.9696 84.6619 35.1311 84.5706 35.4211L83.7736 37.9522C83.7294 38.0927 83.7422 38.2421 83.8098 38.3728C83.8773 38.5036 83.9914 38.6 84.1312 38.6444L84.8087 38.8595C84.8633 38.8768 84.9186 38.8851 84.973 38.8852C85.2063 38.8854 85.4235 38.7347 85.4975 38.4996L86.0136 36.8605C86.02 36.8401 86.0417 36.8284 86.0618 36.8342C87.335 37.2011 88.3935 37.2272 89.2082 36.9117C90.0746 36.5761 90.7025 35.807 91.0745 34.6256C91.445 33.4488 91.3868 32.4182 90.9016 31.5622Z" fill="#2A8FEC"/>
</svg>
