<svg width="160" height="160" viewBox="0 0 160 160" fill="none" xmlns="http://www.w3.org/2000/svg">
<circle cx="69.7168" cy="79.7168" r="69.7168" fill="#EAF7FE"/>
<path fill-rule="evenodd" clip-rule="evenodd" d="M139.367 74.2896L129.769 90.9289L129.662 91.1092L118.367 110.687H96.2528L86.6185 127.37L73.9444 149.331H0L20.6647 113.565C27.1067 102.404 39.0145 95.53 51.9005 95.5321H75.676C76.7994 95.5309 77.9028 95.2347 78.8758 94.673C79.8526 94.1099 80.6636 93.2989 81.2267 92.3221C87.6685 81.1618 99.5762 74.2874 112.462 74.2896H139.367Z" fill="#CEDEE7"/>
<path d="M139.367 72.6196L129.769 89.259L129.662 89.4393L118.367 109.017H96.2528L86.6185 125.7L73.9444 147.661H0L20.6647 111.895C27.1067 100.734 39.0145 93.8601 51.9005 93.8622H75.676C76.7994 93.861 77.9028 93.5647 78.8758 93.0031C79.8526 92.4399 80.6636 91.629 81.2267 90.6521C87.6685 79.4919 99.5762 72.6174 112.462 72.6196H139.367Z" fill="white"/>
<path fill-rule="evenodd" clip-rule="evenodd" d="M58.9165 141.655C58.9165 142.301 56.4594 142.822 53.4543 142.822C50.4314 142.822 47.9922 142.301 47.9922 141.655C47.9922 141.01 50.4314 140.489 53.4543 140.489C56.4602 140.489 58.9165 141.012 58.9165 141.655Z" fill="#9BC3D3"/>
<path fill-rule="evenodd" clip-rule="evenodd" d="M56.337 136.746C55.8423 137.708 54.976 138.302 54.1807 138.303C53.9408 138.308 53.7037 138.252 53.4909 138.141C53.3982 138.088 53.3096 138.028 53.2258 137.962C52.5364 137.37 52.4127 136.122 52.9958 134.995C53.4203 134.193 54.0919 133.65 54.7635 133.489C55.1301 133.391 55.5201 133.431 55.8595 133.601C56.708 134.048 56.9556 135.285 56.4783 136.461C56.4384 136.559 56.391 136.654 56.3368 136.745M56.372 132.593C55.92 132.36 55.4002 132.295 54.9048 132.409C53.8963 132.613 52.872 133.413 52.253 134.608C51.3159 136.418 51.6346 138.451 52.9601 139.148C53.0457 139.192 53.1343 139.23 53.2252 139.262C53.4861 139.354 53.7622 139.394 54.0383 139.381C55.1697 139.337 56.3718 138.49 57.0791 137.131C57.1941 136.915 57.2945 136.69 57.3795 136.46C57.9275 134.842 57.5385 133.204 56.371 132.592" fill="#CEDEE7"/>
<path fill-rule="evenodd" clip-rule="evenodd" d="M55.1332 130.478V130.496L54.9032 132.41L54.7617 133.49L54.4083 136.462L54.1787 138.304L54.0371 139.382L53.9846 139.93C53.9045 140.531 53.6386 141.093 53.224 141.535C52.6883 142.119 51.9306 142.45 51.1381 142.444H49.8477C48.5409 142.441 47.4007 141.556 47.0723 140.292C47.0548 140.192 47.037 140.088 47.0197 139.981L46.0113 132.87L45.6758 130.496V130.478H55.1332Z" fill="#CEDEE7"/>
<path d="M55.1337 130.478V130.496L54.9037 132.41L54.7622 133.49L54.4088 136.462L54.1792 138.304L54.0376 139.382L53.9851 139.93C53.905 140.531 53.6391 141.093 53.2245 141.535C52.6888 142.119 51.9311 142.45 51.1386 142.444H50.4492C50.7826 142.291 51.0829 142.074 51.3333 141.806C51.7427 141.362 52.0023 140.8 52.0757 140.201L52.1461 139.655L52.27 138.576L52.5 136.733L52.8533 133.761L52.9947 132.683L53.2247 130.768V130.751" fill="white"/>
<path d="M53.2082 120.719C52.0435 122.277 51.4731 124.2 51.5996 126.142L51.8647 129.978L51.9351 130.977C51.4582 130.994 50.946 131.003 50.4151 131.003C50.0792 131.003 49.7435 131 49.4427 130.993L48.9655 129.978L45.9247 123.31C44.421 120.022 45.2714 116.136 48.011 113.777C49.817 112.24 50.8574 109.987 50.857 107.615C50.8566 106.31 50.5413 105.025 49.9378 103.869L44.511 93.4642C44.2193 92.9058 44.1737 92.2511 44.385 91.6576C44.5964 91.0641 45.0455 90.5856 45.6245 90.3372C45.9094 90.2154 46.216 90.1529 46.5259 90.1533C47.1873 90.1574 47.8139 90.4506 48.2409 90.9558L58.5464 103.107C61.0029 105.995 61.1279 110.2 58.8472 113.229L53.2082 120.719Z" fill="#DEEDF2"/>
<path fill-rule="evenodd" clip-rule="evenodd" d="M55.133 130.478C55.133 130.618 54.6379 130.745 53.8426 130.839C52.7034 130.958 51.5583 131.013 50.4128 131.005C49.2617 131.014 48.1111 130.958 46.9662 130.839C46.1711 130.745 45.6758 130.618 45.6758 130.478C45.6758 130.187 47.7971 129.953 50.413 129.953C53.0117 129.953 55.1332 130.188 55.1332 130.478" fill="#9E3667"/>
<path fill-rule="evenodd" clip-rule="evenodd" d="M93.8169 140.343C96.5318 139.319 99.0674 137.871 101.33 136.054L102.886 139.284C100.564 141.202 97.9416 142.724 95.1249 143.79C91.3147 145.201 87.2448 145.775 83.1928 145.471L82.2383 142.045C86.1745 142.297 90.1195 141.717 93.8167 140.343" fill="#34466B"/>
<path fill-rule="evenodd" clip-rule="evenodd" d="M80.6491 110.595L77.7852 99.457L90.884 96.1001L93.7475 107.238L80.6491 110.595Z" fill="#1BB3BC"/>
<path fill-rule="evenodd" clip-rule="evenodd" d="M90.6558 111.371L87.8633 113.31L95.2519 129.156C95.2519 129.156 103.95 121.917 103.985 121.756C104.002 121.594 90.656 111.371 90.656 111.371" fill="#CEDEE7"/>
<path fill-rule="evenodd" clip-rule="evenodd" d="M72.2183 121.037L71.9175 118.258L70.7508 116.367C70.4982 115.94 70.3135 115.477 70.2032 114.993L69.7259 112.911C69.7077 112.883 69.7259 112.853 69.7612 112.837C69.9435 112.728 70.1795 112.785 70.2914 112.966L71.4581 114.875L71.7589 111.32C71.7929 110.894 72.0781 110.529 72.4834 110.393C72.6073 110.353 72.7838 110.3 72.9432 110.245C73.3538 110.117 73.7948 110.318 73.9685 110.711C73.9685 110.711 75.9479 115.841 75.2412 118.141L75.0996 118.574L75.0114 122.005L72.2183 121.037Z" fill="#F4A48D"/>
<path fill-rule="evenodd" clip-rule="evenodd" d="M105.998 131.845C105.102 133.107 104.14 134.322 103.117 135.485C97.9624 141.294 90.0862 143.889 82.488 142.281C82.4347 142.271 82.3819 142.258 82.3286 142.246C81.7274 142.119 81.1262 141.96 80.5251 141.776C79.7336 141.531 79.0203 141.082 78.4566 140.475C77.8836 139.87 77.481 139.125 77.29 138.315H77.2725C76.9188 138.269 71.1562 137.448 71.1562 131.945L71.5635 118.474L75.5056 118.246L76.637 128.595C76.6814 129.027 76.9196 129.414 77.2842 129.648C77.6488 129.883 78.1002 129.938 78.5107 129.799L89.3468 126.165L96.8417 123.386L103.594 120.89C103.594 120.89 110.1 126.101 105.999 131.845" fill="#9BC3D3"/>
<path fill-rule="evenodd" clip-rule="evenodd" d="M82.3277 142.246C81.7265 142.119 81.1253 141.96 80.5242 141.778C79.7329 141.531 79.0198 141.082 78.4557 140.475C77.8831 139.871 77.4805 139.126 77.2891 138.316C78.6139 138.402 79.9433 138.249 81.2138 137.864L82.3277 142.246Z" fill="#34466B"/>
<path fill-rule="evenodd" clip-rule="evenodd" d="M87.7199 104.007L89.5234 107.771L91.0244 109.855L89.3979 110.974L87.3824 109.897C86.6165 109.482 85.9477 108.908 85.4205 108.214L84.1123 106.48L83.7244 107.007C83.5556 107.24 83.2591 107.343 82.982 107.265C82.8847 107.24 82.7941 107.194 82.7169 107.129C82.4506 106.914 82.3827 106.536 82.5575 106.242L84.3611 103.093C84.6097 102.672 85.1412 102.512 85.5811 102.728L87.2958 103.583C87.4752 103.681 87.6225 103.828 87.7199 104.007ZM85.2803 104.053L84.6437 105.048L85.8284 105.02L85.7397 104.195L85.2803 104.053Z" fill="#F4A48D"/>
<path fill-rule="evenodd" clip-rule="evenodd" d="M99.0702 127.338C98.3275 129.204 95.5875 130.293 92.9536 129.772C90.6555 129.316 89.1887 127.788 89.3477 126.165L94.2793 124.333L96.8428 123.386C98.7169 124.179 99.671 125.781 99.0702 127.337" fill="#F4A48D"/>
<path fill-rule="evenodd" clip-rule="evenodd" d="M91.1335 109.482L88.1992 111.193L94.3151 127.575C94.3151 127.575 103.543 121.05 103.596 120.891C103.631 120.732 91.1333 109.482 91.1333 109.482" fill="#9BC3D3"/>
<path d="M90.5853 121.173L90.3202 119.135L89.6482 118.594C89.3092 118.328 89.1041 117.926 89.0871 117.496C89.0701 117.065 89.243 116.648 89.56 116.356C91.2925 114.793 94.1384 114.118 96.2596 114.589C96.8086 114.701 97.3308 114.918 97.7974 115.228C98.035 115.384 98.2199 115.608 98.3276 115.87L90.5853 121.173Z" fill="#EC0000"/>
<path fill-rule="evenodd" clip-rule="evenodd" d="M83.6902 105.075L82.1523 105.273L82.188 105.567L83.16 105.721L88.6929 105.558C88.6929 105.558 88.6218 104.951 88.5514 104.95C88.481 104.948 83.6904 105.075 83.6904 105.075" fill="#F6C854"/>
<path d="M85.8651 107.212L83.6738 106.211C83.5134 106.135 83.3929 105.995 83.3423 105.825C83.2918 105.655 83.3159 105.471 83.4087 105.32C83.5672 105.073 83.8756 104.969 84.1518 105.068L86.591 105.95L85.8651 107.212Z" fill="#F4A48D"/>
<path fill-rule="evenodd" clip-rule="evenodd" d="M101.828 123.279C100.826 126.838 97.1342 128.916 93.5724 127.924C93.3867 127.874 93.2037 127.814 93.0244 127.744C92.6571 127.609 92.3023 127.442 91.9638 127.245V127.244C91.8224 127.157 91.6809 127.063 91.5397 126.968V126.963C91.371 126.854 91.2114 126.733 91.0624 126.598C91.0091 126.556 90.9564 126.514 90.9034 126.469C90.2106 125.847 89.6565 125.086 89.277 124.235C89.2218 124.133 89.1746 124.026 89.1356 123.917C89.1003 123.82 89.0648 123.721 89.0295 123.62C88.9762 123.48 88.9409 123.341 88.8879 123.196C88.8354 122.945 88.7819 122.689 88.7466 122.428C88.7322 122.392 88.7262 122.353 88.7291 122.314C88.6936 122.119 88.6758 121.922 88.6758 121.725V121.272C88.6758 121.15 88.6936 121.029 88.6936 120.908C88.7273 120.49 88.8043 120.075 88.9236 119.673C89.4005 117.961 90.5386 116.508 92.0872 115.636C93.6357 114.764 95.4675 114.544 97.1787 115.023C100.737 116.026 102.815 119.716 101.828 123.279" fill="#F4A48D"/>
<path fill-rule="evenodd" clip-rule="evenodd" d="M102.058 121.732C102.042 122.255 101.965 122.774 101.828 123.279C101.609 124.047 101.256 124.771 100.786 125.418C97.9571 129.296 91.9469 128.633 89.984 124.254C89.8779 124.012 89.825 123.864 89.825 123.864V123.862L89.5773 122.688L89.1358 123.917C89.1005 123.82 89.065 123.72 89.0297 123.62C88.9793 123.481 88.938 123.339 88.9058 123.195C88.8528 123.006 88.7997 122.814 88.7644 122.617C88.7644 122.556 88.7466 122.492 88.7466 122.428C88.7322 122.392 88.7262 122.352 88.7291 122.313C88.6936 122.119 88.6758 121.922 88.6758 121.725V121.272C88.6758 121.15 88.6936 121.028 88.6936 120.908C88.7239 120.602 88.7711 120.297 88.8352 119.996C88.8701 119.889 88.8877 119.781 88.9234 119.673C89.0428 119.245 89.2026 118.828 89.4007 118.43C90.8522 115.588 94.1056 114.164 97.1785 115.024C100.161 115.862 102.18 118.637 102.057 121.732" fill="#EC0000"/>
<path fill-rule="evenodd" clip-rule="evenodd" d="M90.0019 123.547C89.9542 123.658 89.8949 123.764 89.825 123.862V123.864C89.8072 123.883 89.7897 123.901 89.7717 123.919C89.774 123.931 89.7664 123.943 89.7542 123.947C89.7322 123.978 89.7085 124.008 89.6834 124.037C89.666 124.048 89.666 124.055 89.6481 124.065C89.5446 124.165 89.4252 124.246 89.2948 124.306C89.2948 124.283 89.277 124.258 89.277 124.235C89.2218 124.133 89.1746 124.026 89.1356 123.917C89.1003 123.82 89.0648 123.721 89.0295 123.62C88.9762 123.48 88.9409 123.341 88.8879 123.196C88.8354 122.945 88.7819 122.688 88.7466 122.428C88.7323 122.392 88.7263 122.353 88.7291 122.314C88.6936 122.119 88.6758 121.922 88.6758 121.725V121.614C88.9457 121.502 89.2516 121.521 89.5064 121.663C90.0723 121.98 90.3015 122.824 90.0019 123.547" fill="#F4A48D"/>
<path fill-rule="evenodd" clip-rule="evenodd" d="M75.2948 116.876L73.0674 117.785C72.818 117.884 72.5351 117.765 72.4311 117.518L70.0093 111.579C69.9148 111.331 70.0315 111.053 70.2744 110.948L72.5019 110.041C72.7508 109.941 73.0337 110.059 73.1381 110.306L75.5599 116.245C75.6096 116.364 75.6094 116.498 75.5596 116.616C75.5098 116.735 75.4144 116.829 75.2948 116.876Z" fill="#CEDEE7"/>
<path fill-rule="evenodd" clip-rule="evenodd" d="M81.0938 107.21L85.5488 99.4722L81.0938 107.21Z" fill="#EAF7FE"/>
<path fill-rule="evenodd" clip-rule="evenodd" d="M73.5782 112.701C73.5805 113.021 73.4548 113.329 73.2291 113.556C73.0033 113.784 72.6962 113.912 72.3759 113.912C71.7051 113.913 71.1596 113.371 71.1562 112.701C71.1596 112.03 71.7051 111.488 72.3759 111.49C72.6962 111.49 73.0033 111.618 73.2291 111.845C73.4548 112.072 73.5805 112.38 73.5782 112.701Z" fill="white"/>
<path d="M102.916 75.8858H150.098L123.376 55.7783L102.916 55.5479L102.916 75.8858Z" fill="#EC0000"/>
<path fill-rule="evenodd" clip-rule="evenodd" d="M82.0367 75.1746C85.4371 86.5904 93.2081 96.2017 103.659 101.917C115.678 108.528 130.048 109.327 142.727 104.09V38.5947H86.7506C86.3958 39.1767 86.0522 39.7726 85.7218 40.3756C84.1889 43.1608 82.9531 46.0999 82.0348 49.1436C79.4846 57.6332 79.4846 66.6852 82.0348 75.1748" fill="#9BC3D3"/>
<mask id="mask0_1487_12658" style="mask-type:luminance" maskUnits="userSpaceOnUse" x="69" y="12" width="91" height="91">
<path fill-rule="evenodd" clip-rule="evenodd" d="M160 12.2656H69.3199V102.947H160V12.2656Z" fill="white"/>
</mask>
<g mask="url(#mask0_1487_12658)">
<path d="M157.979 70.9504C150.609 94.8751 125.24 108.296 101.315 100.927C77.3901 93.556 63.9703 68.1856 71.3411 44.2603C78.7116 20.3363 104.081 6.91638 128.005 14.2867C151.929 21.6569 165.349 47.026 157.979 70.9504Z" fill="white"/>
</g>
<path fill-rule="evenodd" clip-rule="evenodd" d="M71.8145 61.7334C71.8145 83.7107 89.6312 101.526 111.609 101.526H111.61C133.587 101.526 151.402 83.7102 151.402 61.7334C151.403 39.7557 133.587 21.9389 111.61 21.938C89.6319 21.938 71.8145 39.7539 71.8145 61.7318V61.7334Z" fill="#DEEDF2"/>
<path fill-rule="evenodd" clip-rule="evenodd" d="M138.242 48.9765C138.242 53.9429 142.269 57.9691 147.235 57.9691C152.202 57.9699 156.23 53.9436 156.23 48.9765C156.23 44.0093 152.202 39.9832 147.235 39.9839C142.269 39.9839 138.242 44.01 138.242 48.9765Z" fill="#34466B"/>
<path d="M139.199 47.3844C139.199 52.3506 143.225 56.3766 148.191 56.377C153.157 56.3766 157.183 52.3506 157.184 47.3844C157.184 42.4172 153.158 38.39 148.191 38.3892C143.224 38.39 139.198 42.4172 139.199 47.3844Z" fill="white"/>
<path d="M150.917 42.1092C150.533 42.08 150.198 42.3678 150.169 42.7521C150.166 42.7884 150.166 42.8248 150.169 42.8611L150.28 43.565C150.303 43.9073 150.576 44.1799 150.918 44.2029C151.261 44.181 151.535 43.908 151.558 43.565L151.67 42.8611C151.7 42.476 151.412 42.1397 151.028 42.1092C150.991 42.1062 150.954 42.1062 150.918 42.1092" fill="white"/>
<path fill-rule="evenodd" clip-rule="evenodd" d="M133 87.1368C133.002 92.1038 137.029 96.1294 141.996 96.1294C146.962 96.1278 150.987 92.1026 150.988 87.1368C150.988 82.1698 146.963 78.143 141.996 78.1416C137.028 78.142 133 82.1688 133 87.1368Z" fill="#34466B"/>
<path d="M133.956 85.5404C133.956 90.5065 137.982 94.5327 142.948 94.533H142.949C147.915 94.5336 151.941 90.5086 151.941 85.5431V85.5404C151.942 80.5743 147.916 76.5482 142.95 76.5479H142.949C137.983 76.5475 133.957 80.5731 133.956 85.5391V85.5404Z" fill="white"/>
<path d="M137.962 67.0791H136.945H116.684H94.8948L91.2305 66.1944V59.8096H139.55L137.962 67.0791Z" fill="#CC0000"/>
<path fill-rule="evenodd" clip-rule="evenodd" d="M128.188 55.8762C128.535 55.7372 129.23 56.0429 130.172 56.2185C132.534 56.6581 134.915 56.9469 137.26 57.4576C139.016 57.8404 141.376 58.3361 142.093 60.2293C142.625 61.631 142.642 63.7852 142.31 65.2458C142.147 65.9644 141.779 66.6254 141.043 66.8624C140.78 66.9471 137.779 67.1314 137.786 67.0645C137.805 66.8726 137.815 66.6775 137.815 66.4805C137.815 63.2949 135.233 60.7126 132.047 60.7126C128.862 60.7126 126.279 63.2949 126.279 66.4805C126.279 66.6775 126.289 66.8726 126.309 67.0645H116.684H104.29C104.309 66.8726 104.319 66.6775 104.319 66.4805C104.319 63.2949 101.736 60.7126 98.5511 60.7126C95.3655 60.7126 92.7832 63.2949 92.7832 66.4805C92.7832 66.5051 92.7838 66.5303 92.784 66.5552L89.9022 65.8593C89.0016 65.6422 88.3672 64.8362 88.3672 63.9092V57.7252C88.3672 56.809 88.795 55.9453 89.5234 55.3901L94.0147 51.9684C94.8833 51.3064 95.9096 50.8852 96.992 50.7405C97.2035 50.7125 97.4158 50.685 97.629 50.6584L98.5381 50.5383L100.074 50.3999" fill="#EC0000"/>
<path fill-rule="evenodd" clip-rule="evenodd" d="M134.2 63.2329C132.4 61.5905 130.181 60.4728 127.814 59.9173C125.325 59.3335 122.885 59.4935 120.301 59.3743C120.042 59.3624 113.836 59.2503 114.09 59.2976C114.316 59.3398 105.991 59.316 103.736 58.9516C102.189 58.7013 101.24 58.1283 99.9978 57.3254C96.898 55.3221 92.642 55.0696 89.2619 56.127C88.6753 56.3107 88.0898 56.5771 87.6906 57.0446C86.6456 58.2679 86.4336 63.8319 87.5032 65.1133C87.8225 65.4958 88.3064 65.694 88.7755 65.8621C89.4889 66.1172 90.2143 66.3398 90.9455 66.5391C91.3991 66.6628 91.8526 66.7766 92.3008 66.9165C92.773 67.0634 93.3194 67.2168 93.8109 67.073C94.1549 66.9725 94.4004 66.7183 94.538 66.3941C95.0804 65.1187 95.4119 63.5961 96.5934 62.8713C97.2083 62.4942 97.9636 62.4087 98.683 62.4642C99.2869 62.5106 99.9103 62.6632 100.364 63.065C100.892 63.5321 101.107 64.2628 101.162 64.9652C101.201 65.4717 100.935 64.8681 101.339 65.1473C101.432 65.2101 102.055 65.4867 102.167 65.487C110.816 65.5142 119.452 65.7461 128.204 65.7503" fill="#CC0000"/>
<path fill-rule="evenodd" clip-rule="evenodd" d="M100.865 50.3259C102.211 50.2056 103.582 50.1122 104.972 50.0485C108.268 49.897 111.468 49.9191 114.514 50.0963C117.082 50.2455 119.583 50.9794 121.826 52.2372L128.962 56.2971L127.672 57.0519L117.718 56.7897L105.326 56.8336L103.266 57.0519L101.52 55.1743L100.676 51.1577L100.865 50.3259Z" fill="#EAF7FE"/>
<path fill-rule="evenodd" clip-rule="evenodd" d="M132.07 61.7993C134.666 61.7993 136.771 63.9037 136.771 66.4996C136.771 69.0954 134.666 71.2001 132.07 71.2001C129.475 71.2001 127.37 69.0954 127.37 66.4996C127.37 63.9037 129.475 61.7993 132.07 61.7993ZM99.4424 61.7993C102.038 61.7993 104.143 63.9037 104.143 66.4996C104.143 69.0954 102.038 71.2001 99.4424 71.2001C96.8466 71.2001 94.7422 69.0954 94.7422 66.4996C94.7422 63.9037 96.8466 61.7993 99.4424 61.7993Z" fill="#34466B"/>
<path fill-rule="evenodd" clip-rule="evenodd" d="M96.4472 50.8498C96.4288 50.839 96.3526 50.8648 96.3314 50.8668C96.1909 50.8801 96.0502 50.9078 95.9107 50.9282C95.3662 51.0078 94.7949 51.072 94.2477 51.1898C94.0186 51.2391 93.7904 51.3011 93.5685 51.3767C93.4382 51.4211 92.8893 51.5881 93.0807 51.8008C93.1384 51.8647 93.7414 52.1637 93.7918 52.1201C93.462 52.4049 93.1344 52.6544 92.8004 52.9089C92.269 53.3137 91.7378 53.7186 91.2064 54.1234C90.6459 54.5504 90.085 54.9776 89.5245 55.4045C89.4019 55.4982 89.2886 55.601 89.1836 55.7108C90.6068 55.1324 91.9708 54.3952 93.323 53.6696C93.6783 53.4791 94.0316 53.2851 94.385 53.0906C94.6933 52.921 95.0237 52.7475 95.3382 52.5725C95.6428 52.4032 95.9854 52.245 96.2167 51.9774C96.4033 51.7617 96.5066 51.4919 96.5066 51.2062C96.5077 51.1332 96.525 50.8951 96.4472 50.8498Z" fill="#767676"/>
<path fill-rule="evenodd" clip-rule="evenodd" d="M118.965 50.9648C119.952 51.2992 120.909 51.7247 121.823 52.2374L128.959 56.2973L127.669 57.0518L117.714 56.7899L115.406 56.7981" fill="#9BC3D3"/>
<path fill-rule="evenodd" clip-rule="evenodd" d="M127.961 56.0949C127.877 56.2031 127.682 56.2272 127.556 56.2263C123.02 56.1904 112.055 56.1037 111.009 56.0907C108.652 56.061 106.278 56.2362 103.926 56.1136C103.507 56.0918 103.047 56.0369 102.766 55.7263C102.572 55.5126 102.503 55.2173 102.441 54.9356C102.097 53.3836 101.753 51.8315 101.41 50.2798C100.962 50.3203 100.514 50.3608 100.066 50.4012C100.409 51.9165 100.751 53.432 101.094 54.9475C101.41 56.3466 102.005 57.2132 103.526 57.329C106.257 57.5374 109.028 57.3387 111.765 57.3004C114.236 57.2656 116.71 57.3115 119.18 57.3656C120.412 57.3927 121.643 57.4239 122.875 57.4539C123.683 57.4734 124.491 57.4998 125.299 57.5334C126.081 57.566 126.887 57.6708 127.666 57.5547C128.15 57.4825 128.61 57.301 128.985 56.9822C129.149 56.8429 129.514 56.5508 129.358 56.2991C129.225 56.0848 129.006 55.9791 128.787 55.8959C128.496 55.7855 128.144 55.7232 127.839 55.6575C127.973 55.6864 128.012 55.8837 128.002 55.9933C127.998 56.0335 127.983 56.0669 127.961 56.0949Z" fill="#CC0000"/>
<path fill-rule="evenodd" clip-rule="evenodd" d="M99.4303 64.2397C100.719 64.2397 101.767 65.242 101.767 66.4741C101.767 67.7059 100.719 68.7081 99.4303 68.7081C98.1529 68.7081 97.1133 67.7059 97.1133 66.4741C97.1133 65.242 98.1529 64.2397 99.4303 64.2397ZM132.045 64.4118C133.242 64.4118 134.215 65.3424 134.215 66.4862C134.215 67.6303 133.242 68.5609 132.045 68.5609C130.859 68.5609 129.894 67.6303 129.894 66.4862C129.894 65.3424 130.859 64.4118 132.045 64.4118Z" fill="#CEDEE7"/>
<path fill-rule="evenodd" clip-rule="evenodd" d="M148.193 44.5728C150.115 44.5728 151.679 46.1364 151.679 48.0586C151.679 49.9807 150.115 51.5444 148.193 51.5444C146.271 51.5444 144.707 49.9807 144.707 48.0586C144.707 46.1364 146.271 44.5728 148.193 44.5728ZM148.193 44.9212C146.463 44.9212 145.056 46.3286 145.056 48.0584C145.056 49.7883 146.463 51.1957 148.193 51.1957C149.923 51.1957 151.33 49.7883 151.33 48.0584C151.33 46.3286 149.923 44.9212 148.193 44.9212ZM146.367 48.4069L146.371 48.407H148.716C148.812 48.407 148.89 48.4849 148.89 48.5813C148.89 48.6776 148.812 48.7556 148.716 48.7556H146.599C146.873 49.3806 147.496 49.8013 148.193 49.8013C148.76 49.8013 149.294 49.5241 149.62 49.0594C149.675 48.9811 149.784 48.9614 149.863 49.017C149.942 49.0725 149.961 49.1811 149.905 49.2599C149.514 49.8172 148.873 50.1499 148.193 50.1499C147.307 50.1499 146.521 49.5812 146.228 48.7556H145.927C145.831 48.7556 145.753 48.6776 145.753 48.5813C145.753 48.4849 145.831 48.407 145.927 48.407H146.363C146.365 48.4072 146.368 48.4066 146.371 48.407L146.367 48.4069ZM148.193 45.9669C148.861 45.9669 149.494 46.2902 149.887 46.8318C149.944 46.9097 149.926 47.0187 149.848 47.0752C149.77 47.1318 149.661 47.1141 149.605 47.0364C149.277 46.585 148.75 46.3155 148.193 46.3155C147.499 46.3155 146.874 46.7372 146.6 47.3613H148.716C148.812 47.3613 148.89 47.4392 148.89 47.5356C148.89 47.6319 148.812 47.7099 148.716 47.7099H145.927C145.831 47.7099 145.753 47.6319 145.753 47.5356C145.753 47.4392 145.831 47.3613 145.927 47.3613H146.227C146.521 46.5365 147.309 45.9669 148.193 45.9669Z" fill="#EC0000"/>
<path fill-rule="evenodd" clip-rule="evenodd" d="M143.442 82.3311C143.923 82.3311 144.314 82.7218 144.314 83.2025L144.313 83.2116C145.089 83.5347 145.617 84.2591 145.692 85.0925C145.903 85.0253 146.057 84.8297 146.057 84.5968C146.057 84.5006 146.135 84.4226 146.231 84.4226C146.327 84.4226 146.405 84.5006 146.405 84.5968C146.405 85.0207 146.101 85.3738 145.7 85.4516C145.64 86.3237 145.086 87.062 144.314 87.3852V88.0827C144.314 88.1789 144.236 88.257 144.139 88.257C144.043 88.257 143.965 88.1789 143.965 88.0827V87.4964C143.797 87.5365 143.623 87.5598 143.442 87.5598H142.048C141.868 87.5598 141.695 87.533 141.525 87.4925V88.0827C141.525 88.1789 141.447 88.257 141.351 88.257C141.255 88.257 141.177 88.1789 141.177 88.0827V87.3855C141.177 87.3838 141.178 87.382 141.178 87.3803C140.634 87.1537 140.189 86.7253 139.958 86.1655H139.608C139.512 86.1655 139.434 86.0874 139.434 85.9912V84.5968C139.434 84.5006 139.512 84.4226 139.608 84.4226H139.958C140.144 83.968 140.473 83.5901 140.899 83.3447C141.027 83.0443 141.399 82.3311 142.048 82.3311C142.144 82.3311 142.222 82.4091 142.222 82.5053V83.0282H142.589C142.669 82.6308 143.022 82.3311 143.442 82.3311ZM141.874 82.7104C141.487 82.8481 141.248 83.4068 141.199 83.5313C141.184 83.5696 141.156 83.6014 141.12 83.6209C140.708 83.8429 140.397 84.21 140.243 84.6537C140.219 84.7241 140.153 84.7712 140.078 84.7712H139.782V85.817H140.078C140.153 85.817 140.219 85.864 140.243 85.9341C140.509 86.6978 141.234 87.2113 142.048 87.2113H143.442C144.5 87.2113 145.359 86.351 145.359 85.2941C145.359 84.5397 144.916 83.861 144.239 83.5529C144.232 83.5707 144.221 83.5871 144.212 83.6038C144.204 83.6198 144.196 83.6359 144.187 83.6512C144.168 83.6815 144.147 83.7101 144.125 83.738C144.119 83.7464 144.113 83.7558 144.106 83.7638C144.077 83.7983 144.045 83.83 144.01 83.8597C143.998 83.8698 143.985 83.8781 143.973 83.8882C143.948 83.9071 143.923 83.9252 143.897 83.9416C143.882 83.9506 143.867 83.959 143.852 83.9674C143.825 83.9817 143.798 83.9942 143.771 84.0061C143.755 84.0127 143.739 84.0193 143.722 84.0249C143.692 84.0357 143.661 84.0437 143.629 84.051C143.615 84.0538 143.6 84.0583 143.585 84.0608C143.538 84.0688 143.491 84.074 143.442 84.074C143.385 84.074 143.33 84.0674 143.277 84.0573C143.259 84.0538 143.243 84.0479 143.225 84.0434C143.19 84.0343 143.155 84.0242 143.122 84.0109C143.102 84.0036 143.084 83.9942 143.065 83.9848C143.036 83.9705 143.007 83.9555 142.98 83.9384C142.962 83.9269 142.944 83.9144 142.927 83.9015C142.902 83.8827 142.878 83.8631 142.854 83.8415C142.839 83.8269 142.823 83.8122 142.808 83.7962C142.786 83.7732 142.767 83.7481 142.747 83.7227C142.735 83.7059 142.722 83.6895 142.71 83.6721C142.692 83.6432 142.676 83.6122 142.661 83.5808C142.653 83.5641 142.643 83.5484 142.636 83.5313C142.617 83.4853 142.602 83.4368 142.591 83.3866C142.591 83.3838 142.589 83.3807 142.589 83.3772L142.048 83.3769C141.952 83.3769 141.874 83.2988 141.874 83.2026V82.7104ZM141.002 84.4227C141.098 84.4227 141.176 84.5007 141.176 84.5969V84.9455C141.176 85.0417 141.098 85.1198 141.002 85.1198C140.906 85.1198 140.828 85.0417 140.828 84.9455V84.5969C140.828 84.5007 140.906 84.4227 141.002 84.4227ZM144.139 84.4227C144.236 84.4227 144.314 84.5007 144.314 84.5969C144.314 84.6932 144.236 84.7712 144.139 84.7712H142.745C142.649 84.7712 142.571 84.6932 142.571 84.5969C142.571 84.5007 142.649 84.4227 142.745 84.4227H144.139ZM143.442 82.6797C143.154 82.6797 142.919 82.9143 142.919 83.2026C142.919 83.4909 143.154 83.7255 143.442 83.7255C143.694 83.7255 143.915 83.539 143.957 83.2919C143.963 83.2612 143.965 83.2333 143.965 83.2026C143.965 82.9143 143.731 82.6797 143.442 82.6797Z" fill="#EC0000"/>
<circle cx="98.1263" cy="111.961" r="1.22004" fill="#9BC3D3"/>
<ellipse cx="100.391" cy="107.255" rx="1.74292" ry="1.74292" fill="#9BC3D3"/>
<circle cx="103.182" cy="101.329" r="2.44009" fill="#9BC3D3"/>
</svg>
