<svg width="160" height="160" viewBox="0 0 160 160" fill="none" xmlns="http://www.w3.org/2000/svg">
<mask id="mask0_1483_87278" style="mask-type:luminance" maskUnits="userSpaceOnUse" x="0" y="0" width="160" height="160">
<rect width="160" height="160" fill="white"/>
</mask>
<g mask="url(#mask0_1483_87278)">
<rect width="160" height="160" fill="white"/>
<rect opacity="0.01" x="0.0390625" y="33.939" width="160" height="90.4" fill="white"/>
<path fill-rule="evenodd" clip-rule="evenodd" d="M148.18 56.2331C148.18 56.2331 165.783 68.3979 158.092 82.3607C155.032 87.9179 149.122 93.2431 142.579 97.9007C132.872 104.81 121.816 110.121 117.419 112.085C109.18 115.759 100.365 117.971 91.3672 118.623C89.4072 118.767 87.4828 118.839 85.4872 118.839C84.2404 118.839 92.4708 117.61 77.8072 118.623C63.1436 119.636 52.6344 136.89 39.2836 132.56C25.9328 128.23 30.8812 118.672 24.4036 101.302C17.926 83.9315 -4.49801 63.3071 0.803586 49.1723C6.25839 34.6307 21.7904 43.2415 34.7076 37.9999C43.6372 34.3767 44.9624 24.9055 63.7512 26.5999C82.54 28.2943 79.674 39.4559 105.828 44.7123L148.18 56.2331Z" fill="#EAF7FE"/>
<path fill-rule="evenodd" clip-rule="evenodd" d="M28.2496 51.8835C46.3584 37.8235 91.4896 33.4899 125.21 39.8767C158.93 46.2635 145.801 63.4715 145.801 63.4715L110.13 96.1167C110.13 96.1167 77.5736 110.664 52.7696 96.1167C27.9656 81.5695 10.1388 65.9435 28.2496 51.8835Z" fill="#9BC3D3"/>
<path fill-rule="evenodd" clip-rule="evenodd" d="M27.2106 49.113C45.3194 35.053 90.4506 30.7194 124.171 37.1062C157.891 43.493 144.762 60.701 144.762 60.701L109.091 93.3462C109.091 93.3462 76.5346 107.893 51.7306 93.3462C26.9266 78.799 9.09976 63.173 27.2106 49.113Z" fill="#CEDEE7"/>
<path fill-rule="evenodd" clip-rule="evenodd" d="M64.6243 90.4742L60.8047 75.6182L78.2931 71.1382L82.0823 85.9974L64.6243 90.4742Z" fill="#1BB3BC"/>
<path fill-rule="evenodd" clip-rule="evenodd" d="M63.3352 93.8688L59.5156 79.0096L76.9728 74.5332L80.7932 89.3892L63.3352 93.8688Z" fill="white"/>
<path fill-rule="evenodd" clip-rule="evenodd" d="M110.271 117.3C115.119 115.471 119.647 112.887 123.687 109.642L125.856 113.976C121.656 117.416 118.009 119.739 112.959 121.639C106.173 124.18 96.9813 123.955 89.5938 123.456V120.34C96.6231 120.789 103.668 119.754 110.271 117.3Z" fill="#34466B"/>
<path fill-rule="evenodd" clip-rule="evenodd" d="M70.8614 81.8264L70.3246 76.864L68.241 73.486C67.7901 72.7239 67.4602 71.8965 67.263 71.0332L66.4114 67.3132C66.3786 67.2628 66.4114 67.2088 66.4738 67.1804C66.7994 66.986 67.2207 67.0885 67.4206 67.4108L69.5042 70.82L70.041 64.4716C70.1021 63.7107 70.6115 63.0596 71.3354 62.8172C71.5566 62.7448 71.8714 62.65 72.1566 62.552C72.8898 62.3245 73.677 62.6829 73.987 63.3852C73.987 63.3852 77.5222 72.5452 76.2598 76.6532L76.0074 77.4268L75.8494 83.554L70.8614 81.8264Z" fill="#FFC4B8"/>
<path fill-rule="evenodd" clip-rule="evenodd" d="M132.612 102.125C131.01 104.379 129.293 106.549 127.467 108.625C118.261 118.999 104.196 123.634 90.6265 120.763C90.5313 120.744 90.4373 120.723 90.3421 120.7C89.2685 120.473 88.1953 120.189 87.1217 119.86C85.7084 119.422 84.4348 118.621 83.4281 117.536C82.4051 116.457 81.6864 115.126 81.3453 113.679H81.3141C80.6821 113.597 70.3913 112.132 70.3913 102.305L70.0781 78.2466L77.1181 77.8394L80.1773 96.3226C80.2567 97.0924 80.682 97.7842 81.333 98.2026C81.9841 98.6209 82.7902 98.7203 83.5233 98.4726L102.875 91.9822L116.259 87.0198L128.319 82.5622C128.319 82.5622 139.936 91.8686 132.611 102.125" fill="#F6C854"/>
<path fill-rule="evenodd" clip-rule="evenodd" d="M89.7867 120.649C88.7139 120.422 87.0227 120.188 85.9491 119.863C84.536 119.423 83.2627 118.621 82.2555 117.536C81.2326 116.458 80.5137 115.128 80.1719 113.682C82.5379 113.836 84.9122 113.562 87.1811 112.874L89.7867 120.649Z" fill="#34466B"/>
<path d="M95.6556 56.8399L91.74 55.0531C91.4535 54.9177 91.2383 54.6668 91.1479 54.3632C91.0575 54.0596 91.1006 53.7318 91.2664 53.4619C91.5493 53.0202 92.1 52.8328 92.5936 53.0103L96.95 54.5855L95.6556 56.8399Z" fill="#FFC4B8"/>
<path d="M124.608 86.059C122.82 92.4148 116.227 96.1254 109.866 94.355C109.534 94.2659 109.207 94.159 108.887 94.035C108.231 93.7934 107.598 93.4955 106.993 93.1446V93.139C106.741 92.9842 106.488 92.817 106.235 92.6466V92.637C105.934 92.4436 105.649 92.2261 105.383 91.9866C105.288 91.911 105.194 91.8354 105.099 91.7562C103.862 90.6445 102.873 89.2851 102.195 87.7662C102.096 87.5833 102.012 87.3933 101.942 87.1978C101.88 87.0242 101.816 86.8474 101.753 86.6674C101.658 86.4178 101.593 86.1686 101.5 85.9098C101.406 85.4614 101.31 85.0038 101.247 84.5398C101.222 84.4746 101.211 84.4044 101.216 84.3346C101.153 83.9877 101.121 83.6359 101.121 83.2834V82.4754C101.121 82.2574 101.153 82.0398 101.153 81.825C101.213 81.0771 101.35 80.3375 101.563 79.6182C102.415 76.5608 104.447 73.9677 107.213 72.4103C109.978 70.8529 113.249 70.4591 116.305 71.3158C122.66 73.1058 126.371 79.6963 124.607 86.0582" fill="#FFC4B8"/>
<path fill-rule="evenodd" clip-rule="evenodd" d="M85.7267 37.0483L83.6347 41.9551H78.2283L76.1719 37.0483H85.7267Z" fill="#9BC3D3"/>
<path fill-rule="evenodd" clip-rule="evenodd" d="M111.762 43.4589V43.4777H50.0938V43.4589C50.0935 41.7952 51.4381 40.4442 53.1018 40.4365H108.753C109.554 40.4363 110.321 40.7551 110.886 41.3224C111.45 41.8897 111.765 42.6586 111.761 43.4589" fill="white"/>
<path fill-rule="evenodd" clip-rule="evenodd" d="M50.0938 43.4775L63.7201 46.7551H98.1337L111.761 43.4775H50.0938Z" fill="#9BC3D3"/>
<path d="M76.3605 74.3302L72.3833 75.953C71.9378 76.1303 71.4323 75.9183 71.2465 75.4762L66.9217 64.8694C66.7529 64.4275 66.9616 63.9311 67.3953 63.7426L71.3733 62.123C71.8178 61.9446 72.3232 62.1553 72.5093 62.5966L76.8345 73.2034C76.9234 73.4154 76.9232 73.6542 76.8342 73.8661C76.7451 74.0781 76.5746 74.2453 76.3609 74.3302" fill="#DEEDF2"/>
<path d="M72.5207 75.5726C72.1285 75.7281 71.6839 75.5412 71.5207 75.1522L67.3207 64.9718C67.1724 64.5819 67.3569 64.1444 67.7395 63.9782L71.2443 62.551C71.6362 62.3938 72.082 62.5793 72.2467 62.9682L76.4467 73.1486C76.5245 73.3356 76.5241 73.546 76.4455 73.7327C76.3669 73.9194 76.2168 74.0668 76.0287 74.1418" fill="white"/>
<path fill-rule="evenodd" clip-rule="evenodd" d="M96.4764 50.9206L98.7045 53.5749C99.6795 54.7363 99.9609 56.3296 99.4426 57.7547C98.9243 59.1798 97.6851 60.2201 96.1918 60.4838C94.6985 60.7474 93.178 60.1944 92.203 59.033L89.9749 56.3787C89 55.2173 88.7187 53.624 89.2371 52.1991C89.7554 50.7741 90.9946 49.7339 92.4878 49.4703C93.981 49.2067 95.5015 49.7598 96.4764 50.9212" fill="#34466B"/>
<path fill-rule="evenodd" clip-rule="evenodd" d="M102.865 59.9314L103.794 65.1764L100.703 66.3606L94.4194 59.5425C93.7792 58.8471 93.33 57.9977 93.1155 57.0771L92.6258 55.0333C92.5016 54.5142 92.6514 53.9675 93.023 53.5843C93.3946 53.201 93.9363 53.0343 94.4591 53.1424L97.9491 53.8313C98.3306 53.9157 98.6658 54.1415 98.8875 54.4632L102.865 59.9314Z" fill="#FFC4B8"/>
<path fill-rule="evenodd" clip-rule="evenodd" d="M119.608 93.4936C118.281 96.8272 113.387 98.7736 108.684 97.8404C104.58 97.026 102.231 95.2156 102.298 92.1732L111.051 88.13L115.629 86.438C118.976 87.8552 120.68 90.7156 119.607 93.4936" fill="#FFC4B8"/>
<path fill-rule="evenodd" clip-rule="evenodd" d="M104.216 61.9331L98.4102 65.3427L111.234 93.5827C111.234 93.5827 128.402 83.0107 128.496 82.7263" fill="#F6C854"/>
<path d="M104.428 82.1557L103.955 78.5157L102.755 77.5497C102.123 77.0461 99.5266 77.7497 99.4922 76.8873C102.04 75.9377 101.001 75.9957 103.237 73.4937C107.134 70.2353 110.393 69.4977 114.18 70.3373C115.283 70.5573 116.34 70.9631 117.307 71.5373C117.732 71.8147 118.062 72.2143 118.254 72.6833L104.428 82.1557Z" fill="#723846"/>
<path fill-rule="evenodd" clip-rule="evenodd" d="M125.019 83.2919C124.99 84.2255 124.852 85.1526 124.608 86.0543C124.216 87.4267 123.586 88.7197 122.746 89.8743C119.049 94.9439 111.352 96.7027 106.541 93.6027C104.901 92.5459 103.173 89.4827 103.173 89.4827L101.942 87.1935C101.88 87.0199 101.816 86.8431 101.753 86.6631C101.663 86.4156 101.589 86.1625 101.532 85.9055C101.437 85.5675 101.342 85.2255 101.279 84.8731C101.279 84.7627 101.247 84.6491 101.247 84.5355C101.222 84.4703 101.211 84.4001 101.216 84.3303C101.153 83.9834 101.121 83.6316 101.121 83.2791V82.4711C101.121 82.2531 101.153 82.0355 101.153 81.8207C101.207 81.2733 101.292 80.7294 101.406 80.1915C101.468 79.9991 101.5 79.8063 101.563 79.6139C101.777 78.8489 102.062 78.1059 102.416 77.3947C105.008 72.3196 110.818 69.775 116.306 71.3115C121.736 72.8315 127.63 77.0635 127.41 82.4715" fill="#723846"/>
<path fill-rule="evenodd" clip-rule="evenodd" d="M103.215 89.5295C103.215 89.5295 104.338 100.512 114.325 105.263C124.312 110.014 131.367 101.195 131.367 101.195C131.367 101.195 129.962 98.9219 127.997 98.2519C126.032 97.5819 123.508 98.5151 123.508 98.5151C123.508 98.5151 128.15 89.4451 127.415 82.3835C126.681 75.3219 103.215 89.5295 103.215 89.5295Z" fill="#723846"/>
</g>
</svg>
