<svg width="160" height="160" viewBox="0 0 160 160" fill="none" xmlns="http://www.w3.org/2000/svg">
<mask id="mask0_1487_13829" style="mask-type:luminance" maskUnits="userSpaceOnUse" x="0" y="8" width="160" height="145">
<rect y="8" width="160" height="144.8" fill="white"/>
</mask>
<g mask="url(#mask0_1487_13829)">
<rect y="8" width="160" height="144.8" fill="white"/>
<path fill-rule="evenodd" clip-rule="evenodd" d="M91.1339 147.461C125.265 137.367 144.414 102.608 133.897 69.8275C123.381 37.0471 87.1883 18.6651 53.0575 28.7631C18.9267 38.8611 -0.222533 73.6163 10.2939 106.393C20.8055 139.169 57.0031 157.555 91.1339 147.461Z" fill="#CEDEE7"/>
<path d="M22.3769 97.1481C32.0717 128.617 65.44 146.269 96.9093 136.577C112.022 131.921 124.665 121.453 132.059 107.475C139.453 93.497 140.991 77.1543 136.335 62.0421C126.641 30.5737 93.2714 12.9224 61.8029 22.6169C46.6912 27.272 34.0476 37.7397 26.6538 51.717C19.26 65.6944 17.7215 82.0364 22.3769 97.1481Z" fill="white"/>
<path fill-rule="evenodd" clip-rule="evenodd" d="M136.783 81.5434C136.783 111.076 112.795 135.018 83.2003 135.018C53.6059 135.018 29.6211 111.076 29.6211 81.5434C29.6211 52.0106 53.6099 28.0654 83.2003 28.0654C112.791 28.0654 136.783 52.0074 136.783 81.5434Z" fill="#DEEDF2"/>
<path d="M86.1217 48.9839C86.8099 51.0632 87.7305 53.0582 88.8661 54.9311C86.2316 51.9563 84.2279 48.478 82.9761 44.7067C82.6183 43.6221 82.1676 42.5705 81.6289 41.5635C83.6788 43.6572 85.2164 46.1969 86.1213 48.9839" fill="#9BC3D3"/>
<path fill-rule="evenodd" clip-rule="evenodd" d="M88.5703 57.1479C88.5703 57.1479 92.0067 57.5523 93.5451 58.4711L89.2199 60.3767L88.5703 57.1479Z" fill="#990000"/>
<path fill-rule="evenodd" clip-rule="evenodd" d="M86.0907 62.6089L79.5831 63.8725C77.6626 64.2454 76.0116 65.4623 75.0871 67.1865L64.3359 87.2137L71.8047 90.8913L78.7187 76.6645L86.0907 62.6089Z" fill="#CC0000"/>
<path fill-rule="evenodd" clip-rule="evenodd" d="M79.9705 59.6143L78.8477 61.4051L80.6077 66.3615L84.2445 62.4591L81.3701 59.6259L79.9705 59.6143Z" fill="#990000"/>
<path fill-rule="evenodd" clip-rule="evenodd" d="M77.4483 66.6669L94.0339 66.4609L89.2091 88.6169L80.3415 93.5369L69.5547 89.2529L74.8467 69.3497L77.4483 66.6669Z" fill="#CC0000"/>
<path fill-rule="evenodd" clip-rule="evenodd" d="M90.641 49.364C89.4616 53.7959 84.9134 56.4331 80.481 55.2552C76.0487 54.0763 73.4111 49.5277 74.5894 45.0952C75.1551 42.9664 76.5435 41.1496 78.4489 40.0446C80.3544 38.9397 82.6209 38.6371 84.7494 39.2036C86.8783 39.7693 88.6952 41.1576 89.8004 43.063C90.9056 44.9684 91.2086 47.2348 90.6426 49.3636" fill="#EC0000"/>
<path fill-rule="evenodd" clip-rule="evenodd" d="M91.7162 59.6828C91.7162 59.6828 86.0158 67.0788 80.4658 69.7628L79.7734 65.3332C80.2168 64.9057 80.5812 64.4032 80.8498 63.8488C80.9181 63.7124 80.9789 63.5723 81.0318 63.4292C81.0963 63.2604 81.152 63.0883 81.1986 62.9136C81.406 62.1325 81.4294 61.3138 81.267 60.522L80.6974 57.722L80.653 57.5048L81.1706 57.0148L88.3306 50.2104C88.3306 50.2104 87.8206 56.7792 91.7154 59.6832" fill="#FFC4B8"/>
<path fill-rule="evenodd" clip-rule="evenodd" d="M80.3523 62.4453C80.3523 62.4453 81.9607 66.5273 87.4575 62.9629C87.4575 62.9629 86.6335 73.5973 86.3887 73.6473C86.1439 73.6973 78.9015 73.5469 78.9015 73.5469L78.0703 68.2121L80.3523 62.4453Z" fill="white"/>
<path fill-rule="evenodd" clip-rule="evenodd" d="M81.4589 112.396C80.1914 112.329 78.9415 112.069 77.7529 111.624L71.4349 109.253C65.8193 107.147 60.5772 104.156 55.9077 100.392L54.4805 99.2434L61.5205 86.3174L96.2681 94.2374C96.2681 94.2374 96.2681 112.394 81.4609 112.394" fill="#34466B"/>
<path fill-rule="evenodd" clip-rule="evenodd" d="M85.0974 63.4939L79.1634 71.7923L74.7578 88.3591L92.7422 92.5471L96.5506 64.0231L89.807 60.5327C87.9102 60.8647 86.2194 61.9275 85.0978 63.4927" fill="#CC0000"/>
<path fill-rule="evenodd" clip-rule="evenodd" d="M78.552 87.3308L75.072 87.1708L71.504 84.1276C71.1917 83.8604 70.8086 83.6896 70.4012 83.636L67.0336 83.1832C66.5168 83.1137 66.0053 83.3431 65.7136 83.7752L64.8152 85.1092C64.7776 85.1631 64.7707 85.2326 64.7972 85.2928L64.8876 85.5196C64.9119 85.576 64.9609 85.618 65.0203 85.6336C65.0797 85.6492 65.143 85.6367 65.192 85.5996L65.3076 85.5072L65.168 85.7836C65.0918 85.9325 65.1163 86.1132 65.2296 86.2364L65.5576 86.5964C65.7017 86.7533 65.9436 86.7697 66.1076 86.6336L67.6084 85.3936C67.6352 85.371 67.6709 85.3622 67.7052 85.3696L68.4788 85.5296C68.5255 85.5393 68.5613 85.5771 68.5683 85.6244C68.5754 85.6716 68.5522 85.7182 68.5104 85.7412L67.5032 86.3072C67.4094 86.3597 67.3556 86.4627 67.366 86.5697C67.3764 86.6766 67.449 86.7673 67.5512 86.8008L68.3088 87.0548C68.3569 87.0694 68.4078 87.072 68.4572 87.0624L68.988 86.94C69.1364 86.9061 69.292 86.9251 69.428 86.9936L70.172 87.372C70.3187 87.4463 70.443 87.5584 70.532 87.6968L70.992 88.4024C71.2063 88.7334 71.5173 88.9905 71.8828 89.1388L79.1328 92.0948L78.552 87.3308Z" fill="#FFC4B8"/>
<path fill-rule="evenodd" clip-rule="evenodd" d="M65.4883 86.9561L75.5683 90.3297L65.4883 86.9561Z" fill="#EC0000"/>
<path d="M67.5009 88.4494L47.3809 83.0994C46.9982 82.9971 46.739 82.6414 46.7589 82.2458L47.5257 67.3954C47.5375 67.1424 47.6631 66.9084 47.8675 66.7588C48.0719 66.6092 48.333 66.5602 48.5777 66.6254L68.6977 71.975C69.0811 72.0763 69.3408 72.4327 69.3197 72.8286L68.5549 87.6786C68.5422 87.9313 68.4163 88.1648 68.2122 88.3142C68.0081 88.4637 67.7476 88.5132 67.5029 88.449" fill="white"/>
<path fill-rule="evenodd" clip-rule="evenodd" d="M68.6608 72.6546L67.898 87.5046C67.8853 87.7571 67.7595 87.9905 67.5555 88.14C67.3515 88.2894 67.091 88.339 66.8464 88.275L58.422 86.035L47.7376 83.195L46.7264 82.9258C46.3433 82.8236 46.0845 82.4665 46.1068 82.0706L46.8712 67.2222C46.8828 66.9755 47.0031 66.7466 47.1996 66.597C47.4051 66.4386 47.6726 66.3851 47.9232 66.4522L56.1432 68.6362L68.0412 71.7998C68.4243 71.9024 68.6835 72.2589 68.6628 72.655" fill="#EC0000"/>
<path fill-rule="evenodd" clip-rule="evenodd" d="M88.0145 53.0504L83.1937 59.0272C82.643 59.7733 81.7903 60.2375 80.8648 60.2951C79.9392 60.3528 79.0356 59.998 78.3965 59.326C77.8693 58.7677 77.3752 58.1791 76.9165 57.5632L75.8641 56.1492C75.7937 56.0544 75.7265 55.958 75.6641 55.8616C75.4326 55.5095 75.2403 55.1331 75.0905 54.7392C74.7826 53.9449 74.6503 53.0935 74.7025 52.2432L74.9941 47.4484C75.0513 46.5033 75.6017 45.6581 76.4429 45.2236C78.2415 44.2949 80.3215 44.0693 82.2773 44.5908C82.4273 44.6308 82.5777 44.674 82.7265 44.7224L83.8265 45.014C84.6263 45.2227 85.3628 45.624 85.9717 46.1828C86.4633 46.6312 86.8623 47.1715 87.1461 47.7732C87.3506 48.2065 87.4932 48.6663 87.5697 49.1392C87.6714 49.7683 87.6543 50.4108 87.5193 51.0336L87.8589 50.6104C88.0777 50.6696 88.0169 53.0504 88.0169 53.0504" fill="#FFC4B8"/>
<path fill-rule="evenodd" clip-rule="evenodd" d="M74.943 48.1777L76.3993 48.3777L78.0326 55.7557L74.3438 55.2953L74.943 48.1777Z" fill="#FFC4B8"/>
<path fill-rule="evenodd" clip-rule="evenodd" d="M79.4625 60.4543C79.4625 60.4543 78.5733 60.9183 80.2085 63.3899C81.8437 65.8615 81.9733 70.1607 81.9733 70.1607L79.1825 75.0203L74.8477 69.3495L77.0725 63.4295C77.5326 62.2085 78.3699 61.1659 79.4629 60.4531" fill="#CC0000"/>
<path fill-rule="evenodd" clip-rule="evenodd" d="M93.5444 58.4707L94.7084 61.5175L91.7004 64.0911C91.2856 62.8719 90.3849 61.8786 89.212 61.3467C88.9632 61.2486 88.8 61.0079 88.8008 60.7405C88.8016 60.473 88.9662 60.2334 89.2156 60.1367L93.5444 58.4707Z" fill="#CC0000"/>
<path fill-rule="evenodd" clip-rule="evenodd" d="M89.1328 49.9891C89.4372 48.8479 89.1512 47.7827 88.4964 47.6083C87.8416 47.4339 87.064 48.2171 86.7616 49.3583C86.4592 50.4995 86.7428 51.5647 87.3976 51.7391C88.0524 51.9135 88.8308 51.1303 89.1328 49.9891Z" fill="#FFC4B8"/>
<path fill-rule="evenodd" clip-rule="evenodd" d="M45.481 123.457L62.1402 94.7659L76.029 91.7507L65.3374 85.7347C61.0248 83.3077 55.5625 84.7938 53.0738 89.0711L37.207 116.337L45.481 123.457Z" fill="#34466B"/>
<path fill-rule="evenodd" clip-rule="evenodd" d="M37.865 121.987L54.5246 93.2978L68.4138 90.2826L57.7222 84.265C53.4094 81.8388 47.9476 83.3247 45.4582 87.6014L29.5898 114.869L37.865 121.987Z" fill="#34466B"/>
<path fill-rule="evenodd" clip-rule="evenodd" d="M77.9007 46.1868C76.6035 46.0052 75.2139 45.7044 74.3439 44.7248C73.4739 43.7452 73.5495 41.8804 74.7707 41.4048C75.1511 41.256 75.6107 41.2448 75.8907 40.9484C76.2211 40.5996 76.1375 40.0372 76.3195 39.594C76.7523 38.54 78.2479 38.672 79.3835 38.794C80.5947 38.922 81.8215 38.82 83.0339 38.954C84.2463 39.088 85.4975 39.5088 86.2659 40.4552C87.5351 42.0216 86.7459 44.76 84.8391 45.4112C84.8391 45.4112 80.2691 46.5228 77.9027 46.1888" fill="#EC0000"/>
<path fill-rule="evenodd" clip-rule="evenodd" d="M87.9761 51.0174C88.0972 52.2105 87.7403 53.403 86.9837 54.3334L83.1965 59.0278C82.6458 59.7738 81.7932 60.238 80.8677 60.2957C79.9422 60.3533 79.0387 59.9985 78.3997 59.3266C78.0977 59.011 77.8113 58.6826 77.5457 58.3614C77.3197 58.0886 77.1121 57.8198 76.9189 57.5634L76.6073 57.1422L76.5869 57.1142L76.1869 56.5762L75.8669 56.1494C75.7957 56.0546 75.7289 55.9582 75.6641 55.8618C76.7027 55.361 77.9227 55.4111 78.9169 55.9954L84.1069 53.201L86.2873 45.001L87.3117 47.2926C87.3117 47.2926 87.9517 49.449 87.5197 51.0334L87.8589 50.6106C87.9145 50.6254 87.9517 50.785 87.9757 51.017" fill="#EC0000"/>
<path fill-rule="evenodd" clip-rule="evenodd" d="M77.5443 58.3613C77.3179 58.0885 77.1099 57.8197 76.9171 57.5637L76.6055 57.1425L78.4887 56.6953C78.4887 56.6953 78.1971 57.8437 77.5447 58.3617" fill="#FFC4B8"/>
<path fill-rule="evenodd" clip-rule="evenodd" d="M93.3519 60.6475L96.7571 62.4307C100.623 64.4574 102.908 68.5931 102.567 72.9443L101.24 89.8207C100.964 93.3266 97.9437 95.9733 94.4319 95.7863L77.2067 94.8715C77.2067 94.8715 79.2995 88.3567 77.2031 86.9071L92.4483 87.2671L92.6579 70.1995L93.3519 60.6475Z" fill="#CC0000"/>
<path fill-rule="evenodd" clip-rule="evenodd" d="M45.4149 120.948C45.1269 122.719 44.9249 125.127 44.9249 125.127H27.6289C27.6289 125.127 40.1133 116.786 42.8429 116.636L45.4149 120.948Z" fill="#34466B"/>
<path fill-rule="evenodd" clip-rule="evenodd" d="M41.7121 115.588C41.4225 117.356 38.1437 121.32 38.1437 121.32H20.8477C20.8477 121.32 33.3341 112.98 36.0621 112.83L41.7121 115.588Z" fill="#34466B"/>
<path fill-rule="evenodd" clip-rule="evenodd" d="M56.1376 68.6355L47.7324 83.1955L46.7208 82.9263C46.3375 82.8239 46.0782 82.4673 46.0988 82.0711L46.8656 67.2227C46.877 66.976 46.9971 66.7471 47.1936 66.5975C47.3992 66.4391 47.6669 66.3855 47.9176 66.4527L56.1376 68.6355Z" fill="#CC0000"/>
<path d="M66.5664 109.943C72.7792 110.268 78.832 107.623 85.054 107.73C89.1672 107.8 93.1588 109.071 97.0408 110.433C97.9648 110.758 98.9208 111.111 99.6008 111.818C100.281 112.524 100.576 113.695 100.012 114.495C99.4188 115.332 98.2276 115.406 97.2032 115.401L80.6568 115.295C78.1792 115.28 75.6728 115.26 73.2712 114.651C70.8696 114.042 68.5492 112.771 67.1592 110.721" fill="#DEEDF2"/>
</g>
</svg>
