<svg width="160" height="161" viewBox="0 0 160 161" fill="none" xmlns="http://www.w3.org/2000/svg">
<path d="M113.844 74.9544C115.221 73.4702 116.848 72.1699 118.707 71.1229C128.344 65.6952 140.556 69.107 145.983 78.7433C149.264 84.5688 149.316 91.3355 146.713 96.9749C146.068 94.9962 145.218 93.0522 144.158 91.1697C137.86 79.9881 125.847 74.0499 113.844 74.9544Z" fill="#DEEDF2"/>
<path d="M113.844 74.9544C114.422 73.0142 115.308 71.1283 116.512 69.3671C122.755 60.2378 135.217 57.8986 144.346 64.1417C149.865 67.916 152.903 73.9626 153.062 80.1717C151.608 78.6825 149.987 77.3143 148.203 76.0945C137.61 68.8504 124.21 68.8353 113.844 74.9544Z" fill="#DEEDF2"/>
<path d="M113.847 74.9547C113.618 72.9429 113.691 70.8611 114.107 68.7683C116.266 57.9212 126.809 50.8779 137.656 53.0364C144.214 54.341 149.381 58.7099 151.964 64.3582C150.043 63.5589 148.015 62.937 145.896 62.5153C133.309 60.0108 120.979 65.2574 113.847 74.9547Z" fill="#DEEDF2"/>
<path fill-rule="evenodd" clip-rule="evenodd" d="M148.679 85.8975L148.57 86.0874L147.337 88.2213L140.947 99.2903C135.978 107.899 126.793 113.202 116.852 113.202H107.384C99.8499 123.025 89.0998 129.83 77.1032 132.48C74.5008 133.057 71.8387 133.437 69.1392 133.609C68.0273 133.681 66.9095 133.716 65.7858 133.716H44.7358C26.1265 133.716 12.8086 118.441 12.8086 101.789C12.8086 97.8941 13.5374 93.9241 15.098 90.0559C15.6621 88.6537 16.3385 87.2637 17.127 85.8975H148.679Z" fill="#EAF7FE"/>
<path fill-rule="evenodd" clip-rule="evenodd" d="M64.9959 133.716H44.7359C26.1267 133.716 12.8086 118.441 12.8086 101.789C12.8086 97.8936 13.5374 93.9237 15.0982 90.0557H39.7857L64.9959 133.716Z" fill="#DEEDF2"/>
<path d="M96.1514 58.709C82.8773 58.709 72.1165 69.4698 72.1165 82.7441C72.1165 82.8914 72.1194 83.038 72.1222 83.1847H10.9727V97.4561H77.1457C81.5422 103.128 88.42 106.779 96.1514 106.779C109.426 106.779 120.186 96.0182 120.186 82.7441C120.186 69.4698 109.426 58.709 96.1514 58.709Z" fill="white"/>
<path d="M13.6445 137.687C14.1945 135.804 15.0413 133.972 16.198 132.259C22.1954 123.38 34.2548 121.044 43.1337 127.041C48.5015 130.666 51.4784 136.507 51.6672 142.522C50.2508 141.087 48.6722 139.771 46.9378 138.599C36.6349 131.64 23.6531 131.701 13.6445 137.687Z" fill="white"/>
<path d="M13.6465 137.687C13.3071 135.755 13.2566 133.737 13.5371 131.689C14.99 121.074 24.7734 113.646 35.3892 115.099C41.8067 115.977 47.0592 119.9 49.8879 125.211C47.9833 124.55 45.9853 124.068 43.9117 123.784C31.5938 122.098 19.9767 127.893 13.6465 137.687Z" fill="white"/>
<path d="M13.6453 137.687C12.5749 136.043 11.7364 134.207 11.1903 132.214C8.35961 121.879 14.4418 111.208 24.7759 108.377C31.023 106.666 37.3937 108.211 42.0803 111.986C40.0691 112.126 38.0422 112.466 36.0235 113.019C24.0323 116.304 15.6226 126.193 13.6453 137.687Z" fill="white"/>
<path d="M13.6472 137.687C12.0889 136.495 10.685 135.046 9.50404 133.349C3.38178 124.556 5.54724 112.465 14.3407 106.342C19.6564 102.641 26.1774 101.969 31.8561 103.959C30.0072 104.764 28.2105 105.762 26.493 106.958C16.2893 114.062 11.669 126.194 13.6472 137.687Z" fill="white"/>
<path d="M29.7767 39.626C30.1832 39.5875 32.9974 39.5577 36.4083 39.5577C40.0985 39.5577 43.0901 39.5926 43.0901 39.6357C43.0901 39.6427 43.0096 39.6496 42.8586 39.6561C42.9153 39.6561 42.9716 39.6561 43.0275 39.6561L43.0904 39.6561V39.6562C45.0043 39.6579 46.5128 39.6765 46.5128 39.6993C46.5128 39.722 45.0043 39.7407 43.0904 39.7423V39.7425H18.7627V39.7425H18.7627C17.2715 39.7425 16.0625 39.7284 16.0625 39.711C16.0625 39.6936 17.2715 39.6795 18.7627 39.6795H18.7627V39.6795L24.9263 39.6735C24.8981 39.6714 24.8835 39.6692 24.8835 39.667C24.8835 39.6431 26.5417 39.6237 28.5872 39.6237C29.0033 39.6237 29.4033 39.6245 29.7767 39.626Z" fill="#DEEDF2"/>
<path d="M50.3672 63.1393H56.1293V41.9692H50.3672V63.1393Z" fill="#DEEDF2"/>
<path fill-rule="evenodd" clip-rule="evenodd" d="M24.8789 66.3546H33.959V41.9692H24.8789V66.3546Z" fill="#EAF7FE"/>
<path fill-rule="evenodd" clip-rule="evenodd" d="M16.2344 68.5242H25.3145V44.1387H16.2344V68.5242Z" fill="#EAF7FE"/>
<path fill-rule="evenodd" clip-rule="evenodd" d="M53.6641 63.1392H61.2632V41.6827C61.2632 37.4857 57.861 34.0835 53.6641 34.0835V63.1392Z" fill="#EAF7FE"/>
<path fill-rule="evenodd" clip-rule="evenodd" d="M51.3633 63.1392H53.6634V34.0835C52.2772 34.6194 51.3633 35.9525 51.3633 37.4385V63.1392Z" fill="#EAF7FE"/>
<path d="M40.2734 59.3692H42.5734V32.2695L40.2734 33.1588V59.3692Z" fill="white"/>
<path d="M32.8086 63.1391H35.1087V39.46L32.8086 40.3491V63.1391Z" fill="white"/>
<path d="M22.5781 63.1393H24.8783V41.9692L22.5781 42.8585V63.1393Z" fill="white"/>
<path fill-rule="evenodd" clip-rule="evenodd" d="M13.0391 76.6496H14.8058V56.3872H13.0391V76.6496Z" fill="#EAF7FE"/>
<path fill-rule="evenodd" clip-rule="evenodd" d="M42.5703 59.3687H47.4456V32.269H42.5703V59.3687Z" fill="#EAF7FE"/>
<path d="M37.668 63.1391H43.981V42.877H37.668V63.1391Z" fill="#DEEDF2"/>
<path fill-rule="evenodd" clip-rule="evenodd" d="M35.1094 63.1391H41.4224V39.46H35.1094V63.1391Z" fill="#EAF7FE"/>
<path fill-rule="evenodd" clip-rule="evenodd" d="M27.1758 63.1394H32.8079V49.5239H27.1758V63.1394Z" fill="#EAF7FE"/>
<path d="M16.2344 70.6254H64.5995V57.6787H16.2344V70.6254Z" fill="#DEEDF2"/>
<path fill-rule="evenodd" clip-rule="evenodd" d="M58.1955 28.5591H58.0039V67.0773H69.5436V39.907C69.5436 33.6399 64.463 28.5591 58.1955 28.5591Z" fill="#EAF7FE"/>
<path d="M72.7389 83.3477V78.1875H36.6641V83.3477V86.3438H159.997V83.3477H72.7389Z" fill="#DEEDF2"/>
<path fill-rule="evenodd" clip-rule="evenodd" d="M88.245 43.8789H71.9865C54.6751 43.8789 38.679 53.1143 30.0233 68.1061H14.0493L0.875 90.924H17.7467C25.8246 90.924 33.289 86.6143 37.3282 79.6186C38.0472 78.3735 39.3757 77.6064 40.8132 77.6064H55.7177C63.7958 77.6064 71.2603 73.2969 75.2993 66.3011L88.245 43.8789Z" fill="#EAF7FE"/>
<path d="M21.3033 91.3851C21.3033 91.3851 17.9698 73.6566 33.6972 71.6833C49.4246 69.7101 48.041 57.6547 59.0575 59.4177C70.0741 61.1809 76.8773 76.5728 76.8773 76.5728L55.7183 77.6065L45.0207 89.7095L21.3033 91.3851Z" fill="white"/>
<path d="M64.7422 46.1265H78.5551C93.2618 46.1265 106.852 53.9724 114.206 66.709H127.776L138.969 86.0942H124.635C117.772 86.0942 111.431 82.4328 107.999 76.4897C107.389 75.4319 106.26 74.7801 105.038 74.7801H92.3763C85.5136 74.7801 79.172 71.1189 75.7405 65.1756L64.7422 46.1265Z" fill="#DEEDF2"/>
<path fill-rule="evenodd" clip-rule="evenodd" d="M110.338 0.690061C106.888 0.713367 103.596 1.39894 100.582 2.62604C97.9323 3.70424 95.0443 4.00414 92.2187 3.55955C91.4438 3.43768 90.6482 3.37909 89.8368 3.38913C82.2075 3.48478 75.9937 9.73988 75.9495 17.3663C75.9252 21.5983 77.7712 25.3994 80.7098 27.9926C82.9379 29.959 84.5501 32.5246 85.4854 35.3447C88.9638 45.8357 98.8572 53.404 110.52 53.404C125.099 53.404 136.915 41.5766 136.888 26.9973C136.861 12.443 124.898 0.591661 110.338 0.690061Z" fill="#CEDEE7"/>
<path d="M85.4815 35.3281C86.1025 37.202 86.9291 38.9835 87.9352 40.644C85.6068 38.0122 83.7991 34.9133 82.6694 31.5042C82.347 30.5329 81.9453 29.5915 81.4648 28.6948C83.3037 30.5493 84.6559 32.8395 85.4815 35.3281Z" fill="#9BC3D3"/>
<path fill-rule="evenodd" clip-rule="evenodd" d="M95.1922 46.3823C98.9151 48.3914 103.176 49.5319 107.703 49.5319C122.283 49.5319 134.099 37.705 134.072 23.1257C134.063 18.1818 132.675 13.5499 130.278 9.59277C134.375 14.2306 136.872 20.3104 136.884 26.9515C136.91 41.531 125.095 53.3577 110.515 53.3577C104.439 53.3577 98.8421 51.3023 94.3828 47.8481L95.1922 46.3823Z" fill="#9BC3D3"/>
<path d="M112.566 39.7072L123.61 31.3491L124.925 33.0854L113.882 41.4435L112.566 39.7072Z" fill="#CEDEE7"/>
<path fill-rule="evenodd" clip-rule="evenodd" d="M89.7159 83.6993H65.9453L93.0176 36.824C97.284 29.4363 105.17 24.8853 113.704 24.8853H123.683L89.7159 83.6993Z" fill="#DEEDF2"/>
<path d="M131.66 83.4874H138.863V62.5571H131.66V83.4874Z" fill="white"/>
<path d="M113.845 74.9546C112.957 73.135 112.331 71.1483 112.024 69.0369C110.432 58.0921 118.014 47.9298 128.959 46.3386C135.575 45.3763 141.906 47.7665 146.229 52.2265C144.151 52.1152 142.031 52.2071 139.893 52.5179C127.193 54.3647 117.326 63.4312 113.845 74.9546Z" fill="#DEEDF2"/>
<path d="M125.861 66.5454C122.093 66.5454 119.039 69.5996 119.039 73.3673V92.4942H125.861V66.5454Z" fill="white"/>
<path d="M131.555 76.6945H138.89V66.8828H131.555V76.6945Z" fill="#DEEDF2"/>
<path d="M131.555 79.8204H138.89V77.6104H131.555V79.8204Z" fill="#DEEDF2"/>
<path d="M145.711 91.9291H148.196V56.4009L145.711 57.3617V91.9291Z" fill="white"/>
<path d="M137.645 91.9293H140.13V64.1709L137.645 65.1319V91.9293Z" fill="white"/>
<path fill-rule="evenodd" clip-rule="evenodd" d="M148.195 91.929H155.367V56.4009H148.195V91.929Z" fill="#9BC3D3"/>
<path fill-rule="evenodd" clip-rule="evenodd" d="M149.574 91.929H155.368V56.4009H149.574V91.929Z" fill="#EAF7FE"/>
<path fill-rule="evenodd" clip-rule="evenodd" d="M140.133 91.9295H146.955V64.1709H140.133V91.9295Z" fill="#CEDEE7"/>
<path d="M125.344 91.9299H132.92V67.7368H125.344V91.9299Z" fill="white"/>
<path fill-rule="evenodd" clip-rule="evenodd" d="M140.133 64.1709L145.712 91.9293H140.133V64.1709Z" fill="#9BC3D3"/>
<path d="M136.268 91.7435H136.305V69.9795H136.268V91.7435Z" fill="#DEEDF2"/>
<path d="M136.178 68.4289C136.182 66.0048 136.199 65.2502 136.158 63.0544C136.128 61.4273 136.103 59.237 136.14 57.4324C136.17 55.9352 136.244 55.5168 136.285 56.6838C136.336 58.1057 136.299 61.1844 136.446 63.4727C136.505 64.3876 136.511 67.0395 136.426 68.011C136.391 68.4133 136.338 68.7333 136.304 73.9981C136.283 77.3659 136.171 73.0272 136.178 68.4289Z" fill="#CEDEE7"/>
<path d="M149.574 62.0002L155.368 56.4009H148.195L149.574 62.0002Z" fill="#CEDEE7"/>
<path d="M10.9205 60.1487H11.1287V37.9243H10.9205V60.1487Z" fill="#DEEDF2"/>
<path d="M9.42359 38.1263C9.4058 38.116 9.40562 37.8923 9.42341 37.8801L10.8379 36.9238L11.0181 37.8895C11.0211 37.9059 11.0212 37.9435 11.0181 37.9605L10.8393 38.9435L9.42359 38.1263Z" fill="#DEEDF2"/>
<path d="M11.8467 52.8469C11.8547 52.9839 11.8322 53.0982 11.822 52.9727L11.0117 39.7121L11.0178 37.8895C11.0179 37.8585 11.0217 37.8391 11.0249 37.8534L11.2141 38.6827L11.8467 52.8469Z" fill="#DEEDF2"/>
<path d="M11.8296 26.9325C11.8374 26.7945 11.8148 26.6827 11.8048 26.8091L11.0078 36.0671L11.0163 37.8891C11.0165 37.9203 11.0203 37.9391 11.0235 37.9249L11.2115 37.077L11.8296 26.9325Z" fill="#DEEDF2"/>
<path d="M11.1264 37.9161C11.1264 38.4175 11.079 38.8239 11.0207 38.8239C10.9623 38.8239 10.915 38.4175 10.915 37.9161C10.915 37.4151 10.9623 37.0083 11.0207 37.0083C11.079 37.0083 11.1264 37.4151 11.1264 37.9161Z" fill="#DEEDF2"/>
<path d="M9.99061 53.5786L9.88753 62.9307L9.77888 62.9307L9.77913 84.7334H9.74218L9.74193 62.9307L9.62109 62.9307L9.72418 53.5786H9.99061Z" fill="#DEEDF2"/>
<path d="M9.99061 53.5786L9.88751 62.9314L9.77888 62.931L9.77912 66.885H9.74217L9.74193 62.931L9.62109 62.9314L9.63768 61.4273H9.8408L9.92734 53.5786H9.99061Z" fill="#CEDEE7"/>
<path fill-rule="evenodd" clip-rule="evenodd" d="M38.7037 45.3415C35.7403 42.5483 34.0983 38.4307 34.6321 34.0827C35.5229 26.8281 42.136 21.6612 49.3908 22.552C56.0894 23.3744 61.0079 29.0756 61.0213 35.6558C61.0799 36.3484 61.0989 37.0437 61.0859 37.7349L61.086 37.7361L61.0863 37.7514L61.0862 37.7567C61.0821 37.9635 61.0752 38.1699 61.0656 38.3755L60.7255 48.6298L58.5802 49.0665L58.5581 49.0687L58.558 49.0688C58.4851 49.2392 58.4451 49.3312 58.4451 49.3312L58.2206 50.6965L57.8045 53.2486C57.6653 54.0929 57.3857 54.9027 56.9807 55.6467C56.697 56.172 56.3468 56.6655 55.9379 57.1133C55.4578 57.6387 54.9053 58.0952 54.3057 58.4644C53.9931 58.6584 53.6657 58.8255 53.3275 58.9685C53.1485 59.0446 52.9708 59.1129 52.7874 59.1748L52.7861 59.1753L51.7041 75.3055C51.7041 75.3055 46.854 76.1404 41.8697 74.3934C38.8563 73.3431 35.7915 71.3424 33.7195 67.6495C33.7195 67.6495 38.2314 55.2479 38.7037 45.3415Z" fill="#FFC4B8"/>
<path fill-rule="evenodd" clip-rule="evenodd" d="M41.9421 74.2096C38.9284 73.1592 35.8638 71.1585 33.7919 67.4657C33.7919 67.4657 38.6561 54.1808 38.7968 44.1096C38.7968 44.1096 43.8732 62.6629 41.9421 74.2096ZM58.5719 49.1238C57.8246 49.2468 57.184 48.5929 57.3231 47.8493L58.2196 43.0551L58.5719 49.1238Z" fill="#F4A48D"/>
<path fill-rule="evenodd" clip-rule="evenodd" d="M42.5898 38.4783C41.7647 37.1332 40.5271 36.347 39.3573 36.5816C37.693 36.9155 36.7925 39.1908 37.3477 41.6594C37.5411 42.5192 37.8857 43.2898 38.3231 43.9149C38.2697 44.6256 38.1969 45.3221 38.1074 46.0031C36.2976 44.1422 34.6283 41.7693 34.0319 39.1176C32.1723 30.8495 36.256 23.8637 46.2451 21.8597C53.7438 20.3553 61.1341 24.2909 63.8196 30.8502L62.8978 31.9474L62.8959 31.9359L62.7762 31.8884L50.2841 26.8312L45.9151 35.2075L46.856 37.4852L51.0327 47.5725C51.3218 48.2784 51.8024 48.8825 52.4079 49.334C52.868 49.6791 53.3969 49.939 53.9732 50.09L53.9772 50.0892C54.1599 50.1361 54.3453 50.1744 54.5358 50.2001C54.8397 50.2424 55.1444 50.2528 55.4473 50.2359L57.9464 50.0806C58.1824 50.0652 58.4219 50.0648 58.6589 50.0728C59.0913 50.0895 59.5202 50.1468 59.9407 50.2414C59.9495 50.2438 59.9576 50.2421 59.9633 50.249L59.9385 50.2499C59.8471 50.4233 59.797 50.517 59.797 50.517L59.463 51.9289L56.0996 52.0146C56.0116 52.0165 55.9296 52.0249 55.8453 52.0418C55.4069 52.1298 55.0341 52.4155 54.8516 52.818C54.6352 53.295 54.7344 53.8481 55.1022 54.2319L57.5219 56.7503L57.78 57.0209C57.4332 57.5519 57.0146 58.0456 56.5344 58.4883C55.9705 59.007 55.3302 59.4499 54.6439 59.7984C54.2859 59.9817 53.9132 60.1361 53.5301 60.2646L53.3876 60.1738C53.2504 60.086 53.1083 59.995 52.9739 59.9027C49.1227 57.3533 46.1213 53.8734 44.2493 49.8645C43.5705 48.4172 43.0401 46.9004 42.6753 45.3342C42.6346 45.1715 42.5978 45.0078 42.564 44.8395L42.5637 44.8382C43.4214 43.9158 43.7801 42.2331 43.379 40.4495L43.3643 40.3858L43.3593 40.3645L43.349 40.3224L43.3429 40.2976L43.3332 40.2587L43.3267 40.2334L43.3164 40.1942L43.31 40.1704L43.2973 40.1238L43.293 40.108L43.2759 40.0477L43.2692 40.0252L43.2577 39.9863L43.2499 39.9603L43.2391 39.925L43.2308 39.8983L43.2197 39.8633L43.2114 39.8374L43.1988 39.7993L43.1916 39.7772L43.1721 39.7198L43.1642 39.6972L43.1513 39.6606L43.1419 39.6343L43.13 39.6015L43.12 39.5745L43.1081 39.5424L43.098 39.5158L43.085 39.4822L43.0756 39.4578L43.0538 39.403L43.0451 39.3819L43.0305 39.346L43.0197 39.3203L43.0066 39.2893L42.9953 39.2628L42.9822 39.2326L42.9707 39.2065L42.9569 39.1754L42.9458 39.1508L42.9279 39.1116L42.9212 39.097L42.914 39.0816L42.896 39.0436L42.8845 39.0195L42.8698 38.9891L42.8575 38.9642L42.843 38.9349L42.8306 38.9101L42.8154 38.8803L42.8033 38.8568L42.7851 38.822L42.7758 38.8041L42.7489 38.754L42.7374 38.733L42.7204 38.702L42.7077 38.6794L42.6913 38.6502L42.6784 38.6276L42.6614 38.5982L42.649 38.5768L42.6292 38.5434L42.6192 38.5267L42.5898 38.4783Z" fill="#2A8FEC"/>
<path fill-rule="evenodd" clip-rule="evenodd" d="M56.3417 67.0207L56.0704 68.2397C59.598 71.2201 62.3483 75.0236 64.0761 79.3103C64.8811 81.3059 65.4647 83.4068 65.7994 85.5797C65.92 86.3575 66.0089 87.1463 66.0639 87.9431L66.4846 93.9706L66.5759 95.2847L67.3652 106.583L68.0103 115.845L68.7125 125.89L70.4009 150.095L70.8172 156.055L71.1613 160.984L28.0389 139.952L24.4916 89.1268C24.1034 83.5587 25.2107 78.0799 27.5881 73.2054C29.0238 70.2618 30.9223 67.5384 33.2346 65.1496L33.8675 59.6336C33.8675 59.6336 53.6571 62.5169 56.3417 67.0207Z" fill="#9E3667"/>
<path fill-rule="evenodd" clip-rule="evenodd" d="M92.107 99.9641L92.7168 103.495L92.031 125.273L65.7422 110.269L65.818 84.9961L92.107 99.9641Z" fill="#F6C854"/>
<path fill-rule="evenodd" clip-rule="evenodd" d="M91.6859 100.114L116.736 85.7349L116.66 111.227L91.6094 125.642L91.6859 100.114Z" fill="#D39E00"/>
<path d="M65.7422 85.2123L90.7153 70.9541L117.105 85.9232L92.1316 100.146L65.7422 85.2123Z" fill="#D39E00"/>
<path fill-rule="evenodd" clip-rule="evenodd" d="M92.7199 97.7218L92.077 102.732L64.6367 86.6234V82.0396L92.7199 97.7218Z" fill="#D39E00"/>
<path fill-rule="evenodd" clip-rule="evenodd" d="M80.1953 96.8203L80.1562 101.538L88.9856 106.797L89.0246 102.043L80.1953 96.8203Z" fill="white"/>
<path fill-rule="evenodd" clip-rule="evenodd" d="M91.6459 97.9503L117.845 83.1484V87.5646L91.6094 102.363L91.6459 97.9503Z" fill="#FFE99F"/>
<path fill-rule="evenodd" clip-rule="evenodd" d="M64.2656 82.0493L90.3523 66.8896L117.845 82.7691L91.7946 97.9289L64.2656 82.0493Z" fill="#F6C854"/>
<path fill-rule="evenodd" clip-rule="evenodd" d="M49.2744 99.7407L70.9909 100.588L90.0663 85.4353L97.9258 74.8463L104.43 75.0559C105.009 75.0747 105.429 75.6295 105.291 76.1935L103.671 82.8309C103.036 85.4309 101.254 87.5796 98.8306 88.6671L91.977 91.7423L85.6717 99.9311C80.8718 106.164 75.326 111.772 69.1562 116.631C64.3558 120.412 57.227 118.499 54.8025 112.78L49.2744 99.7407Z" fill="#FFC4B8"/>
<path fill-rule="evenodd" clip-rule="evenodd" d="M100.119 106.751C99.8443 106.254 99.5771 105.772 99.3101 105.29C99.282 105.24 99.2894 105.191 99.3153 105.139C99.8353 104.103 100.559 103.276 101.723 102.944C103.138 102.541 104.38 103.319 104.726 104.797C104.934 105.688 104.767 106.575 104.653 107.462C104.624 107.688 104.578 107.913 104.538 108.144C104.649 108.157 104.714 108.086 104.788 108.045C105.379 107.721 105.969 107.395 106.557 107.065C106.668 107.002 106.736 106.984 106.807 107.119C107.021 107.524 107.244 107.925 107.473 108.322C107.545 108.447 107.51 108.503 107.393 108.567C105.779 109.458 104.168 110.353 102.555 111.245C102.498 111.276 102.437 111.348 102.364 111.283C102.291 111.217 102.332 111.137 102.354 111.06C102.652 109.996 102.875 108.917 103.085 107.835C103.216 107.157 103.252 106.48 103.017 105.818C102.954 105.642 102.871 105.476 102.755 105.33C102.3 104.753 101.593 104.729 100.997 105.269C100.649 105.584 100.432 105.98 100.271 106.411C100.232 106.516 100.226 106.636 100.119 106.751Z" fill="#1B4872"/>
<path fill-rule="evenodd" clip-rule="evenodd" d="M111.701 101.865C111.921 101.898 112.117 101.929 112.314 101.958C113.517 102.135 114.379 103.806 113.746 105.005C113.369 105.719 112.785 106.185 112.063 106.496C111.475 106.75 110.859 106.91 110.224 107.002C110.058 107.026 109.961 106.991 109.878 106.832C109.648 106.389 109.398 105.957 109.138 105.486C109.418 105.504 109.659 105.528 109.9 105.534C110.433 105.546 110.932 105.439 111.356 105.087C111.685 104.813 111.824 104.387 111.696 104.036C111.553 103.646 111.201 103.415 110.755 103.415C110.464 103.416 110.196 103.503 109.955 103.658C109.807 103.753 109.721 103.742 109.639 103.575C109.514 103.321 109.375 103.073 109.227 102.832C109.138 102.686 109.166 102.61 109.313 102.536C109.483 102.45 109.648 102.351 109.777 102.203C110.082 101.856 110.135 101.358 109.895 101.044C109.617 100.681 109.114 100.574 108.688 100.797C108.221 101.041 107.884 101.421 107.623 101.868C107.519 102.047 107.466 102.054 107.37 101.865C107.203 101.54 107.019 101.224 106.841 100.905C106.796 100.824 106.752 100.756 106.828 100.66C107.48 99.8329 108.25 99.1656 109.299 98.905C110.32 98.6515 111.392 99.0857 111.792 99.9175C112.104 100.566 112.001 101.214 111.701 101.865Z" fill="#1B4872"/>
<path fill-rule="evenodd" clip-rule="evenodd" d="M96.4863 110.494C95.9011 109.439 95.3197 108.381 94.7268 107.329C94.6357 107.168 94.6484 107.096 94.8255 107.003C95.3466 106.729 95.8598 106.44 96.3709 106.148C96.5063 106.071 96.5706 106.082 96.645 106.217C97.8287 108.362 99.0164 110.505 100.208 112.645C100.287 112.786 100.278 112.855 100.122 112.938C99.6019 113.215 99.0864 113.5 98.577 113.795C98.416 113.888 98.3475 113.862 98.2645 113.71C97.6771 112.635 97.0802 111.566 96.4863 110.494Z" fill="#1B4872"/>
<path fill-rule="evenodd" clip-rule="evenodd" d="M101.373 112.118L101.533 112.029L97.7711 105.242L97.6107 105.331L101.373 112.118Z" fill="#CCCCCC"/>
<path fill-rule="evenodd" clip-rule="evenodd" d="M108.814 108.128L108.975 108.039L105.212 101.252L105.052 101.341L108.814 108.128Z" fill="#CCCCCC"/>
</svg>
